<?xml version="1.0" encoding="UTF-8" standalone="no"?>
<!DOCTYPE svg PUBLIC "-//W3C//DTD SVG 1.1//EN"
 "http://www.w3.org/Graphics/SVG/1.1/DTD/svg11.dtd">
<!-- Generated by graphviz version 2.40.1 (20161225.0304)
 -->
<!-- Title: AlglibInterface.cpp Pages: 1 -->
<svg width="1658pt" height="554pt"
 viewBox="0.00 0.00 1658.00 554.00" xmlns="http://www.w3.org/2000/svg" xmlns:xlink="http://www.w3.org/1999/xlink">
<g id="graph0" class="graph" transform="scale(1 1) rotate(0) translate(4 550)">
<title>AlglibInterface.cpp</title>
<!-- Node0 -->
<g id="node1" class="node">
<title>Node0</title>
<polygon fill="#bfbfbf" stroke="#000000" points="1202,-526.5 1202,-545.5 1310,-545.5 1310,-526.5 1202,-526.5"/>
<text text-anchor="middle" x="1256" y="-533.5" font-family="FreeSans.ttf" font-size="10.00" fill="#000000">AlglibInterface.cpp</text>
</g>
<!-- Node1 -->
<g id="node2" class="node">
<title>Node1</title>
<g id="a_node2"><a xlink:href="AlglibInterface_8h.html" target="_top" xlink:title="iDynTree/Optimizers\l/AlglibInterface.h">
<polygon fill="none" stroke="#000000" points="79,-459.5 79,-489.5 195,-489.5 195,-459.5 79,-459.5"/>
<text text-anchor="start" x="87" y="-477.5" font-family="FreeSans.ttf" font-size="10.00" fill="#000000">iDynTree/Optimizers</text>
<text text-anchor="middle" x="137" y="-466.5" font-family="FreeSans.ttf" font-size="10.00" fill="#000000">/AlglibInterface.h</text>
</a>
</g>
</g>
<!-- Node0&#45;&gt;Node1 -->
<g id="edge1" class="edge">
<title>Node0&#45;&gt;Node1</title>
<path fill="none" stroke="#191970" d="M1201.7487,-534.5274C1017.4617,-529.3767 416.2895,-511.3208 224,-490 217.8958,-489.3232 211.5733,-488.479 205.2501,-487.5364"/>
<polygon fill="#191970" stroke="#191970" points="205.7655,-484.0745 195.3442,-485.984 204.6817,-490.9901 205.7655,-484.0745"/>
</g>
<!-- Node7 -->
<g id="node8" class="node">
<title>Node7</title>
<polygon fill="none" stroke="#bfbfbf" points="266.5,-398 266.5,-417 343.5,-417 343.5,-398 266.5,-398"/>
<text text-anchor="middle" x="305" y="-405" font-family="FreeSans.ttf" font-size="10.00" fill="#000000">Eigen/Dense</text>
</g>
<!-- Node0&#45;&gt;Node7 -->
<g id="edge8" class="edge">
<title>Node0&#45;&gt;Node7</title>
<path fill="none" stroke="#191970" d="M1201.8835,-534.3825C1096.8782,-530.6794 858.3719,-519.5091 660,-490 524.0107,-469.7707 491.1632,-457.2034 358,-423 354.1408,-422.0087 350.1376,-420.9308 346.1391,-419.8204"/>
<polygon fill="#191970" stroke="#191970" points="346.8694,-416.3895 336.2936,-417.0245 344.9571,-423.1232 346.8694,-416.3895"/>
</g>
<!-- Node8 -->
<g id="node9" class="node">
<title>Node8</title>
<g id="a_node9"><a xlink:href="EigenHelpers_8h.html" target="_top" xlink:title="iDynTree/Core/EigenHelpers.h">
<polygon fill="none" stroke="#000000" points="669.5,-465 669.5,-484 830.5,-484 830.5,-465 669.5,-465"/>
<text text-anchor="middle" x="750" y="-472" font-family="FreeSans.ttf" font-size="10.00" fill="#000000">iDynTree/Core/EigenHelpers.h</text>
</a>
</g>
</g>
<!-- Node0&#45;&gt;Node8 -->
<g id="edge9" class="edge">
<title>Node0&#45;&gt;Node8</title>
<path fill="none" stroke="#191970" d="M1201.8491,-529.4184C1114.9113,-518.8519 943.3476,-497.9998 838.4459,-485.2498"/>
<polygon fill="#191970" stroke="#191970" points="838.8566,-481.7741 828.5073,-484.0419 838.0119,-488.723 838.8566,-481.7741"/>
</g>
<!-- Node9 -->
<g id="node10" class="node">
<title>Node9</title>
<g id="a_node10"><a xlink:href="VectorDynSize_8h.html" target="_top" xlink:title="iDynTree/Core/VectorDynSize.h">
<polygon fill="none" stroke="#000000" points="1226.5,-224.5 1226.5,-243.5 1393.5,-243.5 1393.5,-224.5 1226.5,-224.5"/>
<text text-anchor="middle" x="1310" y="-231.5" font-family="FreeSans.ttf" font-size="10.00" fill="#000000">iDynTree/Core/VectorDynSize.h</text>
</a>
</g>
</g>
<!-- Node0&#45;&gt;Node9 -->
<g id="edge72" class="edge">
<title>Node0&#45;&gt;Node9</title>
<path fill="none" stroke="#191970" d="M1253.5936,-526.3999C1248.481,-505.1324 1237,-452.3776 1237,-407.5 1237,-407.5 1237,-407.5 1237,-346 1237,-306.8965 1268.6171,-270.7535 1290.2361,-250.6105"/>
<polygon fill="#191970" stroke="#191970" points="1292.8346,-252.9817 1297.9455,-243.7011 1288.1627,-247.7688 1292.8346,-252.9817"/>
</g>
<!-- Node11 -->
<g id="node12" class="node">
<title>Node11</title>
<polygon fill="none" stroke="#bfbfbf" points="796,-.5 796,-19.5 848,-19.5 848,-.5 796,-.5"/>
<text text-anchor="middle" x="822" y="-7.5" font-family="FreeSans.ttf" font-size="10.00" fill="#000000">cassert</text>
</g>
<!-- Node0&#45;&gt;Node11 -->
<g id="edge77" class="edge">
<title>Node0&#45;&gt;Node11</title>
<path fill="none" stroke="#191970" d="M1284.4963,-526.4415C1325.3973,-511.2157 1400.1922,-477.4845 1440,-423 1460.7946,-394.5386 1459,-381.2487 1459,-346 1459,-346 1459,-346 1459,-122 1459,-60.5725 993.5754,-22.3262 858.3986,-12.5135"/>
<polygon fill="#191970" stroke="#191970" points="858.3836,-9.0035 848.1587,-11.7789 857.8826,-15.9856 858.3836,-9.0035"/>
</g>
<!-- Node21 -->
<g id="node22" class="node">
<title>Node21</title>
<g id="a_node22"><a xlink:href="Utils_8h.html" target="_top" xlink:title="iDynTree/Core/Utils.h">
<polygon fill="none" stroke="#000000" points="278.5,-56.5 278.5,-75.5 397.5,-75.5 397.5,-56.5 278.5,-56.5"/>
<text text-anchor="middle" x="338" y="-63.5" font-family="FreeSans.ttf" font-size="10.00" fill="#000000">iDynTree/Core/Utils.h</text>
</a>
</g>
</g>
<!-- Node0&#45;&gt;Node21 -->
<g id="edge74" class="edge">
<title>Node0&#45;&gt;Node21</title>
<path fill="none" stroke="#191970" d="M1201.9867,-534.9206C991.5285,-530.0119 238,-505.5875 238,-407.5 238,-407.5 238,-407.5 238,-178 238,-134.0606 281.3553,-99.4269 310.9715,-80.8942"/>
<polygon fill="#191970" stroke="#191970" points="312.8945,-83.8219 319.6585,-75.6672 309.2855,-77.824 312.8945,-83.8219"/>
</g>
<!-- Node24 -->
<g id="node25" class="node">
<title>Node24</title>
<g id="a_node25"><a xlink:href="MatrixDynSize_8h.html" target="_top" xlink:title="iDynTree/Core/MatrixDynSize.h">
<polygon fill="none" stroke="#000000" points="1264.5,-398 1264.5,-417 1431.5,-417 1431.5,-398 1264.5,-398"/>
<text text-anchor="middle" x="1348" y="-405" font-family="FreeSans.ttf" font-size="10.00" fill="#000000">iDynTree/Core/MatrixDynSize.h</text>
</a>
</g>
</g>
<!-- Node0&#45;&gt;Node24 -->
<g id="edge73" class="edge">
<title>Node0&#45;&gt;Node24</title>
<path fill="none" stroke="#191970" d="M1262.915,-526.3416C1278.233,-504.9463 1315.2297,-453.2715 1335.0121,-425.6407"/>
<polygon fill="#191970" stroke="#191970" points="1338.0292,-427.4389 1341.0048,-417.2705 1332.3376,-423.3639 1338.0292,-427.4389"/>
</g>
<!-- Node36 -->
<g id="node37" class="node">
<title>Node36</title>
<polygon fill="none" stroke="#bfbfbf" points="1432.5,-465 1432.5,-484 1519.5,-484 1519.5,-465 1432.5,-465"/>
<text text-anchor="middle" x="1476" y="-472" font-family="FreeSans.ttf" font-size="10.00" fill="#000000">optimization.h</text>
</g>
<!-- Node0&#45;&gt;Node36 -->
<g id="edge75" class="edge">
<title>Node0&#45;&gt;Node36</title>
<path fill="none" stroke="#191970" d="M1290.375,-526.3906C1328.5573,-515.7169 1390.3016,-498.4566 1431.9884,-486.8033"/>
<polygon fill="#191970" stroke="#191970" points="1433.1779,-490.105 1441.8664,-484.0419 1431.2933,-483.3634 1433.1779,-490.105"/>
</g>
<!-- Node37 -->
<g id="node38" class="node">
<title>Node37</title>
<polygon fill="none" stroke="#bfbfbf" points="1538,-465 1538,-484 1594,-484 1594,-465 1538,-465"/>
<text text-anchor="middle" x="1566" y="-472" font-family="FreeSans.ttf" font-size="10.00" fill="#000000">stdafx.h</text>
</g>
<!-- Node0&#45;&gt;Node37 -->
<g id="edge76" class="edge">
<title>Node0&#45;&gt;Node37</title>
<path fill="none" stroke="#191970" d="M1310.1925,-530.3911C1365.6523,-523.8274 1453.9558,-511.0845 1528,-490 1530.4583,-489.3 1532.9739,-488.4918 1535.4824,-487.6194"/>
<polygon fill="#191970" stroke="#191970" points="1536.8678,-490.8376 1544.9864,-484.0303 1534.3947,-484.289 1536.8678,-490.8376"/>
</g>
<!-- Node38 -->
<g id="node39" class="node">
<title>Node38</title>
<polygon fill="none" stroke="#bfbfbf" points="1612,-465 1612,-484 1650,-484 1650,-465 1612,-465"/>
<text text-anchor="middle" x="1631" y="-472" font-family="FreeSans.ttf" font-size="10.00" fill="#000000">map</text>
</g>
<!-- Node0&#45;&gt;Node38 -->
<g id="edge78" class="edge">
<title>Node0&#45;&gt;Node38</title>
<path fill="none" stroke="#191970" d="M1310.3058,-531.2877C1393.8743,-523.6172 1549.9067,-507.5173 1603,-490 1604.2466,-489.5887 1605.5015,-489.1213 1606.7527,-488.6117"/>
<polygon fill="#191970" stroke="#191970" points="1608.5882,-491.612 1616.0679,-484.1083 1605.5414,-485.3098 1608.5882,-491.612"/>
</g>
<!-- Node2 -->
<g id="node3" class="node">
<title>Node2</title>
<g id="a_node3"><a xlink:href="Optimizer_8h.html" target="_top" xlink:title="iDynTree/Optimizer.h">
<polygon fill="none" stroke="#000000" points="62.5,-398 62.5,-417 181.5,-417 181.5,-398 62.5,-398"/>
<text text-anchor="middle" x="122" y="-405" font-family="FreeSans.ttf" font-size="10.00" fill="#000000">iDynTree/Optimizer.h</text>
</a>
</g>
</g>
<!-- Node1&#45;&gt;Node2 -->
<g id="edge2" class="edge">
<title>Node1&#45;&gt;Node2</title>
<path fill="none" stroke="#191970" d="M133.5963,-459.2967C131.4634,-449.7699 128.693,-437.3954 126.3949,-427.1306"/>
<polygon fill="#191970" stroke="#191970" points="129.7394,-426.0487 124.1392,-417.055 122.9085,-427.5781 129.7394,-426.0487"/>
</g>
<!-- Node3 -->
<g id="node4" class="node">
<title>Node3</title>
<polygon fill="none" stroke="#bfbfbf" points="0,-280.5 0,-299.5 58,-299.5 58,-280.5 0,-280.5"/>
<text text-anchor="middle" x="29" y="-287.5" font-family="FreeSans.ttf" font-size="10.00" fill="#000000">memory</text>
</g>
<!-- Node2&#45;&gt;Node3 -->
<g id="edge3" class="edge">
<title>Node2&#45;&gt;Node3</title>
<path fill="none" stroke="#191970" d="M84.4107,-397.9657C62.9692,-390.3897 37.8708,-377.4058 25,-356 16.6918,-342.1823 18.7041,-323.6599 22.2133,-309.7545"/>
<polygon fill="#191970" stroke="#191970" points="25.6865,-310.3532 25.1798,-299.7705 18.9765,-308.3594 25.6865,-310.3532"/>
</g>
<!-- Node4 -->
<g id="node5" class="node">
<title>Node4</title>
<g id="a_node5"><a xlink:href="OptimizationProblem_8h.html" target="_top" xlink:title="iDynTree/OptimizationProblem.h">
<polygon fill="none" stroke="#000000" points="34.5,-336.5 34.5,-355.5 209.5,-355.5 209.5,-336.5 34.5,-336.5"/>
<text text-anchor="middle" x="122" y="-343.5" font-family="FreeSans.ttf" font-size="10.00" fill="#000000">iDynTree/OptimizationProblem.h</text>
</a>
</g>
</g>
<!-- Node2&#45;&gt;Node4 -->
<g id="edge4" class="edge">
<title>Node2&#45;&gt;Node4</title>
<path fill="none" stroke="#191970" d="M122,-397.8906C122,-389.3657 122,-376.6392 122,-365.9235"/>
<polygon fill="#191970" stroke="#191970" points="125.5001,-365.7448 122,-355.7449 118.5001,-365.7449 125.5001,-365.7448"/>
</g>
<!-- Node4&#45;&gt;Node3 -->
<g id="edge6" class="edge">
<title>Node4&#45;&gt;Node3</title>
<path fill="none" stroke="#191970" d="M105.8006,-336.2455C91.3982,-327.5731 70.1268,-314.7645 53.6201,-304.825"/>
<polygon fill="#191970" stroke="#191970" points="55.386,-301.8028 45.0137,-299.6427 51.775,-307.7996 55.386,-301.8028"/>
</g>
<!-- Node5 -->
<g id="node6" class="node">
<title>Node5</title>
<polygon fill="none" stroke="#bfbfbf" points="98.5,-280.5 98.5,-299.5 145.5,-299.5 145.5,-280.5 98.5,-280.5"/>
<text text-anchor="middle" x="122" y="-287.5" font-family="FreeSans.ttf" font-size="10.00" fill="#000000">vector</text>
</g>
<!-- Node4&#45;&gt;Node5 -->
<g id="edge5" class="edge">
<title>Node4&#45;&gt;Node5</title>
<path fill="none" stroke="#191970" d="M122,-336.2455C122,-328.9382 122,-318.6944 122,-309.7046"/>
<polygon fill="#191970" stroke="#191970" points="125.5001,-309.6426 122,-299.6427 118.5001,-309.6427 125.5001,-309.6426"/>
</g>
<!-- Node6 -->
<g id="node7" class="node">
<title>Node6</title>
<polygon fill="none" stroke="#bfbfbf" points="215.5,-.5 215.5,-19.5 268.5,-19.5 268.5,-.5 215.5,-.5"/>
<text text-anchor="middle" x="242" y="-7.5" font-family="FreeSans.ttf" font-size="10.00" fill="#000000">cstddef</text>
</g>
<!-- Node4&#45;&gt;Node6 -->
<g id="edge7" class="edge">
<title>Node4&#45;&gt;Node6</title>
<path fill="none" stroke="#191970" d="M132.4434,-336.3101C150.8174,-318.151 187,-276.9402 187,-234 187,-234 187,-234 187,-122 187,-85.6071 210.6865,-48.7455 226.971,-27.7035"/>
<polygon fill="#191970" stroke="#191970" points="229.8667,-29.6876 233.4063,-19.7015 224.4118,-25.3008 229.8667,-29.6876"/>
</g>
<!-- Node8&#45;&gt;Node7 -->
<g id="edge10" class="edge">
<title>Node8&#45;&gt;Node7</title>
<path fill="none" stroke="#191970" d="M669.4327,-467.5727C589.7537,-459.8658 464.6275,-445.4565 358,-423 353.5528,-422.0634 348.9352,-420.9421 344.3628,-419.7367"/>
<polygon fill="#191970" stroke="#191970" points="345.0808,-416.3038 334.509,-417.0026 343.2091,-423.0489 345.0808,-416.3038"/>
</g>
<!-- Node8&#45;&gt;Node9 -->
<g id="edge11" class="edge">
<title>Node8&#45;&gt;Node9</title>
<path fill="none" stroke="#191970" d="M775.1515,-464.8348C841.2546,-439.2906 1025.1156,-367.3229 1175,-300 1212.5155,-283.1493 1255.0187,-262.0249 1282.1414,-248.2797"/>
<polygon fill="#191970" stroke="#191970" points="1284.0733,-251.2239 1291.4004,-243.5712 1280.9003,-244.9844 1284.0733,-251.2239"/>
</g>
<!-- Node20 -->
<g id="node21" class="node">
<title>Node20</title>
<g id="a_node21"><a xlink:href="VectorFixSize_8h.html" target="_top" xlink:title="iDynTree/Core/VectorFixSize.h">
<polygon fill="none" stroke="#000000" points="461.5,-112.5 461.5,-131.5 622.5,-131.5 622.5,-112.5 461.5,-112.5"/>
<text text-anchor="middle" x="542" y="-119.5" font-family="FreeSans.ttf" font-size="10.00" fill="#000000">iDynTree/Core/VectorFixSize.h</text>
</a>
</g>
</g>
<!-- Node8&#45;&gt;Node20 -->
<g id="edge23" class="edge">
<title>Node8&#45;&gt;Node20</title>
<path fill="none" stroke="#191970" d="M669.2575,-466.2955C583.5657,-456.7567 458.4809,-440.1217 444,-423 369.918,-335.4081 422.6562,-264.9403 484,-168 491.9407,-155.4514 504.5291,-144.8594 515.952,-137.0141"/>
<polygon fill="#191970" stroke="#191970" points="517.8749,-139.9387 524.3637,-131.5633 514.0682,-134.0642 517.8749,-139.9387"/>
</g>
<!-- Node8&#45;&gt;Node21 -->
<g id="edge71" class="edge">
<title>Node8&#45;&gt;Node21</title>
<path fill="none" stroke="#191970" d="M669.2946,-465.7063C578.2075,-455.19 440.0348,-437.225 420,-423 342.3418,-367.8618 319,-329.2419 319,-234 319,-234 319,-234 319,-178 319,-145.2688 326.9852,-107.9052 332.6022,-85.6716"/>
<polygon fill="#191970" stroke="#191970" points="336.0415,-86.3545 335.1965,-75.7934 329.2711,-84.5763 336.0415,-86.3545"/>
</g>
<!-- Node8&#45;&gt;Node24 -->
<g id="edge31" class="edge">
<title>Node8&#45;&gt;Node24</title>
<path fill="none" stroke="#191970" d="M830.7222,-465.6087C923.1179,-455.4113 1078.9897,-438.1462 1213,-423 1226.6762,-421.4543 1241.1301,-419.8081 1255.297,-418.1875"/>
<polygon fill="#191970" stroke="#191970" points="1256.0099,-421.6288 1265.5468,-417.0138 1255.2135,-414.6743 1256.0099,-421.6288"/>
</g>
<!-- Node25 -->
<g id="node26" class="node">
<title>Node25</title>
<g id="a_node26"><a xlink:href="MatrixFixSize_8h.html" target="_top" xlink:title="iDynTree/Core/MatrixFixSize.h">
<polygon fill="none" stroke="#000000" points="679.5,-112.5 679.5,-131.5 840.5,-131.5 840.5,-112.5 679.5,-112.5"/>
<text text-anchor="middle" x="760" y="-119.5" font-family="FreeSans.ttf" font-size="10.00" fill="#000000">iDynTree/Core/MatrixFixSize.h</text>
</a>
</g>
</g>
<!-- Node8&#45;&gt;Node25 -->
<g id="edge33" class="edge">
<title>Node8&#45;&gt;Node25</title>
<path fill="none" stroke="#191970" d="M758.732,-464.7158C766.8188,-454.9452 778.2838,-439.1016 783,-423 798.5375,-369.9532 772.8545,-199.9657 763.3314,-141.7651"/>
<polygon fill="#191970" stroke="#191970" points="766.7483,-140.9757 761.6592,-131.6832 759.8427,-142.1211 766.7483,-140.9757"/>
</g>
<!-- Node27 -->
<g id="node28" class="node">
<title>Node27</title>
<g id="a_node28"><a xlink:href="SpatialMotionVector_8h.html" target="_top" xlink:title="iDynTree/Core/SpatialMotion\lVector.h">
<polygon fill="none" stroke="#000000" points="619.5,-392.5 619.5,-422.5 774.5,-422.5 774.5,-392.5 619.5,-392.5"/>
<text text-anchor="start" x="627.5" y="-410.5" font-family="FreeSans.ttf" font-size="10.00" fill="#000000">iDynTree/Core/SpatialMotion</text>
<text text-anchor="middle" x="697" y="-399.5" font-family="FreeSans.ttf" font-size="10.00" fill="#000000">Vector.h</text>
</a>
</g>
</g>
<!-- Node8&#45;&gt;Node27 -->
<g id="edge40" class="edge">
<title>Node8&#45;&gt;Node27</title>
<path fill="none" stroke="#191970" d="M742.4064,-464.9005C735.3584,-455.9908 724.5875,-442.3748 715.3047,-430.6399"/>
<polygon fill="#191970" stroke="#191970" points="717.832,-428.1932 708.8829,-422.5218 712.342,-432.536 717.832,-428.1932"/>
</g>
<!-- Node34 -->
<g id="node35" class="node">
<title>Node34</title>
<g id="a_node35"><a xlink:href="SpatialForceVector_8h.html" target="_top" xlink:title="iDynTree/Core/SpatialForce\lVector.h">
<polygon fill="none" stroke="#000000" points="453,-392.5 453,-422.5 601,-422.5 601,-392.5 453,-392.5"/>
<text text-anchor="start" x="461" y="-410.5" font-family="FreeSans.ttf" font-size="10.00" fill="#000000">iDynTree/Core/SpatialForce</text>
<text text-anchor="middle" x="527" y="-399.5" font-family="FreeSans.ttf" font-size="10.00" fill="#000000">Vector.h</text>
</a>
</g>
</g>
<!-- Node8&#45;&gt;Node34 -->
<g id="edge62" class="edge">
<title>Node8&#45;&gt;Node34</title>
<path fill="none" stroke="#191970" d="M718.0495,-464.9005C683.8603,-454.6284 628.8497,-438.1006 586.6182,-425.4122"/>
<polygon fill="#191970" stroke="#191970" points="587.582,-422.0473 576.9978,-422.5218 585.5678,-428.7512 587.582,-422.0473"/>
</g>
<!-- Node35 -->
<g id="node36" class="node">
<title>Node35</title>
<g id="a_node36"><a xlink:href="Transform_8h.html" target="_top" xlink:title="iDynTree/Core/Transform.h">
<polygon fill="none" stroke="#000000" points="831,-336.5 831,-355.5 977,-355.5 977,-336.5 831,-336.5"/>
<text text-anchor="middle" x="904" y="-343.5" font-family="FreeSans.ttf" font-size="10.00" fill="#000000">iDynTree/Core/Transform.h</text>
</a>
</g>
</g>
<!-- Node8&#45;&gt;Node35 -->
<g id="edge66" class="edge">
<title>Node8&#45;&gt;Node35</title>
<path fill="none" stroke="#191970" d="M763.0515,-464.8871C776.7074,-454.7323 798.6683,-438.1272 817,-423 841.3326,-402.9208 868.4075,-378.6347 885.7911,-362.7773"/>
<polygon fill="#191970" stroke="#191970" points="888.4808,-365.0601 893.4918,-355.7252 883.7532,-359.8977 888.4808,-365.0601"/>
</g>
<!-- Node10 -->
<g id="node11" class="node">
<title>Node10</title>
<g id="a_node11"><a xlink:href="Span_8h.html" target="_top" xlink:title="iDynTree/Core/Span.h">
<polygon fill="none" stroke="#000000" points="515.5,-56.5 515.5,-75.5 636.5,-75.5 636.5,-56.5 515.5,-56.5"/>
<text text-anchor="middle" x="576" y="-63.5" font-family="FreeSans.ttf" font-size="10.00" fill="#000000">iDynTree/Core/Span.h</text>
</a>
</g>
</g>
<!-- Node9&#45;&gt;Node10 -->
<g id="edge12" class="edge">
<title>Node9&#45;&gt;Node10</title>
<path fill="none" stroke="#191970" d="M1251.233,-224.438C1211.2207,-216.9431 1157.4755,-204.9292 1112,-188 1094.1139,-181.3415 1092.3064,-173.3967 1074,-168 901.0898,-117.0267 839.3062,-193.9001 670,-132 640.3865,-121.173 611.4929,-98.5406 593.7281,-82.8174"/>
<polygon fill="#191970" stroke="#191970" points="595.6983,-79.878 585.9468,-75.7357 590.9868,-85.055 595.6983,-79.878"/>
</g>
<!-- Node19 -->
<g id="node20" class="node">
<title>Node19</title>
<polygon fill="none" stroke="#bfbfbf" points="1178,-56.5 1178,-75.5 1222,-75.5 1222,-56.5 1178,-56.5"/>
<text text-anchor="middle" x="1200" y="-63.5" font-family="FreeSans.ttf" font-size="10.00" fill="#000000">string</text>
</g>
<!-- Node9&#45;&gt;Node19 -->
<g id="edge22" class="edge">
<title>Node9&#45;&gt;Node19</title>
<path fill="none" stroke="#191970" d="M1325.618,-224.4791C1337.2472,-216.3972 1352.2332,-203.6339 1359,-188 1372.4171,-157.0013 1379.296,-139.0002 1359,-112 1343.7588,-91.7243 1273.925,-77.5375 1232.0414,-70.684"/>
<polygon fill="#191970" stroke="#191970" points="1232.47,-67.2083 1222.0455,-69.1003 1231.3746,-74.1221 1232.47,-67.2083"/>
</g>
<!-- Node10&#45;&gt;Node6 -->
<g id="edge16" class="edge">
<title>Node10&#45;&gt;Node6</title>
<path fill="none" stroke="#191970" d="M515.3208,-57.0824C441.4764,-46.1708 322.0494,-28.3155 278.6049,-20.0201"/>
<polygon fill="#191970" stroke="#191970" points="279.163,-16.5619 268.6652,-17.9922 277.7637,-23.4206 279.163,-16.5619"/>
</g>
<!-- Node10&#45;&gt;Node11 -->
<g id="edge13" class="edge">
<title>Node10&#45;&gt;Node11</title>
<path fill="none" stroke="#191970" d="M623.9687,-56.4496C664.6893,-48.1379 724.875,-35.3743 785.8801,-20.1755"/>
<polygon fill="#191970" stroke="#191970" points="786.8289,-23.546 795.6752,-17.7156 785.1238,-16.7568 786.8289,-23.546"/>
</g>
<!-- Node12 -->
<g id="node13" class="node">
<title>Node12</title>
<polygon fill="none" stroke="#bfbfbf" points="654,-.5 654,-19.5 718,-19.5 718,-.5 654,-.5"/>
<text text-anchor="middle" x="686" y="-7.5" font-family="FreeSans.ttf" font-size="10.00" fill="#000000">algorithm</text>
</g>
<!-- Node10&#45;&gt;Node12 -->
<g id="edge14" class="edge">
<title>Node10&#45;&gt;Node12</title>
<path fill="none" stroke="#191970" d="M595.1605,-56.2455C612.5111,-47.4125 638.2901,-34.2887 657.9583,-24.2758"/>
<polygon fill="#191970" stroke="#191970" points="659.7353,-27.2986 667.059,-19.6427 656.5595,-21.0605 659.7353,-27.2986"/>
</g>
<!-- Node13 -->
<g id="node14" class="node">
<title>Node13</title>
<polygon fill="none" stroke="#bfbfbf" points="736,-.5 736,-19.5 778,-19.5 778,-.5 736,-.5"/>
<text text-anchor="middle" x="757" y="-7.5" font-family="FreeSans.ttf" font-size="10.00" fill="#000000">array</text>
</g>
<!-- Node10&#45;&gt;Node13 -->
<g id="edge15" class="edge">
<title>Node10&#45;&gt;Node13</title>
<path fill="none" stroke="#191970" d="M608.1829,-56.4605C636.8315,-47.9102 680.1071,-34.8521 726.1626,-20.2167"/>
<polygon fill="#191970" stroke="#191970" points="727.2529,-23.5427 735.7171,-17.1703 725.1264,-16.8735 727.2529,-23.5427"/>
</g>
<!-- Node14 -->
<g id="node15" class="node">
<title>Node14</title>
<polygon fill="none" stroke="#bfbfbf" points="286.5,-.5 286.5,-19.5 339.5,-19.5 339.5,-.5 286.5,-.5"/>
<text text-anchor="middle" x="313" y="-7.5" font-family="FreeSans.ttf" font-size="10.00" fill="#000000">iterator</text>
</g>
<!-- Node10&#45;&gt;Node14 -->
<g id="edge17" class="edge">
<title>Node10&#45;&gt;Node14</title>
<path fill="none" stroke="#191970" d="M523.4746,-56.4522C479.5704,-48.2236 415.1067,-35.5686 349.7509,-20.0509"/>
<polygon fill="#191970" stroke="#191970" points="350.2217,-16.5647 339.6815,-17.6387 348.5909,-23.3721 350.2217,-16.5647"/>
</g>
<!-- Node15 -->
<g id="node16" class="node">
<title>Node15</title>
<polygon fill="none" stroke="#bfbfbf" points="358,-.5 358,-19.5 402,-19.5 402,-.5 358,-.5"/>
<text text-anchor="middle" x="380" y="-7.5" font-family="FreeSans.ttf" font-size="10.00" fill="#000000">limits</text>
</g>
<!-- Node10&#45;&gt;Node15 -->
<g id="edge18" class="edge">
<title>Node10&#45;&gt;Node15</title>
<path fill="none" stroke="#191970" d="M540.1536,-56.4521C508.6786,-47.9695 461.4404,-35.0006 411.9175,-20.201"/>
<polygon fill="#191970" stroke="#191970" points="412.9017,-16.8422 402.3176,-17.3174 410.888,-23.5463 412.9017,-16.8422"/>
</g>
<!-- Node16 -->
<g id="node17" class="node">
<title>Node16</title>
<polygon fill="none" stroke="#bfbfbf" points="420.5,-.5 420.5,-19.5 485.5,-19.5 485.5,-.5 420.5,-.5"/>
<text text-anchor="middle" x="453" y="-7.5" font-family="FreeSans.ttf" font-size="10.00" fill="#000000">stdexcept</text>
</g>
<!-- Node10&#45;&gt;Node16 -->
<g id="edge19" class="edge">
<title>Node10&#45;&gt;Node16</title>
<path fill="none" stroke="#191970" d="M554.8555,-56.3733C535.1108,-47.3838 505.4302,-33.8706 483.1945,-23.7471"/>
<polygon fill="#191970" stroke="#191970" points="484.42,-20.4594 473.8685,-19.5011 481.5194,-26.8302 484.42,-20.4594"/>
</g>
<!-- Node17 -->
<g id="node18" class="node">
<title>Node17</title>
<polygon fill="none" stroke="#bfbfbf" points="503.5,-.5 503.5,-19.5 572.5,-19.5 572.5,-.5 503.5,-.5"/>
<text text-anchor="middle" x="538" y="-7.5" font-family="FreeSans.ttf" font-size="10.00" fill="#000000">type_traits</text>
</g>
<!-- Node10&#45;&gt;Node17 -->
<g id="edge20" class="edge">
<title>Node10&#45;&gt;Node17</title>
<path fill="none" stroke="#191970" d="M569.3809,-56.2455C564.0954,-48.4564 556.5459,-37.3308 550.1762,-27.9439"/>
<polygon fill="#191970" stroke="#191970" points="553.0545,-25.9522 544.5432,-19.6427 547.2621,-29.8827 553.0545,-25.9522"/>
</g>
<!-- Node18 -->
<g id="node19" class="node">
<title>Node18</title>
<polygon fill="none" stroke="#bfbfbf" points="590.5,-.5 590.5,-19.5 635.5,-19.5 635.5,-.5 590.5,-.5"/>
<text text-anchor="middle" x="613" y="-7.5" font-family="FreeSans.ttf" font-size="10.00" fill="#000000">utility</text>
</g>
<!-- Node10&#45;&gt;Node18 -->
<g id="edge21" class="edge">
<title>Node10&#45;&gt;Node18</title>
<path fill="none" stroke="#191970" d="M582.4449,-56.2455C587.5382,-48.5367 594.7908,-37.5598 600.952,-28.2348"/>
<polygon fill="#191970" stroke="#191970" points="604.0365,-29.9155 606.6289,-19.6427 598.1962,-26.0566 604.0365,-29.9155"/>
</g>
<!-- Node20&#45;&gt;Node10 -->
<g id="edge26" class="edge">
<title>Node20&#45;&gt;Node10</title>
<path fill="none" stroke="#191970" d="M547.9223,-112.2455C552.6027,-104.5367 559.2673,-93.5598 564.9289,-84.2348"/>
<polygon fill="#191970" stroke="#191970" points="567.9475,-86.007 570.1455,-75.6427 561.9639,-82.3741 567.9475,-86.007"/>
</g>
<!-- Node20&#45;&gt;Node11 -->
<g id="edge29" class="edge">
<title>Node20&#45;&gt;Node11</title>
<path fill="none" stroke="#191970" d="M562.9668,-112.3835C592.1203,-99.13 646.6606,-74.7612 694,-56 724.8142,-43.7879 760.3193,-31.1383 786.1071,-22.2024"/>
<polygon fill="#191970" stroke="#191970" points="787.5165,-25.4187 795.8291,-18.8498 785.2344,-18.8011 787.5165,-25.4187"/>
</g>
<!-- Node20&#45;&gt;Node19 -->
<g id="edge27" class="edge">
<title>Node20&#45;&gt;Node19</title>
<path fill="none" stroke="#191970" d="M622.6837,-115.1333C768.2242,-102.7469 1068.7635,-77.1691 1167.6652,-68.7519"/>
<polygon fill="#191970" stroke="#191970" points="1168.2519,-72.2147 1177.919,-67.8792 1167.6582,-65.2399 1168.2519,-72.2147"/>
</g>
<!-- Node20&#45;&gt;Node21 -->
<g id="edge24" class="edge">
<title>Node20&#45;&gt;Node21</title>
<path fill="none" stroke="#191970" d="M506.9311,-112.3733C472.5685,-102.9404 420.0608,-88.5265 382.7149,-78.2747"/>
<polygon fill="#191970" stroke="#191970" points="383.181,-74.7732 372.6112,-75.5011 381.328,-81.5235 383.181,-74.7732"/>
</g>
<!-- Node22 -->
<g id="node23" class="node">
<title>Node22</title>
<polygon fill="none" stroke="#bfbfbf" points="441,-56.5 441,-75.5 497,-75.5 497,-56.5 441,-56.5"/>
<text text-anchor="middle" x="469" y="-63.5" font-family="FreeSans.ttf" font-size="10.00" fill="#000000">sstream</text>
</g>
<!-- Node20&#45;&gt;Node22 -->
<g id="edge28" class="edge">
<title>Node20&#45;&gt;Node22</title>
<path fill="none" stroke="#191970" d="M529.2844,-112.2455C518.398,-103.8943 502.5117,-91.7076 489.78,-81.9408"/>
<polygon fill="#191970" stroke="#191970" points="491.6346,-78.9523 481.5699,-75.6427 487.3739,-84.5063 491.6346,-78.9523"/>
</g>
<!-- Node23 -->
<g id="node24" class="node">
<title>Node23</title>
<polygon fill="none" stroke="#bfbfbf" points="703,-56.5 703,-75.5 753,-75.5 753,-56.5 703,-56.5"/>
<text text-anchor="middle" x="728" y="-63.5" font-family="FreeSans.ttf" font-size="10.00" fill="#000000">cstring</text>
</g>
<!-- Node20&#45;&gt;Node23 -->
<g id="edge30" class="edge">
<title>Node20&#45;&gt;Node23</title>
<path fill="none" stroke="#191970" d="M573.9745,-112.3733C607.2511,-102.3545 659.1905,-86.7168 693.4077,-76.4149"/>
<polygon fill="#191970" stroke="#191970" points="694.4213,-79.765 702.9877,-73.5306 692.4032,-73.0622 694.4213,-79.765"/>
</g>
<!-- Node21&#45;&gt;Node6 -->
<g id="edge25" class="edge">
<title>Node21&#45;&gt;Node6</title>
<path fill="none" stroke="#191970" d="M321.2781,-56.2455C306.4111,-47.5731 284.4534,-34.7645 267.4142,-24.825"/>
<polygon fill="#191970" stroke="#191970" points="268.9317,-21.6582 258.5303,-19.6427 265.4045,-27.7047 268.9317,-21.6582"/>
</g>
<!-- Node24&#45;&gt;Node19 -->
<g id="edge32" class="edge">
<title>Node24&#45;&gt;Node19</title>
<path fill="none" stroke="#191970" d="M1359.4063,-397.7863C1379.9375,-379.1488 1421,-336.1101 1421,-290 1421,-290 1421,-290 1421,-178 1421,-94.6131 1294.2668,-73.2917 1232.7422,-67.854"/>
<polygon fill="#191970" stroke="#191970" points="1232.6518,-64.336 1222.4069,-67.0363 1232.0996,-71.3142 1232.6518,-64.336"/>
</g>
<!-- Node25&#45;&gt;Node11 -->
<g id="edge35" class="edge">
<title>Node25&#45;&gt;Node11</title>
<path fill="none" stroke="#191970" d="M765.2861,-112.4509C775.5812,-93.8533 798.4777,-52.4919 811.8163,-28.3964"/>
<polygon fill="#191970" stroke="#191970" points="814.9462,-29.969 816.7273,-19.5249 808.822,-26.5787 814.9462,-29.969"/>
</g>
<!-- Node25&#45;&gt;Node19 -->
<g id="edge37" class="edge">
<title>Node25&#45;&gt;Node19</title>
<path fill="none" stroke="#191970" d="M835.1388,-112.4369C932.5259,-100.0422 1098.0885,-78.9706 1167.6764,-70.1139"/>
<polygon fill="#191970" stroke="#191970" points="1168.5176,-73.5352 1177.9956,-68.8006 1167.6337,-66.5912 1168.5176,-73.5352"/>
</g>
<!-- Node25&#45;&gt;Node21 -->
<g id="edge34" class="edge">
<title>Node25&#45;&gt;Node21</title>
<path fill="none" stroke="#191970" d="M687.9351,-112.4369C609.6463,-102.0478 485.4203,-85.5629 407.9648,-75.2844"/>
<polygon fill="#191970" stroke="#191970" points="408.1968,-71.7846 397.8233,-73.9386 407.2759,-78.7238 408.1968,-71.7846"/>
</g>
<!-- Node25&#45;&gt;Node22 -->
<g id="edge39" class="edge">
<title>Node25&#45;&gt;Node22</title>
<path fill="none" stroke="#191970" d="M699.1497,-112.4693C649.831,-104.4054 578.3516,-91.9533 507.2485,-76.1445"/>
<polygon fill="#191970" stroke="#191970" points="507.7444,-72.6687 497.2203,-73.8916 506.21,-79.4985 507.7444,-72.6687"/>
</g>
<!-- Node25&#45;&gt;Node23 -->
<g id="edge36" class="edge">
<title>Node25&#45;&gt;Node23</title>
<path fill="none" stroke="#191970" d="M754.426,-112.2455C750.0669,-104.617 743.8789,-93.7881 738.5867,-84.5267"/>
<polygon fill="#191970" stroke="#191970" points="741.5104,-82.5886 733.5101,-75.6427 735.4327,-86.0616 741.5104,-82.5886"/>
</g>
<!-- Node26 -->
<g id="node27" class="node">
<title>Node26</title>
<polygon fill="none" stroke="#bfbfbf" points="816,-56.5 816,-75.5 876,-75.5 876,-56.5 816,-56.5"/>
<text text-anchor="middle" x="846" y="-63.5" font-family="FreeSans.ttf" font-size="10.00" fill="#000000">iostream</text>
</g>
<!-- Node25&#45;&gt;Node26 -->
<g id="edge38" class="edge">
<title>Node25&#45;&gt;Node26</title>
<path fill="none" stroke="#191970" d="M774.9801,-112.2455C788.1751,-103.6534 807.6051,-91.0014 822.8079,-81.1018"/>
<polygon fill="#191970" stroke="#191970" points="824.7215,-84.0325 831.1916,-75.6427 820.9017,-78.1665 824.7215,-84.0325"/>
</g>
<!-- Node27&#45;&gt;Node20 -->
<g id="edge41" class="edge">
<title>Node27&#45;&gt;Node20</title>
<path fill="none" stroke="#191970" d="M623.5066,-392.4271C570.778,-376.8205 509,-346.4831 509,-290 509,-290 509,-290 509,-234 509,-200.051 523.1235,-162.5869 532.8911,-140.7366"/>
<polygon fill="#191970" stroke="#191970" points="536.0937,-142.1501 537.1307,-131.6061 529.7448,-139.202 536.0937,-142.1501"/>
</g>
<!-- Node28 -->
<g id="node29" class="node">
<title>Node28</title>
<g id="a_node29"><a xlink:href="GeomVector3_8h.html" target="_top" xlink:title="iDynTree/Core/GeomVector3.h">
<polygon fill="none" stroke="#000000" points="537.5,-168.5 537.5,-187.5 700.5,-187.5 700.5,-168.5 537.5,-168.5"/>
<text text-anchor="middle" x="619" y="-175.5" font-family="FreeSans.ttf" font-size="10.00" fill="#000000">iDynTree/Core/GeomVector3.h</text>
</a>
</g>
</g>
<!-- Node27&#45;&gt;Node28 -->
<g id="edge42" class="edge">
<title>Node27&#45;&gt;Node28</title>
<path fill="none" stroke="#191970" d="M718.0453,-392.3072C734.1765,-378.6349 752.5057,-357.4502 745,-336 723.7102,-275.157 668.0805,-220.2652 638.3669,-194.1207"/>
<polygon fill="#191970" stroke="#191970" points="640.5818,-191.409 630.7234,-187.5279 636.0097,-196.7097 640.5818,-191.409"/>
</g>
<!-- Node29 -->
<g id="node30" class="node">
<title>Node29</title>
<g id="a_node30"><a xlink:href="SpatialVector_8h.html" target="_top" xlink:title="iDynTree/Core/SpatialVector.h">
<polygon fill="none" stroke="#000000" points="575.5,-336.5 575.5,-355.5 736.5,-355.5 736.5,-336.5 575.5,-336.5"/>
<text text-anchor="middle" x="656" y="-343.5" font-family="FreeSans.ttf" font-size="10.00" fill="#000000">iDynTree/Core/SpatialVector.h</text>
</a>
</g>
</g>
<!-- Node27&#45;&gt;Node29 -->
<g id="edge44" class="edge">
<title>Node27&#45;&gt;Node29</title>
<path fill="none" stroke="#191970" d="M686.8652,-392.2977C681.2332,-383.8498 674.1849,-373.2773 668.246,-364.369"/>
<polygon fill="#191970" stroke="#191970" points="671.0238,-362.226 662.5646,-355.8469 665.1995,-366.1089 671.0238,-362.226"/>
</g>
<!-- Node28&#45;&gt;Node20 -->
<g id="edge43" class="edge">
<title>Node28&#45;&gt;Node20</title>
<path fill="none" stroke="#191970" d="M605.5876,-168.2455C593.9943,-159.814 577.0252,-147.4729 563.5322,-137.6598"/>
<polygon fill="#191970" stroke="#191970" points="565.4047,-134.6938 555.2587,-131.6427 561.2874,-140.355 565.4047,-134.6938"/>
</g>
<!-- Node29&#45;&gt;Node21 -->
<g id="edge58" class="edge">
<title>Node29&#45;&gt;Node21</title>
<path fill="none" stroke="#191970" d="M631.7112,-336.4834C612.4103,-328.3196 585.2262,-315.4447 564,-300 471.6732,-232.8206 384.2259,-125.8132 351.5304,-83.7791"/>
<polygon fill="#191970" stroke="#191970" points="354.1152,-81.3994 345.2373,-75.6171 348.5716,-85.6736 354.1152,-81.3994"/>
</g>
<!-- Node29&#45;&gt;Node22 -->
<g id="edge61" class="edge">
<title>Node29&#45;&gt;Node22</title>
<path fill="none" stroke="#191970" d="M640.7792,-336.3225C600.4949,-309.6799 491.4837,-230.6425 452,-132 445.8332,-116.5935 451.5258,-98.2586 457.9343,-84.8281"/>
<polygon fill="#191970" stroke="#191970" points="461.2104,-86.1199 462.7899,-75.6435 455.0219,-82.8483 461.2104,-86.1199"/>
</g>
<!-- Node29&#45;&gt;Node26 -->
<g id="edge60" class="edge">
<title>Node29&#45;&gt;Node26</title>
<path fill="none" stroke="#191970" d="M669.8737,-336.4958C707.5903,-309.6996 811.6678,-229.1364 849,-132 854.6579,-117.2783 853.3726,-99.3309 850.9703,-85.8698"/>
<polygon fill="#191970" stroke="#191970" points="854.3285,-84.8358 848.8175,-75.787 847.4827,-86.2974 854.3285,-84.8358"/>
</g>
<!-- Node29&#45;&gt;Node28 -->
<g id="edge59" class="edge">
<title>Node29&#45;&gt;Node28</title>
<path fill="none" stroke="#191970" d="M653.9047,-336.4862C648.0305,-309.8144 631.3139,-233.9117 623.3376,-197.695"/>
<polygon fill="#191970" stroke="#191970" points="626.7335,-196.841 621.1645,-187.8279 619.8973,-198.3467 626.7335,-196.841"/>
</g>
<!-- Node30 -->
<g id="node31" class="node">
<title>Node30</title>
<g id="a_node31"><a xlink:href="Position_8h.html" target="_top" xlink:title="Position.h">
<polygon fill="none" stroke="#000000" points="930.5,-280.5 930.5,-299.5 995.5,-299.5 995.5,-280.5 930.5,-280.5"/>
<text text-anchor="middle" x="963" y="-287.5" font-family="FreeSans.ttf" font-size="10.00" fill="#000000">Position.h</text>
</a>
</g>
</g>
<!-- Node29&#45;&gt;Node30 -->
<g id="edge45" class="edge">
<title>Node29&#45;&gt;Node30</title>
<path fill="none" stroke="#191970" d="M708.4264,-336.4369C768.2394,-325.5264 864.9103,-307.8926 920.3209,-297.7851"/>
<polygon fill="#191970" stroke="#191970" points="920.9594,-301.2265 930.1689,-295.9887 919.7032,-294.3401 920.9594,-301.2265"/>
</g>
<!-- Node32 -->
<g id="node33" class="node">
<title>Node32</title>
<g id="a_node33"><a xlink:href="Rotation_8h.html" target="_top" xlink:title="iDynTree/Core/Rotation.h">
<polygon fill="none" stroke="#000000" points="833.5,-224.5 833.5,-243.5 970.5,-243.5 970.5,-224.5 833.5,-224.5"/>
<text text-anchor="middle" x="902" y="-231.5" font-family="FreeSans.ttf" font-size="10.00" fill="#000000">iDynTree/Core/Rotation.h</text>
</a>
</g>
</g>
<!-- Node29&#45;&gt;Node32 -->
<g id="edge57" class="edge">
<title>Node29&#45;&gt;Node32</title>
<path fill="none" stroke="#191970" d="M676.9738,-336.4509C720.6361,-316.5722 821.4237,-270.6852 871.9626,-247.6756"/>
<polygon fill="#191970" stroke="#191970" points="873.4284,-250.8539 881.0793,-243.5249 870.5278,-244.4832 873.4284,-250.8539"/>
</g>
<!-- Node30&#45;&gt;Node19 -->
<g id="edge56" class="edge">
<title>Node30&#45;&gt;Node19</title>
<path fill="none" stroke="#191970" d="M995.13,-280.4614C1076.2989,-256.2934 1283.4992,-194.1298 1288,-188 1316.0931,-149.7389 1259.9348,-104.3092 1224.9992,-81.1771"/>
<polygon fill="#191970" stroke="#191970" points="1226.5215,-77.9949 1216.2172,-75.531 1222.7359,-83.883 1226.5215,-77.9949"/>
</g>
<!-- Node31 -->
<g id="node32" class="node">
<title>Node31</title>
<g id="a_node32"><a xlink:href="PositionRaw_8h.html" target="_top" xlink:title="iDynTree/Core/PositionRaw.h">
<polygon fill="none" stroke="#000000" points="909,-168.5 909,-187.5 1065,-187.5 1065,-168.5 909,-168.5"/>
<text text-anchor="middle" x="987" y="-175.5" font-family="FreeSans.ttf" font-size="10.00" fill="#000000">iDynTree/Core/PositionRaw.h</text>
</a>
</g>
</g>
<!-- Node30&#45;&gt;Node31 -->
<g id="edge46" class="edge">
<title>Node30&#45;&gt;Node31</title>
<path fill="none" stroke="#191970" d="M967.054,-280.3088C970.7326,-271.1206 976.0227,-256.85 979,-244 982.5464,-228.6937 984.5833,-211.004 985.7132,-197.7935"/>
<polygon fill="#191970" stroke="#191970" points="989.2267,-197.7444 986.4879,-187.5098 982.2465,-197.2186 989.2267,-197.7444"/>
</g>
<!-- Node30&#45;&gt;Node32 -->
<g id="edge49" class="edge">
<title>Node30&#45;&gt;Node32</title>
<path fill="none" stroke="#191970" d="M952.3746,-280.2455C943.4527,-272.0549 930.512,-260.1749 919.9808,-250.5069"/>
<polygon fill="#191970" stroke="#191970" points="922.2371,-247.8271 912.5036,-243.6427 917.5032,-252.9837 922.2371,-247.8271"/>
</g>
<!-- Node31&#45;&gt;Node19 -->
<g id="edge48" class="edge">
<title>Node31&#45;&gt;Node19</title>
<path fill="none" stroke="#191970" d="M1005.1603,-168.4509C1042.651,-148.7375 1128.7847,-103.4465 1172.8913,-80.2543"/>
<polygon fill="#191970" stroke="#191970" points="1174.6636,-83.2768 1181.8857,-75.5249 1171.4058,-77.0811 1174.6636,-83.2768"/>
</g>
<!-- Node31&#45;&gt;Node20 -->
<g id="edge47" class="edge">
<title>Node31&#45;&gt;Node20</title>
<path fill="none" stroke="#191970" d="M911.2598,-168.4686C832.6637,-158.5779 709.9661,-143.1373 627.8286,-132.8009"/>
<polygon fill="#191970" stroke="#191970" points="628.1276,-129.311 617.7688,-131.535 627.2535,-136.2562 628.1276,-129.311"/>
</g>
<!-- Node32&#45;&gt;Node19 -->
<g id="edge50" class="edge">
<title>Node32&#45;&gt;Node19</title>
<path fill="none" stroke="#191970" d="M898.399,-224.4386C893.8549,-210.5899 887.985,-184.7756 900,-168 931.9913,-123.3331 1096.7005,-86.2717 1167.5428,-72.1407"/>
<polygon fill="#191970" stroke="#191970" points="1168.543,-75.5111 1177.68,-70.1478 1167.1927,-68.6426 1168.543,-75.5111"/>
</g>
<!-- Node32&#45;&gt;Node20 -->
<g id="edge55" class="edge">
<title>Node32&#45;&gt;Node20</title>
<path fill="none" stroke="#191970" d="M875.6304,-224.4136C838.6208,-211.0896 769.0648,-186.5238 709,-168 668.7633,-155.5911 622.5842,-142.9956 588.9993,-134.1295"/>
<polygon fill="#191970" stroke="#191970" points="589.5624,-130.6587 579.0012,-131.5021 587.7832,-137.4289 589.5624,-130.6587"/>
</g>
<!-- Node32&#45;&gt;Node28 -->
<g id="edge51" class="edge">
<title>Node32&#45;&gt;Node28</title>
<path fill="none" stroke="#191970" d="M853.6721,-224.4369C804.8319,-214.7724 729.3324,-199.8326 677.2236,-189.5213"/>
<polygon fill="#191970" stroke="#191970" points="677.6178,-186.0315 667.1285,-187.5237 676.2589,-192.8983 677.6178,-186.0315"/>
</g>
<!-- Node33 -->
<g id="node34" class="node">
<title>Node33</title>
<g id="a_node34"><a xlink:href="RotationRaw_8h.html" target="_top" xlink:title="iDynTree/Core/RotationRaw.h">
<polygon fill="none" stroke="#000000" points="1121,-168.5 1121,-187.5 1279,-187.5 1279,-168.5 1121,-168.5"/>
<text text-anchor="middle" x="1200" y="-175.5" font-family="FreeSans.ttf" font-size="10.00" fill="#000000">iDynTree/Core/RotationRaw.h</text>
</a>
</g>
</g>
<!-- Node32&#45;&gt;Node33 -->
<g id="edge52" class="edge">
<title>Node32&#45;&gt;Node33</title>
<path fill="none" stroke="#191970" d="M952.8894,-224.4369C1004.5327,-214.7321 1084.4826,-199.708 1139.3749,-189.3926"/>
<polygon fill="#191970" stroke="#191970" points="1140.1389,-192.8104 1149.3205,-187.5237 1138.8461,-185.9308 1140.1389,-192.8104"/>
</g>
<!-- Node33&#45;&gt;Node19 -->
<g id="edge54" class="edge">
<title>Node33&#45;&gt;Node19</title>
<path fill="none" stroke="#191970" d="M1200,-168.4509C1200,-150.184 1200,-109.9553 1200,-85.6976"/>
<polygon fill="#191970" stroke="#191970" points="1203.5001,-85.5249 1200,-75.5249 1196.5001,-85.5249 1203.5001,-85.5249"/>
</g>
<!-- Node33&#45;&gt;Node25 -->
<g id="edge53" class="edge">
<title>Node33&#45;&gt;Node25</title>
<path fill="none" stroke="#191970" d="M1124.8612,-168.4369C1047.1857,-158.5509 926.1396,-143.145 845.0126,-132.8198"/>
<polygon fill="#191970" stroke="#191970" points="845.1907,-129.3143 834.8288,-131.5237 844.3069,-136.2583 845.1907,-129.3143"/>
</g>
<!-- Node34&#45;&gt;Node20 -->
<g id="edge63" class="edge">
<title>Node34&#45;&gt;Node20</title>
<path fill="none" stroke="#191970" d="M514.4336,-392.3612C507.2017,-382.6361 498.8131,-369.3614 495,-356 472.0705,-275.6522 462.6101,-245.0222 495,-168 499.9978,-156.1153 509.7314,-145.765 519.0503,-137.908"/>
<polygon fill="#191970" stroke="#191970" points="521.2957,-140.5951 527.0035,-131.6692 516.9752,-135.0874 521.2957,-140.5951"/>
</g>
<!-- Node34&#45;&gt;Node28 -->
<g id="edge64" class="edge">
<title>Node34&#45;&gt;Node28</title>
<path fill="none" stroke="#191970" d="M533.0364,-392.4419C549.1722,-352.1901 593.2938,-242.1259 611.2468,-197.3409"/>
<polygon fill="#191970" stroke="#191970" points="614.5599,-198.4824 615.0321,-187.8981 608.0625,-195.8778 614.5599,-198.4824"/>
</g>
<!-- Node34&#45;&gt;Node29 -->
<g id="edge65" class="edge">
<title>Node34&#45;&gt;Node29</title>
<path fill="none" stroke="#191970" d="M558.557,-392.4554C579.4201,-382.509 606.5691,-369.5659 626.9098,-359.8686"/>
<polygon fill="#191970" stroke="#191970" points="628.4891,-362.9931 636.0096,-355.5303 625.4767,-356.6744 628.4891,-362.9931"/>
</g>
<!-- Node35&#45;&gt;Node19 -->
<g id="edge70" class="edge">
<title>Node35&#45;&gt;Node19</title>
<path fill="none" stroke="#191970" d="M928.4445,-336.4972C1015.3906,-302.6838 1304.5661,-190.1068 1306,-188 1319.2998,-168.4583 1300.3959,-126.7149 1288,-112 1273.4074,-94.6773 1250.6139,-83.019 1231.8811,-75.7738"/>
<polygon fill="#191970" stroke="#191970" points="1232.8399,-72.3987 1222.2457,-72.2877 1230.4584,-78.9811 1232.8399,-72.3987"/>
</g>
<!-- Node35&#45;&gt;Node25 -->
<g id="edge69" class="edge">
<title>Node35&#45;&gt;Node25</title>
<path fill="none" stroke="#191970" d="M895.4202,-336.3162C880.0415,-318.6991 847.2226,-279.9044 824,-244 801.3817,-209.0299 779.9234,-165.1894 768.5111,-140.724"/>
<polygon fill="#191970" stroke="#191970" points="771.627,-139.1228 764.2611,-131.5074 765.2703,-142.054 771.627,-139.1228"/>
</g>
<!-- Node35&#45;&gt;Node30 -->
<g id="edge67" class="edge">
<title>Node35&#45;&gt;Node30</title>
<path fill="none" stroke="#191970" d="M914.277,-336.2455C922.8218,-328.1352 935.1778,-316.4075 945.3085,-306.7919"/>
<polygon fill="#191970" stroke="#191970" points="947.9972,-309.0655 952.8408,-299.6427 943.1782,-303.9884 947.9972,-309.0655"/>
</g>
<!-- Node35&#45;&gt;Node32 -->
<g id="edge68" class="edge">
<title>Node35&#45;&gt;Node32</title>
<path fill="none" stroke="#191970" d="M903.8295,-336.4509C903.5033,-318.184 902.7849,-277.9553 902.3517,-253.6976"/>
<polygon fill="#191970" stroke="#191970" points="905.8482,-253.4608 902.1701,-243.5249 898.8493,-253.5858 905.8482,-253.4608"/>
</g>
</g>
</svg>
