<?xml version="1.0" encoding="UTF-8" standalone="no"?>
<!DOCTYPE svg PUBLIC "-//W3C//DTD SVG 1.1//EN"
 "http://www.w3.org/Graphics/SVG/1.1/DTD/svg11.dtd">
<!-- Generated by graphviz version 2.40.1 (20161225.0304)
 -->
<!-- Title: ArticulatedBodyInertia.cpp Pages: 1 -->
<svg width="1594pt" height="632pt"
 viewBox="0.00 0.00 1594.00 632.00" xmlns="http://www.w3.org/2000/svg" xmlns:xlink="http://www.w3.org/1999/xlink">
<g id="graph0" class="graph" transform="scale(1 1) rotate(0) translate(4 628)">
<title>ArticulatedBodyInertia.cpp</title>
<!-- Node0 -->
<g id="node1" class="node">
<title>Node0</title>
<polygon fill="#bfbfbf" stroke="#000000" points="504,-604.5 504,-623.5 650,-623.5 650,-604.5 504,-604.5"/>
<text text-anchor="middle" x="577" y="-611.5" font-family="FreeSans.ttf" font-size="10.00" fill="#000000">ArticulatedBodyInertia.cpp</text>
</g>
<!-- Node1 -->
<g id="node2" class="node">
<title>Node1</title>
<g id="a_node2"><a xlink:href="ArticulatedBodyInertia_8h.html" target="_top" xlink:title="iDynTree/Core/Articulated\lBodyInertia.h">
<polygon fill="none" stroke="#000000" points="1430.5,-168.5 1430.5,-198.5 1571.5,-198.5 1571.5,-168.5 1430.5,-168.5"/>
<text text-anchor="start" x="1438.5" y="-186.5" font-family="FreeSans.ttf" font-size="10.00" fill="#000000">iDynTree/Core/Articulated</text>
<text text-anchor="middle" x="1501" y="-175.5" font-family="FreeSans.ttf" font-size="10.00" fill="#000000">BodyInertia.h</text>
</a>
</g>
</g>
<!-- Node0&#45;&gt;Node1 -->
<g id="edge1" class="edge">
<title>Node0&#45;&gt;Node1</title>
<path fill="none" stroke="#191970" d="M650.3776,-613.1558C882.5658,-609.5232 1586,-590.741 1586,-496.5 1586,-496.5 1586,-496.5 1586,-306.5 1586,-273.7307 1585.9869,-262.3916 1568,-235 1560.1069,-222.9799 1548.4362,-212.6146 1537.0377,-204.3991"/>
<polygon fill="#191970" stroke="#191970" points="1538.6766,-201.2806 1528.4413,-198.5439 1534.736,-207.0661 1538.6766,-201.2806"/>
</g>
<!-- Node5 -->
<g id="node6" class="node">
<title>Node5</title>
<polygon fill="none" stroke="#bfbfbf" points="611,-.5 611,-19.5 663,-19.5 663,-.5 611,-.5"/>
<text text-anchor="middle" x="637" y="-7.5" font-family="FreeSans.ttf" font-size="10.00" fill="#000000">cassert</text>
</g>
<!-- Node0&#45;&gt;Node5 -->
<g id="edge85" class="edge">
<title>Node0&#45;&gt;Node5</title>
<path fill="none" stroke="#191970" d="M503.8881,-610.2462C372.4418,-603.0785 106.2691,-586.5005 68,-568 28.5172,-548.9128 0,-540.3544 0,-496.5 0,-496.5 0,-496.5 0,-122 0,-34.702 99.8454,-75.2257 185,-56 336.9294,-21.6983 523.4037,-12.9447 600.7392,-10.735"/>
<polygon fill="#191970" stroke="#191970" points="601.0089,-14.2292 610.9123,-10.4647 600.8228,-7.2317 601.0089,-14.2292"/>
</g>
<!-- Node8 -->
<g id="node9" class="node">
<title>Node8</title>
<polygon fill="none" stroke="#bfbfbf" points="194,-56.5 194,-75.5 254,-75.5 254,-56.5 194,-56.5"/>
<text text-anchor="middle" x="224" y="-63.5" font-family="FreeSans.ttf" font-size="10.00" fill="#000000">iostream</text>
</g>
<!-- Node0&#45;&gt;Node8 -->
<g id="edge83" class="edge">
<title>Node0&#45;&gt;Node8</title>
<path fill="none" stroke="#191970" d="M503.9626,-612.3675C391.6926,-608.9176 182.5958,-598.4958 115,-568 72.4306,-548.7949 38,-543.201 38,-496.5 38,-496.5 38,-496.5 38,-183.5 38,-115.1434 128.902,-84.9364 183.6094,-72.9465"/>
<polygon fill="#191970" stroke="#191970" points="184.6228,-76.3108 193.7019,-70.85 183.1991,-69.4571 184.6228,-76.3108"/>
</g>
<!-- Node9 -->
<g id="node10" class="node">
<title>Node9</title>
<polygon fill="none" stroke="#bfbfbf" points="403,-56.5 403,-75.5 459,-75.5 459,-56.5 403,-56.5"/>
<text text-anchor="middle" x="431" y="-63.5" font-family="FreeSans.ttf" font-size="10.00" fill="#000000">sstream</text>
</g>
<!-- Node0&#45;&gt;Node9 -->
<g id="edge84" class="edge">
<title>Node0&#45;&gt;Node9</title>
<path fill="none" stroke="#191970" d="M503.8822,-611.9457C364.8275,-606.0413 76,-583.3266 76,-496.5 76,-496.5 76,-496.5 76,-368 76,-202.8506 301.647,-109.0767 393.1419,-77.8417"/>
<polygon fill="#191970" stroke="#191970" points="394.4757,-81.0861 402.847,-74.5921 392.2532,-74.4483 394.4757,-81.0861"/>
</g>
<!-- Node10 -->
<g id="node11" class="node">
<title>Node10</title>
<g id="a_node11"><a xlink:href="SpatialInertia_8h.html" target="_top" xlink:title="iDynTree/Core/SpatialInertia.h">
<polygon fill="none" stroke="#000000" points="496,-548.5 496,-567.5 658,-567.5 658,-548.5 496,-548.5"/>
<text text-anchor="middle" x="577" y="-555.5" font-family="FreeSans.ttf" font-size="10.00" fill="#000000">iDynTree/Core/SpatialInertia.h</text>
</a>
</g>
</g>
<!-- Node0&#45;&gt;Node10 -->
<g id="edge11" class="edge">
<title>Node0&#45;&gt;Node10</title>
<path fill="none" stroke="#191970" d="M577,-604.2455C577,-596.9382 577,-586.6944 577,-577.7046"/>
<polygon fill="#191970" stroke="#191970" points="580.5001,-577.6426 577,-567.6427 573.5001,-577.6427 580.5001,-577.6426"/>
</g>
<!-- Node32 -->
<g id="node33" class="node">
<title>Node32</title>
<g id="a_node33"><a xlink:href="SpatialAcc_8h.html" target="_top" xlink:title="iDynTree/Core/SpatialAcc.h">
<polygon fill="none" stroke="#000000" points="809,-487 809,-506 957,-506 957,-487 809,-487"/>
<text text-anchor="middle" x="883" y="-494" font-family="FreeSans.ttf" font-size="10.00" fill="#000000">iDynTree/Core/SpatialAcc.h</text>
</a>
</g>
</g>
<!-- Node0&#45;&gt;Node32 -->
<g id="edge63" class="edge">
<title>Node0&#45;&gt;Node32</title>
<path fill="none" stroke="#191970" d="M601.7821,-604.484C656.2097,-583.5845 786.2878,-533.6362 848.5912,-509.7125"/>
<polygon fill="#191970" stroke="#191970" points="849.9059,-512.9569 857.9866,-506.1048 847.3965,-506.4221 849.9059,-512.9569"/>
</g>
<!-- Node33 -->
<g id="node34" class="node">
<title>Node33</title>
<g id="a_node34"><a xlink:href="Wrench_8h.html" target="_top" xlink:title="iDynTree/Core/Wrench.h">
<polygon fill="none" stroke="#000000" points="275.5,-487 275.5,-506 408.5,-506 408.5,-487 275.5,-487"/>
<text text-anchor="middle" x="342" y="-494" font-family="FreeSans.ttf" font-size="10.00" fill="#000000">iDynTree/Core/Wrench.h</text>
</a>
</g>
</g>
<!-- Node0&#45;&gt;Node33 -->
<g id="edge64" class="edge">
<title>Node0&#45;&gt;Node33</title>
<path fill="none" stroke="#191970" d="M557.769,-604.3845C516.3536,-583.6768 418.57,-534.785 370.1596,-510.5798"/>
<polygon fill="#191970" stroke="#191970" points="371.6767,-507.4253 361.1672,-506.0836 368.5462,-513.6863 371.6767,-507.4253"/>
</g>
<!-- Node34 -->
<g id="node35" class="node">
<title>Node34</title>
<g id="a_node35"><a xlink:href="EigenHelpers_8h.html" target="_top" xlink:title="iDynTree/Core/EigenHelpers.h">
<polygon fill="none" stroke="#000000" points="979.5,-487 979.5,-506 1140.5,-506 1140.5,-487 979.5,-487"/>
<text text-anchor="middle" x="1060" y="-494" font-family="FreeSans.ttf" font-size="10.00" fill="#000000">iDynTree/Core/EigenHelpers.h</text>
</a>
</g>
</g>
<!-- Node0&#45;&gt;Node34 -->
<g id="edge65" class="edge">
<title>Node0&#45;&gt;Node34</title>
<path fill="none" stroke="#191970" d="M616.1168,-604.484C703.6381,-583.1926 915.0888,-531.7527 1011.1061,-508.3945"/>
<polygon fill="#191970" stroke="#191970" points="1011.9664,-511.7873 1020.8557,-506.0227 1010.3117,-504.9857 1011.9664,-511.7873"/>
</g>
<!-- Node35 -->
<g id="node36" class="node">
<title>Node35</title>
<polygon fill="none" stroke="#bfbfbf" points="1392.5,-420 1392.5,-439 1469.5,-439 1469.5,-420 1392.5,-420"/>
<text text-anchor="middle" x="1431" y="-427" font-family="FreeSans.ttf" font-size="10.00" fill="#000000">Eigen/Dense</text>
</g>
<!-- Node0&#45;&gt;Node35 -->
<g id="edge82" class="edge">
<title>Node0&#45;&gt;Node35</title>
<path fill="none" stroke="#191970" d="M644.0931,-604.4932C751.5932,-588.7161 968.7677,-554.6002 1150,-512 1237.6489,-491.3974 1338.4982,-459.8211 1392.3442,-442.3117"/>
<polygon fill="#191970" stroke="#191970" points="1393.734,-445.5398 1402.1534,-439.1083 1391.5609,-438.8856 1393.734,-445.5398"/>
</g>
<!-- Node2 -->
<g id="node3" class="node">
<title>Node2</title>
<g id="a_node3"><a xlink:href="MatrixFixSize_8h.html" target="_top" xlink:title="iDynTree/Core/MatrixFixSize.h">
<polygon fill="none" stroke="#000000" points="770.5,-112.5 770.5,-131.5 931.5,-131.5 931.5,-112.5 770.5,-112.5"/>
<text text-anchor="middle" x="851" y="-119.5" font-family="FreeSans.ttf" font-size="10.00" fill="#000000">iDynTree/Core/MatrixFixSize.h</text>
</a>
</g>
</g>
<!-- Node1&#45;&gt;Node2 -->
<g id="edge2" class="edge">
<title>Node1&#45;&gt;Node2</title>
<path fill="none" stroke="#191970" d="M1430.2012,-176.8013C1311.4694,-165.5675 1072.3974,-142.9476 941.5891,-130.5711"/>
<polygon fill="#191970" stroke="#191970" points="941.8754,-127.0827 931.5901,-129.6251 941.2159,-134.0515 941.8754,-127.0827"/>
</g>
<!-- Node7 -->
<g id="node8" class="node">
<title>Node7</title>
<polygon fill="none" stroke="#bfbfbf" points="1101,-56.5 1101,-75.5 1145,-75.5 1145,-56.5 1101,-56.5"/>
<text text-anchor="middle" x="1123" y="-63.5" font-family="FreeSans.ttf" font-size="10.00" fill="#000000">string</text>
</g>
<!-- Node1&#45;&gt;Node7 -->
<g id="edge10" class="edge">
<title>Node1&#45;&gt;Node7</title>
<path fill="none" stroke="#191970" d="M1487.9485,-168.4248C1472.548,-151.7112 1445.3049,-125.3526 1416,-112 1369.9501,-91.0176 1221.8848,-75.1379 1155.6071,-68.8948"/>
<polygon fill="#191970" stroke="#191970" points="1155.6105,-65.3802 1145.3301,-67.9425 1154.9645,-72.3503 1155.6105,-65.3802"/>
</g>
<!-- Node3 -->
<g id="node4" class="node">
<title>Node3</title>
<g id="a_node4"><a xlink:href="Utils_8h.html" target="_top" xlink:title="iDynTree/Core/Utils.h">
<polygon fill="none" stroke="#000000" points="715.5,-56.5 715.5,-75.5 834.5,-75.5 834.5,-56.5 715.5,-56.5"/>
<text text-anchor="middle" x="775" y="-63.5" font-family="FreeSans.ttf" font-size="10.00" fill="#000000">iDynTree/Core/Utils.h</text>
</a>
</g>
</g>
<!-- Node2&#45;&gt;Node3 -->
<g id="edge3" class="edge">
<title>Node2&#45;&gt;Node3</title>
<path fill="none" stroke="#191970" d="M837.7618,-112.2455C826.319,-103.814 809.5704,-91.4729 796.2525,-81.6598"/>
<polygon fill="#191970" stroke="#191970" points="798.2133,-78.757 788.0865,-75.6427 794.0609,-84.3924 798.2133,-78.757"/>
</g>
<!-- Node2&#45;&gt;Node5 -->
<g id="edge5" class="edge">
<title>Node2&#45;&gt;Node5</title>
<path fill="none" stroke="#191970" d="M852.9906,-112.075C855.2351,-97.7733 856.9454,-71.4002 843,-56 831.6248,-43.4381 729.1252,-25.0116 673.1343,-15.7553"/>
<polygon fill="#191970" stroke="#191970" points="673.6875,-12.2994 663.2533,-14.1372 672.5562,-19.2073 673.6875,-12.2994"/>
</g>
<!-- Node6 -->
<g id="node7" class="node">
<title>Node6</title>
<polygon fill="none" stroke="#bfbfbf" points="647,-56.5 647,-75.5 697,-75.5 697,-56.5 647,-56.5"/>
<text text-anchor="middle" x="672" y="-63.5" font-family="FreeSans.ttf" font-size="10.00" fill="#000000">cstring</text>
</g>
<!-- Node2&#45;&gt;Node6 -->
<g id="edge6" class="edge">
<title>Node2&#45;&gt;Node6</title>
<path fill="none" stroke="#191970" d="M820.2288,-112.3733C788.7044,-102.5109 739.7757,-87.2036 706.8445,-76.9011"/>
<polygon fill="#191970" stroke="#191970" points="707.764,-73.5215 697.1751,-73.876 705.6739,-80.2022 707.764,-73.5215"/>
</g>
<!-- Node2&#45;&gt;Node7 -->
<g id="edge7" class="edge">
<title>Node2&#45;&gt;Node7</title>
<path fill="none" stroke="#191970" d="M897.4494,-112.4369C952.5794,-101.0866 1043.051,-82.4601 1090.9405,-72.6005"/>
<polygon fill="#191970" stroke="#191970" points="1091.6749,-76.0228 1100.7636,-70.5781 1090.2633,-69.1666 1091.6749,-76.0228"/>
</g>
<!-- Node2&#45;&gt;Node8 -->
<g id="edge8" class="edge">
<title>Node2&#45;&gt;Node8</title>
<path fill="none" stroke="#191970" d="M770.0571,-112.909C766.9998,-112.5965 763.9727,-112.2924 761,-112 575.5453,-93.7568 353.6455,-76.0588 264.2426,-69.0986"/>
<polygon fill="#191970" stroke="#191970" points="264.249,-65.5886 254.0079,-68.3037 263.7069,-72.5676 264.249,-65.5886"/>
</g>
<!-- Node2&#45;&gt;Node9 -->
<g id="edge9" class="edge">
<title>Node2&#45;&gt;Node9</title>
<path fill="none" stroke="#191970" d="M779.2766,-112.4369C689.6905,-100.4921 539.6665,-80.4889 469.4424,-71.1257"/>
<polygon fill="#191970" stroke="#191970" points="469.6523,-67.6227 459.2774,-69.7703 468.7271,-74.5613 469.6523,-67.6227"/>
</g>
<!-- Node4 -->
<g id="node5" class="node">
<title>Node4</title>
<polygon fill="none" stroke="#bfbfbf" points="724.5,-.5 724.5,-19.5 777.5,-19.5 777.5,-.5 724.5,-.5"/>
<text text-anchor="middle" x="751" y="-7.5" font-family="FreeSans.ttf" font-size="10.00" fill="#000000">cstddef</text>
</g>
<!-- Node3&#45;&gt;Node4 -->
<g id="edge4" class="edge">
<title>Node3&#45;&gt;Node4</title>
<path fill="none" stroke="#191970" d="M770.8195,-56.2455C767.619,-48.7776 763.104,-38.2427 759.1916,-29.1137"/>
<polygon fill="#191970" stroke="#191970" points="762.2888,-27.4554 755.1326,-19.6427 755.8548,-30.2129 762.2888,-27.4554"/>
</g>
<!-- Node11 -->
<g id="node12" class="node">
<title>Node11</title>
<g id="a_node12"><a xlink:href="SpatialInertiaRaw_8h.html" target="_top" xlink:title="iDynTree/Core/SpatialInertia\lRaw.h">
<polygon fill="none" stroke="#000000" points="104.5,-481.5 104.5,-511.5 257.5,-511.5 257.5,-481.5 104.5,-481.5"/>
<text text-anchor="start" x="112.5" y="-499.5" font-family="FreeSans.ttf" font-size="10.00" fill="#000000">iDynTree/Core/SpatialInertia</text>
<text text-anchor="middle" x="181" y="-488.5" font-family="FreeSans.ttf" font-size="10.00" fill="#000000">Raw.h</text>
</a>
</g>
</g>
<!-- Node10&#45;&gt;Node11 -->
<g id="edge12" class="edge">
<title>Node10&#45;&gt;Node11</title>
<path fill="none" stroke="#191970" d="M508.031,-548.4749C447.2203,-539.9217 355.9517,-526.71 267.7907,-512.2695"/>
<polygon fill="#191970" stroke="#191970" points="268.3264,-508.8107 257.8908,-510.6406 267.1898,-515.7178 268.3264,-508.8107"/>
</g>
<!-- Node13 -->
<g id="node14" class="node">
<title>Node13</title>
<g id="a_node14"><a xlink:href="VectorFixSize_8h.html" target="_top" xlink:title="iDynTree/Core/VectorFixSize.h">
<polygon fill="none" stroke="#000000" points="591.5,-112.5 591.5,-131.5 752.5,-131.5 752.5,-112.5 591.5,-112.5"/>
<text text-anchor="middle" x="672" y="-119.5" font-family="FreeSans.ttf" font-size="10.00" fill="#000000">iDynTree/Core/VectorFixSize.h</text>
</a>
</g>
</g>
<!-- Node10&#45;&gt;Node13 -->
<g id="edge15" class="edge">
<title>Node10&#45;&gt;Node13</title>
<path fill="none" stroke="#191970" d="M591.3737,-548.1853C602.0705,-539.9414 615.8409,-527.1035 622,-512 627.2025,-499.2422 627.3596,-493.6926 622,-481 613.0748,-459.8633 598.1486,-463.8025 585,-445 560.7164,-410.2745 563.7063,-396.4973 546,-358 513.3513,-287.0144 488.0797,-275.2442 471,-199 467.9882,-185.5554 462.4128,-178.7744 471,-168 485.1867,-150.1998 534.8784,-138.7331 581.2999,-131.7"/>
<polygon fill="#191970" stroke="#191970" points="582.0587,-135.1265 591.4503,-130.2226 581.0504,-128.1995 582.0587,-135.1265"/>
</g>
<!-- Node22 -->
<g id="node23" class="node">
<title>Node22</title>
<g id="a_node23"><a xlink:href="Twist_8h.html" target="_top" xlink:title="iDynTree/Core/Twist.h">
<polygon fill="none" stroke="#000000" points="669,-487 669,-506 791,-506 791,-487 669,-487"/>
<text text-anchor="middle" x="730" y="-494" font-family="FreeSans.ttf" font-size="10.00" fill="#000000">iDynTree/Core/Twist.h</text>
</a>
</g>
</g>
<!-- Node10&#45;&gt;Node22 -->
<g id="edge31" class="edge">
<title>Node10&#45;&gt;Node22</title>
<path fill="none" stroke="#191970" d="M600.9063,-548.3906C626.7305,-538.0103 668.0527,-521.4004 696.9705,-509.7766"/>
<polygon fill="#191970" stroke="#191970" points="698.2885,-513.019 706.2616,-506.0419 695.6778,-506.5241 698.2885,-513.019"/>
</g>
<!-- Node30 -->
<g id="node31" class="node">
<title>Node30</title>
<g id="a_node31"><a xlink:href="SpatialMomentum_8h.html" target="_top" xlink:title="iDynTree/Core/SpatialMomentum.h">
<polygon fill="none" stroke="#000000" points="427,-487 427,-506 613,-506 613,-487 427,-487"/>
<text text-anchor="middle" x="520" y="-494" font-family="FreeSans.ttf" font-size="10.00" fill="#000000">iDynTree/Core/SpatialMomentum.h</text>
</a>
</g>
</g>
<!-- Node10&#45;&gt;Node30 -->
<g id="edge54" class="edge">
<title>Node10&#45;&gt;Node30</title>
<path fill="none" stroke="#191970" d="M568.0938,-548.3906C559.5272,-539.1478 546.3831,-524.966 535.9997,-513.7628"/>
<polygon fill="#191970" stroke="#191970" points="538.3965,-511.2 529.0318,-506.2449 533.2625,-515.9584 538.3965,-511.2"/>
</g>
<!-- Node10&#45;&gt;Node32 -->
<g id="edge59" class="edge">
<title>Node10&#45;&gt;Node32</title>
<path fill="none" stroke="#191970" d="M624.4768,-548.4581C678.7158,-537.5571 767.4512,-519.723 825.545,-508.0473"/>
<polygon fill="#191970" stroke="#191970" points="826.5494,-511.4155 835.6636,-506.0137 825.17,-504.5528 826.5494,-511.4155"/>
</g>
<!-- Node10&#45;&gt;Node33 -->
<g id="edge61" class="edge">
<title>Node10&#45;&gt;Node33</title>
<path fill="none" stroke="#191970" d="M540.5391,-548.4581C499.5485,-537.7308 432.9031,-520.2895 388.274,-508.61"/>
<polygon fill="#191970" stroke="#191970" points="389.1068,-505.2101 378.5464,-506.0643 387.3345,-511.9821 389.1068,-505.2101"/>
</g>
<!-- Node12 -->
<g id="node13" class="node">
<title>Node12</title>
<g id="a_node13"><a xlink:href="RotationalInertiaRaw_8h.html" target="_top" xlink:title="iDynTree/Core/Rotational\lInertiaRaw.h">
<polygon fill="none" stroke="#000000" points="104.5,-291.5 104.5,-321.5 241.5,-321.5 241.5,-291.5 104.5,-291.5"/>
<text text-anchor="start" x="112.5" y="-309.5" font-family="FreeSans.ttf" font-size="10.00" fill="#000000">iDynTree/Core/Rotational</text>
<text text-anchor="middle" x="173" y="-298.5" font-family="FreeSans.ttf" font-size="10.00" fill="#000000">InertiaRaw.h</text>
</a>
</g>
</g>
<!-- Node11&#45;&gt;Node12 -->
<g id="edge13" class="edge">
<title>Node11&#45;&gt;Node12</title>
<path fill="none" stroke="#191970" d="M180.3588,-481.2727C178.9833,-448.6039 175.7376,-371.5184 174.0541,-331.5352"/>
<polygon fill="#191970" stroke="#191970" points="177.5508,-331.38 173.6331,-321.5361 170.557,-331.6745 177.5508,-331.38"/>
</g>
<!-- Node12&#45;&gt;Node2 -->
<g id="edge14" class="edge">
<title>Node12&#45;&gt;Node2</title>
<path fill="none" stroke="#191970" d="M198.2419,-291.4042C248.3095,-262.238 364.5637,-198.3489 471,-168 484.7555,-164.0778 651.934,-144.6197 759.9156,-132.3004"/>
<polygon fill="#191970" stroke="#191970" points="760.6342,-135.7412 770.1735,-131.1312 759.8414,-128.7862 760.6342,-135.7412"/>
</g>
<!-- Node13&#45;&gt;Node3 -->
<g id="edge16" class="edge">
<title>Node13&#45;&gt;Node3</title>
<path fill="none" stroke="#191970" d="M689.9412,-112.2455C706.04,-103.4928 729.8879,-90.527 748.2391,-80.5496"/>
<polygon fill="#191970" stroke="#191970" points="750.1507,-83.4942 757.2644,-75.6427 746.8071,-77.3444 750.1507,-83.4942"/>
</g>
<!-- Node13&#45;&gt;Node5 -->
<g id="edge29" class="edge">
<title>Node13&#45;&gt;Node5</title>
<path fill="none" stroke="#191970" d="M662.1175,-112.4734C653.9121,-103.836 642.8318,-90.3006 638,-76 632.9563,-61.072 633.0421,-43.1399 634.2023,-29.7372"/>
<polygon fill="#191970" stroke="#191970" points="637.6903,-30.0406 635.3405,-19.7096 630.7349,-29.251 637.6903,-30.0406"/>
</g>
<!-- Node13&#45;&gt;Node6 -->
<g id="edge30" class="edge">
<title>Node13&#45;&gt;Node6</title>
<path fill="none" stroke="#191970" d="M672,-112.2455C672,-104.9382 672,-94.6944 672,-85.7046"/>
<polygon fill="#191970" stroke="#191970" points="675.5001,-85.6426 672,-75.6427 668.5001,-85.6427 675.5001,-85.6426"/>
</g>
<!-- Node13&#45;&gt;Node7 -->
<g id="edge27" class="edge">
<title>Node13&#45;&gt;Node7</title>
<path fill="none" stroke="#191970" d="M750.8196,-112.4627C826.5217,-103.2655 944.102,-88.8831 1046,-76 1060.7071,-74.1406 1076.9874,-72.0334 1090.7755,-70.2344"/>
<polygon fill="#191970" stroke="#191970" points="1091.3044,-73.6951 1100.7662,-68.928 1090.3967,-66.7542 1091.3044,-73.6951"/>
</g>
<!-- Node13&#45;&gt;Node9 -->
<g id="edge28" class="edge">
<title>Node13&#45;&gt;Node9</title>
<path fill="none" stroke="#191970" d="M630.8445,-112.4369C585.4452,-101.8877 512.9966,-85.0532 468.9297,-74.8135"/>
<polygon fill="#191970" stroke="#191970" points="469.7075,-71.4011 459.1748,-72.5468 468.1231,-78.2194 469.7075,-71.4011"/>
</g>
<!-- Node14 -->
<g id="node15" class="node">
<title>Node14</title>
<g id="a_node15"><a xlink:href="Span_8h.html" target="_top" xlink:title="iDynTree/Core/Span.h">
<polygon fill="none" stroke="#000000" points="915.5,-56.5 915.5,-75.5 1036.5,-75.5 1036.5,-56.5 915.5,-56.5"/>
<text text-anchor="middle" x="976" y="-63.5" font-family="FreeSans.ttf" font-size="10.00" fill="#000000">iDynTree/Core/Span.h</text>
</a>
</g>
</g>
<!-- Node13&#45;&gt;Node14 -->
<g id="edge17" class="edge">
<title>Node13&#45;&gt;Node14</title>
<path fill="none" stroke="#191970" d="M723.914,-112.4369C776.5971,-102.7321 858.1568,-87.708 914.1543,-77.3926"/>
<polygon fill="#191970" stroke="#191970" points="915.0996,-80.7775 924.3001,-75.5237 913.8314,-73.8933 915.0996,-80.7775"/>
</g>
<!-- Node14&#45;&gt;Node4 -->
<g id="edge21" class="edge">
<title>Node14&#45;&gt;Node4</title>
<path fill="none" stroke="#191970" d="M934.9809,-56.4188C898.73,-47.8614 844.1887,-34.7684 787.557,-20.0862"/>
<polygon fill="#191970" stroke="#191970" points="788.2698,-16.6551 777.7105,-17.5226 786.5061,-23.4293 788.2698,-16.6551"/>
</g>
<!-- Node14&#45;&gt;Node5 -->
<g id="edge18" class="edge">
<title>Node14&#45;&gt;Node5</title>
<path fill="none" stroke="#191970" d="M918.109,-56.4369C847.8213,-44.8259 731.4404,-25.6008 672.9298,-15.9353"/>
<polygon fill="#191970" stroke="#191970" points="673.4757,-12.4781 663.039,-14.3014 672.3348,-19.3845 673.4757,-12.4781"/>
</g>
<!-- Node15 -->
<g id="node16" class="node">
<title>Node15</title>
<polygon fill="none" stroke="#bfbfbf" points="1092,-.5 1092,-19.5 1156,-19.5 1156,-.5 1092,-.5"/>
<text text-anchor="middle" x="1124" y="-7.5" font-family="FreeSans.ttf" font-size="10.00" fill="#000000">algorithm</text>
</g>
<!-- Node14&#45;&gt;Node15 -->
<g id="edge19" class="edge">
<title>Node14&#45;&gt;Node15</title>
<path fill="none" stroke="#191970" d="M1001.4421,-56.3733C1025.7326,-47.1822 1062.5208,-33.2624 1089.4543,-23.0713"/>
<polygon fill="#191970" stroke="#191970" points="1090.7757,-26.3136 1098.8899,-19.5011 1088.2984,-19.7666 1090.7757,-26.3136"/>
</g>
<!-- Node16 -->
<g id="node17" class="node">
<title>Node16</title>
<polygon fill="none" stroke="#bfbfbf" points="1174,-.5 1174,-19.5 1216,-19.5 1216,-.5 1174,-.5"/>
<text text-anchor="middle" x="1195" y="-7.5" font-family="FreeSans.ttf" font-size="10.00" fill="#000000">array</text>
</g>
<!-- Node14&#45;&gt;Node16 -->
<g id="edge20" class="edge">
<title>Node14&#45;&gt;Node16</title>
<path fill="none" stroke="#191970" d="M1019.81,-56.4225C1056.1112,-48.2436 1109.2321,-35.7176 1163.902,-20.1567"/>
<polygon fill="#191970" stroke="#191970" points="1165.1195,-23.4485 1173.7629,-17.3212 1163.185,-16.7211 1165.1195,-23.4485"/>
</g>
<!-- Node17 -->
<g id="node18" class="node">
<title>Node17</title>
<polygon fill="none" stroke="#bfbfbf" points="1234.5,-.5 1234.5,-19.5 1287.5,-19.5 1287.5,-.5 1234.5,-.5"/>
<text text-anchor="middle" x="1261" y="-7.5" font-family="FreeSans.ttf" font-size="10.00" fill="#000000">iterator</text>
</g>
<!-- Node14&#45;&gt;Node17 -->
<g id="edge22" class="edge">
<title>Node14&#45;&gt;Node17</title>
<path fill="none" stroke="#191970" d="M1035.6708,-56.4982C1084.0293,-48.4511 1154.1076,-36.0086 1224.4113,-19.9764"/>
<polygon fill="#191970" stroke="#191970" points="1225.3721,-23.3468 1234.3307,-17.6905 1223.8001,-16.5256 1225.3721,-23.3468"/>
</g>
<!-- Node18 -->
<g id="node19" class="node">
<title>Node18</title>
<polygon fill="none" stroke="#bfbfbf" points="796,-.5 796,-19.5 840,-19.5 840,-.5 796,-.5"/>
<text text-anchor="middle" x="818" y="-7.5" font-family="FreeSans.ttf" font-size="10.00" fill="#000000">limits</text>
</g>
<!-- Node14&#45;&gt;Node18 -->
<g id="edge23" class="edge">
<title>Node14&#45;&gt;Node18</title>
<path fill="none" stroke="#191970" d="M948.8388,-56.3733C921.3726,-46.6384 878.9388,-31.5985 849.8913,-21.3032"/>
<polygon fill="#191970" stroke="#191970" points="850.8163,-17.9178 840.2216,-17.876 848.4778,-24.5157 850.8163,-17.9178"/>
</g>
<!-- Node19 -->
<g id="node20" class="node">
<title>Node19</title>
<polygon fill="none" stroke="#bfbfbf" points="858.5,-.5 858.5,-19.5 923.5,-19.5 923.5,-.5 858.5,-.5"/>
<text text-anchor="middle" x="891" y="-7.5" font-family="FreeSans.ttf" font-size="10.00" fill="#000000">stdexcept</text>
</g>
<!-- Node14&#45;&gt;Node19 -->
<g id="edge24" class="edge">
<title>Node14&#45;&gt;Node19</title>
<path fill="none" stroke="#191970" d="M961.1941,-56.2455C948.2744,-47.7337 929.3069,-35.2375 914.3448,-25.3801"/>
<polygon fill="#191970" stroke="#191970" points="915.9124,-22.2216 905.6362,-19.6427 912.0613,-28.067 915.9124,-22.2216"/>
</g>
<!-- Node20 -->
<g id="node21" class="node">
<title>Node20</title>
<polygon fill="none" stroke="#bfbfbf" points="941.5,-.5 941.5,-19.5 1010.5,-19.5 1010.5,-.5 941.5,-.5"/>
<text text-anchor="middle" x="976" y="-7.5" font-family="FreeSans.ttf" font-size="10.00" fill="#000000">type_traits</text>
</g>
<!-- Node14&#45;&gt;Node20 -->
<g id="edge25" class="edge">
<title>Node14&#45;&gt;Node20</title>
<path fill="none" stroke="#191970" d="M976,-56.2455C976,-48.9382 976,-38.6944 976,-29.7046"/>
<polygon fill="#191970" stroke="#191970" points="979.5001,-29.6426 976,-19.6427 972.5001,-29.6427 979.5001,-29.6426"/>
</g>
<!-- Node21 -->
<g id="node22" class="node">
<title>Node21</title>
<polygon fill="none" stroke="#bfbfbf" points="1028.5,-.5 1028.5,-19.5 1073.5,-19.5 1073.5,-.5 1028.5,-.5"/>
<text text-anchor="middle" x="1051" y="-7.5" font-family="FreeSans.ttf" font-size="10.00" fill="#000000">utility</text>
</g>
<!-- Node14&#45;&gt;Node21 -->
<g id="edge26" class="edge">
<title>Node14&#45;&gt;Node21</title>
<path fill="none" stroke="#191970" d="M989.064,-56.2455C1000.3562,-47.814 1016.8845,-35.4729 1030.0271,-25.6598"/>
<polygon fill="#191970" stroke="#191970" points="1032.1669,-28.4301 1038.0857,-19.6427 1027.9789,-22.8211 1032.1669,-28.4301"/>
</g>
<!-- Node23 -->
<g id="node24" class="node">
<title>Node23</title>
<g id="a_node24"><a xlink:href="SpatialMotionVector_8h.html" target="_top" xlink:title="iDynTree/Core/SpatialMotion\lVector.h">
<polygon fill="none" stroke="#000000" points="594.5,-414.5 594.5,-444.5 749.5,-444.5 749.5,-414.5 594.5,-414.5"/>
<text text-anchor="start" x="602.5" y="-432.5" font-family="FreeSans.ttf" font-size="10.00" fill="#000000">iDynTree/Core/SpatialMotion</text>
<text text-anchor="middle" x="672" y="-421.5" font-family="FreeSans.ttf" font-size="10.00" fill="#000000">Vector.h</text>
</a>
</g>
</g>
<!-- Node22&#45;&gt;Node23 -->
<g id="edge32" class="edge">
<title>Node22&#45;&gt;Node23</title>
<path fill="none" stroke="#191970" d="M721.69,-486.9005C713.9023,-477.9043 701.9608,-464.1099 691.7361,-452.2986"/>
<polygon fill="#191970" stroke="#191970" points="694.1952,-449.7916 685.0039,-444.5218 688.9027,-454.3732 694.1952,-449.7916"/>
</g>
<!-- Node23&#45;&gt;Node13 -->
<g id="edge33" class="edge">
<title>Node23&#45;&gt;Node13</title>
<path fill="none" stroke="#191970" d="M672,-414.3514C672,-391.1367 672,-345.3646 672,-306.5 672,-306.5 672,-306.5 672,-245 672,-208.4994 672,-165.906 672,-141.6285"/>
<polygon fill="#191970" stroke="#191970" points="675.5001,-141.5691 672,-131.5691 668.5001,-141.5692 675.5001,-141.5691"/>
</g>
<!-- Node24 -->
<g id="node25" class="node">
<title>Node24</title>
<g id="a_node25"><a xlink:href="GeomVector3_8h.html" target="_top" xlink:title="iDynTree/Core/GeomVector3.h">
<polygon fill="none" stroke="#000000" points="480.5,-174 480.5,-193 643.5,-193 643.5,-174 480.5,-174"/>
<text text-anchor="middle" x="562" y="-181" font-family="FreeSans.ttf" font-size="10.00" fill="#000000">iDynTree/Core/GeomVector3.h</text>
</a>
</g>
</g>
<!-- Node23&#45;&gt;Node24 -->
<g id="edge34" class="edge">
<title>Node23&#45;&gt;Node24</title>
<path fill="none" stroke="#191970" d="M665.2846,-414.4819C646.2036,-371.8098 591.6834,-249.8828 570.5321,-202.5808"/>
<polygon fill="#191970" stroke="#191970" points="573.6126,-200.8957 566.3354,-193.1956 567.2224,-203.7532 573.6126,-200.8957"/>
</g>
<!-- Node25 -->
<g id="node26" class="node">
<title>Node25</title>
<g id="a_node26"><a xlink:href="SpatialVector_8h.html" target="_top" xlink:title="iDynTree/Core/SpatialVector.h">
<polygon fill="none" stroke="#000000" points="376.5,-358.5 376.5,-377.5 537.5,-377.5 537.5,-358.5 376.5,-358.5"/>
<text text-anchor="middle" x="457" y="-365.5" font-family="FreeSans.ttf" font-size="10.00" fill="#000000">iDynTree/Core/SpatialVector.h</text>
</a>
</g>
</g>
<!-- Node23&#45;&gt;Node25 -->
<g id="edge36" class="edge">
<title>Node23&#45;&gt;Node25</title>
<path fill="none" stroke="#191970" d="M619.4051,-414.4554C582.7451,-403.9689 534.44,-390.1515 500.0652,-380.3187"/>
<polygon fill="#191970" stroke="#191970" points="500.8944,-376.9155 490.3174,-377.5303 498.9692,-383.6456 500.8944,-376.9155"/>
</g>
<!-- Node24&#45;&gt;Node13 -->
<g id="edge35" class="edge">
<title>Node24&#45;&gt;Node13</title>
<path fill="none" stroke="#191970" d="M579.1875,-173.8906C597.1082,-163.8713 625.4095,-148.0483 646.0523,-136.5071"/>
<polygon fill="#191970" stroke="#191970" points="647.9128,-139.4769 654.9332,-131.5419 644.4967,-133.367 647.9128,-139.4769"/>
</g>
<!-- Node25&#45;&gt;Node3 -->
<g id="edge50" class="edge">
<title>Node25&#45;&gt;Node3</title>
<path fill="none" stroke="#191970" d="M452.0217,-358.1574C437.0623,-327.054 396.0549,-229.3173 438,-168 468.3245,-123.6702 615.8098,-92.1377 705.3204,-76.7214"/>
<polygon fill="#191970" stroke="#191970" points="706.1275,-80.1346 715.4011,-75.011 704.9565,-73.2332 706.1275,-80.1346"/>
</g>
<!-- Node25&#45;&gt;Node8 -->
<g id="edge52" class="edge">
<title>Node25&#45;&gt;Node8</title>
<path fill="none" stroke="#191970" d="M413.3205,-358.4305C390.3721,-351.5345 363.123,-340.1583 344,-322 271.6687,-253.3176 238.557,-132.3691 227.9767,-85.407"/>
<polygon fill="#191970" stroke="#191970" points="231.3915,-84.6388 225.8578,-75.6039 224.5495,-86.1176 231.3915,-84.6388"/>
</g>
<!-- Node25&#45;&gt;Node9 -->
<g id="edge53" class="edge">
<title>Node25&#45;&gt;Node9</title>
<path fill="none" stroke="#191970" d="M427.2714,-358.495C408.5901,-351.168 385.2289,-339.3232 370,-322 331.4648,-278.1656 334.3881,-256.4326 324,-199 317.1179,-160.9507 302.7325,-144.2925 324,-112 339.1809,-88.9492 368.5935,-77.4019 392.745,-71.6441"/>
<polygon fill="#191970" stroke="#191970" points="393.6684,-75.0259 402.7167,-69.5143 392.2062,-68.1803 393.6684,-75.0259"/>
</g>
<!-- Node25&#45;&gt;Node24 -->
<g id="edge51" class="edge">
<title>Node25&#45;&gt;Node24</title>
<path fill="none" stroke="#191970" d="M462.4974,-358.3402C479.1534,-329.0732 529.2683,-241.0142 551.3521,-202.2099"/>
<polygon fill="#191970" stroke="#191970" points="554.6527,-203.4864 556.557,-193.0641 548.5689,-200.0241 554.6527,-203.4864"/>
</g>
<!-- Node26 -->
<g id="node27" class="node">
<title>Node26</title>
<g id="a_node27"><a xlink:href="Position_8h.html" target="_top" xlink:title="Position.h">
<polygon fill="none" stroke="#000000" points="1055.5,-297 1055.5,-316 1120.5,-316 1120.5,-297 1055.5,-297"/>
<text text-anchor="middle" x="1088" y="-304" font-family="FreeSans.ttf" font-size="10.00" fill="#000000">Position.h</text>
</a>
</g>
</g>
<!-- Node25&#45;&gt;Node26 -->
<g id="edge37" class="edge">
<title>Node25&#45;&gt;Node26</title>
<path fill="none" stroke="#191970" d="M537.5575,-360.1485C672.7886,-346.9683 940.8738,-320.8396 1045.123,-310.679"/>
<polygon fill="#191970" stroke="#191970" points="1045.6588,-314.1434 1055.2721,-309.6898 1044.9797,-307.1764 1045.6588,-314.1434"/>
</g>
<!-- Node28 -->
<g id="node29" class="node">
<title>Node28</title>
<g id="a_node29"><a xlink:href="Rotation_8h.html" target="_top" xlink:title="iDynTree/Core/Rotation.h">
<polygon fill="none" stroke="#000000" points="824.5,-235.5 824.5,-254.5 961.5,-254.5 961.5,-235.5 824.5,-235.5"/>
<text text-anchor="middle" x="893" y="-242.5" font-family="FreeSans.ttf" font-size="10.00" fill="#000000">iDynTree/Core/Rotation.h</text>
</a>
</g>
</g>
<!-- Node25&#45;&gt;Node28 -->
<g id="edge49" class="edge">
<title>Node25&#45;&gt;Node28</title>
<path fill="none" stroke="#191970" d="M490.8494,-358.4507C569.0836,-336.3801 762.3756,-281.8505 849.3544,-257.3129"/>
<polygon fill="#191970" stroke="#191970" points="850.4981,-260.6269 859.1722,-254.5432 848.5975,-253.8898 850.4981,-260.6269"/>
</g>
<!-- Node26&#45;&gt;Node7 -->
<g id="edge48" class="edge">
<title>Node26&#45;&gt;Node7</title>
<path fill="none" stroke="#191970" d="M1103.1526,-296.863C1127.5603,-280.3248 1174.6944,-243.9396 1193,-199 1198.1976,-186.2402 1197.8964,-180.8784 1193,-168 1185.3923,-147.9902 1173.5171,-149.3665 1161,-132 1150.1574,-116.9566 1139.7897,-98.587 1132.6308,-85.0508"/>
<polygon fill="#191970" stroke="#191970" points="1135.5345,-83.0467 1127.8272,-75.777 1129.3188,-86.2663 1135.5345,-83.0467"/>
</g>
<!-- Node27 -->
<g id="node28" class="node">
<title>Node27</title>
<g id="a_node28"><a xlink:href="PositionRaw_8h.html" target="_top" xlink:title="iDynTree/Core/PositionRaw.h">
<polygon fill="none" stroke="#000000" points="1028,-174 1028,-193 1184,-193 1184,-174 1028,-174"/>
<text text-anchor="middle" x="1106" y="-181" font-family="FreeSans.ttf" font-size="10.00" fill="#000000">iDynTree/Core/PositionRaw.h</text>
</a>
</g>
</g>
<!-- Node26&#45;&gt;Node27 -->
<g id="edge38" class="edge">
<title>Node26&#45;&gt;Node27</title>
<path fill="none" stroke="#191970" d="M1089.4124,-296.8484C1092.3567,-276.7295 1099.2009,-229.9608 1103.1156,-203.2098"/>
<polygon fill="#191970" stroke="#191970" points="1106.6092,-203.5082 1104.5941,-193.1068 1099.6829,-202.4946 1106.6092,-203.5082"/>
</g>
<!-- Node26&#45;&gt;Node28 -->
<g id="edge41" class="edge">
<title>Node26&#45;&gt;Node28</title>
<path fill="none" stroke="#191970" d="M1057.5313,-296.8906C1024.0456,-286.3298 970.1147,-269.3208 933.188,-257.6747"/>
<polygon fill="#191970" stroke="#191970" points="933.8445,-254.2118 923.2548,-254.5419 931.739,-260.8877 933.8445,-254.2118"/>
</g>
<!-- Node27&#45;&gt;Node7 -->
<g id="edge40" class="edge">
<title>Node27&#45;&gt;Node7</title>
<path fill="none" stroke="#191970" d="M1107.3912,-173.8845C1110.1681,-154.6913 1116.448,-111.286 1120.1402,-85.7663"/>
<polygon fill="#191970" stroke="#191970" points="1123.6215,-86.1465 1121.5896,-75.7484 1116.6937,-85.1441 1123.6215,-86.1465"/>
</g>
<!-- Node27&#45;&gt;Node13 -->
<g id="edge39" class="edge">
<title>Node27&#45;&gt;Node13</title>
<path fill="none" stroke="#191970" d="M1038.6637,-173.9581C960.3826,-162.8653 831.4381,-144.5932 749.1793,-132.9367"/>
<polygon fill="#191970" stroke="#191970" points="749.5294,-129.4514 739.1372,-131.5137 748.5472,-136.3822 749.5294,-129.4514"/>
</g>
<!-- Node28&#45;&gt;Node7 -->
<g id="edge42" class="edge">
<title>Node28&#45;&gt;Node7</title>
<path fill="none" stroke="#191970" d="M915.2905,-235.4003C933.6781,-227.0096 960.0523,-213.8655 981,-199 1007.5369,-180.1681 1074.5641,-114.3459 1106.102,-82.9327"/>
<polygon fill="#191970" stroke="#191970" points="1108.7053,-85.2794 1113.3093,-75.7372 1103.7595,-80.3256 1108.7053,-85.2794"/>
</g>
<!-- Node28&#45;&gt;Node13 -->
<g id="edge47" class="edge">
<title>Node28&#45;&gt;Node13</title>
<path fill="none" stroke="#191970" d="M873.9917,-235.3634C856.0833,-226.2139 828.5591,-211.9694 805,-199 766.9474,-178.0519 723.5038,-152.6061 696.9161,-136.8555"/>
<polygon fill="#191970" stroke="#191970" points="698.6369,-133.8067 688.2512,-131.7119 695.0637,-139.8261 698.6369,-133.8067"/>
</g>
<!-- Node28&#45;&gt;Node24 -->
<g id="edge43" class="edge">
<title>Node28&#45;&gt;Node24</title>
<path fill="none" stroke="#191970" d="M841.6444,-235.4581C782.7311,-224.512 686.1935,-206.5752 623.3701,-194.9026"/>
<polygon fill="#191970" stroke="#191970" points="623.6748,-191.3994 613.2037,-193.0137 622.3961,-198.2816 623.6748,-191.3994"/>
</g>
<!-- Node29 -->
<g id="node30" class="node">
<title>Node29</title>
<g id="a_node30"><a xlink:href="RotationRaw_8h.html" target="_top" xlink:title="iDynTree/Core/RotationRaw.h">
<polygon fill="none" stroke="#000000" points="814,-174 814,-193 972,-193 972,-174 814,-174"/>
<text text-anchor="middle" x="893" y="-181" font-family="FreeSans.ttf" font-size="10.00" fill="#000000">iDynTree/Core/RotationRaw.h</text>
</a>
</g>
</g>
<!-- Node28&#45;&gt;Node29 -->
<g id="edge44" class="edge">
<title>Node28&#45;&gt;Node29</title>
<path fill="none" stroke="#191970" d="M893,-235.3906C893,-226.8657 893,-214.1392 893,-203.4235"/>
<polygon fill="#191970" stroke="#191970" points="896.5001,-203.2448 893,-193.2449 889.5001,-203.2449 896.5001,-203.2448"/>
</g>
<!-- Node29&#45;&gt;Node2 -->
<g id="edge45" class="edge">
<title>Node29&#45;&gt;Node2</title>
<path fill="none" stroke="#191970" d="M886.4375,-173.8906C880.3092,-164.917 871.0015,-151.2879 863.4628,-140.2491"/>
<polygon fill="#191970" stroke="#191970" points="866.185,-138.029 857.655,-131.7449 860.4044,-141.9768 866.185,-138.029"/>
</g>
<!-- Node29&#45;&gt;Node7 -->
<g id="edge46" class="edge">
<title>Node29&#45;&gt;Node7</title>
<path fill="none" stroke="#191970" d="M911.8219,-173.8845C952.2716,-153.2199 1047.6606,-104.4886 1095.1428,-80.2314"/>
<polygon fill="#191970" stroke="#191970" points="1096.9277,-83.2499 1104.2406,-75.5836 1093.7431,-77.0162 1096.9277,-83.2499"/>
</g>
<!-- Node31 -->
<g id="node32" class="node">
<title>Node31</title>
<g id="a_node32"><a xlink:href="SpatialForceVector_8h.html" target="_top" xlink:title="iDynTree/Core/SpatialForce\lVector.h">
<polygon fill="none" stroke="#000000" points="328,-414.5 328,-444.5 476,-444.5 476,-414.5 328,-414.5"/>
<text text-anchor="start" x="336" y="-432.5" font-family="FreeSans.ttf" font-size="10.00" fill="#000000">iDynTree/Core/SpatialForce</text>
<text text-anchor="middle" x="402" y="-421.5" font-family="FreeSans.ttf" font-size="10.00" fill="#000000">Vector.h</text>
</a>
</g>
</g>
<!-- Node30&#45;&gt;Node31 -->
<g id="edge55" class="edge">
<title>Node30&#45;&gt;Node31</title>
<path fill="none" stroke="#191970" d="M503.0935,-486.9005C486.0307,-477.2123 459.1672,-461.9593 437.4198,-449.6113"/>
<polygon fill="#191970" stroke="#191970" points="438.8804,-446.4158 428.4562,-444.5218 435.4241,-452.503 438.8804,-446.4158"/>
</g>
<!-- Node31&#45;&gt;Node13 -->
<g id="edge56" class="edge">
<title>Node31&#45;&gt;Node13</title>
<path fill="none" stroke="#191970" d="M385.1193,-414.1071C376.0757,-404.6844 365.8257,-391.8094 361,-378 358.0677,-369.6087 359.4788,-366.7578 361,-358 368.3612,-315.6215 437.039,-168.7756 438,-168 460.0356,-150.2162 525.3305,-138.3039 581.3645,-131.0659"/>
<polygon fill="#191970" stroke="#191970" points="581.8601,-134.5312 591.3461,-129.8124 580.9879,-127.5857 581.8601,-134.5312"/>
</g>
<!-- Node31&#45;&gt;Node24 -->
<g id="edge57" class="edge">
<title>Node31&#45;&gt;Node24</title>
<path fill="none" stroke="#191970" d="M386.1225,-414.3034C373.1222,-399.9278 358.2005,-377.6828 367,-358 401.5342,-280.7536 489.0361,-223.5408 534.153,-198.0993"/>
<polygon fill="#191970" stroke="#191970" points="536.041,-201.055 543.1028,-193.1568 532.6569,-194.9273 536.041,-201.055"/>
</g>
<!-- Node31&#45;&gt;Node25 -->
<g id="edge58" class="edge">
<title>Node31&#45;&gt;Node25</title>
<path fill="none" stroke="#191970" d="M415.5955,-414.2977C423.3891,-405.5831 433.2047,-394.6075 441.3226,-385.5302"/>
<polygon fill="#191970" stroke="#191970" points="444.1365,-387.6341 448.1938,-377.8469 438.9187,-382.9678 444.1365,-387.6341"/>
</g>
<!-- Node32&#45;&gt;Node23 -->
<g id="edge60" class="edge">
<title>Node32&#45;&gt;Node23</title>
<path fill="none" stroke="#191970" d="M852.7688,-486.9005C820.5556,-476.6717 768.807,-460.2397 728.9154,-447.5727"/>
<polygon fill="#191970" stroke="#191970" points="729.8977,-444.2124 719.3073,-444.5218 727.7791,-450.8841 729.8977,-444.2124"/>
</g>
<!-- Node33&#45;&gt;Node31 -->
<g id="edge62" class="edge">
<title>Node33&#45;&gt;Node31</title>
<path fill="none" stroke="#191970" d="M350.5965,-486.9005C358.6528,-477.9043 371.006,-464.1099 381.5833,-452.2986"/>
<polygon fill="#191970" stroke="#191970" points="384.4838,-454.3062 388.5477,-444.5218 379.2691,-449.6364 384.4838,-454.3062"/>
</g>
<!-- Node34&#45;&gt;Node2 -->
<g id="edge73" class="edge">
<title>Node34&#45;&gt;Node2</title>
<path fill="none" stroke="#191970" d="M1045.0838,-486.8676C1001.4706,-457.8265 873.5734,-366.2429 815,-255 796.8666,-220.561 790.1055,-203.9586 805,-168 809.8312,-156.3363 819.2137,-146.0881 828.2518,-138.243"/>
<polygon fill="#191970" stroke="#191970" points="830.7266,-140.7436 836.3148,-131.7423 826.333,-135.2942 830.7266,-140.7436"/>
</g>
<!-- Node34&#45;&gt;Node3 -->
<g id="edge81" class="edge">
<title>Node34&#45;&gt;Node3</title>
<path fill="none" stroke="#191970" d="M1071.6991,-486.734C1120.4806,-444.8719 1301.1663,-277.7409 1214,-168 1168.695,-110.9617 957.0777,-82.9371 845.0287,-71.8939"/>
<polygon fill="#191970" stroke="#191970" points="845.1241,-68.3869 834.8339,-70.909 844.4509,-75.3545 845.1241,-68.3869"/>
</g>
<!-- Node34&#45;&gt;Node13 -->
<g id="edge70" class="edge">
<title>Node34&#45;&gt;Node13</title>
<path fill="none" stroke="#191970" d="M1030.6225,-486.9974C1006.504,-478.3442 972.1805,-464.0182 946,-445 820.8211,-354.0668 716.3205,-194.4196 683.0667,-140.4353"/>
<polygon fill="#191970" stroke="#191970" points="685.8905,-138.3431 677.6977,-131.6253 679.913,-141.9859 685.8905,-138.3431"/>
</g>
<!-- Node34&#45;&gt;Node23 -->
<g id="edge74" class="edge">
<title>Node34&#45;&gt;Node23</title>
<path fill="none" stroke="#191970" d="M1004.8211,-486.9717C940.9482,-475.9421 834.9143,-457.6321 759.7082,-444.6455"/>
<polygon fill="#191970" stroke="#191970" points="760.2212,-441.1824 749.7714,-442.9296 759.03,-448.0803 760.2212,-441.1824"/>
</g>
<!-- Node34&#45;&gt;Node31 -->
<g id="edge75" class="edge">
<title>Node34&#45;&gt;Node31</title>
<path fill="none" stroke="#191970" d="M1006.4124,-486.9759C993.2264,-484.8224 979.1249,-482.6791 966,-481 919.7177,-475.079 631.9859,-449.6242 486.3111,-436.8588"/>
<polygon fill="#191970" stroke="#191970" points="486.3406,-433.3481 476.0733,-435.9621 485.7298,-440.3214 486.3406,-433.3481"/>
</g>
<!-- Node34&#45;&gt;Node35 -->
<g id="edge66" class="edge">
<title>Node34&#45;&gt;Node35</title>
<path fill="none" stroke="#191970" d="M1135.3577,-486.9786C1200.1124,-478.159 1295.7681,-463.6078 1378,-445 1382.2077,-444.0479 1386.5737,-442.9515 1390.9125,-441.7911"/>
<polygon fill="#191970" stroke="#191970" points="1392.2078,-445.0635 1400.8993,-439.0049 1390.3266,-438.321 1392.2078,-445.0635"/>
</g>
<!-- Node36 -->
<g id="node37" class="node">
<title>Node36</title>
<g id="a_node37"><a xlink:href="VectorDynSize_8h.html" target="_top" xlink:title="iDynTree/Core/VectorDynSize.h">
<polygon fill="none" stroke="#000000" points="1169.5,-112.5 1169.5,-131.5 1336.5,-131.5 1336.5,-112.5 1169.5,-112.5"/>
<text text-anchor="middle" x="1253" y="-119.5" font-family="FreeSans.ttf" font-size="10.00" fill="#000000">iDynTree/Core/VectorDynSize.h</text>
</a>
</g>
</g>
<!-- Node34&#45;&gt;Node36 -->
<g id="edge67" class="edge">
<title>Node34&#45;&gt;Node36</title>
<path fill="none" stroke="#191970" d="M1113.6844,-486.9514C1165.4018,-477.0469 1239.3223,-460.8208 1264,-445 1300.9886,-421.2868 1326,-411.9371 1326,-368 1326,-368 1326,-368 1326,-245 1326,-209.154 1321.0274,-198.3792 1302,-168 1294.9103,-156.6806 1284.3639,-146.2868 1274.8696,-138.2541"/>
<polygon fill="#191970" stroke="#191970" points="1276.8925,-135.3893 1266.9102,-131.839 1272.4997,-140.8394 1276.8925,-135.3893"/>
</g>
<!-- Node37 -->
<g id="node38" class="node">
<title>Node37</title>
<g id="a_node38"><a xlink:href="MatrixDynSize_8h.html" target="_top" xlink:title="iDynTree/Core/MatrixDynSize.h">
<polygon fill="none" stroke="#000000" points="1391.5,-235.5 1391.5,-254.5 1558.5,-254.5 1558.5,-235.5 1391.5,-235.5"/>
<text text-anchor="middle" x="1475" y="-242.5" font-family="FreeSans.ttf" font-size="10.00" fill="#000000">iDynTree/Core/MatrixDynSize.h</text>
</a>
</g>
</g>
<!-- Node34&#45;&gt;Node37 -->
<g id="edge71" class="edge">
<title>Node34&#45;&gt;Node37</title>
<path fill="none" stroke="#191970" d="M1112.39,-486.9938C1193.1119,-472.3289 1338.8045,-445.7823 1340,-445 1409.1824,-399.7262 1451.9316,-305.3872 1467.8854,-264.5458"/>
<polygon fill="#191970" stroke="#191970" points="1471.2503,-265.5431 1471.5202,-254.9517 1464.7043,-263.063 1471.2503,-265.5431"/>
</g>
<!-- Node38 -->
<g id="node39" class="node">
<title>Node38</title>
<g id="a_node39"><a xlink:href="Transform_8h.html" target="_top" xlink:title="iDynTree/Core/Transform.h">
<polygon fill="none" stroke="#000000" points="1015,-358.5 1015,-377.5 1161,-377.5 1161,-358.5 1015,-358.5"/>
<text text-anchor="middle" x="1088" y="-365.5" font-family="FreeSans.ttf" font-size="10.00" fill="#000000">iDynTree/Core/Transform.h</text>
</a>
</g>
</g>
<!-- Node34&#45;&gt;Node38 -->
<g id="edge76" class="edge">
<title>Node34&#45;&gt;Node38</title>
<path fill="none" stroke="#191970" d="M1062.1046,-486.8416C1066.6855,-465.8184 1077.6368,-415.5598 1083.7283,-387.6038"/>
<polygon fill="#191970" stroke="#191970" points="1087.1617,-388.2864 1085.871,-377.7705 1080.3222,-386.796 1087.1617,-388.2864"/>
</g>
<!-- Node36&#45;&gt;Node7 -->
<g id="edge69" class="edge">
<title>Node36&#45;&gt;Node7</title>
<path fill="none" stroke="#191970" d="M1230.6522,-112.3733C1209.5967,-103.3032 1177.8505,-89.6279 1154.2825,-79.4755"/>
<polygon fill="#191970" stroke="#191970" points="1155.625,-76.243 1145.0562,-75.5011 1152.8556,-82.6719 1155.625,-76.243"/>
</g>
<!-- Node36&#45;&gt;Node14 -->
<g id="edge68" class="edge">
<title>Node36&#45;&gt;Node14</title>
<path fill="none" stroke="#191970" d="M1205.6967,-112.4369C1157.892,-102.7724 1083.9932,-87.8326 1032.9892,-77.5213"/>
<polygon fill="#191970" stroke="#191970" points="1033.6034,-74.0747 1023.1082,-75.5237 1032.2163,-80.9359 1033.6034,-74.0747"/>
</g>
<!-- Node37&#45;&gt;Node7 -->
<g id="edge72" class="edge">
<title>Node37&#45;&gt;Node7</title>
<path fill="none" stroke="#191970" d="M1461.0437,-235.285C1449.5005,-226.7294 1433.2355,-213.4139 1422,-199 1395.3611,-164.8254 1412.7418,-137.8947 1378,-112 1343.2087,-86.0684 1216.0427,-73.0972 1155.4833,-68.2792"/>
<polygon fill="#191970" stroke="#191970" points="1155.5688,-64.7755 1145.3299,-67.4985 1155.0321,-71.7549 1155.5688,-64.7755"/>
</g>
<!-- Node38&#45;&gt;Node2 -->
<g id="edge79" class="edge">
<title>Node38&#45;&gt;Node2</title>
<path fill="none" stroke="#191970" d="M1100.5463,-358.2896C1138.7835,-327.5787 1247.9879,-230.8791 1193,-168 1176.6213,-149.2708 1037.4882,-135.4788 941.8107,-128.1031"/>
<polygon fill="#191970" stroke="#191970" points="942.06,-124.612 931.8235,-127.3442 941.5296,-131.5919 942.06,-124.612"/>
</g>
<!-- Node38&#45;&gt;Node7 -->
<g id="edge80" class="edge">
<title>Node38&#45;&gt;Node7</title>
<path fill="none" stroke="#191970" d="M1109.18,-358.4126C1164.2402,-332.0031 1310.0896,-252.1007 1346,-132 1348.5464,-123.4837 1351.6147,-118.8911 1346,-112 1322.3077,-82.9217 1211.201,-71.6768 1155.2973,-67.8047"/>
<polygon fill="#191970" stroke="#191970" points="1155.4217,-64.3055 1145.2146,-67.1451 1154.9647,-71.2905 1155.4217,-64.3055"/>
</g>
<!-- Node38&#45;&gt;Node26 -->
<g id="edge77" class="edge">
<title>Node38&#45;&gt;Node26</title>
<path fill="none" stroke="#191970" d="M1088,-358.3906C1088,-349.8657 1088,-337.1392 1088,-326.4235"/>
<polygon fill="#191970" stroke="#191970" points="1091.5001,-326.2448 1088,-316.2449 1084.5001,-326.2449 1091.5001,-326.2448"/>
</g>
<!-- Node38&#45;&gt;Node28 -->
<g id="edge78" class="edge">
<title>Node38&#45;&gt;Node28</title>
<path fill="none" stroke="#191970" d="M1072.6987,-358.3484C1038.8806,-337.017 957.5667,-285.7267 916.9414,-260.1015"/>
<polygon fill="#191970" stroke="#191970" points="918.5555,-256.9815 908.2302,-254.6068 914.821,-262.9021 918.5555,-256.9815"/>
</g>
</g>
</svg>
