<?xml version="1.0" encoding="UTF-8" standalone="no"?>
<!DOCTYPE svg PUBLIC "-//W3C//DTD SVG 1.1//EN"
 "http://www.w3.org/Graphics/SVG/1.1/DTD/svg11.dtd">
<!-- Generated by graphviz version 2.40.1 (20161225.0304)
 -->
<!-- Title: AttitudeEstimator.cpp Pages: 1 -->
<svg width="766pt" height="375pt"
 viewBox="0.00 0.00 765.50 375.00" xmlns="http://www.w3.org/2000/svg" xmlns:xlink="http://www.w3.org/1999/xlink">
<g id="graph0" class="graph" transform="scale(1 1) rotate(0) translate(4 371)">
<title>AttitudeEstimator.cpp</title>
<!-- Node0 -->
<g id="node1" class="node">
<title>Node0</title>
<polygon fill="#bfbfbf" stroke="#000000" points="434.5,-347.5 434.5,-366.5 556.5,-366.5 556.5,-347.5 434.5,-347.5"/>
<text text-anchor="middle" x="495.5" y="-354.5" font-family="FreeSans.ttf" font-size="10.00" fill="#000000">AttitudeEstimator.cpp</text>
</g>
<!-- Node1 -->
<g id="node2" class="node">
<title>Node1</title>
<g id="a_node2"><a xlink:href="AttitudeEstimator_8h.html" target="_top" xlink:title="iDynTree/Estimation\l/AttitudeEstimator.h">
<polygon fill="none" stroke="#000000" points="438,-280.5 438,-310.5 553,-310.5 553,-280.5 438,-280.5"/>
<text text-anchor="start" x="446" y="-298.5" font-family="FreeSans.ttf" font-size="10.00" fill="#000000">iDynTree/Estimation</text>
<text text-anchor="middle" x="495.5" y="-287.5" font-family="FreeSans.ttf" font-size="10.00" fill="#000000">/AttitudeEstimator.h</text>
</a>
</g>
</g>
<!-- Node0&#45;&gt;Node1 -->
<g id="edge1" class="edge">
<title>Node0&#45;&gt;Node1</title>
<path fill="none" stroke="#191970" d="M495.5,-347.3906C495.5,-340.2234 495.5,-330.0862 495.5,-320.671"/>
<polygon fill="#191970" stroke="#191970" points="499.0001,-320.5446 495.5,-310.5446 492.0001,-320.5446 499.0001,-320.5446"/>
</g>
<!-- Node2 -->
<g id="node3" class="node">
<title>Node2</title>
<g id="a_node3"><a xlink:href="VectorFixSize_8h.html" target="_top" xlink:title="iDynTree/Core/VectorFixSize.h">
<polygon fill="none" stroke="#000000" points="286,-112.5 286,-131.5 447,-131.5 447,-112.5 286,-112.5"/>
<text text-anchor="middle" x="366.5" y="-119.5" font-family="FreeSans.ttf" font-size="10.00" fill="#000000">iDynTree/Core/VectorFixSize.h</text>
</a>
</g>
</g>
<!-- Node1&#45;&gt;Node2 -->
<g id="edge2" class="edge">
<title>Node1&#45;&gt;Node2</title>
<path fill="none" stroke="#191970" d="M439.6055,-280.4089C395.0833,-265.1148 335.7059,-236.6198 307.5,-188 296.0791,-168.3133 317.6137,-149.3178 337.7985,-136.8014"/>
<polygon fill="#191970" stroke="#191970" points="339.6864,-139.7521 346.5596,-131.6892 336.1585,-133.7061 339.6864,-139.7521"/>
</g>
<!-- Node17 -->
<g id="node18" class="node">
<title>Node17</title>
<g id="a_node18"><a xlink:href="Rotation_8h.html" target="_top" xlink:title="iDynTree/Core/Rotation.h">
<polygon fill="none" stroke="#000000" points="427,-224.5 427,-243.5 564,-243.5 564,-224.5 427,-224.5"/>
<text text-anchor="middle" x="495.5" y="-231.5" font-family="FreeSans.ttf" font-size="10.00" fill="#000000">iDynTree/Core/Rotation.h</text>
</a>
</g>
</g>
<!-- Node1&#45;&gt;Node17 -->
<g id="edge19" class="edge">
<title>Node1&#45;&gt;Node17</title>
<path fill="none" stroke="#191970" d="M495.5,-280.2977C495.5,-272.3834 495.5,-262.6043 495.5,-254.0759"/>
<polygon fill="#191970" stroke="#191970" points="499.0001,-253.8469 495.5,-243.8469 492.0001,-253.847 499.0001,-253.8469"/>
</g>
<!-- Node21 -->
<g id="node22" class="node">
<title>Node21</title>
<polygon fill="none" stroke="#bfbfbf" points="697.5,-56.5 697.5,-75.5 757.5,-75.5 757.5,-56.5 697.5,-56.5"/>
<text text-anchor="middle" x="727.5" y="-63.5" font-family="FreeSans.ttf" font-size="10.00" fill="#000000">iostream</text>
</g>
<!-- Node1&#45;&gt;Node21 -->
<g id="edge33" class="edge">
<title>Node1&#45;&gt;Node21</title>
<path fill="none" stroke="#191970" d="M546.1009,-280.3608C590.9055,-264.4113 654.868,-234.9836 692.5,-188 716.619,-157.8875 724.1182,-111.8964 726.4492,-85.8328"/>
<polygon fill="#191970" stroke="#191970" points="729.9524,-85.9133 727.1817,-75.6872 722.9706,-85.4092 729.9524,-85.9133"/>
</g>
<!-- Node3 -->
<g id="node4" class="node">
<title>Node3</title>
<g id="a_node4"><a xlink:href="Utils_8h.html" target="_top" xlink:title="iDynTree/Core/Utils.h">
<polygon fill="none" stroke="#000000" points="132,-56.5 132,-75.5 251,-75.5 251,-56.5 132,-56.5"/>
<text text-anchor="middle" x="191.5" y="-63.5" font-family="FreeSans.ttf" font-size="10.00" fill="#000000">iDynTree/Core/Utils.h</text>
</a>
</g>
</g>
<!-- Node2&#45;&gt;Node3 -->
<g id="edge3" class="edge">
<title>Node2&#45;&gt;Node3</title>
<path fill="none" stroke="#191970" d="M336.4164,-112.3733C307.3166,-103.0613 263.0477,-88.8953 231.097,-78.671"/>
<polygon fill="#191970" stroke="#191970" points="231.782,-75.2155 221.191,-75.5011 229.6485,-81.8824 231.782,-75.2155"/>
</g>
<!-- Node5 -->
<g id="node6" class="node">
<title>Node5</title>
<g id="a_node6"><a xlink:href="Span_8h.html" target="_top" xlink:title="iDynTree/Core/Span.h">
<polygon fill="none" stroke="#000000" points="269,-56.5 269,-75.5 390,-75.5 390,-56.5 269,-56.5"/>
<text text-anchor="middle" x="329.5" y="-63.5" font-family="FreeSans.ttf" font-size="10.00" fill="#000000">iDynTree/Core/Span.h</text>
</a>
</g>
</g>
<!-- Node2&#45;&gt;Node5 -->
<g id="edge5" class="edge">
<title>Node2&#45;&gt;Node5</title>
<path fill="none" stroke="#191970" d="M360.0551,-112.2455C354.9618,-104.5367 347.7092,-93.5598 341.548,-84.2348"/>
<polygon fill="#191970" stroke="#191970" points="344.3038,-82.0566 335.8711,-75.6427 338.4635,-85.9155 344.3038,-82.0566"/>
</g>
<!-- Node6 -->
<g id="node7" class="node">
<title>Node6</title>
<polygon fill="none" stroke="#bfbfbf" points="581.5,-.5 581.5,-19.5 633.5,-19.5 633.5,-.5 581.5,-.5"/>
<text text-anchor="middle" x="607.5" y="-7.5" font-family="FreeSans.ttf" font-size="10.00" fill="#000000">cassert</text>
</g>
<!-- Node2&#45;&gt;Node6 -->
<g id="edge17" class="edge">
<title>Node2&#45;&gt;Node6</title>
<path fill="none" stroke="#191970" d="M374.1509,-112.3632C386.1228,-97.9364 410.7038,-70.8374 437.5,-56 491.4491,-26.1277 512.0129,-36.2526 571.5,-20 571.5978,-19.9733 571.6957,-19.9465 571.7937,-19.9197"/>
<polygon fill="#191970" stroke="#191970" points="572.4468,-23.3701 581.1611,-17.3441 570.5909,-16.6206 572.4468,-23.3701"/>
</g>
<!-- Node14 -->
<g id="node15" class="node">
<title>Node14</title>
<polygon fill="none" stroke="#bfbfbf" points="631.5,-56.5 631.5,-75.5 675.5,-75.5 675.5,-56.5 631.5,-56.5"/>
<text text-anchor="middle" x="653.5" y="-63.5" font-family="FreeSans.ttf" font-size="10.00" fill="#000000">string</text>
</g>
<!-- Node2&#45;&gt;Node14 -->
<g id="edge15" class="edge">
<title>Node2&#45;&gt;Node14</title>
<path fill="none" stroke="#191970" d="M415.511,-112.4369C474.4011,-100.9461 571.5103,-81.998 621.5276,-72.2385"/>
<polygon fill="#191970" stroke="#191970" points="622.3106,-75.6518 631.4552,-70.3014 620.97,-68.7814 622.3106,-75.6518"/>
</g>
<!-- Node15 -->
<g id="node16" class="node">
<title>Node15</title>
<polygon fill="none" stroke="#bfbfbf" points="446.5,-56.5 446.5,-75.5 502.5,-75.5 502.5,-56.5 446.5,-56.5"/>
<text text-anchor="middle" x="474.5" y="-63.5" font-family="FreeSans.ttf" font-size="10.00" fill="#000000">sstream</text>
</g>
<!-- Node2&#45;&gt;Node15 -->
<g id="edge16" class="edge">
<title>Node2&#45;&gt;Node15</title>
<path fill="none" stroke="#191970" d="M385.3122,-112.2455C402.3473,-103.4125 427.6575,-90.2887 446.9681,-80.2758"/>
<polygon fill="#191970" stroke="#191970" points="448.637,-83.353 455.9034,-75.6427 445.4147,-77.1388 448.637,-83.353"/>
</g>
<!-- Node16 -->
<g id="node17" class="node">
<title>Node16</title>
<polygon fill="none" stroke="#bfbfbf" points="520.5,-56.5 520.5,-75.5 570.5,-75.5 570.5,-56.5 520.5,-56.5"/>
<text text-anchor="middle" x="545.5" y="-63.5" font-family="FreeSans.ttf" font-size="10.00" fill="#000000">cstring</text>
</g>
<!-- Node2&#45;&gt;Node16 -->
<g id="edge18" class="edge">
<title>Node2&#45;&gt;Node16</title>
<path fill="none" stroke="#191970" d="M397.2712,-112.3733C428.7956,-102.5109 477.7243,-87.2036 510.6555,-76.9011"/>
<polygon fill="#191970" stroke="#191970" points="511.8261,-80.2022 520.3249,-73.876 509.736,-73.5215 511.8261,-80.2022"/>
</g>
<!-- Node4 -->
<g id="node5" class="node">
<title>Node4</title>
<polygon fill="none" stroke="#bfbfbf" points="0,-.5 0,-19.5 53,-19.5 53,-.5 0,-.5"/>
<text text-anchor="middle" x="26.5" y="-7.5" font-family="FreeSans.ttf" font-size="10.00" fill="#000000">cstddef</text>
</g>
<!-- Node3&#45;&gt;Node4 -->
<g id="edge4" class="edge">
<title>Node3&#45;&gt;Node4</title>
<path fill="none" stroke="#191970" d="M163.1355,-56.3733C135.4034,-46.9611 93.0596,-32.5899 62.8662,-22.3425"/>
<polygon fill="#191970" stroke="#191970" points="63.7255,-18.9381 53.1311,-19.0384 61.4757,-25.5667 63.7255,-18.9381"/>
</g>
<!-- Node5&#45;&gt;Node4 -->
<g id="edge9" class="edge">
<title>Node5&#45;&gt;Node4</title>
<path fill="none" stroke="#191970" d="M269.379,-56.4593C207.2999,-46.4787 113.5455,-31.0154 63.2271,-20.1817"/>
<polygon fill="#191970" stroke="#191970" points="63.6977,-16.7008 53.176,-17.9438 62.1763,-23.5335 63.6977,-16.7008"/>
</g>
<!-- Node5&#45;&gt;Node6 -->
<g id="edge6" class="edge">
<title>Node5&#45;&gt;Node6</title>
<path fill="none" stroke="#191970" d="M386.9902,-56.4587C436.2015,-47.9611 508.823,-34.6354 571.5,-20 571.5987,-19.977 571.6975,-19.9538 571.7965,-19.9306"/>
<polygon fill="#191970" stroke="#191970" points="572.368,-23.3956 581.2188,-17.572 570.6681,-16.6051 572.368,-23.3956"/>
</g>
<!-- Node7 -->
<g id="node8" class="node">
<title>Node7</title>
<polygon fill="none" stroke="#bfbfbf" points="221.5,-.5 221.5,-19.5 285.5,-19.5 285.5,-.5 221.5,-.5"/>
<text text-anchor="middle" x="253.5" y="-7.5" font-family="FreeSans.ttf" font-size="10.00" fill="#000000">algorithm</text>
</g>
<!-- Node5&#45;&gt;Node7 -->
<g id="edge7" class="edge">
<title>Node5&#45;&gt;Node7</title>
<path fill="none" stroke="#191970" d="M316.2618,-56.2455C304.819,-47.814 288.0704,-35.4729 274.7525,-25.6598"/>
<polygon fill="#191970" stroke="#191970" points="276.7133,-22.757 266.5865,-19.6427 272.5609,-28.3924 276.7133,-22.757"/>
</g>
<!-- Node8 -->
<g id="node9" class="node">
<title>Node8</title>
<polygon fill="none" stroke="#bfbfbf" points="303.5,-.5 303.5,-19.5 345.5,-19.5 345.5,-.5 303.5,-.5"/>
<text text-anchor="middle" x="324.5" y="-7.5" font-family="FreeSans.ttf" font-size="10.00" fill="#000000">array</text>
</g>
<!-- Node5&#45;&gt;Node8 -->
<g id="edge8" class="edge">
<title>Node5&#45;&gt;Node8</title>
<path fill="none" stroke="#191970" d="M328.6291,-56.2455C327.9766,-48.9382 327.062,-38.6944 326.2593,-29.7046"/>
<polygon fill="#191970" stroke="#191970" points="329.7365,-29.2918 325.361,-19.6427 322.7642,-29.9143 329.7365,-29.2918"/>
</g>
<!-- Node9 -->
<g id="node10" class="node">
<title>Node9</title>
<polygon fill="none" stroke="#bfbfbf" points="364,-.5 364,-19.5 417,-19.5 417,-.5 364,-.5"/>
<text text-anchor="middle" x="390.5" y="-7.5" font-family="FreeSans.ttf" font-size="10.00" fill="#000000">iterator</text>
</g>
<!-- Node5&#45;&gt;Node9 -->
<g id="edge10" class="edge">
<title>Node5&#45;&gt;Node9</title>
<path fill="none" stroke="#191970" d="M340.1254,-56.2455C349.0473,-48.0549 361.988,-36.1749 372.5192,-26.5069"/>
<polygon fill="#191970" stroke="#191970" points="374.9968,-28.9837 379.9964,-19.6427 370.2629,-23.8271 374.9968,-28.9837"/>
</g>
<!-- Node10 -->
<g id="node11" class="node">
<title>Node10</title>
<polygon fill="none" stroke="#bfbfbf" points="435.5,-.5 435.5,-19.5 479.5,-19.5 479.5,-.5 435.5,-.5"/>
<text text-anchor="middle" x="457.5" y="-7.5" font-family="FreeSans.ttf" font-size="10.00" fill="#000000">limits</text>
</g>
<!-- Node5&#45;&gt;Node10 -->
<g id="edge11" class="edge">
<title>Node5&#45;&gt;Node10</title>
<path fill="none" stroke="#191970" d="M351.504,-56.3733C372.1435,-47.3435 403.2158,-33.7494 426.3889,-23.6111"/>
<polygon fill="#191970" stroke="#191970" points="428.0245,-26.7159 435.7831,-19.5011 425.2187,-20.3028 428.0245,-26.7159"/>
</g>
<!-- Node11 -->
<g id="node12" class="node">
<title>Node11</title>
<polygon fill="none" stroke="#bfbfbf" points="498,-.5 498,-19.5 563,-19.5 563,-.5 498,-.5"/>
<text text-anchor="middle" x="530.5" y="-7.5" font-family="FreeSans.ttf" font-size="10.00" fill="#000000">stdexcept</text>
</g>
<!-- Node5&#45;&gt;Node11 -->
<g id="edge12" class="edge">
<title>Node5&#45;&gt;Node11</title>
<path fill="none" stroke="#191970" d="M364.0531,-56.3733C398.3208,-46.826 450.9028,-32.1763 487.774,-21.9037"/>
<polygon fill="#191970" stroke="#191970" points="489.035,-25.1858 497.7287,-19.1303 487.1562,-18.4426 489.035,-25.1858"/>
</g>
<!-- Node12 -->
<g id="node13" class="node">
<title>Node12</title>
<polygon fill="none" stroke="#bfbfbf" points="71,-.5 71,-19.5 140,-19.5 140,-.5 71,-.5"/>
<text text-anchor="middle" x="105.5" y="-7.5" font-family="FreeSans.ttf" font-size="10.00" fill="#000000">type_traits</text>
</g>
<!-- Node5&#45;&gt;Node12 -->
<g id="edge13" class="edge">
<title>Node5&#45;&gt;Node12</title>
<path fill="none" stroke="#191970" d="M291.2475,-56.4369C252.1144,-46.6536 191.358,-31.4645 150.0727,-21.1432"/>
<polygon fill="#191970" stroke="#191970" points="150.8309,-17.7251 140.2806,-18.6951 149.1331,-24.5161 150.8309,-17.7251"/>
</g>
<!-- Node13 -->
<g id="node14" class="node">
<title>Node13</title>
<polygon fill="none" stroke="#bfbfbf" points="158,-.5 158,-19.5 203,-19.5 203,-.5 158,-.5"/>
<text text-anchor="middle" x="180.5" y="-7.5" font-family="FreeSans.ttf" font-size="10.00" fill="#000000">utility</text>
</g>
<!-- Node5&#45;&gt;Node13 -->
<g id="edge14" class="edge">
<title>Node5&#45;&gt;Node13</title>
<path fill="none" stroke="#191970" d="M303.886,-56.3733C278.6903,-46.9037 240.1384,-32.4144 212.842,-22.1554"/>
<polygon fill="#191970" stroke="#191970" points="213.9324,-18.8262 203.3403,-18.5843 211.4697,-25.3787 213.9324,-18.8262"/>
</g>
<!-- Node17&#45;&gt;Node2 -->
<g id="edge32" class="edge">
<title>Node17&#45;&gt;Node2</title>
<path fill="none" stroke="#191970" d="M426.6492,-225.209C381.883,-217.9179 329.3483,-205.8323 315.5,-188 302.0213,-170.6435 322.4453,-150.6715 341.3133,-137.2843"/>
<polygon fill="#191970" stroke="#191970" points="343.3894,-140.1063 349.7455,-131.6299 339.4907,-134.2925 343.3894,-140.1063"/>
</g>
<!-- Node17&#45;&gt;Node14 -->
<g id="edge20" class="edge">
<title>Node17&#45;&gt;Node14</title>
<path fill="none" stroke="#191970" d="M564.0692,-225.027C608.2381,-217.6796 659.8687,-205.6018 673.5,-188 696.9225,-157.755 678.0367,-110.489 664.4005,-84.5626"/>
<polygon fill="#191970" stroke="#191970" points="667.431,-82.8102 659.5306,-75.7509 661.3044,-86.1962 667.431,-82.8102"/>
</g>
<!-- Node18 -->
<g id="node19" class="node">
<title>Node18</title>
<g id="a_node19"><a xlink:href="GeomVector3_8h.html" target="_top" xlink:title="iDynTree/Core/GeomVector3.h">
<polygon fill="none" stroke="#000000" points="325,-168.5 325,-187.5 488,-187.5 488,-168.5 325,-168.5"/>
<text text-anchor="middle" x="406.5" y="-175.5" font-family="FreeSans.ttf" font-size="10.00" fill="#000000">iDynTree/Core/GeomVector3.h</text>
</a>
</g>
</g>
<!-- Node17&#45;&gt;Node18 -->
<g id="edge21" class="edge">
<title>Node17&#45;&gt;Node18</title>
<path fill="none" stroke="#191970" d="M479.9974,-224.2455C466.342,-215.6534 446.2343,-203.0014 430.5011,-193.1018"/>
<polygon fill="#191970" stroke="#191970" points="432.1529,-190.006 421.825,-187.6427 428.4249,-195.9307 432.1529,-190.006"/>
</g>
<!-- Node19 -->
<g id="node20" class="node">
<title>Node19</title>
<g id="a_node20"><a xlink:href="RotationRaw_8h.html" target="_top" xlink:title="iDynTree/Core/RotationRaw.h">
<polygon fill="none" stroke="#000000" points="506.5,-168.5 506.5,-187.5 664.5,-187.5 664.5,-168.5 506.5,-168.5"/>
<text text-anchor="middle" x="585.5" y="-175.5" font-family="FreeSans.ttf" font-size="10.00" fill="#000000">iDynTree/Core/RotationRaw.h</text>
</a>
</g>
</g>
<!-- Node17&#45;&gt;Node19 -->
<g id="edge23" class="edge">
<title>Node17&#45;&gt;Node19</title>
<path fill="none" stroke="#191970" d="M511.1768,-224.2455C524.9856,-215.6534 545.3193,-203.0014 561.2292,-193.1018"/>
<polygon fill="#191970" stroke="#191970" points="563.3613,-195.8974 570.0028,-187.6427 559.6632,-189.954 563.3613,-195.8974"/>
</g>
<!-- Node18&#45;&gt;Node2 -->
<g id="edge22" class="edge">
<title>Node18&#45;&gt;Node2</title>
<path fill="none" stroke="#191970" d="M399.5325,-168.2455C393.9689,-160.4564 386.022,-149.3308 379.3171,-139.9439"/>
<polygon fill="#191970" stroke="#191970" points="382.0481,-137.7457 373.3876,-131.6427 376.352,-141.8144 382.0481,-137.7457"/>
</g>
<!-- Node19&#45;&gt;Node14 -->
<g id="edge31" class="edge">
<title>Node19&#45;&gt;Node14</title>
<path fill="none" stroke="#191970" d="M599.4959,-168.214C610.5239,-159.8067 625.4939,-146.7345 634.5,-132 643.1475,-117.8521 648.0067,-99.5996 650.6415,-85.8765"/>
<polygon fill="#191970" stroke="#191970" points="654.1621,-86.0455 652.366,-75.604 647.2587,-84.8866 654.1621,-86.0455"/>
</g>
<!-- Node20 -->
<g id="node21" class="node">
<title>Node20</title>
<g id="a_node21"><a xlink:href="MatrixFixSize_8h.html" target="_top" xlink:title="iDynTree/Core/MatrixFixSize.h">
<polygon fill="none" stroke="#000000" points="465,-112.5 465,-131.5 626,-131.5 626,-112.5 465,-112.5"/>
<text text-anchor="middle" x="545.5" y="-119.5" font-family="FreeSans.ttf" font-size="10.00" fill="#000000">iDynTree/Core/MatrixFixSize.h</text>
</a>
</g>
</g>
<!-- Node19&#45;&gt;Node20 -->
<g id="edge24" class="edge">
<title>Node19&#45;&gt;Node20</title>
<path fill="none" stroke="#191970" d="M578.5325,-168.2455C572.9689,-160.4564 565.022,-149.3308 558.3171,-139.9439"/>
<polygon fill="#191970" stroke="#191970" points="561.0481,-137.7457 552.3876,-131.6427 555.352,-141.8144 561.0481,-137.7457"/>
</g>
<!-- Node20&#45;&gt;Node3 -->
<g id="edge25" class="edge">
<title>Node20&#45;&gt;Node3</title>
<path fill="none" stroke="#191970" d="M485.0475,-112.4369C423.0029,-102.6219 326.5643,-87.3661 261.3082,-77.0431"/>
<polygon fill="#191970" stroke="#191970" points="261.5368,-73.5358 251.1127,-75.4303 260.443,-80.4498 261.5368,-73.5358"/>
</g>
<!-- Node20&#45;&gt;Node6 -->
<g id="edge26" class="edge">
<title>Node20&#45;&gt;Node6</title>
<path fill="none" stroke="#191970" d="M553.7796,-112.2364C561.1527,-103.2293 571.916,-89.2805 579.5,-76 588.0719,-60.9896 595.5836,-42.842 600.6628,-29.3784"/>
<polygon fill="#191970" stroke="#191970" points="604.042,-30.3283 604.1885,-19.7344 597.4676,-27.9247 604.042,-30.3283"/>
</g>
<!-- Node20&#45;&gt;Node14 -->
<g id="edge28" class="edge">
<title>Node20&#45;&gt;Node14</title>
<path fill="none" stroke="#191970" d="M564.3122,-112.2455C581.3473,-103.4125 606.6575,-90.2887 625.9681,-80.2758"/>
<polygon fill="#191970" stroke="#191970" points="627.637,-83.353 634.9034,-75.6427 624.4147,-77.1388 627.637,-83.353"/>
</g>
<!-- Node20&#45;&gt;Node15 -->
<g id="edge30" class="edge">
<title>Node20&#45;&gt;Node15</title>
<path fill="none" stroke="#191970" d="M533.1327,-112.2455C522.5446,-103.8943 507.0936,-91.7076 494.7107,-81.9408"/>
<polygon fill="#191970" stroke="#191970" points="496.7447,-79.0875 486.7255,-75.6427 492.4097,-84.5837 496.7447,-79.0875"/>
</g>
<!-- Node20&#45;&gt;Node16 -->
<g id="edge27" class="edge">
<title>Node20&#45;&gt;Node16</title>
<path fill="none" stroke="#191970" d="M545.5,-112.2455C545.5,-104.9382 545.5,-94.6944 545.5,-85.7046"/>
<polygon fill="#191970" stroke="#191970" points="549.0001,-85.6426 545.5,-75.6427 542.0001,-85.6427 549.0001,-85.6426"/>
</g>
<!-- Node20&#45;&gt;Node21 -->
<g id="edge29" class="edge">
<title>Node20&#45;&gt;Node21</title>
<path fill="none" stroke="#191970" d="M576.7869,-112.3733C607.366,-102.9643 654.0512,-88.5996 687.3533,-78.3528"/>
<polygon fill="#191970" stroke="#191970" points="688.6976,-81.6012 697.2261,-75.315 686.639,-74.9107 688.6976,-81.6012"/>
</g>
</g>
</svg>
