<?xml version="1.0" encoding="UTF-8" standalone="no"?>
<!DOCTYPE svg PUBLIC "-//W3C//DTD SVG 1.1//EN"
 "http://www.w3.org/Graphics/SVG/1.1/DTD/svg11.dtd">
<!-- Generated by graphviz version 2.40.1 (20161225.0304)
 -->
<!-- Title: AttitudeEstimatorUtils.cpp Pages: 1 -->
<svg width="1309pt" height="621pt"
 viewBox="0.00 0.00 1308.50 621.00" xmlns="http://www.w3.org/2000/svg" xmlns:xlink="http://www.w3.org/1999/xlink">
<g id="graph0" class="graph" transform="scale(1 1) rotate(0) translate(4 617)">
<title>AttitudeEstimatorUtils.cpp</title>
<!-- Node0 -->
<g id="node1" class="node">
<title>Node0</title>
<polygon fill="#bfbfbf" stroke="#000000" points="836,-593.5 836,-612.5 982,-612.5 982,-593.5 836,-593.5"/>
<text text-anchor="middle" x="909" y="-600.5" font-family="FreeSans.ttf" font-size="10.00" fill="#000000">AttitudeEstimatorUtils.cpp</text>
</g>
<!-- Node1 -->
<g id="node2" class="node">
<title>Node1</title>
<g id="a_node2"><a xlink:href="AttitudeEstimatorUtils_8h.html" target="_top" xlink:title="iDynTree/Estimation\l/AttitudeEstimatorUtils.h">
<polygon fill="none" stroke="#000000" points="743.5,-526.5 743.5,-556.5 880.5,-556.5 880.5,-526.5 743.5,-526.5"/>
<text text-anchor="start" x="751.5" y="-544.5" font-family="FreeSans.ttf" font-size="10.00" fill="#000000">iDynTree/Estimation</text>
<text text-anchor="middle" x="812" y="-533.5" font-family="FreeSans.ttf" font-size="10.00" fill="#000000">/AttitudeEstimatorUtils.h</text>
</a>
</g>
</g>
<!-- Node0&#45;&gt;Node1 -->
<g id="edge1" class="edge">
<title>Node0&#45;&gt;Node1</title>
<path fill="none" stroke="#191970" d="M893.8438,-593.3906C880.716,-585.0673 861.2711,-572.7389 844.6285,-562.1872"/>
<polygon fill="#191970" stroke="#191970" points="846.0486,-558.9433 835.7289,-556.5446 842.3003,-564.8553 846.0486,-558.9433"/>
</g>
<!-- Node33 -->
<g id="node34" class="node">
<title>Node33</title>
<polygon fill="none" stroke="#bfbfbf" points="852.5,-470.5 852.5,-489.5 899.5,-489.5 899.5,-470.5 852.5,-470.5"/>
<text text-anchor="middle" x="876" y="-477.5" font-family="FreeSans.ttf" font-size="10.00" fill="#000000">cmath</text>
</g>
<!-- Node0&#45;&gt;Node33 -->
<g id="edge72" class="edge">
<title>Node0&#45;&gt;Node33</title>
<path fill="none" stroke="#191970" d="M906.6017,-593.4995C902.9117,-578.9443 895.5782,-550.2612 889,-526 886.6443,-517.312 883.951,-507.7281 881.6291,-499.5672"/>
<polygon fill="#191970" stroke="#191970" points="884.9658,-498.5053 878.8503,-489.8537 878.2358,-500.4307 884.9658,-498.5053"/>
</g>
<!-- Node34 -->
<g id="node35" class="node">
<title>Node34</title>
<polygon fill="none" stroke="#bfbfbf" points="921.5,-470.5 921.5,-489.5 968.5,-489.5 968.5,-470.5 921.5,-470.5"/>
<text text-anchor="middle" x="945" y="-477.5" font-family="FreeSans.ttf" font-size="10.00" fill="#000000">vector</text>
</g>
<!-- Node0&#45;&gt;Node34 -->
<g id="edge71" class="edge">
<title>Node0&#45;&gt;Node34</title>
<path fill="none" stroke="#191970" d="M911.8249,-593.3484C917.7396,-573.1397 931.5241,-526.0427 939.3358,-499.3528"/>
<polygon fill="#191970" stroke="#191970" points="942.7383,-500.1873 942.1883,-489.6068 936.0201,-498.221 942.7383,-500.1873"/>
</g>
<!-- Node2 -->
<g id="node3" class="node">
<title>Node2</title>
<g id="a_node3"><a xlink:href="AttitudeEstimator_8h.html" target="_top" xlink:title="iDynTree/Estimation\l/AttitudeEstimator.h">
<polygon fill="none" stroke="#000000" points="518.5,-280.5 518.5,-310.5 633.5,-310.5 633.5,-280.5 518.5,-280.5"/>
<text text-anchor="start" x="526.5" y="-298.5" font-family="FreeSans.ttf" font-size="10.00" fill="#000000">iDynTree/Estimation</text>
<text text-anchor="middle" x="576" y="-287.5" font-family="FreeSans.ttf" font-size="10.00" fill="#000000">/AttitudeEstimator.h</text>
</a>
</g>
</g>
<!-- Node1&#45;&gt;Node2 -->
<g id="edge2" class="edge">
<title>Node1&#45;&gt;Node2</title>
<path fill="none" stroke="#191970" d="M797.5924,-526.4819C757.5998,-484.7947 645.0433,-367.4688 597.5599,-317.9735"/>
<polygon fill="#191970" stroke="#191970" points="599.9675,-315.4273 590.5189,-310.6341 594.9161,-320.2734 599.9675,-315.4273"/>
</g>
<!-- Node23 -->
<g id="node24" class="node">
<title>Node23</title>
<g id="a_node24"><a xlink:href="EigenHelpers_8h.html" target="_top" xlink:title="iDynTree/Core/EigenHelpers.h">
<polygon fill="none" stroke="#000000" points="445.5,-470.5 445.5,-489.5 606.5,-489.5 606.5,-470.5 445.5,-470.5"/>
<text text-anchor="middle" x="526" y="-477.5" font-family="FreeSans.ttf" font-size="10.00" fill="#000000">iDynTree/Core/EigenHelpers.h</text>
</a>
</g>
</g>
<!-- Node1&#45;&gt;Node23 -->
<g id="edge35" class="edge">
<title>Node1&#45;&gt;Node23</title>
<path fill="none" stroke="#191970" d="M743.4959,-526.7692C693.4594,-516.0096 626.5402,-501.6197 580.2052,-491.656"/>
<polygon fill="#191970" stroke="#191970" points="580.8652,-488.218 570.3529,-489.5374 579.3936,-495.0616 580.8652,-488.218"/>
</g>
<!-- Node1&#45;&gt;Node33 -->
<g id="edge69" class="edge">
<title>Node1&#45;&gt;Node33</title>
<path fill="none" stroke="#191970" d="M827.8202,-526.2977C837.0742,-517.4052 848.7781,-506.1586 858.333,-496.9769"/>
<polygon fill="#191970" stroke="#191970" points="860.9674,-499.2995 865.7528,-489.8469 856.1172,-494.2521 860.9674,-499.2995"/>
</g>
<!-- Node1&#45;&gt;Node34 -->
<g id="edge70" class="edge">
<title>Node1&#45;&gt;Node34</title>
<path fill="none" stroke="#191970" d="M844.5355,-526.4554C866.1429,-516.464 894.2898,-503.4487 915.292,-493.7372"/>
<polygon fill="#191970" stroke="#191970" points="916.7821,-496.9043 924.3897,-489.5303 913.8441,-490.5506 916.7821,-496.9043"/>
</g>
<!-- Node3 -->
<g id="node4" class="node">
<title>Node3</title>
<g id="a_node4"><a xlink:href="VectorFixSize_8h.html" target="_top" xlink:title="iDynTree/Core/VectorFixSize.h">
<polygon fill="none" stroke="#000000" points="223.5,-112.5 223.5,-131.5 384.5,-131.5 384.5,-112.5 223.5,-112.5"/>
<text text-anchor="middle" x="304" y="-119.5" font-family="FreeSans.ttf" font-size="10.00" fill="#000000">iDynTree/Core/VectorFixSize.h</text>
</a>
</g>
</g>
<!-- Node2&#45;&gt;Node3 -->
<g id="edge3" class="edge">
<title>Node2&#45;&gt;Node3</title>
<path fill="none" stroke="#191970" d="M555.427,-280.446C521.4694,-255.834 451.2451,-205.9261 389,-168 370.4339,-156.6876 348.887,-145.0425 332.1329,-136.2994"/>
<polygon fill="#191970" stroke="#191970" points="333.3708,-132.9991 322.8809,-131.5114 330.1535,-139.216 333.3708,-132.9991"/>
</g>
<!-- Node18 -->
<g id="node19" class="node">
<title>Node18</title>
<g id="a_node19"><a xlink:href="Rotation_8h.html" target="_top" xlink:title="iDynTree/Core/Rotation.h">
<polygon fill="none" stroke="#000000" points="594.5,-224.5 594.5,-243.5 731.5,-243.5 731.5,-224.5 594.5,-224.5"/>
<text text-anchor="middle" x="663" y="-231.5" font-family="FreeSans.ttf" font-size="10.00" fill="#000000">iDynTree/Core/Rotation.h</text>
</a>
</g>
</g>
<!-- Node2&#45;&gt;Node18 -->
<g id="edge20" class="edge">
<title>Node2&#45;&gt;Node18</title>
<path fill="none" stroke="#191970" d="M597.5056,-280.2977C610.7968,-270.9022 627.8057,-258.8787 641.1588,-249.4395"/>
<polygon fill="#191970" stroke="#191970" points="643.1846,-252.2937 649.33,-243.6633 639.1439,-246.5776 643.1846,-252.2937"/>
</g>
<!-- Node22 -->
<g id="node23" class="node">
<title>Node22</title>
<polygon fill="none" stroke="#bfbfbf" points="598,-56.5 598,-75.5 658,-75.5 658,-56.5 598,-56.5"/>
<text text-anchor="middle" x="628" y="-63.5" font-family="FreeSans.ttf" font-size="10.00" fill="#000000">iostream</text>
</g>
<!-- Node2&#45;&gt;Node22 -->
<g id="edge34" class="edge">
<title>Node2&#45;&gt;Node22</title>
<path fill="none" stroke="#191970" d="M574.4625,-280.4236C572.535,-255.991 571.0012,-206.5919 585,-168 591.7301,-149.4464 602.615,-149.8668 611,-132 617.912,-117.2718 622.3033,-99.3248 624.8876,-85.8656"/>
<polygon fill="#191970" stroke="#191970" points="628.3755,-86.2378 626.6491,-75.7845 621.48,-85.0328 628.3755,-86.2378"/>
</g>
<!-- Node4 -->
<g id="node5" class="node">
<title>Node4</title>
<g id="a_node5"><a xlink:href="Utils_8h.html" target="_top" xlink:title="iDynTree/Core/Utils.h">
<polygon fill="none" stroke="#000000" points="102.5,-56.5 102.5,-75.5 221.5,-75.5 221.5,-56.5 102.5,-56.5"/>
<text text-anchor="middle" x="162" y="-63.5" font-family="FreeSans.ttf" font-size="10.00" fill="#000000">iDynTree/Core/Utils.h</text>
</a>
</g>
</g>
<!-- Node3&#45;&gt;Node4 -->
<g id="edge4" class="edge">
<title>Node3&#45;&gt;Node4</title>
<path fill="none" stroke="#191970" d="M279.5893,-112.3733C256.3858,-103.2226 221.2962,-89.3844 195.4858,-79.2057"/>
<polygon fill="#191970" stroke="#191970" points="196.6789,-75.9139 186.0921,-75.5011 194.1108,-82.4258 196.6789,-75.9139"/>
</g>
<!-- Node6 -->
<g id="node7" class="node">
<title>Node6</title>
<g id="a_node7"><a xlink:href="Span_8h.html" target="_top" xlink:title="iDynTree/Core/Span.h">
<polygon fill="none" stroke="#000000" points="458.5,-56.5 458.5,-75.5 579.5,-75.5 579.5,-56.5 458.5,-56.5"/>
<text text-anchor="middle" x="519" y="-63.5" font-family="FreeSans.ttf" font-size="10.00" fill="#000000">iDynTree/Core/Span.h</text>
</a>
</g>
</g>
<!-- Node3&#45;&gt;Node6 -->
<g id="edge6" class="edge">
<title>Node3&#45;&gt;Node6</title>
<path fill="none" stroke="#191970" d="M340.9598,-112.3733C377.4075,-102.8799 433.2246,-88.3415 472.6289,-78.0781"/>
<polygon fill="#191970" stroke="#191970" points="473.7276,-81.4087 482.5225,-75.5011 471.9631,-74.6348 473.7276,-81.4087"/>
</g>
<!-- Node7 -->
<g id="node8" class="node">
<title>Node7</title>
<polygon fill="none" stroke="#bfbfbf" points="253,-.5 253,-19.5 305,-19.5 305,-.5 253,-.5"/>
<text text-anchor="middle" x="279" y="-7.5" font-family="FreeSans.ttf" font-size="10.00" fill="#000000">cassert</text>
</g>
<!-- Node3&#45;&gt;Node7 -->
<g id="edge18" class="edge">
<title>Node3&#45;&gt;Node7</title>
<path fill="none" stroke="#191970" d="M293.441,-112.2076C284.9991,-103.6048 273.8094,-90.2634 269,-76 263.8577,-60.7492 267.2375,-42.6221 271.4065,-29.2275"/>
<polygon fill="#191970" stroke="#191970" points="274.7604,-30.24 274.7714,-19.6452 268.1558,-27.9207 274.7604,-30.24"/>
</g>
<!-- Node15 -->
<g id="node16" class="node">
<title>Node15</title>
<polygon fill="none" stroke="#bfbfbf" points="901,-56.5 901,-75.5 945,-75.5 945,-56.5 901,-56.5"/>
<text text-anchor="middle" x="923" y="-63.5" font-family="FreeSans.ttf" font-size="10.00" fill="#000000">string</text>
</g>
<!-- Node3&#45;&gt;Node15 -->
<g id="edge16" class="edge">
<title>Node3&#45;&gt;Node15</title>
<path fill="none" stroke="#191970" d="M384.6059,-114.7077C522.3772,-102.2437 797.3406,-77.3682 890.9414,-68.9003"/>
<polygon fill="#191970" stroke="#191970" points="891.2931,-72.3829 900.9371,-67.996 890.6624,-65.4113 891.2931,-72.3829"/>
</g>
<!-- Node16 -->
<g id="node17" class="node">
<title>Node16</title>
<polygon fill="none" stroke="#bfbfbf" points="278,-56.5 278,-75.5 334,-75.5 334,-56.5 278,-56.5"/>
<text text-anchor="middle" x="306" y="-63.5" font-family="FreeSans.ttf" font-size="10.00" fill="#000000">sstream</text>
</g>
<!-- Node3&#45;&gt;Node16 -->
<g id="edge17" class="edge">
<title>Node3&#45;&gt;Node16</title>
<path fill="none" stroke="#191970" d="M304.3484,-112.2455C304.6093,-104.9382 304.9752,-94.6944 305.2963,-85.7046"/>
<polygon fill="#191970" stroke="#191970" points="308.7964,-85.7613 305.6556,-75.6427 301.8008,-85.5113 308.7964,-85.7613"/>
</g>
<!-- Node17 -->
<g id="node18" class="node">
<title>Node17</title>
<polygon fill="none" stroke="#bfbfbf" points="352,-56.5 352,-75.5 402,-75.5 402,-56.5 352,-56.5"/>
<text text-anchor="middle" x="377" y="-63.5" font-family="FreeSans.ttf" font-size="10.00" fill="#000000">cstring</text>
</g>
<!-- Node3&#45;&gt;Node17 -->
<g id="edge19" class="edge">
<title>Node3&#45;&gt;Node17</title>
<path fill="none" stroke="#191970" d="M316.7156,-112.2455C327.602,-103.8943 343.4883,-91.7076 356.22,-81.9408"/>
<polygon fill="#191970" stroke="#191970" points="358.6261,-84.5063 364.4301,-75.6427 354.3654,-78.9523 358.6261,-84.5063"/>
</g>
<!-- Node5 -->
<g id="node6" class="node">
<title>Node5</title>
<polygon fill="none" stroke="#bfbfbf" points="173.5,-.5 173.5,-19.5 226.5,-19.5 226.5,-.5 173.5,-.5"/>
<text text-anchor="middle" x="200" y="-7.5" font-family="FreeSans.ttf" font-size="10.00" fill="#000000">cstddef</text>
</g>
<!-- Node4&#45;&gt;Node5 -->
<g id="edge5" class="edge">
<title>Node4&#45;&gt;Node5</title>
<path fill="none" stroke="#191970" d="M168.6191,-56.2455C173.9046,-48.4564 181.4541,-37.3308 187.8238,-27.9439"/>
<polygon fill="#191970" stroke="#191970" points="190.7379,-29.8827 193.4568,-19.6427 184.9455,-25.9522 190.7379,-29.8827"/>
</g>
<!-- Node6&#45;&gt;Node5 -->
<g id="edge10" class="edge">
<title>Node6&#45;&gt;Node5</title>
<path fill="none" stroke="#191970" d="M458.4651,-56.903C402.6236,-48.2675 317.4949,-34.486 244,-20 241.6654,-19.5399 239.2654,-19.0481 236.8484,-18.5388"/>
<polygon fill="#191970" stroke="#191970" points="237.4558,-15.0891 226.9401,-16.3815 235.9665,-21.9289 237.4558,-15.0891"/>
</g>
<!-- Node6&#45;&gt;Node7 -->
<g id="edge7" class="edge">
<title>Node6&#45;&gt;Node7</title>
<path fill="none" stroke="#191970" d="M472.8183,-56.4315C433.3482,-48.0751 374.8301,-35.2658 315.281,-20.2298"/>
<polygon fill="#191970" stroke="#191970" points="315.8834,-16.7716 305.3292,-17.6983 314.1577,-23.5556 315.8834,-16.7716"/>
</g>
<!-- Node8 -->
<g id="node9" class="node">
<title>Node8</title>
<polygon fill="none" stroke="#bfbfbf" points="691,-.5 691,-19.5 755,-19.5 755,-.5 691,-.5"/>
<text text-anchor="middle" x="723" y="-7.5" font-family="FreeSans.ttf" font-size="10.00" fill="#000000">algorithm</text>
</g>
<!-- Node6&#45;&gt;Node8 -->
<g id="edge8" class="edge">
<title>Node6&#45;&gt;Node8</title>
<path fill="none" stroke="#191970" d="M554.0689,-56.3733C589.1604,-46.7403 643.175,-31.9128 680.6408,-21.628"/>
<polygon fill="#191970" stroke="#191970" points="682.0231,-24.8781 690.7398,-18.8557 680.17,-18.1278 682.0231,-24.8781"/>
</g>
<!-- Node9 -->
<g id="node10" class="node">
<title>Node9</title>
<polygon fill="none" stroke="#bfbfbf" points="773,-.5 773,-19.5 815,-19.5 815,-.5 773,-.5"/>
<text text-anchor="middle" x="794" y="-7.5" font-family="FreeSans.ttf" font-size="10.00" fill="#000000">array</text>
</g>
<!-- Node6&#45;&gt;Node9 -->
<g id="edge9" class="edge">
<title>Node6&#45;&gt;Node9</title>
<path fill="none" stroke="#191970" d="M579.6653,-56.9699C627.2176,-49.3552 695.1614,-37.2982 762.8233,-20.0463"/>
<polygon fill="#191970" stroke="#191970" points="763.998,-23.3577 772.8017,-17.4632 762.2436,-16.5811 763.998,-23.3577"/>
</g>
<!-- Node10 -->
<g id="node11" class="node">
<title>Node10</title>
<polygon fill="none" stroke="#bfbfbf" points="323.5,-.5 323.5,-19.5 376.5,-19.5 376.5,-.5 323.5,-.5"/>
<text text-anchor="middle" x="350" y="-7.5" font-family="FreeSans.ttf" font-size="10.00" fill="#000000">iterator</text>
</g>
<!-- Node6&#45;&gt;Node10 -->
<g id="edge11" class="edge">
<title>Node6&#45;&gt;Node10</title>
<path fill="none" stroke="#191970" d="M489.9479,-56.3733C461.2496,-46.8638 417.2744,-32.2921 386.2921,-22.0258"/>
<polygon fill="#191970" stroke="#191970" points="387.3187,-18.6789 376.7254,-18.8557 385.1169,-25.3236 387.3187,-18.6789"/>
</g>
<!-- Node11 -->
<g id="node12" class="node">
<title>Node11</title>
<polygon fill="none" stroke="#bfbfbf" points="395,-.5 395,-19.5 439,-19.5 439,-.5 395,-.5"/>
<text text-anchor="middle" x="417" y="-7.5" font-family="FreeSans.ttf" font-size="10.00" fill="#000000">limits</text>
</g>
<!-- Node6&#45;&gt;Node11 -->
<g id="edge12" class="edge">
<title>Node6&#45;&gt;Node11</title>
<path fill="none" stroke="#191970" d="M501.233,-56.2455C485.2905,-47.4928 461.6741,-34.527 443.5011,-24.5496"/>
<polygon fill="#191970" stroke="#191970" points="445.0137,-21.3873 434.5634,-19.6427 441.6448,-27.5233 445.0137,-21.3873"/>
</g>
<!-- Node12 -->
<g id="node13" class="node">
<title>Node12</title>
<polygon fill="none" stroke="#bfbfbf" points="457.5,-.5 457.5,-19.5 522.5,-19.5 522.5,-.5 457.5,-.5"/>
<text text-anchor="middle" x="490" y="-7.5" font-family="FreeSans.ttf" font-size="10.00" fill="#000000">stdexcept</text>
</g>
<!-- Node6&#45;&gt;Node12 -->
<g id="edge13" class="edge">
<title>Node6&#45;&gt;Node12</title>
<path fill="none" stroke="#191970" d="M513.9486,-56.2455C509.9981,-48.617 504.3903,-37.7881 499.5942,-28.5267"/>
<polygon fill="#191970" stroke="#191970" points="502.7001,-26.9131 494.9935,-19.6427 496.4841,-30.1321 502.7001,-26.9131"/>
</g>
<!-- Node13 -->
<g id="node14" class="node">
<title>Node13</title>
<polygon fill="none" stroke="#bfbfbf" points="540.5,-.5 540.5,-19.5 609.5,-19.5 609.5,-.5 540.5,-.5"/>
<text text-anchor="middle" x="575" y="-7.5" font-family="FreeSans.ttf" font-size="10.00" fill="#000000">type_traits</text>
</g>
<!-- Node6&#45;&gt;Node13 -->
<g id="edge14" class="edge">
<title>Node6&#45;&gt;Node13</title>
<path fill="none" stroke="#191970" d="M528.7545,-56.2455C536.8648,-48.1352 548.5925,-36.4075 558.2081,-26.7919"/>
<polygon fill="#191970" stroke="#191970" points="560.7611,-29.1887 565.3573,-19.6427 555.8113,-24.2389 560.7611,-29.1887"/>
</g>
<!-- Node14 -->
<g id="node15" class="node">
<title>Node14</title>
<polygon fill="none" stroke="#bfbfbf" points="627.5,-.5 627.5,-19.5 672.5,-19.5 672.5,-.5 627.5,-.5"/>
<text text-anchor="middle" x="650" y="-7.5" font-family="FreeSans.ttf" font-size="10.00" fill="#000000">utility</text>
</g>
<!-- Node6&#45;&gt;Node14 -->
<g id="edge15" class="edge">
<title>Node6&#45;&gt;Node14</title>
<path fill="none" stroke="#191970" d="M541.5197,-56.3733C562.7372,-47.3032 594.7276,-33.6279 618.4769,-23.4755"/>
<polygon fill="#191970" stroke="#191970" points="619.9548,-26.6502 627.7742,-19.5011 617.2033,-20.2136 619.9548,-26.6502"/>
</g>
<!-- Node18&#45;&gt;Node3 -->
<g id="edge33" class="edge">
<title>Node18&#45;&gt;Node3</title>
<path fill="none" stroke="#191970" d="M635.7226,-224.4132C597.8182,-211.1942 526.9926,-186.8652 466,-168 426.7653,-155.8645 381.8125,-143.1971 349.2295,-134.2352"/>
<polygon fill="#191970" stroke="#191970" points="350.1042,-130.8459 339.5347,-131.5775 348.2535,-137.5968 350.1042,-130.8459"/>
</g>
<!-- Node18&#45;&gt;Node15 -->
<g id="edge21" class="edge">
<title>Node18&#45;&gt;Node15</title>
<path fill="none" stroke="#191970" d="M731.7042,-226.9901C807.9216,-218.507 921.9585,-203.4322 935,-188 959.4974,-159.0118 944.0424,-111.2099 932.409,-84.8717"/>
<polygon fill="#191970" stroke="#191970" points="935.486,-83.1889 928.0806,-75.6118 929.1445,-86.1531 935.486,-83.1889"/>
</g>
<!-- Node19 -->
<g id="node20" class="node">
<title>Node19</title>
<g id="a_node20"><a xlink:href="GeomVector3_8h.html" target="_top" xlink:title="iDynTree/Core/GeomVector3.h">
<polygon fill="none" stroke="#000000" points="183.5,-168.5 183.5,-187.5 346.5,-187.5 346.5,-168.5 183.5,-168.5"/>
<text text-anchor="middle" x="265" y="-175.5" font-family="FreeSans.ttf" font-size="10.00" fill="#000000">iDynTree/Core/GeomVector3.h</text>
</a>
</g>
</g>
<!-- Node18&#45;&gt;Node19 -->
<g id="edge22" class="edge">
<title>Node18&#45;&gt;Node19</title>
<path fill="none" stroke="#191970" d="M595.0336,-224.4369C525.0587,-214.5912 416.1722,-199.2705 342.7963,-188.9462"/>
<polygon fill="#191970" stroke="#191970" points="343.0762,-185.4512 332.6861,-187.5237 342.1009,-192.3829 343.0762,-185.4512"/>
</g>
<!-- Node20 -->
<g id="node21" class="node">
<title>Node20</title>
<g id="a_node21"><a xlink:href="RotationRaw_8h.html" target="_top" xlink:title="iDynTree/Core/RotationRaw.h">
<polygon fill="none" stroke="#000000" points="768,-168.5 768,-187.5 926,-187.5 926,-168.5 768,-168.5"/>
<text text-anchor="middle" x="847" y="-175.5" font-family="FreeSans.ttf" font-size="10.00" fill="#000000">iDynTree/Core/RotationRaw.h</text>
</a>
</g>
</g>
<!-- Node18&#45;&gt;Node20 -->
<g id="edge24" class="edge">
<title>Node18&#45;&gt;Node20</title>
<path fill="none" stroke="#191970" d="M694.6307,-224.3733C725.3596,-215.021 772.176,-200.7725 805.8022,-190.5385"/>
<polygon fill="#191970" stroke="#191970" points="807.2344,-193.7612 815.782,-187.5011 805.1962,-187.0644 807.2344,-193.7612"/>
</g>
<!-- Node19&#45;&gt;Node3 -->
<g id="edge23" class="edge">
<title>Node19&#45;&gt;Node3</title>
<path fill="none" stroke="#191970" d="M271.7933,-168.2455C277.2178,-160.4564 284.9661,-149.3308 291.5033,-139.9439"/>
<polygon fill="#191970" stroke="#191970" points="294.4417,-141.849 297.2846,-131.6427 288.6975,-137.8485 294.4417,-141.849"/>
</g>
<!-- Node20&#45;&gt;Node15 -->
<g id="edge32" class="edge">
<title>Node20&#45;&gt;Node15</title>
<path fill="none" stroke="#191970" d="M861.5962,-168.2204C873.1506,-159.8168 888.962,-146.7464 899,-132 908.6362,-117.8439 914.9229,-99.3544 918.635,-85.5476"/>
<polygon fill="#191970" stroke="#191970" points="922.0793,-86.1982 921.0748,-75.6511 915.2828,-84.5226 922.0793,-86.1982"/>
</g>
<!-- Node21 -->
<g id="node22" class="node">
<title>Node21</title>
<g id="a_node22"><a xlink:href="MatrixFixSize_8h.html" target="_top" xlink:title="iDynTree/Core/MatrixFixSize.h">
<polygon fill="none" stroke="#000000" points="441.5,-112.5 441.5,-131.5 602.5,-131.5 602.5,-112.5 441.5,-112.5"/>
<text text-anchor="middle" x="522" y="-119.5" font-family="FreeSans.ttf" font-size="10.00" fill="#000000">iDynTree/Core/MatrixFixSize.h</text>
</a>
</g>
</g>
<!-- Node20&#45;&gt;Node21 -->
<g id="edge25" class="edge">
<title>Node20&#45;&gt;Node21</title>
<path fill="none" stroke="#191970" d="M791.4998,-168.4369C734.9437,-158.6918 647.2596,-143.5832 587.3741,-133.2645"/>
<polygon fill="#191970" stroke="#191970" points="587.7204,-129.7726 577.2713,-131.5237 586.5317,-136.671 587.7204,-129.7726"/>
</g>
<!-- Node21&#45;&gt;Node4 -->
<g id="edge26" class="edge">
<title>Node21&#45;&gt;Node4</title>
<path fill="none" stroke="#191970" d="M460.5228,-112.4369C397.0103,-102.5572 298.0577,-87.1645 231.6818,-76.8394"/>
<polygon fill="#191970" stroke="#191970" points="232.1455,-73.3695 221.7264,-75.2908 231.0695,-80.2863 232.1455,-73.3695"/>
</g>
<!-- Node21&#45;&gt;Node7 -->
<g id="edge27" class="edge">
<title>Node21&#45;&gt;Node7</title>
<path fill="none" stroke="#191970" d="M506.7091,-112.3871C481.0122,-96.3213 430.1043,-64.898 411,-56 379.496,-41.3268 341.9326,-28.6754 314.9473,-20.3754"/>
<polygon fill="#191970" stroke="#191970" points="315.7426,-16.9594 305.1575,-17.4122 313.7147,-23.6592 315.7426,-16.9594"/>
</g>
<!-- Node21&#45;&gt;Node15 -->
<g id="edge29" class="edge">
<title>Node21&#45;&gt;Node15</title>
<path fill="none" stroke="#191970" d="M590.4787,-112.4369C677.9917,-100.2156 825.9105,-79.5586 890.8278,-70.4929"/>
<polygon fill="#191970" stroke="#191970" points="891.4535,-73.9396 900.8732,-69.09 890.4852,-67.0068 891.4535,-73.9396"/>
</g>
<!-- Node21&#45;&gt;Node16 -->
<g id="edge31" class="edge">
<title>Node21&#45;&gt;Node16</title>
<path fill="none" stroke="#191970" d="M484.25,-112.4438C450.0526,-103.7547 398.0232,-90.4547 344.0177,-76.2479"/>
<polygon fill="#191970" stroke="#191970" points="344.8339,-72.8435 334.2721,-73.6799 343.0502,-79.6125 344.8339,-72.8435"/>
</g>
<!-- Node21&#45;&gt;Node17 -->
<g id="edge28" class="edge">
<title>Node21&#45;&gt;Node17</title>
<path fill="none" stroke="#191970" d="M497.0736,-112.3733C473.3798,-103.2226 437.5489,-89.3844 411.1932,-79.2057"/>
<polygon fill="#191970" stroke="#191970" points="412.1906,-75.8389 401.6011,-75.5011 409.6686,-82.3689 412.1906,-75.8389"/>
</g>
<!-- Node21&#45;&gt;Node22 -->
<g id="edge30" class="edge">
<title>Node21&#45;&gt;Node22</title>
<path fill="none" stroke="#191970" d="M540.4638,-112.2455C557.1074,-103.4527 581.7993,-90.4079 600.7192,-80.4125"/>
<polygon fill="#191970" stroke="#191970" points="602.5408,-83.4086 609.7478,-75.6427 599.2709,-77.2193 602.5408,-83.4086"/>
</g>
<!-- Node23&#45;&gt;Node3 -->
<g id="edge40" class="edge">
<title>Node23&#45;&gt;Node3</title>
<path fill="none" stroke="#191970" d="M445.166,-475.4221C336.9711,-468.56 155.9277,-454.2188 133,-434 106.5626,-410.6862 114,-392.2487 114,-357 114,-357 114,-357 114,-234 114,-176.2347 179.9818,-147.6568 234.1794,-133.9265"/>
<polygon fill="#191970" stroke="#191970" points="235.2383,-137.2718 244.1436,-131.5319 233.6026,-130.4656 235.2383,-137.2718"/>
</g>
<!-- Node23&#45;&gt;Node4 -->
<g id="edge68" class="edge">
<title>Node23&#45;&gt;Node4</title>
<path fill="none" stroke="#191970" d="M445.2525,-477.7247C297.8044,-471.36 0,-447.3247 0,-357 0,-357 0,-357 0,-178 0,-123.4141 63.0004,-93.3532 110.4256,-78.4571"/>
<polygon fill="#191970" stroke="#191970" points="111.7057,-81.7274 120.281,-75.5052 109.6972,-75.0217 111.7057,-81.7274"/>
</g>
<!-- Node23&#45;&gt;Node21 -->
<g id="edge43" class="edge">
<title>Node23&#45;&gt;Node21</title>
<path fill="none" stroke="#191970" d="M521.9113,-470.3428C518.259,-461.1787 513.1619,-446.9244 511,-434 492.7079,-324.6442 510.6735,-190.8344 518.6311,-141.4797"/>
<polygon fill="#191970" stroke="#191970" points="522.0969,-141.9741 520.2866,-131.5351 515.1919,-140.8245 522.0969,-141.9741"/>
</g>
<!-- Node24 -->
<g id="node25" class="node">
<title>Node24</title>
<polygon fill="none" stroke="#bfbfbf" points="520.5,-409 520.5,-428 597.5,-428 597.5,-409 520.5,-409"/>
<text text-anchor="middle" x="559" y="-416" font-family="FreeSans.ttf" font-size="10.00" fill="#000000">Eigen/Dense</text>
</g>
<!-- Node23&#45;&gt;Node24 -->
<g id="edge36" class="edge">
<title>Node23&#45;&gt;Node24</title>
<path fill="none" stroke="#191970" d="M531.1563,-470.3906C535.9232,-461.5068 543.1385,-448.0601 549.0297,-437.0811"/>
<polygon fill="#191970" stroke="#191970" points="552.1269,-438.7114 553.7711,-428.2449 545.9588,-435.4016 552.1269,-438.7114"/>
</g>
<!-- Node25 -->
<g id="node26" class="node">
<title>Node25</title>
<g id="a_node26"><a xlink:href="VectorDynSize_8h.html" target="_top" xlink:title="iDynTree/Core/VectorDynSize.h">
<polygon fill="none" stroke="#000000" points="690.5,-112.5 690.5,-131.5 857.5,-131.5 857.5,-112.5 690.5,-112.5"/>
<text text-anchor="middle" x="774" y="-119.5" font-family="FreeSans.ttf" font-size="10.00" fill="#000000">iDynTree/Core/VectorDynSize.h</text>
</a>
</g>
</g>
<!-- Node23&#45;&gt;Node25 -->
<g id="edge37" class="edge">
<title>Node23&#45;&gt;Node25</title>
<path fill="none" stroke="#191970" d="M570.7032,-470.4646C612.4966,-461.4441 676.6003,-447.3373 732,-434 785.5541,-421.107 798.5913,-416.4828 852,-403 916.7995,-386.6416 940.2467,-400.6321 998,-367 1027.6131,-349.7551 1038.3229,-342.8373 1051,-311 1080.1114,-237.8898 956.5594,-168.9679 955,-168 927.7817,-151.1048 894.6108,-140.399 864.1369,-133.6216"/>
<polygon fill="#191970" stroke="#191970" points="864.8557,-130.1962 854.3485,-131.5563 863.4105,-137.0454 864.8557,-130.1962"/>
</g>
<!-- Node26 -->
<g id="node27" class="node">
<title>Node26</title>
<g id="a_node27"><a xlink:href="MatrixDynSize_8h.html" target="_top" xlink:title="iDynTree/Core/MatrixDynSize.h">
<polygon fill="none" stroke="#000000" points="1133.5,-224.5 1133.5,-243.5 1300.5,-243.5 1300.5,-224.5 1133.5,-224.5"/>
<text text-anchor="middle" x="1217" y="-231.5" font-family="FreeSans.ttf" font-size="10.00" fill="#000000">iDynTree/Core/MatrixDynSize.h</text>
</a>
</g>
</g>
<!-- Node23&#45;&gt;Node26 -->
<g id="edge41" class="edge">
<title>Node23&#45;&gt;Node26</title>
<path fill="none" stroke="#191970" d="M606.3891,-470.4927C742.7698,-453.3081 1012.6981,-414.4204 1095,-367 1145.2473,-338.0487 1186.607,-281.4432 1205.667,-252.3014"/>
<polygon fill="#191970" stroke="#191970" points="1208.8229,-253.8626 1211.2565,-243.551 1202.9237,-250.0943 1208.8229,-253.8626"/>
</g>
<!-- Node27 -->
<g id="node28" class="node">
<title>Node27</title>
<g id="a_node28"><a xlink:href="SpatialMotionVector_8h.html" target="_top" xlink:title="iDynTree/Core/SpatialMotion\lVector.h">
<polygon fill="none" stroke="#000000" points="142.5,-403.5 142.5,-433.5 297.5,-433.5 297.5,-403.5 142.5,-403.5"/>
<text text-anchor="start" x="150.5" y="-421.5" font-family="FreeSans.ttf" font-size="10.00" fill="#000000">iDynTree/Core/SpatialMotion</text>
<text text-anchor="middle" x="220" y="-410.5" font-family="FreeSans.ttf" font-size="10.00" fill="#000000">Vector.h</text>
</a>
</g>
</g>
<!-- Node23&#45;&gt;Node27 -->
<g id="edge44" class="edge">
<title>Node23&#45;&gt;Node27</title>
<path fill="none" stroke="#191970" d="M478.5232,-470.4581C432.2023,-461.1485 360.7217,-446.7823 304.6539,-435.5138"/>
<polygon fill="#191970" stroke="#191970" points="305.2239,-432.0584 294.7302,-433.5193 303.8445,-438.9212 305.2239,-432.0584"/>
</g>
<!-- Node31 -->
<g id="node32" class="node">
<title>Node31</title>
<g id="a_node32"><a xlink:href="SpatialForceVector_8h.html" target="_top" xlink:title="iDynTree/Core/SpatialForce\lVector.h">
<polygon fill="none" stroke="#000000" points="316,-403.5 316,-433.5 464,-433.5 464,-403.5 316,-403.5"/>
<text text-anchor="start" x="324" y="-421.5" font-family="FreeSans.ttf" font-size="10.00" fill="#000000">iDynTree/Core/SpatialForce</text>
<text text-anchor="middle" x="390" y="-410.5" font-family="FreeSans.ttf" font-size="10.00" fill="#000000">Vector.h</text>
</a>
</g>
</g>
<!-- Node23&#45;&gt;Node31 -->
<g id="edge59" class="edge">
<title>Node23&#45;&gt;Node31</title>
<path fill="none" stroke="#191970" d="M504.75,-470.3906C485.4919,-461.682 456.5378,-448.5888 432.5329,-437.7336"/>
<polygon fill="#191970" stroke="#191970" points="433.8232,-434.4759 423.2693,-433.5446 430.9389,-440.8541 433.8232,-434.4759"/>
</g>
<!-- Node32 -->
<g id="node33" class="node">
<title>Node32</title>
<g id="a_node33"><a xlink:href="Transform_8h.html" target="_top" xlink:title="iDynTree/Core/Transform.h">
<polygon fill="none" stroke="#000000" points="843,-347.5 843,-366.5 989,-366.5 989,-347.5 843,-347.5"/>
<text text-anchor="middle" x="916" y="-354.5" font-family="FreeSans.ttf" font-size="10.00" fill="#000000">iDynTree/Core/Transform.h</text>
</a>
</g>
</g>
<!-- Node23&#45;&gt;Node32 -->
<g id="edge63" class="edge">
<title>Node23&#45;&gt;Node32</title>
<path fill="none" stroke="#191970" d="M554.7557,-470.4308C599.2827,-455.6646 687.6441,-426.5662 763,-403 800.2221,-391.3595 842.7111,-378.6292 873.4529,-369.5179"/>
<polygon fill="#191970" stroke="#191970" points="874.8076,-372.7671 883.4035,-366.5735 872.8213,-366.0548 874.8076,-372.7671"/>
</g>
<!-- Node25&#45;&gt;Node6 -->
<g id="edge38" class="edge">
<title>Node25&#45;&gt;Node6</title>
<path fill="none" stroke="#191970" d="M730.4537,-112.4369C686.7207,-102.8328 619.2655,-88.0191 572.3458,-77.7152"/>
<polygon fill="#191970" stroke="#191970" points="572.8847,-74.2502 562.3667,-75.5237 571.3832,-81.0872 572.8847,-74.2502"/>
</g>
<!-- Node25&#45;&gt;Node15 -->
<g id="edge39" class="edge">
<title>Node25&#45;&gt;Node15</title>
<path fill="none" stroke="#191970" d="M799.614,-112.3733C824.9579,-102.848 863.8156,-88.2438 891.1385,-77.9748"/>
<polygon fill="#191970" stroke="#191970" points="892.5072,-81.1995 900.6365,-74.4051 890.0445,-74.647 892.5072,-81.1995"/>
</g>
<!-- Node26&#45;&gt;Node15 -->
<g id="edge42" class="edge">
<title>Node26&#45;&gt;Node15</title>
<path fill="none" stroke="#191970" d="M1209.2405,-224.4905C1190.0846,-201.6352 1138.0223,-143.2071 1082,-112 1041.3388,-89.3498 988.4814,-76.9469 955.1377,-70.8915"/>
<polygon fill="#191970" stroke="#191970" points="955.4881,-67.4002 945.0377,-69.1436 954.2943,-74.2977 955.4881,-67.4002"/>
</g>
<!-- Node27&#45;&gt;Node3 -->
<g id="edge45" class="edge">
<title>Node27&#45;&gt;Node3</title>
<path fill="none" stroke="#191970" d="M204.9086,-403.2984C184.8752,-381.4321 152,-338.9324 152,-295.5 152,-295.5 152,-295.5 152,-234 152,-203.08 152.3377,-190.0634 174,-168 189.9268,-151.7783 211.9245,-141.2617 233.298,-134.4498"/>
<polygon fill="#191970" stroke="#191970" points="234.4489,-137.7595 243.0503,-131.5735 232.4686,-131.0454 234.4489,-137.7595"/>
</g>
<!-- Node27&#45;&gt;Node19 -->
<g id="edge46" class="edge">
<title>Node27&#45;&gt;Node19</title>
<path fill="none" stroke="#191970" d="M214.9279,-403.4251C210.7077,-388.948 205.8588,-366.4662 209,-347 218.0736,-290.7701 243.1003,-227.9255 256.412,-197.1238"/>
<polygon fill="#191970" stroke="#191970" points="259.7658,-198.1915 260.5866,-187.6285 253.3578,-195.3742 259.7658,-198.1915"/>
</g>
<!-- Node28 -->
<g id="node29" class="node">
<title>Node28</title>
<g id="a_node29"><a xlink:href="SpatialVector_8h.html" target="_top" xlink:title="iDynTree/Core/SpatialVector.h">
<polygon fill="none" stroke="#000000" points="218.5,-347.5 218.5,-366.5 379.5,-366.5 379.5,-347.5 218.5,-347.5"/>
<text text-anchor="middle" x="299" y="-354.5" font-family="FreeSans.ttf" font-size="10.00" fill="#000000">iDynTree/Core/SpatialVector.h</text>
</a>
</g>
</g>
<!-- Node27&#45;&gt;Node28 -->
<g id="edge47" class="edge">
<title>Node27&#45;&gt;Node28</title>
<path fill="none" stroke="#191970" d="M239.5281,-403.2977C251.2937,-394.1384 266.2675,-382.4816 278.2465,-373.1562"/>
<polygon fill="#191970" stroke="#191970" points="280.6103,-375.7516 286.3511,-366.8469 276.3102,-370.228 280.6103,-375.7516"/>
</g>
<!-- Node28&#45;&gt;Node4 -->
<g id="edge55" class="edge">
<title>Node28&#45;&gt;Node4</title>
<path fill="none" stroke="#191970" d="M228.3457,-347.4805C176.2023,-339.3786 110.5536,-326.588 88,-311 54.4329,-287.8 38,-274.8043 38,-234 38,-234 38,-234 38,-178 38,-129.6674 90.5232,-96.8067 127.2026,-79.7513"/>
<polygon fill="#191970" stroke="#191970" points="128.8996,-82.8269 136.6075,-75.5579 126.0489,-76.4336 128.8996,-82.8269"/>
</g>
<!-- Node28&#45;&gt;Node16 -->
<g id="edge58" class="edge">
<title>Node28&#45;&gt;Node16</title>
<path fill="none" stroke="#191970" d="M226.29,-347.4994C161.2143,-334.4346 76,-303.9686 76,-234 76,-234 76,-234 76,-178 76,-135.8421 202.4854,-94.618 267.8589,-76.1269"/>
<polygon fill="#191970" stroke="#191970" points="269.1039,-79.4134 277.7975,-73.3577 267.225,-72.6702 269.1039,-79.4134"/>
</g>
<!-- Node28&#45;&gt;Node18 -->
<g id="edge54" class="edge">
<title>Node28&#45;&gt;Node18</title>
<path fill="none" stroke="#191970" d="M379.6891,-350.8532C474.8364,-342.8875 622.587,-327.9898 642,-311 658.2429,-296.7846 662.4939,-271.358 663.3328,-253.6281"/>
<polygon fill="#191970" stroke="#191970" points="666.834,-253.5702 663.4872,-243.5179 659.8348,-253.4632 666.834,-253.5702"/>
</g>
<!-- Node28&#45;&gt;Node19 -->
<g id="edge56" class="edge">
<title>Node28&#45;&gt;Node19</title>
<path fill="none" stroke="#191970" d="M297.172,-347.3762C291.7989,-319.0883 275.9785,-235.7987 268.7185,-197.5767"/>
<polygon fill="#191970" stroke="#191970" points="272.1417,-196.8426 266.837,-187.6714 265.2647,-198.1489 272.1417,-196.8426"/>
</g>
<!-- Node28&#45;&gt;Node22 -->
<g id="edge57" class="edge">
<title>Node28&#45;&gt;Node22</title>
<path fill="none" stroke="#191970" d="M301.183,-347.4002C310.1085,-310.4533 347.4373,-176.3018 432,-112 488.6403,-68.9305 518.815,-92.6296 588,-76 588.1,-75.976 588.2002,-75.9519 588.3006,-75.9277"/>
<polygon fill="#191970" stroke="#191970" points="588.9871,-79.3629 597.8735,-73.5939 587.329,-72.5621 588.9871,-79.3629"/>
</g>
<!-- Node29 -->
<g id="node30" class="node">
<title>Node29</title>
<g id="a_node30"><a xlink:href="Position_8h.html" target="_top" xlink:title="Position.h">
<polygon fill="none" stroke="#000000" points="728.5,-286 728.5,-305 793.5,-305 793.5,-286 728.5,-286"/>
<text text-anchor="middle" x="761" y="-293" font-family="FreeSans.ttf" font-size="10.00" fill="#000000">Position.h</text>
</a>
</g>
</g>
<!-- Node28&#45;&gt;Node29 -->
<g id="edge48" class="edge">
<title>Node28&#45;&gt;Node29</title>
<path fill="none" stroke="#191970" d="M379.7165,-348.5446C456.1808,-340.2054 574.1444,-326.4871 676,-311 689.8265,-308.8977 704.8562,-306.2708 718.3788,-303.7802"/>
<polygon fill="#191970" stroke="#191970" points="719.1929,-307.1888 728.3809,-301.9132 717.9084,-300.3077 719.1929,-307.1888"/>
</g>
<!-- Node29&#45;&gt;Node15 -->
<g id="edge53" class="edge">
<title>Node29&#45;&gt;Node15</title>
<path fill="none" stroke="#191970" d="M793.6215,-287.6809C838.3493,-275.065 917.3345,-245.5887 954,-188 972.1659,-159.4676 968.8072,-144.0516 958,-112 954.4305,-101.4138 947.3465,-91.3356 940.4798,-83.3256"/>
<polygon fill="#191970" stroke="#191970" points="942.9019,-80.7886 933.559,-75.7924 937.747,-85.5244 942.9019,-80.7886"/>
</g>
<!-- Node29&#45;&gt;Node18 -->
<g id="edge52" class="edge">
<title>Node29&#45;&gt;Node18</title>
<path fill="none" stroke="#191970" d="M745.6875,-285.8906C729.9376,-276.0067 705.1877,-260.4749 686.8663,-248.9773"/>
<polygon fill="#191970" stroke="#191970" points="688.5357,-245.8929 678.205,-243.5419 684.8148,-251.8221 688.5357,-245.8929"/>
</g>
<!-- Node30 -->
<g id="node31" class="node">
<title>Node30</title>
<g id="a_node31"><a xlink:href="PositionRaw_8h.html" target="_top" xlink:title="iDynTree/Core/PositionRaw.h">
<polygon fill="none" stroke="#000000" points="594,-168.5 594,-187.5 750,-187.5 750,-168.5 594,-168.5"/>
<text text-anchor="middle" x="672" y="-175.5" font-family="FreeSans.ttf" font-size="10.00" fill="#000000">iDynTree/Core/PositionRaw.h</text>
</a>
</g>
</g>
<!-- Node29&#45;&gt;Node30 -->
<g id="edge49" class="edge">
<title>Node29&#45;&gt;Node30</title>
<path fill="none" stroke="#191970" d="M760.2318,-285.7972C758.6433,-271.131 753.8884,-243.0142 740,-224 730.3005,-210.7207 715.5319,-200.0676 702.2335,-192.3708"/>
<polygon fill="#191970" stroke="#191970" points="703.7968,-189.2367 693.3422,-187.5186 700.4435,-195.3813 703.7968,-189.2367"/>
</g>
<!-- Node30&#45;&gt;Node3 -->
<g id="edge50" class="edge">
<title>Node30&#45;&gt;Node3</title>
<path fill="none" stroke="#191970" d="M609.1567,-168.4369C544.7209,-158.6314 444.6002,-143.3957 376.7664,-133.0731"/>
<polygon fill="#191970" stroke="#191970" points="376.9969,-129.568 366.5841,-131.5237 375.9437,-136.4883 376.9969,-129.568"/>
</g>
<!-- Node30&#45;&gt;Node15 -->
<g id="edge51" class="edge">
<title>Node30&#45;&gt;Node15</title>
<path fill="none" stroke="#191970" d="M729.0012,-168.4989C777.6405,-159.6685 843.2169,-145.8317 866,-132 885.5056,-120.1581 901.801,-99.3829 911.905,-84.298"/>
<polygon fill="#191970" stroke="#191970" points="914.9204,-86.0795 917.3695,-75.7716 909.0269,-82.3023 914.9204,-86.0795"/>
</g>
<!-- Node31&#45;&gt;Node3 -->
<g id="edge60" class="edge">
<title>Node31&#45;&gt;Node3</title>
<path fill="none" stroke="#191970" d="M396.3081,-403.2669C401.5287,-388.8654 407.6864,-366.6029 405,-347 393.785,-265.164 398.5009,-238.2181 355,-168 347.7393,-156.28 336.6335,-145.7631 326.6371,-137.7533"/>
<polygon fill="#191970" stroke="#191970" points="328.6869,-134.915 318.6099,-131.6434 324.4473,-140.4851 328.6869,-134.915"/>
</g>
<!-- Node31&#45;&gt;Node19 -->
<g id="edge61" class="edge">
<title>Node31&#45;&gt;Node19</title>
<path fill="none" stroke="#191970" d="M392.1285,-403.2527C393.6091,-388.4542 394.3311,-365.571 388,-347 366.2726,-283.2669 311.4219,-223.137 282.8799,-194.8702"/>
<polygon fill="#191970" stroke="#191970" points="285.1852,-192.2299 275.5766,-187.766 280.3042,-197.2476 285.1852,-192.2299"/>
</g>
<!-- Node31&#45;&gt;Node28 -->
<g id="edge62" class="edge">
<title>Node31&#45;&gt;Node28</title>
<path fill="none" stroke="#191970" d="M367.5056,-403.2977C353.6033,-393.9022 335.8124,-381.8787 321.8454,-372.4395"/>
<polygon fill="#191970" stroke="#191970" points="323.5436,-369.3629 313.2985,-366.6633 319.624,-375.1626 323.5436,-369.3629"/>
</g>
<!-- Node32&#45;&gt;Node15 -->
<g id="edge67" class="edge">
<title>Node32&#45;&gt;Node15</title>
<path fill="none" stroke="#191970" d="M947.1263,-347.4664C991.5959,-331.6878 1068,-295.6131 1068,-234 1068,-234 1068,-234 1068,-178 1068,-121.1655 997.3651,-89.1071 954.6948,-74.926"/>
<polygon fill="#191970" stroke="#191970" points="955.6126,-71.5453 945.0224,-71.8565 953.4952,-78.2174 955.6126,-71.5453"/>
</g>
<!-- Node32&#45;&gt;Node18 -->
<g id="edge65" class="edge">
<title>Node32&#45;&gt;Node18</title>
<path fill="none" stroke="#191970" d="M854.4254,-347.4455C805.2387,-338.9396 741.0239,-325.6093 719,-311 697.2373,-296.5639 681.0072,-270.6185 671.7697,-252.8684"/>
<polygon fill="#191970" stroke="#191970" points="674.716,-250.9299 667.1499,-243.5133 668.4396,-254.0294 674.716,-250.9299"/>
</g>
<!-- Node32&#45;&gt;Node21 -->
<g id="edge66" class="edge">
<title>Node32&#45;&gt;Node21</title>
<path fill="none" stroke="#191970" d="M921.3926,-347.2249C937.5819,-316.4252 981.8395,-220.3462 935,-168 924.3654,-156.1152 731.3361,-138.6989 612.9849,-129.065"/>
<polygon fill="#191970" stroke="#191970" points="613.0832,-125.5616 602.8332,-128.2428 612.518,-132.5387 613.0832,-125.5616"/>
</g>
<!-- Node32&#45;&gt;Node29 -->
<g id="edge64" class="edge">
<title>Node32&#45;&gt;Node29</title>
<path fill="none" stroke="#191970" d="M891.7813,-347.3906C865.6194,-337.0103 823.7571,-320.4004 794.4612,-308.7766"/>
<polygon fill="#191970" stroke="#191970" points="795.6346,-305.4767 785.0487,-305.0419 793.0529,-311.9833 795.6346,-305.4767"/>
</g>
</g>
</svg>
