<?xml version="1.0" encoding="UTF-8" standalone="no"?>
<!DOCTYPE svg PUBLIC "-//W3C//DTD SVG 1.1//EN"
 "http://www.w3.org/Graphics/SVG/1.1/DTD/svg11.dtd">
<!-- Generated by graphviz version 2.40.1 (20161225.0304)
 -->
<!-- Title: AttitudeEstimatorUtils.h Pages: 1 -->
<svg width="1307pt" height="554pt"
 viewBox="0.00 0.00 1306.50 554.00" xmlns="http://www.w3.org/2000/svg" xmlns:xlink="http://www.w3.org/1999/xlink">
<g id="graph0" class="graph" transform="scale(1 1) rotate(0) translate(4 550)">
<title>AttitudeEstimatorUtils.h</title>
<!-- Node0 -->
<g id="node1" class="node">
<title>Node0</title>
<polygon fill="#bfbfbf" stroke="#000000" points="775,-526.5 775,-545.5 909,-545.5 909,-526.5 775,-526.5"/>
<text text-anchor="middle" x="842" y="-533.5" font-family="FreeSans.ttf" font-size="10.00" fill="#000000">AttitudeEstimatorUtils.h</text>
</g>
<!-- Node1 -->
<g id="node2" class="node">
<title>Node1</title>
<g id="a_node2"><a xlink:href="AttitudeEstimator_8h.html" target="_top" xlink:title="iDynTree/Estimation\l/AttitudeEstimator.h">
<polygon fill="none" stroke="#000000" points="516.5,-280.5 516.5,-310.5 631.5,-310.5 631.5,-280.5 516.5,-280.5"/>
<text text-anchor="start" x="524.5" y="-298.5" font-family="FreeSans.ttf" font-size="10.00" fill="#000000">iDynTree/Estimation</text>
<text text-anchor="middle" x="574" y="-287.5" font-family="FreeSans.ttf" font-size="10.00" fill="#000000">/AttitudeEstimator.h</text>
</a>
</g>
</g>
<!-- Node0&#45;&gt;Node1 -->
<g id="edge1" class="edge">
<title>Node0&#45;&gt;Node1</title>
<path fill="none" stroke="#191970" d="M831.1622,-526.2742C791.6808,-490.8442 654.9198,-368.1164 598.5651,-317.5444"/>
<polygon fill="#191970" stroke="#191970" points="600.6353,-314.6995 590.855,-310.6255 595.96,-319.9093 600.6353,-314.6995"/>
</g>
<!-- Node22 -->
<g id="node23" class="node">
<title>Node22</title>
<g id="a_node23"><a xlink:href="EigenHelpers_8h.html" target="_top" xlink:title="iDynTree/Core/EigenHelpers.h">
<polygon fill="none" stroke="#000000" points="445.5,-470.5 445.5,-489.5 606.5,-489.5 606.5,-470.5 445.5,-470.5"/>
<text text-anchor="middle" x="526" y="-477.5" font-family="FreeSans.ttf" font-size="10.00" fill="#000000">iDynTree/Core/EigenHelpers.h</text>
</a>
</g>
</g>
<!-- Node0&#45;&gt;Node22 -->
<g id="edge34" class="edge">
<title>Node0&#45;&gt;Node22</title>
<path fill="none" stroke="#191970" d="M788.0367,-526.4369C733.1605,-516.712 648.143,-501.6456 589.925,-491.3285"/>
<polygon fill="#191970" stroke="#191970" points="590.1981,-487.8224 579.7407,-489.5237 588.9765,-494.715 590.1981,-487.8224"/>
</g>
<!-- Node32 -->
<g id="node33" class="node">
<title>Node32</title>
<polygon fill="none" stroke="#bfbfbf" points="844.5,-470.5 844.5,-489.5 891.5,-489.5 891.5,-470.5 844.5,-470.5"/>
<text text-anchor="middle" x="868" y="-477.5" font-family="FreeSans.ttf" font-size="10.00" fill="#000000">cmath</text>
</g>
<!-- Node0&#45;&gt;Node32 -->
<g id="edge68" class="edge">
<title>Node0&#45;&gt;Node32</title>
<path fill="none" stroke="#191970" d="M846.5289,-526.2455C850.0334,-518.6973 854.9927,-508.0158 859.2623,-498.8197"/>
<polygon fill="#191970" stroke="#191970" points="862.4864,-500.1867 863.523,-489.6427 856.1373,-497.2389 862.4864,-500.1867"/>
</g>
<!-- Node33 -->
<g id="node34" class="node">
<title>Node33</title>
<polygon fill="none" stroke="#bfbfbf" points="909.5,-470.5 909.5,-489.5 956.5,-489.5 956.5,-470.5 909.5,-470.5"/>
<text text-anchor="middle" x="933" y="-477.5" font-family="FreeSans.ttf" font-size="10.00" fill="#000000">vector</text>
</g>
<!-- Node0&#45;&gt;Node33 -->
<g id="edge69" class="edge">
<title>Node0&#45;&gt;Node33</title>
<path fill="none" stroke="#191970" d="M857.851,-526.2455C871.8132,-517.6534 892.3728,-505.0014 908.4596,-495.1018"/>
<polygon fill="#191970" stroke="#191970" points="910.6484,-497.8645 917.3307,-489.6427 906.9797,-491.9029 910.6484,-497.8645"/>
</g>
<!-- Node2 -->
<g id="node3" class="node">
<title>Node2</title>
<g id="a_node3"><a xlink:href="VectorFixSize_8h.html" target="_top" xlink:title="iDynTree/Core/VectorFixSize.h">
<polygon fill="none" stroke="#000000" points="221.5,-112.5 221.5,-131.5 382.5,-131.5 382.5,-112.5 221.5,-112.5"/>
<text text-anchor="middle" x="302" y="-119.5" font-family="FreeSans.ttf" font-size="10.00" fill="#000000">iDynTree/Core/VectorFixSize.h</text>
</a>
</g>
</g>
<!-- Node1&#45;&gt;Node2 -->
<g id="edge2" class="edge">
<title>Node1&#45;&gt;Node2</title>
<path fill="none" stroke="#191970" d="M553.427,-280.446C519.4694,-255.834 449.2451,-205.9261 387,-168 368.4339,-156.6876 346.887,-145.0425 330.1329,-136.2994"/>
<polygon fill="#191970" stroke="#191970" points="331.3708,-132.9991 320.8809,-131.5114 328.1535,-139.216 331.3708,-132.9991"/>
</g>
<!-- Node17 -->
<g id="node18" class="node">
<title>Node17</title>
<g id="a_node18"><a xlink:href="Rotation_8h.html" target="_top" xlink:title="iDynTree/Core/Rotation.h">
<polygon fill="none" stroke="#000000" points="592.5,-224.5 592.5,-243.5 729.5,-243.5 729.5,-224.5 592.5,-224.5"/>
<text text-anchor="middle" x="661" y="-231.5" font-family="FreeSans.ttf" font-size="10.00" fill="#000000">iDynTree/Core/Rotation.h</text>
</a>
</g>
</g>
<!-- Node1&#45;&gt;Node17 -->
<g id="edge19" class="edge">
<title>Node1&#45;&gt;Node17</title>
<path fill="none" stroke="#191970" d="M595.5056,-280.2977C608.7968,-270.9022 625.8057,-258.8787 639.1588,-249.4395"/>
<polygon fill="#191970" stroke="#191970" points="641.1846,-252.2937 647.33,-243.6633 637.1439,-246.5776 641.1846,-252.2937"/>
</g>
<!-- Node21 -->
<g id="node22" class="node">
<title>Node21</title>
<polygon fill="none" stroke="#bfbfbf" points="596,-56.5 596,-75.5 656,-75.5 656,-56.5 596,-56.5"/>
<text text-anchor="middle" x="626" y="-63.5" font-family="FreeSans.ttf" font-size="10.00" fill="#000000">iostream</text>
</g>
<!-- Node1&#45;&gt;Node21 -->
<g id="edge33" class="edge">
<title>Node1&#45;&gt;Node21</title>
<path fill="none" stroke="#191970" d="M572.4625,-280.4236C570.535,-255.991 569.0012,-206.5919 583,-168 589.7301,-149.4464 600.615,-149.8668 609,-132 615.912,-117.2718 620.3033,-99.3248 622.8876,-85.8656"/>
<polygon fill="#191970" stroke="#191970" points="626.3755,-86.2378 624.6491,-75.7845 619.48,-85.0328 626.3755,-86.2378"/>
</g>
<!-- Node3 -->
<g id="node4" class="node">
<title>Node3</title>
<g id="a_node4"><a xlink:href="Utils_8h.html" target="_top" xlink:title="iDynTree/Core/Utils.h">
<polygon fill="none" stroke="#000000" points="100.5,-56.5 100.5,-75.5 219.5,-75.5 219.5,-56.5 100.5,-56.5"/>
<text text-anchor="middle" x="160" y="-63.5" font-family="FreeSans.ttf" font-size="10.00" fill="#000000">iDynTree/Core/Utils.h</text>
</a>
</g>
</g>
<!-- Node2&#45;&gt;Node3 -->
<g id="edge3" class="edge">
<title>Node2&#45;&gt;Node3</title>
<path fill="none" stroke="#191970" d="M277.5893,-112.3733C254.3858,-103.2226 219.2962,-89.3844 193.4858,-79.2057"/>
<polygon fill="#191970" stroke="#191970" points="194.6789,-75.9139 184.0921,-75.5011 192.1108,-82.4258 194.6789,-75.9139"/>
</g>
<!-- Node5 -->
<g id="node6" class="node">
<title>Node5</title>
<g id="a_node6"><a xlink:href="Span_8h.html" target="_top" xlink:title="iDynTree/Core/Span.h">
<polygon fill="none" stroke="#000000" points="456.5,-56.5 456.5,-75.5 577.5,-75.5 577.5,-56.5 456.5,-56.5"/>
<text text-anchor="middle" x="517" y="-63.5" font-family="FreeSans.ttf" font-size="10.00" fill="#000000">iDynTree/Core/Span.h</text>
</a>
</g>
</g>
<!-- Node2&#45;&gt;Node5 -->
<g id="edge5" class="edge">
<title>Node2&#45;&gt;Node5</title>
<path fill="none" stroke="#191970" d="M338.9598,-112.3733C375.4075,-102.8799 431.2246,-88.3415 470.6289,-78.0781"/>
<polygon fill="#191970" stroke="#191970" points="471.7276,-81.4087 480.5225,-75.5011 469.9631,-74.6348 471.7276,-81.4087"/>
</g>
<!-- Node6 -->
<g id="node7" class="node">
<title>Node6</title>
<polygon fill="none" stroke="#bfbfbf" points="251,-.5 251,-19.5 303,-19.5 303,-.5 251,-.5"/>
<text text-anchor="middle" x="277" y="-7.5" font-family="FreeSans.ttf" font-size="10.00" fill="#000000">cassert</text>
</g>
<!-- Node2&#45;&gt;Node6 -->
<g id="edge17" class="edge">
<title>Node2&#45;&gt;Node6</title>
<path fill="none" stroke="#191970" d="M291.441,-112.2076C282.9991,-103.6048 271.8094,-90.2634 267,-76 261.8577,-60.7492 265.2375,-42.6221 269.4065,-29.2275"/>
<polygon fill="#191970" stroke="#191970" points="272.7604,-30.24 272.7714,-19.6452 266.1558,-27.9207 272.7604,-30.24"/>
</g>
<!-- Node14 -->
<g id="node15" class="node">
<title>Node14</title>
<polygon fill="none" stroke="#bfbfbf" points="898,-56.5 898,-75.5 942,-75.5 942,-56.5 898,-56.5"/>
<text text-anchor="middle" x="920" y="-63.5" font-family="FreeSans.ttf" font-size="10.00" fill="#000000">string</text>
</g>
<!-- Node2&#45;&gt;Node14 -->
<g id="edge15" class="edge">
<title>Node2&#45;&gt;Node14</title>
<path fill="none" stroke="#191970" d="M382.7927,-114.679C520.4646,-102.2039 794.6904,-77.3549 888.0316,-68.8968"/>
<polygon fill="#191970" stroke="#191970" points="888.3561,-72.3818 897.9994,-67.9936 887.7243,-65.4104 888.3561,-72.3818"/>
</g>
<!-- Node15 -->
<g id="node16" class="node">
<title>Node15</title>
<polygon fill="none" stroke="#bfbfbf" points="276,-56.5 276,-75.5 332,-75.5 332,-56.5 276,-56.5"/>
<text text-anchor="middle" x="304" y="-63.5" font-family="FreeSans.ttf" font-size="10.00" fill="#000000">sstream</text>
</g>
<!-- Node2&#45;&gt;Node15 -->
<g id="edge16" class="edge">
<title>Node2&#45;&gt;Node15</title>
<path fill="none" stroke="#191970" d="M302.3484,-112.2455C302.6093,-104.9382 302.9752,-94.6944 303.2963,-85.7046"/>
<polygon fill="#191970" stroke="#191970" points="306.7964,-85.7613 303.6556,-75.6427 299.8008,-85.5113 306.7964,-85.7613"/>
</g>
<!-- Node16 -->
<g id="node17" class="node">
<title>Node16</title>
<polygon fill="none" stroke="#bfbfbf" points="350,-56.5 350,-75.5 400,-75.5 400,-56.5 350,-56.5"/>
<text text-anchor="middle" x="375" y="-63.5" font-family="FreeSans.ttf" font-size="10.00" fill="#000000">cstring</text>
</g>
<!-- Node2&#45;&gt;Node16 -->
<g id="edge18" class="edge">
<title>Node2&#45;&gt;Node16</title>
<path fill="none" stroke="#191970" d="M314.7156,-112.2455C325.602,-103.8943 341.4883,-91.7076 354.22,-81.9408"/>
<polygon fill="#191970" stroke="#191970" points="356.6261,-84.5063 362.4301,-75.6427 352.3654,-78.9523 356.6261,-84.5063"/>
</g>
<!-- Node4 -->
<g id="node5" class="node">
<title>Node4</title>
<polygon fill="none" stroke="#bfbfbf" points="171.5,-.5 171.5,-19.5 224.5,-19.5 224.5,-.5 171.5,-.5"/>
<text text-anchor="middle" x="198" y="-7.5" font-family="FreeSans.ttf" font-size="10.00" fill="#000000">cstddef</text>
</g>
<!-- Node3&#45;&gt;Node4 -->
<g id="edge4" class="edge">
<title>Node3&#45;&gt;Node4</title>
<path fill="none" stroke="#191970" d="M166.6191,-56.2455C171.9046,-48.4564 179.4541,-37.3308 185.8238,-27.9439"/>
<polygon fill="#191970" stroke="#191970" points="188.7379,-29.8827 191.4568,-19.6427 182.9455,-25.9522 188.7379,-29.8827"/>
</g>
<!-- Node5&#45;&gt;Node4 -->
<g id="edge9" class="edge">
<title>Node5&#45;&gt;Node4</title>
<path fill="none" stroke="#191970" d="M456.4651,-56.903C400.6236,-48.2675 315.4949,-34.486 242,-20 239.6654,-19.5399 237.2654,-19.0481 234.8484,-18.5388"/>
<polygon fill="#191970" stroke="#191970" points="235.4558,-15.0891 224.9401,-16.3815 233.9665,-21.9289 235.4558,-15.0891"/>
</g>
<!-- Node5&#45;&gt;Node6 -->
<g id="edge6" class="edge">
<title>Node5&#45;&gt;Node6</title>
<path fill="none" stroke="#191970" d="M470.8183,-56.4315C431.3482,-48.0751 372.8301,-35.2658 313.281,-20.2298"/>
<polygon fill="#191970" stroke="#191970" points="313.8834,-16.7716 303.3292,-17.6983 312.1577,-23.5556 313.8834,-16.7716"/>
</g>
<!-- Node7 -->
<g id="node8" class="node">
<title>Node7</title>
<polygon fill="none" stroke="#bfbfbf" points="689,-.5 689,-19.5 753,-19.5 753,-.5 689,-.5"/>
<text text-anchor="middle" x="721" y="-7.5" font-family="FreeSans.ttf" font-size="10.00" fill="#000000">algorithm</text>
</g>
<!-- Node5&#45;&gt;Node7 -->
<g id="edge7" class="edge">
<title>Node5&#45;&gt;Node7</title>
<path fill="none" stroke="#191970" d="M552.0689,-56.3733C587.1604,-46.7403 641.175,-31.9128 678.6408,-21.628"/>
<polygon fill="#191970" stroke="#191970" points="680.0231,-24.8781 688.7398,-18.8557 678.17,-18.1278 680.0231,-24.8781"/>
</g>
<!-- Node8 -->
<g id="node9" class="node">
<title>Node8</title>
<polygon fill="none" stroke="#bfbfbf" points="771,-.5 771,-19.5 813,-19.5 813,-.5 771,-.5"/>
<text text-anchor="middle" x="792" y="-7.5" font-family="FreeSans.ttf" font-size="10.00" fill="#000000">array</text>
</g>
<!-- Node5&#45;&gt;Node8 -->
<g id="edge8" class="edge">
<title>Node5&#45;&gt;Node8</title>
<path fill="none" stroke="#191970" d="M577.6653,-56.9699C625.2176,-49.3552 693.1614,-37.2982 760.8233,-20.0463"/>
<polygon fill="#191970" stroke="#191970" points="761.998,-23.3577 770.8017,-17.4632 760.2436,-16.5811 761.998,-23.3577"/>
</g>
<!-- Node9 -->
<g id="node10" class="node">
<title>Node9</title>
<polygon fill="none" stroke="#bfbfbf" points="321.5,-.5 321.5,-19.5 374.5,-19.5 374.5,-.5 321.5,-.5"/>
<text text-anchor="middle" x="348" y="-7.5" font-family="FreeSans.ttf" font-size="10.00" fill="#000000">iterator</text>
</g>
<!-- Node5&#45;&gt;Node9 -->
<g id="edge10" class="edge">
<title>Node5&#45;&gt;Node9</title>
<path fill="none" stroke="#191970" d="M487.9479,-56.3733C459.2496,-46.8638 415.2744,-32.2921 384.2921,-22.0258"/>
<polygon fill="#191970" stroke="#191970" points="385.3187,-18.6789 374.7254,-18.8557 383.1169,-25.3236 385.3187,-18.6789"/>
</g>
<!-- Node10 -->
<g id="node11" class="node">
<title>Node10</title>
<polygon fill="none" stroke="#bfbfbf" points="393,-.5 393,-19.5 437,-19.5 437,-.5 393,-.5"/>
<text text-anchor="middle" x="415" y="-7.5" font-family="FreeSans.ttf" font-size="10.00" fill="#000000">limits</text>
</g>
<!-- Node5&#45;&gt;Node10 -->
<g id="edge11" class="edge">
<title>Node5&#45;&gt;Node10</title>
<path fill="none" stroke="#191970" d="M499.233,-56.2455C483.2905,-47.4928 459.6741,-34.527 441.5011,-24.5496"/>
<polygon fill="#191970" stroke="#191970" points="443.0137,-21.3873 432.5634,-19.6427 439.6448,-27.5233 443.0137,-21.3873"/>
</g>
<!-- Node11 -->
<g id="node12" class="node">
<title>Node11</title>
<polygon fill="none" stroke="#bfbfbf" points="455.5,-.5 455.5,-19.5 520.5,-19.5 520.5,-.5 455.5,-.5"/>
<text text-anchor="middle" x="488" y="-7.5" font-family="FreeSans.ttf" font-size="10.00" fill="#000000">stdexcept</text>
</g>
<!-- Node5&#45;&gt;Node11 -->
<g id="edge12" class="edge">
<title>Node5&#45;&gt;Node11</title>
<path fill="none" stroke="#191970" d="M511.9486,-56.2455C507.9981,-48.617 502.3903,-37.7881 497.5942,-28.5267"/>
<polygon fill="#191970" stroke="#191970" points="500.7001,-26.9131 492.9935,-19.6427 494.4841,-30.1321 500.7001,-26.9131"/>
</g>
<!-- Node12 -->
<g id="node13" class="node">
<title>Node12</title>
<polygon fill="none" stroke="#bfbfbf" points="538.5,-.5 538.5,-19.5 607.5,-19.5 607.5,-.5 538.5,-.5"/>
<text text-anchor="middle" x="573" y="-7.5" font-family="FreeSans.ttf" font-size="10.00" fill="#000000">type_traits</text>
</g>
<!-- Node5&#45;&gt;Node12 -->
<g id="edge13" class="edge">
<title>Node5&#45;&gt;Node12</title>
<path fill="none" stroke="#191970" d="M526.7545,-56.2455C534.8648,-48.1352 546.5925,-36.4075 556.2081,-26.7919"/>
<polygon fill="#191970" stroke="#191970" points="558.7611,-29.1887 563.3573,-19.6427 553.8113,-24.2389 558.7611,-29.1887"/>
</g>
<!-- Node13 -->
<g id="node14" class="node">
<title>Node13</title>
<polygon fill="none" stroke="#bfbfbf" points="625.5,-.5 625.5,-19.5 670.5,-19.5 670.5,-.5 625.5,-.5"/>
<text text-anchor="middle" x="648" y="-7.5" font-family="FreeSans.ttf" font-size="10.00" fill="#000000">utility</text>
</g>
<!-- Node5&#45;&gt;Node13 -->
<g id="edge14" class="edge">
<title>Node5&#45;&gt;Node13</title>
<path fill="none" stroke="#191970" d="M539.5197,-56.3733C560.7372,-47.3032 592.7276,-33.6279 616.4769,-23.4755"/>
<polygon fill="#191970" stroke="#191970" points="617.9548,-26.6502 625.7742,-19.5011 615.2033,-20.2136 617.9548,-26.6502"/>
</g>
<!-- Node17&#45;&gt;Node2 -->
<g id="edge32" class="edge">
<title>Node17&#45;&gt;Node2</title>
<path fill="none" stroke="#191970" d="M633.7226,-224.4132C595.8182,-211.1942 524.9926,-186.8652 464,-168 424.7653,-155.8645 379.8125,-143.1971 347.2295,-134.2352"/>
<polygon fill="#191970" stroke="#191970" points="348.1042,-130.8459 337.5347,-131.5775 346.2535,-137.5968 348.1042,-130.8459"/>
</g>
<!-- Node17&#45;&gt;Node14 -->
<g id="edge20" class="edge">
<title>Node17&#45;&gt;Node14</title>
<path fill="none" stroke="#191970" d="M729.7042,-226.9901C805.9216,-218.507 919.9585,-203.4322 933,-188 957.5178,-158.9877 941.5695,-111.1953 929.6349,-84.865"/>
<polygon fill="#191970" stroke="#191970" points="932.6767,-83.1133 925.1984,-75.6082 926.3642,-86.1387 932.6767,-83.1133"/>
</g>
<!-- Node18 -->
<g id="node19" class="node">
<title>Node18</title>
<g id="a_node19"><a xlink:href="GeomVector3_8h.html" target="_top" xlink:title="iDynTree/Core/GeomVector3.h">
<polygon fill="none" stroke="#000000" points="181.5,-168.5 181.5,-187.5 344.5,-187.5 344.5,-168.5 181.5,-168.5"/>
<text text-anchor="middle" x="263" y="-175.5" font-family="FreeSans.ttf" font-size="10.00" fill="#000000">iDynTree/Core/GeomVector3.h</text>
</a>
</g>
</g>
<!-- Node17&#45;&gt;Node18 -->
<g id="edge21" class="edge">
<title>Node17&#45;&gt;Node18</title>
<path fill="none" stroke="#191970" d="M593.0336,-224.4369C523.0587,-214.5912 414.1722,-199.2705 340.7963,-188.9462"/>
<polygon fill="#191970" stroke="#191970" points="341.0762,-185.4512 330.6861,-187.5237 340.1009,-192.3829 341.0762,-185.4512"/>
</g>
<!-- Node19 -->
<g id="node20" class="node">
<title>Node19</title>
<g id="a_node20"><a xlink:href="RotationRaw_8h.html" target="_top" xlink:title="iDynTree/Core/RotationRaw.h">
<polygon fill="none" stroke="#000000" points="766,-168.5 766,-187.5 924,-187.5 924,-168.5 766,-168.5"/>
<text text-anchor="middle" x="845" y="-175.5" font-family="FreeSans.ttf" font-size="10.00" fill="#000000">iDynTree/Core/RotationRaw.h</text>
</a>
</g>
</g>
<!-- Node17&#45;&gt;Node19 -->
<g id="edge23" class="edge">
<title>Node17&#45;&gt;Node19</title>
<path fill="none" stroke="#191970" d="M692.6307,-224.3733C723.3596,-215.021 770.176,-200.7725 803.8022,-190.5385"/>
<polygon fill="#191970" stroke="#191970" points="805.2344,-193.7612 813.782,-187.5011 803.1962,-187.0644 805.2344,-193.7612"/>
</g>
<!-- Node18&#45;&gt;Node2 -->
<g id="edge22" class="edge">
<title>Node18&#45;&gt;Node2</title>
<path fill="none" stroke="#191970" d="M269.7933,-168.2455C275.2178,-160.4564 282.9661,-149.3308 289.5033,-139.9439"/>
<polygon fill="#191970" stroke="#191970" points="292.4417,-141.849 295.2846,-131.6427 286.6975,-137.8485 292.4417,-141.849"/>
</g>
<!-- Node19&#45;&gt;Node14 -->
<g id="edge31" class="edge">
<title>Node19&#45;&gt;Node14</title>
<path fill="none" stroke="#191970" d="M859.3076,-168.1613C870.6353,-159.7234 886.1403,-146.6358 896,-132 905.5678,-117.7975 911.8612,-99.3125 915.5932,-85.5193"/>
<polygon fill="#191970" stroke="#191970" points="919.0345,-86.1838 918.0506,-75.6347 912.2412,-84.4948 919.0345,-86.1838"/>
</g>
<!-- Node20 -->
<g id="node21" class="node">
<title>Node20</title>
<g id="a_node21"><a xlink:href="MatrixFixSize_8h.html" target="_top" xlink:title="iDynTree/Core/MatrixFixSize.h">
<polygon fill="none" stroke="#000000" points="439.5,-112.5 439.5,-131.5 600.5,-131.5 600.5,-112.5 439.5,-112.5"/>
<text text-anchor="middle" x="520" y="-119.5" font-family="FreeSans.ttf" font-size="10.00" fill="#000000">iDynTree/Core/MatrixFixSize.h</text>
</a>
</g>
</g>
<!-- Node19&#45;&gt;Node20 -->
<g id="edge24" class="edge">
<title>Node19&#45;&gt;Node20</title>
<path fill="none" stroke="#191970" d="M789.4998,-168.4369C732.9437,-158.6918 645.2596,-143.5832 585.3741,-133.2645"/>
<polygon fill="#191970" stroke="#191970" points="585.7204,-129.7726 575.2713,-131.5237 584.5317,-136.671 585.7204,-129.7726"/>
</g>
<!-- Node20&#45;&gt;Node3 -->
<g id="edge25" class="edge">
<title>Node20&#45;&gt;Node3</title>
<path fill="none" stroke="#191970" d="M458.5228,-112.4369C395.0103,-102.5572 296.0577,-87.1645 229.6818,-76.8394"/>
<polygon fill="#191970" stroke="#191970" points="230.1455,-73.3695 219.7264,-75.2908 229.0695,-80.2863 230.1455,-73.3695"/>
</g>
<!-- Node20&#45;&gt;Node6 -->
<g id="edge26" class="edge">
<title>Node20&#45;&gt;Node6</title>
<path fill="none" stroke="#191970" d="M504.7091,-112.3871C479.0122,-96.3213 428.1043,-64.898 409,-56 377.496,-41.3268 339.9326,-28.6754 312.9473,-20.3754"/>
<polygon fill="#191970" stroke="#191970" points="313.7426,-16.9594 303.1575,-17.4122 311.7147,-23.6592 313.7426,-16.9594"/>
</g>
<!-- Node20&#45;&gt;Node14 -->
<g id="edge28" class="edge">
<title>Node20&#45;&gt;Node14</title>
<path fill="none" stroke="#191970" d="M588.308,-112.4369C675.6027,-100.2156 823.1526,-79.5586 887.908,-70.4929"/>
<polygon fill="#191970" stroke="#191970" points="888.5103,-73.9428 897.9284,-69.09 887.5397,-67.0104 888.5103,-73.9428"/>
</g>
<!-- Node20&#45;&gt;Node15 -->
<g id="edge30" class="edge">
<title>Node20&#45;&gt;Node15</title>
<path fill="none" stroke="#191970" d="M482.25,-112.4438C448.0526,-103.7547 396.0232,-90.4547 342.0177,-76.2479"/>
<polygon fill="#191970" stroke="#191970" points="342.8339,-72.8435 332.2721,-73.6799 341.0502,-79.6125 342.8339,-72.8435"/>
</g>
<!-- Node20&#45;&gt;Node16 -->
<g id="edge27" class="edge">
<title>Node20&#45;&gt;Node16</title>
<path fill="none" stroke="#191970" d="M495.0736,-112.3733C471.3798,-103.2226 435.5489,-89.3844 409.1932,-79.2057"/>
<polygon fill="#191970" stroke="#191970" points="410.1906,-75.8389 399.6011,-75.5011 407.6686,-82.3689 410.1906,-75.8389"/>
</g>
<!-- Node20&#45;&gt;Node21 -->
<g id="edge29" class="edge">
<title>Node20&#45;&gt;Node21</title>
<path fill="none" stroke="#191970" d="M538.4638,-112.2455C555.1074,-103.4527 579.7993,-90.4079 598.7192,-80.4125"/>
<polygon fill="#191970" stroke="#191970" points="600.5408,-83.4086 607.7478,-75.6427 597.2709,-77.2193 600.5408,-83.4086"/>
</g>
<!-- Node22&#45;&gt;Node2 -->
<g id="edge39" class="edge">
<title>Node22&#45;&gt;Node2</title>
<path fill="none" stroke="#191970" d="M445.166,-475.4221C336.9711,-468.56 155.9277,-454.2188 133,-434 106.5626,-410.6862 114,-392.2487 114,-357 114,-357 114,-357 114,-234 114,-176.4171 179.8998,-147.7594 233.6665,-133.9608"/>
<polygon fill="#191970" stroke="#191970" points="234.659,-137.3214 243.5462,-131.5536 233.0018,-130.5204 234.659,-137.3214"/>
</g>
<!-- Node22&#45;&gt;Node3 -->
<g id="edge67" class="edge">
<title>Node22&#45;&gt;Node3</title>
<path fill="none" stroke="#191970" d="M445.2525,-477.7247C297.8044,-471.36 0,-447.3247 0,-357 0,-357 0,-357 0,-178 0,-123.7109 62.587,-93.5195 109.4728,-78.5189"/>
<polygon fill="#191970" stroke="#191970" points="110.6693,-81.8132 119.2113,-75.5453 108.625,-75.1183 110.6693,-81.8132"/>
</g>
<!-- Node22&#45;&gt;Node20 -->
<g id="edge42" class="edge">
<title>Node22&#45;&gt;Node20</title>
<path fill="none" stroke="#191970" d="M521.9594,-470.3346C518.341,-461.1647 513.2668,-446.9064 511,-434 491.824,-324.8188 509.0413,-190.9046 516.7338,-141.5009"/>
<polygon fill="#191970" stroke="#191970" points="520.2024,-141.9751 518.3364,-131.5459 513.2914,-140.8625 520.2024,-141.9751"/>
</g>
<!-- Node23 -->
<g id="node24" class="node">
<title>Node23</title>
<polygon fill="none" stroke="#bfbfbf" points="520.5,-409 520.5,-428 597.5,-428 597.5,-409 520.5,-409"/>
<text text-anchor="middle" x="559" y="-416" font-family="FreeSans.ttf" font-size="10.00" fill="#000000">Eigen/Dense</text>
</g>
<!-- Node22&#45;&gt;Node23 -->
<g id="edge35" class="edge">
<title>Node22&#45;&gt;Node23</title>
<path fill="none" stroke="#191970" d="M531.1563,-470.3906C535.9232,-461.5068 543.1385,-448.0601 549.0297,-437.0811"/>
<polygon fill="#191970" stroke="#191970" points="552.1269,-438.7114 553.7711,-428.2449 545.9588,-435.4016 552.1269,-438.7114"/>
</g>
<!-- Node24 -->
<g id="node25" class="node">
<title>Node24</title>
<g id="a_node25"><a xlink:href="VectorDynSize_8h.html" target="_top" xlink:title="iDynTree/Core/VectorDynSize.h">
<polygon fill="none" stroke="#000000" points="687.5,-112.5 687.5,-131.5 854.5,-131.5 854.5,-112.5 687.5,-112.5"/>
<text text-anchor="middle" x="771" y="-119.5" font-family="FreeSans.ttf" font-size="10.00" fill="#000000">iDynTree/Core/VectorDynSize.h</text>
</a>
</g>
</g>
<!-- Node22&#45;&gt;Node24 -->
<g id="edge36" class="edge">
<title>Node22&#45;&gt;Node24</title>
<path fill="none" stroke="#191970" d="M571.3415,-470.4459C613.3569,-461.4691 677.5437,-447.4411 733,-434 785.6983,-421.2274 798.4317,-416.2974 851,-403 916.6286,-386.3989 941.1216,-402.1114 999,-367 1027.2755,-349.847 1036.3678,-341.9584 1048,-311 1074.8375,-239.5733 1017.7505,-208.3658 953,-168 926.04,-151.193 893.2226,-140.5159 862.9177,-133.7372"/>
<polygon fill="#191970" stroke="#191970" points="863.2569,-130.2315 852.7488,-131.5846 861.8071,-137.0798 863.2569,-130.2315"/>
</g>
<!-- Node25 -->
<g id="node26" class="node">
<title>Node25</title>
<g id="a_node26"><a xlink:href="MatrixDynSize_8h.html" target="_top" xlink:title="iDynTree/Core/MatrixDynSize.h">
<polygon fill="none" stroke="#000000" points="1131.5,-224.5 1131.5,-243.5 1298.5,-243.5 1298.5,-224.5 1131.5,-224.5"/>
<text text-anchor="middle" x="1215" y="-231.5" font-family="FreeSans.ttf" font-size="10.00" fill="#000000">iDynTree/Core/MatrixDynSize.h</text>
</a>
</g>
</g>
<!-- Node22&#45;&gt;Node25 -->
<g id="edge40" class="edge">
<title>Node22&#45;&gt;Node25</title>
<path fill="none" stroke="#191970" d="M606.7046,-470.5349C743.2393,-453.4497 1012.9648,-414.7554 1095,-367 1144.7439,-338.0424 1185.2828,-281.4397 1203.9265,-252.3"/>
<polygon fill="#191970" stroke="#191970" points="1207.0625,-253.8859 1209.3915,-243.5502 1201.1254,-250.1777 1207.0625,-253.8859"/>
</g>
<!-- Node26 -->
<g id="node27" class="node">
<title>Node26</title>
<g id="a_node27"><a xlink:href="SpatialMotionVector_8h.html" target="_top" xlink:title="iDynTree/Core/SpatialMotion\lVector.h">
<polygon fill="none" stroke="#000000" points="142.5,-403.5 142.5,-433.5 297.5,-433.5 297.5,-403.5 142.5,-403.5"/>
<text text-anchor="start" x="150.5" y="-421.5" font-family="FreeSans.ttf" font-size="10.00" fill="#000000">iDynTree/Core/SpatialMotion</text>
<text text-anchor="middle" x="220" y="-410.5" font-family="FreeSans.ttf" font-size="10.00" fill="#000000">Vector.h</text>
</a>
</g>
</g>
<!-- Node22&#45;&gt;Node26 -->
<g id="edge43" class="edge">
<title>Node22&#45;&gt;Node26</title>
<path fill="none" stroke="#191970" d="M478.5232,-470.4581C432.2023,-461.1485 360.7217,-446.7823 304.6539,-435.5138"/>
<polygon fill="#191970" stroke="#191970" points="305.2239,-432.0584 294.7302,-433.5193 303.8445,-438.9212 305.2239,-432.0584"/>
</g>
<!-- Node30 -->
<g id="node31" class="node">
<title>Node30</title>
<g id="a_node31"><a xlink:href="SpatialForceVector_8h.html" target="_top" xlink:title="iDynTree/Core/SpatialForce\lVector.h">
<polygon fill="none" stroke="#000000" points="316,-403.5 316,-433.5 464,-433.5 464,-403.5 316,-403.5"/>
<text text-anchor="start" x="324" y="-421.5" font-family="FreeSans.ttf" font-size="10.00" fill="#000000">iDynTree/Core/SpatialForce</text>
<text text-anchor="middle" x="390" y="-410.5" font-family="FreeSans.ttf" font-size="10.00" fill="#000000">Vector.h</text>
</a>
</g>
</g>
<!-- Node22&#45;&gt;Node30 -->
<g id="edge58" class="edge">
<title>Node22&#45;&gt;Node30</title>
<path fill="none" stroke="#191970" d="M504.75,-470.3906C485.4919,-461.682 456.5378,-448.5888 432.5329,-437.7336"/>
<polygon fill="#191970" stroke="#191970" points="433.8232,-434.4759 423.2693,-433.5446 430.9389,-440.8541 433.8232,-434.4759"/>
</g>
<!-- Node31 -->
<g id="node32" class="node">
<title>Node31</title>
<g id="a_node32"><a xlink:href="Transform_8h.html" target="_top" xlink:title="iDynTree/Core/Transform.h">
<polygon fill="none" stroke="#000000" points="844,-347.5 844,-366.5 990,-366.5 990,-347.5 844,-347.5"/>
<text text-anchor="middle" x="917" y="-354.5" font-family="FreeSans.ttf" font-size="10.00" fill="#000000">iDynTree/Core/Transform.h</text>
</a>
</g>
</g>
<!-- Node22&#45;&gt;Node31 -->
<g id="edge62" class="edge">
<title>Node22&#45;&gt;Node31</title>
<path fill="none" stroke="#191970" d="M554.8809,-470.4415C599.601,-455.6894 688.3418,-426.6095 764,-403 801.2293,-391.3824 843.7176,-378.65 874.4573,-369.5319"/>
<polygon fill="#191970" stroke="#191970" points="875.8127,-372.7808 884.4071,-366.5851 873.8248,-366.069 875.8127,-372.7808"/>
</g>
<!-- Node24&#45;&gt;Node5 -->
<g id="edge37" class="edge">
<title>Node24&#45;&gt;Node5</title>
<path fill="none" stroke="#191970" d="M727.6244,-112.4369C684.063,-102.8328 616.8723,-88.0191 570.1366,-77.7152"/>
<polygon fill="#191970" stroke="#191970" points="570.7157,-74.2588 560.1966,-75.5237 569.2085,-81.0947 570.7157,-74.2588"/>
</g>
<!-- Node24&#45;&gt;Node14 -->
<g id="edge38" class="edge">
<title>Node24&#45;&gt;Node14</title>
<path fill="none" stroke="#191970" d="M796.614,-112.3733C821.9579,-102.848 860.8156,-88.2438 888.1385,-77.9748"/>
<polygon fill="#191970" stroke="#191970" points="889.5072,-81.1995 897.6365,-74.4051 887.0445,-74.647 889.5072,-81.1995"/>
</g>
<!-- Node25&#45;&gt;Node14 -->
<g id="edge41" class="edge">
<title>Node25&#45;&gt;Node14</title>
<path fill="none" stroke="#191970" d="M1207.2438,-224.4845C1188.0954,-201.6159 1136.0483,-143.1603 1080,-112 1039.0838,-89.2524 985.8937,-76.8754 952.3401,-70.8521"/>
<polygon fill="#191970" stroke="#191970" points="952.6233,-67.3499 942.1765,-69.1147 951.4437,-74.2498 952.6233,-67.3499"/>
</g>
<!-- Node26&#45;&gt;Node2 -->
<g id="edge44" class="edge">
<title>Node26&#45;&gt;Node2</title>
<path fill="none" stroke="#191970" d="M204.9086,-403.2984C184.8752,-381.4321 152,-338.9324 152,-295.5 152,-295.5 152,-295.5 152,-234 152,-203.3494 150.8294,-190.1645 172,-168 187.5587,-151.7108 209.2416,-141.1816 230.4451,-134.3787"/>
<polygon fill="#191970" stroke="#191970" points="231.5369,-137.7056 240.1298,-131.5079 229.5474,-130.9943 231.5369,-137.7056"/>
</g>
<!-- Node26&#45;&gt;Node18 -->
<g id="edge45" class="edge">
<title>Node26&#45;&gt;Node18</title>
<path fill="none" stroke="#191970" d="M214.9746,-403.4325C210.7883,-388.9608 205.963,-366.4827 209,-347 217.7421,-290.918 241.8782,-228.0083 254.717,-197.1586"/>
<polygon fill="#191970" stroke="#191970" points="258.068,-198.2207 258.7433,-187.6474 251.6218,-195.4918 258.068,-198.2207"/>
</g>
<!-- Node27 -->
<g id="node28" class="node">
<title>Node27</title>
<g id="a_node28"><a xlink:href="SpatialVector_8h.html" target="_top" xlink:title="iDynTree/Core/SpatialVector.h">
<polygon fill="none" stroke="#000000" points="218.5,-347.5 218.5,-366.5 379.5,-366.5 379.5,-347.5 218.5,-347.5"/>
<text text-anchor="middle" x="299" y="-354.5" font-family="FreeSans.ttf" font-size="10.00" fill="#000000">iDynTree/Core/SpatialVector.h</text>
</a>
</g>
</g>
<!-- Node26&#45;&gt;Node27 -->
<g id="edge46" class="edge">
<title>Node26&#45;&gt;Node27</title>
<path fill="none" stroke="#191970" d="M239.5281,-403.2977C251.2937,-394.1384 266.2675,-382.4816 278.2465,-373.1562"/>
<polygon fill="#191970" stroke="#191970" points="280.6103,-375.7516 286.3511,-366.8469 276.3102,-370.228 280.6103,-375.7516"/>
</g>
<!-- Node27&#45;&gt;Node3 -->
<g id="edge54" class="edge">
<title>Node27&#45;&gt;Node3</title>
<path fill="none" stroke="#191970" d="M228.3457,-347.4805C176.2023,-339.3786 110.5536,-326.588 88,-311 54.4329,-287.8 38,-274.8043 38,-234 38,-234 38,-234 38,-178 38,-129.9632 89.9611,-96.9238 126.0618,-79.766"/>
<polygon fill="#191970" stroke="#191970" points="127.6655,-82.8815 135.3115,-75.5474 124.7607,-76.5126 127.6655,-82.8815"/>
</g>
<!-- Node27&#45;&gt;Node15 -->
<g id="edge57" class="edge">
<title>Node27&#45;&gt;Node15</title>
<path fill="none" stroke="#191970" d="M226.29,-347.4994C161.2143,-334.4346 76,-303.9686 76,-234 76,-234 76,-234 76,-178 76,-136.2429 200.7594,-94.9778 265.7034,-76.326"/>
<polygon fill="#191970" stroke="#191970" points="266.9154,-79.6205 275.5846,-73.53 265.0095,-72.885 266.9154,-79.6205"/>
</g>
<!-- Node27&#45;&gt;Node17 -->
<g id="edge53" class="edge">
<title>Node27&#45;&gt;Node17</title>
<path fill="none" stroke="#191970" d="M379.6334,-350.789C474.2415,-342.7849 620.7328,-327.8753 640,-311 656.2374,-296.7783 660.4896,-271.3531 661.3303,-253.6252"/>
<polygon fill="#191970" stroke="#191970" points="664.8315,-253.569 661.4859,-243.5163 657.8323,-253.4612 664.8315,-253.569"/>
</g>
<!-- Node27&#45;&gt;Node18 -->
<g id="edge55" class="edge">
<title>Node27&#45;&gt;Node18</title>
<path fill="none" stroke="#191970" d="M297.0645,-347.3762C291.3753,-319.0883 274.6243,-235.7987 266.9372,-197.5767"/>
<polygon fill="#191970" stroke="#191970" points="270.3482,-196.785 264.9451,-187.6714 263.4856,-198.1652 270.3482,-196.785"/>
</g>
<!-- Node27&#45;&gt;Node21 -->
<g id="edge56" class="edge">
<title>Node27&#45;&gt;Node21</title>
<path fill="none" stroke="#191970" d="M301.1026,-347.4031C309.7188,-310.4668 345.9282,-176.3492 430,-112 486.5038,-68.7515 516.815,-92.6296 586,-76 586.1,-75.976 586.2002,-75.9519 586.3006,-75.9277"/>
<polygon fill="#191970" stroke="#191970" points="586.9871,-79.3629 595.8735,-73.5939 585.329,-72.5621 586.9871,-79.3629"/>
</g>
<!-- Node28 -->
<g id="node29" class="node">
<title>Node28</title>
<g id="a_node29"><a xlink:href="Position_8h.html" target="_top" xlink:title="Position.h">
<polygon fill="none" stroke="#000000" points="726.5,-286 726.5,-305 791.5,-305 791.5,-286 726.5,-286"/>
<text text-anchor="middle" x="759" y="-293" font-family="FreeSans.ttf" font-size="10.00" fill="#000000">Position.h</text>
</a>
</g>
</g>
<!-- Node27&#45;&gt;Node28 -->
<g id="edge47" class="edge">
<title>Node27&#45;&gt;Node28</title>
<path fill="none" stroke="#191970" d="M379.6523,-348.4824C455.7201,-340.1236 572.8439,-326.4139 674,-311 687.8258,-308.8933 702.8554,-306.2651 716.378,-303.7749"/>
<polygon fill="#191970" stroke="#191970" points="717.192,-307.1835 726.3802,-301.9083 715.9078,-300.3023 717.192,-307.1835"/>
</g>
<!-- Node28&#45;&gt;Node14 -->
<g id="edge52" class="edge">
<title>Node28&#45;&gt;Node14</title>
<path fill="none" stroke="#191970" d="M791.6215,-287.6809C836.3493,-275.065 915.3345,-245.5887 952,-188 970.1659,-159.4676 967.0253,-143.9772 956,-112 952.2813,-101.2144 944.8787,-91.0249 937.7481,-82.9904"/>
<polygon fill="#191970" stroke="#191970" points="940.2791,-80.5729 930.8548,-75.7321 935.2033,-85.3934 940.2791,-80.5729"/>
</g>
<!-- Node28&#45;&gt;Node17 -->
<g id="edge51" class="edge">
<title>Node28&#45;&gt;Node17</title>
<path fill="none" stroke="#191970" d="M743.6875,-285.8906C727.9376,-276.0067 703.1877,-260.4749 684.8663,-248.9773"/>
<polygon fill="#191970" stroke="#191970" points="686.5357,-245.8929 676.205,-243.5419 682.8148,-251.8221 686.5357,-245.8929"/>
</g>
<!-- Node29 -->
<g id="node30" class="node">
<title>Node29</title>
<g id="a_node30"><a xlink:href="PositionRaw_8h.html" target="_top" xlink:title="iDynTree/Core/PositionRaw.h">
<polygon fill="none" stroke="#000000" points="592,-168.5 592,-187.5 748,-187.5 748,-168.5 592,-168.5"/>
<text text-anchor="middle" x="670" y="-175.5" font-family="FreeSans.ttf" font-size="10.00" fill="#000000">iDynTree/Core/PositionRaw.h</text>
</a>
</g>
</g>
<!-- Node28&#45;&gt;Node29 -->
<g id="edge48" class="edge">
<title>Node28&#45;&gt;Node29</title>
<path fill="none" stroke="#191970" d="M758.2318,-285.7972C756.6433,-271.131 751.8884,-243.0142 738,-224 728.3005,-210.7207 713.5319,-200.0676 700.2335,-192.3708"/>
<polygon fill="#191970" stroke="#191970" points="701.7968,-189.2367 691.3422,-187.5186 698.4435,-195.3813 701.7968,-189.2367"/>
</g>
<!-- Node29&#45;&gt;Node2 -->
<g id="edge49" class="edge">
<title>Node29&#45;&gt;Node2</title>
<path fill="none" stroke="#191970" d="M607.1567,-168.4369C542.7209,-158.6314 442.6002,-143.3957 374.7664,-133.0731"/>
<polygon fill="#191970" stroke="#191970" points="374.9969,-129.568 364.5841,-131.5237 373.9437,-136.4883 374.9969,-129.568"/>
</g>
<!-- Node29&#45;&gt;Node14 -->
<g id="edge50" class="edge">
<title>Node29&#45;&gt;Node14</title>
<path fill="none" stroke="#191970" d="M726.7082,-168.473C775.0973,-159.6252 840.336,-145.7774 863,-132 882.4987,-120.1467 898.7953,-99.3736 908.9015,-84.2922"/>
<polygon fill="#191970" stroke="#191970" points="911.9158,-86.0754 914.3674,-75.7681 906.0232,-82.2969 911.9158,-86.0754"/>
</g>
<!-- Node30&#45;&gt;Node2 -->
<g id="edge59" class="edge">
<title>Node30&#45;&gt;Node2</title>
<path fill="none" stroke="#191970" d="M396.3544,-403.2604C401.6078,-388.8544 407.7877,-366.5888 405,-347 393.328,-264.9819 396.9925,-238.1988 353,-168 345.6789,-156.3177 334.5672,-145.8044 324.5826,-137.7873"/>
<polygon fill="#191970" stroke="#191970" points="326.6409,-134.9553 316.5685,-131.6691 322.3932,-140.5192 326.6409,-134.9553"/>
</g>
<!-- Node30&#45;&gt;Node18 -->
<g id="edge60" class="edge">
<title>Node30&#45;&gt;Node18</title>
<path fill="none" stroke="#191970" d="M392.1599,-403.2419C393.6637,-388.4355 394.4025,-365.5465 388,-347 365.9032,-282.9906 310.1679,-222.9849 281.167,-194.8075"/>
<polygon fill="#191970" stroke="#191970" points="283.3975,-192.0981 273.7463,-187.7271 278.5652,-197.1627 283.3975,-192.0981"/>
</g>
<!-- Node30&#45;&gt;Node27 -->
<g id="edge61" class="edge">
<title>Node30&#45;&gt;Node27</title>
<path fill="none" stroke="#191970" d="M367.5056,-403.2977C353.6033,-393.9022 335.8124,-381.8787 321.8454,-372.4395"/>
<polygon fill="#191970" stroke="#191970" points="323.5436,-369.3629 313.2985,-366.6633 319.624,-375.1626 323.5436,-369.3629"/>
</g>
<!-- Node31&#45;&gt;Node14 -->
<g id="edge66" class="edge">
<title>Node31&#45;&gt;Node14</title>
<path fill="none" stroke="#191970" d="M947.1524,-347.4123C990.6906,-331.4621 1066,-295.0489 1066,-234 1066,-234 1066,-234 1066,-178 1066,-120.9196 994.8779,-88.9586 951.9134,-74.8587"/>
<polygon fill="#191970" stroke="#191970" points="952.7633,-71.4573 942.1743,-71.8083 950.6709,-78.1373 952.7633,-71.4573"/>
</g>
<!-- Node31&#45;&gt;Node17 -->
<g id="edge64" class="edge">
<title>Node31&#45;&gt;Node17</title>
<path fill="none" stroke="#191970" d="M853.9933,-347.4497C804.1254,-338.9945 739.2924,-325.7341 717,-311 695.1115,-296.5328 678.8373,-270.4034 669.6303,-252.6358"/>
<polygon fill="#191970" stroke="#191970" points="672.7007,-250.9483 665.144,-243.5222 666.4204,-254.0399 672.7007,-250.9483"/>
</g>
<!-- Node31&#45;&gt;Node20 -->
<g id="edge65" class="edge">
<title>Node31&#45;&gt;Node20</title>
<path fill="none" stroke="#191970" d="M922.1614,-347.2184C937.6358,-316.3996 979.7713,-220.27 933,-168 922.3654,-156.1152 729.3361,-138.6989 610.9849,-129.065"/>
<polygon fill="#191970" stroke="#191970" points="611.0832,-125.5616 600.8332,-128.2428 610.518,-132.5387 611.0832,-125.5616"/>
</g>
<!-- Node31&#45;&gt;Node28 -->
<g id="edge63" class="edge">
<title>Node31&#45;&gt;Node28</title>
<path fill="none" stroke="#191970" d="M892.3125,-347.3906C865.6443,-337.0103 822.9718,-320.4004 793.1089,-308.7766"/>
<polygon fill="#191970" stroke="#191970" points="794.1027,-305.4076 783.5141,-305.0419 791.5635,-311.9309 794.1027,-305.4076"/>
</g>
</g>
</svg>
