<?xml version="1.0" encoding="UTF-8" standalone="no"?>
<!DOCTYPE svg PUBLIC "-//W3C//DTD SVG 1.1//EN"
 "http://www.w3.org/Graphics/SVG/1.1/DTD/svg11.dtd">
<!-- Generated by graphviz version 2.40.1 (20161225.0304)
 -->
<!-- Title: AttitudeMahonyFilter.h Pages: 1 -->
<svg width="698pt" height="375pt"
 viewBox="0.00 0.00 697.50 375.00" xmlns="http://www.w3.org/2000/svg" xmlns:xlink="http://www.w3.org/1999/xlink">
<g id="graph0" class="graph" transform="scale(1 1) rotate(0) translate(4 371)">
<title>AttitudeMahonyFilter.h</title>
<!-- Node0 -->
<g id="node1" class="node">
<title>Node0</title>
<polygon fill="#bfbfbf" stroke="#000000" points="242.5,-347.5 242.5,-366.5 368.5,-366.5 368.5,-347.5 242.5,-347.5"/>
<text text-anchor="middle" x="305.5" y="-354.5" font-family="FreeSans.ttf" font-size="10.00" fill="#000000">AttitudeMahonyFilter.h</text>
</g>
<!-- Node1 -->
<g id="node2" class="node">
<title>Node1</title>
<g id="a_node2"><a xlink:href="AttitudeEstimator_8h.html" target="_top" xlink:title="iDynTree/Estimation\l/AttitudeEstimator.h">
<polygon fill="none" stroke="#000000" points="495,-280.5 495,-310.5 610,-310.5 610,-280.5 495,-280.5"/>
<text text-anchor="start" x="503" y="-298.5" font-family="FreeSans.ttf" font-size="10.00" fill="#000000">iDynTree/Estimation</text>
<text text-anchor="middle" x="552.5" y="-287.5" font-family="FreeSans.ttf" font-size="10.00" fill="#000000">/AttitudeEstimator.h</text>
</a>
</g>
</g>
<!-- Node0&#45;&gt;Node1 -->
<g id="edge1" class="edge">
<title>Node0&#45;&gt;Node1</title>
<path fill="none" stroke="#191970" d="M343.8227,-347.4581C381.4424,-338.0913 439.621,-323.6055 485.0015,-312.3063"/>
<polygon fill="#191970" stroke="#191970" points="485.9129,-315.6863 494.771,-309.8738 484.2216,-308.8937 485.9129,-315.6863"/>
</g>
<!-- Node22 -->
<g id="node23" class="node">
<title>Node22</title>
<g id="a_node23"><a xlink:href="Direction_8h.html" target="_top" xlink:title="iDynTree/Core/Direction.h">
<polygon fill="none" stroke="#000000" points="61,-168.5 61,-187.5 202,-187.5 202,-168.5 61,-168.5"/>
<text text-anchor="middle" x="131.5" y="-175.5" font-family="FreeSans.ttf" font-size="10.00" fill="#000000">iDynTree/Core/Direction.h</text>
</a>
</g>
</g>
<!-- Node0&#45;&gt;Node22 -->
<g id="edge34" class="edge">
<title>Node0&#45;&gt;Node22</title>
<path fill="none" stroke="#191970" d="M296.145,-347.3762C268.0572,-318.4812 184.1848,-232.1987 148.1994,-195.1793"/>
<polygon fill="#191970" stroke="#191970" points="150.3812,-192.4023 140.9012,-187.6714 145.3618,-197.2815 150.3812,-192.4023"/>
</g>
<!-- Node2 -->
<g id="node3" class="node">
<title>Node2</title>
<g id="a_node3"><a xlink:href="VectorFixSize_8h.html" target="_top" xlink:title="iDynTree/Core/VectorFixSize.h">
<polygon fill="none" stroke="#000000" points="230,-112.5 230,-131.5 391,-131.5 391,-112.5 230,-112.5"/>
<text text-anchor="middle" x="310.5" y="-119.5" font-family="FreeSans.ttf" font-size="10.00" fill="#000000">iDynTree/Core/VectorFixSize.h</text>
</a>
</g>
</g>
<!-- Node1&#45;&gt;Node2 -->
<g id="edge2" class="edge">
<title>Node1&#45;&gt;Node2</title>
<path fill="none" stroke="#191970" d="M564.1274,-280.2355C582.4585,-254.1905 613.2753,-200.8073 585.5,-168 579.1448,-160.4935 469.9898,-143.974 391.1432,-132.9134"/>
<polygon fill="#191970" stroke="#191970" points="391.5911,-129.4421 381.2032,-131.5254 390.623,-136.3748 391.5911,-129.4421"/>
</g>
<!-- Node17 -->
<g id="node18" class="node">
<title>Node17</title>
<g id="a_node18"><a xlink:href="Rotation_8h.html" target="_top" xlink:title="iDynTree/Core/Rotation.h">
<polygon fill="none" stroke="#000000" points="412,-224.5 412,-243.5 549,-243.5 549,-224.5 412,-224.5"/>
<text text-anchor="middle" x="480.5" y="-231.5" font-family="FreeSans.ttf" font-size="10.00" fill="#000000">iDynTree/Core/Rotation.h</text>
</a>
</g>
</g>
<!-- Node1&#45;&gt;Node17 -->
<g id="edge19" class="edge">
<title>Node1&#45;&gt;Node17</title>
<path fill="none" stroke="#191970" d="M534.7022,-280.2977C524.0833,-271.2274 510.5969,-259.7077 499.7333,-250.4285"/>
<polygon fill="#191970" stroke="#191970" points="501.9051,-247.6805 492.0281,-243.8469 497.3587,-253.0031 501.9051,-247.6805"/>
</g>
<!-- Node21 -->
<g id="node22" class="node">
<title>Node21</title>
<polygon fill="none" stroke="#bfbfbf" points="629.5,-56.5 629.5,-75.5 689.5,-75.5 689.5,-56.5 629.5,-56.5"/>
<text text-anchor="middle" x="659.5" y="-63.5" font-family="FreeSans.ttf" font-size="10.00" fill="#000000">iostream</text>
</g>
<!-- Node1&#45;&gt;Node21 -->
<g id="edge33" class="edge">
<title>Node1&#45;&gt;Node21</title>
<path fill="none" stroke="#191970" d="M571.7617,-280.0945C582.4323,-270.6676 595.1823,-257.7926 603.5,-244 635.0646,-191.6588 650.5204,-119.7845 656.4669,-85.599"/>
<polygon fill="#191970" stroke="#191970" points="659.953,-85.9697 658.1285,-75.5331 653.0465,-84.8295 659.953,-85.9697"/>
</g>
<!-- Node3 -->
<g id="node4" class="node">
<title>Node3</title>
<g id="a_node4"><a xlink:href="Utils_8h.html" target="_top" xlink:title="iDynTree/Core/Utils.h">
<polygon fill="none" stroke="#000000" points="113,-56.5 113,-75.5 232,-75.5 232,-56.5 113,-56.5"/>
<text text-anchor="middle" x="172.5" y="-63.5" font-family="FreeSans.ttf" font-size="10.00" fill="#000000">iDynTree/Core/Utils.h</text>
</a>
</g>
</g>
<!-- Node2&#45;&gt;Node3 -->
<g id="edge3" class="edge">
<title>Node2&#45;&gt;Node3</title>
<path fill="none" stroke="#191970" d="M286.777,-112.3733C264.3263,-103.2629 230.4261,-89.5062 205.3745,-79.3404"/>
<polygon fill="#191970" stroke="#191970" points="206.4957,-76.0182 195.9135,-75.5011 203.8635,-82.5045 206.4957,-76.0182"/>
</g>
<!-- Node5 -->
<g id="node6" class="node">
<title>Node5</title>
<g id="a_node6"><a xlink:href="Span_8h.html" target="_top" xlink:title="iDynTree/Core/Span.h">
<polygon fill="none" stroke="#000000" points="250,-56.5 250,-75.5 371,-75.5 371,-56.5 250,-56.5"/>
<text text-anchor="middle" x="310.5" y="-63.5" font-family="FreeSans.ttf" font-size="10.00" fill="#000000">iDynTree/Core/Span.h</text>
</a>
</g>
</g>
<!-- Node2&#45;&gt;Node5 -->
<g id="edge5" class="edge">
<title>Node2&#45;&gt;Node5</title>
<path fill="none" stroke="#191970" d="M310.5,-112.2455C310.5,-104.9382 310.5,-94.6944 310.5,-85.7046"/>
<polygon fill="#191970" stroke="#191970" points="314.0001,-85.6426 310.5,-75.6427 307.0001,-85.6427 314.0001,-85.6426"/>
</g>
<!-- Node6 -->
<g id="node7" class="node">
<title>Node6</title>
<polygon fill="none" stroke="#bfbfbf" points="581.5,-.5 581.5,-19.5 633.5,-19.5 633.5,-.5 581.5,-.5"/>
<text text-anchor="middle" x="607.5" y="-7.5" font-family="FreeSans.ttf" font-size="10.00" fill="#000000">cassert</text>
</g>
<!-- Node2&#45;&gt;Node6 -->
<g id="edge17" class="edge">
<title>Node2&#45;&gt;Node6</title>
<path fill="none" stroke="#191970" d="M324.8726,-112.4227C349.5767,-96.0972 399.2868,-63.8774 418.5,-56 480.6142,-30.5333 502.4957,-36.9829 571.1564,-20.2009"/>
<polygon fill="#191970" stroke="#191970" points="572.326,-23.5155 581.1643,-17.673 570.6116,-16.7287 572.326,-23.5155"/>
</g>
<!-- Node14 -->
<g id="node15" class="node">
<title>Node14</title>
<polygon fill="none" stroke="#bfbfbf" points="50.5,-56.5 50.5,-75.5 94.5,-75.5 94.5,-56.5 50.5,-56.5"/>
<text text-anchor="middle" x="72.5" y="-63.5" font-family="FreeSans.ttf" font-size="10.00" fill="#000000">string</text>
</g>
<!-- Node2&#45;&gt;Node14 -->
<g id="edge15" class="edge">
<title>Node2&#45;&gt;Node14</title>
<path fill="none" stroke="#191970" d="M261.6694,-112.49C221.7457,-104.4127 163.6665,-91.9766 104.6404,-76.1375"/>
<polygon fill="#191970" stroke="#191970" points="105.3442,-72.7019 94.7766,-73.4607 103.5108,-79.4576 105.3442,-72.7019"/>
</g>
<!-- Node15 -->
<g id="node16" class="node">
<title>Node15</title>
<polygon fill="none" stroke="#bfbfbf" points="495.5,-56.5 495.5,-75.5 551.5,-75.5 551.5,-56.5 495.5,-56.5"/>
<text text-anchor="middle" x="523.5" y="-63.5" font-family="FreeSans.ttf" font-size="10.00" fill="#000000">sstream</text>
</g>
<!-- Node2&#45;&gt;Node15 -->
<g id="edge16" class="edge">
<title>Node2&#45;&gt;Node15</title>
<path fill="none" stroke="#191970" d="M347.2662,-112.4856C380.8013,-103.7863 431.9876,-90.4556 485.2576,-76.3165"/>
<polygon fill="#191970" stroke="#191970" points="486.459,-79.6188 495.2248,-73.6679 484.6613,-72.8535 486.459,-79.6188"/>
</g>
<!-- Node16 -->
<g id="node17" class="node">
<title>Node16</title>
<polygon fill="none" stroke="#bfbfbf" points="427.5,-56.5 427.5,-75.5 477.5,-75.5 477.5,-56.5 427.5,-56.5"/>
<text text-anchor="middle" x="452.5" y="-63.5" font-family="FreeSans.ttf" font-size="10.00" fill="#000000">cstring</text>
</g>
<!-- Node2&#45;&gt;Node16 -->
<g id="edge18" class="edge">
<title>Node2&#45;&gt;Node16</title>
<path fill="none" stroke="#191970" d="M334.9107,-112.3733C358.1142,-103.2226 393.2038,-89.3844 419.0142,-79.2057"/>
<polygon fill="#191970" stroke="#191970" points="420.3892,-82.4258 428.4079,-75.5011 417.8211,-75.9139 420.3892,-82.4258"/>
</g>
<!-- Node4 -->
<g id="node5" class="node">
<title>Node4</title>
<polygon fill="none" stroke="#bfbfbf" points="0,-.5 0,-19.5 53,-19.5 53,-.5 0,-.5"/>
<text text-anchor="middle" x="26.5" y="-7.5" font-family="FreeSans.ttf" font-size="10.00" fill="#000000">cstddef</text>
</g>
<!-- Node3&#45;&gt;Node4 -->
<g id="edge4" class="edge">
<title>Node3&#45;&gt;Node4</title>
<path fill="none" stroke="#191970" d="M147.4017,-56.3733C123.5445,-47.2226 87.4665,-33.3844 60.929,-23.2057"/>
<polygon fill="#191970" stroke="#191970" points="61.861,-19.8145 51.2708,-19.5011 59.3541,-26.3503 61.861,-19.8145"/>
</g>
<!-- Node5&#45;&gt;Node4 -->
<g id="edge9" class="edge">
<title>Node5&#45;&gt;Node4</title>
<path fill="none" stroke="#191970" d="M251.0705,-56.4804C202.9071,-48.423 133.1108,-35.9746 63.0545,-19.9701"/>
<polygon fill="#191970" stroke="#191970" points="63.7008,-16.5274 53.1698,-17.6883 62.1263,-23.348 63.7008,-16.5274"/>
</g>
<!-- Node5&#45;&gt;Node6 -->
<g id="edge6" class="edge">
<title>Node5&#45;&gt;Node6</title>
<path fill="none" stroke="#191970" d="M371.2168,-57.1827C422.2595,-49.3516 497.3025,-36.8639 571.2516,-20.114"/>
<polygon fill="#191970" stroke="#191970" points="572.2384,-23.4786 581.2032,-17.8321 570.6739,-16.6557 572.2384,-23.4786"/>
</g>
<!-- Node7 -->
<g id="node8" class="node">
<title>Node7</title>
<polygon fill="none" stroke="#bfbfbf" points="499.5,-.5 499.5,-19.5 563.5,-19.5 563.5,-.5 499.5,-.5"/>
<text text-anchor="middle" x="531.5" y="-7.5" font-family="FreeSans.ttf" font-size="10.00" fill="#000000">algorithm</text>
</g>
<!-- Node5&#45;&gt;Node7 -->
<g id="edge7" class="edge">
<title>Node5&#45;&gt;Node7</title>
<path fill="none" stroke="#191970" d="M348.2401,-56.4369C387.4495,-46.5015 448.661,-30.9909 489.4101,-20.6653"/>
<polygon fill="#191970" stroke="#191970" points="490.4694,-24.0076 499.3033,-18.1584 488.7499,-17.2221 490.4694,-24.0076"/>
</g>
<!-- Node8 -->
<g id="node9" class="node">
<title>Node8</title>
<polygon fill="none" stroke="#bfbfbf" points="71.5,-.5 71.5,-19.5 113.5,-19.5 113.5,-.5 71.5,-.5"/>
<text text-anchor="middle" x="92.5" y="-7.5" font-family="FreeSans.ttf" font-size="10.00" fill="#000000">array</text>
</g>
<!-- Node5&#45;&gt;Node8 -->
<g id="edge8" class="edge">
<title>Node5&#45;&gt;Node8</title>
<path fill="none" stroke="#191970" d="M267.3019,-56.4878C231.1931,-48.3001 178.1637,-35.7288 123.5829,-20.1553"/>
<polygon fill="#191970" stroke="#191970" points="124.3163,-16.7243 113.7381,-17.318 122.3777,-23.4505 124.3163,-16.7243"/>
</g>
<!-- Node9 -->
<g id="node10" class="node">
<title>Node9</title>
<polygon fill="none" stroke="#bfbfbf" points="132,-.5 132,-19.5 185,-19.5 185,-.5 132,-.5"/>
<text text-anchor="middle" x="158.5" y="-7.5" font-family="FreeSans.ttf" font-size="10.00" fill="#000000">iterator</text>
</g>
<!-- Node5&#45;&gt;Node9 -->
<g id="edge10" class="edge">
<title>Node5&#45;&gt;Node9</title>
<path fill="none" stroke="#191970" d="M284.3703,-56.3733C259.4232,-47.1822 221.6408,-33.2624 193.9794,-23.0713"/>
<polygon fill="#191970" stroke="#191970" points="194.8822,-19.674 184.2888,-19.5011 192.4622,-26.2424 194.8822,-19.674"/>
</g>
<!-- Node10 -->
<g id="node11" class="node">
<title>Node10</title>
<polygon fill="none" stroke="#bfbfbf" points="203.5,-.5 203.5,-19.5 247.5,-19.5 247.5,-.5 203.5,-.5"/>
<text text-anchor="middle" x="225.5" y="-7.5" font-family="FreeSans.ttf" font-size="10.00" fill="#000000">limits</text>
</g>
<!-- Node5&#45;&gt;Node10 -->
<g id="edge11" class="edge">
<title>Node5&#45;&gt;Node10</title>
<path fill="none" stroke="#191970" d="M295.6941,-56.2455C282.7744,-47.7337 263.8069,-35.2375 248.8448,-25.3801"/>
<polygon fill="#191970" stroke="#191970" points="250.4124,-22.2216 240.1362,-19.6427 246.5613,-28.067 250.4124,-22.2216"/>
</g>
<!-- Node11 -->
<g id="node12" class="node">
<title>Node11</title>
<polygon fill="none" stroke="#bfbfbf" points="266,-.5 266,-19.5 331,-19.5 331,-.5 266,-.5"/>
<text text-anchor="middle" x="298.5" y="-7.5" font-family="FreeSans.ttf" font-size="10.00" fill="#000000">stdexcept</text>
</g>
<!-- Node5&#45;&gt;Node11 -->
<g id="edge12" class="edge">
<title>Node5&#45;&gt;Node11</title>
<path fill="none" stroke="#191970" d="M308.4098,-56.2455C306.8439,-48.9382 304.6488,-38.6944 302.7224,-29.7046"/>
<polygon fill="#191970" stroke="#191970" points="306.084,-28.6873 300.5663,-19.6427 299.2393,-30.1541 306.084,-28.6873"/>
</g>
<!-- Node12 -->
<g id="node13" class="node">
<title>Node12</title>
<polygon fill="none" stroke="#bfbfbf" points="349,-.5 349,-19.5 418,-19.5 418,-.5 349,-.5"/>
<text text-anchor="middle" x="383.5" y="-7.5" font-family="FreeSans.ttf" font-size="10.00" fill="#000000">type_traits</text>
</g>
<!-- Node5&#45;&gt;Node12 -->
<g id="edge13" class="edge">
<title>Node5&#45;&gt;Node12</title>
<path fill="none" stroke="#191970" d="M323.2156,-56.2455C334.102,-47.8943 349.9883,-35.7076 362.72,-25.9408"/>
<polygon fill="#191970" stroke="#191970" points="365.1261,-28.5063 370.9301,-19.6427 360.8654,-22.9523 365.1261,-28.5063"/>
</g>
<!-- Node13 -->
<g id="node14" class="node">
<title>Node13</title>
<polygon fill="none" stroke="#bfbfbf" points="436,-.5 436,-19.5 481,-19.5 481,-.5 436,-.5"/>
<text text-anchor="middle" x="458.5" y="-7.5" font-family="FreeSans.ttf" font-size="10.00" fill="#000000">utility</text>
</g>
<!-- Node5&#45;&gt;Node13 -->
<g id="edge14" class="edge">
<title>Node5&#45;&gt;Node13</title>
<path fill="none" stroke="#191970" d="M335.9421,-56.3733C360.9687,-46.9037 399.2619,-32.4144 426.375,-22.1554"/>
<polygon fill="#191970" stroke="#191970" points="427.6987,-25.3968 435.813,-18.5843 425.2215,-18.8498 427.6987,-25.3968"/>
</g>
<!-- Node17&#45;&gt;Node2 -->
<g id="edge32" class="edge">
<title>Node17&#45;&gt;Node2</title>
<path fill="none" stroke="#191970" d="M512.4376,-224.4809C545.2891,-213.0872 588.9767,-192.4505 568.5,-168 557.5716,-154.9508 471.2659,-141.4397 401.438,-132.4654"/>
<polygon fill="#191970" stroke="#191970" points="401.6271,-128.9614 391.2661,-131.1748 400.746,-135.9057 401.6271,-128.9614"/>
</g>
<!-- Node17&#45;&gt;Node14 -->
<g id="edge20" class="edge">
<title>Node17&#45;&gt;Node14</title>
<path fill="none" stroke="#191970" d="M411.6729,-231.5688C296.5362,-226.7869 75.0924,-214.2574 51.5,-188 25.7712,-159.3649 46.3266,-111.0757 60.9937,-84.6536"/>
<polygon fill="#191970" stroke="#191970" points="64.2092,-86.087 66.2179,-75.6843 58.1604,-82.5638 64.2092,-86.087"/>
</g>
<!-- Node18 -->
<g id="node19" class="node">
<title>Node18</title>
<g id="a_node19"><a xlink:href="GeomVector3_8h.html" target="_top" xlink:title="iDynTree/Core/GeomVector3.h">
<polygon fill="none" stroke="#000000" points="220,-168.5 220,-187.5 383,-187.5 383,-168.5 220,-168.5"/>
<text text-anchor="middle" x="301.5" y="-175.5" font-family="FreeSans.ttf" font-size="10.00" fill="#000000">iDynTree/Core/GeomVector3.h</text>
</a>
</g>
</g>
<!-- Node17&#45;&gt;Node18 -->
<g id="edge21" class="edge">
<title>Node17&#45;&gt;Node18</title>
<path fill="none" stroke="#191970" d="M449.7288,-224.3733C419.835,-215.021 374.2907,-200.7725 341.5783,-190.5385"/>
<polygon fill="#191970" stroke="#191970" points="342.4586,-187.1466 331.8697,-187.5011 340.3685,-193.8273 342.4586,-187.1466"/>
</g>
<!-- Node19 -->
<g id="node20" class="node">
<title>Node19</title>
<g id="a_node20"><a xlink:href="RotationRaw_8h.html" target="_top" xlink:title="iDynTree/Core/RotationRaw.h">
<polygon fill="none" stroke="#000000" points="401.5,-168.5 401.5,-187.5 559.5,-187.5 559.5,-168.5 401.5,-168.5"/>
<text text-anchor="middle" x="480.5" y="-175.5" font-family="FreeSans.ttf" font-size="10.00" fill="#000000">iDynTree/Core/RotationRaw.h</text>
</a>
</g>
</g>
<!-- Node17&#45;&gt;Node19 -->
<g id="edge23" class="edge">
<title>Node17&#45;&gt;Node19</title>
<path fill="none" stroke="#191970" d="M480.5,-224.2455C480.5,-216.9382 480.5,-206.6944 480.5,-197.7046"/>
<polygon fill="#191970" stroke="#191970" points="484.0001,-197.6426 480.5,-187.6427 477.0001,-197.6427 484.0001,-197.6426"/>
</g>
<!-- Node18&#45;&gt;Node2 -->
<g id="edge22" class="edge">
<title>Node18&#45;&gt;Node2</title>
<path fill="none" stroke="#191970" d="M303.0677,-168.2455C304.2421,-160.9382 305.8884,-150.6944 307.3332,-141.7046"/>
<polygon fill="#191970" stroke="#191970" points="310.8191,-142.0714 308.9503,-131.6427 303.9078,-140.9606 310.8191,-142.0714"/>
</g>
<!-- Node19&#45;&gt;Node14 -->
<g id="edge31" class="edge">
<title>Node19&#45;&gt;Node14</title>
<path fill="none" stroke="#191970" d="M401.3872,-169.1131C349.2489,-162.0161 279.8883,-150.195 220.5,-132 176.5152,-118.5242 128.3385,-95.3366 99.2698,-80.3416"/>
<polygon fill="#191970" stroke="#191970" points="100.6625,-77.1205 90.1779,-75.5962 97.4236,-83.3261 100.6625,-77.1205"/>
</g>
<!-- Node20 -->
<g id="node21" class="node">
<title>Node20</title>
<g id="a_node21"><a xlink:href="MatrixFixSize_8h.html" target="_top" xlink:title="iDynTree/Core/MatrixFixSize.h">
<polygon fill="none" stroke="#000000" points="409,-112.5 409,-131.5 570,-131.5 570,-112.5 409,-112.5"/>
<text text-anchor="middle" x="489.5" y="-119.5" font-family="FreeSans.ttf" font-size="10.00" fill="#000000">iDynTree/Core/MatrixFixSize.h</text>
</a>
</g>
</g>
<!-- Node19&#45;&gt;Node20 -->
<g id="edge24" class="edge">
<title>Node19&#45;&gt;Node20</title>
<path fill="none" stroke="#191970" d="M482.0677,-168.2455C483.2421,-160.9382 484.8884,-150.6944 486.3332,-141.7046"/>
<polygon fill="#191970" stroke="#191970" points="489.8191,-142.0714 487.9503,-131.6427 482.9078,-140.9606 489.8191,-142.0714"/>
</g>
<!-- Node20&#45;&gt;Node3 -->
<g id="edge25" class="edge">
<title>Node20&#45;&gt;Node3</title>
<path fill="none" stroke="#191970" d="M435.3659,-112.4369C380.202,-102.6918 294.6763,-87.5832 236.2649,-77.2645"/>
<polygon fill="#191970" stroke="#191970" points="236.8672,-73.8167 226.4108,-75.5237 235.6494,-80.71 236.8672,-73.8167"/>
</g>
<!-- Node20&#45;&gt;Node6 -->
<g id="edge26" class="edge">
<title>Node20&#45;&gt;Node6</title>
<path fill="none" stroke="#191970" d="M508.3623,-112.3714C523.5192,-104.0555 544.7956,-91.0293 560.5,-76 575.1979,-61.9339 588.2894,-42.6964 596.8985,-28.6199"/>
<polygon fill="#191970" stroke="#191970" points="600.0223,-30.2137 602.1072,-19.8261 593.9995,-26.6463 600.0223,-30.2137"/>
</g>
<!-- Node20&#45;&gt;Node14 -->
<g id="edge28" class="edge">
<title>Node20&#45;&gt;Node14</title>
<path fill="none" stroke="#191970" d="M408.8352,-112.7897C309.8437,-101.4333 150.2987,-82.9384 104.711,-75.5716"/>
<polygon fill="#191970" stroke="#191970" points="105.1779,-72.0988 94.7099,-73.7329 103.9121,-78.9835 105.1779,-72.0988"/>
</g>
<!-- Node20&#45;&gt;Node15 -->
<g id="edge30" class="edge">
<title>Node20&#45;&gt;Node15</title>
<path fill="none" stroke="#191970" d="M495.4223,-112.2455C500.1027,-104.5367 506.7673,-93.5598 512.4289,-84.2348"/>
<polygon fill="#191970" stroke="#191970" points="515.4475,-86.007 517.6455,-75.6427 509.4639,-82.3741 515.4475,-86.007"/>
</g>
<!-- Node20&#45;&gt;Node16 -->
<g id="edge27" class="edge">
<title>Node20&#45;&gt;Node16</title>
<path fill="none" stroke="#191970" d="M483.0551,-112.2455C477.9618,-104.5367 470.7092,-93.5598 464.548,-84.2348"/>
<polygon fill="#191970" stroke="#191970" points="467.3038,-82.0566 458.8711,-75.6427 461.4635,-85.9155 467.3038,-82.0566"/>
</g>
<!-- Node20&#45;&gt;Node21 -->
<g id="edge29" class="edge">
<title>Node20&#45;&gt;Node21</title>
<path fill="none" stroke="#191970" d="M518.724,-112.3733C546.9925,-103.0613 589.9965,-88.8953 621.0344,-78.671"/>
<polygon fill="#191970" stroke="#191970" points="622.2544,-81.9542 630.6573,-75.5011 620.0643,-75.3056 622.2544,-81.9542"/>
</g>
<!-- Node22&#45;&gt;Node2 -->
<g id="edge36" class="edge">
<title>Node22&#45;&gt;Node2</title>
<path fill="none" stroke="#191970" d="M162.2712,-168.3733C192.165,-159.021 237.7093,-144.7725 270.4217,-134.5385"/>
<polygon fill="#191970" stroke="#191970" points="271.6315,-137.8273 280.1303,-131.5011 269.5414,-131.1466 271.6315,-137.8273"/>
</g>
<!-- Node22&#45;&gt;Node3 -->
<g id="edge37" class="edge">
<title>Node22&#45;&gt;Node3</title>
<path fill="none" stroke="#191970" d="M134.9956,-168.4509C141.7432,-150.0186 156.6764,-109.2254 165.5289,-85.043"/>
<polygon fill="#191970" stroke="#191970" points="168.8622,-86.1187 169.0132,-75.5249 162.2888,-83.7123 168.8622,-86.1187"/>
</g>
<!-- Node22&#45;&gt;Node14 -->
<g id="edge35" class="edge">
<title>Node22&#45;&gt;Node14</title>
<path fill="none" stroke="#191970" d="M126.4697,-168.4509C116.6727,-149.8533 94.8841,-108.4919 82.191,-84.3964"/>
<polygon fill="#191970" stroke="#191970" points="85.275,-82.7411 77.5176,-75.5249 79.0817,-86.0036 85.275,-82.7411"/>
</g>
</g>
</svg>
