<?xml version="1.0" encoding="UTF-8" standalone="no"?>
<!DOCTYPE svg PUBLIC "-//W3C//DTD SVG 1.1//EN"
 "http://www.w3.org/Graphics/SVG/1.1/DTD/svg11.dtd">
<!-- Generated by graphviz version 2.40.1 (20161225.0304)
 -->
<!-- Title: AttitudeQuaternionEKF.cpp Pages: 1 -->
<svg width="1494pt" height="632pt"
 viewBox="0.00 0.00 1494.17 632.00" xmlns="http://www.w3.org/2000/svg" xmlns:xlink="http://www.w3.org/1999/xlink">
<g id="graph0" class="graph" transform="scale(1 1) rotate(0) translate(4 628)">
<title>AttitudeQuaternionEKF.cpp</title>
<!-- Node0 -->
<g id="node1" class="node">
<title>Node0</title>
<polygon fill="#bfbfbf" stroke="#000000" points="453,-604.5 453,-623.5 599,-623.5 599,-604.5 453,-604.5"/>
<text text-anchor="middle" x="526" y="-611.5" font-family="FreeSans.ttf" font-size="10.00" fill="#000000">AttitudeQuaternionEKF.cpp</text>
</g>
<!-- Node1 -->
<g id="node2" class="node">
<title>Node1</title>
<g id="a_node2"><a xlink:href="AttitudeQuaternionEKF_8h.html" target="_top" xlink:title="iDynTree/Estimation\l/AttitudeQuaternionEKF.h">
<polygon fill="none" stroke="#000000" points="283,-347.5 283,-377.5 421,-377.5 421,-347.5 283,-347.5"/>
<text text-anchor="start" x="291" y="-365.5" font-family="FreeSans.ttf" font-size="10.00" fill="#000000">iDynTree/Estimation</text>
<text text-anchor="middle" x="352" y="-354.5" font-family="FreeSans.ttf" font-size="10.00" fill="#000000">/AttitudeQuaternionEKF.h</text>
</a>
</g>
</g>
<!-- Node0&#45;&gt;Node1 -->
<g id="edge1" class="edge">
<title>Node0&#45;&gt;Node1</title>
<path fill="none" stroke="#191970" d="M519.3915,-604.448C494.4517,-568.4001 405.584,-439.9504 368.4708,-386.307"/>
<polygon fill="#191970" stroke="#191970" points="371.1396,-384.0127 362.5717,-377.7804 365.383,-387.9954 371.1396,-384.0127"/>
</g>
<!-- Node28 -->
<g id="node29" class="node">
<title>Node28</title>
<g id="a_node29"><a xlink:href="AttitudeEstimatorUtils_8h.html" target="_top" xlink:title="iDynTree/Estimation\l/AttitudeEstimatorUtils.h">
<polygon fill="none" stroke="#000000" points="656.5,-537.5 656.5,-567.5 793.5,-567.5 793.5,-537.5 656.5,-537.5"/>
<text text-anchor="start" x="664.5" y="-555.5" font-family="FreeSans.ttf" font-size="10.00" fill="#000000">iDynTree/Estimation</text>
<text text-anchor="middle" x="725" y="-544.5" font-family="FreeSans.ttf" font-size="10.00" fill="#000000">/AttitudeEstimatorUtils.h</text>
</a>
</g>
</g>
<!-- Node0&#45;&gt;Node28 -->
<g id="edge47" class="edge">
<title>Node0&#45;&gt;Node28</title>
<path fill="none" stroke="#191970" d="M557.0938,-604.3906C586.2703,-595.3737 630.6567,-581.6563 666.4662,-570.5896"/>
<polygon fill="#191970" stroke="#191970" points="667.7984,-573.8413 676.3191,-567.5446 665.7315,-567.1534 667.7984,-573.8413"/>
</g>
<!-- Node2 -->
<g id="node3" class="node">
<title>Node2</title>
<g id="a_node3"><a xlink:href="AttitudeEstimator_8h.html" target="_top" xlink:title="iDynTree/Estimation\l/AttitudeEstimator.h">
<polygon fill="none" stroke="#000000" points="818.5,-280.5 818.5,-310.5 933.5,-310.5 933.5,-280.5 818.5,-280.5"/>
<text text-anchor="start" x="826.5" y="-298.5" font-family="FreeSans.ttf" font-size="10.00" fill="#000000">iDynTree/Estimation</text>
<text text-anchor="middle" x="876" y="-287.5" font-family="FreeSans.ttf" font-size="10.00" fill="#000000">/AttitudeEstimator.h</text>
</a>
</g>
</g>
<!-- Node1&#45;&gt;Node2 -->
<g id="edge2" class="edge">
<title>Node1&#45;&gt;Node2</title>
<path fill="none" stroke="#191970" d="M421.019,-354.5368C504.122,-344.8285 647.8934,-327.6496 771,-311 782.9834,-309.3793 795.723,-307.571 808.0436,-305.7777"/>
<polygon fill="#191970" stroke="#191970" points="808.8816,-309.1923 818.2685,-304.2793 807.8666,-302.2663 808.8816,-309.1923"/>
</g>
<!-- Node23 -->
<g id="node24" class="node">
<title>Node23</title>
<g id="a_node24"><a xlink:href="ExtendedKalmanFilter_8h.html" target="_top" xlink:title="iDynTree/Estimation\l/ExtendedKalmanFilter.h">
<polygon fill="none" stroke="#000000" points="74.5,-280.5 74.5,-310.5 209.5,-310.5 209.5,-280.5 74.5,-280.5"/>
<text text-anchor="start" x="82.5" y="-298.5" font-family="FreeSans.ttf" font-size="10.00" fill="#000000">iDynTree/Estimation</text>
<text text-anchor="middle" x="142" y="-287.5" font-family="FreeSans.ttf" font-size="10.00" fill="#000000">/ExtendedKalmanFilter.h</text>
</a>
</g>
</g>
<!-- Node1&#45;&gt;Node23 -->
<g id="edge35" class="edge">
<title>Node1&#45;&gt;Node23</title>
<path fill="none" stroke="#191970" d="M304.8719,-347.4639C273.5039,-337.456 232.1149,-324.2509 198.9101,-313.657"/>
<polygon fill="#191970" stroke="#191970" points="199.9244,-310.3069 189.3336,-310.6017 197.7967,-316.9757 199.9244,-310.3069"/>
</g>
<!-- Node27 -->
<g id="node28" class="node">
<title>Node27</title>
<g id="a_node28"><a xlink:href="Direction_8h.html" target="_top" xlink:title="iDynTree/Core/Direction.h">
<polygon fill="none" stroke="#000000" points="278.5,-168.5 278.5,-187.5 419.5,-187.5 419.5,-168.5 278.5,-168.5"/>
<text text-anchor="middle" x="349" y="-175.5" font-family="FreeSans.ttf" font-size="10.00" fill="#000000">iDynTree/Core/Direction.h</text>
</a>
</g>
</g>
<!-- Node1&#45;&gt;Node27 -->
<g id="edge43" class="edge">
<title>Node1&#45;&gt;Node27</title>
<path fill="none" stroke="#191970" d="M341.8657,-347.2351C328.0619,-325.4329 304.0333,-283.6192 295,-244 293.024,-235.3335 291.2734,-232.07 295,-224 300.8259,-211.384 312.0069,-200.9528 322.6905,-193.2314"/>
<polygon fill="#191970" stroke="#191970" points="324.6856,-196.1076 331.0401,-187.6299 320.7858,-190.2946 324.6856,-196.1076"/>
</g>
<!-- Node3 -->
<g id="node4" class="node">
<title>Node3</title>
<g id="a_node4"><a xlink:href="VectorFixSize_8h.html" target="_top" xlink:title="iDynTree/Core/VectorFixSize.h">
<polygon fill="none" stroke="#000000" points="778.5,-112.5 778.5,-131.5 939.5,-131.5 939.5,-112.5 778.5,-112.5"/>
<text text-anchor="middle" x="859" y="-119.5" font-family="FreeSans.ttf" font-size="10.00" fill="#000000">iDynTree/Core/VectorFixSize.h</text>
</a>
</g>
</g>
<!-- Node2&#45;&gt;Node3 -->
<g id="edge3" class="edge">
<title>Node2&#45;&gt;Node3</title>
<path fill="none" stroke="#191970" d="M898.2552,-280.41C930.5816,-256.5692 983.976,-208.7128 958,-168 947.9797,-152.2949 931.0584,-141.8684 914.013,-134.9824"/>
<polygon fill="#191970" stroke="#191970" points="915.1671,-131.6777 904.5736,-131.51 912.7504,-138.2473 915.1671,-131.6777"/>
</g>
<!-- Node18 -->
<g id="node19" class="node">
<title>Node18</title>
<g id="a_node19"><a xlink:href="Rotation_8h.html" target="_top" xlink:title="iDynTree/Core/Rotation.h">
<polygon fill="none" stroke="#000000" points="791.5,-224.5 791.5,-243.5 928.5,-243.5 928.5,-224.5 791.5,-224.5"/>
<text text-anchor="middle" x="860" y="-231.5" font-family="FreeSans.ttf" font-size="10.00" fill="#000000">iDynTree/Core/Rotation.h</text>
</a>
</g>
</g>
<!-- Node2&#45;&gt;Node18 -->
<g id="edge20" class="edge">
<title>Node2&#45;&gt;Node18</title>
<path fill="none" stroke="#191970" d="M872.0449,-280.2977C869.9628,-272.2945 867.3845,-262.3843 865.1483,-253.7889"/>
<polygon fill="#191970" stroke="#191970" points="868.4669,-252.6435 862.5618,-243.8469 861.6924,-254.406 868.4669,-252.6435"/>
</g>
<!-- Node22 -->
<g id="node23" class="node">
<title>Node22</title>
<polygon fill="none" stroke="#bfbfbf" points="1122,-56.5 1122,-75.5 1182,-75.5 1182,-56.5 1122,-56.5"/>
<text text-anchor="middle" x="1152" y="-63.5" font-family="FreeSans.ttf" font-size="10.00" fill="#000000">iostream</text>
</g>
<!-- Node2&#45;&gt;Node22 -->
<g id="edge34" class="edge">
<title>Node2&#45;&gt;Node22</title>
<path fill="none" stroke="#191970" d="M914.1387,-280.3666C969.0482,-256.7129 1070.1189,-205.9048 1128,-132 1138.5588,-118.5181 1144.7558,-99.963 1148.1989,-85.9597"/>
<polygon fill="#191970" stroke="#191970" points="1151.6839,-86.4058 1150.4004,-75.889 1144.8454,-84.9108 1151.6839,-86.4058"/>
</g>
<!-- Node4 -->
<g id="node5" class="node">
<title>Node4</title>
<g id="a_node5"><a xlink:href="Utils_8h.html" target="_top" xlink:title="iDynTree/Core/Utils.h">
<polygon fill="none" stroke="#000000" points="140.5,-56.5 140.5,-75.5 259.5,-75.5 259.5,-56.5 140.5,-56.5"/>
<text text-anchor="middle" x="200" y="-63.5" font-family="FreeSans.ttf" font-size="10.00" fill="#000000">iDynTree/Core/Utils.h</text>
</a>
</g>
</g>
<!-- Node3&#45;&gt;Node4 -->
<g id="edge4" class="edge">
<title>Node3&#45;&gt;Node4</title>
<path fill="none" stroke="#191970" d="M778.1937,-115.1333C647.6505,-104.0401 392.5961,-82.3663 269.6068,-71.915"/>
<polygon fill="#191970" stroke="#191970" points="269.8135,-68.42 259.553,-71.0606 269.2207,-75.3949 269.8135,-68.42"/>
</g>
<!-- Node6 -->
<g id="node7" class="node">
<title>Node6</title>
<g id="a_node7"><a xlink:href="Span_8h.html" target="_top" xlink:title="iDynTree/Core/Span.h">
<polygon fill="none" stroke="#000000" points="412.5,-56.5 412.5,-75.5 533.5,-75.5 533.5,-56.5 412.5,-56.5"/>
<text text-anchor="middle" x="473" y="-63.5" font-family="FreeSans.ttf" font-size="10.00" fill="#000000">iDynTree/Core/Span.h</text>
</a>
</g>
</g>
<!-- Node3&#45;&gt;Node6 -->
<g id="edge6" class="edge">
<title>Node3&#45;&gt;Node6</title>
<path fill="none" stroke="#191970" d="M793.0828,-112.4369C723.7147,-102.3731 614.9179,-86.5891 543.7738,-76.2677"/>
<polygon fill="#191970" stroke="#191970" points="543.9584,-72.7579 533.5595,-74.7858 542.9534,-79.6854 543.9584,-72.7579"/>
</g>
<!-- Node7 -->
<g id="node8" class="node">
<title>Node7</title>
<polygon fill="none" stroke="#bfbfbf" points="833,-.5 833,-19.5 885,-19.5 885,-.5 833,-.5"/>
<text text-anchor="middle" x="859" y="-7.5" font-family="FreeSans.ttf" font-size="10.00" fill="#000000">cassert</text>
</g>
<!-- Node3&#45;&gt;Node7 -->
<g id="edge18" class="edge">
<title>Node3&#45;&gt;Node7</title>
<path fill="none" stroke="#191970" d="M859,-112.4509C859,-94.184 859,-53.9553 859,-29.6976"/>
<polygon fill="#191970" stroke="#191970" points="862.5001,-29.5249 859,-19.5249 855.5001,-29.5249 862.5001,-29.5249"/>
</g>
<!-- Node15 -->
<g id="node16" class="node">
<title>Node15</title>
<polygon fill="none" stroke="#bfbfbf" points="552,-56.5 552,-75.5 596,-75.5 596,-56.5 552,-56.5"/>
<text text-anchor="middle" x="574" y="-63.5" font-family="FreeSans.ttf" font-size="10.00" fill="#000000">string</text>
</g>
<!-- Node3&#45;&gt;Node15 -->
<g id="edge16" class="edge">
<title>Node3&#45;&gt;Node15</title>
<path fill="none" stroke="#191970" d="M810.3306,-112.4369C751.9993,-100.9753 655.9076,-82.0941 606.1287,-72.313"/>
<polygon fill="#191970" stroke="#191970" points="606.7269,-68.8637 596.2397,-70.3699 605.3772,-75.7324 606.7269,-68.8637"/>
</g>
<!-- Node16 -->
<g id="node17" class="node">
<title>Node16</title>
<polygon fill="none" stroke="#bfbfbf" points="1010,-56.5 1010,-75.5 1066,-75.5 1066,-56.5 1010,-56.5"/>
<text text-anchor="middle" x="1038" y="-63.5" font-family="FreeSans.ttf" font-size="10.00" fill="#000000">sstream</text>
</g>
<!-- Node3&#45;&gt;Node16 -->
<g id="edge17" class="edge">
<title>Node3&#45;&gt;Node16</title>
<path fill="none" stroke="#191970" d="M889.7712,-112.3733C920.3897,-102.7943 967.4267,-88.0788 1000.2778,-77.8014"/>
<polygon fill="#191970" stroke="#191970" points="1001.4848,-81.0911 1009.9836,-74.7649 999.3947,-74.4104 1001.4848,-81.0911"/>
</g>
<!-- Node17 -->
<g id="node18" class="node">
<title>Node17</title>
<polygon fill="none" stroke="#bfbfbf" points="892,-56.5 892,-75.5 942,-75.5 942,-56.5 892,-56.5"/>
<text text-anchor="middle" x="917" y="-63.5" font-family="FreeSans.ttf" font-size="10.00" fill="#000000">cstring</text>
</g>
<!-- Node3&#45;&gt;Node17 -->
<g id="edge19" class="edge">
<title>Node3&#45;&gt;Node17</title>
<path fill="none" stroke="#191970" d="M869.1028,-112.2455C877.5028,-104.1352 889.6494,-92.4075 899.6084,-82.7919"/>
<polygon fill="#191970" stroke="#191970" points="902.25,-85.1066 907.0129,-75.6427 897.3878,-80.0707 902.25,-85.1066"/>
</g>
<!-- Node5 -->
<g id="node6" class="node">
<title>Node5</title>
<polygon fill="none" stroke="#bfbfbf" points="174.5,-.5 174.5,-19.5 227.5,-19.5 227.5,-.5 174.5,-.5"/>
<text text-anchor="middle" x="201" y="-7.5" font-family="FreeSans.ttf" font-size="10.00" fill="#000000">cstddef</text>
</g>
<!-- Node4&#45;&gt;Node5 -->
<g id="edge5" class="edge">
<title>Node4&#45;&gt;Node5</title>
<path fill="none" stroke="#191970" d="M200.1742,-56.2455C200.3047,-48.9382 200.4876,-38.6944 200.6481,-29.7046"/>
<polygon fill="#191970" stroke="#191970" points="204.1486,-29.7036 200.8278,-19.6427 197.1497,-29.5786 204.1486,-29.7036"/>
</g>
<!-- Node6&#45;&gt;Node5 -->
<g id="edge10" class="edge">
<title>Node6&#45;&gt;Node5</title>
<path fill="none" stroke="#191970" d="M417.4236,-56.4382C371.6819,-48.28 304.9611,-35.7216 237.6147,-20.0029"/>
<polygon fill="#191970" stroke="#191970" points="238.2124,-16.548 227.6762,-17.661 236.6068,-23.3614 238.2124,-16.548"/>
</g>
<!-- Node6&#45;&gt;Node7 -->
<g id="edge7" class="edge">
<title>Node6&#45;&gt;Node7</title>
<path fill="none" stroke="#191970" d="M533.7371,-57.1884C614.9533,-45.4057 756.3771,-24.8883 822.7054,-15.2655"/>
<polygon fill="#191970" stroke="#191970" points="823.2913,-18.7173 832.6851,-13.8177 822.2862,-11.7898 823.2913,-18.7173"/>
</g>
<!-- Node8 -->
<g id="node9" class="node">
<title>Node8</title>
<polygon fill="none" stroke="#bfbfbf" points="674,-.5 674,-19.5 738,-19.5 738,-.5 674,-.5"/>
<text text-anchor="middle" x="706" y="-7.5" font-family="FreeSans.ttf" font-size="10.00" fill="#000000">algorithm</text>
</g>
<!-- Node6&#45;&gt;Node8 -->
<g id="edge8" class="edge">
<title>Node6&#45;&gt;Node8</title>
<path fill="none" stroke="#191970" d="M513.0945,-56.4443C549.8203,-47.6803 605.9647,-34.2542 663.735,-20.2995"/>
<polygon fill="#191970" stroke="#191970" points="664.8762,-23.6245 673.7741,-17.8731 663.2317,-16.8205 664.8762,-23.6245"/>
</g>
<!-- Node9 -->
<g id="node10" class="node">
<title>Node9</title>
<polygon fill="none" stroke="#bfbfbf" points="246,-.5 246,-19.5 288,-19.5 288,-.5 246,-.5"/>
<text text-anchor="middle" x="267" y="-7.5" font-family="FreeSans.ttf" font-size="10.00" fill="#000000">array</text>
</g>
<!-- Node6&#45;&gt;Node9 -->
<g id="edge9" class="edge">
<title>Node6&#45;&gt;Node9</title>
<path fill="none" stroke="#191970" d="M434.2532,-56.4659C398.6794,-47.5585 344.5831,-33.6246 298,-20 297.9016,-19.9712 297.8031,-19.9424 297.7044,-19.9134"/>
<polygon fill="#191970" stroke="#191970" points="298.884,-16.6141 288.2978,-17.0403 296.8392,-23.3088 298.884,-16.6141"/>
</g>
<!-- Node10 -->
<g id="node11" class="node">
<title>Node10</title>
<polygon fill="none" stroke="#bfbfbf" points="306.5,-.5 306.5,-19.5 359.5,-19.5 359.5,-.5 306.5,-.5"/>
<text text-anchor="middle" x="333" y="-7.5" font-family="FreeSans.ttf" font-size="10.00" fill="#000000">iterator</text>
</g>
<!-- Node6&#45;&gt;Node10 -->
<g id="edge11" class="edge">
<title>Node6&#45;&gt;Node10</title>
<path fill="none" stroke="#191970" d="M448.9331,-56.3733C426.1572,-47.2629 391.7656,-33.5062 366.351,-23.3404"/>
<polygon fill="#191970" stroke="#191970" points="367.3375,-19.9654 356.7528,-19.5011 364.7377,-26.4648 367.3375,-19.9654"/>
</g>
<!-- Node11 -->
<g id="node12" class="node">
<title>Node11</title>
<polygon fill="none" stroke="#bfbfbf" points="378,-.5 378,-19.5 422,-19.5 422,-.5 378,-.5"/>
<text text-anchor="middle" x="400" y="-7.5" font-family="FreeSans.ttf" font-size="10.00" fill="#000000">limits</text>
</g>
<!-- Node6&#45;&gt;Node11 -->
<g id="edge12" class="edge">
<title>Node6&#45;&gt;Node11</title>
<path fill="none" stroke="#191970" d="M460.2844,-56.2455C449.398,-47.8943 433.5117,-35.7076 420.78,-25.9408"/>
<polygon fill="#191970" stroke="#191970" points="422.6346,-22.9523 412.5699,-19.6427 418.3739,-28.5063 422.6346,-22.9523"/>
</g>
<!-- Node12 -->
<g id="node13" class="node">
<title>Node12</title>
<polygon fill="none" stroke="#bfbfbf" points="440.5,-.5 440.5,-19.5 505.5,-19.5 505.5,-.5 440.5,-.5"/>
<text text-anchor="middle" x="473" y="-7.5" font-family="FreeSans.ttf" font-size="10.00" fill="#000000">stdexcept</text>
</g>
<!-- Node6&#45;&gt;Node12 -->
<g id="edge13" class="edge">
<title>Node6&#45;&gt;Node12</title>
<path fill="none" stroke="#191970" d="M473,-56.2455C473,-48.9382 473,-38.6944 473,-29.7046"/>
<polygon fill="#191970" stroke="#191970" points="476.5001,-29.6426 473,-19.6427 469.5001,-29.6427 476.5001,-29.6426"/>
</g>
<!-- Node13 -->
<g id="node14" class="node">
<title>Node13</title>
<polygon fill="none" stroke="#bfbfbf" points="523.5,-.5 523.5,-19.5 592.5,-19.5 592.5,-.5 523.5,-.5"/>
<text text-anchor="middle" x="558" y="-7.5" font-family="FreeSans.ttf" font-size="10.00" fill="#000000">type_traits</text>
</g>
<!-- Node6&#45;&gt;Node13 -->
<g id="edge14" class="edge">
<title>Node6&#45;&gt;Node13</title>
<path fill="none" stroke="#191970" d="M487.8059,-56.2455C500.7256,-47.7337 519.6931,-35.2375 534.6552,-25.3801"/>
<polygon fill="#191970" stroke="#191970" points="536.9387,-28.067 543.3638,-19.6427 533.0876,-22.2216 536.9387,-28.067"/>
</g>
<!-- Node14 -->
<g id="node15" class="node">
<title>Node14</title>
<polygon fill="none" stroke="#bfbfbf" points="610.5,-.5 610.5,-19.5 655.5,-19.5 655.5,-.5 610.5,-.5"/>
<text text-anchor="middle" x="633" y="-7.5" font-family="FreeSans.ttf" font-size="10.00" fill="#000000">utility</text>
</g>
<!-- Node6&#45;&gt;Node14 -->
<g id="edge15" class="edge">
<title>Node6&#45;&gt;Node14</title>
<path fill="none" stroke="#191970" d="M500.505,-56.3733C528.3188,-46.6384 571.2899,-31.5985 600.7051,-21.3032"/>
<polygon fill="#191970" stroke="#191970" points="602.2148,-24.4831 610.4972,-17.876 599.9023,-17.8761 602.2148,-24.4831"/>
</g>
<!-- Node18&#45;&gt;Node3 -->
<g id="edge33" class="edge">
<title>Node18&#45;&gt;Node3</title>
<path fill="none" stroke="#191970" d="M890.959,-224.4193C920.465,-213.5148 958.2968,-193.8171 943,-168 934.1564,-153.0742 918.5668,-142.6736 903.1998,-135.589"/>
<polygon fill="#191970" stroke="#191970" points="904.2971,-132.2534 893.7227,-131.5956 901.5789,-138.7041 904.2971,-132.2534"/>
</g>
<!-- Node18&#45;&gt;Node15 -->
<g id="edge21" class="edge">
<title>Node18&#45;&gt;Node15</title>
<path fill="none" stroke="#191970" d="M791.4975,-231.0787C721.7104,-226.6044 620.0115,-215.4503 593,-188 566.2944,-160.8605 567.5009,-112.6486 570.7428,-85.6719"/>
<polygon fill="#191970" stroke="#191970" points="574.2417,-85.9266 572.1814,-75.534 567.3111,-84.9431 574.2417,-85.9266"/>
</g>
<!-- Node19 -->
<g id="node20" class="node">
<title>Node19</title>
<g id="a_node20"><a xlink:href="GeomVector3_8h.html" target="_top" xlink:title="iDynTree/Core/GeomVector3.h">
<polygon fill="none" stroke="#000000" points="1180.5,-168.5 1180.5,-187.5 1343.5,-187.5 1343.5,-168.5 1180.5,-168.5"/>
<text text-anchor="middle" x="1262" y="-175.5" font-family="FreeSans.ttf" font-size="10.00" fill="#000000">iDynTree/Core/GeomVector3.h</text>
</a>
</g>
</g>
<!-- Node18&#45;&gt;Node19 -->
<g id="edge22" class="edge">
<title>Node18&#45;&gt;Node19</title>
<path fill="none" stroke="#191970" d="M928.6495,-224.4369C999.3277,-214.5912 1109.3085,-199.2705 1183.4218,-188.9462"/>
<polygon fill="#191970" stroke="#191970" points="1184.2122,-192.37 1193.6337,-187.5237 1183.2464,-185.4369 1184.2122,-192.37"/>
</g>
<!-- Node20 -->
<g id="node21" class="node">
<title>Node20</title>
<g id="a_node21"><a xlink:href="RotationRaw_8h.html" target="_top" xlink:title="iDynTree/Core/RotationRaw.h">
<polygon fill="none" stroke="#000000" points="776,-168.5 776,-187.5 934,-187.5 934,-168.5 776,-168.5"/>
<text text-anchor="middle" x="855" y="-175.5" font-family="FreeSans.ttf" font-size="10.00" fill="#000000">iDynTree/Core/RotationRaw.h</text>
</a>
</g>
</g>
<!-- Node18&#45;&gt;Node20 -->
<g id="edge24" class="edge">
<title>Node18&#45;&gt;Node20</title>
<path fill="none" stroke="#191970" d="M859.1291,-224.2455C858.4766,-216.9382 857.562,-206.6944 856.7593,-197.7046"/>
<polygon fill="#191970" stroke="#191970" points="860.2365,-197.2918 855.861,-187.6427 853.2642,-197.9143 860.2365,-197.2918"/>
</g>
<!-- Node19&#45;&gt;Node3 -->
<g id="edge23" class="edge">
<title>Node19&#45;&gt;Node3</title>
<path fill="none" stroke="#191970" d="M1193.1797,-168.4369C1122.3258,-158.5912 1012.0713,-143.2705 937.7737,-132.9462"/>
<polygon fill="#191970" stroke="#191970" points="937.923,-129.4334 927.5364,-131.5237 936.9595,-136.3668 937.923,-129.4334"/>
</g>
<!-- Node20&#45;&gt;Node15 -->
<g id="edge32" class="edge">
<title>Node20&#45;&gt;Node15</title>
<path fill="none" stroke="#191970" d="M831.0421,-168.4509C780.4595,-148.2899 662.7578,-101.3768 605.8869,-78.7094"/>
<polygon fill="#191970" stroke="#191970" points="606.9139,-75.351 596.3286,-74.8997 604.3221,-81.8535 606.9139,-75.351"/>
</g>
<!-- Node21 -->
<g id="node22" class="node">
<title>Node21</title>
<g id="a_node22"><a xlink:href="MatrixFixSize_8h.html" target="_top" xlink:title="iDynTree/Core/MatrixFixSize.h">
<polygon fill="none" stroke="#000000" points="957.5,-112.5 957.5,-131.5 1118.5,-131.5 1118.5,-112.5 957.5,-112.5"/>
<text text-anchor="middle" x="1038" y="-119.5" font-family="FreeSans.ttf" font-size="10.00" fill="#000000">iDynTree/Core/MatrixFixSize.h</text>
</a>
</g>
</g>
<!-- Node20&#45;&gt;Node21 -->
<g id="edge25" class="edge">
<title>Node20&#45;&gt;Node21</title>
<path fill="none" stroke="#191970" d="M886.4588,-168.3733C917.0207,-159.021 963.5826,-144.7725 997.0261,-134.5385"/>
<polygon fill="#191970" stroke="#191970" points="998.4136,-137.7742 1006.9517,-131.5011 996.3652,-131.0806 998.4136,-137.7742"/>
</g>
<!-- Node21&#45;&gt;Node4 -->
<g id="edge26" class="edge">
<title>Node21&#45;&gt;Node4</title>
<path fill="none" stroke="#191970" d="M957.488,-112.7691C954.6244,-112.4996 951.7883,-112.2421 949,-112 818.2664,-100.6482 429.4721,-78.6771 269.7203,-69.8293"/>
<polygon fill="#191970" stroke="#191970" points="269.7123,-66.3236 259.5342,-69.2658 269.3255,-73.3129 269.7123,-66.3236"/>
</g>
<!-- Node21&#45;&gt;Node7 -->
<g id="edge27" class="edge">
<title>Node21&#45;&gt;Node7</title>
<path fill="none" stroke="#191970" d="M1026.6731,-112.3155C1010.5241,-98.7676 979.6575,-73.8203 951,-56 931.4613,-43.8501 908.2859,-32.2781 890.0837,-23.7799"/>
<polygon fill="#191970" stroke="#191970" points="891.3492,-20.5095 880.8015,-19.5103 888.4239,-26.869 891.3492,-20.5095"/>
</g>
<!-- Node21&#45;&gt;Node15 -->
<g id="edge29" class="edge">
<title>Node21&#45;&gt;Node15</title>
<path fill="none" stroke="#191970" d="M959.0259,-112.4686C855.6785,-99.9957 679.2015,-78.6967 606.6331,-69.9385"/>
<polygon fill="#191970" stroke="#191970" points="606.65,-66.4152 596.3027,-68.6917 605.8112,-73.3648 606.65,-66.4152"/>
</g>
<!-- Node21&#45;&gt;Node16 -->
<g id="edge31" class="edge">
<title>Node21&#45;&gt;Node16</title>
<path fill="none" stroke="#191970" d="M1038,-112.2455C1038,-104.9382 1038,-94.6944 1038,-85.7046"/>
<polygon fill="#191970" stroke="#191970" points="1041.5001,-85.6426 1038,-75.6427 1034.5001,-85.6427 1041.5001,-85.6426"/>
</g>
<!-- Node21&#45;&gt;Node17 -->
<g id="edge28" class="edge">
<title>Node21&#45;&gt;Node17</title>
<path fill="none" stroke="#191970" d="M1017.1994,-112.3733C997.7757,-103.3838 968.5776,-89.8706 946.7036,-79.7471"/>
<polygon fill="#191970" stroke="#191970" points="948.0745,-76.5249 937.5292,-75.5011 945.1344,-82.8776 948.0745,-76.5249"/>
</g>
<!-- Node21&#45;&gt;Node22 -->
<g id="edge30" class="edge">
<title>Node21&#45;&gt;Node22</title>
<path fill="none" stroke="#191970" d="M1057.5973,-112.3733C1075.7331,-103.4644 1102.9135,-90.1127 1123.4587,-80.0203"/>
<polygon fill="#191970" stroke="#191970" points="1125.2261,-83.0517 1132.6584,-75.5011 1122.1397,-76.7688 1125.2261,-83.0517"/>
</g>
<!-- Node23&#45;&gt;Node4 -->
<g id="edge41" class="edge">
<title>Node23&#45;&gt;Node4</title>
<path fill="none" stroke="#191970" d="M138.6482,-280.3052C132.2399,-247.6491 121.1401,-169.1109 148,-112 153.811,-99.6443 164.6614,-89.2162 174.9534,-81.4292"/>
<polygon fill="#191970" stroke="#191970" points="177.1802,-84.142 183.3444,-75.5249 173.152,-78.4171 177.1802,-84.142"/>
</g>
<!-- Node24 -->
<g id="node25" class="node">
<title>Node24</title>
<g id="a_node25"><a xlink:href="VectorDynSize_8h.html" target="_top" xlink:title="iDynTree/Core/VectorDynSize.h">
<polygon fill="none" stroke="#000000" points="227.5,-112.5 227.5,-131.5 394.5,-131.5 394.5,-112.5 227.5,-112.5"/>
<text text-anchor="middle" x="311" y="-119.5" font-family="FreeSans.ttf" font-size="10.00" fill="#000000">iDynTree/Core/VectorDynSize.h</text>
</a>
</g>
</g>
<!-- Node23&#45;&gt;Node24 -->
<g id="edge36" class="edge">
<title>Node23&#45;&gt;Node24</title>
<path fill="none" stroke="#191970" d="M148.5692,-280.3748C160.416,-254.54 187.5561,-201.4652 224,-168 238.8331,-154.3792 258.4501,-143.5497 275.3013,-135.8284"/>
<polygon fill="#191970" stroke="#191970" points="277.0932,-138.8645 284.8464,-131.6439 274.2826,-132.4535 277.0932,-138.8645"/>
</g>
<!-- Node25 -->
<g id="node26" class="node">
<title>Node25</title>
<g id="a_node26"><a xlink:href="MatrixDynSize_8h.html" target="_top" xlink:title="iDynTree/Core/MatrixDynSize.h">
<polygon fill="none" stroke="#000000" points="303.5,-224.5 303.5,-243.5 470.5,-243.5 470.5,-224.5 303.5,-224.5"/>
<text text-anchor="middle" x="387" y="-231.5" font-family="FreeSans.ttf" font-size="10.00" fill="#000000">iDynTree/Core/MatrixDynSize.h</text>
</a>
</g>
</g>
<!-- Node23&#45;&gt;Node25 -->
<g id="edge39" class="edge">
<title>Node23&#45;&gt;Node25</title>
<path fill="none" stroke="#191970" d="M201.9337,-280.4554C244.1573,-269.8564 299.9371,-255.8546 339.181,-246.0035"/>
<polygon fill="#191970" stroke="#191970" points="340.1868,-249.3597 349.0337,-243.5303 338.4824,-242.5704 340.1868,-249.3597"/>
</g>
<!-- Node26 -->
<g id="node27" class="node">
<title>Node26</title>
<polygon fill="none" stroke="#bfbfbf" points="66.5,-224.5 66.5,-243.5 113.5,-243.5 113.5,-224.5 66.5,-224.5"/>
<text text-anchor="middle" x="90" y="-231.5" font-family="FreeSans.ttf" font-size="10.00" fill="#000000">vector</text>
</g>
<!-- Node23&#45;&gt;Node26 -->
<g id="edge42" class="edge">
<title>Node23&#45;&gt;Node26</title>
<path fill="none" stroke="#191970" d="M129.1461,-280.2977C121.7776,-271.5831 112.4974,-260.6075 104.8223,-251.5302"/>
<polygon fill="#191970" stroke="#191970" points="107.4552,-249.2233 98.3259,-243.8469 102.1098,-253.743 107.4552,-249.2233"/>
</g>
<!-- Node24&#45;&gt;Node6 -->
<g id="edge37" class="edge">
<title>Node24&#45;&gt;Node6</title>
<path fill="none" stroke="#191970" d="M338.8488,-112.3733C365.6703,-103.1016 406.4127,-89.0178 435.9598,-78.804"/>
<polygon fill="#191970" stroke="#191970" points="437.2069,-82.0762 445.5146,-75.5011 434.9198,-75.4603 437.2069,-82.0762"/>
</g>
<!-- Node24&#45;&gt;Node15 -->
<g id="edge38" class="edge">
<title>Node24&#45;&gt;Node15</title>
<path fill="none" stroke="#191970" d="M368.6258,-112.4968C413.522,-104.6561 477.5522,-92.5212 541.8399,-76.0876"/>
<polygon fill="#191970" stroke="#191970" points="542.9373,-79.4189 551.7399,-73.5228 541.1817,-72.6426 542.9373,-79.4189"/>
</g>
<!-- Node25&#45;&gt;Node15 -->
<g id="edge40" class="edge">
<title>Node25&#45;&gt;Node15</title>
<path fill="none" stroke="#191970" d="M396.3442,-224.4157C405.0836,-215.3031 418.3501,-201.0836 429,-188 455.3214,-155.6635 452.3373,-139.1283 484,-112 501.282,-97.193 524.1522,-85.5827 542.5131,-77.7304"/>
<polygon fill="#191970" stroke="#191970" points="543.9992,-80.9037 551.9172,-73.8641 541.3374,-74.4295 543.9992,-80.9037"/>
</g>
<!-- Node27&#45;&gt;Node3 -->
<g id="edge45" class="edge">
<title>Node27&#45;&gt;Node3</title>
<path fill="none" stroke="#191970" d="M419.6454,-170.2429C510.4659,-160.2704 668.3113,-142.9384 768.0247,-131.9894"/>
<polygon fill="#191970" stroke="#191970" points="768.5293,-135.4552 778.0875,-130.8845 767.7652,-128.497 768.5293,-135.4552"/>
</g>
<!-- Node27&#45;&gt;Node4 -->
<g id="edge46" class="edge">
<title>Node27&#45;&gt;Node4</title>
<path fill="none" stroke="#191970" d="M286.3315,-168.4335C262.3957,-161.846 236.6461,-150.7342 219,-132 207.2733,-119.5502 202.7227,-100.3317 200.9882,-85.8381"/>
<polygon fill="#191970" stroke="#191970" points="204.4749,-85.5327 200.1385,-75.866 197.5002,-86.1271 204.4749,-85.5327"/>
</g>
<!-- Node27&#45;&gt;Node15 -->
<g id="edge44" class="edge">
<title>Node27&#45;&gt;Node15</title>
<path fill="none" stroke="#191970" d="M360.9337,-168.404C378.6481,-154.5122 413.3321,-128.6448 446,-112 463.0868,-103.294 510.0169,-87.1184 542.0434,-76.456"/>
<polygon fill="#191970" stroke="#191970" points="543.4688,-79.671 551.8613,-73.2044 541.2679,-73.026 543.4688,-79.671"/>
</g>
<!-- Node28&#45;&gt;Node2 -->
<g id="edge48" class="edge">
<title>Node28&#45;&gt;Node2</title>
<path fill="none" stroke="#191970" d="M793.6907,-538.0028C830.0244,-528.7933 869.2986,-515.8322 880,-501 919.0726,-446.845 898.8821,-362.0499 885.1934,-320.3515"/>
<polygon fill="#191970" stroke="#191970" points="888.4467,-319.0484 881.8933,-310.7236 881.8249,-321.3182 888.4467,-319.0484"/>
</g>
<!-- Node28&#45;&gt;Node26 -->
<g id="edge81" class="edge">
<title>Node28&#45;&gt;Node26</title>
<path fill="none" stroke="#191970" d="M656.4673,-548.0367C475.7413,-535.3553 0,-495.6872 0,-429.5 0,-429.5 0,-429.5 0,-362.5 0,-314.821 42.0833,-272.2629 68.6962,-250.1166"/>
<polygon fill="#191970" stroke="#191970" points="71.1215,-252.6576 76.7202,-243.6628 66.7343,-247.2029 71.1215,-252.6576"/>
</g>
<!-- Node29 -->
<g id="node30" class="node">
<title>Node29</title>
<g id="a_node30"><a xlink:href="EigenHelpers_8h.html" target="_top" xlink:title="iDynTree/Core/EigenHelpers.h">
<polygon fill="none" stroke="#000000" points="644.5,-481.5 644.5,-500.5 805.5,-500.5 805.5,-481.5 644.5,-481.5"/>
<text text-anchor="middle" x="725" y="-488.5" font-family="FreeSans.ttf" font-size="10.00" fill="#000000">iDynTree/Core/EigenHelpers.h</text>
</a>
</g>
</g>
<!-- Node28&#45;&gt;Node29 -->
<g id="edge49" class="edge">
<title>Node28&#45;&gt;Node29</title>
<path fill="none" stroke="#191970" d="M725,-537.2977C725,-529.3834 725,-519.6043 725,-511.0759"/>
<polygon fill="#191970" stroke="#191970" points="728.5001,-510.8469 725,-500.8469 721.5001,-510.847 728.5001,-510.8469"/>
</g>
<!-- Node37 -->
<g id="node38" class="node">
<title>Node37</title>
<polygon fill="none" stroke="#bfbfbf" points="823.5,-481.5 823.5,-500.5 870.5,-500.5 870.5,-481.5 823.5,-481.5"/>
<text text-anchor="middle" x="847" y="-488.5" font-family="FreeSans.ttf" font-size="10.00" fill="#000000">cmath</text>
</g>
<!-- Node28&#45;&gt;Node37 -->
<g id="edge80" class="edge">
<title>Node28&#45;&gt;Node37</title>
<path fill="none" stroke="#191970" d="M754.8446,-537.4554C774.397,-527.599 799.7872,-514.7999 818.9645,-505.1327"/>
<polygon fill="#191970" stroke="#191970" points="820.7402,-508.1571 828.0943,-500.5303 817.5892,-501.9064 820.7402,-508.1571"/>
</g>
<!-- Node29&#45;&gt;Node3 -->
<g id="edge52" class="edge">
<title>Node29&#45;&gt;Node3</title>
<path fill="none" stroke="#191970" d="M750.4199,-481.4148C802.8866,-460.0863 922.3219,-403.1908 971,-311 1000.6871,-254.7759 1010.7233,-220.5958 975,-168 964.2673,-152.1982 947.1671,-141.8245 929.3588,-135.0144"/>
<polygon fill="#191970" stroke="#191970" points="930.0232,-131.5411 919.4284,-131.5858 927.7386,-138.1578 930.0232,-131.5411"/>
</g>
<!-- Node29&#45;&gt;Node4 -->
<g id="edge79" class="edge">
<title>Node29&#45;&gt;Node4</title>
<path fill="none" stroke="#191970" d="M644.4405,-488.4156C553.6958,-484.2041 402.2659,-473.2488 275,-445 166.1173,-420.8317 38,-474.0328 38,-362.5 38,-362.5 38,-362.5 38,-178 38,-123.4141 101.0004,-93.3532 148.4256,-78.4571"/>
<polygon fill="#191970" stroke="#191970" points="149.7057,-81.7274 158.281,-75.5052 147.6972,-75.0217 149.7057,-81.7274"/>
</g>
<!-- Node29&#45;&gt;Node21 -->
<g id="edge54" class="edge">
<title>Node29&#45;&gt;Node21</title>
<path fill="none" stroke="#191970" d="M805.9348,-481.8209C808.9943,-481.5331 812.0242,-481.2582 815,-481 878.8849,-475.4577 1342.0965,-486.4783 1391,-445 1419.695,-420.6618 1410,-400.1265 1410,-362.5 1410,-362.5 1410,-362.5 1410,-234 1410,-200.5868 1401.5061,-186.9699 1374,-168 1335.3616,-141.3525 1214.5229,-130.0547 1128.8601,-125.323"/>
<polygon fill="#191970" stroke="#191970" points="1129.0294,-121.8271 1118.8577,-124.7913 1128.6577,-128.8172 1129.0294,-121.8271"/>
</g>
<!-- Node29&#45;&gt;Node24 -->
<g id="edge51" class="edge">
<title>Node29&#45;&gt;Node24</title>
<path fill="none" stroke="#191970" d="M644.3087,-486.325C505.9073,-476.0761 238,-445.5156 238,-362.5 238,-362.5 238,-362.5 238,-234 238,-194.8965 269.6171,-158.7535 291.2361,-138.6105"/>
<polygon fill="#191970" stroke="#191970" points="293.8346,-140.9817 298.9455,-131.7011 289.1627,-135.7688 293.8346,-140.9817"/>
</g>
<!-- Node29&#45;&gt;Node25 -->
<g id="edge53" class="edge">
<title>Node29&#45;&gt;Node25</title>
<path fill="none" stroke="#191970" d="M706.37,-481.4103C689.814,-472.6281 665.18,-458.9151 645,-445 550.0742,-379.5441 446.6041,-288.1428 405.4083,-250.8488"/>
<polygon fill="#191970" stroke="#191970" points="407.5582,-248.0731 397.8038,-243.9374 402.8501,-253.2533 407.5582,-248.0731"/>
</g>
<!-- Node30 -->
<g id="node31" class="node">
<title>Node30</title>
<polygon fill="none" stroke="#bfbfbf" points="653.5,-420 653.5,-439 730.5,-439 730.5,-420 653.5,-420"/>
<text text-anchor="middle" x="692" y="-427" font-family="FreeSans.ttf" font-size="10.00" fill="#000000">Eigen/Dense</text>
</g>
<!-- Node29&#45;&gt;Node30 -->
<g id="edge50" class="edge">
<title>Node29&#45;&gt;Node30</title>
<path fill="none" stroke="#191970" d="M719.8438,-481.3906C715.0768,-472.5068 707.8615,-459.0601 701.9703,-448.0811"/>
<polygon fill="#191970" stroke="#191970" points="705.0412,-446.4016 697.2289,-439.2449 698.8731,-449.7114 705.0412,-446.4016"/>
</g>
<!-- Node31 -->
<g id="node32" class="node">
<title>Node31</title>
<g id="a_node32"><a xlink:href="SpatialMotionVector_8h.html" target="_top" xlink:title="iDynTree/Core/SpatialMotion\lVector.h">
<polygon fill="none" stroke="#000000" points="1226.5,-414.5 1226.5,-444.5 1381.5,-444.5 1381.5,-414.5 1226.5,-414.5"/>
<text text-anchor="start" x="1234.5" y="-432.5" font-family="FreeSans.ttf" font-size="10.00" fill="#000000">iDynTree/Core/SpatialMotion</text>
<text text-anchor="middle" x="1304" y="-421.5" font-family="FreeSans.ttf" font-size="10.00" fill="#000000">Vector.h</text>
</a>
</g>
</g>
<!-- Node29&#45;&gt;Node31 -->
<g id="edge55" class="edge">
<title>Node29&#45;&gt;Node31</title>
<path fill="none" stroke="#191970" d="M805.9444,-481.9237C809.0012,-481.6071 812.0279,-481.2982 815,-481 990.2612,-463.4178 1037.503,-468.5573 1216.2622,-445.0234"/>
<polygon fill="#191970" stroke="#191970" points="1216.8121,-448.4812 1226.2642,-443.695 1215.8904,-441.5422 1216.8121,-448.4812"/>
</g>
<!-- Node35 -->
<g id="node36" class="node">
<title>Node35</title>
<g id="a_node36"><a xlink:href="SpatialForceVector_8h.html" target="_top" xlink:title="iDynTree/Core/SpatialForce\lVector.h">
<polygon fill="none" stroke="#000000" points="1060,-414.5 1060,-444.5 1208,-444.5 1208,-414.5 1060,-414.5"/>
<text text-anchor="start" x="1068" y="-432.5" font-family="FreeSans.ttf" font-size="10.00" fill="#000000">iDynTree/Core/SpatialForce</text>
<text text-anchor="middle" x="1134" y="-421.5" font-family="FreeSans.ttf" font-size="10.00" fill="#000000">Vector.h</text>
</a>
</g>
</g>
<!-- Node29&#45;&gt;Node35 -->
<g id="edge70" class="edge">
<title>Node29&#45;&gt;Node35</title>
<path fill="none" stroke="#191970" d="M788.4575,-481.4581C858.6758,-470.8996 972.1501,-453.8368 1049.7682,-442.1657"/>
<polygon fill="#191970" stroke="#191970" points="1050.6305,-445.5754 1059.9989,-440.6273 1049.5896,-438.6532 1050.6305,-445.5754"/>
</g>
<!-- Node36 -->
<g id="node37" class="node">
<title>Node36</title>
<g id="a_node37"><a xlink:href="Transform_8h.html" target="_top" xlink:title="iDynTree/Core/Transform.h">
<polygon fill="none" stroke="#000000" points="686,-353 686,-372 832,-372 832,-353 686,-353"/>
<text text-anchor="middle" x="759" y="-360" font-family="FreeSans.ttf" font-size="10.00" fill="#000000">iDynTree/Core/Transform.h</text>
</a>
</g>
</g>
<!-- Node29&#45;&gt;Node36 -->
<g id="edge74" class="edge">
<title>Node29&#45;&gt;Node36</title>
<path fill="none" stroke="#191970" d="M728.4738,-481.2064C731.6915,-471.946 736.4948,-457.6265 740,-445 745.8776,-423.8274 751.3701,-399.2481 754.9227,-382.4617"/>
<polygon fill="#191970" stroke="#191970" points="758.4426,-382.7263 757.0533,-372.223 751.5894,-381.3002 758.4426,-382.7263"/>
</g>
<!-- Node31&#45;&gt;Node3 -->
<g id="edge56" class="edge">
<title>Node31&#45;&gt;Node3</title>
<path fill="none" stroke="#191970" d="M1317.7608,-414.285C1337.6306,-390.6773 1372,-342.98 1372,-295.5 1372,-295.5 1372,-295.5 1372,-234 1372,-203.4754 1376.5481,-187.4227 1353,-168 1319.9989,-140.7805 1026.0417,-136.8433 950.1746,-131.8861"/>
<polygon fill="#191970" stroke="#191970" points="950.1888,-128.3764 939.9442,-131.078 949.6376,-135.3546 950.1888,-128.3764"/>
</g>
<!-- Node31&#45;&gt;Node19 -->
<g id="edge57" class="edge">
<title>Node31&#45;&gt;Node19</title>
<path fill="none" stroke="#191970" d="M1308.6109,-414.2566C1318.4002,-379.0375 1338.1577,-289.9847 1310,-224 1304.8844,-212.0122 1294.9425,-201.6498 1285.4273,-193.8114"/>
<polygon fill="#191970" stroke="#191970" points="1287.3754,-190.8949 1277.3074,-187.5954 1283.1203,-196.4532 1287.3754,-190.8949"/>
</g>
<!-- Node32 -->
<g id="node33" class="node">
<title>Node32</title>
<g id="a_node33"><a xlink:href="SpatialVector_8h.html" target="_top" xlink:title="iDynTree/Core/SpatialVector.h">
<polygon fill="none" stroke="#000000" points="1106.5,-353 1106.5,-372 1267.5,-372 1267.5,-353 1106.5,-353"/>
<text text-anchor="middle" x="1187" y="-360" font-family="FreeSans.ttf" font-size="10.00" fill="#000000">iDynTree/Core/SpatialVector.h</text>
</a>
</g>
</g>
<!-- Node31&#45;&gt;Node32 -->
<g id="edge58" class="edge">
<title>Node31&#45;&gt;Node32</title>
<path fill="none" stroke="#191970" d="M1277.7429,-414.4639C1258.2887,-403.3234 1231.9161,-388.2212 1212.6161,-377.1691"/>
<polygon fill="#191970" stroke="#191970" points="1214.1882,-374.0361 1203.771,-372.1039 1210.7096,-380.1106 1214.1882,-374.0361"/>
</g>
<!-- Node32&#45;&gt;Node4 -->
<g id="edge66" class="edge">
<title>Node32&#45;&gt;Node4</title>
<path fill="none" stroke="#191970" d="M1106.2636,-357.0547C985.8194,-348.4409 765.0108,-330.623 688,-311 590.8975,-286.2575 576.2312,-251.9399 480,-224 388.6399,-197.4744 355.0688,-228.527 269,-188 234.5015,-171.7557 220.9315,-166.1665 204,-132 196.9118,-117.6965 196.3441,-99.4574 197.3044,-85.7791"/>
<polygon fill="#191970" stroke="#191970" points="200.8151,-85.8552 198.3609,-75.5486 193.8521,-85.1361 200.8151,-85.8552"/>
</g>
<!-- Node32&#45;&gt;Node16 -->
<g id="edge69" class="edge">
<title>Node32&#45;&gt;Node16</title>
<path fill="none" stroke="#191970" d="M1222.7437,-352.9439C1294.225,-332.776 1448,-283.6227 1448,-234 1448,-234 1448,-234 1448,-178 1448,-139.6555 1177.6967,-89.7403 1076.0401,-72.3239"/>
<polygon fill="#191970" stroke="#191970" points="1076.6264,-68.8734 1066.181,-70.6463 1075.4521,-75.7742 1076.6264,-68.8734"/>
</g>
<!-- Node32&#45;&gt;Node18 -->
<g id="edge65" class="edge">
<title>Node32&#45;&gt;Node18</title>
<path fill="none" stroke="#191970" d="M1162.689,-352.9466C1105.1073,-330.3189 960.2777,-273.4058 894.0298,-247.3726"/>
<polygon fill="#191970" stroke="#191970" points="895.0583,-244.0162 884.471,-243.6163 892.4981,-250.5313 895.0583,-244.0162"/>
</g>
<!-- Node32&#45;&gt;Node19 -->
<g id="edge67" class="edge">
<title>Node32&#45;&gt;Node19</title>
<path fill="none" stroke="#191970" d="M1190.9267,-352.8402C1202.7733,-323.6978 1238.316,-236.2626 1254.1919,-197.208"/>
<polygon fill="#191970" stroke="#191970" points="1257.5886,-198.146 1258.1121,-187.5641 1251.1039,-195.5099 1257.5886,-198.146"/>
</g>
<!-- Node32&#45;&gt;Node22 -->
<g id="edge68" class="edge">
<title>Node32&#45;&gt;Node22</title>
<path fill="none" stroke="#191970" d="M1267.8226,-356.5243C1338.3784,-349.7066 1433.7799,-336.097 1462,-311 1488.7858,-287.1786 1486,-269.846 1486,-234 1486,-234 1486,-234 1486,-178 1486,-146.7875 1486.1781,-131.7393 1462,-112 1421.4776,-78.917 1266.924,-69.5802 1192.5104,-66.982"/>
<polygon fill="#191970" stroke="#191970" points="1192.2442,-63.4716 1182.136,-66.6455 1192.0173,-70.4679 1192.2442,-63.4716"/>
</g>
<!-- Node33 -->
<g id="node34" class="node">
<title>Node33</title>
<g id="a_node34"><a xlink:href="Position_8h.html" target="_top" xlink:title="Position.h">
<polygon fill="none" stroke="#000000" points="696.5,-286 696.5,-305 761.5,-305 761.5,-286 696.5,-286"/>
<text text-anchor="middle" x="729" y="-293" font-family="FreeSans.ttf" font-size="10.00" fill="#000000">Position.h</text>
</a>
</g>
</g>
<!-- Node32&#45;&gt;Node33 -->
<g id="edge59" class="edge">
<title>Node32&#45;&gt;Node33</title>
<path fill="none" stroke="#191970" d="M1108.1123,-352.9665C1031.7104,-343.4403 912.674,-327.8244 810,-311 797.5265,-308.9561 784.0234,-306.4786 771.6842,-304.1096"/>
<polygon fill="#191970" stroke="#191970" points="772.1252,-300.6299 761.6411,-302.1571 770.7893,-307.5012 772.1252,-300.6299"/>
</g>
<!-- Node33&#45;&gt;Node15 -->
<g id="edge64" class="edge">
<title>Node33&#45;&gt;Node15</title>
<path fill="none" stroke="#191970" d="M704.9913,-285.9015C670.2638,-270.6859 606.7118,-237.579 575,-188 555.0169,-156.7579 561.9007,-111.1824 568.2481,-85.4943"/>
<polygon fill="#191970" stroke="#191970" points="571.7168,-86.0742 570.942,-75.5077 564.9584,-84.251 571.7168,-86.0742"/>
</g>
<!-- Node33&#45;&gt;Node18 -->
<g id="edge63" class="edge">
<title>Node33&#45;&gt;Node18</title>
<path fill="none" stroke="#191970" d="M749.4688,-285.8906C771.1952,-275.6908 805.7335,-259.4763 830.4185,-247.8875"/>
<polygon fill="#191970" stroke="#191970" points="832.1103,-250.9598 839.675,-243.5419 829.1355,-244.6234 832.1103,-250.9598"/>
</g>
<!-- Node34 -->
<g id="node35" class="node">
<title>Node34</title>
<g id="a_node35"><a xlink:href="PositionRaw_8h.html" target="_top" xlink:title="iDynTree/Core/PositionRaw.h">
<polygon fill="none" stroke="#000000" points="602,-168.5 602,-187.5 758,-187.5 758,-168.5 602,-168.5"/>
<text text-anchor="middle" x="680" y="-175.5" font-family="FreeSans.ttf" font-size="10.00" fill="#000000">iDynTree/Core/PositionRaw.h</text>
</a>
</g>
</g>
<!-- Node33&#45;&gt;Node34 -->
<g id="edge60" class="edge">
<title>Node33&#45;&gt;Node34</title>
<path fill="none" stroke="#191970" d="M724.9901,-285.8845C716.9144,-266.5192 698.5598,-222.5055 687.9585,-197.084"/>
<polygon fill="#191970" stroke="#191970" points="691.1447,-195.6308 684.0653,-187.7484 684.6839,-198.3251 691.1447,-195.6308"/>
</g>
<!-- Node34&#45;&gt;Node3 -->
<g id="edge61" class="edge">
<title>Node34&#45;&gt;Node3</title>
<path fill="none" stroke="#191970" d="M710.7712,-168.3733C740.665,-159.021 786.2093,-144.7725 818.9217,-134.5385"/>
<polygon fill="#191970" stroke="#191970" points="820.1315,-137.8273 828.6303,-131.5011 818.0414,-131.1466 820.1315,-137.8273"/>
</g>
<!-- Node34&#45;&gt;Node15 -->
<g id="edge62" class="edge">
<title>Node34&#45;&gt;Node15</title>
<path fill="none" stroke="#191970" d="M670.9625,-168.4509C652.9701,-149.4401 612.4651,-106.6423 589.9152,-82.816"/>
<polygon fill="#191970" stroke="#191970" points="592.4305,-80.382 583.0146,-75.5249 587.3465,-85.1937 592.4305,-80.382"/>
</g>
<!-- Node35&#45;&gt;Node3 -->
<g id="edge71" class="edge">
<title>Node35&#45;&gt;Node3</title>
<path fill="none" stroke="#191970" d="M1119.7037,-414.1233C1111.7287,-404.5138 1102.5159,-391.4433 1098,-378 1068.2581,-289.4609 1150.6092,-239.0653 1090,-168 1080.0037,-156.2791 1001.7383,-142.4185 939.0374,-132.9983"/>
<polygon fill="#191970" stroke="#191970" points="939.5265,-129.5326 929.1208,-131.5255 938.4981,-136.4567 939.5265,-129.5326"/>
</g>
<!-- Node35&#45;&gt;Node19 -->
<g id="edge72" class="edge">
<title>Node35&#45;&gt;Node19</title>
<path fill="none" stroke="#191970" d="M1197.0471,-414.4428C1230.6986,-404.994 1267.1763,-391.9792 1277,-378 1315.9781,-322.5336 1286.9922,-235.754 1270.8744,-197.3724"/>
<polygon fill="#191970" stroke="#191970" points="1273.946,-195.6603 1266.7367,-187.8964 1267.5309,-198.4615 1273.946,-195.6603"/>
</g>
<!-- Node35&#45;&gt;Node32 -->
<g id="edge73" class="edge">
<title>Node35&#45;&gt;Node32</title>
<path fill="none" stroke="#191970" d="M1146.0265,-414.2967C1154.0437,-404.1618 1164.6102,-390.804 1173.0047,-380.1921"/>
<polygon fill="#191970" stroke="#191970" points="1175.9825,-382.0692 1179.4416,-372.055 1170.4925,-377.7264 1175.9825,-382.0692"/>
</g>
<!-- Node36&#45;&gt;Node15 -->
<g id="edge78" class="edge">
<title>Node36&#45;&gt;Node15</title>
<path fill="none" stroke="#191970" d="M738.4156,-352.9165C694.5903,-331.1206 593.4944,-273.0496 562,-188 550.2449,-156.2558 551.0397,-145.3219 557,-112 558.6443,-102.8071 562.0005,-93.047 565.2997,-84.8935"/>
<polygon fill="#191970" stroke="#191970" points="568.5665,-86.1569 569.3151,-75.5885 562.1394,-83.3833 568.5665,-86.1569"/>
</g>
<!-- Node36&#45;&gt;Node18 -->
<g id="edge76" class="edge">
<title>Node36&#45;&gt;Node18</title>
<path fill="none" stroke="#191970" d="M763.8804,-352.7848C772.17,-336.7572 790.0549,-304.1482 810,-280 818.8307,-269.3084 830.0953,-258.7356 839.6961,-250.4272"/>
<polygon fill="#191970" stroke="#191970" points="842.2119,-252.8842 847.6018,-243.7628 837.7001,-247.5321 842.2119,-252.8842"/>
</g>
<!-- Node36&#45;&gt;Node21 -->
<g id="edge77" class="edge">
<title>Node36&#45;&gt;Node21</title>
<path fill="none" stroke="#191970" d="M810.3553,-352.9614C857.4233,-343.3729 922.7716,-327.6603 943,-311 998.2135,-265.5257 1024.4029,-179.8421 1033.7719,-141.458"/>
<polygon fill="#191970" stroke="#191970" points="1037.2181,-142.09 1036.0664,-131.5579 1030.3989,-140.5094 1037.2181,-142.09"/>
</g>
<!-- Node36&#45;&gt;Node33 -->
<g id="edge75" class="edge">
<title>Node36&#45;&gt;Node33</title>
<path fill="none" stroke="#191970" d="M754.7017,-352.9005C750.2017,-342.8505 743.0204,-326.8122 737.3912,-314.2403"/>
<polygon fill="#191970" stroke="#191970" points="740.5714,-312.7782 733.2903,-305.0817 734.1826,-315.6389 740.5714,-312.7782"/>
</g>
</g>
</svg>
