<?xml version="1.0" encoding="UTF-8" standalone="no"?>
<!DOCTYPE svg PUBLIC "-//W3C//DTD SVG 1.1//EN"
 "http://www.w3.org/Graphics/SVG/1.1/DTD/svg11.dtd">
<!-- Generated by graphviz version 2.40.1 (20161225.0304)
 -->
<!-- Title: AttitudeQuaternionEKF.h Pages: 1 -->
<svg width="1044pt" height="386pt"
 viewBox="0.00 0.00 1043.50 386.00" xmlns="http://www.w3.org/2000/svg" xmlns:xlink="http://www.w3.org/1999/xlink">
<g id="graph0" class="graph" transform="scale(1 1) rotate(0) translate(4 382)">
<title>AttitudeQuaternionEKF.h</title>
<!-- Node0 -->
<g id="node1" class="node">
<title>Node0</title>
<polygon fill="#bfbfbf" stroke="#000000" points="432.5,-358.5 432.5,-377.5 567.5,-377.5 567.5,-358.5 432.5,-358.5"/>
<text text-anchor="middle" x="500" y="-365.5" font-family="FreeSans.ttf" font-size="10.00" fill="#000000">AttitudeQuaternionEKF.h</text>
</g>
<!-- Node1 -->
<g id="node2" class="node">
<title>Node1</title>
<g id="a_node2"><a xlink:href="AttitudeEstimator_8h.html" target="_top" xlink:title="iDynTree/Estimation\l/AttitudeEstimator.h">
<polygon fill="none" stroke="#000000" points="21.5,-291.5 21.5,-321.5 136.5,-321.5 136.5,-291.5 21.5,-291.5"/>
<text text-anchor="start" x="29.5" y="-309.5" font-family="FreeSans.ttf" font-size="10.00" fill="#000000">iDynTree/Estimation</text>
<text text-anchor="middle" x="79" y="-298.5" font-family="FreeSans.ttf" font-size="10.00" fill="#000000">/AttitudeEstimator.h</text>
</a>
</g>
</g>
<!-- Node0&#45;&gt;Node1 -->
<g id="edge1" class="edge">
<title>Node0&#45;&gt;Node1</title>
<path fill="none" stroke="#191970" d="M434.6807,-358.4581C356.5448,-347.044 226.3746,-328.0286 147.0495,-316.4407"/>
<polygon fill="#191970" stroke="#191970" points="147.0827,-312.9085 136.6817,-314.9262 146.0708,-319.835 147.0827,-312.9085"/>
</g>
<!-- Node22 -->
<g id="node23" class="node">
<title>Node22</title>
<g id="a_node23"><a xlink:href="ExtendedKalmanFilter_8h.html" target="_top" xlink:title="iDynTree/Estimation\l/ExtendedKalmanFilter.h">
<polygon fill="none" stroke="#000000" points="634.5,-168.5 634.5,-198.5 769.5,-198.5 769.5,-168.5 634.5,-168.5"/>
<text text-anchor="start" x="642.5" y="-186.5" font-family="FreeSans.ttf" font-size="10.00" fill="#000000">iDynTree/Estimation</text>
<text text-anchor="middle" x="702" y="-175.5" font-family="FreeSans.ttf" font-size="10.00" fill="#000000">/ExtendedKalmanFilter.h</text>
</a>
</g>
</g>
<!-- Node0&#45;&gt;Node22 -->
<g id="edge34" class="edge">
<title>Node0&#45;&gt;Node22</title>
<path fill="none" stroke="#191970" d="M510.576,-358.3402C541.744,-329.8725 633.8128,-245.7799 677.9166,-205.4969"/>
<polygon fill="#191970" stroke="#191970" points="680.2952,-208.0647 685.3185,-198.7363 675.5744,-202.8961 680.2952,-208.0647"/>
</g>
<!-- Node26 -->
<g id="node27" class="node">
<title>Node26</title>
<g id="a_node27"><a xlink:href="Direction_8h.html" target="_top" xlink:title="iDynTree/Core/Direction.h">
<polygon fill="none" stroke="#000000" points="429.5,-174 429.5,-193 570.5,-193 570.5,-174 429.5,-174"/>
<text text-anchor="middle" x="500" y="-181" font-family="FreeSans.ttf" font-size="10.00" fill="#000000">iDynTree/Core/Direction.h</text>
</a>
</g>
</g>
<!-- Node0&#45;&gt;Node26 -->
<g id="edge42" class="edge">
<title>Node0&#45;&gt;Node26</title>
<path fill="none" stroke="#191970" d="M500,-358.3402C500,-329.3223 500,-242.5088 500,-203.2113"/>
<polygon fill="#191970" stroke="#191970" points="503.5001,-203.0641 500,-193.0641 496.5001,-203.0642 503.5001,-203.0641"/>
</g>
<!-- Node2 -->
<g id="node3" class="node">
<title>Node2</title>
<g id="a_node3"><a xlink:href="VectorFixSize_8h.html" target="_top" xlink:title="iDynTree/Core/VectorFixSize.h">
<polygon fill="none" stroke="#000000" points="249.5,-112.5 249.5,-131.5 410.5,-131.5 410.5,-112.5 249.5,-112.5"/>
<text text-anchor="middle" x="330" y="-119.5" font-family="FreeSans.ttf" font-size="10.00" fill="#000000">iDynTree/Core/VectorFixSize.h</text>
</a>
</g>
</g>
<!-- Node1&#45;&gt;Node2 -->
<g id="edge2" class="edge">
<title>Node1&#45;&gt;Node2</title>
<path fill="none" stroke="#191970" d="M68.8085,-291.1492C51.6607,-263.2179 21.7348,-203.6846 52,-168 58.4198,-160.4306 168.4485,-143.9686 248.1261,-132.9327"/>
<polygon fill="#191970" stroke="#191970" points="248.7442,-136.3807 258.1725,-131.5476 247.7881,-129.4463 248.7442,-136.3807"/>
</g>
<!-- Node17 -->
<g id="node18" class="node">
<title>Node17</title>
<g id="a_node18"><a xlink:href="Rotation_8h.html" target="_top" xlink:title="iDynTree/Core/Rotation.h">
<polygon fill="none" stroke="#000000" points="82.5,-235.5 82.5,-254.5 219.5,-254.5 219.5,-235.5 82.5,-235.5"/>
<text text-anchor="middle" x="151" y="-242.5" font-family="FreeSans.ttf" font-size="10.00" fill="#000000">iDynTree/Core/Rotation.h</text>
</a>
</g>
</g>
<!-- Node1&#45;&gt;Node17 -->
<g id="edge19" class="edge">
<title>Node1&#45;&gt;Node17</title>
<path fill="none" stroke="#191970" d="M96.7978,-291.2977C107.4167,-282.2274 120.9031,-270.7077 131.7667,-261.4285"/>
<polygon fill="#191970" stroke="#191970" points="134.1413,-264.0031 139.4719,-254.8469 129.5949,-258.6805 134.1413,-264.0031"/>
</g>
<!-- Node21 -->
<g id="node22" class="node">
<title>Node21</title>
<polygon fill="none" stroke="#bfbfbf" points="0,-56.5 0,-75.5 60,-75.5 60,-56.5 0,-56.5"/>
<text text-anchor="middle" x="30" y="-63.5" font-family="FreeSans.ttf" font-size="10.00" fill="#000000">iostream</text>
</g>
<!-- Node1&#45;&gt;Node21 -->
<g id="edge33" class="edge">
<title>Node1&#45;&gt;Node21</title>
<path fill="none" stroke="#191970" d="M63.687,-291.2712C55.1093,-281.7141 45.1324,-268.6468 40,-255 18.0819,-196.7212 23.1325,-121.1654 27.2361,-85.8406"/>
<polygon fill="#191970" stroke="#191970" points="30.7161,-86.2185 28.4998,-75.8581 23.7715,-85.3393 30.7161,-86.2185"/>
</g>
<!-- Node3 -->
<g id="node4" class="node">
<title>Node3</title>
<g id="a_node4"><a xlink:href="Utils_8h.html" target="_top" xlink:title="iDynTree/Core/Utils.h">
<polygon fill="none" stroke="#000000" points="358.5,-56.5 358.5,-75.5 477.5,-75.5 477.5,-56.5 358.5,-56.5"/>
<text text-anchor="middle" x="418" y="-63.5" font-family="FreeSans.ttf" font-size="10.00" fill="#000000">iDynTree/Core/Utils.h</text>
</a>
</g>
</g>
<!-- Node2&#45;&gt;Node3 -->
<g id="edge3" class="edge">
<title>Node2&#45;&gt;Node3</title>
<path fill="none" stroke="#191970" d="M345.3284,-112.2455C358.8303,-103.6534 378.7122,-91.0014 394.2686,-81.1018"/>
<polygon fill="#191970" stroke="#191970" points="396.2897,-83.9643 402.8472,-75.6427 392.5315,-78.0587 396.2897,-83.9643"/>
</g>
<!-- Node5 -->
<g id="node6" class="node">
<title>Node5</title>
<g id="a_node6"><a xlink:href="Span_8h.html" target="_top" xlink:title="iDynTree/Core/Span.h">
<polygon fill="none" stroke="#000000" points="563.5,-56.5 563.5,-75.5 684.5,-75.5 684.5,-56.5 563.5,-56.5"/>
<text text-anchor="middle" x="624" y="-63.5" font-family="FreeSans.ttf" font-size="10.00" fill="#000000">iDynTree/Core/Span.h</text>
</a>
</g>
</g>
<!-- Node2&#45;&gt;Node5 -->
<g id="edge5" class="edge">
<title>Node2&#45;&gt;Node5</title>
<path fill="none" stroke="#191970" d="M380.2063,-112.4369C431.0507,-102.7522 509.706,-87.7703 563.8513,-77.4569"/>
<polygon fill="#191970" stroke="#191970" points="564.8323,-80.8331 574.0007,-75.5237 563.5224,-73.9567 564.8323,-80.8331"/>
</g>
<!-- Node6 -->
<g id="node7" class="node">
<title>Node6</title>
<polygon fill="none" stroke="#bfbfbf" points="304,-.5 304,-19.5 356,-19.5 356,-.5 304,-.5"/>
<text text-anchor="middle" x="330" y="-7.5" font-family="FreeSans.ttf" font-size="10.00" fill="#000000">cassert</text>
</g>
<!-- Node2&#45;&gt;Node6 -->
<g id="edge17" class="edge">
<title>Node2&#45;&gt;Node6</title>
<path fill="none" stroke="#191970" d="M330,-112.4509C330,-94.184 330,-53.9553 330,-29.6976"/>
<polygon fill="#191970" stroke="#191970" points="333.5001,-29.5249 330,-19.5249 326.5001,-29.5249 333.5001,-29.5249"/>
</g>
<!-- Node14 -->
<g id="node15" class="node">
<title>Node14</title>
<polygon fill="none" stroke="#bfbfbf" points="496,-56.5 496,-75.5 540,-75.5 540,-56.5 496,-56.5"/>
<text text-anchor="middle" x="518" y="-63.5" font-family="FreeSans.ttf" font-size="10.00" fill="#000000">string</text>
</g>
<!-- Node2&#45;&gt;Node14 -->
<g id="edge15" class="edge">
<title>Node2&#45;&gt;Node14</title>
<path fill="none" stroke="#191970" d="M363.4617,-112.4796C393.3108,-103.9242 438.4317,-90.8384 486.1065,-76.2245"/>
<polygon fill="#191970" stroke="#191970" points="487.1427,-79.5676 495.6717,-73.2822 485.0846,-72.877 487.1427,-79.5676"/>
</g>
<!-- Node15 -->
<g id="node16" class="node">
<title>Node15</title>
<polygon fill="none" stroke="#bfbfbf" points="178,-56.5 178,-75.5 234,-75.5 234,-56.5 178,-56.5"/>
<text text-anchor="middle" x="206" y="-63.5" font-family="FreeSans.ttf" font-size="10.00" fill="#000000">sstream</text>
</g>
<!-- Node2&#45;&gt;Node15 -->
<g id="edge16" class="edge">
<title>Node2&#45;&gt;Node15</title>
<path fill="none" stroke="#191970" d="M308.6836,-112.3733C288.7784,-103.3838 258.8564,-89.8706 236.44,-79.7471"/>
<polygon fill="#191970" stroke="#191970" points="237.5925,-76.4272 227.0382,-75.5011 234.7113,-82.8068 237.5925,-76.4272"/>
</g>
<!-- Node16 -->
<g id="node17" class="node">
<title>Node16</title>
<polygon fill="none" stroke="#bfbfbf" points="252,-56.5 252,-75.5 302,-75.5 302,-56.5 252,-56.5"/>
<text text-anchor="middle" x="277" y="-63.5" font-family="FreeSans.ttf" font-size="10.00" fill="#000000">cstring</text>
</g>
<!-- Node2&#45;&gt;Node16 -->
<g id="edge18" class="edge">
<title>Node2&#45;&gt;Node16</title>
<path fill="none" stroke="#191970" d="M320.7681,-112.2455C313.1683,-104.2155 302.2123,-92.6394 293.1632,-83.0781"/>
<polygon fill="#191970" stroke="#191970" points="295.542,-80.4998 286.1261,-75.6427 290.4579,-85.3115 295.542,-80.4998"/>
</g>
<!-- Node4 -->
<g id="node5" class="node">
<title>Node4</title>
<polygon fill="none" stroke="#bfbfbf" points="386.5,-.5 386.5,-19.5 439.5,-19.5 439.5,-.5 386.5,-.5"/>
<text text-anchor="middle" x="413" y="-7.5" font-family="FreeSans.ttf" font-size="10.00" fill="#000000">cstddef</text>
</g>
<!-- Node3&#45;&gt;Node4 -->
<g id="edge4" class="edge">
<title>Node3&#45;&gt;Node4</title>
<path fill="none" stroke="#191970" d="M417.1291,-56.2455C416.4766,-48.9382 415.562,-38.6944 414.7593,-29.7046"/>
<polygon fill="#191970" stroke="#191970" points="418.2365,-29.2918 413.861,-19.6427 411.2642,-29.9143 418.2365,-29.2918"/>
</g>
<!-- Node5&#45;&gt;Node4 -->
<g id="edge9" class="edge">
<title>Node5&#45;&gt;Node4</title>
<path fill="none" stroke="#191970" d="M587.0886,-56.4566C553.7211,-47.7942 502.9933,-34.5375 449.7019,-20.1641"/>
<polygon fill="#191970" stroke="#191970" points="450.2918,-16.698 439.725,-17.4681 448.4657,-23.4556 450.2918,-16.698"/>
</g>
<!-- Node5&#45;&gt;Node6 -->
<g id="edge6" class="edge">
<title>Node5&#45;&gt;Node6</title>
<path fill="none" stroke="#191970" d="M571.154,-56.4424C521.2972,-47.3486 444.4936,-33.1418 378,-20 374.1182,-19.2328 370.0635,-18.4145 366.0267,-17.589"/>
<polygon fill="#191970" stroke="#191970" points="366.6389,-14.1416 356.1377,-15.5469 365.2232,-20.997 366.6389,-14.1416"/>
</g>
<!-- Node7 -->
<g id="node8" class="node">
<title>Node7</title>
<polygon fill="none" stroke="#bfbfbf" points="521,-.5 521,-19.5 585,-19.5 585,-.5 521,-.5"/>
<text text-anchor="middle" x="553" y="-7.5" font-family="FreeSans.ttf" font-size="10.00" fill="#000000">algorithm</text>
</g>
<!-- Node5&#45;&gt;Node7 -->
<g id="edge7" class="edge">
<title>Node5&#45;&gt;Node7</title>
<path fill="none" stroke="#191970" d="M611.6327,-56.2455C601.0446,-47.8943 585.5936,-35.7076 573.2107,-25.9408"/>
<polygon fill="#191970" stroke="#191970" points="575.2447,-23.0875 565.2255,-19.6427 570.9097,-28.5837 575.2447,-23.0875"/>
</g>
<!-- Node8 -->
<g id="node9" class="node">
<title>Node8</title>
<polygon fill="none" stroke="#bfbfbf" points="603,-.5 603,-19.5 645,-19.5 645,-.5 603,-.5"/>
<text text-anchor="middle" x="624" y="-7.5" font-family="FreeSans.ttf" font-size="10.00" fill="#000000">array</text>
</g>
<!-- Node5&#45;&gt;Node8 -->
<g id="edge8" class="edge">
<title>Node5&#45;&gt;Node8</title>
<path fill="none" stroke="#191970" d="M624,-56.2455C624,-48.9382 624,-38.6944 624,-29.7046"/>
<polygon fill="#191970" stroke="#191970" points="627.5001,-29.6426 624,-19.6427 620.5001,-29.6427 627.5001,-29.6426"/>
</g>
<!-- Node9 -->
<g id="node10" class="node">
<title>Node9</title>
<polygon fill="none" stroke="#bfbfbf" points="663.5,-.5 663.5,-19.5 716.5,-19.5 716.5,-.5 663.5,-.5"/>
<text text-anchor="middle" x="690" y="-7.5" font-family="FreeSans.ttf" font-size="10.00" fill="#000000">iterator</text>
</g>
<!-- Node5&#45;&gt;Node9 -->
<g id="edge10" class="edge">
<title>Node5&#45;&gt;Node9</title>
<path fill="none" stroke="#191970" d="M635.4963,-56.2455C645.2442,-47.9746 659.4259,-35.9416 670.8798,-26.2232"/>
<polygon fill="#191970" stroke="#191970" points="673.2747,-28.7813 678.6354,-19.6427 668.7459,-23.4437 673.2747,-28.7813"/>
</g>
<!-- Node10 -->
<g id="node11" class="node">
<title>Node10</title>
<polygon fill="none" stroke="#bfbfbf" points="735,-.5 735,-19.5 779,-19.5 779,-.5 735,-.5"/>
<text text-anchor="middle" x="757" y="-7.5" font-family="FreeSans.ttf" font-size="10.00" fill="#000000">limits</text>
</g>
<!-- Node5&#45;&gt;Node10 -->
<g id="edge11" class="edge">
<title>Node5&#45;&gt;Node10</title>
<path fill="none" stroke="#191970" d="M646.8635,-56.3733C668.5355,-47.2482 701.2779,-33.462 725.4331,-23.2913"/>
<polygon fill="#191970" stroke="#191970" points="727.0186,-26.4214 734.8768,-19.315 724.3022,-19.9699 727.0186,-26.4214"/>
</g>
<!-- Node11 -->
<g id="node12" class="node">
<title>Node11</title>
<polygon fill="none" stroke="#bfbfbf" points="797.5,-.5 797.5,-19.5 862.5,-19.5 862.5,-.5 797.5,-.5"/>
<text text-anchor="middle" x="830" y="-7.5" font-family="FreeSans.ttf" font-size="10.00" fill="#000000">stdexcept</text>
</g>
<!-- Node5&#45;&gt;Node11 -->
<g id="edge12" class="edge">
<title>Node5&#45;&gt;Node11</title>
<path fill="none" stroke="#191970" d="M659.4127,-56.3733C694.9997,-46.6991 749.8589,-31.7859 787.7097,-21.4964"/>
<polygon fill="#191970" stroke="#191970" points="788.6919,-24.8565 797.4235,-18.8557 786.8556,-18.1016 788.6919,-24.8565"/>
</g>
<!-- Node12 -->
<g id="node13" class="node">
<title>Node12</title>
<polygon fill="none" stroke="#bfbfbf" points="880.5,-.5 880.5,-19.5 949.5,-19.5 949.5,-.5 880.5,-.5"/>
<text text-anchor="middle" x="915" y="-7.5" font-family="FreeSans.ttf" font-size="10.00" fill="#000000">type_traits</text>
</g>
<!-- Node5&#45;&gt;Node12 -->
<g id="edge13" class="edge">
<title>Node5&#45;&gt;Node12</title>
<path fill="none" stroke="#191970" d="M679.2999,-56.4792C727.3897,-48.0329 799.1826,-35.0243 870.2721,-20.3008"/>
<polygon fill="#191970" stroke="#191970" points="871.2202,-23.6786 880.2959,-18.2122 869.7922,-16.8257 871.2202,-23.6786"/>
</g>
<!-- Node13 -->
<g id="node14" class="node">
<title>Node13</title>
<polygon fill="none" stroke="#bfbfbf" points="457.5,-.5 457.5,-19.5 502.5,-19.5 502.5,-.5 457.5,-.5"/>
<text text-anchor="middle" x="480" y="-7.5" font-family="FreeSans.ttf" font-size="10.00" fill="#000000">utility</text>
</g>
<!-- Node5&#45;&gt;Node13 -->
<g id="edge14" class="edge">
<title>Node5&#45;&gt;Node13</title>
<path fill="none" stroke="#191970" d="M599.2455,-56.3733C575.1447,-47.0007 538.399,-32.7107 512.0707,-22.472"/>
<polygon fill="#191970" stroke="#191970" points="513.127,-19.1274 502.5383,-18.7649 510.5898,-25.6514 513.127,-19.1274"/>
</g>
<!-- Node17&#45;&gt;Node2 -->
<g id="edge32" class="edge">
<title>Node17&#45;&gt;Node2</title>
<path fill="none" stroke="#191970" d="M113.318,-235.3393C94.7287,-228.4646 73.9848,-217.137 63,-199 55.8625,-187.2151 54.1231,-178.537 63,-168 69.1541,-160.6949 175.021,-144.1367 251.568,-133.0112"/>
<polygon fill="#191970" stroke="#191970" points="252.2937,-136.4427 261.6894,-131.5468 251.2913,-129.5149 252.2937,-136.4427"/>
</g>
<!-- Node17&#45;&gt;Node14 -->
<g id="edge20" class="edge">
<title>Node17&#45;&gt;Node14</title>
<path fill="none" stroke="#191970" d="M219.8271,-242.5688C334.9638,-237.7869 556.4076,-225.2574 580,-199 611.5941,-163.8371 564.8151,-109.7739 536.6777,-82.6827"/>
<polygon fill="#191970" stroke="#191970" points="539.0098,-80.0716 529.3165,-75.7949 534.2272,-85.183 539.0098,-80.0716"/>
</g>
<!-- Node18 -->
<g id="node19" class="node">
<title>Node18</title>
<g id="a_node19"><a xlink:href="GeomVector3_8h.html" target="_top" xlink:title="iDynTree/Core/GeomVector3.h">
<polygon fill="none" stroke="#000000" points="248.5,-174 248.5,-193 411.5,-193 411.5,-174 248.5,-174"/>
<text text-anchor="middle" x="330" y="-181" font-family="FreeSans.ttf" font-size="10.00" fill="#000000">iDynTree/Core/GeomVector3.h</text>
</a>
</g>
</g>
<!-- Node17&#45;&gt;Node18 -->
<g id="edge21" class="edge">
<title>Node17&#45;&gt;Node18</title>
<path fill="none" stroke="#191970" d="M178.9688,-235.3906C209.5755,-224.8749 258.7899,-207.966 292.6741,-196.3243"/>
<polygon fill="#191970" stroke="#191970" points="293.9076,-199.6014 302.2276,-193.0419 291.633,-192.9812 293.9076,-199.6014"/>
</g>
<!-- Node19 -->
<g id="node20" class="node">
<title>Node19</title>
<g id="a_node20"><a xlink:href="RotationRaw_8h.html" target="_top" xlink:title="iDynTree/Core/RotationRaw.h">
<polygon fill="none" stroke="#000000" points="72,-174 72,-193 230,-193 230,-174 72,-174"/>
<text text-anchor="middle" x="151" y="-181" font-family="FreeSans.ttf" font-size="10.00" fill="#000000">iDynTree/Core/RotationRaw.h</text>
</a>
</g>
</g>
<!-- Node17&#45;&gt;Node19 -->
<g id="edge23" class="edge">
<title>Node17&#45;&gt;Node19</title>
<path fill="none" stroke="#191970" d="M151,-235.3906C151,-226.8657 151,-214.1392 151,-203.4235"/>
<polygon fill="#191970" stroke="#191970" points="154.5001,-203.2448 151,-193.2449 147.5001,-203.2449 154.5001,-203.2448"/>
</g>
<!-- Node18&#45;&gt;Node2 -->
<g id="edge22" class="edge">
<title>Node18&#45;&gt;Node2</title>
<path fill="none" stroke="#191970" d="M330,-173.8906C330,-165.3657 330,-152.6392 330,-141.9235"/>
<polygon fill="#191970" stroke="#191970" points="333.5001,-141.7448 330,-131.7449 326.5001,-141.7449 333.5001,-141.7448"/>
</g>
<!-- Node19&#45;&gt;Node14 -->
<g id="edge31" class="edge">
<title>Node19&#45;&gt;Node14</title>
<path fill="none" stroke="#191970" d="M203.5512,-173.9983C278.9796,-160.2795 410.0261,-136.1107 420,-132 450.0966,-119.5959 480.5387,-97.208 499.3324,-81.9809"/>
<polygon fill="#191970" stroke="#191970" points="501.6312,-84.6217 507.1046,-75.5502 497.1687,-79.2284 501.6312,-84.6217"/>
</g>
<!-- Node20 -->
<g id="node21" class="node">
<title>Node20</title>
<g id="a_node21"><a xlink:href="MatrixFixSize_8h.html" target="_top" xlink:title="iDynTree/Core/MatrixFixSize.h">
<polygon fill="none" stroke="#000000" points="70.5,-112.5 70.5,-131.5 231.5,-131.5 231.5,-112.5 70.5,-112.5"/>
<text text-anchor="middle" x="151" y="-119.5" font-family="FreeSans.ttf" font-size="10.00" fill="#000000">iDynTree/Core/MatrixFixSize.h</text>
</a>
</g>
</g>
<!-- Node19&#45;&gt;Node20 -->
<g id="edge24" class="edge">
<title>Node19&#45;&gt;Node20</title>
<path fill="none" stroke="#191970" d="M151,-173.8906C151,-165.3657 151,-152.6392 151,-141.9235"/>
<polygon fill="#191970" stroke="#191970" points="154.5001,-141.7448 151,-131.7449 147.5001,-141.7449 154.5001,-141.7448"/>
</g>
<!-- Node20&#45;&gt;Node3 -->
<g id="edge25" class="edge">
<title>Node20&#45;&gt;Node3</title>
<path fill="none" stroke="#191970" d="M196.5956,-112.4369C242.5785,-102.7925 313.6088,-87.8948 362.7606,-77.5858"/>
<polygon fill="#191970" stroke="#191970" points="363.5239,-81.0019 372.5925,-75.5237 362.087,-74.151 363.5239,-81.0019"/>
</g>
<!-- Node20&#45;&gt;Node6 -->
<g id="edge26" class="edge">
<title>Node20&#45;&gt;Node6</title>
<path fill="none" stroke="#191970" d="M150.8343,-112.4984C151.1191,-98.2481 153.8077,-71.3765 169,-56 186.3754,-38.414 251.7318,-23.8907 293.6424,-16.1232"/>
<polygon fill="#191970" stroke="#191970" points="294.5311,-19.5194 303.749,-14.2963 293.2858,-12.631 294.5311,-19.5194"/>
</g>
<!-- Node20&#45;&gt;Node14 -->
<g id="edge28" class="edge">
<title>Node20&#45;&gt;Node14</title>
<path fill="none" stroke="#191970" d="M231.7554,-112.6034C310.5415,-103.1556 425.9381,-88.5048 485.6467,-75.9268"/>
<polygon fill="#191970" stroke="#191970" points="486.7716,-79.2627 495.7795,-73.6852 485.2595,-72.4279 486.7716,-79.2627"/>
</g>
<!-- Node20&#45;&gt;Node15 -->
<g id="edge30" class="edge">
<title>Node20&#45;&gt;Node15</title>
<path fill="none" stroke="#191970" d="M160.5803,-112.2455C168.5458,-104.1352 180.0641,-92.4075 189.5079,-82.7919"/>
<polygon fill="#191970" stroke="#191970" points="192.0195,-85.2297 196.5295,-75.6427 187.0253,-80.3247 192.0195,-85.2297"/>
</g>
<!-- Node20&#45;&gt;Node16 -->
<g id="edge27" class="edge">
<title>Node20&#45;&gt;Node16</title>
<path fill="none" stroke="#191970" d="M172.6602,-112.3733C192.9772,-103.3435 223.564,-89.7494 246.375,-79.6111"/>
<polygon fill="#191970" stroke="#191970" points="247.9059,-82.7609 255.6225,-75.5011 245.0628,-76.3642 247.9059,-82.7609"/>
</g>
<!-- Node20&#45;&gt;Node21 -->
<g id="edge29" class="edge">
<title>Node20&#45;&gt;Node21</title>
<path fill="none" stroke="#191970" d="M130.1994,-112.3733C110.7757,-103.3838 81.5776,-89.8706 59.7036,-79.7471"/>
<polygon fill="#191970" stroke="#191970" points="61.0745,-76.5249 50.5292,-75.5011 58.1344,-82.8776 61.0745,-76.5249"/>
</g>
<!-- Node22&#45;&gt;Node3 -->
<g id="edge40" class="edge">
<title>Node22&#45;&gt;Node3</title>
<path fill="none" stroke="#191970" d="M665.7427,-168.4992C609.9959,-145.4349 504.0871,-101.617 450.6187,-79.4954"/>
<polygon fill="#191970" stroke="#191970" points="451.8476,-76.2162 441.2692,-75.6272 449.1715,-82.6844 451.8476,-76.2162"/>
</g>
<!-- Node23 -->
<g id="node24" class="node">
<title>Node23</title>
<g id="a_node24"><a xlink:href="VectorDynSize_8h.html" target="_top" xlink:title="iDynTree/Core/VectorDynSize.h">
<polygon fill="none" stroke="#000000" points="868.5,-112.5 868.5,-131.5 1035.5,-131.5 1035.5,-112.5 868.5,-112.5"/>
<text text-anchor="middle" x="952" y="-119.5" font-family="FreeSans.ttf" font-size="10.00" fill="#000000">iDynTree/Core/VectorDynSize.h</text>
</a>
</g>
</g>
<!-- Node22&#45;&gt;Node23 -->
<g id="edge35" class="edge">
<title>Node22&#45;&gt;Node23</title>
<path fill="none" stroke="#191970" d="M763.1569,-168.4554C806.3336,-157.8339 863.4021,-143.7951 903.46,-133.9408"/>
<polygon fill="#191970" stroke="#191970" points="904.3845,-137.3178 913.2589,-131.5303 902.7123,-130.5205 904.3845,-137.3178"/>
</g>
<!-- Node24 -->
<g id="node25" class="node">
<title>Node24</title>
<g id="a_node25"><a xlink:href="MatrixDynSize_8h.html" target="_top" xlink:title="iDynTree/Core/MatrixDynSize.h">
<polygon fill="none" stroke="#000000" points="618.5,-112.5 618.5,-131.5 785.5,-131.5 785.5,-112.5 618.5,-112.5"/>
<text text-anchor="middle" x="702" y="-119.5" font-family="FreeSans.ttf" font-size="10.00" fill="#000000">iDynTree/Core/MatrixDynSize.h</text>
</a>
</g>
</g>
<!-- Node22&#45;&gt;Node24 -->
<g id="edge38" class="edge">
<title>Node22&#45;&gt;Node24</title>
<path fill="none" stroke="#191970" d="M702,-168.2977C702,-160.3834 702,-150.6043 702,-142.0759"/>
<polygon fill="#191970" stroke="#191970" points="705.5001,-141.8469 702,-131.8469 698.5001,-141.847 705.5001,-141.8469"/>
</g>
<!-- Node25 -->
<g id="node26" class="node">
<title>Node25</title>
<polygon fill="none" stroke="#bfbfbf" points="803.5,-112.5 803.5,-131.5 850.5,-131.5 850.5,-112.5 803.5,-112.5"/>
<text text-anchor="middle" x="827" y="-119.5" font-family="FreeSans.ttf" font-size="10.00" fill="#000000">vector</text>
</g>
<!-- Node22&#45;&gt;Node25 -->
<g id="edge41" class="edge">
<title>Node22&#45;&gt;Node25</title>
<path fill="none" stroke="#191970" d="M732.5784,-168.4554C752.7032,-158.554 778.8639,-145.683 798.5438,-136.0004"/>
<polygon fill="#191970" stroke="#191970" points="800.2018,-139.0855 807.6294,-131.5303 797.1115,-132.8045 800.2018,-139.0855"/>
</g>
<!-- Node23&#45;&gt;Node5 -->
<g id="edge36" class="edge">
<title>Node23&#45;&gt;Node5</title>
<path fill="none" stroke="#191970" d="M895.9875,-112.4369C838.9094,-102.6918 750.4158,-87.5832 689.9776,-77.2645"/>
<polygon fill="#191970" stroke="#191970" points="690.2279,-73.7566 679.7815,-75.5237 689.0498,-80.6568 690.2279,-73.7566"/>
</g>
<!-- Node23&#45;&gt;Node14 -->
<g id="edge37" class="edge">
<title>Node23&#45;&gt;Node14</title>
<path fill="none" stroke="#191970" d="M868.1153,-112.6017C756.1723,-100.0127 570.1613,-78.9105 555,-76 553.3377,-75.6809 551.6405,-75.3265 549.9316,-74.9469"/>
<polygon fill="#191970" stroke="#191970" points="550.7247,-71.5378 540.1801,-72.5688 549.0661,-78.3385 550.7247,-71.5378"/>
</g>
<!-- Node24&#45;&gt;Node14 -->
<g id="edge39" class="edge">
<title>Node24&#45;&gt;Node14</title>
<path fill="none" stroke="#191970" d="M670.3693,-112.3733C636.7538,-102.1425 583.8862,-86.0523 550.0948,-75.768"/>
<polygon fill="#191970" stroke="#191970" points="550.8485,-72.3389 540.2627,-72.7756 548.8103,-79.0356 550.8485,-72.3389"/>
</g>
<!-- Node26&#45;&gt;Node2 -->
<g id="edge44" class="edge">
<title>Node26&#45;&gt;Node2</title>
<path fill="none" stroke="#191970" d="M473.4375,-173.8906C444.4944,-163.42 398.0306,-146.6111 365.8644,-134.9745"/>
<polygon fill="#191970" stroke="#191970" points="366.9702,-131.6526 356.376,-131.5419 364.5889,-138.2351 366.9702,-131.6526"/>
</g>
<!-- Node26&#45;&gt;Node3 -->
<g id="edge45" class="edge">
<title>Node26&#45;&gt;Node3</title>
<path fill="none" stroke="#191970" d="M493.2896,-173.8845C479.5949,-154.261 448.237,-109.3274 430.6156,-84.0772"/>
<polygon fill="#191970" stroke="#191970" points="433.3963,-81.9459 424.8031,-75.7484 427.6559,-85.9519 433.3963,-81.9459"/>
</g>
<!-- Node26&#45;&gt;Node14 -->
<g id="edge43" class="edge">
<title>Node26&#45;&gt;Node14</title>
<path fill="none" stroke="#191970" d="M501.473,-173.8845C504.4132,-154.6913 511.0626,-111.286 514.972,-85.7663"/>
<polygon fill="#191970" stroke="#191970" points="518.4519,-86.1631 516.5066,-75.7484 511.5327,-85.1031 518.4519,-86.1631"/>
</g>
</g>
</svg>
