<?xml version="1.0" encoding="UTF-8" standalone="no"?>
<!DOCTYPE svg PUBLIC "-//W3C//DTD SVG 1.1//EN"
 "http://www.w3.org/Graphics/SVG/1.1/DTD/svg11.dtd">
<!-- Generated by graphviz version 2.40.1 (20161225.0304)
 -->
<!-- Title: Axis.cpp Pages: 1 -->
<svg width="1531pt" height="543pt"
 viewBox="0.00 0.00 1531.01 543.00" xmlns="http://www.w3.org/2000/svg" xmlns:xlink="http://www.w3.org/1999/xlink">
<g id="graph0" class="graph" transform="scale(1 1) rotate(0) translate(4 539)">
<title>Axis.cpp</title>
<!-- Node0 -->
<g id="node1" class="node">
<title>Node0</title>
<polygon fill="#bfbfbf" stroke="#000000" points="1221.0088,-515.5 1221.0088,-534.5 1279.0088,-534.5 1279.0088,-515.5 1221.0088,-515.5"/>
<text text-anchor="middle" x="1250.0088" y="-522.5" font-family="FreeSans.ttf" font-size="10.00" fill="#000000">Axis.cpp</text>
</g>
<!-- Node1 -->
<g id="node2" class="node">
<title>Node1</title>
<g id="a_node2"><a xlink:href="Axis_8h.html" target="_top" xlink:title="iDynTree/Core/Axis.h">
<polygon fill="none" stroke="#000000" points="93.0088,-336.5 93.0088,-355.5 211.0088,-355.5 211.0088,-336.5 93.0088,-336.5"/>
<text text-anchor="middle" x="152.0088" y="-343.5" font-family="FreeSans.ttf" font-size="10.00" fill="#000000">iDynTree/Core/Axis.h</text>
</a>
</g>
</g>
<!-- Node0&#45;&gt;Node1 -->
<g id="edge1" class="edge">
<title>Node0&#45;&gt;Node1</title>
<path fill="none" stroke="#191970" d="M1220.6382,-522.2131C1155.6406,-515.8954 994.7877,-499.4335 861.0088,-479 615.9069,-441.563 325.8672,-382.4854 206.9871,-357.6295"/>
<polygon fill="#191970" stroke="#191970" points="207.5393,-354.1692 197.0341,-355.5447 206.1041,-361.0206 207.5393,-354.1692"/>
</g>
<!-- Node16 -->
<g id="node17" class="node">
<title>Node16</title>
<polygon fill="none" stroke="#bfbfbf" points="1172.0088,-56.5 1172.0088,-75.5 1228.0088,-75.5 1228.0088,-56.5 1172.0088,-56.5"/>
<text text-anchor="middle" x="1200.0088" y="-63.5" font-family="FreeSans.ttf" font-size="10.00" fill="#000000">sstream</text>
</g>
<!-- Node0&#45;&gt;Node16 -->
<g id="edge67" class="edge">
<title>Node0&#45;&gt;Node16</title>
<path fill="none" stroke="#191970" d="M1255.4532,-515.2863C1265.9606,-495.599 1288.0088,-449.3072 1288.0088,-407.5 1288.0088,-407.5 1288.0088,-407.5 1288.0088,-178 1288.0088,-136.2321 1249.7003,-100.8241 1223.6345,-81.5662"/>
<polygon fill="#191970" stroke="#191970" points="1225.5157,-78.6092 1215.3372,-75.6685 1221.4603,-84.3148 1225.5157,-78.6092"/>
</g>
<!-- Node25 -->
<g id="node26" class="node">
<title>Node25</title>
<g id="a_node26"><a xlink:href="Transform_8h.html" target="_top" xlink:title="iDynTree/Core/Transform.h">
<polygon fill="none" stroke="#000000" points="525.0088,-336.5 525.0088,-355.5 671.0088,-355.5 671.0088,-336.5 525.0088,-336.5"/>
<text text-anchor="middle" x="598.0088" y="-343.5" font-family="FreeSans.ttf" font-size="10.00" fill="#000000">iDynTree/Core/Transform.h</text>
</a>
</g>
</g>
<!-- Node0&#45;&gt;Node25 -->
<g id="edge43" class="edge">
<title>Node0&#45;&gt;Node25</title>
<path fill="none" stroke="#191970" d="M1220.8361,-523.2784C1163.3511,-519.3617 1031.7472,-507.7892 925.0088,-479 810.297,-448.0602 681.8008,-387.7105 626.1791,-360.2357"/>
<polygon fill="#191970" stroke="#191970" points="627.4797,-356.9737 616.9672,-355.6559 624.3634,-363.2418 627.4797,-356.9737"/>
</g>
<!-- Node26 -->
<g id="node27" class="node">
<title>Node26</title>
<g id="a_node27"><a xlink:href="TransformDerivative_8h.html" target="_top" xlink:title="iDynTree/Core/TransformDerivative.h">
<polygon fill="none" stroke="#000000" points="986.5088,-168.5 986.5088,-187.5 1183.5088,-187.5 1183.5088,-168.5 986.5088,-168.5"/>
<text text-anchor="middle" x="1085.0088" y="-175.5" font-family="FreeSans.ttf" font-size="10.00" fill="#000000">iDynTree/Core/TransformDerivative.h</text>
</a>
</g>
</g>
<!-- Node0&#45;&gt;Node26 -->
<g id="edge48" class="edge">
<title>Node0&#45;&gt;Node26</title>
<path fill="none" stroke="#191970" d="M1250.0088,-515.2511C1250.0088,-495.1182 1250.0088,-447.4826 1250.0088,-407.5 1250.0088,-407.5 1250.0088,-407.5 1250.0088,-290 1250.0088,-235.0984 1186.6984,-205.2384 1138.511,-190.4624"/>
<polygon fill="#191970" stroke="#191970" points="1139.373,-187.068 1128.7925,-187.62 1137.4079,-193.7865 1139.373,-187.068"/>
</g>
<!-- Node27 -->
<g id="node28" class="node">
<title>Node27</title>
<g id="a_node28"><a xlink:href="Twist_8h.html" target="_top" xlink:title="iDynTree/Core/Twist.h">
<polygon fill="none" stroke="#000000" points="1100.0088,-459.5 1100.0088,-478.5 1222.0088,-478.5 1222.0088,-459.5 1100.0088,-459.5"/>
<text text-anchor="middle" x="1161.0088" y="-466.5" font-family="FreeSans.ttf" font-size="10.00" fill="#000000">iDynTree/Core/Twist.h</text>
</a>
</g>
</g>
<!-- Node0&#45;&gt;Node27 -->
<g id="edge51" class="edge">
<title>Node0&#45;&gt;Node27</title>
<path fill="none" stroke="#191970" d="M1234.5061,-515.2455C1220.8508,-506.6534 1200.7431,-494.0014 1185.0098,-484.1018"/>
<polygon fill="#191970" stroke="#191970" points="1186.6616,-481.006 1176.3337,-478.6427 1182.9337,-486.9307 1186.6616,-481.006"/>
</g>
<!-- Node30 -->
<g id="node31" class="node">
<title>Node30</title>
<g id="a_node31"><a xlink:href="SpatialAcc_8h.html" target="_top" xlink:title="iDynTree/Core/SpatialAcc.h">
<polygon fill="none" stroke="#000000" points="934.0088,-459.5 934.0088,-478.5 1082.0088,-478.5 1082.0088,-459.5 934.0088,-459.5"/>
<text text-anchor="middle" x="1008.0088" y="-466.5" font-family="FreeSans.ttf" font-size="10.00" fill="#000000">iDynTree/Core/SpatialAcc.h</text>
</a>
</g>
</g>
<!-- Node0&#45;&gt;Node30 -->
<g id="edge62" class="edge">
<title>Node0&#45;&gt;Node30</title>
<path fill="none" stroke="#191970" d="M1220.8179,-518.2451C1180.8306,-508.9918 1108.3914,-492.229 1059.2562,-480.8589"/>
<polygon fill="#191970" stroke="#191970" points="1059.9826,-477.4346 1049.451,-478.5899 1058.4045,-484.2544 1059.9826,-477.4346"/>
</g>
<!-- Node31 -->
<g id="node32" class="node">
<title>Node31</title>
<polygon fill="none" stroke="#bfbfbf" points="1316.5088,-459.5 1316.5088,-478.5 1393.5088,-478.5 1393.5088,-459.5 1316.5088,-459.5"/>
<text text-anchor="middle" x="1355.0088" y="-466.5" font-family="FreeSans.ttf" font-size="10.00" fill="#000000">Eigen/Dense</text>
</g>
<!-- Node0&#45;&gt;Node31 -->
<g id="edge64" class="edge">
<title>Node0&#45;&gt;Node31</title>
<path fill="none" stroke="#191970" d="M1268.2984,-515.2455C1284.785,-506.4527 1309.2439,-493.4079 1327.9853,-483.4125"/>
<polygon fill="#191970" stroke="#191970" points="1329.7523,-486.4368 1336.9287,-478.6427 1326.4581,-480.2604 1329.7523,-486.4368"/>
</g>
<!-- Node32 -->
<g id="node33" class="node">
<title>Node32</title>
<polygon fill="none" stroke="#bfbfbf" points="1411.5088,-459.5 1411.5088,-478.5 1458.5088,-478.5 1458.5088,-459.5 1411.5088,-459.5"/>
<text text-anchor="middle" x="1435.0088" y="-466.5" font-family="FreeSans.ttf" font-size="10.00" fill="#000000">cmath</text>
</g>
<!-- Node0&#45;&gt;Node32 -->
<g id="edge65" class="edge">
<title>Node0&#45;&gt;Node32</title>
<path fill="none" stroke="#191970" d="M1279.0836,-516.3605C1307.9577,-507.7583 1353.7366,-494.06 1401.6461,-479.3992"/>
<polygon fill="#191970" stroke="#191970" points="1402.7164,-482.7319 1411.252,-476.4554 1400.6653,-476.0391 1402.7164,-482.7319"/>
</g>
<!-- Node33 -->
<g id="node34" class="node">
<title>Node33</title>
<polygon fill="none" stroke="#bfbfbf" points="1477.0088,-459.5 1477.0088,-478.5 1523.0088,-478.5 1523.0088,-459.5 1477.0088,-459.5"/>
<text text-anchor="middle" x="1500.0088" y="-466.5" font-family="FreeSans.ttf" font-size="10.00" fill="#000000">cstdio</text>
</g>
<!-- Node0&#45;&gt;Node33 -->
<g id="edge66" class="edge">
<title>Node0&#45;&gt;Node33</title>
<path fill="none" stroke="#191970" d="M1279.1293,-519.7665C1319.3226,-512.3462 1394.2212,-497.8127 1466.8924,-479.1191"/>
<polygon fill="#191970" stroke="#191970" points="1467.8677,-482.4819 1476.664,-476.5763 1466.1048,-475.7075 1467.8677,-482.4819"/>
</g>
<!-- Node2 -->
<g id="node3" class="node">
<title>Node2</title>
<polygon fill="none" stroke="#bfbfbf" points="304.0088,-56.5 304.0088,-75.5 348.0088,-75.5 348.0088,-56.5 304.0088,-56.5"/>
<text text-anchor="middle" x="326.0088" y="-63.5" font-family="FreeSans.ttf" font-size="10.00" fill="#000000">string</text>
</g>
<!-- Node1&#45;&gt;Node2 -->
<g id="edge2" class="edge">
<title>Node1&#45;&gt;Node2</title>
<path fill="none" stroke="#191970" d="M115.2138,-336.4434C70.229,-322.2795 .0088,-291.0354 .0088,-234 .0088,-234 .0088,-234 .0088,-178 .0088,-146.7875 -.1314,-131.7858 24.0088,-112 64.7933,-78.5721 224.4481,-69.3205 293.6856,-66.856"/>
<polygon fill="#191970" stroke="#191970" points="294.1102,-70.344 303.9894,-66.516 293.8794,-63.3478 294.1102,-70.344"/>
</g>
<!-- Node3 -->
<g id="node4" class="node">
<title>Node3</title>
<g id="a_node4"><a xlink:href="Direction_8h.html" target="_top" xlink:title="iDynTree/Core/Direction.h">
<polygon fill="none" stroke="#000000" points="354.5088,-168.5 354.5088,-187.5 495.5088,-187.5 495.5088,-168.5 354.5088,-168.5"/>
<text text-anchor="middle" x="425.0088" y="-175.5" font-family="FreeSans.ttf" font-size="10.00" fill="#000000">iDynTree/Core/Direction.h</text>
</a>
</g>
</g>
<!-- Node1&#45;&gt;Node3 -->
<g id="edge3" class="edge">
<title>Node1&#45;&gt;Node3</title>
<path fill="none" stroke="#191970" d="M167.4686,-336.4862C212.7852,-308.5991 345.5581,-226.8927 400.6336,-193.0001"/>
<polygon fill="#191970" stroke="#191970" points="402.6978,-195.8395 409.3801,-187.6177 399.0291,-189.8779 402.6978,-195.8395"/>
</g>
<!-- Node5 -->
<g id="node6" class="node">
<title>Node5</title>
<g id="a_node6"><a xlink:href="Utils_8h.html" target="_top" xlink:title="iDynTree/Core/Utils.h">
<polygon fill="none" stroke="#000000" points="557.5088,-56.5 557.5088,-75.5 676.5088,-75.5 676.5088,-56.5 557.5088,-56.5"/>
<text text-anchor="middle" x="617.0088" y="-63.5" font-family="FreeSans.ttf" font-size="10.00" fill="#000000">iDynTree/Core/Utils.h</text>
</a>
</g>
</g>
<!-- Node1&#45;&gt;Node5 -->
<g id="edge42" class="edge">
<title>Node1&#45;&gt;Node5</title>
<path fill="none" stroke="#191970" d="M146.6244,-336.1542C131.3924,-306.8255 91.6967,-218.9257 133.0088,-168 184.328,-104.7384 425.406,-79.2219 546.7984,-70.2497"/>
<polygon fill="#191970" stroke="#191970" points="547.3776,-73.7171 557.0999,-69.5068 546.8741,-66.7352 547.3776,-73.7171"/>
</g>
<!-- Node18 -->
<g id="node19" class="node">
<title>Node18</title>
<g id="a_node19"><a xlink:href="Position_8h.html" target="_top" xlink:title="iDynTree/Core/Position.h">
<polygon fill="none" stroke="#000000" points="324.0088,-280.5 324.0088,-299.5 460.0088,-299.5 460.0088,-280.5 324.0088,-280.5"/>
<text text-anchor="middle" x="392.0088" y="-287.5" font-family="FreeSans.ttf" font-size="10.00" fill="#000000">iDynTree/Core/Position.h</text>
</a>
</g>
</g>
<!-- Node1&#45;&gt;Node18 -->
<g id="edge23" class="edge">
<title>Node1&#45;&gt;Node18</title>
<path fill="none" stroke="#191970" d="M192.9935,-336.4369C233.9814,-326.8731 297.1092,-312.1432 341.2445,-301.845"/>
<polygon fill="#191970" stroke="#191970" points="342.2499,-305.2045 351.193,-299.5237 340.6593,-298.3876 342.2499,-305.2045"/>
</g>
<!-- Node3&#45;&gt;Node2 -->
<g id="edge4" class="edge">
<title>Node3&#45;&gt;Node2</title>
<path fill="none" stroke="#191970" d="M416.5681,-168.4509C399.8369,-149.5227 362.2622,-107.014 341.1486,-83.1279"/>
<polygon fill="#191970" stroke="#191970" points="343.6734,-80.6994 334.4281,-75.5249 338.4286,-85.3354 343.6734,-80.6994"/>
</g>
<!-- Node4 -->
<g id="node5" class="node">
<title>Node4</title>
<g id="a_node5"><a xlink:href="VectorFixSize_8h.html" target="_top" xlink:title="iDynTree/Core/VectorFixSize.h">
<polygon fill="none" stroke="#000000" points="742.5088,-112.5 742.5088,-131.5 903.5088,-131.5 903.5088,-112.5 742.5088,-112.5"/>
<text text-anchor="middle" x="823.0088" y="-119.5" font-family="FreeSans.ttf" font-size="10.00" fill="#000000">iDynTree/Core/VectorFixSize.h</text>
</a>
</g>
</g>
<!-- Node3&#45;&gt;Node4 -->
<g id="edge5" class="edge">
<title>Node3&#45;&gt;Node4</title>
<path fill="none" stroke="#191970" d="M492.9752,-168.4369C562.9501,-158.5912 671.8366,-143.2705 745.2124,-132.9462"/>
<polygon fill="#191970" stroke="#191970" points="745.9079,-136.3829 755.3227,-131.5237 744.9325,-129.4512 745.9079,-136.3829"/>
</g>
<!-- Node3&#45;&gt;Node5 -->
<g id="edge22" class="edge">
<title>Node3&#45;&gt;Node5</title>
<path fill="none" stroke="#191970" d="M441.3786,-168.4509C474.9605,-148.8615 551.8398,-104.0152 591.8181,-80.6945"/>
<polygon fill="#191970" stroke="#191970" points="593.8061,-83.5869 600.6804,-75.5249 590.279,-77.5404 593.8061,-83.5869"/>
</g>
<!-- Node4&#45;&gt;Node2 -->
<g id="edge18" class="edge">
<title>Node4&#45;&gt;Node2</title>
<path fill="none" stroke="#191970" d="M742.328,-112.9092C631.0082,-100.3661 435.3464,-78.3197 358.3961,-69.6493"/>
<polygon fill="#191970" stroke="#191970" points="358.6761,-66.1588 348.3471,-68.517 357.8923,-73.1148 358.6761,-66.1588"/>
</g>
<!-- Node4&#45;&gt;Node5 -->
<g id="edge6" class="edge">
<title>Node4&#45;&gt;Node5</title>
<path fill="none" stroke="#191970" d="M787.5961,-112.3733C752.7483,-102.9001 699.4206,-88.4032 661.6794,-78.1435"/>
<polygon fill="#191970" stroke="#191970" points="662.5273,-74.747 651.9593,-75.5011 660.691,-81.5019 662.5273,-74.747"/>
</g>
<!-- Node7 -->
<g id="node8" class="node">
<title>Node7</title>
<g id="a_node8"><a xlink:href="Span_8h.html" target="_top" xlink:title="iDynTree/Core/Span.h">
<polygon fill="none" stroke="#000000" points="759.5088,-56.5 759.5088,-75.5 880.5088,-75.5 880.5088,-56.5 759.5088,-56.5"/>
<text text-anchor="middle" x="820.0088" y="-63.5" font-family="FreeSans.ttf" font-size="10.00" fill="#000000">iDynTree/Core/Span.h</text>
</a>
</g>
</g>
<!-- Node4&#45;&gt;Node7 -->
<g id="edge8" class="edge">
<title>Node4&#45;&gt;Node7</title>
<path fill="none" stroke="#191970" d="M822.4862,-112.2455C822.0947,-104.9382 821.546,-94.6944 821.0644,-85.7046"/>
<polygon fill="#191970" stroke="#191970" points="824.5554,-85.4411 820.5253,-75.6427 817.5654,-85.8156 824.5554,-85.4411"/>
</g>
<!-- Node8 -->
<g id="node9" class="node">
<title>Node8</title>
<polygon fill="none" stroke="#bfbfbf" points="1075.0088,-.5 1075.0088,-19.5 1127.0088,-19.5 1127.0088,-.5 1075.0088,-.5"/>
<text text-anchor="middle" x="1101.0088" y="-7.5" font-family="FreeSans.ttf" font-size="10.00" fill="#000000">cassert</text>
</g>
<!-- Node4&#45;&gt;Node8 -->
<g id="edge20" class="edge">
<title>Node4&#45;&gt;Node8</title>
<path fill="none" stroke="#191970" d="M846.48,-112.4601C878.1422,-99.5992 936.3023,-76.0044 986.0088,-56 1013.4128,-44.9712 1044.5213,-32.5327 1067.4672,-23.3733"/>
<polygon fill="#191970" stroke="#191970" points="1068.7762,-26.6194 1076.7668,-19.6623 1066.1818,-20.118 1068.7762,-26.6194"/>
</g>
<!-- Node4&#45;&gt;Node16 -->
<g id="edge19" class="edge">
<title>Node4&#45;&gt;Node16</title>
<path fill="none" stroke="#191970" d="M887.389,-112.4369C966.2777,-100.7187 1097.3778,-81.2449 1161.8382,-71.6699"/>
<polygon fill="#191970" stroke="#191970" points="1162.5865,-75.0972 1171.9637,-70.1658 1161.5579,-68.1732 1162.5865,-75.0972"/>
</g>
<!-- Node17 -->
<g id="node18" class="node">
<title>Node17</title>
<polygon fill="none" stroke="#bfbfbf" points="995.0088,-56.5 995.0088,-75.5 1045.0088,-75.5 1045.0088,-56.5 995.0088,-56.5"/>
<text text-anchor="middle" x="1020.0088" y="-63.5" font-family="FreeSans.ttf" font-size="10.00" fill="#000000">cstring</text>
</g>
<!-- Node4&#45;&gt;Node17 -->
<g id="edge21" class="edge">
<title>Node4&#45;&gt;Node17</title>
<path fill="none" stroke="#191970" d="M856.8743,-112.3733C892.7728,-102.1686 949.1784,-86.1345 985.3687,-75.8469"/>
<polygon fill="#191970" stroke="#191970" points="986.3444,-79.2083 995.0063,-73.1073 984.4303,-72.4751 986.3444,-79.2083"/>
</g>
<!-- Node6 -->
<g id="node7" class="node">
<title>Node6</title>
<polygon fill="none" stroke="#bfbfbf" points="494.5088,-.5 494.5088,-19.5 547.5088,-19.5 547.5088,-.5 494.5088,-.5"/>
<text text-anchor="middle" x="521.0088" y="-7.5" font-family="FreeSans.ttf" font-size="10.00" fill="#000000">cstddef</text>
</g>
<!-- Node5&#45;&gt;Node6 -->
<g id="edge7" class="edge">
<title>Node5&#45;&gt;Node6</title>
<path fill="none" stroke="#191970" d="M600.2868,-56.2455C585.4198,-47.5731 563.4622,-34.7645 546.423,-24.825"/>
<polygon fill="#191970" stroke="#191970" points="547.9404,-21.6582 537.5391,-19.6427 544.4133,-27.7047 547.9404,-21.6582"/>
</g>
<!-- Node7&#45;&gt;Node6 -->
<g id="edge12" class="edge">
<title>Node7&#45;&gt;Node6</title>
<path fill="none" stroke="#191970" d="M759.3513,-57.1162C708.1292,-49.2222 632.6728,-36.6779 557.7567,-19.9917"/>
<polygon fill="#191970" stroke="#191970" points="558.1963,-16.503 547.6715,-17.7191 556.6575,-23.3318 558.1963,-16.503"/>
</g>
<!-- Node7&#45;&gt;Node8 -->
<g id="edge9" class="edge">
<title>Node7&#45;&gt;Node8</title>
<path fill="none" stroke="#191970" d="M879.4848,-56.4809C927.1661,-48.4851 995.9685,-36.1337 1064.5848,-20.1803"/>
<polygon fill="#191970" stroke="#191970" points="1065.7714,-23.4968 1074.7046,-17.8005 1064.1689,-16.6827 1065.7714,-23.4968"/>
</g>
<!-- Node9 -->
<g id="node10" class="node">
<title>Node9</title>
<polygon fill="none" stroke="#bfbfbf" points="933.0088,-.5 933.0088,-19.5 997.0088,-19.5 997.0088,-.5 933.0088,-.5"/>
<text text-anchor="middle" x="965.0088" y="-7.5" font-family="FreeSans.ttf" font-size="10.00" fill="#000000">algorithm</text>
</g>
<!-- Node7&#45;&gt;Node9 -->
<g id="edge10" class="edge">
<title>Node7&#45;&gt;Node9</title>
<path fill="none" stroke="#191970" d="M844.9351,-56.3733C868.6289,-47.2226 904.4598,-33.3844 930.8155,-23.2057"/>
<polygon fill="#191970" stroke="#191970" points="932.3401,-26.3689 940.4076,-19.5011 929.8182,-19.8389 932.3401,-26.3689"/>
</g>
<!-- Node10 -->
<g id="node11" class="node">
<title>Node10</title>
<polygon fill="none" stroke="#bfbfbf" points="1015.0088,-.5 1015.0088,-19.5 1057.0088,-19.5 1057.0088,-.5 1015.0088,-.5"/>
<text text-anchor="middle" x="1036.0088" y="-7.5" font-family="FreeSans.ttf" font-size="10.00" fill="#000000">array</text>
</g>
<!-- Node7&#45;&gt;Node10 -->
<g id="edge11" class="edge">
<title>Node7&#45;&gt;Node10</title>
<path fill="none" stroke="#191970" d="M862.7413,-56.4475C898.4623,-48.2352 950.9252,-35.6486 1005.0121,-20.1368"/>
<polygon fill="#191970" stroke="#191970" points="1006.137,-23.4549 1014.7688,-17.3114 1004.1898,-16.7311 1006.137,-23.4549"/>
</g>
<!-- Node11 -->
<g id="node12" class="node">
<title>Node11</title>
<polygon fill="none" stroke="#bfbfbf" points="565.5088,-.5 565.5088,-19.5 618.5088,-19.5 618.5088,-.5 565.5088,-.5"/>
<text text-anchor="middle" x="592.0088" y="-7.5" font-family="FreeSans.ttf" font-size="10.00" fill="#000000">iterator</text>
</g>
<!-- Node7&#45;&gt;Node11 -->
<g id="edge13" class="edge">
<title>Node7&#45;&gt;Node11</title>
<path fill="none" stroke="#191970" d="M778.3289,-56.4677C741.4964,-47.9426 686.085,-34.8716 628.6936,-20.1114"/>
<polygon fill="#191970" stroke="#191970" points="629.2742,-16.6466 618.7165,-17.5334 627.5228,-23.4239 629.2742,-16.6466"/>
</g>
<!-- Node12 -->
<g id="node13" class="node">
<title>Node12</title>
<polygon fill="none" stroke="#bfbfbf" points="637.0088,-.5 637.0088,-19.5 681.0088,-19.5 681.0088,-.5 637.0088,-.5"/>
<text text-anchor="middle" x="659.0088" y="-7.5" font-family="FreeSans.ttf" font-size="10.00" fill="#000000">limits</text>
</g>
<!-- Node7&#45;&gt;Node12 -->
<g id="edge14" class="edge">
<title>Node7&#45;&gt;Node12</title>
<path fill="none" stroke="#191970" d="M792.3319,-56.3733C764.0604,-46.5397 720.2262,-31.293 690.6095,-20.9916"/>
<polygon fill="#191970" stroke="#191970" points="691.7484,-17.6821 681.1536,-17.7026 689.4487,-24.2936 691.7484,-17.6821"/>
</g>
<!-- Node13 -->
<g id="node14" class="node">
<title>Node13</title>
<polygon fill="none" stroke="#bfbfbf" points="699.5088,-.5 699.5088,-19.5 764.5088,-19.5 764.5088,-.5 699.5088,-.5"/>
<text text-anchor="middle" x="732.0088" y="-7.5" font-family="FreeSans.ttf" font-size="10.00" fill="#000000">stdexcept</text>
</g>
<!-- Node7&#45;&gt;Node13 -->
<g id="edge15" class="edge">
<title>Node7&#45;&gt;Node13</title>
<path fill="none" stroke="#191970" d="M804.6803,-56.2455C791.1784,-47.6534 771.2966,-35.0014 755.7402,-25.1018"/>
<polygon fill="#191970" stroke="#191970" points="757.4772,-22.0587 747.1615,-19.6427 753.7191,-27.9643 757.4772,-22.0587"/>
</g>
<!-- Node14 -->
<g id="node15" class="node">
<title>Node14</title>
<polygon fill="none" stroke="#bfbfbf" points="782.5088,-.5 782.5088,-19.5 851.5088,-19.5 851.5088,-.5 782.5088,-.5"/>
<text text-anchor="middle" x="817.0088" y="-7.5" font-family="FreeSans.ttf" font-size="10.00" fill="#000000">type_traits</text>
</g>
<!-- Node7&#45;&gt;Node14 -->
<g id="edge16" class="edge">
<title>Node7&#45;&gt;Node14</title>
<path fill="none" stroke="#191970" d="M819.4862,-56.2455C819.0947,-48.9382 818.546,-38.6944 818.0644,-29.7046"/>
<polygon fill="#191970" stroke="#191970" points="821.5554,-29.4411 817.5253,-19.6427 814.5654,-29.8156 821.5554,-29.4411"/>
</g>
<!-- Node15 -->
<g id="node16" class="node">
<title>Node15</title>
<polygon fill="none" stroke="#bfbfbf" points="869.5088,-.5 869.5088,-19.5 914.5088,-19.5 914.5088,-.5 869.5088,-.5"/>
<text text-anchor="middle" x="892.0088" y="-7.5" font-family="FreeSans.ttf" font-size="10.00" fill="#000000">utility</text>
</g>
<!-- Node7&#45;&gt;Node15 -->
<g id="edge17" class="edge">
<title>Node7&#45;&gt;Node15</title>
<path fill="none" stroke="#191970" d="M832.5502,-56.2455C843.2875,-47.8943 858.9561,-35.7076 871.5134,-25.9408"/>
<polygon fill="#191970" stroke="#191970" points="873.8663,-28.5449 879.611,-19.6427 869.5687,-23.0194 873.8663,-28.5449"/>
</g>
<!-- Node18&#45;&gt;Node2 -->
<g id="edge41" class="edge">
<title>Node18&#45;&gt;Node2</title>
<path fill="none" stroke="#191970" d="M353.3549,-280.454C287.6335,-263.3549 158.7127,-225.7483 133.0088,-188 88.8529,-123.1537 228.3215,-85.6557 293.8874,-71.9774"/>
<polygon fill="#191970" stroke="#191970" points="294.6283,-75.3985 303.7364,-69.986 293.2411,-68.5373 294.6283,-75.3985"/>
</g>
<!-- Node19 -->
<g id="node20" class="node">
<title>Node19</title>
<g id="a_node20"><a xlink:href="PositionRaw_8h.html" target="_top" xlink:title="iDynTree/Core/PositionRaw.h">
<polygon fill="none" stroke="#000000" points="142.0088,-168.5 142.0088,-187.5 298.0088,-187.5 298.0088,-168.5 142.0088,-168.5"/>
<text text-anchor="middle" x="220.0088" y="-175.5" font-family="FreeSans.ttf" font-size="10.00" fill="#000000">iDynTree/Core/PositionRaw.h</text>
</a>
</g>
</g>
<!-- Node18&#45;&gt;Node19 -->
<g id="edge24" class="edge">
<title>Node18&#45;&gt;Node19</title>
<path fill="none" stroke="#191970" d="M377.3441,-280.4509C347.3872,-260.9441 278.9698,-216.3932 243.0305,-192.9909"/>
<polygon fill="#191970" stroke="#191970" points="244.9261,-190.0487 234.6363,-187.5249 241.1064,-195.9147 244.9261,-190.0487"/>
</g>
<!-- Node20 -->
<g id="node21" class="node">
<title>Node20</title>
<g id="a_node21"><a xlink:href="Rotation_8h.html" target="_top" xlink:title="iDynTree/Core/Rotation.h">
<polygon fill="none" stroke="#000000" points="529.5088,-224.5 529.5088,-243.5 666.5088,-243.5 666.5088,-224.5 529.5088,-224.5"/>
<text text-anchor="middle" x="598.0088" y="-231.5" font-family="FreeSans.ttf" font-size="10.00" fill="#000000">iDynTree/Core/Rotation.h</text>
</a>
</g>
</g>
<!-- Node18&#45;&gt;Node20 -->
<g id="edge27" class="edge">
<title>Node18&#45;&gt;Node20</title>
<path fill="none" stroke="#191970" d="M427.4214,-280.3733C462.2692,-270.9001 515.597,-256.4032 553.3381,-246.1435"/>
<polygon fill="#191970" stroke="#191970" points="554.3266,-249.5019 563.0582,-243.5011 552.4902,-242.747 554.3266,-249.5019"/>
</g>
<!-- Node19&#45;&gt;Node2 -->
<g id="edge26" class="edge">
<title>Node19&#45;&gt;Node2</title>
<path fill="none" stroke="#191970" d="M229.0463,-168.4509C247.0387,-149.4401 287.5437,-106.6423 310.0936,-82.816"/>
<polygon fill="#191970" stroke="#191970" points="312.6623,-85.1937 316.9941,-75.5249 307.5782,-80.382 312.6623,-85.1937"/>
</g>
<!-- Node19&#45;&gt;Node4 -->
<g id="edge25" class="edge">
<title>Node19&#45;&gt;Node4</title>
<path fill="none" stroke="#191970" d="M298.2223,-170.7364C409.6932,-160.3842 613.8068,-141.4284 731.9416,-130.4573"/>
<polygon fill="#191970" stroke="#191970" points="732.414,-133.9286 742.0475,-129.5188 731.7666,-126.9586 732.414,-133.9286"/>
</g>
<!-- Node20&#45;&gt;Node2 -->
<g id="edge28" class="edge">
<title>Node20&#45;&gt;Node2</title>
<path fill="none" stroke="#191970" d="M529.4062,-230.2022C463.7203,-225.0792 371.0161,-213.4632 346.0088,-188 319.2955,-160.7998 320.0236,-112.6114 322.9732,-85.6549"/>
<polygon fill="#191970" stroke="#191970" points="326.4716,-85.8949 324.2999,-75.5251 319.5309,-84.9859 326.4716,-85.8949"/>
</g>
<!-- Node20&#45;&gt;Node4 -->
<g id="edge40" class="edge">
<title>Node20&#45;&gt;Node4</title>
<path fill="none" stroke="#191970" d="M617.1921,-224.4509C656.8781,-204.6961 748.163,-159.2565 794.6653,-136.1088"/>
<polygon fill="#191970" stroke="#191970" points="796.4814,-139.1144 803.8739,-131.5249 793.362,-132.8479 796.4814,-139.1144"/>
</g>
<!-- Node21 -->
<g id="node22" class="node">
<title>Node21</title>
<g id="a_node22"><a xlink:href="GeomVector3_8h.html" target="_top" xlink:title="iDynTree/Core/GeomVector3.h">
<polygon fill="none" stroke="#000000" points="766.5088,-168.5 766.5088,-187.5 929.5088,-187.5 929.5088,-168.5 766.5088,-168.5"/>
<text text-anchor="middle" x="848.0088" y="-175.5" font-family="FreeSans.ttf" font-size="10.00" fill="#000000">iDynTree/Core/GeomVector3.h</text>
</a>
</g>
</g>
<!-- Node20&#45;&gt;Node21 -->
<g id="edge29" class="edge">
<title>Node20&#45;&gt;Node21</title>
<path fill="none" stroke="#191970" d="M640.7012,-224.4369C683.5767,-214.8328 749.7092,-200.0191 795.709,-189.7152"/>
<polygon fill="#191970" stroke="#191970" points="796.4993,-193.1249 805.4924,-187.5237 794.9691,-186.2942 796.4993,-193.1249"/>
</g>
<!-- Node22 -->
<g id="node23" class="node">
<title>Node22</title>
<g id="a_node23"><a xlink:href="RotationRaw_8h.html" target="_top" xlink:title="iDynTree/Core/RotationRaw.h">
<polygon fill="none" stroke="#000000" points="514.0088,-168.5 514.0088,-187.5 672.0088,-187.5 672.0088,-168.5 514.0088,-168.5"/>
<text text-anchor="middle" x="593.0088" y="-175.5" font-family="FreeSans.ttf" font-size="10.00" fill="#000000">iDynTree/Core/RotationRaw.h</text>
</a>
</g>
</g>
<!-- Node20&#45;&gt;Node22 -->
<g id="edge31" class="edge">
<title>Node20&#45;&gt;Node22</title>
<path fill="none" stroke="#191970" d="M597.1378,-224.2455C596.4854,-216.9382 595.5708,-206.6944 594.7681,-197.7046"/>
<polygon fill="#191970" stroke="#191970" points="598.2453,-197.2918 593.8697,-187.6427 591.273,-197.9143 598.2453,-197.2918"/>
</g>
<!-- Node21&#45;&gt;Node4 -->
<g id="edge30" class="edge">
<title>Node21&#45;&gt;Node4</title>
<path fill="none" stroke="#191970" d="M843.6541,-168.2455C840.2844,-160.6973 835.5158,-150.0158 831.4104,-140.8197"/>
<polygon fill="#191970" stroke="#191970" points="834.5861,-139.3473 827.3135,-131.6427 828.1941,-142.2009 834.5861,-139.3473"/>
</g>
<!-- Node22&#45;&gt;Node2 -->
<g id="edge39" class="edge">
<title>Node22&#45;&gt;Node2</title>
<path fill="none" stroke="#191970" d="M570.2445,-168.4509C522.6377,-148.481 412.4593,-102.2639 357.8594,-79.3606"/>
<polygon fill="#191970" stroke="#191970" points="358.9143,-76.0076 348.3388,-75.3669 356.2065,-82.4627 358.9143,-76.0076"/>
</g>
<!-- Node23 -->
<g id="node24" class="node">
<title>Node23</title>
<g id="a_node24"><a xlink:href="MatrixFixSize_8h.html" target="_top" xlink:title="iDynTree/Core/MatrixFixSize.h">
<polygon fill="none" stroke="#000000" points="1004.5088,-112.5 1004.5088,-131.5 1165.5088,-131.5 1165.5088,-112.5 1004.5088,-112.5"/>
<text text-anchor="middle" x="1085.0088" y="-119.5" font-family="FreeSans.ttf" font-size="10.00" fill="#000000">iDynTree/Core/MatrixFixSize.h</text>
</a>
</g>
</g>
<!-- Node22&#45;&gt;Node23 -->
<g id="edge32" class="edge">
<title>Node22&#45;&gt;Node23</title>
<path fill="none" stroke="#191970" d="M672.0571,-169.0026C759.8976,-159.0045 901.5109,-142.8859 993.9307,-132.3666"/>
<polygon fill="#191970" stroke="#191970" points="994.5716,-135.8163 1004.1116,-131.2078 993.7799,-128.8613 994.5716,-135.8163"/>
</g>
<!-- Node23&#45;&gt;Node2 -->
<g id="edge36" class="edge">
<title>Node23&#45;&gt;Node2</title>
<path fill="none" stroke="#191970" d="M1004.501,-116.06C839.6424,-103.8966 469.778,-76.6075 358.3692,-68.3876"/>
<polygon fill="#191970" stroke="#191970" points="358.347,-64.8765 348.1165,-67.6311 357.8318,-71.8576 358.347,-64.8765"/>
</g>
<!-- Node23&#45;&gt;Node5 -->
<g id="edge33" class="edge">
<title>Node23&#45;&gt;Node5</title>
<path fill="none" stroke="#191970" d="M1005.3539,-112.4686C915.8416,-101.7578 771.9378,-84.5385 686.7158,-74.341"/>
<polygon fill="#191970" stroke="#191970" points="686.9664,-70.8461 676.6214,-73.1331 686.1347,-77.7965 686.9664,-70.8461"/>
</g>
<!-- Node23&#45;&gt;Node8 -->
<g id="edge34" class="edge">
<title>Node23&#45;&gt;Node8</title>
<path fill="none" stroke="#191970" d="M1086.3729,-112.4509C1088.9825,-94.184 1094.7294,-53.9553 1098.1948,-29.6976"/>
<polygon fill="#191970" stroke="#191970" points="1101.6986,-29.9194 1099.6481,-19.5249 1094.7689,-28.9294 1101.6986,-29.9194"/>
</g>
<!-- Node23&#45;&gt;Node16 -->
<g id="edge38" class="edge">
<title>Node23&#45;&gt;Node16</title>
<path fill="none" stroke="#191970" d="M1104.778,-112.3733C1123.1557,-103.4241 1150.74,-89.9917 1171.498,-79.8835"/>
<polygon fill="#191970" stroke="#191970" points="1173.0392,-83.026 1180.4975,-75.5011 1169.9745,-76.7325 1173.0392,-83.026"/>
</g>
<!-- Node23&#45;&gt;Node17 -->
<g id="edge35" class="edge">
<title>Node23&#45;&gt;Node17</title>
<path fill="none" stroke="#191970" d="M1073.6866,-112.2455C1064.0864,-103.9746 1050.1196,-91.9416 1038.8393,-82.2232"/>
<polygon fill="#191970" stroke="#191970" points="1041.0618,-79.5182 1031.2011,-75.6427 1036.4928,-84.8214 1041.0618,-79.5182"/>
</g>
<!-- Node24 -->
<g id="node25" class="node">
<title>Node24</title>
<polygon fill="none" stroke="#bfbfbf" points="1273.0088,-56.5 1273.0088,-75.5 1333.0088,-75.5 1333.0088,-56.5 1273.0088,-56.5"/>
<text text-anchor="middle" x="1303.0088" y="-63.5" font-family="FreeSans.ttf" font-size="10.00" fill="#000000">iostream</text>
</g>
<!-- Node23&#45;&gt;Node24 -->
<g id="edge37" class="edge">
<title>Node23&#45;&gt;Node24</title>
<path fill="none" stroke="#191970" d="M1122.4843,-112.3733C1161.6513,-102.312 1222.878,-86.584 1262.9745,-76.284"/>
<polygon fill="#191970" stroke="#191970" points="1263.8722,-79.6671 1272.6869,-73.7891 1262.1306,-72.8873 1263.8722,-79.6671"/>
</g>
<!-- Node25&#45;&gt;Node2 -->
<g id="edge47" class="edge">
<title>Node25&#45;&gt;Node2</title>
<path fill="none" stroke="#191970" d="M524.8326,-338.9896C467.0579,-332.2923 384.8288,-320.1664 315.0088,-300 253.7837,-282.3161 236.733,-278.2775 183.0088,-244 151.7057,-224.0279 136.0852,-221.9333 121.0088,-188 110.6367,-164.6552 135.2238,-115.5296 139.0088,-112 161.2861,-91.2257 246.5929,-76.7196 293.9147,-70.0836"/>
<polygon fill="#191970" stroke="#191970" points="294.521,-73.5334 303.9561,-68.7137 293.5747,-66.5976 294.521,-73.5334"/>
</g>
<!-- Node25&#45;&gt;Node18 -->
<g id="edge44" class="edge">
<title>Node25&#45;&gt;Node18</title>
<path fill="none" stroke="#191970" d="M562.5961,-336.3733C527.7483,-326.9001 474.4206,-312.4032 436.6794,-302.1435"/>
<polygon fill="#191970" stroke="#191970" points="437.5273,-298.747 426.9593,-299.5011 435.691,-305.5019 437.5273,-298.747"/>
</g>
<!-- Node25&#45;&gt;Node20 -->
<g id="edge45" class="edge">
<title>Node25&#45;&gt;Node20</title>
<path fill="none" stroke="#191970" d="M598.0088,-336.4509C598.0088,-318.184 598.0088,-277.9553 598.0088,-253.6976"/>
<polygon fill="#191970" stroke="#191970" points="601.5089,-253.5249 598.0088,-243.5249 594.5089,-253.5249 601.5089,-253.5249"/>
</g>
<!-- Node25&#45;&gt;Node23 -->
<g id="edge46" class="edge">
<title>Node25&#45;&gt;Node23</title>
<path fill="none" stroke="#191970" d="M636.4041,-336.4709C766.671,-304.0565 1184.2123,-199.4371 1193.0088,-188 1212.3562,-162.8444 1175.5016,-145.0664 1139.6999,-134.348"/>
<polygon fill="#191970" stroke="#191970" points="1140.2527,-130.8671 1129.6775,-131.5118 1138.3466,-137.6026 1140.2527,-130.8671"/>
</g>
<!-- Node26&#45;&gt;Node4 -->
<g id="edge49" class="edge">
<title>Node26&#45;&gt;Node4</title>
<path fill="none" stroke="#191970" d="M1040.267,-168.4369C995.2394,-158.8127 925.736,-143.957 877.516,-133.6504"/>
<polygon fill="#191970" stroke="#191970" points="878.0766,-130.1912 867.5659,-131.5237 876.6135,-137.0366 878.0766,-130.1912"/>
</g>
<!-- Node26&#45;&gt;Node23 -->
<g id="edge50" class="edge">
<title>Node26&#45;&gt;Node23</title>
<path fill="none" stroke="#191970" d="M1085.0088,-168.2455C1085.0088,-160.9382 1085.0088,-150.6944 1085.0088,-141.7046"/>
<polygon fill="#191970" stroke="#191970" points="1088.5089,-141.6426 1085.0088,-131.6427 1081.5089,-141.6427 1088.5089,-141.6426"/>
</g>
<!-- Node28 -->
<g id="node29" class="node">
<title>Node28</title>
<g id="a_node29"><a xlink:href="SpatialMotionVector_8h.html" target="_top" xlink:title="iDynTree/Core/SpatialMotion\lVector.h">
<polygon fill="none" stroke="#000000" points="1058.5088,-392.5 1058.5088,-422.5 1213.5088,-422.5 1213.5088,-392.5 1058.5088,-392.5"/>
<text text-anchor="start" x="1066.5088" y="-410.5" font-family="FreeSans.ttf" font-size="10.00" fill="#000000">iDynTree/Core/SpatialMotion</text>
<text text-anchor="middle" x="1136.0088" y="-399.5" font-family="FreeSans.ttf" font-size="10.00" fill="#000000">Vector.h</text>
</a>
</g>
</g>
<!-- Node27&#45;&gt;Node28 -->
<g id="edge52" class="edge">
<title>Node27&#45;&gt;Node28</title>
<path fill="none" stroke="#191970" d="M1157.1025,-459.3906C1154.1263,-452.0692 1149.8904,-441.6488 1145.9944,-432.0647"/>
<polygon fill="#191970" stroke="#191970" points="1149.1326,-430.4904 1142.1244,-422.5446 1142.6479,-433.1265 1149.1326,-430.4904"/>
</g>
<!-- Node28&#45;&gt;Node4 -->
<g id="edge53" class="edge">
<title>Node28&#45;&gt;Node4</title>
<path fill="none" stroke="#191970" d="M1127.3722,-392.356C1102.9922,-350.8479 1029.4959,-233.9747 939.0088,-168 918.4225,-152.9905 892.2716,-142.0639 870.0124,-134.6364"/>
<polygon fill="#191970" stroke="#191970" points="871.0078,-131.2802 860.4168,-131.567 868.875,-137.9474 871.0078,-131.2802"/>
</g>
<!-- Node28&#45;&gt;Node21 -->
<g id="edge54" class="edge">
<title>Node28&#45;&gt;Node21</title>
<path fill="none" stroke="#191970" d="M1117.1123,-392.4419C1065.3095,-351.1615 921.3643,-236.4552 868.1346,-194.0378"/>
<polygon fill="#191970" stroke="#191970" points="870.1216,-191.1458 860.1197,-187.6509 865.7591,-196.6202 870.1216,-191.1458"/>
</g>
<!-- Node29 -->
<g id="node30" class="node">
<title>Node29</title>
<g id="a_node30"><a xlink:href="SpatialVector_8h.html" target="_top" xlink:title="iDynTree/Core/SpatialVector.h">
<polygon fill="none" stroke="#000000" points="767.5088,-336.5 767.5088,-355.5 928.5088,-355.5 928.5088,-336.5 767.5088,-336.5"/>
<text text-anchor="middle" x="848.0088" y="-343.5" font-family="FreeSans.ttf" font-size="10.00" fill="#000000">iDynTree/Core/SpatialVector.h</text>
</a>
</g>
</g>
<!-- Node28&#45;&gt;Node29 -->
<g id="edge55" class="edge">
<title>Node28&#45;&gt;Node29</title>
<path fill="none" stroke="#191970" d="M1065.556,-392.4554C1015.2895,-381.7214 948.6789,-367.4973 902.467,-357.6291"/>
<polygon fill="#191970" stroke="#191970" points="903.149,-354.1959 892.6385,-355.5303 901.6871,-361.0416 903.149,-354.1959"/>
</g>
<!-- Node29&#45;&gt;Node5 -->
<g id="edge58" class="edge">
<title>Node29&#45;&gt;Node5</title>
<path fill="none" stroke="#191970" d="M812.9348,-336.3935C769.1692,-322.0216 700.0088,-290.3894 700.0088,-234 700.0088,-234 700.0088,-234 700.0088,-178 700.0088,-137.0829 663.8084,-101.3617 639.2223,-81.8195"/>
<polygon fill="#191970" stroke="#191970" points="641.1583,-78.8939 631.0886,-75.5999 636.9063,-84.4545 641.1583,-78.8939"/>
</g>
<!-- Node29&#45;&gt;Node16 -->
<g id="edge61" class="edge">
<title>Node29&#45;&gt;Node16</title>
<path fill="none" stroke="#191970" d="M874.0134,-336.4992C953.5092,-307.2042 1189.1177,-218.4185 1209.0088,-188 1229.5426,-156.5984 1217.4506,-110.4385 1207.9832,-84.8428"/>
<polygon fill="#191970" stroke="#191970" points="1211.2346,-83.5469 1204.3117,-75.5267 1204.7221,-86.1136 1211.2346,-83.5469"/>
</g>
<!-- Node29&#45;&gt;Node18 -->
<g id="edge56" class="edge">
<title>Node29&#45;&gt;Node18</title>
<path fill="none" stroke="#191970" d="M770.3963,-336.4686C686.7216,-326.1928 554.2678,-309.9265 470.322,-299.6174"/>
<polygon fill="#191970" stroke="#191970" points="470.6838,-296.1356 460.3317,-298.3905 469.8305,-303.0834 470.6838,-296.1356"/>
</g>
<!-- Node29&#45;&gt;Node20 -->
<g id="edge57" class="edge">
<title>Node29&#45;&gt;Node20</title>
<path fill="none" stroke="#191970" d="M796.6172,-336.4683C763.8527,-329.1837 721.1123,-317.3957 686.0088,-300 659.3925,-286.8102 632.6324,-265.2827 615.7296,-250.4189"/>
<polygon fill="#191970" stroke="#191970" points="618.0479,-247.7967 608.2675,-243.7232 613.373,-253.0068 618.0479,-247.7967"/>
</g>
<!-- Node29&#45;&gt;Node21 -->
<g id="edge59" class="edge">
<title>Node29&#45;&gt;Node21</title>
<path fill="none" stroke="#191970" d="M848.0088,-336.4862C848.0088,-309.9293 848.0088,-234.5651 848.0088,-198.1655"/>
<polygon fill="#191970" stroke="#191970" points="851.5089,-197.8278 848.0088,-187.8279 844.5089,-197.8279 851.5089,-197.8278"/>
</g>
<!-- Node29&#45;&gt;Node24 -->
<g id="edge60" class="edge">
<title>Node29&#45;&gt;Node24</title>
<path fill="none" stroke="#191970" d="M906.0039,-336.45C987.9815,-320.0681 1137.6887,-279.1308 1227.0088,-188 1257.8665,-156.5167 1282.3276,-110.3878 1294.5256,-84.8192"/>
<polygon fill="#191970" stroke="#191970" points="1297.8099,-86.0571 1298.8538,-75.5138 1291.4629,-83.1049 1297.8099,-86.0571"/>
</g>
<!-- Node30&#45;&gt;Node28 -->
<g id="edge63" class="edge">
<title>Node30&#45;&gt;Node28</title>
<path fill="none" stroke="#191970" d="M1028.0088,-459.3906C1046.0538,-450.7205 1073.1439,-437.7046 1095.6776,-426.8779"/>
<polygon fill="#191970" stroke="#191970" points="1097.1986,-430.0302 1104.6964,-422.5446 1094.1671,-423.7206 1097.1986,-430.0302"/>
</g>
</g>
</svg>
