<?xml version="1.0" encoding="UTF-8" standalone="no"?>
<!DOCTYPE svg PUBLIC "-//W3C//DTD SVG 1.1//EN"
 "http://www.w3.org/Graphics/SVG/1.1/DTD/svg11.dtd">
<!-- Generated by graphviz version 2.40.1 (20161225.0304)
 -->
<!-- Title: Axis.h Pages: 1 -->
<svg width="978pt" height="364pt"
 viewBox="0.00 0.00 977.50 364.00" xmlns="http://www.w3.org/2000/svg" xmlns:xlink="http://www.w3.org/1999/xlink">
<g id="graph0" class="graph" transform="scale(1 1) rotate(0) translate(4 360)">
<title>Axis.h</title>
<!-- Node0 -->
<g id="node1" class="node">
<title>Node0</title>
<polygon fill="#bfbfbf" stroke="#000000" points="574.5,-336.5 574.5,-355.5 621.5,-355.5 621.5,-336.5 574.5,-336.5"/>
<text text-anchor="middle" x="598" y="-343.5" font-family="FreeSans.ttf" font-size="10.00" fill="#000000">Axis.h</text>
</g>
<!-- Node1 -->
<g id="node2" class="node">
<title>Node1</title>
<polygon fill="none" stroke="#bfbfbf" points="227,-56.5 227,-75.5 271,-75.5 271,-56.5 227,-56.5"/>
<text text-anchor="middle" x="249" y="-63.5" font-family="FreeSans.ttf" font-size="10.00" fill="#000000">string</text>
</g>
<!-- Node0&#45;&gt;Node1 -->
<g id="edge1" class="edge">
<title>Node0&#45;&gt;Node1</title>
<path fill="none" stroke="#191970" d="M574.1887,-344.1149C462.9679,-334.9988 0,-293.4799 0,-234 0,-234 0,-234 0,-178 0,-137.4482 27.9208,-132.3443 63,-112 111.9228,-83.6271 177.9012,-72.6517 216.7033,-68.4797"/>
<polygon fill="#191970" stroke="#191970" points="217.282,-71.9397 226.89,-67.4746 216.5946,-64.9735 217.282,-71.9397"/>
</g>
<!-- Node2 -->
<g id="node3" class="node">
<title>Node2</title>
<g id="a_node3"><a xlink:href="Direction_8h.html" target="_top" xlink:title="iDynTree/Core/Direction.h">
<polygon fill="none" stroke="#000000" points="673.5,-168.5 673.5,-187.5 814.5,-187.5 814.5,-168.5 673.5,-168.5"/>
<text text-anchor="middle" x="744" y="-175.5" font-family="FreeSans.ttf" font-size="10.00" fill="#000000">iDynTree/Core/Direction.h</text>
</a>
</g>
</g>
<!-- Node0&#45;&gt;Node2 -->
<g id="edge2" class="edge">
<title>Node0&#45;&gt;Node2</title>
<path fill="none" stroke="#191970" d="M606.2679,-336.4862C629.9466,-309.2396 698.2731,-230.6172 728.8702,-195.4096"/>
<polygon fill="#191970" stroke="#191970" points="731.5413,-197.6718 735.4591,-187.8279 726.2577,-193.08 731.5413,-197.6718"/>
</g>
<!-- Node4 -->
<g id="node5" class="node">
<title>Node4</title>
<g id="a_node5"><a xlink:href="Utils_8h.html" target="_top" xlink:title="iDynTree/Core/Utils.h">
<polygon fill="none" stroke="#000000" points="724.5,-56.5 724.5,-75.5 843.5,-75.5 843.5,-56.5 724.5,-56.5"/>
<text text-anchor="middle" x="784" y="-63.5" font-family="FreeSans.ttf" font-size="10.00" fill="#000000">iDynTree/Core/Utils.h</text>
</a>
</g>
</g>
<!-- Node0&#45;&gt;Node4 -->
<g id="edge41" class="edge">
<title>Node0&#45;&gt;Node4</title>
<path fill="none" stroke="#191970" d="M621.9377,-340.4732C683.5861,-325.549 843,-282.2884 843,-234 843,-234 843,-234 843,-178 843,-140.9131 817.3634,-104.0541 799.8885,-83.2374"/>
<polygon fill="#191970" stroke="#191970" points="802.4288,-80.8251 793.2188,-75.5881 797.1528,-85.4255 802.4288,-80.8251"/>
</g>
<!-- Node17 -->
<g id="node18" class="node">
<title>Node17</title>
<g id="a_node18"><a xlink:href="Position_8h.html" target="_top" xlink:title="iDynTree/Core/Position.h">
<polygon fill="none" stroke="#000000" points="230,-280.5 230,-299.5 366,-299.5 366,-280.5 230,-280.5"/>
<text text-anchor="middle" x="298" y="-287.5" font-family="FreeSans.ttf" font-size="10.00" fill="#000000">iDynTree/Core/Position.h</text>
</a>
</g>
</g>
<!-- Node0&#45;&gt;Node17 -->
<g id="edge22" class="edge">
<title>Node0&#45;&gt;Node17</title>
<path fill="none" stroke="#191970" d="M574.4595,-341.6058C528.4749,-333.022 425.4086,-313.7829 358.9327,-301.3741"/>
<polygon fill="#191970" stroke="#191970" points="359.4696,-297.9139 348.9971,-299.5195 358.185,-304.7951 359.4696,-297.9139"/>
</g>
<!-- Node2&#45;&gt;Node1 -->
<g id="edge3" class="edge">
<title>Node2&#45;&gt;Node1</title>
<path fill="none" stroke="#191970" d="M673.3383,-169.0951C670.183,-168.7202 667.059,-168.3536 664,-168 513.4883,-150.6028 463.9296,-192.4567 325,-132 300.1229,-121.1745 277.4681,-99.2059 263.4893,-83.591"/>
<polygon fill="#191970" stroke="#191970" points="265.8423,-80.9608 256.6569,-75.6808 260.5448,-85.5365 265.8423,-80.9608"/>
</g>
<!-- Node3 -->
<g id="node4" class="node">
<title>Node3</title>
<g id="a_node4"><a xlink:href="VectorFixSize_8h.html" target="_top" xlink:title="iDynTree/Core/VectorFixSize.h">
<polygon fill="none" stroke="#000000" points="513.5,-112.5 513.5,-131.5 674.5,-131.5 674.5,-112.5 513.5,-112.5"/>
<text text-anchor="middle" x="594" y="-119.5" font-family="FreeSans.ttf" font-size="10.00" fill="#000000">iDynTree/Core/VectorFixSize.h</text>
</a>
</g>
</g>
<!-- Node2&#45;&gt;Node3 -->
<g id="edge4" class="edge">
<title>Node2&#45;&gt;Node3</title>
<path fill="none" stroke="#191970" d="M718.2141,-168.3733C693.5953,-159.1822 656.31,-145.2624 629.0125,-135.0713"/>
<polygon fill="#191970" stroke="#191970" points="630.042,-131.7198 619.4494,-131.5011 627.5937,-138.2777 630.042,-131.7198"/>
</g>
<!-- Node2&#45;&gt;Node4 -->
<g id="edge21" class="edge">
<title>Node2&#45;&gt;Node4</title>
<path fill="none" stroke="#191970" d="M747.4104,-168.4509C753.9933,-150.0186 768.5624,-109.2254 777.1989,-85.043"/>
<polygon fill="#191970" stroke="#191970" points="780.5309,-86.1195 780.5983,-75.5249 773.9387,-83.7651 780.5309,-86.1195"/>
</g>
<!-- Node3&#45;&gt;Node1 -->
<g id="edge17" class="edge">
<title>Node3&#45;&gt;Node1</title>
<path fill="none" stroke="#191970" d="M518.8931,-112.4631C445.4202,-102.8867 337.6207,-88.1188 281.153,-75.908"/>
<polygon fill="#191970" stroke="#191970" points="281.7526,-72.4552 271.2264,-73.6595 280.2061,-79.2822 281.7526,-72.4552"/>
</g>
<!-- Node3&#45;&gt;Node4 -->
<g id="edge5" class="edge">
<title>Node3&#45;&gt;Node4</title>
<path fill="none" stroke="#191970" d="M626.6622,-112.3733C658.5298,-102.9807 707.1531,-88.6496 741.907,-78.4064"/>
<polygon fill="#191970" stroke="#191970" points="743.1615,-81.6855 751.764,-75.5011 741.1825,-74.9711 743.1615,-81.6855"/>
</g>
<!-- Node6 -->
<g id="node7" class="node">
<title>Node6</title>
<g id="a_node7"><a xlink:href="Span_8h.html" target="_top" xlink:title="iDynTree/Core/Span.h">
<polygon fill="none" stroke="#000000" points="585.5,-56.5 585.5,-75.5 706.5,-75.5 706.5,-56.5 585.5,-56.5"/>
<text text-anchor="middle" x="646" y="-63.5" font-family="FreeSans.ttf" font-size="10.00" fill="#000000">iDynTree/Core/Span.h</text>
</a>
</g>
</g>
<!-- Node3&#45;&gt;Node6 -->
<g id="edge7" class="edge">
<title>Node3&#45;&gt;Node6</title>
<path fill="none" stroke="#191970" d="M603.0577,-112.2455C610.5142,-104.2155 621.2634,-92.6394 630.1417,-83.0781"/>
<polygon fill="#191970" stroke="#191970" points="632.8063,-85.3522 637.0461,-75.6427 627.6768,-80.589 632.8063,-85.3522"/>
</g>
<!-- Node7 -->
<g id="node8" class="node">
<title>Node7</title>
<polygon fill="none" stroke="#bfbfbf" points="336,-.5 336,-19.5 388,-19.5 388,-.5 336,-.5"/>
<text text-anchor="middle" x="362" y="-7.5" font-family="FreeSans.ttf" font-size="10.00" fill="#000000">cassert</text>
</g>
<!-- Node3&#45;&gt;Node7 -->
<g id="edge19" class="edge">
<title>Node3&#45;&gt;Node7</title>
<path fill="none" stroke="#191970" d="M588.4813,-112.2773C579.7124,-97.7383 561.1925,-70.4947 538,-56 485.7243,-23.3291 461.7259,-35.5728 398.0429,-20.1068"/>
<polygon fill="#191970" stroke="#191970" points="398.9076,-16.7154 388.351,-17.6153 397.1646,-23.495 398.9076,-16.7154"/>
</g>
<!-- Node15 -->
<g id="node16" class="node">
<title>Node15</title>
<polygon fill="none" stroke="#bfbfbf" points="405,-56.5 405,-75.5 461,-75.5 461,-56.5 405,-56.5"/>
<text text-anchor="middle" x="433" y="-63.5" font-family="FreeSans.ttf" font-size="10.00" fill="#000000">sstream</text>
</g>
<!-- Node3&#45;&gt;Node15 -->
<g id="edge18" class="edge">
<title>Node3&#45;&gt;Node15</title>
<path fill="none" stroke="#191970" d="M566.3231,-112.3733C539.6672,-103.1016 499.1762,-89.0178 469.8116,-78.804"/>
<polygon fill="#191970" stroke="#191970" points="470.9105,-75.4807 460.3157,-75.5011 468.6109,-82.0921 470.9105,-75.4807"/>
</g>
<!-- Node16 -->
<g id="node17" class="node">
<title>Node16</title>
<polygon fill="none" stroke="#bfbfbf" points="479,-56.5 479,-75.5 529,-75.5 529,-56.5 479,-56.5"/>
<text text-anchor="middle" x="504" y="-63.5" font-family="FreeSans.ttf" font-size="10.00" fill="#000000">cstring</text>
</g>
<!-- Node3&#45;&gt;Node16 -->
<g id="edge20" class="edge">
<title>Node3&#45;&gt;Node16</title>
<path fill="none" stroke="#191970" d="M578.3232,-112.2455C564.5144,-103.6534 544.1807,-91.0014 528.2708,-81.1018"/>
<polygon fill="#191970" stroke="#191970" points="529.8368,-77.954 519.4972,-75.6427 526.1387,-83.8974 529.8368,-77.954"/>
</g>
<!-- Node5 -->
<g id="node6" class="node">
<title>Node5</title>
<polygon fill="none" stroke="#bfbfbf" points="916.5,-.5 916.5,-19.5 969.5,-19.5 969.5,-.5 916.5,-.5"/>
<text text-anchor="middle" x="943" y="-7.5" font-family="FreeSans.ttf" font-size="10.00" fill="#000000">cstddef</text>
</g>
<!-- Node4&#45;&gt;Node5 -->
<g id="edge6" class="edge">
<title>Node4&#45;&gt;Node5</title>
<path fill="none" stroke="#191970" d="M811.3331,-56.3733C837.6229,-47.114 877.5394,-33.0553 906.5299,-22.8448"/>
<polygon fill="#191970" stroke="#191970" points="908.0189,-26.0312 916.2882,-19.4079 905.6934,-19.4287 908.0189,-26.0312"/>
</g>
<!-- Node6&#45;&gt;Node5 -->
<g id="edge11" class="edge">
<title>Node6&#45;&gt;Node5</title>
<path fill="none" stroke="#191970" d="M706.7168,-57.1827C757.7595,-49.3516 832.8025,-36.8639 906.4171,-20.2025"/>
<polygon fill="#191970" stroke="#191970" points="907.3559,-23.5782 916.3216,-17.9331 905.7925,-16.755 907.3559,-23.5782"/>
</g>
<!-- Node6&#45;&gt;Node7 -->
<g id="edge8" class="edge">
<title>Node6&#45;&gt;Node7</title>
<path fill="none" stroke="#191970" d="M585.5394,-56.494C537.1809,-48.5115 467.4801,-36.1607 398.0896,-20.0978"/>
<polygon fill="#191970" stroke="#191970" points="398.8372,-16.6783 388.3027,-17.8067 397.2416,-23.494 398.8372,-16.6783"/>
</g>
<!-- Node8 -->
<g id="node9" class="node">
<title>Node8</title>
<polygon fill="none" stroke="#bfbfbf" points="557,-.5 557,-19.5 621,-19.5 621,-.5 557,-.5"/>
<text text-anchor="middle" x="589" y="-7.5" font-family="FreeSans.ttf" font-size="10.00" fill="#000000">algorithm</text>
</g>
<!-- Node6&#45;&gt;Node8 -->
<g id="edge9" class="edge">
<title>Node6&#45;&gt;Node8</title>
<path fill="none" stroke="#191970" d="M636.0714,-56.2455C627.8162,-48.1352 615.8791,-36.4075 606.0918,-26.7919"/>
<polygon fill="#191970" stroke="#191970" points="608.4011,-24.1542 598.8149,-19.6427 603.4954,-29.1476 608.4011,-24.1542"/>
</g>
<!-- Node9 -->
<g id="node10" class="node">
<title>Node9</title>
<polygon fill="none" stroke="#bfbfbf" points="639,-.5 639,-19.5 681,-19.5 681,-.5 639,-.5"/>
<text text-anchor="middle" x="660" y="-7.5" font-family="FreeSans.ttf" font-size="10.00" fill="#000000">array</text>
</g>
<!-- Node6&#45;&gt;Node9 -->
<g id="edge10" class="edge">
<title>Node6&#45;&gt;Node9</title>
<path fill="none" stroke="#191970" d="M648.4386,-56.2455C650.2855,-48.8579 652.8828,-38.4689 655.1478,-29.4087"/>
<polygon fill="#191970" stroke="#191970" points="658.5594,-30.193 657.5893,-19.6427 651.7684,-28.4952 658.5594,-30.193"/>
</g>
<!-- Node10 -->
<g id="node11" class="node">
<title>Node10</title>
<polygon fill="none" stroke="#bfbfbf" points="699.5,-.5 699.5,-19.5 752.5,-19.5 752.5,-.5 699.5,-.5"/>
<text text-anchor="middle" x="726" y="-7.5" font-family="FreeSans.ttf" font-size="10.00" fill="#000000">iterator</text>
</g>
<!-- Node6&#45;&gt;Node10 -->
<g id="edge12" class="edge">
<title>Node6&#45;&gt;Node10</title>
<path fill="none" stroke="#191970" d="M659.9349,-56.2455C672.0947,-47.7337 689.9464,-35.2375 704.0285,-25.3801"/>
<polygon fill="#191970" stroke="#191970" points="706.0395,-28.2447 712.2248,-19.6427 702.0253,-22.51 706.0395,-28.2447"/>
</g>
<!-- Node11 -->
<g id="node12" class="node">
<title>Node11</title>
<polygon fill="none" stroke="#bfbfbf" points="771,-.5 771,-19.5 815,-19.5 815,-.5 771,-.5"/>
<text text-anchor="middle" x="793" y="-7.5" font-family="FreeSans.ttf" font-size="10.00" fill="#000000">limits</text>
</g>
<!-- Node6&#45;&gt;Node11 -->
<g id="edge13" class="edge">
<title>Node6&#45;&gt;Node11</title>
<path fill="none" stroke="#191970" d="M671.2702,-56.3733C696.2739,-46.848 734.6101,-32.2438 761.5662,-21.9748"/>
<polygon fill="#191970" stroke="#191970" points="762.8378,-25.2358 770.9367,-18.4051 760.3458,-18.6944 762.8378,-25.2358"/>
</g>
<!-- Node12 -->
<g id="node13" class="node">
<title>Node12</title>
<polygon fill="none" stroke="#bfbfbf" points="833.5,-.5 833.5,-19.5 898.5,-19.5 898.5,-.5 833.5,-.5"/>
<text text-anchor="middle" x="866" y="-7.5" font-family="FreeSans.ttf" font-size="10.00" fill="#000000">stdexcept</text>
</g>
<!-- Node6&#45;&gt;Node12 -->
<g id="edge14" class="edge">
<title>Node6&#45;&gt;Node12</title>
<path fill="none" stroke="#191970" d="M683.8193,-56.3733C722.6662,-46.485 783.0162,-31.1232 823.4928,-20.82"/>
<polygon fill="#191970" stroke="#191970" points="824.5025,-24.1747 833.3301,-18.316 822.7757,-17.391 824.5025,-24.1747"/>
</g>
<!-- Node13 -->
<g id="node14" class="node">
<title>Node13</title>
<polygon fill="none" stroke="#bfbfbf" points="406.5,-.5 406.5,-19.5 475.5,-19.5 475.5,-.5 406.5,-.5"/>
<text text-anchor="middle" x="441" y="-7.5" font-family="FreeSans.ttf" font-size="10.00" fill="#000000">type_traits</text>
</g>
<!-- Node6&#45;&gt;Node13 -->
<g id="edge15" class="edge">
<title>Node6&#45;&gt;Node13</title>
<path fill="none" stroke="#191970" d="M610.7592,-56.3733C576.0806,-46.9001 523.0117,-32.4032 485.4538,-22.1435"/>
<polygon fill="#191970" stroke="#191970" points="486.3498,-18.7601 475.7809,-19.5011 484.5051,-25.5126 486.3498,-18.7601"/>
</g>
<!-- Node14 -->
<g id="node15" class="node">
<title>Node14</title>
<polygon fill="none" stroke="#bfbfbf" points="493.5,-.5 493.5,-19.5 538.5,-19.5 538.5,-.5 493.5,-.5"/>
<text text-anchor="middle" x="516" y="-7.5" font-family="FreeSans.ttf" font-size="10.00" fill="#000000">utility</text>
</g>
<!-- Node6&#45;&gt;Node14 -->
<g id="edge16" class="edge">
<title>Node6&#45;&gt;Node14</title>
<path fill="none" stroke="#191970" d="M623.6522,-56.3733C602.5967,-47.3032 570.8505,-33.6279 547.2825,-23.4755"/>
<polygon fill="#191970" stroke="#191970" points="548.625,-20.243 538.0562,-19.5011 545.8556,-26.6719 548.625,-20.243"/>
</g>
<!-- Node17&#45;&gt;Node1 -->
<g id="edge40" class="edge">
<title>Node17&#45;&gt;Node1</title>
<path fill="none" stroke="#191970" d="M229.8804,-281.6781C172.9558,-270.7323 95.1463,-245.5671 57,-188 13.914,-122.9784 151.5918,-85.669 216.7591,-72.0137"/>
<polygon fill="#191970" stroke="#191970" points="217.8199,-75.3699 226.9249,-69.9524 216.4287,-68.5096 217.8199,-75.3699"/>
</g>
<!-- Node18 -->
<g id="node19" class="node">
<title>Node18</title>
<g id="a_node19"><a xlink:href="PositionRaw_8h.html" target="_top" xlink:title="iDynTree/Core/PositionRaw.h">
<polygon fill="none" stroke="#000000" points="66,-168.5 66,-187.5 222,-187.5 222,-168.5 66,-168.5"/>
<text text-anchor="middle" x="144" y="-175.5" font-family="FreeSans.ttf" font-size="10.00" fill="#000000">iDynTree/Core/PositionRaw.h</text>
</a>
</g>
</g>
<!-- Node17&#45;&gt;Node18 -->
<g id="edge23" class="edge">
<title>Node17&#45;&gt;Node18</title>
<path fill="none" stroke="#191970" d="M284.87,-280.4509C258.2755,-261.1094 197.8265,-217.1465 165.4368,-193.5904"/>
<polygon fill="#191970" stroke="#191970" points="167.2427,-190.5761 157.0967,-187.5249 163.1255,-196.2372 167.2427,-190.5761"/>
</g>
<!-- Node19 -->
<g id="node20" class="node">
<title>Node19</title>
<g id="a_node20"><a xlink:href="Rotation_8h.html" target="_top" xlink:title="iDynTree/Core/Rotation.h">
<polygon fill="none" stroke="#000000" points="288.5,-224.5 288.5,-243.5 425.5,-243.5 425.5,-224.5 288.5,-224.5"/>
<text text-anchor="middle" x="357" y="-231.5" font-family="FreeSans.ttf" font-size="10.00" fill="#000000">iDynTree/Core/Rotation.h</text>
</a>
</g>
</g>
<!-- Node17&#45;&gt;Node19 -->
<g id="edge26" class="edge">
<title>Node17&#45;&gt;Node19</title>
<path fill="none" stroke="#191970" d="M308.277,-280.2455C316.8218,-272.1352 329.1778,-260.4075 339.3085,-250.7919"/>
<polygon fill="#191970" stroke="#191970" points="341.9972,-253.0655 346.8408,-243.6427 337.1782,-247.9884 341.9972,-253.0655"/>
</g>
<!-- Node18&#45;&gt;Node1 -->
<g id="edge25" class="edge">
<title>Node18&#45;&gt;Node1</title>
<path fill="none" stroke="#191970" d="M152.9522,-168.4509C170.6975,-149.5227 210.5493,-107.014 232.9426,-83.1279"/>
<polygon fill="#191970" stroke="#191970" points="235.7844,-85.2141 240.0704,-75.5249 230.6776,-80.4265 235.7844,-85.2141"/>
</g>
<!-- Node18&#45;&gt;Node3 -->
<g id="edge24" class="edge">
<title>Node18&#45;&gt;Node3</title>
<path fill="none" stroke="#191970" d="M220.5913,-168.4686C300.0704,-158.5779 424.1466,-143.1373 507.207,-132.8009"/>
<polygon fill="#191970" stroke="#191970" points="507.8886,-136.2432 517.3799,-131.535 507.0241,-129.2967 507.8886,-136.2432"/>
</g>
<!-- Node19&#45;&gt;Node1 -->
<g id="edge27" class="edge">
<title>Node19&#45;&gt;Node1</title>
<path fill="none" stroke="#191970" d="M322.694,-224.4132C303.9253,-217.3843 281.9253,-205.8843 269,-188 246.9873,-157.5418 245.73,-111.6779 247.134,-85.7293"/>
<polygon fill="#191970" stroke="#191970" points="250.6336,-85.8613 247.8736,-75.6323 243.6523,-85.3499 250.6336,-85.8613"/>
</g>
<!-- Node19&#45;&gt;Node3 -->
<g id="edge39" class="edge">
<title>Node19&#45;&gt;Node3</title>
<path fill="none" stroke="#191970" d="M375.5492,-224.3231C393.3639,-215.0248 421.0316,-200.5719 445,-188 461.9014,-179.1349 465.7218,-176.1063 483,-168 508.3339,-156.1143 537.5969,-144.0539 559.7147,-135.2656"/>
<polygon fill="#191970" stroke="#191970" points="561.0113,-138.5167 569.0285,-131.5902 558.4418,-132.0053 561.0113,-138.5167"/>
</g>
<!-- Node20 -->
<g id="node21" class="node">
<title>Node20</title>
<g id="a_node21"><a xlink:href="GeomVector3_8h.html" target="_top" xlink:title="iDynTree/Core/GeomVector3.h">
<polygon fill="none" stroke="#000000" points="492.5,-168.5 492.5,-187.5 655.5,-187.5 655.5,-168.5 492.5,-168.5"/>
<text text-anchor="middle" x="574" y="-175.5" font-family="FreeSans.ttf" font-size="10.00" fill="#000000">iDynTree/Core/GeomVector3.h</text>
</a>
</g>
</g>
<!-- Node19&#45;&gt;Node20 -->
<g id="edge28" class="edge">
<title>Node19&#45;&gt;Node20</title>
<path fill="none" stroke="#191970" d="M394.3036,-224.3733C431.1685,-214.8598 487.666,-200.2797 527.4506,-190.0127"/>
<polygon fill="#191970" stroke="#191970" points="528.375,-193.3889 537.1831,-187.5011 526.6258,-186.611 528.375,-193.3889"/>
</g>
<!-- Node21 -->
<g id="node22" class="node">
<title>Node21</title>
<g id="a_node22"><a xlink:href="RotationRaw_8h.html" target="_top" xlink:title="iDynTree/Core/RotationRaw.h">
<polygon fill="none" stroke="#000000" points="278,-168.5 278,-187.5 436,-187.5 436,-168.5 278,-168.5"/>
<text text-anchor="middle" x="357" y="-175.5" font-family="FreeSans.ttf" font-size="10.00" fill="#000000">iDynTree/Core/RotationRaw.h</text>
</a>
</g>
</g>
<!-- Node19&#45;&gt;Node21 -->
<g id="edge30" class="edge">
<title>Node19&#45;&gt;Node21</title>
<path fill="none" stroke="#191970" d="M357,-224.2455C357,-216.9382 357,-206.6944 357,-197.7046"/>
<polygon fill="#191970" stroke="#191970" points="360.5001,-197.6426 357,-187.6427 353.5001,-197.6427 360.5001,-197.6426"/>
</g>
<!-- Node20&#45;&gt;Node3 -->
<g id="edge29" class="edge">
<title>Node20&#45;&gt;Node3</title>
<path fill="none" stroke="#191970" d="M577.4837,-168.2455C580.1508,-160.7776 583.9133,-150.2427 587.1737,-141.1137"/>
<polygon fill="#191970" stroke="#191970" points="590.4889,-142.2373 590.5562,-131.6427 583.8967,-139.8829 590.4889,-142.2373"/>
</g>
<!-- Node21&#45;&gt;Node1 -->
<g id="edge38" class="edge">
<title>Node21&#45;&gt;Node1</title>
<path fill="none" stroke="#191970" d="M339.9119,-168.3884C325.9591,-159.9906 306.283,-146.8427 292,-132 278.4177,-117.8854 266.5731,-98.904 258.7736,-84.9204"/>
<polygon fill="#191970" stroke="#191970" points="261.665,-82.9077 253.8422,-75.7625 255.5018,-86.2265 261.665,-82.9077"/>
</g>
<!-- Node22 -->
<g id="node23" class="node">
<title>Node22</title>
<g id="a_node23"><a xlink:href="MatrixFixSize_8h.html" target="_top" xlink:title="iDynTree/Core/MatrixFixSize.h">
<polygon fill="none" stroke="#000000" points="334.5,-112.5 334.5,-131.5 495.5,-131.5 495.5,-112.5 334.5,-112.5"/>
<text text-anchor="middle" x="415" y="-119.5" font-family="FreeSans.ttf" font-size="10.00" fill="#000000">iDynTree/Core/MatrixFixSize.h</text>
</a>
</g>
</g>
<!-- Node21&#45;&gt;Node22 -->
<g id="edge31" class="edge">
<title>Node21&#45;&gt;Node22</title>
<path fill="none" stroke="#191970" d="M367.1028,-168.2455C375.5028,-160.1352 387.6494,-148.4075 397.6084,-138.7919"/>
<polygon fill="#191970" stroke="#191970" points="400.25,-141.1066 405.0129,-131.6427 395.3878,-136.0707 400.25,-141.1066"/>
</g>
<!-- Node22&#45;&gt;Node1 -->
<g id="edge35" class="edge">
<title>Node22&#45;&gt;Node1</title>
<path fill="none" stroke="#191970" d="M386.4636,-112.3733C357.0643,-102.4554 311.3426,-87.0313 280.8001,-76.7278"/>
<polygon fill="#191970" stroke="#191970" points="281.6638,-73.3254 271.0696,-73.4452 279.4262,-79.9581 281.6638,-73.3254"/>
</g>
<!-- Node22&#45;&gt;Node4 -->
<g id="edge32" class="edge">
<title>Node22&#45;&gt;Node4</title>
<path fill="none" stroke="#191970" d="M478.0141,-112.4369C543.6039,-102.4829 646.0681,-86.9328 714.1051,-76.6074"/>
<polygon fill="#191970" stroke="#191970" points="714.9396,-80.0209 724.3013,-75.06 713.8893,-73.1001 714.9396,-80.0209"/>
</g>
<!-- Node22&#45;&gt;Node7 -->
<g id="edge33" class="edge">
<title>Node22&#45;&gt;Node7</title>
<path fill="none" stroke="#191970" d="M410.4812,-112.4509C401.7197,-93.936 382.2815,-52.8591 370.8579,-28.7187"/>
<polygon fill="#191970" stroke="#191970" points="373.9484,-27.0668 366.5073,-19.5249 367.6211,-30.061 373.9484,-27.0668"/>
</g>
<!-- Node22&#45;&gt;Node15 -->
<g id="edge37" class="edge">
<title>Node22&#45;&gt;Node15</title>
<path fill="none" stroke="#191970" d="M418.1354,-112.2455C420.51,-104.8579 423.8493,-94.4689 426.7615,-85.4087"/>
<polygon fill="#191970" stroke="#191970" points="430.1725,-86.234 429.9006,-75.6427 423.5083,-84.0919 430.1725,-86.234"/>
</g>
<!-- Node22&#45;&gt;Node16 -->
<g id="edge34" class="edge">
<title>Node22&#45;&gt;Node16</title>
<path fill="none" stroke="#191970" d="M430.5026,-112.2455C444.158,-103.6534 464.2657,-91.0014 479.9989,-81.1018"/>
<polygon fill="#191970" stroke="#191970" points="482.0751,-83.9307 488.675,-75.6427 478.3471,-78.006 482.0751,-83.9307"/>
</g>
<!-- Node23 -->
<g id="node24" class="node">
<title>Node23</title>
<polygon fill="none" stroke="#bfbfbf" points="289,-56.5 289,-75.5 349,-75.5 349,-56.5 289,-56.5"/>
<text text-anchor="middle" x="319" y="-63.5" font-family="FreeSans.ttf" font-size="10.00" fill="#000000">iostream</text>
</g>
<!-- Node22&#45;&gt;Node23 -->
<g id="edge36" class="edge">
<title>Node22&#45;&gt;Node23</title>
<path fill="none" stroke="#191970" d="M398.2781,-112.2455C383.4111,-103.5731 361.4534,-90.7645 344.4142,-80.825"/>
<polygon fill="#191970" stroke="#191970" points="345.9317,-77.6582 335.5303,-75.6427 342.4045,-83.7047 345.9317,-77.6582"/>
</g>
</g>
</svg>
