<?xml version="1.0" encoding="UTF-8" standalone="no"?>
<!DOCTYPE svg PUBLIC "-//W3C//DTD SVG 1.1//EN"
 "http://www.w3.org/Graphics/SVG/1.1/DTD/svg11.dtd">
<!-- Generated by graphviz version 2.40.1 (20161225.0304)
 -->
<!-- Title: BerdyHelper.h Pages: 1 -->
<svg width="2286pt" height="811pt"
 viewBox="0.00 0.00 2285.50 811.00" xmlns="http://www.w3.org/2000/svg" xmlns:xlink="http://www.w3.org/1999/xlink">
<g id="graph0" class="graph" transform="scale(1 1) rotate(0) translate(4 807)">
<title>BerdyHelper.h</title>
<!-- Node0 -->
<g id="node1" class="node">
<title>Node0</title>
<polygon fill="#bfbfbf" stroke="#000000" points="895,-783.5 895,-802.5 981,-802.5 981,-783.5 895,-783.5"/>
<text text-anchor="middle" x="938" y="-790.5" font-family="FreeSans.ttf" font-size="10.00" fill="#000000">BerdyHelper.h</text>
</g>
<!-- Node1 -->
<g id="node2" class="node">
<title>Node1</title>
<g id="a_node2"><a xlink:href="Direction_8h.html" target="_top" xlink:title="iDynTree/Core/Direction.h">
<polygon fill="none" stroke="#000000" points="145.5,-174 145.5,-193 286.5,-193 286.5,-174 145.5,-174"/>
<text text-anchor="middle" x="216" y="-181" font-family="FreeSans.ttf" font-size="10.00" fill="#000000">iDynTree/Core/Direction.h</text>
</a>
</g>
</g>
<!-- Node0&#45;&gt;Node1 -->
<g id="edge1" class="edge">
<title>Node0&#45;&gt;Node1</title>
<path fill="none" stroke="#191970" d="M894.9661,-792.0276C725.6144,-788.0301 112.7251,-771.891 80,-747 53.3203,-726.7072 56,-709.0202 56,-675.5 56,-675.5 56,-675.5 56,-485.5 56,-364.2887 157.8858,-244.2185 199.0499,-200.6539"/>
<polygon fill="#191970" stroke="#191970" points="201.5885,-203.0635 205.9913,-193.4267 196.5399,-198.2145 201.5885,-203.0635"/>
</g>
<!-- Node3 -->
<g id="node4" class="node">
<title>Node3</title>
<g id="a_node4"><a xlink:href="VectorFixSize_8h.html" target="_top" xlink:title="iDynTree/Core/VectorFixSize.h">
<polygon fill="none" stroke="#000000" points="457.5,-112.5 457.5,-131.5 618.5,-131.5 618.5,-112.5 457.5,-112.5"/>
<text text-anchor="middle" x="538" y="-119.5" font-family="FreeSans.ttf" font-size="10.00" fill="#000000">iDynTree/Core/VectorFixSize.h</text>
</a>
</g>
</g>
<!-- Node0&#45;&gt;Node3 -->
<g id="edge45" class="edge">
<title>Node0&#45;&gt;Node3</title>
<path fill="none" stroke="#191970" d="M894.9856,-791.5951C722.9948,-785.4175 94,-757.2374 94,-675.5 94,-675.5 94,-675.5 94,-485.5 94,-441.3444 295.9002,-191.9442 333,-168 354.4678,-154.1447 413.8345,-141.6777 463.1897,-133.2289"/>
<polygon fill="#191970" stroke="#191970" points="463.9509,-136.6502 473.2323,-131.5408 462.7904,-129.747 463.9509,-136.6502"/>
</g>
<!-- Node4 -->
<g id="node5" class="node">
<title>Node4</title>
<g id="a_node5"><a xlink:href="Utils_8h.html" target="_top" xlink:title="iDynTree/Core/Utils.h">
<polygon fill="none" stroke="#000000" points="390.5,-56.5 390.5,-75.5 509.5,-75.5 509.5,-56.5 390.5,-56.5"/>
<text text-anchor="middle" x="450" y="-63.5" font-family="FreeSans.ttf" font-size="10.00" fill="#000000">iDynTree/Core/Utils.h</text>
</a>
</g>
</g>
<!-- Node0&#45;&gt;Node4 -->
<g id="edge46" class="edge">
<title>Node0&#45;&gt;Node4</title>
<path fill="none" stroke="#191970" d="M894.9273,-791.8876C723.2008,-787.3065 94.9418,-769.0962 59,-747 27.7939,-727.8152 18,-712.1316 18,-675.5 18,-675.5 18,-675.5 18,-245 18,-149.4186 99.7239,-150.9702 187,-112 204.4581,-104.2047 308.655,-87.3504 380.5344,-76.352"/>
<polygon fill="#191970" stroke="#191970" points="381.0917,-79.8075 390.45,-74.8405 380.0368,-72.8875 381.0917,-79.8075"/>
</g>
<!-- Node17 -->
<g id="node18" class="node">
<title>Node17</title>
<g id="a_node18"><a xlink:href="Position_8h.html" target="_top" xlink:title="iDynTree/Core/Position.h">
<polygon fill="none" stroke="#000000" points="1018,-291.5 1018,-310.5 1154,-310.5 1154,-291.5 1018,-291.5"/>
<text text-anchor="middle" x="1086" y="-298.5" font-family="FreeSans.ttf" font-size="10.00" fill="#000000">iDynTree/Core/Position.h</text>
</a>
</g>
</g>
<!-- Node0&#45;&gt;Node17 -->
<g id="edge21" class="edge">
<title>Node0&#45;&gt;Node17</title>
<path fill="none" stroke="#191970" d="M981.2328,-792.3772C1080.9389,-790.362 1334.4381,-781.9246 1543,-747 1639.9636,-730.763 1669.3691,-735.5691 1757,-691 1798.949,-669.6647 1818.8321,-666.5226 1839,-624 1904.5055,-485.886 1329.2953,-352.0188 1143.0053,-312.6129"/>
<polygon fill="#191970" stroke="#191970" points="1143.6304,-309.1678 1133.1241,-310.5343 1142.1894,-316.0179 1143.6304,-309.1678"/>
</g>
<!-- Node24 -->
<g id="node25" class="node">
<title>Node24</title>
<g id="a_node25"><a xlink:href="MatrixDynSize_8h.html" target="_top" xlink:title="iDynTree/Core/MatrixDynSize.h">
<polygon fill="none" stroke="#000000" points="2110.5,-291.5 2110.5,-310.5 2277.5,-310.5 2277.5,-291.5 2110.5,-291.5"/>
<text text-anchor="middle" x="2194" y="-298.5" font-family="FreeSans.ttf" font-size="10.00" fill="#000000">iDynTree/Core/MatrixDynSize.h</text>
</a>
</g>
</g>
<!-- Node0&#45;&gt;Node24 -->
<g id="edge40" class="edge">
<title>Node0&#45;&gt;Node24</title>
<path fill="none" stroke="#191970" d="M981.0037,-791.8984C1164.5678,-787.087 1877.6102,-767.2497 1976,-747 2063.9662,-728.8956 2165,-765.31 2165,-675.5 2165,-675.5 2165,-675.5 2165,-418.5 2165,-382.948 2177.6688,-343.0618 2186.2595,-320.1018"/>
<polygon fill="#191970" stroke="#191970" points="2189.6109,-321.1401 2189.9677,-310.5512 2183.0855,-318.6064 2189.6109,-321.1401"/>
</g>
<!-- Node25 -->
<g id="node26" class="node">
<title>Node25</title>
<g id="a_node26"><a xlink:href="VectorDynSize_8h.html" target="_top" xlink:title="iDynTree/Core/VectorDynSize.h">
<polygon fill="none" stroke="#000000" points="121.5,-537.5 121.5,-556.5 288.5,-556.5 288.5,-537.5 121.5,-537.5"/>
<text text-anchor="middle" x="205" y="-544.5" font-family="FreeSans.ttf" font-size="10.00" fill="#000000">iDynTree/Core/VectorDynSize.h</text>
</a>
</g>
</g>
<!-- Node0&#45;&gt;Node25 -->
<g id="edge42" class="edge">
<title>Node0&#45;&gt;Node25</title>
<path fill="none" stroke="#191970" d="M894.6732,-791.1301C760.4273,-784.651 353.8428,-759.6746 244,-691 212.7189,-671.4428 206.4551,-659.0681 195,-624 188.8103,-605.0513 193.1081,-582.3014 197.8427,-566.4642"/>
<polygon fill="#191970" stroke="#191970" points="201.2431,-567.3294 201.0667,-556.7361 194.5985,-565.1273 201.2431,-567.3294"/>
</g>
<!-- Node26 -->
<g id="node27" class="node">
<title>Node26</title>
<g id="a_node27"><a xlink:href="Triplets_8h.html" target="_top" xlink:title="iDynTree/Core/Triplets.h">
<polygon fill="none" stroke="#000000" points="1964,-599 1964,-618 2096,-618 2096,-599 1964,-599"/>
<text text-anchor="middle" x="2030" y="-606" font-family="FreeSans.ttf" font-size="10.00" fill="#000000">iDynTree/Core/Triplets.h</text>
</a>
</g>
</g>
<!-- Node0&#45;&gt;Node26 -->
<g id="edge47" class="edge">
<title>Node0&#45;&gt;Node26</title>
<path fill="none" stroke="#191970" d="M981.0747,-792.192C1168.8097,-788.5243 1908.0374,-772.5092 1950,-747 1994.1486,-720.1619 2016.3821,-659.1737 2025.2351,-627.8536"/>
<polygon fill="#191970" stroke="#191970" points="2028.6367,-628.6807 2027.8225,-618.1172 2021.8715,-626.8828 2028.6367,-628.6807"/>
</g>
<!-- Node27 -->
<g id="node28" class="node">
<title>Node27</title>
<polygon fill="none" stroke="#bfbfbf" points="1043.5,-537.5 1043.5,-556.5 1090.5,-556.5 1090.5,-537.5 1043.5,-537.5"/>
<text text-anchor="middle" x="1067" y="-544.5" font-family="FreeSans.ttf" font-size="10.00" fill="#000000">vector</text>
</g>
<!-- Node0&#45;&gt;Node27 -->
<g id="edge128" class="edge">
<title>Node0&#45;&gt;Node27</title>
<path fill="none" stroke="#191970" d="M920.1657,-783.3294C868.0506,-753.8969 723.4123,-663.1409 784,-593 819.972,-551.3561 975.0855,-568.0194 1029,-557 1030.4621,-556.7012 1031.9517,-556.3804 1033.4536,-556.0436"/>
<polygon fill="#191970" stroke="#191970" points="1034.4776,-559.3971 1043.3791,-553.6515 1032.8374,-552.592 1034.4776,-559.3971"/>
</g>
<!-- Node28 -->
<g id="node29" class="node">
<title>Node28</title>
<g id="a_node29"><a xlink:href="Indices_8h.html" target="_top" xlink:title="iDynTree/Model/Indices.h">
<polygon fill="none" stroke="#000000" points="1501,-537.5 1501,-556.5 1639,-556.5 1639,-537.5 1501,-537.5"/>
<text text-anchor="middle" x="1570" y="-544.5" font-family="FreeSans.ttf" font-size="10.00" fill="#000000">iDynTree/Model/Indices.h</text>
</a>
</g>
</g>
<!-- Node0&#45;&gt;Node28 -->
<g id="edge52" class="edge">
<title>Node0&#45;&gt;Node28</title>
<path fill="none" stroke="#191970" d="M981.1793,-791.6843C1143.3177,-785.7543 1712.0988,-755.7208 1821,-624 1829.779,-613.3814 1829.8207,-603.5841 1821,-593 1799.3948,-567.0755 1714.61,-555.7157 1649.4956,-550.7667"/>
<polygon fill="#191970" stroke="#191970" points="1649.4526,-547.2546 1639.2268,-550.0262 1648.9491,-554.2364 1649.4526,-547.2546"/>
</g>
<!-- Node29 -->
<g id="node30" class="node">
<title>Node29</title>
<g id="a_node30"><a xlink:href="LinkState_8h.html" target="_top" xlink:title="iDynTree/Model/LinkState.h">
<polygon fill="none" stroke="#000000" points="485.5,-599 485.5,-618 634.5,-618 634.5,-599 485.5,-599"/>
<text text-anchor="middle" x="560" y="-606" font-family="FreeSans.ttf" font-size="10.00" fill="#000000">iDynTree/Model/LinkState.h</text>
</a>
</g>
</g>
<!-- Node0&#45;&gt;Node29 -->
<g id="edge54" class="edge">
<title>Node0&#45;&gt;Node29</title>
<path fill="none" stroke="#191970" d="M894.8474,-788.4971C832.594,-781.4374 721.1931,-766.5282 686,-747 632.9081,-717.5401 590.2138,-657.338 571.0082,-626.9379"/>
<polygon fill="#191970" stroke="#191970" points="573.8427,-624.8662 565.6146,-618.1916 567.8845,-628.5405 573.8427,-624.8662"/>
</g>
<!-- Node38 -->
<g id="node39" class="node">
<title>Node38</title>
<g id="a_node39"><a xlink:href="Traversal_8h.html" target="_top" xlink:title="iDynTree/Model/Traversal.h">
<polygon fill="none" stroke="#000000" points="1242,-599 1242,-618 1390,-618 1390,-599 1242,-599"/>
<text text-anchor="middle" x="1316" y="-606" font-family="FreeSans.ttf" font-size="10.00" fill="#000000">iDynTree/Model/Traversal.h</text>
</a>
</g>
</g>
<!-- Node0&#45;&gt;Node38 -->
<g id="edge83" class="edge">
<title>Node0&#45;&gt;Node38</title>
<path fill="none" stroke="#191970" d="M974.7936,-783.4384C1005.1125,-775.1162 1048.9849,-762.0476 1086,-747 1136.8207,-726.3401 1148.8505,-719.0447 1196,-691 1231.837,-669.684 1271.3056,-641.5909 1294.8516,-624.3007"/>
<polygon fill="#191970" stroke="#191970" points="1297.0922,-626.997 1303.0555,-618.2397 1292.9327,-621.3669 1297.0922,-626.997"/>
</g>
<!-- Node39 -->
<g id="node40" class="node">
<title>Node39</title>
<g id="a_node40"><a xlink:href="FreeFloatingState_8h.html" target="_top" xlink:title="iDynTree/Model/FreeFloating\lState.h">
<polygon fill="none" stroke="#000000" points="406,-660.5 406,-690.5 560,-690.5 560,-660.5 406,-660.5"/>
<text text-anchor="start" x="414" y="-678.5" font-family="FreeSans.ttf" font-size="10.00" fill="#000000">iDynTree/Model/FreeFloating</text>
<text text-anchor="middle" x="483" y="-667.5" font-family="FreeSans.ttf" font-size="10.00" fill="#000000">State.h</text>
</a>
</g>
</g>
<!-- Node0&#45;&gt;Node39 -->
<g id="edge86" class="edge">
<title>Node0&#45;&gt;Node39</title>
<path fill="none" stroke="#191970" d="M894.7898,-789.3871C816.1033,-782.4373 652.6146,-766.1843 599,-747 566.0159,-735.1977 532.3773,-713.1255 509.8779,-696.6137"/>
<polygon fill="#191970" stroke="#191970" points="511.929,-693.7771 501.8247,-690.5906 507.7365,-699.3827 511.929,-693.7771"/>
</g>
<!-- Node41 -->
<g id="node42" class="node">
<title>Node41</title>
<g id="a_node42"><a xlink:href="Sensors_8h.html" target="_top" xlink:title="iDynTree/Sensors/Sensors.h">
<polygon fill="none" stroke="#000000" points="926.5,-727.5 926.5,-746.5 1077.5,-746.5 1077.5,-727.5 926.5,-727.5"/>
<text text-anchor="middle" x="1002" y="-734.5" font-family="FreeSans.ttf" font-size="10.00" fill="#000000">iDynTree/Sensors/Sensors.h</text>
</a>
</g>
</g>
<!-- Node0&#45;&gt;Node41 -->
<g id="edge98" class="edge">
<title>Node0&#45;&gt;Node41</title>
<path fill="none" stroke="#191970" d="M949.1479,-783.2455C958.5087,-775.0549 972.0858,-763.1749 983.1349,-753.5069"/>
<polygon fill="#191970" stroke="#191970" points="985.7588,-755.8618 990.9798,-746.6427 981.1492,-750.5937 985.7588,-755.8618"/>
</g>
<!-- Node51 -->
<g id="node50" class="node">
<title>Node51</title>
<g id="a_node50"><a xlink:href="LinkTraversalsCache_8h.html" target="_top" xlink:title="iDynTree/Model/LinkTraversals\lCache.h">
<polygon fill="none" stroke="#000000" points="1408,-593.5 1408,-623.5 1572,-623.5 1572,-593.5 1408,-593.5"/>
<text text-anchor="start" x="1416" y="-611.5" font-family="FreeSans.ttf" font-size="10.00" fill="#000000">iDynTree/Model/LinkTraversals</text>
<text text-anchor="middle" x="1490" y="-600.5" font-family="FreeSans.ttf" font-size="10.00" fill="#000000">Cache.h</text>
</a>
</g>
</g>
<!-- Node0&#45;&gt;Node51 -->
<g id="edge125" class="edge">
<title>Node0&#45;&gt;Node51</title>
<path fill="none" stroke="#191970" d="M981.0112,-783.8079C1018.7599,-775.3849 1074.9749,-761.9761 1123,-747 1240.8906,-710.2371 1375.9052,-656.0651 1444.6359,-627.5918"/>
<polygon fill="#191970" stroke="#191970" points="1446.3939,-630.6515 1454.2856,-623.5824 1443.708,-624.1873 1446.3939,-630.6515"/>
</g>
<!-- Node2 -->
<g id="node3" class="node">
<title>Node2</title>
<polygon fill="none" stroke="#bfbfbf" points="1243,-56.5 1243,-75.5 1287,-75.5 1287,-56.5 1243,-56.5"/>
<text text-anchor="middle" x="1265" y="-63.5" font-family="FreeSans.ttf" font-size="10.00" fill="#000000">string</text>
</g>
<!-- Node1&#45;&gt;Node2 -->
<g id="edge2" class="edge">
<title>Node1&#45;&gt;Node2</title>
<path fill="none" stroke="#191970" d="M240.2356,-173.8806C281.9194,-157.827 370.217,-125.9613 448,-112 602.7078,-84.2315 1100.3782,-70.0992 1232.5282,-66.7766"/>
<polygon fill="#191970" stroke="#191970" points="1232.881,-70.269 1242.791,-66.5219 1232.7073,-63.2711 1232.881,-70.269"/>
</g>
<!-- Node1&#45;&gt;Node3 -->
<g id="edge3" class="edge">
<title>Node1&#45;&gt;Node3</title>
<path fill="none" stroke="#191970" d="M265.9592,-173.9581C323.2706,-163.012 417.1834,-145.0752 478.2986,-133.4026"/>
<polygon fill="#191970" stroke="#191970" points="479.0227,-136.8276 488.1885,-131.5137 477.7094,-129.9519 479.0227,-136.8276"/>
</g>
<!-- Node1&#45;&gt;Node4 -->
<g id="edge20" class="edge">
<title>Node1&#45;&gt;Node4</title>
<path fill="none" stroke="#191970" d="M226.0659,-173.863C242.312,-158.7715 275.855,-129.4836 309,-112 337.1944,-97.1278 371.0932,-85.8823 398.586,-78.2338"/>
<polygon fill="#191970" stroke="#191970" points="399.6634,-81.5682 408.4027,-75.5786 397.8357,-74.811 399.6634,-81.5682"/>
</g>
<!-- Node3&#45;&gt;Node2 -->
<g id="edge16" class="edge">
<title>Node3&#45;&gt;Node2</title>
<path fill="none" stroke="#191970" d="M618.5794,-115.7931C777.4522,-103.5553 1125.025,-76.7821 1232.6074,-68.4952"/>
<polygon fill="#191970" stroke="#191970" points="1233.1235,-71.9659 1242.8251,-67.7081 1232.5858,-64.9865 1233.1235,-71.9659"/>
</g>
<!-- Node3&#45;&gt;Node4 -->
<g id="edge4" class="edge">
<title>Node3&#45;&gt;Node4</title>
<path fill="none" stroke="#191970" d="M522.6716,-112.2455C509.1697,-103.6534 489.2878,-91.0014 473.7314,-81.1018"/>
<polygon fill="#191970" stroke="#191970" points="475.4685,-78.0587 465.1528,-75.6427 471.7103,-83.9643 475.4685,-78.0587"/>
</g>
<!-- Node6 -->
<g id="node7" class="node">
<title>Node6</title>
<g id="a_node7"><a xlink:href="Span_8h.html" target="_top" xlink:title="iDynTree/Core/Span.h">
<polygon fill="none" stroke="#000000" points="251.5,-56.5 251.5,-75.5 372.5,-75.5 372.5,-56.5 251.5,-56.5"/>
<text text-anchor="middle" x="312" y="-63.5" font-family="FreeSans.ttf" font-size="10.00" fill="#000000">iDynTree/Core/Span.h</text>
</a>
</g>
</g>
<!-- Node3&#45;&gt;Node6 -->
<g id="edge6" class="edge">
<title>Node3&#45;&gt;Node6</title>
<path fill="none" stroke="#191970" d="M499.406,-112.4369C460.9716,-102.9133 401.864,-88.2672 360.329,-77.9753"/>
<polygon fill="#191970" stroke="#191970" points="360.9831,-74.5316 350.4348,-75.5237 359.2994,-81.3261 360.9831,-74.5316"/>
</g>
<!-- Node7 -->
<g id="node8" class="node">
<title>Node7</title>
<polygon fill="none" stroke="#bfbfbf" points="512,-.5 512,-19.5 564,-19.5 564,-.5 512,-.5"/>
<text text-anchor="middle" x="538" y="-7.5" font-family="FreeSans.ttf" font-size="10.00" fill="#000000">cassert</text>
</g>
<!-- Node3&#45;&gt;Node7 -->
<g id="edge18" class="edge">
<title>Node3&#45;&gt;Node7</title>
<path fill="none" stroke="#191970" d="M538,-112.4509C538,-94.184 538,-53.9553 538,-29.6976"/>
<polygon fill="#191970" stroke="#191970" points="541.5001,-29.5249 538,-19.5249 534.5001,-29.5249 541.5001,-29.5249"/>
</g>
<!-- Node15 -->
<g id="node16" class="node">
<title>Node15</title>
<polygon fill="none" stroke="#bfbfbf" points="566,-56.5 566,-75.5 622,-75.5 622,-56.5 566,-56.5"/>
<text text-anchor="middle" x="594" y="-63.5" font-family="FreeSans.ttf" font-size="10.00" fill="#000000">sstream</text>
</g>
<!-- Node3&#45;&gt;Node15 -->
<g id="edge17" class="edge">
<title>Node3&#45;&gt;Node15</title>
<path fill="none" stroke="#191970" d="M547.7545,-112.2455C555.8648,-104.1352 567.5925,-92.4075 577.2081,-82.7919"/>
<polygon fill="#191970" stroke="#191970" points="579.7611,-85.1887 584.3573,-75.6427 574.8113,-80.2389 579.7611,-85.1887"/>
</g>
<!-- Node16 -->
<g id="node17" class="node">
<title>Node16</title>
<polygon fill="none" stroke="#bfbfbf" points="640,-56.5 640,-75.5 690,-75.5 690,-56.5 640,-56.5"/>
<text text-anchor="middle" x="665" y="-63.5" font-family="FreeSans.ttf" font-size="10.00" fill="#000000">cstring</text>
</g>
<!-- Node3&#45;&gt;Node16 -->
<g id="edge19" class="edge">
<title>Node3&#45;&gt;Node16</title>
<path fill="none" stroke="#191970" d="M559.8321,-112.3733C580.3103,-103.3435 611.1399,-89.7494 634.1319,-79.6111"/>
<polygon fill="#191970" stroke="#191970" points="635.715,-82.7383 643.4528,-75.5011 632.8907,-76.3333 635.715,-82.7383"/>
</g>
<!-- Node5 -->
<g id="node6" class="node">
<title>Node5</title>
<polygon fill="none" stroke="#bfbfbf" points="438.5,-.5 438.5,-19.5 491.5,-19.5 491.5,-.5 438.5,-.5"/>
<text text-anchor="middle" x="465" y="-7.5" font-family="FreeSans.ttf" font-size="10.00" fill="#000000">cstddef</text>
</g>
<!-- Node4&#45;&gt;Node5 -->
<g id="edge5" class="edge">
<title>Node4&#45;&gt;Node5</title>
<path fill="none" stroke="#191970" d="M452.6128,-56.2455C454.5916,-48.8579 457.3744,-38.4689 459.8012,-29.4087"/>
<polygon fill="#191970" stroke="#191970" points="463.2105,-30.2078 462.4171,-19.6427 456.4489,-28.3966 463.2105,-30.2078"/>
</g>
<!-- Node6&#45;&gt;Node5 -->
<g id="edge10" class="edge">
<title>Node6&#45;&gt;Node5</title>
<path fill="none" stroke="#191970" d="M338.3016,-56.3733C363.4128,-47.1822 401.4438,-33.2624 429.2872,-23.0713"/>
<polygon fill="#191970" stroke="#191970" points="430.8538,-26.2251 439.0416,-19.5011 428.4478,-19.6516 430.8538,-26.2251"/>
</g>
<!-- Node6&#45;&gt;Node7 -->
<g id="edge7" class="edge">
<title>Node6&#45;&gt;Node7</title>
<path fill="none" stroke="#191970" d="M352.025,-56.4196C390.1195,-47.2509 449.0305,-32.9411 500,-20 500.5992,-19.8479 501.2036,-19.694 501.8121,-19.5386"/>
<polygon fill="#191970" stroke="#191970" points="503.0436,-22.8355 511.8502,-16.9453 501.2925,-16.058 503.0436,-22.8355"/>
</g>
<!-- Node8 -->
<g id="node9" class="node">
<title>Node8</title>
<polygon fill="none" stroke="#bfbfbf" points="356,-.5 356,-19.5 420,-19.5 420,-.5 356,-.5"/>
<text text-anchor="middle" x="388" y="-7.5" font-family="FreeSans.ttf" font-size="10.00" fill="#000000">algorithm</text>
</g>
<!-- Node6&#45;&gt;Node8 -->
<g id="edge8" class="edge">
<title>Node6&#45;&gt;Node8</title>
<path fill="none" stroke="#191970" d="M325.2382,-56.2455C336.681,-47.814 353.4296,-35.4729 366.7475,-25.6598"/>
<polygon fill="#191970" stroke="#191970" points="368.9391,-28.3924 374.9135,-19.6427 364.7867,-22.757 368.9391,-28.3924"/>
</g>
<!-- Node9 -->
<g id="node10" class="node">
<title>Node9</title>
<polygon fill="none" stroke="#bfbfbf" points="0,-.5 0,-19.5 42,-19.5 42,-.5 0,-.5"/>
<text text-anchor="middle" x="21" y="-7.5" font-family="FreeSans.ttf" font-size="10.00" fill="#000000">array</text>
</g>
<!-- Node6&#45;&gt;Node9 -->
<g id="edge9" class="edge">
<title>Node6&#45;&gt;Node9</title>
<path fill="none" stroke="#191970" d="M251.3395,-57.8961C200.384,-50.5026 125.5619,-38.2811 52.0781,-19.9931"/>
<polygon fill="#191970" stroke="#191970" points="52.7436,-16.5513 42.1907,-17.4931 51.0275,-23.3377 52.7436,-16.5513"/>
</g>
<!-- Node10 -->
<g id="node11" class="node">
<title>Node10</title>
<polygon fill="none" stroke="#bfbfbf" points="2018.5,-.5 2018.5,-19.5 2071.5,-19.5 2071.5,-.5 2018.5,-.5"/>
<text text-anchor="middle" x="2045" y="-7.5" font-family="FreeSans.ttf" font-size="10.00" fill="#000000">iterator</text>
</g>
<!-- Node6&#45;&gt;Node10 -->
<g id="edge11" class="edge">
<title>Node6&#45;&gt;Node10</title>
<path fill="none" stroke="#191970" d="M372.536,-56.8204C375.3939,-56.5149 378.2262,-56.2385 381,-56 712.647,-27.4809 1794.8149,-13.0401 2008.251,-10.4336"/>
<polygon fill="#191970" stroke="#191970" points="2008.3532,-13.9327 2018.31,-10.3117 2008.2683,-6.9332 2008.3532,-13.9327"/>
</g>
<!-- Node11 -->
<g id="node12" class="node">
<title>Node11</title>
<polygon fill="none" stroke="#bfbfbf" points="60,-.5 60,-19.5 104,-19.5 104,-.5 60,-.5"/>
<text text-anchor="middle" x="82" y="-7.5" font-family="FreeSans.ttf" font-size="10.00" fill="#000000">limits</text>
</g>
<!-- Node6&#45;&gt;Node11 -->
<g id="edge12" class="edge">
<title>Node6&#45;&gt;Node11</title>
<path fill="none" stroke="#191970" d="M265.4781,-56.4156C227.184,-48.2636 171.3049,-35.7689 114.2023,-20.175"/>
<polygon fill="#191970" stroke="#191970" points="114.8536,-16.724 104.2829,-17.4377 112.9915,-23.4718 114.8536,-16.724"/>
</g>
<!-- Node12 -->
<g id="node13" class="node">
<title>Node12</title>
<polygon fill="none" stroke="#bfbfbf" points="122.5,-.5 122.5,-19.5 187.5,-19.5 187.5,-.5 122.5,-.5"/>
<text text-anchor="middle" x="155" y="-7.5" font-family="FreeSans.ttf" font-size="10.00" fill="#000000">stdexcept</text>
</g>
<!-- Node6&#45;&gt;Node12 -->
<g id="edge13" class="edge">
<title>Node6&#45;&gt;Node12</title>
<path fill="none" stroke="#191970" d="M285.0107,-56.3733C259.1301,-47.1419 219.8752,-33.1402 191.2711,-22.9375"/>
<polygon fill="#191970" stroke="#191970" points="192.2317,-19.5642 181.6371,-19.5011 189.88,-26.1573 192.2317,-19.5642"/>
</g>
<!-- Node13 -->
<g id="node14" class="node">
<title>Node13</title>
<polygon fill="none" stroke="#bfbfbf" points="205.5,-.5 205.5,-19.5 274.5,-19.5 274.5,-.5 205.5,-.5"/>
<text text-anchor="middle" x="240" y="-7.5" font-family="FreeSans.ttf" font-size="10.00" fill="#000000">type_traits</text>
</g>
<!-- Node6&#45;&gt;Node13 -->
<g id="edge14" class="edge">
<title>Node6&#45;&gt;Node13</title>
<path fill="none" stroke="#191970" d="M299.4586,-56.2455C288.7213,-47.8943 273.0527,-35.7076 260.4953,-25.9408"/>
<polygon fill="#191970" stroke="#191970" points="262.4401,-23.0194 252.3977,-19.6427 258.1425,-28.5449 262.4401,-23.0194"/>
</g>
<!-- Node14 -->
<g id="node15" class="node">
<title>Node14</title>
<polygon fill="none" stroke="#bfbfbf" points="292.5,-.5 292.5,-19.5 337.5,-19.5 337.5,-.5 292.5,-.5"/>
<text text-anchor="middle" x="315" y="-7.5" font-family="FreeSans.ttf" font-size="10.00" fill="#000000">utility</text>
</g>
<!-- Node6&#45;&gt;Node14 -->
<g id="edge15" class="edge">
<title>Node6&#45;&gt;Node14</title>
<path fill="none" stroke="#191970" d="M312.5226,-56.2455C312.914,-48.9382 313.4628,-38.6944 313.9444,-29.7046"/>
<polygon fill="#191970" stroke="#191970" points="317.4434,-29.8156 314.4834,-19.6427 310.4534,-29.4411 317.4434,-29.8156"/>
</g>
<!-- Node17&#45;&gt;Node2 -->
<g id="edge39" class="edge">
<title>Node17&#45;&gt;Node2</title>
<path fill="none" stroke="#191970" d="M1114.5369,-291.3801C1151.4665,-277.3271 1214.7658,-247.4543 1246,-199 1268.5473,-164.0219 1268.895,-113.197 1267.035,-85.604"/>
<polygon fill="#191970" stroke="#191970" points="1270.5214,-85.2943 1266.1928,-75.6241 1263.5462,-85.8831 1270.5214,-85.2943"/>
</g>
<!-- Node18 -->
<g id="node19" class="node">
<title>Node18</title>
<g id="a_node19"><a xlink:href="PositionRaw_8h.html" target="_top" xlink:title="iDynTree/Core/PositionRaw.h">
<polygon fill="none" stroke="#000000" points="1081,-174 1081,-193 1237,-193 1237,-174 1081,-174"/>
<text text-anchor="middle" x="1159" y="-181" font-family="FreeSans.ttf" font-size="10.00" fill="#000000">iDynTree/Core/PositionRaw.h</text>
</a>
</g>
</g>
<!-- Node17&#45;&gt;Node18 -->
<g id="edge22" class="edge">
<title>Node17&#45;&gt;Node18</title>
<path fill="none" stroke="#191970" d="M1091.9739,-291.3845C1104.112,-271.8471 1131.8371,-227.2211 1147.5619,-201.9106"/>
<polygon fill="#191970" stroke="#191970" points="1150.6392,-203.5896 1152.9436,-193.2484 1144.6933,-199.8955 1150.6392,-203.5896"/>
</g>
<!-- Node19 -->
<g id="node20" class="node">
<title>Node19</title>
<g id="a_node20"><a xlink:href="Rotation_8h.html" target="_top" xlink:title="iDynTree/Core/Rotation.h">
<polygon fill="none" stroke="#000000" points="877.5,-235.5 877.5,-254.5 1014.5,-254.5 1014.5,-235.5 877.5,-235.5"/>
<text text-anchor="middle" x="946" y="-242.5" font-family="FreeSans.ttf" font-size="10.00" fill="#000000">iDynTree/Core/Rotation.h</text>
</a>
</g>
</g>
<!-- Node17&#45;&gt;Node19 -->
<g id="edge25" class="edge">
<title>Node17&#45;&gt;Node19</title>
<path fill="none" stroke="#191970" d="M1061.9331,-291.3733C1039.1572,-282.2629 1004.7656,-268.5062 979.351,-258.3404"/>
<polygon fill="#191970" stroke="#191970" points="980.3375,-254.9654 969.7528,-254.5011 977.7377,-261.4648 980.3375,-254.9654"/>
</g>
<!-- Node18&#45;&gt;Node2 -->
<g id="edge24" class="edge">
<title>Node18&#45;&gt;Node2</title>
<path fill="none" stroke="#191970" d="M1167.6744,-173.8845C1185.5326,-154.0889 1226.626,-108.5372 1249.2874,-83.4173"/>
<polygon fill="#191970" stroke="#191970" points="1252.1061,-85.5179 1256.2057,-75.7484 1246.9085,-80.829 1252.1061,-85.5179"/>
</g>
<!-- Node18&#45;&gt;Node3 -->
<g id="edge23" class="edge">
<title>Node18&#45;&gt;Node3</title>
<path fill="none" stroke="#191970" d="M1085.3457,-173.9828C1068.4852,-171.911 1050.6314,-169.8019 1034,-168 892.6913,-152.6899 728.3848,-138.0781 628.8552,-129.5784"/>
<polygon fill="#191970" stroke="#191970" points="629.0944,-126.0862 618.8334,-128.7245 628.5001,-133.0609 629.0944,-126.0862"/>
</g>
<!-- Node19&#45;&gt;Node2 -->
<g id="edge26" class="edge">
<title>Node19&#45;&gt;Node2</title>
<path fill="none" stroke="#191970" d="M967.3007,-235.3649C985.5568,-226.7596 1012.2685,-213.3305 1034,-199 1052.1958,-187.0011 1053.8314,-180.04 1072,-168 1126.6063,-131.8133 1195.4602,-97.9917 1234.4269,-79.8388"/>
<polygon fill="#191970" stroke="#191970" points="1236.0544,-82.9424 1243.6629,-75.5694 1233.1171,-76.5884 1236.0544,-82.9424"/>
</g>
<!-- Node19&#45;&gt;Node3 -->
<g id="edge38" class="edge">
<title>Node19&#45;&gt;Node3</title>
<path fill="none" stroke="#191970" d="M928.7859,-235.4874C898.8212,-219.3142 834.7475,-186.4237 777,-168 726.4638,-151.877 668.0179,-140.505 621.5727,-133.1015"/>
<polygon fill="#191970" stroke="#191970" points="621.971,-129.6214 611.5506,-131.5356 620.8904,-136.5375 621.971,-129.6214"/>
</g>
<!-- Node20 -->
<g id="node21" class="node">
<title>Node20</title>
<g id="a_node21"><a xlink:href="GeomVector3_8h.html" target="_top" xlink:title="iDynTree/Core/GeomVector3.h">
<polygon fill="none" stroke="#000000" points="571.5,-174 571.5,-193 734.5,-193 734.5,-174 571.5,-174"/>
<text text-anchor="middle" x="653" y="-181" font-family="FreeSans.ttf" font-size="10.00" fill="#000000">iDynTree/Core/GeomVector3.h</text>
</a>
</g>
</g>
<!-- Node19&#45;&gt;Node20 -->
<g id="edge27" class="edge">
<title>Node19&#45;&gt;Node20</title>
<path fill="none" stroke="#191970" d="M900.5402,-235.4581C848.7886,-224.5956 764.2388,-206.8488 708.6038,-195.1711"/>
<polygon fill="#191970" stroke="#191970" points="709.0722,-191.6932 698.5664,-193.0643 707.6342,-198.5439 709.0722,-191.6932"/>
</g>
<!-- Node21 -->
<g id="node22" class="node">
<title>Node21</title>
<g id="a_node22"><a xlink:href="RotationRaw_8h.html" target="_top" xlink:title="iDynTree/Core/RotationRaw.h">
<polygon fill="none" stroke="#000000" points="867,-174 867,-193 1025,-193 1025,-174 867,-174"/>
<text text-anchor="middle" x="946" y="-181" font-family="FreeSans.ttf" font-size="10.00" fill="#000000">iDynTree/Core/RotationRaw.h</text>
</a>
</g>
</g>
<!-- Node19&#45;&gt;Node21 -->
<g id="edge29" class="edge">
<title>Node19&#45;&gt;Node21</title>
<path fill="none" stroke="#191970" d="M946,-235.3906C946,-226.8657 946,-214.1392 946,-203.4235"/>
<polygon fill="#191970" stroke="#191970" points="949.5001,-203.2448 946,-193.2449 942.5001,-203.2449 949.5001,-203.2448"/>
</g>
<!-- Node20&#45;&gt;Node3 -->
<g id="edge28" class="edge">
<title>Node20&#45;&gt;Node3</title>
<path fill="none" stroke="#191970" d="M635.0313,-173.8906C616.2116,-163.8262 586.4415,-147.9057 564.8359,-136.3514"/>
<polygon fill="#191970" stroke="#191970" points="566.3114,-133.1714 555.8426,-131.5419 563.0102,-139.3442 566.3114,-133.1714"/>
</g>
<!-- Node21&#45;&gt;Node2 -->
<g id="edge37" class="edge">
<title>Node21&#45;&gt;Node2</title>
<path fill="none" stroke="#191970" d="M955.3276,-173.9133C971.0595,-158.3448 1004.5379,-127.7265 1039,-112 1103.7488,-82.4523 1187.5379,-71.76 1232.711,-67.9841"/>
<polygon fill="#191970" stroke="#191970" points="1233.1011,-71.4644 1242.8012,-67.2032 1232.5609,-64.4853 1233.1011,-71.4644"/>
</g>
<!-- Node22 -->
<g id="node23" class="node">
<title>Node22</title>
<g id="a_node23"><a xlink:href="MatrixFixSize_8h.html" target="_top" xlink:title="iDynTree/Core/MatrixFixSize.h">
<polygon fill="none" stroke="#000000" points="715.5,-112.5 715.5,-131.5 876.5,-131.5 876.5,-112.5 715.5,-112.5"/>
<text text-anchor="middle" x="796" y="-119.5" font-family="FreeSans.ttf" font-size="10.00" fill="#000000">iDynTree/Core/MatrixFixSize.h</text>
</a>
</g>
</g>
<!-- Node21&#45;&gt;Node22 -->
<g id="edge30" class="edge">
<title>Node21&#45;&gt;Node22</title>
<path fill="none" stroke="#191970" d="M922.5625,-173.8906C897.3547,-163.5554 857.0847,-147.0447 828.7523,-135.4284"/>
<polygon fill="#191970" stroke="#191970" points="829.8532,-132.0971 819.2729,-131.5419 827.1977,-138.5739 829.8532,-132.0971"/>
</g>
<!-- Node22&#45;&gt;Node2 -->
<g id="edge34" class="edge">
<title>Node22&#45;&gt;Node2</title>
<path fill="none" stroke="#191970" d="M875.8251,-112.4686C980.7499,-99.9403 1160.25,-78.5075 1232.9859,-69.8226"/>
<polygon fill="#191970" stroke="#191970" points="1233.4067,-73.2973 1242.9211,-68.6363 1232.5767,-66.3467 1233.4067,-73.2973"/>
</g>
<!-- Node22&#45;&gt;Node4 -->
<g id="edge31" class="edge">
<title>Node22&#45;&gt;Node4</title>
<path fill="none" stroke="#191970" d="M736.9136,-112.4369C676.4544,-102.6516 582.5812,-87.4582 518.8095,-77.1368"/>
<polygon fill="#191970" stroke="#191970" points="519.2734,-73.6664 508.8427,-75.5237 518.155,-80.5765 519.2734,-73.6664"/>
</g>
<!-- Node22&#45;&gt;Node7 -->
<g id="edge32" class="edge">
<title>Node22&#45;&gt;Node7</title>
<path fill="none" stroke="#191970" d="M796.171,-112.3132C795.8653,-97.8211 793.0209,-70.6379 777,-56 747.793,-29.3143 633.4369,-17.0559 574.1274,-12.3967"/>
<polygon fill="#191970" stroke="#191970" points="574.3049,-8.9003 564.07,-11.6382 573.7784,-15.8804 574.3049,-8.9003"/>
</g>
<!-- Node22&#45;&gt;Node15 -->
<g id="edge36" class="edge">
<title>Node22&#45;&gt;Node15</title>
<path fill="none" stroke="#191970" d="M761.275,-112.3733C725.2901,-102.3973 669.2097,-86.8502 632.0448,-76.5471"/>
<polygon fill="#191970" stroke="#191970" points="632.668,-73.0879 622.0964,-73.7891 630.7979,-79.8335 632.668,-73.0879"/>
</g>
<!-- Node22&#45;&gt;Node16 -->
<g id="edge33" class="edge">
<title>Node22&#45;&gt;Node16</title>
<path fill="none" stroke="#191970" d="M773.4803,-112.3733C752.2628,-103.3032 720.2724,-89.6279 696.5231,-79.4755"/>
<polygon fill="#191970" stroke="#191970" points="697.7967,-76.2136 687.2258,-75.5011 695.0452,-82.6502 697.7967,-76.2136"/>
</g>
<!-- Node23 -->
<g id="node24" class="node">
<title>Node23</title>
<polygon fill="none" stroke="#bfbfbf" points="708,-56.5 708,-75.5 768,-75.5 768,-56.5 708,-56.5"/>
<text text-anchor="middle" x="738" y="-63.5" font-family="FreeSans.ttf" font-size="10.00" fill="#000000">iostream</text>
</g>
<!-- Node22&#45;&gt;Node23 -->
<g id="edge35" class="edge">
<title>Node22&#45;&gt;Node23</title>
<path fill="none" stroke="#191970" d="M785.8972,-112.2455C777.4972,-104.1352 765.3506,-92.4075 755.3916,-82.7919"/>
<polygon fill="#191970" stroke="#191970" points="757.6122,-80.0707 747.9871,-75.6427 752.75,-85.1066 757.6122,-80.0707"/>
</g>
<!-- Node24&#45;&gt;Node2 -->
<g id="edge41" class="edge">
<title>Node24&#45;&gt;Node2</title>
<path fill="none" stroke="#191970" d="M2184.718,-291.1639C2153.1226,-258.4403 2045.4023,-152.9961 1932,-112 1871.9389,-90.2873 1422.1687,-71.9092 1297.1532,-67.18"/>
<polygon fill="#191970" stroke="#191970" points="1297.1918,-63.6791 1287.0675,-66.8015 1296.9292,-70.6742 1297.1918,-63.6791"/>
</g>
<!-- Node25&#45;&gt;Node2 -->
<g id="edge44" class="edge">
<title>Node25&#45;&gt;Node2</title>
<path fill="none" stroke="#191970" d="M222.1875,-537.4938C253.125,-518.9732 315,-474.8839 315,-418.5 315,-418.5 315,-418.5 315,-357 315,-218.7713 433.7385,-219.5377 562,-168 696.0291,-114.1448 741.9988,-152.3683 885,-132 902.2989,-129.536 1144.0887,-87.1999 1232.7283,-71.6603"/>
<polygon fill="#191970" stroke="#191970" points="1233.5082,-75.077 1242.7535,-69.9025 1232.2992,-68.1822 1233.5082,-75.077"/>
</g>
<!-- Node25&#45;&gt;Node6 -->
<g id="edge43" class="edge">
<title>Node25&#45;&gt;Node6</title>
<path fill="none" stroke="#191970" d="M194.8497,-537.42C174.7913,-517.3973 132,-468.7889 132,-418.5 132,-418.5 132,-418.5 132,-357 132,-272.9706 93.5102,-245.0673 127,-168 148.7889,-117.8589 207.9268,-91.5271 253.5314,-78.2776"/>
<polygon fill="#191970" stroke="#191970" points="254.6258,-81.6064 263.3315,-75.568 252.7604,-74.8595 254.6258,-81.6064"/>
</g>
<!-- Node26&#45;&gt;Node2 -->
<g id="edge50" class="edge">
<title>Node26&#45;&gt;Node2</title>
<path fill="none" stroke="#191970" d="M2011.2537,-598.9915C1979.3701,-581.3307 1918,-540.2287 1918,-485.5 1918,-485.5 1918,-485.5 1918,-183.5 1918,-115.6043 1848.1028,-131.2731 1783,-112 1691.2132,-84.8274 1396.0747,-71.1087 1297.4432,-67.1992"/>
<polygon fill="#191970" stroke="#191970" points="1297.329,-63.6922 1287.2004,-66.8007 1297.0568,-70.6869 1297.329,-63.6922"/>
</g>
<!-- Node26&#45;&gt;Node4 -->
<g id="edge48" class="edge">
<title>Node26&#45;&gt;Node4</title>
<path fill="none" stroke="#191970" d="M2007.263,-598.8763C1986.8233,-589.6723 1956.4933,-574.6133 1933,-557 1856.5526,-499.6862 1854.2041,-466.7108 1783,-403 1656.2574,-289.5955 1640.5349,-226.931 1481,-168 1319.2732,-108.2594 876.4882,-157.6566 706,-132 700.7373,-131.208 568.6527,-96.9011 496.3265,-78.072"/>
<polygon fill="#191970" stroke="#191970" points="497.0962,-74.6558 486.537,-75.5229 495.3323,-81.4299 497.0962,-74.6558"/>
</g>
<!-- Node26&#45;&gt;Node10 -->
<g id="edge49" class="edge">
<title>Node26&#45;&gt;Node10</title>
<path fill="none" stroke="#191970" d="M2031.961,-598.9791C2036.0269,-578.3799 2045,-528.0945 2045,-485.5 2045,-485.5 2045,-485.5 2045,-122 2045,-89.7116 2045,-52.1872 2045,-29.8048"/>
<polygon fill="#191970" stroke="#191970" points="2048.5001,-29.5883 2045,-19.5884 2041.5001,-29.5884 2048.5001,-29.5883"/>
</g>
<!-- Node26&#45;&gt;Node27 -->
<g id="edge51" class="edge">
<title>Node26&#45;&gt;Node27</title>
<path fill="none" stroke="#191970" d="M1963.9574,-603.8011C1918.6708,-600.6255 1857.2076,-596.4068 1803,-593 1524.424,-575.4923 1454.353,-577.7534 1176,-557 1150.7574,-555.118 1122.273,-552.4871 1100.7546,-550.3962"/>
<polygon fill="#191970" stroke="#191970" points="1101.0894,-546.9123 1090.7953,-549.4188 1100.4056,-553.8789 1101.0894,-546.9123"/>
</g>
<!-- Node28&#45;&gt;Node2 -->
<g id="edge53" class="edge">
<title>Node28&#45;&gt;Node2</title>
<path fill="none" stroke="#191970" d="M1565.9473,-537.1981C1557.5444,-515.959 1539,-463.9391 1539,-418.5 1539,-418.5 1539,-418.5 1539,-183.5 1539,-149.9798 1540.3228,-133.9627 1515,-112 1482.8417,-84.1088 1357.1798,-72.1315 1297.2018,-67.9222"/>
<polygon fill="#191970" stroke="#191970" points="1297.3553,-64.4247 1287.1431,-67.2463 1296.8859,-71.409 1297.3553,-64.4247"/>
</g>
<!-- Node29&#45;&gt;Node27 -->
<g id="edge82" class="edge">
<title>Node29&#45;&gt;Node27</title>
<path fill="none" stroke="#191970" d="M634.5951,-599.1005C651.4914,-597.0336 669.3574,-594.8969 686,-593 838.2958,-575.6418 878.2208,-584.585 1029,-557 1030.4679,-556.7314 1031.9624,-556.4358 1033.4683,-556.1196"/>
<polygon fill="#191970" stroke="#191970" points="1034.4632,-559.4816 1043.4088,-553.8049 1032.8756,-552.664 1034.4632,-559.4816"/>
</g>
<!-- Node29&#45;&gt;Node28 -->
<g id="edge81" class="edge">
<title>Node29&#45;&gt;Node28</title>
<path fill="none" stroke="#191970" d="M634.6779,-603.9528C820.0879,-592.663 1300.1771,-563.4298 1490.5424,-551.8383"/>
<polygon fill="#191970" stroke="#191970" points="1490.9833,-555.318 1500.7521,-551.2166 1490.5578,-548.3309 1490.9833,-555.318"/>
</g>
<!-- Node30 -->
<g id="node31" class="node">
<title>Node30</title>
<g id="a_node31"><a xlink:href="Transform_8h.html" target="_top" xlink:title="iDynTree/Core/Transform.h">
<polygon fill="none" stroke="#000000" points="936,-347.5 936,-366.5 1082,-366.5 1082,-347.5 936,-347.5"/>
<text text-anchor="middle" x="1009" y="-354.5" font-family="FreeSans.ttf" font-size="10.00" fill="#000000">iDynTree/Core/Transform.h</text>
</a>
</g>
</g>
<!-- Node29&#45;&gt;Node30 -->
<g id="edge55" class="edge">
<title>Node29&#45;&gt;Node30</title>
<path fill="none" stroke="#191970" d="M572.8977,-598.8038C597.7862,-580.0629 654.1216,-537.4955 701,-501 718.4717,-487.3981 720.9479,-481.2822 740,-470 816.9346,-424.441 915.6632,-387.9861 969.5553,-369.7402"/>
<polygon fill="#191970" stroke="#191970" points="970.712,-373.044 979.081,-366.5471 968.4871,-366.4069 970.712,-373.044"/>
</g>
<!-- Node31 -->
<g id="node32" class="node">
<title>Node31</title>
<g id="a_node32"><a xlink:href="Twist_8h.html" target="_top" xlink:title="iDynTree/Core/Twist.h">
<polygon fill="none" stroke="#000000" points="419,-476 419,-495 541,-495 541,-476 419,-476"/>
<text text-anchor="middle" x="480" y="-483" font-family="FreeSans.ttf" font-size="10.00" fill="#000000">iDynTree/Core/Twist.h</text>
</a>
</g>
</g>
<!-- Node29&#45;&gt;Node31 -->
<g id="edge60" class="edge">
<title>Node29&#45;&gt;Node31</title>
<path fill="none" stroke="#191970" d="M553.7225,-598.8484C540.4034,-578.3703 509.1265,-530.282 491.8999,-503.7962"/>
<polygon fill="#191970" stroke="#191970" points="494.6346,-501.5814 486.2483,-495.1068 488.7666,-505.398 494.6346,-501.5814"/>
</g>
<!-- Node34 -->
<g id="node35" class="node">
<title>Node34</title>
<g id="a_node35"><a xlink:href="SpatialAcc_8h.html" target="_top" xlink:title="iDynTree/Core/SpatialAcc.h">
<polygon fill="none" stroke="#000000" points="749,-476 749,-495 897,-495 897,-476 749,-476"/>
<text text-anchor="middle" x="823" y="-483" font-family="FreeSans.ttf" font-size="10.00" fill="#000000">iDynTree/Core/SpatialAcc.h</text>
</a>
</g>
</g>
<!-- Node29&#45;&gt;Node34 -->
<g id="edge71" class="edge">
<title>Node29&#45;&gt;Node34</title>
<path fill="none" stroke="#191970" d="M611.4473,-598.9897C647.4483,-591.0127 695.8999,-577.5682 735,-557 762.5479,-542.5087 789.6385,-518.6404 806.3266,-502.5077"/>
<polygon fill="#191970" stroke="#191970" points="808.9846,-504.8018 813.6397,-495.2844 804.0655,-499.8215 808.9846,-504.8018"/>
</g>
<!-- Node35 -->
<g id="node36" class="node">
<title>Node35</title>
<g id="a_node36"><a xlink:href="Wrench_8h.html" target="_top" xlink:title="iDynTree/Core/Wrench.h">
<polygon fill="none" stroke="#000000" points="559.5,-476 559.5,-495 692.5,-495 692.5,-476 559.5,-476"/>
<text text-anchor="middle" x="626" y="-483" font-family="FreeSans.ttf" font-size="10.00" fill="#000000">iDynTree/Core/Wrench.h</text>
</a>
</g>
</g>
<!-- Node29&#45;&gt;Node35 -->
<g id="edge73" class="edge">
<title>Node29&#45;&gt;Node35</title>
<path fill="none" stroke="#191970" d="M565.1789,-598.8484C576.119,-578.4601 601.7446,-530.7033 615.9949,-504.1459"/>
<polygon fill="#191970" stroke="#191970" points="619.201,-505.5733 620.8451,-495.1068 613.0329,-502.2635 619.201,-505.5733"/>
</g>
<!-- Node37 -->
<g id="node38" class="node">
<title>Node37</title>
<g id="a_node38"><a xlink:href="ArticulatedBodyInertia_8h.html" target="_top" xlink:title="iDynTree/Core/Articulated\lBodyInertia.h">
<polygon fill="none" stroke="#000000" points="1331.5,-168.5 1331.5,-198.5 1472.5,-198.5 1472.5,-168.5 1331.5,-168.5"/>
<text text-anchor="start" x="1339.5" y="-186.5" font-family="FreeSans.ttf" font-size="10.00" fill="#000000">iDynTree/Core/Articulated</text>
<text text-anchor="middle" x="1402" y="-175.5" font-family="FreeSans.ttf" font-size="10.00" fill="#000000">BodyInertia.h</text>
</a>
</g>
</g>
<!-- Node29&#45;&gt;Node37 -->
<g id="edge78" class="edge">
<title>Node29&#45;&gt;Node37</title>
<path fill="none" stroke="#191970" d="M605.4237,-598.9315C616.3868,-596.8039 628.0874,-594.6834 639,-593 780.0097,-571.247 818.9986,-589.1797 958,-557 994.0874,-548.6455 1084.2043,-521.5845 1115,-501 1240.7774,-416.9279 1348.0299,-265.7475 1386.6619,-207.3881"/>
<polygon fill="#191970" stroke="#191970" points="1389.7084,-209.125 1392.2653,-198.8433 1383.8547,-205.2864 1389.7084,-209.125"/>
</g>
<!-- Node30&#45;&gt;Node2 -->
<g id="edge59" class="edge">
<title>Node30&#45;&gt;Node2</title>
<path fill="none" stroke="#191970" d="M1064.9912,-347.4616C1150.2926,-331.3201 1303,-295.3869 1303,-245 1303,-245 1303,-245 1303,-183.5 1303,-147.2454 1286.4195,-107.6181 1275.163,-84.8929"/>
<polygon fill="#191970" stroke="#191970" points="1278.1292,-83.0073 1270.4445,-75.7137 1271.9035,-86.2076 1278.1292,-83.0073"/>
</g>
<!-- Node30&#45;&gt;Node17 -->
<g id="edge56" class="edge">
<title>Node30&#45;&gt;Node17</title>
<path fill="none" stroke="#191970" d="M1022.4124,-347.2455C1034.0057,-338.814 1050.9748,-326.4729 1064.4678,-316.6598"/>
<polygon fill="#191970" stroke="#191970" points="1066.7126,-319.355 1072.7413,-310.6427 1062.5953,-313.6938 1066.7126,-319.355"/>
</g>
<!-- Node30&#45;&gt;Node19 -->
<g id="edge57" class="edge">
<title>Node30&#45;&gt;Node19</title>
<path fill="none" stroke="#191970" d="M1003.6287,-347.4509C993.1675,-328.8533 969.9017,-287.4919 956.348,-263.3964"/>
<polygon fill="#191970" stroke="#191970" points="959.3109,-261.5247 951.3577,-254.5249 953.2099,-264.9566 959.3109,-261.5247"/>
</g>
<!-- Node30&#45;&gt;Node22 -->
<g id="edge58" class="edge">
<title>Node30&#45;&gt;Node22</title>
<path fill="none" stroke="#191970" d="M990.516,-347.2482C961.4684,-331.1952 904.6712,-296.781 868,-255 836.9602,-219.6351 814.0944,-168.6061 803.1698,-141.175"/>
<polygon fill="#191970" stroke="#191970" points="806.3335,-139.6524 799.4593,-131.5904 799.8056,-142.1796 806.3335,-139.6524"/>
</g>
<!-- Node32 -->
<g id="node33" class="node">
<title>Node32</title>
<g id="a_node33"><a xlink:href="SpatialMotionVector_8h.html" target="_top" xlink:title="iDynTree/Core/SpatialMotion\lVector.h">
<polygon fill="none" stroke="#000000" points="509.5,-403.5 509.5,-433.5 664.5,-433.5 664.5,-403.5 509.5,-403.5"/>
<text text-anchor="start" x="517.5" y="-421.5" font-family="FreeSans.ttf" font-size="10.00" fill="#000000">iDynTree/Core/SpatialMotion</text>
<text text-anchor="middle" x="587" y="-410.5" font-family="FreeSans.ttf" font-size="10.00" fill="#000000">Vector.h</text>
</a>
</g>
</g>
<!-- Node31&#45;&gt;Node32 -->
<g id="edge61" class="edge">
<title>Node31&#45;&gt;Node32</title>
<path fill="none" stroke="#191970" d="M495.3305,-475.9005C510.6646,-466.2988 534.7277,-451.2313 554.3527,-438.9427"/>
<polygon fill="#191970" stroke="#191970" points="556.392,-441.7954 563.01,-433.5218 552.677,-435.8625 556.392,-441.7954"/>
</g>
<!-- Node32&#45;&gt;Node3 -->
<g id="edge62" class="edge">
<title>Node32&#45;&gt;Node3</title>
<path fill="none" stroke="#191970" d="M562.0286,-403.4263C548.9683,-394.3668 533.7201,-381.7427 524,-367 507.1978,-341.5159 505,-331.5246 505,-301 505,-301 505,-301 505,-245 505,-207.0591 519.8285,-164.7146 529.6054,-140.9189"/>
<polygon fill="#191970" stroke="#191970" points="532.8554,-142.22 533.5495,-131.6479 526.414,-139.4796 532.8554,-142.22"/>
</g>
<!-- Node32&#45;&gt;Node20 -->
<g id="edge63" class="edge">
<title>Node32&#45;&gt;Node20</title>
<path fill="none" stroke="#191970" d="M654.3069,-403.4702C673.2694,-395.7979 691.7701,-384.2725 703,-367 737.8608,-313.3811 691.347,-235.8537 666.6396,-201.2909"/>
<polygon fill="#191970" stroke="#191970" points="669.3588,-199.0807 660.612,-193.1021 663.7213,-203.2304 669.3588,-199.0807"/>
</g>
<!-- Node33 -->
<g id="node34" class="node">
<title>Node33</title>
<g id="a_node34"><a xlink:href="SpatialVector_8h.html" target="_top" xlink:title="iDynTree/Core/SpatialVector.h">
<polygon fill="none" stroke="#000000" points="533.5,-347.5 533.5,-366.5 694.5,-366.5 694.5,-347.5 533.5,-347.5"/>
<text text-anchor="middle" x="614" y="-354.5" font-family="FreeSans.ttf" font-size="10.00" fill="#000000">iDynTree/Core/SpatialVector.h</text>
</a>
</g>
</g>
<!-- Node32&#45;&gt;Node33 -->
<g id="edge64" class="edge">
<title>Node32&#45;&gt;Node33</title>
<path fill="none" stroke="#191970" d="M593.6742,-403.2977C597.2659,-395.1166 601.7324,-384.943 605.5629,-376.2179"/>
<polygon fill="#191970" stroke="#191970" points="608.8618,-377.4104 609.677,-366.8469 602.4522,-374.5964 608.8618,-377.4104"/>
</g>
<!-- Node33&#45;&gt;Node4 -->
<g id="edge67" class="edge">
<title>Node33&#45;&gt;Node4</title>
<path fill="none" stroke="#191970" d="M561.0368,-347.4724C447.5212,-325.8618 186.938,-269.4858 136,-199 127.93,-187.833 128.2899,-179.4185 136,-168 164.2024,-126.2327 301.823,-93.7173 385.2312,-77.4515"/>
<polygon fill="#191970" stroke="#191970" points="385.9642,-80.8748 395.1231,-75.5489 384.642,-74.0008 385.9642,-80.8748"/>
</g>
<!-- Node33&#45;&gt;Node15 -->
<g id="edge70" class="edge">
<title>Node33&#45;&gt;Node15</title>
<path fill="none" stroke="#191970" d="M586.529,-347.4904C568.2482,-339.9882 544.7811,-327.945 529,-311 469.4879,-247.0986 466.4141,-217.3581 448,-132 446.1255,-123.311 442.7432,-119.1678 448,-112 460.8764,-94.4426 517.0836,-80.5155 555.8769,-72.7644"/>
<polygon fill="#191970" stroke="#191970" points="556.6659,-76.1767 565.8163,-70.8362 555.3328,-69.3048 556.6659,-76.1767"/>
</g>
<!-- Node33&#45;&gt;Node17 -->
<g id="edge65" class="edge">
<title>Node33&#45;&gt;Node17</title>
<path fill="none" stroke="#191970" d="M694.3357,-347.4686C781.9203,-337.0773 921.1376,-320.5599 1007.8512,-310.2719"/>
<polygon fill="#191970" stroke="#191970" points="1008.3798,-313.7338 1017.8978,-309.0799 1007.555,-306.7826 1008.3798,-313.7338"/>
</g>
<!-- Node33&#45;&gt;Node19 -->
<g id="edge66" class="edge">
<title>Node33&#45;&gt;Node19</title>
<path fill="none" stroke="#191970" d="M642.3061,-347.4509C701.9676,-327.3242 840.6602,-280.5363 907.9822,-257.8253"/>
<polygon fill="#191970" stroke="#191970" points="909.409,-261.0378 917.7655,-254.5249 907.1714,-254.4051 909.409,-261.0378"/>
</g>
<!-- Node33&#45;&gt;Node20 -->
<g id="edge68" class="edge">
<title>Node33&#45;&gt;Node20</title>
<path fill="none" stroke="#191970" d="M616.1524,-347.4248C622.3172,-319.999 640.1352,-240.732 648.5276,-203.3964"/>
<polygon fill="#191970" stroke="#191970" points="652.0278,-203.7837 650.8062,-193.2595 645.1982,-202.2485 652.0278,-203.7837"/>
</g>
<!-- Node33&#45;&gt;Node23 -->
<g id="edge69" class="edge">
<title>Node33&#45;&gt;Node23</title>
<path fill="none" stroke="#191970" d="M606.3653,-347.268C584.509,-318.1439 525.5442,-229.8646 562,-168 578.7659,-139.5487 598.3596,-148.4407 627,-132 656.944,-114.8109 691.03,-94.4186 713.4386,-80.8972"/>
<polygon fill="#191970" stroke="#191970" points="715.5336,-83.7206 722.2813,-75.5523 711.9126,-77.7299 715.5336,-83.7206"/>
</g>
<!-- Node34&#45;&gt;Node32 -->
<g id="edge72" class="edge">
<title>Node34&#45;&gt;Node32</title>
<path fill="none" stroke="#191970" d="M789.4376,-475.9717C753.159,-465.6723 694.5192,-449.0245 649.6669,-436.291"/>
<polygon fill="#191970" stroke="#191970" points="650.6065,-432.9195 640.0308,-433.5553 648.6947,-439.6534 650.6065,-432.9195"/>
</g>
<!-- Node36 -->
<g id="node37" class="node">
<title>Node36</title>
<g id="a_node37"><a xlink:href="SpatialForceVector_8h.html" target="_top" xlink:title="iDynTree/Core/SpatialForce\lVector.h">
<polygon fill="none" stroke="#000000" points="343,-403.5 343,-433.5 491,-433.5 491,-403.5 343,-403.5"/>
<text text-anchor="start" x="351" y="-421.5" font-family="FreeSans.ttf" font-size="10.00" fill="#000000">iDynTree/Core/SpatialForce</text>
<text text-anchor="middle" x="417" y="-410.5" font-family="FreeSans.ttf" font-size="10.00" fill="#000000">Vector.h</text>
</a>
</g>
</g>
<!-- Node35&#45;&gt;Node36 -->
<g id="edge74" class="edge">
<title>Node35&#45;&gt;Node36</title>
<path fill="none" stroke="#191970" d="M596.0554,-475.9005C564.215,-465.6933 513.1061,-449.3091 473.6267,-436.6531"/>
<polygon fill="#191970" stroke="#191970" points="474.4501,-433.2416 463.8589,-433.5218 472.3131,-439.9075 474.4501,-433.2416"/>
</g>
<!-- Node36&#45;&gt;Node3 -->
<g id="edge75" class="edge">
<title>Node36&#45;&gt;Node3</title>
<path fill="none" stroke="#191970" d="M421.1844,-403.3241C432.44,-363.5144 465.4132,-253.274 508,-168 512.7664,-158.4559 519.0973,-148.4673 524.7145,-140.2459"/>
<polygon fill="#191970" stroke="#191970" points="527.7418,-142.0255 530.6318,-131.8325 522.0161,-137.9985 527.7418,-142.0255"/>
</g>
<!-- Node36&#45;&gt;Node20 -->
<g id="edge76" class="edge">
<title>Node36&#45;&gt;Node20</title>
<path fill="none" stroke="#191970" d="M432.1219,-403.4422C474.1574,-361.5848 592.1982,-244.0442 636.193,-200.2358"/>
<polygon fill="#191970" stroke="#191970" points="638.6677,-202.7108 643.2842,-193.1746 633.7285,-197.7506 638.6677,-202.7108"/>
</g>
<!-- Node36&#45;&gt;Node33 -->
<g id="edge77" class="edge">
<title>Node36&#45;&gt;Node33</title>
<path fill="none" stroke="#191970" d="M465.1916,-403.4554C498.4941,-393.059 542.2843,-379.3884 573.7264,-369.5727"/>
<polygon fill="#191970" stroke="#191970" points="574.9693,-372.8514 583.472,-366.5303 572.8833,-366.1694 574.9693,-372.8514"/>
</g>
<!-- Node37&#45;&gt;Node2 -->
<g id="edge80" class="edge">
<title>Node37&#45;&gt;Node2</title>
<path fill="none" stroke="#191970" d="M1384.3701,-168.3795C1358.5465,-146.2315 1310.6258,-105.1316 1284.0294,-82.3209"/>
<polygon fill="#191970" stroke="#191970" points="1286.0678,-79.4581 1276.1986,-75.6046 1281.5106,-84.7716 1286.0678,-79.4581"/>
</g>
<!-- Node37&#45;&gt;Node22 -->
<g id="edge79" class="edge">
<title>Node37&#45;&gt;Node22</title>
<path fill="none" stroke="#191970" d="M1331.2981,-176.3248C1221.0616,-165.1374 1008.3042,-143.5457 886.8449,-131.2194"/>
<polygon fill="#191970" stroke="#191970" points="887.1244,-127.7299 876.8221,-130.2022 886.4176,-134.6941 887.1244,-127.7299"/>
</g>
<!-- Node38&#45;&gt;Node27 -->
<g id="edge85" class="edge">
<title>Node38&#45;&gt;Node27</title>
<path fill="none" stroke="#191970" d="M1277.367,-598.9581C1228.8546,-586.9761 1146.4284,-566.6179 1100.4766,-555.2683"/>
<polygon fill="#191970" stroke="#191970" points="1101.2545,-551.8553 1090.7069,-552.8553 1099.5759,-558.6511 1101.2545,-551.8553"/>
</g>
<!-- Node38&#45;&gt;Node28 -->
<g id="edge84" class="edge">
<title>Node38&#45;&gt;Node28</title>
<path fill="none" stroke="#191970" d="M1355.4088,-598.9581C1399.8997,-588.1857 1472.3531,-570.6428 1520.5915,-558.9631"/>
<polygon fill="#191970" stroke="#191970" points="1521.6032,-562.3193 1530.4987,-556.5643 1519.9559,-555.5159 1521.6032,-562.3193"/>
</g>
<!-- Node39&#45;&gt;Node25 -->
<g id="edge89" class="edge">
<title>Node39&#45;&gt;Node25</title>
<path fill="none" stroke="#191970" d="M405.88,-668.179C341.6174,-660.5905 256.606,-646.6114 231,-624 214.6118,-609.5284 208.5371,-584.3651 206.2947,-566.7552"/>
<polygon fill="#191970" stroke="#191970" points="209.7682,-566.3117 205.3202,-556.6959 202.8009,-566.9868 209.7682,-566.3117"/>
</g>
<!-- Node39&#45;&gt;Node27 -->
<g id="edge97" class="edge">
<title>Node39&#45;&gt;Node27</title>
<path fill="none" stroke="#191970" d="M532.2484,-660.4054C564.0066,-650.4853 606.1155,-636.9835 643,-624 679.3596,-611.2012 686.5722,-602.2189 724,-593 856.5353,-560.3551 894.8934,-582.4309 1029,-557 1030.4661,-556.722 1031.9592,-556.4184 1033.4638,-556.0958"/>
<polygon fill="#191970" stroke="#191970" points="1034.4679,-559.4552 1043.3999,-553.7569 1032.8639,-552.6414 1034.4679,-559.4552"/>
</g>
<!-- Node39&#45;&gt;Node28 -->
<g id="edge90" class="edge">
<title>Node39&#45;&gt;Node28</title>
<path fill="none" stroke="#191970" d="M560.1096,-673.3001C807.0625,-666.0745 1563.3693,-642.477 1581,-624 1595.6505,-608.6462 1588.1679,-583.1251 1580.2056,-565.7062"/>
<polygon fill="#191970" stroke="#191970" points="1583.2214,-563.9109 1575.6257,-556.5246 1576.9574,-567.0354 1583.2214,-563.9109"/>
</g>
<!-- Node39&#45;&gt;Node29 -->
<g id="edge91" class="edge">
<title>Node39&#45;&gt;Node29</title>
<path fill="none" stroke="#191970" d="M500.4725,-660.2967C512.7024,-649.6551 529.0159,-635.4602 541.4721,-624.6217"/>
<polygon fill="#191970" stroke="#191970" points="543.7724,-627.2596 549.0189,-618.055 539.1775,-621.9788 543.7724,-627.2596"/>
</g>
<!-- Node39&#45;&gt;Node30 -->
<g id="edge87" class="edge">
<title>Node39&#45;&gt;Node30</title>
<path fill="none" stroke="#191970" d="M468.6579,-660.4419C435.3535,-623.6684 359.3479,-528.0578 410,-470 448.7804,-425.5496 614.9816,-444.6589 673,-434 733.1223,-422.9546 747.4208,-416.6753 807,-403 857.8992,-391.317 916.041,-378.0891 956.8366,-368.827"/>
<polygon fill="#191970" stroke="#191970" points="957.8424,-372.1878 966.8196,-366.5611 956.2929,-365.3615 957.8424,-372.1878"/>
</g>
<!-- Node39&#45;&gt;Node31 -->
<g id="edge88" class="edge">
<title>Node39&#45;&gt;Node31</title>
<path fill="none" stroke="#191970" d="M480.3737,-660.2316C478.7521,-650.013 476.8283,-636.2435 476,-624 473.1445,-581.7895 476.1004,-532.2073 478.2305,-505.305"/>
<polygon fill="#191970" stroke="#191970" points="481.7256,-505.5091 479.0735,-495.2516 474.7501,-504.9241 481.7256,-505.5091"/>
</g>
<!-- Node40 -->
<g id="node41" class="node">
<title>Node40</title>
<g id="a_node41"><a xlink:href="JointState_8h.html" target="_top" xlink:title="iDynTree/Model/JointState.h">
<polygon fill="none" stroke="#000000" points="240.5,-599 240.5,-618 391.5,-618 391.5,-599 240.5,-599"/>
<text text-anchor="middle" x="316" y="-606" font-family="FreeSans.ttf" font-size="10.00" fill="#000000">iDynTree/Model/JointState.h</text>
</a>
</g>
</g>
<!-- Node39&#45;&gt;Node40 -->
<g id="edge92" class="edge">
<title>Node39&#45;&gt;Node40</title>
<path fill="none" stroke="#191970" d="M445.5219,-660.4639C416.618,-648.8677 377.0146,-632.9789 349.2343,-621.8335"/>
<polygon fill="#191970" stroke="#191970" points="350.5223,-618.5791 339.9381,-618.1039 347.9158,-625.0758 350.5223,-618.5791"/>
</g>
<!-- Node40&#45;&gt;Node3 -->
<g id="edge93" class="edge">
<title>Node40&#45;&gt;Node3</title>
<path fill="none" stroke="#191970" d="M313.4411,-598.6972C304.7646,-565.1286 277,-454.8678 277,-418.5 277,-418.5 277,-418.5 277,-357 277,-261.9668 297.5537,-220.1497 377,-168 402.3258,-151.3758 433.7124,-140.6635 462.0285,-133.8047"/>
<polygon fill="#191970" stroke="#191970" points="462.9391,-137.1868 471.9013,-131.536 461.3714,-130.3646 462.9391,-137.1868"/>
</g>
<!-- Node40&#45;&gt;Node25 -->
<g id="edge94" class="edge">
<title>Node40&#45;&gt;Node25</title>
<path fill="none" stroke="#191970" d="M298.6563,-598.8906C280.5727,-588.8713 252.0141,-573.0483 231.1835,-561.5071"/>
<polygon fill="#191970" stroke="#191970" points="232.6654,-558.3268 222.222,-556.5419 229.2729,-564.4498 232.6654,-558.3268"/>
</g>
<!-- Node40&#45;&gt;Node27 -->
<g id="edge96" class="edge">
<title>Node40&#45;&gt;Node27</title>
<path fill="none" stroke="#191970" d="M391.6617,-600.8254C418.3074,-598.2141 448.4723,-595.3611 476,-593 690.0331,-574.6421 743.921,-574.8135 958,-557 983.2255,-554.901 1011.7105,-552.2789 1033.2336,-550.2464"/>
<polygon fill="#191970" stroke="#191970" points="1033.5709,-553.7302 1043.1954,-549.3009 1032.9093,-546.7616 1033.5709,-553.7302"/>
</g>
<!-- Node40&#45;&gt;Node36 -->
<g id="edge95" class="edge">
<title>Node40&#45;&gt;Node36</title>
<path fill="none" stroke="#191970" d="M319.3696,-598.6973C327.5542,-575.4646 349.8214,-515.5864 377,-470 382.8871,-460.1256 390.3976,-449.9816 397.3172,-441.3356"/>
<polygon fill="#191970" stroke="#191970" points="400.0582,-443.5128 403.6982,-433.5629 394.6478,-439.0712 400.0582,-443.5128"/>
</g>
<!-- Node41&#45;&gt;Node2 -->
<g id="edge100" class="edge">
<title>Node41&#45;&gt;Node2</title>
<path fill="none" stroke="#191970" d="M1077.6855,-733.8839C1220.3657,-727.6035 1524.0303,-712.195 1627,-691 1716.3463,-672.6092 1768.0629,-698.2876 1821,-624 1828.9956,-612.7796 1824.0775,-606.4297 1821,-593 1809.1449,-541.2671 1769,-538.5739 1769,-485.5 1769,-485.5 1769,-485.5 1769,-183.5 1769,-86.3323 1409.2067,-69.4804 1297.6072,-66.5905"/>
<polygon fill="#191970" stroke="#191970" points="1297.3869,-63.0844 1287.3066,-66.3458 1297.2206,-70.0824 1297.3869,-63.0844"/>
</g>
<!-- Node41&#45;&gt;Node10 -->
<g id="edge102" class="edge">
<title>Node41&#45;&gt;Node10</title>
<path fill="none" stroke="#191970" d="M1077.6397,-735.1937C1315.8788,-728.7083 2038.8867,-702.6475 2105,-624 2113.8656,-613.4536 2105.4349,-606.7709 2105,-593 2100.1087,-438.1018 2083,-399.9754 2083,-245 2083,-245 2083,-245 2083,-122 2083,-87.6118 2066.7366,-50.2832 2055.489,-28.5791"/>
<polygon fill="#191970" stroke="#191970" points="2058.431,-26.6605 2050.607,-19.5166 2052.2683,-29.9804 2058.431,-26.6605"/>
</g>
<!-- Node41&#45;&gt;Node20 -->
<g id="edge99" class="edge">
<title>Node41&#45;&gt;Node20</title>
<path fill="none" stroke="#191970" d="M931.495,-727.4655C883.7997,-719.7033 826.2843,-707.357 808,-691 774.579,-661.1018 755.6852,-627.7727 784,-593 833.8643,-531.7628 881.9602,-578.3166 958,-557 975.8334,-552.0007 1104.328,-516.1371 1115,-501 1122.9389,-489.7394 1122.022,-481.854 1115,-470 1066.4423,-388.0288 1008.4389,-416.4453 927,-367 830.6533,-308.5036 720.4451,-231.4528 674.6776,-198.9822"/>
<polygon fill="#191970" stroke="#191970" points="676.5846,-196.0436 666.4065,-193.1012 672.5282,-201.7485 676.5846,-196.0436"/>
</g>
<!-- Node41&#45;&gt;Node25 -->
<g id="edge103" class="edge">
<title>Node41&#45;&gt;Node25</title>
<path fill="none" stroke="#191970" d="M926.2883,-733.7612C787.1519,-727.3916 495.9857,-712.0068 397,-691 310.2293,-672.5854 261.9855,-695.1392 209,-624 196.7999,-607.6199 197.7216,-583.4128 200.4575,-566.5272"/>
<polygon fill="#191970" stroke="#191970" points="203.9057,-567.131 202.3977,-556.6441 197.0368,-565.7825 203.9057,-567.131"/>
</g>
<!-- Node41&#45;&gt;Node27 -->
<g id="edge101" class="edge">
<title>Node41&#45;&gt;Node27</title>
<path fill="none" stroke="#191970" d="M964.1435,-727.4282C891.4301,-707.3176 744.0796,-657.1853 799,-593 832.6339,-553.6922 978.3635,-567.5967 1029,-557 1030.4606,-556.6943 1031.9491,-556.3679 1033.45,-556.0264"/>
<polygon fill="#191970" stroke="#191970" points="1034.4805,-559.378 1043.372,-553.6168 1032.8284,-552.5757 1034.4805,-559.378"/>
</g>
<!-- Node41&#45;&gt;Node28 -->
<g id="edge124" class="edge">
<title>Node41&#45;&gt;Node28</title>
<path fill="none" stroke="#191970" d="M1077.6879,-731.9014C1268.18,-718.3035 1755.6791,-678.4652 1803,-624 1812.0363,-613.5994 1811.7481,-603.6441 1803,-593 1783.6652,-569.4749 1709.0766,-557.7832 1649.4305,-552.1012"/>
<polygon fill="#191970" stroke="#191970" points="1649.5183,-548.5949 1639.2423,-551.1743 1648.884,-555.5661 1649.5183,-548.5949"/>
</g>
<!-- Node42 -->
<g id="node43" class="node">
<title>Node42</title>
<g id="a_node43"><a xlink:href="Model_8h.html" target="_top" xlink:title="iDynTree/Model/Model.h">
<polygon fill="none" stroke="#000000" points="1054.5,-666 1054.5,-685 1187.5,-685 1187.5,-666 1054.5,-666"/>
<text text-anchor="middle" x="1121" y="-673" font-family="FreeSans.ttf" font-size="10.00" fill="#000000">iDynTree/Model/Model.h</text>
</a>
</g>
</g>
<!-- Node41&#45;&gt;Node42 -->
<g id="edge104" class="edge">
<title>Node41&#45;&gt;Node42</title>
<path fill="none" stroke="#191970" d="M1020.5938,-727.3906C1040.1553,-717.2811 1071.1501,-701.2628 1093.5309,-689.6962"/>
<polygon fill="#191970" stroke="#191970" points="1095.26,-692.7425 1102.5368,-685.0419 1092.0461,-686.5238 1095.26,-692.7425"/>
</g>
<!-- Node42&#45;&gt;Node27 -->
<g id="edge123" class="edge">
<title>Node42&#45;&gt;Node27</title>
<path fill="none" stroke="#191970" d="M1054.3776,-673.159C978.2742,-668.9192 860.6711,-657.0581 833,-624 740.187,-513.118 707.2505,-628.7759 1029,-557 1030.4565,-556.6751 1031.9415,-556.3327 1033.4396,-555.9782"/>
<polygon fill="#191970" stroke="#191970" points="1034.4879,-559.3243 1043.3509,-553.5193 1032.8023,-552.5302 1034.4879,-559.3243"/>
</g>
<!-- Node42&#45;&gt;Node28 -->
<g id="edge116" class="edge">
<title>Node42&#45;&gt;Node28</title>
<path fill="none" stroke="#191970" d="M1187.8369,-673.3939C1315.9611,-668.6648 1585.9905,-655.0878 1614,-624 1630.5339,-605.6489 1609.065,-580.0584 1590.7311,-563.509"/>
<polygon fill="#191970" stroke="#191970" points="1592.5449,-560.4536 1582.6757,-556.5999 1587.9876,-565.767 1592.5449,-560.4536"/>
</g>
<!-- Node42&#45;&gt;Node30 -->
<g id="edge115" class="edge">
<title>Node42&#45;&gt;Node30</title>
<path fill="none" stroke="#191970" d="M1133.311,-665.6338C1145.6988,-655.5459 1165.1817,-639.2383 1181,-624 1215.195,-591.0588 1260.0471,-581.315 1243,-537 1214.1902,-462.1073 1187.7035,-449.0648 1122,-403 1101.1696,-388.3958 1075.0121,-377.3699 1053.1111,-369.7792"/>
<polygon fill="#191970" stroke="#191970" points="1053.9761,-366.3782 1043.3824,-366.5328 1051.7604,-373.0183 1053.9761,-366.3782"/>
</g>
<!-- Node43 -->
<g id="node44" class="node">
<title>Node43</title>
<g id="a_node44"><a xlink:href="IJoint_8h.html" target="_top" xlink:title="iDynTree/Model/IJoint.h">
<polygon fill="none" stroke="#000000" points="1666,-599 1666,-618 1794,-618 1794,-599 1666,-599"/>
<text text-anchor="middle" x="1730" y="-606" font-family="FreeSans.ttf" font-size="10.00" fill="#000000">iDynTree/Model/IJoint.h</text>
</a>
</g>
</g>
<!-- Node42&#45;&gt;Node43 -->
<g id="edge105" class="edge">
<title>Node42&#45;&gt;Node43</title>
<path fill="none" stroke="#191970" d="M1187.9007,-671.1564C1288.8363,-664.1192 1485.9225,-648.4929 1652,-624 1659.7791,-622.8528 1667.9574,-621.4488 1675.9724,-619.9592"/>
<polygon fill="#191970" stroke="#191970" points="1676.832,-623.3582 1685.9949,-618.0393 1675.515,-616.4832 1676.832,-623.3582"/>
</g>
<!-- Node44 -->
<g id="node45" class="node">
<title>Node44</title>
<g id="a_node45"><a xlink:href="Link_8h.html" target="_top" xlink:title="iDynTree/Model/Link.h">
<polygon fill="none" stroke="#000000" points="842,-599 842,-618 966,-618 966,-599 842,-599"/>
<text text-anchor="middle" x="904" y="-606" font-family="FreeSans.ttf" font-size="10.00" fill="#000000">iDynTree/Model/Link.h</text>
</a>
</g>
</g>
<!-- Node42&#45;&gt;Node44 -->
<g id="edge107" class="edge">
<title>Node42&#45;&gt;Node44</title>
<path fill="none" stroke="#191970" d="M1089.9092,-665.9005C1051.7192,-654.1091 986.8313,-634.0746 944.7014,-621.0668"/>
<polygon fill="#191970" stroke="#191970" points="945.6206,-617.6876 935.0331,-618.0817 943.5555,-624.3761 945.6206,-617.6876"/>
</g>
<!-- Node49 -->
<g id="node48" class="node">
<title>Node49</title>
<g id="a_node48"><a xlink:href="SolidShapes_8h.html" target="_top" xlink:title="iDynTree/Model/SolidShapes.h">
<polygon fill="none" stroke="#000000" points="984.5,-599 984.5,-618 1147.5,-618 1147.5,-599 984.5,-599"/>
<text text-anchor="middle" x="1066" y="-606" font-family="FreeSans.ttf" font-size="10.00" fill="#000000">iDynTree/Model/SolidShapes.h</text>
</a>
</g>
</g>
<!-- Node42&#45;&gt;Node49 -->
<g id="edge117" class="edge">
<title>Node42&#45;&gt;Node49</title>
<path fill="none" stroke="#191970" d="M1113.1198,-665.9005C1104.6248,-655.552 1090.9176,-638.8542 1080.472,-626.1295"/>
<polygon fill="#191970" stroke="#191970" points="1082.9158,-623.5902 1073.8655,-618.0817 1077.5053,-628.0317 1082.9158,-623.5902"/>
</g>
<!-- Node50 -->
<g id="node49" class="node">
<title>Node50</title>
<polygon fill="none" stroke="#bfbfbf" points="1185.5,-537.5 1185.5,-556.5 1234.5,-556.5 1234.5,-537.5 1185.5,-537.5"/>
<text text-anchor="middle" x="1210" y="-544.5" font-family="FreeSans.ttf" font-size="10.00" fill="#000000">cstdlib</text>
</g>
<!-- Node42&#45;&gt;Node50 -->
<g id="edge122" class="edge">
<title>Node42&#45;&gt;Node50</title>
<path fill="none" stroke="#191970" d="M1127.6895,-665.8416C1142.508,-644.4463 1178.2983,-592.7715 1197.4356,-565.1407"/>
<polygon fill="#191970" stroke="#191970" points="1200.4164,-566.9841 1203.2329,-556.7705 1194.6618,-562.9984 1200.4164,-566.9841"/>
</g>
<!-- Node43&#45;&gt;Node28 -->
<g id="edge106" class="edge">
<title>Node43&#45;&gt;Node28</title>
<path fill="none" stroke="#191970" d="M1705,-598.8906C1677.9942,-588.5103 1634.7815,-571.9004 1604.5406,-560.2766"/>
<polygon fill="#191970" stroke="#191970" points="1605.4144,-556.8628 1594.8244,-556.5419 1602.9029,-563.3968 1605.4144,-556.8628"/>
</g>
<!-- Node44&#45;&gt;Node28 -->
<g id="edge114" class="edge">
<title>Node44&#45;&gt;Node28</title>
<path fill="none" stroke="#191970" d="M942.8841,-599C953.2662,-596.7413 964.5148,-594.5423 975,-593 1158.579,-565.9965 1376.5059,-554.2621 1490.8739,-549.6489"/>
<polygon fill="#191970" stroke="#191970" points="1491.0886,-553.1432 1500.9424,-549.2504 1490.8117,-546.1487 1491.0886,-553.1432"/>
</g>
<!-- Node45 -->
<g id="node46" class="node">
<title>Node45</title>
<g id="a_node46"><a xlink:href="SpatialInertia_8h.html" target="_top" xlink:title="iDynTree/Core/SpatialInertia.h">
<polygon fill="none" stroke="#ff0000" points="787,-537.5 787,-556.5 949,-556.5 949,-537.5 787,-537.5"/>
<text text-anchor="middle" x="868" y="-544.5" font-family="FreeSans.ttf" font-size="10.00" fill="#000000">iDynTree/Core/SpatialInertia.h</text>
</a>
</g>
</g>
<!-- Node44&#45;&gt;Node45 -->
<g id="edge108" class="edge">
<title>Node44&#45;&gt;Node45</title>
<path fill="none" stroke="#191970" d="M898.375,-598.8906C893.1747,-590.0068 885.3034,-576.5601 878.8767,-565.5811"/>
<polygon fill="#191970" stroke="#191970" points="881.7767,-563.6069 873.7043,-556.7449 875.7356,-567.1432 881.7767,-563.6069"/>
</g>
<!-- Node45&#45;&gt;Node3 -->
<g id="edge110" class="edge">
<title>Node45&#45;&gt;Node3</title>
<path fill="none" stroke="#191970" d="M879.4453,-537.3916C888.5993,-528.901 900.7419,-515.6212 906,-501 910.6625,-488.0351 909.3748,-483.3581 906,-470 887.3198,-396.0608 803.7896,-214.0497 743,-168 723.3474,-153.1126 667.2844,-141.1209 618.746,-133.1181"/>
<polygon fill="#191970" stroke="#191970" points="619.265,-129.6566 608.8355,-131.5212 618.1514,-136.5675 619.265,-129.6566"/>
</g>
<!-- Node45&#45;&gt;Node31 -->
<g id="edge111" class="edge">
<title>Node45&#45;&gt;Node31</title>
<path fill="none" stroke="#191970" d="M790.9535,-537.4838C726.3903,-529.1197 631.8992,-515.9696 550,-501 543.7325,-499.8544 537.1727,-498.5473 530.6881,-497.1889"/>
<polygon fill="#191970" stroke="#191970" points="531.1245,-493.703 520.6128,-495.0282 529.6566,-500.5474 531.1245,-493.703"/>
</g>
<!-- Node45&#45;&gt;Node34 -->
<g id="edge112" class="edge">
<title>Node45&#45;&gt;Node34</title>
<path fill="none" stroke="#191970" d="M860.9688,-537.3906C854.337,-528.3273 844.2304,-514.5149 836.1113,-503.4188"/>
<polygon fill="#191970" stroke="#191970" points="838.8601,-501.2484 830.1304,-495.2449 833.2109,-505.382 838.8601,-501.2484"/>
</g>
<!-- Node45&#45;&gt;Node35 -->
<g id="edge113" class="edge">
<title>Node45&#45;&gt;Node35</title>
<path fill="none" stroke="#191970" d="M830.453,-537.4581C788.1528,-526.7082 719.3223,-509.2162 673.363,-497.5365"/>
<polygon fill="#191970" stroke="#191970" points="674.1891,-494.1352 663.6351,-495.0643 672.4649,-500.9196 674.1891,-494.1352"/>
</g>
<!-- Node46 -->
<g id="node47" class="node">
<title>Node46</title>
<g id="a_node47"><a xlink:href="SpatialInertiaRaw_8h.html" target="_top" xlink:title="iDynTree/Core/SpatialInertia\lRaw.h">
<polygon fill="none" stroke="#ff0000" points="953.5,-470.5 953.5,-500.5 1106.5,-500.5 1106.5,-470.5 953.5,-470.5"/>
<text text-anchor="start" x="961.5" y="-488.5" font-family="FreeSans.ttf" font-size="10.00" fill="#000000">iDynTree/Core/SpatialInertia</text>
<text text-anchor="middle" x="1030" y="-477.5" font-family="FreeSans.ttf" font-size="10.00" fill="#000000">Raw.h</text>
</a>
</g>
</g>
<!-- Node45&#45;&gt;Node46 -->
<g id="edge109" class="edge">
<title>Node45&#45;&gt;Node46</title>
<path fill="none" stroke="#191970" d="M893.3125,-537.3906C916.6583,-528.5279 951.9662,-515.1239 980.8484,-504.1594"/>
<polygon fill="#191970" stroke="#191970" points="982.2636,-507.366 990.3703,-500.5446 979.7791,-500.8217 982.2636,-507.366"/>
</g>
<!-- Node49&#45;&gt;Node2 -->
<g id="edge119" class="edge">
<title>Node49&#45;&gt;Node2</title>
<path fill="none" stroke="#191970" d="M1082.6815,-598.8492C1098.812,-589.1775 1123.5948,-573.405 1143,-557 1310.1085,-415.7278 1400.1729,-402.3471 1481,-199 1513.3483,-117.6173 1365.1011,-82.416 1297.3127,-70.7566"/>
<polygon fill="#191970" stroke="#191970" points="1297.5999,-67.2568 1287.1638,-69.084 1296.4616,-74.1636 1297.5999,-67.2568"/>
</g>
<!-- Node49&#45;&gt;Node27 -->
<g id="edge120" class="edge">
<title>Node49&#45;&gt;Node27</title>
<path fill="none" stroke="#191970" d="M1066.1563,-598.8906C1066.2949,-590.3657 1066.5018,-577.6392 1066.676,-566.9235"/>
<polygon fill="#191970" stroke="#191970" points="1070.1784,-566.8005 1066.8415,-556.7449 1063.1793,-566.6866 1070.1784,-566.8005"/>
</g>
<!-- Node49&#45;&gt;Node30 -->
<g id="edge121" class="edge">
<title>Node49&#45;&gt;Node30</title>
<path fill="none" stroke="#191970" d="M1079.6481,-598.7787C1108.9182,-576.6641 1173.1768,-520.5838 1149,-470 1126.4075,-422.731 1073.3204,-388.894 1039.3973,-371.1796"/>
<polygon fill="#191970" stroke="#191970" points="1040.8813,-368.0079 1030.3786,-366.613 1037.719,-374.253 1040.8813,-368.0079"/>
</g>
<!-- Node49&#45;&gt;Node50 -->
<g id="edge118" class="edge">
<title>Node49&#45;&gt;Node50</title>
<path fill="none" stroke="#191970" d="M1088.5,-598.8906C1112.5938,-588.6005 1151.0213,-572.1888 1178.2008,-560.5809"/>
<polygon fill="#191970" stroke="#191970" points="1179.8363,-563.6883 1187.658,-556.5419 1177.0869,-557.2508 1179.8363,-563.6883"/>
</g>
<!-- Node51&#45;&gt;Node27 -->
<g id="edge126" class="edge">
<title>Node51&#45;&gt;Node27</title>
<path fill="none" stroke="#191970" d="M1407.6787,-594.3605C1404.7508,-593.8951 1401.8509,-593.4402 1399,-593 1290.2273,-576.2051 1160.9516,-559.1169 1100.8475,-551.337"/>
<polygon fill="#191970" stroke="#191970" points="1101.1547,-547.8477 1090.7888,-550.0384 1100.2584,-554.79 1101.1547,-547.8477"/>
</g>
<!-- Node51&#45;&gt;Node28 -->
<g id="edge127" class="edge">
<title>Node51&#45;&gt;Node28</title>
<path fill="none" stroke="#191970" d="M1509.7753,-593.2977C1521.6898,-584.1384 1536.8532,-572.4816 1548.9838,-563.1562"/>
<polygon fill="#191970" stroke="#191970" points="1551.396,-565.7165 1557.191,-556.8469 1547.1297,-560.1668 1551.396,-565.7165"/>
</g>
</g>
</svg>
