<?xml version="1.0" encoding="UTF-8" standalone="no"?>
<!DOCTYPE svg PUBLIC "-//W3C//DTD SVG 1.1//EN"
 "http://www.w3.org/Graphics/SVG/1.1/DTD/svg11.dtd">
<!-- Generated by graphviz version 2.40.1 (20161225.0304)
 -->
<!-- Title: BoundingBoxHelpers.h Pages: 1 -->
<svg width="1065pt" height="476pt"
 viewBox="0.00 0.00 1065.45 476.00" xmlns="http://www.w3.org/2000/svg" xmlns:xlink="http://www.w3.org/1999/xlink">
<g id="graph0" class="graph" transform="scale(1 1) rotate(0) translate(4 472)">
<title>BoundingBoxHelpers.h</title>
<!-- Node0 -->
<g id="node1" class="node">
<title>Node0</title>
<polygon fill="#bfbfbf" stroke="#000000" points="269,-448.5 269,-467.5 397,-467.5 397,-448.5 269,-448.5"/>
<text text-anchor="middle" x="333" y="-455.5" font-family="FreeSans.ttf" font-size="10.00" fill="#000000">BoundingBoxHelpers.h</text>
</g>
<!-- Node1 -->
<g id="node2" class="node">
<title>Node1</title>
<polygon fill="none" stroke="#bfbfbf" points="442,-56.5 442,-75.5 486,-75.5 486,-56.5 442,-56.5"/>
<text text-anchor="middle" x="464" y="-63.5" font-family="FreeSans.ttf" font-size="10.00" fill="#000000">string</text>
</g>
<!-- Node0&#45;&gt;Node1 -->
<g id="edge1" class="edge">
<title>Node0&#45;&gt;Node1</title>
<path fill="none" stroke="#191970" d="M268.7943,-449.7217C172.0283,-435.4242 0,-402.1153 0,-346 0,-346 0,-346 0,-178 0,-88.9694 326.8828,-70.4896 431.9179,-66.8497"/>
<polygon fill="#191970" stroke="#191970" points="432.0512,-70.3473 441.9325,-66.525 431.8242,-63.351 432.0512,-70.3473"/>
</g>
<!-- Node2 -->
<g id="node3" class="node">
<title>Node2</title>
<polygon fill="none" stroke="#bfbfbf" points="404.5,-336.5 404.5,-355.5 451.5,-355.5 451.5,-336.5 404.5,-336.5"/>
<text text-anchor="middle" x="428" y="-343.5" font-family="FreeSans.ttf" font-size="10.00" fill="#000000">vector</text>
</g>
<!-- Node0&#45;&gt;Node2 -->
<g id="edge2" class="edge">
<title>Node0&#45;&gt;Node2</title>
<path fill="none" stroke="#191970" d="M371.4781,-448.3849C390.5627,-441.5232 412.0374,-430.1934 424,-412 432.8581,-398.5282 433.2003,-379.9721 431.7047,-365.9659"/>
<polygon fill="#191970" stroke="#191970" points="435.1424,-365.2843 430.2388,-355.8926 428.2154,-366.2924 435.1424,-365.2843"/>
</g>
<!-- Node3 -->
<g id="node4" class="node">
<title>Node3</title>
<g id="a_node4"><a xlink:href="MatrixDynSize_8h.html" target="_top" xlink:title="iDynTree/Core/MatrixDynSize.h">
<polygon fill="none" stroke="#000000" points="27.5,-336.5 27.5,-355.5 194.5,-355.5 194.5,-336.5 27.5,-336.5"/>
<text text-anchor="middle" x="111" y="-343.5" font-family="FreeSans.ttf" font-size="10.00" fill="#000000">iDynTree/Core/MatrixDynSize.h</text>
</a>
</g>
</g>
<!-- Node0&#45;&gt;Node3 -->
<g id="edge3" class="edge">
<title>Node0&#45;&gt;Node3</title>
<path fill="none" stroke="#191970" d="M300.4907,-448.456C274.7078,-440.3194 238.1259,-427.4944 208,-412 179.8534,-397.5236 150.1375,-376.3042 131.1279,-361.8614"/>
<polygon fill="#191970" stroke="#191970" points="133.0087,-358.8923 122.9505,-355.5631 128.7373,-364.438 133.0087,-358.8923"/>
</g>
<!-- Node4 -->
<g id="node5" class="node">
<title>Node4</title>
<g id="a_node5"><a xlink:href="Position_8h.html" target="_top" xlink:title="iDynTree/Core/Position.h">
<polygon fill="none" stroke="#000000" points="405,-280.5 405,-299.5 541,-299.5 541,-280.5 405,-280.5"/>
<text text-anchor="middle" x="473" y="-287.5" font-family="FreeSans.ttf" font-size="10.00" fill="#000000">iDynTree/Core/Position.h</text>
</a>
</g>
</g>
<!-- Node0&#45;&gt;Node4 -->
<g id="edge5" class="edge">
<title>Node0&#45;&gt;Node4</title>
<path fill="none" stroke="#191970" d="M377.6942,-448.4937C399.7417,-441.7049 425.15,-430.4084 442,-412 467.9638,-383.6348 472.8811,-336.6247 473.418,-310.0017"/>
<polygon fill="#191970" stroke="#191970" points="476.918,-309.6499 473.4225,-299.6484 469.918,-309.6468 476.918,-309.6499"/>
</g>
<!-- Node25 -->
<g id="node26" class="node">
<title>Node25</title>
<g id="a_node26"><a xlink:href="Transform_8h.html" target="_top" xlink:title="iDynTree/Core/Transform.h">
<polygon fill="none" stroke="#000000" points="510,-336.5 510,-355.5 656,-355.5 656,-336.5 510,-336.5"/>
<text text-anchor="middle" x="583" y="-343.5" font-family="FreeSans.ttf" font-size="10.00" fill="#000000">iDynTree/Core/Transform.h</text>
</a>
</g>
</g>
<!-- Node0&#45;&gt;Node25 -->
<g id="edge40" class="edge">
<title>Node0&#45;&gt;Node25</title>
<path fill="none" stroke="#191970" d="M385.483,-448.4199C418.3648,-441.1675 460.9931,-429.4325 496,-412 522.3021,-398.9022 548.6444,-377.4732 565.3379,-362.6011"/>
<polygon fill="#191970" stroke="#191970" points="568.0987,-364.8209 573.1367,-355.5005 563.3861,-359.6449 568.0987,-364.8209"/>
</g>
<!-- Node26 -->
<g id="node27" class="node">
<title>Node26</title>
<g id="a_node27"><a xlink:href="VectorDynSize_8h.html" target="_top" xlink:title="iDynTree/Core/VectorDynSize.h">
<polygon fill="none" stroke="#000000" points="138.5,-280.5 138.5,-299.5 305.5,-299.5 305.5,-280.5 138.5,-280.5"/>
<text text-anchor="middle" x="222" y="-287.5" font-family="FreeSans.ttf" font-size="10.00" fill="#000000">iDynTree/Core/VectorDynSize.h</text>
</a>
</g>
</g>
<!-- Node0&#45;&gt;Node26 -->
<g id="edge45" class="edge">
<title>Node0&#45;&gt;Node26</title>
<path fill="none" stroke="#191970" d="M295.7256,-448.3521C276.4087,-441.4156 254.1656,-430.0259 241,-412 218.8633,-381.6913 218.1193,-335.7723 219.8603,-309.774"/>
<polygon fill="#191970" stroke="#191970" points="223.3606,-309.9204 220.7352,-299.6561 216.3866,-309.3173 223.3606,-309.9204"/>
</g>
<!-- Node27 -->
<g id="node28" class="node">
<title>Node27</title>
<g id="a_node28"><a xlink:href="ConvexHullHelpers_8h.html" target="_top" xlink:title="iDynTree/ConvexHullHelpers.h">
<polygon fill="none" stroke="#000000" points="250.5,-392.5 250.5,-411.5 415.5,-411.5 415.5,-392.5 250.5,-392.5"/>
<text text-anchor="middle" x="333" y="-399.5" font-family="FreeSans.ttf" font-size="10.00" fill="#000000">iDynTree/ConvexHullHelpers.h</text>
</a>
</g>
</g>
<!-- Node0&#45;&gt;Node27 -->
<g id="edge48" class="edge">
<title>Node0&#45;&gt;Node27</title>
<path fill="none" stroke="#191970" d="M333,-448.2455C333,-440.9382 333,-430.6944 333,-421.7046"/>
<polygon fill="#191970" stroke="#191970" points="336.5001,-421.6426 333,-411.6427 329.5001,-421.6427 336.5001,-421.6426"/>
</g>
<!-- Node3&#45;&gt;Node1 -->
<g id="edge4" class="edge">
<title>Node3&#45;&gt;Node1</title>
<path fill="none" stroke="#191970" d="M111,-336.4116C111,-317.0538 111,-271.9167 111,-234 111,-234 111,-234 111,-178 111,-111.0326 344.7337,-78.8911 431.815,-69.2401"/>
<polygon fill="#191970" stroke="#191970" points="432.3519,-72.7025 441.9183,-68.149 431.6002,-65.743 432.3519,-72.7025"/>
</g>
<!-- Node4&#45;&gt;Node1 -->
<g id="edge39" class="edge">
<title>Node4&#45;&gt;Node1</title>
<path fill="none" stroke="#191970" d="M459.348,-280.3174C437.825,-264.11 396.828,-229.1806 381,-188 364.6882,-145.5608 410.887,-103.3281 440.7615,-81.4136"/>
<polygon fill="#191970" stroke="#191970" points="442.9193,-84.1743 449.0554,-75.5372 438.8724,-78.4626 442.9193,-84.1743"/>
</g>
<!-- Node5 -->
<g id="node6" class="node">
<title>Node5</title>
<g id="a_node6"><a xlink:href="PositionRaw_8h.html" target="_top" xlink:title="iDynTree/Core/PositionRaw.h">
<polygon fill="none" stroke="#000000" points="390,-168.5 390,-187.5 546,-187.5 546,-168.5 390,-168.5"/>
<text text-anchor="middle" x="468" y="-175.5" font-family="FreeSans.ttf" font-size="10.00" fill="#000000">iDynTree/Core/PositionRaw.h</text>
</a>
</g>
</g>
<!-- Node4&#45;&gt;Node5 -->
<g id="edge6" class="edge">
<title>Node4&#45;&gt;Node5</title>
<path fill="none" stroke="#191970" d="M472.5737,-280.4509C471.7582,-262.184 469.9623,-221.9553 468.8794,-197.6976"/>
<polygon fill="#191970" stroke="#191970" points="472.3678,-197.3588 468.4252,-187.5249 465.3748,-197.6711 472.3678,-197.3588"/>
</g>
<!-- Node20 -->
<g id="node21" class="node">
<title>Node20</title>
<g id="a_node21"><a xlink:href="Rotation_8h.html" target="_top" xlink:title="iDynTree/Core/Rotation.h">
<polygon fill="none" stroke="#000000" points="628.5,-224.5 628.5,-243.5 765.5,-243.5 765.5,-224.5 628.5,-224.5"/>
<text text-anchor="middle" x="697" y="-231.5" font-family="FreeSans.ttf" font-size="10.00" fill="#000000">iDynTree/Core/Rotation.h</text>
</a>
</g>
</g>
<!-- Node4&#45;&gt;Node20 -->
<g id="edge25" class="edge">
<title>Node4&#45;&gt;Node20</title>
<path fill="none" stroke="#191970" d="M511.2525,-280.4369C549.3467,-270.9133 607.9313,-256.2672 649.0987,-245.9753"/>
<polygon fill="#191970" stroke="#191970" points="650.0528,-249.3446 658.9053,-243.5237 648.355,-242.5536 650.0528,-249.3446"/>
</g>
<!-- Node5&#45;&gt;Node1 -->
<g id="edge24" class="edge">
<title>Node5&#45;&gt;Node1</title>
<path fill="none" stroke="#191970" d="M467.659,-168.4509C467.0066,-150.184 465.5698,-109.9553 464.7035,-85.6976"/>
<polygon fill="#191970" stroke="#191970" points="468.195,-85.3936 464.3402,-75.5249 461.1994,-85.6435 468.195,-85.3936"/>
</g>
<!-- Node6 -->
<g id="node7" class="node">
<title>Node6</title>
<g id="a_node7"><a xlink:href="VectorFixSize_8h.html" target="_top" xlink:title="iDynTree/Core/VectorFixSize.h">
<polygon fill="none" stroke="#000000" points="644.5,-112.5 644.5,-131.5 805.5,-131.5 805.5,-112.5 644.5,-112.5"/>
<text text-anchor="middle" x="725" y="-119.5" font-family="FreeSans.ttf" font-size="10.00" fill="#000000">iDynTree/Core/VectorFixSize.h</text>
</a>
</g>
</g>
<!-- Node5&#45;&gt;Node6 -->
<g id="edge7" class="edge">
<title>Node5&#45;&gt;Node6</title>
<path fill="none" stroke="#191970" d="M511.8879,-168.4369C555.9638,-158.8328 623.9481,-144.0191 671.2358,-133.7152"/>
<polygon fill="#191970" stroke="#191970" points="672.2676,-137.0725 681.2932,-131.5237 670.7772,-130.233 672.2676,-137.0725"/>
</g>
<!-- Node6&#45;&gt;Node1 -->
<g id="edge20" class="edge">
<title>Node6&#45;&gt;Node1</title>
<path fill="none" stroke="#191970" d="M680.4291,-112.4369C628.0455,-101.1975 542.4093,-82.8235 496.1219,-72.892"/>
<polygon fill="#191970" stroke="#191970" points="496.838,-69.4661 486.3263,-70.7903 495.3695,-76.3104 496.838,-69.4661"/>
</g>
<!-- Node7 -->
<g id="node8" class="node">
<title>Node7</title>
<g id="a_node8"><a xlink:href="Utils_8h.html" target="_top" xlink:title="iDynTree/Core/Utils.h">
<polygon fill="none" stroke="#000000" points="844.5,-56.5 844.5,-75.5 963.5,-75.5 963.5,-56.5 844.5,-56.5"/>
<text text-anchor="middle" x="904" y="-63.5" font-family="FreeSans.ttf" font-size="10.00" fill="#000000">iDynTree/Core/Utils.h</text>
</a>
</g>
</g>
<!-- Node6&#45;&gt;Node7 -->
<g id="edge8" class="edge">
<title>Node6&#45;&gt;Node7</title>
<path fill="none" stroke="#191970" d="M755.7712,-112.3733C785.665,-103.021 831.2093,-88.7725 863.9217,-78.5385"/>
<polygon fill="#191970" stroke="#191970" points="865.1315,-81.8273 873.6303,-75.5011 863.0414,-75.1466 865.1315,-81.8273"/>
</g>
<!-- Node9 -->
<g id="node10" class="node">
<title>Node9</title>
<g id="a_node10"><a xlink:href="Span_8h.html" target="_top" xlink:title="iDynTree/Core/Span.h">
<polygon fill="none" stroke="#000000" points="524.5,-56.5 524.5,-75.5 645.5,-75.5 645.5,-56.5 524.5,-56.5"/>
<text text-anchor="middle" x="585" y="-63.5" font-family="FreeSans.ttf" font-size="10.00" fill="#000000">iDynTree/Core/Span.h</text>
</a>
</g>
</g>
<!-- Node6&#45;&gt;Node9 -->
<g id="edge10" class="edge">
<title>Node6&#45;&gt;Node9</title>
<path fill="none" stroke="#191970" d="M700.9331,-112.3733C678.1572,-103.2629 643.7656,-89.5062 618.351,-79.3404"/>
<polygon fill="#191970" stroke="#191970" points="619.3375,-75.9654 608.7528,-75.5011 616.7377,-82.4648 619.3375,-75.9654"/>
</g>
<!-- Node10 -->
<g id="node11" class="node">
<title>Node10</title>
<polygon fill="none" stroke="#bfbfbf" points="875,-.5 875,-19.5 927,-19.5 927,-.5 875,-.5"/>
<text text-anchor="middle" x="901" y="-7.5" font-family="FreeSans.ttf" font-size="10.00" fill="#000000">cassert</text>
</g>
<!-- Node6&#45;&gt;Node10 -->
<g id="edge22" class="edge">
<title>Node6&#45;&gt;Node10</title>
<path fill="none" stroke="#191970" d="M713.9149,-112.2499C699.7553,-98.6241 678.6978,-73.5848 693,-56 740.6189,2.5481 786.0569,-35.5437 864.899,-19.9238"/>
<polygon fill="#191970" stroke="#191970" points="865.6833,-23.335 874.6819,-17.7426 864.1599,-16.5028 865.6833,-23.335"/>
</g>
<!-- Node18 -->
<g id="node19" class="node">
<title>Node18</title>
<polygon fill="none" stroke="#bfbfbf" points="770,-56.5 770,-75.5 826,-75.5 826,-56.5 770,-56.5"/>
<text text-anchor="middle" x="798" y="-63.5" font-family="FreeSans.ttf" font-size="10.00" fill="#000000">sstream</text>
</g>
<!-- Node6&#45;&gt;Node18 -->
<g id="edge21" class="edge">
<title>Node6&#45;&gt;Node18</title>
<path fill="none" stroke="#191970" d="M737.7156,-112.2455C748.602,-103.8943 764.4883,-91.7076 777.22,-81.9408"/>
<polygon fill="#191970" stroke="#191970" points="779.6261,-84.5063 785.4301,-75.6427 775.3654,-78.9523 779.6261,-84.5063"/>
</g>
<!-- Node19 -->
<g id="node20" class="node">
<title>Node19</title>
<polygon fill="none" stroke="#bfbfbf" points="702,-56.5 702,-75.5 752,-75.5 752,-56.5 702,-56.5"/>
<text text-anchor="middle" x="727" y="-63.5" font-family="FreeSans.ttf" font-size="10.00" fill="#000000">cstring</text>
</g>
<!-- Node6&#45;&gt;Node19 -->
<g id="edge23" class="edge">
<title>Node6&#45;&gt;Node19</title>
<path fill="none" stroke="#191970" d="M725.3484,-112.2455C725.6093,-104.9382 725.9752,-94.6944 726.2963,-85.7046"/>
<polygon fill="#191970" stroke="#191970" points="729.7964,-85.7613 726.6556,-75.6427 722.8008,-85.5113 729.7964,-85.7613"/>
</g>
<!-- Node8 -->
<g id="node9" class="node">
<title>Node8</title>
<polygon fill="none" stroke="#bfbfbf" points="803.5,-.5 803.5,-19.5 856.5,-19.5 856.5,-.5 803.5,-.5"/>
<text text-anchor="middle" x="830" y="-7.5" font-family="FreeSans.ttf" font-size="10.00" fill="#000000">cstddef</text>
</g>
<!-- Node7&#45;&gt;Node8 -->
<g id="edge9" class="edge">
<title>Node7&#45;&gt;Node8</title>
<path fill="none" stroke="#191970" d="M891.1102,-56.2455C880.0746,-47.8943 863.9708,-35.7076 851.0647,-25.9408"/>
<polygon fill="#191970" stroke="#191970" points="852.8283,-22.8862 842.7421,-19.6427 848.6041,-28.4681 852.8283,-22.8862"/>
</g>
<!-- Node9&#45;&gt;Node8 -->
<g id="edge14" class="edge">
<title>Node9&#45;&gt;Node8</title>
<path fill="none" stroke="#191970" d="M632.7389,-56.4322C673.2649,-48.1096 733.1644,-35.3392 793.5934,-20.2569"/>
<polygon fill="#191970" stroke="#191970" points="794.4495,-23.6507 803.2935,-17.8168 792.7418,-16.8622 794.4495,-23.6507"/>
</g>
<!-- Node9&#45;&gt;Node10 -->
<g id="edge11" class="edge">
<title>Node9&#45;&gt;Node10</title>
<path fill="none" stroke="#191970" d="M645.5622,-56.9291C710.8334,-47.0132 811.5329,-31.2782 864.7294,-20.048"/>
<polygon fill="#191970" stroke="#191970" points="865.6894,-23.4209 874.7107,-17.8651 864.1938,-16.5825 865.6894,-23.4209"/>
</g>
<!-- Node11 -->
<g id="node12" class="node">
<title>Node11</title>
<polygon fill="none" stroke="#bfbfbf" points="590,-.5 590,-19.5 654,-19.5 654,-.5 590,-.5"/>
<text text-anchor="middle" x="622" y="-7.5" font-family="FreeSans.ttf" font-size="10.00" fill="#000000">algorithm</text>
</g>
<!-- Node9&#45;&gt;Node11 -->
<g id="edge12" class="edge">
<title>Node9&#45;&gt;Node11</title>
<path fill="none" stroke="#191970" d="M591.4449,-56.2455C596.5382,-48.5367 603.7908,-37.5598 609.952,-28.2348"/>
<polygon fill="#191970" stroke="#191970" points="613.0365,-29.9155 615.6289,-19.6427 607.1962,-26.0566 613.0365,-29.9155"/>
</g>
<!-- Node12 -->
<g id="node13" class="node">
<title>Node12</title>
<polygon fill="none" stroke="#bfbfbf" points="672,-.5 672,-19.5 714,-19.5 714,-.5 672,-.5"/>
<text text-anchor="middle" x="693" y="-7.5" font-family="FreeSans.ttf" font-size="10.00" fill="#000000">array</text>
</g>
<!-- Node9&#45;&gt;Node12 -->
<g id="edge13" class="edge">
<title>Node9&#45;&gt;Node12</title>
<path fill="none" stroke="#191970" d="M603.8122,-56.2455C620.8473,-47.4125 646.1575,-34.2887 665.4681,-24.2758"/>
<polygon fill="#191970" stroke="#191970" points="667.137,-27.353 674.4034,-19.6427 663.9147,-21.1388 667.137,-27.353"/>
</g>
<!-- Node13 -->
<g id="node14" class="node">
<title>Node13</title>
<polygon fill="none" stroke="#bfbfbf" points="732.5,-.5 732.5,-19.5 785.5,-19.5 785.5,-.5 732.5,-.5"/>
<text text-anchor="middle" x="759" y="-7.5" font-family="FreeSans.ttf" font-size="10.00" fill="#000000">iterator</text>
</g>
<!-- Node9&#45;&gt;Node13 -->
<g id="edge15" class="edge">
<title>Node9&#45;&gt;Node13</title>
<path fill="none" stroke="#191970" d="M614.9117,-56.3733C644.722,-46.7791 690.5426,-32.0323 722.4828,-21.7527"/>
<polygon fill="#191970" stroke="#191970" points="723.8806,-24.9797 732.3274,-18.5843 721.736,-18.3163 723.8806,-24.9797"/>
</g>
<!-- Node14 -->
<g id="node15" class="node">
<title>Node14</title>
<polygon fill="none" stroke="#bfbfbf" points="294,-.5 294,-19.5 338,-19.5 338,-.5 294,-.5"/>
<text text-anchor="middle" x="316" y="-7.5" font-family="FreeSans.ttf" font-size="10.00" fill="#000000">limits</text>
</g>
<!-- Node9&#45;&gt;Node14 -->
<g id="edge16" class="edge">
<title>Node9&#45;&gt;Node14</title>
<path fill="none" stroke="#191970" d="M524.8889,-56.4559C478.8616,-48.6759 413.6622,-36.641 348.3185,-20.1162"/>
<polygon fill="#191970" stroke="#191970" points="348.8127,-16.6298 338.2567,-17.5358 347.0738,-23.4104 348.8127,-16.6298"/>
</g>
<!-- Node15 -->
<g id="node16" class="node">
<title>Node15</title>
<polygon fill="none" stroke="#bfbfbf" points="356.5,-.5 356.5,-19.5 421.5,-19.5 421.5,-.5 356.5,-.5"/>
<text text-anchor="middle" x="389" y="-7.5" font-family="FreeSans.ttf" font-size="10.00" fill="#000000">stdexcept</text>
</g>
<!-- Node9&#45;&gt;Node15 -->
<g id="edge17" class="edge">
<title>Node9&#45;&gt;Node15</title>
<path fill="none" stroke="#191970" d="M551.3064,-56.3733C518.0912,-46.8832 467.2306,-32.3516 431.3106,-22.0888"/>
<polygon fill="#191970" stroke="#191970" points="432.1794,-18.697 421.6026,-19.315 430.2563,-25.4277 432.1794,-18.697"/>
</g>
<!-- Node16 -->
<g id="node17" class="node">
<title>Node16</title>
<polygon fill="none" stroke="#bfbfbf" points="439.5,-.5 439.5,-19.5 508.5,-19.5 508.5,-.5 439.5,-.5"/>
<text text-anchor="middle" x="474" y="-7.5" font-family="FreeSans.ttf" font-size="10.00" fill="#000000">type_traits</text>
</g>
<!-- Node9&#45;&gt;Node16 -->
<g id="edge18" class="edge">
<title>Node9&#45;&gt;Node16</title>
<path fill="none" stroke="#191970" d="M565.9184,-56.3733C548.2598,-47.4644 521.7947,-34.1127 501.7902,-24.0203"/>
<polygon fill="#191970" stroke="#191970" points="503.3372,-20.8806 492.8326,-19.5011 500.1842,-27.1303 503.3372,-20.8806"/>
</g>
<!-- Node17 -->
<g id="node18" class="node">
<title>Node17</title>
<polygon fill="none" stroke="#bfbfbf" points="526.5,-.5 526.5,-19.5 571.5,-19.5 571.5,-.5 526.5,-.5"/>
<text text-anchor="middle" x="549" y="-7.5" font-family="FreeSans.ttf" font-size="10.00" fill="#000000">utility</text>
</g>
<!-- Node9&#45;&gt;Node17 -->
<g id="edge19" class="edge">
<title>Node9&#45;&gt;Node17</title>
<path fill="none" stroke="#191970" d="M578.7293,-56.2455C573.7736,-48.5367 566.717,-37.5598 560.7224,-28.2348"/>
<polygon fill="#191970" stroke="#191970" points="563.5506,-26.1618 555.1989,-19.6427 557.6624,-29.9471 563.5506,-26.1618"/>
</g>
<!-- Node20&#45;&gt;Node1 -->
<g id="edge26" class="edge">
<title>Node20&#45;&gt;Node1</title>
<path fill="none" stroke="#191970" d="M683.2702,-224.3564C670.0909,-215.0823 649.6401,-200.6462 632,-188 578.9797,-149.9897 516.9594,-104.7473 485.1645,-81.4963"/>
<polygon fill="#191970" stroke="#191970" points="487.1681,-78.6255 477.0308,-75.5458 483.035,-84.2751 487.1681,-78.6255"/>
</g>
<!-- Node20&#45;&gt;Node6 -->
<g id="edge38" class="edge">
<title>Node20&#45;&gt;Node6</title>
<path fill="none" stroke="#191970" d="M765.6965,-227.8453C847.4077,-219.8168 974.6405,-204.7987 989,-188 994.7757,-181.2432 994.7206,-174.8035 989,-168 982.9109,-160.7582 877.9327,-144.1419 802.2185,-132.9916"/>
<polygon fill="#191970" stroke="#191970" points="802.6108,-129.5117 792.2088,-131.5241 801.5953,-136.4377 802.6108,-129.5117"/>
</g>
<!-- Node21 -->
<g id="node22" class="node">
<title>Node21</title>
<g id="a_node22"><a xlink:href="GeomVector3_8h.html" target="_top" xlink:title="iDynTree/Core/GeomVector3.h">
<polygon fill="none" stroke="#000000" points="640.5,-168.5 640.5,-187.5 803.5,-187.5 803.5,-168.5 640.5,-168.5"/>
<text text-anchor="middle" x="722" y="-175.5" font-family="FreeSans.ttf" font-size="10.00" fill="#000000">iDynTree/Core/GeomVector3.h</text>
</a>
</g>
</g>
<!-- Node20&#45;&gt;Node21 -->
<g id="edge27" class="edge">
<title>Node20&#45;&gt;Node21</title>
<path fill="none" stroke="#191970" d="M701.3547,-224.2455C704.7244,-216.6973 709.493,-206.0158 713.5983,-196.8197"/>
<polygon fill="#191970" stroke="#191970" points="716.8147,-198.2009 717.6952,-187.6427 710.4227,-195.3473 716.8147,-198.2009"/>
</g>
<!-- Node22 -->
<g id="node23" class="node">
<title>Node22</title>
<g id="a_node23"><a xlink:href="RotationRaw_8h.html" target="_top" xlink:title="iDynTree/Core/RotationRaw.h">
<polygon fill="none" stroke="#000000" points="822,-168.5 822,-187.5 980,-187.5 980,-168.5 822,-168.5"/>
<text text-anchor="middle" x="901" y="-175.5" font-family="FreeSans.ttf" font-size="10.00" fill="#000000">iDynTree/Core/RotationRaw.h</text>
</a>
</g>
</g>
<!-- Node20&#45;&gt;Node22 -->
<g id="edge29" class="edge">
<title>Node20&#45;&gt;Node22</title>
<path fill="none" stroke="#191970" d="M732.0689,-224.3733C766.4315,-214.9404 818.9392,-200.5265 856.2851,-190.2747"/>
<polygon fill="#191970" stroke="#191970" points="857.672,-193.5235 866.3888,-187.5011 855.819,-186.7732 857.672,-193.5235"/>
</g>
<!-- Node21&#45;&gt;Node6 -->
<g id="edge28" class="edge">
<title>Node21&#45;&gt;Node6</title>
<path fill="none" stroke="#191970" d="M722.5226,-168.2455C722.914,-160.9382 723.4628,-150.6944 723.9444,-141.7046"/>
<polygon fill="#191970" stroke="#191970" points="727.4434,-141.8156 724.4834,-131.6427 720.4534,-141.4411 727.4434,-141.8156"/>
</g>
<!-- Node22&#45;&gt;Node1 -->
<g id="edge37" class="edge">
<title>Node22&#45;&gt;Node1</title>
<path fill="none" stroke="#191970" d="M822.719,-168.4891C769.4882,-161.0317 697.7817,-149.041 636,-132 585.0665,-117.9512 528.2465,-94.5514 494.3454,-79.7185"/>
<polygon fill="#191970" stroke="#191970" points="495.5654,-76.4312 485.0037,-75.5936 492.7378,-82.8348 495.5654,-76.4312"/>
</g>
<!-- Node23 -->
<g id="node24" class="node">
<title>Node23</title>
<g id="a_node24"><a xlink:href="MatrixFixSize_8h.html" target="_top" xlink:title="iDynTree/Core/MatrixFixSize.h">
<polygon fill="none" stroke="#000000" points="823.5,-112.5 823.5,-131.5 984.5,-131.5 984.5,-112.5 823.5,-112.5"/>
<text text-anchor="middle" x="904" y="-119.5" font-family="FreeSans.ttf" font-size="10.00" fill="#000000">iDynTree/Core/MatrixFixSize.h</text>
</a>
</g>
</g>
<!-- Node22&#45;&gt;Node23 -->
<g id="edge30" class="edge">
<title>Node22&#45;&gt;Node23</title>
<path fill="none" stroke="#191970" d="M901.5226,-168.2455C901.914,-160.9382 902.4628,-150.6944 902.9444,-141.7046"/>
<polygon fill="#191970" stroke="#191970" points="906.4434,-141.8156 903.4834,-131.6427 899.4534,-141.4411 906.4434,-141.8156"/>
</g>
<!-- Node23&#45;&gt;Node1 -->
<g id="edge34" class="edge">
<title>Node23&#45;&gt;Node1</title>
<path fill="none" stroke="#191970" d="M823.0967,-112.7237C718.3138,-100.6604 545.5351,-80.5846 516,-76 509.5614,-75.0006 502.7022,-73.788 496.1488,-72.557"/>
<polygon fill="#191970" stroke="#191970" points="496.6892,-69.0968 486.2067,-70.6353 495.3607,-75.9696 496.6892,-69.0968"/>
</g>
<!-- Node23&#45;&gt;Node7 -->
<g id="edge31" class="edge">
<title>Node23&#45;&gt;Node7</title>
<path fill="none" stroke="#191970" d="M904,-112.2455C904,-104.9382 904,-94.6944 904,-85.7046"/>
<polygon fill="#191970" stroke="#191970" points="907.5001,-85.6426 904,-75.6427 900.5001,-85.6427 907.5001,-85.6426"/>
</g>
<!-- Node23&#45;&gt;Node10 -->
<g id="edge32" class="edge">
<title>Node23&#45;&gt;Node10</title>
<path fill="none" stroke="#191970" d="M984.5303,-112.4523C1030.0823,-103.5533 1073.7839,-86.8183 1051,-56 1037.37,-37.5637 976.8005,-23.4827 936.9204,-16.0014"/>
<polygon fill="#191970" stroke="#191970" points="937.486,-12.5469 927.0208,-14.1992 936.2322,-19.4337 937.486,-12.5469"/>
</g>
<!-- Node23&#45;&gt;Node18 -->
<g id="edge36" class="edge">
<title>Node23&#45;&gt;Node18</title>
<path fill="none" stroke="#191970" d="M885.5362,-112.2455C868.8926,-103.4527 844.2007,-90.4079 825.2808,-80.4125"/>
<polygon fill="#191970" stroke="#191970" points="826.7291,-77.2193 816.2522,-75.6427 823.4592,-83.4086 826.7291,-77.2193"/>
</g>
<!-- Node23&#45;&gt;Node19 -->
<g id="edge33" class="edge">
<title>Node23&#45;&gt;Node19</title>
<path fill="none" stroke="#191970" d="M873.5726,-112.3733C842.49,-102.5392 794.2964,-87.2915 761.7363,-76.99"/>
<polygon fill="#191970" stroke="#191970" points="762.7596,-73.6428 752.1696,-73.9633 760.648,-80.3168 762.7596,-73.6428"/>
</g>
<!-- Node24 -->
<g id="node25" class="node">
<title>Node24</title>
<polygon fill="none" stroke="#bfbfbf" points="982,-56.5 982,-75.5 1042,-75.5 1042,-56.5 982,-56.5"/>
<text text-anchor="middle" x="1012" y="-63.5" font-family="FreeSans.ttf" font-size="10.00" fill="#000000">iostream</text>
</g>
<!-- Node23&#45;&gt;Node24 -->
<g id="edge35" class="edge">
<title>Node23&#45;&gt;Node24</title>
<path fill="none" stroke="#191970" d="M922.8122,-112.2455C939.8473,-103.4125 965.1575,-90.2887 984.4681,-80.2758"/>
<polygon fill="#191970" stroke="#191970" points="986.137,-83.353 993.4034,-75.6427 982.9147,-77.1388 986.137,-83.353"/>
</g>
<!-- Node25&#45;&gt;Node1 -->
<g id="edge44" class="edge">
<title>Node25&#45;&gt;Node1</title>
<path fill="none" stroke="#191970" d="M583.3446,-336.179C583.9368,-308.3379 582.9811,-227.0909 555,-168 553.8099,-165.4866 505.5509,-111.9423 479.8071,-83.4644"/>
<polygon fill="#191970" stroke="#191970" points="482.2121,-80.9058 472.9085,-75.837 477.0206,-85.6013 482.2121,-80.9058"/>
</g>
<!-- Node25&#45;&gt;Node4 -->
<g id="edge41" class="edge">
<title>Node25&#45;&gt;Node4</title>
<path fill="none" stroke="#191970" d="M563.8395,-336.2455C546.4889,-327.4125 520.7099,-314.2887 501.0417,-304.2758"/>
<polygon fill="#191970" stroke="#191970" points="502.4405,-301.0605 491.941,-299.6427 499.2647,-307.2986 502.4405,-301.0605"/>
</g>
<!-- Node25&#45;&gt;Node20 -->
<g id="edge42" class="edge">
<title>Node25&#45;&gt;Node20</title>
<path fill="none" stroke="#191970" d="M592.7196,-336.4509C612.0699,-317.4401 655.6319,-274.6423 679.8837,-250.816"/>
<polygon fill="#191970" stroke="#191970" points="682.6245,-253.0298 687.305,-243.5249 677.7187,-248.0364 682.6245,-253.0298"/>
</g>
<!-- Node25&#45;&gt;Node23 -->
<g id="edge43" class="edge">
<title>Node25&#45;&gt;Node23</title>
<path fill="none" stroke="#191970" d="M625.763,-336.4579C723.8464,-313.6161 960.0335,-252.8507 1005,-188 1010.065,-180.6953 1009.8095,-175.4753 1005,-168 994.8843,-152.2774 977.9269,-141.8649 960.7676,-134.996"/>
<polygon fill="#191970" stroke="#191970" points="961.85,-131.6653 951.256,-131.5332 959.4553,-138.243 961.85,-131.6653"/>
</g>
<!-- Node26&#45;&gt;Node1 -->
<g id="edge47" class="edge">
<title>Node26&#45;&gt;Node1</title>
<path fill="none" stroke="#191970" d="M221.5773,-280.2137C220.8529,-250.2884 222.9599,-159.1784 272,-112 294.6678,-90.1927 383.5182,-76.0106 432.0042,-69.7289"/>
<polygon fill="#191970" stroke="#191970" points="432.4981,-73.1944 441.9831,-68.4739 431.6245,-66.2492 432.4981,-73.1944"/>
</g>
<!-- Node26&#45;&gt;Node9 -->
<g id="edge46" class="edge">
<title>Node26&#45;&gt;Node9</title>
<path fill="none" stroke="#191970" d="M233.0278,-280.3388C258.1447,-258.6104 322.007,-204.9087 381,-168 439.2695,-131.544 512.3111,-97.6305 553.3015,-79.5728"/>
<polygon fill="#191970" stroke="#191970" points="554.758,-82.756 562.5178,-75.5424 551.9532,-76.3425 554.758,-82.756"/>
</g>
<!-- Node27&#45;&gt;Node1 -->
<g id="edge49" class="edge">
<title>Node27&#45;&gt;Node1</title>
<path fill="none" stroke="#191970" d="M332.012,-392.3477C328.5187,-353.1268 320.3027,-203.4394 387,-112 398.247,-96.5808 416.374,-85.3821 432.2154,-77.8969"/>
<polygon fill="#191970" stroke="#191970" points="433.9652,-80.9504 441.7015,-73.7117 431.1396,-74.5461 433.9652,-80.9504"/>
</g>
<!-- Node27&#45;&gt;Node2 -->
<g id="edge50" class="edge">
<title>Node27&#45;&gt;Node2</title>
<path fill="none" stroke="#191970" d="M349.5477,-392.2455C364.2599,-383.5731 385.9888,-370.7645 402.8505,-360.825"/>
<polygon fill="#191970" stroke="#191970" points="404.8046,-363.736 411.6419,-355.6427 401.2498,-357.7057 404.8046,-363.736"/>
</g>
<!-- Node27&#45;&gt;Node3 -->
<g id="edge51" class="edge">
<title>Node27&#45;&gt;Node3</title>
<path fill="none" stroke="#191970" d="M295.0891,-392.4369C257.335,-382.9133 199.2735,-368.2672 158.4736,-357.9753"/>
<polygon fill="#191970" stroke="#191970" points="159.3069,-354.576 148.7546,-355.5237 157.5947,-361.3633 159.3069,-354.576"/>
</g>
<!-- Node27&#45;&gt;Node4 -->
<g id="edge52" class="edge">
<title>Node27&#45;&gt;Node4</title>
<path fill="none" stroke="#191970" d="M340.6741,-392.221C351.7097,-378.561 373.1484,-353.4813 395,-336 410.2493,-323.8006 429.0647,-312.6096 444.395,-304.3207"/>
<polygon fill="#191970" stroke="#191970" points="446.2182,-307.3161 453.4269,-299.5517 442.9497,-301.126 446.2182,-307.3161"/>
</g>
<!-- Node27&#45;&gt;Node25 -->
<g id="edge53" class="edge">
<title>Node27&#45;&gt;Node25</title>
<path fill="none" stroke="#191970" d="M375.6925,-392.4369C418.5679,-382.8328 484.7005,-368.0191 530.7002,-357.7152"/>
<polygon fill="#191970" stroke="#191970" points="531.4905,-361.1249 540.4836,-355.5237 529.9604,-354.2942 531.4905,-361.1249"/>
</g>
<!-- Node27&#45;&gt;Node26 -->
<g id="edge54" class="edge">
<title>Node27&#45;&gt;Node26</title>
<path fill="none" stroke="#191970" d="M323.5362,-392.4509C304.6951,-373.4401 262.2795,-330.6423 238.6659,-306.816"/>
<polygon fill="#191970" stroke="#191970" points="240.9651,-304.1639 231.4398,-299.5249 235.9932,-309.0914 240.9651,-304.1639"/>
</g>
</g>
</svg>
