<?xml version="1.0" encoding="UTF-8" standalone="no"?>
<!DOCTYPE svg PUBLIC "-//W3C//DTD SVG 1.1//EN"
 "http://www.w3.org/Graphics/SVG/1.1/DTD/svg11.dtd">
<!-- Generated by graphviz version 2.40.1 (20161225.0304)
 -->
<!-- Title: BoundingBoxHelpers.cpp Pages: 1 -->
<svg width="1651pt" height="543pt"
 viewBox="0.00 0.00 1650.50 543.00" xmlns="http://www.w3.org/2000/svg" xmlns:xlink="http://www.w3.org/1999/xlink">
<g id="graph0" class="graph" transform="scale(1 1) rotate(0) translate(4 539)">
<title>BoundingBoxHelpers.cpp</title>
<!-- Node0 -->
<g id="node1" class="node">
<title>Node0</title>
<polygon fill="#bfbfbf" stroke="#000000" points="1009.5,-515.5 1009.5,-534.5 1148.5,-534.5 1148.5,-515.5 1009.5,-515.5"/>
<text text-anchor="middle" x="1079" y="-522.5" font-family="FreeSans.ttf" font-size="10.00" fill="#000000">BoundingBoxHelpers.cpp</text>
</g>
<!-- Node1 -->
<g id="node2" class="node">
<title>Node1</title>
<g id="a_node2"><a xlink:href="BoundingBoxHelpers_8h.html" target="_top" xlink:title="iDynTree/BoundingBoxHelpers.h">
<polygon fill="none" stroke="#000000" points="376.5,-459.5 376.5,-478.5 549.5,-478.5 549.5,-459.5 376.5,-459.5"/>
<text text-anchor="middle" x="463" y="-466.5" font-family="FreeSans.ttf" font-size="10.00" fill="#000000">iDynTree/BoundingBoxHelpers.h</text>
</a>
</g>
</g>
<!-- Node0&#45;&gt;Node1 -->
<g id="edge1" class="edge">
<title>Node0&#45;&gt;Node1</title>
<path fill="none" stroke="#191970" d="M1009.2358,-518.6578C899.1686,-508.6517 684.9167,-489.1742 559.9529,-477.8139"/>
<polygon fill="#191970" stroke="#191970" points="559.9056,-474.2953 549.6298,-476.8754 559.2718,-481.2665 559.9056,-474.2953"/>
</g>
<!-- Node12 -->
<g id="node13" class="node">
<title>Node12</title>
<polygon fill="none" stroke="#bfbfbf" points="1377,-.5 1377,-19.5 1441,-19.5 1441,-.5 1377,-.5"/>
<text text-anchor="middle" x="1409" y="-7.5" font-family="FreeSans.ttf" font-size="10.00" fill="#000000">algorithm</text>
</g>
<!-- Node0&#45;&gt;Node12 -->
<g id="edge87" class="edge">
<title>Node0&#45;&gt;Node12</title>
<path fill="none" stroke="#191970" d="M1148.5131,-521.8586C1278.4192,-514.0795 1545,-488.2755 1545,-407.5 1545,-407.5 1545,-407.5 1545,-122 1545,-71.5608 1488.569,-39.6302 1448.4075,-23.2924"/>
<polygon fill="#191970" stroke="#191970" points="1449.4342,-19.9362 1438.8458,-19.5675 1446.8932,-26.4587 1449.4342,-19.9362"/>
</g>
<!-- Node29 -->
<g id="node30" class="node">
<title>Node29</title>
<g id="a_node30"><a xlink:href="Axis_8h.html" target="_top" xlink:title="iDynTree/Core/Axis.h">
<polygon fill="none" stroke="#000000" points="587,-336.5 587,-355.5 705,-355.5 705,-336.5 587,-336.5"/>
<text text-anchor="middle" x="646" y="-343.5" font-family="FreeSans.ttf" font-size="10.00" fill="#000000">iDynTree/Core/Axis.h</text>
</a>
</g>
</g>
<!-- Node0&#45;&gt;Node29 -->
<g id="edge56" class="edge">
<title>Node0&#45;&gt;Node29</title>
<path fill="none" stroke="#191970" d="M1055.72,-515.3762C983.316,-485.4447 761.9533,-393.9345 678.3914,-359.3904"/>
<polygon fill="#191970" stroke="#191970" points="679.7103,-356.1484 669.1317,-355.5625 677.036,-362.6175 679.7103,-356.1484"/>
</g>
<!-- Node31 -->
<g id="node32" class="node">
<title>Node31</title>
<g id="a_node32"><a xlink:href="EigenHelpers_8h.html" target="_top" xlink:title="iDynTree/Core/EigenHelpers.h">
<polygon fill="none" stroke="#000000" points="998.5,-459.5 998.5,-478.5 1159.5,-478.5 1159.5,-459.5 998.5,-459.5"/>
<text text-anchor="middle" x="1079" y="-466.5" font-family="FreeSans.ttf" font-size="10.00" fill="#000000">iDynTree/Core/EigenHelpers.h</text>
</a>
</g>
</g>
<!-- Node0&#45;&gt;Node31 -->
<g id="edge64" class="edge">
<title>Node0&#45;&gt;Node31</title>
<path fill="none" stroke="#191970" d="M1079,-515.2455C1079,-507.9382 1079,-497.6944 1079,-488.7046"/>
<polygon fill="#191970" stroke="#191970" points="1082.5001,-488.6426 1079,-478.6427 1075.5001,-488.6427 1082.5001,-488.6426"/>
</g>
<!-- Node36 -->
<g id="node37" class="node">
<title>Node36</title>
<polygon fill="none" stroke="#bfbfbf" points="1573.5,-459.5 1573.5,-478.5 1642.5,-478.5 1642.5,-459.5 1573.5,-459.5"/>
<text text-anchor="middle" x="1608" y="-466.5" font-family="FreeSans.ttf" font-size="10.00" fill="#000000">Eigen/Core</text>
</g>
<!-- Node0&#45;&gt;Node36 -->
<g id="edge86" class="edge">
<title>Node0&#45;&gt;Node36</title>
<path fill="none" stroke="#191970" d="M1148.8356,-520.633C1242.5183,-514.2446 1413.9024,-500.6963 1559,-479 1560.449,-478.7833 1561.9199,-478.5518 1563.4035,-478.3082"/>
<polygon fill="#191970" stroke="#191970" points="1564.0461,-481.749 1573.282,-476.5578 1562.8247,-474.8564 1564.0461,-481.749"/>
</g>
<!-- Node2 -->
<g id="node3" class="node">
<title>Node2</title>
<polygon fill="none" stroke="#bfbfbf" points="317,-56.5 317,-75.5 361,-75.5 361,-56.5 317,-56.5"/>
<text text-anchor="middle" x="339" y="-63.5" font-family="FreeSans.ttf" font-size="10.00" fill="#000000">string</text>
</g>
<!-- Node1&#45;&gt;Node2 -->
<g id="edge2" class="edge">
<title>Node1&#45;&gt;Node2</title>
<path fill="none" stroke="#191970" d="M376.4564,-463.6607C242.4474,-452.9889 0,-423.0363 0,-346 0,-346 0,-346 0,-178 0,-113.804 221.9475,-80.1677 306.668,-69.6667"/>
<polygon fill="#191970" stroke="#191970" points="307.2502,-73.1218 316.7573,-68.4457 306.4092,-66.1725 307.2502,-73.1218"/>
</g>
<!-- Node3 -->
<g id="node4" class="node">
<title>Node3</title>
<polygon fill="none" stroke="#bfbfbf" points="477.5,-336.5 477.5,-355.5 524.5,-355.5 524.5,-336.5 477.5,-336.5"/>
<text text-anchor="middle" x="501" y="-343.5" font-family="FreeSans.ttf" font-size="10.00" fill="#000000">vector</text>
</g>
<!-- Node1&#45;&gt;Node3 -->
<g id="edge3" class="edge">
<title>Node1&#45;&gt;Node3</title>
<path fill="none" stroke="#191970" d="M473.759,-459.2342C482.38,-450.6476 493.8554,-437.3152 499,-423 505.6236,-404.5695 505.3232,-382.0261 503.8533,-366.1075"/>
<polygon fill="#191970" stroke="#191970" points="507.2911,-365.3691 502.6586,-355.8407 500.338,-366.1783 507.2911,-365.3691"/>
</g>
<!-- Node4 -->
<g id="node5" class="node">
<title>Node4</title>
<g id="a_node5"><a xlink:href="MatrixDynSize_8h.html" target="_top" xlink:title="iDynTree/Core/MatrixDynSize.h">
<polygon fill="none" stroke="#000000" points="27.5,-336.5 27.5,-355.5 194.5,-355.5 194.5,-336.5 27.5,-336.5"/>
<text text-anchor="middle" x="111" y="-343.5" font-family="FreeSans.ttf" font-size="10.00" fill="#000000">iDynTree/Core/MatrixDynSize.h</text>
</a>
</g>
</g>
<!-- Node1&#45;&gt;Node4 -->
<g id="edge4" class="edge">
<title>Node1&#45;&gt;Node4</title>
<path fill="none" stroke="#191970" d="M410.6674,-459.4828C371.7942,-451.6752 317.8015,-439.2646 272,-423 222.5197,-405.429 167.9955,-377.378 136.789,-360.4224"/>
<polygon fill="#191970" stroke="#191970" points="138.3355,-357.2788 127.8842,-355.5405 134.9703,-363.4169 138.3355,-357.2788"/>
</g>
<!-- Node5 -->
<g id="node6" class="node">
<title>Node5</title>
<g id="a_node6"><a xlink:href="Position_8h.html" target="_top" xlink:title="iDynTree/Core/Position.h">
<polygon fill="none" stroke="#000000" points="487,-280.5 487,-299.5 623,-299.5 623,-280.5 487,-280.5"/>
<text text-anchor="middle" x="555" y="-287.5" font-family="FreeSans.ttf" font-size="10.00" fill="#000000">iDynTree/Core/Position.h</text>
</a>
</g>
</g>
<!-- Node1&#45;&gt;Node5 -->
<g id="edge6" class="edge">
<title>Node1&#45;&gt;Node5</title>
<path fill="none" stroke="#191970" d="M477.8212,-459.369C489.5062,-451.0516 505.3835,-438.0247 515,-423 537.9745,-387.1049 548.2922,-337.3757 552.4785,-310.0263"/>
<polygon fill="#191970" stroke="#191970" points="555.9925,-310.1703 553.9163,-299.7809 549.0605,-309.1974 555.9925,-310.1703"/>
</g>
<!-- Node26 -->
<g id="node27" class="node">
<title>Node26</title>
<g id="a_node27"><a xlink:href="Transform_8h.html" target="_top" xlink:title="iDynTree/Core/Transform.h">
<polygon fill="none" stroke="#000000" points="723,-336.5 723,-355.5 869,-355.5 869,-336.5 723,-336.5"/>
<text text-anchor="middle" x="796" y="-343.5" font-family="FreeSans.ttf" font-size="10.00" fill="#000000">iDynTree/Core/Transform.h</text>
</a>
</g>
</g>
<!-- Node1&#45;&gt;Node26 -->
<g id="edge41" class="edge">
<title>Node1&#45;&gt;Node26</title>
<path fill="none" stroke="#191970" d="M488.8529,-459.4507C547.8652,-437.6534 692.5912,-384.1961 760.1601,-359.2381"/>
<polygon fill="#191970" stroke="#191970" points="761.7662,-362.3761 769.934,-355.628 759.3407,-355.8097 761.7662,-362.3761"/>
</g>
<!-- Node27 -->
<g id="node28" class="node">
<title>Node27</title>
<g id="a_node28"><a xlink:href="VectorDynSize_8h.html" target="_top" xlink:title="iDynTree/Core/VectorDynSize.h">
<polygon fill="none" stroke="#000000" points="212.5,-336.5 212.5,-355.5 379.5,-355.5 379.5,-336.5 212.5,-336.5"/>
<text text-anchor="middle" x="296" y="-343.5" font-family="FreeSans.ttf" font-size="10.00" fill="#000000">iDynTree/Core/VectorDynSize.h</text>
</a>
</g>
</g>
<!-- Node1&#45;&gt;Node27 -->
<g id="edge46" class="edge">
<title>Node1&#45;&gt;Node27</title>
<path fill="none" stroke="#191970" d="M388.9206,-459.4636C345.0346,-452.1237 295.4348,-440.2763 282,-423 269.0313,-406.3231 276.9804,-381.4997 285.2219,-364.5774"/>
<polygon fill="#191970" stroke="#191970" points="288.3638,-366.1232 289.9523,-355.6481 282.1782,-362.8463 288.3638,-366.1232"/>
</g>
<!-- Node28 -->
<g id="node29" class="node">
<title>Node28</title>
<g id="a_node29"><a xlink:href="ConvexHullHelpers_8h.html" target="_top" xlink:title="iDynTree/ConvexHullHelpers.h">
<polygon fill="none" stroke="#000000" points="324.5,-398 324.5,-417 489.5,-417 489.5,-398 324.5,-398"/>
<text text-anchor="middle" x="407" y="-405" font-family="FreeSans.ttf" font-size="10.00" fill="#000000">iDynTree/ConvexHullHelpers.h</text>
</a>
</g>
</g>
<!-- Node1&#45;&gt;Node28 -->
<g id="edge49" class="edge">
<title>Node1&#45;&gt;Node28</title>
<path fill="none" stroke="#191970" d="M454.25,-459.3906C445.8338,-450.1478 432.9203,-435.966 422.719,-424.7628"/>
<polygon fill="#191970" stroke="#191970" points="425.194,-422.2824 415.8734,-417.2449 420.0182,-426.9953 425.194,-422.2824"/>
</g>
<!-- Node4&#45;&gt;Node2 -->
<g id="edge5" class="edge">
<title>Node4&#45;&gt;Node2</title>
<path fill="none" stroke="#191970" d="M111,-336.4116C111,-317.0538 111,-271.9167 111,-234 111,-234 111,-234 111,-178 111,-143.2309 124.7681,-132.2941 153,-112 177.4318,-94.4375 260.2189,-78.7251 306.6842,-71.0185"/>
<polygon fill="#191970" stroke="#191970" points="307.5286,-74.4272 316.8365,-69.3662 306.4041,-67.5181 307.5286,-74.4272"/>
</g>
<!-- Node5&#45;&gt;Node2 -->
<g id="edge40" class="edge">
<title>Node5&#45;&gt;Node2</title>
<path fill="none" stroke="#191970" d="M513.3345,-280.4015C467.5222,-267.541 395.4556,-240.0498 358,-188 336.0777,-157.5358 335.2548,-111.6741 336.9246,-85.7275"/>
<polygon fill="#191970" stroke="#191970" points="340.4232,-85.8884 337.7693,-75.6313 333.4476,-85.3047 340.4232,-85.8884"/>
</g>
<!-- Node6 -->
<g id="node7" class="node">
<title>Node6</title>
<g id="a_node7"><a xlink:href="PositionRaw_8h.html" target="_top" xlink:title="iDynTree/Core/PositionRaw.h">
<polygon fill="none" stroke="#000000" points="367,-168.5 367,-187.5 523,-187.5 523,-168.5 367,-168.5"/>
<text text-anchor="middle" x="445" y="-175.5" font-family="FreeSans.ttf" font-size="10.00" fill="#000000">iDynTree/Core/PositionRaw.h</text>
</a>
</g>
</g>
<!-- Node5&#45;&gt;Node6 -->
<g id="edge7" class="edge">
<title>Node5&#45;&gt;Node6</title>
<path fill="none" stroke="#191970" d="M545.6215,-280.4509C526.9501,-261.4401 484.9166,-218.6423 461.5158,-194.816"/>
<polygon fill="#191970" stroke="#191970" points="463.859,-192.2069 454.3548,-187.5249 458.8648,-197.1119 463.859,-192.2069"/>
</g>
<!-- Node21 -->
<g id="node22" class="node">
<title>Node21</title>
<g id="a_node22"><a xlink:href="Rotation_8h.html" target="_top" xlink:title="iDynTree/Core/Rotation.h">
<polygon fill="none" stroke="#000000" points="777.5,-224.5 777.5,-243.5 914.5,-243.5 914.5,-224.5 777.5,-224.5"/>
<text text-anchor="middle" x="846" y="-231.5" font-family="FreeSans.ttf" font-size="10.00" fill="#000000">iDynTree/Core/Rotation.h</text>
</a>
</g>
</g>
<!-- Node5&#45;&gt;Node21 -->
<g id="edge26" class="edge">
<title>Node5&#45;&gt;Node21</title>
<path fill="none" stroke="#191970" d="M604.694,-280.4369C655.0196,-270.7522 732.8723,-255.7703 786.4651,-245.4569"/>
<polygon fill="#191970" stroke="#191970" points="787.3525,-248.8504 796.5109,-243.5237 786.0297,-241.9765 787.3525,-248.8504"/>
</g>
<!-- Node6&#45;&gt;Node2 -->
<g id="edge25" class="edge">
<title>Node6&#45;&gt;Node2</title>
<path fill="none" stroke="#191970" d="M435.9625,-168.4509C417.9701,-149.4401 377.4651,-106.6423 354.9152,-82.816"/>
<polygon fill="#191970" stroke="#191970" points="357.4305,-80.382 348.0146,-75.5249 352.3465,-85.1937 357.4305,-80.382"/>
</g>
<!-- Node7 -->
<g id="node8" class="node">
<title>Node7</title>
<g id="a_node8"><a xlink:href="VectorFixSize_8h.html" target="_top" xlink:title="iDynTree/Core/VectorFixSize.h">
<polygon fill="none" stroke="#000000" points="1029.5,-112.5 1029.5,-131.5 1190.5,-131.5 1190.5,-112.5 1029.5,-112.5"/>
<text text-anchor="middle" x="1110" y="-119.5" font-family="FreeSans.ttf" font-size="10.00" fill="#000000">iDynTree/Core/VectorFixSize.h</text>
</a>
</g>
</g>
<!-- Node6&#45;&gt;Node7 -->
<g id="edge8" class="edge">
<title>Node6&#45;&gt;Node7</title>
<path fill="none" stroke="#191970" d="M523.2394,-171.4114C647.2151,-160.9714 888.17,-140.6804 1019.4385,-129.6262"/>
<polygon fill="#191970" stroke="#191970" points="1019.7996,-133.1083 1029.4706,-128.7814 1019.2121,-126.133 1019.7996,-133.1083"/>
</g>
<!-- Node7&#45;&gt;Node2 -->
<g id="edge21" class="edge">
<title>Node7&#45;&gt;Node2</title>
<path fill="none" stroke="#191970" d="M1029.3094,-116.1392C862.0914,-103.9937 483.9373,-76.5272 371.2654,-68.3435"/>
<polygon fill="#191970" stroke="#191970" points="371.4337,-64.8466 361.2064,-67.6129 370.9266,-71.8282 371.4337,-64.8466"/>
</g>
<!-- Node8 -->
<g id="node9" class="node">
<title>Node8</title>
<g id="a_node9"><a xlink:href="Utils_8h.html" target="_top" xlink:title="iDynTree/Core/Utils.h">
<polygon fill="none" stroke="#000000" points="1037.5,-56.5 1037.5,-75.5 1156.5,-75.5 1156.5,-56.5 1037.5,-56.5"/>
<text text-anchor="middle" x="1097" y="-63.5" font-family="FreeSans.ttf" font-size="10.00" fill="#000000">iDynTree/Core/Utils.h</text>
</a>
</g>
</g>
<!-- Node7&#45;&gt;Node8 -->
<g id="edge9" class="edge">
<title>Node7&#45;&gt;Node8</title>
<path fill="none" stroke="#191970" d="M1107.7356,-112.2455C1106.0206,-104.8579 1103.6088,-94.4689 1101.5056,-85.4087"/>
<polygon fill="#191970" stroke="#191970" points="1104.9092,-84.5922 1099.2385,-75.6427 1098.0905,-86.1751 1104.9092,-84.5922"/>
</g>
<!-- Node10 -->
<g id="node11" class="node">
<title>Node10</title>
<g id="a_node11"><a xlink:href="Span_8h.html" target="_top" xlink:title="iDynTree/Core/Span.h">
<polygon fill="none" stroke="#000000" points="898.5,-56.5 898.5,-75.5 1019.5,-75.5 1019.5,-56.5 898.5,-56.5"/>
<text text-anchor="middle" x="959" y="-63.5" font-family="FreeSans.ttf" font-size="10.00" fill="#000000">iDynTree/Core/Span.h</text>
</a>
</g>
</g>
<!-- Node7&#45;&gt;Node10 -->
<g id="edge11" class="edge">
<title>Node7&#45;&gt;Node10</title>
<path fill="none" stroke="#191970" d="M1084.0422,-112.3733C1059.2593,-103.1822 1021.7254,-89.2624 994.246,-79.0713"/>
<polygon fill="#191970" stroke="#191970" points="995.2121,-75.6968 984.6191,-75.5011 992.7781,-82.26 995.2121,-75.6968"/>
</g>
<!-- Node11 -->
<g id="node12" class="node">
<title>Node11</title>
<polygon fill="none" stroke="#bfbfbf" points="1159,-.5 1159,-19.5 1211,-19.5 1211,-.5 1159,-.5"/>
<text text-anchor="middle" x="1185" y="-7.5" font-family="FreeSans.ttf" font-size="10.00" fill="#000000">cassert</text>
</g>
<!-- Node7&#45;&gt;Node11 -->
<g id="edge23" class="edge">
<title>Node7&#45;&gt;Node11</title>
<path fill="none" stroke="#191970" d="M1126.2845,-112.4879C1138.8815,-104.3267 1155.8378,-91.4531 1166,-76 1175.2018,-62.0073 1180.0258,-43.5019 1182.5058,-29.6475"/>
<polygon fill="#191970" stroke="#191970" points="1185.9736,-30.124 1184.0311,-19.7088 1179.0546,-29.0621 1185.9736,-30.124"/>
</g>
<!-- Node19 -->
<g id="node20" class="node">
<title>Node19</title>
<polygon fill="none" stroke="#bfbfbf" points="1319,-56.5 1319,-75.5 1375,-75.5 1375,-56.5 1319,-56.5"/>
<text text-anchor="middle" x="1347" y="-63.5" font-family="FreeSans.ttf" font-size="10.00" fill="#000000">sstream</text>
</g>
<!-- Node7&#45;&gt;Node19 -->
<g id="edge22" class="edge">
<title>Node7&#45;&gt;Node19</title>
<path fill="none" stroke="#191970" d="M1150.4725,-112.4369C1194.9018,-101.9388 1265.6743,-85.2162 1309.0678,-74.9629"/>
<polygon fill="#191970" stroke="#191970" points="1310.0215,-78.334 1318.9486,-72.6282 1308.4117,-71.5216 1310.0215,-78.334"/>
</g>
<!-- Node20 -->
<g id="node21" class="node">
<title>Node20</title>
<polygon fill="none" stroke="#bfbfbf" points="1213,-56.5 1213,-75.5 1263,-75.5 1263,-56.5 1213,-56.5"/>
<text text-anchor="middle" x="1238" y="-63.5" font-family="FreeSans.ttf" font-size="10.00" fill="#000000">cstring</text>
</g>
<!-- Node7&#45;&gt;Node20 -->
<g id="edge24" class="edge">
<title>Node7&#45;&gt;Node20</title>
<path fill="none" stroke="#191970" d="M1132.004,-112.3733C1152.6435,-103.3435 1183.7158,-89.7494 1206.8889,-79.6111"/>
<polygon fill="#191970" stroke="#191970" points="1208.5245,-82.7159 1216.2831,-75.5011 1205.7187,-76.3028 1208.5245,-82.7159"/>
</g>
<!-- Node9 -->
<g id="node10" class="node">
<title>Node9</title>
<polygon fill="none" stroke="#bfbfbf" points="1085.5,-.5 1085.5,-19.5 1138.5,-19.5 1138.5,-.5 1085.5,-.5"/>
<text text-anchor="middle" x="1112" y="-7.5" font-family="FreeSans.ttf" font-size="10.00" fill="#000000">cstddef</text>
</g>
<!-- Node8&#45;&gt;Node9 -->
<g id="edge10" class="edge">
<title>Node8&#45;&gt;Node9</title>
<path fill="none" stroke="#191970" d="M1099.6128,-56.2455C1101.5916,-48.8579 1104.3744,-38.4689 1106.8012,-29.4087"/>
<polygon fill="#191970" stroke="#191970" points="1110.2105,-30.2078 1109.4171,-19.6427 1103.4489,-28.3966 1110.2105,-30.2078"/>
</g>
<!-- Node10&#45;&gt;Node9 -->
<g id="edge15" class="edge">
<title>Node10&#45;&gt;Node9</title>
<path fill="none" stroke="#191970" d="M985.3016,-56.3733C1010.4128,-47.1822 1048.4438,-33.2624 1076.2872,-23.0713"/>
<polygon fill="#191970" stroke="#191970" points="1077.8538,-26.2251 1086.0416,-19.5011 1075.4478,-19.6516 1077.8538,-26.2251"/>
</g>
<!-- Node10&#45;&gt;Node11 -->
<g id="edge12" class="edge">
<title>Node10&#45;&gt;Node11</title>
<path fill="none" stroke="#191970" d="M999.6288,-56.4245C1037.9528,-47.3181 1096.9737,-33.1028 1148,-20 1148.3263,-19.9162 1148.6541,-19.8318 1148.9833,-19.7469"/>
<polygon fill="#191970" stroke="#191970" points="1149.9619,-23.1087 1158.7451,-17.1836 1148.184,-16.3382 1149.9619,-23.1087"/>
</g>
<!-- Node10&#45;&gt;Node12 -->
<g id="edge13" class="edge">
<title>Node10&#45;&gt;Node12</title>
<path fill="none" stroke="#191970" d="M1019.6954,-57.2481C1022.8414,-56.8199 1025.9573,-56.4014 1029,-56 1151.5119,-39.8358 1296.543,-22.8833 1366.7369,-14.8165"/>
<polygon fill="#191970" stroke="#191970" points="1367.4063,-18.2627 1376.9422,-13.6457 1366.6085,-11.3084 1367.4063,-18.2627"/>
</g>
<!-- Node13 -->
<g id="node14" class="node">
<title>Node13</title>
<polygon fill="none" stroke="#bfbfbf" points="808,-.5 808,-19.5 850,-19.5 850,-.5 808,-.5"/>
<text text-anchor="middle" x="829" y="-7.5" font-family="FreeSans.ttf" font-size="10.00" fill="#000000">array</text>
</g>
<!-- Node10&#45;&gt;Node13 -->
<g id="edge14" class="edge">
<title>Node10&#45;&gt;Node13</title>
<path fill="none" stroke="#191970" d="M936.6522,-56.3733C915.3414,-47.1932 883.0793,-33.2957 859.4291,-23.1079"/>
<polygon fill="#191970" stroke="#191970" points="860.7642,-19.8722 850.1953,-19.1303 857.9948,-26.301 860.7642,-19.8722"/>
</g>
<!-- Node14 -->
<g id="node15" class="node">
<title>Node14</title>
<polygon fill="none" stroke="#bfbfbf" points="868.5,-.5 868.5,-19.5 921.5,-19.5 921.5,-.5 868.5,-.5"/>
<text text-anchor="middle" x="895" y="-7.5" font-family="FreeSans.ttf" font-size="10.00" fill="#000000">iterator</text>
</g>
<!-- Node10&#45;&gt;Node14 -->
<g id="edge16" class="edge">
<title>Node10&#45;&gt;Node14</title>
<path fill="none" stroke="#191970" d="M947.8521,-56.2455C938.4913,-48.0549 924.9142,-36.1749 913.8651,-26.5069"/>
<polygon fill="#191970" stroke="#191970" points="915.8508,-23.5937 906.0202,-19.6427 911.2412,-28.8618 915.8508,-23.5937"/>
</g>
<!-- Node15 -->
<g id="node16" class="node">
<title>Node15</title>
<polygon fill="none" stroke="#bfbfbf" points="940,-.5 940,-19.5 984,-19.5 984,-.5 940,-.5"/>
<text text-anchor="middle" x="962" y="-7.5" font-family="FreeSans.ttf" font-size="10.00" fill="#000000">limits</text>
</g>
<!-- Node10&#45;&gt;Node15 -->
<g id="edge17" class="edge">
<title>Node10&#45;&gt;Node15</title>
<path fill="none" stroke="#191970" d="M959.5226,-56.2455C959.914,-48.9382 960.4628,-38.6944 960.9444,-29.7046"/>
<polygon fill="#191970" stroke="#191970" points="964.4434,-29.8156 961.4834,-19.6427 957.4534,-29.4411 964.4434,-29.8156"/>
</g>
<!-- Node16 -->
<g id="node17" class="node">
<title>Node16</title>
<polygon fill="none" stroke="#bfbfbf" points="1002.5,-.5 1002.5,-19.5 1067.5,-19.5 1067.5,-.5 1002.5,-.5"/>
<text text-anchor="middle" x="1035" y="-7.5" font-family="FreeSans.ttf" font-size="10.00" fill="#000000">stdexcept</text>
</g>
<!-- Node10&#45;&gt;Node16 -->
<g id="edge18" class="edge">
<title>Node10&#45;&gt;Node16</title>
<path fill="none" stroke="#191970" d="M972.2382,-56.2455C983.681,-47.814 1000.4296,-35.4729 1013.7475,-25.6598"/>
<polygon fill="#191970" stroke="#191970" points="1015.9391,-28.3924 1021.9135,-19.6427 1011.7867,-22.757 1015.9391,-28.3924"/>
</g>
<!-- Node17 -->
<g id="node18" class="node">
<title>Node17</title>
<polygon fill="none" stroke="#bfbfbf" points="657.5,-.5 657.5,-19.5 726.5,-19.5 726.5,-.5 657.5,-.5"/>
<text text-anchor="middle" x="692" y="-7.5" font-family="FreeSans.ttf" font-size="10.00" fill="#000000">type_traits</text>
</g>
<!-- Node10&#45;&gt;Node17 -->
<g id="edge19" class="edge">
<title>Node10&#45;&gt;Node17</title>
<path fill="none" stroke="#191970" d="M911.5247,-56.4939C868.4571,-47.8057 802.9579,-34.4319 736.3981,-20.0543"/>
<polygon fill="#191970" stroke="#191970" points="737.0869,-16.6225 726.5726,-17.9262 735.6051,-23.4638 737.0869,-16.6225"/>
</g>
<!-- Node18 -->
<g id="node19" class="node">
<title>Node18</title>
<polygon fill="none" stroke="#bfbfbf" points="744.5,-.5 744.5,-19.5 789.5,-19.5 789.5,-.5 744.5,-.5"/>
<text text-anchor="middle" x="767" y="-7.5" font-family="FreeSans.ttf" font-size="10.00" fill="#000000">utility</text>
</g>
<!-- Node10&#45;&gt;Node18 -->
<g id="edge20" class="edge">
<title>Node10&#45;&gt;Node18</title>
<path fill="none" stroke="#191970" d="M924.9125,-56.4444C894.5021,-47.8655 848.5254,-34.763 799.5395,-20.1154"/>
<polygon fill="#191970" stroke="#191970" points="800.2899,-16.6865 789.7059,-17.1661 798.2789,-23.3914 800.2899,-16.6865"/>
</g>
<!-- Node21&#45;&gt;Node2 -->
<g id="edge27" class="edge">
<title>Node21&#45;&gt;Node2</title>
<path fill="none" stroke="#191970" d="M777.2866,-228.6179C720.7468,-222.7515 639.122,-210.9483 571,-188 568.2944,-187.0886 427.1529,-112.5769 366.3673,-80.4628"/>
<polygon fill="#191970" stroke="#191970" points="367.8118,-77.2676 357.335,-75.6905 364.5416,-83.4568 367.8118,-77.2676"/>
</g>
<!-- Node21&#45;&gt;Node7 -->
<g id="edge39" class="edge">
<title>Node21&#45;&gt;Node7</title>
<path fill="none" stroke="#191970" d="M832.7916,-224.3882C815.8618,-210.9268 790.4486,-186.0815 806,-168 819.9014,-151.8369 934.8404,-137.9329 1019.2991,-129.7629"/>
<polygon fill="#191970" stroke="#191970" points="1019.8168,-133.2295 1029.439,-128.7952 1019.1517,-126.2611 1019.8168,-133.2295"/>
</g>
<!-- Node22 -->
<g id="node23" class="node">
<title>Node22</title>
<g id="a_node23"><a xlink:href="GeomVector3_8h.html" target="_top" xlink:title="iDynTree/Core/GeomVector3.h">
<polygon fill="none" stroke="#000000" points="1105.5,-168.5 1105.5,-187.5 1268.5,-187.5 1268.5,-168.5 1105.5,-168.5"/>
<text text-anchor="middle" x="1187" y="-175.5" font-family="FreeSans.ttf" font-size="10.00" fill="#000000">iDynTree/Core/GeomVector3.h</text>
</a>
</g>
</g>
<!-- Node21&#45;&gt;Node22 -->
<g id="edge28" class="edge">
<title>Node21&#45;&gt;Node22</title>
<path fill="none" stroke="#191970" d="M904.2325,-224.4369C963.6955,-214.6717 1055.9541,-199.5207 1118.7965,-189.2006"/>
<polygon fill="#191970" stroke="#191970" points="1119.707,-192.598 1129.0076,-187.5237 1118.5726,-185.6905 1119.707,-192.598"/>
</g>
<!-- Node23 -->
<g id="node24" class="node">
<title>Node23</title>
<g id="a_node24"><a xlink:href="RotationRaw_8h.html" target="_top" xlink:title="iDynTree/Core/RotationRaw.h">
<polygon fill="none" stroke="#000000" points="815,-168.5 815,-187.5 973,-187.5 973,-168.5 815,-168.5"/>
<text text-anchor="middle" x="894" y="-175.5" font-family="FreeSans.ttf" font-size="10.00" fill="#000000">iDynTree/Core/RotationRaw.h</text>
</a>
</g>
</g>
<!-- Node21&#45;&gt;Node23 -->
<g id="edge30" class="edge">
<title>Node21&#45;&gt;Node23</title>
<path fill="none" stroke="#191970" d="M854.361,-224.2455C861.175,-216.2958 870.9681,-204.8706 879.1152,-195.3656"/>
<polygon fill="#191970" stroke="#191970" points="881.8843,-197.513 885.7349,-187.6427 876.5695,-192.9575 881.8843,-197.513"/>
</g>
<!-- Node22&#45;&gt;Node7 -->
<g id="edge29" class="edge">
<title>Node22&#45;&gt;Node7</title>
<path fill="none" stroke="#191970" d="M1173.5876,-168.2455C1161.9943,-159.814 1145.0252,-147.4729 1131.5322,-137.6598"/>
<polygon fill="#191970" stroke="#191970" points="1133.4047,-134.6938 1123.2587,-131.6427 1129.2874,-140.355 1133.4047,-134.6938"/>
</g>
<!-- Node23&#45;&gt;Node2 -->
<g id="edge38" class="edge">
<title>Node23&#45;&gt;Node2</title>
<path fill="none" stroke="#191970" d="M846.681,-168.4509C736.3779,-146.1916 464.478,-91.3217 371.0969,-72.4772"/>
<polygon fill="#191970" stroke="#191970" points="371.61,-69.0103 361.1153,-70.4629 370.2253,-75.872 371.61,-69.0103"/>
</g>
<!-- Node24 -->
<g id="node25" class="node">
<title>Node24</title>
<g id="a_node25"><a xlink:href="MatrixFixSize_8h.html" target="_top" xlink:title="iDynTree/Core/MatrixFixSize.h">
<polygon fill="none" stroke="#000000" points="1253.5,-112.5 1253.5,-131.5 1414.5,-131.5 1414.5,-112.5 1253.5,-112.5"/>
<text text-anchor="middle" x="1334" y="-119.5" font-family="FreeSans.ttf" font-size="10.00" fill="#000000">iDynTree/Core/MatrixFixSize.h</text>
</a>
</g>
</g>
<!-- Node23&#45;&gt;Node24 -->
<g id="edge31" class="edge">
<title>Node23&#45;&gt;Node24</title>
<path fill="none" stroke="#191970" d="M969.1388,-168.4369C1046.8143,-158.5509 1167.8604,-143.145 1248.9874,-132.8198"/>
<polygon fill="#191970" stroke="#191970" points="1249.6931,-136.2583 1259.1712,-131.5237 1248.8093,-129.3143 1249.6931,-136.2583"/>
</g>
<!-- Node24&#45;&gt;Node2 -->
<g id="edge35" class="edge">
<title>Node24&#45;&gt;Node2</title>
<path fill="none" stroke="#191970" d="M1253.2395,-115.696C1235.6925,-114.4038 1217.2279,-113.1029 1200,-112 876.9166,-91.3164 485.2157,-72.7495 371.4263,-67.4852"/>
<polygon fill="#191970" stroke="#191970" points="371.4443,-63.9824 361.2936,-67.0176 371.1216,-70.9749 371.4443,-63.9824"/>
</g>
<!-- Node24&#45;&gt;Node8 -->
<g id="edge32" class="edge">
<title>Node24&#45;&gt;Node8</title>
<path fill="none" stroke="#191970" d="M1293.5275,-112.4369C1253.052,-102.8731 1190.7133,-88.1432 1147.1297,-77.845"/>
<polygon fill="#191970" stroke="#191970" points="1147.8424,-74.4171 1137.3055,-75.5237 1146.2327,-81.2295 1147.8424,-74.4171"/>
</g>
<!-- Node24&#45;&gt;Node11 -->
<g id="edge33" class="edge">
<title>Node24&#45;&gt;Node11</title>
<path fill="none" stroke="#191970" d="M1326.4374,-112.0783C1315.5342,-98.2487 1294.2518,-72.9688 1272,-56 1255.3053,-43.2689 1234.5921,-32.1611 1217.565,-24.0515"/>
<polygon fill="#191970" stroke="#191970" points="1218.5689,-20.6594 1208.0238,-19.6335 1215.6276,-27.0115 1218.5689,-20.6594"/>
</g>
<!-- Node24&#45;&gt;Node19 -->
<g id="edge37" class="edge">
<title>Node24&#45;&gt;Node19</title>
<path fill="none" stroke="#191970" d="M1336.2644,-112.2455C1337.9794,-104.8579 1340.3912,-94.4689 1342.4944,-85.4087"/>
<polygon fill="#191970" stroke="#191970" points="1345.9095,-86.1751 1344.7615,-75.6427 1339.0908,-84.5922 1345.9095,-86.1751"/>
</g>
<!-- Node24&#45;&gt;Node20 -->
<g id="edge34" class="edge">
<title>Node24&#45;&gt;Node20</title>
<path fill="none" stroke="#191970" d="M1317.2781,-112.2455C1302.4111,-103.5731 1280.4534,-90.7645 1263.4142,-80.825"/>
<polygon fill="#191970" stroke="#191970" points="1264.9317,-77.6582 1254.5303,-75.6427 1261.4045,-83.7047 1264.9317,-77.6582"/>
</g>
<!-- Node25 -->
<g id="node26" class="node">
<title>Node25</title>
<polygon fill="none" stroke="#bfbfbf" points="1431,-56.5 1431,-75.5 1491,-75.5 1491,-56.5 1431,-56.5"/>
<text text-anchor="middle" x="1461" y="-63.5" font-family="FreeSans.ttf" font-size="10.00" fill="#000000">iostream</text>
</g>
<!-- Node24&#45;&gt;Node25 -->
<g id="edge36" class="edge">
<title>Node24&#45;&gt;Node25</title>
<path fill="none" stroke="#191970" d="M1355.8321,-112.3733C1376.3103,-103.3435 1407.1399,-89.7494 1430.1319,-79.6111"/>
<polygon fill="#191970" stroke="#191970" points="1431.715,-82.7383 1439.4528,-75.5011 1428.8907,-76.3333 1431.715,-82.7383"/>
</g>
<!-- Node26&#45;&gt;Node2 -->
<g id="edge45" class="edge">
<title>Node26&#45;&gt;Node2</title>
<path fill="none" stroke="#191970" d="M724.3896,-336.4632C637.9854,-324.8275 501.3406,-305.9669 478,-300 396.6583,-279.2054 301,-317.9577 301,-234 301,-234 301,-234 301,-178 301,-143.6118 317.2634,-106.2832 328.511,-84.5791"/>
<polygon fill="#191970" stroke="#191970" points="331.7317,-85.9804 333.393,-75.5166 325.569,-82.6605 331.7317,-85.9804"/>
</g>
<!-- Node26&#45;&gt;Node5 -->
<g id="edge42" class="edge">
<title>Node26&#45;&gt;Node5</title>
<path fill="none" stroke="#191970" d="M754.8445,-336.4369C713.6858,-326.8731 650.295,-312.1432 605.9758,-301.845"/>
<polygon fill="#191970" stroke="#191970" points="606.5185,-298.3779 595.9858,-299.5237 604.9341,-305.1963 606.5185,-298.3779"/>
</g>
<!-- Node26&#45;&gt;Node21 -->
<g id="edge43" class="edge">
<title>Node26&#45;&gt;Node21</title>
<path fill="none" stroke="#191970" d="M800.263,-336.4509C808.5286,-317.936 826.8665,-276.8591 837.6434,-252.7187"/>
<polygon fill="#191970" stroke="#191970" points="840.8672,-254.0831 841.7478,-243.5249 834.4753,-251.2295 840.8672,-254.0831"/>
</g>
<!-- Node26&#45;&gt;Node24 -->
<g id="edge44" class="edge">
<title>Node26&#45;&gt;Node24</title>
<path fill="none" stroke="#191970" d="M808.672,-336.2949C848.6139,-306.2101 976.3913,-213.794 1097,-168 1143.7203,-150.2607 1198.3317,-139.0671 1243.3487,-132.1699"/>
<polygon fill="#191970" stroke="#191970" points="1244.0135,-135.6097 1253.3904,-130.6778 1242.9846,-128.6857 1244.0135,-135.6097"/>
</g>
<!-- Node27&#45;&gt;Node2 -->
<g id="edge48" class="edge">
<title>Node27&#45;&gt;Node2</title>
<path fill="none" stroke="#191970" d="M241.9583,-336.457C218.15,-329.7976 191.4546,-318.6235 173,-300 151.0301,-277.8291 149,-265.2125 149,-234 149,-234 149,-234 149,-178 149,-146.7875 150.0809,-133.1882 173,-112 192.4245,-94.0425 264.2789,-78.9363 306.8215,-71.3165"/>
<polygon fill="#191970" stroke="#191970" points="307.4544,-74.7591 316.701,-69.587 306.2473,-67.8639 307.4544,-74.7591"/>
</g>
<!-- Node27&#45;&gt;Node10 -->
<g id="edge47" class="edge">
<title>Node27&#45;&gt;Node10</title>
<path fill="none" stroke="#191970" d="M296.1549,-336.4301C297.1981,-306.3432 304.7733,-213.0026 358,-168 437.14,-101.088 746.9424,-76.8576 888.1589,-69.1652"/>
<polygon fill="#191970" stroke="#191970" points="888.6378,-72.6447 898.4377,-68.6183 888.2659,-65.6546 888.6378,-72.6447"/>
</g>
<!-- Node28&#45;&gt;Node2 -->
<g id="edge50" class="edge">
<title>Node28&#45;&gt;Node2</title>
<path fill="none" stroke="#191970" d="M407.2342,-397.7466C407.0541,-382.4956 404.4242,-352.993 388,-336 349.5986,-296.2688 308.7176,-338.4154 269,-300 250.1084,-281.7278 254.2793,-269.9317 250,-244 240.278,-185.0872 238.7134,-159.4185 275,-112 284.7027,-99.3208 298.8558,-88.6436 311.387,-80.7774"/>
<polygon fill="#191970" stroke="#191970" points="313.3426,-83.6864 320.1382,-75.558 309.7569,-77.6744 313.3426,-83.6864"/>
</g>
<!-- Node28&#45;&gt;Node3 -->
<g id="edge51" class="edge">
<title>Node28&#45;&gt;Node3</title>
<path fill="none" stroke="#191970" d="M421.6875,-397.8906C436.7256,-388.0519 460.3176,-372.6167 477.8667,-361.1351"/>
<polygon fill="#191970" stroke="#191970" points="479.9637,-363.9457 486.4156,-355.5419 476.1313,-358.088 479.9637,-363.9457"/>
</g>
<!-- Node28&#45;&gt;Node4 -->
<g id="edge52" class="edge">
<title>Node28&#45;&gt;Node4</title>
<path fill="none" stroke="#191970" d="M361.0748,-397.9581C308.7933,-387.0956 223.3778,-369.3488 167.1731,-357.6711"/>
<polygon fill="#191970" stroke="#191970" points="167.5359,-354.1718 157.033,-355.5643 166.1119,-361.0254 167.5359,-354.1718"/>
</g>
<!-- Node28&#45;&gt;Node5 -->
<g id="edge53" class="edge">
<title>Node28&#45;&gt;Node5</title>
<path fill="none" stroke="#191970" d="M413.689,-397.708C424.1538,-382.9252 445.6323,-354.6582 469,-336 485.1489,-323.1057 505.4466,-312.0508 522.2669,-304.0122"/>
<polygon fill="#191970" stroke="#191970" points="524.1088,-307.0163 531.7109,-299.6366 521.166,-300.6649 524.1088,-307.0163"/>
</g>
<!-- Node28&#45;&gt;Node26 -->
<g id="edge54" class="edge">
<title>Node28&#45;&gt;Node26</title>
<path fill="none" stroke="#191970" d="M467.3544,-397.9581C537.1619,-386.9217 651.9189,-368.7789 725.6949,-357.1151"/>
<polygon fill="#191970" stroke="#191970" points="726.4933,-360.5324 735.824,-355.5137 725.4001,-353.6183 726.4933,-360.5324"/>
</g>
<!-- Node28&#45;&gt;Node27 -->
<g id="edge55" class="edge">
<title>Node28&#45;&gt;Node27</title>
<path fill="none" stroke="#191970" d="M389.6563,-397.8906C371.5727,-387.8713 343.0141,-372.0483 322.1835,-360.5071"/>
<polygon fill="#191970" stroke="#191970" points="323.6654,-357.3268 313.222,-355.5419 320.2729,-363.4498 323.6654,-357.3268"/>
</g>
<!-- Node29&#45;&gt;Node2 -->
<g id="edge57" class="edge">
<title>Node29&#45;&gt;Node2</title>
<path fill="none" stroke="#191970" d="M586.7213,-340.4487C487.3048,-330.8537 296.7943,-311.1294 287,-300 231.7994,-237.275 252.6798,-188.1817 287,-112 292.5697,-99.6369 303.2863,-89.2563 313.5506,-81.5033"/>
<polygon fill="#191970" stroke="#191970" points="315.7618,-84.2277 321.9433,-75.623 311.7451,-78.4948 315.7618,-84.2277"/>
</g>
<!-- Node29&#45;&gt;Node5 -->
<g id="edge62" class="edge">
<title>Node29&#45;&gt;Node5</title>
<path fill="none" stroke="#191970" d="M630.149,-336.2455C616.1868,-327.6534 595.6272,-315.0014 579.5404,-305.1018"/>
<polygon fill="#191970" stroke="#191970" points="581.0203,-301.9029 570.6693,-299.6427 577.3516,-307.8645 581.0203,-301.9029"/>
</g>
<!-- Node29&#45;&gt;Node8 -->
<g id="edge63" class="edge">
<title>Node29&#45;&gt;Node8</title>
<path fill="none" stroke="#191970" d="M664.8918,-336.4787C694.627,-319.9949 749,-283.1354 749,-234 749,-234 749,-234 749,-178 749,-147.5419 944.6619,-99.789 1042.5589,-77.8027"/>
<polygon fill="#191970" stroke="#191970" points="1043.575,-81.1621 1052.5721,-75.5671 1042.0497,-74.3303 1043.575,-81.1621"/>
</g>
<!-- Node30 -->
<g id="node31" class="node">
<title>Node30</title>
<g id="a_node31"><a xlink:href="Direction_8h.html" target="_top" xlink:title="iDynTree/Core/Direction.h">
<polygon fill="none" stroke="#000000" points="579.5,-168.5 579.5,-187.5 720.5,-187.5 720.5,-168.5 579.5,-168.5"/>
<text text-anchor="middle" x="650" y="-175.5" font-family="FreeSans.ttf" font-size="10.00" fill="#000000">iDynTree/Core/Direction.h</text>
</a>
</g>
</g>
<!-- Node29&#45;&gt;Node30 -->
<g id="edge58" class="edge">
<title>Node29&#45;&gt;Node30</title>
<path fill="none" stroke="#191970" d="M646.2265,-336.4862C646.8588,-309.9293 648.6532,-234.5651 649.5199,-198.1655"/>
<polygon fill="#191970" stroke="#191970" points="653.0269,-197.9084 649.766,-187.8279 646.0289,-197.7417 653.0269,-197.9084"/>
</g>
<!-- Node30&#45;&gt;Node2 -->
<g id="edge59" class="edge">
<title>Node30&#45;&gt;Node2</title>
<path fill="none" stroke="#191970" d="M625.7294,-168.4083C602.427,-159.1717 566.2551,-144.7618 535,-132 513.6037,-123.2637 508.7252,-119.8828 487,-112 447.5181,-97.6743 401.1588,-83.7163 370.9882,-75.0037"/>
<polygon fill="#191970" stroke="#191970" points="371.6068,-71.5401 361.0295,-72.1487 369.6777,-78.2691 371.6068,-71.5401"/>
</g>
<!-- Node30&#45;&gt;Node7 -->
<g id="edge60" class="edge">
<title>Node30&#45;&gt;Node7</title>
<path fill="none" stroke="#191970" d="M720.6157,-169.4033C801.4086,-159.5676 933.8216,-143.4478 1021.4511,-132.7799"/>
<polygon fill="#191970" stroke="#191970" points="1022.1396,-136.222 1031.6433,-131.5391 1021.2936,-129.2733 1022.1396,-136.222"/>
</g>
<!-- Node30&#45;&gt;Node8 -->
<g id="edge61" class="edge">
<title>Node30&#45;&gt;Node8</title>
<path fill="none" stroke="#191970" d="M658.8468,-168.3839C673.2114,-153.4659 703.2179,-125.1027 735,-112 853.7342,-63.05 896.4461,-92.0763 1027.3143,-76.1441"/>
<polygon fill="#191970" stroke="#191970" points="1027.8343,-79.6062 1037.3074,-74.8616 1026.9432,-72.6631 1027.8343,-79.6062"/>
</g>
<!-- Node31&#45;&gt;Node4 -->
<g id="edge68" class="edge">
<title>Node31&#45;&gt;Node4</title>
<path fill="none" stroke="#191970" d="M998.4175,-466.5247C811.5998,-460.4645 359.8047,-443.8445 294,-423 269.0739,-415.1043 267.6117,-403.2313 244,-392 215.2408,-378.3202 181.2874,-366.6454 154.8852,-358.4804"/>
<polygon fill="#191970" stroke="#191970" points="155.7483,-355.0847 145.1626,-355.526 153.713,-361.7823 155.7483,-355.0847"/>
</g>
<!-- Node31&#45;&gt;Node7 -->
<g id="edge67" class="edge">
<title>Node31&#45;&gt;Node7</title>
<path fill="none" stroke="#191970" d="M1159.7734,-463.5703C1226.8288,-457.5308 1315.503,-445.5051 1343,-423 1371.422,-399.7378 1373,-382.7279 1373,-346 1373,-346 1373,-346 1373,-234 1373,-197.1996 1354.0303,-187.7837 1323,-168 1300.7947,-153.8428 1239.7475,-141.4794 1188.6718,-133.1457"/>
<polygon fill="#191970" stroke="#191970" points="1189.0317,-129.6588 1178.604,-131.5334 1187.9247,-136.5708 1189.0317,-129.6588"/>
</g>
<!-- Node31&#45;&gt;Node8 -->
<g id="edge85" class="edge">
<title>Node31&#45;&gt;Node8</title>
<path fill="none" stroke="#191970" d="M1043.0343,-459.454C1024.6374,-452.5484 1003.8785,-441.1556 993,-423 985.9185,-411.1814 992.3137,-405.7607 993,-392 999.23,-267.0901 954.2398,-217.7561 1021,-112 1029.9822,-97.7711 1045.1121,-87.3154 1059.5182,-80.0012"/>
<polygon fill="#191970" stroke="#191970" points="1061.2436,-83.0578 1068.8087,-75.6402 1058.2691,-76.7211 1061.2436,-83.0578"/>
</g>
<!-- Node31&#45;&gt;Node24 -->
<g id="edge69" class="edge">
<title>Node31&#45;&gt;Node24</title>
<path fill="none" stroke="#191970" d="M1159.8157,-465.9381C1234.7758,-461.4138 1339.1143,-450.2778 1369,-423 1434.5915,-363.132 1408.0753,-310.2685 1387,-224 1379.2727,-192.3696 1359.8663,-159.6249 1346.8069,-140.0348"/>
<polygon fill="#191970" stroke="#191970" points="1349.6885,-138.0482 1341.1514,-131.7738 1343.9124,-142.0026 1349.6885,-138.0482"/>
</g>
<!-- Node31&#45;&gt;Node26 -->
<g id="edge84" class="edge">
<title>Node31&#45;&gt;Node26</title>
<path fill="none" stroke="#191970" d="M1048.6396,-459.4619C1022.0262,-450.8171 982.4721,-437.2773 949,-423 903.3397,-403.5239 852.1704,-376.7064 822.0921,-360.4035"/>
<polygon fill="#191970" stroke="#191970" points="823.5567,-357.2156 813.1013,-355.5024 820.2063,-363.3618 823.5567,-357.2156"/>
</g>
<!-- Node31&#45;&gt;Node27 -->
<g id="edge66" class="edge">
<title>Node31&#45;&gt;Node27</title>
<path fill="none" stroke="#191970" d="M998.3573,-466.6977C807.2768,-460.9002 340.9399,-444.6063 315,-423 298.5192,-409.2725 295.0604,-383.7401 294.8782,-365.8524"/>
<polygon fill="#191970" stroke="#191970" points="298.3822,-365.7177 295.1142,-355.6395 291.384,-365.556 298.3822,-365.7177"/>
</g>
<!-- Node32 -->
<g id="node33" class="node">
<title>Node32</title>
<polygon fill="none" stroke="#bfbfbf" points="1439.5,-398 1439.5,-417 1516.5,-417 1516.5,-398 1439.5,-398"/>
<text text-anchor="middle" x="1478" y="-405" font-family="FreeSans.ttf" font-size="10.00" fill="#000000">Eigen/Dense</text>
</g>
<!-- Node31&#45;&gt;Node32 -->
<g id="edge65" class="edge">
<title>Node31&#45;&gt;Node32</title>
<path fill="none" stroke="#191970" d="M1159.6436,-461.7907C1230.147,-454.6549 1335.0312,-442.0206 1425,-423 1429.3922,-422.0714 1433.951,-420.9639 1438.4684,-419.774"/>
<polygon fill="#191970" stroke="#191970" points="1439.5085,-423.1178 1448.211,-417.075 1437.6396,-416.3719 1439.5085,-423.1178"/>
</g>
<!-- Node33 -->
<g id="node34" class="node">
<title>Node33</title>
<g id="a_node34"><a xlink:href="SpatialMotionVector_8h.html" target="_top" xlink:title="iDynTree/Core/SpatialMotion\lVector.h">
<polygon fill="none" stroke="#000000" points="1001.5,-392.5 1001.5,-422.5 1156.5,-422.5 1156.5,-392.5 1001.5,-392.5"/>
<text text-anchor="start" x="1009.5" y="-410.5" font-family="FreeSans.ttf" font-size="10.00" fill="#000000">iDynTree/Core/SpatialMotion</text>
<text text-anchor="middle" x="1079" y="-399.5" font-family="FreeSans.ttf" font-size="10.00" fill="#000000">Vector.h</text>
</a>
</g>
</g>
<!-- Node31&#45;&gt;Node33 -->
<g id="edge70" class="edge">
<title>Node31&#45;&gt;Node33</title>
<path fill="none" stroke="#191970" d="M1079,-459.3906C1079,-452.2234 1079,-442.0862 1079,-432.671"/>
<polygon fill="#191970" stroke="#191970" points="1082.5001,-432.5446 1079,-422.5446 1075.5001,-432.5446 1082.5001,-432.5446"/>
</g>
<!-- Node35 -->
<g id="node36" class="node">
<title>Node35</title>
<g id="a_node36"><a xlink:href="SpatialForceVector_8h.html" target="_top" xlink:title="iDynTree/Core/SpatialForce\lVector.h">
<polygon fill="none" stroke="#000000" points="1186,-392.5 1186,-422.5 1334,-422.5 1334,-392.5 1186,-392.5"/>
<text text-anchor="start" x="1194" y="-410.5" font-family="FreeSans.ttf" font-size="10.00" fill="#000000">iDynTree/Core/SpatialForce</text>
<text text-anchor="middle" x="1260" y="-399.5" font-family="FreeSans.ttf" font-size="10.00" fill="#000000">Vector.h</text>
</a>
</g>
</g>
<!-- Node31&#45;&gt;Node35 -->
<g id="edge80" class="edge">
<title>Node31&#45;&gt;Node35</title>
<path fill="none" stroke="#191970" d="M1107.2813,-459.3906C1133.5919,-450.4508 1173.5012,-436.8905 1205.9239,-425.8739"/>
<polygon fill="#191970" stroke="#191970" points="1207.3801,-429.0757 1215.7224,-422.5446 1205.128,-422.4479 1207.3801,-429.0757"/>
</g>
<!-- Node33&#45;&gt;Node7 -->
<g id="edge71" class="edge">
<title>Node33&#45;&gt;Node7</title>
<path fill="none" stroke="#191970" d="M1079.0909,-392.237C1079.5457,-354.1122 1082.1715,-251.7597 1097,-168 1098.5692,-159.1361 1101.1425,-149.5254 1103.5873,-141.3919"/>
<polygon fill="#191970" stroke="#191970" points="1106.9621,-142.3276 1106.6319,-131.7379 1100.2862,-140.2222 1106.9621,-142.3276"/>
</g>
<!-- Node33&#45;&gt;Node22 -->
<g id="edge72" class="edge">
<title>Node33&#45;&gt;Node22</title>
<path fill="none" stroke="#191970" d="M1082.1409,-392.3678C1085.4469,-377.6547 1091.2485,-354.8328 1099,-336 1120.9032,-282.7844 1156.55,-224.7808 1175.0342,-196.122"/>
<polygon fill="#191970" stroke="#191970" points="1178.0747,-197.8666 1180.6001,-187.5772 1172.2093,-194.046 1178.0747,-197.8666"/>
</g>
<!-- Node34 -->
<g id="node35" class="node">
<title>Node34</title>
<g id="a_node35"><a xlink:href="SpatialVector_8h.html" target="_top" xlink:title="iDynTree/Core/SpatialVector.h">
<polygon fill="none" stroke="#000000" points="1107.5,-336.5 1107.5,-355.5 1268.5,-355.5 1268.5,-336.5 1107.5,-336.5"/>
<text text-anchor="middle" x="1188" y="-343.5" font-family="FreeSans.ttf" font-size="10.00" fill="#000000">iDynTree/Core/SpatialVector.h</text>
</a>
</g>
</g>
<!-- Node33&#45;&gt;Node34 -->
<g id="edge73" class="edge">
<title>Node33&#45;&gt;Node34</title>
<path fill="none" stroke="#191970" d="M1105.6644,-392.4554C1122.8941,-382.734 1145.1975,-370.15 1162.2446,-360.5317"/>
<polygon fill="#191970" stroke="#191970" points="1164.1194,-363.4926 1171.1089,-355.5303 1160.6796,-357.3961 1164.1194,-363.4926"/>
</g>
<!-- Node34&#45;&gt;Node5 -->
<g id="edge74" class="edge">
<title>Node34&#45;&gt;Node5</title>
<path fill="none" stroke="#191970" d="M1107.1872,-338.8507C984.9302,-328.0349 754.4314,-307.6432 633.535,-296.9478"/>
<polygon fill="#191970" stroke="#191970" points="633.5184,-293.4327 623.2488,-296.0378 632.9014,-300.4055 633.5184,-293.4327"/>
</g>
<!-- Node34&#45;&gt;Node8 -->
<g id="edge76" class="edge">
<title>Node34&#45;&gt;Node8</title>
<path fill="none" stroke="#191970" d="M1199.7735,-336.3321C1230.9162,-309.5393 1310.8807,-232.0839 1278,-168 1263.0574,-138.8771 1178.3252,-99.7797 1130.2714,-79.4892"/>
<polygon fill="#191970" stroke="#191970" points="1131.473,-76.1982 1120.8967,-75.5728 1128.7746,-82.6572 1131.473,-76.1982"/>
</g>
<!-- Node34&#45;&gt;Node19 -->
<g id="edge79" class="edge">
<title>Node34&#45;&gt;Node19</title>
<path fill="none" stroke="#191970" d="M1209.2366,-336.4733C1260.9455,-311.7897 1391.5269,-240.0558 1424,-132 1426.5583,-123.4872 1428.3869,-119.7309 1424,-112 1415.3446,-96.7469 1399.4017,-86.0115 1384.2587,-78.771"/>
<polygon fill="#191970" stroke="#191970" points="1385.5689,-75.5237 1375.0057,-74.7052 1382.7529,-81.9324 1385.5689,-75.5237"/>
</g>
<!-- Node34&#45;&gt;Node21 -->
<g id="edge75" class="edge">
<title>Node34&#45;&gt;Node21</title>
<path fill="none" stroke="#191970" d="M1158.8413,-336.4509C1097.2566,-316.2829 953.9256,-269.3441 884.7366,-246.6857"/>
<polygon fill="#191970" stroke="#191970" points="885.6776,-243.311 875.0849,-243.5249 883.499,-249.9634 885.6776,-243.311"/>
</g>
<!-- Node34&#45;&gt;Node22 -->
<g id="edge77" class="edge">
<title>Node34&#45;&gt;Node22</title>
<path fill="none" stroke="#191970" d="M1187.9434,-336.4862C1187.7853,-309.9293 1187.3367,-234.5651 1187.12,-198.1655"/>
<polygon fill="#191970" stroke="#191970" points="1190.6181,-197.8068 1187.0585,-187.8279 1183.6182,-197.8486 1190.6181,-197.8068"/>
</g>
<!-- Node34&#45;&gt;Node25 -->
<g id="edge78" class="edge">
<title>Node34&#45;&gt;Node25</title>
<path fill="none" stroke="#191970" d="M1246.0047,-336.442C1332.9556,-320.4488 1487,-284.9281 1487,-234 1487,-234 1487,-234 1487,-178 1487,-144.7204 1475.9729,-107.2857 1468.2813,-85.2224"/>
<polygon fill="#191970" stroke="#191970" points="1471.5329,-83.9219 1464.8364,-75.7117 1464.9513,-86.3059 1471.5329,-83.9219"/>
</g>
<!-- Node35&#45;&gt;Node7 -->
<g id="edge81" class="edge">
<title>Node35&#45;&gt;Node7</title>
<path fill="none" stroke="#191970" d="M1277.774,-392.3739C1299.9525,-371.7082 1335,-332.3512 1335,-290 1335,-290 1335,-290 1335,-234 1335,-170.8366 1263.0593,-143.2945 1200.5359,-131.2851"/>
<polygon fill="#191970" stroke="#191970" points="1201.0578,-127.8227 1190.5946,-129.4879 1199.8125,-134.7111 1201.0578,-127.8227"/>
</g>
<!-- Node35&#45;&gt;Node22 -->
<g id="edge82" class="edge">
<title>Node35&#45;&gt;Node22</title>
<path fill="none" stroke="#191970" d="M1268.3228,-392.402C1275.245,-377.9082 1283.1912,-355.4147 1278,-336 1263.0221,-279.9838 1222.8879,-223.2368 1201.2661,-195.4841"/>
<polygon fill="#191970" stroke="#191970" points="1203.9107,-193.1861 1194.9519,-187.53 1198.4281,-197.5384 1203.9107,-193.1861"/>
</g>
<!-- Node35&#45;&gt;Node34 -->
<g id="edge83" class="edge">
<title>Node35&#45;&gt;Node34</title>
<path fill="none" stroke="#191970" d="M1242.2022,-392.2977C1231.5833,-383.2274 1218.0969,-371.7077 1207.2333,-362.4285"/>
<polygon fill="#191970" stroke="#191970" points="1209.4051,-359.6805 1199.5281,-355.8469 1204.8587,-365.0031 1209.4051,-359.6805"/>
</g>
</g>
</svg>
