<?xml version="1.0" encoding="UTF-8" standalone="no"?>
<!DOCTYPE svg PUBLIC "-//W3C//DTD SVG 1.1//EN"
 "http://www.w3.org/Graphics/SVG/1.1/DTD/svg11.dtd">
<!-- Generated by graphviz version 2.40.1 (20161225.0304)
 -->
<!-- Title: ClassicalAcc.cpp Pages: 1 -->
<svg width="976pt" height="543pt"
 viewBox="0.00 0.00 976.46 543.00" xmlns="http://www.w3.org/2000/svg" xmlns:xlink="http://www.w3.org/1999/xlink">
<g id="graph0" class="graph" transform="scale(1 1) rotate(0) translate(4 539)">
<title>ClassicalAcc.cpp</title>
<!-- Node0 -->
<g id="node1" class="node">
<title>Node0</title>
<polygon fill="#bfbfbf" stroke="#000000" points="602.9603,-515.5 602.9603,-534.5 700.9603,-534.5 700.9603,-515.5 602.9603,-515.5"/>
<text text-anchor="middle" x="651.9603" y="-522.5" font-family="FreeSans.ttf" font-size="10.00" fill="#000000">ClassicalAcc.cpp</text>
</g>
<!-- Node1 -->
<g id="node2" class="node">
<title>Node1</title>
<g id="a_node2"><a xlink:href="ClassicalAcc_8h.html" target="_top" xlink:title="iDynTree/Core/ClassicalAcc.h">
<polygon fill="none" stroke="#000000" points="713.9603,-398 713.9603,-417 871.9603,-417 871.9603,-398 713.9603,-398"/>
<text text-anchor="middle" x="792.9603" y="-405" font-family="FreeSans.ttf" font-size="10.00" fill="#000000">iDynTree/Core/ClassicalAcc.h</text>
</a>
</g>
</g>
<!-- Node0&#45;&gt;Node1 -->
<g id="edge1" class="edge">
<title>Node0&#45;&gt;Node1</title>
<path fill="none" stroke="#191970" d="M674.5542,-515.3787C692.1233,-507.2414 716.5274,-494.4526 734.9603,-479 753.4218,-463.5234 770.2491,-441.4869 780.9673,-425.9793"/>
<polygon fill="#191970" stroke="#191970" points="784.1379,-427.5363 786.8114,-417.2844 778.3282,-423.6315 784.1379,-427.5363"/>
</g>
<!-- Node17 -->
<g id="node18" class="node">
<title>Node17</title>
<g id="a_node18"><a xlink:href="SpatialAcc_8h.html" target="_top" xlink:title="iDynTree/Core/SpatialAcc.h">
<polygon fill="none" stroke="#000000" points="577.9603,-459.5 577.9603,-478.5 725.9603,-478.5 725.9603,-459.5 577.9603,-459.5"/>
<text text-anchor="middle" x="651.9603" y="-466.5" font-family="FreeSans.ttf" font-size="10.00" fill="#000000">iDynTree/Core/SpatialAcc.h</text>
</a>
</g>
</g>
<!-- Node0&#45;&gt;Node17 -->
<g id="edge19" class="edge">
<title>Node0&#45;&gt;Node17</title>
<path fill="none" stroke="#191970" d="M651.9603,-515.2455C651.9603,-507.9382 651.9603,-497.6944 651.9603,-488.7046"/>
<polygon fill="#191970" stroke="#191970" points="655.4604,-488.6426 651.9603,-478.6427 648.4604,-488.6427 655.4604,-488.6426"/>
</g>
<!-- Node24 -->
<g id="node25" class="node">
<title>Node24</title>
<g id="a_node25"><a xlink:href="RotationRaw_8h.html" target="_top" xlink:title="iDynTree/Core/RotationRaw.h">
<polygon fill="none" stroke="#000000" points="18.9603,-168.5 18.9603,-187.5 176.9603,-187.5 176.9603,-168.5 18.9603,-168.5"/>
<text text-anchor="middle" x="97.9603" y="-175.5" font-family="FreeSans.ttf" font-size="10.00" fill="#000000">iDynTree/Core/RotationRaw.h</text>
</a>
</g>
</g>
<!-- Node0&#45;&gt;Node24 -->
<g id="edge50" class="edge">
<title>Node0&#45;&gt;Node24</title>
<path fill="none" stroke="#191970" d="M602.7453,-523.3786C480.1546,-518.0083 170.9603,-495.719 170.9603,-407.5 170.9603,-407.5 170.9603,-407.5 170.9603,-290 170.9603,-250.8965 139.3432,-214.7535 117.7242,-194.6105"/>
<polygon fill="#191970" stroke="#191970" points="119.7976,-191.7688 110.0148,-187.7011 115.1257,-196.9817 119.7976,-191.7688"/>
</g>
<!-- Node27 -->
<g id="node28" class="node">
<title>Node27</title>
<g id="a_node28"><a xlink:href="Twist_8h.html" target="_top" xlink:title="iDynTree/Core/Twist.h">
<polygon fill="none" stroke="#000000" points="437.9603,-459.5 437.9603,-478.5 559.9603,-478.5 559.9603,-459.5 437.9603,-459.5"/>
<text text-anchor="middle" x="498.9603" y="-466.5" font-family="FreeSans.ttf" font-size="10.00" fill="#000000">iDynTree/Core/Twist.h</text>
</a>
</g>
</g>
<!-- Node0&#45;&gt;Node27 -->
<g id="edge48" class="edge">
<title>Node0&#45;&gt;Node27</title>
<path fill="none" stroke="#191970" d="M625.6587,-515.3733C600.5475,-506.1822 562.5165,-492.2624 534.6731,-482.0713"/>
<polygon fill="#191970" stroke="#191970" points="535.5125,-478.6516 524.9187,-478.5011 533.1065,-485.2251 535.5125,-478.6516"/>
</g>
<!-- Node28 -->
<g id="node29" class="node">
<title>Node28</title>
<polygon fill="none" stroke="#bfbfbf" points="782.4603,-459.5 782.4603,-478.5 859.4603,-478.5 859.4603,-459.5 782.4603,-459.5"/>
<text text-anchor="middle" x="820.9603" y="-466.5" font-family="FreeSans.ttf" font-size="10.00" fill="#000000">Eigen/Dense</text>
</g>
<!-- Node0&#45;&gt;Node28 -->
<g id="edge51" class="edge">
<title>Node0&#45;&gt;Node28</title>
<path fill="none" stroke="#191970" d="M681.0124,-515.3733C709.1146,-506.0613 751.8657,-491.8953 782.721,-481.671"/>
<polygon fill="#191970" stroke="#191970" points="783.8957,-484.969 792.2873,-478.5011 781.6939,-478.3243 783.8957,-484.969"/>
</g>
<!-- Node2 -->
<g id="node3" class="node">
<title>Node2</title>
<g id="a_node3"><a xlink:href="VectorFixSize_8h.html" target="_top" xlink:title="iDynTree/Core/VectorFixSize.h">
<polygon fill="none" stroke="#000000" points="556.4603,-112.5 556.4603,-131.5 717.4603,-131.5 717.4603,-112.5 556.4603,-112.5"/>
<text text-anchor="middle" x="636.9603" y="-119.5" font-family="FreeSans.ttf" font-size="10.00" fill="#000000">iDynTree/Core/VectorFixSize.h</text>
</a>
</g>
</g>
<!-- Node1&#45;&gt;Node2 -->
<g id="edge2" class="edge">
<title>Node1&#45;&gt;Node2</title>
<path fill="none" stroke="#191970" d="M793.7946,-397.7596C795.4432,-377.6426 798.9603,-330.0347 798.9603,-290 798.9603,-290 798.9603,-290 798.9603,-234 798.9603,-179.4141 735.9599,-149.3532 688.5347,-134.4571"/>
<polygon fill="#191970" stroke="#191970" points="689.2631,-131.0217 678.6793,-131.5052 687.2546,-137.7274 689.2631,-131.0217"/>
</g>
<!-- Node3 -->
<g id="node4" class="node">
<title>Node3</title>
<g id="a_node4"><a xlink:href="Utils_8h.html" target="_top" xlink:title="iDynTree/Core/Utils.h">
<polygon fill="none" stroke="#000000" points="715.4603,-56.5 715.4603,-75.5 834.4603,-75.5 834.4603,-56.5 715.4603,-56.5"/>
<text text-anchor="middle" x="774.9603" y="-63.5" font-family="FreeSans.ttf" font-size="10.00" fill="#000000">iDynTree/Core/Utils.h</text>
</a>
</g>
</g>
<!-- Node2&#45;&gt;Node3 -->
<g id="edge3" class="edge">
<title>Node2&#45;&gt;Node3</title>
<path fill="none" stroke="#191970" d="M660.6833,-112.3733C683.134,-103.2629 717.0342,-89.5062 742.0858,-79.3404"/>
<polygon fill="#191970" stroke="#191970" points="743.5968,-82.5045 751.5468,-75.5011 740.9646,-76.0182 743.5968,-82.5045"/>
</g>
<!-- Node5 -->
<g id="node6" class="node">
<title>Node5</title>
<g id="a_node6"><a xlink:href="Span_8h.html" target="_top" xlink:title="iDynTree/Core/Span.h">
<polygon fill="none" stroke="#000000" points="576.4603,-56.5 576.4603,-75.5 697.4603,-75.5 697.4603,-56.5 576.4603,-56.5"/>
<text text-anchor="middle" x="636.9603" y="-63.5" font-family="FreeSans.ttf" font-size="10.00" fill="#000000">iDynTree/Core/Span.h</text>
</a>
</g>
</g>
<!-- Node2&#45;&gt;Node5 -->
<g id="edge5" class="edge">
<title>Node2&#45;&gt;Node5</title>
<path fill="none" stroke="#191970" d="M636.9603,-112.2455C636.9603,-104.9382 636.9603,-94.6944 636.9603,-85.7046"/>
<polygon fill="#191970" stroke="#191970" points="640.4604,-85.6426 636.9603,-75.6427 633.4604,-85.6427 640.4604,-85.6426"/>
</g>
<!-- Node6 -->
<g id="node7" class="node">
<title>Node6</title>
<polygon fill="none" stroke="#bfbfbf" points="335.9603,-.5 335.9603,-19.5 387.9603,-19.5 387.9603,-.5 335.9603,-.5"/>
<text text-anchor="middle" x="361.9603" y="-7.5" font-family="FreeSans.ttf" font-size="10.00" fill="#000000">cassert</text>
</g>
<!-- Node2&#45;&gt;Node6 -->
<g id="edge17" class="edge">
<title>Node2&#45;&gt;Node6</title>
<path fill="none" stroke="#191970" d="M622.5574,-112.4947C597.8065,-96.2806 548.0261,-64.2278 528.9603,-56 475.9632,-33.1294 457.4155,-35.975 398.19,-20.2579"/>
<polygon fill="#191970" stroke="#191970" points="398.8924,-16.8217 388.324,-17.5692 397.0518,-23.5754 398.8924,-16.8217"/>
</g>
<!-- Node14 -->
<g id="node15" class="node">
<title>Node14</title>
<polygon fill="none" stroke="#bfbfbf" points="214.9603,-56.5 214.9603,-75.5 258.9603,-75.5 258.9603,-56.5 214.9603,-56.5"/>
<text text-anchor="middle" x="236.9603" y="-63.5" font-family="FreeSans.ttf" font-size="10.00" fill="#000000">string</text>
</g>
<!-- Node2&#45;&gt;Node14 -->
<g id="edge15" class="edge">
<title>Node2&#45;&gt;Node14</title>
<path fill="none" stroke="#191970" d="M556.3812,-115.6298C481.8103,-108.8492 368.1353,-96.2594 270.9603,-76 270.358,-75.8744 269.7508,-75.7434 269.1401,-75.6075"/>
<polygon fill="#191970" stroke="#191970" points="269.6954,-72.1379 259.1427,-73.0813 267.9804,-78.9246 269.6954,-72.1379"/>
</g>
<!-- Node15 -->
<g id="node16" class="node">
<title>Node15</title>
<polygon fill="none" stroke="#bfbfbf" points="463.9603,-56.5 463.9603,-75.5 519.9603,-75.5 519.9603,-56.5 463.9603,-56.5"/>
<text text-anchor="middle" x="491.9603" y="-63.5" font-family="FreeSans.ttf" font-size="10.00" fill="#000000">sstream</text>
</g>
<!-- Node2&#45;&gt;Node15 -->
<g id="edge16" class="edge">
<title>Node2&#45;&gt;Node15</title>
<path fill="none" stroke="#191970" d="M612.0339,-112.3733C588.3401,-103.2226 552.5092,-89.3844 526.1535,-79.2057"/>
<polygon fill="#191970" stroke="#191970" points="527.1509,-75.8389 516.5614,-75.5011 524.6289,-82.3689 527.1509,-75.8389"/>
</g>
<!-- Node16 -->
<g id="node17" class="node">
<title>Node16</title>
<polygon fill="none" stroke="#bfbfbf" points="395.9603,-56.5 395.9603,-75.5 445.9603,-75.5 445.9603,-56.5 395.9603,-56.5"/>
<text text-anchor="middle" x="420.9603" y="-63.5" font-family="FreeSans.ttf" font-size="10.00" fill="#000000">cstring</text>
</g>
<!-- Node2&#45;&gt;Node16 -->
<g id="edge18" class="edge">
<title>Node2&#45;&gt;Node16</title>
<path fill="none" stroke="#191970" d="M597.4377,-112.4758C562.5866,-103.9736 510.1999,-90.9427 455.966,-76.2071"/>
<polygon fill="#191970" stroke="#191970" points="456.7494,-72.7929 446.1806,-73.535 454.9054,-79.5457 456.7494,-72.7929"/>
</g>
<!-- Node4 -->
<g id="node5" class="node">
<title>Node4</title>
<polygon fill="none" stroke="#bfbfbf" points="915.4603,-.5 915.4603,-19.5 968.4603,-19.5 968.4603,-.5 915.4603,-.5"/>
<text text-anchor="middle" x="941.9603" y="-7.5" font-family="FreeSans.ttf" font-size="10.00" fill="#000000">cstddef</text>
</g>
<!-- Node3&#45;&gt;Node4 -->
<g id="edge4" class="edge">
<title>Node3&#45;&gt;Node4</title>
<path fill="none" stroke="#191970" d="M803.6686,-56.3733C831.8207,-46.933 874.8499,-32.5041 905.4267,-22.2508"/>
<polygon fill="#191970" stroke="#191970" points="906.9109,-25.4447 915.2793,-18.9469 904.6854,-18.8079 906.9109,-25.4447"/>
</g>
<!-- Node5&#45;&gt;Node4 -->
<g id="edge9" class="edge">
<title>Node5&#45;&gt;Node4</title>
<path fill="none" stroke="#191970" d="M697.5309,-56.4735C760.2051,-46.4844 854.9243,-30.9888 905.4882,-20.1236"/>
<polygon fill="#191970" stroke="#191970" points="906.2821,-23.5326 915.2851,-17.9472 904.764,-16.6992 906.2821,-23.5326"/>
</g>
<!-- Node5&#45;&gt;Node6 -->
<g id="edge6" class="edge">
<title>Node5&#45;&gt;Node6</title>
<path fill="none" stroke="#191970" d="M579.434,-56.4555C532.9114,-48.4001 465.5429,-35.9779 398.2006,-20.1478"/>
<polygon fill="#191970" stroke="#191970" points="398.8057,-16.6942 388.2675,-17.7876 397.1875,-23.5046 398.8057,-16.6942"/>
</g>
<!-- Node7 -->
<g id="node8" class="node">
<title>Node7</title>
<polygon fill="none" stroke="#bfbfbf" points="405.9603,-.5 405.9603,-19.5 469.9603,-19.5 469.9603,-.5 405.9603,-.5"/>
<text text-anchor="middle" x="437.9603" y="-7.5" font-family="FreeSans.ttf" font-size="10.00" fill="#000000">algorithm</text>
</g>
<!-- Node5&#45;&gt;Node7 -->
<g id="edge7" class="edge">
<title>Node5&#45;&gt;Node7</title>
<path fill="none" stroke="#191970" d="M602.751,-56.3733C568.7227,-46.7975 516.4536,-32.0886 479.9337,-21.8116"/>
<polygon fill="#191970" stroke="#191970" points="480.6533,-18.3782 470.079,-19.0384 478.757,-25.1165 480.6533,-18.3782"/>
</g>
<!-- Node8 -->
<g id="node9" class="node">
<title>Node8</title>
<polygon fill="none" stroke="#bfbfbf" points="487.9603,-.5 487.9603,-19.5 529.9603,-19.5 529.9603,-.5 487.9603,-.5"/>
<text text-anchor="middle" x="508.9603" y="-7.5" font-family="FreeSans.ttf" font-size="10.00" fill="#000000">array</text>
</g>
<!-- Node5&#45;&gt;Node8 -->
<g id="edge8" class="edge">
<title>Node5&#45;&gt;Node8</title>
<path fill="none" stroke="#191970" d="M614.9563,-56.3733C594.1918,-47.2888 562.8675,-33.5844 539.651,-23.4272"/>
<polygon fill="#191970" stroke="#191970" points="540.8163,-20.1167 530.2518,-19.315 538.0105,-26.5298 540.8163,-20.1167"/>
</g>
<!-- Node9 -->
<g id="node10" class="node">
<title>Node9</title>
<polygon fill="none" stroke="#bfbfbf" points="548.4603,-.5 548.4603,-19.5 601.4603,-19.5 601.4603,-.5 548.4603,-.5"/>
<text text-anchor="middle" x="574.9603" y="-7.5" font-family="FreeSans.ttf" font-size="10.00" fill="#000000">iterator</text>
</g>
<!-- Node5&#45;&gt;Node9 -->
<g id="edge10" class="edge">
<title>Node5&#45;&gt;Node9</title>
<path fill="none" stroke="#191970" d="M626.1607,-56.2455C617.0925,-48.0549 603.9397,-36.1749 593.2358,-26.5069"/>
<polygon fill="#191970" stroke="#191970" points="595.4032,-23.7482 585.6361,-19.6427 590.7112,-28.9429 595.4032,-23.7482"/>
</g>
<!-- Node10 -->
<g id="node11" class="node">
<title>Node10</title>
<polygon fill="none" stroke="#bfbfbf" points="619.9603,-.5 619.9603,-19.5 663.9603,-19.5 663.9603,-.5 619.9603,-.5"/>
<text text-anchor="middle" x="641.9603" y="-7.5" font-family="FreeSans.ttf" font-size="10.00" fill="#000000">limits</text>
</g>
<!-- Node5&#45;&gt;Node10 -->
<g id="edge11" class="edge">
<title>Node5&#45;&gt;Node10</title>
<path fill="none" stroke="#191970" d="M637.8312,-56.2455C638.4837,-48.9382 639.3983,-38.6944 640.201,-29.7046"/>
<polygon fill="#191970" stroke="#191970" points="643.6961,-29.9143 641.0993,-19.6427 636.7238,-29.2918 643.6961,-29.9143"/>
</g>
<!-- Node11 -->
<g id="node12" class="node">
<title>Node11</title>
<polygon fill="none" stroke="#bfbfbf" points="682.4603,-.5 682.4603,-19.5 747.4603,-19.5 747.4603,-.5 682.4603,-.5"/>
<text text-anchor="middle" x="714.9603" y="-7.5" font-family="FreeSans.ttf" font-size="10.00" fill="#000000">stdexcept</text>
</g>
<!-- Node5&#45;&gt;Node11 -->
<g id="edge12" class="edge">
<title>Node5&#45;&gt;Node11</title>
<path fill="none" stroke="#191970" d="M650.5469,-56.2455C662.2908,-47.814 679.4802,-35.4729 693.1485,-25.6598"/>
<polygon fill="#191970" stroke="#191970" points="695.4474,-28.3179 701.5294,-19.6427 691.3649,-22.6316 695.4474,-28.3179"/>
</g>
<!-- Node12 -->
<g id="node13" class="node">
<title>Node12</title>
<polygon fill="none" stroke="#bfbfbf" points="765.4603,-.5 765.4603,-19.5 834.4603,-19.5 834.4603,-.5 765.4603,-.5"/>
<text text-anchor="middle" x="799.9603" y="-7.5" font-family="FreeSans.ttf" font-size="10.00" fill="#000000">type_traits</text>
</g>
<!-- Node5&#45;&gt;Node12 -->
<g id="edge13" class="edge">
<title>Node5&#45;&gt;Node12</title>
<path fill="none" stroke="#191970" d="M664.981,-56.3733C691.9681,-47.1016 732.962,-33.0178 762.6914,-22.804"/>
<polygon fill="#191970" stroke="#191970" points="763.9851,-26.0605 772.3052,-19.5011 761.7106,-19.4403 763.9851,-26.0605"/>
</g>
<!-- Node13 -->
<g id="node14" class="node">
<title>Node13</title>
<polygon fill="none" stroke="#bfbfbf" points="852.4603,-.5 852.4603,-19.5 897.4603,-19.5 897.4603,-.5 852.4603,-.5"/>
<text text-anchor="middle" x="874.9603" y="-7.5" font-family="FreeSans.ttf" font-size="10.00" fill="#000000">utility</text>
</g>
<!-- Node5&#45;&gt;Node13 -->
<g id="edge14" class="edge">
<title>Node5&#45;&gt;Node13</title>
<path fill="none" stroke="#191970" d="M685.7909,-56.49C725.7146,-48.4127 783.7938,-35.9766 842.5332,-20.2254"/>
<polygon fill="#191970" stroke="#191970" points="843.6111,-23.5596 852.3464,-17.5641 841.7789,-16.8036 843.6111,-23.5596"/>
</g>
<!-- Node18 -->
<g id="node19" class="node">
<title>Node18</title>
<g id="a_node19"><a xlink:href="SpatialMotionVector_8h.html" target="_top" xlink:title="iDynTree/Core/SpatialMotion\lVector.h">
<polygon fill="none" stroke="#000000" points="535.4603,-392.5 535.4603,-422.5 690.4603,-422.5 690.4603,-392.5 535.4603,-392.5"/>
<text text-anchor="start" x="543.4603" y="-410.5" font-family="FreeSans.ttf" font-size="10.00" fill="#000000">iDynTree/Core/SpatialMotion</text>
<text text-anchor="middle" x="612.9603" y="-399.5" font-family="FreeSans.ttf" font-size="10.00" fill="#000000">Vector.h</text>
</a>
</g>
</g>
<!-- Node17&#45;&gt;Node18 -->
<g id="edge20" class="edge">
<title>Node17&#45;&gt;Node18</title>
<path fill="none" stroke="#191970" d="M645.8665,-459.3906C641.0771,-451.838 634.1963,-440.9876 627.9638,-431.1593"/>
<polygon fill="#191970" stroke="#191970" points="630.812,-429.1153 622.5008,-422.5446 624.9005,-432.8641 630.812,-429.1153"/>
</g>
<!-- Node18&#45;&gt;Node2 -->
<g id="edge21" class="edge">
<title>Node18&#45;&gt;Node2</title>
<path fill="none" stroke="#191970" d="M642.4383,-392.3745C675.0216,-373.3051 722.9603,-337.2244 722.9603,-290 722.9603,-290 722.9603,-290 722.9603,-234 722.9603,-203.4754 721.8133,-192.7593 703.9603,-168 694.4392,-154.7957 679.8914,-144.15 666.7816,-136.4387"/>
<polygon fill="#191970" stroke="#191970" points="668.457,-133.3657 658.0148,-131.5735 665.0603,-139.4863 668.457,-133.3657"/>
</g>
<!-- Node19 -->
<g id="node20" class="node">
<title>Node19</title>
<g id="a_node20"><a xlink:href="GeomVector3_8h.html" target="_top" xlink:title="iDynTree/Core/GeomVector3.h">
<polygon fill="none" stroke="#000000" points="531.4603,-168.5 531.4603,-187.5 694.4603,-187.5 694.4603,-168.5 531.4603,-168.5"/>
<text text-anchor="middle" x="612.9603" y="-175.5" font-family="FreeSans.ttf" font-size="10.00" fill="#000000">iDynTree/Core/GeomVector3.h</text>
</a>
</g>
</g>
<!-- Node18&#45;&gt;Node19 -->
<g id="edge22" class="edge">
<title>Node18&#45;&gt;Node19</title>
<path fill="none" stroke="#191970" d="M612.9603,-392.4419C612.9603,-352.3599 612.9603,-243.0534 612.9603,-197.9113"/>
<polygon fill="#191970" stroke="#191970" points="616.4604,-197.8981 612.9603,-187.8981 609.4604,-197.8982 616.4604,-197.8981"/>
</g>
<!-- Node20 -->
<g id="node21" class="node">
<title>Node20</title>
<g id="a_node21"><a xlink:href="SpatialVector_8h.html" target="_top" xlink:title="iDynTree/Core/SpatialVector.h">
<polygon fill="none" stroke="#000000" points="422.4603,-336.5 422.4603,-355.5 583.4603,-355.5 583.4603,-336.5 422.4603,-336.5"/>
<text text-anchor="middle" x="502.9603" y="-343.5" font-family="FreeSans.ttf" font-size="10.00" fill="#000000">iDynTree/Core/SpatialVector.h</text>
</a>
</g>
</g>
<!-- Node18&#45;&gt;Node20 -->
<g id="edge24" class="edge">
<title>Node18&#45;&gt;Node20</title>
<path fill="none" stroke="#191970" d="M586.0513,-392.4554C568.6635,-382.734 546.1554,-370.15 528.9519,-360.5317"/>
<polygon fill="#191970" stroke="#191970" points="530.4429,-357.3554 520.0064,-355.5303 527.0268,-363.4653 530.4429,-357.3554"/>
</g>
<!-- Node19&#45;&gt;Node2 -->
<g id="edge23" class="edge">
<title>Node19&#45;&gt;Node2</title>
<path fill="none" stroke="#191970" d="M617.1408,-168.2455C620.3413,-160.7776 624.8563,-150.2427 628.7687,-141.1137"/>
<polygon fill="#191970" stroke="#191970" points="632.1055,-142.2129 632.8277,-131.6427 625.6715,-139.4554 632.1055,-142.2129"/>
</g>
<!-- Node20&#45;&gt;Node3 -->
<g id="edge44" class="edge">
<title>Node20&#45;&gt;Node3</title>
<path fill="none" stroke="#191970" d="M518.9707,-336.41C555.3426,-314.0345 645.5579,-255.1508 703.9603,-188 732.2296,-155.496 755.1521,-110.1087 766.7421,-84.8556"/>
<polygon fill="#191970" stroke="#191970" points="769.9718,-86.2072 770.8716,-75.6506 763.585,-83.3419 769.9718,-86.2072"/>
</g>
<!-- Node20&#45;&gt;Node15 -->
<g id="edge47" class="edge">
<title>Node20&#45;&gt;Node15</title>
<path fill="none" stroke="#191970" d="M504.6283,-336.0841C509.792,-303.6071 524.2729,-197.6074 508.9603,-112 507.316,-102.8071 503.9598,-93.047 500.6606,-84.8935"/>
<polygon fill="#191970" stroke="#191970" points="503.8209,-83.3833 496.6452,-75.5885 497.3938,-86.1569 503.8209,-83.3833"/>
</g>
<!-- Node20&#45;&gt;Node19 -->
<g id="edge45" class="edge">
<title>Node20&#45;&gt;Node19</title>
<path fill="none" stroke="#191970" d="M509.1895,-336.4862C526.8791,-309.4695 577.6421,-231.9405 600.9715,-196.3102"/>
<polygon fill="#191970" stroke="#191970" points="603.9756,-198.1114 606.5254,-187.8279 598.1193,-194.2768 603.9756,-198.1114"/>
</g>
<!-- Node21 -->
<g id="node22" class="node">
<title>Node21</title>
<g id="a_node22"><a xlink:href="Position_8h.html" target="_top" xlink:title="Position.h">
<polygon fill="none" stroke="#000000" points="279.4603,-280.5 279.4603,-299.5 344.4603,-299.5 344.4603,-280.5 279.4603,-280.5"/>
<text text-anchor="middle" x="311.9603" y="-287.5" font-family="FreeSans.ttf" font-size="10.00" fill="#000000">Position.h</text>
</a>
</g>
</g>
<!-- Node20&#45;&gt;Node21 -->
<g id="edge25" class="edge">
<title>Node20&#45;&gt;Node21</title>
<path fill="none" stroke="#191970" d="M470.1262,-336.3733C438.0908,-326.9807 389.2116,-312.6496 354.2748,-302.4064"/>
<polygon fill="#191970" stroke="#191970" points="354.9467,-298.9561 344.3659,-299.5011 352.9772,-305.6733 354.9467,-298.9561"/>
</g>
<!-- Node23 -->
<g id="node24" class="node">
<title>Node23</title>
<g id="a_node24"><a xlink:href="Rotation_8h.html" target="_top" xlink:title="iDynTree/Core/Rotation.h">
<polygon fill="none" stroke="#000000" points="299.4603,-224.5 299.4603,-243.5 436.4603,-243.5 436.4603,-224.5 299.4603,-224.5"/>
<text text-anchor="middle" x="367.9603" y="-231.5" font-family="FreeSans.ttf" font-size="10.00" fill="#000000">iDynTree/Core/Rotation.h</text>
</a>
</g>
</g>
<!-- Node20&#45;&gt;Node23 -->
<g id="edge43" class="edge">
<title>Node20&#45;&gt;Node23</title>
<path fill="none" stroke="#191970" d="M491.4503,-336.4509C468.3361,-317.2747 416.0495,-273.8962 387.4857,-250.1988"/>
<polygon fill="#191970" stroke="#191970" points="389.3722,-247.2162 379.4412,-243.5249 384.9027,-252.6036 389.3722,-247.2162"/>
</g>
<!-- Node26 -->
<g id="node27" class="node">
<title>Node26</title>
<polygon fill="none" stroke="#bfbfbf" points="279.9603,-56.5 279.9603,-75.5 339.9603,-75.5 339.9603,-56.5 279.9603,-56.5"/>
<text text-anchor="middle" x="309.9603" y="-63.5" font-family="FreeSans.ttf" font-size="10.00" fill="#000000">iostream</text>
</g>
<!-- Node20&#45;&gt;Node26 -->
<g id="edge46" class="edge">
<title>Node20&#45;&gt;Node26</title>
<path fill="none" stroke="#191970" d="M500.1025,-336.3303C493.3415,-314.5846 474.7401,-260.8497 445.9603,-224 421.6498,-192.8728 407.974,-192.455 376.9603,-168 356.2985,-151.7077 344.9409,-153.6316 329.9603,-132 320.3862,-118.1753 315.2974,-99.6535 312.6542,-85.7501"/>
<polygon fill="#191970" stroke="#191970" points="316.0897,-85.071 311.0197,-75.768 309.1817,-86.2022 316.0897,-85.071"/>
</g>
<!-- Node21&#45;&gt;Node14 -->
<g id="edge42" class="edge">
<title>Node21&#45;&gt;Node14</title>
<path fill="none" stroke="#191970" d="M279.2942,-283.8941C207.9889,-269.8328 42.1889,-232.9023 9.9603,-188 -42.8788,-114.3821 129.9813,-80.887 204.4831,-70.1078"/>
<polygon fill="#191970" stroke="#191970" points="205.302,-73.5275 214.7229,-68.6801 204.3353,-66.5946 205.302,-73.5275"/>
</g>
<!-- Node22 -->
<g id="node23" class="node">
<title>Node22</title>
<g id="a_node23"><a xlink:href="PositionRaw_8h.html" target="_top" xlink:title="iDynTree/Core/PositionRaw.h">
<polygon fill="none" stroke="#000000" points="194.9603,-168.5 194.9603,-187.5 350.9603,-187.5 350.9603,-168.5 194.9603,-168.5"/>
<text text-anchor="middle" x="272.9603" y="-175.5" font-family="FreeSans.ttf" font-size="10.00" fill="#000000">iDynTree/Core/PositionRaw.h</text>
</a>
</g>
</g>
<!-- Node21&#45;&gt;Node22 -->
<g id="edge26" class="edge">
<title>Node21&#45;&gt;Node22</title>
<path fill="none" stroke="#191970" d="M306.9842,-280.3214C302.3996,-271.1422 295.6211,-256.8777 290.9603,-244 285.4026,-228.6441 280.6224,-210.7437 277.3877,-197.4621"/>
<polygon fill="#191970" stroke="#191970" points="280.7521,-196.4794 275.051,-187.5492 273.9388,-198.0855 280.7521,-196.4794"/>
</g>
<!-- Node21&#45;&gt;Node23 -->
<g id="edge29" class="edge">
<title>Node21&#45;&gt;Node23</title>
<path fill="none" stroke="#191970" d="M321.7148,-280.2455C329.8251,-272.1352 341.5528,-260.4075 351.1684,-250.7919"/>
<polygon fill="#191970" stroke="#191970" points="353.7214,-253.1887 358.3176,-243.6427 348.7716,-248.2389 353.7214,-253.1887"/>
</g>
<!-- Node22&#45;&gt;Node2 -->
<g id="edge27" class="edge">
<title>Node22&#45;&gt;Node2</title>
<path fill="none" stroke="#191970" d="M335.1205,-168.4369C398.8559,-158.6314 497.8883,-143.3957 564.9849,-133.0731"/>
<polygon fill="#191970" stroke="#191970" points="565.7049,-136.5036 575.0564,-131.5237 564.6405,-129.585 565.7049,-136.5036"/>
</g>
<!-- Node22&#45;&gt;Node14 -->
<g id="edge28" class="edge">
<title>Node22&#45;&gt;Node14</title>
<path fill="none" stroke="#191970" d="M269.8378,-168.4917C266.7897,-159.1943 262.0297,-144.6327 257.9603,-132 252.9485,-116.4417 247.338,-98.7966 243.1777,-85.6679"/>
<polygon fill="#191970" stroke="#191970" points="246.4238,-84.3247 240.0692,-75.847 239.7501,-86.4371 246.4238,-84.3247"/>
</g>
<!-- Node23&#45;&gt;Node2 -->
<g id="edge41" class="edge">
<title>Node23&#45;&gt;Node2</title>
<path fill="none" stroke="#191970" d="M389.9791,-224.4683C419.9793,-211.5173 475.4095,-187.7152 522.9603,-168 549.9226,-156.8211 580.6122,-144.458 603.3518,-135.3665"/>
<polygon fill="#191970" stroke="#191970" points="604.8974,-138.5181 612.8868,-131.5597 602.3018,-132.0171 604.8974,-138.5181"/>
</g>
<!-- Node23&#45;&gt;Node14 -->
<g id="edge30" class="edge">
<title>Node23&#45;&gt;Node14</title>
<path fill="none" stroke="#191970" d="M369.366,-224.1086C370.7884,-210.3148 371.3825,-185.0773 359.9603,-168 341.8162,-140.8729 321.4011,-152.4414 295.9603,-132 278.2996,-117.8099 261.4156,-98.0788 250.2693,-83.8926"/>
<polygon fill="#191970" stroke="#191970" points="252.9805,-81.6765 244.1149,-75.8753 247.4278,-85.9389 252.9805,-81.6765"/>
</g>
<!-- Node23&#45;&gt;Node19 -->
<g id="edge31" class="edge">
<title>Node23&#45;&gt;Node19</title>
<path fill="none" stroke="#191970" d="M409.7989,-224.4369C451.7288,-214.8529 516.3551,-200.0812 561.4227,-189.78"/>
<polygon fill="#191970" stroke="#191970" points="562.3256,-193.164 571.2942,-187.5237 560.7657,-186.34 562.3256,-193.164"/>
</g>
<!-- Node23&#45;&gt;Node24 -->
<g id="edge32" class="edge">
<title>Node23&#45;&gt;Node24</title>
<path fill="none" stroke="#191970" d="M321.8524,-224.4369C275.3528,-214.7925 203.5244,-199.8948 153.8203,-189.5858"/>
<polygon fill="#191970" stroke="#191970" points="154.3804,-186.1275 143.878,-187.5237 152.9588,-192.9817 154.3804,-186.1275"/>
</g>
<!-- Node24&#45;&gt;Node14 -->
<g id="edge40" class="edge">
<title>Node24&#45;&gt;Node14</title>
<path fill="none" stroke="#191970" d="M109.8114,-168.4509C133.713,-149.1921 187.9109,-105.5218 217.2353,-81.8935"/>
<polygon fill="#191970" stroke="#191970" points="219.5484,-84.5245 225.1392,-75.5249 215.1564,-79.0738 219.5484,-84.5245"/>
</g>
<!-- Node25 -->
<g id="node26" class="node">
<title>Node25</title>
<g id="a_node26"><a xlink:href="MatrixFixSize_8h.html" target="_top" xlink:title="iDynTree/Core/MatrixFixSize.h">
<polygon fill="none" stroke="#000000" points="338.4603,-112.5 338.4603,-131.5 499.4603,-131.5 499.4603,-112.5 338.4603,-112.5"/>
<text text-anchor="middle" x="418.9603" y="-119.5" font-family="FreeSans.ttf" font-size="10.00" fill="#000000">iDynTree/Core/MatrixFixSize.h</text>
</a>
</g>
</g>
<!-- Node24&#45;&gt;Node25 -->
<g id="edge33" class="edge">
<title>Node24&#45;&gt;Node25</title>
<path fill="none" stroke="#191970" d="M152.7774,-168.4369C208.6374,-158.6918 295.2424,-143.5832 354.3908,-133.2645"/>
<polygon fill="#191970" stroke="#191970" points="355.1196,-136.6903 364.3693,-131.5237 353.9165,-129.7944 355.1196,-136.6903"/>
</g>
<!-- Node25&#45;&gt;Node3 -->
<g id="edge34" class="edge">
<title>Node25&#45;&gt;Node3</title>
<path fill="none" stroke="#191970" d="M479.7544,-112.4369C542.2438,-102.6071 639.426,-87.32 705.0549,-76.9963"/>
<polygon fill="#191970" stroke="#191970" points="705.9723,-80.3952 715.3069,-75.3837 704.8845,-73.4802 705.9723,-80.3952"/>
</g>
<!-- Node25&#45;&gt;Node6 -->
<g id="edge35" class="edge">
<title>Node25&#45;&gt;Node6</title>
<path fill="none" stroke="#191970" d="M411.0944,-112.2239C404.1057,-103.2084 393.9442,-89.2544 386.9603,-76 379.0281,-60.9458 372.3449,-42.8021 367.8899,-29.351"/>
<polygon fill="#191970" stroke="#191970" points="371.19,-28.1794 364.8135,-19.7182 364.5218,-30.309 371.19,-28.1794"/>
</g>
<!-- Node25&#45;&gt;Node14 -->
<g id="edge37" class="edge">
<title>Node25&#45;&gt;Node14</title>
<path fill="none" stroke="#191970" d="M387.6734,-112.3733C354.4233,-102.1425 302.1304,-86.0523 268.7062,-75.768"/>
<polygon fill="#191970" stroke="#191970" points="269.5681,-72.3713 258.981,-72.7756 267.5095,-79.0618 269.5681,-72.3713"/>
</g>
<!-- Node25&#45;&gt;Node15 -->
<g id="edge39" class="edge">
<title>Node25&#45;&gt;Node15</title>
<path fill="none" stroke="#191970" d="M431.6759,-112.2455C442.5623,-103.8943 458.4486,-91.7076 471.1803,-81.9408"/>
<polygon fill="#191970" stroke="#191970" points="473.5864,-84.5063 479.3904,-75.6427 469.3257,-78.9523 473.5864,-84.5063"/>
</g>
<!-- Node25&#45;&gt;Node16 -->
<g id="edge36" class="edge">
<title>Node25&#45;&gt;Node16</title>
<path fill="none" stroke="#191970" d="M419.3087,-112.2455C419.5696,-104.9382 419.9355,-94.6944 420.2566,-85.7046"/>
<polygon fill="#191970" stroke="#191970" points="423.7567,-85.7613 420.6159,-75.6427 416.7611,-85.5113 423.7567,-85.7613"/>
</g>
<!-- Node25&#45;&gt;Node26 -->
<g id="edge38" class="edge">
<title>Node25&#45;&gt;Node26</title>
<path fill="none" stroke="#191970" d="M399.9739,-112.2455C382.7811,-103.4125 357.2365,-90.2887 337.7471,-80.2758"/>
<polygon fill="#191970" stroke="#191970" points="339.2233,-77.0993 328.7291,-75.6427 336.0244,-83.3257 339.2233,-77.0993"/>
</g>
<!-- Node27&#45;&gt;Node18 -->
<g id="edge49" class="edge">
<title>Node27&#45;&gt;Node18</title>
<path fill="none" stroke="#191970" d="M516.7728,-459.3906C532.6299,-450.8361 556.3294,-438.0509 576.2355,-427.3121"/>
<polygon fill="#191970" stroke="#191970" points="577.9335,-430.3729 585.0728,-422.5446 574.61,-424.2122 577.9335,-430.3729"/>
</g>
</g>
</svg>
