<?xml version="1.0" encoding="UTF-8" standalone="no"?>
<!DOCTYPE svg PUBLIC "-//W3C//DTD SVG 1.1//EN"
 "http://www.w3.org/Graphics/SVG/1.1/DTD/svg11.dtd">
<!-- Generated by graphviz version 2.40.1 (20161225.0304)
 -->
<!-- Title: Dynamics.h Pages: 1 -->
<svg width="1680pt" height="610pt"
 viewBox="0.00 0.00 1680.00 610.00" xmlns="http://www.w3.org/2000/svg" xmlns:xlink="http://www.w3.org/1999/xlink">
<g id="graph0" class="graph" transform="scale(1 1) rotate(0) translate(4 606)">
<title>Dynamics.h</title>
<!-- Node0 -->
<g id="node1" class="node">
<title>Node0</title>
<polygon fill="#bfbfbf" stroke="#000000" points="1116.5,-582.5 1116.5,-601.5 1190.5,-601.5 1190.5,-582.5 1116.5,-582.5"/>
<text text-anchor="middle" x="1153.5" y="-589.5" font-family="FreeSans.ttf" font-size="10.00" fill="#000000">Dynamics.h</text>
</g>
<!-- Node1 -->
<g id="node2" class="node">
<title>Node1</title>
<g id="a_node2"><a xlink:href="MatrixDynSize_8h.html" target="_top" xlink:title="iDynTree/Core/MatrixDynSize.h">
<polygon fill="none" stroke="#000000" points="1505,-291.5 1505,-310.5 1672,-310.5 1672,-291.5 1505,-291.5"/>
<text text-anchor="middle" x="1588.5" y="-298.5" font-family="FreeSans.ttf" font-size="10.00" fill="#000000">iDynTree/Core/MatrixDynSize.h</text>
</a>
</g>
</g>
<!-- Node0&#45;&gt;Node1 -->
<g id="edge1" class="edge">
<title>Node0&#45;&gt;Node1</title>
<path fill="none" stroke="#191970" d="M1190.5855,-589.51C1289.389,-581.8664 1551.5,-554.5625 1551.5,-480 1551.5,-480 1551.5,-480 1551.5,-418.5 1551.5,-382.3346 1567.6442,-342.6787 1578.6044,-319.9237"/>
<polygon fill="#191970" stroke="#191970" points="1581.8588,-321.241 1583.1988,-310.7312 1575.5973,-318.1115 1581.8588,-321.241"/>
</g>
<!-- Node3 -->
<g id="node4" class="node">
<title>Node3</title>
<g id="a_node4"><a xlink:href="Indices_8h.html" target="_top" xlink:title="iDynTree/Model/Indices.h">
<polygon fill="none" stroke="#000000" points="1345.5,-470.5 1345.5,-489.5 1483.5,-489.5 1483.5,-470.5 1345.5,-470.5"/>
<text text-anchor="middle" x="1414.5" y="-477.5" font-family="FreeSans.ttf" font-size="10.00" fill="#000000">iDynTree/Model/Indices.h</text>
</a>
</g>
</g>
<!-- Node0&#45;&gt;Node3 -->
<g id="edge3" class="edge">
<title>Node0&#45;&gt;Node3</title>
<path fill="none" stroke="#191970" d="M1175.7527,-582.4509C1222.1737,-562.5308 1329.4554,-516.4942 1382.9648,-493.5323"/>
<polygon fill="#191970" stroke="#191970" points="1384.4942,-496.6848 1392.3036,-489.5249 1381.7337,-490.252 1384.4942,-496.6848"/>
</g>
<!-- Node4 -->
<g id="node5" class="node">
<title>Node4</title>
<g id="a_node5"><a xlink:href="LinkState_8h.html" target="_top" xlink:title="iDynTree/Model/LinkState.h">
<polygon fill="none" stroke="#000000" points="912,-526.5 912,-545.5 1061,-545.5 1061,-526.5 912,-526.5"/>
<text text-anchor="middle" x="986.5" y="-533.5" font-family="FreeSans.ttf" font-size="10.00" fill="#000000">iDynTree/Model/LinkState.h</text>
</a>
</g>
</g>
<!-- Node0&#45;&gt;Node4 -->
<g id="edge5" class="edge">
<title>Node0&#45;&gt;Node4</title>
<path fill="none" stroke="#191970" d="M1124.7917,-582.3733C1097.1423,-573.1016 1055.1424,-559.0178 1024.6834,-548.804"/>
<polygon fill="#191970" stroke="#191970" points="1025.4276,-545.3621 1014.8337,-545.5011 1023.2021,-551.9989 1025.4276,-545.3621"/>
</g>
<!-- Node35 -->
<g id="node36" class="node">
<title>Node35</title>
<g id="a_node36"><a xlink:href="JointState_8h.html" target="_top" xlink:title="iDynTree/Model/JointState.h">
<polygon fill="none" stroke="#000000" points="363,-470.5 363,-489.5 514,-489.5 514,-470.5 363,-470.5"/>
<text text-anchor="middle" x="438.5" y="-477.5" font-family="FreeSans.ttf" font-size="10.00" fill="#000000">iDynTree/Model/JointState.h</text>
</a>
</g>
</g>
<!-- Node0&#45;&gt;Node35 -->
<g id="edge68" class="edge">
<title>Node0&#45;&gt;Node35</title>
<path fill="none" stroke="#191970" d="M1116.0652,-586.1361C1002.2373,-568.3057 658.9269,-514.5284 509.3904,-491.1045"/>
<polygon fill="#191970" stroke="#191970" points="509.816,-487.6286 499.3948,-489.5388 508.7326,-494.5442 509.816,-487.6286"/>
</g>
<!-- Node2 -->
<g id="node3" class="node">
<title>Node2</title>
<polygon fill="none" stroke="#bfbfbf" points="1074.5,-56.5 1074.5,-75.5 1118.5,-75.5 1118.5,-56.5 1074.5,-56.5"/>
<text text-anchor="middle" x="1096.5" y="-63.5" font-family="FreeSans.ttf" font-size="10.00" fill="#000000">string</text>
</g>
<!-- Node1&#45;&gt;Node2 -->
<g id="edge2" class="edge">
<title>Node1&#45;&gt;Node2</title>
<path fill="none" stroke="#191970" d="M1586.8471,-291.4861C1580.7903,-259.7817 1556.663,-157.1836 1491.5,-112 1461.8553,-91.4446 1217.3308,-73.7919 1128.551,-68.0033"/>
<polygon fill="#191970" stroke="#191970" points="1128.7257,-64.5074 1118.5212,-67.3568 1128.2753,-71.4929 1128.7257,-64.5074"/>
</g>
<!-- Node3&#45;&gt;Node2 -->
<g id="edge4" class="edge">
<title>Node3&#45;&gt;Node2</title>
<path fill="none" stroke="#191970" d="M1423.5264,-470.3462C1440.9464,-450.6624 1477.5,-403.7849 1477.5,-357 1477.5,-357 1477.5,-357 1477.5,-183.5 1477.5,-110.7574 1220.6849,-78.2579 1128.7496,-68.9542"/>
<polygon fill="#191970" stroke="#191970" points="1128.926,-65.4547 1118.631,-67.9571 1128.2395,-72.421 1128.926,-65.4547"/>
</g>
<!-- Node4&#45;&gt;Node3 -->
<g id="edge66" class="edge">
<title>Node4&#45;&gt;Node3</title>
<path fill="none" stroke="#191970" d="M1059.5895,-526.4369C1136.1353,-516.4216 1255.9798,-500.741 1334.8833,-490.4171"/>
<polygon fill="#191970" stroke="#191970" points="1335.7945,-493.8278 1345.2559,-489.06 1334.8863,-486.887 1335.7945,-493.8278"/>
</g>
<!-- Node5 -->
<g id="node6" class="node">
<title>Node5</title>
<g id="a_node6"><a xlink:href="Transform_8h.html" target="_top" xlink:title="iDynTree/Core/Transform.h">
<polygon fill="none" stroke="#000000" points="964.5,-347.5 964.5,-366.5 1110.5,-366.5 1110.5,-347.5 964.5,-347.5"/>
<text text-anchor="middle" x="1037.5" y="-354.5" font-family="FreeSans.ttf" font-size="10.00" fill="#000000">iDynTree/Core/Transform.h</text>
</a>
</g>
</g>
<!-- Node4&#45;&gt;Node5 -->
<g id="edge6" class="edge">
<title>Node4&#45;&gt;Node5</title>
<path fill="none" stroke="#191970" d="M995.3721,-526.206C1002.8198,-517.3971 1013.0859,-503.7604 1018.5,-490 1033.4526,-451.9966 1036.8395,-403.7628 1037.4868,-377.07"/>
<polygon fill="#191970" stroke="#191970" points="1040.9908,-376.7831 1037.6228,-366.7379 1033.9914,-376.691 1040.9908,-376.7831"/>
</g>
<!-- Node27 -->
<g id="node28" class="node">
<title>Node27</title>
<g id="a_node28"><a xlink:href="Twist_8h.html" target="_top" xlink:title="iDynTree/Core/Twist.h">
<polygon fill="none" stroke="#000000" points="721.5,-470.5 721.5,-489.5 843.5,-489.5 843.5,-470.5 721.5,-470.5"/>
<text text-anchor="middle" x="782.5" y="-477.5" font-family="FreeSans.ttf" font-size="10.00" fill="#000000">iDynTree/Core/Twist.h</text>
</a>
</g>
</g>
<!-- Node4&#45;&gt;Node27 -->
<g id="edge45" class="edge">
<title>Node4&#45;&gt;Node27</title>
<path fill="none" stroke="#191970" d="M951.4311,-526.3733C917.0685,-516.9404 864.5608,-502.5265 827.2149,-492.2747"/>
<polygon fill="#191970" stroke="#191970" points="827.681,-488.7732 817.1112,-489.5011 825.828,-495.5235 827.681,-488.7732"/>
</g>
<!-- Node30 -->
<g id="node31" class="node">
<title>Node30</title>
<g id="a_node31"><a xlink:href="SpatialAcc_8h.html" target="_top" xlink:title="iDynTree/Core/SpatialAcc.h">
<polygon fill="none" stroke="#000000" points="861.5,-470.5 861.5,-489.5 1009.5,-489.5 1009.5,-470.5 861.5,-470.5"/>
<text text-anchor="middle" x="935.5" y="-477.5" font-family="FreeSans.ttf" font-size="10.00" fill="#000000">iDynTree/Core/SpatialAcc.h</text>
</a>
</g>
</g>
<!-- Node4&#45;&gt;Node30 -->
<g id="edge56" class="edge">
<title>Node4&#45;&gt;Node30</title>
<path fill="none" stroke="#191970" d="M977.6165,-526.2455C970.3034,-518.2155 959.7609,-506.6394 951.0533,-497.0781"/>
<polygon fill="#191970" stroke="#191970" points="953.6028,-494.6795 944.2817,-489.6427 948.4273,-499.3928 953.6028,-494.6795"/>
</g>
<!-- Node31 -->
<g id="node32" class="node">
<title>Node31</title>
<g id="a_node32"><a xlink:href="Wrench_8h.html" target="_top" xlink:title="iDynTree/Core/Wrench.h">
<polygon fill="none" stroke="#000000" points="532,-470.5 532,-489.5 665,-489.5 665,-470.5 532,-470.5"/>
<text text-anchor="middle" x="598.5" y="-477.5" font-family="FreeSans.ttf" font-size="10.00" fill="#000000">iDynTree/Core/Wrench.h</text>
</a>
</g>
</g>
<!-- Node4&#45;&gt;Node31 -->
<g id="edge58" class="edge">
<title>Node4&#45;&gt;Node31</title>
<path fill="none" stroke="#191970" d="M920.2413,-526.4369C852.1641,-516.6113 746.3079,-501.3331 674.7809,-491.0096"/>
<polygon fill="#191970" stroke="#191970" points="674.8829,-487.4881 664.4854,-489.5237 673.8829,-494.4164 674.8829,-487.4881"/>
</g>
<!-- Node33 -->
<g id="node34" class="node">
<title>Node33</title>
<g id="a_node34"><a xlink:href="ArticulatedBodyInertia_8h.html" target="_top" xlink:title="iDynTree/Core/Articulated\lBodyInertia.h">
<polygon fill="none" stroke="#000000" points="1308,-168.5 1308,-198.5 1449,-198.5 1449,-168.5 1308,-168.5"/>
<text text-anchor="start" x="1316" y="-186.5" font-family="FreeSans.ttf" font-size="10.00" fill="#000000">iDynTree/Core/Articulated</text>
<text text-anchor="middle" x="1378.5" y="-175.5" font-family="FreeSans.ttf" font-size="10.00" fill="#000000">BodyInertia.h</text>
</a>
</g>
</g>
<!-- Node4&#45;&gt;Node33 -->
<g id="edge63" class="edge">
<title>Node4&#45;&gt;Node33</title>
<path fill="none" stroke="#191970" d="M1051.5,-526.4622C1147.896,-510.462 1317.5,-474.3716 1317.5,-418.5 1317.5,-418.5 1317.5,-418.5 1317.5,-301 1317.5,-264.9261 1340.4281,-228.92 1358.1707,-206.4576"/>
<polygon fill="#191970" stroke="#191970" points="1361.0275,-208.4933 1364.6582,-198.54 1355.613,-204.0568 1361.0275,-208.4933"/>
</g>
<!-- Node34 -->
<g id="node35" class="node">
<title>Node34</title>
<polygon fill="none" stroke="#bfbfbf" points="586,-409 586,-428 633,-428 633,-409 586,-409"/>
<text text-anchor="middle" x="609.5" y="-416" font-family="FreeSans.ttf" font-size="10.00" fill="#000000">vector</text>
</g>
<!-- Node4&#45;&gt;Node34 -->
<g id="edge67" class="edge">
<title>Node4&#45;&gt;Node34</title>
<path fill="none" stroke="#191970" d="M911.9737,-527.2124C843.5901,-518.4768 747.738,-504.3436 712.5,-490 679.8331,-476.703 647.2578,-451.5968 627.7434,-434.956"/>
<polygon fill="#191970" stroke="#191970" points="629.8185,-432.1219 619.9802,-428.1903 625.2194,-437.399 629.8185,-432.1219"/>
</g>
<!-- Node5&#45;&gt;Node2 -->
<g id="edge44" class="edge">
<title>Node5&#45;&gt;Node2</title>
<path fill="none" stroke="#191970" d="M1076.6504,-347.4862C1145.1417,-329.6906 1279.5,-289.1541 1279.5,-245 1279.5,-245 1279.5,-245 1279.5,-183.5 1279.5,-112.5305 1180.8397,-82.4326 1128.4023,-71.4478"/>
<polygon fill="#191970" stroke="#191970" points="1129.0638,-68.0109 1118.5741,-69.4992 1127.7024,-74.8773 1129.0638,-68.0109"/>
</g>
<!-- Node6 -->
<g id="node7" class="node">
<title>Node6</title>
<g id="a_node7"><a xlink:href="Position_8h.html" target="_top" xlink:title="iDynTree/Core/Position.h">
<polygon fill="none" stroke="#000000" points="865.5,-291.5 865.5,-310.5 1001.5,-310.5 1001.5,-291.5 865.5,-291.5"/>
<text text-anchor="middle" x="933.5" y="-298.5" font-family="FreeSans.ttf" font-size="10.00" fill="#000000">iDynTree/Core/Position.h</text>
</a>
</g>
</g>
<!-- Node5&#45;&gt;Node6 -->
<g id="edge7" class="edge">
<title>Node5&#45;&gt;Node6</title>
<path fill="none" stroke="#191970" d="M1019.3846,-347.2455C1003.055,-338.4527 978.829,-325.4079 960.2661,-315.4125"/>
<polygon fill="#191970" stroke="#191970" points="961.8719,-312.3021 951.4078,-310.6427 958.5532,-318.4654 961.8719,-312.3021"/>
</g>
<!-- Node22 -->
<g id="node23" class="node">
<title>Node22</title>
<g id="a_node23"><a xlink:href="Rotation_8h.html" target="_top" xlink:title="iDynTree/Core/Rotation.h">
<polygon fill="none" stroke="#000000" points="768,-235.5 768,-254.5 905,-254.5 905,-235.5 768,-235.5"/>
<text text-anchor="middle" x="836.5" y="-242.5" font-family="FreeSans.ttf" font-size="10.00" fill="#000000">iDynTree/Core/Rotation.h</text>
</a>
</g>
</g>
<!-- Node5&#45;&gt;Node22 -->
<g id="edge42" class="edge">
<title>Node5&#45;&gt;Node22</title>
<path fill="none" stroke="#191970" d="M973.102,-347.4689C928.1543,-339.5798 873.3184,-327.0723 856.5,-311 843.9462,-299.0031 839.1975,-279.4164 837.4394,-264.69"/>
<polygon fill="#191970" stroke="#191970" points="840.9156,-264.2575 836.5983,-254.5822 833.9398,-264.8381 840.9156,-264.2575"/>
</g>
<!-- Node25 -->
<g id="node26" class="node">
<title>Node25</title>
<g id="a_node26"><a xlink:href="MatrixFixSize_8h.html" target="_top" xlink:title="iDynTree/Core/MatrixFixSize.h">
<polygon fill="none" stroke="#000000" points="728,-112.5 728,-131.5 889,-131.5 889,-112.5 728,-112.5"/>
<text text-anchor="middle" x="808.5" y="-119.5" font-family="FreeSans.ttf" font-size="10.00" fill="#000000">iDynTree/Core/MatrixFixSize.h</text>
</a>
</g>
</g>
<!-- Node5&#45;&gt;Node25 -->
<g id="edge43" class="edge">
<title>Node5&#45;&gt;Node25</title>
<path fill="none" stroke="#191970" d="M1055.2764,-347.4205C1105.7258,-319.0781 1242.4953,-233.5228 1184.5,-168 1165.868,-146.9496 1004.391,-133.498 899.1954,-126.8852"/>
<polygon fill="#191970" stroke="#191970" points="899.3946,-123.391 889.1975,-126.2666 898.9623,-130.3776 899.3946,-123.391"/>
</g>
<!-- Node6&#45;&gt;Node2 -->
<g id="edge41" class="edge">
<title>Node6&#45;&gt;Node2</title>
<path fill="none" stroke="#191970" d="M1001.7359,-293.9948C1061.1702,-283.8789 1143.9886,-259.1915 1184.5,-199 1213.003,-156.6506 1154.803,-106.3142 1120.0048,-81.4625"/>
<polygon fill="#191970" stroke="#191970" points="1121.9387,-78.5444 1111.729,-75.7137 1117.9451,-84.2934 1121.9387,-78.5444"/>
</g>
<!-- Node7 -->
<g id="node8" class="node">
<title>Node7</title>
<g id="a_node8"><a xlink:href="PositionRaw_8h.html" target="_top" xlink:title="iDynTree/Core/PositionRaw.h">
<polygon fill="none" stroke="#000000" points="843.5,-174 843.5,-193 999.5,-193 999.5,-174 843.5,-174"/>
<text text-anchor="middle" x="921.5" y="-181" font-family="FreeSans.ttf" font-size="10.00" fill="#000000">iDynTree/Core/PositionRaw.h</text>
</a>
</g>
</g>
<!-- Node6&#45;&gt;Node7 -->
<g id="edge8" class="edge">
<title>Node6&#45;&gt;Node7</title>
<path fill="none" stroke="#191970" d="M932.518,-291.3845C930.5578,-272.1913 926.125,-228.786 923.5187,-203.2663"/>
<polygon fill="#191970" stroke="#191970" points="926.9935,-202.841 922.4956,-193.2484 920.0298,-203.5523 926.9935,-202.841"/>
</g>
<!-- Node6&#45;&gt;Node22 -->
<g id="edge27" class="edge">
<title>Node6&#45;&gt;Node22</title>
<path fill="none" stroke="#191970" d="M916.6039,-291.2455C901.582,-282.5731 879.3957,-269.7645 862.179,-259.825"/>
<polygon fill="#191970" stroke="#191970" points="863.6128,-256.6114 853.2025,-254.6427 860.1129,-262.6737 863.6128,-256.6114"/>
</g>
<!-- Node7&#45;&gt;Node2 -->
<g id="edge26" class="edge">
<title>Node7&#45;&gt;Node2</title>
<path fill="none" stroke="#191970" d="M935.821,-173.8845C966.073,-153.5724 1036.7125,-106.1431 1073.4239,-81.4939"/>
<polygon fill="#191970" stroke="#191970" points="1075.6299,-84.2285 1081.9811,-75.7484 1071.7279,-78.417 1075.6299,-84.2285"/>
</g>
<!-- Node8 -->
<g id="node9" class="node">
<title>Node8</title>
<g id="a_node9"><a xlink:href="VectorFixSize_8h.html" target="_top" xlink:title="iDynTree/Core/VectorFixSize.h">
<polygon fill="none" stroke="#000000" points="510,-112.5 510,-131.5 671,-131.5 671,-112.5 510,-112.5"/>
<text text-anchor="middle" x="590.5" y="-119.5" font-family="FreeSans.ttf" font-size="10.00" fill="#000000">iDynTree/Core/VectorFixSize.h</text>
</a>
</g>
</g>
<!-- Node7&#45;&gt;Node8 -->
<g id="edge9" class="edge">
<title>Node7&#45;&gt;Node8</title>
<path fill="none" stroke="#191970" d="M870.1444,-173.9581C811.2311,-163.012 714.6935,-145.0752 651.8701,-133.4026"/>
<polygon fill="#191970" stroke="#191970" points="652.1748,-129.8994 641.7037,-131.5137 650.8961,-136.7816 652.1748,-129.8994"/>
</g>
<!-- Node8&#45;&gt;Node2 -->
<g id="edge22" class="edge">
<title>Node8&#45;&gt;Node2</title>
<path fill="none" stroke="#191970" d="M671.2367,-113.0647C784.4927,-100.5305 985.4568,-78.2894 1063.8778,-69.6104"/>
<polygon fill="#191970" stroke="#191970" points="1064.5538,-73.057 1074.1081,-68.4782 1063.7838,-66.0995 1064.5538,-73.057"/>
</g>
<!-- Node9 -->
<g id="node10" class="node">
<title>Node9</title>
<g id="a_node10"><a xlink:href="Utils_8h.html" target="_top" xlink:title="iDynTree/Core/Utils.h">
<polygon fill="none" stroke="#000000" points="422,-56.5 422,-75.5 541,-75.5 541,-56.5 422,-56.5"/>
<text text-anchor="middle" x="481.5" y="-63.5" font-family="FreeSans.ttf" font-size="10.00" fill="#000000">iDynTree/Core/Utils.h</text>
</a>
</g>
</g>
<!-- Node8&#45;&gt;Node9 -->
<g id="edge10" class="edge">
<title>Node8&#45;&gt;Node9</title>
<path fill="none" stroke="#191970" d="M571.5136,-112.2455C554.3208,-103.4125 528.7762,-90.2887 509.2868,-80.2758"/>
<polygon fill="#191970" stroke="#191970" points="510.763,-77.0993 500.2688,-75.6427 507.5641,-83.3257 510.763,-77.0993"/>
</g>
<!-- Node11 -->
<g id="node12" class="node">
<title>Node11</title>
<g id="a_node12"><a xlink:href="Span_8h.html" target="_top" xlink:title="iDynTree/Core/Span.h">
<polygon fill="none" stroke="#000000" points="276,-56.5 276,-75.5 397,-75.5 397,-56.5 276,-56.5"/>
<text text-anchor="middle" x="336.5" y="-63.5" font-family="FreeSans.ttf" font-size="10.00" fill="#000000">iDynTree/Core/Span.h</text>
</a>
</g>
</g>
<!-- Node8&#45;&gt;Node11 -->
<g id="edge12" class="edge">
<title>Node8&#45;&gt;Node11</title>
<path fill="none" stroke="#191970" d="M547.1244,-112.4369C503.563,-102.8328 436.3723,-88.0191 389.6366,-77.7152"/>
<polygon fill="#191970" stroke="#191970" points="390.2157,-74.2588 379.6966,-75.5237 388.7085,-81.0947 390.2157,-74.2588"/>
</g>
<!-- Node12 -->
<g id="node13" class="node">
<title>Node12</title>
<polygon fill="none" stroke="#bfbfbf" points="617.5,-.5 617.5,-19.5 669.5,-19.5 669.5,-.5 617.5,-.5"/>
<text text-anchor="middle" x="643.5" y="-7.5" font-family="FreeSans.ttf" font-size="10.00" fill="#000000">cassert</text>
</g>
<!-- Node8&#45;&gt;Node12 -->
<g id="edge24" class="edge">
<title>Node8&#45;&gt;Node12</title>
<path fill="none" stroke="#191970" d="M599.1684,-112.4431C606.8032,-103.5751 617.7324,-89.7145 624.5,-76 631.7551,-61.2976 636.6979,-43.3487 639.7193,-29.8821"/>
<polygon fill="#191970" stroke="#191970" points="643.2077,-30.297 641.8139,-19.7942 636.3539,-28.8738 643.2077,-30.297"/>
</g>
<!-- Node20 -->
<g id="node21" class="node">
<title>Node20</title>
<polygon fill="none" stroke="#bfbfbf" points="559.5,-56.5 559.5,-75.5 615.5,-75.5 615.5,-56.5 559.5,-56.5"/>
<text text-anchor="middle" x="587.5" y="-63.5" font-family="FreeSans.ttf" font-size="10.00" fill="#000000">sstream</text>
</g>
<!-- Node8&#45;&gt;Node20 -->
<g id="edge23" class="edge">
<title>Node8&#45;&gt;Node20</title>
<path fill="none" stroke="#191970" d="M589.9774,-112.2455C589.586,-104.9382 589.0372,-94.6944 588.5556,-85.7046"/>
<polygon fill="#191970" stroke="#191970" points="592.0466,-85.4411 588.0166,-75.6427 585.0566,-85.8156 592.0466,-85.4411"/>
</g>
<!-- Node21 -->
<g id="node22" class="node">
<title>Node21</title>
<polygon fill="none" stroke="#bfbfbf" points="671.5,-56.5 671.5,-75.5 721.5,-75.5 721.5,-56.5 671.5,-56.5"/>
<text text-anchor="middle" x="696.5" y="-63.5" font-family="FreeSans.ttf" font-size="10.00" fill="#000000">cstring</text>
</g>
<!-- Node8&#45;&gt;Node21 -->
<g id="edge25" class="edge">
<title>Node8&#45;&gt;Node21</title>
<path fill="none" stroke="#191970" d="M608.9638,-112.2455C625.6074,-103.4527 650.2993,-90.4079 669.2192,-80.4125"/>
<polygon fill="#191970" stroke="#191970" points="671.0408,-83.4086 678.2478,-75.6427 667.7709,-77.2193 671.0408,-83.4086"/>
</g>
<!-- Node10 -->
<g id="node11" class="node">
<title>Node10</title>
<polygon fill="none" stroke="#bfbfbf" points="510,-.5 510,-19.5 563,-19.5 563,-.5 510,-.5"/>
<text text-anchor="middle" x="536.5" y="-7.5" font-family="FreeSans.ttf" font-size="10.00" fill="#000000">cstddef</text>
</g>
<!-- Node9&#45;&gt;Node10 -->
<g id="edge11" class="edge">
<title>Node9&#45;&gt;Node10</title>
<path fill="none" stroke="#191970" d="M491.0803,-56.2455C499.0458,-48.1352 510.5641,-36.4075 520.0079,-26.7919"/>
<polygon fill="#191970" stroke="#191970" points="522.5195,-29.2297 527.0295,-19.6427 517.5253,-24.3247 522.5195,-29.2297"/>
</g>
<!-- Node11&#45;&gt;Node10 -->
<g id="edge16" class="edge">
<title>Node11&#45;&gt;Node10</title>
<path fill="none" stroke="#191970" d="M370.8812,-56.3733C406.9181,-46.2829 463.3104,-30.4931 500.0897,-20.1949"/>
<polygon fill="#191970" stroke="#191970" points="501.2241,-23.5119 509.9101,-17.4452 499.3367,-16.7712 501.2241,-23.5119"/>
</g>
<!-- Node11&#45;&gt;Node12 -->
<g id="edge13" class="edge">
<title>Node11&#45;&gt;Node12</title>
<path fill="none" stroke="#191970" d="M388.9264,-56.4369C451.06,-45.1031 552.9671,-26.5141 607.0795,-16.6435"/>
<polygon fill="#191970" stroke="#191970" points="608.0292,-20.0281 617.2388,-14.7903 606.773,-13.1417 608.0292,-20.0281"/>
</g>
<!-- Node13 -->
<g id="node14" class="node">
<title>Node13</title>
<polygon fill="none" stroke="#bfbfbf" points="233.5,-.5 233.5,-19.5 297.5,-19.5 297.5,-.5 233.5,-.5"/>
<text text-anchor="middle" x="265.5" y="-7.5" font-family="FreeSans.ttf" font-size="10.00" fill="#000000">algorithm</text>
</g>
<!-- Node11&#45;&gt;Node13 -->
<g id="edge14" class="edge">
<title>Node11&#45;&gt;Node13</title>
<path fill="none" stroke="#191970" d="M324.1327,-56.2455C313.5446,-47.8943 298.0936,-35.7076 285.7107,-25.9408"/>
<polygon fill="#191970" stroke="#191970" points="287.7447,-23.0875 277.7255,-19.6427 283.4097,-28.5837 287.7447,-23.0875"/>
</g>
<!-- Node14 -->
<g id="node15" class="node">
<title>Node14</title>
<polygon fill="none" stroke="#bfbfbf" points="315.5,-.5 315.5,-19.5 357.5,-19.5 357.5,-.5 315.5,-.5"/>
<text text-anchor="middle" x="336.5" y="-7.5" font-family="FreeSans.ttf" font-size="10.00" fill="#000000">array</text>
</g>
<!-- Node11&#45;&gt;Node14 -->
<g id="edge15" class="edge">
<title>Node11&#45;&gt;Node14</title>
<path fill="none" stroke="#191970" d="M336.5,-56.2455C336.5,-48.9382 336.5,-38.6944 336.5,-29.7046"/>
<polygon fill="#191970" stroke="#191970" points="340.0001,-29.6426 336.5,-19.6427 333.0001,-29.6427 340.0001,-29.6426"/>
</g>
<!-- Node15 -->
<g id="node16" class="node">
<title>Node15</title>
<polygon fill="none" stroke="#bfbfbf" points="376,-.5 376,-19.5 429,-19.5 429,-.5 376,-.5"/>
<text text-anchor="middle" x="402.5" y="-7.5" font-family="FreeSans.ttf" font-size="10.00" fill="#000000">iterator</text>
</g>
<!-- Node11&#45;&gt;Node15 -->
<g id="edge17" class="edge">
<title>Node11&#45;&gt;Node15</title>
<path fill="none" stroke="#191970" d="M347.9963,-56.2455C357.7442,-47.9746 371.9259,-35.9416 383.3798,-26.2232"/>
<polygon fill="#191970" stroke="#191970" points="385.7747,-28.7813 391.1354,-19.6427 381.2459,-23.4437 385.7747,-28.7813"/>
</g>
<!-- Node16 -->
<g id="node17" class="node">
<title>Node16</title>
<polygon fill="none" stroke="#bfbfbf" points="447.5,-.5 447.5,-19.5 491.5,-19.5 491.5,-.5 447.5,-.5"/>
<text text-anchor="middle" x="469.5" y="-7.5" font-family="FreeSans.ttf" font-size="10.00" fill="#000000">limits</text>
</g>
<!-- Node11&#45;&gt;Node16 -->
<g id="edge18" class="edge">
<title>Node11&#45;&gt;Node16</title>
<path fill="none" stroke="#191970" d="M359.3635,-56.3733C381.0355,-47.2482 413.7779,-33.462 437.9331,-23.2913"/>
<polygon fill="#191970" stroke="#191970" points="439.5186,-26.4214 447.3768,-19.315 436.8022,-19.9699 439.5186,-26.4214"/>
</g>
<!-- Node17 -->
<g id="node18" class="node">
<title>Node17</title>
<polygon fill="none" stroke="#bfbfbf" points="0,-.5 0,-19.5 65,-19.5 65,-.5 0,-.5"/>
<text text-anchor="middle" x="32.5" y="-7.5" font-family="FreeSans.ttf" font-size="10.00" fill="#000000">stdexcept</text>
</g>
<!-- Node11&#45;&gt;Node17 -->
<g id="edge19" class="edge">
<title>Node11&#45;&gt;Node17</title>
<path fill="none" stroke="#191970" d="M275.9597,-56.5773C224.81,-48.3508 149.3979,-35.6024 75.1245,-20.2481"/>
<polygon fill="#191970" stroke="#191970" points="75.6334,-16.779 65.1295,-18.1644 74.2047,-23.6317 75.6334,-16.779"/>
</g>
<!-- Node18 -->
<g id="node19" class="node">
<title>Node18</title>
<polygon fill="none" stroke="#bfbfbf" points="83,-.5 83,-19.5 152,-19.5 152,-.5 83,-.5"/>
<text text-anchor="middle" x="117.5" y="-7.5" font-family="FreeSans.ttf" font-size="10.00" fill="#000000">type_traits</text>
</g>
<!-- Node11&#45;&gt;Node18 -->
<g id="edge20" class="edge">
<title>Node11&#45;&gt;Node18</title>
<path fill="none" stroke="#191970" d="M298.8526,-56.3733C260.8588,-46.6579 202.2018,-31.6589 161.9464,-21.3653"/>
<polygon fill="#191970" stroke="#191970" points="162.6876,-17.9423 152.1323,-18.8557 160.9534,-24.7241 162.6876,-17.9423"/>
</g>
<!-- Node19 -->
<g id="node20" class="node">
<title>Node19</title>
<polygon fill="none" stroke="#bfbfbf" points="170,-.5 170,-19.5 215,-19.5 215,-.5 170,-.5"/>
<text text-anchor="middle" x="192.5" y="-7.5" font-family="FreeSans.ttf" font-size="10.00" fill="#000000">utility</text>
</g>
<!-- Node11&#45;&gt;Node19 -->
<g id="edge21" class="edge">
<title>Node11&#45;&gt;Node19</title>
<path fill="none" stroke="#191970" d="M311.7455,-56.3733C287.6447,-47.0007 250.899,-32.7107 224.5707,-22.472"/>
<polygon fill="#191970" stroke="#191970" points="225.627,-19.1274 215.0383,-18.7649 223.0898,-25.6514 225.627,-19.1274"/>
</g>
<!-- Node22&#45;&gt;Node2 -->
<g id="edge28" class="edge">
<title>Node22&#45;&gt;Node2</title>
<path fill="none" stroke="#191970" d="M832.984,-235.4824C827.8779,-219.8761 820.4604,-188.5318 834.5,-168 848.1601,-148.0231 997.8915,-97.7839 1064.6715,-76.1587"/>
<polygon fill="#191970" stroke="#191970" points="1065.8277,-79.4634 1074.2704,-73.0625 1063.6788,-72.8014 1065.8277,-79.4634"/>
</g>
<!-- Node22&#45;&gt;Node8 -->
<g id="edge40" class="edge">
<title>Node22&#45;&gt;Node8</title>
<path fill="none" stroke="#191970" d="M828.8632,-235.4162C815.3811,-219.1355 785.7234,-186.0873 753.5,-168 724.4739,-151.7073 689.2453,-140.829 658.9756,-133.7625"/>
<polygon fill="#191970" stroke="#191970" points="659.4396,-130.2798 648.9164,-131.5098 657.9098,-137.1106 659.4396,-130.2798"/>
</g>
<!-- Node23 -->
<g id="node24" class="node">
<title>Node23</title>
<g id="a_node24"><a xlink:href="GeomVector3_8h.html" target="_top" xlink:title="iDynTree/Core/GeomVector3.h">
<polygon fill="none" stroke="#000000" points="548,-174 548,-193 711,-193 711,-174 548,-174"/>
<text text-anchor="middle" x="629.5" y="-181" font-family="FreeSans.ttf" font-size="10.00" fill="#000000">iDynTree/Core/GeomVector3.h</text>
</a>
</g>
</g>
<!-- Node22&#45;&gt;Node23 -->
<g id="edge29" class="edge">
<title>Node22&#45;&gt;Node23</title>
<path fill="none" stroke="#191970" d="M804.1563,-235.3906C768.382,-224.7621 710.6253,-207.6025 671.4095,-195.9514"/>
<polygon fill="#191970" stroke="#191970" points="672.1993,-192.5349 661.6166,-193.0419 670.2057,-199.245 672.1993,-192.5349"/>
</g>
<!-- Node24 -->
<g id="node25" class="node">
<title>Node24</title>
<g id="a_node25"><a xlink:href="RotationRaw_8h.html" target="_top" xlink:title="iDynTree/Core/RotationRaw.h">
<polygon fill="none" stroke="#000000" points="1017.5,-174 1017.5,-193 1175.5,-193 1175.5,-174 1017.5,-174"/>
<text text-anchor="middle" x="1096.5" y="-181" font-family="FreeSans.ttf" font-size="10.00" fill="#000000">iDynTree/Core/RotationRaw.h</text>
</a>
</g>
</g>
<!-- Node22&#45;&gt;Node24 -->
<g id="edge31" class="edge">
<title>Node22&#45;&gt;Node24</title>
<path fill="none" stroke="#191970" d="M876.8397,-235.4581C922.4768,-224.6632 996.857,-207.0694 1046.234,-195.3899"/>
<polygon fill="#191970" stroke="#191970" points="1047.1398,-198.7722 1056.0656,-193.0643 1045.5285,-191.9602 1047.1398,-198.7722"/>
</g>
<!-- Node23&#45;&gt;Node8 -->
<g id="edge30" class="edge">
<title>Node23&#45;&gt;Node8</title>
<path fill="none" stroke="#191970" d="M623.4063,-173.8906C617.7157,-164.917 609.0728,-151.2879 602.0726,-140.2491"/>
<polygon fill="#191970" stroke="#191970" points="604.9909,-138.3155 596.6797,-131.7449 599.0793,-142.0644 604.9909,-138.3155"/>
</g>
<!-- Node24&#45;&gt;Node2 -->
<g id="edge39" class="edge">
<title>Node24&#45;&gt;Node2</title>
<path fill="none" stroke="#191970" d="M1096.5,-173.8845C1096.5,-154.6913 1096.5,-111.286 1096.5,-85.7663"/>
<polygon fill="#191970" stroke="#191970" points="1100.0001,-85.7483 1096.5,-75.7484 1093.0001,-85.7484 1100.0001,-85.7483"/>
</g>
<!-- Node24&#45;&gt;Node25 -->
<g id="edge32" class="edge">
<title>Node24&#45;&gt;Node25</title>
<path fill="none" stroke="#191970" d="M1051.816,-173.9581C1000.9475,-163.0956 917.8405,-145.3488 863.1549,-133.6711"/>
<polygon fill="#191970" stroke="#191970" points="863.7993,-130.2299 853.2888,-131.5643 862.3374,-137.0755 863.7993,-130.2299"/>
</g>
<!-- Node25&#45;&gt;Node2 -->
<g id="edge36" class="edge">
<title>Node25&#45;&gt;Node2</title>
<path fill="none" stroke="#191970" d="M857.6817,-112.4369C916.777,-100.9461 1014.2246,-81.998 1064.4162,-72.2385"/>
<polygon fill="#191970" stroke="#191970" points="1065.2303,-75.6459 1074.3784,-70.3014 1063.8942,-68.7745 1065.2303,-75.6459"/>
</g>
<!-- Node25&#45;&gt;Node9 -->
<g id="edge33" class="edge">
<title>Node25&#45;&gt;Node9</title>
<path fill="none" stroke="#191970" d="M752.6582,-112.4369C695.7542,-102.6918 607.5304,-87.5832 547.2764,-77.2645"/>
<polygon fill="#191970" stroke="#191970" points="547.5588,-73.7619 537.1114,-75.5237 546.3771,-80.6615 547.5588,-73.7619"/>
</g>
<!-- Node25&#45;&gt;Node12 -->
<g id="edge34" class="edge">
<title>Node25&#45;&gt;Node12</title>
<path fill="none" stroke="#191970" d="M811.7979,-112.3462C815.9059,-98.3823 820.973,-72.426 808.5,-56 792.9743,-35.5539 723.3363,-21.763 679.64,-14.9507"/>
<polygon fill="#191970" stroke="#191970" points="680.0824,-11.4779 669.6721,-13.447 679.0381,-18.3996 680.0824,-11.4779"/>
</g>
<!-- Node25&#45;&gt;Node20 -->
<g id="edge38" class="edge">
<title>Node25&#45;&gt;Node20</title>
<path fill="none" stroke="#191970" d="M770.7599,-112.4369C730.1867,-102.1559 666.0542,-85.9051 625.4139,-75.6071"/>
<polygon fill="#191970" stroke="#191970" points="626.1698,-72.1881 615.6164,-73.1245 624.4503,-78.9737 626.1698,-72.1881"/>
</g>
<!-- Node25&#45;&gt;Node21 -->
<g id="edge35" class="edge">
<title>Node25&#45;&gt;Node21</title>
<path fill="none" stroke="#191970" d="M789.2465,-112.3733C771.4288,-103.4644 744.7253,-90.1127 724.5406,-80.0203"/>
<polygon fill="#191970" stroke="#191970" points="726.0118,-76.8428 715.5022,-75.5011 722.8813,-83.1038 726.0118,-76.8428"/>
</g>
<!-- Node26 -->
<g id="node27" class="node">
<title>Node26</title>
<polygon fill="none" stroke="#bfbfbf" points="739.5,-56.5 739.5,-75.5 799.5,-75.5 799.5,-56.5 739.5,-56.5"/>
<text text-anchor="middle" x="769.5" y="-63.5" font-family="FreeSans.ttf" font-size="10.00" fill="#000000">iostream</text>
</g>
<!-- Node25&#45;&gt;Node26 -->
<g id="edge37" class="edge">
<title>Node25&#45;&gt;Node26</title>
<path fill="none" stroke="#191970" d="M801.7067,-112.2455C796.2822,-104.4564 788.5339,-93.3308 781.9967,-83.9439"/>
<polygon fill="#191970" stroke="#191970" points="784.8025,-81.8485 776.2154,-75.6427 779.0583,-85.849 784.8025,-81.8485"/>
</g>
<!-- Node28 -->
<g id="node29" class="node">
<title>Node28</title>
<g id="a_node29"><a xlink:href="SpatialMotionVector_8h.html" target="_top" xlink:title="iDynTree/Core/SpatialMotion\lVector.h">
<polygon fill="none" stroke="#000000" points="662,-403.5 662,-433.5 817,-433.5 817,-403.5 662,-403.5"/>
<text text-anchor="start" x="670" y="-421.5" font-family="FreeSans.ttf" font-size="10.00" fill="#000000">iDynTree/Core/SpatialMotion</text>
<text text-anchor="middle" x="739.5" y="-410.5" font-family="FreeSans.ttf" font-size="10.00" fill="#000000">Vector.h</text>
</a>
</g>
</g>
<!-- Node27&#45;&gt;Node28 -->
<g id="edge46" class="edge">
<title>Node27&#45;&gt;Node28</title>
<path fill="none" stroke="#191970" d="M775.7813,-470.3906C770.4467,-462.761 762.759,-451.7658 755.8321,-441.8588"/>
<polygon fill="#191970" stroke="#191970" points="758.6176,-439.7345 750.019,-433.5446 752.8808,-443.7456 758.6176,-439.7345"/>
</g>
<!-- Node28&#45;&gt;Node8 -->
<g id="edge47" class="edge">
<title>Node28&#45;&gt;Node8</title>
<path fill="none" stroke="#191970" d="M739.5,-403.2899C739.5,-380.892 739.5,-337.7188 739.5,-301 739.5,-301 739.5,-301 739.5,-245 739.5,-209.6422 743.3725,-194.0821 719.5,-168 704.6711,-151.7986 683.7484,-141.3 663.0601,-134.498"/>
<polygon fill="#191970" stroke="#191970" points="663.8588,-131.083 653.2736,-131.5366 661.8312,-137.783 663.8588,-131.083"/>
</g>
<!-- Node28&#45;&gt;Node23 -->
<g id="edge48" class="edge">
<title>Node28&#45;&gt;Node23</title>
<path fill="none" stroke="#191970" d="M732.4517,-403.4422C713.1834,-362.2781 659.6527,-247.9171 638.3808,-202.4726"/>
<polygon fill="#191970" stroke="#191970" points="641.4379,-200.7477 634.0285,-193.1746 635.0981,-203.7153 641.4379,-200.7477"/>
</g>
<!-- Node29 -->
<g id="node30" class="node">
<title>Node29</title>
<g id="a_node30"><a xlink:href="SpatialVector_8h.html" target="_top" xlink:title="iDynTree/Core/SpatialVector.h">
<polygon fill="none" stroke="#000000" points="511,-347.5 511,-366.5 672,-366.5 672,-347.5 511,-347.5"/>
<text text-anchor="middle" x="591.5" y="-354.5" font-family="FreeSans.ttf" font-size="10.00" fill="#000000">iDynTree/Core/SpatialVector.h</text>
</a>
</g>
</g>
<!-- Node28&#45;&gt;Node29 -->
<g id="edge49" class="edge">
<title>Node28&#45;&gt;Node29</title>
<path fill="none" stroke="#191970" d="M703.2951,-403.4554C679.0342,-393.374 647.3644,-380.2139 623.9288,-370.4755"/>
<polygon fill="#191970" stroke="#191970" points="625.0123,-367.1356 614.4347,-366.5303 622.3261,-373.5997 625.0123,-367.1356"/>
</g>
<!-- Node29&#45;&gt;Node6 -->
<g id="edge50" class="edge">
<title>Node29&#45;&gt;Node6</title>
<path fill="none" stroke="#191970" d="M649.9033,-347.4369C709.5406,-337.6717 802.0698,-322.5207 865.0965,-312.2006"/>
<polygon fill="#191970" stroke="#191970" points="866.0346,-315.5937 875.3376,-310.5237 864.9034,-308.6857 866.0346,-315.5937"/>
</g>
<!-- Node29&#45;&gt;Node9 -->
<g id="edge52" class="edge">
<title>Node29&#45;&gt;Node9</title>
<path fill="none" stroke="#191970" d="M556.4261,-347.3935C512.6605,-333.0216 443.5,-301.3894 443.5,-245 443.5,-245 443.5,-245 443.5,-183.5 443.5,-147.2454 460.0805,-107.6181 471.337,-84.8929"/>
<polygon fill="#191970" stroke="#191970" points="474.5965,-86.2076 476.0555,-75.7137 468.3708,-83.0073 474.5965,-86.2076"/>
</g>
<!-- Node29&#45;&gt;Node20 -->
<g id="edge55" class="edge">
<title>Node29&#45;&gt;Node20</title>
<path fill="none" stroke="#191970" d="M578.7516,-347.4694C558.2747,-331.2215 518.9874,-295.9168 505.5,-255 488.3719,-203.0384 501.6113,-186.7005 500.5,-132 500.3194,-123.1129 495.913,-119.6139 500.5,-112 511.2618,-94.1363 531.54,-82.8498 549.813,-75.9296"/>
<polygon fill="#191970" stroke="#191970" points="551.0996,-79.1881 559.4041,-72.6087 548.8093,-72.5733 551.0996,-79.1881"/>
</g>
<!-- Node29&#45;&gt;Node22 -->
<g id="edge51" class="edge">
<title>Node29&#45;&gt;Node22</title>
<path fill="none" stroke="#191970" d="M612.3886,-347.4509C655.783,-327.6135 755.8341,-281.8758 806.2701,-258.8194"/>
<polygon fill="#191970" stroke="#191970" points="808.0247,-261.8657 815.6643,-254.5249 805.1144,-255.4994 808.0247,-261.8657"/>
</g>
<!-- Node29&#45;&gt;Node23 -->
<g id="edge53" class="edge">
<title>Node29&#45;&gt;Node23</title>
<path fill="none" stroke="#191970" d="M593.5972,-347.4248C599.604,-319.999 616.965,-240.732 625.1423,-203.3964"/>
<polygon fill="#191970" stroke="#191970" points="628.6419,-203.7768 627.3625,-193.2595 621.8039,-202.2791 628.6419,-203.7768"/>
</g>
<!-- Node29&#45;&gt;Node26 -->
<g id="edge54" class="edge">
<title>Node29&#45;&gt;Node26</title>
<path fill="none" stroke="#191970" d="M583.4135,-347.2259C559.6124,-317.2273 494.1815,-225.0555 538.5,-168 578.1754,-116.9219 621.021,-159.6283 679.5,-132 706.9013,-119.0543 734.415,-97.2912 751.6755,-82.3171"/>
<polygon fill="#191970" stroke="#191970" points="754.1159,-84.8311 759.2798,-75.58 749.4739,-79.5917 754.1159,-84.8311"/>
</g>
<!-- Node30&#45;&gt;Node28 -->
<g id="edge57" class="edge">
<title>Node30&#45;&gt;Node28</title>
<path fill="none" stroke="#191970" d="M904.875,-470.3906C876.1383,-461.3737 832.421,-447.6563 797.1514,-436.5896"/>
<polygon fill="#191970" stroke="#191970" points="798.0362,-433.199 787.447,-433.5446 795.9405,-439.878 798.0362,-433.199"/>
</g>
<!-- Node32 -->
<g id="node33" class="node">
<title>Node32</title>
<g id="a_node33"><a xlink:href="SpatialForceVector_8h.html" target="_top" xlink:title="iDynTree/Core/SpatialForce\lVector.h">
<polygon fill="none" stroke="#000000" points="407.5,-403.5 407.5,-433.5 555.5,-433.5 555.5,-403.5 407.5,-403.5"/>
<text text-anchor="start" x="415.5" y="-421.5" font-family="FreeSans.ttf" font-size="10.00" fill="#000000">iDynTree/Core/SpatialForce</text>
<text text-anchor="middle" x="481.5" y="-410.5" font-family="FreeSans.ttf" font-size="10.00" fill="#000000">Vector.h</text>
</a>
</g>
</g>
<!-- Node31&#45;&gt;Node32 -->
<g id="edge59" class="edge">
<title>Node31&#45;&gt;Node32</title>
<path fill="none" stroke="#191970" d="M580.2188,-470.3906C563.9444,-461.8361 539.6212,-449.0509 519.1913,-438.3121"/>
<polygon fill="#191970" stroke="#191970" points="520.6016,-435.0994 510.1214,-433.5446 517.3446,-441.2955 520.6016,-435.0994"/>
</g>
<!-- Node32&#45;&gt;Node8 -->
<g id="edge60" class="edge">
<title>Node32&#45;&gt;Node8</title>
<path fill="none" stroke="#191970" d="M463.4891,-403.4232C441.0148,-382.8121 405.5,-343.5155 405.5,-301 405.5,-301 405.5,-301 405.5,-245 405.5,-182.5483 479.5121,-149.8909 533.9099,-134.3223"/>
<polygon fill="#191970" stroke="#191970" points="535.0954,-137.6266 543.8167,-131.6108 533.2474,-130.8749 535.0954,-137.6266"/>
</g>
<!-- Node32&#45;&gt;Node23 -->
<g id="edge61" class="edge">
<title>Node32&#45;&gt;Node23</title>
<path fill="none" stroke="#191970" d="M483.9525,-403.3595C486.7721,-388.4393 492.2461,-365.2864 501.5,-347 531.5744,-287.5709 584.9115,-228.7597 612.2674,-200.6303"/>
<polygon fill="#191970" stroke="#191970" points="615.037,-202.8061 619.5616,-193.226 610.0503,-197.8936 615.037,-202.8061"/>
</g>
<!-- Node32&#45;&gt;Node29 -->
<g id="edge62" class="edge">
<title>Node32&#45;&gt;Node29</title>
<path fill="none" stroke="#191970" d="M508.409,-403.4554C525.7968,-393.734 548.3049,-381.15 565.5084,-371.5317"/>
<polygon fill="#191970" stroke="#191970" points="567.4335,-374.4653 574.4539,-366.5303 564.0174,-368.3554 567.4335,-374.4653"/>
</g>
<!-- Node33&#45;&gt;Node2 -->
<g id="edge65" class="edge">
<title>Node33&#45;&gt;Node2</title>
<path fill="none" stroke="#191970" d="M1364.6985,-168.221C1349.0358,-151.8334 1321.9484,-126.2499 1293.5,-112 1239.4509,-84.9265 1169.0284,-73.4643 1128.6819,-68.8596"/>
<polygon fill="#191970" stroke="#191970" points="1128.9349,-65.3667 1118.6193,-67.7831 1128.1902,-72.327 1128.9349,-65.3667"/>
</g>
<!-- Node33&#45;&gt;Node25 -->
<g id="edge64" class="edge">
<title>Node33&#45;&gt;Node25</title>
<path fill="none" stroke="#191970" d="M1307.7486,-175.8663C1204.5729,-164.7342 1012.7977,-144.0426 899.3235,-131.7994"/>
<polygon fill="#191970" stroke="#191970" points="899.5855,-128.3074 889.2677,-130.7144 898.8345,-135.267 899.5855,-128.3074"/>
</g>
<!-- Node35&#45;&gt;Node8 -->
<g id="edge69" class="edge">
<title>Node35&#45;&gt;Node8</title>
<path fill="none" stroke="#191970" d="M428.0237,-470.2679C408.2739,-450.8058 367.5,-404.8335 367.5,-357 367.5,-357 367.5,-357 367.5,-245 367.5,-178.5845 444.2794,-147.7614 507.7341,-133.6285"/>
<polygon fill="#191970" stroke="#191970" points="508.7312,-136.9951 517.79,-131.5006 507.2821,-130.1467 508.7312,-136.9951"/>
</g>
<!-- Node35&#45;&gt;Node32 -->
<g id="edge73" class="edge">
<title>Node35&#45;&gt;Node32</title>
<path fill="none" stroke="#191970" d="M445.2188,-470.3906C450.5533,-462.761 458.241,-451.7658 465.1679,-441.8588"/>
<polygon fill="#191970" stroke="#191970" points="468.1192,-443.7456 470.981,-433.5446 462.3824,-439.7345 468.1192,-443.7456"/>
</g>
<!-- Node35&#45;&gt;Node34 -->
<g id="edge74" class="edge">
<title>Node35&#45;&gt;Node34</title>
<path fill="none" stroke="#191970" d="M465.2188,-470.3906C495.2685,-459.5832 544.0939,-442.0232 576.501,-430.3681"/>
<polygon fill="#191970" stroke="#191970" points="577.7669,-433.6323 585.9923,-426.9545 575.3978,-427.0454 577.7669,-433.6323"/>
</g>
<!-- Node36 -->
<g id="node37" class="node">
<title>Node36</title>
<g id="a_node37"><a xlink:href="VectorDynSize_8h.html" target="_top" xlink:title="iDynTree/Core/VectorDynSize.h">
<polygon fill="none" stroke="#000000" points="249,-112.5 249,-131.5 416,-131.5 416,-112.5 249,-112.5"/>
<text text-anchor="middle" x="332.5" y="-119.5" font-family="FreeSans.ttf" font-size="10.00" fill="#000000">iDynTree/Core/VectorDynSize.h</text>
</a>
</g>
</g>
<!-- Node35&#45;&gt;Node36 -->
<g id="edge70" class="edge">
<title>Node35&#45;&gt;Node36</title>
<path fill="none" stroke="#191970" d="M408.7191,-470.4461C390.4044,-463.1526 367.7852,-451.3631 353.5,-434 330.7256,-406.3185 329.5,-392.846 329.5,-357 329.5,-357 329.5,-357 329.5,-245 329.5,-208.4885 330.8374,-165.8988 331.7263,-141.6249"/>
<polygon fill="#191970" stroke="#191970" points="335.2262,-141.6927 332.1078,-131.5672 328.2312,-141.4273 335.2262,-141.6927"/>
</g>
<!-- Node36&#45;&gt;Node2 -->
<g id="edge72" class="edge">
<title>Node36&#45;&gt;Node2</title>
<path fill="none" stroke="#191970" d="M416.081,-115.8736C583.3887,-103.6103 952.9407,-76.5227 1064.1923,-68.3681"/>
<polygon fill="#191970" stroke="#191970" points="1064.7126,-71.8394 1074.43,-67.6177 1064.2008,-64.8582 1064.7126,-71.8394"/>
</g>
<!-- Node36&#45;&gt;Node11 -->
<g id="edge71" class="edge">
<title>Node36&#45;&gt;Node11</title>
<path fill="none" stroke="#191970" d="M333.1967,-112.2455C333.7187,-104.9382 334.4504,-94.6944 335.0925,-85.7046"/>
<polygon fill="#191970" stroke="#191970" points="338.5898,-85.8667 335.8112,-75.6427 331.6076,-85.3679 338.5898,-85.8667"/>
</g>
</g>
</svg>
