<?xml version="1.0" encoding="UTF-8" standalone="no"?>
<!DOCTYPE svg PUBLIC "-//W3C//DTD SVG 1.1//EN"
 "http://www.w3.org/Graphics/SVG/1.1/DTD/svg11.dtd">
<!-- Generated by graphviz version 2.40.1 (20161225.0304)
 -->
<!-- Title: DynamicsLinearizationHelpers.cpp Pages: 1 -->
<svg width="1638pt" height="733pt"
 viewBox="0.00 0.00 1638.00 733.00" xmlns="http://www.w3.org/2000/svg" xmlns:xlink="http://www.w3.org/1999/xlink">
<g id="graph0" class="graph" transform="scale(1 1) rotate(0) translate(4 729)">
<title>DynamicsLinearizationHelpers.cpp</title>
<!-- Node0 -->
<g id="node1" class="node">
<title>Node0</title>
<polygon fill="#bfbfbf" stroke="#000000" points="650,-705.5 650,-724.5 836,-724.5 836,-705.5 650,-705.5"/>
<text text-anchor="middle" x="743" y="-712.5" font-family="FreeSans.ttf" font-size="10.00" fill="#000000">DynamicsLinearizationHelpers.cpp</text>
</g>
<!-- Node1 -->
<g id="node2" class="node">
<title>Node1</title>
<g id="a_node2"><a xlink:href="DynamicsLinearizationHelpers_8h.html" target="_top" xlink:title="iDynTree/Model/DynamicsLinearization\lHelpers.h">
<polygon fill="none" stroke="#000000" points="962,-638.5 962,-668.5 1168,-668.5 1168,-638.5 962,-638.5"/>
<text text-anchor="start" x="970" y="-656.5" font-family="FreeSans.ttf" font-size="10.00" fill="#000000">iDynTree/Model/DynamicsLinearization</text>
<text text-anchor="middle" x="1065" y="-645.5" font-family="FreeSans.ttf" font-size="10.00" fill="#000000">Helpers.h</text>
</a>
</g>
</g>
<!-- Node0&#45;&gt;Node1 -->
<g id="edge1" class="edge">
<title>Node0&#45;&gt;Node1</title>
<path fill="none" stroke="#191970" d="M792.9592,-705.4581C841.8031,-696.1292 917.2318,-681.7228 976.286,-670.4438"/>
<polygon fill="#191970" stroke="#191970" points="977.1965,-673.8333 986.3623,-668.5193 975.8832,-666.9576 977.1965,-673.8333"/>
</g>
<!-- Node39 -->
<g id="node40" class="node">
<title>Node39</title>
<g id="a_node40"><a xlink:href="EigenHelpers_8h.html" target="_top" xlink:title="iDynTree/Core/EigenHelpers.h">
<polygon fill="none" stroke="#000000" points="560.5,-470.5 560.5,-489.5 721.5,-489.5 721.5,-470.5 560.5,-470.5"/>
<text text-anchor="middle" x="641" y="-477.5" font-family="FreeSans.ttf" font-size="10.00" fill="#000000">iDynTree/Core/EigenHelpers.h</text>
</a>
</g>
</g>
<!-- Node0&#45;&gt;Node39 -->
<g id="edge78" class="edge">
<title>Node0&#45;&gt;Node39</title>
<path fill="none" stroke="#191970" d="M738.8751,-705.4967C723.5945,-670.2912 670.0262,-546.874 649.2875,-499.0937"/>
<polygon fill="#191970" stroke="#191970" points="652.3684,-497.4012 645.1762,-489.6216 645.9472,-500.1883 652.3684,-497.4012"/>
</g>
<!-- Node2 -->
<g id="node3" class="node">
<title>Node2</title>
<g id="a_node3"><a xlink:href="MatrixFixSize_8h.html" target="_top" xlink:title="iDynTree/Core/MatrixFixSize.h">
<polygon fill="none" stroke="#000000" points="815.5,-112.5 815.5,-131.5 976.5,-131.5 976.5,-112.5 815.5,-112.5"/>
<text text-anchor="middle" x="896" y="-119.5" font-family="FreeSans.ttf" font-size="10.00" fill="#000000">iDynTree/Core/MatrixFixSize.h</text>
</a>
</g>
</g>
<!-- Node1&#45;&gt;Node2 -->
<g id="edge2" class="edge">
<title>Node1&#45;&gt;Node2</title>
<path fill="none" stroke="#191970" d="M1139.8005,-638.4715C1225.4301,-619.0703 1354,-582.2408 1354,-536 1354,-536 1354,-536 1354,-480 1354,-327.0898 1331.5723,-259.4196 1209,-168 1174.7481,-142.4535 1066.506,-130.968 986.8684,-125.8883"/>
<polygon fill="#191970" stroke="#191970" points="987.0109,-122.3906 976.8152,-125.2711 986.5819,-129.3774 987.0109,-122.3906"/>
</g>
<!-- Node10 -->
<g id="node11" class="node">
<title>Node10</title>
<g id="a_node11"><a xlink:href="Dynamics_8h.html" target="_top" xlink:title="iDynTree/Model/Dynamics.h">
<polygon fill="none" stroke="#000000" points="989,-582.5 989,-601.5 1141,-601.5 1141,-582.5 989,-582.5"/>
<text text-anchor="middle" x="1065" y="-589.5" font-family="FreeSans.ttf" font-size="10.00" fill="#000000">iDynTree/Model/Dynamics.h</text>
</a>
</g>
</g>
<!-- Node1&#45;&gt;Node10 -->
<g id="edge10" class="edge">
<title>Node1&#45;&gt;Node10</title>
<path fill="none" stroke="#191970" d="M1065,-638.2977C1065,-630.3834 1065,-620.6043 1065,-612.0759"/>
<polygon fill="#191970" stroke="#191970" points="1068.5001,-611.8469 1065,-601.8469 1061.5001,-611.847 1068.5001,-611.8469"/>
</g>
<!-- Node3 -->
<g id="node4" class="node">
<title>Node3</title>
<g id="a_node4"><a xlink:href="Utils_8h.html" target="_top" xlink:title="iDynTree/Core/Utils.h">
<polygon fill="none" stroke="#000000" points="467.5,-56.5 467.5,-75.5 586.5,-75.5 586.5,-56.5 467.5,-56.5"/>
<text text-anchor="middle" x="527" y="-63.5" font-family="FreeSans.ttf" font-size="10.00" fill="#000000">iDynTree/Core/Utils.h</text>
</a>
</g>
</g>
<!-- Node2&#45;&gt;Node3 -->
<g id="edge3" class="edge">
<title>Node2&#45;&gt;Node3</title>
<path fill="none" stroke="#191970" d="M832.9859,-112.4369C767.3961,-102.4829 664.9319,-86.9328 596.8949,-76.6074"/>
<polygon fill="#191970" stroke="#191970" points="597.1107,-73.1001 586.6987,-75.06 596.0604,-80.0209 597.1107,-73.1001"/>
</g>
<!-- Node5 -->
<g id="node6" class="node">
<title>Node5</title>
<polygon fill="none" stroke="#bfbfbf" points="589,-.5 589,-19.5 641,-19.5 641,-.5 589,-.5"/>
<text text-anchor="middle" x="615" y="-7.5" font-family="FreeSans.ttf" font-size="10.00" fill="#000000">cassert</text>
</g>
<!-- Node2&#45;&gt;Node5 -->
<g id="edge5" class="edge">
<title>Node2&#45;&gt;Node5</title>
<path fill="none" stroke="#191970" d="M896.2009,-112.2803C895.9341,-97.7451 893.14,-70.5065 877,-56 844.3013,-26.6106 715.3124,-15.4924 651.3531,-11.7241"/>
<polygon fill="#191970" stroke="#191970" points="651.4838,-8.226 641.3037,-11.1612 651.0923,-15.2151 651.4838,-8.226"/>
</g>
<!-- Node6 -->
<g id="node7" class="node">
<title>Node6</title>
<polygon fill="none" stroke="#bfbfbf" points="740,-56.5 740,-75.5 790,-75.5 790,-56.5 740,-56.5"/>
<text text-anchor="middle" x="765" y="-63.5" font-family="FreeSans.ttf" font-size="10.00" fill="#000000">cstring</text>
</g>
<!-- Node2&#45;&gt;Node6 -->
<g id="edge6" class="edge">
<title>Node2&#45;&gt;Node6</title>
<path fill="none" stroke="#191970" d="M873.4803,-112.3733C852.2628,-103.3032 820.2724,-89.6279 796.5231,-79.4755"/>
<polygon fill="#191970" stroke="#191970" points="797.7967,-76.2136 787.2258,-75.5011 795.0452,-82.6502 797.7967,-76.2136"/>
</g>
<!-- Node7 -->
<g id="node8" class="node">
<title>Node7</title>
<polygon fill="none" stroke="#bfbfbf" points="1296,-56.5 1296,-75.5 1340,-75.5 1340,-56.5 1296,-56.5"/>
<text text-anchor="middle" x="1318" y="-63.5" font-family="FreeSans.ttf" font-size="10.00" fill="#000000">string</text>
</g>
<!-- Node2&#45;&gt;Node7 -->
<g id="edge7" class="edge">
<title>Node2&#45;&gt;Node7</title>
<path fill="none" stroke="#191970" d="M968.0649,-112.4369C1060.7977,-100.1311 1217.9817,-79.2726 1285.5475,-70.3065"/>
<polygon fill="#191970" stroke="#191970" points="1286.1457,-73.7579 1295.5984,-68.9727 1285.2248,-66.8187 1286.1457,-73.7579"/>
</g>
<!-- Node8 -->
<g id="node9" class="node">
<title>Node8</title>
<polygon fill="none" stroke="#bfbfbf" points="808,-56.5 808,-75.5 868,-75.5 868,-56.5 808,-56.5"/>
<text text-anchor="middle" x="838" y="-63.5" font-family="FreeSans.ttf" font-size="10.00" fill="#000000">iostream</text>
</g>
<!-- Node2&#45;&gt;Node8 -->
<g id="edge8" class="edge">
<title>Node2&#45;&gt;Node8</title>
<path fill="none" stroke="#191970" d="M885.8972,-112.2455C877.4972,-104.1352 865.3506,-92.4075 855.3916,-82.7919"/>
<polygon fill="#191970" stroke="#191970" points="857.6122,-80.0707 847.9871,-75.6427 852.75,-85.1066 857.6122,-80.0707"/>
</g>
<!-- Node9 -->
<g id="node10" class="node">
<title>Node9</title>
<polygon fill="none" stroke="#bfbfbf" points="666,-56.5 666,-75.5 722,-75.5 722,-56.5 666,-56.5"/>
<text text-anchor="middle" x="694" y="-63.5" font-family="FreeSans.ttf" font-size="10.00" fill="#000000">sstream</text>
</g>
<!-- Node2&#45;&gt;Node9 -->
<g id="edge9" class="edge">
<title>Node2&#45;&gt;Node9</title>
<path fill="none" stroke="#191970" d="M861.275,-112.3733C825.2901,-102.3973 769.2097,-86.8502 732.0448,-76.5471"/>
<polygon fill="#191970" stroke="#191970" points="732.668,-73.0879 722.0964,-73.7891 730.7979,-79.8335 732.668,-73.0879"/>
</g>
<!-- Node4 -->
<g id="node5" class="node">
<title>Node4</title>
<polygon fill="none" stroke="#bfbfbf" points="509.5,-.5 509.5,-19.5 562.5,-19.5 562.5,-.5 509.5,-.5"/>
<text text-anchor="middle" x="536" y="-7.5" font-family="FreeSans.ttf" font-size="10.00" fill="#000000">cstddef</text>
</g>
<!-- Node3&#45;&gt;Node4 -->
<g id="edge4" class="edge">
<title>Node3&#45;&gt;Node4</title>
<path fill="none" stroke="#191970" d="M528.5677,-56.2455C529.7421,-48.9382 531.3884,-38.6944 532.8332,-29.7046"/>
<polygon fill="#191970" stroke="#191970" points="536.3191,-30.0714 534.4503,-19.6427 529.4078,-28.9606 536.3191,-30.0714"/>
</g>
<!-- Node11 -->
<g id="node12" class="node">
<title>Node11</title>
<g id="a_node12"><a xlink:href="MatrixDynSize_8h.html" target="_top" xlink:title="iDynTree/Core/MatrixDynSize.h">
<polygon fill="none" stroke="#000000" points="1121.5,-409 1121.5,-428 1288.5,-428 1288.5,-409 1121.5,-409"/>
<text text-anchor="middle" x="1205" y="-416" font-family="FreeSans.ttf" font-size="10.00" fill="#000000">iDynTree/Core/MatrixDynSize.h</text>
</a>
</g>
</g>
<!-- Node10&#45;&gt;Node11 -->
<g id="edge11" class="edge">
<title>Node10&#45;&gt;Node11</title>
<path fill="none" stroke="#191970" d="M1070.8835,-582.3573C1084.0374,-561.1121 1117.3249,-509.0556 1151,-470 1161.7862,-457.4904 1175.2231,-444.667 1185.9948,-434.9453"/>
<polygon fill="#191970" stroke="#191970" points="1188.4696,-437.4285 1193.6244,-428.1722 1183.8224,-432.1936 1188.4696,-437.4285"/>
</g>
<!-- Node12 -->
<g id="node13" class="node">
<title>Node12</title>
<g id="a_node13"><a xlink:href="Indices_8h.html" target="_top" xlink:title="iDynTree/Model/Indices.h">
<polygon fill="none" stroke="#000000" points="1160,-470.5 1160,-489.5 1298,-489.5 1298,-470.5 1160,-470.5"/>
<text text-anchor="middle" x="1229" y="-477.5" font-family="FreeSans.ttf" font-size="10.00" fill="#000000">iDynTree/Model/Indices.h</text>
</a>
</g>
</g>
<!-- Node10&#45;&gt;Node12 -->
<g id="edge13" class="edge">
<title>Node10&#45;&gt;Node12</title>
<path fill="none" stroke="#191970" d="M1083.8286,-582.3793C1100.569,-573.5767 1125.4971,-559.8511 1146,-546 1169.1236,-530.3785 1193.9627,-510.1174 1210.379,-496.1877"/>
<polygon fill="#191970" stroke="#191970" points="1212.8239,-498.7019 1218.1422,-489.5385 1208.2704,-493.3854 1212.8239,-498.7019"/>
</g>
<!-- Node13 -->
<g id="node14" class="node">
<title>Node13</title>
<g id="a_node14"><a xlink:href="LinkState_8h.html" target="_top" xlink:title="iDynTree/Model/LinkState.h">
<polygon fill="none" stroke="#000000" points="924.5,-526.5 924.5,-545.5 1073.5,-545.5 1073.5,-526.5 924.5,-526.5"/>
<text text-anchor="middle" x="999" y="-533.5" font-family="FreeSans.ttf" font-size="10.00" fill="#000000">iDynTree/Model/LinkState.h</text>
</a>
</g>
</g>
<!-- Node10&#45;&gt;Node13 -->
<g id="edge15" class="edge">
<title>Node10&#45;&gt;Node13</title>
<path fill="none" stroke="#191970" d="M1053.5037,-582.2455C1043.7558,-573.9746 1029.5741,-561.9416 1018.1202,-552.2232"/>
<polygon fill="#191970" stroke="#191970" points="1020.2541,-549.4437 1010.3646,-545.6427 1015.7253,-554.7813 1020.2541,-549.4437"/>
</g>
<!-- Node37 -->
<g id="node38" class="node">
<title>Node37</title>
<g id="a_node38"><a xlink:href="JointState_8h.html" target="_top" xlink:title="iDynTree/Model/JointState.h">
<polygon fill="none" stroke="#000000" points="201.5,-470.5 201.5,-489.5 352.5,-489.5 352.5,-470.5 201.5,-470.5"/>
<text text-anchor="middle" x="277" y="-477.5" font-family="FreeSans.ttf" font-size="10.00" fill="#000000">iDynTree/Model/JointState.h</text>
</a>
</g>
</g>
<!-- Node10&#45;&gt;Node37 -->
<g id="edge71" class="edge">
<title>Node10&#45;&gt;Node37</title>
<path fill="none" stroke="#191970" d="M998.1555,-582.4993C852.8467,-561.8462 508.8755,-512.9569 354.43,-491.0053"/>
<polygon fill="#191970" stroke="#191970" points="354.4818,-487.4775 344.0888,-489.5355 353.4967,-494.4079 354.4818,-487.4775"/>
</g>
<!-- Node11&#45;&gt;Node7 -->
<g id="edge12" class="edge">
<title>Node11&#45;&gt;Node7</title>
<path fill="none" stroke="#191970" d="M1253.2313,-408.9736C1356.9735,-387.8163 1592,-336.0202 1592,-301 1592,-301 1592,-301 1592,-183.5 1592,-131.454 1422.9032,-88.6668 1350.389,-72.7111"/>
<polygon fill="#191970" stroke="#191970" points="1350.9367,-69.2487 1340.4226,-70.5537 1349.4557,-76.0902 1350.9367,-69.2487"/>
</g>
<!-- Node12&#45;&gt;Node7 -->
<g id="edge14" class="edge">
<title>Node12&#45;&gt;Node7</title>
<path fill="none" stroke="#191970" d="M1271.914,-470.4694C1375.3611,-446.2584 1630,-378.764 1630,-301 1630,-301 1630,-301 1630,-183.5 1630,-128.5015 1579.3226,-134.1918 1529,-112 1469.0711,-85.5719 1392.6763,-73.7921 1350.1957,-68.9753"/>
<polygon fill="#191970" stroke="#191970" points="1350.4737,-65.4851 1340.1569,-67.896 1349.7254,-72.445 1350.4737,-65.4851"/>
</g>
<!-- Node13&#45;&gt;Node12 -->
<g id="edge69" class="edge">
<title>Node13&#45;&gt;Node12</title>
<path fill="none" stroke="#191970" d="M1038.2771,-526.4369C1077.4744,-516.8932 1137.8,-502.2052 1180.0835,-491.9101"/>
<polygon fill="#191970" stroke="#191970" points="1180.9968,-495.2901 1189.8849,-489.5237 1179.3408,-488.4888 1180.9968,-495.2901"/>
</g>
<!-- Node14 -->
<g id="node15" class="node">
<title>Node14</title>
<g id="a_node15"><a xlink:href="Transform_8h.html" target="_top" xlink:title="iDynTree/Core/Transform.h">
<polygon fill="none" stroke="#000000" points="994,-347.5 994,-366.5 1140,-366.5 1140,-347.5 994,-347.5"/>
<text text-anchor="middle" x="1067" y="-354.5" font-family="FreeSans.ttf" font-size="10.00" fill="#000000">iDynTree/Core/Transform.h</text>
</a>
</g>
</g>
<!-- Node13&#45;&gt;Node14 -->
<g id="edge16" class="edge">
<title>Node13&#45;&gt;Node14</title>
<path fill="none" stroke="#191970" d="M1009.2849,-526.3916C1017.9683,-517.7017 1030.0644,-504.1353 1037,-490 1055.4291,-452.4402 1062.711,-403.345 1065.4534,-376.5477"/>
<polygon fill="#191970" stroke="#191970" points="1068.9445,-376.8042 1066.37,-366.5269 1061.9736,-376.1665 1068.9445,-376.8042"/>
</g>
<!-- Node29 -->
<g id="node30" class="node">
<title>Node29</title>
<g id="a_node30"><a xlink:href="Twist_8h.html" target="_top" xlink:title="iDynTree/Core/Twist.h">
<polygon fill="none" stroke="#000000" points="740,-470.5 740,-489.5 862,-489.5 862,-470.5 740,-470.5"/>
<text text-anchor="middle" x="801" y="-477.5" font-family="FreeSans.ttf" font-size="10.00" fill="#000000">iDynTree/Core/Twist.h</text>
</a>
</g>
</g>
<!-- Node13&#45;&gt;Node29 -->
<g id="edge48" class="edge">
<title>Node13&#45;&gt;Node29</title>
<path fill="none" stroke="#191970" d="M964.9626,-526.3733C931.6106,-516.9404 880.6473,-502.5265 844.3998,-492.2747"/>
<polygon fill="#191970" stroke="#191970" points="845.1684,-488.8548 834.5933,-489.5011 843.2632,-495.5906 845.1684,-488.8548"/>
</g>
<!-- Node32 -->
<g id="node33" class="node">
<title>Node32</title>
<g id="a_node33"><a xlink:href="SpatialAcc_8h.html" target="_top" xlink:title="iDynTree/Core/SpatialAcc.h">
<polygon fill="none" stroke="#000000" points="880,-470.5 880,-489.5 1028,-489.5 1028,-470.5 880,-470.5"/>
<text text-anchor="middle" x="954" y="-477.5" font-family="FreeSans.ttf" font-size="10.00" fill="#000000">iDynTree/Core/SpatialAcc.h</text>
</a>
</g>
</g>
<!-- Node13&#45;&gt;Node32 -->
<g id="edge59" class="edge">
<title>Node13&#45;&gt;Node32</title>
<path fill="none" stroke="#191970" d="M991.1616,-526.2455C984.838,-518.3761 975.7776,-507.101 968.1864,-497.6542"/>
<polygon fill="#191970" stroke="#191970" points="970.7408,-495.2454 961.7486,-489.6427 965.2842,-499.6302 970.7408,-495.2454"/>
</g>
<!-- Node33 -->
<g id="node34" class="node">
<title>Node33</title>
<g id="a_node34"><a xlink:href="Wrench_8h.html" target="_top" xlink:title="iDynTree/Core/Wrench.h">
<polygon fill="none" stroke="#000000" points="409.5,-470.5 409.5,-489.5 542.5,-489.5 542.5,-470.5 409.5,-470.5"/>
<text text-anchor="middle" x="476" y="-477.5" font-family="FreeSans.ttf" font-size="10.00" fill="#000000">iDynTree/Core/Wrench.h</text>
</a>
</g>
</g>
<!-- Node13&#45;&gt;Node33 -->
<g id="edge61" class="edge">
<title>Node13&#45;&gt;Node33</title>
<path fill="none" stroke="#191970" d="M924.4114,-529.037C837.6058,-520.7766 689.668,-506.2146 552.8897,-490.1972"/>
<polygon fill="#191970" stroke="#191970" points="552.9835,-486.6842 542.6431,-488.9921 552.1658,-493.6363 552.9835,-486.6842"/>
</g>
<!-- Node35 -->
<g id="node36" class="node">
<title>Node35</title>
<g id="a_node36"><a xlink:href="ArticulatedBodyInertia_8h.html" target="_top" xlink:title="iDynTree/Core/Articulated\lBodyInertia.h">
<polygon fill="none" stroke="#000000" points="1422.5,-168.5 1422.5,-198.5 1563.5,-198.5 1563.5,-168.5 1422.5,-168.5"/>
<text text-anchor="start" x="1430.5" y="-186.5" font-family="FreeSans.ttf" font-size="10.00" fill="#000000">iDynTree/Core/Articulated</text>
<text text-anchor="middle" x="1493" y="-175.5" font-family="FreeSans.ttf" font-size="10.00" fill="#000000">BodyInertia.h</text>
</a>
</g>
</g>
<!-- Node13&#45;&gt;Node35 -->
<g id="edge66" class="edge">
<title>Node13&#45;&gt;Node35</title>
<path fill="none" stroke="#191970" d="M1013.6686,-526.1699C1025.8749,-517.5441 1043.2534,-504.1902 1056,-490 1086.7291,-455.7905 1078.6934,-434.7055 1112,-403 1140.2362,-376.1212 1365.9931,-252.3822 1456.076,-203.4727"/>
<polygon fill="#191970" stroke="#191970" points="1457.9945,-206.4138 1465.1154,-198.5688 1454.6565,-200.2609 1457.9945,-206.4138"/>
</g>
<!-- Node36 -->
<g id="node37" class="node">
<title>Node36</title>
<polygon fill="none" stroke="#bfbfbf" points="283.5,-409 283.5,-428 330.5,-428 330.5,-409 283.5,-409"/>
<text text-anchor="middle" x="307" y="-416" font-family="FreeSans.ttf" font-size="10.00" fill="#000000">vector</text>
</g>
<!-- Node13&#45;&gt;Node36 -->
<g id="edge70" class="edge">
<title>Node13&#45;&gt;Node36</title>
<path fill="none" stroke="#191970" d="M924.3429,-530.8231C766.4557,-519.8004 412.0976,-494.6372 400,-490 368.9966,-478.116 339.764,-452.3704 322.6207,-435.2383"/>
<polygon fill="#191970" stroke="#191970" points="325.1134,-432.7812 315.6318,-428.0536 320.0957,-437.6622 325.1134,-432.7812"/>
</g>
<!-- Node14&#45;&gt;Node2 -->
<g id="edge46" class="edge">
<title>Node14&#45;&gt;Node2</title>
<path fill="none" stroke="#191970" d="M1103.6838,-347.4197C1134.3322,-338.5903 1174.506,-324.8013 1184,-311 1220.0214,-258.6362 1226.2585,-216.345 1185,-168 1172.0721,-152.8517 1066.5685,-139.0035 986.7396,-130.5454"/>
<polygon fill="#191970" stroke="#191970" points="986.9568,-127.0491 976.647,-129.49 986.2287,-134.0111 986.9568,-127.0491"/>
</g>
<!-- Node14&#45;&gt;Node7 -->
<g id="edge47" class="edge">
<title>Node14&#45;&gt;Node7</title>
<path fill="none" stroke="#191970" d="M1114.8092,-347.4881C1183.0332,-330.9582 1305.2349,-289.6194 1352,-199 1369.737,-164.63 1366.607,-148.5645 1354,-112 1350.2813,-101.2144 1342.8787,-91.0249 1335.7481,-82.9904"/>
<polygon fill="#191970" stroke="#191970" points="1338.2791,-80.5729 1328.8548,-75.7321 1333.2033,-85.3934 1338.2791,-80.5729"/>
</g>
<!-- Node15 -->
<g id="node16" class="node">
<title>Node15</title>
<g id="a_node16"><a xlink:href="Position_8h.html" target="_top" xlink:title="iDynTree/Core/Position.h">
<polygon fill="none" stroke="#000000" points="1039,-291.5 1039,-310.5 1175,-310.5 1175,-291.5 1039,-291.5"/>
<text text-anchor="middle" x="1107" y="-298.5" font-family="FreeSans.ttf" font-size="10.00" fill="#000000">iDynTree/Core/Position.h</text>
</a>
</g>
</g>
<!-- Node14&#45;&gt;Node15 -->
<g id="edge17" class="edge">
<title>Node14&#45;&gt;Node15</title>
<path fill="none" stroke="#191970" d="M1073.9675,-347.2455C1079.5311,-339.4564 1087.478,-328.3308 1094.1829,-318.9439"/>
<polygon fill="#191970" stroke="#191970" points="1097.148,-320.8144 1100.1124,-310.6427 1091.4519,-316.7457 1097.148,-320.8144"/>
</g>
<!-- Node26 -->
<g id="node27" class="node">
<title>Node26</title>
<g id="a_node27"><a xlink:href="Rotation_8h.html" target="_top" xlink:title="iDynTree/Core/Rotation.h">
<polygon fill="none" stroke="#000000" points="942.5,-235.5 942.5,-254.5 1079.5,-254.5 1079.5,-235.5 942.5,-235.5"/>
<text text-anchor="middle" x="1011" y="-242.5" font-family="FreeSans.ttf" font-size="10.00" fill="#000000">iDynTree/Core/Rotation.h</text>
</a>
</g>
</g>
<!-- Node14&#45;&gt;Node26 -->
<g id="edge45" class="edge">
<title>Node14&#45;&gt;Node26</title>
<path fill="none" stroke="#191970" d="M1057.196,-347.2386C1048.8759,-338.4506 1037.1778,-324.8263 1030,-311 1022.4459,-296.4489 1017.5253,-278.4888 1014.5885,-264.9794"/>
<polygon fill="#191970" stroke="#191970" points="1017.9576,-263.976 1012.574,-254.851 1011.0921,-265.3416 1017.9576,-263.976"/>
</g>
<!-- Node15&#45;&gt;Node7 -->
<g id="edge44" class="edge">
<title>Node15&#45;&gt;Node7</title>
<path fill="none" stroke="#191970" d="M1169.9554,-291.4789C1223.2619,-279.7314 1296.5046,-254.0637 1332,-199 1354.6438,-163.8729 1338.5224,-112.3883 1326.9553,-84.9165"/>
<polygon fill="#191970" stroke="#191970" points="1330.0954,-83.364 1322.8354,-75.6476 1323.6988,-86.2072 1330.0954,-83.364"/>
</g>
<!-- Node16 -->
<g id="node17" class="node">
<title>Node16</title>
<g id="a_node17"><a xlink:href="PositionRaw_8h.html" target="_top" xlink:title="iDynTree/Core/PositionRaw.h">
<polygon fill="none" stroke="#000000" points="844,-174 844,-193 1000,-193 1000,-174 844,-174"/>
<text text-anchor="middle" x="922" y="-181" font-family="FreeSans.ttf" font-size="10.00" fill="#000000">iDynTree/Core/PositionRaw.h</text>
</a>
</g>
</g>
<!-- Node15&#45;&gt;Node16 -->
<g id="edge18" class="edge">
<title>Node15&#45;&gt;Node16</title>
<path fill="none" stroke="#191970" d="M1106.9419,-291.0568C1106.3113,-276.7324 1103.0198,-250.3313 1088,-235 1072.6538,-219.3356 1021.2225,-204.8572 979.6287,-195.2676"/>
<polygon fill="#191970" stroke="#191970" points="980.3638,-191.8455 969.8385,-193.0574 978.8222,-198.6737 980.3638,-191.8455"/>
</g>
<!-- Node15&#45;&gt;Node26 -->
<g id="edge36" class="edge">
<title>Node15&#45;&gt;Node26</title>
<path fill="none" stroke="#191970" d="M1090.2781,-291.2455C1075.4111,-282.5731 1053.4534,-269.7645 1036.4142,-259.825"/>
<polygon fill="#191970" stroke="#191970" points="1037.9317,-256.6582 1027.5303,-254.6427 1034.4045,-262.7047 1037.9317,-256.6582"/>
</g>
<!-- Node16&#45;&gt;Node7 -->
<g id="edge35" class="edge">
<title>Node16&#45;&gt;Node7</title>
<path fill="none" stroke="#191970" d="M952.7443,-173.9631C997.5837,-160.0954 1083.5791,-133.6563 1157,-112 1201.6579,-98.8276 1253.4567,-84.1318 1285.9803,-74.9749"/>
<polygon fill="#191970" stroke="#191970" points="1287.15,-78.2818 1295.8292,-72.2054 1285.255,-71.5431 1287.15,-78.2818"/>
</g>
<!-- Node17 -->
<g id="node18" class="node">
<title>Node17</title>
<g id="a_node18"><a xlink:href="VectorFixSize_8h.html" target="_top" xlink:title="iDynTree/Core/VectorFixSize.h">
<polygon fill="none" stroke="#000000" points="511.5,-112.5 511.5,-131.5 672.5,-131.5 672.5,-112.5 511.5,-112.5"/>
<text text-anchor="middle" x="592" y="-119.5" font-family="FreeSans.ttf" font-size="10.00" fill="#000000">iDynTree/Core/VectorFixSize.h</text>
</a>
</g>
</g>
<!-- Node16&#45;&gt;Node17 -->
<g id="edge19" class="edge">
<title>Node16&#45;&gt;Node17</title>
<path fill="none" stroke="#191970" d="M870.7996,-173.9581C812.0643,-163.012 715.8183,-145.0752 653.1847,-133.4026"/>
<polygon fill="#191970" stroke="#191970" points="653.521,-129.9051 643.049,-131.5137 652.2385,-136.7866 653.521,-129.9051"/>
</g>
<!-- Node17&#45;&gt;Node3 -->
<g id="edge20" class="edge">
<title>Node17&#45;&gt;Node3</title>
<path fill="none" stroke="#191970" d="M580.6779,-112.2455C571.0777,-103.9746 557.1108,-91.9416 545.8305,-82.2232"/>
<polygon fill="#191970" stroke="#191970" points="548.053,-79.5182 538.1924,-75.6427 543.484,-84.8214 548.053,-79.5182"/>
</g>
<!-- Node17&#45;&gt;Node5 -->
<g id="edge33" class="edge">
<title>Node17&#45;&gt;Node5</title>
<path fill="none" stroke="#191970" d="M593.961,-112.4509C597.7292,-94.1013 606.0483,-53.5908 611.0224,-29.3693"/>
<polygon fill="#191970" stroke="#191970" points="614.4608,-30.0246 613.044,-19.5249 607.6039,-28.6164 614.4608,-30.0246"/>
</g>
<!-- Node17&#45;&gt;Node6 -->
<g id="edge34" class="edge">
<title>Node17&#45;&gt;Node6</title>
<path fill="none" stroke="#191970" d="M621.7398,-112.3733C651.8146,-102.638 698.2794,-87.5974 730.0847,-77.3021"/>
<polygon fill="#191970" stroke="#191970" points="731.4205,-80.5485 739.8566,-74.1389 729.2647,-73.8887 731.4205,-80.5485"/>
</g>
<!-- Node17&#45;&gt;Node7 -->
<g id="edge31" class="edge">
<title>Node17&#45;&gt;Node7</title>
<path fill="none" stroke="#191970" d="M672.8181,-115.7661C831.6507,-103.5145 1178.3782,-76.7697 1285.69,-68.4922"/>
<polygon fill="#191970" stroke="#191970" points="1286.1807,-71.9649 1295.8819,-67.7061 1285.6423,-64.9856 1286.1807,-71.9649"/>
</g>
<!-- Node17&#45;&gt;Node9 -->
<g id="edge32" class="edge">
<title>Node17&#45;&gt;Node9</title>
<path fill="none" stroke="#191970" d="M609.767,-112.2455C625.7095,-103.4928 649.3259,-90.527 667.4989,-80.5496"/>
<polygon fill="#191970" stroke="#191970" points="669.3552,-83.5233 676.4366,-75.6427 665.9863,-77.3873 669.3552,-83.5233"/>
</g>
<!-- Node18 -->
<g id="node19" class="node">
<title>Node18</title>
<g id="a_node19"><a xlink:href="Span_8h.html" target="_top" xlink:title="iDynTree/Core/Span.h">
<polygon fill="none" stroke="#000000" points="248.5,-56.5 248.5,-75.5 369.5,-75.5 369.5,-56.5 248.5,-56.5"/>
<text text-anchor="middle" x="309" y="-63.5" font-family="FreeSans.ttf" font-size="10.00" fill="#000000">iDynTree/Core/Span.h</text>
</a>
</g>
</g>
<!-- Node17&#45;&gt;Node18 -->
<g id="edge21" class="edge">
<title>Node17&#45;&gt;Node18</title>
<path fill="none" stroke="#191970" d="M543.6721,-112.4369C494.8319,-102.7724 419.3324,-87.8326 367.2236,-77.5213"/>
<polygon fill="#191970" stroke="#191970" points="367.6178,-74.0315 357.1285,-75.5237 366.2589,-80.8983 367.6178,-74.0315"/>
</g>
<!-- Node18&#45;&gt;Node4 -->
<g id="edge25" class="edge">
<title>Node18&#45;&gt;Node4</title>
<path fill="none" stroke="#191970" d="M350.4596,-56.4514C387.0983,-47.9155 442.2197,-34.8372 499.3578,-20.103"/>
<polygon fill="#191970" stroke="#191970" points="500.4886,-23.4257 509.2913,-17.5298 498.7332,-16.6494 500.4886,-23.4257"/>
</g>
<!-- Node18&#45;&gt;Node5 -->
<g id="edge22" class="edge">
<title>Node18&#45;&gt;Node5</title>
<path fill="none" stroke="#191970" d="M368.2087,-56.467C421.414,-47.6957 501.618,-33.9661 571,-20 573.6447,-19.4676 576.3741,-18.8976 579.1175,-18.3095"/>
<polygon fill="#191970" stroke="#191970" points="579.974,-21.7048 588.9877,-16.1368 578.4691,-14.8685 579.974,-21.7048"/>
</g>
<!-- Node19 -->
<g id="node20" class="node">
<title>Node19</title>
<polygon fill="none" stroke="#bfbfbf" points="0,-.5 0,-19.5 64,-19.5 64,-.5 0,-.5"/>
<text text-anchor="middle" x="32" y="-7.5" font-family="FreeSans.ttf" font-size="10.00" fill="#000000">algorithm</text>
</g>
<!-- Node18&#45;&gt;Node19 -->
<g id="edge23" class="edge">
<title>Node18&#45;&gt;Node19</title>
<path fill="none" stroke="#191970" d="M256.3641,-56.4692C210.6874,-48.0337 142.5491,-35.0568 74.2685,-20.2074"/>
<polygon fill="#191970" stroke="#191970" points="74.713,-16.7219 64.196,-18.0032 73.2166,-23.5601 74.713,-16.7219"/>
</g>
<!-- Node20 -->
<g id="node21" class="node">
<title>Node20</title>
<polygon fill="none" stroke="#bfbfbf" points="82,-.5 82,-19.5 124,-19.5 124,-.5 82,-.5"/>
<text text-anchor="middle" x="103" y="-7.5" font-family="FreeSans.ttf" font-size="10.00" fill="#000000">array</text>
</g>
<!-- Node18&#45;&gt;Node20 -->
<g id="edge24" class="edge">
<title>Node18&#45;&gt;Node20</title>
<path fill="none" stroke="#191970" d="M269.2992,-56.42C235.5896,-48.1081 185.7399,-35.4008 133.9414,-20.1526"/>
<polygon fill="#191970" stroke="#191970" points="134.8328,-16.7663 124.2503,-17.2763 132.8411,-23.477 134.8328,-16.7663"/>
</g>
<!-- Node21 -->
<g id="node22" class="node">
<title>Node21</title>
<polygon fill="none" stroke="#bfbfbf" points="142.5,-.5 142.5,-19.5 195.5,-19.5 195.5,-.5 142.5,-.5"/>
<text text-anchor="middle" x="169" y="-7.5" font-family="FreeSans.ttf" font-size="10.00" fill="#000000">iterator</text>
</g>
<!-- Node18&#45;&gt;Node21 -->
<g id="edge26" class="edge">
<title>Node18&#45;&gt;Node21</title>
<path fill="none" stroke="#191970" d="M284.9331,-56.3733C262.1572,-47.2629 227.7656,-33.5062 202.351,-23.3404"/>
<polygon fill="#191970" stroke="#191970" points="203.3375,-19.9654 192.7528,-19.5011 200.7377,-26.4648 203.3375,-19.9654"/>
</g>
<!-- Node22 -->
<g id="node23" class="node">
<title>Node22</title>
<polygon fill="none" stroke="#bfbfbf" points="214,-.5 214,-19.5 258,-19.5 258,-.5 214,-.5"/>
<text text-anchor="middle" x="236" y="-7.5" font-family="FreeSans.ttf" font-size="10.00" fill="#000000">limits</text>
</g>
<!-- Node18&#45;&gt;Node22 -->
<g id="edge27" class="edge">
<title>Node18&#45;&gt;Node22</title>
<path fill="none" stroke="#191970" d="M296.2844,-56.2455C285.398,-47.8943 269.5117,-35.7076 256.78,-25.9408"/>
<polygon fill="#191970" stroke="#191970" points="258.6346,-22.9523 248.5699,-19.6427 254.3739,-28.5063 258.6346,-22.9523"/>
</g>
<!-- Node23 -->
<g id="node24" class="node">
<title>Node23</title>
<polygon fill="none" stroke="#bfbfbf" points="276.5,-.5 276.5,-19.5 341.5,-19.5 341.5,-.5 276.5,-.5"/>
<text text-anchor="middle" x="309" y="-7.5" font-family="FreeSans.ttf" font-size="10.00" fill="#000000">stdexcept</text>
</g>
<!-- Node18&#45;&gt;Node23 -->
<g id="edge28" class="edge">
<title>Node18&#45;&gt;Node23</title>
<path fill="none" stroke="#191970" d="M309,-56.2455C309,-48.9382 309,-38.6944 309,-29.7046"/>
<polygon fill="#191970" stroke="#191970" points="312.5001,-29.6426 309,-19.6427 305.5001,-29.6427 312.5001,-29.6426"/>
</g>
<!-- Node24 -->
<g id="node25" class="node">
<title>Node24</title>
<polygon fill="none" stroke="#bfbfbf" points="359.5,-.5 359.5,-19.5 428.5,-19.5 428.5,-.5 359.5,-.5"/>
<text text-anchor="middle" x="394" y="-7.5" font-family="FreeSans.ttf" font-size="10.00" fill="#000000">type_traits</text>
</g>
<!-- Node18&#45;&gt;Node24 -->
<g id="edge29" class="edge">
<title>Node18&#45;&gt;Node24</title>
<path fill="none" stroke="#191970" d="M323.8059,-56.2455C336.7256,-47.7337 355.6931,-35.2375 370.6552,-25.3801"/>
<polygon fill="#191970" stroke="#191970" points="372.9387,-28.067 379.3638,-19.6427 369.0876,-22.2216 372.9387,-28.067"/>
</g>
<!-- Node25 -->
<g id="node26" class="node">
<title>Node25</title>
<polygon fill="none" stroke="#bfbfbf" points="446.5,-.5 446.5,-19.5 491.5,-19.5 491.5,-.5 446.5,-.5"/>
<text text-anchor="middle" x="469" y="-7.5" font-family="FreeSans.ttf" font-size="10.00" fill="#000000">utility</text>
</g>
<!-- Node18&#45;&gt;Node25 -->
<g id="edge30" class="edge">
<title>Node18&#45;&gt;Node25</title>
<path fill="none" stroke="#191970" d="M336.505,-56.3733C364.3188,-46.6384 407.2899,-31.5985 436.7051,-21.3032"/>
<polygon fill="#191970" stroke="#191970" points="438.2148,-24.4831 446.4972,-17.876 435.9023,-17.8761 438.2148,-24.4831"/>
</g>
<!-- Node26&#45;&gt;Node7 -->
<g id="edge37" class="edge">
<title>Node26&#45;&gt;Node7</title>
<path fill="none" stroke="#191970" d="M1079.8891,-235.4203C1113.2383,-228.6861 1152.903,-217.4597 1185,-199 1237.3624,-168.8852 1283.4949,-112.8489 1305.0612,-84.0754"/>
<polygon fill="#191970" stroke="#191970" points="1308.0723,-85.8886 1311.1768,-75.7587 1302.4329,-81.7416 1308.0723,-85.8886"/>
</g>
<!-- Node26&#45;&gt;Node17 -->
<g id="edge43" class="edge">
<title>Node26&#45;&gt;Node17</title>
<path fill="none" stroke="#191970" d="M972.0448,-235.4276C936.2766,-226.4941 881.8769,-212.5433 835,-199 762.164,-177.9568 677.9899,-150.5952 630.2703,-134.7953"/>
<polygon fill="#191970" stroke="#191970" points="631.2514,-131.4333 620.6579,-131.6058 629.0468,-138.0771 631.2514,-131.4333"/>
</g>
<!-- Node27 -->
<g id="node28" class="node">
<title>Node27</title>
<g id="a_node28"><a xlink:href="GeomVector3_8h.html" target="_top" xlink:title="iDynTree/Core/GeomVector3.h">
<polygon fill="none" stroke="#000000" points="510.5,-174 510.5,-193 673.5,-193 673.5,-174 510.5,-174"/>
<text text-anchor="middle" x="592" y="-181" font-family="FreeSans.ttf" font-size="10.00" fill="#000000">iDynTree/Core/GeomVector3.h</text>
</a>
</g>
</g>
<!-- Node26&#45;&gt;Node27 -->
<g id="edge38" class="edge">
<title>Node26&#45;&gt;Node27</title>
<path fill="none" stroke="#191970" d="M945.991,-235.4581C870.4923,-224.3766 746.1808,-206.1304 666.7543,-194.4723"/>
<polygon fill="#191970" stroke="#191970" points="667.2191,-191.0031 656.8168,-193.0137 666.2025,-197.9289 667.2191,-191.0031"/>
</g>
<!-- Node28 -->
<g id="node29" class="node">
<title>Node28</title>
<g id="a_node29"><a xlink:href="RotationRaw_8h.html" target="_top" xlink:title="iDynTree/Core/RotationRaw.h">
<polygon fill="none" stroke="#000000" points="1018,-174 1018,-193 1176,-193 1176,-174 1018,-174"/>
<text text-anchor="middle" x="1097" y="-181" font-family="FreeSans.ttf" font-size="10.00" fill="#000000">iDynTree/Core/RotationRaw.h</text>
</a>
</g>
</g>
<!-- Node26&#45;&gt;Node28 -->
<g id="edge40" class="edge">
<title>Node26&#45;&gt;Node28</title>
<path fill="none" stroke="#191970" d="M1024.4375,-235.3906C1038.0695,-225.6421 1059.3846,-210.3994 1075.3922,-198.9521"/>
<polygon fill="#191970" stroke="#191970" points="1077.5586,-201.7057 1083.6569,-193.0419 1073.4868,-196.0118 1077.5586,-201.7057"/>
</g>
<!-- Node27&#45;&gt;Node17 -->
<g id="edge39" class="edge">
<title>Node27&#45;&gt;Node17</title>
<path fill="none" stroke="#191970" d="M592,-173.8906C592,-165.3657 592,-152.6392 592,-141.9235"/>
<polygon fill="#191970" stroke="#191970" points="595.5001,-141.7448 592,-131.7449 588.5001,-141.7449 595.5001,-141.7448"/>
</g>
<!-- Node28&#45;&gt;Node2 -->
<g id="edge41" class="edge">
<title>Node28&#45;&gt;Node2</title>
<path fill="none" stroke="#191970" d="M1065.5938,-173.8906C1030.9302,-163.2846 975.0119,-146.1753 936.9375,-134.5257"/>
<polygon fill="#191970" stroke="#191970" points="937.7722,-131.1209 927.1857,-131.5419 935.7241,-137.8146 937.7722,-131.1209"/>
</g>
<!-- Node28&#45;&gt;Node7 -->
<g id="edge42" class="edge">
<title>Node28&#45;&gt;Node7</title>
<path fill="none" stroke="#191970" d="M1107.1282,-173.9791C1123.4598,-159.0468 1157.1178,-129.973 1190,-112 1220.914,-95.1028 1259.27,-82.277 1285.8939,-74.516"/>
<polygon fill="#191970" stroke="#191970" points="1287.167,-77.793 1295.8313,-71.6955 1285.2556,-71.059 1287.167,-77.793"/>
</g>
<!-- Node30 -->
<g id="node31" class="node">
<title>Node30</title>
<g id="a_node31"><a xlink:href="SpatialMotionVector_8h.html" target="_top" xlink:title="iDynTree/Core/SpatialMotion\lVector.h">
<polygon fill="none" stroke="#000000" points="686.5,-403.5 686.5,-433.5 841.5,-433.5 841.5,-403.5 686.5,-403.5"/>
<text text-anchor="start" x="694.5" y="-421.5" font-family="FreeSans.ttf" font-size="10.00" fill="#000000">iDynTree/Core/SpatialMotion</text>
<text text-anchor="middle" x="764" y="-410.5" font-family="FreeSans.ttf" font-size="10.00" fill="#000000">Vector.h</text>
</a>
</g>
</g>
<!-- Node29&#45;&gt;Node30 -->
<g id="edge49" class="edge">
<title>Node29&#45;&gt;Node30</title>
<path fill="none" stroke="#191970" d="M795.2188,-470.3906C790.6749,-462.838 784.147,-451.9876 778.2341,-442.1593"/>
<polygon fill="#191970" stroke="#191970" points="781.2055,-440.309 773.0512,-433.5446 775.2074,-443.9177 781.2055,-440.309"/>
</g>
<!-- Node30&#45;&gt;Node17 -->
<g id="edge50" class="edge">
<title>Node30&#45;&gt;Node17</title>
<path fill="none" stroke="#191970" d="M711.7589,-403.4507C688.1272,-395.0766 660.6988,-383.0536 639,-367 561.3207,-309.5298 533.5732,-289.9718 501,-199 496.3555,-186.0287 493.7823,-179.7359 501,-168 510.3801,-152.7479 526.5542,-142.3672 542.689,-135.3894"/>
<polygon fill="#191970" stroke="#191970" points="544.1154,-138.5893 552.1328,-131.6631 541.5461,-132.0778 544.1154,-138.5893"/>
</g>
<!-- Node30&#45;&gt;Node27 -->
<g id="edge51" class="edge">
<title>Node30&#45;&gt;Node27</title>
<path fill="none" stroke="#191970" d="M713.247,-403.492C693.4352,-395.4359 671.9389,-383.6487 657,-367 613.8211,-318.8793 598.8782,-240.2112 594.0829,-203.519"/>
<polygon fill="#191970" stroke="#191970" points="597.5097,-202.6926 592.8597,-193.1728 590.5581,-203.5146 597.5097,-202.6926"/>
</g>
<!-- Node31 -->
<g id="node32" class="node">
<title>Node31</title>
<g id="a_node32"><a xlink:href="SpatialVector_8h.html" target="_top" xlink:title="iDynTree/Core/SpatialVector.h">
<polygon fill="none" stroke="#000000" points="666.5,-347.5 666.5,-366.5 827.5,-366.5 827.5,-347.5 666.5,-347.5"/>
<text text-anchor="middle" x="747" y="-354.5" font-family="FreeSans.ttf" font-size="10.00" fill="#000000">iDynTree/Core/SpatialVector.h</text>
</a>
</g>
</g>
<!-- Node30&#45;&gt;Node31 -->
<g id="edge52" class="edge">
<title>Node30&#45;&gt;Node31</title>
<path fill="none" stroke="#191970" d="M759.7978,-403.2977C757.5609,-395.2055 754.7851,-385.1639 752.391,-376.5029"/>
<polygon fill="#191970" stroke="#191970" points="755.7598,-375.5529 749.7219,-366.8469 749.0128,-377.418 755.7598,-375.5529"/>
</g>
<!-- Node31&#45;&gt;Node3 -->
<g id="edge55" class="edge">
<title>Node31&#45;&gt;Node3</title>
<path fill="none" stroke="#191970" d="M696.7902,-347.4995C625.9659,-331.1018 499.213,-290.0597 444,-199 418.0918,-156.2711 472.0332,-106.4244 504.619,-81.6457"/>
<polygon fill="#191970" stroke="#191970" points="506.8054,-84.3821 512.771,-75.6263 502.6473,-78.7508 506.8054,-84.3821"/>
</g>
<!-- Node31&#45;&gt;Node8 -->
<g id="edge57" class="edge">
<title>Node31&#45;&gt;Node8</title>
<path fill="none" stroke="#191970" d="M751.5742,-347.3613C760.1973,-328.278 778,-284.1405 778,-245 778,-245 778,-245 778,-183.5 778,-144.2716 804.8542,-104.9419 822.6313,-83.2039"/>
<polygon fill="#191970" stroke="#191970" points="825.3499,-85.4096 829.1468,-75.5184 820.0104,-80.8829 825.3499,-85.4096"/>
</g>
<!-- Node31&#45;&gt;Node9 -->
<g id="edge58" class="edge">
<title>Node31&#45;&gt;Node9</title>
<path fill="none" stroke="#191970" d="M740.1655,-347.3377C727.5769,-328.5638 702,-285.4436 702,-245 702,-245 702,-245 702,-183.5 702,-149.0604 698.5367,-109.0735 696.1676,-85.7484"/>
<polygon fill="#191970" stroke="#191970" points="699.641,-85.3119 695.1124,-75.7337 692.6796,-86.0454 699.641,-85.3119"/>
</g>
<!-- Node31&#45;&gt;Node15 -->
<g id="edge53" class="edge">
<title>Node31&#45;&gt;Node15</title>
<path fill="none" stroke="#191970" d="M808.4772,-347.4369C871.5122,-337.6314 969.4563,-322.3957 1035.8155,-312.0731"/>
<polygon fill="#191970" stroke="#191970" points="1036.4332,-315.5192 1045.7764,-310.5237 1035.3572,-308.6024 1036.4332,-315.5192"/>
</g>
<!-- Node31&#45;&gt;Node26 -->
<g id="edge54" class="edge">
<title>Node31&#45;&gt;Node26</title>
<path fill="none" stroke="#191970" d="M769.5085,-347.4509C816.463,-327.5308 924.9779,-281.4942 979.1023,-258.5323"/>
<polygon fill="#191970" stroke="#191970" points="980.7096,-261.6525 988.5485,-254.5249 977.9757,-255.2084 980.7096,-261.6525"/>
</g>
<!-- Node31&#45;&gt;Node27 -->
<g id="edge56" class="edge">
<title>Node31&#45;&gt;Node27</title>
<path fill="none" stroke="#191970" d="M732.4561,-347.4567C719.8873,-338.8086 701.6462,-325.2668 688,-311 659.3589,-281.0563 659.1078,-267.9627 634,-235 625.2406,-223.5002 614.9944,-210.9204 606.8152,-201.0726"/>
<polygon fill="#191970" stroke="#191970" points="609.3478,-198.6451 600.2487,-193.2176 603.9771,-203.1347 609.3478,-198.6451"/>
</g>
<!-- Node32&#45;&gt;Node30 -->
<g id="edge60" class="edge">
<title>Node32&#45;&gt;Node30</title>
<path fill="none" stroke="#191970" d="M924.3125,-470.3906C896.5745,-461.4123 854.4385,-447.7735 820.3253,-436.7316"/>
<polygon fill="#191970" stroke="#191970" points="821.0711,-433.2943 810.4792,-433.5446 818.9154,-439.9541 821.0711,-433.2943"/>
</g>
<!-- Node34 -->
<g id="node35" class="node">
<title>Node34</title>
<g id="a_node35"><a xlink:href="SpatialForceVector_8h.html" target="_top" xlink:title="iDynTree/Core/SpatialForce\lVector.h">
<polygon fill="none" stroke="#000000" points="387,-403.5 387,-433.5 535,-433.5 535,-403.5 387,-403.5"/>
<text text-anchor="start" x="395" y="-421.5" font-family="FreeSans.ttf" font-size="10.00" fill="#000000">iDynTree/Core/SpatialForce</text>
<text text-anchor="middle" x="461" y="-410.5" font-family="FreeSans.ttf" font-size="10.00" fill="#000000">Vector.h</text>
</a>
</g>
</g>
<!-- Node33&#45;&gt;Node34 -->
<g id="edge62" class="edge">
<title>Node33&#45;&gt;Node34</title>
<path fill="none" stroke="#191970" d="M473.6563,-470.3906C471.8893,-463.1463 469.3824,-452.8679 467.0653,-443.3676"/>
<polygon fill="#191970" stroke="#191970" points="470.4394,-442.4304 464.6694,-433.5446 463.6387,-444.0892 470.4394,-442.4304"/>
</g>
<!-- Node34&#45;&gt;Node17 -->
<g id="edge63" class="edge">
<title>Node34&#45;&gt;Node17</title>
<path fill="none" stroke="#191970" d="M457.3947,-403.391C452.4045,-381.119 444,-338.1011 444,-301 444,-301 444,-301 444,-245 444,-209.154 443.3347,-194.0107 468,-168 483.2761,-151.8906 504.7013,-141.388 525.4515,-134.555"/>
<polygon fill="#191970" stroke="#191970" points="526.6855,-137.838 535.2324,-131.577 524.6465,-131.1416 526.6855,-137.838"/>
</g>
<!-- Node34&#45;&gt;Node27 -->
<g id="edge64" class="edge">
<title>Node34&#45;&gt;Node27</title>
<path fill="none" stroke="#191970" d="M469.3939,-403.4422C492.389,-362.1914 556.3595,-247.4353 581.5833,-202.1865"/>
<polygon fill="#191970" stroke="#191970" points="584.7949,-203.6134 586.6069,-193.1746 578.6807,-200.205 584.7949,-203.6134"/>
</g>
<!-- Node34&#45;&gt;Node31 -->
<g id="edge65" class="edge">
<title>Node34&#45;&gt;Node31</title>
<path fill="none" stroke="#191970" d="M530.9635,-403.4554C580.7763,-392.7439 646.7517,-378.5569 692.6311,-368.6912"/>
<polygon fill="#191970" stroke="#191970" points="693.6395,-372.0545 702.6802,-366.5303 692.1678,-365.2109 693.6395,-372.0545"/>
</g>
<!-- Node35&#45;&gt;Node2 -->
<g id="edge67" class="edge">
<title>Node35&#45;&gt;Node2</title>
<path fill="none" stroke="#191970" d="M1422.4667,-176.234C1314.0858,-165.0691 1106.6206,-143.6971 987.0388,-131.3784"/>
<polygon fill="#191970" stroke="#191970" points="987.1175,-127.868 976.8115,-130.3248 986.4001,-134.8312 987.1175,-127.868"/>
</g>
<!-- Node35&#45;&gt;Node7 -->
<g id="edge68" class="edge">
<title>Node35&#45;&gt;Node7</title>
<path fill="none" stroke="#191970" d="M1477.2583,-168.3614C1460.8184,-153.0216 1433.868,-129.1677 1408,-112 1389.4957,-99.7193 1367.2904,-88.3382 1349.5663,-79.9689"/>
<polygon fill="#191970" stroke="#191970" points="1350.7772,-76.6725 1340.2326,-75.6425 1347.8334,-83.0234 1350.7772,-76.6725"/>
</g>
<!-- Node37&#45;&gt;Node17 -->
<g id="edge72" class="edge">
<title>Node37&#45;&gt;Node17</title>
<path fill="none" stroke="#191970" d="M263.1141,-470.3973C224.2653,-442.3384 120.1076,-358.222 164,-291 207.1674,-224.8883 438.8457,-160.1138 542.185,-134.0273"/>
<polygon fill="#191970" stroke="#191970" points="543.22,-137.3762 552.0699,-131.5513 541.5191,-130.586 543.22,-137.3762"/>
</g>
<!-- Node37&#45;&gt;Node34 -->
<g id="edge76" class="edge">
<title>Node37&#45;&gt;Node34</title>
<path fill="none" stroke="#191970" d="M305.75,-470.3906C332.6121,-461.4123 373.4175,-447.7735 406.4534,-436.7316"/>
<polygon fill="#191970" stroke="#191970" points="407.6138,-440.0342 415.9885,-433.5446 405.3948,-433.3952 407.6138,-440.0342"/>
</g>
<!-- Node37&#45;&gt;Node36 -->
<g id="edge77" class="edge">
<title>Node37&#45;&gt;Node36</title>
<path fill="none" stroke="#191970" d="M281.6875,-470.3906C285.9773,-461.5965 292.4482,-448.3312 297.7734,-437.4145"/>
<polygon fill="#191970" stroke="#191970" points="301.0078,-438.7671 302.2464,-428.2449 294.7164,-435.6981 301.0078,-438.7671"/>
</g>
<!-- Node38 -->
<g id="node39" class="node">
<title>Node38</title>
<g id="a_node39"><a xlink:href="VectorDynSize_8h.html" target="_top" xlink:title="iDynTree/Core/VectorDynSize.h">
<polygon fill="none" stroke="#000000" points="173.5,-291.5 173.5,-310.5 340.5,-310.5 340.5,-291.5 173.5,-291.5"/>
<text text-anchor="middle" x="257" y="-298.5" font-family="FreeSans.ttf" font-size="10.00" fill="#000000">iDynTree/Core/VectorDynSize.h</text>
</a>
</g>
</g>
<!-- Node37&#45;&gt;Node38 -->
<g id="edge73" class="edge">
<title>Node37&#45;&gt;Node38</title>
<path fill="none" stroke="#191970" d="M275.9247,-470.3762C272.7776,-442.2097 263.5377,-359.5126 259.2426,-321.0713"/>
<polygon fill="#191970" stroke="#191970" points="262.6695,-320.2209 258.0806,-310.6714 255.7127,-320.9982 262.6695,-320.2209"/>
</g>
<!-- Node38&#45;&gt;Node7 -->
<g id="edge75" class="edge">
<title>Node38&#45;&gt;Node7</title>
<path fill="none" stroke="#191970" d="M340.7339,-300.0229C522.4287,-297.3079 947.7841,-287.5739 1088,-255 1190.0158,-231.3004 1229.2556,-218.0203 1289,-132 1299.0277,-117.5621 1306.7814,-99.1 1311.7379,-85.3754"/>
<polygon fill="#191970" stroke="#191970" points="1315.1735,-86.1462 1315.1033,-75.5516 1308.5513,-83.8776 1315.1735,-86.1462"/>
</g>
<!-- Node38&#45;&gt;Node18 -->
<g id="edge74" class="edge">
<title>Node38&#45;&gt;Node18</title>
<path fill="none" stroke="#191970" d="M259.1029,-291.4967C266.8766,-256.3651 294.0877,-133.3922 304.7082,-85.3958"/>
<polygon fill="#191970" stroke="#191970" points="308.1277,-86.1416 306.871,-75.6216 301.293,-84.6292 308.1277,-86.1416"/>
</g>
<!-- Node39&#45;&gt;Node2 -->
<g id="edge83" class="edge">
<title>Node39&#45;&gt;Node2</title>
<path fill="none" stroke="#191970" d="M702.3842,-470.4676C760.6311,-460.7974 840.6455,-445.6373 850,-434 924.186,-341.7104 782.1841,-273.9784 835,-168 841.6003,-154.756 854.0327,-144.3192 865.9605,-136.7581"/>
<polygon fill="#191970" stroke="#191970" points="868.0165,-139.6102 874.8784,-131.5378 864.4801,-133.5691 868.0165,-139.6102"/>
</g>
<!-- Node39&#45;&gt;Node3 -->
<g id="edge87" class="edge">
<title>Node39&#45;&gt;Node3</title>
<path fill="none" stroke="#191970" d="M560.3009,-470.5252C456.4302,-458.2357 287.5981,-437.9029 274,-434 195.8277,-411.5632 108,-438.3285 108,-357 108,-357 108,-357 108,-301 108,-142.7672 338.1243,-89.9984 457.2847,-73.2807"/>
<polygon fill="#191970" stroke="#191970" points="457.9727,-76.7196 467.4125,-71.9092 457.0332,-69.7829 457.9727,-76.7196"/>
</g>
<!-- Node39&#45;&gt;Node11 -->
<g id="edge82" class="edge">
<title>Node39&#45;&gt;Node11</title>
<path fill="none" stroke="#191970" d="M721.952,-470.9959C725.0067,-470.6592 728.0309,-470.3263 731,-470 862.7842,-455.5195 1015.2054,-438.9997 1110.8571,-428.6604"/>
<polygon fill="#191970" stroke="#191970" points="1111.517,-432.1096 1121.083,-427.5552 1110.7648,-425.1501 1111.517,-432.1096"/>
</g>
<!-- Node39&#45;&gt;Node14 -->
<g id="edge86" class="edge">
<title>Node39&#45;&gt;Node14</title>
<path fill="none" stroke="#191970" d="M712.9294,-470.4644C761.8055,-462.9962 827.5755,-451.0028 884,-434 940.5625,-416.9557 1003.4112,-388.2214 1038.7777,-371.0888"/>
<polygon fill="#191970" stroke="#191970" points="1040.5485,-374.1191 1047.9961,-366.5836 1037.4748,-367.83 1040.5485,-374.1191"/>
</g>
<!-- Node39&#45;&gt;Node17 -->
<g id="edge81" class="edge">
<title>Node39&#45;&gt;Node17</title>
<path fill="none" stroke="#191970" d="M560.408,-471.1425C487.5087,-462.2997 389.7974,-448.0399 378,-434 364.4389,-417.8611 360.1521,-254.1901 444,-168 456.9481,-154.6902 498.9559,-142.3608 534.9242,-133.8237"/>
<polygon fill="#191970" stroke="#191970" points="535.9269,-137.1842 544.8797,-131.5187 534.348,-130.3646 535.9269,-137.1842"/>
</g>
<!-- Node39&#45;&gt;Node30 -->
<g id="edge84" class="edge">
<title>Node39&#45;&gt;Node30</title>
<path fill="none" stroke="#191970" d="M660.2188,-470.3906C677.4818,-461.7591 703.3596,-448.8202 724.9553,-438.0224"/>
<polygon fill="#191970" stroke="#191970" points="726.5318,-441.1473 733.9108,-433.5446 723.4013,-434.8863 726.5318,-441.1473"/>
</g>
<!-- Node39&#45;&gt;Node34 -->
<g id="edge85" class="edge">
<title>Node39&#45;&gt;Node34</title>
<path fill="none" stroke="#191970" d="M612.875,-470.3906C586.7097,-461.4508 547.0209,-447.8905 514.7773,-436.8739"/>
<polygon fill="#191970" stroke="#191970" points="515.6275,-433.4658 505.033,-433.5446 513.3642,-440.0898 515.6275,-433.4658"/>
</g>
<!-- Node39&#45;&gt;Node38 -->
<g id="edge80" class="edge">
<title>Node39&#45;&gt;Node38</title>
<path fill="none" stroke="#191970" d="M628.2766,-470.2099C616.2845,-460.9518 597.8407,-446.634 582,-434 564.96,-420.4095 562.9915,-413.6951 544,-403 466.0349,-359.0936 365.7477,-328.6665 306.71,-313.082"/>
<polygon fill="#191970" stroke="#191970" points="307.4494,-309.6579 296.8902,-310.5265 305.6864,-316.4323 307.4494,-309.6579"/>
</g>
<!-- Node40 -->
<g id="node41" class="node">
<title>Node40</title>
<polygon fill="none" stroke="#bfbfbf" points="591.5,-409 591.5,-428 668.5,-428 668.5,-409 591.5,-409"/>
<text text-anchor="middle" x="630" y="-416" font-family="FreeSans.ttf" font-size="10.00" fill="#000000">Eigen/Dense</text>
</g>
<!-- Node39&#45;&gt;Node40 -->
<g id="edge79" class="edge">
<title>Node39&#45;&gt;Node40</title>
<path fill="none" stroke="#191970" d="M639.2813,-470.3906C637.7565,-461.8657 635.4802,-449.1392 633.5636,-438.4235"/>
<polygon fill="#191970" stroke="#191970" points="636.9491,-437.4724 631.743,-428.2449 630.0584,-438.7049 636.9491,-437.4724"/>
</g>
</g>
</svg>
