<?xml version="1.0" encoding="UTF-8" standalone="no"?>
<!DOCTYPE svg PUBLIC "-//W3C//DTD SVG 1.1//EN"
 "http://www.w3.org/Graphics/SVG/1.1/DTD/svg11.dtd">
<!-- Generated by graphviz version 2.40.1 (20161225.0304)
 -->
<!-- Title: Dynamics.cpp Pages: 1 -->
<svg width="2081pt" height="766pt"
 viewBox="0.00 0.00 2081.26 766.00" xmlns="http://www.w3.org/2000/svg" xmlns:xlink="http://www.w3.org/1999/xlink">
<g id="graph0" class="graph" transform="scale(1 1) rotate(0) translate(4 762)">
<title>Dynamics.cpp</title>
<!-- Node0 -->
<g id="node1" class="node">
<title>Node0</title>
<polygon fill="#bfbfbf" stroke="#000000" points="1119.7601,-738.5 1119.7601,-757.5 1205.7601,-757.5 1205.7601,-738.5 1119.7601,-738.5"/>
<text text-anchor="middle" x="1162.7601" y="-745.5" font-family="FreeSans.ttf" font-size="10.00" fill="#000000">Dynamics.cpp</text>
</g>
<!-- Node1 -->
<g id="node2" class="node">
<title>Node1</title>
<g id="a_node2"><a xlink:href="Model_8h.html" target="_top" xlink:title="iDynTree/Model/Model.h">
<polygon fill="none" stroke="#000000" points="1563.2601,-677 1563.2601,-696 1696.2601,-696 1696.2601,-677 1563.2601,-677"/>
<text text-anchor="middle" x="1629.7601" y="-684" font-family="FreeSans.ttf" font-size="10.00" fill="#000000">iDynTree/Model/Model.h</text>
</a>
</g>
</g>
<!-- Node0&#45;&gt;Node1 -->
<g id="edge1" class="edge">
<title>Node0&#45;&gt;Node1</title>
<path fill="none" stroke="#191970" d="M1205.8573,-742.3245C1284.883,-731.9174 1453.9397,-709.6541 1553.0203,-696.606"/>
<polygon fill="#191970" stroke="#191970" points="1553.5171,-700.0709 1562.9745,-695.2951 1552.6031,-693.1308 1553.5171,-700.0709"/>
</g>
<!-- Node6 -->
<g id="node7" class="node">
<title>Node6</title>
<g id="a_node7"><a xlink:href="SpatialInertia_8h.html" target="_top" xlink:title="iDynTree/Core/SpatialInertia.h">
<polygon fill="none" stroke="#000000" points="777.7601,-548.5 777.7601,-567.5 939.7601,-567.5 939.7601,-548.5 777.7601,-548.5"/>
<text text-anchor="middle" x="858.7601" y="-555.5" font-family="FreeSans.ttf" font-size="10.00" fill="#000000">iDynTree/Core/SpatialInertia.h</text>
</a>
</g>
</g>
<!-- Node0&#45;&gt;Node6 -->
<g id="edge108" class="edge">
<title>Node0&#45;&gt;Node6</title>
<path fill="none" stroke="#191970" d="M1130.1191,-738.4439C1080.7118,-722.8133 985.7176,-688.1018 919.7601,-635 899.105,-618.3708 881.038,-593.5371 870.0347,-576.5994"/>
<polygon fill="#191970" stroke="#191970" points="872.6964,-574.258 864.4061,-567.6609 866.773,-577.988 872.6964,-574.258"/>
</g>
<!-- Node33 -->
<g id="node31" class="node">
<title>Node33</title>
<g id="a_node31"><a xlink:href="SpatialMomentum_8h.html" target="_top" xlink:title="iDynTree/Core/SpatialMomentum.h">
<polygon fill="none" stroke="#000000" points="48.7601,-487 48.7601,-506 234.7601,-506 234.7601,-487 48.7601,-487"/>
<text text-anchor="middle" x="141.7601" y="-494" font-family="FreeSans.ttf" font-size="10.00" fill="#000000">iDynTree/Core/SpatialMomentum.h</text>
</a>
</g>
</g>
<!-- Node0&#45;&gt;Node33 -->
<g id="edge109" class="edge">
<title>Node0&#45;&gt;Node33</title>
<path fill="none" stroke="#191970" d="M1119.6301,-746.0137C1045.3609,-741.9433 888.8626,-730.5091 759.7601,-702 529.6298,-651.1815 264.5558,-546.8844 174.0007,-509.8828"/>
<polygon fill="#191970" stroke="#191970" points="175.1436,-506.5687 164.5634,-506.0116 172.487,-513.045 175.1436,-506.5687"/>
</g>
<!-- Node41 -->
<g id="node39" class="node">
<title>Node41</title>
<g id="a_node39"><a xlink:href="Traversal_8h.html" target="_top" xlink:title="iDynTree/Model/Traversal.h">
<polygon fill="none" stroke="#000000" points="1275.7601,-548.5 1275.7601,-567.5 1423.7601,-567.5 1423.7601,-548.5 1275.7601,-548.5"/>
<text text-anchor="middle" x="1349.7601" y="-555.5" font-family="FreeSans.ttf" font-size="10.00" fill="#000000">iDynTree/Model/Traversal.h</text>
</a>
</g>
</g>
<!-- Node0&#45;&gt;Node41 -->
<g id="edge76" class="edge">
<title>Node0&#45;&gt;Node41</title>
<path fill="none" stroke="#191970" d="M1177.189,-738.3429C1203.5893,-720.2156 1260.5547,-678.9403 1299.7601,-635 1315.9296,-616.8776 1330.5645,-593.0491 1339.7631,-576.7275"/>
<polygon fill="#191970" stroke="#191970" points="1343.0013,-578.1023 1344.7531,-567.6533 1336.8676,-574.7293 1343.0013,-578.1023"/>
</g>
<!-- Node42 -->
<g id="node40" class="node">
<title>Node42</title>
<g id="a_node40"><a xlink:href="FreeFloatingState_8h.html" target="_top" xlink:title="iDynTree/Model/FreeFloating\lState.h">
<polygon fill="none" stroke="#000000" points="928.7601,-604.5 928.7601,-634.5 1082.7601,-634.5 1082.7601,-604.5 928.7601,-604.5"/>
<text text-anchor="start" x="936.7601" y="-622.5" font-family="FreeSans.ttf" font-size="10.00" fill="#000000">iDynTree/Model/FreeFloating</text>
<text text-anchor="middle" x="1005.7601" y="-611.5" font-family="FreeSans.ttf" font-size="10.00" fill="#000000">State.h</text>
</a>
</g>
</g>
<!-- Node0&#45;&gt;Node42 -->
<g id="edge79" class="edge">
<title>Node0&#45;&gt;Node42</title>
<path fill="none" stroke="#191970" d="M1147.9542,-738.4673C1134.3172,-729.5053 1113.6941,-715.487 1096.7601,-702 1072.7477,-682.8755 1046.9663,-659.1726 1028.998,-642.0874"/>
<polygon fill="#191970" stroke="#191970" points="1030.9704,-639.1304 1021.3265,-634.7434 1026.1298,-644.1869 1030.9704,-639.1304"/>
</g>
<!-- Node44 -->
<g id="node42" class="node">
<title>Node44</title>
<g id="a_node42"><a xlink:href="LinkState_8h.html" target="_top" xlink:title="iDynTree/Model/LinkState.h">
<polygon fill="none" stroke="#000000" points="1033.2601,-548.5 1033.2601,-567.5 1182.2601,-567.5 1182.2601,-548.5 1033.2601,-548.5"/>
<text text-anchor="middle" x="1107.7601" y="-555.5" font-family="FreeSans.ttf" font-size="10.00" fill="#000000">iDynTree/Model/LinkState.h</text>
</a>
</g>
</g>
<!-- Node0&#45;&gt;Node44 -->
<g id="edge105" class="edge">
<title>Node0&#45;&gt;Node44</title>
<path fill="none" stroke="#191970" d="M1159.9159,-738.3315C1154.1781,-718.8108 1140.8203,-673.2876 1129.7601,-635 1124.1714,-615.6534 1117.8641,-593.5497 1113.4404,-578.002"/>
<polygon fill="#191970" stroke="#191970" points="1116.6905,-576.6347 1110.5894,-567.9728 1109.9572,-578.5488 1116.6905,-576.6347"/>
</g>
<!-- Node45 -->
<g id="node43" class="node">
<title>Node45</title>
<g id="a_node43"><a xlink:href="ArticulatedBodyInertia_8h.html" target="_top" xlink:title="iDynTree/Core/Articulated\lBodyInertia.h">
<polygon fill="none" stroke="#000000" points="1416.2601,-280.5 1416.2601,-310.5 1557.2601,-310.5 1557.2601,-280.5 1416.2601,-280.5"/>
<text text-anchor="start" x="1424.2601" y="-298.5" font-family="FreeSans.ttf" font-size="10.00" fill="#000000">iDynTree/Core/Articulated</text>
<text text-anchor="middle" x="1486.7601" y="-287.5" font-family="FreeSans.ttf" font-size="10.00" fill="#000000">BodyInertia.h</text>
</a>
</g>
</g>
<!-- Node0&#45;&gt;Node45 -->
<g id="edge107" class="edge">
<title>Node0&#45;&gt;Node45</title>
<path fill="none" stroke="#191970" d="M1205.8359,-747.2722C1354.7648,-744.4905 1842.1967,-733.0785 1904.7601,-702 1948.0847,-680.4784 1975.7601,-667.8756 1975.7601,-619.5 1975.7601,-619.5 1975.7601,-619.5 1975.7601,-558 1975.7601,-374.9309 1706.4114,-319.0093 1567.5187,-302.3425"/>
<polygon fill="#191970" stroke="#191970" points="1567.679,-298.8378 1557.3427,-301.1637 1566.8734,-305.7913 1567.679,-298.8378"/>
</g>
<!-- Node46 -->
<g id="node44" class="node">
<title>Node46</title>
<g id="a_node44"><a xlink:href="JointState_8h.html" target="_top" xlink:title="iDynTree/Model/JointState.h">
<polygon fill="none" stroke="#000000" points="570.2601,-548.5 570.2601,-567.5 721.2601,-567.5 721.2601,-548.5 570.2601,-548.5"/>
<text text-anchor="middle" x="645.7601" y="-555.5" font-family="FreeSans.ttf" font-size="10.00" fill="#000000">iDynTree/Model/JointState.h</text>
</a>
</g>
</g>
<!-- Node0&#45;&gt;Node46 -->
<g id="edge106" class="edge">
<title>Node0&#45;&gt;Node46</title>
<path fill="none" stroke="#191970" d="M1119.5074,-739.8103C1080.5894,-731.9058 1022.1098,-718.6928 972.7601,-702 858.5686,-663.374 729.312,-600.4111 673.6649,-572.3182"/>
<polygon fill="#191970" stroke="#191970" points="674.9585,-569.0499 664.4568,-567.6479 671.7921,-575.2928 674.9585,-569.0499"/>
</g>
<!-- Node47 -->
<g id="node45" class="node">
<title>Node47</title>
<g id="a_node45"><a xlink:href="FreeFloatingMatrices_8h.html" target="_top" xlink:title="iDynTree/Model/FreeFloating\lMatrices.h">
<polygon fill="none" stroke="#000000" points="1741.7601,-671.5 1741.7601,-701.5 1895.7601,-701.5 1895.7601,-671.5 1741.7601,-671.5"/>
<text text-anchor="start" x="1749.7601" y="-689.5" font-family="FreeSans.ttf" font-size="10.00" fill="#000000">iDynTree/Model/FreeFloating</text>
<text text-anchor="middle" x="1818.7601" y="-678.5" font-family="FreeSans.ttf" font-size="10.00" fill="#000000">Matrices.h</text>
</a>
</g>
</g>
<!-- Node0&#45;&gt;Node47 -->
<g id="edge102" class="edge">
<title>Node0&#45;&gt;Node47</title>
<path fill="none" stroke="#191970" d="M1206.0405,-745.072C1298.0033,-738.6868 1519.6099,-722.4307 1704.7601,-702 1713.4149,-701.045 1722.4278,-699.9657 1731.426,-698.8323"/>
<polygon fill="#191970" stroke="#191970" points="1732.0853,-702.2765 1741.559,-697.5333 1731.1951,-695.3333 1732.0853,-702.2765"/>
</g>
<!-- Node49 -->
<g id="node47" class="node">
<title>Node49</title>
<g id="a_node47"><a xlink:href="EigenHelpers_8h.html" target="_top" xlink:title="iDynTree/Core/EigenHelpers.h">
<polygon fill="none" stroke="#000000" points="442.2601,-487 442.2601,-506 603.2601,-506 603.2601,-487 442.2601,-487"/>
<text text-anchor="middle" x="522.7601" y="-494" font-family="FreeSans.ttf" font-size="10.00" fill="#000000">iDynTree/Core/EigenHelpers.h</text>
</a>
</g>
</g>
<!-- Node0&#45;&gt;Node49 -->
<g id="edge110" class="edge">
<title>Node0&#45;&gt;Node49</title>
<path fill="none" stroke="#191970" d="M1119.7186,-743.659C1065.549,-737.5293 970.0039,-724.4977 890.7601,-702 738.4811,-658.7672 678.2952,-674.0352 560.7601,-568 545.1559,-553.9226 534.8175,-531.9029 528.9162,-516.0183"/>
<polygon fill="#191970" stroke="#191970" points="532.0924,-514.4917 525.5294,-506.1744 525.4732,-516.769 532.0924,-514.4917"/>
</g>
<!-- Node51 -->
<g id="node49" class="node">
<title>Node51</title>
<g id="a_node49"><a xlink:href="Dynamics_8h.html" target="_top" xlink:title="iDynTree/Model/Dynamics.h">
<polygon fill="none" stroke="#000000" points="1138.7601,-610 1138.7601,-629 1290.7601,-629 1290.7601,-610 1138.7601,-610"/>
<text text-anchor="middle" x="1214.7601" y="-617" font-family="FreeSans.ttf" font-size="10.00" fill="#000000">iDynTree/Model/Dynamics.h</text>
</a>
</g>
</g>
<!-- Node0&#45;&gt;Node51 -->
<g id="edge120" class="edge">
<title>Node0&#45;&gt;Node51</title>
<path fill="none" stroke="#191970" d="M1166.6686,-738.3416C1175.2137,-717.2254 1195.6944,-666.6144 1206.9767,-638.7341"/>
<polygon fill="#191970" stroke="#191970" points="1210.2995,-639.8532 1210.8063,-629.2705 1203.8106,-637.2273 1210.2995,-639.8532"/>
</g>
<!-- Node52 -->
<g id="node50" class="node">
<title>Node52</title>
<polygon fill="none" stroke="#bfbfbf" points="2004.2601,-677 2004.2601,-696 2073.2601,-696 2073.2601,-677 2004.2601,-677"/>
<text text-anchor="middle" x="2038.7601" y="-684" font-family="FreeSans.ttf" font-size="10.00" fill="#000000">Eigen/Core</text>
</g>
<!-- Node0&#45;&gt;Node52 -->
<g id="edge125" class="edge">
<title>Node0&#45;&gt;Node52</title>
<path fill="none" stroke="#191970" d="M1205.833,-747.029C1353.2678,-743.4828 1836.994,-729.9513 1989.7601,-702 1994.1745,-701.1923 1998.7458,-700.1037 2003.2418,-698.8757"/>
<polygon fill="#191970" stroke="#191970" points="2004.2818,-702.218 2012.8743,-696.0197 2002.2919,-695.5068 2004.2818,-702.218"/>
</g>
<!-- Node2 -->
<g id="node3" class="node">
<title>Node2</title>
<g id="a_node3"><a xlink:href="IJoint_8h.html" target="_top" xlink:title="iDynTree/Model/IJoint.h">
<polygon fill="none" stroke="#000000" points="1631.7601,-610 1631.7601,-629 1759.7601,-629 1759.7601,-610 1631.7601,-610"/>
<text text-anchor="middle" x="1695.7601" y="-617" font-family="FreeSans.ttf" font-size="10.00" fill="#000000">iDynTree/Model/IJoint.h</text>
</a>
</g>
</g>
<!-- Node1&#45;&gt;Node2 -->
<g id="edge2" class="edge">
<title>Node1&#45;&gt;Node2</title>
<path fill="none" stroke="#191970" d="M1639.2163,-676.9005C1649.6064,-666.353 1666.4939,-649.2096 1679.1125,-636.3998"/>
<polygon fill="#191970" stroke="#191970" points="1681.7971,-638.6619 1686.3215,-629.0817 1676.8103,-633.7495 1681.7971,-638.6619"/>
</g>
<!-- Node3 -->
<g id="node4" class="node">
<title>Node3</title>
<g id="a_node4"><a xlink:href="Indices_8h.html" target="_top" xlink:title="iDynTree/Model/Indices.h">
<polygon fill="none" stroke="#000000" points="1477.7601,-487 1477.7601,-506 1615.7601,-506 1615.7601,-487 1477.7601,-487"/>
<text text-anchor="middle" x="1546.7601" y="-494" font-family="FreeSans.ttf" font-size="10.00" fill="#000000">iDynTree/Model/Indices.h</text>
</a>
</g>
</g>
<!-- Node1&#45;&gt;Node3 -->
<g id="edge68" class="edge">
<title>Node1&#45;&gt;Node3</title>
<path fill="none" stroke="#191970" d="M1625.53,-676.8167C1612.4626,-646.9033 1572.5692,-555.5811 1555.1008,-515.5931"/>
<polygon fill="#191970" stroke="#191970" points="1558.2917,-514.1544 1551.0812,-506.3917 1551.8771,-516.9566 1558.2917,-514.1544"/>
</g>
<!-- Node5 -->
<g id="node6" class="node">
<title>Node5</title>
<g id="a_node6"><a xlink:href="Link_8h.html" target="_top" xlink:title="iDynTree/Model/Link.h">
<polygon fill="none" stroke="#000000" points="1451.7601,-610 1451.7601,-629 1575.7601,-629 1575.7601,-610 1451.7601,-610"/>
<text text-anchor="middle" x="1513.7601" y="-617" font-family="FreeSans.ttf" font-size="10.00" fill="#000000">iDynTree/Model/Link.h</text>
</a>
</g>
</g>
<!-- Node1&#45;&gt;Node5 -->
<g id="edge5" class="edge">
<title>Node1&#45;&gt;Node5</title>
<path fill="none" stroke="#191970" d="M1613.1401,-676.9005C1593.7589,-665.7062 1561.5146,-647.0823 1539.0286,-634.0947"/>
<polygon fill="#191970" stroke="#191970" points="1540.7592,-631.0525 1530.3493,-629.0817 1537.2581,-637.114 1540.7592,-631.0525"/>
</g>
<!-- Node37 -->
<g id="node35" class="node">
<title>Node37</title>
<g id="a_node35"><a xlink:href="Transform_8h.html" target="_top" xlink:title="iDynTree/Core/Transform.h">
<polygon fill="none" stroke="#000000" points="1188.7601,-420 1188.7601,-439 1334.7601,-439 1334.7601,-420 1188.7601,-420"/>
<text text-anchor="middle" x="1261.7601" y="-427" font-family="FreeSans.ttf" font-size="10.00" fill="#000000">iDynTree/Core/Transform.h</text>
</a>
</g>
</g>
<!-- Node1&#45;&gt;Node37 -->
<g id="edge63" class="edge">
<title>Node1&#45;&gt;Node37</title>
<path fill="none" stroke="#191970" d="M1681.7981,-676.9955C1730.4875,-665.5359 1792.4403,-642.8066 1768.7601,-604 1750.5372,-574.1366 1726.1709,-589.7382 1698.7601,-568 1658.9871,-536.458 1669.2238,-505.4902 1624.7601,-481 1600.7396,-467.7697 1444.5625,-449.0143 1345.0417,-438.1678"/>
<polygon fill="#191970" stroke="#191970" points="1345.3151,-434.677 1334.9961,-437.0788 1344.5606,-441.6362 1345.3151,-434.677"/>
</g>
<!-- Node38 -->
<g id="node36" class="node">
<title>Node38</title>
<g id="a_node36"><a xlink:href="SolidShapes_8h.html" target="_top" xlink:title="iDynTree/Model/SolidShapes.h">
<polygon fill="none" stroke="#000000" points="1708.2601,-548.5 1708.2601,-567.5 1871.2601,-567.5 1871.2601,-548.5 1708.2601,-548.5"/>
<text text-anchor="middle" x="1789.7601" y="-555.5" font-family="FreeSans.ttf" font-size="10.00" fill="#000000">iDynTree/Model/SolidShapes.h</text>
</a>
</g>
</g>
<!-- Node1&#45;&gt;Node38 -->
<g id="edge69" class="edge">
<title>Node1&#45;&gt;Node38</title>
<path fill="none" stroke="#191970" d="M1686.6262,-676.9685C1731.1478,-668.2105 1787.7999,-653.7524 1801.7601,-635 1814.2043,-618.2839 1807.3293,-593.8076 1799.878,-576.9611"/>
<polygon fill="#191970" stroke="#191970" points="1802.8473,-575.063 1795.3317,-567.5953 1796.55,-578.1199 1802.8473,-575.063"/>
</g>
<!-- Node39 -->
<g id="node37" class="node">
<title>Node39</title>
<polygon fill="none" stroke="#bfbfbf" points="1835.2601,-487 1835.2601,-506 1884.2601,-506 1884.2601,-487 1835.2601,-487"/>
<text text-anchor="middle" x="1859.7601" y="-494" font-family="FreeSans.ttf" font-size="10.00" fill="#000000">cstdlib</text>
</g>
<!-- Node1&#45;&gt;Node39 -->
<g id="edge74" class="edge">
<title>Node1&#45;&gt;Node39</title>
<path fill="none" stroke="#191970" d="M1696.3865,-678.0544C1734.6536,-670.9368 1782.3794,-658.0511 1819.7601,-635 1853.784,-614.019 1865.4856,-605.3372 1879.7601,-568 1886.4172,-550.5875 1879.1694,-530.0292 1871.6029,-515.4369"/>
<polygon fill="#191970" stroke="#191970" points="1874.4566,-513.3735 1866.4806,-506.3996 1868.3667,-516.8252 1874.4566,-513.3735"/>
</g>
<!-- Node40 -->
<g id="node38" class="node">
<title>Node40</title>
<polygon fill="none" stroke="#bfbfbf" points="1366.2601,-487 1366.2601,-506 1413.2601,-506 1413.2601,-487 1366.2601,-487"/>
<text text-anchor="middle" x="1389.7601" y="-494" font-family="FreeSans.ttf" font-size="10.00" fill="#000000">vector</text>
</g>
<!-- Node1&#45;&gt;Node40 -->
<g id="edge75" class="edge">
<title>Node1&#45;&gt;Node40</title>
<path fill="none" stroke="#191970" d="M1567.134,-676.9288C1519.3435,-668.2777 1459.0246,-653.9898 1442.7601,-635 1417.4416,-605.4392 1448.0982,-583.7716 1432.7601,-548 1427.1658,-534.953 1417.1523,-522.6564 1408.1953,-513.3527"/>
<polygon fill="#191970" stroke="#191970" points="1410.616,-510.8243 1401.0401,-506.2908 1405.6988,-515.8064 1410.616,-510.8243"/>
</g>
<!-- Node2&#45;&gt;Node3 -->
<g id="edge3" class="edge">
<title>Node2&#45;&gt;Node3</title>
<path fill="none" stroke="#191970" d="M1685.9904,-609.8663C1671.5296,-595.766 1643.3727,-568.9136 1617.7601,-548 1602.1824,-535.2802 1583.7809,-521.9778 1569.6153,-512.0794"/>
<polygon fill="#191970" stroke="#191970" points="1571.2042,-508.9224 1560.9904,-506.1066 1567.2189,-514.6772 1571.2042,-508.9224"/>
</g>
<!-- Node4 -->
<g id="node5" class="node">
<title>Node4</title>
<polygon fill="none" stroke="#bfbfbf" points="1356.7601,-56.5 1356.7601,-75.5 1400.7601,-75.5 1400.7601,-56.5 1356.7601,-56.5"/>
<text text-anchor="middle" x="1378.7601" y="-63.5" font-family="FreeSans.ttf" font-size="10.00" fill="#000000">string</text>
</g>
<!-- Node3&#45;&gt;Node4 -->
<g id="edge4" class="edge">
<title>Node3&#45;&gt;Node4</title>
<path fill="none" stroke="#191970" d="M1559.6826,-486.8364C1571.4593,-477.3881 1588.5313,-461.9781 1598.7601,-445 1618.5316,-412.1825 1623.7601,-400.8132 1623.7601,-362.5 1623.7601,-362.5 1623.7601,-362.5 1623.7601,-178 1623.7601,-141.1996 1604.6014,-132.077 1573.7601,-112 1547.0773,-94.63 1458.8379,-78.5794 1410.726,-70.8439"/>
<polygon fill="#191970" stroke="#191970" points="1411.2476,-67.3829 1400.8237,-69.2781 1410.1543,-74.297 1411.2476,-67.3829"/>
</g>
<!-- Node5&#45;&gt;Node3 -->
<g id="edge62" class="edge">
<title>Node5&#45;&gt;Node3</title>
<path fill="none" stroke="#191970" d="M1520.6953,-609.7996C1527.4019,-599.8407 1537.1991,-583.6314 1541.7601,-568 1546.6555,-551.2223 1547.6843,-531.3323 1547.6157,-516.7954"/>
<polygon fill="#191970" stroke="#191970" points="1551.1068,-516.3635 1547.3783,-506.4464 1544.1087,-516.5241 1551.1068,-516.3635"/>
</g>
<!-- Node5&#45;&gt;Node6 -->
<g id="edge6" class="edge">
<title>Node5&#45;&gt;Node6</title>
<path fill="none" stroke="#191970" d="M1451.5488,-613.6588C1335.4615,-602.759 1085.3823,-579.2783 950.1072,-566.5769"/>
<polygon fill="#191970" stroke="#191970" points="950.0562,-563.0568 939.7728,-565.6065 949.4017,-570.0261 950.0562,-563.0568"/>
</g>
<!-- Node7 -->
<g id="node8" class="node">
<title>Node7</title>
<g id="a_node8"><a xlink:href="SpatialInertiaRaw_8h.html" target="_top" xlink:title="iDynTree/Core/SpatialInertia\lRaw.h">
<polygon fill="none" stroke="#000000" points="1004.2601,-481.5 1004.2601,-511.5 1157.2601,-511.5 1157.2601,-481.5 1004.2601,-481.5"/>
<text text-anchor="start" x="1012.2601" y="-499.5" font-family="FreeSans.ttf" font-size="10.00" fill="#000000">iDynTree/Core/SpatialInertia</text>
<text text-anchor="middle" x="1080.7601" y="-488.5" font-family="FreeSans.ttf" font-size="10.00" fill="#000000">Raw.h</text>
</a>
</g>
</g>
<!-- Node6&#45;&gt;Node7 -->
<g id="edge7" class="edge">
<title>Node6&#45;&gt;Node7</title>
<path fill="none" stroke="#191970" d="M893.4476,-548.3906C926.3441,-539.2774 976.5728,-525.3627 1016.7382,-514.2358"/>
<polygon fill="#191970" stroke="#191970" points="1017.7502,-517.5874 1026.4528,-511.5446 1015.8813,-510.8414 1017.7502,-517.5874"/>
</g>
<!-- Node16 -->
<g id="node17" class="node">
<title>Node16</title>
<g id="a_node17"><a xlink:href="VectorFixSize_8h.html" target="_top" xlink:title="iDynTree/Core/VectorFixSize.h">
<polygon fill="none" stroke="#000000" points="534.2601,-112.5 534.2601,-131.5 695.2601,-131.5 695.2601,-112.5 534.2601,-112.5"/>
<text text-anchor="middle" x="614.7601" y="-119.5" font-family="FreeSans.ttf" font-size="10.00" fill="#000000">iDynTree/Core/VectorFixSize.h</text>
</a>
</g>
</g>
<!-- Node6&#45;&gt;Node16 -->
<g id="edge17" class="edge">
<title>Node6&#45;&gt;Node16</title>
<path fill="none" stroke="#191970" d="M903.6317,-548.4588C923.4849,-541.7646 944.9683,-530.5612 956.7601,-512 980.1161,-475.2361 983.4195,-448.4436 956.7601,-414 917.6997,-363.5344 869.2677,-415.6757 817.7601,-378 728.7824,-312.9165 763.1749,-246.4847 685.7601,-168 673.4413,-155.511 657.1626,-144.6626 643.3004,-136.6426"/>
<polygon fill="#191970" stroke="#191970" points="644.6074,-133.3643 634.168,-131.5566 641.2016,-139.4799 644.6074,-133.3643"/>
</g>
<!-- Node25 -->
<g id="node23" class="node">
<title>Node25</title>
<g id="a_node23"><a xlink:href="Twist_8h.html" target="_top" xlink:title="iDynTree/Core/Twist.h">
<polygon fill="none" stroke="#000000" points="659.7601,-487 659.7601,-506 781.7601,-506 781.7601,-487 659.7601,-487"/>
<text text-anchor="middle" x="720.7601" y="-494" font-family="FreeSans.ttf" font-size="10.00" fill="#000000">iDynTree/Core/Twist.h</text>
</a>
</g>
</g>
<!-- Node6&#45;&gt;Node25 -->
<g id="edge30" class="edge">
<title>Node6&#45;&gt;Node25</title>
<path fill="none" stroke="#191970" d="M837.1976,-548.3906C814.209,-538.1457 777.6041,-521.8326 751.5777,-510.2339"/>
<polygon fill="#191970" stroke="#191970" points="752.7299,-506.9156 742.1712,-506.0419 749.8805,-513.3095 752.7299,-506.9156"/>
</g>
<!-- Node6&#45;&gt;Node33 -->
<g id="edge53" class="edge">
<title>Node6&#45;&gt;Node33</title>
<path fill="none" stroke="#191970" d="M777.6074,-551.6696C630.332,-540.1606 329.7789,-516.5712 281.7601,-512 266.3834,-510.5362 250.0718,-508.8511 234.2226,-507.1431"/>
<polygon fill="#191970" stroke="#191970" points="234.2085,-503.621 223.8887,-506.0195 233.4517,-510.58 234.2085,-503.621"/>
</g>
<!-- Node35 -->
<g id="node33" class="node">
<title>Node35</title>
<g id="a_node33"><a xlink:href="SpatialAcc_8h.html" target="_top" xlink:title="iDynTree/Core/SpatialAcc.h">
<polygon fill="none" stroke="#000000" points="799.7601,-487 799.7601,-506 947.7601,-506 947.7601,-487 799.7601,-487"/>
<text text-anchor="middle" x="873.7601" y="-494" font-family="FreeSans.ttf" font-size="10.00" fill="#000000">iDynTree/Core/SpatialAcc.h</text>
</a>
</g>
</g>
<!-- Node6&#45;&gt;Node35 -->
<g id="edge58" class="edge">
<title>Node6&#45;&gt;Node35</title>
<path fill="none" stroke="#191970" d="M861.1039,-548.3906C863.205,-539.776 866.3526,-526.8708 868.9831,-516.0858"/>
<polygon fill="#191970" stroke="#191970" points="872.414,-516.7894 871.3833,-506.2449 865.6134,-515.1307 872.414,-516.7894"/>
</g>
<!-- Node36 -->
<g id="node34" class="node">
<title>Node36</title>
<g id="a_node34"><a xlink:href="Wrench_8h.html" target="_top" xlink:title="iDynTree/Core/Wrench.h">
<polygon fill="none" stroke="#000000" points="291.2601,-487 291.2601,-506 424.2601,-506 424.2601,-487 291.2601,-487"/>
<text text-anchor="middle" x="357.7601" y="-494" font-family="FreeSans.ttf" font-size="10.00" fill="#000000">iDynTree/Core/Wrench.h</text>
</a>
</g>
</g>
<!-- Node6&#45;&gt;Node36 -->
<g id="edge60" class="edge">
<title>Node6&#45;&gt;Node36</title>
<path fill="none" stroke="#191970" d="M777.5801,-551.5744C691.639,-544.2258 552.1791,-530.7429 432.7601,-512 425.5358,-510.8661 417.9538,-509.504 410.5013,-508.0641"/>
<polygon fill="#191970" stroke="#191970" points="410.9557,-504.586 400.4649,-506.0664 409.5892,-511.4513 410.9557,-504.586"/>
</g>
<!-- Node8 -->
<g id="node9" class="node">
<title>Node8</title>
<g id="a_node9"><a xlink:href="RotationalInertiaRaw_8h.html" target="_top" xlink:title="iDynTree/Core/Rotational\lInertiaRaw.h">
<polygon fill="none" stroke="#000000" points="827.2601,-347.5 827.2601,-377.5 964.2601,-377.5 964.2601,-347.5 827.2601,-347.5"/>
<text text-anchor="start" x="835.2601" y="-365.5" font-family="FreeSans.ttf" font-size="10.00" fill="#000000">iDynTree/Core/Rotational</text>
<text text-anchor="middle" x="895.7601" y="-354.5" font-family="FreeSans.ttf" font-size="10.00" fill="#000000">InertiaRaw.h</text>
</a>
</g>
</g>
<!-- Node7&#45;&gt;Node8 -->
<g id="edge8" class="edge">
<title>Node7&#45;&gt;Node8</title>
<path fill="none" stroke="#191970" d="M1066.2387,-481.3234C1049.0131,-463.8172 1018.9421,-434.7816 989.7601,-414 973.2621,-402.2511 953.8007,-391.1831 936.878,-382.3409"/>
<polygon fill="#191970" stroke="#191970" points="938.2675,-379.12 927.7727,-377.6674 935.071,-385.3476 938.2675,-379.12"/>
</g>
<!-- Node9 -->
<g id="node10" class="node">
<title>Node9</title>
<g id="a_node10"><a xlink:href="MatrixFixSize_8h.html" target="_top" xlink:title="iDynTree/Core/MatrixFixSize.h">
<polygon fill="none" stroke="#000000" points="815.2601,-112.5 815.2601,-131.5 976.2601,-131.5 976.2601,-112.5 815.2601,-112.5"/>
<text text-anchor="middle" x="895.7601" y="-119.5" font-family="FreeSans.ttf" font-size="10.00" fill="#000000">iDynTree/Core/MatrixFixSize.h</text>
</a>
</g>
</g>
<!-- Node8&#45;&gt;Node9 -->
<g id="edge9" class="edge">
<title>Node8&#45;&gt;Node9</title>
<path fill="none" stroke="#191970" d="M895.7601,-347.4556C895.7601,-305.75 895.7601,-188.6556 895.7601,-141.7727"/>
<polygon fill="#191970" stroke="#191970" points="899.2602,-141.6894 895.7601,-131.6895 892.2602,-141.6895 899.2602,-141.6894"/>
</g>
<!-- Node9&#45;&gt;Node4 -->
<g id="edge14" class="edge">
<title>Node9&#45;&gt;Node4</title>
<path fill="none" stroke="#191970" d="M976.3315,-112.6584C1084.2872,-100.1418 1270.9818,-78.496 1346.0794,-69.7891"/>
<polygon fill="#191970" stroke="#191970" points="1346.7967,-73.2294 1356.327,-68.6009 1345.9904,-66.276 1346.7967,-73.2294"/>
</g>
<!-- Node10 -->
<g id="node11" class="node">
<title>Node10</title>
<g id="a_node11"><a xlink:href="Utils_8h.html" target="_top" xlink:title="iDynTree/Core/Utils.h">
<polygon fill="none" stroke="#000000" points="350.2601,-56.5 350.2601,-75.5 469.2601,-75.5 469.2601,-56.5 350.2601,-56.5"/>
<text text-anchor="middle" x="409.7601" y="-63.5" font-family="FreeSans.ttf" font-size="10.00" fill="#000000">iDynTree/Core/Utils.h</text>
</a>
</g>
</g>
<!-- Node9&#45;&gt;Node10 -->
<g id="edge10" class="edge">
<title>Node9&#45;&gt;Node10</title>
<path fill="none" stroke="#191970" d="M815.1707,-113.5592C732.0696,-104.7247 598.7634,-90.1887 483.7601,-76 482.4574,-75.8393 481.1419,-75.6756 479.8168,-75.5095"/>
<polygon fill="#191970" stroke="#191970" points="479.8816,-71.9895 469.5192,-74.1962 478.996,-78.9333 479.8816,-71.9895"/>
</g>
<!-- Node12 -->
<g id="node13" class="node">
<title>Node12</title>
<polygon fill="none" stroke="#bfbfbf" points="726.7601,-.5 726.7601,-19.5 778.7601,-19.5 778.7601,-.5 726.7601,-.5"/>
<text text-anchor="middle" x="752.7601" y="-7.5" font-family="FreeSans.ttf" font-size="10.00" fill="#000000">cassert</text>
</g>
<!-- Node9&#45;&gt;Node12 -->
<g id="edge12" class="edge">
<title>Node9&#45;&gt;Node12</title>
<path fill="none" stroke="#191970" d="M896.4612,-112.1992C896.9233,-98.0521 895.641,-71.8699 881.7601,-56 858.4075,-29.3013 818.466,-18.0984 789.1995,-13.3978"/>
<polygon fill="#191970" stroke="#191970" points="789.3431,-9.8832 778.9505,-11.9436 788.3596,-16.8138 789.3431,-9.8832"/>
</g>
<!-- Node13 -->
<g id="node14" class="node">
<title>Node13</title>
<polygon fill="none" stroke="#bfbfbf" points="744.7601,-56.5 744.7601,-75.5 794.7601,-75.5 794.7601,-56.5 744.7601,-56.5"/>
<text text-anchor="middle" x="769.7601" y="-63.5" font-family="FreeSans.ttf" font-size="10.00" fill="#000000">cstring</text>
</g>
<!-- Node9&#45;&gt;Node13 -->
<g id="edge13" class="edge">
<title>Node9&#45;&gt;Node13</title>
<path fill="none" stroke="#191970" d="M874.0999,-112.3733C853.783,-103.3435 823.1962,-89.7494 800.3851,-79.6111"/>
<polygon fill="#191970" stroke="#191970" points="801.6973,-76.3642 791.1376,-75.5011 798.8543,-82.7609 801.6973,-76.3642"/>
</g>
<!-- Node14 -->
<g id="node15" class="node">
<title>Node14</title>
<polygon fill="none" stroke="#bfbfbf" points="812.7601,-56.5 812.7601,-75.5 872.7601,-75.5 872.7601,-56.5 812.7601,-56.5"/>
<text text-anchor="middle" x="842.7601" y="-63.5" font-family="FreeSans.ttf" font-size="10.00" fill="#000000">iostream</text>
</g>
<!-- Node9&#45;&gt;Node14 -->
<g id="edge15" class="edge">
<title>Node9&#45;&gt;Node14</title>
<path fill="none" stroke="#191970" d="M886.5282,-112.2455C878.9284,-104.2155 867.9724,-92.6394 858.9234,-83.0781"/>
<polygon fill="#191970" stroke="#191970" points="861.3021,-80.4998 851.8862,-75.6427 856.2181,-85.3115 861.3021,-80.4998"/>
</g>
<!-- Node15 -->
<g id="node16" class="node">
<title>Node15</title>
<polygon fill="none" stroke="#bfbfbf" points="670.7601,-56.5 670.7601,-75.5 726.7601,-75.5 726.7601,-56.5 670.7601,-56.5"/>
<text text-anchor="middle" x="698.7601" y="-63.5" font-family="FreeSans.ttf" font-size="10.00" fill="#000000">sstream</text>
</g>
<!-- Node9&#45;&gt;Node15 -->
<g id="edge16" class="edge">
<title>Node9&#45;&gt;Node15</title>
<path fill="none" stroke="#191970" d="M861.8946,-112.3733C827.0016,-102.4544 772.7344,-87.0282 736.4881,-76.7247"/>
<polygon fill="#191970" stroke="#191970" points="737.3497,-73.331 726.7737,-73.9633 735.4356,-80.0643 737.3497,-73.331"/>
</g>
<!-- Node11 -->
<g id="node12" class="node">
<title>Node11</title>
<polygon fill="none" stroke="#bfbfbf" points="379.2601,-.5 379.2601,-19.5 432.2601,-19.5 432.2601,-.5 379.2601,-.5"/>
<text text-anchor="middle" x="405.7601" y="-7.5" font-family="FreeSans.ttf" font-size="10.00" fill="#000000">cstddef</text>
</g>
<!-- Node10&#45;&gt;Node11 -->
<g id="edge11" class="edge">
<title>Node10&#45;&gt;Node11</title>
<path fill="none" stroke="#191970" d="M409.0634,-56.2455C408.5414,-48.9382 407.8097,-38.6944 407.1676,-29.7046"/>
<polygon fill="#191970" stroke="#191970" points="410.6525,-29.3679 406.4489,-19.6427 403.6703,-29.8667 410.6525,-29.3679"/>
</g>
<!-- Node16&#45;&gt;Node4 -->
<g id="edge26" class="edge">
<title>Node16&#45;&gt;Node4</title>
<path fill="none" stroke="#191970" d="M695.4375,-116.0865C861.3512,-103.9253 1234.6305,-76.5645 1346.4874,-68.3655"/>
<polygon fill="#191970" stroke="#191970" points="1346.7631,-71.8548 1356.4805,-67.6331 1346.2513,-64.8735 1346.7631,-71.8548"/>
</g>
<!-- Node16&#45;&gt;Node10 -->
<g id="edge18" class="edge">
<title>Node16&#45;&gt;Node10</title>
<path fill="none" stroke="#191970" d="M579.5194,-112.3733C544.8407,-102.9001 491.7719,-88.4032 454.2139,-78.1435"/>
<polygon fill="#191970" stroke="#191970" points="455.1099,-74.7601 444.541,-75.5011 453.2652,-81.5126 455.1099,-74.7601"/>
</g>
<!-- Node16&#45;&gt;Node12 -->
<g id="edge28" class="edge">
<title>Node16&#45;&gt;Node12</title>
<path fill="none" stroke="#191970" d="M619.6506,-112.367C627.123,-98.4291 642.5583,-72.5047 661.7601,-56 677.9579,-42.0773 699.1016,-31.0603 716.931,-23.3027"/>
<polygon fill="#191970" stroke="#191970" points="718.5638,-26.4138 726.4427,-19.3304 715.8663,-19.9544 718.5638,-26.4138"/>
</g>
<!-- Node16&#45;&gt;Node13 -->
<g id="edge29" class="edge">
<title>Node16&#45;&gt;Node13</title>
<path fill="none" stroke="#191970" d="M641.4056,-112.3733C667.3437,-103.0021 706.8888,-88.7148 735.2273,-78.4764"/>
<polygon fill="#191970" stroke="#191970" points="736.5273,-81.7282 744.743,-75.0384 734.1487,-75.1447 736.5273,-81.7282"/>
</g>
<!-- Node16&#45;&gt;Node15 -->
<g id="edge27" class="edge">
<title>Node16&#45;&gt;Node15</title>
<path fill="none" stroke="#191970" d="M629.3918,-112.2455C642.1595,-103.7337 660.9039,-91.2375 675.69,-81.3801"/>
<polygon fill="#191970" stroke="#191970" points="677.917,-84.1019 684.2961,-75.6427 674.0341,-78.2775 677.917,-84.1019"/>
</g>
<!-- Node17 -->
<g id="node18" class="node">
<title>Node17</title>
<g id="a_node18"><a xlink:href="Span_8h.html" target="_top" xlink:title="iDynTree/Core/Span.h">
<polygon fill="none" stroke="#ff0000" points="493.2601,-56.5 493.2601,-75.5 614.2601,-75.5 614.2601,-56.5 493.2601,-56.5"/>
<text text-anchor="middle" x="553.7601" y="-63.5" font-family="FreeSans.ttf" font-size="10.00" fill="#000000">iDynTree/Core/Span.h</text>
</a>
</g>
</g>
<!-- Node16&#45;&gt;Node17 -->
<g id="edge19" class="edge">
<title>Node16&#45;&gt;Node17</title>
<path fill="none" stroke="#191970" d="M604.1347,-112.2455C595.2128,-104.0549 582.2721,-92.1749 571.7409,-82.5069"/>
<polygon fill="#191970" stroke="#191970" points="573.9973,-79.8271 564.2637,-75.6427 569.2633,-84.9837 573.9973,-79.8271"/>
</g>
<!-- Node17&#45;&gt;Node11 -->
<g id="edge23" class="edge">
<title>Node17&#45;&gt;Node11</title>
<path fill="none" stroke="#191970" d="M528.318,-56.3733C504.0275,-47.1822 467.2393,-33.2624 440.3058,-23.0713"/>
<polygon fill="#191970" stroke="#191970" points="441.4617,-19.7666 430.8702,-19.5011 438.9844,-26.3136 441.4617,-19.7666"/>
</g>
<!-- Node17&#45;&gt;Node12 -->
<g id="edge20" class="edge">
<title>Node17&#45;&gt;Node12</title>
<path fill="none" stroke="#191970" d="M588.0113,-56.4449C619.1894,-47.7356 666.7486,-34.4218 716.7056,-20.2903"/>
<polygon fill="#191970" stroke="#191970" points="717.722,-23.6402 726.3907,-17.5489 715.8155,-16.9048 717.722,-23.6402"/>
</g>
<!-- Node18 -->
<g id="node19" class="node">
<title>Node18</title>
<polygon fill="none" stroke="#bfbfbf" points="450.7601,-.5 450.7601,-19.5 514.7601,-19.5 514.7601,-.5 450.7601,-.5"/>
<text text-anchor="middle" x="482.7601" y="-7.5" font-family="FreeSans.ttf" font-size="10.00" fill="#000000">algorithm</text>
</g>
<!-- Node17&#45;&gt;Node18 -->
<g id="edge21" class="edge">
<title>Node17&#45;&gt;Node18</title>
<path fill="none" stroke="#191970" d="M541.3929,-56.2455C530.8047,-47.8943 515.3537,-35.7076 502.9708,-25.9408"/>
<polygon fill="#191970" stroke="#191970" points="505.0048,-23.0875 494.9856,-19.6427 500.6698,-28.5837 505.0048,-23.0875"/>
</g>
<!-- Node19 -->
<g id="node20" class="node">
<title>Node19</title>
<polygon fill="none" stroke="#bfbfbf" points="532.7601,-.5 532.7601,-19.5 574.7601,-19.5 574.7601,-.5 532.7601,-.5"/>
<text text-anchor="middle" x="553.7601" y="-7.5" font-family="FreeSans.ttf" font-size="10.00" fill="#000000">array</text>
</g>
<!-- Node17&#45;&gt;Node19 -->
<g id="edge22" class="edge">
<title>Node17&#45;&gt;Node19</title>
<path fill="none" stroke="#191970" d="M553.7601,-56.2455C553.7601,-48.9382 553.7601,-38.6944 553.7601,-29.7046"/>
<polygon fill="#191970" stroke="#191970" points="557.2602,-29.6426 553.7601,-19.6427 550.2602,-29.6427 557.2602,-29.6426"/>
</g>
<!-- Node20 -->
<g id="node21" class="node">
<title>Node20</title>
<polygon fill="none" stroke="#bfbfbf" points="593.2601,-.5 593.2601,-19.5 646.2601,-19.5 646.2601,-.5 593.2601,-.5"/>
<text text-anchor="middle" x="619.7601" y="-7.5" font-family="FreeSans.ttf" font-size="10.00" fill="#000000">iterator</text>
</g>
<!-- Node17&#45;&gt;Node20 -->
<g id="edge24" class="edge">
<title>Node17&#45;&gt;Node20</title>
<path fill="none" stroke="#191970" d="M565.2564,-56.2455C575.0043,-47.9746 589.186,-35.9416 600.6399,-26.2232"/>
<polygon fill="#191970" stroke="#191970" points="603.0348,-28.7813 608.3955,-19.6427 598.506,-23.4437 603.0348,-28.7813"/>
</g>
<!-- Node21 -->
<g id="node22" class="node">
<title>Node21</title>
<polygon fill="none" stroke="#bfbfbf" points="664.7601,-.5 664.7601,-19.5 708.7601,-19.5 708.7601,-.5 664.7601,-.5"/>
<text text-anchor="middle" x="686.7601" y="-7.5" font-family="FreeSans.ttf" font-size="10.00" fill="#000000">limits</text>
</g>
<!-- Node17&#45;&gt;Node21 -->
<g id="edge25" class="edge">
<title>Node17&#45;&gt;Node21</title>
<path fill="none" stroke="#191970" d="M576.6236,-56.3733C598.2956,-47.2482 631.038,-33.462 655.1932,-23.2913"/>
<polygon fill="#191970" stroke="#191970" points="656.7787,-26.4214 664.6369,-19.315 654.0623,-19.9699 656.7787,-26.4214"/>
</g>
<!-- Node26 -->
<g id="node24" class="node">
<title>Node26</title>
<g id="a_node24"><a xlink:href="SpatialMotionVector_8h.html" target="_top" xlink:title="iDynTree/Core/SpatialMotion\lVector.h">
<polygon fill="none" stroke="#000000" points="570.2601,-414.5 570.2601,-444.5 725.2601,-444.5 725.2601,-414.5 570.2601,-414.5"/>
<text text-anchor="start" x="578.2601" y="-432.5" font-family="FreeSans.ttf" font-size="10.00" fill="#000000">iDynTree/Core/SpatialMotion</text>
<text text-anchor="middle" x="647.7601" y="-421.5" font-family="FreeSans.ttf" font-size="10.00" fill="#000000">Vector.h</text>
</a>
</g>
</g>
<!-- Node25&#45;&gt;Node26 -->
<g id="edge31" class="edge">
<title>Node25&#45;&gt;Node26</title>
<path fill="none" stroke="#191970" d="M710.301,-486.9005C700.3107,-477.7313 684.8895,-463.5776 671.8604,-451.6195"/>
<polygon fill="#191970" stroke="#191970" points="673.8611,-448.705 664.1271,-444.5218 669.1278,-453.8622 673.8611,-448.705"/>
</g>
<!-- Node26&#45;&gt;Node16 -->
<g id="edge32" class="edge">
<title>Node26&#45;&gt;Node16</title>
<path fill="none" stroke="#191970" d="M603.0641,-414.4487C555.113,-395.1364 485.7601,-356.6369 485.7601,-295.5 485.7601,-295.5 485.7601,-295.5 485.7601,-234 485.7601,-203.4754 484.4609,-190.7968 504.7601,-168 518.8325,-152.1962 539.2069,-141.6789 558.6061,-134.7461"/>
<polygon fill="#191970" stroke="#191970" points="559.9263,-137.9959 568.32,-131.531 557.7267,-131.3505 559.9263,-137.9959"/>
</g>
<!-- Node27 -->
<g id="node25" class="node">
<title>Node27</title>
<g id="a_node25"><a xlink:href="GeomVector3_8h.html" target="_top" xlink:title="iDynTree/Core/GeomVector3.h">
<polygon fill="none" stroke="#000000" points="514.2601,-168.5 514.2601,-187.5 677.2601,-187.5 677.2601,-168.5 514.2601,-168.5"/>
<text text-anchor="middle" x="595.7601" y="-175.5" font-family="FreeSans.ttf" font-size="10.00" fill="#000000">iDynTree/Core/GeomVector3.h</text>
</a>
</g>
</g>
<!-- Node26&#45;&gt;Node27 -->
<g id="edge33" class="edge">
<title>Node26&#45;&gt;Node27</title>
<path fill="none" stroke="#191970" d="M604.5082,-414.3832C588.0925,-406.2891 571.1133,-394.503 561.7601,-378 527.949,-318.3427 565.2323,-233.7468 585.0277,-196.6514"/>
<polygon fill="#191970" stroke="#191970" points="588.3061,-197.9547 590.0737,-187.5084 582.1775,-194.5723 588.3061,-197.9547"/>
</g>
<!-- Node28 -->
<g id="node26" class="node">
<title>Node28</title>
<g id="a_node26"><a xlink:href="SpatialVector_8h.html" target="_top" xlink:title="iDynTree/Core/SpatialVector.h">
<polygon fill="none" stroke="#000000" points="571.2601,-353 571.2601,-372 732.2601,-372 732.2601,-353 571.2601,-353"/>
<text text-anchor="middle" x="651.7601" y="-360" font-family="FreeSans.ttf" font-size="10.00" fill="#000000">iDynTree/Core/SpatialVector.h</text>
</a>
</g>
</g>
<!-- Node26&#45;&gt;Node28 -->
<g id="edge35" class="edge">
<title>Node26&#45;&gt;Node28</title>
<path fill="none" stroke="#191970" d="M648.6678,-414.2967C649.2365,-404.7699 649.9753,-392.3954 650.5881,-382.1306"/>
<polygon fill="#191970" stroke="#191970" points="654.0874,-382.2458 651.1897,-372.055 647.0998,-381.8286 654.0874,-382.2458"/>
</g>
<!-- Node27&#45;&gt;Node16 -->
<g id="edge34" class="edge">
<title>Node27&#45;&gt;Node16</title>
<path fill="none" stroke="#191970" d="M599.0697,-168.2455C601.6034,-160.7776 605.1778,-150.2427 608.2751,-141.1137"/>
<polygon fill="#191970" stroke="#191970" points="611.5899,-142.237 611.4885,-131.6427 604.961,-139.9879 611.5899,-142.237"/>
</g>
<!-- Node28&#45;&gt;Node10 -->
<g id="edge49" class="edge">
<title>Node28&#45;&gt;Node10</title>
<path fill="none" stroke="#191970" d="M643.3378,-352.7711C620.6301,-326.4832 556.3726,-251.7151 504.7601,-188 475.0935,-151.3769 441.4355,-107.6048 423.2146,-83.7153"/>
<polygon fill="#191970" stroke="#191970" points="425.8702,-81.4253 417.0277,-75.5892 420.3008,-85.6658 425.8702,-81.4253"/>
</g>
<!-- Node28&#45;&gt;Node14 -->
<g id="edge51" class="edge">
<title>Node28&#45;&gt;Node14</title>
<path fill="none" stroke="#191970" d="M674.1079,-352.8865C711.2768,-335.2154 781.7601,-293.8194 781.7601,-234 781.7601,-234 781.7601,-234 781.7601,-178 781.7601,-140.6364 808.2657,-103.8655 826.333,-83.141"/>
<polygon fill="#191970" stroke="#191970" points="829.1088,-85.29 833.2289,-75.5291 823.921,-80.5903 829.1088,-85.29"/>
</g>
<!-- Node28&#45;&gt;Node15 -->
<g id="edge52" class="edge">
<title>Node28&#45;&gt;Node15</title>
<path fill="none" stroke="#191970" d="M665.335,-352.9057C690.9264,-333.5774 743.7601,-287.2283 743.7601,-234 743.7601,-234 743.7601,-234 743.7601,-178 743.7601,-142.7698 724.3523,-105.5087 711.0278,-84.0783"/>
<polygon fill="#191970" stroke="#191970" points="713.9589,-82.1655 705.5946,-75.6623 708.0779,-85.9621 713.9589,-82.1655"/>
</g>
<!-- Node28&#45;&gt;Node27 -->
<g id="edge50" class="edge">
<title>Node28&#45;&gt;Node27</title>
<path fill="none" stroke="#191970" d="M648.8282,-352.8402C639.9827,-323.6978 613.4442,-236.2626 601.5902,-197.208"/>
<polygon fill="#191970" stroke="#191970" points="604.9166,-196.1165 598.663,-187.5641 598.2184,-198.1496 604.9166,-196.1165"/>
</g>
<!-- Node29 -->
<g id="node27" class="node">
<title>Node29</title>
<g id="a_node27"><a xlink:href="Position_8h.html" target="_top" xlink:title="Position.h">
<polygon fill="none" stroke="#000000" points="1181.2601,-286 1181.2601,-305 1246.2601,-305 1246.2601,-286 1181.2601,-286"/>
<text text-anchor="middle" x="1213.7601" y="-293" font-family="FreeSans.ttf" font-size="10.00" fill="#000000">Position.h</text>
</a>
</g>
</g>
<!-- Node28&#45;&gt;Node29 -->
<g id="edge36" class="edge">
<title>Node28&#45;&gt;Node29</title>
<path fill="none" stroke="#191970" d="M731.6842,-352.9717C852.4649,-338.5726 1077.3253,-311.7654 1171.0382,-300.5932"/>
<polygon fill="#191970" stroke="#191970" points="1171.4967,-304.0634 1181.012,-299.4041 1170.668,-297.1126 1171.4967,-304.0634"/>
</g>
<!-- Node31 -->
<g id="node29" class="node">
<title>Node31</title>
<g id="a_node29"><a xlink:href="Rotation_8h.html" target="_top" xlink:title="iDynTree/Core/Rotation.h">
<polygon fill="none" stroke="#000000" points="1048.2601,-224.5 1048.2601,-243.5 1185.2601,-243.5 1185.2601,-224.5 1048.2601,-224.5"/>
<text text-anchor="middle" x="1116.7601" y="-231.5" font-family="FreeSans.ttf" font-size="10.00" fill="#000000">iDynTree/Core/Rotation.h</text>
</a>
</g>
</g>
<!-- Node28&#45;&gt;Node31 -->
<g id="edge48" class="edge">
<title>Node28&#45;&gt;Node31</title>
<path fill="none" stroke="#191970" d="M686.3308,-352.9466C769.4073,-329.9889 980.1977,-271.7382 1072.4193,-246.2533"/>
<polygon fill="#191970" stroke="#191970" points="1073.5714,-249.5662 1082.2778,-243.529 1071.7068,-242.8191 1073.5714,-249.5662"/>
</g>
<!-- Node29&#45;&gt;Node4 -->
<g id="edge47" class="edge">
<title>Node29&#45;&gt;Node4</title>
<path fill="none" stroke="#191970" d="M1226.9338,-285.904C1249.8969,-268.6019 1297.5847,-230.0452 1326.7601,-188 1349.6282,-155.0444 1365.454,-110.4414 1373.2317,-85.307"/>
<polygon fill="#191970" stroke="#191970" points="1376.644,-86.112 1376.1525,-75.5286 1369.9368,-84.1085 1376.644,-86.112"/>
</g>
<!-- Node30 -->
<g id="node28" class="node">
<title>Node30</title>
<g id="a_node28"><a xlink:href="PositionRaw_8h.html" target="_top" xlink:title="iDynTree/Core/PositionRaw.h">
<polygon fill="none" stroke="#000000" points="961.7601,-168.5 961.7601,-187.5 1117.7601,-187.5 1117.7601,-168.5 961.7601,-168.5"/>
<text text-anchor="middle" x="1039.7601" y="-175.5" font-family="FreeSans.ttf" font-size="10.00" fill="#000000">iDynTree/Core/PositionRaw.h</text>
</a>
</g>
</g>
<!-- Node29&#45;&gt;Node30 -->
<g id="edge37" class="edge">
<title>Node29&#45;&gt;Node30</title>
<path fill="none" stroke="#191970" d="M1213.8486,-285.7285C1213.4425,-270.4526 1210.383,-240.9167 1193.7601,-224 1180.3404,-210.3431 1137.052,-198.1091 1099.7756,-189.6971"/>
<polygon fill="#191970" stroke="#191970" points="1100.4705,-186.2663 1089.9519,-187.5352 1098.966,-193.1027 1100.4705,-186.2663"/>
</g>
<!-- Node29&#45;&gt;Node31 -->
<g id="edge40" class="edge">
<title>Node29&#45;&gt;Node31</title>
<path fill="none" stroke="#191970" d="M1198.6039,-285.8906C1183.0858,-276.0519 1158.7408,-260.6167 1140.6317,-249.1351"/>
<polygon fill="#191970" stroke="#191970" points="1142.1297,-245.9407 1131.8099,-243.5419 1138.3814,-251.8526 1142.1297,-245.9407"/>
</g>
<!-- Node30&#45;&gt;Node4 -->
<g id="edge39" class="edge">
<title>Node30&#45;&gt;Node4</title>
<path fill="none" stroke="#191970" d="M1068.6631,-168.4509C1131.7371,-147.6123 1281.3181,-98.1932 1346.9545,-76.508"/>
<polygon fill="#191970" stroke="#191970" points="1348.3447,-79.7349 1356.7419,-73.2744 1346.1487,-73.0882 1348.3447,-79.7349"/>
</g>
<!-- Node30&#45;&gt;Node16 -->
<g id="edge38" class="edge">
<title>Node30&#45;&gt;Node16</title>
<path fill="none" stroke="#191970" d="M967.1829,-168.4369C892.3082,-158.571 775.712,-143.2078 697.3538,-132.8829"/>
<polygon fill="#191970" stroke="#191970" points="697.4095,-129.3601 687.038,-131.5237 696.495,-136.3001 697.4095,-129.3601"/>
</g>
<!-- Node31&#45;&gt;Node4 -->
<g id="edge41" class="edge">
<title>Node31&#45;&gt;Node4</title>
<path fill="none" stroke="#191970" d="M1176.7326,-224.4611C1223.2485,-216.1066 1283.0192,-202.9816 1302.7601,-188 1333.6749,-164.5384 1324.8633,-144.7031 1345.7601,-112 1351.823,-102.5118 1359.0682,-92.3035 1365.2234,-83.9198"/>
<polygon fill="#191970" stroke="#191970" points="1368.2077,-85.772 1371.367,-75.6591 1362.5908,-81.5945 1368.2077,-85.772"/>
</g>
<!-- Node31&#45;&gt;Node16 -->
<g id="edge46" class="edge">
<title>Node31&#45;&gt;Node16</title>
<path fill="none" stroke="#191970" d="M1073.9599,-224.4509C982.267,-203.9936 767.1169,-155.9919 667.3166,-133.7258"/>
<polygon fill="#191970" stroke="#191970" points="667.9742,-130.2865 657.452,-131.5249 666.4499,-137.1185 667.9742,-130.2865"/>
</g>
<!-- Node31&#45;&gt;Node27 -->
<g id="edge42" class="edge">
<title>Node31&#45;&gt;Node27</title>
<path fill="none" stroke="#191970" d="M1048.1127,-226.6214C955.5882,-216.6763 790.6061,-198.9431 687.5159,-187.8624"/>
<polygon fill="#191970" stroke="#191970" points="687.7449,-184.367 677.4281,-186.7781 686.9968,-191.3269 687.7449,-184.367"/>
</g>
<!-- Node32 -->
<g id="node30" class="node">
<title>Node32</title>
<g id="a_node30"><a xlink:href="RotationRaw_8h.html" target="_top" xlink:title="iDynTree/Core/RotationRaw.h">
<polygon fill="none" stroke="#000000" points="1135.7601,-168.5 1135.7601,-187.5 1293.7601,-187.5 1293.7601,-168.5 1135.7601,-168.5"/>
<text text-anchor="middle" x="1214.7601" y="-175.5" font-family="FreeSans.ttf" font-size="10.00" fill="#000000">iDynTree/Core/RotationRaw.h</text>
</a>
</g>
</g>
<!-- Node31&#45;&gt;Node32 -->
<g id="edge43" class="edge">
<title>Node31&#45;&gt;Node32</title>
<path fill="none" stroke="#191970" d="M1133.8304,-224.2455C1149.0071,-215.5731 1171.4222,-202.7645 1188.8164,-192.825"/>
<polygon fill="#191970" stroke="#191970" points="1190.9395,-195.643 1197.8854,-187.6427 1187.4665,-189.5653 1190.9395,-195.643"/>
</g>
<!-- Node32&#45;&gt;Node4 -->
<g id="edge45" class="edge">
<title>Node32&#45;&gt;Node4</title>
<path fill="none" stroke="#191970" d="M1227.8816,-168.4232C1245.7801,-155.421 1278.9233,-131.5611 1307.7601,-112 1323.4141,-101.3813 1341.2871,-89.8045 1355.1845,-80.9212"/>
<polygon fill="#191970" stroke="#191970" points="1357.126,-83.8343 1363.6798,-75.5096 1353.3652,-77.9304 1357.126,-83.8343"/>
</g>
<!-- Node32&#45;&gt;Node9 -->
<g id="edge44" class="edge">
<title>Node32&#45;&gt;Node9</title>
<path fill="none" stroke="#191970" d="M1160.2845,-168.4369C1104.7726,-158.6918 1018.7072,-143.5832 959.9273,-133.2645"/>
<polygon fill="#191970" stroke="#191970" points="960.4656,-129.8055 950.011,-131.5237 959.2552,-136.7001 960.4656,-129.8055"/>
</g>
<!-- Node34 -->
<g id="node32" class="node">
<title>Node34</title>
<g id="a_node32"><a xlink:href="SpatialForceVector_8h.html" target="_top" xlink:title="iDynTree/Core/SpatialForce\lVector.h">
<polygon fill="none" stroke="#000000" points="188.7601,-414.5 188.7601,-444.5 336.7601,-444.5 336.7601,-414.5 188.7601,-414.5"/>
<text text-anchor="start" x="196.7601" y="-432.5" font-family="FreeSans.ttf" font-size="10.00" fill="#000000">iDynTree/Core/SpatialForce</text>
<text text-anchor="middle" x="262.7601" y="-421.5" font-family="FreeSans.ttf" font-size="10.00" fill="#000000">Vector.h</text>
</a>
</g>
</g>
<!-- Node33&#45;&gt;Node34 -->
<g id="edge54" class="edge">
<title>Node33&#45;&gt;Node34</title>
<path fill="none" stroke="#191970" d="M159.0965,-486.9005C176.6712,-477.1691 204.3857,-461.823 226.7381,-449.4461"/>
<polygon fill="#191970" stroke="#191970" points="228.5783,-452.4279 235.6313,-444.5218 225.1874,-446.304 228.5783,-452.4279"/>
</g>
<!-- Node34&#45;&gt;Node16 -->
<g id="edge55" class="edge">
<title>Node34&#45;&gt;Node16</title>
<path fill="none" stroke="#191970" d="M262.7601,-414.2271C262.7601,-389.3518 262.7601,-338.5382 262.7601,-295.5 262.7601,-295.5 262.7601,-295.5 262.7601,-234 262.7601,-179.1739 419.7876,-147.6221 524.0828,-132.7123"/>
<polygon fill="#191970" stroke="#191970" points="524.5871,-136.1759 534.0042,-131.3212 523.615,-129.2438 524.5871,-136.1759"/>
</g>
<!-- Node34&#45;&gt;Node27 -->
<g id="edge56" class="edge">
<title>Node34&#45;&gt;Node27</title>
<path fill="none" stroke="#191970" d="M282.8408,-414.3339C341.9453,-369.6949 514.9022,-239.0683 574.9422,-193.7229"/>
<polygon fill="#191970" stroke="#191970" points="577.0838,-196.4915 582.9542,-187.6717 572.865,-190.9056 577.0838,-196.4915"/>
</g>
<!-- Node34&#45;&gt;Node28 -->
<g id="edge57" class="edge">
<title>Node34&#45;&gt;Node28</title>
<path fill="none" stroke="#191970" d="M336.8437,-416.7401C409.0151,-404.3096 517.6546,-385.5979 586.6126,-373.7208"/>
<polygon fill="#191970" stroke="#191970" points="587.229,-377.1662 596.4898,-372.0196 586.0408,-370.2678 587.229,-377.1662"/>
</g>
<!-- Node35&#45;&gt;Node26 -->
<g id="edge59" class="edge">
<title>Node35&#45;&gt;Node26</title>
<path fill="none" stroke="#191970" d="M841.3798,-486.9005C806.7307,-476.6284 750.98,-460.1006 708.1803,-447.4122"/>
<polygon fill="#191970" stroke="#191970" points="709.0129,-444.0085 698.4305,-444.5218 707.0233,-450.7198 709.0129,-444.0085"/>
</g>
<!-- Node36&#45;&gt;Node34 -->
<g id="edge61" class="edge">
<title>Node36&#45;&gt;Node34</title>
<path fill="none" stroke="#191970" d="M344.1489,-486.9005C330.7799,-477.4718 309.9375,-462.7725 292.6916,-450.6096"/>
<polygon fill="#191970" stroke="#191970" points="294.2489,-447.425 284.0596,-444.5218 290.2145,-453.1455 294.2489,-447.425"/>
</g>
<!-- Node37&#45;&gt;Node4 -->
<g id="edge67" class="edge">
<title>Node37&#45;&gt;Node4</title>
<path fill="none" stroke="#191970" d="M1272.0205,-419.6993C1303.035,-389.107 1394.7233,-291.2392 1411.7601,-188 1417.2598,-154.673 1422.1013,-144.1558 1411.7601,-112 1408.3655,-101.4445 1401.5543,-91.2592 1394.997,-83.1676"/>
<polygon fill="#191970" stroke="#191970" points="1397.6032,-80.8307 1388.4093,-75.5654 1392.3131,-85.4149 1397.6032,-80.8307"/>
</g>
<!-- Node37&#45;&gt;Node9 -->
<g id="edge66" class="edge">
<title>Node37&#45;&gt;Node9</title>
<path fill="none" stroke="#191970" d="M1247.4235,-419.8138C1201.9524,-388.7842 1057.7767,-288.0174 952.7601,-188 936.9317,-172.9251 920.8274,-153.8619 909.7927,-140.1036"/>
<polygon fill="#191970" stroke="#191970" points="912.2742,-137.5987 903.3273,-131.9237 906.7825,-141.9394 912.2742,-137.5987"/>
</g>
<!-- Node37&#45;&gt;Node29 -->
<g id="edge64" class="edge">
<title>Node37&#45;&gt;Node29</title>
<path fill="none" stroke="#191970" d="M1258.3081,-419.8631C1250.4204,-397.8432 1230.9577,-343.5098 1220.5623,-314.4894"/>
<polygon fill="#191970" stroke="#191970" points="1223.8482,-313.2836 1217.1809,-305.0496 1217.2582,-315.6442 1223.8482,-313.2836"/>
</g>
<!-- Node37&#45;&gt;Node31 -->
<g id="edge65" class="edge">
<title>Node37&#45;&gt;Node31</title>
<path fill="none" stroke="#191970" d="M1254.195,-419.7413C1238.5935,-399.5722 1201.7911,-351.7672 1171.7601,-311 1156.9364,-290.8768 1140.3066,-267.4762 1129.253,-251.8011"/>
<polygon fill="#191970" stroke="#191970" points="1132.0624,-249.7116 1123.445,-243.5478 1126.3377,-253.7401 1132.0624,-249.7116"/>
</g>
<!-- Node38&#45;&gt;Node4 -->
<g id="edge71" class="edge">
<title>Node38&#45;&gt;Node4</title>
<path fill="none" stroke="#191970" d="M1788.6203,-548.3443C1786.1985,-526.9659 1780.7601,-474.0037 1780.7601,-429.5 1780.7601,-429.5 1780.7601,-429.5 1780.7601,-178 1780.7601,-101.4371 1506.7484,-74.9538 1411.1751,-68.0452"/>
<polygon fill="#191970" stroke="#191970" points="1411.1653,-64.5362 1400.946,-67.332 1410.6783,-71.5192 1411.1653,-64.5362"/>
</g>
<!-- Node38&#45;&gt;Node37 -->
<g id="edge73" class="edge">
<title>Node38&#45;&gt;Node37</title>
<path fill="none" stroke="#191970" d="M1781.3717,-548.4173C1765.9418,-531.5145 1731.192,-496.7084 1693.7601,-481 1677.9041,-474.346 1465.951,-451.093 1344.9509,-438.2275"/>
<polygon fill="#191970" stroke="#191970" points="1345.2818,-434.743 1334.9681,-437.1677 1344.5427,-441.7039 1345.2818,-434.743"/>
</g>
<!-- Node38&#45;&gt;Node39 -->
<g id="edge70" class="edge">
<title>Node38&#45;&gt;Node39</title>
<path fill="none" stroke="#191970" d="M1800.6976,-548.3906C1811.4222,-538.9683 1827.9888,-524.4134 1840.8503,-513.1137"/>
<polygon fill="#191970" stroke="#191970" points="1843.466,-515.4745 1848.6684,-506.2449 1838.8458,-510.2158 1843.466,-515.4745"/>
</g>
<!-- Node38&#45;&gt;Node40 -->
<g id="edge72" class="edge">
<title>Node38&#45;&gt;Node40</title>
<path fill="none" stroke="#191970" d="M1715.644,-548.4791C1650.4744,-539.8453 1553.1285,-526.312 1468.7601,-512 1453.9359,-509.4853 1437.6201,-506.3469 1423.6842,-503.5531"/>
<polygon fill="#191970" stroke="#191970" points="1424.0513,-500.0564 1413.5552,-501.4999 1422.6605,-506.9169 1424.0513,-500.0564"/>
</g>
<!-- Node41&#45;&gt;Node3 -->
<g id="edge77" class="edge">
<title>Node41&#45;&gt;Node3</title>
<path fill="none" stroke="#191970" d="M1380.5414,-548.3906C1414.5151,-537.7846 1469.3206,-520.6753 1506.6373,-509.0257"/>
<polygon fill="#191970" stroke="#191970" points="1507.6924,-512.3629 1516.195,-506.0419 1505.6063,-505.681 1507.6924,-512.3629"/>
</g>
<!-- Node41&#45;&gt;Node40 -->
<g id="edge78" class="edge">
<title>Node41&#45;&gt;Node40</title>
<path fill="none" stroke="#191970" d="M1356.0101,-548.3906C1361.8466,-539.417 1370.711,-525.7879 1377.8907,-514.7491"/>
<polygon fill="#191970" stroke="#191970" points="1380.9037,-516.5361 1383.422,-506.2449 1375.0357,-512.7194 1380.9037,-516.5361"/>
</g>
<!-- Node42&#45;&gt;Node3 -->
<g id="edge85" class="edge">
<title>Node42&#45;&gt;Node3</title>
<path fill="none" stroke="#191970" d="M1082.8117,-609.7945C1098.3528,-607.8578 1114.5773,-605.8509 1129.7601,-604 1264.3774,-587.5895 1304.8741,-613.1252 1432.7601,-568 1435.227,-567.1296 1490.0738,-532.4595 1522.7784,-511.7241"/>
<polygon fill="#191970" stroke="#191970" points="1524.7839,-514.5968 1531.3536,-506.2848 1521.0344,-508.6856 1524.7839,-514.5968"/>
</g>
<!-- Node42&#45;&gt;Node25 -->
<g id="edge81" class="edge">
<title>Node42&#45;&gt;Node25</title>
<path fill="none" stroke="#191970" d="M928.5686,-609.0854C869.7181,-599.9871 794.533,-585.5103 768.7601,-568 749.7114,-555.0581 736.2082,-531.8054 728.4732,-515.3348"/>
<polygon fill="#191970" stroke="#191970" points="731.6421,-513.8463 724.4046,-506.1088 725.2373,-516.6709 731.6421,-513.8463"/>
</g>
<!-- Node42&#45;&gt;Node37 -->
<g id="edge80" class="edge">
<title>Node42&#45;&gt;Node37</title>
<path fill="none" stroke="#191970" d="M1005.2339,-604.4085C1005.5314,-588.185 1008.6376,-562.7445 1023.7601,-548 1075.9484,-497.1161 1120.4108,-548.0506 1183.7601,-512 1211.8795,-495.9979 1236.0061,-466.6 1249.7002,-447.5628"/>
<polygon fill="#191970" stroke="#191970" points="1252.7136,-449.3601 1255.5564,-439.1537 1246.9694,-445.3596 1252.7136,-449.3601"/>
</g>
<!-- Node42&#45;&gt;Node40 -->
<g id="edge101" class="edge">
<title>Node42&#45;&gt;Node40</title>
<path fill="none" stroke="#191970" d="M1063.9952,-604.4637C1100.5879,-594.7259 1148.6672,-581.4009 1190.7601,-568 1249.7741,-549.2121 1317.4291,-524.1357 1356.7079,-509.2182"/>
<polygon fill="#191970" stroke="#191970" points="1357.9618,-512.486 1366.0601,-505.6545 1355.4693,-505.9448 1357.9618,-512.486"/>
</g>
<!-- Node43 -->
<g id="node41" class="node">
<title>Node43</title>
<g id="a_node41"><a xlink:href="VectorDynSize_8h.html" target="_top" xlink:title="iDynTree/Core/VectorDynSize.h">
<polygon fill="none" stroke="#000000" points="781.2601,-420 781.2601,-439 948.2601,-439 948.2601,-420 781.2601,-420"/>
<text text-anchor="middle" x="864.7601" y="-427" font-family="FreeSans.ttf" font-size="10.00" fill="#000000">iDynTree/Core/VectorDynSize.h</text>
</a>
</g>
</g>
<!-- Node42&#45;&gt;Node43 -->
<g id="edge82" class="edge">
<title>Node42&#45;&gt;Node43</title>
<path fill="none" stroke="#191970" d="M996.4053,-604.3775C987.9771,-588.603 978.7416,-563.9878 991.7601,-548 1041.6245,-486.7628 1115.8958,-573.2372 1165.7601,-512 1174.4597,-501.3162 1174.6431,-491.5319 1165.7601,-481 1152.3138,-465.0576 1041.6767,-449.2564 958.4079,-439.446"/>
<polygon fill="#191970" stroke="#191970" points="958.7351,-435.9605 948.3972,-438.2797 957.925,-442.9135 958.7351,-435.9605"/>
</g>
<!-- Node42&#45;&gt;Node44 -->
<g id="edge86" class="edge">
<title>Node42&#45;&gt;Node44</title>
<path fill="none" stroke="#191970" d="M1030.7121,-604.4554C1046.6861,-594.8241 1067.3203,-582.3828 1083.2144,-572.7996"/>
<polygon fill="#191970" stroke="#191970" points="1085.1971,-575.6912 1091.9537,-567.5303 1081.5827,-569.6965 1085.1971,-575.6912"/>
</g>
<!-- Node42&#45;&gt;Node46 -->
<g id="edge96" class="edge">
<title>Node42&#45;&gt;Node46</title>
<path fill="none" stroke="#191970" d="M928.5311,-606.3067C863.8502,-595.257 772.5439,-579.6589 711.357,-569.2061"/>
<polygon fill="#191970" stroke="#191970" points="711.8746,-565.7439 701.428,-567.5099 710.6958,-572.644 711.8746,-565.7439"/>
</g>
<!-- Node43&#45;&gt;Node4 -->
<g id="edge84" class="edge">
<title>Node43&#45;&gt;Node4</title>
<path fill="none" stroke="#191970" d="M945.546,-419.9942C1029.2606,-406.8979 1160.7693,-376.9426 1254.7601,-311 1333.1665,-255.9912 1349.9439,-224.5078 1374.7601,-132 1378.8089,-116.9074 1379.6829,-99.2042 1379.6136,-85.9341"/>
<polygon fill="#191970" stroke="#191970" points="1383.1044,-85.5041 1379.366,-75.5907 1376.1064,-85.6716 1383.1044,-85.5041"/>
</g>
<!-- Node43&#45;&gt;Node17 -->
<g id="edge83" class="edge">
<title>Node43&#45;&gt;Node17</title>
<path fill="none" stroke="#191970" d="M791.2924,-419.9894C707.9218,-408.7324 580.9605,-390.0042 561.7601,-378 493.3719,-335.2433 460.7485,-304.4983 465.7601,-224 467.3187,-198.9659 463.0445,-191.1245 472.7601,-168 487.1559,-133.7359 516.4538,-101.4254 535.5854,-82.6829"/>
<polygon fill="#191970" stroke="#191970" points="538.039,-85.1794 542.8486,-75.7391 533.2018,-80.1196 538.039,-85.1794"/>
</g>
<!-- Node44&#45;&gt;Node3 -->
<g id="edge94" class="edge">
<title>Node44&#45;&gt;Node3</title>
<path fill="none" stroke="#191970" d="M1175.8722,-548.4581C1255.1357,-537.354 1385.7506,-519.056 1468.9454,-507.4011"/>
<polygon fill="#191970" stroke="#191970" points="1469.4318,-510.8673 1478.8495,-506.0137 1468.4605,-503.935 1469.4318,-510.8673"/>
</g>
<!-- Node44&#45;&gt;Node25 -->
<g id="edge88" class="edge">
<title>Node44&#45;&gt;Node25</title>
<path fill="none" stroke="#191970" d="M1033.2084,-548.7618C968.8079,-540.4047 873.361,-527.1169 790.7601,-512 784.4928,-510.853 777.9332,-509.545 771.4487,-508.1862"/>
<polygon fill="#191970" stroke="#191970" points="771.8852,-504.7003 761.3735,-506.0251 770.417,-511.5446 771.8852,-504.7003"/>
</g>
<!-- Node44&#45;&gt;Node35 -->
<g id="edge89" class="edge">
<title>Node44&#45;&gt;Node35</title>
<path fill="none" stroke="#191970" d="M1071.4544,-548.4581C1030.6382,-537.7308 964.2764,-520.2895 919.8372,-508.61"/>
<polygon fill="#191970" stroke="#191970" points="920.7123,-505.2212 910.151,-506.0643 918.9329,-511.9913 920.7123,-505.2212"/>
</g>
<!-- Node44&#45;&gt;Node36 -->
<g id="edge90" class="edge">
<title>Node44&#45;&gt;Node36</title>
<path fill="none" stroke="#191970" d="M1032.9935,-553.1783C863.431,-542.2058 462.0723,-516.0088 432.7601,-512 424.9796,-510.9359 416.7971,-509.5378 408.8122,-508.0164"/>
<polygon fill="#191970" stroke="#191970" points="409.3389,-504.5527 398.8488,-506.0392 407.9763,-511.4188 409.3389,-504.5527"/>
</g>
<!-- Node44&#45;&gt;Node37 -->
<g id="edge87" class="edge">
<title>Node44&#45;&gt;Node37</title>
<path fill="none" stroke="#191970" d="M1170.4021,-548.4086C1194.334,-541.8173 1220.0878,-530.7095 1237.7601,-512 1253.8765,-494.9377 1259.2482,-467.6838 1260.9949,-449.2118"/>
<polygon fill="#191970" stroke="#191970" points="1264.5016,-449.2263 1261.6776,-439.0148 1257.5173,-448.7586 1264.5016,-449.2263"/>
</g>
<!-- Node44&#45;&gt;Node40 -->
<g id="edge95" class="edge">
<title>Node44&#45;&gt;Node40</title>
<path fill="none" stroke="#191970" d="M1151.5132,-548.4581C1207.9591,-536.1481 1304.9451,-514.9969 1356.0265,-503.8568"/>
<polygon fill="#191970" stroke="#191970" points="1356.8776,-507.2535 1365.9022,-501.7031 1355.386,-500.4143 1356.8776,-507.2535"/>
</g>
<!-- Node44&#45;&gt;Node45 -->
<g id="edge91" class="edge">
<title>Node44&#45;&gt;Node45</title>
<path fill="none" stroke="#191970" d="M1156.489,-548.4354C1187.51,-541.1377 1227.8891,-529.3474 1260.7601,-512 1353.9821,-462.8027 1435.7,-363.8411 1469.8155,-318.7903"/>
<polygon fill="#191970" stroke="#191970" points="1472.6208,-320.8832 1475.8088,-310.7793 1467.0158,-316.6898 1472.6208,-320.8832"/>
</g>
<!-- Node45&#45;&gt;Node4 -->
<g id="edge93" class="edge">
<title>Node45&#45;&gt;Node4</title>
<path fill="none" stroke="#191970" d="M1492.0189,-280.37C1502.6614,-246.8183 1522.8947,-164.9627 1487.7601,-112 1470.7949,-86.4263 1436.5028,-75.035 1410.8885,-69.9826"/>
<polygon fill="#191970" stroke="#191970" points="1411.316,-66.5044 1400.8634,-68.2348 1410.1137,-73.4004 1411.316,-66.5044"/>
</g>
<!-- Node45&#45;&gt;Node9 -->
<g id="edge92" class="edge">
<title>Node45&#45;&gt;Node9</title>
<path fill="none" stroke="#191970" d="M1471.108,-280.4971C1441.1878,-252.836 1372.6155,-194.2345 1302.7601,-168 1246.7108,-146.9504 1088.2977,-133.6897 986.4386,-127.0788"/>
<polygon fill="#191970" stroke="#191970" points="986.66,-123.5859 976.457,-126.4405 986.2132,-130.5717 986.66,-123.5859"/>
</g>
<!-- Node46&#45;&gt;Node16 -->
<g id="edge97" class="edge">
<title>Node46&#45;&gt;Node16</title>
<path fill="none" stroke="#191970" d="M570.171,-554.9737C411.6545,-548.26 57.5465,-531.1877 39.7601,-512 -91.073,-370.8592 131.6116,-256.0125 302.7601,-168 340.2724,-148.7095 445.6547,-135.9761 523.6182,-128.8949"/>
<polygon fill="#191970" stroke="#191970" points="524.2949,-132.3486 533.9449,-127.9752 523.6738,-125.3762 524.2949,-132.3486"/>
</g>
<!-- Node46&#45;&gt;Node34 -->
<g id="edge99" class="edge">
<title>Node46&#45;&gt;Node34</title>
<path fill="none" stroke="#191970" d="M569.9859,-553.0239C469.6107,-545.7398 302.727,-530.9561 281.7601,-512 265.9931,-497.7451 261.9766,-473.2679 261.4663,-454.6669"/>
<polygon fill="#191970" stroke="#191970" points="264.9668,-454.5302 261.5087,-444.5157 257.9669,-454.5009 264.9668,-454.5302"/>
</g>
<!-- Node46&#45;&gt;Node40 -->
<g id="edge100" class="edge">
<title>Node46&#45;&gt;Node40</title>
<path fill="none" stroke="#191970" d="M721.5386,-551.736C880.6378,-538.5847 1244.0182,-508.5472 1356.1675,-499.2768"/>
<polygon fill="#191970" stroke="#191970" points="1356.5435,-502.7578 1366.2211,-498.4458 1355.9667,-495.7816 1356.5435,-502.7578"/>
</g>
<!-- Node46&#45;&gt;Node43 -->
<g id="edge98" class="edge">
<title>Node46&#45;&gt;Node43</title>
<path fill="none" stroke="#191970" d="M643.1379,-548.4106C639.3954,-532.4167 634.6269,-500.1642 650.7601,-481 660.5893,-469.3242 741.4915,-452.1647 800.932,-440.9129"/>
<polygon fill="#191970" stroke="#191970" points="801.8314,-444.3053 811.0147,-439.0216 800.5408,-437.4253 801.8314,-444.3053"/>
</g>
<!-- Node48 -->
<g id="node46" class="node">
<title>Node48</title>
<g id="a_node46"><a xlink:href="MatrixDynSize_8h.html" target="_top" xlink:title="iDynTree/Core/MatrixDynSize.h">
<polygon fill="none" stroke="#000000" points="1423.2601,-420 1423.2601,-439 1590.2601,-439 1590.2601,-420 1423.2601,-420"/>
<text text-anchor="middle" x="1506.7601" y="-427" font-family="FreeSans.ttf" font-size="10.00" fill="#000000">iDynTree/Core/MatrixDynSize.h</text>
</a>
</g>
</g>
<!-- Node47&#45;&gt;Node48 -->
<g id="edge103" class="edge">
<title>Node47&#45;&gt;Node48</title>
<path fill="none" stroke="#191970" d="M1833.3957,-671.297C1867.3749,-634.1974 1944.8754,-537.9095 1892.7601,-481 1882.9361,-470.2722 1711.8199,-450.6884 1600.7485,-439.0074"/>
<polygon fill="#191970" stroke="#191970" points="1600.8385,-435.4977 1590.5283,-437.937 1600.1093,-442.4597 1600.8385,-435.4977"/>
</g>
<!-- Node48&#45;&gt;Node4 -->
<g id="edge104" class="edge">
<title>Node48&#45;&gt;Node4</title>
<path fill="none" stroke="#191970" d="M1517.4144,-419.9057C1538.978,-399.3745 1585.7601,-348.7016 1585.7601,-295.5 1585.7601,-295.5 1585.7601,-295.5 1585.7601,-178 1585.7601,-99.5285 1469.2657,-75.7622 1411.0612,-68.7851"/>
<polygon fill="#191970" stroke="#191970" points="1411.2356,-65.2832 1400.9127,-67.6683 1410.4698,-72.2412 1411.2356,-65.2832"/>
</g>
<!-- Node49&#45;&gt;Node9 -->
<g id="edge115" class="edge">
<title>Node49&#45;&gt;Node9</title>
<path fill="none" stroke="#191970" d="M586.5257,-486.9708C640.0045,-477.9067 711.1607,-463.0023 733.7601,-445 836.8047,-362.9165 879.8036,-198.1505 891.9293,-141.588"/>
<polygon fill="#191970" stroke="#191970" points="895.3611,-142.2754 893.9514,-131.7747 888.5051,-140.8626 895.3611,-142.2754"/>
</g>
<!-- Node49&#45;&gt;Node10 -->
<g id="edge119" class="edge">
<title>Node49&#45;&gt;Node10</title>
<path fill="none" stroke="#191970" d="M500.5138,-486.9459C482.1416,-478.1741 456.3208,-463.7085 438.7601,-445 350.3172,-350.7763 333.8999,-313.4215 302.7601,-188 290.8575,-140.0598 345.4499,-100.56 381.0369,-80.4267"/>
<polygon fill="#191970" stroke="#191970" points="382.9603,-83.3643 390.061,-75.501 379.6065,-77.22 382.9603,-83.3643"/>
</g>
<!-- Node49&#45;&gt;Node16 -->
<g id="edge113" class="edge">
<title>Node49&#45;&gt;Node16</title>
<path fill="none" stroke="#191970" d="M505.985,-486.9042C492.2976,-478.015 473.9354,-463.4044 465.7601,-445 455.2367,-421.3094 415.6642,-583.1612 471.7601,-224 475.7545,-198.4252 470.101,-186.9256 487.7601,-168 502.8832,-151.7923 524.1541,-141.2821 544.9706,-134.4717"/>
<polygon fill="#191970" stroke="#191970" points="546.2373,-137.7454 554.8003,-131.5064 544.2156,-131.0437 546.2373,-137.7454"/>
</g>
<!-- Node49&#45;&gt;Node26 -->
<g id="edge116" class="edge">
<title>Node49&#45;&gt;Node26</title>
<path fill="none" stroke="#191970" d="M540.6696,-486.9005C558.906,-477.1258 587.7106,-461.6865 610.8549,-449.2812"/>
<polygon fill="#191970" stroke="#191970" points="612.5741,-452.3308 619.7344,-444.5218 609.2672,-446.1612 612.5741,-452.3308"/>
</g>
<!-- Node49&#45;&gt;Node34 -->
<g id="edge117" class="edge">
<title>Node49&#45;&gt;Node34</title>
<path fill="none" stroke="#191970" d="M485.7846,-486.9717C445.5653,-476.6075 380.3998,-459.8148 330.8694,-447.0512"/>
<polygon fill="#191970" stroke="#191970" points="331.7409,-443.6615 321.1838,-444.5553 329.9941,-450.4401 331.7409,-443.6615"/>
</g>
<!-- Node49&#45;&gt;Node37 -->
<g id="edge118" class="edge">
<title>Node49&#45;&gt;Node37</title>
<path fill="none" stroke="#191970" d="M597.4995,-486.9855C614.9633,-484.8911 633.5028,-482.7716 650.7601,-481 839.0616,-461.6696 1060.5629,-444.3459 1178.2935,-435.5674"/>
<polygon fill="#191970" stroke="#191970" points="1178.6068,-439.0539 1188.3197,-434.8218 1178.0876,-432.0732 1178.6068,-439.0539"/>
</g>
<!-- Node49&#45;&gt;Node43 -->
<g id="edge112" class="edge">
<title>Node49&#45;&gt;Node43</title>
<path fill="none" stroke="#191970" d="M571.3972,-486.9717C633.2291,-474.8584 739.8846,-453.9639 806.1414,-440.9838"/>
<polygon fill="#191970" stroke="#191970" points="806.8737,-444.4069 816.0143,-439.0496 805.5279,-437.5375 806.8737,-444.4069"/>
</g>
<!-- Node49&#45;&gt;Node48 -->
<g id="edge114" class="edge">
<title>Node49&#45;&gt;Node48</title>
<path fill="none" stroke="#191970" d="M594.0949,-486.9827C612.5278,-484.7649 632.3614,-482.59 650.7601,-481 958.0302,-454.4462 1036.1742,-467.6033 1343.7601,-445 1366.2329,-443.3486 1390.417,-441.2337 1413.098,-439.1007"/>
<polygon fill="#191970" stroke="#191970" points="1413.434,-442.5847 1423.0579,-438.1541 1412.7716,-435.6161 1413.434,-442.5847"/>
</g>
<!-- Node50 -->
<g id="node48" class="node">
<title>Node50</title>
<polygon fill="none" stroke="#bfbfbf" points="475.2601,-420 475.2601,-439 552.2601,-439 552.2601,-420 475.2601,-420"/>
<text text-anchor="middle" x="513.7601" y="-427" font-family="FreeSans.ttf" font-size="10.00" fill="#000000">Eigen/Dense</text>
</g>
<!-- Node49&#45;&gt;Node50 -->
<g id="edge111" class="edge">
<title>Node49&#45;&gt;Node50</title>
<path fill="none" stroke="#191970" d="M521.4706,-486.9005C520.1607,-477.149 518.0935,-461.7597 516.4291,-449.3695"/>
<polygon fill="#191970" stroke="#191970" points="519.8475,-448.5266 515.0472,-439.0817 512.9098,-449.4586 519.8475,-448.5266"/>
</g>
<!-- Node51&#45;&gt;Node3 -->
<g id="edge122" class="edge">
<title>Node51&#45;&gt;Node3</title>
<path fill="none" stroke="#191970" d="M1290.8511,-614.197C1342.4315,-608.1835 1410.9285,-595.3562 1465.7601,-568 1492.3451,-554.7364 1517.0404,-530.5149 1532.0075,-513.9725"/>
<polygon fill="#191970" stroke="#191970" points="1534.9351,-515.9431 1538.906,-506.1205 1529.6764,-511.3229 1534.9351,-515.9431"/>
</g>
<!-- Node51&#45;&gt;Node44 -->
<g id="edge123" class="edge">
<title>Node51&#45;&gt;Node44</title>
<path fill="none" stroke="#191970" d="M1198.0414,-609.8906C1180.688,-599.9165 1153.3278,-584.1908 1133.2719,-572.6633"/>
<polygon fill="#191970" stroke="#191970" points="1134.7755,-569.4907 1124.3615,-567.5419 1131.2873,-575.5596 1134.7755,-569.4907"/>
</g>
<!-- Node51&#45;&gt;Node46 -->
<g id="edge124" class="edge">
<title>Node51&#45;&gt;Node46</title>
<path fill="none" stroke="#191970" d="M1141.2967,-609.967C1124.9952,-607.9284 1107.7975,-605.8373 1091.7601,-604 966.6579,-589.6679 821.5741,-575.0811 731.7138,-566.2842"/>
<polygon fill="#191970" stroke="#191970" points="731.8677,-562.7827 721.5747,-565.2933 731.1868,-569.7495 731.8677,-562.7827"/>
</g>
<!-- Node51&#45;&gt;Node48 -->
<g id="edge121" class="edge">
<title>Node51&#45;&gt;Node48</title>
<path fill="none" stroke="#191970" d="M1220.6514,-609.5308C1229.5174,-595.0124 1247.3333,-567.6444 1266.7601,-548 1271.1432,-543.5679 1351.2466,-483.9079 1356.7601,-481 1389.253,-463.8631 1428.6194,-450.6005 1458.8695,-441.8284"/>
<polygon fill="#191970" stroke="#191970" points="1460.0889,-445.1208 1468.7556,-439.0266 1458.1801,-438.386 1460.0889,-445.1208"/>
</g>
</g>
</svg>
