<?xml version="1.0" encoding="UTF-8" standalone="no"?>
<!DOCTYPE svg PUBLIC "-//W3C//DTD SVG 1.1//EN"
 "http://www.w3.org/Graphics/SVG/1.1/DTD/svg11.dtd">
<!-- Generated by graphviz version 2.40.1 (20161225.0304)
 -->
<!-- Title: DynamicsLinearization.h Pages: 1 -->
<svg width="1509pt" height="733pt"
 viewBox="0.00 0.00 1509.17 733.00" xmlns="http://www.w3.org/2000/svg" xmlns:xlink="http://www.w3.org/1999/xlink">
<g id="graph0" class="graph" transform="scale(1 1) rotate(0) translate(4 729)">
<title>DynamicsLinearization.h</title>
<!-- Node0 -->
<g id="node1" class="node">
<title>Node0</title>
<polygon fill="#bfbfbf" stroke="#000000" points="587.666,-705.5 587.666,-724.5 724.666,-724.5 724.666,-705.5 587.666,-705.5"/>
<text text-anchor="middle" x="656.166" y="-712.5" font-family="FreeSans.ttf" font-size="10.00" fill="#000000">DynamicsLinearization.h</text>
</g>
<!-- Node1 -->
<g id="node2" class="node">
<title>Node1</title>
<g id="a_node2"><a xlink:href="MatrixFixSize_8h.html" target="_top" xlink:title="iDynTree/Core/MatrixFixSize.h">
<polygon fill="none" stroke="#000000" points="626.666,-112.5 626.666,-131.5 787.666,-131.5 787.666,-112.5 626.666,-112.5"/>
<text text-anchor="middle" x="707.166" y="-119.5" font-family="FreeSans.ttf" font-size="10.00" fill="#000000">iDynTree/Core/MatrixFixSize.h</text>
</a>
</g>
</g>
<!-- Node0&#45;&gt;Node1 -->
<g id="edge1" class="edge">
<title>Node0&#45;&gt;Node1</title>
<path fill="none" stroke="#191970" d="M724.8879,-712.3076C861.5023,-705.0762 1154.166,-679.3866 1154.166,-592 1154.166,-592 1154.166,-592 1154.166,-301 1154.166,-218.3417 1100.6369,-199.3782 1024.166,-168 1003.4425,-159.4966 883.2361,-143.4755 796.9802,-132.7681"/>
<polygon fill="#191970" stroke="#191970" points="797.2565,-129.2757 786.9025,-131.522 796.3974,-136.2228 797.2565,-129.2757"/>
</g>
<!-- Node9 -->
<g id="node10" class="node">
<title>Node9</title>
<g id="a_node10"><a xlink:href="MatrixDynSize_8h.html" target="_top" xlink:title="iDynTree/Core/MatrixDynSize.h">
<polygon fill="none" stroke="#000000" points="294.666,-526.5 294.666,-545.5 461.666,-545.5 461.666,-526.5 294.666,-526.5"/>
<text text-anchor="middle" x="378.166" y="-533.5" font-family="FreeSans.ttf" font-size="10.00" fill="#000000">iDynTree/Core/MatrixDynSize.h</text>
</a>
</g>
</g>
<!-- Node0&#45;&gt;Node9 -->
<g id="edge9" class="edge">
<title>Node0&#45;&gt;Node9</title>
<path fill="none" stroke="#191970" d="M641.2195,-705.3762C595.495,-675.9349 457.2413,-586.9154 401.6686,-551.133"/>
<polygon fill="#191970" stroke="#191970" points="403.489,-548.1424 393.1864,-545.6714 399.6994,-554.0279 403.489,-548.1424"/>
</g>
<!-- Node10 -->
<g id="node11" class="node">
<title>Node10</title>
<g id="a_node11"><a xlink:href="Dynamics_8h.html" target="_top" xlink:title="iDynTree/Model/Dynamics.h">
<polygon fill="none" stroke="#000000" points="515.166,-582.5 515.166,-601.5 667.166,-601.5 667.166,-582.5 515.166,-582.5"/>
<text text-anchor="middle" x="591.166" y="-589.5" font-family="FreeSans.ttf" font-size="10.00" fill="#000000">iDynTree/Model/Dynamics.h</text>
</a>
</g>
</g>
<!-- Node0&#45;&gt;Node10 -->
<g id="edge11" class="edge">
<title>Node0&#45;&gt;Node10</title>
<path fill="none" stroke="#191970" d="M643.3188,-705.4604C632.8524,-697.0117 618.4903,-683.7549 610.166,-669 600.0513,-651.0717 595.2706,-627.8232 593.0433,-611.5825"/>
<polygon fill="#191970" stroke="#191970" points="596.5149,-611.135 591.8752,-601.6101 589.5625,-611.9494 596.5149,-611.135"/>
</g>
<!-- Node38 -->
<g id="node39" class="node">
<title>Node38</title>
<g id="a_node39"><a xlink:href="DynamicsLinearizationHelpers_8h.html" target="_top" xlink:title="iDynTree/Model/DynamicsLinearization\lHelpers.h">
<polygon fill="none" stroke="#000000" points="619.166,-638.5 619.166,-668.5 825.166,-668.5 825.166,-638.5 619.166,-638.5"/>
<text text-anchor="start" x="627.166" y="-656.5" font-family="FreeSans.ttf" font-size="10.00" fill="#000000">iDynTree/Model/DynamicsLinearization</text>
<text text-anchor="middle" x="722.166" y="-645.5" font-family="FreeSans.ttf" font-size="10.00" fill="#000000">Helpers.h</text>
</a>
</g>
</g>
<!-- Node0&#45;&gt;Node38 -->
<g id="edge78" class="edge">
<title>Node0&#45;&gt;Node38</title>
<path fill="none" stroke="#191970" d="M666.4785,-705.3906C675.0799,-697.3756 687.6672,-685.6466 698.6994,-675.3666"/>
<polygon fill="#191970" stroke="#191970" points="701.0905,-677.9225 706.0206,-668.5446 696.3184,-672.8012 701.0905,-677.9225"/>
</g>
<!-- Node2 -->
<g id="node3" class="node">
<title>Node2</title>
<g id="a_node3"><a xlink:href="Utils_8h.html" target="_top" xlink:title="iDynTree/Core/Utils.h">
<polygon fill="none" stroke="#000000" points="914.666,-56.5 914.666,-75.5 1033.666,-75.5 1033.666,-56.5 914.666,-56.5"/>
<text text-anchor="middle" x="974.166" y="-63.5" font-family="FreeSans.ttf" font-size="10.00" fill="#000000">iDynTree/Core/Utils.h</text>
</a>
</g>
</g>
<!-- Node1&#45;&gt;Node2 -->
<g id="edge2" class="edge">
<title>Node1&#45;&gt;Node2</title>
<path fill="none" stroke="#191970" d="M752.7615,-112.4369C798.7445,-102.7925 869.7748,-87.8948 918.9266,-77.5858"/>
<polygon fill="#191970" stroke="#191970" points="919.6899,-81.0019 928.7585,-75.5237 918.2529,-74.151 919.6899,-81.0019"/>
</g>
<!-- Node4 -->
<g id="node5" class="node">
<title>Node4</title>
<polygon fill="none" stroke="#bfbfbf" points="860.166,-.5 860.166,-19.5 912.166,-19.5 912.166,-.5 860.166,-.5"/>
<text text-anchor="middle" x="886.166" y="-7.5" font-family="FreeSans.ttf" font-size="10.00" fill="#000000">cassert</text>
</g>
<!-- Node1&#45;&gt;Node4 -->
<g id="edge4" class="edge">
<title>Node1&#45;&gt;Node4</title>
<path fill="none" stroke="#191970" d="M707.0003,-112.4984C707.2851,-98.2481 709.9736,-71.3765 725.166,-56 742.5414,-38.414 807.8978,-23.8907 849.8083,-16.1232"/>
<polygon fill="#191970" stroke="#191970" points="850.697,-19.5194 859.9149,-14.2963 849.4518,-12.631 850.697,-19.5194"/>
</g>
<!-- Node5 -->
<g id="node6" class="node">
<title>Node5</title>
<polygon fill="none" stroke="#bfbfbf" points="734.166,-56.5 734.166,-75.5 784.166,-75.5 784.166,-56.5 734.166,-56.5"/>
<text text-anchor="middle" x="759.166" y="-63.5" font-family="FreeSans.ttf" font-size="10.00" fill="#000000">cstring</text>
</g>
<!-- Node1&#45;&gt;Node5 -->
<g id="edge5" class="edge">
<title>Node1&#45;&gt;Node5</title>
<path fill="none" stroke="#191970" d="M716.2237,-112.2455C723.6801,-104.2155 734.4294,-92.6394 743.3077,-83.0781"/>
<polygon fill="#191970" stroke="#191970" points="745.9723,-85.3522 750.2121,-75.6427 740.8427,-80.589 745.9723,-85.3522"/>
</g>
<!-- Node6 -->
<g id="node7" class="node">
<title>Node6</title>
<polygon fill="none" stroke="#bfbfbf" points="396.166,-56.5 396.166,-75.5 440.166,-75.5 440.166,-56.5 396.166,-56.5"/>
<text text-anchor="middle" x="418.166" y="-63.5" font-family="FreeSans.ttf" font-size="10.00" fill="#000000">string</text>
</g>
<!-- Node1&#45;&gt;Node6 -->
<g id="edge6" class="edge">
<title>Node1&#45;&gt;Node6</title>
<path fill="none" stroke="#191970" d="M657.8135,-112.4369C598.513,-100.9461 500.727,-81.998 450.3612,-72.2385"/>
<polygon fill="#191970" stroke="#191970" points="450.8476,-68.7677 440.3644,-70.3014 449.5159,-75.6399 450.8476,-68.7677"/>
</g>
<!-- Node7 -->
<g id="node8" class="node">
<title>Node7</title>
<polygon fill="none" stroke="#bfbfbf" points="1062.166,-56.5 1062.166,-75.5 1122.166,-75.5 1122.166,-56.5 1062.166,-56.5"/>
<text text-anchor="middle" x="1092.166" y="-63.5" font-family="FreeSans.ttf" font-size="10.00" fill="#000000">iostream</text>
</g>
<!-- Node1&#45;&gt;Node7 -->
<g id="edge7" class="edge">
<title>Node1&#45;&gt;Node7</title>
<path fill="none" stroke="#191970" d="M786.5661,-112.4815C854.5759,-103.9978 955.0423,-90.68 1042.166,-76 1045.3959,-75.4558 1048.7366,-74.86 1052.0886,-74.2389"/>
<polygon fill="#191970" stroke="#191970" points="1052.9158,-77.6442 1062.0791,-72.3259 1051.5993,-70.7691 1052.9158,-77.6442"/>
</g>
<!-- Node8 -->
<g id="node9" class="node">
<title>Node8</title>
<polygon fill="none" stroke="#bfbfbf" points="802.166,-56.5 802.166,-75.5 858.166,-75.5 858.166,-56.5 802.166,-56.5"/>
<text text-anchor="middle" x="830.166" y="-63.5" font-family="FreeSans.ttf" font-size="10.00" fill="#000000">sstream</text>
</g>
<!-- Node1&#45;&gt;Node8 -->
<g id="edge8" class="edge">
<title>Node1&#45;&gt;Node8</title>
<path fill="none" stroke="#191970" d="M728.3104,-112.3733C748.0551,-103.3838 777.7358,-89.8706 799.9714,-79.7471"/>
<polygon fill="#191970" stroke="#191970" points="801.6466,-82.8302 809.2974,-75.5011 798.746,-76.4594 801.6466,-82.8302"/>
</g>
<!-- Node3 -->
<g id="node4" class="node">
<title>Node3</title>
<polygon fill="none" stroke="#bfbfbf" points="938.666,-.5 938.666,-19.5 991.666,-19.5 991.666,-.5 938.666,-.5"/>
<text text-anchor="middle" x="965.166" y="-7.5" font-family="FreeSans.ttf" font-size="10.00" fill="#000000">cstddef</text>
</g>
<!-- Node2&#45;&gt;Node3 -->
<g id="edge3" class="edge">
<title>Node2&#45;&gt;Node3</title>
<path fill="none" stroke="#191970" d="M972.5983,-56.2455C971.4239,-48.9382 969.7776,-38.6944 968.3328,-29.7046"/>
<polygon fill="#191970" stroke="#191970" points="971.7582,-28.9606 966.7157,-19.6427 964.8469,-30.0714 971.7582,-28.9606"/>
</g>
<!-- Node9&#45;&gt;Node6 -->
<g id="edge10" class="edge">
<title>Node9&#45;&gt;Node6</title>
<path fill="none" stroke="#191970" d="M294.3595,-529.8453C196.0074,-521.8985 43.6446,-507.0474 23.166,-490 -2.4895,-468.6431 .166,-451.8814 .166,-418.5 .166,-418.5 .166,-418.5 .166,-183.5 .166,-132.4135 43.2191,-132.145 90.166,-112 143.0668,-89.3002 313.8578,-73.9697 385.7717,-68.3668"/>
<polygon fill="#191970" stroke="#191970" points="386.332,-71.8342 396.0357,-67.5812 385.7977,-64.8547 386.332,-71.8342"/>
</g>
<!-- Node10&#45;&gt;Node9 -->
<g id="edge12" class="edge">
<title>Node10&#45;&gt;Node9</title>
<path fill="none" stroke="#191970" d="M554.55,-582.3733C518.518,-572.9001 463.3782,-558.4032 424.3546,-548.1435"/>
<polygon fill="#191970" stroke="#191970" points="424.8655,-544.6589 414.3042,-545.5011 423.0855,-551.4289 424.8655,-544.6589"/>
</g>
<!-- Node11 -->
<g id="node12" class="node">
<title>Node11</title>
<g id="a_node12"><a xlink:href="Indices_8h.html" target="_top" xlink:title="iDynTree/Model/Indices.h">
<polygon fill="none" stroke="#000000" points="32.166,-470.5 32.166,-489.5 170.166,-489.5 170.166,-470.5 32.166,-470.5"/>
<text text-anchor="middle" x="101.166" y="-477.5" font-family="FreeSans.ttf" font-size="10.00" fill="#000000">iDynTree/Model/Indices.h</text>
</a>
</g>
</g>
<!-- Node10&#45;&gt;Node11 -->
<g id="edge13" class="edge">
<title>Node10&#45;&gt;Node11</title>
<path fill="none" stroke="#191970" d="M573.8112,-582.4803C540.6776,-564.3124 471.5503,-526.446 470.166,-526 466.7292,-524.8927 287.7385,-502.8499 180.3428,-489.6859"/>
<polygon fill="#191970" stroke="#191970" points="180.5329,-486.1831 170.1814,-488.4407 179.6814,-493.1311 180.5329,-486.1831"/>
</g>
<!-- Node12 -->
<g id="node13" class="node">
<title>Node12</title>
<g id="a_node13"><a xlink:href="LinkState_8h.html" target="_top" xlink:title="iDynTree/Model/LinkState.h">
<polygon fill="none" stroke="#000000" points="516.666,-526.5 516.666,-545.5 665.666,-545.5 665.666,-526.5 516.666,-526.5"/>
<text text-anchor="middle" x="591.166" y="-533.5" font-family="FreeSans.ttf" font-size="10.00" fill="#000000">iDynTree/Model/LinkState.h</text>
</a>
</g>
</g>
<!-- Node10&#45;&gt;Node12 -->
<g id="edge15" class="edge">
<title>Node10&#45;&gt;Node12</title>
<path fill="none" stroke="#191970" d="M591.166,-582.2455C591.166,-574.9382 591.166,-564.6944 591.166,-555.7046"/>
<polygon fill="#191970" stroke="#191970" points="594.6661,-555.6426 591.166,-545.6427 587.6661,-555.6427 594.6661,-555.6426"/>
</g>
<!-- Node36 -->
<g id="node37" class="node">
<title>Node36</title>
<g id="a_node37"><a xlink:href="JointState_8h.html" target="_top" xlink:title="iDynTree/Model/JointState.h">
<polygon fill="none" stroke="#000000" points="936.666,-470.5 936.666,-489.5 1087.666,-489.5 1087.666,-470.5 936.666,-470.5"/>
<text text-anchor="middle" x="1012.166" y="-477.5" font-family="FreeSans.ttf" font-size="10.00" fill="#000000">iDynTree/Model/JointState.h</text>
</a>
</g>
</g>
<!-- Node10&#45;&gt;Node36 -->
<g id="edge71" class="edge">
<title>Node10&#45;&gt;Node36</title>
<path fill="none" stroke="#191970" d="M627.0602,-582.4509C703.4919,-562.1176 882.2094,-514.5728 966.5573,-492.1334"/>
<polygon fill="#191970" stroke="#191970" points="967.5986,-495.4782 976.3626,-489.5249 965.7989,-488.7135 967.5986,-495.4782"/>
</g>
<!-- Node11&#45;&gt;Node6 -->
<g id="edge14" class="edge">
<title>Node11&#45;&gt;Node6</title>
<path fill="none" stroke="#191970" d="M92.1396,-470.3462C74.7195,-450.6624 38.166,-403.7849 38.166,-357 38.166,-357 38.166,-357 38.166,-183.5 38.166,-110.9317 294.307,-78.3203 386.001,-68.9709"/>
<polygon fill="#191970" stroke="#191970" points="386.4879,-72.4399 396.0931,-67.9688 385.7961,-65.4742 386.4879,-72.4399"/>
</g>
<!-- Node12&#45;&gt;Node11 -->
<g id="edge69" class="edge">
<title>Node12&#45;&gt;Node11</title>
<path fill="none" stroke="#191970" d="M516.2739,-527.4855C511.8388,-526.9826 507.4439,-526.4845 503.166,-526 361.3944,-509.9451 325.8825,-506.5335 184.166,-490 183.0487,-489.8697 181.923,-489.738 180.7905,-489.6053"/>
<polygon fill="#191970" stroke="#191970" points="180.7937,-486.0816 170.4529,-488.3873 179.9746,-493.0335 180.7937,-486.0816"/>
</g>
<!-- Node13 -->
<g id="node14" class="node">
<title>Node13</title>
<g id="a_node14"><a xlink:href="Transform_8h.html" target="_top" xlink:title="iDynTree/Core/Transform.h">
<polygon fill="none" stroke="#000000" points="340.166,-347.5 340.166,-366.5 486.166,-366.5 486.166,-347.5 340.166,-347.5"/>
<text text-anchor="middle" x="413.166" y="-354.5" font-family="FreeSans.ttf" font-size="10.00" fill="#000000">iDynTree/Core/Transform.h</text>
</a>
</g>
</g>
<!-- Node12&#45;&gt;Node13 -->
<g id="edge16" class="edge">
<title>Node12&#45;&gt;Node13</title>
<path fill="none" stroke="#191970" d="M535.1193,-526.4236C495.0279,-518.3933 445.8334,-505.7241 432.166,-490 404.6089,-458.2961 406.421,-405.3773 409.9184,-376.7829"/>
<polygon fill="#191970" stroke="#191970" points="413.397,-377.1805 411.3355,-366.7881 406.4663,-376.1977 413.397,-377.1805"/>
</g>
<!-- Node28 -->
<g id="node29" class="node">
<title>Node28</title>
<g id="a_node29"><a xlink:href="Twist_8h.html" target="_top" xlink:title="iDynTree/Core/Twist.h">
<polygon fill="none" stroke="#000000" points="607.166,-470.5 607.166,-489.5 729.166,-489.5 729.166,-470.5 607.166,-470.5"/>
<text text-anchor="middle" x="668.166" y="-477.5" font-family="FreeSans.ttf" font-size="10.00" fill="#000000">iDynTree/Core/Twist.h</text>
</a>
</g>
</g>
<!-- Node12&#45;&gt;Node28 -->
<g id="edge48" class="edge">
<title>Node12&#45;&gt;Node28</title>
<path fill="none" stroke="#191970" d="M604.5783,-526.2455C616.1717,-517.814 633.1407,-505.4729 646.6338,-495.6598"/>
<polygon fill="#191970" stroke="#191970" points="648.8785,-498.355 654.9073,-489.6427 644.7613,-492.6938 648.8785,-498.355"/>
</g>
<!-- Node31 -->
<g id="node32" class="node">
<title>Node31</title>
<g id="a_node32"><a xlink:href="SpatialAcc_8h.html" target="_top" xlink:title="iDynTree/Core/SpatialAcc.h">
<polygon fill="none" stroke="#000000" points="441.166,-470.5 441.166,-489.5 589.166,-489.5 589.166,-470.5 441.166,-470.5"/>
<text text-anchor="middle" x="515.166" y="-477.5" font-family="FreeSans.ttf" font-size="10.00" fill="#000000">iDynTree/Core/SpatialAcc.h</text>
</a>
</g>
</g>
<!-- Node12&#45;&gt;Node31 -->
<g id="edge59" class="edge">
<title>Node12&#45;&gt;Node31</title>
<path fill="none" stroke="#191970" d="M577.9278,-526.2455C566.485,-517.814 549.7363,-505.4729 536.4185,-495.6598"/>
<polygon fill="#191970" stroke="#191970" points="538.3792,-492.757 528.2525,-489.6427 534.2268,-498.3924 538.3792,-492.757"/>
</g>
<!-- Node32 -->
<g id="node33" class="node">
<title>Node32</title>
<g id="a_node33"><a xlink:href="Wrench_8h.html" target="_top" xlink:title="iDynTree/Core/Wrench.h">
<polygon fill="none" stroke="#000000" points="785.666,-470.5 785.666,-489.5 918.666,-489.5 918.666,-470.5 785.666,-470.5"/>
<text text-anchor="middle" x="852.166" y="-477.5" font-family="FreeSans.ttf" font-size="10.00" fill="#000000">iDynTree/Core/Wrench.h</text>
</a>
</g>
</g>
<!-- Node12&#45;&gt;Node32 -->
<g id="edge61" class="edge">
<title>Node12&#45;&gt;Node32</title>
<path fill="none" stroke="#191970" d="M635.7369,-526.4369C680.5927,-516.8127 749.8308,-501.957 797.8667,-491.6504"/>
<polygon fill="#191970" stroke="#191970" points="798.7357,-495.0437 807.7789,-489.5237 797.2671,-488.1995 798.7357,-495.0437"/>
</g>
<!-- Node34 -->
<g id="node35" class="node">
<title>Node34</title>
<g id="a_node35"><a xlink:href="ArticulatedBodyInertia_8h.html" target="_top" xlink:title="iDynTree/Core/Articulated\lBodyInertia.h">
<polygon fill="none" stroke="#000000" points="66.666,-168.5 66.666,-198.5 207.666,-198.5 207.666,-168.5 66.666,-168.5"/>
<text text-anchor="start" x="74.666" y="-186.5" font-family="FreeSans.ttf" font-size="10.00" fill="#000000">iDynTree/Core/Articulated</text>
<text text-anchor="middle" x="137.166" y="-175.5" font-family="FreeSans.ttf" font-size="10.00" fill="#000000">BodyInertia.h</text>
</a>
</g>
</g>
<!-- Node12&#45;&gt;Node34 -->
<g id="edge66" class="edge">
<title>Node12&#45;&gt;Node34</title>
<path fill="none" stroke="#191970" d="M541.7902,-526.4672C436.2385,-505.4068 198.166,-453.9732 198.166,-418.5 198.166,-418.5 198.166,-418.5 198.166,-301 198.166,-264.9261 175.2379,-228.92 157.4953,-206.4576"/>
<polygon fill="#191970" stroke="#191970" points="160.053,-204.0568 151.0078,-198.54 154.6384,-208.4933 160.053,-204.0568"/>
</g>
<!-- Node35 -->
<g id="node36" class="node">
<title>Node35</title>
<polygon fill="none" stroke="#bfbfbf" points="798.666,-409 798.666,-428 845.666,-428 845.666,-409 798.666,-409"/>
<text text-anchor="middle" x="822.166" y="-416" font-family="FreeSans.ttf" font-size="10.00" fill="#000000">vector</text>
</g>
<!-- Node12&#45;&gt;Node35 -->
<g id="edge70" class="edge">
<title>Node12&#45;&gt;Node35</title>
<path fill="none" stroke="#191970" d="M637.7919,-526.493C667.6972,-519.192 706.6752,-507.3768 738.166,-490 764.6798,-475.3695 790.4877,-451.5339 806.3461,-435.4466"/>
<polygon fill="#191970" stroke="#191970" points="808.8682,-437.8733 813.2913,-428.2459 803.8299,-433.0137 808.8682,-437.8733"/>
</g>
<!-- Node13&#45;&gt;Node1 -->
<g id="edge46" class="edge">
<title>Node13&#45;&gt;Node1</title>
<path fill="none" stroke="#191970" d="M387.0814,-347.3569C371.0128,-339.9732 351.5586,-328.1171 341.166,-311 308.1012,-256.541 288.9395,-215.7073 331.166,-168 349.798,-146.9496 511.2749,-133.498 616.4706,-126.8852"/>
<polygon fill="#191970" stroke="#191970" points="616.7037,-130.3776 626.4684,-126.2666 616.2713,-123.391 616.7037,-130.3776"/>
</g>
<!-- Node13&#45;&gt;Node6 -->
<g id="edge47" class="edge">
<title>Node13&#45;&gt;Node6</title>
<path fill="none" stroke="#191970" d="M362.4449,-347.4691C310.1417,-334.3608 236.166,-305.183 236.166,-245 236.166,-245 236.166,-245 236.166,-183.5 236.166,-112.9811 333.7984,-82.7295 386.047,-71.5891"/>
<polygon fill="#191970" stroke="#191970" points="386.7399,-75.0199 395.8492,-69.6096 385.3542,-68.1584 386.7399,-75.0199"/>
</g>
<!-- Node14 -->
<g id="node15" class="node">
<title>Node14</title>
<g id="a_node15"><a xlink:href="Position_8h.html" target="_top" xlink:title="iDynTree/Core/Position.h">
<polygon fill="none" stroke="#000000" points="350.166,-291.5 350.166,-310.5 486.166,-310.5 486.166,-291.5 350.166,-291.5"/>
<text text-anchor="middle" x="418.166" y="-298.5" font-family="FreeSans.ttf" font-size="10.00" fill="#000000">iDynTree/Core/Position.h</text>
</a>
</g>
</g>
<!-- Node13&#45;&gt;Node14 -->
<g id="edge17" class="edge">
<title>Node13&#45;&gt;Node14</title>
<path fill="none" stroke="#191970" d="M414.0369,-347.2455C414.6893,-339.9382 415.604,-329.6944 416.4066,-320.7046"/>
<polygon fill="#191970" stroke="#191970" points="419.9017,-320.9143 417.305,-310.6427 412.9295,-320.2918 419.9017,-320.9143"/>
</g>
<!-- Node25 -->
<g id="node26" class="node">
<title>Node25</title>
<g id="a_node26"><a xlink:href="Rotation_8h.html" target="_top" xlink:title="iDynTree/Core/Rotation.h">
<polygon fill="none" stroke="#000000" points="537.666,-235.5 537.666,-254.5 674.666,-254.5 674.666,-235.5 537.666,-235.5"/>
<text text-anchor="middle" x="606.166" y="-242.5" font-family="FreeSans.ttf" font-size="10.00" fill="#000000">iDynTree/Core/Rotation.h</text>
</a>
</g>
</g>
<!-- Node13&#45;&gt;Node25 -->
<g id="edge45" class="edge">
<title>Node13&#45;&gt;Node25</title>
<path fill="none" stroke="#191970" d="M430.5147,-347.4339C447.1613,-338.2158 472.9751,-323.8189 495.166,-311 525.0631,-293.7296 559.1586,-273.3537 581.5823,-259.8584"/>
<polygon fill="#191970" stroke="#191970" points="583.6734,-262.6847 590.4315,-254.5251 580.0601,-256.6893 583.6734,-262.6847"/>
</g>
<!-- Node14&#45;&gt;Node6 -->
<g id="edge44" class="edge">
<title>Node14&#45;&gt;Node6</title>
<path fill="none" stroke="#191970" d="M405.5668,-291.403C385.2796,-275.0594 346.1364,-239.6205 331.166,-199 313.9848,-152.381 364.0191,-105.541 395.211,-81.8567"/>
<polygon fill="#191970" stroke="#191970" points="397.4529,-84.5526 403.4376,-75.8099 393.3071,-78.9123 397.4529,-84.5526"/>
</g>
<!-- Node15 -->
<g id="node16" class="node">
<title>Node15</title>
<g id="a_node16"><a xlink:href="PositionRaw_8h.html" target="_top" xlink:title="iDynTree/Core/PositionRaw.h">
<polygon fill="none" stroke="#000000" points="340.166,-174 340.166,-193 496.166,-193 496.166,-174 340.166,-174"/>
<text text-anchor="middle" x="418.166" y="-181" font-family="FreeSans.ttf" font-size="10.00" fill="#000000">iDynTree/Core/PositionRaw.h</text>
</a>
</g>
</g>
<!-- Node14&#45;&gt;Node15 -->
<g id="edge18" class="edge">
<title>Node14&#45;&gt;Node15</title>
<path fill="none" stroke="#191970" d="M418.166,-291.3845C418.166,-272.1913 418.166,-228.786 418.166,-203.2663"/>
<polygon fill="#191970" stroke="#191970" points="421.6661,-203.2483 418.166,-193.2484 414.6661,-203.2484 421.6661,-203.2483"/>
</g>
<!-- Node14&#45;&gt;Node25 -->
<g id="edge36" class="edge">
<title>Node14&#45;&gt;Node25</title>
<path fill="none" stroke="#191970" d="M450.4843,-291.3733C482.0165,-281.9807 530.128,-267.6496 564.5161,-257.4064"/>
<polygon fill="#191970" stroke="#191970" points="565.6847,-260.7103 574.2693,-254.5011 563.6863,-254.0016 565.6847,-260.7103"/>
</g>
<!-- Node15&#45;&gt;Node6 -->
<g id="edge35" class="edge">
<title>Node15&#45;&gt;Node6</title>
<path fill="none" stroke="#191970" d="M418.166,-173.8845C418.166,-154.6913 418.166,-111.286 418.166,-85.7663"/>
<polygon fill="#191970" stroke="#191970" points="421.6661,-85.7483 418.166,-75.7484 414.6661,-85.7484 421.6661,-85.7483"/>
</g>
<!-- Node16 -->
<g id="node17" class="node">
<title>Node16</title>
<g id="a_node17"><a xlink:href="VectorFixSize_8h.html" target="_top" xlink:title="iDynTree/Core/VectorFixSize.h">
<polygon fill="none" stroke="#000000" points="805.666,-112.5 805.666,-131.5 966.666,-131.5 966.666,-112.5 805.666,-112.5"/>
<text text-anchor="middle" x="886.166" y="-119.5" font-family="FreeSans.ttf" font-size="10.00" fill="#000000">iDynTree/Core/VectorFixSize.h</text>
</a>
</g>
</g>
<!-- Node15&#45;&gt;Node16 -->
<g id="edge19" class="edge">
<title>Node15&#45;&gt;Node16</title>
<path fill="none" stroke="#191970" d="M490.5212,-173.9918C575.1365,-162.8725 714.8966,-144.5065 803.6555,-132.8427"/>
<polygon fill="#191970" stroke="#191970" points="804.2257,-136.298 813.6844,-131.5248 803.3136,-129.3576 804.2257,-136.298"/>
</g>
<!-- Node16&#45;&gt;Node2 -->
<g id="edge20" class="edge">
<title>Node16&#45;&gt;Node2</title>
<path fill="none" stroke="#191970" d="M901.4944,-112.2455C914.9963,-103.6534 934.8781,-91.0014 950.4346,-81.1018"/>
<polygon fill="#191970" stroke="#191970" points="952.4556,-83.9643 959.0132,-75.6427 948.6975,-78.0587 952.4556,-83.9643"/>
</g>
<!-- Node16&#45;&gt;Node4 -->
<g id="edge33" class="edge">
<title>Node16&#45;&gt;Node4</title>
<path fill="none" stroke="#191970" d="M886.166,-112.4509C886.166,-94.184 886.166,-53.9553 886.166,-29.6976"/>
<polygon fill="#191970" stroke="#191970" points="889.6661,-29.5249 886.166,-19.5249 882.6661,-29.5249 889.6661,-29.5249"/>
</g>
<!-- Node16&#45;&gt;Node5 -->
<g id="edge34" class="edge">
<title>Node16&#45;&gt;Node5</title>
<path fill="none" stroke="#191970" d="M864.3339,-112.3733C843.8557,-103.3435 813.0261,-89.7494 790.034,-79.6111"/>
<polygon fill="#191970" stroke="#191970" points="791.2753,-76.3333 780.7132,-75.5011 788.451,-82.7383 791.2753,-76.3333"/>
</g>
<!-- Node16&#45;&gt;Node6 -->
<g id="edge31" class="edge">
<title>Node16&#45;&gt;Node6</title>
<path fill="none" stroke="#191970" d="M806.5111,-112.4686C702.0245,-99.966 523.4264,-78.5953 450.5594,-69.8761"/>
<polygon fill="#191970" stroke="#191970" points="450.5428,-66.3493 440.1977,-68.6363 449.7111,-73.2997 450.5428,-66.3493"/>
</g>
<!-- Node16&#45;&gt;Node8 -->
<g id="edge32" class="edge">
<title>Node16&#45;&gt;Node8</title>
<path fill="none" stroke="#191970" d="M876.4115,-112.2455C868.3012,-104.1352 856.5735,-92.4075 846.9579,-82.7919"/>
<polygon fill="#191970" stroke="#191970" points="849.3546,-80.2389 839.8086,-75.6427 844.4049,-85.1887 849.3546,-80.2389"/>
</g>
<!-- Node17 -->
<g id="node18" class="node">
<title>Node17</title>
<g id="a_node18"><a xlink:href="Span_8h.html" target="_top" xlink:title="iDynTree/Core/Span.h">
<polygon fill="none" stroke="#000000" points="1141.666,-56.5 1141.666,-75.5 1262.666,-75.5 1262.666,-56.5 1141.666,-56.5"/>
<text text-anchor="middle" x="1202.166" y="-63.5" font-family="FreeSans.ttf" font-size="10.00" fill="#000000">iDynTree/Core/Span.h</text>
</a>
</g>
</g>
<!-- Node16&#45;&gt;Node17 -->
<g id="edge21" class="edge">
<title>Node16&#45;&gt;Node17</title>
<path fill="none" stroke="#191970" d="M940.1293,-112.4369C995.0055,-102.712 1080.0229,-87.6456 1138.2409,-77.3285"/>
<polygon fill="#191970" stroke="#191970" points="1139.1894,-80.715 1148.4253,-75.5237 1137.9679,-73.8224 1139.1894,-80.715"/>
</g>
<!-- Node17&#45;&gt;Node3 -->
<g id="edge25" class="edge">
<title>Node17&#45;&gt;Node3</title>
<path fill="none" stroke="#191970" d="M1157.0686,-56.466C1118.1843,-48.0804 1060.3199,-35.2097 1001.6764,-20.3021"/>
<polygon fill="#191970" stroke="#191970" points="1002.4339,-16.8832 991.8783,-17.7939 1000.6979,-23.6646 1002.4339,-16.8832"/>
</g>
<!-- Node17&#45;&gt;Node4 -->
<g id="edge22" class="edge">
<title>Node17&#45;&gt;Node4</title>
<path fill="none" stroke="#191970" d="M1141.5187,-56.8777C1086.0658,-48.2768 1001.8603,-34.5629 929.166,-20 926.9678,-19.5596 924.7106,-19.0894 922.4365,-18.6017"/>
<polygon fill="#191970" stroke="#191970" points="923.0103,-15.144 912.4893,-16.392 921.4922,-21.9774 923.0103,-15.144"/>
</g>
<!-- Node18 -->
<g id="node19" class="node">
<title>Node18</title>
<polygon fill="none" stroke="#bfbfbf" points="1243.166,-.5 1243.166,-19.5 1307.166,-19.5 1307.166,-.5 1243.166,-.5"/>
<text text-anchor="middle" x="1275.166" y="-7.5" font-family="FreeSans.ttf" font-size="10.00" fill="#000000">algorithm</text>
</g>
<!-- Node17&#45;&gt;Node18 -->
<g id="edge23" class="edge">
<title>Node17&#45;&gt;Node18</title>
<path fill="none" stroke="#191970" d="M1214.8816,-56.2455C1225.768,-47.8943 1241.6542,-35.7076 1254.386,-25.9408"/>
<polygon fill="#191970" stroke="#191970" points="1256.792,-28.5063 1262.5961,-19.6427 1252.5314,-22.9523 1256.792,-28.5063"/>
</g>
<!-- Node19 -->
<g id="node20" class="node">
<title>Node19</title>
<polygon fill="none" stroke="#bfbfbf" points="1325.166,-.5 1325.166,-19.5 1367.166,-19.5 1367.166,-.5 1325.166,-.5"/>
<text text-anchor="middle" x="1346.166" y="-7.5" font-family="FreeSans.ttf" font-size="10.00" fill="#000000">array</text>
</g>
<!-- Node17&#45;&gt;Node19 -->
<g id="edge24" class="edge">
<title>Node17&#45;&gt;Node19</title>
<path fill="none" stroke="#191970" d="M1226.9205,-56.3733C1251.4491,-46.8343 1289.0756,-32.2018 1315.4874,-21.9306"/>
<polygon fill="#191970" stroke="#191970" points="1316.9587,-25.1138 1325.0101,-18.2273 1314.4215,-18.5898 1316.9587,-25.1138"/>
</g>
<!-- Node20 -->
<g id="node21" class="node">
<title>Node20</title>
<polygon fill="none" stroke="#bfbfbf" points="1385.666,-.5 1385.666,-19.5 1438.666,-19.5 1438.666,-.5 1385.666,-.5"/>
<text text-anchor="middle" x="1412.166" y="-7.5" font-family="FreeSans.ttf" font-size="10.00" fill="#000000">iterator</text>
</g>
<!-- Node17&#45;&gt;Node20 -->
<g id="edge26" class="edge">
<title>Node17&#45;&gt;Node20</title>
<path fill="none" stroke="#191970" d="M1238.8626,-56.4408C1272.0368,-47.7675 1322.4729,-34.5031 1375.51,-20.1548"/>
<polygon fill="#191970" stroke="#191970" points="1376.7034,-23.4577 1385.4398,-17.4639 1374.8725,-16.7014 1376.7034,-23.4577"/>
</g>
<!-- Node21 -->
<g id="node22" class="node">
<title>Node21</title>
<polygon fill="none" stroke="#bfbfbf" points="1457.166,-.5 1457.166,-19.5 1501.166,-19.5 1501.166,-.5 1457.166,-.5"/>
<text text-anchor="middle" x="1479.166" y="-7.5" font-family="FreeSans.ttf" font-size="10.00" fill="#000000">limits</text>
</g>
<!-- Node17&#45;&gt;Node21 -->
<g id="edge27" class="edge">
<title>Node17&#45;&gt;Node21</title>
<path fill="none" stroke="#191970" d="M1262.7859,-56.8712C1310.518,-49.1816 1378.8545,-37.068 1446.8814,-20.0923"/>
<polygon fill="#191970" stroke="#191970" points="1448.0784,-23.3997 1456.9135,-17.5523 1446.3603,-16.6138 1448.0784,-23.3997"/>
</g>
<!-- Node22 -->
<g id="node23" class="node">
<title>Node22</title>
<polygon fill="none" stroke="#bfbfbf" points="1009.666,-.5 1009.666,-19.5 1074.666,-19.5 1074.666,-.5 1009.666,-.5"/>
<text text-anchor="middle" x="1042.166" y="-7.5" font-family="FreeSans.ttf" font-size="10.00" fill="#000000">stdexcept</text>
</g>
<!-- Node17&#45;&gt;Node22 -->
<g id="edge28" class="edge">
<title>Node17&#45;&gt;Node22</title>
<path fill="none" stroke="#191970" d="M1174.661,-56.3733C1148.2858,-47.1419 1108.2808,-33.1402 1079.1302,-22.9375"/>
<polygon fill="#191970" stroke="#191970" points="1079.9069,-19.5012 1069.312,-19.5011 1077.5944,-26.1082 1079.9069,-19.5012"/>
</g>
<!-- Node23 -->
<g id="node24" class="node">
<title>Node23</title>
<polygon fill="none" stroke="#bfbfbf" points="1092.666,-.5 1092.666,-19.5 1161.666,-19.5 1161.666,-.5 1092.666,-.5"/>
<text text-anchor="middle" x="1127.166" y="-7.5" font-family="FreeSans.ttf" font-size="10.00" fill="#000000">type_traits</text>
</g>
<!-- Node17&#45;&gt;Node23 -->
<g id="edge29" class="edge">
<title>Node17&#45;&gt;Node23</title>
<path fill="none" stroke="#191970" d="M1189.102,-56.2455C1177.8097,-47.814 1161.2815,-35.4729 1148.1389,-25.6598"/>
<polygon fill="#191970" stroke="#191970" points="1150.1871,-22.8211 1140.0803,-19.6427 1145.9991,-28.4301 1150.1871,-22.8211"/>
</g>
<!-- Node24 -->
<g id="node25" class="node">
<title>Node24</title>
<polygon fill="none" stroke="#bfbfbf" points="1179.666,-.5 1179.666,-19.5 1224.666,-19.5 1224.666,-.5 1179.666,-.5"/>
<text text-anchor="middle" x="1202.166" y="-7.5" font-family="FreeSans.ttf" font-size="10.00" fill="#000000">utility</text>
</g>
<!-- Node17&#45;&gt;Node24 -->
<g id="edge30" class="edge">
<title>Node17&#45;&gt;Node24</title>
<path fill="none" stroke="#191970" d="M1202.166,-56.2455C1202.166,-48.9382 1202.166,-38.6944 1202.166,-29.7046"/>
<polygon fill="#191970" stroke="#191970" points="1205.6661,-29.6426 1202.166,-19.6427 1198.6661,-29.6427 1205.6661,-29.6426"/>
</g>
<!-- Node25&#45;&gt;Node6 -->
<g id="edge37" class="edge">
<title>Node25&#45;&gt;Node6</title>
<path fill="none" stroke="#191970" d="M591.5759,-235.4873C578.42,-226.6492 558.7968,-212.8074 543.166,-199 500.0654,-160.9272 455.2533,-109.9937 432.8175,-83.5683"/>
<polygon fill="#191970" stroke="#191970" points="435.2224,-80.9908 426.1015,-75.6002 429.8701,-85.5021 435.2224,-80.9908"/>
</g>
<!-- Node25&#45;&gt;Node16 -->
<g id="edge43" class="edge">
<title>Node25&#45;&gt;Node16</title>
<path fill="none" stroke="#191970" d="M634.8879,-235.4537C658.2576,-227.1855 691.7401,-214.1834 719.166,-199 739.7778,-187.5889 741.3777,-179.0864 762.166,-168 788.075,-154.1827 819.0414,-142.6912 843.5474,-134.6498"/>
<polygon fill="#191970" stroke="#191970" points="844.8271,-137.915 853.2784,-131.5255 842.6872,-131.2501 844.8271,-137.915"/>
</g>
<!-- Node26 -->
<g id="node27" class="node">
<title>Node26</title>
<g id="a_node27"><a xlink:href="GeomVector3_8h.html" target="_top" xlink:title="iDynTree/Core/GeomVector3.h">
<polygon fill="none" stroke="#000000" points="804.666,-174 804.666,-193 967.666,-193 967.666,-174 804.666,-174"/>
<text text-anchor="middle" x="886.166" y="-181" font-family="FreeSans.ttf" font-size="10.00" fill="#000000">iDynTree/Core/GeomVector3.h</text>
</a>
</g>
</g>
<!-- Node25&#45;&gt;Node26 -->
<g id="edge38" class="edge">
<title>Node25&#45;&gt;Node26</title>
<path fill="none" stroke="#191970" d="M649.6088,-235.4581C698.9616,-224.6181 779.5275,-206.9224 832.698,-195.2439"/>
<polygon fill="#191970" stroke="#191970" points="833.605,-198.6282 842.6213,-193.0643 832.1032,-191.7911 833.605,-198.6282"/>
</g>
<!-- Node27 -->
<g id="node28" class="node">
<title>Node27</title>
<g id="a_node28"><a xlink:href="RotationRaw_8h.html" target="_top" xlink:title="iDynTree/Core/RotationRaw.h">
<polygon fill="none" stroke="#000000" points="552.166,-174 552.166,-193 710.166,-193 710.166,-174 552.166,-174"/>
<text text-anchor="middle" x="631.166" y="-181" font-family="FreeSans.ttf" font-size="10.00" fill="#000000">iDynTree/Core/RotationRaw.h</text>
</a>
</g>
</g>
<!-- Node25&#45;&gt;Node27 -->
<g id="edge40" class="edge">
<title>Node25&#45;&gt;Node27</title>
<path fill="none" stroke="#191970" d="M610.0722,-235.3906C613.6106,-226.6862 618.9296,-213.6015 623.341,-202.7494"/>
<polygon fill="#191970" stroke="#191970" points="626.6811,-203.8268 627.2046,-193.2449 620.1964,-201.1907 626.6811,-203.8268"/>
</g>
<!-- Node26&#45;&gt;Node16 -->
<g id="edge39" class="edge">
<title>Node26&#45;&gt;Node16</title>
<path fill="none" stroke="#191970" d="M886.166,-173.8906C886.166,-165.3657 886.166,-152.6392 886.166,-141.9235"/>
<polygon fill="#191970" stroke="#191970" points="889.6661,-141.7448 886.166,-131.7449 882.6661,-141.7449 889.6661,-141.7448"/>
</g>
<!-- Node27&#45;&gt;Node1 -->
<g id="edge41" class="edge">
<title>Node27&#45;&gt;Node1</title>
<path fill="none" stroke="#191970" d="M643.041,-173.8906C654.7957,-164.3786 673.0146,-149.6357 687.0331,-138.2917"/>
<polygon fill="#191970" stroke="#191970" points="689.5516,-140.7562 695.1235,-131.7449 685.1482,-135.3146 689.5516,-140.7562"/>
</g>
<!-- Node27&#45;&gt;Node6 -->
<g id="edge42" class="edge">
<title>Node27&#45;&gt;Node6</title>
<path fill="none" stroke="#191970" d="M620.7236,-173.8182C604.232,-158.9269 570.6794,-130.2186 538.166,-112 509.7681,-96.0876 474.7625,-83.3716 449.9047,-75.3772"/>
<polygon fill="#191970" stroke="#191970" points="450.8411,-72.0028 440.2518,-72.3456 448.7437,-78.6812 450.8411,-72.0028"/>
</g>
<!-- Node29 -->
<g id="node30" class="node">
<title>Node29</title>
<g id="a_node30"><a xlink:href="SpatialMotionVector_8h.html" target="_top" xlink:title="iDynTree/Core/SpatialMotion\lVector.h">
<polygon fill="none" stroke="#000000" points="625.666,-403.5 625.666,-433.5 780.666,-433.5 780.666,-403.5 625.666,-403.5"/>
<text text-anchor="start" x="633.666" y="-421.5" font-family="FreeSans.ttf" font-size="10.00" fill="#000000">iDynTree/Core/SpatialMotion</text>
<text text-anchor="middle" x="703.166" y="-410.5" font-family="FreeSans.ttf" font-size="10.00" fill="#000000">Vector.h</text>
</a>
</g>
</g>
<!-- Node28&#45;&gt;Node29 -->
<g id="edge49" class="edge">
<title>Node28&#45;&gt;Node29</title>
<path fill="none" stroke="#191970" d="M673.6347,-470.3906C677.8891,-462.9151 683.9822,-452.2087 689.5299,-442.4605"/>
<polygon fill="#191970" stroke="#191970" points="692.6997,-443.9669 694.604,-433.5446 686.6159,-440.5045 692.6997,-443.9669"/>
</g>
<!-- Node29&#45;&gt;Node16 -->
<g id="edge50" class="edge">
<title>Node29&#45;&gt;Node16</title>
<path fill="none" stroke="#191970" d="M710.7403,-403.3644C715.6962,-393.2018 722.1566,-379.4449 727.166,-367 762.0669,-280.2952 733.8167,-238.5129 795.166,-168 808.1073,-153.1257 827.0122,-142.4871 844.2423,-135.214"/>
<polygon fill="#191970" stroke="#191970" points="845.5828,-138.4477 853.5937,-131.5141 843.0074,-131.9386 845.5828,-138.4477"/>
</g>
<!-- Node29&#45;&gt;Node26 -->
<g id="edge51" class="edge">
<title>Node29&#45;&gt;Node26</title>
<path fill="none" stroke="#191970" d="M706.1578,-403.4227C709.6097,-388.3444 716.2577,-364.8862 727.166,-347 765.3942,-284.3176 831.6634,-226.6592 865.2947,-199.6337"/>
<polygon fill="#191970" stroke="#191970" points="867.8233,-202.0956 873.4855,-193.1407 863.4748,-196.6101 867.8233,-202.0956"/>
</g>
<!-- Node30 -->
<g id="node31" class="node">
<title>Node30</title>
<g id="a_node31"><a xlink:href="SpatialVector_8h.html" target="_top" xlink:title="iDynTree/Core/SpatialVector.h">
<polygon fill="none" stroke="#000000" points="769.666,-347.5 769.666,-366.5 930.666,-366.5 930.666,-347.5 769.666,-347.5"/>
<text text-anchor="middle" x="850.166" y="-354.5" font-family="FreeSans.ttf" font-size="10.00" fill="#000000">iDynTree/Core/SpatialVector.h</text>
</a>
</g>
</g>
<!-- Node29&#45;&gt;Node30 -->
<g id="edge52" class="edge">
<title>Node29&#45;&gt;Node30</title>
<path fill="none" stroke="#191970" d="M739.1262,-403.4554C763.2232,-393.374 794.679,-380.2139 817.9563,-370.4755"/>
<polygon fill="#191970" stroke="#191970" points="819.5118,-373.6187 827.3862,-366.5303 816.8101,-367.1611 819.5118,-373.6187"/>
</g>
<!-- Node30&#45;&gt;Node2 -->
<g id="edge55" class="edge">
<title>Node30&#45;&gt;Node2</title>
<path fill="none" stroke="#191970" d="M870.3907,-347.3754C886.6941,-339.0617 909.7008,-326.0367 927.166,-311 972.5658,-271.913 987.9889,-257.2061 1002.166,-199 1011.346,-161.3102 1005.7486,-149.3202 995.166,-112 992.5098,-102.6329 988.2137,-92.7484 984.1971,-84.5529"/>
<polygon fill="#191970" stroke="#191970" points="987.2499,-82.8359 979.5653,-75.5421 981.0242,-86.0361 987.2499,-82.8359"/>
</g>
<!-- Node30&#45;&gt;Node7 -->
<g id="edge57" class="edge">
<title>Node30&#45;&gt;Node7</title>
<path fill="none" stroke="#191970" d="M880.1013,-347.3655C901.4528,-339.6076 930.1606,-327.3095 952.166,-311 1032.1449,-251.7231 1073.3649,-132.1792 1086.9642,-85.3965"/>
<polygon fill="#191970" stroke="#191970" points="1090.3766,-86.1901 1089.7081,-75.6164 1083.6369,-84.2992 1090.3766,-86.1901"/>
</g>
<!-- Node30&#45;&gt;Node8 -->
<g id="edge58" class="edge">
<title>Node30&#45;&gt;Node8</title>
<path fill="none" stroke="#191970" d="M862.298,-347.4578C904.2236,-313.3474 1037.1075,-195.0678 975.166,-112 962.2678,-94.7027 906.7625,-80.7461 868.2949,-72.9125"/>
<polygon fill="#191970" stroke="#191970" points="868.9222,-69.4688 858.433,-70.9611 867.5634,-76.3357 868.9222,-69.4688"/>
</g>
<!-- Node30&#45;&gt;Node14 -->
<g id="edge53" class="edge">
<title>Node30&#45;&gt;Node14</title>
<path fill="none" stroke="#191970" d="M776.3934,-347.4369C698.3968,-337.3262 575.8608,-321.4419 496.2638,-311.1238"/>
<polygon fill="#191970" stroke="#191970" points="496.6602,-307.646 486.2932,-309.8313 495.7603,-314.5879 496.6602,-307.646"/>
</g>
<!-- Node30&#45;&gt;Node25 -->
<g id="edge54" class="edge">
<title>Node30&#45;&gt;Node25</title>
<path fill="none" stroke="#191970" d="M829.3627,-347.4509C786.1454,-327.6135 686.5026,-281.8758 636.2725,-258.8194"/>
<polygon fill="#191970" stroke="#191970" points="637.465,-255.5157 626.9166,-254.5249 634.5448,-261.8775 637.465,-255.5157"/>
</g>
<!-- Node30&#45;&gt;Node26 -->
<g id="edge56" class="edge">
<title>Node30&#45;&gt;Node26</title>
<path fill="none" stroke="#191970" d="M852.1528,-347.4248C857.8434,-319.999 874.2907,-240.732 882.0376,-203.3964"/>
<polygon fill="#191970" stroke="#191970" points="885.5362,-203.7621 884.1409,-193.2595 878.6822,-202.3399 885.5362,-203.7621"/>
</g>
<!-- Node31&#45;&gt;Node29 -->
<g id="edge60" class="edge">
<title>Node31&#45;&gt;Node29</title>
<path fill="none" stroke="#191970" d="M544.541,-470.3906C571.987,-461.4123 613.6795,-447.7735 647.4336,-436.7316"/>
<polygon fill="#191970" stroke="#191970" points="648.7598,-439.9803 657.176,-433.5446 646.5834,-433.3273 648.7598,-439.9803"/>
</g>
<!-- Node33 -->
<g id="node34" class="node">
<title>Node33</title>
<g id="a_node34"><a xlink:href="SpatialForceVector_8h.html" target="_top" xlink:title="iDynTree/Core/SpatialForce\lVector.h">
<polygon fill="none" stroke="#000000" points="864.166,-403.5 864.166,-433.5 1012.166,-433.5 1012.166,-403.5 864.166,-403.5"/>
<text text-anchor="start" x="872.166" y="-421.5" font-family="FreeSans.ttf" font-size="10.00" fill="#000000">iDynTree/Core/SpatialForce</text>
<text text-anchor="middle" x="938.166" y="-410.5" font-family="FreeSans.ttf" font-size="10.00" fill="#000000">Vector.h</text>
</a>
</g>
</g>
<!-- Node32&#45;&gt;Node33 -->
<g id="edge62" class="edge">
<title>Node32&#45;&gt;Node33</title>
<path fill="none" stroke="#191970" d="M865.6035,-470.3906C877.1348,-462.1444 894.1635,-449.9669 908.8271,-439.4807"/>
<polygon fill="#191970" stroke="#191970" points="911.0298,-442.2084 917.128,-433.5446 906.9579,-436.5145 911.0298,-442.2084"/>
</g>
<!-- Node33&#45;&gt;Node16 -->
<g id="edge63" class="edge">
<title>Node33&#45;&gt;Node16</title>
<path fill="none" stroke="#191970" d="M946.8708,-403.3166C969.252,-362.0741 1023.8072,-245.8533 976.166,-168 966.825,-152.7354 950.6432,-142.3326 934.5534,-135.3404"/>
<polygon fill="#191970" stroke="#191970" points="935.7289,-132.0414 925.143,-131.6067 933.1472,-138.548 935.7289,-132.0414"/>
</g>
<!-- Node33&#45;&gt;Node26 -->
<g id="edge64" class="edge">
<title>Node33&#45;&gt;Node26</title>
<path fill="none" stroke="#191970" d="M939.8639,-403.3289C941.1429,-388.7821 942.2083,-366.2517 939.166,-347 930.6246,-292.9513 907.1246,-232.4403 894.4792,-202.4586"/>
<polygon fill="#191970" stroke="#191970" points="897.6609,-200.9973 890.5014,-193.1875 891.228,-203.7574 897.6609,-200.9973"/>
</g>
<!-- Node33&#45;&gt;Node30 -->
<g id="edge65" class="edge">
<title>Node33&#45;&gt;Node30</title>
<path fill="none" stroke="#191970" d="M916.4132,-403.2977C902.9692,-393.9022 885.7648,-381.8787 872.2582,-372.4395"/>
<polygon fill="#191970" stroke="#191970" points="874.1947,-369.5228 863.9931,-366.6633 870.1849,-375.2605 874.1947,-369.5228"/>
</g>
<!-- Node34&#45;&gt;Node1 -->
<g id="edge67" class="edge">
<title>Node34&#45;&gt;Node1</title>
<path fill="none" stroke="#191970" d="M207.7049,-174.3305C224.8627,-172.1776 243.1661,-169.9456 260.166,-168 383.3084,-153.9067 525.77,-139.589 616.1417,-130.7536"/>
<polygon fill="#191970" stroke="#191970" points="616.7415,-134.2118 626.3542,-129.7568 616.0614,-127.2449 616.7415,-134.2118"/>
</g>
<!-- Node34&#45;&gt;Node6 -->
<g id="edge68" class="edge">
<title>Node34&#45;&gt;Node6</title>
<path fill="none" stroke="#191970" d="M150.9705,-168.2271C166.6359,-151.8448 193.7256,-126.266 222.166,-112 275.9398,-85.0265 346.0051,-73.5298 386.1471,-68.8917"/>
<polygon fill="#191970" stroke="#191970" points="386.5942,-72.3639 396.1587,-67.8065 385.8397,-65.4046 386.5942,-72.3639"/>
</g>
<!-- Node36&#45;&gt;Node16 -->
<g id="edge72" class="edge">
<title>Node36&#45;&gt;Node16</title>
<path fill="none" stroke="#191970" d="M1015.9422,-470.2866C1023.585,-449.7246 1040.166,-400.1439 1040.166,-357 1040.166,-357 1040.166,-357 1040.166,-301 1040.166,-238.8763 1039.2984,-213.6532 997.166,-168 982.5765,-152.1914 961.7289,-141.6546 942.0325,-134.7077"/>
<polygon fill="#191970" stroke="#191970" points="943.0811,-131.3682 932.4884,-131.5784 940.9002,-138.0198 943.0811,-131.3682"/>
</g>
<!-- Node36&#45;&gt;Node33 -->
<g id="edge76" class="edge">
<title>Node36&#45;&gt;Node33</title>
<path fill="none" stroke="#191970" d="M1000.6035,-470.3906C990.8667,-462.2986 976.5746,-450.4207 964.1207,-440.0705"/>
<polygon fill="#191970" stroke="#191970" points="966.1962,-437.2445 956.2684,-433.5446 961.7221,-442.628 966.1962,-437.2445"/>
</g>
<!-- Node36&#45;&gt;Node35 -->
<g id="edge77" class="edge">
<title>Node36&#45;&gt;Node35</title>
<path fill="none" stroke="#191970" d="M973.5528,-470.4656C941.4348,-462.1137 894.7424,-448.99 855.166,-434 853.5789,-433.3989 851.9622,-432.7536 850.3396,-432.0801"/>
<polygon fill="#191970" stroke="#191970" points="851.7077,-428.8582 841.1457,-428.0237 848.882,-435.2626 851.7077,-428.8582"/>
</g>
<!-- Node37 -->
<g id="node38" class="node">
<title>Node37</title>
<g id="a_node38"><a xlink:href="VectorDynSize_8h.html" target="_top" xlink:title="iDynTree/Core/VectorDynSize.h">
<polygon fill="none" stroke="#000000" points="1251.666,-112.5 1251.666,-131.5 1418.666,-131.5 1418.666,-112.5 1251.666,-112.5"/>
<text text-anchor="middle" x="1335.166" y="-119.5" font-family="FreeSans.ttf" font-size="10.00" fill="#000000">iDynTree/Core/VectorDynSize.h</text>
</a>
</g>
</g>
<!-- Node36&#45;&gt;Node37 -->
<g id="edge73" class="edge">
<title>Node36&#45;&gt;Node37</title>
<path fill="none" stroke="#191970" d="M1020.8054,-470.4244C1064.5876,-421.898 1262.1201,-202.9611 1319.4947,-139.3694"/>
<polygon fill="#191970" stroke="#191970" points="1322.2483,-141.5423 1326.3485,-131.773 1317.051,-136.8531 1322.2483,-141.5423"/>
</g>
<!-- Node37&#45;&gt;Node6 -->
<g id="edge75" class="edge">
<title>Node37&#45;&gt;Node6</title>
<path fill="none" stroke="#191970" d="M1251.3574,-116.8819C1056.3327,-104.972 578.932,-75.8178 450.4534,-67.9718"/>
<polygon fill="#191970" stroke="#191970" points="450.6539,-64.4776 440.4591,-67.3614 450.2272,-71.4646 450.6539,-64.4776"/>
</g>
<!-- Node37&#45;&gt;Node17 -->
<g id="edge74" class="edge">
<title>Node37&#45;&gt;Node17</title>
<path fill="none" stroke="#191970" d="M1312.3025,-112.3733C1290.761,-103.3032 1258.2822,-89.6279 1234.1704,-79.4755"/>
<polygon fill="#191970" stroke="#191970" points="1235.3057,-76.156 1224.7311,-75.5011 1232.5893,-82.6075 1235.3057,-76.156"/>
</g>
<!-- Node38&#45;&gt;Node1 -->
<g id="edge79" class="edge">
<title>Node38&#45;&gt;Node1</title>
<path fill="none" stroke="#191970" d="M825.1702,-643.234C941.9088,-628.6734 1116.166,-596.762 1116.166,-536 1116.166,-536 1116.166,-536 1116.166,-301 1116.166,-215.1762 1052.8939,-206.4519 976.166,-168 959.2254,-159.5103 858.4112,-143.6678 785.1649,-132.9774"/>
<polygon fill="#191970" stroke="#191970" points="785.4234,-129.4783 775.0241,-131.5045 784.4171,-136.4056 785.4234,-129.4783"/>
</g>
<!-- Node38&#45;&gt;Node10 -->
<g id="edge80" class="edge">
<title>Node38&#45;&gt;Node10</title>
<path fill="none" stroke="#191970" d="M690.1198,-638.4554C668.9331,-628.509 641.3632,-615.5659 620.7072,-605.8686"/>
<polygon fill="#191970" stroke="#191970" points="622.0058,-602.6118 611.4663,-601.5303 619.031,-608.9483 622.0058,-602.6118"/>
</g>
</g>
</svg>
