<?xml version="1.0" encoding="UTF-8" standalone="no"?>
<!DOCTYPE svg PUBLIC "-//W3C//DTD SVG 1.1//EN"
 "http://www.w3.org/Graphics/SVG/1.1/DTD/svg11.dtd">
<!-- Generated by graphviz version 2.40.1 (20161225.0304)
 -->
<!-- Title: DynamicsUtils.h Pages: 1 -->
<svg width="1080pt" height="621pt"
 viewBox="0.00 0.00 1079.50 621.00" xmlns="http://www.w3.org/2000/svg" xmlns:xlink="http://www.w3.org/1999/xlink">
<g id="graph0" class="graph" transform="scale(1 1) rotate(0) translate(4 617)">
<title>DynamicsUtils.h</title>
<!-- Node0 -->
<g id="node1" class="node">
<title>Node0</title>
<polygon fill="#bfbfbf" stroke="#000000" points="447.5,-593.5 447.5,-612.5 544.5,-612.5 544.5,-593.5 447.5,-593.5"/>
<text text-anchor="middle" x="496" y="-600.5" font-family="FreeSans.ttf" font-size="10.00" fill="#000000">DynamicsUtils.h</text>
</g>
<!-- Node1 -->
<g id="node2" class="node">
<title>Node1</title>
<g id="a_node2"><a xlink:href="SpatialMotionVector_8h.html" target="_top" xlink:title="iDynTree/Core/SpatialMotion\lVector.h">
<polygon fill="none" stroke="#000000" points="217.5,-403.5 217.5,-433.5 372.5,-433.5 372.5,-403.5 217.5,-403.5"/>
<text text-anchor="start" x="225.5" y="-421.5" font-family="FreeSans.ttf" font-size="10.00" fill="#000000">iDynTree/Core/SpatialMotion</text>
<text text-anchor="middle" x="295" y="-410.5" font-family="FreeSans.ttf" font-size="10.00" fill="#000000">Vector.h</text>
</a>
</g>
</g>
<!-- Node0&#45;&gt;Node1 -->
<g id="edge1" class="edge">
<title>Node0&#45;&gt;Node1</title>
<path fill="none" stroke="#191970" d="M447.3381,-594.8949C365.0302,-580.0845 204.0312,-545.9864 171,-501 150.05,-472.4673 186.9664,-450.8585 225.851,-436.9278"/>
<polygon fill="#191970" stroke="#191970" points="227.4112,-440.0937 235.7453,-433.552 225.1508,-433.4687 227.4112,-440.0937"/>
</g>
<!-- Node25 -->
<g id="node26" class="node">
<title>Node25</title>
<g id="a_node26"><a xlink:href="SpatialForceVector_8h.html" target="_top" xlink:title="iDynTree/Core/SpatialForce\lVector.h">
<polygon fill="none" stroke="#000000" points="565,-403.5 565,-433.5 713,-433.5 713,-403.5 565,-403.5"/>
<text text-anchor="start" x="573" y="-421.5" font-family="FreeSans.ttf" font-size="10.00" fill="#000000">iDynTree/Core/SpatialForce</text>
<text text-anchor="middle" x="639" y="-410.5" font-family="FreeSans.ttf" font-size="10.00" fill="#000000">Vector.h</text>
</a>
</g>
</g>
<!-- Node0&#45;&gt;Node25 -->
<g id="edge45" class="edge">
<title>Node0&#45;&gt;Node25</title>
<path fill="none" stroke="#191970" d="M494.4245,-593.4212C491.0903,-569.7328 485.8443,-507.6036 515,-470 526.2683,-455.4667 542.3674,-445 559.2498,-437.4737"/>
<polygon fill="#191970" stroke="#191970" points="560.7706,-440.6327 568.6838,-433.5878 558.1045,-434.1602 560.7706,-440.6327"/>
</g>
<!-- Node26 -->
<g id="node27" class="node">
<title>Node26</title>
<g id="a_node27"><a xlink:href="SpatialInertia_8h.html" target="_top" xlink:title="iDynTree/Core/SpatialInertia.h">
<polygon fill="none" stroke="#000000" points="524,-537.5 524,-556.5 686,-556.5 686,-537.5 524,-537.5"/>
<text text-anchor="middle" x="605" y="-544.5" font-family="FreeSans.ttf" font-size="10.00" fill="#000000">iDynTree/Core/SpatialInertia.h</text>
</a>
</g>
</g>
<!-- Node0&#45;&gt;Node26 -->
<g id="edge49" class="edge">
<title>Node0&#45;&gt;Node26</title>
<path fill="none" stroke="#191970" d="M514.9864,-593.2455C532.1792,-584.4125 557.7238,-571.2887 577.2132,-561.2758"/>
<polygon fill="#191970" stroke="#191970" points="578.9359,-564.3257 586.2312,-556.6427 575.737,-558.0993 578.9359,-564.3257"/>
</g>
<!-- Node2 -->
<g id="node3" class="node">
<title>Node2</title>
<g id="a_node3"><a xlink:href="VectorFixSize_8h.html" target="_top" xlink:title="iDynTree/Core/VectorFixSize.h">
<polygon fill="none" stroke="#000000" points="429.5,-112.5 429.5,-131.5 590.5,-131.5 590.5,-112.5 429.5,-112.5"/>
<text text-anchor="middle" x="510" y="-119.5" font-family="FreeSans.ttf" font-size="10.00" fill="#000000">iDynTree/Core/VectorFixSize.h</text>
</a>
</g>
</g>
<!-- Node1&#45;&gt;Node2 -->
<g id="edge2" class="edge">
<title>Node1&#45;&gt;Node2</title>
<path fill="none" stroke="#191970" d="M285.8936,-403.28C272.7444,-379.819 250,-333.0201 250,-290 250,-290 250,-290 250,-234 250,-189.6089 379.4552,-152.0993 455.6723,-133.8622"/>
<polygon fill="#191970" stroke="#191970" points="456.6689,-137.2233 465.5998,-131.5235 455.0637,-130.4099 456.6689,-137.2233"/>
</g>
<!-- Node17 -->
<g id="node18" class="node">
<title>Node17</title>
<g id="a_node18"><a xlink:href="GeomVector3_8h.html" target="_top" xlink:title="iDynTree/Core/GeomVector3.h">
<polygon fill="none" stroke="#000000" points="568.5,-168.5 568.5,-187.5 731.5,-187.5 731.5,-168.5 568.5,-168.5"/>
<text text-anchor="middle" x="650" y="-175.5" font-family="FreeSans.ttf" font-size="10.00" fill="#000000">iDynTree/Core/GeomVector3.h</text>
</a>
</g>
</g>
<!-- Node1&#45;&gt;Node17 -->
<g id="edge19" class="edge">
<title>Node1&#45;&gt;Node17</title>
<path fill="none" stroke="#191970" d="M370.1517,-403.4275C399.8245,-395.4203 433.3592,-383.6859 461,-367 539.0069,-319.9098 608.5417,-233.8637 636.707,-196.327"/>
<polygon fill="#191970" stroke="#191970" points="639.8212,-198.0026 642.9564,-187.8822 634.1944,-193.8386 639.8212,-198.0026"/>
</g>
<!-- Node18 -->
<g id="node19" class="node">
<title>Node18</title>
<g id="a_node19"><a xlink:href="SpatialVector_8h.html" target="_top" xlink:title="iDynTree/Core/SpatialVector.h">
<polygon fill="none" stroke="#000000" points="291.5,-342 291.5,-361 452.5,-361 452.5,-342 291.5,-342"/>
<text text-anchor="middle" x="372" y="-349" font-family="FreeSans.ttf" font-size="10.00" fill="#000000">iDynTree/Core/SpatialVector.h</text>
</a>
</g>
</g>
<!-- Node1&#45;&gt;Node18 -->
<g id="edge21" class="edge">
<title>Node1&#45;&gt;Node18</title>
<path fill="none" stroke="#191970" d="M312.4725,-403.2967C324.7024,-392.6551 341.0159,-378.4602 353.4721,-367.6217"/>
<polygon fill="#191970" stroke="#191970" points="355.7724,-370.2596 361.0189,-361.055 351.1775,-364.9788 355.7724,-370.2596"/>
</g>
<!-- Node3 -->
<g id="node4" class="node">
<title>Node3</title>
<g id="a_node4"><a xlink:href="Utils_8h.html" target="_top" xlink:title="iDynTree/Core/Utils.h">
<polygon fill="none" stroke="#000000" points="312.5,-56.5 312.5,-75.5 431.5,-75.5 431.5,-56.5 312.5,-56.5"/>
<text text-anchor="middle" x="372" y="-63.5" font-family="FreeSans.ttf" font-size="10.00" fill="#000000">iDynTree/Core/Utils.h</text>
</a>
</g>
</g>
<!-- Node2&#45;&gt;Node3 -->
<g id="edge3" class="edge">
<title>Node2&#45;&gt;Node3</title>
<path fill="none" stroke="#191970" d="M486.277,-112.3733C463.8263,-103.2629 429.9261,-89.5062 404.8745,-79.3404"/>
<polygon fill="#191970" stroke="#191970" points="405.9957,-76.0182 395.4135,-75.5011 403.3635,-82.5045 405.9957,-76.0182"/>
</g>
<!-- Node5 -->
<g id="node6" class="node">
<title>Node5</title>
<g id="a_node6"><a xlink:href="Span_8h.html" target="_top" xlink:title="iDynTree/Core/Span.h">
<polygon fill="none" stroke="#000000" points="449.5,-56.5 449.5,-75.5 570.5,-75.5 570.5,-56.5 449.5,-56.5"/>
<text text-anchor="middle" x="510" y="-63.5" font-family="FreeSans.ttf" font-size="10.00" fill="#000000">iDynTree/Core/Span.h</text>
</a>
</g>
</g>
<!-- Node2&#45;&gt;Node5 -->
<g id="edge5" class="edge">
<title>Node2&#45;&gt;Node5</title>
<path fill="none" stroke="#191970" d="M510,-112.2455C510,-104.9382 510,-94.6944 510,-85.7046"/>
<polygon fill="#191970" stroke="#191970" points="513.5001,-85.6426 510,-75.6427 506.5001,-85.6427 513.5001,-85.6426"/>
</g>
<!-- Node6 -->
<g id="node7" class="node">
<title>Node6</title>
<polygon fill="none" stroke="#bfbfbf" points="718,-.5 718,-19.5 770,-19.5 770,-.5 718,-.5"/>
<text text-anchor="middle" x="744" y="-7.5" font-family="FreeSans.ttf" font-size="10.00" fill="#000000">cassert</text>
</g>
<!-- Node2&#45;&gt;Node6 -->
<g id="edge17" class="edge">
<title>Node2&#45;&gt;Node6</title>
<path fill="none" stroke="#191970" d="M523.8185,-112.3157C543.8849,-98.5448 582.5703,-73.0838 618,-56 647.4434,-41.8027 682.4797,-29.3449 708.1236,-20.9873"/>
<polygon fill="#191970" stroke="#191970" points="709.3516,-24.2691 717.8042,-17.8813 707.213,-17.6037 709.3516,-24.2691"/>
</g>
<!-- Node14 -->
<g id="node15" class="node">
<title>Node14</title>
<polygon fill="none" stroke="#bfbfbf" points="250,-56.5 250,-75.5 294,-75.5 294,-56.5 250,-56.5"/>
<text text-anchor="middle" x="272" y="-63.5" font-family="FreeSans.ttf" font-size="10.00" fill="#000000">string</text>
</g>
<!-- Node2&#45;&gt;Node14 -->
<g id="edge15" class="edge">
<title>Node2&#45;&gt;Node14</title>
<path fill="none" stroke="#191970" d="M461.1694,-112.49C421.2457,-104.4127 363.1665,-91.9766 304.1404,-76.1375"/>
<polygon fill="#191970" stroke="#191970" points="304.8442,-72.7019 294.2766,-73.4607 303.0108,-79.4576 304.8442,-72.7019"/>
</g>
<!-- Node15 -->
<g id="node16" class="node">
<title>Node15</title>
<polygon fill="none" stroke="#bfbfbf" points="733,-56.5 733,-75.5 789,-75.5 789,-56.5 733,-56.5"/>
<text text-anchor="middle" x="761" y="-63.5" font-family="FreeSans.ttf" font-size="10.00" fill="#000000">sstream</text>
</g>
<!-- Node2&#45;&gt;Node15 -->
<g id="edge16" class="edge">
<title>Node2&#45;&gt;Node15</title>
<path fill="none" stroke="#191970" d="M552.8632,-112.4369C600.6363,-101.7784 677.1681,-84.7035 722.9139,-74.4973"/>
<polygon fill="#191970" stroke="#191970" points="723.7413,-77.8988 732.7392,-72.3052 722.217,-71.0668 723.7413,-77.8988"/>
</g>
<!-- Node16 -->
<g id="node17" class="node">
<title>Node16</title>
<polygon fill="none" stroke="#bfbfbf" points="627,-56.5 627,-75.5 677,-75.5 677,-56.5 627,-56.5"/>
<text text-anchor="middle" x="652" y="-63.5" font-family="FreeSans.ttf" font-size="10.00" fill="#000000">cstring</text>
</g>
<!-- Node2&#45;&gt;Node16 -->
<g id="edge18" class="edge">
<title>Node2&#45;&gt;Node16</title>
<path fill="none" stroke="#191970" d="M534.4107,-112.3733C557.6142,-103.2226 592.7038,-89.3844 618.5142,-79.2057"/>
<polygon fill="#191970" stroke="#191970" points="619.8892,-82.4258 627.9079,-75.5011 617.3211,-75.9139 619.8892,-82.4258"/>
</g>
<!-- Node4 -->
<g id="node5" class="node">
<title>Node4</title>
<polygon fill="none" stroke="#bfbfbf" points="137.5,-.5 137.5,-19.5 190.5,-19.5 190.5,-.5 137.5,-.5"/>
<text text-anchor="middle" x="164" y="-7.5" font-family="FreeSans.ttf" font-size="10.00" fill="#000000">cstddef</text>
</g>
<!-- Node3&#45;&gt;Node4 -->
<g id="edge4" class="edge">
<title>Node3&#45;&gt;Node4</title>
<path fill="none" stroke="#191970" d="M335.1614,-56.4148C302.1557,-47.7801 252.1747,-34.5901 200.4195,-20.3623"/>
<polygon fill="#191970" stroke="#191970" points="201.3093,-16.9771 190.7388,-17.6944 199.4495,-23.7255 201.3093,-16.9771"/>
</g>
<!-- Node5&#45;&gt;Node4 -->
<g id="edge9" class="edge">
<title>Node5&#45;&gt;Node4</title>
<path fill="none" stroke="#191970" d="M449.3894,-57.244C371.2096,-45.9227 241.1677,-26.9901 200.7342,-19.9223"/>
<polygon fill="#191970" stroke="#191970" points="201.1393,-16.4367 190.6616,-18.0084 199.8325,-23.3137 201.1393,-16.4367"/>
</g>
<!-- Node5&#45;&gt;Node6 -->
<g id="edge6" class="edge">
<title>Node5&#45;&gt;Node6</title>
<path fill="none" stroke="#191970" d="M554.4194,-56.4146C592.7209,-47.9961 649.7224,-35.104 707.9356,-20.1893"/>
<polygon fill="#191970" stroke="#191970" points="708.8569,-23.5663 717.6661,-17.68 707.1089,-16.7881 708.8569,-23.5663"/>
</g>
<!-- Node7 -->
<g id="node8" class="node">
<title>Node7</title>
<polygon fill="none" stroke="#bfbfbf" points="442,-.5 442,-19.5 506,-19.5 506,-.5 442,-.5"/>
<text text-anchor="middle" x="474" y="-7.5" font-family="FreeSans.ttf" font-size="10.00" fill="#000000">algorithm</text>
</g>
<!-- Node5&#45;&gt;Node7 -->
<g id="edge7" class="edge">
<title>Node5&#45;&gt;Node7</title>
<path fill="none" stroke="#191970" d="M503.7293,-56.2455C498.7736,-48.5367 491.717,-37.5598 485.7224,-28.2348"/>
<polygon fill="#191970" stroke="#191970" points="488.5506,-26.1618 480.1989,-19.6427 482.6624,-29.9471 488.5506,-26.1618"/>
</g>
<!-- Node8 -->
<g id="node9" class="node">
<title>Node8</title>
<polygon fill="none" stroke="#bfbfbf" points="524,-.5 524,-19.5 566,-19.5 566,-.5 524,-.5"/>
<text text-anchor="middle" x="545" y="-7.5" font-family="FreeSans.ttf" font-size="10.00" fill="#000000">array</text>
</g>
<!-- Node5&#45;&gt;Node8 -->
<g id="edge8" class="edge">
<title>Node5&#45;&gt;Node8</title>
<path fill="none" stroke="#191970" d="M516.0965,-56.2455C520.9145,-48.5367 527.7751,-37.5598 533.6032,-28.2348"/>
<polygon fill="#191970" stroke="#191970" points="536.6413,-29.9777 538.9733,-19.6427 530.7053,-26.2677 536.6413,-29.9777"/>
</g>
<!-- Node9 -->
<g id="node10" class="node">
<title>Node9</title>
<polygon fill="none" stroke="#bfbfbf" points="584.5,-.5 584.5,-19.5 637.5,-19.5 637.5,-.5 584.5,-.5"/>
<text text-anchor="middle" x="611" y="-7.5" font-family="FreeSans.ttf" font-size="10.00" fill="#000000">iterator</text>
</g>
<!-- Node5&#45;&gt;Node9 -->
<g id="edge10" class="edge">
<title>Node5&#45;&gt;Node9</title>
<path fill="none" stroke="#191970" d="M527.5929,-56.2455C543.379,-47.4928 566.7639,-34.527 584.7587,-24.5496"/>
<polygon fill="#191970" stroke="#191970" points="586.5603,-27.5528 593.6087,-19.6427 583.1659,-21.4308 586.5603,-27.5528"/>
</g>
<!-- Node10 -->
<g id="node11" class="node">
<title>Node10</title>
<polygon fill="none" stroke="#bfbfbf" points="656,-.5 656,-19.5 700,-19.5 700,-.5 656,-.5"/>
<text text-anchor="middle" x="678" y="-7.5" font-family="FreeSans.ttf" font-size="10.00" fill="#000000">limits</text>
</g>
<!-- Node5&#45;&gt;Node10 -->
<g id="edge11" class="edge">
<title>Node5&#45;&gt;Node10</title>
<path fill="none" stroke="#191970" d="M538.8802,-56.3733C568.718,-46.4273 615.1685,-30.9438 646.0791,-20.6403"/>
<polygon fill="#191970" stroke="#191970" points="647.5396,-23.8429 655.9196,-17.3601 645.3259,-17.2021 647.5396,-23.8429"/>
</g>
<!-- Node11 -->
<g id="node12" class="node">
<title>Node11</title>
<polygon fill="none" stroke="#bfbfbf" points="208.5,-.5 208.5,-19.5 273.5,-19.5 273.5,-.5 208.5,-.5"/>
<text text-anchor="middle" x="241" y="-7.5" font-family="FreeSans.ttf" font-size="10.00" fill="#000000">stdexcept</text>
</g>
<!-- Node5&#45;&gt;Node11 -->
<g id="edge12" class="edge">
<title>Node5&#45;&gt;Node11</title>
<path fill="none" stroke="#191970" d="M459.6152,-56.4372C415.5934,-47.9461 349.7173,-34.9137 283.7957,-20.3433"/>
<polygon fill="#191970" stroke="#191970" points="284.1672,-16.8405 273.6461,-18.0876 282.6486,-23.6738 284.1672,-16.8405"/>
</g>
<!-- Node12 -->
<g id="node13" class="node">
<title>Node12</title>
<polygon fill="none" stroke="#bfbfbf" points="291.5,-.5 291.5,-19.5 360.5,-19.5 360.5,-.5 291.5,-.5"/>
<text text-anchor="middle" x="326" y="-7.5" font-family="FreeSans.ttf" font-size="10.00" fill="#000000">type_traits</text>
</g>
<!-- Node5&#45;&gt;Node12 -->
<g id="edge13" class="edge">
<title>Node5&#45;&gt;Node12</title>
<path fill="none" stroke="#191970" d="M478.3693,-56.3733C447.6404,-47.021 400.824,-32.7725 367.1978,-22.5385"/>
<polygon fill="#191970" stroke="#191970" points="367.8038,-19.0644 357.218,-19.5011 365.7656,-25.7612 367.8038,-19.0644"/>
</g>
<!-- Node13 -->
<g id="node14" class="node">
<title>Node13</title>
<polygon fill="none" stroke="#bfbfbf" points="378.5,-.5 378.5,-19.5 423.5,-19.5 423.5,-.5 378.5,-.5"/>
<text text-anchor="middle" x="401" y="-7.5" font-family="FreeSans.ttf" font-size="10.00" fill="#000000">utility</text>
</g>
<!-- Node5&#45;&gt;Node13 -->
<g id="edge14" class="edge">
<title>Node5&#45;&gt;Node13</title>
<path fill="none" stroke="#191970" d="M491.0136,-56.2455C473.8208,-47.4125 448.2762,-34.2887 428.7868,-24.2758"/>
<polygon fill="#191970" stroke="#191970" points="430.263,-21.0993 419.7688,-19.6427 427.0641,-27.3257 430.263,-21.0993"/>
</g>
<!-- Node17&#45;&gt;Node2 -->
<g id="edge20" class="edge">
<title>Node17&#45;&gt;Node2</title>
<path fill="none" stroke="#191970" d="M625.9331,-168.3733C603.1572,-159.2629 568.7656,-145.5062 543.351,-135.3404"/>
<polygon fill="#191970" stroke="#191970" points="544.3375,-131.9654 533.7528,-131.5011 541.7377,-138.4648 544.3375,-131.9654"/>
</g>
<!-- Node18&#45;&gt;Node3 -->
<g id="edge41" class="edge">
<title>Node18&#45;&gt;Node3</title>
<path fill="none" stroke="#191970" d="M366.8966,-341.7749C357.5367,-323.3269 337.9483,-281.7164 331,-244 320.2165,-185.4656 347.283,-117.083 362.4961,-84.7558"/>
<polygon fill="#191970" stroke="#191970" points="365.73,-86.1088 366.9559,-75.5851 359.4349,-83.0474 365.73,-86.1088"/>
</g>
<!-- Node18&#45;&gt;Node15 -->
<g id="edge44" class="edge">
<title>Node18&#45;&gt;Node15</title>
<path fill="none" stroke="#191970" d="M410.8561,-341.9739C482.6212,-322.8343 638.0128,-274.0159 741,-188 764.0853,-168.7189 770.1659,-160.7515 779,-132 783.8367,-116.2583 778.1536,-98.2072 771.9274,-84.9663"/>
<polygon fill="#191970" stroke="#191970" points="774.9352,-83.1635 767.2255,-75.8964 768.7207,-86.3852 774.9352,-83.1635"/>
</g>
<!-- Node18&#45;&gt;Node17 -->
<g id="edge42" class="edge">
<title>Node18&#45;&gt;Node17</title>
<path fill="none" stroke="#191970" d="M387.3425,-341.9248C433.3837,-313.1904 570.6059,-227.5499 626.2076,-192.8489"/>
<polygon fill="#191970" stroke="#191970" points="628.0746,-195.8094 634.7049,-187.5457 624.3684,-189.871 628.0746,-195.8094"/>
</g>
<!-- Node19 -->
<g id="node20" class="node">
<title>Node19</title>
<g id="a_node20"><a xlink:href="Position_8h.html" target="_top" xlink:title="Position.h">
<polygon fill="none" stroke="#000000" points="134.5,-280.5 134.5,-299.5 199.5,-299.5 199.5,-280.5 134.5,-280.5"/>
<text text-anchor="middle" x="167" y="-287.5" font-family="FreeSans.ttf" font-size="10.00" fill="#000000">Position.h</text>
</a>
</g>
</g>
<!-- Node18&#45;&gt;Node19 -->
<g id="edge22" class="edge">
<title>Node18&#45;&gt;Node19</title>
<path fill="none" stroke="#191970" d="M339.9688,-341.8906C304.6154,-331.2846 247.5843,-314.1753 208.7522,-302.5257"/>
<polygon fill="#191970" stroke="#191970" points="209.3903,-299.0631 198.8063,-299.5419 207.3788,-305.7678 209.3903,-299.0631"/>
</g>
<!-- Node21 -->
<g id="node22" class="node">
<title>Node21</title>
<g id="a_node22"><a xlink:href="Rotation_8h.html" target="_top" xlink:title="iDynTree/Core/Rotation.h">
<polygon fill="none" stroke="#000000" points="340.5,-224.5 340.5,-243.5 477.5,-243.5 477.5,-224.5 340.5,-224.5"/>
<text text-anchor="middle" x="409" y="-231.5" font-family="FreeSans.ttf" font-size="10.00" fill="#000000">iDynTree/Core/Rotation.h</text>
</a>
</g>
</g>
<!-- Node18&#45;&gt;Node21 -->
<g id="edge40" class="edge">
<title>Node18&#45;&gt;Node21</title>
<path fill="none" stroke="#191970" d="M375.0279,-341.8845C381.0988,-322.6053 394.8625,-278.8963 402.8835,-253.4241"/>
<polygon fill="#191970" stroke="#191970" points="406.2651,-254.3379 405.9303,-243.7484 399.5883,-252.2354 406.2651,-254.3379"/>
</g>
<!-- Node24 -->
<g id="node25" class="node">
<title>Node24</title>
<polygon fill="none" stroke="#bfbfbf" points="71,-56.5 71,-75.5 131,-75.5 131,-56.5 71,-56.5"/>
<text text-anchor="middle" x="101" y="-63.5" font-family="FreeSans.ttf" font-size="10.00" fill="#000000">iostream</text>
</g>
<!-- Node18&#45;&gt;Node24 -->
<g id="edge43" class="edge">
<title>Node18&#45;&gt;Node24</title>
<path fill="none" stroke="#191970" d="M291.2815,-342.4562C181.8734,-327.9114 0,-294.6169 0,-234 0,-234 0,-234 0,-178 0,-133.8652 43.7888,-99.2933 73.7012,-80.8258"/>
<polygon fill="#191970" stroke="#191970" points="75.6617,-83.7323 82.475,-75.6188 72.0892,-77.7126 75.6617,-83.7323"/>
</g>
<!-- Node19&#45;&gt;Node14 -->
<g id="edge39" class="edge">
<title>Node19&#45;&gt;Node14</title>
<path fill="none" stroke="#191970" d="M145.8719,-280.377C106.2519,-260.9485 27.352,-214.8808 57,-168 97.5281,-103.915 190.4513,-79.2922 239.812,-70.4872"/>
<polygon fill="#191970" stroke="#191970" points="240.6499,-73.8958 249.9361,-68.7951 239.4959,-66.9915 240.6499,-73.8958"/>
</g>
<!-- Node20 -->
<g id="node21" class="node">
<title>Node20</title>
<g id="a_node21"><a xlink:href="PositionRaw_8h.html" target="_top" xlink:title="iDynTree/Core/PositionRaw.h">
<polygon fill="none" stroke="#000000" points="66,-168.5 66,-187.5 222,-187.5 222,-168.5 66,-168.5"/>
<text text-anchor="middle" x="144" y="-175.5" font-family="FreeSans.ttf" font-size="10.00" fill="#000000">iDynTree/Core/PositionRaw.h</text>
</a>
</g>
</g>
<!-- Node19&#45;&gt;Node20 -->
<g id="edge23" class="edge">
<title>Node19&#45;&gt;Node20</title>
<path fill="none" stroke="#191970" d="M165.039,-280.4509C161.2708,-262.1013 152.9517,-221.5908 147.9776,-197.3693"/>
<polygon fill="#191970" stroke="#191970" points="151.3961,-196.6164 145.956,-187.5249 144.5392,-198.0246 151.3961,-196.6164"/>
</g>
<!-- Node19&#45;&gt;Node21 -->
<g id="edge26" class="edge">
<title>Node19&#45;&gt;Node21</title>
<path fill="none" stroke="#191970" d="M199.6372,-282.4476C240.228,-273.0547 309.9893,-256.9116 357.7436,-245.861"/>
<polygon fill="#191970" stroke="#191970" points="358.6279,-249.2489 367.5814,-243.5845 357.0497,-242.4291 358.6279,-249.2489"/>
</g>
<!-- Node20&#45;&gt;Node2 -->
<g id="edge24" class="edge">
<title>Node20&#45;&gt;Node2</title>
<path fill="none" stroke="#191970" d="M206.5018,-168.4369C270.5874,-158.6314 370.1639,-143.3957 437.6291,-133.0731"/>
<polygon fill="#191970" stroke="#191970" points="438.4004,-136.4959 447.756,-131.5237 437.3417,-129.5765 438.4004,-136.4959"/>
</g>
<!-- Node20&#45;&gt;Node14 -->
<g id="edge25" class="edge">
<title>Node20&#45;&gt;Node14</title>
<path fill="none" stroke="#191970" d="M154.9132,-168.4509C176.8289,-149.2747 226.4043,-105.8962 253.4871,-82.1988"/>
<polygon fill="#191970" stroke="#191970" points="255.8934,-84.744 261.1144,-75.5249 251.2838,-79.4759 255.8934,-84.744"/>
</g>
<!-- Node21&#45;&gt;Node2 -->
<g id="edge38" class="edge">
<title>Node21&#45;&gt;Node2</title>
<path fill="none" stroke="#191970" d="M465.6366,-224.4697C486.653,-217.8875 508.4176,-206.77 521,-188 530.2646,-174.1793 525.7184,-155.1629 519.9156,-141.0914"/>
<polygon fill="#191970" stroke="#191970" points="523.0225,-139.471 515.6478,-131.8642 516.6692,-142.4097 523.0225,-139.471"/>
</g>
<!-- Node21&#45;&gt;Node14 -->
<g id="edge27" class="edge">
<title>Node21&#45;&gt;Node14</title>
<path fill="none" stroke="#191970" d="M392.0362,-224.4756C378.2155,-216.1297 358.7987,-203.0092 345,-188 315.6353,-156.0594 292.1787,-110.4618 280.3616,-85.0216"/>
<polygon fill="#191970" stroke="#191970" points="283.4718,-83.4052 276.155,-75.7426 277.0963,-86.2956 283.4718,-83.4052"/>
</g>
<!-- Node21&#45;&gt;Node17 -->
<g id="edge28" class="edge">
<title>Node21&#45;&gt;Node17</title>
<path fill="none" stroke="#191970" d="M450.1555,-224.4369C491.3142,-214.8731 554.705,-200.1432 599.0242,-189.845"/>
<polygon fill="#191970" stroke="#191970" points="600.0659,-193.1963 609.0142,-187.5237 598.4815,-186.3779 600.0659,-193.1963"/>
</g>
<!-- Node22 -->
<g id="node23" class="node">
<title>Node22</title>
<g id="a_node23"><a xlink:href="RotationRaw_8h.html" target="_top" xlink:title="iDynTree/Core/RotationRaw.h">
<polygon fill="none" stroke="#000000" points="354,-168.5 354,-187.5 512,-187.5 512,-168.5 354,-168.5"/>
<text text-anchor="middle" x="433" y="-175.5" font-family="FreeSans.ttf" font-size="10.00" fill="#000000">iDynTree/Core/RotationRaw.h</text>
</a>
</g>
</g>
<!-- Node21&#45;&gt;Node22 -->
<g id="edge29" class="edge">
<title>Node21&#45;&gt;Node22</title>
<path fill="none" stroke="#191970" d="M413.1805,-224.2455C416.381,-216.7776 420.896,-206.2427 424.8084,-197.1137"/>
<polygon fill="#191970" stroke="#191970" points="428.1452,-198.2129 428.8674,-187.6427 421.7112,-195.4554 428.1452,-198.2129"/>
</g>
<!-- Node22&#45;&gt;Node14 -->
<g id="edge37" class="edge">
<title>Node22&#45;&gt;Node14</title>
<path fill="none" stroke="#191970" d="M419.2732,-168.4509C391.351,-149.0268 327.7324,-104.7703 293.9786,-81.2895"/>
<polygon fill="#191970" stroke="#191970" points="295.8998,-78.3624 285.692,-75.5249 291.9024,-84.1087 295.8998,-78.3624"/>
</g>
<!-- Node23 -->
<g id="node24" class="node">
<title>Node23</title>
<g id="a_node24"><a xlink:href="MatrixFixSize_8h.html" target="_top" xlink:title="iDynTree/Core/MatrixFixSize.h">
<polygon fill="none" stroke="#000000" points="608.5,-112.5 608.5,-131.5 769.5,-131.5 769.5,-112.5 608.5,-112.5"/>
<text text-anchor="middle" x="689" y="-119.5" font-family="FreeSans.ttf" font-size="10.00" fill="#000000">iDynTree/Core/MatrixFixSize.h</text>
</a>
</g>
</g>
<!-- Node22&#45;&gt;Node23 -->
<g id="edge30" class="edge">
<title>Node22&#45;&gt;Node23</title>
<path fill="none" stroke="#191970" d="M476.7171,-168.4369C520.6216,-158.8328 588.3413,-144.0191 635.445,-133.7152"/>
<polygon fill="#191970" stroke="#191970" points="636.4422,-137.0799 645.4632,-131.5237 634.9463,-130.2416 636.4422,-137.0799"/>
</g>
<!-- Node23&#45;&gt;Node3 -->
<g id="edge31" class="edge">
<title>Node23&#45;&gt;Node3</title>
<path fill="none" stroke="#191970" d="M634.8659,-112.4369C579.702,-102.6918 494.1763,-87.5832 435.7649,-77.2645"/>
<polygon fill="#191970" stroke="#191970" points="436.3672,-73.8167 425.9108,-75.5237 435.1494,-80.71 436.3672,-73.8167"/>
</g>
<!-- Node23&#45;&gt;Node6 -->
<g id="edge32" class="edge">
<title>Node23&#45;&gt;Node6</title>
<path fill="none" stroke="#191970" d="M693.6893,-112.4509C702.7814,-93.936 722.9531,-52.8591 734.8078,-28.7187"/>
<polygon fill="#191970" stroke="#191970" points="738.0563,-30.0438 739.3226,-19.5249 731.773,-26.9582 738.0563,-30.0438"/>
</g>
<!-- Node23&#45;&gt;Node14 -->
<g id="edge34" class="edge">
<title>Node23&#45;&gt;Node14</title>
<path fill="none" stroke="#191970" d="M608.3352,-112.7897C509.3437,-101.4333 349.7987,-82.9384 304.211,-75.5716"/>
<polygon fill="#191970" stroke="#191970" points="304.6779,-72.0988 294.2099,-73.7329 303.4121,-78.9835 304.6779,-72.0988"/>
</g>
<!-- Node23&#45;&gt;Node15 -->
<g id="edge36" class="edge">
<title>Node23&#45;&gt;Node15</title>
<path fill="none" stroke="#191970" d="M701.5414,-112.2455C712.2787,-103.8943 727.9473,-91.7076 740.5047,-81.9408"/>
<polygon fill="#191970" stroke="#191970" points="742.8575,-84.5449 748.6023,-75.6427 738.5599,-79.0194 742.8575,-84.5449"/>
</g>
<!-- Node23&#45;&gt;Node16 -->
<g id="edge33" class="edge">
<title>Node23&#45;&gt;Node16</title>
<path fill="none" stroke="#191970" d="M682.5551,-112.2455C677.4618,-104.5367 670.2092,-93.5598 664.048,-84.2348"/>
<polygon fill="#191970" stroke="#191970" points="666.8038,-82.0566 658.3711,-75.6427 660.9635,-85.9155 666.8038,-82.0566"/>
</g>
<!-- Node23&#45;&gt;Node24 -->
<g id="edge35" class="edge">
<title>Node23&#45;&gt;Node24</title>
<path fill="none" stroke="#191970" d="M608.0545,-112.9344C604.998,-112.6148 601.9717,-112.3023 599,-112 428.9758,-94.7032 226.005,-76.8109 141.2637,-69.464"/>
<polygon fill="#191970" stroke="#191970" points="141.3158,-65.9556 131.0512,-68.5801 140.7121,-72.9295 141.3158,-65.9556"/>
</g>
<!-- Node25&#45;&gt;Node2 -->
<g id="edge46" class="edge">
<title>Node25&#45;&gt;Node2</title>
<path fill="none" stroke="#191970" d="M668.9101,-403.4535C704.7417,-383.0585 760,-343.0121 760,-290 760,-290 760,-290 760,-234 760,-203.4754 763.4687,-188.6618 741,-168 729.4287,-157.3592 648.4107,-142.9044 585.5513,-133.0568"/>
<polygon fill="#191970" stroke="#191970" points="586.0506,-129.5925 575.632,-131.5172 584.9769,-136.5097 586.0506,-129.5925"/>
</g>
<!-- Node25&#45;&gt;Node17 -->
<g id="edge47" class="edge">
<title>Node25&#45;&gt;Node17</title>
<path fill="none" stroke="#191970" d="M648.5887,-403.4025C654.3064,-393.4813 661.0162,-379.9794 664,-367 678.2394,-305.0601 673.3543,-286.8634 664,-224 662.6673,-215.0439 659.9506,-205.419 657.2619,-197.3"/>
<polygon fill="#191970" stroke="#191970" points="660.4936,-195.9402 653.8624,-187.6772 653.8933,-198.272 660.4936,-195.9402"/>
</g>
<!-- Node25&#45;&gt;Node18 -->
<g id="edge48" class="edge">
<title>Node25&#45;&gt;Node18</title>
<path fill="none" stroke="#191970" d="M579.08,-403.4639C530.9091,-391.3761 464.1509,-374.624 419.5909,-363.4423"/>
<polygon fill="#191970" stroke="#191970" points="420.4305,-360.0445 409.8793,-361.0053 418.7267,-366.834 420.4305,-360.0445"/>
</g>
<!-- Node26&#45;&gt;Node2 -->
<g id="edge53" class="edge">
<title>Node26&#45;&gt;Node2</title>
<path fill="none" stroke="#191970" d="M686.2169,-542.6728C754.4438,-537.3369 844.8744,-525.7239 871,-501 898.329,-475.1373 890,-456.1265 890,-418.5 890,-418.5 890,-418.5 890,-234 890,-169.9938 822.5875,-188.6384 762,-168 729.8986,-157.065 646.6087,-142.8331 584.5136,-133.1134"/>
<polygon fill="#191970" stroke="#191970" points="584.7716,-129.6116 574.3526,-131.5335 583.696,-136.5285 584.7716,-129.6116"/>
</g>
<!-- Node27 -->
<g id="node28" class="node">
<title>Node27</title>
<g id="a_node28"><a xlink:href="SpatialInertiaRaw_8h.html" target="_top" xlink:title="iDynTree/Core/SpatialInertia\lRaw.h">
<polygon fill="none" stroke="#000000" points="918.5,-470.5 918.5,-500.5 1071.5,-500.5 1071.5,-470.5 918.5,-470.5"/>
<text text-anchor="start" x="926.5" y="-488.5" font-family="FreeSans.ttf" font-size="10.00" fill="#000000">iDynTree/Core/SpatialInertia</text>
<text text-anchor="middle" x="995" y="-477.5" font-family="FreeSans.ttf" font-size="10.00" fill="#000000">Raw.h</text>
</a>
</g>
</g>
<!-- Node26&#45;&gt;Node27 -->
<g id="edge50" class="edge">
<title>Node26&#45;&gt;Node27</title>
<path fill="none" stroke="#191970" d="M668.9144,-537.4707C729.486,-528.3679 822.9939,-514.1292 904,-501 905.2903,-500.7909 906.5907,-500.5793 907.8994,-500.3658"/>
<polygon fill="#191970" stroke="#191970" points="908.761,-503.7712 918.0603,-498.6944 907.6248,-496.864 908.761,-503.7712"/>
</g>
<!-- Node29 -->
<g id="node30" class="node">
<title>Node29</title>
<g id="a_node30"><a xlink:href="Twist_8h.html" target="_top" xlink:title="iDynTree/Core/Twist.h">
<polygon fill="none" stroke="#000000" points="180,-476 180,-495 302,-495 302,-476 180,-476"/>
<text text-anchor="middle" x="241" y="-483" font-family="FreeSans.ttf" font-size="10.00" fill="#000000">iDynTree/Core/Twist.h</text>
</a>
</g>
</g>
<!-- Node26&#45;&gt;Node29 -->
<g id="edge54" class="edge">
<title>Node26&#45;&gt;Node29</title>
<path fill="none" stroke="#191970" d="M536.1786,-537.4774C476.463,-528.9178 387.7839,-515.4932 311,-501 304.8194,-499.8334 298.3515,-498.5234 291.9504,-497.1722"/>
<polygon fill="#191970" stroke="#191970" points="292.5102,-493.7125 281.9975,-495.0294 291.0368,-500.5557 292.5102,-493.7125"/>
</g>
<!-- Node30 -->
<g id="node31" class="node">
<title>Node30</title>
<g id="a_node31"><a xlink:href="SpatialMomentum_8h.html" target="_top" xlink:title="iDynTree/Core/SpatialMomentum.h">
<polygon fill="none" stroke="#000000" points="676,-476 676,-495 862,-495 862,-476 676,-476"/>
<text text-anchor="middle" x="769" y="-483" font-family="FreeSans.ttf" font-size="10.00" fill="#000000">iDynTree/Core/SpatialMomentum.h</text>
</a>
</g>
</g>
<!-- Node26&#45;&gt;Node30 -->
<g id="edge56" class="edge">
<title>Node26&#45;&gt;Node30</title>
<path fill="none" stroke="#191970" d="M630.625,-537.3906C658.4263,-526.9652 702.9844,-510.2559 733.9994,-498.6252"/>
<polygon fill="#191970" stroke="#191970" points="735.4206,-501.8303 743.5549,-495.0419 732.9627,-495.276 735.4206,-501.8303"/>
</g>
<!-- Node31 -->
<g id="node32" class="node">
<title>Node31</title>
<g id="a_node32"><a xlink:href="SpatialAcc_8h.html" target="_top" xlink:title="iDynTree/Core/SpatialAcc.h">
<polygon fill="none" stroke="#000000" points="320,-476 320,-495 468,-495 468,-476 320,-476"/>
<text text-anchor="middle" x="394" y="-483" font-family="FreeSans.ttf" font-size="10.00" fill="#000000">iDynTree/Core/SpatialAcc.h</text>
</a>
</g>
</g>
<!-- Node26&#45;&gt;Node31 -->
<g id="edge58" class="edge">
<title>Node26&#45;&gt;Node31</title>
<path fill="none" stroke="#191970" d="M572.0313,-537.3906C535.4883,-526.7395 476.4429,-509.5296 436.465,-497.8772"/>
<polygon fill="#191970" stroke="#191970" points="437.3172,-494.48 426.7372,-495.0419 435.3583,-501.2004 437.3172,-494.48"/>
</g>
<!-- Node32 -->
<g id="node33" class="node">
<title>Node32</title>
<g id="a_node33"><a xlink:href="Wrench_8h.html" target="_top" xlink:title="iDynTree/Core/Wrench.h">
<polygon fill="none" stroke="#000000" points="524.5,-476 524.5,-495 657.5,-495 657.5,-476 524.5,-476"/>
<text text-anchor="middle" x="591" y="-483" font-family="FreeSans.ttf" font-size="10.00" fill="#000000">iDynTree/Core/Wrench.h</text>
</a>
</g>
</g>
<!-- Node26&#45;&gt;Node32 -->
<g id="edge60" class="edge">
<title>Node26&#45;&gt;Node32</title>
<path fill="none" stroke="#191970" d="M602.8125,-537.3906C600.8514,-528.776 597.9137,-515.8708 595.4585,-505.0858"/>
<polygon fill="#191970" stroke="#191970" points="598.8507,-504.2185 593.2183,-495.2449 592.0254,-505.7723 598.8507,-504.2185"/>
</g>
<!-- Node28 -->
<g id="node29" class="node">
<title>Node28</title>
<g id="a_node29"><a xlink:href="RotationalInertiaRaw_8h.html" target="_top" xlink:title="iDynTree/Core/Rotational\lInertiaRaw.h">
<polygon fill="none" stroke="#000000" points="922.5,-336.5 922.5,-366.5 1059.5,-366.5 1059.5,-336.5 922.5,-336.5"/>
<text text-anchor="start" x="930.5" y="-354.5" font-family="FreeSans.ttf" font-size="10.00" fill="#000000">iDynTree/Core/Rotational</text>
<text text-anchor="middle" x="991" y="-343.5" font-family="FreeSans.ttf" font-size="10.00" fill="#000000">InertiaRaw.h</text>
</a>
</g>
</g>
<!-- Node27&#45;&gt;Node28 -->
<g id="edge51" class="edge">
<title>Node27&#45;&gt;Node28</title>
<path fill="none" stroke="#191970" d="M994.5489,-470.389C993.8707,-447.6691 992.5802,-404.438 991.7564,-376.8405"/>
<polygon fill="#191970" stroke="#191970" points="995.2525,-376.6525 991.4556,-366.7614 988.2556,-376.8614 995.2525,-376.6525"/>
</g>
<!-- Node28&#45;&gt;Node23 -->
<g id="edge52" class="edge">
<title>Node28&#45;&gt;Node23</title>
<path fill="none" stroke="#191970" d="M988.4748,-336.3494C981.7289,-300.8949 959.8484,-212.1937 904,-168 884.3214,-152.428 828.1409,-140.7173 778.1452,-133.0093"/>
<polygon fill="#191970" stroke="#191970" points="778.6503,-129.5459 768.2412,-131.5211 777.6101,-136.4682 778.6503,-129.5459"/>
</g>
<!-- Node29&#45;&gt;Node1 -->
<g id="edge55" class="edge">
<title>Node29&#45;&gt;Node1</title>
<path fill="none" stroke="#191970" d="M248.7369,-475.9005C255.9178,-466.9908 266.892,-453.3748 276.3499,-441.6399"/>
<polygon fill="#191970" stroke="#191970" points="279.3427,-443.5041 282.8929,-433.5218 273.8925,-439.1114 279.3427,-443.5041"/>
</g>
<!-- Node30&#45;&gt;Node25 -->
<g id="edge57" class="edge">
<title>Node30&#45;&gt;Node25</title>
<path fill="none" stroke="#191970" d="M750.3742,-475.9005C731.3244,-466.0826 701.1861,-450.5498 677.0623,-438.1167"/>
<polygon fill="#191970" stroke="#191970" points="678.6391,-434.9919 668.1467,-433.5218 675.4322,-441.2141 678.6391,-434.9919"/>
</g>
<!-- Node31&#45;&gt;Node1 -->
<g id="edge59" class="edge">
<title>Node31&#45;&gt;Node1</title>
<path fill="none" stroke="#191970" d="M379.8157,-475.9005C365.7559,-466.3853 343.7646,-451.5023 325.6981,-439.2755"/>
<polygon fill="#191970" stroke="#191970" points="327.4397,-436.228 317.1963,-433.5218 323.5164,-442.0252 327.4397,-436.228"/>
</g>
<!-- Node32&#45;&gt;Node25 -->
<g id="edge61" class="edge">
<title>Node32&#45;&gt;Node25</title>
<path fill="none" stroke="#191970" d="M597.8772,-475.9005C604.1983,-467.0773 613.826,-453.6387 622.1769,-441.9822"/>
<polygon fill="#191970" stroke="#191970" points="625.2594,-443.6893 628.2381,-433.5218 619.569,-439.6125 625.2594,-443.6893"/>
</g>
</g>
</svg>
