<?xml version="1.0" encoding="UTF-8" standalone="no"?>
<!DOCTYPE svg PUBLIC "-//W3C//DTD SVG 1.1//EN"
 "http://www.w3.org/Graphics/SVG/1.1/DTD/svg11.dtd">
<!-- Generated by graphviz version 2.40.1 (20161225.0304)
 -->
<!-- Title: EigenHelpers.h Pages: 1 -->
<svg width="1261pt" height="487pt"
 viewBox="0.00 0.00 1261.00 487.00" xmlns="http://www.w3.org/2000/svg" xmlns:xlink="http://www.w3.org/1999/xlink">
<g id="graph0" class="graph" transform="scale(1 1) rotate(0) translate(4 483)">
<title>EigenHelpers.h</title>
<!-- Node0 -->
<g id="node1" class="node">
<title>Node0</title>
<polygon fill="#bfbfbf" stroke="#000000" points="402.5,-459.5 402.5,-478.5 492.5,-478.5 492.5,-459.5 402.5,-459.5"/>
<text text-anchor="middle" x="447.5" y="-466.5" font-family="FreeSans.ttf" font-size="10.00" fill="#000000">EigenHelpers.h</text>
</g>
<!-- Node1 -->
<g id="node2" class="node">
<title>Node1</title>
<polygon fill="none" stroke="#bfbfbf" points="0,-398 0,-417 77,-417 77,-398 0,-398"/>
<text text-anchor="middle" x="38.5" y="-405" font-family="FreeSans.ttf" font-size="10.00" fill="#000000">Eigen/Dense</text>
</g>
<!-- Node0&#45;&gt;Node1 -->
<g id="edge1" class="edge">
<title>Node0&#45;&gt;Node1</title>
<path fill="none" stroke="#191970" d="M402.4455,-465.4485C334.5157,-459.5841 202.0539,-446.1607 91.5,-423 87.0518,-422.0681 82.4336,-420.9499 77.8609,-419.7462"/>
<polygon fill="#191970" stroke="#191970" points="78.5783,-416.3131 68.0067,-417.0139 76.7079,-423.0586 78.5783,-416.3131"/>
</g>
<!-- Node2 -->
<g id="node3" class="node">
<title>Node2</title>
<g id="a_node3"><a xlink:href="VectorDynSize_8h.html" target="_top" xlink:title="iDynTree/Core/VectorDynSize.h">
<polygon fill="none" stroke="#000000" points="823,-112.5 823,-131.5 990,-131.5 990,-112.5 823,-112.5"/>
<text text-anchor="middle" x="906.5" y="-119.5" font-family="FreeSans.ttf" font-size="10.00" fill="#000000">iDynTree/Core/VectorDynSize.h</text>
</a>
</g>
</g>
<!-- Node0&#45;&gt;Node2 -->
<g id="edge2" class="edge">
<title>Node0&#45;&gt;Node2</title>
<path fill="none" stroke="#191970" d="M492.9251,-464.6815C634.5259,-450.6163 1058.5,-403.6865 1058.5,-346 1058.5,-346 1058.5,-346 1058.5,-290 1058.5,-216.9255 978.4455,-161.4335 934.5313,-136.4903"/>
<polygon fill="#191970" stroke="#191970" points="936.196,-133.4114 925.7509,-131.6361 932.8091,-139.5375 936.196,-133.4114"/>
</g>
<!-- Node14 -->
<g id="node15" class="node">
<title>Node14</title>
<g id="a_node15"><a xlink:href="VectorFixSize_8h.html" target="_top" xlink:title="iDynTree/Core/VectorFixSize.h">
<polygon fill="none" stroke="#000000" points="288,-112.5 288,-131.5 449,-131.5 449,-112.5 288,-112.5"/>
<text text-anchor="middle" x="368.5" y="-119.5" font-family="FreeSans.ttf" font-size="10.00" fill="#000000">iDynTree/Core/VectorFixSize.h</text>
</a>
</g>
</g>
<!-- Node0&#45;&gt;Node14 -->
<g id="edge14" class="edge">
<title>Node0&#45;&gt;Node14</title>
<path fill="none" stroke="#191970" d="M402.4981,-465.7899C337.0122,-460.3475 219.5456,-447.4407 185.5,-423 153.8329,-400.2668 143.5,-384.9821 143.5,-346 143.5,-346 143.5,-346 143.5,-290 143.5,-202.3612 254.4543,-154.9621 320.5315,-134.5048"/>
<polygon fill="#191970" stroke="#191970" points="321.7588,-137.7908 330.3318,-131.5655 319.7478,-131.0859 321.7588,-137.7908"/>
</g>
<!-- Node15 -->
<g id="node16" class="node">
<title>Node15</title>
<g id="a_node16"><a xlink:href="Utils_8h.html" target="_top" xlink:title="iDynTree/Core/Utils.h">
<polygon fill="none" stroke="#000000" points="181,-56.5 181,-75.5 300,-75.5 300,-56.5 181,-56.5"/>
<text text-anchor="middle" x="240.5" y="-63.5" font-family="FreeSans.ttf" font-size="10.00" fill="#000000">iDynTree/Core/Utils.h</text>
</a>
</g>
</g>
<!-- Node0&#45;&gt;Node15 -->
<g id="edge62" class="edge">
<title>Node0&#45;&gt;Node15</title>
<path fill="none" stroke="#191970" d="M402.4281,-466.7857C329.4987,-462.4323 189.7227,-450.6599 149.5,-423 117.0225,-400.6663 105.5,-385.4155 105.5,-346 105.5,-346 105.5,-346 105.5,-178 105.5,-127.6408 161.8303,-95.6082 201.7169,-79.2387"/>
<polygon fill="#191970" stroke="#191970" points="203.1811,-82.4239 211.207,-75.5075 200.6198,-75.9093 203.1811,-82.4239"/>
</g>
<!-- Node18 -->
<g id="node19" class="node">
<title>Node18</title>
<g id="a_node19"><a xlink:href="MatrixDynSize_8h.html" target="_top" xlink:title="iDynTree/Core/MatrixDynSize.h">
<polygon fill="none" stroke="#000000" points="1086,-280.5 1086,-299.5 1253,-299.5 1253,-280.5 1086,-280.5"/>
<text text-anchor="middle" x="1169.5" y="-287.5" font-family="FreeSans.ttf" font-size="10.00" fill="#000000">iDynTree/Core/MatrixDynSize.h</text>
</a>
</g>
</g>
<!-- Node0&#45;&gt;Node18 -->
<g id="edge22" class="edge">
<title>Node0&#45;&gt;Node18</title>
<path fill="none" stroke="#191970" d="M492.5522,-467.859C627.4851,-464.1412 1022.1509,-450.9695 1072.5,-423 1118.7605,-397.3018 1148.8479,-339.1962 1161.9561,-309.0094"/>
<polygon fill="#191970" stroke="#191970" points="1165.2634,-310.1718 1165.8832,-299.5951 1158.803,-307.4769 1165.2634,-310.1718"/>
</g>
<!-- Node19 -->
<g id="node20" class="node">
<title>Node19</title>
<g id="a_node20"><a xlink:href="MatrixFixSize_8h.html" target="_top" xlink:title="iDynTree/Core/MatrixFixSize.h">
<polygon fill="none" stroke="#000000" points="506,-112.5 506,-131.5 667,-131.5 667,-112.5 506,-112.5"/>
<text text-anchor="middle" x="586.5" y="-119.5" font-family="FreeSans.ttf" font-size="10.00" fill="#000000">iDynTree/Core/MatrixFixSize.h</text>
</a>
</g>
</g>
<!-- Node0&#45;&gt;Node19 -->
<g id="edge24" class="edge">
<title>Node0&#45;&gt;Node19</title>
<path fill="none" stroke="#191970" d="M479.6156,-459.4241C498.2627,-452.27 520.7212,-440.638 534.5,-423 556.1998,-395.2225 553.5,-381.2487 553.5,-346 553.5,-346 553.5,-346 553.5,-234 553.5,-200.051 567.6235,-162.5869 577.3911,-140.7366"/>
<polygon fill="#191970" stroke="#191970" points="580.5937,-142.1501 581.6307,-131.6061 574.2448,-139.202 580.5937,-142.1501"/>
</g>
<!-- Node21 -->
<g id="node22" class="node">
<title>Node21</title>
<g id="a_node22"><a xlink:href="SpatialMotionVector_8h.html" target="_top" xlink:title="iDynTree/Core/SpatialMotion\lVector.h">
<polygon fill="none" stroke="#000000" points="370,-392.5 370,-422.5 525,-422.5 525,-392.5 370,-392.5"/>
<text text-anchor="start" x="378" y="-410.5" font-family="FreeSans.ttf" font-size="10.00" fill="#000000">iDynTree/Core/SpatialMotion</text>
<text text-anchor="middle" x="447.5" y="-399.5" font-family="FreeSans.ttf" font-size="10.00" fill="#000000">Vector.h</text>
</a>
</g>
</g>
<!-- Node0&#45;&gt;Node21 -->
<g id="edge31" class="edge">
<title>Node0&#45;&gt;Node21</title>
<path fill="none" stroke="#191970" d="M447.5,-459.3906C447.5,-452.2234 447.5,-442.0862 447.5,-432.671"/>
<polygon fill="#191970" stroke="#191970" points="451.0001,-432.5446 447.5,-422.5446 444.0001,-432.5446 451.0001,-432.5446"/>
</g>
<!-- Node28 -->
<g id="node29" class="node">
<title>Node28</title>
<g id="a_node29"><a xlink:href="SpatialForceVector_8h.html" target="_top" xlink:title="iDynTree/Core/SpatialForce\lVector.h">
<polygon fill="none" stroke="#000000" points="194.5,-392.5 194.5,-422.5 342.5,-422.5 342.5,-392.5 194.5,-392.5"/>
<text text-anchor="start" x="202.5" y="-410.5" font-family="FreeSans.ttf" font-size="10.00" fill="#000000">iDynTree/Core/SpatialForce</text>
<text text-anchor="middle" x="268.5" y="-399.5" font-family="FreeSans.ttf" font-size="10.00" fill="#000000">Vector.h</text>
</a>
</g>
</g>
<!-- Node0&#45;&gt;Node28 -->
<g id="edge53" class="edge">
<title>Node0&#45;&gt;Node28</title>
<path fill="none" stroke="#191970" d="M419.5313,-459.3906C393.5113,-450.4508 354.043,-436.8905 321.9786,-425.8739"/>
<polygon fill="#191970" stroke="#191970" points="322.883,-422.4839 312.2883,-422.5446 320.6084,-429.1041 322.883,-422.4839"/>
</g>
<!-- Node29 -->
<g id="node30" class="node">
<title>Node29</title>
<g id="a_node30"><a xlink:href="Transform_8h.html" target="_top" xlink:title="iDynTree/Core/Transform.h">
<polygon fill="none" stroke="#000000" points="667.5,-336.5 667.5,-355.5 813.5,-355.5 813.5,-336.5 667.5,-336.5"/>
<text text-anchor="middle" x="740.5" y="-343.5" font-family="FreeSans.ttf" font-size="10.00" fill="#000000">iDynTree/Core/Transform.h</text>
</a>
</g>
</g>
<!-- Node0&#45;&gt;Node29 -->
<g id="edge57" class="edge">
<title>Node0&#45;&gt;Node29</title>
<path fill="none" stroke="#191970" d="M473.8757,-459.345C498.295,-450.2986 535.5457,-436.225 567.5,-423 618.0947,-402.0602 676.0855,-375.7735 710.4313,-359.9615"/>
<polygon fill="#191970" stroke="#191970" points="712.2681,-362.9686 719.8813,-355.6004 709.3349,-356.6128 712.2681,-362.9686"/>
</g>
<!-- Node3 -->
<g id="node4" class="node">
<title>Node3</title>
<g id="a_node4"><a xlink:href="Span_8h.html" target="_top" xlink:title="iDynTree/Core/Span.h">
<polygon fill="none" stroke="#000000" points="615,-56.5 615,-75.5 736,-75.5 736,-56.5 615,-56.5"/>
<text text-anchor="middle" x="675.5" y="-63.5" font-family="FreeSans.ttf" font-size="10.00" fill="#000000">iDynTree/Core/Span.h</text>
</a>
</g>
</g>
<!-- Node2&#45;&gt;Node3 -->
<g id="edge3" class="edge">
<title>Node2&#45;&gt;Node3</title>
<path fill="none" stroke="#191970" d="M867.0522,-112.4369C827.6844,-102.8932 767.0966,-88.2052 724.6292,-77.9101"/>
<polygon fill="#191970" stroke="#191970" points="725.3283,-74.4783 714.7851,-75.5237 723.679,-81.2812 725.3283,-74.4783"/>
</g>
<!-- Node13 -->
<g id="node14" class="node">
<title>Node13</title>
<polygon fill="none" stroke="#bfbfbf" points="884.5,-56.5 884.5,-75.5 928.5,-75.5 928.5,-56.5 884.5,-56.5"/>
<text text-anchor="middle" x="906.5" y="-63.5" font-family="FreeSans.ttf" font-size="10.00" fill="#000000">string</text>
</g>
<!-- Node2&#45;&gt;Node13 -->
<g id="edge13" class="edge">
<title>Node2&#45;&gt;Node13</title>
<path fill="none" stroke="#191970" d="M906.5,-112.2455C906.5,-104.9382 906.5,-94.6944 906.5,-85.7046"/>
<polygon fill="#191970" stroke="#191970" points="910.0001,-85.6426 906.5,-75.6427 903.0001,-85.6427 910.0001,-85.6426"/>
</g>
<!-- Node4 -->
<g id="node5" class="node">
<title>Node4</title>
<polygon fill="none" stroke="#bfbfbf" points="399.5,-.5 399.5,-19.5 451.5,-19.5 451.5,-.5 399.5,-.5"/>
<text text-anchor="middle" x="425.5" y="-7.5" font-family="FreeSans.ttf" font-size="10.00" fill="#000000">cassert</text>
</g>
<!-- Node3&#45;&gt;Node4 -->
<g id="edge4" class="edge">
<title>Node3&#45;&gt;Node4</title>
<path fill="none" stroke="#191970" d="M627.2927,-56.4872C583.7973,-47.7026 518.1416,-33.9416 461.5,-20 461.4016,-19.9758 461.303,-19.9515 461.2043,-19.9271"/>
<polygon fill="#191970" stroke="#191970" points="462.3563,-16.6098 451.7988,-17.4988 460.6063,-23.3876 462.3563,-16.6098"/>
</g>
<!-- Node5 -->
<g id="node6" class="node">
<title>Node5</title>
<polygon fill="none" stroke="#bfbfbf" points="620.5,-.5 620.5,-19.5 684.5,-19.5 684.5,-.5 620.5,-.5"/>
<text text-anchor="middle" x="652.5" y="-7.5" font-family="FreeSans.ttf" font-size="10.00" fill="#000000">algorithm</text>
</g>
<!-- Node3&#45;&gt;Node5 -->
<g id="edge5" class="edge">
<title>Node3&#45;&gt;Node5</title>
<path fill="none" stroke="#191970" d="M671.4937,-56.2455C668.4265,-48.7776 664.0997,-38.2427 660.3503,-29.1137"/>
<polygon fill="#191970" stroke="#191970" points="663.4972,-27.5631 656.4604,-19.6427 657.0221,-30.2226 663.4972,-27.5631"/>
</g>
<!-- Node6 -->
<g id="node7" class="node">
<title>Node6</title>
<polygon fill="none" stroke="#bfbfbf" points="702.5,-.5 702.5,-19.5 744.5,-19.5 744.5,-.5 702.5,-.5"/>
<text text-anchor="middle" x="723.5" y="-7.5" font-family="FreeSans.ttf" font-size="10.00" fill="#000000">array</text>
</g>
<!-- Node3&#45;&gt;Node6 -->
<g id="edge6" class="edge">
<title>Node3&#45;&gt;Node6</title>
<path fill="none" stroke="#191970" d="M683.861,-56.2455C690.675,-48.2958 700.4681,-36.8706 708.6152,-27.3656"/>
<polygon fill="#191970" stroke="#191970" points="711.3843,-29.513 715.2349,-19.6427 706.0695,-24.9575 711.3843,-29.513"/>
</g>
<!-- Node7 -->
<g id="node8" class="node">
<title>Node7</title>
<polygon fill="none" stroke="#bfbfbf" points="283,-.5 283,-19.5 336,-19.5 336,-.5 283,-.5"/>
<text text-anchor="middle" x="309.5" y="-7.5" font-family="FreeSans.ttf" font-size="10.00" fill="#000000">cstddef</text>
</g>
<!-- Node3&#45;&gt;Node7 -->
<g id="edge7" class="edge">
<title>Node3&#45;&gt;Node7</title>
<path fill="none" stroke="#191970" d="M614.6517,-56.6899C538.175,-44.9885 409.3179,-25.2727 346.3579,-15.6395"/>
<polygon fill="#191970" stroke="#191970" points="346.5298,-12.1251 336.1155,-14.0723 345.4711,-19.0446 346.5298,-12.1251"/>
</g>
<!-- Node8 -->
<g id="node9" class="node">
<title>Node8</title>
<polygon fill="none" stroke="#bfbfbf" points="763,-.5 763,-19.5 816,-19.5 816,-.5 763,-.5"/>
<text text-anchor="middle" x="789.5" y="-7.5" font-family="FreeSans.ttf" font-size="10.00" fill="#000000">iterator</text>
</g>
<!-- Node3&#45;&gt;Node8 -->
<g id="edge8" class="edge">
<title>Node3&#45;&gt;Node8</title>
<path fill="none" stroke="#191970" d="M695.0973,-56.3733C713.2331,-47.4644 740.4135,-34.1127 760.9587,-24.0203"/>
<polygon fill="#191970" stroke="#191970" points="762.7261,-27.0517 770.1584,-19.5011 759.6397,-20.7688 762.7261,-27.0517"/>
</g>
<!-- Node9 -->
<g id="node10" class="node">
<title>Node9</title>
<polygon fill="none" stroke="#bfbfbf" points="834.5,-.5 834.5,-19.5 878.5,-19.5 878.5,-.5 834.5,-.5"/>
<text text-anchor="middle" x="856.5" y="-7.5" font-family="FreeSans.ttf" font-size="10.00" fill="#000000">limits</text>
</g>
<!-- Node3&#45;&gt;Node9 -->
<g id="edge9" class="edge">
<title>Node3&#45;&gt;Node9</title>
<path fill="none" stroke="#191970" d="M707.1456,-56.4406C735.5732,-47.8213 778.6951,-34.6678 824.906,-20.1582"/>
<polygon fill="#191970" stroke="#191970" points="826.0082,-23.4807 834.4971,-17.1411 823.9076,-16.8032 826.0082,-23.4807"/>
</g>
<!-- Node10 -->
<g id="node11" class="node">
<title>Node10</title>
<polygon fill="none" stroke="#bfbfbf" points="897,-.5 897,-19.5 962,-19.5 962,-.5 897,-.5"/>
<text text-anchor="middle" x="929.5" y="-7.5" font-family="FreeSans.ttf" font-size="10.00" fill="#000000">stdexcept</text>
</g>
<!-- Node3&#45;&gt;Node10 -->
<g id="edge10" class="edge">
<title>Node3&#45;&gt;Node10</title>
<path fill="none" stroke="#191970" d="M720.6364,-56.4806C761.4976,-47.8011 823.5961,-34.458 887.158,-20.0445"/>
<polygon fill="#191970" stroke="#191970" points="887.9806,-23.4468 896.9557,-17.8167 886.4286,-16.621 887.9806,-23.4468"/>
</g>
<!-- Node11 -->
<g id="node12" class="node">
<title>Node11</title>
<polygon fill="none" stroke="#bfbfbf" points="470,-.5 470,-19.5 539,-19.5 539,-.5 470,-.5"/>
<text text-anchor="middle" x="504.5" y="-7.5" font-family="FreeSans.ttf" font-size="10.00" fill="#000000">type_traits</text>
</g>
<!-- Node3&#45;&gt;Node11 -->
<g id="edge11" class="edge">
<title>Node3&#45;&gt;Node11</title>
<path fill="none" stroke="#191970" d="M646.1041,-56.3733C617.6693,-47.0613 574.4123,-32.8953 543.1919,-22.671"/>
<polygon fill="#191970" stroke="#191970" points="544.105,-19.2872 533.5124,-19.5011 541.9264,-25.9396 544.105,-19.2872"/>
</g>
<!-- Node12 -->
<g id="node13" class="node">
<title>Node12</title>
<polygon fill="none" stroke="#bfbfbf" points="557,-.5 557,-19.5 602,-19.5 602,-.5 557,-.5"/>
<text text-anchor="middle" x="579.5" y="-7.5" font-family="FreeSans.ttf" font-size="10.00" fill="#000000">utility</text>
</g>
<!-- Node3&#45;&gt;Node12 -->
<g id="edge12" class="edge">
<title>Node3&#45;&gt;Node12</title>
<path fill="none" stroke="#191970" d="M658.7781,-56.2455C643.9111,-47.5731 621.9534,-34.7645 604.9142,-24.825"/>
<polygon fill="#191970" stroke="#191970" points="606.4317,-21.6582 596.0303,-19.6427 602.9045,-27.7047 606.4317,-21.6582"/>
</g>
<!-- Node14&#45;&gt;Node3 -->
<g id="edge17" class="edge">
<title>Node14&#45;&gt;Node3</title>
<path fill="none" stroke="#191970" d="M420.9264,-112.4369C474.2397,-102.712 556.8357,-87.6456 613.3956,-77.3285"/>
<polygon fill="#191970" stroke="#191970" points="614.0803,-80.7614 623.2899,-75.5237 612.8241,-73.8751 614.0803,-80.7614"/>
</g>
<!-- Node14&#45;&gt;Node4 -->
<g id="edge20" class="edge">
<title>Node14&#45;&gt;Node4</title>
<path fill="none" stroke="#191970" d="M373.3598,-112.4509C382.7826,-93.936 403.6878,-52.8591 415.9735,-28.7187"/>
<polygon fill="#191970" stroke="#191970" points="419.2361,-30.0246 420.6525,-19.5249 412.9975,-26.8496 419.2361,-30.0246"/>
</g>
<!-- Node14&#45;&gt;Node13 -->
<g id="edge18" class="edge">
<title>Node14&#45;&gt;Node13</title>
<path fill="none" stroke="#191970" d="M449.044,-113.6162C569.5173,-101.0763 791.337,-77.9872 874.1751,-69.3647"/>
<polygon fill="#191970" stroke="#191970" points="874.6629,-72.8329 884.2468,-68.3163 873.9382,-65.8705 874.6629,-72.8329"/>
</g>
<!-- Node14&#45;&gt;Node15 -->
<g id="edge15" class="edge">
<title>Node14&#45;&gt;Node15</title>
<path fill="none" stroke="#191970" d="M346.496,-112.3733C325.8565,-103.3435 294.7842,-89.7494 271.6111,-79.6111"/>
<polygon fill="#191970" stroke="#191970" points="272.7813,-76.3028 262.2169,-75.5011 269.9755,-82.7159 272.7813,-76.3028"/>
</g>
<!-- Node16 -->
<g id="node17" class="node">
<title>Node16</title>
<polygon fill="none" stroke="#bfbfbf" points="318.5,-56.5 318.5,-75.5 374.5,-75.5 374.5,-56.5 318.5,-56.5"/>
<text text-anchor="middle" x="346.5" y="-63.5" font-family="FreeSans.ttf" font-size="10.00" fill="#000000">sstream</text>
</g>
<!-- Node14&#45;&gt;Node16 -->
<g id="edge19" class="edge">
<title>Node14&#45;&gt;Node16</title>
<path fill="none" stroke="#191970" d="M364.6679,-112.2455C361.7341,-104.7776 357.5953,-94.2427 354.009,-85.1137"/>
<polygon fill="#191970" stroke="#191970" points="357.2024,-83.6704 350.2882,-75.6427 350.6871,-86.23 357.2024,-83.6704"/>
</g>
<!-- Node17 -->
<g id="node18" class="node">
<title>Node17</title>
<polygon fill="none" stroke="#bfbfbf" points="430.5,-56.5 430.5,-75.5 480.5,-75.5 480.5,-56.5 430.5,-56.5"/>
<text text-anchor="middle" x="455.5" y="-63.5" font-family="FreeSans.ttf" font-size="10.00" fill="#000000">cstring</text>
</g>
<!-- Node14&#45;&gt;Node17 -->
<g id="edge21" class="edge">
<title>Node14&#45;&gt;Node17</title>
<path fill="none" stroke="#191970" d="M383.6542,-112.2455C397.0027,-103.6534 416.6586,-91.0014 432.0383,-81.1018"/>
<polygon fill="#191970" stroke="#191970" points="434.0051,-83.9982 440.5194,-75.6427 430.2164,-78.1121 434.0051,-83.9982"/>
</g>
<!-- Node15&#45;&gt;Node7 -->
<g id="edge16" class="edge">
<title>Node15&#45;&gt;Node7</title>
<path fill="none" stroke="#191970" d="M252.5189,-56.2455C262.7098,-47.9746 277.5362,-35.9416 289.5107,-26.2232"/>
<polygon fill="#191970" stroke="#191970" points="292.0598,-28.662 297.6188,-19.6427 287.6486,-23.2268 292.0598,-28.662"/>
</g>
<!-- Node18&#45;&gt;Node13 -->
<g id="edge23" class="edge">
<title>Node18&#45;&gt;Node13</title>
<path fill="none" stroke="#191970" d="M1171.6415,-280.2899C1177.5703,-250.5837 1190.9146,-160.0376 1145.5,-112 1117.6942,-82.5882 997.6604,-71.4358 939.007,-67.6854"/>
<polygon fill="#191970" stroke="#191970" points="938.9986,-64.1786 928.8055,-67.0685 938.576,-71.1658 938.9986,-64.1786"/>
</g>
<!-- Node19&#45;&gt;Node4 -->
<g id="edge26" class="edge">
<title>Node19&#45;&gt;Node4</title>
<path fill="none" stroke="#191970" d="M586.4166,-112.0814C585.7545,-97.7877 582.4241,-71.4245 567.5,-56 563.6608,-52.0321 501.9857,-32.9562 461.1916,-20.6493"/>
<polygon fill="#191970" stroke="#191970" points="462.1552,-17.2843 451.5708,-17.7554 460.1388,-23.9876 462.1552,-17.2843"/>
</g>
<!-- Node19&#45;&gt;Node13 -->
<g id="edge28" class="edge">
<title>Node19&#45;&gt;Node13</title>
<path fill="none" stroke="#191970" d="M641.1464,-112.4369C708.0867,-100.7223 819.3167,-81.2571 874.0493,-71.6789"/>
<polygon fill="#191970" stroke="#191970" points="874.9657,-75.0718 884.2127,-69.9003 873.759,-68.1766 874.9657,-75.0718"/>
</g>
<!-- Node19&#45;&gt;Node15 -->
<g id="edge25" class="edge">
<title>Node19&#45;&gt;Node15</title>
<path fill="none" stroke="#191970" d="M527.4136,-112.4369C466.9544,-102.6516 373.0812,-87.4582 309.3095,-77.1368"/>
<polygon fill="#191970" stroke="#191970" points="309.7734,-73.6664 299.3427,-75.5237 308.655,-80.5765 309.7734,-73.6664"/>
</g>
<!-- Node19&#45;&gt;Node16 -->
<g id="edge30" class="edge">
<title>Node19&#45;&gt;Node16</title>
<path fill="none" stroke="#191970" d="M545.5152,-112.4369C500.3996,-101.9099 428.46,-85.124 384.5498,-74.8783"/>
<polygon fill="#191970" stroke="#191970" points="385.0916,-71.4108 374.5578,-72.5468 383.5009,-78.2276 385.0916,-71.4108"/>
</g>
<!-- Node19&#45;&gt;Node17 -->
<g id="edge27" class="edge">
<title>Node19&#45;&gt;Node17</title>
<path fill="none" stroke="#191970" d="M563.9803,-112.3733C542.7628,-103.3032 510.7724,-89.6279 487.0231,-79.4755"/>
<polygon fill="#191970" stroke="#191970" points="488.2967,-76.2136 477.7258,-75.5011 485.5452,-82.6502 488.2967,-76.2136"/>
</g>
<!-- Node20 -->
<g id="node21" class="node">
<title>Node20</title>
<polygon fill="none" stroke="#bfbfbf" points="498.5,-56.5 498.5,-75.5 558.5,-75.5 558.5,-56.5 498.5,-56.5"/>
<text text-anchor="middle" x="528.5" y="-63.5" font-family="FreeSans.ttf" font-size="10.00" fill="#000000">iostream</text>
</g>
<!-- Node19&#45;&gt;Node20 -->
<g id="edge29" class="edge">
<title>Node19&#45;&gt;Node20</title>
<path fill="none" stroke="#191970" d="M576.3972,-112.2455C567.9972,-104.1352 555.8506,-92.4075 545.8916,-82.7919"/>
<polygon fill="#191970" stroke="#191970" points="548.1122,-80.0707 538.4871,-75.6427 543.25,-85.1066 548.1122,-80.0707"/>
</g>
<!-- Node21&#45;&gt;Node14 -->
<g id="edge32" class="edge">
<title>Node21&#45;&gt;Node14</title>
<path fill="none" stroke="#191970" d="M463.2715,-392.4006C483.3594,-371.4631 515.5,-331.4816 515.5,-290 515.5,-290 515.5,-290 515.5,-234 515.5,-181.6513 455.7874,-150.5356 412.4773,-134.8519"/>
<polygon fill="#191970" stroke="#191970" points="413.5598,-131.5229 402.965,-131.5557 411.2678,-138.1371 413.5598,-131.5229"/>
</g>
<!-- Node22 -->
<g id="node23" class="node">
<title>Node22</title>
<g id="a_node23"><a xlink:href="GeomVector3_8h.html" target="_top" xlink:title="iDynTree/Core/GeomVector3.h">
<polygon fill="none" stroke="#000000" points="286,-168.5 286,-187.5 449,-187.5 449,-168.5 286,-168.5"/>
<text text-anchor="middle" x="367.5" y="-175.5" font-family="FreeSans.ttf" font-size="10.00" fill="#000000">iDynTree/Core/GeomVector3.h</text>
</a>
</g>
</g>
<!-- Node21&#45;&gt;Node22 -->
<g id="edge33" class="edge">
<title>Node21&#45;&gt;Node22</title>
<path fill="none" stroke="#191970" d="M453.448,-392.2379C458.3022,-377.6252 463.5934,-355.0488 458.5,-336 443.5221,-279.9838 403.3879,-223.2368 381.7661,-195.4841"/>
<polygon fill="#191970" stroke="#191970" points="384.4107,-193.1861 375.4519,-187.53 378.9281,-197.5384 384.4107,-193.1861"/>
</g>
<!-- Node23 -->
<g id="node24" class="node">
<title>Node23</title>
<g id="a_node24"><a xlink:href="SpatialVector_8h.html" target="_top" xlink:title="iDynTree/Core/SpatialVector.h">
<polygon fill="none" stroke="#000000" points="288,-336.5 288,-355.5 449,-355.5 449,-336.5 288,-336.5"/>
<text text-anchor="middle" x="368.5" y="-343.5" font-family="FreeSans.ttf" font-size="10.00" fill="#000000">iDynTree/Core/SpatialVector.h</text>
</a>
</g>
</g>
<!-- Node21&#45;&gt;Node23 -->
<g id="edge35" class="edge">
<title>Node21&#45;&gt;Node23</title>
<path fill="none" stroke="#191970" d="M427.9719,-392.2977C416.2063,-383.1384 401.2325,-371.4816 389.2535,-362.1562"/>
<polygon fill="#191970" stroke="#191970" points="391.1898,-359.228 381.1489,-355.8469 386.8897,-364.7516 391.1898,-359.228"/>
</g>
<!-- Node22&#45;&gt;Node14 -->
<g id="edge34" class="edge">
<title>Node22&#45;&gt;Node14</title>
<path fill="none" stroke="#191970" d="M367.6742,-168.2455C367.8047,-160.9382 367.9876,-150.6944 368.1481,-141.7046"/>
<polygon fill="#191970" stroke="#191970" points="371.6486,-141.7036 368.3278,-131.6427 364.6497,-141.5786 371.6486,-141.7036"/>
</g>
<!-- Node23&#45;&gt;Node15 -->
<g id="edge49" class="edge">
<title>Node23&#45;&gt;Node15</title>
<path fill="none" stroke="#191970" d="M355.4027,-336.4687C344.1464,-327.8282 327.9638,-314.291 316.5,-300 263.2594,-233.6294 246.8582,-128.8668 242.201,-85.6451"/>
<polygon fill="#191970" stroke="#191970" points="245.6756,-85.2142 241.216,-75.6037 238.7091,-85.8977 245.6756,-85.2142"/>
</g>
<!-- Node23&#45;&gt;Node16 -->
<g id="edge52" class="edge">
<title>Node23&#45;&gt;Node16</title>
<path fill="none" stroke="#191970" d="M360.5481,-336.47C341.5937,-313.0547 294.0989,-250.0786 277.5,-188 273.2392,-172.0651 270.5462,-128.296 279.5,-112 286.9903,-98.3676 300.4543,-87.9458 313.358,-80.4976"/>
<polygon fill="#191970" stroke="#191970" points="315.3803,-83.386 322.5614,-75.5962 312.0899,-77.2076 315.3803,-83.386"/>
</g>
<!-- Node23&#45;&gt;Node20 -->
<g id="edge51" class="edge">
<title>Node23&#45;&gt;Node20</title>
<path fill="none" stroke="#191970" d="M374.1259,-336.4633C388.5171,-311.9961 427.7039,-244.9185 458.5,-188 476.5666,-154.6087 478.1906,-144.6884 497.5,-112 503.1113,-102.5008 509.9086,-92.2914 515.7066,-83.9097"/>
<polygon fill="#191970" stroke="#191970" points="518.6222,-85.8481 521.5025,-75.6523 512.8927,-81.8265 518.6222,-85.8481"/>
</g>
<!-- Node23&#45;&gt;Node22 -->
<g id="edge50" class="edge">
<title>Node23&#45;&gt;Node22</title>
<path fill="none" stroke="#191970" d="M368.4434,-336.4862C368.2853,-309.9293 367.8367,-234.5651 367.62,-198.1655"/>
<polygon fill="#191970" stroke="#191970" points="371.1181,-197.8068 367.5585,-187.8279 364.1182,-197.8486 371.1181,-197.8068"/>
</g>
<!-- Node24 -->
<g id="node25" class="node">
<title>Node24</title>
<g id="a_node25"><a xlink:href="Position_8h.html" target="_top" xlink:title="Position.h">
<polygon fill="none" stroke="#000000" points="708,-280.5 708,-299.5 773,-299.5 773,-280.5 708,-280.5"/>
<text text-anchor="middle" x="740.5" y="-287.5" font-family="FreeSans.ttf" font-size="10.00" fill="#000000">Position.h</text>
</a>
</g>
</g>
<!-- Node23&#45;&gt;Node24 -->
<g id="edge36" class="edge">
<title>Node23&#45;&gt;Node24</title>
<path fill="none" stroke="#191970" d="M432.0264,-336.4369C507.8626,-325.0207 632.5963,-306.2436 697.7887,-296.4297"/>
<polygon fill="#191970" stroke="#191970" points="698.3563,-299.8837 707.7239,-294.934 697.3142,-292.9617 698.3563,-299.8837"/>
</g>
<!-- Node26 -->
<g id="node27" class="node">
<title>Node26</title>
<g id="a_node27"><a xlink:href="Rotation_8h.html" target="_top" xlink:title="iDynTree/Core/Rotation.h">
<polygon fill="none" stroke="#000000" points="582,-224.5 582,-243.5 719,-243.5 719,-224.5 582,-224.5"/>
<text text-anchor="middle" x="650.5" y="-231.5" font-family="FreeSans.ttf" font-size="10.00" fill="#000000">iDynTree/Core/Rotation.h</text>
</a>
</g>
</g>
<!-- Node23&#45;&gt;Node26 -->
<g id="edge48" class="edge">
<title>Node23&#45;&gt;Node26</title>
<path fill="none" stroke="#191970" d="M392.5432,-336.4509C442.9073,-316.4482 559.5758,-270.1117 617.1442,-247.2477"/>
<polygon fill="#191970" stroke="#191970" points="618.5158,-250.469 626.5177,-243.5249 615.9319,-243.9633 618.5158,-250.469"/>
</g>
<!-- Node24&#45;&gt;Node13 -->
<g id="edge47" class="edge">
<title>Node24&#45;&gt;Node13</title>
<path fill="none" stroke="#191970" d="M773.1958,-284.0272C824.5138,-273.1528 924.5923,-245.7057 987.5,-188 1014.1421,-163.5611 1036.5348,-142.0943 1016.5,-112 999.3606,-86.2549 964.7569,-74.8923 938.9135,-69.8935"/>
<polygon fill="#191970" stroke="#191970" points="939.245,-66.3996 928.799,-68.1687 938.0683,-73.3 939.245,-66.3996"/>
</g>
<!-- Node25 -->
<g id="node26" class="node">
<title>Node25</title>
<g id="a_node26"><a xlink:href="PositionRaw_8h.html" target="_top" xlink:title="iDynTree/Core/PositionRaw.h">
<polygon fill="none" stroke="#000000" points="619.5,-168.5 619.5,-187.5 775.5,-187.5 775.5,-168.5 619.5,-168.5"/>
<text text-anchor="middle" x="697.5" y="-175.5" font-family="FreeSans.ttf" font-size="10.00" fill="#000000">iDynTree/Core/PositionRaw.h</text>
</a>
</g>
</g>
<!-- Node24&#45;&gt;Node25 -->
<g id="edge37" class="edge">
<title>Node24&#45;&gt;Node25</title>
<path fill="none" stroke="#191970" d="M739.98,-280.2546C739,-267.0615 736.2251,-242.9858 728.5,-224 724.3953,-213.9118 717.8672,-203.7595 711.858,-195.5686"/>
<polygon fill="#191970" stroke="#191970" points="714.5546,-193.3338 705.6803,-187.5462 709.0085,-197.6047 714.5546,-193.3338"/>
</g>
<!-- Node24&#45;&gt;Node26 -->
<g id="edge40" class="edge">
<title>Node24&#45;&gt;Node26</title>
<path fill="none" stroke="#191970" d="M724.8232,-280.2455C711.0144,-271.6534 690.6807,-259.0014 674.7708,-249.1018"/>
<polygon fill="#191970" stroke="#191970" points="676.3368,-245.954 665.9972,-243.6427 672.6387,-251.8974 676.3368,-245.954"/>
</g>
<!-- Node25&#45;&gt;Node13 -->
<g id="edge39" class="edge">
<title>Node25&#45;&gt;Node13</title>
<path fill="none" stroke="#191970" d="M712.0029,-168.4924C732.6058,-155.1547 771.715,-130.4556 806.5,-112 828.986,-100.0697 855.1458,-88.1008 875.0683,-79.3633"/>
<polygon fill="#191970" stroke="#191970" points="876.5288,-82.5449 884.3041,-75.348 873.7378,-76.1254 876.5288,-82.5449"/>
</g>
<!-- Node25&#45;&gt;Node14 -->
<g id="edge38" class="edge">
<title>Node25&#45;&gt;Node14</title>
<path fill="none" stroke="#191970" d="M641.3167,-168.4369C584.0646,-158.6918 495.3013,-143.5832 434.6787,-133.2645"/>
<polygon fill="#191970" stroke="#191970" points="434.8971,-129.7514 424.4516,-131.5237 433.7225,-136.6521 434.8971,-129.7514"/>
</g>
<!-- Node26&#45;&gt;Node13 -->
<g id="edge41" class="edge">
<title>Node26&#45;&gt;Node13</title>
<path fill="none" stroke="#191970" d="M719.3365,-230.1145C798.1138,-224.5832 921.3073,-212.2939 960.5,-188 992.7691,-167.9978 1019.5292,-144.2523 999.5,-112 986.21,-90.5995 959.6857,-78.8528 938.3531,-72.599"/>
<polygon fill="#191970" stroke="#191970" points="939.2454,-69.2147 928.6815,-70.0245 937.4447,-75.9792 939.2454,-69.2147"/>
</g>
<!-- Node26&#45;&gt;Node14 -->
<g id="edge46" class="edge">
<title>Node26&#45;&gt;Node14</title>
<path fill="none" stroke="#191970" d="M635.3773,-224.3204C612.9855,-210.3244 569.3567,-184.3285 529.5,-168 494.4255,-153.6307 453.3137,-141.9656 421.4136,-133.9777"/>
<polygon fill="#191970" stroke="#191970" points="421.946,-130.5044 411.3995,-131.5147 420.2741,-137.3019 421.946,-130.5044"/>
</g>
<!-- Node26&#45;&gt;Node22 -->
<g id="edge42" class="edge">
<title>Node26&#45;&gt;Node22</title>
<path fill="none" stroke="#191970" d="M602.1721,-224.4369C553.3319,-214.7724 477.8324,-199.8326 425.7236,-189.5213"/>
<polygon fill="#191970" stroke="#191970" points="426.1178,-186.0315 415.6285,-187.5237 424.7589,-192.8983 426.1178,-186.0315"/>
</g>
<!-- Node27 -->
<g id="node28" class="node">
<title>Node27</title>
<g id="a_node28"><a xlink:href="RotationRaw_8h.html" target="_top" xlink:title="iDynTree/Core/RotationRaw.h">
<polygon fill="none" stroke="#000000" points="793.5,-168.5 793.5,-187.5 951.5,-187.5 951.5,-168.5 793.5,-168.5"/>
<text text-anchor="middle" x="872.5" y="-175.5" font-family="FreeSans.ttf" font-size="10.00" fill="#000000">iDynTree/Core/RotationRaw.h</text>
</a>
</g>
</g>
<!-- Node26&#45;&gt;Node27 -->
<g id="edge43" class="edge">
<title>Node26&#45;&gt;Node27</title>
<path fill="none" stroke="#191970" d="M688.4109,-224.4369C726.165,-214.9133 784.2265,-200.2672 825.0264,-189.9753"/>
<polygon fill="#191970" stroke="#191970" points="825.9053,-193.3633 834.7454,-187.5237 824.1931,-186.576 825.9053,-193.3633"/>
</g>
<!-- Node27&#45;&gt;Node13 -->
<g id="edge45" class="edge">
<title>Node27&#45;&gt;Node13</title>
<path fill="none" stroke="#191970" d="M853.0281,-168.342C831.272,-156.1828 800.7866,-134.1888 814.5,-112 827.4895,-90.9825 853.3118,-79.2468 874.3012,-72.8991"/>
<polygon fill="#191970" stroke="#191970" points="875.4225,-76.2208 884.1394,-70.1987 873.5697,-69.4705 875.4225,-76.2208"/>
</g>
<!-- Node27&#45;&gt;Node19 -->
<g id="edge44" class="edge">
<title>Node27&#45;&gt;Node19</title>
<path fill="none" stroke="#191970" d="M823.6598,-168.4369C774.199,-158.7522 697.684,-143.7703 645.012,-133.4569"/>
<polygon fill="#191970" stroke="#191970" points="645.625,-130.0105 635.1387,-131.5237 644.2798,-136.8801 645.625,-130.0105"/>
</g>
<!-- Node28&#45;&gt;Node14 -->
<g id="edge54" class="edge">
<title>Node28&#45;&gt;Node14</title>
<path fill="none" stroke="#191970" d="M264.2133,-392.4791C253.6795,-352.2576 230.6464,-240.2724 277.5,-168 287.4013,-152.727 304.0288,-142.3021 320.3823,-135.2945"/>
<polygon fill="#191970" stroke="#191970" points="321.8938,-138.4613 329.9263,-131.5527 319.3387,-131.9443 321.8938,-138.4613"/>
</g>
<!-- Node28&#45;&gt;Node22 -->
<g id="edge55" class="edge">
<title>Node28&#45;&gt;Node22</title>
<path fill="none" stroke="#191970" d="M269.2715,-392.3403C270.3809,-377.6068 273.0621,-354.7702 279.5,-336 298.0786,-281.8326 334.8505,-224.6519 354.4629,-196.2447"/>
<polygon fill="#191970" stroke="#191970" points="357.5355,-197.9587 360.4052,-187.7599 351.8018,-193.9431 357.5355,-197.9587"/>
</g>
<!-- Node28&#45;&gt;Node23 -->
<g id="edge56" class="edge">
<title>Node28&#45;&gt;Node23</title>
<path fill="none" stroke="#191970" d="M292.9628,-392.4554C308.6235,-382.8241 328.8532,-370.3828 344.4356,-360.7996"/>
<polygon fill="#191970" stroke="#191970" points="346.319,-363.7503 353.0035,-355.5303 342.652,-357.7876 346.319,-363.7503"/>
</g>
<!-- Node29&#45;&gt;Node13 -->
<g id="edge61" class="edge">
<title>Node29&#45;&gt;Node13</title>
<path fill="none" stroke="#191970" d="M798.8757,-336.4592C830.2472,-329.5716 868.6954,-318.1944 899.5,-300 960.1133,-264.1994 972.929,-246.8891 1011.5,-188 1030.7671,-158.5836 1053.692,-140.7893 1033.5,-112 1022.3341,-96.0799 972.336,-81.4815 938.5049,-73.1736"/>
<polygon fill="#191970" stroke="#191970" points="939.1252,-69.7234 928.5855,-70.8028 937.4979,-76.5316 939.1252,-69.7234"/>
</g>
<!-- Node29&#45;&gt;Node19 -->
<g id="edge60" class="edge">
<title>Node29&#45;&gt;Node19</title>
<path fill="none" stroke="#191970" d="M771.7099,-336.4241C846.8949,-311.8652 1027.0668,-243.2557 960.5,-168 942.0173,-147.1047 782.1301,-133.6327 677.4763,-126.9682"/>
<polygon fill="#191970" stroke="#191970" points="677.4118,-123.4574 667.2125,-126.325 676.974,-130.4437 677.4118,-123.4574"/>
</g>
<!-- Node29&#45;&gt;Node24 -->
<g id="edge58" class="edge">
<title>Node29&#45;&gt;Node24</title>
<path fill="none" stroke="#191970" d="M740.5,-336.2455C740.5,-328.9382 740.5,-318.6944 740.5,-309.7046"/>
<polygon fill="#191970" stroke="#191970" points="744.0001,-309.6426 740.5,-299.6427 737.0001,-309.6427 744.0001,-309.6426"/>
</g>
<!-- Node29&#45;&gt;Node26 -->
<g id="edge59" class="edge">
<title>Node29&#45;&gt;Node26</title>
<path fill="none" stroke="#191970" d="M731.4426,-336.3508C722.9566,-327.1924 710.0367,-312.9418 699.5,-300 686.6154,-284.1743 672.836,-265.4351 663.1818,-251.9753"/>
<polygon fill="#191970" stroke="#191970" points="665.8704,-249.717 657.2189,-243.6012 660.1682,-253.7773 665.8704,-249.717"/>
</g>
</g>
</svg>
