<?xml version="1.0" encoding="UTF-8" standalone="no"?>
<!DOCTYPE svg PUBLIC "-//W3C//DTD SVG 1.1//EN"
 "http://www.w3.org/Graphics/SVG/1.1/DTD/svg11.dtd">
<!-- Generated by graphviz version 2.40.1 (20161225.0304)
 -->
<!-- Title: ExternalWrenchesEstimation.h Pages: 1 -->
<svg width="1572pt" height="610pt"
 viewBox="0.00 0.00 1571.50 610.00" xmlns="http://www.w3.org/2000/svg" xmlns:xlink="http://www.w3.org/1999/xlink">
<g id="graph0" class="graph" transform="scale(1 1) rotate(0) translate(4 606)">
<title>ExternalWrenchesEstimation.h</title>
<!-- Node0 -->
<g id="node1" class="node">
<title>Node0</title>
<polygon fill="#bfbfbf" stroke="#000000" points="912,-582.5 912,-601.5 1078,-601.5 1078,-582.5 912,-582.5"/>
<text text-anchor="middle" x="995" y="-589.5" font-family="FreeSans.ttf" font-size="10.00" fill="#000000">ExternalWrenchesEstimation.h</text>
</g>
<!-- Node1 -->
<g id="node2" class="node">
<title>Node1</title>
<g id="a_node2"><a xlink:href="Direction_8h.html" target="_top" xlink:title="iDynTree/Core/Direction.h">
<polygon fill="none" stroke="#000000" points="174.5,-174 174.5,-193 315.5,-193 315.5,-174 174.5,-174"/>
<text text-anchor="middle" x="245" y="-181" font-family="FreeSans.ttf" font-size="10.00" fill="#000000">iDynTree/Core/Direction.h</text>
</a>
</g>
</g>
<!-- Node0&#45;&gt;Node1 -->
<g id="edge1" class="edge">
<title>Node0&#45;&gt;Node1</title>
<path fill="none" stroke="#191970" d="M911.8412,-589.1157C745.3944,-582.9262 382.6751,-567.1933 330,-546 287.5548,-528.9226 251,-525.7519 251,-480 251,-480 251,-480 251,-301 251,-266.5952 248.4025,-226.5973 246.6257,-203.2606"/>
<polygon fill="#191970" stroke="#191970" points="250.1108,-202.9337 245.8343,-193.2404 243.1326,-203.4849 250.1108,-202.9337"/>
</g>
<!-- Node3 -->
<g id="node4" class="node">
<title>Node3</title>
<g id="a_node4"><a xlink:href="VectorFixSize_8h.html" target="_top" xlink:title="iDynTree/Core/VectorFixSize.h">
<polygon fill="none" stroke="#000000" points="487.5,-112.5 487.5,-131.5 648.5,-131.5 648.5,-112.5 487.5,-112.5"/>
<text text-anchor="middle" x="568" y="-119.5" font-family="FreeSans.ttf" font-size="10.00" fill="#000000">iDynTree/Core/VectorFixSize.h</text>
</a>
</g>
</g>
<!-- Node0&#45;&gt;Node3 -->
<g id="edge45" class="edge">
<title>Node0&#45;&gt;Node3</title>
<path fill="none" stroke="#191970" d="M911.7766,-590.866C751.1427,-587.9626 410.3807,-578.0597 368,-546 343.1075,-527.1695 344,-511.2125 344,-480 344,-480 344,-480 344,-301 344,-232.9187 366.9122,-210.6234 420,-168 440.56,-151.4927 467.0652,-140.8828 491.9518,-134.0741"/>
<polygon fill="#191970" stroke="#191970" points="492.9422,-137.4335 501.7591,-131.5587 491.203,-130.6529 492.9422,-137.4335"/>
</g>
<!-- Node17 -->
<g id="node18" class="node">
<title>Node17</title>
<g id="a_node18"><a xlink:href="Position_8h.html" target="_top" xlink:title="iDynTree/Core/Position.h">
<polygon fill="none" stroke="#000000" points="842,-291.5 842,-310.5 978,-310.5 978,-291.5 842,-291.5"/>
<text text-anchor="middle" x="910" y="-298.5" font-family="FreeSans.ttf" font-size="10.00" fill="#000000">iDynTree/Core/Position.h</text>
</a>
</g>
</g>
<!-- Node0&#45;&gt;Node17 -->
<g id="edge21" class="edge">
<title>Node0&#45;&gt;Node17</title>
<path fill="none" stroke="#191970" d="M937.7237,-582.4828C886.2621,-570.5694 813.628,-544.647 779,-490 737.0422,-423.7859 836.5065,-347.9615 885.1401,-316.219"/>
<polygon fill="#191970" stroke="#191970" points="887.3183,-318.9807 893.8584,-310.6454 883.5478,-313.0829 887.3183,-318.9807"/>
</g>
<!-- Node24 -->
<g id="node25" class="node">
<title>Node24</title>
<g id="a_node25"><a xlink:href="MatrixDynSize_8h.html" target="_top" xlink:title="iDynTree/Core/MatrixDynSize.h">
<polygon fill="none" stroke="#000000" points="1321.5,-291.5 1321.5,-310.5 1488.5,-310.5 1488.5,-291.5 1321.5,-291.5"/>
<text text-anchor="middle" x="1405" y="-298.5" font-family="FreeSans.ttf" font-size="10.00" fill="#000000">iDynTree/Core/MatrixDynSize.h</text>
</a>
</g>
</g>
<!-- Node0&#45;&gt;Node24 -->
<g id="edge40" class="edge">
<title>Node0&#45;&gt;Node24</title>
<path fill="none" stroke="#191970" d="M1078.1546,-585.1643C1149.4314,-578.1122 1245.7119,-565.3877 1279,-546 1311.5088,-527.0662 1332,-517.6206 1332,-480 1332,-480 1332,-480 1332,-418.5 1332,-377.4332 1364.5713,-338.8027 1386.2007,-317.677"/>
<polygon fill="#191970" stroke="#191970" points="1388.7139,-320.1179 1393.5938,-310.7137 1383.9145,-315.0222 1388.7139,-320.1179"/>
</g>
<!-- Node25 -->
<g id="node26" class="node">
<title>Node25</title>
<g id="a_node26"><a xlink:href="VectorDynSize_8h.html" target="_top" xlink:title="iDynTree/Core/VectorDynSize.h">
<polygon fill="none" stroke="#000000" points="272.5,-112.5 272.5,-131.5 439.5,-131.5 439.5,-112.5 272.5,-112.5"/>
<text text-anchor="middle" x="356" y="-119.5" font-family="FreeSans.ttf" font-size="10.00" fill="#000000">iDynTree/Core/VectorDynSize.h</text>
</a>
</g>
</g>
<!-- Node0&#45;&gt;Node25 -->
<g id="edge42" class="edge">
<title>Node0&#45;&gt;Node25</title>
<path fill="none" stroke="#191970" d="M911.6901,-585.3301C744.0846,-570.7879 382,-533.2137 382,-480 382,-480 382,-480 382,-301 382,-242.5717 368.2656,-174.5192 360.7612,-141.697"/>
<polygon fill="#191970" stroke="#191970" points="364.0911,-140.5663 358.3994,-131.6301 357.2761,-142.1652 364.0911,-140.5663"/>
</g>
<!-- Node26 -->
<g id="node27" class="node">
<title>Node26</title>
<g id="a_node27"><a xlink:href="Indices_8h.html" target="_top" xlink:title="iDynTree/Model/Indices.h">
<polygon fill="none" stroke="#000000" points="1360,-470.5 1360,-489.5 1498,-489.5 1498,-470.5 1360,-470.5"/>
<text text-anchor="middle" x="1429" y="-477.5" font-family="FreeSans.ttf" font-size="10.00" fill="#000000">iDynTree/Model/Indices.h</text>
</a>
</g>
</g>
<!-- Node0&#45;&gt;Node26 -->
<g id="edge46" class="edge">
<title>Node0&#45;&gt;Node26</title>
<path fill="none" stroke="#191970" d="M1078.0282,-586.2619C1166.1981,-579.2627 1299.1785,-565.854 1346,-546 1372.5574,-534.7387 1397.6987,-512.5378 1413.2084,-497.0074"/>
<polygon fill="#191970" stroke="#191970" points="1415.9528,-499.2047 1420.3975,-489.5873 1410.9254,-494.3338 1415.9528,-499.2047"/>
</g>
<!-- Node27 -->
<g id="node28" class="node">
<title>Node27</title>
<g id="a_node28"><a xlink:href="LinkState_8h.html" target="_top" xlink:title="iDynTree/Model/LinkState.h">
<polygon fill="none" stroke="#000000" points="1121.5,-526.5 1121.5,-545.5 1270.5,-545.5 1270.5,-526.5 1121.5,-526.5"/>
<text text-anchor="middle" x="1196" y="-533.5" font-family="FreeSans.ttf" font-size="10.00" fill="#000000">iDynTree/Model/LinkState.h</text>
</a>
</g>
</g>
<!-- Node0&#45;&gt;Node27 -->
<g id="edge48" class="edge">
<title>Node0&#45;&gt;Node27</title>
<path fill="none" stroke="#191970" d="M1029.5531,-582.3733C1063.4104,-572.9404 1115.146,-558.5265 1151.9426,-548.2747"/>
<polygon fill="#191970" stroke="#191970" points="1153.204,-551.5566 1161.8978,-545.5011 1151.3253,-544.8135 1153.204,-551.5566"/>
</g>
<!-- Node36 -->
<g id="node37" class="node">
<title>Node36</title>
<polygon fill="none" stroke="#bfbfbf" points="1516.5,-470.5 1516.5,-489.5 1563.5,-489.5 1563.5,-470.5 1516.5,-470.5"/>
<text text-anchor="middle" x="1540" y="-477.5" font-family="FreeSans.ttf" font-size="10.00" fill="#000000">vector</text>
</g>
<!-- Node0&#45;&gt;Node36 -->
<g id="edge77" class="edge">
<title>Node0&#45;&gt;Node36</title>
<path fill="none" stroke="#191970" d="M1078.1362,-588.3337C1156.3153,-583.4031 1276.093,-572.0117 1377,-546 1426.0299,-533.3611 1479.9419,-509.399 1511.8335,-494.0889"/>
<polygon fill="#191970" stroke="#191970" points="1513.5297,-497.1561 1520.9942,-489.6374 1510.4702,-490.8601 1513.5297,-497.1561"/>
</g>
<!-- Node2 -->
<g id="node3" class="node">
<title>Node2</title>
<polygon fill="none" stroke="#bfbfbf" points="1083,-56.5 1083,-75.5 1127,-75.5 1127,-56.5 1083,-56.5"/>
<text text-anchor="middle" x="1105" y="-63.5" font-family="FreeSans.ttf" font-size="10.00" fill="#000000">string</text>
</g>
<!-- Node1&#45;&gt;Node2 -->
<g id="edge2" class="edge">
<title>Node1&#45;&gt;Node2</title>
<path fill="none" stroke="#191970" d="M315.5751,-178.7337C482.3679,-167.3834 889.1227,-139.1663 918,-132 939.6369,-126.6305 943.1574,-119.9105 964,-112 1000.8774,-98.0037 1044.1085,-84.2867 1072.8847,-75.5264"/>
<polygon fill="#191970" stroke="#191970" points="1074.2339,-78.775 1082.7939,-72.5318 1072.2089,-72.0743 1074.2339,-78.775"/>
</g>
<!-- Node1&#45;&gt;Node3 -->
<g id="edge3" class="edge">
<title>Node1&#45;&gt;Node3</title>
<path fill="none" stroke="#191970" d="M295.1144,-173.9581C352.6038,-163.012 446.8082,-145.0752 508.1132,-133.4026"/>
<polygon fill="#191970" stroke="#191970" points="508.865,-136.8224 518.0338,-131.5137 507.5556,-129.946 508.865,-136.8224"/>
</g>
<!-- Node4 -->
<g id="node5" class="node">
<title>Node4</title>
<g id="a_node5"><a xlink:href="Utils_8h.html" target="_top" xlink:title="iDynTree/Core/Utils.h">
<polygon fill="none" stroke="#000000" points="423.5,-56.5 423.5,-75.5 542.5,-75.5 542.5,-56.5 423.5,-56.5"/>
<text text-anchor="middle" x="483" y="-63.5" font-family="FreeSans.ttf" font-size="10.00" fill="#000000">iDynTree/Core/Utils.h</text>
</a>
</g>
</g>
<!-- Node1&#45;&gt;Node4 -->
<g id="edge20" class="edge">
<title>Node1&#45;&gt;Node4</title>
<path fill="none" stroke="#191970" d="M244.4392,-173.5854C244.1453,-158.1135 246.0117,-128.3138 263,-112 273.9808,-101.4552 353.3327,-86.6719 413.6145,-76.7365"/>
<polygon fill="#191970" stroke="#191970" points="414.1846,-80.1899 423.4898,-75.1239 413.0564,-73.2814 414.1846,-80.1899"/>
</g>
<!-- Node3&#45;&gt;Node2 -->
<g id="edge16" class="edge">
<title>Node3&#45;&gt;Node2</title>
<path fill="none" stroke="#191970" d="M648.6848,-113.5859C769.0191,-101.0371 990.1879,-77.973 1072.7745,-69.3606"/>
<polygon fill="#191970" stroke="#191970" points="1073.2326,-72.8319 1082.8156,-68.3135 1072.5065,-65.8696 1073.2326,-72.8319"/>
</g>
<!-- Node3&#45;&gt;Node4 -->
<g id="edge4" class="edge">
<title>Node3&#45;&gt;Node4</title>
<path fill="none" stroke="#191970" d="M553.1941,-112.2455C540.2744,-103.7337 521.3069,-91.2375 506.3448,-81.3801"/>
<polygon fill="#191970" stroke="#191970" points="507.9124,-78.2216 497.6362,-75.6427 504.0613,-84.067 507.9124,-78.2216"/>
</g>
<!-- Node6 -->
<g id="node7" class="node">
<title>Node6</title>
<g id="a_node7"><a xlink:href="Span_8h.html" target="_top" xlink:title="iDynTree/Core/Span.h">
<polygon fill="none" stroke="#000000" points="284.5,-56.5 284.5,-75.5 405.5,-75.5 405.5,-56.5 284.5,-56.5"/>
<text text-anchor="middle" x="345" y="-63.5" font-family="FreeSans.ttf" font-size="10.00" fill="#000000">iDynTree/Core/Span.h</text>
</a>
</g>
</g>
<!-- Node3&#45;&gt;Node6 -->
<g id="edge6" class="edge">
<title>Node3&#45;&gt;Node6</title>
<path fill="none" stroke="#191970" d="M529.9183,-112.4369C491.9941,-102.9133 433.6711,-88.2672 392.6874,-77.9753"/>
<polygon fill="#191970" stroke="#191970" points="393.476,-74.5647 382.9246,-75.5237 391.771,-81.3539 393.476,-74.5647"/>
</g>
<!-- Node7 -->
<g id="node8" class="node">
<title>Node7</title>
<polygon fill="none" stroke="#bfbfbf" points="581,-.5 581,-19.5 633,-19.5 633,-.5 581,-.5"/>
<text text-anchor="middle" x="607" y="-7.5" font-family="FreeSans.ttf" font-size="10.00" fill="#000000">cassert</text>
</g>
<!-- Node3&#45;&gt;Node7 -->
<g id="edge18" class="edge">
<title>Node3&#45;&gt;Node7</title>
<path fill="none" stroke="#191970" d="M571.1813,-112.1262C575.3737,-99.1925 583.0336,-75.8278 590,-56 593.0957,-47.1892 596.6595,-37.4838 599.7219,-29.2679"/>
<polygon fill="#191970" stroke="#191970" points="603.0243,-30.4295 603.26,-19.8373 596.4704,-27.9707 603.0243,-30.4295"/>
</g>
<!-- Node15 -->
<g id="node16" class="node">
<title>Node15</title>
<polygon fill="none" stroke="#bfbfbf" points="667,-56.5 667,-75.5 723,-75.5 723,-56.5 667,-56.5"/>
<text text-anchor="middle" x="695" y="-63.5" font-family="FreeSans.ttf" font-size="10.00" fill="#000000">sstream</text>
</g>
<!-- Node3&#45;&gt;Node15 -->
<g id="edge17" class="edge">
<title>Node3&#45;&gt;Node15</title>
<path fill="none" stroke="#191970" d="M589.8321,-112.3733C610.3103,-103.3435 641.1399,-89.7494 664.1319,-79.6111"/>
<polygon fill="#191970" stroke="#191970" points="665.715,-82.7383 673.4528,-75.5011 662.8907,-76.3333 665.715,-82.7383"/>
</g>
<!-- Node16 -->
<g id="node17" class="node">
<title>Node16</title>
<polygon fill="none" stroke="#bfbfbf" points="599,-56.5 599,-75.5 649,-75.5 649,-56.5 599,-56.5"/>
<text text-anchor="middle" x="624" y="-63.5" font-family="FreeSans.ttf" font-size="10.00" fill="#000000">cstring</text>
</g>
<!-- Node3&#45;&gt;Node16 -->
<g id="edge19" class="edge">
<title>Node3&#45;&gt;Node16</title>
<path fill="none" stroke="#191970" d="M577.7545,-112.2455C585.8648,-104.1352 597.5925,-92.4075 607.2081,-82.7919"/>
<polygon fill="#191970" stroke="#191970" points="609.7611,-85.1887 614.3573,-75.6427 604.8113,-80.2389 609.7611,-85.1887"/>
</g>
<!-- Node5 -->
<g id="node6" class="node">
<title>Node5</title>
<polygon fill="none" stroke="#bfbfbf" points="509.5,-.5 509.5,-19.5 562.5,-19.5 562.5,-.5 509.5,-.5"/>
<text text-anchor="middle" x="536" y="-7.5" font-family="FreeSans.ttf" font-size="10.00" fill="#000000">cstddef</text>
</g>
<!-- Node4&#45;&gt;Node5 -->
<g id="edge5" class="edge">
<title>Node4&#45;&gt;Node5</title>
<path fill="none" stroke="#191970" d="M492.2319,-56.2455C499.8317,-48.2155 510.7877,-36.6394 519.8368,-27.0781"/>
<polygon fill="#191970" stroke="#191970" points="522.5421,-29.3115 526.8739,-19.6427 517.458,-24.4998 522.5421,-29.3115"/>
</g>
<!-- Node6&#45;&gt;Node5 -->
<g id="edge10" class="edge">
<title>Node6&#45;&gt;Node5</title>
<path fill="none" stroke="#191970" d="M377.8341,-56.3733C411.7139,-46.4399 464.433,-30.983 499.5755,-20.6794"/>
<polygon fill="#191970" stroke="#191970" points="500.8223,-23.9613 509.4336,-17.7891 498.8528,-17.244 500.8223,-23.9613"/>
</g>
<!-- Node6&#45;&gt;Node7 -->
<g id="edge7" class="edge">
<title>Node6&#45;&gt;Node7</title>
<path fill="none" stroke="#191970" d="M397.2919,-56.4349C443.2452,-47.7728 511.8235,-34.2228 571,-20 571.0985,-19.9763 571.1972,-19.9525 571.2961,-19.9287"/>
<polygon fill="#191970" stroke="#191970" points="571.882,-23.3913 580.7093,-17.5323 570.1549,-16.6076 571.882,-23.3913"/>
</g>
<!-- Node8 -->
<g id="node9" class="node">
<title>Node8</title>
<polygon fill="none" stroke="#bfbfbf" points="0,-.5 0,-19.5 64,-19.5 64,-.5 0,-.5"/>
<text text-anchor="middle" x="32" y="-7.5" font-family="FreeSans.ttf" font-size="10.00" fill="#000000">algorithm</text>
</g>
<!-- Node6&#45;&gt;Node8 -->
<g id="edge8" class="edge">
<title>Node6&#45;&gt;Node8</title>
<path fill="none" stroke="#191970" d="M284.2699,-57.0063C231.2599,-48.8657 152.0576,-36.0059 74.1647,-20.1327"/>
<polygon fill="#191970" stroke="#191970" points="74.6797,-16.6654 64.1797,-18.0796 73.2698,-23.522 74.6797,-16.6654"/>
</g>
<!-- Node9 -->
<g id="node10" class="node">
<title>Node9</title>
<polygon fill="none" stroke="#bfbfbf" points="82,-.5 82,-19.5 124,-19.5 124,-.5 82,-.5"/>
<text text-anchor="middle" x="103" y="-7.5" font-family="FreeSans.ttf" font-size="10.00" fill="#000000">array</text>
</g>
<!-- Node6&#45;&gt;Node9 -->
<g id="edge9" class="edge">
<title>Node6&#45;&gt;Node9</title>
<path fill="none" stroke="#191970" d="M293.6483,-56.4734C252.7551,-48.5226 193.9069,-36.2713 134.1958,-20.1214"/>
<polygon fill="#191970" stroke="#191970" points="134.7878,-16.6547 124.2183,-17.3881 132.9382,-23.406 134.7878,-16.6547"/>
</g>
<!-- Node10 -->
<g id="node11" class="node">
<title>Node10</title>
<polygon fill="none" stroke="#bfbfbf" points="142.5,-.5 142.5,-19.5 195.5,-19.5 195.5,-.5 142.5,-.5"/>
<text text-anchor="middle" x="169" y="-7.5" font-family="FreeSans.ttf" font-size="10.00" fill="#000000">iterator</text>
</g>
<!-- Node6&#45;&gt;Node10 -->
<g id="edge11" class="edge">
<title>Node6&#45;&gt;Node10</title>
<path fill="none" stroke="#191970" d="M314.7445,-56.3733C284.3719,-46.7093 237.5683,-31.8172 205.2333,-21.5288"/>
<polygon fill="#191970" stroke="#191970" points="206.2875,-18.1914 195.697,-18.4945 204.165,-24.8618 206.2875,-18.1914"/>
</g>
<!-- Node11 -->
<g id="node12" class="node">
<title>Node11</title>
<polygon fill="none" stroke="#bfbfbf" points="214,-.5 214,-19.5 258,-19.5 258,-.5 214,-.5"/>
<text text-anchor="middle" x="236" y="-7.5" font-family="FreeSans.ttf" font-size="10.00" fill="#000000">limits</text>
</g>
<!-- Node6&#45;&gt;Node11 -->
<g id="edge12" class="edge">
<title>Node6&#45;&gt;Node11</title>
<path fill="none" stroke="#191970" d="M326.0136,-56.2455C308.8208,-47.4125 283.2762,-34.2887 263.7868,-24.2758"/>
<polygon fill="#191970" stroke="#191970" points="265.263,-21.0993 254.7688,-19.6427 262.0641,-27.3257 265.263,-21.0993"/>
</g>
<!-- Node12 -->
<g id="node13" class="node">
<title>Node12</title>
<polygon fill="none" stroke="#bfbfbf" points="276.5,-.5 276.5,-19.5 341.5,-19.5 341.5,-.5 276.5,-.5"/>
<text text-anchor="middle" x="309" y="-7.5" font-family="FreeSans.ttf" font-size="10.00" fill="#000000">stdexcept</text>
</g>
<!-- Node6&#45;&gt;Node12 -->
<g id="edge13" class="edge">
<title>Node6&#45;&gt;Node12</title>
<path fill="none" stroke="#191970" d="M338.7293,-56.2455C333.7736,-48.5367 326.717,-37.5598 320.7224,-28.2348"/>
<polygon fill="#191970" stroke="#191970" points="323.5506,-26.1618 315.1989,-19.6427 317.6624,-29.9471 323.5506,-26.1618"/>
</g>
<!-- Node13 -->
<g id="node14" class="node">
<title>Node13</title>
<polygon fill="none" stroke="#bfbfbf" points="359.5,-.5 359.5,-19.5 428.5,-19.5 428.5,-.5 359.5,-.5"/>
<text text-anchor="middle" x="394" y="-7.5" font-family="FreeSans.ttf" font-size="10.00" fill="#000000">type_traits</text>
</g>
<!-- Node6&#45;&gt;Node13 -->
<g id="edge14" class="edge">
<title>Node6&#45;&gt;Node13</title>
<path fill="none" stroke="#191970" d="M353.5351,-56.2455C360.4912,-48.2958 370.4883,-36.8706 378.8051,-27.3656"/>
<polygon fill="#191970" stroke="#191970" points="381.6116,-29.4732 385.5627,-19.6427 376.3436,-24.8637 381.6116,-29.4732"/>
</g>
<!-- Node14 -->
<g id="node15" class="node">
<title>Node14</title>
<polygon fill="none" stroke="#bfbfbf" points="446.5,-.5 446.5,-19.5 491.5,-19.5 491.5,-.5 446.5,-.5"/>
<text text-anchor="middle" x="469" y="-7.5" font-family="FreeSans.ttf" font-size="10.00" fill="#000000">utility</text>
</g>
<!-- Node6&#45;&gt;Node14 -->
<g id="edge15" class="edge">
<title>Node6&#45;&gt;Node14</title>
<path fill="none" stroke="#191970" d="M366.3164,-56.3733C386.2216,-47.3838 416.1436,-33.8706 438.56,-23.7471"/>
<polygon fill="#191970" stroke="#191970" points="440.2887,-26.8068 447.9618,-19.5011 437.4075,-20.4272 440.2887,-26.8068"/>
</g>
<!-- Node17&#45;&gt;Node2 -->
<g id="edge39" class="edge">
<title>Node17&#45;&gt;Node2</title>
<path fill="none" stroke="#191970" d="M978.1864,-291.4804C1033.1573,-279.8437 1107.1635,-254.3355 1144,-199 1165.4281,-166.8108 1158.5451,-148.2193 1145,-112 1140.8851,-100.9969 1132.8185,-90.8874 1125.0006,-82.9652"/>
<polygon fill="#191970" stroke="#191970" points="1127.0985,-80.1329 1117.4212,-75.82 1122.2968,-85.2264 1127.0985,-80.1329"/>
</g>
<!-- Node18 -->
<g id="node19" class="node">
<title>Node18</title>
<g id="a_node19"><a xlink:href="PositionRaw_8h.html" target="_top" xlink:title="iDynTree/Core/PositionRaw.h">
<polygon fill="none" stroke="#000000" points="782,-174 782,-193 938,-193 938,-174 782,-174"/>
<text text-anchor="middle" x="860" y="-181" font-family="FreeSans.ttf" font-size="10.00" fill="#000000">iDynTree/Core/PositionRaw.h</text>
</a>
</g>
</g>
<!-- Node17&#45;&gt;Node18 -->
<g id="edge22" class="edge">
<title>Node17&#45;&gt;Node18</title>
<path fill="none" stroke="#191970" d="M907.827,-291.3521C904.7132,-278.2695 898.4161,-254.3186 890,-235 884.9788,-223.4742 877.9662,-211.2883 871.9835,-201.6652"/>
<polygon fill="#191970" stroke="#191970" points="874.7902,-199.5573 866.4561,-193.0156 868.8917,-203.3267 874.7902,-199.5573"/>
</g>
<!-- Node19 -->
<g id="node20" class="node">
<title>Node19</title>
<g id="a_node20"><a xlink:href="Rotation_8h.html" target="_top" xlink:title="iDynTree/Core/Rotation.h">
<polygon fill="none" stroke="#000000" points="744.5,-235.5 744.5,-254.5 881.5,-254.5 881.5,-235.5 744.5,-235.5"/>
<text text-anchor="middle" x="813" y="-242.5" font-family="FreeSans.ttf" font-size="10.00" fill="#000000">iDynTree/Core/Rotation.h</text>
</a>
</g>
</g>
<!-- Node17&#45;&gt;Node19 -->
<g id="edge25" class="edge">
<title>Node17&#45;&gt;Node19</title>
<path fill="none" stroke="#191970" d="M893.1039,-291.2455C878.082,-282.5731 855.8957,-269.7645 838.679,-259.825"/>
<polygon fill="#191970" stroke="#191970" points="840.1128,-256.6114 829.7025,-254.6427 836.6129,-262.6737 840.1128,-256.6114"/>
</g>
<!-- Node18&#45;&gt;Node2 -->
<g id="edge24" class="edge">
<title>Node18&#45;&gt;Node2</title>
<path fill="none" stroke="#191970" d="M880.0494,-173.8845C923.3171,-153.1336 1025.5967,-104.0812 1075.9569,-79.9289"/>
<polygon fill="#191970" stroke="#191970" points="1077.5141,-83.0638 1085.0172,-75.5836 1074.487,-76.7521 1077.5141,-83.0638"/>
</g>
<!-- Node18&#45;&gt;Node3 -->
<g id="edge23" class="edge">
<title>Node18&#45;&gt;Node3</title>
<path fill="none" stroke="#191970" d="M814.6954,-173.9581C763.1204,-163.0956 678.8592,-145.3488 623.414,-133.6711"/>
<polygon fill="#191970" stroke="#191970" points="623.9176,-130.2004 613.4109,-131.5643 622.4749,-137.0502 623.9176,-130.2004"/>
</g>
<!-- Node19&#45;&gt;Node2 -->
<g id="edge26" class="edge">
<title>Node19&#45;&gt;Node2</title>
<path fill="none" stroke="#191970" d="M881.7961,-239.5122C968.2982,-231.9022 1107.4524,-217.0249 1123,-199 1150.7723,-166.8026 1129.8045,-112.9269 1115.4715,-84.6392"/>
<polygon fill="#191970" stroke="#191970" points="1118.5485,-82.9707 1110.7693,-75.7781 1112.3652,-86.252 1118.5485,-82.9707"/>
</g>
<!-- Node19&#45;&gt;Node3 -->
<g id="edge38" class="edge">
<title>Node19&#45;&gt;Node3</title>
<path fill="none" stroke="#191970" d="M793.7753,-235.3484C750.7492,-213.7475 646.5318,-161.4262 596.1707,-136.1428"/>
<polygon fill="#191970" stroke="#191970" points="597.6428,-132.9656 587.1354,-131.6068 594.502,-139.2215 597.6428,-132.9656"/>
</g>
<!-- Node20 -->
<g id="node21" class="node">
<title>Node20</title>
<g id="a_node21"><a xlink:href="GeomVector3_8h.html" target="_top" xlink:title="iDynTree/Core/GeomVector3.h">
<polygon fill="none" stroke="#000000" points="486.5,-174 486.5,-193 649.5,-193 649.5,-174 486.5,-174"/>
<text text-anchor="middle" x="568" y="-181" font-family="FreeSans.ttf" font-size="10.00" fill="#000000">iDynTree/Core/GeomVector3.h</text>
</a>
</g>
</g>
<!-- Node19&#45;&gt;Node20 -->
<g id="edge27" class="edge">
<title>Node19&#45;&gt;Node20</title>
<path fill="none" stroke="#191970" d="M774.9876,-235.4581C732.1629,-224.7082 662.4792,-207.2162 615.9501,-195.5365"/>
<polygon fill="#191970" stroke="#191970" points="616.6529,-192.1043 606.1016,-193.0643 614.9485,-198.8937 616.6529,-192.1043"/>
</g>
<!-- Node21 -->
<g id="node22" class="node">
<title>Node21</title>
<g id="a_node22"><a xlink:href="RotationRaw_8h.html" target="_top" xlink:title="iDynTree/Core/RotationRaw.h">
<polygon fill="none" stroke="#000000" points="956,-174 956,-193 1114,-193 1114,-174 956,-174"/>
<text text-anchor="middle" x="1035" y="-181" font-family="FreeSans.ttf" font-size="10.00" fill="#000000">iDynTree/Core/RotationRaw.h</text>
</a>
</g>
</g>
<!-- Node19&#45;&gt;Node21 -->
<g id="edge29" class="edge">
<title>Node19&#45;&gt;Node21</title>
<path fill="none" stroke="#191970" d="M847.6875,-235.3906C886.2984,-224.6944 948.786,-207.3836 990.8548,-195.7294"/>
<polygon fill="#191970" stroke="#191970" points="991.8535,-199.0847 1000.5561,-193.0419 989.9846,-192.3387 991.8535,-199.0847"/>
</g>
<!-- Node20&#45;&gt;Node3 -->
<g id="edge28" class="edge">
<title>Node20&#45;&gt;Node3</title>
<path fill="none" stroke="#191970" d="M568,-173.8906C568,-165.3657 568,-152.6392 568,-141.9235"/>
<polygon fill="#191970" stroke="#191970" points="571.5001,-141.7448 568,-131.7449 564.5001,-141.7449 571.5001,-141.7448"/>
</g>
<!-- Node21&#45;&gt;Node2 -->
<g id="edge37" class="edge">
<title>Node21&#45;&gt;Node2</title>
<path fill="none" stroke="#191970" d="M1040.7284,-173.8845C1052.3677,-154.3471 1078.9534,-109.7211 1094.032,-84.4106"/>
<polygon fill="#191970" stroke="#191970" points="1097.0812,-86.1307 1099.1925,-75.7484 1091.0675,-82.5481 1097.0812,-86.1307"/>
</g>
<!-- Node22 -->
<g id="node23" class="node">
<title>Node22</title>
<g id="a_node23"><a xlink:href="MatrixFixSize_8h.html" target="_top" xlink:title="iDynTree/Core/MatrixFixSize.h">
<polygon fill="none" stroke="#000000" points="748.5,-112.5 748.5,-131.5 909.5,-131.5 909.5,-112.5 748.5,-112.5"/>
<text text-anchor="middle" x="829" y="-119.5" font-family="FreeSans.ttf" font-size="10.00" fill="#000000">iDynTree/Core/MatrixFixSize.h</text>
</a>
</g>
</g>
<!-- Node21&#45;&gt;Node22 -->
<g id="edge30" class="edge">
<title>Node21&#45;&gt;Node22</title>
<path fill="none" stroke="#191970" d="M1002.8125,-173.8906C967.2867,-163.2846 909.9774,-146.1753 870.9559,-134.5257"/>
<polygon fill="#191970" stroke="#191970" points="871.5448,-131.0489 860.9615,-131.5419 869.5423,-137.7564 871.5448,-131.0489"/>
</g>
<!-- Node22&#45;&gt;Node2 -->
<g id="edge34" class="edge">
<title>Node22&#45;&gt;Node2</title>
<path fill="none" stroke="#191970" d="M876.1325,-112.4369C932.2167,-101.0575 1024.3463,-82.3645 1072.842,-72.5248"/>
<polygon fill="#191970" stroke="#191970" points="1073.6766,-75.9269 1082.7809,-70.5082 1072.2846,-69.0667 1073.6766,-75.9269"/>
</g>
<!-- Node22&#45;&gt;Node4 -->
<g id="edge31" class="edge">
<title>Node22&#45;&gt;Node4</title>
<path fill="none" stroke="#191970" d="M769.9136,-112.4369C709.4544,-102.6516 615.5812,-87.4582 551.8095,-77.1368"/>
<polygon fill="#191970" stroke="#191970" points="552.2734,-73.6664 541.8427,-75.5237 551.155,-80.5765 552.2734,-73.6664"/>
</g>
<!-- Node22&#45;&gt;Node7 -->
<g id="edge32" class="edge">
<title>Node22&#45;&gt;Node7</title>
<path fill="none" stroke="#191970" d="M829.1105,-112.3784C828.7257,-97.9713 825.7795,-70.8978 810,-56 786.278,-33.6034 695.0328,-19.9166 643.3156,-13.7948"/>
<polygon fill="#191970" stroke="#191970" points="643.5583,-10.2998 633.2244,-12.6369 642.7602,-17.2542 643.5583,-10.2998"/>
</g>
<!-- Node22&#45;&gt;Node15 -->
<g id="edge36" class="edge">
<title>Node22&#45;&gt;Node15</title>
<path fill="none" stroke="#191970" d="M805.9646,-112.3733C784.2612,-103.3032 751.5382,-89.6279 727.245,-79.4755"/>
<polygon fill="#191970" stroke="#191970" points="728.3111,-76.1278 717.7348,-75.5011 725.6119,-82.5865 728.3111,-76.1278"/>
</g>
<!-- Node22&#45;&gt;Node16 -->
<g id="edge33" class="edge">
<title>Node22&#45;&gt;Node16</title>
<path fill="none" stroke="#191970" d="M792.5724,-112.4634C759.9383,-103.8615 710.528,-90.6946 658.8954,-76.2111"/>
<polygon fill="#191970" stroke="#191970" points="659.8064,-72.8315 649.2322,-73.4921 657.9104,-79.5699 659.8064,-72.8315"/>
</g>
<!-- Node23 -->
<g id="node24" class="node">
<title>Node23</title>
<polygon fill="none" stroke="#bfbfbf" points="741,-56.5 741,-75.5 801,-75.5 801,-56.5 741,-56.5"/>
<text text-anchor="middle" x="771" y="-63.5" font-family="FreeSans.ttf" font-size="10.00" fill="#000000">iostream</text>
</g>
<!-- Node22&#45;&gt;Node23 -->
<g id="edge35" class="edge">
<title>Node22&#45;&gt;Node23</title>
<path fill="none" stroke="#191970" d="M818.8972,-112.2455C810.4972,-104.1352 798.3506,-92.4075 788.3916,-82.7919"/>
<polygon fill="#191970" stroke="#191970" points="790.6122,-80.0707 780.9871,-75.6427 785.75,-85.1066 790.6122,-80.0707"/>
</g>
<!-- Node24&#45;&gt;Node2 -->
<g id="edge41" class="edge">
<title>Node24&#45;&gt;Node2</title>
<path fill="none" stroke="#191970" d="M1411.6335,-291.3931C1426.7749,-268.1644 1460.5904,-207.9314 1434,-168 1400.3656,-117.4905 1213.2797,-82.9593 1137.1915,-70.8175"/>
<polygon fill="#191970" stroke="#191970" points="1137.6409,-67.3452 1127.2193,-69.2535 1136.5562,-74.2607 1137.6409,-67.3452"/>
</g>
<!-- Node25&#45;&gt;Node2 -->
<g id="edge44" class="edge">
<title>Node25&#45;&gt;Node2</title>
<path fill="none" stroke="#191970" d="M439.6675,-115.0468C452.5044,-114.0075 465.6051,-112.9626 478,-112 705.6672,-94.3183 979.9848,-74.814 1072.6438,-68.2757"/>
<polygon fill="#191970" stroke="#191970" points="1073.0524,-71.7557 1082.7815,-67.561 1072.5601,-64.773 1073.0524,-71.7557"/>
</g>
<!-- Node25&#45;&gt;Node6 -->
<g id="edge43" class="edge">
<title>Node25&#45;&gt;Node6</title>
<path fill="none" stroke="#191970" d="M354.0839,-112.2455C352.6486,-104.9382 350.6364,-94.6944 348.8705,-85.7046"/>
<polygon fill="#191970" stroke="#191970" points="352.256,-84.7805 346.8941,-75.6427 345.3873,-86.1298 352.256,-84.7805"/>
</g>
<!-- Node26&#45;&gt;Node2 -->
<g id="edge47" class="edge">
<title>Node26&#45;&gt;Node2</title>
<path fill="none" stroke="#191970" d="M1442.2134,-470.4907C1466.5514,-451.7562 1516,-407.4811 1516,-357 1516,-357 1516,-357 1516,-183.5 1516,-104.8155 1234.0048,-75.8644 1137.1809,-68.243"/>
<polygon fill="#191970" stroke="#191970" points="1137.3343,-64.7446 1127.0971,-67.4743 1136.8021,-71.7243 1137.3343,-64.7446"/>
</g>
<!-- Node27&#45;&gt;Node26 -->
<g id="edge75" class="edge">
<title>Node27&#45;&gt;Node26</title>
<path fill="none" stroke="#191970" d="M1235.7894,-526.4369C1275.498,-516.8932 1336.6104,-502.2052 1379.4455,-491.9101"/>
<polygon fill="#191970" stroke="#191970" points="1380.4695,-495.2637 1389.3747,-489.5237 1378.8337,-488.4575 1380.4695,-495.2637"/>
</g>
<!-- Node28 -->
<g id="node29" class="node">
<title>Node28</title>
<g id="a_node29"><a xlink:href="Transform_8h.html" target="_top" xlink:title="iDynTree/Core/Transform.h">
<polygon fill="none" stroke="#000000" points="1107,-347.5 1107,-366.5 1253,-366.5 1253,-347.5 1107,-347.5"/>
<text text-anchor="middle" x="1180" y="-354.5" font-family="FreeSans.ttf" font-size="10.00" fill="#000000">iDynTree/Core/Transform.h</text>
</a>
</g>
</g>
<!-- Node27&#45;&gt;Node28 -->
<g id="edge49" class="edge">
<title>Node27&#45;&gt;Node28</title>
<path fill="none" stroke="#191970" d="M1208.4212,-526.18C1218.0016,-517.7529 1230.5135,-504.6707 1236,-490 1239.1136,-481.6743 1238.0269,-478.6547 1236,-470 1227.6063,-434.1597 1206.0853,-396.6585 1192.2991,-375.1353"/>
<polygon fill="#191970" stroke="#191970" points="1195.1675,-373.1269 1186.7545,-366.687 1189.3153,-376.9677 1195.1675,-373.1269"/>
</g>
<!-- Node29 -->
<g id="node30" class="node">
<title>Node29</title>
<g id="a_node30"><a xlink:href="Twist_8h.html" target="_top" xlink:title="iDynTree/Core/Twist.h">
<polygon fill="none" stroke="#000000" points="788,-470.5 788,-489.5 910,-489.5 910,-470.5 788,-470.5"/>
<text text-anchor="middle" x="849" y="-477.5" font-family="FreeSans.ttf" font-size="10.00" fill="#000000">iDynTree/Core/Twist.h</text>
</a>
</g>
</g>
<!-- Node27&#45;&gt;Node29 -->
<g id="edge54" class="edge">
<title>Node27&#45;&gt;Node29</title>
<path fill="none" stroke="#191970" d="M1136.7428,-526.4369C1076.1089,-516.6516 981.9644,-501.4582 918.0083,-491.1368"/>
<polygon fill="#191970" stroke="#191970" points="918.4427,-487.6617 908.0127,-489.5237 917.3274,-494.5723 918.4427,-487.6617"/>
</g>
<!-- Node32 -->
<g id="node33" class="node">
<title>Node32</title>
<g id="a_node33"><a xlink:href="SpatialAcc_8h.html" target="_top" xlink:title="iDynTree/Core/SpatialAcc.h">
<polygon fill="none" stroke="#000000" points="928,-470.5 928,-489.5 1076,-489.5 1076,-470.5 928,-470.5"/>
<text text-anchor="middle" x="1002" y="-477.5" font-family="FreeSans.ttf" font-size="10.00" fill="#000000">iDynTree/Core/SpatialAcc.h</text>
</a>
</g>
</g>
<!-- Node27&#45;&gt;Node32 -->
<g id="edge65" class="edge">
<title>Node27&#45;&gt;Node32</title>
<path fill="none" stroke="#191970" d="M1162.6502,-526.3733C1129.972,-516.9404 1080.0382,-502.5265 1044.523,-492.2747"/>
<polygon fill="#191970" stroke="#191970" points="1045.493,-488.9119 1034.9146,-489.5011 1043.5516,-495.6373 1045.493,-488.9119"/>
</g>
<!-- Node33 -->
<g id="node34" class="node">
<title>Node33</title>
<g id="a_node34"><a xlink:href="Wrench_8h.html" target="_top" xlink:title="iDynTree/Core/Wrench.h">
<polygon fill="none" stroke="#000000" points="1094.5,-470.5 1094.5,-489.5 1227.5,-489.5 1227.5,-470.5 1094.5,-470.5"/>
<text text-anchor="middle" x="1161" y="-477.5" font-family="FreeSans.ttf" font-size="10.00" fill="#000000">iDynTree/Core/Wrench.h</text>
</a>
</g>
</g>
<!-- Node27&#45;&gt;Node33 -->
<g id="edge67" class="edge">
<title>Node27&#45;&gt;Node33</title>
<path fill="none" stroke="#191970" d="M1189.9035,-526.2455C1185.0855,-518.5367 1178.2249,-507.5598 1172.3968,-498.2348"/>
<polygon fill="#191970" stroke="#191970" points="1175.2947,-496.2677 1167.0267,-489.6427 1169.3587,-499.9777 1175.2947,-496.2677"/>
</g>
<!-- Node35 -->
<g id="node36" class="node">
<title>Node35</title>
<g id="a_node36"><a xlink:href="ArticulatedBodyInertia_8h.html" target="_top" xlink:title="iDynTree/Core/Articulated\lBodyInertia.h">
<polygon fill="none" stroke="#000000" points="1284.5,-168.5 1284.5,-198.5 1425.5,-198.5 1425.5,-168.5 1284.5,-168.5"/>
<text text-anchor="start" x="1292.5" y="-186.5" font-family="FreeSans.ttf" font-size="10.00" fill="#000000">iDynTree/Core/Articulated</text>
<text text-anchor="middle" x="1355" y="-175.5" font-family="FreeSans.ttf" font-size="10.00" fill="#000000">BodyInertia.h</text>
</a>
</g>
</g>
<!-- Node27&#45;&gt;Node35 -->
<g id="edge72" class="edge">
<title>Node27&#45;&gt;Node35</title>
<path fill="none" stroke="#191970" d="M1212.6244,-526.3842C1240.5842,-508.8234 1294,-468.7045 1294,-418.5 1294,-418.5 1294,-418.5 1294,-301 1294,-264.9261 1316.9281,-228.92 1334.6707,-206.4576"/>
<polygon fill="#191970" stroke="#191970" points="1337.5275,-208.4933 1341.1582,-198.54 1332.113,-204.0568 1337.5275,-208.4933"/>
</g>
<!-- Node27&#45;&gt;Node36 -->
<g id="edge76" class="edge">
<title>Node27&#45;&gt;Node36</title>
<path fill="none" stroke="#191970" d="M1270.7152,-528.0831C1331.7185,-520.9011 1420.2476,-508.8462 1506.3729,-489.8588"/>
<polygon fill="#191970" stroke="#191970" points="1507.3243,-493.2326 1516.3182,-487.6325 1505.7951,-486.4016 1507.3243,-493.2326"/>
</g>
<!-- Node28&#45;&gt;Node2 -->
<g id="edge53" class="edge">
<title>Node28&#45;&gt;Node2</title>
<path fill="none" stroke="#191970" d="M1192.5499,-347.4082C1214.136,-329.7155 1256,-289.6472 1256,-245 1256,-245 1256,-245 1256,-183.5 1256,-123.7158 1181.3641,-89.9164 1137.0376,-75.1146"/>
<polygon fill="#191970" stroke="#191970" points="1137.8714,-71.7068 1127.2806,-71.9982 1135.7415,-78.3749 1137.8714,-71.7068"/>
</g>
<!-- Node28&#45;&gt;Node17 -->
<g id="edge50" class="edge">
<title>Node28&#45;&gt;Node17</title>
<path fill="none" stroke="#191970" d="M1133.8921,-347.4369C1087.3925,-337.7925 1015.5641,-322.8948 965.86,-312.5858"/>
<polygon fill="#191970" stroke="#191970" points="966.4201,-309.1275 955.9177,-310.5237 964.9985,-315.9817 966.4201,-309.1275"/>
</g>
<!-- Node28&#45;&gt;Node19 -->
<g id="edge51" class="edge">
<title>Node28&#45;&gt;Node19</title>
<path fill="none" stroke="#191970" d="M1106.71,-351.5025C1011.0837,-343.6915 853.4657,-328.3847 833,-311 819.7658,-299.7581 815.1076,-280.071 813.5559,-265.1156"/>
<polygon fill="#191970" stroke="#191970" points="817.0279,-264.5707 812.8843,-254.8198 810.0427,-265.0264 817.0279,-264.5707"/>
</g>
<!-- Node28&#45;&gt;Node22 -->
<g id="edge52" class="edge">
<title>Node28&#45;&gt;Node22</title>
<path fill="none" stroke="#191970" d="M1180.3667,-347.2973C1180.9785,-315.8774 1178.3062,-216.1702 1123,-168 1093.3268,-142.1555 994.8644,-130.7806 919.9871,-125.8062"/>
<polygon fill="#191970" stroke="#191970" points="919.7894,-122.2867 909.5877,-125.146 919.3458,-129.2727 919.7894,-122.2867"/>
</g>
<!-- Node30 -->
<g id="node31" class="node">
<title>Node30</title>
<g id="a_node31"><a xlink:href="SpatialMotionVector_8h.html" target="_top" xlink:title="iDynTree/Core/SpatialMotion\lVector.h">
<polygon fill="none" stroke="#000000" points="410.5,-403.5 410.5,-433.5 565.5,-433.5 565.5,-403.5 410.5,-403.5"/>
<text text-anchor="start" x="418.5" y="-421.5" font-family="FreeSans.ttf" font-size="10.00" fill="#000000">iDynTree/Core/SpatialMotion</text>
<text text-anchor="middle" x="488" y="-410.5" font-family="FreeSans.ttf" font-size="10.00" fill="#000000">Vector.h</text>
</a>
</g>
</g>
<!-- Node29&#45;&gt;Node30 -->
<g id="edge55" class="edge">
<title>Node29&#45;&gt;Node30</title>
<path fill="none" stroke="#191970" d="M791.2408,-470.4751C738.0447,-461.6637 656.6358,-448.0812 576.1069,-434.182"/>
<polygon fill="#191970" stroke="#191970" points="576.2315,-430.6517 565.7814,-432.3973 575.0391,-437.5495 576.2315,-430.6517"/>
</g>
<!-- Node30&#45;&gt;Node3 -->
<g id="edge56" class="edge">
<title>Node30&#45;&gt;Node3</title>
<path fill="none" stroke="#191970" d="M472.2285,-403.4006C452.1406,-382.4631 420,-342.4816 420,-301 420,-301 420,-301 420,-245 420,-209.154 419.3347,-194.0107 444,-168 459.2761,-151.8906 480.7013,-141.388 501.4515,-134.555"/>
<polygon fill="#191970" stroke="#191970" points="502.6855,-137.838 511.2324,-131.577 500.6465,-131.1416 502.6855,-137.838"/>
</g>
<!-- Node30&#45;&gt;Node20 -->
<g id="edge57" class="edge">
<title>Node30&#45;&gt;Node20</title>
<path fill="none" stroke="#191970" d="M489.5492,-403.1034C493.2425,-370.7139 504.3287,-293.6829 531,-235 536.5802,-222.7223 545.2921,-210.4024 552.8609,-200.892"/>
<polygon fill="#191970" stroke="#191970" points="555.6884,-202.9651 559.3678,-193.0296 550.2956,-198.502 555.6884,-202.9651"/>
</g>
<!-- Node31 -->
<g id="node32" class="node">
<title>Node31</title>
<g id="a_node32"><a xlink:href="SpatialVector_8h.html" target="_top" xlink:title="iDynTree/Core/SpatialVector.h">
<polygon fill="none" stroke="#000000" points="573.5,-347.5 573.5,-366.5 734.5,-366.5 734.5,-347.5 573.5,-347.5"/>
<text text-anchor="middle" x="654" y="-354.5" font-family="FreeSans.ttf" font-size="10.00" fill="#000000">iDynTree/Core/SpatialVector.h</text>
</a>
</g>
</g>
<!-- Node30&#45;&gt;Node31 -->
<g id="edge58" class="edge">
<title>Node30&#45;&gt;Node31</title>
<path fill="none" stroke="#191970" d="M528.6082,-403.4554C556.1842,-393.239 592.2942,-379.8609 618.6782,-370.0861"/>
<polygon fill="#191970" stroke="#191970" points="620.1147,-373.2864 628.2759,-366.5303 617.6828,-366.7224 620.1147,-373.2864"/>
</g>
<!-- Node31&#45;&gt;Node4 -->
<g id="edge61" class="edge">
<title>Node31&#45;&gt;Node4</title>
<path fill="none" stroke="#191970" d="M598.518,-347.4226C481.7409,-326.016 217.0404,-270.5042 165,-199 122.8785,-141.1246 232.7898,-117.9384 247,-112 276.4459,-99.6947 354.9089,-85.6785 413.3301,-76.3851"/>
<polygon fill="#191970" stroke="#191970" points="413.9217,-79.8352 423.2548,-74.8209 412.8318,-72.9206 413.9217,-79.8352"/>
</g>
<!-- Node31&#45;&gt;Node15 -->
<g id="edge64" class="edge">
<title>Node31&#45;&gt;Node15</title>
<path fill="none" stroke="#191970" d="M657.5413,-347.2625C664.2173,-328.0058 678,-283.5786 678,-245 678,-245 678,-245 678,-183.5 678,-148.7822 685.3595,-108.8832 690.394,-85.6508"/>
<polygon fill="#191970" stroke="#191970" points="693.8567,-86.2046 692.6362,-75.6803 687.0273,-84.6687 693.8567,-86.2046"/>
</g>
<!-- Node31&#45;&gt;Node17 -->
<g id="edge59" class="edge">
<title>Node31&#45;&gt;Node17</title>
<path fill="none" stroke="#191970" d="M697.7171,-347.4369C741.6216,-337.8328 809.3413,-323.0191 856.445,-312.7152"/>
<polygon fill="#191970" stroke="#191970" points="857.4422,-316.0799 866.4632,-310.5237 855.9463,-309.2416 857.4422,-316.0799"/>
</g>
<!-- Node31&#45;&gt;Node19 -->
<g id="edge60" class="edge">
<title>Node31&#45;&gt;Node19</title>
<path fill="none" stroke="#191970" d="M671.2967,-347.3734C686.9626,-338.4586 710.5054,-324.5683 730,-311 752.7755,-295.1482 777.5042,-275.0833 793.9908,-261.2617"/>
<polygon fill="#191970" stroke="#191970" points="796.4269,-263.7855 801.807,-254.6583 791.9094,-258.4383 796.4269,-263.7855"/>
</g>
<!-- Node31&#45;&gt;Node20 -->
<g id="edge62" class="edge">
<title>Node31&#45;&gt;Node20</title>
<path fill="none" stroke="#191970" d="M649.2538,-347.4248C635.5422,-319.7625 595.6892,-239.3614 577.3883,-202.4403"/>
<polygon fill="#191970" stroke="#191970" points="580.4147,-200.6648 572.8376,-193.2595 574.1429,-203.7737 580.4147,-200.6648"/>
</g>
<!-- Node31&#45;&gt;Node23 -->
<g id="edge63" class="edge">
<title>Node31&#45;&gt;Node23</title>
<path fill="none" stroke="#191970" d="M663.9614,-347.2152C681.4873,-328.9019 716,-287.4496 716,-245 716,-245 716,-245 716,-183.5 716,-145.0957 740.399,-105.7244 756.6952,-83.7111"/>
<polygon fill="#191970" stroke="#191970" points="759.5714,-85.7122 762.8846,-75.6487 754.0189,-81.4496 759.5714,-85.7122"/>
</g>
<!-- Node32&#45;&gt;Node30 -->
<g id="edge66" class="edge">
<title>Node32&#45;&gt;Node30</title>
<path fill="none" stroke="#191970" d="M927.795,-471.0014C924.825,-470.6597 921.8846,-470.3247 919,-470 769.5228,-453.1749 728.943,-455.389 575.9838,-434.0754"/>
<polygon fill="#191970" stroke="#191970" points="576.1334,-430.5622 565.7437,-432.6371 575.1596,-437.4941 576.1334,-430.5622"/>
</g>
<!-- Node34 -->
<g id="node35" class="node">
<title>Node34</title>
<g id="a_node35"><a xlink:href="SpatialForceVector_8h.html" target="_top" xlink:title="iDynTree/Core/SpatialForce\lVector.h">
<polygon fill="none" stroke="#000000" points="584,-403.5 584,-433.5 732,-433.5 732,-403.5 584,-403.5"/>
<text text-anchor="start" x="592" y="-421.5" font-family="FreeSans.ttf" font-size="10.00" fill="#000000">iDynTree/Core/SpatialForce</text>
<text text-anchor="middle" x="658" y="-410.5" font-family="FreeSans.ttf" font-size="10.00" fill="#000000">Vector.h</text>
</a>
</g>
</g>
<!-- Node33&#45;&gt;Node34 -->
<g id="edge68" class="edge">
<title>Node33&#45;&gt;Node34</title>
<path fill="none" stroke="#191970" d="M1094.2772,-471.1793C1091.1415,-470.7777 1088.0368,-470.3829 1085,-470 965.994,-454.9945 828.207,-438.5425 742.0683,-428.3678"/>
<polygon fill="#191970" stroke="#191970" points="742.4252,-424.8858 732.0839,-427.1893 741.6046,-431.8375 742.4252,-424.8858"/>
</g>
<!-- Node34&#45;&gt;Node3 -->
<g id="edge69" class="edge">
<title>Node34&#45;&gt;Node3</title>
<path fill="none" stroke="#191970" d="M609.2137,-403.484C589.1356,-395.3186 566.9066,-383.4515 551,-367 494.2873,-308.3445 493.8048,-278.8398 477,-199 474.1622,-185.5176 469.7823,-179.7359 477,-168 486.3801,-152.7479 502.5542,-142.3672 518.689,-135.3894"/>
<polygon fill="#191970" stroke="#191970" points="520.1154,-138.5893 528.1328,-131.6631 517.5461,-132.0778 520.1154,-138.5893"/>
</g>
<!-- Node34&#45;&gt;Node20 -->
<g id="edge70" class="edge">
<title>Node34&#45;&gt;Node20</title>
<path fill="none" stroke="#191970" d="M608.8621,-403.4302C591.5609,-395.4949 573.9581,-383.8105 564,-367 532.945,-314.5755 550.5147,-238.0873 561.3954,-202.7334"/>
<polygon fill="#191970" stroke="#191970" points="564.7463,-203.7461 564.4962,-193.1543 558.0865,-201.5903 564.7463,-203.7461"/>
</g>
<!-- Node34&#45;&gt;Node31 -->
<g id="edge71" class="edge">
<title>Node34&#45;&gt;Node31</title>
<path fill="none" stroke="#191970" d="M657.0112,-403.2977C656.4965,-395.3834 655.8604,-385.6043 655.3057,-377.0759"/>
<polygon fill="#191970" stroke="#191970" points="658.7822,-376.5986 654.6405,-366.8469 651.797,-377.053 658.7822,-376.5986"/>
</g>
<!-- Node35&#45;&gt;Node2 -->
<g id="edge74" class="edge">
<title>Node35&#45;&gt;Node2</title>
<path fill="none" stroke="#191970" d="M1341.0814,-168.4489C1325.316,-152.2608 1298.1393,-126.8511 1270,-112 1226.9788,-89.2947 1171.5686,-76.8243 1137.1672,-70.7795"/>
<polygon fill="#191970" stroke="#191970" points="1137.644,-67.3106 1127.2023,-69.1056 1136.4843,-74.2139 1137.644,-67.3106"/>
</g>
<!-- Node35&#45;&gt;Node22 -->
<g id="edge73" class="edge">
<title>Node35&#45;&gt;Node22</title>
<path fill="none" stroke="#191970" d="M1284.3344,-175.2378C1190.1088,-164.2209 1023.2172,-144.7079 919.7717,-132.613"/>
<polygon fill="#191970" stroke="#191970" points="919.9925,-129.1151 909.6536,-131.43 919.1795,-136.0677 919.9925,-129.1151"/>
</g>
</g>
</svg>
