<?xml version="1.0" encoding="UTF-8" standalone="no"?>
<!DOCTYPE svg PUBLIC "-//W3C//DTD SVG 1.1//EN"
 "http://www.w3.org/Graphics/SVG/1.1/DTD/svg11.dtd">
<!-- Generated by graphviz version 2.40.1 (20161225.0304)
 -->
<!-- Title: ExtendedKalmanFilter.cpp Pages: 1 -->
<svg width="1242pt" height="554pt"
 viewBox="0.00 0.00 1241.50 554.00" xmlns="http://www.w3.org/2000/svg" xmlns:xlink="http://www.w3.org/1999/xlink">
<g id="graph0" class="graph" transform="scale(1 1) rotate(0) translate(4 550)">
<title>ExtendedKalmanFilter.cpp</title>
<!-- Node0 -->
<g id="node1" class="node">
<title>Node0</title>
<polygon fill="#bfbfbf" stroke="#000000" points="227,-526.5 227,-545.5 370,-545.5 370,-526.5 227,-526.5"/>
<text text-anchor="middle" x="298.5" y="-533.5" font-family="FreeSans.ttf" font-size="10.00" fill="#000000">ExtendedKalmanFilter.cpp</text>
</g>
<!-- Node1 -->
<g id="node2" class="node">
<title>Node1</title>
<g id="a_node2"><a xlink:href="ExtendedKalmanFilter_8h.html" target="_top" xlink:title="iDynTree/Estimation\l/ExtendedKalmanFilter.h">
<polygon fill="none" stroke="#000000" points="0,-168.5 0,-198.5 135,-198.5 135,-168.5 0,-168.5"/>
<text text-anchor="start" x="8" y="-186.5" font-family="FreeSans.ttf" font-size="10.00" fill="#000000">iDynTree/Estimation</text>
<text text-anchor="middle" x="67.5" y="-175.5" font-family="FreeSans.ttf" font-size="10.00" fill="#000000">/ExtendedKalmanFilter.h</text>
</a>
</g>
</g>
<!-- Node0&#45;&gt;Node1 -->
<g id="edge1" class="edge">
<title>Node0&#45;&gt;Node1</title>
<path fill="none" stroke="#191970" d="M235.6932,-526.4518C176.3957,-513.453 96.5,-483.8191 96.5,-418.5 96.5,-418.5 96.5,-418.5 96.5,-301 96.5,-268.2378 85.7414,-231.7948 77.3301,-208.3092"/>
<polygon fill="#191970" stroke="#191970" points="80.5563,-206.9429 73.7926,-198.788 73.9946,-209.3809 80.5563,-206.9429"/>
</g>
<!-- Node17 -->
<g id="node18" class="node">
<title>Node17</title>
<g id="a_node18"><a xlink:href="EigenHelpers_8h.html" target="_top" xlink:title="iDynTree/Core/EigenHelpers.h">
<polygon fill="none" stroke="#000000" points="471,-470.5 471,-489.5 632,-489.5 632,-470.5 471,-470.5"/>
<text text-anchor="middle" x="551.5" y="-477.5" font-family="FreeSans.ttf" font-size="10.00" fill="#000000">iDynTree/Core/EigenHelpers.h</text>
</a>
</g>
</g>
<!-- Node0&#45;&gt;Node17 -->
<g id="edge19" class="edge">
<title>Node0&#45;&gt;Node17</title>
<path fill="none" stroke="#191970" d="M341.7048,-526.4369C385.0947,-516.8328 452.0209,-502.0191 498.5726,-491.7152"/>
<polygon fill="#191970" stroke="#191970" points="499.4662,-495.1022 508.4734,-489.5237 497.9533,-488.2676 499.4662,-495.1022"/>
</g>
<!-- Node2 -->
<g id="node3" class="node">
<title>Node2</title>
<g id="a_node3"><a xlink:href="VectorDynSize_8h.html" target="_top" xlink:title="iDynTree/Core/VectorDynSize.h">
<polygon fill="none" stroke="#000000" points="229,-112.5 229,-131.5 396,-131.5 396,-112.5 229,-112.5"/>
<text text-anchor="middle" x="312.5" y="-119.5" font-family="FreeSans.ttf" font-size="10.00" fill="#000000">iDynTree/Core/VectorDynSize.h</text>
</a>
</g>
</g>
<!-- Node1&#45;&gt;Node2 -->
<g id="edge2" class="edge">
<title>Node1&#45;&gt;Node2</title>
<path fill="none" stroke="#191970" d="M127.4337,-168.4554C169.6573,-157.8564 225.4371,-143.8546 264.681,-134.0035"/>
<polygon fill="#191970" stroke="#191970" points="265.6868,-137.3597 274.5337,-131.5303 263.9824,-130.5704 265.6868,-137.3597"/>
</g>
<!-- Node14 -->
<g id="node15" class="node">
<title>Node14</title>
<g id="a_node15"><a xlink:href="MatrixDynSize_8h.html" target="_top" xlink:title="iDynTree/Core/MatrixDynSize.h">
<polygon fill="none" stroke="#000000" points="925,-112.5 925,-131.5 1092,-131.5 1092,-112.5 925,-112.5"/>
<text text-anchor="middle" x="1008.5" y="-119.5" font-family="FreeSans.ttf" font-size="10.00" fill="#000000">iDynTree/Core/MatrixDynSize.h</text>
</a>
</g>
</g>
<!-- Node1&#45;&gt;Node14 -->
<g id="edge14" class="edge">
<title>Node1&#45;&gt;Node14</title>
<path fill="none" stroke="#191970" d="M135.1744,-179.0771C300.4868,-168.2729 725.1477,-140.5188 914.7007,-128.1303"/>
<polygon fill="#191970" stroke="#191970" points="915.1711,-131.6072 924.9215,-127.4624 914.7145,-124.6221 915.1711,-131.6072"/>
</g>
<!-- Node15 -->
<g id="node16" class="node">
<title>Node15</title>
<g id="a_node16"><a xlink:href="Utils_8h.html" target="_top" xlink:title="iDynTree/Core/Utils.h">
<polygon fill="none" stroke="#000000" points="113,-56.5 113,-75.5 232,-75.5 232,-56.5 113,-56.5"/>
<text text-anchor="middle" x="172.5" y="-63.5" font-family="FreeSans.ttf" font-size="10.00" fill="#000000">iDynTree/Core/Utils.h</text>
</a>
</g>
</g>
<!-- Node1&#45;&gt;Node15 -->
<g id="edge16" class="edge">
<title>Node1&#45;&gt;Node15</title>
<path fill="none" stroke="#191970" d="M81.2269,-168.1389C100.8324,-146.1994 136.7372,-106.0203 157.183,-83.1404"/>
<polygon fill="#191970" stroke="#191970" points="159.9039,-85.3482 163.9575,-75.5595 154.6843,-80.6839 159.9039,-85.3482"/>
</g>
<!-- Node16 -->
<g id="node17" class="node">
<title>Node16</title>
<polygon fill="none" stroke="#bfbfbf" points="44,-112.5 44,-131.5 91,-131.5 91,-112.5 44,-112.5"/>
<text text-anchor="middle" x="67.5" y="-119.5" font-family="FreeSans.ttf" font-size="10.00" fill="#000000">vector</text>
</g>
<!-- Node1&#45;&gt;Node16 -->
<g id="edge18" class="edge">
<title>Node1&#45;&gt;Node16</title>
<path fill="none" stroke="#191970" d="M67.5,-168.2977C67.5,-160.3834 67.5,-150.6043 67.5,-142.0759"/>
<polygon fill="#191970" stroke="#191970" points="71.0001,-141.8469 67.5,-131.8469 64.0001,-141.847 71.0001,-141.8469"/>
</g>
<!-- Node3 -->
<g id="node4" class="node">
<title>Node3</title>
<g id="a_node4"><a xlink:href="Span_8h.html" target="_top" xlink:title="iDynTree/Core/Span.h">
<polygon fill="none" stroke="#000000" points="357,-56.5 357,-75.5 478,-75.5 478,-56.5 357,-56.5"/>
<text text-anchor="middle" x="417.5" y="-63.5" font-family="FreeSans.ttf" font-size="10.00" fill="#000000">iDynTree/Core/Span.h</text>
</a>
</g>
</g>
<!-- Node2&#45;&gt;Node3 -->
<g id="edge3" class="edge">
<title>Node2&#45;&gt;Node3</title>
<path fill="none" stroke="#191970" d="M330.7896,-112.2455C347.2762,-103.4527 371.7352,-90.4079 390.4765,-80.4125"/>
<polygon fill="#191970" stroke="#191970" points="392.2435,-83.4368 399.42,-75.6427 388.9494,-77.2604 392.2435,-83.4368"/>
</g>
<!-- Node13 -->
<g id="node14" class="node">
<title>Node13</title>
<polygon fill="none" stroke="#bfbfbf" points="875.5,-56.5 875.5,-75.5 919.5,-75.5 919.5,-56.5 875.5,-56.5"/>
<text text-anchor="middle" x="897.5" y="-63.5" font-family="FreeSans.ttf" font-size="10.00" fill="#000000">string</text>
</g>
<!-- Node2&#45;&gt;Node13 -->
<g id="edge13" class="edge">
<title>Node2&#45;&gt;Node13</title>
<path fill="none" stroke="#191970" d="M396.0054,-114.0063C527.5112,-101.4177 776.9961,-77.5354 865.432,-69.0698"/>
<polygon fill="#191970" stroke="#191970" points="865.7788,-72.5526 875.3998,-68.1156 865.1117,-65.5845 865.7788,-72.5526"/>
</g>
<!-- Node4 -->
<g id="node5" class="node">
<title>Node4</title>
<polygon fill="none" stroke="#bfbfbf" points="722.5,-.5 722.5,-19.5 774.5,-19.5 774.5,-.5 722.5,-.5"/>
<text text-anchor="middle" x="748.5" y="-7.5" font-family="FreeSans.ttf" font-size="10.00" fill="#000000">cassert</text>
</g>
<!-- Node3&#45;&gt;Node4 -->
<g id="edge4" class="edge">
<title>Node3&#45;&gt;Node4</title>
<path fill="none" stroke="#191970" d="M478.2456,-56.9725C551.4183,-46.0397 669.0749,-28.256 712.2964,-19.9279"/>
<polygon fill="#191970" stroke="#191970" points="713.1257,-23.3307 722.2159,-17.8883 711.7158,-16.4742 713.1257,-23.3307"/>
</g>
<!-- Node5 -->
<g id="node6" class="node">
<title>Node5</title>
<polygon fill="none" stroke="#bfbfbf" points="580.5,-.5 580.5,-19.5 644.5,-19.5 644.5,-.5 580.5,-.5"/>
<text text-anchor="middle" x="612.5" y="-7.5" font-family="FreeSans.ttf" font-size="10.00" fill="#000000">algorithm</text>
</g>
<!-- Node3&#45;&gt;Node5 -->
<g id="edge5" class="edge">
<title>Node3&#45;&gt;Node5</title>
<path fill="none" stroke="#191970" d="M451.0217,-56.3733C484.1669,-46.8546 534.9735,-32.264 570.7277,-21.9961"/>
<polygon fill="#191970" stroke="#191970" points="571.7405,-25.3468 580.3859,-19.2225 569.8083,-18.6188 571.7405,-25.3468"/>
</g>
<!-- Node6 -->
<g id="node7" class="node">
<title>Node6</title>
<polygon fill="none" stroke="#bfbfbf" points="662.5,-.5 662.5,-19.5 704.5,-19.5 704.5,-.5 662.5,-.5"/>
<text text-anchor="middle" x="683.5" y="-7.5" font-family="FreeSans.ttf" font-size="10.00" fill="#000000">array</text>
</g>
<!-- Node3&#45;&gt;Node6 -->
<g id="edge6" class="edge">
<title>Node3&#45;&gt;Node6</title>
<path fill="none" stroke="#191970" d="M477.634,-56.4874C523.2745,-48.7648 587.6932,-36.792 652.3415,-20.0593"/>
<polygon fill="#191970" stroke="#191970" points="653.5139,-23.3701 662.2969,-17.4447 651.7358,-16.5997 653.5139,-23.3701"/>
</g>
<!-- Node7 -->
<g id="node8" class="node">
<title>Node7</title>
<polygon fill="none" stroke="#bfbfbf" points="142,-.5 142,-19.5 195,-19.5 195,-.5 142,-.5"/>
<text text-anchor="middle" x="168.5" y="-7.5" font-family="FreeSans.ttf" font-size="10.00" fill="#000000">cstddef</text>
</g>
<!-- Node3&#45;&gt;Node7 -->
<g id="edge7" class="edge">
<title>Node3&#45;&gt;Node7</title>
<path fill="none" stroke="#191970" d="M369.5204,-56.4703C328.4282,-48.1212 267.462,-35.292 205.1929,-20.0646"/>
<polygon fill="#191970" stroke="#191970" points="205.7377,-16.5943 195.1908,-17.6005 204.0632,-23.3911 205.7377,-16.5943"/>
</g>
<!-- Node8 -->
<g id="node9" class="node">
<title>Node8</title>
<polygon fill="none" stroke="#bfbfbf" points="213,-.5 213,-19.5 266,-19.5 266,-.5 213,-.5"/>
<text text-anchor="middle" x="239.5" y="-7.5" font-family="FreeSans.ttf" font-size="10.00" fill="#000000">iterator</text>
</g>
<!-- Node3&#45;&gt;Node8 -->
<g id="edge8" class="edge">
<title>Node3&#45;&gt;Node8</title>
<path fill="none" stroke="#191970" d="M386.9007,-56.3733C356.0929,-46.6809 308.5697,-31.7298 275.8577,-21.4384"/>
<polygon fill="#191970" stroke="#191970" points="276.8056,-18.0675 266.2161,-18.4051 274.7048,-24.7449 276.8056,-18.0675"/>
</g>
<!-- Node9 -->
<g id="node10" class="node">
<title>Node9</title>
<polygon fill="none" stroke="#bfbfbf" points="284.5,-.5 284.5,-19.5 328.5,-19.5 328.5,-.5 284.5,-.5"/>
<text text-anchor="middle" x="306.5" y="-7.5" font-family="FreeSans.ttf" font-size="10.00" fill="#000000">limits</text>
</g>
<!-- Node3&#45;&gt;Node9 -->
<g id="edge9" class="edge">
<title>Node3&#45;&gt;Node9</title>
<path fill="none" stroke="#191970" d="M398.4184,-56.3733C380.7598,-47.4644 354.2947,-34.1127 334.2902,-24.0203"/>
<polygon fill="#191970" stroke="#191970" points="335.8372,-20.8806 325.3326,-19.5011 332.6842,-27.1303 335.8372,-20.8806"/>
</g>
<!-- Node10 -->
<g id="node11" class="node">
<title>Node10</title>
<polygon fill="none" stroke="#bfbfbf" points="347,-.5 347,-19.5 412,-19.5 412,-.5 347,-.5"/>
<text text-anchor="middle" x="379.5" y="-7.5" font-family="FreeSans.ttf" font-size="10.00" fill="#000000">stdexcept</text>
</g>
<!-- Node3&#45;&gt;Node10 -->
<g id="edge10" class="edge">
<title>Node3&#45;&gt;Node10</title>
<path fill="none" stroke="#191970" d="M410.8809,-56.2455C405.5954,-48.4564 398.0459,-37.3308 391.6762,-27.9439"/>
<polygon fill="#191970" stroke="#191970" points="394.5545,-25.9522 386.0432,-19.6427 388.7621,-29.8827 394.5545,-25.9522"/>
</g>
<!-- Node11 -->
<g id="node12" class="node">
<title>Node11</title>
<polygon fill="none" stroke="#bfbfbf" points="430,-.5 430,-19.5 499,-19.5 499,-.5 430,-.5"/>
<text text-anchor="middle" x="464.5" y="-7.5" font-family="FreeSans.ttf" font-size="10.00" fill="#000000">type_traits</text>
</g>
<!-- Node3&#45;&gt;Node11 -->
<g id="edge11" class="edge">
<title>Node3&#45;&gt;Node11</title>
<path fill="none" stroke="#191970" d="M425.6868,-56.2455C432.3589,-48.2958 441.9479,-36.8706 449.9253,-27.3656"/>
<polygon fill="#191970" stroke="#191970" points="452.6592,-29.5525 456.407,-19.6427 447.2974,-25.0524 452.6592,-29.5525"/>
</g>
<!-- Node12 -->
<g id="node13" class="node">
<title>Node12</title>
<polygon fill="none" stroke="#bfbfbf" points="517,-.5 517,-19.5 562,-19.5 562,-.5 517,-.5"/>
<text text-anchor="middle" x="539.5" y="-7.5" font-family="FreeSans.ttf" font-size="10.00" fill="#000000">utility</text>
</g>
<!-- Node3&#45;&gt;Node12 -->
<g id="edge12" class="edge">
<title>Node3&#45;&gt;Node12</title>
<path fill="none" stroke="#191970" d="M438.4725,-56.3733C458.0567,-47.3838 487.4961,-33.8706 509.551,-23.7471"/>
<polygon fill="#191970" stroke="#191970" points="511.1729,-26.8538 518.8011,-19.5011 508.2527,-20.4919 511.1729,-26.8538"/>
</g>
<!-- Node14&#45;&gt;Node13 -->
<g id="edge15" class="edge">
<title>Node14&#45;&gt;Node13</title>
<path fill="none" stroke="#191970" d="M989.4184,-112.3733C971.7598,-103.4644 945.2947,-90.1127 925.2902,-80.0203"/>
<polygon fill="#191970" stroke="#191970" points="926.8372,-76.8806 916.3326,-75.5011 923.6842,-83.1303 926.8372,-76.8806"/>
</g>
<!-- Node15&#45;&gt;Node7 -->
<g id="edge17" class="edge">
<title>Node15&#45;&gt;Node7</title>
<path fill="none" stroke="#191970" d="M171.8033,-56.2455C171.2813,-48.9382 170.5496,-38.6944 169.9075,-29.7046"/>
<polygon fill="#191970" stroke="#191970" points="173.3924,-29.3679 169.1888,-19.6427 166.4102,-29.8667 173.3924,-29.3679"/>
</g>
<!-- Node17&#45;&gt;Node2 -->
<g id="edge21" class="edge">
<title>Node17&#45;&gt;Node2</title>
<path fill="none" stroke="#191970" d="M560.5014,-470.2554C568.0319,-461.4783 578.3469,-447.8603 583.5,-434 593.9335,-405.9369 588.9423,-396.8993 590.5,-367 595.4093,-272.7663 588.6545,-228.8098 516.5,-168 498.2277,-152.6006 444.8077,-140.8754 397.2176,-133.1175"/>
<polygon fill="#191970" stroke="#191970" points="397.5906,-129.633 387.1656,-131.5224 396.4935,-136.5465 397.5906,-129.633"/>
</g>
<!-- Node17&#45;&gt;Node14 -->
<g id="edge29" class="edge">
<title>Node17&#45;&gt;Node14</title>
<path fill="none" stroke="#191970" d="M632.0857,-472.9361C804.8864,-456.7035 1195.5,-413.7354 1195.5,-357 1195.5,-357 1195.5,-357 1195.5,-245 1195.5,-182.1321 1120.8131,-149.6007 1065.8402,-134.1711"/>
<polygon fill="#191970" stroke="#191970" points="1066.7375,-130.7881 1056.1718,-131.5739 1064.9214,-137.5484 1066.7375,-130.7881"/>
</g>
<!-- Node17&#45;&gt;Node15 -->
<g id="edge68" class="edge">
<title>Node17&#45;&gt;Node15</title>
<path fill="none" stroke="#191970" d="M470.8122,-477.3707C382.9137,-473.1049 249.242,-462.0873 207.5,-434 174.7984,-411.9958 163.5,-396.4155 163.5,-357 163.5,-357 163.5,-357 163.5,-183.5 163.5,-149.0393 167.3962,-109.0591 170.0615,-85.741"/>
<polygon fill="#191970" stroke="#191970" points="173.5467,-86.0722 171.2486,-75.7296 166.5954,-85.2479 173.5467,-86.0722"/>
</g>
<!-- Node18 -->
<g id="node19" class="node">
<title>Node18</title>
<polygon fill="none" stroke="#bfbfbf" points="631,-409 631,-428 708,-428 708,-409 631,-409"/>
<text text-anchor="middle" x="669.5" y="-416" font-family="FreeSans.ttf" font-size="10.00" fill="#000000">Eigen/Dense</text>
</g>
<!-- Node17&#45;&gt;Node18 -->
<g id="edge20" class="edge">
<title>Node17&#45;&gt;Node18</title>
<path fill="none" stroke="#191970" d="M569.9375,-470.3906C589.3347,-460.2811 620.069,-444.2628 642.2617,-432.6962"/>
<polygon fill="#191970" stroke="#191970" points="643.9418,-435.7675 651.192,-428.0419 640.7064,-429.56 643.9418,-435.7675"/>
</g>
<!-- Node19 -->
<g id="node20" class="node">
<title>Node19</title>
<g id="a_node20"><a xlink:href="VectorFixSize_8h.html" target="_top" xlink:title="iDynTree/Core/VectorFixSize.h">
<polygon fill="none" stroke="#000000" points="452,-112.5 452,-131.5 613,-131.5 613,-112.5 452,-112.5"/>
<text text-anchor="middle" x="532.5" y="-119.5" font-family="FreeSans.ttf" font-size="10.00" fill="#000000">iDynTree/Core/VectorFixSize.h</text>
</a>
</g>
</g>
<!-- Node17&#45;&gt;Node19 -->
<g id="edge22" class="edge">
<title>Node17&#45;&gt;Node19</title>
<path fill="none" stroke="#191970" d="M470.7871,-475.8933C392.4075,-470.5108 280.1809,-458.6794 244.5,-434 212.263,-411.7027 201.5,-396.1969 201.5,-357 201.5,-357 201.5,-357 201.5,-245 201.5,-184.9589 257.3469,-191.7291 312.5,-168 353.2295,-150.4765 401.1464,-139.4464 441.8456,-132.5977"/>
<polygon fill="#191970" stroke="#191970" points="442.4481,-136.0457 451.7575,-130.9876 441.3257,-129.1363 442.4481,-136.0457"/>
</g>
<!-- Node22 -->
<g id="node23" class="node">
<title>Node22</title>
<g id="a_node23"><a xlink:href="MatrixFixSize_8h.html" target="_top" xlink:title="iDynTree/Core/MatrixFixSize.h">
<polygon fill="none" stroke="#000000" points="670,-112.5 670,-131.5 831,-131.5 831,-112.5 670,-112.5"/>
<text text-anchor="middle" x="750.5" y="-119.5" font-family="FreeSans.ttf" font-size="10.00" fill="#000000">iDynTree/Core/MatrixFixSize.h</text>
</a>
</g>
</g>
<!-- Node17&#45;&gt;Node22 -->
<g id="edge30" class="edge">
<title>Node17&#45;&gt;Node22</title>
<path fill="none" stroke="#191970" d="M615.0563,-470.4882C656.3693,-462.8574 704.8272,-450.6621 717.5,-434 789.0813,-339.8854 668.3704,-277.6996 712.5,-168 716.8492,-157.1885 724.7144,-146.9959 732.1654,-138.966"/>
<polygon fill="#191970" stroke="#191970" points="734.7925,-141.287 739.3328,-131.7143 729.8139,-136.3662 734.7925,-141.287"/>
</g>
<!-- Node24 -->
<g id="node25" class="node">
<title>Node24</title>
<g id="a_node25"><a xlink:href="SpatialMotionVector_8h.html" target="_top" xlink:title="iDynTree/Core/SpatialMotion\lVector.h">
<polygon fill="none" stroke="#000000" points="253,-403.5 253,-433.5 408,-433.5 408,-403.5 253,-403.5"/>
<text text-anchor="start" x="261" y="-421.5" font-family="FreeSans.ttf" font-size="10.00" fill="#000000">iDynTree/Core/SpatialMotion</text>
<text text-anchor="middle" x="330.5" y="-410.5" font-family="FreeSans.ttf" font-size="10.00" fill="#000000">Vector.h</text>
</a>
</g>
</g>
<!-- Node17&#45;&gt;Node24 -->
<g id="edge37" class="edge">
<title>Node17&#45;&gt;Node24</title>
<path fill="none" stroke="#191970" d="M516.9688,-470.3906C484.2204,-461.2774 434.218,-447.3627 394.2335,-436.2358"/>
<polygon fill="#191970" stroke="#191970" points="395.135,-432.8537 384.5627,-433.5446 393.2583,-439.5975 395.135,-432.8537"/>
</g>
<!-- Node31 -->
<g id="node32" class="node">
<title>Node31</title>
<g id="a_node32"><a xlink:href="SpatialForceVector_8h.html" target="_top" xlink:title="iDynTree/Core/SpatialForce\lVector.h">
<polygon fill="none" stroke="#000000" points="426.5,-403.5 426.5,-433.5 574.5,-433.5 574.5,-403.5 426.5,-403.5"/>
<text text-anchor="start" x="434.5" y="-421.5" font-family="FreeSans.ttf" font-size="10.00" fill="#000000">iDynTree/Core/SpatialForce</text>
<text text-anchor="middle" x="500.5" y="-410.5" font-family="FreeSans.ttf" font-size="10.00" fill="#000000">Vector.h</text>
</a>
</g>
</g>
<!-- Node17&#45;&gt;Node31 -->
<g id="edge59" class="edge">
<title>Node17&#45;&gt;Node31</title>
<path fill="none" stroke="#191970" d="M543.5313,-470.3906C537.0764,-462.6068 527.7168,-451.3202 519.3739,-441.2597"/>
<polygon fill="#191970" stroke="#191970" points="522.0536,-439.008 512.976,-433.5446 516.6652,-443.4764 522.0536,-439.008"/>
</g>
<!-- Node32 -->
<g id="node33" class="node">
<title>Node32</title>
<g id="a_node33"><a xlink:href="Transform_8h.html" target="_top" xlink:title="iDynTree/Core/Transform.h">
<polygon fill="none" stroke="#000000" points="779.5,-347.5 779.5,-366.5 925.5,-366.5 925.5,-347.5 779.5,-347.5"/>
<text text-anchor="middle" x="852.5" y="-354.5" font-family="FreeSans.ttf" font-size="10.00" fill="#000000">iDynTree/Core/Transform.h</text>
</a>
</g>
</g>
<!-- Node17&#45;&gt;Node32 -->
<g id="edge63" class="edge">
<title>Node17&#45;&gt;Node32</title>
<path fill="none" stroke="#191970" d="M625.7724,-470.43C664.2702,-463.6102 711.3028,-452.305 750.5,-434 783.5702,-418.5563 816.2565,-391.1664 835.3974,-373.5598"/>
<polygon fill="#191970" stroke="#191970" points="837.8356,-376.0715 842.7329,-366.6764 833.0457,-370.9669 837.8356,-376.0715"/>
</g>
<!-- Node19&#45;&gt;Node3 -->
<g id="edge24" class="edge">
<title>Node19&#45;&gt;Node3</title>
<path fill="none" stroke="#191970" d="M512.7308,-112.3733C494.3531,-103.4241 466.7688,-89.9917 446.0107,-79.8835"/>
<polygon fill="#191970" stroke="#191970" points="447.5343,-76.7325 437.0112,-75.5011 444.4696,-83.026 447.5343,-76.7325"/>
</g>
<!-- Node19&#45;&gt;Node4 -->
<g id="edge27" class="edge">
<title>Node19&#45;&gt;Node4</title>
<path fill="none" stroke="#191970" d="M539.6642,-112.4652C550.8889,-98.1716 573.9915,-71.2442 599.5,-56 604.5021,-53.0107 670.1888,-33.2305 712.6594,-20.6003"/>
<polygon fill="#191970" stroke="#191970" points="713.7931,-23.9148 722.383,-17.7128 711.8004,-17.2044 713.7931,-23.9148"/>
</g>
<!-- Node19&#45;&gt;Node13 -->
<g id="edge25" class="edge">
<title>Node19&#45;&gt;Node13</title>
<path fill="none" stroke="#191970" d="M594.831,-112.4369C673.1986,-100.4134 804.7841,-80.2249 865.2891,-70.942"/>
<polygon fill="#191970" stroke="#191970" points="866.0383,-74.368 875.3918,-69.3919 864.9767,-67.449 866.0383,-74.368"/>
</g>
<!-- Node19&#45;&gt;Node15 -->
<g id="edge23" class="edge">
<title>Node19&#45;&gt;Node15</title>
<path fill="none" stroke="#191970" d="M471.0228,-112.4369C407.5103,-102.5572 308.5577,-87.1645 242.1818,-76.8394"/>
<polygon fill="#191970" stroke="#191970" points="242.6455,-73.3695 232.2264,-75.2908 241.5695,-80.2863 242.6455,-73.3695"/>
</g>
<!-- Node20 -->
<g id="node21" class="node">
<title>Node20</title>
<polygon fill="none" stroke="#bfbfbf" points="496.5,-56.5 496.5,-75.5 552.5,-75.5 552.5,-56.5 496.5,-56.5"/>
<text text-anchor="middle" x="524.5" y="-63.5" font-family="FreeSans.ttf" font-size="10.00" fill="#000000">sstream</text>
</g>
<!-- Node19&#45;&gt;Node20 -->
<g id="edge26" class="edge">
<title>Node19&#45;&gt;Node20</title>
<path fill="none" stroke="#191970" d="M531.1065,-112.2455C530.0626,-104.9382 528.5992,-94.6944 527.3149,-85.7046"/>
<polygon fill="#191970" stroke="#191970" points="530.7566,-85.0472 525.8775,-75.6427 523.827,-86.0372 530.7566,-85.0472"/>
</g>
<!-- Node21 -->
<g id="node22" class="node">
<title>Node21</title>
<polygon fill="none" stroke="#bfbfbf" points="608.5,-56.5 608.5,-75.5 658.5,-75.5 658.5,-56.5 608.5,-56.5"/>
<text text-anchor="middle" x="633.5" y="-63.5" font-family="FreeSans.ttf" font-size="10.00" fill="#000000">cstring</text>
</g>
<!-- Node19&#45;&gt;Node21 -->
<g id="edge28" class="edge">
<title>Node19&#45;&gt;Node21</title>
<path fill="none" stroke="#191970" d="M550.0929,-112.2455C565.879,-103.4928 589.2639,-90.527 607.2587,-80.5496"/>
<polygon fill="#191970" stroke="#191970" points="609.0603,-83.5528 616.1087,-75.6427 605.6659,-77.4308 609.0603,-83.5528"/>
</g>
<!-- Node22&#45;&gt;Node4 -->
<g id="edge32" class="edge">
<title>Node22&#45;&gt;Node4</title>
<path fill="none" stroke="#191970" d="M750.3295,-112.4509C750.0033,-94.184 749.2849,-53.9553 748.8517,-29.6976"/>
<polygon fill="#191970" stroke="#191970" points="752.3482,-29.4608 748.6701,-19.5249 745.3493,-29.5858 752.3482,-29.4608"/>
</g>
<!-- Node22&#45;&gt;Node13 -->
<g id="edge34" class="edge">
<title>Node22&#45;&gt;Node13</title>
<path fill="none" stroke="#191970" d="M775.7702,-112.3733C800.7739,-102.848 839.1101,-88.2438 866.0662,-77.9748"/>
<polygon fill="#191970" stroke="#191970" points="867.3378,-81.2358 875.4367,-74.4051 864.8458,-74.6944 867.3378,-81.2358"/>
</g>
<!-- Node22&#45;&gt;Node15 -->
<g id="edge31" class="edge">
<title>Node22&#45;&gt;Node15</title>
<path fill="none" stroke="#191970" d="M669.8275,-114.184C555.997,-103.1554 350.1382,-83.2106 242.4457,-72.7767"/>
<polygon fill="#191970" stroke="#191970" points="242.6277,-69.2781 232.3367,-71.7973 241.9526,-76.2454 242.6277,-69.2781"/>
</g>
<!-- Node22&#45;&gt;Node20 -->
<g id="edge36" class="edge">
<title>Node22&#45;&gt;Node20</title>
<path fill="none" stroke="#191970" d="M711.906,-112.4369C670.0941,-102.0764 603.8157,-85.6534 562.3119,-75.3693"/>
<polygon fill="#191970" stroke="#191970" points="563.1268,-71.9655 552.5785,-72.9575 561.4432,-78.76 563.1268,-71.9655"/>
</g>
<!-- Node22&#45;&gt;Node21 -->
<g id="edge33" class="edge">
<title>Node22&#45;&gt;Node21</title>
<path fill="none" stroke="#191970" d="M730.387,-112.3733C711.6897,-103.4241 683.6256,-89.9917 662.5066,-79.8835"/>
<polygon fill="#191970" stroke="#191970" points="663.8817,-76.6614 653.3506,-75.5011 660.8595,-82.9755 663.8817,-76.6614"/>
</g>
<!-- Node23 -->
<g id="node24" class="node">
<title>Node23</title>
<polygon fill="none" stroke="#bfbfbf" points="676.5,-56.5 676.5,-75.5 736.5,-75.5 736.5,-56.5 676.5,-56.5"/>
<text text-anchor="middle" x="706.5" y="-63.5" font-family="FreeSans.ttf" font-size="10.00" fill="#000000">iostream</text>
</g>
<!-- Node22&#45;&gt;Node23 -->
<g id="edge35" class="edge">
<title>Node22&#45;&gt;Node23</title>
<path fill="none" stroke="#191970" d="M742.8358,-112.2455C736.6527,-104.3761 727.7937,-93.101 720.3711,-83.6542"/>
<polygon fill="#191970" stroke="#191970" points="723.0068,-81.3435 714.0764,-75.6427 717.5025,-85.6683 723.0068,-81.3435"/>
</g>
<!-- Node24&#45;&gt;Node19 -->
<g id="edge38" class="edge">
<title>Node24&#45;&gt;Node19</title>
<path fill="none" stroke="#191970" d="M327.3189,-403.3687C322.9158,-381.0689 315.5,-338.0167 315.5,-301 315.5,-301 315.5,-301 315.5,-245 315.5,-209.6422 310.191,-192.6906 335.5,-168 351.6607,-152.2342 401.276,-140.7019 446.6673,-133.1274"/>
<polygon fill="#191970" stroke="#191970" points="447.2635,-136.5765 456.5759,-131.5238 446.1452,-129.6664 447.2635,-136.5765"/>
</g>
<!-- Node25 -->
<g id="node26" class="node">
<title>Node25</title>
<g id="a_node26"><a xlink:href="GeomVector3_8h.html" target="_top" xlink:title="iDynTree/Core/GeomVector3.h">
<polygon fill="none" stroke="#000000" points="344,-174 344,-193 507,-193 507,-174 344,-174"/>
<text text-anchor="middle" x="425.5" y="-181" font-family="FreeSans.ttf" font-size="10.00" fill="#000000">iDynTree/Core/GeomVector3.h</text>
</a>
</g>
</g>
<!-- Node24&#45;&gt;Node25 -->
<g id="edge39" class="edge">
<title>Node24&#45;&gt;Node25</title>
<path fill="none" stroke="#191970" d="M335.1556,-403.4558C345.1532,-371.7335 370.0108,-295.895 397.5,-235 402.5875,-223.73 409.153,-211.5571 414.6475,-201.877"/>
<polygon fill="#191970" stroke="#191970" points="417.7157,-203.5627 419.6906,-193.1536 411.6555,-200.0592 417.7157,-203.5627"/>
</g>
<!-- Node26 -->
<g id="node27" class="node">
<title>Node26</title>
<g id="a_node27"><a xlink:href="SpatialVector_8h.html" target="_top" xlink:title="iDynTree/Core/SpatialVector.h">
<polygon fill="none" stroke="#000000" points="420,-347.5 420,-366.5 581,-366.5 581,-347.5 420,-347.5"/>
<text text-anchor="middle" x="500.5" y="-354.5" font-family="FreeSans.ttf" font-size="10.00" fill="#000000">iDynTree/Core/SpatialVector.h</text>
</a>
</g>
</g>
<!-- Node24&#45;&gt;Node26 -->
<g id="edge41" class="edge">
<title>Node24&#45;&gt;Node26</title>
<path fill="none" stroke="#191970" d="M372.0867,-403.4554C400.4516,-393.194 437.6333,-379.7429 464.6836,-369.9571"/>
<polygon fill="#191970" stroke="#191970" points="465.9431,-373.2235 474.156,-366.5303 463.5618,-366.641 465.9431,-373.2235"/>
</g>
<!-- Node25&#45;&gt;Node19 -->
<g id="edge40" class="edge">
<title>Node25&#45;&gt;Node19</title>
<path fill="none" stroke="#191970" d="M442.2188,-173.8906C459.5722,-163.9165 486.9323,-148.1908 506.9882,-136.6633"/>
<polygon fill="#191970" stroke="#191970" points="508.9728,-139.5596 515.8987,-131.5419 505.4846,-133.4907 508.9728,-139.5596"/>
</g>
<!-- Node26&#45;&gt;Node15 -->
<g id="edge55" class="edge">
<title>Node26&#45;&gt;Node15</title>
<path fill="none" stroke="#191970" d="M454.3257,-347.4253C425.2556,-340.1495 387.6634,-328.3871 357.5,-311 263.0545,-256.5586 201.434,-132.7204 180.4741,-85.1257"/>
<polygon fill="#191970" stroke="#191970" points="183.5857,-83.5018 176.4196,-75.6982 177.1552,-86.2675 183.5857,-83.5018"/>
</g>
<!-- Node26&#45;&gt;Node20 -->
<g id="edge58" class="edge">
<title>Node26&#45;&gt;Node20</title>
<path fill="none" stroke="#191970" d="M474.1761,-347.3371C408.1175,-321.614 244.5672,-247.9547 301.5,-168 329.8715,-128.1559 360.8343,-151.9366 405.5,-132 414.8756,-127.8152 466.3919,-98.8796 498.4932,-80.7376"/>
<polygon fill="#191970" stroke="#191970" points="500.3921,-83.6847 507.3729,-75.7148 496.9456,-77.5919 500.3921,-83.6847"/>
</g>
<!-- Node26&#45;&gt;Node23 -->
<g id="edge57" class="edge">
<title>Node26&#45;&gt;Node23</title>
<path fill="none" stroke="#191970" d="M506.0138,-347.1965C525.3357,-313.1781 592.5525,-197.6294 661.5,-112 669.7612,-101.74 679.9583,-91.1732 688.5557,-82.7585"/>
<polygon fill="#191970" stroke="#191970" points="691.1111,-85.1571 695.9,-75.7064 686.2628,-80.1079 691.1111,-85.1571"/>
</g>
<!-- Node26&#45;&gt;Node25 -->
<g id="edge56" class="edge">
<title>Node26&#45;&gt;Node25</title>
<path fill="none" stroke="#191970" d="M496.3608,-347.4248C484.4031,-319.7625 449.6476,-239.3614 433.6874,-202.4403"/>
<polygon fill="#191970" stroke="#191970" points="436.8995,-201.0498 429.7188,-193.2595 430.4741,-203.8274 436.8995,-201.0498"/>
</g>
<!-- Node27 -->
<g id="node28" class="node">
<title>Node27</title>
<g id="a_node28"><a xlink:href="Position_8h.html" target="_top" xlink:title="Position.h">
<polygon fill="none" stroke="#000000" points="820,-291.5 820,-310.5 885,-310.5 885,-291.5 820,-291.5"/>
<text text-anchor="middle" x="852.5" y="-298.5" font-family="FreeSans.ttf" font-size="10.00" fill="#000000">Position.h</text>
</a>
</g>
</g>
<!-- Node26&#45;&gt;Node27 -->
<g id="edge42" class="edge">
<title>Node26&#45;&gt;Node27</title>
<path fill="none" stroke="#191970" d="M560.611,-347.4369C631.4783,-336.1625 747.4715,-317.7091 809.7596,-307.7996"/>
<polygon fill="#191970" stroke="#191970" points="810.3201,-311.2545 819.6459,-306.2268 809.2202,-304.3415 810.3201,-311.2545"/>
</g>
<!-- Node29 -->
<g id="node30" class="node">
<title>Node29</title>
<g id="a_node30"><a xlink:href="Rotation_8h.html" target="_top" xlink:title="iDynTree/Core/Rotation.h">
<polygon fill="none" stroke="#000000" points="716,-235.5 716,-254.5 853,-254.5 853,-235.5 716,-235.5"/>
<text text-anchor="middle" x="784.5" y="-242.5" font-family="FreeSans.ttf" font-size="10.00" fill="#000000">iDynTree/Core/Rotation.h</text>
</a>
</g>
</g>
<!-- Node26&#45;&gt;Node29 -->
<g id="edge54" class="edge">
<title>Node26&#45;&gt;Node29</title>
<path fill="none" stroke="#191970" d="M527.4417,-347.4446C552.8384,-338.3525 591.9072,-324.1468 625.5,-311 670.0187,-293.5772 720.9783,-272.1604 752.9501,-258.5424"/>
<polygon fill="#191970" stroke="#191970" points="754.4114,-261.7242 762.2347,-254.5796 751.6634,-255.2862 754.4114,-261.7242"/>
</g>
<!-- Node27&#45;&gt;Node13 -->
<g id="edge53" class="edge">
<title>Node27&#45;&gt;Node13</title>
<path fill="none" stroke="#191970" d="M885.441,-293.4743C951.1427,-277.726 1094.5785,-239.3957 1122.5,-199 1129.4137,-188.9975 1132.412,-125.1393 1121.5,-112 1097.4332,-83.0208 985.9577,-71.7281 929.8883,-67.8246"/>
<polygon fill="#191970" stroke="#191970" points="929.9843,-64.3235 919.7761,-67.1592 929.5247,-71.3084 929.9843,-64.3235"/>
</g>
<!-- Node28 -->
<g id="node29" class="node">
<title>Node28</title>
<g id="a_node29"><a xlink:href="PositionRaw_8h.html" target="_top" xlink:title="iDynTree/Core/PositionRaw.h">
<polygon fill="none" stroke="#000000" points="721.5,-174 721.5,-193 877.5,-193 877.5,-174 721.5,-174"/>
<text text-anchor="middle" x="799.5" y="-181" font-family="FreeSans.ttf" font-size="10.00" fill="#000000">iDynTree/Core/PositionRaw.h</text>
</a>
</g>
</g>
<!-- Node27&#45;&gt;Node28 -->
<g id="edge43" class="edge">
<title>Node27&#45;&gt;Node28</title>
<path fill="none" stroke="#191970" d="M857.3795,-291.0918C863.235,-277.7141 871.2385,-253.4301 862.5,-235 855.1729,-219.5467 840.6868,-207.1919 827.4512,-198.461"/>
<polygon fill="#191970" stroke="#191970" points="828.941,-195.2679 818.5913,-193.0019 825.269,-201.2275 828.941,-195.2679"/>
</g>
<!-- Node27&#45;&gt;Node29 -->
<g id="edge46" class="edge">
<title>Node27&#45;&gt;Node29</title>
<path fill="none" stroke="#191970" d="M840.6553,-291.2455C830.612,-282.9746 816.0005,-270.9416 804.1996,-261.2232"/>
<polygon fill="#191970" stroke="#191970" points="806.1533,-258.298 796.209,-254.6427 801.7033,-263.7015 806.1533,-258.298"/>
</g>
<!-- Node28&#45;&gt;Node13 -->
<g id="edge45" class="edge">
<title>Node28&#45;&gt;Node13</title>
<path fill="none" stroke="#191970" d="M807.5198,-173.8845C823.9584,-154.1749 861.6922,-108.9328 882.699,-83.7461"/>
<polygon fill="#191970" stroke="#191970" points="885.6522,-85.6697 889.3694,-75.7484 880.2765,-81.1862 885.6522,-85.6697"/>
</g>
<!-- Node28&#45;&gt;Node19 -->
<g id="edge44" class="edge">
<title>Node28&#45;&gt;Node19</title>
<path fill="none" stroke="#191970" d="M758.0742,-173.9581C711.1106,-163.1406 634.5067,-145.4959 583.8021,-133.8168"/>
<polygon fill="#191970" stroke="#191970" points="584.5535,-130.3983 574.023,-131.5643 582.9822,-137.2196 584.5535,-130.3983"/>
</g>
<!-- Node29&#45;&gt;Node13 -->
<g id="edge47" class="edge">
<title>Node29&#45;&gt;Node13</title>
<path fill="none" stroke="#191970" d="M853.0756,-239.7011C941.0811,-232.1982 1084.4047,-217.3296 1100.5,-199 1126.0148,-169.9431 1125.6494,-142.2012 1101.5,-112 1080.3409,-85.5385 981.6003,-73.2106 929.6496,-68.473"/>
<polygon fill="#191970" stroke="#191970" points="929.8852,-64.9803 919.6193,-67.5997 929.278,-71.9539 929.8852,-64.9803"/>
</g>
<!-- Node29&#45;&gt;Node19 -->
<g id="edge52" class="edge">
<title>Node29&#45;&gt;Node19</title>
<path fill="none" stroke="#191970" d="M764.726,-235.3484C720.4706,-213.7475 613.2756,-161.4262 561.4756,-136.1428"/>
<polygon fill="#191970" stroke="#191970" points="562.7041,-132.8478 552.1822,-131.6068 559.6336,-139.1385 562.7041,-132.8478"/>
</g>
<!-- Node29&#45;&gt;Node25 -->
<g id="edge48" class="edge">
<title>Node29&#45;&gt;Node25</title>
<path fill="none" stroke="#191970" d="M728.8001,-235.4581C664.6397,-224.4668 559.3351,-206.4272 491.2205,-194.7585"/>
<polygon fill="#191970" stroke="#191970" points="491.4826,-191.2525 481.0351,-193.0137 490.3006,-198.152 491.4826,-191.2525"/>
</g>
<!-- Node30 -->
<g id="node31" class="node">
<title>Node30</title>
<g id="a_node31"><a xlink:href="RotationRaw_8h.html" target="_top" xlink:title="iDynTree/Core/RotationRaw.h">
<polygon fill="none" stroke="#000000" points="933.5,-174 933.5,-193 1091.5,-193 1091.5,-174 933.5,-174"/>
<text text-anchor="middle" x="1012.5" y="-181" font-family="FreeSans.ttf" font-size="10.00" fill="#000000">iDynTree/Core/RotationRaw.h</text>
</a>
</g>
</g>
<!-- Node29&#45;&gt;Node30 -->
<g id="edge49" class="edge">
<title>Node29&#45;&gt;Node30</title>
<path fill="none" stroke="#191970" d="M820.125,-235.3906C859.8631,-224.6718 924.2268,-207.3105 967.4349,-195.6557"/>
<polygon fill="#191970" stroke="#191970" points="968.3818,-199.0255 977.1252,-193.0419 966.5587,-192.267 968.3818,-199.0255"/>
</g>
<!-- Node30&#45;&gt;Node13 -->
<g id="edge51" class="edge">
<title>Node30&#45;&gt;Node13</title>
<path fill="none" stroke="#191970" d="M981.0227,-173.8776C959.9003,-165.8781 933.0176,-152.4528 916.5,-132 905.8597,-118.8247 901.1776,-99.9532 899.1176,-85.7617"/>
<polygon fill="#191970" stroke="#191970" points="902.5679,-85.1243 897.964,-75.582 895.6124,-85.9126 902.5679,-85.1243"/>
</g>
<!-- Node30&#45;&gt;Node22 -->
<g id="edge50" class="edge">
<title>Node30&#45;&gt;Node22</title>
<path fill="none" stroke="#191970" d="M971.85,-173.9581C925.8618,-163.1632 850.9095,-145.5694 801.1527,-133.8899"/>
<polygon fill="#191970" stroke="#191970" points="801.7806,-130.4422 791.2454,-131.5643 800.1809,-137.257 801.7806,-130.4422"/>
</g>
<!-- Node31&#45;&gt;Node19 -->
<g id="edge60" class="edge">
<title>Node31&#45;&gt;Node19</title>
<path fill="none" stroke="#191970" d="M546.6542,-403.4044C563.5285,-395.3939 580.8367,-383.6632 590.5,-367 634.7382,-290.717 573.2323,-182.5118 545.1734,-140.0714"/>
<polygon fill="#191970" stroke="#191970" points="547.9486,-137.9276 539.4412,-131.6129 542.1538,-141.8546 547.9486,-137.9276"/>
</g>
<!-- Node31&#45;&gt;Node25 -->
<g id="edge61" class="edge">
<title>Node31&#45;&gt;Node25</title>
<path fill="none" stroke="#191970" d="M454.8451,-403.2863C438.1563,-395.2586 421.0426,-383.547 411.5,-367 380.9784,-314.0754 403.864,-237.8342 417.4009,-202.6373"/>
<polygon fill="#191970" stroke="#191970" points="420.751,-203.687 421.2324,-193.1031 414.2559,-201.0768 420.751,-203.687"/>
</g>
<!-- Node31&#45;&gt;Node26 -->
<g id="edge62" class="edge">
<title>Node31&#45;&gt;Node26</title>
<path fill="none" stroke="#191970" d="M500.5,-403.2977C500.5,-395.3834 500.5,-385.6043 500.5,-377.0759"/>
<polygon fill="#191970" stroke="#191970" points="504.0001,-376.8469 500.5,-366.8469 497.0001,-376.847 504.0001,-376.8469"/>
</g>
<!-- Node32&#45;&gt;Node13 -->
<g id="edge67" class="edge">
<title>Node32&#45;&gt;Node13</title>
<path fill="none" stroke="#191970" d="M925.5098,-350.5058C1036.1396,-338.62 1233.5,-308.5152 1233.5,-245 1233.5,-245 1233.5,-245 1233.5,-183.5 1233.5,-130.2997 1186.1895,-133.4384 1137.5,-112 1067.6173,-81.2301 977.3699,-70.9889 929.934,-67.6199"/>
<polygon fill="#191970" stroke="#191970" points="929.8643,-64.1081 919.6581,-66.9513 929.4097,-71.0933 929.8643,-64.1081"/>
</g>
<!-- Node32&#45;&gt;Node22 -->
<g id="edge66" class="edge">
<title>Node32&#45;&gt;Node22</title>
<path fill="none" stroke="#191970" d="M865.528,-347.3141C875.5792,-338.9649 888.7125,-325.922 894.5,-311 908.8723,-273.9436 963.8327,-268.7201 886.5,-168 876.1828,-154.5626 838.475,-142.4254 805.3749,-133.9965"/>
<polygon fill="#191970" stroke="#191970" points="805.8336,-130.5045 795.2858,-131.5023 804.1536,-137.3 805.8336,-130.5045"/>
</g>
<!-- Node32&#45;&gt;Node27 -->
<g id="edge64" class="edge">
<title>Node32&#45;&gt;Node27</title>
<path fill="none" stroke="#191970" d="M852.5,-347.2455C852.5,-339.9382 852.5,-329.6944 852.5,-320.7046"/>
<polygon fill="#191970" stroke="#191970" points="856.0001,-320.6426 852.5,-310.6427 849.0001,-320.6427 856.0001,-320.6426"/>
</g>
<!-- Node32&#45;&gt;Node29 -->
<g id="edge65" class="edge">
<title>Node32&#45;&gt;Node29</title>
<path fill="none" stroke="#191970" d="M841.962,-347.2221C832.9514,-338.4236 820.1121,-324.7929 811.5,-311 802.3943,-296.4165 795.2222,-278.2327 790.5656,-264.6465"/>
<polygon fill="#191970" stroke="#191970" points="793.8121,-263.313 787.3814,-254.8929 787.1577,-265.4854 793.8121,-263.313"/>
</g>
</g>
</svg>
