<?xml version="1.0" encoding="UTF-8" standalone="no"?>
<!DOCTYPE svg PUBLIC "-//W3C//DTD SVG 1.1//EN"
 "http://www.w3.org/Graphics/SVG/1.1/DTD/svg11.dtd">
<!-- Generated by graphviz version 2.40.1 (20161225.0304)
 -->
<!-- Title: ExternalWrenchesEstimation.cpp Pages: 1 -->
<svg width="2688pt" height="867pt"
 viewBox="0.00 0.00 2688.00 867.00" xmlns="http://www.w3.org/2000/svg" xmlns:xlink="http://www.w3.org/1999/xlink">
<g id="graph0" class="graph" transform="scale(1 1) rotate(0) translate(4 863)">
<title>ExternalWrenchesEstimation.cpp</title>
<!-- Node0 -->
<g id="node1" class="node">
<title>Node0</title>
<polygon fill="#bfbfbf" stroke="#000000" points="1194,-839.5 1194,-858.5 1371,-858.5 1371,-839.5 1194,-839.5"/>
<text text-anchor="middle" x="1282.5" y="-846.5" font-family="FreeSans.ttf" font-size="10.00" fill="#000000">ExternalWrenchesEstimation.cpp</text>
</g>
<!-- Node1 -->
<g id="node2" class="node">
<title>Node1</title>
<g id="a_node2"><a xlink:href="ExternalWrenchesEstimation_8h.html" target="_top" xlink:title="iDynTree/Estimation\l/ExternalWrenchesEstimation.h">
<polygon fill="none" stroke="#000000" points="856,-593.5 856,-623.5 1025,-623.5 1025,-593.5 856,-593.5"/>
<text text-anchor="start" x="864" y="-611.5" font-family="FreeSans.ttf" font-size="10.00" fill="#000000">iDynTree/Estimation</text>
<text text-anchor="middle" x="940.5" y="-600.5" font-family="FreeSans.ttf" font-size="10.00" fill="#000000">/ExternalWrenchesEstimation.h</text>
</a>
</g>
</g>
<!-- Node0&#45;&gt;Node1 -->
<g id="edge1" class="edge">
<title>Node0&#45;&gt;Node1</title>
<path fill="none" stroke="#191970" d="M1245.5726,-839.4246C1219.7742,-831.797 1185.14,-819.6321 1157.5,-803 1075.3763,-753.583 995.9614,-670.7889 960.221,-631.081"/>
<polygon fill="#191970" stroke="#191970" points="962.7382,-628.645 953.4694,-623.5127 957.5146,-633.3049 962.7382,-628.645"/>
</g>
<!-- Node28 -->
<g id="node24" class="node">
<title>Node28</title>
<g id="a_node24"><a xlink:href="LinkState_8h.html" target="_top" xlink:title="iDynTree/Model/LinkState.h">
<polygon fill="none" stroke="#000000" points="1006,-532 1006,-551 1155,-551 1155,-532 1006,-532"/>
<text text-anchor="middle" x="1080.5" y="-539" font-family="FreeSans.ttf" font-size="10.00" fill="#000000">iDynTree/Model/LinkState.h</text>
</a>
</g>
</g>
<!-- Node0&#45;&gt;Node28 -->
<g id="edge116" class="edge">
<title>Node0&#45;&gt;Node28</title>
<path fill="none" stroke="#191970" d="M1263.9211,-839.4468C1232.3221,-821.7159 1171.5,-780.5077 1171.5,-726 1171.5,-726 1171.5,-726 1171.5,-670 1171.5,-622.146 1128.9491,-579.6522 1102.0405,-557.5641"/>
<polygon fill="#191970" stroke="#191970" points="1103.937,-554.6011 1093.9274,-551.1287 1099.5869,-560.0853 1103.937,-554.6011"/>
</g>
<!-- Node38 -->
<g id="node34" class="node">
<title>Node38</title>
<g id="a_node34"><a xlink:href="EigenHelpers_8h.html" target="_top" xlink:title="iDynTree/Core/EigenHelpers.h">
<polygon fill="none" stroke="#000000" points="211,-470.5 211,-489.5 372,-489.5 372,-470.5 211,-470.5"/>
<text text-anchor="middle" x="291.5" y="-477.5" font-family="FreeSans.ttf" font-size="10.00" fill="#000000">iDynTree/Core/EigenHelpers.h</text>
</a>
</g>
</g>
<!-- Node0&#45;&gt;Node38 -->
<g id="edge74" class="edge">
<title>Node0&#45;&gt;Node38</title>
<path fill="none" stroke="#191970" d="M1193.6061,-847.1751C950.9958,-841.0219 295.5,-816.0632 295.5,-726 295.5,-726 295.5,-726 295.5,-608.5 295.5,-569.9826 293.6823,-525.0023 292.4976,-499.7753"/>
<polygon fill="#191970" stroke="#191970" points="295.9878,-499.487 292.0066,-489.6687 288.9961,-499.8268 295.9878,-499.487"/>
</g>
<!-- Node40 -->
<g id="node36" class="node">
<title>Node40</title>
<g id="a_node36"><a xlink:href="EigenMathHelpers_8h.html" target="_top" xlink:title="iDynTree/Core/EigenMathHelpers.h">
<polygon fill="none" stroke="#000000" points="0,-778 0,-797 185,-797 185,-778 0,-778"/>
<text text-anchor="middle" x="92.5" y="-785" font-family="FreeSans.ttf" font-size="10.00" fill="#000000">iDynTree/Core/EigenMathHelpers.h</text>
</a>
</g>
</g>
<!-- Node0&#45;&gt;Node40 -->
<g id="edge84" class="edge">
<title>Node0&#45;&gt;Node40</title>
<path fill="none" stroke="#191970" d="M1193.7278,-845.9914C1018.9794,-839.832 618.0929,-824.529 281.5,-803 253.5548,-801.2126 223.3159,-798.9019 195.3921,-796.6129"/>
<polygon fill="#191970" stroke="#191970" points="195.4721,-793.1077 185.2177,-795.7716 194.8952,-800.0839 195.4721,-793.1077"/>
</g>
<!-- Node41 -->
<g id="node37" class="node">
<title>Node41</title>
<g id="a_node37"><a xlink:href="SpatialMomentum_8h.html" target="_top" xlink:title="iDynTree/Core/SpatialMomentum.h">
<polygon fill="none" stroke="#000000" points="726.5,-470.5 726.5,-489.5 912.5,-489.5 912.5,-470.5 726.5,-470.5"/>
<text text-anchor="middle" x="819.5" y="-477.5" font-family="FreeSans.ttf" font-size="10.00" fill="#000000">iDynTree/Core/SpatialMomentum.h</text>
</a>
</g>
</g>
<!-- Node0&#45;&gt;Node41 -->
<g id="edge86" class="edge">
<title>Node0&#45;&gt;Node41</title>
<path fill="none" stroke="#191970" d="M1204.5616,-839.4831C1053.7039,-820.0005 736.5,-773.3994 736.5,-726 736.5,-726 736.5,-726 736.5,-608.5 736.5,-561.9714 775.3726,-518.9449 799.9123,-496.4185"/>
<polygon fill="#191970" stroke="#191970" points="802.4513,-498.8448 807.6081,-489.5896 797.8053,-493.6089 802.4513,-498.8448"/>
</g>
<!-- Node42 -->
<g id="node38" class="node">
<title>Node42</title>
<g id="a_node38"><a xlink:href="Model_8h.html" target="_top" xlink:title="iDynTree/Model/Model.h">
<polygon fill="none" stroke="#000000" points="2084,-660.5 2084,-679.5 2217,-679.5 2217,-660.5 2084,-660.5"/>
<text text-anchor="middle" x="2150.5" y="-667.5" font-family="FreeSans.ttf" font-size="10.00" fill="#000000">iDynTree/Model/Model.h</text>
</a>
</g>
</g>
<!-- Node0&#45;&gt;Node42 -->
<g id="edge88" class="edge">
<title>Node0&#45;&gt;Node42</title>
<path fill="none" stroke="#191970" d="M1371.2468,-847.8275C1523.7241,-844.9613 1828.846,-835.2615 1930.5,-803 2012.0234,-777.1272 2094.7752,-715.4605 2131.2328,-686.0876"/>
<polygon fill="#191970" stroke="#191970" points="2133.5489,-688.715 2139.084,-679.681 2129.1233,-683.2916 2133.5489,-688.715"/>
</g>
<!-- Node50 -->
<g id="node44" class="node">
<title>Node50</title>
<g id="a_node44"><a xlink:href="Traversal_8h.html" target="_top" xlink:title="iDynTree/Model/Traversal.h">
<polygon fill="none" stroke="#000000" points="1770.5,-532 1770.5,-551 1918.5,-551 1918.5,-532 1770.5,-532"/>
<text text-anchor="middle" x="1844.5" y="-539" font-family="FreeSans.ttf" font-size="10.00" fill="#000000">iDynTree/Model/Traversal.h</text>
</a>
</g>
</g>
<!-- Node0&#45;&gt;Node50 -->
<g id="edge108" class="edge">
<title>Node0&#45;&gt;Node50</title>
<path fill="none" stroke="#191970" d="M1371.1938,-844.2908C1509.6578,-834.4814 1761.5,-805.6867 1761.5,-726 1761.5,-726 1761.5,-726 1761.5,-670 1761.5,-623.4714 1800.3726,-580.4449 1824.9123,-557.9185"/>
<polygon fill="#191970" stroke="#191970" points="1827.4513,-560.3448 1832.6081,-551.0896 1822.8053,-555.1089 1827.4513,-560.3448"/>
</g>
<!-- Node51 -->
<g id="node45" class="node">
<title>Node51</title>
<g id="a_node45"><a xlink:href="SubModel_8h.html" target="_top" xlink:title="iDynTree/Model/SubModel.h">
<polygon fill="none" stroke="#000000" points="2529,-532 2529,-551 2680,-551 2680,-532 2529,-532"/>
<text text-anchor="middle" x="2604.5" y="-539" font-family="FreeSans.ttf" font-size="10.00" fill="#000000">iDynTree/Model/SubModel.h</text>
</a>
</g>
</g>
<!-- Node0&#45;&gt;Node51 -->
<g id="edge111" class="edge">
<title>Node0&#45;&gt;Node51</title>
<path fill="none" stroke="#191970" d="M1371.0982,-845.1947C1662.3199,-832.1083 2571.5,-786.4153 2571.5,-726 2571.5,-726 2571.5,-726 2571.5,-670 2571.5,-630.0954 2586.614,-585.3492 2596.385,-560.5909"/>
<polygon fill="#191970" stroke="#191970" points="2599.6483,-561.8575 2600.1858,-551.2763 2593.1671,-559.2128 2599.6483,-561.8575"/>
</g>
<!-- Node52 -->
<g id="node46" class="node">
<title>Node52</title>
<g id="a_node46"><a xlink:href="JointState_8h.html" target="_top" xlink:title="iDynTree/Model/JointState.h">
<polygon fill="none" stroke="#000000" points="329,-532 329,-551 480,-551 480,-532 329,-532"/>
<text text-anchor="middle" x="404.5" y="-539" font-family="FreeSans.ttf" font-size="10.00" fill="#000000">iDynTree/Model/JointState.h</text>
</a>
</g>
</g>
<!-- Node0&#45;&gt;Node52 -->
<g id="edge117" class="edge">
<title>Node0&#45;&gt;Node52</title>
<path fill="none" stroke="#191970" d="M1193.6673,-845.2712C976.7168,-834.9838 437.5,-801.7915 437.5,-726 437.5,-726 437.5,-726 437.5,-670 437.5,-630.0954 422.386,-585.3492 412.615,-560.5909"/>
<polygon fill="#191970" stroke="#191970" points="415.8329,-559.2128 408.8142,-551.2763 409.3517,-561.8575 415.8329,-559.2128"/>
</g>
<!-- Node53 -->
<g id="node47" class="node">
<title>Node53</title>
<g id="a_node47"><a xlink:href="ContactWrench_8h.html" target="_top" xlink:title="iDynTree/Model/ContactWrench.h">
<polygon fill="none" stroke="#000000" points="1268,-599 1268,-618 1445,-618 1445,-599 1268,-599"/>
<text text-anchor="middle" x="1356.5" y="-606" font-family="FreeSans.ttf" font-size="10.00" fill="#000000">iDynTree/Model/ContactWrench.h</text>
</a>
</g>
</g>
<!-- Node0&#45;&gt;Node53 -->
<g id="edge122" class="edge">
<title>Node0&#45;&gt;Node53</title>
<path fill="none" stroke="#191970" d="M1284.5896,-839.4494C1287.8484,-824.8287 1294.4974,-796.0613 1301.5,-772 1316.8466,-719.2687 1338.4285,-658.1877 1349.4381,-627.7766"/>
<polygon fill="#191970" stroke="#191970" points="1352.7331,-628.9569 1352.8639,-618.3629 1346.1551,-626.5631 1352.7331,-628.9569"/>
</g>
<!-- Node54 -->
<g id="node48" class="node">
<title>Node54</title>
<g id="a_node48"><a xlink:href="LinkTraversalsCache_8h.html" target="_top" xlink:title="iDynTree/Model/LinkTraversals\lCache.h">
<polygon fill="none" stroke="#000000" points="1974.5,-526.5 1974.5,-556.5 2138.5,-556.5 2138.5,-526.5 1974.5,-526.5"/>
<text text-anchor="start" x="1982.5" y="-544.5" font-family="FreeSans.ttf" font-size="10.00" fill="#000000">iDynTree/Model/LinkTraversals</text>
<text text-anchor="middle" x="2056.5" y="-533.5" font-family="FreeSans.ttf" font-size="10.00" fill="#000000">Cache.h</text>
</a>
</g>
</g>
<!-- Node0&#45;&gt;Node54 -->
<g id="edge128" class="edge">
<title>Node0&#45;&gt;Node54</title>
<path fill="none" stroke="#191970" d="M1371.1958,-845.3702C1456.9056,-840.4408 1589.9396,-829.0277 1702.5,-803 1800.982,-780.2277 1916.5,-827.0806 1916.5,-726 1916.5,-726 1916.5,-726 1916.5,-670 1916.5,-634.7513 1912.6534,-619.8421 1935.5,-593 1947.7983,-578.5509 1964.8642,-568.0557 1982.306,-560.4699"/>
<polygon fill="#191970" stroke="#191970" points="1984.0474,-563.5412 1992.0066,-556.5483 1981.4238,-557.0514 1984.0474,-563.5412"/>
</g>
<!-- Node55 -->
<g id="node49" class="node">
<title>Node55</title>
<g id="a_node49"><a xlink:href="Sensors_8h.html" target="_top" xlink:title="iDynTree/Sensors/Sensors.h">
<polygon fill="none" stroke="#000000" points="1409,-716.5 1409,-735.5 1560,-735.5 1560,-716.5 1409,-716.5"/>
<text text-anchor="middle" x="1484.5" y="-723.5" font-family="FreeSans.ttf" font-size="10.00" fill="#000000">iDynTree/Sensors/Sensors.h</text>
</a>
</g>
</g>
<!-- Node0&#45;&gt;Node55 -->
<g id="edge131" class="edge">
<title>Node0&#45;&gt;Node55</title>
<path fill="none" stroke="#191970" d="M1344.0228,-839.4574C1388.1858,-831.4451 1442.745,-818.7839 1459.5,-803 1475.2773,-788.1372 1481.1182,-763.2378 1483.2688,-745.7881"/>
<polygon fill="#191970" stroke="#191970" points="1486.7772,-745.8579 1484.2164,-735.5773 1479.8072,-745.211 1486.7772,-745.8579"/>
</g>
<!-- Node56 -->
<g id="node50" class="node">
<title>Node56</title>
<g id="a_node50"><a xlink:href="SixAxisForceTorqueSensor_8h.html" target="_top" xlink:title="iDynTree/Sensors/SixAxis\lForceTorqueSensor.h">
<polygon fill="none" stroke="#000000" points="1310.5,-772.5 1310.5,-802.5 1450.5,-802.5 1450.5,-772.5 1310.5,-772.5"/>
<text text-anchor="start" x="1318.5" y="-790.5" font-family="FreeSans.ttf" font-size="10.00" fill="#000000">iDynTree/Sensors/SixAxis</text>
<text text-anchor="middle" x="1380.5" y="-779.5" font-family="FreeSans.ttf" font-size="10.00" fill="#000000">ForceTorqueSensor.h</text>
</a>
</g>
</g>
<!-- Node0&#45;&gt;Node56 -->
<g id="edge139" class="edge">
<title>Node0&#45;&gt;Node56</title>
<path fill="none" stroke="#191970" d="M1297.8125,-839.3906C1311.1984,-830.9903 1331.0853,-818.5103 1348.0014,-807.8945"/>
<polygon fill="#191970" stroke="#191970" points="1349.9167,-810.8248 1356.5265,-802.5446 1346.1958,-804.8956 1349.9167,-810.8248"/>
</g>
<!-- Node2 -->
<g id="node3" class="node">
<title>Node2</title>
<g id="a_node3"><a xlink:href="Direction_8h.html" target="_top" xlink:title="iDynTree/Core/Direction.h">
<polygon fill="none" stroke="#000000" points="618,-174 618,-193 759,-193 759,-174 618,-174"/>
<text text-anchor="middle" x="688.5" y="-181" font-family="FreeSans.ttf" font-size="10.00" fill="#000000">iDynTree/Core/Direction.h</text>
</a>
</g>
</g>
<!-- Node1&#45;&gt;Node2 -->
<g id="edge2" class="edge">
<title>Node1&#45;&gt;Node2</title>
<path fill="none" stroke="#191970" d="M879.0378,-593.4304C826.8146,-577.1655 754.593,-545.7575 717.5,-490 706.7464,-473.8353 711.3134,-422.33 709.5,-403 702.598,-329.4275 694.1649,-242.0079 690.4338,-203.4536"/>
<polygon fill="#191970" stroke="#191970" points="693.8815,-202.7428 689.4338,-193.1268 686.9141,-203.4176 693.8815,-202.7428"/>
</g>
<!-- Node4 -->
<g id="node5" class="node">
<title>Node4</title>
<g id="a_node5"><a xlink:href="VectorFixSize_8h.html" target="_top" xlink:title="iDynTree/Core/VectorFixSize.h">
<polygon fill="none" stroke="#000000" points="636,-112.5 636,-131.5 797,-131.5 797,-112.5 636,-112.5"/>
<text text-anchor="middle" x="716.5" y="-119.5" font-family="FreeSans.ttf" font-size="10.00" fill="#000000">iDynTree/Core/VectorFixSize.h</text>
</a>
</g>
</g>
<!-- Node1&#45;&gt;Node4 -->
<g id="edge41" class="edge">
<title>Node1&#45;&gt;Node4</title>
<path fill="none" stroke="#191970" d="M858.0703,-593.4691C813.2616,-584.0059 763.4144,-570.9674 745.5,-557 718.6735,-536.0841 722.3017,-521.091 708.5,-490 701.5642,-474.3757 611.3163,-215.861 608.5,-199 606.2302,-185.4105 600.9026,-179.4938 608.5,-168 618.9302,-152.2206 635.9932,-141.8364 653.5086,-135.0096"/>
<polygon fill="#191970" stroke="#191970" points="654.9826,-138.201 663.2467,-131.5712 652.6519,-131.6004 654.9826,-138.201"/>
</g>
<!-- Node18 -->
<g id="node14" class="node">
<title>Node18</title>
<g id="a_node14"><a xlink:href="Position_8h.html" target="_top" xlink:title="iDynTree/Core/Position.h">
<polygon fill="none" stroke="#000000" points="1235.5,-291.5 1235.5,-310.5 1371.5,-310.5 1371.5,-291.5 1235.5,-291.5"/>
<text text-anchor="middle" x="1303.5" y="-298.5" font-family="FreeSans.ttf" font-size="10.00" fill="#000000">iDynTree/Core/Position.h</text>
</a>
</g>
</g>
<!-- Node1&#45;&gt;Node18 -->
<g id="edge17" class="edge">
<title>Node1&#45;&gt;Node18</title>
<path fill="none" stroke="#191970" d="M946.0035,-593.3328C957.2258,-564.6163 985.5568,-502.2975 1030.5,-470 1082.6721,-432.5077 1114.6993,-465.8416 1170.5,-434 1222.9639,-404.0625 1269.0513,-347.9473 1290.5847,-319.1163"/>
<polygon fill="#191970" stroke="#191970" points="1293.6039,-320.9175 1296.6902,-310.7821 1287.957,-316.7807 1293.6039,-320.9175"/>
</g>
<!-- Node25 -->
<g id="node21" class="node">
<title>Node25</title>
<g id="a_node21"><a xlink:href="MatrixDynSize_8h.html" target="_top" xlink:title="iDynTree/Core/MatrixDynSize.h">
<polygon fill="none" stroke="#000000" points="501,-409 501,-428 668,-428 668,-409 501,-409"/>
<text text-anchor="middle" x="584.5" y="-416" font-family="FreeSans.ttf" font-size="10.00" fill="#000000">iDynTree/Core/MatrixDynSize.h</text>
</a>
</g>
</g>
<!-- Node1&#45;&gt;Node25 -->
<g id="edge36" class="edge">
<title>Node1&#45;&gt;Node25</title>
<path fill="none" stroke="#191970" d="M855.9231,-602.4658C780.9147,-595.5694 678.4406,-581.8739 646.5,-557 608.3486,-527.2894 593.0329,-468.9831 587.4196,-438.3608"/>
<polygon fill="#191970" stroke="#191970" points="590.8063,-437.3892 585.7159,-428.0973 583.9008,-438.5355 590.8063,-437.3892"/>
</g>
<!-- Node26 -->
<g id="node22" class="node">
<title>Node26</title>
<g id="a_node22"><a xlink:href="VectorDynSize_8h.html" target="_top" xlink:title="iDynTree/Core/VectorDynSize.h">
<polygon fill="none" stroke="#000000" points="316,-409 316,-428 483,-428 483,-409 316,-409"/>
<text text-anchor="middle" x="399.5" y="-416" font-family="FreeSans.ttf" font-size="10.00" fill="#000000">iDynTree/Core/VectorDynSize.h</text>
</a>
</g>
</g>
<!-- Node1&#45;&gt;Node26 -->
<g id="edge38" class="edge">
<title>Node1&#45;&gt;Node26</title>
<path fill="none" stroke="#191970" d="M855.6567,-600.6442C774.1652,-592.0961 657.5494,-576.94 616.5,-557 565.296,-532.1274 570.3753,-500.7969 522.5,-470 496.7176,-453.4148 464.697,-440.2078 439.7905,-431.3219"/>
<polygon fill="#191970" stroke="#191970" points="440.8741,-427.9932 430.2793,-428.0139 438.5746,-434.6047 440.8741,-427.9932"/>
</g>
<!-- Node27 -->
<g id="node23" class="node">
<title>Node27</title>
<g id="a_node23"><a xlink:href="Indices_8h.html" target="_top" xlink:title="iDynTree/Model/Indices.h">
<polygon fill="none" stroke="#000000" points="1801.5,-470.5 1801.5,-489.5 1939.5,-489.5 1939.5,-470.5 1801.5,-470.5"/>
<text text-anchor="middle" x="1870.5" y="-477.5" font-family="FreeSans.ttf" font-size="10.00" fill="#000000">iDynTree/Model/Indices.h</text>
</a>
</g>
</g>
<!-- Node1&#45;&gt;Node27 -->
<g id="edge42" class="edge">
<title>Node1&#45;&gt;Node27</title>
<path fill="none" stroke="#191970" d="M1025.2026,-603.809C1126.1399,-597.3151 1299.6058,-583.2931 1446.5,-557 1500.7225,-547.2945 1512.5302,-537.024 1566.5,-526 1642.2973,-510.5174 1729.7071,-497.8218 1791.2868,-489.7199"/>
<polygon fill="#191970" stroke="#191970" points="1791.8617,-493.1746 1801.3246,-488.4098 1790.9557,-486.2335 1791.8617,-493.1746"/>
</g>
<!-- Node1&#45;&gt;Node28 -->
<g id="edge44" class="edge">
<title>Node1&#45;&gt;Node28</title>
<path fill="none" stroke="#191970" d="M971.9187,-593.4639C995.7264,-582.0702 1028.1929,-566.5327 1051.4095,-555.4219"/>
<polygon fill="#191970" stroke="#191970" points="1052.9228,-558.5779 1060.4321,-551.1039 1049.9009,-552.2637 1052.9228,-558.5779"/>
</g>
<!-- Node37 -->
<g id="node33" class="node">
<title>Node37</title>
<polygon fill="none" stroke="#bfbfbf" points="1655,-470.5 1655,-489.5 1702,-489.5 1702,-470.5 1655,-470.5"/>
<text text-anchor="middle" x="1678.5" y="-477.5" font-family="FreeSans.ttf" font-size="10.00" fill="#000000">vector</text>
</g>
<!-- Node1&#45;&gt;Node37 -->
<g id="edge73" class="edge">
<title>Node1&#45;&gt;Node37</title>
<path fill="none" stroke="#191970" d="M1025.3389,-603.0472C1114.6587,-596.2713 1259.0342,-582.3738 1381.5,-557 1428.312,-547.301 1438.3324,-538.4092 1484.5,-526 1540.2633,-511.0116 1605.7286,-496.0245 1644.5738,-487.4013"/>
<polygon fill="#191970" stroke="#191970" points="1645.7846,-490.7183 1654.794,-485.1432 1644.2743,-483.8831 1645.7846,-490.7183"/>
</g>
<!-- Node3 -->
<g id="node4" class="node">
<title>Node3</title>
<polygon fill="none" stroke="#bfbfbf" points="1494.5,-56.5 1494.5,-75.5 1538.5,-75.5 1538.5,-56.5 1494.5,-56.5"/>
<text text-anchor="middle" x="1516.5" y="-63.5" font-family="FreeSans.ttf" font-size="10.00" fill="#000000">string</text>
</g>
<!-- Node2&#45;&gt;Node3 -->
<g id="edge3" class="edge">
<title>Node2&#45;&gt;Node3</title>
<path fill="none" stroke="#191970" d="M753.7424,-173.945C848.4082,-160.1106 1029.389,-133.7743 1183.5,-112 1293.6631,-96.4351 1424.4147,-78.5432 1484.003,-70.4212"/>
<polygon fill="#191970" stroke="#191970" points="1484.8443,-73.839 1494.2803,-69.0211 1483.8993,-66.903 1484.8443,-73.839"/>
</g>
<!-- Node2&#45;&gt;Node4 -->
<g id="edge4" class="edge">
<title>Node2&#45;&gt;Node4</title>
<path fill="none" stroke="#191970" d="M692.875,-173.8906C696.8788,-165.0965 702.9183,-151.8312 707.8885,-140.9145"/>
<polygon fill="#191970" stroke="#191970" points="711.1051,-142.2963 712.0633,-131.7449 704.7343,-139.3957 711.1051,-142.2963"/>
</g>
<!-- Node5 -->
<g id="node6" class="node">
<title>Node5</title>
<g id="a_node6"><a xlink:href="Utils_8h.html" target="_top" xlink:title="iDynTree/Core/Utils.h">
<polygon fill="none" stroke="#000000" points="537,-56.5 537,-75.5 656,-75.5 656,-56.5 537,-56.5"/>
<text text-anchor="middle" x="596.5" y="-63.5" font-family="FreeSans.ttf" font-size="10.00" fill="#000000">iDynTree/Core/Utils.h</text>
</a>
</g>
</g>
<!-- Node2&#45;&gt;Node5 -->
<g id="edge16" class="edge">
<title>Node2&#45;&gt;Node5</title>
<path fill="none" stroke="#191970" d="M673.3097,-173.8263C659.615,-164.4815 639.6628,-149.2382 626.5,-132 615.6652,-117.8105 607.6269,-99.0831 602.6126,-85.2026"/>
<polygon fill="#191970" stroke="#191970" points="605.9092,-84.0254 599.3713,-75.6884 599.2831,-86.2829 605.9092,-84.0254"/>
</g>
<!-- Node4&#45;&gt;Node3 -->
<g id="edge12" class="edge">
<title>Node4&#45;&gt;Node3</title>
<path fill="none" stroke="#191970" d="M797.024,-115.865C814.3336,-114.5688 832.5248,-113.2235 849.5,-112 1093.6034,-94.406 1388.0675,-74.5896 1484.3501,-68.1464"/>
<polygon fill="#191970" stroke="#191970" points="1484.5855,-71.6385 1494.3296,-67.479 1484.1183,-64.6541 1484.5855,-71.6385"/>
</g>
<!-- Node4&#45;&gt;Node5 -->
<g id="edge5" class="edge">
<title>Node4&#45;&gt;Node5</title>
<path fill="none" stroke="#191970" d="M695.8713,-112.3733C676.6081,-103.3838 647.6514,-89.8706 625.9581,-79.7471"/>
<polygon fill="#191970" stroke="#191970" points="627.4015,-76.5584 616.8595,-75.5011 624.4413,-82.9017 627.4015,-76.5584"/>
</g>
<!-- Node7 -->
<g id="node8" class="node">
<title>Node7</title>
<g id="a_node8"><a xlink:href="Span_8h.html" target="_top" xlink:title="iDynTree/Core/Span.h">
<polygon fill="none" stroke="#ff0000" points="398,-56.5 398,-75.5 519,-75.5 519,-56.5 398,-56.5"/>
<text text-anchor="middle" x="458.5" y="-63.5" font-family="FreeSans.ttf" font-size="10.00" fill="#000000">iDynTree/Core/Span.h</text>
</a>
</g>
</g>
<!-- Node4&#45;&gt;Node7 -->
<g id="edge7" class="edge">
<title>Node4&#45;&gt;Node7</title>
<path fill="none" stroke="#191970" d="M672.4414,-112.4369C628.1011,-102.8127 559.6589,-87.957 512.1751,-77.6504"/>
<polygon fill="#191970" stroke="#191970" points="512.8918,-74.2245 502.3769,-75.5237 511.4069,-81.0653 512.8918,-74.2245"/>
</g>
<!-- Node8 -->
<g id="node9" class="node">
<title>Node8</title>
<polygon fill="none" stroke="#bfbfbf" points="622.5,-.5 622.5,-19.5 674.5,-19.5 674.5,-.5 622.5,-.5"/>
<text text-anchor="middle" x="648.5" y="-7.5" font-family="FreeSans.ttf" font-size="10.00" fill="#000000">cassert</text>
</g>
<!-- Node4&#45;&gt;Node8 -->
<g id="edge14" class="edge">
<title>Node4&#45;&gt;Node8</title>
<path fill="none" stroke="#191970" d="M726.1526,-112.101C737.9712,-98.7338 755.0727,-74.4616 743.5,-56 736.6139,-45.0147 708.3148,-32.1192 684.3787,-22.7815"/>
<polygon fill="#191970" stroke="#191970" points="685.392,-19.4224 674.801,-19.1389 682.9036,-25.9652 685.392,-19.4224"/>
</g>
<!-- Node16 -->
<g id="node12" class="node">
<title>Node16</title>
<polygon fill="none" stroke="#bfbfbf" points="790.5,-56.5 790.5,-75.5 846.5,-75.5 846.5,-56.5 790.5,-56.5"/>
<text text-anchor="middle" x="818.5" y="-63.5" font-family="FreeSans.ttf" font-size="10.00" fill="#000000">sstream</text>
</g>
<!-- Node4&#45;&gt;Node16 -->
<g id="edge13" class="edge">
<title>Node4&#45;&gt;Node16</title>
<path fill="none" stroke="#191970" d="M734.267,-112.2455C750.2095,-103.4928 773.8259,-90.527 791.9989,-80.5496"/>
<polygon fill="#191970" stroke="#191970" points="793.8552,-83.5233 800.9366,-75.6427 790.4863,-77.3873 793.8552,-83.5233"/>
</g>
<!-- Node17 -->
<g id="node13" class="node">
<title>Node17</title>
<polygon fill="none" stroke="#bfbfbf" points="864.5,-56.5 864.5,-75.5 914.5,-75.5 914.5,-56.5 864.5,-56.5"/>
<text text-anchor="middle" x="889.5" y="-63.5" font-family="FreeSans.ttf" font-size="10.00" fill="#000000">cstring</text>
</g>
<!-- Node4&#45;&gt;Node17 -->
<g id="edge15" class="edge">
<title>Node4&#45;&gt;Node17</title>
<path fill="none" stroke="#191970" d="M746.2398,-112.3733C776.3146,-102.638 822.7794,-87.5974 854.5847,-77.3021"/>
<polygon fill="#191970" stroke="#191970" points="855.9205,-80.5485 864.3566,-74.1389 853.7647,-73.8887 855.9205,-80.5485"/>
</g>
<!-- Node6 -->
<g id="node7" class="node">
<title>Node6</title>
<polygon fill="none" stroke="#bfbfbf" points="764,-.5 764,-19.5 817,-19.5 817,-.5 764,-.5"/>
<text text-anchor="middle" x="790.5" y="-7.5" font-family="FreeSans.ttf" font-size="10.00" fill="#000000">cstddef</text>
</g>
<!-- Node5&#45;&gt;Node6 -->
<g id="edge6" class="edge">
<title>Node5&#45;&gt;Node6</title>
<path fill="none" stroke="#191970" d="M629.8498,-56.3733C664.3604,-46.4114 718.116,-30.8944 753.8098,-20.591"/>
<polygon fill="#191970" stroke="#191970" points="755.1791,-23.8387 763.8162,-17.7026 753.2377,-17.1133 755.1791,-23.8387"/>
</g>
<!-- Node7&#45;&gt;Node6 -->
<g id="edge10" class="edge">
<title>Node7&#45;&gt;Node6</title>
<path fill="none" stroke="#191970" d="M519.2405,-56.9489C592.4077,-45.9909 710.058,-28.1786 753.7797,-19.8234"/>
<polygon fill="#191970" stroke="#191970" points="754.7475,-23.1983 763.8499,-17.7763 753.353,-16.3386 754.7475,-23.1983"/>
</g>
<!-- Node7&#45;&gt;Node8 -->
<g id="edge8" class="edge">
<title>Node7&#45;&gt;Node8</title>
<path fill="none" stroke="#191970" d="M491.1622,-56.3733C524.9612,-46.4114 577.6084,-30.8944 612.5663,-20.591"/>
<polygon fill="#191970" stroke="#191970" points="613.7638,-23.887 622.3663,-17.7026 611.7848,-17.1725 613.7638,-23.887"/>
</g>
<!-- Node9 -->
<g id="node10" class="node">
<title>Node9</title>
<polygon fill="none" stroke="#bfbfbf" points="426.5,-.5 426.5,-19.5 490.5,-19.5 490.5,-.5 426.5,-.5"/>
<text text-anchor="middle" x="458.5" y="-7.5" font-family="FreeSans.ttf" font-size="10.00" fill="#000000">algorithm</text>
</g>
<!-- Node7&#45;&gt;Node9 -->
<g id="edge9" class="edge">
<title>Node7&#45;&gt;Node9</title>
<path fill="none" stroke="#191970" d="M458.5,-56.2455C458.5,-48.9382 458.5,-38.6944 458.5,-29.7046"/>
<polygon fill="#191970" stroke="#191970" points="462.0001,-29.6426 458.5,-19.6427 455.0001,-29.6427 462.0001,-29.6426"/>
</g>
<!-- Node11 -->
<g id="node11" class="node">
<title>Node11</title>
<polygon fill="none" stroke="#bfbfbf" points="693,-.5 693,-19.5 746,-19.5 746,-.5 693,-.5"/>
<text text-anchor="middle" x="719.5" y="-7.5" font-family="FreeSans.ttf" font-size="10.00" fill="#000000">iterator</text>
</g>
<!-- Node7&#45;&gt;Node11 -->
<g id="edge11" class="edge">
<title>Node7&#45;&gt;Node11</title>
<path fill="none" stroke="#191970" d="M510.5584,-56.4177C554.0732,-48.168 617.9674,-35.5002 682.8241,-20.0368"/>
<polygon fill="#191970" stroke="#191970" points="683.9129,-23.3748 692.8173,-17.6335 682.2761,-16.5689 683.9129,-23.3748"/>
</g>
<!-- Node18&#45;&gt;Node3 -->
<g id="edge35" class="edge">
<title>Node18&#45;&gt;Node3</title>
<path fill="none" stroke="#191970" d="M1352.9392,-291.4512C1430.423,-275.369 1574.7207,-240.5341 1604.5,-199 1634.3939,-157.3062 1574.9084,-106.2897 1539.7703,-81.2901"/>
<polygon fill="#191970" stroke="#191970" points="1541.6448,-78.331 1531.4306,-75.5164 1537.6602,-84.0863 1541.6448,-78.331"/>
</g>
<!-- Node19 -->
<g id="node15" class="node">
<title>Node19</title>
<g id="a_node15"><a xlink:href="PositionRaw_8h.html" target="_top" xlink:title="iDynTree/Core/PositionRaw.h">
<polygon fill="none" stroke="#000000" points="1225.5,-174 1225.5,-193 1381.5,-193 1381.5,-174 1225.5,-174"/>
<text text-anchor="middle" x="1303.5" y="-181" font-family="FreeSans.ttf" font-size="10.00" fill="#000000">iDynTree/Core/PositionRaw.h</text>
</a>
</g>
</g>
<!-- Node18&#45;&gt;Node19 -->
<g id="edge18" class="edge">
<title>Node18&#45;&gt;Node19</title>
<path fill="none" stroke="#191970" d="M1303.5,-291.3845C1303.5,-272.1913 1303.5,-228.786 1303.5,-203.2663"/>
<polygon fill="#191970" stroke="#191970" points="1307.0001,-203.2483 1303.5,-193.2484 1300.0001,-203.2484 1307.0001,-203.2483"/>
</g>
<!-- Node20 -->
<g id="node16" class="node">
<title>Node20</title>
<g id="a_node16"><a xlink:href="Rotation_8h.html" target="_top" xlink:title="iDynTree/Core/Rotation.h">
<polygon fill="none" stroke="#000000" points="1129,-235.5 1129,-254.5 1266,-254.5 1266,-235.5 1129,-235.5"/>
<text text-anchor="middle" x="1197.5" y="-242.5" font-family="FreeSans.ttf" font-size="10.00" fill="#000000">iDynTree/Core/Rotation.h</text>
</a>
</g>
</g>
<!-- Node18&#45;&gt;Node20 -->
<g id="edge21" class="edge">
<title>Node18&#45;&gt;Node20</title>
<path fill="none" stroke="#191970" d="M1285.0362,-291.2455C1268.3926,-282.4527 1243.7007,-269.4079 1224.7808,-259.4125"/>
<polygon fill="#191970" stroke="#191970" points="1226.2291,-256.2193 1215.7522,-254.6427 1222.9592,-262.4086 1226.2291,-256.2193"/>
</g>
<!-- Node19&#45;&gt;Node3 -->
<g id="edge20" class="edge">
<title>Node19&#45;&gt;Node3</title>
<path fill="none" stroke="#191970" d="M1320.9307,-173.8845C1358.2343,-153.3062 1445.9923,-104.8951 1490.1487,-80.5365"/>
<polygon fill="#191970" stroke="#191970" points="1492.0617,-83.4785 1499.1272,-75.5836 1488.6805,-77.3492 1492.0617,-83.4785"/>
</g>
<!-- Node19&#45;&gt;Node4 -->
<g id="edge19" class="edge">
<title>Node19&#45;&gt;Node4</title>
<path fill="none" stroke="#191970" d="M1225.5033,-173.9644C1208.3769,-171.9365 1190.3319,-169.8504 1173.5,-168 1046.4856,-154.0368 899.4222,-139.5307 807.1748,-130.6324"/>
<polygon fill="#191970" stroke="#191970" points="807.3251,-127.1307 797.0355,-129.6556 806.6538,-134.0985 807.3251,-127.1307"/>
</g>
<!-- Node20&#45;&gt;Node3 -->
<g id="edge22" class="edge">
<title>Node20&#45;&gt;Node3</title>
<path fill="none" stroke="#191970" d="M1197.1027,-235.3685C1196.9774,-219.3125 1199.0911,-186.9709 1216.5,-168 1253.5589,-127.6161 1414.6966,-88.2993 1484.2929,-72.8573"/>
<polygon fill="#191970" stroke="#191970" points="1485.2405,-76.2327 1494.2582,-70.671 1483.7404,-69.3954 1485.2405,-76.2327"/>
</g>
<!-- Node20&#45;&gt;Node4 -->
<g id="edge34" class="edge">
<title>Node20&#45;&gt;Node4</title>
<path fill="none" stroke="#191970" d="M1186.5407,-235.3451C1164.9453,-216.5301 1117.2743,-176.086 1097.5,-168 1071.2772,-157.2772 911.7158,-140.4972 807.5714,-130.4422"/>
<polygon fill="#191970" stroke="#191970" points="807.6478,-126.9335 797.3587,-129.4605 806.978,-133.9013 807.6478,-126.9335"/>
</g>
<!-- Node21 -->
<g id="node17" class="node">
<title>Node21</title>
<g id="a_node17"><a xlink:href="GeomVector3_8h.html" target="_top" xlink:title="iDynTree/Core/GeomVector3.h">
<polygon fill="none" stroke="#000000" points="892,-174 892,-193 1055,-193 1055,-174 892,-174"/>
<text text-anchor="middle" x="973.5" y="-181" font-family="FreeSans.ttf" font-size="10.00" fill="#000000">iDynTree/Core/GeomVector3.h</text>
</a>
</g>
</g>
<!-- Node20&#45;&gt;Node21 -->
<g id="edge23" class="edge">
<title>Node20&#45;&gt;Node21</title>
<path fill="none" stroke="#191970" d="M1162.5,-235.3906C1123.5412,-224.6944 1060.4907,-207.3836 1018.0429,-195.7294"/>
<polygon fill="#191970" stroke="#191970" points="1018.8241,-192.3144 1008.2542,-193.0419 1016.9707,-199.0646 1018.8241,-192.3144"/>
</g>
<!-- Node22 -->
<g id="node18" class="node">
<title>Node22</title>
<g id="a_node18"><a xlink:href="RotationRaw_8h.html" target="_top" xlink:title="iDynTree/Core/RotationRaw.h">
<polygon fill="none" stroke="#000000" points="1437.5,-174 1437.5,-193 1595.5,-193 1595.5,-174 1437.5,-174"/>
<text text-anchor="middle" x="1516.5" y="-181" font-family="FreeSans.ttf" font-size="10.00" fill="#000000">iDynTree/Core/RotationRaw.h</text>
</a>
</g>
</g>
<!-- Node20&#45;&gt;Node22 -->
<g id="edge25" class="edge">
<title>Node20&#45;&gt;Node22</title>
<path fill="none" stroke="#191970" d="M1246.9937,-235.4581C1303.6541,-224.5345 1396.4255,-206.6492 1456.9799,-194.9749"/>
<polygon fill="#191970" stroke="#191970" points="1457.996,-198.3435 1467.1526,-193.0137 1456.6708,-191.4701 1457.996,-198.3435"/>
</g>
<!-- Node21&#45;&gt;Node4 -->
<g id="edge24" class="edge">
<title>Node21&#45;&gt;Node4</title>
<path fill="none" stroke="#191970" d="M933.6257,-173.9581C888.6094,-163.1857 815.3002,-145.6428 766.4921,-133.9631"/>
<polygon fill="#191970" stroke="#191970" points="767.0078,-130.4877 756.4678,-131.5643 765.3787,-137.2955 767.0078,-130.4877"/>
</g>
<!-- Node22&#45;&gt;Node3 -->
<g id="edge33" class="edge">
<title>Node22&#45;&gt;Node3</title>
<path fill="none" stroke="#191970" d="M1516.5,-173.8845C1516.5,-154.6913 1516.5,-111.286 1516.5,-85.7663"/>
<polygon fill="#191970" stroke="#191970" points="1520.0001,-85.7483 1516.5,-75.7484 1513.0001,-85.7484 1520.0001,-85.7483"/>
</g>
<!-- Node23 -->
<g id="node19" class="node">
<title>Node23</title>
<g id="a_node19"><a xlink:href="MatrixFixSize_8h.html" target="_top" xlink:title="iDynTree/Core/MatrixFixSize.h">
<polygon fill="none" stroke="#000000" points="858,-112.5 858,-131.5 1019,-131.5 1019,-112.5 858,-112.5"/>
<text text-anchor="middle" x="938.5" y="-119.5" font-family="FreeSans.ttf" font-size="10.00" fill="#000000">iDynTree/Core/MatrixFixSize.h</text>
</a>
</g>
</g>
<!-- Node22&#45;&gt;Node23 -->
<g id="edge26" class="edge">
<title>Node22&#45;&gt;Node23</title>
<path fill="none" stroke="#191970" d="M1463.4816,-173.9994C1450.4358,-171.8452 1436.4846,-169.6957 1423.5,-168 1286.609,-150.1233 1127.1152,-136.3426 1029.4908,-128.7021"/>
<polygon fill="#191970" stroke="#191970" points="1029.6038,-125.2004 1019.3624,-127.914 1029.0607,-132.1793 1029.6038,-125.2004"/>
</g>
<!-- Node23&#45;&gt;Node3 -->
<g id="edge30" class="edge">
<title>Node23&#45;&gt;Node3</title>
<path fill="none" stroke="#191970" d="M1019.1725,-114.184C1148.3432,-101.6692 1396.0177,-77.673 1484.2794,-69.1217"/>
<polygon fill="#191970" stroke="#191970" points="1484.6183,-72.6054 1494.2341,-68.1572 1483.9432,-65.638 1484.6183,-72.6054"/>
</g>
<!-- Node23&#45;&gt;Node5 -->
<g id="edge27" class="edge">
<title>Node23&#45;&gt;Node5</title>
<path fill="none" stroke="#191970" d="M880.0967,-112.4369C820.4594,-102.6717 727.9302,-87.5207 664.9035,-77.2006"/>
<polygon fill="#191970" stroke="#191970" points="665.0966,-73.6857 654.6624,-75.5237 663.9654,-80.5937 665.0966,-73.6857"/>
</g>
<!-- Node23&#45;&gt;Node8 -->
<g id="edge28" class="edge">
<title>Node23&#45;&gt;Node8</title>
<path fill="none" stroke="#191970" d="M939.3939,-112.2906C940.1439,-97.769 939.1755,-70.5478 923.5,-56 885.9778,-21.177 750.9328,-30.3269 684.7808,-19.7757"/>
<polygon fill="#191970" stroke="#191970" points="685.2542,-16.3036 674.7808,-17.9034 683.9659,-23.1841 685.2542,-16.3036"/>
</g>
<!-- Node23&#45;&gt;Node16 -->
<g id="edge32" class="edge">
<title>Node23&#45;&gt;Node16</title>
<path fill="none" stroke="#191970" d="M917.8713,-112.3733C898.6081,-103.3838 869.6514,-89.8706 847.9581,-79.7471"/>
<polygon fill="#191970" stroke="#191970" points="849.4015,-76.5584 838.8595,-75.5011 846.4413,-82.9017 849.4015,-76.5584"/>
</g>
<!-- Node23&#45;&gt;Node17 -->
<g id="edge29" class="edge">
<title>Node23&#45;&gt;Node17</title>
<path fill="none" stroke="#191970" d="M929.9649,-112.2455C923.0088,-104.2958 913.0117,-92.8706 904.6949,-83.3656"/>
<polygon fill="#191970" stroke="#191970" points="907.1564,-80.8637 897.9373,-75.6427 901.8884,-85.4732 907.1564,-80.8637"/>
</g>
<!-- Node24 -->
<g id="node20" class="node">
<title>Node24</title>
<polygon fill="none" stroke="#bfbfbf" points="674.5,-56.5 674.5,-75.5 734.5,-75.5 734.5,-56.5 674.5,-56.5"/>
<text text-anchor="middle" x="704.5" y="-63.5" font-family="FreeSans.ttf" font-size="10.00" fill="#000000">iostream</text>
</g>
<!-- Node23&#45;&gt;Node24 -->
<g id="edge31" class="edge">
<title>Node23&#45;&gt;Node24</title>
<path fill="none" stroke="#191970" d="M898.5398,-112.4369C855.5188,-102.1413 787.4815,-85.8588 744.4604,-75.5632"/>
<polygon fill="#191970" stroke="#191970" points="745.1617,-72.1322 734.6217,-73.2086 743.5324,-78.94 745.1617,-72.1322"/>
</g>
<!-- Node25&#45;&gt;Node3 -->
<g id="edge37" class="edge">
<title>Node25&#45;&gt;Node3</title>
<path fill="none" stroke="#191970" d="M573.4063,-408.721C553.4375,-389.9746 513.5,-346.7618 513.5,-301 513.5,-301 513.5,-301 513.5,-183.5 513.5,-124.0685 569.8634,-130.0108 626.5,-112 709.3904,-85.6403 1333.3828,-70.0961 1483.9017,-66.7057"/>
<polygon fill="#191970" stroke="#191970" points="1484.377,-70.1961 1494.2965,-66.4741 1484.2209,-63.1978 1484.377,-70.1961"/>
</g>
<!-- Node26&#45;&gt;Node3 -->
<g id="edge40" class="edge">
<title>Node26&#45;&gt;Node3</title>
<path fill="none" stroke="#191970" d="M399.5,-408.7511C399.5,-388.6182 399.5,-340.9826 399.5,-301 399.5,-301 399.5,-301 399.5,-245 399.5,-156.5645 465.6969,-145.6019 547.5,-112 635.7322,-75.7573 1326.6463,-67.6364 1484.4712,-66.2474"/>
<polygon fill="#191970" stroke="#191970" points="1484.5224,-69.7472 1494.4922,-66.162 1484.4627,-62.7474 1484.5224,-69.7472"/>
</g>
<!-- Node26&#45;&gt;Node7 -->
<g id="edge39" class="edge">
<title>Node26&#45;&gt;Node7</title>
<path fill="none" stroke="#191970" d="M387.625,-408.8867C366.25,-390.4165 323.5,-347.6455 323.5,-301 323.5,-301 323.5,-301 323.5,-183.5 323.5,-131.2571 381.7343,-96.9534 421.7082,-79.5603"/>
<polygon fill="#191970" stroke="#191970" points="423.3032,-82.6872 431.1807,-75.6023 420.6044,-76.2283 423.3032,-82.6872"/>
</g>
<!-- Node27&#45;&gt;Node3 -->
<g id="edge43" class="edge">
<title>Node27&#45;&gt;Node3</title>
<path fill="none" stroke="#191970" d="M1874.1413,-470.2747C1881.5112,-449.6902 1897.5,-400.0693 1897.5,-357 1897.5,-357 1897.5,-357 1897.5,-183.5 1897.5,-149.9798 1899.4046,-133.2734 1873.5,-112 1848.5743,-91.5305 1631.6732,-74.1597 1548.6437,-68.2022"/>
<polygon fill="#191970" stroke="#191970" points="1548.7469,-64.7008 1538.5245,-67.4853 1548.2522,-71.6833 1548.7469,-64.7008"/>
</g>
<!-- Node28&#45;&gt;Node27 -->
<g id="edge71" class="edge">
<title>Node28&#45;&gt;Node27</title>
<path fill="none" stroke="#191970" d="M1149.2088,-531.9866C1166.2722,-529.8204 1184.5331,-527.6686 1201.5,-526 1258.7745,-520.3674 1626.7,-495.9922 1791.2112,-485.1885"/>
<polygon fill="#191970" stroke="#191970" points="1791.5229,-488.6757 1801.2722,-484.5281 1791.0643,-481.6907 1791.5229,-488.6757"/>
</g>
<!-- Node29 -->
<g id="node25" class="node">
<title>Node29</title>
<g id="a_node25"><a xlink:href="Transform_8h.html" target="_top" xlink:title="iDynTree/Core/Transform.h">
<polygon fill="none" stroke="#000000" points="1548.5,-347.5 1548.5,-366.5 1694.5,-366.5 1694.5,-347.5 1548.5,-347.5"/>
<text text-anchor="middle" x="1621.5" y="-354.5" font-family="FreeSans.ttf" font-size="10.00" fill="#000000">iDynTree/Core/Transform.h</text>
</a>
</g>
</g>
<!-- Node28&#45;&gt;Node29 -->
<g id="edge45" class="edge">
<title>Node28&#45;&gt;Node29</title>
<path fill="none" stroke="#191970" d="M1067.9956,-531.8006C1050.9012,-517.3827 1024.1253,-489.8662 1040.5,-470 1044.6728,-464.9374 1412.2323,-395.9841 1560.5055,-368.3429"/>
<polygon fill="#191970" stroke="#191970" points="1561.1823,-371.7772 1570.3718,-366.5043 1559.8998,-364.8956 1561.1823,-371.7772"/>
</g>
<!-- Node30 -->
<g id="node26" class="node">
<title>Node30</title>
<g id="a_node26"><a xlink:href="Twist_8h.html" target="_top" xlink:title="iDynTree/Core/Twist.h">
<polygon fill="none" stroke="#000000" points="1234.5,-470.5 1234.5,-489.5 1356.5,-489.5 1356.5,-470.5 1234.5,-470.5"/>
<text text-anchor="middle" x="1295.5" y="-477.5" font-family="FreeSans.ttf" font-size="10.00" fill="#000000">iDynTree/Core/Twist.h</text>
</a>
</g>
</g>
<!-- Node28&#45;&gt;Node30 -->
<g id="edge50" class="edge">
<title>Node28&#45;&gt;Node30</title>
<path fill="none" stroke="#191970" d="M1114.0938,-531.8906C1151.4083,-521.2169 1211.7492,-503.9566 1252.4886,-492.3033"/>
<polygon fill="#191970" stroke="#191970" points="1253.4903,-495.6572 1262.1421,-489.5419 1251.5652,-488.9271 1253.4903,-495.6572"/>
</g>
<!-- Node33 -->
<g id="node29" class="node">
<title>Node33</title>
<g id="a_node29"><a xlink:href="SpatialAcc_8h.html" target="_top" xlink:title="iDynTree/Core/SpatialAcc.h">
<polygon fill="none" stroke="#000000" points="1374.5,-470.5 1374.5,-489.5 1522.5,-489.5 1522.5,-470.5 1374.5,-470.5"/>
<text text-anchor="middle" x="1448.5" y="-477.5" font-family="FreeSans.ttf" font-size="10.00" fill="#000000">iDynTree/Core/SpatialAcc.h</text>
</a>
</g>
</g>
<!-- Node28&#45;&gt;Node33 -->
<g id="edge61" class="edge">
<title>Node28&#45;&gt;Node33</title>
<path fill="none" stroke="#191970" d="M1137.5962,-531.9581C1203.5002,-520.9443 1311.7532,-502.8531 1381.5616,-491.1867"/>
<polygon fill="#191970" stroke="#191970" points="1382.2863,-494.6142 1391.5726,-489.5137 1381.1325,-487.71 1382.2863,-494.6142"/>
</g>
<!-- Node34 -->
<g id="node30" class="node">
<title>Node34</title>
<g id="a_node30"><a xlink:href="Wrench_8h.html" target="_top" xlink:title="iDynTree/Core/Wrench.h">
<polygon fill="none" stroke="#000000" points="1083,-470.5 1083,-489.5 1216,-489.5 1216,-470.5 1083,-470.5"/>
<text text-anchor="middle" x="1149.5" y="-477.5" font-family="FreeSans.ttf" font-size="10.00" fill="#000000">iDynTree/Core/Wrench.h</text>
</a>
</g>
</g>
<!-- Node28&#45;&gt;Node34 -->
<g id="edge63" class="edge">
<title>Node28&#45;&gt;Node34</title>
<path fill="none" stroke="#191970" d="M1091.2813,-531.8906C1101.8526,-522.4683 1118.1825,-507.9134 1130.8603,-496.6137"/>
<polygon fill="#191970" stroke="#191970" points="1133.4304,-499.0114 1138.5667,-489.7449 1128.7728,-493.7858 1133.4304,-499.0114"/>
</g>
<!-- Node36 -->
<g id="node32" class="node">
<title>Node36</title>
<g id="a_node32"><a xlink:href="ArticulatedBodyInertia_8h.html" target="_top" xlink:title="iDynTree/Core/Articulated\lBodyInertia.h">
<polygon fill="none" stroke="#000000" points="1652,-168.5 1652,-198.5 1793,-198.5 1793,-168.5 1652,-168.5"/>
<text text-anchor="start" x="1660" y="-186.5" font-family="FreeSans.ttf" font-size="10.00" fill="#000000">iDynTree/Core/Articulated</text>
<text text-anchor="middle" x="1722.5" y="-175.5" font-family="FreeSans.ttf" font-size="10.00" fill="#000000">BodyInertia.h</text>
</a>
</g>
</g>
<!-- Node28&#45;&gt;Node36 -->
<g id="edge68" class="edge">
<title>Node28&#45;&gt;Node36</title>
<path fill="none" stroke="#191970" d="M1075.7989,-531.84C1069.1985,-516.7169 1059.5646,-487.3864 1074.5,-470 1109.0689,-429.7581 1258.1275,-442.4582 1310.5,-434 1485.4203,-405.7503 1582.3917,-496.3365 1703.5,-367 1743.9064,-323.8484 1735.9235,-247.5298 1728.3239,-208.3035"/>
<polygon fill="#191970" stroke="#191970" points="1731.7482,-207.579 1726.2809,-198.5038 1724.8956,-209.0076 1731.7482,-207.579"/>
</g>
<!-- Node28&#45;&gt;Node37 -->
<g id="edge72" class="edge">
<title>Node28&#45;&gt;Node37</title>
<path fill="none" stroke="#191970" d="M1151.7954,-531.9905C1168.1164,-529.9183 1185.3995,-527.8071 1201.5,-526 1367.3234,-507.388 1566.103,-489.7042 1644.4143,-482.9185"/>
<polygon fill="#191970" stroke="#191970" points="1644.9872,-486.3821 1654.6488,-482.0343 1644.3847,-479.4081 1644.9872,-486.3821"/>
</g>
<!-- Node29&#45;&gt;Node3 -->
<g id="edge49" class="edge">
<title>Node29&#45;&gt;Node3</title>
<path fill="none" stroke="#191970" d="M1644.6286,-347.4515C1704.267,-321.4347 1855.03,-246.0069 1802.5,-168 1773.2322,-124.5375 1616.9565,-87.0681 1548.576,-72.4927"/>
<polygon fill="#191970" stroke="#191970" points="1549.2752,-69.0632 1538.7691,-70.4313 1547.8353,-75.9135 1549.2752,-69.0632"/>
</g>
<!-- Node29&#45;&gt;Node18 -->
<g id="edge46" class="edge">
<title>Node29&#45;&gt;Node18</title>
<path fill="none" stroke="#191970" d="M1567.1952,-347.4369C1511.8573,-337.6918 1426.0617,-322.5832 1367.4661,-312.2645"/>
<polygon fill="#191970" stroke="#191970" points="1368.0363,-308.8111 1357.5808,-310.5237 1366.8223,-315.705 1368.0363,-308.8111"/>
</g>
<!-- Node29&#45;&gt;Node20 -->
<g id="edge47" class="edge">
<title>Node29&#45;&gt;Node20</title>
<path fill="none" stroke="#191970" d="M1587.6357,-347.4843C1541.0545,-334.4506 1454.5568,-310.4459 1380.5,-291 1335.1743,-279.0983 1283.3624,-266.1343 1246.466,-257.0115"/>
<polygon fill="#191970" stroke="#191970" points="1247.0201,-253.5433 1236.4727,-254.5444 1245.3423,-260.3393 1247.0201,-253.5433"/>
</g>
<!-- Node29&#45;&gt;Node23 -->
<g id="edge48" class="edge">
<title>Node29&#45;&gt;Node23</title>
<path fill="none" stroke="#191970" d="M1610.1555,-347.3964C1585.6033,-326.6537 1525.6274,-276.2086 1474.5,-235 1454.2871,-218.7085 1448.7814,-215.2062 1428.5,-199 1411.4725,-185.3939 1410.6355,-176.3441 1390.5,-168 1327.2817,-141.8024 1142.1144,-129.9854 1029.3508,-125.0901"/>
<polygon fill="#191970" stroke="#191970" points="1029.4834,-121.5927 1019.344,-124.6656 1029.1866,-128.5864 1029.4834,-121.5927"/>
</g>
<!-- Node31 -->
<g id="node27" class="node">
<title>Node31</title>
<g id="a_node27"><a xlink:href="SpatialMotionVector_8h.html" target="_top" xlink:title="iDynTree/Core/SpatialMotion\lVector.h">
<polygon fill="none" stroke="#000000" points="1006,-403.5 1006,-433.5 1161,-433.5 1161,-403.5 1006,-403.5"/>
<text text-anchor="start" x="1014" y="-421.5" font-family="FreeSans.ttf" font-size="10.00" fill="#000000">iDynTree/Core/SpatialMotion</text>
<text text-anchor="middle" x="1083.5" y="-410.5" font-family="FreeSans.ttf" font-size="10.00" fill="#000000">Vector.h</text>
</a>
</g>
</g>
<!-- Node30&#45;&gt;Node31 -->
<g id="edge51" class="edge">
<title>Node30&#45;&gt;Node31</title>
<path fill="none" stroke="#191970" d="M1262.375,-470.3906C1231.1596,-461.3352 1183.602,-447.539 1145.369,-436.4479"/>
<polygon fill="#191970" stroke="#191970" points="1145.9402,-432.9693 1135.361,-433.5446 1143.9899,-439.6922 1145.9402,-432.9693"/>
</g>
<!-- Node31&#45;&gt;Node4 -->
<g id="edge52" class="edge">
<title>Node31&#45;&gt;Node4</title>
<path fill="none" stroke="#191970" d="M1083.5,-403.2899C1083.5,-380.892 1083.5,-337.7188 1083.5,-301 1083.5,-301 1083.5,-301 1083.5,-245 1083.5,-209.7513 1090.7629,-191.5102 1064.5,-168 1045.5877,-151.07 903.9008,-136.6933 807.252,-128.717"/>
<polygon fill="#191970" stroke="#191970" points="807.4192,-125.2191 797.1677,-127.8944 806.85,-132.1959 807.4192,-125.2191"/>
</g>
<!-- Node31&#45;&gt;Node21 -->
<g id="edge53" class="edge">
<title>Node31&#45;&gt;Node21</title>
<path fill="none" stroke="#191970" d="M1079.2809,-403.3589C1068.4373,-364.95 1039.206,-264.6701 1021.5,-235 1013.6914,-221.915 1002.1043,-209.3606 992.2709,-199.9234"/>
<polygon fill="#191970" stroke="#191970" points="994.5835,-197.2948 984.8663,-193.0726 989.8296,-202.433 994.5835,-197.2948"/>
</g>
<!-- Node32 -->
<g id="node28" class="node">
<title>Node32</title>
<g id="a_node28"><a xlink:href="SpatialVector_8h.html" target="_top" xlink:title="iDynTree/Core/SpatialVector.h">
<polygon fill="none" stroke="#000000" points="818,-347.5 818,-366.5 979,-366.5 979,-347.5 818,-347.5"/>
<text text-anchor="middle" x="898.5" y="-354.5" font-family="FreeSans.ttf" font-size="10.00" fill="#000000">iDynTree/Core/SpatialVector.h</text>
</a>
</g>
</g>
<!-- Node31&#45;&gt;Node32 -->
<g id="edge54" class="edge">
<title>Node31&#45;&gt;Node32</title>
<path fill="none" stroke="#191970" d="M1038.2439,-403.4554C1007.1054,-393.104 966.2031,-379.5067 936.7045,-369.7004"/>
<polygon fill="#191970" stroke="#191970" points="937.762,-366.3637 927.1684,-366.5303 935.5537,-373.0063 937.762,-366.3637"/>
</g>
<!-- Node32&#45;&gt;Node5 -->
<g id="edge57" class="edge">
<title>Node32&#45;&gt;Node5</title>
<path fill="none" stroke="#191970" d="M828.9682,-347.454C791.6733,-340.581 745.6683,-329.2192 707.5,-311 670.5973,-293.385 662.7412,-284.5725 634.5,-255 613.5529,-233.0655 604.5836,-227.9377 595.5,-199 583.3372,-160.253 588.3583,-111.9712 592.693,-85.5437"/>
<polygon fill="#191970" stroke="#191970" points="596.1478,-86.1062 594.4565,-75.6472 589.2564,-84.8781 596.1478,-86.1062"/>
</g>
<!-- Node32&#45;&gt;Node16 -->
<g id="edge60" class="edge">
<title>Node32&#45;&gt;Node16</title>
<path fill="none" stroke="#191970" d="M895.8383,-347.3179C884.4259,-305.8054 839.5043,-142.403 823.8861,-85.5918"/>
<polygon fill="#191970" stroke="#191970" points="827.1974,-84.4329 821.1717,-75.7185 820.4478,-86.2885 827.1974,-84.4329"/>
</g>
<!-- Node32&#45;&gt;Node18 -->
<g id="edge55" class="edge">
<title>Node32&#45;&gt;Node18</title>
<path fill="none" stroke="#191970" d="M967.6618,-347.4369C1039.0832,-337.5613 1150.3409,-322.1776 1225.0132,-311.8525"/>
<polygon fill="#191970" stroke="#191970" points="1225.8727,-315.267 1235.299,-310.4303 1224.9138,-308.333 1225.8727,-315.267"/>
</g>
<!-- Node32&#45;&gt;Node20 -->
<g id="edge56" class="edge">
<title>Node32&#45;&gt;Node20</title>
<path fill="none" stroke="#191970" d="M923.9926,-347.4509C977.5031,-327.4069 1101.606,-280.9202 1162.5109,-258.1063"/>
<polygon fill="#191970" stroke="#191970" points="1163.9351,-261.3104 1172.072,-254.5249 1161.4796,-254.7551 1163.9351,-261.3104"/>
</g>
<!-- Node32&#45;&gt;Node21 -->
<g id="edge58" class="edge">
<title>Node32&#45;&gt;Node21</title>
<path fill="none" stroke="#191970" d="M902.6392,-347.4248C914.5969,-319.7625 949.3524,-239.3614 965.3126,-202.4403"/>
<polygon fill="#191970" stroke="#191970" points="968.5259,-203.8274 969.2812,-193.2595 962.1005,-201.0498 968.5259,-203.8274"/>
</g>
<!-- Node32&#45;&gt;Node24 -->
<g id="edge59" class="edge">
<title>Node32&#45;&gt;Node24</title>
<path fill="none" stroke="#191970" d="M852.8944,-347.4465C785.5418,-330.6104 661.7151,-288.5937 608.5,-199 588.3358,-165.0513 601.8417,-142.8396 626.5,-112 637.7198,-97.9677 654.4663,-87.2967 669.5693,-79.7824"/>
<polygon fill="#191970" stroke="#191970" points="671.1237,-82.9194 678.6966,-75.5098 668.1559,-76.5796 671.1237,-82.9194"/>
</g>
<!-- Node33&#45;&gt;Node31 -->
<g id="edge62" class="edge">
<title>Node33&#45;&gt;Node31</title>
<path fill="none" stroke="#191970" d="M1391.8692,-470.4581C1332.8961,-460.5215 1239.734,-444.8244 1171.229,-433.2817"/>
<polygon fill="#191970" stroke="#191970" points="1171.7502,-429.8203 1161.3077,-431.6101 1170.5871,-436.723 1171.7502,-429.8203"/>
</g>
<!-- Node35 -->
<g id="node31" class="node">
<title>Node35</title>
<g id="a_node31"><a xlink:href="SpatialForceVector_8h.html" target="_top" xlink:title="iDynTree/Core/SpatialForce\lVector.h">
<polygon fill="none" stroke="#000000" points="761.5,-403.5 761.5,-433.5 909.5,-433.5 909.5,-403.5 761.5,-403.5"/>
<text text-anchor="start" x="769.5" y="-421.5" font-family="FreeSans.ttf" font-size="10.00" fill="#000000">iDynTree/Core/SpatialForce</text>
<text text-anchor="middle" x="835.5" y="-410.5" font-family="FreeSans.ttf" font-size="10.00" fill="#000000">Vector.h</text>
</a>
</g>
</g>
<!-- Node34&#45;&gt;Node35 -->
<g id="edge64" class="edge">
<title>Node34&#45;&gt;Node35</title>
<path fill="none" stroke="#191970" d="M1100.782,-470.4581C1052.5003,-461.0017 977.5803,-446.3278 919.6565,-434.9829"/>
<polygon fill="#191970" stroke="#191970" points="920.269,-431.5364 909.7827,-433.049 918.9235,-438.4059 920.269,-431.5364"/>
</g>
<!-- Node35&#45;&gt;Node4 -->
<g id="edge65" class="edge">
<title>Node35&#45;&gt;Node4</title>
<path fill="none" stroke="#191970" d="M823.9634,-403.4768C816.8631,-393.5852 808.0833,-380.0884 802.5,-367 782.409,-319.9025 783.5779,-305.5626 775.5,-255 769.3802,-216.6941 785.8401,-202.7003 768.5,-168 762.4387,-155.8703 751.6625,-145.518 741.4859,-137.7234"/>
<polygon fill="#191970" stroke="#191970" points="743.3654,-134.7646 733.1953,-131.7947 739.2935,-140.4585 743.3654,-134.7646"/>
</g>
<!-- Node35&#45;&gt;Node21 -->
<g id="edge66" class="edge">
<title>Node35&#45;&gt;Node21</title>
<path fill="none" stroke="#191970" d="M823.2754,-403.2844C813.1298,-388.7055 801.5496,-366.1526 809.5,-347 837.9685,-278.4191 910.7217,-223.6926 949.0425,-198.5263"/>
<polygon fill="#191970" stroke="#191970" points="951.0372,-201.4049 957.5545,-193.0517 947.2506,-195.5174 951.0372,-201.4049"/>
</g>
<!-- Node35&#45;&gt;Node32 -->
<g id="edge67" class="edge">
<title>Node35&#45;&gt;Node32</title>
<path fill="none" stroke="#191970" d="M851.073,-403.2977C860.1825,-394.4052 871.7034,-383.1586 881.1091,-373.9769"/>
<polygon fill="#191970" stroke="#191970" points="883.702,-376.3368 888.4129,-366.8469 878.8122,-371.3278 883.702,-376.3368"/>
</g>
<!-- Node36&#45;&gt;Node3 -->
<g id="edge70" class="edge">
<title>Node36&#45;&gt;Node3</title>
<path fill="none" stroke="#191970" d="M1707.7262,-168.353C1691.649,-152.558 1664.5989,-127.9258 1637.5,-112 1609.2315,-95.3868 1573.883,-82.7689 1548.7063,-74.9883"/>
<polygon fill="#191970" stroke="#191970" points="1549.5085,-71.5748 1538.9243,-72.05 1547.4947,-78.2789 1549.5085,-71.5748"/>
</g>
<!-- Node36&#45;&gt;Node23 -->
<g id="edge69" class="edge">
<title>Node36&#45;&gt;Node23</title>
<path fill="none" stroke="#191970" d="M1651.761,-173.4865C1636.212,-171.4871 1619.8167,-169.5335 1604.5,-168 1399.3025,-147.4564 1157.6119,-133.2482 1029.2851,-126.493"/>
<polygon fill="#191970" stroke="#191970" points="1029.2811,-122.9881 1019.1118,-125.9606 1028.9152,-129.9785 1029.2811,-122.9881"/>
</g>
<!-- Node38&#45;&gt;Node4 -->
<g id="edge77" class="edge">
<title>Node38&#45;&gt;Node4</title>
<path fill="none" stroke="#191970" d="M273.2167,-470.4509C260.3142,-462.5902 244.0359,-450.1269 236.5,-434 230.6672,-421.5178 230.1094,-415.206 236.5,-403 321.5339,-240.5859 411.2902,-249.5122 575.5,-168 604.6684,-153.5211 639.429,-142.1214 667.1378,-134.2921"/>
<polygon fill="#191970" stroke="#191970" points="668.2949,-137.6037 677.0039,-131.5701 666.4332,-130.8558 668.2949,-137.6037"/>
</g>
<!-- Node38&#45;&gt;Node5 -->
<g id="edge83" class="edge">
<title>Node38&#45;&gt;Node5</title>
<path fill="none" stroke="#191970" d="M271.387,-470.4425C237.935,-452.9845 174.5,-412.5547 174.5,-357 174.5,-357 174.5,-357 174.5,-183.5 174.5,-146.921 412.8467,-98.9584 531.289,-77.3824"/>
<polygon fill="#191970" stroke="#191970" points="532.1146,-80.7899 541.3309,-75.564 530.8672,-73.9019 532.1146,-80.7899"/>
</g>
<!-- Node38&#45;&gt;Node23 -->
<g id="edge79" class="edge">
<title>Node38&#45;&gt;Node23</title>
<path fill="none" stroke="#191970" d="M287.4394,-470.3626C281.5001,-454.5841 272.6676,-422.9979 287.5,-403 422.5173,-220.962 575.4634,-361.5499 775.5,-255 783.5296,-250.723 877.8225,-172.518 919.218,-138.0683"/>
<polygon fill="#191970" stroke="#191970" points="921.5296,-140.698 926.975,-131.6097 917.0505,-135.3186 921.5296,-140.698"/>
</g>
<!-- Node38&#45;&gt;Node25 -->
<g id="edge78" class="edge">
<title>Node38&#45;&gt;Node25</title>
<path fill="none" stroke="#191970" d="M336.9598,-470.4581C388.7114,-459.5956 473.2612,-441.8488 528.8962,-430.1711"/>
<polygon fill="#191970" stroke="#191970" points="529.8658,-433.5439 538.9336,-428.0643 528.4278,-426.6932 529.8658,-433.5439"/>
</g>
<!-- Node38&#45;&gt;Node26 -->
<g id="edge76" class="edge">
<title>Node38&#45;&gt;Node26</title>
<path fill="none" stroke="#191970" d="M308.375,-470.3906C325.9698,-460.3713 353.7566,-444.5483 374.0241,-433.0071"/>
<polygon fill="#191970" stroke="#191970" points="375.7856,-436.0318 382.7435,-428.0419 372.3217,-429.9489 375.7856,-436.0318"/>
</g>
<!-- Node38&#45;&gt;Node29 -->
<g id="edge82" class="edge">
<title>Node38&#45;&gt;Node29</title>
<path fill="none" stroke="#191970" d="M290.0218,-470.3725C288.0772,-453.7182 286.9238,-419.7137 306.5,-403 329.9758,-382.9568 1251.728,-363.9586 1537.7451,-358.5362"/>
<polygon fill="#191970" stroke="#191970" points="1538.1225,-362.0298 1548.0546,-358.3415 1537.9902,-355.0311 1538.1225,-362.0298"/>
</g>
<!-- Node38&#45;&gt;Node31 -->
<g id="edge80" class="edge">
<title>Node38&#45;&gt;Node31</title>
<path fill="none" stroke="#191970" d="M372.2078,-474.6081C491.6359,-466.5095 722.4476,-450.3985 918.5,-434 943.5738,-431.9027 970.7716,-429.4296 995.7161,-427.0821"/>
<polygon fill="#191970" stroke="#191970" points="996.2607,-430.5463 1005.8868,-426.1203 995.6016,-423.5774 996.2607,-430.5463"/>
</g>
<!-- Node38&#45;&gt;Node35 -->
<g id="edge81" class="edge">
<title>Node38&#45;&gt;Node35</title>
<path fill="none" stroke="#191970" d="M372.0618,-470.8924C473.6752,-459.4048 647.5885,-439.7437 751.0205,-428.0505"/>
<polygon fill="#191970" stroke="#191970" points="751.5701,-431.5108 761.1136,-426.9095 750.7837,-424.5551 751.5701,-431.5108"/>
</g>
<!-- Node39 -->
<g id="node35" class="node">
<title>Node39</title>
<polygon fill="none" stroke="#bfbfbf" points="69,-409 69,-428 146,-428 146,-409 69,-409"/>
<text text-anchor="middle" x="107.5" y="-416" font-family="FreeSans.ttf" font-size="10.00" fill="#000000">Eigen/Dense</text>
</g>
<!-- Node38&#45;&gt;Node39 -->
<g id="edge75" class="edge">
<title>Node38&#45;&gt;Node39</title>
<path fill="none" stroke="#191970" d="M262.75,-470.3906C231.2883,-459.8749 180.6992,-442.966 145.8686,-431.3243"/>
<polygon fill="#191970" stroke="#191970" points="146.6419,-427.8925 136.0481,-428.0419 144.4228,-434.5315 146.6419,-427.8925"/>
</g>
<!-- Node40&#45;&gt;Node39 -->
<g id="edge85" class="edge">
<title>Node40&#45;&gt;Node39</title>
<path fill="none" stroke="#191970" d="M77.6383,-777.8325C52.0758,-759.8978 2.5,-718.822 2.5,-670 2.5,-670 2.5,-670 2.5,-541.5 2.5,-492.947 50.4125,-453.8637 81.507,-433.6116"/>
<polygon fill="#191970" stroke="#191970" points="83.5563,-436.4576 90.1614,-428.1737 79.832,-430.5305 83.5563,-436.4576"/>
</g>
<!-- Node41&#45;&gt;Node35 -->
<g id="edge87" class="edge">
<title>Node41&#45;&gt;Node35</title>
<path fill="none" stroke="#191970" d="M822,-470.3906C823.8847,-463.1463 826.5588,-452.8679 829.0304,-443.3676"/>
<polygon fill="#191970" stroke="#191970" points="832.4553,-444.1037 831.586,-433.5446 825.6808,-442.3412 832.4553,-444.1037"/>
</g>
<!-- Node42&#45;&gt;Node27 -->
<g id="edge100" class="edge">
<title>Node42&#45;&gt;Node27</title>
<path fill="none" stroke="#191970" d="M2178.1959,-660.4275C2194.5463,-653.1781 2213.8739,-641.4435 2223.5,-624 2246.3116,-582.6628 2221.8884,-552.0325 2182.5,-526 2172.8101,-519.5958 2038.852,-501.4669 1949.6458,-489.973"/>
<polygon fill="#191970" stroke="#191970" points="1949.9055,-486.4777 1939.541,-488.6747 1949.0134,-493.4206 1949.9055,-486.4777"/>
</g>
<!-- Node42&#45;&gt;Node29 -->
<g id="edge99" class="edge">
<title>Node42&#45;&gt;Node29</title>
<path fill="none" stroke="#191970" d="M2190.3672,-660.3369C2209.3355,-653.5199 2230.2789,-642.2455 2241.5,-624 2259.8818,-594.1113 2213.9121,-526.3612 2213.5,-526 2184.0668,-500.2058 1911.1078,-444.8307 1873.5,-434 1798.2381,-412.3253 1710.9342,-385.2029 1661.3561,-369.6134"/>
<polygon fill="#191970" stroke="#191970" points="1662.2522,-366.2262 1651.6627,-366.5611 1660.1498,-372.903 1662.2522,-366.2262"/>
</g>
<!-- Node42&#45;&gt;Node37 -->
<g id="edge107" class="edge">
<title>Node42&#45;&gt;Node37</title>
<path fill="none" stroke="#191970" d="M2083.7121,-661.8966C2002.4144,-649.6004 1863.3845,-620.5557 1761.5,-557 1734.6996,-540.2819 1708.8395,-514.2102 1693.3002,-497.1163"/>
<polygon fill="#191970" stroke="#191970" points="1695.806,-494.6673 1686.542,-489.5263 1690.5781,-499.3223 1695.806,-494.6673"/>
</g>
<!-- Node43 -->
<g id="node39" class="node">
<title>Node43</title>
<g id="a_node39"><a xlink:href="IJoint_8h.html" target="_top" xlink:title="iDynTree/Model/IJoint.h">
<polygon fill="none" stroke="#000000" points="2086.5,-599 2086.5,-618 2214.5,-618 2214.5,-599 2086.5,-599"/>
<text text-anchor="middle" x="2150.5" y="-606" font-family="FreeSans.ttf" font-size="10.00" fill="#000000">iDynTree/Model/IJoint.h</text>
</a>
</g>
</g>
<!-- Node42&#45;&gt;Node43 -->
<g id="edge89" class="edge">
<title>Node42&#45;&gt;Node43</title>
<path fill="none" stroke="#191970" d="M2150.5,-660.3906C2150.5,-651.8657 2150.5,-639.1392 2150.5,-628.4235"/>
<polygon fill="#191970" stroke="#191970" points="2154.0001,-628.2448 2150.5,-618.2449 2147.0001,-628.2449 2154.0001,-628.2448"/>
</g>
<!-- Node44 -->
<g id="node40" class="node">
<title>Node44</title>
<g id="a_node40"><a xlink:href="Link_8h.html" target="_top" xlink:title="iDynTree/Model/Link.h">
<polygon fill="none" stroke="#000000" points="1944.5,-599 1944.5,-618 2068.5,-618 2068.5,-599 1944.5,-599"/>
<text text-anchor="middle" x="2006.5" y="-606" font-family="FreeSans.ttf" font-size="10.00" fill="#000000">iDynTree/Model/Link.h</text>
</a>
</g>
</g>
<!-- Node42&#45;&gt;Node44 -->
<g id="edge91" class="edge">
<title>Node42&#45;&gt;Node44</title>
<path fill="none" stroke="#191970" d="M2128,-660.3906C2103.9062,-650.1005 2065.4787,-633.6888 2038.2992,-622.0809"/>
<polygon fill="#191970" stroke="#191970" points="2039.4131,-618.7508 2028.842,-618.0419 2036.6637,-625.1883 2039.4131,-618.7508"/>
</g>
<!-- Node48 -->
<g id="node42" class="node">
<title>Node48</title>
<g id="a_node42"><a xlink:href="SolidShapes_8h.html" target="_top" xlink:title="iDynTree/Model/SolidShapes.h">
<polygon fill="none" stroke="#000000" points="2309,-532 2309,-551 2472,-551 2472,-532 2309,-532"/>
<text text-anchor="middle" x="2390.5" y="-539" font-family="FreeSans.ttf" font-size="10.00" fill="#000000">iDynTree/Model/SolidShapes.h</text>
</a>
</g>
</g>
<!-- Node42&#45;&gt;Node48 -->
<g id="edge101" class="edge">
<title>Node42&#45;&gt;Node48</title>
<path fill="none" stroke="#191970" d="M2195.8705,-660.4677C2225.2171,-653.1295 2263.5708,-641.2825 2294.5,-624 2326.2507,-606.2585 2357.073,-576.9738 2374.8962,-558.4873"/>
<polygon fill="#191970" stroke="#191970" points="2377.5893,-560.7333 2381.9156,-551.062 2372.5025,-555.9245 2377.5893,-560.7333"/>
</g>
<!-- Node49 -->
<g id="node43" class="node">
<title>Node49</title>
<polygon fill="none" stroke="#bfbfbf" points="2381,-470.5 2381,-489.5 2430,-489.5 2430,-470.5 2381,-470.5"/>
<text text-anchor="middle" x="2405.5" y="-477.5" font-family="FreeSans.ttf" font-size="10.00" fill="#000000">cstdlib</text>
</g>
<!-- Node42&#45;&gt;Node49 -->
<g id="edge106" class="edge">
<title>Node42&#45;&gt;Node49</title>
<path fill="none" stroke="#191970" d="M2201.5568,-660.4373C2286.4273,-643.3419 2450.3241,-604.8122 2481.5,-557 2489.0253,-545.4589 2488.2651,-538.0025 2481.5,-526 2472.4692,-509.9778 2455.3607,-498.9011 2439.6596,-491.639"/>
<polygon fill="#191970" stroke="#191970" points="2440.7227,-488.288 2430.1502,-487.6002 2437.9862,-494.7309 2440.7227,-488.288"/>
</g>
<!-- Node43&#45;&gt;Node27 -->
<g id="edge90" class="edge">
<title>Node43&#45;&gt;Node27</title>
<path fill="none" stroke="#191970" d="M2156.5433,-598.7919C2166.2134,-581.8873 2182.3517,-546.862 2164.5,-526 2157.4898,-517.8077 2034.5669,-500.7347 1949.9094,-489.8497"/>
<polygon fill="#191970" stroke="#191970" points="1950.1488,-486.3519 1939.7854,-488.5539 1949.2601,-493.2952 1950.1488,-486.3519"/>
</g>
<!-- Node44&#45;&gt;Node27 -->
<g id="edge98" class="edge">
<title>Node44&#45;&gt;Node27</title>
<path fill="none" stroke="#191970" d="M2047.8355,-598.9637C2085.0784,-589.4355 2135.738,-573.8181 2147.5,-557 2155.3962,-545.7094 2156.4087,-536.5101 2147.5,-526 2141.0387,-518.3773 2029.1933,-501.6451 1949.6272,-490.6018"/>
<polygon fill="#191970" stroke="#191970" points="1949.991,-487.1189 1939.606,-489.2172 1949.0329,-494.053 1949.991,-487.1189"/>
</g>
<!-- Node45 -->
<g id="node41" class="node">
<title>Node45</title>
<g id="a_node41"><a xlink:href="SpatialInertia_8h.html" target="_top" xlink:title="iDynTree/Core/SpatialInertia.h">
<polygon fill="none" stroke="#ff0000" points="1210.5,-532 1210.5,-551 1372.5,-551 1372.5,-532 1210.5,-532"/>
<text text-anchor="middle" x="1291.5" y="-539" font-family="FreeSans.ttf" font-size="10.00" fill="#000000">iDynTree/Core/SpatialInertia.h</text>
</a>
</g>
</g>
<!-- Node44&#45;&gt;Node45 -->
<g id="edge92" class="edge">
<title>Node44&#45;&gt;Node45</title>
<path fill="none" stroke="#191970" d="M1944.2992,-602.6714C1817.969,-590.8335 1530.8404,-563.9277 1383.0909,-550.0826"/>
<polygon fill="#191970" stroke="#191970" points="1382.9809,-546.5571 1372.698,-549.1088 1382.3278,-553.5266 1382.9809,-546.5571"/>
</g>
<!-- Node45&#45;&gt;Node4 -->
<g id="edge93" class="edge">
<title>Node45&#45;&gt;Node4</title>
<path fill="none" stroke="#191970" d="M1343.9751,-531.9629C1412.7941,-519.2068 1525.5651,-497.3435 1531.5,-490 1561.8238,-452.4789 1632.0345,-494.4065 1380.5,-291 1332.6661,-252.3185 1191.7198,-184.654 1132.5,-168 1102.03,-159.4311 920.3227,-141.2169 807.3668,-130.4567"/>
<polygon fill="#191970" stroke="#191970" points="807.6196,-126.9651 797.3333,-129.5033 806.9574,-133.9337 807.6196,-126.9651"/>
</g>
<!-- Node45&#45;&gt;Node30 -->
<g id="edge94" class="edge">
<title>Node45&#45;&gt;Node30</title>
<path fill="none" stroke="#191970" d="M1292.125,-531.8906C1292.6795,-523.3657 1293.5072,-510.6392 1294.2042,-499.9235"/>
<polygon fill="#191970" stroke="#191970" points="1297.7097,-499.951 1294.8662,-489.7449 1290.7244,-499.4966 1297.7097,-499.951"/>
</g>
<!-- Node45&#45;&gt;Node33 -->
<g id="edge96" class="edge">
<title>Node45&#45;&gt;Node33</title>
<path fill="none" stroke="#191970" d="M1316.0313,-531.8906C1342.5307,-521.5103 1384.9331,-504.9004 1414.607,-493.2766"/>
<polygon fill="#191970" stroke="#191970" points="1416.1065,-496.4482 1424.141,-489.5419 1413.5533,-489.9304 1416.1065,-496.4482"/>
</g>
<!-- Node45&#45;&gt;Node34 -->
<g id="edge97" class="edge">
<title>Node45&#45;&gt;Node34</title>
<path fill="none" stroke="#191970" d="M1269.3125,-531.8906C1245.5533,-521.6005 1207.6595,-505.1888 1180.8575,-493.5809"/>
<polygon fill="#191970" stroke="#191970" points="1182.0991,-490.3045 1171.5317,-489.5419 1179.317,-496.7279 1182.0991,-490.3045"/>
</g>
<!-- Node45&#45;&gt;Node41 -->
<g id="edge95" class="edge">
<title>Node45&#45;&gt;Node41</title>
<path fill="none" stroke="#191970" d="M1218.5263,-531.9918C1133.1879,-520.8725 992.2332,-502.5065 902.7157,-490.8427"/>
<polygon fill="#191970" stroke="#191970" points="902.9695,-487.3463 892.6011,-489.5248 902.065,-494.2876 902.9695,-487.3463"/>
</g>
<!-- Node48&#45;&gt;Node3 -->
<g id="edge103" class="edge">
<title>Node48&#45;&gt;Node3</title>
<path fill="none" stroke="#191970" d="M2342.8282,-531.9261C2287.4247,-517.6963 2203.5,-485.1426 2203.5,-418.5 2203.5,-418.5 2203.5,-418.5 2203.5,-183.5 2203.5,-116.1998 1684.6526,-77.1329 1548.7596,-68.0549"/>
<polygon fill="#191970" stroke="#191970" points="1548.7883,-64.5493 1538.5796,-67.3834 1548.3275,-71.5341 1548.7883,-64.5493"/>
</g>
<!-- Node48&#45;&gt;Node29 -->
<g id="edge105" class="edge">
<title>Node48&#45;&gt;Node29</title>
<path fill="none" stroke="#191970" d="M2352.2881,-531.9251C2311.8139,-521.7328 2246.0739,-505.0342 2189.5,-490 2048.7163,-452.5874 2015.5111,-435.444 1873.5,-403 1812.6325,-389.0941 1742.7372,-376.6061 1692.0213,-368.1628"/>
<polygon fill="#191970" stroke="#191970" points="1692.5793,-364.7076 1682.1422,-366.5289 1691.437,-371.6138 1692.5793,-364.7076"/>
</g>
<!-- Node48&#45;&gt;Node37 -->
<g id="edge104" class="edge">
<title>Node48&#45;&gt;Node37</title>
<path fill="none" stroke="#191970" d="M2308.7626,-534.5021C2193.6034,-524.6334 1977.0264,-506.039 1792.5,-490 1765.5026,-487.6534 1734.9114,-484.9685 1712.22,-482.972"/>
<polygon fill="#191970" stroke="#191970" points="1712.3475,-479.4698 1702.0791,-482.0793 1711.7337,-486.4428 1712.3475,-479.4698"/>
</g>
<!-- Node48&#45;&gt;Node49 -->
<g id="edge102" class="edge">
<title>Node48&#45;&gt;Node49</title>
<path fill="none" stroke="#191970" d="M2392.8438,-531.8906C2394.9449,-523.276 2398.0925,-510.3708 2400.723,-499.5858"/>
<polygon fill="#191970" stroke="#191970" points="2404.1539,-500.2894 2403.1232,-489.7449 2397.3532,-498.6307 2404.1539,-500.2894"/>
</g>
<!-- Node50&#45;&gt;Node27 -->
<g id="edge109" class="edge">
<title>Node50&#45;&gt;Node27</title>
<path fill="none" stroke="#191970" d="M1848.5625,-531.8906C1852.2424,-523.1862 1857.7742,-510.1015 1862.362,-499.2494"/>
<polygon fill="#191970" stroke="#191970" points="1865.71,-500.3185 1866.3802,-489.7449 1859.2625,-497.5927 1865.71,-500.3185"/>
</g>
<!-- Node50&#45;&gt;Node37 -->
<g id="edge110" class="edge">
<title>Node50&#45;&gt;Node37</title>
<path fill="none" stroke="#191970" d="M1818.5625,-531.8906C1789.7639,-521.2213 1743.2014,-503.9707 1711.7473,-492.3175"/>
<polygon fill="#191970" stroke="#191970" points="1712.7006,-488.9383 1702.1075,-488.7461 1710.2687,-495.5023 1712.7006,-488.9383"/>
</g>
<!-- Node51&#45;&gt;Node3 -->
<g id="edge114" class="edge">
<title>Node51&#45;&gt;Node3</title>
<path fill="none" stroke="#191970" d="M2591.5903,-531.9209C2567.8118,-513.0672 2519.5,-468.5971 2519.5,-418.5 2519.5,-418.5 2519.5,-418.5 2519.5,-183.5 2519.5,-83.4115 1721.4444,-68.3903 1549.0685,-66.3132"/>
<polygon fill="#191970" stroke="#191970" points="1548.8947,-62.8111 1538.8554,-66.1967 1548.8148,-69.8107 1548.8947,-62.8111"/>
</g>
<!-- Node51&#45;&gt;Node6 -->
<g id="edge115" class="edge">
<title>Node51&#45;&gt;Node6</title>
<path fill="none" stroke="#191970" d="M2602.4083,-531.9857C2598.0713,-511.3994 2588.5,-461.1375 2588.5,-418.5 2588.5,-418.5 2588.5,-418.5 2588.5,-122 2588.5,-30.4648 1084.4935,-12.6786 827.6017,-10.3083"/>
<polygon fill="#191970" stroke="#191970" points="827.3433,-6.8059 817.3121,-10.2155 827.2801,-13.8056 827.3433,-6.8059"/>
</g>
<!-- Node51&#45;&gt;Node27 -->
<g id="edge112" class="edge">
<title>Node51&#45;&gt;Node27</title>
<path fill="none" stroke="#191970" d="M2533.9968,-531.9981C2516.8378,-529.8562 2498.5249,-527.7125 2481.5,-526 2291.1711,-506.8553 2066.7542,-491.9094 1950.0488,-484.7098"/>
<polygon fill="#191970" stroke="#191970" points="1949.9759,-481.1988 1939.7801,-484.0791 1949.5468,-488.1856 1949.9759,-481.1988"/>
</g>
<!-- Node51&#45;&gt;Node37 -->
<g id="edge113" class="edge">
<title>Node51&#45;&gt;Node37</title>
<path fill="none" stroke="#191970" d="M2535.9608,-531.9611C2518.2478,-529.7437 2499.1866,-527.5743 2481.5,-526 2176.0677,-498.8126 2098.3922,-511.401 1792.5,-490 1765.4669,-488.1087 1734.878,-485.394 1712.1966,-483.2702"/>
<polygon fill="#191970" stroke="#191970" points="1712.3462,-479.7688 1702.0609,-482.3112 1711.6868,-486.7376 1712.3462,-479.7688"/>
</g>
<!-- Node52&#45;&gt;Node4 -->
<g id="edge118" class="edge">
<title>Node52&#45;&gt;Node4</title>
<path fill="none" stroke="#191970" d="M344.954,-531.9673C255.1038,-516.1858 91.8859,-481.5852 59.5,-434 51.748,-422.6099 52.4036,-414.8097 59.5,-403 179.1922,-203.81 475.4908,-145.6712 625.8569,-128.8128"/>
<polygon fill="#191970" stroke="#191970" points="626.4221,-132.2721 635.9867,-127.7149 625.6678,-125.3129 626.4221,-132.2721"/>
</g>
<!-- Node52&#45;&gt;Node26 -->
<g id="edge119" class="edge">
<title>Node52&#45;&gt;Node26</title>
<path fill="none" stroke="#191970" d="M404.1077,-531.8484C403.2898,-511.7295 401.3887,-464.9608 400.3012,-438.2098"/>
<polygon fill="#191970" stroke="#191970" points="403.7939,-437.9563 399.8905,-428.1068 396.7997,-438.2407 403.7939,-437.9563"/>
</g>
<!-- Node52&#45;&gt;Node35 -->
<g id="edge120" class="edge">
<title>Node52&#45;&gt;Node35</title>
<path fill="none" stroke="#191970" d="M437.9612,-531.9507C509.9043,-511.4194 680.2733,-462.799 772.9049,-436.3636"/>
<polygon fill="#191970" stroke="#191970" points="774.0569,-439.6746 782.7125,-433.5647 772.1359,-432.9434 774.0569,-439.6746"/>
</g>
<!-- Node52&#45;&gt;Node37 -->
<g id="edge121" class="edge">
<title>Node52&#45;&gt;Node37</title>
<path fill="none" stroke="#191970" d="M480.0429,-538.6292C661.4063,-531.6102 1135.7595,-512.4997 1531.5,-490 1570.2807,-487.7951 1614.7764,-484.6875 1644.5621,-482.5238"/>
<polygon fill="#191970" stroke="#191970" points="1645.1143,-485.9929 1654.8324,-481.7728 1644.6037,-479.0115 1645.1143,-485.9929"/>
</g>
<!-- Node53&#45;&gt;Node18 -->
<g id="edge123" class="edge">
<title>Node53&#45;&gt;Node18</title>
<path fill="none" stroke="#191970" d="M1367.4551,-598.8883C1386.1635,-582.7284 1425.8131,-549.5736 1462.5,-526 1491.6,-507.3015 1513.5694,-519.5794 1531.5,-490 1536.1078,-482.3987 1535.4976,-477.9392 1531.5,-470 1509.4006,-426.111 1383.3275,-348.0196 1328.7174,-315.6665"/>
<polygon fill="#191970" stroke="#191970" points="1330.3838,-312.5861 1319.9911,-310.5262 1326.831,-318.6174 1330.3838,-312.5861"/>
</g>
<!-- Node53&#45;&gt;Node27 -->
<g id="edge125" class="edge">
<title>Node53&#45;&gt;Node27</title>
<path fill="none" stroke="#191970" d="M1396.0006,-598.9075C1438.2267,-588.631 1507.1286,-571.7989 1566.5,-557 1657.389,-534.345 1763.4179,-507.363 1823.1858,-492.1023"/>
<polygon fill="#191970" stroke="#191970" points="1824.2596,-495.4405 1833.0824,-489.5746 1822.5273,-488.6583 1824.2596,-495.4405"/>
</g>
<!-- Node53&#45;&gt;Node28 -->
<g id="edge126" class="edge">
<title>Node53&#45;&gt;Node28</title>
<path fill="none" stroke="#191970" d="M1317.249,-598.9717C1268.0343,-587.0246 1183.632,-566.5357 1130.0256,-553.5225"/>
<polygon fill="#191970" stroke="#191970" points="1130.6059,-550.0618 1120.0624,-551.1039 1128.9545,-556.8642 1130.6059,-550.0618"/>
</g>
<!-- Node53&#45;&gt;Node34 -->
<g id="edge124" class="edge">
<title>Node53&#45;&gt;Node34</title>
<path fill="none" stroke="#191970" d="M1299.5796,-598.9363C1268.264,-591.5032 1230.082,-578.6742 1201.5,-557 1181.3004,-541.6823 1166.3046,-516.1529 1157.736,-498.7223"/>
<polygon fill="#191970" stroke="#191970" points="1160.8469,-497.1121 1153.4429,-489.5337 1154.505,-500.0752 1160.8469,-497.1121"/>
</g>
<!-- Node53&#45;&gt;Node37 -->
<g id="edge127" class="edge">
<title>Node53&#45;&gt;Node37</title>
<path fill="none" stroke="#191970" d="M1380.4393,-598.9466C1437.2791,-576.2636 1580.4535,-519.1273 1645.4676,-493.1822"/>
<polygon fill="#191970" stroke="#191970" points="1646.8494,-496.3992 1654.8399,-489.442 1644.2549,-489.8978 1646.8494,-496.3992"/>
</g>
<!-- Node54&#45;&gt;Node27 -->
<g id="edge130" class="edge">
<title>Node54&#45;&gt;Node27</title>
<path fill="none" stroke="#191970" d="M2010.9993,-526.4554C1979.6925,-516.104 1938.5691,-502.5067 1908.9111,-492.7004"/>
<polygon fill="#191970" stroke="#191970" points="1909.9166,-489.3466 1899.3234,-489.5303 1907.7191,-495.9927 1909.9166,-489.3466"/>
</g>
<!-- Node54&#45;&gt;Node37 -->
<g id="edge129" class="edge">
<title>Node54&#45;&gt;Node37</title>
<path fill="none" stroke="#191970" d="M1974.4796,-528.1554C1892.7149,-514.8524 1771.1201,-495.0691 1712.5114,-485.5336"/>
<polygon fill="#191970" stroke="#191970" points="1712.7569,-482.0276 1702.3246,-483.8762 1711.6328,-488.9368 1712.7569,-482.0276"/>
</g>
<!-- Node55&#45;&gt;Node3 -->
<g id="edge133" class="edge">
<title>Node55&#45;&gt;Node3</title>
<path fill="none" stroke="#191970" d="M1503.1178,-716.3836C1519.0232,-707.7901 1542.1713,-694.3677 1560.5,-680 1588.2015,-658.2851 1593.7298,-650.8409 1616.5,-624 1752.1671,-464.0791 1783.81,-405.3001 1821.5,-199 1823.9761,-185.4466 1827.9675,-180.1655 1821.5,-168 1800.6111,-128.7075 1779.5057,-129.2852 1738.5,-112 1674.5017,-85.0227 1593.2583,-73.3805 1548.9471,-68.75"/>
<polygon fill="#191970" stroke="#191970" points="1549.0661,-65.2448 1538.77,-67.7429 1548.3767,-72.2107 1549.0661,-65.2448"/>
</g>
<!-- Node55&#45;&gt;Node11 -->
<g id="edge135" class="edge">
<title>Node55&#45;&gt;Node11</title>
<path fill="none" stroke="#191970" d="M1487.8277,-716.4974C1501.3435,-679.263 1555.7788,-541.8239 1646.5,-470 1767.0579,-374.5545 1973.5,-510.7662 1973.5,-357 1973.5,-357 1973.5,-357 1973.5,-122 1973.5,69.5922 1738.1433,-75.0444 1547.5,-56 1200.1345,-21.2997 1105.2196,-74.5024 755.9671,-19.6746"/>
<polygon fill="#191970" stroke="#191970" points="756.5136,-16.2176 746.0884,-18.1058 755.4156,-23.131 756.5136,-16.2176"/>
</g>
<!-- Node55&#45;&gt;Node21 -->
<g id="edge132" class="edge">
<title>Node55&#45;&gt;Node21</title>
<path fill="none" stroke="#191970" d="M1436.6699,-716.4663C1324.8307,-693.127 1051.5997,-629.6913 997.5,-557 941.7253,-482.0581 994.7692,-440.2084 988.5,-347 985.0058,-295.0497 978.8611,-233.9934 975.6274,-203.2753"/>
<polygon fill="#191970" stroke="#191970" points="979.08,-202.6438 974.5421,-193.07 972.1193,-203.3841 979.08,-202.6438"/>
</g>
<!-- Node55&#45;&gt;Node26 -->
<g id="edge136" class="edge">
<title>Node55&#45;&gt;Node26</title>
<path fill="none" stroke="#191970" d="M1408.7621,-717.2799C1217.8676,-694.4613 721.7092,-629.7026 573.5,-557 508.2292,-524.982 444.8403,-465.1347 415.8772,-435.7189"/>
<polygon fill="#191970" stroke="#191970" points="418.1265,-433.0114 408.648,-428.2776 413.1057,-437.889 418.1265,-433.0114"/>
</g>
<!-- Node55&#45;&gt;Node27 -->
<g id="edge138" class="edge">
<title>Node55&#45;&gt;Node27</title>
<path fill="none" stroke="#191970" d="M1560.2581,-720.0887C1611.6786,-714.201 1680.43,-702.6086 1737.5,-680 1784.2617,-661.4751 1903.4684,-601.185 1927.5,-557 1934.0829,-544.8966 1933.4419,-538.4307 1927.5,-526 1921.3552,-513.1449 1909.6701,-502.7306 1898.4715,-495.0832"/>
<polygon fill="#191970" stroke="#191970" points="1900.0339,-491.9304 1889.71,-489.5495 1896.2959,-497.8488 1900.0339,-491.9304"/>
</g>
<!-- Node55&#45;&gt;Node37 -->
<g id="edge134" class="edge">
<title>Node55&#45;&gt;Node37</title>
<path fill="none" stroke="#191970" d="M1495.926,-716.4466C1524.1738,-692.321 1598.2055,-625.9337 1642.5,-557 1654.4754,-538.3632 1664.7851,-515.1063 1671.2648,-499.0561"/>
<polygon fill="#191970" stroke="#191970" points="1674.5529,-500.258 1674.9488,-489.6706 1668.0369,-497.7003 1674.5529,-500.258"/>
</g>
<!-- Node55&#45;&gt;Node42 -->
<g id="edge137" class="edge">
<title>Node55&#45;&gt;Node42</title>
<path fill="none" stroke="#191970" d="M1560.2503,-719.6306C1688.0488,-708.8848 1945.0971,-687.2711 2073.6397,-676.4627"/>
<polygon fill="#191970" stroke="#191970" points="2074.1236,-679.9345 2083.7951,-675.6088 2073.537,-672.9591 2074.1236,-679.9345"/>
</g>
<!-- Node56&#45;&gt;Node28 -->
<g id="edge141" class="edge">
<title>Node56&#45;&gt;Node28</title>
<path fill="none" stroke="#191970" d="M1368.411,-772.42C1339.6973,-737.3387 1263.9129,-648.9864 1185.5,-593 1163.5758,-577.3462 1136.1729,-564.0849 1114.8594,-554.9409"/>
<polygon fill="#191970" stroke="#191970" points="1116.1125,-551.6712 1105.5368,-551.0356 1113.4078,-558.1276 1116.1125,-551.6712"/>
</g>
<!-- Node56&#45;&gt;Node37 -->
<g id="edge142" class="edge">
<title>Node56&#45;&gt;Node37</title>
<path fill="none" stroke="#191970" d="M1382.0931,-772.4876C1384.2801,-757.2483 1389.3042,-733.4732 1400.5,-716 1467.9809,-610.6831 1596.884,-527.3603 1652.2105,-494.8113"/>
<polygon fill="#191970" stroke="#191970" points="1654.159,-497.7272 1661.0478,-489.6777 1650.6428,-491.6744 1654.159,-497.7272"/>
</g>
<!-- Node56&#45;&gt;Node55 -->
<g id="edge140" class="edge">
<title>Node56&#45;&gt;Node55</title>
<path fill="none" stroke="#191970" d="M1405.9413,-772.4554C1422.2284,-762.8241 1443.2673,-750.3828 1459.473,-740.7996"/>
<polygon fill="#191970" stroke="#191970" points="1461.5576,-743.6331 1468.3837,-735.5303 1457.9945,-737.6078 1461.5576,-743.6331"/>
</g>
</g>
</svg>
