<?xml version="1.0" encoding="UTF-8" standalone="no"?>
<!DOCTYPE svg PUBLIC "-//W3C//DTD SVG 1.1//EN"
 "http://www.w3.org/Graphics/SVG/1.1/DTD/svg11.dtd">
<!-- Generated by graphviz version 2.40.1 (20161225.0304)
 -->
<!-- Title: FixedStepIntegrator.cpp Pages: 1 -->
<svg width="2009pt" height="554pt"
 viewBox="0.00 0.00 2008.50 554.00" xmlns="http://www.w3.org/2000/svg" xmlns:xlink="http://www.w3.org/1999/xlink">
<g id="graph0" class="graph" transform="scale(1 1) rotate(0) translate(4 550)">
<title>FixedStepIntegrator.cpp</title>
<!-- Node0 -->
<g id="node1" class="node">
<title>Node0</title>
<polygon fill="#bfbfbf" stroke="#000000" points="912.5,-526.5 912.5,-545.5 1043.5,-545.5 1043.5,-526.5 912.5,-526.5"/>
<text text-anchor="middle" x="978" y="-533.5" font-family="FreeSans.ttf" font-size="10.00" fill="#000000">FixedStepIntegrator.cpp</text>
</g>
<!-- Node1 -->
<g id="node2" class="node">
<title>Node1</title>
<g id="a_node2"><a xlink:href="FixedStepIntegrator_8h.html" target="_top" xlink:title="iDynTree/Integrators\l/FixedStepIntegrator.h">
<polygon fill="none" stroke="#000000" points="395.5,-224.5 395.5,-254.5 518.5,-254.5 518.5,-224.5 395.5,-224.5"/>
<text text-anchor="start" x="403.5" y="-242.5" font-family="FreeSans.ttf" font-size="10.00" fill="#000000">iDynTree/Integrators</text>
<text text-anchor="middle" x="457" y="-231.5" font-family="FreeSans.ttf" font-size="10.00" fill="#000000">/FixedStepIntegrator.h</text>
</a>
</g>
</g>
<!-- Node0&#45;&gt;Node1 -->
<g id="edge1" class="edge">
<title>Node0&#45;&gt;Node1</title>
<path fill="none" stroke="#191970" d="M912.2696,-529.3666C761.761,-513.2925 405,-469.7823 405,-418.5 405,-418.5 405,-418.5 405,-357 405,-321.9456 424.593,-285.6535 439.7254,-262.8513"/>
<polygon fill="#191970" stroke="#191970" points="442.674,-264.7405 445.4595,-254.5183 436.9074,-260.7723 442.674,-264.7405"/>
</g>
<!-- Node14 -->
<g id="node15" class="node">
<title>Node14</title>
<polygon fill="none" stroke="#bfbfbf" points="881,-56.5 881,-75.5 925,-75.5 925,-56.5 881,-56.5"/>
<text text-anchor="middle" x="903" y="-63.5" font-family="FreeSans.ttf" font-size="10.00" fill="#000000">string</text>
</g>
<!-- Node0&#45;&gt;Node14 -->
<g id="edge86" class="edge">
<title>Node0&#45;&gt;Node14</title>
<path fill="none" stroke="#191970" d="M944.4882,-526.3898C900.0024,-511.3366 827,-477.6264 827,-418.5 827,-418.5 827,-418.5 827,-178 827,-138.2361 860.2071,-102.1042 882.7208,-82.177"/>
<polygon fill="#191970" stroke="#191970" points="885.1079,-84.7412 890.4501,-75.5918 880.5683,-79.4128 885.1079,-84.7412"/>
</g>
<!-- Node17 -->
<g id="node18" class="node">
<title>Node17</title>
<g id="a_node18"><a xlink:href="Utils_8h.html" target="_top" xlink:title="iDynTree/Core/Utils.h">
<polygon fill="none" stroke="#000000" points="592.5,-56.5 592.5,-75.5 711.5,-75.5 711.5,-56.5 592.5,-56.5"/>
<text text-anchor="middle" x="652" y="-63.5" font-family="FreeSans.ttf" font-size="10.00" fill="#000000">iDynTree/Core/Utils.h</text>
</a>
</g>
</g>
<!-- Node0&#45;&gt;Node17 -->
<g id="edge82" class="edge">
<title>Node0&#45;&gt;Node17</title>
<path fill="none" stroke="#191970" d="M912.312,-535.0258C693.0323,-530.9146 0,-510.6331 0,-418.5 0,-418.5 0,-418.5 0,-178 0,-129.4659 41.6652,-129.3295 87,-112 132.1779,-94.7305 441.1298,-76.8589 582.1158,-69.493"/>
<polygon fill="#191970" stroke="#191970" points="582.5731,-72.9741 592.378,-68.96 582.2099,-65.9835 582.5731,-72.9741"/>
</g>
<!-- Node22 -->
<g id="node23" class="node">
<title>Node22</title>
<g id="a_node23"><a xlink:href="DynamicalSystem_8h.html" target="_top" xlink:title="iDynTree/DynamicalSystem.h">
<polygon fill="none" stroke="#000000" points="391.5,-168.5 391.5,-187.5 552.5,-187.5 552.5,-168.5 391.5,-168.5"/>
<text text-anchor="middle" x="472" y="-175.5" font-family="FreeSans.ttf" font-size="10.00" fill="#000000">iDynTree/DynamicalSystem.h</text>
</a>
</g>
</g>
<!-- Node0&#45;&gt;Node22 -->
<g id="edge29" class="edge">
<title>Node0&#45;&gt;Node22</title>
<path fill="none" stroke="#191970" d="M912.2836,-534.4307C823.4034,-531.1559 660.4136,-521.0636 525,-490 434.6212,-469.2673 329,-511.2263 329,-418.5 329,-418.5 329,-418.5 329,-301 329,-245.2522 392.2376,-209.2554 434.6072,-191.3938"/>
<polygon fill="#191970" stroke="#191970" points="436.1368,-194.5504 444.0887,-187.5492 433.5063,-188.0635 436.1368,-194.5504"/>
</g>
<!-- Node23 -->
<g id="node24" class="node">
<title>Node23</title>
<g id="a_node24"><a xlink:href="EigenHelpers_8h.html" target="_top" xlink:title="iDynTree/Core/EigenHelpers.h">
<polygon fill="none" stroke="#000000" points="924.5,-470.5 924.5,-489.5 1085.5,-489.5 1085.5,-470.5 924.5,-470.5"/>
<text text-anchor="middle" x="1005" y="-477.5" font-family="FreeSans.ttf" font-size="10.00" fill="#000000">iDynTree/Core/EigenHelpers.h</text>
</a>
</g>
</g>
<!-- Node0&#45;&gt;Node23 -->
<g id="edge32" class="edge">
<title>Node0&#45;&gt;Node23</title>
<path fill="none" stroke="#191970" d="M982.703,-526.2455C986.3424,-518.6973 991.4924,-508.0158 995.9262,-498.8197"/>
<polygon fill="#191970" stroke="#191970" points="999.1605,-500.1704 1000.3509,-489.6427 992.8551,-497.1303 999.1605,-500.1704"/>
</g>
<!-- Node26 -->
<g id="node27" class="node">
<title>Node26</title>
<polygon fill="none" stroke="#bfbfbf" points="1613,-56.5 1613,-75.5 1669,-75.5 1669,-56.5 1613,-56.5"/>
<text text-anchor="middle" x="1641" y="-63.5" font-family="FreeSans.ttf" font-size="10.00" fill="#000000">sstream</text>
</g>
<!-- Node0&#45;&gt;Node26 -->
<g id="edge85" class="edge">
<title>Node0&#45;&gt;Node26</title>
<path fill="none" stroke="#191970" d="M1043.7672,-534.0766C1247.2585,-527.261 1853,-500.118 1853,-418.5 1853,-418.5 1853,-418.5 1853,-178 1853,-100.2843 1740.2437,-76.3544 1679.196,-69.0936"/>
<polygon fill="#191970" stroke="#191970" points="1679.4736,-65.6031 1669.152,-67.9936 1678.7115,-72.5615 1679.4736,-65.6031"/>
</g>
<!-- Node39 -->
<g id="node40" class="node">
<title>Node39</title>
<polygon fill="none" stroke="#bfbfbf" points="1881,-470.5 1881,-489.5 1931,-489.5 1931,-470.5 1881,-470.5"/>
<text text-anchor="middle" x="1906" y="-477.5" font-family="FreeSans.ttf" font-size="10.00" fill="#000000">stdio.h</text>
</g>
<!-- Node0&#45;&gt;Node39 -->
<g id="edge83" class="edge">
<title>Node0&#45;&gt;Node39</title>
<path fill="none" stroke="#191970" d="M1043.6033,-534.302C1221.1228,-529.4365 1708.2042,-514.219 1867,-490 1868.2827,-489.8044 1869.5844,-489.5845 1870.8956,-489.345"/>
<polygon fill="#191970" stroke="#191970" points="1871.9243,-492.7046 1880.9765,-487.1993 1870.467,-485.8579 1871.9243,-492.7046"/>
</g>
<!-- Node40 -->
<g id="node41" class="node">
<title>Node40</title>
<polygon fill="none" stroke="#bfbfbf" points="1949.5,-470.5 1949.5,-489.5 2000.5,-489.5 2000.5,-470.5 1949.5,-470.5"/>
<text text-anchor="middle" x="1975" y="-477.5" font-family="FreeSans.ttf" font-size="10.00" fill="#000000">math.h</text>
</g>
<!-- Node0&#45;&gt;Node40 -->
<g id="edge84" class="edge">
<title>Node0&#45;&gt;Node40</title>
<path fill="none" stroke="#191970" d="M1043.574,-534.8319C1227.7443,-531.2443 1748.1364,-518.9242 1939.2209,-489.6877"/>
<polygon fill="#191970" stroke="#191970" points="1939.8343,-493.1342 1949.1578,-488.102 1938.7312,-486.2216 1939.8343,-493.1342"/>
</g>
<!-- Node2 -->
<g id="node3" class="node">
<title>Node2</title>
<g id="a_node3"><a xlink:href="Integrator_8h.html" target="_top" xlink:title="iDynTree/Integrator.h">
<polygon fill="none" stroke="#000000" points="254.5,-168.5 254.5,-187.5 373.5,-187.5 373.5,-168.5 254.5,-168.5"/>
<text text-anchor="middle" x="314" y="-175.5" font-family="FreeSans.ttf" font-size="10.00" fill="#000000">iDynTree/Integrator.h</text>
</a>
</g>
</g>
<!-- Node1&#45;&gt;Node2 -->
<g id="edge2" class="edge">
<title>Node1&#45;&gt;Node2</title>
<path fill="none" stroke="#191970" d="M422.0183,-224.4554C398.6816,-214.419 368.2502,-201.3314 345.637,-191.6061"/>
<polygon fill="#191970" stroke="#191970" points="346.7292,-188.2659 336.1599,-187.5303 343.9636,-194.6965 346.7292,-188.2659"/>
</g>
<!-- Node3 -->
<g id="node4" class="node">
<title>Node3</title>
<g id="a_node4"><a xlink:href="VectorDynSize_8h.html" target="_top" xlink:title="iDynTree/Core/VectorDynSize.h">
<polygon fill="none" stroke="#000000" points="632.5,-112.5 632.5,-131.5 799.5,-131.5 799.5,-112.5 632.5,-112.5"/>
<text text-anchor="middle" x="716" y="-119.5" font-family="FreeSans.ttf" font-size="10.00" fill="#000000">iDynTree/Core/VectorDynSize.h</text>
</a>
</g>
</g>
<!-- Node1&#45;&gt;Node3 -->
<g id="edge28" class="edge">
<title>Node1&#45;&gt;Node3</title>
<path fill="none" stroke="#191970" d="M490.0656,-224.4992C540.6942,-201.5306 636.6902,-157.9803 685.6432,-135.7719"/>
<polygon fill="#191970" stroke="#191970" points="687.1185,-138.946 694.7792,-131.6272 684.2265,-132.5713 687.1185,-138.946"/>
</g>
<!-- Node2&#45;&gt;Node3 -->
<g id="edge3" class="edge">
<title>Node2&#45;&gt;Node3</title>
<path fill="none" stroke="#191970" d="M373.6996,-169.1891C376.5052,-168.785 379.2829,-168.3869 382,-168 468.5375,-155.678 567.7679,-142.0788 635.4357,-132.8855"/>
<polygon fill="#191970" stroke="#191970" points="636.1632,-136.3189 645.6013,-131.5052 635.2213,-129.3825 636.1632,-136.3189"/>
</g>
<!-- Node2&#45;&gt;Node14 -->
<g id="edge25" class="edge">
<title>Node2&#45;&gt;Node14</title>
<path fill="none" stroke="#191970" d="M331.785,-168.4774C365.7401,-150.3044 436.5813,-112.4293 438,-112 519.4104,-87.3633 779.4523,-72.2231 870.8566,-67.5523"/>
<polygon fill="#191970" stroke="#191970" points="871.0877,-71.0452 880.8991,-67.0468 870.7357,-64.054 871.0877,-71.0452"/>
</g>
<!-- Node15 -->
<g id="node16" class="node">
<title>Node15</title>
<g id="a_node16"><a xlink:href="MatrixDynSize_8h.html" target="_top" xlink:title="iDynTree/Core/MatrixDynSize.h">
<polygon fill="none" stroke="#000000" points="447.5,-112.5 447.5,-131.5 614.5,-131.5 614.5,-112.5 447.5,-112.5"/>
<text text-anchor="middle" x="531" y="-119.5" font-family="FreeSans.ttf" font-size="10.00" fill="#000000">iDynTree/Core/MatrixDynSize.h</text>
</a>
</g>
</g>
<!-- Node2&#45;&gt;Node15 -->
<g id="edge15" class="edge">
<title>Node2&#45;&gt;Node15</title>
<path fill="none" stroke="#191970" d="M351.3036,-168.3733C388.1685,-158.8598 444.666,-144.2797 484.4506,-134.0127"/>
<polygon fill="#191970" stroke="#191970" points="485.375,-137.3889 494.1831,-131.5011 483.6258,-130.611 485.375,-137.3889"/>
</g>
<!-- Node16 -->
<g id="node17" class="node">
<title>Node16</title>
<g id="a_node17"><a xlink:href="SparsityStructure_8h.html" target="_top" xlink:title="iDynTree/SparsityStructure.h">
<polygon fill="none" stroke="#000000" points="236.5,-112.5 236.5,-131.5 391.5,-131.5 391.5,-112.5 236.5,-112.5"/>
<text text-anchor="middle" x="314" y="-119.5" font-family="FreeSans.ttf" font-size="10.00" fill="#000000">iDynTree/SparsityStructure.h</text>
</a>
</g>
</g>
<!-- Node2&#45;&gt;Node16 -->
<g id="edge17" class="edge">
<title>Node2&#45;&gt;Node16</title>
<path fill="none" stroke="#191970" d="M314,-168.2455C314,-160.9382 314,-150.6944 314,-141.7046"/>
<polygon fill="#191970" stroke="#191970" points="317.5001,-141.6426 314,-131.6427 310.5001,-141.6427 317.5001,-141.6426"/>
</g>
<!-- Node18 -->
<g id="node19" class="node">
<title>Node18</title>
<polygon fill="none" stroke="#bfbfbf" points="129.5,-56.5 129.5,-75.5 176.5,-75.5 176.5,-56.5 129.5,-56.5"/>
<text text-anchor="middle" x="153" y="-63.5" font-family="FreeSans.ttf" font-size="10.00" fill="#000000">vector</text>
</g>
<!-- Node2&#45;&gt;Node18 -->
<g id="edge24" class="edge">
<title>Node2&#45;&gt;Node18</title>
<path fill="none" stroke="#191970" d="M254.3198,-173.7545C196.5022,-168.2524 114.7416,-156.319 95,-132 80.3628,-113.9689 103.6504,-94.0407 124.9303,-80.8496"/>
<polygon fill="#191970" stroke="#191970" points="126.9606,-83.7163 133.8109,-75.6339 123.4155,-77.6803 126.9606,-83.7163"/>
</g>
<!-- Node20 -->
<g id="node21" class="node">
<title>Node20</title>
<polygon fill="none" stroke="#bfbfbf" points="104,-112.5 104,-131.5 162,-131.5 162,-112.5 104,-112.5"/>
<text text-anchor="middle" x="133" y="-119.5" font-family="FreeSans.ttf" font-size="10.00" fill="#000000">memory</text>
</g>
<!-- Node2&#45;&gt;Node20 -->
<g id="edge26" class="edge">
<title>Node2&#45;&gt;Node20</title>
<path fill="none" stroke="#191970" d="M282.885,-168.3733C252.1992,-158.8793 205.2049,-144.3396 172.0316,-134.0761"/>
<polygon fill="#191970" stroke="#191970" points="172.8013,-130.6506 162.2135,-131.0384 170.7322,-137.3378 172.8013,-130.6506"/>
</g>
<!-- Node21 -->
<g id="node22" class="node">
<title>Node21</title>
<polygon fill="none" stroke="#bfbfbf" points="180,-112.5 180,-131.5 218,-131.5 218,-112.5 180,-112.5"/>
<text text-anchor="middle" x="199" y="-119.5" font-family="FreeSans.ttf" font-size="10.00" fill="#000000">map</text>
</g>
<!-- Node2&#45;&gt;Node21 -->
<g id="edge27" class="edge">
<title>Node2&#45;&gt;Node21</title>
<path fill="none" stroke="#191970" d="M294.2308,-168.3733C275.7417,-159.3699 247.9341,-145.8288 227.1341,-135.7001"/>
<polygon fill="#191970" stroke="#191970" points="228.6521,-132.5464 218.1291,-131.315 225.5875,-138.8399 228.6521,-132.5464"/>
</g>
<!-- Node4 -->
<g id="node5" class="node">
<title>Node4</title>
<g id="a_node5"><a xlink:href="Span_8h.html" target="_top" xlink:title="iDynTree/Core/Span.h">
<polygon fill="none" stroke="#000000" points="943.5,-56.5 943.5,-75.5 1064.5,-75.5 1064.5,-56.5 943.5,-56.5"/>
<text text-anchor="middle" x="1004" y="-63.5" font-family="FreeSans.ttf" font-size="10.00" fill="#000000">iDynTree/Core/Span.h</text>
</a>
</g>
</g>
<!-- Node3&#45;&gt;Node4 -->
<g id="edge4" class="edge">
<title>Node3&#45;&gt;Node4</title>
<path fill="none" stroke="#191970" d="M765.1817,-112.4369C814.9884,-102.7522 892.0385,-87.7703 945.0788,-77.4569"/>
<polygon fill="#191970" stroke="#191970" points="945.873,-80.8681 955.0211,-75.5237 944.5369,-73.9968 945.873,-80.8681"/>
</g>
<!-- Node3&#45;&gt;Node14 -->
<g id="edge14" class="edge">
<title>Node3&#45;&gt;Node14</title>
<path fill="none" stroke="#191970" d="M748.1464,-112.3733C782.4993,-102.0858 836.6355,-85.8739 870.9509,-75.5976"/>
<polygon fill="#191970" stroke="#191970" points="872.3448,-78.8338 880.9203,-72.6121 870.3366,-72.1281 872.3448,-78.8338"/>
</g>
<!-- Node5 -->
<g id="node6" class="node">
<title>Node5</title>
<polygon fill="none" stroke="#bfbfbf" points="1259,-.5 1259,-19.5 1311,-19.5 1311,-.5 1259,-.5"/>
<text text-anchor="middle" x="1285" y="-7.5" font-family="FreeSans.ttf" font-size="10.00" fill="#000000">cassert</text>
</g>
<!-- Node4&#45;&gt;Node5 -->
<g id="edge5" class="edge">
<title>Node4&#45;&gt;Node5</title>
<path fill="none" stroke="#191970" d="M1062.7055,-56.4271C1112.5212,-47.9582 1185.7671,-34.6903 1249,-20 1249.0987,-19.9771 1249.1976,-19.954 1249.2966,-19.9309"/>
<polygon fill="#191970" stroke="#191970" points="1249.8656,-23.3964 1258.7204,-17.5789 1248.1704,-16.6047 1249.8656,-23.3964"/>
</g>
<!-- Node6 -->
<g id="node7" class="node">
<title>Node6</title>
<polygon fill="none" stroke="#bfbfbf" points="749,-.5 749,-19.5 813,-19.5 813,-.5 749,-.5"/>
<text text-anchor="middle" x="781" y="-7.5" font-family="FreeSans.ttf" font-size="10.00" fill="#000000">algorithm</text>
</g>
<!-- Node4&#45;&gt;Node6 -->
<g id="edge6" class="edge">
<title>Node4&#45;&gt;Node6</title>
<path fill="none" stroke="#191970" d="M965.9183,-56.4369C926.1554,-46.4516 863.9676,-30.8349 822.8528,-20.5101"/>
<polygon fill="#191970" stroke="#191970" points="823.6882,-17.1113 813.1369,-18.0702 821.9833,-23.9005 823.6882,-17.1113"/>
</g>
<!-- Node7 -->
<g id="node8" class="node">
<title>Node7</title>
<polygon fill="none" stroke="#bfbfbf" points="831,-.5 831,-19.5 873,-19.5 873,-.5 831,-.5"/>
<text text-anchor="middle" x="852" y="-7.5" font-family="FreeSans.ttf" font-size="10.00" fill="#000000">array</text>
</g>
<!-- Node4&#45;&gt;Node7 -->
<g id="edge7" class="edge">
<title>Node4&#45;&gt;Node7</title>
<path fill="none" stroke="#191970" d="M977.8703,-56.3733C951.5625,-46.6809 910.9809,-31.7298 883.047,-21.4384"/>
<polygon fill="#191970" stroke="#191970" points="883.9711,-18.0489 873.3777,-17.876 881.5511,-24.6173 883.9711,-18.0489"/>
</g>
<!-- Node8 -->
<g id="node9" class="node">
<title>Node8</title>
<polygon fill="none" stroke="#bfbfbf" points="625.5,-.5 625.5,-19.5 678.5,-19.5 678.5,-.5 625.5,-.5"/>
<text text-anchor="middle" x="652" y="-7.5" font-family="FreeSans.ttf" font-size="10.00" fill="#000000">cstddef</text>
</g>
<!-- Node4&#45;&gt;Node8 -->
<g id="edge8" class="edge">
<title>Node4&#45;&gt;Node8</title>
<path fill="none" stroke="#191970" d="M943.889,-56.4369C870.7206,-44.7965 749.4483,-25.5031 688.8462,-15.8619"/>
<polygon fill="#191970" stroke="#191970" points="689.0357,-12.3481 678.61,-14.2334 687.9358,-19.2612 689.0357,-12.3481"/>
</g>
<!-- Node9 -->
<g id="node10" class="node">
<title>Node9</title>
<polygon fill="none" stroke="#bfbfbf" points="891.5,-.5 891.5,-19.5 944.5,-19.5 944.5,-.5 891.5,-.5"/>
<text text-anchor="middle" x="918" y="-7.5" font-family="FreeSans.ttf" font-size="10.00" fill="#000000">iterator</text>
</g>
<!-- Node4&#45;&gt;Node9 -->
<g id="edge9" class="edge">
<title>Node4&#45;&gt;Node9</title>
<path fill="none" stroke="#191970" d="M989.0199,-56.2455C975.8249,-47.6534 956.3949,-35.0014 941.1921,-25.1018"/>
<polygon fill="#191970" stroke="#191970" points="943.0983,-22.1665 932.8084,-19.6427 939.2785,-28.0325 943.0983,-22.1665"/>
</g>
<!-- Node10 -->
<g id="node11" class="node">
<title>Node10</title>
<polygon fill="none" stroke="#bfbfbf" points="963,-.5 963,-19.5 1007,-19.5 1007,-.5 963,-.5"/>
<text text-anchor="middle" x="985" y="-7.5" font-family="FreeSans.ttf" font-size="10.00" fill="#000000">limits</text>
</g>
<!-- Node4&#45;&gt;Node10 -->
<g id="edge10" class="edge">
<title>Node4&#45;&gt;Node10</title>
<path fill="none" stroke="#191970" d="M1000.6905,-56.2455C998.1567,-48.7776 994.5823,-38.2427 991.485,-29.1137"/>
<polygon fill="#191970" stroke="#191970" points="994.7991,-27.9879 988.2716,-19.6427 988.1702,-30.237 994.7991,-27.9879"/>
</g>
<!-- Node11 -->
<g id="node12" class="node">
<title>Node11</title>
<polygon fill="none" stroke="#bfbfbf" points="1025.5,-.5 1025.5,-19.5 1090.5,-19.5 1090.5,-.5 1025.5,-.5"/>
<text text-anchor="middle" x="1058" y="-7.5" font-family="FreeSans.ttf" font-size="10.00" fill="#000000">stdexcept</text>
</g>
<!-- Node4&#45;&gt;Node11 -->
<g id="edge11" class="edge">
<title>Node4&#45;&gt;Node11</title>
<path fill="none" stroke="#191970" d="M1013.4061,-56.2455C1021.1493,-48.2155 1032.312,-36.6394 1041.5318,-27.0781"/>
<polygon fill="#191970" stroke="#191970" points="1044.2798,-29.2706 1048.7017,-19.6427 1039.2409,-24.4117 1044.2798,-29.2706"/>
</g>
<!-- Node12 -->
<g id="node13" class="node">
<title>Node12</title>
<polygon fill="none" stroke="#bfbfbf" points="1108.5,-.5 1108.5,-19.5 1177.5,-19.5 1177.5,-.5 1108.5,-.5"/>
<text text-anchor="middle" x="1143" y="-7.5" font-family="FreeSans.ttf" font-size="10.00" fill="#000000">type_traits</text>
</g>
<!-- Node4&#45;&gt;Node12 -->
<g id="edge12" class="edge">
<title>Node4&#45;&gt;Node12</title>
<path fill="none" stroke="#191970" d="M1027.895,-56.3733C1050.5082,-47.2629 1084.6542,-33.5062 1109.8873,-23.3404"/>
<polygon fill="#191970" stroke="#191970" points="1111.4493,-26.4845 1119.4169,-19.5011 1108.8334,-19.9917 1111.4493,-26.4845"/>
</g>
<!-- Node13 -->
<g id="node14" class="node">
<title>Node13</title>
<polygon fill="none" stroke="#bfbfbf" points="1195.5,-.5 1195.5,-19.5 1240.5,-19.5 1240.5,-.5 1195.5,-.5"/>
<text text-anchor="middle" x="1218" y="-7.5" font-family="FreeSans.ttf" font-size="10.00" fill="#000000">utility</text>
</g>
<!-- Node4&#45;&gt;Node13 -->
<g id="edge13" class="edge">
<title>Node4&#45;&gt;Node13</title>
<path fill="none" stroke="#191970" d="M1044.2913,-56.4939C1079.1891,-48.1091 1131.2311,-35.2449 1185.5207,-20.0241"/>
<polygon fill="#191970" stroke="#191970" points="1186.6478,-23.3428 1195.3207,-17.2574 1184.7459,-16.6061 1186.6478,-23.3428"/>
</g>
<!-- Node15&#45;&gt;Node14 -->
<g id="edge16" class="edge">
<title>Node15&#45;&gt;Node14</title>
<path fill="none" stroke="#191970" d="M594.5264,-112.4369C674.5927,-100.3839 809.1637,-80.1259 870.6234,-70.8739"/>
<polygon fill="#191970" stroke="#191970" points="871.5079,-74.2803 880.8755,-69.3306 870.4659,-67.3583 871.5079,-74.2803"/>
</g>
<!-- Node16&#45;&gt;Node8 -->
<g id="edge21" class="edge">
<title>Node16&#45;&gt;Node8</title>
<path fill="none" stroke="#191970" d="M342.8177,-112.4509C404.1647,-92.1229 547.5885,-44.5979 615.3294,-22.1512"/>
<polygon fill="#191970" stroke="#191970" points="616.7506,-25.3675 625.1421,-18.8997 614.5487,-18.7228 616.7506,-25.3675"/>
</g>
<!-- Node16&#45;&gt;Node14 -->
<g id="edge23" class="edge">
<title>Node16&#45;&gt;Node14</title>
<path fill="none" stroke="#191970" d="M391.7907,-113.4562C396.5981,-112.9555 401.3642,-112.4665 406,-112 580.9833,-94.3934 790.8888,-75.7917 870.3649,-68.8388"/>
<polygon fill="#191970" stroke="#191970" points="871.039,-72.2933 880.6965,-67.9363 870.4298,-65.3199 871.039,-72.2933"/>
</g>
<!-- Node16&#45;&gt;Node17 -->
<g id="edge18" class="edge">
<title>Node16&#45;&gt;Node17</title>
<path fill="none" stroke="#191970" d="M371.7202,-112.4369C430.66,-102.6717 522.107,-87.5207 584.3966,-77.2006"/>
<polygon fill="#191970" stroke="#191970" points="585.2244,-80.6112 594.5178,-75.5237 584.0802,-73.7053 585.2244,-80.6112"/>
</g>
<!-- Node16&#45;&gt;Node18 -->
<g id="edge20" class="edge">
<title>Node16&#45;&gt;Node18</title>
<path fill="none" stroke="#191970" d="M286.3231,-112.3733C258.5363,-102.7083 215.7157,-87.8142 186.1362,-77.5256"/>
<polygon fill="#191970" stroke="#191970" points="187.2482,-74.2068 176.6534,-74.2273 184.9485,-80.8183 187.2482,-74.2068"/>
</g>
<!-- Node19 -->
<g id="node20" class="node">
<title>Node19</title>
<polygon fill="none" stroke="#bfbfbf" points="271,-56.5 271,-75.5 357,-75.5 357,-56.5 271,-56.5"/>
<text text-anchor="middle" x="314" y="-63.5" font-family="FreeSans.ttf" font-size="10.00" fill="#000000">unordered_set</text>
</g>
<!-- Node16&#45;&gt;Node19 -->
<g id="edge22" class="edge">
<title>Node16&#45;&gt;Node19</title>
<path fill="none" stroke="#191970" d="M314,-112.2455C314,-104.9382 314,-94.6944 314,-85.7046"/>
<polygon fill="#191970" stroke="#191970" points="317.5001,-85.6426 314,-75.6427 310.5001,-85.6427 317.5001,-85.6426"/>
</g>
<!-- Node17&#45;&gt;Node8 -->
<g id="edge19" class="edge">
<title>Node17&#45;&gt;Node8</title>
<path fill="none" stroke="#191970" d="M652,-56.2455C652,-48.9382 652,-38.6944 652,-29.7046"/>
<polygon fill="#191970" stroke="#191970" points="655.5001,-29.6426 652,-19.6427 648.5001,-29.6427 655.5001,-29.6426"/>
</g>
<!-- Node22&#45;&gt;Node3 -->
<g id="edge30" class="edge">
<title>Node22&#45;&gt;Node3</title>
<path fill="none" stroke="#191970" d="M513.6679,-168.4369C555.4266,-158.8529 619.7891,-144.0812 664.6728,-133.78"/>
<polygon fill="#191970" stroke="#191970" points="665.5404,-137.172 674.504,-131.5237 663.9745,-130.3494 665.5404,-137.172"/>
</g>
<!-- Node22&#45;&gt;Node16 -->
<g id="edge31" class="edge">
<title>Node22&#45;&gt;Node16</title>
<path fill="none" stroke="#191970" d="M444.8388,-168.3733C418.7933,-159.1419 379.2884,-145.1402 350.5021,-134.9375"/>
<polygon fill="#191970" stroke="#191970" points="351.4015,-131.5429 340.8067,-131.5011 349.063,-138.1408 351.4015,-131.5429"/>
</g>
<!-- Node23&#45;&gt;Node3 -->
<g id="edge34" class="edge">
<title>Node23&#45;&gt;Node3</title>
<path fill="none" stroke="#191970" d="M997.2699,-470.4244C958.1763,-421.997 782.0777,-203.854 730.3376,-139.7607"/>
<polygon fill="#191970" stroke="#191970" points="732.8941,-137.3555 723.8893,-131.773 727.4474,-141.7525 732.8941,-137.3555"/>
</g>
<!-- Node23&#45;&gt;Node15 -->
<g id="edge42" class="edge">
<title>Node23&#45;&gt;Node15</title>
<path fill="none" stroke="#191970" d="M959.8405,-470.4672C879.0174,-452.0956 718,-408.9734 718,-357 718,-357 718,-357 718,-239.5 718,-179.2203 647.4741,-148.6642 593.0451,-134.0581"/>
<polygon fill="#191970" stroke="#191970" points="593.6453,-130.599 583.0899,-131.5128 591.9113,-137.3809 593.6453,-130.599"/>
</g>
<!-- Node23&#45;&gt;Node17 -->
<g id="edge81" class="edge">
<title>Node23&#45;&gt;Node17</title>
<path fill="none" stroke="#191970" d="M926.1267,-470.4897C876.5441,-463.2768 811.6535,-451.559 756,-434 447.9796,-336.8176 269.5979,-403.7288 95,-132 90.1949,-124.5218 88.9788,-118.5389 95,-112 111.2873,-94.3122 436.3655,-76.4339 582.2224,-69.2669"/>
<polygon fill="#191970" stroke="#191970" points="582.5903,-72.7532 592.4076,-68.7696 582.2488,-65.7616 582.5903,-72.7532"/>
</g>
<!-- Node24 -->
<g id="node25" class="node">
<title>Node24</title>
<polygon fill="none" stroke="#bfbfbf" points="855.5,-409 855.5,-428 932.5,-428 932.5,-409 855.5,-409"/>
<text text-anchor="middle" x="894" y="-416" font-family="FreeSans.ttf" font-size="10.00" fill="#000000">Eigen/Dense</text>
</g>
<!-- Node23&#45;&gt;Node24 -->
<g id="edge33" class="edge">
<title>Node23&#45;&gt;Node24</title>
<path fill="none" stroke="#191970" d="M987.6563,-470.3906C969.5727,-460.3713 941.0141,-444.5483 920.1835,-433.0071"/>
<polygon fill="#191970" stroke="#191970" points="921.6654,-429.8268 911.222,-428.0419 918.2729,-435.9498 921.6654,-429.8268"/>
</g>
<!-- Node25 -->
<g id="node26" class="node">
<title>Node25</title>
<g id="a_node26"><a xlink:href="VectorFixSize_8h.html" target="_top" xlink:title="iDynTree/Core/VectorFixSize.h">
<polygon fill="none" stroke="#000000" points="1183.5,-112.5 1183.5,-131.5 1344.5,-131.5 1344.5,-112.5 1183.5,-112.5"/>
<text text-anchor="middle" x="1264" y="-119.5" font-family="FreeSans.ttf" font-size="10.00" fill="#000000">iDynTree/Core/VectorFixSize.h</text>
</a>
</g>
</g>
<!-- Node23&#45;&gt;Node25 -->
<g id="edge35" class="edge">
<title>Node23&#45;&gt;Node25</title>
<path fill="none" stroke="#191970" d="M1085.5896,-477.134C1252.2783,-470.8237 1623.9432,-454.6342 1678,-434 1730.0769,-414.1215 1777,-412.7419 1777,-357 1777,-357 1777,-357 1777,-239.5 1777,-80.7902 1555.3417,-151.0358 1354.6724,-132.1003"/>
<polygon fill="#191970" stroke="#191970" points="1354.8326,-128.5985 1344.5285,-131.0635 1354.1208,-135.5622 1354.8326,-128.5985"/>
</g>
<!-- Node28 -->
<g id="node29" class="node">
<title>Node28</title>
<g id="a_node29"><a xlink:href="MatrixFixSize_8h.html" target="_top" xlink:title="iDynTree/Core/MatrixFixSize.h">
<polygon fill="none" stroke="#000000" points="1362.5,-112.5 1362.5,-131.5 1523.5,-131.5 1523.5,-112.5 1362.5,-112.5"/>
<text text-anchor="middle" x="1443" y="-119.5" font-family="FreeSans.ttf" font-size="10.00" fill="#000000">iDynTree/Core/MatrixFixSize.h</text>
</a>
</g>
</g>
<!-- Node23&#45;&gt;Node28 -->
<g id="edge43" class="edge">
<title>Node23&#45;&gt;Node28</title>
<path fill="none" stroke="#191970" d="M1085.5602,-477.8823C1262.0808,-472.8125 1671.9102,-458.5401 1730,-434 1776.9557,-414.1635 1815,-407.9737 1815,-357 1815,-357 1815,-357 1815,-239.5 1815,-202.1872 1802.2264,-188.4245 1771,-168 1732.9657,-143.1225 1616.8428,-131.4288 1533.5688,-126.1227"/>
<polygon fill="#191970" stroke="#191970" points="1533.7802,-122.6292 1523.5837,-125.5069 1533.3492,-129.616 1533.7802,-122.6292"/>
</g>
<!-- Node30 -->
<g id="node31" class="node">
<title>Node30</title>
<g id="a_node31"><a xlink:href="SpatialMotionVector_8h.html" target="_top" xlink:title="iDynTree/Core/SpatialMotion\lVector.h">
<polygon fill="none" stroke="#000000" points="1513.5,-403.5 1513.5,-433.5 1668.5,-433.5 1668.5,-403.5 1513.5,-403.5"/>
<text text-anchor="start" x="1521.5" y="-421.5" font-family="FreeSans.ttf" font-size="10.00" fill="#000000">iDynTree/Core/SpatialMotion</text>
<text text-anchor="middle" x="1591" y="-410.5" font-family="FreeSans.ttf" font-size="10.00" fill="#000000">Vector.h</text>
</a>
</g>
</g>
<!-- Node23&#45;&gt;Node30 -->
<g id="edge50" class="edge">
<title>Node23&#45;&gt;Node30</title>
<path fill="none" stroke="#191970" d="M1085.719,-472.7257C1178.521,-464.1976 1335.3883,-449.2768 1470,-434 1480.7141,-432.7841 1491.9526,-431.4387 1503.0831,-430.0635"/>
<polygon fill="#191970" stroke="#191970" points="1503.7664,-433.5055 1513.2565,-428.795 1502.9002,-426.5593 1503.7664,-433.5055"/>
</g>
<!-- Node37 -->
<g id="node38" class="node">
<title>Node37</title>
<g id="a_node38"><a xlink:href="SpatialForceVector_8h.html" target="_top" xlink:title="iDynTree/Core/SpatialForce\lVector.h">
<polygon fill="none" stroke="#000000" points="1313,-403.5 1313,-433.5 1461,-433.5 1461,-403.5 1313,-403.5"/>
<text text-anchor="start" x="1321" y="-421.5" font-family="FreeSans.ttf" font-size="10.00" fill="#000000">iDynTree/Core/SpatialForce</text>
<text text-anchor="middle" x="1387" y="-410.5" font-family="FreeSans.ttf" font-size="10.00" fill="#000000">Vector.h</text>
</a>
</g>
</g>
<!-- Node23&#45;&gt;Node37 -->
<g id="edge72" class="edge">
<title>Node23&#45;&gt;Node37</title>
<path fill="none" stroke="#191970" d="M1064.2684,-470.4581C1128.2162,-460.1628 1230.5754,-443.6835 1302.8457,-432.0484"/>
<polygon fill="#191970" stroke="#191970" points="1303.52,-435.485 1312.8365,-430.4399 1302.4073,-428.574 1303.52,-435.485"/>
</g>
<!-- Node38 -->
<g id="node39" class="node">
<title>Node38</title>
<g id="a_node39"><a xlink:href="Transform_8h.html" target="_top" xlink:title="iDynTree/Core/Transform.h">
<polygon fill="none" stroke="#000000" points="1024,-347.5 1024,-366.5 1170,-366.5 1170,-347.5 1024,-347.5"/>
<text text-anchor="middle" x="1097" y="-354.5" font-family="FreeSans.ttf" font-size="10.00" fill="#000000">iDynTree/Core/Transform.h</text>
</a>
</g>
</g>
<!-- Node23&#45;&gt;Node38 -->
<g id="edge76" class="edge">
<title>Node23&#45;&gt;Node38</title>
<path fill="none" stroke="#191970" d="M1012.2191,-470.3484C1027.6033,-449.7804 1063.8204,-401.3596 1083.5748,-374.9489"/>
<polygon fill="#191970" stroke="#191970" points="1086.6276,-376.711 1089.8144,-366.6068 1081.0221,-372.5182 1086.6276,-376.711"/>
</g>
<!-- Node25&#45;&gt;Node4 -->
<g id="edge37" class="edge">
<title>Node25&#45;&gt;Node4</title>
<path fill="none" stroke="#191970" d="M1219.5998,-112.4369C1174.9159,-102.8127 1105.943,-87.957 1058.0912,-77.6504"/>
<polygon fill="#191970" stroke="#191970" points="1058.7298,-74.2078 1048.217,-75.5237 1057.2559,-81.0508 1058.7298,-74.2078"/>
</g>
<!-- Node25&#45;&gt;Node5 -->
<g id="edge40" class="edge">
<title>Node25&#45;&gt;Node5</title>
<path fill="none" stroke="#191970" d="M1265.7904,-112.4509C1269.231,-94.1013 1276.8267,-53.5908 1281.3683,-29.3693"/>
<polygon fill="#191970" stroke="#191970" points="1284.8112,-29.9986 1283.2141,-19.5249 1277.9311,-28.7086 1284.8112,-29.9986"/>
</g>
<!-- Node25&#45;&gt;Node14 -->
<g id="edge38" class="edge">
<title>Node25&#45;&gt;Node14</title>
<path fill="none" stroke="#191970" d="M1183.2714,-114.6994C1118.3842,-107.9236 1024.8654,-96.1193 935.0263,-75.9201"/>
<polygon fill="#191970" stroke="#191970" points="935.7506,-72.4955 925.222,-73.6785 934.1904,-79.3194 935.7506,-72.4955"/>
</g>
<!-- Node25&#45;&gt;Node17 -->
<g id="edge36" class="edge">
<title>Node25&#45;&gt;Node17</title>
<path fill="none" stroke="#191970" d="M1183.3624,-114.6214C1062.3755,-103.5507 835.9174,-82.829 721.6859,-72.3765"/>
<polygon fill="#191970" stroke="#191970" points="721.933,-68.8846 711.6557,-71.4587 721.2951,-75.8554 721.933,-68.8846"/>
</g>
<!-- Node25&#45;&gt;Node26 -->
<g id="edge39" class="edge">
<title>Node25&#45;&gt;Node26</title>
<path fill="none" stroke="#191970" d="M1328.3802,-112.4369C1407.2689,-100.7187 1538.369,-81.2449 1602.8295,-71.6699"/>
<polygon fill="#191970" stroke="#191970" points="1603.5777,-75.0972 1612.9549,-70.1658 1602.5492,-68.1732 1603.5777,-75.0972"/>
</g>
<!-- Node27 -->
<g id="node28" class="node">
<title>Node27</title>
<polygon fill="none" stroke="#bfbfbf" points="1327,-56.5 1327,-75.5 1377,-75.5 1377,-56.5 1327,-56.5"/>
<text text-anchor="middle" x="1352" y="-63.5" font-family="FreeSans.ttf" font-size="10.00" fill="#000000">cstring</text>
</g>
<!-- Node25&#45;&gt;Node27 -->
<g id="edge41" class="edge">
<title>Node25&#45;&gt;Node27</title>
<path fill="none" stroke="#191970" d="M1279.3284,-112.2455C1292.8303,-103.6534 1312.7122,-91.0014 1328.2686,-81.1018"/>
<polygon fill="#191970" stroke="#191970" points="1330.2897,-83.9643 1336.8472,-75.6427 1326.5315,-78.0587 1330.2897,-83.9643"/>
</g>
<!-- Node28&#45;&gt;Node5 -->
<g id="edge45" class="edge">
<title>Node28&#45;&gt;Node5</title>
<path fill="none" stroke="#191970" d="M1436.6788,-112.323C1427.1304,-98.3302 1407.8114,-72.3383 1386,-56 1366.2538,-41.2087 1340.9926,-29.7057 1320.6735,-21.902"/>
<polygon fill="#191970" stroke="#191970" points="1321.7346,-18.5627 1311.1415,-18.3701 1319.3024,-25.1266 1321.7346,-18.5627"/>
</g>
<!-- Node28&#45;&gt;Node14 -->
<g id="edge47" class="edge">
<title>Node28&#45;&gt;Node14</title>
<path fill="none" stroke="#191970" d="M1362.057,-112.9099C1358.9998,-112.5972 1355.9726,-112.2928 1353,-112 1170.2615,-94.0004 1119.016,-112.2618 935.1873,-75.8316"/>
<polygon fill="#191970" stroke="#191970" points="935.6845,-72.3616 925.1909,-73.8231 934.3055,-79.2245 935.6845,-72.3616"/>
</g>
<!-- Node28&#45;&gt;Node17 -->
<g id="edge44" class="edge">
<title>Node28&#45;&gt;Node17</title>
<path fill="none" stroke="#191970" d="M1362.0642,-112.8328C1359.005,-112.5417 1355.9754,-112.2628 1353,-112 1122.2766,-91.6224 848.0937,-76.1636 721.9047,-69.54"/>
<polygon fill="#191970" stroke="#191970" points="721.7865,-66.0292 711.6174,-69.0024 721.4211,-73.0196 721.7865,-66.0292"/>
</g>
<!-- Node28&#45;&gt;Node26 -->
<g id="edge49" class="edge">
<title>Node28&#45;&gt;Node26</title>
<path fill="none" stroke="#191970" d="M1477.0374,-112.3733C1512.1075,-102.4544 1566.6503,-87.0282 1603.0805,-76.7247"/>
<polygon fill="#191970" stroke="#191970" points="1604.1742,-80.0528 1612.8442,-73.9633 1602.2691,-73.317 1604.1742,-80.0528"/>
</g>
<!-- Node28&#45;&gt;Node27 -->
<g id="edge46" class="edge">
<title>Node28&#45;&gt;Node27</title>
<path fill="none" stroke="#191970" d="M1427.149,-112.2455C1413.1868,-103.6534 1392.6272,-91.0014 1376.5404,-81.1018"/>
<polygon fill="#191970" stroke="#191970" points="1378.0203,-77.9029 1367.6693,-75.6427 1374.3516,-83.8645 1378.0203,-77.9029"/>
</g>
<!-- Node29 -->
<g id="node30" class="node">
<title>Node29</title>
<polygon fill="none" stroke="#bfbfbf" points="1444,-56.5 1444,-75.5 1504,-75.5 1504,-56.5 1444,-56.5"/>
<text text-anchor="middle" x="1474" y="-63.5" font-family="FreeSans.ttf" font-size="10.00" fill="#000000">iostream</text>
</g>
<!-- Node28&#45;&gt;Node29 -->
<g id="edge48" class="edge">
<title>Node28&#45;&gt;Node29</title>
<path fill="none" stroke="#191970" d="M1448.3998,-112.2455C1452.6227,-104.617 1458.6173,-93.7881 1463.7441,-84.5267"/>
<polygon fill="#191970" stroke="#191970" points="1466.881,-86.0867 1468.6621,-75.6427 1460.7568,-82.6965 1466.881,-86.0867"/>
</g>
<!-- Node30&#45;&gt;Node25 -->
<g id="edge51" class="edge">
<title>Node30&#45;&gt;Node25</title>
<path fill="none" stroke="#191970" d="M1637.8281,-403.4674C1681.1875,-386.2675 1739,-353.4921 1739,-301 1739,-301 1739,-301 1739,-239.5 1739,-186.6555 1693.0193,-187.7397 1644,-168 1637.3124,-165.307 1464.9877,-145.1173 1354.7213,-132.3964"/>
<polygon fill="#191970" stroke="#191970" points="1354.9177,-128.8959 1344.5826,-131.2276 1354.116,-135.8499 1354.9177,-128.8959"/>
</g>
<!-- Node31 -->
<g id="node32" class="node">
<title>Node31</title>
<g id="a_node32"><a xlink:href="GeomVector3_8h.html" target="_top" xlink:title="iDynTree/Core/GeomVector3.h">
<polygon fill="none" stroke="#000000" points="1471.5,-168.5 1471.5,-187.5 1634.5,-187.5 1634.5,-168.5 1471.5,-168.5"/>
<text text-anchor="middle" x="1553" y="-175.5" font-family="FreeSans.ttf" font-size="10.00" fill="#000000">iDynTree/Core/GeomVector3.h</text>
</a>
</g>
</g>
<!-- Node30&#45;&gt;Node31 -->
<g id="edge52" class="edge">
<title>Node30&#45;&gt;Node31</title>
<path fill="none" stroke="#191970" d="M1597.4493,-403.2464C1602.7697,-388.8305 1608.9949,-366.5582 1606,-347 1597.4233,-290.9901 1573.7326,-228.0488 1561.1305,-197.1756"/>
<polygon fill="#191970" stroke="#191970" points="1564.2454,-195.5502 1557.1784,-187.6567 1557.7805,-198.2344 1564.2454,-195.5502"/>
</g>
<!-- Node32 -->
<g id="node33" class="node">
<title>Node32</title>
<g id="a_node33"><a xlink:href="SpatialVector_8h.html" target="_top" xlink:title="iDynTree/Core/SpatialVector.h">
<polygon fill="none" stroke="#000000" points="1435.5,-347.5 1435.5,-366.5 1596.5,-366.5 1596.5,-347.5 1435.5,-347.5"/>
<text text-anchor="middle" x="1516" y="-354.5" font-family="FreeSans.ttf" font-size="10.00" fill="#000000">iDynTree/Core/SpatialVector.h</text>
</a>
</g>
</g>
<!-- Node30&#45;&gt;Node32 -->
<g id="edge54" class="edge">
<title>Node30&#45;&gt;Node32</title>
<path fill="none" stroke="#191970" d="M1572.4607,-403.2977C1561.3992,-394.2274 1547.3509,-382.7077 1536.0347,-373.4285"/>
<polygon fill="#191970" stroke="#191970" points="1537.9604,-370.4813 1528.0084,-366.8469 1533.5219,-375.8942 1537.9604,-370.4813"/>
</g>
<!-- Node31&#45;&gt;Node25 -->
<g id="edge53" class="edge">
<title>Node31&#45;&gt;Node25</title>
<path fill="none" stroke="#191970" d="M1503.6475,-168.4369C1453.6678,-158.7522 1376.3502,-143.7703 1323.1258,-133.4569"/>
<polygon fill="#191970" stroke="#191970" points="1323.6322,-129.99 1313.1489,-131.5237 1322.3005,-136.8622 1323.6322,-129.99"/>
</g>
<!-- Node32&#45;&gt;Node17 -->
<g id="edge68" class="edge">
<title>Node32&#45;&gt;Node17</title>
<path fill="none" stroke="#191970" d="M1435.4726,-354.4818C1322.1268,-350.0034 1121.8926,-338.4044 1055,-311 924.549,-257.5572 932.882,-177.4069 808,-112 777.9989,-96.2869 741.8662,-85.2001 711.9331,-77.8538"/>
<polygon fill="#191970" stroke="#191970" points="712.5754,-74.409 702.0373,-75.5045 710.9585,-81.2197 712.5754,-74.409"/>
</g>
<!-- Node32&#45;&gt;Node26 -->
<g id="edge71" class="edge">
<title>Node32&#45;&gt;Node26</title>
<path fill="none" stroke="#191970" d="M1567.0418,-347.4314C1621.8007,-333.8666 1701,-303.2315 1701,-239.5 1701,-239.5 1701,-239.5 1701,-178 1701,-140.7757 1674.9289,-103.9604 1657.1578,-83.1895"/>
<polygon fill="#191970" stroke="#191970" points="1659.6346,-80.7077 1650.375,-75.5588 1654.4027,-85.3582 1659.6346,-80.7077"/>
</g>
<!-- Node32&#45;&gt;Node29 -->
<g id="edge70" class="edge">
<title>Node32&#45;&gt;Node29</title>
<path fill="none" stroke="#191970" d="M1547.8968,-347.3769C1591.1307,-332.1274 1663,-297.9825 1663,-239.5 1663,-239.5 1663,-239.5 1663,-178 1663,-109.419 1569.7599,-81.9241 1514.2592,-71.6327"/>
<polygon fill="#191970" stroke="#191970" points="1514.8191,-68.1776 1504.3661,-69.9053 1513.615,-75.0733 1514.8191,-68.1776"/>
</g>
<!-- Node32&#45;&gt;Node31 -->
<g id="edge69" class="edge">
<title>Node32&#45;&gt;Node31</title>
<path fill="none" stroke="#191970" d="M1517.9893,-347.3762C1523.8365,-319.0883 1541.0528,-235.7987 1548.9534,-197.5767"/>
<polygon fill="#191970" stroke="#191970" points="1552.4041,-198.1729 1551.0009,-187.6714 1545.549,-196.7559 1552.4041,-198.1729"/>
</g>
<!-- Node33 -->
<g id="node34" class="node">
<title>Node33</title>
<g id="a_node34"><a xlink:href="Position_8h.html" target="_top" xlink:title="Position.h">
<polygon fill="none" stroke="#000000" points="1064.5,-291.5 1064.5,-310.5 1129.5,-310.5 1129.5,-291.5 1064.5,-291.5"/>
<text text-anchor="middle" x="1097" y="-298.5" font-family="FreeSans.ttf" font-size="10.00" fill="#000000">Position.h</text>
</a>
</g>
</g>
<!-- Node32&#45;&gt;Node33 -->
<g id="edge55" class="edge">
<title>Node32&#45;&gt;Node33</title>
<path fill="none" stroke="#191970" d="M1444.4474,-347.4369C1356.8961,-335.7355 1211.4833,-316.3009 1139.7323,-306.7112"/>
<polygon fill="#191970" stroke="#191970" points="1140.0718,-303.2256 1129.6962,-305.3699 1139.1444,-310.1639 1140.0718,-303.2256"/>
</g>
<!-- Node35 -->
<g id="node36" class="node">
<title>Node35</title>
<g id="a_node36"><a xlink:href="Rotation_8h.html" target="_top" xlink:title="iDynTree/Core/Rotation.h">
<polygon fill="none" stroke="#000000" points="1122.5,-230 1122.5,-249 1259.5,-249 1259.5,-230 1122.5,-230"/>
<text text-anchor="middle" x="1191" y="-237" font-family="FreeSans.ttf" font-size="10.00" fill="#000000">iDynTree/Core/Rotation.h</text>
</a>
</g>
</g>
<!-- Node32&#45;&gt;Node35 -->
<g id="edge67" class="edge">
<title>Node32&#45;&gt;Node35</title>
<path fill="none" stroke="#191970" d="M1489.6792,-347.484C1431.7531,-326.5415 1293.1483,-276.4305 1227.1377,-252.5652"/>
<polygon fill="#191970" stroke="#191970" points="1228.1608,-249.2134 1217.5665,-249.1048 1225.7807,-255.7964 1228.1608,-249.2134"/>
</g>
<!-- Node33&#45;&gt;Node14 -->
<g id="edge66" class="edge">
<title>Node33&#45;&gt;Node14</title>
<path fill="none" stroke="#191970" d="M1084.7304,-291.3521C1061.7811,-272.9181 1011.5621,-230.7111 977,-188 949.745,-154.3188 925.1902,-109.7134 912.3681,-84.8325"/>
<polygon fill="#191970" stroke="#191970" points="915.4065,-83.0856 907.7601,-75.7519 909.1643,-86.2533 915.4065,-83.0856"/>
</g>
<!-- Node34 -->
<g id="node35" class="node">
<title>Node34</title>
<g id="a_node35"><a xlink:href="PositionRaw_8h.html" target="_top" xlink:title="iDynTree/Core/PositionRaw.h">
<polygon fill="none" stroke="#000000" points="1007,-168.5 1007,-187.5 1163,-187.5 1163,-168.5 1007,-168.5"/>
<text text-anchor="middle" x="1085" y="-175.5" font-family="FreeSans.ttf" font-size="10.00" fill="#000000">iDynTree/Core/PositionRaw.h</text>
</a>
</g>
</g>
<!-- Node33&#45;&gt;Node34 -->
<g id="edge56" class="edge">
<title>Node33&#45;&gt;Node34</title>
<path fill="none" stroke="#191970" d="M1096.0584,-291.3484C1094.0956,-271.2295 1089.5328,-224.4608 1086.9229,-197.7098"/>
<polygon fill="#191970" stroke="#191970" points="1090.3918,-197.2196 1085.9372,-187.6068 1083.4249,-197.8994 1090.3918,-197.2196"/>
</g>
<!-- Node33&#45;&gt;Node35 -->
<g id="edge59" class="edge">
<title>Node33&#45;&gt;Node35</title>
<path fill="none" stroke="#191970" d="M1111.6875,-291.3906C1126.7256,-281.5519 1150.3176,-266.1167 1167.8667,-254.6351"/>
<polygon fill="#191970" stroke="#191970" points="1169.9637,-257.4457 1176.4156,-249.0419 1166.1313,-251.588 1169.9637,-257.4457"/>
</g>
<!-- Node34&#45;&gt;Node14 -->
<g id="edge58" class="edge">
<title>Node34&#45;&gt;Node14</title>
<path fill="none" stroke="#191970" d="M1072.9031,-168.4243C1055.6846,-155.0057 1022.8771,-130.2111 993,-112 973.6572,-100.2099 950.9363,-88.6133 933.163,-80.0131"/>
<polygon fill="#191970" stroke="#191970" points="934.3824,-76.7167 923.8508,-75.5613 931.3632,-83.0322 934.3824,-76.7167"/>
</g>
<!-- Node34&#45;&gt;Node25 -->
<g id="edge57" class="edge">
<title>Node34&#45;&gt;Node25</title>
<path fill="none" stroke="#191970" d="M1115.7712,-168.3733C1145.665,-159.021 1191.2093,-144.7725 1223.9217,-134.5385"/>
<polygon fill="#191970" stroke="#191970" points="1225.1315,-137.8273 1233.6303,-131.5011 1223.0414,-131.1466 1225.1315,-137.8273"/>
</g>
<!-- Node35&#45;&gt;Node14 -->
<g id="edge60" class="edge">
<title>Node35&#45;&gt;Node14</title>
<path fill="none" stroke="#191970" d="M1136.8641,-229.915C1087.6769,-220.351 1019.6025,-204.7083 998,-188 967.3013,-164.2563 979.4247,-142.1597 955,-112 945.992,-100.8769 934.1521,-90.1752 924.0458,-81.8972"/>
<polygon fill="#191970" stroke="#191970" points="926.0718,-79.0368 916.0644,-75.5578 921.718,-84.5181 926.0718,-79.0368"/>
</g>
<!-- Node35&#45;&gt;Node25 -->
<g id="edge65" class="edge">
<title>Node35&#45;&gt;Node25</title>
<path fill="none" stroke="#191970" d="M1191.72,-229.9878C1193.1898,-215.5706 1197.5339,-187.7746 1210,-168 1217.4912,-156.117 1229.027,-145.6911 1239.5161,-137.7829"/>
<polygon fill="#191970" stroke="#191970" points="1241.8589,-140.4111 1247.9689,-131.7555 1237.7948,-134.7116 1241.8589,-140.4111"/>
</g>
<!-- Node35&#45;&gt;Node31 -->
<g id="edge61" class="edge">
<title>Node35&#45;&gt;Node31</title>
<path fill="none" stroke="#191970" d="M1247.1653,-229.9581C1311.8619,-218.9668 1418.0465,-200.9272 1486.7303,-189.2585"/>
<polygon fill="#191970" stroke="#191970" points="1487.7283,-192.6392 1497.0008,-187.5137 1486.5558,-185.7381 1487.7283,-192.6392"/>
</g>
<!-- Node36 -->
<g id="node37" class="node">
<title>Node36</title>
<g id="a_node37"><a xlink:href="RotationRaw_8h.html" target="_top" xlink:title="iDynTree/Core/RotationRaw.h">
<polygon fill="none" stroke="#000000" points="1219,-168.5 1219,-187.5 1377,-187.5 1377,-168.5 1219,-168.5"/>
<text text-anchor="middle" x="1298" y="-175.5" font-family="FreeSans.ttf" font-size="10.00" fill="#000000">iDynTree/Core/RotationRaw.h</text>
</a>
</g>
</g>
<!-- Node35&#45;&gt;Node36 -->
<g id="edge62" class="edge">
<title>Node35&#45;&gt;Node36</title>
<path fill="none" stroke="#191970" d="M1207.7188,-229.8906C1225.0722,-219.9165 1252.4323,-204.1908 1272.4882,-192.6633"/>
<polygon fill="#191970" stroke="#191970" points="1274.4728,-195.5596 1281.3987,-187.5419 1270.9846,-189.4907 1274.4728,-195.5596"/>
</g>
<!-- Node36&#45;&gt;Node14 -->
<g id="edge64" class="edge">
<title>Node36&#45;&gt;Node14</title>
<path fill="none" stroke="#191970" d="M1262.2167,-168.4678C1198.4805,-151.3823 1060.9251,-114.0253 935.1252,-76.2655"/>
<polygon fill="#191970" stroke="#191970" points="935.9031,-72.8445 925.3186,-73.3138 933.8855,-79.5475 935.9031,-72.8445"/>
</g>
<!-- Node36&#45;&gt;Node28 -->
<g id="edge63" class="edge">
<title>Node36&#45;&gt;Node28</title>
<path fill="none" stroke="#191970" d="M1322.9264,-168.3733C1346.6202,-159.2226 1382.4511,-145.3844 1408.8068,-135.2057"/>
<polygon fill="#191970" stroke="#191970" points="1410.3314,-138.3689 1418.3989,-131.5011 1407.8094,-131.8389 1410.3314,-138.3689"/>
</g>
<!-- Node37&#45;&gt;Node25 -->
<g id="edge73" class="edge">
<title>Node37&#45;&gt;Node25</title>
<path fill="none" stroke="#191970" d="M1392.3506,-403.2183C1406.0126,-361.2294 1437.6066,-242.294 1386,-168 1377.1533,-155.2641 1342.8303,-142.9844 1312.835,-134.3208"/>
<polygon fill="#191970" stroke="#191970" points="1313.4453,-130.8569 1302.8716,-131.5258 1311.5546,-137.5968 1313.4453,-130.8569"/>
</g>
<!-- Node37&#45;&gt;Node31 -->
<g id="edge74" class="edge">
<title>Node37&#45;&gt;Node31</title>
<path fill="none" stroke="#191970" d="M1394.4992,-403.2292C1402.0138,-388.4133 1414.2661,-365.5176 1427,-347 1438.8012,-329.8387 1444.2308,-327.4538 1457,-311 1488.2546,-270.7268 1522.741,-221.7421 1540.6561,-195.9227"/>
<polygon fill="#191970" stroke="#191970" points="1543.6598,-197.7328 1546.47,-187.5175 1537.9028,-193.7507 1543.6598,-197.7328"/>
</g>
<!-- Node37&#45;&gt;Node32 -->
<g id="edge75" class="edge">
<title>Node37&#45;&gt;Node32</title>
<path fill="none" stroke="#191970" d="M1418.557,-403.4554C1439.4201,-393.509 1466.5691,-380.5659 1486.9098,-370.8686"/>
<polygon fill="#191970" stroke="#191970" points="1488.4891,-373.9931 1496.0096,-366.5303 1485.4767,-367.6744 1488.4891,-373.9931"/>
</g>
<!-- Node38&#45;&gt;Node14 -->
<g id="edge80" class="edge">
<title>Node38&#45;&gt;Node14</title>
<path fill="none" stroke="#191970" d="M1040.1044,-347.4628C982.8606,-334.2287 903,-304.176 903,-239.5 903,-239.5 903,-239.5 903,-178 903,-145.7116 903,-108.1872 903,-85.8048"/>
<polygon fill="#191970" stroke="#191970" points="906.5001,-85.5883 903,-75.5884 899.5001,-85.5884 906.5001,-85.5883"/>
</g>
<!-- Node38&#45;&gt;Node28 -->
<g id="edge79" class="edge">
<title>Node38&#45;&gt;Node28</title>
<path fill="none" stroke="#191970" d="M1133.1305,-347.4851C1199.0985,-328.3171 1339.5534,-278.9261 1419,-188 1430.3941,-174.9595 1436.5326,-156.0733 1439.74,-141.8419"/>
<polygon fill="#191970" stroke="#191970" points="1443.2531,-142.1117 1441.7282,-131.6272 1436.382,-140.7743 1443.2531,-142.1117"/>
</g>
<!-- Node38&#45;&gt;Node33 -->
<g id="edge77" class="edge">
<title>Node38&#45;&gt;Node33</title>
<path fill="none" stroke="#191970" d="M1097,-347.2455C1097,-339.9382 1097,-329.6944 1097,-320.7046"/>
<polygon fill="#191970" stroke="#191970" points="1100.5001,-320.6426 1097,-310.6427 1093.5001,-320.6427 1100.5001,-320.6426"/>
</g>
<!-- Node38&#45;&gt;Node35 -->
<g id="edge78" class="edge">
<title>Node38&#45;&gt;Node35</title>
<path fill="none" stroke="#191970" d="M1106.0597,-347.3526C1114.5472,-338.1955 1127.4682,-323.9458 1138,-311 1152.3738,-293.3316 1167.7668,-272.3044 1178.2397,-257.6443"/>
<polygon fill="#191970" stroke="#191970" points="1181.1386,-259.607 1184.0716,-249.4262 1175.4299,-255.5559 1181.1386,-259.607"/>
</g>
</g>
</svg>
