<?xml version="1.0" encoding="UTF-8" standalone="no"?>
<!DOCTYPE svg PUBLIC "-//W3C//DTD SVG 1.1//EN"
 "http://www.w3.org/Graphics/SVG/1.1/DTD/svg11.dtd">
<!-- Generated by graphviz version 2.40.1 (20161225.0304)
 -->
<!-- Title: FixedJoint.h Pages: 1 -->
<svg width="922pt" height="420pt"
 viewBox="0.00 0.00 922.00 420.00" xmlns="http://www.w3.org/2000/svg" xmlns:xlink="http://www.w3.org/1999/xlink">
<g id="graph0" class="graph" transform="scale(1 1) rotate(0) translate(4 416)">
<title>FixedJoint.h</title>
<!-- Node0 -->
<g id="node1" class="node">
<title>Node0</title>
<polygon fill="#bfbfbf" stroke="#000000" points="717.5,-392.5 717.5,-411.5 790.5,-411.5 790.5,-392.5 717.5,-392.5"/>
<text text-anchor="middle" x="754" y="-399.5" font-family="FreeSans.ttf" font-size="10.00" fill="#000000">FixedJoint.h</text>
</g>
<!-- Node1 -->
<g id="node2" class="node">
<title>Node1</title>
<g id="a_node2"><a xlink:href="Transform_8h.html" target="_top" xlink:title="iDynTree/Core/Transform.h">
<polygon fill="none" stroke="#000000" points="526,-336.5 526,-355.5 672,-355.5 672,-336.5 526,-336.5"/>
<text text-anchor="middle" x="599" y="-343.5" font-family="FreeSans.ttf" font-size="10.00" fill="#000000">iDynTree/Core/Transform.h</text>
</a>
</g>
</g>
<!-- Node0&#45;&gt;Node1 -->
<g id="edge1" class="edge">
<title>Node0&#45;&gt;Node1</title>
<path fill="none" stroke="#191970" d="M727.3546,-392.3733C701.8036,-383.1419 663.0488,-369.1402 634.8091,-358.9375"/>
<polygon fill="#191970" stroke="#191970" points="635.8921,-355.6074 625.2978,-355.5011 633.5135,-362.1909 635.8921,-355.6074"/>
</g>
<!-- Node24 -->
<g id="node25" class="node">
<title>Node24</title>
<g id="a_node25"><a xlink:href="Indices_8h.html" target="_top" xlink:title="iDynTree/Model/Indices.h">
<polygon fill="none" stroke="#000000" points="776,-280.5 776,-299.5 914,-299.5 914,-280.5 776,-280.5"/>
<text text-anchor="middle" x="845" y="-287.5" font-family="FreeSans.ttf" font-size="10.00" fill="#000000">iDynTree/Model/Indices.h</text>
</a>
</g>
</g>
<!-- Node0&#45;&gt;Node24 -->
<g id="edge40" class="edge">
<title>Node0&#45;&gt;Node24</title>
<path fill="none" stroke="#191970" d="M778.0418,-392.4435C794.1523,-384.8573 814.6089,-372.7338 827,-356 836.927,-342.5939 841.3794,-324.0314 843.3763,-310.006"/>
<polygon fill="#191970" stroke="#191970" points="846.8715,-310.2439 844.509,-299.9158 839.9152,-309.4629 846.8715,-310.2439"/>
</g>
<!-- Node25 -->
<g id="node26" class="node">
<title>Node25</title>
<g id="a_node26"><a xlink:href="IJoint_8h.html" target="_top" xlink:title="iDynTree/Model/IJoint.h">
<polygon fill="none" stroke="#000000" points="690,-336.5 690,-355.5 818,-355.5 818,-336.5 690,-336.5"/>
<text text-anchor="middle" x="754" y="-343.5" font-family="FreeSans.ttf" font-size="10.00" fill="#000000">iDynTree/Model/IJoint.h</text>
</a>
</g>
</g>
<!-- Node0&#45;&gt;Node25 -->
<g id="edge42" class="edge">
<title>Node0&#45;&gt;Node25</title>
<path fill="none" stroke="#191970" d="M754,-392.2455C754,-384.9382 754,-374.6944 754,-365.7046"/>
<polygon fill="#191970" stroke="#191970" points="757.5001,-365.6426 754,-355.6427 750.5001,-365.6427 757.5001,-365.6426"/>
</g>
<!-- Node2 -->
<g id="node3" class="node">
<title>Node2</title>
<g id="a_node3"><a xlink:href="Position_8h.html" target="_top" xlink:title="iDynTree/Core/Position.h">
<polygon fill="none" stroke="#000000" points="532,-280.5 532,-299.5 668,-299.5 668,-280.5 532,-280.5"/>
<text text-anchor="middle" x="600" y="-287.5" font-family="FreeSans.ttf" font-size="10.00" fill="#000000">iDynTree/Core/Position.h</text>
</a>
</g>
</g>
<!-- Node1&#45;&gt;Node2 -->
<g id="edge2" class="edge">
<title>Node1&#45;&gt;Node2</title>
<path fill="none" stroke="#191970" d="M599.1742,-336.2455C599.3047,-328.9382 599.4876,-318.6944 599.6481,-309.7046"/>
<polygon fill="#191970" stroke="#191970" points="603.1486,-309.7036 599.8278,-299.6427 596.1497,-309.5786 603.1486,-309.7036"/>
</g>
<!-- Node16 -->
<g id="node17" class="node">
<title>Node16</title>
<polygon fill="none" stroke="#bfbfbf" points="576,-56.5 576,-75.5 620,-75.5 620,-56.5 576,-56.5"/>
<text text-anchor="middle" x="598" y="-63.5" font-family="FreeSans.ttf" font-size="10.00" fill="#000000">string</text>
</g>
<!-- Node1&#45;&gt;Node16 -->
<g id="edge39" class="edge">
<title>Node1&#45;&gt;Node16</title>
<path fill="none" stroke="#191970" d="M634.3109,-336.4663C678.3722,-322.1751 748,-290.632 748,-234 748,-234 748,-234 748,-178 748,-119.5062 673.8584,-87.9013 629.8255,-74.2891"/>
<polygon fill="#191970" stroke="#191970" points="630.7146,-70.9023 620.133,-71.4314 628.735,-77.6166 630.7146,-70.9023"/>
</g>
<!-- Node19 -->
<g id="node20" class="node">
<title>Node19</title>
<g id="a_node20"><a xlink:href="Rotation_8h.html" target="_top" xlink:title="iDynTree/Core/Rotation.h">
<polygon fill="none" stroke="#000000" points="350.5,-224.5 350.5,-243.5 487.5,-243.5 487.5,-224.5 350.5,-224.5"/>
<text text-anchor="middle" x="419" y="-231.5" font-family="FreeSans.ttf" font-size="10.00" fill="#000000">iDynTree/Core/Rotation.h</text>
</a>
</g>
</g>
<!-- Node1&#45;&gt;Node19 -->
<g id="edge37" class="edge">
<title>Node1&#45;&gt;Node19</title>
<path fill="none" stroke="#191970" d="M582.9269,-336.4062C567.5029,-327.1681 543.5812,-312.7571 523,-300 495.2922,-282.8255 463.7057,-262.7021 442.6846,-249.2316"/>
<polygon fill="#191970" stroke="#191970" points="444.4001,-246.1738 434.0934,-243.7196 440.6201,-252.0654 444.4001,-246.1738"/>
</g>
<!-- Node22 -->
<g id="node23" class="node">
<title>Node22</title>
<g id="a_node23"><a xlink:href="MatrixFixSize_8h.html" target="_top" xlink:title="iDynTree/Core/MatrixFixSize.h">
<polygon fill="none" stroke="#000000" points="73.5,-112.5 73.5,-131.5 234.5,-131.5 234.5,-112.5 73.5,-112.5"/>
<text text-anchor="middle" x="154" y="-119.5" font-family="FreeSans.ttf" font-size="10.00" fill="#000000">iDynTree/Core/MatrixFixSize.h</text>
</a>
</g>
</g>
<!-- Node1&#45;&gt;Node22 -->
<g id="edge38" class="edge">
<title>Node1&#45;&gt;Node22</title>
<path fill="none" stroke="#191970" d="M544.2916,-336.4503C428.4462,-314.9983 164.7524,-259.2435 113,-188 101.1181,-171.6431 117.2015,-151.8169 132.5782,-138.19"/>
<polygon fill="#191970" stroke="#191970" points="134.9539,-140.7664 140.4029,-131.6802 130.477,-135.3852 134.9539,-140.7664"/>
</g>
<!-- Node3 -->
<g id="node4" class="node">
<title>Node3</title>
<g id="a_node4"><a xlink:href="PositionRaw_8h.html" target="_top" xlink:title="iDynTree/Core/PositionRaw.h">
<polygon fill="none" stroke="#000000" points="526,-168.5 526,-187.5 682,-187.5 682,-168.5 526,-168.5"/>
<text text-anchor="middle" x="604" y="-175.5" font-family="FreeSans.ttf" font-size="10.00" fill="#000000">iDynTree/Core/PositionRaw.h</text>
</a>
</g>
</g>
<!-- Node2&#45;&gt;Node3 -->
<g id="edge3" class="edge">
<title>Node2&#45;&gt;Node3</title>
<path fill="none" stroke="#191970" d="M600.341,-280.4509C600.9934,-262.184 602.4302,-221.9553 603.2965,-197.6976"/>
<polygon fill="#191970" stroke="#191970" points="606.8006,-197.6435 603.6598,-187.5249 599.805,-197.3936 606.8006,-197.6435"/>
</g>
<!-- Node2&#45;&gt;Node16 -->
<g id="edge36" class="edge">
<title>Node2&#45;&gt;Node16</title>
<path fill="none" stroke="#191970" d="M616.6862,-280.4095C647.7111,-261.2151 709.5198,-215.7996 691,-168 676.7977,-131.3439 642.6096,-99.783 619.8809,-81.8389"/>
<polygon fill="#191970" stroke="#191970" points="621.8636,-78.9487 611.7966,-75.6461 617.6068,-84.5057 621.8636,-78.9487"/>
</g>
<!-- Node2&#45;&gt;Node19 -->
<g id="edge22" class="edge">
<title>Node2&#45;&gt;Node19</title>
<path fill="none" stroke="#191970" d="M568.885,-280.3733C538.6571,-271.021 492.604,-256.7725 459.5261,-246.5385"/>
<polygon fill="#191970" stroke="#191970" points="460.2967,-243.1133 449.709,-243.5011 458.2277,-249.8005 460.2967,-243.1133"/>
</g>
<!-- Node4 -->
<g id="node5" class="node">
<title>Node4</title>
<g id="a_node5"><a xlink:href="VectorFixSize_8h.html" target="_top" xlink:title="iDynTree/Core/VectorFixSize.h">
<polygon fill="none" stroke="#000000" points="270.5,-112.5 270.5,-131.5 431.5,-131.5 431.5,-112.5 270.5,-112.5"/>
<text text-anchor="middle" x="351" y="-119.5" font-family="FreeSans.ttf" font-size="10.00" fill="#000000">iDynTree/Core/VectorFixSize.h</text>
</a>
</g>
</g>
<!-- Node3&#45;&gt;Node4 -->
<g id="edge4" class="edge">
<title>Node3&#45;&gt;Node4</title>
<path fill="none" stroke="#191970" d="M560.7952,-168.4369C517.4053,-158.8328 450.4791,-144.0191 403.9274,-133.7152"/>
<polygon fill="#191970" stroke="#191970" points="404.5467,-130.2676 394.0266,-131.5237 403.0338,-137.1022 404.5467,-130.2676"/>
</g>
<!-- Node3&#45;&gt;Node16 -->
<g id="edge21" class="edge">
<title>Node3&#45;&gt;Node16</title>
<path fill="none" stroke="#191970" d="M603.4884,-168.4509C602.5099,-150.184 600.3547,-109.9553 599.0552,-85.6976"/>
<polygon fill="#191970" stroke="#191970" points="602.5403,-85.3233 598.5103,-75.5249 595.5503,-85.6978 602.5403,-85.3233"/>
</g>
<!-- Node5 -->
<g id="node6" class="node">
<title>Node5</title>
<g id="a_node6"><a xlink:href="Utils_8h.html" target="_top" xlink:title="iDynTree/Core/Utils.h">
<polygon fill="none" stroke="#000000" points="190.5,-56.5 190.5,-75.5 309.5,-75.5 309.5,-56.5 190.5,-56.5"/>
<text text-anchor="middle" x="250" y="-63.5" font-family="FreeSans.ttf" font-size="10.00" fill="#000000">iDynTree/Core/Utils.h</text>
</a>
</g>
</g>
<!-- Node4&#45;&gt;Node5 -->
<g id="edge5" class="edge">
<title>Node4&#45;&gt;Node5</title>
<path fill="none" stroke="#191970" d="M333.4071,-112.2455C317.621,-103.4928 294.2361,-90.527 276.2413,-80.5496"/>
<polygon fill="#191970" stroke="#191970" points="277.8341,-77.4308 267.3913,-75.6427 274.4397,-83.5528 277.8341,-77.4308"/>
</g>
<!-- Node7 -->
<g id="node8" class="node">
<title>Node7</title>
<g id="a_node8"><a xlink:href="Span_8h.html" target="_top" xlink:title="iDynTree/Core/Span.h">
<polygon fill="none" stroke="#000000" points="434.5,-56.5 434.5,-75.5 555.5,-75.5 555.5,-56.5 434.5,-56.5"/>
<text text-anchor="middle" x="495" y="-63.5" font-family="FreeSans.ttf" font-size="10.00" fill="#000000">iDynTree/Core/Span.h</text>
</a>
</g>
</g>
<!-- Node4&#45;&gt;Node7 -->
<g id="edge7" class="edge">
<title>Node4&#45;&gt;Node7</title>
<path fill="none" stroke="#191970" d="M375.7545,-112.3733C399.2849,-103.2226 434.8687,-89.3844 461.0426,-79.2057"/>
<polygon fill="#191970" stroke="#191970" points="462.5171,-82.3877 470.5685,-75.5011 459.9799,-75.8636 462.5171,-82.3877"/>
</g>
<!-- Node8 -->
<g id="node9" class="node">
<title>Node8</title>
<polygon fill="none" stroke="#bfbfbf" points="170,-.5 170,-19.5 222,-19.5 222,-.5 170,-.5"/>
<text text-anchor="middle" x="196" y="-7.5" font-family="FreeSans.ttf" font-size="10.00" fill="#000000">cassert</text>
</g>
<!-- Node4&#45;&gt;Node8 -->
<g id="edge19" class="edge">
<title>Node4&#45;&gt;Node8</title>
<path fill="none" stroke="#191970" d="M363.0141,-112.4189C378.4013,-98.9938 401.4507,-74.1916 387,-56 343.0107,-.6229 300.5313,-37.4682 232,-20 231.9018,-19.975 231.8034,-19.9499 231.7049,-19.9247"/>
<polygon fill="#191970" stroke="#191970" points="232.8733,-16.6132 222.3114,-17.4484 231.0889,-23.3819 232.8733,-16.6132"/>
</g>
<!-- Node4&#45;&gt;Node16 -->
<g id="edge17" class="edge">
<title>Node4&#45;&gt;Node16</title>
<path fill="none" stroke="#191970" d="M401.0006,-112.4662C444.546,-103.8746 509.2604,-90.4099 565,-76 565.326,-75.9157 565.6536,-75.8303 565.9826,-75.7439"/>
<polygon fill="#191970" stroke="#191970" points="567.0141,-79.0898 575.7039,-73.0286 565.131,-72.3479 567.0141,-79.0898"/>
</g>
<!-- Node17 -->
<g id="node18" class="node">
<title>Node17</title>
<polygon fill="none" stroke="#bfbfbf" points="116,-56.5 116,-75.5 172,-75.5 172,-56.5 116,-56.5"/>
<text text-anchor="middle" x="144" y="-63.5" font-family="FreeSans.ttf" font-size="10.00" fill="#000000">sstream</text>
</g>
<!-- Node4&#45;&gt;Node17 -->
<g id="edge18" class="edge">
<title>Node4&#45;&gt;Node17</title>
<path fill="none" stroke="#191970" d="M315.4154,-112.3733C278.1701,-102.2972 219.9166,-86.5378 181.8465,-76.2387"/>
<polygon fill="#191970" stroke="#191970" points="182.7205,-72.8494 172.1534,-73.6164 180.8924,-79.6065 182.7205,-72.8494"/>
</g>
<!-- Node18 -->
<g id="node19" class="node">
<title>Node18</title>
<polygon fill="none" stroke="#bfbfbf" points="328,-56.5 328,-75.5 378,-75.5 378,-56.5 328,-56.5"/>
<text text-anchor="middle" x="353" y="-63.5" font-family="FreeSans.ttf" font-size="10.00" fill="#000000">cstring</text>
</g>
<!-- Node4&#45;&gt;Node18 -->
<g id="edge20" class="edge">
<title>Node4&#45;&gt;Node18</title>
<path fill="none" stroke="#191970" d="M351.3484,-112.2455C351.6093,-104.9382 351.9752,-94.6944 352.2963,-85.7046"/>
<polygon fill="#191970" stroke="#191970" points="355.7964,-85.7613 352.6556,-75.6427 348.8008,-85.5113 355.7964,-85.7613"/>
</g>
<!-- Node6 -->
<g id="node7" class="node">
<title>Node6</title>
<polygon fill="none" stroke="#bfbfbf" points="240.5,-.5 240.5,-19.5 293.5,-19.5 293.5,-.5 240.5,-.5"/>
<text text-anchor="middle" x="267" y="-7.5" font-family="FreeSans.ttf" font-size="10.00" fill="#000000">cstddef</text>
</g>
<!-- Node5&#45;&gt;Node6 -->
<g id="edge6" class="edge">
<title>Node5&#45;&gt;Node6</title>
<path fill="none" stroke="#191970" d="M252.9612,-56.2455C255.2038,-48.8579 258.3577,-38.4689 261.1081,-29.4087"/>
<polygon fill="#191970" stroke="#191970" points="264.517,-30.2282 264.0728,-19.6427 257.8188,-28.1948 264.517,-30.2282"/>
</g>
<!-- Node7&#45;&gt;Node6 -->
<g id="edge11" class="edge">
<title>Node7&#45;&gt;Node6</title>
<path fill="none" stroke="#191970" d="M453.3202,-56.4677C416.4876,-47.9426 361.0762,-34.8716 303.6849,-20.1114"/>
<polygon fill="#191970" stroke="#191970" points="304.2654,-16.6466 293.7077,-17.5334 302.5141,-23.4239 304.2654,-16.6466"/>
</g>
<!-- Node7&#45;&gt;Node8 -->
<g id="edge8" class="edge">
<title>Node7&#45;&gt;Node8</title>
<path fill="none" stroke="#191970" d="M434.3425,-57.1162C380.8207,-48.8678 300.8395,-35.5421 232,-20 231.9011,-19.9777 231.8021,-19.9553 231.703,-19.9327"/>
<polygon fill="#191970" stroke="#191970" points="232.817,-16.6024 222.2709,-17.6171 231.148,-23.4005 232.817,-16.6024"/>
</g>
<!-- Node9 -->
<g id="node10" class="node">
<title>Node9</title>
<polygon fill="none" stroke="#bfbfbf" points="679,-.5 679,-19.5 743,-19.5 743,-.5 679,-.5"/>
<text text-anchor="middle" x="711" y="-7.5" font-family="FreeSans.ttf" font-size="10.00" fill="#000000">algorithm</text>
</g>
<!-- Node7&#45;&gt;Node9 -->
<g id="edge9" class="edge">
<title>Node7&#45;&gt;Node9</title>
<path fill="none" stroke="#191970" d="M532.1317,-56.3733C570.1914,-46.5059 629.274,-31.1882 669.0128,-20.8856"/>
<polygon fill="#191970" stroke="#191970" points="670.1225,-24.2137 678.9241,-18.316 668.3657,-17.4377 670.1225,-24.2137"/>
</g>
<!-- Node10 -->
<g id="node11" class="node">
<title>Node10</title>
<polygon fill="none" stroke="#bfbfbf" points="761,-.5 761,-19.5 803,-19.5 803,-.5 761,-.5"/>
<text text-anchor="middle" x="782" y="-7.5" font-family="FreeSans.ttf" font-size="10.00" fill="#000000">array</text>
</g>
<!-- Node7&#45;&gt;Node10 -->
<g id="edge10" class="edge">
<title>Node7&#45;&gt;Node10</title>
<path fill="none" stroke="#191970" d="M555.5043,-57.6981C605.6688,-50.2415 678.9385,-38.0297 751.0971,-19.9559"/>
<polygon fill="#191970" stroke="#191970" points="751.979,-23.3431 760.8075,-17.4859 750.2533,-16.5592 751.979,-23.3431"/>
</g>
<!-- Node11 -->
<g id="node12" class="node">
<title>Node11</title>
<polygon fill="none" stroke="#bfbfbf" points="311.5,-.5 311.5,-19.5 364.5,-19.5 364.5,-.5 311.5,-.5"/>
<text text-anchor="middle" x="338" y="-7.5" font-family="FreeSans.ttf" font-size="10.00" fill="#000000">iterator</text>
</g>
<!-- Node7&#45;&gt;Node11 -->
<g id="edge12" class="edge">
<title>Node7&#45;&gt;Node11</title>
<path fill="none" stroke="#191970" d="M468.0107,-56.3733C442.1301,-47.1419 402.8752,-33.1402 374.2711,-22.9375"/>
<polygon fill="#191970" stroke="#191970" points="375.2317,-19.5642 364.6371,-19.5011 372.88,-26.1573 375.2317,-19.5642"/>
</g>
<!-- Node12 -->
<g id="node13" class="node">
<title>Node12</title>
<polygon fill="none" stroke="#bfbfbf" points="383,-.5 383,-19.5 427,-19.5 427,-.5 383,-.5"/>
<text text-anchor="middle" x="405" y="-7.5" font-family="FreeSans.ttf" font-size="10.00" fill="#000000">limits</text>
</g>
<!-- Node7&#45;&gt;Node12 -->
<g id="edge13" class="edge">
<title>Node7&#45;&gt;Node12</title>
<path fill="none" stroke="#191970" d="M479.3232,-56.2455C465.5144,-47.6534 445.1807,-35.0014 429.2708,-25.1018"/>
<polygon fill="#191970" stroke="#191970" points="430.8368,-21.954 420.4972,-19.6427 427.1387,-27.8974 430.8368,-21.954"/>
</g>
<!-- Node13 -->
<g id="node14" class="node">
<title>Node13</title>
<polygon fill="none" stroke="#bfbfbf" points="445.5,-.5 445.5,-19.5 510.5,-19.5 510.5,-.5 445.5,-.5"/>
<text text-anchor="middle" x="478" y="-7.5" font-family="FreeSans.ttf" font-size="10.00" fill="#000000">stdexcept</text>
</g>
<!-- Node7&#45;&gt;Node13 -->
<g id="edge14" class="edge">
<title>Node7&#45;&gt;Node13</title>
<path fill="none" stroke="#191970" d="M492.0388,-56.2455C489.7962,-48.8579 486.6423,-38.4689 483.8919,-29.4087"/>
<polygon fill="#191970" stroke="#191970" points="487.1812,-28.1948 480.9272,-19.6427 480.483,-30.2282 487.1812,-28.1948"/>
</g>
<!-- Node14 -->
<g id="node15" class="node">
<title>Node14</title>
<polygon fill="none" stroke="#bfbfbf" points="528.5,-.5 528.5,-19.5 597.5,-19.5 597.5,-.5 528.5,-.5"/>
<text text-anchor="middle" x="563" y="-7.5" font-family="FreeSans.ttf" font-size="10.00" fill="#000000">type_traits</text>
</g>
<!-- Node7&#45;&gt;Node14 -->
<g id="edge15" class="edge">
<title>Node7&#45;&gt;Node14</title>
<path fill="none" stroke="#191970" d="M506.8447,-56.2455C516.888,-47.9746 531.4995,-35.9416 543.3004,-26.2232"/>
<polygon fill="#191970" stroke="#191970" points="545.7967,-28.7015 551.291,-19.6427 541.3467,-23.298 545.7967,-28.7015"/>
</g>
<!-- Node15 -->
<g id="node16" class="node">
<title>Node15</title>
<polygon fill="none" stroke="#bfbfbf" points="615.5,-.5 615.5,-19.5 660.5,-19.5 660.5,-.5 615.5,-.5"/>
<text text-anchor="middle" x="638" y="-7.5" font-family="FreeSans.ttf" font-size="10.00" fill="#000000">utility</text>
</g>
<!-- Node7&#45;&gt;Node15 -->
<g id="edge16" class="edge">
<title>Node7&#45;&gt;Node15</title>
<path fill="none" stroke="#191970" d="M519.5826,-56.3733C543.3744,-47.0562 579.5752,-32.8797 605.6868,-22.6541"/>
<polygon fill="#191970" stroke="#191970" points="607.1182,-25.8524 615.1534,-18.9469 604.5657,-19.3344 607.1182,-25.8524"/>
</g>
<!-- Node19&#45;&gt;Node4 -->
<g id="edge35" class="edge">
<title>Node19&#45;&gt;Node4</title>
<path fill="none" stroke="#191970" d="M350.3457,-228.0835C267.0259,-220.1955 135.7591,-205.2122 121,-188 115.2139,-181.2522 115.3645,-174.8742 121,-168 130.6905,-156.1795 208.1276,-142.4016 270.5126,-133.0281"/>
<polygon fill="#191970" stroke="#191970" points="271.3995,-136.4349 280.7773,-131.5047 270.3718,-129.5108 271.3995,-136.4349"/>
</g>
<!-- Node19&#45;&gt;Node16 -->
<g id="edge23" class="edge">
<title>Node19&#45;&gt;Node16</title>
<path fill="none" stroke="#191970" d="M432.7855,-224.3023C445.241,-215.3396 463.883,-201.419 479,-188 518.3896,-153.0348 560.5387,-107.7064 582.5638,-83.3336"/>
<polygon fill="#191970" stroke="#191970" points="585.3981,-85.4159 589.4776,-75.638 580.1909,-80.7378 585.3981,-85.4159"/>
</g>
<!-- Node20 -->
<g id="node21" class="node">
<title>Node20</title>
<g id="a_node21"><a xlink:href="GeomVector3_8h.html" target="_top" xlink:title="iDynTree/Core/GeomVector3.h">
<polygon fill="none" stroke="#000000" points="130.5,-168.5 130.5,-187.5 293.5,-187.5 293.5,-168.5 130.5,-168.5"/>
<text text-anchor="middle" x="212" y="-175.5" font-family="FreeSans.ttf" font-size="10.00" fill="#000000">iDynTree/Core/GeomVector3.h</text>
</a>
</g>
</g>
<!-- Node19&#45;&gt;Node20 -->
<g id="edge24" class="edge">
<title>Node19&#45;&gt;Node20</title>
<path fill="none" stroke="#191970" d="M383.4154,-224.3733C348.3984,-214.9001 294.8119,-200.4032 256.8875,-190.1435"/>
<polygon fill="#191970" stroke="#191970" points="257.6873,-186.7341 247.1202,-187.5011 255.8592,-193.4912 257.6873,-186.7341"/>
</g>
<!-- Node21 -->
<g id="node22" class="node">
<title>Node21</title>
<g id="a_node22"><a xlink:href="RotationRaw_8h.html" target="_top" xlink:title="iDynTree/Core/RotationRaw.h">
<polygon fill="none" stroke="#000000" points="312,-168.5 312,-187.5 470,-187.5 470,-168.5 312,-168.5"/>
<text text-anchor="middle" x="391" y="-175.5" font-family="FreeSans.ttf" font-size="10.00" fill="#000000">iDynTree/Core/RotationRaw.h</text>
</a>
</g>
</g>
<!-- Node19&#45;&gt;Node21 -->
<g id="edge26" class="edge">
<title>Node19&#45;&gt;Node21</title>
<path fill="none" stroke="#191970" d="M414.1228,-224.2455C410.3487,-216.6973 405.0079,-206.0158 400.4099,-196.8197"/>
<polygon fill="#191970" stroke="#191970" points="403.424,-195.0217 395.8213,-187.6427 397.163,-198.1522 403.424,-195.0217"/>
</g>
<!-- Node20&#45;&gt;Node4 -->
<g id="edge25" class="edge">
<title>Node20&#45;&gt;Node4</title>
<path fill="none" stroke="#191970" d="M235.895,-168.3733C258.5082,-159.2629 292.6542,-145.5062 317.8873,-135.3404"/>
<polygon fill="#191970" stroke="#191970" points="319.4493,-138.4845 327.4169,-131.5011 316.8334,-131.9917 319.4493,-138.4845"/>
</g>
<!-- Node21&#45;&gt;Node16 -->
<g id="edge34" class="edge">
<title>Node21&#45;&gt;Node16</title>
<path fill="none" stroke="#191970" d="M402.7402,-168.2934C419.8262,-154.4954 452.9052,-129.0017 484,-112 510.5885,-97.4622 542.7523,-84.9001 566.1275,-76.5943"/>
<polygon fill="#191970" stroke="#191970" points="567.5905,-79.7909 575.8809,-73.194 565.2861,-73.1811 567.5905,-79.7909"/>
</g>
<!-- Node21&#45;&gt;Node22 -->
<g id="edge27" class="edge">
<title>Node21&#45;&gt;Node22</title>
<path fill="none" stroke="#191970" d="M350.5275,-168.4369C310.052,-158.8731 247.7133,-144.1432 204.1297,-133.845"/>
<polygon fill="#191970" stroke="#191970" points="204.8424,-130.4171 194.3055,-131.5237 203.2327,-137.2295 204.8424,-130.4171"/>
</g>
<!-- Node22&#45;&gt;Node5 -->
<g id="edge28" class="edge">
<title>Node22&#45;&gt;Node5</title>
<path fill="none" stroke="#191970" d="M170.7219,-112.2455C185.5889,-103.5731 207.5466,-90.7645 224.5858,-80.825"/>
<polygon fill="#191970" stroke="#191970" points="226.5955,-83.7047 233.4697,-75.6427 223.0683,-77.6582 226.5955,-83.7047"/>
</g>
<!-- Node22&#45;&gt;Node8 -->
<g id="edge29" class="edge">
<title>Node22&#45;&gt;Node8</title>
<path fill="none" stroke="#191970" d="M138.7049,-112.4582C120.5588,-99.8835 94.2718,-76.9064 107,-56 118.5534,-37.0232 140.7351,-25.5315 160.0625,-18.7799"/>
<polygon fill="#191970" stroke="#191970" points="161.3716,-22.0363 169.8379,-15.6667 159.2474,-15.3663 161.3716,-22.0363"/>
</g>
<!-- Node22&#45;&gt;Node16 -->
<g id="edge31" class="edge">
<title>Node22&#45;&gt;Node16</title>
<path fill="none" stroke="#191970" d="M234.6392,-113.7755C345.1271,-102.3836 533.5284,-82.4729 565,-76 565.3298,-75.9322 565.6611,-75.8625 565.9936,-75.7911"/>
<polygon fill="#191970" stroke="#191970" points="566.9277,-79.1653 575.7755,-73.337 565.2243,-72.3757 566.9277,-79.1653"/>
</g>
<!-- Node22&#45;&gt;Node17 -->
<g id="edge33" class="edge">
<title>Node22&#45;&gt;Node17</title>
<path fill="none" stroke="#191970" d="M152.2581,-112.2455C150.9533,-104.9382 149.124,-94.6944 147.5187,-85.7046"/>
<polygon fill="#191970" stroke="#191970" points="150.9254,-84.8717 145.7219,-75.6427 144.0344,-86.1022 150.9254,-84.8717"/>
</g>
<!-- Node22&#45;&gt;Node18 -->
<g id="edge30" class="edge">
<title>Node22&#45;&gt;Node18</title>
<path fill="none" stroke="#191970" d="M188.8052,-112.4508C220.2027,-103.8023 267.9002,-90.5798 318.0395,-76.25"/>
<polygon fill="#191970" stroke="#191970" points="319.1104,-79.5841 327.7606,-73.4665 317.1834,-72.8546 319.1104,-79.5841"/>
</g>
<!-- Node23 -->
<g id="node24" class="node">
<title>Node23</title>
<polygon fill="none" stroke="#bfbfbf" points="0,-56.5 0,-75.5 60,-75.5 60,-56.5 0,-56.5"/>
<text text-anchor="middle" x="30" y="-63.5" font-family="FreeSans.ttf" font-size="10.00" fill="#000000">iostream</text>
</g>
<!-- Node22&#45;&gt;Node23 -->
<g id="edge32" class="edge">
<title>Node22&#45;&gt;Node23</title>
<path fill="none" stroke="#191970" d="M132.6836,-112.3733C112.7784,-103.3838 82.8564,-89.8706 60.44,-79.7471"/>
<polygon fill="#191970" stroke="#191970" points="61.5925,-76.4272 51.0382,-75.5011 58.7113,-82.8068 61.5925,-76.4272"/>
</g>
<!-- Node24&#45;&gt;Node16 -->
<g id="edge41" class="edge">
<title>Node24&#45;&gt;Node16</title>
<path fill="none" stroke="#191970" d="M843.3705,-280.1791C837.862,-250.1539 817.1022,-158.7871 762,-112 742.1548,-95.1495 672.0244,-79.7172 630.1699,-71.7238"/>
<polygon fill="#191970" stroke="#191970" points="630.6592,-68.2547 620.186,-69.8555 629.3716,-75.1353 630.6592,-68.2547"/>
</g>
<!-- Node25&#45;&gt;Node24 -->
<g id="edge43" class="edge">
<title>Node25&#45;&gt;Node24</title>
<path fill="none" stroke="#191970" d="M769.851,-336.2455C783.8132,-327.6534 804.3728,-315.0014 820.4596,-305.1018"/>
<polygon fill="#191970" stroke="#191970" points="822.6484,-307.8645 829.3307,-299.6427 818.9797,-301.9029 822.6484,-307.8645"/>
</g>
</g>
</svg>
