<?xml version="1.0" encoding="UTF-8" standalone="no"?>
<!DOCTYPE svg PUBLIC "-//W3C//DTD SVG 1.1//EN"
 "http://www.w3.org/Graphics/SVG/1.1/DTD/svg11.dtd">
<!-- Generated by graphviz version 2.40.1 (20161225.0304)
 -->
<!-- Title: FixedJoint.cpp Pages: 1 -->
<svg width="1372pt" height="610pt"
 viewBox="0.00 0.00 1372.00 610.00" xmlns="http://www.w3.org/2000/svg" xmlns:xlink="http://www.w3.org/1999/xlink">
<g id="graph0" class="graph" transform="scale(1 1) rotate(0) translate(4 606)">
<title>FixedJoint.cpp</title>
<!-- Node0 -->
<g id="node1" class="node">
<title>Node0</title>
<polygon fill="#bfbfbf" stroke="#000000" points="545,-582.5 545,-601.5 629,-601.5 629,-582.5 545,-582.5"/>
<text text-anchor="middle" x="587" y="-589.5" font-family="FreeSans.ttf" font-size="10.00" fill="#000000">FixedJoint.cpp</text>
</g>
<!-- Node1 -->
<g id="node2" class="node">
<title>Node1</title>
<g id="a_node2"><a xlink:href="SpatialMotionVector_8h.html" target="_top" xlink:title="iDynTree/Core/SpatialMotion\lVector.h">
<polygon fill="none" stroke="#000000" points="1082.5,-403.5 1082.5,-433.5 1237.5,-433.5 1237.5,-403.5 1082.5,-403.5"/>
<text text-anchor="start" x="1090.5" y="-421.5" font-family="FreeSans.ttf" font-size="10.00" fill="#000000">iDynTree/Core/SpatialMotion</text>
<text text-anchor="middle" x="1160" y="-410.5" font-family="FreeSans.ttf" font-size="10.00" fill="#000000">Vector.h</text>
</a>
</g>
</g>
<!-- Node0&#45;&gt;Node1 -->
<g id="edge1" class="edge">
<title>Node0&#45;&gt;Node1</title>
<path fill="none" stroke="#191970" d="M629.4116,-589.9195C745.7418,-583.3543 1066.1638,-559.2392 1141,-490 1153.6391,-478.3062 1158.2511,-459.2517 1159.7771,-443.7528"/>
<polygon fill="#191970" stroke="#191970" points="1163.2732,-443.9231 1160.4012,-433.725 1156.2867,-443.4882 1163.2732,-443.9231"/>
</g>
<!-- Node3 -->
<g id="node4" class="node">
<title>Node3</title>
<g id="a_node4"><a xlink:href="Utils_8h.html" target="_top" xlink:title="iDynTree/Core/Utils.h">
<polygon fill="none" stroke="#000000" points="1244.5,-56.5 1244.5,-75.5 1363.5,-75.5 1363.5,-56.5 1244.5,-56.5"/>
<text text-anchor="middle" x="1304" y="-63.5" font-family="FreeSans.ttf" font-size="10.00" fill="#000000">iDynTree/Core/Utils.h</text>
</a>
</g>
</g>
<!-- Node0&#45;&gt;Node3 -->
<g id="edge48" class="edge">
<title>Node0&#45;&gt;Node3</title>
<path fill="none" stroke="#191970" d="M629.0504,-590.4141C790.8177,-583.7644 1364,-554.9169 1364,-480 1364,-480 1364,-480 1364,-183.5 1364,-144.2716 1337.1458,-104.9419 1319.3687,-83.2039"/>
<polygon fill="#191970" stroke="#191970" points="1321.9896,-80.8829 1312.8532,-75.5184 1316.6501,-85.4096 1321.9896,-80.8829"/>
</g>
<!-- Node6 -->
<g id="node7" class="node">
<title>Node6</title>
<polygon fill="none" stroke="#bfbfbf" points="684,-.5 684,-19.5 736,-19.5 736,-.5 684,-.5"/>
<text text-anchor="middle" x="710" y="-7.5" font-family="FreeSans.ttf" font-size="10.00" fill="#000000">cassert</text>
</g>
<!-- Node0&#45;&gt;Node6 -->
<g id="edge75" class="edge">
<title>Node0&#45;&gt;Node6</title>
<path fill="none" stroke="#191970" d="M544.7844,-588.4273C410.1906,-576.4773 0,-535.5053 0,-480 0,-480 0,-480 0,-122 0,-53.0639 528.9881,-19.6882 673.7564,-11.8451"/>
<polygon fill="#191970" stroke="#191970" points="674.0896,-15.3323 683.8887,-11.304 673.7163,-8.3423 674.0896,-15.3323"/>
</g>
<!-- Node25 -->
<g id="node26" class="node">
<title>Node25</title>
<g id="a_node26"><a xlink:href="TransformDerivative_8h.html" target="_top" xlink:title="iDynTree/Core/TransformDerivative.h">
<polygon fill="none" stroke="#000000" points="766.5,-174 766.5,-193 963.5,-193 963.5,-174 766.5,-174"/>
<text text-anchor="middle" x="865" y="-181" font-family="FreeSans.ttf" font-size="10.00" fill="#000000">iDynTree/Core/TransformDerivative.h</text>
</a>
</g>
</g>
<!-- Node0&#45;&gt;Node25 -->
<g id="edge45" class="edge">
<title>Node0&#45;&gt;Node25</title>
<path fill="none" stroke="#191970" d="M576.5394,-582.4235C564.0997,-569.8112 545.9681,-546.7935 554,-526 585.2976,-444.9753 785.7081,-256.3791 847.1307,-199.8184"/>
<polygon fill="#191970" stroke="#191970" points="849.5361,-202.3613 854.5355,-193.0202 844.8021,-197.2049 849.5361,-202.3613"/>
</g>
<!-- Node26 -->
<g id="node27" class="node">
<title>Node26</title>
<g id="a_node27"><a xlink:href="FixedJoint_8h.html" target="_top" xlink:title="iDynTree/Model/FixedJoint.h">
<polygon fill="none" stroke="#000000" points="182.5,-409 182.5,-428 333.5,-428 333.5,-409 182.5,-409"/>
<text text-anchor="middle" x="258" y="-416" font-family="FreeSans.ttf" font-size="10.00" fill="#000000">iDynTree/Model/FixedJoint.h</text>
</a>
</g>
</g>
<!-- Node0&#45;&gt;Node26 -->
<g id="edge49" class="edge">
<title>Node0&#45;&gt;Node26</title>
<path fill="none" stroke="#191970" d="M568.8029,-582.4558C534.4327,-564.4237 457.6153,-524.0975 393,-490 355.4417,-470.1805 312.0526,-447.1821 284.8201,-432.7352"/>
<polygon fill="#191970" stroke="#191970" points="286.3716,-429.5963 275.8975,-428.001 283.0906,-435.7798 286.3716,-429.5963"/>
</g>
<!-- Node30 -->
<g id="node31" class="node">
<title>Node30</title>
<g id="a_node31"><a xlink:href="LinkState_8h.html" target="_top" xlink:title="iDynTree/Model/LinkState.h">
<polygon fill="none" stroke="#000000" points="563.5,-526.5 563.5,-545.5 712.5,-545.5 712.5,-526.5 563.5,-526.5"/>
<text text-anchor="middle" x="638" y="-533.5" font-family="FreeSans.ttf" font-size="10.00" fill="#000000">iDynTree/Model/LinkState.h</text>
</a>
</g>
</g>
<!-- Node0&#45;&gt;Node30 -->
<g id="edge59" class="edge">
<title>Node0&#45;&gt;Node30</title>
<path fill="none" stroke="#191970" d="M595.8835,-582.2455C603.1966,-574.2155 613.7391,-562.6394 622.4467,-553.0781"/>
<polygon fill="#191970" stroke="#191970" points="625.0727,-555.3928 629.2183,-545.6427 619.8972,-550.6795 625.0727,-555.3928"/>
</g>
<!-- Node2 -->
<g id="node3" class="node">
<title>Node2</title>
<g id="a_node3"><a xlink:href="VectorFixSize_8h.html" target="_top" xlink:title="iDynTree/Core/VectorFixSize.h">
<polygon fill="none" stroke="#000000" points="849.5,-112.5 849.5,-131.5 1010.5,-131.5 1010.5,-112.5 849.5,-112.5"/>
<text text-anchor="middle" x="930" y="-119.5" font-family="FreeSans.ttf" font-size="10.00" fill="#000000">iDynTree/Core/VectorFixSize.h</text>
</a>
</g>
</g>
<!-- Node1&#45;&gt;Node2 -->
<g id="edge2" class="edge">
<title>Node1&#45;&gt;Node2</title>
<path fill="none" stroke="#191970" d="M1222.2249,-403.4969C1255.7499,-394.0198 1292.215,-380.9574 1302,-367 1327.2607,-330.9678 1381.7004,-296.8871 1192,-168 1164.4882,-149.3078 1084.9875,-137.0872 1020.7136,-129.9733"/>
<polygon fill="#191970" stroke="#191970" points="1020.8569,-126.4685 1010.5391,-128.8752 1020.1057,-133.4281 1020.8569,-126.4685"/>
</g>
<!-- Node17 -->
<g id="node18" class="node">
<title>Node17</title>
<g id="a_node18"><a xlink:href="GeomVector3_8h.html" target="_top" xlink:title="iDynTree/Core/GeomVector3.h">
<polygon fill="none" stroke="#000000" points="1020.5,-174 1020.5,-193 1183.5,-193 1183.5,-174 1020.5,-174"/>
<text text-anchor="middle" x="1102" y="-181" font-family="FreeSans.ttf" font-size="10.00" fill="#000000">iDynTree/Core/GeomVector3.h</text>
</a>
</g>
</g>
<!-- Node1&#45;&gt;Node17 -->
<g id="edge19" class="edge">
<title>Node1&#45;&gt;Node17</title>
<path fill="none" stroke="#191970" d="M1146.0512,-403.4987C1137.908,-393.8254 1128.2344,-380.5568 1123,-367 1101.2089,-310.562 1100.1313,-237.6422 1101.0718,-203.1901"/>
<polygon fill="#191970" stroke="#191970" points="1104.5743,-203.1813 1101.4411,-193.0604 1097.579,-202.9262 1104.5743,-203.1813"/>
</g>
<!-- Node18 -->
<g id="node19" class="node">
<title>Node18</title>
<g id="a_node19"><a xlink:href="SpatialVector_8h.html" target="_top" xlink:title="iDynTree/Core/SpatialVector.h">
<polygon fill="none" stroke="#000000" points="1132.5,-347.5 1132.5,-366.5 1293.5,-366.5 1293.5,-347.5 1132.5,-347.5"/>
<text text-anchor="middle" x="1213" y="-354.5" font-family="FreeSans.ttf" font-size="10.00" fill="#000000">iDynTree/Core/SpatialVector.h</text>
</a>
</g>
</g>
<!-- Node1&#45;&gt;Node18 -->
<g id="edge21" class="edge">
<title>Node1&#45;&gt;Node18</title>
<path fill="none" stroke="#191970" d="M1173.1011,-403.2977C1180.6113,-394.5831 1190.07,-383.6075 1197.8927,-374.5302"/>
<polygon fill="#191970" stroke="#191970" points="1200.6371,-376.707 1204.514,-366.8469 1195.3345,-372.1372 1200.6371,-376.707"/>
</g>
<!-- Node2&#45;&gt;Node3 -->
<g id="edge3" class="edge">
<title>Node2&#45;&gt;Node3</title>
<path fill="none" stroke="#191970" d="M993.8679,-112.4369C1060.7813,-102.4178 1165.5591,-86.7291 1234.5065,-76.4054"/>
<polygon fill="#191970" stroke="#191970" points="1235.0389,-79.8648 1244.4103,-74.9225 1234.0023,-72.942 1235.0389,-79.8648"/>
</g>
<!-- Node5 -->
<g id="node6" class="node">
<title>Node5</title>
<g id="a_node6"><a xlink:href="Span_8h.html" target="_top" xlink:title="iDynTree/Core/Span.h">
<polygon fill="none" stroke="#000000" points="971.5,-56.5 971.5,-75.5 1092.5,-75.5 1092.5,-56.5 971.5,-56.5"/>
<text text-anchor="middle" x="1032" y="-63.5" font-family="FreeSans.ttf" font-size="10.00" fill="#000000">iDynTree/Core/Span.h</text>
</a>
</g>
</g>
<!-- Node2&#45;&gt;Node5 -->
<g id="edge5" class="edge">
<title>Node2&#45;&gt;Node5</title>
<path fill="none" stroke="#191970" d="M947.767,-112.2455C963.7095,-103.4928 987.3259,-90.527 1005.4989,-80.5496"/>
<polygon fill="#191970" stroke="#191970" points="1007.3552,-83.5233 1014.4366,-75.6427 1003.9863,-77.3873 1007.3552,-83.5233"/>
</g>
<!-- Node2&#45;&gt;Node6 -->
<g id="edge17" class="edge">
<title>Node2&#45;&gt;Node6</title>
<path fill="none" stroke="#191970" d="M932.3582,-112.1023C935.1193,-97.8345 937.7314,-71.5034 924,-56 923.2557,-55.1596 806.8909,-30.4712 746.089,-17.6179"/>
<polygon fill="#191970" stroke="#191970" points="746.6352,-14.1561 736.1276,-15.5129 745.1879,-21.0048 746.6352,-14.1561"/>
</g>
<!-- Node14 -->
<g id="node15" class="node">
<title>Node14</title>
<polygon fill="none" stroke="#bfbfbf" points="359,-56.5 359,-75.5 403,-75.5 403,-56.5 359,-56.5"/>
<text text-anchor="middle" x="381" y="-63.5" font-family="FreeSans.ttf" font-size="10.00" fill="#000000">string</text>
</g>
<!-- Node2&#45;&gt;Node14 -->
<g id="edge15" class="edge">
<title>Node2&#45;&gt;Node14</title>
<path fill="none" stroke="#191970" d="M849.2882,-113.7671C726.2399,-101.2157 497.1588,-77.8486 413.0433,-69.2685"/>
<polygon fill="#191970" stroke="#191970" points="413.3693,-65.7837 403.0657,-68.2508 412.6589,-72.7476 413.3693,-65.7837"/>
</g>
<!-- Node15 -->
<g id="node16" class="node">
<title>Node15</title>
<polygon fill="none" stroke="#bfbfbf" points="859,-56.5 859,-75.5 915,-75.5 915,-56.5 859,-56.5"/>
<text text-anchor="middle" x="887" y="-63.5" font-family="FreeSans.ttf" font-size="10.00" fill="#000000">sstream</text>
</g>
<!-- Node2&#45;&gt;Node15 -->
<g id="edge16" class="edge">
<title>Node2&#45;&gt;Node15</title>
<path fill="none" stroke="#191970" d="M922.51,-112.2455C916.4674,-104.3761 907.8097,-93.101 900.5559,-83.6542"/>
<polygon fill="#191970" stroke="#191970" points="903.2705,-81.4426 894.4042,-75.6427 897.7185,-85.7058 903.2705,-81.4426"/>
</g>
<!-- Node16 -->
<g id="node17" class="node">
<title>Node16</title>
<polygon fill="none" stroke="#bfbfbf" points="713,-56.5 713,-75.5 763,-75.5 763,-56.5 713,-56.5"/>
<text text-anchor="middle" x="738" y="-63.5" font-family="FreeSans.ttf" font-size="10.00" fill="#000000">cstring</text>
</g>
<!-- Node2&#45;&gt;Node16 -->
<g id="edge18" class="edge">
<title>Node2&#45;&gt;Node16</title>
<path fill="none" stroke="#191970" d="M897.0073,-112.4231C867.036,-103.7169 821.3475,-90.4294 772.9586,-76.2757"/>
<polygon fill="#191970" stroke="#191970" points="773.8292,-72.8837 763.2487,-73.4345 771.8634,-79.602 773.8292,-72.8837"/>
</g>
<!-- Node4 -->
<g id="node5" class="node">
<title>Node4</title>
<polygon fill="none" stroke="#bfbfbf" points="1277.5,-.5 1277.5,-19.5 1330.5,-19.5 1330.5,-.5 1277.5,-.5"/>
<text text-anchor="middle" x="1304" y="-7.5" font-family="FreeSans.ttf" font-size="10.00" fill="#000000">cstddef</text>
</g>
<!-- Node3&#45;&gt;Node4 -->
<g id="edge4" class="edge">
<title>Node3&#45;&gt;Node4</title>
<path fill="none" stroke="#191970" d="M1304,-56.2455C1304,-48.9382 1304,-38.6944 1304,-29.7046"/>
<polygon fill="#191970" stroke="#191970" points="1307.5001,-29.6426 1304,-19.6427 1300.5001,-29.6427 1307.5001,-29.6426"/>
</g>
<!-- Node5&#45;&gt;Node4 -->
<g id="edge9" class="edge">
<title>Node5&#45;&gt;Node4</title>
<path fill="none" stroke="#191970" d="M1087.5764,-56.4382C1133.3181,-48.28 1200.0389,-35.7216 1267.3853,-20.0029"/>
<polygon fill="#191970" stroke="#191970" points="1268.3932,-23.3614 1277.3238,-17.661 1266.7876,-16.548 1268.3932,-23.3614"/>
</g>
<!-- Node5&#45;&gt;Node6 -->
<g id="edge6" class="edge">
<title>Node5&#45;&gt;Node6</title>
<path fill="none" stroke="#191970" d="M971.4769,-56.5352C915.8762,-47.6751 831.2398,-33.7716 758,-20 754.1113,-19.2688 750.0522,-18.4734 746.0128,-17.6613"/>
<polygon fill="#191970" stroke="#191970" points="746.6196,-14.213 736.1207,-15.635 745.2149,-21.0706 746.6196,-14.213"/>
</g>
<!-- Node7 -->
<g id="node8" class="node">
<title>Node7</title>
<polygon fill="none" stroke="#bfbfbf" points="1135,-.5 1135,-19.5 1199,-19.5 1199,-.5 1135,-.5"/>
<text text-anchor="middle" x="1167" y="-7.5" font-family="FreeSans.ttf" font-size="10.00" fill="#000000">algorithm</text>
</g>
<!-- Node5&#45;&gt;Node7 -->
<g id="edge7" class="edge">
<title>Node5&#45;&gt;Node7</title>
<path fill="none" stroke="#191970" d="M1055.2073,-56.3733C1077.1699,-47.2629 1110.3332,-33.5062 1134.8401,-23.3404"/>
<polygon fill="#191970" stroke="#191970" points="1136.1997,-26.5657 1144.0955,-19.5011 1133.5176,-20.0999 1136.1997,-26.5657"/>
</g>
<!-- Node8 -->
<g id="node9" class="node">
<title>Node8</title>
<polygon fill="none" stroke="#bfbfbf" points="1217,-.5 1217,-19.5 1259,-19.5 1259,-.5 1217,-.5"/>
<text text-anchor="middle" x="1238" y="-7.5" font-family="FreeSans.ttf" font-size="10.00" fill="#000000">array</text>
</g>
<!-- Node5&#45;&gt;Node8 -->
<g id="edge8" class="edge">
<title>Node5&#45;&gt;Node8</title>
<path fill="none" stroke="#191970" d="M1071.7008,-56.42C1105.4104,-48.1081 1155.2601,-35.4008 1207.0586,-20.1526"/>
<polygon fill="#191970" stroke="#191970" points="1208.1589,-23.477 1216.7497,-17.2763 1206.1672,-16.7663 1208.1589,-23.477"/>
</g>
<!-- Node9 -->
<g id="node10" class="node">
<title>Node9</title>
<polygon fill="none" stroke="#bfbfbf" points="767.5,-.5 767.5,-19.5 820.5,-19.5 820.5,-.5 767.5,-.5"/>
<text text-anchor="middle" x="794" y="-7.5" font-family="FreeSans.ttf" font-size="10.00" fill="#000000">iterator</text>
</g>
<!-- Node5&#45;&gt;Node9 -->
<g id="edge10" class="edge">
<title>Node5&#45;&gt;Node9</title>
<path fill="none" stroke="#191970" d="M987.3255,-56.4587C948.4611,-48.0165 890.401,-35.0654 830.6848,-20.0869"/>
<polygon fill="#191970" stroke="#191970" points="831.2516,-16.6203 820.6992,-17.567 829.5387,-23.4075 831.2516,-16.6203"/>
</g>
<!-- Node10 -->
<g id="node11" class="node">
<title>Node10</title>
<polygon fill="none" stroke="#bfbfbf" points="839,-.5 839,-19.5 883,-19.5 883,-.5 839,-.5"/>
<text text-anchor="middle" x="861" y="-7.5" font-family="FreeSans.ttf" font-size="10.00" fill="#000000">limits</text>
</g>
<!-- Node5&#45;&gt;Node10 -->
<g id="edge11" class="edge">
<title>Node5&#45;&gt;Node10</title>
<path fill="none" stroke="#191970" d="M1002.6041,-56.3733C972.0152,-46.3559 924.2732,-30.721 892.8152,-20.419"/>
<polygon fill="#191970" stroke="#191970" points="893.8089,-17.0616 883.2162,-17.2755 891.6303,-23.7139 893.8089,-17.0616"/>
</g>
<!-- Node11 -->
<g id="node12" class="node">
<title>Node11</title>
<polygon fill="none" stroke="#bfbfbf" points="901.5,-.5 901.5,-19.5 966.5,-19.5 966.5,-.5 901.5,-.5"/>
<text text-anchor="middle" x="934" y="-7.5" font-family="FreeSans.ttf" font-size="10.00" fill="#000000">stdexcept</text>
</g>
<!-- Node5&#45;&gt;Node11 -->
<g id="edge12" class="edge">
<title>Node5&#45;&gt;Node11</title>
<path fill="none" stroke="#191970" d="M1014.9297,-56.2455C999.753,-47.5731 977.3379,-34.7645 959.9437,-24.825"/>
<polygon fill="#191970" stroke="#191970" points="961.2936,-21.5653 950.8747,-19.6427 957.8206,-27.643 961.2936,-21.5653"/>
</g>
<!-- Node12 -->
<g id="node13" class="node">
<title>Node12</title>
<polygon fill="none" stroke="#bfbfbf" points="984.5,-.5 984.5,-19.5 1053.5,-19.5 1053.5,-.5 984.5,-.5"/>
<text text-anchor="middle" x="1019" y="-7.5" font-family="FreeSans.ttf" font-size="10.00" fill="#000000">type_traits</text>
</g>
<!-- Node5&#45;&gt;Node12 -->
<g id="edge13" class="edge">
<title>Node5&#45;&gt;Node12</title>
<path fill="none" stroke="#191970" d="M1029.7356,-56.2455C1028.0206,-48.8579 1025.6088,-38.4689 1023.5056,-29.4087"/>
<polygon fill="#191970" stroke="#191970" points="1026.9092,-28.5922 1021.2385,-19.6427 1020.0905,-30.1751 1026.9092,-28.5922"/>
</g>
<!-- Node13 -->
<g id="node14" class="node">
<title>Node13</title>
<polygon fill="none" stroke="#bfbfbf" points="1071.5,-.5 1071.5,-19.5 1116.5,-19.5 1116.5,-.5 1071.5,-.5"/>
<text text-anchor="middle" x="1094" y="-7.5" font-family="FreeSans.ttf" font-size="10.00" fill="#000000">utility</text>
</g>
<!-- Node5&#45;&gt;Node13 -->
<g id="edge14" class="edge">
<title>Node5&#45;&gt;Node13</title>
<path fill="none" stroke="#191970" d="M1042.7996,-56.2455C1051.8678,-48.0549 1065.0206,-36.1749 1075.7245,-26.5069"/>
<polygon fill="#191970" stroke="#191970" points="1078.2491,-28.9429 1083.3242,-19.6427 1073.5571,-23.7482 1078.2491,-28.9429"/>
</g>
<!-- Node17&#45;&gt;Node2 -->
<g id="edge20" class="edge">
<title>Node17&#45;&gt;Node2</title>
<path fill="none" stroke="#191970" d="M1075.125,-173.8906C1045.8414,-163.42 998.831,-146.6111 966.2863,-134.9745"/>
<polygon fill="#191970" stroke="#191970" points="967.2809,-131.6131 956.6863,-131.5419 964.9241,-138.2045 967.2809,-131.6131"/>
</g>
<!-- Node18&#45;&gt;Node3 -->
<g id="edge41" class="edge">
<title>Node18&#45;&gt;Node3</title>
<path fill="none" stroke="#191970" d="M1228.539,-347.2846C1240.2478,-339.0954 1255.6635,-326.2827 1264,-311 1305.1114,-235.633 1306.4624,-129.2143 1305.038,-85.7007"/>
<polygon fill="#191970" stroke="#191970" points="1308.5308,-85.4544 1304.616,-75.6094 1301.5369,-85.747 1308.5308,-85.4544"/>
</g>
<!-- Node18&#45;&gt;Node15 -->
<g id="edge44" class="edge">
<title>Node18&#45;&gt;Node15</title>
<path fill="none" stroke="#191970" d="M1218.4595,-347.4646C1228.7516,-328.5623 1250,-284.7274 1250,-245 1250,-245 1250,-245 1250,-183.5 1250,-149.9798 1251.8329,-133.3604 1226,-112 1225.2767,-111.4019 1014.0484,-83.0298 925.426,-71.1481"/>
<polygon fill="#191970" stroke="#191970" points="925.6249,-67.6435 915.2485,-69.7838 924.6948,-74.5815 925.6249,-67.6435"/>
</g>
<!-- Node18&#45;&gt;Node17 -->
<g id="edge42" class="edge">
<title>Node18&#45;&gt;Node17</title>
<path fill="none" stroke="#191970" d="M1206.874,-347.4248C1189.101,-319.6443 1137.2982,-238.6733 1113.8161,-201.9693"/>
<polygon fill="#191970" stroke="#191970" points="1116.5813,-199.7969 1108.2438,-193.2595 1110.6848,-203.5694 1116.5813,-199.7969"/>
</g>
<!-- Node19 -->
<g id="node20" class="node">
<title>Node19</title>
<g id="a_node20"><a xlink:href="Position_8h.html" target="_top" xlink:title="Position.h">
<polygon fill="none" stroke="#000000" points="547.5,-291.5 547.5,-310.5 612.5,-310.5 612.5,-291.5 547.5,-291.5"/>
<text text-anchor="middle" x="580" y="-298.5" font-family="FreeSans.ttf" font-size="10.00" fill="#000000">Position.h</text>
</a>
</g>
</g>
<!-- Node18&#45;&gt;Node19 -->
<g id="edge22" class="edge">
<title>Node18&#45;&gt;Node19</title>
<path fill="none" stroke="#191970" d="M1132.1872,-349.8507C996.5274,-337.8492 727.5925,-314.0572 623.0129,-304.8052"/>
<polygon fill="#191970" stroke="#191970" points="623.1012,-301.2995 612.8316,-303.9045 622.4842,-308.2722 623.1012,-301.2995"/>
</g>
<!-- Node21 -->
<g id="node22" class="node">
<title>Node21</title>
<g id="a_node22"><a xlink:href="Rotation_8h.html" target="_top" xlink:title="iDynTree/Core/Rotation.h">
<polygon fill="none" stroke="#000000" points="572.5,-235.5 572.5,-254.5 709.5,-254.5 709.5,-235.5 572.5,-235.5"/>
<text text-anchor="middle" x="641" y="-242.5" font-family="FreeSans.ttf" font-size="10.00" fill="#000000">iDynTree/Core/Rotation.h</text>
</a>
</g>
</g>
<!-- Node18&#45;&gt;Node21 -->
<g id="edge40" class="edge">
<title>Node18&#45;&gt;Node21</title>
<path fill="none" stroke="#191970" d="M1164.2316,-347.4509C1059.3308,-326.9109 812.6184,-278.6036 699.5132,-256.4571"/>
<polygon fill="#191970" stroke="#191970" points="700.1312,-253.0117 689.645,-254.5249 698.786,-259.8813 700.1312,-253.0117"/>
</g>
<!-- Node24 -->
<g id="node25" class="node">
<title>Node24</title>
<polygon fill="none" stroke="#bfbfbf" points="781,-56.5 781,-75.5 841,-75.5 841,-56.5 781,-56.5"/>
<text text-anchor="middle" x="811" y="-63.5" font-family="FreeSans.ttf" font-size="10.00" fill="#000000">iostream</text>
</g>
<!-- Node18&#45;&gt;Node24 -->
<g id="edge43" class="edge">
<title>Node18&#45;&gt;Node24</title>
<path fill="none" stroke="#191970" d="M1212.8567,-347.4119C1212.5802,-328.0545 1212,-282.9182 1212,-245 1212,-245 1212,-245 1212,-183.5 1212,-18.8629 1020.8885,-110.6732 851.0679,-76.0379"/>
<polygon fill="#191970" stroke="#191970" points="851.7211,-72.5981 841.2035,-73.8751 850.2218,-79.4357 851.7211,-72.5981"/>
</g>
<!-- Node19&#45;&gt;Node14 -->
<g id="edge39" class="edge">
<title>Node19&#45;&gt;Node14</title>
<path fill="none" stroke="#191970" d="M547.3888,-294.3075C478.7568,-279.4917 323.2278,-241.8231 293,-199 263.5617,-157.2953 322.1736,-106.675 357.2755,-81.6139"/>
<polygon fill="#191970" stroke="#191970" points="359.4089,-84.3936 365.6253,-75.8141 355.4155,-78.6444 359.4089,-84.3936"/>
</g>
<!-- Node20 -->
<g id="node21" class="node">
<title>Node20</title>
<g id="a_node21"><a xlink:href="PositionRaw_8h.html" target="_top" xlink:title="iDynTree/Core/PositionRaw.h">
<polygon fill="none" stroke="#000000" points="516,-174 516,-193 672,-193 672,-174 516,-174"/>
<text text-anchor="middle" x="594" y="-181" font-family="FreeSans.ttf" font-size="10.00" fill="#000000">iDynTree/Core/PositionRaw.h</text>
</a>
</g>
</g>
<!-- Node19&#45;&gt;Node20 -->
<g id="edge23" class="edge">
<title>Node19&#45;&gt;Node20</title>
<path fill="none" stroke="#191970" d="M574.1888,-291.1292C567.3238,-278.1986 557.4902,-254.8373 563,-235 566.3863,-222.8081 573.5191,-210.6123 580.0897,-201.1512"/>
<polygon fill="#191970" stroke="#191970" points="582.9733,-203.1379 586.0766,-193.0077 577.3334,-198.9916 582.9733,-203.1379"/>
</g>
<!-- Node19&#45;&gt;Node21 -->
<g id="edge26" class="edge">
<title>Node19&#45;&gt;Node21</title>
<path fill="none" stroke="#191970" d="M590.6254,-291.2455C599.5473,-283.0549 612.488,-271.1749 623.0192,-261.5069"/>
<polygon fill="#191970" stroke="#191970" points="625.4968,-263.9837 630.4964,-254.6427 620.7629,-258.8271 625.4968,-263.9837"/>
</g>
<!-- Node20&#45;&gt;Node2 -->
<g id="edge24" class="edge">
<title>Node20&#45;&gt;Node2</title>
<path fill="none" stroke="#191970" d="M646.1313,-173.9581C706.0579,-162.9894 804.3347,-145.0012 868.0969,-133.3305"/>
<polygon fill="#191970" stroke="#191970" points="868.8164,-136.757 878.0228,-131.5137 867.5561,-129.8714 868.8164,-136.757"/>
</g>
<!-- Node20&#45;&gt;Node14 -->
<g id="edge25" class="edge">
<title>Node20&#45;&gt;Node14</title>
<path fill="none" stroke="#191970" d="M583.6962,-173.7979C567.4172,-158.8795 534.2718,-130.1355 502,-112 473.4154,-95.9366 438.1112,-83.2418 413.0309,-75.2934"/>
<polygon fill="#191970" stroke="#191970" points="413.8786,-71.8921 403.291,-72.282 411.8109,-78.5797 413.8786,-71.8921"/>
</g>
<!-- Node21&#45;&gt;Node2 -->
<g id="edge38" class="edge">
<title>Node21&#45;&gt;Node2</title>
<path fill="none" stroke="#191970" d="M652.7553,-235.2774C672.8849,-219.0872 715.7816,-186.5529 757,-168 791.672,-152.3937 832.7162,-141.198 866.1231,-133.7615"/>
<polygon fill="#191970" stroke="#191970" points="867.197,-137.1102 876.2301,-131.5736 865.7159,-130.2687 867.197,-137.1102"/>
</g>
<!-- Node21&#45;&gt;Node14 -->
<g id="edge27" class="edge">
<title>Node21&#45;&gt;Node14</title>
<path fill="none" stroke="#191970" d="M596.3599,-235.4394C569.0802,-228.2439 534.3071,-216.5627 507,-199 481.215,-182.4162 422.8161,-115.3919 395.5424,-83.2963"/>
<polygon fill="#191970" stroke="#191970" points="398.153,-80.963 389.0219,-75.5896 392.8091,-85.4844 398.153,-80.963"/>
</g>
<!-- Node21&#45;&gt;Node17 -->
<g id="edge28" class="edge">
<title>Node21&#45;&gt;Node17</title>
<path fill="none" stroke="#191970" d="M709.5186,-235.8592C792.4783,-224.7919 932.0435,-206.1732 1020.459,-194.378"/>
<polygon fill="#191970" stroke="#191970" points="1020.9981,-197.8372 1030.4474,-193.0455 1020.0724,-190.8987 1020.9981,-197.8372"/>
</g>
<!-- Node22 -->
<g id="node23" class="node">
<title>Node22</title>
<g id="a_node23"><a xlink:href="RotationRaw_8h.html" target="_top" xlink:title="iDynTree/Core/RotationRaw.h">
<polygon fill="none" stroke="#000000" points="302,-174 302,-193 460,-193 460,-174 302,-174"/>
<text text-anchor="middle" x="381" y="-181" font-family="FreeSans.ttf" font-size="10.00" fill="#000000">iDynTree/Core/RotationRaw.h</text>
</a>
</g>
</g>
<!-- Node21&#45;&gt;Node22 -->
<g id="edge29" class="edge">
<title>Node21&#45;&gt;Node22</title>
<path fill="none" stroke="#191970" d="M600.6603,-235.4581C555.0232,-224.6632 480.643,-207.0694 431.266,-195.3899"/>
<polygon fill="#191970" stroke="#191970" points="431.9715,-191.9602 421.4344,-193.0643 430.3602,-198.7722 431.9715,-191.9602"/>
</g>
<!-- Node22&#45;&gt;Node14 -->
<g id="edge37" class="edge">
<title>Node22&#45;&gt;Node14</title>
<path fill="none" stroke="#191970" d="M381,-173.8845C381,-154.6913 381,-111.286 381,-85.7663"/>
<polygon fill="#191970" stroke="#191970" points="384.5001,-85.7483 381,-75.7484 377.5001,-85.7484 384.5001,-85.7483"/>
</g>
<!-- Node23 -->
<g id="node24" class="node">
<title>Node23</title>
<g id="a_node24"><a xlink:href="MatrixFixSize_8h.html" target="_top" xlink:title="iDynTree/Core/MatrixFixSize.h">
<polygon fill="none" stroke="#000000" points="657.5,-112.5 657.5,-131.5 818.5,-131.5 818.5,-112.5 657.5,-112.5"/>
<text text-anchor="middle" x="738" y="-119.5" font-family="FreeSans.ttf" font-size="10.00" fill="#000000">iDynTree/Core/MatrixFixSize.h</text>
</a>
</g>
</g>
<!-- Node22&#45;&gt;Node23 -->
<g id="edge30" class="edge">
<title>Node22&#45;&gt;Node23</title>
<path fill="none" stroke="#191970" d="M436.3895,-173.9581C500.1925,-162.9668 604.9105,-144.9272 672.6457,-133.2585"/>
<polygon fill="#191970" stroke="#191970" points="673.5136,-136.6606 682.7742,-131.5137 672.3252,-129.7622 673.5136,-136.6606"/>
</g>
<!-- Node23&#45;&gt;Node3 -->
<g id="edge31" class="edge">
<title>Node23&#45;&gt;Node3</title>
<path fill="none" stroke="#191970" d="M818.7932,-114.0063C930.0842,-102.9952 1128.7074,-83.3434 1233.9987,-72.9259"/>
<polygon fill="#191970" stroke="#191970" points="1234.5933,-76.3843 1244.2001,-71.9166 1233.9041,-69.4183 1234.5933,-76.3843"/>
</g>
<!-- Node23&#45;&gt;Node6 -->
<g id="edge32" class="edge">
<title>Node23&#45;&gt;Node6</title>
<path fill="none" stroke="#191970" d="M728.0638,-112.4913C719.824,-103.8654 708.7233,-90.3368 704,-76 699.0497,-60.9743 701.148,-43.0493 704.1513,-29.6743"/>
<polygon fill="#191970" stroke="#191970" points="707.6226,-30.232 706.752,-19.673 700.8479,-28.4702 707.6226,-30.232"/>
</g>
<!-- Node23&#45;&gt;Node14 -->
<g id="edge34" class="edge">
<title>Node23&#45;&gt;Node14</title>
<path fill="none" stroke="#191970" d="M677.0351,-112.4369C600.5731,-100.4428 472.3143,-80.3238 412.9413,-71.0104"/>
<polygon fill="#191970" stroke="#191970" points="413.4396,-67.5458 403.0179,-69.4538 412.3547,-74.4613 413.4396,-67.5458"/>
</g>
<!-- Node23&#45;&gt;Node15 -->
<g id="edge36" class="edge">
<title>Node23&#45;&gt;Node15</title>
<path fill="none" stroke="#191970" d="M763.614,-112.3733C788.0687,-103.1822 825.1054,-89.2624 852.2209,-79.0713"/>
<polygon fill="#191970" stroke="#191970" points="853.5909,-82.2956 861.7202,-75.5011 851.1281,-75.7431 853.5909,-82.2956"/>
</g>
<!-- Node23&#45;&gt;Node16 -->
<g id="edge33" class="edge">
<title>Node23&#45;&gt;Node16</title>
<path fill="none" stroke="#191970" d="M738,-112.2455C738,-104.9382 738,-94.6944 738,-85.7046"/>
<polygon fill="#191970" stroke="#191970" points="741.5001,-85.6426 738,-75.6427 734.5001,-85.6427 741.5001,-85.6426"/>
</g>
<!-- Node23&#45;&gt;Node24 -->
<g id="edge35" class="edge">
<title>Node23&#45;&gt;Node24</title>
<path fill="none" stroke="#191970" d="M750.7156,-112.2455C761.602,-103.8943 777.4883,-91.7076 790.22,-81.9408"/>
<polygon fill="#191970" stroke="#191970" points="792.6261,-84.5063 798.4301,-75.6427 788.3654,-78.9523 792.6261,-84.5063"/>
</g>
<!-- Node25&#45;&gt;Node2 -->
<g id="edge46" class="edge">
<title>Node25&#45;&gt;Node2</title>
<path fill="none" stroke="#191970" d="M875.1563,-173.8906C885.0199,-164.5581 900.2055,-150.1902 912.0987,-138.9374"/>
<polygon fill="#191970" stroke="#191970" points="914.8421,-141.1601 919.7006,-131.7449 910.0311,-136.0753 914.8421,-141.1601"/>
</g>
<!-- Node25&#45;&gt;Node23 -->
<g id="edge47" class="edge">
<title>Node25&#45;&gt;Node23</title>
<path fill="none" stroke="#191970" d="M845.1563,-173.8906C824.1864,-163.7359 790.9056,-147.6196 766.9964,-136.0416"/>
<polygon fill="#191970" stroke="#191970" points="768.2301,-132.7502 757.7044,-131.5419 765.1792,-139.0504 768.2301,-132.7502"/>
</g>
<!-- Node27 -->
<g id="node28" class="node">
<title>Node27</title>
<g id="a_node28"><a xlink:href="Transform_8h.html" target="_top" xlink:title="iDynTree/Core/Transform.h">
<polygon fill="none" stroke="#000000" points="516,-347.5 516,-366.5 662,-366.5 662,-347.5 516,-347.5"/>
<text text-anchor="middle" x="589" y="-354.5" font-family="FreeSans.ttf" font-size="10.00" fill="#000000">iDynTree/Core/Transform.h</text>
</a>
</g>
</g>
<!-- Node26&#45;&gt;Node27 -->
<g id="edge50" class="edge">
<title>Node26&#45;&gt;Node27</title>
<path fill="none" stroke="#191970" d="M309.3556,-408.9581C368.2689,-398.012 464.8065,-380.0752 527.6299,-368.4026"/>
<polygon fill="#191970" stroke="#191970" points="528.6039,-371.7816 537.7963,-366.5137 527.3252,-364.8994 528.6039,-371.7816"/>
</g>
<!-- Node28 -->
<g id="node29" class="node">
<title>Node28</title>
<g id="a_node29"><a xlink:href="Indices_8h.html" target="_top" xlink:title="iDynTree/Model/Indices.h">
<polygon fill="none" stroke="#000000" points="28,-291.5 28,-310.5 166,-310.5 166,-291.5 28,-291.5"/>
<text text-anchor="middle" x="97" y="-298.5" font-family="FreeSans.ttf" font-size="10.00" fill="#000000">iDynTree/Model/Indices.h</text>
</a>
</g>
</g>
<!-- Node26&#45;&gt;Node28 -->
<g id="edge55" class="edge">
<title>Node26&#45;&gt;Node28</title>
<path fill="none" stroke="#191970" d="M247.8499,-408.8846C232.4995,-394.574 202.1745,-367.1927 174,-347 157.9633,-335.5065 138.939,-324.1219 123.8126,-315.5539"/>
<polygon fill="#191970" stroke="#191970" points="125.3966,-312.4296 114.9597,-310.6072 121.9821,-318.5404 125.3966,-312.4296"/>
</g>
<!-- Node29 -->
<g id="node30" class="node">
<title>Node29</title>
<g id="a_node30"><a xlink:href="IJoint_8h.html" target="_top" xlink:title="iDynTree/Model/IJoint.h">
<polygon fill="none" stroke="#000000" points="37,-347.5 37,-366.5 165,-366.5 165,-347.5 37,-347.5"/>
<text text-anchor="middle" x="101" y="-354.5" font-family="FreeSans.ttf" font-size="10.00" fill="#000000">iDynTree/Model/IJoint.h</text>
</a>
</g>
</g>
<!-- Node26&#45;&gt;Node29 -->
<g id="edge57" class="edge">
<title>Node26&#45;&gt;Node29</title>
<path fill="none" stroke="#191970" d="M233.4688,-408.8906C206.9693,-398.5103 164.5669,-381.9004 134.893,-370.2766"/>
<polygon fill="#191970" stroke="#191970" points="135.9467,-366.9304 125.359,-366.5419 133.3935,-373.4482 135.9467,-366.9304"/>
</g>
<!-- Node27&#45;&gt;Node14 -->
<g id="edge54" class="edge">
<title>Node27&#45;&gt;Node14</title>
<path fill="none" stroke="#191970" d="M532.5124,-347.4313C414.3312,-326.1404 147.563,-270.9977 95,-199 27.5158,-106.5642 260.8543,-76.4112 348.8005,-68.4555"/>
<polygon fill="#191970" stroke="#191970" points="349.1138,-71.9415 358.7749,-67.5926 348.5104,-64.9676 349.1138,-71.9415"/>
</g>
<!-- Node27&#45;&gt;Node19 -->
<g id="edge51" class="edge">
<title>Node27&#45;&gt;Node19</title>
<path fill="none" stroke="#191970" d="M587.4323,-347.2455C586.2579,-339.9382 584.6116,-329.6944 583.1668,-320.7046"/>
<polygon fill="#191970" stroke="#191970" points="586.5922,-319.9606 581.5497,-310.6427 579.6809,-321.0714 586.5922,-319.9606"/>
</g>
<!-- Node27&#45;&gt;Node21 -->
<g id="edge52" class="edge">
<title>Node27&#45;&gt;Node21</title>
<path fill="none" stroke="#191970" d="M597.082,-347.3331C604.2161,-338.3911 614.4697,-324.4836 621,-311 628.1758,-296.1835 633.413,-278.2431 636.7239,-264.8088"/>
<polygon fill="#191970" stroke="#191970" points="640.2065,-265.2832 639.0523,-254.7514 633.3869,-263.7043 640.2065,-265.2832"/>
</g>
<!-- Node27&#45;&gt;Node23 -->
<g id="edge53" class="edge">
<title>Node27&#45;&gt;Node23</title>
<path fill="none" stroke="#191970" d="M609.0537,-347.3766C638.324,-332.1831 692.0761,-299.7045 718,-255 738.7036,-219.2977 740.3523,-169.4951 739.389,-142.0817"/>
<polygon fill="#191970" stroke="#191970" points="742.87,-141.6186 738.8641,-131.8103 735.8791,-141.9759 742.87,-141.6186"/>
</g>
<!-- Node28&#45;&gt;Node14 -->
<g id="edge56" class="edge">
<title>Node28&#45;&gt;Node14</title>
<path fill="none" stroke="#191970" d="M90.4305,-291.3418C70.5966,-260.8892 15.4643,-165.7275 62,-112 80.6312,-90.4895 271.0926,-74.1179 348.5276,-68.3013"/>
<polygon fill="#191970" stroke="#191970" points="348.9596,-71.779 358.6743,-67.5512 348.4434,-64.7981 348.9596,-71.779"/>
</g>
<!-- Node29&#45;&gt;Node28 -->
<g id="edge58" class="edge">
<title>Node29&#45;&gt;Node28</title>
<path fill="none" stroke="#191970" d="M100.3033,-347.2455C99.7813,-339.9382 99.0496,-329.6944 98.4075,-320.7046"/>
<polygon fill="#191970" stroke="#191970" points="101.8924,-320.3679 97.6888,-310.6427 94.9102,-320.8667 101.8924,-320.3679"/>
</g>
<!-- Node30&#45;&gt;Node27 -->
<g id="edge60" class="edge">
<title>Node30&#45;&gt;Node27</title>
<path fill="none" stroke="#191970" d="M633.1402,-526.3442C628.6887,-517.1811 622.1753,-502.9274 618,-490 605.2823,-450.6242 596.3954,-402.8954 592.0482,-376.6587"/>
<polygon fill="#191970" stroke="#191970" points="595.4613,-375.8377 590.4189,-366.5198 588.55,-376.9484 595.4613,-375.8377"/>
</g>
<!-- Node30&#45;&gt;Node28 -->
<g id="edge73" class="edge">
<title>Node30&#45;&gt;Node28</title>
<path fill="none" stroke="#191970" d="M617.2736,-526.4483C569.1312,-504.3144 445.9266,-447.9718 342,-403 266.5997,-370.3723 177.3703,-333.7098 130.1597,-314.4637"/>
<polygon fill="#191970" stroke="#191970" points="131.325,-311.1592 120.7434,-310.6288 128.6847,-317.6422 131.325,-311.1592"/>
</g>
<!-- Node31 -->
<g id="node32" class="node">
<title>Node31</title>
<g id="a_node32"><a xlink:href="Twist_8h.html" target="_top" xlink:title="iDynTree/Core/Twist.h">
<polygon fill="none" stroke="#000000" points="1010,-470.5 1010,-489.5 1132,-489.5 1132,-470.5 1010,-470.5"/>
<text text-anchor="middle" x="1071" y="-477.5" font-family="FreeSans.ttf" font-size="10.00" fill="#000000">iDynTree/Core/Twist.h</text>
</a>
</g>
</g>
<!-- Node30&#45;&gt;Node31 -->
<g id="edge61" class="edge">
<title>Node30&#45;&gt;Node31</title>
<path fill="none" stroke="#191970" d="M712.7809,-526.8748C783.911,-518.1149 894.2156,-504.3229 999.7299,-490.1552"/>
<polygon fill="#191970" stroke="#191970" points="1000.4808,-493.5858 1009.9245,-488.7832 999.547,-486.6484 1000.4808,-493.5858"/>
</g>
<!-- Node32 -->
<g id="node33" class="node">
<title>Node32</title>
<g id="a_node33"><a xlink:href="SpatialAcc_8h.html" target="_top" xlink:title="iDynTree/Core/SpatialAcc.h">
<polygon fill="none" stroke="#000000" points="844,-470.5 844,-489.5 992,-489.5 992,-470.5 844,-470.5"/>
<text text-anchor="middle" x="918" y="-477.5" font-family="FreeSans.ttf" font-size="10.00" fill="#000000">iDynTree/Core/SpatialAcc.h</text>
</a>
</g>
</g>
<!-- Node30&#45;&gt;Node32 -->
<g id="edge63" class="edge">
<title>Node30&#45;&gt;Node32</title>
<path fill="none" stroke="#191970" d="M685.8156,-526.4369C734.1381,-516.7724 808.8372,-501.8326 860.3936,-491.5213"/>
<polygon fill="#191970" stroke="#191970" points="861.2623,-494.9169 870.3816,-489.5237 859.8894,-488.0529 861.2623,-494.9169"/>
</g>
<!-- Node33 -->
<g id="node34" class="node">
<title>Node33</title>
<g id="a_node34"><a xlink:href="Wrench_8h.html" target="_top" xlink:title="iDynTree/Core/Wrench.h">
<polygon fill="none" stroke="#000000" points="692.5,-470.5 692.5,-489.5 825.5,-489.5 825.5,-470.5 692.5,-470.5"/>
<text text-anchor="middle" x="759" y="-477.5" font-family="FreeSans.ttf" font-size="10.00" fill="#000000">iDynTree/Core/Wrench.h</text>
</a>
</g>
</g>
<!-- Node30&#45;&gt;Node33 -->
<g id="edge65" class="edge">
<title>Node30&#45;&gt;Node33</title>
<path fill="none" stroke="#191970" d="M658.8006,-526.3733C678.2243,-517.3838 707.4224,-503.8706 729.2964,-493.7471"/>
<polygon fill="#191970" stroke="#191970" points="730.8656,-496.8776 738.4708,-489.5011 727.9255,-490.5249 730.8656,-496.8776"/>
</g>
<!-- Node35 -->
<g id="node36" class="node">
<title>Node35</title>
<g id="a_node36"><a xlink:href="ArticulatedBodyInertia_8h.html" target="_top" xlink:title="iDynTree/Core/Articulated\lBodyInertia.h">
<polygon fill="none" stroke="#000000" points="104.5,-168.5 104.5,-198.5 245.5,-198.5 245.5,-168.5 104.5,-168.5"/>
<text text-anchor="start" x="112.5" y="-186.5" font-family="FreeSans.ttf" font-size="10.00" fill="#000000">iDynTree/Core/Articulated</text>
<text text-anchor="middle" x="175" y="-175.5" font-family="FreeSans.ttf" font-size="10.00" fill="#000000">BodyInertia.h</text>
</a>
</g>
</g>
<!-- Node30&#45;&gt;Node35 -->
<g id="edge70" class="edge">
<title>Node30&#45;&gt;Node35</title>
<path fill="none" stroke="#191970" d="M625.1335,-526.2042C562.8009,-478.748 291.6149,-272.2835 203.0747,-204.8744"/>
<polygon fill="#191970" stroke="#191970" points="204.9283,-201.8867 194.8517,-198.6138 200.688,-207.4562 204.9283,-201.8867"/>
</g>
<!-- Node36 -->
<g id="node37" class="node">
<title>Node36</title>
<polygon fill="none" stroke="#bfbfbf" points="627.5,-470.5 627.5,-489.5 674.5,-489.5 674.5,-470.5 627.5,-470.5"/>
<text text-anchor="middle" x="651" y="-477.5" font-family="FreeSans.ttf" font-size="10.00" fill="#000000">vector</text>
</g>
<!-- Node30&#45;&gt;Node36 -->
<g id="edge74" class="edge">
<title>Node30&#45;&gt;Node36</title>
<path fill="none" stroke="#191970" d="M640.2644,-526.2455C641.9794,-518.8579 644.3912,-508.4689 646.4944,-499.4087"/>
<polygon fill="#191970" stroke="#191970" points="649.9095,-500.1751 648.7615,-489.6427 643.0908,-498.5922 649.9095,-500.1751"/>
</g>
<!-- Node31&#45;&gt;Node1 -->
<g id="edge62" class="edge">
<title>Node31&#45;&gt;Node1</title>
<path fill="none" stroke="#191970" d="M1084.9063,-470.3906C1096.8398,-462.1444 1114.4626,-449.9669 1129.6377,-439.4807"/>
<polygon fill="#191970" stroke="#191970" points="1131.9909,-442.1089 1138.2282,-433.5446 1128.0115,-436.3501 1131.9909,-442.1089"/>
</g>
<!-- Node32&#45;&gt;Node1 -->
<g id="edge64" class="edge">
<title>Node32&#45;&gt;Node1</title>
<path fill="none" stroke="#191970" d="M955.547,-470.4581C991.5873,-461.2991 1046.8864,-447.2458 1090.8901,-436.0631"/>
<polygon fill="#191970" stroke="#191970" points="1091.8372,-439.4337 1100.667,-433.5784 1090.113,-432.6494 1091.8372,-439.4337"/>
</g>
<!-- Node34 -->
<g id="node35" class="node">
<title>Node34</title>
<g id="a_node35"><a xlink:href="SpatialForceVector_8h.html" target="_top" xlink:title="iDynTree/Core/SpatialForce\lVector.h">
<polygon fill="none" stroke="#000000" points="916,-403.5 916,-433.5 1064,-433.5 1064,-403.5 916,-403.5"/>
<text text-anchor="start" x="924" y="-421.5" font-family="FreeSans.ttf" font-size="10.00" fill="#000000">iDynTree/Core/SpatialForce</text>
<text text-anchor="middle" x="990" y="-410.5" font-family="FreeSans.ttf" font-size="10.00" fill="#000000">Vector.h</text>
</a>
</g>
</g>
<!-- Node33&#45;&gt;Node34 -->
<g id="edge66" class="edge">
<title>Node33&#45;&gt;Node34</title>
<path fill="none" stroke="#191970" d="M794.8403,-470.4581C829.0978,-461.3376 881.5847,-447.3638 923.5014,-436.2042"/>
<polygon fill="#191970" stroke="#191970" points="924.6011,-439.5334 933.364,-433.5784 922.8001,-432.769 924.6011,-439.5334"/>
</g>
<!-- Node34&#45;&gt;Node2 -->
<g id="edge67" class="edge">
<title>Node34&#45;&gt;Node2</title>
<path fill="none" stroke="#191970" d="M992.2284,-403.3035C997.4588,-362.9833 1007.5471,-250.7234 972,-168 967.2115,-156.8565 958.5573,-146.6479 950.3437,-138.6939"/>
<polygon fill="#191970" stroke="#191970" points="952.503,-135.9272 942.7443,-131.8018 947.8004,-141.1124 952.503,-135.9272"/>
</g>
<!-- Node34&#45;&gt;Node17 -->
<g id="edge68" class="edge">
<title>Node34&#45;&gt;Node17</title>
<path fill="none" stroke="#191970" d="M997.1765,-403.4422C1016.7951,-362.2781 1071.2991,-247.9171 1092.9577,-202.4726"/>
<polygon fill="#191970" stroke="#191970" points="1096.2463,-203.7076 1097.3891,-193.1746 1089.9272,-200.696 1096.2463,-203.7076"/>
</g>
<!-- Node34&#45;&gt;Node18 -->
<g id="edge69" class="edge">
<title>Node34&#45;&gt;Node18</title>
<path fill="none" stroke="#191970" d="M1044.5519,-403.4554C1082.7392,-392.9239 1133.1088,-379.0328 1168.7906,-369.1923"/>
<polygon fill="#191970" stroke="#191970" points="1169.7333,-372.563 1178.4429,-366.5303 1167.8723,-365.8149 1169.7333,-372.563"/>
</g>
<!-- Node35&#45;&gt;Node14 -->
<g id="edge72" class="edge">
<title>Node35&#45;&gt;Node14</title>
<path fill="none" stroke="#191970" d="M189.7738,-168.353C205.851,-152.558 232.9011,-127.9258 260,-112 288.2685,-95.3868 323.617,-82.7689 348.7937,-74.9883"/>
<polygon fill="#191970" stroke="#191970" points="350.0053,-78.2789 358.5757,-72.05 347.9915,-71.5748 350.0053,-78.2789"/>
</g>
<!-- Node35&#45;&gt;Node23 -->
<g id="edge71" class="edge">
<title>Node35&#45;&gt;Node23</title>
<path fill="none" stroke="#191970" d="M245.7817,-173.8793C261.3281,-171.8565 277.7116,-169.7939 293,-168 415.371,-153.6409 556.9595,-139.4139 646.9587,-130.6692"/>
<polygon fill="#191970" stroke="#191970" points="647.5148,-134.1318 657.1303,-129.6829 646.8392,-127.1644 647.5148,-134.1318"/>
</g>
</g>
</svg>
