<?xml version="1.0" encoding="UTF-8" standalone="no"?>
<!DOCTYPE svg PUBLIC "-//W3C//DTD SVG 1.1//EN"
 "http://www.w3.org/Graphics/SVG/1.1/DTD/svg11.dtd">
<!-- Generated by graphviz version 2.40.1 (20161225.0304)
 -->
<!-- Title: FreeFloatingState.h Pages: 1 -->
<svg width="1513pt" height="610pt"
 viewBox="0.00 0.00 1513.00 610.00" xmlns="http://www.w3.org/2000/svg" xmlns:xlink="http://www.w3.org/1999/xlink">
<g id="graph0" class="graph" transform="scale(1 1) rotate(0) translate(4 606)">
<title>FreeFloatingState.h</title>
<!-- Node0 -->
<g id="node1" class="node">
<title>Node0</title>
<polygon fill="#bfbfbf" stroke="#000000" points="704,-582.5 704,-601.5 814,-601.5 814,-582.5 704,-582.5"/>
<text text-anchor="middle" x="759" y="-589.5" font-family="FreeSans.ttf" font-size="10.00" fill="#000000">FreeFloatingState.h</text>
</g>
<!-- Node1 -->
<g id="node2" class="node">
<title>Node1</title>
<g id="a_node2"><a xlink:href="Transform_8h.html" target="_top" xlink:title="iDynTree/Core/Transform.h">
<polygon fill="none" stroke="#000000" points="418,-347.5 418,-366.5 564,-366.5 564,-347.5 418,-347.5"/>
<text text-anchor="middle" x="491" y="-354.5" font-family="FreeSans.ttf" font-size="10.00" fill="#000000">iDynTree/Core/Transform.h</text>
</a>
</g>
</g>
<!-- Node0&#45;&gt;Node1 -->
<g id="edge1" class="edge">
<title>Node0&#45;&gt;Node1</title>
<path fill="none" stroke="#191970" d="M703.8469,-584.4966C650.2323,-576.4087 573.2994,-562.4576 548,-546 500.8384,-515.3207 497.7135,-489.5833 489,-434 485.9669,-414.6518 487.0587,-392.2407 488.5485,-376.6034"/>
<polygon fill="#191970" stroke="#191970" points="492.0394,-376.8768 489.6504,-366.5549 485.0812,-376.1137 492.0394,-376.8768"/>
</g>
<!-- Node24 -->
<g id="node25" class="node">
<title>Node24</title>
<g id="a_node25"><a xlink:href="Twist_8h.html" target="_top" xlink:title="iDynTree/Core/Twist.h">
<polygon fill="none" stroke="#000000" points="698,-470.5 698,-489.5 820,-489.5 820,-470.5 698,-470.5"/>
<text text-anchor="middle" x="759" y="-477.5" font-family="FreeSans.ttf" font-size="10.00" fill="#000000">iDynTree/Core/Twist.h</text>
</a>
</g>
</g>
<!-- Node0&#45;&gt;Node24 -->
<g id="edge40" class="edge">
<title>Node0&#45;&gt;Node24</title>
<path fill="none" stroke="#191970" d="M759,-582.4509C759,-564.184 759,-523.9553 759,-499.6976"/>
<polygon fill="#191970" stroke="#191970" points="762.5001,-499.5249 759,-489.5249 755.5001,-499.5249 762.5001,-499.5249"/>
</g>
<!-- Node27 -->
<g id="node28" class="node">
<title>Node27</title>
<g id="a_node28"><a xlink:href="VectorDynSize_8h.html" target="_top" xlink:title="iDynTree/Core/VectorDynSize.h">
<polygon fill="none" stroke="#000000" points="1143.5,-291.5 1143.5,-310.5 1310.5,-310.5 1310.5,-291.5 1143.5,-291.5"/>
<text text-anchor="middle" x="1227" y="-298.5" font-family="FreeSans.ttf" font-size="10.00" fill="#000000">iDynTree/Core/VectorDynSize.h</text>
</a>
</g>
</g>
<!-- Node0&#45;&gt;Node27 -->
<g id="edge51" class="edge">
<title>Node0&#45;&gt;Node27</title>
<path fill="none" stroke="#191970" d="M814.0809,-589.8613C907.3273,-585.5265 1091.8204,-573.6598 1150,-546 1188.037,-527.9164 1218,-522.1168 1218,-480 1218,-480 1218,-480 1218,-418.5 1218,-384.0393 1221.8962,-344.0591 1224.5615,-320.741"/>
<polygon fill="#191970" stroke="#191970" points="1228.0467,-321.0722 1225.7486,-310.7296 1221.0954,-320.2479 1228.0467,-321.0722"/>
</g>
<!-- Node28 -->
<g id="node29" class="node">
<title>Node28</title>
<g id="a_node29"><a xlink:href="Indices_8h.html" target="_top" xlink:title="iDynTree/Model/Indices.h">
<polygon fill="none" stroke="#000000" points="0,-470.5 0,-489.5 138,-489.5 138,-470.5 0,-470.5"/>
<text text-anchor="middle" x="69" y="-477.5" font-family="FreeSans.ttf" font-size="10.00" fill="#000000">iDynTree/Model/Indices.h</text>
</a>
</g>
</g>
<!-- Node0&#45;&gt;Node28 -->
<g id="edge54" class="edge">
<title>Node0&#45;&gt;Node28</title>
<path fill="none" stroke="#191970" d="M703.7624,-584.0954C642.2591,-575.2075 539.926,-560.1614 452,-546 339.1585,-527.8257 207.9568,-504.8055 132.0996,-491.3099"/>
<polygon fill="#191970" stroke="#191970" points="132.6823,-487.8587 122.2235,-489.5511 131.4549,-494.7503 132.6823,-487.8587"/>
</g>
<!-- Node29 -->
<g id="node30" class="node">
<title>Node29</title>
<g id="a_node30"><a xlink:href="LinkState_8h.html" target="_top" xlink:title="iDynTree/Model/LinkState.h">
<polygon fill="none" stroke="#000000" points="556.5,-526.5 556.5,-545.5 705.5,-545.5 705.5,-526.5 556.5,-526.5"/>
<text text-anchor="middle" x="631" y="-533.5" font-family="FreeSans.ttf" font-size="10.00" fill="#000000">iDynTree/Model/LinkState.h</text>
</a>
</g>
</g>
<!-- Node0&#45;&gt;Node29 -->
<g id="edge56" class="edge">
<title>Node0&#45;&gt;Node29</title>
<path fill="none" stroke="#191970" d="M736.996,-582.3733C716.3565,-573.3435 685.2842,-559.7494 662.1111,-549.6111"/>
<polygon fill="#191970" stroke="#191970" points="663.2813,-546.3028 652.7169,-545.5011 660.4755,-552.7159 663.2813,-546.3028"/>
</g>
<!-- Node34 -->
<g id="node35" class="node">
<title>Node34</title>
<polygon fill="none" stroke="#bfbfbf" points="989.5,-470.5 989.5,-489.5 1036.5,-489.5 1036.5,-470.5 989.5,-470.5"/>
<text text-anchor="middle" x="1013" y="-477.5" font-family="FreeSans.ttf" font-size="10.00" fill="#000000">vector</text>
</g>
<!-- Node0&#45;&gt;Node34 -->
<g id="edge76" class="edge">
<title>Node0&#45;&gt;Node34</title>
<path fill="none" stroke="#191970" d="M780.6559,-582.4509C825.7381,-562.5722 929.8033,-516.6852 981.9858,-493.6756"/>
<polygon fill="#191970" stroke="#191970" points="983.6611,-496.7621 991.3989,-489.5249 980.8368,-490.3571 983.6611,-496.7621"/>
</g>
<!-- Node35 -->
<g id="node36" class="node">
<title>Node35</title>
<g id="a_node36"><a xlink:href="JointState_8h.html" target="_top" xlink:title="iDynTree/Model/JointState.h">
<polygon fill="none" stroke="#000000" points="989.5,-526.5 989.5,-545.5 1140.5,-545.5 1140.5,-526.5 989.5,-526.5"/>
<text text-anchor="middle" x="1065" y="-533.5" font-family="FreeSans.ttf" font-size="10.00" fill="#000000">iDynTree/Model/JointState.h</text>
</a>
</g>
</g>
<!-- Node0&#45;&gt;Node35 -->
<g id="edge71" class="edge">
<title>Node0&#45;&gt;Node35</title>
<path fill="none" stroke="#191970" d="M811.2556,-582.4369C864.3953,-572.712 946.7222,-557.6456 1003.0979,-547.3285"/>
<polygon fill="#191970" stroke="#191970" points="1003.7534,-550.7667 1012.9599,-545.5237 1002.4932,-543.8811 1003.7534,-550.7667"/>
</g>
<!-- Node2 -->
<g id="node3" class="node">
<title>Node2</title>
<g id="a_node3"><a xlink:href="Position_8h.html" target="_top" xlink:title="iDynTree/Core/Position.h">
<polygon fill="none" stroke="#000000" points="506,-291.5 506,-310.5 642,-310.5 642,-291.5 506,-291.5"/>
<text text-anchor="middle" x="574" y="-298.5" font-family="FreeSans.ttf" font-size="10.00" fill="#000000">iDynTree/Core/Position.h</text>
</a>
</g>
</g>
<!-- Node1&#45;&gt;Node2 -->
<g id="edge2" class="edge">
<title>Node1&#45;&gt;Node2</title>
<path fill="none" stroke="#191970" d="M505.4575,-347.2455C518.0732,-338.7337 536.5944,-326.2375 551.2045,-316.3801"/>
<polygon fill="#191970" stroke="#191970" points="553.3761,-319.1371 559.7082,-310.6427 549.4609,-313.3343 553.3761,-319.1371"/>
</g>
<!-- Node16 -->
<g id="node17" class="node">
<title>Node16</title>
<polygon fill="none" stroke="#bfbfbf" points="311,-56.5 311,-75.5 355,-75.5 355,-56.5 311,-56.5"/>
<text text-anchor="middle" x="333" y="-63.5" font-family="FreeSans.ttf" font-size="10.00" fill="#000000">string</text>
</g>
<!-- Node1&#45;&gt;Node16 -->
<g id="edge39" class="edge">
<title>Node1&#45;&gt;Node16</title>
<path fill="none" stroke="#191970" d="M437.6901,-347.483C354.6919,-331.1299 204,-294.6083 204,-245 204,-245 204,-245 204,-183.5 204,-130.8577 263.4397,-95.542 301.6235,-78.2864"/>
<polygon fill="#191970" stroke="#191970" points="303.0471,-81.484 310.8241,-74.289 300.2576,-75.0638 303.0471,-81.484"/>
</g>
<!-- Node19 -->
<g id="node20" class="node">
<title>Node19</title>
<g id="a_node20"><a xlink:href="Rotation_8h.html" target="_top" xlink:title="iDynTree/Core/Rotation.h">
<polygon fill="none" stroke="#000000" points="578.5,-235.5 578.5,-254.5 715.5,-254.5 715.5,-235.5 578.5,-235.5"/>
<text text-anchor="middle" x="647" y="-242.5" font-family="FreeSans.ttf" font-size="10.00" fill="#000000">iDynTree/Core/Rotation.h</text>
</a>
</g>
</g>
<!-- Node1&#45;&gt;Node19 -->
<g id="edge37" class="edge">
<title>Node1&#45;&gt;Node19</title>
<path fill="none" stroke="#191970" d="M551.0085,-347.4287C591.1142,-339.6663 638.6993,-327.3355 651,-311 660.9047,-297.8465 658.4544,-278.7129 654.3847,-264.4299"/>
<polygon fill="#191970" stroke="#191970" points="657.6053,-263.022 651.1347,-254.6325 650.9613,-265.226 657.6053,-263.022"/>
</g>
<!-- Node22 -->
<g id="node23" class="node">
<title>Node22</title>
<g id="a_node23"><a xlink:href="MatrixFixSize_8h.html" target="_top" xlink:title="iDynTree/Core/MatrixFixSize.h">
<polygon fill="none" stroke="#000000" points="551.5,-112.5 551.5,-131.5 712.5,-131.5 712.5,-112.5 551.5,-112.5"/>
<text text-anchor="middle" x="632" y="-119.5" font-family="FreeSans.ttf" font-size="10.00" fill="#000000">iDynTree/Core/MatrixFixSize.h</text>
</a>
</g>
</g>
<!-- Node1&#45;&gt;Node22 -->
<g id="edge38" class="edge">
<title>Node1&#45;&gt;Node22</title>
<path fill="none" stroke="#191970" d="M488.9756,-347.4784C483.1723,-317.4314 469.5465,-223.3415 513,-168 525.5794,-151.9791 544.4775,-141.5325 563.5313,-134.7226"/>
<polygon fill="#191970" stroke="#191970" points="564.7535,-138.0055 573.1723,-131.5732 562.5797,-131.3515 564.7535,-138.0055"/>
</g>
<!-- Node3 -->
<g id="node4" class="node">
<title>Node3</title>
<g id="a_node4"><a xlink:href="PositionRaw_8h.html" target="_top" xlink:title="iDynTree/Core/PositionRaw.h">
<polygon fill="none" stroke="#000000" points="522,-174 522,-193 678,-193 678,-174 522,-174"/>
<text text-anchor="middle" x="600" y="-181" font-family="FreeSans.ttf" font-size="10.00" fill="#000000">iDynTree/Core/PositionRaw.h</text>
</a>
</g>
</g>
<!-- Node2&#45;&gt;Node3 -->
<g id="edge3" class="edge">
<title>Node2&#45;&gt;Node3</title>
<path fill="none" stroke="#191970" d="M571.5292,-291.4068C568.5988,-278.386 564.7331,-254.5051 570,-235 573.2706,-222.8876 580.173,-210.696 586.5331,-201.2173"/>
<polygon fill="#191970" stroke="#191970" points="589.3948,-203.2325 592.3286,-193.052 583.6864,-199.1809 589.3948,-203.2325"/>
</g>
<!-- Node2&#45;&gt;Node16 -->
<g id="edge36" class="edge">
<title>Node2&#45;&gt;Node16</title>
<path fill="none" stroke="#191970" d="M527.5446,-291.4426C453.1554,-275.0907 312.7281,-239.5577 284,-199 275.3285,-186.7578 286.2558,-122.2858 291,-112 296.1486,-100.8375 305.0058,-90.5185 313.263,-82.4947"/>
<polygon fill="#191970" stroke="#191970" points="315.8371,-84.8836 320.8552,-75.5525 311.1135,-79.7176 315.8371,-84.8836"/>
</g>
<!-- Node2&#45;&gt;Node19 -->
<g id="edge22" class="edge">
<title>Node2&#45;&gt;Node19</title>
<path fill="none" stroke="#191970" d="M586.7156,-291.2455C597.602,-282.8943 613.4883,-270.7076 626.22,-260.9408"/>
<polygon fill="#191970" stroke="#191970" points="628.6261,-263.5063 634.4301,-254.6427 624.3654,-257.9523 628.6261,-263.5063"/>
</g>
<!-- Node4 -->
<g id="node5" class="node">
<title>Node4</title>
<g id="a_node5"><a xlink:href="VectorFixSize_8h.html" target="_top" xlink:title="iDynTree/Core/VectorFixSize.h">
<polygon fill="none" stroke="#000000" points="809.5,-112.5 809.5,-131.5 970.5,-131.5 970.5,-112.5 809.5,-112.5"/>
<text text-anchor="middle" x="890" y="-119.5" font-family="FreeSans.ttf" font-size="10.00" fill="#000000">iDynTree/Core/VectorFixSize.h</text>
</a>
</g>
</g>
<!-- Node3&#45;&gt;Node4 -->
<g id="edge4" class="edge">
<title>Node3&#45;&gt;Node4</title>
<path fill="none" stroke="#191970" d="M644.9943,-173.9581C696.216,-163.0956 779.9001,-145.3488 834.9655,-133.6711"/>
<polygon fill="#191970" stroke="#191970" points="835.8438,-137.0628 844.9001,-131.5643 834.3916,-130.2151 835.8438,-137.0628"/>
</g>
<!-- Node3&#45;&gt;Node16 -->
<g id="edge21" class="edge">
<title>Node3&#45;&gt;Node16</title>
<path fill="none" stroke="#191970" d="M578.1503,-173.8845C530.8012,-153.0474 418.6054,-103.6728 363.9694,-79.6289"/>
<polygon fill="#191970" stroke="#191970" points="365.3399,-76.4081 354.7772,-75.5836 362.5203,-82.8151 365.3399,-76.4081"/>
</g>
<!-- Node5 -->
<g id="node6" class="node">
<title>Node5</title>
<g id="a_node6"><a xlink:href="Utils_8h.html" target="_top" xlink:title="iDynTree/Core/Utils.h">
<polygon fill="none" stroke="#000000" points="918.5,-56.5 918.5,-75.5 1037.5,-75.5 1037.5,-56.5 918.5,-56.5"/>
<text text-anchor="middle" x="978" y="-63.5" font-family="FreeSans.ttf" font-size="10.00" fill="#000000">iDynTree/Core/Utils.h</text>
</a>
</g>
</g>
<!-- Node4&#45;&gt;Node5 -->
<g id="edge5" class="edge">
<title>Node4&#45;&gt;Node5</title>
<path fill="none" stroke="#191970" d="M905.3284,-112.2455C918.8303,-103.6534 938.7122,-91.0014 954.2686,-81.1018"/>
<polygon fill="#191970" stroke="#191970" points="956.2897,-83.9643 962.8472,-75.6427 952.5315,-78.0587 956.2897,-83.9643"/>
</g>
<!-- Node7 -->
<g id="node8" class="node">
<title>Node7</title>
<g id="a_node8"><a xlink:href="Span_8h.html" target="_top" xlink:title="iDynTree/Core/Span.h">
<polygon fill="none" stroke="#000000" points="1119.5,-56.5 1119.5,-75.5 1240.5,-75.5 1240.5,-56.5 1119.5,-56.5"/>
<text text-anchor="middle" x="1180" y="-63.5" font-family="FreeSans.ttf" font-size="10.00" fill="#000000">iDynTree/Core/Span.h</text>
</a>
</g>
</g>
<!-- Node4&#45;&gt;Node7 -->
<g id="edge7" class="edge">
<title>Node4&#45;&gt;Node7</title>
<path fill="none" stroke="#191970" d="M939.5233,-112.4369C989.6759,-102.7522 1067.261,-87.7703 1120.6697,-77.4569"/>
<polygon fill="#191970" stroke="#191970" points="1121.526,-80.8563 1130.681,-75.5237 1120.1987,-73.9832 1121.526,-80.8563"/>
</g>
<!-- Node8 -->
<g id="node9" class="node">
<title>Node8</title>
<polygon fill="none" stroke="#bfbfbf" points="864,-.5 864,-19.5 916,-19.5 916,-.5 864,-.5"/>
<text text-anchor="middle" x="890" y="-7.5" font-family="FreeSans.ttf" font-size="10.00" fill="#000000">cassert</text>
</g>
<!-- Node4&#45;&gt;Node8 -->
<g id="edge19" class="edge">
<title>Node4&#45;&gt;Node8</title>
<path fill="none" stroke="#191970" d="M890,-112.4509C890,-94.184 890,-53.9553 890,-29.6976"/>
<polygon fill="#191970" stroke="#191970" points="893.5001,-29.5249 890,-19.5249 886.5001,-29.5249 893.5001,-29.5249"/>
</g>
<!-- Node4&#45;&gt;Node16 -->
<g id="edge17" class="edge">
<title>Node4&#45;&gt;Node16</title>
<path fill="none" stroke="#191970" d="M809.3051,-113.887C684.6893,-101.3584 450.8699,-77.8505 365.3707,-69.2545"/>
<polygon fill="#191970" stroke="#191970" points="365.5344,-65.7534 355.2344,-68.2354 364.8341,-72.7183 365.5344,-65.7534"/>
</g>
<!-- Node17 -->
<g id="node18" class="node">
<title>Node17</title>
<polygon fill="none" stroke="#bfbfbf" points="806,-56.5 806,-75.5 862,-75.5 862,-56.5 806,-56.5"/>
<text text-anchor="middle" x="834" y="-63.5" font-family="FreeSans.ttf" font-size="10.00" fill="#000000">sstream</text>
</g>
<!-- Node4&#45;&gt;Node17 -->
<g id="edge18" class="edge">
<title>Node4&#45;&gt;Node17</title>
<path fill="none" stroke="#191970" d="M880.2455,-112.2455C872.1352,-104.1352 860.4075,-92.4075 850.7919,-82.7919"/>
<polygon fill="#191970" stroke="#191970" points="853.1887,-80.2389 843.6427,-75.6427 848.2389,-85.1887 853.1887,-80.2389"/>
</g>
<!-- Node18 -->
<g id="node19" class="node">
<title>Node18</title>
<polygon fill="none" stroke="#bfbfbf" points="738,-56.5 738,-75.5 788,-75.5 788,-56.5 738,-56.5"/>
<text text-anchor="middle" x="763" y="-63.5" font-family="FreeSans.ttf" font-size="10.00" fill="#000000">cstring</text>
</g>
<!-- Node4&#45;&gt;Node18 -->
<g id="edge20" class="edge">
<title>Node4&#45;&gt;Node18</title>
<path fill="none" stroke="#191970" d="M868.1679,-112.3733C847.6897,-103.3435 816.8601,-89.7494 793.8681,-79.6111"/>
<polygon fill="#191970" stroke="#191970" points="795.1093,-76.3333 784.5472,-75.5011 792.285,-82.7383 795.1093,-76.3333"/>
</g>
<!-- Node6 -->
<g id="node7" class="node">
<title>Node6</title>
<polygon fill="none" stroke="#bfbfbf" points="942.5,-.5 942.5,-19.5 995.5,-19.5 995.5,-.5 942.5,-.5"/>
<text text-anchor="middle" x="969" y="-7.5" font-family="FreeSans.ttf" font-size="10.00" fill="#000000">cstddef</text>
</g>
<!-- Node5&#45;&gt;Node6 -->
<g id="edge6" class="edge">
<title>Node5&#45;&gt;Node6</title>
<path fill="none" stroke="#191970" d="M976.4323,-56.2455C975.2579,-48.9382 973.6116,-38.6944 972.1668,-29.7046"/>
<polygon fill="#191970" stroke="#191970" points="975.5922,-28.9606 970.5497,-19.6427 968.6809,-30.0714 975.5922,-28.9606"/>
</g>
<!-- Node7&#45;&gt;Node6 -->
<g id="edge11" class="edge">
<title>Node7&#45;&gt;Node6</title>
<path fill="none" stroke="#191970" d="M1143.0886,-56.4566C1109.7211,-47.7942 1058.9933,-34.5375 1005.7019,-20.1641"/>
<polygon fill="#191970" stroke="#191970" points="1006.2918,-16.698 995.725,-17.4681 1004.4657,-23.4556 1006.2918,-16.698"/>
</g>
<!-- Node7&#45;&gt;Node8 -->
<g id="edge8" class="edge">
<title>Node7&#45;&gt;Node8</title>
<path fill="none" stroke="#191970" d="M1125.6516,-56.4591C1075.7257,-47.5472 999.7338,-33.6103 934,-20 931.3583,-19.453 928.6311,-18.8723 925.8892,-18.2767"/>
<polygon fill="#191970" stroke="#191970" points="926.5426,-14.8366 916.022,-16.0889 925.0273,-21.6707 926.5426,-14.8366"/>
</g>
<!-- Node9 -->
<g id="node10" class="node">
<title>Node9</title>
<polygon fill="none" stroke="#bfbfbf" points="1381,-.5 1381,-19.5 1445,-19.5 1445,-.5 1381,-.5"/>
<text text-anchor="middle" x="1413" y="-7.5" font-family="FreeSans.ttf" font-size="10.00" fill="#000000">algorithm</text>
</g>
<!-- Node7&#45;&gt;Node9 -->
<g id="edge9" class="edge">
<title>Node7&#45;&gt;Node9</title>
<path fill="none" stroke="#191970" d="M1220.0945,-56.4443C1256.8203,-47.6803 1312.9647,-34.2542 1370.735,-20.2995"/>
<polygon fill="#191970" stroke="#191970" points="1371.8762,-23.6245 1380.7741,-17.8731 1370.2317,-16.8205 1371.8762,-23.6245"/>
</g>
<!-- Node10 -->
<g id="node11" class="node">
<title>Node10</title>
<polygon fill="none" stroke="#bfbfbf" points="1463,-.5 1463,-19.5 1505,-19.5 1505,-.5 1463,-.5"/>
<text text-anchor="middle" x="1484" y="-7.5" font-family="FreeSans.ttf" font-size="10.00" fill="#000000">array</text>
</g>
<!-- Node7&#45;&gt;Node10 -->
<g id="edge10" class="edge">
<title>Node7&#45;&gt;Node10</title>
<path fill="none" stroke="#191970" d="M1240.688,-58.5689C1294.2899,-51.3829 1374.6453,-39.0962 1452.801,-20.0023"/>
<polygon fill="#191970" stroke="#191970" points="1453.9535,-23.3225 1462.8148,-17.5149 1452.266,-16.5289 1453.9535,-23.3225"/>
</g>
<!-- Node11 -->
<g id="node12" class="node">
<title>Node11</title>
<polygon fill="none" stroke="#bfbfbf" points="1013.5,-.5 1013.5,-19.5 1066.5,-19.5 1066.5,-.5 1013.5,-.5"/>
<text text-anchor="middle" x="1040" y="-7.5" font-family="FreeSans.ttf" font-size="10.00" fill="#000000">iterator</text>
</g>
<!-- Node7&#45;&gt;Node11 -->
<g id="edge12" class="edge">
<title>Node7&#45;&gt;Node11</title>
<path fill="none" stroke="#191970" d="M1155.9331,-56.3733C1133.1572,-47.2629 1098.7656,-33.5062 1073.351,-23.3404"/>
<polygon fill="#191970" stroke="#191970" points="1074.3375,-19.9654 1063.7528,-19.5011 1071.7377,-26.4648 1074.3375,-19.9654"/>
</g>
<!-- Node12 -->
<g id="node13" class="node">
<title>Node12</title>
<polygon fill="none" stroke="#bfbfbf" points="1085,-.5 1085,-19.5 1129,-19.5 1129,-.5 1085,-.5"/>
<text text-anchor="middle" x="1107" y="-7.5" font-family="FreeSans.ttf" font-size="10.00" fill="#000000">limits</text>
</g>
<!-- Node7&#45;&gt;Node12 -->
<g id="edge13" class="edge">
<title>Node7&#45;&gt;Node12</title>
<path fill="none" stroke="#191970" d="M1167.2844,-56.2455C1156.398,-47.8943 1140.5117,-35.7076 1127.78,-25.9408"/>
<polygon fill="#191970" stroke="#191970" points="1129.6346,-22.9523 1119.5699,-19.6427 1125.3739,-28.5063 1129.6346,-22.9523"/>
</g>
<!-- Node13 -->
<g id="node14" class="node">
<title>Node13</title>
<polygon fill="none" stroke="#bfbfbf" points="1147.5,-.5 1147.5,-19.5 1212.5,-19.5 1212.5,-.5 1147.5,-.5"/>
<text text-anchor="middle" x="1180" y="-7.5" font-family="FreeSans.ttf" font-size="10.00" fill="#000000">stdexcept</text>
</g>
<!-- Node7&#45;&gt;Node13 -->
<g id="edge14" class="edge">
<title>Node7&#45;&gt;Node13</title>
<path fill="none" stroke="#191970" d="M1180,-56.2455C1180,-48.9382 1180,-38.6944 1180,-29.7046"/>
<polygon fill="#191970" stroke="#191970" points="1183.5001,-29.6426 1180,-19.6427 1176.5001,-29.6427 1183.5001,-29.6426"/>
</g>
<!-- Node14 -->
<g id="node15" class="node">
<title>Node14</title>
<polygon fill="none" stroke="#bfbfbf" points="1230.5,-.5 1230.5,-19.5 1299.5,-19.5 1299.5,-.5 1230.5,-.5"/>
<text text-anchor="middle" x="1265" y="-7.5" font-family="FreeSans.ttf" font-size="10.00" fill="#000000">type_traits</text>
</g>
<!-- Node7&#45;&gt;Node14 -->
<g id="edge15" class="edge">
<title>Node7&#45;&gt;Node14</title>
<path fill="none" stroke="#191970" d="M1194.8059,-56.2455C1207.7256,-47.7337 1226.6931,-35.2375 1241.6552,-25.3801"/>
<polygon fill="#191970" stroke="#191970" points="1243.9387,-28.067 1250.3638,-19.6427 1240.0876,-22.2216 1243.9387,-28.067"/>
</g>
<!-- Node15 -->
<g id="node16" class="node">
<title>Node15</title>
<polygon fill="none" stroke="#bfbfbf" points="1317.5,-.5 1317.5,-19.5 1362.5,-19.5 1362.5,-.5 1317.5,-.5"/>
<text text-anchor="middle" x="1340" y="-7.5" font-family="FreeSans.ttf" font-size="10.00" fill="#000000">utility</text>
</g>
<!-- Node7&#45;&gt;Node15 -->
<g id="edge16" class="edge">
<title>Node7&#45;&gt;Node15</title>
<path fill="none" stroke="#191970" d="M1207.505,-56.3733C1235.3188,-46.6384 1278.2899,-31.5985 1307.7051,-21.3032"/>
<polygon fill="#191970" stroke="#191970" points="1309.2148,-24.4831 1317.4972,-17.876 1306.9023,-17.8761 1309.2148,-24.4831"/>
</g>
<!-- Node19&#45;&gt;Node4 -->
<g id="edge35" class="edge">
<title>Node19&#45;&gt;Node4</title>
<path fill="none" stroke="#191970" d="M654.6462,-235.4328C668.1424,-219.1774 697.821,-186.1661 730,-168 758.7185,-151.7874 793.6219,-140.8889 823.4917,-133.788"/>
<polygon fill="#191970" stroke="#191970" points="824.4421,-137.1612 833.4123,-131.5233 822.8841,-130.3367 824.4421,-137.1612"/>
</g>
<!-- Node19&#45;&gt;Node16 -->
<g id="edge23" class="edge">
<title>Node19&#45;&gt;Node16</title>
<path fill="none" stroke="#191970" d="M578.3781,-240.7254C482.2366,-234.0266 317.1016,-219.6518 299,-199 270.2076,-166.1513 300.0701,-112.1659 319.3587,-84.1465"/>
<polygon fill="#191970" stroke="#191970" points="322.4237,-85.8775 325.3946,-75.7077 316.7302,-81.8051 322.4237,-85.8775"/>
</g>
<!-- Node20 -->
<g id="node21" class="node">
<title>Node20</title>
<g id="a_node21"><a xlink:href="GeomVector3_8h.html" target="_top" xlink:title="iDynTree/Core/GeomVector3.h">
<polygon fill="none" stroke="#000000" points="772.5,-174 772.5,-193 935.5,-193 935.5,-174 772.5,-174"/>
<text text-anchor="middle" x="854" y="-181" font-family="FreeSans.ttf" font-size="10.00" fill="#000000">iDynTree/Core/GeomVector3.h</text>
</a>
</g>
</g>
<!-- Node19&#45;&gt;Node20 -->
<g id="edge24" class="edge">
<title>Node19&#45;&gt;Node20</title>
<path fill="none" stroke="#191970" d="M679.3438,-235.3906C715.118,-224.7621 772.8747,-207.6025 812.0905,-195.9514"/>
<polygon fill="#191970" stroke="#191970" points="813.2943,-199.245 821.8834,-193.0419 811.3007,-192.5349 813.2943,-199.245"/>
</g>
<!-- Node21 -->
<g id="node22" class="node">
<title>Node21</title>
<g id="a_node22"><a xlink:href="RotationRaw_8h.html" target="_top" xlink:title="iDynTree/Core/RotationRaw.h">
<polygon fill="none" stroke="#000000" points="308,-174 308,-193 466,-193 466,-174 308,-174"/>
<text text-anchor="middle" x="387" y="-181" font-family="FreeSans.ttf" font-size="10.00" fill="#000000">iDynTree/Core/RotationRaw.h</text>
</a>
</g>
</g>
<!-- Node19&#45;&gt;Node21 -->
<g id="edge26" class="edge">
<title>Node19&#45;&gt;Node21</title>
<path fill="none" stroke="#191970" d="M606.6603,-235.4581C561.0232,-224.6632 486.643,-207.0694 437.266,-195.3899"/>
<polygon fill="#191970" stroke="#191970" points="437.9715,-191.9602 427.4344,-193.0643 436.3602,-198.7722 437.9715,-191.9602"/>
</g>
<!-- Node20&#45;&gt;Node4 -->
<g id="edge25" class="edge">
<title>Node20&#45;&gt;Node4</title>
<path fill="none" stroke="#191970" d="M859.625,-173.8906C864.8253,-165.0068 872.6966,-151.5601 879.1233,-140.5811"/>
<polygon fill="#191970" stroke="#191970" points="882.2644,-142.1432 884.2957,-131.7449 876.2233,-138.6069 882.2644,-142.1432"/>
</g>
<!-- Node21&#45;&gt;Node16 -->
<g id="edge34" class="edge">
<title>Node21&#45;&gt;Node16</title>
<path fill="none" stroke="#191970" d="M382.581,-173.8845C373.6812,-154.5192 353.4536,-110.5055 341.7705,-85.084"/>
<polygon fill="#191970" stroke="#191970" points="344.8363,-83.3732 337.4801,-75.7484 338.4758,-86.2963 344.8363,-83.3732"/>
</g>
<!-- Node21&#45;&gt;Node22 -->
<g id="edge27" class="edge">
<title>Node21&#45;&gt;Node22</title>
<path fill="none" stroke="#191970" d="M425.0124,-173.9581C467.8371,-163.2082 537.5208,-145.7162 584.0499,-134.0365"/>
<polygon fill="#191970" stroke="#191970" points="585.0515,-137.3937 593.8984,-131.5643 583.3471,-130.6043 585.0515,-137.3937"/>
</g>
<!-- Node22&#45;&gt;Node5 -->
<g id="edge28" class="edge">
<title>Node22&#45;&gt;Node5</title>
<path fill="none" stroke="#191970" d="M691.0864,-112.4369C751.5456,-102.6516 845.4188,-87.4582 909.1905,-77.1368"/>
<polygon fill="#191970" stroke="#191970" points="909.845,-80.5765 919.1573,-75.5237 908.7266,-73.6664 909.845,-80.5765"/>
</g>
<!-- Node22&#45;&gt;Node8 -->
<g id="edge29" class="edge">
<title>Node22&#45;&gt;Node8</title>
<path fill="none" stroke="#191970" d="M631.829,-112.3132C632.1347,-97.8211 634.9791,-70.6379 651,-56 680.207,-29.3143 794.5631,-17.0559 853.8726,-12.3967"/>
<polygon fill="#191970" stroke="#191970" points="854.2216,-15.8804 863.93,-11.6382 853.6951,-8.9003 854.2216,-15.8804"/>
</g>
<!-- Node22&#45;&gt;Node16 -->
<g id="edge31" class="edge">
<title>Node22&#45;&gt;Node16</title>
<path fill="none" stroke="#191970" d="M580.9398,-112.4369C519.1469,-100.8636 416.9632,-81.7256 365.1947,-72.0298"/>
<polygon fill="#191970" stroke="#191970" points="365.7161,-68.5666 355.2426,-70.1658 364.4274,-75.447 365.7161,-68.5666"/>
</g>
<!-- Node22&#45;&gt;Node17 -->
<g id="edge33" class="edge">
<title>Node22&#45;&gt;Node17</title>
<path fill="none" stroke="#191970" d="M666.725,-112.3733C702.7099,-102.3973 758.7903,-86.8502 795.9552,-76.5471"/>
<polygon fill="#191970" stroke="#191970" points="797.2021,-79.8335 805.9036,-73.7891 795.332,-73.0879 797.2021,-79.8335"/>
</g>
<!-- Node22&#45;&gt;Node18 -->
<g id="edge30" class="edge">
<title>Node22&#45;&gt;Node18</title>
<path fill="none" stroke="#191970" d="M654.5197,-112.3733C675.7372,-103.3032 707.7276,-89.6279 731.4769,-79.4755"/>
<polygon fill="#191970" stroke="#191970" points="732.9548,-82.6502 740.7742,-75.5011 730.2033,-76.2136 732.9548,-82.6502"/>
</g>
<!-- Node23 -->
<g id="node24" class="node">
<title>Node23</title>
<polygon fill="none" stroke="#bfbfbf" points="660,-56.5 660,-75.5 720,-75.5 720,-56.5 660,-56.5"/>
<text text-anchor="middle" x="690" y="-63.5" font-family="FreeSans.ttf" font-size="10.00" fill="#000000">iostream</text>
</g>
<!-- Node22&#45;&gt;Node23 -->
<g id="edge32" class="edge">
<title>Node22&#45;&gt;Node23</title>
<path fill="none" stroke="#191970" d="M642.1028,-112.2455C650.5028,-104.1352 662.6494,-92.4075 672.6084,-82.7919"/>
<polygon fill="#191970" stroke="#191970" points="675.25,-85.1066 680.0129,-75.6427 670.3878,-80.0707 675.25,-85.1066"/>
</g>
<!-- Node25 -->
<g id="node26" class="node">
<title>Node25</title>
<g id="a_node26"><a xlink:href="SpatialMotionVector_8h.html" target="_top" xlink:title="iDynTree/Core/SpatialMotion\lVector.h">
<polygon fill="none" stroke="#000000" points="668.5,-403.5 668.5,-433.5 823.5,-433.5 823.5,-403.5 668.5,-403.5"/>
<text text-anchor="start" x="676.5" y="-421.5" font-family="FreeSans.ttf" font-size="10.00" fill="#000000">iDynTree/Core/SpatialMotion</text>
<text text-anchor="middle" x="746" y="-410.5" font-family="FreeSans.ttf" font-size="10.00" fill="#000000">Vector.h</text>
</a>
</g>
</g>
<!-- Node24&#45;&gt;Node25 -->
<g id="edge41" class="edge">
<title>Node24&#45;&gt;Node25</title>
<path fill="none" stroke="#191970" d="M756.9688,-470.3906C755.4374,-463.1463 753.2648,-452.8679 751.2566,-443.3676"/>
<polygon fill="#191970" stroke="#191970" points="754.6727,-442.6045 749.1802,-433.5446 747.824,-444.0523 754.6727,-442.6045"/>
</g>
<!-- Node25&#45;&gt;Node4 -->
<g id="edge42" class="edge">
<title>Node25&#45;&gt;Node4</title>
<path fill="none" stroke="#191970" d="M741.9749,-403.324C731.7445,-361.0983 709.2551,-240.5779 764,-168 773.6486,-155.2084 809.3305,-142.8774 840.2706,-134.2078"/>
<polygon fill="#191970" stroke="#191970" points="841.3828,-137.5324 850.1104,-131.5257 839.5419,-130.7788 841.3828,-137.5324"/>
</g>
<!-- Node25&#45;&gt;Node20 -->
<g id="edge43" class="edge">
<title>Node25&#45;&gt;Node20</title>
<path fill="none" stroke="#191970" d="M749.2007,-403.3922C752.5509,-388.6971 758.3844,-365.8882 766,-347 788.2015,-291.9356 824.0069,-231.4742 842.3498,-201.8835"/>
<polygon fill="#191970" stroke="#191970" points="845.5184,-203.4179 847.8561,-193.0842 839.5844,-199.7046 845.5184,-203.4179"/>
</g>
<!-- Node26 -->
<g id="node27" class="node">
<title>Node26</title>
<g id="a_node27"><a xlink:href="SpatialVector_8h.html" target="_top" xlink:title="iDynTree/Core/SpatialVector.h">
<polygon fill="none" stroke="#000000" points="774.5,-347.5 774.5,-366.5 935.5,-366.5 935.5,-347.5 774.5,-347.5"/>
<text text-anchor="middle" x="855" y="-354.5" font-family="FreeSans.ttf" font-size="10.00" fill="#000000">iDynTree/Core/SpatialVector.h</text>
</a>
</g>
</g>
<!-- Node25&#45;&gt;Node26 -->
<g id="edge44" class="edge">
<title>Node25&#45;&gt;Node26</title>
<path fill="none" stroke="#191970" d="M772.6644,-403.4554C789.8941,-393.734 812.1975,-381.15 829.2446,-371.5317"/>
<polygon fill="#191970" stroke="#191970" points="831.1194,-374.4926 838.1089,-366.5303 827.6796,-368.3961 831.1194,-374.4926"/>
</g>
<!-- Node26&#45;&gt;Node2 -->
<g id="edge45" class="edge">
<title>Node26&#45;&gt;Node2</title>
<path fill="none" stroke="#191970" d="M807.0137,-347.4369C758.5186,-337.7724 683.5527,-322.8326 631.8121,-312.5213"/>
<polygon fill="#191970" stroke="#191970" points="632.2797,-309.0457 621.7884,-310.5237 630.9115,-315.9107 632.2797,-309.0457"/>
</g>
<!-- Node26&#45;&gt;Node5 -->
<g id="edge47" class="edge">
<title>Node26&#45;&gt;Node5</title>
<path fill="none" stroke="#191970" d="M917.4986,-347.4154C944.9868,-340.7627 976.3297,-329.6058 1000,-311 1022.8917,-293.0063 1026.1543,-283.0401 1034,-255 1037.8239,-241.3338 1044.3454,-213.1131 1033,-168 1026.1641,-140.8182 1017.3424,-136.6487 1004,-112 999.1036,-102.9544 993.5087,-93.0082 988.7664,-84.6855"/>
<polygon fill="#191970" stroke="#191970" points="991.6914,-82.7502 983.684,-75.8125 985.6172,-86.2294 991.6914,-82.7502"/>
</g>
<!-- Node26&#45;&gt;Node17 -->
<g id="edge50" class="edge">
<title>Node26&#45;&gt;Node17</title>
<path fill="none" stroke="#191970" d="M909.8491,-347.4642C933.5368,-340.8214 959.907,-329.6587 978,-311 1023.7791,-263.7896 1034.5315,-231.0962 1016,-168 1007.6621,-139.611 1003.5126,-129.9614 980,-112 948.4086,-87.8672 903.8858,-76.2311 872.3309,-70.7273"/>
<polygon fill="#191970" stroke="#191970" points="872.5942,-67.2245 862.1643,-69.0866 871.4789,-74.1351 872.5942,-67.2245"/>
</g>
<!-- Node26&#45;&gt;Node19 -->
<g id="edge46" class="edge">
<title>Node26&#45;&gt;Node19</title>
<path fill="none" stroke="#191970" d="M837.266,-347.4509C800.7321,-327.7788 716.896,-282.6363 673.7437,-259.4005"/>
<polygon fill="#191970" stroke="#191970" points="675.1532,-256.1843 664.6891,-254.5249 671.8344,-262.3476 675.1532,-256.1843"/>
</g>
<!-- Node26&#45;&gt;Node20 -->
<g id="edge48" class="edge">
<title>Node26&#45;&gt;Node20</title>
<path fill="none" stroke="#191970" d="M854.9448,-347.4248C854.7867,-319.999 854.3299,-240.732 854.1147,-203.3964"/>
<polygon fill="#191970" stroke="#191970" points="857.6139,-203.2392 854.0563,-193.2595 850.614,-203.2796 857.6139,-203.2392"/>
</g>
<!-- Node26&#45;&gt;Node23 -->
<g id="edge49" class="edge">
<title>Node26&#45;&gt;Node23</title>
<path fill="none" stroke="#191970" d="M866.7396,-347.1362C900.4506,-317.6438 992.1919,-228.4422 945,-168 904.4014,-116.0023 861.9982,-157.124 801,-132 768.1681,-118.4771 733.4762,-96.426 711.7914,-81.5742"/>
<polygon fill="#191970" stroke="#191970" points="713.546,-78.5313 703.3376,-75.6958 709.5496,-84.2784 713.546,-78.5313"/>
</g>
<!-- Node27&#45;&gt;Node7 -->
<g id="edge52" class="edge">
<title>Node27&#45;&gt;Node7</title>
<path fill="none" stroke="#191970" d="M1225.0993,-291.4967C1218.0878,-256.4391 1193.5819,-133.9096 1183.94,-85.7"/>
<polygon fill="#191970" stroke="#191970" points="1187.3176,-84.741 1181.9243,-75.6216 1180.4535,-86.1138 1187.3176,-84.741"/>
</g>
<!-- Node27&#45;&gt;Node16 -->
<g id="edge53" class="edge">
<title>Node27&#45;&gt;Node16</title>
<path fill="none" stroke="#191970" d="M1218.3851,-291.1511C1189.0278,-258.3871 1088.6734,-152.8299 980,-112 922.1853,-90.2783 488.3273,-72.0048 365.3826,-67.2212"/>
<polygon fill="#191970" stroke="#191970" points="365.2469,-63.7134 355.1193,-66.8252 364.9769,-70.7082 365.2469,-63.7134"/>
</g>
<!-- Node28&#45;&gt;Node16 -->
<g id="edge55" class="edge">
<title>Node28&#45;&gt;Node16</title>
<path fill="none" stroke="#191970" d="M59.9736,-470.3462C42.5536,-450.6624 6,-403.7849 6,-357 6,-357 6,-357 6,-183.5 6,-121.3019 218.174,-83.0666 300.7045,-70.5467"/>
<polygon fill="#191970" stroke="#191970" points="301.4044,-73.9812 310.781,-69.0487 300.3751,-67.0572 301.4044,-73.9812"/>
</g>
<!-- Node29&#45;&gt;Node1 -->
<g id="edge57" class="edge">
<title>Node29&#45;&gt;Node1</title>
<path fill="none" stroke="#191970" d="M584.7714,-526.4865C563.101,-519.7573 538.6631,-508.5157 523,-490 495.499,-457.4902 490.8232,-405.2783 490.4902,-376.9091"/>
<polygon fill="#191970" stroke="#191970" points="493.9915,-376.6757 490.5515,-366.6549 486.9917,-376.6337 493.9915,-376.6757"/>
</g>
<!-- Node29&#45;&gt;Node24 -->
<g id="edge58" class="edge">
<title>Node29&#45;&gt;Node24</title>
<path fill="none" stroke="#191970" d="M653.004,-526.3733C673.6435,-517.3435 704.7158,-503.7494 727.8889,-493.6111"/>
<polygon fill="#191970" stroke="#191970" points="729.5245,-496.7159 737.2831,-489.5011 726.7187,-490.3028 729.5245,-496.7159"/>
</g>
<!-- Node29&#45;&gt;Node28 -->
<g id="edge69" class="edge">
<title>Node29&#45;&gt;Node28</title>
<path fill="none" stroke="#191970" d="M556.271,-529.3868C461.979,-520.9129 294.8583,-505.4632 152,-490 150.8817,-489.879 149.755,-489.7561 148.6216,-489.6316"/>
<polygon fill="#191970" stroke="#191970" points="148.6045,-486.1079 138.2772,-488.4735 147.8257,-493.0644 148.6045,-486.1079"/>
</g>
<!-- Node30 -->
<g id="node31" class="node">
<title>Node30</title>
<g id="a_node31"><a xlink:href="SpatialAcc_8h.html" target="_top" xlink:title="iDynTree/Core/SpatialAcc.h">
<polygon fill="none" stroke="#000000" points="532,-470.5 532,-489.5 680,-489.5 680,-470.5 532,-470.5"/>
<text text-anchor="middle" x="606" y="-477.5" font-family="FreeSans.ttf" font-size="10.00" fill="#000000">iDynTree/Core/SpatialAcc.h</text>
</a>
</g>
</g>
<!-- Node29&#45;&gt;Node30 -->
<g id="edge59" class="edge">
<title>Node29&#45;&gt;Node30</title>
<path fill="none" stroke="#191970" d="M626.6453,-526.2455C623.2756,-518.6973 618.507,-508.0158 614.4017,-498.8197"/>
<polygon fill="#191970" stroke="#191970" points="617.5773,-497.3473 610.3048,-489.6427 611.1853,-500.2009 617.5773,-497.3473"/>
</g>
<!-- Node31 -->
<g id="node32" class="node">
<title>Node31</title>
<g id="a_node32"><a xlink:href="Wrench_8h.html" target="_top" xlink:title="iDynTree/Core/Wrench.h">
<polygon fill="none" stroke="#000000" points="838.5,-470.5 838.5,-489.5 971.5,-489.5 971.5,-470.5 838.5,-470.5"/>
<text text-anchor="middle" x="905" y="-477.5" font-family="FreeSans.ttf" font-size="10.00" fill="#000000">iDynTree/Core/Wrench.h</text>
</a>
</g>
</g>
<!-- Node29&#45;&gt;Node31 -->
<g id="edge61" class="edge">
<title>Node29&#45;&gt;Node31</title>
<path fill="none" stroke="#191970" d="M677.791,-526.4369C724.9795,-516.7925 797.872,-501.8948 848.3124,-491.5858"/>
<polygon fill="#191970" stroke="#191970" points="849.3054,-494.9553 858.402,-489.5237 847.9037,-488.097 849.3054,-494.9553"/>
</g>
<!-- Node33 -->
<g id="node34" class="node">
<title>Node33</title>
<g id="a_node34"><a xlink:href="ArticulatedBodyInertia_8h.html" target="_top" xlink:title="iDynTree/Core/Articulated\lBodyInertia.h">
<polygon fill="none" stroke="#000000" points="34.5,-168.5 34.5,-198.5 175.5,-198.5 175.5,-168.5 34.5,-168.5"/>
<text text-anchor="start" x="42.5" y="-186.5" font-family="FreeSans.ttf" font-size="10.00" fill="#000000">iDynTree/Core/Articulated</text>
<text text-anchor="middle" x="105" y="-175.5" font-family="FreeSans.ttf" font-size="10.00" fill="#000000">BodyInertia.h</text>
</a>
</g>
</g>
<!-- Node29&#45;&gt;Node33 -->
<g id="edge66" class="edge">
<title>Node29&#45;&gt;Node33</title>
<path fill="none" stroke="#191970" d="M556.2897,-532.5011C424.845,-524.2881 166,-498.0196 166,-418.5 166,-418.5 166,-418.5 166,-301 166,-264.9261 143.0719,-228.92 125.3293,-206.4576"/>
<polygon fill="#191970" stroke="#191970" points="127.887,-204.0568 118.8418,-198.54 122.4725,-208.4933 127.887,-204.0568"/>
</g>
<!-- Node29&#45;&gt;Node34 -->
<g id="edge70" class="edge">
<title>Node29&#45;&gt;Node34</title>
<path fill="none" stroke="#191970" d="M705.7268,-529.936C774.7355,-523.4828 880.1229,-511.4691 979.4552,-490.0574"/>
<polygon fill="#191970" stroke="#191970" points="980.3381,-493.4471 989.3567,-487.887 978.8392,-486.6094 980.3381,-493.4471"/>
</g>
<!-- Node30&#45;&gt;Node25 -->
<g id="edge60" class="edge">
<title>Node30&#45;&gt;Node25</title>
<path fill="none" stroke="#191970" d="M627.875,-470.3906C647.7872,-461.6435 677.7691,-448.4728 702.5438,-437.5897"/>
<polygon fill="#191970" stroke="#191970" points="704.0043,-440.771 711.7521,-433.5446 701.1889,-434.3621 704.0043,-440.771"/>
</g>
<!-- Node32 -->
<g id="node33" class="node">
<title>Node32</title>
<g id="a_node33"><a xlink:href="SpatialForceVector_8h.html" target="_top" xlink:title="iDynTree/Core/SpatialForce\lVector.h">
<polygon fill="none" stroke="#000000" points="890,-403.5 890,-433.5 1038,-433.5 1038,-403.5 890,-403.5"/>
<text text-anchor="start" x="898" y="-421.5" font-family="FreeSans.ttf" font-size="10.00" fill="#000000">iDynTree/Core/SpatialForce</text>
<text text-anchor="middle" x="964" y="-410.5" font-family="FreeSans.ttf" font-size="10.00" fill="#000000">Vector.h</text>
</a>
</g>
</g>
<!-- Node31&#45;&gt;Node32 -->
<g id="edge62" class="edge">
<title>Node31&#45;&gt;Node32</title>
<path fill="none" stroke="#191970" d="M914.2188,-470.3906C921.7601,-462.5298 932.7287,-451.0964 942.4518,-440.9612"/>
<polygon fill="#191970" stroke="#191970" points="945.1698,-443.1839 949.567,-433.5446 940.1184,-438.3378 945.1698,-443.1839"/>
</g>
<!-- Node32&#45;&gt;Node4 -->
<g id="edge63" class="edge">
<title>Node32&#45;&gt;Node4</title>
<path fill="none" stroke="#191970" d="M972.2454,-403.42C983.4215,-381.5326 1002,-339.3768 1002,-301 1002,-301 1002,-301 1002,-245 1002,-209.154 1000.9729,-195.517 978,-168 965.809,-153.3976 947.7782,-142.8372 931.2067,-135.5472"/>
<polygon fill="#191970" stroke="#191970" points="932.2531,-132.1932 921.6734,-131.6271 929.5909,-138.6672 932.2531,-132.1932"/>
</g>
<!-- Node32&#45;&gt;Node20 -->
<g id="edge64" class="edge">
<title>Node32&#45;&gt;Node20</title>
<path fill="none" stroke="#191970" d="M961.1195,-403.3609C958.0554,-388.6426 952.5989,-365.8171 945,-347 922.4984,-291.2795 885.0021,-230.7171 865.9294,-201.403"/>
<polygon fill="#191970" stroke="#191970" points="868.8435,-199.4642 860.4268,-193.0292 862.9935,-203.3085 868.8435,-199.4642"/>
</g>
<!-- Node32&#45;&gt;Node26 -->
<g id="edge65" class="edge">
<title>Node32&#45;&gt;Node26</title>
<path fill="none" stroke="#191970" d="M937.3356,-403.4554C920.1059,-393.734 897.8025,-381.15 880.7554,-371.5317"/>
<polygon fill="#191970" stroke="#191970" points="882.3204,-368.3961 871.8911,-366.5303 878.8806,-374.4926 882.3204,-368.3961"/>
</g>
<!-- Node33&#45;&gt;Node16 -->
<g id="edge68" class="edge">
<title>Node33&#45;&gt;Node16</title>
<path fill="none" stroke="#191970" d="M119.3211,-168.3656C135.226,-152.3465 162.327,-127.3084 190,-112 225.5194,-92.3511 270.7093,-79.5907 300.6801,-72.6059"/>
<polygon fill="#191970" stroke="#191970" points="301.6169,-75.9827 310.6056,-70.3743 300.0814,-69.1532 301.6169,-75.9827"/>
</g>
<!-- Node33&#45;&gt;Node22 -->
<g id="edge67" class="edge">
<title>Node33&#45;&gt;Node22</title>
<path fill="none" stroke="#191970" d="M175.5267,-175.2697C269.8505,-164.2622 437.2026,-144.7325 540.9527,-132.6251"/>
<polygon fill="#191970" stroke="#191970" points="541.5738,-136.0764 551.1007,-131.4408 540.7623,-129.1236 541.5738,-136.0764"/>
</g>
<!-- Node35&#45;&gt;Node4 -->
<g id="edge72" class="edge">
<title>Node35&#45;&gt;Node4</title>
<path fill="none" stroke="#191970" d="M1072.5252,-526.2539C1086.7117,-506.8746 1116,-461.6417 1116,-418.5 1116,-418.5 1116,-418.5 1116,-357 1116,-258.6723 1075.6626,-231.9831 1001,-168 983.1554,-152.7079 959.5201,-141.9665 938.6465,-134.7321"/>
<polygon fill="#191970" stroke="#191970" points="939.5638,-131.3495 928.9709,-131.5547 937.3797,-138.0001 939.5638,-131.3495"/>
</g>
<!-- Node35&#45;&gt;Node27 -->
<g id="edge73" class="edge">
<title>Node35&#45;&gt;Node27</title>
<path fill="none" stroke="#191970" d="M1083.0742,-526.4326C1097.2277,-518.24 1116.6832,-505.3513 1130,-490 1133.1029,-486.423 1193.6865,-366.8852 1217.5022,-319.795"/>
<polygon fill="#191970" stroke="#191970" points="1220.7252,-321.1773 1222.1136,-310.6739 1214.4782,-318.019 1220.7252,-321.1773"/>
</g>
<!-- Node35&#45;&gt;Node32 -->
<g id="edge74" class="edge">
<title>Node35&#45;&gt;Node32</title>
<path fill="none" stroke="#191970" d="M1064.3377,-526.0754C1062.9629,-512.2423 1058.7625,-486.9583 1046,-470 1039.7018,-461.6312 1020.1066,-449.2076 1001.6515,-438.6594"/>
<polygon fill="#191970" stroke="#191970" points="1003.1794,-435.5033 992.7465,-433.6578 999.7514,-441.6065 1003.1794,-435.5033"/>
</g>
<!-- Node35&#45;&gt;Node34 -->
<g id="edge75" class="edge">
<title>Node35&#45;&gt;Node34</title>
<path fill="none" stroke="#191970" d="M1055.9423,-526.2455C1048.4858,-518.2155 1037.7366,-506.6394 1028.8583,-497.0781"/>
<polygon fill="#191970" stroke="#191970" points="1031.3232,-494.589 1021.9539,-489.6427 1026.1937,-499.3522 1031.3232,-494.589"/>
</g>
</g>
</svg>
