<?xml version="1.0" encoding="UTF-8" standalone="no"?>
<!DOCTYPE svg PUBLIC "-//W3C//DTD SVG 1.1//EN"
 "http://www.w3.org/Graphics/SVG/1.1/DTD/svg11.dtd">
<!-- Generated by graphviz version 2.40.1 (20161225.0304)
 -->
<!-- Title: GeomVector3.cpp Pages: 1 -->
<svg width="871pt" height="308pt"
 viewBox="0.00 0.00 870.50 308.00" xmlns="http://www.w3.org/2000/svg" xmlns:xlink="http://www.w3.org/1999/xlink">
<g id="graph0" class="graph" transform="scale(1 1) rotate(0) translate(4 304)">
<title>GeomVector3.cpp</title>
<!-- Node0 -->
<g id="node1" class="node">
<title>Node0</title>
<polygon fill="#bfbfbf" stroke="#000000" points="280.5,-280.5 280.5,-299.5 383.5,-299.5 383.5,-280.5 280.5,-280.5"/>
<text text-anchor="middle" x="332" y="-287.5" font-family="FreeSans.ttf" font-size="10.00" fill="#000000">GeomVector3.cpp</text>
</g>
<!-- Node1 -->
<g id="node2" class="node">
<title>Node1</title>
<g id="a_node2"><a xlink:href="GeomVector3_8h.html" target="_top" xlink:title="iDynTree/Core/GeomVector3.h">
<polygon fill="none" stroke="#000000" points="257.5,-168.5 257.5,-187.5 420.5,-187.5 420.5,-168.5 257.5,-168.5"/>
<text text-anchor="middle" x="339" y="-175.5" font-family="FreeSans.ttf" font-size="10.00" fill="#000000">iDynTree/Core/GeomVector3.h</text>
</a>
</g>
</g>
<!-- Node0&#45;&gt;Node1 -->
<g id="edge1" class="edge">
<title>Node0&#45;&gt;Node1</title>
<path fill="none" stroke="#191970" d="M332.5968,-280.4509C333.7385,-262.184 336.2528,-221.9553 337.7689,-197.6976"/>
<polygon fill="#191970" stroke="#191970" points="341.274,-197.7238 338.4047,-187.5249 334.2876,-197.2871 341.274,-197.7238"/>
</g>
<!-- Node17 -->
<g id="node18" class="node">
<title>Node17</title>
<g id="a_node18"><a xlink:href="Rotation_8h.html" target="_top" xlink:title="iDynTree/Core/Rotation.h">
<polygon fill="none" stroke="#000000" points="160.5,-224.5 160.5,-243.5 297.5,-243.5 297.5,-224.5 160.5,-224.5"/>
<text text-anchor="middle" x="229" y="-231.5" font-family="FreeSans.ttf" font-size="10.00" fill="#000000">iDynTree/Core/Rotation.h</text>
</a>
</g>
</g>
<!-- Node0&#45;&gt;Node17 -->
<g id="edge19" class="edge">
<title>Node0&#45;&gt;Node17</title>
<path fill="none" stroke="#191970" d="M314.0588,-280.2455C297.96,-271.4928 274.1121,-258.527 255.7609,-248.5496"/>
<polygon fill="#191970" stroke="#191970" points="257.1929,-245.3444 246.7356,-243.6427 253.8493,-251.4942 257.1929,-245.3444"/>
</g>
<!-- Node21 -->
<g id="node22" class="node">
<title>Node21</title>
<polygon fill="none" stroke="#bfbfbf" points="360.5,-224.5 360.5,-243.5 437.5,-243.5 437.5,-224.5 360.5,-224.5"/>
<text text-anchor="middle" x="399" y="-231.5" font-family="FreeSans.ttf" font-size="10.00" fill="#000000">Eigen/Dense</text>
</g>
<!-- Node0&#45;&gt;Node21 -->
<g id="edge32" class="edge">
<title>Node0&#45;&gt;Node21</title>
<path fill="none" stroke="#191970" d="M343.6705,-280.2455C353.5661,-271.9746 367.9627,-259.9416 379.5901,-250.2232"/>
<polygon fill="#191970" stroke="#191970" points="382.035,-252.7413 387.4632,-243.6427 377.5458,-247.3703 382.035,-252.7413"/>
</g>
<!-- Node2 -->
<g id="node3" class="node">
<title>Node2</title>
<g id="a_node3"><a xlink:href="VectorFixSize_8h.html" target="_top" xlink:title="iDynTree/Core/VectorFixSize.h">
<polygon fill="none" stroke="#000000" points="258.5,-112.5 258.5,-131.5 419.5,-131.5 419.5,-112.5 258.5,-112.5"/>
<text text-anchor="middle" x="339" y="-119.5" font-family="FreeSans.ttf" font-size="10.00" fill="#000000">iDynTree/Core/VectorFixSize.h</text>
</a>
</g>
</g>
<!-- Node1&#45;&gt;Node2 -->
<g id="edge2" class="edge">
<title>Node1&#45;&gt;Node2</title>
<path fill="none" stroke="#191970" d="M339,-168.2455C339,-160.9382 339,-150.6944 339,-141.7046"/>
<polygon fill="#191970" stroke="#191970" points="342.5001,-141.6426 339,-131.6427 335.5001,-141.6427 342.5001,-141.6426"/>
</g>
<!-- Node3 -->
<g id="node4" class="node">
<title>Node3</title>
<g id="a_node4"><a xlink:href="Utils_8h.html" target="_top" xlink:title="iDynTree/Core/Utils.h">
<polygon fill="none" stroke="#000000" points="246.5,-56.5 246.5,-75.5 365.5,-75.5 365.5,-56.5 246.5,-56.5"/>
<text text-anchor="middle" x="306" y="-63.5" font-family="FreeSans.ttf" font-size="10.00" fill="#000000">iDynTree/Core/Utils.h</text>
</a>
</g>
</g>
<!-- Node2&#45;&gt;Node3 -->
<g id="edge3" class="edge">
<title>Node2&#45;&gt;Node3</title>
<path fill="none" stroke="#191970" d="M333.2518,-112.2455C328.7565,-104.617 322.3752,-93.7881 316.9175,-84.5267"/>
<polygon fill="#191970" stroke="#191970" points="319.7747,-82.4811 311.6823,-75.6427 313.7439,-86.035 319.7747,-82.4811"/>
</g>
<!-- Node5 -->
<g id="node6" class="node">
<title>Node5</title>
<g id="a_node6"><a xlink:href="Span_8h.html" target="_top" xlink:title="iDynTree/Core/Span.h">
<polygon fill="none" stroke="#000000" points="496.5,-56.5 496.5,-75.5 617.5,-75.5 617.5,-56.5 496.5,-56.5"/>
<text text-anchor="middle" x="557" y="-63.5" font-family="FreeSans.ttf" font-size="10.00" fill="#000000">iDynTree/Core/Span.h</text>
</a>
</g>
</g>
<!-- Node2&#45;&gt;Node5 -->
<g id="edge5" class="edge">
<title>Node2&#45;&gt;Node5</title>
<path fill="none" stroke="#191970" d="M376.4755,-112.3733C413.5103,-102.8598 470.2682,-88.2797 510.2361,-78.0127"/>
<polygon fill="#191970" stroke="#191970" points="511.1988,-81.3792 520.0135,-75.5011 509.4571,-74.5993 511.1988,-81.3792"/>
</g>
<!-- Node6 -->
<g id="node7" class="node">
<title>Node6</title>
<polygon fill="none" stroke="#bfbfbf" points="229,-.5 229,-19.5 281,-19.5 281,-.5 229,-.5"/>
<text text-anchor="middle" x="255" y="-7.5" font-family="FreeSans.ttf" font-size="10.00" fill="#000000">cassert</text>
</g>
<!-- Node2&#45;&gt;Node6 -->
<g id="edge17" class="edge">
<title>Node2&#45;&gt;Node6</title>
<path fill="none" stroke="#191970" d="M384.6658,-112.4822C423.9001,-102.2009 470.9446,-83.5071 449,-56 404.0845,.3006 360.8275,-37.643 291,-20 290.9017,-19.9752 290.8033,-19.9503 290.7048,-19.9253"/>
<polygon fill="#191970" stroke="#191970" points="291.8689,-16.6123 281.3082,-17.4612 290.0933,-23.3834 291.8689,-16.6123"/>
</g>
<!-- Node14 -->
<g id="node15" class="node">
<title>Node14</title>
<polygon fill="none" stroke="#bfbfbf" points="0,-56.5 0,-75.5 44,-75.5 44,-56.5 0,-56.5"/>
<text text-anchor="middle" x="22" y="-63.5" font-family="FreeSans.ttf" font-size="10.00" fill="#000000">string</text>
</g>
<!-- Node2&#45;&gt;Node14 -->
<g id="edge15" class="edge">
<title>Node2&#45;&gt;Node14</title>
<path fill="none" stroke="#191970" d="M259.1439,-112.4782C203.9044,-105.1223 128.6264,-93.5788 54.2466,-76.0226"/>
<polygon fill="#191970" stroke="#191970" points="54.776,-72.5503 44.2355,-73.6213 53.1433,-79.3573 54.776,-72.5503"/>
</g>
<!-- Node15 -->
<g id="node16" class="node">
<title>Node15</title>
<polygon fill="none" stroke="#bfbfbf" points="384,-56.5 384,-75.5 440,-75.5 440,-56.5 384,-56.5"/>
<text text-anchor="middle" x="412" y="-63.5" font-family="FreeSans.ttf" font-size="10.00" fill="#000000">sstream</text>
</g>
<!-- Node2&#45;&gt;Node15 -->
<g id="edge16" class="edge">
<title>Node2&#45;&gt;Node15</title>
<path fill="none" stroke="#191970" d="M351.7156,-112.2455C362.602,-103.8943 378.4883,-91.7076 391.22,-81.9408"/>
<polygon fill="#191970" stroke="#191970" points="393.6261,-84.5063 399.4301,-75.6427 389.3654,-78.9523 393.6261,-84.5063"/>
</g>
<!-- Node16 -->
<g id="node17" class="node">
<title>Node16</title>
<polygon fill="none" stroke="#bfbfbf" points="178,-56.5 178,-75.5 228,-75.5 228,-56.5 178,-56.5"/>
<text text-anchor="middle" x="203" y="-63.5" font-family="FreeSans.ttf" font-size="10.00" fill="#000000">cstring</text>
</g>
<!-- Node2&#45;&gt;Node16 -->
<g id="edge18" class="edge">
<title>Node2&#45;&gt;Node16</title>
<path fill="none" stroke="#191970" d="M315.6208,-112.3733C293.4955,-103.2629 260.0866,-89.5062 235.3981,-79.3404"/>
<polygon fill="#191970" stroke="#191970" points="236.6536,-76.0723 226.0742,-75.5011 233.9883,-82.5451 236.6536,-76.0723"/>
</g>
<!-- Node4 -->
<g id="node5" class="node">
<title>Node4</title>
<polygon fill="none" stroke="#bfbfbf" points="299.5,-.5 299.5,-19.5 352.5,-19.5 352.5,-.5 299.5,-.5"/>
<text text-anchor="middle" x="326" y="-7.5" font-family="FreeSans.ttf" font-size="10.00" fill="#000000">cstddef</text>
</g>
<!-- Node3&#45;&gt;Node4 -->
<g id="edge4" class="edge">
<title>Node3&#45;&gt;Node4</title>
<path fill="none" stroke="#191970" d="M309.4837,-56.2455C312.1508,-48.7776 315.9133,-38.2427 319.1737,-29.1137"/>
<polygon fill="#191970" stroke="#191970" points="322.4889,-30.2373 322.5562,-19.6427 315.8967,-27.8829 322.4889,-30.2373"/>
</g>
<!-- Node5&#45;&gt;Node4 -->
<g id="edge9" class="edge">
<title>Node5&#45;&gt;Node4</title>
<path fill="none" stroke="#191970" d="M514.2773,-56.4299C476.7785,-47.916 420.5404,-34.873 362.4254,-20.0376"/>
<polygon fill="#191970" stroke="#191970" points="363.2612,-16.6388 352.7051,-17.5438 361.5215,-23.4192 363.2612,-16.6388"/>
</g>
<!-- Node5&#45;&gt;Node6 -->
<g id="edge6" class="edge">
<title>Node5&#45;&gt;Node6</title>
<path fill="none" stroke="#191970" d="M496.4446,-57.2891C442.3089,-49.0843 360.9596,-35.7246 291,-20 290.9011,-19.9778 290.8021,-19.9554 290.7029,-19.933"/>
<polygon fill="#191970" stroke="#191970" points="291.8151,-16.602 281.2696,-17.623 290.1501,-23.4011 291.8151,-16.602"/>
</g>
<!-- Node7 -->
<g id="node8" class="node">
<title>Node7</title>
<polygon fill="none" stroke="#bfbfbf" points="434,-.5 434,-19.5 498,-19.5 498,-.5 434,-.5"/>
<text text-anchor="middle" x="466" y="-7.5" font-family="FreeSans.ttf" font-size="10.00" fill="#000000">algorithm</text>
</g>
<!-- Node5&#45;&gt;Node7 -->
<g id="edge7" class="edge">
<title>Node5&#45;&gt;Node7</title>
<path fill="none" stroke="#191970" d="M541.149,-56.2455C527.1868,-47.6534 506.6272,-35.0014 490.5404,-25.1018"/>
<polygon fill="#191970" stroke="#191970" points="492.0203,-21.9029 481.6693,-19.6427 488.3516,-27.8645 492.0203,-21.9029"/>
</g>
<!-- Node8 -->
<g id="node9" class="node">
<title>Node8</title>
<polygon fill="none" stroke="#bfbfbf" points="516,-.5 516,-19.5 558,-19.5 558,-.5 516,-.5"/>
<text text-anchor="middle" x="537" y="-7.5" font-family="FreeSans.ttf" font-size="10.00" fill="#000000">array</text>
</g>
<!-- Node5&#45;&gt;Node8 -->
<g id="edge8" class="edge">
<title>Node5&#45;&gt;Node8</title>
<path fill="none" stroke="#191970" d="M553.5163,-56.2455C550.8492,-48.7776 547.0867,-38.2427 543.8263,-29.1137"/>
<polygon fill="#191970" stroke="#191970" points="547.1033,-27.8829 540.4438,-19.6427 540.5111,-30.2373 547.1033,-27.8829"/>
</g>
<!-- Node9 -->
<g id="node10" class="node">
<title>Node9</title>
<polygon fill="none" stroke="#bfbfbf" points="576.5,-.5 576.5,-19.5 629.5,-19.5 629.5,-.5 576.5,-.5"/>
<text text-anchor="middle" x="603" y="-7.5" font-family="FreeSans.ttf" font-size="10.00" fill="#000000">iterator</text>
</g>
<!-- Node5&#45;&gt;Node9 -->
<g id="edge10" class="edge">
<title>Node5&#45;&gt;Node9</title>
<path fill="none" stroke="#191970" d="M565.0126,-56.2455C571.4768,-48.3761 580.7385,-37.101 588.4983,-27.6542"/>
<polygon fill="#191970" stroke="#191970" points="591.4364,-29.5916 595.0792,-19.6427 586.0273,-25.1484 591.4364,-29.5916"/>
</g>
<!-- Node10 -->
<g id="node11" class="node">
<title>Node10</title>
<polygon fill="none" stroke="#bfbfbf" points="648,-.5 648,-19.5 692,-19.5 692,-.5 648,-.5"/>
<text text-anchor="middle" x="670" y="-7.5" font-family="FreeSans.ttf" font-size="10.00" fill="#000000">limits</text>
</g>
<!-- Node5&#45;&gt;Node10 -->
<g id="edge11" class="edge">
<title>Node5&#45;&gt;Node10</title>
<path fill="none" stroke="#191970" d="M576.4254,-56.3733C594.4021,-47.4644 621.3441,-34.1127 641.709,-24.0203"/>
<polygon fill="#191970" stroke="#191970" points="643.4222,-27.0776 650.8281,-19.5011 640.3139,-20.8055 643.4222,-27.0776"/>
</g>
<!-- Node11 -->
<g id="node12" class="node">
<title>Node11</title>
<polygon fill="none" stroke="#bfbfbf" points="710.5,-.5 710.5,-19.5 775.5,-19.5 775.5,-.5 710.5,-.5"/>
<text text-anchor="middle" x="743" y="-7.5" font-family="FreeSans.ttf" font-size="10.00" fill="#000000">stdexcept</text>
</g>
<!-- Node5&#45;&gt;Node11 -->
<g id="edge12" class="edge">
<title>Node5&#45;&gt;Node11</title>
<path fill="none" stroke="#191970" d="M588.9745,-56.3733C620.1713,-46.9807 667.771,-32.6496 701.7932,-22.4064"/>
<polygon fill="#191970" stroke="#191970" points="702.8763,-25.7355 711.4427,-19.5011 700.8582,-19.0327 702.8763,-25.7355"/>
</g>
<!-- Node12 -->
<g id="node13" class="node">
<title>Node12</title>
<polygon fill="none" stroke="#bfbfbf" points="793.5,-.5 793.5,-19.5 862.5,-19.5 862.5,-.5 793.5,-.5"/>
<text text-anchor="middle" x="828" y="-7.5" font-family="FreeSans.ttf" font-size="10.00" fill="#000000">type_traits</text>
</g>
<!-- Node5&#45;&gt;Node12 -->
<g id="edge13" class="edge">
<title>Node5&#45;&gt;Node12</title>
<path fill="none" stroke="#191970" d="M606.4557,-56.4577C650.5299,-47.8554 717.0409,-34.6339 783.4858,-20.2895"/>
<polygon fill="#191970" stroke="#191970" points="784.2543,-23.7043 793.2859,-18.1653 782.7715,-16.8631 784.2543,-23.7043"/>
</g>
<!-- Node13 -->
<g id="node14" class="node">
<title>Node13</title>
<polygon fill="none" stroke="#bfbfbf" points="370.5,-.5 370.5,-19.5 415.5,-19.5 415.5,-.5 370.5,-.5"/>
<text text-anchor="middle" x="393" y="-7.5" font-family="FreeSans.ttf" font-size="10.00" fill="#000000">utility</text>
</g>
<!-- Node5&#45;&gt;Node13 -->
<g id="edge14" class="edge">
<title>Node5&#45;&gt;Node13</title>
<path fill="none" stroke="#191970" d="M528.8074,-56.3733C500.0091,-46.5397 455.3581,-31.293 425.1895,-20.9916"/>
<polygon fill="#191970" stroke="#191970" points="426.152,-17.6218 415.5575,-17.7026 423.89,-24.2463 426.152,-17.6218"/>
</g>
<!-- Node17&#45;&gt;Node1 -->
<g id="edge21" class="edge">
<title>Node17&#45;&gt;Node1</title>
<path fill="none" stroke="#191970" d="M248.1605,-224.2455C265.5111,-215.4125 291.2901,-202.2887 310.9583,-192.2758"/>
<polygon fill="#191970" stroke="#191970" points="312.7353,-195.2986 320.059,-187.6427 309.5595,-189.0605 312.7353,-195.2986"/>
</g>
<!-- Node17&#45;&gt;Node2 -->
<g id="edge31" class="edge">
<title>Node17&#45;&gt;Node2</title>
<path fill="none" stroke="#191970" d="M229.5869,-224.375C230.9055,-210.447 235.178,-184.535 249,-168 261.3243,-153.2567 279.5733,-142.7095 296.423,-135.4663"/>
<polygon fill="#191970" stroke="#191970" points="298.147,-138.5461 306.1269,-131.5767 295.5425,-132.0486 298.147,-138.5461"/>
</g>
<!-- Node17&#45;&gt;Node14 -->
<g id="edge20" class="edge">
<title>Node17&#45;&gt;Node14</title>
<path fill="none" stroke="#191970" d="M160.4276,-226.2978C111.164,-219.261 50.6302,-207.0152 34,-188 9.2356,-159.6842 12.9471,-112.3119 17.6182,-85.6955"/>
<polygon fill="#191970" stroke="#191970" points="21.0932,-86.1642 19.5987,-75.6753 14.2261,-84.8068 21.0932,-86.1642"/>
</g>
<!-- Node18 -->
<g id="node19" class="node">
<title>Node18</title>
<g id="a_node19"><a xlink:href="RotationRaw_8h.html" target="_top" xlink:title="iDynTree/Core/RotationRaw.h">
<polygon fill="none" stroke="#000000" points="43,-168.5 43,-187.5 201,-187.5 201,-168.5 43,-168.5"/>
<text text-anchor="middle" x="122" y="-175.5" font-family="FreeSans.ttf" font-size="10.00" fill="#000000">iDynTree/Core/RotationRaw.h</text>
</a>
</g>
</g>
<!-- Node17&#45;&gt;Node18 -->
<g id="edge22" class="edge">
<title>Node17&#45;&gt;Node18</title>
<path fill="none" stroke="#191970" d="M210.362,-224.2455C193.5614,-215.4527 168.6366,-202.4079 149.5382,-192.4125"/>
<polygon fill="#191970" stroke="#191970" points="150.9073,-189.1787 140.4244,-187.6427 147.6614,-195.3807 150.9073,-189.1787"/>
</g>
<!-- Node18&#45;&gt;Node14 -->
<g id="edge30" class="edge">
<title>Node18&#45;&gt;Node14</title>
<path fill="none" stroke="#191970" d="M109.7586,-168.4535C98.7659,-159.5926 82.4841,-145.7365 70,-132 56.3735,-117.0065 42.993,-98.1697 33.8356,-84.4618"/>
<polygon fill="#191970" stroke="#191970" points="36.6313,-82.3426 28.2194,-75.9013 30.7785,-86.1824 36.6313,-82.3426"/>
</g>
<!-- Node19 -->
<g id="node20" class="node">
<title>Node19</title>
<g id="a_node20"><a xlink:href="MatrixFixSize_8h.html" target="_top" xlink:title="iDynTree/Core/MatrixFixSize.h">
<polygon fill="none" stroke="#000000" points="79.5,-112.5 79.5,-131.5 240.5,-131.5 240.5,-112.5 79.5,-112.5"/>
<text text-anchor="middle" x="160" y="-119.5" font-family="FreeSans.ttf" font-size="10.00" fill="#000000">iDynTree/Core/MatrixFixSize.h</text>
</a>
</g>
</g>
<!-- Node18&#45;&gt;Node19 -->
<g id="edge23" class="edge">
<title>Node18&#45;&gt;Node19</title>
<path fill="none" stroke="#191970" d="M128.6191,-168.2455C133.9046,-160.4564 141.4541,-149.3308 147.8238,-139.9439"/>
<polygon fill="#191970" stroke="#191970" points="150.7379,-141.8827 153.4568,-131.6427 144.9455,-137.9522 150.7379,-141.8827"/>
</g>
<!-- Node19&#45;&gt;Node3 -->
<g id="edge24" class="edge">
<title>Node19&#45;&gt;Node3</title>
<path fill="none" stroke="#191970" d="M185.0983,-112.3733C208.9555,-103.2226 245.0335,-89.3844 271.571,-79.2057"/>
<polygon fill="#191970" stroke="#191970" points="273.1459,-82.3503 281.2292,-75.5011 270.639,-75.8145 273.1459,-82.3503"/>
</g>
<!-- Node19&#45;&gt;Node6 -->
<g id="edge25" class="edge">
<title>Node19&#45;&gt;Node6</title>
<path fill="none" stroke="#191970" d="M158.7246,-112.0593C157.4879,-98.2071 157.2486,-72.9006 169,-56 180.9077,-38.8746 201.2691,-27.5792 219.191,-20.4685"/>
<polygon fill="#191970" stroke="#191970" points="220.6418,-23.6646 228.8275,-16.9382 218.2338,-17.0918 220.6418,-23.6646"/>
</g>
<!-- Node19&#45;&gt;Node14 -->
<g id="edge27" class="edge">
<title>Node19&#45;&gt;Node14</title>
<path fill="none" stroke="#191970" d="M136.277,-112.3733C113.4182,-103.0972 78.6896,-89.0045 53.517,-78.7895"/>
<polygon fill="#191970" stroke="#191970" points="54.63,-75.464 44.0478,-74.9469 51.9978,-81.9503 54.63,-75.464"/>
</g>
<!-- Node19&#45;&gt;Node15 -->
<g id="edge29" class="edge">
<title>Node19&#45;&gt;Node15</title>
<path fill="none" stroke="#191970" d="M207.9855,-112.4946C249.4485,-104.11 311.1995,-91.2154 373.7202,-76.2228"/>
<polygon fill="#191970" stroke="#191970" points="374.859,-79.5485 383.758,-73.7989 373.2158,-72.744 374.859,-79.5485"/>
</g>
<!-- Node19&#45;&gt;Node16 -->
<g id="edge26" class="edge">
<title>Node19&#45;&gt;Node16</title>
<path fill="none" stroke="#191970" d="M167.49,-112.2455C173.5326,-104.3761 182.1903,-93.101 189.4441,-83.6542"/>
<polygon fill="#191970" stroke="#191970" points="192.2815,-85.7058 195.5958,-75.6427 186.7295,-81.4426 192.2815,-85.7058"/>
</g>
<!-- Node20 -->
<g id="node21" class="node">
<title>Node20</title>
<polygon fill="none" stroke="#bfbfbf" points="62,-56.5 62,-75.5 122,-75.5 122,-56.5 62,-56.5"/>
<text text-anchor="middle" x="92" y="-63.5" font-family="FreeSans.ttf" font-size="10.00" fill="#000000">iostream</text>
</g>
<!-- Node19&#45;&gt;Node20 -->
<g id="edge28" class="edge">
<title>Node19&#45;&gt;Node20</title>
<path fill="none" stroke="#191970" d="M148.1553,-112.2455C138.112,-103.9746 123.5005,-91.9416 111.6996,-82.2232"/>
<polygon fill="#191970" stroke="#191970" points="113.6533,-79.298 103.709,-75.6427 109.2033,-84.7015 113.6533,-79.298"/>
</g>
</g>
</svg>
