<?xml version="1.0" encoding="UTF-8" standalone="no"?>
<!DOCTYPE svg PUBLIC "-//W3C//DTD SVG 1.1//EN"
 "http://www.w3.org/Graphics/SVG/1.1/DTD/svg11.dtd">
<!-- Generated by graphviz version 2.40.1 (20161225.0304)
 -->
<!-- Title: GeometryElement.cpp Pages: 1 -->
<svg width="1792pt" height="476pt"
 viewBox="0.00 0.00 1791.50 476.00" xmlns="http://www.w3.org/2000/svg" xmlns:xlink="http://www.w3.org/1999/xlink">
<g id="graph0" class="graph" transform="scale(1 1) rotate(0) translate(4 472)">
<title>GeometryElement.cpp</title>
<!-- Node0 -->
<g id="node1" class="node">
<title>Node0</title>
<polygon fill="#bfbfbf" stroke="#000000" points="506.5,-448.5 506.5,-467.5 632.5,-467.5 632.5,-448.5 506.5,-448.5"/>
<text text-anchor="middle" x="569.5" y="-455.5" font-family="FreeSans.ttf" font-size="10.00" fill="#000000">GeometryElement.cpp</text>
</g>
<!-- Node1 -->
<g id="node2" class="node">
<title>Node1</title>
<g id="a_node2"><a xlink:href="GeometryElement_8h.html" target="_top" xlink:title="GeometryElement.h">
<polygon fill="none" stroke="#000000" points="219,-392.5 219,-411.5 334,-411.5 334,-392.5 219,-392.5"/>
<text text-anchor="middle" x="276.5" y="-399.5" font-family="FreeSans.ttf" font-size="10.00" fill="#000000">GeometryElement.h</text>
</a>
</g>
</g>
<!-- Node0&#45;&gt;Node1 -->
<g id="edge1" class="edge">
<title>Node0&#45;&gt;Node1</title>
<path fill="none" stroke="#191970" d="M519.4644,-448.4369C468.793,-438.7522 390.4052,-423.7703 336.4441,-413.4569"/>
<polygon fill="#191970" stroke="#191970" points="336.8085,-409.9633 326.3292,-411.5237 335.4943,-416.8388 336.8085,-409.9633"/>
</g>
<!-- Node8 -->
<g id="node9" class="node">
<title>Node8</title>
<g id="a_node9"><a xlink:href="URDFParsingUtils_8h.html" target="_top" xlink:title="URDFParsingUtils.h">
<polygon fill="none" stroke="#000000" points="917.5,-392.5 917.5,-411.5 1027.5,-411.5 1027.5,-392.5 917.5,-392.5"/>
<text text-anchor="middle" x="972.5" y="-399.5" font-family="FreeSans.ttf" font-size="10.00" fill="#000000">URDFParsingUtils.h</text>
</a>
</g>
</g>
<!-- Node0&#45;&gt;Node8 -->
<g id="edge8" class="edge">
<title>Node0&#45;&gt;Node8</title>
<path fill="none" stroke="#191970" d="M632.9121,-449.1884C707.6434,-438.8039 831.201,-421.6346 906.8791,-411.1185"/>
<polygon fill="#191970" stroke="#191970" points="907.8067,-414.5234 917.2297,-409.6802 906.8432,-407.59 907.8067,-414.5234"/>
</g>
<!-- Node16 -->
<g id="node17" class="node">
<title>Node16</title>
<g id="a_node17"><a xlink:href="Utils_8h.html" target="_top" xlink:title="iDynTree/Core/Utils.h">
<polygon fill="none" stroke="#000000" points="1226,-56.5 1226,-75.5 1345,-75.5 1345,-56.5 1226,-56.5"/>
<text text-anchor="middle" x="1285.5" y="-63.5" font-family="FreeSans.ttf" font-size="10.00" fill="#000000">iDynTree/Core/Utils.h</text>
</a>
</g>
</g>
<!-- Node0&#45;&gt;Node16 -->
<g id="edge57" class="edge">
<title>Node0&#45;&gt;Node16</title>
<path fill="none" stroke="#191970" d="M632.5929,-455.4966C817.3902,-447.3319 1344.5,-417.7542 1344.5,-346 1344.5,-346 1344.5,-346 1344.5,-178 1344.5,-140.9131 1318.8634,-104.0541 1301.3885,-83.2374"/>
<polygon fill="#191970" stroke="#191970" points="1303.9288,-80.8251 1294.7188,-75.5881 1298.6528,-85.4255 1303.9288,-80.8251"/>
</g>
<!-- Node34 -->
<g id="node35" class="node">
<title>Node34</title>
<g id="a_node35"><a xlink:href="XMLAttribute_8h.html" target="_top" xlink:title="iDynTree/XMLAttribute.h">
<polygon fill="none" stroke="#000000" points="308.5,-224.5 308.5,-243.5 442.5,-243.5 442.5,-224.5 308.5,-224.5"/>
<text text-anchor="middle" x="375.5" y="-231.5" font-family="FreeSans.ttf" font-size="10.00" fill="#000000">iDynTree/XMLAttribute.h</text>
</a>
</g>
</g>
<!-- Node0&#45;&gt;Node34 -->
<g id="edge55" class="edge">
<title>Node0&#45;&gt;Node34</title>
<path fill="none" stroke="#191970" d="M544.2199,-448.3589C525.2358,-440.3739 499.2249,-427.7934 479.5,-412 428.9935,-371.5603 413.4171,-358.8366 386.5,-300 379.8551,-285.4753 377.1749,-267.5132 376.1175,-253.9964"/>
<polygon fill="#191970" stroke="#191970" points="379.604,-253.6533 375.5594,-243.8609 372.6146,-254.0382 379.604,-253.6533"/>
</g>
<!-- Node35 -->
<g id="node36" class="node">
<title>Node35</title>
<g id="a_node36"><a xlink:href="SolidShapes_8h.html" target="_top" xlink:title="iDynTree/Model/SolidShapes.h">
<polygon fill="none" stroke="#000000" points="488,-392.5 488,-411.5 651,-411.5 651,-392.5 488,-392.5"/>
<text text-anchor="middle" x="569.5" y="-399.5" font-family="FreeSans.ttf" font-size="10.00" fill="#000000">iDynTree/Model/SolidShapes.h</text>
</a>
</g>
</g>
<!-- Node0&#45;&gt;Node35 -->
<g id="edge58" class="edge">
<title>Node0&#45;&gt;Node35</title>
<path fill="none" stroke="#191970" d="M569.5,-448.2455C569.5,-440.9382 569.5,-430.6944 569.5,-421.7046"/>
<polygon fill="#191970" stroke="#191970" points="573.0001,-421.6426 569.5,-411.6427 566.0001,-421.6427 573.0001,-421.6426"/>
</g>
<!-- Node2 -->
<g id="node3" class="node">
<title>Node2</title>
<g id="a_node3"><a xlink:href="XMLElement_8h.html" target="_top" xlink:title="iDynTree/XMLElement.h">
<polygon fill="none" stroke="#000000" points="182.5,-336.5 182.5,-355.5 314.5,-355.5 314.5,-336.5 182.5,-336.5"/>
<text text-anchor="middle" x="248.5" y="-343.5" font-family="FreeSans.ttf" font-size="10.00" fill="#000000">iDynTree/XMLElement.h</text>
</a>
</g>
</g>
<!-- Node1&#45;&gt;Node2 -->
<g id="edge2" class="edge">
<title>Node1&#45;&gt;Node2</title>
<path fill="none" stroke="#191970" d="M271.6228,-392.2455C267.8487,-384.6973 262.5079,-374.0158 257.9099,-364.8197"/>
<polygon fill="#191970" stroke="#191970" points="260.924,-363.0217 253.3213,-355.6427 254.663,-366.1522 260.924,-363.0217"/>
</g>
<!-- Node3 -->
<g id="node4" class="node">
<title>Node3</title>
<polygon fill="none" stroke="#bfbfbf" points="111,-280.5 111,-299.5 176,-299.5 176,-280.5 111,-280.5"/>
<text text-anchor="middle" x="143.5" y="-287.5" font-family="FreeSans.ttf" font-size="10.00" fill="#000000">functional</text>
</g>
<!-- Node2&#45;&gt;Node3 -->
<g id="edge3" class="edge">
<title>Node2&#45;&gt;Node3</title>
<path fill="none" stroke="#191970" d="M230.2104,-336.2455C213.7238,-327.4527 189.2648,-314.4079 170.5235,-304.4125"/>
<polygon fill="#191970" stroke="#191970" points="172.0506,-301.2604 161.58,-299.6427 168.7565,-307.4368 172.0506,-301.2604"/>
</g>
<!-- Node4 -->
<g id="node5" class="node">
<title>Node4</title>
<polygon fill="none" stroke="#bfbfbf" points="194.5,-280.5 194.5,-299.5 252.5,-299.5 252.5,-280.5 194.5,-280.5"/>
<text text-anchor="middle" x="223.5" y="-287.5" font-family="FreeSans.ttf" font-size="10.00" fill="#000000">memory</text>
</g>
<!-- Node2&#45;&gt;Node4 -->
<g id="edge4" class="edge">
<title>Node2&#45;&gt;Node4</title>
<path fill="none" stroke="#191970" d="M244.1453,-336.2455C240.7756,-328.6973 236.007,-318.0158 231.9017,-308.8197"/>
<polygon fill="#191970" stroke="#191970" points="235.0773,-307.3473 227.8048,-299.6427 228.6853,-310.2009 235.0773,-307.3473"/>
</g>
<!-- Node5 -->
<g id="node6" class="node">
<title>Node5</title>
<polygon fill="none" stroke="#bfbfbf" points="630.5,-56.5 630.5,-75.5 674.5,-75.5 674.5,-56.5 630.5,-56.5"/>
<text text-anchor="middle" x="652.5" y="-63.5" font-family="FreeSans.ttf" font-size="10.00" fill="#000000">string</text>
</g>
<!-- Node2&#45;&gt;Node5 -->
<g id="edge5" class="edge">
<title>Node2&#45;&gt;Node5</title>
<path fill="none" stroke="#191970" d="M253.2217,-336.3774C262.123,-317.3222 280.5,-273.2317 280.5,-234 280.5,-234 280.5,-234 280.5,-178 280.5,-107.3546 529.5957,-77.3307 620.1179,-68.7523"/>
<polygon fill="#191970" stroke="#191970" points="620.7066,-72.213 630.3437,-67.8111 620.065,-65.2424 620.7066,-72.213"/>
</g>
<!-- Node6 -->
<g id="node7" class="node">
<title>Node6</title>
<polygon fill="none" stroke="#bfbfbf" points="0,-280.5 0,-299.5 93,-299.5 93,-280.5 0,-280.5"/>
<text text-anchor="middle" x="46.5" y="-287.5" font-family="FreeSans.ttf" font-size="10.00" fill="#000000">unordered_map</text>
</g>
<!-- Node2&#45;&gt;Node6 -->
<g id="edge6" class="edge">
<title>Node2&#45;&gt;Node6</title>
<path fill="none" stroke="#191970" d="M213.775,-336.3733C179.7492,-326.9404 127.7563,-312.5265 90.7766,-302.2747"/>
<polygon fill="#191970" stroke="#191970" points="91.3435,-298.7999 80.7719,-299.5011 89.4734,-305.5455 91.3435,-298.7999"/>
</g>
<!-- Node7 -->
<g id="node8" class="node">
<title>Node7</title>
<polygon fill="none" stroke="#bfbfbf" points="395,-280.5 395,-299.5 442,-299.5 442,-280.5 395,-280.5"/>
<text text-anchor="middle" x="418.5" y="-287.5" font-family="FreeSans.ttf" font-size="10.00" fill="#000000">vector</text>
</g>
<!-- Node2&#45;&gt;Node7 -->
<g id="edge7" class="edge">
<title>Node2&#45;&gt;Node7</title>
<path fill="none" stroke="#191970" d="M277.724,-336.3733C307.62,-326.5252 353.9974,-311.2479 385.2714,-300.9459"/>
<polygon fill="#191970" stroke="#191970" points="386.4517,-304.2422 394.8545,-297.7891 384.2615,-297.5936 386.4517,-304.2422"/>
</g>
<!-- Node8&#45;&gt;Node5 -->
<g id="edge12" class="edge">
<title>Node8&#45;&gt;Node5</title>
<path fill="none" stroke="#191970" d="M972.5,-392.4116C972.5,-373.0538 972.5,-327.9167 972.5,-290 972.5,-290 972.5,-290 972.5,-234 972.5,-203.4754 974.2616,-190.3765 953.5,-168 916.1085,-127.7001 754.5501,-88.3366 684.7836,-72.8697"/>
<polygon fill="#191970" stroke="#191970" points="685.3118,-69.4024 674.7942,-70.6797 683.8127,-76.24 685.3118,-69.4024"/>
</g>
<!-- Node8&#45;&gt;Node7 -->
<g id="edge13" class="edge">
<title>Node8&#45;&gt;Node7</title>
<path fill="none" stroke="#191970" d="M917.1683,-392.6558C865.437,-383.7687 786.0874,-369.7508 717.5,-356 620.7916,-336.6114 507.2029,-310.6579 452.0033,-297.8404"/>
<polygon fill="#191970" stroke="#191970" points="452.6113,-294.3885 442.0783,-295.5311 451.025,-301.2064 452.6113,-294.3885"/>
</g>
<!-- Node9 -->
<g id="node10" class="node">
<title>Node9</title>
<polygon fill="none" stroke="#bfbfbf" points="1001,-336.5 1001,-355.5 1048,-355.5 1048,-336.5 1001,-336.5"/>
<text text-anchor="middle" x="1024.5" y="-343.5" font-family="FreeSans.ttf" font-size="10.00" fill="#000000">cmath</text>
</g>
<!-- Node8&#45;&gt;Node9 -->
<g id="edge9" class="edge">
<title>Node8&#45;&gt;Node9</title>
<path fill="none" stroke="#191970" d="M981.5577,-392.2455C989.0142,-384.2155 999.7634,-372.6394 1008.6417,-363.0781"/>
<polygon fill="#191970" stroke="#191970" points="1011.3063,-365.3522 1015.5461,-355.6427 1006.1768,-360.589 1011.3063,-365.3522"/>
</g>
<!-- Node10 -->
<g id="node11" class="node">
<title>Node10</title>
<polygon fill="none" stroke="#bfbfbf" points="551,-336.5 551,-355.5 600,-355.5 600,-336.5 551,-336.5"/>
<text text-anchor="middle" x="575.5" y="-343.5" font-family="FreeSans.ttf" font-size="10.00" fill="#000000">cstdlib</text>
</g>
<!-- Node8&#45;&gt;Node10 -->
<g id="edge10" class="edge">
<title>Node8&#45;&gt;Node10</title>
<path fill="none" stroke="#191970" d="M917.2989,-394.2134C834.2111,-382.4933 679.3989,-360.6558 610.3285,-350.9128"/>
<polygon fill="#191970" stroke="#191970" points="610.7813,-347.4421 600.3905,-349.511 609.8036,-354.3735 610.7813,-347.4421"/>
</g>
<!-- Node11 -->
<g id="node12" class="node">
<title>Node11</title>
<polygon fill="none" stroke="#bfbfbf" points="1113.5,-56.5 1113.5,-75.5 1169.5,-75.5 1169.5,-56.5 1113.5,-56.5"/>
<text text-anchor="middle" x="1141.5" y="-63.5" font-family="FreeSans.ttf" font-size="10.00" fill="#000000">sstream</text>
</g>
<!-- Node8&#45;&gt;Node11 -->
<g id="edge11" class="edge">
<title>Node8&#45;&gt;Node11</title>
<path fill="none" stroke="#191970" d="M1027.5628,-398.2093C1077.7134,-393.2158 1152.9593,-381.8032 1213.5,-356 1260.1259,-336.1275 1306.5,-340.6842 1306.5,-290 1306.5,-290 1306.5,-290 1306.5,-178 1306.5,-147.4754 1308.8135,-133.8515 1287.5,-112 1272.4467,-96.5668 1217.8305,-82.2191 1179.8457,-73.7801"/>
<polygon fill="#191970" stroke="#191970" points="1180.1346,-70.2613 1169.6197,-71.5605 1178.6497,-77.1021 1180.1346,-70.2613"/>
</g>
<!-- Node12 -->
<g id="node13" class="node">
<title>Node12</title>
<g id="a_node13"><a xlink:href="Transform_8h.html" target="_top" xlink:title="iDynTree/Core/Transform.h">
<polygon fill="none" stroke="#000000" points="726.5,-336.5 726.5,-355.5 872.5,-355.5 872.5,-336.5 726.5,-336.5"/>
<text text-anchor="middle" x="799.5" y="-343.5" font-family="FreeSans.ttf" font-size="10.00" fill="#000000">iDynTree/Core/Transform.h</text>
</a>
</g>
</g>
<!-- Node8&#45;&gt;Node12 -->
<g id="edge14" class="edge">
<title>Node8&#45;&gt;Node12</title>
<path fill="none" stroke="#191970" d="M942.7602,-392.3733C913.993,-383.0613 870.23,-368.8953 838.6444,-358.671"/>
<polygon fill="#191970" stroke="#191970" points="839.4436,-355.251 828.8517,-355.5011 837.2878,-361.9107 839.4436,-355.251"/>
</g>
<!-- Node15 -->
<g id="node16" class="node">
<title>Node15</title>
<g id="a_node16"><a xlink:href="VectorFixSize_8h.html" target="_top" xlink:title="iDynTree/Core/VectorFixSize.h">
<polygon fill="none" stroke="#000000" points="1117,-112.5 1117,-131.5 1278,-131.5 1278,-112.5 1117,-112.5"/>
<text text-anchor="middle" x="1197.5" y="-119.5" font-family="FreeSans.ttf" font-size="10.00" fill="#000000">iDynTree/Core/VectorFixSize.h</text>
</a>
</g>
</g>
<!-- Node8&#45;&gt;Node15 -->
<g id="edge53" class="edge">
<title>Node8&#45;&gt;Node15</title>
<path fill="none" stroke="#191970" d="M1027.8281,-392.7263C1113.5012,-376.7782 1268.5,-340.8924 1268.5,-290 1268.5,-290 1268.5,-290 1268.5,-234 1268.5,-195.2128 1237.7491,-158.9698 1216.7224,-138.7214"/>
<polygon fill="#191970" stroke="#191970" points="1218.9378,-136.0026 1209.2242,-131.7722 1214.1796,-141.1368 1218.9378,-136.0026"/>
</g>
<!-- Node33 -->
<g id="node34" class="node">
<title>Node33</title>
<polygon fill="none" stroke="#bfbfbf" points="1066.5,-336.5 1066.5,-355.5 1124.5,-355.5 1124.5,-336.5 1066.5,-336.5"/>
<text text-anchor="middle" x="1095.5" y="-343.5" font-family="FreeSans.ttf" font-size="10.00" fill="#000000">fpconv.h</text>
</g>
<!-- Node8&#45;&gt;Node33 -->
<g id="edge54" class="edge">
<title>Node8&#45;&gt;Node33</title>
<path fill="none" stroke="#191970" d="M993.6445,-392.3733C1013.3892,-383.3838 1043.0698,-369.8706 1065.3055,-359.7471"/>
<polygon fill="#191970" stroke="#191970" points="1066.9806,-362.8302 1074.6315,-355.5011 1064.08,-356.4594 1066.9806,-362.8302"/>
</g>
<!-- Node12&#45;&gt;Node5 -->
<g id="edge52" class="edge">
<title>Node12&#45;&gt;Node5</title>
<path fill="none" stroke="#191970" d="M744.7651,-336.4886C660.4695,-320.2652 508.5,-284.0735 508.5,-234 508.5,-234 508.5,-234 508.5,-178 508.5,-121.5572 578.2848,-89.422 620.6938,-75.1043"/>
<polygon fill="#191970" stroke="#191970" points="621.8727,-78.4017 630.3156,-72.001 619.724,-71.7396 621.8727,-78.4017"/>
</g>
<!-- Node13 -->
<g id="node14" class="node">
<title>Node13</title>
<g id="a_node14"><a xlink:href="Position_8h.html" target="_top" xlink:title="iDynTree/Core/Position.h">
<polygon fill="none" stroke="#000000" points="654.5,-280.5 654.5,-299.5 790.5,-299.5 790.5,-280.5 654.5,-280.5"/>
<text text-anchor="middle" x="722.5" y="-287.5" font-family="FreeSans.ttf" font-size="10.00" fill="#000000">iDynTree/Core/Position.h</text>
</a>
</g>
</g>
<!-- Node12&#45;&gt;Node13 -->
<g id="edge15" class="edge">
<title>Node12&#45;&gt;Node13</title>
<path fill="none" stroke="#191970" d="M786.0876,-336.2455C774.4943,-327.814 757.5252,-315.4729 744.0322,-305.6598"/>
<polygon fill="#191970" stroke="#191970" points="745.9047,-302.6938 735.7587,-299.6427 741.7874,-308.355 745.9047,-302.6938"/>
</g>
<!-- Node28 -->
<g id="node29" class="node">
<title>Node28</title>
<g id="a_node29"><a xlink:href="Rotation_8h.html" target="_top" xlink:title="iDynTree/Core/Rotation.h">
<polygon fill="none" stroke="#000000" points="785,-224.5 785,-243.5 922,-243.5 922,-224.5 785,-224.5"/>
<text text-anchor="middle" x="853.5" y="-231.5" font-family="FreeSans.ttf" font-size="10.00" fill="#000000">iDynTree/Core/Rotation.h</text>
</a>
</g>
</g>
<!-- Node12&#45;&gt;Node28 -->
<g id="edge50" class="edge">
<title>Node12&#45;&gt;Node28</title>
<path fill="none" stroke="#191970" d="M804.104,-336.4509C813.0309,-317.936 832.8358,-276.8591 844.4749,-252.7187"/>
<polygon fill="#191970" stroke="#191970" points="847.7173,-254.0527 848.9076,-243.5249 841.4119,-251.0125 847.7173,-254.0527"/>
</g>
<!-- Node31 -->
<g id="node32" class="node">
<title>Node31</title>
<g id="a_node32"><a xlink:href="MatrixFixSize_8h.html" target="_top" xlink:title="iDynTree/Core/MatrixFixSize.h">
<polygon fill="none" stroke="#000000" points="938,-112.5 938,-131.5 1099,-131.5 1099,-112.5 938,-112.5"/>
<text text-anchor="middle" x="1018.5" y="-119.5" font-family="FreeSans.ttf" font-size="10.00" fill="#000000">iDynTree/Core/MatrixFixSize.h</text>
</a>
</g>
</g>
<!-- Node12&#45;&gt;Node31 -->
<g id="edge51" class="edge">
<title>Node12&#45;&gt;Node31</title>
<path fill="none" stroke="#191970" d="M872.6206,-338.7086C961.1241,-325.5254 1106.5955,-288.8942 1173.5,-188 1178.4124,-180.5919 1178.8166,-175.1236 1173.5,-168 1162.5275,-153.2981 1122.3511,-141.6172 1085.6538,-133.7051"/>
<polygon fill="#191970" stroke="#191970" points="1085.9263,-130.1868 1075.4227,-131.5741 1084.4988,-137.0397 1085.9263,-130.1868"/>
</g>
<!-- Node13&#45;&gt;Node5 -->
<g id="edge49" class="edge">
<title>Node13&#45;&gt;Node5</title>
<path fill="none" stroke="#191970" d="M692.476,-280.4902C654.9547,-266.7962 592.4045,-237.5634 565.5,-188 543.2652,-147.0393 594.7607,-103.6587 627.679,-81.3063"/>
<polygon fill="#191970" stroke="#191970" points="629.9596,-83.9957 636.3944,-75.5788 626.1152,-78.1459 629.9596,-83.9957"/>
</g>
<!-- Node14 -->
<g id="node15" class="node">
<title>Node14</title>
<g id="a_node15"><a xlink:href="PositionRaw_8h.html" target="_top" xlink:title="iDynTree/Core/PositionRaw.h">
<polygon fill="none" stroke="#000000" points="574.5,-168.5 574.5,-187.5 730.5,-187.5 730.5,-168.5 574.5,-168.5"/>
<text text-anchor="middle" x="652.5" y="-175.5" font-family="FreeSans.ttf" font-size="10.00" fill="#000000">iDynTree/Core/PositionRaw.h</text>
</a>
</g>
</g>
<!-- Node13&#45;&gt;Node14 -->
<g id="edge16" class="edge">
<title>Node13&#45;&gt;Node14</title>
<path fill="none" stroke="#191970" d="M716.5318,-280.4509C704.8567,-261.7707 678.8274,-220.1238 663.7976,-196.0761"/>
<polygon fill="#191970" stroke="#191970" points="666.7211,-194.1499 658.4531,-187.5249 660.7851,-197.8599 666.7211,-194.1499"/>
</g>
<!-- Node13&#45;&gt;Node28 -->
<g id="edge35" class="edge">
<title>Node13&#45;&gt;Node28</title>
<path fill="none" stroke="#191970" d="M745.0197,-280.3733C766.2372,-271.3032 798.2276,-257.6279 821.9769,-247.4755"/>
<polygon fill="#191970" stroke="#191970" points="823.4548,-250.6502 831.2742,-243.5011 820.7033,-244.2136 823.4548,-250.6502"/>
</g>
<!-- Node14&#45;&gt;Node5 -->
<g id="edge34" class="edge">
<title>Node14&#45;&gt;Node5</title>
<path fill="none" stroke="#191970" d="M652.5,-168.4509C652.5,-150.184 652.5,-109.9553 652.5,-85.6976"/>
<polygon fill="#191970" stroke="#191970" points="656.0001,-85.5249 652.5,-75.5249 649.0001,-85.5249 656.0001,-85.5249"/>
</g>
<!-- Node14&#45;&gt;Node15 -->
<g id="edge17" class="edge">
<title>Node14&#45;&gt;Node15</title>
<path fill="none" stroke="#191970" d="M730.7963,-170.3743C819.4368,-161.6794 968.4766,-146.8741 1106.6244,-132.1913"/>
<polygon fill="#191970" stroke="#191970" points="1107.4011,-135.6285 1116.9743,-131.0893 1106.6599,-128.6678 1107.4011,-135.6285"/>
</g>
<!-- Node15&#45;&gt;Node5 -->
<g id="edge30" class="edge">
<title>Node15&#45;&gt;Node5</title>
<path fill="none" stroke="#191970" d="M1116.9743,-112.9107C1114.1146,-112.6011 1111.283,-112.2967 1108.5,-112 949.7592,-95.0759 759.7513,-76.4252 684.9876,-69.1494"/>
<polygon fill="#191970" stroke="#191970" points="685.1023,-65.6442 674.8105,-68.1601 684.4249,-72.6113 685.1023,-65.6442"/>
</g>
<!-- Node15&#45;&gt;Node11 -->
<g id="edge31" class="edge">
<title>Node15&#45;&gt;Node11</title>
<path fill="none" stroke="#191970" d="M1187.7455,-112.2455C1179.6352,-104.1352 1167.9075,-92.4075 1158.2919,-82.7919"/>
<polygon fill="#191970" stroke="#191970" points="1160.6887,-80.2389 1151.1427,-75.6427 1155.7389,-85.1887 1160.6887,-80.2389"/>
</g>
<!-- Node15&#45;&gt;Node16 -->
<g id="edge18" class="edge">
<title>Node15&#45;&gt;Node16</title>
<path fill="none" stroke="#191970" d="M1212.8284,-112.2455C1226.3303,-103.6534 1246.2122,-91.0014 1261.7686,-81.1018"/>
<polygon fill="#191970" stroke="#191970" points="1263.7897,-83.9643 1270.3472,-75.6427 1260.0315,-78.0587 1263.7897,-83.9643"/>
</g>
<!-- Node18 -->
<g id="node19" class="node">
<title>Node18</title>
<g id="a_node19"><a xlink:href="Span_8h.html" target="_top" xlink:title="iDynTree/Core/Span.h">
<polygon fill="none" stroke="#000000" points="1404,-56.5 1404,-75.5 1525,-75.5 1525,-56.5 1404,-56.5"/>
<text text-anchor="middle" x="1464.5" y="-63.5" font-family="FreeSans.ttf" font-size="10.00" fill="#000000">iDynTree/Core/Span.h</text>
</a>
</g>
</g>
<!-- Node15&#45;&gt;Node18 -->
<g id="edge20" class="edge">
<title>Node15&#45;&gt;Node18</title>
<path fill="none" stroke="#191970" d="M1243.0956,-112.4369C1289.0785,-102.7925 1360.1088,-87.8948 1409.2606,-77.5858"/>
<polygon fill="#191970" stroke="#191970" points="1410.0239,-81.0019 1419.0925,-75.5237 1408.587,-74.151 1410.0239,-81.0019"/>
</g>
<!-- Node19 -->
<g id="node20" class="node">
<title>Node19</title>
<polygon fill="none" stroke="#bfbfbf" points="1150.5,-.5 1150.5,-19.5 1202.5,-19.5 1202.5,-.5 1150.5,-.5"/>
<text text-anchor="middle" x="1176.5" y="-7.5" font-family="FreeSans.ttf" font-size="10.00" fill="#000000">cassert</text>
</g>
<!-- Node15&#45;&gt;Node19 -->
<g id="edge32" class="edge">
<title>Node15&#45;&gt;Node19</title>
<path fill="none" stroke="#191970" d="M1195.7096,-112.4509C1192.269,-94.1013 1184.6733,-53.5908 1180.1317,-29.3693"/>
<polygon fill="#191970" stroke="#191970" points="1183.5689,-28.7086 1178.2859,-19.5249 1176.6888,-29.9986 1183.5689,-28.7086"/>
</g>
<!-- Node27 -->
<g id="node28" class="node">
<title>Node27</title>
<polygon fill="none" stroke="#bfbfbf" points="1045.5,-56.5 1045.5,-75.5 1095.5,-75.5 1095.5,-56.5 1045.5,-56.5"/>
<text text-anchor="middle" x="1070.5" y="-63.5" font-family="FreeSans.ttf" font-size="10.00" fill="#000000">cstring</text>
</g>
<!-- Node15&#45;&gt;Node27 -->
<g id="edge33" class="edge">
<title>Node15&#45;&gt;Node27</title>
<path fill="none" stroke="#191970" d="M1175.6679,-112.3733C1155.1897,-103.3435 1124.3601,-89.7494 1101.3681,-79.6111"/>
<polygon fill="#191970" stroke="#191970" points="1102.6093,-76.3333 1092.0472,-75.5011 1099.785,-82.7383 1102.6093,-76.3333"/>
</g>
<!-- Node17 -->
<g id="node18" class="node">
<title>Node17</title>
<polygon fill="none" stroke="#bfbfbf" points="1221,-.5 1221,-19.5 1274,-19.5 1274,-.5 1221,-.5"/>
<text text-anchor="middle" x="1247.5" y="-7.5" font-family="FreeSans.ttf" font-size="10.00" fill="#000000">cstddef</text>
</g>
<!-- Node16&#45;&gt;Node17 -->
<g id="edge19" class="edge">
<title>Node16&#45;&gt;Node17</title>
<path fill="none" stroke="#191970" d="M1278.8809,-56.2455C1273.5954,-48.4564 1266.0459,-37.3308 1259.6762,-27.9439"/>
<polygon fill="#191970" stroke="#191970" points="1262.5545,-25.9522 1254.0432,-19.6427 1256.7621,-29.8827 1262.5545,-25.9522"/>
</g>
<!-- Node18&#45;&gt;Node17 -->
<g id="edge24" class="edge">
<title>Node18&#45;&gt;Node17</title>
<path fill="none" stroke="#191970" d="M1425.9496,-56.4645C1391.3403,-47.8455 1338.8987,-34.6422 1284.1094,-20.1215"/>
<polygon fill="#191970" stroke="#191970" points="1284.782,-16.6788 1274.2185,-17.4924 1282.9838,-23.4439 1284.782,-16.6788"/>
</g>
<!-- Node18&#45;&gt;Node19 -->
<g id="edge21" class="edge">
<title>Node18&#45;&gt;Node19</title>
<path fill="none" stroke="#191970" d="M1403.849,-56.5095C1352.6082,-48.1143 1277.4084,-34.9071 1212.5,-20 1212.4012,-19.9773 1212.3023,-19.9545 1212.2033,-19.9317"/>
<polygon fill="#191970" stroke="#191970" points="1213.3245,-16.6037 1202.7761,-17.5943 1211.6399,-23.398 1213.3245,-16.6037"/>
</g>
<!-- Node20 -->
<g id="node21" class="node">
<title>Node20</title>
<polygon fill="none" stroke="#bfbfbf" points="1525.5,-.5 1525.5,-19.5 1589.5,-19.5 1589.5,-.5 1525.5,-.5"/>
<text text-anchor="middle" x="1557.5" y="-7.5" font-family="FreeSans.ttf" font-size="10.00" fill="#000000">algorithm</text>
</g>
<!-- Node18&#45;&gt;Node20 -->
<g id="edge22" class="edge">
<title>Node18&#45;&gt;Node20</title>
<path fill="none" stroke="#191970" d="M1480.6994,-56.2455C1495.1018,-47.5731 1516.3732,-34.7645 1532.8799,-24.825"/>
<polygon fill="#191970" stroke="#191970" points="1534.725,-27.7996 1541.4863,-19.6427 1531.114,-21.8028 1534.725,-27.7996"/>
</g>
<!-- Node21 -->
<g id="node22" class="node">
<title>Node21</title>
<polygon fill="none" stroke="#bfbfbf" points="1607.5,-.5 1607.5,-19.5 1649.5,-19.5 1649.5,-.5 1607.5,-.5"/>
<text text-anchor="middle" x="1628.5" y="-7.5" font-family="FreeSans.ttf" font-size="10.00" fill="#000000">array</text>
</g>
<!-- Node18&#45;&gt;Node21 -->
<g id="edge23" class="edge">
<title>Node18&#45;&gt;Node21</title>
<path fill="none" stroke="#191970" d="M1492.6926,-56.3733C1521.9846,-46.3711 1567.6774,-30.7687 1597.8491,-20.4662"/>
<polygon fill="#191970" stroke="#191970" points="1599.1076,-23.7349 1607.44,-17.1912 1596.8455,-17.1105 1599.1076,-23.7349"/>
</g>
<!-- Node22 -->
<g id="node23" class="node">
<title>Node22</title>
<polygon fill="none" stroke="#bfbfbf" points="1668,-.5 1668,-19.5 1721,-19.5 1721,-.5 1668,-.5"/>
<text text-anchor="middle" x="1694.5" y="-7.5" font-family="FreeSans.ttf" font-size="10.00" fill="#000000">iterator</text>
</g>
<!-- Node18&#45;&gt;Node22 -->
<g id="edge25" class="edge">
<title>Node18&#45;&gt;Node22</title>
<path fill="none" stroke="#191970" d="M1507.0006,-56.4134C1544.2282,-47.9064 1600.0229,-34.8924 1657.7577,-20.1211"/>
<polygon fill="#191970" stroke="#191970" points="1658.9808,-23.4205 1667.7941,-17.5403 1657.2375,-16.641 1658.9808,-23.4205"/>
</g>
<!-- Node23 -->
<g id="node24" class="node">
<title>Node23</title>
<polygon fill="none" stroke="#bfbfbf" points="1739.5,-.5 1739.5,-19.5 1783.5,-19.5 1783.5,-.5 1739.5,-.5"/>
<text text-anchor="middle" x="1761.5" y="-7.5" font-family="FreeSans.ttf" font-size="10.00" fill="#000000">limits</text>
</g>
<!-- Node18&#45;&gt;Node23 -->
<g id="edge26" class="edge">
<title>Node18&#45;&gt;Node23</title>
<path fill="none" stroke="#191970" d="M1525.2194,-57.9856C1577.1322,-50.5712 1653.9318,-38.2729 1729.1389,-20.0761"/>
<polygon fill="#191970" stroke="#191970" points="1730.3811,-23.375 1739.2568,-17.5893 1728.7104,-16.5773 1730.3811,-23.375"/>
</g>
<!-- Node24 -->
<g id="node25" class="node">
<title>Node24</title>
<polygon fill="none" stroke="#bfbfbf" points="1292,-.5 1292,-19.5 1357,-19.5 1357,-.5 1292,-.5"/>
<text text-anchor="middle" x="1324.5" y="-7.5" font-family="FreeSans.ttf" font-size="10.00" fill="#000000">stdexcept</text>
</g>
<!-- Node18&#45;&gt;Node24 -->
<g id="edge27" class="edge">
<title>Node18&#45;&gt;Node24</title>
<path fill="none" stroke="#191970" d="M1440.4331,-56.3733C1417.6572,-47.2629 1383.2656,-33.5062 1357.851,-23.3404"/>
<polygon fill="#191970" stroke="#191970" points="1358.8375,-19.9654 1348.2528,-19.5011 1356.2377,-26.4648 1358.8375,-19.9654"/>
</g>
<!-- Node25 -->
<g id="node26" class="node">
<title>Node25</title>
<polygon fill="none" stroke="#bfbfbf" points="1375,-.5 1375,-19.5 1444,-19.5 1444,-.5 1375,-.5"/>
<text text-anchor="middle" x="1409.5" y="-7.5" font-family="FreeSans.ttf" font-size="10.00" fill="#000000">type_traits</text>
</g>
<!-- Node18&#45;&gt;Node25 -->
<g id="edge28" class="edge">
<title>Node18&#45;&gt;Node25</title>
<path fill="none" stroke="#191970" d="M1454.9197,-56.2455C1446.9542,-48.1352 1435.4359,-36.4075 1425.9921,-26.7919"/>
<polygon fill="#191970" stroke="#191970" points="1428.4747,-24.3247 1418.9705,-19.6427 1423.4805,-29.2297 1428.4747,-24.3247"/>
</g>
<!-- Node26 -->
<g id="node27" class="node">
<title>Node26</title>
<polygon fill="none" stroke="#bfbfbf" points="1462,-.5 1462,-19.5 1507,-19.5 1507,-.5 1462,-.5"/>
<text text-anchor="middle" x="1484.5" y="-7.5" font-family="FreeSans.ttf" font-size="10.00" fill="#000000">utility</text>
</g>
<!-- Node18&#45;&gt;Node26 -->
<g id="edge29" class="edge">
<title>Node18&#45;&gt;Node26</title>
<path fill="none" stroke="#191970" d="M1467.9837,-56.2455C1470.6508,-48.7776 1474.4133,-38.2427 1477.6737,-29.1137"/>
<polygon fill="#191970" stroke="#191970" points="1480.9889,-30.2373 1481.0562,-19.6427 1474.3967,-27.8829 1480.9889,-30.2373"/>
</g>
<!-- Node28&#45;&gt;Node5 -->
<g id="edge36" class="edge">
<title>Node28&#45;&gt;Node5</title>
<path fill="none" stroke="#191970" d="M835.2405,-224.4981C819.3547,-215.8766 796.0376,-202.3505 777.5,-188 734.4129,-154.6449 690.2281,-108.0083 667.7143,-83.1679"/>
<polygon fill="#191970" stroke="#191970" points="670.2294,-80.7302 660.9429,-75.63 665.022,-85.4082 670.2294,-80.7302"/>
</g>
<!-- Node28&#45;&gt;Node15 -->
<g id="edge48" class="edge">
<title>Node28&#45;&gt;Node15</title>
<path fill="none" stroke="#191970" d="M922.1501,-232.2247C1004.464,-228.7421 1136.0403,-218.4411 1173.5,-188 1187.2229,-176.8482 1193.0999,-157.1491 1195.6164,-142.1664"/>
<polygon fill="#191970" stroke="#191970" points="1199.1394,-142.2164 1196.96,-131.8481 1192.198,-141.3124 1199.1394,-142.2164"/>
</g>
<!-- Node29 -->
<g id="node30" class="node">
<title>Node29</title>
<g id="a_node30"><a xlink:href="GeomVector3_8h.html" target="_top" xlink:title="iDynTree/Core/GeomVector3.h">
<polygon fill="none" stroke="#000000" points="1001,-168.5 1001,-187.5 1164,-187.5 1164,-168.5 1001,-168.5"/>
<text text-anchor="middle" x="1082.5" y="-175.5" font-family="FreeSans.ttf" font-size="10.00" fill="#000000">iDynTree/Core/GeomVector3.h</text>
</a>
</g>
</g>
<!-- Node28&#45;&gt;Node29 -->
<g id="edge37" class="edge">
<title>Node28&#45;&gt;Node29</title>
<path fill="none" stroke="#191970" d="M892.6063,-224.4369C931.6332,-214.8932 991.6965,-200.2052 1033.7962,-189.9101"/>
<polygon fill="#191970" stroke="#191970" points="1034.6726,-193.299 1043.555,-187.5237 1033.0098,-186.4993 1034.6726,-193.299"/>
</g>
<!-- Node30 -->
<g id="node31" class="node">
<title>Node30</title>
<g id="a_node31"><a xlink:href="RotationRaw_8h.html" target="_top" xlink:title="iDynTree/Core/RotationRaw.h">
<polygon fill="none" stroke="#000000" points="786.5,-168.5 786.5,-187.5 944.5,-187.5 944.5,-168.5 786.5,-168.5"/>
<text text-anchor="middle" x="865.5" y="-175.5" font-family="FreeSans.ttf" font-size="10.00" fill="#000000">iDynTree/Core/RotationRaw.h</text>
</a>
</g>
</g>
<!-- Node28&#45;&gt;Node30 -->
<g id="edge39" class="edge">
<title>Node28&#45;&gt;Node30</title>
<path fill="none" stroke="#191970" d="M855.5902,-224.2455C857.1561,-216.9382 859.3512,-206.6944 861.2776,-197.7046"/>
<polygon fill="#191970" stroke="#191970" points="864.7607,-198.1541 863.4337,-187.6427 857.916,-196.6873 864.7607,-198.1541"/>
</g>
<!-- Node29&#45;&gt;Node15 -->
<g id="edge38" class="edge">
<title>Node29&#45;&gt;Node15</title>
<path fill="none" stroke="#191970" d="M1102.2692,-168.3733C1120.6469,-159.4241 1148.2312,-145.9917 1168.9893,-135.8835"/>
<polygon fill="#191970" stroke="#191970" points="1170.5304,-139.026 1177.9888,-131.5011 1167.4657,-132.7325 1170.5304,-139.026"/>
</g>
<!-- Node30&#45;&gt;Node5 -->
<g id="edge47" class="edge">
<title>Node30&#45;&gt;Node5</title>
<path fill="none" stroke="#191970" d="M854.0838,-168.4511C837.1315,-154.618 803.9167,-128.8229 772.5,-112 743.9759,-96.726 709.2603,-83.9954 684.5214,-75.8281"/>
<polygon fill="#191970" stroke="#191970" points="685.4983,-72.4656 674.9065,-72.7174 683.3435,-79.1257 685.4983,-72.4656"/>
</g>
<!-- Node30&#45;&gt;Node31 -->
<g id="edge40" class="edge">
<title>Node30&#45;&gt;Node31</title>
<path fill="none" stroke="#191970" d="M891.8016,-168.3733C916.9128,-159.1822 954.9438,-145.2624 982.7872,-135.0713"/>
<polygon fill="#191970" stroke="#191970" points="984.3538,-138.2251 992.5416,-131.5011 981.9478,-131.6516 984.3538,-138.2251"/>
</g>
<!-- Node31&#45;&gt;Node5 -->
<g id="edge44" class="edge">
<title>Node31&#45;&gt;Node5</title>
<path fill="none" stroke="#191970" d="M955.9982,-112.4369C877.4159,-100.4134 745.4699,-80.2249 684.7992,-70.942"/>
<polygon fill="#191970" stroke="#191970" points="685.0831,-67.4447 674.6687,-69.3919 684.0243,-74.3642 685.0831,-67.4447"/>
</g>
<!-- Node31&#45;&gt;Node11 -->
<g id="edge46" class="edge">
<title>Node31&#45;&gt;Node11</title>
<path fill="none" stroke="#191970" d="M1039.6445,-112.3733C1059.3892,-103.3838 1089.0698,-89.8706 1111.3055,-79.7471"/>
<polygon fill="#191970" stroke="#191970" points="1112.9806,-82.8302 1120.6315,-75.5011 1110.08,-76.4594 1112.9806,-82.8302"/>
</g>
<!-- Node31&#45;&gt;Node16 -->
<g id="edge41" class="edge">
<title>Node31&#45;&gt;Node16</title>
<path fill="none" stroke="#191970" d="M1064.0956,-112.4369C1110.0785,-102.7925 1181.1088,-87.8948 1230.2606,-77.5858"/>
<polygon fill="#191970" stroke="#191970" points="1231.0239,-81.0019 1240.0925,-75.5237 1229.587,-74.151 1231.0239,-81.0019"/>
</g>
<!-- Node31&#45;&gt;Node19 -->
<g id="edge42" class="edge">
<title>Node31&#45;&gt;Node19</title>
<path fill="none" stroke="#191970" d="M1018.424,-112.101C1018.8582,-97.8318 1021.7752,-71.4988 1036.5,-56 1050.9159,-40.8263 1104.0927,-26.2582 1140.5952,-17.7197"/>
<polygon fill="#191970" stroke="#191970" points="1141.4351,-21.1181 1150.4025,-15.4759 1139.8738,-14.2944 1141.4351,-21.1181"/>
</g>
<!-- Node31&#45;&gt;Node27 -->
<g id="edge43" class="edge">
<title>Node31&#45;&gt;Node27</title>
<path fill="none" stroke="#191970" d="M1027.5577,-112.2455C1035.0142,-104.2155 1045.7634,-92.6394 1054.6417,-83.0781"/>
<polygon fill="#191970" stroke="#191970" points="1057.3063,-85.3522 1061.5461,-75.6427 1052.1768,-80.589 1057.3063,-85.3522"/>
</g>
<!-- Node32 -->
<g id="node33" class="node">
<title>Node32</title>
<polygon fill="none" stroke="#bfbfbf" points="929.5,-56.5 929.5,-75.5 989.5,-75.5 989.5,-56.5 929.5,-56.5"/>
<text text-anchor="middle" x="959.5" y="-63.5" font-family="FreeSans.ttf" font-size="10.00" fill="#000000">iostream</text>
</g>
<!-- Node31&#45;&gt;Node32 -->
<g id="edge45" class="edge">
<title>Node31&#45;&gt;Node32</title>
<path fill="none" stroke="#191970" d="M1008.223,-112.2455C999.6782,-104.1352 987.3222,-92.4075 977.1915,-82.7919"/>
<polygon fill="#191970" stroke="#191970" points="979.3218,-79.9884 969.6592,-75.6427 974.5028,-85.0655 979.3218,-79.9884"/>
</g>
<!-- Node34&#45;&gt;Node5 -->
<g id="edge56" class="edge">
<title>Node34&#45;&gt;Node5</title>
<path fill="none" stroke="#191970" d="M379.0293,-224.2664C388.0222,-200.9137 414.127,-141.4645 456.5,-112 482.767,-93.735 571.6966,-78.0695 620.2356,-70.6259"/>
<polygon fill="#191970" stroke="#191970" points="620.8593,-74.0716 630.2272,-69.1224 619.8177,-67.1495 620.8593,-74.0716"/>
</g>
<!-- Node35&#45;&gt;Node5 -->
<g id="edge60" class="edge">
<title>Node35&#45;&gt;Node5</title>
<path fill="none" stroke="#191970" d="M551.3419,-392.2847C522.7614,-375.5219 470.5,-338.2704 470.5,-290 470.5,-290 470.5,-290 470.5,-178 470.5,-108.5809 567.726,-80.8067 620.0539,-70.8855"/>
<polygon fill="#191970" stroke="#191970" points="620.9519,-74.2807 630.1832,-69.0814 619.7244,-67.3892 620.9519,-74.2807"/>
</g>
<!-- Node35&#45;&gt;Node7 -->
<g id="edge61" class="edge">
<title>Node35&#45;&gt;Node7</title>
<path fill="none" stroke="#191970" d="M528.5918,-392.4519C505.3985,-385.4159 477.0075,-373.8957 456.5,-356 442.0706,-343.4083 431.8046,-323.937 425.61,-309.4019"/>
<polygon fill="#191970" stroke="#191970" points="428.7635,-307.8598 421.8176,-299.8595 422.2584,-310.4452 428.7635,-307.8598"/>
</g>
<!-- Node35&#45;&gt;Node10 -->
<g id="edge59" class="edge">
<title>Node35&#45;&gt;Node10</title>
<path fill="none" stroke="#191970" d="M570.5451,-392.2455C571.328,-384.9382 572.4256,-374.6944 573.3888,-365.7046"/>
<polygon fill="#191970" stroke="#191970" points="576.8815,-365.9587 574.4669,-355.6427 569.9214,-365.2129 576.8815,-365.9587"/>
</g>
<!-- Node35&#45;&gt;Node12 -->
<g id="edge62" class="edge">
<title>Node35&#45;&gt;Node12</title>
<path fill="none" stroke="#191970" d="M608.7771,-392.4369C647.9744,-382.8932 708.3,-368.2052 750.5835,-357.9101"/>
<polygon fill="#191970" stroke="#191970" points="751.4968,-361.2901 760.3849,-355.5237 749.8408,-354.4888 751.4968,-361.2901"/>
</g>
</g>
</svg>
