<?xml version="1.0" encoding="UTF-8" standalone="no"?>
<!DOCTYPE svg PUBLIC "-//W3C//DTD SVG 1.1//EN"
 "http://www.w3.org/Graphics/SVG/1.1/DTD/svg11.dtd">
<!-- Generated by graphviz version 2.40.1 (20161225.0304)
 -->
<!-- Title: idyntree&#45;model&#45;info.cpp Pages: 1 -->
<svg width="1994pt" height="688pt"
 viewBox="0.00 0.00 1993.50 688.00" xmlns="http://www.w3.org/2000/svg" xmlns:xlink="http://www.w3.org/1999/xlink">
<g id="graph0" class="graph" transform="scale(1 1) rotate(0) translate(4 684)">
<title>idyntree&#45;model&#45;info.cpp</title>
<!-- Node0 -->
<g id="node1" class="node">
<title>Node0</title>
<polygon fill="#bfbfbf" stroke="#000000" points="1348,-660.5 1348,-679.5 1482,-679.5 1482,-660.5 1348,-660.5"/>
<text text-anchor="middle" x="1415" y="-667.5" font-family="FreeSans.ttf" font-size="10.00" fill="#000000">idyntree&#45;model&#45;info.cpp</text>
</g>
<!-- Node1 -->
<g id="node2" class="node">
<title>Node1</title>
<g id="a_node2"><a xlink:href="Model_8h.html" target="_top" xlink:title="iDynTree/Model/Model.h">
<polygon fill="none" stroke="#000000" points="1010.5,-492.5 1010.5,-511.5 1143.5,-511.5 1143.5,-492.5 1010.5,-492.5"/>
<text text-anchor="middle" x="1077" y="-499.5" font-family="FreeSans.ttf" font-size="10.00" fill="#000000">iDynTree/Model/Model.h</text>
</a>
</g>
</g>
<!-- Node0&#45;&gt;Node1 -->
<g id="edge1" class="edge">
<title>Node0&#45;&gt;Node1</title>
<path fill="none" stroke="#191970" d="M1347.9702,-661.8156C1289.1505,-653.7382 1208.7824,-640.2592 1181,-624 1137.3572,-598.4588 1103.2779,-547.7205 1087.1701,-520.4157"/>
<polygon fill="#191970" stroke="#191970" points="1090.0733,-518.4424 1082.0643,-511.5064 1083.9999,-521.923 1090.0733,-518.4424"/>
</g>
<!-- Node14 -->
<g id="node35" class="node">
<title>Node14</title>
<polygon fill="none" stroke="#bfbfbf" points="1724,-56.5 1724,-75.5 1784,-75.5 1784,-56.5 1724,-56.5"/>
<text text-anchor="middle" x="1754" y="-63.5" font-family="FreeSans.ttf" font-size="10.00" fill="#000000">iostream</text>
</g>
<!-- Node0&#45;&gt;Node14 -->
<g id="edge111" class="edge">
<title>Node0&#45;&gt;Node14</title>
<path fill="none" stroke="#191970" d="M1482.0663,-662.1907C1620.2818,-645.1865 1924,-602.7321 1924,-558 1924,-558 1924,-558 1924,-440.5 1924,-342.0217 1810,-348.9783 1810,-250.5 1810,-250.5 1810,-250.5 1810,-183.5 1810,-144.9693 1785.1574,-105.64 1768.5649,-83.6688"/>
<polygon fill="#191970" stroke="#191970" points="1771.1848,-81.3376 1762.263,-75.6234 1765.6741,-85.6541 1771.1848,-81.3376"/>
</g>
<!-- Node39 -->
<g id="node37" class="node">
<title>Node39</title>
<polygon fill="none" stroke="#bfbfbf" points="1357.5,-369.5 1357.5,-388.5 1406.5,-388.5 1406.5,-369.5 1357.5,-369.5"/>
<text text-anchor="middle" x="1382" y="-376.5" font-family="FreeSans.ttf" font-size="10.00" fill="#000000">cstdlib</text>
</g>
<!-- Node0&#45;&gt;Node39 -->
<g id="edge112" class="edge">
<title>Node0&#45;&gt;Node39</title>
<path fill="none" stroke="#191970" d="M1418.2092,-660.2985C1423.9634,-642.3354 1435.8249,-602.5728 1440,-568 1447.794,-503.4594 1412.3055,-430.9623 1393.3146,-397.6121"/>
<polygon fill="#191970" stroke="#191970" points="1396.0923,-395.4294 1388.0168,-388.571 1390.0528,-398.9684 1396.0923,-395.4294"/>
</g>
<!-- Node41 -->
<g id="node39" class="node">
<title>Node41</title>
<g id="a_node39"><a xlink:href="ModelLoader_8h.html" target="_top" xlink:title="iDynTree/ModelIO/ModelLoader.h">
<polygon fill="none" stroke="#000000" points="1190,-604.5 1190,-623.5 1366,-623.5 1366,-604.5 1190,-604.5"/>
<text text-anchor="middle" x="1278" y="-611.5" font-family="FreeSans.ttf" font-size="10.00" fill="#000000">iDynTree/ModelIO/ModelLoader.h</text>
</a>
</g>
</g>
<!-- Node0&#45;&gt;Node41 -->
<g id="edge65" class="edge">
<title>Node0&#45;&gt;Node41</title>
<path fill="none" stroke="#191970" d="M1391.4489,-660.3733C1369.1609,-651.2629 1335.5063,-637.5062 1310.6363,-627.3404"/>
<polygon fill="#191970" stroke="#191970" points="1311.8247,-624.0451 1301.2438,-623.5011 1309.1761,-630.5247 1311.8247,-624.0451"/>
</g>
<!-- Node45 -->
<g id="node43" class="node">
<title>Node45</title>
<g id="a_node43"><a xlink:href="KinDynComputations_8h.html" target="_top" xlink:title="iDynTree/KinDynComputations.h">
<polygon fill="none" stroke="#000000" points="236.5,-492.5 236.5,-511.5 411.5,-511.5 411.5,-492.5 236.5,-492.5"/>
<text text-anchor="middle" x="324" y="-499.5" font-family="FreeSans.ttf" font-size="10.00" fill="#000000">iDynTree/KinDynComputations.h</text>
</a>
</g>
</g>
<!-- Node0&#45;&gt;Node45 -->
<g id="edge80" class="edge">
<title>Node0&#45;&gt;Node45</title>
<path fill="none" stroke="#191970" d="M1353.2172,-660.4862C1164.6925,-631.4559 597.4189,-544.103 395.9527,-513.0798"/>
<polygon fill="#191970" stroke="#191970" points="396.196,-509.5761 385.7797,-511.5133 395.1305,-516.4945 396.196,-509.5761"/>
</g>
<!-- Node50 -->
<g id="node48" class="node">
<title>Node50</title>
<g id="a_node48"><a xlink:href="cmdline_8h.html" target="_top" xlink:title="cmdline.h">
<polygon fill="none" stroke="#000000" points="1626.5,-431 1626.5,-450 1691.5,-450 1691.5,-431 1626.5,-431"/>
<text text-anchor="middle" x="1659" y="-438" font-family="FreeSans.ttf" font-size="10.00" fill="#000000">cmdline.h</text>
</a>
</g>
</g>
<!-- Node0&#45;&gt;Node50 -->
<g id="edge100" class="edge">
<title>Node0&#45;&gt;Node50</title>
<path fill="none" stroke="#191970" d="M1440.5573,-660.4017C1459.7504,-652.4392 1486.0496,-639.868 1506,-624 1568.9063,-573.9662 1624.2445,-494.5365 1647.4277,-458.8825"/>
<polygon fill="#191970" stroke="#191970" points="1650.6412,-460.3551 1653.0934,-450.0479 1644.7488,-456.5762 1650.6412,-460.3551"/>
</g>
<!-- Node2 -->
<g id="node3" class="node">
<title>Node2</title>
<g id="a_node3"><a xlink:href="IJoint_8h.html" target="_top" xlink:title="iDynTree/Model/IJoint.h">
<polygon fill="none" stroke="#000000" points="468,-431 468,-450 596,-450 596,-431 468,-431"/>
<text text-anchor="middle" x="532" y="-438" font-family="FreeSans.ttf" font-size="10.00" fill="#000000">iDynTree/Model/IJoint.h</text>
</a>
</g>
</g>
<!-- Node1&#45;&gt;Node2 -->
<g id="edge2" class="edge">
<title>Node1&#45;&gt;Node2</title>
<path fill="none" stroke="#191970" d="M1010.2402,-497.4911C919.3773,-490.8837 751.835,-477.0264 610,-456 602.2218,-454.8469 594.0439,-453.4397 586.0292,-451.9486"/>
<polygon fill="#191970" stroke="#191970" points="586.4869,-448.4727 576.0068,-450.0277 585.1692,-455.3475 586.4869,-448.4727"/>
</g>
<!-- Node3 -->
<g id="node4" class="node">
<title>Node3</title>
<g id="a_node4"><a xlink:href="Indices_8h.html" target="_top" xlink:title="iDynTree/Model/Indices.h">
<polygon fill="none" stroke="#000000" points="326,-369.5 326,-388.5 464,-388.5 464,-369.5 326,-369.5"/>
<text text-anchor="middle" x="395" y="-376.5" font-family="FreeSans.ttf" font-size="10.00" fill="#000000">iDynTree/Model/Indices.h</text>
</a>
</g>
</g>
<!-- Node1&#45;&gt;Node3 -->
<g id="edge57" class="edge">
<title>Node1&#45;&gt;Node3</title>
<path fill="none" stroke="#191970" d="M1010.296,-499.5705C905.5321,-494.9806 707.6911,-482.9664 643,-456 622.882,-447.6138 624.6264,-434.4798 605,-425 580.1881,-413.0154 514.136,-399.5527 462.6713,-390.3039"/>
<polygon fill="#191970" stroke="#191970" points="463.0476,-386.816 452.5894,-388.512 461.8226,-393.708 463.0476,-386.816"/>
</g>
<!-- Node5 -->
<g id="node6" class="node">
<title>Node5</title>
<g id="a_node6"><a xlink:href="Link_8h.html" target="_top" xlink:title="iDynTree/Model/Link.h">
<polygon fill="none" stroke="#000000" points="652,-431 652,-450 776,-450 776,-431 652,-431"/>
<text text-anchor="middle" x="714" y="-438" font-family="FreeSans.ttf" font-size="10.00" fill="#000000">iDynTree/Model/Link.h</text>
</a>
</g>
</g>
<!-- Node1&#45;&gt;Node5 -->
<g id="edge5" class="edge">
<title>Node1&#45;&gt;Node5</title>
<path fill="none" stroke="#191970" d="M1020.6795,-492.4581C955.671,-481.4443 848.8888,-463.3531 780.0289,-451.6867"/>
<polygon fill="#191970" stroke="#191970" points="780.5981,-448.2333 770.1539,-450.0137 779.4287,-455.135 780.5981,-448.2333"/>
</g>
<!-- Node37 -->
<g id="node29" class="node">
<title>Node37</title>
<g id="a_node29"><a xlink:href="Transform_8h.html" target="_top" xlink:title="iDynTree/Core/Transform.h">
<polygon fill="none" stroke="#000000" points="988,-369.5 988,-388.5 1134,-388.5 1134,-369.5 988,-369.5"/>
<text text-anchor="middle" x="1061" y="-376.5" font-family="FreeSans.ttf" font-size="10.00" fill="#000000">iDynTree/Core/Transform.h</text>
</a>
</g>
</g>
<!-- Node1&#45;&gt;Node37 -->
<g id="edge35" class="edge">
<title>Node1&#45;&gt;Node37</title>
<path fill="none" stroke="#191970" d="M1074.1509,-492.2246C1071.5781,-482.977 1067.9115,-468.6662 1066,-456 1063.0724,-436.6005 1061.858,-414.1968 1061.3549,-398.5752"/>
<polygon fill="#191970" stroke="#191970" points="1064.8528,-398.4467 1061.0998,-388.5389 1057.8551,-398.6246 1064.8528,-398.4467"/>
</g>
<!-- Node38 -->
<g id="node36" class="node">
<title>Node38</title>
<g id="a_node36"><a xlink:href="SolidShapes_8h.html" target="_top" xlink:title="iDynTree/Model/SolidShapes.h">
<polygon fill="none" stroke="#000000" points="1074.5,-431 1074.5,-450 1237.5,-450 1237.5,-431 1074.5,-431"/>
<text text-anchor="middle" x="1156" y="-438" font-family="FreeSans.ttf" font-size="10.00" fill="#000000">iDynTree/Model/SolidShapes.h</text>
</a>
</g>
</g>
<!-- Node1&#45;&gt;Node38 -->
<g id="edge58" class="edge">
<title>Node1&#45;&gt;Node38</title>
<path fill="none" stroke="#191970" d="M1089.3438,-492.3906C1101.7503,-482.7324 1121.0843,-467.6812 1135.7413,-456.271"/>
<polygon fill="#191970" stroke="#191970" points="1138.0021,-458.9466 1143.7429,-450.0419 1133.7021,-453.423 1138.0021,-458.9466"/>
</g>
<!-- Node1&#45;&gt;Node39 -->
<g id="edge63" class="edge">
<title>Node1&#45;&gt;Node39</title>
<path fill="none" stroke="#191970" d="M1141.215,-492.4554C1179.181,-485.3789 1227.5831,-473.8166 1268,-456 1304.2711,-440.011 1341.4277,-412.3897 1363.0763,-394.9393"/>
<polygon fill="#191970" stroke="#191970" points="1365.3224,-397.6238 1370.8394,-388.5787 1360.8859,-392.2092 1365.3224,-397.6238"/>
</g>
<!-- Node40 -->
<g id="node38" class="node">
<title>Node40</title>
<polygon fill="none" stroke="#bfbfbf" points="1242.5,-369.5 1242.5,-388.5 1289.5,-388.5 1289.5,-369.5 1242.5,-369.5"/>
<text text-anchor="middle" x="1266" y="-376.5" font-family="FreeSans.ttf" font-size="10.00" fill="#000000">vector</text>
</g>
<!-- Node1&#45;&gt;Node40 -->
<g id="edge64" class="edge">
<title>Node1&#45;&gt;Node40</title>
<path fill="none" stroke="#191970" d="M1136.4247,-492.4939C1179.0212,-484.5012 1231.5016,-471.8486 1247,-456 1261.7674,-440.899 1265.6592,-416.2481 1266.4067,-398.9143"/>
<polygon fill="#191970" stroke="#191970" points="1269.9083,-398.7946 1266.5266,-388.754 1262.9088,-398.712 1269.9083,-398.7946"/>
</g>
<!-- Node2&#45;&gt;Node3 -->
<g id="edge3" class="edge">
<title>Node2&#45;&gt;Node3</title>
<path fill="none" stroke="#191970" d="M510.5938,-430.8906C487.7717,-420.6457 451.4321,-404.3326 425.5943,-392.7339"/>
<polygon fill="#191970" stroke="#191970" points="426.8123,-389.4443 416.2559,-388.5419 423.9455,-395.8303 426.8123,-389.4443"/>
</g>
<!-- Node4 -->
<g id="node5" class="node">
<title>Node4</title>
<polygon fill="none" stroke="#bfbfbf" points="521,-56.5 521,-75.5 565,-75.5 565,-56.5 521,-56.5"/>
<text text-anchor="middle" x="543" y="-63.5" font-family="FreeSans.ttf" font-size="10.00" fill="#000000">string</text>
</g>
<!-- Node3&#45;&gt;Node4 -->
<g id="edge4" class="edge">
<title>Node3&#45;&gt;Node4</title>
<path fill="none" stroke="#191970" d="M367.902,-369.4417C349.4847,-361.8547 325.5531,-349.731 309,-333 279.9191,-303.6065 266,-291.8483 266,-250.5 266,-250.5 266,-250.5 266,-183.5 266,-149.9798 264.654,-133.9359 290,-112 322.641,-83.7505 450.3449,-71.9311 510.8589,-67.8394"/>
<polygon fill="#191970" stroke="#191970" points="511.2438,-71.3219 520.9972,-67.1841 510.7922,-64.3365 511.2438,-71.3219"/>
</g>
<!-- Node5&#45;&gt;Node3 -->
<g id="edge34" class="edge">
<title>Node5&#45;&gt;Node3</title>
<path fill="none" stroke="#191970" d="M667.8018,-430.9696C657.97,-428.9717 647.6456,-426.8964 638,-425 576.316,-412.8721 505.7042,-399.5701 456.5535,-390.4041"/>
<polygon fill="#191970" stroke="#191970" points="457.1824,-386.9611 446.7105,-388.5703 455.9003,-393.8427 457.1824,-386.9611"/>
</g>
<!-- Node6 -->
<g id="node7" class="node">
<title>Node6</title>
<g id="a_node7"><a xlink:href="SpatialInertia_8h.html" target="_top" xlink:title="iDynTree/Core/SpatialInertia.h">
<polygon fill="none" stroke="#000000" points="694,-369.5 694,-388.5 856,-388.5 856,-369.5 694,-369.5"/>
<text text-anchor="middle" x="775" y="-376.5" font-family="FreeSans.ttf" font-size="10.00" fill="#000000">iDynTree/Core/SpatialInertia.h</text>
</a>
</g>
</g>
<!-- Node5&#45;&gt;Node6 -->
<g id="edge6" class="edge">
<title>Node5&#45;&gt;Node6</title>
<path fill="none" stroke="#191970" d="M723.5313,-430.8906C732.7879,-421.5581 747.039,-407.1902 758.2003,-395.9374"/>
<polygon fill="#191970" stroke="#191970" points="760.7772,-398.3095 765.3344,-388.7449 755.8072,-393.38 760.7772,-398.3095"/>
</g>
<!-- Node7 -->
<g id="node8" class="node">
<title>Node7</title>
<g id="a_node8"><a xlink:href="SpatialInertiaRaw_8h.html" target="_top" xlink:title="iDynTree/Core/SpatialInertia\lRaw.h">
<polygon fill="none" stroke="#ff0000" points="522.5,-302.5 522.5,-332.5 675.5,-332.5 675.5,-302.5 522.5,-302.5"/>
<text text-anchor="start" x="530.5" y="-320.5" font-family="FreeSans.ttf" font-size="10.00" fill="#000000">iDynTree/Core/SpatialInertia</text>
<text text-anchor="middle" x="599" y="-309.5" font-family="FreeSans.ttf" font-size="10.00" fill="#000000">Raw.h</text>
</a>
</g>
</g>
<!-- Node6&#45;&gt;Node7 -->
<g id="edge7" class="edge">
<title>Node6&#45;&gt;Node7</title>
<path fill="none" stroke="#191970" d="M747.5,-369.3906C721.9161,-360.4508 683.1094,-346.8905 651.5823,-335.8739"/>
<polygon fill="#191970" stroke="#191970" points="652.6493,-332.5393 642.0544,-332.5446 650.3401,-339.1475 652.6493,-332.5393"/>
</g>
<!-- Node16 -->
<g id="node9" class="node">
<title>Node16</title>
<g id="a_node9"><a xlink:href="VectorFixSize_8h.html" target="_top" xlink:title="iDynTree/Core/VectorFixSize.h">
<polygon fill="none" stroke="#000000" points="1086.5,-112.5 1086.5,-131.5 1247.5,-131.5 1247.5,-112.5 1086.5,-112.5"/>
<text text-anchor="middle" x="1167" y="-119.5" font-family="FreeSans.ttf" font-size="10.00" fill="#000000">iDynTree/Core/VectorFixSize.h</text>
</a>
</g>
</g>
<!-- Node6&#45;&gt;Node16 -->
<g id="edge8" class="edge">
<title>Node6&#45;&gt;Node16</title>
<path fill="none" stroke="#191970" d="M833.5167,-369.4429C854.6253,-362.8619 876.3454,-351.7523 889,-333 936.7109,-262.2997 734.4693,-231.8682 791,-168 809.632,-146.9496 971.109,-133.498 1076.3046,-126.8852"/>
<polygon fill="#191970" stroke="#191970" points="1076.5377,-130.3776 1086.3025,-126.2666 1076.1054,-123.391 1076.5377,-130.3776"/>
</g>
<!-- Node25 -->
<g id="node23" class="node">
<title>Node25</title>
<g id="a_node23"><a xlink:href="Twist_8h.html" target="_top" xlink:title="iDynTree/Core/Twist.h">
<polygon fill="none" stroke="#000000" points="1096,-308 1096,-327 1218,-327 1218,-308 1096,-308"/>
<text text-anchor="middle" x="1157" y="-315" font-family="FreeSans.ttf" font-size="10.00" fill="#000000">iDynTree/Core/Twist.h</text>
</a>
</g>
</g>
<!-- Node6&#45;&gt;Node25 -->
<g id="edge25" class="edge">
<title>Node6&#45;&gt;Node25</title>
<path fill="none" stroke="#191970" d="M849.951,-369.481C913.3066,-361.0686 1006.3649,-347.852 1087,-333 1093.266,-331.8459 1099.8248,-330.5336 1106.3089,-329.1725"/>
<polygon fill="#191970" stroke="#191970" points="1107.3413,-332.5307 1116.3837,-327.0093 1105.8718,-325.6867 1107.3413,-332.5307"/>
</g>
<!-- Node33 -->
<g id="node26" class="node">
<title>Node33</title>
<g id="a_node26"><a xlink:href="SpatialMomentum_8h.html" target="_top" xlink:title="iDynTree/Core/SpatialMomentum.h">
<polygon fill="none" stroke="#ff0000" points="694,-308 694,-327 880,-327 880,-308 694,-308"/>
<text text-anchor="middle" x="787" y="-315" font-family="FreeSans.ttf" font-size="10.00" fill="#000000">iDynTree/Core/SpatialMomentum.h</text>
</a>
</g>
</g>
<!-- Node6&#45;&gt;Node33 -->
<g id="edge30" class="edge">
<title>Node6&#45;&gt;Node33</title>
<path fill="none" stroke="#191970" d="M776.875,-369.3906C778.5559,-360.776 781.074,-347.8708 783.1784,-337.0858"/>
<polygon fill="#191970" stroke="#191970" points="786.6186,-337.7301 785.0986,-327.2449 779.7482,-336.3895 786.6186,-337.7301"/>
</g>
<!-- Node35 -->
<g id="node27" class="node">
<title>Node35</title>
<g id="a_node27"><a xlink:href="SpatialAcc_8h.html" target="_top" xlink:title="iDynTree/Core/SpatialAcc.h">
<polygon fill="none" stroke="#000000" points="1236,-308 1236,-327 1384,-327 1384,-308 1236,-308"/>
<text text-anchor="middle" x="1310" y="-315" font-family="FreeSans.ttf" font-size="10.00" fill="#000000">iDynTree/Core/SpatialAcc.h</text>
</a>
</g>
</g>
<!-- Node6&#45;&gt;Node35 -->
<g id="edge31" class="edge">
<title>Node6&#45;&gt;Node35</title>
<path fill="none" stroke="#191970" d="M856.0818,-372.7943C946.735,-365.3808 1097.7905,-351.6067 1227,-333 1235.3428,-331.7986 1244.1251,-330.3549 1252.7287,-328.8384"/>
<polygon fill="#191970" stroke="#191970" points="1253.4911,-332.2574 1262.7093,-327.0349 1252.2463,-325.369 1253.4911,-332.2574"/>
</g>
<!-- Node36 -->
<g id="node28" class="node">
<title>Node36</title>
<g id="a_node28"><a xlink:href="Wrench_8h.html" target="_top" xlink:title="iDynTree/Core/Wrench.h">
<polygon fill="none" stroke="#ff0000" points="332.5,-308 332.5,-327 465.5,-327 465.5,-308 332.5,-308"/>
<text text-anchor="middle" x="399" y="-315" font-family="FreeSans.ttf" font-size="10.00" fill="#000000">iDynTree/Core/Wrench.h</text>
</a>
</g>
</g>
<!-- Node6&#45;&gt;Node36 -->
<g id="edge33" class="edge">
<title>Node6&#45;&gt;Node36</title>
<path fill="none" stroke="#191970" d="M716.6625,-369.4581C649.3259,-358.4443 538.7195,-340.3531 467.3936,-328.6867"/>
<polygon fill="#191970" stroke="#191970" points="467.5988,-325.1738 457.1649,-327.0137 466.4688,-332.0821 467.5988,-325.1738"/>
</g>
<!-- Node16&#45;&gt;Node4 -->
<g id="edge21" class="edge">
<title>Node16&#45;&gt;Node4</title>
<path fill="none" stroke="#191970" d="M1086.4168,-113.4154C1081.5395,-112.9276 1076.7048,-112.4521 1072,-112 883.8711,-93.9205 657.7957,-75.2969 575.2054,-68.5957"/>
<polygon fill="#191970" stroke="#191970" points="575.4371,-65.1031 565.1872,-67.7843 574.872,-72.0803 575.4371,-65.1031"/>
</g>
<!-- Node10 -->
<g id="node10" class="node">
<title>Node10</title>
<g id="a_node10"><a xlink:href="Utils_8h.html" target="_top" xlink:title="iDynTree/Core/Utils.h">
<polygon fill="none" stroke="#000000" points="1118.5,-56.5 1118.5,-75.5 1237.5,-75.5 1237.5,-56.5 1118.5,-56.5"/>
<text text-anchor="middle" x="1178" y="-63.5" font-family="FreeSans.ttf" font-size="10.00" fill="#000000">iDynTree/Core/Utils.h</text>
</a>
</g>
</g>
<!-- Node16&#45;&gt;Node10 -->
<g id="edge9" class="edge">
<title>Node16&#45;&gt;Node10</title>
<path fill="none" stroke="#191970" d="M1168.9161,-112.2455C1170.3514,-104.9382 1172.3636,-94.6944 1174.1295,-85.7046"/>
<polygon fill="#191970" stroke="#191970" points="1177.6127,-86.1298 1176.1059,-75.6427 1170.744,-84.7805 1177.6127,-86.1298"/>
</g>
<!-- Node17 -->
<g id="node12" class="node">
<title>Node17</title>
<g id="a_node12"><a xlink:href="Span_8h.html" target="_top" xlink:title="iDynTree/Core/Span.h">
<polygon fill="none" stroke="#000000" points="1359.5,-56.5 1359.5,-75.5 1480.5,-75.5 1480.5,-56.5 1359.5,-56.5"/>
<text text-anchor="middle" x="1420" y="-63.5" font-family="FreeSans.ttf" font-size="10.00" fill="#000000">iDynTree/Core/Span.h</text>
</a>
</g>
</g>
<!-- Node16&#45;&gt;Node17 -->
<g id="edge11" class="edge">
<title>Node16&#45;&gt;Node17</title>
<path fill="none" stroke="#191970" d="M1210.2048,-112.4369C1253.5947,-102.8328 1320.5209,-88.0191 1367.0726,-77.7152"/>
<polygon fill="#191970" stroke="#191970" points="1367.9662,-81.1022 1376.9734,-75.5237 1366.4533,-74.2676 1367.9662,-81.1022"/>
</g>
<!-- Node12 -->
<g id="node13" class="node">
<title>Node12</title>
<polygon fill="none" stroke="#bfbfbf" points="1268,-.5 1268,-19.5 1320,-19.5 1320,-.5 1268,-.5"/>
<text text-anchor="middle" x="1294" y="-7.5" font-family="FreeSans.ttf" font-size="10.00" fill="#000000">cassert</text>
</g>
<!-- Node16&#45;&gt;Node12 -->
<g id="edge23" class="edge">
<title>Node16&#45;&gt;Node12</title>
<path fill="none" stroke="#191970" d="M1189.3751,-112.3599C1206.416,-104.2953 1229.7965,-91.6111 1247,-76 1262.0658,-62.3287 1275.1095,-43.0399 1283.6074,-28.844"/>
<polygon fill="#191970" stroke="#191970" points="1286.7666,-30.3721 1288.7333,-19.9614 1280.7036,-26.8733 1286.7666,-30.3721"/>
</g>
<!-- Node15 -->
<g id="node21" class="node">
<title>Node15</title>
<polygon fill="none" stroke="#bfbfbf" points="1588,-56.5 1588,-75.5 1644,-75.5 1644,-56.5 1588,-56.5"/>
<text text-anchor="middle" x="1616" y="-63.5" font-family="FreeSans.ttf" font-size="10.00" fill="#000000">sstream</text>
</g>
<!-- Node16&#45;&gt;Node15 -->
<g id="edge22" class="edge">
<title>Node16&#45;&gt;Node15</title>
<path fill="none" stroke="#191970" d="M1247.9047,-113.0055C1354.4871,-101.1516 1532.9747,-81.2824 1577.8024,-75.5207"/>
<polygon fill="#191970" stroke="#191970" points="1578.4155,-78.9688 1587.8212,-74.092 1577.4273,-72.0389 1578.4155,-78.9688"/>
</g>
<!-- Node13 -->
<g id="node22" class="node">
<title>Node13</title>
<polygon fill="none" stroke="#bfbfbf" points="1520,-56.5 1520,-75.5 1570,-75.5 1570,-56.5 1520,-56.5"/>
<text text-anchor="middle" x="1545" y="-63.5" font-family="FreeSans.ttf" font-size="10.00" fill="#000000">cstring</text>
</g>
<!-- Node16&#45;&gt;Node13 -->
<g id="edge24" class="edge">
<title>Node16&#45;&gt;Node13</title>
<path fill="none" stroke="#191970" d="M1239.6007,-112.4713C1305.1434,-103.6762 1404.1739,-89.9086 1490,-76 1496.4127,-74.9608 1503.2322,-73.7813 1509.8073,-72.606"/>
<polygon fill="#191970" stroke="#191970" points="1510.6312,-76.0138 1519.8449,-70.7833 1509.3804,-69.1264 1510.6312,-76.0138"/>
</g>
<!-- Node11 -->
<g id="node11" class="node">
<title>Node11</title>
<polygon fill="none" stroke="#bfbfbf" points="1178.5,-.5 1178.5,-19.5 1231.5,-19.5 1231.5,-.5 1178.5,-.5"/>
<text text-anchor="middle" x="1205" y="-7.5" font-family="FreeSans.ttf" font-size="10.00" fill="#000000">cstddef</text>
</g>
<!-- Node10&#45;&gt;Node11 -->
<g id="edge10" class="edge">
<title>Node10&#45;&gt;Node11</title>
<path fill="none" stroke="#191970" d="M1182.703,-56.2455C1186.3424,-48.6973 1191.4924,-38.0158 1195.9262,-28.8197"/>
<polygon fill="#191970" stroke="#191970" points="1199.1605,-30.1704 1200.3509,-19.6427 1192.8551,-27.1303 1199.1605,-30.1704"/>
</g>
<!-- Node17&#45;&gt;Node11 -->
<g id="edge15" class="edge">
<title>Node17&#45;&gt;Node11</title>
<path fill="none" stroke="#191970" d="M1383.0402,-56.3733C1343.3895,-46.0456 1280.8155,-29.7473 1241.3872,-19.4776"/>
<polygon fill="#191970" stroke="#191970" points="1242.2066,-16.0743 1231.6472,-16.9407 1240.4421,-22.8483 1242.2066,-16.0743"/>
</g>
<!-- Node17&#45;&gt;Node12 -->
<g id="edge12" class="edge">
<title>Node17&#45;&gt;Node12</title>
<path fill="none" stroke="#191970" d="M1398.3398,-56.3733C1378.0228,-47.3435 1347.436,-33.7494 1324.625,-23.6111"/>
<polygon fill="#191970" stroke="#191970" points="1325.9372,-20.3642 1315.3775,-19.5011 1323.0941,-26.7609 1325.9372,-20.3642"/>
</g>
<!-- Node18 -->
<g id="node14" class="node">
<title>Node18</title>
<polygon fill="none" stroke="#bfbfbf" points="1700,-.5 1700,-19.5 1764,-19.5 1764,-.5 1700,-.5"/>
<text text-anchor="middle" x="1732" y="-7.5" font-family="FreeSans.ttf" font-size="10.00" fill="#000000">algorithm</text>
</g>
<!-- Node17&#45;&gt;Node18 -->
<g id="edge13" class="edge">
<title>Node17&#45;&gt;Node18</title>
<path fill="none" stroke="#191970" d="M1473.2802,-56.4369C1534.5589,-45.4381 1633.9041,-27.607 1689.9836,-17.5414"/>
<polygon fill="#191970" stroke="#191970" points="1690.7081,-20.9674 1699.9325,-15.7557 1689.4714,-14.0775 1690.7081,-20.9674"/>
</g>
<!-- Node19 -->
<g id="node15" class="node">
<title>Node19</title>
<polygon fill="none" stroke="#bfbfbf" points="1338,-.5 1338,-19.5 1380,-19.5 1380,-.5 1338,-.5"/>
<text text-anchor="middle" x="1359" y="-7.5" font-family="FreeSans.ttf" font-size="10.00" fill="#000000">array</text>
</g>
<!-- Node17&#45;&gt;Node19 -->
<g id="edge14" class="edge">
<title>Node17&#45;&gt;Node19</title>
<path fill="none" stroke="#191970" d="M1409.3746,-56.2455C1400.4527,-48.0549 1387.512,-36.1749 1376.9808,-26.5069"/>
<polygon fill="#191970" stroke="#191970" points="1379.2371,-23.8271 1369.5036,-19.6427 1374.5032,-28.9837 1379.2371,-23.8271"/>
</g>
<!-- Node20 -->
<g id="node16" class="node">
<title>Node20</title>
<polygon fill="none" stroke="#bfbfbf" points="1932.5,-.5 1932.5,-19.5 1985.5,-19.5 1985.5,-.5 1932.5,-.5"/>
<text text-anchor="middle" x="1959" y="-7.5" font-family="FreeSans.ttf" font-size="10.00" fill="#000000">iterator</text>
</g>
<!-- Node17&#45;&gt;Node20 -->
<g id="edge16" class="edge">
<title>Node17&#45;&gt;Node20</title>
<path fill="none" stroke="#191970" d="M1480.6815,-59.1811C1490.8028,-58.087 1501.1957,-56.99 1511,-56 1684.6299,-38.4681 1729.0224,-43.0972 1902,-20 1908.5353,-19.1274 1915.4657,-18.045 1922.1592,-16.9177"/>
<polygon fill="#191970" stroke="#191970" points="1923.1417,-20.2993 1932.3916,-15.1331 1921.9389,-13.4034 1923.1417,-20.2993"/>
</g>
<!-- Node21 -->
<g id="node17" class="node">
<title>Node21</title>
<polygon fill="none" stroke="#bfbfbf" points="1398,-.5 1398,-19.5 1442,-19.5 1442,-.5 1398,-.5"/>
<text text-anchor="middle" x="1420" y="-7.5" font-family="FreeSans.ttf" font-size="10.00" fill="#000000">limits</text>
</g>
<!-- Node17&#45;&gt;Node21 -->
<g id="edge17" class="edge">
<title>Node17&#45;&gt;Node21</title>
<path fill="none" stroke="#191970" d="M1420,-56.2455C1420,-48.9382 1420,-38.6944 1420,-29.7046"/>
<polygon fill="#191970" stroke="#191970" points="1423.5001,-29.6426 1420,-19.6427 1416.5001,-29.6427 1423.5001,-29.6426"/>
</g>
<!-- Node22 -->
<g id="node18" class="node">
<title>Node22</title>
<polygon fill="none" stroke="#bfbfbf" points="1827.5,-.5 1827.5,-19.5 1892.5,-19.5 1892.5,-.5 1827.5,-.5"/>
<text text-anchor="middle" x="1860" y="-7.5" font-family="FreeSans.ttf" font-size="10.00" fill="#000000">stdexcept</text>
</g>
<!-- Node17&#45;&gt;Node22 -->
<g id="edge18" class="edge">
<title>Node17&#45;&gt;Node22</title>
<path fill="none" stroke="#191970" d="M1480.7182,-58.2722C1571.0787,-46.7718 1738.7076,-25.4372 1817.2761,-15.4376"/>
<polygon fill="#191970" stroke="#191970" points="1817.8271,-18.8958 1827.3051,-14.1612 1816.9432,-11.9518 1817.8271,-18.8958"/>
</g>
<!-- Node23 -->
<g id="node19" class="node">
<title>Node23</title>
<polygon fill="none" stroke="#bfbfbf" points="1460.5,-.5 1460.5,-19.5 1529.5,-19.5 1529.5,-.5 1460.5,-.5"/>
<text text-anchor="middle" x="1495" y="-7.5" font-family="FreeSans.ttf" font-size="10.00" fill="#000000">type_traits</text>
</g>
<!-- Node17&#45;&gt;Node23 -->
<g id="edge19" class="edge">
<title>Node17&#45;&gt;Node23</title>
<path fill="none" stroke="#191970" d="M1433.064,-56.2455C1444.3562,-47.814 1460.8845,-35.4729 1474.0271,-25.6598"/>
<polygon fill="#191970" stroke="#191970" points="1476.1669,-28.4301 1482.0857,-19.6427 1471.9789,-22.8211 1476.1669,-28.4301"/>
</g>
<!-- Node24 -->
<g id="node20" class="node">
<title>Node24</title>
<polygon fill="none" stroke="#bfbfbf" points="1547.5,-.5 1547.5,-19.5 1592.5,-19.5 1592.5,-.5 1547.5,-.5"/>
<text text-anchor="middle" x="1570" y="-7.5" font-family="FreeSans.ttf" font-size="10.00" fill="#000000">utility</text>
</g>
<!-- Node17&#45;&gt;Node24 -->
<g id="edge20" class="edge">
<title>Node17&#45;&gt;Node24</title>
<path fill="none" stroke="#191970" d="M1445.7859,-56.3733C1471.2999,-46.848 1510.4184,-32.2438 1537.9247,-21.9748"/>
<polygon fill="#191970" stroke="#191970" points="1539.3422,-25.1816 1547.4864,-18.4051 1536.8939,-18.6237 1539.3422,-25.1816"/>
</g>
<!-- Node26 -->
<g id="node24" class="node">
<title>Node26</title>
<g id="a_node24"><a xlink:href="SpatialMotionVector_8h.html" target="_top" xlink:title="iDynTree/Core/SpatialMotion\lVector.h">
<polygon fill="none" stroke="#ff0000" points="1214.5,-235.5 1214.5,-265.5 1369.5,-265.5 1369.5,-235.5 1214.5,-235.5"/>
<text text-anchor="start" x="1222.5" y="-253.5" font-family="FreeSans.ttf" font-size="10.00" fill="#000000">iDynTree/Core/SpatialMotion</text>
<text text-anchor="middle" x="1292" y="-242.5" font-family="FreeSans.ttf" font-size="10.00" fill="#000000">Vector.h</text>
</a>
</g>
</g>
<!-- Node25&#45;&gt;Node26 -->
<g id="edge26" class="edge">
<title>Node25&#45;&gt;Node26</title>
<path fill="none" stroke="#191970" d="M1176.3422,-307.9005C1196.1247,-298.0826 1227.4221,-282.5498 1252.4738,-270.1167"/>
<polygon fill="#191970" stroke="#191970" points="1254.3307,-273.1025 1261.7323,-265.5218 1251.2188,-266.8323 1254.3307,-273.1025"/>
</g>
<!-- Node26&#45;&gt;Node16 -->
<g id="edge27" class="edge">
<title>Node26&#45;&gt;Node16</title>
<path fill="none" stroke="#191970" d="M1288.4725,-235.4016C1283.6078,-217.4338 1273.2944,-187.4277 1255,-168 1241.564,-153.7317 1222.7065,-143.0642 1205.8926,-135.6134"/>
<polygon fill="#191970" stroke="#191970" points="1206.8615,-132.2249 1196.2854,-131.5952 1204.1605,-138.6828 1206.8615,-132.2249"/>
</g>
<!-- Node27 -->
<g id="node25" class="node">
<title>Node27</title>
<g id="a_node25"><a xlink:href="GeomVector3_8h.html" target="_top" xlink:title="iDynTree/Core/GeomVector3.h">
<polygon fill="none" stroke="#000000" points="1302.5,-174 1302.5,-193 1465.5,-193 1465.5,-174 1302.5,-174"/>
<text text-anchor="middle" x="1384" y="-181" font-family="FreeSans.ttf" font-size="10.00" fill="#000000">iDynTree/Core/GeomVector3.h</text>
</a>
</g>
</g>
<!-- Node26&#45;&gt;Node27 -->
<g id="edge28" class="edge">
<title>Node26&#45;&gt;Node27</title>
<path fill="none" stroke="#191970" d="M1312.8762,-235.2967C1327.7669,-224.4524 1347.7243,-209.9182 1362.7081,-199.006"/>
<polygon fill="#191970" stroke="#191970" points="1364.8566,-201.7712 1370.8797,-193.055 1360.7357,-196.1127 1364.8566,-201.7712"/>
</g>
<!-- Node27&#45;&gt;Node16 -->
<g id="edge29" class="edge">
<title>Node27&#45;&gt;Node16</title>
<path fill="none" stroke="#191970" d="M1350.0938,-173.8906C1312.4321,-163.2169 1251.5298,-145.9566 1210.4115,-134.3033"/>
<polygon fill="#191970" stroke="#191970" points="1211.2436,-130.9013 1200.6682,-131.5419 1209.3349,-137.6361 1211.2436,-130.9013"/>
</g>
<!-- Node35&#45;&gt;Node26 -->
<g id="edge32" class="edge">
<title>Node35&#45;&gt;Node26</title>
<path fill="none" stroke="#191970" d="M1307.421,-307.9005C1305.1436,-299.4234 1301.7215,-286.6856 1298.6792,-275.3614"/>
<polygon fill="#191970" stroke="#191970" points="1302.0105,-274.2712 1296.0357,-265.5218 1295.2502,-276.0874 1302.0105,-274.2712"/>
</g>
<!-- Node37&#45;&gt;Node4 -->
<g id="edge56" class="edge">
<title>Node37&#45;&gt;Node4</title>
<path fill="none" stroke="#191970" d="M1044.066,-369.3366C1013.9376,-352.6268 948.5819,-318.5392 889,-302 669.1199,-240.9638 520.1023,-383.6328 386,-199 362.2839,-166.3475 382.1141,-139.1196 412,-112 439.6627,-86.8978 481.8386,-75.3302 510.8198,-70.1095"/>
<polygon fill="#191970" stroke="#191970" points="511.5494,-73.5366 520.8488,-68.46 510.4133,-66.6294 511.5494,-73.5366"/>
</g>
<!-- Node29 -->
<g id="node30" class="node">
<title>Node29</title>
<g id="a_node30"><a xlink:href="Position_8h.html" target="_top" xlink:title="Position.h">
<polygon fill="none" stroke="#000000" points="1012.5,-308 1012.5,-327 1077.5,-327 1077.5,-308 1012.5,-308"/>
<text text-anchor="middle" x="1045" y="-315" font-family="FreeSans.ttf" font-size="10.00" fill="#000000">Position.h</text>
</a>
</g>
</g>
<!-- Node37&#45;&gt;Node29 -->
<g id="edge36" class="edge">
<title>Node37&#45;&gt;Node29</title>
<path fill="none" stroke="#191970" d="M1058.5,-369.3906C1056.2588,-360.776 1052.9014,-347.8708 1050.0955,-337.0858"/>
<polygon fill="#191970" stroke="#191970" points="1053.4404,-336.0414 1047.5352,-327.2449 1046.6659,-337.804 1053.4404,-336.0414"/>
</g>
<!-- Node31 -->
<g id="node32" class="node">
<title>Node31</title>
<g id="a_node32"><a xlink:href="Rotation_8h.html" target="_top" xlink:title="iDynTree/Core/Rotation.h">
<polygon fill="none" stroke="#000000" points="1045.5,-241 1045.5,-260 1182.5,-260 1182.5,-241 1045.5,-241"/>
<text text-anchor="middle" x="1114" y="-248" font-family="FreeSans.ttf" font-size="10.00" fill="#000000">iDynTree/Core/Rotation.h</text>
</a>
</g>
</g>
<!-- Node37&#45;&gt;Node31 -->
<g id="edge54" class="edge">
<title>Node37&#45;&gt;Node31</title>
<path fill="none" stroke="#191970" d="M1134.2609,-373.8952C1226.8493,-366.6852 1376.2555,-352.2245 1393,-333 1402.0492,-322.6106 1401.8139,-312.5897 1393,-302 1389.5769,-297.8872 1262.1837,-275.6179 1180.742,-261.7435"/>
<polygon fill="#191970" stroke="#191970" points="1181.003,-258.2377 1170.5577,-260.0114 1179.8293,-265.1386 1181.003,-258.2377"/>
</g>
<!-- Node9 -->
<g id="node34" class="node">
<title>Node9</title>
<g id="a_node34"><a xlink:href="MatrixFixSize_8h.html" target="_top" xlink:title="iDynTree/Core/MatrixFixSize.h">
<polygon fill="none" stroke="#000000" points="1488.5,-112.5 1488.5,-131.5 1649.5,-131.5 1649.5,-112.5 1488.5,-112.5"/>
<text text-anchor="middle" x="1569" y="-119.5" font-family="FreeSans.ttf" font-size="10.00" fill="#000000">iDynTree/Core/MatrixFixSize.h</text>
</a>
</g>
</g>
<!-- Node37&#45;&gt;Node9 -->
<g id="edge55" class="edge">
<title>Node37&#45;&gt;Node9</title>
<path fill="none" stroke="#191970" d="M1134.0189,-375.9664C1222.2494,-371.1771 1364.5343,-359.5194 1410,-333 1489.4281,-286.6709 1541.961,-183.5103 1561.0138,-140.9367"/>
<polygon fill="#191970" stroke="#191970" points="1564.2495,-142.2726 1565.0401,-131.7073 1557.8334,-139.4736 1564.2495,-142.2726"/>
</g>
<!-- Node29&#45;&gt;Node4 -->
<g id="edge53" class="edge">
<title>Node29&#45;&gt;Node4</title>
<path fill="none" stroke="#191970" d="M1012.1629,-311.503C880.8612,-287.5192 400.6291,-199.7552 400,-199 358.734,-149.4619 457.6817,-100.1318 511.3039,-78.0355"/>
<polygon fill="#191970" stroke="#191970" points="512.7768,-81.2156 520.7449,-74.2327 510.1614,-74.7225 512.7768,-81.2156"/>
</g>
<!-- Node30 -->
<g id="node31" class="node">
<title>Node30</title>
<g id="a_node31"><a xlink:href="PositionRaw_8h.html" target="_top" xlink:title="iDynTree/Core/PositionRaw.h">
<polygon fill="none" stroke="#000000" points="800,-174 800,-193 956,-193 956,-174 800,-174"/>
<text text-anchor="middle" x="878" y="-181" font-family="FreeSans.ttf" font-size="10.00" fill="#000000">iDynTree/Core/PositionRaw.h</text>
</a>
</g>
</g>
<!-- Node29&#45;&gt;Node30 -->
<g id="edge37" class="edge">
<title>Node29&#45;&gt;Node30</title>
<path fill="none" stroke="#191970" d="M1032.9898,-307.8631C1004.5843,-285.0706 933.0317,-227.6572 897.9784,-199.5306"/>
<polygon fill="#191970" stroke="#191970" points="899.8914,-196.5781 889.9014,-193.0496 895.5106,-202.0379 899.8914,-196.5781"/>
</g>
<!-- Node29&#45;&gt;Node31 -->
<g id="edge40" class="edge">
<title>Node29&#45;&gt;Node31</title>
<path fill="none" stroke="#191970" d="M1054.886,-307.9005C1065.7484,-297.353 1083.4035,-280.2096 1096.5957,-267.3998"/>
<polygon fill="#191970" stroke="#191970" points="1099.3962,-269.559 1104.1323,-260.0817 1094.5198,-264.537 1099.3962,-269.559"/>
</g>
<!-- Node30&#45;&gt;Node4 -->
<g id="edge39" class="edge">
<title>Node30&#45;&gt;Node4</title>
<path fill="none" stroke="#191970" d="M850.8693,-173.984C789.5092,-152.4622 640.3235,-100.1359 574.7782,-77.1461"/>
<polygon fill="#191970" stroke="#191970" points="575.5979,-73.7246 565.003,-73.7175 573.281,-80.3301 575.5979,-73.7246"/>
</g>
<!-- Node30&#45;&gt;Node16 -->
<g id="edge38" class="edge">
<title>Node30&#45;&gt;Node16</title>
<path fill="none" stroke="#191970" d="M922.8392,-173.9581C973.8843,-163.0956 1057.2798,-145.3488 1112.1553,-133.6711"/>
<polygon fill="#191970" stroke="#191970" points="1113.0032,-137.0691 1122.0556,-131.5643 1111.5461,-130.2224 1113.0032,-137.0691"/>
</g>
<!-- Node31&#45;&gt;Node4 -->
<g id="edge41" class="edge">
<title>Node31&#45;&gt;Node4</title>
<path fill="none" stroke="#191970" d="M1099.8343,-240.9426C1074.0683,-223.958 1017.3497,-188.3898 965,-168 825.0439,-113.4882 647.2787,-82.0379 575.3661,-70.776"/>
<polygon fill="#191970" stroke="#191970" points="575.564,-67.2653 565.1475,-69.2008 574.4976,-74.1835 575.564,-67.2653"/>
</g>
<!-- Node31&#45;&gt;Node16 -->
<g id="edge52" class="edge">
<title>Node31&#45;&gt;Node16</title>
<path fill="none" stroke="#191970" d="M1104.2178,-240.9204C1089.2777,-225.0879 1064.0083,-192.7529 1079,-168 1088.1826,-152.8386 1104.1848,-142.4355 1120.0472,-135.4143"/>
<polygon fill="#191970" stroke="#191970" points="1121.3624,-138.6579 1129.318,-131.6607 1118.7353,-132.1695 1121.3624,-138.6579"/>
</g>
<!-- Node31&#45;&gt;Node27 -->
<g id="edge42" class="edge">
<title>Node31&#45;&gt;Node27</title>
<path fill="none" stroke="#191970" d="M1152.3977,-240.9717C1200.5426,-229.0246 1283.11,-208.5357 1335.551,-195.5225"/>
<polygon fill="#191970" stroke="#191970" points="1336.435,-198.9094 1345.2976,-193.1039 1334.749,-192.1155 1336.435,-198.9094"/>
</g>
<!-- Node32 -->
<g id="node33" class="node">
<title>Node32</title>
<g id="a_node33"><a xlink:href="RotationRaw_8h.html" target="_top" xlink:title="iDynTree/Core/RotationRaw.h">
<polygon fill="none" stroke="#000000" points="1088,-174 1088,-193 1246,-193 1246,-174 1088,-174"/>
<text text-anchor="middle" x="1167" y="-181" font-family="FreeSans.ttf" font-size="10.00" fill="#000000">iDynTree/Core/RotationRaw.h</text>
</a>
</g>
</g>
<!-- Node31&#45;&gt;Node32 -->
<g id="edge43" class="edge">
<title>Node31&#45;&gt;Node32</title>
<path fill="none" stroke="#191970" d="M1121.5936,-240.9005C1129.7798,-230.552 1142.9885,-213.8542 1153.0543,-201.1295"/>
<polygon fill="#191970" stroke="#191970" points="1155.9614,-203.0959 1159.4205,-193.0817 1150.4714,-198.7531 1155.9614,-203.0959"/>
</g>
<!-- Node32&#45;&gt;Node4 -->
<g id="edge51" class="edge">
<title>Node32&#45;&gt;Node4</title>
<path fill="none" stroke="#191970" d="M1151.2001,-173.9697C1121.5132,-156.2391 1058.2172,-119.3149 1034,-112 947.5852,-85.898 670.3811,-71.5857 575.3368,-67.351"/>
<polygon fill="#191970" stroke="#191970" points="575.3246,-63.8472 565.181,-66.9062 575.0182,-70.8405 575.3246,-63.8472"/>
</g>
<!-- Node32&#45;&gt;Node9 -->
<g id="edge44" class="edge">
<title>Node32&#45;&gt;Node9</title>
<path fill="none" stroke="#191970" d="M1229.3714,-173.9581C1301.6594,-162.8991 1420.5891,-144.7047 1496.8125,-133.0436"/>
<polygon fill="#191970" stroke="#191970" points="1497.4573,-136.4858 1506.813,-131.5137 1496.3987,-129.5663 1497.4573,-136.4858"/>
</g>
<!-- Node9&#45;&gt;Node4 -->
<g id="edge48" class="edge">
<title>Node9&#45;&gt;Node4</title>
<path fill="none" stroke="#191970" d="M1488.4349,-113.207C1483.5531,-112.7712 1478.7124,-112.3642 1474,-112 1122.3482,-84.8257 694.6666,-70.5804 575.2885,-66.9458"/>
<polygon fill="#191970" stroke="#191970" points="575.1221,-63.4392 565.0212,-66.6363 574.9112,-70.4361 575.1221,-63.4392"/>
</g>
<!-- Node9&#45;&gt;Node10 -->
<g id="edge45" class="edge">
<title>Node9&#45;&gt;Node10</title>
<path fill="none" stroke="#191970" d="M1502.229,-112.4369C1431.4425,-102.2987 1320.1238,-86.3553 1248.0978,-76.0396"/>
<polygon fill="#191970" stroke="#191970" points="1248.1608,-72.513 1237.7656,-74.5598 1247.1683,-79.4423 1248.1608,-72.513"/>
</g>
<!-- Node9&#45;&gt;Node12 -->
<g id="edge46" class="edge">
<title>Node9&#45;&gt;Node12</title>
<path fill="none" stroke="#191970" d="M1500.9455,-112.4979C1446.769,-104.0484 1376.025,-90.7703 1351,-76 1331.3487,-64.4014 1315.0792,-43.583 1305.0211,-28.4214"/>
<polygon fill="#191970" stroke="#191970" points="1307.8955,-26.4186 1299.5864,-19.8452 1301.9827,-30.1655 1307.8955,-26.4186"/>
</g>
<!-- Node9&#45;&gt;Node15 -->
<g id="edge50" class="edge">
<title>Node9&#45;&gt;Node15</title>
<path fill="none" stroke="#191970" d="M1577.1868,-112.2455C1583.8589,-104.2958 1593.4479,-92.8706 1601.4253,-83.3656"/>
<polygon fill="#191970" stroke="#191970" points="1604.1592,-85.5525 1607.907,-75.6427 1598.7974,-81.0524 1604.1592,-85.5525"/>
</g>
<!-- Node9&#45;&gt;Node13 -->
<g id="edge47" class="edge">
<title>Node9&#45;&gt;Node13</title>
<path fill="none" stroke="#191970" d="M1564.8195,-112.2455C1561.619,-104.7776 1557.104,-94.2427 1553.1916,-85.1137"/>
<polygon fill="#191970" stroke="#191970" points="1556.2888,-83.4554 1549.1326,-75.6427 1549.8548,-86.2129 1556.2888,-83.4554"/>
</g>
<!-- Node9&#45;&gt;Node14 -->
<g id="edge49" class="edge">
<title>Node9&#45;&gt;Node14</title>
<path fill="none" stroke="#191970" d="M1600.8026,-112.3733C1632.2078,-102.8668 1680.3256,-88.3015 1714.2392,-78.0357"/>
<polygon fill="#191970" stroke="#191970" points="1715.2803,-81.3775 1723.8374,-75.1303 1713.2522,-74.6777 1715.2803,-81.3775"/>
</g>
<!-- Node38&#45;&gt;Node4 -->
<g id="edge60" class="edge">
<title>Node38&#45;&gt;Node4</title>
<path fill="none" stroke="#191970" d="M1074.4717,-432.5161C949.7416,-420.1608 722.0364,-396.9984 685,-389 606.8305,-372.1185 560.9311,-397.7528 514,-333 491.8766,-302.4754 544.3,-269.3645 559,-199 567.3229,-159.1608 556.79,-111.6383 549.2915,-85.5539"/>
<polygon fill="#191970" stroke="#191970" points="552.5771,-84.3275 546.3274,-75.7723 545.8779,-86.3576 552.5771,-84.3275"/>
</g>
<!-- Node38&#45;&gt;Node37 -->
<g id="edge62" class="edge">
<title>Node38&#45;&gt;Node37</title>
<path fill="none" stroke="#191970" d="M1141.1563,-430.8906C1125.9582,-421.0519 1102.1152,-405.6167 1084.3794,-394.1351"/>
<polygon fill="#191970" stroke="#191970" points="1086.0361,-391.0382 1075.7395,-388.5419 1082.232,-396.9144 1086.0361,-391.0382"/>
</g>
<!-- Node38&#45;&gt;Node39 -->
<g id="edge59" class="edge">
<title>Node38&#45;&gt;Node39</title>
<path fill="none" stroke="#191970" d="M1191.3125,-430.8906C1233.9768,-419.2806 1305.2783,-399.8778 1347.5516,-388.3742"/>
<polygon fill="#191970" stroke="#191970" points="1348.6537,-391.7017 1357.3838,-385.6987 1346.8157,-384.9473 1348.6537,-391.7017"/>
</g>
<!-- Node38&#45;&gt;Node40 -->
<g id="edge61" class="edge">
<title>Node38&#45;&gt;Node40</title>
<path fill="none" stroke="#191970" d="M1173.1875,-430.8906C1191.1082,-420.8713 1219.4095,-405.0483 1240.0523,-393.5071"/>
<polygon fill="#191970" stroke="#191970" points="1241.9128,-396.4769 1248.9332,-388.5419 1238.4967,-390.367 1241.9128,-396.4769"/>
</g>
<!-- Node41&#45;&gt;Node1 -->
<g id="edge66" class="edge">
<title>Node41&#45;&gt;Node1</title>
<path fill="none" stroke="#191970" d="M1255.1443,-604.4611C1234.7871,-595.7124 1204.3825,-582.0197 1179,-568 1150.3722,-552.1878 1119.0043,-531.3178 1098.7177,-517.3175"/>
<polygon fill="#191970" stroke="#191970" points="1100.6926,-514.4278 1090.4843,-511.5921 1096.6962,-520.1749 1100.6926,-514.4278"/>
</g>
<!-- Node41&#45;&gt;Node4 -->
<g id="edge78" class="edge">
<title>Node41&#45;&gt;Node4</title>
<path fill="none" stroke="#191970" d="M1189.7902,-610.5647C926.5354,-599.7662 158.5471,-564.1023 59,-512 22.4976,-492.8949 0,-481.6999 0,-440.5 0,-440.5 0,-440.5 0,-183.5 0,-136.4723 35.0648,-131.1879 78,-112 155.7437,-77.2561 418.6958,-68.5614 510.8052,-66.5573"/>
<polygon fill="#191970" stroke="#191970" points="510.9945,-70.0543 520.9205,-66.3495 510.8507,-63.0557 510.9945,-70.0543"/>
</g>
<!-- Node41&#45;&gt;Node40 -->
<g id="edge79" class="edge">
<title>Node41&#45;&gt;Node40</title>
<path fill="none" stroke="#191970" d="M1330.0814,-604.4495C1367.5689,-596.3926 1413.4796,-583.6763 1425,-568 1430.2638,-560.8373 1428.2761,-556.2631 1425,-548 1397.4885,-478.6088 1326.5019,-421.1298 1289.3897,-394.6733"/>
<polygon fill="#191970" stroke="#191970" points="1290.934,-391.4828 1280.7313,-388.627 1286.9263,-397.222 1290.934,-391.4828"/>
</g>
<!-- Node42 -->
<g id="node40" class="node">
<title>Node42</title>
<g id="a_node40"><a xlink:href="Sensors_8h.html" target="_top" xlink:title="iDynTree/Sensors/Sensors.h">
<polygon fill="none" stroke="#000000" points="1264.5,-548.5 1264.5,-567.5 1415.5,-567.5 1415.5,-548.5 1264.5,-548.5"/>
<text text-anchor="middle" x="1340" y="-555.5" font-family="FreeSans.ttf" font-size="10.00" fill="#000000">iDynTree/Sensors/Sensors.h</text>
</a>
</g>
</g>
<!-- Node41&#45;&gt;Node42 -->
<g id="edge67" class="edge">
<title>Node41&#45;&gt;Node42</title>
<path fill="none" stroke="#191970" d="M1288.7996,-604.2455C1297.8678,-596.0549 1311.0206,-584.1749 1321.7245,-574.5069"/>
<polygon fill="#191970" stroke="#191970" points="1324.2491,-576.9429 1329.3242,-567.6427 1319.5571,-571.7482 1324.2491,-576.9429"/>
</g>
<!-- Node44 -->
<g id="node42" class="node">
<title>Node44</title>
<polygon fill="none" stroke="#bfbfbf" points="1188,-548.5 1188,-567.5 1246,-567.5 1246,-548.5 1188,-548.5"/>
<text text-anchor="middle" x="1217" y="-555.5" font-family="FreeSans.ttf" font-size="10.00" fill="#000000">memory</text>
</g>
<!-- Node41&#45;&gt;Node44 -->
<g id="edge77" class="edge">
<title>Node41&#45;&gt;Node44</title>
<path fill="none" stroke="#191970" d="M1267.3746,-604.2455C1258.4527,-596.0549 1245.512,-584.1749 1234.9808,-574.5069"/>
<polygon fill="#191970" stroke="#191970" points="1237.2371,-571.8271 1227.5036,-567.6427 1232.5032,-576.9837 1237.2371,-571.8271"/>
</g>
<!-- Node42&#45;&gt;Node1 -->
<g id="edge75" class="edge">
<title>Node42&#45;&gt;Node1</title>
<path fill="none" stroke="#191970" d="M1295.0875,-548.4369C1249.888,-538.8127 1180.1193,-523.957 1131.7153,-513.6504"/>
<polygon fill="#191970" stroke="#191970" points="1132.2369,-510.1831 1121.7272,-511.5237 1130.779,-517.0296 1132.2369,-510.1831"/>
</g>
<!-- Node42&#45;&gt;Node3 -->
<g id="edge76" class="edge">
<title>Node42&#45;&gt;Node3</title>
<path fill="none" stroke="#191970" d="M1264.4572,-549.1045C1261.2621,-548.7308 1258.0993,-548.3614 1255,-548 1078.1321,-527.375 615.5911,-540.7755 459,-456 434.494,-442.7329 415.5826,-415.8863 404.8689,-397.6705"/>
<polygon fill="#191970" stroke="#191970" points="407.7174,-395.5938 399.7768,-388.5796 401.6102,-399.0146 407.7174,-395.5938"/>
</g>
<!-- Node42&#45;&gt;Node4 -->
<g id="edge69" class="edge">
<title>Node42&#45;&gt;Node4</title>
<path fill="none" stroke="#191970" d="M1264.4875,-548.7902C1261.2841,-548.5026 1258.1113,-548.2371 1255,-548 1027.0763,-530.6313 451.1033,-557.0399 227,-512 138.9507,-494.304 38,-530.31 38,-440.5 38,-440.5 38,-440.5 38,-183.5 38,-86.0405 399.3141,-69.3864 510.7024,-66.5678"/>
<polygon fill="#191970" stroke="#191970" points="511.0598,-70.0606 520.9761,-66.3298 510.8976,-63.0624 511.0598,-70.0606"/>
</g>
<!-- Node42&#45;&gt;Node20 -->
<g id="edge71" class="edge">
<title>Node42&#45;&gt;Node20</title>
<path fill="none" stroke="#191970" d="M1415.6476,-551.5372C1581.4116,-536.3581 1962,-495.5167 1962,-440.5 1962,-440.5 1962,-440.5 1962,-122 1962,-89.7 1960.7378,-52.1791 1959.8508,-29.8005"/>
<polygon fill="#191970" stroke="#191970" points="1963.3387,-29.4334 1959.4298,-19.5861 1956.3447,-29.7217 1963.3387,-29.4334"/>
</g>
<!-- Node42&#45;&gt;Node27 -->
<g id="edge68" class="edge">
<title>Node42&#45;&gt;Node27</title>
<path fill="none" stroke="#191970" d="M1360.6318,-548.3645C1389.974,-533.3658 1442.573,-501.3703 1464,-456 1506.9427,-365.0718 1430.687,-246.0703 1397.9026,-201.4378"/>
<polygon fill="#191970" stroke="#191970" points="1400.601,-199.2024 1391.7989,-193.3055 1395.0025,-203.4044 1400.601,-199.2024"/>
</g>
<!-- Node42&#45;&gt;Node40 -->
<g id="edge70" class="edge">
<title>Node42&#45;&gt;Node40</title>
<path fill="none" stroke="#191970" d="M1336.0214,-548.3762C1324.2768,-519.9669 1289.5985,-436.0828 1273.8907,-398.0871"/>
<polygon fill="#191970" stroke="#191970" points="1277.0533,-396.5756 1269.9982,-388.6714 1270.5843,-399.25 1277.0533,-396.5756"/>
</g>
<!-- Node43 -->
<g id="node41" class="node">
<title>Node43</title>
<g id="a_node41"><a xlink:href="VectorDynSize_8h.html" target="_top" xlink:title="iDynTree/Core/VectorDynSize.h">
<polygon fill="none" stroke="#000000" points="1265.5,-112.5 1265.5,-131.5 1432.5,-131.5 1432.5,-112.5 1265.5,-112.5"/>
<text text-anchor="middle" x="1349" y="-119.5" font-family="FreeSans.ttf" font-size="10.00" fill="#000000">iDynTree/Core/VectorDynSize.h</text>
</a>
</g>
</g>
<!-- Node42&#45;&gt;Node43 -->
<g id="edge72" class="edge">
<title>Node42&#45;&gt;Node43</title>
<path fill="none" stroke="#191970" d="M1345.3382,-548.4187C1367.5892,-507.7948 1452.8301,-345.1523 1475,-199 1477.0663,-185.3781 1482.8971,-179.29 1475,-168 1465.8765,-154.9568 1430.5668,-142.7264 1399.6396,-134.1602"/>
<polygon fill="#191970" stroke="#191970" points="1400.3569,-130.7288 1389.791,-131.5114 1398.5388,-137.4886 1400.3569,-130.7288"/>
</g>
<!-- Node43&#45;&gt;Node4 -->
<g id="edge74" class="edge">
<title>Node43&#45;&gt;Node4</title>
<path fill="none" stroke="#191970" d="M1265.2783,-112.742C1262.4865,-112.4837 1259.7211,-112.2354 1257,-112 994.3149,-89.2728 676.3645,-72.6092 575.3955,-67.579"/>
<polygon fill="#191970" stroke="#191970" points="575.3967,-64.0748 565.2358,-67.0757 575.0504,-71.0663 575.3967,-64.0748"/>
</g>
<!-- Node43&#45;&gt;Node17 -->
<g id="edge73" class="edge">
<title>Node43&#45;&gt;Node17</title>
<path fill="none" stroke="#191970" d="M1361.3673,-112.2455C1371.9554,-103.8943 1387.4064,-91.7076 1399.7893,-81.9408"/>
<polygon fill="#191970" stroke="#191970" points="1402.0903,-84.5837 1407.7745,-75.6427 1397.7553,-79.0875 1402.0903,-84.5837"/>
</g>
<!-- Node45&#45;&gt;Node3 -->
<g id="edge87" class="edge">
<title>Node45&#45;&gt;Node3</title>
<path fill="none" stroke="#191970" d="M329.5713,-492.3484C341.392,-471.8703 369.1502,-423.782 384.4388,-397.2962"/>
<polygon fill="#191970" stroke="#191970" points="387.4866,-399.0172 389.4546,-388.6068 381.4241,-395.5177 387.4866,-399.0172"/>
</g>
<!-- Node45&#45;&gt;Node4 -->
<g id="edge81" class="edge">
<title>Node45&#45;&gt;Node4</title>
<path fill="none" stroke="#191970" d="M318.4348,-492.4702C305.454,-470.3824 271.9223,-414.13 241,-369 229.6954,-352.5013 222.938,-350.8917 214,-333 196.9343,-298.8388 190,-288.6867 190,-250.5 190,-250.5 190,-250.5 190,-183.5 190,-135.8133 227.0221,-132.6622 270,-112 312.1774,-91.7226 448.1553,-75.6772 510.8238,-69.1587"/>
<polygon fill="#191970" stroke="#191970" points="511.3401,-72.6242 520.9317,-68.124 510.6273,-65.6606 511.3401,-72.6242"/>
</g>
<!-- Node45&#45;&gt;Node16 -->
<g id="edge83" class="edge">
<title>Node45&#45;&gt;Node16</title>
<path fill="none" stroke="#191970" d="M411.8084,-499.3742C526.331,-494.9008 719.7609,-483.4538 785,-456 787.6717,-454.8757 862.8991,-390.9971 865,-389 962.1026,-296.6966 961.9735,-247.2409 1070,-168 1088.4285,-154.4821 1111.4584,-143.36 1130.4534,-135.4401"/>
<polygon fill="#191970" stroke="#191970" points="1132.0118,-138.5855 1139.9729,-131.5947 1129.3899,-132.095 1132.0118,-138.5855"/>
</g>
<!-- Node45&#45;&gt;Node10 -->
<g id="edge86" class="edge">
<title>Node45&#45;&gt;Node10</title>
<path fill="none" stroke="#191970" d="M320.771,-492.1429C311.5994,-462.5559 287.4088,-372.2254 309,-302 330.1564,-233.1885 338.713,-205.7693 400,-168 517.995,-95.2832 939.9741,-73.7216 1108.1216,-67.9356"/>
<polygon fill="#191970" stroke="#191970" points="1108.4673,-71.4261 1118.3443,-67.5926 1108.2325,-64.43 1108.4673,-71.4261"/>
</g>
<!-- Node45&#45;&gt;Node40 -->
<g id="edge82" class="edge">
<title>Node45&#45;&gt;Node40</title>
<path fill="none" stroke="#191970" d="M411.6726,-499.3999C566.5929,-494.2305 882.5355,-480.9498 990,-456 1025.5345,-447.75 1031.2225,-436.0131 1066,-425 1123.3713,-406.8321 1192.1012,-392.6134 1232.226,-385.0414"/>
<polygon fill="#191970" stroke="#191970" points="1233.0781,-388.443 1242.2691,-383.1727 1231.7975,-381.5612 1233.0781,-388.443"/>
</g>
<!-- Node46 -->
<g id="node44" class="node">
<title>Node46</title>
<g id="a_node44"><a xlink:href="MatrixDynSize_8h.html" target="_top" xlink:title="iDynTree/Core/MatrixDynSize.h">
<polygon fill="none" stroke="#000000" points="65.5,-369.5 65.5,-388.5 232.5,-388.5 232.5,-369.5 65.5,-369.5"/>
<text text-anchor="middle" x="149" y="-376.5" font-family="FreeSans.ttf" font-size="10.00" fill="#000000">iDynTree/Core/MatrixDynSize.h</text>
</a>
</g>
</g>
<!-- Node45&#45;&gt;Node46 -->
<g id="edge84" class="edge">
<title>Node45&#45;&gt;Node46</title>
<path fill="none" stroke="#191970" d="M236.3292,-495.7185C179.5499,-489.6163 112.9549,-477.9203 95,-456 86.2695,-445.3414 89.2237,-437.5085 95,-425 100.8259,-412.384 112.0069,-401.9528 122.6905,-394.2314"/>
<polygon fill="#191970" stroke="#191970" points="124.6856,-397.1076 131.0401,-388.6299 120.7858,-391.2946 124.6856,-397.1076"/>
</g>
<!-- Node47 -->
<g id="node45" class="node">
<title>Node47</title>
<g id="a_node45"><a xlink:href="FreeFloatingMatrices_8h.html" target="_top" xlink:title="iDynTree/Model/FreeFloating\lMatrices.h">
<polygon fill="none" stroke="#000000" points="104,-425.5 104,-455.5 258,-455.5 258,-425.5 104,-425.5"/>
<text text-anchor="start" x="112" y="-443.5" font-family="FreeSans.ttf" font-size="10.00" fill="#000000">iDynTree/Model/FreeFloating</text>
<text text-anchor="middle" x="181" y="-432.5" font-family="FreeSans.ttf" font-size="10.00" fill="#000000">Matrices.h</text>
</a>
</g>
</g>
<!-- Node45&#45;&gt;Node47 -->
<g id="edge88" class="edge">
<title>Node45&#45;&gt;Node47</title>
<path fill="none" stroke="#191970" d="M301.6563,-492.3906C281.3174,-483.6435 250.6929,-470.4728 225.3874,-459.5897"/>
<polygon fill="#191970" stroke="#191970" points="226.551,-456.2802 215.9817,-455.5446 223.7854,-462.7107 226.551,-456.2802"/>
</g>
<!-- Node48 -->
<g id="node46" class="node">
<title>Node48</title>
<g id="a_node46"><a xlink:href="LinkState_8h.html" target="_top" xlink:title="iDynTree/Model/LinkState.h">
<polygon fill="none" stroke="#000000" points="831.5,-431 831.5,-450 980.5,-450 980.5,-431 831.5,-431"/>
<text text-anchor="middle" x="906" y="-438" font-family="FreeSans.ttf" font-size="10.00" fill="#000000">iDynTree/Model/LinkState.h</text>
</a>
</g>
</g>
<!-- Node45&#45;&gt;Node48 -->
<g id="edge90" class="edge">
<title>Node45&#45;&gt;Node48</title>
<path fill="none" stroke="#191970" d="M411.6948,-496.0032C510.6475,-488.7332 676.2902,-475.0457 818,-456 827.0326,-454.786 836.5541,-453.3129 845.8643,-451.7635"/>
<polygon fill="#191970" stroke="#191970" points="846.5813,-455.1919 855.8509,-450.061 845.4049,-448.2914 846.5813,-455.1919"/>
</g>
<!-- Node46&#45;&gt;Node4 -->
<g id="edge85" class="edge">
<title>Node46&#45;&gt;Node4</title>
<path fill="none" stroke="#191970" d="M149.2533,-369.3289C149.7915,-347.9199 151,-294.9003 151,-250.5 151,-250.5 151,-250.5 151,-183.5 151,-149.8357 149.8143,-133.1564 176,-112 201.866,-91.1019 426.1529,-73.9061 510.8241,-68.1035"/>
<polygon fill="#191970" stroke="#191970" points="511.1547,-71.5892 520.8956,-67.4221 510.6821,-64.6052 511.1547,-71.5892"/>
</g>
<!-- Node47&#45;&gt;Node46 -->
<g id="edge89" class="edge">
<title>Node47&#45;&gt;Node46</title>
<path fill="none" stroke="#191970" d="M173.0899,-425.2977C168.7868,-417.0277 163.4242,-406.7215 158.8518,-397.9339"/>
<polygon fill="#191970" stroke="#191970" points="161.8443,-396.1024 154.1236,-388.8469 155.6346,-399.3335 161.8443,-396.1024"/>
</g>
<!-- Node48&#45;&gt;Node3 -->
<g id="edge98" class="edge">
<title>Node48&#45;&gt;Node3</title>
<path fill="none" stroke="#191970" d="M832.7517,-430.9892C817.0032,-428.9802 800.4504,-426.8954 785,-425 648.6429,-408.272 614.4189,-405.2165 478,-389 476.883,-388.8672 475.7576,-388.7333 474.6253,-388.5985"/>
<polygon fill="#191970" stroke="#191970" points="474.6339,-385.0747 464.2896,-387.3648 473.8042,-392.0254 474.6339,-385.0747"/>
</g>
<!-- Node48&#45;&gt;Node25 -->
<g id="edge92" class="edge">
<title>Node48&#45;&gt;Node25</title>
<path fill="none" stroke="#191970" d="M908.6127,-430.9774C913.367,-415.501 924.9398,-385.0122 946,-369 952.3976,-364.1359 1043.8763,-342.9049 1104.2621,-329.2671"/>
<polygon fill="#191970" stroke="#191970" points="1105.0521,-332.6769 1114.038,-327.0641 1103.5132,-325.8481 1105.0521,-332.6769"/>
</g>
<!-- Node48&#45;&gt;Node35 -->
<g id="edge93" class="edge">
<title>Node48&#45;&gt;Node35</title>
<path fill="none" stroke="#191970" d="M912.5712,-430.9243C924.0212,-415.0837 949.2684,-383.7151 979,-369 1078.8205,-319.5955 1117.124,-351.2267 1227,-333 1234.7277,-331.7181 1242.8458,-330.296 1250.8545,-328.8481"/>
<polygon fill="#191970" stroke="#191970" points="1251.6964,-332.2522 1260.9028,-327.0088 1250.436,-325.3666 1251.6964,-332.2522"/>
</g>
<!-- Node48&#45;&gt;Node36 -->
<g id="edge94" class="edge">
<title>Node48&#45;&gt;Node36</title>
<path fill="none" stroke="#191970" d="M833.2067,-430.9836C737.9935,-418.361 580.1612,-396.7709 554,-389 541.1519,-385.1836 469.0577,-351.055 427.8688,-331.3616"/>
<polygon fill="#191970" stroke="#191970" points="429.3798,-328.2046 418.8488,-327.0435 426.3572,-334.5184 429.3798,-328.2046"/>
</g>
<!-- Node48&#45;&gt;Node37 -->
<g id="edge91" class="edge">
<title>Node48&#45;&gt;Node37</title>
<path fill="none" stroke="#191970" d="M930.2188,-430.8906C956.3806,-420.5103 998.2429,-403.9004 1027.5388,-392.2766"/>
<polygon fill="#191970" stroke="#191970" points="1028.9471,-395.4833 1036.9513,-388.5419 1026.3654,-388.9767 1028.9471,-395.4833"/>
</g>
<!-- Node48&#45;&gt;Node40 -->
<g id="edge99" class="edge">
<title>Node48&#45;&gt;Node40</title>
<path fill="none" stroke="#191970" d="M959.9747,-430.9332C971.2172,-428.9573 982.9935,-426.9 994,-425 1079.8774,-410.1754 1181.095,-393.1847 1232.4574,-384.5971"/>
<polygon fill="#191970" stroke="#191970" points="1233.0555,-388.0457 1242.3418,-382.9453 1231.9017,-381.1415 1233.0555,-388.0457"/>
</g>
<!-- Node49 -->
<g id="node47" class="node">
<title>Node49</title>
<g id="a_node47"><a xlink:href="ArticulatedBodyInertia_8h.html" target="_top" xlink:title="iDynTree/Core/Articulated\lBodyInertia.h">
<polygon fill="none" stroke="#000000" points="408.5,-168.5 408.5,-198.5 549.5,-198.5 549.5,-168.5 408.5,-168.5"/>
<text text-anchor="start" x="416.5" y="-186.5" font-family="FreeSans.ttf" font-size="10.00" fill="#000000">iDynTree/Core/Articulated</text>
<text text-anchor="middle" x="479" y="-175.5" font-family="FreeSans.ttf" font-size="10.00" fill="#000000">BodyInertia.h</text>
</a>
</g>
</g>
<!-- Node48&#45;&gt;Node49 -->
<g id="edge95" class="edge">
<title>Node48&#45;&gt;Node49</title>
<path fill="none" stroke="#191970" d="M831.4515,-430.9503C715.9865,-416.1526 506.9565,-389.3345 506,-389 489.8116,-383.338 488.8559,-375.5356 473,-369 410.0131,-343.0378 366.1387,-386.5324 324,-333 283.1721,-281.1328 372.3837,-229.6996 431.6864,-202.7718"/>
<polygon fill="#191970" stroke="#191970" points="433.2079,-205.9258 440.9228,-198.6642 430.3634,-199.5297 433.2079,-205.9258"/>
</g>
<!-- Node49&#45;&gt;Node4 -->
<g id="edge97" class="edge">
<title>Node49&#45;&gt;Node4</title>
<path fill="none" stroke="#191970" d="M487.3669,-168.1389C499.1073,-146.5843 520.4369,-107.4245 532.9995,-84.3604"/>
<polygon fill="#191970" stroke="#191970" points="536.0834,-86.0155 537.7931,-75.5595 529.9362,-82.6671 536.0834,-86.0155"/>
</g>
<!-- Node49&#45;&gt;Node9 -->
<g id="edge96" class="edge">
<title>Node49&#45;&gt;Node9</title>
<path fill="none" stroke="#191970" d="M549.546,-179.9586C741.1154,-170.3047 1268.2557,-143.4843 1442,-132 1453.724,-131.2251 1466.0512,-130.3411 1478.2265,-129.4268"/>
<polygon fill="#191970" stroke="#191970" points="1478.6955,-132.9013 1488.4014,-128.6533 1478.1648,-125.9214 1478.6955,-132.9013"/>
</g>
<!-- Node50&#45;&gt;Node4 -->
<g id="edge105" class="edge">
<title>Node50&#45;&gt;Node4</title>
<path fill="none" stroke="#191970" d="M1649.6711,-430.8025C1640.3997,-420.8459 1626.1371,-404.6383 1616,-389 1556.5347,-297.2641 1575.1031,-254.3063 1508,-168 1484.3873,-137.6299 1477.7627,-126.1751 1442,-112 1360.1535,-79.5589 725.8287,-68.5879 575.0709,-66.4254"/>
<polygon fill="#191970" stroke="#191970" points="575.1145,-62.9257 565.0663,-66.2847 575.0161,-69.925 575.1145,-62.9257"/>
</g>
<!-- Node50&#45;&gt;Node18 -->
<g id="edge109" class="edge">
<title>Node50&#45;&gt;Node18</title>
<path fill="none" stroke="#191970" d="M1691.7869,-434.4947C1735.6102,-425.8298 1809.983,-408.6831 1829,-389 1851.8465,-365.3532 1848,-350.3806 1848,-317.5 1848,-317.5 1848,-317.5 1848,-122 1848,-75.0456 1798.2031,-41.5403 1763.8629,-24.0171"/>
<polygon fill="#191970" stroke="#191970" points="1765.1616,-20.756 1754.6413,-19.5006 1762.0826,-27.0425 1765.1616,-20.756"/>
</g>
<!-- Node50&#45;&gt;Node22 -->
<g id="edge106" class="edge">
<title>Node50&#45;&gt;Node22</title>
<path fill="none" stroke="#191970" d="M1691.5791,-435.0278C1739.4572,-426.4451 1825.7746,-408.7454 1850,-389 1877.5782,-366.5218 1886,-353.0785 1886,-317.5 1886,-317.5 1886,-317.5 1886,-122 1886,-88.7204 1874.9729,-51.2857 1867.2813,-29.2224"/>
<polygon fill="#191970" stroke="#191970" points="1870.5329,-27.9219 1863.8364,-19.7117 1863.9513,-30.3059 1870.5329,-27.9219"/>
</g>
<!-- Node50&#45;&gt;Node15 -->
<g id="edge102" class="edge">
<title>Node50&#45;&gt;Node15</title>
<path fill="none" stroke="#191970" d="M1667.7766,-430.9661C1676.384,-421.1368 1689.3037,-405.0261 1697,-389 1711.2341,-359.3601 1716,-350.3806 1716,-317.5 1716,-317.5 1716,-317.5 1716,-183.5 1716,-149.9798 1712.9514,-138.1657 1692,-112 1681.0081,-98.2725 1664.7306,-87.6479 1650.0567,-80.0854"/>
<polygon fill="#191970" stroke="#191970" points="1651.242,-76.7704 1640.717,-75.5561 1648.1875,-83.0689 1651.242,-76.7704"/>
</g>
<!-- Node50&#45;&gt;Node13 -->
<g id="edge108" class="edge">
<title>Node50&#45;&gt;Node13</title>
<path fill="none" stroke="#191970" d="M1649.2286,-430.9163C1640.1758,-421.2942 1627.3312,-405.5575 1622,-389 1619.2757,-380.5389 1621.3124,-377.8623 1622,-369 1630.9269,-253.9459 1723.5521,-207.6565 1659,-112 1654.2531,-104.9658 1611.4022,-88.9167 1579.6258,-77.7692"/>
<polygon fill="#191970" stroke="#191970" points="1580.769,-74.4612 1570.1741,-74.4825 1578.4697,-81.0729 1580.769,-74.4612"/>
</g>
<!-- Node50&#45;&gt;Node14 -->
<g id="edge101" class="edge">
<title>Node50&#45;&gt;Node14</title>
<path fill="none" stroke="#191970" d="M1673.8438,-430.9947C1700.5625,-412.5901 1754,-369.3052 1754,-317.5 1754,-317.5 1754,-317.5 1754,-183.5 1754,-149.1399 1754,-109.128 1754,-85.7764"/>
<polygon fill="#191970" stroke="#191970" points="1757.5001,-85.7489 1754,-75.7489 1750.5001,-85.749 1757.5001,-85.7489"/>
</g>
<!-- Node50&#45;&gt;Node39 -->
<g id="edge110" class="edge">
<title>Node50&#45;&gt;Node39</title>
<path fill="none" stroke="#191970" d="M1626.41,-433.2643C1573.7432,-421.5711 1470.3947,-398.6255 1416.519,-386.664"/>
<polygon fill="#191970" stroke="#191970" points="1417.2665,-383.2448 1406.7456,-384.4941 1415.7492,-390.0784 1417.2665,-383.2448"/>
</g>
<!-- Node50&#45;&gt;Node40 -->
<g id="edge103" class="edge">
<title>Node50&#45;&gt;Node40</title>
<path fill="none" stroke="#191970" d="M1626.169,-435.3623C1552.4954,-423.8332 1374.6263,-395.9988 1299.9293,-384.3095"/>
<polygon fill="#191970" stroke="#191970" points="1300.1026,-380.7942 1289.6817,-382.7059 1299.0203,-387.71 1300.1026,-380.7942"/>
</g>
<!-- Node51 -->
<g id="node49" class="node">
<title>Node51</title>
<polygon fill="none" stroke="#bfbfbf" points="1782,-369.5 1782,-388.5 1820,-388.5 1820,-369.5 1782,-369.5"/>
<text text-anchor="middle" x="1801" y="-376.5" font-family="FreeSans.ttf" font-size="10.00" fill="#000000">map</text>
</g>
<!-- Node50&#45;&gt;Node51 -->
<g id="edge104" class="edge">
<title>Node50&#45;&gt;Node51</title>
<path fill="none" stroke="#191970" d="M1681.1875,-430.8906C1705.7804,-420.2395 1745.5171,-403.0296 1772.4217,-391.3772"/>
<polygon fill="#191970" stroke="#191970" points="1773.9161,-394.5442 1781.7015,-387.3582 1771.1341,-388.1208 1773.9161,-394.5442"/>
</g>
<!-- Node52 -->
<g id="node50" class="node">
<title>Node52</title>
<polygon fill="none" stroke="#bfbfbf" points="1630.5,-369.5 1630.5,-388.5 1687.5,-388.5 1687.5,-369.5 1630.5,-369.5"/>
<text text-anchor="middle" x="1659" y="-376.5" font-family="FreeSans.ttf" font-size="10.00" fill="#000000">typeinfo</text>
</g>
<!-- Node50&#45;&gt;Node52 -->
<g id="edge107" class="edge">
<title>Node50&#45;&gt;Node52</title>
<path fill="none" stroke="#191970" d="M1659,-430.8906C1659,-422.3657 1659,-409.6392 1659,-398.9235"/>
<polygon fill="#191970" stroke="#191970" points="1662.5001,-398.7448 1659,-388.7449 1655.5001,-398.7449 1662.5001,-398.7448"/>
</g>
</g>
</svg>
