<?xml version="1.0" encoding="UTF-8" standalone="no"?>
<!DOCTYPE svg PUBLIC "-//W3C//DTD SVG 1.1//EN"
 "http://www.w3.org/Graphics/SVG/1.1/DTD/svg11.dtd">
<!-- Generated by graphviz version 2.40.1 (20161225.0304)
 -->
<!-- Title: ImplicitTrapezoidal.cpp Pages: 1 -->
<svg width="1897pt" height="565pt"
 viewBox="0.00 0.00 1897.00 565.00" xmlns="http://www.w3.org/2000/svg" xmlns:xlink="http://www.w3.org/1999/xlink">
<g id="graph0" class="graph" transform="scale(1 1) rotate(0) translate(4 561)">
<title>ImplicitTrapezoidal.cpp</title>
<!-- Node0 -->
<g id="node1" class="node">
<title>Node0</title>
<polygon fill="#bfbfbf" stroke="#000000" points="505.5,-537.5 505.5,-556.5 634.5,-556.5 634.5,-537.5 505.5,-537.5"/>
<text text-anchor="middle" x="570" y="-544.5" font-family="FreeSans.ttf" font-size="10.00" fill="#000000">ImplicitTrapezoidal.cpp</text>
</g>
<!-- Node1 -->
<g id="node2" class="node">
<title>Node1</title>
<g id="a_node2"><a xlink:href="ImplicitTrapezoidal_8h.html" target="_top" xlink:title="iDynTree/Integrators\l/ImplicitTrapezoidal.h">
<polygon fill="none" stroke="#000000" points="465.5,-470.5 465.5,-500.5 586.5,-500.5 586.5,-470.5 465.5,-470.5"/>
<text text-anchor="start" x="473.5" y="-488.5" font-family="FreeSans.ttf" font-size="10.00" fill="#000000">iDynTree/Integrators</text>
<text text-anchor="middle" x="526" y="-477.5" font-family="FreeSans.ttf" font-size="10.00" fill="#000000">/ImplicitTrapezoidal.h</text>
</a>
</g>
</g>
<!-- Node0&#45;&gt;Node1 -->
<g id="edge1" class="edge">
<title>Node0&#45;&gt;Node1</title>
<path fill="none" stroke="#191970" d="M563.125,-537.3906C557.6664,-529.761 549.7999,-518.7658 542.712,-508.8588"/>
<polygon fill="#191970" stroke="#191970" points="545.4288,-506.6409 536.7636,-500.5446 539.7358,-510.714 545.4288,-506.6409"/>
</g>
<!-- Node9 -->
<g id="node10" class="node">
<title>Node9</title>
<polygon fill="none" stroke="#bfbfbf" points="531.5,-.5 531.5,-19.5 584.5,-19.5 584.5,-.5 531.5,-.5"/>
<text text-anchor="middle" x="558" y="-7.5" font-family="FreeSans.ttf" font-size="10.00" fill="#000000">cstddef</text>
</g>
<!-- Node0&#45;&gt;Node9 -->
<g id="edge85" class="edge">
<title>Node0&#45;&gt;Node9</title>
<path fill="none" stroke="#191970" d="M505.4455,-539.2029C356.2121,-520.3056 0,-469.8232 0,-418.5 0,-418.5 0,-418.5 0,-122 0,-66.8799 52.8752,-73.9228 105,-56 181.8392,-29.5792 427.3936,-15.9283 521.1436,-11.5757"/>
<polygon fill="#191970" stroke="#191970" points="521.4576,-15.0652 531.288,-11.1137 521.1391,-8.0724 521.4576,-15.0652"/>
</g>
<!-- Node15 -->
<g id="node16" class="node">
<title>Node15</title>
<polygon fill="none" stroke="#bfbfbf" points="824,-56.5 824,-75.5 868,-75.5 868,-56.5 824,-56.5"/>
<text text-anchor="middle" x="846" y="-63.5" font-family="FreeSans.ttf" font-size="10.00" fill="#000000">string</text>
</g>
<!-- Node0&#45;&gt;Node15 -->
<g id="edge87" class="edge">
<title>Node0&#45;&gt;Node15</title>
<path fill="none" stroke="#191970" d="M520.4833,-537.423C497.9995,-530.7207 472.7482,-519.5207 456,-501 430.3873,-472.6766 432,-456.6867 432,-418.5 432,-418.5 432,-418.5 432,-239.5 432,-182.7706 399.216,-153.4008 438,-112 463.5773,-84.6969 721.5899,-71.239 813.6106,-67.28"/>
<polygon fill="#191970" stroke="#191970" points="813.8915,-70.7714 823.7355,-66.8542 813.5973,-63.7776 813.8915,-70.7714"/>
</g>
<!-- Node18 -->
<g id="node19" class="node">
<title>Node18</title>
<g id="a_node19"><a xlink:href="Utils_8h.html" target="_top" xlink:title="iDynTree/Core/Utils.h">
<polygon fill="none" stroke="#000000" points="985.5,-56.5 985.5,-75.5 1104.5,-75.5 1104.5,-56.5 985.5,-56.5"/>
<text text-anchor="middle" x="1045" y="-63.5" font-family="FreeSans.ttf" font-size="10.00" fill="#000000">iDynTree/Core/Utils.h</text>
</a>
</g>
</g>
<!-- Node0&#45;&gt;Node18 -->
<g id="edge33" class="edge">
<title>Node0&#45;&gt;Node18</title>
<path fill="none" stroke="#191970" d="M575.5779,-537.2062C606.1997,-483.6881 755.0079,-226.8684 824,-168 876.8196,-122.931 952.8796,-93.6962 1000.5866,-78.5362"/>
<polygon fill="#191970" stroke="#191970" points="1001.8058,-81.8226 1010.3179,-75.5142 999.7297,-75.1375 1001.8058,-81.8226"/>
</g>
<!-- Node23 -->
<g id="node24" class="node">
<title>Node23</title>
<g id="a_node24"><a xlink:href="DynamicalSystem_8h.html" target="_top" xlink:title="iDynTree/DynamicalSystem.h">
<polygon fill="none" stroke="#000000" points="242.5,-168.5 242.5,-187.5 403.5,-187.5 403.5,-168.5 242.5,-168.5"/>
<text text-anchor="middle" x="323" y="-175.5" font-family="FreeSans.ttf" font-size="10.00" fill="#000000">iDynTree/DynamicalSystem.h</text>
</a>
</g>
</g>
<!-- Node0&#45;&gt;Node23 -->
<g id="edge30" class="edge">
<title>Node0&#45;&gt;Node23</title>
<path fill="none" stroke="#191970" d="M511.7897,-537.456C449.0293,-523.4526 358,-490.6977 358,-418.5 358,-418.5 358,-418.5 358,-301 358,-262.9004 342.2728,-220.61 331.9034,-196.8672"/>
<polygon fill="#191970" stroke="#191970" points="335.0305,-195.2877 327.7203,-187.6188 328.6525,-198.1726 335.0305,-195.2877"/>
</g>
<!-- Node24 -->
<g id="node25" class="node">
<title>Node24</title>
<polygon fill="none" stroke="#bfbfbf" points="1783.5,-409 1783.5,-428 1860.5,-428 1860.5,-409 1783.5,-409"/>
<text text-anchor="middle" x="1822" y="-416" font-family="FreeSans.ttf" font-size="10.00" fill="#000000">Eigen/Dense</text>
</g>
<!-- Node0&#45;&gt;Node24 -->
<g id="edge34" class="edge">
<title>Node0&#45;&gt;Node24</title>
<path fill="none" stroke="#191970" d="M634.675,-544.4998C760.9111,-539.2589 1048.8765,-525.5311 1290,-501 1503.8575,-479.2429 1558.8397,-479.1778 1769,-434 1773.3891,-433.0565 1777.9458,-431.9395 1782.4621,-430.7441"/>
<polygon fill="#191970" stroke="#191970" points="1783.5046,-434.0871 1792.2033,-428.0388 1781.6314,-427.3424 1783.5046,-434.0871"/>
</g>
<!-- Node25 -->
<g id="node26" class="node">
<title>Node25</title>
<g id="a_node26"><a xlink:href="EigenHelpers_8h.html" target="_top" xlink:title="iDynTree/Core/EigenHelpers.h">
<polygon fill="none" stroke="#000000" points="1120.5,-476 1120.5,-495 1281.5,-495 1281.5,-476 1120.5,-476"/>
<text text-anchor="middle" x="1201" y="-483" font-family="FreeSans.ttf" font-size="10.00" fill="#000000">iDynTree/Core/EigenHelpers.h</text>
</a>
</g>
</g>
<!-- Node0&#45;&gt;Node25 -->
<g id="edge35" class="edge">
<title>Node0&#45;&gt;Node25</title>
<path fill="none" stroke="#191970" d="M634.5627,-540.7074C747.4106,-529.7088 980.7919,-506.9624 1109.9856,-494.3707"/>
<polygon fill="#191970" stroke="#191970" points="1110.6348,-497.8241 1120.2481,-493.3704 1109.9557,-490.8571 1110.6348,-497.8241"/>
</g>
<!-- Node27 -->
<g id="node28" class="node">
<title>Node27</title>
<polygon fill="none" stroke="#bfbfbf" points="1624,-56.5 1624,-75.5 1680,-75.5 1680,-56.5 1624,-56.5"/>
<text text-anchor="middle" x="1652" y="-63.5" font-family="FreeSans.ttf" font-size="10.00" fill="#000000">sstream</text>
</g>
<!-- Node0&#45;&gt;Node27 -->
<g id="edge86" class="edge">
<title>Node0&#45;&gt;Node27</title>
<path fill="none" stroke="#191970" d="M634.5968,-545.8841C779.6849,-542.8782 1142.3256,-532.5765 1444,-501 1644.055,-480.0601 1889,-619.6479 1889,-418.5 1889,-418.5 1889,-418.5 1889,-178 1889,-134.4967 1756.8161,-93.5049 1689.8831,-75.5368"/>
<polygon fill="#191970" stroke="#191970" points="1690.6802,-72.1273 1680.1177,-72.9544 1688.8906,-78.8947 1690.6802,-72.1273"/>
</g>
<!-- Node2 -->
<g id="node3" class="node">
<title>Node2</title>
<g id="a_node3"><a xlink:href="FixedStepIntegrator_8h.html" target="_top" xlink:title="iDynTree/Integrators\l/FixedStepIntegrator.h">
<polygon fill="none" stroke="#000000" points="464.5,-224.5 464.5,-254.5 587.5,-254.5 587.5,-224.5 464.5,-224.5"/>
<text text-anchor="start" x="472.5" y="-242.5" font-family="FreeSans.ttf" font-size="10.00" fill="#000000">iDynTree/Integrators</text>
<text text-anchor="middle" x="526" y="-231.5" font-family="FreeSans.ttf" font-size="10.00" fill="#000000">/FixedStepIntegrator.h</text>
</a>
</g>
</g>
<!-- Node1&#45;&gt;Node2 -->
<g id="edge2" class="edge">
<title>Node1&#45;&gt;Node2</title>
<path fill="none" stroke="#191970" d="M526,-470.4819C526,-429.5667 526,-315.7883 526,-264.7921"/>
<polygon fill="#191970" stroke="#191970" points="529.5001,-264.6341 526,-254.6341 522.5001,-264.6341 529.5001,-264.6341"/>
</g>
<!-- Node3 -->
<g id="node4" class="node">
<title>Node3</title>
<g id="a_node4"><a xlink:href="Integrator_8h.html" target="_top" xlink:title="iDynTree/Integrator.h">
<polygon fill="none" stroke="#000000" points="105.5,-168.5 105.5,-187.5 224.5,-187.5 224.5,-168.5 105.5,-168.5"/>
<text text-anchor="middle" x="165" y="-175.5" font-family="FreeSans.ttf" font-size="10.00" fill="#000000">iDynTree/Integrator.h</text>
</a>
</g>
</g>
<!-- Node2&#45;&gt;Node3 -->
<g id="edge3" class="edge">
<title>Node2&#45;&gt;Node3</title>
<path fill="none" stroke="#191970" d="M464.3521,-228.9977C399.4181,-217.9355 297.5425,-200.58 231.0098,-189.2454"/>
<polygon fill="#191970" stroke="#191970" points="231.4985,-185.7783 221.0527,-187.5491 230.3228,-192.6789 231.4985,-185.7783"/>
</g>
<!-- Node4 -->
<g id="node5" class="node">
<title>Node4</title>
<g id="a_node5"><a xlink:href="VectorDynSize_8h.html" target="_top" xlink:title="iDynTree/Core/VectorDynSize.h">
<polygon fill="none" stroke="#000000" points="632.5,-112.5 632.5,-131.5 799.5,-131.5 799.5,-112.5 632.5,-112.5"/>
<text text-anchor="middle" x="716" y="-119.5" font-family="FreeSans.ttf" font-size="10.00" fill="#000000">iDynTree/Core/VectorDynSize.h</text>
</a>
</g>
</g>
<!-- Node2&#45;&gt;Node4 -->
<g id="edge29" class="edge">
<title>Node2&#45;&gt;Node4</title>
<path fill="none" stroke="#191970" d="M550.4502,-224.3795C587.0391,-201.7521 655.6147,-159.3435 691.9618,-136.8657"/>
<polygon fill="#191970" stroke="#191970" points="693.805,-139.8411 700.4691,-131.6046 690.1232,-133.8876 693.805,-139.8411"/>
</g>
<!-- Node3&#45;&gt;Node4 -->
<g id="edge4" class="edge">
<title>Node3&#45;&gt;Node4</title>
<path fill="none" stroke="#191970" d="M224.6798,-169.0376C227.4906,-168.674 230.2749,-168.3259 233,-168 402.6316,-147.7129 448.1167,-149.2399 622.334,-132.0496"/>
<polygon fill="#191970" stroke="#191970" points="622.7496,-135.5256 632.3547,-131.0542 622.0577,-128.5599 622.7496,-135.5256"/>
</g>
<!-- Node3&#45;&gt;Node15 -->
<g id="edge26" class="edge">
<title>Node3&#45;&gt;Node15</title>
<path fill="none" stroke="#191970" d="M218.4733,-168.482C258.5565,-160.6372 314.454,-148.18 362,-132 382.3357,-125.0797 385.2711,-117.6343 406,-112 483.1073,-91.0415 725.5407,-73.7642 813.615,-68.0295"/>
<polygon fill="#191970" stroke="#191970" points="814.0525,-71.5087 823.8067,-67.3727 813.6023,-64.5231 814.0525,-71.5087"/>
</g>
<!-- Node16 -->
<g id="node17" class="node">
<title>Node16</title>
<g id="a_node17"><a xlink:href="MatrixDynSize_8h.html" target="_top" xlink:title="iDynTree/Core/MatrixDynSize.h">
<polygon fill="none" stroke="#000000" points="447.5,-112.5 447.5,-131.5 614.5,-131.5 614.5,-112.5 447.5,-112.5"/>
<text text-anchor="middle" x="531" y="-119.5" font-family="FreeSans.ttf" font-size="10.00" fill="#000000">iDynTree/Core/MatrixDynSize.h</text>
</a>
</g>
</g>
<!-- Node3&#45;&gt;Node16 -->
<g id="edge16" class="edge">
<title>Node3&#45;&gt;Node16</title>
<path fill="none" stroke="#191970" d="M224.6188,-168.878C288.4885,-159.1056 389.8906,-143.5905 458.3731,-133.1123"/>
<polygon fill="#191970" stroke="#191970" points="459.2943,-136.5122 468.6499,-131.5399 458.2355,-129.5927 459.2943,-136.5122"/>
</g>
<!-- Node17 -->
<g id="node18" class="node">
<title>Node17</title>
<g id="a_node18"><a xlink:href="SparsityStructure_8h.html" target="_top" xlink:title="iDynTree/SparsityStructure.h">
<polygon fill="none" stroke="#000000" points="198.5,-112.5 198.5,-131.5 353.5,-131.5 353.5,-112.5 198.5,-112.5"/>
<text text-anchor="middle" x="276" y="-119.5" font-family="FreeSans.ttf" font-size="10.00" fill="#000000">iDynTree/SparsityStructure.h</text>
</a>
</g>
</g>
<!-- Node3&#45;&gt;Node17 -->
<g id="edge18" class="edge">
<title>Node3&#45;&gt;Node17</title>
<path fill="none" stroke="#191970" d="M184.0816,-168.3733C201.7402,-159.4644 228.2053,-146.1127 248.2098,-136.0203"/>
<polygon fill="#191970" stroke="#191970" points="249.8158,-139.1303 257.1674,-131.5011 246.6628,-132.8806 249.8158,-139.1303"/>
</g>
<!-- Node19 -->
<g id="node20" class="node">
<title>Node19</title>
<polygon fill="none" stroke="#bfbfbf" points="114.5,-56.5 114.5,-75.5 161.5,-75.5 161.5,-56.5 114.5,-56.5"/>
<text text-anchor="middle" x="138" y="-63.5" font-family="FreeSans.ttf" font-size="10.00" fill="#000000">vector</text>
</g>
<!-- Node3&#45;&gt;Node19 -->
<g id="edge25" class="edge">
<title>Node3&#45;&gt;Node19</title>
<path fill="none" stroke="#191970" d="M111.7467,-168.4288C91.0403,-161.8245 69.3618,-150.7016 57,-132 41.1384,-108.0037 76.0063,-88.4116 104.843,-76.9749"/>
<polygon fill="#191970" stroke="#191970" points="106.1815,-80.2108 114.3091,-73.4143 103.7171,-73.659 106.1815,-80.2108"/>
</g>
<!-- Node21 -->
<g id="node22" class="node">
<title>Node21</title>
<polygon fill="none" stroke="#bfbfbf" points="66,-112.5 66,-131.5 124,-131.5 124,-112.5 66,-112.5"/>
<text text-anchor="middle" x="95" y="-119.5" font-family="FreeSans.ttf" font-size="10.00" fill="#000000">memory</text>
</g>
<!-- Node3&#45;&gt;Node21 -->
<g id="edge27" class="edge">
<title>Node3&#45;&gt;Node21</title>
<path fill="none" stroke="#191970" d="M152.8069,-168.2455C142.3679,-159.8943 127.1345,-147.7076 114.926,-137.9408"/>
<polygon fill="#191970" stroke="#191970" points="117.0485,-135.1566 107.0533,-131.6427 112.6756,-140.6227 117.0485,-135.1566"/>
</g>
<!-- Node22 -->
<g id="node23" class="node">
<title>Node22</title>
<polygon fill="none" stroke="#bfbfbf" points="142,-112.5 142,-131.5 180,-131.5 180,-112.5 142,-112.5"/>
<text text-anchor="middle" x="161" y="-119.5" font-family="FreeSans.ttf" font-size="10.00" fill="#000000">map</text>
</g>
<!-- Node3&#45;&gt;Node22 -->
<g id="edge28" class="edge">
<title>Node3&#45;&gt;Node22</title>
<path fill="none" stroke="#191970" d="M164.3033,-168.2455C163.7813,-160.9382 163.0496,-150.6944 162.4075,-141.7046"/>
<polygon fill="#191970" stroke="#191970" points="165.8924,-141.3679 161.6888,-131.6427 158.9102,-141.8667 165.8924,-141.3679"/>
</g>
<!-- Node5 -->
<g id="node6" class="node">
<title>Node5</title>
<g id="a_node6"><a xlink:href="Span_8h.html" target="_top" xlink:title="iDynTree/Core/Span.h">
<polygon fill="none" stroke="#000000" points="1122.5,-56.5 1122.5,-75.5 1243.5,-75.5 1243.5,-56.5 1122.5,-56.5"/>
<text text-anchor="middle" x="1183" y="-63.5" font-family="FreeSans.ttf" font-size="10.00" fill="#000000">iDynTree/Core/Span.h</text>
</a>
</g>
</g>
<!-- Node4&#45;&gt;Node5 -->
<g id="edge5" class="edge">
<title>Node4&#45;&gt;Node5</title>
<path fill="none" stroke="#191970" d="M799.7253,-112.9518C877.8482,-104.359 997.9304,-90.7695 1112.3208,-76.0598"/>
<polygon fill="#191970" stroke="#191970" points="1112.8374,-79.5223 1122.3071,-74.7709 1111.9413,-72.5799 1112.8374,-79.5223"/>
</g>
<!-- Node4&#45;&gt;Node15 -->
<g id="edge15" class="edge">
<title>Node4&#45;&gt;Node15</title>
<path fill="none" stroke="#191970" d="M738.3478,-112.3733C759.4033,-103.3032 791.1495,-89.6279 814.7175,-79.4755"/>
<polygon fill="#191970" stroke="#191970" points="816.1444,-82.6719 823.9438,-75.5011 813.375,-76.243 816.1444,-82.6719"/>
</g>
<!-- Node6 -->
<g id="node7" class="node">
<title>Node6</title>
<polygon fill="none" stroke="#bfbfbf" points="1366,-.5 1366,-19.5 1418,-19.5 1418,-.5 1366,-.5"/>
<text text-anchor="middle" x="1392" y="-7.5" font-family="FreeSans.ttf" font-size="10.00" fill="#000000">cassert</text>
</g>
<!-- Node5&#45;&gt;Node6 -->
<g id="edge6" class="edge">
<title>Node5&#45;&gt;Node6</title>
<path fill="none" stroke="#191970" d="M1220.0554,-56.4312C1253.2545,-47.8076 1303.5263,-34.6253 1355.8519,-20.2821"/>
<polygon fill="#191970" stroke="#191970" points="1356.9276,-23.6164 1365.6425,-17.5913 1355.0724,-16.8666 1356.9276,-23.6164"/>
</g>
<!-- Node7 -->
<g id="node8" class="node">
<title>Node7</title>
<polygon fill="none" stroke="#bfbfbf" points="1224,-.5 1224,-19.5 1288,-19.5 1288,-.5 1224,-.5"/>
<text text-anchor="middle" x="1256" y="-7.5" font-family="FreeSans.ttf" font-size="10.00" fill="#000000">algorithm</text>
</g>
<!-- Node5&#45;&gt;Node7 -->
<g id="edge7" class="edge">
<title>Node5&#45;&gt;Node7</title>
<path fill="none" stroke="#191970" d="M1195.7156,-56.2455C1206.602,-47.8943 1222.4883,-35.7076 1235.22,-25.9408"/>
<polygon fill="#191970" stroke="#191970" points="1237.6261,-28.5063 1243.4301,-19.6427 1233.3654,-22.9523 1237.6261,-28.5063"/>
</g>
<!-- Node8 -->
<g id="node9" class="node">
<title>Node8</title>
<polygon fill="none" stroke="#bfbfbf" points="1306,-.5 1306,-19.5 1348,-19.5 1348,-.5 1306,-.5"/>
<text text-anchor="middle" x="1327" y="-7.5" font-family="FreeSans.ttf" font-size="10.00" fill="#000000">array</text>
</g>
<!-- Node5&#45;&gt;Node8 -->
<g id="edge8" class="edge">
<title>Node5&#45;&gt;Node8</title>
<path fill="none" stroke="#191970" d="M1207.7545,-56.3733C1232.2831,-46.8343 1269.9096,-32.2018 1296.3214,-21.9306"/>
<polygon fill="#191970" stroke="#191970" points="1297.7927,-25.1138 1305.8442,-18.2273 1295.2555,-18.5898 1297.7927,-25.1138"/>
</g>
<!-- Node5&#45;&gt;Node9 -->
<g id="edge9" class="edge">
<title>Node5&#45;&gt;Node9</title>
<path fill="none" stroke="#191970" d="M1122.3218,-57.1075C1119.1713,-56.716 1116.0497,-56.3439 1113,-56 918.1992,-34.0323 683.8202,-18.0067 594.7553,-12.2909"/>
<polygon fill="#191970" stroke="#191970" points="594.8289,-8.7886 584.6265,-11.6453 594.3835,-15.7744 594.8289,-8.7886"/>
</g>
<!-- Node10 -->
<g id="node11" class="node">
<title>Node10</title>
<polygon fill="none" stroke="#bfbfbf" points="856.5,-.5 856.5,-19.5 909.5,-19.5 909.5,-.5 856.5,-.5"/>
<text text-anchor="middle" x="883" y="-7.5" font-family="FreeSans.ttf" font-size="10.00" fill="#000000">iterator</text>
</g>
<!-- Node5&#45;&gt;Node10 -->
<g id="edge10" class="edge">
<title>Node5&#45;&gt;Node10</title>
<path fill="none" stroke="#191970" d="M1122.375,-57.174C1070.9566,-49.2938 995.0752,-36.7396 919.7961,-20.0009"/>
<polygon fill="#191970" stroke="#191970" points="920.1867,-16.5014 909.6623,-17.7211 918.6502,-23.3307 920.1867,-16.5014"/>
</g>
<!-- Node11 -->
<g id="node12" class="node">
<title>Node11</title>
<polygon fill="none" stroke="#bfbfbf" points="928,-.5 928,-19.5 972,-19.5 972,-.5 928,-.5"/>
<text text-anchor="middle" x="950" y="-7.5" font-family="FreeSans.ttf" font-size="10.00" fill="#000000">limits</text>
</g>
<!-- Node5&#45;&gt;Node11 -->
<g id="edge11" class="edge">
<title>Node5&#45;&gt;Node11</title>
<path fill="none" stroke="#191970" d="M1135.7689,-56.4751C1096.8124,-48.342 1039.934,-35.834 981.9685,-20.1035"/>
<polygon fill="#191970" stroke="#191970" points="982.8501,-16.7161 972.2804,-17.4466 980.9986,-23.4668 982.8501,-16.7161"/>
</g>
<!-- Node12 -->
<g id="node13" class="node">
<title>Node12</title>
<polygon fill="none" stroke="#bfbfbf" points="990.5,-.5 990.5,-19.5 1055.5,-19.5 1055.5,-.5 990.5,-.5"/>
<text text-anchor="middle" x="1023" y="-7.5" font-family="FreeSans.ttf" font-size="10.00" fill="#000000">stdexcept</text>
</g>
<!-- Node5&#45;&gt;Node12 -->
<g id="edge12" class="edge">
<title>Node5&#45;&gt;Node12</title>
<path fill="none" stroke="#191970" d="M1155.495,-56.3733C1129.1198,-47.1419 1089.1149,-33.1402 1059.9642,-22.9375"/>
<polygon fill="#191970" stroke="#191970" points="1060.7409,-19.5012 1050.1461,-19.5011 1058.4284,-26.1082 1060.7409,-19.5012"/>
</g>
<!-- Node13 -->
<g id="node14" class="node">
<title>Node13</title>
<polygon fill="none" stroke="#bfbfbf" points="1073.5,-.5 1073.5,-19.5 1142.5,-19.5 1142.5,-.5 1073.5,-.5"/>
<text text-anchor="middle" x="1108" y="-7.5" font-family="FreeSans.ttf" font-size="10.00" fill="#000000">type_traits</text>
</g>
<!-- Node5&#45;&gt;Node13 -->
<g id="edge13" class="edge">
<title>Node5&#45;&gt;Node13</title>
<path fill="none" stroke="#191970" d="M1169.936,-56.2455C1158.6438,-47.814 1142.1155,-35.4729 1128.9729,-25.6598"/>
<polygon fill="#191970" stroke="#191970" points="1131.0211,-22.8211 1120.9143,-19.6427 1126.8331,-28.4301 1131.0211,-22.8211"/>
</g>
<!-- Node14 -->
<g id="node15" class="node">
<title>Node14</title>
<polygon fill="none" stroke="#bfbfbf" points="1160.5,-.5 1160.5,-19.5 1205.5,-19.5 1205.5,-.5 1160.5,-.5"/>
<text text-anchor="middle" x="1183" y="-7.5" font-family="FreeSans.ttf" font-size="10.00" fill="#000000">utility</text>
</g>
<!-- Node5&#45;&gt;Node14 -->
<g id="edge14" class="edge">
<title>Node5&#45;&gt;Node14</title>
<path fill="none" stroke="#191970" d="M1183,-56.2455C1183,-48.9382 1183,-38.6944 1183,-29.7046"/>
<polygon fill="#191970" stroke="#191970" points="1186.5001,-29.6426 1183,-19.6427 1179.5001,-29.6427 1186.5001,-29.6426"/>
</g>
<!-- Node16&#45;&gt;Node15 -->
<g id="edge17" class="edge">
<title>Node16&#45;&gt;Node15</title>
<path fill="none" stroke="#191970" d="M584.7925,-112.4369C650.5221,-100.7516 759.6317,-81.3544 813.6512,-71.7509"/>
<polygon fill="#191970" stroke="#191970" points="814.4584,-75.1624 823.6914,-69.966 813.2331,-68.2704 814.4584,-75.1624"/>
</g>
<!-- Node17&#45;&gt;Node9 -->
<g id="edge22" class="edge">
<title>Node17&#45;&gt;Node9</title>
<path fill="none" stroke="#191970" d="M275.7979,-112.279C276.0632,-97.7421 278.8553,-70.5013 295,-56 327.7476,-26.5858 456.6641,-15.4972 521.0289,-11.7328"/>
<polygon fill="#191970" stroke="#191970" points="521.3603,-15.2199 531.1506,-11.1703 520.9718,-8.2307 521.3603,-15.2199"/>
</g>
<!-- Node17&#45;&gt;Node15 -->
<g id="edge24" class="edge">
<title>Node17&#45;&gt;Node15</title>
<path fill="none" stroke="#191970" d="M353.7927,-113.4761C358.5996,-112.9705 363.365,-112.4749 368,-112 535.5285,-94.8349 736.2867,-76.1181 813.5287,-68.9856"/>
<polygon fill="#191970" stroke="#191970" points="813.9555,-72.4612 823.5918,-68.0574 813.3126,-65.4908 813.9555,-72.4612"/>
</g>
<!-- Node17&#45;&gt;Node18 -->
<g id="edge19" class="edge">
<title>Node17&#45;&gt;Node18</title>
<path fill="none" stroke="#191970" d="M353.6113,-116.3482C503.7898,-105.4119 831.9597,-81.514 975.4792,-71.0626"/>
<polygon fill="#191970" stroke="#191970" points="975.7692,-74.5509 985.4886,-70.3337 975.2607,-67.5694 975.7692,-74.5509"/>
</g>
<!-- Node17&#45;&gt;Node19 -->
<g id="edge21" class="edge">
<title>Node17&#45;&gt;Node19</title>
<path fill="none" stroke="#191970" d="M252.277,-112.3733C229.8263,-103.2629 195.9261,-89.5062 170.8745,-79.3404"/>
<polygon fill="#191970" stroke="#191970" points="171.9957,-76.0182 161.4135,-75.5011 169.3635,-82.5045 171.9957,-76.0182"/>
</g>
<!-- Node20 -->
<g id="node21" class="node">
<title>Node20</title>
<polygon fill="none" stroke="#bfbfbf" points="304,-56.5 304,-75.5 390,-75.5 390,-56.5 304,-56.5"/>
<text text-anchor="middle" x="347" y="-63.5" font-family="FreeSans.ttf" font-size="10.00" fill="#000000">unordered_set</text>
</g>
<!-- Node17&#45;&gt;Node20 -->
<g id="edge23" class="edge">
<title>Node17&#45;&gt;Node20</title>
<path fill="none" stroke="#191970" d="M288.3673,-112.2455C298.9554,-103.8943 314.4064,-91.7076 326.7893,-81.9408"/>
<polygon fill="#191970" stroke="#191970" points="329.0903,-84.5837 334.7745,-75.6427 324.7553,-79.0875 329.0903,-84.5837"/>
</g>
<!-- Node18&#45;&gt;Node9 -->
<g id="edge20" class="edge">
<title>Node18&#45;&gt;Node9</title>
<path fill="none" stroke="#191970" d="M985.2842,-59.1333C883.2273,-47.3978 678.1927,-23.8209 594.6699,-14.2167"/>
<polygon fill="#191970" stroke="#191970" points="594.972,-10.7284 584.6376,-13.063 594.1722,-17.6826 594.972,-10.7284"/>
</g>
<!-- Node23&#45;&gt;Node4 -->
<g id="edge31" class="edge">
<title>Node23&#45;&gt;Node4</title>
<path fill="none" stroke="#191970" d="M390.1126,-168.4369C459.2084,-158.5912 566.727,-143.2705 639.181,-132.9462"/>
<polygon fill="#191970" stroke="#191970" points="639.758,-136.3994 649.1642,-131.5237 638.7705,-129.4694 639.758,-136.3994"/>
</g>
<!-- Node23&#45;&gt;Node17 -->
<g id="edge32" class="edge">
<title>Node23&#45;&gt;Node17</title>
<path fill="none" stroke="#191970" d="M314.8132,-168.2455C308.1411,-160.2958 298.5521,-148.8706 290.5747,-139.3656"/>
<polygon fill="#191970" stroke="#191970" points="293.2026,-137.0524 284.093,-131.6427 287.8408,-141.5525 293.2026,-137.0524"/>
</g>
<!-- Node25&#45;&gt;Node4 -->
<g id="edge37" class="edge">
<title>Node25&#45;&gt;Node4</title>
<path fill="none" stroke="#191970" d="M1120.4704,-481.806C976.7555,-472.9982 691,-444.4854 691,-357 691,-357 691,-357 691,-239.5 691,-204.2111 701.9214,-164.2402 709.3271,-141.1925"/>
<polygon fill="#191970" stroke="#191970" points="712.6822,-142.1951 712.5239,-131.6014 706.0414,-139.9817 712.6822,-142.1951"/>
</g>
<!-- Node25&#45;&gt;Node16 -->
<g id="edge45" class="edge">
<title>Node25&#45;&gt;Node16</title>
<path fill="none" stroke="#191970" d="M1120.4944,-480.7524C992.7817,-472.6414 754.7697,-454.9462 722,-434 630.2899,-375.3795 653.2523,-316.5705 596,-224 577.6927,-194.3991 555.8435,-160.3701 542.7135,-140.0559"/>
<polygon fill="#191970" stroke="#191970" points="545.5525,-138.0008 537.18,-131.5084 539.6764,-141.8049 545.5525,-138.0008"/>
</g>
<!-- Node25&#45;&gt;Node18 -->
<g id="edge84" class="edge">
<title>Node25&#45;&gt;Node18</title>
<path fill="none" stroke="#191970" d="M1173.8807,-475.8824C1131.6586,-458.9692 1055,-419.6368 1055,-357 1055,-357 1055,-357 1055,-178 1055,-145.5831 1050.7925,-108.0969 1047.8359,-85.7572"/>
<polygon fill="#191970" stroke="#191970" points="1051.2637,-84.992 1046.4328,-75.5627 1044.3291,-85.9466 1051.2637,-84.992"/>
</g>
<!-- Node25&#45;&gt;Node24 -->
<g id="edge36" class="edge">
<title>Node25&#45;&gt;Node24</title>
<path fill="none" stroke="#191970" d="M1281.6501,-480.1274C1415.4944,-470.8853 1677.7993,-451.3006 1769,-434 1773.6976,-433.1089 1778.5766,-431.9766 1783.3878,-430.7311"/>
<polygon fill="#191970" stroke="#191970" points="1784.3789,-434.0885 1793.0887,-428.0562 1782.5181,-427.3403 1784.3789,-434.0885"/>
</g>
<!-- Node26 -->
<g id="node27" class="node">
<title>Node26</title>
<g id="a_node27"><a xlink:href="VectorFixSize_8h.html" target="_top" xlink:title="iDynTree/Core/VectorFixSize.h">
<polygon fill="none" stroke="#000000" points="1272.5,-112.5 1272.5,-131.5 1433.5,-131.5 1433.5,-112.5 1272.5,-112.5"/>
<text text-anchor="middle" x="1353" y="-119.5" font-family="FreeSans.ttf" font-size="10.00" fill="#000000">iDynTree/Core/VectorFixSize.h</text>
</a>
</g>
</g>
<!-- Node25&#45;&gt;Node26 -->
<g id="edge38" class="edge">
<title>Node25&#45;&gt;Node26</title>
<path fill="none" stroke="#191970" d="M1249.4372,-475.9768C1261.3613,-473.8233 1274.1179,-471.6797 1286,-470 1364.9507,-458.839 1571.3025,-468.889 1643,-434 1685.6792,-413.2317 1717,-404.4641 1717,-357 1717,-357 1717,-357 1717,-239.5 1717,-182.1079 1551.0493,-148.65 1443.251,-132.9706"/>
<polygon fill="#191970" stroke="#191970" points="1443.7264,-129.5031 1433.332,-131.5539 1442.7366,-136.4328 1443.7264,-129.5031"/>
</g>
<!-- Node29 -->
<g id="node30" class="node">
<title>Node29</title>
<g id="a_node30"><a xlink:href="MatrixFixSize_8h.html" target="_top" xlink:title="iDynTree/Core/MatrixFixSize.h">
<polygon fill="none" stroke="#000000" points="1451.5,-112.5 1451.5,-131.5 1612.5,-131.5 1612.5,-112.5 1451.5,-112.5"/>
<text text-anchor="middle" x="1532" y="-119.5" font-family="FreeSans.ttf" font-size="10.00" fill="#000000">iDynTree/Core/MatrixFixSize.h</text>
</a>
</g>
</g>
<!-- Node25&#45;&gt;Node29 -->
<g id="edge46" class="edge">
<title>Node25&#45;&gt;Node29</title>
<path fill="none" stroke="#191970" d="M1248.9784,-475.9707C1261.0305,-473.7923 1273.9608,-471.6388 1286,-470 1373.994,-458.0222 1604.3493,-473.2707 1684,-434 1725.7513,-413.4151 1755,-403.5501 1755,-357 1755,-357 1755,-357 1755,-239.5 1755,-176.3614 1684.1655,-147.0694 1622.341,-133.5277"/>
<polygon fill="#191970" stroke="#191970" points="1623.0108,-130.0922 1612.5081,-131.4868 1621.5881,-136.9461 1623.0108,-130.0922"/>
</g>
<!-- Node31 -->
<g id="node32" class="node">
<title>Node31</title>
<g id="a_node32"><a xlink:href="SpatialMotionVector_8h.html" target="_top" xlink:title="iDynTree/Core/SpatialMotion\lVector.h">
<polygon fill="none" stroke="#000000" points="1288.5,-403.5 1288.5,-433.5 1443.5,-433.5 1443.5,-403.5 1288.5,-403.5"/>
<text text-anchor="start" x="1296.5" y="-421.5" font-family="FreeSans.ttf" font-size="10.00" fill="#000000">iDynTree/Core/SpatialMotion</text>
<text text-anchor="middle" x="1366" y="-410.5" font-family="FreeSans.ttf" font-size="10.00" fill="#000000">Vector.h</text>
</a>
</g>
</g>
<!-- Node25&#45;&gt;Node31 -->
<g id="edge53" class="edge">
<title>Node25&#45;&gt;Node31</title>
<path fill="none" stroke="#191970" d="M1224.6405,-475.9005C1249.3516,-465.8663 1288.7634,-449.8627 1319.7021,-437.2997"/>
<polygon fill="#191970" stroke="#191970" points="1321.0576,-440.5269 1329.0061,-433.5218 1318.424,-434.0412 1321.0576,-440.5269"/>
</g>
<!-- Node38 -->
<g id="node39" class="node">
<title>Node38</title>
<g id="a_node39"><a xlink:href="SpatialForceVector_8h.html" target="_top" xlink:title="iDynTree/Core/SpatialForce\lVector.h">
<polygon fill="none" stroke="#000000" points="1486,-403.5 1486,-433.5 1634,-433.5 1634,-403.5 1486,-403.5"/>
<text text-anchor="start" x="1494" y="-421.5" font-family="FreeSans.ttf" font-size="10.00" fill="#000000">iDynTree/Core/SpatialForce</text>
<text text-anchor="middle" x="1560" y="-410.5" font-family="FreeSans.ttf" font-size="10.00" fill="#000000">Vector.h</text>
</a>
</g>
</g>
<!-- Node25&#45;&gt;Node38 -->
<g id="edge75" class="edge">
<title>Node25&#45;&gt;Node38</title>
<path fill="none" stroke="#191970" d="M1252.0547,-475.9717C1310.2666,-465.1076 1406.3261,-447.1801 1475.6951,-434.2338"/>
<polygon fill="#191970" stroke="#191970" points="1476.5404,-437.6365 1485.7285,-432.3612 1475.2561,-430.7553 1476.5404,-437.6365"/>
</g>
<!-- Node39 -->
<g id="node40" class="node">
<title>Node39</title>
<g id="a_node40"><a xlink:href="Transform_8h.html" target="_top" xlink:title="iDynTree/Core/Transform.h">
<polygon fill="none" stroke="#000000" points="881,-347.5 881,-366.5 1027,-366.5 1027,-347.5 881,-347.5"/>
<text text-anchor="middle" x="954" y="-354.5" font-family="FreeSans.ttf" font-size="10.00" fill="#000000">iDynTree/Core/Transform.h</text>
</a>
</g>
</g>
<!-- Node25&#45;&gt;Node39 -->
<g id="edge79" class="edge">
<title>Node25&#45;&gt;Node39</title>
<path fill="none" stroke="#191970" d="M1154.7876,-475.9919C1121.6556,-467.9253 1076.7487,-454.3712 1041,-434 1012.8373,-417.9517 985.749,-391.7088 969.4841,-374.3947"/>
<polygon fill="#191970" stroke="#191970" points="971.7544,-371.6925 962.4117,-366.6961 966.5994,-376.4282 971.7544,-371.6925"/>
</g>
<!-- Node26&#45;&gt;Node5 -->
<g id="edge40" class="edge">
<title>Node26&#45;&gt;Node5</title>
<path fill="none" stroke="#191970" d="M1323.776,-112.3733C1295.5075,-103.0613 1252.5035,-88.8953 1221.4656,-78.671"/>
<polygon fill="#191970" stroke="#191970" points="1222.4357,-75.3056 1211.8427,-75.5011 1220.2456,-81.9542 1222.4357,-75.3056"/>
</g>
<!-- Node26&#45;&gt;Node6 -->
<g id="edge43" class="edge">
<title>Node26&#45;&gt;Node6</title>
<path fill="none" stroke="#191970" d="M1356.3251,-112.4509C1362.7435,-94.0186 1376.9483,-53.2254 1385.369,-29.043"/>
<polygon fill="#191970" stroke="#191970" points="1388.7001,-30.1197 1388.6833,-19.5249 1382.0894,-27.8177 1388.7001,-30.1197"/>
</g>
<!-- Node26&#45;&gt;Node15 -->
<g id="edge41" class="edge">
<title>Node26&#45;&gt;Node15</title>
<path fill="none" stroke="#191970" d="M1272.3842,-113.0957C1158.9754,-100.5693 957.3963,-78.3041 878.727,-69.6148"/>
<polygon fill="#191970" stroke="#191970" points="878.7879,-66.1003 868.4641,-68.4812 878.0194,-73.058 878.7879,-66.1003"/>
</g>
<!-- Node26&#45;&gt;Node18 -->
<g id="edge39" class="edge">
<title>Node26&#45;&gt;Node18</title>
<path fill="none" stroke="#191970" d="M1300.4029,-112.4369C1246.9159,-102.712 1164.0508,-87.6456 1107.3067,-77.3285"/>
<polygon fill="#191970" stroke="#191970" points="1107.845,-73.8691 1097.3802,-75.5237 1106.5928,-80.7562 1107.845,-73.8691"/>
</g>
<!-- Node26&#45;&gt;Node27 -->
<g id="edge42" class="edge">
<title>Node26&#45;&gt;Node27</title>
<path fill="none" stroke="#191970" d="M1404.0602,-112.4369C1463.4802,-101.3081 1560.2485,-83.1842 1613.6236,-73.1876"/>
<polygon fill="#191970" stroke="#191970" points="1614.5114,-76.5822 1623.6961,-71.3011 1613.2227,-69.7019 1614.5114,-76.5822"/>
</g>
<!-- Node28 -->
<g id="node29" class="node">
<title>Node28</title>
<polygon fill="none" stroke="#bfbfbf" points="1404,-56.5 1404,-75.5 1454,-75.5 1454,-56.5 1404,-56.5"/>
<text text-anchor="middle" x="1429" y="-63.5" font-family="FreeSans.ttf" font-size="10.00" fill="#000000">cstring</text>
</g>
<!-- Node26&#45;&gt;Node28 -->
<g id="edge44" class="edge">
<title>Node26&#45;&gt;Node28</title>
<path fill="none" stroke="#191970" d="M1366.2382,-112.2455C1377.681,-103.814 1394.4296,-91.4729 1407.7475,-81.6598"/>
<polygon fill="#191970" stroke="#191970" points="1409.9391,-84.3924 1415.9135,-75.6427 1405.7867,-78.757 1409.9391,-84.3924"/>
</g>
<!-- Node29&#45;&gt;Node6 -->
<g id="edge48" class="edge">
<title>Node29&#45;&gt;Node6</title>
<path fill="none" stroke="#191970" d="M1523.1329,-112.4494C1510.4632,-99.0605 1486.1458,-74.301 1463,-56 1448.5402,-44.5669 1431.1931,-33.2877 1417.2654,-24.7596"/>
<polygon fill="#191970" stroke="#191970" points="1419.0425,-21.7442 1408.6713,-19.5788 1415.4285,-27.7391 1419.0425,-21.7442"/>
</g>
<!-- Node29&#45;&gt;Node15 -->
<g id="edge50" class="edge">
<title>Node29&#45;&gt;Node15</title>
<path fill="none" stroke="#191970" d="M1451.4829,-112.8254C1448.6208,-112.5399 1445.7863,-112.2638 1443,-112 1439.4451,-111.6634 1001.7271,-77.9814 878.1513,-68.4736"/>
<polygon fill="#191970" stroke="#191970" points="878.4044,-64.9828 868.1653,-67.7053 877.8673,-71.9622 878.4044,-64.9828"/>
</g>
<!-- Node29&#45;&gt;Node18 -->
<g id="edge47" class="edge">
<title>Node29&#45;&gt;Node18</title>
<path fill="none" stroke="#191970" d="M1451.4711,-112.94C1448.6123,-112.6221 1445.7818,-112.308 1443,-112 1299.653,-96.1279 1261.0605,-94.7899 1114.9324,-76.2143"/>
<polygon fill="#191970" stroke="#191970" points="1115.0495,-72.7009 1104.6867,-74.9062 1114.1629,-79.6446 1115.0495,-72.7009"/>
</g>
<!-- Node29&#45;&gt;Node27 -->
<g id="edge52" class="edge">
<title>Node29&#45;&gt;Node27</title>
<path fill="none" stroke="#191970" d="M1552.6287,-112.3733C1571.8919,-103.3838 1600.8486,-89.8706 1622.5419,-79.7471"/>
<polygon fill="#191970" stroke="#191970" points="1624.0587,-82.9017 1631.6405,-75.5011 1621.0985,-76.5584 1624.0587,-82.9017"/>
</g>
<!-- Node29&#45;&gt;Node28 -->
<g id="edge49" class="edge">
<title>Node29&#45;&gt;Node28</title>
<path fill="none" stroke="#191970" d="M1514.0588,-112.2455C1497.96,-103.4928 1474.1121,-90.527 1455.7609,-80.5496"/>
<polygon fill="#191970" stroke="#191970" points="1457.1929,-77.3444 1446.7356,-75.6427 1453.8493,-83.4942 1457.1929,-77.3444"/>
</g>
<!-- Node30 -->
<g id="node31" class="node">
<title>Node30</title>
<polygon fill="none" stroke="#bfbfbf" points="1511,-56.5 1511,-75.5 1571,-75.5 1571,-56.5 1511,-56.5"/>
<text text-anchor="middle" x="1541" y="-63.5" font-family="FreeSans.ttf" font-size="10.00" fill="#000000">iostream</text>
</g>
<!-- Node29&#45;&gt;Node30 -->
<g id="edge51" class="edge">
<title>Node29&#45;&gt;Node30</title>
<path fill="none" stroke="#191970" d="M1533.5677,-112.2455C1534.7421,-104.9382 1536.3884,-94.6944 1537.8332,-85.7046"/>
<polygon fill="#191970" stroke="#191970" points="1541.3191,-86.0714 1539.4503,-75.6427 1534.4078,-84.9606 1541.3191,-86.0714"/>
</g>
<!-- Node31&#45;&gt;Node26 -->
<g id="edge54" class="edge">
<title>Node31&#45;&gt;Node26</title>
<path fill="none" stroke="#191970" d="M1366.1134,-403.2218C1366.2868,-364.059 1366.0225,-256.9115 1359,-168 1358.3199,-159.3892 1357.1565,-149.9196 1356.0342,-141.8221"/>
<polygon fill="#191970" stroke="#191970" points="1359.485,-141.2303 1354.5785,-131.8401 1352.5583,-142.2405 1359.485,-141.2303"/>
</g>
<!-- Node32 -->
<g id="node33" class="node">
<title>Node32</title>
<g id="a_node33"><a xlink:href="GeomVector3_8h.html" target="_top" xlink:title="iDynTree/Core/GeomVector3.h">
<polygon fill="none" stroke="#000000" points="1411.5,-168.5 1411.5,-187.5 1574.5,-187.5 1574.5,-168.5 1411.5,-168.5"/>
<text text-anchor="middle" x="1493" y="-175.5" font-family="FreeSans.ttf" font-size="10.00" fill="#000000">iDynTree/Core/GeomVector3.h</text>
</a>
</g>
</g>
<!-- Node31&#45;&gt;Node32 -->
<g id="edge55" class="edge">
<title>Node31&#45;&gt;Node32</title>
<path fill="none" stroke="#191970" d="M1373.9444,-403.4556C1396.154,-361.3973 1458.85,-242.6698 1483.1788,-196.5984"/>
<polygon fill="#191970" stroke="#191970" points="1486.3087,-198.1666 1487.8833,-187.6895 1480.1187,-194.8979 1486.3087,-198.1666"/>
</g>
<!-- Node33 -->
<g id="node34" class="node">
<title>Node33</title>
<g id="a_node34"><a xlink:href="SpatialVector_8h.html" target="_top" xlink:title="iDynTree/Core/SpatialVector.h">
<polygon fill="none" stroke="#000000" points="1413.5,-347.5 1413.5,-366.5 1574.5,-366.5 1574.5,-347.5 1413.5,-347.5"/>
<text text-anchor="middle" x="1494" y="-354.5" font-family="FreeSans.ttf" font-size="10.00" fill="#000000">iDynTree/Core/SpatialVector.h</text>
</a>
</g>
</g>
<!-- Node31&#45;&gt;Node33 -->
<g id="edge57" class="edge">
<title>Node31&#45;&gt;Node33</title>
<path fill="none" stroke="#191970" d="M1397.3123,-403.4554C1418.0138,-393.509 1444.9523,-380.5659 1465.1353,-370.8686"/>
<polygon fill="#191970" stroke="#191970" points="1466.6667,-374.0159 1474.1645,-366.5303 1463.6352,-367.7064 1466.6667,-374.0159"/>
</g>
<!-- Node32&#45;&gt;Node26 -->
<g id="edge56" class="edge">
<title>Node32&#45;&gt;Node26</title>
<path fill="none" stroke="#191970" d="M1468.9331,-168.3733C1446.1572,-159.2629 1411.7656,-145.5062 1386.351,-135.3404"/>
<polygon fill="#191970" stroke="#191970" points="1387.3375,-131.9654 1376.7528,-131.5011 1384.7377,-138.4648 1387.3375,-131.9654"/>
</g>
<!-- Node33&#45;&gt;Node18 -->
<g id="edge71" class="edge">
<title>Node33&#45;&gt;Node18</title>
<path fill="none" stroke="#191970" d="M1482.9099,-347.1037C1449.4266,-317.5206 1345.7681,-228.0917 1250,-168 1191.7058,-131.4221 1118.5044,-97.6695 1077.2171,-79.6487"/>
<polygon fill="#191970" stroke="#191970" points="1078.494,-76.3877 1067.9267,-75.6246 1075.7117,-82.811 1078.494,-76.3877"/>
</g>
<!-- Node33&#45;&gt;Node27 -->
<g id="edge74" class="edge">
<title>Node33&#45;&gt;Node27</title>
<path fill="none" stroke="#191970" d="M1545.0418,-347.4314C1599.8007,-333.8666 1679,-303.2315 1679,-239.5 1679,-239.5 1679,-239.5 1679,-178 1679,-144.6538 1667.5488,-107.2392 1659.5614,-85.1981"/>
<polygon fill="#191970" stroke="#191970" points="1662.7836,-83.823 1655.9839,-75.6981 1656.2327,-86.29 1662.7836,-83.823"/>
</g>
<!-- Node33&#45;&gt;Node30 -->
<g id="edge73" class="edge">
<title>Node33&#45;&gt;Node30</title>
<path fill="none" stroke="#191970" d="M1502.2268,-347.0851C1526.5192,-317.0793 1597.7491,-223.6724 1622,-132 1624.2733,-123.4067 1626.4718,-119.6821 1622,-112 1612.9719,-96.4905 1596.5509,-85.7836 1580.8426,-78.6298"/>
<polygon fill="#191970" stroke="#191970" points="1581.8036,-75.2386 1571.2266,-74.6236 1579.1115,-81.7003 1581.8036,-75.2386"/>
</g>
<!-- Node33&#45;&gt;Node32 -->
<g id="edge72" class="edge">
<title>Node33&#45;&gt;Node32</title>
<path fill="none" stroke="#191970" d="M1493.9462,-347.3762C1493.7889,-319.2097 1493.3269,-236.5126 1493.1121,-198.0713"/>
<polygon fill="#191970" stroke="#191970" points="1496.6099,-197.6517 1493.054,-187.6714 1489.61,-197.6908 1496.6099,-197.6517"/>
</g>
<!-- Node34 -->
<g id="node35" class="node">
<title>Node34</title>
<g id="a_node35"><a xlink:href="Position_8h.html" target="_top" xlink:title="Position.h">
<polygon fill="none" stroke="#000000" points="921.5,-291.5 921.5,-310.5 986.5,-310.5 986.5,-291.5 921.5,-291.5"/>
<text text-anchor="middle" x="954" y="-298.5" font-family="FreeSans.ttf" font-size="10.00" fill="#000000">Position.h</text>
</a>
</g>
</g>
<!-- Node33&#45;&gt;Node34 -->
<g id="edge58" class="edge">
<title>Node33&#45;&gt;Node34</title>
<path fill="none" stroke="#191970" d="M1413.4483,-348.6465C1297.3524,-336.6069 1087.0557,-314.7984 996.9096,-305.4499"/>
<polygon fill="#191970" stroke="#191970" points="997.0879,-301.9497 986.7802,-304.3994 996.3658,-308.9124 997.0879,-301.9497"/>
</g>
<!-- Node36 -->
<g id="node37" class="node">
<title>Node36</title>
<g id="a_node37"><a xlink:href="Rotation_8h.html" target="_top" xlink:title="iDynTree/Core/Rotation.h">
<polygon fill="none" stroke="#000000" points="1093.5,-230 1093.5,-249 1230.5,-249 1230.5,-230 1093.5,-230"/>
<text text-anchor="middle" x="1162" y="-237" font-family="FreeSans.ttf" font-size="10.00" fill="#000000">iDynTree/Core/Rotation.h</text>
</a>
</g>
</g>
<!-- Node33&#45;&gt;Node36 -->
<g id="edge70" class="edge">
<title>Node33&#45;&gt;Node36</title>
<path fill="none" stroke="#191970" d="M1455.0418,-347.4711C1421.7499,-338.981 1372.7542,-325.6596 1331,-311 1281.0705,-293.4701 1224.7854,-268.5873 1191.4124,-253.2733"/>
<polygon fill="#191970" stroke="#191970" points="1192.7737,-250.0468 1182.2273,-249.0343 1189.8403,-256.4026 1192.7737,-250.0468"/>
</g>
<!-- Node34&#45;&gt;Node15 -->
<g id="edge69" class="edge">
<title>Node34&#45;&gt;Node15</title>
<path fill="none" stroke="#191970" d="M934.8422,-291.3621C904.6161,-274.9357 846.9426,-238.3408 824,-188 813.2133,-164.3317 834.3535,-157.1469 841,-132 844.9971,-116.877 846.1571,-99.1757 846.367,-85.9141"/>
<polygon fill="#191970" stroke="#191970" points="849.8667,-85.5749 846.3544,-75.5792 842.8667,-85.5835 849.8667,-85.5749"/>
</g>
<!-- Node35 -->
<g id="node36" class="node">
<title>Node35</title>
<g id="a_node36"><a xlink:href="PositionRaw_8h.html" target="_top" xlink:title="iDynTree/Core/PositionRaw.h">
<polygon fill="none" stroke="#000000" points="833,-168.5 833,-187.5 989,-187.5 989,-168.5 833,-168.5"/>
<text text-anchor="middle" x="911" y="-175.5" font-family="FreeSans.ttf" font-size="10.00" fill="#000000">iDynTree/Core/PositionRaw.h</text>
</a>
</g>
</g>
<!-- Node34&#45;&gt;Node35 -->
<g id="edge59" class="edge">
<title>Node34&#45;&gt;Node35</title>
<path fill="none" stroke="#191970" d="M950.6259,-291.3484C943.561,-271.1397 927.0962,-224.0427 917.7656,-197.3528"/>
<polygon fill="#191970" stroke="#191970" points="920.9625,-195.8915 914.3585,-187.6068 914.3547,-198.2016 920.9625,-195.8915"/>
</g>
<!-- Node34&#45;&gt;Node36 -->
<g id="edge62" class="edge">
<title>Node34&#45;&gt;Node36</title>
<path fill="none" stroke="#191970" d="M986.5,-291.3906C1022.447,-280.7621 1080.4827,-263.6025 1119.888,-251.9514"/>
<polygon fill="#191970" stroke="#191970" points="1121.131,-255.2337 1129.7282,-249.0419 1119.1462,-248.521 1121.131,-255.2337"/>
</g>
<!-- Node35&#45;&gt;Node15 -->
<g id="edge61" class="edge">
<title>Node35&#45;&gt;Node15</title>
<path fill="none" stroke="#191970" d="M906.9364,-168.3346C901.2892,-155.2321 890.4628,-131.2589 879,-112 873.2411,-102.3243 866.0277,-92.0963 859.8151,-83.7481"/>
<polygon fill="#191970" stroke="#191970" points="862.4182,-81.3888 853.5825,-75.5423 856.8438,-85.6227 862.4182,-81.3888"/>
</g>
<!-- Node35&#45;&gt;Node26 -->
<g id="edge60" class="edge">
<title>Node35&#45;&gt;Node26</title>
<path fill="none" stroke="#191970" d="M986.2296,-168.4686C1064.2164,-158.588 1185.9183,-143.1687 1267.5009,-132.8325"/>
<polygon fill="#191970" stroke="#191970" points="1268.2612,-136.2642 1277.742,-131.535 1267.3813,-129.3197 1268.2612,-136.2642"/>
</g>
<!-- Node36&#45;&gt;Node15 -->
<g id="edge63" class="edge">
<title>Node36&#45;&gt;Node15</title>
<path fill="none" stroke="#191970" d="M1144.5604,-229.9248C1092.01,-201.0719 934.9584,-114.8427 872.2675,-80.4222"/>
<polygon fill="#191970" stroke="#191970" points="873.8359,-77.2905 863.3857,-75.5457 870.4669,-83.4265 873.8359,-77.2905"/>
</g>
<!-- Node36&#45;&gt;Node26 -->
<g id="edge68" class="edge">
<title>Node36&#45;&gt;Node26</title>
<path fill="none" stroke="#191970" d="M1178.9905,-229.828C1196.8029,-219.625 1225.5474,-202.9811 1250,-188 1277.7643,-170.99 1309.2151,-150.6826 1329.9792,-137.1281"/>
<polygon fill="#191970" stroke="#191970" points="1331.9968,-139.9906 1338.4486,-131.5868 1328.1643,-134.1329 1331.9968,-139.9906"/>
</g>
<!-- Node36&#45;&gt;Node32 -->
<g id="edge64" class="edge">
<title>Node36&#45;&gt;Node32</title>
<path fill="none" stroke="#191970" d="M1213.3556,-229.9581C1272.2689,-219.012 1368.8065,-201.0752 1431.6299,-189.4026"/>
<polygon fill="#191970" stroke="#191970" points="1432.6039,-192.7816 1441.7963,-187.5137 1431.3252,-185.8994 1432.6039,-192.7816"/>
</g>
<!-- Node37 -->
<g id="node38" class="node">
<title>Node37</title>
<g id="a_node38"><a xlink:href="RotationRaw_8h.html" target="_top" xlink:title="iDynTree/Core/RotationRaw.h">
<polygon fill="none" stroke="#000000" points="1083,-168.5 1083,-187.5 1241,-187.5 1241,-168.5 1083,-168.5"/>
<text text-anchor="middle" x="1162" y="-175.5" font-family="FreeSans.ttf" font-size="10.00" fill="#000000">iDynTree/Core/RotationRaw.h</text>
</a>
</g>
</g>
<!-- Node36&#45;&gt;Node37 -->
<g id="edge65" class="edge">
<title>Node36&#45;&gt;Node37</title>
<path fill="none" stroke="#191970" d="M1162,-229.8906C1162,-221.3657 1162,-208.6392 1162,-197.9235"/>
<polygon fill="#191970" stroke="#191970" points="1165.5001,-197.7448 1162,-187.7449 1158.5001,-197.7449 1165.5001,-197.7448"/>
</g>
<!-- Node37&#45;&gt;Node15 -->
<g id="edge67" class="edge">
<title>Node37&#45;&gt;Node15</title>
<path fill="none" stroke="#191970" d="M1135.058,-168.4509C1076.9498,-147.8556 940.076,-99.3434 877.8226,-77.2789"/>
<polygon fill="#191970" stroke="#191970" points="878.7407,-73.891 868.1459,-73.8492 876.4021,-80.4888 878.7407,-73.891"/>
</g>
<!-- Node37&#45;&gt;Node29 -->
<g id="edge66" class="edge">
<title>Node37&#45;&gt;Node29</title>
<path fill="none" stroke="#191970" d="M1225.1849,-168.4369C1289.9708,-158.6314 1390.6356,-143.3957 1458.8382,-133.0731"/>
<polygon fill="#191970" stroke="#191970" points="1459.7121,-136.4808 1469.0757,-131.5237 1458.6646,-129.5596 1459.7121,-136.4808"/>
</g>
<!-- Node38&#45;&gt;Node26 -->
<g id="edge76" class="edge">
<title>Node38&#45;&gt;Node26</title>
<path fill="none" stroke="#191970" d="M1575.274,-403.3254C1583.757,-393.7875 1593.4857,-380.7214 1598,-367 1617.5218,-307.663 1739.8939,-343.5569 1584,-168 1573.7392,-156.445 1495.0538,-142.4973 1432.3282,-133.0114"/>
<polygon fill="#191970" stroke="#191970" points="1432.8188,-129.546 1422.4111,-131.5284 1431.7835,-136.469 1432.8188,-129.546"/>
</g>
<!-- Node38&#45;&gt;Node32 -->
<g id="edge77" class="edge">
<title>Node38&#45;&gt;Node32</title>
<path fill="none" stroke="#191970" d="M1570.4112,-403.3601C1578.9891,-389.0246 1588.9936,-366.8066 1584,-347 1568.8653,-286.9699 1527.772,-225.0642 1506.3676,-195.6202"/>
<polygon fill="#191970" stroke="#191970" points="1509.1682,-193.5208 1500.4074,-187.5626 1503.5404,-197.6836 1509.1682,-193.5208"/>
</g>
<!-- Node38&#45;&gt;Node33 -->
<g id="edge78" class="edge">
<title>Node38&#45;&gt;Node33</title>
<path fill="none" stroke="#191970" d="M1543.6854,-403.2977C1534.0467,-394.3163 1521.8309,-382.9334 1511.9241,-373.702"/>
<polygon fill="#191970" stroke="#191970" points="1514.2696,-371.1036 1504.5674,-366.8469 1509.4975,-376.2249 1514.2696,-371.1036"/>
</g>
<!-- Node39&#45;&gt;Node15 -->
<g id="edge83" class="edge">
<title>Node39&#45;&gt;Node15</title>
<path fill="none" stroke="#191970" d="M939.9873,-347.2404C917.0942,-330.6631 871.476,-294.8959 844,-255 825.7903,-228.5591 823.1118,-219.5177 817,-188 809.8559,-151.159 825.4809,-108.6179 836.4512,-84.7561"/>
<polygon fill="#191970" stroke="#191970" points="839.6054,-86.2729 840.7879,-75.7443 833.2978,-83.2375 839.6054,-86.2729"/>
</g>
<!-- Node39&#45;&gt;Node29 -->
<g id="edge82" class="edge">
<title>Node39&#45;&gt;Node29</title>
<path fill="none" stroke="#191970" d="M985.3697,-347.4387C1038.4921,-330.8809 1149.1472,-294.8011 1239,-255 1314.0814,-221.742 1326.859,-201.123 1402,-168 1431.3319,-155.0702 1465.5434,-143.082 1491.5062,-134.5876"/>
<polygon fill="#191970" stroke="#191970" points="1492.5881,-137.9162 1501.0255,-131.5084 1490.4337,-131.256 1492.5881,-137.9162"/>
</g>
<!-- Node39&#45;&gt;Node34 -->
<g id="edge80" class="edge">
<title>Node39&#45;&gt;Node34</title>
<path fill="none" stroke="#191970" d="M954,-347.2455C954,-339.9382 954,-329.6944 954,-320.7046"/>
<polygon fill="#191970" stroke="#191970" points="957.5001,-320.6426 954,-310.6427 950.5001,-320.6427 957.5001,-320.6426"/>
</g>
<!-- Node39&#45;&gt;Node36 -->
<g id="edge81" class="edge">
<title>Node39&#45;&gt;Node36</title>
<path fill="none" stroke="#191970" d="M971.0215,-347.3845C1007.4494,-326.8062 1093.1475,-278.3951 1136.2672,-254.0365"/>
<polygon fill="#191970" stroke="#191970" points="1138.0497,-257.0495 1145.035,-249.0836 1134.6067,-250.9548 1138.0497,-257.0495"/>
</g>
</g>
</svg>
