<?xml version="1.0" encoding="UTF-8" standalone="no"?>
<!DOCTYPE svg PUBLIC "-//W3C//DTD SVG 1.1//EN"
 "http://www.w3.org/Graphics/SVG/1.1/DTD/svg11.dtd">
<!-- Generated by graphviz version 2.40.1 (20161225.0304)
 -->
<!-- Title: InertiaNonLinearParametrization.h Pages: 1 -->
<svg width="1065pt" height="420pt"
 viewBox="0.00 0.00 1064.50 420.00" xmlns="http://www.w3.org/2000/svg" xmlns:xlink="http://www.w3.org/1999/xlink">
<g id="graph0" class="graph" transform="scale(1 1) rotate(0) translate(4 416)">
<title>InertiaNonLinearParametrization.h</title>
<!-- Node0 -->
<g id="node1" class="node">
<title>Node0</title>
<polygon fill="#bfbfbf" stroke="#000000" points="429.5,-392.5 429.5,-411.5 613.5,-411.5 613.5,-392.5 429.5,-392.5"/>
<text text-anchor="middle" x="521.5" y="-399.5" font-family="FreeSans.ttf" font-size="10.00" fill="#000000">InertiaNonLinearParametrization.h</text>
</g>
<!-- Node1 -->
<g id="node2" class="node">
<title>Node1</title>
<g id="a_node2"><a xlink:href="VectorFixSize_8h.html" target="_top" xlink:title="iDynTree/Core/VectorFixSize.h">
<polygon fill="none" stroke="#000000" points="385,-112.5 385,-131.5 546,-131.5 546,-112.5 385,-112.5"/>
<text text-anchor="middle" x="465.5" y="-119.5" font-family="FreeSans.ttf" font-size="10.00" fill="#000000">iDynTree/Core/VectorFixSize.h</text>
</a>
</g>
</g>
<!-- Node0&#45;&gt;Node1 -->
<g id="edge1" class="edge">
<title>Node0&#45;&gt;Node1</title>
<path fill="none" stroke="#191970" d="M463.868,-392.4664C408.9229,-379.6951 334.5,-351.1162 334.5,-290 334.5,-290 334.5,-290 334.5,-234 334.5,-203.4754 333.1283,-190.732 353.5,-168 367.7864,-152.0583 388.4298,-141.5206 408.1118,-134.6101"/>
<polygon fill="#191970" stroke="#191970" points="409.2386,-137.9242 417.6646,-131.5013 407.0724,-131.2678 409.2386,-137.9242"/>
</g>
<!-- Node16 -->
<g id="node17" class="node">
<title>Node16</title>
<g id="a_node17"><a xlink:href="Rotation_8h.html" target="_top" xlink:title="iDynTree/Core/Rotation.h">
<polygon fill="none" stroke="#000000" points="455,-224.5 455,-243.5 592,-243.5 592,-224.5 455,-224.5"/>
<text text-anchor="middle" x="523.5" y="-231.5" font-family="FreeSans.ttf" font-size="10.00" fill="#000000">iDynTree/Core/Rotation.h</text>
</a>
</g>
</g>
<!-- Node0&#45;&gt;Node16 -->
<g id="edge18" class="edge">
<title>Node0&#45;&gt;Node16</title>
<path fill="none" stroke="#191970" d="M521.6133,-392.4862C521.9294,-365.9293 522.8266,-290.5651 523.2599,-254.1655"/>
<polygon fill="#191970" stroke="#191970" points="526.7636,-253.8689 523.383,-243.8279 519.7641,-253.7855 526.7636,-253.8689"/>
</g>
<!-- Node21 -->
<g id="node22" class="node">
<title>Node21</title>
<g id="a_node22"><a xlink:href="Transform_8h.html" target="_top" xlink:title="iDynTree/Core/Transform.h">
<polygon fill="none" stroke="#000000" points="549.5,-336.5 549.5,-355.5 695.5,-355.5 695.5,-336.5 549.5,-336.5"/>
<text text-anchor="middle" x="622.5" y="-343.5" font-family="FreeSans.ttf" font-size="10.00" fill="#000000">iDynTree/Core/Transform.h</text>
</a>
</g>
</g>
<!-- Node0&#45;&gt;Node21 -->
<g id="edge32" class="edge">
<title>Node0&#45;&gt;Node21</title>
<path fill="none" stroke="#191970" d="M539.0929,-392.2455C554.879,-383.4928 578.2639,-370.527 596.2587,-360.5496"/>
<polygon fill="#191970" stroke="#191970" points="598.0603,-363.5528 605.1087,-355.6427 594.6659,-357.4308 598.0603,-363.5528"/>
</g>
<!-- Node2 -->
<g id="node3" class="node">
<title>Node2</title>
<g id="a_node3"><a xlink:href="Utils_8h.html" target="_top" xlink:title="iDynTree/Core/Utils.h">
<polygon fill="none" stroke="#000000" points="497,-56.5 497,-75.5 616,-75.5 616,-56.5 497,-56.5"/>
<text text-anchor="middle" x="556.5" y="-63.5" font-family="FreeSans.ttf" font-size="10.00" fill="#000000">iDynTree/Core/Utils.h</text>
</a>
</g>
</g>
<!-- Node1&#45;&gt;Node2 -->
<g id="edge2" class="edge">
<title>Node1&#45;&gt;Node2</title>
<path fill="none" stroke="#191970" d="M481.351,-112.2455C495.3132,-103.6534 515.8728,-91.0014 531.9596,-81.1018"/>
<polygon fill="#191970" stroke="#191970" points="534.1484,-83.8645 540.8307,-75.6427 530.4797,-77.9029 534.1484,-83.8645"/>
</g>
<!-- Node4 -->
<g id="node5" class="node">
<title>Node4</title>
<g id="a_node5"><a xlink:href="Span_8h.html" target="_top" xlink:title="iDynTree/Core/Span.h">
<polygon fill="none" stroke="#000000" points="245,-56.5 245,-75.5 366,-75.5 366,-56.5 245,-56.5"/>
<text text-anchor="middle" x="305.5" y="-63.5" font-family="FreeSans.ttf" font-size="10.00" fill="#000000">iDynTree/Core/Span.h</text>
</a>
</g>
</g>
<!-- Node1&#45;&gt;Node4 -->
<g id="edge4" class="edge">
<title>Node1&#45;&gt;Node4</title>
<path fill="none" stroke="#191970" d="M437.995,-112.3733C411.6198,-103.1419 371.6149,-89.1402 342.4642,-78.9375"/>
<polygon fill="#191970" stroke="#191970" points="343.2409,-75.5012 332.6461,-75.5011 340.9284,-82.1082 343.2409,-75.5012"/>
</g>
<!-- Node5 -->
<g id="node6" class="node">
<title>Node5</title>
<polygon fill="none" stroke="#bfbfbf" points="581.5,-.5 581.5,-19.5 633.5,-19.5 633.5,-.5 581.5,-.5"/>
<text text-anchor="middle" x="607.5" y="-7.5" font-family="FreeSans.ttf" font-size="10.00" fill="#000000">cassert</text>
</g>
<!-- Node1&#45;&gt;Node5 -->
<g id="edge16" class="edge">
<title>Node1&#45;&gt;Node5</title>
<path fill="none" stroke="#191970" d="M448.3953,-112.3524C427.7251,-99.47 397.5798,-75.9557 413.5,-56 458.4155,.3006 501.6725,-37.643 571.5,-20 571.5983,-19.9752 571.6967,-19.9503 571.7952,-19.9253"/>
<polygon fill="#191970" stroke="#191970" points="572.4067,-23.3834 581.1918,-17.4612 570.6311,-16.6123 572.4067,-23.3834"/>
</g>
<!-- Node13 -->
<g id="node14" class="node">
<title>Node13</title>
<polygon fill="none" stroke="#bfbfbf" points="818.5,-56.5 818.5,-75.5 862.5,-75.5 862.5,-56.5 818.5,-56.5"/>
<text text-anchor="middle" x="840.5" y="-63.5" font-family="FreeSans.ttf" font-size="10.00" fill="#000000">string</text>
</g>
<!-- Node1&#45;&gt;Node13 -->
<g id="edge14" class="edge">
<title>Node1&#45;&gt;Node13</title>
<path fill="none" stroke="#191970" d="M529.5387,-112.4369C610.4178,-100.3589 746.469,-80.042 808.2462,-70.8166"/>
<polygon fill="#191970" stroke="#191970" points="808.8237,-74.2692 818.1971,-69.3306 807.7898,-67.346 808.8237,-74.2692"/>
</g>
<!-- Node14 -->
<g id="node15" class="node">
<title>Node14</title>
<polygon fill="none" stroke="#bfbfbf" points="422.5,-56.5 422.5,-75.5 478.5,-75.5 478.5,-56.5 422.5,-56.5"/>
<text text-anchor="middle" x="450.5" y="-63.5" font-family="FreeSans.ttf" font-size="10.00" fill="#000000">sstream</text>
</g>
<!-- Node1&#45;&gt;Node14 -->
<g id="edge15" class="edge">
<title>Node1&#45;&gt;Node14</title>
<path fill="none" stroke="#191970" d="M462.8872,-112.2455C460.9084,-104.8579 458.1256,-94.4689 455.6988,-85.4087"/>
<polygon fill="#191970" stroke="#191970" points="459.0511,-84.3966 453.0829,-75.6427 452.2895,-86.2078 459.0511,-84.3966"/>
</g>
<!-- Node15 -->
<g id="node16" class="node">
<title>Node15</title>
<polygon fill="none" stroke="#bfbfbf" points="634.5,-56.5 634.5,-75.5 684.5,-75.5 684.5,-56.5 634.5,-56.5"/>
<text text-anchor="middle" x="659.5" y="-63.5" font-family="FreeSans.ttf" font-size="10.00" fill="#000000">cstring</text>
</g>
<!-- Node1&#45;&gt;Node15 -->
<g id="edge17" class="edge">
<title>Node1&#45;&gt;Node15</title>
<path fill="none" stroke="#191970" d="M498.8498,-112.3733C533.8534,-102.2691 588.6558,-86.4499 624.3283,-76.1526"/>
<polygon fill="#191970" stroke="#191970" points="625.6586,-79.4116 634.2956,-73.2755 623.7172,-72.6862 625.6586,-79.4116"/>
</g>
<!-- Node3 -->
<g id="node4" class="node">
<title>Node3</title>
<polygon fill="none" stroke="#bfbfbf" points="510,-.5 510,-19.5 563,-19.5 563,-.5 510,-.5"/>
<text text-anchor="middle" x="536.5" y="-7.5" font-family="FreeSans.ttf" font-size="10.00" fill="#000000">cstddef</text>
</g>
<!-- Node2&#45;&gt;Node3 -->
<g id="edge3" class="edge">
<title>Node2&#45;&gt;Node3</title>
<path fill="none" stroke="#191970" d="M553.0163,-56.2455C550.3492,-48.7776 546.5867,-38.2427 543.3263,-29.1137"/>
<polygon fill="#191970" stroke="#191970" points="546.6033,-27.8829 539.9438,-19.6427 540.0111,-30.2373 546.6033,-27.8829"/>
</g>
<!-- Node4&#45;&gt;Node3 -->
<g id="edge8" class="edge">
<title>Node4&#45;&gt;Node3</title>
<path fill="none" stroke="#191970" d="M348.2227,-56.4299C385.7215,-47.916 441.9596,-34.873 500.0746,-20.0376"/>
<polygon fill="#191970" stroke="#191970" points="500.9785,-23.4192 509.7949,-17.5438 499.2388,-16.6388 500.9785,-23.4192"/>
</g>
<!-- Node4&#45;&gt;Node5 -->
<g id="edge5" class="edge">
<title>Node4&#45;&gt;Node5</title>
<path fill="none" stroke="#191970" d="M366.0554,-57.2891C420.1911,-49.0843 501.5404,-35.7246 571.5,-20 571.5989,-19.9778 571.6979,-19.9554 571.7971,-19.933"/>
<polygon fill="#191970" stroke="#191970" points="572.3499,-23.4011 581.2304,-17.623 570.6849,-16.602 572.3499,-23.4011"/>
</g>
<!-- Node6 -->
<g id="node7" class="node">
<title>Node6</title>
<polygon fill="none" stroke="#bfbfbf" points="367.5,-.5 367.5,-19.5 431.5,-19.5 431.5,-.5 367.5,-.5"/>
<text text-anchor="middle" x="399.5" y="-7.5" font-family="FreeSans.ttf" font-size="10.00" fill="#000000">algorithm</text>
</g>
<!-- Node4&#45;&gt;Node6 -->
<g id="edge6" class="edge">
<title>Node4&#45;&gt;Node6</title>
<path fill="none" stroke="#191970" d="M321.8736,-56.2455C336.4308,-47.5731 357.931,-34.7645 374.6152,-24.825"/>
<polygon fill="#191970" stroke="#191970" points="376.5144,-27.7676 383.3141,-19.6427 372.9317,-21.7539 376.5144,-27.7676"/>
</g>
<!-- Node7 -->
<g id="node8" class="node">
<title>Node7</title>
<polygon fill="none" stroke="#bfbfbf" points="449.5,-.5 449.5,-19.5 491.5,-19.5 491.5,-.5 449.5,-.5"/>
<text text-anchor="middle" x="470.5" y="-7.5" font-family="FreeSans.ttf" font-size="10.00" fill="#000000">array</text>
</g>
<!-- Node4&#45;&gt;Node7 -->
<g id="edge7" class="edge">
<title>Node4&#45;&gt;Node7</title>
<path fill="none" stroke="#191970" d="M333.8645,-56.3733C363.3351,-46.3711 409.3065,-30.7687 439.6622,-20.4662"/>
<polygon fill="#191970" stroke="#191970" points="440.967,-23.7195 449.3116,-17.1912 438.7173,-17.0908 440.967,-23.7195"/>
</g>
<!-- Node8 -->
<g id="node9" class="node">
<title>Node8</title>
<polygon fill="none" stroke="#bfbfbf" points="0,-.5 0,-19.5 53,-19.5 53,-.5 0,-.5"/>
<text text-anchor="middle" x="26.5" y="-7.5" font-family="FreeSans.ttf" font-size="10.00" fill="#000000">iterator</text>
</g>
<!-- Node4&#45;&gt;Node8 -->
<g id="edge9" class="edge">
<title>Node4&#45;&gt;Node8</title>
<path fill="none" stroke="#191970" d="M247.7705,-56.4764C200.5746,-48.3708 131.9367,-35.8569 62.9124,-19.945"/>
<polygon fill="#191970" stroke="#191970" points="63.7056,-16.5361 53.1724,-17.6773 62.1182,-23.3537 63.7056,-16.5361"/>
</g>
<!-- Node9 -->
<g id="node10" class="node">
<title>Node9</title>
<polygon fill="none" stroke="#bfbfbf" points="71.5,-.5 71.5,-19.5 115.5,-19.5 115.5,-.5 71.5,-.5"/>
<text text-anchor="middle" x="93.5" y="-7.5" font-family="FreeSans.ttf" font-size="10.00" fill="#000000">limits</text>
</g>
<!-- Node4&#45;&gt;Node9 -->
<g id="edge10" class="edge">
<title>Node4&#45;&gt;Node9</title>
<path fill="none" stroke="#191970" d="M265.0457,-56.4936C230.3188,-48.16 178.735,-35.3723 125.4184,-20.1475"/>
<polygon fill="#191970" stroke="#191970" points="126.3773,-16.7815 115.7994,-17.3792 124.4413,-23.5084 126.3773,-16.7815"/>
</g>
<!-- Node10 -->
<g id="node11" class="node">
<title>Node10</title>
<polygon fill="none" stroke="#bfbfbf" points="134,-.5 134,-19.5 199,-19.5 199,-.5 134,-.5"/>
<text text-anchor="middle" x="166.5" y="-7.5" font-family="FreeSans.ttf" font-size="10.00" fill="#000000">stdexcept</text>
</g>
<!-- Node4&#45;&gt;Node10 -->
<g id="edge11" class="edge">
<title>Node4&#45;&gt;Node10</title>
<path fill="none" stroke="#191970" d="M281.605,-56.3733C258.9918,-47.2629 224.8458,-33.5062 199.6127,-23.3404"/>
<polygon fill="#191970" stroke="#191970" points="200.6666,-19.9917 190.0831,-19.5011 198.0507,-26.4845 200.6666,-19.9917"/>
</g>
<!-- Node11 -->
<g id="node12" class="node">
<title>Node11</title>
<polygon fill="none" stroke="#bfbfbf" points="217,-.5 217,-19.5 286,-19.5 286,-.5 217,-.5"/>
<text text-anchor="middle" x="251.5" y="-7.5" font-family="FreeSans.ttf" font-size="10.00" fill="#000000">type_traits</text>
</g>
<!-- Node4&#45;&gt;Node11 -->
<g id="edge12" class="edge">
<title>Node4&#45;&gt;Node11</title>
<path fill="none" stroke="#191970" d="M296.0939,-56.2455C288.3507,-48.2155 277.188,-36.6394 267.9682,-27.0781"/>
<polygon fill="#191970" stroke="#191970" points="270.2591,-24.4117 260.7983,-19.6427 265.2202,-29.2706 270.2591,-24.4117"/>
</g>
<!-- Node12 -->
<g id="node13" class="node">
<title>Node12</title>
<polygon fill="none" stroke="#bfbfbf" points="304,-.5 304,-19.5 349,-19.5 349,-.5 304,-.5"/>
<text text-anchor="middle" x="326.5" y="-7.5" font-family="FreeSans.ttf" font-size="10.00" fill="#000000">utility</text>
</g>
<!-- Node4&#45;&gt;Node12 -->
<g id="edge13" class="edge">
<title>Node4&#45;&gt;Node12</title>
<path fill="none" stroke="#191970" d="M309.1579,-56.2455C311.9584,-48.7776 315.909,-38.2427 319.3324,-29.1137"/>
<polygon fill="#191970" stroke="#191970" points="322.6499,-30.2349 322.884,-19.6427 316.0955,-27.777 322.6499,-30.2349"/>
</g>
<!-- Node16&#45;&gt;Node1 -->
<g id="edge31" class="edge">
<title>Node16&#45;&gt;Node1</title>
<path fill="none" stroke="#191970" d="M528.6585,-224.4297C535.1274,-211.0176 544.2567,-186.2305 534.5,-168 527.0485,-154.0767 513.3151,-143.6399 500.051,-136.258"/>
<polygon fill="#191970" stroke="#191970" points="501.5215,-133.0787 491.0262,-131.6302 498.3274,-139.3075 501.5215,-133.0787"/>
</g>
<!-- Node16&#45;&gt;Node13 -->
<g id="edge19" class="edge">
<title>Node16&#45;&gt;Node13</title>
<path fill="none" stroke="#191970" d="M592.1649,-229.375C660.033,-223.5354 757.886,-211.305 787.5,-188 819.8782,-162.5197 832.8685,-113.2967 837.7685,-85.8024"/>
<polygon fill="#191970" stroke="#191970" points="841.2459,-86.2205 839.3626,-75.7944 834.333,-85.1194 841.2459,-86.2205"/>
</g>
<!-- Node17 -->
<g id="node18" class="node">
<title>Node17</title>
<g id="a_node18"><a xlink:href="GeomVector3_8h.html" target="_top" xlink:title="iDynTree/Core/GeomVector3.h">
<polygon fill="none" stroke="#000000" points="363,-168.5 363,-187.5 526,-187.5 526,-168.5 363,-168.5"/>
<text text-anchor="middle" x="444.5" y="-175.5" font-family="FreeSans.ttf" font-size="10.00" fill="#000000">iDynTree/Core/GeomVector3.h</text>
</a>
</g>
</g>
<!-- Node16&#45;&gt;Node17 -->
<g id="edge20" class="edge">
<title>Node16&#45;&gt;Node17</title>
<path fill="none" stroke="#191970" d="M509.7393,-224.2455C497.8448,-215.814 480.435,-203.4729 466.5915,-193.6598"/>
<polygon fill="#191970" stroke="#191970" points="468.2854,-190.5704 458.1031,-187.6427 464.2372,-196.2811 468.2854,-190.5704"/>
</g>
<!-- Node18 -->
<g id="node19" class="node">
<title>Node18</title>
<g id="a_node19"><a xlink:href="RotationRaw_8h.html" target="_top" xlink:title="iDynTree/Core/RotationRaw.h">
<polygon fill="none" stroke="#000000" points="620.5,-168.5 620.5,-187.5 778.5,-187.5 778.5,-168.5 620.5,-168.5"/>
<text text-anchor="middle" x="699.5" y="-175.5" font-family="FreeSans.ttf" font-size="10.00" fill="#000000">iDynTree/Core/RotationRaw.h</text>
</a>
</g>
</g>
<!-- Node16&#45;&gt;Node18 -->
<g id="edge22" class="edge">
<title>Node16&#45;&gt;Node18</title>
<path fill="none" stroke="#191970" d="M553.7555,-224.3733C583.1483,-215.021 627.9292,-200.7725 660.0934,-190.5385"/>
<polygon fill="#191970" stroke="#191970" points="661.1713,-193.8685 669.6393,-187.5011 659.0488,-187.198 661.1713,-193.8685"/>
</g>
<!-- Node17&#45;&gt;Node1 -->
<g id="edge21" class="edge">
<title>Node17&#45;&gt;Node1</title>
<path fill="none" stroke="#191970" d="M448.1579,-168.2455C450.9584,-160.7776 454.909,-150.2427 458.3324,-141.1137"/>
<polygon fill="#191970" stroke="#191970" points="461.6499,-142.2349 461.884,-131.6427 455.0955,-139.777 461.6499,-142.2349"/>
</g>
<!-- Node18&#45;&gt;Node13 -->
<g id="edge30" class="edge">
<title>Node18&#45;&gt;Node13</title>
<path fill="none" stroke="#191970" d="M711.5216,-168.4509C735.7671,-149.1921 790.7448,-105.5218 820.4912,-81.8935"/>
<polygon fill="#191970" stroke="#191970" points="822.8555,-84.4854 828.5088,-75.5249 818.5016,-79.0041 822.8555,-84.4854"/>
</g>
<!-- Node19 -->
<g id="node20" class="node">
<title>Node19</title>
<g id="a_node20"><a xlink:href="MatrixFixSize_8h.html" target="_top" xlink:title="iDynTree/Core/MatrixFixSize.h">
<polygon fill="none" stroke="#000000" points="579,-112.5 579,-131.5 740,-131.5 740,-112.5 579,-112.5"/>
<text text-anchor="middle" x="659.5" y="-119.5" font-family="FreeSans.ttf" font-size="10.00" fill="#000000">iDynTree/Core/MatrixFixSize.h</text>
</a>
</g>
</g>
<!-- Node18&#45;&gt;Node19 -->
<g id="edge23" class="edge">
<title>Node18&#45;&gt;Node19</title>
<path fill="none" stroke="#191970" d="M692.5325,-168.2455C686.9689,-160.4564 679.022,-149.3308 672.3171,-139.9439"/>
<polygon fill="#191970" stroke="#191970" points="675.0481,-137.7457 666.3876,-131.6427 669.352,-141.8144 675.0481,-137.7457"/>
</g>
<!-- Node19&#45;&gt;Node2 -->
<g id="edge24" class="edge">
<title>Node19&#45;&gt;Node2</title>
<path fill="none" stroke="#191970" d="M641.5588,-112.2455C625.46,-103.4928 601.6121,-90.527 583.2609,-80.5496"/>
<polygon fill="#191970" stroke="#191970" points="584.6929,-77.3444 574.2356,-75.6427 581.3493,-83.4942 584.6929,-77.3444"/>
</g>
<!-- Node19&#45;&gt;Node5 -->
<g id="edge25" class="edge">
<title>Node19&#45;&gt;Node5</title>
<path fill="none" stroke="#191970" d="M707.1548,-112.499C746.5275,-102.4279 792.7702,-84.0571 771.5,-56 756.0777,-35.6567 686.8585,-21.8299 643.4239,-14.9833"/>
<polygon fill="#191970" stroke="#191970" points="643.9293,-11.52 633.5157,-13.4715 642.8733,-18.4399 643.9293,-11.52"/>
</g>
<!-- Node19&#45;&gt;Node13 -->
<g id="edge27" class="edge">
<title>Node19&#45;&gt;Node13</title>
<path fill="none" stroke="#191970" d="M690.615,-112.3733C723.5908,-102.1708 775.4,-86.1414 808.6518,-75.8536"/>
<polygon fill="#191970" stroke="#191970" points="809.8155,-79.1573 818.3342,-72.8579 807.7464,-72.4701 809.8155,-79.1573"/>
</g>
<!-- Node19&#45;&gt;Node14 -->
<g id="edge29" class="edge">
<title>Node19&#45;&gt;Node14</title>
<path fill="none" stroke="#191970" d="M623.5849,-112.4243C590.8227,-103.6827 540.8074,-90.3213 488.5581,-76.2801"/>
<polygon fill="#191970" stroke="#191970" points="489.3455,-72.8676 478.7797,-73.6514 487.5281,-79.6276 489.3455,-72.8676"/>
</g>
<!-- Node19&#45;&gt;Node15 -->
<g id="edge26" class="edge">
<title>Node19&#45;&gt;Node15</title>
<path fill="none" stroke="#191970" d="M659.5,-112.2455C659.5,-104.9382 659.5,-94.6944 659.5,-85.7046"/>
<polygon fill="#191970" stroke="#191970" points="663.0001,-85.6426 659.5,-75.6427 656.0001,-85.6427 663.0001,-85.6426"/>
</g>
<!-- Node20 -->
<g id="node21" class="node">
<title>Node20</title>
<polygon fill="none" stroke="#bfbfbf" points="702.5,-56.5 702.5,-75.5 762.5,-75.5 762.5,-56.5 702.5,-56.5"/>
<text text-anchor="middle" x="732.5" y="-63.5" font-family="FreeSans.ttf" font-size="10.00" fill="#000000">iostream</text>
</g>
<!-- Node19&#45;&gt;Node20 -->
<g id="edge28" class="edge">
<title>Node19&#45;&gt;Node20</title>
<path fill="none" stroke="#191970" d="M672.2156,-112.2455C683.102,-103.8943 698.9883,-91.7076 711.72,-81.9408"/>
<polygon fill="#191970" stroke="#191970" points="714.1261,-84.5063 719.9301,-75.6427 709.8654,-78.9523 714.1261,-84.5063"/>
</g>
<!-- Node21&#45;&gt;Node13 -->
<g id="edge41" class="edge">
<title>Node21&#45;&gt;Node13</title>
<path fill="none" stroke="#191970" d="M695.6314,-342.1456C819.3181,-333.6068 1056.5,-307.6331 1056.5,-234 1056.5,-234 1056.5,-234 1056.5,-178 1056.5,-96.3099 933.2361,-74.1266 872.9414,-68.1621"/>
<polygon fill="#191970" stroke="#191970" points="873.0747,-64.6601 862.8022,-67.2538 872.45,-71.6322 873.0747,-64.6601"/>
</g>
<!-- Node21&#45;&gt;Node16 -->
<g id="edge39" class="edge">
<title>Node21&#45;&gt;Node16</title>
<path fill="none" stroke="#191970" d="M614.0593,-336.4509C597.3281,-317.5227 559.7535,-275.014 538.6398,-251.1279"/>
<polygon fill="#191970" stroke="#191970" points="541.1646,-248.6994 531.9193,-243.5249 535.9198,-253.3354 541.1646,-248.6994"/>
</g>
<!-- Node21&#45;&gt;Node19 -->
<g id="edge40" class="edge">
<title>Node21&#45;&gt;Node19</title>
<path fill="none" stroke="#191970" d="M620.7387,-336.121C615.0743,-303.3558 598.4365,-198.6131 611.5,-168 616.6156,-156.0122 626.5575,-145.6498 636.0727,-137.8114"/>
<polygon fill="#191970" stroke="#191970" points="638.3797,-140.4532 644.1926,-131.5954 634.1246,-134.8949 638.3797,-140.4532"/>
</g>
<!-- Node22 -->
<g id="node23" class="node">
<title>Node22</title>
<g id="a_node23"><a xlink:href="Position_8h.html" target="_top" xlink:title="iDynTree/Core/Position.h">
<polygon fill="none" stroke="#000000" points="676.5,-280.5 676.5,-299.5 812.5,-299.5 812.5,-280.5 676.5,-280.5"/>
<text text-anchor="middle" x="744.5" y="-287.5" font-family="FreeSans.ttf" font-size="10.00" fill="#000000">iDynTree/Core/Position.h</text>
</a>
</g>
</g>
<!-- Node21&#45;&gt;Node22 -->
<g id="edge33" class="edge">
<title>Node21&#45;&gt;Node22</title>
<path fill="none" stroke="#191970" d="M643.4725,-336.3733C663.0567,-327.3838 692.4961,-313.8706 714.551,-303.7471"/>
<polygon fill="#191970" stroke="#191970" points="716.1729,-306.8538 723.8011,-299.5011 713.2527,-300.4919 716.1729,-306.8538"/>
</g>
<!-- Node22&#45;&gt;Node13 -->
<g id="edge38" class="edge">
<title>Node22&#45;&gt;Node13</title>
<path fill="none" stroke="#191970" d="M812.6163,-283.5224C873.0517,-273.7611 957.9995,-249.2977 999.5,-188 1036.8696,-132.8039 929.2655,-91.8968 872.7405,-74.8034"/>
<polygon fill="#191970" stroke="#191970" points="873.408,-71.3517 862.8269,-71.8908 871.4347,-78.0678 873.408,-71.3517"/>
</g>
<!-- Node22&#45;&gt;Node16 -->
<g id="edge37" class="edge">
<title>Node22&#45;&gt;Node16</title>
<path fill="none" stroke="#191970" d="M706.7599,-280.4369C669.2552,-270.9335 611.6201,-256.3291 571.0176,-246.0407"/>
<polygon fill="#191970" stroke="#191970" points="571.6379,-242.5873 561.0845,-243.5237 569.9184,-249.3728 571.6379,-242.5873"/>
</g>
<!-- Node23 -->
<g id="node24" class="node">
<title>Node23</title>
<g id="a_node24"><a xlink:href="PositionRaw_8h.html" target="_top" xlink:title="iDynTree/Core/PositionRaw.h">
<polygon fill="none" stroke="#000000" points="834.5,-168.5 834.5,-187.5 990.5,-187.5 990.5,-168.5 834.5,-168.5"/>
<text text-anchor="middle" x="912.5" y="-175.5" font-family="FreeSans.ttf" font-size="10.00" fill="#000000">iDynTree/Core/PositionRaw.h</text>
</a>
</g>
</g>
<!-- Node22&#45;&gt;Node23 -->
<g id="edge34" class="edge">
<title>Node22&#45;&gt;Node23</title>
<path fill="none" stroke="#191970" d="M758.8236,-280.4509C787.9598,-261.0268 854.3445,-216.7703 889.5658,-193.2895"/>
<polygon fill="#191970" stroke="#191970" points="891.8336,-195.9841 898.2127,-187.5249 887.9507,-190.1598 891.8336,-195.9841"/>
</g>
<!-- Node23&#45;&gt;Node1 -->
<g id="edge35" class="edge">
<title>Node23&#45;&gt;Node1</title>
<path fill="none" stroke="#191970" d="M836.4194,-168.4686C757.47,-158.5779 634.221,-143.1373 551.7144,-132.8009"/>
<polygon fill="#191970" stroke="#191970" points="551.9669,-129.3053 541.6093,-131.535 551.0967,-136.251 551.9669,-129.3053"/>
</g>
<!-- Node23&#45;&gt;Node13 -->
<g id="edge36" class="edge">
<title>Node23&#45;&gt;Node13</title>
<path fill="none" stroke="#191970" d="M906.3613,-168.4509C894.3526,-149.7707 867.5796,-108.1238 852.1204,-84.0761"/>
<polygon fill="#191970" stroke="#191970" points="854.9749,-82.044 846.6231,-75.5249 849.0866,-85.8294 854.9749,-82.044"/>
</g>
</g>
</svg>
