<?xml version="1.0" encoding="UTF-8" standalone="no"?>
<!DOCTYPE svg PUBLIC "-//W3C//DTD SVG 1.1//EN"
 "http://www.w3.org/Graphics/SVG/1.1/DTD/svg11.dtd">
<!-- Generated by graphviz version 2.40.1 (20161225.0304)
 -->
<!-- Title: InertialElement.h Pages: 1 -->
<svg width="1804pt" height="733pt"
 viewBox="0.00 0.00 1804.00 733.00" xmlns="http://www.w3.org/2000/svg" xmlns:xlink="http://www.w3.org/1999/xlink">
<g id="graph0" class="graph" transform="scale(1 1) rotate(0) translate(4 729)">
<title>InertialElement.h</title>
<!-- Node0 -->
<g id="node1" class="node">
<title>Node0</title>
<polygon fill="#bfbfbf" stroke="#000000" points="553.5,-705.5 553.5,-724.5 654.5,-724.5 654.5,-705.5 553.5,-705.5"/>
<text text-anchor="middle" x="604" y="-712.5" font-family="FreeSans.ttf" font-size="10.00" fill="#000000">InertialElement.h</text>
</g>
<!-- Node1 -->
<g id="node2" class="node">
<title>Node1</title>
<g id="a_node2"><a xlink:href="XMLElement_8h.html" target="_top" xlink:title="iDynTree/XMLElement.h">
<polygon fill="none" stroke="#000000" points="132,-593.5 132,-612.5 264,-612.5 264,-593.5 132,-593.5"/>
<text text-anchor="middle" x="198" y="-600.5" font-family="FreeSans.ttf" font-size="10.00" fill="#000000">iDynTree/XMLElement.h</text>
</a>
</g>
</g>
<!-- Node0&#45;&gt;Node1 -->
<g id="edge1" class="edge">
<title>Node0&#45;&gt;Node1</title>
<path fill="none" stroke="#191970" d="M569.3847,-705.4509C495.826,-685.1589 324.0265,-637.7659 242.4808,-615.2706"/>
<polygon fill="#191970" stroke="#191970" points="243.0984,-611.8103 232.5277,-612.5249 241.2369,-618.5582 243.0984,-611.8103"/>
</g>
<!-- Node7 -->
<g id="node8" class="node">
<title>Node7</title>
<g id="a_node8"><a xlink:href="Transform_8h.html" target="_top" xlink:title="iDynTree/Core/Transform.h">
<polygon fill="none" stroke="#000000" points="761,-347.5 761,-366.5 907,-366.5 907,-347.5 761,-347.5"/>
<text text-anchor="middle" x="834" y="-354.5" font-family="FreeSans.ttf" font-size="10.00" fill="#000000">iDynTree/Core/Transform.h</text>
</a>
</g>
</g>
<!-- Node0&#45;&gt;Node7 -->
<g id="edge7" class="edge">
<title>Node0&#45;&gt;Node7</title>
<path fill="none" stroke="#191970" d="M654.8431,-707.4032C742.7892,-692.8183 914,-657.4346 914,-603 914,-603 914,-603 914,-485.5 914,-439.4602 876.5325,-396.2534 852.8797,-373.5646"/>
<polygon fill="#191970" stroke="#191970" points="855.1733,-370.9182 845.462,-366.6823 850.4122,-376.0496 855.1733,-370.9182"/>
</g>
<!-- Node29 -->
<g id="node30" class="node">
<title>Node29</title>
<g id="a_node30"><a xlink:href="Model_8h.html" target="_top" xlink:title="iDynTree/Model/Model.h">
<polygon fill="none" stroke="#000000" points="537.5,-649.5 537.5,-668.5 670.5,-668.5 670.5,-649.5 537.5,-649.5"/>
<text text-anchor="middle" x="604" y="-656.5" font-family="FreeSans.ttf" font-size="10.00" fill="#000000">iDynTree/Model/Model.h</text>
</a>
</g>
</g>
<!-- Node0&#45;&gt;Node29 -->
<g id="edge46" class="edge">
<title>Node0&#45;&gt;Node29</title>
<path fill="none" stroke="#191970" d="M604,-705.2455C604,-697.9382 604,-687.6944 604,-678.7046"/>
<polygon fill="#191970" stroke="#191970" points="607.5001,-678.6426 604,-668.6427 600.5001,-678.6427 607.5001,-678.6426"/>
</g>
<!-- Node2 -->
<g id="node3" class="node">
<title>Node2</title>
<polygon fill="none" stroke="#bfbfbf" points="187.5,-537.5 187.5,-556.5 252.5,-556.5 252.5,-537.5 187.5,-537.5"/>
<text text-anchor="middle" x="220" y="-544.5" font-family="FreeSans.ttf" font-size="10.00" fill="#000000">functional</text>
</g>
<!-- Node1&#45;&gt;Node2 -->
<g id="edge2" class="edge">
<title>Node1&#45;&gt;Node2</title>
<path fill="none" stroke="#191970" d="M201.8321,-593.2455C204.7659,-585.7776 208.9047,-575.2427 212.491,-566.1137"/>
<polygon fill="#191970" stroke="#191970" points="215.8129,-567.23 216.2118,-556.6427 209.2976,-564.6704 215.8129,-567.23"/>
</g>
<!-- Node3 -->
<g id="node4" class="node">
<title>Node3</title>
<polygon fill="none" stroke="#bfbfbf" points="0,-537.5 0,-556.5 58,-556.5 58,-537.5 0,-537.5"/>
<text text-anchor="middle" x="29" y="-544.5" font-family="FreeSans.ttf" font-size="10.00" fill="#000000">memory</text>
</g>
<!-- Node1&#45;&gt;Node3 -->
<g id="edge3" class="edge">
<title>Node1&#45;&gt;Node3</title>
<path fill="none" stroke="#191970" d="M168.9479,-593.3733C140.8457,-584.0613 98.0946,-569.8953 67.2393,-559.671"/>
<polygon fill="#191970" stroke="#191970" points="68.2664,-556.3243 57.673,-556.5011 66.0645,-562.969 68.2664,-556.3243"/>
</g>
<!-- Node4 -->
<g id="node5" class="node">
<title>Node4</title>
<polygon fill="none" stroke="#bfbfbf" points="581,-56.5 581,-75.5 625,-75.5 625,-56.5 581,-56.5"/>
<text text-anchor="middle" x="603" y="-63.5" font-family="FreeSans.ttf" font-size="10.00" fill="#000000">string</text>
</g>
<!-- Node1&#45;&gt;Node4 -->
<g id="edge4" class="edge">
<title>Node1&#45;&gt;Node4</title>
<path fill="none" stroke="#191970" d="M217.2422,-593.4914C231.341,-585.5759 249.8853,-573.0242 261,-557 279.8066,-529.8863 281,-518.4976 281,-485.5 281,-485.5 281,-485.5 281,-178 281,-117.107 489.02,-81.7455 570.6651,-70.2117"/>
<polygon fill="#191970" stroke="#191970" points="571.4408,-73.6379 580.8676,-68.8021 570.4827,-66.7037 571.4408,-73.6379"/>
</g>
<!-- Node5 -->
<g id="node6" class="node">
<title>Node5</title>
<polygon fill="none" stroke="#bfbfbf" points="76.5,-537.5 76.5,-556.5 169.5,-556.5 169.5,-537.5 76.5,-537.5"/>
<text text-anchor="middle" x="123" y="-544.5" font-family="FreeSans.ttf" font-size="10.00" fill="#000000">unordered_map</text>
</g>
<!-- Node1&#45;&gt;Node5 -->
<g id="edge5" class="edge">
<title>Node1&#45;&gt;Node5</title>
<path fill="none" stroke="#191970" d="M184.936,-593.2455C173.6438,-584.814 157.1155,-572.4729 143.9729,-562.6598"/>
<polygon fill="#191970" stroke="#191970" points="146.0211,-559.8211 135.9143,-556.6427 141.8331,-565.4301 146.0211,-559.8211"/>
</g>
<!-- Node6 -->
<g id="node7" class="node">
<title>Node6</title>
<polygon fill="none" stroke="#bfbfbf" points="309.5,-537.5 309.5,-556.5 356.5,-556.5 356.5,-537.5 309.5,-537.5"/>
<text text-anchor="middle" x="333" y="-544.5" font-family="FreeSans.ttf" font-size="10.00" fill="#000000">vector</text>
</g>
<!-- Node1&#45;&gt;Node6 -->
<g id="edge6" class="edge">
<title>Node1&#45;&gt;Node6</title>
<path fill="none" stroke="#191970" d="M221.2073,-593.3733C243.1699,-584.2629 276.3332,-570.5062 300.8401,-560.3404"/>
<polygon fill="#191970" stroke="#191970" points="302.1997,-563.5657 310.0955,-556.5011 299.5176,-557.0999 302.1997,-563.5657"/>
</g>
<!-- Node7&#45;&gt;Node4 -->
<g id="edge45" class="edge">
<title>Node7&#45;&gt;Node4</title>
<path fill="none" stroke="#191970" d="M788.6832,-347.4961C707.5784,-329.1724 546,-286.1264 546,-234 546,-234 546,-234 546,-178 546,-141.1826 570.7675,-104.2377 587.6501,-83.3313"/>
<polygon fill="#191970" stroke="#191970" points="590.3511,-85.5574 594.0938,-75.6456 584.9869,-81.06 590.3511,-85.5574"/>
</g>
<!-- Node8 -->
<g id="node9" class="node">
<title>Node8</title>
<g id="a_node9"><a xlink:href="Position_8h.html" target="_top" xlink:title="iDynTree/Core/Position.h">
<polygon fill="none" stroke="#000000" points="766,-286 766,-305 902,-305 902,-286 766,-286"/>
<text text-anchor="middle" x="834" y="-293" font-family="FreeSans.ttf" font-size="10.00" fill="#000000">iDynTree/Core/Position.h</text>
</a>
</g>
</g>
<!-- Node7&#45;&gt;Node8 -->
<g id="edge8" class="edge">
<title>Node7&#45;&gt;Node8</title>
<path fill="none" stroke="#191970" d="M834,-347.3906C834,-338.8657 834,-326.1392 834,-315.4235"/>
<polygon fill="#191970" stroke="#191970" points="837.5001,-315.2448 834,-305.2449 830.5001,-315.2449 837.5001,-315.2448"/>
</g>
<!-- Node24 -->
<g id="node25" class="node">
<title>Node24</title>
<g id="a_node25"><a xlink:href="Rotation_8h.html" target="_top" xlink:title="iDynTree/Core/Rotation.h">
<polygon fill="none" stroke="#000000" points="862.5,-224.5 862.5,-243.5 999.5,-243.5 999.5,-224.5 862.5,-224.5"/>
<text text-anchor="middle" x="931" y="-231.5" font-family="FreeSans.ttf" font-size="10.00" fill="#000000">iDynTree/Core/Rotation.h</text>
</a>
</g>
</g>
<!-- Node7&#45;&gt;Node24 -->
<g id="edge43" class="edge">
<title>Node7&#45;&gt;Node24</title>
<path fill="none" stroke="#191970" d="M860.1519,-347.4876C877.0524,-340.0443 898.205,-328.0705 911,-311 923.5188,-294.298 928.2269,-270.4816 929.9835,-253.771"/>
<polygon fill="#191970" stroke="#191970" points="933.4954,-253.7551 930.7877,-243.5121 926.5168,-253.208 933.4954,-253.7551"/>
</g>
<!-- Node27 -->
<g id="node28" class="node">
<title>Node27</title>
<g id="a_node28"><a xlink:href="MatrixFixSize_8h.html" target="_top" xlink:title="iDynTree/Core/MatrixFixSize.h">
<polygon fill="none" stroke="#000000" points="862.5,-112.5 862.5,-131.5 1023.5,-131.5 1023.5,-112.5 862.5,-112.5"/>
<text text-anchor="middle" x="943" y="-119.5" font-family="FreeSans.ttf" font-size="10.00" fill="#000000">iDynTree/Core/MatrixFixSize.h</text>
</a>
</g>
</g>
<!-- Node7&#45;&gt;Node27 -->
<g id="edge44" class="edge">
<title>Node7&#45;&gt;Node27</title>
<path fill="none" stroke="#191970" d="M815.2296,-347.4928C762.6909,-319.6928 621.6489,-236.2082 679,-168 701.0001,-141.8351 784.7379,-130.5516 852.0831,-125.6864"/>
<polygon fill="#191970" stroke="#191970" points="852.5765,-129.1609 862.3143,-124.9867 852.0988,-122.1772 852.5765,-129.1609"/>
</g>
<!-- Node8&#45;&gt;Node4 -->
<g id="edge42" class="edge">
<title>Node8&#45;&gt;Node4</title>
<path fill="none" stroke="#191970" d="M811.507,-285.9847C775.3429,-269.8713 703.4297,-234.3889 655,-188 633.4574,-167.3652 629.7175,-159.4331 618,-132 611.6535,-117.1416 607.7973,-99.2043 605.5871,-85.7819"/>
<polygon fill="#191970" stroke="#191970" points="609.0265,-85.115 604.0991,-75.7357 602.1021,-86.1406 609.0265,-85.115"/>
</g>
<!-- Node9 -->
<g id="node10" class="node">
<title>Node9</title>
<g id="a_node10"><a xlink:href="PositionRaw_8h.html" target="_top" xlink:title="iDynTree/Core/PositionRaw.h">
<polygon fill="none" stroke="#000000" points="864,-168.5 864,-187.5 1020,-187.5 1020,-168.5 864,-168.5"/>
<text text-anchor="middle" x="942" y="-175.5" font-family="FreeSans.ttf" font-size="10.00" fill="#000000">iDynTree/Core/PositionRaw.h</text>
</a>
</g>
</g>
<!-- Node8&#45;&gt;Node9 -->
<g id="edge9" class="edge">
<title>Node8&#45;&gt;Node9</title>
<path fill="none" stroke="#191970" d="M834.1752,-285.5992C834.9334,-270.6744 838.3605,-242.2244 853,-224 864.8372,-209.2641 882.6624,-198.7497 899.2588,-191.5283"/>
<polygon fill="#191970" stroke="#191970" points="900.8794,-194.6482 908.8339,-187.6499 898.2514,-188.1602 900.8794,-194.6482"/>
</g>
<!-- Node8&#45;&gt;Node24 -->
<g id="edge28" class="edge">
<title>Node8&#45;&gt;Node24</title>
<path fill="none" stroke="#191970" d="M849.1563,-285.8906C864.6743,-276.0519 889.0193,-260.6167 907.1284,-249.1351"/>
<polygon fill="#191970" stroke="#191970" points="909.3787,-251.8526 915.9502,-243.5419 905.6304,-245.9407 909.3787,-251.8526"/>
</g>
<!-- Node9&#45;&gt;Node4 -->
<g id="edge27" class="edge">
<title>Node9&#45;&gt;Node4</title>
<path fill="none" stroke="#191970" d="M913.0971,-168.4509C850.023,-147.6123 700.442,-98.1932 634.8056,-76.508"/>
<polygon fill="#191970" stroke="#191970" points="635.6114,-73.0882 625.0182,-73.2744 633.4154,-79.7349 635.6114,-73.0882"/>
</g>
<!-- Node10 -->
<g id="node11" class="node">
<title>Node10</title>
<g id="a_node11"><a xlink:href="VectorFixSize_8h.html" target="_top" xlink:title="iDynTree/Core/VectorFixSize.h">
<polygon fill="none" stroke="#000000" points="1062.5,-112.5 1062.5,-131.5 1223.5,-131.5 1223.5,-112.5 1062.5,-112.5"/>
<text text-anchor="middle" x="1143" y="-119.5" font-family="FreeSans.ttf" font-size="10.00" fill="#000000">iDynTree/Core/VectorFixSize.h</text>
</a>
</g>
</g>
<!-- Node9&#45;&gt;Node10 -->
<g id="edge10" class="edge">
<title>Node9&#45;&gt;Node10</title>
<path fill="none" stroke="#191970" d="M976.5531,-168.3733C1010.4104,-158.9404 1062.146,-144.5265 1098.9426,-134.2747"/>
<polygon fill="#191970" stroke="#191970" points="1100.204,-137.5566 1108.8978,-131.5011 1098.3253,-130.8135 1100.204,-137.5566"/>
</g>
<!-- Node10&#45;&gt;Node4 -->
<g id="edge23" class="edge">
<title>Node10&#45;&gt;Node4</title>
<path fill="none" stroke="#191970" d="M1062.4483,-113.6465C941.4722,-101.1008 718.2091,-77.9476 635.1942,-69.3387"/>
<polygon fill="#191970" stroke="#191970" points="635.4144,-65.8428 625.1067,-68.2925 634.6923,-72.8055 635.4144,-65.8428"/>
</g>
<!-- Node11 -->
<g id="node12" class="node">
<title>Node11</title>
<g id="a_node12"><a xlink:href="Utils_8h.html" target="_top" xlink:title="iDynTree/Core/Utils.h">
<polygon fill="none" stroke="#000000" points="1241.5,-56.5 1241.5,-75.5 1360.5,-75.5 1360.5,-56.5 1241.5,-56.5"/>
<text text-anchor="middle" x="1301" y="-63.5" font-family="FreeSans.ttf" font-size="10.00" fill="#000000">iDynTree/Core/Utils.h</text>
</a>
</g>
</g>
<!-- Node10&#45;&gt;Node11 -->
<g id="edge11" class="edge">
<title>Node10&#45;&gt;Node11</title>
<path fill="none" stroke="#191970" d="M1170.1612,-112.3733C1196.2067,-103.1419 1235.7116,-89.1402 1264.4979,-78.9375"/>
<polygon fill="#191970" stroke="#191970" points="1265.937,-82.1408 1274.1933,-75.5011 1263.5985,-75.5429 1265.937,-82.1408"/>
</g>
<!-- Node13 -->
<g id="node14" class="node">
<title>Node13</title>
<g id="a_node14"><a xlink:href="Span_8h.html" target="_top" xlink:title="iDynTree/Core/Span.h">
<polygon fill="none" stroke="#000000" points="1102.5,-56.5 1102.5,-75.5 1223.5,-75.5 1223.5,-56.5 1102.5,-56.5"/>
<text text-anchor="middle" x="1163" y="-63.5" font-family="FreeSans.ttf" font-size="10.00" fill="#000000">iDynTree/Core/Span.h</text>
</a>
</g>
</g>
<!-- Node10&#45;&gt;Node13 -->
<g id="edge13" class="edge">
<title>Node10&#45;&gt;Node13</title>
<path fill="none" stroke="#191970" d="M1146.4837,-112.2455C1149.1508,-104.7776 1152.9133,-94.2427 1156.1737,-85.1137"/>
<polygon fill="#191970" stroke="#191970" points="1159.4889,-86.2373 1159.5562,-75.6427 1152.8967,-83.8829 1159.4889,-86.2373"/>
</g>
<!-- Node14 -->
<g id="node15" class="node">
<title>Node14</title>
<polygon fill="none" stroke="#bfbfbf" points="845,-.5 845,-19.5 897,-19.5 897,-.5 845,-.5"/>
<text text-anchor="middle" x="871" y="-7.5" font-family="FreeSans.ttf" font-size="10.00" fill="#000000">cassert</text>
</g>
<!-- Node10&#45;&gt;Node14 -->
<g id="edge25" class="edge">
<title>Node10&#45;&gt;Node14</title>
<path fill="none" stroke="#191970" d="M1133.0735,-112.3572C1117.6555,-97.9225 1086.4422,-70.8133 1055,-56 996.1382,-28.2685 973.8902,-36.5072 907.0736,-20.1321"/>
<polygon fill="#191970" stroke="#191970" points="907.8959,-16.7299 897.3412,-17.6519 906.1671,-23.5131 907.8959,-16.7299"/>
</g>
<!-- Node22 -->
<g id="node23" class="node">
<title>Node22</title>
<polygon fill="none" stroke="#bfbfbf" points="1379,-56.5 1379,-75.5 1435,-75.5 1435,-56.5 1379,-56.5"/>
<text text-anchor="middle" x="1407" y="-63.5" font-family="FreeSans.ttf" font-size="10.00" fill="#000000">sstream</text>
</g>
<!-- Node10&#45;&gt;Node22 -->
<g id="edge24" class="edge">
<title>Node10&#45;&gt;Node22</title>
<path fill="none" stroke="#191970" d="M1193.8917,-112.494C1239.8136,-103.714 1309.143,-89.9558 1369,-76 1369.0997,-75.9768 1369.1994,-75.9535 1369.2994,-75.9301"/>
<polygon fill="#191970" stroke="#191970" points="1369.9382,-79.377 1378.8225,-73.6046 1368.2776,-72.5768 1369.9382,-79.377"/>
</g>
<!-- Node23 -->
<g id="node24" class="node">
<title>Node23</title>
<polygon fill="none" stroke="#bfbfbf" points="918,-56.5 918,-75.5 968,-75.5 968,-56.5 918,-56.5"/>
<text text-anchor="middle" x="943" y="-63.5" font-family="FreeSans.ttf" font-size="10.00" fill="#000000">cstring</text>
</g>
<!-- Node10&#45;&gt;Node23 -->
<g id="edge26" class="edge">
<title>Node10&#45;&gt;Node23</title>
<path fill="none" stroke="#191970" d="M1107.9796,-112.4674C1076.3889,-103.8303 1028.4003,-90.6159 978.0077,-76.2599"/>
<polygon fill="#191970" stroke="#191970" points="978.8148,-72.8506 968.2382,-73.4709 976.8932,-79.5817 978.8148,-72.8506"/>
</g>
<!-- Node12 -->
<g id="node13" class="node">
<title>Node12</title>
<polygon fill="none" stroke="#bfbfbf" points="1425.5,-.5 1425.5,-19.5 1478.5,-19.5 1478.5,-.5 1425.5,-.5"/>
<text text-anchor="middle" x="1452" y="-7.5" font-family="FreeSans.ttf" font-size="10.00" fill="#000000">cstddef</text>
</g>
<!-- Node11&#45;&gt;Node12 -->
<g id="edge12" class="edge">
<title>Node11&#45;&gt;Node12</title>
<path fill="none" stroke="#191970" d="M1326.9578,-56.3733C1351.7407,-47.1822 1389.2746,-33.2624 1416.754,-23.0713"/>
<polygon fill="#191970" stroke="#191970" points="1418.2219,-26.26 1426.3809,-19.5011 1415.7879,-19.6968 1418.2219,-26.26"/>
</g>
<!-- Node13&#45;&gt;Node12 -->
<g id="edge17" class="edge">
<title>Node13&#45;&gt;Node12</title>
<path fill="none" stroke="#191970" d="M1223.6358,-56.5693C1272.775,-48.5636 1343.9812,-36.1446 1415.2746,-20.0015"/>
<polygon fill="#191970" stroke="#191970" points="1416.3659,-23.3423 1425.3327,-17.699 1414.8038,-16.5188 1416.3659,-23.3423"/>
</g>
<!-- Node13&#45;&gt;Node14 -->
<g id="edge14" class="edge">
<title>Node13&#45;&gt;Node14</title>
<path fill="none" stroke="#191970" d="M1102.413,-56.9303C1052.46,-49.0493 979.5834,-36.6292 907.4673,-20.1716"/>
<polygon fill="#191970" stroke="#191970" points="907.8302,-16.6633 897.299,-17.8226 906.2546,-23.4837 907.8302,-16.6633"/>
</g>
<!-- Node15 -->
<g id="node16" class="node">
<title>Node15</title>
<polygon fill="none" stroke="#bfbfbf" points="1066,-.5 1066,-19.5 1130,-19.5 1130,-.5 1066,-.5"/>
<text text-anchor="middle" x="1098" y="-7.5" font-family="FreeSans.ttf" font-size="10.00" fill="#000000">algorithm</text>
</g>
<!-- Node13&#45;&gt;Node15 -->
<g id="edge15" class="edge">
<title>Node13&#45;&gt;Node15</title>
<path fill="none" stroke="#191970" d="M1151.6779,-56.2455C1142.0777,-47.9746 1128.1108,-35.9416 1116.8305,-26.2232"/>
<polygon fill="#191970" stroke="#191970" points="1119.053,-23.5182 1109.1924,-19.6427 1114.484,-28.8214 1119.053,-23.5182"/>
</g>
<!-- Node16 -->
<g id="node17" class="node">
<title>Node16</title>
<polygon fill="none" stroke="#bfbfbf" points="1148,-.5 1148,-19.5 1190,-19.5 1190,-.5 1148,-.5"/>
<text text-anchor="middle" x="1169" y="-7.5" font-family="FreeSans.ttf" font-size="10.00" fill="#000000">array</text>
</g>
<!-- Node13&#45;&gt;Node16 -->
<g id="edge16" class="edge">
<title>Node13&#45;&gt;Node16</title>
<path fill="none" stroke="#191970" d="M1164.0451,-56.2455C1164.828,-48.9382 1165.9256,-38.6944 1166.8888,-29.7046"/>
<polygon fill="#191970" stroke="#191970" points="1170.3815,-29.9587 1167.9669,-19.6427 1163.4214,-29.2129 1170.3815,-29.9587"/>
</g>
<!-- Node17 -->
<g id="node18" class="node">
<title>Node17</title>
<polygon fill="none" stroke="#bfbfbf" points="1208.5,-.5 1208.5,-19.5 1261.5,-19.5 1261.5,-.5 1208.5,-.5"/>
<text text-anchor="middle" x="1235" y="-7.5" font-family="FreeSans.ttf" font-size="10.00" fill="#000000">iterator</text>
</g>
<!-- Node13&#45;&gt;Node17 -->
<g id="edge18" class="edge">
<title>Node13&#45;&gt;Node17</title>
<path fill="none" stroke="#191970" d="M1175.5414,-56.2455C1186.2787,-47.8943 1201.9473,-35.7076 1214.5047,-25.9408"/>
<polygon fill="#191970" stroke="#191970" points="1216.8575,-28.5449 1222.6023,-19.6427 1212.5599,-23.0194 1216.8575,-28.5449"/>
</g>
<!-- Node18 -->
<g id="node19" class="node">
<title>Node18</title>
<polygon fill="none" stroke="#bfbfbf" points="1280,-.5 1280,-19.5 1324,-19.5 1324,-.5 1280,-.5"/>
<text text-anchor="middle" x="1302" y="-7.5" font-family="FreeSans.ttf" font-size="10.00" fill="#000000">limits</text>
</g>
<!-- Node13&#45;&gt;Node18 -->
<g id="edge19" class="edge">
<title>Node13&#45;&gt;Node18</title>
<path fill="none" stroke="#191970" d="M1186.895,-56.3733C1209.9194,-47.0972 1244.8996,-33.0045 1270.2546,-22.7895"/>
<polygon fill="#191970" stroke="#191970" points="1271.8249,-25.9303 1279.7925,-18.9469 1269.209,-19.4374 1271.8249,-25.9303"/>
</g>
<!-- Node19 -->
<g id="node20" class="node">
<title>Node19</title>
<polygon fill="none" stroke="#bfbfbf" points="1342.5,-.5 1342.5,-19.5 1407.5,-19.5 1407.5,-.5 1342.5,-.5"/>
<text text-anchor="middle" x="1375" y="-7.5" font-family="FreeSans.ttf" font-size="10.00" fill="#000000">stdexcept</text>
</g>
<!-- Node13&#45;&gt;Node19 -->
<g id="edge20" class="edge">
<title>Node13&#45;&gt;Node19</title>
<path fill="none" stroke="#191970" d="M1199.4441,-56.3733C1236.285,-46.6417 1293.1955,-31.6087 1332.1696,-21.3137"/>
<polygon fill="#191970" stroke="#191970" points="1333.3866,-24.6123 1342.1611,-18.6744 1331.5989,-17.8445 1333.3866,-24.6123"/>
</g>
<!-- Node20 -->
<g id="node21" class="node">
<title>Node20</title>
<polygon fill="none" stroke="#bfbfbf" points="915.5,-.5 915.5,-19.5 984.5,-19.5 984.5,-.5 915.5,-.5"/>
<text text-anchor="middle" x="950" y="-7.5" font-family="FreeSans.ttf" font-size="10.00" fill="#000000">type_traits</text>
</g>
<!-- Node13&#45;&gt;Node20 -->
<g id="edge21" class="edge">
<title>Node13&#45;&gt;Node20</title>
<path fill="none" stroke="#191970" d="M1126.384,-56.3733C1089.8377,-46.7648 1033.6341,-31.9883 994.5274,-21.7067"/>
<polygon fill="#191970" stroke="#191970" points="995.2891,-18.2881 984.7278,-19.1303 993.5091,-25.058 995.2891,-18.2881"/>
</g>
<!-- Node21 -->
<g id="node22" class="node">
<title>Node21</title>
<polygon fill="none" stroke="#bfbfbf" points="1002.5,-.5 1002.5,-19.5 1047.5,-19.5 1047.5,-.5 1002.5,-.5"/>
<text text-anchor="middle" x="1025" y="-7.5" font-family="FreeSans.ttf" font-size="10.00" fill="#000000">utility</text>
</g>
<!-- Node13&#45;&gt;Node21 -->
<g id="edge22" class="edge">
<title>Node13&#45;&gt;Node21</title>
<path fill="none" stroke="#191970" d="M1139.277,-56.3733C1116.6903,-47.2077 1082.5148,-33.3393 1057.42,-23.156"/>
<polygon fill="#191970" stroke="#191970" points="1058.5371,-19.8321 1047.9549,-19.315 1055.905,-26.3184 1058.5371,-19.8321"/>
</g>
<!-- Node24&#45;&gt;Node4 -->
<g id="edge29" class="edge">
<title>Node24&#45;&gt;Node4</title>
<path fill="none" stroke="#191970" d="M862.4716,-227.7542C798.3679,-220.8095 708.2381,-207.8791 679,-188 641.8356,-162.7317 619.3485,-112.6377 609.2806,-85.1526"/>
<polygon fill="#191970" stroke="#191970" points="612.5176,-83.8052 605.9225,-75.5133 605.9072,-86.1081 612.5176,-83.8052"/>
</g>
<!-- Node24&#45;&gt;Node10 -->
<g id="edge41" class="edge">
<title>Node24&#45;&gt;Node10</title>
<path fill="none" stroke="#191970" d="M952.6711,-224.4734C972.7039,-215.5155 1003.1845,-201.4998 1029,-188 1060.5265,-171.5137 1095.8344,-150.692 1118.6859,-136.8919"/>
<polygon fill="#191970" stroke="#191970" points="1120.6454,-139.797 1127.3794,-131.6175 1117.0144,-133.8123 1120.6454,-139.797"/>
</g>
<!-- Node25 -->
<g id="node26" class="node">
<title>Node25</title>
<g id="a_node26"><a xlink:href="GeomVector3_8h.html" target="_top" xlink:title="iDynTree/Core/GeomVector3.h">
<polygon fill="none" stroke="#000000" points="1190.5,-168.5 1190.5,-187.5 1353.5,-187.5 1353.5,-168.5 1190.5,-168.5"/>
<text text-anchor="middle" x="1272" y="-175.5" font-family="FreeSans.ttf" font-size="10.00" fill="#000000">iDynTree/Core/GeomVector3.h</text>
</a>
</g>
</g>
<!-- Node24&#45;&gt;Node25 -->
<g id="edge30" class="edge">
<title>Node24&#45;&gt;Node25</title>
<path fill="none" stroke="#191970" d="M989.2325,-224.4369C1048.6955,-214.6717 1140.9541,-199.5207 1203.7965,-189.2006"/>
<polygon fill="#191970" stroke="#191970" points="1204.707,-192.598 1214.0076,-187.5237 1203.5726,-185.6905 1204.707,-192.598"/>
</g>
<!-- Node26 -->
<g id="node27" class="node">
<title>Node26</title>
<g id="a_node27"><a xlink:href="RotationRaw_8h.html" target="_top" xlink:title="iDynTree/Core/RotationRaw.h">
<polygon fill="none" stroke="#000000" points="688,-168.5 688,-187.5 846,-187.5 846,-168.5 688,-168.5"/>
<text text-anchor="middle" x="767" y="-175.5" font-family="FreeSans.ttf" font-size="10.00" fill="#000000">iDynTree/Core/RotationRaw.h</text>
</a>
</g>
</g>
<!-- Node24&#45;&gt;Node26 -->
<g id="edge32" class="edge">
<title>Node24&#45;&gt;Node26</title>
<path fill="none" stroke="#191970" d="M902.8074,-224.3733C875.6547,-215.1016 834.4093,-201.0178 804.4975,-190.804"/>
<polygon fill="#191970" stroke="#191970" points="805.4192,-187.4204 794.8247,-187.5011 803.1572,-194.0449 805.4192,-187.4204"/>
</g>
<!-- Node25&#45;&gt;Node10 -->
<g id="edge31" class="edge">
<title>Node25&#45;&gt;Node10</title>
<path fill="none" stroke="#191970" d="M1249.8241,-168.3733C1229.0234,-159.3435 1197.7083,-145.7494 1174.3542,-135.6111"/>
<polygon fill="#191970" stroke="#191970" points="1175.4532,-132.2727 1164.8865,-131.5011 1172.6657,-138.6938 1175.4532,-132.2727"/>
</g>
<!-- Node26&#45;&gt;Node4 -->
<g id="edge40" class="edge">
<title>Node26&#45;&gt;Node4</title>
<path fill="none" stroke="#191970" d="M753.0175,-168.4509C724.5749,-149.0268 659.7708,-104.7703 625.3882,-81.2895"/>
<polygon fill="#191970" stroke="#191970" points="627.1791,-78.2742 616.9472,-75.5249 623.2313,-84.0549 627.1791,-78.2742"/>
</g>
<!-- Node26&#45;&gt;Node27 -->
<g id="edge33" class="edge">
<title>Node26&#45;&gt;Node27</title>
<path fill="none" stroke="#191970" d="M797.2555,-168.3733C826.6483,-159.021 871.4292,-144.7725 903.5934,-134.5385"/>
<polygon fill="#191970" stroke="#191970" points="904.6713,-137.8685 913.1393,-131.5011 902.5488,-131.198 904.6713,-137.8685"/>
</g>
<!-- Node27&#45;&gt;Node4 -->
<g id="edge37" class="edge">
<title>Node27&#45;&gt;Node4</title>
<path fill="none" stroke="#191970" d="M884.9382,-112.4369C812.8036,-100.5559 692.2645,-80.7024 635.0367,-71.2766"/>
<polygon fill="#191970" stroke="#191970" points="635.5497,-67.814 625.1138,-69.6423 634.412,-74.721 635.5497,-67.814"/>
</g>
<!-- Node27&#45;&gt;Node11 -->
<g id="edge34" class="edge">
<title>Node27&#45;&gt;Node11</title>
<path fill="none" stroke="#191970" d="M1004.1356,-112.4369C1067.2003,-102.572 1165.4023,-87.2108 1231.4073,-76.886"/>
<polygon fill="#191970" stroke="#191970" points="1231.9698,-80.3407 1241.3087,-75.3372 1230.8879,-73.4248 1231.9698,-80.3407"/>
</g>
<!-- Node27&#45;&gt;Node14 -->
<g id="edge35" class="edge">
<title>Node27&#45;&gt;Node14</title>
<path fill="none" stroke="#191970" d="M935.3723,-112.3606C928.2528,-103.209 917.483,-88.9631 909,-76 898.8461,-60.4834 888.4125,-42.1591 881.0533,-28.7606"/>
<polygon fill="#191970" stroke="#191970" points="883.9283,-26.7207 876.0804,-19.603 877.7768,-30.0612 883.9283,-26.7207"/>
</g>
<!-- Node27&#45;&gt;Node22 -->
<g id="edge39" class="edge">
<title>Node27&#45;&gt;Node22</title>
<path fill="none" stroke="#191970" d="M1023.6899,-113.9461C1137.7493,-102.4605 1335.9894,-82.0903 1369,-76 1369.1006,-75.9814 1369.2014,-75.9627 1369.3023,-75.9439"/>
<polygon fill="#191970" stroke="#191970" points="1369.8341,-79.4093 1378.8842,-73.9006 1368.3741,-72.5632 1369.8341,-79.4093"/>
</g>
<!-- Node27&#45;&gt;Node23 -->
<g id="edge36" class="edge">
<title>Node27&#45;&gt;Node23</title>
<path fill="none" stroke="#191970" d="M943,-112.2455C943,-104.9382 943,-94.6944 943,-85.7046"/>
<polygon fill="#191970" stroke="#191970" points="946.5001,-85.6426 943,-75.6427 939.5001,-85.6427 946.5001,-85.6426"/>
</g>
<!-- Node28 -->
<g id="node29" class="node">
<title>Node28</title>
<polygon fill="none" stroke="#bfbfbf" points="986,-56.5 986,-75.5 1046,-75.5 1046,-56.5 986,-56.5"/>
<text text-anchor="middle" x="1016" y="-63.5" font-family="FreeSans.ttf" font-size="10.00" fill="#000000">iostream</text>
</g>
<!-- Node27&#45;&gt;Node28 -->
<g id="edge38" class="edge">
<title>Node27&#45;&gt;Node28</title>
<path fill="none" stroke="#191970" d="M955.7156,-112.2455C966.602,-103.8943 982.4883,-91.7076 995.22,-81.9408"/>
<polygon fill="#191970" stroke="#191970" points="997.6261,-84.5063 1003.4301,-75.6427 993.3654,-78.9523 997.6261,-84.5063"/>
</g>
<!-- Node29&#45;&gt;Node6 -->
<g id="edge85" class="edge">
<title>Node29&#45;&gt;Node6</title>
<path fill="none" stroke="#191970" d="M537.2007,-653.0698C455.3114,-645.1122 325.5374,-629.9978 311,-613 299.2981,-599.3176 308.6826,-579.1921 318.5648,-564.7658"/>
<polygon fill="#191970" stroke="#191970" points="321.4538,-566.7459 324.5982,-556.6284 315.8307,-562.5767 321.4538,-566.7459"/>
</g>
<!-- Node29&#45;&gt;Node7 -->
<g id="edge77" class="edge">
<title>Node29&#45;&gt;Node7</title>
<path fill="none" stroke="#191970" d="M670.738,-654.7332C736.2793,-649.1954 830.22,-637.2166 857,-613 879.6405,-592.5266 876,-577.5246 876,-547 876,-547 876,-547 876,-485.5 876,-444.6559 856.5918,-399.962 844.162,-375.5263"/>
<polygon fill="#191970" stroke="#191970" points="847.2428,-373.8649 839.4908,-366.6429 841.0472,-377.1228 847.2428,-373.8649"/>
</g>
<!-- Node30 -->
<g id="node31" class="node">
<title>Node30</title>
<g id="a_node31"><a xlink:href="IJoint_8h.html" target="_top" xlink:title="iDynTree/Model/IJoint.h">
<polygon fill="none" stroke="#000000" points="540,-593.5 540,-612.5 668,-612.5 668,-593.5 540,-593.5"/>
<text text-anchor="middle" x="604" y="-600.5" font-family="FreeSans.ttf" font-size="10.00" fill="#000000">iDynTree/Model/IJoint.h</text>
</a>
</g>
</g>
<!-- Node29&#45;&gt;Node30 -->
<g id="edge47" class="edge">
<title>Node29&#45;&gt;Node30</title>
<path fill="none" stroke="#191970" d="M604,-649.2455C604,-641.9382 604,-631.6944 604,-622.7046"/>
<polygon fill="#191970" stroke="#191970" points="607.5001,-622.6426 604,-612.6427 600.5001,-622.6427 607.5001,-622.6426"/>
</g>
<!-- Node31 -->
<g id="node32" class="node">
<title>Node31</title>
<g id="a_node32"><a xlink:href="Indices_8h.html" target="_top" xlink:title="iDynTree/Model/Indices.h">
<polygon fill="none" stroke="#000000" points="590,-537.5 590,-556.5 728,-556.5 728,-537.5 590,-537.5"/>
<text text-anchor="middle" x="659" y="-544.5" font-family="FreeSans.ttf" font-size="10.00" fill="#000000">iDynTree/Model/Indices.h</text>
</a>
</g>
</g>
<!-- Node29&#45;&gt;Node31 -->
<g id="edge78" class="edge">
<title>Node29&#45;&gt;Node31</title>
<path fill="none" stroke="#191970" d="M631.6959,-649.4275C648.0463,-642.1781 667.3739,-630.4435 677,-613 685.127,-598.273 678.7529,-579.641 671.4351,-565.9319"/>
<polygon fill="#191970" stroke="#191970" points="674.2294,-563.7802 666.1336,-556.9459 668.2004,-567.3372 674.2294,-563.7802"/>
</g>
<!-- Node32 -->
<g id="node33" class="node">
<title>Node32</title>
<g id="a_node33"><a xlink:href="Link_8h.html" target="_top" xlink:title="iDynTree/Model/Link.h">
<polygon fill="none" stroke="#000000" points="724,-593.5 724,-612.5 848,-612.5 848,-593.5 724,-593.5"/>
<text text-anchor="middle" x="786" y="-600.5" font-family="FreeSans.ttf" font-size="10.00" fill="#000000">iDynTree/Model/Link.h</text>
</a>
</g>
</g>
<!-- Node29&#45;&gt;Node32 -->
<g id="edge50" class="edge">
<title>Node29&#45;&gt;Node32</title>
<path fill="none" stroke="#191970" d="M635.2869,-649.3733C665.6818,-640.021 711.9893,-625.7725 745.25,-615.5385"/>
<polygon fill="#191970" stroke="#191970" points="746.5929,-618.7873 755.1214,-612.5011 744.5342,-612.0968 746.5929,-618.7873"/>
</g>
<!-- Node43 -->
<g id="node44" class="node">
<title>Node43</title>
<g id="a_node44"><a xlink:href="SolidShapes_8h.html" target="_top" xlink:title="iDynTree/Model/SolidShapes.h">
<polygon fill="none" stroke="#000000" points="320.5,-593.5 320.5,-612.5 483.5,-612.5 483.5,-593.5 320.5,-593.5"/>
<text text-anchor="middle" x="402" y="-600.5" font-family="FreeSans.ttf" font-size="10.00" fill="#000000">iDynTree/Model/SolidShapes.h</text>
</a>
</g>
</g>
<!-- Node29&#45;&gt;Node43 -->
<g id="edge79" class="edge">
<title>Node29&#45;&gt;Node43</title>
<path fill="none" stroke="#191970" d="M569.275,-649.3733C535.2492,-639.9404 483.2563,-625.5265 446.2766,-615.2747"/>
<polygon fill="#191970" stroke="#191970" points="446.8435,-611.7999 436.2719,-612.5011 444.9734,-618.5455 446.8435,-611.7999"/>
</g>
<!-- Node44 -->
<g id="node45" class="node">
<title>Node44</title>
<polygon fill="none" stroke="#bfbfbf" points="484.5,-537.5 484.5,-556.5 533.5,-556.5 533.5,-537.5 484.5,-537.5"/>
<text text-anchor="middle" x="509" y="-544.5" font-family="FreeSans.ttf" font-size="10.00" fill="#000000">cstdlib</text>
</g>
<!-- Node29&#45;&gt;Node44 -->
<g id="edge84" class="edge">
<title>Node29&#45;&gt;Node44</title>
<path fill="none" stroke="#191970" d="M580.5903,-649.3892C564.5619,-641.7118 543.9431,-629.5014 531,-613 520.5304,-599.652 514.9267,-581.0839 512.0011,-567.0415"/>
<polygon fill="#191970" stroke="#191970" points="515.399,-566.1606 510.1872,-556.9363 508.5091,-567.3974 515.399,-566.1606"/>
</g>
<!-- Node30&#45;&gt;Node31 -->
<g id="edge48" class="edge">
<title>Node30&#45;&gt;Node31</title>
<path fill="none" stroke="#191970" d="M613.5803,-593.2455C621.5458,-585.1352 633.0641,-573.4075 642.5079,-563.7919"/>
<polygon fill="#191970" stroke="#191970" points="645.0195,-566.2297 649.5295,-556.6427 640.0253,-561.3247 645.0195,-566.2297"/>
</g>
<!-- Node31&#45;&gt;Node4 -->
<g id="edge49" class="edge">
<title>Node31&#45;&gt;Node4</title>
<path fill="none" stroke="#191970" d="M630.2426,-537.3903C586.4314,-520.721 508,-482.0102 508,-418.5 508,-418.5 508,-418.5 508,-178 508,-134.9765 549.2735,-100.0102 577.4109,-81.1715"/>
<polygon fill="#191970" stroke="#191970" points="579.5021,-83.9879 586.0159,-75.632 575.713,-78.102 579.5021,-83.9879"/>
</g>
<!-- Node32&#45;&gt;Node31 -->
<g id="edge76" class="edge">
<title>Node32&#45;&gt;Node31</title>
<path fill="none" stroke="#191970" d="M764.1679,-593.3733C743.6897,-584.3435 712.8601,-570.7494 689.8681,-560.6111"/>
<polygon fill="#191970" stroke="#191970" points="691.1093,-557.3333 680.5472,-556.5011 688.285,-563.7383 691.1093,-557.3333"/>
</g>
<!-- Node33 -->
<g id="node34" class="node">
<title>Node33</title>
<g id="a_node34"><a xlink:href="SpatialInertia_8h.html" target="_top" xlink:title="iDynTree/Core/SpatialInertia.h">
<polygon fill="none" stroke="#000000" points="1164,-537.5 1164,-556.5 1326,-556.5 1326,-537.5 1164,-537.5"/>
<text text-anchor="middle" x="1245" y="-544.5" font-family="FreeSans.ttf" font-size="10.00" fill="#000000">iDynTree/Core/SpatialInertia.h</text>
</a>
</g>
</g>
<!-- Node32&#45;&gt;Node33 -->
<g id="edge51" class="edge">
<title>Node32&#45;&gt;Node33</title>
<path fill="none" stroke="#191970" d="M848.3805,-595.3893C928.1178,-585.661 1066.6402,-568.7607 1157.0594,-557.7291"/>
<polygon fill="#191970" stroke="#191970" points="1157.5172,-561.1993 1167.0196,-556.5139 1156.6693,-554.2509 1157.5172,-561.1993"/>
</g>
<!-- Node33&#45;&gt;Node10 -->
<g id="edge55" class="edge">
<title>Node33&#45;&gt;Node10</title>
<path fill="none" stroke="#191970" d="M1202.7675,-537.4482C1181.8957,-530.6334 1158.026,-519.3272 1143,-501 1119.144,-471.9028 1124,-456.1265 1124,-418.5 1124,-418.5 1124,-418.5 1124,-234 1124,-201.2688 1131.9852,-163.9052 1137.6022,-141.6716"/>
<polygon fill="#191970" stroke="#191970" points="1141.0415,-142.3545 1140.1965,-131.7934 1134.2711,-140.5763 1141.0415,-142.3545"/>
</g>
<!-- Node34 -->
<g id="node35" class="node">
<title>Node34</title>
<g id="a_node35"><a xlink:href="SpatialInertiaRaw_8h.html" target="_top" xlink:title="iDynTree/Core/SpatialInertia\lRaw.h">
<polygon fill="none" stroke="#000000" points="942.5,-470.5 942.5,-500.5 1095.5,-500.5 1095.5,-470.5 942.5,-470.5"/>
<text text-anchor="start" x="950.5" y="-488.5" font-family="FreeSans.ttf" font-size="10.00" fill="#000000">iDynTree/Core/SpatialInertia</text>
<text text-anchor="middle" x="1019" y="-477.5" font-family="FreeSans.ttf" font-size="10.00" fill="#000000">Raw.h</text>
</a>
</g>
</g>
<!-- Node33&#45;&gt;Node34 -->
<g id="edge52" class="edge">
<title>Node33&#45;&gt;Node34</title>
<path fill="none" stroke="#191970" d="M1209.6875,-537.3906C1176.1983,-528.2774 1125.0646,-514.3627 1084.1755,-503.2358"/>
<polygon fill="#191970" stroke="#191970" points="1084.854,-499.7932 1074.2858,-500.5446 1083.0159,-506.5476 1084.854,-499.7932"/>
</g>
<!-- Node36 -->
<g id="node37" class="node">
<title>Node36</title>
<g id="a_node37"><a xlink:href="Twist_8h.html" target="_top" xlink:title="iDynTree/Core/Twist.h">
<polygon fill="none" stroke="#000000" points="1508,-476 1508,-495 1630,-495 1630,-476 1508,-476"/>
<text text-anchor="middle" x="1569" y="-483" font-family="FreeSans.ttf" font-size="10.00" fill="#000000">iDynTree/Core/Twist.h</text>
</a>
</g>
</g>
<!-- Node33&#45;&gt;Node36 -->
<g id="edge56" class="edge">
<title>Node33&#45;&gt;Node36</title>
<path fill="none" stroke="#191970" d="M1301.1126,-537.4808C1352.6599,-528.5836 1431.1216,-514.6562 1499,-501 1504.863,-499.8204 1510.9909,-498.5377 1517.0779,-497.232"/>
<polygon fill="#191970" stroke="#191970" points="1518.1998,-500.57 1527.2291,-495.0271 1516.714,-493.7295 1518.1998,-500.57"/>
</g>
<!-- Node39 -->
<g id="node40" class="node">
<title>Node39</title>
<g id="a_node40"><a xlink:href="SpatialMomentum_8h.html" target="_top" xlink:title="iDynTree/Core/SpatialMomentum.h">
<polygon fill="none" stroke="#000000" points="1152,-476 1152,-495 1338,-495 1338,-476 1152,-476"/>
<text text-anchor="middle" x="1245" y="-483" font-family="FreeSans.ttf" font-size="10.00" fill="#000000">iDynTree/Core/SpatialMomentum.h</text>
</a>
</g>
</g>
<!-- Node33&#45;&gt;Node39 -->
<g id="edge67" class="edge">
<title>Node33&#45;&gt;Node39</title>
<path fill="none" stroke="#191970" d="M1245,-537.3906C1245,-528.8657 1245,-516.1392 1245,-505.4235"/>
<polygon fill="#191970" stroke="#191970" points="1248.5001,-505.2448 1245,-495.2449 1241.5001,-505.2449 1248.5001,-505.2448"/>
</g>
<!-- Node41 -->
<g id="node42" class="node">
<title>Node41</title>
<g id="a_node42"><a xlink:href="SpatialAcc_8h.html" target="_top" xlink:title="iDynTree/Core/SpatialAcc.h">
<polygon fill="none" stroke="#000000" points="1648,-476 1648,-495 1796,-495 1796,-476 1648,-476"/>
<text text-anchor="middle" x="1722" y="-483" font-family="FreeSans.ttf" font-size="10.00" fill="#000000">iDynTree/Core/SpatialAcc.h</text>
</a>
</g>
</g>
<!-- Node33&#45;&gt;Node41 -->
<g id="edge72" class="edge">
<title>Node33&#45;&gt;Node41</title>
<path fill="none" stroke="#191970" d="M1326.3349,-539.145C1406.1549,-531.0499 1531.248,-517.3317 1639,-501 1647.037,-499.7819 1655.4866,-498.3642 1663.793,-496.8905"/>
<polygon fill="#191970" stroke="#191970" points="1664.6006,-500.3013 1673.8166,-495.0749 1663.3529,-493.4134 1664.6006,-500.3013"/>
</g>
<!-- Node42 -->
<g id="node43" class="node">
<title>Node42</title>
<g id="a_node43"><a xlink:href="Wrench_8h.html" target="_top" xlink:title="iDynTree/Core/Wrench.h">
<polygon fill="none" stroke="#000000" points="1356.5,-476 1356.5,-495 1489.5,-495 1489.5,-476 1356.5,-476"/>
<text text-anchor="middle" x="1423" y="-483" font-family="FreeSans.ttf" font-size="10.00" fill="#000000">iDynTree/Core/Wrench.h</text>
</a>
</g>
</g>
<!-- Node33&#45;&gt;Node42 -->
<g id="edge74" class="edge">
<title>Node33&#45;&gt;Node42</title>
<path fill="none" stroke="#191970" d="M1272.8125,-537.3906C1303.2483,-526.8749 1352.1877,-509.966 1385.8826,-498.3243"/>
<polygon fill="#191970" stroke="#191970" points="1387.074,-501.6157 1395.3828,-495.0419 1384.788,-494.9995 1387.074,-501.6157"/>
</g>
<!-- Node35 -->
<g id="node36" class="node">
<title>Node35</title>
<g id="a_node36"><a xlink:href="RotationalInertiaRaw_8h.html" target="_top" xlink:title="iDynTree/Core/Rotational\lInertiaRaw.h">
<polygon fill="none" stroke="#000000" points="958.5,-280.5 958.5,-310.5 1095.5,-310.5 1095.5,-280.5 958.5,-280.5"/>
<text text-anchor="start" x="966.5" y="-298.5" font-family="FreeSans.ttf" font-size="10.00" fill="#000000">iDynTree/Core/Rotational</text>
<text text-anchor="middle" x="1027" y="-287.5" font-family="FreeSans.ttf" font-size="10.00" fill="#000000">InertiaRaw.h</text>
</a>
</g>
</g>
<!-- Node34&#45;&gt;Node35 -->
<g id="edge53" class="edge">
<title>Node34&#45;&gt;Node35</title>
<path fill="none" stroke="#191970" d="M1019.6412,-470.2727C1021.0167,-437.6039 1024.2624,-360.5184 1025.9459,-320.5352"/>
<polygon fill="#191970" stroke="#191970" points="1029.443,-320.6745 1026.3669,-310.5361 1022.4492,-320.38 1029.443,-320.6745"/>
</g>
<!-- Node35&#45;&gt;Node27 -->
<g id="edge54" class="edge">
<title>Node35&#45;&gt;Node27</title>
<path fill="none" stroke="#191970" d="M1031.9949,-280.445C1039.4029,-255.175 1050.2778,-203.5116 1029,-168 1019.9913,-152.9649 1004.2066,-142.5677 988.5987,-135.5159"/>
<polygon fill="#191970" stroke="#191970" points="989.5449,-132.1203 978.9657,-131.546 986.8777,-138.5923 989.5449,-132.1203"/>
</g>
<!-- Node37 -->
<g id="node38" class="node">
<title>Node37</title>
<g id="a_node38"><a xlink:href="SpatialMotionVector_8h.html" target="_top" xlink:title="iDynTree/Core/SpatialMotion\lVector.h">
<polygon fill="none" stroke="#000000" points="1455.5,-403.5 1455.5,-433.5 1610.5,-433.5 1610.5,-403.5 1455.5,-403.5"/>
<text text-anchor="start" x="1463.5" y="-421.5" font-family="FreeSans.ttf" font-size="10.00" fill="#000000">iDynTree/Core/SpatialMotion</text>
<text text-anchor="middle" x="1533" y="-410.5" font-family="FreeSans.ttf" font-size="10.00" fill="#000000">Vector.h</text>
</a>
</g>
</g>
<!-- Node36&#45;&gt;Node37 -->
<g id="edge57" class="edge">
<title>Node36&#45;&gt;Node37</title>
<path fill="none" stroke="#191970" d="M1563.8421,-475.9005C1559.1942,-467.2503 1552.1627,-454.164 1545.9868,-442.6699"/>
<polygon fill="#191970" stroke="#191970" points="1548.8877,-440.6741 1541.0714,-433.5218 1542.7215,-443.9873 1548.8877,-440.6741"/>
</g>
<!-- Node37&#45;&gt;Node10 -->
<g id="edge58" class="edge">
<title>Node37&#45;&gt;Node10</title>
<path fill="none" stroke="#191970" d="M1527.5515,-403.2525C1510.7624,-358.6703 1455.2451,-227.9268 1362,-168 1339.4326,-153.4964 1277.4824,-141.2544 1225.2071,-133.0546"/>
<polygon fill="#191970" stroke="#191970" points="1225.6494,-129.5816 1215.2334,-131.5201 1224.5849,-136.5002 1225.6494,-129.5816"/>
</g>
<!-- Node37&#45;&gt;Node25 -->
<g id="edge59" class="edge">
<title>Node37&#45;&gt;Node25</title>
<path fill="none" stroke="#191970" d="M1521.0386,-403.3985C1508.9875,-388.508 1489.5673,-365.377 1471,-347 1409.8606,-286.4871 1330.0025,-222.8146 1292.7819,-193.9249"/>
<polygon fill="#191970" stroke="#191970" points="1294.7367,-191.0122 1284.6839,-187.6669 1290.4564,-196.5511 1294.7367,-191.0122"/>
</g>
<!-- Node38 -->
<g id="node39" class="node">
<title>Node38</title>
<g id="a_node39"><a xlink:href="SpatialVector_8h.html" target="_top" xlink:title="iDynTree/Core/SpatialVector.h">
<polygon fill="none" stroke="#000000" points="1300.5,-347.5 1300.5,-366.5 1461.5,-366.5 1461.5,-347.5 1300.5,-347.5"/>
<text text-anchor="middle" x="1381" y="-354.5" font-family="FreeSans.ttf" font-size="10.00" fill="#000000">iDynTree/Core/SpatialVector.h</text>
</a>
</g>
</g>
<!-- Node37&#45;&gt;Node38 -->
<g id="edge60" class="edge">
<title>Node37&#45;&gt;Node38</title>
<path fill="none" stroke="#191970" d="M1495.8166,-403.4554C1470.7887,-393.329 1438.0837,-380.0964 1413.9834,-370.3453"/>
<polygon fill="#191970" stroke="#191970" points="1415.1373,-367.0366 1404.5546,-366.5303 1412.5118,-373.5256 1415.1373,-367.0366"/>
</g>
<!-- Node38&#45;&gt;Node8 -->
<g id="edge61" class="edge">
<title>Node38&#45;&gt;Node8</title>
<path fill="none" stroke="#191970" d="M1300.1098,-349.0667C1213.2541,-340.3895 1071.2438,-325.7436 949,-311 937.1245,-309.5677 924.5714,-307.966 912.2939,-306.3506"/>
<polygon fill="#191970" stroke="#191970" points="912.44,-302.8394 902.0665,-304.9937 911.5194,-309.7786 912.44,-302.8394"/>
</g>
<!-- Node38&#45;&gt;Node11 -->
<g id="edge63" class="edge">
<title>Node38&#45;&gt;Node11</title>
<path fill="none" stroke="#191970" d="M1385.358,-347.1295C1400.1869,-311.9105 1445.115,-190.3518 1396,-112 1386.3181,-96.5548 1369.8162,-86.1672 1353.2563,-79.2389"/>
<polygon fill="#191970" stroke="#191970" points="1354.1415,-75.831 1343.5505,-75.5472 1351.6529,-82.3737 1354.1415,-75.831"/>
</g>
<!-- Node38&#45;&gt;Node22 -->
<g id="edge66" class="edge">
<title>Node38&#45;&gt;Node22</title>
<path fill="none" stroke="#191970" d="M1395.7616,-347.3305C1407.412,-338.9908 1423.2718,-325.9526 1433,-311 1464.2747,-262.9294 1463.2302,-244.6743 1472,-188 1477.1653,-154.6195 1487.5218,-142.0002 1472,-112 1464.9454,-98.365 1451.7805,-87.9036 1439.1337,-80.4282"/>
<polygon fill="#191970" stroke="#191970" points="1440.5666,-77.2231 1430.1112,-75.5099 1437.2163,-83.3692 1440.5666,-77.2231"/>
</g>
<!-- Node38&#45;&gt;Node24 -->
<g id="edge62" class="edge">
<title>Node38&#45;&gt;Node24</title>
<path fill="none" stroke="#191970" d="M1346.9187,-347.3932C1294.683,-332.6991 1191.6598,-303.8371 1104,-280 1061.1469,-268.347 1012.2324,-255.3709 977.3748,-246.1795"/>
<polygon fill="#191970" stroke="#191970" points="978.0442,-242.7365 967.4824,-243.5731 976.2606,-249.5055 978.0442,-242.7365"/>
</g>
<!-- Node38&#45;&gt;Node25 -->
<g id="edge64" class="edge">
<title>Node38&#45;&gt;Node25</title>
<path fill="none" stroke="#191970" d="M1375.1397,-347.3762C1357.7662,-318.8455 1306.3227,-234.3648 1283.3277,-196.6024"/>
<polygon fill="#191970" stroke="#191970" points="1286.0797,-194.3921 1277.8893,-187.6714 1280.1009,-198.0328 1286.0797,-194.3921"/>
</g>
<!-- Node38&#45;&gt;Node28 -->
<g id="edge65" class="edge">
<title>Node38&#45;&gt;Node28</title>
<path fill="none" stroke="#191970" d="M1383.17,-347.1682C1389.2299,-317.0035 1403.3087,-224.4042 1362,-168 1325.4506,-118.0942 1139.2693,-84.4709 1056.1577,-71.7188"/>
<polygon fill="#191970" stroke="#191970" points="1056.4895,-68.2293 1046.0791,-70.1975 1055.4447,-75.1509 1056.4895,-68.2293"/>
</g>
<!-- Node40 -->
<g id="node41" class="node">
<title>Node40</title>
<g id="a_node41"><a xlink:href="SpatialForceVector_8h.html" target="_top" xlink:title="iDynTree/Core/SpatialForce\lVector.h">
<polygon fill="none" stroke="#000000" points="1198,-403.5 1198,-433.5 1346,-433.5 1346,-403.5 1198,-403.5"/>
<text text-anchor="start" x="1206" y="-421.5" font-family="FreeSans.ttf" font-size="10.00" fill="#000000">iDynTree/Core/SpatialForce</text>
<text text-anchor="middle" x="1272" y="-410.5" font-family="FreeSans.ttf" font-size="10.00" fill="#000000">Vector.h</text>
</a>
</g>
</g>
<!-- Node39&#45;&gt;Node40 -->
<g id="edge68" class="edge">
<title>Node39&#45;&gt;Node40</title>
<path fill="none" stroke="#191970" d="M1248.8684,-475.9005C1252.3195,-467.3368 1257.5227,-454.4252 1262.1207,-443.0152"/>
<polygon fill="#191970" stroke="#191970" points="1265.4549,-444.1052 1265.9465,-433.5218 1258.9623,-441.4887 1265.4549,-444.1052"/>
</g>
<!-- Node40&#45;&gt;Node10 -->
<g id="edge69" class="edge">
<title>Node40&#45;&gt;Node10</title>
<path fill="none" stroke="#191970" d="M1244.2424,-403.3775C1211.6558,-383.3605 1162,-344.7745 1162,-295.5 1162,-295.5 1162,-295.5 1162,-234 1162,-201.2688 1154.0148,-163.9052 1148.3978,-141.6716"/>
<polygon fill="#191970" stroke="#191970" points="1151.7289,-140.5763 1145.8035,-131.7934 1144.9585,-142.3545 1151.7289,-140.5763"/>
</g>
<!-- Node40&#45;&gt;Node25 -->
<g id="edge70" class="edge">
<title>Node40&#45;&gt;Node25</title>
<path fill="none" stroke="#191970" d="M1272,-403.4556C1272,-361.75 1272,-244.6556 1272,-197.7727"/>
<polygon fill="#191970" stroke="#191970" points="1275.5001,-197.6894 1272,-187.6895 1268.5001,-197.6895 1275.5001,-197.6894"/>
</g>
<!-- Node40&#45;&gt;Node38 -->
<g id="edge71" class="edge">
<title>Node40&#45;&gt;Node38</title>
<path fill="none" stroke="#191970" d="M1298.6644,-403.4554C1315.8941,-393.734 1338.1975,-381.15 1355.2446,-371.5317"/>
<polygon fill="#191970" stroke="#191970" points="1357.1194,-374.4926 1364.1089,-366.5303 1353.6796,-368.3961 1357.1194,-374.4926"/>
</g>
<!-- Node41&#45;&gt;Node37 -->
<g id="edge73" class="edge">
<title>Node41&#45;&gt;Node37</title>
<path fill="none" stroke="#191970" d="M1694.9209,-475.9005C1666.3714,-465.7798 1620.6914,-449.5864 1585.1178,-436.9756"/>
<polygon fill="#191970" stroke="#191970" points="1585.9696,-433.5642 1575.3748,-433.5218 1583.6307,-440.1619 1585.9696,-433.5642"/>
</g>
<!-- Node42&#45;&gt;Node40 -->
<g id="edge75" class="edge">
<title>Node42&#45;&gt;Node40</title>
<path fill="none" stroke="#191970" d="M1401.3654,-475.9005C1378.9459,-465.9528 1343.304,-450.1382 1315.1035,-437.6254"/>
<polygon fill="#191970" stroke="#191970" points="1316.4152,-434.3784 1305.855,-433.5218 1313.5761,-440.7768 1316.4152,-434.3784"/>
</g>
<!-- Node43&#45;&gt;Node4 -->
<g id="edge81" class="edge">
<title>Node43&#45;&gt;Node4</title>
<path fill="none" stroke="#191970" d="M402.2781,-593.252C402.8276,-573.1209 404,-525.4884 404,-485.5 404,-485.5 404,-485.5 404,-178 404,-102.3942 514.4372,-77.2789 570.7697,-69.3859"/>
<polygon fill="#191970" stroke="#191970" points="571.4769,-72.8236 580.9432,-68.0655 570.5758,-65.8818 571.4769,-72.8236"/>
</g>
<!-- Node43&#45;&gt;Node6 -->
<g id="edge82" class="edge">
<title>Node43&#45;&gt;Node6</title>
<path fill="none" stroke="#191970" d="M389.9811,-593.2455C379.7902,-584.9746 364.9638,-572.9416 352.9893,-563.2232"/>
<polygon fill="#191970" stroke="#191970" points="354.8514,-560.2268 344.8812,-556.6427 350.4402,-565.662 354.8514,-560.2268"/>
</g>
<!-- Node43&#45;&gt;Node7 -->
<g id="edge83" class="edge">
<title>Node43&#45;&gt;Node7</title>
<path fill="none" stroke="#191970" d="M411.2102,-593.1344C424.4112,-579.3713 449.8984,-554.17 475,-537 586.1164,-460.994 733.8462,-397.2424 799.7448,-370.4986"/>
<polygon fill="#191970" stroke="#191970" points="801.2636,-373.6601 809.2305,-366.6759 798.6471,-367.1675 801.2636,-373.6601"/>
</g>
<!-- Node43&#45;&gt;Node44 -->
<g id="edge80" class="edge">
<title>Node43&#45;&gt;Node44</title>
<path fill="none" stroke="#191970" d="M420.638,-593.2455C437.4386,-584.4527 462.3634,-571.4079 481.4618,-561.4125"/>
<polygon fill="#191970" stroke="#191970" points="483.3386,-564.3807 490.5756,-556.6427 480.0927,-558.1787 483.3386,-564.3807"/>
</g>
</g>
</svg>
