<?xml version="1.0" encoding="UTF-8" standalone="no"?>
<!DOCTYPE svg PUBLIC "-//W3C//DTD SVG 1.1//EN"
 "http://www.w3.org/Graphics/SVG/1.1/DTD/svg11.dtd">
<!-- Generated by graphviz version 2.40.1 (20161225.0304)
 -->
<!-- Title: Integrator.cpp Pages: 1 -->
<svg width="1861pt" height="543pt"
 viewBox="0.00 0.00 1861.00 543.00" xmlns="http://www.w3.org/2000/svg" xmlns:xlink="http://www.w3.org/1999/xlink">
<g id="graph0" class="graph" transform="scale(1 1) rotate(0) translate(4 539)">
<title>Integrator.cpp</title>
<!-- Node0 -->
<g id="node1" class="node">
<title>Node0</title>
<polygon fill="#bfbfbf" stroke="#000000" points="747,-515.5 747,-534.5 831,-534.5 831,-515.5 747,-515.5"/>
<text text-anchor="middle" x="789" y="-522.5" font-family="FreeSans.ttf" font-size="10.00" fill="#000000">Integrator.cpp</text>
</g>
<!-- Node1 -->
<g id="node2" class="node">
<title>Node1</title>
<g id="a_node2"><a xlink:href="Integrator_8h.html" target="_top" xlink:title="iDynTree/Integrator.h">
<polygon fill="none" stroke="#000000" points="269.5,-168.5 269.5,-187.5 388.5,-187.5 388.5,-168.5 269.5,-168.5"/>
<text text-anchor="middle" x="329" y="-175.5" font-family="FreeSans.ttf" font-size="10.00" fill="#000000">iDynTree/Integrator.h</text>
</a>
</g>
</g>
<!-- Node0&#45;&gt;Node1 -->
<g id="edge1" class="edge">
<title>Node0&#45;&gt;Node1</title>
<path fill="none" stroke="#191970" d="M746.671,-520.5854C649.7466,-509.3049 420,-475.4043 420,-407.5 420,-407.5 420,-407.5 420,-290 420,-247.6829 380.3856,-212.4504 353.4312,-193.3755"/>
<polygon fill="#191970" stroke="#191970" points="355.088,-190.2695 344.851,-187.5391 351.1509,-196.0574 355.088,-190.2695"/>
</g>
<!-- Node4 -->
<g id="node5" class="node">
<title>Node4</title>
<polygon fill="none" stroke="#bfbfbf" points="1416,-.5 1416,-19.5 1468,-19.5 1468,-.5 1416,-.5"/>
<text text-anchor="middle" x="1442" y="-7.5" font-family="FreeSans.ttf" font-size="10.00" fill="#000000">cassert</text>
</g>
<!-- Node0&#45;&gt;Node4 -->
<g id="edge81" class="edge">
<title>Node0&#45;&gt;Node4</title>
<path fill="none" stroke="#191970" d="M831.1778,-523.7698C998.9594,-518.753 1614.0571,-499.149 1699,-479 1772.4243,-461.5833 1853,-482.9617 1853,-407.5 1853,-407.5 1853,-407.5 1853,-122 1853,-75.9062 1815.2008,-74.54 1773,-56 1720.727,-33.035 1553.1784,-18.1918 1478.5072,-12.5564"/>
<polygon fill="#191970" stroke="#191970" points="1478.4202,-9.0405 1468.1889,-11.7919 1477.9029,-16.0213 1478.4202,-9.0405"/>
</g>
<!-- Node7 -->
<g id="node8" class="node">
<title>Node7</title>
<polygon fill="none" stroke="#bfbfbf" points="622.5,-.5 622.5,-19.5 675.5,-19.5 675.5,-.5 622.5,-.5"/>
<text text-anchor="middle" x="649" y="-7.5" font-family="FreeSans.ttf" font-size="10.00" fill="#000000">cstddef</text>
</g>
<!-- Node0&#45;&gt;Node7 -->
<g id="edge82" class="edge">
<title>Node0&#45;&gt;Node7</title>
<path fill="none" stroke="#191970" d="M746.8589,-523.2143C583.3589,-515.7358 0,-483.7127 0,-407.5 0,-407.5 0,-407.5 0,-122 0,-65.3669 55.1485,-73.5307 109,-56 202.958,-25.4131 506.2388,-14.0518 612.1147,-10.9581"/>
<polygon fill="#191970" stroke="#191970" points="612.4118,-14.4512 622.3082,-10.6682 612.2127,-7.454 612.4118,-14.4512"/>
</g>
<!-- Node16 -->
<g id="node17" class="node">
<title>Node16</title>
<g id="a_node17"><a xlink:href="Utils_8h.html" target="_top" xlink:title="iDynTree/Core/Utils.h">
<polygon fill="none" stroke="#000000" points="865.5,-56.5 865.5,-75.5 984.5,-75.5 984.5,-56.5 865.5,-56.5"/>
<text text-anchor="middle" x="925" y="-63.5" font-family="FreeSans.ttf" font-size="10.00" fill="#000000">iDynTree/Core/Utils.h</text>
</a>
</g>
</g>
<!-- Node0&#45;&gt;Node16 -->
<g id="edge30" class="edge">
<title>Node0&#45;&gt;Node16</title>
<path fill="none" stroke="#191970" d="M789,-515.2511C789,-495.1182 789,-447.4826 789,-407.5 789,-407.5 789,-407.5 789,-234 789,-164.3451 860.4997,-107.377 899.8139,-81.3179"/>
<polygon fill="#191970" stroke="#191970" points="902.0875,-84.0164 908.5952,-75.6558 898.2941,-78.1333 902.0875,-84.0164"/>
</g>
<!-- Node21 -->
<g id="node22" class="node">
<title>Node21</title>
<g id="a_node22"><a xlink:href="DynamicalSystem_8h.html" target="_top" xlink:title="iDynTree/DynamicalSystem.h">
<polygon fill="none" stroke="#000000" points="485.5,-168.5 485.5,-187.5 646.5,-187.5 646.5,-168.5 485.5,-168.5"/>
<text text-anchor="middle" x="566" y="-175.5" font-family="FreeSans.ttf" font-size="10.00" fill="#000000">iDynTree/DynamicalSystem.h</text>
</a>
</g>
</g>
<!-- Node0&#45;&gt;Node21 -->
<g id="edge27" class="edge">
<title>Node0&#45;&gt;Node21</title>
<path fill="none" stroke="#191970" d="M746.5668,-517.726C691.394,-505.5559 602,-475.3657 602,-407.5 602,-407.5 602,-407.5 602,-290 602,-255.7942 586.5926,-218.4094 575.9369,-196.6445"/>
<polygon fill="#191970" stroke="#191970" points="578.9659,-194.8795 571.3119,-187.5538 572.727,-198.0537 578.9659,-194.8795"/>
</g>
<!-- Node22 -->
<g id="node23" class="node">
<title>Node22</title>
<g id="a_node23"><a xlink:href="EigenHelpers_8h.html" target="_top" xlink:title="iDynTree/Core/EigenHelpers.h">
<polygon fill="none" stroke="#000000" points="820.5,-459.5 820.5,-478.5 981.5,-478.5 981.5,-459.5 820.5,-459.5"/>
<text text-anchor="middle" x="901" y="-466.5" font-family="FreeSans.ttf" font-size="10.00" fill="#000000">iDynTree/Core/EigenHelpers.h</text>
</a>
</g>
</g>
<!-- Node0&#45;&gt;Node22 -->
<g id="edge31" class="edge">
<title>Node0&#45;&gt;Node22</title>
<path fill="none" stroke="#191970" d="M808.2535,-515.3733C826.0712,-506.4644 852.7747,-493.1127 872.9594,-483.0203"/>
<polygon fill="#191970" stroke="#191970" points="874.6187,-486.1038 881.9978,-478.5011 871.4882,-479.8428 874.6187,-486.1038"/>
</g>
<!-- Node25 -->
<g id="node26" class="node">
<title>Node25</title>
<polygon fill="none" stroke="#bfbfbf" points="1708,-56.5 1708,-75.5 1764,-75.5 1764,-56.5 1708,-56.5"/>
<text text-anchor="middle" x="1736" y="-63.5" font-family="FreeSans.ttf" font-size="10.00" fill="#000000">sstream</text>
</g>
<!-- Node0&#45;&gt;Node25 -->
<g id="edge83" class="edge">
<title>Node0&#45;&gt;Node25</title>
<path fill="none" stroke="#191970" d="M831.1332,-524.6782C1024.1997,-522.6586 1815,-508.2382 1815,-407.5 1815,-407.5 1815,-407.5 1815,-178 1815,-137.9466 1780.8445,-102.143 1757.4502,-82.3174"/>
<polygon fill="#191970" stroke="#191970" points="1759.3642,-79.3622 1749.4013,-75.7579 1754.942,-84.7885 1759.3642,-79.3622"/>
</g>
<!-- Node2 -->
<g id="node3" class="node">
<title>Node2</title>
<g id="a_node3"><a xlink:href="VectorDynSize_8h.html" target="_top" xlink:title="iDynTree/Core/VectorDynSize.h">
<polygon fill="none" stroke="#000000" points="594.5,-112.5 594.5,-131.5 761.5,-131.5 761.5,-112.5 594.5,-112.5"/>
<text text-anchor="middle" x="678" y="-119.5" font-family="FreeSans.ttf" font-size="10.00" fill="#000000">iDynTree/Core/VectorDynSize.h</text>
</a>
</g>
</g>
<!-- Node1&#45;&gt;Node2 -->
<g id="edge2" class="edge">
<title>Node1&#45;&gt;Node2</title>
<path fill="none" stroke="#191970" d="M388.5987,-168.4369C449.5821,-158.6516 544.2692,-143.4582 608.5939,-133.1368"/>
<polygon fill="#191970" stroke="#191970" points="609.328,-136.5639 618.6471,-131.5237 608.2189,-129.6523 609.328,-136.5639"/>
</g>
<!-- Node13 -->
<g id="node14" class="node">
<title>Node13</title>
<polygon fill="none" stroke="#bfbfbf" points="803,-56.5 803,-75.5 847,-75.5 847,-56.5 803,-56.5"/>
<text text-anchor="middle" x="825" y="-63.5" font-family="FreeSans.ttf" font-size="10.00" fill="#000000">string</text>
</g>
<!-- Node1&#45;&gt;Node13 -->
<g id="edge24" class="edge">
<title>Node1&#45;&gt;Node13</title>
<path fill="none" stroke="#191970" d="M336.005,-168.327C347.4766,-153.3311 371.8316,-124.863 400,-112 470.1535,-79.9647 706.512,-69.6266 792.9739,-66.8703"/>
<polygon fill="#191970" stroke="#191970" points="793.0991,-70.3682 802.9873,-66.564 792.885,-63.3715 793.0991,-70.3682"/>
</g>
<!-- Node14 -->
<g id="node15" class="node">
<title>Node14</title>
<g id="a_node15"><a xlink:href="MatrixDynSize_8h.html" target="_top" xlink:title="iDynTree/Core/MatrixDynSize.h">
<polygon fill="none" stroke="#000000" points="409.5,-112.5 409.5,-131.5 576.5,-131.5 576.5,-112.5 409.5,-112.5"/>
<text text-anchor="middle" x="493" y="-119.5" font-family="FreeSans.ttf" font-size="10.00" fill="#000000">iDynTree/Core/MatrixDynSize.h</text>
</a>
</g>
</g>
<!-- Node1&#45;&gt;Node14 -->
<g id="edge14" class="edge">
<title>Node1&#45;&gt;Node14</title>
<path fill="none" stroke="#191970" d="M357.1926,-168.3733C384.3453,-159.1016 425.5907,-145.0178 455.5025,-134.804"/>
<polygon fill="#191970" stroke="#191970" points="456.8428,-138.0449 465.1753,-131.5011 454.5808,-131.4204 456.8428,-138.0449"/>
</g>
<!-- Node15 -->
<g id="node16" class="node">
<title>Node15</title>
<g id="a_node16"><a xlink:href="SparsityStructure_8h.html" target="_top" xlink:title="iDynTree/SparsityStructure.h">
<polygon fill="none" stroke="#000000" points="198.5,-112.5 198.5,-131.5 353.5,-131.5 353.5,-112.5 198.5,-112.5"/>
<text text-anchor="middle" x="276" y="-119.5" font-family="FreeSans.ttf" font-size="10.00" fill="#000000">iDynTree/SparsityStructure.h</text>
</a>
</g>
</g>
<!-- Node1&#45;&gt;Node15 -->
<g id="edge16" class="edge">
<title>Node1&#45;&gt;Node15</title>
<path fill="none" stroke="#191970" d="M319.7681,-168.2455C312.1683,-160.2155 301.2123,-148.6394 292.1632,-139.0781"/>
<polygon fill="#191970" stroke="#191970" points="294.542,-136.4998 285.1261,-131.6427 289.4579,-141.3115 294.542,-136.4998"/>
</g>
<!-- Node17 -->
<g id="node18" class="node">
<title>Node17</title>
<polygon fill="none" stroke="#bfbfbf" points="118.5,-56.5 118.5,-75.5 165.5,-75.5 165.5,-56.5 118.5,-56.5"/>
<text text-anchor="middle" x="142" y="-63.5" font-family="FreeSans.ttf" font-size="10.00" fill="#000000">vector</text>
</g>
<!-- Node1&#45;&gt;Node17 -->
<g id="edge23" class="edge">
<title>Node1&#45;&gt;Node17</title>
<path fill="none" stroke="#191970" d="M269.331,-173.556C212.3465,-167.9244 132.3587,-155.9155 113,-132 101.283,-117.525 112.984,-97.5796 124.8386,-83.4131"/>
<polygon fill="#191970" stroke="#191970" points="127.5776,-85.6016 131.6603,-75.825 122.3719,-80.9218 127.5776,-85.6016"/>
</g>
<!-- Node19 -->
<g id="node20" class="node">
<title>Node19</title>
<polygon fill="none" stroke="#bfbfbf" points="122,-112.5 122,-131.5 180,-131.5 180,-112.5 122,-112.5"/>
<text text-anchor="middle" x="151" y="-119.5" font-family="FreeSans.ttf" font-size="10.00" fill="#000000">memory</text>
</g>
<!-- Node1&#45;&gt;Node19 -->
<g id="edge25" class="edge">
<title>Node1&#45;&gt;Node19</title>
<path fill="none" stroke="#191970" d="M298.4007,-168.3733C268.3136,-158.9076 222.2839,-144.4264 189.6772,-134.1681"/>
<polygon fill="#191970" stroke="#191970" points="190.6108,-130.7927 180.0213,-131.1303 188.51,-137.4701 190.6108,-130.7927"/>
</g>
<!-- Node20 -->
<g id="node21" class="node">
<title>Node20</title>
<polygon fill="none" stroke="#bfbfbf" points="28,-112.5 28,-131.5 66,-131.5 66,-112.5 28,-112.5"/>
<text text-anchor="middle" x="47" y="-119.5" font-family="FreeSans.ttf" font-size="10.00" fill="#000000">map</text>
</g>
<!-- Node1&#45;&gt;Node20 -->
<g id="edge26" class="edge">
<title>Node1&#45;&gt;Node20</title>
<path fill="none" stroke="#191970" d="M269.4914,-168.9234C218.7978,-160.735 144.1819,-147.6015 80,-132 78.7239,-131.6898 77.4242,-131.3593 76.1142,-131.0143"/>
<polygon fill="#191970" stroke="#191970" points="76.6705,-127.5345 66.0954,-128.181 74.7656,-134.2703 76.6705,-127.5345"/>
</g>
<!-- Node3 -->
<g id="node4" class="node">
<title>Node3</title>
<g id="a_node4"><a xlink:href="Span_8h.html" target="_top" xlink:title="iDynTree/Core/Span.h">
<polygon fill="none" stroke="#000000" points="1041.5,-56.5 1041.5,-75.5 1162.5,-75.5 1162.5,-56.5 1041.5,-56.5"/>
<text text-anchor="middle" x="1102" y="-63.5" font-family="FreeSans.ttf" font-size="10.00" fill="#000000">iDynTree/Core/Span.h</text>
</a>
</g>
</g>
<!-- Node2&#45;&gt;Node3 -->
<g id="edge3" class="edge">
<title>Node2&#45;&gt;Node3</title>
<path fill="none" stroke="#191970" d="M750.4064,-112.4369C828.8399,-102.0777 953.1631,-85.6577 1031.0306,-75.3733"/>
<polygon fill="#191970" stroke="#191970" points="1031.774,-78.8056 1041.2296,-74.0263 1030.8573,-71.8659 1031.774,-78.8056"/>
</g>
<!-- Node2&#45;&gt;Node13 -->
<g id="edge13" class="edge">
<title>Node2&#45;&gt;Node13</title>
<path fill="none" stroke="#191970" d="M703.2702,-112.3733C728.2739,-102.848 766.6101,-88.2438 793.5662,-77.9748"/>
<polygon fill="#191970" stroke="#191970" points="794.8378,-81.2358 802.9367,-74.4051 792.3458,-74.6944 794.8378,-81.2358"/>
</g>
<!-- Node3&#45;&gt;Node4 -->
<g id="edge4" class="edge">
<title>Node3&#45;&gt;Node4</title>
<path fill="none" stroke="#191970" d="M1160.0618,-56.4369C1230.5568,-44.8259 1347.281,-25.6008 1405.9642,-15.9353"/>
<polygon fill="#191970" stroke="#191970" points="1406.586,-19.3801 1415.8842,-14.3014 1405.4483,-12.4732 1406.586,-19.3801"/>
</g>
<!-- Node5 -->
<g id="node6" class="node">
<title>Node5</title>
<polygon fill="none" stroke="#bfbfbf" points="933,-.5 933,-19.5 997,-19.5 997,-.5 933,-.5"/>
<text text-anchor="middle" x="965" y="-7.5" font-family="FreeSans.ttf" font-size="10.00" fill="#000000">algorithm</text>
</g>
<!-- Node3&#45;&gt;Node5 -->
<g id="edge5" class="edge">
<title>Node3&#45;&gt;Node5</title>
<path fill="none" stroke="#191970" d="M1078.4489,-56.3733C1056.1609,-47.2629 1022.5063,-33.5062 997.6363,-23.3404"/>
<polygon fill="#191970" stroke="#191970" points="998.8247,-20.0451 988.2438,-19.5011 996.1761,-26.5247 998.8247,-20.0451"/>
</g>
<!-- Node6 -->
<g id="node7" class="node">
<title>Node6</title>
<polygon fill="none" stroke="#bfbfbf" points="1015,-.5 1015,-19.5 1057,-19.5 1057,-.5 1015,-.5"/>
<text text-anchor="middle" x="1036" y="-7.5" font-family="FreeSans.ttf" font-size="10.00" fill="#000000">array</text>
</g>
<!-- Node3&#45;&gt;Node6 -->
<g id="edge6" class="edge">
<title>Node3&#45;&gt;Node6</title>
<path fill="none" stroke="#191970" d="M1090.5037,-56.2455C1080.7558,-47.9746 1066.5741,-35.9416 1055.1202,-26.2232"/>
<polygon fill="#191970" stroke="#191970" points="1057.2541,-23.4437 1047.3646,-19.6427 1052.7253,-28.7813 1057.2541,-23.4437"/>
</g>
<!-- Node3&#45;&gt;Node7 -->
<g id="edge7" class="edge">
<title>Node3&#45;&gt;Node7</title>
<path fill="none" stroke="#191970" d="M1041.3765,-58.5057C946.0487,-46.7212 763.9447,-24.2095 685.9475,-14.5675"/>
<polygon fill="#191970" stroke="#191970" points="686.0064,-11.0482 675.6525,-13.2948 685.1475,-17.9953 686.0064,-11.0482"/>
</g>
<!-- Node8 -->
<g id="node9" class="node">
<title>Node8</title>
<polygon fill="none" stroke="#bfbfbf" points="1075.5,-.5 1075.5,-19.5 1128.5,-19.5 1128.5,-.5 1075.5,-.5"/>
<text text-anchor="middle" x="1102" y="-7.5" font-family="FreeSans.ttf" font-size="10.00" fill="#000000">iterator</text>
</g>
<!-- Node3&#45;&gt;Node8 -->
<g id="edge8" class="edge">
<title>Node3&#45;&gt;Node8</title>
<path fill="none" stroke="#191970" d="M1102,-56.2455C1102,-48.9382 1102,-38.6944 1102,-29.7046"/>
<polygon fill="#191970" stroke="#191970" points="1105.5001,-29.6426 1102,-19.6427 1098.5001,-29.6427 1105.5001,-29.6426"/>
</g>
<!-- Node9 -->
<g id="node10" class="node">
<title>Node9</title>
<polygon fill="none" stroke="#bfbfbf" points="1147,-.5 1147,-19.5 1191,-19.5 1191,-.5 1147,-.5"/>
<text text-anchor="middle" x="1169" y="-7.5" font-family="FreeSans.ttf" font-size="10.00" fill="#000000">limits</text>
</g>
<!-- Node3&#45;&gt;Node9 -->
<g id="edge9" class="edge">
<title>Node3&#45;&gt;Node9</title>
<path fill="none" stroke="#191970" d="M1113.6705,-56.2455C1123.5661,-47.9746 1137.9627,-35.9416 1149.5901,-26.2232"/>
<polygon fill="#191970" stroke="#191970" points="1152.035,-28.7413 1157.4632,-19.6427 1147.5458,-23.3703 1152.035,-28.7413"/>
</g>
<!-- Node10 -->
<g id="node11" class="node">
<title>Node10</title>
<polygon fill="none" stroke="#bfbfbf" points="1209.5,-.5 1209.5,-19.5 1274.5,-19.5 1274.5,-.5 1209.5,-.5"/>
<text text-anchor="middle" x="1242" y="-7.5" font-family="FreeSans.ttf" font-size="10.00" fill="#000000">stdexcept</text>
</g>
<!-- Node3&#45;&gt;Node10 -->
<g id="edge10" class="edge">
<title>Node3&#45;&gt;Node10</title>
<path fill="none" stroke="#191970" d="M1126.0669,-56.3733C1148.8428,-47.2629 1183.2344,-33.5062 1208.649,-23.3404"/>
<polygon fill="#191970" stroke="#191970" points="1210.2623,-26.4648 1218.2472,-19.5011 1207.6625,-19.9654 1210.2623,-26.4648"/>
</g>
<!-- Node11 -->
<g id="node12" class="node">
<title>Node11</title>
<polygon fill="none" stroke="#bfbfbf" points="1292.5,-.5 1292.5,-19.5 1361.5,-19.5 1361.5,-.5 1292.5,-.5"/>
<text text-anchor="middle" x="1327" y="-7.5" font-family="FreeSans.ttf" font-size="10.00" fill="#000000">type_traits</text>
</g>
<!-- Node3&#45;&gt;Node11 -->
<g id="edge11" class="edge">
<title>Node3&#45;&gt;Node11</title>
<path fill="none" stroke="#191970" d="M1140.4232,-56.4369C1179.8471,-46.6247 1241.119,-31.3748 1282.5948,-21.052"/>
<polygon fill="#191970" stroke="#191970" points="1283.5685,-24.4165 1292.4271,-18.6048 1281.8778,-17.6237 1283.5685,-24.4165"/>
</g>
<!-- Node12 -->
<g id="node13" class="node">
<title>Node12</title>
<polygon fill="none" stroke="#bfbfbf" points="869.5,-.5 869.5,-19.5 914.5,-19.5 914.5,-.5 869.5,-.5"/>
<text text-anchor="middle" x="892" y="-7.5" font-family="FreeSans.ttf" font-size="10.00" fill="#000000">utility</text>
</g>
<!-- Node3&#45;&gt;Node12 -->
<g id="edge12" class="edge">
<title>Node3&#45;&gt;Node12</title>
<path fill="none" stroke="#191970" d="M1062.6078,-56.4203C1028.4856,-47.9882 977.5933,-35.0926 924.3049,-19.9867"/>
<polygon fill="#191970" stroke="#191970" points="925.2601,-16.6196 914.6836,-17.2424 923.34,-23.3511 925.2601,-16.6196"/>
</g>
<!-- Node14&#45;&gt;Node13 -->
<g id="edge15" class="edge">
<title>Node14&#45;&gt;Node13</title>
<path fill="none" stroke="#191970" d="M549.6956,-112.4369C619.6388,-100.6392 736.1869,-80.9805 792.532,-71.4765"/>
<polygon fill="#191970" stroke="#191970" points="793.3688,-74.8849 802.6474,-69.7703 792.2045,-67.9824 793.3688,-74.8849"/>
</g>
<!-- Node15&#45;&gt;Node7 -->
<g id="edge20" class="edge">
<title>Node15&#45;&gt;Node7</title>
<path fill="none" stroke="#191970" d="M307.8018,-112.4509C376.7889,-91.7363 539.83,-42.7803 612.7057,-20.898"/>
<polygon fill="#191970" stroke="#191970" points="613.8002,-24.2238 622.3712,-17.9958 611.787,-17.5196 613.8002,-24.2238"/>
</g>
<!-- Node15&#45;&gt;Node13 -->
<g id="edge22" class="edge">
<title>Node15&#45;&gt;Node13</title>
<path fill="none" stroke="#191970" d="M353.7952,-113.5001C358.6014,-112.9885 363.3661,-112.4851 368,-112 527.1177,-95.3445 717.5259,-76.5414 792.4452,-69.1871"/>
<polygon fill="#191970" stroke="#191970" points="793.0329,-72.6464 802.6434,-68.1868 792.3495,-65.6798 793.0329,-72.6464"/>
</g>
<!-- Node15&#45;&gt;Node16 -->
<g id="edge17" class="edge">
<title>Node15&#45;&gt;Node16</title>
<path fill="none" stroke="#191970" d="M353.7207,-115.712C369.0594,-114.4767 385.0372,-113.194 400,-112 599.3877,-96.0896 652.2691,-98.5072 855.104,-76.0354"/>
<polygon fill="#191970" stroke="#191970" points="855.6408,-79.4973 865.1915,-74.9111 854.8653,-72.5404 855.6408,-79.4973"/>
</g>
<!-- Node15&#45;&gt;Node17 -->
<g id="edge19" class="edge">
<title>Node15&#45;&gt;Node17</title>
<path fill="none" stroke="#191970" d="M252.9646,-112.3733C231.2612,-103.3032 198.5382,-89.6279 174.245,-79.4755"/>
<polygon fill="#191970" stroke="#191970" points="175.3111,-76.1278 164.7348,-75.5011 172.6119,-82.5865 175.3111,-76.1278"/>
</g>
<!-- Node18 -->
<g id="node19" class="node">
<title>Node18</title>
<polygon fill="none" stroke="#bfbfbf" points="233,-56.5 233,-75.5 319,-75.5 319,-56.5 233,-56.5"/>
<text text-anchor="middle" x="276" y="-63.5" font-family="FreeSans.ttf" font-size="10.00" fill="#000000">unordered_set</text>
</g>
<!-- Node15&#45;&gt;Node18 -->
<g id="edge21" class="edge">
<title>Node15&#45;&gt;Node18</title>
<path fill="none" stroke="#191970" d="M276,-112.2455C276,-104.9382 276,-94.6944 276,-85.7046"/>
<polygon fill="#191970" stroke="#191970" points="279.5001,-85.6426 276,-75.6427 272.5001,-85.6427 279.5001,-85.6426"/>
</g>
<!-- Node16&#45;&gt;Node7 -->
<g id="edge18" class="edge">
<title>Node16&#45;&gt;Node7</title>
<path fill="none" stroke="#191970" d="M877.8675,-56.4369C823.5343,-45.4128 735.3714,-27.5246 685.8255,-17.4718"/>
<polygon fill="#191970" stroke="#191970" points="686.3615,-14.0093 675.8652,-15.4509 684.9695,-20.8696 686.3615,-14.0093"/>
</g>
<!-- Node21&#45;&gt;Node2 -->
<g id="edge28" class="edge">
<title>Node21&#45;&gt;Node2</title>
<path fill="none" stroke="#191970" d="M585.2535,-168.3733C603.0712,-159.4644 629.7747,-146.1127 649.9594,-136.0203"/>
<polygon fill="#191970" stroke="#191970" points="651.6187,-139.1038 658.9978,-131.5011 648.4882,-132.8428 651.6187,-139.1038"/>
</g>
<!-- Node21&#45;&gt;Node15 -->
<g id="edge29" class="edge">
<title>Node21&#45;&gt;Node15</title>
<path fill="none" stroke="#191970" d="M516.4767,-168.4369C466.3241,-158.7522 388.739,-143.7703 335.3303,-133.4569"/>
<polygon fill="#191970" stroke="#191970" points="335.8013,-129.9832 325.319,-131.5237 334.474,-136.8563 335.8013,-129.9832"/>
</g>
<!-- Node22&#45;&gt;Node2 -->
<g id="edge33" class="edge">
<title>Node22&#45;&gt;Node2</title>
<path fill="none" stroke="#191970" d="M852.5853,-459.3833C796.8823,-445.1711 713,-412.6965 713,-346 713,-346 713,-346 713,-234 713,-199.8821 698.0205,-162.4701 687.6609,-140.676"/>
<polygon fill="#191970" stroke="#191970" points="690.7308,-138.9879 683.1644,-131.5717 684.4545,-142.0877 690.7308,-138.9879"/>
</g>
<!-- Node22&#45;&gt;Node14 -->
<g id="edge41" class="edge">
<title>Node22&#45;&gt;Node14</title>
<path fill="none" stroke="#191970" d="M825.4311,-459.446C759.7312,-446.4087 675,-416.0213 675,-346 675,-346 675,-346 675,-234 675,-203.3494 676.8627,-189.482 655,-168 640.8337,-154.0804 596.0773,-141.9795 557.1891,-133.6873"/>
<polygon fill="#191970" stroke="#191970" points="557.4331,-130.1633 546.9303,-131.5569 556.0098,-137.0171 557.4331,-130.1633"/>
</g>
<!-- Node22&#45;&gt;Node16 -->
<g id="edge80" class="edge">
<title>Node22&#45;&gt;Node16</title>
<path fill="none" stroke="#191970" d="M890.081,-459.3582C869.4967,-440.0543 827,-394.3466 827,-346 827,-346 827,-346 827,-234 827,-171.3449 878.4861,-111.2557 906.8217,-82.9297"/>
<polygon fill="#191970" stroke="#191970" points="909.4142,-85.2904 914.1378,-75.8068 904.5312,-80.2748 909.4142,-85.2904"/>
</g>
<!-- Node23 -->
<g id="node24" class="node">
<title>Node23</title>
<polygon fill="none" stroke="#bfbfbf" points="931.5,-398 931.5,-417 1008.5,-417 1008.5,-398 931.5,-398"/>
<text text-anchor="middle" x="970" y="-405" font-family="FreeSans.ttf" font-size="10.00" fill="#000000">Eigen/Dense</text>
</g>
<!-- Node22&#45;&gt;Node23 -->
<g id="edge32" class="edge">
<title>Node22&#45;&gt;Node23</title>
<path fill="none" stroke="#191970" d="M911.7813,-459.3906C922.3526,-449.9683 938.6825,-435.4134 951.3603,-424.1137"/>
<polygon fill="#191970" stroke="#191970" points="953.9304,-426.5114 959.0667,-417.2449 949.2728,-421.2858 953.9304,-426.5114"/>
</g>
<!-- Node24 -->
<g id="node25" class="node">
<title>Node24</title>
<g id="a_node25"><a xlink:href="VectorFixSize_8h.html" target="_top" xlink:title="iDynTree/Core/VectorFixSize.h">
<polygon fill="none" stroke="#000000" points="1434.5,-112.5 1434.5,-131.5 1595.5,-131.5 1595.5,-112.5 1434.5,-112.5"/>
<text text-anchor="middle" x="1515" y="-119.5" font-family="FreeSans.ttf" font-size="10.00" fill="#000000">iDynTree/Core/VectorFixSize.h</text>
</a>
</g>
</g>
<!-- Node22&#45;&gt;Node24 -->
<g id="edge34" class="edge">
<title>Node22&#45;&gt;Node24</title>
<path fill="none" stroke="#191970" d="M981.6236,-468.4027C1174.4883,-466.4133 1651.1548,-457.9766 1714,-423 1750.5235,-402.6728 1768,-387.799 1768,-346 1768,-346 1768,-346 1768,-290 1768,-197.406 1648.9403,-152.791 1574.17,-133.902"/>
<polygon fill="#191970" stroke="#191970" points="1574.9264,-130.484 1564.3815,-131.5114 1573.2656,-137.2841 1574.9264,-130.484"/>
</g>
<!-- Node27 -->
<g id="node28" class="node">
<title>Node27</title>
<g id="a_node28"><a xlink:href="MatrixFixSize_8h.html" target="_top" xlink:title="iDynTree/Core/MatrixFixSize.h">
<polygon fill="none" stroke="#000000" points="1216.5,-112.5 1216.5,-131.5 1377.5,-131.5 1377.5,-112.5 1216.5,-112.5"/>
<text text-anchor="middle" x="1297" y="-119.5" font-family="FreeSans.ttf" font-size="10.00" fill="#000000">iDynTree/Core/MatrixFixSize.h</text>
</a>
</g>
</g>
<!-- Node22&#45;&gt;Node27 -->
<g id="edge42" class="edge">
<title>Node22&#45;&gt;Node27</title>
<path fill="none" stroke="#191970" d="M896.1449,-459.3963C886.3184,-439.042 865,-389.8325 865,-346 865,-346 865,-346 865,-234 865,-188.2481 902.0909,-186.3538 944,-168 989.5849,-148.0364 1117.5121,-134.9862 1206.1429,-128.0516"/>
<polygon fill="#191970" stroke="#191970" points="1206.5062,-131.534 1216.2082,-127.277 1205.9691,-124.5547 1206.5062,-131.534"/>
</g>
<!-- Node29 -->
<g id="node30" class="node">
<title>Node29</title>
<g id="a_node30"><a xlink:href="SpatialMotionVector_8h.html" target="_top" xlink:title="iDynTree/Core/SpatialMotion\lVector.h">
<polygon fill="none" stroke="#000000" points="1344.5,-392.5 1344.5,-422.5 1499.5,-422.5 1499.5,-392.5 1344.5,-392.5"/>
<text text-anchor="start" x="1352.5" y="-410.5" font-family="FreeSans.ttf" font-size="10.00" fill="#000000">iDynTree/Core/SpatialMotion</text>
<text text-anchor="middle" x="1422" y="-399.5" font-family="FreeSans.ttf" font-size="10.00" fill="#000000">Vector.h</text>
</a>
</g>
</g>
<!-- Node22&#45;&gt;Node29 -->
<g id="edge49" class="edge">
<title>Node22&#45;&gt;Node29</title>
<path fill="none" stroke="#191970" d="M981.5493,-459.4918C1077.0957,-448.2133 1235.8025,-429.4792 1334.3542,-417.8459"/>
<polygon fill="#191970" stroke="#191970" points="1334.7695,-421.3213 1344.2902,-416.673 1333.9488,-414.3695 1334.7695,-421.3213"/>
</g>
<!-- Node36 -->
<g id="node37" class="node">
<title>Node36</title>
<g id="a_node37"><a xlink:href="SpatialForceVector_8h.html" target="_top" xlink:title="iDynTree/Core/SpatialForce\lVector.h">
<polygon fill="none" stroke="#000000" points="1557,-392.5 1557,-422.5 1705,-422.5 1705,-392.5 1557,-392.5"/>
<text text-anchor="start" x="1565" y="-410.5" font-family="FreeSans.ttf" font-size="10.00" fill="#000000">iDynTree/Core/SpatialForce</text>
<text text-anchor="middle" x="1631" y="-399.5" font-family="FreeSans.ttf" font-size="10.00" fill="#000000">Vector.h</text>
</a>
</g>
</g>
<!-- Node22&#45;&gt;Node36 -->
<g id="edge71" class="edge">
<title>Node22&#45;&gt;Node36</title>
<path fill="none" stroke="#191970" d="M981.7611,-464.2011C1098.3381,-456.9764 1320.4801,-442.0947 1509,-423 1521.2358,-421.7607 1534.1419,-420.2943 1546.7972,-418.7659"/>
<polygon fill="#191970" stroke="#191970" points="1547.3756,-422.2212 1556.8752,-417.5299 1546.5235,-415.2733 1547.3756,-422.2212"/>
</g>
<!-- Node37 -->
<g id="node38" class="node">
<title>Node37</title>
<g id="a_node38"><a xlink:href="Transform_8h.html" target="_top" xlink:title="iDynTree/Core/Transform.h">
<polygon fill="none" stroke="#000000" points="893,-336.5 893,-355.5 1039,-355.5 1039,-336.5 893,-336.5"/>
<text text-anchor="middle" x="966" y="-343.5" font-family="FreeSans.ttf" font-size="10.00" fill="#000000">iDynTree/Core/Transform.h</text>
</a>
</g>
</g>
<!-- Node22&#45;&gt;Node37 -->
<g id="edge75" class="edge">
<title>Node22&#45;&gt;Node37</title>
<path fill="none" stroke="#191970" d="M902.0706,-459.4199C904.0913,-444.2614 909.4488,-414.1922 922,-392 928.248,-380.9527 937.7451,-370.5598 946.3189,-362.4573"/>
<polygon fill="#191970" stroke="#191970" points="948.7253,-365.0003 953.8134,-355.7072 944.0405,-359.799 948.7253,-365.0003"/>
</g>
<!-- Node24&#45;&gt;Node3 -->
<g id="edge36" class="edge">
<title>Node24&#45;&gt;Node3</title>
<path fill="none" stroke="#191970" d="M1444.472,-112.4369C1368.6246,-102.1525 1248.7207,-85.8943 1172.777,-75.5969"/>
<polygon fill="#191970" stroke="#191970" points="1173.2013,-72.1225 1162.8216,-74.247 1172.2607,-79.059 1173.2013,-72.1225"/>
</g>
<!-- Node24&#45;&gt;Node4 -->
<g id="edge39" class="edge">
<title>Node24&#45;&gt;Node4</title>
<path fill="none" stroke="#191970" d="M1510.8089,-112.2169C1504.9522,-98.9809 1493.6111,-74.8569 1481,-56 1474.2774,-45.9479 1465.6822,-35.6027 1458.2725,-27.275"/>
<polygon fill="#191970" stroke="#191970" points="1460.6951,-24.7372 1451.3714,-19.7054 1455.5222,-29.4533 1460.6951,-24.7372"/>
</g>
<!-- Node24&#45;&gt;Node13 -->
<g id="edge37" class="edge">
<title>Node24&#45;&gt;Node13</title>
<path fill="none" stroke="#191970" d="M1434.4383,-115.5793C1418.7086,-114.3615 1402.3393,-113.1191 1387,-112 1154.4259,-95.0317 1090.104,-119.9187 857.3174,-75.816"/>
<polygon fill="#191970" stroke="#191970" points="857.6614,-72.3183 847.1812,-73.8726 856.3432,-79.1931 857.6614,-72.3183"/>
</g>
<!-- Node24&#45;&gt;Node16 -->
<g id="edge35" class="edge">
<title>Node24&#45;&gt;Node16</title>
<path fill="none" stroke="#191970" d="M1434.4136,-113.4485C1429.5371,-112.9523 1424.7035,-112.4661 1420,-112 1399.178,-109.9367 1125.7918,-84.5972 994.4811,-72.4342"/>
<polygon fill="#191970" stroke="#191970" points="994.7948,-68.9484 984.5146,-71.5111 994.1492,-75.9185 994.7948,-68.9484"/>
</g>
<!-- Node24&#45;&gt;Node25 -->
<g id="edge38" class="edge">
<title>Node24&#45;&gt;Node25</title>
<path fill="none" stroke="#191970" d="M1552.7401,-112.4369C1593.3133,-102.1559 1657.4458,-85.9051 1698.0861,-75.6071"/>
<polygon fill="#191970" stroke="#191970" points="1699.0497,-78.9737 1707.8836,-73.1245 1697.3302,-72.1881 1699.0497,-78.9737"/>
</g>
<!-- Node26 -->
<g id="node27" class="node">
<title>Node26</title>
<polygon fill="none" stroke="#bfbfbf" points="1422,-56.5 1422,-75.5 1472,-75.5 1472,-56.5 1422,-56.5"/>
<text text-anchor="middle" x="1447" y="-63.5" font-family="FreeSans.ttf" font-size="10.00" fill="#000000">cstring</text>
</g>
<!-- Node24&#45;&gt;Node26 -->
<g id="edge40" class="edge">
<title>Node24&#45;&gt;Node26</title>
<path fill="none" stroke="#191970" d="M1503.1553,-112.2455C1493.112,-103.9746 1478.5005,-91.9416 1466.6996,-82.2232"/>
<polygon fill="#191970" stroke="#191970" points="1468.6533,-79.298 1458.709,-75.6427 1464.2033,-84.7015 1468.6533,-79.298"/>
</g>
<!-- Node27&#45;&gt;Node4 -->
<g id="edge44" class="edge">
<title>Node27&#45;&gt;Node4</title>
<path fill="none" stroke="#191970" d="M1309.3626,-112.4509C1334.296,-93.1921 1390.8333,-49.5218 1421.4236,-25.8935"/>
<polygon fill="#191970" stroke="#191970" points="1423.8941,-28.4078 1429.6687,-19.5249 1419.6151,-22.8679 1423.8941,-28.4078"/>
</g>
<!-- Node27&#45;&gt;Node13 -->
<g id="edge46" class="edge">
<title>Node27&#45;&gt;Node13</title>
<path fill="none" stroke="#191970" d="M1216.4074,-113.5098C1211.5324,-112.9983 1206.7008,-112.492 1202,-112 1051.5355,-96.2532 1009.0917,-107.403 857.356,-75.9105"/>
<polygon fill="#191970" stroke="#191970" points="857.7075,-72.4079 847.2011,-73.7738 856.2661,-79.2579 857.7075,-72.4079"/>
</g>
<!-- Node27&#45;&gt;Node16 -->
<g id="edge43" class="edge">
<title>Node27&#45;&gt;Node16</title>
<path fill="none" stroke="#191970" d="M1233.4736,-112.4369C1167.1531,-102.4532 1063.4363,-86.8399 994.8498,-76.515"/>
<polygon fill="#191970" stroke="#191970" points="994.9844,-72.9959 984.5748,-74.9682 993.9423,-79.9179 994.9844,-72.9959"/>
</g>
<!-- Node27&#45;&gt;Node25 -->
<g id="edge48" class="edge">
<title>Node27&#45;&gt;Node25</title>
<path fill="none" stroke="#191970" d="M1371.968,-112.4369C1466.4993,-100.3782 1625.4127,-80.1068 1697.8945,-70.8608"/>
<polygon fill="#191970" stroke="#191970" points="1698.4668,-74.3163 1707.9435,-69.579 1697.581,-67.3726 1698.4668,-74.3163"/>
</g>
<!-- Node27&#45;&gt;Node26 -->
<g id="edge45" class="edge">
<title>Node27&#45;&gt;Node26</title>
<path fill="none" stroke="#191970" d="M1322.7859,-112.3733C1347.4047,-103.1822 1384.69,-89.2624 1411.9875,-79.0713"/>
<polygon fill="#191970" stroke="#191970" points="1413.4063,-82.2777 1421.5506,-75.5011 1410.958,-75.7198 1413.4063,-82.2777"/>
</g>
<!-- Node28 -->
<g id="node29" class="node">
<title>Node28</title>
<polygon fill="none" stroke="#bfbfbf" points="1588,-56.5 1588,-75.5 1648,-75.5 1648,-56.5 1588,-56.5"/>
<text text-anchor="middle" x="1618" y="-63.5" font-family="FreeSans.ttf" font-size="10.00" fill="#000000">iostream</text>
</g>
<!-- Node27&#45;&gt;Node28 -->
<g id="edge47" class="edge">
<title>Node27&#45;&gt;Node28</title>
<path fill="none" stroke="#191970" d="M1351.8171,-112.4369C1415.8749,-101.2617 1520.364,-83.0331 1577.5138,-73.063"/>
<polygon fill="#191970" stroke="#191970" points="1578.3639,-76.4677 1587.6136,-71.3011 1577.1608,-69.5718 1578.3639,-76.4677"/>
</g>
<!-- Node29&#45;&gt;Node24 -->
<g id="edge50" class="edge">
<title>Node29&#45;&gt;Node24</title>
<path fill="none" stroke="#191970" d="M1418.3947,-392.391C1413.4045,-370.119 1405,-327.1011 1405,-290 1405,-290 1405,-290 1405,-234 1405,-203.3494 1405.342,-191.5164 1425,-168 1437.3243,-153.2567 1455.5733,-142.7095 1472.423,-135.4663"/>
<polygon fill="#191970" stroke="#191970" points="1474.147,-138.5461 1482.1269,-131.5767 1471.5425,-132.0486 1474.147,-138.5461"/>
</g>
<!-- Node30 -->
<g id="node31" class="node">
<title>Node30</title>
<g id="a_node31"><a xlink:href="GeomVector3_8h.html" target="_top" xlink:title="iDynTree/Core/GeomVector3.h">
<polygon fill="none" stroke="#000000" points="1433.5,-168.5 1433.5,-187.5 1596.5,-187.5 1596.5,-168.5 1433.5,-168.5"/>
<text text-anchor="middle" x="1515" y="-175.5" font-family="FreeSans.ttf" font-size="10.00" fill="#000000">iDynTree/Core/GeomVector3.h</text>
</a>
</g>
</g>
<!-- Node29&#45;&gt;Node30 -->
<g id="edge51" class="edge">
<title>Node29&#45;&gt;Node30</title>
<path fill="none" stroke="#191970" d="M1428.102,-392.4419C1444.4132,-352.1901 1489.0144,-242.1259 1507.1625,-197.3409"/>
<polygon fill="#191970" stroke="#191970" points="1510.4771,-198.4806 1510.989,-187.8981 1503.9895,-195.8516 1510.4771,-198.4806"/>
</g>
<!-- Node31 -->
<g id="node32" class="node">
<title>Node31</title>
<g id="a_node32"><a xlink:href="SpatialVector_8h.html" target="_top" xlink:title="iDynTree/Core/SpatialVector.h">
<polygon fill="none" stroke="#000000" points="1502.5,-336.5 1502.5,-355.5 1663.5,-355.5 1663.5,-336.5 1502.5,-336.5"/>
<text text-anchor="middle" x="1583" y="-343.5" font-family="FreeSans.ttf" font-size="10.00" fill="#000000">iDynTree/Core/SpatialVector.h</text>
</a>
</g>
</g>
<!-- Node29&#45;&gt;Node31 -->
<g id="edge53" class="edge">
<title>Node29&#45;&gt;Node31</title>
<path fill="none" stroke="#191970" d="M1461.385,-392.4554C1488.0127,-382.284 1522.8444,-368.9787 1548.4034,-359.2155"/>
<polygon fill="#191970" stroke="#191970" points="1549.958,-362.3684 1558.0507,-355.5303 1547.4601,-355.8292 1549.958,-362.3684"/>
</g>
<!-- Node30&#45;&gt;Node24 -->
<g id="edge52" class="edge">
<title>Node30&#45;&gt;Node24</title>
<path fill="none" stroke="#191970" d="M1515,-168.2455C1515,-160.9382 1515,-150.6944 1515,-141.7046"/>
<polygon fill="#191970" stroke="#191970" points="1518.5001,-141.6426 1515,-131.6427 1511.5001,-141.6427 1518.5001,-141.6426"/>
</g>
<!-- Node31&#45;&gt;Node16 -->
<g id="edge67" class="edge">
<title>Node31&#45;&gt;Node16</title>
<path fill="none" stroke="#191970" d="M1586.0717,-336.227C1596.2933,-302.8535 1627.3353,-194.0249 1606,-168 1554.2765,-104.9074 1503.0323,-158.8704 1426,-132 1407.6072,-125.5842 1405.6854,-117.5057 1387,-112 1377.7077,-109.262 1121.7077,-84.6833 994.8682,-72.6198"/>
<polygon fill="#191970" stroke="#191970" points="995.1413,-69.13 984.8549,-71.6679 994.4788,-76.0986 995.1413,-69.13"/>
</g>
<!-- Node31&#45;&gt;Node25 -->
<g id="edge70" class="edge">
<title>Node31&#45;&gt;Node25</title>
<path fill="none" stroke="#191970" d="M1594.192,-336.2593C1603.7869,-327.4847 1617.5214,-313.8682 1627,-300 1677.0166,-226.8207 1714.8102,-127.043 1729.4128,-85.4466"/>
<polygon fill="#191970" stroke="#191970" points="1732.7321,-86.5572 1732.6918,-75.9624 1726.1163,-84.2699 1732.7321,-86.5572"/>
</g>
<!-- Node31&#45;&gt;Node28 -->
<g id="edge69" class="edge">
<title>Node31&#45;&gt;Node28</title>
<path fill="none" stroke="#191970" d="M1589.1165,-336.2651C1604.9876,-309.9198 1645.7964,-234.7145 1639,-168 1636.0471,-139.0134 1628.4898,-106.1002 1623.2955,-85.6912"/>
<polygon fill="#191970" stroke="#191970" points="1626.6109,-84.5345 1620.6971,-75.7437 1619.8381,-86.3037 1626.6109,-84.5345"/>
</g>
<!-- Node31&#45;&gt;Node30 -->
<g id="edge68" class="edge">
<title>Node31&#45;&gt;Node30</title>
<path fill="none" stroke="#191970" d="M1579.0428,-336.4964C1575.1805,-327.2024 1569.15,-312.6434 1564,-300 1549.149,-263.5407 1532.0672,-220.831 1522.5017,-196.8427"/>
<polygon fill="#191970" stroke="#191970" points="1525.7337,-195.4982 1518.7805,-187.5041 1519.2309,-198.0894 1525.7337,-195.4982"/>
</g>
<!-- Node32 -->
<g id="node33" class="node">
<title>Node32</title>
<g id="a_node33"><a xlink:href="Position_8h.html" target="_top" xlink:title="Position.h">
<polygon fill="none" stroke="#000000" points="1014.5,-280.5 1014.5,-299.5 1079.5,-299.5 1079.5,-280.5 1014.5,-280.5"/>
<text text-anchor="middle" x="1047" y="-287.5" font-family="FreeSans.ttf" font-size="10.00" fill="#000000">Position.h</text>
</a>
</g>
</g>
<!-- Node31&#45;&gt;Node32 -->
<g id="edge54" class="edge">
<title>Node31&#45;&gt;Node32</title>
<path fill="none" stroke="#191970" d="M1502.4654,-337.5859C1387.2068,-325.544 1179.2678,-303.819 1089.8157,-294.4733"/>
<polygon fill="#191970" stroke="#191970" points="1090.0703,-290.9809 1079.7608,-293.4228 1089.3429,-297.943 1090.0703,-290.9809"/>
</g>
<!-- Node34 -->
<g id="node35" class="node">
<title>Node34</title>
<g id="a_node35"><a xlink:href="Rotation_8h.html" target="_top" xlink:title="iDynTree/Core/Rotation.h">
<polygon fill="none" stroke="#000000" points="1191.5,-224.5 1191.5,-243.5 1328.5,-243.5 1328.5,-224.5 1191.5,-224.5"/>
<text text-anchor="middle" x="1260" y="-231.5" font-family="FreeSans.ttf" font-size="10.00" fill="#000000">iDynTree/Core/Rotation.h</text>
</a>
</g>
</g>
<!-- Node31&#45;&gt;Node34 -->
<g id="edge66" class="edge">
<title>Node31&#45;&gt;Node34</title>
<path fill="none" stroke="#191970" d="M1555.4612,-336.4509C1497.4171,-316.3242 1362.4842,-269.5363 1296.9872,-246.8253"/>
<polygon fill="#191970" stroke="#191970" points="1298.0639,-243.4942 1287.4691,-243.5249 1295.7706,-250.1079 1298.0639,-243.4942"/>
</g>
<!-- Node32&#45;&gt;Node13 -->
<g id="edge65" class="edge">
<title>Node32&#45;&gt;Node13</title>
<path fill="none" stroke="#191970" d="M1037.4609,-280.375C1003.0908,-245.6953 885.3192,-126.8627 841.5525,-82.7017"/>
<polygon fill="#191970" stroke="#191970" points="844.0288,-80.2281 834.5035,-75.5891 839.0569,-85.1556 844.0288,-80.2281"/>
</g>
<!-- Node33 -->
<g id="node34" class="node">
<title>Node33</title>
<g id="a_node34"><a xlink:href="PositionRaw_8h.html" target="_top" xlink:title="iDynTree/Core/PositionRaw.h">
<polygon fill="none" stroke="#000000" points="969,-168.5 969,-187.5 1125,-187.5 1125,-168.5 969,-168.5"/>
<text text-anchor="middle" x="1047" y="-175.5" font-family="FreeSans.ttf" font-size="10.00" fill="#000000">iDynTree/Core/PositionRaw.h</text>
</a>
</g>
</g>
<!-- Node32&#45;&gt;Node33 -->
<g id="edge55" class="edge">
<title>Node32&#45;&gt;Node33</title>
<path fill="none" stroke="#191970" d="M1047,-280.4509C1047,-262.184 1047,-221.9553 1047,-197.6976"/>
<polygon fill="#191970" stroke="#191970" points="1050.5001,-197.5249 1047,-187.5249 1043.5001,-197.5249 1050.5001,-197.5249"/>
</g>
<!-- Node32&#45;&gt;Node34 -->
<g id="edge58" class="edge">
<title>Node32&#45;&gt;Node34</title>
<path fill="none" stroke="#191970" d="M1079.8145,-281.3727C1115.6382,-271.9543 1173.2794,-256.7998 1213.697,-246.1736"/>
<polygon fill="#191970" stroke="#191970" points="1214.7965,-249.5035 1223.5778,-243.5758 1213.0165,-242.7336 1214.7965,-249.5035"/>
</g>
<!-- Node33&#45;&gt;Node13 -->
<g id="edge57" class="edge">
<title>Node33&#45;&gt;Node13</title>
<path fill="none" stroke="#191970" d="M1028.0726,-168.3449C1002.7818,-155.4543 956.5579,-131.9308 917,-112 895.8743,-101.356 871.9779,-89.4107 853.8348,-80.3607"/>
<polygon fill="#191970" stroke="#191970" points="854.9124,-76.9872 844.4013,-75.6575 851.7891,-83.2517 854.9124,-76.9872"/>
</g>
<!-- Node33&#45;&gt;Node24 -->
<g id="edge56" class="edge">
<title>Node33&#45;&gt;Node24</title>
<path fill="none" stroke="#191970" d="M1125.0692,-168.6584C1207.8722,-158.7503 1338.4823,-143.1218 1425.4196,-132.719"/>
<polygon fill="#191970" stroke="#191970" points="1426.0218,-136.172 1435.5351,-131.5086 1425.1901,-129.2216 1426.0218,-136.172"/>
</g>
<!-- Node34&#45;&gt;Node13 -->
<g id="edge59" class="edge">
<title>Node34&#45;&gt;Node13</title>
<path fill="none" stroke="#191970" d="M1241.4508,-224.3231C1223.6361,-215.0248 1195.9684,-200.5719 1172,-188 1155.0986,-179.1349 1151.5663,-175.4613 1134,-168 1120.7507,-162.3724 932.6766,-101.0328 856.5976,-76.2741"/>
<polygon fill="#191970" stroke="#191970" points="857.6457,-72.9346 847.0534,-73.1689 855.4799,-79.5911 857.6457,-72.9346"/>
</g>
<!-- Node34&#45;&gt;Node24 -->
<g id="edge64" class="edge">
<title>Node34&#45;&gt;Node24</title>
<path fill="none" stroke="#191970" d="M1277.4997,-224.3959C1302.3437,-210.9436 1349.4441,-186.1091 1391,-168 1419.3058,-155.665 1452.0889,-143.5963 1476.8354,-134.9176"/>
<polygon fill="#191970" stroke="#191970" points="1478.2777,-138.1217 1486.5735,-131.5317 1475.9787,-131.51 1478.2777,-138.1217"/>
</g>
<!-- Node34&#45;&gt;Node30 -->
<g id="edge60" class="edge">
<title>Node34&#45;&gt;Node30</title>
<path fill="none" stroke="#191970" d="M1303.5463,-224.4369C1347.2793,-214.8328 1414.7345,-200.0191 1461.6542,-189.7152"/>
<polygon fill="#191970" stroke="#191970" points="1462.6168,-193.0872 1471.6333,-187.5237 1461.1153,-186.2502 1462.6168,-193.0872"/>
</g>
<!-- Node35 -->
<g id="node36" class="node">
<title>Node35</title>
<g id="a_node36"><a xlink:href="RotationRaw_8h.html" target="_top" xlink:title="iDynTree/Core/RotationRaw.h">
<polygon fill="none" stroke="#000000" points="1181,-168.5 1181,-187.5 1339,-187.5 1339,-168.5 1181,-168.5"/>
<text text-anchor="middle" x="1260" y="-175.5" font-family="FreeSans.ttf" font-size="10.00" fill="#000000">iDynTree/Core/RotationRaw.h</text>
</a>
</g>
</g>
<!-- Node34&#45;&gt;Node35 -->
<g id="edge61" class="edge">
<title>Node34&#45;&gt;Node35</title>
<path fill="none" stroke="#191970" d="M1260,-224.2455C1260,-216.9382 1260,-206.6944 1260,-197.7046"/>
<polygon fill="#191970" stroke="#191970" points="1263.5001,-197.6426 1260,-187.6427 1256.5001,-197.6427 1263.5001,-197.6426"/>
</g>
<!-- Node35&#45;&gt;Node13 -->
<g id="edge63" class="edge">
<title>Node35&#45;&gt;Node13</title>
<path fill="none" stroke="#191970" d="M1249.7575,-168.38C1233.1903,-153.4567 1198.8382,-125.0862 1164,-112 1038.0049,-64.6727 992.7947,-103.3879 857.1347,-75.8392"/>
<polygon fill="#191970" stroke="#191970" points="857.7164,-72.3848 847.2085,-73.739 856.2674,-79.2332 857.7164,-72.3848"/>
</g>
<!-- Node35&#45;&gt;Node27 -->
<g id="edge62" class="edge">
<title>Node35&#45;&gt;Node27</title>
<path fill="none" stroke="#191970" d="M1266.4449,-168.2455C1271.5382,-160.5367 1278.7908,-149.5598 1284.952,-140.2348"/>
<polygon fill="#191970" stroke="#191970" points="1288.0365,-141.9155 1290.6289,-131.6427 1282.1962,-138.0566 1288.0365,-141.9155"/>
</g>
<!-- Node36&#45;&gt;Node24 -->
<g id="edge72" class="edge">
<title>Node36&#45;&gt;Node24</title>
<path fill="none" stroke="#191970" d="M1655.7767,-392.3813C1667.9221,-383.4661 1681.3406,-370.9917 1688,-356 1713.9206,-297.6469 1797.9832,-338.7664 1639,-168 1623.9398,-151.8237 1602.6743,-141.3086 1581.999,-134.4846"/>
<polygon fill="#191970" stroke="#191970" points="1582.8333,-131.0799 1572.2473,-131.5122 1580.7924,-137.7758 1582.8333,-131.0799"/>
</g>
<!-- Node36&#45;&gt;Node30 -->
<g id="edge73" class="edge">
<title>Node36&#45;&gt;Node30</title>
<path fill="none" stroke="#191970" d="M1649.7303,-392.2479C1664.562,-378.1965 1681.4843,-356.4828 1673,-336 1645.8342,-270.4161 1576.774,-217.8613 1539.5933,-193.2195"/>
<polygon fill="#191970" stroke="#191970" points="1541.1672,-190.0687 1530.8724,-187.5651 1537.3589,-195.9421 1541.1672,-190.0687"/>
</g>
<!-- Node36&#45;&gt;Node31 -->
<g id="edge74" class="edge">
<title>Node36&#45;&gt;Node31</title>
<path fill="none" stroke="#191970" d="M1619.1348,-392.2977C1612.4025,-383.672 1603.9415,-372.8312 1596.8994,-363.8087"/>
<polygon fill="#191970" stroke="#191970" points="1599.5973,-361.5766 1590.6854,-355.8469 1594.079,-365.8836 1599.5973,-361.5766"/>
</g>
<!-- Node37&#45;&gt;Node13 -->
<g id="edge79" class="edge">
<title>Node37&#45;&gt;Node13</title>
<path fill="none" stroke="#191970" d="M955.37,-336.2001C925.6811,-308.0101 842.1504,-222.8936 813,-132 808.0608,-116.599 812.0118,-98.4847 816.6611,-85.1332"/>
<polygon fill="#191970" stroke="#191970" points="820.0104,-86.1777 820.3829,-75.5894 813.4888,-83.6344 820.0104,-86.1777"/>
</g>
<!-- Node37&#45;&gt;Node27 -->
<g id="edge78" class="edge">
<title>Node37&#45;&gt;Node27</title>
<path fill="none" stroke="#191970" d="M961.7092,-336.4094C949.2979,-307.0475 916.8966,-217.3867 960,-168 976.0389,-149.6231 1111.7603,-135.8056 1205.99,-128.3173"/>
<polygon fill="#191970" stroke="#191970" points="1206.4212,-131.7944 1216.1174,-127.5241 1205.8746,-124.8157 1206.4212,-131.7944"/>
</g>
<!-- Node37&#45;&gt;Node32 -->
<g id="edge76" class="edge">
<title>Node37&#45;&gt;Node32</title>
<path fill="none" stroke="#191970" d="M980.1091,-336.2455C992.4209,-327.7337 1010.4958,-315.2375 1024.7538,-305.3801"/>
<polygon fill="#191970" stroke="#191970" points="1026.8174,-308.2085 1033.0526,-299.6427 1022.8366,-302.4506 1026.8174,-308.2085"/>
</g>
<!-- Node37&#45;&gt;Node34 -->
<g id="edge77" class="edge">
<title>Node37&#45;&gt;Node34</title>
<path fill="none" stroke="#191970" d="M991.9453,-336.3866C1016.8588,-327.1344 1055.5401,-312.7135 1089,-300 1136.5157,-281.9458 1191.3098,-260.7265 1225.8006,-247.3207"/>
<polygon fill="#191970" stroke="#191970" points="1227.3432,-250.4763 1235.3946,-243.5898 1224.806,-243.9523 1227.3432,-250.4763"/>
</g>
</g>
</svg>
