<?xml version="1.0" encoding="UTF-8" standalone="no"?>
<!DOCTYPE svg PUBLIC "-//W3C//DTD SVG 1.1//EN"
 "http://www.w3.org/Graphics/SVG/1.1/DTD/svg11.dtd">
<!-- Generated by graphviz version 2.40.1 (20161225.0304)
 -->
<!-- Title: InverseKinematicsNLP.cpp Pages: 1 -->
<svg width="2405pt" height="722pt"
 viewBox="0.00 0.00 2405.23 722.00" xmlns="http://www.w3.org/2000/svg" xmlns:xlink="http://www.w3.org/1999/xlink">
<g id="graph0" class="graph" transform="scale(1 1) rotate(0) translate(4 718)">
<title>InverseKinematicsNLP.cpp</title>
<!-- Node0 -->
<g id="node1" class="node">
<title>Node0</title>
<polygon fill="#bfbfbf" stroke="#000000" points="607.5,-694.5 607.5,-713.5 752.5,-713.5 752.5,-694.5 607.5,-694.5"/>
<text text-anchor="middle" x="680" y="-701.5" font-family="FreeSans.ttf" font-size="10.00" fill="#000000">InverseKinematicsNLP.cpp</text>
</g>
<!-- Node1 -->
<g id="node2" class="node">
<title>Node1</title>
<g id="a_node2"><a xlink:href="InverseKinematicsNLP_8h.html" target="_top" xlink:title="InverseKinematicsNLP.h">
<polygon fill="none" stroke="#000000" points="503,-521 503,-540 637,-540 637,-521 503,-521"/>
<text text-anchor="middle" x="570" y="-528" font-family="FreeSans.ttf" font-size="10.00" fill="#000000">InverseKinematicsNLP.h</text>
</a>
</g>
</g>
<!-- Node0&#45;&gt;Node1 -->
<g id="edge1" class="edge">
<title>Node0&#45;&gt;Node1</title>
<path fill="none" stroke="#191970" d="M657.4407,-694.4999C641.7448,-686.8071 621.4731,-674.5315 609,-658 584.3578,-625.3397 575.1519,-577.0003 571.8138,-550.2014"/>
<polygon fill="#191970" stroke="#191970" points="575.2804,-549.704 570.7145,-540.1434 568.3218,-550.4645 575.2804,-549.704"/>
</g>
<!-- Node7 -->
<g id="node8" class="node">
<title>Node7</title>
<polygon fill="none" stroke="#bfbfbf" points="312,-.5 312,-19.5 364,-19.5 364,-.5 312,-.5"/>
<text text-anchor="middle" x="338" y="-7.5" font-family="FreeSans.ttf" font-size="10.00" fill="#000000">cassert</text>
</g>
<!-- Node0&#45;&gt;Node7 -->
<g id="edge123" class="edge">
<title>Node0&#45;&gt;Node7</title>
<path fill="none" stroke="#191970" d="M607.2281,-699.567C431.8066,-687.9103 0,-653.0195 0,-592 0,-592 0,-592 0,-122 0,-58.9581 214.547,-25.2765 301.7755,-14.1878"/>
<polygon fill="#191970" stroke="#191970" points="302.267,-17.6537 311.759,-12.9471 301.4036,-10.7072 302.267,-17.6537"/>
</g>
<!-- Node32 -->
<g id="node29" class="node">
<title>Node32</title>
<g id="a_node29"><a xlink:href="InverseKinematicsData_8h.html" target="_top" xlink:title="InverseKinematicsData.h">
<polygon fill="none" stroke="#000000" points="861,-638.5 861,-657.5 1001,-657.5 1001,-638.5 861,-638.5"/>
<text text-anchor="middle" x="931" y="-645.5" font-family="FreeSans.ttf" font-size="10.00" fill="#000000">InverseKinematicsData.h</text>
</a>
</g>
</g>
<!-- Node0&#45;&gt;Node32 -->
<g id="edge52" class="edge">
<title>Node0&#45;&gt;Node32</title>
<path fill="none" stroke="#191970" d="M722.8632,-694.4369C765.9102,-684.8328 832.3073,-670.0191 878.491,-659.7152"/>
<polygon fill="#191970" stroke="#191970" points="879.3157,-663.1173 888.3135,-657.5237 877.7913,-656.2853 879.3157,-663.1173"/>
</g>
<!-- Node56 -->
<g id="node45" class="node">
<title>Node56</title>
<g id="a_node45"><a xlink:href="TransformConstraint_8h.html" target="_top" xlink:title="TransformConstraint.h">
<polygon fill="none" stroke="#000000" points="617.5,-638.5 617.5,-657.5 742.5,-657.5 742.5,-638.5 617.5,-638.5"/>
<text text-anchor="middle" x="680" y="-645.5" font-family="FreeSans.ttf" font-size="10.00" fill="#000000">TransformConstraint.h</text>
</a>
</g>
</g>
<!-- Node0&#45;&gt;Node56 -->
<g id="edge106" class="edge">
<title>Node0&#45;&gt;Node56</title>
<path fill="none" stroke="#191970" d="M680,-694.2455C680,-686.9382 680,-676.6944 680,-667.7046"/>
<polygon fill="#191970" stroke="#191970" points="683.5001,-667.6426 680,-657.6427 676.5001,-667.6427 683.5001,-667.6426"/>
</g>
<!-- Node57 -->
<g id="node46" class="node">
<title>Node57</title>
<polygon fill="none" stroke="#bfbfbf" points="1019.5,-638.5 1019.5,-657.5 1088.5,-657.5 1088.5,-638.5 1019.5,-638.5"/>
<text text-anchor="middle" x="1054" y="-645.5" font-family="FreeSans.ttf" font-size="10.00" fill="#000000">Eigen/Core</text>
</g>
<!-- Node0&#45;&gt;Node57 -->
<g id="edge109" class="edge">
<title>Node0&#45;&gt;Node57</title>
<path fill="none" stroke="#191970" d="M752.7075,-695.6666C817.4705,-687.8319 915.0019,-675.0257 1009.4552,-657.9663"/>
<polygon fill="#191970" stroke="#191970" points="1010.2605,-661.3773 1019.4699,-656.1392 1009.0041,-654.4909 1010.2605,-661.3773"/>
</g>
<!-- Node58 -->
<g id="node47" class="node">
<title>Node58</title>
<g id="a_node47"><a xlink:href="EigenHelpers_8h.html" target="_top" xlink:title="iDynTree/Core/EigenHelpers.h">
<polygon fill="none" stroke="#000000" points="198.5,-521 198.5,-540 359.5,-540 359.5,-521 198.5,-521"/>
<text text-anchor="middle" x="279" y="-528" font-family="FreeSans.ttf" font-size="10.00" fill="#000000">iDynTree/Core/EigenHelpers.h</text>
</a>
</g>
</g>
<!-- Node0&#45;&gt;Node58 -->
<g id="edge110" class="edge">
<title>Node0&#45;&gt;Node58</title>
<path fill="none" stroke="#191970" d="M657.8693,-694.4248C590.6358,-665.3349 388.6043,-577.9223 310.3972,-544.0846"/>
<polygon fill="#191970" stroke="#191970" points="311.6299,-540.8044 301.0623,-540.0457 308.8502,-547.2289 311.6299,-540.8044"/>
</g>
<!-- Node60 -->
<g id="node50" class="node">
<title>Node60</title>
<polygon fill="none" stroke="#bfbfbf" points="1106.5,-638.5 1106.5,-657.5 1153.5,-657.5 1153.5,-638.5 1106.5,-638.5"/>
<text text-anchor="middle" x="1130" y="-645.5" font-family="FreeSans.ttf" font-size="10.00" fill="#000000">cmath</text>
</g>
<!-- Node0&#45;&gt;Node60 -->
<g id="edge124" class="edge">
<title>Node0&#45;&gt;Node60</title>
<path fill="none" stroke="#191970" d="M752.788,-700.2635C834.5047,-695.1114 971.047,-683.6319 1096.2253,-658.0533"/>
<polygon fill="#191970" stroke="#191970" points="1097.291,-661.4067 1106.369,-655.944 1095.8658,-654.5533 1097.291,-661.4067"/>
</g>
<!-- Node2 -->
<g id="node3" class="node">
<title>Node2</title>
<polygon fill="none" stroke="#bfbfbf" points="594,-459.5 594,-478.5 664,-478.5 664,-459.5 594,-459.5"/>
<text text-anchor="middle" x="629" y="-466.5" font-family="FreeSans.ttf" font-size="10.00" fill="#000000">IpTNLP.hpp</text>
</g>
<!-- Node1&#45;&gt;Node2 -->
<g id="edge2" class="edge">
<title>Node1&#45;&gt;Node2</title>
<path fill="none" stroke="#191970" d="M579.2188,-520.8906C588.0858,-511.6478 601.6912,-497.466 612.4389,-486.2628"/>
<polygon fill="#191970" stroke="#191970" points="615.2541,-488.3841 619.6513,-478.7449 610.2027,-483.5381 615.2541,-488.3841"/>
</g>
<!-- Node3 -->
<g id="node4" class="node">
<title>Node3</title>
<g id="a_node4"><a xlink:href="VectorFixSize_8h.html" target="_top" xlink:title="iDynTree/Core/VectorFixSize.h">
<polygon fill="none" stroke="#000000" points="433.5,-112.5 433.5,-131.5 594.5,-131.5 594.5,-112.5 433.5,-112.5"/>
<text text-anchor="middle" x="514" y="-119.5" font-family="FreeSans.ttf" font-size="10.00" fill="#000000">iDynTree/Core/VectorFixSize.h</text>
</a>
</g>
</g>
<!-- Node1&#45;&gt;Node3 -->
<g id="edge3" class="edge">
<title>Node1&#45;&gt;Node3</title>
<path fill="none" stroke="#191970" d="M569.8225,-520.8968C569.333,-493.5557 568,-412.9492 568,-346 568,-346 568,-346 568,-234 568,-197.7347 544.7441,-160.8332 528.7557,-139.7487"/>
<polygon fill="#191970" stroke="#191970" points="531.3753,-137.418 522.4375,-131.7289 525.8767,-141.75 531.3753,-137.418"/>
</g>
<!-- Node18 -->
<g id="node17" class="node">
<title>Node18</title>
<g id="a_node17"><a xlink:href="VectorDynSize_8h.html" target="_top" xlink:title="iDynTree/Core/VectorDynSize.h">
<polygon fill="none" stroke="#000000" points="775.5,-459.5 775.5,-478.5 942.5,-478.5 942.5,-459.5 775.5,-459.5"/>
<text text-anchor="middle" x="859" y="-466.5" font-family="FreeSans.ttf" font-size="10.00" fill="#000000">iDynTree/Core/VectorDynSize.h</text>
</a>
</g>
</g>
<!-- Node1&#45;&gt;Node18 -->
<g id="edge18" class="edge">
<title>Node1&#45;&gt;Node18</title>
<path fill="none" stroke="#191970" d="M614.8392,-520.9581C665.8843,-510.0956 749.2798,-492.3488 804.1553,-480.6711"/>
<polygon fill="#191970" stroke="#191970" points="805.0032,-484.0691 814.0556,-478.5643 803.5461,-477.2224 805.0032,-484.0691"/>
</g>
<!-- Node19 -->
<g id="node18" class="node">
<title>Node19</title>
<g id="a_node18"><a xlink:href="MatrixDynSize_8h.html" target="_top" xlink:title="iDynTree/Core/MatrixDynSize.h">
<polygon fill="none" stroke="#000000" points="1276.5,-459.5 1276.5,-478.5 1443.5,-478.5 1443.5,-459.5 1276.5,-459.5"/>
<text text-anchor="middle" x="1360" y="-466.5" font-family="FreeSans.ttf" font-size="10.00" fill="#000000">iDynTree/Core/MatrixDynSize.h</text>
</a>
</g>
</g>
<!-- Node1&#45;&gt;Node19 -->
<g id="edge21" class="edge">
<title>Node1&#45;&gt;Node19</title>
<path fill="none" stroke="#191970" d="M637.0142,-525.2831C777.7335,-514.3283 1104.2925,-488.9063 1265.9184,-476.3241"/>
<polygon fill="#191970" stroke="#191970" points="1266.624,-479.7798 1276.3222,-475.5142 1266.0806,-472.8009 1266.624,-479.7798"/>
</g>
<!-- Node20 -->
<g id="node19" class="node">
<title>Node20</title>
<g id="a_node19"><a xlink:href="Twist_8h.html" target="_top" xlink:title="iDynTree/Core/Twist.h">
<polygon fill="none" stroke="#000000" points="416,-459.5 416,-478.5 538,-478.5 538,-459.5 416,-459.5"/>
<text text-anchor="middle" x="477" y="-466.5" font-family="FreeSans.ttf" font-size="10.00" fill="#000000">iDynTree/Core/Twist.h</text>
</a>
</g>
</g>
<!-- Node1&#45;&gt;Node20 -->
<g id="edge23" class="edge">
<title>Node1&#45;&gt;Node20</title>
<path fill="none" stroke="#191970" d="M555.4688,-520.8906C540.5906,-511.0519 517.2496,-495.6167 499.8872,-484.1351"/>
<polygon fill="#191970" stroke="#191970" points="501.701,-481.1385 491.4292,-478.5419 497.8398,-486.9773 501.701,-481.1385"/>
</g>
<!-- Node30 -->
<g id="node26" class="node">
<title>Node30</title>
<g id="a_node26"><a xlink:href="Transform_8h.html" target="_top" xlink:title="iDynTree/Core/Transform.h">
<polygon fill="none" stroke="#000000" points="961,-459.5 961,-478.5 1107,-478.5 1107,-459.5 961,-459.5"/>
<text text-anchor="middle" x="1034" y="-466.5" font-family="FreeSans.ttf" font-size="10.00" fill="#000000">iDynTree/Core/Transform.h</text>
</a>
</g>
</g>
<!-- Node1&#45;&gt;Node30 -->
<g id="edge40" class="edge">
<title>Node1&#45;&gt;Node30</title>
<path fill="none" stroke="#191970" d="M617.0178,-520.9254C628.1341,-518.822 639.9645,-516.7136 651,-515 780.8852,-494.8308 816.5165,-495.1273 950.4413,-479.1781"/>
<polygon fill="#191970" stroke="#191970" points="951.1715,-482.6157 960.6834,-477.9496 950.3378,-475.6655 951.1715,-482.6157"/>
</g>
<!-- Node31 -->
<g id="node28" class="node">
<title>Node31</title>
<polygon fill="none" stroke="#bfbfbf" points="682,-459.5 682,-478.5 720,-478.5 720,-459.5 682,-459.5"/>
<text text-anchor="middle" x="701" y="-466.5" font-family="FreeSans.ttf" font-size="10.00" fill="#000000">map</text>
</g>
<!-- Node1&#45;&gt;Node31 -->
<g id="edge51" class="edge">
<title>Node1&#45;&gt;Node31</title>
<path fill="none" stroke="#191970" d="M590.4688,-520.8906C612.5763,-510.5119 647.9493,-493.9055 672.7085,-482.2819"/>
<polygon fill="#191970" stroke="#191970" points="674.3868,-485.3606 681.9515,-477.9426 671.412,-479.0241 674.3868,-485.3606"/>
</g>
<!-- Node4 -->
<g id="node5" class="node">
<title>Node4</title>
<g id="a_node5"><a xlink:href="Utils_8h.html" target="_top" xlink:title="iDynTree/Core/Utils.h">
<polygon fill="none" stroke="#000000" points="469.5,-56.5 469.5,-75.5 588.5,-75.5 588.5,-56.5 469.5,-56.5"/>
<text text-anchor="middle" x="529" y="-63.5" font-family="FreeSans.ttf" font-size="10.00" fill="#000000">iDynTree/Core/Utils.h</text>
</a>
</g>
</g>
<!-- Node3&#45;&gt;Node4 -->
<g id="edge4" class="edge">
<title>Node3&#45;&gt;Node4</title>
<path fill="none" stroke="#191970" d="M516.6128,-112.2455C518.5916,-104.8579 521.3744,-94.4689 523.8012,-85.4087"/>
<polygon fill="#191970" stroke="#191970" points="527.2105,-86.2078 526.4171,-75.6427 520.4489,-84.3966 527.2105,-86.2078"/>
</g>
<!-- Node6 -->
<g id="node7" class="node">
<title>Node6</title>
<g id="a_node7"><a xlink:href="Span_8h.html" target="_top" xlink:title="iDynTree/Core/Span.h">
<polygon fill="none" stroke="#ff0000" points="608.5,-56.5 608.5,-75.5 729.5,-75.5 729.5,-56.5 608.5,-56.5"/>
<text text-anchor="middle" x="669" y="-63.5" font-family="FreeSans.ttf" font-size="10.00" fill="#000000">iDynTree/Core/Span.h</text>
</a>
</g>
</g>
<!-- Node3&#45;&gt;Node6 -->
<g id="edge6" class="edge">
<title>Node3&#45;&gt;Node6</title>
<path fill="none" stroke="#191970" d="M540.6454,-112.3733C566.1964,-103.1419 604.9512,-89.1402 633.1909,-78.9375"/>
<polygon fill="#191970" stroke="#191970" points="634.4865,-82.1909 642.7022,-75.5011 632.1079,-75.6074 634.4865,-82.1909"/>
</g>
<!-- Node3&#45;&gt;Node7 -->
<g id="edge16" class="edge">
<title>Node3&#45;&gt;Node7</title>
<path fill="none" stroke="#191970" d="M501.5368,-112.3176C484.1549,-98.9876 451.4481,-74.5305 422,-56 403.8838,-44.6002 382.7461,-33.0333 366.2069,-24.35"/>
<polygon fill="#191970" stroke="#191970" points="367.5449,-21.101 357.0578,-19.5938 364.3161,-27.3118 367.5449,-21.101"/>
</g>
<!-- Node15 -->
<g id="node14" class="node">
<title>Node15</title>
<polygon fill="none" stroke="#bfbfbf" points="1113,-56.5 1113,-75.5 1157,-75.5 1157,-56.5 1113,-56.5"/>
<text text-anchor="middle" x="1135" y="-63.5" font-family="FreeSans.ttf" font-size="10.00" fill="#000000">string</text>
</g>
<!-- Node3&#45;&gt;Node15 -->
<g id="edge14" class="edge">
<title>Node3&#45;&gt;Node15</title>
<path fill="none" stroke="#191970" d="M594.5483,-114.7364C732.6403,-102.2836 1008.787,-77.3815 1102.7993,-68.9038"/>
<polygon fill="#191970" stroke="#191970" points="1103.1938,-72.3825 1112.839,-67.9984 1102.565,-65.4108 1103.1938,-72.3825"/>
</g>
<!-- Node16 -->
<g id="node15" class="node">
<title>Node16</title>
<polygon fill="none" stroke="#bfbfbf" points="289,-56.5 289,-75.5 345,-75.5 345,-56.5 289,-56.5"/>
<text text-anchor="middle" x="317" y="-63.5" font-family="FreeSans.ttf" font-size="10.00" fill="#000000">sstream</text>
</g>
<!-- Node3&#45;&gt;Node16 -->
<g id="edge15" class="edge">
<title>Node3&#45;&gt;Node16</title>
<path fill="none" stroke="#191970" d="M480.1345,-112.3733C445.2415,-102.4544 390.9742,-87.0282 354.728,-76.7247"/>
<polygon fill="#191970" stroke="#191970" points="355.5896,-73.331 345.0136,-73.9633 353.6755,-80.0643 355.5896,-73.331"/>
</g>
<!-- Node17 -->
<g id="node16" class="node">
<title>Node17</title>
<polygon fill="none" stroke="#bfbfbf" points="363,-56.5 363,-75.5 413,-75.5 413,-56.5 363,-56.5"/>
<text text-anchor="middle" x="388" y="-63.5" font-family="FreeSans.ttf" font-size="10.00" fill="#000000">cstring</text>
</g>
<!-- Node3&#45;&gt;Node17 -->
<g id="edge17" class="edge">
<title>Node3&#45;&gt;Node17</title>
<path fill="none" stroke="#191970" d="M492.3398,-112.3733C472.0228,-103.3435 441.436,-89.7494 418.625,-79.6111"/>
<polygon fill="#191970" stroke="#191970" points="419.9372,-76.3642 409.3775,-75.5011 417.0941,-82.7609 419.9372,-76.3642"/>
</g>
<!-- Node5 -->
<g id="node6" class="node">
<title>Node5</title>
<polygon fill="none" stroke="#bfbfbf" points="482.5,-.5 482.5,-19.5 535.5,-19.5 535.5,-.5 482.5,-.5"/>
<text text-anchor="middle" x="509" y="-7.5" font-family="FreeSans.ttf" font-size="10.00" fill="#000000">cstddef</text>
</g>
<!-- Node4&#45;&gt;Node5 -->
<g id="edge5" class="edge">
<title>Node4&#45;&gt;Node5</title>
<path fill="none" stroke="#191970" d="M525.5163,-56.2455C522.8492,-48.7776 519.0867,-38.2427 515.8263,-29.1137"/>
<polygon fill="#191970" stroke="#191970" points="519.1033,-27.8829 512.4438,-19.6427 512.5111,-30.2373 519.1033,-27.8829"/>
</g>
<!-- Node6&#45;&gt;Node5 -->
<g id="edge10" class="edge">
<title>Node6&#45;&gt;Node5</title>
<path fill="none" stroke="#191970" d="M641.495,-56.3733C614.8441,-47.0454 574.277,-32.8469 545.0536,-22.6188"/>
<polygon fill="#191970" stroke="#191970" points="546.2092,-19.3151 535.6144,-19.315 543.8967,-25.9221 546.2092,-19.3151"/>
</g>
<!-- Node6&#45;&gt;Node7 -->
<g id="edge7" class="edge">
<title>Node6&#45;&gt;Node7</title>
<path fill="none" stroke="#191970" d="M612.4752,-56.4369C544.3359,-44.9088 431.8312,-25.8748 374.3135,-16.1437"/>
<polygon fill="#191970" stroke="#191970" points="374.6805,-12.6561 364.2367,-14.4388 373.5127,-19.558 374.6805,-12.6561"/>
</g>
<!-- Node8 -->
<g id="node9" class="node">
<title>Node8</title>
<polygon fill="none" stroke="#bfbfbf" points="637,-.5 637,-19.5 701,-19.5 701,-.5 637,-.5"/>
<text text-anchor="middle" x="669" y="-7.5" font-family="FreeSans.ttf" font-size="10.00" fill="#000000">algorithm</text>
</g>
<!-- Node6&#45;&gt;Node8 -->
<g id="edge8" class="edge">
<title>Node6&#45;&gt;Node8</title>
<path fill="none" stroke="#191970" d="M669,-56.2455C669,-48.9382 669,-38.6944 669,-29.7046"/>
<polygon fill="#191970" stroke="#191970" points="672.5001,-29.6426 669,-19.6427 665.5001,-29.6427 672.5001,-29.6426"/>
</g>
<!-- Node9 -->
<g id="node10" class="node">
<title>Node9</title>
<polygon fill="none" stroke="#bfbfbf" points="719,-.5 719,-19.5 761,-19.5 761,-.5 719,-.5"/>
<text text-anchor="middle" x="740" y="-7.5" font-family="FreeSans.ttf" font-size="10.00" fill="#000000">array</text>
</g>
<!-- Node6&#45;&gt;Node9 -->
<g id="edge9" class="edge">
<title>Node6&#45;&gt;Node9</title>
<path fill="none" stroke="#191970" d="M681.3673,-56.2455C691.9554,-47.8943 707.4064,-35.7076 719.7893,-25.9408"/>
<polygon fill="#191970" stroke="#191970" points="722.0903,-28.5837 727.7745,-19.6427 717.7553,-23.0875 722.0903,-28.5837"/>
</g>
<!-- Node10 -->
<g id="node11" class="node">
<title>Node10</title>
<polygon fill="none" stroke="#bfbfbf" points="779.5,-.5 779.5,-19.5 832.5,-19.5 832.5,-.5 779.5,-.5"/>
<text text-anchor="middle" x="806" y="-7.5" font-family="FreeSans.ttf" font-size="10.00" fill="#000000">iterator</text>
</g>
<!-- Node6&#45;&gt;Node10 -->
<g id="edge11" class="edge">
<title>Node6&#45;&gt;Node10</title>
<path fill="none" stroke="#191970" d="M692.5511,-56.3733C714.8391,-47.2629 748.4937,-33.5062 773.3637,-23.3404"/>
<polygon fill="#191970" stroke="#191970" points="774.8239,-26.5247 782.7562,-19.5011 772.1753,-20.0451 774.8239,-26.5247"/>
</g>
<!-- Node11 -->
<g id="node12" class="node">
<title>Node11</title>
<polygon fill="none" stroke="#bfbfbf" points="851,-.5 851,-19.5 895,-19.5 895,-.5 851,-.5"/>
<text text-anchor="middle" x="873" y="-7.5" font-family="FreeSans.ttf" font-size="10.00" fill="#000000">limits</text>
</g>
<!-- Node6&#45;&gt;Node11 -->
<g id="edge12" class="edge">
<title>Node6&#45;&gt;Node11</title>
<path fill="none" stroke="#191970" d="M707.2967,-56.4281C740.3987,-48.0183 789.7302,-35.162 841.0832,-20.1727"/>
<polygon fill="#191970" stroke="#191970" points="842.0842,-23.5266 850.692,-17.3496 840.1109,-16.8105 842.0842,-23.5266"/>
</g>
<!-- Node12 -->
<g id="node13" class="node">
<title>Node12</title>
<polygon fill="none" stroke="#bfbfbf" points="553.5,-.5 553.5,-19.5 618.5,-19.5 618.5,-.5 553.5,-.5"/>
<text text-anchor="middle" x="586" y="-7.5" font-family="FreeSans.ttf" font-size="10.00" fill="#000000">stdexcept</text>
</g>
<!-- Node6&#45;&gt;Node12 -->
<g id="edge13" class="edge">
<title>Node6&#45;&gt;Node12</title>
<path fill="none" stroke="#191970" d="M654.5425,-56.2455C641.9268,-47.7337 623.4056,-35.2375 608.7955,-25.3801"/>
<polygon fill="#191970" stroke="#191970" points="610.5391,-22.3343 600.2918,-19.6427 606.6239,-28.1371 610.5391,-22.3343"/>
</g>
<!-- Node18&#45;&gt;Node6 -->
<g id="edge19" class="edge">
<title>Node18&#45;&gt;Node6</title>
<path fill="none" stroke="#191970" d="M865.8754,-459.4666C889.5435,-425.386 963.7396,-307.1944 918,-224 874.0474,-144.056 770.6417,-98.8527 711.8437,-78.7597"/>
<polygon fill="#191970" stroke="#191970" points="712.7007,-75.3563 702.1072,-75.5228 710.4923,-81.9989 712.7007,-75.3563"/>
</g>
<!-- Node18&#45;&gt;Node15 -->
<g id="edge20" class="edge">
<title>Node18&#45;&gt;Node15</title>
<path fill="none" stroke="#191970" d="M914.4456,-459.4827C973.6345,-445.7705 1059,-414.1763 1059,-346 1059,-346 1059,-346 1059,-178 1059,-138.2361 1092.2071,-102.1042 1114.7208,-82.177"/>
<polygon fill="#191970" stroke="#191970" points="1117.1079,-84.7412 1122.4501,-75.5918 1112.5683,-79.4128 1117.1079,-84.7412"/>
</g>
<!-- Node19&#45;&gt;Node15 -->
<g id="edge22" class="edge">
<title>Node19&#45;&gt;Node15</title>
<path fill="none" stroke="#191970" d="M1355.01,-459.4118C1344.9106,-439.0868 1323,-389.9298 1323,-346 1323,-346 1323,-346 1323,-178 1323,-106.409 1221.1379,-79.5282 1167.3718,-70.3261"/>
<polygon fill="#191970" stroke="#191970" points="1167.7321,-66.8392 1157.3043,-68.7133 1166.6248,-73.7511 1167.7321,-66.8392"/>
</g>
<!-- Node21 -->
<g id="node20" class="node">
<title>Node21</title>
<g id="a_node20"><a xlink:href="SpatialMotionVector_8h.html" target="_top" xlink:title="iDynTree/Core/SpatialMotion\lVector.h">
<polygon fill="none" stroke="#000000" points="308.5,-392.5 308.5,-422.5 463.5,-422.5 463.5,-392.5 308.5,-392.5"/>
<text text-anchor="start" x="316.5" y="-410.5" font-family="FreeSans.ttf" font-size="10.00" fill="#000000">iDynTree/Core/SpatialMotion</text>
<text text-anchor="middle" x="386" y="-399.5" font-family="FreeSans.ttf" font-size="10.00" fill="#000000">Vector.h</text>
</a>
</g>
</g>
<!-- Node20&#45;&gt;Node21 -->
<g id="edge24" class="edge">
<title>Node20&#45;&gt;Node21</title>
<path fill="none" stroke="#191970" d="M462.7813,-459.3906C450.4655,-451.0673 432.2234,-438.7389 416.6103,-428.1872"/>
<polygon fill="#191970" stroke="#191970" points="418.5063,-425.2442 408.2611,-422.5446 414.5866,-431.0439 418.5063,-425.2442"/>
</g>
<!-- Node21&#45;&gt;Node3 -->
<g id="edge25" class="edge">
<title>Node21&#45;&gt;Node3</title>
<path fill="none" stroke="#191970" d="M424.8659,-392.3718C441.8407,-383.9811 460.6513,-371.9669 473,-356 491.6743,-331.8541 492,-320.5246 492,-290 492,-290 492,-290 492,-234 492,-201.1132 501.246,-163.7958 507.7499,-141.6138"/>
<polygon fill="#191970" stroke="#191970" points="511.1853,-142.3474 510.7538,-131.7614 504.4896,-140.3059 511.1853,-142.3474"/>
</g>
<!-- Node22 -->
<g id="node21" class="node">
<title>Node22</title>
<g id="a_node21"><a xlink:href="GeomVector3_8h.html" target="_top" xlink:title="iDynTree/Core/GeomVector3.h">
<polygon fill="none" stroke="#000000" points="256.5,-168.5 256.5,-187.5 419.5,-187.5 419.5,-168.5 256.5,-168.5"/>
<text text-anchor="middle" x="338" y="-175.5" font-family="FreeSans.ttf" font-size="10.00" fill="#000000">iDynTree/Core/GeomVector3.h</text>
</a>
</g>
</g>
<!-- Node21&#45;&gt;Node22 -->
<g id="edge26" class="edge">
<title>Node21&#45;&gt;Node22</title>
<path fill="none" stroke="#191970" d="M337.3712,-392.31C320.2522,-384.3591 302.839,-372.6954 293,-356 261.9352,-303.2876 302.7564,-229.5484 325.1263,-195.9511"/>
<polygon fill="#191970" stroke="#191970" points="328.0927,-197.8142 330.8714,-187.5903 322.3234,-193.8499 328.0927,-197.8142"/>
</g>
<!-- Node23 -->
<g id="node22" class="node">
<title>Node23</title>
<g id="a_node22"><a xlink:href="SpatialVector_8h.html" target="_top" xlink:title="iDynTree/Core/SpatialVector.h">
<polygon fill="none" stroke="#000000" points="302.5,-336.5 302.5,-355.5 463.5,-355.5 463.5,-336.5 302.5,-336.5"/>
<text text-anchor="middle" x="383" y="-343.5" font-family="FreeSans.ttf" font-size="10.00" fill="#000000">iDynTree/Core/SpatialVector.h</text>
</a>
</g>
</g>
<!-- Node21&#45;&gt;Node23 -->
<g id="edge28" class="edge">
<title>Node21&#45;&gt;Node23</title>
<path fill="none" stroke="#191970" d="M385.2584,-392.2977C384.8724,-384.3834 384.3953,-374.6043 383.9793,-366.0759"/>
<polygon fill="#191970" stroke="#191970" points="387.4635,-365.6645 383.4803,-355.8469 380.4718,-366.0056 387.4635,-365.6645"/>
</g>
<!-- Node22&#45;&gt;Node3 -->
<g id="edge27" class="edge">
<title>Node22&#45;&gt;Node3</title>
<path fill="none" stroke="#191970" d="M368.2555,-168.3733C397.6483,-159.021 442.4292,-144.7725 474.5934,-134.5385"/>
<polygon fill="#191970" stroke="#191970" points="475.6713,-137.8685 484.1393,-131.5011 473.5488,-131.198 475.6713,-137.8685"/>
</g>
<!-- Node23&#45;&gt;Node4 -->
<g id="edge36" class="edge">
<title>Node23&#45;&gt;Node4</title>
<path fill="none" stroke="#191970" d="M386.8199,-336.224C396.1559,-311.7416 419.9539,-245.6246 428,-188 431.4506,-163.2874 425.3799,-156.9141 424,-132 423.5084,-123.1247 419.1365,-119.4404 424,-112 434.2902,-96.2576 451.2911,-85.8694 468.6462,-79.0275"/>
<polygon fill="#191970" stroke="#191970" points="470.0471,-82.2436 478.2839,-75.5799 467.6893,-75.6526 470.0471,-82.2436"/>
</g>
<!-- Node23&#45;&gt;Node16 -->
<g id="edge39" class="edge">
<title>Node23&#45;&gt;Node16</title>
<path fill="none" stroke="#191970" d="M369.9391,-336.3682C341.0261,-314.1257 272.1846,-255.8632 247,-188 243.9074,-179.6665 242.4872,-175.6581 247,-168 263.7659,-139.5487 294.1707,-159.7972 312,-132 320.7137,-118.4147 321.371,-99.8696 320.1892,-85.8965"/>
<polygon fill="#191970" stroke="#191970" points="323.6493,-85.356 318.9659,-75.8525 316.7007,-86.2024 323.6493,-85.356"/>
</g>
<!-- Node23&#45;&gt;Node22 -->
<g id="edge37" class="edge">
<title>Node23&#45;&gt;Node22</title>
<path fill="none" stroke="#191970" d="M380.4517,-336.4862C373.3074,-309.8144 352.9764,-233.9117 343.2755,-197.695"/>
<polygon fill="#191970" stroke="#191970" points="346.6007,-196.5818 340.6325,-187.8279 339.8391,-198.393 346.6007,-196.5818"/>
</g>
<!-- Node24 -->
<g id="node23" class="node">
<title>Node24</title>
<g id="a_node23"><a xlink:href="Position_8h.html" target="_top" xlink:title="Position.h">
<polygon fill="none" stroke="#ff0000" points="965.5,-280.5 965.5,-299.5 1030.5,-299.5 1030.5,-280.5 965.5,-280.5"/>
<text text-anchor="middle" x="998" y="-287.5" font-family="FreeSans.ttf" font-size="10.00" fill="#000000">Position.h</text>
</a>
</g>
</g>
<!-- Node23&#45;&gt;Node24 -->
<g id="edge29" class="edge">
<title>Node23&#45;&gt;Node24</title>
<path fill="none" stroke="#191970" d="M463.7165,-338.6502C595.7513,-326.6275 853.3907,-303.1677 955.1641,-293.9005"/>
<polygon fill="#191970" stroke="#191970" points="955.7297,-297.3636 965.371,-292.9711 955.0948,-290.3924 955.7297,-297.3636"/>
</g>
<!-- Node26 -->
<g id="node24" class="node">
<title>Node26</title>
<g id="a_node24"><a xlink:href="Rotation_8h.html" target="_top" xlink:title="iDynTree/Core/Rotation.h">
<polygon fill="none" stroke="#ff0000" points="771.5,-224.5 771.5,-243.5 908.5,-243.5 908.5,-224.5 771.5,-224.5"/>
<text text-anchor="middle" x="840" y="-231.5" font-family="FreeSans.ttf" font-size="10.00" fill="#000000">iDynTree/Core/Rotation.h</text>
</a>
</g>
</g>
<!-- Node23&#45;&gt;Node26 -->
<g id="edge35" class="edge">
<title>Node23&#45;&gt;Node26</title>
<path fill="none" stroke="#191970" d="M421.9636,-336.4509C505.184,-316.0556 700.1147,-268.2826 791.3259,-245.9289"/>
<polygon fill="#191970" stroke="#191970" points="792.2556,-249.3047 801.1351,-243.5249 790.5893,-242.5059 792.2556,-249.3047"/>
</g>
<!-- Node29 -->
<g id="node25" class="node">
<title>Node29</title>
<polygon fill="none" stroke="#bfbfbf" points="129,-56.5 129,-75.5 189,-75.5 189,-56.5 129,-56.5"/>
<text text-anchor="middle" x="159" y="-63.5" font-family="FreeSans.ttf" font-size="10.00" fill="#000000">iostream</text>
</g>
<!-- Node23&#45;&gt;Node29 -->
<g id="edge38" class="edge">
<title>Node23&#45;&gt;Node29</title>
<path fill="none" stroke="#191970" d="M361.8447,-336.3939C310.129,-311.5292 178.2345,-239.4143 133,-132 126.2426,-115.9539 134.8781,-97.5022 143.966,-84.1955"/>
<polygon fill="#191970" stroke="#191970" points="146.9797,-86.0086 150.1462,-75.898 141.3658,-81.8272 146.9797,-86.0086"/>
</g>
<!-- Node24&#45;&gt;Node15 -->
<g id="edge34" class="edge">
<title>Node24&#45;&gt;Node15</title>
<path fill="none" stroke="#191970" d="M997.924,-280.3014C998.1957,-251.384 1002.6875,-164.5143 1045,-112 1059.7193,-93.7317 1083.6112,-81.9984 1103.0804,-74.9569"/>
<polygon fill="#191970" stroke="#191970" points="1104.4238,-78.1978 1112.7863,-71.6925 1102.1923,-71.563 1104.4238,-78.1978"/>
</g>
<!-- Node24&#45;&gt;Node26 -->
<g id="edge30" class="edge">
<title>Node24&#45;&gt;Node26</title>
<path fill="none" stroke="#191970" d="M970.8388,-280.3733C944.7933,-271.1419 905.2884,-257.1402 876.5021,-246.9375"/>
<polygon fill="#191970" stroke="#191970" points="877.4015,-243.5429 866.8067,-243.5011 875.063,-250.1408 877.4015,-243.5429"/>
</g>
<!-- Node26&#45;&gt;Node3 -->
<g id="edge33" class="edge">
<title>Node26&#45;&gt;Node3</title>
<path fill="none" stroke="#191970" d="M795.661,-224.4702C759.7181,-216.2556 707.9927,-203.3185 664,-188 620.5482,-172.8698 572.1352,-150.5174 542.3692,-136.1054"/>
<polygon fill="#191970" stroke="#191970" points="543.5455,-132.785 533.0236,-131.5442 540.4752,-139.0757 543.5455,-132.785"/>
</g>
<!-- Node26&#45;&gt;Node15 -->
<g id="edge31" class="edge">
<title>Node26&#45;&gt;Node15</title>
<path fill="none" stroke="#191970" d="M850.9856,-224.2112C876.6581,-201.7481 943.2528,-145.8356 1007,-112 1038.1187,-95.4829 1076.4409,-82.5941 1103.0008,-74.7145"/>
<polygon fill="#191970" stroke="#191970" points="1104.2798,-77.988 1112.9116,-71.8446 1102.3327,-71.2642 1104.2798,-77.988"/>
</g>
<!-- Node26&#45;&gt;Node22 -->
<g id="edge32" class="edge">
<title>Node26&#45;&gt;Node22</title>
<path fill="none" stroke="#191970" d="M771.2516,-226.3309C682.5949,-216.4409 528.1206,-199.2087 429.5789,-188.216"/>
<polygon fill="#191970" stroke="#191970" points="429.9554,-184.7363 419.629,-187.106 429.1793,-191.6932 429.9554,-184.7363"/>
</g>
<!-- Node30&#45;&gt;Node15 -->
<g id="edge50" class="edge">
<title>Node30&#45;&gt;Node15</title>
<path fill="none" stroke="#191970" d="M1044.2837,-459.2977C1053.0213,-450.5477 1065.3327,-436.9457 1073,-423 1090.27,-391.5885 1097,-381.846 1097,-346 1097,-346 1097,-346 1097,-290 1097,-213.5316 1118.7919,-124.4215 1129.3706,-85.6687"/>
<polygon fill="#191970" stroke="#191970" points="1132.8286,-86.2979 1132.1438,-75.7252 1126.086,-84.4173 1132.8286,-86.2979"/>
</g>
<!-- Node30&#45;&gt;Node24 -->
<g id="edge41" class="edge">
<title>Node30&#45;&gt;Node24</title>
<path fill="none" stroke="#191970" d="M1031.3641,-459.3951C1026.1144,-439.9886 1014.2363,-394.6607 1007,-356 1004.1367,-340.7025 1001.7966,-323.2492 1000.221,-310.1342"/>
<polygon fill="#191970" stroke="#191970" points="1003.6621,-309.4219 999.0392,-299.8889 996.7082,-310.2242 1003.6621,-309.4219"/>
</g>
<!-- Node30&#45;&gt;Node26 -->
<g id="edge42" class="edge">
<title>Node30&#45;&gt;Node26</title>
<path fill="none" stroke="#191970" d="M1026.1547,-459.4967C996.7862,-423.9214 893.0582,-298.2715 854.5403,-251.6133"/>
<polygon fill="#191970" stroke="#191970" points="857.0083,-249.1051 847.9429,-243.6216 851.6101,-253.5615 857.0083,-249.1051"/>
</g>
<!-- Node28 -->
<g id="node27" class="node">
<title>Node28</title>
<g id="a_node27"><a xlink:href="MatrixFixSize_8h.html" target="_top" xlink:title="iDynTree/Core/MatrixFixSize.h">
<polygon fill="none" stroke="#000000" points="142.5,-112.5 142.5,-131.5 303.5,-131.5 303.5,-112.5 142.5,-112.5"/>
<text text-anchor="middle" x="223" y="-119.5" font-family="FreeSans.ttf" font-size="10.00" fill="#000000">iDynTree/Core/MatrixFixSize.h</text>
</a>
</g>
</g>
<!-- Node30&#45;&gt;Node28 -->
<g id="edge43" class="edge">
<title>Node30&#45;&gt;Node28</title>
<path fill="none" stroke="#191970" d="M960.7113,-459.7772C957.7709,-459.4976 954.8585,-459.2368 952,-459 906.6115,-455.2405 164.4894,-455.9039 133,-423 53.681,-340.1179 165.4543,-190.2415 207.857,-139.4061"/>
<polygon fill="#191970" stroke="#191970" points="210.6702,-141.5003 214.4693,-131.6099 205.3317,-136.9724 210.6702,-141.5003"/>
</g>
<!-- Node28&#45;&gt;Node4 -->
<g id="edge44" class="edge">
<title>Node28&#45;&gt;Node4</title>
<path fill="none" stroke="#191970" d="M275.2556,-112.4369C328.3953,-102.712 410.7222,-87.6456 467.0979,-77.3285"/>
<polygon fill="#191970" stroke="#191970" points="467.7534,-80.7667 476.9599,-75.5237 466.4932,-73.8811 467.7534,-80.7667"/>
</g>
<!-- Node28&#45;&gt;Node7 -->
<g id="edge45" class="edge">
<title>Node28&#45;&gt;Node7</title>
<path fill="none" stroke="#191970" d="M230.5859,-112.0958C241.0387,-98.7226 260.7681,-74.4437 280,-56 291.3831,-45.0834 305.1809,-34.0624 316.4626,-25.5457"/>
<polygon fill="#191970" stroke="#191970" points="318.5757,-28.336 324.5176,-19.5642 314.4024,-22.716 318.5757,-28.336"/>
</g>
<!-- Node28&#45;&gt;Node15 -->
<g id="edge47" class="edge">
<title>Node28&#45;&gt;Node15</title>
<path fill="none" stroke="#191970" d="M303.5338,-117.0549C495.5443,-105.2648 973.8439,-75.8955 1102.6293,-67.9877"/>
<polygon fill="#191970" stroke="#191970" points="1102.8812,-71.4789 1112.6479,-67.3725 1102.4521,-64.4921 1102.8812,-71.4789"/>
</g>
<!-- Node28&#45;&gt;Node16 -->
<g id="edge49" class="edge">
<title>Node28&#45;&gt;Node16</title>
<path fill="none" stroke="#191970" d="M239.3736,-112.2455C253.9308,-103.5731 275.431,-90.7645 292.1152,-80.825"/>
<polygon fill="#191970" stroke="#191970" points="294.0144,-83.7676 300.8141,-75.6427 290.4317,-77.7539 294.0144,-83.7676"/>
</g>
<!-- Node28&#45;&gt;Node17 -->
<g id="edge46" class="edge">
<title>Node28&#45;&gt;Node17</title>
<path fill="none" stroke="#191970" d="M251.3645,-112.3733C279.5933,-102.7926 322.9618,-88.0736 353.2443,-77.7959"/>
<polygon fill="#191970" stroke="#191970" points="354.627,-81.0228 362.9716,-74.4945 352.3772,-74.3941 354.627,-81.0228"/>
</g>
<!-- Node28&#45;&gt;Node29 -->
<g id="edge48" class="edge">
<title>Node28&#45;&gt;Node29</title>
<path fill="none" stroke="#191970" d="M211.8521,-112.2455C202.4913,-104.0549 188.9142,-92.1749 177.8651,-82.5069"/>
<polygon fill="#191970" stroke="#191970" points="179.8508,-79.5937 170.0202,-75.6427 175.2412,-84.8618 179.8508,-79.5937"/>
</g>
<!-- Node32&#45;&gt;Node1 -->
<g id="edge53" class="edge">
<title>Node32&#45;&gt;Node1</title>
<path fill="none" stroke="#191970" d="M860.8938,-641.3023C811.5921,-635.0127 744.7406,-623.2639 689,-602 652.0228,-587.894 613.5226,-562.4673 590.6663,-546.046"/>
<polygon fill="#191970" stroke="#191970" points="592.5708,-543.1029 582.4313,-540.0302 588.4415,-548.7553 592.5708,-543.1029"/>
</g>
<!-- Node32&#45;&gt;Node18 -->
<g id="edge98" class="edge">
<title>Node32&#45;&gt;Node18</title>
<path fill="none" stroke="#191970" d="M998.4628,-638.4846C1074.8484,-627.3864 1189.6117,-609.5927 1196,-602 1201.7227,-595.1983 1201.6669,-588.8482 1196,-582 1141.4847,-516.1207 1087.7855,-574.0305 1007,-546 960.7812,-529.9633 911.124,-501.5684 882.6858,-484.1041"/>
<polygon fill="#191970" stroke="#191970" points="884.2307,-480.9433 873.8906,-478.6342 880.5338,-486.8875 884.2307,-480.9433"/>
</g>
<!-- Node32&#45;&gt;Node19 -->
<g id="edge99" class="edge">
<title>Node32&#45;&gt;Node19</title>
<path fill="none" stroke="#191970" d="M1001.2196,-639.0395C1004.5244,-638.6754 1007.7973,-638.3267 1011,-638 1146.7251,-624.155 1539.9667,-657.9098 1618,-546 1625.8804,-534.6984 1626.8461,-525.5628 1618,-515 1597.0994,-490.0433 1518.9545,-478.6141 1454.0905,-473.3871"/>
<polygon fill="#191970" stroke="#191970" points="1454.0429,-469.8734 1443.805,-472.6004 1453.5089,-476.853 1454.0429,-469.8734"/>
</g>
<!-- Node32&#45;&gt;Node20 -->
<g id="edge101" class="edge">
<title>Node32&#45;&gt;Node20</title>
<path fill="none" stroke="#191970" d="M860.5976,-641.4753C749.5222,-629.6264 541.3356,-600.5958 494,-546 480.3741,-530.2842 476.9341,-506.1001 476.3889,-489.0355"/>
<polygon fill="#191970" stroke="#191970" points="479.8888,-488.549 476.3843,-478.5505 472.8888,-488.5521 479.8888,-488.549"/>
</g>
<!-- Node32&#45;&gt;Node30 -->
<g id="edge100" class="edge">
<title>Node32&#45;&gt;Node30</title>
<path fill="none" stroke="#191970" d="M863.7247,-638.4206C821.5875,-630.8872 772.9051,-618.8354 760,-602 754.5923,-594.9453 755.0559,-589.387 760,-582 786.3922,-542.567 916.9677,-501.3024 987.9153,-481.3116"/>
<polygon fill="#191970" stroke="#191970" points="989.2382,-484.5764 997.9308,-478.5193 987.3582,-477.8335 989.2382,-484.5764"/>
</g>
<!-- Node32&#45;&gt;Node31 -->
<g id="edge104" class="edge">
<title>Node32&#45;&gt;Node31</title>
<path fill="none" stroke="#191970" d="M869.9387,-638.4529C825.2462,-630.3565 769.484,-617.5866 752,-602 718.5927,-572.2182 706.9313,-518.0757 702.9655,-488.8995"/>
<polygon fill="#191970" stroke="#191970" points="706.4114,-488.235 701.7602,-478.7157 699.4599,-489.0578 706.4114,-488.235"/>
</g>
<!-- Node33 -->
<g id="node30" class="node">
<title>Node33</title>
<g id="a_node30"><a xlink:href="ConvexHullHelpers_8h.html" target="_top" xlink:title="iDynTree/ConvexHullHelpers.h">
<polygon fill="none" stroke="#000000" points="1027.5,-521 1027.5,-540 1192.5,-540 1192.5,-521 1027.5,-521"/>
<text text-anchor="middle" x="1110" y="-528" font-family="FreeSans.ttf" font-size="10.00" fill="#000000">iDynTree/ConvexHullHelpers.h</text>
</a>
</g>
</g>
<!-- Node32&#45;&gt;Node33 -->
<g id="edge54" class="edge">
<title>Node32&#45;&gt;Node33</title>
<path fill="none" stroke="#191970" d="M1000.1304,-638.4561C1086.9917,-626.3032 1225.2676,-606.3527 1229,-602 1252.7477,-574.3053 1206.8103,-554.3642 1165.291,-542.6899"/>
<polygon fill="#191970" stroke="#191970" points="1165.9943,-539.2549 1155.4288,-540.0419 1164.179,-546.0154 1165.9943,-539.2549"/>
</g>
<!-- Node34 -->
<g id="node31" class="node">
<title>Node34</title>
<polygon fill="none" stroke="#bfbfbf" points="1636.5,-459.5 1636.5,-478.5 1683.5,-478.5 1683.5,-459.5 1636.5,-459.5"/>
<text text-anchor="middle" x="1660" y="-466.5" font-family="FreeSans.ttf" font-size="10.00" fill="#000000">vector</text>
</g>
<!-- Node32&#45;&gt;Node34 -->
<g id="edge103" class="edge">
<title>Node32&#45;&gt;Node34</title>
<path fill="none" stroke="#191970" d="M1001.2141,-638.9836C1004.5203,-638.6344 1007.7951,-638.3042 1011,-638 1133.8189,-626.3437 1449.9698,-646.5916 1565,-602 1602.1481,-587.5995 1612.3397,-578.7699 1635,-546 1646.9509,-528.7174 1653.4695,-505.3604 1656.8248,-488.9178"/>
<polygon fill="#191970" stroke="#191970" points="1660.3192,-489.2644 1658.6702,-478.7987 1653.4328,-488.0085 1660.3192,-489.2644"/>
</g>
<!-- Node35 -->
<g id="node32" class="node">
<title>Node35</title>
<g id="a_node32"><a xlink:href="InverseKinematics_8h.html" target="_top" xlink:title="iDynTree/InverseKinematics.h">
<polygon fill="none" stroke="#000000" points="769,-582.5 769,-601.5 931,-601.5 931,-582.5 769,-582.5"/>
<text text-anchor="middle" x="850" y="-589.5" font-family="FreeSans.ttf" font-size="10.00" fill="#000000">iDynTree/InverseKinematics.h</text>
</a>
</g>
</g>
<!-- Node32&#45;&gt;Node35 -->
<g id="edge61" class="edge">
<title>Node32&#45;&gt;Node35</title>
<path fill="none" stroke="#191970" d="M916.8909,-638.2455C904.5791,-629.7337 886.5042,-617.2375 872.2462,-607.3801"/>
<polygon fill="#191970" stroke="#191970" points="874.1634,-604.4506 863.9474,-601.6427 870.1826,-610.2085 874.1634,-604.4506"/>
</g>
<!-- Node37 -->
<g id="node34" class="node">
<title>Node37</title>
<g id="a_node34"><a xlink:href="KinDynComputations_8h.html" target="_top" xlink:title="iDynTree/KinDynComputations.h">
<polygon fill="none" stroke="#000000" points="1281.5,-582.5 1281.5,-601.5 1456.5,-601.5 1456.5,-582.5 1281.5,-582.5"/>
<text text-anchor="middle" x="1369" y="-589.5" font-family="FreeSans.ttf" font-size="10.00" fill="#000000">iDynTree/KinDynComputations.h</text>
</a>
</g>
</g>
<!-- Node32&#45;&gt;Node37 -->
<g id="edge69" class="edge">
<title>Node32&#45;&gt;Node37</title>
<path fill="none" stroke="#191970" d="M1001.3723,-639.0026C1078.4424,-629.1489 1202.0106,-613.3502 1284.3263,-602.8259"/>
<polygon fill="#191970" stroke="#191970" points="1284.9293,-606.2773 1294.4046,-601.5373 1284.0415,-599.3339 1284.9293,-606.2773"/>
</g>
<!-- Node45 -->
<g id="node38" class="node">
<title>Node45</title>
<g id="a_node38"><a xlink:href="Model_8h.html" target="_top" xlink:title="iDynTree/Model/Model.h">
<polygon fill="none" stroke="#000000" points="1943.5,-582.5 1943.5,-601.5 2076.5,-601.5 2076.5,-582.5 1943.5,-582.5"/>
<text text-anchor="middle" x="2010" y="-589.5" font-family="FreeSans.ttf" font-size="10.00" fill="#000000">iDynTree/Model/Model.h</text>
</a>
</g>
</g>
<!-- Node32&#45;&gt;Node45 -->
<g id="edge84" class="edge">
<title>Node32&#45;&gt;Node45</title>
<path fill="none" stroke="#191970" d="M1001.2071,-638.9062C1004.5152,-638.5778 1007.7923,-638.273 1011,-638 1361.6514,-608.1517 1450.4652,-618.4499 1802,-602 1845.5201,-599.9635 1894.159,-597.6284 1933.4535,-595.727"/>
<polygon fill="#191970" stroke="#191970" points="1933.6742,-599.2205 1943.4932,-595.2408 1933.3356,-592.2287 1933.6742,-599.2205"/>
</g>
<!-- Node54 -->
<g id="node43" class="node">
<title>Node54</title>
<polygon fill="none" stroke="#bfbfbf" points="949,-582.5 949,-601.5 1075,-601.5 1075,-582.5 949,-582.5"/>
<text text-anchor="middle" x="1012" y="-589.5" font-family="FreeSans.ttf" font-size="10.00" fill="#000000">IpIpoptApplication.hpp</text>
</g>
<!-- Node32&#45;&gt;Node54 -->
<g id="edge102" class="edge">
<title>Node32&#45;&gt;Node54</title>
<path fill="none" stroke="#191970" d="M945.1091,-638.2455C957.4209,-629.7337 975.4958,-617.2375 989.7538,-607.3801"/>
<polygon fill="#191970" stroke="#191970" points="991.8174,-610.2085 998.0526,-601.6427 987.8366,-604.4506 991.8174,-610.2085"/>
</g>
<!-- Node55 -->
<g id="node44" class="node">
<title>Node55</title>
<polygon fill="none" stroke="#bfbfbf" points="1093.5,-582.5 1093.5,-601.5 1186.5,-601.5 1186.5,-582.5 1093.5,-582.5"/>
<text text-anchor="middle" x="1140" y="-589.5" font-family="FreeSans.ttf" font-size="10.00" fill="#000000">unordered_map</text>
</g>
<!-- Node32&#45;&gt;Node55 -->
<g id="edge105" class="edge">
<title>Node32&#45;&gt;Node55</title>
<path fill="none" stroke="#191970" d="M966.9284,-638.3733C1002.2837,-628.9001 1056.388,-614.4032 1094.6788,-604.1435"/>
<polygon fill="#191970" stroke="#191970" points="1095.787,-607.4701 1104.5405,-601.5011 1093.9753,-600.7086 1095.787,-607.4701"/>
</g>
<!-- Node33&#45;&gt;Node15 -->
<g id="edge55" class="edge">
<title>Node33&#45;&gt;Node15</title>
<path fill="none" stroke="#191970" d="M1126.2274,-520.9449C1154.7778,-502.7685 1211,-460.275 1211,-407.5 1211,-407.5 1211,-407.5 1211,-178 1211,-146.7875 1204.5636,-137.802 1187,-112 1179.1578,-100.4793 1167.7918,-89.9817 1157.6849,-81.9331"/>
<polygon fill="#191970" stroke="#191970" points="1159.6741,-79.0487 1149.5962,-75.7796 1155.4358,-84.6198 1159.6741,-79.0487"/>
</g>
<!-- Node33&#45;&gt;Node18 -->
<g id="edge60" class="edge">
<title>Node33&#45;&gt;Node18</title>
<path fill="none" stroke="#191970" d="M1071.0566,-520.9581C1027.0913,-510.1857 955.4935,-492.6428 907.8249,-480.9631"/>
<polygon fill="#191970" stroke="#191970" points="908.5804,-477.5447 898.0347,-478.5643 906.9145,-484.3436 908.5804,-477.5447"/>
</g>
<!-- Node33&#45;&gt;Node19 -->
<g id="edge57" class="edge">
<title>Node33&#45;&gt;Node19</title>
<path fill="none" stroke="#191970" d="M1148.7882,-520.9581C1192.5784,-510.1857 1263.8909,-492.6428 1311.3696,-480.9631"/>
<polygon fill="#191970" stroke="#191970" points="1312.2464,-484.3518 1321.1208,-478.5643 1310.5742,-477.5545 1312.2464,-484.3518"/>
</g>
<!-- Node33&#45;&gt;Node24 -->
<g id="edge58" class="edge">
<title>Node33&#45;&gt;Node24</title>
<path fill="none" stroke="#191970" d="M1113.0514,-520.992C1117.0286,-507.0482 1122.7283,-480.389 1116,-459 1096.0753,-395.66 1043.0409,-335.3533 1015.3619,-306.9596"/>
<polygon fill="#191970" stroke="#191970" points="1017.805,-304.4526 1008.276,-299.8213 1012.8371,-309.3841 1017.805,-304.4526"/>
</g>
<!-- Node33&#45;&gt;Node30 -->
<g id="edge59" class="edge">
<title>Node33&#45;&gt;Node30</title>
<path fill="none" stroke="#191970" d="M1098.125,-520.8906C1086.3703,-511.3786 1068.1514,-496.6357 1054.1328,-485.2917"/>
<polygon fill="#191970" stroke="#191970" points="1056.0178,-482.3146 1046.0424,-478.7449 1051.6144,-487.7562 1056.0178,-482.3146"/>
</g>
<!-- Node33&#45;&gt;Node34 -->
<g id="edge56" class="edge">
<title>Node33&#45;&gt;Node34</title>
<path fill="none" stroke="#191970" d="M1192.6381,-521.2596C1315.5797,-507.5125 1541.2852,-482.2745 1626.3623,-472.7613"/>
<polygon fill="#191970" stroke="#191970" points="1626.9386,-476.2188 1636.4877,-471.6291 1626.1607,-469.2621 1626.9386,-476.2188"/>
</g>
<!-- Node35&#45;&gt;Node15 -->
<g id="edge62" class="edge">
<title>Node35&#45;&gt;Node15</title>
<path fill="none" stroke="#191970" d="M869.8273,-582.4021C901.192,-567.3478 964.311,-537.5728 1019,-515 1061.5061,-497.4557 1085.6094,-513.5106 1116,-479 1189.8854,-395.0982 1173,-345.797 1173,-234 1173,-234 1173,-234 1173,-178 1173,-143.6118 1156.7366,-106.2832 1145.489,-84.5791"/>
<polygon fill="#191970" stroke="#191970" points="1148.431,-82.6605 1140.607,-75.5166 1142.2683,-85.9804 1148.431,-82.6605"/>
</g>
<!-- Node35&#45;&gt;Node33 -->
<g id="edge64" class="edge">
<title>Node35&#45;&gt;Node33</title>
<path fill="none" stroke="#191970" d="M890.3397,-582.4581C935.9768,-571.6632 1010.357,-554.0694 1059.734,-542.3899"/>
<polygon fill="#191970" stroke="#191970" points="1060.6398,-545.7722 1069.5656,-540.0643 1059.0285,-538.9602 1060.6398,-545.7722"/>
</g>
<!-- Node35&#45;&gt;Node34 -->
<g id="edge63" class="edge">
<title>Node35&#45;&gt;Node34</title>
<path fill="none" stroke="#191970" d="M931.4147,-582.7413C934.311,-582.4796 937.1797,-582.2314 940,-582 1015.1869,-575.832 1554.1738,-586.216 1618,-546 1638.4622,-533.107 1649.7008,-506.5731 1655.2845,-488.2873"/>
<polygon fill="#191970" stroke="#191970" points="1658.6605,-489.2102 1657.9456,-478.6395 1651.9125,-487.3489 1658.6605,-489.2102"/>
</g>
<!-- Node36 -->
<g id="node33" class="node">
<title>Node36</title>
<g id="a_node33"><a xlink:href="Direction_8h.html" target="_top" xlink:title="iDynTree/Core/Direction.h">
<polygon fill="none" stroke="#000000" points="672.5,-168.5 672.5,-187.5 813.5,-187.5 813.5,-168.5 672.5,-168.5"/>
<text text-anchor="middle" x="743" y="-175.5" font-family="FreeSans.ttf" font-size="10.00" fill="#000000">iDynTree/Core/Direction.h</text>
</a>
</g>
</g>
<!-- Node35&#45;&gt;Node36 -->
<g id="edge65" class="edge">
<title>Node35&#45;&gt;Node36</title>
<path fill="none" stroke="#191970" d="M839.8031,-582.2709C821.4429,-564.0267 783.2274,-522.5683 767,-479 729.6487,-378.7169 736.605,-246.975 740.9568,-197.7098"/>
<polygon fill="#191970" stroke="#191970" points="744.4642,-197.7972 741.929,-187.5102 737.4958,-197.1329 744.4642,-197.7972"/>
</g>
<!-- Node36&#45;&gt;Node3 -->
<g id="edge67" class="edge">
<title>Node36&#45;&gt;Node3</title>
<path fill="none" stroke="#191970" d="M703.8937,-168.4369C664.8668,-158.8932 604.8035,-144.2052 562.7038,-133.9101"/>
<polygon fill="#191970" stroke="#191970" points="563.4902,-130.4993 552.945,-131.5237 561.8274,-137.299 563.4902,-130.4993"/>
</g>
<!-- Node36&#45;&gt;Node4 -->
<g id="edge68" class="edge">
<title>Node36&#45;&gt;Node4</title>
<path fill="none" stroke="#191970" d="M729.0086,-168.313C709.1062,-154.7621 671.231,-129.8114 637,-112 613.1697,-99.6004 585.2471,-87.7745 563.7642,-79.2187"/>
<polygon fill="#191970" stroke="#191970" points="564.9717,-75.9327 554.3846,-75.5276 562.4083,-82.4465 564.9717,-75.9327"/>
</g>
<!-- Node36&#45;&gt;Node15 -->
<g id="edge66" class="edge">
<title>Node36&#45;&gt;Node15</title>
<path fill="none" stroke="#191970" d="M763.4103,-168.4396C794.1654,-154.3564 854.4923,-127.9803 908,-112 976.1289,-91.6531 1058.4421,-77.4679 1102.841,-70.6398"/>
<polygon fill="#191970" stroke="#191970" points="1103.3969,-74.0956 1112.7613,-69.14 1102.3505,-67.1742 1103.3969,-74.0956"/>
</g>
<!-- Node37&#45;&gt;Node3 -->
<g id="edge72" class="edge">
<title>Node37&#45;&gt;Node3</title>
<path fill="none" stroke="#191970" d="M1281.4406,-586.8279C1254.0803,-585.2415 1223.7872,-583.5156 1196,-582 1040.0268,-573.4929 640.5331,-600.1114 494,-546 442.7029,-527.0572 379.0863,-506.0218 407,-459 424.0563,-430.268 447.8017,-444.9429 473,-423 505.1102,-395.0381 530,-388.5786 530,-346 530,-346 530,-346 530,-234 530,-201.2342 523.2061,-163.6134 518.4725,-141.3778"/>
<polygon fill="#191970" stroke="#191970" points="521.8698,-140.5307 516.2924,-131.5228 515.0351,-142.0428 521.8698,-140.5307"/>
</g>
<!-- Node37&#45;&gt;Node4 -->
<g id="edge74" class="edge">
<title>Node37&#45;&gt;Node4</title>
<path fill="none" stroke="#191970" d="M1337.5543,-582.3833C1316.3663,-574.8333 1288.6285,-562.7769 1268,-546 1154.2761,-453.5096 1187.0093,-372.1384 1073,-280 924.079,-159.6472 699.1993,-100.4586 591.2017,-77.6483"/>
<polygon fill="#191970" stroke="#191970" points="591.6246,-74.1615 581.1217,-75.5536 590.2004,-81.0151 591.6246,-74.1615"/>
</g>
<!-- Node37&#45;&gt;Node15 -->
<g id="edge70" class="edge">
<title>Node37&#45;&gt;Node15</title>
<path fill="none" stroke="#191970" d="M1456.5544,-587.181C1532.8541,-581.462 1636.4019,-569.56 1670,-546 1701.917,-523.6189 1712,-507.9821 1712,-469 1712,-469 1712,-469 1712,-178 1712,-122.0965 1289.2104,-79.8333 1167.4478,-68.8208"/>
<polygon fill="#191970" stroke="#191970" points="1167.5377,-65.3149 1157.2655,-67.9095 1166.9137,-72.287 1167.5377,-65.3149"/>
</g>
<!-- Node37&#45;&gt;Node19 -->
<g id="edge73" class="edge">
<title>Node37&#45;&gt;Node19</title>
<path fill="none" stroke="#191970" d="M1329.1328,-582.3369C1310.1645,-575.5199 1289.2211,-564.2455 1278,-546 1270.7823,-534.2641 1271.0375,-526.8891 1278,-515 1286.6755,-500.186 1302.0626,-489.7802 1317.1825,-482.6608"/>
<polygon fill="#191970" stroke="#191970" points="1318.7033,-485.8166 1326.4998,-478.6426 1315.9313,-479.3888 1318.7033,-485.8166"/>
</g>
<!-- Node37&#45;&gt;Node34 -->
<g id="edge71" class="edge">
<title>Node37&#45;&gt;Node34</title>
<path fill="none" stroke="#191970" d="M1456.802,-588.8074C1529.0918,-584.2292 1623.7916,-573.0909 1650,-546 1664.4548,-531.0585 1665.123,-506.1752 1663.3695,-488.7507"/>
<polygon fill="#191970" stroke="#191970" points="1666.7993,-487.9963 1661.988,-478.5569 1659.8627,-488.9364 1666.7993,-487.9963"/>
</g>
<!-- Node38 -->
<g id="node35" class="node">
<title>Node38</title>
<g id="a_node35"><a xlink:href="Indices_8h.html" target="_top" xlink:title="iDynTree/Model/Indices.h">
<polygon fill="none" stroke="#000000" points="1996,-459.5 1996,-478.5 2134,-478.5 2134,-459.5 1996,-459.5"/>
<text text-anchor="middle" x="2065" y="-466.5" font-family="FreeSans.ttf" font-size="10.00" fill="#000000">iDynTree/Model/Indices.h</text>
</a>
</g>
</g>
<!-- Node37&#45;&gt;Node38 -->
<g id="edge75" class="edge">
<title>Node37&#45;&gt;Node38</title>
<path fill="none" stroke="#191970" d="M1456.6737,-590.6836C1624.9587,-587.4619 1980.7642,-577.0296 2027,-546 2046.5681,-532.8675 2056.4594,-506.5915 2061.1632,-488.4127"/>
<polygon fill="#191970" stroke="#191970" points="2064.5972,-489.0963 2063.4147,-478.5677 2057.7733,-487.5357 2064.5972,-489.0963"/>
</g>
<!-- Node39 -->
<g id="node36" class="node">
<title>Node39</title>
<g id="a_node36"><a xlink:href="FreeFloatingMatrices_8h.html" target="_top" xlink:title="iDynTree/Model/FreeFloating\lMatrices.h">
<polygon fill="none" stroke="#000000" points="1287,-515.5 1287,-545.5 1441,-545.5 1441,-515.5 1287,-515.5"/>
<text text-anchor="start" x="1295" y="-533.5" font-family="FreeSans.ttf" font-size="10.00" fill="#000000">iDynTree/Model/FreeFloating</text>
<text text-anchor="middle" x="1364" y="-522.5" font-family="FreeSans.ttf" font-size="10.00" fill="#000000">Matrices.h</text>
</a>
</g>
</g>
<!-- Node37&#45;&gt;Node39 -->
<g id="edge77" class="edge">
<title>Node37&#45;&gt;Node39</title>
<path fill="none" stroke="#191970" d="M1368.2188,-582.3906C1367.636,-575.2234 1366.8119,-565.0862 1366.0464,-555.671"/>
<polygon fill="#191970" stroke="#191970" points="1369.5221,-555.2281 1365.2231,-545.5446 1362.5451,-555.7954 1369.5221,-555.2281"/>
</g>
<!-- Node40 -->
<g id="node37" class="node">
<title>Node40</title>
<g id="a_node37"><a xlink:href="LinkState_8h.html" target="_top" xlink:title="iDynTree/Model/LinkState.h">
<polygon fill="none" stroke="#ff0000" points="1459.5,-521 1459.5,-540 1608.5,-540 1608.5,-521 1459.5,-521"/>
<text text-anchor="middle" x="1534" y="-528" font-family="FreeSans.ttf" font-size="10.00" fill="#000000">iDynTree/Model/LinkState.h</text>
</a>
</g>
</g>
<!-- Node37&#45;&gt;Node40 -->
<g id="edge79" class="edge">
<title>Node37&#45;&gt;Node40</title>
<path fill="none" stroke="#191970" d="M1394.7813,-582.3906C1422.752,-571.9652 1467.5819,-555.2559 1498.786,-543.6252"/>
<polygon fill="#191970" stroke="#191970" points="1500.2519,-546.8141 1508.3998,-540.0419 1497.8071,-540.2549 1500.2519,-546.8141"/>
</g>
<!-- Node38&#45;&gt;Node15 -->
<g id="edge76" class="edge">
<title>Node38&#45;&gt;Node15</title>
<path fill="none" stroke="#191970" d="M2048.6119,-459.4857C2019.7789,-441.3757 1963,-398.9861 1963,-346 1963,-346 1963,-346 1963,-178 1963,-122.5031 1909.8471,-128.9437 1857,-112 1790.8351,-90.7863 1299.6178,-71.8773 1167.5895,-67.1383"/>
<polygon fill="#191970" stroke="#191970" points="1167.4419,-63.6309 1157.3236,-66.7725 1167.1926,-70.6265 1167.4419,-63.6309"/>
</g>
<!-- Node39&#45;&gt;Node19 -->
<g id="edge78" class="edge">
<title>Node39&#45;&gt;Node19</title>
<path fill="none" stroke="#191970" d="M1363.0112,-515.2977C1362.4965,-507.3834 1361.8604,-497.6043 1361.3057,-489.0759"/>
<polygon fill="#191970" stroke="#191970" points="1364.7822,-488.5986 1360.6405,-478.8469 1357.797,-489.053 1364.7822,-488.5986"/>
</g>
<!-- Node40&#45;&gt;Node20 -->
<g id="edge81" class="edge">
<title>Node40&#45;&gt;Node20</title>
<path fill="none" stroke="#191970" d="M1488.8362,-520.9587C1476.3117,-518.6429 1462.6734,-516.4258 1450,-515 1067.635,-471.9824 968.9149,-504.7462 585,-479 573.1107,-478.2027 560.5001,-477.1885 548.2512,-476.1134"/>
<polygon fill="#191970" stroke="#191970" points="548.3439,-472.6077 538.071,-475.1994 547.7179,-479.5797 548.3439,-472.6077"/>
</g>
<!-- Node40&#45;&gt;Node30 -->
<g id="edge80" class="edge">
<title>Node40&#45;&gt;Node30</title>
<path fill="none" stroke="#191970" d="M1485.6827,-520.9665C1474.0264,-518.8377 1461.5902,-516.7078 1450,-515 1334.9849,-498.0522 1201.2431,-484.3207 1117.108,-476.4052"/>
<polygon fill="#191970" stroke="#191970" points="1117.3806,-472.9155 1107.0981,-475.4689 1116.7287,-479.8851 1117.3806,-472.9155"/>
</g>
<!-- Node40&#45;&gt;Node34 -->
<g id="edge83" class="edge">
<title>Node40&#45;&gt;Node34</title>
<path fill="none" stroke="#191970" d="M1553.6875,-520.8906C1574.4922,-510.7359 1607.511,-494.6196 1631.2319,-483.0416"/>
<polygon fill="#191970" stroke="#191970" points="1632.9993,-486.0736 1640.4507,-478.5419 1629.9288,-479.783 1632.9993,-486.0736"/>
</g>
<!-- Node40&#45;&gt;Node38 -->
<g id="edge82" class="edge">
<title>Node40&#45;&gt;Node38</title>
<path fill="none" stroke="#191970" d="M1608.6725,-521.8515C1708.2317,-510.3206 1883.7012,-489.9979 1985.5992,-478.1961"/>
<polygon fill="#191970" stroke="#191970" points="1986.3005,-481.6384 1995.8314,-477.0111 1985.4951,-474.6849 1986.3005,-481.6384"/>
</g>
<!-- Node45&#45;&gt;Node30 -->
<g id="edge89" class="edge">
<title>Node45&#45;&gt;Node30</title>
<path fill="none" stroke="#191970" d="M1943.4976,-590.1374C1723.9089,-583.8322 1034.9906,-562.7501 1019,-546 1004.1616,-530.4569 1013.312,-504.8235 1022.5176,-487.4421"/>
<polygon fill="#191970" stroke="#191970" points="1025.5614,-489.1699 1027.4855,-478.7513 1019.4842,-485.696 1025.5614,-489.1699"/>
</g>
<!-- Node45&#45;&gt;Node34 -->
<g id="edge97" class="edge">
<title>Node45&#45;&gt;Node34</title>
<path fill="none" stroke="#191970" d="M1959.2539,-582.4503C1926.0152,-575.0773 1882.1903,-563.1978 1846,-546 1824.3938,-535.7326 1823.3975,-525.6954 1802,-515 1766.6469,-497.329 1723.0165,-484.3863 1693.52,-476.8102"/>
<polygon fill="#191970" stroke="#191970" points="1694.2635,-473.3884 1683.7129,-474.3553 1692.5636,-480.1789 1694.2635,-473.3884"/>
</g>
<!-- Node45&#45;&gt;Node38 -->
<g id="edge90" class="edge">
<title>Node45&#45;&gt;Node38</title>
<path fill="none" stroke="#191970" d="M2025.6472,-582.4255C2037.3541,-574.3139 2052.5724,-561.537 2060,-546 2068.5549,-528.105 2068.8866,-505.1525 2067.6454,-488.9788"/>
<polygon fill="#191970" stroke="#191970" points="2071.0782,-488.1516 2066.5588,-478.5691 2064.116,-488.8784 2071.0782,-488.1516"/>
</g>
<!-- Node46 -->
<g id="node39" class="node">
<title>Node46</title>
<g id="a_node39"><a xlink:href="IJoint_8h.html" target="_top" xlink:title="iDynTree/Model/IJoint.h">
<polygon fill="none" stroke="#000000" points="2112,-521 2112,-540 2240,-540 2240,-521 2112,-521"/>
<text text-anchor="middle" x="2176" y="-528" font-family="FreeSans.ttf" font-size="10.00" fill="#000000">iDynTree/Model/IJoint.h</text>
</a>
</g>
</g>
<!-- Node45&#45;&gt;Node46 -->
<g id="edge85" class="edge">
<title>Node45&#45;&gt;Node46</title>
<path fill="none" stroke="#191970" d="M2035.9375,-582.3906C2064.0778,-571.9652 2109.1793,-555.2559 2140.5726,-543.6252"/>
<polygon fill="#191970" stroke="#191970" points="2142.0834,-546.798 2150.2446,-540.0419 2139.6515,-540.234 2142.0834,-546.798"/>
</g>
<!-- Node47 -->
<g id="node40" class="node">
<title>Node47</title>
<g id="a_node40"><a xlink:href="Link_8h.html" target="_top" xlink:title="iDynTree/Model/Link.h">
<polygon fill="none" stroke="#ff0000" points="2258,-521 2258,-540 2382,-540 2382,-521 2258,-521"/>
<text text-anchor="middle" x="2320" y="-528" font-family="FreeSans.ttf" font-size="10.00" fill="#000000">iDynTree/Model/Link.h</text>
</a>
</g>
</g>
<!-- Node45&#45;&gt;Node47 -->
<g id="edge87" class="edge">
<title>Node45&#45;&gt;Node47</title>
<path fill="none" stroke="#191970" d="M2061.3568,-582.4964C2109.8051,-573.4408 2184.4303,-559.2598 2249,-546 2254.8588,-544.7968 2260.9825,-543.5078 2267.072,-542.2059"/>
<polygon fill="#191970" stroke="#191970" points="2268.197,-545.5439 2277.2352,-540.0156 2266.7223,-538.701 2268.197,-545.5439"/>
</g>
<!-- Node52 -->
<g id="node41" class="node">
<title>Node52</title>
<g id="a_node41"><a xlink:href="SolidShapes_8h.html" target="_top" xlink:title="iDynTree/Model/SolidShapes.h">
<polygon fill="none" stroke="#000000" points="1854.5,-521 1854.5,-540 2017.5,-540 2017.5,-521 1854.5,-521"/>
<text text-anchor="middle" x="1936" y="-528" font-family="FreeSans.ttf" font-size="10.00" fill="#000000">iDynTree/Model/SolidShapes.h</text>
</a>
</g>
</g>
<!-- Node45&#45;&gt;Node52 -->
<g id="edge91" class="edge">
<title>Node45&#45;&gt;Node52</title>
<path fill="none" stroke="#191970" d="M1998.4375,-582.3906C1986.9921,-572.8786 1969.2527,-558.1357 1955.603,-546.7917"/>
<polygon fill="#191970" stroke="#191970" points="1957.6533,-543.9447 1947.7255,-540.2449 1953.1792,-549.3283 1957.6533,-543.9447"/>
</g>
<!-- Node53 -->
<g id="node42" class="node">
<title>Node53</title>
<polygon fill="none" stroke="#bfbfbf" points="2278.5,-459.5 2278.5,-478.5 2327.5,-478.5 2327.5,-459.5 2278.5,-459.5"/>
<text text-anchor="middle" x="2303" y="-466.5" font-family="FreeSans.ttf" font-size="10.00" fill="#000000">cstdlib</text>
</g>
<!-- Node45&#45;&gt;Node53 -->
<g id="edge96" class="edge">
<title>Node45&#45;&gt;Node53</title>
<path fill="none" stroke="#191970" d="M2076.526,-588.6923C2180.1774,-582.8499 2370.5307,-569.0893 2391,-546 2400.1398,-535.6903 2398.1375,-526.7849 2391,-515 2379.3643,-495.7882 2356.7785,-484.2167 2337.4024,-477.485"/>
<polygon fill="#191970" stroke="#191970" points="2338.2276,-474.075 2327.6375,-474.391 2336.1132,-480.7481 2338.2276,-474.075"/>
</g>
<!-- Node46&#45;&gt;Node38 -->
<g id="edge86" class="edge">
<title>Node46&#45;&gt;Node38</title>
<path fill="none" stroke="#191970" d="M2158.6563,-520.8906C2140.5727,-510.8713 2112.0141,-495.0483 2091.1835,-483.5071"/>
<polygon fill="#191970" stroke="#191970" points="2092.6654,-480.3268 2082.222,-478.5419 2089.2729,-486.4498 2092.6654,-480.3268"/>
</g>
<!-- Node47&#45;&gt;Node38 -->
<g id="edge88" class="edge">
<title>Node47&#45;&gt;Node38</title>
<path fill="none" stroke="#191970" d="M2280.436,-520.9581C2235.77,-510.1857 2163.0313,-492.6428 2114.603,-480.9631"/>
<polygon fill="#191970" stroke="#191970" points="2115.1987,-477.5065 2104.6568,-478.5643 2113.5574,-484.3113 2115.1987,-477.5065"/>
</g>
<!-- Node52&#45;&gt;Node15 -->
<g id="edge93" class="edge">
<title>Node52&#45;&gt;Node15</title>
<path fill="none" stroke="#191970" d="M1921.4688,-520.9188C1895.3125,-502.3877 1843,-458.9004 1843,-407.5 1843,-407.5 1843,-407.5 1843,-178 1843,-118.297 1783.1128,-129.3947 1726,-112 1620.1114,-79.7498 1274.8854,-69.2187 1167.3093,-66.6774"/>
<polygon fill="#191970" stroke="#191970" points="1167.1634,-63.1733 1157.0859,-66.4433 1167.0031,-70.1714 1167.1634,-63.1733"/>
</g>
<!-- Node52&#45;&gt;Node30 -->
<g id="edge95" class="edge">
<title>Node52&#45;&gt;Node30</title>
<path fill="none" stroke="#191970" d="M1854.3626,-524.9338C1683.435,-513.2797 1289.5077,-486.421 1117.2164,-474.6738"/>
<polygon fill="#191970" stroke="#191970" points="1117.4024,-471.1785 1107.1874,-473.9901 1116.9262,-478.1623 1117.4024,-471.1785"/>
</g>
<!-- Node52&#45;&gt;Node34 -->
<g id="edge94" class="edge">
<title>Node52&#45;&gt;Node34</title>
<path fill="none" stroke="#191970" d="M1893.1778,-520.9581C1838.1896,-508.7053 1743.8917,-487.6932 1693.7156,-476.5127"/>
<polygon fill="#191970" stroke="#191970" points="1694.2302,-473.0416 1683.7083,-474.2828 1692.7077,-479.8741 1694.2302,-473.0416"/>
</g>
<!-- Node52&#45;&gt;Node53 -->
<g id="edge92" class="edge">
<title>Node52&#45;&gt;Node53</title>
<path fill="none" stroke="#191970" d="M1992.9411,-520.9581C2069.991,-508.0465 2205.0837,-485.4083 2268.4043,-474.7974"/>
<polygon fill="#191970" stroke="#191970" points="2269.0058,-478.2455 2278.2898,-473.1408 2267.8488,-471.3417 2269.0058,-478.2455"/>
</g>
<!-- Node56&#45;&gt;Node30 -->
<g id="edge107" class="edge">
<title>Node56&#45;&gt;Node30</title>
<path fill="none" stroke="#191970" d="M686.0515,-638.3974C702.2708,-613.5319 749.4157,-546.7735 807,-515 831.9823,-501.2154 899.0274,-488.5775 953.8216,-480.0512"/>
<polygon fill="#191970" stroke="#191970" points="954.5428,-483.4816 963.8974,-478.5077 953.4827,-476.5624 954.5428,-483.4816"/>
</g>
<!-- Node56&#45;&gt;Node35 -->
<g id="edge108" class="edge">
<title>Node56&#45;&gt;Node35</title>
<path fill="none" stroke="#191970" d="M709.224,-638.3733C737.4925,-629.0613 780.4965,-614.8953 811.5344,-604.671"/>
<polygon fill="#191970" stroke="#191970" points="812.7544,-607.9542 821.1573,-601.5011 810.5643,-601.3056 812.7544,-607.9542"/>
</g>
<!-- Node58&#45;&gt;Node3 -->
<g id="edge113" class="edge">
<title>Node58&#45;&gt;Node3</title>
<path fill="none" stroke="#191970" d="M252.8758,-520.9279C217.3215,-506.2294 155.5418,-474.2943 133,-423 92.6591,-331.2033 45.2897,-311.453 229,-168 258.6638,-144.8366 351.6121,-133.0194 423.3818,-127.2079"/>
<polygon fill="#191970" stroke="#191970" points="423.663,-130.6967 433.3595,-126.4271 423.1169,-123.718 423.663,-130.6967"/>
</g>
<!-- Node58&#45;&gt;Node4 -->
<g id="edge122" class="edge">
<title>Node58&#45;&gt;Node4</title>
<path fill="none" stroke="#191970" d="M295.9479,-520.9617C320.4241,-507.2027 367.1108,-481.019 407,-459 508.5855,-402.9242 606,-406.0349 606,-290 606,-290 606,-290 606,-234 606,-179.7705 630.8755,-159.1015 604,-112 595.8031,-97.6343 581.1223,-87.1915 566.9092,-79.9231"/>
<polygon fill="#191970" stroke="#191970" points="568.2482,-76.6852 557.7095,-75.5959 565.2687,-83.0194 568.2482,-76.6852"/>
</g>
<!-- Node58&#45;&gt;Node18 -->
<g id="edge112" class="edge">
<title>Node58&#45;&gt;Node18</title>
<path fill="none" stroke="#191970" d="M359.6465,-521.9487C466.0022,-510.6713 652.7988,-490.8644 765.3032,-478.9351"/>
<polygon fill="#191970" stroke="#191970" points="765.7073,-482.412 775.2824,-477.8769 764.9691,-475.451 765.7073,-482.412"/>
</g>
<!-- Node58&#45;&gt;Node19 -->
<g id="edge114" class="edge">
<title>Node58&#45;&gt;Node19</title>
<path fill="none" stroke="#191970" d="M359.6317,-524.3245C399.971,-521.3272 449.5533,-517.7824 494,-515 774.8401,-497.4195 1107.1903,-480.9911 1266.1531,-473.4028"/>
<polygon fill="#191970" stroke="#191970" points="1266.5486,-476.8881 1276.3706,-472.9159 1266.2153,-469.896 1266.5486,-476.8881"/>
</g>
<!-- Node58&#45;&gt;Node21 -->
<g id="edge116" class="edge">
<title>Node58&#45;&gt;Node21</title>
<path fill="none" stroke="#191970" d="M265.6323,-520.9781C247.6886,-507.0171 219.7337,-480.3365 235,-459 244.3115,-445.986 275.9794,-434.2283 307.9253,-425.2439"/>
<polygon fill="#191970" stroke="#191970" points="309.0961,-428.5526 317.824,-422.5464 307.2556,-421.7988 309.0961,-428.5526"/>
</g>
<!-- Node58&#45;&gt;Node30 -->
<g id="edge121" class="edge">
<title>Node58&#45;&gt;Node30</title>
<path fill="none" stroke="#191970" d="M359.6645,-524.5325C518.462,-512.7561 863.1354,-487.0441 950.5256,-479.0687"/>
<polygon fill="#191970" stroke="#191970" points="951.0753,-482.5324 960.7005,-478.1046 950.4149,-475.5636 951.0753,-482.5324"/>
</g>
<!-- Node58&#45;&gt;Node28 -->
<g id="edge115" class="edge">
<title>Node58&#45;&gt;Node28</title>
<path fill="none" stroke="#191970" d="M206.4663,-520.9649C151.9138,-512.418 83.0881,-498.2546 62,-479 37.246,-456.3981 38,-441.0202 38,-407.5 38,-407.5 38,-407.5 38,-234 38,-176.652 103.859,-147.8663 156.9871,-133.9749"/>
<polygon fill="#191970" stroke="#191970" points="157.8799,-137.3596 166.7404,-131.5509 156.1914,-130.5663 157.8799,-137.3596"/>
</g>
<!-- Node59 -->
<g id="node48" class="node">
<title>Node59</title>
<polygon fill="none" stroke="#bfbfbf" points="244.5,-459.5 244.5,-478.5 321.5,-478.5 321.5,-459.5 244.5,-459.5"/>
<text text-anchor="middle" x="283" y="-466.5" font-family="FreeSans.ttf" font-size="10.00" fill="#000000">Eigen/Dense</text>
</g>
<!-- Node58&#45;&gt;Node59 -->
<g id="edge111" class="edge">
<title>Node58&#45;&gt;Node59</title>
<path fill="none" stroke="#191970" d="M279.625,-520.8906C280.1795,-512.3657 281.0072,-499.6392 281.7042,-488.9235"/>
<polygon fill="#191970" stroke="#191970" points="285.2097,-488.951 282.3662,-478.7449 278.2244,-488.4966 285.2097,-488.951"/>
</g>
<!-- Node43 -->
<g id="node49" class="node">
<title>Node43</title>
<g id="a_node49"><a xlink:href="SpatialForceVector_8h.html" target="_top" xlink:title="iDynTree/Core/SpatialForce\lVector.h">
<polygon fill="none" stroke="#000000" points="142,-392.5 142,-422.5 290,-422.5 290,-392.5 142,-392.5"/>
<text text-anchor="start" x="150" y="-410.5" font-family="FreeSans.ttf" font-size="10.00" fill="#000000">iDynTree/Core/SpatialForce</text>
<text text-anchor="middle" x="216" y="-399.5" font-family="FreeSans.ttf" font-size="10.00" fill="#000000">Vector.h</text>
</a>
</g>
</g>
<!-- Node58&#45;&gt;Node43 -->
<g id="edge117" class="edge">
<title>Node58&#45;&gt;Node43</title>
<path fill="none" stroke="#191970" d="M253.1929,-520.941C235.2751,-512.7853 212.7608,-499.143 202,-479 194.2518,-464.4963 197.9831,-446.285 203.5331,-431.8717"/>
<polygon fill="#191970" stroke="#191970" points="206.7892,-433.16 207.5472,-422.5923 200.3645,-430.3807 206.7892,-433.16"/>
</g>
<!-- Node43&#45;&gt;Node3 -->
<g id="edge118" class="edge">
<title>Node43&#45;&gt;Node3</title>
<path fill="none" stroke="#191970" d="M212.5566,-392.3401C203.9836,-350.2824 186.4948,-231.0943 247,-168 270.9218,-143.0546 355.3636,-131.5905 422.9599,-126.3501"/>
<polygon fill="#191970" stroke="#191970" points="423.5115,-129.819 433.2263,-125.5913 422.9955,-122.838 423.5115,-129.819"/>
</g>
<!-- Node43&#45;&gt;Node22 -->
<g id="edge119" class="edge">
<title>Node43&#45;&gt;Node22</title>
<path fill="none" stroke="#191970" d="M220.5401,-392.3616C230.711,-359.8152 257.4149,-281.4776 295,-224 301.8916,-213.461 311.287,-203.093 319.5379,-194.8759"/>
<polygon fill="#191970" stroke="#191970" points="322.1962,-197.1754 326.9786,-187.7214 317.3444,-192.1296 322.1962,-197.1754"/>
</g>
<!-- Node43&#45;&gt;Node23 -->
<g id="edge120" class="edge">
<title>Node43&#45;&gt;Node23</title>
<path fill="none" stroke="#191970" d="M256.8528,-392.4554C284.595,-382.239 320.9225,-368.8609 347.4655,-359.0861"/>
<polygon fill="#191970" stroke="#191970" points="348.9465,-362.2705 357.1209,-355.5303 346.5275,-355.7018 348.9465,-362.2705"/>
</g>
</g>
</svg>
