<?xml version="1.0" encoding="UTF-8" standalone="no"?>
<!DOCTYPE svg PUBLIC "-//W3C//DTD SVG 1.1//EN"
 "http://www.w3.org/Graphics/SVG/1.1/DTD/svg11.dtd">
<!-- Generated by graphviz version 2.40.1 (20161225.0304)
 -->
<!-- Title: InverseKinematics.cpp Pages: 1 -->
<svg width="1127pt" height="532pt"
 viewBox="0.00 0.00 1126.50 532.00" xmlns="http://www.w3.org/2000/svg" xmlns:xlink="http://www.w3.org/1999/xlink">
<g id="graph0" class="graph" transform="scale(1 1) rotate(0) translate(4 528)">
<title>InverseKinematics.cpp</title>
<!-- Node0 -->
<g id="node1" class="node">
<title>Node0</title>
<polygon fill="#bfbfbf" stroke="#000000" points="866.5,-504.5 866.5,-523.5 994.5,-523.5 994.5,-504.5 866.5,-504.5"/>
<text text-anchor="middle" x="930.5" y="-511.5" font-family="FreeSans.ttf" font-size="10.00" fill="#000000">InverseKinematics.cpp</text>
</g>
<!-- Node1 -->
<g id="node2" class="node">
<title>Node1</title>
<g id="a_node2"><a xlink:href="InverseKinematics_8h.html" target="_top" xlink:title="iDynTree/InverseKinematics.h">
<polygon fill="none" stroke="#000000" points="849.5,-448.5 849.5,-467.5 1011.5,-467.5 1011.5,-448.5 849.5,-448.5"/>
<text text-anchor="middle" x="930.5" y="-455.5" font-family="FreeSans.ttf" font-size="10.00" fill="#000000">iDynTree/InverseKinematics.h</text>
</a>
</g>
</g>
<!-- Node0&#45;&gt;Node1 -->
<g id="edge1" class="edge">
<title>Node0&#45;&gt;Node1</title>
<path fill="none" stroke="#191970" d="M930.5,-504.2455C930.5,-496.9382 930.5,-486.6944 930.5,-477.7046"/>
<polygon fill="#191970" stroke="#191970" points="934.0001,-477.6426 930.5,-467.6427 927.0001,-477.6427 934.0001,-477.6426"/>
</g>
<!-- Node2 -->
<g id="node3" class="node">
<title>Node2</title>
<polygon fill="none" stroke="#bfbfbf" points="663.5,-56.5 663.5,-75.5 707.5,-75.5 707.5,-56.5 663.5,-56.5"/>
<text text-anchor="middle" x="685.5" y="-63.5" font-family="FreeSans.ttf" font-size="10.00" fill="#000000">string</text>
</g>
<!-- Node1&#45;&gt;Node2 -->
<g id="edge2" class="edge">
<title>Node1&#45;&gt;Node2</title>
<path fill="none" stroke="#191970" d="M988.9538,-448.4464C1044.1417,-435.6959 1118.5,-407.1669 1118.5,-346 1118.5,-346 1118.5,-346 1118.5,-178 1118.5,-95.2158 818.0955,-72.6359 717.7192,-67.4018"/>
<polygon fill="#191970" stroke="#191970" points="717.7294,-63.8981 707.5678,-66.8967 717.3815,-70.8895 717.7294,-63.8981"/>
</g>
<!-- Node3 -->
<g id="node4" class="node">
<title>Node3</title>
<polygon fill="none" stroke="#bfbfbf" points="963,-336.5 963,-355.5 1010,-355.5 1010,-336.5 963,-336.5"/>
<text text-anchor="middle" x="986.5" y="-343.5" font-family="FreeSans.ttf" font-size="10.00" fill="#000000">vector</text>
</g>
<!-- Node1&#45;&gt;Node3 -->
<g id="edge3" class="edge">
<title>Node1&#45;&gt;Node3</title>
<path fill="none" stroke="#191970" d="M940.304,-448.2386C948.6241,-439.4506 960.3222,-425.8263 967.5,-412 975.0541,-397.4489 979.9747,-379.4888 982.9115,-365.9794"/>
<polygon fill="#191970" stroke="#191970" points="986.4079,-366.3416 984.926,-355.851 979.5424,-364.976 986.4079,-366.3416"/>
</g>
<!-- Node4 -->
<g id="node5" class="node">
<title>Node4</title>
<g id="a_node5"><a xlink:href="ConvexHullHelpers_8h.html" target="_top" xlink:title="iDynTree/ConvexHullHelpers.h">
<polygon fill="none" stroke="#000000" points="793,-392.5 793,-411.5 958,-411.5 958,-392.5 793,-392.5"/>
<text text-anchor="middle" x="875.5" y="-399.5" font-family="FreeSans.ttf" font-size="10.00" fill="#000000">iDynTree/ConvexHullHelpers.h</text>
</a>
</g>
</g>
<!-- Node1&#45;&gt;Node4 -->
<g id="edge4" class="edge">
<title>Node1&#45;&gt;Node4</title>
<path fill="none" stroke="#191970" d="M920.9197,-448.2455C912.9542,-440.1352 901.4359,-428.4075 891.9921,-418.7919"/>
<polygon fill="#191970" stroke="#191970" points="894.4747,-416.3247 884.9705,-411.6427 889.4805,-421.2297 894.4747,-416.3247"/>
</g>
<!-- Node29 -->
<g id="node30" class="node">
<title>Node29</title>
<g id="a_node30"><a xlink:href="Direction_8h.html" target="_top" xlink:title="iDynTree/Core/Direction.h">
<polygon fill="none" stroke="#000000" points="283,-168.5 283,-187.5 424,-187.5 424,-168.5 283,-168.5"/>
<text text-anchor="middle" x="353.5" y="-175.5" font-family="FreeSans.ttf" font-size="10.00" fill="#000000">iDynTree/Core/Direction.h</text>
</a>
</g>
</g>
<!-- Node1&#45;&gt;Node29 -->
<g id="edge52" class="edge">
<title>Node1&#45;&gt;Node29</title>
<path fill="none" stroke="#191970" d="M849.296,-450.4027C691.6531,-434.5543 359.5,-395.3108 359.5,-346 359.5,-346 359.5,-346 359.5,-290 359.5,-257.6653 356.9755,-220.1547 355.2016,-197.7876"/>
<polygon fill="#191970" stroke="#191970" points="358.6698,-197.2576 354.3597,-187.5791 351.6935,-197.833 358.6698,-197.2576"/>
</g>
<!-- Node4&#45;&gt;Node2 -->
<g id="edge5" class="edge">
<title>Node4&#45;&gt;Node2</title>
<path fill="none" stroke="#191970" d="M878.3972,-392.4586C889.8703,-354.0164 930.7204,-210.5211 914.5,-168 902.6079,-136.8253 893.0019,-129.3471 864.5,-112 818.4742,-83.9873 755.8109,-72.932 718.1406,-68.6408"/>
<polygon fill="#191970" stroke="#191970" points="718.0648,-65.114 707.7557,-67.5579 717.3387,-72.0762 718.0648,-65.114"/>
</g>
<!-- Node4&#45;&gt;Node3 -->
<g id="edge6" class="edge">
<title>Node4&#45;&gt;Node3</title>
<path fill="none" stroke="#191970" d="M894.5816,-392.3733C912.2402,-383.4644 938.7053,-370.1127 958.7098,-360.0203"/>
<polygon fill="#191970" stroke="#191970" points="960.3158,-363.1303 967.6674,-355.5011 957.1628,-356.8806 960.3158,-363.1303"/>
</g>
<!-- Node5 -->
<g id="node6" class="node">
<title>Node5</title>
<g id="a_node6"><a xlink:href="MatrixDynSize_8h.html" target="_top" xlink:title="iDynTree/Core/MatrixDynSize.h">
<polygon fill="none" stroke="#000000" points="924,-280.5 924,-299.5 1091,-299.5 1091,-280.5 924,-280.5"/>
<text text-anchor="middle" x="1007.5" y="-287.5" font-family="FreeSans.ttf" font-size="10.00" fill="#000000">iDynTree/Core/MatrixDynSize.h</text>
</a>
</g>
</g>
<!-- Node4&#45;&gt;Node5 -->
<g id="edge7" class="edge">
<title>Node4&#45;&gt;Node5</title>
<path fill="none" stroke="#191970" d="M886.7542,-392.4509C909.3548,-373.2747 960.4794,-329.8962 988.4085,-306.1988"/>
<polygon fill="#191970" stroke="#191970" points="990.9136,-308.6635 996.2742,-299.5249 986.3847,-303.3259 990.9136,-308.6635"/>
</g>
<!-- Node6 -->
<g id="node7" class="node">
<title>Node6</title>
<g id="a_node7"><a xlink:href="Position_8h.html" target="_top" xlink:title="iDynTree/Core/Position.h">
<polygon fill="none" stroke="#000000" points="732.5,-280.5 732.5,-299.5 868.5,-299.5 868.5,-280.5 732.5,-280.5"/>
<text text-anchor="middle" x="800.5" y="-287.5" font-family="FreeSans.ttf" font-size="10.00" fill="#000000">iDynTree/Core/Position.h</text>
</a>
</g>
</g>
<!-- Node4&#45;&gt;Node6 -->
<g id="edge9" class="edge">
<title>Node4&#45;&gt;Node6</title>
<path fill="none" stroke="#191970" d="M869.1055,-392.4509C856.5964,-373.7707 828.7079,-332.1238 812.6046,-308.0761"/>
<polygon fill="#191970" stroke="#191970" points="815.3506,-305.8865 806.8783,-299.5249 809.5342,-309.7814 815.3506,-305.8865"/>
</g>
<!-- Node27 -->
<g id="node28" class="node">
<title>Node27</title>
<g id="a_node28"><a xlink:href="Transform_8h.html" target="_top" xlink:title="iDynTree/Core/Transform.h">
<polygon fill="none" stroke="#000000" points="631.5,-336.5 631.5,-355.5 777.5,-355.5 777.5,-336.5 631.5,-336.5"/>
<text text-anchor="middle" x="704.5" y="-343.5" font-family="FreeSans.ttf" font-size="10.00" fill="#000000">iDynTree/Core/Transform.h</text>
</a>
</g>
</g>
<!-- Node4&#45;&gt;Node27 -->
<g id="edge44" class="edge">
<title>Node4&#45;&gt;Node27</title>
<path fill="none" stroke="#191970" d="M846.1041,-392.3733C817.6693,-383.0613 774.4123,-368.8953 743.1919,-358.671"/>
<polygon fill="#191970" stroke="#191970" points="744.105,-355.2872 733.5124,-355.5011 741.9264,-361.9396 744.105,-355.2872"/>
</g>
<!-- Node28 -->
<g id="node29" class="node">
<title>Node28</title>
<g id="a_node29"><a xlink:href="VectorDynSize_8h.html" target="_top" xlink:title="iDynTree/Core/VectorDynSize.h">
<polygon fill="none" stroke="#000000" points="434,-112.5 434,-131.5 601,-131.5 601,-112.5 434,-112.5"/>
<text text-anchor="middle" x="517.5" y="-119.5" font-family="FreeSans.ttf" font-size="10.00" fill="#000000">iDynTree/Core/VectorDynSize.h</text>
</a>
</g>
</g>
<!-- Node4&#45;&gt;Node28 -->
<g id="edge49" class="edge">
<title>Node4&#45;&gt;Node28</title>
<path fill="none" stroke="#191970" d="M792.9372,-396.9102C669.8365,-387.0243 452.5,-359.7007 452.5,-290 452.5,-290 452.5,-290 452.5,-234 452.5,-203.4754 455.9938,-194.2928 471.5,-168 478.0889,-156.8277 488.0236,-146.4219 496.9762,-138.3433"/>
<polygon fill="#191970" stroke="#191970" points="499.4936,-140.7948 504.7977,-131.6232 494.9318,-135.4853 499.4936,-140.7948"/>
</g>
<!-- Node5&#45;&gt;Node2 -->
<g id="edge8" class="edge">
<title>Node5&#45;&gt;Node2</title>
<path fill="none" stroke="#191970" d="M1008.7557,-280.1193C1011.9865,-249.9222 1017.2001,-158.113 968.5,-112 932.8921,-78.2837 784.456,-69.2183 717.9619,-66.8309"/>
<polygon fill="#191970" stroke="#191970" points="717.762,-63.3225 707.6521,-66.4911 717.5314,-70.3187 717.762,-63.3225"/>
</g>
<!-- Node6&#45;&gt;Node2 -->
<g id="edge43" class="edge">
<title>Node6&#45;&gt;Node2</title>
<path fill="none" stroke="#191970" d="M818.6388,-280.4361C853.8709,-260.562 925.7251,-212.9021 897.5,-168 857.7075,-104.6958 766.4146,-79.7696 717.627,-70.705"/>
<polygon fill="#191970" stroke="#191970" points="718.0641,-67.2285 707.6112,-68.957 716.8605,-74.1242 718.0641,-67.2285"/>
</g>
<!-- Node7 -->
<g id="node8" class="node">
<title>Node7</title>
<g id="a_node8"><a xlink:href="PositionRaw_8h.html" target="_top" xlink:title="iDynTree/Core/PositionRaw.h">
<polygon fill="none" stroke="#000000" points="732.5,-168.5 732.5,-187.5 888.5,-187.5 888.5,-168.5 732.5,-168.5"/>
<text text-anchor="middle" x="810.5" y="-175.5" font-family="FreeSans.ttf" font-size="10.00" fill="#000000">iDynTree/Core/PositionRaw.h</text>
</a>
</g>
</g>
<!-- Node6&#45;&gt;Node7 -->
<g id="edge10" class="edge">
<title>Node6&#45;&gt;Node7</title>
<path fill="none" stroke="#191970" d="M801.3526,-280.4509C802.9836,-262.184 806.5754,-221.9553 808.7413,-197.6976"/>
<polygon fill="#191970" stroke="#191970" points="812.2463,-197.7966 809.6496,-187.5249 805.274,-197.174 812.2463,-197.7966"/>
</g>
<!-- Node22 -->
<g id="node23" class="node">
<title>Node22</title>
<g id="a_node23"><a xlink:href="Rotation_8h.html" target="_top" xlink:title="iDynTree/Core/Rotation.h">
<polygon fill="none" stroke="#000000" points="515,-224.5 515,-243.5 652,-243.5 652,-224.5 515,-224.5"/>
<text text-anchor="middle" x="583.5" y="-231.5" font-family="FreeSans.ttf" font-size="10.00" fill="#000000">iDynTree/Core/Rotation.h</text>
</a>
</g>
</g>
<!-- Node6&#45;&gt;Node22 -->
<g id="edge29" class="edge">
<title>Node6&#45;&gt;Node22</title>
<path fill="none" stroke="#191970" d="M763.1964,-280.3733C726.3315,-270.8598 669.834,-256.2797 630.0494,-246.0127"/>
<polygon fill="#191970" stroke="#191970" points="630.8742,-242.611 620.3169,-243.5011 629.125,-249.3889 630.8742,-242.611"/>
</g>
<!-- Node7&#45;&gt;Node2 -->
<g id="edge28" class="edge">
<title>Node7&#45;&gt;Node2</title>
<path fill="none" stroke="#191970" d="M799.8426,-168.4509C778.4406,-149.2747 730.0271,-105.8962 703.579,-82.1988"/>
<polygon fill="#191970" stroke="#191970" points="705.9138,-79.5914 696.1305,-75.5249 701.2426,-84.8048 705.9138,-79.5914"/>
</g>
<!-- Node8 -->
<g id="node9" class="node">
<title>Node8</title>
<g id="a_node9"><a xlink:href="VectorFixSize_8h.html" target="_top" xlink:title="iDynTree/Core/VectorFixSize.h">
<polygon fill="none" stroke="#000000" points="179,-112.5 179,-131.5 340,-131.5 340,-112.5 179,-112.5"/>
<text text-anchor="middle" x="259.5" y="-119.5" font-family="FreeSans.ttf" font-size="10.00" fill="#000000">iDynTree/Core/VectorFixSize.h</text>
</a>
</g>
</g>
<!-- Node7&#45;&gt;Node8 -->
<g id="edge11" class="edge">
<title>Node7&#45;&gt;Node8</title>
<path fill="none" stroke="#191970" d="M732.4323,-170.0657C631.7713,-159.8352 457.0273,-142.0754 350.4655,-131.2451"/>
<polygon fill="#191970" stroke="#191970" points="350.6734,-127.7483 340.3707,-130.2192 349.9655,-134.7124 350.6734,-127.7483"/>
</g>
<!-- Node8&#45;&gt;Node2 -->
<g id="edge24" class="edge">
<title>Node8&#45;&gt;Node2</title>
<path fill="none" stroke="#191970" d="M332.248,-112.4369C426.0853,-100.1015 585.2987,-79.172 653.2314,-70.2419"/>
<polygon fill="#191970" stroke="#191970" points="653.8679,-73.6884 663.3265,-68.9148 652.9555,-66.7481 653.8679,-73.6884"/>
</g>
<!-- Node9 -->
<g id="node10" class="node">
<title>Node9</title>
<g id="a_node10"><a xlink:href="Utils_8h.html" target="_top" xlink:title="iDynTree/Core/Utils.h">
<polygon fill="none" stroke="#000000" points="288,-56.5 288,-75.5 407,-75.5 407,-56.5 288,-56.5"/>
<text text-anchor="middle" x="347.5" y="-63.5" font-family="FreeSans.ttf" font-size="10.00" fill="#000000">iDynTree/Core/Utils.h</text>
</a>
</g>
</g>
<!-- Node8&#45;&gt;Node9 -->
<g id="edge12" class="edge">
<title>Node8&#45;&gt;Node9</title>
<path fill="none" stroke="#191970" d="M274.8284,-112.2455C288.3303,-103.6534 308.2122,-91.0014 323.7686,-81.1018"/>
<polygon fill="#191970" stroke="#191970" points="325.7897,-83.9643 332.3472,-75.6427 322.0315,-78.0587 325.7897,-83.9643"/>
</g>
<!-- Node11 -->
<g id="node12" class="node">
<title>Node11</title>
<g id="a_node12"><a xlink:href="Span_8h.html" target="_top" xlink:title="iDynTree/Core/Span.h">
<polygon fill="none" stroke="#000000" points="457,-56.5 457,-75.5 578,-75.5 578,-56.5 457,-56.5"/>
<text text-anchor="middle" x="517.5" y="-63.5" font-family="FreeSans.ttf" font-size="10.00" fill="#000000">iDynTree/Core/Span.h</text>
</a>
</g>
</g>
<!-- Node8&#45;&gt;Node11 -->
<g id="edge14" class="edge">
<title>Node8&#45;&gt;Node11</title>
<path fill="none" stroke="#191970" d="M303.5586,-112.4369C347.8989,-102.8127 416.3411,-87.957 463.8249,-77.6504"/>
<polygon fill="#191970" stroke="#191970" points="464.5931,-81.0653 473.6231,-75.5237 463.1082,-74.2245 464.5931,-81.0653"/>
</g>
<!-- Node12 -->
<g id="node13" class="node">
<title>Node12</title>
<polygon fill="none" stroke="#bfbfbf" points="221.5,-.5 221.5,-19.5 273.5,-19.5 273.5,-.5 221.5,-.5"/>
<text text-anchor="middle" x="247.5" y="-7.5" font-family="FreeSans.ttf" font-size="10.00" fill="#000000">cassert</text>
</g>
<!-- Node8&#45;&gt;Node12 -->
<g id="edge26" class="edge">
<title>Node8&#45;&gt;Node12</title>
<path fill="none" stroke="#191970" d="M258.4769,-112.4509C256.5197,-94.184 252.2095,-53.9553 249.6105,-29.6976"/>
<polygon fill="#191970" stroke="#191970" points="253.066,-29.0951 248.5205,-19.5249 246.1059,-29.8409 253.066,-29.0951"/>
</g>
<!-- Node20 -->
<g id="node21" class="node">
<title>Node20</title>
<polygon fill="none" stroke="#bfbfbf" points="175.5,-56.5 175.5,-75.5 231.5,-75.5 231.5,-56.5 175.5,-56.5"/>
<text text-anchor="middle" x="203.5" y="-63.5" font-family="FreeSans.ttf" font-size="10.00" fill="#000000">sstream</text>
</g>
<!-- Node8&#45;&gt;Node20 -->
<g id="edge25" class="edge">
<title>Node8&#45;&gt;Node20</title>
<path fill="none" stroke="#191970" d="M249.7455,-112.2455C241.6352,-104.1352 229.9075,-92.4075 220.2919,-82.7919"/>
<polygon fill="#191970" stroke="#191970" points="222.6887,-80.2389 213.1427,-75.6427 217.7389,-85.1887 222.6887,-80.2389"/>
</g>
<!-- Node21 -->
<g id="node22" class="node">
<title>Node21</title>
<polygon fill="none" stroke="#bfbfbf" points="107.5,-56.5 107.5,-75.5 157.5,-75.5 157.5,-56.5 107.5,-56.5"/>
<text text-anchor="middle" x="132.5" y="-63.5" font-family="FreeSans.ttf" font-size="10.00" fill="#000000">cstring</text>
</g>
<!-- Node8&#45;&gt;Node21 -->
<g id="edge27" class="edge">
<title>Node8&#45;&gt;Node21</title>
<path fill="none" stroke="#191970" d="M237.6679,-112.3733C217.1897,-103.3435 186.3601,-89.7494 163.3681,-79.6111"/>
<polygon fill="#191970" stroke="#191970" points="164.6093,-76.3333 154.0472,-75.5011 161.785,-82.7383 164.6093,-76.3333"/>
</g>
<!-- Node10 -->
<g id="node11" class="node">
<title>Node10</title>
<polygon fill="none" stroke="#bfbfbf" points="292,-.5 292,-19.5 345,-19.5 345,-.5 292,-.5"/>
<text text-anchor="middle" x="318.5" y="-7.5" font-family="FreeSans.ttf" font-size="10.00" fill="#000000">cstddef</text>
</g>
<!-- Node9&#45;&gt;Node10 -->
<g id="edge13" class="edge">
<title>Node9&#45;&gt;Node10</title>
<path fill="none" stroke="#191970" d="M342.4486,-56.2455C338.4981,-48.617 332.8903,-37.7881 328.0942,-28.5267"/>
<polygon fill="#191970" stroke="#191970" points="331.2001,-26.9131 323.4935,-19.6427 324.9841,-30.1321 331.2001,-26.9131"/>
</g>
<!-- Node11&#45;&gt;Node10 -->
<g id="edge18" class="edge">
<title>Node11&#45;&gt;Node10</title>
<path fill="none" stroke="#191970" d="M483.2488,-56.4449C452.1356,-47.7537 404.7092,-34.4772 355.1791,-20.4676"/>
<polygon fill="#191970" stroke="#191970" points="355.8244,-17.0128 345.2492,-17.657 353.918,-23.7482 355.8244,-17.0128"/>
</g>
<!-- Node11&#45;&gt;Node12 -->
<g id="edge15" class="edge">
<title>Node11&#45;&gt;Node12</title>
<path fill="none" stroke="#191970" d="M461.6583,-56.4494C416.1021,-48.3445 349.8977,-35.856 283.5911,-20.1213"/>
<polygon fill="#191970" stroke="#191970" points="284.3503,-16.7042 273.8099,-17.7764 282.7183,-23.5114 284.3503,-16.7042"/>
</g>
<!-- Node13 -->
<g id="node14" class="node">
<title>Node13</title>
<polygon fill="none" stroke="#bfbfbf" points="730.5,-.5 730.5,-19.5 794.5,-19.5 794.5,-.5 730.5,-.5"/>
<text text-anchor="middle" x="762.5" y="-7.5" font-family="FreeSans.ttf" font-size="10.00" fill="#000000">algorithm</text>
</g>
<!-- Node11&#45;&gt;Node13 -->
<g id="edge16" class="edge">
<title>Node11&#45;&gt;Node13</title>
<path fill="none" stroke="#191970" d="M560.3024,-56.4433C601.4069,-47.232 665.2376,-32.8397 720.5,-20 720.6004,-19.9767 720.7009,-19.9533 720.8016,-19.9299"/>
<polygon fill="#191970" stroke="#191970" points="721.4671,-23.3689 730.4049,-17.6797 719.8701,-16.5534 721.4671,-23.3689"/>
</g>
<!-- Node14 -->
<g id="node15" class="node">
<title>Node14</title>
<polygon fill="none" stroke="#bfbfbf" points="812.5,-.5 812.5,-19.5 854.5,-19.5 854.5,-.5 812.5,-.5"/>
<text text-anchor="middle" x="833.5" y="-7.5" font-family="FreeSans.ttf" font-size="10.00" fill="#000000">array</text>
</g>
<!-- Node11&#45;&gt;Node14 -->
<g id="edge17" class="edge">
<title>Node11&#45;&gt;Node14</title>
<path fill="none" stroke="#191970" d="M578.0519,-59.1589C634.1155,-52.1717 719.8593,-39.8308 802.5176,-19.9325"/>
<polygon fill="#191970" stroke="#191970" points="803.4383,-23.3106 812.3194,-17.5333 801.774,-16.5113 803.4383,-23.3106"/>
</g>
<!-- Node15 -->
<g id="node16" class="node">
<title>Node15</title>
<polygon fill="none" stroke="#bfbfbf" points="363,-.5 363,-19.5 416,-19.5 416,-.5 363,-.5"/>
<text text-anchor="middle" x="389.5" y="-7.5" font-family="FreeSans.ttf" font-size="10.00" fill="#000000">iterator</text>
</g>
<!-- Node11&#45;&gt;Node15 -->
<g id="edge19" class="edge">
<title>Node11&#45;&gt;Node15</title>
<path fill="none" stroke="#191970" d="M495.496,-56.3733C474.8565,-47.3435 443.7842,-33.7494 420.6111,-23.6111"/>
<polygon fill="#191970" stroke="#191970" points="421.7813,-20.3028 411.2169,-19.5011 418.9755,-26.7159 421.7813,-20.3028"/>
</g>
<!-- Node16 -->
<g id="node17" class="node">
<title>Node16</title>
<polygon fill="none" stroke="#bfbfbf" points="434.5,-.5 434.5,-19.5 478.5,-19.5 478.5,-.5 434.5,-.5"/>
<text text-anchor="middle" x="456.5" y="-7.5" font-family="FreeSans.ttf" font-size="10.00" fill="#000000">limits</text>
</g>
<!-- Node11&#45;&gt;Node16 -->
<g id="edge20" class="edge">
<title>Node11&#45;&gt;Node16</title>
<path fill="none" stroke="#191970" d="M506.8746,-56.2455C497.9527,-48.0549 485.012,-36.1749 474.4808,-26.5069"/>
<polygon fill="#191970" stroke="#191970" points="476.7371,-23.8271 467.0036,-19.6427 472.0032,-28.9837 476.7371,-23.8271"/>
</g>
<!-- Node17 -->
<g id="node18" class="node">
<title>Node17</title>
<polygon fill="none" stroke="#bfbfbf" points="497,-.5 497,-19.5 562,-19.5 562,-.5 497,-.5"/>
<text text-anchor="middle" x="529.5" y="-7.5" font-family="FreeSans.ttf" font-size="10.00" fill="#000000">stdexcept</text>
</g>
<!-- Node11&#45;&gt;Node17 -->
<g id="edge21" class="edge">
<title>Node11&#45;&gt;Node17</title>
<path fill="none" stroke="#191970" d="M519.5902,-56.2455C521.1561,-48.9382 523.3512,-38.6944 525.2776,-29.7046"/>
<polygon fill="#191970" stroke="#191970" points="528.7607,-30.1541 527.4337,-19.6427 521.916,-28.6873 528.7607,-30.1541"/>
</g>
<!-- Node18 -->
<g id="node19" class="node">
<title>Node18</title>
<polygon fill="none" stroke="#bfbfbf" points="580,-.5 580,-19.5 649,-19.5 649,-.5 580,-.5"/>
<text text-anchor="middle" x="614.5" y="-7.5" font-family="FreeSans.ttf" font-size="10.00" fill="#000000">type_traits</text>
</g>
<!-- Node11&#45;&gt;Node18 -->
<g id="edge22" class="edge">
<title>Node11&#45;&gt;Node18</title>
<path fill="none" stroke="#191970" d="M534.3961,-56.2455C549.418,-47.5731 571.6043,-34.7645 588.821,-24.825"/>
<polygon fill="#191970" stroke="#191970" points="590.8871,-27.6737 597.7975,-19.6427 587.3872,-21.6114 590.8871,-27.6737"/>
</g>
<!-- Node19 -->
<g id="node20" class="node">
<title>Node19</title>
<polygon fill="none" stroke="#bfbfbf" points="667,-.5 667,-19.5 712,-19.5 712,-.5 667,-.5"/>
<text text-anchor="middle" x="689.5" y="-7.5" font-family="FreeSans.ttf" font-size="10.00" fill="#000000">utility</text>
</g>
<!-- Node11&#45;&gt;Node19 -->
<g id="edge23" class="edge">
<title>Node11&#45;&gt;Node19</title>
<path fill="none" stroke="#191970" d="M547.0679,-56.3733C577.7489,-46.3841 625.5864,-30.8091 657.2309,-20.5062"/>
<polygon fill="#191970" stroke="#191970" points="658.4687,-23.7841 666.8938,-17.3601 656.3016,-17.128 658.4687,-23.7841"/>
</g>
<!-- Node22&#45;&gt;Node2 -->
<g id="edge30" class="edge">
<title>Node22&#45;&gt;Node2</title>
<path fill="none" stroke="#191970" d="M602.9133,-224.4671C617.1655,-216.5388 635.9748,-203.9819 647.5,-188 670.1064,-156.6519 679.5428,-111.4685 683.2648,-85.7992"/>
<polygon fill="#191970" stroke="#191970" points="686.7471,-86.1614 684.5659,-75.7935 679.8056,-85.2586 686.7471,-86.1614"/>
</g>
<!-- Node22&#45;&gt;Node8 -->
<g id="edge42" class="edge">
<title>Node22&#45;&gt;Node8</title>
<path fill="none" stroke="#191970" d="M514.8616,-228.7632C381.4555,-218.4246 99.5348,-195.7246 92.5,-188 86.5149,-181.428 87.1134,-175.0709 92.5,-168 99.5034,-158.8067 158.3107,-144.068 204.1831,-133.7584"/>
<polygon fill="#191970" stroke="#191970" points="205.0448,-137.1523 214.0463,-131.5644 203.5249,-130.3193 205.0448,-137.1523"/>
</g>
<!-- Node23 -->
<g id="node24" class="node">
<title>Node23</title>
<g id="a_node24"><a xlink:href="GeomVector3_8h.html" target="_top" xlink:title="iDynTree/Core/GeomVector3.h">
<polygon fill="none" stroke="#000000" points="102,-168.5 102,-187.5 265,-187.5 265,-168.5 102,-168.5"/>
<text text-anchor="middle" x="183.5" y="-175.5" font-family="FreeSans.ttf" font-size="10.00" fill="#000000">iDynTree/Core/GeomVector3.h</text>
</a>
</g>
</g>
<!-- Node22&#45;&gt;Node23 -->
<g id="edge31" class="edge">
<title>Node22&#45;&gt;Node23</title>
<path fill="none" stroke="#191970" d="M515.192,-224.4369C444.8655,-214.5912 335.4318,-199.2705 261.6873,-188.9462"/>
<polygon fill="#191970" stroke="#191970" points="261.9149,-185.444 251.5262,-187.5237 260.9443,-192.3764 261.9149,-185.444"/>
</g>
<!-- Node24 -->
<g id="node25" class="node">
<title>Node24</title>
<g id="a_node25"><a xlink:href="RotationRaw_8h.html" target="_top" xlink:title="iDynTree/Core/RotationRaw.h">
<polygon fill="none" stroke="#000000" points="480.5,-168.5 480.5,-187.5 638.5,-187.5 638.5,-168.5 480.5,-168.5"/>
<text text-anchor="middle" x="559.5" y="-175.5" font-family="FreeSans.ttf" font-size="10.00" fill="#000000">iDynTree/Core/RotationRaw.h</text>
</a>
</g>
</g>
<!-- Node22&#45;&gt;Node24 -->
<g id="edge33" class="edge">
<title>Node22&#45;&gt;Node24</title>
<path fill="none" stroke="#191970" d="M579.3195,-224.2455C576.119,-216.7776 571.604,-206.2427 567.6916,-197.1137"/>
<polygon fill="#191970" stroke="#191970" points="570.7888,-195.4554 563.6326,-187.6427 564.3548,-198.2129 570.7888,-195.4554"/>
</g>
<!-- Node23&#45;&gt;Node8 -->
<g id="edge32" class="edge">
<title>Node23&#45;&gt;Node8</title>
<path fill="none" stroke="#191970" d="M196.7382,-168.2455C208.181,-159.814 224.9296,-147.4729 238.2475,-137.6598"/>
<polygon fill="#191970" stroke="#191970" points="240.4391,-140.3924 246.4135,-131.6427 236.2867,-134.757 240.4391,-140.3924"/>
</g>
<!-- Node24&#45;&gt;Node2 -->
<g id="edge41" class="edge">
<title>Node24&#45;&gt;Node2</title>
<path fill="none" stroke="#191970" d="M570.2427,-168.4509C591.8159,-149.2747 640.6167,-105.8962 667.2763,-82.1988"/>
<polygon fill="#191970" stroke="#191970" points="669.6357,-84.7845 674.7845,-75.5249 664.9851,-79.5526 669.6357,-84.7845"/>
</g>
<!-- Node25 -->
<g id="node26" class="node">
<title>Node25</title>
<g id="a_node26"><a xlink:href="MatrixFixSize_8h.html" target="_top" xlink:title="iDynTree/Core/MatrixFixSize.h">
<polygon fill="none" stroke="#000000" points="0,-112.5 0,-131.5 161,-131.5 161,-112.5 0,-112.5"/>
<text text-anchor="middle" x="80.5" y="-119.5" font-family="FreeSans.ttf" font-size="10.00" fill="#000000">iDynTree/Core/MatrixFixSize.h</text>
</a>
</g>
</g>
<!-- Node24&#45;&gt;Node25 -->
<g id="edge34" class="edge">
<title>Node24&#45;&gt;Node25</title>
<path fill="none" stroke="#191970" d="M480.4029,-168.7527C395.4571,-158.8217 260.6878,-143.0658 171.4275,-132.6304"/>
<polygon fill="#191970" stroke="#191970" points="171.6544,-129.1331 161.3156,-131.4482 170.8415,-136.0858 171.6544,-129.1331"/>
</g>
<!-- Node25&#45;&gt;Node2 -->
<g id="edge38" class="edge">
<title>Node25&#45;&gt;Node2</title>
<path fill="none" stroke="#191970" d="M161.0204,-112.8587C163.8816,-112.5638 166.715,-112.2766 169.5,-112 354.6118,-93.6131 401.288,-93.348 586.5,-76 608.8488,-73.9067 634.0155,-71.3621 653.3818,-69.3637"/>
<polygon fill="#191970" stroke="#191970" points="653.9037,-72.8284 663.4895,-68.3159 653.1819,-65.8657 653.9037,-72.8284"/>
</g>
<!-- Node25&#45;&gt;Node9 -->
<g id="edge35" class="edge">
<title>Node25&#45;&gt;Node9</title>
<path fill="none" stroke="#191970" d="M126.0956,-112.4369C172.0785,-102.7925 243.1088,-87.8948 292.2606,-77.5858"/>
<polygon fill="#191970" stroke="#191970" points="293.0239,-81.0019 302.0925,-75.5237 291.587,-74.151 293.0239,-81.0019"/>
</g>
<!-- Node25&#45;&gt;Node12 -->
<g id="edge36" class="edge">
<title>Node25&#45;&gt;Node12</title>
<path fill="none" stroke="#191970" d="M60.7258,-112.4437C37.2919,-99.8533 3.4438,-76.8592 20.5,-56 44.1627,-27.0613 153.1925,-15.8936 211.1069,-11.9481"/>
<polygon fill="#191970" stroke="#191970" points="211.5392,-15.4276 221.2938,-11.2928 211.0897,-8.4421 211.5392,-15.4276"/>
</g>
<!-- Node25&#45;&gt;Node20 -->
<g id="edge40" class="edge">
<title>Node25&#45;&gt;Node20</title>
<path fill="none" stroke="#191970" d="M101.6445,-112.3733C121.3892,-103.3838 151.0698,-89.8706 173.3055,-79.7471"/>
<polygon fill="#191970" stroke="#191970" points="174.9806,-82.8302 182.6315,-75.5011 172.08,-76.4594 174.9806,-82.8302"/>
</g>
<!-- Node25&#45;&gt;Node21 -->
<g id="edge37" class="edge">
<title>Node25&#45;&gt;Node21</title>
<path fill="none" stroke="#191970" d="M89.5577,-112.2455C97.0142,-104.2155 107.7634,-92.6394 116.6417,-83.0781"/>
<polygon fill="#191970" stroke="#191970" points="119.3063,-85.3522 123.5461,-75.6427 114.1768,-80.589 119.3063,-85.3522"/>
</g>
<!-- Node26 -->
<g id="node27" class="node">
<title>Node26</title>
<polygon fill="none" stroke="#bfbfbf" points="29.5,-56.5 29.5,-75.5 89.5,-75.5 89.5,-56.5 29.5,-56.5"/>
<text text-anchor="middle" x="59.5" y="-63.5" font-family="FreeSans.ttf" font-size="10.00" fill="#000000">iostream</text>
</g>
<!-- Node25&#45;&gt;Node26 -->
<g id="edge39" class="edge">
<title>Node25&#45;&gt;Node26</title>
<path fill="none" stroke="#191970" d="M76.8421,-112.2455C74.0416,-104.7776 70.091,-94.2427 66.6676,-85.1137"/>
<polygon fill="#191970" stroke="#191970" points="69.9045,-83.777 63.116,-75.6427 63.3501,-86.2349 69.9045,-83.777"/>
</g>
<!-- Node27&#45;&gt;Node2 -->
<g id="edge48" class="edge">
<title>Node27&#45;&gt;Node2</title>
<path fill="none" stroke="#191970" d="M704.5,-336.4116C704.5,-317.0538 704.5,-271.9167 704.5,-234 704.5,-234 704.5,-234 704.5,-178 704.5,-145.2688 696.5148,-107.9052 690.8978,-85.6716"/>
<polygon fill="#191970" stroke="#191970" points="694.2289,-84.5763 688.3035,-75.7934 687.4585,-86.3545 694.2289,-84.5763"/>
</g>
<!-- Node27&#45;&gt;Node6 -->
<g id="edge45" class="edge">
<title>Node27&#45;&gt;Node6</title>
<path fill="none" stroke="#191970" d="M721.2219,-336.2455C736.0889,-327.5731 758.0466,-314.7645 775.0858,-304.825"/>
<polygon fill="#191970" stroke="#191970" points="777.0955,-307.7047 783.9697,-299.6427 773.5683,-301.6582 777.0955,-307.7047"/>
</g>
<!-- Node27&#45;&gt;Node22 -->
<g id="edge46" class="edge">
<title>Node27&#45;&gt;Node22</title>
<path fill="none" stroke="#191970" d="M694.1836,-336.4509C673.5558,-317.3574 627.0057,-274.2697 601.3328,-250.5063"/>
<polygon fill="#191970" stroke="#191970" points="603.5065,-247.7492 593.7903,-243.5249 598.7515,-252.8864 603.5065,-247.7492"/>
</g>
<!-- Node27&#45;&gt;Node25 -->
<g id="edge47" class="edge">
<title>Node27&#45;&gt;Node25</title>
<path fill="none" stroke="#191970" d="M631.4289,-338.0603C482.9517,-320.309 154.1329,-272.2145 84.5,-188 74.0075,-175.3103 74.0172,-156.1208 76.0543,-141.699"/>
<polygon fill="#191970" stroke="#191970" points="79.511,-142.2529 77.8669,-131.7865 72.6251,-140.9938 79.511,-142.2529"/>
</g>
<!-- Node28&#45;&gt;Node2 -->
<g id="edge51" class="edge">
<title>Node28&#45;&gt;Node2</title>
<path fill="none" stroke="#191970" d="M546.3802,-112.3733C576.218,-102.4273 622.6685,-86.9438 653.5791,-76.6403"/>
<polygon fill="#191970" stroke="#191970" points="655.0396,-79.8429 663.4196,-73.3601 652.8259,-73.2021 655.0396,-79.8429"/>
</g>
<!-- Node28&#45;&gt;Node11 -->
<g id="edge50" class="edge">
<title>Node28&#45;&gt;Node11</title>
<path fill="none" stroke="#191970" d="M517.5,-112.2455C517.5,-104.9382 517.5,-94.6944 517.5,-85.7046"/>
<polygon fill="#191970" stroke="#191970" points="521.0001,-85.6426 517.5,-75.6427 514.0001,-85.6427 521.0001,-85.6426"/>
</g>
<!-- Node29&#45;&gt;Node2 -->
<g id="edge53" class="edge">
<title>Node29&#45;&gt;Node2</title>
<path fill="none" stroke="#191970" d="M360.9938,-168.0641C372.7605,-153.2466 397.0771,-125.6443 424.5,-112 464.2348,-92.2299 592.3009,-76.1339 653.0038,-69.4016"/>
<polygon fill="#191970" stroke="#191970" points="653.6144,-72.8558 663.1756,-68.2915 652.8549,-65.8972 653.6144,-72.8558"/>
</g>
<!-- Node29&#45;&gt;Node8 -->
<g id="edge54" class="edge">
<title>Node29&#45;&gt;Node8</title>
<path fill="none" stroke="#191970" d="M337.1264,-168.2455C322.5692,-159.5731 301.069,-146.7645 284.3848,-136.825"/>
<polygon fill="#191970" stroke="#191970" points="286.0683,-133.7539 275.6859,-131.6427 282.4856,-139.7676 286.0683,-133.7539"/>
</g>
<!-- Node29&#45;&gt;Node9 -->
<g id="edge55" class="edge">
<title>Node29&#45;&gt;Node9</title>
<path fill="none" stroke="#191970" d="M352.9884,-168.4509C352.0099,-150.184 349.8547,-109.9553 348.5552,-85.6976"/>
<polygon fill="#191970" stroke="#191970" points="352.0403,-85.3233 348.0103,-75.5249 345.0503,-85.6978 352.0403,-85.3233"/>
</g>
</g>
</svg>
