<?xml version="1.0" encoding="UTF-8" standalone="no"?>
<!DOCTYPE svg PUBLIC "-//W3C//DTD SVG 1.1//EN"
 "http://www.w3.org/Graphics/SVG/1.1/DTD/svg11.dtd">
<!-- Generated by graphviz version 2.40.1 (20161225.0304)
 -->
<!-- Title: InverseKinematicsNLP.h Pages: 1 -->
<svg width="1055pt" height="543pt"
 viewBox="0.00 0.00 1054.50 543.00" xmlns="http://www.w3.org/2000/svg" xmlns:xlink="http://www.w3.org/1999/xlink">
<g id="graph0" class="graph" transform="scale(1 1) rotate(0) translate(4 539)">
<title>InverseKinematicsNLP.h</title>
<!-- Node0 -->
<g id="node1" class="node">
<title>Node0</title>
<polygon fill="#bfbfbf" stroke="#000000" points="583,-515.5 583,-534.5 717,-534.5 717,-515.5 583,-515.5"/>
<text text-anchor="middle" x="650" y="-522.5" font-family="FreeSans.ttf" font-size="10.00" fill="#000000">InverseKinematicsNLP.h</text>
</g>
<!-- Node1 -->
<g id="node2" class="node">
<title>Node1</title>
<polygon fill="none" stroke="#bfbfbf" points="114,-459.5 114,-478.5 184,-478.5 184,-459.5 114,-459.5"/>
<text text-anchor="middle" x="149" y="-466.5" font-family="FreeSans.ttf" font-size="10.00" fill="#000000">IpTNLP.hpp</text>
</g>
<!-- Node0&#45;&gt;Node1 -->
<g id="edge1" class="edge">
<title>Node0&#45;&gt;Node1</title>
<path fill="none" stroke="#191970" d="M582.6773,-520.8281C495.3391,-514.8361 338.1126,-502.0779 194.7638,-479.1254"/>
<polygon fill="#191970" stroke="#191970" points="194.8993,-475.6017 184.4679,-477.4552 193.7783,-482.5114 194.8993,-475.6017"/>
</g>
<!-- Node2 -->
<g id="node3" class="node">
<title>Node2</title>
<g id="a_node3"><a xlink:href="VectorFixSize_8h.html" target="_top" xlink:title="iDynTree/Core/VectorFixSize.h">
<polygon fill="none" stroke="#000000" points="123.5,-112.5 123.5,-131.5 284.5,-131.5 284.5,-112.5 123.5,-112.5"/>
<text text-anchor="middle" x="204" y="-119.5" font-family="FreeSans.ttf" font-size="10.00" fill="#000000">iDynTree/Core/VectorFixSize.h</text>
</a>
</g>
</g>
<!-- Node0&#45;&gt;Node2 -->
<g id="edge2" class="edge">
<title>Node0&#45;&gt;Node2</title>
<path fill="none" stroke="#191970" d="M597.4096,-515.4625C511.8597,-498.4332 352,-459.6368 352,-407.5 352,-407.5 352,-407.5 352,-290 352,-233.2084 352.2239,-210.0026 314,-168 299.6382,-152.2185 279.0067,-141.6878 259.4834,-134.7382"/>
<polygon fill="#191970" stroke="#191970" points="260.3117,-131.3259 249.7185,-131.5144 258.1171,-137.973 260.3117,-131.3259"/>
</g>
<!-- Node17 -->
<g id="node18" class="node">
<title>Node17</title>
<g id="a_node18"><a xlink:href="VectorDynSize_8h.html" target="_top" xlink:title="iDynTree/Core/VectorDynSize.h">
<polygon fill="none" stroke="#000000" points="519.5,-112.5 519.5,-131.5 686.5,-131.5 686.5,-112.5 519.5,-112.5"/>
<text text-anchor="middle" x="603" y="-119.5" font-family="FreeSans.ttf" font-size="10.00" fill="#000000">iDynTree/Core/VectorDynSize.h</text>
</a>
</g>
</g>
<!-- Node0&#45;&gt;Node17 -->
<g id="edge19" class="edge">
<title>Node0&#45;&gt;Node17</title>
<path fill="none" stroke="#191970" d="M660.4172,-515.4792C707.1873,-471.6145 891.4857,-286.1047 798,-168 784.8566,-151.3953 740.0999,-140.1795 696.7769,-132.9829"/>
<polygon fill="#191970" stroke="#191970" points="697.1214,-129.4936 686.6947,-131.3736 696.018,-136.4061 697.1214,-129.4936"/>
</g>
<!-- Node18 -->
<g id="node19" class="node">
<title>Node18</title>
<g id="a_node19"><a xlink:href="MatrixDynSize_8h.html" target="_top" xlink:title="iDynTree/Core/MatrixDynSize.h">
<polygon fill="none" stroke="#000000" points="879.5,-398 879.5,-417 1046.5,-417 1046.5,-398 879.5,-398"/>
<text text-anchor="middle" x="963" y="-405" font-family="FreeSans.ttf" font-size="10.00" fill="#000000">iDynTree/Core/MatrixDynSize.h</text>
</a>
</g>
</g>
<!-- Node0&#45;&gt;Node18 -->
<g id="edge22" class="edge">
<title>Node0&#45;&gt;Node18</title>
<path fill="none" stroke="#191970" d="M717.0237,-518.1791C760.8795,-511.9421 818.6167,-500.3032 866,-479 896.7772,-465.1628 927.2784,-440.378 945.6334,-423.9342"/>
<polygon fill="#191970" stroke="#191970" points="948.1569,-426.3692 953.1694,-417.0351 943.4301,-421.206 948.1569,-426.3692"/>
</g>
<!-- Node19 -->
<g id="node20" class="node">
<title>Node19</title>
<g id="a_node20"><a xlink:href="Twist_8h.html" target="_top" xlink:title="iDynTree/Core/Twist.h">
<polygon fill="none" stroke="#000000" points="202,-459.5 202,-478.5 324,-478.5 324,-459.5 202,-459.5"/>
<text text-anchor="middle" x="263" y="-466.5" font-family="FreeSans.ttf" font-size="10.00" fill="#000000">iDynTree/Core/Twist.h</text>
</a>
</g>
</g>
<!-- Node0&#45;&gt;Node19 -->
<g id="edge24" class="edge">
<title>Node0&#45;&gt;Node19</title>
<path fill="none" stroke="#191970" d="M583.9121,-515.4369C514.4671,-505.388 405.6082,-489.6358 334.274,-479.3135"/>
<polygon fill="#191970" stroke="#191970" points="334.4288,-475.7996 324.0307,-477.8313 333.4263,-482.7274 334.4288,-475.7996"/>
</g>
<!-- Node29 -->
<g id="node30" class="node">
<title>Node29</title>
<g id="a_node30"><a xlink:href="Transform_8h.html" target="_top" xlink:title="iDynTree/Core/Transform.h">
<polygon fill="none" stroke="#000000" points="577,-336.5 577,-355.5 723,-355.5 723,-336.5 577,-336.5"/>
<text text-anchor="middle" x="650" y="-343.5" font-family="FreeSans.ttf" font-size="10.00" fill="#000000">iDynTree/Core/Transform.h</text>
</a>
</g>
</g>
<!-- Node0&#45;&gt;Node29 -->
<g id="edge53" class="edge">
<title>Node0&#45;&gt;Node29</title>
<path fill="none" stroke="#191970" d="M650,-515.3762C650,-487.2097 650,-404.5126 650,-366.0713"/>
<polygon fill="#191970" stroke="#191970" points="653.5001,-365.6714 650,-355.6714 646.5001,-365.6714 653.5001,-365.6714"/>
</g>
<!-- Node30 -->
<g id="node31" class="node">
<title>Node30</title>
<polygon fill="none" stroke="#bfbfbf" points="918,-459.5 918,-478.5 956,-478.5 956,-459.5 918,-459.5"/>
<text text-anchor="middle" x="937" y="-466.5" font-family="FreeSans.ttf" font-size="10.00" fill="#000000">map</text>
</g>
<!-- Node0&#45;&gt;Node30 -->
<g id="edge58" class="edge">
<title>Node0&#45;&gt;Node30</title>
<path fill="none" stroke="#191970" d="M714.1007,-515.4851C765.7148,-507.3222 839.9594,-494.4478 904,-479 905.2767,-478.692 906.5768,-478.3634 907.8872,-478.02"/>
<polygon fill="#191970" stroke="#191970" points="909.2337,-481.2768 917.9074,-475.1926 907.3327,-474.5398 909.2337,-481.2768"/>
</g>
<!-- Node3 -->
<g id="node4" class="node">
<title>Node3</title>
<g id="a_node4"><a xlink:href="Utils_8h.html" target="_top" xlink:title="iDynTree/Core/Utils.h">
<polygon fill="none" stroke="#000000" points="3.5,-56.5 3.5,-75.5 122.5,-75.5 122.5,-56.5 3.5,-56.5"/>
<text text-anchor="middle" x="63" y="-63.5" font-family="FreeSans.ttf" font-size="10.00" fill="#000000">iDynTree/Core/Utils.h</text>
</a>
</g>
</g>
<!-- Node2&#45;&gt;Node3 -->
<g id="edge3" class="edge">
<title>Node2&#45;&gt;Node3</title>
<path fill="none" stroke="#191970" d="M179.7612,-112.3733C156.7211,-103.2226 121.8786,-89.3844 96.2499,-79.2057"/>
<polygon fill="#191970" stroke="#191970" points="97.5082,-75.9395 86.9225,-75.5011 94.9244,-82.4452 97.5082,-75.9395"/>
</g>
<!-- Node5 -->
<g id="node6" class="node">
<title>Node5</title>
<g id="a_node6"><a xlink:href="Span_8h.html" target="_top" xlink:title="iDynTree/Core/Span.h">
<polygon fill="none" stroke="#000000" points="440.5,-56.5 440.5,-75.5 561.5,-75.5 561.5,-56.5 440.5,-56.5"/>
<text text-anchor="middle" x="501" y="-63.5" font-family="FreeSans.ttf" font-size="10.00" fill="#000000">iDynTree/Core/Span.h</text>
</a>
</g>
</g>
<!-- Node2&#45;&gt;Node5 -->
<g id="edge5" class="edge">
<title>Node2&#45;&gt;Node5</title>
<path fill="none" stroke="#191970" d="M254.7187,-112.4369C306.1886,-102.7321 385.8702,-87.708 440.5784,-77.3926"/>
<polygon fill="#191970" stroke="#191970" points="441.3122,-80.816 450.4905,-75.5237 440.0152,-73.9372 441.3122,-80.816"/>
</g>
<!-- Node6 -->
<g id="node7" class="node">
<title>Node6</title>
<polygon fill="none" stroke="#bfbfbf" points="277,-.5 277,-19.5 329,-19.5 329,-.5 277,-.5"/>
<text text-anchor="middle" x="303" y="-7.5" font-family="FreeSans.ttf" font-size="10.00" fill="#000000">cassert</text>
</g>
<!-- Node2&#45;&gt;Node6 -->
<g id="edge17" class="edge">
<title>Node2&#45;&gt;Node6</title>
<path fill="none" stroke="#191970" d="M231.3964,-112.459C248.8231,-105.0615 270.5613,-93.151 284,-76 294.4452,-62.6694 299.1487,-43.815 301.2664,-29.6694"/>
<polygon fill="#191970" stroke="#191970" points="304.7667,-29.873 302.4706,-19.53 297.8156,-29.0474 304.7667,-29.873"/>
</g>
<!-- Node14 -->
<g id="node15" class="node">
<title>Node14</title>
<polygon fill="none" stroke="#bfbfbf" points="692,-56.5 692,-75.5 736,-75.5 736,-56.5 692,-56.5"/>
<text text-anchor="middle" x="714" y="-63.5" font-family="FreeSans.ttf" font-size="10.00" fill="#000000">string</text>
</g>
<!-- Node2&#45;&gt;Node14 -->
<g id="edge15" class="edge">
<title>Node2&#45;&gt;Node14</title>
<path fill="none" stroke="#191970" d="M284.529,-112.9406C287.3877,-112.6226 290.2183,-112.3082 293,-112 437.9278,-95.9404 610.9664,-77.1568 681.5853,-69.5076"/>
<polygon fill="#191970" stroke="#191970" points="682.0685,-72.9758 691.6335,-68.4195 681.3148,-66.0165 682.0685,-72.9758"/>
</g>
<!-- Node15 -->
<g id="node16" class="node">
<title>Node15</title>
<polygon fill="none" stroke="#bfbfbf" points="141,-56.5 141,-75.5 197,-75.5 197,-56.5 141,-56.5"/>
<text text-anchor="middle" x="169" y="-63.5" font-family="FreeSans.ttf" font-size="10.00" fill="#000000">sstream</text>
</g>
<!-- Node2&#45;&gt;Node15 -->
<g id="edge16" class="edge">
<title>Node2&#45;&gt;Node15</title>
<path fill="none" stroke="#191970" d="M197.9035,-112.2455C193.0855,-104.5367 186.2249,-93.5598 180.3968,-84.2348"/>
<polygon fill="#191970" stroke="#191970" points="183.2947,-82.2677 175.0267,-75.6427 177.3587,-85.9777 183.2947,-82.2677"/>
</g>
<!-- Node16 -->
<g id="node17" class="node">
<title>Node16</title>
<polygon fill="none" stroke="#bfbfbf" points="331,-56.5 331,-75.5 381,-75.5 381,-56.5 331,-56.5"/>
<text text-anchor="middle" x="356" y="-63.5" font-family="FreeSans.ttf" font-size="10.00" fill="#000000">cstring</text>
</g>
<!-- Node2&#45;&gt;Node16 -->
<g id="edge18" class="edge">
<title>Node2&#45;&gt;Node16</title>
<path fill="none" stroke="#191970" d="M230.1297,-112.3733C255.3036,-103.0987 293.5472,-89.0089 321.2725,-78.7943"/>
<polygon fill="#191970" stroke="#191970" points="322.794,-81.9638 330.9675,-75.2225 320.3741,-75.3954 322.794,-81.9638"/>
</g>
<!-- Node4 -->
<g id="node5" class="node">
<title>Node4</title>
<polygon fill="none" stroke="#bfbfbf" points="121.5,-.5 121.5,-19.5 174.5,-19.5 174.5,-.5 121.5,-.5"/>
<text text-anchor="middle" x="148" y="-7.5" font-family="FreeSans.ttf" font-size="10.00" fill="#000000">cstddef</text>
</g>
<!-- Node3&#45;&gt;Node4 -->
<g id="edge4" class="edge">
<title>Node3&#45;&gt;Node4</title>
<path fill="none" stroke="#191970" d="M77.8059,-56.2455C90.7256,-47.7337 109.6931,-35.2375 124.6552,-25.3801"/>
<polygon fill="#191970" stroke="#191970" points="126.9387,-28.067 133.3638,-19.6427 123.0876,-22.2216 126.9387,-28.067"/>
</g>
<!-- Node5&#45;&gt;Node4 -->
<g id="edge9" class="edge">
<title>Node5&#45;&gt;Node4</title>
<path fill="none" stroke="#191970" d="M440.7182,-56.4369C367.1901,-44.7724 245.2213,-25.4232 184.5742,-15.8021"/>
<polygon fill="#191970" stroke="#191970" points="185.1105,-12.3435 174.6856,-14.2334 184.0136,-19.2571 185.1105,-12.3435"/>
</g>
<!-- Node5&#45;&gt;Node6 -->
<g id="edge6" class="edge">
<title>Node5&#45;&gt;Node6</title>
<path fill="none" stroke="#191970" d="M466.9621,-56.4289C435.9771,-47.7085 388.7101,-34.3867 339.0072,-20.2805"/>
<polygon fill="#191970" stroke="#191970" points="339.9464,-16.9089 329.3707,-17.5444 338.0344,-23.6427 339.9464,-16.9089"/>
</g>
<!-- Node7 -->
<g id="node8" class="node">
<title>Node7</title>
<polygon fill="none" stroke="#bfbfbf" points="775,-.5 775,-19.5 839,-19.5 839,-.5 775,-.5"/>
<text text-anchor="middle" x="807" y="-7.5" font-family="FreeSans.ttf" font-size="10.00" fill="#000000">algorithm</text>
</g>
<!-- Node5&#45;&gt;Node7 -->
<g id="edge7" class="edge">
<title>Node5&#45;&gt;Node7</title>
<path fill="none" stroke="#191970" d="M561.7387,-56.6501C613.2798,-48.4445 689.4041,-35.689 764.6851,-20.1728"/>
<polygon fill="#191970" stroke="#191970" points="765.7393,-23.5285 774.8176,-18.0663 764.3145,-16.6751 765.7393,-23.5285"/>
</g>
<!-- Node8 -->
<g id="node9" class="node">
<title>Node8</title>
<polygon fill="none" stroke="#bfbfbf" points="347,-.5 347,-19.5 389,-19.5 389,-.5 347,-.5"/>
<text text-anchor="middle" x="368" y="-7.5" font-family="FreeSans.ttf" font-size="10.00" fill="#000000">array</text>
</g>
<!-- Node5&#45;&gt;Node8 -->
<g id="edge8" class="edge">
<title>Node5&#45;&gt;Node8</title>
<path fill="none" stroke="#191970" d="M478.1365,-56.3733C456.2034,-47.1383 422.9316,-33.1291 398.6976,-22.9253"/>
<polygon fill="#191970" stroke="#191970" points="399.8235,-19.6018 389.2489,-18.9469 397.1071,-26.0533 399.8235,-19.6018"/>
</g>
<!-- Node9 -->
<g id="node10" class="node">
<title>Node9</title>
<polygon fill="none" stroke="#bfbfbf" points="407.5,-.5 407.5,-19.5 460.5,-19.5 460.5,-.5 407.5,-.5"/>
<text text-anchor="middle" x="434" y="-7.5" font-family="FreeSans.ttf" font-size="10.00" fill="#000000">iterator</text>
</g>
<!-- Node5&#45;&gt;Node9 -->
<g id="edge10" class="edge">
<title>Node5&#45;&gt;Node9</title>
<path fill="none" stroke="#191970" d="M489.3295,-56.2455C479.4339,-47.9746 465.0373,-35.9416 453.4099,-26.2232"/>
<polygon fill="#191970" stroke="#191970" points="455.4542,-23.3703 445.5368,-19.6427 450.965,-28.7413 455.4542,-23.3703"/>
</g>
<!-- Node10 -->
<g id="node11" class="node">
<title>Node10</title>
<polygon fill="none" stroke="#bfbfbf" points="479,-.5 479,-19.5 523,-19.5 523,-.5 479,-.5"/>
<text text-anchor="middle" x="501" y="-7.5" font-family="FreeSans.ttf" font-size="10.00" fill="#000000">limits</text>
</g>
<!-- Node5&#45;&gt;Node10 -->
<g id="edge11" class="edge">
<title>Node5&#45;&gt;Node10</title>
<path fill="none" stroke="#191970" d="M501,-56.2455C501,-48.9382 501,-38.6944 501,-29.7046"/>
<polygon fill="#191970" stroke="#191970" points="504.5001,-29.6426 501,-19.6427 497.5001,-29.6427 504.5001,-29.6426"/>
</g>
<!-- Node11 -->
<g id="node12" class="node">
<title>Node11</title>
<polygon fill="none" stroke="#bfbfbf" points="541.5,-.5 541.5,-19.5 606.5,-19.5 606.5,-.5 541.5,-.5"/>
<text text-anchor="middle" x="574" y="-7.5" font-family="FreeSans.ttf" font-size="10.00" fill="#000000">stdexcept</text>
</g>
<!-- Node5&#45;&gt;Node11 -->
<g id="edge12" class="edge">
<title>Node5&#45;&gt;Node11</title>
<path fill="none" stroke="#191970" d="M513.7156,-56.2455C524.602,-47.8943 540.4883,-35.7076 553.22,-25.9408"/>
<polygon fill="#191970" stroke="#191970" points="555.6261,-28.5063 561.4301,-19.6427 551.3654,-22.9523 555.6261,-28.5063"/>
</g>
<!-- Node12 -->
<g id="node13" class="node">
<title>Node12</title>
<polygon fill="none" stroke="#bfbfbf" points="624.5,-.5 624.5,-19.5 693.5,-19.5 693.5,-.5 624.5,-.5"/>
<text text-anchor="middle" x="659" y="-7.5" font-family="FreeSans.ttf" font-size="10.00" fill="#000000">type_traits</text>
</g>
<!-- Node5&#45;&gt;Node12 -->
<g id="edge13" class="edge">
<title>Node5&#45;&gt;Node12</title>
<path fill="none" stroke="#191970" d="M528.1612,-56.3733C554.2067,-47.1419 593.7116,-33.1402 622.4979,-22.9375"/>
<polygon fill="#191970" stroke="#191970" points="623.937,-26.1408 632.1933,-19.5011 621.5985,-19.5429 623.937,-26.1408"/>
</g>
<!-- Node13 -->
<g id="node14" class="node">
<title>Node13</title>
<polygon fill="none" stroke="#bfbfbf" points="711.5,-.5 711.5,-19.5 756.5,-19.5 756.5,-.5 711.5,-.5"/>
<text text-anchor="middle" x="734" y="-7.5" font-family="FreeSans.ttf" font-size="10.00" fill="#000000">utility</text>
</g>
<!-- Node5&#45;&gt;Node13 -->
<g id="edge14" class="edge">
<title>Node5&#45;&gt;Node13</title>
<path fill="none" stroke="#191970" d="M548.2311,-56.4751C587.1072,-48.3588 643.8315,-35.8856 701.3881,-20.2884"/>
<polygon fill="#191970" stroke="#191970" points="702.6626,-23.5683 711.3823,-17.5503 700.8129,-16.817 702.6626,-23.5683"/>
</g>
<!-- Node17&#45;&gt;Node5 -->
<g id="edge20" class="edge">
<title>Node17&#45;&gt;Node5</title>
<path fill="none" stroke="#191970" d="M585.233,-112.2455C569.2905,-103.4928 545.6741,-90.527 527.5011,-80.5496"/>
<polygon fill="#191970" stroke="#191970" points="529.0137,-77.3873 518.5634,-75.6427 525.6448,-83.5233 529.0137,-77.3873"/>
</g>
<!-- Node17&#45;&gt;Node14 -->
<g id="edge21" class="edge">
<title>Node17&#45;&gt;Node14</title>
<path fill="none" stroke="#191970" d="M622.0816,-112.3733C639.7402,-103.4644 666.2053,-90.1127 686.2098,-80.0203"/>
<polygon fill="#191970" stroke="#191970" points="687.8158,-83.1303 695.1674,-75.5011 684.6628,-76.8806 687.8158,-83.1303"/>
</g>
<!-- Node18&#45;&gt;Node14 -->
<g id="edge23" class="edge">
<title>Node18&#45;&gt;Node14</title>
<path fill="none" stroke="#191970" d="M962.4438,-397.7549C961.3447,-377.6291 959,-330.0058 959,-290 959,-290 959,-290 959,-178 959,-131.7198 812.5697,-90.0579 746.118,-73.5341"/>
<polygon fill="#191970" stroke="#191970" points="746.7196,-70.0781 736.1742,-71.1011 745.0558,-76.8776 746.7196,-70.0781"/>
</g>
<!-- Node20 -->
<g id="node21" class="node">
<title>Node20</title>
<g id="a_node21"><a xlink:href="SpatialMotionVector_8h.html" target="_top" xlink:title="iDynTree/Core/SpatialMotion\lVector.h">
<polygon fill="none" stroke="#000000" points="148.5,-392.5 148.5,-422.5 303.5,-422.5 303.5,-392.5 148.5,-392.5"/>
<text text-anchor="start" x="156.5" y="-410.5" font-family="FreeSans.ttf" font-size="10.00" fill="#000000">iDynTree/Core/SpatialMotion</text>
<text text-anchor="middle" x="226" y="-399.5" font-family="FreeSans.ttf" font-size="10.00" fill="#000000">Vector.h</text>
</a>
</g>
</g>
<!-- Node19&#45;&gt;Node20 -->
<g id="edge25" class="edge">
<title>Node19&#45;&gt;Node20</title>
<path fill="none" stroke="#191970" d="M257.2188,-459.3906C252.6749,-451.838 246.147,-440.9876 240.2341,-431.1593"/>
<polygon fill="#191970" stroke="#191970" points="243.2055,-429.309 235.0512,-422.5446 237.2074,-432.9177 243.2055,-429.309"/>
</g>
<!-- Node20&#45;&gt;Node2 -->
<g id="edge26" class="edge">
<title>Node20&#45;&gt;Node2</title>
<path fill="none" stroke="#191970" d="M162.9817,-392.4391C144.3273,-384.7294 125.9744,-373.1897 115,-356 90.2545,-317.2398 -51.1051,-467.3943 133,-168 141.5012,-154.1752 155.8918,-143.7146 169.5036,-136.2898"/>
<polygon fill="#191970" stroke="#191970" points="171.3753,-139.2655 178.7208,-131.6305 168.2173,-133.0183 171.3753,-139.2655"/>
</g>
<!-- Node21 -->
<g id="node22" class="node">
<title>Node21</title>
<g id="a_node22"><a xlink:href="GeomVector3_8h.html" target="_top" xlink:title="iDynTree/Core/GeomVector3.h">
<polygon fill="none" stroke="#000000" points="142.5,-168.5 142.5,-187.5 305.5,-187.5 305.5,-168.5 142.5,-168.5"/>
<text text-anchor="middle" x="224" y="-175.5" font-family="FreeSans.ttf" font-size="10.00" fill="#000000">iDynTree/Core/GeomVector3.h</text>
</a>
</g>
</g>
<!-- Node20&#45;&gt;Node21 -->
<g id="edge27" class="edge">
<title>Node20&#45;&gt;Node21</title>
<path fill="none" stroke="#191970" d="M257.1954,-392.3802C271.1665,-383.8126 286.2217,-371.6483 294,-356 297.9566,-348.0402 295.8401,-344.6963 294,-336 282.7216,-282.6994 252.2226,-225.5161 235.4455,-196.7769"/>
<polygon fill="#191970" stroke="#191970" points="238.2569,-194.6569 230.1374,-187.8507 232.2403,-198.2347 238.2569,-194.6569"/>
</g>
<!-- Node22 -->
<g id="node23" class="node">
<title>Node22</title>
<g id="a_node23"><a xlink:href="SpatialVector_8h.html" target="_top" xlink:title="iDynTree/Core/SpatialVector.h">
<polygon fill="none" stroke="#000000" points="124.5,-336.5 124.5,-355.5 285.5,-355.5 285.5,-336.5 124.5,-336.5"/>
<text text-anchor="middle" x="205" y="-343.5" font-family="FreeSans.ttf" font-size="10.00" fill="#000000">iDynTree/Core/SpatialVector.h</text>
</a>
</g>
</g>
<!-- Node20&#45;&gt;Node22 -->
<g id="edge29" class="edge">
<title>Node20&#45;&gt;Node22</title>
<path fill="none" stroke="#191970" d="M220.809,-392.2977C218.0458,-384.2055 214.6169,-374.1639 211.6595,-365.5029"/>
<polygon fill="#191970" stroke="#191970" points="214.9061,-364.1794 208.3624,-355.8469 208.2816,-366.4415 214.9061,-364.1794"/>
</g>
<!-- Node21&#45;&gt;Node2 -->
<g id="edge28" class="edge">
<title>Node21&#45;&gt;Node2</title>
<path fill="none" stroke="#191970" d="M220.5163,-168.2455C217.8492,-160.7776 214.0867,-150.2427 210.8263,-141.1137"/>
<polygon fill="#191970" stroke="#191970" points="214.1033,-139.8829 207.4438,-131.6427 207.5111,-142.2373 214.1033,-139.8829"/>
</g>
<!-- Node22&#45;&gt;Node3 -->
<g id="edge49" class="edge">
<title>Node22&#45;&gt;Node3</title>
<path fill="none" stroke="#191970" d="M132.7247,-336.4527C73.7039,-324.1184 0,-296.2528 0,-234 0,-234 0,-234 0,-178 0,-140.3823 27.3316,-103.7298 45.9902,-83.0908"/>
<polygon fill="#191970" stroke="#191970" points="48.5856,-85.4399 52.878,-75.7535 43.4819,-80.649 48.5856,-85.4399"/>
</g>
<!-- Node22&#45;&gt;Node15 -->
<g id="edge52" class="edge">
<title>Node22&#45;&gt;Node15</title>
<path fill="none" stroke="#191970" d="M161.517,-336.46C124.9575,-327.6574 76.4165,-313.8851 62,-300 39.519,-278.3476 38,-265.2125 38,-234 38,-234 38,-234 38,-178 38,-146.7875 40.5701,-134.6932 62,-112 72.0152,-101.3944 104.7291,-88.1318 131.3746,-78.576"/>
<polygon fill="#191970" stroke="#191970" points="132.5935,-81.8575 140.8635,-75.2349 130.2687,-75.2548 132.5935,-81.8575"/>
</g>
<!-- Node22&#45;&gt;Node21 -->
<g id="edge50" class="edge">
<title>Node22&#45;&gt;Node21</title>
<path fill="none" stroke="#191970" d="M206.076,-336.4862C209.0794,-309.9293 217.6028,-234.5651 221.7194,-198.1655"/>
<polygon fill="#191970" stroke="#191970" points="225.2425,-198.1579 222.8885,-187.8279 218.2868,-197.3712 225.2425,-198.1579"/>
</g>
<!-- Node23 -->
<g id="node24" class="node">
<title>Node23</title>
<g id="a_node24"><a xlink:href="Position_8h.html" target="_top" xlink:title="Position.h">
<polygon fill="none" stroke="#000000" points="513.5,-280.5 513.5,-299.5 578.5,-299.5 578.5,-280.5 513.5,-280.5"/>
<text text-anchor="middle" x="546" y="-287.5" font-family="FreeSans.ttf" font-size="10.00" fill="#000000">Position.h</text>
</a>
</g>
</g>
<!-- Node22&#45;&gt;Node23 -->
<g id="edge30" class="edge">
<title>Node22&#45;&gt;Node23</title>
<path fill="none" stroke="#191970" d="M263.2325,-336.4369C331.384,-325.2449 442.6153,-306.9781 503.2654,-297.018"/>
<polygon fill="#191970" stroke="#191970" points="503.9648,-300.4501 513.2654,-295.3758 502.8304,-293.5426 503.9648,-300.4501"/>
</g>
<!-- Node25 -->
<g id="node26" class="node">
<title>Node25</title>
<g id="a_node26"><a xlink:href="Rotation_8h.html" target="_top" xlink:title="iDynTree/Core/Rotation.h">
<polygon fill="none" stroke="#000000" points="380.5,-224.5 380.5,-243.5 517.5,-243.5 517.5,-224.5 380.5,-224.5"/>
<text text-anchor="middle" x="449" y="-231.5" font-family="FreeSans.ttf" font-size="10.00" fill="#000000">iDynTree/Core/Rotation.h</text>
</a>
</g>
</g>
<!-- Node22&#45;&gt;Node25 -->
<g id="edge48" class="edge">
<title>Node22&#45;&gt;Node25</title>
<path fill="none" stroke="#191970" d="M225.8033,-336.4509C269.0206,-316.6135 368.6634,-270.8758 418.8935,-247.8194"/>
<polygon fill="#191970" stroke="#191970" points="420.6212,-250.8775 428.2494,-243.5249 417.7009,-244.5157 420.6212,-250.8775"/>
</g>
<!-- Node28 -->
<g id="node29" class="node">
<title>Node28</title>
<polygon fill="none" stroke="#bfbfbf" points="215,-56.5 215,-75.5 275,-75.5 275,-56.5 215,-56.5"/>
<text text-anchor="middle" x="245" y="-63.5" font-family="FreeSans.ttf" font-size="10.00" fill="#000000">iostream</text>
</g>
<!-- Node22&#45;&gt;Node28 -->
<g id="edge51" class="edge">
<title>Node22&#45;&gt;Node28</title>
<path fill="none" stroke="#191970" d="M177.9574,-336.4903C140.1304,-321.2562 76,-287.5346 76,-234 76,-234 76,-234 76,-178 76,-144.1521 87.9607,-133.6248 114,-112 128.1164,-100.2768 171.7766,-86.2276 204.8468,-76.7656"/>
<polygon fill="#191970" stroke="#191970" points="206.0484,-80.0634 214.7255,-73.984 204.1511,-73.3254 206.0484,-80.0634"/>
</g>
<!-- Node23&#45;&gt;Node14 -->
<g id="edge47" class="edge">
<title>Node23&#45;&gt;Node14</title>
<path fill="none" stroke="#191970" d="M578.6538,-286.7109C631.4201,-279.4388 734.0522,-256.7428 779,-188 802.6857,-151.7752 760.7419,-106.0433 733.8817,-82.1766"/>
<polygon fill="#191970" stroke="#191970" points="735.985,-79.3693 726.1194,-75.5064 731.4228,-84.6784 735.985,-79.3693"/>
</g>
<!-- Node24 -->
<g id="node25" class="node">
<title>Node24</title>
<g id="a_node25"><a xlink:href="PositionRaw_8h.html" target="_top" xlink:title="iDynTree/Core/PositionRaw.h">
<polygon fill="none" stroke="#000000" points="438,-168.5 438,-187.5 594,-187.5 594,-168.5 438,-168.5"/>
<text text-anchor="middle" x="516" y="-175.5" font-family="FreeSans.ttf" font-size="10.00" fill="#000000">iDynTree/Core/PositionRaw.h</text>
</a>
</g>
</g>
<!-- Node23&#45;&gt;Node24 -->
<g id="edge31" class="edge">
<title>Node23&#45;&gt;Node24</title>
<path fill="none" stroke="#191970" d="M543.4422,-280.4509C538.5271,-262.1013 527.6761,-221.5908 521.1882,-197.3693"/>
<polygon fill="#191970" stroke="#191970" points="524.5196,-196.2788 518.5513,-187.5249 517.7579,-198.09 524.5196,-196.2788"/>
</g>
<!-- Node23&#45;&gt;Node25 -->
<g id="edge34" class="edge">
<title>Node23&#45;&gt;Node25</title>
<path fill="none" stroke="#191970" d="M529.1039,-280.2455C514.082,-271.5731 491.8957,-258.7645 474.679,-248.825"/>
<polygon fill="#191970" stroke="#191970" points="476.1128,-245.6114 465.7025,-243.6427 472.6129,-251.6737 476.1128,-245.6114"/>
</g>
<!-- Node24&#45;&gt;Node2 -->
<g id="edge32" class="edge">
<title>Node24&#45;&gt;Node2</title>
<path fill="none" stroke="#191970" d="M462.7198,-168.4369C408.5382,-158.712 324.5969,-143.6456 267.1159,-133.3285"/>
<polygon fill="#191970" stroke="#191970" points="267.5215,-129.8454 257.0605,-131.5237 266.2848,-136.7353 267.5215,-129.8454"/>
</g>
<!-- Node24&#45;&gt;Node14 -->
<g id="edge33" class="edge">
<title>Node24&#45;&gt;Node14</title>
<path fill="none" stroke="#191970" d="M579.7567,-168.452C624.2441,-160.5542 678.4887,-148.0431 695,-132 707.4026,-119.949 711.8505,-100.3695 713.3761,-85.6595"/>
<polygon fill="#191970" stroke="#191970" points="716.876,-85.778 714.0565,-75.5652 709.8918,-85.3072 716.876,-85.778"/>
</g>
<!-- Node25&#45;&gt;Node2 -->
<g id="edge46" class="edge">
<title>Node25&#45;&gt;Node2</title>
<path fill="none" stroke="#191970" d="M436.583,-224.2854C418.1489,-210.2458 382.0481,-184.196 348,-168 317.6836,-153.5791 281.7103,-142.0846 253.3028,-134.1926"/>
<polygon fill="#191970" stroke="#191970" points="254.1598,-130.7986 243.5919,-131.5524 252.3233,-137.5534 254.1598,-130.7986"/>
</g>
<!-- Node25&#45;&gt;Node14 -->
<g id="edge35" class="edge">
<title>Node25&#45;&gt;Node14</title>
<path fill="none" stroke="#191970" d="M441.4944,-224.1598C432.337,-210.8592 419.2142,-186.6622 429,-168 439.1623,-148.6198 489.9599,-120.7898 510,-112 567.5015,-86.7793 640.4146,-74.6412 681.6729,-69.4198"/>
<polygon fill="#191970" stroke="#191970" points="682.1885,-72.883 691.6967,-68.2094 681.3492,-65.9335 682.1885,-72.883"/>
</g>
<!-- Node25&#45;&gt;Node21 -->
<g id="edge36" class="edge">
<title>Node25&#45;&gt;Node21</title>
<path fill="none" stroke="#191970" d="M410.5768,-224.4369C372.3125,-214.9133 313.4663,-200.2672 272.1151,-189.9753"/>
<polygon fill="#191970" stroke="#191970" points="272.8141,-186.5426 262.2647,-187.5237 271.1234,-193.3353 272.8141,-186.5426"/>
</g>
<!-- Node26 -->
<g id="node27" class="node">
<title>Node26</title>
<g id="a_node27"><a xlink:href="RotationRaw_8h.html" target="_top" xlink:title="iDynTree/Core/RotationRaw.h">
<polygon fill="none" stroke="#000000" points="612,-168.5 612,-187.5 770,-187.5 770,-168.5 612,-168.5"/>
<text text-anchor="middle" x="691" y="-175.5" font-family="FreeSans.ttf" font-size="10.00" fill="#000000">iDynTree/Core/RotationRaw.h</text>
</a>
</g>
</g>
<!-- Node25&#45;&gt;Node26 -->
<g id="edge37" class="edge">
<title>Node25&#45;&gt;Node26</title>
<path fill="none" stroke="#191970" d="M490.3263,-224.4369C531.7427,-214.8529 595.5777,-200.0812 640.0935,-189.78"/>
<polygon fill="#191970" stroke="#191970" points="640.8907,-193.1881 649.8441,-187.5237 639.3125,-186.3683 640.8907,-193.1881"/>
</g>
<!-- Node26&#45;&gt;Node14 -->
<g id="edge45" class="edge">
<title>Node26&#45;&gt;Node14</title>
<path fill="none" stroke="#191970" d="M702.1502,-168.3293C711.0671,-159.8007 722.8921,-146.5 728,-132 733.4582,-116.5054 728.7339,-98.1789 723.3458,-84.7741"/>
<polygon fill="#191970" stroke="#191970" points="726.5273,-83.3147 719.2538,-75.6111 720.1357,-86.1691 726.5273,-83.3147"/>
</g>
<!-- Node27 -->
<g id="node28" class="node">
<title>Node27</title>
<g id="a_node28"><a xlink:href="MatrixFixSize_8h.html" target="_top" xlink:title="iDynTree/Core/MatrixFixSize.h">
<polygon fill="none" stroke="#000000" points="302.5,-112.5 302.5,-131.5 463.5,-131.5 463.5,-112.5 302.5,-112.5"/>
<text text-anchor="middle" x="383" y="-119.5" font-family="FreeSans.ttf" font-size="10.00" fill="#000000">iDynTree/Core/MatrixFixSize.h</text>
</a>
</g>
</g>
<!-- Node26&#45;&gt;Node27 -->
<g id="edge38" class="edge">
<title>Node26&#45;&gt;Node27</title>
<path fill="none" stroke="#191970" d="M638.4029,-168.4369C584.9159,-158.712 502.0508,-143.6456 445.3067,-133.3285"/>
<polygon fill="#191970" stroke="#191970" points="445.845,-129.8691 435.3802,-131.5237 444.5928,-136.7562 445.845,-129.8691"/>
</g>
<!-- Node27&#45;&gt;Node3 -->
<g id="edge39" class="edge">
<title>Node27&#45;&gt;Node3</title>
<path fill="none" stroke="#191970" d="M328.3536,-112.4369C272.6677,-102.6918 186.3325,-87.5832 127.3684,-77.2645"/>
<polygon fill="#191970" stroke="#191970" points="127.8746,-73.7999 117.421,-75.5237 126.6679,-80.6952 127.8746,-73.7999"/>
</g>
<!-- Node27&#45;&gt;Node6 -->
<g id="edge40" class="edge">
<title>Node27&#45;&gt;Node6</title>
<path fill="none" stroke="#191970" d="M387.5012,-112.2453C393.0654,-98.6141 400.5839,-73.5684 390,-56 383.8559,-45.8013 358.6144,-33.0729 336.8912,-23.5922"/>
<polygon fill="#191970" stroke="#191970" points="338.1236,-20.3129 327.5517,-19.6154 335.3812,-26.7534 338.1236,-20.3129"/>
</g>
<!-- Node27&#45;&gt;Node14 -->
<g id="edge42" class="edge">
<title>Node27&#45;&gt;Node14</title>
<path fill="none" stroke="#191970" d="M439.5248,-112.4369C509.2574,-100.6392 625.4544,-80.9805 681.6298,-71.4765"/>
<polygon fill="#191970" stroke="#191970" points="682.4387,-74.8895 691.7147,-69.7703 681.2709,-67.9876 682.4387,-74.8895"/>
</g>
<!-- Node27&#45;&gt;Node15 -->
<g id="edge44" class="edge">
<title>Node27&#45;&gt;Node15</title>
<path fill="none" stroke="#191970" d="M345.6792,-112.4129C311.939,-103.7206 260.6375,-90.4427 207.2611,-76.3182"/>
<polygon fill="#191970" stroke="#191970" points="207.8371,-72.8501 197.2742,-73.6719 206.0441,-79.6166 207.8371,-72.8501"/>
</g>
<!-- Node27&#45;&gt;Node16 -->
<g id="edge41" class="edge">
<title>Node27&#45;&gt;Node16</title>
<path fill="none" stroke="#191970" d="M378.297,-112.2455C374.6576,-104.6973 369.5076,-94.0158 365.0738,-84.8197"/>
<polygon fill="#191970" stroke="#191970" points="368.1449,-83.1303 360.6491,-75.6427 361.8395,-86.1704 368.1449,-83.1303"/>
</g>
<!-- Node27&#45;&gt;Node28 -->
<g id="edge43" class="edge">
<title>Node27&#45;&gt;Node28</title>
<path fill="none" stroke="#191970" d="M359.277,-112.3733C336.8263,-103.2629 302.9261,-89.5062 277.8745,-79.3404"/>
<polygon fill="#191970" stroke="#191970" points="278.9957,-76.0182 268.4135,-75.5011 276.3635,-82.5045 278.9957,-76.0182"/>
</g>
<!-- Node29&#45;&gt;Node14 -->
<g id="edge57" class="edge">
<title>Node29&#45;&gt;Node14</title>
<path fill="none" stroke="#191970" d="M682.9249,-336.4223C702.9947,-329.171 727.9713,-317.4361 745,-300 783.2158,-260.87 784.403,-241.452 796,-188 803.2659,-154.5108 802.5032,-140.1771 783,-112 773.6129,-98.4381 758.8092,-87.8021 745.3167,-80.1894"/>
<polygon fill="#191970" stroke="#191970" points="746.744,-76.9849 736.2679,-75.4032 743.4711,-83.1727 746.744,-76.9849"/>
</g>
<!-- Node29&#45;&gt;Node23 -->
<g id="edge54" class="edge">
<title>Node29&#45;&gt;Node23</title>
<path fill="none" stroke="#191970" d="M631.8846,-336.2455C615.555,-327.4527 591.329,-314.4079 572.7661,-304.4125"/>
<polygon fill="#191970" stroke="#191970" points="574.3719,-301.3021 563.9078,-299.6427 571.0532,-307.4654 574.3719,-301.3021"/>
</g>
<!-- Node29&#45;&gt;Node25 -->
<g id="edge55" class="edge">
<title>Node29&#45;&gt;Node25</title>
<path fill="none" stroke="#191970" d="M595.0601,-336.4767C566.1975,-329.6259 531.2604,-318.2777 504,-300 485.5044,-287.599 469.8756,-267.2149 460.0603,-252.3768"/>
<polygon fill="#191970" stroke="#191970" points="462.7869,-250.1405 454.4782,-243.5666 456.8738,-253.887 462.7869,-250.1405"/>
</g>
<!-- Node29&#45;&gt;Node27 -->
<g id="edge56" class="edge">
<title>Node29&#45;&gt;Node27</title>
<path fill="none" stroke="#191970" d="M666.4855,-336.4251C711.9247,-308.9002 832.1752,-227.7097 779,-168 768.9326,-156.6955 587.6409,-139.3554 473.8823,-129.5108"/>
<polygon fill="#191970" stroke="#191970" points="474.0368,-126.0112 463.7733,-128.6403 473.4362,-132.9854 474.0368,-126.0112"/>
</g>
</g>
</svg>
