<?xml version="1.0" encoding="UTF-8" standalone="no"?>
<!DOCTYPE svg PUBLIC "-//W3C//DTD SVG 1.1//EN"
 "http://www.w3.org/Graphics/SVG/1.1/DTD/svg11.dtd">
<!-- Generated by graphviz version 2.40.1 (20161225.0304)
 -->
<!-- Title: IpoptInterface.cpp Pages: 1 -->
<svg width="1664pt" height="554pt"
 viewBox="0.00 0.00 1664.35 554.00" xmlns="http://www.w3.org/2000/svg" xmlns:xlink="http://www.w3.org/1999/xlink">
<g id="graph0" class="graph" transform="scale(1 1) rotate(0) translate(4 550)">
<title>IpoptInterface.cpp</title>
<!-- Node0 -->
<g id="node1" class="node">
<title>Node0</title>
<polygon fill="#bfbfbf" stroke="#000000" points="886.5,-526.5 886.5,-545.5 991.5,-545.5 991.5,-526.5 886.5,-526.5"/>
<text text-anchor="middle" x="939" y="-533.5" font-family="FreeSans.ttf" font-size="10.00" fill="#000000">IpoptInterface.cpp</text>
</g>
<!-- Node1 -->
<g id="node2" class="node">
<title>Node1</title>
<polygon fill="none" stroke="#bfbfbf" points="0,-470.5 0,-489.5 70,-489.5 70,-470.5 0,-470.5"/>
<text text-anchor="middle" x="35" y="-477.5" font-family="FreeSans.ttf" font-size="10.00" fill="#000000">IpTNLP.hpp</text>
</g>
<!-- Node0&#45;&gt;Node1 -->
<g id="edge1" class="edge">
<title>Node0&#45;&gt;Node1</title>
<path fill="none" stroke="#191970" d="M886.289,-534.3568C727.6236,-529.2285 255.1973,-512.5806 80.5252,-489.959"/>
<polygon fill="#191970" stroke="#191970" points="80.824,-486.4677 70.446,-488.6 79.8886,-493.4049 80.824,-486.4677"/>
</g>
<!-- Node2 -->
<g id="node3" class="node">
<title>Node2</title>
<polygon fill="none" stroke="#bfbfbf" points="88,-470.5 88,-489.5 214,-489.5 214,-470.5 88,-470.5"/>
<text text-anchor="middle" x="151" y="-477.5" font-family="FreeSans.ttf" font-size="10.00" fill="#000000">IpIpoptApplication.hpp</text>
</g>
<!-- Node0&#45;&gt;Node2 -->
<g id="edge2" class="edge">
<title>Node0&#45;&gt;Node2</title>
<path fill="none" stroke="#191970" d="M886.2807,-533.7551C768.2091,-528.472 473.6156,-513.8693 228,-490 226.8931,-489.8924 225.7776,-489.7814 224.6551,-489.6673"/>
<polygon fill="#191970" stroke="#191970" points="224.7294,-486.1551 214.4122,-488.5648 223.9802,-493.1149 224.7294,-486.1551"/>
</g>
<!-- Node3 -->
<g id="node4" class="node">
<title>Node3</title>
<polygon fill="none" stroke="#bfbfbf" points="270.5,-409 270.5,-428 347.5,-428 347.5,-409 270.5,-409"/>
<text text-anchor="middle" x="309" y="-416" font-family="FreeSans.ttf" font-size="10.00" fill="#000000">Eigen/Dense</text>
</g>
<!-- Node0&#45;&gt;Node3 -->
<g id="edge3" class="edge">
<title>Node0&#45;&gt;Node3</title>
<path fill="none" stroke="#191970" d="M886.4783,-528.7629C784.5962,-514.2739 553.3246,-479.1812 362,-434 357.9064,-433.0333 353.6592,-431.9427 349.4312,-430.799"/>
<polygon fill="#191970" stroke="#191970" points="350.2559,-427.3953 339.6824,-428.0674 348.3672,-434.1357 350.2559,-427.3953"/>
</g>
<!-- Node4 -->
<g id="node5" class="node">
<title>Node4</title>
<g id="a_node5"><a xlink:href="EigenHelpers_8h.html" target="_top" xlink:title="iDynTree/Core/EigenHelpers.h">
<polygon fill="none" stroke="#000000" points="680.5,-470.5 680.5,-489.5 841.5,-489.5 841.5,-470.5 680.5,-470.5"/>
<text text-anchor="middle" x="761" y="-477.5" font-family="FreeSans.ttf" font-size="10.00" fill="#000000">iDynTree/Core/EigenHelpers.h</text>
</a>
</g>
</g>
<!-- Node0&#45;&gt;Node4 -->
<g id="edge4" class="edge">
<title>Node0&#45;&gt;Node4</title>
<path fill="none" stroke="#191970" d="M908.4007,-526.3733C878.6739,-517.021 833.3841,-502.7725 800.8544,-492.5385"/>
<polygon fill="#191970" stroke="#191970" points="801.7895,-489.1636 791.2,-489.5011 799.6887,-495.8409 801.7895,-489.1636"/>
</g>
<!-- Node5 -->
<g id="node6" class="node">
<title>Node5</title>
<g id="a_node6"><a xlink:href="VectorDynSize_8h.html" target="_top" xlink:title="iDynTree/Core/VectorDynSize.h">
<polygon fill="none" stroke="#000000" points="1146.5,-291.5 1146.5,-310.5 1313.5,-310.5 1313.5,-291.5 1146.5,-291.5"/>
<text text-anchor="middle" x="1230" y="-298.5" font-family="FreeSans.ttf" font-size="10.00" fill="#000000">iDynTree/Core/VectorDynSize.h</text>
</a>
</g>
</g>
<!-- Node0&#45;&gt;Node5 -->
<g id="edge67" class="edge">
<title>Node0&#45;&gt;Node5</title>
<path fill="none" stroke="#191970" d="M974.3915,-526.4345C1021.3831,-512.3583 1105.0558,-482.3712 1162,-434 1197.9282,-403.4809 1217.1188,-349.245 1225.2266,-320.3609"/>
<polygon fill="#191970" stroke="#191970" points="1228.6257,-321.1973 1227.8032,-310.6344 1221.8591,-319.4048 1228.6257,-321.1973"/>
</g>
<!-- Node7 -->
<g id="node8" class="node">
<title>Node7</title>
<polygon fill="none" stroke="#bfbfbf" points="505,-.5 505,-19.5 557,-19.5 557,-.5 505,-.5"/>
<text text-anchor="middle" x="531" y="-7.5" font-family="FreeSans.ttf" font-size="10.00" fill="#000000">cassert</text>
</g>
<!-- Node0&#45;&gt;Node7 -->
<g id="edge79" class="edge">
<title>Node0&#45;&gt;Node7</title>
<path fill="none" stroke="#191970" d="M886.326,-532.68C723.9502,-521.7498 242,-483.807 242,-418.5 242,-418.5 242,-418.5 242,-122 242,-68.4234 416.867,-30.4292 494.5547,-16.1932"/>
<polygon fill="#191970" stroke="#191970" points="495.6208,-19.5577 504.8435,-14.343 494.3818,-12.6682 495.6208,-19.5577"/>
</g>
<!-- Node18 -->
<g id="node19" class="node">
<title>Node18</title>
<g id="a_node19"><a xlink:href="Utils_8h.html" target="_top" xlink:title="iDynTree/Core/Utils.h">
<polygon fill="none" stroke="#000000" points="1047.5,-56.5 1047.5,-75.5 1166.5,-75.5 1166.5,-56.5 1047.5,-56.5"/>
<text text-anchor="middle" x="1107" y="-63.5" font-family="FreeSans.ttf" font-size="10.00" fill="#000000">iDynTree/Core/Utils.h</text>
</a>
</g>
</g>
<!-- Node0&#45;&gt;Node18 -->
<g id="edge78" class="edge">
<title>Node0&#45;&gt;Node18</title>
<path fill="none" stroke="#191970" d="M991.5545,-531.724C1100.5214,-521.4072 1341,-490.4847 1341,-418.5 1341,-418.5 1341,-418.5 1341,-183.5 1341,-141.4717 1218.9215,-98.8566 1151.1167,-78.4286"/>
<polygon fill="#191970" stroke="#191970" points="1152.1103,-75.0726 1141.5275,-75.5783 1150.1158,-81.7825 1152.1103,-75.0726"/>
</g>
<!-- Node21 -->
<g id="node22" class="node">
<title>Node21</title>
<g id="a_node22"><a xlink:href="MatrixDynSize_8h.html" target="_top" xlink:title="iDynTree/Core/MatrixDynSize.h">
<polygon fill="none" stroke="#000000" points="1368.5,-409 1368.5,-428 1535.5,-428 1535.5,-409 1368.5,-409"/>
<text text-anchor="middle" x="1452" y="-416" font-family="FreeSans.ttf" font-size="10.00" fill="#000000">iDynTree/Core/MatrixDynSize.h</text>
</a>
</g>
</g>
<!-- Node0&#45;&gt;Node21 -->
<g id="edge68" class="edge">
<title>Node0&#45;&gt;Node21</title>
<path fill="none" stroke="#191970" d="M991.8185,-533.5746C1088.5161,-528.5741 1290.0321,-515.3981 1355,-490 1386.5974,-477.6475 1417.0864,-452.2542 1435.1923,-435.2981"/>
<polygon fill="#191970" stroke="#191970" points="1437.8153,-437.6316 1442.5994,-428.1783 1432.9644,-432.5849 1437.8153,-437.6316"/>
</g>
<!-- Node33 -->
<g id="node34" class="node">
<title>Node33</title>
<g id="a_node34"><a xlink:href="IpoptInterface_8h.html" target="_top" xlink:title="iDynTree/Optimizers\l/IpoptInterface.h">
<polygon fill="none" stroke="#000000" points="1514,-168.5 1514,-198.5 1630,-198.5 1630,-168.5 1514,-168.5"/>
<text text-anchor="start" x="1522" y="-186.5" font-family="FreeSans.ttf" font-size="10.00" fill="#000000">iDynTree/Optimizers</text>
<text text-anchor="middle" x="1572" y="-175.5" font-family="FreeSans.ttf" font-size="10.00" fill="#000000">/IpoptInterface.h</text>
</a>
</g>
</g>
<!-- Node0&#45;&gt;Node33 -->
<g id="edge69" class="edge">
<title>Node0&#45;&gt;Node33</title>
<path fill="none" stroke="#191970" d="M991.6041,-534.597C1075.8301,-531.4583 1245.7423,-521.4514 1386,-490 1468.7867,-471.4359 1563,-503.3426 1563,-418.5 1563,-418.5 1563,-418.5 1563,-301 1563,-269.0647 1566.3461,-232.3893 1568.9577,-208.6273"/>
<polygon fill="#191970" stroke="#191970" points="1572.4362,-209.0138 1570.0913,-198.6817 1565.4813,-208.221 1572.4362,-209.0138"/>
</g>
<!-- Node38 -->
<g id="node39" class="node">
<title>Node38</title>
<polygon fill="none" stroke="#bfbfbf" points="1591.5,-470.5 1591.5,-489.5 1648.5,-489.5 1648.5,-470.5 1591.5,-470.5"/>
<text text-anchor="middle" x="1620" y="-477.5" font-family="FreeSans.ttf" font-size="10.00" fill="#000000">ostream</text>
</g>
<!-- Node0&#45;&gt;Node38 -->
<g id="edge80" class="edge">
<title>Node0&#45;&gt;Node38</title>
<path fill="none" stroke="#191970" d="M991.826,-534.983C1101.4744,-532.2597 1361.5165,-522.6192 1577,-490 1578.4683,-489.7777 1579.9606,-489.5318 1581.4649,-489.2672"/>
<polygon fill="#191970" stroke="#191970" points="1582.3062,-492.6687 1591.4395,-487.2991 1580.9511,-485.8011 1582.3062,-492.6687"/>
</g>
<!-- Node4&#45;&gt;Node3 -->
<g id="edge5" class="edge">
<title>Node4&#45;&gt;Node3</title>
<path fill="none" stroke="#191970" d="M680.1256,-474.7216C599.0698,-468.486 471.0096,-456.0576 362,-434 357.4912,-433.0877 352.8106,-431.9728 348.181,-430.7633"/>
<polygon fill="#191970" stroke="#191970" points="348.7851,-427.2991 338.2139,-428.0065 346.919,-434.0458 348.7851,-427.2991"/>
</g>
<!-- Node4&#45;&gt;Node5 -->
<g id="edge6" class="edge">
<title>Node4&#45;&gt;Node5</title>
<path fill="none" stroke="#191970" d="M841.7673,-477.4487C936.0513,-473.1969 1085.1862,-462.1336 1133,-434 1156.5393,-420.1495 1198.9999,-352.8427 1219.0065,-319.6225"/>
<polygon fill="#191970" stroke="#191970" points="1222.1137,-321.2458 1224.235,-310.8655 1216.1034,-317.6573 1222.1137,-321.2458"/>
</g>
<!-- Node17 -->
<g id="node18" class="node">
<title>Node17</title>
<g id="a_node18"><a xlink:href="VectorFixSize_8h.html" target="_top" xlink:title="iDynTree/Core/VectorFixSize.h">
<polygon fill="none" stroke="#000000" points="678.5,-112.5 678.5,-131.5 839.5,-131.5 839.5,-112.5 678.5,-112.5"/>
<text text-anchor="middle" x="759" y="-119.5" font-family="FreeSans.ttf" font-size="10.00" fill="#000000">iDynTree/Core/VectorFixSize.h</text>
</a>
</g>
</g>
<!-- Node4&#45;&gt;Node17 -->
<g id="edge18" class="edge">
<title>Node4&#45;&gt;Node17</title>
<path fill="none" stroke="#191970" d="M680.4221,-472.2851C592.5737,-463.258 461.8988,-447.7882 443,-434 393.8635,-398.1509 396.6841,-370.2647 383,-311 366.9002,-241.2735 396.3752,-206.0213 457,-168 474.7647,-156.8587 585.8415,-141.9269 668.1562,-132.1403"/>
<polygon fill="#191970" stroke="#191970" points="668.7763,-135.5914 678.297,-130.9432 667.9556,-128.6397 668.7763,-135.5914"/>
</g>
<!-- Node4&#45;&gt;Node18 -->
<g id="edge66" class="edge">
<title>Node4&#45;&gt;Node18</title>
<path fill="none" stroke="#191970" d="M790.2262,-470.4228C861.0212,-445.8295 1043.4741,-373.9028 1147,-255 1173.263,-224.8361 1180.9239,-206.4743 1170,-168 1160.6825,-135.1836 1137.4725,-102.5782 1121.9778,-83.3648"/>
<polygon fill="#191970" stroke="#191970" points="1124.5562,-80.991 1115.4792,-75.5267 1119.1675,-85.4588 1124.5562,-80.991"/>
</g>
<!-- Node4&#45;&gt;Node21 -->
<g id="edge26" class="edge">
<title>Node4&#45;&gt;Node21</title>
<path fill="none" stroke="#191970" d="M841.6188,-472.8248C970.3879,-461.3642 1221.8384,-438.9847 1358.3721,-426.833"/>
<polygon fill="#191970" stroke="#191970" points="1358.7524,-430.3131 1368.4027,-425.9403 1358.1318,-423.3407 1358.7524,-430.3131"/>
</g>
<!-- Node22 -->
<g id="node23" class="node">
<title>Node22</title>
<g id="a_node23"><a xlink:href="MatrixFixSize_8h.html" target="_top" xlink:title="iDynTree/Core/MatrixFixSize.h">
<polygon fill="none" stroke="#000000" points="499.5,-112.5 499.5,-131.5 660.5,-131.5 660.5,-112.5 499.5,-112.5"/>
<text text-anchor="middle" x="580" y="-119.5" font-family="FreeSans.ttf" font-size="10.00" fill="#000000">iDynTree/Core/MatrixFixSize.h</text>
</a>
</g>
</g>
<!-- Node4&#45;&gt;Node22 -->
<g id="edge28" class="edge">
<title>Node4&#45;&gt;Node22</title>
<path fill="none" stroke="#191970" d="M680.1978,-474.0487C582.4835,-466.151 428.4729,-451.1854 408,-434 317.4407,-357.9824 319.9391,-242.192 412,-168 428.4773,-154.7209 477.1531,-142.2122 517.8953,-133.6007"/>
<polygon fill="#191970" stroke="#191970" points="518.7064,-137.007 527.7889,-131.5518 517.2869,-130.1525 518.7064,-137.007"/>
</g>
<!-- Node24 -->
<g id="node25" class="node">
<title>Node24</title>
<g id="a_node25"><a xlink:href="SpatialMotionVector_8h.html" target="_top" xlink:title="iDynTree/Core/SpatialMotion\lVector.h">
<polygon fill="none" stroke="#000000" points="630.5,-403.5 630.5,-433.5 785.5,-433.5 785.5,-403.5 630.5,-403.5"/>
<text text-anchor="start" x="638.5" y="-421.5" font-family="FreeSans.ttf" font-size="10.00" fill="#000000">iDynTree/Core/SpatialMotion</text>
<text text-anchor="middle" x="708" y="-410.5" font-family="FreeSans.ttf" font-size="10.00" fill="#000000">Vector.h</text>
</a>
</g>
</g>
<!-- Node4&#45;&gt;Node24 -->
<g id="edge35" class="edge">
<title>Node4&#45;&gt;Node24</title>
<path fill="none" stroke="#191970" d="M752.7188,-470.3906C746.0108,-462.6068 736.2841,-451.3202 727.6141,-441.2597"/>
<polygon fill="#191970" stroke="#191970" points="730.1448,-438.8349 720.9653,-433.5446 724.8422,-443.4046 730.1448,-438.8349"/>
</g>
<!-- Node31 -->
<g id="node32" class="node">
<title>Node31</title>
<g id="a_node32"><a xlink:href="SpatialForceVector_8h.html" target="_top" xlink:title="iDynTree/Core/SpatialForce\lVector.h">
<polygon fill="none" stroke="#000000" points="452,-403.5 452,-433.5 600,-433.5 600,-403.5 452,-403.5"/>
<text text-anchor="start" x="460" y="-421.5" font-family="FreeSans.ttf" font-size="10.00" fill="#000000">iDynTree/Core/SpatialForce</text>
<text text-anchor="middle" x="526" y="-410.5" font-family="FreeSans.ttf" font-size="10.00" fill="#000000">Vector.h</text>
</a>
</g>
</g>
<!-- Node4&#45;&gt;Node31 -->
<g id="edge57" class="edge">
<title>Node4&#45;&gt;Node31</title>
<path fill="none" stroke="#191970" d="M724.5391,-470.4581C689.6148,-461.3183 636.0672,-447.3048 593.3804,-436.1336"/>
<polygon fill="#191970" stroke="#191970" points="594.1771,-432.7243 583.6167,-433.5784 592.4048,-439.4962 594.1771,-432.7243"/>
</g>
<!-- Node32 -->
<g id="node33" class="node">
<title>Node32</title>
<g id="a_node33"><a xlink:href="Transform_8h.html" target="_top" xlink:title="iDynTree/Core/Transform.h">
<polygon fill="none" stroke="#000000" points="791,-347.5 791,-366.5 937,-366.5 937,-347.5 791,-347.5"/>
<text text-anchor="middle" x="864" y="-354.5" font-family="FreeSans.ttf" font-size="10.00" fill="#000000">iDynTree/Core/Transform.h</text>
</a>
</g>
</g>
<!-- Node4&#45;&gt;Node32 -->
<g id="edge61" class="edge">
<title>Node4&#45;&gt;Node32</title>
<path fill="none" stroke="#191970" d="M769.0822,-470.3484C786.381,-449.6906 827.2079,-400.9362 849.2583,-374.6042"/>
<polygon fill="#191970" stroke="#191970" points="852.2185,-376.5207 855.9553,-366.6068 846.8516,-372.0266 852.2185,-376.5207"/>
</g>
<!-- Node6 -->
<g id="node7" class="node">
<title>Node6</title>
<g id="a_node7"><a xlink:href="Span_8h.html" target="_top" xlink:title="iDynTree/Core/Span.h">
<polygon fill="none" stroke="#000000" points="768.5,-56.5 768.5,-75.5 889.5,-75.5 889.5,-56.5 768.5,-56.5"/>
<text text-anchor="middle" x="829" y="-63.5" font-family="FreeSans.ttf" font-size="10.00" fill="#000000">iDynTree/Core/Span.h</text>
</a>
</g>
</g>
<!-- Node5&#45;&gt;Node6 -->
<g id="edge7" class="edge">
<title>Node5&#45;&gt;Node6</title>
<path fill="none" stroke="#191970" d="M1228.458,-291.339C1224.0462,-266.911 1209.0806,-202.1953 1170,-168 1127.8391,-131.1094 974.3337,-95.3069 888.3616,-77.5579"/>
<polygon fill="#191970" stroke="#191970" points="888.9771,-74.1114 878.4784,-75.5356 887.5737,-80.9693 888.9771,-74.1114"/>
</g>
<!-- Node16 -->
<g id="node17" class="node">
<title>Node16</title>
<polygon fill="none" stroke="#bfbfbf" points="1198,-56.5 1198,-75.5 1242,-75.5 1242,-56.5 1198,-56.5"/>
<text text-anchor="middle" x="1220" y="-63.5" font-family="FreeSans.ttf" font-size="10.00" fill="#000000">string</text>
</g>
<!-- Node5&#45;&gt;Node16 -->
<g id="edge17" class="edge">
<title>Node5&#45;&gt;Node16</title>
<path fill="none" stroke="#191970" d="M1263.8108,-291.4665C1303.5504,-278.1777 1367.3303,-249.8001 1393,-199 1410.4386,-164.4891 1416.5682,-142.6538 1393,-112 1375.9891,-89.8749 1297.6965,-76.1532 1252.4816,-69.9338"/>
<polygon fill="#191970" stroke="#191970" points="1252.6669,-66.4278 1242.2935,-68.5821 1251.7463,-73.367 1252.6669,-66.4278"/>
</g>
<!-- Node6&#45;&gt;Node7 -->
<g id="edge8" class="edge">
<title>Node6&#45;&gt;Node7</title>
<path fill="none" stroke="#191970" d="M768.3141,-57.2408C717.0746,-49.4238 641.6074,-36.9267 567.2963,-20.1233"/>
<polygon fill="#191970" stroke="#191970" points="567.8253,-16.6539 557.2963,-17.834 566.2631,-23.4774 567.8253,-16.6539"/>
</g>
<!-- Node8 -->
<g id="node9" class="node">
<title>Node8</title>
<polygon fill="none" stroke="#bfbfbf" points="726,-.5 726,-19.5 790,-19.5 790,-.5 726,-.5"/>
<text text-anchor="middle" x="758" y="-7.5" font-family="FreeSans.ttf" font-size="10.00" fill="#000000">algorithm</text>
</g>
<!-- Node6&#45;&gt;Node8 -->
<g id="edge9" class="edge">
<title>Node6&#45;&gt;Node8</title>
<path fill="none" stroke="#191970" d="M816.6327,-56.2455C806.0446,-47.8943 790.5936,-35.7076 778.2107,-25.9408"/>
<polygon fill="#191970" stroke="#191970" points="780.2447,-23.0875 770.2255,-19.6427 775.9097,-28.5837 780.2447,-23.0875"/>
</g>
<!-- Node9 -->
<g id="node10" class="node">
<title>Node9</title>
<polygon fill="none" stroke="#bfbfbf" points="808,-.5 808,-19.5 850,-19.5 850,-.5 808,-.5"/>
<text text-anchor="middle" x="829" y="-7.5" font-family="FreeSans.ttf" font-size="10.00" fill="#000000">array</text>
</g>
<!-- Node6&#45;&gt;Node9 -->
<g id="edge10" class="edge">
<title>Node6&#45;&gt;Node9</title>
<path fill="none" stroke="#191970" d="M829,-56.2455C829,-48.9382 829,-38.6944 829,-29.7046"/>
<polygon fill="#191970" stroke="#191970" points="832.5001,-29.6426 829,-19.6427 825.5001,-29.6427 832.5001,-29.6426"/>
</g>
<!-- Node10 -->
<g id="node11" class="node">
<title>Node10</title>
<polygon fill="none" stroke="#bfbfbf" points="1085.5,-.5 1085.5,-19.5 1138.5,-19.5 1138.5,-.5 1085.5,-.5"/>
<text text-anchor="middle" x="1112" y="-7.5" font-family="FreeSans.ttf" font-size="10.00" fill="#000000">cstddef</text>
</g>
<!-- Node6&#45;&gt;Node10 -->
<g id="edge11" class="edge">
<title>Node6&#45;&gt;Node10</title>
<path fill="none" stroke="#191970" d="M888.1882,-56.4626C936.1564,-48.3949 1005.6707,-35.9406 1075.4796,-19.9638"/>
<polygon fill="#191970" stroke="#191970" points="1076.3753,-23.3491 1085.3297,-17.6862 1074.7982,-16.5291 1076.3753,-23.3491"/>
</g>
<!-- Node11 -->
<g id="node12" class="node">
<title>Node11</title>
<polygon fill="none" stroke="#bfbfbf" points="868.5,-.5 868.5,-19.5 921.5,-19.5 921.5,-.5 868.5,-.5"/>
<text text-anchor="middle" x="895" y="-7.5" font-family="FreeSans.ttf" font-size="10.00" fill="#000000">iterator</text>
</g>
<!-- Node6&#45;&gt;Node11 -->
<g id="edge12" class="edge">
<title>Node6&#45;&gt;Node11</title>
<path fill="none" stroke="#191970" d="M840.4963,-56.2455C850.2442,-47.9746 864.4259,-35.9416 875.8798,-26.2232"/>
<polygon fill="#191970" stroke="#191970" points="878.2747,-28.7813 883.6354,-19.6427 873.7459,-23.4437 878.2747,-28.7813"/>
</g>
<!-- Node12 -->
<g id="node13" class="node">
<title>Node12</title>
<polygon fill="none" stroke="#bfbfbf" points="940,-.5 940,-19.5 984,-19.5 984,-.5 940,-.5"/>
<text text-anchor="middle" x="962" y="-7.5" font-family="FreeSans.ttf" font-size="10.00" fill="#000000">limits</text>
</g>
<!-- Node6&#45;&gt;Node12 -->
<g id="edge13" class="edge">
<title>Node6&#45;&gt;Node12</title>
<path fill="none" stroke="#191970" d="M851.8635,-56.3733C873.5355,-47.2482 906.2779,-33.462 930.4331,-23.2913"/>
<polygon fill="#191970" stroke="#191970" points="932.0186,-26.4214 939.8768,-19.315 929.3022,-19.9699 932.0186,-26.4214"/>
</g>
<!-- Node13 -->
<g id="node14" class="node">
<title>Node13</title>
<polygon fill="none" stroke="#bfbfbf" points="1002.5,-.5 1002.5,-19.5 1067.5,-19.5 1067.5,-.5 1002.5,-.5"/>
<text text-anchor="middle" x="1035" y="-7.5" font-family="FreeSans.ttf" font-size="10.00" fill="#000000">stdexcept</text>
</g>
<!-- Node6&#45;&gt;Node13 -->
<g id="edge14" class="edge">
<title>Node6&#45;&gt;Node13</title>
<path fill="none" stroke="#191970" d="M864.4127,-56.3733C899.9997,-46.6991 954.8589,-31.7859 992.7097,-21.4964"/>
<polygon fill="#191970" stroke="#191970" points="993.6919,-24.8565 1002.4235,-18.8557 991.8556,-18.1016 993.6919,-24.8565"/>
</g>
<!-- Node14 -->
<g id="node15" class="node">
<title>Node14</title>
<polygon fill="none" stroke="#bfbfbf" points="575.5,-.5 575.5,-19.5 644.5,-19.5 644.5,-.5 575.5,-.5"/>
<text text-anchor="middle" x="610" y="-7.5" font-family="FreeSans.ttf" font-size="10.00" fill="#000000">type_traits</text>
</g>
<!-- Node6&#45;&gt;Node14 -->
<g id="edge15" class="edge">
<title>Node6&#45;&gt;Node14</title>
<path fill="none" stroke="#191970" d="M791.3526,-56.3733C753.3588,-46.6579 694.7018,-31.6589 654.4464,-21.3653"/>
<polygon fill="#191970" stroke="#191970" points="655.1876,-17.9423 644.6323,-18.8557 653.4534,-24.7241 655.1876,-17.9423"/>
</g>
<!-- Node15 -->
<g id="node16" class="node">
<title>Node15</title>
<polygon fill="none" stroke="#bfbfbf" points="662.5,-.5 662.5,-19.5 707.5,-19.5 707.5,-.5 662.5,-.5"/>
<text text-anchor="middle" x="685" y="-7.5" font-family="FreeSans.ttf" font-size="10.00" fill="#000000">utility</text>
</g>
<!-- Node6&#45;&gt;Node15 -->
<g id="edge16" class="edge">
<title>Node6&#45;&gt;Node15</title>
<path fill="none" stroke="#191970" d="M804.2455,-56.3733C780.1447,-47.0007 743.399,-32.7107 717.0707,-22.472"/>
<polygon fill="#191970" stroke="#191970" points="718.127,-19.1274 707.5383,-18.7649 715.5898,-25.6514 718.127,-19.1274"/>
</g>
<!-- Node17&#45;&gt;Node6 -->
<g id="edge21" class="edge">
<title>Node17&#45;&gt;Node6</title>
<path fill="none" stroke="#191970" d="M771.1931,-112.2455C781.6321,-103.8943 796.8655,-91.7076 809.074,-81.9408"/>
<polygon fill="#191970" stroke="#191970" points="811.3244,-84.6227 816.9467,-75.6427 806.9515,-79.1566 811.3244,-84.6227"/>
</g>
<!-- Node17&#45;&gt;Node7 -->
<g id="edge24" class="edge">
<title>Node17&#45;&gt;Node7</title>
<path fill="none" stroke="#191970" d="M753.0312,-112.3202C743.5909,-97.8372 723.819,-70.6659 700,-56 650.155,-25.3093 627.7461,-35.2872 567.3843,-20.2228"/>
<polygon fill="#191970" stroke="#191970" points="567.9226,-16.7452 557.3607,-17.58 566.1379,-23.5139 567.9226,-16.7452"/>
</g>
<!-- Node17&#45;&gt;Node16 -->
<g id="edge22" class="edge">
<title>Node17&#45;&gt;Node16</title>
<path fill="none" stroke="#191970" d="M839.883,-115.6742C923.9698,-108.4863 1059.2324,-95.2054 1175,-76 1179.1746,-75.3075 1183.5444,-74.4744 1187.8507,-73.5884"/>
<polygon fill="#191970" stroke="#191970" points="1188.6278,-77.0013 1197.6618,-71.4662 1187.1479,-70.1596 1188.6278,-77.0013"/>
</g>
<!-- Node17&#45;&gt;Node18 -->
<g id="edge19" class="edge">
<title>Node17&#45;&gt;Node18</title>
<path fill="none" stroke="#191970" d="M818.4279,-112.4369C879.2366,-102.6516 973.6524,-87.4582 1037.7928,-77.1368"/>
<polygon fill="#191970" stroke="#191970" points="1038.5003,-80.5681 1047.8172,-75.5237 1037.3881,-73.657 1038.5003,-80.5681"/>
</g>
<!-- Node19 -->
<g id="node20" class="node">
<title>Node19</title>
<polygon fill="none" stroke="#bfbfbf" points="559,-56.5 559,-75.5 615,-75.5 615,-56.5 559,-56.5"/>
<text text-anchor="middle" x="587" y="-63.5" font-family="FreeSans.ttf" font-size="10.00" fill="#000000">sstream</text>
</g>
<!-- Node17&#45;&gt;Node19 -->
<g id="edge23" class="edge">
<title>Node17&#45;&gt;Node19</title>
<path fill="none" stroke="#191970" d="M729.4321,-112.3733C700.4845,-102.9484 656.2642,-88.5511 624.7816,-78.301"/>
<polygon fill="#191970" stroke="#191970" points="625.6354,-74.8982 615.0431,-75.1303 623.4682,-81.5543 625.6354,-74.8982"/>
</g>
<!-- Node20 -->
<g id="node21" class="node">
<title>Node20</title>
<polygon fill="none" stroke="#bfbfbf" points="641,-56.5 641,-75.5 691,-75.5 691,-56.5 641,-56.5"/>
<text text-anchor="middle" x="666" y="-63.5" font-family="FreeSans.ttf" font-size="10.00" fill="#000000">cstring</text>
</g>
<!-- Node17&#45;&gt;Node20 -->
<g id="edge25" class="edge">
<title>Node17&#45;&gt;Node20</title>
<path fill="none" stroke="#191970" d="M742.8006,-112.2455C728.3982,-103.5731 707.1268,-90.7645 690.6201,-80.825"/>
<polygon fill="#191970" stroke="#191970" points="692.386,-77.8028 682.0137,-75.6427 688.775,-83.7996 692.386,-77.8028"/>
</g>
<!-- Node18&#45;&gt;Node10 -->
<g id="edge20" class="edge">
<title>Node18&#45;&gt;Node10</title>
<path fill="none" stroke="#191970" d="M1107.8709,-56.2455C1108.5234,-48.9382 1109.438,-38.6944 1110.2407,-29.7046"/>
<polygon fill="#191970" stroke="#191970" points="1113.7358,-29.9143 1111.139,-19.6427 1106.7635,-29.2918 1113.7358,-29.9143"/>
</g>
<!-- Node21&#45;&gt;Node16 -->
<g id="edge27" class="edge">
<title>Node21&#45;&gt;Node16</title>
<path fill="none" stroke="#191970" d="M1452.4171,-408.7532C1453.2415,-388.6243 1455,-340.9957 1455,-301 1455,-301 1455,-301 1455,-183.5 1455,-93.8417 1316.4624,-72.5945 1252.1264,-67.5613"/>
<polygon fill="#191970" stroke="#191970" points="1252.3276,-64.067 1242.1082,-66.8625 1251.8404,-71.05 1252.3276,-64.067"/>
</g>
<!-- Node22&#45;&gt;Node7 -->
<g id="edge30" class="edge">
<title>Node22&#45;&gt;Node7</title>
<path fill="none" stroke="#191970" d="M572.4169,-112.2703C565.7244,-103.2861 556.1089,-89.3518 550,-76 543.1788,-61.0913 538.2038,-43.1577 535.0596,-29.7496"/>
<polygon fill="#191970" stroke="#191970" points="538.4189,-28.7293 532.8488,-19.7169 531.5829,-30.2358 538.4189,-28.7293"/>
</g>
<!-- Node22&#45;&gt;Node16 -->
<g id="edge32" class="edge">
<title>Node22&#45;&gt;Node16</title>
<path fill="none" stroke="#191970" d="M660.5152,-112.8042C663.3778,-112.5247 666.2129,-112.2556 669,-112 893.5151,-91.4088 951.9037,-108.5429 1175,-76 1179.1873,-75.3892 1183.5646,-74.6041 1187.8748,-73.7428"/>
<polygon fill="#191970" stroke="#191970" points="1188.6438,-77.1575 1197.689,-71.6408 1187.1778,-70.3128 1188.6438,-77.1575"/>
</g>
<!-- Node22&#45;&gt;Node18 -->
<g id="edge29" class="edge">
<title>Node22&#45;&gt;Node18</title>
<path fill="none" stroke="#191970" d="M660.5273,-112.9255C663.3865,-112.6117 666.2176,-112.3024 669,-112 799.1486,-97.8542 951.135,-82.0533 1037.5277,-73.1392"/>
<polygon fill="#191970" stroke="#191970" points="1037.8874,-76.6207 1047.4756,-72.1132 1037.1693,-69.6576 1037.8874,-76.6207"/>
</g>
<!-- Node22&#45;&gt;Node19 -->
<g id="edge34" class="edge">
<title>Node22&#45;&gt;Node19</title>
<path fill="none" stroke="#191970" d="M581.2193,-112.2455C582.1327,-104.9382 583.4132,-94.6944 584.5369,-85.7046"/>
<polygon fill="#191970" stroke="#191970" points="588.0272,-85.9996 585.7947,-75.6427 581.0813,-85.1313 588.0272,-85.9996"/>
</g>
<!-- Node22&#45;&gt;Node20 -->
<g id="edge31" class="edge">
<title>Node22&#45;&gt;Node20</title>
<path fill="none" stroke="#191970" d="M594.9801,-112.2455C608.1751,-103.6534 627.6051,-91.0014 642.8079,-81.1018"/>
<polygon fill="#191970" stroke="#191970" points="644.7215,-84.0325 651.1916,-75.6427 640.9017,-78.1665 644.7215,-84.0325"/>
</g>
<!-- Node23 -->
<g id="node24" class="node">
<title>Node23</title>
<polygon fill="none" stroke="#bfbfbf" points="395,-56.5 395,-75.5 455,-75.5 455,-56.5 395,-56.5"/>
<text text-anchor="middle" x="425" y="-63.5" font-family="FreeSans.ttf" font-size="10.00" fill="#000000">iostream</text>
</g>
<!-- Node22&#45;&gt;Node23 -->
<g id="edge33" class="edge">
<title>Node22&#45;&gt;Node23</title>
<path fill="none" stroke="#191970" d="M553.3546,-112.3733C527.8036,-103.1419 489.0488,-89.1402 460.8091,-78.9375"/>
<polygon fill="#191970" stroke="#191970" points="461.8921,-75.6074 451.2978,-75.5011 459.5135,-82.1909 461.8921,-75.6074"/>
</g>
<!-- Node24&#45;&gt;Node17 -->
<g id="edge36" class="edge">
<title>Node24&#45;&gt;Node17</title>
<path fill="none" stroke="#191970" d="M710.5992,-403.3889C719.1068,-353.9281 746.1196,-196.8829 755.6398,-141.5355"/>
<polygon fill="#191970" stroke="#191970" points="759.1006,-142.0613 757.3465,-131.6127 752.2019,-140.8747 759.1006,-142.0613"/>
</g>
<!-- Node25 -->
<g id="node26" class="node">
<title>Node25</title>
<g id="a_node26"><a xlink:href="GeomVector3_8h.html" target="_top" xlink:title="iDynTree/Core/GeomVector3.h">
<polygon fill="none" stroke="#000000" points="495.5,-174 495.5,-193 658.5,-193 658.5,-174 495.5,-174"/>
<text text-anchor="middle" x="577" y="-181" font-family="FreeSans.ttf" font-size="10.00" fill="#000000">iDynTree/Core/GeomVector3.h</text>
</a>
</g>
</g>
<!-- Node24&#45;&gt;Node25 -->
<g id="edge37" class="edge">
<title>Node24&#45;&gt;Node25</title>
<path fill="none" stroke="#191970" d="M699.6061,-403.4422C676.611,-362.1914 612.6405,-247.4353 587.4167,-202.1865"/>
<polygon fill="#191970" stroke="#191970" points="590.3193,-200.205 582.3931,-193.1746 584.2051,-203.6134 590.3193,-200.205"/>
</g>
<!-- Node26 -->
<g id="node27" class="node">
<title>Node26</title>
<g id="a_node27"><a xlink:href="SpatialVector_8h.html" target="_top" xlink:title="iDynTree/Core/SpatialVector.h">
<polygon fill="none" stroke="#000000" points="483.5,-347.5 483.5,-366.5 644.5,-366.5 644.5,-347.5 483.5,-347.5"/>
<text text-anchor="middle" x="564" y="-354.5" font-family="FreeSans.ttf" font-size="10.00" fill="#000000">iDynTree/Core/SpatialVector.h</text>
</a>
</g>
</g>
<!-- Node24&#45;&gt;Node26 -->
<g id="edge39" class="edge">
<title>Node24&#45;&gt;Node26</title>
<path fill="none" stroke="#191970" d="M672.7736,-403.4554C649.1684,-393.374 618.3546,-380.2139 595.5524,-370.4755"/>
<polygon fill="#191970" stroke="#191970" points="596.886,-367.2393 586.3149,-366.5303 594.1366,-373.6767 596.886,-367.2393"/>
</g>
<!-- Node25&#45;&gt;Node17 -->
<g id="edge38" class="edge">
<title>Node25&#45;&gt;Node17</title>
<path fill="none" stroke="#191970" d="M605.4375,-173.8906C636.5572,-163.3749 686.5964,-146.466 721.0485,-134.8243"/>
<polygon fill="#191970" stroke="#191970" points="722.4089,-138.0591 730.7622,-131.5419 720.168,-131.4274 722.4089,-138.0591"/>
</g>
<!-- Node26&#45;&gt;Node18 -->
<g id="edge53" class="edge">
<title>Node26&#45;&gt;Node18</title>
<path fill="none" stroke="#191970" d="M572.5005,-347.1964C599.7886,-316.3121 688.842,-220.0095 782,-168 866.8442,-120.6321 976.6659,-92.0491 1044.4473,-77.6512"/>
<polygon fill="#191970" stroke="#191970" points="1045.4697,-81.0133 1054.5445,-75.5453 1044.0405,-74.1608 1045.4697,-81.0133"/>
</g>
<!-- Node26&#45;&gt;Node19 -->
<g id="edge56" class="edge">
<title>Node26&#45;&gt;Node19</title>
<path fill="none" stroke="#191970" d="M557.1695,-347.2637C540.8905,-323.3906 500.1142,-259.4746 486,-199 482.8686,-185.5828 485.5089,-181.769 486,-168 486.8895,-143.0636 475.9182,-132.599 490,-112 503.6204,-92.0759 528.2803,-80.5385 549.3265,-74.0011"/>
<polygon fill="#191970" stroke="#191970" points="550.3308,-77.3545 558.9958,-71.2579 548.4202,-70.6202 550.3308,-77.3545"/>
</g>
<!-- Node26&#45;&gt;Node23 -->
<g id="edge55" class="edge">
<title>Node26&#45;&gt;Node23</title>
<path fill="none" stroke="#191970" d="M552.8037,-347.2623C543.206,-338.4895 529.4699,-324.8741 520,-311 468.6595,-235.7824 439.6223,-128.8978 429.3229,-85.4689"/>
<polygon fill="#191970" stroke="#191970" points="432.7126,-84.5918 427.0569,-75.6329 425.8913,-86.1634 432.7126,-84.5918"/>
</g>
<!-- Node26&#45;&gt;Node25 -->
<g id="edge54" class="edge">
<title>Node26&#45;&gt;Node25</title>
<path fill="none" stroke="#191970" d="M564.7175,-347.4248C566.7724,-319.999 572.7117,-240.732 575.5092,-203.3964"/>
<polygon fill="#191970" stroke="#191970" points="579.0117,-203.4931 576.2687,-193.2595 572.0312,-202.97 579.0117,-203.4931"/>
</g>
<!-- Node27 -->
<g id="node28" class="node">
<title>Node27</title>
<g id="a_node28"><a xlink:href="Position_8h.html" target="_top" xlink:title="Position.h">
<polygon fill="none" stroke="#000000" points="892.5,-291.5 892.5,-310.5 957.5,-310.5 957.5,-291.5 892.5,-291.5"/>
<text text-anchor="middle" x="925" y="-298.5" font-family="FreeSans.ttf" font-size="10.00" fill="#000000">Position.h</text>
</a>
</g>
</g>
<!-- Node26&#45;&gt;Node27 -->
<g id="edge40" class="edge">
<title>Node26&#45;&gt;Node27</title>
<path fill="none" stroke="#191970" d="M625.6479,-347.4369C698.7087,-336.1034 818.5363,-317.5151 882.1682,-307.6443"/>
<polygon fill="#191970" stroke="#191970" points="882.9099,-311.0712 892.2551,-306.0795 881.8368,-304.1539 882.9099,-311.0712"/>
</g>
<!-- Node29 -->
<g id="node30" class="node">
<title>Node29</title>
<g id="a_node30"><a xlink:href="Rotation_8h.html" target="_top" xlink:title="iDynTree/Core/Rotation.h">
<polygon fill="none" stroke="#000000" points="801.5,-235.5 801.5,-254.5 938.5,-254.5 938.5,-235.5 801.5,-235.5"/>
<text text-anchor="middle" x="870" y="-242.5" font-family="FreeSans.ttf" font-size="10.00" fill="#000000">iDynTree/Core/Rotation.h</text>
</a>
</g>
</g>
<!-- Node26&#45;&gt;Node29 -->
<g id="edge52" class="edge">
<title>Node26&#45;&gt;Node29</title>
<path fill="none" stroke="#191970" d="M593.8081,-347.4517C621.6574,-338.4221 664.3259,-324.3093 701,-311 748.6991,-293.6895 803.2898,-272.0294 837.2095,-258.349"/>
<polygon fill="#191970" stroke="#191970" points="838.6646,-261.536 846.6236,-254.5428 836.0408,-255.0463 838.6646,-261.536"/>
</g>
<!-- Node27&#45;&gt;Node16 -->
<g id="edge51" class="edge">
<title>Node27&#45;&gt;Node16</title>
<path fill="none" stroke="#191970" d="M957.5189,-297.9911C1013.976,-291.0066 1130.1852,-268.5604 1194,-199 1222.7842,-167.6242 1223.8649,-114.1414 1222.0262,-85.4887"/>
<polygon fill="#191970" stroke="#191970" points="1225.5124,-85.1771 1221.1976,-75.5008 1218.5364,-85.7559 1225.5124,-85.1771"/>
</g>
<!-- Node28 -->
<g id="node29" class="node">
<title>Node28</title>
<g id="a_node29"><a xlink:href="PositionRaw_8h.html" target="_top" xlink:title="iDynTree/Core/PositionRaw.h">
<polygon fill="none" stroke="#000000" points="1005,-174 1005,-193 1161,-193 1161,-174 1005,-174"/>
<text text-anchor="middle" x="1083" y="-181" font-family="FreeSans.ttf" font-size="10.00" fill="#000000">iDynTree/Core/PositionRaw.h</text>
</a>
</g>
</g>
<!-- Node27&#45;&gt;Node28 -->
<g id="edge41" class="edge">
<title>Node27&#45;&gt;Node28</title>
<path fill="none" stroke="#191970" d="M937.9298,-291.3845C965.1273,-271.1585 1028.4806,-224.0445 1061.7426,-199.3085"/>
<polygon fill="#191970" stroke="#191970" points="1063.9558,-202.0244 1069.8915,-193.2484 1059.7786,-196.4074 1063.9558,-202.0244"/>
</g>
<!-- Node27&#45;&gt;Node29 -->
<g id="edge44" class="edge">
<title>Node27&#45;&gt;Node29</title>
<path fill="none" stroke="#191970" d="M915.4197,-291.2455C907.4542,-283.1352 895.9359,-271.4075 886.4921,-261.7919"/>
<polygon fill="#191970" stroke="#191970" points="888.9747,-259.3247 879.4705,-254.6427 883.9805,-264.2297 888.9747,-259.3247"/>
</g>
<!-- Node28&#45;&gt;Node16 -->
<g id="edge43" class="edge">
<title>Node28&#45;&gt;Node16</title>
<path fill="none" stroke="#191970" d="M1094.2113,-173.8845C1117.5932,-153.8306 1171.7941,-107.3445 1200.826,-82.4449"/>
<polygon fill="#191970" stroke="#191970" points="1203.3218,-84.9153 1208.6338,-75.7484 1198.7646,-79.6019 1203.3218,-84.9153"/>
</g>
<!-- Node28&#45;&gt;Node17 -->
<g id="edge42" class="edge">
<title>Node28&#45;&gt;Node17</title>
<path fill="none" stroke="#191970" d="M1032.7305,-173.9581C975.0631,-163.012 880.567,-145.0752 819.0722,-133.4026"/>
<polygon fill="#191970" stroke="#191970" points="819.5982,-129.94 809.1209,-131.5137 818.2927,-136.8172 819.5982,-129.94"/>
</g>
<!-- Node29&#45;&gt;Node16 -->
<g id="edge45" class="edge">
<title>Node29&#45;&gt;Node16</title>
<path fill="none" stroke="#191970" d="M938.7587,-242.3743C1016.1123,-238.0828 1135.4768,-227.0133 1170,-199 1188.0702,-184.3372 1206.6634,-119.046 1215.1935,-85.7169"/>
<polygon fill="#191970" stroke="#191970" points="1218.6531,-86.3092 1217.6852,-75.7587 1211.8625,-84.61 1218.6531,-86.3092"/>
</g>
<!-- Node29&#45;&gt;Node17 -->
<g id="edge50" class="edge">
<title>Node29&#45;&gt;Node17</title>
<path fill="none" stroke="#191970" d="M907.682,-235.3393C926.2713,-228.4646 947.0152,-217.137 958,-199 965.1375,-187.2151 966.5754,-178.7838 958,-168 944.0438,-150.4497 895.3091,-139.0132 849.5648,-131.9331"/>
<polygon fill="#191970" stroke="#191970" points="849.9648,-128.4542 839.5586,-130.4442 848.9345,-135.3779 849.9648,-128.4542"/>
</g>
<!-- Node29&#45;&gt;Node25 -->
<g id="edge46" class="edge">
<title>Node29&#45;&gt;Node25</title>
<path fill="none" stroke="#191970" d="M824.5402,-235.4581C772.7886,-224.5956 688.2388,-206.8488 632.6038,-195.1711"/>
<polygon fill="#191970" stroke="#191970" points="633.0722,-191.6932 622.5664,-193.0643 631.6342,-198.5439 633.0722,-191.6932"/>
</g>
<!-- Node30 -->
<g id="node31" class="node">
<title>Node30</title>
<g id="a_node31"><a xlink:href="RotationRaw_8h.html" target="_top" xlink:title="iDynTree/Core/RotationRaw.h">
<polygon fill="none" stroke="#000000" points="791,-174 791,-193 949,-193 949,-174 791,-174"/>
<text text-anchor="middle" x="870" y="-181" font-family="FreeSans.ttf" font-size="10.00" fill="#000000">iDynTree/Core/RotationRaw.h</text>
</a>
</g>
</g>
<!-- Node29&#45;&gt;Node30 -->
<g id="edge47" class="edge">
<title>Node29&#45;&gt;Node30</title>
<path fill="none" stroke="#191970" d="M870,-235.3906C870,-226.8657 870,-214.1392 870,-203.4235"/>
<polygon fill="#191970" stroke="#191970" points="873.5001,-203.2448 870,-193.2449 866.5001,-203.2449 873.5001,-203.2448"/>
</g>
<!-- Node30&#45;&gt;Node16 -->
<g id="edge49" class="edge">
<title>Node30&#45;&gt;Node16</title>
<path fill="none" stroke="#191970" d="M898.3455,-173.984C962.8945,-152.314 1120.4699,-99.4137 1188.2012,-76.6753"/>
<polygon fill="#191970" stroke="#191970" points="1189.5309,-79.9209 1197.8971,-73.4203 1187.3031,-73.2849 1189.5309,-79.9209"/>
</g>
<!-- Node30&#45;&gt;Node22 -->
<g id="edge48" class="edge">
<title>Node30&#45;&gt;Node22</title>
<path fill="none" stroke="#191970" d="M825.0057,-173.9581C773.784,-163.0956 690.0999,-145.3488 635.0345,-133.6711"/>
<polygon fill="#191970" stroke="#191970" points="635.6084,-130.2151 625.0999,-131.5643 634.1562,-137.0628 635.6084,-130.2151"/>
</g>
<!-- Node31&#45;&gt;Node17 -->
<g id="edge58" class="edge">
<title>Node31&#45;&gt;Node17</title>
<path fill="none" stroke="#191970" d="M500.7992,-403.4754C488.4438,-394.5868 474.7893,-382.1078 468,-367 443.0886,-311.5659 286.8077,-380.9439 486,-168 492.6873,-160.8511 601.4504,-144.1683 679.6455,-132.9835"/>
<polygon fill="#191970" stroke="#191970" points="680.5744,-136.3866 689.981,-131.5115 679.5874,-129.4565 680.5744,-136.3866"/>
</g>
<!-- Node31&#45;&gt;Node25 -->
<g id="edge59" class="edge">
<title>Node31&#45;&gt;Node25</title>
<path fill="none" stroke="#191970" d="M503.8886,-403.3604C492.6544,-394.2809 480.1134,-381.6588 474,-367 470.5785,-358.796 471.5343,-355.5401 474,-347 491.1205,-287.7035 536.8263,-229.1956 561.1916,-200.9651"/>
<polygon fill="#191970" stroke="#191970" points="564.0372,-203.0293 568.0128,-193.2086 558.7807,-198.4066 564.0372,-203.0293"/>
</g>
<!-- Node31&#45;&gt;Node26 -->
<g id="edge60" class="edge">
<title>Node31&#45;&gt;Node26</title>
<path fill="none" stroke="#191970" d="M535.3933,-403.2977C540.6131,-394.8498 547.1457,-384.2773 552.65,-375.369"/>
<polygon fill="#191970" stroke="#191970" points="555.6368,-377.1938 557.9157,-366.8469 549.6818,-373.5143 555.6368,-377.1938"/>
</g>
<!-- Node32&#45;&gt;Node16 -->
<g id="edge65" class="edge">
<title>Node32&#45;&gt;Node16</title>
<path fill="none" stroke="#191970" d="M937.0361,-347.7815C1021.2369,-332.8163 1155.9832,-294.5463 1218,-199 1239.45,-165.9531 1241.1837,-150.9096 1235,-112 1233.5699,-103.0016 1230.6588,-93.3703 1227.7784,-85.2579"/>
<polygon fill="#191970" stroke="#191970" points="1230.9537,-83.7599 1224.1368,-75.6493 1224.408,-86.2407 1230.9537,-83.7599"/>
</g>
<!-- Node32&#45;&gt;Node22 -->
<g id="edge64" class="edge">
<title>Node32&#45;&gt;Node22</title>
<path fill="none" stroke="#191970" d="M855.7605,-347.3835C830.1009,-317.8384 748.4547,-226.8331 667,-168 649.5874,-155.4232 628.2954,-144.1053 611.1337,-135.843"/>
<polygon fill="#191970" stroke="#191970" points="612.6135,-132.6712 602.0751,-131.5786 609.632,-139.0045 612.6135,-132.6712"/>
</g>
<!-- Node32&#45;&gt;Node27 -->
<g id="edge62" class="edge">
<title>Node32&#45;&gt;Node27</title>
<path fill="none" stroke="#191970" d="M874.6254,-347.2455C883.5473,-339.0549 896.488,-327.1749 907.0192,-317.5069"/>
<polygon fill="#191970" stroke="#191970" points="909.4968,-319.9837 914.4964,-310.6427 904.7629,-314.8271 909.4968,-319.9837"/>
</g>
<!-- Node32&#45;&gt;Node29 -->
<g id="edge63" class="edge">
<title>Node32&#45;&gt;Node29</title>
<path fill="none" stroke="#191970" d="M864.5116,-347.4509C865.4901,-329.184 867.6453,-288.9553 868.9448,-264.6976"/>
<polygon fill="#191970" stroke="#191970" points="872.4497,-264.6978 869.4897,-254.5249 865.4597,-264.3233 872.4497,-264.6978"/>
</g>
<!-- Node33&#45;&gt;Node16 -->
<g id="edge71" class="edge">
<title>Node33&#45;&gt;Node16</title>
<path fill="none" stroke="#191970" d="M1555.1279,-168.3549C1535.7621,-151.8347 1502.3561,-125.8965 1469,-112 1395.4331,-81.3513 1301.1892,-71.0424 1252.4468,-67.6357"/>
<polygon fill="#191970" stroke="#191970" points="1252.4013,-64.1256 1242.197,-66.9753 1251.9512,-71.1111 1252.4013,-64.1256"/>
</g>
<!-- Node34 -->
<g id="node35" class="node">
<title>Node34</title>
<polygon fill="none" stroke="#bfbfbf" points="1577,-.5 1577,-19.5 1635,-19.5 1635,-.5 1577,-.5"/>
<text text-anchor="middle" x="1606" y="-7.5" font-family="FreeSans.ttf" font-size="10.00" fill="#000000">memory</text>
</g>
<!-- Node33&#45;&gt;Node34 -->
<g id="edge70" class="edge">
<title>Node33&#45;&gt;Node34</title>
<path fill="none" stroke="#191970" d="M1609.6912,-168.3598C1625.0961,-160.0741 1641.3118,-148.1476 1650,-132 1668.9082,-96.8579 1640.5457,-51.8993 1621.3026,-27.5605"/>
<polygon fill="#191970" stroke="#191970" points="1623.7901,-25.0754 1614.7302,-19.5829 1618.3875,-29.5265 1623.7901,-25.0754"/>
</g>
<!-- Node35 -->
<g id="node36" class="node">
<title>Node35</title>
<g id="a_node36"><a xlink:href="Optimizer_8h.html" target="_top" xlink:title="iDynTree/Optimizer.h">
<polygon fill="none" stroke="#000000" points="1521.5,-112.5 1521.5,-131.5 1640.5,-131.5 1640.5,-112.5 1521.5,-112.5"/>
<text text-anchor="middle" x="1581" y="-119.5" font-family="FreeSans.ttf" font-size="10.00" fill="#000000">iDynTree/Optimizer.h</text>
</a>
</g>
</g>
<!-- Node33&#45;&gt;Node35 -->
<g id="edge72" class="edge">
<title>Node33&#45;&gt;Node35</title>
<path fill="none" stroke="#191970" d="M1574.2247,-168.2977C1575.3959,-160.2945 1576.8462,-150.3843 1578.1041,-141.7889"/>
<polygon fill="#191970" stroke="#191970" points="1581.574,-142.2484 1579.559,-131.8469 1574.6478,-141.2347 1581.574,-142.2484"/>
</g>
<!-- Node35&#45;&gt;Node34 -->
<g id="edge73" class="edge">
<title>Node35&#45;&gt;Node34</title>
<path fill="none" stroke="#191970" d="M1583.1315,-112.4509C1587.2274,-94.1013 1596.2699,-53.5908 1601.6765,-29.3693"/>
<polygon fill="#191970" stroke="#191970" points="1605.1112,-30.0472 1603.8739,-19.5249 1598.2794,-28.5222 1605.1112,-30.0472"/>
</g>
<!-- Node36 -->
<g id="node37" class="node">
<title>Node36</title>
<g id="a_node37"><a xlink:href="OptimizationProblem_8h.html" target="_top" xlink:title="iDynTree/OptimizationProblem.h">
<polygon fill="none" stroke="#000000" points="1402.5,-56.5 1402.5,-75.5 1577.5,-75.5 1577.5,-56.5 1402.5,-56.5"/>
<text text-anchor="middle" x="1490" y="-63.5" font-family="FreeSans.ttf" font-size="10.00" fill="#000000">iDynTree/OptimizationProblem.h</text>
</a>
</g>
</g>
<!-- Node35&#45;&gt;Node36 -->
<g id="edge74" class="edge">
<title>Node35&#45;&gt;Node36</title>
<path fill="none" stroke="#191970" d="M1565.149,-112.2455C1551.1868,-103.6534 1530.6272,-91.0014 1514.5404,-81.1018"/>
<polygon fill="#191970" stroke="#191970" points="1516.0203,-77.9029 1505.6693,-75.6427 1512.3516,-83.8645 1516.0203,-77.9029"/>
</g>
<!-- Node36&#45;&gt;Node10 -->
<g id="edge77" class="edge">
<title>Node36&#45;&gt;Node10</title>
<path fill="none" stroke="#191970" d="M1425.449,-56.4369C1345.7518,-44.6299 1212.9086,-24.9494 1148.8145,-15.454"/>
<polygon fill="#191970" stroke="#191970" points="1149.1753,-11.9693 1138.7703,-13.966 1148.1494,-18.8938 1149.1753,-11.9693"/>
</g>
<!-- Node36&#45;&gt;Node34 -->
<g id="edge76" class="edge">
<title>Node36&#45;&gt;Node34</title>
<path fill="none" stroke="#191970" d="M1509.9411,-56.3733C1528.4786,-47.4241 1556.3028,-33.9917 1577.2413,-23.8835"/>
<polygon fill="#191970" stroke="#191970" points="1578.8352,-27.0006 1586.3191,-19.5011 1575.7919,-20.6967 1578.8352,-27.0006"/>
</g>
<!-- Node37 -->
<g id="node38" class="node">
<title>Node37</title>
<polygon fill="none" stroke="#bfbfbf" points="1466.5,-.5 1466.5,-19.5 1513.5,-19.5 1513.5,-.5 1466.5,-.5"/>
<text text-anchor="middle" x="1490" y="-7.5" font-family="FreeSans.ttf" font-size="10.00" fill="#000000">vector</text>
</g>
<!-- Node36&#45;&gt;Node37 -->
<g id="edge75" class="edge">
<title>Node36&#45;&gt;Node37</title>
<path fill="none" stroke="#191970" d="M1490,-56.2455C1490,-48.9382 1490,-38.6944 1490,-29.7046"/>
<polygon fill="#191970" stroke="#191970" points="1493.5001,-29.6426 1490,-19.6427 1486.5001,-29.6427 1493.5001,-29.6426"/>
</g>
</g>
</svg>
