<?xml version="1.0" encoding="UTF-8" standalone="no"?>
<!DOCTYPE svg PUBLIC "-//W3C//DTD SVG 1.1//EN"
 "http://www.w3.org/Graphics/SVG/1.1/DTD/svg11.dtd">
<!-- Generated by graphviz version 2.40.1 (20161225.0304)
 -->
<!-- Title: JointElement.cpp Pages: 1 -->
<svg width="1909pt" height="554pt"
 viewBox="0.00 0.00 1909.05 554.00" xmlns="http://www.w3.org/2000/svg" xmlns:xlink="http://www.w3.org/1999/xlink">
<g id="graph0" class="graph" transform="scale(1 1) rotate(0) translate(4 550)">
<title>JointElement.cpp</title>
<!-- Node0 -->
<g id="node1" class="node">
<title>Node0</title>
<polygon fill="#bfbfbf" stroke="#000000" points="549.5536,-526.5 549.5536,-545.5 648.5536,-545.5 648.5536,-526.5 549.5536,-526.5"/>
<text text-anchor="middle" x="599.0536" y="-533.5" font-family="FreeSans.ttf" font-size="10.00" fill="#000000">JointElement.cpp</text>
</g>
<!-- Node1 -->
<g id="node2" class="node">
<title>Node1</title>
<g id="a_node2"><a xlink:href="JointElement_8h.html" target="_top" xlink:title="JointElement.h">
<polygon fill="none" stroke="#000000" points="589.0536,-398 589.0536,-417 677.0536,-417 677.0536,-398 589.0536,-398"/>
<text text-anchor="middle" x="633.0536" y="-405" font-family="FreeSans.ttf" font-size="10.00" fill="#000000">JointElement.h</text>
</a>
</g>
</g>
<!-- Node0&#45;&gt;Node1 -->
<g id="edge1" class="edge">
<title>Node0&#45;&gt;Node1</title>
<path fill="none" stroke="#191970" d="M601.2674,-526.4842C604.6885,-511.9089 611.5466,-483.2001 618.0536,-459 620.8998,-448.4149 624.2997,-436.6765 627.1424,-427.083"/>
<polygon fill="#191970" stroke="#191970" points="630.5445,-427.9223 630.0561,-417.3387 623.8379,-425.9169 630.5445,-427.9223"/>
</g>
<!-- Node16 -->
<g id="node17" class="node">
<title>Node16</title>
<polygon fill="none" stroke="#bfbfbf" points="1859.0536,-.5 1859.0536,-19.5 1901.0536,-19.5 1901.0536,-.5 1859.0536,-.5"/>
<text text-anchor="middle" x="1880.0536" y="-7.5" font-family="FreeSans.ttf" font-size="10.00" fill="#000000">array</text>
</g>
<!-- Node0&#45;&gt;Node16 -->
<g id="edge101" class="edge">
<title>Node0&#45;&gt;Node16</title>
<path fill="none" stroke="#191970" d="M648.916,-533.6665C885.2297,-522.286 1881.0536,-470.5861 1881.0536,-407.5 1881.0536,-407.5 1881.0536,-407.5 1881.0536,-122 1881.0536,-89.7103 1880.6328,-52.1863 1880.3372,-29.8043"/>
<polygon fill="#191970" stroke="#191970" points="1883.834,-29.5391 1880.1969,-19.5881 1876.8346,-29.6353 1883.834,-29.5391"/>
</g>
<!-- Node32 -->
<g id="node33" class="node">
<title>Node32</title>
<g id="a_node33"><a xlink:href="OriginElement_8h.html" target="_top" xlink:title="OriginElement.h">
<polygon fill="none" stroke="#000000" points="437.5536,-398 437.5536,-417 532.5536,-417 532.5536,-398 437.5536,-398"/>
<text text-anchor="middle" x="485.0536" y="-405" font-family="FreeSans.ttf" font-size="10.00" fill="#000000">OriginElement.h</text>
</a>
</g>
</g>
<!-- Node0&#45;&gt;Node32 -->
<g id="edge58" class="edge">
<title>Node0&#45;&gt;Node32</title>
<path fill="none" stroke="#191970" d="M586.8632,-526.4067C575.905,-517.5143 559.645,-503.6382 547.0536,-490 527.9799,-469.3405 508.9915,-443.0064 497.1519,-425.7193"/>
<polygon fill="#191970" stroke="#191970" points="499.8535,-423.4659 491.3548,-417.1396 494.0534,-427.385 499.8535,-423.4659"/>
</g>
<!-- Node33 -->
<g id="node34" class="node">
<title>Node33</title>
<g id="a_node34"><a xlink:href="URDFParsingUtils_8h.html" target="_top" xlink:title="URDFParsingUtils.h">
<polygon fill="none" stroke="#000000" points="1555.0536,-398 1555.0536,-417 1665.0536,-417 1665.0536,-398 1555.0536,-398"/>
<text text-anchor="middle" x="1610.0536" y="-405" font-family="FreeSans.ttf" font-size="10.00" fill="#000000">URDFParsingUtils.h</text>
</a>
</g>
</g>
<!-- Node0&#45;&gt;Node33 -->
<g id="edge61" class="edge">
<title>Node0&#45;&gt;Node33</title>
<path fill="none" stroke="#191970" d="M648.7851,-529.97C784.8096,-513.4292 1174.4554,-465.7275 1498.0536,-423 1513.2194,-420.9975 1529.5306,-418.7779 1544.8844,-416.6588"/>
<polygon fill="#191970" stroke="#191970" points="1545.3887,-420.1225 1554.8142,-415.2841 1544.4287,-413.1886 1545.3887,-420.1225"/>
</g>
<!-- Node37 -->
<g id="node38" class="node">
<title>Node37</title>
<g id="a_node38"><a xlink:href="XMLAttribute_8h.html" target="_top" xlink:title="iDynTree/XMLAttribute.h">
<polygon fill="none" stroke="#000000" points="447.0536,-224.5 447.0536,-243.5 581.0536,-243.5 581.0536,-224.5 447.0536,-224.5"/>
<text text-anchor="middle" x="514.0536" y="-231.5" font-family="FreeSans.ttf" font-size="10.00" fill="#000000">iDynTree/XMLAttribute.h</text>
</a>
</g>
</g>
<!-- Node0&#45;&gt;Node37 -->
<g id="edge70" class="edge">
<title>Node0&#45;&gt;Node37</title>
<path fill="none" stroke="#191970" d="M596.3218,-526.294C584.2821,-483.5176 535.8315,-311.3756 519.4767,-253.2681"/>
<polygon fill="#191970" stroke="#191970" points="522.8113,-252.197 516.7329,-243.5193 516.0731,-254.0936 522.8113,-252.197"/>
</g>
<!-- Node38 -->
<g id="node39" class="node">
<title>Node38</title>
<g id="a_node39"><a xlink:href="IJoint_8h.html" target="_top" xlink:title="iDynTree/Model/IJoint.h">
<polygon fill="none" stroke="#000000" points="39.0536,-336.5 39.0536,-355.5 167.0536,-355.5 167.0536,-336.5 39.0536,-336.5"/>
<text text-anchor="middle" x="103.0536" y="-343.5" font-family="FreeSans.ttf" font-size="10.00" fill="#000000">iDynTree/Model/IJoint.h</text>
</a>
</g>
</g>
<!-- Node0&#45;&gt;Node38 -->
<g id="edge72" class="edge">
<title>Node0&#45;&gt;Node38</title>
<path fill="none" stroke="#191970" d="M549.1432,-534.4774C418.7827,-529.3295 73.4908,-507.7939 6.0536,-423 -2.5224,-412.2167 -1.3115,-403.644 6.0536,-392 15.8397,-376.5285 32.3958,-366.1575 49.0863,-359.2507"/>
<polygon fill="#191970" stroke="#191970" points="50.7484,-362.3652 58.8788,-355.572 48.2867,-355.8123 50.7484,-362.3652"/>
</g>
<!-- Node40 -->
<g id="node41" class="node">
<title>Node40</title>
<g id="a_node41"><a xlink:href="FixedJoint_8h.html" target="_top" xlink:title="iDynTree/Model/FixedJoint.h">
<polygon fill="none" stroke="#000000" points="15.5536,-398 15.5536,-417 166.5536,-417 166.5536,-398 15.5536,-398"/>
<text text-anchor="middle" x="91.0536" y="-405" font-family="FreeSans.ttf" font-size="10.00" fill="#000000">iDynTree/Model/FixedJoint.h</text>
</a>
</g>
</g>
<!-- Node0&#45;&gt;Node40 -->
<g id="edge75" class="edge">
<title>Node0&#45;&gt;Node40</title>
<path fill="none" stroke="#191970" d="M561.2861,-526.4466C470.2513,-503.4191 238.8432,-444.8838 138.5797,-419.5219"/>
<polygon fill="#191970" stroke="#191970" points="139.2775,-416.0882 128.7245,-417.029 137.5609,-422.8745 139.2775,-416.0882"/>
</g>
<!-- Node41 -->
<g id="node42" class="node">
<title>Node41</title>
<g id="a_node42"><a xlink:href="PrismaticJoint_8h.html" target="_top" xlink:title="iDynTree/Model/Prismatic\lJoint.h">
<polygon fill="none" stroke="#000000" points="627.0536,-459.5 627.0536,-489.5 767.0536,-489.5 767.0536,-459.5 627.0536,-459.5"/>
<text text-anchor="start" x="635.0536" y="-477.5" font-family="FreeSans.ttf" font-size="10.00" fill="#000000">iDynTree/Model/Prismatic</text>
<text text-anchor="middle" x="697.0536" y="-466.5" font-family="FreeSans.ttf" font-size="10.00" fill="#000000">Joint.h</text>
</a>
</g>
</g>
<!-- Node0&#45;&gt;Node41 -->
<g id="edge79" class="edge">
<title>Node0&#45;&gt;Node41</title>
<path fill="none" stroke="#191970" d="M614.3661,-526.3906C627.752,-517.9903 647.6389,-505.5103 664.555,-494.8945"/>
<polygon fill="#191970" stroke="#191970" points="666.4703,-497.8248 673.0801,-489.5446 662.7494,-491.8956 666.4703,-497.8248"/>
</g>
<!-- Node45 -->
<g id="node46" class="node">
<title>Node45</title>
<g id="a_node46"><a xlink:href="RevoluteJoint_8h.html" target="_top" xlink:title="iDynTree/Model/RevoluteJoint.h">
<polygon fill="none" stroke="#000000" points="785.0536,-465 785.0536,-484 953.0536,-484 953.0536,-465 785.0536,-465"/>
<text text-anchor="middle" x="869.0536" y="-472" font-family="FreeSans.ttf" font-size="10.00" fill="#000000">iDynTree/Model/RevoluteJoint.h</text>
</a>
</g>
</g>
<!-- Node0&#45;&gt;Node45 -->
<g id="edge95" class="edge">
<title>Node0&#45;&gt;Node45</title>
<path fill="none" stroke="#191970" d="M640.9449,-526.4581C688.4362,-515.6406 765.9008,-497.9959 817.1751,-486.3168"/>
<polygon fill="#191970" stroke="#191970" points="818.0911,-489.6978 827.0641,-484.0643 816.5365,-482.8727 818.0911,-489.6978"/>
</g>
<!-- Node2 -->
<g id="node3" class="node">
<title>Node2</title>
<g id="a_node3"><a xlink:href="XMLElement_8h.html" target="_top" xlink:title="iDynTree/XMLElement.h">
<polygon fill="none" stroke="#000000" points="363.0536,-336.5 363.0536,-355.5 495.0536,-355.5 495.0536,-336.5 363.0536,-336.5"/>
<text text-anchor="middle" x="429.0536" y="-343.5" font-family="FreeSans.ttf" font-size="10.00" fill="#000000">iDynTree/XMLElement.h</text>
</a>
</g>
</g>
<!-- Node1&#45;&gt;Node2 -->
<g id="edge2" class="edge">
<title>Node1&#45;&gt;Node2</title>
<path fill="none" stroke="#191970" d="M601.1786,-397.8906C565.9977,-387.2846 509.2448,-370.1753 470.6021,-358.5257"/>
<polygon fill="#191970" stroke="#191970" points="471.2894,-355.0773 460.7048,-355.5419 469.2689,-361.7794 471.2894,-355.0773"/>
</g>
<!-- Node4 -->
<g id="node5" class="node">
<title>Node4</title>
<polygon fill="none" stroke="#bfbfbf" points="447.0536,-280.5 447.0536,-299.5 505.0536,-299.5 505.0536,-280.5 447.0536,-280.5"/>
<text text-anchor="middle" x="476.0536" y="-287.5" font-family="FreeSans.ttf" font-size="10.00" fill="#000000">memory</text>
</g>
<!-- Node1&#45;&gt;Node4 -->
<g id="edge55" class="edge">
<title>Node1&#45;&gt;Node4</title>
<path fill="none" stroke="#191970" d="M620.2056,-397.8845C593.1803,-377.6585 530.228,-330.5445 497.1764,-305.8085"/>
<polygon fill="#191970" stroke="#191970" points="499.1824,-302.9381 489.0791,-299.7484 494.9881,-308.5424 499.1824,-302.9381"/>
</g>
<!-- Node5 -->
<g id="node6" class="node">
<title>Node5</title>
<polygon fill="none" stroke="#bfbfbf" points="705.0536,-56.5 705.0536,-75.5 749.0536,-75.5 749.0536,-56.5 705.0536,-56.5"/>
<text text-anchor="middle" x="727.0536" y="-63.5" font-family="FreeSans.ttf" font-size="10.00" fill="#000000">string</text>
</g>
<!-- Node1&#45;&gt;Node5 -->
<g id="edge56" class="edge">
<title>Node1&#45;&gt;Node5</title>
<path fill="none" stroke="#191970" d="M632.1848,-397.9857C628.2488,-352.8636 613.6042,-160.6033 645.0536,-112 656.5759,-94.1929 677.5268,-82.6116 695.3666,-75.5237"/>
<polygon fill="#191970" stroke="#191970" points="696.6933,-78.7652 704.8778,-72.0373 694.2841,-72.1928 696.6933,-78.7652"/>
</g>
<!-- Node6 -->
<g id="node7" class="node">
<title>Node6</title>
<polygon fill="none" stroke="#bfbfbf" points="214.5536,-280.5 214.5536,-299.5 307.5536,-299.5 307.5536,-280.5 214.5536,-280.5"/>
<text text-anchor="middle" x="261.0536" y="-287.5" font-family="FreeSans.ttf" font-size="10.00" fill="#000000">unordered_map</text>
</g>
<!-- Node1&#45;&gt;Node6 -->
<g id="edge57" class="edge">
<title>Node1&#45;&gt;Node6</title>
<path fill="none" stroke="#191970" d="M588.8313,-399.8518C512.9042,-386.6477 364.8148,-360.548 354.0536,-356 338.7722,-349.5416 303.6422,-323.2539 281.2004,-305.8672"/>
<polygon fill="#191970" stroke="#191970" points="283.327,-303.0872 273.2884,-299.6993 279.0232,-308.6079 283.327,-303.0872"/>
</g>
<!-- Node8 -->
<g id="node9" class="node">
<title>Node8</title>
<g id="a_node9"><a xlink:href="Axis_8h.html" target="_top" xlink:title="iDynTree/Core/Axis.h">
<polygon fill="none" stroke="#000000" points="665.0536,-336.5 665.0536,-355.5 783.0536,-355.5 783.0536,-336.5 665.0536,-336.5"/>
<text text-anchor="middle" x="724.0536" y="-343.5" font-family="FreeSans.ttf" font-size="10.00" fill="#000000">iDynTree/Core/Axis.h</text>
</a>
</g>
</g>
<!-- Node1&#45;&gt;Node8 -->
<g id="edge8" class="edge">
<title>Node1&#45;&gt;Node8</title>
<path fill="none" stroke="#191970" d="M647.2723,-397.8906C661.6969,-388.1421 684.2512,-372.8994 701.1896,-361.4521"/>
<polygon fill="#191970" stroke="#191970" points="703.6092,-364.0412 709.9347,-355.5419 699.6895,-358.2415 703.6092,-364.0412"/>
</g>
<!-- Node31 -->
<g id="node32" class="node">
<title>Node31</title>
<g id="a_node32"><a xlink:href="Transform_8h.html" target="_top" xlink:title="iDynTree/Core/Transform.h">
<polygon fill="none" stroke="#000000" points="801.0536,-336.5 801.0536,-355.5 947.0536,-355.5 947.0536,-336.5 801.0536,-336.5"/>
<text text-anchor="middle" x="874.0536" y="-343.5" font-family="FreeSans.ttf" font-size="10.00" fill="#000000">iDynTree/Core/Transform.h</text>
</a>
</g>
</g>
<!-- Node1&#45;&gt;Node31 -->
<g id="edge50" class="edge">
<title>Node1&#45;&gt;Node31</title>
<path fill="none" stroke="#191970" d="M670.4454,-397.9581C712.4826,-387.2308 780.8296,-369.7895 826.5982,-358.11"/>
<polygon fill="#191970" stroke="#191970" points="827.75,-361.4283 836.574,-355.5643 826.0191,-354.6457 827.75,-361.4283"/>
</g>
<!-- Node3 -->
<g id="node4" class="node">
<title>Node3</title>
<polygon fill="none" stroke="#bfbfbf" points="325.5536,-280.5 325.5536,-299.5 390.5536,-299.5 390.5536,-280.5 325.5536,-280.5"/>
<text text-anchor="middle" x="358.0536" y="-287.5" font-family="FreeSans.ttf" font-size="10.00" fill="#000000">functional</text>
</g>
<!-- Node2&#45;&gt;Node3 -->
<g id="edge3" class="edge">
<title>Node2&#45;&gt;Node3</title>
<path fill="none" stroke="#191970" d="M416.6863,-336.2455C406.0982,-327.8943 390.6472,-315.7076 378.2643,-305.9408"/>
<polygon fill="#191970" stroke="#191970" points="380.2983,-303.0875 370.2791,-299.6427 375.9633,-308.5837 380.2983,-303.0875"/>
</g>
<!-- Node2&#45;&gt;Node4 -->
<g id="edge4" class="edge">
<title>Node2&#45;&gt;Node4</title>
<path fill="none" stroke="#191970" d="M437.2404,-336.2455C443.9125,-328.2958 453.5015,-316.8706 461.4789,-307.3656"/>
<polygon fill="#191970" stroke="#191970" points="464.2128,-309.5525 467.9606,-299.6427 458.851,-305.0524 464.2128,-309.5525"/>
</g>
<!-- Node2&#45;&gt;Node5 -->
<g id="edge5" class="edge">
<title>Node2&#45;&gt;Node5</title>
<path fill="none" stroke="#191970" d="M427.6208,-336.4373C424.8557,-317.1257 419.0536,-272.0675 419.0536,-234 419.0536,-234 419.0536,-234 419.0536,-178 419.0536,-119.8542 615.3788,-83.1629 694.5428,-70.7315"/>
<polygon fill="#191970" stroke="#191970" points="695.551,-74.1177 704.903,-69.1387 694.4872,-67.199 695.551,-74.1177"/>
</g>
<!-- Node2&#45;&gt;Node6 -->
<g id="edge6" class="edge">
<title>Node2&#45;&gt;Node6</title>
<path fill="none" stroke="#191970" d="M400.1734,-336.3733C372.2375,-327.0613 329.7394,-312.8953 299.0667,-302.671"/>
<polygon fill="#191970" stroke="#191970" points="300.1506,-299.3431 289.557,-299.5011 297.937,-305.9839 300.1506,-299.3431"/>
</g>
<!-- Node7 -->
<g id="node8" class="node">
<title>Node7</title>
<polygon fill="none" stroke="#bfbfbf" points="561.5536,-280.5 561.5536,-299.5 608.5536,-299.5 608.5536,-280.5 561.5536,-280.5"/>
<text text-anchor="middle" x="585.0536" y="-287.5" font-family="FreeSans.ttf" font-size="10.00" fill="#000000">vector</text>
</g>
<!-- Node2&#45;&gt;Node7 -->
<g id="edge7" class="edge">
<title>Node2&#45;&gt;Node7</title>
<path fill="none" stroke="#191970" d="M455.871,-336.3733C482.3661,-326.8622 522.9677,-312.2872 551.5675,-302.0207"/>
<polygon fill="#191970" stroke="#191970" points="552.9108,-305.2572 561.1402,-298.5843 550.5457,-298.6688 552.9108,-305.2572"/>
</g>
<!-- Node8&#45;&gt;Node5 -->
<g id="edge9" class="edge">
<title>Node8&#45;&gt;Node5</title>
<path fill="none" stroke="#191970" d="M716.0367,-336.0654C690.101,-302.6456 612.6099,-191.9113 656.0536,-112 664.5128,-96.4399 680.7561,-85.3323 695.5733,-77.935"/>
<polygon fill="#191970" stroke="#191970" points="697.3827,-80.9555 705.0083,-73.6001 694.4603,-74.5947 697.3827,-80.9555"/>
</g>
<!-- Node9 -->
<g id="node10" class="node">
<title>Node9</title>
<g id="a_node10"><a xlink:href="Direction_8h.html" target="_top" xlink:title="iDynTree/Core/Direction.h">
<polygon fill="none" stroke="#000000" points="774.5536,-168.5 774.5536,-187.5 915.5536,-187.5 915.5536,-168.5 774.5536,-168.5"/>
<text text-anchor="middle" x="845.0536" y="-175.5" font-family="FreeSans.ttf" font-size="10.00" fill="#000000">iDynTree/Core/Direction.h</text>
</a>
</g>
</g>
<!-- Node8&#45;&gt;Node9 -->
<g id="edge10" class="edge">
<title>Node8&#45;&gt;Node9</title>
<path fill="none" stroke="#191970" d="M730.9058,-336.4862C750.3643,-309.4695 806.2036,-231.9405 831.8659,-196.3102"/>
<polygon fill="#191970" stroke="#191970" points="834.9709,-197.9879 837.9752,-187.8279 829.2908,-193.8968 834.9709,-197.9879"/>
</g>
<!-- Node11 -->
<g id="node12" class="node">
<title>Node11</title>
<g id="a_node12"><a xlink:href="Utils_8h.html" target="_top" xlink:title="iDynTree/Core/Utils.h">
<polygon fill="none" stroke="#000000" points="1212.5536,-56.5 1212.5536,-75.5 1331.5536,-75.5 1331.5536,-56.5 1212.5536,-56.5"/>
<text text-anchor="middle" x="1272.0536" y="-63.5" font-family="FreeSans.ttf" font-size="10.00" fill="#000000">iDynTree/Core/Utils.h</text>
</a>
</g>
</g>
<!-- Node8&#45;&gt;Node11 -->
<g id="edge49" class="edge">
<title>Node8&#45;&gt;Node11</title>
<path fill="none" stroke="#191970" d="M735.8188,-336.4398C776.7838,-303.281 913.3646,-193.8365 963.0536,-168 1048.0975,-123.7803 1156.1484,-93.37 1219.3506,-77.8887"/>
<polygon fill="#191970" stroke="#191970" points="1220.2009,-81.284 1229.0987,-75.5324 1218.5562,-74.48 1220.2009,-81.284"/>
</g>
<!-- Node24 -->
<g id="node25" class="node">
<title>Node24</title>
<g id="a_node25"><a xlink:href="Position_8h.html" target="_top" xlink:title="iDynTree/Core/Position.h">
<polygon fill="none" stroke="#000000" points="939.0536,-280.5 939.0536,-299.5 1075.0536,-299.5 1075.0536,-280.5 939.0536,-280.5"/>
<text text-anchor="middle" x="1007.0536" y="-287.5" font-family="FreeSans.ttf" font-size="10.00" fill="#000000">iDynTree/Core/Position.h</text>
</a>
</g>
</g>
<!-- Node8&#45;&gt;Node24 -->
<g id="edge30" class="edge">
<title>Node8&#45;&gt;Node24</title>
<path fill="none" stroke="#191970" d="M772.3815,-336.4369C821.2217,-326.7724 896.7212,-311.8326 948.83,-301.5213"/>
<polygon fill="#191970" stroke="#191970" points="949.7947,-304.8983 958.925,-299.5237 948.4358,-298.0315 949.7947,-304.8983"/>
</g>
<!-- Node9&#45;&gt;Node5 -->
<g id="edge11" class="edge">
<title>Node9&#45;&gt;Node5</title>
<path fill="none" stroke="#191970" d="M834.993,-168.4509C814.8766,-149.3574 769.4806,-106.2697 744.4442,-82.5063"/>
<polygon fill="#191970" stroke="#191970" points="746.7513,-79.8706 737.0887,-75.5249 741.9323,-84.9478 746.7513,-79.8706"/>
</g>
<!-- Node10 -->
<g id="node11" class="node">
<title>Node10</title>
<g id="a_node11"><a xlink:href="VectorFixSize_8h.html" target="_top" xlink:title="iDynTree/Core/VectorFixSize.h">
<polygon fill="none" stroke="#000000" points="1476.5536,-112.5 1476.5536,-131.5 1637.5536,-131.5 1637.5536,-112.5 1476.5536,-112.5"/>
<text text-anchor="middle" x="1557.0536" y="-119.5" font-family="FreeSans.ttf" font-size="10.00" fill="#000000">iDynTree/Core/VectorFixSize.h</text>
</a>
</g>
</g>
<!-- Node9&#45;&gt;Node10 -->
<g id="edge12" class="edge">
<title>Node9&#45;&gt;Node10</title>
<path fill="none" stroke="#191970" d="M915.8623,-171.8442C931.4071,-170.5361 947.7831,-169.1913 963.0536,-168 1184.0999,-150.7555 1242.2874,-152.5101 1466.4308,-132.1195"/>
<polygon fill="#191970" stroke="#191970" points="1466.8987,-135.5915 1476.5384,-131.1953 1466.2612,-128.6205 1466.8987,-135.5915"/>
</g>
<!-- Node9&#45;&gt;Node11 -->
<g id="edge29" class="edge">
<title>Node9&#45;&gt;Node11</title>
<path fill="none" stroke="#191970" d="M853.919,-168.4285C868.3091,-153.5718 898.3498,-125.2909 930.0536,-112 977.7707,-91.996 1116.7912,-78.0448 1202.1834,-71.0853"/>
<polygon fill="#191970" stroke="#191970" points="1202.6337,-74.5605 1212.3215,-70.2713 1202.0734,-67.583 1202.6337,-74.5605"/>
</g>
<!-- Node10&#45;&gt;Node5 -->
<g id="edge25" class="edge">
<title>Node10&#45;&gt;Node5</title>
<path fill="none" stroke="#191970" d="M1476.5414,-112.7715C1473.6779,-112.5013 1470.8418,-112.243 1468.0536,-112 1194.2845,-88.1371 862.5588,-72.1158 759.3011,-67.4261"/>
<polygon fill="#191970" stroke="#191970" points="759.3571,-63.9252 749.2095,-66.9709 759.0417,-70.9181 759.3571,-63.9252"/>
</g>
<!-- Node10&#45;&gt;Node11 -->
<g id="edge13" class="edge">
<title>Node10&#45;&gt;Node11</title>
<path fill="none" stroke="#191970" d="M1508.3842,-112.4369C1459.0963,-102.7522 1382.8488,-87.7703 1330.361,-77.4569"/>
<polygon fill="#191970" stroke="#191970" points="1331.0095,-74.0175 1320.5223,-75.5237 1329.6598,-80.8861 1331.0095,-74.0175"/>
</g>
<!-- Node13 -->
<g id="node14" class="node">
<title>Node13</title>
<g id="a_node14"><a xlink:href="Span_8h.html" target="_top" xlink:title="iDynTree/Core/Span.h">
<polygon fill="none" stroke="#000000" points="1496.5536,-56.5 1496.5536,-75.5 1617.5536,-75.5 1617.5536,-56.5 1496.5536,-56.5"/>
<text text-anchor="middle" x="1557.0536" y="-63.5" font-family="FreeSans.ttf" font-size="10.00" fill="#000000">iDynTree/Core/Span.h</text>
</a>
</g>
</g>
<!-- Node10&#45;&gt;Node13 -->
<g id="edge15" class="edge">
<title>Node10&#45;&gt;Node13</title>
<path fill="none" stroke="#191970" d="M1557.0536,-112.2455C1557.0536,-104.9382 1557.0536,-94.6944 1557.0536,-85.7046"/>
<polygon fill="#191970" stroke="#191970" points="1560.5537,-85.6426 1557.0536,-75.6427 1553.5537,-85.6427 1560.5537,-85.6426"/>
</g>
<!-- Node14 -->
<g id="node15" class="node">
<title>Node14</title>
<polygon fill="none" stroke="#bfbfbf" points="1336.0536,-.5 1336.0536,-19.5 1388.0536,-19.5 1388.0536,-.5 1336.0536,-.5"/>
<text text-anchor="middle" x="1362.0536" y="-7.5" font-family="FreeSans.ttf" font-size="10.00" fill="#000000">cassert</text>
</g>
<!-- Node10&#45;&gt;Node14 -->
<g id="edge27" class="edge">
<title>Node10&#45;&gt;Node14</title>
<path fill="none" stroke="#191970" d="M1541.8517,-112.2972C1521.1073,-99.1523 1482.6645,-75.1311 1449.0536,-56 1429.5091,-44.8754 1407.0632,-33.0298 1389.8663,-24.1456"/>
<polygon fill="#191970" stroke="#191970" points="1391.3981,-20.9977 1380.9043,-19.538 1388.1974,-27.2231 1391.3981,-20.9977"/>
</g>
<!-- Node22 -->
<g id="node23" class="node">
<title>Node22</title>
<polygon fill="none" stroke="#bfbfbf" points="1714.0536,-56.5 1714.0536,-75.5 1770.0536,-75.5 1770.0536,-56.5 1714.0536,-56.5"/>
<text text-anchor="middle" x="1742.0536" y="-63.5" font-family="FreeSans.ttf" font-size="10.00" fill="#000000">sstream</text>
</g>
<!-- Node10&#45;&gt;Node22 -->
<g id="edge26" class="edge">
<title>Node10&#45;&gt;Node22</title>
<path fill="none" stroke="#191970" d="M1588.8562,-112.3733C1620.9196,-102.6676 1670.4034,-87.6887 1704.4061,-77.396"/>
<polygon fill="#191970" stroke="#191970" points="1705.4343,-80.7417 1713.9914,-74.4945 1703.4063,-74.0419 1705.4343,-80.7417"/>
</g>
<!-- Node23 -->
<g id="node24" class="node">
<title>Node23</title>
<polygon fill="none" stroke="#bfbfbf" points="1390.0536,-56.5 1390.0536,-75.5 1440.0536,-75.5 1440.0536,-56.5 1390.0536,-56.5"/>
<text text-anchor="middle" x="1415.0536" y="-63.5" font-family="FreeSans.ttf" font-size="10.00" fill="#000000">cstring</text>
</g>
<!-- Node10&#45;&gt;Node23 -->
<g id="edge28" class="edge">
<title>Node10&#45;&gt;Node23</title>
<path fill="none" stroke="#191970" d="M1532.6429,-112.3733C1509.4394,-103.2226 1474.3498,-89.3844 1448.5394,-79.2057"/>
<polygon fill="#191970" stroke="#191970" points="1449.7325,-75.9139 1439.1457,-75.5011 1447.1644,-82.4258 1449.7325,-75.9139"/>
</g>
<!-- Node12 -->
<g id="node13" class="node">
<title>Node12</title>
<polygon fill="none" stroke="#bfbfbf" points="1255.5536,-.5 1255.5536,-19.5 1308.5536,-19.5 1308.5536,-.5 1255.5536,-.5"/>
<text text-anchor="middle" x="1282.0536" y="-7.5" font-family="FreeSans.ttf" font-size="10.00" fill="#000000">cstddef</text>
</g>
<!-- Node11&#45;&gt;Node12 -->
<g id="edge14" class="edge">
<title>Node11&#45;&gt;Node12</title>
<path fill="none" stroke="#191970" d="M1273.7955,-56.2455C1275.1003,-48.9382 1276.9296,-38.6944 1278.5349,-29.7046"/>
<polygon fill="#191970" stroke="#191970" points="1282.0192,-30.1022 1280.3317,-19.6427 1275.1282,-28.8717 1282.0192,-30.1022"/>
</g>
<!-- Node13&#45;&gt;Node12 -->
<g id="edge19" class="edge">
<title>Node13&#45;&gt;Node12</title>
<path fill="none" stroke="#191970" d="M1507.6387,-56.4324C1461.0204,-47.3317 1389.2092,-33.1202 1327.0536,-20 1324.264,-19.4111 1321.3793,-18.7925 1318.4801,-18.1638"/>
<polygon fill="#191970" stroke="#191970" points="1319.2013,-14.7389 1308.6837,-16.0161 1317.7022,-21.5765 1319.2013,-14.7389"/>
</g>
<!-- Node13&#45;&gt;Node14 -->
<g id="edge16" class="edge">
<title>Node13&#45;&gt;Node14</title>
<path fill="none" stroke="#191970" d="M1523.5319,-56.3733C1488.6452,-46.3545 1434.1926,-30.7168 1398.3197,-20.4149"/>
<polygon fill="#191970" stroke="#191970" points="1398.8538,-16.9269 1388.2762,-17.5306 1396.9216,-23.6549 1398.8538,-16.9269"/>
</g>
<!-- Node15 -->
<g id="node16" class="node">
<title>Node15</title>
<polygon fill="none" stroke="#bfbfbf" points="1702.0536,-.5 1702.0536,-19.5 1766.0536,-19.5 1766.0536,-.5 1702.0536,-.5"/>
<text text-anchor="middle" x="1734.0536" y="-7.5" font-family="FreeSans.ttf" font-size="10.00" fill="#000000">algorithm</text>
</g>
<!-- Node13&#45;&gt;Node15 -->
<g id="edge17" class="edge">
<title>Node13&#45;&gt;Node15</title>
<path fill="none" stroke="#191970" d="M1587.481,-56.3733C1617.0408,-47.021 1662.0762,-32.7725 1694.4231,-22.5385"/>
<polygon fill="#191970" stroke="#191970" points="1695.5448,-25.8546 1704.0233,-19.5011 1693.4333,-19.1807 1695.5448,-25.8546"/>
</g>
<!-- Node13&#45;&gt;Node16 -->
<g id="edge18" class="edge">
<title>Node13&#45;&gt;Node16</title>
<path fill="none" stroke="#191970" d="M1617.5761,-56.8528C1695.9541,-44.9368 1825.162,-25.0282 1847.0536,-20 1847.6553,-19.8618 1848.262,-19.7185 1848.8725,-19.5708"/>
<polygon fill="#191970" stroke="#191970" points="1850.1163,-22.8608 1858.8664,-16.8871 1848.3008,-16.1003 1850.1163,-22.8608"/>
</g>
<!-- Node17 -->
<g id="node18" class="node">
<title>Node17</title>
<polygon fill="none" stroke="#bfbfbf" points="1784.5536,-.5 1784.5536,-19.5 1837.5536,-19.5 1837.5536,-.5 1784.5536,-.5"/>
<text text-anchor="middle" x="1811.0536" y="-7.5" font-family="FreeSans.ttf" font-size="10.00" fill="#000000">iterator</text>
</g>
<!-- Node13&#45;&gt;Node17 -->
<g id="edge20" class="edge">
<title>Node13&#45;&gt;Node17</title>
<path fill="none" stroke="#191970" d="M1606.6052,-56.4691C1648.7579,-48.1525 1711.1063,-35.3612 1774.5841,-20.0003"/>
<polygon fill="#191970" stroke="#191970" points="1775.4803,-23.3844 1784.3663,-17.6147 1773.8217,-16.5838 1775.4803,-23.3844"/>
</g>
<!-- Node18 -->
<g id="node19" class="node">
<title>Node18</title>
<polygon fill="none" stroke="#bfbfbf" points="1406.0536,-.5 1406.0536,-19.5 1450.0536,-19.5 1450.0536,-.5 1406.0536,-.5"/>
<text text-anchor="middle" x="1428.0536" y="-7.5" font-family="FreeSans.ttf" font-size="10.00" fill="#000000">limits</text>
</g>
<!-- Node13&#45;&gt;Node18 -->
<g id="edge21" class="edge">
<title>Node13&#45;&gt;Node18</title>
<path fill="none" stroke="#191970" d="M1534.8777,-56.3733C1514.077,-47.3435 1482.7619,-33.7494 1459.4078,-23.6111"/>
<polygon fill="#191970" stroke="#191970" points="1460.5068,-20.2727 1449.9401,-19.5011 1457.7193,-26.6938 1460.5068,-20.2727"/>
</g>
<!-- Node19 -->
<g id="node20" class="node">
<title>Node19</title>
<polygon fill="none" stroke="#bfbfbf" points="1468.5536,-.5 1468.5536,-19.5 1533.5536,-19.5 1533.5536,-.5 1468.5536,-.5"/>
<text text-anchor="middle" x="1501.0536" y="-7.5" font-family="FreeSans.ttf" font-size="10.00" fill="#000000">stdexcept</text>
</g>
<!-- Node13&#45;&gt;Node19 -->
<g id="edge22" class="edge">
<title>Node13&#45;&gt;Node19</title>
<path fill="none" stroke="#191970" d="M1547.2991,-56.2455C1539.1888,-48.1352 1527.4611,-36.4075 1517.8455,-26.7919"/>
<polygon fill="#191970" stroke="#191970" points="1520.2422,-24.2389 1510.6963,-19.6427 1515.2925,-29.1887 1520.2422,-24.2389"/>
</g>
<!-- Node20 -->
<g id="node21" class="node">
<title>Node20</title>
<polygon fill="none" stroke="#bfbfbf" points="1551.5536,-.5 1551.5536,-19.5 1620.5536,-19.5 1620.5536,-.5 1551.5536,-.5"/>
<text text-anchor="middle" x="1586.0536" y="-7.5" font-family="FreeSans.ttf" font-size="10.00" fill="#000000">type_traits</text>
</g>
<!-- Node13&#45;&gt;Node20 -->
<g id="edge23" class="edge">
<title>Node13&#45;&gt;Node20</title>
<path fill="none" stroke="#191970" d="M1562.105,-56.2455C1566.0555,-48.617 1571.6633,-37.7881 1576.4594,-28.5267"/>
<polygon fill="#191970" stroke="#191970" points="1579.5695,-30.1321 1581.0601,-19.6427 1573.3535,-26.9131 1579.5695,-30.1321"/>
</g>
<!-- Node21 -->
<g id="node22" class="node">
<title>Node21</title>
<polygon fill="none" stroke="#bfbfbf" points="1638.5536,-.5 1638.5536,-19.5 1683.5536,-19.5 1683.5536,-.5 1638.5536,-.5"/>
<text text-anchor="middle" x="1661.0536" y="-7.5" font-family="FreeSans.ttf" font-size="10.00" fill="#000000">utility</text>
</g>
<!-- Node13&#45;&gt;Node21 -->
<g id="edge24" class="edge">
<title>Node13&#45;&gt;Node21</title>
<path fill="none" stroke="#191970" d="M1575.169,-56.2455C1591.4986,-47.4527 1615.7246,-34.4079 1634.2875,-24.4125"/>
<polygon fill="#191970" stroke="#191970" points="1636.0004,-27.4654 1643.1458,-19.6427 1632.6817,-21.3021 1636.0004,-27.4654"/>
</g>
<!-- Node24&#45;&gt;Node5 -->
<g id="edge48" class="edge">
<title>Node24&#45;&gt;Node5</title>
<path fill="none" stroke="#191970" d="M965.3854,-280.497C895.6686,-263.6801 760.2248,-226.7768 732.0536,-188 710.1403,-157.8371 715.9765,-111.5366 721.7764,-85.5083"/>
<polygon fill="#191970" stroke="#191970" points="725.1991,-86.2462 724.1789,-75.7006 718.4001,-84.5807 725.1991,-86.2462"/>
</g>
<!-- Node25 -->
<g id="node26" class="node">
<title>Node25</title>
<g id="a_node26"><a xlink:href="PositionRaw_8h.html" target="_top" xlink:title="iDynTree/Core/PositionRaw.h">
<polygon fill="none" stroke="#000000" points="972.0536,-168.5 972.0536,-187.5 1128.0536,-187.5 1128.0536,-168.5 972.0536,-168.5"/>
<text text-anchor="middle" x="1050.0536" y="-175.5" font-family="FreeSans.ttf" font-size="10.00" fill="#000000">iDynTree/Core/PositionRaw.h</text>
</a>
</g>
</g>
<!-- Node24&#45;&gt;Node25 -->
<g id="edge31" class="edge">
<title>Node24&#45;&gt;Node25</title>
<path fill="none" stroke="#191970" d="M1010.7198,-280.4509C1017.7964,-262.0186 1033.4581,-221.2254 1042.7424,-197.043"/>
<polygon fill="#191970" stroke="#191970" points="1046.0799,-198.115 1046.3967,-187.5249 1039.545,-195.606 1046.0799,-198.115"/>
</g>
<!-- Node26 -->
<g id="node27" class="node">
<title>Node26</title>
<g id="a_node27"><a xlink:href="Rotation_8h.html" target="_top" xlink:title="iDynTree/Core/Rotation.h">
<polygon fill="none" stroke="#000000" points="1232.5536,-224.5 1232.5536,-243.5 1369.5536,-243.5 1369.5536,-224.5 1232.5536,-224.5"/>
<text text-anchor="middle" x="1301.0536" y="-231.5" font-family="FreeSans.ttf" font-size="10.00" fill="#000000">iDynTree/Core/Rotation.h</text>
</a>
</g>
</g>
<!-- Node24&#45;&gt;Node26 -->
<g id="edge34" class="edge">
<title>Node24&#45;&gt;Node26</title>
<path fill="none" stroke="#191970" d="M1057.2599,-280.4369C1108.1043,-270.7522 1186.7596,-255.7703 1240.9049,-245.4569"/>
<polygon fill="#191970" stroke="#191970" points="1241.8859,-248.8331 1251.0543,-243.5237 1240.576,-241.9567 1241.8859,-248.8331"/>
</g>
<!-- Node25&#45;&gt;Node5 -->
<g id="edge33" class="edge">
<title>Node25&#45;&gt;Node5</title>
<path fill="none" stroke="#191970" d="M1022.5148,-168.4509C962.8521,-147.763 821.9528,-98.9062 758.7268,-76.9826"/>
<polygon fill="#191970" stroke="#191970" points="759.8654,-73.6731 749.2706,-73.7037 757.5721,-80.2868 759.8654,-73.6731"/>
</g>
<!-- Node25&#45;&gt;Node10 -->
<g id="edge32" class="edge">
<title>Node25&#45;&gt;Node10</title>
<path fill="none" stroke="#191970" d="M1128.2544,-169.4481C1210.0239,-160.4936 1342.3924,-145.9636 1466.4637,-132.1751"/>
<polygon fill="#191970" stroke="#191970" points="1466.9723,-135.6402 1476.5243,-131.0566 1466.1988,-128.683 1466.9723,-135.6402"/>
</g>
<!-- Node26&#45;&gt;Node5 -->
<g id="edge35" class="edge">
<title>Node26&#45;&gt;Node5</title>
<path fill="none" stroke="#191970" d="M1279.912,-224.3888C1249.0064,-210.5935 1189.4643,-184.9748 1137.0536,-168 998.6634,-123.1781 828.6347,-86.588 759.0403,-72.3748"/>
<polygon fill="#191970" stroke="#191970" points="759.6307,-68.9233 749.1344,-70.3647 758.2386,-75.7835 759.6307,-68.9233"/>
</g>
<!-- Node26&#45;&gt;Node10 -->
<g id="edge47" class="edge">
<title>Node26&#45;&gt;Node10</title>
<path fill="none" stroke="#191970" d="M1322.88,-224.4509C1368.3172,-204.5722 1473.2018,-158.6852 1525.7952,-135.6756"/>
<polygon fill="#191970" stroke="#191970" points="1527.5237,-138.7397 1535.2824,-131.5249 1524.718,-132.3266 1527.5237,-138.7397"/>
</g>
<!-- Node27 -->
<g id="node28" class="node">
<title>Node27</title>
<g id="a_node28"><a xlink:href="GeomVector3_8h.html" target="_top" xlink:title="iDynTree/Core/GeomVector3.h">
<polygon fill="none" stroke="#000000" points="1474.5536,-168.5 1474.5536,-187.5 1637.5536,-187.5 1637.5536,-168.5 1474.5536,-168.5"/>
<text text-anchor="middle" x="1556.0536" y="-175.5" font-family="FreeSans.ttf" font-size="10.00" fill="#000000">iDynTree/Core/GeomVector3.h</text>
</a>
</g>
</g>
<!-- Node26&#45;&gt;Node27 -->
<g id="edge36" class="edge">
<title>Node26&#45;&gt;Node27</title>
<path fill="none" stroke="#191970" d="M1344.5999,-224.4369C1388.3329,-214.8328 1455.7881,-200.0191 1502.7078,-189.7152"/>
<polygon fill="#191970" stroke="#191970" points="1503.6704,-193.0872 1512.6869,-187.5237 1502.1689,-186.2502 1503.6704,-193.0872"/>
</g>
<!-- Node28 -->
<g id="node29" class="node">
<title>Node28</title>
<g id="a_node29"><a xlink:href="RotationRaw_8h.html" target="_top" xlink:title="iDynTree/Core/RotationRaw.h">
<polygon fill="none" stroke="#000000" points="1222.0536,-168.5 1222.0536,-187.5 1380.0536,-187.5 1380.0536,-168.5 1222.0536,-168.5"/>
<text text-anchor="middle" x="1301.0536" y="-175.5" font-family="FreeSans.ttf" font-size="10.00" fill="#000000">iDynTree/Core/RotationRaw.h</text>
</a>
</g>
</g>
<!-- Node26&#45;&gt;Node28 -->
<g id="edge38" class="edge">
<title>Node26&#45;&gt;Node28</title>
<path fill="none" stroke="#191970" d="M1301.0536,-224.2455C1301.0536,-216.9382 1301.0536,-206.6944 1301.0536,-197.7046"/>
<polygon fill="#191970" stroke="#191970" points="1304.5537,-197.6426 1301.0536,-187.6427 1297.5537,-197.6427 1304.5537,-197.6426"/>
</g>
<!-- Node27&#45;&gt;Node10 -->
<g id="edge37" class="edge">
<title>Node27&#45;&gt;Node10</title>
<path fill="none" stroke="#191970" d="M1556.2278,-168.2455C1556.3583,-160.9382 1556.5412,-150.6944 1556.7017,-141.7046"/>
<polygon fill="#191970" stroke="#191970" points="1560.2022,-141.7036 1556.8814,-131.6427 1553.2033,-141.5786 1560.2022,-141.7036"/>
</g>
<!-- Node28&#45;&gt;Node5 -->
<g id="edge46" class="edge">
<title>Node28&#45;&gt;Node5</title>
<path fill="none" stroke="#191970" d="M1291.0968,-168.2915C1274.9738,-153.247 1241.4708,-124.7135 1207.0536,-112 1124.3502,-81.4498 852.7945,-70.0313 759.1431,-66.9436"/>
<polygon fill="#191970" stroke="#191970" points="759.2358,-63.4449 749.1289,-66.6231 759.0118,-70.4413 759.2358,-63.4449"/>
</g>
<!-- Node29 -->
<g id="node30" class="node">
<title>Node29</title>
<g id="a_node30"><a xlink:href="MatrixFixSize_8h.html" target="_top" xlink:title="iDynTree/Core/MatrixFixSize.h">
<polygon fill="none" stroke="#000000" points="1297.5536,-112.5 1297.5536,-131.5 1458.5536,-131.5 1458.5536,-112.5 1297.5536,-112.5"/>
<text text-anchor="middle" x="1378.0536" y="-119.5" font-family="FreeSans.ttf" font-size="10.00" fill="#000000">iDynTree/Core/MatrixFixSize.h</text>
</a>
</g>
</g>
<!-- Node28&#45;&gt;Node29 -->
<g id="edge39" class="edge">
<title>Node28&#45;&gt;Node29</title>
<path fill="none" stroke="#191970" d="M1314.466,-168.2455C1326.0593,-159.814 1343.0283,-147.4729 1356.5214,-137.6598"/>
<polygon fill="#191970" stroke="#191970" points="1358.7662,-140.355 1364.7949,-131.6427 1354.6489,-134.6938 1358.7662,-140.355"/>
</g>
<!-- Node29&#45;&gt;Node5 -->
<g id="edge43" class="edge">
<title>Node29&#45;&gt;Node5</title>
<path fill="none" stroke="#191970" d="M1297.248,-115.049C1152.9988,-102.6404 857.1151,-77.1881 759.2636,-68.7708"/>
<polygon fill="#191970" stroke="#191970" points="759.3756,-65.2675 749.1123,-67.8975 758.7756,-72.2418 759.3756,-65.2675"/>
</g>
<!-- Node29&#45;&gt;Node11 -->
<g id="edge40" class="edge">
<title>Node29&#45;&gt;Node11</title>
<path fill="none" stroke="#191970" d="M1359.5898,-112.2455C1342.9462,-103.4527 1318.2543,-90.4079 1299.3344,-80.4125"/>
<polygon fill="#191970" stroke="#191970" points="1300.7827,-77.2193 1290.3058,-75.6427 1297.5128,-83.4086 1300.7827,-77.2193"/>
</g>
<!-- Node29&#45;&gt;Node14 -->
<g id="edge41" class="edge">
<title>Node29&#45;&gt;Node14</title>
<path fill="none" stroke="#191970" d="M1376.6894,-112.4509C1374.0799,-94.184 1368.3329,-53.9553 1364.8675,-29.6976"/>
<polygon fill="#191970" stroke="#191970" points="1368.2934,-28.9294 1363.4143,-19.5249 1361.3638,-29.9194 1368.2934,-28.9294"/>
</g>
<!-- Node29&#45;&gt;Node22 -->
<g id="edge45" class="edge">
<title>Node29&#45;&gt;Node22</title>
<path fill="none" stroke="#191970" d="M1453.5987,-112.4787C1530.1833,-102.6403 1644.5646,-87.3908 1703.8042,-76.0132"/>
<polygon fill="#191970" stroke="#191970" points="1704.7361,-79.3963 1713.8582,-74.0076 1703.3667,-72.5315 1704.7361,-79.3963"/>
</g>
<!-- Node29&#45;&gt;Node23 -->
<g id="edge42" class="edge">
<title>Node29&#45;&gt;Node23</title>
<path fill="none" stroke="#191970" d="M1384.4985,-112.2455C1389.5918,-104.5367 1396.8444,-93.5598 1403.0056,-84.2348"/>
<polygon fill="#191970" stroke="#191970" points="1406.0901,-85.9155 1408.6825,-75.6427 1400.2497,-82.0566 1406.0901,-85.9155"/>
</g>
<!-- Node30 -->
<g id="node31" class="node">
<title>Node30</title>
<polygon fill="none" stroke="#bfbfbf" points="1636.0536,-56.5 1636.0536,-75.5 1696.0536,-75.5 1696.0536,-56.5 1636.0536,-56.5"/>
<text text-anchor="middle" x="1666.0536" y="-63.5" font-family="FreeSans.ttf" font-size="10.00" fill="#000000">iostream</text>
</g>
<!-- Node29&#45;&gt;Node30 -->
<g id="edge44" class="edge">
<title>Node29&#45;&gt;Node30</title>
<path fill="none" stroke="#191970" d="M1435.8892,-112.4682C1484.2263,-104.2399 1555.1808,-91.5555 1625.8946,-76.1486"/>
<polygon fill="#191970" stroke="#191970" points="1626.853,-79.5216 1635.8687,-73.9567 1625.3505,-72.6847 1626.853,-79.5216"/>
</g>
<!-- Node31&#45;&gt;Node5 -->
<g id="edge54" class="edge">
<title>Node31&#45;&gt;Node5</title>
<path fill="none" stroke="#191970" d="M859.1853,-336.2974C826.9578,-314.3379 750.9275,-257.3094 718.0536,-188 703.5332,-157.3861 706.7355,-145.4629 712.0536,-112 713.4837,-103.0016 716.3948,-93.3703 719.2752,-85.2579"/>
<polygon fill="#191970" stroke="#191970" points="722.6456,-86.2407 722.9168,-75.6493 716.0999,-83.7599 722.6456,-86.2407"/>
</g>
<!-- Node31&#45;&gt;Node24 -->
<g id="edge51" class="edge">
<title>Node31&#45;&gt;Node24</title>
<path fill="none" stroke="#191970" d="M896.9171,-336.3733C918.4586,-327.3032 950.9374,-313.6279 975.0492,-303.4755"/>
<polygon fill="#191970" stroke="#191970" points="976.6303,-306.6075 984.4884,-299.5011 973.9138,-300.156 976.6303,-306.6075"/>
</g>
<!-- Node31&#45;&gt;Node26 -->
<g id="edge52" class="edge">
<title>Node31&#45;&gt;Node26</title>
<path fill="none" stroke="#191970" d="M947.2884,-341.015C1008.1012,-335.3701 1096.2689,-323.6706 1170.0536,-300 1209.576,-287.321 1251.8725,-264.0344 1277.3911,-248.7862"/>
<polygon fill="#191970" stroke="#191970" points="1279.262,-251.745 1285.9974,-243.5667 1275.632,-245.7597 1279.262,-251.745"/>
</g>
<!-- Node31&#45;&gt;Node29 -->
<g id="edge53" class="edge">
<title>Node31&#45;&gt;Node29</title>
<path fill="none" stroke="#191970" d="M936.0433,-336.4626C988.4908,-327.6617 1059.0016,-313.8905 1084.0536,-300 1155.7937,-260.2225 1142.4604,-209.779 1213.0536,-168 1240.99,-151.4665 1275.1026,-140.6691 1305.0448,-133.7222"/>
<polygon fill="#191970" stroke="#191970" points="1306.0182,-137.0915 1315.0243,-131.5112 1304.5039,-130.2573 1306.0182,-137.0915"/>
</g>
<!-- Node32&#45;&gt;Node2 -->
<g id="edge59" class="edge">
<title>Node32&#45;&gt;Node2</title>
<path fill="none" stroke="#191970" d="M476.3036,-397.8906C467.8874,-388.6478 454.9739,-374.466 444.7726,-363.2628"/>
<polygon fill="#191970" stroke="#191970" points="447.2476,-360.7824 437.927,-355.7449 442.0718,-365.4953 447.2476,-360.7824"/>
</g>
<!-- Node32&#45;&gt;Node6 -->
<g id="edge60" class="edge">
<title>Node32&#45;&gt;Node6</title>
<path fill="none" stroke="#191970" d="M446.6104,-397.9228C405.065,-387.1391 341.9885,-369.3781 321.0536,-356 301.3867,-343.4322 284.0802,-322.7859 273.1716,-307.9297"/>
<polygon fill="#191970" stroke="#191970" points="275.8762,-305.6925 267.2424,-299.5519 270.1624,-309.7364 275.8762,-305.6925"/>
</g>
<!-- Node33&#45;&gt;Node5 -->
<g id="edge65" class="edge">
<title>Node33&#45;&gt;Node5</title>
<path fill="none" stroke="#191970" d="M1554.923,-399.857C1496.6171,-391.2592 1402.167,-375.8618 1322.0536,-356 1214.2765,-329.2798 1190.2854,-312.3216 1084.0536,-280 1013.6744,-258.5868 818.7893,-239.2903 766.0536,-188 737.8788,-160.5974 730.0184,-112.8774 727.8518,-85.9581"/>
<polygon fill="#191970" stroke="#191970" points="731.3354,-85.5814 727.2292,-75.8146 724.3485,-86.0103 731.3354,-85.5814"/>
</g>
<!-- Node33&#45;&gt;Node7 -->
<g id="edge66" class="edge">
<title>Node33&#45;&gt;Node7</title>
<path fill="none" stroke="#191970" d="M1554.9148,-398.8109C1536.838,-396.2456 1516.6262,-393.6784 1498.0536,-392 1404.7926,-383.5721 742.4542,-392.105 656.0536,-356 631.946,-345.9259 610.9662,-323.7974 598.1867,-307.9401"/>
<polygon fill="#191970" stroke="#191970" points="600.8491,-305.6615 591.9628,-299.8921 595.3117,-309.9438 600.8491,-305.6615"/>
</g>
<!-- Node33&#45;&gt;Node10 -->
<g id="edge68" class="edge">
<title>Node33&#45;&gt;Node10</title>
<path fill="none" stroke="#191970" d="M1662.4936,-397.9414C1707.7968,-388.6762 1768.6449,-373.4849 1786.0536,-356 1807.5906,-334.3687 1805.0536,-320.5246 1805.0536,-290 1805.0536,-290 1805.0536,-290 1805.0536,-234 1805.0536,-185.4659 1761.4638,-189.7051 1718.0536,-168 1686.6149,-152.2806 1648.9575,-141.1484 1617.9694,-133.777"/>
<polygon fill="#191970" stroke="#191970" points="1618.6898,-130.3513 1608.159,-131.5147 1617.1168,-137.1723 1618.6898,-130.3513"/>
</g>
<!-- Node33&#45;&gt;Node22 -->
<g id="edge64" class="edge">
<title>Node33&#45;&gt;Node22</title>
<path fill="none" stroke="#191970" d="M1665.2713,-403.4656C1734.1726,-395.0784 1843.0536,-369.2819 1843.0536,-290 1843.0536,-290 1843.0536,-290 1843.0536,-178 1843.0536,-133.8652 1799.2648,-99.2933 1769.3524,-80.8258"/>
<polygon fill="#191970" stroke="#191970" points="1770.9644,-77.7126 1760.5786,-75.6188 1767.3919,-83.7323 1770.9644,-77.7126"/>
</g>
<!-- Node33&#45;&gt;Node31 -->
<g id="edge67" class="edge">
<title>Node33&#45;&gt;Node31</title>
<path fill="none" stroke="#191970" d="M1554.8815,-399.1506C1536.8027,-396.6058 1516.5981,-393.9647 1498.0536,-392 1304.9208,-371.5384 1077.1946,-357.2206 957.3962,-350.4453"/>
<polygon fill="#191970" stroke="#191970" points="957.3807,-346.939 947.2,-349.8721 956.9877,-353.9279 957.3807,-346.939"/>
</g>
<!-- Node34 -->
<g id="node35" class="node">
<title>Node34</title>
<polygon fill="none" stroke="#bfbfbf" points="1586.5536,-336.5 1586.5536,-355.5 1633.5536,-355.5 1633.5536,-336.5 1586.5536,-336.5"/>
<text text-anchor="middle" x="1610.0536" y="-343.5" font-family="FreeSans.ttf" font-size="10.00" fill="#000000">cmath</text>
</g>
<!-- Node33&#45;&gt;Node34 -->
<g id="edge62" class="edge">
<title>Node33&#45;&gt;Node34</title>
<path fill="none" stroke="#191970" d="M1610.0536,-397.8906C1610.0536,-389.3657 1610.0536,-376.6392 1610.0536,-365.9235"/>
<polygon fill="#191970" stroke="#191970" points="1613.5537,-365.7448 1610.0536,-355.7449 1606.5537,-365.7449 1613.5537,-365.7448"/>
</g>
<!-- Node35 -->
<g id="node36" class="node">
<title>Node35</title>
<polygon fill="none" stroke="#bfbfbf" points="1651.5536,-336.5 1651.5536,-355.5 1700.5536,-355.5 1700.5536,-336.5 1651.5536,-336.5"/>
<text text-anchor="middle" x="1676.0536" y="-343.5" font-family="FreeSans.ttf" font-size="10.00" fill="#000000">cstdlib</text>
</g>
<!-- Node33&#45;&gt;Node35 -->
<g id="edge63" class="edge">
<title>Node33&#45;&gt;Node35</title>
<path fill="none" stroke="#191970" d="M1620.3661,-397.8906C1630.4778,-388.4683 1646.0978,-373.9134 1658.2243,-362.6137"/>
<polygon fill="#191970" stroke="#191970" points="1660.6656,-365.1228 1665.5957,-355.7449 1655.8935,-360.0015 1660.6656,-365.1228"/>
</g>
<!-- Node36 -->
<g id="node37" class="node">
<title>Node36</title>
<polygon fill="none" stroke="#bfbfbf" points="1719.0536,-336.5 1719.0536,-355.5 1777.0536,-355.5 1777.0536,-336.5 1719.0536,-336.5"/>
<text text-anchor="middle" x="1748.0536" y="-343.5" font-family="FreeSans.ttf" font-size="10.00" fill="#000000">fpconv.h</text>
</g>
<!-- Node33&#45;&gt;Node36 -->
<g id="edge69" class="edge">
<title>Node33&#45;&gt;Node36</title>
<path fill="none" stroke="#191970" d="M1631.6161,-397.8906C1654.6048,-387.6457 1691.2096,-371.3326 1717.236,-359.7339"/>
<polygon fill="#191970" stroke="#191970" points="1718.9332,-362.8095 1726.6425,-355.5419 1716.0838,-356.4156 1718.9332,-362.8095"/>
</g>
<!-- Node37&#45;&gt;Node5 -->
<g id="edge71" class="edge">
<title>Node37&#45;&gt;Node5</title>
<path fill="none" stroke="#191970" d="M516.5173,-224.4745C522.9299,-201.5837 542.3228,-143.0827 580.0536,-112 613.1535,-84.7322 662.4711,-73.576 694.6976,-69.0462"/>
<polygon fill="#191970" stroke="#191970" points="695.4426,-72.4798 704.9232,-67.7503 694.5625,-65.5354 695.4426,-72.4798"/>
</g>
<!-- Node39 -->
<g id="node40" class="node">
<title>Node39</title>
<g id="a_node40"><a xlink:href="Indices_8h.html" target="_top" xlink:title="iDynTree/Model/Indices.h">
<polygon fill="none" stroke="#000000" points="58.0536,-280.5 58.0536,-299.5 196.0536,-299.5 196.0536,-280.5 58.0536,-280.5"/>
<text text-anchor="middle" x="127.0536" y="-287.5" font-family="FreeSans.ttf" font-size="10.00" fill="#000000">iDynTree/Model/Indices.h</text>
</a>
</g>
</g>
<!-- Node38&#45;&gt;Node39 -->
<g id="edge73" class="edge">
<title>Node38&#45;&gt;Node39</title>
<path fill="none" stroke="#191970" d="M107.2341,-336.2455C110.4346,-328.7776 114.9496,-318.2427 118.862,-309.1137"/>
<polygon fill="#191970" stroke="#191970" points="122.1988,-310.2129 122.921,-299.6427 115.7648,-307.4554 122.1988,-310.2129"/>
</g>
<!-- Node39&#45;&gt;Node5 -->
<g id="edge74" class="edge">
<title>Node39&#45;&gt;Node5</title>
<path fill="none" stroke="#191970" d="M138.0121,-280.4345C173.6135,-249.9525 290.3571,-154.6109 405.0536,-112 457.9217,-92.359 624.3228,-75.3632 694.9005,-68.8422"/>
<polygon fill="#191970" stroke="#191970" points="695.3435,-72.3164 704.9839,-67.9218 694.7071,-65.3454 695.3435,-72.3164"/>
</g>
<!-- Node40&#45;&gt;Node31 -->
<g id="edge76" class="edge">
<title>Node40&#45;&gt;Node31</title>
<path fill="none" stroke="#191970" d="M160.5714,-397.9619C178.0093,-395.7837 196.6965,-393.6325 214.0536,-392 467.056,-368.2038 534.0578,-379.2981 790.7616,-356.0694"/>
<polygon fill="#191970" stroke="#191970" points="791.1189,-359.5515 800.759,-355.1562 790.4821,-352.5805 791.1189,-359.5515"/>
</g>
<!-- Node40&#45;&gt;Node38 -->
<g id="edge78" class="edge">
<title>Node40&#45;&gt;Node38</title>
<path fill="none" stroke="#191970" d="M92.9286,-397.8906C94.6095,-389.276 97.1276,-376.3708 99.232,-365.5858"/>
<polygon fill="#191970" stroke="#191970" points="102.6722,-366.2301 101.1522,-355.7449 95.8018,-364.8895 102.6722,-366.2301"/>
</g>
<!-- Node40&#45;&gt;Node39 -->
<g id="edge77" class="edge">
<title>Node40&#45;&gt;Node39</title>
<path fill="none" stroke="#191970" d="M72.013,-397.8034C48.8995,-384.6832 14.7894,-360.1323 30.0536,-336 39.8397,-320.5285 56.3958,-310.1575 73.0863,-303.2507"/>
<polygon fill="#191970" stroke="#191970" points="74.7484,-306.3652 82.8788,-299.572 72.2867,-299.8123 74.7484,-306.3652"/>
</g>
<!-- Node41&#45;&gt;Node8 -->
<g id="edge91" class="edge">
<title>Node41&#45;&gt;Node8</title>
<path fill="none" stroke="#191970" d="M700.2569,-459.2548C705.1485,-435.9744 714.4805,-391.5607 719.8908,-365.8117"/>
<polygon fill="#191970" stroke="#191970" points="723.3768,-366.2418 722.0079,-355.7358 716.5264,-364.8024 723.3768,-366.2418"/>
</g>
<!-- Node41&#45;&gt;Node31 -->
<g id="edge80" class="edge">
<title>Node41&#45;&gt;Node31</title>
<path fill="none" stroke="#191970" d="M718.0529,-459.2548C751.8455,-434.7217 817.9652,-386.7195 852.2581,-361.8233"/>
<polygon fill="#191970" stroke="#191970" points="854.6071,-364.4431 860.6432,-355.7358 850.4946,-358.7784 854.6071,-364.4431"/>
</g>
<!-- Node41&#45;&gt;Node39 -->
<g id="edge92" class="edge">
<title>Node41&#45;&gt;Node39</title>
<path fill="none" stroke="#191970" d="M626.7216,-470.8856C500.7352,-463.8465 246.6138,-446.8703 214.0536,-423 180.0245,-398.0528 200.3767,-370.478 176.0536,-336 168.2501,-324.9386 157.456,-314.4556 147.9845,-306.2985"/>
<polygon fill="#191970" stroke="#191970" points="150.043,-303.4587 140.11,-299.7728 145.5764,-308.8485 150.043,-303.4587"/>
</g>
<!-- Node42 -->
<g id="node43" class="node">
<title>Node42</title>
<g id="a_node43"><a xlink:href="SpatialMotionVector_8h.html" target="_top" xlink:title="iDynTree/Core/SpatialMotion\lVector.h">
<polygon fill="none" stroke="#000000" points="1333.5536,-392.5 1333.5536,-422.5 1488.5536,-422.5 1488.5536,-392.5 1333.5536,-392.5"/>
<text text-anchor="start" x="1341.5536" y="-410.5" font-family="FreeSans.ttf" font-size="10.00" fill="#000000">iDynTree/Core/SpatialMotion</text>
<text text-anchor="middle" x="1411.0536" y="-399.5" font-family="FreeSans.ttf" font-size="10.00" fill="#000000">Vector.h</text>
</a>
</g>
</g>
<!-- Node41&#45;&gt;Node42 -->
<g id="edge81" class="edge">
<title>Node41&#45;&gt;Node42</title>
<path fill="none" stroke="#191970" d="M767.1959,-460.3116C770.184,-459.842 773.1461,-459.4018 776.0536,-459 970.5397,-432.1214 1200.6215,-417.7567 1323.4262,-411.4749"/>
<polygon fill="#191970" stroke="#191970" points="1323.7152,-414.9649 1333.5257,-410.9642 1323.3616,-407.9738 1323.7152,-414.9649"/>
</g>
<!-- Node44 -->
<g id="node45" class="node">
<title>Node44</title>
<g id="a_node45"><a xlink:href="MovableJointImpl_8h.html" target="_top" xlink:title="iDynTree/Model/MovableJoint\lImpl.h">
<polygon fill="none" stroke="#000000" points="223.0536,-392.5 223.0536,-422.5 381.0536,-422.5 381.0536,-392.5 223.0536,-392.5"/>
<text text-anchor="start" x="231.0536" y="-410.5" font-family="FreeSans.ttf" font-size="10.00" fill="#000000">iDynTree/Model/MovableJoint</text>
<text text-anchor="middle" x="302.0536" y="-399.5" font-family="FreeSans.ttf" font-size="10.00" fill="#000000">Impl.h</text>
</a>
</g>
</g>
<!-- Node41&#45;&gt;Node44 -->
<g id="edge93" class="edge">
<title>Node41&#45;&gt;Node44</title>
<path fill="none" stroke="#191970" d="M626.8907,-462.5989C561.0411,-451.4295 462.2687,-434.6757 390.9349,-422.5761"/>
<polygon fill="#191970" stroke="#191970" points="391.5023,-419.1224 381.0578,-420.9007 390.3317,-426.0238 391.5023,-419.1224"/>
</g>
<!-- Node42&#45;&gt;Node10 -->
<g id="edge82" class="edge">
<title>Node42&#45;&gt;Node10</title>
<path fill="none" stroke="#191970" d="M1444.3749,-392.4729C1477.8945,-377.5371 1531.1886,-354.2804 1578.0536,-336 1622.841,-318.5301 1652.2874,-339.2447 1680.0536,-300 1703.3924,-267.013 1736.7936,-276.1977 1647.0536,-168 1634.7861,-153.2093 1616.5454,-142.6553 1599.6864,-135.4198"/>
<polygon fill="#191970" stroke="#191970" points="1600.5601,-131.9997 1589.9754,-131.5362 1597.9608,-138.4993 1600.5601,-131.9997"/>
</g>
<!-- Node42&#45;&gt;Node27 -->
<g id="edge83" class="edge">
<title>Node42&#45;&gt;Node27</title>
<path fill="none" stroke="#191970" d="M1451.5641,-392.3269C1468.9726,-383.9819 1488.2232,-372.0174 1501.0536,-356 1539.5536,-307.9367 1551.2088,-232.908 1554.6541,-197.6091"/>
<polygon fill="#191970" stroke="#191970" points="1558.1426,-197.8909 1555.5078,-187.629 1551.1681,-197.2942 1558.1426,-197.8909"/>
</g>
<!-- Node43 -->
<g id="node44" class="node">
<title>Node43</title>
<g id="a_node44"><a xlink:href="SpatialVector_8h.html" target="_top" xlink:title="iDynTree/Core/SpatialVector.h">
<polygon fill="none" stroke="#000000" points="1330.5536,-336.5 1330.5536,-355.5 1491.5536,-355.5 1491.5536,-336.5 1330.5536,-336.5"/>
<text text-anchor="middle" x="1411.0536" y="-343.5" font-family="FreeSans.ttf" font-size="10.00" fill="#000000">iDynTree/Core/SpatialVector.h</text>
</a>
</g>
</g>
<!-- Node42&#45;&gt;Node43 -->
<g id="edge84" class="edge">
<title>Node42&#45;&gt;Node43</title>
<path fill="none" stroke="#191970" d="M1411.0536,-392.2977C1411.0536,-384.3834 1411.0536,-374.6043 1411.0536,-366.0759"/>
<polygon fill="#191970" stroke="#191970" points="1414.5537,-365.8469 1411.0536,-355.8469 1407.5537,-365.847 1414.5537,-365.8469"/>
</g>
<!-- Node43&#45;&gt;Node11 -->
<g id="edge87" class="edge">
<title>Node43&#45;&gt;Node11</title>
<path fill="none" stroke="#191970" d="M1413.0548,-336.1916C1418.4168,-306.9676 1430.0641,-219.3299 1389.0536,-168 1359.5685,-131.0956 1320.8583,-166.9252 1289.0536,-132 1277.7383,-119.5745 1273.7459,-100.6209 1272.4337,-86.2076"/>
<polygon fill="#191970" stroke="#191970" points="1275.9073,-85.6276 1271.8673,-75.8333 1268.9177,-86.0093 1275.9073,-85.6276"/>
</g>
<!-- Node43&#45;&gt;Node22 -->
<g id="edge90" class="edge">
<title>Node43&#45;&gt;Node22</title>
<path fill="none" stroke="#191970" d="M1482.4682,-336.4968C1579.7731,-321.5124 1742.0536,-288.3718 1742.0536,-234 1742.0536,-234 1742.0536,-234 1742.0536,-178 1742.0536,-145.7116 1742.0536,-108.1872 1742.0536,-85.8048"/>
<polygon fill="#191970" stroke="#191970" points="1745.5537,-85.5883 1742.0536,-75.5884 1738.5537,-85.5884 1745.5537,-85.5883"/>
</g>
<!-- Node43&#45;&gt;Node24 -->
<g id="edge85" class="edge">
<title>Node43&#45;&gt;Node24</title>
<path fill="none" stroke="#191970" d="M1342.0626,-336.4369C1270.8175,-326.5613 1159.8345,-311.1776 1085.3466,-300.8525"/>
<polygon fill="#191970" stroke="#191970" points="1085.4721,-297.3365 1075.0862,-299.4303 1084.5109,-304.2702 1085.4721,-297.3365"/>
</g>
<!-- Node43&#45;&gt;Node26 -->
<g id="edge86" class="edge">
<title>Node43&#45;&gt;Node26</title>
<path fill="none" stroke="#191970" d="M1401.6751,-336.4509C1383.0036,-317.4401 1340.9702,-274.6423 1317.5694,-250.816"/>
<polygon fill="#191970" stroke="#191970" points="1319.9126,-248.2069 1310.4084,-243.5249 1314.9184,-253.1119 1319.9126,-248.2069"/>
</g>
<!-- Node43&#45;&gt;Node27 -->
<g id="edge88" class="edge">
<title>Node43&#45;&gt;Node27</title>
<path fill="none" stroke="#191970" d="M1422.4858,-336.4673C1432.7221,-327.6156 1447.8079,-313.7654 1459.0536,-300 1484.3291,-269.0614 1481.6192,-254.8081 1507.0536,-224 1515.7867,-213.4218 1526.8325,-202.8582 1536.2251,-194.5267"/>
<polygon fill="#191970" stroke="#191970" points="1538.6846,-197.0269 1543.954,-187.8354 1534.1028,-191.7347 1538.6846,-197.0269"/>
</g>
<!-- Node43&#45;&gt;Node30 -->
<g id="edge89" class="edge">
<title>Node43&#45;&gt;Node30</title>
<path fill="none" stroke="#191970" d="M1454.0225,-336.4593C1526.6956,-319.0681 1666.0536,-279.7538 1666.0536,-234 1666.0536,-234 1666.0536,-234 1666.0536,-178 1666.0536,-145.7116 1666.0536,-108.1872 1666.0536,-85.8048"/>
<polygon fill="#191970" stroke="#191970" points="1669.5537,-85.5883 1666.0536,-75.5884 1662.5537,-85.5884 1669.5537,-85.5883"/>
</g>
<!-- Node44&#45;&gt;Node38 -->
<g id="edge94" class="edge">
<title>Node44&#45;&gt;Node38</title>
<path fill="none" stroke="#191970" d="M253.3727,-392.4554C219.7322,-382.059 175.4974,-368.3884 143.7361,-358.5727"/>
<polygon fill="#191970" stroke="#191970" points="144.4791,-355.1391 133.8915,-355.5303 142.4122,-361.827 144.4791,-355.1391"/>
</g>
<!-- Node45&#45;&gt;Node8 -->
<g id="edge98" class="edge">
<title>Node45&#45;&gt;Node8</title>
<path fill="none" stroke="#191970" d="M858.155,-464.8416C833.5926,-443.0742 773.6639,-389.965 742.9219,-362.7212"/>
<polygon fill="#191970" stroke="#191970" points="744.8841,-359.7835 735.0786,-355.7705 740.2413,-365.0223 744.8841,-359.7835"/>
</g>
<!-- Node45&#45;&gt;Node31 -->
<g id="edge96" class="edge">
<title>Node45&#45;&gt;Node31</title>
<path fill="none" stroke="#191970" d="M869.4294,-464.8416C870.2438,-443.9114 872.1857,-394.004 873.2763,-365.9762"/>
<polygon fill="#191970" stroke="#191970" points="876.7819,-365.899 873.6734,-355.7705 869.7872,-365.6268 876.7819,-365.899"/>
</g>
<!-- Node45&#45;&gt;Node39 -->
<g id="edge99" class="edge">
<title>Node45&#45;&gt;Node39</title>
<path fill="none" stroke="#191970" d="M815.5351,-464.9969C802.6308,-462.867 788.8686,-460.7291 776.0536,-459 621.9579,-438.2086 571.6506,-482.6463 428.0536,-423 407.9251,-414.6392 408.9331,-402.8916 390.0536,-392 350.9431,-369.4371 337.1782,-372.2553 295.0536,-356 248.355,-337.9797 194.5264,-316.752 160.646,-303.3351"/>
<polygon fill="#191970" stroke="#191970" points="161.808,-300.0309 151.2219,-299.6008 159.2293,-306.5386 161.808,-300.0309"/>
</g>
<!-- Node45&#45;&gt;Node42 -->
<g id="edge97" class="edge">
<title>Node45&#45;&gt;Node42</title>
<path fill="none" stroke="#191970" d="M946.1334,-464.9717C1045.6932,-452.6645 1218.5822,-431.2926 1323.1486,-418.3665"/>
<polygon fill="#191970" stroke="#191970" points="1323.8671,-421.8044 1333.3622,-417.1039 1323.0083,-414.8573 1323.8671,-421.8044"/>
</g>
<!-- Node45&#45;&gt;Node44 -->
<g id="edge100" class="edge">
<title>Node45&#45;&gt;Node44</title>
<path fill="none" stroke="#191970" d="M816.0356,-464.9961C802.9898,-462.842 789.0385,-460.6934 776.0536,-459 607.3942,-437.0051 563.713,-444.9949 395.0536,-423 393.7754,-422.8333 392.4878,-422.6622 391.1927,-422.4871"/>
<polygon fill="#191970" stroke="#191970" points="391.5346,-419.0008 381.1446,-421.0739 390.5596,-425.9326 391.5346,-419.0008"/>
</g>
</g>
</svg>
