<?xml version="1.0" encoding="UTF-8" standalone="no"?>
<!DOCTYPE svg PUBLIC "-//W3C//DTD SVG 1.1//EN"
 "http://www.w3.org/Graphics/SVG/1.1/DTD/svg11.dtd">
<!-- Generated by graphviz version 2.40.1 (20161225.0304)
 -->
<!-- Title: JointState.h Pages: 1 -->
<svg width="1057pt" height="487pt"
 viewBox="0.00 0.00 1057.00 487.00" xmlns="http://www.w3.org/2000/svg" xmlns:xlink="http://www.w3.org/1999/xlink">
<g id="graph0" class="graph" transform="scale(1 1) rotate(0) translate(4 483)">
<title>JointState.h</title>
<!-- Node0 -->
<g id="node1" class="node">
<title>Node0</title>
<polygon fill="#bfbfbf" stroke="#000000" points="882,-459.5 882,-478.5 955,-478.5 955,-459.5 882,-459.5"/>
<text text-anchor="middle" x="918.5" y="-466.5" font-family="FreeSans.ttf" font-size="10.00" fill="#000000">JointState.h</text>
</g>
<!-- Node1 -->
<g id="node2" class="node">
<title>Node1</title>
<g id="a_node2"><a xlink:href="VectorFixSize_8h.html" target="_top" xlink:title="iDynTree/Core/VectorFixSize.h">
<polygon fill="none" stroke="#000000" points="491,-112.5 491,-131.5 652,-131.5 652,-112.5 491,-112.5"/>
<text text-anchor="middle" x="571.5" y="-119.5" font-family="FreeSans.ttf" font-size="10.00" fill="#000000">iDynTree/Core/VectorFixSize.h</text>
</a>
</g>
</g>
<!-- Node0&#45;&gt;Node1 -->
<g id="edge1" class="edge">
<title>Node0&#45;&gt;Node1</title>
<path fill="none" stroke="#191970" d="M926.1475,-459.4529C941.26,-439.5916 973.5,-391.8479 973.5,-346 973.5,-346 973.5,-346 973.5,-290 973.5,-203.3755 900.2692,-204.0446 821.5,-168 792.4199,-154.693 716.1381,-141.7096 655.4207,-132.9485"/>
<polygon fill="#191970" stroke="#191970" points="655.8297,-129.4715 645.4358,-131.5252 654.8418,-136.4014 655.8297,-129.4715"/>
</g>
<!-- Node16 -->
<g id="node17" class="node">
<title>Node16</title>
<g id="a_node17"><a xlink:href="VectorDynSize_8h.html" target="_top" xlink:title="iDynTree/Core/VectorDynSize.h">
<polygon fill="none" stroke="#000000" points="0,-112.5 0,-131.5 167,-131.5 167,-112.5 0,-112.5"/>
<text text-anchor="middle" x="83.5" y="-119.5" font-family="FreeSans.ttf" font-size="10.00" fill="#000000">iDynTree/Core/VectorDynSize.h</text>
</a>
</g>
</g>
<!-- Node0&#45;&gt;Node16 -->
<g id="edge18" class="edge">
<title>Node0&#45;&gt;Node16</title>
<path fill="none" stroke="#191970" d="M881.8291,-467.2827C725.1052,-459.4659 119.5,-424.2009 119.5,-346 119.5,-346 119.5,-346 119.5,-234 119.5,-199.7942 104.0926,-162.4094 93.4369,-140.6445"/>
<polygon fill="#191970" stroke="#191970" points="96.4659,-138.8795 88.8119,-131.5538 90.227,-142.0537 96.4659,-138.8795"/>
</g>
<!-- Node17 -->
<g id="node18" class="node">
<title>Node17</title>
<g id="a_node18"><a xlink:href="SpatialForceVector_8h.html" target="_top" xlink:title="iDynTree/Core/SpatialForce\lVector.h">
<polygon fill="none" stroke="#000000" points="735.5,-392.5 735.5,-422.5 883.5,-422.5 883.5,-392.5 735.5,-392.5"/>
<text text-anchor="start" x="743.5" y="-410.5" font-family="FreeSans.ttf" font-size="10.00" fill="#000000">iDynTree/Core/SpatialForce</text>
<text text-anchor="middle" x="809.5" y="-399.5" font-family="FreeSans.ttf" font-size="10.00" fill="#000000">Vector.h</text>
</a>
</g>
</g>
<!-- Node0&#45;&gt;Node17 -->
<g id="edge21" class="edge">
<title>Node0&#45;&gt;Node17</title>
<path fill="none" stroke="#191970" d="M901.4688,-459.3906C886.4437,-450.9132 864.0548,-438.2809 845.1294,-427.6028"/>
<polygon fill="#191970" stroke="#191970" points="846.5937,-424.4104 836.1644,-422.5446 843.1538,-430.5069 846.5937,-424.4104"/>
</g>
<!-- Node26 -->
<g id="node27" class="node">
<title>Node26</title>
<polygon fill="none" stroke="#bfbfbf" points="1002,-398 1002,-417 1049,-417 1049,-398 1002,-398"/>
<text text-anchor="middle" x="1025.5" y="-405" font-family="FreeSans.ttf" font-size="10.00" fill="#000000">vector</text>
</g>
<!-- Node0&#45;&gt;Node26 -->
<g id="edge49" class="edge">
<title>Node0&#45;&gt;Node26</title>
<path fill="none" stroke="#191970" d="M935.2188,-459.3906C952.5722,-449.4165 979.9323,-433.6908 999.9882,-422.1633"/>
<polygon fill="#191970" stroke="#191970" points="1001.9728,-425.0596 1008.8987,-417.0419 998.4846,-418.9907 1001.9728,-425.0596"/>
</g>
<!-- Node2 -->
<g id="node3" class="node">
<title>Node2</title>
<g id="a_node3"><a xlink:href="Utils_8h.html" target="_top" xlink:title="iDynTree/Core/Utils.h">
<polygon fill="none" stroke="#000000" points="691,-56.5 691,-75.5 810,-75.5 810,-56.5 691,-56.5"/>
<text text-anchor="middle" x="750.5" y="-63.5" font-family="FreeSans.ttf" font-size="10.00" fill="#000000">iDynTree/Core/Utils.h</text>
</a>
</g>
</g>
<!-- Node1&#45;&gt;Node2 -->
<g id="edge2" class="edge">
<title>Node1&#45;&gt;Node2</title>
<path fill="none" stroke="#191970" d="M602.2712,-112.3733C632.165,-103.021 677.7093,-88.7725 710.4217,-78.5385"/>
<polygon fill="#191970" stroke="#191970" points="711.6315,-81.8273 720.1303,-75.5011 709.5414,-75.1466 711.6315,-81.8273"/>
</g>
<!-- Node4 -->
<g id="node5" class="node">
<title>Node4</title>
<g id="a_node5"><a xlink:href="Span_8h.html" target="_top" xlink:title="iDynTree/Core/Span.h">
<polygon fill="none" stroke="#000000" points="258,-56.5 258,-75.5 379,-75.5 379,-56.5 258,-56.5"/>
<text text-anchor="middle" x="318.5" y="-63.5" font-family="FreeSans.ttf" font-size="10.00" fill="#000000">iDynTree/Core/Span.h</text>
</a>
</g>
</g>
<!-- Node1&#45;&gt;Node4 -->
<g id="edge4" class="edge">
<title>Node1&#45;&gt;Node4</title>
<path fill="none" stroke="#191970" d="M528.2952,-112.4369C484.9053,-102.8328 417.9791,-88.0191 371.4274,-77.7152"/>
<polygon fill="#191970" stroke="#191970" points="372.0467,-74.2676 361.5266,-75.5237 370.5338,-81.1022 372.0467,-74.2676"/>
</g>
<!-- Node5 -->
<g id="node6" class="node">
<title>Node5</title>
<polygon fill="none" stroke="#bfbfbf" points="556.5,-.5 556.5,-19.5 608.5,-19.5 608.5,-.5 556.5,-.5"/>
<text text-anchor="middle" x="582.5" y="-7.5" font-family="FreeSans.ttf" font-size="10.00" fill="#000000">cassert</text>
</g>
<!-- Node1&#45;&gt;Node5 -->
<g id="edge16" class="edge">
<title>Node1&#45;&gt;Node5</title>
<path fill="none" stroke="#191970" d="M571.8192,-112.1369C572.3012,-99.2147 573.3912,-75.8625 575.5,-56 576.4147,-47.3847 577.7916,-37.9144 579.0828,-29.8176"/>
<polygon fill="#191970" stroke="#191970" points="582.5547,-30.2752 580.7392,-19.8371 575.6491,-29.1292 582.5547,-30.2752"/>
</g>
<!-- Node13 -->
<g id="node14" class="node">
<title>Node13</title>
<polygon fill="none" stroke="#bfbfbf" points="397.5,-56.5 397.5,-75.5 441.5,-75.5 441.5,-56.5 397.5,-56.5"/>
<text text-anchor="middle" x="419.5" y="-63.5" font-family="FreeSans.ttf" font-size="10.00" fill="#000000">string</text>
</g>
<!-- Node1&#45;&gt;Node13 -->
<g id="edge14" class="edge">
<title>Node1&#45;&gt;Node13</title>
<path fill="none" stroke="#191970" d="M545.3703,-112.3733C519.3649,-102.7923 479.4119,-88.0728 451.5152,-77.7951"/>
<polygon fill="#191970" stroke="#191970" points="452.4246,-74.4002 441.8311,-74.2273 450.0046,-80.9686 452.4246,-74.4002"/>
</g>
<!-- Node14 -->
<g id="node15" class="node">
<title>Node14</title>
<polygon fill="none" stroke="#bfbfbf" points="828.5,-56.5 828.5,-75.5 884.5,-75.5 884.5,-56.5 828.5,-56.5"/>
<text text-anchor="middle" x="856.5" y="-63.5" font-family="FreeSans.ttf" font-size="10.00" fill="#000000">sstream</text>
</g>
<!-- Node1&#45;&gt;Node14 -->
<g id="edge15" class="edge">
<title>Node1&#45;&gt;Node14</title>
<path fill="none" stroke="#191970" d="M630.1487,-112.4927C678.309,-104.3736 748.4814,-91.8327 818.4131,-76.1176"/>
<polygon fill="#191970" stroke="#191970" points="819.2994,-79.5055 828.2768,-73.8792 817.7502,-72.6791 819.2994,-79.5055"/>
</g>
<!-- Node15 -->
<g id="node16" class="node">
<title>Node15</title>
<polygon fill="none" stroke="#bfbfbf" points="584.5,-56.5 584.5,-75.5 634.5,-75.5 634.5,-56.5 584.5,-56.5"/>
<text text-anchor="middle" x="609.5" y="-63.5" font-family="FreeSans.ttf" font-size="10.00" fill="#000000">cstring</text>
</g>
<!-- Node1&#45;&gt;Node15 -->
<g id="edge17" class="edge">
<title>Node1&#45;&gt;Node15</title>
<path fill="none" stroke="#191970" d="M578.1191,-112.2455C583.4046,-104.4564 590.9541,-93.3308 597.3238,-83.9439"/>
<polygon fill="#191970" stroke="#191970" points="600.2379,-85.8827 602.9568,-75.6427 594.4455,-81.9522 600.2379,-85.8827"/>
</g>
<!-- Node3 -->
<g id="node4" class="node">
<title>Node3</title>
<polygon fill="none" stroke="#bfbfbf" points="676,-.5 676,-19.5 729,-19.5 729,-.5 676,-.5"/>
<text text-anchor="middle" x="702.5" y="-7.5" font-family="FreeSans.ttf" font-size="10.00" fill="#000000">cstddef</text>
</g>
<!-- Node2&#45;&gt;Node3 -->
<g id="edge3" class="edge">
<title>Node2&#45;&gt;Node3</title>
<path fill="none" stroke="#191970" d="M742.139,-56.2455C735.325,-48.2958 725.5319,-36.8706 717.3848,-27.3656"/>
<polygon fill="#191970" stroke="#191970" points="719.9305,-24.9575 710.7651,-19.6427 714.6157,-29.513 719.9305,-24.9575"/>
</g>
<!-- Node4&#45;&gt;Node3 -->
<g id="edge8" class="edge">
<title>Node4&#45;&gt;Node3</title>
<path fill="none" stroke="#191970" d="M379.3459,-57.1266C460.0436,-45.3582 599.9516,-24.955 665.9893,-15.3245"/>
<polygon fill="#191970" stroke="#191970" points="666.5431,-18.7808 675.9333,-13.8743 665.5328,-11.8541 666.5431,-18.7808"/>
</g>
<!-- Node4&#45;&gt;Node5 -->
<g id="edge5" class="edge">
<title>Node4&#45;&gt;Node5</title>
<path fill="none" stroke="#191970" d="M371.2588,-56.4694C417.6216,-47.8295 486.8083,-34.2925 546.5,-20 546.5986,-19.9764 546.6973,-19.9527 546.7961,-19.9289"/>
<polygon fill="#191970" stroke="#191970" points="547.3801,-23.3918 556.2106,-17.5375 545.6567,-16.6073 547.3801,-23.3918"/>
</g>
<!-- Node6 -->
<g id="node7" class="node">
<title>Node6</title>
<polygon fill="none" stroke="#bfbfbf" points="46.5,-.5 46.5,-19.5 110.5,-19.5 110.5,-.5 46.5,-.5"/>
<text text-anchor="middle" x="78.5" y="-7.5" font-family="FreeSans.ttf" font-size="10.00" fill="#000000">algorithm</text>
</g>
<!-- Node4&#45;&gt;Node6 -->
<g id="edge6" class="edge">
<title>Node4&#45;&gt;Node6</title>
<path fill="none" stroke="#191970" d="M276.5371,-56.4547C238.3647,-47.737 180.2024,-34.3681 120.6718,-20.2599"/>
<polygon fill="#191970" stroke="#191970" points="121.2581,-16.8018 110.7201,-17.8974 119.6413,-23.6126 121.2581,-16.8018"/>
</g>
<!-- Node7 -->
<g id="node8" class="node">
<title>Node7</title>
<polygon fill="none" stroke="#bfbfbf" points="128.5,-.5 128.5,-19.5 170.5,-19.5 170.5,-.5 128.5,-.5"/>
<text text-anchor="middle" x="149.5" y="-7.5" font-family="FreeSans.ttf" font-size="10.00" fill="#000000">array</text>
</g>
<!-- Node4&#45;&gt;Node7 -->
<g id="edge7" class="edge">
<title>Node4&#45;&gt;Node7</title>
<path fill="none" stroke="#191970" d="M289.4755,-56.415C263.2736,-47.7577 223.4167,-34.5777 180.3348,-20.2731"/>
<polygon fill="#191970" stroke="#191970" points="181.3969,-16.9379 170.8034,-17.1074 179.1904,-23.5811 181.3969,-16.9379"/>
</g>
<!-- Node8 -->
<g id="node9" class="node">
<title>Node8</title>
<polygon fill="none" stroke="#bfbfbf" points="189,-.5 189,-19.5 242,-19.5 242,-.5 189,-.5"/>
<text text-anchor="middle" x="215.5" y="-7.5" font-family="FreeSans.ttf" font-size="10.00" fill="#000000">iterator</text>
</g>
<!-- Node4&#45;&gt;Node8 -->
<g id="edge9" class="edge">
<title>Node4&#45;&gt;Node8</title>
<path fill="none" stroke="#191970" d="M300.5588,-56.2455C284.46,-47.4928 260.6121,-34.527 242.2609,-24.5496"/>
<polygon fill="#191970" stroke="#191970" points="243.6929,-21.3444 233.2356,-19.6427 240.3493,-27.4942 243.6929,-21.3444"/>
</g>
<!-- Node9 -->
<g id="node10" class="node">
<title>Node9</title>
<polygon fill="none" stroke="#bfbfbf" points="260.5,-.5 260.5,-19.5 304.5,-19.5 304.5,-.5 260.5,-.5"/>
<text text-anchor="middle" x="282.5" y="-7.5" font-family="FreeSans.ttf" font-size="10.00" fill="#000000">limits</text>
</g>
<!-- Node4&#45;&gt;Node9 -->
<g id="edge10" class="edge">
<title>Node4&#45;&gt;Node9</title>
<path fill="none" stroke="#191970" d="M312.2293,-56.2455C307.2736,-48.5367 300.217,-37.5598 294.2224,-28.2348"/>
<polygon fill="#191970" stroke="#191970" points="297.0506,-26.1618 288.6989,-19.6427 291.1624,-29.9471 297.0506,-26.1618"/>
</g>
<!-- Node10 -->
<g id="node11" class="node">
<title>Node10</title>
<polygon fill="none" stroke="#bfbfbf" points="323,-.5 323,-19.5 388,-19.5 388,-.5 323,-.5"/>
<text text-anchor="middle" x="355.5" y="-7.5" font-family="FreeSans.ttf" font-size="10.00" fill="#000000">stdexcept</text>
</g>
<!-- Node4&#45;&gt;Node10 -->
<g id="edge11" class="edge">
<title>Node4&#45;&gt;Node10</title>
<path fill="none" stroke="#191970" d="M324.9449,-56.2455C330.0382,-48.5367 337.2908,-37.5598 343.452,-28.2348"/>
<polygon fill="#191970" stroke="#191970" points="346.5365,-29.9155 349.1289,-19.6427 340.6962,-26.0566 346.5365,-29.9155"/>
</g>
<!-- Node11 -->
<g id="node12" class="node">
<title>Node11</title>
<polygon fill="none" stroke="#bfbfbf" points="406,-.5 406,-19.5 475,-19.5 475,-.5 406,-.5"/>
<text text-anchor="middle" x="440.5" y="-7.5" font-family="FreeSans.ttf" font-size="10.00" fill="#000000">type_traits</text>
</g>
<!-- Node4&#45;&gt;Node11 -->
<g id="edge12" class="edge">
<title>Node4&#45;&gt;Node11</title>
<path fill="none" stroke="#191970" d="M339.4725,-56.3733C359.0567,-47.3838 388.4961,-33.8706 410.551,-23.7471"/>
<polygon fill="#191970" stroke="#191970" points="412.1729,-26.8538 419.8011,-19.5011 409.2527,-20.4919 412.1729,-26.8538"/>
</g>
<!-- Node12 -->
<g id="node13" class="node">
<title>Node12</title>
<polygon fill="none" stroke="#bfbfbf" points="493,-.5 493,-19.5 538,-19.5 538,-.5 493,-.5"/>
<text text-anchor="middle" x="515.5" y="-7.5" font-family="FreeSans.ttf" font-size="10.00" fill="#000000">utility</text>
</g>
<!-- Node4&#45;&gt;Node12 -->
<g id="edge13" class="edge">
<title>Node4&#45;&gt;Node12</title>
<path fill="none" stroke="#191970" d="M353.996,-56.4459C385.4453,-47.905 432.8362,-34.8509 483.0587,-20.0679"/>
<polygon fill="#191970" stroke="#191970" points="484.2028,-23.3795 492.8009,-17.1888 482.2189,-16.6665 484.2028,-23.3795"/>
</g>
<!-- Node16&#45;&gt;Node4 -->
<g id="edge19" class="edge">
<title>Node16&#45;&gt;Node4</title>
<path fill="none" stroke="#191970" d="M123.6309,-112.4369C163.7649,-102.8731 225.5775,-88.1432 268.7933,-77.845"/>
<polygon fill="#191970" stroke="#191970" points="269.6183,-81.2465 278.5346,-75.5237 267.9956,-74.4372 269.6183,-81.2465"/>
</g>
<!-- Node16&#45;&gt;Node13 -->
<g id="edge20" class="edge">
<title>Node16&#45;&gt;Node13</title>
<path fill="none" stroke="#191970" d="M167.0461,-112.8461C228.4842,-105.2719 313.769,-92.994 387.5,-76 387.5993,-75.9771 387.6987,-75.9541 387.7982,-75.9309"/>
<polygon fill="#191970" stroke="#191970" points="388.4673,-79.3744 397.2396,-73.4333 386.6771,-72.6072 388.4673,-79.3744"/>
</g>
<!-- Node17&#45;&gt;Node1 -->
<g id="edge22" class="edge">
<title>Node17&#45;&gt;Node1</title>
<path fill="none" stroke="#191970" d="M796.1597,-392.49C788.4802,-382.8135 779.5677,-369.5445 775.5,-356 751.2201,-275.1544 856.044,-233.2577 802.5,-168 792.7594,-156.1285 714.916,-142.3508 652.2452,-132.9913"/>
<polygon fill="#191970" stroke="#191970" points="652.7338,-129.5256 642.33,-131.5281 651.7118,-136.4506 652.7338,-129.5256"/>
</g>
<!-- Node18 -->
<g id="node19" class="node">
<title>Node18</title>
<g id="a_node19"><a xlink:href="GeomVector3_8h.html" target="_top" xlink:title="iDynTree/Core/GeomVector3.h">
<polygon fill="none" stroke="#000000" points="630,-168.5 630,-187.5 793,-187.5 793,-168.5 630,-168.5"/>
<text text-anchor="middle" x="711.5" y="-175.5" font-family="FreeSans.ttf" font-size="10.00" fill="#000000">iDynTree/Core/GeomVector3.h</text>
</a>
</g>
</g>
<!-- Node17&#45;&gt;Node18 -->
<g id="edge23" class="edge">
<title>Node17&#45;&gt;Node18</title>
<path fill="none" stroke="#191970" d="M780.4611,-392.4251C766.4857,-383.6685 750.7863,-371.3251 741.5,-356 710.8581,-305.4323 709.0873,-232.7174 710.2753,-197.967"/>
<polygon fill="#191970" stroke="#191970" points="713.7833,-197.8769 710.7542,-187.7243 706.7909,-197.5499 713.7833,-197.8769"/>
</g>
<!-- Node19 -->
<g id="node20" class="node">
<title>Node19</title>
<g id="a_node20"><a xlink:href="SpatialVector_8h.html" target="_top" xlink:title="iDynTree/Core/SpatialVector.h">
<polygon fill="none" stroke="#000000" points="784,-336.5 784,-355.5 945,-355.5 945,-336.5 784,-336.5"/>
<text text-anchor="middle" x="864.5" y="-343.5" font-family="FreeSans.ttf" font-size="10.00" fill="#000000">iDynTree/Core/SpatialVector.h</text>
</a>
</g>
</g>
<!-- Node17&#45;&gt;Node19 -->
<g id="edge25" class="edge">
<title>Node17&#45;&gt;Node19</title>
<path fill="none" stroke="#191970" d="M823.0955,-392.2977C830.8891,-383.5831 840.7047,-372.6075 848.8226,-363.5302"/>
<polygon fill="#191970" stroke="#191970" points="851.6365,-365.6341 855.6938,-355.8469 846.4187,-360.9678 851.6365,-365.6341"/>
</g>
<!-- Node18&#45;&gt;Node1 -->
<g id="edge24" class="edge">
<title>Node18&#45;&gt;Node1</title>
<path fill="none" stroke="#191970" d="M687.4331,-168.3733C664.6572,-159.2629 630.2656,-145.5062 604.851,-135.3404"/>
<polygon fill="#191970" stroke="#191970" points="605.8375,-131.9654 595.2528,-131.5011 603.2377,-138.4648 605.8375,-131.9654"/>
</g>
<!-- Node19&#45;&gt;Node2 -->
<g id="edge45" class="edge">
<title>Node19&#45;&gt;Node2</title>
<path fill="none" stroke="#191970" d="M863.7836,-336.4181C862.4011,-317.0718 859.5,-271.9544 859.5,-234 859.5,-234 859.5,-234 859.5,-178 859.5,-147.4754 859.9136,-135.5556 840.5,-112 828.2787,-97.1712 810.0446,-86.6116 793.1782,-79.3823"/>
<polygon fill="#191970" stroke="#191970" points="794.0463,-75.9603 783.4613,-75.5035 791.4511,-82.4615 794.0463,-75.9603"/>
</g>
<!-- Node19&#45;&gt;Node14 -->
<g id="edge48" class="edge">
<title>Node19&#45;&gt;Node14</title>
<path fill="none" stroke="#191970" d="M869.3693,-336.3939C878.5488,-317.3677 897.5,-273.3256 897.5,-234 897.5,-234 897.5,-234 897.5,-178 897.5,-143.3444 879.9755,-106.1312 867.8408,-84.5174"/>
<polygon fill="#191970" stroke="#191970" points="870.7886,-82.6243 862.727,-75.7496 864.7419,-86.1511 870.7886,-82.6243"/>
</g>
<!-- Node19&#45;&gt;Node18 -->
<g id="edge46" class="edge">
<title>Node19&#45;&gt;Node18</title>
<path fill="none" stroke="#191970" d="M855.8357,-336.4862C831.0217,-309.2396 759.4192,-230.6172 727.3552,-195.4096"/>
<polygon fill="#191970" stroke="#191970" points="729.7714,-192.8647 720.4504,-187.8279 724.596,-197.578 729.7714,-192.8647"/>
</g>
<!-- Node20 -->
<g id="node21" class="node">
<title>Node20</title>
<g id="a_node21"><a xlink:href="Position_8h.html" target="_top" xlink:title="Position.h">
<polygon fill="none" stroke="#000000" points="408,-280.5 408,-299.5 473,-299.5 473,-280.5 408,-280.5"/>
<text text-anchor="middle" x="440.5" y="-287.5" font-family="FreeSans.ttf" font-size="10.00" fill="#000000">Position.h</text>
</a>
</g>
</g>
<!-- Node19&#45;&gt;Node20 -->
<g id="edge26" class="edge">
<title>Node19&#45;&gt;Node20</title>
<path fill="none" stroke="#191970" d="M792.0936,-336.4369C703.272,-324.7057 555.6002,-305.2019 483.1894,-295.6382"/>
<polygon fill="#191970" stroke="#191970" points="483.4401,-292.141 473.0679,-294.3014 482.5235,-299.0808 483.4401,-292.141"/>
</g>
<!-- Node22 -->
<g id="node23" class="node">
<title>Node22</title>
<g id="a_node23"><a xlink:href="Rotation_8h.html" target="_top" xlink:title="iDynTree/Core/Rotation.h">
<polygon fill="none" stroke="#000000" points="471,-224.5 471,-243.5 608,-243.5 608,-224.5 471,-224.5"/>
<text text-anchor="middle" x="539.5" y="-231.5" font-family="FreeSans.ttf" font-size="10.00" fill="#000000">iDynTree/Core/Rotation.h</text>
</a>
</g>
</g>
<!-- Node19&#45;&gt;Node22 -->
<g id="edge44" class="edge">
<title>Node19&#45;&gt;Node22</title>
<path fill="none" stroke="#191970" d="M836.7907,-336.4509C778.3872,-316.3242 642.6188,-269.5363 576.7162,-246.8253"/>
<polygon fill="#191970" stroke="#191970" points="577.7339,-243.474 567.1392,-243.5249 575.4532,-250.0921 577.7339,-243.474"/>
</g>
<!-- Node25 -->
<g id="node26" class="node">
<title>Node25</title>
<polygon fill="none" stroke="#bfbfbf" points="922.5,-56.5 922.5,-75.5 982.5,-75.5 982.5,-56.5 922.5,-56.5"/>
<text text-anchor="middle" x="952.5" y="-63.5" font-family="FreeSans.ttf" font-size="10.00" fill="#000000">iostream</text>
</g>
<!-- Node19&#45;&gt;Node25 -->
<g id="edge47" class="edge">
<title>Node19&#45;&gt;Node25</title>
<path fill="none" stroke="#191970" d="M874.5308,-336.3516C882.9963,-327.6361 894.7802,-314.0546 901.5,-300 936.7465,-226.2809 947.9328,-127.8455 951.2281,-86.0856"/>
<polygon fill="#191970" stroke="#191970" points="954.7358,-86.1029 951.9618,-75.8777 947.7538,-85.6011 954.7358,-86.1029"/>
</g>
<!-- Node20&#45;&gt;Node13 -->
<g id="edge43" class="edge">
<title>Node20&#45;&gt;Node13</title>
<path fill="none" stroke="#191970" d="M407.8689,-287.5325C352.8167,-281.408 242.7772,-260.28 194.5,-188 189.5629,-180.6083 189.6839,-175.4711 194.5,-168 205.7305,-150.5782 328.3037,-101.3038 387.6564,-78.2179"/>
<polygon fill="#191970" stroke="#191970" points="389.2289,-81.3622 397.2887,-74.4854 386.6996,-74.8351 389.2289,-81.3622"/>
</g>
<!-- Node21 -->
<g id="node22" class="node">
<title>Node21</title>
<g id="a_node22"><a xlink:href="PositionRaw_8h.html" target="_top" xlink:title="iDynTree/Core/PositionRaw.h">
<polygon fill="none" stroke="#000000" points="203.5,-168.5 203.5,-187.5 359.5,-187.5 359.5,-168.5 203.5,-168.5"/>
<text text-anchor="middle" x="281.5" y="-175.5" font-family="FreeSans.ttf" font-size="10.00" fill="#000000">iDynTree/Core/PositionRaw.h</text>
</a>
</g>
</g>
<!-- Node20&#45;&gt;Node21 -->
<g id="edge27" class="edge">
<title>Node20&#45;&gt;Node21</title>
<path fill="none" stroke="#191970" d="M426.9437,-280.4509C399.3684,-261.0268 336.54,-216.7703 303.2056,-193.2895"/>
<polygon fill="#191970" stroke="#191970" points="305.2129,-190.4223 295.0219,-187.5249 301.1818,-196.1451 305.2129,-190.4223"/>
</g>
<!-- Node20&#45;&gt;Node22 -->
<g id="edge30" class="edge">
<title>Node20&#45;&gt;Node22</title>
<path fill="none" stroke="#191970" d="M457.7445,-280.2455C473.0761,-271.5731 495.7199,-258.7645 513.2916,-248.825"/>
<polygon fill="#191970" stroke="#191970" points="515.4724,-251.6126 522.4531,-243.6427 512.0259,-245.5198 515.4724,-251.6126"/>
</g>
<!-- Node21&#45;&gt;Node1 -->
<g id="edge28" class="edge">
<title>Node21&#45;&gt;Node1</title>
<path fill="none" stroke="#191970" d="M331.0233,-168.4369C381.1759,-158.7522 458.761,-143.7703 512.1697,-133.4569"/>
<polygon fill="#191970" stroke="#191970" points="513.026,-136.8563 522.181,-131.5237 511.6987,-129.9832 513.026,-136.8563"/>
</g>
<!-- Node21&#45;&gt;Node13 -->
<g id="edge29" class="edge">
<title>Node21&#45;&gt;Node13</title>
<path fill="none" stroke="#191970" d="M293.2658,-168.4509C316.9955,-149.1921 370.8035,-105.5218 399.9169,-81.8935"/>
<polygon fill="#191970" stroke="#191970" points="402.205,-84.5442 407.764,-75.5249 397.7938,-79.109 402.205,-84.5442"/>
</g>
<!-- Node22&#45;&gt;Node1 -->
<g id="edge42" class="edge">
<title>Node22&#45;&gt;Node1</title>
<path fill="none" stroke="#191970" d="M552.831,-224.3825C563.1173,-216.0729 576.5611,-203.0499 582.5,-188 588.4216,-172.9938 584.6813,-154.846 580.0193,-141.3811"/>
<polygon fill="#191970" stroke="#191970" points="583.1499,-139.776 576.2499,-131.736 576.6301,-142.324 583.1499,-139.776"/>
</g>
<!-- Node22&#45;&gt;Node13 -->
<g id="edge31" class="edge">
<title>Node22&#45;&gt;Node13</title>
<path fill="none" stroke="#191970" d="M495.0984,-224.4639C460.6736,-216.0647 417.0953,-202.8756 406.5,-188 384.6695,-157.3503 399.1593,-110.9046 410.2374,-85.0594"/>
<polygon fill="#191970" stroke="#191970" points="413.565,-86.197 414.5182,-75.6452 407.1928,-83.2995 413.565,-86.197"/>
</g>
<!-- Node22&#45;&gt;Node18 -->
<g id="edge32" class="edge">
<title>Node22&#45;&gt;Node18</title>
<path fill="none" stroke="#191970" d="M569.0679,-224.3733C597.6688,-215.0613 641.1788,-200.8953 672.5819,-190.671"/>
<polygon fill="#191970" stroke="#191970" points="673.8928,-193.9251 682.318,-187.5011 671.7257,-187.269 673.8928,-193.9251"/>
</g>
<!-- Node23 -->
<g id="node24" class="node">
<title>Node23</title>
<g id="a_node24"><a xlink:href="RotationRaw_8h.html" target="_top" xlink:title="iDynTree/Core/RotationRaw.h">
<polygon fill="none" stroke="#000000" points="415.5,-168.5 415.5,-187.5 573.5,-187.5 573.5,-168.5 415.5,-168.5"/>
<text text-anchor="middle" x="494.5" y="-175.5" font-family="FreeSans.ttf" font-size="10.00" fill="#000000">iDynTree/Core/RotationRaw.h</text>
</a>
</g>
</g>
<!-- Node22&#45;&gt;Node23 -->
<g id="edge33" class="edge">
<title>Node22&#45;&gt;Node23</title>
<path fill="none" stroke="#191970" d="M531.6616,-224.2455C525.338,-216.3761 516.2776,-205.101 508.6864,-195.6542"/>
<polygon fill="#191970" stroke="#191970" points="511.2408,-193.2454 502.2486,-187.6427 505.7842,-197.6302 511.2408,-193.2454"/>
</g>
<!-- Node23&#45;&gt;Node13 -->
<g id="edge41" class="edge">
<title>Node23&#45;&gt;Node13</title>
<path fill="none" stroke="#191970" d="M488.1055,-168.4509C475.5964,-149.7707 447.7079,-108.1238 431.6046,-84.0761"/>
<polygon fill="#191970" stroke="#191970" points="434.3506,-81.8865 425.8783,-75.5249 428.5342,-85.7814 434.3506,-81.8865"/>
</g>
<!-- Node24 -->
<g id="node25" class="node">
<title>Node24</title>
<g id="a_node25"><a xlink:href="MatrixFixSize_8h.html" target="_top" xlink:title="iDynTree/Core/MatrixFixSize.h">
<polygon fill="none" stroke="#000000" points="670,-112.5 670,-131.5 831,-131.5 831,-112.5 670,-112.5"/>
<text text-anchor="middle" x="750.5" y="-119.5" font-family="FreeSans.ttf" font-size="10.00" fill="#000000">iDynTree/Core/MatrixFixSize.h</text>
</a>
</g>
</g>
<!-- Node23&#45;&gt;Node24 -->
<g id="edge34" class="edge">
<title>Node23&#45;&gt;Node24</title>
<path fill="none" stroke="#191970" d="M538.2171,-168.4369C582.1216,-158.8328 649.8413,-144.0191 696.945,-133.7152"/>
<polygon fill="#191970" stroke="#191970" points="697.9422,-137.0799 706.9632,-131.5237 696.4463,-130.2416 697.9422,-137.0799"/>
</g>
<!-- Node24&#45;&gt;Node2 -->
<g id="edge35" class="edge">
<title>Node24&#45;&gt;Node2</title>
<path fill="none" stroke="#191970" d="M750.5,-112.2455C750.5,-104.9382 750.5,-94.6944 750.5,-85.7046"/>
<polygon fill="#191970" stroke="#191970" points="754.0001,-85.6426 750.5,-75.6427 747.0001,-85.6427 754.0001,-85.6426"/>
</g>
<!-- Node24&#45;&gt;Node5 -->
<g id="edge36" class="edge">
<title>Node24&#45;&gt;Node5</title>
<path fill="none" stroke="#191970" d="M736.1764,-112.4509C707.0402,-93.0268 640.6555,-48.7703 605.4342,-25.2895"/>
<polygon fill="#191970" stroke="#191970" points="607.0493,-22.1598 596.7873,-19.5249 603.1664,-27.9841 607.0493,-22.1598"/>
</g>
<!-- Node24&#45;&gt;Node13 -->
<g id="edge38" class="edge">
<title>Node24&#45;&gt;Node13</title>
<path fill="none" stroke="#191970" d="M693.9752,-112.4369C624.2426,-100.6392 508.0456,-80.9805 451.8702,-71.4765"/>
<polygon fill="#191970" stroke="#191970" points="452.2291,-67.9876 441.7853,-69.7703 451.0613,-74.8895 452.2291,-67.9876"/>
</g>
<!-- Node24&#45;&gt;Node14 -->
<g id="edge40" class="edge">
<title>Node24&#45;&gt;Node14</title>
<path fill="none" stroke="#191970" d="M768.9638,-112.2455C785.6074,-103.4527 810.2993,-90.4079 829.2192,-80.4125"/>
<polygon fill="#191970" stroke="#191970" points="831.0408,-83.4086 838.2478,-75.6427 827.7709,-77.2193 831.0408,-83.4086"/>
</g>
<!-- Node24&#45;&gt;Node15 -->
<g id="edge37" class="edge">
<title>Node24&#45;&gt;Node15</title>
<path fill="none" stroke="#191970" d="M726.2612,-112.3733C703.2211,-103.2226 668.3786,-89.3844 642.7499,-79.2057"/>
<polygon fill="#191970" stroke="#191970" points="644.0082,-75.9395 633.4225,-75.5011 641.4244,-82.4452 644.0082,-75.9395"/>
</g>
<!-- Node24&#45;&gt;Node25 -->
<g id="edge39" class="edge">
<title>Node24&#45;&gt;Node25</title>
<path fill="none" stroke="#191970" d="M785.225,-112.3733C820.4881,-102.5974 875.0488,-87.4716 912.1964,-77.1733"/>
<polygon fill="#191970" stroke="#191970" points="913.4802,-80.4494 922.1817,-74.4051 911.6101,-73.7039 913.4802,-80.4494"/>
</g>
</g>
</svg>
