<?xml version="1.0" encoding="UTF-8" standalone="no"?>
<!DOCTYPE svg PUBLIC "-//W3C//DTD SVG 1.1//EN"
 "http://www.w3.org/Graphics/SVG/1.1/DTD/svg11.dtd">
<!-- Generated by graphviz version 2.40.1 (20161225.0304)
 -->
<!-- Title: JointElement.h Pages: 1 -->
<svg width="1338pt" height="420pt"
 viewBox="0.00 0.00 1337.78 420.00" xmlns="http://www.w3.org/2000/svg" xmlns:xlink="http://www.w3.org/1999/xlink">
<g id="graph0" class="graph" transform="scale(1 1) rotate(0) translate(4 416)">
<title>JointElement.h</title>
<!-- Node0 -->
<g id="node1" class="node">
<title>Node0</title>
<polygon fill="#bfbfbf" stroke="#000000" points="320,-392.5 320,-411.5 408,-411.5 408,-392.5 320,-392.5"/>
<text text-anchor="middle" x="364" y="-399.5" font-family="FreeSans.ttf" font-size="10.00" fill="#000000">JointElement.h</text>
</g>
<!-- Node1 -->
<g id="node2" class="node">
<title>Node1</title>
<g id="a_node2"><a xlink:href="XMLElement_8h.html" target="_top" xlink:title="iDynTree/XMLElement.h">
<polygon fill="none" stroke="#000000" points="151,-336.5 151,-355.5 283,-355.5 283,-336.5 151,-336.5"/>
<text text-anchor="middle" x="217" y="-343.5" font-family="FreeSans.ttf" font-size="10.00" fill="#000000">iDynTree/XMLElement.h</text>
</a>
</g>
</g>
<!-- Node0&#45;&gt;Node1 -->
<g id="edge1" class="edge">
<title>Node0&#45;&gt;Node1</title>
<path fill="none" stroke="#191970" d="M338.7298,-392.3733C314.6034,-383.1822 278.0638,-369.2624 251.3123,-359.0713"/>
<polygon fill="#191970" stroke="#191970" points="252.5313,-355.7904 241.9404,-355.5011 250.0393,-362.3318 252.5313,-355.7904"/>
</g>
<!-- Node3 -->
<g id="node4" class="node">
<title>Node3</title>
<polygon fill="none" stroke="#bfbfbf" points="0,-280.5 0,-299.5 58,-299.5 58,-280.5 0,-280.5"/>
<text text-anchor="middle" x="29" y="-287.5" font-family="FreeSans.ttf" font-size="10.00" fill="#000000">memory</text>
</g>
<!-- Node0&#45;&gt;Node3 -->
<g id="edge54" class="edge">
<title>Node0&#45;&gt;Node3</title>
<path fill="none" stroke="#191970" d="M319.8415,-397.1344C274.1664,-391.1234 201.346,-378.7775 142,-356 108.0713,-342.9779 72.4241,-320.4608 50.4529,-305.3988"/>
<polygon fill="#191970" stroke="#191970" points="52.3962,-302.4871 42.1905,-299.6421 48.3945,-308.2305 52.3962,-302.4871"/>
</g>
<!-- Node4 -->
<g id="node5" class="node">
<title>Node4</title>
<polygon fill="none" stroke="#bfbfbf" points="614,-56.5 614,-75.5 658,-75.5 658,-56.5 614,-56.5"/>
<text text-anchor="middle" x="636" y="-63.5" font-family="FreeSans.ttf" font-size="10.00" fill="#000000">string</text>
</g>
<!-- Node0&#45;&gt;Node4 -->
<g id="edge55" class="edge">
<title>Node0&#45;&gt;Node4</title>
<path fill="none" stroke="#191970" d="M367.0986,-392.2275C372.9401,-372.9094 385,-328.3796 385,-290 385,-290 385,-290 385,-178 385,-140.6561 405.4663,-132.0049 437,-112 464.4773,-94.5685 554.8389,-78.488 603.7951,-70.7808"/>
<polygon fill="#191970" stroke="#191970" points="604.5149,-74.2112 613.8617,-69.2223 603.4439,-67.2936 604.5149,-74.2112"/>
</g>
<!-- Node5 -->
<g id="node6" class="node">
<title>Node5</title>
<polygon fill="none" stroke="#bfbfbf" points="263.5,-280.5 263.5,-299.5 356.5,-299.5 356.5,-280.5 263.5,-280.5"/>
<text text-anchor="middle" x="310" y="-287.5" font-family="FreeSans.ttf" font-size="10.00" fill="#000000">unordered_map</text>
</g>
<!-- Node0&#45;&gt;Node5 -->
<g id="edge56" class="edge">
<title>Node0&#45;&gt;Node5</title>
<path fill="none" stroke="#191970" d="M359.396,-392.4509C350.4691,-373.936 330.6642,-332.8591 319.0251,-308.7187"/>
<polygon fill="#191970" stroke="#191970" points="322.0881,-307.0125 314.5924,-299.5249 315.7827,-310.0527 322.0881,-307.0125"/>
</g>
<!-- Node7 -->
<g id="node8" class="node">
<title>Node7</title>
<g id="a_node8"><a xlink:href="Axis_8h.html" target="_top" xlink:title="iDynTree/Core/Axis.h">
<polygon fill="none" stroke="#000000" points="413,-336.5 413,-355.5 531,-355.5 531,-336.5 413,-336.5"/>
<text text-anchor="middle" x="472" y="-343.5" font-family="FreeSans.ttf" font-size="10.00" fill="#000000">iDynTree/Core/Axis.h</text>
</a>
</g>
</g>
<!-- Node0&#45;&gt;Node7 -->
<g id="edge7" class="edge">
<title>Node0&#45;&gt;Node7</title>
<path fill="none" stroke="#191970" d="M382.8122,-392.2455C399.8473,-383.4125 425.1575,-370.2887 444.4681,-360.2758"/>
<polygon fill="#191970" stroke="#191970" points="446.137,-363.353 453.4034,-355.6427 442.9147,-357.1388 446.137,-363.353"/>
</g>
<!-- Node30 -->
<g id="node31" class="node">
<title>Node30</title>
<g id="a_node31"><a xlink:href="Transform_8h.html" target="_top" xlink:title="iDynTree/Core/Transform.h">
<polygon fill="none" stroke="#000000" points="645,-336.5 645,-355.5 791,-355.5 791,-336.5 645,-336.5"/>
<text text-anchor="middle" x="718" y="-343.5" font-family="FreeSans.ttf" font-size="10.00" fill="#000000">iDynTree/Core/Transform.h</text>
</a>
</g>
</g>
<!-- Node0&#45;&gt;Node30 -->
<g id="edge49" class="edge">
<title>Node0&#45;&gt;Node30</title>
<path fill="none" stroke="#191970" d="M408.1186,-395.0208C468.1815,-385.5193 576.353,-368.4074 647.6724,-357.1253"/>
<polygon fill="#191970" stroke="#191970" points="648.5871,-360.5242 657.9174,-355.5046 647.4933,-353.6102 648.5871,-360.5242"/>
</g>
<!-- Node2 -->
<g id="node3" class="node">
<title>Node2</title>
<polygon fill="none" stroke="#bfbfbf" points="76.5,-280.5 76.5,-299.5 141.5,-299.5 141.5,-280.5 76.5,-280.5"/>
<text text-anchor="middle" x="109" y="-287.5" font-family="FreeSans.ttf" font-size="10.00" fill="#000000">functional</text>
</g>
<!-- Node1&#45;&gt;Node2 -->
<g id="edge2" class="edge">
<title>Node1&#45;&gt;Node2</title>
<path fill="none" stroke="#191970" d="M198.1878,-336.2455C181.1527,-327.4125 155.8425,-314.2887 136.5319,-304.2758"/>
<polygon fill="#191970" stroke="#191970" points="138.0853,-301.1388 127.5966,-299.6427 134.863,-307.353 138.0853,-301.1388"/>
</g>
<!-- Node1&#45;&gt;Node3 -->
<g id="edge3" class="edge">
<title>Node1&#45;&gt;Node3</title>
<path fill="none" stroke="#191970" d="M184.6816,-336.3733C152.2895,-326.7245 102.4014,-311.8642 67.8676,-301.5776"/>
<polygon fill="#191970" stroke="#191970" points="68.7043,-298.1749 58.1213,-298.6744 66.7059,-304.8836 68.7043,-298.1749"/>
</g>
<!-- Node1&#45;&gt;Node4 -->
<g id="edge4" class="edge">
<title>Node1&#45;&gt;Node4</title>
<path fill="none" stroke="#191970" d="M219.579,-336.4945C224.5561,-317.2857 235,-272.4032 235,-234 235,-234 235,-234 235,-178 235,-101.6138 508.3301,-75.0155 603.6657,-68.0614"/>
<polygon fill="#191970" stroke="#191970" points="604.1398,-71.5368 613.8693,-67.3432 603.6482,-64.554 604.1398,-71.5368"/>
</g>
<!-- Node1&#45;&gt;Node5 -->
<g id="edge5" class="edge">
<title>Node1&#45;&gt;Node5</title>
<path fill="none" stroke="#191970" d="M233.1994,-336.2455C247.6018,-327.5731 268.8732,-314.7645 285.3799,-304.825"/>
<polygon fill="#191970" stroke="#191970" points="287.225,-307.7996 293.9863,-299.6427 283.614,-301.8028 287.225,-307.7996"/>
</g>
<!-- Node6 -->
<g id="node7" class="node">
<title>Node6</title>
<polygon fill="none" stroke="#bfbfbf" points="159.5,-280.5 159.5,-299.5 206.5,-299.5 206.5,-280.5 159.5,-280.5"/>
<text text-anchor="middle" x="183" y="-287.5" font-family="FreeSans.ttf" font-size="10.00" fill="#000000">vector</text>
</g>
<!-- Node1&#45;&gt;Node6 -->
<g id="edge6" class="edge">
<title>Node1&#45;&gt;Node6</title>
<path fill="none" stroke="#191970" d="M211.0777,-336.2455C206.3973,-328.5367 199.7327,-317.5598 194.0711,-308.2348"/>
<polygon fill="#191970" stroke="#191970" points="197.0361,-306.3741 188.8545,-299.6427 191.0525,-310.007 197.0361,-306.3741"/>
</g>
<!-- Node7&#45;&gt;Node4 -->
<g id="edge8" class="edge">
<title>Node7&#45;&gt;Node4</title>
<path fill="none" stroke="#191970" d="M464.558,-336.4319C450.8504,-317.819 423,-274.9622 423,-234 423,-234 423,-234 423,-178 423,-97.3998 543.9597,-74.6741 603.573,-68.3683"/>
<polygon fill="#191970" stroke="#191970" points="603.9898,-71.8444 613.6078,-67.401 603.3182,-64.8767 603.9898,-71.8444"/>
</g>
<!-- Node8 -->
<g id="node9" class="node">
<title>Node8</title>
<g id="a_node9"><a xlink:href="Direction_8h.html" target="_top" xlink:title="iDynTree/Core/Direction.h">
<polygon fill="none" stroke="#000000" points="565.5,-168.5 565.5,-187.5 706.5,-187.5 706.5,-168.5 565.5,-168.5"/>
<text text-anchor="middle" x="636" y="-175.5" font-family="FreeSans.ttf" font-size="10.00" fill="#000000">iDynTree/Core/Direction.h</text>
</a>
</g>
</g>
<!-- Node7&#45;&gt;Node8 -->
<g id="edge9" class="edge">
<title>Node7&#45;&gt;Node8</title>
<path fill="none" stroke="#191970" d="M481.2872,-336.4862C507.8852,-309.2396 584.6356,-230.6172 619.0049,-195.4096"/>
<polygon fill="#191970" stroke="#191970" points="621.9252,-197.4285 626.4061,-187.8279 616.9162,-192.5388 621.9252,-197.4285"/>
</g>
<!-- Node10 -->
<g id="node11" class="node">
<title>Node10</title>
<g id="a_node11"><a xlink:href="Utils_8h.html" target="_top" xlink:title="iDynTree/Core/Utils.h">
<polygon fill="none" stroke="#000000" points="750.5,-56.5 750.5,-75.5 869.5,-75.5 869.5,-56.5 750.5,-56.5"/>
<text text-anchor="middle" x="810" y="-63.5" font-family="FreeSans.ttf" font-size="10.00" fill="#000000">iDynTree/Core/Utils.h</text>
</a>
</g>
</g>
<!-- Node7&#45;&gt;Node10 -->
<g id="edge48" class="edge">
<title>Node7&#45;&gt;Node10</title>
<path fill="none" stroke="#191970" d="M473.9808,-336.4384C480.5201,-307.1596 504.0904,-217.7129 557,-168 610.3159,-117.9053 691.409,-91.1272 747.3437,-77.7664"/>
<polygon fill="#191970" stroke="#191970" points="748.1806,-81.1653 757.1353,-75.5028 746.6039,-74.3452 748.1806,-81.1653"/>
</g>
<!-- Node23 -->
<g id="node24" class="node">
<title>Node23</title>
<g id="a_node24"><a xlink:href="Position_8h.html" target="_top" xlink:title="iDynTree/Core/Position.h">
<polygon fill="none" stroke="#000000" points="650,-280.5 650,-299.5 786,-299.5 786,-280.5 650,-280.5"/>
<text text-anchor="middle" x="718" y="-287.5" font-family="FreeSans.ttf" font-size="10.00" fill="#000000">iDynTree/Core/Position.h</text>
</a>
</g>
</g>
<!-- Node7&#45;&gt;Node23 -->
<g id="edge29" class="edge">
<title>Node7&#45;&gt;Node23</title>
<path fill="none" stroke="#191970" d="M514.0094,-336.4369C556.1104,-326.8529 621.0005,-312.0812 666.2521,-301.78"/>
<polygon fill="#191970" stroke="#191970" points="667.1902,-305.1561 676.1639,-299.5237 665.6364,-298.3307 667.1902,-305.1561"/>
</g>
<!-- Node8&#45;&gt;Node4 -->
<g id="edge10" class="edge">
<title>Node8&#45;&gt;Node4</title>
<path fill="none" stroke="#191970" d="M636,-168.4509C636,-150.184 636,-109.9553 636,-85.6976"/>
<polygon fill="#191970" stroke="#191970" points="639.5001,-85.5249 636,-75.5249 632.5001,-85.5249 639.5001,-85.5249"/>
</g>
<!-- Node9 -->
<g id="node10" class="node">
<title>Node9</title>
<g id="a_node10"><a xlink:href="VectorFixSize_8h.html" target="_top" xlink:title="iDynTree/Core/VectorFixSize.h">
<polygon fill="none" stroke="#000000" points="938.5,-112.5 938.5,-131.5 1099.5,-131.5 1099.5,-112.5 938.5,-112.5"/>
<text text-anchor="middle" x="1019" y="-119.5" font-family="FreeSans.ttf" font-size="10.00" fill="#000000">iDynTree/Core/VectorFixSize.h</text>
</a>
</g>
</g>
<!-- Node8&#45;&gt;Node9 -->
<g id="edge11" class="edge">
<title>Node8&#45;&gt;Node9</title>
<path fill="none" stroke="#191970" d="M701.4049,-168.4369C768.6048,-158.6113 873.0969,-143.3331 943.7021,-133.0096"/>
<polygon fill="#191970" stroke="#191970" points="944.4765,-136.4337 953.8649,-131.5237 943.4637,-129.5073 944.4765,-136.4337"/>
</g>
<!-- Node8&#45;&gt;Node10 -->
<g id="edge28" class="edge">
<title>Node8&#45;&gt;Node10</title>
<path fill="none" stroke="#191970" d="M650.8351,-168.4509C681.1404,-148.9441 750.3534,-104.3932 786.7106,-80.9909"/>
<polygon fill="#191970" stroke="#191970" points="788.6881,-83.8804 795.2024,-75.5249 784.8994,-77.9944 788.6881,-83.8804"/>
</g>
<!-- Node9&#45;&gt;Node4 -->
<g id="edge24" class="edge">
<title>Node9&#45;&gt;Node4</title>
<path fill="none" stroke="#191970" d="M953.5951,-112.4369C870.7886,-100.3294 731.3572,-79.9426 668.4805,-70.7491"/>
<polygon fill="#191970" stroke="#191970" points="668.7636,-67.2534 658.3624,-69.2697 667.7508,-74.1797 668.7636,-67.2534"/>
</g>
<!-- Node9&#45;&gt;Node10 -->
<g id="edge12" class="edge">
<title>Node9&#45;&gt;Node10</title>
<path fill="none" stroke="#191970" d="M983.0716,-112.3733C947.7163,-102.9001 893.612,-88.4032 855.3212,-78.1435"/>
<polygon fill="#191970" stroke="#191970" points="856.0247,-74.7086 845.4595,-75.5011 854.213,-81.4701 856.0247,-74.7086"/>
</g>
<!-- Node12 -->
<g id="node13" class="node">
<title>Node12</title>
<g id="a_node13"><a xlink:href="Span_8h.html" target="_top" xlink:title="iDynTree/Core/Span.h">
<polygon fill="none" stroke="#000000" points="887.5,-56.5 887.5,-75.5 1008.5,-75.5 1008.5,-56.5 887.5,-56.5"/>
<text text-anchor="middle" x="948" y="-63.5" font-family="FreeSans.ttf" font-size="10.00" fill="#000000">iDynTree/Core/Span.h</text>
</a>
</g>
</g>
<!-- Node9&#45;&gt;Node12 -->
<g id="edge14" class="edge">
<title>Node9&#45;&gt;Node12</title>
<path fill="none" stroke="#191970" d="M1006.6327,-112.2455C996.0446,-103.8943 980.5936,-91.7076 968.2107,-81.9408"/>
<polygon fill="#191970" stroke="#191970" points="970.2447,-79.0875 960.2255,-75.6427 965.9097,-84.5837 970.2447,-79.0875"/>
</g>
<!-- Node13 -->
<g id="node14" class="node">
<title>Node13</title>
<polygon fill="none" stroke="#bfbfbf" points="1198,-.5 1198,-19.5 1250,-19.5 1250,-.5 1198,-.5"/>
<text text-anchor="middle" x="1224" y="-7.5" font-family="FreeSans.ttf" font-size="10.00" fill="#000000">cassert</text>
</g>
<!-- Node9&#45;&gt;Node13 -->
<g id="edge26" class="edge">
<title>Node9&#45;&gt;Node13</title>
<path fill="none" stroke="#191970" d="M1021.7608,-112.3282C1026.3978,-97.8556 1037.1439,-70.6977 1056,-56 1101.8463,-20.2643 1127.3333,-34.7216 1187.6499,-20.1711"/>
<polygon fill="#191970" stroke="#191970" points="1188.8401,-23.4781 1197.6378,-17.5746 1187.0789,-16.7033 1188.8401,-23.4781"/>
</g>
<!-- Node21 -->
<g id="node22" class="node">
<title>Node21</title>
<polygon fill="none" stroke="#bfbfbf" points="1133,-56.5 1133,-75.5 1189,-75.5 1189,-56.5 1133,-56.5"/>
<text text-anchor="middle" x="1161" y="-63.5" font-family="FreeSans.ttf" font-size="10.00" fill="#000000">sstream</text>
</g>
<!-- Node9&#45;&gt;Node21 -->
<g id="edge25" class="edge">
<title>Node9&#45;&gt;Node21</title>
<path fill="none" stroke="#191970" d="M1043.4107,-112.3733C1066.6142,-103.2226 1101.7038,-89.3844 1127.5142,-79.2057"/>
<polygon fill="#191970" stroke="#191970" points="1128.8892,-82.4258 1136.9079,-75.5011 1126.3211,-75.9139 1128.8892,-82.4258"/>
</g>
<!-- Node22 -->
<g id="node23" class="node">
<title>Node22</title>
<polygon fill="none" stroke="#bfbfbf" points="1065,-56.5 1065,-75.5 1115,-75.5 1115,-56.5 1065,-56.5"/>
<text text-anchor="middle" x="1090" y="-63.5" font-family="FreeSans.ttf" font-size="10.00" fill="#000000">cstring</text>
</g>
<!-- Node9&#45;&gt;Node22 -->
<g id="edge27" class="edge">
<title>Node9&#45;&gt;Node22</title>
<path fill="none" stroke="#191970" d="M1031.3673,-112.2455C1041.9554,-103.8943 1057.4064,-91.7076 1069.7893,-81.9408"/>
<polygon fill="#191970" stroke="#191970" points="1072.0903,-84.5837 1077.7745,-75.6427 1067.7553,-79.0875 1072.0903,-84.5837"/>
</g>
<!-- Node11 -->
<g id="node12" class="node">
<title>Node11</title>
<polygon fill="none" stroke="#bfbfbf" points="616.5,-.5 616.5,-19.5 669.5,-19.5 669.5,-.5 616.5,-.5"/>
<text text-anchor="middle" x="643" y="-7.5" font-family="FreeSans.ttf" font-size="10.00" fill="#000000">cstddef</text>
</g>
<!-- Node10&#45;&gt;Node11 -->
<g id="edge13" class="edge">
<title>Node10&#45;&gt;Node11</title>
<path fill="none" stroke="#191970" d="M781.2917,-56.3733C753.1396,-46.933 710.1104,-32.5041 679.5336,-22.2508"/>
<polygon fill="#191970" stroke="#191970" points="680.2749,-18.8079 669.681,-18.9469 678.0493,-25.4447 680.2749,-18.8079"/>
</g>
<!-- Node12&#45;&gt;Node11 -->
<g id="edge18" class="edge">
<title>Node12&#45;&gt;Node11</title>
<path fill="none" stroke="#191970" d="M887.9643,-56.4634C825.5417,-46.4264 730.9644,-30.8508 679.6297,-19.9202"/>
<polygon fill="#191970" stroke="#191970" points="680.1783,-16.4573 669.6602,-17.7305 678.6765,-23.2944 680.1783,-16.4573"/>
</g>
<!-- Node12&#45;&gt;Node13 -->
<g id="edge15" class="edge">
<title>Node12&#45;&gt;Node13</title>
<path fill="none" stroke="#191970" d="M1005.7678,-56.4737C1052.4852,-48.4289 1120.135,-36.0127 1187.7241,-20.1544"/>
<polygon fill="#191970" stroke="#191970" points="1188.7711,-23.5033 1197.6933,-17.7898 1187.1555,-16.6923 1188.7711,-23.5033"/>
</g>
<!-- Node14 -->
<g id="node15" class="node">
<title>Node14</title>
<polygon fill="none" stroke="#bfbfbf" points="838,-.5 838,-19.5 902,-19.5 902,-.5 838,-.5"/>
<text text-anchor="middle" x="870" y="-7.5" font-family="FreeSans.ttf" font-size="10.00" fill="#000000">algorithm</text>
</g>
<!-- Node12&#45;&gt;Node14 -->
<g id="edge16" class="edge">
<title>Node12&#45;&gt;Node14</title>
<path fill="none" stroke="#191970" d="M934.4134,-56.2455C922.6695,-47.814 905.4801,-35.4729 891.8118,-25.6598"/>
<polygon fill="#191970" stroke="#191970" points="893.5954,-22.6316 883.4309,-19.6427 889.5129,-28.3179 893.5954,-22.6316"/>
</g>
<!-- Node15 -->
<g id="node16" class="node">
<title>Node15</title>
<polygon fill="none" stroke="#bfbfbf" points="920,-.5 920,-19.5 962,-19.5 962,-.5 920,-.5"/>
<text text-anchor="middle" x="941" y="-7.5" font-family="FreeSans.ttf" font-size="10.00" fill="#000000">array</text>
</g>
<!-- Node12&#45;&gt;Node15 -->
<g id="edge17" class="edge">
<title>Node12&#45;&gt;Node15</title>
<path fill="none" stroke="#191970" d="M946.7807,-56.2455C945.8673,-48.9382 944.5868,-38.6944 943.4631,-29.7046"/>
<polygon fill="#191970" stroke="#191970" points="946.9187,-29.1313 942.2053,-19.6427 939.9728,-29.9996 946.9187,-29.1313"/>
</g>
<!-- Node16 -->
<g id="node17" class="node">
<title>Node16</title>
<polygon fill="none" stroke="#bfbfbf" points="980.5,-.5 980.5,-19.5 1033.5,-19.5 1033.5,-.5 980.5,-.5"/>
<text text-anchor="middle" x="1007" y="-7.5" font-family="FreeSans.ttf" font-size="10.00" fill="#000000">iterator</text>
</g>
<!-- Node12&#45;&gt;Node16 -->
<g id="edge19" class="edge">
<title>Node12&#45;&gt;Node16</title>
<path fill="none" stroke="#191970" d="M958.277,-56.2455C966.8218,-48.1352 979.1778,-36.4075 989.3085,-26.7919"/>
<polygon fill="#191970" stroke="#191970" points="991.9972,-29.0655 996.8408,-19.6427 987.1782,-23.9884 991.9972,-29.0655"/>
</g>
<!-- Node17 -->
<g id="node18" class="node">
<title>Node17</title>
<polygon fill="none" stroke="#bfbfbf" points="1052,-.5 1052,-19.5 1096,-19.5 1096,-.5 1052,-.5"/>
<text text-anchor="middle" x="1074" y="-7.5" font-family="FreeSans.ttf" font-size="10.00" fill="#000000">limits</text>
</g>
<!-- Node12&#45;&gt;Node17 -->
<g id="edge20" class="edge">
<title>Node12&#45;&gt;Node17</title>
<path fill="none" stroke="#191970" d="M969.6602,-56.3733C989.9772,-47.3435 1020.564,-33.7494 1043.375,-23.6111"/>
<polygon fill="#191970" stroke="#191970" points="1044.9059,-26.7609 1052.6225,-19.5011 1042.0628,-20.3642 1044.9059,-26.7609"/>
</g>
<!-- Node18 -->
<g id="node19" class="node">
<title>Node18</title>
<polygon fill="none" stroke="#bfbfbf" points="1114.5,-.5 1114.5,-19.5 1179.5,-19.5 1179.5,-.5 1114.5,-.5"/>
<text text-anchor="middle" x="1147" y="-7.5" font-family="FreeSans.ttf" font-size="10.00" fill="#000000">stdexcept</text>
</g>
<!-- Node12&#45;&gt;Node18 -->
<g id="edge21" class="edge">
<title>Node12&#45;&gt;Node18</title>
<path fill="none" stroke="#191970" d="M982.2093,-56.3733C1016.0345,-46.8546 1067.8832,-32.264 1104.3709,-21.9961"/>
<polygon fill="#191970" stroke="#191970" points="1105.5492,-25.3006 1114.2272,-19.2225 1103.6529,-18.5623 1105.5492,-25.3006"/>
</g>
<!-- Node19 -->
<g id="node20" class="node">
<title>Node19</title>
<polygon fill="none" stroke="#bfbfbf" points="687.5,-.5 687.5,-19.5 756.5,-19.5 756.5,-.5 687.5,-.5"/>
<text text-anchor="middle" x="722" y="-7.5" font-family="FreeSans.ttf" font-size="10.00" fill="#000000">type_traits</text>
</g>
<!-- Node12&#45;&gt;Node19 -->
<g id="edge22" class="edge">
<title>Node12&#45;&gt;Node19</title>
<path fill="none" stroke="#191970" d="M909.406,-56.4369C869.8069,-46.6247 808.2627,-31.3748 766.6025,-21.052"/>
<polygon fill="#191970" stroke="#191970" points="767.2749,-17.6128 756.7266,-18.6048 765.5912,-24.4073 767.2749,-17.6128"/>
</g>
<!-- Node20 -->
<g id="node21" class="node">
<title>Node20</title>
<polygon fill="none" stroke="#bfbfbf" points="774.5,-.5 774.5,-19.5 819.5,-19.5 819.5,-.5 774.5,-.5"/>
<text text-anchor="middle" x="797" y="-7.5" font-family="FreeSans.ttf" font-size="10.00" fill="#000000">utility</text>
</g>
<!-- Node12&#45;&gt;Node20 -->
<g id="edge23" class="edge">
<title>Node12&#45;&gt;Node20</title>
<path fill="none" stroke="#191970" d="M922.0422,-56.3733C896.3581,-46.848 856.9788,-32.2438 829.2892,-21.9748"/>
<polygon fill="#191970" stroke="#191970" points="830.2567,-18.6007 819.6637,-18.4051 827.8226,-25.1639 830.2567,-18.6007"/>
</g>
<!-- Node23&#45;&gt;Node4 -->
<g id="edge47" class="edge">
<title>Node23&#45;&gt;Node4</title>
<path fill="none" stroke="#191970" d="M686.5706,-280.4848C648.0516,-266.9345 584.5168,-238.0073 557,-188 535.1884,-148.361 582.6838,-104.4006 613.1015,-81.6171"/>
<polygon fill="#191970" stroke="#191970" points="615.4819,-84.2146 621.527,-75.5136 611.3753,-78.5457 615.4819,-84.2146"/>
</g>
<!-- Node24 -->
<g id="node25" class="node">
<title>Node24</title>
<g id="a_node25"><a xlink:href="PositionRaw_8h.html" target="_top" xlink:title="iDynTree/Core/PositionRaw.h">
<polygon fill="none" stroke="#000000" points="725,-168.5 725,-187.5 881,-187.5 881,-168.5 725,-168.5"/>
<text text-anchor="middle" x="803" y="-175.5" font-family="FreeSans.ttf" font-size="10.00" fill="#000000">iDynTree/Core/PositionRaw.h</text>
</a>
</g>
</g>
<!-- Node23&#45;&gt;Node24 -->
<g id="edge30" class="edge">
<title>Node23&#45;&gt;Node24</title>
<path fill="none" stroke="#191970" d="M725.2471,-280.4509C739.4868,-261.688 771.3111,-219.7548 789.523,-195.758"/>
<polygon fill="#191970" stroke="#191970" points="792.5138,-197.6065 795.7713,-187.5249 786.9378,-193.3747 792.5138,-197.6065"/>
</g>
<!-- Node25 -->
<g id="node26" class="node">
<title>Node25</title>
<g id="a_node26"><a xlink:href="Rotation_8h.html" target="_top" xlink:title="iDynTree/Core/Rotation.h">
<polygon fill="none" stroke="#000000" points="895.5,-224.5 895.5,-243.5 1032.5,-243.5 1032.5,-224.5 895.5,-224.5"/>
<text text-anchor="middle" x="964" y="-231.5" font-family="FreeSans.ttf" font-size="10.00" fill="#000000">iDynTree/Core/Rotation.h</text>
</a>
</g>
</g>
<!-- Node23&#45;&gt;Node25 -->
<g id="edge33" class="edge">
<title>Node23&#45;&gt;Node25</title>
<path fill="none" stroke="#191970" d="M760.0094,-280.4369C802.1104,-270.8529 867.0005,-256.0812 912.2521,-245.78"/>
<polygon fill="#191970" stroke="#191970" points="913.1902,-249.1561 922.1639,-243.5237 911.6364,-242.3307 913.1902,-249.1561"/>
</g>
<!-- Node24&#45;&gt;Node4 -->
<g id="edge32" class="edge">
<title>Node24&#45;&gt;Node4</title>
<path fill="none" stroke="#191970" d="M788.7617,-168.4509C759.7988,-149.0268 693.8093,-104.7703 658.7977,-81.2895"/>
<polygon fill="#191970" stroke="#191970" points="660.457,-78.188 650.2023,-75.5249 656.558,-84.0017 660.457,-78.188"/>
</g>
<!-- Node24&#45;&gt;Node9 -->
<g id="edge31" class="edge">
<title>Node24&#45;&gt;Node9</title>
<path fill="none" stroke="#191970" d="M840.1317,-168.3733C876.8267,-158.8598 933.0639,-144.2797 972.6651,-134.0127"/>
<polygon fill="#191970" stroke="#191970" points="973.5512,-137.3988 982.3528,-131.5011 971.7944,-130.6228 973.5512,-137.3988"/>
</g>
<!-- Node25&#45;&gt;Node4 -->
<g id="edge34" class="edge">
<title>Node25&#45;&gt;Node4</title>
<path fill="none" stroke="#191970" d="M955.2693,-224.3209C942.2202,-210.3256 916.3339,-184.3304 890,-168 816.1018,-122.1734 718.0736,-89.7457 668.1666,-74.9757"/>
<polygon fill="#191970" stroke="#191970" points="668.8532,-71.5303 658.2733,-72.0935 666.8952,-78.2509 668.8532,-71.5303"/>
</g>
<!-- Node25&#45;&gt;Node9 -->
<g id="edge46" class="edge">
<title>Node25&#45;&gt;Node9</title>
<path fill="none" stroke="#191970" d="M1015.3482,-224.4847C1052.6528,-216.4058 1098.5269,-203.6439 1110,-188 1127.1018,-164.6812 1093.9212,-146.2457 1062.9356,-134.8526"/>
<polygon fill="#191970" stroke="#191970" points="1064.0427,-131.532 1053.4479,-131.5453 1061.7385,-138.1419 1064.0427,-131.532"/>
</g>
<!-- Node26 -->
<g id="node27" class="node">
<title>Node26</title>
<g id="a_node27"><a xlink:href="GeomVector3_8h.html" target="_top" xlink:title="iDynTree/Core/GeomVector3.h">
<polygon fill="none" stroke="#000000" points="937.5,-168.5 937.5,-187.5 1100.5,-187.5 1100.5,-168.5 937.5,-168.5"/>
<text text-anchor="middle" x="1019" y="-175.5" font-family="FreeSans.ttf" font-size="10.00" fill="#000000">iDynTree/Core/GeomVector3.h</text>
</a>
</g>
</g>
<!-- Node25&#45;&gt;Node26 -->
<g id="edge35" class="edge">
<title>Node25&#45;&gt;Node26</title>
<path fill="none" stroke="#191970" d="M973.5803,-224.2455C981.5458,-216.1352 993.0641,-204.4075 1002.5079,-194.7919"/>
<polygon fill="#191970" stroke="#191970" points="1005.0195,-197.2297 1009.5295,-187.6427 1000.0253,-192.3247 1005.0195,-197.2297"/>
</g>
<!-- Node27 -->
<g id="node28" class="node">
<title>Node27</title>
<g id="a_node28"><a xlink:href="RotationRaw_8h.html" target="_top" xlink:title="iDynTree/Core/RotationRaw.h">
<polygon fill="none" stroke="#000000" points="1157,-168.5 1157,-187.5 1315,-187.5 1315,-168.5 1157,-168.5"/>
<text text-anchor="middle" x="1236" y="-175.5" font-family="FreeSans.ttf" font-size="10.00" fill="#000000">iDynTree/Core/RotationRaw.h</text>
</a>
</g>
</g>
<!-- Node25&#45;&gt;Node27 -->
<g id="edge37" class="edge">
<title>Node25&#45;&gt;Node27</title>
<path fill="none" stroke="#191970" d="M1010.4494,-224.4369C1057.2935,-214.7925 1129.6539,-199.8948 1179.7262,-189.5858"/>
<polygon fill="#191970" stroke="#191970" points="1180.6534,-192.9684 1189.7422,-187.5237 1179.2418,-186.1122 1180.6534,-192.9684"/>
</g>
<!-- Node26&#45;&gt;Node9 -->
<g id="edge36" class="edge">
<title>Node26&#45;&gt;Node9</title>
<path fill="none" stroke="#191970" d="M1019,-168.2455C1019,-160.9382 1019,-150.6944 1019,-141.7046"/>
<polygon fill="#191970" stroke="#191970" points="1022.5001,-141.6426 1019,-131.6427 1015.5001,-141.6427 1022.5001,-141.6426"/>
</g>
<!-- Node27&#45;&gt;Node4 -->
<g id="edge45" class="edge">
<title>Node27&#45;&gt;Node4</title>
<path fill="none" stroke="#191970" d="M1159.9067,-168.4985C1097.7935,-160.2782 1007.8818,-147.3193 930,-132 893.1925,-124.76 884.5551,-120.4224 848,-112 784.2243,-97.3059 709.347,-81.3651 667.8258,-72.6407"/>
<polygon fill="#191970" stroke="#191970" points="668.5207,-69.2104 658.0152,-70.5832 667.0839,-76.0613 668.5207,-69.2104"/>
</g>
<!-- Node28 -->
<g id="node29" class="node">
<title>Node28</title>
<g id="a_node29"><a xlink:href="MatrixFixSize_8h.html" target="_top" xlink:title="iDynTree/Core/MatrixFixSize.h">
<polygon fill="none" stroke="#000000" points="1127.5,-112.5 1127.5,-131.5 1288.5,-131.5 1288.5,-112.5 1127.5,-112.5"/>
<text text-anchor="middle" x="1208" y="-119.5" font-family="FreeSans.ttf" font-size="10.00" fill="#000000">iDynTree/Core/MatrixFixSize.h</text>
</a>
</g>
</g>
<!-- Node27&#45;&gt;Node28 -->
<g id="edge38" class="edge">
<title>Node27&#45;&gt;Node28</title>
<path fill="none" stroke="#191970" d="M1231.1228,-168.2455C1227.3487,-160.6973 1222.0079,-150.0158 1217.4099,-140.8197"/>
<polygon fill="#191970" stroke="#191970" points="1220.424,-139.0217 1212.8213,-131.6427 1214.163,-142.1522 1220.424,-139.0217"/>
</g>
<!-- Node28&#45;&gt;Node4 -->
<g id="edge42" class="edge">
<title>Node28&#45;&gt;Node4</title>
<path fill="none" stroke="#191970" d="M1127.4976,-113.8432C1121.2388,-113.2167 1115.0167,-112.5964 1109,-112 943.1526,-95.5595 744.5356,-76.4238 668.1222,-69.0823"/>
<polygon fill="#191970" stroke="#191970" points="668.4559,-65.5984 658.1671,-68.1262 667.7866,-72.5663 668.4559,-65.5984"/>
</g>
<!-- Node28&#45;&gt;Node10 -->
<g id="edge39" class="edge">
<title>Node28&#45;&gt;Node10</title>
<path fill="none" stroke="#191970" d="M1139.3019,-112.4968C1075.0094,-103.5798 975.9817,-89.7858 880.0122,-76.1388"/>
<polygon fill="#191970" stroke="#191970" points="880.2299,-72.6346 869.8365,-74.6907 879.2436,-79.5647 880.2299,-72.6346"/>
</g>
<!-- Node28&#45;&gt;Node13 -->
<g id="edge40" class="edge">
<title>Node28&#45;&gt;Node13</title>
<path fill="none" stroke="#191970" d="M1209.3642,-112.4509C1211.9737,-94.184 1217.7207,-53.9553 1221.1861,-29.6976"/>
<polygon fill="#191970" stroke="#191970" points="1224.6898,-29.9194 1222.6393,-19.5249 1217.7602,-28.9294 1224.6898,-29.9194"/>
</g>
<!-- Node28&#45;&gt;Node21 -->
<g id="edge44" class="edge">
<title>Node28&#45;&gt;Node21</title>
<path fill="none" stroke="#191970" d="M1199.8132,-112.2455C1193.1411,-104.2958 1183.5521,-92.8706 1175.5747,-83.3656"/>
<polygon fill="#191970" stroke="#191970" points="1178.2026,-81.0524 1169.093,-75.6427 1172.8408,-85.5525 1178.2026,-81.0524"/>
</g>
<!-- Node28&#45;&gt;Node22 -->
<g id="edge41" class="edge">
<title>Node28&#45;&gt;Node22</title>
<path fill="none" stroke="#191970" d="M1187.7151,-112.3733C1168.8579,-103.4241 1140.554,-89.9917 1119.2545,-79.8835"/>
<polygon fill="#191970" stroke="#191970" points="1120.5551,-76.6266 1110.0202,-75.5011 1117.5539,-82.9506 1120.5551,-76.6266"/>
</g>
<!-- Node29 -->
<g id="node30" class="node">
<title>Node29</title>
<polygon fill="none" stroke="#bfbfbf" points="1245,-56.5 1245,-75.5 1305,-75.5 1305,-56.5 1245,-56.5"/>
<text text-anchor="middle" x="1275" y="-63.5" font-family="FreeSans.ttf" font-size="10.00" fill="#000000">iostream</text>
</g>
<!-- Node28&#45;&gt;Node29 -->
<g id="edge43" class="edge">
<title>Node28&#45;&gt;Node29</title>
<path fill="none" stroke="#191970" d="M1219.6705,-112.2455C1229.5661,-103.9746 1243.9627,-91.9416 1255.5901,-82.2232"/>
<polygon fill="#191970" stroke="#191970" points="1258.035,-84.7413 1263.4632,-75.6427 1253.5458,-79.3703 1258.035,-84.7413"/>
</g>
<!-- Node30&#45;&gt;Node4 -->
<g id="edge53" class="edge">
<title>Node30&#45;&gt;Node4</title>
<path fill="none" stroke="#191970" d="M697.5936,-336.4012C657.2515,-315.981 569.2681,-263.8188 547,-188 540.393,-165.5046 557.943,-113.4752 559,-112 570.1906,-96.3809 588.4821,-85.1317 604.4296,-77.6686"/>
<polygon fill="#191970" stroke="#191970" points="606.2055,-80.7125 613.9717,-73.5058 603.4064,-74.2964 606.2055,-80.7125"/>
</g>
<!-- Node30&#45;&gt;Node23 -->
<g id="edge50" class="edge">
<title>Node30&#45;&gt;Node23</title>
<path fill="none" stroke="#191970" d="M718,-336.2455C718,-328.9382 718,-318.6944 718,-309.7046"/>
<polygon fill="#191970" stroke="#191970" points="721.5001,-309.6426 718,-299.6427 714.5001,-309.6427 721.5001,-309.6426"/>
</g>
<!-- Node30&#45;&gt;Node25 -->
<g id="edge51" class="edge">
<title>Node30&#45;&gt;Node25</title>
<path fill="none" stroke="#191970" d="M738.9738,-336.4509C782.6361,-316.5722 883.4237,-270.6852 933.9626,-247.6756"/>
<polygon fill="#191970" stroke="#191970" points="935.4284,-250.8539 943.0793,-243.5249 932.5278,-244.4832 935.4284,-250.8539"/>
</g>
<!-- Node30&#45;&gt;Node28 -->
<g id="edge52" class="edge">
<title>Node30&#45;&gt;Node28</title>
<path fill="none" stroke="#191970" d="M791.245,-337.9591C937.8262,-320.1995 1258.8093,-272.3669 1324,-188 1344.0928,-161.9967 1306.3191,-144.5484 1268.629,-134.1571"/>
<polygon fill="#191970" stroke="#191970" points="1269.1273,-130.6703 1258.5682,-131.5394 1267.3646,-137.4448 1269.1273,-130.6703"/>
</g>
</g>
</svg>
