<?xml version="1.0" encoding="UTF-8" standalone="no"?>
<!DOCTYPE svg PUBLIC "-//W3C//DTD SVG 1.1//EN"
 "http://www.w3.org/Graphics/SVG/1.1/DTD/svg11.dtd">
<!-- Generated by graphviz version 2.40.1 (20161225.0304)
 -->
<!-- Title: JointState.cpp Pages: 1 -->
<svg width="1553pt" height="733pt"
 viewBox="0.00 0.00 1553.00 733.00" xmlns="http://www.w3.org/2000/svg" xmlns:xlink="http://www.w3.org/1999/xlink">
<g id="graph0" class="graph" transform="scale(1 1) rotate(0) translate(4 729)">
<title>JointState.cpp</title>
<!-- Node0 -->
<g id="node1" class="node">
<title>Node0</title>
<polygon fill="#bfbfbf" stroke="#000000" points="295,-705.5 295,-724.5 379,-724.5 379,-705.5 295,-705.5"/>
<text text-anchor="middle" x="337" y="-712.5" font-family="FreeSans.ttf" font-size="10.00" fill="#000000">JointState.cpp</text>
</g>
<!-- Node1 -->
<g id="node2" class="node">
<title>Node1</title>
<g id="a_node2"><a xlink:href="JointState_8h.html" target="_top" xlink:title="iDynTree/Model/JointState.h">
<polygon fill="none" stroke="#000000" points="119.5,-476 119.5,-495 270.5,-495 270.5,-476 119.5,-476"/>
<text text-anchor="middle" x="195" y="-483" font-family="FreeSans.ttf" font-size="10.00" fill="#000000">iDynTree/Model/JointState.h</text>
</a>
</g>
</g>
<!-- Node0&#45;&gt;Node1 -->
<g id="edge1" class="edge">
<title>Node0&#45;&gt;Node1</title>
<path fill="none" stroke="#191970" d="M331.0792,-705.4309C309.5176,-670.583 234.9603,-550.0837 206.3241,-503.802"/>
<polygon fill="#191970" stroke="#191970" points="209.1841,-501.7723 200.9461,-495.11 203.2314,-505.4554 209.1841,-501.7723"/>
</g>
<!-- Node28 -->
<g id="node29" class="node">
<title>Node28</title>
<g id="a_node29"><a xlink:href="Model_8h.html" target="_top" xlink:title="iDynTree/Model/Model.h">
<polygon fill="none" stroke="#000000" points="1199.5,-649.5 1199.5,-668.5 1332.5,-668.5 1332.5,-649.5 1199.5,-649.5"/>
<text text-anchor="middle" x="1266" y="-656.5" font-family="FreeSans.ttf" font-size="10.00" fill="#000000">iDynTree/Model/Model.h</text>
</a>
</g>
</g>
<!-- Node0&#45;&gt;Node28 -->
<g id="edge51" class="edge">
<title>Node0&#45;&gt;Node28</title>
<path fill="none" stroke="#191970" d="M379.0261,-712.4667C523.5476,-703.7549 1001.4999,-674.944 1189.2865,-663.6243"/>
<polygon fill="#191970" stroke="#191970" points="1189.5819,-667.1129 1199.3531,-663.0175 1189.1606,-660.1256 1189.5819,-667.1129"/>
</g>
<!-- Node36 -->
<g id="node37" class="node">
<title>Node36</title>
<g id="a_node37"><a xlink:href="SpatialMotionVector_8h.html" target="_top" xlink:title="iDynTree/Core/SpatialMotion\lVector.h">
<polygon fill="none" stroke="#000000" points="619.5,-403.5 619.5,-433.5 774.5,-433.5 774.5,-403.5 619.5,-403.5"/>
<text text-anchor="start" x="627.5" y="-421.5" font-family="FreeSans.ttf" font-size="10.00" fill="#000000">iDynTree/Core/SpatialMotion</text>
<text text-anchor="middle" x="697" y="-410.5" font-family="FreeSans.ttf" font-size="10.00" fill="#000000">Vector.h</text>
</a>
</g>
</g>
<!-- Node0&#45;&gt;Node36 -->
<g id="edge86" class="edge">
<title>Node0&#45;&gt;Node36</title>
<path fill="none" stroke="#191970" d="M337,-705.4116C337,-686.0538 337,-640.9167 337,-603 337,-603 337,-603 337,-547 337,-511.7513 329.9553,-493.7517 356,-470 365.3465,-461.4763 510.9939,-441.7589 608.8885,-429.344"/>
<polygon fill="#191970" stroke="#191970" points="609.612,-432.7805 619.0942,-428.0542 608.7343,-425.8357 609.612,-432.7805"/>
</g>
<!-- Node2 -->
<g id="node3" class="node">
<title>Node2</title>
<g id="a_node3"><a xlink:href="VectorFixSize_8h.html" target="_top" xlink:title="iDynTree/Core/VectorFixSize.h">
<polygon fill="none" stroke="#000000" points="448.5,-112.5 448.5,-131.5 609.5,-131.5 609.5,-112.5 448.5,-112.5"/>
<text text-anchor="middle" x="529" y="-119.5" font-family="FreeSans.ttf" font-size="10.00" fill="#000000">iDynTree/Core/VectorFixSize.h</text>
</a>
</g>
</g>
<!-- Node1&#45;&gt;Node2 -->
<g id="edge2" class="edge">
<title>Node1&#45;&gt;Node2</title>
<path fill="none" stroke="#191970" d="M197.2882,-475.9767C208.1048,-433.0555 258.2317,-255.8784 368,-168 384.0564,-155.1455 431.5554,-142.4468 470.8302,-133.6593"/>
<polygon fill="#191970" stroke="#191970" points="471.5969,-137.0744 480.614,-131.5118 470.0961,-130.2372 471.5969,-137.0744"/>
</g>
<!-- Node17 -->
<g id="node18" class="node">
<title>Node17</title>
<g id="a_node18"><a xlink:href="VectorDynSize_8h.html" target="_top" xlink:title="iDynTree/Core/VectorDynSize.h">
<polygon fill="none" stroke="#000000" points="111.5,-112.5 111.5,-131.5 278.5,-131.5 278.5,-112.5 111.5,-112.5"/>
<text text-anchor="middle" x="195" y="-119.5" font-family="FreeSans.ttf" font-size="10.00" fill="#000000">iDynTree/Core/VectorDynSize.h</text>
</a>
</g>
</g>
<!-- Node1&#45;&gt;Node17 -->
<g id="edge19" class="edge">
<title>Node1&#45;&gt;Node17</title>
<path fill="none" stroke="#191970" d="M195,-475.8281C195,-454.4175 195,-401.395 195,-357 195,-357 195,-357 195,-234 195,-201.7116 195,-164.1872 195,-141.8048"/>
<polygon fill="#191970" stroke="#191970" points="198.5001,-141.5883 195,-131.5884 191.5001,-141.5884 198.5001,-141.5883"/>
</g>
<!-- Node18 -->
<g id="node19" class="node">
<title>Node18</title>
<g id="a_node19"><a xlink:href="SpatialForceVector_8h.html" target="_top" xlink:title="iDynTree/Core/SpatialForce\lVector.h">
<polygon fill="none" stroke="#000000" points="402,-403.5 402,-433.5 550,-433.5 550,-403.5 402,-403.5"/>
<text text-anchor="start" x="410" y="-421.5" font-family="FreeSans.ttf" font-size="10.00" fill="#000000">iDynTree/Core/SpatialForce</text>
<text text-anchor="middle" x="476" y="-410.5" font-family="FreeSans.ttf" font-size="10.00" fill="#000000">Vector.h</text>
</a>
</g>
</g>
<!-- Node1&#45;&gt;Node18 -->
<g id="edge22" class="edge">
<title>Node1&#45;&gt;Node18</title>
<path fill="none" stroke="#191970" d="M234.962,-475.9717C278.6109,-465.5643 349.446,-448.6748 403.0578,-435.8919"/>
<polygon fill="#191970" stroke="#191970" points="403.9419,-439.2793 412.8574,-433.5553 402.3183,-432.4702 403.9419,-439.2793"/>
</g>
<!-- Node27 -->
<g id="node28" class="node">
<title>Node27</title>
<polygon fill="none" stroke="#bfbfbf" points="1237.5,-409 1237.5,-428 1284.5,-428 1284.5,-409 1237.5,-409"/>
<text text-anchor="middle" x="1261" y="-416" font-family="FreeSans.ttf" font-size="10.00" fill="#000000">vector</text>
</g>
<!-- Node1&#45;&gt;Node27 -->
<g id="edge50" class="edge">
<title>Node1&#45;&gt;Node27</title>
<path fill="none" stroke="#191970" d="M270.7072,-477.5957C297.6168,-474.9493 328.1413,-472.1329 356,-470 695.3229,-444.0214 1107.1469,-425.1841 1226.8593,-419.9604"/>
<polygon fill="#191970" stroke="#191970" points="1227.3671,-423.4418 1237.2059,-419.5112 1227.0634,-416.4483 1227.3671,-423.4418"/>
</g>
<!-- Node3 -->
<g id="node4" class="node">
<title>Node3</title>
<g id="a_node4"><a xlink:href="Utils_8h.html" target="_top" xlink:title="iDynTree/Core/Utils.h">
<polygon fill="none" stroke="#000000" points="469.5,-56.5 469.5,-75.5 588.5,-75.5 588.5,-56.5 469.5,-56.5"/>
<text text-anchor="middle" x="529" y="-63.5" font-family="FreeSans.ttf" font-size="10.00" fill="#000000">iDynTree/Core/Utils.h</text>
</a>
</g>
</g>
<!-- Node2&#45;&gt;Node3 -->
<g id="edge3" class="edge">
<title>Node2&#45;&gt;Node3</title>
<path fill="none" stroke="#191970" d="M529,-112.2455C529,-104.9382 529,-94.6944 529,-85.7046"/>
<polygon fill="#191970" stroke="#191970" points="532.5001,-85.6426 529,-75.6427 525.5001,-85.6427 532.5001,-85.6426"/>
</g>
<!-- Node5 -->
<g id="node6" class="node">
<title>Node5</title>
<g id="a_node6"><a xlink:href="Span_8h.html" target="_top" xlink:title="iDynTree/Core/Span.h">
<polygon fill="none" stroke="#000000" points="248.5,-56.5 248.5,-75.5 369.5,-75.5 369.5,-56.5 248.5,-56.5"/>
<text text-anchor="middle" x="309" y="-63.5" font-family="FreeSans.ttf" font-size="10.00" fill="#000000">iDynTree/Core/Span.h</text>
</a>
</g>
</g>
<!-- Node2&#45;&gt;Node5 -->
<g id="edge5" class="edge">
<title>Node2&#45;&gt;Node5</title>
<path fill="none" stroke="#191970" d="M491.1807,-112.3733C453.8062,-102.8598 396.5276,-88.2797 356.1929,-78.0127"/>
<polygon fill="#191970" stroke="#191970" points="356.8802,-74.5761 346.3258,-75.5011 355.1534,-81.3598 356.8802,-74.5761"/>
</g>
<!-- Node6 -->
<g id="node7" class="node">
<title>Node6</title>
<polygon fill="none" stroke="#bfbfbf" points="591,-.5 591,-19.5 643,-19.5 643,-.5 591,-.5"/>
<text text-anchor="middle" x="617" y="-7.5" font-family="FreeSans.ttf" font-size="10.00" fill="#000000">cassert</text>
</g>
<!-- Node2&#45;&gt;Node6 -->
<g id="edge17" class="edge">
<title>Node2&#45;&gt;Node6</title>
<path fill="none" stroke="#191970" d="M550.3006,-112.4509C565.3835,-104.6637 584.9923,-92.2925 597,-76 606.9769,-62.463 612.0265,-43.9133 614.5523,-29.926"/>
<polygon fill="#191970" stroke="#191970" points="618.0382,-30.2824 616.0827,-19.8696 611.1179,-29.2291 618.0382,-30.2824"/>
</g>
<!-- Node14 -->
<g id="node15" class="node">
<title>Node14</title>
<polygon fill="none" stroke="#bfbfbf" points="1150,-56.5 1150,-75.5 1194,-75.5 1194,-56.5 1150,-56.5"/>
<text text-anchor="middle" x="1172" y="-63.5" font-family="FreeSans.ttf" font-size="10.00" fill="#000000">string</text>
</g>
<!-- Node2&#45;&gt;Node14 -->
<g id="edge15" class="edge">
<title>Node2&#45;&gt;Node14</title>
<path fill="none" stroke="#191970" d="M609.7853,-114.9643C752.3462,-102.5484 1042.6601,-77.2644 1139.6389,-68.8184"/>
<polygon fill="#191970" stroke="#191970" points="1140.0537,-72.2956 1149.7123,-67.9411 1139.4463,-65.322 1140.0537,-72.2956"/>
</g>
<!-- Node15 -->
<g id="node16" class="node">
<title>Node15</title>
<polygon fill="none" stroke="#bfbfbf" points="395,-56.5 395,-75.5 451,-75.5 451,-56.5 395,-56.5"/>
<text text-anchor="middle" x="423" y="-63.5" font-family="FreeSans.ttf" font-size="10.00" fill="#000000">sstream</text>
</g>
<!-- Node2&#45;&gt;Node15 -->
<g id="edge16" class="edge">
<title>Node2&#45;&gt;Node15</title>
<path fill="none" stroke="#191970" d="M510.5362,-112.2455C493.8926,-103.4527 469.2007,-90.4079 450.2808,-80.4125"/>
<polygon fill="#191970" stroke="#191970" points="451.7291,-77.2193 441.2522,-75.6427 448.4592,-83.4086 451.7291,-77.2193"/>
</g>
<!-- Node16 -->
<g id="node17" class="node">
<title>Node16</title>
<polygon fill="none" stroke="#bfbfbf" points="645,-56.5 645,-75.5 695,-75.5 695,-56.5 645,-56.5"/>
<text text-anchor="middle" x="670" y="-63.5" font-family="FreeSans.ttf" font-size="10.00" fill="#000000">cstring</text>
</g>
<!-- Node2&#45;&gt;Node16 -->
<g id="edge18" class="edge">
<title>Node2&#45;&gt;Node16</title>
<path fill="none" stroke="#191970" d="M553.2388,-112.3733C576.2789,-103.2226 611.1214,-89.3844 636.7501,-79.2057"/>
<polygon fill="#191970" stroke="#191970" points="638.0756,-82.4452 646.0775,-75.5011 635.4918,-75.9395 638.0756,-82.4452"/>
</g>
<!-- Node4 -->
<g id="node5" class="node">
<title>Node4</title>
<polygon fill="none" stroke="#bfbfbf" points="509.5,-.5 509.5,-19.5 562.5,-19.5 562.5,-.5 509.5,-.5"/>
<text text-anchor="middle" x="536" y="-7.5" font-family="FreeSans.ttf" font-size="10.00" fill="#000000">cstddef</text>
</g>
<!-- Node3&#45;&gt;Node4 -->
<g id="edge4" class="edge">
<title>Node3&#45;&gt;Node4</title>
<path fill="none" stroke="#191970" d="M530.2193,-56.2455C531.1327,-48.9382 532.4132,-38.6944 533.5369,-29.7046"/>
<polygon fill="#191970" stroke="#191970" points="537.0272,-29.9996 534.7947,-19.6427 530.0813,-29.1313 537.0272,-29.9996"/>
</g>
<!-- Node5&#45;&gt;Node4 -->
<g id="edge9" class="edge">
<title>Node5&#45;&gt;Node4</title>
<path fill="none" stroke="#191970" d="M350.4596,-56.4514C387.0983,-47.9155 442.2197,-34.8372 499.3578,-20.103"/>
<polygon fill="#191970" stroke="#191970" points="500.4886,-23.4257 509.2913,-17.5298 498.7332,-16.6494 500.4886,-23.4257"/>
</g>
<!-- Node5&#45;&gt;Node6 -->
<g id="edge6" class="edge">
<title>Node5&#45;&gt;Node6</title>
<path fill="none" stroke="#191970" d="M367.1396,-56.4822C420.3149,-47.6134 501.0998,-33.7283 571,-20 574.2078,-19.37 577.5362,-18.6927 580.8692,-17.9983"/>
<polygon fill="#191970" stroke="#191970" points="581.7126,-21.3973 590.766,-15.894 580.2567,-14.5504 581.7126,-21.3973"/>
</g>
<!-- Node7 -->
<g id="node8" class="node">
<title>Node7</title>
<polygon fill="none" stroke="#bfbfbf" points="0,-.5 0,-19.5 64,-19.5 64,-.5 0,-.5"/>
<text text-anchor="middle" x="32" y="-7.5" font-family="FreeSans.ttf" font-size="10.00" fill="#000000">algorithm</text>
</g>
<!-- Node5&#45;&gt;Node7 -->
<g id="edge7" class="edge">
<title>Node5&#45;&gt;Node7</title>
<path fill="none" stroke="#191970" d="M256.3641,-56.4692C210.6874,-48.0337 142.5491,-35.0568 74.2685,-20.2074"/>
<polygon fill="#191970" stroke="#191970" points="74.713,-16.7219 64.196,-18.0032 73.2166,-23.5601 74.713,-16.7219"/>
</g>
<!-- Node8 -->
<g id="node9" class="node">
<title>Node8</title>
<polygon fill="none" stroke="#bfbfbf" points="82,-.5 82,-19.5 124,-19.5 124,-.5 82,-.5"/>
<text text-anchor="middle" x="103" y="-7.5" font-family="FreeSans.ttf" font-size="10.00" fill="#000000">array</text>
</g>
<!-- Node5&#45;&gt;Node8 -->
<g id="edge8" class="edge">
<title>Node5&#45;&gt;Node8</title>
<path fill="none" stroke="#191970" d="M269.2992,-56.42C235.5896,-48.1081 185.7399,-35.4008 133.9414,-20.1526"/>
<polygon fill="#191970" stroke="#191970" points="134.8328,-16.7663 124.2503,-17.2763 132.8411,-23.477 134.8328,-16.7663"/>
</g>
<!-- Node9 -->
<g id="node10" class="node">
<title>Node9</title>
<polygon fill="none" stroke="#bfbfbf" points="142.5,-.5 142.5,-19.5 195.5,-19.5 195.5,-.5 142.5,-.5"/>
<text text-anchor="middle" x="169" y="-7.5" font-family="FreeSans.ttf" font-size="10.00" fill="#000000">iterator</text>
</g>
<!-- Node5&#45;&gt;Node9 -->
<g id="edge10" class="edge">
<title>Node5&#45;&gt;Node9</title>
<path fill="none" stroke="#191970" d="M284.9331,-56.3733C262.1572,-47.2629 227.7656,-33.5062 202.351,-23.3404"/>
<polygon fill="#191970" stroke="#191970" points="203.3375,-19.9654 192.7528,-19.5011 200.7377,-26.4648 203.3375,-19.9654"/>
</g>
<!-- Node10 -->
<g id="node11" class="node">
<title>Node10</title>
<polygon fill="none" stroke="#bfbfbf" points="214,-.5 214,-19.5 258,-19.5 258,-.5 214,-.5"/>
<text text-anchor="middle" x="236" y="-7.5" font-family="FreeSans.ttf" font-size="10.00" fill="#000000">limits</text>
</g>
<!-- Node5&#45;&gt;Node10 -->
<g id="edge11" class="edge">
<title>Node5&#45;&gt;Node10</title>
<path fill="none" stroke="#191970" d="M296.2844,-56.2455C285.398,-47.8943 269.5117,-35.7076 256.78,-25.9408"/>
<polygon fill="#191970" stroke="#191970" points="258.6346,-22.9523 248.5699,-19.6427 254.3739,-28.5063 258.6346,-22.9523"/>
</g>
<!-- Node11 -->
<g id="node12" class="node">
<title>Node11</title>
<polygon fill="none" stroke="#bfbfbf" points="276.5,-.5 276.5,-19.5 341.5,-19.5 341.5,-.5 276.5,-.5"/>
<text text-anchor="middle" x="309" y="-7.5" font-family="FreeSans.ttf" font-size="10.00" fill="#000000">stdexcept</text>
</g>
<!-- Node5&#45;&gt;Node11 -->
<g id="edge12" class="edge">
<title>Node5&#45;&gt;Node11</title>
<path fill="none" stroke="#191970" d="M309,-56.2455C309,-48.9382 309,-38.6944 309,-29.7046"/>
<polygon fill="#191970" stroke="#191970" points="312.5001,-29.6426 309,-19.6427 305.5001,-29.6427 312.5001,-29.6426"/>
</g>
<!-- Node12 -->
<g id="node13" class="node">
<title>Node12</title>
<polygon fill="none" stroke="#bfbfbf" points="359.5,-.5 359.5,-19.5 428.5,-19.5 428.5,-.5 359.5,-.5"/>
<text text-anchor="middle" x="394" y="-7.5" font-family="FreeSans.ttf" font-size="10.00" fill="#000000">type_traits</text>
</g>
<!-- Node5&#45;&gt;Node12 -->
<g id="edge13" class="edge">
<title>Node5&#45;&gt;Node12</title>
<path fill="none" stroke="#191970" d="M323.8059,-56.2455C336.7256,-47.7337 355.6931,-35.2375 370.6552,-25.3801"/>
<polygon fill="#191970" stroke="#191970" points="372.9387,-28.067 379.3638,-19.6427 369.0876,-22.2216 372.9387,-28.067"/>
</g>
<!-- Node13 -->
<g id="node14" class="node">
<title>Node13</title>
<polygon fill="none" stroke="#bfbfbf" points="446.5,-.5 446.5,-19.5 491.5,-19.5 491.5,-.5 446.5,-.5"/>
<text text-anchor="middle" x="469" y="-7.5" font-family="FreeSans.ttf" font-size="10.00" fill="#000000">utility</text>
</g>
<!-- Node5&#45;&gt;Node13 -->
<g id="edge14" class="edge">
<title>Node5&#45;&gt;Node13</title>
<path fill="none" stroke="#191970" d="M336.505,-56.3733C364.3188,-46.6384 407.2899,-31.5985 436.7051,-21.3032"/>
<polygon fill="#191970" stroke="#191970" points="438.2148,-24.4831 446.4972,-17.876 435.9023,-17.8761 438.2148,-24.4831"/>
</g>
<!-- Node17&#45;&gt;Node5 -->
<g id="edge20" class="edge">
<title>Node17&#45;&gt;Node5</title>
<path fill="none" stroke="#191970" d="M214.5973,-112.3733C232.7331,-103.4644 259.9135,-90.1127 280.4587,-80.0203"/>
<polygon fill="#191970" stroke="#191970" points="282.2261,-83.0517 289.6584,-75.5011 279.1397,-76.7688 282.2261,-83.0517"/>
</g>
<!-- Node17&#45;&gt;Node14 -->
<g id="edge21" class="edge">
<title>Node17&#45;&gt;Node14</title>
<path fill="none" stroke="#191970" d="M278.7208,-117.2013C483.9091,-105.4402 1004.9304,-75.5761 1139.7526,-67.8484"/>
<polygon fill="#191970" stroke="#191970" points="1140.0591,-71.3366 1149.8424,-67.27 1139.6584,-64.3481 1140.0591,-71.3366"/>
</g>
<!-- Node18&#45;&gt;Node2 -->
<g id="edge23" class="edge">
<title>Node18&#45;&gt;Node2</title>
<path fill="none" stroke="#191970" d="M472.4106,-403.4593C463.5713,-363.0543 444.1075,-249.6886 482,-168 487.4253,-156.3042 497.2092,-145.9762 506.4509,-138.085"/>
<polygon fill="#191970" stroke="#191970" points="508.6829,-140.7817 514.3096,-131.8045 504.3127,-135.3134 508.6829,-140.7817"/>
</g>
<!-- Node19 -->
<g id="node20" class="node">
<title>Node19</title>
<g id="a_node20"><a xlink:href="GeomVector3_8h.html" target="_top" xlink:title="iDynTree/Core/GeomVector3.h">
<polygon fill="none" stroke="#000000" points="524.5,-168.5 524.5,-187.5 687.5,-187.5 687.5,-168.5 524.5,-168.5"/>
<text text-anchor="middle" x="606" y="-175.5" font-family="FreeSans.ttf" font-size="10.00" fill="#000000">iDynTree/Core/GeomVector3.h</text>
</a>
</g>
</g>
<!-- Node18&#45;&gt;Node19 -->
<g id="edge24" class="edge">
<title>Node18&#45;&gt;Node19</title>
<path fill="none" stroke="#191970" d="M473.2235,-403.2515C471.1647,-388.4521 469.6845,-365.5682 476,-347 498.1174,-281.9723 556.4703,-222.4245 586.9102,-194.5762"/>
<polygon fill="#191970" stroke="#191970" points="589.5972,-196.8676 594.7024,-187.5839 584.922,-191.6577 589.5972,-196.8676"/>
</g>
<!-- Node20 -->
<g id="node21" class="node">
<title>Node20</title>
<g id="a_node21"><a xlink:href="SpatialVector_8h.html" target="_top" xlink:title="iDynTree/Core/SpatialVector.h">
<polygon fill="none" stroke="#000000" points="485.5,-347.5 485.5,-366.5 646.5,-366.5 646.5,-347.5 485.5,-347.5"/>
<text text-anchor="middle" x="566" y="-354.5" font-family="FreeSans.ttf" font-size="10.00" fill="#000000">iDynTree/Core/SpatialVector.h</text>
</a>
</g>
</g>
<!-- Node18&#45;&gt;Node20 -->
<g id="edge26" class="edge">
<title>Node18&#45;&gt;Node20</title>
<path fill="none" stroke="#191970" d="M498.2472,-403.2977C511.9967,-393.9022 529.5921,-381.8787 543.4057,-372.4395"/>
<polygon fill="#191970" stroke="#191970" points="545.5768,-375.195 551.8586,-366.6633 541.6275,-369.4155 545.5768,-375.195"/>
</g>
<!-- Node19&#45;&gt;Node2 -->
<g id="edge25" class="edge">
<title>Node19&#45;&gt;Node2</title>
<path fill="none" stroke="#191970" d="M592.5876,-168.2455C580.9943,-159.814 564.0252,-147.4729 550.5322,-137.6598"/>
<polygon fill="#191970" stroke="#191970" points="552.4047,-134.6938 542.2587,-131.6427 548.2874,-140.355 552.4047,-134.6938"/>
</g>
<!-- Node20&#45;&gt;Node3 -->
<g id="edge46" class="edge">
<title>Node20&#45;&gt;Node3</title>
<path fill="none" stroke="#191970" d="M557.3735,-347.3481C540.9352,-328.5718 504.7387,-285.3368 482,-244 456.3009,-197.2815 448.7183,-184.4272 439,-132 437.3799,-123.26 434.3603,-119.5819 439,-112 448.3409,-96.7354 464.5228,-86.3326 480.6126,-79.3404"/>
<polygon fill="#191970" stroke="#191970" points="482.0187,-82.548 490.023,-75.6067 479.4371,-76.0414 482.0187,-82.548"/>
</g>
<!-- Node20&#45;&gt;Node15 -->
<g id="edge49" class="edge">
<title>Node20&#45;&gt;Node15</title>
<path fill="none" stroke="#191970" d="M548.1919,-347.3897C534.2495,-339.1729 515.09,-326.2725 502,-311 443.6746,-242.9498 428.2501,-131.1675 424.3044,-85.9304"/>
<polygon fill="#191970" stroke="#191970" points="427.7742,-85.4031 423.5142,-75.7024 420.795,-85.9423 427.7742,-85.4031"/>
</g>
<!-- Node20&#45;&gt;Node19 -->
<g id="edge47" class="edge">
<title>Node20&#45;&gt;Node19</title>
<path fill="none" stroke="#191970" d="M568.7113,-347.1633C571.2376,-337.8724 575.0479,-323.5323 578,-311 587.4256,-270.9857 596.99,-223.837 602.139,-197.7965"/>
<polygon fill="#191970" stroke="#191970" points="605.6263,-198.2013 604.12,-187.7141 598.7576,-196.8517 605.6263,-198.2013"/>
</g>
<!-- Node21 -->
<g id="node22" class="node">
<title>Node21</title>
<g id="a_node22"><a xlink:href="Position_8h.html" target="_top" xlink:title="Position.h">
<polygon fill="none" stroke="#000000" points="904.5,-286 904.5,-305 969.5,-305 969.5,-286 904.5,-286"/>
<text text-anchor="middle" x="937" y="-293" font-family="FreeSans.ttf" font-size="10.00" fill="#000000">Position.h</text>
</a>
</g>
</g>
<!-- Node20&#45;&gt;Node21 -->
<g id="edge27" class="edge">
<title>Node20&#45;&gt;Node21</title>
<path fill="none" stroke="#191970" d="M623.5617,-347.4581C698.3277,-335.0643 827.1572,-313.7084 893.9843,-302.6306"/>
<polygon fill="#191970" stroke="#191970" points="894.8666,-306.0322 904.1595,-300.9439 893.7218,-299.1265 894.8666,-306.0322"/>
</g>
<!-- Node23 -->
<g id="node24" class="node">
<title>Node23</title>
<g id="a_node24"><a xlink:href="Rotation_8h.html" target="_top" xlink:title="iDynTree/Core/Rotation.h">
<polygon fill="none" stroke="#000000" points="771.5,-224.5 771.5,-243.5 908.5,-243.5 908.5,-224.5 771.5,-224.5"/>
<text text-anchor="middle" x="840" y="-231.5" font-family="FreeSans.ttf" font-size="10.00" fill="#000000">iDynTree/Core/Rotation.h</text>
</a>
</g>
</g>
<!-- Node20&#45;&gt;Node23 -->
<g id="edge45" class="edge">
<title>Node20&#45;&gt;Node23</title>
<path fill="none" stroke="#191970" d="M587.5003,-347.3484C635.8194,-325.6577 753.143,-272.9905 809.1942,-247.8289"/>
<polygon fill="#191970" stroke="#191970" points="810.91,-250.8952 818.5996,-243.6068 808.0432,-244.5091 810.91,-250.8952"/>
</g>
<!-- Node26 -->
<g id="node27" class="node">
<title>Node26</title>
<polygon fill="none" stroke="#bfbfbf" points="713,-56.5 713,-75.5 773,-75.5 773,-56.5 713,-56.5"/>
<text text-anchor="middle" x="743" y="-63.5" font-family="FreeSans.ttf" font-size="10.00" fill="#000000">iostream</text>
</g>
<!-- Node20&#45;&gt;Node26 -->
<g id="edge48" class="edge">
<title>Node20&#45;&gt;Node26</title>
<path fill="none" stroke="#191970" d="M561.3236,-347.2708C545.1414,-312.9624 493.6562,-198.07 515,-168 543.0688,-128.4557 573.5455,-151.3752 618,-132 653.7075,-116.4371 693.1885,-94.8013 718.0375,-80.6057"/>
<polygon fill="#191970" stroke="#191970" points="719.886,-83.5801 726.8063,-75.5575 716.3935,-77.5135 719.886,-83.5801"/>
</g>
<!-- Node21&#45;&gt;Node14 -->
<g id="edge44" class="edge">
<title>Node21&#45;&gt;Node14</title>
<path fill="none" stroke="#191970" d="M968.4362,-285.9104C1012.5814,-271.0981 1093.3156,-238.9255 1145,-188 1165.1125,-168.1828 1168.1266,-159.386 1175,-132 1177.1639,-123.3785 1175.2894,-120.8842 1175,-112 1174.717,-103.3113 1174.134,-93.714 1173.5566,-85.5436"/>
<polygon fill="#191970" stroke="#191970" points="1177.0418,-85.2151 1172.8013,-75.5059 1170.0616,-85.7404 1177.0418,-85.2151"/>
</g>
<!-- Node22 -->
<g id="node23" class="node">
<title>Node22</title>
<g id="a_node23"><a xlink:href="PositionRaw_8h.html" target="_top" xlink:title="iDynTree/Core/PositionRaw.h">
<polygon fill="none" stroke="#000000" points="782,-168.5 782,-187.5 938,-187.5 938,-168.5 782,-168.5"/>
<text text-anchor="middle" x="860" y="-175.5" font-family="FreeSans.ttf" font-size="10.00" fill="#000000">iDynTree/Core/PositionRaw.h</text>
</a>
</g>
</g>
<!-- Node21&#45;&gt;Node22 -->
<g id="edge28" class="edge">
<title>Node21&#45;&gt;Node22</title>
<path fill="none" stroke="#191970" d="M936.1865,-285.9424C934.5669,-271.4659 929.9007,-243.5935 917,-224 908.9439,-211.7644 896.5953,-201.2256 885.4491,-193.3343"/>
<polygon fill="#191970" stroke="#191970" points="887.1294,-190.2473 876.8728,-187.5915 883.2345,-196.0637 887.1294,-190.2473"/>
</g>
<!-- Node21&#45;&gt;Node23 -->
<g id="edge31" class="edge">
<title>Node21&#45;&gt;Node23</title>
<path fill="none" stroke="#191970" d="M921.8438,-285.8906C906.3257,-276.0519 881.9807,-260.6167 863.8716,-249.1351"/>
<polygon fill="#191970" stroke="#191970" points="865.3696,-245.9407 855.0498,-243.5419 861.6213,-251.8526 865.3696,-245.9407"/>
</g>
<!-- Node22&#45;&gt;Node2 -->
<g id="edge29" class="edge">
<title>Node22&#45;&gt;Node2</title>
<path fill="none" stroke="#191970" d="M803.4752,-168.4369C745.756,-158.6717 656.2029,-143.5207 595.2034,-133.2006"/>
<polygon fill="#191970" stroke="#191970" points="595.7355,-129.7409 585.2917,-131.5237 594.5677,-136.6429 595.7355,-129.7409"/>
</g>
<!-- Node22&#45;&gt;Node14 -->
<g id="edge30" class="edge">
<title>Node22&#45;&gt;Node14</title>
<path fill="none" stroke="#191970" d="M886.6009,-168.4509C943.834,-147.9058 1078.4577,-99.5793 1140.1302,-77.4404"/>
<polygon fill="#191970" stroke="#191970" points="1141.4966,-80.6687 1149.726,-73.9958 1139.1315,-74.0803 1141.4966,-80.6687"/>
</g>
<!-- Node23&#45;&gt;Node2 -->
<g id="edge43" class="edge">
<title>Node23&#45;&gt;Node2</title>
<path fill="none" stroke="#191970" d="M827.1654,-224.4381C807.3356,-210.1091 767.601,-183.1362 730,-168 689.7608,-151.8018 642.5824,-140.6319 604.049,-133.3593"/>
<polygon fill="#191970" stroke="#191970" points="604.4047,-129.8662 593.937,-131.5022 603.1402,-136.751 604.4047,-129.8662"/>
</g>
<!-- Node23&#45;&gt;Node14 -->
<g id="edge32" class="edge">
<title>Node23&#45;&gt;Node14</title>
<path fill="none" stroke="#191970" d="M908.7097,-230.4915C981.6571,-225.4595 1090.7941,-213.7788 1123,-188 1154.7934,-162.5515 1166.0712,-113.316 1169.9868,-85.8112"/>
<polygon fill="#191970" stroke="#191970" points="1173.4712,-86.1521 1171.2204,-75.7991 1166.5237,-85.296 1173.4712,-86.1521"/>
</g>
<!-- Node23&#45;&gt;Node19 -->
<g id="edge33" class="edge">
<title>Node23&#45;&gt;Node19</title>
<path fill="none" stroke="#191970" d="M800.0398,-224.4369C760.1608,-214.8932 698.7861,-200.2052 655.7672,-189.9101"/>
<polygon fill="#191970" stroke="#191970" points="656.3354,-186.4473 645.7953,-187.5237 654.7061,-193.2551 656.3354,-186.4473"/>
</g>
<!-- Node24 -->
<g id="node25" class="node">
<title>Node24</title>
<g id="a_node25"><a xlink:href="RotationRaw_8h.html" target="_top" xlink:title="iDynTree/Core/RotationRaw.h">
<polygon fill="none" stroke="#000000" points="956,-168.5 956,-187.5 1114,-187.5 1114,-168.5 956,-168.5"/>
<text text-anchor="middle" x="1035" y="-175.5" font-family="FreeSans.ttf" font-size="10.00" fill="#000000">iDynTree/Core/RotationRaw.h</text>
</a>
</g>
</g>
<!-- Node23&#45;&gt;Node24 -->
<g id="edge34" class="edge">
<title>Node23&#45;&gt;Node24</title>
<path fill="none" stroke="#191970" d="M873.5217,-224.3733C906.3683,-214.9404 956.5595,-200.5265 992.2578,-190.2747"/>
<polygon fill="#191970" stroke="#191970" points="993.2703,-193.6255 1001.9157,-187.5011 991.3381,-186.8974 993.2703,-193.6255"/>
</g>
<!-- Node24&#45;&gt;Node14 -->
<g id="edge42" class="edge">
<title>Node24&#45;&gt;Node14</title>
<path fill="none" stroke="#191970" d="M1046.6805,-168.4509C1070.2383,-149.1921 1123.6563,-105.5218 1152.5589,-81.8935"/>
<polygon fill="#191970" stroke="#191970" points="1154.8222,-84.564 1160.349,-75.5249 1150.3916,-79.1445 1154.8222,-84.564"/>
</g>
<!-- Node25 -->
<g id="node26" class="node">
<title>Node25</title>
<g id="a_node26"><a xlink:href="MatrixFixSize_8h.html" target="_top" xlink:title="iDynTree/Core/MatrixFixSize.h">
<polygon fill="none" stroke="#000000" points="720.5,-112.5 720.5,-131.5 881.5,-131.5 881.5,-112.5 720.5,-112.5"/>
<text text-anchor="middle" x="801" y="-119.5" font-family="FreeSans.ttf" font-size="10.00" fill="#000000">iDynTree/Core/MatrixFixSize.h</text>
</a>
</g>
</g>
<!-- Node24&#45;&gt;Node25 -->
<g id="edge35" class="edge">
<title>Node24&#45;&gt;Node25</title>
<path fill="none" stroke="#191970" d="M995.0398,-168.4369C955.1608,-158.8932 893.7861,-144.2052 850.7672,-133.9101"/>
<polygon fill="#191970" stroke="#191970" points="851.3354,-130.4473 840.7953,-131.5237 849.7061,-137.2551 851.3354,-130.4473"/>
</g>
<!-- Node25&#45;&gt;Node3 -->
<g id="edge36" class="edge">
<title>Node25&#45;&gt;Node3</title>
<path fill="none" stroke="#191970" d="M754.5506,-112.4369C707.7065,-102.7925 635.3461,-87.8948 585.2738,-77.5858"/>
<polygon fill="#191970" stroke="#191970" points="585.7582,-74.1122 575.2578,-75.5237 584.3466,-80.9684 585.7582,-74.1122"/>
</g>
<!-- Node25&#45;&gt;Node6 -->
<g id="edge37" class="edge">
<title>Node25&#45;&gt;Node6</title>
<path fill="none" stroke="#191970" d="M801.0178,-112.4742C800.5118,-98.1924 797.4094,-71.2803 782,-56 763.9064,-38.058 696.0979,-23.524 653.2423,-15.8753"/>
<polygon fill="#191970" stroke="#191970" points="653.6446,-12.3927 643.1925,-14.1257 652.444,-19.289 653.6446,-12.3927"/>
</g>
<!-- Node25&#45;&gt;Node14 -->
<g id="edge39" class="edge">
<title>Node25&#45;&gt;Node14</title>
<path fill="none" stroke="#191970" d="M864.3556,-112.4369C944.2067,-100.3839 1078.416,-80.1259 1139.7105,-70.8739"/>
<polygon fill="#191970" stroke="#191970" points="1140.5694,-74.284 1149.935,-69.3306 1139.5246,-67.3624 1140.5694,-74.284"/>
</g>
<!-- Node25&#45;&gt;Node15 -->
<g id="edge41" class="edge">
<title>Node25&#45;&gt;Node15</title>
<path fill="none" stroke="#191970" d="M720.2412,-114.0961C653.206,-106.8482 555.2487,-94.673 461.1646,-76.0282"/>
<polygon fill="#191970" stroke="#191970" points="461.6856,-72.563 451.192,-74.0244 460.3065,-79.4258 461.6856,-72.563"/>
</g>
<!-- Node25&#45;&gt;Node16 -->
<g id="edge38" class="edge">
<title>Node25&#45;&gt;Node16</title>
<path fill="none" stroke="#191970" d="M778.4803,-112.3733C757.2628,-103.3032 725.2724,-89.6279 701.5231,-79.4755"/>
<polygon fill="#191970" stroke="#191970" points="702.7967,-76.2136 692.2258,-75.5011 700.0452,-82.6502 702.7967,-76.2136"/>
</g>
<!-- Node25&#45;&gt;Node26 -->
<g id="edge40" class="edge">
<title>Node25&#45;&gt;Node26</title>
<path fill="none" stroke="#191970" d="M790.8972,-112.2455C782.4972,-104.1352 770.3506,-92.4075 760.3916,-82.7919"/>
<polygon fill="#191970" stroke="#191970" points="762.6122,-80.0707 752.9871,-75.6427 757.75,-85.1066 762.6122,-80.0707"/>
</g>
<!-- Node28&#45;&gt;Node27 -->
<g id="edge85" class="edge">
<title>Node28&#45;&gt;Node27</title>
<path fill="none" stroke="#191970" d="M1265.7978,-649.2742C1265.0502,-613.3148 1262.4331,-487.4298 1261.4122,-438.3266"/>
<polygon fill="#191970" stroke="#191970" points="1264.9064,-438.0083 1261.1992,-428.0833 1257.9079,-438.1539 1264.9064,-438.0083"/>
</g>
<!-- Node29 -->
<g id="node30" class="node">
<title>Node29</title>
<g id="a_node30"><a xlink:href="IJoint_8h.html" target="_top" xlink:title="iDynTree/Model/IJoint.h">
<polygon fill="none" stroke="#000000" points="1313,-593.5 1313,-612.5 1441,-612.5 1441,-593.5 1313,-593.5"/>
<text text-anchor="middle" x="1377" y="-600.5" font-family="FreeSans.ttf" font-size="10.00" fill="#000000">iDynTree/Model/IJoint.h</text>
</a>
</g>
</g>
<!-- Node28&#45;&gt;Node29 -->
<g id="edge52" class="edge">
<title>Node28&#45;&gt;Node29</title>
<path fill="none" stroke="#191970" d="M1285.0816,-649.3733C1302.7402,-640.4644 1329.2053,-627.1127 1349.2098,-617.0203"/>
<polygon fill="#191970" stroke="#191970" points="1350.8158,-620.1303 1358.1674,-612.5011 1347.6628,-613.8806 1350.8158,-620.1303"/>
</g>
<!-- Node30 -->
<g id="node31" class="node">
<title>Node30</title>
<g id="a_node31"><a xlink:href="Indices_8h.html" target="_top" xlink:title="iDynTree/Model/Indices.h">
<polygon fill="none" stroke="#000000" points="1327,-537.5 1327,-556.5 1465,-556.5 1465,-537.5 1327,-537.5"/>
<text text-anchor="middle" x="1396" y="-544.5" font-family="FreeSans.ttf" font-size="10.00" fill="#000000">iDynTree/Model/Indices.h</text>
</a>
</g>
</g>
<!-- Node28&#45;&gt;Node30 -->
<g id="edge78" class="edge">
<title>Node28&#45;&gt;Node30</title>
<path fill="none" stroke="#191970" d="M1332.9472,-650.946C1379.406,-643.8206 1435.4606,-631.6218 1450,-613 1463.8891,-595.2112 1442.0891,-575.205 1422.179,-561.93"/>
<polygon fill="#191970" stroke="#191970" points="1423.9109,-558.8842 1413.586,-556.5078 1420.1753,-564.8042 1423.9109,-558.8842"/>
</g>
<!-- Node31 -->
<g id="node32" class="node">
<title>Node31</title>
<g id="a_node32"><a xlink:href="Link_8h.html" target="_top" xlink:title="iDynTree/Model/Link.h">
<polygon fill="none" stroke="#000000" points="1057,-593.5 1057,-612.5 1181,-612.5 1181,-593.5 1057,-593.5"/>
<text text-anchor="middle" x="1119" y="-600.5" font-family="FreeSans.ttf" font-size="10.00" fill="#000000">iDynTree/Model/Link.h</text>
</a>
</g>
</g>
<!-- Node28&#45;&gt;Node31 -->
<g id="edge55" class="edge">
<title>Node28&#45;&gt;Node31</title>
<path fill="none" stroke="#191970" d="M1240.7298,-649.3733C1216.6034,-640.1822 1180.0638,-626.2624 1153.3123,-616.0713"/>
<polygon fill="#191970" stroke="#191970" points="1154.5313,-612.7904 1143.9404,-612.5011 1152.0393,-619.3318 1154.5313,-612.7904"/>
</g>
<!-- Node40 -->
<g id="node41" class="node">
<title>Node40</title>
<g id="a_node41"><a xlink:href="Transform_8h.html" target="_top" xlink:title="iDynTree/Core/Transform.h">
<polygon fill="none" stroke="#000000" points="1129,-347.5 1129,-366.5 1275,-366.5 1275,-347.5 1129,-347.5"/>
<text text-anchor="middle" x="1202" y="-354.5" font-family="FreeSans.ttf" font-size="10.00" fill="#000000">iDynTree/Core/Transform.h</text>
</a>
</g>
</g>
<!-- Node28&#45;&gt;Node40 -->
<g id="edge73" class="edge">
<title>Node28&#45;&gt;Node40</title>
<path fill="none" stroke="#191970" d="M1257.0938,-649.3544C1241.0625,-630.945 1209,-588.8901 1209,-547 1209,-547 1209,-547 1209,-485.5 1209,-446.9442 1205.8191,-401.9772 1203.7458,-376.763"/>
<polygon fill="#191970" stroke="#191970" points="1207.2216,-376.3294 1202.8866,-366.6621 1200.2468,-376.9228 1207.2216,-376.3294"/>
</g>
<!-- Node41 -->
<g id="node42" class="node">
<title>Node41</title>
<g id="a_node42"><a xlink:href="SolidShapes_8h.html" target="_top" xlink:title="iDynTree/Model/SolidShapes.h">
<polygon fill="none" stroke="#000000" points="1275.5,-476 1275.5,-495 1438.5,-495 1438.5,-476 1275.5,-476"/>
<text text-anchor="middle" x="1357" y="-483" font-family="FreeSans.ttf" font-size="10.00" fill="#000000">iDynTree/Model/SolidShapes.h</text>
</a>
</g>
</g>
<!-- Node28&#45;&gt;Node41 -->
<g id="edge79" class="edge">
<title>Node28&#45;&gt;Node41</title>
<path fill="none" stroke="#191970" d="M1269.1672,-649.4435C1276.3425,-628.3703 1295.0143,-576.6355 1318,-537 1324.8924,-525.1151 1334.1186,-512.8121 1341.867,-503.2125"/>
<polygon fill="#191970" stroke="#191970" points="1344.7801,-505.1821 1348.458,-495.2461 1339.3867,-500.7198 1344.7801,-505.1821"/>
</g>
<!-- Node42 -->
<g id="node43" class="node">
<title>Node42</title>
<polygon fill="none" stroke="#bfbfbf" points="1425.5,-409 1425.5,-428 1474.5,-428 1474.5,-409 1425.5,-409"/>
<text text-anchor="middle" x="1450" y="-416" font-family="FreeSans.ttf" font-size="10.00" fill="#000000">cstdlib</text>
</g>
<!-- Node28&#45;&gt;Node42 -->
<g id="edge84" class="edge">
<title>Node28&#45;&gt;Node42</title>
<path fill="none" stroke="#191970" d="M1332.7115,-651.7813C1383.6666,-644.8358 1448.0975,-632.4765 1466,-613 1511.0421,-563.9976 1477.5352,-475.6696 1459.5078,-437.2251"/>
<polygon fill="#191970" stroke="#191970" points="1462.6304,-435.6431 1455.1128,-428.1774 1456.334,-438.7017 1462.6304,-435.6431"/>
</g>
<!-- Node29&#45;&gt;Node30 -->
<g id="edge53" class="edge">
<title>Node29&#45;&gt;Node30</title>
<path fill="none" stroke="#191970" d="M1380.3095,-593.2455C1382.8433,-585.7776 1386.4177,-575.2427 1389.515,-566.1137"/>
<polygon fill="#191970" stroke="#191970" points="1392.8298,-567.237 1392.7284,-556.6427 1386.2009,-564.9879 1392.8298,-567.237"/>
</g>
<!-- Node30&#45;&gt;Node14 -->
<g id="edge54" class="edge">
<title>Node30&#45;&gt;Node14</title>
<path fill="none" stroke="#191970" d="M1424.0258,-537.4128C1467.1874,-520.66 1545,-481.6945 1545,-418.5 1545,-418.5 1545,-418.5 1545,-178 1545,-107.1085 1294.7267,-77.2066 1204.1929,-68.7091"/>
<polygon fill="#191970" stroke="#191970" points="1204.4924,-65.2219 1194.2158,-67.7992 1203.8566,-72.193 1204.4924,-65.2219"/>
</g>
<!-- Node31&#45;&gt;Node30 -->
<g id="edge72" class="edge">
<title>Node31&#45;&gt;Node30</title>
<path fill="none" stroke="#191970" d="M1166.3033,-593.4369C1214.108,-583.7724 1288.0068,-568.8326 1339.0108,-558.5213"/>
<polygon fill="#191970" stroke="#191970" points="1339.7837,-561.9359 1348.8918,-556.5237 1338.3966,-555.0747 1339.7837,-561.9359"/>
</g>
<!-- Node32 -->
<g id="node33" class="node">
<title>Node32</title>
<g id="a_node33"><a xlink:href="SpatialInertia_8h.html" target="_top" xlink:title="iDynTree/Core/SpatialInertia.h">
<polygon fill="none" stroke="#000000" points="714,-537.5 714,-556.5 876,-556.5 876,-537.5 714,-537.5"/>
<text text-anchor="middle" x="795" y="-544.5" font-family="FreeSans.ttf" font-size="10.00" fill="#000000">iDynTree/Core/SpatialInertia.h</text>
</a>
</g>
</g>
<!-- Node31&#45;&gt;Node32 -->
<g id="edge56" class="edge">
<title>Node31&#45;&gt;Node32</title>
<path fill="none" stroke="#191970" d="M1063.6706,-593.4369C1007.2885,-583.6918 919.8742,-568.5832 860.173,-558.2645"/>
<polygon fill="#191970" stroke="#191970" points="860.5513,-554.778 850.1012,-556.5237 859.359,-561.6758 860.5513,-554.778"/>
</g>
<!-- Node32&#45;&gt;Node2 -->
<g id="edge60" class="edge">
<title>Node32&#45;&gt;Node2</title>
<path fill="none" stroke="#191970" d="M713.9915,-544.2667C593.7112,-539.363 379.4634,-527.0505 356,-501 322.5119,-463.8196 201.027,-536.6788 471,-168 479.8945,-155.8536 492.7931,-145.1916 504.1691,-137.1988"/>
<polygon fill="#191970" stroke="#191970" points="506.1233,-140.1025 512.4801,-131.6266 502.2251,-134.2884 506.1233,-140.1025"/>
</g>
<!-- Node33 -->
<g id="node34" class="node">
<title>Node33</title>
<g id="a_node34"><a xlink:href="SpatialInertiaRaw_8h.html" target="_top" xlink:title="iDynTree/Core/SpatialInertia\lRaw.h">
<polygon fill="none" stroke="#000000" points="1027.5,-470.5 1027.5,-500.5 1180.5,-500.5 1180.5,-470.5 1027.5,-470.5"/>
<text text-anchor="start" x="1035.5" y="-488.5" font-family="FreeSans.ttf" font-size="10.00" fill="#000000">iDynTree/Core/SpatialInertia</text>
<text text-anchor="middle" x="1104" y="-477.5" font-family="FreeSans.ttf" font-size="10.00" fill="#000000">Raw.h</text>
</a>
</g>
</g>
<!-- Node32&#45;&gt;Node33 -->
<g id="edge57" class="edge">
<title>Node32&#45;&gt;Node33</title>
<path fill="none" stroke="#191970" d="M842.9422,-537.4581C889.7173,-528.1485 961.8986,-513.7823 1018.5161,-502.5138"/>
<polygon fill="#191970" stroke="#191970" points="1019.4127,-505.9041 1028.5371,-500.5193 1018.0463,-499.0387 1019.4127,-505.9041"/>
</g>
<!-- Node35 -->
<g id="node36" class="node">
<title>Node35</title>
<g id="a_node36"><a xlink:href="Twist_8h.html" target="_top" xlink:title="iDynTree/Core/Twist.h">
<polygon fill="none" stroke="#000000" points="887,-476 887,-495 1009,-495 1009,-476 887,-476"/>
<text text-anchor="middle" x="948" y="-483" font-family="FreeSans.ttf" font-size="10.00" fill="#000000">iDynTree/Core/Twist.h</text>
</a>
</g>
</g>
<!-- Node32&#45;&gt;Node35 -->
<g id="edge61" class="edge">
<title>Node32&#45;&gt;Node35</title>
<path fill="none" stroke="#191970" d="M818.9063,-537.3906C844.7305,-527.0103 886.0527,-510.4004 914.9705,-498.7766"/>
<polygon fill="#191970" stroke="#191970" points="916.2885,-502.019 924.2616,-495.0419 913.6778,-495.5241 916.2885,-502.019"/>
</g>
<!-- Node37 -->
<g id="node38" class="node">
<title>Node37</title>
<g id="a_node38"><a xlink:href="SpatialMomentum_8h.html" target="_top" xlink:title="iDynTree/Core/SpatialMomentum.h">
<polygon fill="none" stroke="#000000" points="365,-476 365,-495 551,-495 551,-476 365,-476"/>
<text text-anchor="middle" x="458" y="-483" font-family="FreeSans.ttf" font-size="10.00" fill="#000000">iDynTree/Core/SpatialMomentum.h</text>
</a>
</g>
</g>
<!-- Node32&#45;&gt;Node37 -->
<g id="edge66" class="edge">
<title>Node32&#45;&gt;Node37</title>
<path fill="none" stroke="#191970" d="M742.7135,-537.4581C682.6086,-526.4894 584.0393,-508.5012 520.0873,-496.8305"/>
<polygon fill="#191970" stroke="#191970" points="520.5978,-493.3659 510.1319,-495.0137 519.341,-500.2522 520.5978,-493.3659"/>
</g>
<!-- Node38 -->
<g id="node39" class="node">
<title>Node38</title>
<g id="a_node39"><a xlink:href="SpatialAcc_8h.html" target="_top" xlink:title="iDynTree/Core/SpatialAcc.h">
<polygon fill="none" stroke="#000000" points="721,-476 721,-495 869,-495 869,-476 721,-476"/>
<text text-anchor="middle" x="795" y="-483" font-family="FreeSans.ttf" font-size="10.00" fill="#000000">iDynTree/Core/SpatialAcc.h</text>
</a>
</g>
</g>
<!-- Node32&#45;&gt;Node38 -->
<g id="edge68" class="edge">
<title>Node32&#45;&gt;Node38</title>
<path fill="none" stroke="#191970" d="M795,-537.3906C795,-528.8657 795,-516.1392 795,-505.4235"/>
<polygon fill="#191970" stroke="#191970" points="798.5001,-505.2448 795,-495.2449 791.5001,-505.2449 798.5001,-505.2448"/>
</g>
<!-- Node39 -->
<g id="node40" class="node">
<title>Node39</title>
<g id="a_node40"><a xlink:href="Wrench_8h.html" target="_top" xlink:title="iDynTree/Core/Wrench.h">
<polygon fill="none" stroke="#000000" points="569.5,-476 569.5,-495 702.5,-495 702.5,-476 569.5,-476"/>
<text text-anchor="middle" x="636" y="-483" font-family="FreeSans.ttf" font-size="10.00" fill="#000000">iDynTree/Core/Wrench.h</text>
</a>
</g>
</g>
<!-- Node32&#45;&gt;Node39 -->
<g id="edge70" class="edge">
<title>Node32&#45;&gt;Node39</title>
<path fill="none" stroke="#191970" d="M770.1563,-537.3906C743.3193,-527.0103 700.3767,-510.4004 670.3247,-498.7766"/>
<polygon fill="#191970" stroke="#191970" points="671.2586,-495.3851 660.6693,-495.0419 668.7333,-501.9138 671.2586,-495.3851"/>
</g>
<!-- Node34 -->
<g id="node35" class="node">
<title>Node34</title>
<g id="a_node35"><a xlink:href="RotationalInertiaRaw_8h.html" target="_top" xlink:title="iDynTree/Core/Rotational\lInertiaRaw.h">
<polygon fill="none" stroke="#000000" points="1014.5,-280.5 1014.5,-310.5 1151.5,-310.5 1151.5,-280.5 1014.5,-280.5"/>
<text text-anchor="start" x="1022.5" y="-298.5" font-family="FreeSans.ttf" font-size="10.00" fill="#000000">iDynTree/Core/Rotational</text>
<text text-anchor="middle" x="1083" y="-287.5" font-family="FreeSans.ttf" font-size="10.00" fill="#000000">InertiaRaw.h</text>
</a>
</g>
</g>
<!-- Node33&#45;&gt;Node34 -->
<g id="edge58" class="edge">
<title>Node33&#45;&gt;Node34</title>
<path fill="none" stroke="#191970" d="M1102.317,-470.2727C1098.7062,-437.6039 1090.1862,-360.5184 1085.767,-320.5352"/>
<polygon fill="#191970" stroke="#191970" points="1089.2394,-320.091 1084.6619,-310.5361 1082.2817,-320.8601 1089.2394,-320.091"/>
</g>
<!-- Node34&#45;&gt;Node25 -->
<g id="edge59" class="edge">
<title>Node34&#45;&gt;Node25</title>
<path fill="none" stroke="#191970" d="M1096.0162,-280.2654C1116.6089,-254.2656 1151.5763,-200.9487 1123,-168 1107.9478,-150.6447 981.924,-136.7667 892.0905,-128.9578"/>
<polygon fill="#191970" stroke="#191970" points="892.1362,-125.4489 881.8738,-128.0821 891.5384,-132.4234 892.1362,-125.4489"/>
</g>
<!-- Node35&#45;&gt;Node36 -->
<g id="edge62" class="edge">
<title>Node35&#45;&gt;Node36</title>
<path fill="none" stroke="#191970" d="M912.3044,-475.9717C873.6391,-465.6507 811.0914,-448.9547 763.3502,-436.211"/>
<polygon fill="#191970" stroke="#191970" points="763.9658,-432.7528 753.4014,-433.5553 762.1604,-439.516 763.9658,-432.7528"/>
</g>
<!-- Node36&#45;&gt;Node2 -->
<g id="edge63" class="edge">
<title>Node36&#45;&gt;Node2</title>
<path fill="none" stroke="#191970" d="M700.8449,-403.4669C706.3968,-380.4032 716,-334.8255 716,-295.5 716,-295.5 716,-295.5 716,-234 716,-203.3494 717.9473,-189.3957 696,-168 681.4093,-153.776 635.4693,-141.7211 595.4586,-133.5246"/>
<polygon fill="#191970" stroke="#191970" points="595.9284,-130.0494 585.4368,-131.5249 594.5586,-136.9141 595.9284,-130.0494"/>
</g>
<!-- Node36&#45;&gt;Node19 -->
<g id="edge64" class="edge">
<title>Node36&#45;&gt;Node19</title>
<path fill="none" stroke="#191970" d="M691.3075,-403.4556C675.4603,-361.5736 630.8459,-243.6641 613.258,-197.1818"/>
<polygon fill="#191970" stroke="#191970" points="616.4788,-195.8037 609.6663,-187.6895 609.9318,-198.281 616.4788,-195.8037"/>
</g>
<!-- Node36&#45;&gt;Node20 -->
<g id="edge65" class="edge">
<title>Node36&#45;&gt;Node20</title>
<path fill="none" stroke="#191970" d="M664.9538,-403.4554C643.7672,-393.509 616.1972,-380.5659 595.5412,-370.8686"/>
<polygon fill="#191970" stroke="#191970" points="596.8399,-367.6118 586.3004,-366.5303 593.8651,-373.9483 596.8399,-367.6118"/>
</g>
<!-- Node37&#45;&gt;Node18 -->
<g id="edge67" class="edge">
<title>Node37&#45;&gt;Node18</title>
<path fill="none" stroke="#191970" d="M460.579,-475.9005C462.8564,-467.4234 466.2785,-454.6856 469.3208,-443.3614"/>
<polygon fill="#191970" stroke="#191970" points="472.7498,-444.0874 471.9643,-433.5218 465.9895,-442.2712 472.7498,-444.0874"/>
</g>
<!-- Node38&#45;&gt;Node36 -->
<g id="edge69" class="edge">
<title>Node38&#45;&gt;Node36</title>
<path fill="none" stroke="#191970" d="M780.959,-475.9005C767.0412,-466.3853 745.272,-451.5023 727.388,-439.2755"/>
<polygon fill="#191970" stroke="#191970" points="729.2026,-436.2763 718.9721,-433.5218 725.2519,-442.0549 729.2026,-436.2763"/>
</g>
<!-- Node39&#45;&gt;Node18 -->
<g id="edge71" class="edge">
<title>Node39&#45;&gt;Node18</title>
<path fill="none" stroke="#191970" d="M613.0759,-475.9005C589.2169,-465.9096 551.2253,-450.0006 521.2833,-437.4624"/>
<polygon fill="#191970" stroke="#191970" points="522.4487,-434.156 511.8729,-433.5218 519.7449,-440.6127 522.4487,-434.156"/>
</g>
<!-- Node40&#45;&gt;Node14 -->
<g id="edge77" class="edge">
<title>Node40&#45;&gt;Node14</title>
<path fill="none" stroke="#191970" d="M1216.375,-347.3813C1242.25,-328.7875 1294,-285.2 1294,-234 1294,-234 1294,-234 1294,-178 1294,-128.7755 1239.4376,-95.2992 1203.2905,-78.5225"/>
<polygon fill="#191970" stroke="#191970" points="1204.6522,-75.2975 1194.0933,-74.4256 1201.8039,-81.6918 1204.6522,-75.2975"/>
</g>
<!-- Node40&#45;&gt;Node21 -->
<g id="edge74" class="edge">
<title>Node40&#45;&gt;Node21</title>
<path fill="none" stroke="#191970" d="M1160.8845,-347.4581C1111.6496,-336.0319 1029.5923,-316.9884 979.6759,-305.404"/>
<polygon fill="#191970" stroke="#191970" points="980.3704,-301.9723 969.838,-303.1209 978.7879,-308.791 980.3704,-301.9723"/>
</g>
<!-- Node40&#45;&gt;Node23 -->
<g id="edge75" class="edge">
<title>Node40&#45;&gt;Node23</title>
<path fill="none" stroke="#191970" d="M1128.9904,-352.6055C1050.9042,-346.7715 933.1433,-334.3669 895,-311 872.7644,-297.3783 856.958,-271.0459 848.1565,-253.002"/>
<polygon fill="#191970" stroke="#191970" points="851.2493,-251.3503 843.8895,-243.7291 844.8903,-254.2766 851.2493,-251.3503"/>
</g>
<!-- Node40&#45;&gt;Node25 -->
<g id="edge76" class="edge">
<title>Node40&#45;&gt;Node25</title>
<path fill="none" stroke="#191970" d="M1202.1833,-347.2301C1202.1976,-315.6045 1197.5984,-215.3383 1141,-168 1122.1263,-152.2143 985.9797,-137.6431 891.8049,-129.2946"/>
<polygon fill="#191970" stroke="#191970" points="891.9529,-125.7943 881.6853,-128.4071 891.3412,-132.7675 891.9529,-125.7943"/>
</g>
<!-- Node41&#45;&gt;Node14 -->
<g id="edge81" class="edge">
<title>Node41&#45;&gt;Node14</title>
<path fill="none" stroke="#191970" d="M1356.62,-475.8299C1355.8128,-454.4229 1354,-401.4071 1354,-357 1354,-357 1354,-357 1354,-178 1354,-108.5809 1256.774,-80.8067 1204.4461,-70.8855"/>
<polygon fill="#191970" stroke="#191970" points="1204.7756,-67.3892 1194.3168,-69.0814 1203.5481,-74.2807 1204.7756,-67.3892"/>
</g>
<!-- Node41&#45;&gt;Node27 -->
<g id="edge82" class="edge">
<title>Node41&#45;&gt;Node27</title>
<path fill="none" stroke="#191970" d="M1343.2455,-475.9005C1327.5623,-464.9549 1301.7017,-446.9064 1283.1642,-433.9688"/>
<polygon fill="#191970" stroke="#191970" points="1284.9324,-430.9347 1274.7289,-428.0817 1280.9262,-436.675 1284.9324,-430.9347"/>
</g>
<!-- Node41&#45;&gt;Node40 -->
<g id="edge83" class="edge">
<title>Node41&#45;&gt;Node40</title>
<path fill="none" stroke="#191970" d="M1351.7059,-475.9663C1342.0761,-459.3316 1320.2445,-424.7107 1294,-403 1277.5143,-389.3622 1256.3081,-378.414 1238.4109,-370.6251"/>
<polygon fill="#191970" stroke="#191970" points="1239.4354,-367.2597 1228.8595,-366.6259 1236.7318,-373.7165 1239.4354,-367.2597"/>
</g>
<!-- Node41&#45;&gt;Node42 -->
<g id="edge80" class="edge">
<title>Node41&#45;&gt;Node42</title>
<path fill="none" stroke="#191970" d="M1370.3246,-475.9005C1385.5178,-464.9549 1410.5703,-446.9064 1428.5284,-433.9688"/>
<polygon fill="#191970" stroke="#191970" points="1430.6323,-436.7668 1436.7001,-428.0817 1426.5405,-431.0872 1430.6323,-436.7668"/>
</g>
</g>
</svg>
