<?xml version="1.0" encoding="UTF-8" standalone="no"?>
<!DOCTYPE svg PUBLIC "-//W3C//DTD SVG 1.1//EN"
 "http://www.w3.org/Graphics/SVG/1.1/DTD/svg11.dtd">
<!-- Generated by graphviz version 2.40.1 (20161225.0304)
 -->
<!-- Title: KinDynComputations.h Pages: 1 -->
<svg width="1232pt" height="621pt"
 viewBox="0.00 0.00 1232.00 621.00" xmlns="http://www.w3.org/2000/svg" xmlns:xlink="http://www.w3.org/1999/xlink">
<g id="graph0" class="graph" transform="scale(1 1) rotate(0) translate(4 617)">
<title>KinDynComputations.h</title>
<!-- Node0 -->
<g id="node1" class="node">
<title>Node0</title>
<polygon fill="#bfbfbf" stroke="#000000" points="822.5,-593.5 822.5,-612.5 951.5,-612.5 951.5,-593.5 822.5,-593.5"/>
<text text-anchor="middle" x="887" y="-600.5" font-family="FreeSans.ttf" font-size="10.00" fill="#000000">KinDynComputations.h</text>
</g>
<!-- Node1 -->
<g id="node2" class="node">
<title>Node1</title>
<polygon fill="none" stroke="#bfbfbf" points="890,-56.5 890,-75.5 934,-75.5 934,-56.5 890,-56.5"/>
<text text-anchor="middle" x="912" y="-63.5" font-family="FreeSans.ttf" font-size="10.00" fill="#000000">string</text>
</g>
<!-- Node0&#45;&gt;Node1 -->
<g id="edge1" class="edge">
<title>Node0&#45;&gt;Node1</title>
<path fill="none" stroke="#191970" d="M951.5348,-597.8094C999.3877,-592.1771 1065.3418,-580.5927 1119,-557 1171.9754,-533.7075 1224,-537.87 1224,-480 1224,-480 1224,-480 1224,-183.5 1224,-140.8513 1197.1788,-132.8962 1160,-112 1123.4342,-91.4483 1002.7112,-75.8952 944.2657,-69.3687"/>
<polygon fill="#191970" stroke="#191970" points="944.4335,-65.8662 934.1118,-68.2559 943.6709,-72.8246 944.4335,-65.8662"/>
</g>
<!-- Node2 -->
<g id="node3" class="node">
<title>Node2</title>
<polygon fill="none" stroke="#bfbfbf" points="958.5,-470.5 958.5,-489.5 1005.5,-489.5 1005.5,-470.5 958.5,-470.5"/>
<text text-anchor="middle" x="982" y="-477.5" font-family="FreeSans.ttf" font-size="10.00" fill="#000000">vector</text>
</g>
<!-- Node0&#45;&gt;Node2 -->
<g id="edge2" class="edge">
<title>Node0&#45;&gt;Node2</title>
<path fill="none" stroke="#191970" d="M890.2587,-593.2349C895.7262,-577.8228 907.8569,-547.4124 925,-526 934.344,-514.329 947.1277,-503.6758 958.2209,-495.5671"/>
<polygon fill="#191970" stroke="#191970" points="960.4875,-498.2521 966.657,-489.6388 956.4628,-492.5248 960.4875,-498.2521"/>
</g>
<!-- Node3 -->
<g id="node4" class="node">
<title>Node3</title>
<g id="a_node4"><a xlink:href="VectorFixSize_8h.html" target="_top" xlink:title="iDynTree/Core/VectorFixSize.h">
<polygon fill="none" stroke="#000000" points="258.5,-112.5 258.5,-131.5 419.5,-131.5 419.5,-112.5 258.5,-112.5"/>
<text text-anchor="middle" x="339" y="-119.5" font-family="FreeSans.ttf" font-size="10.00" fill="#000000">iDynTree/Core/VectorFixSize.h</text>
</a>
</g>
</g>
<!-- Node0&#45;&gt;Node3 -->
<g id="edge3" class="edge">
<title>Node0&#45;&gt;Node3</title>
<path fill="none" stroke="#191970" d="M822.4902,-600.437C624.3635,-591.7161 38,-559.2146 38,-480 38,-480 38,-480 38,-245 38,-188.1997 88.5351,-192.034 140,-168 175.8287,-151.2681 218.2039,-140.3846 254.6237,-133.4292"/>
<polygon fill="#191970" stroke="#191970" points="255.5261,-136.822 264.7276,-131.57 254.2593,-129.9376 255.5261,-136.822"/>
</g>
<!-- Node4 -->
<g id="node5" class="node">
<title>Node4</title>
<g id="a_node5"><a xlink:href="Utils_8h.html" target="_top" xlink:title="iDynTree/Core/Utils.h">
<polygon fill="none" stroke="#000000" points="16.5,-56.5 16.5,-75.5 135.5,-75.5 135.5,-56.5 16.5,-56.5"/>
<text text-anchor="middle" x="76" y="-63.5" font-family="FreeSans.ttf" font-size="10.00" fill="#000000">iDynTree/Core/Utils.h</text>
</a>
</g>
</g>
<!-- Node0&#45;&gt;Node4 -->
<g id="edge22" class="edge">
<title>Node0&#45;&gt;Node4</title>
<path fill="none" stroke="#191970" d="M822.1939,-600.9348C649.813,-595.1824 188.6509,-578.0105 123,-557 61.574,-537.3416 0,-544.495 0,-480 0,-480 0,-480 0,-183.5 0,-141.9563 33.9099,-103.486 56.4281,-82.5193"/>
<polygon fill="#191970" stroke="#191970" points="59.0192,-84.8968 64.125,-75.6133 54.3444,-79.6865 59.0192,-84.8968"/>
</g>
<!-- Node17 -->
<g id="node18" class="node">
<title>Node17</title>
<g id="a_node18"><a xlink:href="MatrixDynSize_8h.html" target="_top" xlink:title="iDynTree/Core/MatrixDynSize.h">
<polygon fill="none" stroke="#000000" points="1029.5,-470.5 1029.5,-489.5 1196.5,-489.5 1196.5,-470.5 1029.5,-470.5"/>
<text text-anchor="middle" x="1113" y="-477.5" font-family="FreeSans.ttf" font-size="10.00" fill="#000000">iDynTree/Core/MatrixDynSize.h</text>
</a>
</g>
</g>
<!-- Node0&#45;&gt;Node17 -->
<g id="edge20" class="edge">
<title>Node0&#45;&gt;Node17</title>
<path fill="none" stroke="#191970" d="M951.6133,-596.543C1005.5987,-589.8048 1076.8869,-577.3308 1097,-557 1111.8088,-542.0309 1114.5819,-517.1533 1114.4462,-499.7377"/>
<polygon fill="#191970" stroke="#191970" points="1117.9355,-499.4002 1114.0342,-489.5498 1110.9412,-499.6831 1117.9355,-499.4002"/>
</g>
<!-- Node18 -->
<g id="node19" class="node">
<title>Node18</title>
<g id="a_node19"><a xlink:href="Indices_8h.html" target="_top" xlink:title="iDynTree/Model/Indices.h">
<polygon fill="none" stroke="#000000" points="802,-470.5 802,-489.5 940,-489.5 940,-470.5 802,-470.5"/>
<text text-anchor="middle" x="871" y="-477.5" font-family="FreeSans.ttf" font-size="10.00" fill="#000000">iDynTree/Model/Indices.h</text>
</a>
</g>
</g>
<!-- Node0&#45;&gt;Node18 -->
<g id="edge23" class="edge">
<title>Node0&#45;&gt;Node18</title>
<path fill="none" stroke="#191970" d="M885.7445,-593.3484C883.1274,-573.2295 877.0437,-526.4608 873.5639,-499.7098"/>
<polygon fill="#191970" stroke="#191970" points="877.0105,-499.0717 872.2497,-489.6068 870.0689,-499.9747 877.0105,-499.0717"/>
</g>
<!-- Node19 -->
<g id="node20" class="node">
<title>Node19</title>
<g id="a_node20"><a xlink:href="FreeFloatingMatrices_8h.html" target="_top" xlink:title="iDynTree/Model/FreeFloating\lMatrices.h">
<polygon fill="none" stroke="#000000" points="934,-526.5 934,-556.5 1088,-556.5 1088,-526.5 934,-526.5"/>
<text text-anchor="start" x="942" y="-544.5" font-family="FreeSans.ttf" font-size="10.00" fill="#000000">iDynTree/Model/FreeFloating</text>
<text text-anchor="middle" x="1011" y="-533.5" font-family="FreeSans.ttf" font-size="10.00" fill="#000000">Matrices.h</text>
</a>
</g>
</g>
<!-- Node0&#45;&gt;Node19 -->
<g id="edge25" class="edge">
<title>Node0&#45;&gt;Node19</title>
<path fill="none" stroke="#191970" d="M906.375,-593.3906C923.7784,-584.7591 949.8666,-571.8202 971.6379,-561.0224"/>
<polygon fill="#191970" stroke="#191970" points="973.2626,-564.1234 980.6662,-556.5446 970.1524,-557.8523 973.2626,-564.1234"/>
</g>
<!-- Node20 -->
<g id="node21" class="node">
<title>Node20</title>
<g id="a_node21"><a xlink:href="LinkState_8h.html" target="_top" xlink:title="iDynTree/Model/LinkState.h">
<polygon fill="none" stroke="#000000" points="634.5,-532 634.5,-551 783.5,-551 783.5,-532 634.5,-532"/>
<text text-anchor="middle" x="709" y="-539" font-family="FreeSans.ttf" font-size="10.00" fill="#000000">iDynTree/Model/LinkState.h</text>
</a>
</g>
</g>
<!-- Node0&#45;&gt;Node20 -->
<g id="edge27" class="edge">
<title>Node0&#45;&gt;Node20</title>
<path fill="none" stroke="#191970" d="M859.1875,-593.3906C828.7517,-582.8749 779.8123,-565.966 746.1174,-554.3243"/>
<polygon fill="#191970" stroke="#191970" points="747.212,-550.9995 736.6172,-551.0419 744.926,-557.6157 747.212,-550.9995"/>
</g>
<!-- Node3&#45;&gt;Node1 -->
<g id="edge16" class="edge">
<title>Node3&#45;&gt;Node1</title>
<path fill="none" stroke="#191970" d="M419.5789,-114.1249C547.7063,-101.6029 792.3438,-77.6941 879.8687,-69.1402"/>
<polygon fill="#191970" stroke="#191970" points="880.3685,-72.6082 889.9806,-68.152 879.6876,-65.6413 880.3685,-72.6082"/>
</g>
<!-- Node3&#45;&gt;Node4 -->
<g id="edge4" class="edge">
<title>Node3&#45;&gt;Node4</title>
<path fill="none" stroke="#191970" d="M294.0875,-112.4369C248.888,-102.8127 179.1193,-87.957 130.7153,-77.6504"/>
<polygon fill="#191970" stroke="#191970" points="131.2369,-74.1831 120.7272,-75.5237 129.779,-81.0296 131.2369,-74.1831"/>
</g>
<!-- Node6 -->
<g id="node7" class="node">
<title>Node6</title>
<g id="a_node7"><a xlink:href="Span_8h.html" target="_top" xlink:title="iDynTree/Core/Span.h">
<polygon fill="none" stroke="#000000" points="240.5,-56.5 240.5,-75.5 361.5,-75.5 361.5,-56.5 240.5,-56.5"/>
<text text-anchor="middle" x="301" y="-63.5" font-family="FreeSans.ttf" font-size="10.00" fill="#000000">iDynTree/Core/Span.h</text>
</a>
</g>
</g>
<!-- Node3&#45;&gt;Node6 -->
<g id="edge6" class="edge">
<title>Node3&#45;&gt;Node6</title>
<path fill="none" stroke="#191970" d="M332.3809,-112.2455C327.0954,-104.4564 319.5459,-93.3308 313.1762,-83.9439"/>
<polygon fill="#191970" stroke="#191970" points="316.0545,-81.9522 307.5432,-75.6427 310.2621,-85.8827 316.0545,-81.9522"/>
</g>
<!-- Node7 -->
<g id="node8" class="node">
<title>Node7</title>
<polygon fill="none" stroke="#bfbfbf" points="609,-.5 609,-19.5 661,-19.5 661,-.5 609,-.5"/>
<text text-anchor="middle" x="635" y="-7.5" font-family="FreeSans.ttf" font-size="10.00" fill="#000000">cassert</text>
</g>
<!-- Node3&#45;&gt;Node7 -->
<g id="edge18" class="edge">
<title>Node3&#45;&gt;Node7</title>
<path fill="none" stroke="#191970" d="M346.3772,-112.106C357.9639,-97.3432 381.9195,-69.8113 409,-56 485.5642,-16.9514 515.2988,-39.5187 599,-20 599.0987,-19.977 599.1975,-19.9539 599.2965,-19.9307"/>
<polygon fill="#191970" stroke="#191970" points="599.8674,-23.3958 608.7192,-17.5738 598.1687,-16.605 599.8674,-23.3958"/>
</g>
<!-- Node15 -->
<g id="node16" class="node">
<title>Node15</title>
<polygon fill="none" stroke="#bfbfbf" points="418,-56.5 418,-75.5 474,-75.5 474,-56.5 418,-56.5"/>
<text text-anchor="middle" x="446" y="-63.5" font-family="FreeSans.ttf" font-size="10.00" fill="#000000">sstream</text>
</g>
<!-- Node3&#45;&gt;Node15 -->
<g id="edge17" class="edge">
<title>Node3&#45;&gt;Node15</title>
<path fill="none" stroke="#191970" d="M357.638,-112.2455C374.4386,-103.4527 399.3634,-90.4079 418.4618,-80.4125"/>
<polygon fill="#191970" stroke="#191970" points="420.3386,-83.3807 427.5756,-75.6427 417.0927,-77.1787 420.3386,-83.3807"/>
</g>
<!-- Node16 -->
<g id="node17" class="node">
<title>Node16</title>
<polygon fill="none" stroke="#bfbfbf" points="492,-56.5 492,-75.5 542,-75.5 542,-56.5 492,-56.5"/>
<text text-anchor="middle" x="517" y="-63.5" font-family="FreeSans.ttf" font-size="10.00" fill="#000000">cstring</text>
</g>
<!-- Node3&#45;&gt;Node16 -->
<g id="edge19" class="edge">
<title>Node3&#45;&gt;Node16</title>
<path fill="none" stroke="#191970" d="M369.5993,-112.3733C400.9476,-102.5109 449.6029,-87.2036 482.3501,-76.9011"/>
<polygon fill="#191970" stroke="#191970" points="483.4769,-80.2158 491.9656,-73.876 481.3761,-73.5384 483.4769,-80.2158"/>
</g>
<!-- Node5 -->
<g id="node6" class="node">
<title>Node5</title>
<polygon fill="none" stroke="#bfbfbf" points="27.5,-.5 27.5,-19.5 80.5,-19.5 80.5,-.5 27.5,-.5"/>
<text text-anchor="middle" x="54" y="-7.5" font-family="FreeSans.ttf" font-size="10.00" fill="#000000">cstddef</text>
</g>
<!-- Node4&#45;&gt;Node5 -->
<g id="edge5" class="edge">
<title>Node4&#45;&gt;Node5</title>
<path fill="none" stroke="#191970" d="M72.1679,-56.2455C69.2341,-48.7776 65.0953,-38.2427 61.509,-29.1137"/>
<polygon fill="#191970" stroke="#191970" points="64.7024,-27.6704 57.7882,-19.6427 58.1871,-30.23 64.7024,-27.6704"/>
</g>
<!-- Node6&#45;&gt;Node5 -->
<g id="edge10" class="edge">
<title>Node6&#45;&gt;Node5</title>
<path fill="none" stroke="#191970" d="M253.4758,-56.4366C212.7725,-48.0662 152.3808,-35.2233 90.6144,-20.0496"/>
<polygon fill="#191970" stroke="#191970" points="91.2402,-16.599 80.6922,-17.5946 89.5589,-23.3941 91.2402,-16.599"/>
</g>
<!-- Node6&#45;&gt;Node7 -->
<g id="edge7" class="edge">
<title>Node6&#45;&gt;Node7</title>
<path fill="none" stroke="#191970" d="M361.6616,-57.4983C435.2482,-47.0341 554.9244,-29.4889 599,-20 599.0991,-19.9787 599.1983,-19.9572 599.2976,-19.9357"/>
<polygon fill="#191970" stroke="#191970" points="599.83,-23.4071 608.7427,-17.6786 598.203,-16.5988 599.83,-23.4071"/>
</g>
<!-- Node8 -->
<g id="node9" class="node">
<title>Node8</title>
<polygon fill="none" stroke="#bfbfbf" points="99,-.5 99,-19.5 163,-19.5 163,-.5 99,-.5"/>
<text text-anchor="middle" x="131" y="-7.5" font-family="FreeSans.ttf" font-size="10.00" fill="#000000">algorithm</text>
</g>
<!-- Node6&#45;&gt;Node8 -->
<g id="edge8" class="edge">
<title>Node6&#45;&gt;Node8</title>
<path fill="none" stroke="#191970" d="M271.776,-56.3733C243.5075,-47.0613 200.5035,-32.8953 169.4656,-22.671"/>
<polygon fill="#191970" stroke="#191970" points="170.4357,-19.3056 159.8427,-19.5011 168.2456,-25.9542 170.4357,-19.3056"/>
</g>
<!-- Node9 -->
<g id="node10" class="node">
<title>Node9</title>
<polygon fill="none" stroke="#bfbfbf" points="181,-.5 181,-19.5 223,-19.5 223,-.5 181,-.5"/>
<text text-anchor="middle" x="202" y="-7.5" font-family="FreeSans.ttf" font-size="10.00" fill="#000000">array</text>
</g>
<!-- Node6&#45;&gt;Node9 -->
<g id="edge9" class="edge">
<title>Node6&#45;&gt;Node9</title>
<path fill="none" stroke="#191970" d="M283.7555,-56.2455C268.4239,-47.5731 245.7801,-34.7645 228.2084,-24.825"/>
<polygon fill="#191970" stroke="#191970" points="229.4741,-21.5198 219.0469,-19.6427 226.0276,-27.6126 229.4741,-21.5198"/>
</g>
<!-- Node10 -->
<g id="node11" class="node">
<title>Node10</title>
<polygon fill="none" stroke="#bfbfbf" points="241.5,-.5 241.5,-19.5 294.5,-19.5 294.5,-.5 241.5,-.5"/>
<text text-anchor="middle" x="268" y="-7.5" font-family="FreeSans.ttf" font-size="10.00" fill="#000000">iterator</text>
</g>
<!-- Node6&#45;&gt;Node10 -->
<g id="edge11" class="edge">
<title>Node6&#45;&gt;Node10</title>
<path fill="none" stroke="#191970" d="M295.2518,-56.2455C290.7565,-48.617 284.3752,-37.7881 278.9175,-28.5267"/>
<polygon fill="#191970" stroke="#191970" points="281.7747,-26.4811 273.6823,-19.6427 275.7439,-30.035 281.7747,-26.4811"/>
</g>
<!-- Node11 -->
<g id="node12" class="node">
<title>Node11</title>
<polygon fill="none" stroke="#bfbfbf" points="313,-.5 313,-19.5 357,-19.5 357,-.5 313,-.5"/>
<text text-anchor="middle" x="335" y="-7.5" font-family="FreeSans.ttf" font-size="10.00" fill="#000000">limits</text>
</g>
<!-- Node6&#45;&gt;Node11 -->
<g id="edge12" class="edge">
<title>Node6&#45;&gt;Node11</title>
<path fill="none" stroke="#191970" d="M306.9223,-56.2455C311.6027,-48.5367 318.2673,-37.5598 323.9289,-28.2348"/>
<polygon fill="#191970" stroke="#191970" points="326.9475,-30.007 329.1455,-19.6427 320.9639,-26.3741 326.9475,-30.007"/>
</g>
<!-- Node12 -->
<g id="node13" class="node">
<title>Node12</title>
<polygon fill="none" stroke="#bfbfbf" points="375.5,-.5 375.5,-19.5 440.5,-19.5 440.5,-.5 375.5,-.5"/>
<text text-anchor="middle" x="408" y="-7.5" font-family="FreeSans.ttf" font-size="10.00" fill="#000000">stdexcept</text>
</g>
<!-- Node6&#45;&gt;Node12 -->
<g id="edge13" class="edge">
<title>Node6&#45;&gt;Node12</title>
<path fill="none" stroke="#191970" d="M319.638,-56.2455C336.4386,-47.4527 361.3634,-34.4079 380.4618,-24.4125"/>
<polygon fill="#191970" stroke="#191970" points="382.3386,-27.3807 389.5756,-19.6427 379.0927,-21.1787 382.3386,-27.3807"/>
</g>
<!-- Node13 -->
<g id="node14" class="node">
<title>Node13</title>
<polygon fill="none" stroke="#bfbfbf" points="458.5,-.5 458.5,-19.5 527.5,-19.5 527.5,-.5 458.5,-.5"/>
<text text-anchor="middle" x="493" y="-7.5" font-family="FreeSans.ttf" font-size="10.00" fill="#000000">type_traits</text>
</g>
<!-- Node6&#45;&gt;Node13 -->
<g id="edge14" class="edge">
<title>Node6&#45;&gt;Node13</title>
<path fill="none" stroke="#191970" d="M334.006,-56.3733C366.2091,-46.9807 415.3442,-32.6496 450.4639,-22.4064"/>
<polygon fill="#191970" stroke="#191970" points="451.8047,-25.6612 460.4247,-19.5011 449.8447,-18.9412 451.8047,-25.6612"/>
</g>
<!-- Node14 -->
<g id="node15" class="node">
<title>Node14</title>
<polygon fill="none" stroke="#bfbfbf" points="545.5,-.5 545.5,-19.5 590.5,-19.5 590.5,-.5 545.5,-.5"/>
<text text-anchor="middle" x="568" y="-7.5" font-family="FreeSans.ttf" font-size="10.00" fill="#000000">utility</text>
</g>
<!-- Node6&#45;&gt;Node14 -->
<g id="edge15" class="edge">
<title>Node6&#45;&gt;Node14</title>
<path fill="none" stroke="#191970" d="M358.8553,-56.4976C404.4228,-48.5987 469.6874,-36.3726 535.63,-19.8761"/>
<polygon fill="#191970" stroke="#191970" points="536.5273,-23.2595 545.3619,-17.4113 534.8086,-16.4737 536.5273,-23.2595"/>
</g>
<!-- Node17&#45;&gt;Node1 -->
<g id="edge21" class="edge">
<title>Node17&#45;&gt;Node1</title>
<path fill="none" stroke="#191970" d="M1123.7714,-470.3278C1144.0776,-450.9706 1186,-405.1738 1186,-357 1186,-357 1186,-357 1186,-183.5 1186,-143.6776 1165.6329,-133.3227 1132,-112 1101.1042,-92.4126 997.4487,-76.8413 944.1889,-69.9107"/>
<polygon fill="#191970" stroke="#191970" points="944.6082,-66.4359 934.2454,-68.6412 943.7216,-73.3796 944.6082,-66.4359"/>
</g>
<!-- Node18&#45;&gt;Node1 -->
<g id="edge24" class="edge">
<title>Node18&#45;&gt;Node1</title>
<path fill="none" stroke="#191970" d="M913.3719,-470.4718C990.9678,-451.7873 1148,-407.7108 1148,-357 1148,-357 1148,-357 1148,-183.5 1148,-93.5364 1008.8729,-72.4527 944.2631,-67.5119"/>
<polygon fill="#191970" stroke="#191970" points="944.4168,-64.0144 934.2023,-66.8278 943.9418,-70.9983 944.4168,-64.0144"/>
</g>
<!-- Node19&#45;&gt;Node17 -->
<g id="edge26" class="edge">
<title>Node19&#45;&gt;Node17</title>
<path fill="none" stroke="#191970" d="M1035.952,-526.4554C1051.9259,-516.8241 1072.5602,-504.3828 1088.4543,-494.7996"/>
<polygon fill="#191970" stroke="#191970" points="1090.437,-497.6912 1097.1936,-489.5303 1086.8226,-491.6965 1090.437,-497.6912"/>
</g>
<!-- Node20&#45;&gt;Node2 -->
<g id="edge73" class="edge">
<title>Node20&#45;&gt;Node2</title>
<path fill="none" stroke="#191970" d="M759.3879,-531.9503C805.958,-522.8407 877.2531,-508.1794 948.2587,-490.0304"/>
<polygon fill="#191970" stroke="#191970" points="949.4648,-493.3339 958.2733,-487.4465 947.716,-486.5558 949.4648,-493.3339"/>
</g>
<!-- Node20&#45;&gt;Node18 -->
<g id="edge72" class="edge">
<title>Node20&#45;&gt;Node18</title>
<path fill="none" stroke="#191970" d="M734.3125,-531.8906C761.7747,-521.4652 805.7895,-504.7559 836.4263,-493.1252"/>
<polygon fill="#191970" stroke="#191970" points="837.7585,-496.3633 845.8652,-489.5419 835.274,-489.819 837.7585,-496.3633"/>
</g>
<!-- Node21 -->
<g id="node22" class="node">
<title>Node21</title>
<g id="a_node22"><a xlink:href="Transform_8h.html" target="_top" xlink:title="iDynTree/Core/Transform.h">
<polygon fill="none" stroke="#000000" points="587,-347.5 587,-366.5 733,-366.5 733,-347.5 587,-347.5"/>
<text text-anchor="middle" x="660" y="-354.5" font-family="FreeSans.ttf" font-size="10.00" fill="#000000">iDynTree/Core/Transform.h</text>
</a>
</g>
</g>
<!-- Node20&#45;&gt;Node21 -->
<g id="edge28" class="edge">
<title>Node20&#45;&gt;Node21</title>
<path fill="none" stroke="#191970" d="M706.4345,-531.8402C698.7113,-502.76 675.5727,-415.636 665.168,-376.459"/>
<polygon fill="#191970" stroke="#191970" points="668.4897,-375.3307 662.5401,-366.5641 661.7242,-377.1275 668.4897,-375.3307"/>
</g>
<!-- Node29 -->
<g id="node30" class="node">
<title>Node29</title>
<g id="a_node30"><a xlink:href="Twist_8h.html" target="_top" xlink:title="iDynTree/Core/Twist.h">
<polygon fill="none" stroke="#000000" points="336,-470.5 336,-489.5 458,-489.5 458,-470.5 336,-470.5"/>
<text text-anchor="middle" x="397" y="-477.5" font-family="FreeSans.ttf" font-size="10.00" fill="#000000">iDynTree/Core/Twist.h</text>
</a>
</g>
</g>
<!-- Node20&#45;&gt;Node29 -->
<g id="edge51" class="edge">
<title>Node20&#45;&gt;Node29</title>
<path fill="none" stroke="#191970" d="M660.5923,-531.9581C605.1753,-521.0345 514.4397,-503.1492 455.214,-491.4749"/>
<polygon fill="#191970" stroke="#191970" points="455.7526,-488.0138 445.2645,-489.5137 454.3988,-494.8816 455.7526,-488.0138"/>
</g>
<!-- Node32 -->
<g id="node33" class="node">
<title>Node32</title>
<g id="a_node33"><a xlink:href="SpatialAcc_8h.html" target="_top" xlink:title="iDynTree/Core/SpatialAcc.h">
<polygon fill="none" stroke="#000000" points="149,-470.5 149,-489.5 297,-489.5 297,-470.5 149,-470.5"/>
<text text-anchor="middle" x="223" y="-477.5" font-family="FreeSans.ttf" font-size="10.00" fill="#000000">iDynTree/Core/SpatialAcc.h</text>
</a>
</g>
</g>
<!-- Node20&#45;&gt;Node32 -->
<g id="edge62" class="edge">
<title>Node20&#45;&gt;Node32</title>
<path fill="none" stroke="#191970" d="M634.393,-532.059C546.1672,-520.8946 399.6797,-502.3576 307.3913,-490.6791"/>
<polygon fill="#191970" stroke="#191970" points="307.6071,-487.1786 297.2468,-489.3954 306.7283,-494.1232 307.6071,-487.1786"/>
</g>
<!-- Node33 -->
<g id="node34" class="node">
<title>Node33</title>
<g id="a_node34"><a xlink:href="Wrench_8h.html" target="_top" xlink:title="iDynTree/Core/Wrench.h">
<polygon fill="none" stroke="#000000" points="508.5,-470.5 508.5,-489.5 641.5,-489.5 641.5,-470.5 508.5,-470.5"/>
<text text-anchor="middle" x="575" y="-477.5" font-family="FreeSans.ttf" font-size="10.00" fill="#000000">iDynTree/Core/Wrench.h</text>
</a>
</g>
</g>
<!-- Node20&#45;&gt;Node33 -->
<g id="edge64" class="edge">
<title>Node20&#45;&gt;Node33</title>
<path fill="none" stroke="#191970" d="M688.0625,-531.8906C665.7402,-521.6457 630.1963,-505.3326 604.9243,-493.7339"/>
<polygon fill="#191970" stroke="#191970" points="606.3389,-490.5322 595.7905,-489.5419 603.419,-496.8942 606.3389,-490.5322"/>
</g>
<!-- Node35 -->
<g id="node36" class="node">
<title>Node35</title>
<g id="a_node36"><a xlink:href="ArticulatedBodyInertia_8h.html" target="_top" xlink:title="iDynTree/Core/Articulated\lBodyInertia.h">
<polygon fill="none" stroke="#000000" points="940.5,-168.5 940.5,-198.5 1081.5,-198.5 1081.5,-168.5 940.5,-168.5"/>
<text text-anchor="start" x="948.5" y="-186.5" font-family="FreeSans.ttf" font-size="10.00" fill="#000000">iDynTree/Core/Articulated</text>
<text text-anchor="middle" x="1011" y="-175.5" font-family="FreeSans.ttf" font-size="10.00" fill="#000000">BodyInertia.h</text>
</a>
</g>
</g>
<!-- Node20&#45;&gt;Node35 -->
<g id="edge69" class="edge">
<title>Node20&#45;&gt;Node35</title>
<path fill="none" stroke="#191970" d="M717.0778,-531.9244C756.9186,-484.6958 932.9268,-276.0503 991.7674,-206.2989"/>
<polygon fill="#191970" stroke="#191970" points="994.5725,-208.4018 998.3452,-198.5014 989.222,-203.8882 994.5725,-208.4018"/>
</g>
<!-- Node21&#45;&gt;Node1 -->
<g id="edge50" class="edge">
<title>Node21&#45;&gt;Node1</title>
<path fill="none" stroke="#191970" d="M733.0509,-353.831C860.4875,-346.2925 1110,-321.7346 1110,-245 1110,-245 1110,-245 1110,-183.5 1110,-107.4573 1000.6584,-79.5455 944.4835,-70.2235"/>
<polygon fill="#191970" stroke="#191970" points="944.7472,-66.7225 934.3282,-68.6448 943.6719,-73.6395 944.7472,-66.7225"/>
</g>
<!-- Node22 -->
<g id="node23" class="node">
<title>Node22</title>
<g id="a_node23"><a xlink:href="Position_8h.html" target="_top" xlink:title="iDynTree/Core/Position.h">
<polygon fill="none" stroke="#000000" points="496,-291.5 496,-310.5 632,-310.5 632,-291.5 496,-291.5"/>
<text text-anchor="middle" x="564" y="-298.5" font-family="FreeSans.ttf" font-size="10.00" fill="#000000">iDynTree/Core/Position.h</text>
</a>
</g>
</g>
<!-- Node21&#45;&gt;Node22 -->
<g id="edge29" class="edge">
<title>Node21&#45;&gt;Node22</title>
<path fill="none" stroke="#191970" d="M643.2781,-347.2455C628.4111,-338.5731 606.4534,-325.7645 589.4142,-315.825"/>
<polygon fill="#191970" stroke="#191970" points="590.9317,-312.6582 580.5303,-310.6427 587.4045,-318.7047 590.9317,-312.6582"/>
</g>
<!-- Node24 -->
<g id="node25" class="node">
<title>Node24</title>
<g id="a_node25"><a xlink:href="Rotation_8h.html" target="_top" xlink:title="iDynTree/Core/Rotation.h">
<polygon fill="none" stroke="#000000" points="400.5,-235.5 400.5,-254.5 537.5,-254.5 537.5,-235.5 400.5,-235.5"/>
<text text-anchor="middle" x="469" y="-242.5" font-family="FreeSans.ttf" font-size="10.00" fill="#000000">iDynTree/Core/Rotation.h</text>
</a>
</g>
</g>
<!-- Node21&#45;&gt;Node24 -->
<g id="edge48" class="edge">
<title>Node21&#45;&gt;Node24</title>
<path fill="none" stroke="#191970" d="M599.1976,-347.4297C555.9938,-339.4426 502.9279,-326.8268 487,-311 474.7813,-298.8589 470.6299,-279.2913 469.3267,-264.6087"/>
<polygon fill="#191970" stroke="#191970" points="472.8175,-264.34 468.7989,-254.5369 465.8271,-264.7064 472.8175,-264.34"/>
</g>
<!-- Node27 -->
<g id="node28" class="node">
<title>Node27</title>
<g id="a_node28"><a xlink:href="MatrixFixSize_8h.html" target="_top" xlink:title="iDynTree/Core/MatrixFixSize.h">
<polygon fill="none" stroke="#000000" points="567.5,-112.5 567.5,-131.5 728.5,-131.5 728.5,-112.5 567.5,-112.5"/>
<text text-anchor="middle" x="648" y="-119.5" font-family="FreeSans.ttf" font-size="10.00" fill="#000000">iDynTree/Core/MatrixFixSize.h</text>
</a>
</g>
</g>
<!-- Node21&#45;&gt;Node27 -->
<g id="edge49" class="edge">
<title>Node21&#45;&gt;Node27</title>
<path fill="none" stroke="#191970" d="M659.5147,-347.4967C657.7245,-312.4391 651.4677,-189.9096 649.006,-141.7"/>
<polygon fill="#191970" stroke="#191970" points="652.4968,-141.4301 648.4913,-131.6216 645.5059,-141.7871 652.4968,-141.4301"/>
</g>
<!-- Node22&#45;&gt;Node1 -->
<g id="edge47" class="edge">
<title>Node22&#45;&gt;Node1</title>
<path fill="none" stroke="#191970" d="M611.4506,-291.4763C690.1421,-274.7684 842.6972,-238.207 880,-199 909.6262,-167.8614 913.357,-114.2805 912.9992,-85.5499"/>
<polygon fill="#191970" stroke="#191970" points="916.497,-85.4206 912.6916,-75.5328 909.5003,-85.6355 916.497,-85.4206"/>
</g>
<!-- Node23 -->
<g id="node24" class="node">
<title>Node23</title>
<g id="a_node24"><a xlink:href="PositionRaw_8h.html" target="_top" xlink:title="iDynTree/Core/PositionRaw.h">
<polygon fill="none" stroke="#000000" points="476,-174 476,-193 632,-193 632,-174 476,-174"/>
<text text-anchor="middle" x="554" y="-181" font-family="FreeSans.ttf" font-size="10.00" fill="#000000">iDynTree/Core/PositionRaw.h</text>
</a>
</g>
</g>
<!-- Node22&#45;&gt;Node23 -->
<g id="edge30" class="edge">
<title>Node22&#45;&gt;Node23</title>
<path fill="none" stroke="#191970" d="M563.1817,-291.3845C561.5482,-272.1913 557.8541,-228.786 555.6822,-203.2663"/>
<polygon fill="#191970" stroke="#191970" points="559.1651,-202.9155 554.8296,-193.2484 552.1903,-203.5092 559.1651,-202.9155"/>
</g>
<!-- Node22&#45;&gt;Node24 -->
<g id="edge33" class="edge">
<title>Node22&#45;&gt;Node24</title>
<path fill="none" stroke="#191970" d="M547.4523,-291.2455C532.7401,-282.5731 511.0112,-269.7645 494.1495,-259.825"/>
<polygon fill="#191970" stroke="#191970" points="495.7502,-256.7057 485.3581,-254.6427 492.1954,-262.736 495.7502,-256.7057"/>
</g>
<!-- Node23&#45;&gt;Node1 -->
<g id="edge32" class="edge">
<title>Node23&#45;&gt;Node1</title>
<path fill="none" stroke="#191970" d="M591.4365,-173.9777C628.6255,-164.2814 687.1448,-148.3825 737,-132 787.6782,-115.347 845.3811,-92.8875 880.2226,-78.9319"/>
<polygon fill="#191970" stroke="#191970" points="881.8723,-82.0409 889.8434,-75.0614 879.2597,-75.5467 881.8723,-82.0409"/>
</g>
<!-- Node23&#45;&gt;Node3 -->
<g id="edge31" class="edge">
<title>Node23&#45;&gt;Node3</title>
<path fill="none" stroke="#191970" d="M520.4063,-173.8906C483.0917,-163.2169 422.7508,-145.9566 382.0114,-134.3033"/>
<polygon fill="#191970" stroke="#191970" points="382.9348,-130.9271 372.3579,-131.5419 381.0097,-137.6572 382.9348,-130.9271"/>
</g>
<!-- Node24&#45;&gt;Node1 -->
<g id="edge34" class="edge">
<title>Node24&#45;&gt;Node1</title>
<path fill="none" stroke="#191970" d="M537.5256,-240.5436C641.6088,-233.2238 830.1413,-217.5958 855,-199 873.9765,-184.8044 895.9423,-119.2917 906.1837,-85.8139"/>
<polygon fill="#191970" stroke="#191970" points="909.664,-86.3931 909.1861,-75.809 902.9594,-84.381 909.664,-86.3931"/>
</g>
<!-- Node24&#45;&gt;Node3 -->
<g id="edge46" class="edge">
<title>Node24&#45;&gt;Node3</title>
<path fill="none" stroke="#191970" d="M458.7991,-235.3484C436.6809,-214.4212 384.0874,-164.6596 356.5292,-138.5854"/>
<polygon fill="#191970" stroke="#191970" points="358.8229,-135.9372 349.1535,-131.6068 354.012,-141.022 358.8229,-135.9372"/>
</g>
<!-- Node25 -->
<g id="node26" class="node">
<title>Node25</title>
<g id="a_node26"><a xlink:href="GeomVector3_8h.html" target="_top" xlink:title="iDynTree/Core/GeomVector3.h">
<polygon fill="none" stroke="#000000" points="180.5,-174 180.5,-193 343.5,-193 343.5,-174 180.5,-174"/>
<text text-anchor="middle" x="262" y="-181" font-family="FreeSans.ttf" font-size="10.00" fill="#000000">iDynTree/Core/GeomVector3.h</text>
</a>
</g>
</g>
<!-- Node24&#45;&gt;Node25 -->
<g id="edge35" class="edge">
<title>Node24&#45;&gt;Node25</title>
<path fill="none" stroke="#191970" d="M436.6563,-235.3906C400.882,-224.7621 343.1253,-207.6025 303.9095,-195.9514"/>
<polygon fill="#191970" stroke="#191970" points="304.6993,-192.5349 294.1166,-193.0419 302.7057,-199.245 304.6993,-192.5349"/>
</g>
<!-- Node26 -->
<g id="node27" class="node">
<title>Node26</title>
<g id="a_node27"><a xlink:href="RotationRaw_8h.html" target="_top" xlink:title="iDynTree/Core/RotationRaw.h">
<polygon fill="none" stroke="#000000" points="688,-174 688,-193 846,-193 846,-174 688,-174"/>
<text text-anchor="middle" x="767" y="-181" font-family="FreeSans.ttf" font-size="10.00" fill="#000000">iDynTree/Core/RotationRaw.h</text>
</a>
</g>
</g>
<!-- Node24&#45;&gt;Node26 -->
<g id="edge37" class="edge">
<title>Node24&#45;&gt;Node26</title>
<path fill="none" stroke="#191970" d="M515.2355,-235.4581C567.9795,-224.573 654.2199,-206.7751 710.7992,-195.0985"/>
<polygon fill="#191970" stroke="#191970" points="711.5698,-198.5133 720.656,-193.0643 710.1549,-191.6578 711.5698,-198.5133"/>
</g>
<!-- Node25&#45;&gt;Node3 -->
<g id="edge36" class="edge">
<title>Node25&#45;&gt;Node3</title>
<path fill="none" stroke="#191970" d="M274.0313,-173.8906C286.0107,-164.3227 304.6166,-149.4621 318.8525,-138.0919"/>
<polygon fill="#191970" stroke="#191970" points="321.4239,-140.5175 327.0532,-131.5419 317.0553,-135.0479 321.4239,-140.5175"/>
</g>
<!-- Node26&#45;&gt;Node1 -->
<g id="edge45" class="edge">
<title>Node26&#45;&gt;Node1</title>
<path fill="none" stroke="#191970" d="M778.866,-173.8845C803.7195,-153.7446 861.4721,-106.945 892.1005,-82.1255"/>
<polygon fill="#191970" stroke="#191970" points="894.4043,-84.7635 899.9701,-75.7484 889.9972,-79.325 894.4043,-84.7635"/>
</g>
<!-- Node26&#45;&gt;Node27 -->
<g id="edge38" class="edge">
<title>Node26&#45;&gt;Node27</title>
<path fill="none" stroke="#191970" d="M748.4063,-173.8906C728.8447,-163.7811 697.8499,-147.7628 675.4691,-136.1962"/>
<polygon fill="#191970" stroke="#191970" points="676.9539,-133.0238 666.4632,-131.5419 673.74,-139.2425 676.9539,-133.0238"/>
</g>
<!-- Node27&#45;&gt;Node1 -->
<g id="edge42" class="edge">
<title>Node27&#45;&gt;Node1</title>
<path fill="none" stroke="#191970" d="M693.0833,-112.4369C746.2058,-101.1685 833.1373,-82.7284 879.8711,-72.8152"/>
<polygon fill="#191970" stroke="#191970" points="880.6967,-76.2181 889.7527,-70.7191 879.2441,-69.3704 880.6967,-76.2181"/>
</g>
<!-- Node27&#45;&gt;Node4 -->
<g id="edge39" class="edge">
<title>Node27&#45;&gt;Node4</title>
<path fill="none" stroke="#191970" d="M567.2596,-114.0953C454.64,-103.0697 252.2733,-83.2575 145.8212,-72.8356"/>
<polygon fill="#191970" stroke="#191970" points="146.1185,-69.3481 135.825,-71.857 145.4364,-76.3148 146.1185,-69.3481"/>
</g>
<!-- Node27&#45;&gt;Node7 -->
<g id="edge40" class="edge">
<title>Node27&#45;&gt;Node7</title>
<path fill="none" stroke="#191970" d="M646.8916,-112.4509C644.7714,-94.184 640.102,-53.9553 637.2863,-29.6976"/>
<polygon fill="#191970" stroke="#191970" points="640.7353,-29.0546 636.1056,-19.5249 633.782,-29.8618 640.7353,-29.0546"/>
</g>
<!-- Node27&#45;&gt;Node15 -->
<g id="edge44" class="edge">
<title>Node27&#45;&gt;Node15</title>
<path fill="none" stroke="#191970" d="M613.275,-112.3733C577.2901,-102.3973 521.2097,-86.8502 484.0448,-76.5471"/>
<polygon fill="#191970" stroke="#191970" points="484.668,-73.0879 474.0964,-73.7891 482.7979,-79.8335 484.668,-73.0879"/>
</g>
<!-- Node27&#45;&gt;Node16 -->
<g id="edge41" class="edge">
<title>Node27&#45;&gt;Node16</title>
<path fill="none" stroke="#191970" d="M625.4803,-112.3733C604.2628,-103.3032 572.2724,-89.6279 548.5231,-79.4755"/>
<polygon fill="#191970" stroke="#191970" points="549.7967,-76.2136 539.2258,-75.5011 547.0452,-82.6502 549.7967,-76.2136"/>
</g>
<!-- Node28 -->
<g id="node29" class="node">
<title>Node28</title>
<polygon fill="none" stroke="#bfbfbf" points="560,-56.5 560,-75.5 620,-75.5 620,-56.5 560,-56.5"/>
<text text-anchor="middle" x="590" y="-63.5" font-family="FreeSans.ttf" font-size="10.00" fill="#000000">iostream</text>
</g>
<!-- Node27&#45;&gt;Node28 -->
<g id="edge43" class="edge">
<title>Node27&#45;&gt;Node28</title>
<path fill="none" stroke="#191970" d="M637.8972,-112.2455C629.4972,-104.1352 617.3506,-92.4075 607.3916,-82.7919"/>
<polygon fill="#191970" stroke="#191970" points="609.6122,-80.0707 599.9871,-75.6427 604.75,-85.1066 609.6122,-80.0707"/>
</g>
<!-- Node30 -->
<g id="node31" class="node">
<title>Node30</title>
<g id="a_node31"><a xlink:href="SpatialMotionVector_8h.html" target="_top" xlink:title="iDynTree/Core/SpatialMotion\lVector.h">
<polygon fill="none" stroke="#000000" points="124.5,-403.5 124.5,-433.5 279.5,-433.5 279.5,-403.5 124.5,-403.5"/>
<text text-anchor="start" x="132.5" y="-421.5" font-family="FreeSans.ttf" font-size="10.00" fill="#000000">iDynTree/Core/SpatialMotion</text>
<text text-anchor="middle" x="202" y="-410.5" font-family="FreeSans.ttf" font-size="10.00" fill="#000000">Vector.h</text>
</a>
</g>
</g>
<!-- Node29&#45;&gt;Node30 -->
<g id="edge52" class="edge">
<title>Node29&#45;&gt;Node30</title>
<path fill="none" stroke="#191970" d="M366.5313,-470.3906C337.9411,-461.3737 294.447,-447.6563 259.3572,-436.5896"/>
<polygon fill="#191970" stroke="#191970" points="260.2921,-433.2145 249.7024,-433.5446 258.1866,-439.8904 260.2921,-433.2145"/>
</g>
<!-- Node30&#45;&gt;Node3 -->
<g id="edge53" class="edge">
<title>Node30&#45;&gt;Node3</title>
<path fill="none" stroke="#191970" d="M167.8107,-403.4711C153.0442,-395.045 137.2794,-382.9734 129,-367 99.3284,-309.7549 -43.7428,-390.7925 171,-168 185.0263,-153.4479 230.2094,-141.551 270.1877,-133.504"/>
<polygon fill="#191970" stroke="#191970" points="271.0754,-136.8968 280.2174,-131.5418 269.7314,-130.027 271.0754,-136.8968"/>
</g>
<!-- Node30&#45;&gt;Node25 -->
<g id="edge54" class="edge">
<title>Node30&#45;&gt;Node25</title>
<path fill="none" stroke="#191970" d="M171.6014,-403.4946C157.735,-394.8907 142.7152,-382.6614 135,-367 131.0719,-359.0262 132.1179,-355.4087 135,-347 156.5178,-284.2206 213.0621,-226.9472 242.9134,-199.8956"/>
<polygon fill="#191970" stroke="#191970" points="245.4241,-202.3467 250.5738,-193.0876 240.774,-197.1144 245.4241,-202.3467"/>
</g>
<!-- Node31 -->
<g id="node32" class="node">
<title>Node31</title>
<g id="a_node32"><a xlink:href="SpatialVector_8h.html" target="_top" xlink:title="iDynTree/Core/SpatialVector.h">
<polygon fill="none" stroke="#000000" points="144.5,-347.5 144.5,-366.5 305.5,-366.5 305.5,-347.5 144.5,-347.5"/>
<text text-anchor="middle" x="225" y="-354.5" font-family="FreeSans.ttf" font-size="10.00" fill="#000000">iDynTree/Core/SpatialVector.h</text>
</a>
</g>
</g>
<!-- Node30&#45;&gt;Node31 -->
<g id="edge55" class="edge">
<title>Node30&#45;&gt;Node31</title>
<path fill="none" stroke="#191970" d="M207.6854,-403.2977C210.745,-395.1166 214.5498,-384.943 217.8128,-376.2179"/>
<polygon fill="#191970" stroke="#191970" points="221.0927,-377.4394 221.3174,-366.8469 214.5362,-374.9873 221.0927,-377.4394"/>
</g>
<!-- Node31&#45;&gt;Node4 -->
<g id="edge58" class="edge">
<title>Node31&#45;&gt;Node4</title>
<path fill="none" stroke="#191970" d="M213.902,-347.2463C188.6394,-324.303 126.9513,-263.9325 100,-199 84.2511,-161.0569 78.8182,-112.801 76.9572,-86.0881"/>
<polygon fill="#191970" stroke="#191970" points="80.4299,-85.5227 76.3438,-75.7475 73.4422,-85.9372 80.4299,-85.5227"/>
</g>
<!-- Node31&#45;&gt;Node15 -->
<g id="edge61" class="edge">
<title>Node31&#45;&gt;Node15</title>
<path fill="none" stroke="#191970" d="M217.5339,-347.4719C196.1281,-318.9172 138.1294,-232.0642 171,-168 190.4818,-130.0303 210.1388,-129.6363 249,-112 301.2222,-88.3002 366.9725,-76.1192 407.7477,-70.4046"/>
<polygon fill="#191970" stroke="#191970" points="408.3569,-73.8544 417.8028,-69.056 407.4262,-66.9165 408.3569,-73.8544"/>
</g>
<!-- Node31&#45;&gt;Node22 -->
<g id="edge56" class="edge">
<title>Node31&#45;&gt;Node22</title>
<path fill="none" stroke="#191970" d="M282.891,-347.4369C342.0052,-337.6717 433.7227,-322.5207 496.1966,-312.2006"/>
<polygon fill="#191970" stroke="#191970" points="497.052,-315.6068 506.3478,-310.5237 495.911,-308.7004 497.052,-315.6068"/>
</g>
<!-- Node31&#45;&gt;Node24 -->
<g id="edge57" class="edge">
<title>Node31&#45;&gt;Node24</title>
<path fill="none" stroke="#191970" d="M245.8033,-347.4509C289.0206,-327.6135 388.6634,-281.8758 438.8935,-258.8194"/>
<polygon fill="#191970" stroke="#191970" points="440.6212,-261.8775 448.2494,-254.5249 437.7009,-255.5157 440.6212,-261.8775"/>
</g>
<!-- Node31&#45;&gt;Node25 -->
<g id="edge59" class="edge">
<title>Node31&#45;&gt;Node25</title>
<path fill="none" stroke="#191970" d="M227.042,-347.4248C232.8907,-319.999 249.7949,-240.732 257.757,-203.3964"/>
<polygon fill="#191970" stroke="#191970" points="261.256,-203.7696 259.9187,-193.2595 254.4099,-202.3096 261.256,-203.7696"/>
</g>
<!-- Node31&#45;&gt;Node28 -->
<g id="edge60" class="edge">
<title>Node31&#45;&gt;Node28</title>
<path fill="none" stroke="#191970" d="M237.1442,-347.3179C290.2979,-304.9406 502.7742,-135.5416 569.7031,-82.1819"/>
<polygon fill="#191970" stroke="#191970" points="572.1729,-84.6891 577.8102,-75.7185 567.8092,-79.2157 572.1729,-84.6891"/>
</g>
<!-- Node32&#45;&gt;Node30 -->
<g id="edge63" class="edge">
<title>Node32&#45;&gt;Node30</title>
<path fill="none" stroke="#191970" d="M219.7188,-470.3906C217.2188,-463.0692 213.6606,-452.6488 210.3879,-443.0647"/>
<polygon fill="#191970" stroke="#191970" points="213.6809,-441.8771 207.1372,-433.5446 207.0565,-444.1391 213.6809,-441.8771"/>
</g>
<!-- Node34 -->
<g id="node35" class="node">
<title>Node34</title>
<g id="a_node35"><a xlink:href="SpatialForceVector_8h.html" target="_top" xlink:title="iDynTree/Core/SpatialForce\lVector.h">
<polygon fill="none" stroke="#000000" points="298,-403.5 298,-433.5 446,-433.5 446,-403.5 298,-403.5"/>
<text text-anchor="start" x="306" y="-421.5" font-family="FreeSans.ttf" font-size="10.00" fill="#000000">iDynTree/Core/SpatialForce</text>
<text text-anchor="middle" x="372" y="-410.5" font-family="FreeSans.ttf" font-size="10.00" fill="#000000">Vector.h</text>
</a>
</g>
</g>
<!-- Node33&#45;&gt;Node34 -->
<g id="edge65" class="edge">
<title>Node33&#45;&gt;Node34</title>
<path fill="none" stroke="#191970" d="M543.2813,-470.3906C513.391,-461.3352 467.8524,-447.539 431.2425,-436.4479"/>
<polygon fill="#191970" stroke="#191970" points="432.2447,-433.0944 421.6594,-433.5446 430.215,-439.7937 432.2447,-433.0944"/>
</g>
<!-- Node34&#45;&gt;Node3 -->
<g id="edge66" class="edge">
<title>Node34&#45;&gt;Node3</title>
<path fill="none" stroke="#191970" d="M372,-403.2899C372,-380.892 372,-337.7188 372,-301 372,-301 372,-301 372,-245 372,-207.0591 357.1715,-164.7146 347.3946,-140.9189"/>
<polygon fill="#191970" stroke="#191970" points="350.586,-139.4796 343.4505,-131.6479 344.1446,-142.22 350.586,-139.4796"/>
</g>
<!-- Node34&#45;&gt;Node25 -->
<g id="edge67" class="edge">
<title>Node34&#45;&gt;Node25</title>
<path fill="none" stroke="#191970" d="M364.9517,-403.4422C345.6834,-362.2781 292.1527,-247.9171 270.8808,-202.4726"/>
<polygon fill="#191970" stroke="#191970" points="273.9379,-200.7477 266.5285,-193.1746 267.5981,-203.7153 273.9379,-200.7477"/>
</g>
<!-- Node34&#45;&gt;Node31 -->
<g id="edge68" class="edge">
<title>Node34&#45;&gt;Node31</title>
<path fill="none" stroke="#191970" d="M336.0398,-403.4554C311.9427,-393.374 280.487,-380.2139 257.2097,-370.4755"/>
<polygon fill="#191970" stroke="#191970" points="258.3558,-367.1611 247.7798,-366.5303 255.6541,-373.6187 258.3558,-367.1611"/>
</g>
<!-- Node35&#45;&gt;Node1 -->
<g id="edge71" class="edge">
<title>Node35&#45;&gt;Node1</title>
<path fill="none" stroke="#191970" d="M998.0575,-168.1389C979.6534,-146.2957 946.0159,-106.3724 926.6962,-83.4424"/>
<polygon fill="#191970" stroke="#191970" points="929.1744,-80.9517 920.0544,-75.5595 923.8212,-85.4621 929.1744,-80.9517"/>
</g>
<!-- Node35&#45;&gt;Node27 -->
<g id="edge70" class="edge">
<title>Node35&#45;&gt;Node27</title>
<path fill="none" stroke="#191970" d="M940.1482,-171.4962C874.6364,-160.3971 778.0242,-144.0289 714.0795,-133.1953"/>
<polygon fill="#191970" stroke="#191970" points="714.5511,-129.7254 704.107,-131.5057 713.3818,-136.627 714.5511,-129.7254"/>
</g>
</g>
</svg>
