<?xml version="1.0" encoding="UTF-8" standalone="no"?>
<!DOCTYPE svg PUBLIC "-//W3C//DTD SVG 1.1//EN"
 "http://www.w3.org/Graphics/SVG/1.1/DTD/svg11.dtd">
<!-- Generated by graphviz version 2.40.1 (20161225.0304)
 -->
<!-- Title: L2NormCost.cpp Pages: 1 -->
<svg width="1741pt" height="543pt"
 viewBox="0.00 0.00 1741.00 543.00" xmlns="http://www.w3.org/2000/svg" xmlns:xlink="http://www.w3.org/1999/xlink">
<g id="graph0" class="graph" transform="scale(1 1) rotate(0) translate(4 539)">
<title>L2NormCost.cpp</title>
<!-- Node0 -->
<g id="node1" class="node">
<title>Node0</title>
<polygon fill="#bfbfbf" stroke="#000000" points="542.5,-515.5 542.5,-534.5 639.5,-534.5 639.5,-515.5 542.5,-515.5"/>
<text text-anchor="middle" x="591" y="-522.5" font-family="FreeSans.ttf" font-size="10.00" fill="#000000">L2NormCost.cpp</text>
</g>
<!-- Node1 -->
<g id="node2" class="node">
<title>Node1</title>
<g id="a_node2"><a xlink:href="L2NormCost_8h.html" target="_top" xlink:title="iDynTree/L2NormCost.h">
<polygon fill="none" stroke="#000000" points="398.5,-459.5 398.5,-478.5 529.5,-478.5 529.5,-459.5 398.5,-459.5"/>
<text text-anchor="middle" x="464" y="-466.5" font-family="FreeSans.ttf" font-size="10.00" fill="#000000">iDynTree/L2NormCost.h</text>
</a>
</g>
</g>
<!-- Node0&#45;&gt;Node1 -->
<g id="edge1" class="edge">
<title>Node0&#45;&gt;Node1</title>
<path fill="none" stroke="#191970" d="M569.1679,-515.3733C548.6897,-506.3435 517.8601,-492.7494 494.8681,-482.6111"/>
<polygon fill="#191970" stroke="#191970" points="496.1093,-479.3333 485.5472,-478.5011 493.285,-485.7383 496.1093,-479.3333"/>
</g>
<!-- Node5 -->
<g id="node6" class="node">
<title>Node5</title>
<g id="a_node6"><a xlink:href="Utils_8h.html" target="_top" xlink:title="iDynTree/Core/Utils.h">
<polygon fill="none" stroke="#000000" points="543.5,-56.5 543.5,-75.5 662.5,-75.5 662.5,-56.5 543.5,-56.5"/>
<text text-anchor="middle" x="603" y="-63.5" font-family="FreeSans.ttf" font-size="10.00" fill="#000000">iDynTree/Core/Utils.h</text>
</a>
</g>
</g>
<!-- Node0&#45;&gt;Node5 -->
<g id="edge60" class="edge">
<title>Node0&#45;&gt;Node5</title>
<path fill="none" stroke="#191970" d="M542.4043,-518.0008C490.9424,-509.8845 413.7771,-495.4902 389,-479 353.5715,-455.4207 340.0536,-433.6068 349,-392 378.5033,-254.7901 383.1259,-196.7418 495,-112 514.2134,-97.4463 538.725,-86.5219 559.5385,-78.9797"/>
<polygon fill="#191970" stroke="#191970" points="560.8179,-82.2405 569.1133,-75.6498 558.5185,-75.6289 560.8179,-82.2405"/>
</g>
<!-- Node10 -->
<g id="node11" class="node">
<title>Node10</title>
<g id="a_node11"><a xlink:href="VectorDynSize_8h.html" target="_top" xlink:title="iDynTree/Core/VectorDynSize.h">
<polygon fill="none" stroke="#000000" points="547.5,-336.5 547.5,-355.5 714.5,-355.5 714.5,-336.5 547.5,-336.5"/>
<text text-anchor="middle" x="631" y="-343.5" font-family="FreeSans.ttf" font-size="10.00" fill="#000000">iDynTree/Core/VectorDynSize.h</text>
</a>
</g>
</g>
<!-- Node0&#45;&gt;Node10 -->
<g id="edge59" class="edge">
<title>Node0&#45;&gt;Node10</title>
<path fill="none" stroke="#191970" d="M586.9123,-515.4346C577.8882,-492.7961 558.549,-434.6375 578,-392 583.6889,-379.5296 594.6131,-369.1361 605.0726,-361.4023"/>
<polygon fill="#191970" stroke="#191970" points="607.3523,-364.0832 613.6242,-355.5442 603.3963,-358.3082 607.3523,-364.0832"/>
</g>
<!-- Node11 -->
<g id="node12" class="node">
<title>Node11</title>
<g id="a_node12"><a xlink:href="Span_8h.html" target="_top" xlink:title="iDynTree/Core/Span.h">
<polygon fill="none" stroke="#000000" points="196.5,-56.5 196.5,-75.5 317.5,-75.5 317.5,-56.5 196.5,-56.5"/>
<text text-anchor="middle" x="257" y="-63.5" font-family="FreeSans.ttf" font-size="10.00" fill="#000000">iDynTree/Core/Span.h</text>
</a>
</g>
</g>
<!-- Node0&#45;&gt;Node11 -->
<g id="edge61" class="edge">
<title>Node0&#45;&gt;Node11</title>
<path fill="none" stroke="#191970" d="M542.1791,-519.5244C443.3686,-507.0806 229,-472.5839 229,-407.5 229,-407.5 229,-407.5 229,-178 229,-144.5848 240.8754,-107.1911 249.1585,-85.1729"/>
<polygon fill="#191970" stroke="#191970" points="252.4868,-86.2719 252.8685,-75.6839 245.9674,-83.7229 252.4868,-86.2719"/>
</g>
<!-- Node12 -->
<g id="node13" class="node">
<title>Node12</title>
<polygon fill="none" stroke="#bfbfbf" points="1300,-.5 1300,-19.5 1352,-19.5 1352,-.5 1300,-.5"/>
<text text-anchor="middle" x="1326" y="-7.5" font-family="FreeSans.ttf" font-size="10.00" fill="#000000">cassert</text>
</g>
<!-- Node0&#45;&gt;Node12 -->
<g id="edge62" class="edge">
<title>Node0&#45;&gt;Node12</title>
<path fill="none" stroke="#191970" d="M639.705,-522.5858C857.6801,-511.4664 1733,-463.3381 1733,-407.5 1733,-407.5 1733,-407.5 1733,-122 1733,-45.4566 1462.0156,-19.257 1362.2779,-12.2063"/>
<polygon fill="#191970" stroke="#191970" points="1362.2939,-8.6994 1352.0788,-11.5104 1361.8173,-15.6831 1362.2939,-8.6994"/>
</g>
<!-- Node20 -->
<g id="node21" class="node">
<title>Node20</title>
<g id="a_node21"><a xlink:href="MatrixDynSize_8h.html" target="_top" xlink:title="iDynTree/Core/MatrixDynSize.h">
<polygon fill="none" stroke="#000000" points="732.5,-336.5 732.5,-355.5 899.5,-355.5 899.5,-336.5 732.5,-336.5"/>
<text text-anchor="middle" x="816" y="-343.5" font-family="FreeSans.ttf" font-size="10.00" fill="#000000">iDynTree/Core/MatrixDynSize.h</text>
</a>
</g>
</g>
<!-- Node0&#45;&gt;Node20 -->
<g id="edge58" class="edge">
<title>Node0&#45;&gt;Node20</title>
<path fill="none" stroke="#191970" d="M639.6601,-515.6701C717.1645,-499.7107 862.9899,-464.8114 893,-423 901.0338,-411.8069 899.7998,-403.9829 893,-392 884.7414,-377.4463 869.8484,-367.0054 855.3459,-359.7891"/>
<polygon fill="#191970" stroke="#191970" points="856.4966,-356.4671 845.9458,-355.5017 853.5917,-362.8359 856.4966,-356.4671"/>
</g>
<!-- Node33 -->
<g id="node34" class="node">
<title>Node33</title>
<polygon fill="none" stroke="#bfbfbf" points="586.5,-398 586.5,-417 663.5,-417 663.5,-398 586.5,-398"/>
<text text-anchor="middle" x="625" y="-405" font-family="FreeSans.ttf" font-size="10.00" fill="#000000">Eigen/Dense</text>
</g>
<!-- Node0&#45;&gt;Node33 -->
<g id="edge63" class="edge">
<title>Node0&#45;&gt;Node33</title>
<path fill="none" stroke="#191970" d="M593.7824,-515.3845C599.361,-496.1053 612.0087,-452.3963 619.3794,-426.9241"/>
<polygon fill="#191970" stroke="#191970" points="622.7616,-427.8272 622.1792,-417.2484 616.0375,-425.8814 622.7616,-427.8272"/>
</g>
<!-- Node34 -->
<g id="node35" class="node">
<title>Node34</title>
<g id="a_node35"><a xlink:href="EigenHelpers_8h.html" target="_top" xlink:title="iDynTree/Core/EigenHelpers.h">
<polygon fill="none" stroke="#000000" points="943.5,-459.5 943.5,-478.5 1104.5,-478.5 1104.5,-459.5 943.5,-459.5"/>
<text text-anchor="middle" x="1024" y="-466.5" font-family="FreeSans.ttf" font-size="10.00" fill="#000000">iDynTree/Core/EigenHelpers.h</text>
</a>
</g>
</g>
<!-- Node0&#45;&gt;Node34 -->
<g id="edge64" class="edge">
<title>Node0&#45;&gt;Node34</title>
<path fill="none" stroke="#191970" d="M639.8289,-518.6849C712.7695,-509.2515 851.1345,-491.3567 940.3789,-479.8147"/>
<polygon fill="#191970" stroke="#191970" points="941.0033,-483.2632 950.4718,-478.5094 940.1054,-476.321 941.0033,-483.2632"/>
</g>
<!-- Node2 -->
<g id="node3" class="node">
<title>Node2</title>
<g id="a_node3"><a xlink:href="Cost_8h.html" target="_top" xlink:title="iDynTree/Cost.h">
<polygon fill="none" stroke="#000000" points="471.5,-168.5 471.5,-187.5 564.5,-187.5 564.5,-168.5 471.5,-168.5"/>
<text text-anchor="middle" x="518" y="-175.5" font-family="FreeSans.ttf" font-size="10.00" fill="#000000">iDynTree/Cost.h</text>
</a>
</g>
</g>
<!-- Node1&#45;&gt;Node2 -->
<g id="edge2" class="edge">
<title>Node1&#45;&gt;Node2</title>
<path fill="none" stroke="#191970" d="M466.4276,-459.1865C471.3408,-438.4351 482,-388.5158 482,-346 482,-346 482,-346 482,-290 482,-255.7942 497.4074,-218.4094 508.0631,-196.6445"/>
<polygon fill="#191970" stroke="#191970" points="511.273,-198.0537 512.6881,-187.5538 505.0341,-194.8795 511.273,-198.0537"/>
</g>
<!-- Node3 -->
<g id="node4" class="node">
<title>Node3</title>
<polygon fill="none" stroke="#bfbfbf" points="780,-56.5 780,-75.5 824,-75.5 824,-56.5 780,-56.5"/>
<text text-anchor="middle" x="802" y="-63.5" font-family="FreeSans.ttf" font-size="10.00" fill="#000000">string</text>
</g>
<!-- Node1&#45;&gt;Node3 -->
<g id="edge57" class="edge">
<title>Node1&#45;&gt;Node3</title>
<path fill="none" stroke="#191970" d="M469.3821,-459.4876C474.643,-450.1872 482.8776,-435.6235 490,-423 511.8071,-384.3499 513.0935,-372.031 539,-336 617.259,-227.1566 642.1438,-202.5473 741,-112 753.0032,-101.0057 767.516,-89.9815 779.374,-81.4824"/>
<polygon fill="#191970" stroke="#191970" points="781.6805,-84.1389 787.8389,-75.5177 777.6484,-78.4168 781.6805,-84.1389"/>
</g>
<!-- Node1&#45;&gt;Node5 -->
<g id="edge55" class="edge">
<title>Node1&#45;&gt;Node5</title>
<path fill="none" stroke="#191970" d="M461.0128,-459.4318C449.4274,-420.4681 410.6376,-270.9357 463,-168 475.381,-143.661 540.6526,-102.5217 577.5415,-80.6678"/>
<polygon fill="#191970" stroke="#191970" points="579.4078,-83.6307 586.2591,-75.5491 575.8635,-77.5943 579.4078,-83.6307"/>
</g>
<!-- Node9 -->
<g id="node10" class="node">
<title>Node9</title>
<g id="a_node10"><a xlink:href="TimeVaryingObject_8h.html" target="_top" xlink:title="iDynTree/TimeVaryingObject.h">
<polygon fill="none" stroke="#000000" points="720,-398 720,-417 884,-417 884,-398 720,-398"/>
<text text-anchor="middle" x="802" y="-405" font-family="FreeSans.ttf" font-size="10.00" fill="#000000">iDynTree/TimeVaryingObject.h</text>
</a>
</g>
</g>
<!-- Node1&#45;&gt;Node9 -->
<g id="edge11" class="edge">
<title>Node1&#45;&gt;Node9</title>
<path fill="none" stroke="#191970" d="M516.4416,-459.4581C576.7249,-448.4894 675.5867,-430.5012 739.7284,-418.8305"/>
<polygon fill="#191970" stroke="#191970" points="740.5015,-422.2474 749.7134,-417.0137 739.2484,-415.3604 740.5015,-422.2474"/>
</g>
<!-- Node32 -->
<g id="node33" class="node">
<title>Node32</title>
<polygon fill="none" stroke="#bfbfbf" points="358,-398 358,-417 416,-417 416,-398 358,-398"/>
<text text-anchor="middle" x="387" y="-405" font-family="FreeSans.ttf" font-size="10.00" fill="#000000">memory</text>
</g>
<!-- Node1&#45;&gt;Node32 -->
<g id="edge56" class="edge">
<title>Node1&#45;&gt;Node32</title>
<path fill="none" stroke="#191970" d="M451.9688,-459.3906C439.9893,-449.8227 421.3834,-434.9621 407.1475,-423.5919"/>
<polygon fill="#191970" stroke="#191970" points="408.9447,-420.5479 398.9468,-417.0419 404.5761,-426.0175 408.9447,-420.5479"/>
</g>
<!-- Node2&#45;&gt;Node3 -->
<g id="edge3" class="edge">
<title>Node2&#45;&gt;Node3</title>
<path fill="none" stroke="#191970" d="M529.4132,-168.451C547.0798,-154.1388 582.6088,-127.1875 617,-112 668.0577,-89.4525 732.1304,-76.6493 769.9126,-70.5369"/>
<polygon fill="#191970" stroke="#191970" points="770.4986,-73.988 779.8394,-68.9879 769.4192,-67.0717 770.4986,-73.988"/>
</g>
<!-- Node4 -->
<g id="node5" class="node">
<title>Node4</title>
<g id="a_node5"><a xlink:href="SparsityStructure_8h.html" target="_top" xlink:title="iDynTree/SparsityStructure.h">
<polygon fill="none" stroke="#000000" points="295.5,-112.5 295.5,-131.5 450.5,-131.5 450.5,-112.5 295.5,-112.5"/>
<text text-anchor="middle" x="373" y="-119.5" font-family="FreeSans.ttf" font-size="10.00" fill="#000000">iDynTree/SparsityStructure.h</text>
</a>
</g>
</g>
<!-- Node2&#45;&gt;Node4 -->
<g id="edge4" class="edge">
<title>Node2&#45;&gt;Node4</title>
<path fill="none" stroke="#191970" d="M493.0736,-168.3733C469.3798,-159.2226 433.5489,-145.3844 407.1932,-135.2057"/>
<polygon fill="#191970" stroke="#191970" points="408.1906,-131.8389 397.6011,-131.5011 405.6686,-138.3689 408.1906,-131.8389"/>
</g>
<!-- Node4&#45;&gt;Node3 -->
<g id="edge10" class="edge">
<title>Node4&#45;&gt;Node3</title>
<path fill="none" stroke="#191970" d="M446.2603,-112.4369C540.7584,-100.1015 701.0931,-79.172 769.5042,-70.2419"/>
<polygon fill="#191970" stroke="#191970" points="770.2075,-73.6799 779.6703,-68.9148 769.3014,-66.7387 770.2075,-73.6799"/>
</g>
<!-- Node4&#45;&gt;Node5 -->
<g id="edge5" class="edge">
<title>Node4&#45;&gt;Node5</title>
<path fill="none" stroke="#191970" d="M412.2771,-112.4369C451.4744,-102.8932 511.8,-88.2052 554.0835,-77.9101"/>
<polygon fill="#191970" stroke="#191970" points="554.9968,-81.2901 563.8849,-75.5237 553.3408,-74.4888 554.9968,-81.2901"/>
</g>
<!-- Node6 -->
<g id="node7" class="node">
<title>Node6</title>
<polygon fill="none" stroke="#bfbfbf" points="509.5,-.5 509.5,-19.5 562.5,-19.5 562.5,-.5 509.5,-.5"/>
<text text-anchor="middle" x="536" y="-7.5" font-family="FreeSans.ttf" font-size="10.00" fill="#000000">cstddef</text>
</g>
<!-- Node4&#45;&gt;Node6 -->
<g id="edge8" class="edge">
<title>Node4&#45;&gt;Node6</title>
<path fill="none" stroke="#191970" d="M419.4227,-112.4748C444.2156,-105.5755 474.0554,-94.1821 496,-76 510.9439,-63.6183 521.7824,-44.1194 528.3772,-29.5207"/>
<polygon fill="#191970" stroke="#191970" points="531.7619,-30.5025 532.4273,-19.9285 525.3131,-27.7796 531.7619,-30.5025"/>
</g>
<!-- Node7 -->
<g id="node8" class="node">
<title>Node7</title>
<polygon fill="none" stroke="#bfbfbf" points="335.5,-56.5 335.5,-75.5 382.5,-75.5 382.5,-56.5 335.5,-56.5"/>
<text text-anchor="middle" x="359" y="-63.5" font-family="FreeSans.ttf" font-size="10.00" fill="#000000">vector</text>
</g>
<!-- Node4&#45;&gt;Node7 -->
<g id="edge7" class="edge">
<title>Node4&#45;&gt;Node7</title>
<path fill="none" stroke="#191970" d="M370.5614,-112.2455C368.7145,-104.8579 366.1172,-94.4689 363.8522,-85.4087"/>
<polygon fill="#191970" stroke="#191970" points="367.2316,-84.4952 361.4107,-75.6427 360.4406,-86.193 367.2316,-84.4952"/>
</g>
<!-- Node8 -->
<g id="node9" class="node">
<title>Node8</title>
<polygon fill="none" stroke="#bfbfbf" points="401,-56.5 401,-75.5 487,-75.5 487,-56.5 401,-56.5"/>
<text text-anchor="middle" x="444" y="-63.5" font-family="FreeSans.ttf" font-size="10.00" fill="#000000">unordered_set</text>
</g>
<!-- Node4&#45;&gt;Node8 -->
<g id="edge9" class="edge">
<title>Node4&#45;&gt;Node8</title>
<path fill="none" stroke="#191970" d="M385.3673,-112.2455C395.9554,-103.8943 411.4064,-91.7076 423.7893,-81.9408"/>
<polygon fill="#191970" stroke="#191970" points="426.0903,-84.5837 431.7745,-75.6427 421.7553,-79.0875 426.0903,-84.5837"/>
</g>
<!-- Node5&#45;&gt;Node6 -->
<g id="edge6" class="edge">
<title>Node5&#45;&gt;Node6</title>
<path fill="none" stroke="#191970" d="M591.3295,-56.2455C581.4339,-47.9746 567.0373,-35.9416 555.4099,-26.2232"/>
<polygon fill="#191970" stroke="#191970" points="557.4542,-23.3703 547.5368,-19.6427 552.965,-28.7413 557.4542,-23.3703"/>
</g>
<!-- Node9&#45;&gt;Node10 -->
<g id="edge12" class="edge">
<title>Node9&#45;&gt;Node10</title>
<path fill="none" stroke="#191970" d="M775.2813,-397.8906C746.1679,-387.42 699.4308,-370.6111 667.0753,-358.9745"/>
<polygon fill="#191970" stroke="#191970" points="668.1256,-355.6328 657.5311,-355.5419 665.7565,-362.2197 668.1256,-355.6328"/>
</g>
<!-- Node9&#45;&gt;Node20 -->
<g id="edge24" class="edge">
<title>Node9&#45;&gt;Node20</title>
<path fill="none" stroke="#191970" d="M804.1875,-397.8906C806.1486,-389.276 809.0863,-376.3708 811.5415,-365.5858"/>
<polygon fill="#191970" stroke="#191970" points="814.9746,-366.2723 813.7817,-355.7449 808.1493,-364.7185 814.9746,-366.2723"/>
</g>
<!-- Node21 -->
<g id="node22" class="node">
<title>Node21</title>
<g id="a_node22"><a xlink:href="Transform_8h.html" target="_top" xlink:title="iDynTree/Core/Transform.h">
<polygon fill="none" stroke="#000000" points="955,-336.5 955,-355.5 1101,-355.5 1101,-336.5 955,-336.5"/>
<text text-anchor="middle" x="1028" y="-343.5" font-family="FreeSans.ttf" font-size="10.00" fill="#000000">iDynTree/Core/Transform.h</text>
</a>
</g>
</g>
<!-- Node9&#45;&gt;Node21 -->
<g id="edge26" class="edge">
<title>Node9&#45;&gt;Node21</title>
<path fill="none" stroke="#191970" d="M837.3125,-397.8906C876.6191,-387.1944 940.2326,-369.8836 983.0594,-358.2294"/>
<polygon fill="#191970" stroke="#191970" points="984.2054,-361.5449 992.9355,-355.5419 982.3673,-354.7905 984.2054,-361.5449"/>
</g>
<!-- Node10&#45;&gt;Node3 -->
<g id="edge23" class="edge">
<title>Node10&#45;&gt;Node3</title>
<path fill="none" stroke="#191970" d="M635.3086,-336.1239C650.0293,-302.8892 700.6587,-192.6718 759,-112 766.4763,-101.6621 776.0723,-91.1901 784.3017,-82.8546"/>
<polygon fill="#191970" stroke="#191970" points="787.0014,-85.1077 791.6592,-75.5916 782.0838,-80.126 787.0014,-85.1077"/>
</g>
<!-- Node10&#45;&gt;Node11 -->
<g id="edge13" class="edge">
<title>Node10&#45;&gt;Node11</title>
<path fill="none" stroke="#191970" d="M605.2842,-336.3583C542.5665,-311.6567 380.0148,-240.3243 286,-132 274.3638,-118.5927 266.7192,-99.7806 262.2153,-85.6692"/>
<polygon fill="#191970" stroke="#191970" points="265.5414,-84.5731 259.3692,-75.9618 258.8241,-86.5426 265.5414,-84.5731"/>
</g>
<!-- Node11&#45;&gt;Node6 -->
<g id="edge17" class="edge">
<title>Node11&#45;&gt;Node6</title>
<path fill="none" stroke="#191970" d="M315.9892,-56.4442C363.2808,-48.4273 431.5229,-36.0641 499.3168,-20.2555"/>
<polygon fill="#191970" stroke="#191970" points="500.3837,-23.6 509.3134,-17.8982 498.777,-16.7869 500.3837,-23.6"/>
</g>
<!-- Node11&#45;&gt;Node12 -->
<g id="edge14" class="edge">
<title>Node11&#45;&gt;Node12</title>
<path fill="none" stroke="#191970" d="M317.5417,-56.8836C320.3981,-56.5612 323.2285,-56.2639 326,-56 701.2669,-20.2623 1158.5,-12.0617 1289.4089,-10.3904"/>
<polygon fill="#191970" stroke="#191970" points="1289.7105,-13.887 1299.6667,-10.2644 1289.6244,-6.8876 1289.7105,-13.887"/>
</g>
<!-- Node13 -->
<g id="node14" class="node">
<title>Node13</title>
<polygon fill="none" stroke="#bfbfbf" points="0,-.5 0,-19.5 64,-19.5 64,-.5 0,-.5"/>
<text text-anchor="middle" x="32" y="-7.5" font-family="FreeSans.ttf" font-size="10.00" fill="#000000">algorithm</text>
</g>
<!-- Node11&#45;&gt;Node13 -->
<g id="edge15" class="edge">
<title>Node11&#45;&gt;Node13</title>
<path fill="none" stroke="#191970" d="M218.5768,-56.4369C178.3413,-46.4227 115.3488,-30.7446 73.869,-20.4207"/>
<polygon fill="#191970" stroke="#191970" points="74.6215,-17.0013 64.0722,-17.9824 72.9308,-23.7941 74.6215,-17.0013"/>
</g>
<!-- Node14 -->
<g id="node15" class="node">
<title>Node14</title>
<polygon fill="none" stroke="#bfbfbf" points="82,-.5 82,-19.5 124,-19.5 124,-.5 82,-.5"/>
<text text-anchor="middle" x="103" y="-7.5" font-family="FreeSans.ttf" font-size="10.00" fill="#000000">array</text>
</g>
<!-- Node11&#45;&gt;Node14 -->
<g id="edge16" class="edge">
<title>Node11&#45;&gt;Node14</title>
<path fill="none" stroke="#191970" d="M230.5265,-56.3733C203.6018,-46.5825 161.9201,-31.4255 133.597,-21.1262"/>
<polygon fill="#191970" stroke="#191970" points="134.7761,-17.8308 124.182,-17.7026 132.3838,-24.4093 134.7761,-17.8308"/>
</g>
<!-- Node15 -->
<g id="node16" class="node">
<title>Node15</title>
<polygon fill="none" stroke="#bfbfbf" points="142.5,-.5 142.5,-19.5 195.5,-19.5 195.5,-.5 142.5,-.5"/>
<text text-anchor="middle" x="169" y="-7.5" font-family="FreeSans.ttf" font-size="10.00" fill="#000000">iterator</text>
</g>
<!-- Node11&#45;&gt;Node15 -->
<g id="edge18" class="edge">
<title>Node11&#45;&gt;Node15</title>
<path fill="none" stroke="#191970" d="M241.6716,-56.2455C228.1697,-47.6534 208.2878,-35.0014 192.7314,-25.1018"/>
<polygon fill="#191970" stroke="#191970" points="194.4685,-22.0587 184.1528,-19.6427 190.7103,-27.9643 194.4685,-22.0587"/>
</g>
<!-- Node16 -->
<g id="node17" class="node">
<title>Node16</title>
<polygon fill="none" stroke="#bfbfbf" points="214,-.5 214,-19.5 258,-19.5 258,-.5 214,-.5"/>
<text text-anchor="middle" x="236" y="-7.5" font-family="FreeSans.ttf" font-size="10.00" fill="#000000">limits</text>
</g>
<!-- Node11&#45;&gt;Node16 -->
<g id="edge19" class="edge">
<title>Node11&#45;&gt;Node16</title>
<path fill="none" stroke="#191970" d="M253.3421,-56.2455C250.5416,-48.7776 246.591,-38.2427 243.1676,-29.1137"/>
<polygon fill="#191970" stroke="#191970" points="246.4045,-27.777 239.616,-19.6427 239.8501,-30.2349 246.4045,-27.777"/>
</g>
<!-- Node17 -->
<g id="node18" class="node">
<title>Node17</title>
<polygon fill="none" stroke="#bfbfbf" points="276.5,-.5 276.5,-19.5 341.5,-19.5 341.5,-.5 276.5,-.5"/>
<text text-anchor="middle" x="309" y="-7.5" font-family="FreeSans.ttf" font-size="10.00" fill="#000000">stdexcept</text>
</g>
<!-- Node11&#45;&gt;Node17 -->
<g id="edge20" class="edge">
<title>Node11&#45;&gt;Node17</title>
<path fill="none" stroke="#191970" d="M266.0577,-56.2455C273.5142,-48.2155 284.2634,-36.6394 293.1417,-27.0781"/>
<polygon fill="#191970" stroke="#191970" points="295.8063,-29.3522 300.0461,-19.6427 290.6768,-24.589 295.8063,-29.3522"/>
</g>
<!-- Node18 -->
<g id="node19" class="node">
<title>Node18</title>
<polygon fill="none" stroke="#bfbfbf" points="359.5,-.5 359.5,-19.5 428.5,-19.5 428.5,-.5 359.5,-.5"/>
<text text-anchor="middle" x="394" y="-7.5" font-family="FreeSans.ttf" font-size="10.00" fill="#000000">type_traits</text>
</g>
<!-- Node11&#45;&gt;Node18 -->
<g id="edge21" class="edge">
<title>Node11&#45;&gt;Node18</title>
<path fill="none" stroke="#191970" d="M280.5511,-56.3733C302.8391,-47.2629 336.4937,-33.5062 361.3637,-23.3404"/>
<polygon fill="#191970" stroke="#191970" points="362.8239,-26.5247 370.7562,-19.5011 360.1753,-20.0451 362.8239,-26.5247"/>
</g>
<!-- Node19 -->
<g id="node20" class="node">
<title>Node19</title>
<polygon fill="none" stroke="#bfbfbf" points="446.5,-.5 446.5,-19.5 491.5,-19.5 491.5,-.5 446.5,-.5"/>
<text text-anchor="middle" x="469" y="-7.5" font-family="FreeSans.ttf" font-size="10.00" fill="#000000">utility</text>
</g>
<!-- Node11&#45;&gt;Node19 -->
<g id="edge22" class="edge">
<title>Node11&#45;&gt;Node19</title>
<path fill="none" stroke="#191970" d="M296.8418,-56.4571C331.3518,-48.0486 382.819,-35.1687 436.6079,-20.0054"/>
<polygon fill="#191970" stroke="#191970" points="437.6538,-23.3469 446.3186,-17.25 435.7429,-16.6128 437.6538,-23.3469"/>
</g>
<!-- Node20&#45;&gt;Node3 -->
<g id="edge25" class="edge">
<title>Node20&#45;&gt;Node3</title>
<path fill="none" stroke="#191970" d="M801.0035,-336.3308C789.8402,-328.1671 775.4619,-315.3661 769,-300 736.6101,-222.9778 743.4191,-191.5434 769,-112 772.3946,-101.4445 779.2058,-91.2592 785.7631,-83.1676"/>
<polygon fill="#191970" stroke="#191970" points="788.447,-85.4149 792.3508,-75.5654 783.1569,-80.8307 788.447,-85.4149"/>
</g>
<!-- Node21&#45;&gt;Node3 -->
<g id="edge54" class="edge">
<title>Node21&#45;&gt;Node3</title>
<path fill="none" stroke="#191970" d="M987.8176,-336.4349C918.3117,-318.7093 783,-278.4885 783,-234 783,-234 783,-234 783,-178 783,-145.2688 790.9852,-107.9052 796.6022,-85.6716"/>
<polygon fill="#191970" stroke="#191970" points="800.0415,-86.3545 799.1965,-75.7934 793.2711,-84.5763 800.0415,-86.3545"/>
</g>
<!-- Node22 -->
<g id="node23" class="node">
<title>Node22</title>
<g id="a_node23"><a xlink:href="Position_8h.html" target="_top" xlink:title="iDynTree/Core/Position.h">
<polygon fill="none" stroke="#000000" points="933,-280.5 933,-299.5 1069,-299.5 1069,-280.5 933,-280.5"/>
<text text-anchor="middle" x="1001" y="-287.5" font-family="FreeSans.ttf" font-size="10.00" fill="#000000">iDynTree/Core/Position.h</text>
</a>
</g>
</g>
<!-- Node21&#45;&gt;Node22 -->
<g id="edge27" class="edge">
<title>Node21&#45;&gt;Node22</title>
<path fill="none" stroke="#191970" d="M1023.297,-336.2455C1019.6576,-328.6973 1014.5076,-318.0158 1010.0738,-308.8197"/>
<polygon fill="#191970" stroke="#191970" points="1013.1449,-307.1303 1005.6491,-299.6427 1006.8395,-310.1704 1013.1449,-307.1303"/>
</g>
<!-- Node27 -->
<g id="node28" class="node">
<title>Node27</title>
<g id="a_node28"><a xlink:href="Rotation_8h.html" target="_top" xlink:title="iDynTree/Core/Rotation.h">
<polygon fill="none" stroke="#000000" points="1028.5,-224.5 1028.5,-243.5 1165.5,-243.5 1165.5,-224.5 1028.5,-224.5"/>
<text text-anchor="middle" x="1097" y="-231.5" font-family="FreeSans.ttf" font-size="10.00" fill="#000000">iDynTree/Core/Rotation.h</text>
</a>
</g>
</g>
<!-- Node21&#45;&gt;Node27 -->
<g id="edge52" class="edge">
<title>Node21&#45;&gt;Node27</title>
<path fill="none" stroke="#191970" d="M1042.2872,-336.2752C1053.5437,-327.9034 1068.8208,-314.849 1078,-300 1086.8059,-285.7548 1091.6684,-267.274 1094.2638,-253.4932"/>
<polygon fill="#191970" stroke="#191970" points="1097.7183,-254.0558 1095.8914,-243.6196 1090.8115,-252.9172 1097.7183,-254.0558"/>
</g>
<!-- Node30 -->
<g id="node31" class="node">
<title>Node30</title>
<g id="a_node31"><a xlink:href="MatrixFixSize_8h.html" target="_top" xlink:title="iDynTree/Core/MatrixFixSize.h">
<polygon fill="none" stroke="#000000" points="1334.5,-112.5 1334.5,-131.5 1495.5,-131.5 1495.5,-112.5 1334.5,-112.5"/>
<text text-anchor="middle" x="1415" y="-119.5" font-family="FreeSans.ttf" font-size="10.00" fill="#000000">iDynTree/Core/MatrixFixSize.h</text>
</a>
</g>
</g>
<!-- Node21&#45;&gt;Node30 -->
<g id="edge53" class="edge">
<title>Node21&#45;&gt;Node30</title>
<path fill="none" stroke="#191970" d="M1077.1508,-336.4584C1185.0983,-314.4005 1437.1756,-256.4914 1486,-188 1500.6393,-167.4638 1473.8108,-148.3546 1449.0463,-136.0387"/>
<polygon fill="#191970" stroke="#191970" points="1450.2854,-132.7537 1439.747,-131.6623 1447.3047,-139.0874 1450.2854,-132.7537"/>
</g>
<!-- Node22&#45;&gt;Node3 -->
<g id="edge51" class="edge">
<title>Node22&#45;&gt;Node3</title>
<path fill="none" stroke="#191970" d="M975.2483,-280.3813C939.6722,-265.7976 875.8322,-234.7442 840,-188 816.3692,-157.1729 807.2871,-111.4447 803.9067,-85.6187"/>
<polygon fill="#191970" stroke="#191970" points="807.3711,-85.1085 802.7518,-75.5737 800.4169,-85.908 807.3711,-85.1085"/>
</g>
<!-- Node23 -->
<g id="node24" class="node">
<title>Node23</title>
<g id="a_node24"><a xlink:href="PositionRaw_8h.html" target="_top" xlink:title="iDynTree/Core/PositionRaw.h">
<polygon fill="none" stroke="#000000" points="849,-168.5 849,-187.5 1005,-187.5 1005,-168.5 849,-168.5"/>
<text text-anchor="middle" x="927" y="-175.5" font-family="FreeSans.ttf" font-size="10.00" fill="#000000">iDynTree/Core/PositionRaw.h</text>
</a>
</g>
</g>
<!-- Node22&#45;&gt;Node23 -->
<g id="edge28" class="edge">
<title>Node22&#45;&gt;Node23</title>
<path fill="none" stroke="#191970" d="M994.6908,-280.4509C982.3485,-261.7707 954.8318,-220.1238 938.9432,-196.0761"/>
<polygon fill="#191970" stroke="#191970" points="941.726,-193.9388 933.2932,-187.5249 935.8857,-197.7977 941.726,-193.9388"/>
</g>
<!-- Node22&#45;&gt;Node27 -->
<g id="edge37" class="edge">
<title>Node22&#45;&gt;Node27</title>
<path fill="none" stroke="#191970" d="M1017.7219,-280.2455C1032.5889,-271.5731 1054.5466,-258.7645 1071.5858,-248.825"/>
<polygon fill="#191970" stroke="#191970" points="1073.5955,-251.7047 1080.4697,-243.6427 1070.0683,-245.6582 1073.5955,-251.7047"/>
</g>
<!-- Node23&#45;&gt;Node3 -->
<g id="edge36" class="edge">
<title>Node23&#45;&gt;Node3</title>
<path fill="none" stroke="#191970" d="M916.3426,-168.4509C894.9406,-149.2747 846.5271,-105.8962 820.079,-82.1988"/>
<polygon fill="#191970" stroke="#191970" points="822.4138,-79.5914 812.6305,-75.5249 817.7426,-84.8048 822.4138,-79.5914"/>
</g>
<!-- Node24 -->
<g id="node25" class="node">
<title>Node24</title>
<g id="a_node25"><a xlink:href="VectorFixSize_8h.html" target="_top" xlink:title="iDynTree/Core/VectorFixSize.h">
<polygon fill="none" stroke="#000000" points="1155.5,-112.5 1155.5,-131.5 1316.5,-131.5 1316.5,-112.5 1155.5,-112.5"/>
<text text-anchor="middle" x="1236" y="-119.5" font-family="FreeSans.ttf" font-size="10.00" fill="#000000">iDynTree/Core/VectorFixSize.h</text>
</a>
</g>
</g>
<!-- Node23&#45;&gt;Node24 -->
<g id="edge29" class="edge">
<title>Node23&#45;&gt;Node24</title>
<path fill="none" stroke="#191970" d="M979.7679,-168.4369C1033.4285,-158.712 1116.5627,-143.6456 1173.491,-133.3285"/>
<polygon fill="#191970" stroke="#191970" points="1174.2342,-136.7509 1183.4497,-131.5237 1172.9859,-129.8631 1174.2342,-136.7509"/>
</g>
<!-- Node24&#45;&gt;Node3 -->
<g id="edge32" class="edge">
<title>Node24&#45;&gt;Node3</title>
<path fill="none" stroke="#191970" d="M1161.8859,-112.4369C1066.0565,-100.0718 903.3028,-79.0713 834.3771,-70.1777"/>
<polygon fill="#191970" stroke="#191970" points="834.5109,-66.666 824.1452,-68.8574 833.615,-73.6085 834.5109,-66.666"/>
</g>
<!-- Node24&#45;&gt;Node5 -->
<g id="edge30" class="edge">
<title>Node24&#45;&gt;Node5</title>
<path fill="none" stroke="#191970" d="M1155.1872,-114.8507C1029.8535,-103.7627 790.7616,-82.6108 672.6194,-72.1591"/>
<polygon fill="#191970" stroke="#191970" points="672.873,-68.6679 662.6034,-71.273 672.256,-75.6407 672.873,-68.6679"/>
</g>
<!-- Node24&#45;&gt;Node11 -->
<g id="edge31" class="edge">
<title>Node24&#45;&gt;Node11</title>
<path fill="none" stroke="#191970" d="M1155.4721,-120.454C998.2471,-116.8838 639.2556,-106.0238 327.6763,-76.0829"/>
<polygon fill="#191970" stroke="#191970" points="327.8343,-72.5819 317.5432,-75.1008 327.1589,-79.5493 327.8343,-72.5819"/>
</g>
<!-- Node24&#45;&gt;Node12 -->
<g id="edge34" class="edge">
<title>Node24&#45;&gt;Node12</title>
<path fill="none" stroke="#191970" d="M1236.6957,-112.1003C1238.1101,-98.2968 1242.3573,-73.0478 1255,-56 1264.9518,-42.5806 1280.0776,-32.0047 1293.8145,-24.3947"/>
<polygon fill="#191970" stroke="#191970" points="1295.7681,-27.3237 1303.0222,-19.6017 1292.5359,-21.1146 1295.7681,-27.3237"/>
</g>
<!-- Node25 -->
<g id="node26" class="node">
<title>Node25</title>
<polygon fill="none" stroke="#bfbfbf" points="1332,-56.5 1332,-75.5 1388,-75.5 1388,-56.5 1332,-56.5"/>
<text text-anchor="middle" x="1360" y="-63.5" font-family="FreeSans.ttf" font-size="10.00" fill="#000000">sstream</text>
</g>
<!-- Node24&#45;&gt;Node25 -->
<g id="edge33" class="edge">
<title>Node24&#45;&gt;Node25</title>
<path fill="none" stroke="#191970" d="M1257.3164,-112.3733C1277.2216,-103.3838 1307.1436,-89.8706 1329.56,-79.7471"/>
<polygon fill="#191970" stroke="#191970" points="1331.2887,-82.8068 1338.9618,-75.5011 1328.4075,-76.4272 1331.2887,-82.8068"/>
</g>
<!-- Node26 -->
<g id="node27" class="node">
<title>Node26</title>
<polygon fill="none" stroke="#bfbfbf" points="1264,-56.5 1264,-75.5 1314,-75.5 1314,-56.5 1264,-56.5"/>
<text text-anchor="middle" x="1289" y="-63.5" font-family="FreeSans.ttf" font-size="10.00" fill="#000000">cstring</text>
</g>
<!-- Node24&#45;&gt;Node26 -->
<g id="edge35" class="edge">
<title>Node24&#45;&gt;Node26</title>
<path fill="none" stroke="#191970" d="M1245.2319,-112.2455C1252.8317,-104.2155 1263.7877,-92.6394 1272.8368,-83.0781"/>
<polygon fill="#191970" stroke="#191970" points="1275.5421,-85.3115 1279.8739,-75.6427 1270.458,-80.4998 1275.5421,-85.3115"/>
</g>
<!-- Node27&#45;&gt;Node3 -->
<g id="edge38" class="edge">
<title>Node27&#45;&gt;Node3</title>
<path fill="none" stroke="#191970" d="M1086.5675,-224.4308C1071.374,-210.8001 1041.9185,-185.5081 1014,-168 953.2945,-129.9308 876.2299,-96.1366 833.737,-78.6367"/>
<polygon fill="#191970" stroke="#191970" points="834.7911,-75.2866 824.21,-74.7482 832.1458,-81.7676 834.7911,-75.2866"/>
</g>
<!-- Node27&#45;&gt;Node24 -->
<g id="edge50" class="edge">
<title>Node27&#45;&gt;Node24</title>
<path fill="none" stroke="#191970" d="M1092.2723,-224.4252C1086.1778,-210.5598 1077.7341,-184.7249 1090,-168 1100.4872,-153.7005 1139.7166,-141.8089 1174.8716,-133.7008"/>
<polygon fill="#191970" stroke="#191970" points="1175.6558,-137.1119 1184.6518,-131.5153 1174.1292,-130.2804 1175.6558,-137.1119"/>
</g>
<!-- Node28 -->
<g id="node29" class="node">
<title>Node28</title>
<g id="a_node29"><a xlink:href="GeomVector3_8h.html" target="_top" xlink:title="iDynTree/Core/GeomVector3.h">
<polygon fill="none" stroke="#000000" points="1313.5,-168.5 1313.5,-187.5 1476.5,-187.5 1476.5,-168.5 1313.5,-168.5"/>
<text text-anchor="middle" x="1395" y="-175.5" font-family="FreeSans.ttf" font-size="10.00" fill="#000000">iDynTree/Core/GeomVector3.h</text>
</a>
</g>
</g>
<!-- Node27&#45;&gt;Node28 -->
<g id="edge39" class="edge">
<title>Node27&#45;&gt;Node28</title>
<path fill="none" stroke="#191970" d="M1147.8894,-224.4369C1199.5327,-214.7321 1279.4826,-199.708 1334.3749,-189.3926"/>
<polygon fill="#191970" stroke="#191970" points="1335.1389,-192.8104 1344.3205,-187.5237 1333.8461,-185.9308 1335.1389,-192.8104"/>
</g>
<!-- Node29 -->
<g id="node30" class="node">
<title>Node29</title>
<g id="a_node30"><a xlink:href="RotationRaw_8h.html" target="_top" xlink:title="iDynTree/Core/RotationRaw.h">
<polygon fill="none" stroke="#000000" points="1099,-168.5 1099,-187.5 1257,-187.5 1257,-168.5 1099,-168.5"/>
<text text-anchor="middle" x="1178" y="-175.5" font-family="FreeSans.ttf" font-size="10.00" fill="#000000">iDynTree/Core/RotationRaw.h</text>
</a>
</g>
</g>
<!-- Node27&#45;&gt;Node29 -->
<g id="edge41" class="edge">
<title>Node27&#45;&gt;Node29</title>
<path fill="none" stroke="#191970" d="M1111.1091,-224.2455C1123.4209,-215.7337 1141.4958,-203.2375 1155.7538,-193.3801"/>
<polygon fill="#191970" stroke="#191970" points="1157.8174,-196.2085 1164.0526,-187.6427 1153.8366,-190.4506 1157.8174,-196.2085"/>
</g>
<!-- Node28&#45;&gt;Node24 -->
<g id="edge40" class="edge">
<title>Node28&#45;&gt;Node24</title>
<path fill="none" stroke="#191970" d="M1367.6669,-168.3733C1341.4566,-159.1419 1301.7016,-145.1402 1272.7332,-134.9375"/>
<polygon fill="#191970" stroke="#191970" points="1273.5712,-131.5219 1262.9764,-131.5011 1271.2458,-138.1244 1273.5712,-131.5219"/>
</g>
<!-- Node29&#45;&gt;Node3 -->
<g id="edge49" class="edge">
<title>Node29&#45;&gt;Node3</title>
<path fill="none" stroke="#191970" d="M1162.4961,-168.3664C1138.5945,-153.9436 1090.9056,-126.8499 1047,-112 973.0589,-86.9914 881.6967,-74.3887 834.1622,-69.1247"/>
<polygon fill="#191970" stroke="#191970" points="834.4712,-65.6378 824.1556,-68.054 833.7264,-72.5981 834.4712,-65.6378"/>
</g>
<!-- Node29&#45;&gt;Node30 -->
<g id="edge42" class="edge">
<title>Node29&#45;&gt;Node30</title>
<path fill="none" stroke="#191970" d="M1218.4725,-168.4369C1258.948,-158.8731 1321.2867,-144.1432 1364.8703,-133.845"/>
<polygon fill="#191970" stroke="#191970" points="1365.7673,-137.2295 1374.6945,-131.5237 1364.1576,-130.4171 1365.7673,-137.2295"/>
</g>
<!-- Node30&#45;&gt;Node3 -->
<g id="edge46" class="edge">
<title>Node30&#45;&gt;Node3</title>
<path fill="none" stroke="#191970" d="M1334.4791,-112.8639C1331.6181,-112.5675 1328.7848,-112.2786 1326,-112 1140.1148,-93.4007 916.713,-75.1536 834.4466,-68.5721"/>
<polygon fill="#191970" stroke="#191970" points="834.4823,-65.0639 824.2355,-67.7572 833.9254,-72.0417 834.4823,-65.0639"/>
</g>
<!-- Node30&#45;&gt;Node5 -->
<g id="edge43" class="edge">
<title>Node30&#45;&gt;Node5</title>
<path fill="none" stroke="#191970" d="M1334.4873,-112.7771C1331.6239,-112.5053 1328.788,-112.2452 1326,-112 1262.1146,-106.3819 841.1008,-80.5173 672.5674,-70.2335"/>
<polygon fill="#191970" stroke="#191970" points="672.7546,-66.7386 662.56,-69.6231 672.3283,-73.7256 672.7546,-66.7386"/>
</g>
<!-- Node30&#45;&gt;Node12 -->
<g id="edge44" class="edge">
<title>Node30&#45;&gt;Node12</title>
<path fill="none" stroke="#191970" d="M1414.4791,-112.1062C1413.3033,-98.3097 1409.4734,-73.0688 1397,-56 1387.1427,-42.511 1372.0274,-31.9274 1358.273,-24.3303"/>
<polygon fill="#191970" stroke="#191970" points="1359.5383,-21.0439 1349.0495,-19.549 1356.3167,-27.2586 1359.5383,-21.0439"/>
</g>
<!-- Node30&#45;&gt;Node25 -->
<g id="edge48" class="edge">
<title>Node30&#45;&gt;Node25</title>
<path fill="none" stroke="#191970" d="M1405.4197,-112.2455C1397.4542,-104.1352 1385.9359,-92.4075 1376.4921,-82.7919"/>
<polygon fill="#191970" stroke="#191970" points="1378.9747,-80.3247 1369.4705,-75.6427 1373.9805,-85.2297 1378.9747,-80.3247"/>
</g>
<!-- Node30&#45;&gt;Node26 -->
<g id="edge45" class="edge">
<title>Node30&#45;&gt;Node26</title>
<path fill="none" stroke="#191970" d="M1393.3398,-112.3733C1373.0228,-103.3435 1342.436,-89.7494 1319.625,-79.6111"/>
<polygon fill="#191970" stroke="#191970" points="1320.9372,-76.3642 1310.3775,-75.5011 1318.0941,-82.7609 1320.9372,-76.3642"/>
</g>
<!-- Node31 -->
<g id="node32" class="node">
<title>Node31</title>
<polygon fill="none" stroke="#bfbfbf" points="1536,-56.5 1536,-75.5 1596,-75.5 1596,-56.5 1536,-56.5"/>
<text text-anchor="middle" x="1566" y="-63.5" font-family="FreeSans.ttf" font-size="10.00" fill="#000000">iostream</text>
</g>
<!-- Node30&#45;&gt;Node31 -->
<g id="edge47" class="edge">
<title>Node30&#45;&gt;Node31</title>
<path fill="none" stroke="#191970" d="M1440.9578,-112.3733C1465.7407,-103.1822 1503.2746,-89.2624 1530.754,-79.0713"/>
<polygon fill="#191970" stroke="#191970" points="1532.2219,-82.26 1540.3809,-75.5011 1529.7879,-75.6968 1532.2219,-82.26"/>
</g>
<!-- Node34&#45;&gt;Node5 -->
<g id="edge85" class="edge">
<title>Node34&#45;&gt;Node5</title>
<path fill="none" stroke="#191970" d="M1016.4295,-459.3574C1004.7854,-444.6166 981.6585,-415.6945 961,-392 938.6797,-366.3995 936.7675,-355.5587 909,-336 875.7933,-312.6101 858.9906,-322.2356 825,-300 733.6948,-240.271 716.0596,-215.6412 646,-132 633.5633,-117.1523 621.7267,-98.5331 613.6326,-84.8596"/>
<polygon fill="#191970" stroke="#191970" points="616.4854,-82.8016 608.4452,-75.9019 610.4278,-86.3096 616.4854,-82.8016"/>
</g>
<!-- Node34&#45;&gt;Node10 -->
<g id="edge66" class="edge">
<title>Node34&#45;&gt;Node10</title>
<path fill="none" stroke="#191970" d="M943.4464,-462.7759C864.612,-455.6885 750.7557,-442.5045 711,-423 696.1036,-415.6917 665.0659,-383.3933 646.3315,-363.0191"/>
<polygon fill="#191970" stroke="#191970" points="648.9116,-360.654 639.5879,-355.6221 643.7386,-365.3701 648.9116,-360.654"/>
</g>
<!-- Node34&#45;&gt;Node20 -->
<g id="edge68" class="edge">
<title>Node34&#45;&gt;Node20</title>
<path fill="none" stroke="#191970" d="M1013.8094,-459.4486C996.7119,-443.7937 960.7033,-412.3811 926,-392 903.2465,-378.637 875.8779,-367.1762 854.1324,-359.0367"/>
<polygon fill="#191970" stroke="#191970" points="855.1674,-355.6884 844.5736,-355.5357 852.7599,-362.2614 855.1674,-355.6884"/>
</g>
<!-- Node34&#45;&gt;Node21 -->
<g id="edge84" class="edge">
<title>Node34&#45;&gt;Node21</title>
<path fill="none" stroke="#191970" d="M1024.3139,-459.3484C1024.9681,-439.2295 1026.4891,-392.4608 1027.359,-365.7098"/>
<polygon fill="#191970" stroke="#191970" points="1030.8606,-365.7153 1027.6876,-355.6068 1023.8643,-365.4877 1030.8606,-365.7153"/>
</g>
<!-- Node34&#45;&gt;Node24 -->
<g id="edge67" class="edge">
<title>Node34&#45;&gt;Node24</title>
<path fill="none" stroke="#191970" d="M1104.6059,-466.9065C1251.0738,-462.4517 1549.3986,-450.139 1588,-423 1618.7521,-401.3795 1623,-383.5917 1623,-346 1623,-346 1623,-346 1623,-290 1623,-215.7898 1574.3693,-203.1285 1509,-168 1492.1938,-158.9686 1391.2125,-143.4443 1316.9392,-132.9558"/>
<polygon fill="#191970" stroke="#191970" points="1317.0373,-129.4354 1306.6477,-131.5105 1316.0637,-136.3673 1317.0373,-129.4354"/>
</g>
<!-- Node34&#45;&gt;Node30 -->
<g id="edge69" class="edge">
<title>Node34&#45;&gt;Node30</title>
<path fill="none" stroke="#191970" d="M1104.6498,-465.7468C1255.5774,-459.2167 1569.6117,-443.3773 1615,-423 1660.0203,-402.7879 1695,-395.3493 1695,-346 1695,-346 1695,-346 1695,-234 1695,-187.1958 1558.4229,-151.1378 1476.0421,-133.6453"/>
<polygon fill="#191970" stroke="#191970" points="1476.5352,-130.1729 1466.0307,-131.554 1475.1037,-137.025 1476.5352,-130.1729"/>
</g>
<!-- Node34&#45;&gt;Node33 -->
<g id="edge65" class="edge">
<title>Node34&#45;&gt;Node33</title>
<path fill="none" stroke="#191970" d="M943.3564,-461.7907C872.853,-454.6549 767.9688,-442.0206 678,-423 673.6078,-422.0714 669.049,-420.9639 664.5316,-419.774"/>
<polygon fill="#191970" stroke="#191970" points="665.3604,-416.3719 654.789,-417.075 663.4915,-423.1178 665.3604,-416.3719"/>
</g>
<!-- Node35 -->
<g id="node36" class="node">
<title>Node35</title>
<g id="a_node36"><a xlink:href="SpatialMotionVector_8h.html" target="_top" xlink:title="iDynTree/Core/SpatialMotion\lVector.h">
<polygon fill="none" stroke="#000000" points="1222.5,-392.5 1222.5,-422.5 1377.5,-422.5 1377.5,-392.5 1222.5,-392.5"/>
<text text-anchor="start" x="1230.5" y="-410.5" font-family="FreeSans.ttf" font-size="10.00" fill="#000000">iDynTree/Core/SpatialMotion</text>
<text text-anchor="middle" x="1300" y="-399.5" font-family="FreeSans.ttf" font-size="10.00" fill="#000000">Vector.h</text>
</a>
</g>
</g>
<!-- Node34&#45;&gt;Node35 -->
<g id="edge70" class="edge">
<title>Node34&#45;&gt;Node35</title>
<path fill="none" stroke="#191970" d="M1066.8222,-459.4581C1108.3424,-450.2063 1172.2745,-435.9606 1222.7016,-424.7241"/>
<polygon fill="#191970" stroke="#191970" points="1223.5969,-428.1105 1232.5963,-422.5193 1222.0744,-421.2781 1223.5969,-428.1105"/>
</g>
<!-- Node37 -->
<g id="node38" class="node">
<title>Node37</title>
<g id="a_node38"><a xlink:href="SpatialForceVector_8h.html" target="_top" xlink:title="iDynTree/Core/SpatialForce\lVector.h">
<polygon fill="none" stroke="#000000" points="1431,-392.5 1431,-422.5 1579,-422.5 1579,-392.5 1431,-392.5"/>
<text text-anchor="start" x="1439" y="-410.5" font-family="FreeSans.ttf" font-size="10.00" fill="#000000">iDynTree/Core/SpatialForce</text>
<text text-anchor="middle" x="1505" y="-399.5" font-family="FreeSans.ttf" font-size="10.00" fill="#000000">Vector.h</text>
</a>
</g>
</g>
<!-- Node34&#45;&gt;Node37 -->
<g id="edge80" class="edge">
<title>Node34&#45;&gt;Node37</title>
<path fill="none" stroke="#191970" d="M1099.7949,-459.4972C1173.2399,-450.2649 1287.7711,-435.8043 1387,-423 1397.9361,-421.5888 1409.4406,-420.0924 1420.8013,-418.6076"/>
<polygon fill="#191970" stroke="#191970" points="1421.2688,-422.0764 1430.7301,-417.3083 1420.3604,-415.1356 1421.2688,-422.0764"/>
</g>
<!-- Node35&#45;&gt;Node24 -->
<g id="edge71" class="edge">
<title>Node35&#45;&gt;Node24</title>
<path fill="none" stroke="#191970" d="M1300.0953,-392.3669C1299.8692,-353.6899 1296.285,-248.5908 1266,-168 1262.2069,-157.9064 1255.9103,-147.7534 1250.0624,-139.5635"/>
<polygon fill="#191970" stroke="#191970" points="1252.8394,-137.4327 1244.0327,-131.5426 1247.2441,-141.6391 1252.8394,-137.4327"/>
</g>
<!-- Node35&#45;&gt;Node28 -->
<g id="edge72" class="edge">
<title>Node35&#45;&gt;Node28</title>
<path fill="none" stroke="#191970" d="M1306.2332,-392.4419C1322.8952,-352.1901 1368.4555,-242.1259 1386.994,-197.3409"/>
<polygon fill="#191970" stroke="#191970" points="1390.3119,-198.4765 1390.9027,-187.8981 1383.8441,-195.7991 1390.3119,-198.4765"/>
</g>
<!-- Node36 -->
<g id="node37" class="node">
<title>Node36</title>
<g id="a_node37"><a xlink:href="SpatialVector_8h.html" target="_top" xlink:title="iDynTree/Core/SpatialVector.h">
<polygon fill="none" stroke="#000000" points="1350.5,-336.5 1350.5,-355.5 1511.5,-355.5 1511.5,-336.5 1350.5,-336.5"/>
<text text-anchor="middle" x="1431" y="-343.5" font-family="FreeSans.ttf" font-size="10.00" fill="#000000">iDynTree/Core/SpatialVector.h</text>
</a>
</g>
</g>
<!-- Node35&#45;&gt;Node36 -->
<g id="edge73" class="edge">
<title>Node35&#45;&gt;Node36</title>
<path fill="none" stroke="#191970" d="M1332.0462,-392.4554C1353.2328,-382.509 1380.8028,-369.5659 1401.4588,-359.8686"/>
<polygon fill="#191970" stroke="#191970" points="1403.1349,-362.9483 1410.6996,-355.5303 1400.1601,-356.6118 1403.1349,-362.9483"/>
</g>
<!-- Node36&#45;&gt;Node5 -->
<g id="edge76" class="edge">
<title>Node36&#45;&gt;Node5</title>
<path fill="none" stroke="#191970" d="M1350.3011,-343.8985C1227.4784,-339.8231 999.8871,-328.581 924,-300 790.3605,-249.6681 662.8974,-127.6644 619.0526,-82.863"/>
<polygon fill="#191970" stroke="#191970" points="621.5476,-80.4083 612.0762,-75.6603 616.5195,-85.2784 621.5476,-80.4083"/>
</g>
<!-- Node36&#45;&gt;Node22 -->
<g id="edge74" class="edge">
<title>Node36&#45;&gt;Node22</title>
<path fill="none" stroke="#191970" d="M1357.5689,-336.4369C1280.0485,-326.3412 1158.3261,-310.489 1079.0887,-300.1697"/>
<polygon fill="#191970" stroke="#191970" points="1079.53,-296.6977 1069.1617,-298.8769 1078.6259,-303.6391 1079.53,-296.6977"/>
</g>
<!-- Node36&#45;&gt;Node25 -->
<g id="edge79" class="edge">
<title>Node36&#45;&gt;Node25</title>
<path fill="none" stroke="#191970" d="M1436.8085,-336.471C1451.0404,-312.5523 1487.541,-247.6204 1502,-188 1509.9671,-155.1482 1524.9646,-139.2788 1505,-112 1492.2568,-94.5883 1436.7086,-80.6633 1398.1897,-72.8675"/>
<polygon fill="#191970" stroke="#191970" points="1398.8014,-69.4209 1388.314,-70.9263 1397.4512,-76.2894 1398.8014,-69.4209"/>
</g>
<!-- Node36&#45;&gt;Node27 -->
<g id="edge75" class="edge">
<title>Node36&#45;&gt;Node27</title>
<path fill="none" stroke="#191970" d="M1402.5233,-336.4509C1342.5025,-316.3242 1202.9744,-269.5363 1135.2468,-246.8253"/>
<polygon fill="#191970" stroke="#191970" points="1135.9985,-243.3859 1125.4046,-243.5249 1133.7729,-250.0227 1135.9985,-243.3859"/>
</g>
<!-- Node36&#45;&gt;Node28 -->
<g id="edge77" class="edge">
<title>Node36&#45;&gt;Node28</title>
<path fill="none" stroke="#191970" d="M1428.9613,-336.4862C1423.2459,-309.8144 1406.9811,-233.9117 1399.2204,-197.695"/>
<polygon fill="#191970" stroke="#191970" points="1402.6237,-196.8725 1397.106,-187.8279 1395.779,-198.3393 1402.6237,-196.8725"/>
</g>
<!-- Node36&#45;&gt;Node31 -->
<g id="edge78" class="edge">
<title>Node36&#45;&gt;Node31</title>
<path fill="none" stroke="#191970" d="M1442.4177,-336.4083C1452.1573,-327.7291 1465.9773,-314.169 1475,-300 1521.3249,-227.2529 1550.4013,-127.1752 1561.219,-85.4698"/>
<polygon fill="#191970" stroke="#191970" points="1564.6724,-86.0899 1563.7333,-75.5367 1557.8864,-84.3722 1564.6724,-86.0899"/>
</g>
<!-- Node37&#45;&gt;Node24 -->
<g id="edge81" class="edge">
<title>Node37&#45;&gt;Node24</title>
<path fill="none" stroke="#191970" d="M1517.1789,-392.2988C1524.1867,-382.5503 1532.3134,-369.2728 1536,-356 1554.9246,-287.8651 1582.6555,-254.8029 1486,-168 1473.4881,-156.7635 1387.247,-142.6 1319.5107,-132.9786"/>
<polygon fill="#191970" stroke="#191970" points="1319.6279,-129.4607 1309.2379,-131.5337 1318.6529,-136.3924 1319.6279,-129.4607"/>
</g>
<!-- Node37&#45;&gt;Node28 -->
<g id="edge82" class="edge">
<title>Node37&#45;&gt;Node28</title>
<path fill="none" stroke="#191970" d="M1513.1573,-392.4282C1519.9874,-377.7598 1527.6379,-354.9701 1521,-336 1499.7102,-275.157 1444.0805,-220.2652 1414.3669,-194.1207"/>
<polygon fill="#191970" stroke="#191970" points="1416.5818,-191.409 1406.7234,-187.5279 1412.0097,-196.7097 1416.5818,-191.409"/>
</g>
<!-- Node37&#45;&gt;Node36 -->
<g id="edge83" class="edge">
<title>Node37&#45;&gt;Node36</title>
<path fill="none" stroke="#191970" d="M1486.7079,-392.2977C1475.7939,-383.2274 1461.9329,-371.7077 1450.7676,-362.4285"/>
<polygon fill="#191970" stroke="#191970" points="1452.7762,-359.5468 1442.8483,-355.8469 1448.302,-364.9303 1452.7762,-359.5468"/>
</g>
</g>
</svg>
