<?xml version="1.0" encoding="UTF-8" standalone="no"?>
<!DOCTYPE svg PUBLIC "-//W3C//DTD SVG 1.1//EN"
 "http://www.w3.org/Graphics/SVG/1.1/DTD/svg11.dtd">
<!-- Generated by graphviz version 2.40.1 (20161225.0304)
 -->
<!-- Title: LinearCost.cpp Pages: 1 -->
<svg width="1062pt" height="588pt"
 viewBox="0.00 0.00 1062.08 588.00" xmlns="http://www.w3.org/2000/svg" xmlns:xlink="http://www.w3.org/1999/xlink">
<g id="graph0" class="graph" transform="scale(1 1) rotate(0) translate(4 584)">
<title>LinearCost.cpp</title>
<!-- Node0 -->
<g id="node1" class="node">
<title>Node0</title>
<polygon fill="#bfbfbf" stroke="#000000" points="801.0816,-560.5 801.0816,-579.5 890.0816,-579.5 890.0816,-560.5 801.0816,-560.5"/>
<text text-anchor="middle" x="845.5816" y="-567.5" font-family="FreeSans.ttf" font-size="10.00" fill="#000000">LinearCost.cpp</text>
</g>
<!-- Node1 -->
<g id="node2" class="node">
<title>Node1</title>
<g id="a_node2"><a xlink:href="LinearCost_8h.html" target="_top" xlink:title="iDynTree/LinearCost.h">
<polygon fill="none" stroke="#000000" points="727.0816,-504.5 727.0816,-523.5 850.0816,-523.5 850.0816,-504.5 727.0816,-504.5"/>
<text text-anchor="middle" x="788.5816" y="-511.5" font-family="FreeSans.ttf" font-size="10.00" fill="#000000">iDynTree/LinearCost.h</text>
</a>
</g>
</g>
<!-- Node0&#45;&gt;Node1 -->
<g id="edge1" class="edge">
<title>Node0&#45;&gt;Node1</title>
<path fill="none" stroke="#191970" d="M835.653,-560.2455C827.3978,-552.1352 815.4607,-540.4075 805.6734,-530.7919"/>
<polygon fill="#191970" stroke="#191970" points="807.9827,-528.1542 798.3965,-523.6427 803.077,-533.1476 807.9827,-528.1542"/>
</g>
<!-- Node6 -->
<g id="node7" class="node">
<title>Node6</title>
<g id="a_node7"><a xlink:href="Utils_8h.html" target="_top" xlink:title="iDynTree/Core/Utils.h">
<polygon fill="none" stroke="#000000" points="727.0816,-56.5 727.0816,-75.5 846.0816,-75.5 846.0816,-56.5 727.0816,-56.5"/>
<text text-anchor="middle" x="786.5816" y="-63.5" font-family="FreeSans.ttf" font-size="10.00" fill="#000000">iDynTree/Core/Utils.h</text>
</a>
</g>
</g>
<!-- Node0&#45;&gt;Node6 -->
<g id="edge58" class="edge">
<title>Node0&#45;&gt;Node6</title>
<path fill="none" stroke="#191970" d="M854.4879,-560.3544C870.5191,-541.945 902.5816,-499.8901 902.5816,-458 902.5816,-458 902.5816,-458 902.5816,-234 902.5816,-203.3494 897.9353,-194.5277 882.5816,-168 862.4716,-133.2545 828.3762,-100.9044 806.6957,-82.3093"/>
<polygon fill="#191970" stroke="#191970" points="808.6876,-79.4114 798.7799,-75.6579 804.1843,-84.7707 808.6876,-79.4114"/>
</g>
<!-- Node2 -->
<g id="node3" class="node">
<title>Node2</title>
<g id="a_node3"><a xlink:href="QuadraticLikeCost_8h.html" target="_top" xlink:title="iDynTree/QuadraticLikeCost.h">
<polygon fill="none" stroke="#000000" points="708.0816,-448.5 708.0816,-467.5 869.0816,-467.5 869.0816,-448.5 708.0816,-448.5"/>
<text text-anchor="middle" x="788.5816" y="-455.5" font-family="FreeSans.ttf" font-size="10.00" fill="#000000">iDynTree/QuadraticLikeCost.h</text>
</a>
</g>
</g>
<!-- Node1&#45;&gt;Node2 -->
<g id="edge2" class="edge">
<title>Node1&#45;&gt;Node2</title>
<path fill="none" stroke="#191970" d="M788.5816,-504.2455C788.5816,-496.9382 788.5816,-486.6944 788.5816,-477.7046"/>
<polygon fill="#191970" stroke="#191970" points="792.0817,-477.6426 788.5816,-467.6427 785.0817,-477.6427 792.0817,-477.6426"/>
</g>
<!-- Node10 -->
<g id="node11" class="node">
<title>Node10</title>
<g id="a_node11"><a xlink:href="TimeVaryingObject_8h.html" target="_top" xlink:title="iDynTree/TimeVaryingObject.h">
<polygon fill="none" stroke="#000000" points="596.5816,-392.5 596.5816,-411.5 760.5816,-411.5 760.5816,-392.5 596.5816,-392.5"/>
<text text-anchor="middle" x="678.5816" y="-399.5" font-family="FreeSans.ttf" font-size="10.00" fill="#000000">iDynTree/TimeVaryingObject.h</text>
</a>
</g>
</g>
<!-- Node1&#45;&gt;Node10 -->
<g id="edge57" class="edge">
<title>Node1&#45;&gt;Node10</title>
<path fill="none" stroke="#191970" d="M755.7085,-504.4233C736.5462,-497.2689 713.3247,-485.6369 698.5816,-468 687.6752,-454.9529 682.7144,-436.0674 680.4591,-421.838"/>
<polygon fill="#191970" stroke="#191970" points="683.8947,-421.1072 679.1685,-411.625 676.9499,-421.9849 683.8947,-421.1072"/>
</g>
<!-- Node3 -->
<g id="node4" class="node">
<title>Node3</title>
<g id="a_node4"><a xlink:href="Cost_8h.html" target="_top" xlink:title="iDynTree/Cost.h">
<polygon fill="none" stroke="#000000" points="781.0816,-168.5 781.0816,-187.5 874.0816,-187.5 874.0816,-168.5 781.0816,-168.5"/>
<text text-anchor="middle" x="827.5816" y="-175.5" font-family="FreeSans.ttf" font-size="10.00" fill="#000000">iDynTree/Cost.h</text>
</a>
</g>
</g>
<!-- Node2&#45;&gt;Node3 -->
<g id="edge3" class="edge">
<title>Node2&#45;&gt;Node3</title>
<path fill="none" stroke="#191970" d="M790.3554,-448.4103C794.8614,-423.8187 806.9326,-356.4733 814.5816,-300 819.4684,-263.9206 823.625,-221.6317 825.8479,-197.5102"/>
<polygon fill="#191970" stroke="#191970" points="829.3369,-197.7886 826.7538,-187.5135 822.3655,-197.1569 829.3369,-197.7886"/>
</g>
<!-- Node2&#45;&gt;Node10 -->
<g id="edge12" class="edge">
<title>Node2&#45;&gt;Node10</title>
<path fill="none" stroke="#191970" d="M769.4211,-448.2455C752.0705,-439.4125 726.2915,-426.2887 706.6233,-416.2758"/>
<polygon fill="#191970" stroke="#191970" points="708.0221,-413.0605 697.5226,-411.6427 704.8463,-419.2986 708.0221,-413.0605"/>
</g>
<!-- Node33 -->
<g id="node34" class="node">
<title>Node33</title>
<polygon fill="none" stroke="#bfbfbf" points="816.5816,-392.5 816.5816,-411.5 874.5816,-411.5 874.5816,-392.5 816.5816,-392.5"/>
<text text-anchor="middle" x="845.5816" y="-399.5" font-family="FreeSans.ttf" font-size="10.00" fill="#000000">memory</text>
</g>
<!-- Node2&#45;&gt;Node33 -->
<g id="edge56" class="edge">
<title>Node2&#45;&gt;Node33</title>
<path fill="none" stroke="#191970" d="M798.5102,-448.2455C806.7654,-440.1352 818.7025,-428.4075 828.4898,-418.7919"/>
<polygon fill="#191970" stroke="#191970" points="831.0862,-421.1476 835.7667,-411.6427 826.1805,-416.1542 831.0862,-421.1476"/>
</g>
<!-- Node4 -->
<g id="node5" class="node">
<title>Node4</title>
<polygon fill="none" stroke="#bfbfbf" points="609.5816,-56.5 609.5816,-75.5 653.5816,-75.5 653.5816,-56.5 609.5816,-56.5"/>
<text text-anchor="middle" x="631.5816" y="-63.5" font-family="FreeSans.ttf" font-size="10.00" fill="#000000">string</text>
</g>
<!-- Node3&#45;&gt;Node4 -->
<g id="edge4" class="edge">
<title>Node3&#45;&gt;Node4</title>
<path fill="none" stroke="#191970" d="M819.8039,-168.1472C808.1181,-153.9355 784.7072,-127.6734 759.5816,-112 729.3802,-93.1603 690.3649,-80.5581 663.3873,-73.3799"/>
<polygon fill="#191970" stroke="#191970" points="664.2366,-69.9845 653.6808,-70.8927 662.499,-76.7654 664.2366,-69.9845"/>
</g>
<!-- Node5 -->
<g id="node6" class="node">
<title>Node5</title>
<g id="a_node6"><a xlink:href="SparsityStructure_8h.html" target="_top" xlink:title="iDynTree/SparsityStructure.h">
<polygon fill="none" stroke="#000000" points="868.0816,-112.5 868.0816,-131.5 1023.0816,-131.5 1023.0816,-112.5 868.0816,-112.5"/>
<text text-anchor="middle" x="945.5816" y="-119.5" font-family="FreeSans.ttf" font-size="10.00" fill="#000000">iDynTree/SparsityStructure.h</text>
</a>
</g>
</g>
<!-- Node3&#45;&gt;Node5 -->
<g id="edge5" class="edge">
<title>Node3&#45;&gt;Node5</title>
<path fill="none" stroke="#191970" d="M847.8665,-168.3733C866.7237,-159.4241 895.0276,-145.9917 916.3271,-135.8835"/>
<polygon fill="#191970" stroke="#191970" points="918.0277,-138.9506 925.5614,-131.5011 915.0265,-132.6266 918.0277,-138.9506"/>
</g>
<!-- Node5&#45;&gt;Node4 -->
<g id="edge11" class="edge">
<title>Node5&#45;&gt;Node4</title>
<path fill="none" stroke="#191970" d="M891.9599,-112.4369C826.4389,-100.7516 717.6757,-81.3544 663.8277,-71.7509"/>
<polygon fill="#191970" stroke="#191970" points="664.2786,-68.2762 653.8194,-69.966 663.0495,-75.1674 664.2786,-68.2762"/>
</g>
<!-- Node5&#45;&gt;Node6 -->
<g id="edge6" class="edge">
<title>Node5&#45;&gt;Node6</title>
<path fill="none" stroke="#191970" d="M918.2485,-112.3733C892.0382,-103.1419 852.2832,-89.1402 823.3148,-78.9375"/>
<polygon fill="#191970" stroke="#191970" points="824.1528,-75.5219 813.558,-75.5011 821.8274,-82.1244 824.1528,-75.5219"/>
</g>
<!-- Node7 -->
<g id="node8" class="node">
<title>Node7</title>
<polygon fill="none" stroke="#bfbfbf" points="763.0816,-.5 763.0816,-19.5 816.0816,-19.5 816.0816,-.5 763.0816,-.5"/>
<text text-anchor="middle" x="789.5816" y="-7.5" font-family="FreeSans.ttf" font-size="10.00" fill="#000000">cstddef</text>
</g>
<!-- Node5&#45;&gt;Node7 -->
<g id="edge9" class="edge">
<title>Node5&#45;&gt;Node7</title>
<path fill="none" stroke="#191970" d="M932.3544,-112.333C914.6751,-99.4292 882.3452,-75.8911 854.5816,-56 840.3838,-45.828 824.369,-34.4929 811.7883,-25.6199"/>
<polygon fill="#191970" stroke="#191970" points="813.5003,-22.5446 803.3097,-19.6459 809.4684,-28.2669 813.5003,-22.5446"/>
</g>
<!-- Node8 -->
<g id="node9" class="node">
<title>Node8</title>
<polygon fill="none" stroke="#bfbfbf" points="1007.0816,-56.5 1007.0816,-75.5 1054.0816,-75.5 1054.0816,-56.5 1007.0816,-56.5"/>
<text text-anchor="middle" x="1030.5816" y="-63.5" font-family="FreeSans.ttf" font-size="10.00" fill="#000000">vector</text>
</g>
<!-- Node5&#45;&gt;Node8 -->
<g id="edge8" class="edge">
<title>Node5&#45;&gt;Node8</title>
<path fill="none" stroke="#191970" d="M960.3875,-112.2455C973.3072,-103.7337 992.2747,-91.2375 1007.2368,-81.3801"/>
<polygon fill="#191970" stroke="#191970" points="1009.5203,-84.067 1015.9454,-75.6427 1005.6692,-78.2216 1009.5203,-84.067"/>
</g>
<!-- Node9 -->
<g id="node10" class="node">
<title>Node9</title>
<polygon fill="none" stroke="#bfbfbf" points="902.5816,-56.5 902.5816,-75.5 988.5816,-75.5 988.5816,-56.5 902.5816,-56.5"/>
<text text-anchor="middle" x="945.5816" y="-63.5" font-family="FreeSans.ttf" font-size="10.00" fill="#000000">unordered_set</text>
</g>
<!-- Node5&#45;&gt;Node9 -->
<g id="edge10" class="edge">
<title>Node5&#45;&gt;Node9</title>
<path fill="none" stroke="#191970" d="M945.5816,-112.2455C945.5816,-104.9382 945.5816,-94.6944 945.5816,-85.7046"/>
<polygon fill="#191970" stroke="#191970" points="949.0817,-85.6426 945.5816,-75.6427 942.0817,-85.6427 949.0817,-85.6426"/>
</g>
<!-- Node6&#45;&gt;Node7 -->
<g id="edge7" class="edge">
<title>Node6&#45;&gt;Node7</title>
<path fill="none" stroke="#191970" d="M787.1042,-56.2455C787.4956,-48.9382 788.0444,-38.6944 788.526,-29.7046"/>
<polygon fill="#191970" stroke="#191970" points="792.025,-29.8156 789.065,-19.6427 785.035,-29.4411 792.025,-29.8156"/>
</g>
<!-- Node11 -->
<g id="node12" class="node">
<title>Node11</title>
<g id="a_node12"><a xlink:href="VectorDynSize_8h.html" target="_top" xlink:title="iDynTree/Core/VectorDynSize.h">
<polygon fill="none" stroke="#000000" points="399.0816,-112.5 399.0816,-131.5 566.0816,-131.5 566.0816,-112.5 399.0816,-112.5"/>
<text text-anchor="middle" x="482.5816" y="-119.5" font-family="FreeSans.ttf" font-size="10.00" fill="#000000">iDynTree/Core/VectorDynSize.h</text>
</a>
</g>
</g>
<!-- Node10&#45;&gt;Node11 -->
<g id="edge13" class="edge">
<title>Node10&#45;&gt;Node11</title>
<path fill="none" stroke="#191970" d="M596.5109,-399.5473C459.6299,-393.2011 199.5816,-370.5454 199.5816,-290 199.5816,-290 199.5816,-290 199.5816,-234 199.5816,-203.4754 195.8661,-188.3901 218.5816,-168 231.7048,-156.2202 321.8872,-142.2583 393.2473,-132.831"/>
<polygon fill="#191970" stroke="#191970" points="393.7201,-136.2991 403.1817,-131.5316 392.8122,-129.3582 393.7201,-136.2991"/>
</g>
<!-- Node21 -->
<g id="node22" class="node">
<title>Node21</title>
<g id="a_node22"><a xlink:href="MatrixDynSize_8h.html" target="_top" xlink:title="iDynTree/Core/MatrixDynSize.h">
<polygon fill="none" stroke="#000000" points="639.0816,-280.5 639.0816,-299.5 806.0816,-299.5 806.0816,-280.5 639.0816,-280.5"/>
<text text-anchor="middle" x="722.5816" y="-287.5" font-family="FreeSans.ttf" font-size="10.00" fill="#000000">iDynTree/Core/MatrixDynSize.h</text>
</a>
</g>
</g>
<!-- Node10&#45;&gt;Node21 -->
<g id="edge25" class="edge">
<title>Node10&#45;&gt;Node21</title>
<path fill="none" stroke="#191970" d="M682.333,-392.4509C689.5743,-374.0186 705.6002,-333.2254 715.1004,-309.043"/>
<polygon fill="#191970" stroke="#191970" points="718.4407,-310.1122 718.8397,-299.5249 711.9255,-307.5526 718.4407,-310.1122"/>
</g>
<!-- Node22 -->
<g id="node23" class="node">
<title>Node22</title>
<g id="a_node23"><a xlink:href="Transform_8h.html" target="_top" xlink:title="iDynTree/Core/Transform.h">
<polygon fill="none" stroke="#000000" points="442.5816,-336.5 442.5816,-355.5 588.5816,-355.5 588.5816,-336.5 442.5816,-336.5"/>
<text text-anchor="middle" x="515.5816" y="-343.5" font-family="FreeSans.ttf" font-size="10.00" fill="#000000">iDynTree/Core/Transform.h</text>
</a>
</g>
</g>
<!-- Node10&#45;&gt;Node22 -->
<g id="edge27" class="edge">
<title>Node10&#45;&gt;Node22</title>
<path fill="none" stroke="#191970" d="M650.5609,-392.3733C623.5738,-383.1016 582.5799,-369.0178 552.8505,-358.804"/>
<polygon fill="#191970" stroke="#191970" points="553.8313,-355.4403 543.2367,-355.5011 551.5568,-362.0605 553.8313,-355.4403"/>
</g>
<!-- Node11&#45;&gt;Node4 -->
<g id="edge24" class="edge">
<title>Node11&#45;&gt;Node4</title>
<path fill="none" stroke="#191970" d="M508.1956,-112.3733C533.5395,-102.848 572.3972,-88.2438 599.7201,-77.9748"/>
<polygon fill="#191970" stroke="#191970" points="601.0888,-81.1995 609.2181,-74.4051 598.6261,-74.647 601.0888,-81.1995"/>
</g>
<!-- Node12 -->
<g id="node13" class="node">
<title>Node12</title>
<g id="a_node13"><a xlink:href="Span_8h.html" target="_top" xlink:title="iDynTree/Core/Span.h">
<polygon fill="none" stroke="#000000" points="419.0816,-56.5 419.0816,-75.5 540.0816,-75.5 540.0816,-56.5 419.0816,-56.5"/>
<text text-anchor="middle" x="479.5816" y="-63.5" font-family="FreeSans.ttf" font-size="10.00" fill="#000000">iDynTree/Core/Span.h</text>
</a>
</g>
</g>
<!-- Node11&#45;&gt;Node12 -->
<g id="edge14" class="edge">
<title>Node11&#45;&gt;Node12</title>
<path fill="none" stroke="#191970" d="M482.059,-112.2455C481.6676,-104.9382 481.1188,-94.6944 480.6372,-85.7046"/>
<polygon fill="#191970" stroke="#191970" points="484.1282,-85.4411 480.0982,-75.6427 477.1382,-85.8156 484.1282,-85.4411"/>
</g>
<!-- Node12&#45;&gt;Node7 -->
<g id="edge18" class="edge">
<title>Node12&#45;&gt;Node7</title>
<path fill="none" stroke="#191970" d="M540.3361,-57.6636C593.8075,-49.9042 673.93,-37.2552 752.8112,-19.9814"/>
<polygon fill="#191970" stroke="#191970" points="753.918,-23.3211 762.9234,-17.7397 752.4029,-16.487 753.918,-23.3211"/>
</g>
<!-- Node13 -->
<g id="node14" class="node">
<title>Node13</title>
<polygon fill="none" stroke="#bfbfbf" points="182.5816,-.5 182.5816,-19.5 234.5816,-19.5 234.5816,-.5 182.5816,-.5"/>
<text text-anchor="middle" x="208.5816" y="-7.5" font-family="FreeSans.ttf" font-size="10.00" fill="#000000">cassert</text>
</g>
<!-- Node12&#45;&gt;Node13 -->
<g id="edge15" class="edge">
<title>Node12&#45;&gt;Node13</title>
<path fill="none" stroke="#191970" d="M423.5004,-56.4675C377.7493,-48.3733 311.2625,-35.8909 244.7084,-20.128"/>
<polygon fill="#191970" stroke="#191970" points="245.4309,-16.7022 234.8909,-17.7787 243.8018,-23.51 245.4309,-16.7022"/>
</g>
<!-- Node14 -->
<g id="node15" class="node">
<title>Node14</title>
<polygon fill="none" stroke="#bfbfbf" points="680.5816,-.5 680.5816,-19.5 744.5816,-19.5 744.5816,-.5 680.5816,-.5"/>
<text text-anchor="middle" x="712.5816" y="-7.5" font-family="FreeSans.ttf" font-size="10.00" fill="#000000">algorithm</text>
</g>
<!-- Node12&#45;&gt;Node14 -->
<g id="edge16" class="edge">
<title>Node12&#45;&gt;Node14</title>
<path fill="none" stroke="#191970" d="M519.371,-56.4369C561.4862,-46.3148 627.6782,-30.406 670.605,-20.0888"/>
<polygon fill="#191970" stroke="#191970" points="671.5511,-23.4612 680.4562,-17.7211 669.9152,-16.655 671.5511,-23.4612"/>
</g>
<!-- Node15 -->
<g id="node16" class="node">
<title>Node15</title>
<polygon fill="none" stroke="#bfbfbf" points="252.5816,-.5 252.5816,-19.5 294.5816,-19.5 294.5816,-.5 252.5816,-.5"/>
<text text-anchor="middle" x="273.5816" y="-7.5" font-family="FreeSans.ttf" font-size="10.00" fill="#000000">array</text>
</g>
<!-- Node12&#45;&gt;Node15 -->
<g id="edge17" class="edge">
<title>Node12&#45;&gt;Node15</title>
<path fill="none" stroke="#191970" d="M439.8808,-56.42C406.1712,-48.1081 356.3215,-35.4008 304.523,-20.1526"/>
<polygon fill="#191970" stroke="#191970" points="305.4144,-16.7663 294.8319,-17.2763 303.4227,-23.477 305.4144,-16.7663"/>
</g>
<!-- Node16 -->
<g id="node17" class="node">
<title>Node16</title>
<polygon fill="none" stroke="#bfbfbf" points="313.0816,-.5 313.0816,-19.5 366.0816,-19.5 366.0816,-.5 313.0816,-.5"/>
<text text-anchor="middle" x="339.5816" y="-7.5" font-family="FreeSans.ttf" font-size="10.00" fill="#000000">iterator</text>
</g>
<!-- Node12&#45;&gt;Node16 -->
<g id="edge19" class="edge">
<title>Node12&#45;&gt;Node16</title>
<path fill="none" stroke="#191970" d="M455.5147,-56.3733C432.7388,-47.2629 398.3472,-33.5062 372.9326,-23.3404"/>
<polygon fill="#191970" stroke="#191970" points="373.9191,-19.9654 363.3344,-19.5011 371.3193,-26.4648 373.9191,-19.9654"/>
</g>
<!-- Node17 -->
<g id="node18" class="node">
<title>Node17</title>
<polygon fill="none" stroke="#bfbfbf" points="384.5816,-.5 384.5816,-19.5 428.5816,-19.5 428.5816,-.5 384.5816,-.5"/>
<text text-anchor="middle" x="406.5816" y="-7.5" font-family="FreeSans.ttf" font-size="10.00" fill="#000000">limits</text>
</g>
<!-- Node12&#45;&gt;Node17 -->
<g id="edge20" class="edge">
<title>Node12&#45;&gt;Node17</title>
<path fill="none" stroke="#191970" d="M466.866,-56.2455C455.9796,-47.8943 440.0933,-35.7076 427.3616,-25.9408"/>
<polygon fill="#191970" stroke="#191970" points="429.2162,-22.9523 419.1515,-19.6427 424.9555,-28.5063 429.2162,-22.9523"/>
</g>
<!-- Node18 -->
<g id="node19" class="node">
<title>Node18</title>
<polygon fill="none" stroke="#bfbfbf" points="447.0816,-.5 447.0816,-19.5 512.0816,-19.5 512.0816,-.5 447.0816,-.5"/>
<text text-anchor="middle" x="479.5816" y="-7.5" font-family="FreeSans.ttf" font-size="10.00" fill="#000000">stdexcept</text>
</g>
<!-- Node12&#45;&gt;Node18 -->
<g id="edge21" class="edge">
<title>Node12&#45;&gt;Node18</title>
<path fill="none" stroke="#191970" d="M479.5816,-56.2455C479.5816,-48.9382 479.5816,-38.6944 479.5816,-29.7046"/>
<polygon fill="#191970" stroke="#191970" points="483.0817,-29.6426 479.5816,-19.6427 476.0817,-29.6427 483.0817,-29.6426"/>
</g>
<!-- Node19 -->
<g id="node20" class="node">
<title>Node19</title>
<polygon fill="none" stroke="#bfbfbf" points="530.0816,-.5 530.0816,-19.5 599.0816,-19.5 599.0816,-.5 530.0816,-.5"/>
<text text-anchor="middle" x="564.5816" y="-7.5" font-family="FreeSans.ttf" font-size="10.00" fill="#000000">type_traits</text>
</g>
<!-- Node12&#45;&gt;Node19 -->
<g id="edge22" class="edge">
<title>Node12&#45;&gt;Node19</title>
<path fill="none" stroke="#191970" d="M494.3875,-56.2455C507.3072,-47.7337 526.2747,-35.2375 541.2368,-25.3801"/>
<polygon fill="#191970" stroke="#191970" points="543.5203,-28.067 549.9454,-19.6427 539.6692,-22.2216 543.5203,-28.067"/>
</g>
<!-- Node20 -->
<g id="node21" class="node">
<title>Node20</title>
<polygon fill="none" stroke="#bfbfbf" points="617.0816,-.5 617.0816,-19.5 662.0816,-19.5 662.0816,-.5 617.0816,-.5"/>
<text text-anchor="middle" x="639.5816" y="-7.5" font-family="FreeSans.ttf" font-size="10.00" fill="#000000">utility</text>
</g>
<!-- Node12&#45;&gt;Node20 -->
<g id="edge23" class="edge">
<title>Node12&#45;&gt;Node20</title>
<path fill="none" stroke="#191970" d="M507.0866,-56.3733C534.9004,-46.6384 577.8715,-31.5985 607.2867,-21.3032"/>
<polygon fill="#191970" stroke="#191970" points="608.7964,-24.4831 617.0788,-17.876 606.4839,-17.8761 608.7964,-24.4831"/>
</g>
<!-- Node21&#45;&gt;Node4 -->
<g id="edge26" class="edge">
<title>Node21&#45;&gt;Node4</title>
<path fill="none" stroke="#191970" d="M725.7925,-280.1764C734.4837,-251.6374 755.6107,-167.2596 721.5816,-112 708.9875,-91.5484 684.1324,-79.8165 663.7278,-73.3264"/>
<polygon fill="#191970" stroke="#191970" points="664.4261,-69.885 653.8474,-70.469 662.4813,-76.6094 664.4261,-69.885"/>
</g>
<!-- Node22&#45;&gt;Node4 -->
<g id="edge55" class="edge">
<title>Node22&#45;&gt;Node4</title>
<path fill="none" stroke="#191970" d="M536.8565,-336.4635C553.3288,-328.3729 576.0486,-315.6057 592.5816,-300 636.3276,-258.7077 650.9135,-245.5031 668.5816,-188 678.5023,-155.7119 679.8044,-143.8589 668.5816,-112 664.7507,-101.125 657.1414,-90.9246 649.8144,-82.9061"/>
<polygon fill="#191970" stroke="#191970" points="652.2282,-80.3686 642.7318,-75.6707 647.2259,-85.2652 652.2282,-80.3686"/>
</g>
<!-- Node23 -->
<g id="node24" class="node">
<title>Node23</title>
<g id="a_node24"><a xlink:href="Position_8h.html" target="_top" xlink:title="iDynTree/Core/Position.h">
<polygon fill="none" stroke="#000000" points="447.5816,-280.5 447.5816,-299.5 583.5816,-299.5 583.5816,-280.5 447.5816,-280.5"/>
<text text-anchor="middle" x="515.5816" y="-287.5" font-family="FreeSans.ttf" font-size="10.00" fill="#000000">iDynTree/Core/Position.h</text>
</a>
</g>
</g>
<!-- Node22&#45;&gt;Node23 -->
<g id="edge28" class="edge">
<title>Node22&#45;&gt;Node23</title>
<path fill="none" stroke="#191970" d="M515.5816,-336.2455C515.5816,-328.9382 515.5816,-318.6944 515.5816,-309.7046"/>
<polygon fill="#191970" stroke="#191970" points="519.0817,-309.6426 515.5816,-299.6427 512.0817,-309.6427 519.0817,-309.6426"/>
</g>
<!-- Node28 -->
<g id="node29" class="node">
<title>Node28</title>
<g id="a_node29"><a xlink:href="Rotation_8h.html" target="_top" xlink:title="iDynTree/Core/Rotation.h">
<polygon fill="none" stroke="#000000" points="351.0816,-224.5 351.0816,-243.5 488.0816,-243.5 488.0816,-224.5 351.0816,-224.5"/>
<text text-anchor="middle" x="419.5816" y="-231.5" font-family="FreeSans.ttf" font-size="10.00" fill="#000000">iDynTree/Core/Rotation.h</text>
</a>
</g>
</g>
<!-- Node22&#45;&gt;Node28 -->
<g id="edge53" class="edge">
<title>Node22&#45;&gt;Node28</title>
<path fill="none" stroke="#191970" d="M489.5738,-336.3781C472.7359,-328.8873 451.599,-316.9016 438.5816,-300 428.2479,-286.5828 423.5322,-267.7379 421.3815,-253.6179"/>
<polygon fill="#191970" stroke="#191970" points="424.8327,-253.004 420.1483,-243.501 417.8841,-253.851 424.8327,-253.004"/>
</g>
<!-- Node31 -->
<g id="node32" class="node">
<title>Node31</title>
<g id="a_node32"><a xlink:href="MatrixFixSize_8h.html" target="_top" xlink:title="iDynTree/Core/MatrixFixSize.h">
<polygon fill="none" stroke="#000000" points="2.0816,-112.5 2.0816,-131.5 163.0816,-131.5 163.0816,-112.5 2.0816,-112.5"/>
<text text-anchor="middle" x="82.5816" y="-119.5" font-family="FreeSans.ttf" font-size="10.00" fill="#000000">iDynTree/Core/MatrixFixSize.h</text>
</a>
</g>
</g>
<!-- Node22&#45;&gt;Node31 -->
<g id="edge54" class="edge">
<title>Node22&#45;&gt;Node31</title>
<path fill="none" stroke="#191970" d="M455.3168,-336.4213C332.2089,-315.4947 58.8713,-261.6119 4.5816,-188 -11.2414,-166.5455 18.3926,-147.5357 45.5666,-135.4939"/>
<polygon fill="#191970" stroke="#191970" points="47.1331,-138.6323 54.9973,-131.5326 44.4222,-132.1785 47.1331,-138.6323"/>
</g>
<!-- Node23&#45;&gt;Node4 -->
<g id="edge52" class="edge">
<title>Node23&#45;&gt;Node4</title>
<path fill="none" stroke="#191970" d="M539.0531,-280.3994C571.1156,-265.8371 627.2807,-234.809 650.5816,-188 667.289,-154.4366 652.2982,-109.788 641.1237,-84.868"/>
<polygon fill="#191970" stroke="#191970" points="644.2591,-83.311 636.8152,-75.7718 637.9329,-86.3076 644.2591,-83.311"/>
</g>
<!-- Node24 -->
<g id="node25" class="node">
<title>Node24</title>
<g id="a_node25"><a xlink:href="PositionRaw_8h.html" target="_top" xlink:title="iDynTree/Core/PositionRaw.h">
<polygon fill="none" stroke="#000000" points="485.5816,-168.5 485.5816,-187.5 641.5816,-187.5 641.5816,-168.5 485.5816,-168.5"/>
<text text-anchor="middle" x="563.5816" y="-175.5" font-family="FreeSans.ttf" font-size="10.00" fill="#000000">iDynTree/Core/PositionRaw.h</text>
</a>
</g>
</g>
<!-- Node23&#45;&gt;Node24 -->
<g id="edge29" class="edge">
<title>Node23&#45;&gt;Node24</title>
<path fill="none" stroke="#191970" d="M519.6741,-280.4509C527.609,-261.936 545.2134,-220.8591 555.5593,-196.7187"/>
<polygon fill="#191970" stroke="#191970" points="558.7773,-198.0951 559.4995,-187.5249 552.3432,-195.3376 558.7773,-198.0951"/>
</g>
<!-- Node23&#45;&gt;Node28 -->
<g id="edge38" class="edge">
<title>Node23&#45;&gt;Node28</title>
<path fill="none" stroke="#191970" d="M498.8597,-280.2455C483.9927,-271.5731 462.035,-258.7645 444.9958,-248.825"/>
<polygon fill="#191970" stroke="#191970" points="446.5133,-245.6582 436.1119,-243.6427 442.9861,-251.7047 446.5133,-245.6582"/>
</g>
<!-- Node24&#45;&gt;Node4 -->
<g id="edge37" class="edge">
<title>Node24&#45;&gt;Node4</title>
<path fill="none" stroke="#191970" d="M575.0772,-168.4572C584.8667,-159.8095 598.7161,-146.2679 607.5816,-132 616.6195,-117.4546 622.9645,-99.003 626.8509,-85.3097"/>
<polygon fill="#191970" stroke="#191970" points="630.2685,-86.0765 629.4452,-75.5137 623.5017,-84.2844 630.2685,-86.0765"/>
</g>
<!-- Node25 -->
<g id="node26" class="node">
<title>Node25</title>
<g id="a_node26"><a xlink:href="VectorFixSize_8h.html" target="_top" xlink:title="iDynTree/Core/VectorFixSize.h">
<polygon fill="none" stroke="#000000" points="220.0816,-112.5 220.0816,-131.5 381.0816,-131.5 381.0816,-112.5 220.0816,-112.5"/>
<text text-anchor="middle" x="300.5816" y="-119.5" font-family="FreeSans.ttf" font-size="10.00" fill="#000000">iDynTree/Core/VectorFixSize.h</text>
</a>
</g>
</g>
<!-- Node24&#45;&gt;Node25 -->
<g id="edge30" class="edge">
<title>Node24&#45;&gt;Node25</title>
<path fill="none" stroke="#191970" d="M518.6691,-168.4369C473.4696,-158.8127 403.7009,-143.957 355.2969,-133.6504"/>
<polygon fill="#191970" stroke="#191970" points="355.8185,-130.1831 345.3088,-131.5237 354.3606,-137.0296 355.8185,-130.1831"/>
</g>
<!-- Node25&#45;&gt;Node4 -->
<g id="edge33" class="edge">
<title>Node25&#45;&gt;Node4</title>
<path fill="none" stroke="#191970" d="M357.1064,-112.4369C426.839,-100.6392 543.036,-80.9805 599.2114,-71.4765"/>
<polygon fill="#191970" stroke="#191970" points="600.0203,-74.8895 609.2963,-69.7703 598.8525,-67.9876 600.0203,-74.8895"/>
</g>
<!-- Node25&#45;&gt;Node6 -->
<g id="edge31" class="edge">
<title>Node25&#45;&gt;Node6</title>
<path fill="none" stroke="#191970" d="M381.1072,-112.7213C474.8768,-101.9166 628.216,-84.2479 717.0192,-74.0154"/>
<polygon fill="#191970" stroke="#191970" points="717.4582,-77.4881 726.9918,-72.8663 716.6568,-70.5341 717.4582,-77.4881"/>
</g>
<!-- Node25&#45;&gt;Node12 -->
<g id="edge32" class="edge">
<title>Node25&#45;&gt;Node12</title>
<path fill="none" stroke="#191970" d="M331.3528,-112.3733C361.2466,-103.021 406.7909,-88.7725 439.5033,-78.5385"/>
<polygon fill="#191970" stroke="#191970" points="440.7131,-81.8273 449.2119,-75.5011 438.623,-75.1466 440.7131,-81.8273"/>
</g>
<!-- Node25&#45;&gt;Node13 -->
<g id="edge35" class="edge">
<title>Node25&#45;&gt;Node13</title>
<path fill="none" stroke="#191970" d="M299.9158,-112.0781C298.5368,-98.2481 294.3314,-72.9678 281.5816,-56 275.2596,-47.5865 253.8864,-34.5514 235.8885,-24.5023"/>
<polygon fill="#191970" stroke="#191970" points="237.3325,-21.3024 226.882,-19.5598 233.9649,-27.4391 237.3325,-21.3024"/>
</g>
<!-- Node26 -->
<g id="node27" class="node">
<title>Node26</title>
<polygon fill="none" stroke="#bfbfbf" points="148.5816,-56.5 148.5816,-75.5 204.5816,-75.5 204.5816,-56.5 148.5816,-56.5"/>
<text text-anchor="middle" x="176.5816" y="-63.5" font-family="FreeSans.ttf" font-size="10.00" fill="#000000">sstream</text>
</g>
<!-- Node25&#45;&gt;Node26 -->
<g id="edge34" class="edge">
<title>Node25&#45;&gt;Node26</title>
<path fill="none" stroke="#191970" d="M279.2652,-112.3733C259.36,-103.3838 229.438,-89.8706 207.0216,-79.7471"/>
<polygon fill="#191970" stroke="#191970" points="208.1741,-76.4272 197.6198,-75.5011 205.2929,-82.8068 208.1741,-76.4272"/>
</g>
<!-- Node27 -->
<g id="node28" class="node">
<title>Node27</title>
<polygon fill="none" stroke="#bfbfbf" points="222.5816,-56.5 222.5816,-75.5 272.5816,-75.5 272.5816,-56.5 222.5816,-56.5"/>
<text text-anchor="middle" x="247.5816" y="-63.5" font-family="FreeSans.ttf" font-size="10.00" fill="#000000">cstring</text>
</g>
<!-- Node25&#45;&gt;Node27 -->
<g id="edge36" class="edge">
<title>Node25&#45;&gt;Node27</title>
<path fill="none" stroke="#191970" d="M291.3497,-112.2455C283.7499,-104.2155 272.7939,-92.6394 263.7448,-83.0781"/>
<polygon fill="#191970" stroke="#191970" points="266.1236,-80.4998 256.7077,-75.6427 261.0395,-85.3115 266.1236,-80.4998"/>
</g>
<!-- Node28&#45;&gt;Node4 -->
<g id="edge39" class="edge">
<title>Node28&#45;&gt;Node4</title>
<path fill="none" stroke="#191970" d="M425.7442,-224.1028C435.0951,-209.8357 454.1705,-183.5054 476.5816,-168 514.7404,-141.5994 536.4228,-158.4006 574.5816,-132 593.1408,-119.1596 609.4124,-98.8956 619.7681,-84.2066"/>
<polygon fill="#191970" stroke="#191970" points="622.6896,-86.1345 625.419,-75.8972 616.9013,-82.198 622.6896,-86.1345"/>
</g>
<!-- Node28&#45;&gt;Node25 -->
<g id="edge51" class="edge">
<title>Node28&#45;&gt;Node25</title>
<path fill="none" stroke="#191970" d="M419.0761,-224.3057C417.8589,-210.2913 413.7114,-184.2727 399.5816,-168 386.3102,-152.7159 366.8806,-142.1782 348.7413,-135.0869"/>
<polygon fill="#191970" stroke="#191970" points="349.7234,-131.7198 339.1294,-131.5899 347.3301,-138.298 349.7234,-131.7198"/>
</g>
<!-- Node29 -->
<g id="node30" class="node">
<title>Node29</title>
<g id="a_node30"><a xlink:href="GeomVector3_8h.html" target="_top" xlink:title="iDynTree/Core/GeomVector3.h">
<polygon fill="none" stroke="#000000" points="228.0816,-168.5 228.0816,-187.5 391.0816,-187.5 391.0816,-168.5 228.0816,-168.5"/>
<text text-anchor="middle" x="309.5816" y="-175.5" font-family="FreeSans.ttf" font-size="10.00" fill="#000000">iDynTree/Core/GeomVector3.h</text>
</a>
</g>
</g>
<!-- Node28&#45;&gt;Node29 -->
<g id="edge40" class="edge">
<title>Node28&#45;&gt;Node29</title>
<path fill="none" stroke="#191970" d="M400.4211,-224.2455C383.0705,-215.4125 357.2915,-202.2887 337.6233,-192.2758"/>
<polygon fill="#191970" stroke="#191970" points="339.0221,-189.0605 328.5226,-187.6427 335.8463,-195.2986 339.0221,-189.0605"/>
</g>
<!-- Node30 -->
<g id="node31" class="node">
<title>Node30</title>
<g id="a_node31"><a xlink:href="RotationRaw_8h.html" target="_top" xlink:title="iDynTree/Core/RotationRaw.h">
<polygon fill="none" stroke="#000000" points="13.5816,-168.5 13.5816,-187.5 171.5816,-187.5 171.5816,-168.5 13.5816,-168.5"/>
<text text-anchor="middle" x="92.5816" y="-175.5" font-family="FreeSans.ttf" font-size="10.00" fill="#000000">iDynTree/Core/RotationRaw.h</text>
</a>
</g>
</g>
<!-- Node28&#45;&gt;Node30 -->
<g id="edge42" class="edge">
<title>Node28&#45;&gt;Node30</title>
<path fill="none" stroke="#191970" d="M363.7398,-224.4369C306.8358,-214.6918 218.612,-199.5832 158.358,-189.2645"/>
<polygon fill="#191970" stroke="#191970" points="158.6404,-185.7619 148.193,-187.5237 157.4587,-192.6615 158.6404,-185.7619"/>
</g>
<!-- Node29&#45;&gt;Node25 -->
<g id="edge41" class="edge">
<title>Node29&#45;&gt;Node25</title>
<path fill="none" stroke="#191970" d="M308.0139,-168.2455C306.8395,-160.9382 305.1932,-150.6944 303.7484,-141.7046"/>
<polygon fill="#191970" stroke="#191970" points="307.1738,-140.9606 302.1313,-131.6427 300.2625,-142.0714 307.1738,-140.9606"/>
</g>
<!-- Node30&#45;&gt;Node4 -->
<g id="edge50" class="edge">
<title>Node30&#45;&gt;Node4</title>
<path fill="none" stroke="#191970" d="M109.006,-168.328C138.8383,-150.833 199.845,-115.4161 210.5816,-112 354.5425,-66.1962 398.4733,-93.0358 548.5816,-76 565.3374,-74.0984 583.9806,-71.863 599.3465,-69.9886"/>
<polygon fill="#191970" stroke="#191970" points="599.8973,-73.4474 609.3974,-68.7571 599.0459,-66.4993 599.8973,-73.4474"/>
</g>
<!-- Node30&#45;&gt;Node31 -->
<g id="edge43" class="edge">
<title>Node30&#45;&gt;Node31</title>
<path fill="none" stroke="#191970" d="M90.8397,-168.2455C89.5349,-160.9382 87.7056,-150.6944 86.1003,-141.7046"/>
<polygon fill="#191970" stroke="#191970" points="89.507,-140.8717 84.3035,-131.6427 82.616,-142.1022 89.507,-140.8717"/>
</g>
<!-- Node31&#45;&gt;Node4 -->
<g id="edge47" class="edge">
<title>Node31&#45;&gt;Node4</title>
<path fill="none" stroke="#191970" d="M163.1703,-113.4711C168.0462,-112.9693 172.8791,-112.4756 177.5816,-112 342.404,-95.3286 383.8891,-93.9093 548.5816,-76 565.3461,-74.177 583.9901,-71.9489 599.3543,-70.0589"/>
<polygon fill="#191970" stroke="#191970" points="599.91,-73.5169 609.4037,-68.8136 599.0491,-66.57 599.91,-73.5169"/>
</g>
<!-- Node31&#45;&gt;Node6 -->
<g id="edge44" class="edge">
<title>Node31&#45;&gt;Node6</title>
<path fill="none" stroke="#191970" d="M163.2769,-115.634C275.3219,-106.7871 484.3618,-90.2536 662.5816,-76 680.1285,-74.5966 699.0714,-73.0732 716.7427,-71.6485"/>
<polygon fill="#191970" stroke="#191970" points="717.2941,-75.1155 726.9803,-70.8227 716.7312,-68.1381 717.2941,-75.1155"/>
</g>
<!-- Node31&#45;&gt;Node13 -->
<g id="edge45" class="edge">
<title>Node31&#45;&gt;Node13</title>
<path fill="none" stroke="#191970" d="M89.6051,-112.3196C99.713,-98.7766 119.3783,-73.8351 139.5816,-56 152.8236,-44.3102 169.221,-33.2598 182.708,-24.9209"/>
<polygon fill="#191970" stroke="#191970" points="184.7558,-27.7729 191.5056,-19.6064 181.1364,-21.7812 184.7558,-27.7729"/>
</g>
<!-- Node31&#45;&gt;Node26 -->
<g id="edge49" class="edge">
<title>Node31&#45;&gt;Node26</title>
<path fill="none" stroke="#191970" d="M98.9552,-112.2455C113.5124,-103.5731 135.0126,-90.7645 151.6968,-80.825"/>
<polygon fill="#191970" stroke="#191970" points="153.596,-83.7676 160.3957,-75.6427 150.0133,-77.7539 153.596,-83.7676"/>
</g>
<!-- Node31&#45;&gt;Node27 -->
<g id="edge46" class="edge">
<title>Node31&#45;&gt;Node27</title>
<path fill="none" stroke="#191970" d="M110.9461,-112.3733C139.1749,-102.7926 182.5434,-88.0736 212.8259,-77.7959"/>
<polygon fill="#191970" stroke="#191970" points="214.2086,-81.0228 222.5532,-74.4945 211.9588,-74.3941 214.2086,-81.0228"/>
</g>
<!-- Node32 -->
<g id="node33" class="node">
<title>Node32</title>
<polygon fill="none" stroke="#bfbfbf" points="32.5816,-56.5 32.5816,-75.5 92.5816,-75.5 92.5816,-56.5 32.5816,-56.5"/>
<text text-anchor="middle" x="62.5816" y="-63.5" font-family="FreeSans.ttf" font-size="10.00" fill="#000000">iostream</text>
</g>
<!-- Node31&#45;&gt;Node32 -->
<g id="edge48" class="edge">
<title>Node31&#45;&gt;Node32</title>
<path fill="none" stroke="#191970" d="M79.0979,-112.2455C76.4308,-104.7776 72.6683,-94.2427 69.4079,-85.1137"/>
<polygon fill="#191970" stroke="#191970" points="72.6849,-83.8829 66.0254,-75.6427 66.0927,-86.2373 72.6849,-83.8829"/>
</g>
</g>
</svg>
