<?xml version="1.0" encoding="UTF-8" standalone="no"?>
<!DOCTYPE svg PUBLIC "-//W3C//DTD SVG 1.1//EN"
 "http://www.w3.org/Graphics/SVG/1.1/DTD/svg11.dtd">
<!-- Generated by graphviz version 2.40.1 (20161225.0304)
 -->
<!-- Title: LinearConstraint.cpp Pages: 1 -->
<svg width="1600pt" height="543pt"
 viewBox="0.00 0.00 1600.00 543.00" xmlns="http://www.w3.org/2000/svg" xmlns:xlink="http://www.w3.org/1999/xlink">
<g id="graph0" class="graph" transform="scale(1 1) rotate(0) translate(4 539)">
<title>LinearConstraint.cpp</title>
<!-- Node0 -->
<g id="node1" class="node">
<title>Node0</title>
<polygon fill="#bfbfbf" stroke="#000000" points="679.5,-515.5 679.5,-534.5 796.5,-534.5 796.5,-515.5 679.5,-515.5"/>
<text text-anchor="middle" x="738" y="-522.5" font-family="FreeSans.ttf" font-size="10.00" fill="#000000">LinearConstraint.cpp</text>
</g>
<!-- Node1 -->
<g id="node2" class="node">
<title>Node1</title>
<g id="a_node2"><a xlink:href="LinearConstraint_8h.html" target="_top" xlink:title="iDynTree/LinearConstraint.h">
<polygon fill="none" stroke="#000000" points="1194,-459.5 1194,-478.5 1346,-478.5 1346,-459.5 1194,-459.5"/>
<text text-anchor="middle" x="1270" y="-466.5" font-family="FreeSans.ttf" font-size="10.00" fill="#000000">iDynTree/LinearConstraint.h</text>
</a>
</g>
</g>
<!-- Node0&#45;&gt;Node1 -->
<g id="edge1" class="edge">
<title>Node0&#45;&gt;Node1</title>
<path fill="none" stroke="#191970" d="M796.7103,-518.82C890.5229,-508.945 1074.7125,-489.5566 1183.588,-478.096"/>
<polygon fill="#191970" stroke="#191970" points="1183.9809,-481.5741 1193.5596,-477.0464 1183.2481,-474.6125 1183.9809,-481.5741"/>
</g>
<!-- Node7 -->
<g id="node8" class="node">
<title>Node7</title>
<polygon fill="none" stroke="#bfbfbf" points="276,-.5 276,-19.5 328,-19.5 328,-.5 276,-.5"/>
<text text-anchor="middle" x="302" y="-7.5" font-family="FreeSans.ttf" font-size="10.00" fill="#000000">cassert</text>
</g>
<!-- Node0&#45;&gt;Node7 -->
<g id="edge83" class="edge">
<title>Node0&#45;&gt;Node7</title>
<path fill="none" stroke="#191970" d="M679.4735,-521.8378C504.9208,-511.6336 0,-476.1805 0,-407.5 0,-407.5 0,-407.5 0,-122 0,-65.8738 185.6877,-28.9038 265.8565,-15.5578"/>
<polygon fill="#191970" stroke="#191970" points="266.6849,-18.969 275.9903,-13.9035 265.557,-12.0604 266.6849,-18.969"/>
</g>
<!-- Node33 -->
<g id="node34" class="node">
<title>Node33</title>
<g id="a_node34"><a xlink:href="EigenHelpers_8h.html" target="_top" xlink:title="iDynTree/Core/EigenHelpers.h">
<polygon fill="none" stroke="#000000" points="657.5,-459.5 657.5,-478.5 818.5,-478.5 818.5,-459.5 657.5,-459.5"/>
<text text-anchor="middle" x="738" y="-466.5" font-family="FreeSans.ttf" font-size="10.00" fill="#000000">iDynTree/Core/EigenHelpers.h</text>
</a>
</g>
</g>
<!-- Node0&#45;&gt;Node33 -->
<g id="edge61" class="edge">
<title>Node0&#45;&gt;Node33</title>
<path fill="none" stroke="#191970" d="M738,-515.2455C738,-507.9382 738,-497.6944 738,-488.7046"/>
<polygon fill="#191970" stroke="#191970" points="741.5001,-488.6426 738,-478.6427 734.5001,-488.6427 741.5001,-488.6426"/>
</g>
<!-- Node2 -->
<g id="node3" class="node">
<title>Node2</title>
<g id="a_node3"><a xlink:href="Constraint_8h.html" target="_top" xlink:title="iDynTree/Constraint.h">
<polygon fill="none" stroke="#000000" points="1314,-168.5 1314,-187.5 1436,-187.5 1436,-168.5 1314,-168.5"/>
<text text-anchor="middle" x="1375" y="-175.5" font-family="FreeSans.ttf" font-size="10.00" fill="#000000">iDynTree/Constraint.h</text>
</a>
</g>
</g>
<!-- Node1&#45;&gt;Node2 -->
<g id="edge2" class="edge">
<title>Node1&#45;&gt;Node2</title>
<path fill="none" stroke="#191970" d="M1291.9161,-459.4213C1307.5033,-451.6193 1327.9175,-439.2426 1341,-423 1363.9388,-394.5203 1370,-382.5689 1370,-346 1370,-346 1370,-346 1370,-290 1370,-257.6794 1372.1037,-220.1646 1373.582,-197.7929"/>
<polygon fill="#191970" stroke="#191970" points="1377.0898,-197.7984 1374.2836,-187.5819 1370.1063,-197.3185 1377.0898,-197.7984"/>
</g>
<!-- Node4 -->
<g id="node5" class="node">
<title>Node4</title>
<polygon fill="none" stroke="#bfbfbf" points="985,-56.5 985,-75.5 1029,-75.5 1029,-56.5 985,-56.5"/>
<text text-anchor="middle" x="1007" y="-63.5" font-family="FreeSans.ttf" font-size="10.00" fill="#000000">string</text>
</g>
<!-- Node1&#45;&gt;Node4 -->
<g id="edge59" class="edge">
<title>Node1&#45;&gt;Node4</title>
<path fill="none" stroke="#191970" d="M1281.4453,-459.3916C1290.5993,-450.901 1302.7419,-437.6212 1308,-423 1312.6625,-410.0351 1308.2459,-405.7756 1308,-392 1305.7333,-265.0234 1343.2109,-199.3232 1251,-112 1220.9449,-83.538 1098.6664,-71.8918 1039.4477,-67.8492"/>
<polygon fill="#191970" stroke="#191970" points="1039.3665,-64.3366 1029.1605,-67.1805 1038.9124,-71.3219 1039.3665,-64.3366"/>
</g>
<!-- Node15 -->
<g id="node16" class="node">
<title>Node15</title>
<g id="a_node16"><a xlink:href="SparsityStructure_8h.html" target="_top" xlink:title="iDynTree/SparsityStructure.h">
<polygon fill="none" stroke="#000000" points="1390.5,-112.5 1390.5,-131.5 1545.5,-131.5 1545.5,-112.5 1390.5,-112.5"/>
<text text-anchor="middle" x="1468" y="-119.5" font-family="FreeSans.ttf" font-size="10.00" fill="#000000">iDynTree/SparsityStructure.h</text>
</a>
</g>
</g>
<!-- Node1&#45;&gt;Node15 -->
<g id="edge58" class="edge">
<title>Node1&#45;&gt;Node15</title>
<path fill="none" stroke="#191970" d="M1323.0404,-459.4388C1381.0867,-445.5612 1466,-413.6919 1466,-346 1466,-346 1466,-346 1466,-234 1466,-201.7064 1466.8415,-164.1836 1467.4328,-141.8029"/>
<polygon fill="#191970" stroke="#191970" points="1470.9374,-141.6797 1467.7134,-131.5873 1463.9401,-141.4874 1470.9374,-141.6797"/>
</g>
<!-- Node19 -->
<g id="node20" class="node">
<title>Node19</title>
<g id="a_node20"><a xlink:href="MatrixDynSize_8h.html" target="_top" xlink:title="iDynTree/Core/MatrixDynSize.h">
<polygon fill="none" stroke="#000000" points="1129.5,-336.5 1129.5,-355.5 1296.5,-355.5 1296.5,-336.5 1129.5,-336.5"/>
<text text-anchor="middle" x="1213" y="-343.5" font-family="FreeSans.ttf" font-size="10.00" fill="#000000">iDynTree/Core/MatrixDynSize.h</text>
</a>
</g>
</g>
<!-- Node1&#45;&gt;Node19 -->
<g id="edge24" class="edge">
<title>Node1&#45;&gt;Node19</title>
<path fill="none" stroke="#191970" d="M1259.7851,-459.3568C1251.1466,-450.6446 1239.0771,-437.065 1232,-423 1222.8864,-404.8877 1217.9707,-382.1346 1215.439,-366.0728"/>
<polygon fill="#191970" stroke="#191970" points="1218.8428,-365.1406 1213.991,-355.7219 1211.9103,-366.1105 1218.8428,-365.1406"/>
</g>
<!-- Node20 -->
<g id="node21" class="node">
<title>Node20</title>
<g id="a_node21"><a xlink:href="TimeVaryingObject_8h.html" target="_top" xlink:title="iDynTree/TimeVaryingObject.h">
<polygon fill="none" stroke="#000000" points="983,-398 983,-417 1147,-417 1147,-398 983,-398"/>
<text text-anchor="middle" x="1065" y="-405" font-family="FreeSans.ttf" font-size="10.00" fill="#000000">iDynTree/TimeVaryingObject.h</text>
</a>
</g>
</g>
<!-- Node1&#45;&gt;Node20 -->
<g id="edge26" class="edge">
<title>Node1&#45;&gt;Node20</title>
<path fill="none" stroke="#191970" d="M1237.9688,-459.3906C1202.6154,-448.7846 1145.5843,-431.6753 1106.7522,-420.0257"/>
<polygon fill="#191970" stroke="#191970" points="1107.3903,-416.5631 1096.8063,-417.0419 1105.3788,-423.2678 1107.3903,-416.5631"/>
</g>
<!-- Node32 -->
<g id="node33" class="node">
<title>Node32</title>
<polygon fill="none" stroke="#bfbfbf" points="1241,-398 1241,-417 1299,-417 1299,-398 1241,-398"/>
<text text-anchor="middle" x="1270" y="-405" font-family="FreeSans.ttf" font-size="10.00" fill="#000000">memory</text>
</g>
<!-- Node1&#45;&gt;Node32 -->
<g id="edge60" class="edge">
<title>Node1&#45;&gt;Node32</title>
<path fill="none" stroke="#191970" d="M1270,-459.3906C1270,-450.8657 1270,-438.1392 1270,-427.4235"/>
<polygon fill="#191970" stroke="#191970" points="1273.5001,-427.2448 1270,-417.2449 1266.5001,-427.2449 1273.5001,-427.2448"/>
</g>
<!-- Node3 -->
<g id="node4" class="node">
<title>Node3</title>
<polygon fill="none" stroke="#bfbfbf" points="1095.5,-.5 1095.5,-19.5 1148.5,-19.5 1148.5,-.5 1095.5,-.5"/>
<text text-anchor="middle" x="1122" y="-7.5" font-family="FreeSans.ttf" font-size="10.00" fill="#000000">cstddef</text>
</g>
<!-- Node2&#45;&gt;Node3 -->
<g id="edge3" class="edge">
<title>Node2&#45;&gt;Node3</title>
<path fill="none" stroke="#191970" d="M1370.1276,-168.346C1362.6776,-154.3818 1347.2699,-128.4251 1328,-112 1276.2952,-67.9283 1202.2599,-37.3652 1158.4585,-21.8337"/>
<polygon fill="#191970" stroke="#191970" points="1159.3928,-18.4532 1148.798,-18.4786 1157.0962,-25.0657 1159.3928,-18.4532"/>
</g>
<!-- Node2&#45;&gt;Node4 -->
<g id="edge4" class="edge">
<title>Node2&#45;&gt;Node4</title>
<path fill="none" stroke="#191970" d="M1367.3955,-168.4914C1354.9969,-153.7207 1328.8921,-125.5556 1300,-112 1254.187,-90.5054 1105.9948,-74.9 1039.6454,-68.8119"/>
<polygon fill="#191970" stroke="#191970" points="1039.631,-65.2965 1029.3571,-67.8842 1039.0023,-72.2682 1039.631,-65.2965"/>
</g>
<!-- Node5 -->
<g id="node6" class="node">
<title>Node5</title>
<g id="a_node6"><a xlink:href="VectorDynSize_8h.html" target="_top" xlink:title="iDynTree/Core/VectorDynSize.h">
<polygon fill="none" stroke="#000000" points="1053.5,-112.5 1053.5,-131.5 1220.5,-131.5 1220.5,-112.5 1053.5,-112.5"/>
<text text-anchor="middle" x="1137" y="-119.5" font-family="FreeSans.ttf" font-size="10.00" fill="#000000">iDynTree/Core/VectorDynSize.h</text>
</a>
</g>
</g>
<!-- Node2&#45;&gt;Node5 -->
<g id="edge5" class="edge">
<title>Node2&#45;&gt;Node5</title>
<path fill="none" stroke="#191970" d="M1334.3568,-168.4369C1293.7105,-158.8731 1231.1087,-144.1432 1187.3413,-133.845"/>
<polygon fill="#191970" stroke="#191970" points="1188.0114,-130.4072 1177.4756,-131.5237 1186.4081,-137.2211 1188.0114,-130.4072"/>
</g>
<!-- Node2&#45;&gt;Node15 -->
<g id="edge17" class="edge">
<title>Node2&#45;&gt;Node15</title>
<path fill="none" stroke="#191970" d="M1391.1994,-168.2455C1405.6018,-159.5731 1426.8732,-146.7645 1443.3799,-136.825"/>
<polygon fill="#191970" stroke="#191970" points="1445.225,-139.7996 1451.9863,-131.6427 1441.614,-133.8028 1445.225,-139.7996"/>
</g>
<!-- Node5&#45;&gt;Node4 -->
<g id="edge16" class="edge">
<title>Node5&#45;&gt;Node4</title>
<path fill="none" stroke="#191970" d="M1114.6522,-112.3733C1093.5967,-103.3032 1061.8505,-89.6279 1038.2825,-79.4755"/>
<polygon fill="#191970" stroke="#191970" points="1039.625,-76.243 1029.0562,-75.5011 1036.8556,-82.6719 1039.625,-76.243"/>
</g>
<!-- Node6 -->
<g id="node7" class="node">
<title>Node6</title>
<g id="a_node7"><a xlink:href="Span_8h.html" target="_top" xlink:title="iDynTree/Core/Span.h">
<polygon fill="none" stroke="#000000" points="539.5,-56.5 539.5,-75.5 660.5,-75.5 660.5,-56.5 539.5,-56.5"/>
<text text-anchor="middle" x="600" y="-63.5" font-family="FreeSans.ttf" font-size="10.00" fill="#000000">iDynTree/Core/Span.h</text>
</a>
</g>
</g>
<!-- Node5&#45;&gt;Node6 -->
<g id="edge6" class="edge">
<title>Node5&#45;&gt;Node6</title>
<path fill="none" stroke="#191970" d="M1053.3635,-114.8718C962.0149,-106.8342 811.137,-92.8224 670.7721,-76.0473"/>
<polygon fill="#191970" stroke="#191970" points="671.0312,-72.5533 660.685,-74.8348 670.1957,-79.5033 671.0312,-72.5533"/>
</g>
<!-- Node6&#45;&gt;Node3 -->
<g id="edge10" class="edge">
<title>Node6&#45;&gt;Node3</title>
<path fill="none" stroke="#191970" d="M660.6864,-57.1773C663.8347,-56.7675 666.9536,-56.3725 670,-56 824.0414,-37.1665 1008.2841,-20.1115 1085.3214,-13.2254"/>
<polygon fill="#191970" stroke="#191970" points="1085.8157,-16.6953 1095.4658,-12.3221 1085.1948,-9.7229 1085.8157,-16.6953"/>
</g>
<!-- Node6&#45;&gt;Node7 -->
<g id="edge7" class="edge">
<title>Node6&#45;&gt;Node7</title>
<path fill="none" stroke="#191970" d="M539.3141,-57.2408C488.0746,-49.4238 412.6074,-36.9267 338.2963,-20.1233"/>
<polygon fill="#191970" stroke="#191970" points="338.8253,-16.6539 328.2963,-17.834 337.2631,-23.4774 338.8253,-16.6539"/>
</g>
<!-- Node8 -->
<g id="node9" class="node">
<title>Node8</title>
<polygon fill="none" stroke="#bfbfbf" points="497,-.5 497,-19.5 561,-19.5 561,-.5 497,-.5"/>
<text text-anchor="middle" x="529" y="-7.5" font-family="FreeSans.ttf" font-size="10.00" fill="#000000">algorithm</text>
</g>
<!-- Node6&#45;&gt;Node8 -->
<g id="edge8" class="edge">
<title>Node6&#45;&gt;Node8</title>
<path fill="none" stroke="#191970" d="M587.6327,-56.2455C577.0446,-47.8943 561.5936,-35.7076 549.2107,-25.9408"/>
<polygon fill="#191970" stroke="#191970" points="551.2447,-23.0875 541.2255,-19.6427 546.9097,-28.5837 551.2447,-23.0875"/>
</g>
<!-- Node9 -->
<g id="node10" class="node">
<title>Node9</title>
<polygon fill="none" stroke="#bfbfbf" points="579,-.5 579,-19.5 621,-19.5 621,-.5 579,-.5"/>
<text text-anchor="middle" x="600" y="-7.5" font-family="FreeSans.ttf" font-size="10.00" fill="#000000">array</text>
</g>
<!-- Node6&#45;&gt;Node9 -->
<g id="edge9" class="edge">
<title>Node6&#45;&gt;Node9</title>
<path fill="none" stroke="#191970" d="M600,-56.2455C600,-48.9382 600,-38.6944 600,-29.7046"/>
<polygon fill="#191970" stroke="#191970" points="603.5001,-29.6426 600,-19.6427 596.5001,-29.6427 603.5001,-29.6426"/>
</g>
<!-- Node10 -->
<g id="node11" class="node">
<title>Node10</title>
<polygon fill="none" stroke="#bfbfbf" points="639.5,-.5 639.5,-19.5 692.5,-19.5 692.5,-.5 639.5,-.5"/>
<text text-anchor="middle" x="666" y="-7.5" font-family="FreeSans.ttf" font-size="10.00" fill="#000000">iterator</text>
</g>
<!-- Node6&#45;&gt;Node10 -->
<g id="edge11" class="edge">
<title>Node6&#45;&gt;Node10</title>
<path fill="none" stroke="#191970" d="M611.4963,-56.2455C621.2442,-47.9746 635.4259,-35.9416 646.8798,-26.2232"/>
<polygon fill="#191970" stroke="#191970" points="649.2747,-28.7813 654.6354,-19.6427 644.7459,-23.4437 649.2747,-28.7813"/>
</g>
<!-- Node11 -->
<g id="node12" class="node">
<title>Node11</title>
<polygon fill="none" stroke="#bfbfbf" points="711,-.5 711,-19.5 755,-19.5 755,-.5 711,-.5"/>
<text text-anchor="middle" x="733" y="-7.5" font-family="FreeSans.ttf" font-size="10.00" fill="#000000">limits</text>
</g>
<!-- Node6&#45;&gt;Node11 -->
<g id="edge12" class="edge">
<title>Node6&#45;&gt;Node11</title>
<path fill="none" stroke="#191970" d="M622.8635,-56.3733C644.5355,-47.2482 677.2779,-33.462 701.4331,-23.2913"/>
<polygon fill="#191970" stroke="#191970" points="703.0186,-26.4214 710.8768,-19.315 700.3022,-19.9699 703.0186,-26.4214"/>
</g>
<!-- Node12 -->
<g id="node13" class="node">
<title>Node12</title>
<polygon fill="none" stroke="#bfbfbf" points="773.5,-.5 773.5,-19.5 838.5,-19.5 838.5,-.5 773.5,-.5"/>
<text text-anchor="middle" x="806" y="-7.5" font-family="FreeSans.ttf" font-size="10.00" fill="#000000">stdexcept</text>
</g>
<!-- Node6&#45;&gt;Node12 -->
<g id="edge13" class="edge">
<title>Node6&#45;&gt;Node12</title>
<path fill="none" stroke="#191970" d="M635.4127,-56.3733C670.9997,-46.6991 725.8589,-31.7859 763.7097,-21.4964"/>
<polygon fill="#191970" stroke="#191970" points="764.6919,-24.8565 773.4235,-18.8557 762.8556,-18.1016 764.6919,-24.8565"/>
</g>
<!-- Node13 -->
<g id="node14" class="node">
<title>Node13</title>
<polygon fill="none" stroke="#bfbfbf" points="346.5,-.5 346.5,-19.5 415.5,-19.5 415.5,-.5 346.5,-.5"/>
<text text-anchor="middle" x="381" y="-7.5" font-family="FreeSans.ttf" font-size="10.00" fill="#000000">type_traits</text>
</g>
<!-- Node6&#45;&gt;Node13 -->
<g id="edge14" class="edge">
<title>Node6&#45;&gt;Node13</title>
<path fill="none" stroke="#191970" d="M562.3526,-56.3733C524.3588,-46.6579 465.7018,-31.6589 425.4464,-21.3653"/>
<polygon fill="#191970" stroke="#191970" points="426.1876,-17.9423 415.6323,-18.8557 424.4534,-24.7241 426.1876,-17.9423"/>
</g>
<!-- Node14 -->
<g id="node15" class="node">
<title>Node14</title>
<polygon fill="none" stroke="#bfbfbf" points="433.5,-.5 433.5,-19.5 478.5,-19.5 478.5,-.5 433.5,-.5"/>
<text text-anchor="middle" x="456" y="-7.5" font-family="FreeSans.ttf" font-size="10.00" fill="#000000">utility</text>
</g>
<!-- Node6&#45;&gt;Node14 -->
<g id="edge15" class="edge">
<title>Node6&#45;&gt;Node14</title>
<path fill="none" stroke="#191970" d="M575.2455,-56.3733C551.1447,-47.0007 514.399,-32.7107 488.0707,-22.472"/>
<polygon fill="#191970" stroke="#191970" points="489.127,-19.1274 478.5383,-18.7649 486.5898,-25.6514 489.127,-19.1274"/>
</g>
<!-- Node15&#45;&gt;Node3 -->
<g id="edge21" class="edge">
<title>Node15&#45;&gt;Node3</title>
<path fill="none" stroke="#191970" d="M1457.9038,-112.3837C1441.9025,-97.7291 1409.1228,-70.0327 1376,-56 1302.9971,-25.0719 1209.588,-14.9222 1158.8427,-11.6028"/>
<polygon fill="#191970" stroke="#191970" points="1158.8762,-8.0986 1148.6844,-10.9931 1158.4567,-15.086 1158.8762,-8.0986"/>
</g>
<!-- Node15&#45;&gt;Node4 -->
<g id="edge23" class="edge">
<title>Node15&#45;&gt;Node4</title>
<path fill="none" stroke="#191970" d="M1390.3189,-112.5637C1287.8075,-100.1111 1111.9012,-78.7429 1039.5431,-69.9532"/>
<polygon fill="#191970" stroke="#191970" points="1039.5914,-66.4334 1029.2423,-68.7019 1038.7472,-73.3823 1039.5914,-66.4334"/>
</g>
<!-- Node16 -->
<g id="node17" class="node">
<title>Node16</title>
<g id="a_node17"><a xlink:href="Utils_8h.html" target="_top" xlink:title="iDynTree/Core/Utils.h">
<polygon fill="none" stroke="#000000" points="678.5,-56.5 678.5,-75.5 797.5,-75.5 797.5,-56.5 678.5,-56.5"/>
<text text-anchor="middle" x="738" y="-63.5" font-family="FreeSans.ttf" font-size="10.00" fill="#000000">iDynTree/Core/Utils.h</text>
</a>
</g>
</g>
<!-- Node15&#45;&gt;Node16 -->
<g id="edge18" class="edge">
<title>Node15&#45;&gt;Node16</title>
<path fill="none" stroke="#191970" d="M1390.2231,-116.0336C1247.361,-105.0743 945.2708,-81.9002 808.234,-71.3878"/>
<polygon fill="#191970" stroke="#191970" points="808.1039,-67.8676 797.8655,-70.5924 807.5685,-74.8471 808.1039,-67.8676"/>
</g>
<!-- Node17 -->
<g id="node18" class="node">
<title>Node17</title>
<polygon fill="none" stroke="#bfbfbf" points="1440.5,-56.5 1440.5,-75.5 1487.5,-75.5 1487.5,-56.5 1440.5,-56.5"/>
<text text-anchor="middle" x="1464" y="-63.5" font-family="FreeSans.ttf" font-size="10.00" fill="#000000">vector</text>
</g>
<!-- Node15&#45;&gt;Node17 -->
<g id="edge20" class="edge">
<title>Node15&#45;&gt;Node17</title>
<path fill="none" stroke="#191970" d="M1467.3033,-112.2455C1466.7813,-104.9382 1466.0496,-94.6944 1465.4075,-85.7046"/>
<polygon fill="#191970" stroke="#191970" points="1468.8924,-85.3679 1464.6888,-75.6427 1461.9102,-85.8667 1468.8924,-85.3679"/>
</g>
<!-- Node18 -->
<g id="node19" class="node">
<title>Node18</title>
<polygon fill="none" stroke="#bfbfbf" points="1506,-56.5 1506,-75.5 1592,-75.5 1592,-56.5 1506,-56.5"/>
<text text-anchor="middle" x="1549" y="-63.5" font-family="FreeSans.ttf" font-size="10.00" fill="#000000">unordered_set</text>
</g>
<!-- Node15&#45;&gt;Node18 -->
<g id="edge22" class="edge">
<title>Node15&#45;&gt;Node18</title>
<path fill="none" stroke="#191970" d="M1482.1091,-112.2455C1494.4209,-103.7337 1512.4958,-91.2375 1526.7538,-81.3801"/>
<polygon fill="#191970" stroke="#191970" points="1528.8174,-84.2085 1535.0526,-75.6427 1524.8366,-78.4506 1528.8174,-84.2085"/>
</g>
<!-- Node16&#45;&gt;Node3 -->
<g id="edge19" class="edge">
<title>Node16&#45;&gt;Node3</title>
<path fill="none" stroke="#191970" d="M797.5787,-57.3114C877.964,-45.5886 1018.7291,-25.0603 1085.2237,-15.3632"/>
<polygon fill="#191970" stroke="#191970" points="1085.8471,-18.8094 1095.2374,-13.9029 1084.8369,-11.8827 1085.8471,-18.8094"/>
</g>
<!-- Node19&#45;&gt;Node4 -->
<g id="edge25" class="edge">
<title>Node19&#45;&gt;Node4</title>
<path fill="none" stroke="#191970" d="M1218.1644,-336.4283C1227.9002,-317.4624 1248,-273.5212 1248,-234 1248,-234 1248,-234 1248,-178 1248,-147.5953 1252.164,-132.8135 1230,-112 1202.7821,-86.4405 1094.3055,-73.5546 1039.315,-68.5559"/>
<polygon fill="#191970" stroke="#191970" points="1039.3368,-65.0445 1029.0699,-67.6599 1038.7269,-72.0179 1039.3368,-65.0445"/>
</g>
<!-- Node20&#45;&gt;Node5 -->
<g id="edge27" class="edge">
<title>Node20&#45;&gt;Node5</title>
<path fill="none" stroke="#191970" d="M1070.3012,-397.7688C1080.532,-378.05 1102,-331.7042 1102,-290 1102,-290 1102,-290 1102,-234 1102,-199.8821 1116.9795,-162.4701 1127.3391,-140.676"/>
<polygon fill="#191970" stroke="#191970" points="1130.5455,-142.0877 1131.8356,-131.5717 1124.2692,-138.9879 1130.5455,-142.0877"/>
</g>
<!-- Node20&#45;&gt;Node19 -->
<g id="edge28" class="edge">
<title>Node20&#45;&gt;Node19</title>
<path fill="none" stroke="#191970" d="M1088.125,-397.8906C1112.9967,-387.5554 1152.7298,-371.0447 1180.6844,-359.4284"/>
<polygon fill="#191970" stroke="#191970" points="1182.146,-362.6113 1190.0374,-355.5419 1179.4598,-356.1472 1182.146,-362.6113"/>
</g>
<!-- Node21 -->
<g id="node22" class="node">
<title>Node21</title>
<g id="a_node22"><a xlink:href="Transform_8h.html" target="_top" xlink:title="iDynTree/Core/Transform.h">
<polygon fill="none" stroke="#000000" points="766,-336.5 766,-355.5 912,-355.5 912,-336.5 766,-336.5"/>
<text text-anchor="middle" x="839" y="-343.5" font-family="FreeSans.ttf" font-size="10.00" fill="#000000">iDynTree/Core/Transform.h</text>
</a>
</g>
</g>
<!-- Node20&#45;&gt;Node21 -->
<g id="edge29" class="edge">
<title>Node20&#45;&gt;Node21</title>
<path fill="none" stroke="#191970" d="M1029.6875,-397.8906C990.3809,-387.1944 926.7674,-369.8836 883.9406,-358.2294"/>
<polygon fill="#191970" stroke="#191970" points="884.6327,-354.7905 874.0645,-355.5419 882.7946,-361.5449 884.6327,-354.7905"/>
</g>
<!-- Node21&#45;&gt;Node4 -->
<g id="edge57" class="edge">
<title>Node21&#45;&gt;Node4</title>
<path fill="none" stroke="#191970" d="M896.632,-336.4664C951.5771,-323.6951 1026,-295.1162 1026,-234 1026,-234 1026,-234 1026,-178 1026,-145.2688 1018.0148,-107.9052 1012.3978,-85.6716"/>
<polygon fill="#191970" stroke="#191970" points="1015.7289,-84.5763 1009.8035,-75.7934 1008.9585,-86.3545 1015.7289,-84.5763"/>
</g>
<!-- Node22 -->
<g id="node23" class="node">
<title>Node22</title>
<g id="a_node23"><a xlink:href="Position_8h.html" target="_top" xlink:title="iDynTree/Core/Position.h">
<polygon fill="none" stroke="#000000" points="771,-280.5 771,-299.5 907,-299.5 907,-280.5 771,-280.5"/>
<text text-anchor="middle" x="839" y="-287.5" font-family="FreeSans.ttf" font-size="10.00" fill="#000000">iDynTree/Core/Position.h</text>
</a>
</g>
</g>
<!-- Node21&#45;&gt;Node22 -->
<g id="edge30" class="edge">
<title>Node21&#45;&gt;Node22</title>
<path fill="none" stroke="#191970" d="M839,-336.2455C839,-328.9382 839,-318.6944 839,-309.7046"/>
<polygon fill="#191970" stroke="#191970" points="842.5001,-309.6426 839,-299.6427 835.5001,-309.6427 842.5001,-309.6426"/>
</g>
<!-- Node27 -->
<g id="node28" class="node">
<title>Node27</title>
<g id="a_node28"><a xlink:href="Rotation_8h.html" target="_top" xlink:title="iDynTree/Core/Rotation.h">
<polygon fill="none" stroke="#000000" points="572.5,-224.5 572.5,-243.5 709.5,-243.5 709.5,-224.5 572.5,-224.5"/>
<text text-anchor="middle" x="641" y="-231.5" font-family="FreeSans.ttf" font-size="10.00" fill="#000000">iDynTree/Core/Rotation.h</text>
</a>
</g>
</g>
<!-- Node21&#45;&gt;Node27 -->
<g id="edge55" class="edge">
<title>Node21&#45;&gt;Node27</title>
<path fill="none" stroke="#191970" d="M822.1186,-336.4509C787.4142,-316.8201 707.8708,-271.8259 666.7174,-248.5472"/>
<polygon fill="#191970" stroke="#191970" points="668.2659,-245.402 657.8386,-243.5249 664.8194,-251.4948 668.2659,-245.402"/>
</g>
<!-- Node30 -->
<g id="node31" class="node">
<title>Node30</title>
<g id="a_node31"><a xlink:href="MatrixFixSize_8h.html" target="_top" xlink:title="iDynTree/Core/MatrixFixSize.h">
<polygon fill="none" stroke="#000000" points="224.5,-112.5 224.5,-131.5 385.5,-131.5 385.5,-112.5 224.5,-112.5"/>
<text text-anchor="middle" x="305" y="-119.5" font-family="FreeSans.ttf" font-size="10.00" fill="#000000">iDynTree/Core/MatrixFixSize.h</text>
</a>
</g>
</g>
<!-- Node21&#45;&gt;Node30 -->
<g id="edge56" class="edge">
<title>Node21&#45;&gt;Node30</title>
<path fill="none" stroke="#191970" d="M810.9808,-336.493C760.9055,-319.3068 652.965,-281.3725 564,-244 478.4716,-208.0712 379.9862,-159.6835 332.8987,-136.1013"/>
<polygon fill="#191970" stroke="#191970" points="334.4268,-132.9522 323.9196,-131.5927 331.2857,-139.2079 334.4268,-132.9522"/>
</g>
<!-- Node22&#45;&gt;Node4 -->
<g id="edge54" class="edge">
<title>Node22&#45;&gt;Node4</title>
<path fill="none" stroke="#191970" d="M853.5555,-280.3044C877.3537,-263.819 924.8552,-228.1808 954,-188 977.6222,-155.4329 993.6389,-110.6896 1001.4615,-85.426"/>
<polygon fill="#191970" stroke="#191970" points="1004.8901,-86.1758 1004.3941,-75.5926 998.1821,-84.1752 1004.8901,-86.1758"/>
</g>
<!-- Node23 -->
<g id="node24" class="node">
<title>Node23</title>
<g id="a_node24"><a xlink:href="PositionRaw_8h.html" target="_top" xlink:title="iDynTree/Core/PositionRaw.h">
<polygon fill="none" stroke="#000000" points="766,-168.5 766,-187.5 922,-187.5 922,-168.5 766,-168.5"/>
<text text-anchor="middle" x="844" y="-175.5" font-family="FreeSans.ttf" font-size="10.00" fill="#000000">iDynTree/Core/PositionRaw.h</text>
</a>
</g>
</g>
<!-- Node22&#45;&gt;Node23 -->
<g id="edge31" class="edge">
<title>Node22&#45;&gt;Node23</title>
<path fill="none" stroke="#191970" d="M839.4263,-280.4509C840.2418,-262.184 842.0377,-221.9553 843.1206,-197.6976"/>
<polygon fill="#191970" stroke="#191970" points="846.6252,-197.6711 843.5748,-187.5249 839.6322,-197.3588 846.6252,-197.6711"/>
</g>
<!-- Node22&#45;&gt;Node27 -->
<g id="edge40" class="edge">
<title>Node22&#45;&gt;Node27</title>
<path fill="none" stroke="#191970" d="M804.9626,-280.3733C771.6106,-270.9404 720.6473,-256.5265 684.3998,-246.2747"/>
<polygon fill="#191970" stroke="#191970" points="685.1684,-242.8548 674.5933,-243.5011 683.2632,-249.5906 685.1684,-242.8548"/>
</g>
<!-- Node23&#45;&gt;Node4 -->
<g id="edge39" class="edge">
<title>Node23&#45;&gt;Node4</title>
<path fill="none" stroke="#191970" d="M856.9645,-168.4037C874.6523,-155.3795 907.4187,-131.4946 936,-112 951.5272,-101.4092 969.2724,-89.9123 983.1381,-81.0615"/>
<polygon fill="#191970" stroke="#191970" points="985.0669,-83.9827 991.6274,-75.6635 981.3108,-78.0758 985.0669,-83.9827"/>
</g>
<!-- Node24 -->
<g id="node25" class="node">
<title>Node24</title>
<g id="a_node25"><a xlink:href="VectorFixSize_8h.html" target="_top" xlink:title="iDynTree/Core/VectorFixSize.h">
<polygon fill="none" stroke="#000000" points="403.5,-112.5 403.5,-131.5 564.5,-131.5 564.5,-112.5 403.5,-112.5"/>
<text text-anchor="middle" x="484" y="-119.5" font-family="FreeSans.ttf" font-size="10.00" fill="#000000">iDynTree/Core/VectorFixSize.h</text>
</a>
</g>
</g>
<!-- Node23&#45;&gt;Node24 -->
<g id="edge32" class="edge">
<title>Node23&#45;&gt;Node24</title>
<path fill="none" stroke="#191970" d="M782.5228,-168.4369C719.4878,-158.6314 621.5437,-143.3957 555.1845,-133.0731"/>
<polygon fill="#191970" stroke="#191970" points="555.6428,-129.6024 545.2236,-131.5237 554.5668,-136.5192 555.6428,-129.6024"/>
</g>
<!-- Node24&#45;&gt;Node4 -->
<g id="edge35" class="edge">
<title>Node24&#45;&gt;Node4</title>
<path fill="none" stroke="#191970" d="M564.5726,-113.3727C681.8027,-100.8204 894.1848,-78.0796 974.7945,-69.4484"/>
<polygon fill="#191970" stroke="#191970" points="975.2642,-72.9182 984.8347,-68.3733 974.5189,-65.958 975.2642,-72.9182"/>
</g>
<!-- Node24&#45;&gt;Node6 -->
<g id="edge34" class="edge">
<title>Node24&#45;&gt;Node6</title>
<path fill="none" stroke="#191970" d="M503.9411,-112.3733C522.4786,-103.4241 550.3028,-89.9917 571.2413,-79.8835"/>
<polygon fill="#191970" stroke="#191970" points="572.8352,-83.0006 580.3191,-75.5011 569.7919,-76.6967 572.8352,-83.0006"/>
</g>
<!-- Node24&#45;&gt;Node7 -->
<g id="edge37" class="edge">
<title>Node24&#45;&gt;Node7</title>
<path fill="none" stroke="#191970" d="M483.8498,-112.4714C483.0964,-98.1858 479.5465,-71.2689 464,-56 424.3505,-17.0585 396.4929,-33.9993 338.3678,-20.1545"/>
<polygon fill="#191970" stroke="#191970" points="338.9317,-16.6844 328.3716,-17.5411 337.1611,-23.4568 338.9317,-16.6844"/>
</g>
<!-- Node24&#45;&gt;Node16 -->
<g id="edge33" class="edge">
<title>Node24&#45;&gt;Node16</title>
<path fill="none" stroke="#191970" d="M527.3756,-112.4369C570.937,-102.8328 638.1277,-88.0191 684.8634,-77.7152"/>
<polygon fill="#191970" stroke="#191970" points="685.7915,-81.0947 694.8034,-75.5237 684.2843,-74.2588 685.7915,-81.0947"/>
</g>
<!-- Node25 -->
<g id="node26" class="node">
<title>Node25</title>
<polygon fill="none" stroke="#bfbfbf" points="330,-56.5 330,-75.5 386,-75.5 386,-56.5 330,-56.5"/>
<text text-anchor="middle" x="358" y="-63.5" font-family="FreeSans.ttf" font-size="10.00" fill="#000000">sstream</text>
</g>
<!-- Node24&#45;&gt;Node25 -->
<g id="edge36" class="edge">
<title>Node24&#45;&gt;Node25</title>
<path fill="none" stroke="#191970" d="M462.3398,-112.3733C442.0228,-103.3435 411.436,-89.7494 388.625,-79.6111"/>
<polygon fill="#191970" stroke="#191970" points="389.9372,-76.3642 379.3775,-75.5011 387.0941,-82.7609 389.9372,-76.3642"/>
</g>
<!-- Node26 -->
<g id="node27" class="node">
<title>Node26</title>
<polygon fill="none" stroke="#bfbfbf" points="405,-56.5 405,-75.5 455,-75.5 455,-56.5 405,-56.5"/>
<text text-anchor="middle" x="430" y="-63.5" font-family="FreeSans.ttf" font-size="10.00" fill="#000000">cstring</text>
</g>
<!-- Node24&#45;&gt;Node26 -->
<g id="edge38" class="edge">
<title>Node24&#45;&gt;Node26</title>
<path fill="none" stroke="#191970" d="M474.5939,-112.2455C466.8507,-104.2155 455.688,-92.6394 446.4682,-83.0781"/>
<polygon fill="#191970" stroke="#191970" points="448.7591,-80.4117 439.2983,-75.6427 443.7202,-85.2706 448.7591,-80.4117"/>
</g>
<!-- Node27&#45;&gt;Node4 -->
<g id="edge41" class="edge">
<title>Node27&#45;&gt;Node4</title>
<path fill="none" stroke="#191970" d="M709.7681,-229.9352C783.9484,-224.3748 896.1335,-212.1934 931,-188 962.8853,-165.8753 953.1031,-144.7031 974,-112 980.0629,-102.5118 987.3081,-92.3035 993.4633,-83.9198"/>
<polygon fill="#191970" stroke="#191970" points="996.4476,-85.772 999.6069,-75.6591 990.8307,-81.5945 996.4476,-85.772"/>
</g>
<!-- Node27&#45;&gt;Node24 -->
<g id="edge53" class="edge">
<title>Node27&#45;&gt;Node24</title>
<path fill="none" stroke="#191970" d="M654.2877,-224.3312C670.9756,-211.017 695.7399,-186.5782 681,-168 667.3013,-150.7341 619.6837,-139.3414 574.6984,-132.2131"/>
<polygon fill="#191970" stroke="#191970" points="574.9655,-128.7135 564.5526,-130.6682 573.9118,-135.6337 574.9655,-128.7135"/>
</g>
<!-- Node28 -->
<g id="node29" class="node">
<title>Node28</title>
<g id="a_node29"><a xlink:href="GeomVector3_8h.html" target="_top" xlink:title="iDynTree/Core/GeomVector3.h">
<polygon fill="none" stroke="#000000" points="180.5,-168.5 180.5,-187.5 343.5,-187.5 343.5,-168.5 180.5,-168.5"/>
<text text-anchor="middle" x="262" y="-175.5" font-family="FreeSans.ttf" font-size="10.00" fill="#000000">iDynTree/Core/GeomVector3.h</text>
</a>
</g>
</g>
<!-- Node27&#45;&gt;Node28 -->
<g id="edge42" class="edge">
<title>Node27&#45;&gt;Node28</title>
<path fill="none" stroke="#191970" d="M576.2782,-224.4369C509.7801,-214.6113 406.3794,-199.3331 336.5115,-189.0096"/>
<polygon fill="#191970" stroke="#191970" points="336.8591,-185.523 326.4548,-187.5237 335.8358,-192.4479 336.8591,-185.523"/>
</g>
<!-- Node29 -->
<g id="node30" class="node">
<title>Node29</title>
<g id="a_node30"><a xlink:href="RotationRaw_8h.html" target="_top" xlink:title="iDynTree/Core/RotationRaw.h">
<polygon fill="none" stroke="#000000" points="514,-168.5 514,-187.5 672,-187.5 672,-168.5 514,-168.5"/>
<text text-anchor="middle" x="593" y="-175.5" font-family="FreeSans.ttf" font-size="10.00" fill="#000000">iDynTree/Core/RotationRaw.h</text>
</a>
</g>
</g>
<!-- Node27&#45;&gt;Node29 -->
<g id="edge44" class="edge">
<title>Node27&#45;&gt;Node29</title>
<path fill="none" stroke="#191970" d="M632.639,-224.2455C625.825,-216.2958 616.0319,-204.8706 607.8848,-195.3656"/>
<polygon fill="#191970" stroke="#191970" points="610.4305,-192.9575 601.2651,-187.6427 605.1157,-197.513 610.4305,-192.9575"/>
</g>
<!-- Node28&#45;&gt;Node24 -->
<g id="edge43" class="edge">
<title>Node28&#45;&gt;Node24</title>
<path fill="none" stroke="#191970" d="M299.9109,-168.4369C337.665,-158.9133 395.7265,-144.2672 436.5264,-133.9753"/>
<polygon fill="#191970" stroke="#191970" points="437.4053,-137.3633 446.2454,-131.5237 435.6931,-130.576 437.4053,-137.3633"/>
</g>
<!-- Node29&#45;&gt;Node4 -->
<g id="edge52" class="edge">
<title>Node29&#45;&gt;Node4</title>
<path fill="none" stroke="#191970" d="M628.2974,-168.4509C707.4822,-147.029 898.3102,-95.404 974.6439,-74.7533"/>
<polygon fill="#191970" stroke="#191970" points="975.8925,-78.0414 984.6315,-72.0514 974.0645,-71.2843 975.8925,-78.0414"/>
</g>
<!-- Node29&#45;&gt;Node30 -->
<g id="edge45" class="edge">
<title>Node29&#45;&gt;Node30</title>
<path fill="none" stroke="#191970" d="M543.8183,-168.4369C494.0116,-158.7522 416.9615,-143.7703 363.9212,-133.4569"/>
<polygon fill="#191970" stroke="#191970" points="364.4631,-129.9968 353.9789,-131.5237 363.127,-136.8681 364.4631,-129.9968"/>
</g>
<!-- Node30&#45;&gt;Node4 -->
<g id="edge49" class="edge">
<title>Node30&#45;&gt;Node4</title>
<path fill="none" stroke="#191970" d="M385.5165,-112.8182C388.3787,-112.5348 391.2134,-112.261 394,-112 615.8275,-91.2219 883.5146,-73.7416 974.7478,-67.9982"/>
<polygon fill="#191970" stroke="#191970" points="975.2227,-71.4754 984.9841,-67.3565 974.7847,-64.4891 975.2227,-71.4754"/>
</g>
<!-- Node30&#45;&gt;Node7 -->
<g id="edge47" class="edge">
<title>Node30&#45;&gt;Node7</title>
<path fill="none" stroke="#191970" d="M304.7442,-112.4509C304.2549,-94.184 303.1774,-53.9553 302.5276,-29.6976"/>
<polygon fill="#191970" stroke="#191970" points="306.0217,-29.4276 302.2551,-19.5249 299.0242,-29.6151 306.0217,-29.4276"/>
</g>
<!-- Node30&#45;&gt;Node16 -->
<g id="edge46" class="edge">
<title>Node30&#45;&gt;Node16</title>
<path fill="none" stroke="#191970" d="M384.4512,-112.4663C456.1198,-103.7564 564.7101,-90.2872 668.2982,-76.2134"/>
<polygon fill="#191970" stroke="#191970" points="668.87,-79.668 678.3058,-74.8497 667.9248,-72.7321 668.87,-79.668"/>
</g>
<!-- Node30&#45;&gt;Node25 -->
<g id="edge51" class="edge">
<title>Node30&#45;&gt;Node25</title>
<path fill="none" stroke="#191970" d="M314.2319,-112.2455C321.8317,-104.2155 332.7877,-92.6394 341.8368,-83.0781"/>
<polygon fill="#191970" stroke="#191970" points="344.5421,-85.3115 348.8739,-75.6427 339.458,-80.4998 344.5421,-85.3115"/>
</g>
<!-- Node30&#45;&gt;Node26 -->
<g id="edge48" class="edge">
<title>Node30&#45;&gt;Node26</title>
<path fill="none" stroke="#191970" d="M326.4883,-112.3733C346.644,-103.3435 376.988,-89.7494 399.618,-79.6111"/>
<polygon fill="#191970" stroke="#191970" points="401.0971,-82.7838 408.7921,-75.5011 398.2351,-76.3955 401.0971,-82.7838"/>
</g>
<!-- Node31 -->
<g id="node32" class="node">
<title>Node31</title>
<polygon fill="none" stroke="#bfbfbf" points="121,-56.5 121,-75.5 181,-75.5 181,-56.5 121,-56.5"/>
<text text-anchor="middle" x="151" y="-63.5" font-family="FreeSans.ttf" font-size="10.00" fill="#000000">iostream</text>
</g>
<!-- Node30&#45;&gt;Node31 -->
<g id="edge50" class="edge">
<title>Node30&#45;&gt;Node31</title>
<path fill="none" stroke="#191970" d="M278.5265,-112.3733C253.1403,-103.1419 214.6355,-89.1402 186.578,-78.9375"/>
<polygon fill="#191970" stroke="#191970" points="187.7222,-75.6293 177.1281,-75.5011 185.3299,-82.2079 187.7222,-75.6293"/>
</g>
<!-- Node33&#45;&gt;Node5 -->
<g id="edge63" class="edge">
<title>Node33&#45;&gt;Node5</title>
<path fill="none" stroke="#191970" d="M755.6789,-459.3392C809.2707,-429.8637 968.8797,-340.6256 1012,-300 1013.7638,-298.3383 1093.1301,-184.807 1124.4651,-139.9496"/>
<polygon fill="#191970" stroke="#191970" points="1127.3596,-141.9177 1130.2164,-131.7153 1121.6208,-137.9094 1127.3596,-141.9177"/>
</g>
<!-- Node33&#45;&gt;Node16 -->
<g id="edge82" class="edge">
<title>Node33&#45;&gt;Node16</title>
<path fill="none" stroke="#191970" d="M738,-459.4309C738,-438.738 738,-388.2813 738,-346 738,-346 738,-346 738,-178 738,-145.7116 738,-108.1872 738,-85.8048"/>
<polygon fill="#191970" stroke="#191970" points="741.5001,-85.5883 738,-75.5884 734.5001,-85.5884 741.5001,-85.5883"/>
</g>
<!-- Node33&#45;&gt;Node19 -->
<g id="edge65" class="edge">
<title>Node33&#45;&gt;Node19</title>
<path fill="none" stroke="#191970" d="M818.6438,-463.6064C931.892,-455.5057 1127.4755,-439.392 1156,-423 1179.1182,-409.7148 1195.6349,-382.8728 1204.7522,-364.6629"/>
<polygon fill="#191970" stroke="#191970" points="1207.9387,-366.1116 1209.0511,-355.5753 1201.611,-363.1183 1207.9387,-366.1116"/>
</g>
<!-- Node33&#45;&gt;Node21 -->
<g id="edge81" class="edge">
<title>Node33&#45;&gt;Node21</title>
<path fill="none" stroke="#191970" d="M745.9253,-459.3484C762.8882,-438.6906 802.9223,-389.9362 824.5445,-363.6042"/>
<polygon fill="#191970" stroke="#191970" points="827.4704,-365.5563 831.1115,-355.6068 822.0605,-361.114 827.4704,-365.5563"/>
</g>
<!-- Node33&#45;&gt;Node24 -->
<g id="edge64" class="edge">
<title>Node33&#45;&gt;Node24</title>
<path fill="none" stroke="#191970" d="M657.422,-461.4047C586.687,-449.7726 495,-420.3542 495,-346 495,-346 495,-346 495,-290 495,-236.3737 489.3501,-173.324 486.1487,-141.9016"/>
<polygon fill="#191970" stroke="#191970" points="489.6168,-141.4134 485.0949,-131.832 482.6548,-142.142 489.6168,-141.4134"/>
</g>
<!-- Node33&#45;&gt;Node30 -->
<g id="edge66" class="edge">
<title>Node33&#45;&gt;Node30</title>
<path fill="none" stroke="#191970" d="M657.3675,-467.3211C495.5939,-463.3626 142.8505,-451.5409 96,-423 61.7595,-402.141 49,-386.0937 49,-346 49,-346 49,-346 49,-290 49,-197.0242 168.4888,-152.6748 244.1985,-133.906"/>
<polygon fill="#191970" stroke="#191970" points="245.2068,-137.2636 254.1166,-131.5306 243.5764,-130.4561 245.2068,-137.2636"/>
</g>
<!-- Node34 -->
<g id="node35" class="node">
<title>Node34</title>
<polygon fill="none" stroke="#bfbfbf" points="887.5,-398 887.5,-417 964.5,-417 964.5,-398 887.5,-398"/>
<text text-anchor="middle" x="926" y="-405" font-family="FreeSans.ttf" font-size="10.00" fill="#000000">Eigen/Dense</text>
</g>
<!-- Node33&#45;&gt;Node34 -->
<g id="edge62" class="edge">
<title>Node33&#45;&gt;Node34</title>
<path fill="none" stroke="#191970" d="M767.375,-459.3906C799.6586,-448.8298 851.6535,-431.8208 887.2547,-420.1747"/>
<polygon fill="#191970" stroke="#191970" points="888.4151,-423.4776 896.8313,-417.0419 886.2387,-416.8246 888.4151,-423.4776"/>
</g>
<!-- Node35 -->
<g id="node36" class="node">
<title>Node35</title>
<g id="a_node36"><a xlink:href="SpatialMotionVector_8h.html" target="_top" xlink:title="iDynTree/Core/SpatialMotion\lVector.h">
<polygon fill="none" stroke="#000000" points="105.5,-392.5 105.5,-422.5 260.5,-422.5 260.5,-392.5 105.5,-392.5"/>
<text text-anchor="start" x="113.5" y="-410.5" font-family="FreeSans.ttf" font-size="10.00" fill="#000000">iDynTree/Core/SpatialMotion</text>
<text text-anchor="middle" x="183" y="-399.5" font-family="FreeSans.ttf" font-size="10.00" fill="#000000">Vector.h</text>
</a>
</g>
</g>
<!-- Node33&#45;&gt;Node35 -->
<g id="edge67" class="edge">
<title>Node33&#45;&gt;Node35</title>
<path fill="none" stroke="#191970" d="M657.4037,-462.4015C565.611,-454.5433 411.2195,-440.2834 279,-423 276.3072,-422.648 273.5738,-422.279 270.8154,-421.8966"/>
<polygon fill="#191970" stroke="#191970" points="271.1416,-418.4078 260.7473,-420.4595 270.1524,-425.3376 271.1416,-418.4078"/>
</g>
<!-- Node37 -->
<g id="node38" class="node">
<title>Node37</title>
<g id="a_node38"><a xlink:href="SpatialForceVector_8h.html" target="_top" xlink:title="iDynTree/Core/SpatialForce\lVector.h">
<polygon fill="none" stroke="#000000" points="288,-392.5 288,-422.5 436,-422.5 436,-392.5 288,-392.5"/>
<text text-anchor="start" x="296" y="-410.5" font-family="FreeSans.ttf" font-size="10.00" fill="#000000">iDynTree/Core/SpatialForce</text>
<text text-anchor="middle" x="362" y="-399.5" font-family="FreeSans.ttf" font-size="10.00" fill="#000000">Vector.h</text>
</a>
</g>
</g>
<!-- Node33&#45;&gt;Node37 -->
<g id="edge77" class="edge">
<title>Node33&#45;&gt;Node37</title>
<path fill="none" stroke="#191970" d="M679.6625,-459.4581C617.1427,-449.2321 517.3221,-432.9051 446.2728,-421.284"/>
<polygon fill="#191970" stroke="#191970" points="446.4406,-417.765 436.0068,-419.6048 445.3106,-424.6732 446.4406,-417.765"/>
</g>
<!-- Node35&#45;&gt;Node24 -->
<g id="edge68" class="edge">
<title>Node35&#45;&gt;Node24</title>
<path fill="none" stroke="#191970" d="M164.9083,-392.3413C155.2111,-382.9968 144.2111,-370.1218 139,-356 117.0759,-296.5874 27.8566,-305.2128 171,-168 179.0771,-160.2575 303.7162,-143.7309 393.2375,-132.7418"/>
<polygon fill="#191970" stroke="#191970" points="393.9213,-136.1843 403.4227,-131.4967 393.0718,-129.236 393.9213,-136.1843"/>
</g>
<!-- Node35&#45;&gt;Node28 -->
<g id="edge69" class="edge">
<title>Node35&#45;&gt;Node28</title>
<path fill="none" stroke="#191970" d="M166.0902,-392.3345C152.6427,-378.3414 137.135,-356.6647 144,-336 163.7458,-276.5619 215.5299,-221.3879 243.4785,-194.7372"/>
<polygon fill="#191970" stroke="#191970" points="246.0893,-197.0877 251.0046,-187.7021 241.3092,-191.974 246.0893,-197.0877"/>
</g>
<!-- Node36 -->
<g id="node37" class="node">
<title>Node36</title>
<g id="a_node37"><a xlink:href="SpatialVector_8h.html" target="_top" xlink:title="iDynTree/Core/SpatialVector.h">
<polygon fill="none" stroke="#000000" points="153.5,-336.5 153.5,-355.5 314.5,-355.5 314.5,-336.5 153.5,-336.5"/>
<text text-anchor="middle" x="234" y="-343.5" font-family="FreeSans.ttf" font-size="10.00" fill="#000000">iDynTree/Core/SpatialVector.h</text>
</a>
</g>
</g>
<!-- Node35&#45;&gt;Node36 -->
<g id="edge70" class="edge">
<title>Node35&#45;&gt;Node36</title>
<path fill="none" stroke="#191970" d="M195.6067,-392.2977C202.7598,-383.672 211.7497,-372.8312 219.2318,-363.8087"/>
<polygon fill="#191970" stroke="#191970" points="222.145,-365.7787 225.8343,-355.8469 216.7567,-361.3103 222.145,-365.7787"/>
</g>
<!-- Node36&#45;&gt;Node16 -->
<g id="edge73" class="edge">
<title>Node36&#45;&gt;Node16</title>
<path fill="none" stroke="#191970" d="M246.768,-336.4829C284.7454,-308.4279 400.8393,-224.4844 505,-168 572.8074,-131.2293 656.5639,-97.148 702.9321,-79.2065"/>
<polygon fill="#191970" stroke="#191970" points="704.4357,-82.3782 712.5139,-75.5231 701.924,-75.8444 704.4357,-82.3782"/>
</g>
<!-- Node36&#45;&gt;Node22 -->
<g id="edge71" class="edge">
<title>Node36&#45;&gt;Node22</title>
<path fill="none" stroke="#191970" d="M314.652,-338.5347C431.1338,-327.7529 645.0928,-307.9484 760.411,-297.2744"/>
<polygon fill="#191970" stroke="#191970" points="760.9425,-300.7402 770.5773,-296.3333 760.2972,-293.77 760.9425,-300.7402"/>
</g>
<!-- Node36&#45;&gt;Node25 -->
<g id="edge76" class="edge">
<title>Node36&#45;&gt;Node25</title>
<path fill="none" stroke="#191970" d="M225.8354,-336.3696C204.2321,-309.6727 148.7127,-232.4397 171,-168 181.3461,-138.0862 189.0204,-130.0814 215,-112 246.6355,-89.9822 289.4047,-78.0553 319.9083,-71.9065"/>
<polygon fill="#191970" stroke="#191970" points="320.5782,-75.3419 329.749,-70.0365 319.2713,-68.465 320.5782,-75.3419"/>
</g>
<!-- Node36&#45;&gt;Node27 -->
<g id="edge72" class="edge">
<title>Node36&#45;&gt;Node27</title>
<path fill="none" stroke="#191970" d="M268.7006,-336.4509C342.5156,-316.1382 515.014,-268.6694 596.6591,-246.2019"/>
<polygon fill="#191970" stroke="#191970" points="597.6743,-249.5527 606.3872,-243.5249 595.817,-242.8036 597.6743,-249.5527"/>
</g>
<!-- Node36&#45;&gt;Node28 -->
<g id="edge74" class="edge">
<title>Node36&#45;&gt;Node28</title>
<path fill="none" stroke="#191970" d="M235.5856,-336.4862C240.0309,-309.8144 252.6814,-233.9117 258.7175,-197.695"/>
<polygon fill="#191970" stroke="#191970" points="262.1703,-198.2672 260.362,-187.8279 255.2656,-197.1164 262.1703,-198.2672"/>
</g>
<!-- Node36&#45;&gt;Node31 -->
<g id="edge75" class="edge">
<title>Node36&#45;&gt;Node31</title>
<path fill="none" stroke="#191970" d="M220.9173,-336.3947C191.9915,-314.2066 123.3243,-256.0482 100,-188 89.0478,-156.0471 86.2746,-142.8634 100,-112 105.4508,-99.7432 115.9599,-89.3755 126.0289,-81.6036"/>
<polygon fill="#191970" stroke="#191970" points="128.1744,-84.3721 134.2627,-75.7012 124.096,-78.6828 128.1744,-84.3721"/>
</g>
<!-- Node37&#45;&gt;Node24 -->
<g id="edge78" class="edge">
<title>Node37&#45;&gt;Node24</title>
<path fill="none" stroke="#191970" d="M363.7338,-392.335C368.8336,-352.6915 386.5251,-243.8017 434,-168 441.1668,-156.5571 451.9212,-146.1503 461.6221,-138.1409"/>
<polygon fill="#191970" stroke="#191970" points="464.0541,-140.6814 469.7592,-131.7537 459.732,-135.1751 464.0541,-140.6814"/>
</g>
<!-- Node37&#45;&gt;Node28 -->
<g id="edge79" class="edge">
<title>Node37&#45;&gt;Node28</title>
<path fill="none" stroke="#191970" d="M355.4387,-392.4419C337.8998,-352.1901 289.9415,-242.1259 270.4274,-197.3409"/>
<polygon fill="#191970" stroke="#191970" points="273.5162,-195.6675 266.3129,-187.8981 267.0989,-198.4638 273.5162,-195.6675"/>
</g>
<!-- Node37&#45;&gt;Node36 -->
<g id="edge80" class="edge">
<title>Node37&#45;&gt;Node36</title>
<path fill="none" stroke="#191970" d="M330.6877,-392.4554C309.9862,-382.509 283.0477,-369.5659 262.8647,-359.8686"/>
<polygon fill="#191970" stroke="#191970" points="264.3648,-356.7064 253.8355,-355.5303 261.3333,-363.0159 264.3648,-356.7064"/>
</g>
</g>
</svg>
