<?xml version="1.0" encoding="UTF-8" standalone="no"?>
<!DOCTYPE svg PUBLIC "-//W3C//DTD SVG 1.1//EN"
 "http://www.w3.org/Graphics/SVG/1.1/DTD/svg11.dtd">
<!-- Generated by graphviz version 2.40.1 (20161225.0304)
 -->
<!-- Title: LinearSystem.cpp Pages: 1 -->
<svg width="1399pt" height="543pt"
 viewBox="0.00 0.00 1398.79 543.00" xmlns="http://www.w3.org/2000/svg" xmlns:xlink="http://www.w3.org/1999/xlink">
<g id="graph0" class="graph" transform="scale(1 1) rotate(0) translate(4 539)">
<title>LinearSystem.cpp</title>
<!-- Node0 -->
<g id="node1" class="node">
<title>Node0</title>
<polygon fill="#bfbfbf" stroke="#000000" points="394.7875,-515.5 394.7875,-534.5 498.7875,-534.5 498.7875,-515.5 394.7875,-515.5"/>
<text text-anchor="middle" x="446.7875" y="-522.5" font-family="FreeSans.ttf" font-size="10.00" fill="#000000">LinearSystem.cpp</text>
</g>
<!-- Node1 -->
<g id="node2" class="node">
<title>Node1</title>
<g id="a_node2"><a xlink:href="LinearSystem_8h.html" target="_top" xlink:title="iDynTree/LinearSystem.h">
<polygon fill="none" stroke="#000000" points="230.7875,-459.5 230.7875,-478.5 368.7875,-478.5 368.7875,-459.5 230.7875,-459.5"/>
<text text-anchor="middle" x="299.7875" y="-466.5" font-family="FreeSans.ttf" font-size="10.00" fill="#000000">iDynTree/LinearSystem.h</text>
</a>
</g>
</g>
<!-- Node0&#45;&gt;Node1 -->
<g id="edge1" class="edge">
<title>Node0&#45;&gt;Node1</title>
<path fill="none" stroke="#191970" d="M421.5173,-515.3733C397.3909,-506.1822 360.8513,-492.2624 334.0998,-482.0713"/>
<polygon fill="#191970" stroke="#191970" points="335.3188,-478.7904 324.7279,-478.5011 332.8268,-485.3318 335.3188,-478.7904"/>
</g>
<!-- Node3 -->
<g id="node4" class="node">
<title>Node3</title>
<g id="a_node4"><a xlink:href="VectorDynSize_8h.html" target="_top" xlink:title="iDynTree/Core/VectorDynSize.h">
<polygon fill="none" stroke="#000000" points="537.2875,-336.5 537.2875,-355.5 704.2875,-355.5 704.2875,-336.5 537.2875,-336.5"/>
<text text-anchor="middle" x="620.7875" y="-343.5" font-family="FreeSans.ttf" font-size="10.00" fill="#000000">iDynTree/Core/VectorDynSize.h</text>
</a>
</g>
</g>
<!-- Node0&#45;&gt;Node3 -->
<g id="edge57" class="edge">
<title>Node0&#45;&gt;Node3</title>
<path fill="none" stroke="#191970" d="M498.8187,-519.2984C555.7427,-509.972 644.3901,-485.6774 685.7875,-423 693.3807,-411.5035 692.1187,-404.2369 685.7875,-392 678.7328,-378.365 665.5679,-367.9036 652.9212,-360.4282"/>
<polygon fill="#191970" stroke="#191970" points="654.3541,-357.2231 643.8987,-355.5099 651.0037,-363.3692 654.3541,-357.2231"/>
</g>
<!-- Node5 -->
<g id="node6" class="node">
<title>Node5</title>
<polygon fill="none" stroke="#bfbfbf" points="909.7875,-.5 909.7875,-19.5 961.7875,-19.5 961.7875,-.5 909.7875,-.5"/>
<text text-anchor="middle" x="935.7875" y="-7.5" font-family="FreeSans.ttf" font-size="10.00" fill="#000000">cassert</text>
</g>
<!-- Node0&#45;&gt;Node5 -->
<g id="edge82" class="edge">
<title>Node0&#45;&gt;Node5</title>
<path fill="none" stroke="#191970" d="M498.8857,-524.0423C696.7849,-519.7259 1390.7875,-498.128 1390.7875,-407.5 1390.7875,-407.5 1390.7875,-407.5 1390.7875,-122 1390.7875,-35.8898 1079.6338,-15.6064 971.9465,-11.1651"/>
<polygon fill="#191970" stroke="#191970" points="972.0134,-7.6651 961.8845,-10.7722 971.7403,-14.6598 972.0134,-7.6651"/>
</g>
<!-- Node8 -->
<g id="node9" class="node">
<title>Node8</title>
<polygon fill="none" stroke="#bfbfbf" points="192.2875,-.5 192.2875,-19.5 245.2875,-19.5 245.2875,-.5 192.2875,-.5"/>
<text text-anchor="middle" x="218.7875" y="-7.5" font-family="FreeSans.ttf" font-size="10.00" fill="#000000">cstddef</text>
</g>
<!-- Node0&#45;&gt;Node8 -->
<g id="edge83" class="edge">
<title>Node0&#45;&gt;Node8</title>
<path fill="none" stroke="#191970" d="M394.7527,-522.2602C277.1028,-514.6452 .7875,-488.1732 .7875,-407.5 .7875,-407.5 .7875,-407.5 .7875,-122 .7875,-91.4754 -2.3624,-77.0032 19.7875,-56 42.8369,-34.1439 131.0883,-20.3498 181.9919,-14.038"/>
<polygon fill="#191970" stroke="#191970" points="182.4372,-17.5097 191.9473,-12.8398 181.6007,-10.5599 182.4372,-17.5097"/>
</g>
<!-- Node16 -->
<g id="node17" class="node">
<title>Node16</title>
<g id="a_node17"><a xlink:href="Utils_8h.html" target="_top" xlink:title="iDynTree/Core/Utils.h">
<polygon fill="none" stroke="#000000" points="236.2875,-56.5 236.2875,-75.5 355.2875,-75.5 355.2875,-56.5 236.2875,-56.5"/>
<text text-anchor="middle" x="295.7875" y="-63.5" font-family="FreeSans.ttf" font-size="10.00" fill="#000000">iDynTree/Core/Utils.h</text>
</a>
</g>
</g>
<!-- Node0&#45;&gt;Node16 -->
<g id="edge81" class="edge">
<title>Node0&#45;&gt;Node16</title>
<path fill="none" stroke="#191970" d="M394.7491,-519.8144C348.1181,-513.9077 278.5271,-501.9391 221.7875,-479 178.8083,-461.624 156.0957,-463.6384 133.7875,-423 127.1575,-410.9223 130.622,-405.4092 133.7875,-392 151.8256,-315.5894 212.7875,-312.5108 212.7875,-234 212.7875,-234 212.7875,-234 212.7875,-178 212.7875,-137.0829 248.9878,-101.3617 273.574,-81.8195"/>
<polygon fill="#191970" stroke="#191970" points="275.89,-84.4545 281.7077,-75.5999 271.6379,-78.8939 275.89,-84.4545"/>
</g>
<!-- Node20 -->
<g id="node21" class="node">
<title>Node20</title>
<g id="a_node21"><a xlink:href="MatrixDynSize_8h.html" target="_top" xlink:title="iDynTree/Core/MatrixDynSize.h">
<polygon fill="none" stroke="#000000" points="352.2875,-336.5 352.2875,-355.5 519.2875,-355.5 519.2875,-336.5 352.2875,-336.5"/>
<text text-anchor="middle" x="435.7875" y="-343.5" font-family="FreeSans.ttf" font-size="10.00" fill="#000000">iDynTree/Core/MatrixDynSize.h</text>
</a>
</g>
</g>
<!-- Node0&#45;&gt;Node20 -->
<g id="edge58" class="edge">
<title>Node0&#45;&gt;Node20</title>
<path fill="none" stroke="#191970" d="M446.1961,-515.3762C444.4652,-487.2097 439.3832,-404.5126 437.0209,-366.0713"/>
<polygon fill="#191970" stroke="#191970" points="440.4887,-365.4379 436.3818,-355.6714 433.5019,-365.8673 440.4887,-365.4379"/>
</g>
<!-- Node33 -->
<g id="node34" class="node">
<title>Node33</title>
<g id="a_node34"><a xlink:href="EigenHelpers_8h.html" target="_top" xlink:title="iDynTree/Core/EigenHelpers.h">
<polygon fill="none" stroke="#000000" points="802.2875,-459.5 802.2875,-478.5 963.2875,-478.5 963.2875,-459.5 802.2875,-459.5"/>
<text text-anchor="middle" x="882.7875" y="-466.5" font-family="FreeSans.ttf" font-size="10.00" fill="#000000">iDynTree/Core/EigenHelpers.h</text>
</a>
</g>
</g>
<!-- Node0&#45;&gt;Node33 -->
<g id="edge59" class="edge">
<title>Node0&#45;&gt;Node33</title>
<path fill="none" stroke="#191970" d="M498.9462,-518.3007C573.1628,-508.7683 710.05,-491.1865 798.7037,-479.7997"/>
<polygon fill="#191970" stroke="#191970" points="799.2599,-483.2572 808.7325,-478.5117 798.3681,-476.3142 799.2599,-483.2572"/>
</g>
<!-- Node2 -->
<g id="node3" class="node">
<title>Node2</title>
<g id="a_node3"><a xlink:href="DynamicalSystem_8h.html" target="_top" xlink:title="iDynTree/DynamicalSystem.h">
<polygon fill="none" stroke="#000000" points="219.2875,-398 219.2875,-417 380.2875,-417 380.2875,-398 219.2875,-398"/>
<text text-anchor="middle" x="299.7875" y="-405" font-family="FreeSans.ttf" font-size="10.00" fill="#000000">iDynTree/DynamicalSystem.h</text>
</a>
</g>
</g>
<!-- Node1&#45;&gt;Node2 -->
<g id="edge2" class="edge">
<title>Node1&#45;&gt;Node2</title>
<path fill="none" stroke="#191970" d="M299.7875,-459.3906C299.7875,-450.8657 299.7875,-438.1392 299.7875,-427.4235"/>
<polygon fill="#191970" stroke="#191970" points="303.2876,-427.2448 299.7875,-417.2449 296.2876,-427.2449 303.2876,-427.2448"/>
</g>
<!-- Node15 -->
<g id="node16" class="node">
<title>Node15</title>
<g id="a_node16"><a xlink:href="SparsityStructure_8h.html" target="_top" xlink:title="iDynTree/SparsityStructure.h">
<polygon fill="none" stroke="#000000" points="29.2875,-112.5 29.2875,-131.5 184.2875,-131.5 184.2875,-112.5 29.2875,-112.5"/>
<text text-anchor="middle" x="106.7875" y="-119.5" font-family="FreeSans.ttf" font-size="10.00" fill="#000000">iDynTree/SparsityStructure.h</text>
</a>
</g>
</g>
<!-- Node1&#45;&gt;Node15 -->
<g id="edge55" class="edge">
<title>Node1&#45;&gt;Node15</title>
<path fill="none" stroke="#191970" d="M242.608,-459.4905C200.8563,-451.4149 149.0035,-438.6545 133.7875,-423 109.2194,-397.724 114.7875,-381.2487 114.7875,-346 114.7875,-346 114.7875,-346 114.7875,-234 114.7875,-201.6293 111.4215,-164.1294 109.0562,-141.7743"/>
<polygon fill="#191970" stroke="#191970" points="112.5064,-141.1291 107.9337,-131.5719 105.5484,-141.8948 112.5064,-141.1291"/>
</g>
<!-- Node19 -->
<g id="node20" class="node">
<title>Node19</title>
<g id="a_node20"><a xlink:href="TimeVaryingObject_8h.html" target="_top" xlink:title="iDynTree/TimeVaryingObject.h">
<polygon fill="none" stroke="#000000" points="512.7875,-398 512.7875,-417 676.7875,-417 676.7875,-398 512.7875,-398"/>
<text text-anchor="middle" x="594.7875" y="-405" font-family="FreeSans.ttf" font-size="10.00" fill="#000000">iDynTree/TimeVaryingObject.h</text>
</a>
</g>
</g>
<!-- Node1&#45;&gt;Node19 -->
<g id="edge22" class="edge">
<title>Node1&#45;&gt;Node19</title>
<path fill="none" stroke="#191970" d="M345.5576,-459.4581C397.6624,-448.5956 482.7893,-430.8488 538.8041,-419.1711"/>
<polygon fill="#191970" stroke="#191970" points="539.8348,-422.5316 548.91,-417.0643 538.4062,-415.6789 539.8348,-422.5316"/>
</g>
<!-- Node32 -->
<g id="node33" class="node">
<title>Node32</title>
<polygon fill="none" stroke="#bfbfbf" points="142.7875,-398 142.7875,-417 200.7875,-417 200.7875,-398 142.7875,-398"/>
<text text-anchor="middle" x="171.7875" y="-405" font-family="FreeSans.ttf" font-size="10.00" fill="#000000">memory</text>
</g>
<!-- Node1&#45;&gt;Node32 -->
<g id="edge56" class="edge">
<title>Node1&#45;&gt;Node32</title>
<path fill="none" stroke="#191970" d="M279.7875,-459.3906C258.5586,-449.1908 224.8112,-432.9763 200.6915,-421.3875"/>
<polygon fill="#191970" stroke="#191970" points="202.1764,-418.2179 191.647,-417.0419 199.1448,-424.5275 202.1764,-418.2179"/>
</g>
<!-- Node2&#45;&gt;Node3 -->
<g id="edge3" class="edge">
<title>Node2&#45;&gt;Node3</title>
<path fill="none" stroke="#191970" d="M349.5915,-397.9581C406.725,-387.012 500.3461,-369.0752 561.2715,-357.4026"/>
<polygon fill="#191970" stroke="#191970" points="561.9679,-360.8329 571.1307,-355.5137 560.6507,-353.9579 561.9679,-360.8329"/>
</g>
<!-- Node2&#45;&gt;Node15 -->
<g id="edge15" class="edge">
<title>Node2&#45;&gt;Node15</title>
<path fill="none" stroke="#191970" d="M270.7794,-397.9428C229.7725,-382.3903 159.7875,-347.4341 159.7875,-290 159.7875,-290 159.7875,-290 159.7875,-234 159.7875,-197.8604 136.9623,-160.9196 121.27,-139.7933"/>
<polygon fill="#191970" stroke="#191970" points="123.9484,-137.5352 115.0687,-131.7558 118.4063,-141.8112 123.9484,-137.5352"/>
</g>
<!-- Node4 -->
<g id="node5" class="node">
<title>Node4</title>
<g id="a_node5"><a xlink:href="Span_8h.html" target="_top" xlink:title="iDynTree/Core/Span.h">
<polygon fill="none" stroke="#000000" points="576.2875,-56.5 576.2875,-75.5 697.2875,-75.5 697.2875,-56.5 576.2875,-56.5"/>
<text text-anchor="middle" x="636.7875" y="-63.5" font-family="FreeSans.ttf" font-size="10.00" fill="#000000">iDynTree/Core/Span.h</text>
</a>
</g>
</g>
<!-- Node3&#45;&gt;Node4 -->
<g id="edge4" class="edge">
<title>Node3&#45;&gt;Node4</title>
<path fill="none" stroke="#191970" d="M604.8383,-336.3699C564.2649,-310.5787 462.7365,-237.1966 497.7875,-168 519.6385,-124.8623 569.2666,-95.5492 602.9113,-79.7915"/>
<polygon fill="#191970" stroke="#191970" points="604.6929,-82.8274 612.3655,-75.5211 601.8113,-76.448 604.6929,-82.8274"/>
</g>
<!-- Node14 -->
<g id="node15" class="node">
<title>Node14</title>
<polygon fill="none" stroke="#bfbfbf" points="437.7875,-56.5 437.7875,-75.5 481.7875,-75.5 481.7875,-56.5 437.7875,-56.5"/>
<text text-anchor="middle" x="459.7875" y="-63.5" font-family="FreeSans.ttf" font-size="10.00" fill="#000000">string</text>
</g>
<!-- Node3&#45;&gt;Node14 -->
<g id="edge14" class="edge">
<title>Node3&#45;&gt;Node14</title>
<path fill="none" stroke="#191970" d="M577.6501,-336.49C504.692,-319.1466 364.7875,-279.9043 364.7875,-234 364.7875,-234 364.7875,-234 364.7875,-178 364.7875,-146.7875 369.3478,-136.4196 388.7875,-112 399.3414,-98.7424 414.8036,-88.0914 428.6062,-80.3904"/>
<polygon fill="#191970" stroke="#191970" points="430.6027,-83.2945 437.8161,-75.5344 427.3379,-77.1025 430.6027,-83.2945"/>
</g>
<!-- Node4&#45;&gt;Node5 -->
<g id="edge5" class="edge">
<title>Node4&#45;&gt;Node5</title>
<path fill="none" stroke="#191970" d="M689.7756,-56.4443C740.2135,-47.2934 818.2276,-32.9957 885.7875,-20 890.2603,-19.1396 894.955,-18.2211 899.6017,-17.3026"/>
<polygon fill="#191970" stroke="#191970" points="900.468,-20.6989 909.5926,-15.3145 899.1018,-13.8335 900.468,-20.6989"/>
</g>
<!-- Node6 -->
<g id="node7" class="node">
<title>Node6</title>
<polygon fill="none" stroke="#bfbfbf" points="752.7875,-.5 752.7875,-19.5 816.7875,-19.5 816.7875,-.5 752.7875,-.5"/>
<text text-anchor="middle" x="784.7875" y="-7.5" font-family="FreeSans.ttf" font-size="10.00" fill="#000000">algorithm</text>
</g>
<!-- Node4&#45;&gt;Node6 -->
<g id="edge6" class="edge">
<title>Node4&#45;&gt;Node6</title>
<path fill="none" stroke="#191970" d="M662.2296,-56.3733C686.5201,-47.1822 723.3083,-33.2624 750.2418,-23.0713"/>
<polygon fill="#191970" stroke="#191970" points="751.5631,-26.3136 759.6774,-19.5011 749.0859,-19.7666 751.5631,-26.3136"/>
</g>
<!-- Node7 -->
<g id="node8" class="node">
<title>Node7</title>
<polygon fill="none" stroke="#bfbfbf" points="834.7875,-.5 834.7875,-19.5 876.7875,-19.5 876.7875,-.5 834.7875,-.5"/>
<text text-anchor="middle" x="855.7875" y="-7.5" font-family="FreeSans.ttf" font-size="10.00" fill="#000000">array</text>
</g>
<!-- Node4&#45;&gt;Node7 -->
<g id="edge7" class="edge">
<title>Node4&#45;&gt;Node7</title>
<path fill="none" stroke="#191970" d="M680.5975,-56.4225C716.8987,-48.2436 770.0195,-35.7176 824.6895,-20.1567"/>
<polygon fill="#191970" stroke="#191970" points="825.907,-23.4485 834.5503,-17.3212 823.9725,-16.7211 825.907,-23.4485"/>
</g>
<!-- Node4&#45;&gt;Node8 -->
<g id="edge8" class="edge">
<title>Node4&#45;&gt;Node8</title>
<path fill="none" stroke="#191970" d="M576.0067,-57.8571C487.9544,-46.0606 327.5872,-24.576 255.5496,-14.9251"/>
<polygon fill="#191970" stroke="#191970" points="255.9573,-11.4485 245.5811,-13.5896 255.0278,-18.3865 255.9573,-11.4485"/>
</g>
<!-- Node9 -->
<g id="node10" class="node">
<title>Node9</title>
<polygon fill="none" stroke="#bfbfbf" points="385.2875,-.5 385.2875,-19.5 438.2875,-19.5 438.2875,-.5 385.2875,-.5"/>
<text text-anchor="middle" x="411.7875" y="-7.5" font-family="FreeSans.ttf" font-size="10.00" fill="#000000">iterator</text>
</g>
<!-- Node4&#45;&gt;Node9 -->
<g id="edge9" class="edge">
<title>Node4&#45;&gt;Node9</title>
<path fill="none" stroke="#191970" d="M595.7683,-56.4188C559.5175,-47.8614 504.9761,-34.7684 448.3445,-20.0862"/>
<polygon fill="#191970" stroke="#191970" points="449.0573,-16.6551 438.498,-17.5226 447.2936,-23.4293 449.0573,-16.6551"/>
</g>
<!-- Node10 -->
<g id="node11" class="node">
<title>Node10</title>
<polygon fill="none" stroke="#bfbfbf" points="456.7875,-.5 456.7875,-19.5 500.7875,-19.5 500.7875,-.5 456.7875,-.5"/>
<text text-anchor="middle" x="478.7875" y="-7.5" font-family="FreeSans.ttf" font-size="10.00" fill="#000000">limits</text>
</g>
<!-- Node4&#45;&gt;Node10 -->
<g id="edge10" class="edge">
<title>Node4&#45;&gt;Node10</title>
<path fill="none" stroke="#191970" d="M609.6263,-56.3733C582.1601,-46.6384 539.7262,-31.5985 510.6787,-21.3032"/>
<polygon fill="#191970" stroke="#191970" points="511.6038,-17.9178 501.009,-17.876 509.2653,-24.5157 511.6038,-17.9178"/>
</g>
<!-- Node11 -->
<g id="node12" class="node">
<title>Node11</title>
<polygon fill="none" stroke="#bfbfbf" points="519.2875,-.5 519.2875,-19.5 584.2875,-19.5 584.2875,-.5 519.2875,-.5"/>
<text text-anchor="middle" x="551.7875" y="-7.5" font-family="FreeSans.ttf" font-size="10.00" fill="#000000">stdexcept</text>
</g>
<!-- Node4&#45;&gt;Node11 -->
<g id="edge11" class="edge">
<title>Node4&#45;&gt;Node11</title>
<path fill="none" stroke="#191970" d="M621.9816,-56.2455C609.0619,-47.7337 590.0944,-35.2375 575.1322,-25.3801"/>
<polygon fill="#191970" stroke="#191970" points="576.6999,-22.2216 566.4237,-19.6427 572.8487,-28.067 576.6999,-22.2216"/>
</g>
<!-- Node12 -->
<g id="node13" class="node">
<title>Node12</title>
<polygon fill="none" stroke="#bfbfbf" points="602.2875,-.5 602.2875,-19.5 671.2875,-19.5 671.2875,-.5 602.2875,-.5"/>
<text text-anchor="middle" x="636.7875" y="-7.5" font-family="FreeSans.ttf" font-size="10.00" fill="#000000">type_traits</text>
</g>
<!-- Node4&#45;&gt;Node12 -->
<g id="edge12" class="edge">
<title>Node4&#45;&gt;Node12</title>
<path fill="none" stroke="#191970" d="M636.7875,-56.2455C636.7875,-48.9382 636.7875,-38.6944 636.7875,-29.7046"/>
<polygon fill="#191970" stroke="#191970" points="640.2876,-29.6426 636.7875,-19.6427 633.2876,-29.6427 640.2876,-29.6426"/>
</g>
<!-- Node13 -->
<g id="node14" class="node">
<title>Node13</title>
<polygon fill="none" stroke="#bfbfbf" points="689.2875,-.5 689.2875,-19.5 734.2875,-19.5 734.2875,-.5 689.2875,-.5"/>
<text text-anchor="middle" x="711.7875" y="-7.5" font-family="FreeSans.ttf" font-size="10.00" fill="#000000">utility</text>
</g>
<!-- Node4&#45;&gt;Node13 -->
<g id="edge13" class="edge">
<title>Node4&#45;&gt;Node13</title>
<path fill="none" stroke="#191970" d="M649.8515,-56.2455C661.1437,-47.814 677.672,-35.4729 690.8146,-25.6598"/>
<polygon fill="#191970" stroke="#191970" points="692.9544,-28.4301 698.8732,-19.6427 688.7663,-22.8211 692.9544,-28.4301"/>
</g>
<!-- Node15&#45;&gt;Node8 -->
<g id="edge19" class="edge">
<title>Node15&#45;&gt;Node8</title>
<path fill="none" stroke="#191970" d="M114.063,-112.0876C124.099,-98.7052 143.0797,-74.4157 161.7875,-56 172.7996,-45.1598 186.2002,-34.2463 197.2407,-25.7715"/>
<polygon fill="#191970" stroke="#191970" points="199.6205,-28.3606 205.4982,-19.5457 195.4063,-22.7712 199.6205,-28.3606"/>
</g>
<!-- Node15&#45;&gt;Node14 -->
<g id="edge21" class="edge">
<title>Node15&#45;&gt;Node14</title>
<path fill="none" stroke="#191970" d="M167.0693,-112.4369C242.3327,-100.4971 368.3503,-80.5056 427.4034,-71.1374"/>
<polygon fill="#191970" stroke="#191970" points="428.2952,-74.5398 437.6233,-69.5161 427.1984,-67.6263 428.2952,-74.5398"/>
</g>
<!-- Node15&#45;&gt;Node16 -->
<g id="edge16" class="edge">
<title>Node15&#45;&gt;Node16</title>
<path fill="none" stroke="#191970" d="M139.2777,-112.3733C170.9777,-102.9807 219.3451,-88.6496 253.916,-78.4064"/>
<polygon fill="#191970" stroke="#191970" points="255.1275,-81.6979 263.7212,-75.5011 253.1389,-74.9863 255.1275,-81.6979"/>
</g>
<!-- Node17 -->
<g id="node18" class="node">
<title>Node17</title>
<polygon fill="none" stroke="#bfbfbf" points="171.2875,-56.5 171.2875,-75.5 218.2875,-75.5 218.2875,-56.5 171.2875,-56.5"/>
<text text-anchor="middle" x="194.7875" y="-63.5" font-family="FreeSans.ttf" font-size="10.00" fill="#000000">vector</text>
</g>
<!-- Node15&#45;&gt;Node17 -->
<g id="edge18" class="edge">
<title>Node15&#45;&gt;Node17</title>
<path fill="none" stroke="#191970" d="M122.1159,-112.2455C135.6178,-103.6534 155.4996,-91.0014 171.0561,-81.1018"/>
<polygon fill="#191970" stroke="#191970" points="173.0772,-83.9643 179.6347,-75.6427 169.319,-78.0587 173.0772,-83.9643"/>
</g>
<!-- Node18 -->
<g id="node19" class="node">
<title>Node18</title>
<polygon fill="none" stroke="#bfbfbf" points="28.7875,-56.5 28.7875,-75.5 114.7875,-75.5 114.7875,-56.5 28.7875,-56.5"/>
<text text-anchor="middle" x="71.7875" y="-63.5" font-family="FreeSans.ttf" font-size="10.00" fill="#000000">unordered_set</text>
</g>
<!-- Node15&#45;&gt;Node18 -->
<g id="edge20" class="edge">
<title>Node15&#45;&gt;Node18</title>
<path fill="none" stroke="#191970" d="M100.6909,-112.2455C95.8729,-104.5367 89.0124,-93.5598 83.1842,-84.2348"/>
<polygon fill="#191970" stroke="#191970" points="86.0822,-82.2677 77.8141,-75.6427 80.1462,-85.9777 86.0822,-82.2677"/>
</g>
<!-- Node16&#45;&gt;Node8 -->
<g id="edge17" class="edge">
<title>Node16&#45;&gt;Node8</title>
<path fill="none" stroke="#191970" d="M282.3751,-56.2455C270.7818,-47.814 253.8127,-35.4729 240.3197,-25.6598"/>
<polygon fill="#191970" stroke="#191970" points="242.1922,-22.6938 232.0462,-19.6427 238.0749,-28.355 242.1922,-22.6938"/>
</g>
<!-- Node19&#45;&gt;Node3 -->
<g id="edge23" class="edge">
<title>Node19&#45;&gt;Node3</title>
<path fill="none" stroke="#191970" d="M598.85,-397.8906C602.5299,-389.1862 608.0616,-376.1015 612.6495,-365.2494"/>
<polygon fill="#191970" stroke="#191970" points="615.9974,-366.3185 616.6677,-355.7449 609.5499,-363.5927 615.9974,-366.3185"/>
</g>
<!-- Node19&#45;&gt;Node20 -->
<g id="edge24" class="edge">
<title>Node19&#45;&gt;Node20</title>
<path fill="none" stroke="#191970" d="M569.9437,-397.8906C543.1067,-387.5103 500.1641,-370.9004 470.1122,-359.2766"/>
<polygon fill="#191970" stroke="#191970" points="471.0461,-355.8851 460.4568,-355.5419 468.5208,-362.4138 471.0461,-355.8851"/>
</g>
<!-- Node21 -->
<g id="node22" class="node">
<title>Node21</title>
<g id="a_node22"><a xlink:href="Transform_8h.html" target="_top" xlink:title="iDynTree/Core/Transform.h">
<polygon fill="none" stroke="#000000" points="729.7875,-336.5 729.7875,-355.5 875.7875,-355.5 875.7875,-336.5 729.7875,-336.5"/>
<text text-anchor="middle" x="802.7875" y="-343.5" font-family="FreeSans.ttf" font-size="10.00" fill="#000000">iDynTree/Core/Transform.h</text>
</a>
</g>
</g>
<!-- Node19&#45;&gt;Node21 -->
<g id="edge26" class="edge">
<title>Node19&#45;&gt;Node21</title>
<path fill="none" stroke="#191970" d="M627.2875,-397.8906C663.2345,-387.2621 721.2702,-370.1025 760.6755,-358.4514"/>
<polygon fill="#191970" stroke="#191970" points="761.9185,-361.7337 770.5157,-355.5419 759.9337,-355.021 761.9185,-361.7337"/>
</g>
<!-- Node20&#45;&gt;Node14 -->
<g id="edge25" class="edge">
<title>Node20&#45;&gt;Node14</title>
<path fill="none" stroke="#191970" d="M401.3225,-336.4443C357.8737,-322.0495 288.7875,-290.3079 288.7875,-234 288.7875,-234 288.7875,-234 288.7875,-178 288.7875,-112.2333 378.3968,-82.9921 427.8791,-71.8586"/>
<polygon fill="#191970" stroke="#191970" points="428.7299,-75.256 437.7823,-69.7511 427.2728,-68.4094 428.7299,-75.256"/>
</g>
<!-- Node21&#45;&gt;Node14 -->
<g id="edge54" class="edge">
<title>Node21&#45;&gt;Node14</title>
<path fill="none" stroke="#191970" d="M759.2802,-336.4214C726.1548,-328.4691 679.7698,-315.9022 640.7875,-300 592.5411,-280.3187 579.6666,-275.0033 537.7875,-244 489.4385,-208.207 472.48,-191.1983 461.7875,-132 459.0453,-116.8182 458.6335,-99.3589 458.8598,-86.2122"/>
<polygon fill="#191970" stroke="#191970" points="462.3668,-86.0392 459.1803,-75.9349 455.3702,-85.8209 462.3668,-86.0392"/>
</g>
<!-- Node22 -->
<g id="node23" class="node">
<title>Node22</title>
<g id="a_node23"><a xlink:href="Position_8h.html" target="_top" xlink:title="iDynTree/Core/Position.h">
<polygon fill="none" stroke="#000000" points="649.7875,-280.5 649.7875,-299.5 785.7875,-299.5 785.7875,-280.5 649.7875,-280.5"/>
<text text-anchor="middle" x="717.7875" y="-287.5" font-family="FreeSans.ttf" font-size="10.00" fill="#000000">iDynTree/Core/Position.h</text>
</a>
</g>
</g>
<!-- Node21&#45;&gt;Node22 -->
<g id="edge27" class="edge">
<title>Node21&#45;&gt;Node22</title>
<path fill="none" stroke="#191970" d="M787.9816,-336.2455C775.0619,-327.7337 756.0944,-315.2375 741.1322,-305.3801"/>
<polygon fill="#191970" stroke="#191970" points="742.6999,-302.2216 732.4237,-299.6427 738.8487,-308.067 742.6999,-302.2216"/>
</g>
<!-- Node27 -->
<g id="node28" class="node">
<title>Node27</title>
<g id="a_node28"><a xlink:href="Rotation_8h.html" target="_top" xlink:title="iDynTree/Core/Rotation.h">
<polygon fill="none" stroke="#000000" points="745.2875,-224.5 745.2875,-243.5 882.2875,-243.5 882.2875,-224.5 745.2875,-224.5"/>
<text text-anchor="middle" x="813.7875" y="-231.5" font-family="FreeSans.ttf" font-size="10.00" fill="#000000">iDynTree/Core/Rotation.h</text>
</a>
</g>
</g>
<!-- Node21&#45;&gt;Node27 -->
<g id="edge52" class="edge">
<title>Node21&#45;&gt;Node27</title>
<path fill="none" stroke="#191970" d="M803.7253,-336.4509C805.5194,-318.184 809.4704,-277.9553 811.8529,-253.6976"/>
<polygon fill="#191970" stroke="#191970" points="815.3577,-253.8191 812.852,-243.5249 808.3912,-253.1349 815.3577,-253.8191"/>
</g>
<!-- Node30 -->
<g id="node31" class="node">
<title>Node30</title>
<g id="a_node31"><a xlink:href="MatrixFixSize_8h.html" target="_top" xlink:title="iDynTree/Core/MatrixFixSize.h">
<polygon fill="none" stroke="#000000" points="973.2875,-112.5 973.2875,-131.5 1134.2875,-131.5 1134.2875,-112.5 973.2875,-112.5"/>
<text text-anchor="middle" x="1053.7875" y="-119.5" font-family="FreeSans.ttf" font-size="10.00" fill="#000000">iDynTree/Core/MatrixFixSize.h</text>
</a>
</g>
</g>
<!-- Node21&#45;&gt;Node30 -->
<g id="edge53" class="edge">
<title>Node21&#45;&gt;Node30</title>
<path fill="none" stroke="#191970" d="M813.4601,-336.2865C843.0548,-309.3772 928.7294,-231.6516 1000.7875,-168 1011.9163,-158.1695 1024.4611,-147.2733 1034.5514,-138.5542"/>
<polygon fill="#191970" stroke="#191970" points="1037.0795,-140.9957 1042.3649,-131.8134 1032.5069,-135.6955 1037.0795,-140.9957"/>
</g>
<!-- Node22&#45;&gt;Node14 -->
<g id="edge51" class="edge">
<title>Node22&#45;&gt;Node14</title>
<path fill="none" stroke="#191970" d="M671.9556,-280.422C622.192,-267.6886 543.6939,-240.4142 497.7875,-188 472.1957,-158.7804 463.835,-112.4608 461.1065,-86.1004"/>
<polygon fill="#191970" stroke="#191970" points="464.5675,-85.4943 460.2276,-75.8292 457.593,-86.0912 464.5675,-85.4943"/>
</g>
<!-- Node23 -->
<g id="node24" class="node">
<title>Node23</title>
<g id="a_node24"><a xlink:href="PositionRaw_8h.html" target="_top" xlink:title="iDynTree/Core/PositionRaw.h">
<polygon fill="none" stroke="#000000" points="506.7875,-168.5 506.7875,-187.5 662.7875,-187.5 662.7875,-168.5 506.7875,-168.5"/>
<text text-anchor="middle" x="584.7875" y="-175.5" font-family="FreeSans.ttf" font-size="10.00" fill="#000000">iDynTree/Core/PositionRaw.h</text>
</a>
</g>
</g>
<!-- Node22&#45;&gt;Node23 -->
<g id="edge28" class="edge">
<title>Node22&#45;&gt;Node23</title>
<path fill="none" stroke="#191970" d="M706.448,-280.4509C683.6762,-261.2747 632.1643,-217.8962 604.0236,-194.1988"/>
<polygon fill="#191970" stroke="#191970" points="606.0019,-191.2891 596.0983,-187.5249 601.4929,-196.6435 606.0019,-191.2891"/>
</g>
<!-- Node22&#45;&gt;Node27 -->
<g id="edge37" class="edge">
<title>Node22&#45;&gt;Node27</title>
<path fill="none" stroke="#191970" d="M734.5094,-280.2455C749.3764,-271.5731 771.334,-258.7645 788.3732,-248.825"/>
<polygon fill="#191970" stroke="#191970" points="790.3829,-251.7047 797.2572,-243.6427 786.8558,-245.6582 790.3829,-251.7047"/>
</g>
<!-- Node23&#45;&gt;Node14 -->
<g id="edge36" class="edge">
<title>Node23&#45;&gt;Node14</title>
<path fill="none" stroke="#191970" d="M574.13,-168.4509C552.728,-149.2747 504.3145,-105.8962 477.8665,-82.1988"/>
<polygon fill="#191970" stroke="#191970" points="480.2013,-79.5914 470.4179,-75.5249 475.5301,-84.8048 480.2013,-79.5914"/>
</g>
<!-- Node24 -->
<g id="node25" class="node">
<title>Node24</title>
<g id="a_node25"><a xlink:href="VectorFixSize_8h.html" target="_top" xlink:title="iDynTree/Core/VectorFixSize.h">
<polygon fill="none" stroke="#000000" points="794.2875,-112.5 794.2875,-131.5 955.2875,-131.5 955.2875,-112.5 794.2875,-112.5"/>
<text text-anchor="middle" x="874.7875" y="-119.5" font-family="FreeSans.ttf" font-size="10.00" fill="#000000">iDynTree/Core/VectorFixSize.h</text>
</a>
</g>
</g>
<!-- Node23&#45;&gt;Node24 -->
<g id="edge29" class="edge">
<title>Node23&#45;&gt;Node24</title>
<path fill="none" stroke="#191970" d="M634.3107,-168.4369C684.4633,-158.7522 762.0485,-143.7703 815.4571,-133.4569"/>
<polygon fill="#191970" stroke="#191970" points="816.3135,-136.8563 825.4685,-131.5237 814.9862,-129.9832 816.3135,-136.8563"/>
</g>
<!-- Node24&#45;&gt;Node4 -->
<g id="edge31" class="edge">
<title>Node24&#45;&gt;Node4</title>
<path fill="none" stroke="#191970" d="M834.1442,-112.4369C793.498,-102.8731 730.8962,-88.1432 687.1287,-77.845"/>
<polygon fill="#191970" stroke="#191970" points="687.7989,-74.4072 677.2631,-75.5237 686.1956,-81.2211 687.7989,-74.4072"/>
</g>
<!-- Node24&#45;&gt;Node5 -->
<g id="edge34" class="edge">
<title>Node24&#45;&gt;Node5</title>
<path fill="none" stroke="#191970" d="M877.268,-112.1696C880.8605,-98.88 888.2543,-74.6955 898.7875,-56 904.5981,-45.6867 912.6971,-35.316 919.8368,-27.039"/>
<polygon fill="#191970" stroke="#191970" points="922.4843,-29.3289 926.5365,-19.5395 917.2641,-24.6653 922.4843,-29.3289"/>
</g>
<!-- Node24&#45;&gt;Node14 -->
<g id="edge32" class="edge">
<title>Node24&#45;&gt;Node14</title>
<path fill="none" stroke="#191970" d="M803.918,-112.4369C712.9111,-100.1564 558.7825,-79.3584 492.1129,-70.362"/>
<polygon fill="#191970" stroke="#191970" points="492.1958,-66.8415 481.8175,-68.9727 491.2596,-73.7787 492.1958,-66.8415"/>
</g>
<!-- Node24&#45;&gt;Node16 -->
<g id="edge30" class="edge">
<title>Node24&#45;&gt;Node16</title>
<path fill="none" stroke="#191970" d="M794.28,-114.2134C680.1938,-103.1792 473.388,-83.1773 365.5086,-72.7433"/>
<polygon fill="#191970" stroke="#191970" points="365.6745,-69.2431 355.3839,-71.7641 365.0005,-76.2106 365.6745,-69.2431"/>
</g>
<!-- Node25 -->
<g id="node26" class="node">
<title>Node25</title>
<polygon fill="none" stroke="#bfbfbf" points="1025.7875,-56.5 1025.7875,-75.5 1081.7875,-75.5 1081.7875,-56.5 1025.7875,-56.5"/>
<text text-anchor="middle" x="1053.7875" y="-63.5" font-family="FreeSans.ttf" font-size="10.00" fill="#000000">sstream</text>
</g>
<!-- Node24&#45;&gt;Node25 -->
<g id="edge33" class="edge">
<title>Node24&#45;&gt;Node25</title>
<path fill="none" stroke="#191970" d="M905.5587,-112.3733C936.1772,-102.7943 983.2141,-88.0788 1016.0652,-77.8014"/>
<polygon fill="#191970" stroke="#191970" points="1017.2723,-81.0911 1025.7711,-74.7649 1015.1822,-74.4104 1017.2723,-81.0911"/>
</g>
<!-- Node26 -->
<g id="node27" class="node">
<title>Node26</title>
<polygon fill="none" stroke="#bfbfbf" points="907.7875,-56.5 907.7875,-75.5 957.7875,-75.5 957.7875,-56.5 907.7875,-56.5"/>
<text text-anchor="middle" x="932.7875" y="-63.5" font-family="FreeSans.ttf" font-size="10.00" fill="#000000">cstring</text>
</g>
<!-- Node24&#45;&gt;Node26 -->
<g id="edge35" class="edge">
<title>Node24&#45;&gt;Node26</title>
<path fill="none" stroke="#191970" d="M884.8903,-112.2455C893.2903,-104.1352 905.4368,-92.4075 915.3959,-82.7919"/>
<polygon fill="#191970" stroke="#191970" points="918.0375,-85.1066 922.8004,-75.6427 913.1753,-80.0707 918.0375,-85.1066"/>
</g>
<!-- Node27&#45;&gt;Node14 -->
<g id="edge38" class="edge">
<title>Node27&#45;&gt;Node14</title>
<path fill="none" stroke="#191970" d="M790.8609,-224.3909C769.6509,-215.3761 737.3364,-201.3232 709.7875,-188 692.606,-179.6907 688.8338,-176.5831 671.7875,-168 607.2811,-135.5198 530.7425,-99.2455 489.5691,-79.9145"/>
<polygon fill="#191970" stroke="#191970" points="490.9129,-76.679 480.3729,-75.6026 487.9412,-83.0169 490.9129,-76.679"/>
</g>
<!-- Node27&#45;&gt;Node24 -->
<g id="edge50" class="edge">
<title>Node27&#45;&gt;Node24</title>
<path fill="none" stroke="#191970" d="M840.7519,-224.4934C856.9589,-217.2188 876.2383,-205.4326 885.7875,-188 893.7034,-173.549 889.4703,-154.8498 884.1209,-141.0466"/>
<polygon fill="#191970" stroke="#191970" points="887.2042,-139.3612 879.9953,-131.597 880.7889,-142.1621 887.2042,-139.3612"/>
</g>
<!-- Node28 -->
<g id="node29" class="node">
<title>Node28</title>
<g id="a_node29"><a xlink:href="GeomVector3_8h.html" target="_top" xlink:title="iDynTree/Core/GeomVector3.h">
<polygon fill="none" stroke="#000000" points="1009.2875,-168.5 1009.2875,-187.5 1172.2875,-187.5 1172.2875,-168.5 1009.2875,-168.5"/>
<text text-anchor="middle" x="1090.7875" y="-175.5" font-family="FreeSans.ttf" font-size="10.00" fill="#000000">iDynTree/Core/GeomVector3.h</text>
</a>
</g>
</g>
<!-- Node27&#45;&gt;Node28 -->
<g id="edge39" class="edge">
<title>Node27&#45;&gt;Node28</title>
<path fill="none" stroke="#191970" d="M861.0907,-224.4369C908.8955,-214.7724 982.7943,-199.8326 1033.7983,-189.5213"/>
<polygon fill="#191970" stroke="#191970" points="1034.5712,-192.9359 1043.6793,-187.5237 1033.184,-186.0747 1034.5712,-192.9359"/>
</g>
<!-- Node29 -->
<g id="node30" class="node">
<title>Node29</title>
<g id="a_node30"><a xlink:href="RotationRaw_8h.html" target="_top" xlink:title="iDynTree/Core/RotationRaw.h">
<polygon fill="none" stroke="#000000" points="718.7875,-168.5 718.7875,-187.5 876.7875,-187.5 876.7875,-168.5 718.7875,-168.5"/>
<text text-anchor="middle" x="797.7875" y="-175.5" font-family="FreeSans.ttf" font-size="10.00" fill="#000000">iDynTree/Core/RotationRaw.h</text>
</a>
</g>
</g>
<!-- Node27&#45;&gt;Node29 -->
<g id="edge41" class="edge">
<title>Node27&#45;&gt;Node29</title>
<path fill="none" stroke="#191970" d="M811.0005,-224.2455C808.8897,-216.8579 805.9214,-206.4689 803.3328,-197.4087"/>
<polygon fill="#191970" stroke="#191970" points="806.6551,-196.2964 800.5425,-187.6427 799.9245,-198.2195 806.6551,-196.2964"/>
</g>
<!-- Node28&#45;&gt;Node24 -->
<g id="edge40" class="edge">
<title>Node28&#45;&gt;Node24</title>
<path fill="none" stroke="#191970" d="M1053.6558,-168.3733C1016.9608,-158.8598 960.7236,-144.2797 921.1223,-134.0127"/>
<polygon fill="#191970" stroke="#191970" points="921.993,-130.6228 911.4347,-131.5011 920.2362,-137.3988 921.993,-130.6228"/>
</g>
<!-- Node29&#45;&gt;Node14 -->
<g id="edge49" class="edge">
<title>Node29&#45;&gt;Node14</title>
<path fill="none" stroke="#191970" d="M787.5495,-168.4137C771.3314,-153.7992 738.139,-126.1556 704.7875,-112 666.8148,-95.883 549.5365,-78.2613 492.1221,-70.3132"/>
<polygon fill="#191970" stroke="#191970" points="492.5135,-66.8342 482.1309,-68.9442 491.5632,-73.7694 492.5135,-66.8342"/>
</g>
<!-- Node29&#45;&gt;Node30 -->
<g id="edge42" class="edge">
<title>Node29&#45;&gt;Node30</title>
<path fill="none" stroke="#191970" d="M841.5046,-168.4369C885.409,-158.8328 953.1287,-144.0191 1000.2325,-133.7152"/>
<polygon fill="#191970" stroke="#191970" points="1001.2297,-137.0799 1010.2507,-131.5237 999.7337,-130.2416 1001.2297,-137.0799"/>
</g>
<!-- Node30&#45;&gt;Node5 -->
<g id="edge44" class="edge">
<title>Node30&#45;&gt;Node5</title>
<path fill="none" stroke="#191970" d="M1043.7269,-112.4509C1023.6105,-93.3574 978.2145,-50.2697 953.1781,-26.5063"/>
<polygon fill="#191970" stroke="#191970" points="955.4852,-23.8706 945.8226,-19.5249 950.6662,-28.9478 955.4852,-23.8706"/>
</g>
<!-- Node30&#45;&gt;Node14 -->
<g id="edge46" class="edge">
<title>Node30&#45;&gt;Node14</title>
<path fill="none" stroke="#191970" d="M973.2656,-112.8734C970.4049,-112.5744 967.572,-112.2823 964.7875,-112 788.0825,-94.0832 743.6523,-92.2636 566.7875,-76 541.6754,-73.6908 513.2528,-71.0324 492.0158,-69.0372"/>
<polygon fill="#191970" stroke="#191970" points="492.2017,-65.5393 481.9179,-68.0877 491.5462,-72.5086 492.2017,-65.5393"/>
</g>
<!-- Node30&#45;&gt;Node16 -->
<g id="edge43" class="edge">
<title>Node30&#45;&gt;Node16</title>
<path fill="none" stroke="#191970" d="M973.2736,-112.7898C970.4106,-112.5144 967.575,-112.2501 964.7875,-112 726.9837,-90.6651 666.9439,-92.9508 428.7875,-76 408.2383,-74.5374 385.9085,-72.8836 365.5176,-71.3482"/>
<polygon fill="#191970" stroke="#191970" points="365.6017,-67.8447 355.3665,-70.5816 365.0745,-74.8248 365.6017,-67.8447"/>
</g>
<!-- Node30&#45;&gt;Node25 -->
<g id="edge48" class="edge">
<title>Node30&#45;&gt;Node25</title>
<path fill="none" stroke="#191970" d="M1053.7875,-112.2455C1053.7875,-104.9382 1053.7875,-94.6944 1053.7875,-85.7046"/>
<polygon fill="#191970" stroke="#191970" points="1057.2876,-85.6426 1053.7875,-75.6427 1050.2876,-85.6427 1057.2876,-85.6426"/>
</g>
<!-- Node30&#45;&gt;Node26 -->
<g id="edge45" class="edge">
<title>Node30&#45;&gt;Node26</title>
<path fill="none" stroke="#191970" d="M1032.9868,-112.3733C1013.5632,-103.3838 984.3651,-89.8706 962.491,-79.7471"/>
<polygon fill="#191970" stroke="#191970" points="963.8619,-76.5249 953.3167,-75.5011 960.9218,-82.8776 963.8619,-76.5249"/>
</g>
<!-- Node31 -->
<g id="node32" class="node">
<title>Node31</title>
<polygon fill="none" stroke="#bfbfbf" points="1201.7875,-56.5 1201.7875,-75.5 1261.7875,-75.5 1261.7875,-56.5 1201.7875,-56.5"/>
<text text-anchor="middle" x="1231.7875" y="-63.5" font-family="FreeSans.ttf" font-size="10.00" fill="#000000">iostream</text>
</g>
<!-- Node30&#45;&gt;Node31 -->
<g id="edge47" class="edge">
<title>Node30&#45;&gt;Node31</title>
<path fill="none" stroke="#191970" d="M1084.3868,-112.3733C1114.1136,-103.021 1159.4034,-88.7725 1191.9331,-78.5385"/>
<polygon fill="#191970" stroke="#191970" points="1193.0988,-81.8409 1201.5875,-75.5011 1190.998,-75.1636 1193.0988,-81.8409"/>
</g>
<!-- Node33&#45;&gt;Node3 -->
<g id="edge61" class="edge">
<title>Node33&#45;&gt;Node3</title>
<path fill="none" stroke="#191970" d="M862.2288,-459.3484C816.1216,-437.7026 704.3048,-385.2085 650.5777,-359.9855"/>
<polygon fill="#191970" stroke="#191970" points="651.7902,-356.6882 641.2507,-355.6068 648.8154,-363.0247 651.7902,-356.6882"/>
</g>
<!-- Node33&#45;&gt;Node16 -->
<g id="edge80" class="edge">
<title>Node33&#45;&gt;Node16</title>
<path fill="none" stroke="#191970" d="M802.2632,-463.9506C698.7017,-456.8023 524.9033,-442.4101 463.7875,-423 405.1996,-404.3927 389.1968,-396.3105 342.7875,-356 291.5164,-311.4666 250.7875,-301.9113 250.7875,-234 250.7875,-234 250.7875,-234 250.7875,-178 250.7875,-142.7698 270.1953,-105.5087 283.5198,-84.0783"/>
<polygon fill="#191970" stroke="#191970" points="286.4697,-85.9621 288.9529,-75.6623 280.5887,-82.1655 286.4697,-85.9621"/>
</g>
<!-- Node33&#45;&gt;Node20 -->
<g id="edge63" class="edge">
<title>Node33&#45;&gt;Node20</title>
<path fill="none" stroke="#191970" d="M802.1938,-465.898C706.6449,-461.0727 554.0201,-449.413 503.7875,-423 478.247,-409.5705 457.8282,-382.3589 446.2592,-364.1507"/>
<polygon fill="#191970" stroke="#191970" points="449.2253,-362.2921 441.0357,-355.5703 443.2461,-365.932 449.2253,-362.2921"/>
</g>
<!-- Node33&#45;&gt;Node21 -->
<g id="edge79" class="edge">
<title>Node33&#45;&gt;Node21</title>
<path fill="none" stroke="#191970" d="M875.7761,-459.2276C869.1939,-449.982 859.1377,-435.6726 850.7875,-423 837.7242,-403.1745 823.405,-380.0035 813.8367,-364.2983"/>
<polygon fill="#191970" stroke="#191970" points="816.7268,-362.3143 808.5468,-355.581 810.7425,-365.9458 816.7268,-362.3143"/>
</g>
<!-- Node33&#45;&gt;Node24 -->
<g id="edge62" class="edge">
<title>Node33&#45;&gt;Node24</title>
<path fill="none" stroke="#191970" d="M963.5383,-466.6245C1044.4213,-462.6178 1161.6612,-451.8615 1195.7875,-423 1243.2219,-382.8835 1238.7875,-352.1237 1238.7875,-290 1238.7875,-290 1238.7875,-290 1238.7875,-234 1238.7875,-200.5868 1230.2625,-187.015 1202.7875,-168 1193.0219,-161.2414 1059.225,-144.0447 965.5715,-132.6994"/>
<polygon fill="#191970" stroke="#191970" points="965.8494,-129.2076 955.5019,-131.4833 965.0101,-136.1571 965.8494,-129.2076"/>
</g>
<!-- Node33&#45;&gt;Node30 -->
<g id="edge64" class="edge">
<title>Node33&#45;&gt;Node30</title>
<path fill="none" stroke="#191970" d="M963.3064,-466.5121C1086.0951,-461.8778 1308.5441,-449.8479 1332.7875,-423 1365.6268,-386.6326 1416.9305,-325.8498 1227.7875,-168 1211.2417,-154.1917 1162.0073,-141.9084 1120.1157,-133.5158"/>
<polygon fill="#191970" stroke="#191970" points="1120.6891,-130.0617 1110.2027,-131.5736 1119.3431,-136.9311 1120.6891,-130.0617"/>
</g>
<!-- Node34 -->
<g id="node35" class="node">
<title>Node34</title>
<polygon fill="none" stroke="#bfbfbf" points="1246.2875,-398 1246.2875,-417 1323.2875,-417 1323.2875,-398 1246.2875,-398"/>
<text text-anchor="middle" x="1284.7875" y="-405" font-family="FreeSans.ttf" font-size="10.00" fill="#000000">Eigen/Dense</text>
</g>
<!-- Node33&#45;&gt;Node34 -->
<g id="edge60" class="edge">
<title>Node33&#45;&gt;Node34</title>
<path fill="none" stroke="#191970" d="M963.4299,-461.916C1034.5499,-454.8285 1140.7423,-442.1948 1231.7875,-423 1236.2345,-422.0625 1240.8519,-420.9406 1245.4242,-419.7349"/>
<polygon fill="#191970" stroke="#191970" points="1246.5781,-423.047 1255.278,-417.0003 1244.7062,-416.302 1246.5781,-423.047"/>
</g>
<!-- Node35 -->
<g id="node36" class="node">
<title>Node35</title>
<g id="a_node36"><a xlink:href="SpatialMotionVector_8h.html" target="_top" xlink:title="iDynTree/Core/SpatialMotion\lVector.h">
<polygon fill="none" stroke="#000000" points="1031.2875,-392.5 1031.2875,-422.5 1186.2875,-422.5 1186.2875,-392.5 1031.2875,-392.5"/>
<text text-anchor="start" x="1039.2875" y="-410.5" font-family="FreeSans.ttf" font-size="10.00" fill="#000000">iDynTree/Core/SpatialMotion</text>
<text text-anchor="middle" x="1108.7875" y="-399.5" font-family="FreeSans.ttf" font-size="10.00" fill="#000000">Vector.h</text>
</a>
</g>
</g>
<!-- Node33&#45;&gt;Node35 -->
<g id="edge65" class="edge">
<title>Node33&#45;&gt;Node35</title>
<path fill="none" stroke="#191970" d="M918.1,-459.3906C951.5892,-450.2774 1002.7229,-436.3627 1043.612,-425.2358"/>
<polygon fill="#191970" stroke="#191970" points="1044.7716,-428.5476 1053.5017,-422.5446 1042.9335,-421.7932 1044.7716,-428.5476"/>
</g>
<!-- Node37 -->
<g id="node38" class="node">
<title>Node37</title>
<g id="a_node38"><a xlink:href="SpatialForceVector_8h.html" target="_top" xlink:title="iDynTree/Core/SpatialForce\lVector.h">
<polygon fill="none" stroke="#000000" points="859.7875,-392.5 859.7875,-422.5 1007.7875,-422.5 1007.7875,-392.5 859.7875,-392.5"/>
<text text-anchor="start" x="867.7875" y="-410.5" font-family="FreeSans.ttf" font-size="10.00" fill="#000000">iDynTree/Core/SpatialForce</text>
<text text-anchor="middle" x="933.7875" y="-399.5" font-family="FreeSans.ttf" font-size="10.00" fill="#000000">Vector.h</text>
</a>
</g>
</g>
<!-- Node33&#45;&gt;Node37 -->
<g id="edge75" class="edge">
<title>Node33&#45;&gt;Node37</title>
<path fill="none" stroke="#191970" d="M890.7562,-459.3906C897.2111,-451.6068 906.5707,-440.3202 914.9136,-430.2597"/>
<polygon fill="#191970" stroke="#191970" points="917.6222,-432.4764 921.3115,-422.5446 912.2339,-428.008 917.6222,-432.4764"/>
</g>
<!-- Node35&#45;&gt;Node24 -->
<g id="edge66" class="edge">
<title>Node35&#45;&gt;Node24</title>
<path fill="none" stroke="#191970" d="M1132.003,-392.2434C1159.2572,-372.2855 1200.7875,-334.5624 1200.7875,-290 1200.7875,-290 1200.7875,-290 1200.7875,-234 1200.7875,-203.4754 1204.7438,-188.1186 1181.7875,-168 1173.4942,-160.7319 1050.2875,-143.9511 962.5139,-132.7944"/>
<polygon fill="#191970" stroke="#191970" points="962.8926,-129.3145 952.5321,-131.5304 962.0132,-136.2591 962.8926,-129.3145"/>
</g>
<!-- Node35&#45;&gt;Node28 -->
<g id="edge67" class="edge">
<title>Node35&#45;&gt;Node28</title>
<path fill="none" stroke="#191970" d="M1122.8742,-392.1152C1130.6941,-382.5028 1139.6551,-369.4322 1143.7875,-356 1146.4012,-347.5041 1145.2196,-344.7728 1143.7875,-336 1135.3179,-284.1197 1112.1744,-226.2958 1099.4517,-197.0968"/>
<polygon fill="#191970" stroke="#191970" points="1102.5368,-195.42 1095.2823,-187.6984 1096.1382,-198.2586 1102.5368,-195.42"/>
</g>
<!-- Node36 -->
<g id="node37" class="node">
<title>Node36</title>
<g id="a_node37"><a xlink:href="SpatialVector_8h.html" target="_top" xlink:title="iDynTree/Core/SpatialVector.h">
<polygon fill="none" stroke="#000000" points="973.2875,-336.5 973.2875,-355.5 1134.2875,-355.5 1134.2875,-336.5 973.2875,-336.5"/>
<text text-anchor="middle" x="1053.7875" y="-343.5" font-family="FreeSans.ttf" font-size="10.00" fill="#000000">iDynTree/Core/SpatialVector.h</text>
</a>
</g>
</g>
<!-- Node35&#45;&gt;Node36 -->
<g id="edge68" class="edge">
<title>Node35&#45;&gt;Node36</title>
<path fill="none" stroke="#191970" d="M1095.192,-392.2977C1087.3983,-383.5831 1077.5828,-372.6075 1069.4649,-363.5302"/>
<polygon fill="#191970" stroke="#191970" points="1071.8688,-360.9678 1062.5937,-355.8469 1066.651,-365.6341 1071.8688,-360.9678"/>
</g>
<!-- Node36&#45;&gt;Node16 -->
<g id="edge71" class="edge">
<title>Node36&#45;&gt;Node16</title>
<path fill="none" stroke="#191970" d="M973.1228,-340.7193C870.9172,-333.3878 700.8389,-318.8696 640.7875,-300 497.1956,-254.8801 359.22,-128.6389 312.5002,-82.8559"/>
<polygon fill="#191970" stroke="#191970" points="314.8926,-80.2993 305.3246,-75.7492 309.9668,-85.2729 314.8926,-80.2993"/>
</g>
<!-- Node36&#45;&gt;Node22 -->
<g id="edge69" class="edge">
<title>Node36&#45;&gt;Node22</title>
<path fill="none" stroke="#191970" d="M996.4088,-336.4369C937.8177,-326.6717 846.9119,-311.5207 784.9909,-301.2006"/>
<polygon fill="#191970" stroke="#191970" points="785.3689,-297.7154 774.9295,-299.5237 784.218,-304.6201 785.3689,-297.7154"/>
</g>
<!-- Node36&#45;&gt;Node25 -->
<g id="edge74" class="edge">
<title>Node36&#45;&gt;Node25</title>
<path fill="none" stroke="#191970" d="M1066.0984,-336.18C1093.3483,-313.5523 1158.2122,-254.5527 1181.7875,-188 1199.789,-137.182 1132.8576,-98.674 1089.0488,-79.5012"/>
<polygon fill="#191970" stroke="#191970" points="1090.3949,-76.2703 1079.8215,-75.5958 1087.6664,-82.7167 1090.3949,-76.2703"/>
</g>
<!-- Node36&#45;&gt;Node27 -->
<g id="edge70" class="edge">
<title>Node36&#45;&gt;Node27</title>
<path fill="none" stroke="#191970" d="M1033.3252,-336.4509C990.8164,-316.6135 892.8071,-270.8758 843.4004,-247.8194"/>
<polygon fill="#191970" stroke="#191970" points="844.7399,-244.5822 834.198,-243.5249 841.7797,-250.9254 844.7399,-244.5822"/>
</g>
<!-- Node36&#45;&gt;Node28 -->
<g id="edge72" class="edge">
<title>Node36&#45;&gt;Node28</title>
<path fill="none" stroke="#191970" d="M1055.8828,-336.4862C1061.7569,-309.8144 1078.4736,-233.9117 1086.4499,-197.695"/>
<polygon fill="#191970" stroke="#191970" points="1089.8902,-198.3467 1088.623,-187.8279 1083.054,-196.841 1089.8902,-198.3467"/>
</g>
<!-- Node36&#45;&gt;Node31 -->
<g id="edge73" class="edge">
<title>Node36&#45;&gt;Node31</title>
<path fill="none" stroke="#191970" d="M1073.6,-336.4238C1089.5456,-328.1382 1111.9878,-315.1273 1128.7875,-300 1194.9361,-240.4363 1220.6549,-130.5948 1228.6936,-85.8002"/>
<polygon fill="#191970" stroke="#191970" points="1232.1924,-86.1002 1230.4059,-75.657 1225.29,-84.9349 1232.1924,-86.1002"/>
</g>
<!-- Node37&#45;&gt;Node24 -->
<g id="edge76" class="edge">
<title>Node37&#45;&gt;Node24</title>
<path fill="none" stroke="#191970" d="M933.8188,-392.452C933.4688,-353.9748 929.8003,-249.3058 901.7875,-168 898.4124,-158.2039 892.8297,-148.1835 887.614,-140.0063"/>
<polygon fill="#191970" stroke="#191970" points="890.4967,-138.0209 882.0184,-131.6673 884.6841,-141.9213 890.4967,-138.0209"/>
</g>
<!-- Node37&#45;&gt;Node28 -->
<g id="edge77" class="edge">
<title>Node37&#45;&gt;Node28</title>
<path fill="none" stroke="#191970" d="M938.9938,-392.425C944.4314,-377.5546 953.7061,-354.4385 964.7875,-336 998.1795,-280.4387 1049.0036,-222.7772 1074.704,-194.9882"/>
<polygon fill="#191970" stroke="#191970" points="1077.276,-197.362 1081.5394,-187.6628 1072.1581,-192.5863 1077.276,-197.362"/>
</g>
<!-- Node37&#45;&gt;Node36 -->
<g id="edge78" class="edge">
<title>Node37&#45;&gt;Node36</title>
<path fill="none" stroke="#191970" d="M963.1428,-392.4554C982.3747,-382.599 1007.3487,-369.7999 1026.2116,-360.1327"/>
<polygon fill="#191970" stroke="#191970" points="1027.8887,-363.206 1035.1917,-355.5303 1024.6961,-356.9765 1027.8887,-363.206"/>
</g>
</g>
</svg>
