<?xml version="1.0" encoding="UTF-8" standalone="no"?>
<!DOCTYPE svg PUBLIC "-//W3C//DTD SVG 1.1//EN"
 "http://www.w3.org/Graphics/SVG/1.1/DTD/svg11.dtd">
<!-- Generated by graphviz version 2.40.1 (20161225.0304)
 -->
<!-- Title: LinearCost.h Pages: 1 -->
<svg width="972pt" height="532pt"
 viewBox="0.00 0.00 972.00 532.00" xmlns="http://www.w3.org/2000/svg" xmlns:xlink="http://www.w3.org/1999/xlink">
<g id="graph0" class="graph" transform="scale(1 1) rotate(0) translate(4 528)">
<title>LinearCost.h</title>
<!-- Node0 -->
<g id="node1" class="node">
<title>Node0</title>
<polygon fill="#bfbfbf" stroke="#000000" points="179,-504.5 179,-523.5 256,-523.5 256,-504.5 179,-504.5"/>
<text text-anchor="middle" x="217.5" y="-511.5" font-family="FreeSans.ttf" font-size="10.00" fill="#000000">LinearCost.h</text>
</g>
<!-- Node1 -->
<g id="node2" class="node">
<title>Node1</title>
<g id="a_node2"><a xlink:href="QuadraticLikeCost_8h.html" target="_top" xlink:title="iDynTree/QuadraticLikeCost.h">
<polygon fill="none" stroke="#000000" points="83,-448.5 83,-467.5 244,-467.5 244,-448.5 83,-448.5"/>
<text text-anchor="middle" x="163.5" y="-455.5" font-family="FreeSans.ttf" font-size="10.00" fill="#000000">iDynTree/QuadraticLikeCost.h</text>
</a>
</g>
</g>
<!-- Node0&#45;&gt;Node1 -->
<g id="edge1" class="edge">
<title>Node0&#45;&gt;Node1</title>
<path fill="none" stroke="#191970" d="M208.0939,-504.2455C200.3507,-496.2155 189.188,-484.6394 179.9682,-475.0781"/>
<polygon fill="#191970" stroke="#191970" points="182.2591,-472.4117 172.7983,-467.6427 177.2202,-477.2706 182.2591,-472.4117"/>
</g>
<!-- Node9 -->
<g id="node10" class="node">
<title>Node9</title>
<g id="a_node10"><a xlink:href="TimeVaryingObject_8h.html" target="_top" xlink:title="iDynTree/TimeVaryingObject.h">
<polygon fill="none" stroke="#000000" points="200.5,-392.5 200.5,-411.5 364.5,-411.5 364.5,-392.5 200.5,-392.5"/>
<text text-anchor="middle" x="282.5" y="-399.5" font-family="FreeSans.ttf" font-size="10.00" fill="#000000">iDynTree/TimeVaryingObject.h</text>
</a>
</g>
</g>
<!-- Node0&#45;&gt;Node9 -->
<g id="edge56" class="edge">
<title>Node0&#45;&gt;Node9</title>
<path fill="none" stroke="#191970" d="M225.9666,-504.2297C233.5184,-495.2182 244.5742,-481.2666 252.5,-468 261.4647,-452.9944 269.5316,-434.8465 275.0366,-421.3815"/>
<polygon fill="#191970" stroke="#191970" points="278.4291,-422.3219 278.8705,-411.7362 271.9242,-419.7362 278.4291,-422.3219"/>
</g>
<!-- Node2 -->
<g id="node3" class="node">
<title>Node2</title>
<g id="a_node3"><a xlink:href="Cost_8h.html" target="_top" xlink:title="iDynTree/Cost.h">
<polygon fill="none" stroke="#000000" points="35,-168.5 35,-187.5 128,-187.5 128,-168.5 35,-168.5"/>
<text text-anchor="middle" x="81.5" y="-175.5" font-family="FreeSans.ttf" font-size="10.00" fill="#000000">iDynTree/Cost.h</text>
</a>
</g>
</g>
<!-- Node1&#45;&gt;Node2 -->
<g id="edge2" class="edge">
<title>Node1&#45;&gt;Node2</title>
<path fill="none" stroke="#191970" d="M149.5898,-448.3601C126.1949,-430.8875 81.5,-391.5468 81.5,-346 81.5,-346 81.5,-346 81.5,-290 81.5,-257.7116 81.5,-220.1872 81.5,-197.8048"/>
<polygon fill="#191970" stroke="#191970" points="85.0001,-197.5883 81.5,-187.5884 78.0001,-197.5884 85.0001,-197.5883"/>
</g>
<!-- Node1&#45;&gt;Node9 -->
<g id="edge11" class="edge">
<title>Node1&#45;&gt;Node9</title>
<path fill="none" stroke="#191970" d="M183.9568,-448.3733C202.9738,-439.4241 231.5175,-425.9917 252.9976,-415.8835"/>
<polygon fill="#191970" stroke="#191970" points="254.7522,-418.926 262.3101,-411.5011 251.7716,-412.5923 254.7522,-418.926"/>
</g>
<!-- Node32 -->
<g id="node33" class="node">
<title>Node32</title>
<polygon fill="none" stroke="#bfbfbf" points="124.5,-392.5 124.5,-411.5 182.5,-411.5 182.5,-392.5 124.5,-392.5"/>
<text text-anchor="middle" x="153.5" y="-399.5" font-family="FreeSans.ttf" font-size="10.00" fill="#000000">memory</text>
</g>
<!-- Node1&#45;&gt;Node32 -->
<g id="edge55" class="edge">
<title>Node1&#45;&gt;Node32</title>
<path fill="none" stroke="#191970" d="M161.7581,-448.2455C160.4533,-440.9382 158.624,-430.6944 157.0187,-421.7046"/>
<polygon fill="#191970" stroke="#191970" points="160.4254,-420.8717 155.2219,-411.6427 153.5344,-422.1022 160.4254,-420.8717"/>
</g>
<!-- Node3 -->
<g id="node4" class="node">
<title>Node3</title>
<polygon fill="none" stroke="#bfbfbf" points="313.5,-56.5 313.5,-75.5 357.5,-75.5 357.5,-56.5 313.5,-56.5"/>
<text text-anchor="middle" x="335.5" y="-63.5" font-family="FreeSans.ttf" font-size="10.00" fill="#000000">string</text>
</g>
<!-- Node2&#45;&gt;Node3 -->
<g id="edge3" class="edge">
<title>Node2&#45;&gt;Node3</title>
<path fill="none" stroke="#191970" d="M98.2546,-168.2743C122.0588,-154.6776 167.2533,-129.6726 207.5,-112 239.5667,-97.9193 277.4401,-84.7143 303.6291,-76.0964"/>
<polygon fill="#191970" stroke="#191970" points="304.9744,-79.3393 313.3998,-72.9156 302.8075,-72.6831 304.9744,-79.3393"/>
</g>
<!-- Node4 -->
<g id="node5" class="node">
<title>Node4</title>
<g id="a_node5"><a xlink:href="SparsityStructure_8h.html" target="_top" xlink:title="iDynTree/SparsityStructure.h">
<polygon fill="none" stroke="#000000" points="0,-112.5 0,-131.5 155,-131.5 155,-112.5 0,-112.5"/>
<text text-anchor="middle" x="77.5" y="-119.5" font-family="FreeSans.ttf" font-size="10.00" fill="#000000">iDynTree/SparsityStructure.h</text>
</a>
</g>
</g>
<!-- Node2&#45;&gt;Node4 -->
<g id="edge4" class="edge">
<title>Node2&#45;&gt;Node4</title>
<path fill="none" stroke="#191970" d="M80.8033,-168.2455C80.2813,-160.9382 79.5496,-150.6944 78.9075,-141.7046"/>
<polygon fill="#191970" stroke="#191970" points="82.3924,-141.3679 78.1888,-131.6427 75.4102,-141.8667 82.3924,-141.3679"/>
</g>
<!-- Node4&#45;&gt;Node3 -->
<g id="edge10" class="edge">
<title>Node4&#45;&gt;Node3</title>
<path fill="none" stroke="#191970" d="M121.5586,-112.4369C173.2313,-101.2211 257.6364,-82.9006 303.4585,-72.9548"/>
<polygon fill="#191970" stroke="#191970" points="304.4003,-76.3319 313.4303,-70.7903 302.9155,-69.4912 304.4003,-76.3319"/>
</g>
<!-- Node5 -->
<g id="node6" class="node">
<title>Node5</title>
<g id="a_node6"><a xlink:href="Utils_8h.html" target="_top" xlink:title="iDynTree/Core/Utils.h">
<polygon fill="none" stroke="#000000" points="386,-56.5 386,-75.5 505,-75.5 505,-56.5 386,-56.5"/>
<text text-anchor="middle" x="445.5" y="-63.5" font-family="FreeSans.ttf" font-size="10.00" fill="#000000">iDynTree/Core/Utils.h</text>
</a>
</g>
</g>
<!-- Node4&#45;&gt;Node5 -->
<g id="edge5" class="edge">
<title>Node4&#45;&gt;Node5</title>
<path fill="none" stroke="#191970" d="M140.3433,-112.4369C205.7554,-102.4829 307.9419,-86.9328 375.7945,-76.6074"/>
<polygon fill="#191970" stroke="#191970" points="376.6034,-80.0246 385.963,-75.06 375.5503,-73.1043 376.6034,-80.0246"/>
</g>
<!-- Node6 -->
<g id="node7" class="node">
<title>Node6</title>
<polygon fill="none" stroke="#bfbfbf" points="252,-.5 252,-19.5 305,-19.5 305,-.5 252,-.5"/>
<text text-anchor="middle" x="278.5" y="-7.5" font-family="FreeSans.ttf" font-size="10.00" fill="#000000">cstddef</text>
</g>
<!-- Node4&#45;&gt;Node6 -->
<g id="edge8" class="edge">
<title>Node4&#45;&gt;Node6</title>
<path fill="none" stroke="#191970" d="M98.9569,-112.4011C118.429,-103.5049 147.7876,-89.6264 172.5,-76 201.7698,-59.8605 234.233,-39.2211 255.4255,-25.3567"/>
<polygon fill="#191970" stroke="#191970" points="257.6172,-28.1043 264.0465,-19.6832 253.769,-22.2569 257.6172,-28.1043"/>
</g>
<!-- Node7 -->
<g id="node8" class="node">
<title>Node7</title>
<polygon fill="none" stroke="#bfbfbf" points="12,-56.5 12,-75.5 59,-75.5 59,-56.5 12,-56.5"/>
<text text-anchor="middle" x="35.5" y="-63.5" font-family="FreeSans.ttf" font-size="10.00" fill="#000000">vector</text>
</g>
<!-- Node4&#45;&gt;Node7 -->
<g id="edge7" class="edge">
<title>Node4&#45;&gt;Node7</title>
<path fill="none" stroke="#191970" d="M70.1842,-112.2455C64.2821,-104.3761 55.8258,-93.101 48.7406,-83.6542"/>
<polygon fill="#191970" stroke="#191970" points="51.5321,-81.5427 42.732,-75.6427 45.932,-85.7427 51.5321,-81.5427"/>
</g>
<!-- Node8 -->
<g id="node9" class="node">
<title>Node8</title>
<polygon fill="none" stroke="#bfbfbf" points="77.5,-56.5 77.5,-75.5 163.5,-75.5 163.5,-56.5 77.5,-56.5"/>
<text text-anchor="middle" x="120.5" y="-63.5" font-family="FreeSans.ttf" font-size="10.00" fill="#000000">unordered_set</text>
</g>
<!-- Node4&#45;&gt;Node8 -->
<g id="edge9" class="edge">
<title>Node4&#45;&gt;Node8</title>
<path fill="none" stroke="#191970" d="M84.99,-112.2455C91.0326,-104.3761 99.6903,-93.101 106.9441,-83.6542"/>
<polygon fill="#191970" stroke="#191970" points="109.7815,-85.7058 113.0958,-75.6427 104.2295,-81.4426 109.7815,-85.7058"/>
</g>
<!-- Node5&#45;&gt;Node6 -->
<g id="edge6" class="edge">
<title>Node5&#45;&gt;Node6</title>
<path fill="none" stroke="#191970" d="M416.7917,-56.3733C388.6396,-46.933 345.6104,-32.5041 315.0336,-22.2508"/>
<polygon fill="#191970" stroke="#191970" points="315.7749,-18.8079 305.181,-18.9469 313.5493,-25.4447 315.7749,-18.8079"/>
</g>
<!-- Node10 -->
<g id="node11" class="node">
<title>Node10</title>
<g id="a_node11"><a xlink:href="VectorDynSize_8h.html" target="_top" xlink:title="iDynTree/Core/VectorDynSize.h">
<polygon fill="none" stroke="#000000" points="439,-112.5 439,-131.5 606,-131.5 606,-112.5 439,-112.5"/>
<text text-anchor="middle" x="522.5" y="-119.5" font-family="FreeSans.ttf" font-size="10.00" fill="#000000">iDynTree/Core/VectorDynSize.h</text>
</a>
</g>
</g>
<!-- Node9&#45;&gt;Node10 -->
<g id="edge12" class="edge">
<title>Node9&#45;&gt;Node10</title>
<path fill="none" stroke="#191970" d="M364.5468,-396.5487C541.5691,-383.6866 943.5,-348.0872 943.5,-290 943.5,-290 943.5,-290 943.5,-234 943.5,-203.4754 947.8029,-187.7162 924.5,-168 921.5648,-165.5166 734.4791,-144.8998 616.5941,-132.1243"/>
<polygon fill="#191970" stroke="#191970" points="616.7879,-128.6249 606.4692,-131.0279 616.0342,-135.5842 616.7879,-128.6249"/>
</g>
<!-- Node20 -->
<g id="node21" class="node">
<title>Node20</title>
<g id="a_node21"><a xlink:href="MatrixDynSize_8h.html" target="_top" xlink:title="iDynTree/Core/MatrixDynSize.h">
<polygon fill="none" stroke="#000000" points="109,-280.5 109,-299.5 276,-299.5 276,-280.5 109,-280.5"/>
<text text-anchor="middle" x="192.5" y="-287.5" font-family="FreeSans.ttf" font-size="10.00" fill="#000000">iDynTree/Core/MatrixDynSize.h</text>
</a>
</g>
</g>
<!-- Node9&#45;&gt;Node20 -->
<g id="edge24" class="edge">
<title>Node9&#45;&gt;Node20</title>
<path fill="none" stroke="#191970" d="M274.8267,-392.4509C259.6829,-373.6054 225.7557,-331.3849 206.5158,-307.4419"/>
<polygon fill="#191970" stroke="#191970" points="209.1462,-305.1276 200.1539,-299.5249 203.6896,-309.5124 209.1462,-305.1276"/>
</g>
<!-- Node21 -->
<g id="node22" class="node">
<title>Node21</title>
<g id="a_node22"><a xlink:href="Transform_8h.html" target="_top" xlink:title="iDynTree/Core/Transform.h">
<polygon fill="none" stroke="#000000" points="330.5,-336.5 330.5,-355.5 476.5,-355.5 476.5,-336.5 330.5,-336.5"/>
<text text-anchor="middle" x="403.5" y="-343.5" font-family="FreeSans.ttf" font-size="10.00" fill="#000000">iDynTree/Core/Transform.h</text>
</a>
</g>
</g>
<!-- Node9&#45;&gt;Node21 -->
<g id="edge26" class="edge">
<title>Node9&#45;&gt;Node21</title>
<path fill="none" stroke="#191970" d="M303.3006,-392.3733C322.7243,-383.3838 351.9224,-369.8706 373.7964,-359.7471"/>
<polygon fill="#191970" stroke="#191970" points="375.3656,-362.8776 382.9708,-355.5011 372.4255,-356.5249 375.3656,-362.8776"/>
</g>
<!-- Node10&#45;&gt;Node3 -->
<g id="edge23" class="edge">
<title>Node10&#45;&gt;Node3</title>
<path fill="none" stroke="#191970" d="M490.3536,-112.3733C456.0007,-102.0858 401.8645,-85.8739 367.5491,-75.5976"/>
<polygon fill="#191970" stroke="#191970" points="368.1634,-72.1281 357.5797,-72.6121 366.1552,-78.8338 368.1634,-72.1281"/>
</g>
<!-- Node11 -->
<g id="node12" class="node">
<title>Node11</title>
<g id="a_node12"><a xlink:href="Span_8h.html" target="_top" xlink:title="iDynTree/Core/Span.h">
<polygon fill="none" stroke="#000000" points="528,-56.5 528,-75.5 649,-75.5 649,-56.5 528,-56.5"/>
<text text-anchor="middle" x="588.5" y="-63.5" font-family="FreeSans.ttf" font-size="10.00" fill="#000000">iDynTree/Core/Span.h</text>
</a>
</g>
</g>
<!-- Node10&#45;&gt;Node11 -->
<g id="edge13" class="edge">
<title>Node10&#45;&gt;Node11</title>
<path fill="none" stroke="#191970" d="M533.9963,-112.2455C543.7442,-103.9746 557.9259,-91.9416 569.3798,-82.2232"/>
<polygon fill="#191970" stroke="#191970" points="571.7747,-84.7813 577.1354,-75.6427 567.2459,-79.4437 571.7747,-84.7813"/>
</g>
<!-- Node11&#45;&gt;Node6 -->
<g id="edge17" class="edge">
<title>Node11&#45;&gt;Node6</title>
<path fill="none" stroke="#191970" d="M527.7455,-57.6636C474.2741,-49.9042 394.1516,-37.2552 315.2704,-19.9814"/>
<polygon fill="#191970" stroke="#191970" points="315.6787,-16.487 305.1582,-17.7397 314.1636,-23.3211 315.6787,-16.487"/>
</g>
<!-- Node12 -->
<g id="node13" class="node">
<title>Node12</title>
<polygon fill="none" stroke="#bfbfbf" points="832.5,-.5 832.5,-19.5 884.5,-19.5 884.5,-.5 832.5,-.5"/>
<text text-anchor="middle" x="858.5" y="-7.5" font-family="FreeSans.ttf" font-size="10.00" fill="#000000">cassert</text>
</g>
<!-- Node11&#45;&gt;Node12 -->
<g id="edge14" class="edge">
<title>Node11&#45;&gt;Node12</title>
<path fill="none" stroke="#191970" d="M644.3417,-56.4494C689.8979,-48.3445 756.1023,-35.856 822.4089,-20.1213"/>
<polygon fill="#191970" stroke="#191970" points="823.2817,-23.5114 832.1901,-17.7764 821.6497,-16.7042 823.2817,-23.5114"/>
</g>
<!-- Node13 -->
<g id="node14" class="node">
<title>Node13</title>
<polygon fill="none" stroke="#bfbfbf" points="556.5,-.5 556.5,-19.5 620.5,-19.5 620.5,-.5 556.5,-.5"/>
<text text-anchor="middle" x="588.5" y="-7.5" font-family="FreeSans.ttf" font-size="10.00" fill="#000000">algorithm</text>
</g>
<!-- Node11&#45;&gt;Node13 -->
<g id="edge15" class="edge">
<title>Node11&#45;&gt;Node13</title>
<path fill="none" stroke="#191970" d="M588.5,-56.2455C588.5,-48.9382 588.5,-38.6944 588.5,-29.7046"/>
<polygon fill="#191970" stroke="#191970" points="592.0001,-29.6426 588.5,-19.6427 585.0001,-29.6427 592.0001,-29.6426"/>
</g>
<!-- Node14 -->
<g id="node15" class="node">
<title>Node14</title>
<polygon fill="none" stroke="#bfbfbf" points="638.5,-.5 638.5,-19.5 680.5,-19.5 680.5,-.5 638.5,-.5"/>
<text text-anchor="middle" x="659.5" y="-7.5" font-family="FreeSans.ttf" font-size="10.00" fill="#000000">array</text>
</g>
<!-- Node11&#45;&gt;Node14 -->
<g id="edge16" class="edge">
<title>Node11&#45;&gt;Node14</title>
<path fill="none" stroke="#191970" d="M600.8673,-56.2455C611.4554,-47.8943 626.9064,-35.7076 639.2893,-25.9408"/>
<polygon fill="#191970" stroke="#191970" points="641.5903,-28.5837 647.2745,-19.6427 637.2553,-23.0875 641.5903,-28.5837"/>
</g>
<!-- Node15 -->
<g id="node16" class="node">
<title>Node15</title>
<polygon fill="none" stroke="#bfbfbf" points="699,-.5 699,-19.5 752,-19.5 752,-.5 699,-.5"/>
<text text-anchor="middle" x="725.5" y="-7.5" font-family="FreeSans.ttf" font-size="10.00" fill="#000000">iterator</text>
</g>
<!-- Node11&#45;&gt;Node15 -->
<g id="edge18" class="edge">
<title>Node11&#45;&gt;Node15</title>
<path fill="none" stroke="#191970" d="M612.0511,-56.3733C634.3391,-47.2629 667.9937,-33.5062 692.8637,-23.3404"/>
<polygon fill="#191970" stroke="#191970" points="694.3239,-26.5247 702.2562,-19.5011 691.6753,-20.0451 694.3239,-26.5247"/>
</g>
<!-- Node16 -->
<g id="node17" class="node">
<title>Node16</title>
<polygon fill="none" stroke="#bfbfbf" points="770.5,-.5 770.5,-19.5 814.5,-19.5 814.5,-.5 770.5,-.5"/>
<text text-anchor="middle" x="792.5" y="-7.5" font-family="FreeSans.ttf" font-size="10.00" fill="#000000">limits</text>
</g>
<!-- Node11&#45;&gt;Node16 -->
<g id="edge19" class="edge">
<title>Node11&#45;&gt;Node16</title>
<path fill="none" stroke="#191970" d="M626.7967,-56.4281C659.8987,-48.0183 709.2302,-35.162 760.5832,-20.1727"/>
<polygon fill="#191970" stroke="#191970" points="761.5842,-23.5266 770.192,-17.3496 759.6109,-16.8105 761.5842,-23.5266"/>
</g>
<!-- Node17 -->
<g id="node18" class="node">
<title>Node17</title>
<polygon fill="none" stroke="#bfbfbf" points="323,-.5 323,-19.5 388,-19.5 388,-.5 323,-.5"/>
<text text-anchor="middle" x="355.5" y="-7.5" font-family="FreeSans.ttf" font-size="10.00" fill="#000000">stdexcept</text>
</g>
<!-- Node11&#45;&gt;Node17 -->
<g id="edge20" class="edge">
<title>Node11&#45;&gt;Node17</title>
<path fill="none" stroke="#191970" d="M548.7106,-56.4369C506.8361,-46.3726 441.1591,-30.5876 398.2147,-20.2662"/>
<polygon fill="#191970" stroke="#191970" points="398.8897,-16.8288 388.3486,-17.8949 397.2538,-23.635 398.8897,-16.8288"/>
</g>
<!-- Node18 -->
<g id="node19" class="node">
<title>Node18</title>
<polygon fill="none" stroke="#bfbfbf" points="406,-.5 406,-19.5 475,-19.5 475,-.5 406,-.5"/>
<text text-anchor="middle" x="440.5" y="-7.5" font-family="FreeSans.ttf" font-size="10.00" fill="#000000">type_traits</text>
</g>
<!-- Node11&#45;&gt;Node18 -->
<g id="edge21" class="edge">
<title>Node11&#45;&gt;Node18</title>
<path fill="none" stroke="#191970" d="M563.0579,-56.3733C538.7674,-47.1822 501.9792,-33.2624 475.0457,-23.0713"/>
<polygon fill="#191970" stroke="#191970" points="476.2016,-19.7666 465.6101,-19.5011 473.7243,-26.3136 476.2016,-19.7666"/>
</g>
<!-- Node19 -->
<g id="node20" class="node">
<title>Node19</title>
<polygon fill="none" stroke="#bfbfbf" points="493,-.5 493,-19.5 538,-19.5 538,-.5 493,-.5"/>
<text text-anchor="middle" x="515.5" y="-7.5" font-family="FreeSans.ttf" font-size="10.00" fill="#000000">utility</text>
</g>
<!-- Node11&#45;&gt;Node19 -->
<g id="edge22" class="edge">
<title>Node11&#45;&gt;Node19</title>
<path fill="none" stroke="#191970" d="M575.7844,-56.2455C564.898,-47.8943 549.0117,-35.7076 536.28,-25.9408"/>
<polygon fill="#191970" stroke="#191970" points="538.1346,-22.9523 528.0699,-19.6427 533.8739,-28.5063 538.1346,-22.9523"/>
</g>
<!-- Node20&#45;&gt;Node3 -->
<g id="edge25" class="edge">
<title>Node20&#45;&gt;Node3</title>
<path fill="none" stroke="#191970" d="M198.6445,-280.375C220.5546,-246.0543 295.0808,-129.3139 323.947,-84.097"/>
<polygon fill="#191970" stroke="#191970" points="326.9475,-85.9014 329.3784,-75.5891 321.0473,-82.1347 326.9475,-85.9014"/>
</g>
<!-- Node21&#45;&gt;Node3 -->
<g id="edge54" class="edge">
<title>Node21&#45;&gt;Node3</title>
<path fill="none" stroke="#191970" d="M374.8817,-336.4942C357.866,-329.2706 337.5129,-317.5398 326.5,-300 283.4523,-231.4398 312.8176,-127.9609 327.9904,-85.3656"/>
<polygon fill="#191970" stroke="#191970" points="331.3027,-86.4995 331.4894,-75.9063 324.7374,-84.071 331.3027,-86.4995"/>
</g>
<!-- Node22 -->
<g id="node23" class="node">
<title>Node22</title>
<g id="a_node23"><a xlink:href="Position_8h.html" target="_top" xlink:title="iDynTree/Core/Position.h">
<polygon fill="none" stroke="#000000" points="335.5,-280.5 335.5,-299.5 471.5,-299.5 471.5,-280.5 335.5,-280.5"/>
<text text-anchor="middle" x="403.5" y="-287.5" font-family="FreeSans.ttf" font-size="10.00" fill="#000000">iDynTree/Core/Position.h</text>
</a>
</g>
</g>
<!-- Node21&#45;&gt;Node22 -->
<g id="edge27" class="edge">
<title>Node21&#45;&gt;Node22</title>
<path fill="none" stroke="#191970" d="M403.5,-336.2455C403.5,-328.9382 403.5,-318.6944 403.5,-309.7046"/>
<polygon fill="#191970" stroke="#191970" points="407.0001,-309.6426 403.5,-299.6427 400.0001,-309.6427 407.0001,-309.6426"/>
</g>
<!-- Node27 -->
<g id="node28" class="node">
<title>Node27</title>
<g id="a_node28"><a xlink:href="Rotation_8h.html" target="_top" xlink:title="iDynTree/Core/Rotation.h">
<polygon fill="none" stroke="#000000" points="496,-224.5 496,-243.5 633,-243.5 633,-224.5 496,-224.5"/>
<text text-anchor="middle" x="564.5" y="-231.5" font-family="FreeSans.ttf" font-size="10.00" fill="#000000">iDynTree/Core/Rotation.h</text>
</a>
</g>
</g>
<!-- Node21&#45;&gt;Node27 -->
<g id="edge52" class="edge">
<title>Node21&#45;&gt;Node27</title>
<path fill="none" stroke="#191970" d="M421.0192,-336.3813C436.8878,-327.4717 460.7383,-313.5848 480.5,-300 503.5363,-284.1642 528.5653,-264.0965 545.2549,-250.2698"/>
<polygon fill="#191970" stroke="#191970" points="547.7343,-252.7593 553.1675,-243.6637 543.248,-247.3858 547.7343,-252.7593"/>
</g>
<!-- Node30 -->
<g id="node31" class="node">
<title>Node30</title>
<g id="a_node31"><a xlink:href="MatrixFixSize_8h.html" target="_top" xlink:title="iDynTree/Core/MatrixFixSize.h">
<polygon fill="none" stroke="#000000" points="803,-112.5 803,-131.5 964,-131.5 964,-112.5 803,-112.5"/>
<text text-anchor="middle" x="883.5" y="-119.5" font-family="FreeSans.ttf" font-size="10.00" fill="#000000">iDynTree/Core/MatrixFixSize.h</text>
</a>
</g>
</g>
<!-- Node21&#45;&gt;Node30 -->
<g id="edge53" class="edge">
<title>Node21&#45;&gt;Node30</title>
<path fill="none" stroke="#191970" d="M465.8848,-336.4498C591.8229,-315.7615 869.1774,-262.5879 924.5,-188 936.5439,-171.762 920.4328,-151.9155 905.0053,-138.2513"/>
<polygon fill="#191970" stroke="#191970" points="907.0795,-135.424 897.1528,-131.7211 902.6037,-140.8062 907.0795,-135.424"/>
</g>
<!-- Node22&#45;&gt;Node3 -->
<g id="edge51" class="edge">
<title>Node22&#45;&gt;Node3</title>
<path fill="none" stroke="#191970" d="M390.9008,-280.403C370.6137,-264.0594 331.4705,-228.6205 316.5,-188 303.6575,-153.1535 316.8996,-109.5962 326.8022,-85.078"/>
<polygon fill="#191970" stroke="#191970" points="330.0485,-86.3879 330.7559,-75.8167 323.6106,-83.6395 330.0485,-86.3879"/>
</g>
<!-- Node23 -->
<g id="node24" class="node">
<title>Node23</title>
<g id="a_node24"><a xlink:href="PositionRaw_8h.html" target="_top" xlink:title="iDynTree/Core/PositionRaw.h">
<polygon fill="none" stroke="#000000" points="325.5,-168.5 325.5,-187.5 481.5,-187.5 481.5,-168.5 325.5,-168.5"/>
<text text-anchor="middle" x="403.5" y="-175.5" font-family="FreeSans.ttf" font-size="10.00" fill="#000000">iDynTree/Core/PositionRaw.h</text>
</a>
</g>
</g>
<!-- Node22&#45;&gt;Node23 -->
<g id="edge28" class="edge">
<title>Node22&#45;&gt;Node23</title>
<path fill="none" stroke="#191970" d="M403.5,-280.4509C403.5,-262.184 403.5,-221.9553 403.5,-197.6976"/>
<polygon fill="#191970" stroke="#191970" points="407.0001,-197.5249 403.5,-187.5249 400.0001,-197.5249 407.0001,-197.5249"/>
</g>
<!-- Node22&#45;&gt;Node27 -->
<g id="edge37" class="edge">
<title>Node22&#45;&gt;Node27</title>
<path fill="none" stroke="#191970" d="M431.1769,-280.3733C457.8328,-271.1016 498.3238,-257.0178 527.6884,-246.804"/>
<polygon fill="#191970" stroke="#191970" points="528.8891,-250.0921 537.1843,-243.5011 526.5895,-243.4807 528.8891,-250.0921"/>
</g>
<!-- Node23&#45;&gt;Node3 -->
<g id="edge36" class="edge">
<title>Node23&#45;&gt;Node3</title>
<path fill="none" stroke="#191970" d="M392.0044,-168.4572C382.2149,-159.8095 368.3655,-146.2679 359.5,-132 350.4621,-117.4546 344.1171,-99.003 340.2307,-85.3097"/>
<polygon fill="#191970" stroke="#191970" points="343.5799,-84.2844 337.6364,-75.5137 336.8131,-86.0765 343.5799,-84.2844"/>
</g>
<!-- Node24 -->
<g id="node25" class="node">
<title>Node24</title>
<g id="a_node25"><a xlink:href="VectorFixSize_8h.html" target="_top" xlink:title="iDynTree/Core/VectorFixSize.h">
<polygon fill="none" stroke="#000000" points="624,-112.5 624,-131.5 785,-131.5 785,-112.5 624,-112.5"/>
<text text-anchor="middle" x="704.5" y="-119.5" font-family="FreeSans.ttf" font-size="10.00" fill="#000000">iDynTree/Core/VectorFixSize.h</text>
</a>
</g>
</g>
<!-- Node23&#45;&gt;Node24 -->
<g id="edge29" class="edge">
<title>Node23&#45;&gt;Node24</title>
<path fill="none" stroke="#191970" d="M454.9017,-168.4369C507.0649,-158.7321 587.8197,-143.708 643.2646,-133.3926"/>
<polygon fill="#191970" stroke="#191970" points="644.1192,-136.7938 653.3103,-131.5237 642.8388,-129.9119 644.1192,-136.7938"/>
</g>
<!-- Node24&#45;&gt;Node3 -->
<g id="edge32" class="edge">
<title>Node24&#45;&gt;Node3</title>
<path fill="none" stroke="#191970" d="M623.8603,-112.799C557.4638,-104.7101 461.0137,-91.78 377.5,-76 374.2593,-75.3877 370.8919,-74.6904 367.5371,-73.9555"/>
<polygon fill="#191970" stroke="#191970" points="368.1791,-70.5119 357.6495,-71.6852 366.6125,-77.3344 368.1791,-70.5119"/>
</g>
<!-- Node24&#45;&gt;Node5 -->
<g id="edge30" class="edge">
<title>Node24&#45;&gt;Node5</title>
<path fill="none" stroke="#191970" d="M660.2706,-112.4369C615.7585,-102.8127 547.051,-87.957 499.3831,-77.6504"/>
<polygon fill="#191970" stroke="#191970" points="500.0608,-74.2161 489.547,-75.5237 498.5814,-81.058 500.0608,-74.2161"/>
</g>
<!-- Node24&#45;&gt;Node11 -->
<g id="edge31" class="edge">
<title>Node24&#45;&gt;Node11</title>
<path fill="none" stroke="#191970" d="M684.5589,-112.3733C666.0214,-103.4241 638.1972,-89.9917 617.2587,-79.8835"/>
<polygon fill="#191970" stroke="#191970" points="618.7081,-76.6967 608.1809,-75.5011 615.6648,-83.0006 618.7081,-76.6967"/>
</g>
<!-- Node24&#45;&gt;Node12 -->
<g id="edge34" class="edge">
<title>Node24&#45;&gt;Node12</title>
<path fill="none" stroke="#191970" d="M700.8088,-112.3726C696.1522,-98.4416 690.1437,-72.5258 702.5,-56 703.4284,-54.7583 776.5747,-33.5503 822.365,-20.3695"/>
<polygon fill="#191970" stroke="#191970" points="823.599,-23.6566 832.2419,-17.5288 821.6641,-16.9293 823.599,-23.6566"/>
</g>
<!-- Node25 -->
<g id="node26" class="node">
<title>Node25</title>
<polygon fill="none" stroke="#bfbfbf" points="711.5,-56.5 711.5,-75.5 767.5,-75.5 767.5,-56.5 711.5,-56.5"/>
<text text-anchor="middle" x="739.5" y="-63.5" font-family="FreeSans.ttf" font-size="10.00" fill="#000000">sstream</text>
</g>
<!-- Node24&#45;&gt;Node25 -->
<g id="edge33" class="edge">
<title>Node24&#45;&gt;Node25</title>
<path fill="none" stroke="#191970" d="M710.5965,-112.2455C715.4145,-104.5367 722.2751,-93.5598 728.1032,-84.2348"/>
<polygon fill="#191970" stroke="#191970" points="731.1413,-85.9777 733.4733,-75.6427 725.2053,-82.2677 731.1413,-85.9777"/>
</g>
<!-- Node26 -->
<g id="node27" class="node">
<title>Node26</title>
<polygon fill="none" stroke="#bfbfbf" points="785.5,-56.5 785.5,-75.5 835.5,-75.5 835.5,-56.5 785.5,-56.5"/>
<text text-anchor="middle" x="810.5" y="-63.5" font-family="FreeSans.ttf" font-size="10.00" fill="#000000">cstring</text>
</g>
<!-- Node24&#45;&gt;Node26 -->
<g id="edge35" class="edge">
<title>Node24&#45;&gt;Node26</title>
<path fill="none" stroke="#191970" d="M722.9638,-112.2455C739.6074,-103.4527 764.2993,-90.4079 783.2192,-80.4125"/>
<polygon fill="#191970" stroke="#191970" points="785.0408,-83.4086 792.2478,-75.6427 781.7709,-77.2193 785.0408,-83.4086"/>
</g>
<!-- Node27&#45;&gt;Node3 -->
<g id="edge38" class="edge">
<title>Node27&#45;&gt;Node3</title>
<path fill="none" stroke="#191970" d="M555.8531,-224.1827C542.9085,-210.0152 517.151,-183.8076 490.5,-168 449.5125,-143.6888 428.4583,-159.4457 389.5,-132 371.6291,-119.4102 356.4088,-99.3868 346.7268,-84.6933"/>
<polygon fill="#191970" stroke="#191970" points="349.4942,-82.5209 341.1918,-75.9389 343.5775,-86.2617 349.4942,-82.5209"/>
</g>
<!-- Node27&#45;&gt;Node24 -->
<g id="edge50" class="edge">
<title>Node27&#45;&gt;Node24</title>
<path fill="none" stroke="#191970" d="M615.8482,-224.4847C653.1528,-216.4058 699.0269,-203.6439 710.5,-188 720.26,-174.692 717.1992,-155.577 712.6207,-141.3403"/>
<polygon fill="#191970" stroke="#191970" points="715.7628,-139.7459 709.0108,-131.5813 709.1975,-142.1745 715.7628,-139.7459"/>
</g>
<!-- Node28 -->
<g id="node29" class="node">
<title>Node28</title>
<g id="a_node29"><a xlink:href="GeomVector3_8h.html" target="_top" xlink:title="iDynTree/Core/GeomVector3.h">
<polygon fill="none" stroke="#000000" points="538,-168.5 538,-187.5 701,-187.5 701,-168.5 538,-168.5"/>
<text text-anchor="middle" x="619.5" y="-175.5" font-family="FreeSans.ttf" font-size="10.00" fill="#000000">iDynTree/Core/GeomVector3.h</text>
</a>
</g>
</g>
<!-- Node27&#45;&gt;Node28 -->
<g id="edge39" class="edge">
<title>Node27&#45;&gt;Node28</title>
<path fill="none" stroke="#191970" d="M574.0803,-224.2455C582.0458,-216.1352 593.5641,-204.4075 603.0079,-194.7919"/>
<polygon fill="#191970" stroke="#191970" points="605.5195,-197.2297 610.0295,-187.6427 600.5253,-192.3247 605.5195,-197.2297"/>
</g>
<!-- Node29 -->
<g id="node30" class="node">
<title>Node29</title>
<g id="a_node30"><a xlink:href="RotationRaw_8h.html" target="_top" xlink:title="iDynTree/Core/RotationRaw.h">
<polygon fill="none" stroke="#000000" points="757.5,-168.5 757.5,-187.5 915.5,-187.5 915.5,-168.5 757.5,-168.5"/>
<text text-anchor="middle" x="836.5" y="-175.5" font-family="FreeSans.ttf" font-size="10.00" fill="#000000">iDynTree/Core/RotationRaw.h</text>
</a>
</g>
</g>
<!-- Node27&#45;&gt;Node29 -->
<g id="edge41" class="edge">
<title>Node27&#45;&gt;Node29</title>
<path fill="none" stroke="#191970" d="M610.9494,-224.4369C657.7935,-214.7925 730.1539,-199.8948 780.2262,-189.5858"/>
<polygon fill="#191970" stroke="#191970" points="781.1534,-192.9684 790.2422,-187.5237 779.7418,-186.1122 781.1534,-192.9684"/>
</g>
<!-- Node28&#45;&gt;Node24 -->
<g id="edge40" class="edge">
<title>Node28&#45;&gt;Node24</title>
<path fill="none" stroke="#191970" d="M634.3059,-168.2455C647.2256,-159.7337 666.1931,-147.2375 681.1552,-137.3801"/>
<polygon fill="#191970" stroke="#191970" points="683.4387,-140.067 689.8638,-131.6427 679.5876,-134.2216 683.4387,-140.067"/>
</g>
<!-- Node29&#45;&gt;Node3 -->
<g id="edge49" class="edge">
<title>Node29&#45;&gt;Node3</title>
<path fill="none" stroke="#191970" d="M757.384,-171.136C647.9123,-161.3177 460.2924,-143.214 430.5,-132 400.7799,-120.8132 371.5299,-98.2655 353.5081,-82.6596"/>
<polygon fill="#191970" stroke="#191970" points="355.4088,-79.6661 345.6102,-75.6364 350.7571,-84.897 355.4088,-79.6661"/>
</g>
<!-- Node29&#45;&gt;Node30 -->
<g id="edge42" class="edge">
<title>Node29&#45;&gt;Node30</title>
<path fill="none" stroke="#191970" d="M844.6868,-168.2455C851.3589,-160.2958 860.9479,-148.8706 868.9253,-139.3656"/>
<polygon fill="#191970" stroke="#191970" points="871.6592,-141.5525 875.407,-131.6427 866.2974,-137.0524 871.6592,-141.5525"/>
</g>
<!-- Node30&#45;&gt;Node3 -->
<g id="edge46" class="edge">
<title>Node30&#45;&gt;Node3</title>
<path fill="none" stroke="#191970" d="M802.9796,-112.8587C800.1184,-112.5638 797.285,-112.2766 794.5,-112 609.3882,-93.6131 561.1487,-105.624 377.5,-76 374.2441,-75.4748 370.8666,-74.8347 367.5057,-74.1348"/>
<polygon fill="#191970" stroke="#191970" points="368.1342,-70.6888 357.61,-71.9103 366.5989,-77.5184 368.1342,-70.6888"/>
</g>
<!-- Node30&#45;&gt;Node5 -->
<g id="edge43" class="edge">
<title>Node30&#45;&gt;Node5</title>
<path fill="none" stroke="#191970" d="M806.782,-112.4996C733.0998,-103.3292 618.6604,-88.9654 519.5,-76 518.1985,-75.8298 516.8841,-75.6575 515.5601,-75.4834"/>
<polygon fill="#191970" stroke="#191970" points="515.6412,-71.9637 505.2685,-74.1218 514.7231,-78.9032 515.6412,-71.9637"/>
</g>
<!-- Node30&#45;&gt;Node12 -->
<g id="edge44" class="edge">
<title>Node30&#45;&gt;Node12</title>
<path fill="none" stroke="#191970" d="M896.1931,-112.3661C911.2521,-99.6918 933.0664,-76.6071 922.5,-56 915.567,-42.4789 902.6064,-32.0326 890.1519,-24.5377"/>
<polygon fill="#191970" stroke="#191970" points="891.7072,-21.3979 881.266,-19.6001 888.3072,-27.5168 891.7072,-21.3979"/>
</g>
<!-- Node30&#45;&gt;Node25 -->
<g id="edge48" class="edge">
<title>Node30&#45;&gt;Node25</title>
<path fill="none" stroke="#191970" d="M858.7455,-112.3733C835.2151,-103.2226 799.6313,-89.3844 773.4574,-79.2057"/>
<polygon fill="#191970" stroke="#191970" points="774.5201,-75.8636 763.9315,-75.5011 771.9829,-82.3877 774.5201,-75.8636"/>
</g>
<!-- Node30&#45;&gt;Node26 -->
<g id="edge45" class="edge">
<title>Node30&#45;&gt;Node26</title>
<path fill="none" stroke="#191970" d="M870.7844,-112.2455C859.898,-103.8943 844.0117,-91.7076 831.28,-81.9408"/>
<polygon fill="#191970" stroke="#191970" points="833.1346,-78.9523 823.0699,-75.6427 828.8739,-84.5063 833.1346,-78.9523"/>
</g>
<!-- Node31 -->
<g id="node32" class="node">
<title>Node31</title>
<polygon fill="none" stroke="#bfbfbf" points="853.5,-56.5 853.5,-75.5 913.5,-75.5 913.5,-56.5 853.5,-56.5"/>
<text text-anchor="middle" x="883.5" y="-63.5" font-family="FreeSans.ttf" font-size="10.00" fill="#000000">iostream</text>
</g>
<!-- Node30&#45;&gt;Node31 -->
<g id="edge47" class="edge">
<title>Node30&#45;&gt;Node31</title>
<path fill="none" stroke="#191970" d="M883.5,-112.2455C883.5,-104.9382 883.5,-94.6944 883.5,-85.7046"/>
<polygon fill="#191970" stroke="#191970" points="887.0001,-85.6426 883.5,-75.6427 880.0001,-85.6427 887.0001,-85.6426"/>
</g>
</g>
</svg>
