<?xml version="1.0" encoding="UTF-8" standalone="no"?>
<!DOCTYPE svg PUBLIC "-//W3C//DTD SVG 1.1//EN"
 "http://www.w3.org/Graphics/SVG/1.1/DTD/svg11.dtd">
<!-- Generated by graphviz version 2.40.1 (20161225.0304)
 -->
<!-- Title: Link.h Pages: 1 -->
<svg width="1055pt" height="621pt"
 viewBox="0.00 0.00 1054.50 621.00" xmlns="http://www.w3.org/2000/svg" xmlns:xlink="http://www.w3.org/1999/xlink">
<g id="graph0" class="graph" transform="scale(1 1) rotate(0) translate(4 617)">
<title>Link.h</title>
<!-- Node0 -->
<g id="node1" class="node">
<title>Node0</title>
<polygon fill="#bfbfbf" stroke="#000000" points="316,-593.5 316,-612.5 362,-612.5 362,-593.5 316,-593.5"/>
<text text-anchor="middle" x="339" y="-600.5" font-family="FreeSans.ttf" font-size="10.00" fill="#000000">Link.h</text>
</g>
<!-- Node1 -->
<g id="node2" class="node">
<title>Node1</title>
<g id="a_node2"><a xlink:href="SpatialInertia_8h.html" target="_top" xlink:title="iDynTree/Core/SpatialInertia.h">
<polygon fill="none" stroke="#000000" points="529,-537.5 529,-556.5 691,-556.5 691,-537.5 529,-537.5"/>
<text text-anchor="middle" x="610" y="-544.5" font-family="FreeSans.ttf" font-size="10.00" fill="#000000">iDynTree/Core/SpatialInertia.h</text>
</a>
</g>
</g>
<!-- Node0&#45;&gt;Node1 -->
<g id="edge1" class="edge">
<title>Node0&#45;&gt;Node1</title>
<path fill="none" stroke="#191970" d="M362.1053,-598.2255C404.2734,-589.5118 494.8084,-570.8034 554.0097,-558.57"/>
<polygon fill="#191970" stroke="#191970" points="554.8694,-561.9663 563.9542,-556.515 553.4528,-555.1112 554.8694,-561.9663"/>
</g>
<!-- Node33 -->
<g id="node34" class="node">
<title>Node33</title>
<g id="a_node34"><a xlink:href="Indices_8h.html" target="_top" xlink:title="iDynTree/Model/Indices.h">
<polygon fill="none" stroke="#000000" points="0,-280.5 0,-299.5 138,-299.5 138,-280.5 0,-280.5"/>
<text text-anchor="middle" x="69" y="-287.5" font-family="FreeSans.ttf" font-size="10.00" fill="#000000">iDynTree/Model/Indices.h</text>
</a>
</g>
</g>
<!-- Node0&#45;&gt;Node33 -->
<g id="edge60" class="edge">
<title>Node0&#45;&gt;Node33</title>
<path fill="none" stroke="#191970" d="M315.6617,-601.4745C258.6641,-596.3596 117,-574.6768 117,-485.5 117,-485.5 117,-485.5 117,-418.5 117,-377.0569 94.8192,-332.5783 80.6137,-308.342"/>
<polygon fill="#191970" stroke="#191970" points="83.453,-306.274 75.2752,-299.538 77.4674,-309.9035 83.453,-306.274"/>
</g>
<!-- Node2 -->
<g id="node3" class="node">
<title>Node2</title>
<g id="a_node3"><a xlink:href="SpatialInertiaRaw_8h.html" target="_top" xlink:title="iDynTree/Core/SpatialInertia\lRaw.h">
<polygon fill="none" stroke="#000000" points="893.5,-470.5 893.5,-500.5 1046.5,-500.5 1046.5,-470.5 893.5,-470.5"/>
<text text-anchor="start" x="901.5" y="-488.5" font-family="FreeSans.ttf" font-size="10.00" fill="#000000">iDynTree/Core/SpatialInertia</text>
<text text-anchor="middle" x="970" y="-477.5" font-family="FreeSans.ttf" font-size="10.00" fill="#000000">Raw.h</text>
</a>
</g>
</g>
<!-- Node1&#45;&gt;Node2 -->
<g id="edge2" class="edge">
<title>Node1&#45;&gt;Node2</title>
<path fill="none" stroke="#191970" d="M665.855,-537.4581C723.9011,-527.5419 815.5297,-511.8887 883.057,-500.3528"/>
<polygon fill="#191970" stroke="#191970" points="883.9904,-503.7441 893.2582,-498.6101 882.8116,-496.8441 883.9904,-503.7441"/>
</g>
<!-- Node12 -->
<g id="node13" class="node">
<title>Node12</title>
<g id="a_node13"><a xlink:href="VectorFixSize_8h.html" target="_top" xlink:title="iDynTree/Core/VectorFixSize.h">
<polygon fill="none" stroke="#000000" points="413.5,-112.5 413.5,-131.5 574.5,-131.5 574.5,-112.5 413.5,-112.5"/>
<text text-anchor="middle" x="494" y="-119.5" font-family="FreeSans.ttf" font-size="10.00" fill="#000000">iDynTree/Core/VectorFixSize.h</text>
</a>
</g>
</g>
<!-- Node1&#45;&gt;Node12 -->
<g id="edge12" class="edge">
<title>Node1&#45;&gt;Node12</title>
<path fill="none" stroke="#191970" d="M691.1382,-540.5508C750.4114,-534.163 824.091,-522.1796 846,-501 873.0525,-474.8482 865,-456.1265 865,-418.5 865,-418.5 865,-418.5 865,-234 865,-175.6067 694.4316,-144.9083 584.6029,-131.1942"/>
<polygon fill="#191970" stroke="#191970" points="584.8524,-127.6987 574.5015,-129.9592 584.0028,-134.647 584.8524,-127.6987"/>
</g>
<!-- Node21 -->
<g id="node22" class="node">
<title>Node21</title>
<g id="a_node22"><a xlink:href="Twist_8h.html" target="_top" xlink:title="iDynTree/Core/Twist.h">
<polygon fill="none" stroke="#000000" points="549,-476 549,-495 671,-495 671,-476 549,-476"/>
<text text-anchor="middle" x="610" y="-483" font-family="FreeSans.ttf" font-size="10.00" fill="#000000">iDynTree/Core/Twist.h</text>
</a>
</g>
</g>
<!-- Node1&#45;&gt;Node21 -->
<g id="edge28" class="edge">
<title>Node1&#45;&gt;Node21</title>
<path fill="none" stroke="#191970" d="M610,-537.3906C610,-528.8657 610,-516.1392 610,-505.4235"/>
<polygon fill="#191970" stroke="#191970" points="613.5001,-505.2448 610,-495.2449 606.5001,-505.2449 613.5001,-505.2448"/>
</g>
<!-- Node29 -->
<g id="node30" class="node">
<title>Node29</title>
<g id="a_node30"><a xlink:href="SpatialMomentum_8h.html" target="_top" xlink:title="iDynTree/Core/SpatialMomentum.h">
<polygon fill="none" stroke="#000000" points="193,-476 193,-495 379,-495 379,-476 193,-476"/>
<text text-anchor="middle" x="286" y="-483" font-family="FreeSans.ttf" font-size="10.00" fill="#000000">iDynTree/Core/SpatialMomentum.h</text>
</a>
</g>
</g>
<!-- Node1&#45;&gt;Node29 -->
<g id="edge51" class="edge">
<title>Node1&#45;&gt;Node29</title>
<path fill="none" stroke="#191970" d="M559.7305,-537.4581C502.0631,-526.512 407.567,-508.5752 346.0722,-496.9026"/>
<polygon fill="#191970" stroke="#191970" points="346.5982,-493.44 336.1209,-495.0137 345.2927,-500.3172 346.5982,-493.44"/>
</g>
<!-- Node31 -->
<g id="node32" class="node">
<title>Node31</title>
<g id="a_node32"><a xlink:href="SpatialAcc_8h.html" target="_top" xlink:title="iDynTree/Core/SpatialAcc.h">
<polygon fill="none" stroke="#000000" points="689,-476 689,-495 837,-495 837,-476 689,-476"/>
<text text-anchor="middle" x="763" y="-483" font-family="FreeSans.ttf" font-size="10.00" fill="#000000">iDynTree/Core/SpatialAcc.h</text>
</a>
</g>
</g>
<!-- Node1&#45;&gt;Node31 -->
<g id="edge56" class="edge">
<title>Node1&#45;&gt;Node31</title>
<path fill="none" stroke="#191970" d="M633.9063,-537.3906C659.7305,-527.0103 701.0527,-510.4004 729.9705,-498.7766"/>
<polygon fill="#191970" stroke="#191970" points="731.2885,-502.019 739.2616,-495.0419 728.6778,-495.5241 731.2885,-502.019"/>
</g>
<!-- Node32 -->
<g id="node33" class="node">
<title>Node32</title>
<g id="a_node33"><a xlink:href="Wrench_8h.html" target="_top" xlink:title="iDynTree/Core/Wrench.h">
<polygon fill="none" stroke="#000000" points="397.5,-476 397.5,-495 530.5,-495 530.5,-476 397.5,-476"/>
<text text-anchor="middle" x="464" y="-483" font-family="FreeSans.ttf" font-size="10.00" fill="#000000">iDynTree/Core/Wrench.h</text>
</a>
</g>
</g>
<!-- Node1&#45;&gt;Node32 -->
<g id="edge58" class="edge">
<title>Node1&#45;&gt;Node32</title>
<path fill="none" stroke="#191970" d="M587.1875,-537.3906C562.6519,-527.0554 523.4558,-510.5447 495.8789,-498.9284"/>
<polygon fill="#191970" stroke="#191970" points="497.2268,-495.6984 486.6523,-495.0419 494.5094,-502.1495 497.2268,-495.6984"/>
</g>
<!-- Node3 -->
<g id="node4" class="node">
<title>Node3</title>
<g id="a_node4"><a xlink:href="RotationalInertiaRaw_8h.html" target="_top" xlink:title="iDynTree/Core/Rotational\lInertiaRaw.h">
<polygon fill="none" stroke="#000000" points="897.5,-336.5 897.5,-366.5 1034.5,-366.5 1034.5,-336.5 897.5,-336.5"/>
<text text-anchor="start" x="905.5" y="-354.5" font-family="FreeSans.ttf" font-size="10.00" fill="#000000">iDynTree/Core/Rotational</text>
<text text-anchor="middle" x="966" y="-343.5" font-family="FreeSans.ttf" font-size="10.00" fill="#000000">InertiaRaw.h</text>
</a>
</g>
</g>
<!-- Node2&#45;&gt;Node3 -->
<g id="edge3" class="edge">
<title>Node2&#45;&gt;Node3</title>
<path fill="none" stroke="#191970" d="M969.5489,-470.389C968.8707,-447.6691 967.5802,-404.438 966.7564,-376.8405"/>
<polygon fill="#191970" stroke="#191970" points="970.2525,-376.6525 966.4556,-366.7614 963.2556,-376.8614 970.2525,-376.6525"/>
</g>
<!-- Node4 -->
<g id="node5" class="node">
<title>Node4</title>
<g id="a_node5"><a xlink:href="MatrixFixSize_8h.html" target="_top" xlink:title="iDynTree/Core/MatrixFixSize.h">
<polygon fill="none" stroke="#000000" points="631.5,-112.5 631.5,-131.5 792.5,-131.5 792.5,-112.5 631.5,-112.5"/>
<text text-anchor="middle" x="712" y="-119.5" font-family="FreeSans.ttf" font-size="10.00" fill="#000000">iDynTree/Core/MatrixFixSize.h</text>
</a>
</g>
</g>
<!-- Node3&#45;&gt;Node4 -->
<g id="edge4" class="edge">
<title>Node3&#45;&gt;Node4</title>
<path fill="none" stroke="#191970" d="M963.2475,-336.3023C956.0661,-301.1361 933.4082,-213.6813 879,-168 862.989,-154.5571 815.1098,-142.1476 774.7009,-133.6142"/>
<polygon fill="#191970" stroke="#191970" points="775.3814,-130.181 764.8799,-131.5841 773.9643,-137.0361 775.3814,-130.181"/>
</g>
<!-- Node5 -->
<g id="node6" class="node">
<title>Node5</title>
<g id="a_node6"><a xlink:href="Utils_8h.html" target="_top" xlink:title="iDynTree/Core/Utils.h">
<polygon fill="none" stroke="#000000" points="702.5,-56.5 702.5,-75.5 821.5,-75.5 821.5,-56.5 702.5,-56.5"/>
<text text-anchor="middle" x="762" y="-63.5" font-family="FreeSans.ttf" font-size="10.00" fill="#000000">iDynTree/Core/Utils.h</text>
</a>
</g>
</g>
<!-- Node4&#45;&gt;Node5 -->
<g id="edge5" class="edge">
<title>Node4&#45;&gt;Node5</title>
<path fill="none" stroke="#191970" d="M720.7093,-112.2455C727.8073,-104.2958 738.0084,-92.8706 746.495,-83.3656"/>
<polygon fill="#191970" stroke="#191970" points="749.3411,-85.4331 753.3905,-75.6427 744.1195,-80.771 749.3411,-85.4331"/>
</g>
<!-- Node7 -->
<g id="node8" class="node">
<title>Node7</title>
<polygon fill="none" stroke="#bfbfbf" points="618,-.5 618,-19.5 670,-19.5 670,-.5 618,-.5"/>
<text text-anchor="middle" x="644" y="-7.5" font-family="FreeSans.ttf" font-size="10.00" fill="#000000">cassert</text>
</g>
<!-- Node4&#45;&gt;Node7 -->
<g id="edge7" class="edge">
<title>Node4&#45;&gt;Node7</title>
<path fill="none" stroke="#191970" d="M706.2024,-112.4509C694.8608,-93.7707 669.5751,-52.1238 654.9748,-28.0761"/>
<polygon fill="#191970" stroke="#191970" points="657.9646,-26.2563 649.783,-19.5249 651.981,-29.8892 657.9646,-26.2563"/>
</g>
<!-- Node8 -->
<g id="node9" class="node">
<title>Node8</title>
<polygon fill="none" stroke="#bfbfbf" points="522,-56.5 522,-75.5 572,-75.5 572,-56.5 522,-56.5"/>
<text text-anchor="middle" x="547" y="-63.5" font-family="FreeSans.ttf" font-size="10.00" fill="#000000">cstring</text>
</g>
<!-- Node4&#45;&gt;Node8 -->
<g id="edge8" class="edge">
<title>Node4&#45;&gt;Node8</title>
<path fill="none" stroke="#191970" d="M683.6355,-112.3733C655.4067,-102.7926 612.0382,-88.0736 581.7557,-77.7959"/>
<polygon fill="#191970" stroke="#191970" points="582.6228,-74.3941 572.0284,-74.4945 580.373,-81.0228 582.6228,-74.3941"/>
</g>
<!-- Node9 -->
<g id="node10" class="node">
<title>Node9</title>
<polygon fill="none" stroke="#bfbfbf" points="258,-56.5 258,-75.5 302,-75.5 302,-56.5 258,-56.5"/>
<text text-anchor="middle" x="280" y="-63.5" font-family="FreeSans.ttf" font-size="10.00" fill="#000000">string</text>
</g>
<!-- Node4&#45;&gt;Node9 -->
<g id="edge9" class="edge">
<title>Node4&#45;&gt;Node9</title>
<path fill="none" stroke="#191970" d="M631.2854,-113.5326C554.8223,-105.1848 436.8596,-91.4607 335,-76 327.5457,-74.8686 319.5506,-73.5029 312.0294,-72.1494"/>
<polygon fill="#191970" stroke="#191970" points="312.6305,-68.7013 302.1623,-70.3343 311.364,-75.5858 312.6305,-68.7013"/>
</g>
<!-- Node10 -->
<g id="node11" class="node">
<title>Node10</title>
<polygon fill="none" stroke="#bfbfbf" points="875,-56.5 875,-75.5 935,-75.5 935,-56.5 875,-56.5"/>
<text text-anchor="middle" x="905" y="-63.5" font-family="FreeSans.ttf" font-size="10.00" fill="#000000">iostream</text>
</g>
<!-- Node4&#45;&gt;Node10 -->
<g id="edge10" class="edge">
<title>Node4&#45;&gt;Node10</title>
<path fill="none" stroke="#191970" d="M745.1779,-112.3733C778.3335,-102.753 829.3445,-87.9519 864.7846,-77.6687"/>
<polygon fill="#191970" stroke="#191970" points="866.1638,-80.913 874.7924,-74.7649 864.2131,-74.1902 866.1638,-80.913"/>
</g>
<!-- Node11 -->
<g id="node12" class="node">
<title>Node11</title>
<polygon fill="none" stroke="#bfbfbf" points="590,-56.5 590,-75.5 646,-75.5 646,-56.5 590,-56.5"/>
<text text-anchor="middle" x="618" y="-63.5" font-family="FreeSans.ttf" font-size="10.00" fill="#000000">sstream</text>
</g>
<!-- Node4&#45;&gt;Node11 -->
<g id="edge11" class="edge">
<title>Node4&#45;&gt;Node11</title>
<path fill="none" stroke="#191970" d="M695.6264,-112.2455C681.0692,-103.5731 659.569,-90.7645 642.8848,-80.825"/>
<polygon fill="#191970" stroke="#191970" points="644.5683,-77.7539 634.1859,-75.6427 640.9856,-83.7676 644.5683,-77.7539"/>
</g>
<!-- Node6 -->
<g id="node7" class="node">
<title>Node6</title>
<polygon fill="none" stroke="#bfbfbf" points="727.5,-.5 727.5,-19.5 780.5,-19.5 780.5,-.5 727.5,-.5"/>
<text text-anchor="middle" x="754" y="-7.5" font-family="FreeSans.ttf" font-size="10.00" fill="#000000">cstddef</text>
</g>
<!-- Node5&#45;&gt;Node6 -->
<g id="edge6" class="edge">
<title>Node5&#45;&gt;Node6</title>
<path fill="none" stroke="#191970" d="M760.6065,-56.2455C759.5626,-48.9382 758.0992,-38.6944 756.8149,-29.7046"/>
<polygon fill="#191970" stroke="#191970" points="760.2566,-29.0472 755.3775,-19.6427 753.327,-30.0372 760.2566,-29.0472"/>
</g>
<!-- Node12&#45;&gt;Node5 -->
<g id="edge13" class="edge">
<title>Node12&#45;&gt;Node5</title>
<path fill="none" stroke="#191970" d="M539.7663,-112.4369C585.9215,-102.7925 657.2178,-87.8948 706.5537,-77.5858"/>
<polygon fill="#191970" stroke="#191970" points="707.3498,-80.9951 716.4224,-75.5237 705.9179,-74.1431 707.3498,-80.9951"/>
</g>
<!-- Node12&#45;&gt;Node7 -->
<g id="edge26" class="edge">
<title>Node12&#45;&gt;Node7</title>
<path fill="none" stroke="#191970" d="M494.1335,-112.1293C494.858,-97.8952 498.2653,-71.6056 513,-56 519.7879,-48.8109 571.686,-31.9415 608.0824,-20.7534"/>
<polygon fill="#191970" stroke="#191970" points="609.3438,-24.0278 617.8866,-17.7612 607.3004,-17.3327 609.3438,-24.0278"/>
</g>
<!-- Node12&#45;&gt;Node8 -->
<g id="edge27" class="edge">
<title>Node12&#45;&gt;Node8</title>
<path fill="none" stroke="#191970" d="M503.2319,-112.2455C510.8317,-104.2155 521.7877,-92.6394 530.8368,-83.0781"/>
<polygon fill="#191970" stroke="#191970" points="533.5421,-85.3115 537.8739,-75.6427 528.458,-80.4998 533.5421,-85.3115"/>
</g>
<!-- Node12&#45;&gt;Node9 -->
<g id="edge24" class="edge">
<title>Node12&#45;&gt;Node9</title>
<path fill="none" stroke="#191970" d="M457.2121,-112.3733C416.2938,-101.6657 350.8491,-84.5399 311.9822,-74.3692"/>
<polygon fill="#191970" stroke="#191970" points="312.7961,-70.9644 302.2358,-71.8187 311.024,-77.7364 312.7961,-70.9644"/>
</g>
<!-- Node12&#45;&gt;Node11 -->
<g id="edge25" class="edge">
<title>Node12&#45;&gt;Node11</title>
<path fill="none" stroke="#191970" d="M515.3164,-112.3733C535.2216,-103.3838 565.1436,-89.8706 587.56,-79.7471"/>
<polygon fill="#191970" stroke="#191970" points="589.2887,-82.8068 596.9618,-75.5011 586.4075,-76.4272 589.2887,-82.8068"/>
</g>
<!-- Node13 -->
<g id="node14" class="node">
<title>Node13</title>
<g id="a_node14"><a xlink:href="Span_8h.html" target="_top" xlink:title="iDynTree/Core/Span.h">
<polygon fill="none" stroke="#000000" points="344.5,-56.5 344.5,-75.5 465.5,-75.5 465.5,-56.5 344.5,-56.5"/>
<text text-anchor="middle" x="405" y="-63.5" font-family="FreeSans.ttf" font-size="10.00" fill="#000000">iDynTree/Core/Span.h</text>
</a>
</g>
</g>
<!-- Node12&#45;&gt;Node13 -->
<g id="edge14" class="edge">
<title>Node12&#45;&gt;Node13</title>
<path fill="none" stroke="#191970" d="M478.4974,-112.2455C464.842,-103.6534 444.7343,-91.0014 429.0011,-81.1018"/>
<polygon fill="#191970" stroke="#191970" points="430.6529,-78.006 420.325,-75.6427 426.9249,-83.9307 430.6529,-78.006"/>
</g>
<!-- Node13&#45;&gt;Node6 -->
<g id="edge18" class="edge">
<title>Node13&#45;&gt;Node6</title>
<path fill="none" stroke="#191970" d="M464.5987,-56.4369C536.9598,-44.8259 656.7738,-25.6008 717.0104,-15.9353"/>
<polygon fill="#191970" stroke="#191970" points="717.8738,-19.3416 727.1929,-14.3014 716.7647,-12.43 717.8738,-19.3416"/>
</g>
<!-- Node13&#45;&gt;Node7 -->
<g id="edge15" class="edge">
<title>Node13&#45;&gt;Node7</title>
<path fill="none" stroke="#191970" d="M449.8984,-56.4753C491.1313,-47.5744 553.862,-33.6446 608,-20 608.0983,-19.9752 608.1967,-19.9504 608.2953,-19.9255"/>
<polygon fill="#191970" stroke="#191970" points="608.9055,-23.3838 617.6928,-17.4648 607.1323,-16.6121 608.9055,-23.3838"/>
</g>
<!-- Node14 -->
<g id="node15" class="node">
<title>Node14</title>
<polygon fill="none" stroke="#bfbfbf" points="404,-.5 404,-19.5 468,-19.5 468,-.5 404,-.5"/>
<text text-anchor="middle" x="436" y="-7.5" font-family="FreeSans.ttf" font-size="10.00" fill="#000000">algorithm</text>
</g>
<!-- Node13&#45;&gt;Node14 -->
<g id="edge16" class="edge">
<title>Node13&#45;&gt;Node14</title>
<path fill="none" stroke="#191970" d="M410.3998,-56.2455C414.6227,-48.617 420.6173,-37.7881 425.7441,-28.5267"/>
<polygon fill="#191970" stroke="#191970" points="428.881,-30.0867 430.6621,-19.6427 422.7568,-26.6965 428.881,-30.0867"/>
</g>
<!-- Node15 -->
<g id="node16" class="node">
<title>Node15</title>
<polygon fill="none" stroke="#bfbfbf" points="486,-.5 486,-19.5 528,-19.5 528,-.5 486,-.5"/>
<text text-anchor="middle" x="507" y="-7.5" font-family="FreeSans.ttf" font-size="10.00" fill="#000000">array</text>
</g>
<!-- Node13&#45;&gt;Node15 -->
<g id="edge17" class="edge">
<title>Node13&#45;&gt;Node15</title>
<path fill="none" stroke="#191970" d="M422.767,-56.2455C438.7095,-47.4928 462.3259,-34.527 480.4989,-24.5496"/>
<polygon fill="#191970" stroke="#191970" points="482.3552,-27.5233 489.4366,-19.6427 478.9863,-21.3873 482.3552,-27.5233"/>
</g>
<!-- Node16 -->
<g id="node17" class="node">
<title>Node16</title>
<polygon fill="none" stroke="#bfbfbf" points="546.5,-.5 546.5,-19.5 599.5,-19.5 599.5,-.5 546.5,-.5"/>
<text text-anchor="middle" x="573" y="-7.5" font-family="FreeSans.ttf" font-size="10.00" fill="#000000">iterator</text>
</g>
<!-- Node13&#45;&gt;Node16 -->
<g id="edge19" class="edge">
<title>Node13&#45;&gt;Node16</title>
<path fill="none" stroke="#191970" d="M433.8802,-56.3733C462.4087,-46.8638 506.1237,-32.2921 536.9226,-22.0258"/>
<polygon fill="#191970" stroke="#191970" points="538.0528,-25.3385 546.4328,-18.8557 535.8391,-18.6977 538.0528,-25.3385"/>
</g>
<!-- Node17 -->
<g id="node18" class="node">
<title>Node17</title>
<polygon fill="none" stroke="#bfbfbf" points="108,-.5 108,-19.5 152,-19.5 152,-.5 108,-.5"/>
<text text-anchor="middle" x="130" y="-7.5" font-family="FreeSans.ttf" font-size="10.00" fill="#000000">limits</text>
</g>
<!-- Node13&#45;&gt;Node17 -->
<g id="edge20" class="edge">
<title>Node13&#45;&gt;Node17</title>
<path fill="none" stroke="#191970" d="M344.3734,-56.7477C297.0469,-49.0297 229.5192,-36.9343 162.1843,-20.071"/>
<polygon fill="#191970" stroke="#191970" points="162.8074,-16.6181 152.2535,-17.5483 161.084,-23.4027 162.8074,-16.6181"/>
</g>
<!-- Node18 -->
<g id="node19" class="node">
<title>Node18</title>
<polygon fill="none" stroke="#bfbfbf" points="170.5,-.5 170.5,-19.5 235.5,-19.5 235.5,-.5 170.5,-.5"/>
<text text-anchor="middle" x="203" y="-7.5" font-family="FreeSans.ttf" font-size="10.00" fill="#000000">stdexcept</text>
</g>
<!-- Node13&#45;&gt;Node18 -->
<g id="edge21" class="edge">
<title>Node13&#45;&gt;Node18</title>
<path fill="none" stroke="#191970" d="M370.275,-56.3733C335.7337,-46.7975 282.6766,-32.0886 245.6061,-21.8116"/>
<polygon fill="#191970" stroke="#191970" points="246.1745,-18.3372 235.6029,-19.0384 244.3044,-25.0828 246.1745,-18.3372"/>
</g>
<!-- Node19 -->
<g id="node20" class="node">
<title>Node19</title>
<polygon fill="none" stroke="#bfbfbf" points="253.5,-.5 253.5,-19.5 322.5,-19.5 322.5,-.5 253.5,-.5"/>
<text text-anchor="middle" x="288" y="-7.5" font-family="FreeSans.ttf" font-size="10.00" fill="#000000">type_traits</text>
</g>
<!-- Node13&#45;&gt;Node19 -->
<g id="edge22" class="edge">
<title>Node13&#45;&gt;Node19</title>
<path fill="none" stroke="#191970" d="M384.887,-56.3733C366.1897,-47.4241 338.1256,-33.9917 317.0066,-23.8835"/>
<polygon fill="#191970" stroke="#191970" points="318.3817,-20.6614 307.8506,-19.5011 315.3595,-26.9755 318.3817,-20.6614"/>
</g>
<!-- Node20 -->
<g id="node21" class="node">
<title>Node20</title>
<polygon fill="none" stroke="#bfbfbf" points="340.5,-.5 340.5,-19.5 385.5,-19.5 385.5,-.5 340.5,-.5"/>
<text text-anchor="middle" x="363" y="-7.5" font-family="FreeSans.ttf" font-size="10.00" fill="#000000">utility</text>
</g>
<!-- Node13&#45;&gt;Node20 -->
<g id="edge23" class="edge">
<title>Node13&#45;&gt;Node20</title>
<path fill="none" stroke="#191970" d="M397.6842,-56.2455C391.7821,-48.3761 383.3258,-37.101 376.2406,-27.6542"/>
<polygon fill="#191970" stroke="#191970" points="379.0321,-25.5427 370.232,-19.6427 373.432,-29.7427 379.0321,-25.5427"/>
</g>
<!-- Node22 -->
<g id="node23" class="node">
<title>Node22</title>
<g id="a_node23"><a xlink:href="SpatialMotionVector_8h.html" target="_top" xlink:title="iDynTree/Core/SpatialMotion\lVector.h">
<polygon fill="none" stroke="#000000" points="635.5,-403.5 635.5,-433.5 790.5,-433.5 790.5,-403.5 635.5,-403.5"/>
<text text-anchor="start" x="643.5" y="-421.5" font-family="FreeSans.ttf" font-size="10.00" fill="#000000">iDynTree/Core/SpatialMotion</text>
<text text-anchor="middle" x="713" y="-410.5" font-family="FreeSans.ttf" font-size="10.00" fill="#000000">Vector.h</text>
</a>
</g>
</g>
<!-- Node21&#45;&gt;Node22 -->
<g id="edge29" class="edge">
<title>Node21&#45;&gt;Node22</title>
<path fill="none" stroke="#191970" d="M624.7574,-475.9005C639.4517,-466.3421 662.4733,-451.3669 681.3176,-439.1089"/>
<polygon fill="#191970" stroke="#191970" points="683.4327,-441.9085 689.9068,-433.5218 679.6158,-436.0406 683.4327,-441.9085"/>
</g>
<!-- Node22&#45;&gt;Node12 -->
<g id="edge30" class="edge">
<title>Node22&#45;&gt;Node12</title>
<path fill="none" stroke="#191970" d="M752.5067,-403.3675C769.8187,-394.9759 789.0899,-382.9622 802,-367 824.6267,-339.0241 827,-325.9808 827,-290 827,-290 827,-290 827,-234 827,-181.2959 675.2506,-148.7097 576.6313,-133.0973"/>
<polygon fill="#191970" stroke="#191970" points="577.0857,-129.626 566.6668,-131.5487 576.0106,-136.5429 577.0857,-129.626"/>
</g>
<!-- Node23 -->
<g id="node24" class="node">
<title>Node23</title>
<g id="a_node24"><a xlink:href="GeomVector3_8h.html" target="_top" xlink:title="iDynTree/Core/GeomVector3.h">
<polygon fill="none" stroke="#000000" points="522.5,-168.5 522.5,-187.5 685.5,-187.5 685.5,-168.5 522.5,-168.5"/>
<text text-anchor="middle" x="604" y="-175.5" font-family="FreeSans.ttf" font-size="10.00" fill="#000000">iDynTree/Core/GeomVector3.h</text>
</a>
</g>
</g>
<!-- Node22&#45;&gt;Node23 -->
<g id="edge31" class="edge">
<title>Node22&#45;&gt;Node23</title>
<path fill="none" stroke="#191970" d="M668.6201,-403.341C651.5833,-395.2401 633.6816,-383.4604 623,-367 588.6589,-314.0804 595.0314,-234.7142 600.4465,-197.9757"/>
<polygon fill="#191970" stroke="#191970" points="603.9776,-198.0634 602.1181,-187.633 597.0673,-196.9465 603.9776,-198.0634"/>
</g>
<!-- Node24 -->
<g id="node25" class="node">
<title>Node24</title>
<g id="a_node25"><a xlink:href="SpatialVector_8h.html" target="_top" xlink:title="iDynTree/Core/SpatialVector.h">
<polygon fill="none" stroke="#000000" points="632.5,-342 632.5,-361 793.5,-361 793.5,-342 632.5,-342"/>
<text text-anchor="middle" x="713" y="-349" font-family="FreeSans.ttf" font-size="10.00" fill="#000000">iDynTree/Core/SpatialVector.h</text>
</a>
</g>
</g>
<!-- Node22&#45;&gt;Node24 -->
<g id="edge33" class="edge">
<title>Node22&#45;&gt;Node24</title>
<path fill="none" stroke="#191970" d="M713,-403.2967C713,-393.7699 713,-381.3954 713,-371.1306"/>
<polygon fill="#191970" stroke="#191970" points="716.5001,-371.0549 713,-361.055 709.5001,-371.055 716.5001,-371.0549"/>
</g>
<!-- Node23&#45;&gt;Node12 -->
<g id="edge32" class="edge">
<title>Node23&#45;&gt;Node12</title>
<path fill="none" stroke="#191970" d="M584.8395,-168.2455C567.4889,-159.4125 541.7099,-146.2887 522.0417,-136.2758"/>
<polygon fill="#191970" stroke="#191970" points="523.4405,-133.0605 512.941,-131.6427 520.2647,-139.2986 523.4405,-133.0605"/>
</g>
<!-- Node24&#45;&gt;Node5 -->
<g id="edge47" class="edge">
<title>Node24&#45;&gt;Node5</title>
<path fill="none" stroke="#191970" d="M718.4435,-341.8501C734.9808,-311.9087 784.5067,-217.4619 801,-132 802.6844,-123.2722 804.0615,-120.345 801,-112 796.9432,-100.9418 788.9203,-90.7193 781.2006,-82.7335"/>
<polygon fill="#191970" stroke="#191970" points="783.3698,-79.9632 773.74,-75.5451 778.5128,-85.0041 783.3698,-79.9632"/>
</g>
<!-- Node24&#45;&gt;Node10 -->
<g id="edge49" class="edge">
<title>Node24&#45;&gt;Node10</title>
<path fill="none" stroke="#191970" d="M722.6998,-341.6791C732.4004,-331.6265 747.4922,-315.3457 759,-300 816.0604,-223.9096 872.4663,-125.0295 894.8843,-84.528"/>
<polygon fill="#191970" stroke="#191970" points="897.9623,-86.1943 899.7177,-75.7458 891.8297,-82.8191 897.9623,-86.1943"/>
</g>
<!-- Node24&#45;&gt;Node11 -->
<g id="edge50" class="edge">
<title>Node24&#45;&gt;Node11</title>
<path fill="none" stroke="#191970" d="M715.0089,-341.6353C720.4233,-312.1973 732.4453,-223.5776 694,-168 673.6466,-138.5766 641.7215,-161.8507 622,-132 613.1124,-118.5476 612.773,-99.9897 614.2773,-85.9777"/>
<polygon fill="#191970" stroke="#191970" points="617.7672,-86.3006 615.7508,-75.8995 610.8408,-85.2879 617.7672,-86.3006"/>
</g>
<!-- Node24&#45;&gt;Node23 -->
<g id="edge48" class="edge">
<title>Node24&#45;&gt;Node23</title>
<path fill="none" stroke="#191970" d="M706.9844,-341.9248C689.5316,-314.1443 638.6622,-233.1733 615.6032,-196.4693"/>
<polygon fill="#191970" stroke="#191970" points="618.4148,-194.3652 610.1313,-187.7595 612.4874,-198.0891 618.4148,-194.3652"/>
</g>
<!-- Node25 -->
<g id="node26" class="node">
<title>Node25</title>
<g id="a_node26"><a xlink:href="Position_8h.html" target="_top" xlink:title="Position.h">
<polygon fill="none" stroke="#000000" points="339.5,-280.5 339.5,-299.5 404.5,-299.5 404.5,-280.5 339.5,-280.5"/>
<text text-anchor="middle" x="372" y="-287.5" font-family="FreeSans.ttf" font-size="10.00" fill="#000000">Position.h</text>
</a>
</g>
</g>
<!-- Node24&#45;&gt;Node25 -->
<g id="edge34" class="edge">
<title>Node24&#45;&gt;Node25</title>
<path fill="none" stroke="#191970" d="M660.0929,-341.9581C592.5773,-329.7815 477.0967,-308.9544 414.8194,-297.7226"/>
<polygon fill="#191970" stroke="#191970" points="415.3931,-294.2696 404.9306,-295.9391 414.1506,-301.1585 415.3931,-294.2696"/>
</g>
<!-- Node27 -->
<g id="node28" class="node">
<title>Node27</title>
<g id="a_node28"><a xlink:href="Rotation_8h.html" target="_top" xlink:title="iDynTree/Core/Rotation.h">
<polygon fill="none" stroke="#000000" points="355.5,-224.5 355.5,-243.5 492.5,-243.5 492.5,-224.5 355.5,-224.5"/>
<text text-anchor="middle" x="424" y="-231.5" font-family="FreeSans.ttf" font-size="10.00" fill="#000000">iDynTree/Core/Rotation.h</text>
</a>
</g>
</g>
<!-- Node24&#45;&gt;Node27 -->
<g id="edge46" class="edge">
<title>Node24&#45;&gt;Node27</title>
<path fill="none" stroke="#191970" d="M689.3499,-341.8845C637.9934,-321.0042 516.1558,-271.4682 457.1547,-247.4799"/>
<polygon fill="#191970" stroke="#191970" points="458.1534,-244.1077 447.5716,-243.5836 455.5169,-250.5923 458.1534,-244.1077"/>
</g>
<!-- Node25&#45;&gt;Node9 -->
<g id="edge45" class="edge">
<title>Node25&#45;&gt;Node9</title>
<path fill="none" stroke="#191970" d="M339.3565,-284.6457C264.4707,-271.6288 84.0661,-235.8466 49,-188 -5.5399,-113.5822 172.472,-80.3972 247.8796,-69.9064"/>
<polygon fill="#191970" stroke="#191970" points="248.3583,-73.3736 257.804,-68.5748 247.4274,-66.4358 248.3583,-73.3736"/>
</g>
<!-- Node26 -->
<g id="node27" class="node">
<title>Node26</title>
<g id="a_node27"><a xlink:href="PositionRaw_8h.html" target="_top" xlink:title="iDynTree/Core/PositionRaw.h">
<polygon fill="none" stroke="#000000" points="58,-168.5 58,-187.5 214,-187.5 214,-168.5 58,-168.5"/>
<text text-anchor="middle" x="136" y="-175.5" font-family="FreeSans.ttf" font-size="10.00" fill="#000000">iDynTree/Core/PositionRaw.h</text>
</a>
</g>
</g>
<!-- Node25&#45;&gt;Node26 -->
<g id="edge35" class="edge">
<title>Node25&#45;&gt;Node26</title>
<path fill="none" stroke="#191970" d="M363.3455,-280.4725C349.8677,-266.1884 322.4436,-239.2733 294,-224 264.3758,-208.0928 228.5948,-197.0892 198.5798,-189.8428"/>
<polygon fill="#191970" stroke="#191970" points="199.1723,-186.3872 188.639,-187.5276 197.5845,-193.2047 199.1723,-186.3872"/>
</g>
<!-- Node25&#45;&gt;Node27 -->
<g id="edge38" class="edge">
<title>Node25&#45;&gt;Node27</title>
<path fill="none" stroke="#191970" d="M381.0577,-280.2455C388.5142,-272.2155 399.2634,-260.6394 408.1417,-251.0781"/>
<polygon fill="#191970" stroke="#191970" points="410.8063,-253.3522 415.0461,-243.6427 405.6768,-248.589 410.8063,-253.3522"/>
</g>
<!-- Node26&#45;&gt;Node9 -->
<g id="edge37" class="edge">
<title>Node26&#45;&gt;Node9</title>
<path fill="none" stroke="#191970" d="M148.2774,-168.4509C173.0387,-149.1921 229.1862,-105.5218 259.5655,-81.8935"/>
<polygon fill="#191970" stroke="#191970" points="262.009,-84.4271 267.7537,-75.5249 257.7114,-78.9016 262.009,-84.4271"/>
</g>
<!-- Node26&#45;&gt;Node12 -->
<g id="edge36" class="edge">
<title>Node26&#45;&gt;Node12</title>
<path fill="none" stroke="#191970" d="M197.1356,-168.4369C259.8204,-158.6314 357.2204,-143.3957 423.211,-133.0731"/>
<polygon fill="#191970" stroke="#191970" points="423.7776,-136.5272 433.1165,-131.5237 422.6957,-129.6113 423.7776,-136.5272"/>
</g>
<!-- Node27&#45;&gt;Node9 -->
<g id="edge39" class="edge">
<title>Node27&#45;&gt;Node9</title>
<path fill="none" stroke="#191970" d="M360.8954,-224.4718C338.18,-217.8962 314.3867,-206.7827 299,-188 275.0973,-158.8218 275.0771,-112.1162 277.4009,-85.7632"/>
<polygon fill="#191970" stroke="#191970" points="280.9127,-85.8441 278.5168,-75.5238 273.9539,-85.0857 280.9127,-85.8441"/>
</g>
<!-- Node27&#45;&gt;Node12 -->
<g id="edge44" class="edge">
<title>Node27&#45;&gt;Node12</title>
<path fill="none" stroke="#191970" d="M438.5782,-224.3369C450.0628,-216.001 465.6471,-202.9647 475,-188 483.876,-173.7984 488.7317,-155.3133 491.3067,-141.5198"/>
<polygon fill="#191970" stroke="#191970" points="494.7635,-142.0675 492.9161,-131.635 487.8545,-140.9426 494.7635,-142.0675"/>
</g>
<!-- Node27&#45;&gt;Node23 -->
<g id="edge40" class="edge">
<title>Node27&#45;&gt;Node23</title>
<path fill="none" stroke="#191970" d="M454.9431,-224.3733C485.0039,-215.021 530.8026,-200.7725 563.6978,-190.5385"/>
<polygon fill="#191970" stroke="#191970" points="564.9519,-193.8139 573.4607,-187.5011 562.8723,-187.1299 564.9519,-193.8139"/>
</g>
<!-- Node28 -->
<g id="node29" class="node">
<title>Node28</title>
<g id="a_node29"><a xlink:href="RotationRaw_8h.html" target="_top" xlink:title="iDynTree/Core/RotationRaw.h">
<polygon fill="none" stroke="#000000" points="308,-168.5 308,-187.5 466,-187.5 466,-168.5 308,-168.5"/>
<text text-anchor="middle" x="387" y="-175.5" font-family="FreeSans.ttf" font-size="10.00" fill="#000000">iDynTree/Core/RotationRaw.h</text>
</a>
</g>
</g>
<!-- Node27&#45;&gt;Node28 -->
<g id="edge41" class="edge">
<title>Node27&#45;&gt;Node28</title>
<path fill="none" stroke="#191970" d="M417.5551,-224.2455C412.4618,-216.5367 405.2092,-205.5598 399.048,-196.2348"/>
<polygon fill="#191970" stroke="#191970" points="401.8038,-194.0566 393.3711,-187.6427 395.9635,-197.9155 401.8038,-194.0566"/>
</g>
<!-- Node28&#45;&gt;Node4 -->
<g id="edge42" class="edge">
<title>Node28&#45;&gt;Node4</title>
<path fill="none" stroke="#191970" d="M442.5002,-168.4369C499.0563,-158.6918 586.7404,-143.5832 646.6259,-133.2645"/>
<polygon fill="#191970" stroke="#191970" points="647.4683,-136.671 656.7287,-131.5237 646.2796,-129.7726 647.4683,-136.671"/>
</g>
<!-- Node28&#45;&gt;Node9 -->
<g id="edge43" class="edge">
<title>Node28&#45;&gt;Node9</title>
<path fill="none" stroke="#191970" d="M377.8772,-168.4509C359.7151,-149.4401 318.828,-106.6423 296.0653,-82.816"/>
<polygon fill="#191970" stroke="#191970" points="298.5383,-80.3378 289.0997,-75.5249 293.4768,-85.1733 298.5383,-80.3378"/>
</g>
<!-- Node30 -->
<g id="node31" class="node">
<title>Node30</title>
<g id="a_node31"><a xlink:href="SpatialForceVector_8h.html" target="_top" xlink:title="iDynTree/Core/SpatialForce\lVector.h">
<polygon fill="none" stroke="#000000" points="390,-403.5 390,-433.5 538,-433.5 538,-403.5 390,-403.5"/>
<text text-anchor="start" x="398" y="-421.5" font-family="FreeSans.ttf" font-size="10.00" fill="#000000">iDynTree/Core/SpatialForce</text>
<text text-anchor="middle" x="464" y="-410.5" font-family="FreeSans.ttf" font-size="10.00" fill="#000000">Vector.h</text>
</a>
</g>
</g>
<!-- Node29&#45;&gt;Node30 -->
<g id="edge52" class="edge">
<title>Node29&#45;&gt;Node30</title>
<path fill="none" stroke="#191970" d="M311.5031,-475.9005C338.276,-465.8231 381.0449,-449.7247 414.4855,-437.1375"/>
<polygon fill="#191970" stroke="#191970" points="415.9654,-440.3202 424.0914,-433.5218 413.4995,-433.7689 415.9654,-440.3202"/>
</g>
<!-- Node30&#45;&gt;Node12 -->
<g id="edge53" class="edge">
<title>Node30&#45;&gt;Node12</title>
<path fill="none" stroke="#191970" d="M389.7686,-407.0093C325.2316,-392.3029 242,-359.8049 242,-290 242,-290 242,-290 242,-234 242,-195.2415 265.8576,-188.0948 299,-168 320.3121,-155.0782 378.87,-142.2085 426.2954,-133.3819"/>
<polygon fill="#191970" stroke="#191970" points="427.024,-136.8068 436.2291,-131.5612 425.762,-129.9215 427.024,-136.8068"/>
</g>
<!-- Node30&#45;&gt;Node23 -->
<g id="edge54" class="edge">
<title>Node30&#45;&gt;Node23</title>
<path fill="none" stroke="#191970" d="M472.7576,-403.4556C497.2407,-361.3973 566.3544,-242.6698 593.1735,-196.5984"/>
<polygon fill="#191970" stroke="#191970" points="596.3535,-198.0926 598.3596,-187.6895 590.3038,-194.571 596.3535,-198.0926"/>
</g>
<!-- Node30&#45;&gt;Node24 -->
<g id="edge55" class="edge">
<title>Node30&#45;&gt;Node24</title>
<path fill="none" stroke="#191970" d="M519.8805,-403.4639C564.5207,-391.4522 626.2775,-374.835 667.8293,-363.6544"/>
<polygon fill="#191970" stroke="#191970" points="668.9273,-366.9835 677.6744,-361.0053 667.1084,-360.2239 668.9273,-366.9835"/>
</g>
<!-- Node31&#45;&gt;Node22 -->
<g id="edge57" class="edge">
<title>Node31&#45;&gt;Node22</title>
<path fill="none" stroke="#191970" d="M755.8362,-475.9005C749.1872,-466.9908 739.026,-453.3748 730.2686,-441.6399"/>
<polygon fill="#191970" stroke="#191970" points="732.9962,-439.4428 724.2103,-433.5218 727.3861,-443.6294 732.9962,-439.4428"/>
</g>
<!-- Node32&#45;&gt;Node30 -->
<g id="edge59" class="edge">
<title>Node32&#45;&gt;Node30</title>
<path fill="none" stroke="#191970" d="M464,-475.9005C464,-467.5099 464,-454.9451 464,-443.7085"/>
<polygon fill="#191970" stroke="#191970" points="467.5001,-443.5217 464,-433.5218 460.5001,-443.5218 467.5001,-443.5217"/>
</g>
<!-- Node33&#45;&gt;Node9 -->
<g id="edge61" class="edge">
<title>Node33&#45;&gt;Node9</title>
<path fill="none" stroke="#191970" d="M63.5638,-280.453C47.2546,-250.4341 2.7578,-157.2731 51,-112 79.0569,-85.6699 191.3544,-73.0988 247.5821,-68.3566"/>
<polygon fill="#191970" stroke="#191970" points="248.0325,-71.8316 257.7173,-67.5356 247.4673,-64.8545 248.0325,-71.8316"/>
</g>
</g>
</svg>
