<?xml version="1.0" encoding="UTF-8" standalone="no"?>
<!DOCTYPE svg PUBLIC "-//W3C//DTD SVG 1.1//EN"
 "http://www.w3.org/Graphics/SVG/1.1/DTD/svg11.dtd">
<!-- Generated by graphviz version 2.40.1 (20161225.0304)
 -->
<!-- Title: LinkState.h Pages: 1 -->
<svg width="1201pt" height="554pt"
 viewBox="0.00 0.00 1200.50 554.00" xmlns="http://www.w3.org/2000/svg" xmlns:xlink="http://www.w3.org/1999/xlink">
<g id="graph0" class="graph" transform="scale(1 1) rotate(0) translate(4 550)">
<title>LinkState.h</title>
<!-- Node0 -->
<g id="node1" class="node">
<title>Node0</title>
<polygon fill="#bfbfbf" stroke="#000000" points="544.5,-526.5 544.5,-545.5 615.5,-545.5 615.5,-526.5 544.5,-526.5"/>
<text text-anchor="middle" x="580" y="-533.5" font-family="FreeSans.ttf" font-size="10.00" fill="#000000">LinkState.h</text>
</g>
<!-- Node1 -->
<g id="node2" class="node">
<title>Node1</title>
<g id="a_node2"><a xlink:href="Transform_8h.html" target="_top" xlink:title="iDynTree/Core/Transform.h">
<polygon fill="none" stroke="#000000" points="372,-347.5 372,-366.5 518,-366.5 518,-347.5 372,-347.5"/>
<text text-anchor="middle" x="445" y="-354.5" font-family="FreeSans.ttf" font-size="10.00" fill="#000000">iDynTree/Core/Transform.h</text>
</a>
</g>
</g>
<!-- Node0&#45;&gt;Node1 -->
<g id="edge1" class="edge">
<title>Node0&#45;&gt;Node1</title>
<path fill="none" stroke="#191970" d="M557.1578,-526.4407C540.8459,-518.6483 519.3382,-506.2752 505,-490 474.991,-455.9371 457.5936,-404.3872 449.8567,-376.5265"/>
<polygon fill="#191970" stroke="#191970" points="453.2196,-375.553 447.2794,-366.7801 446.4522,-377.3426 453.2196,-375.553"/>
</g>
<!-- Node24 -->
<g id="node25" class="node">
<title>Node24</title>
<g id="a_node25"><a xlink:href="Twist_8h.html" target="_top" xlink:title="iDynTree/Core/Twist.h">
<polygon fill="none" stroke="#000000" points="831,-470.5 831,-489.5 953,-489.5 953,-470.5 831,-470.5"/>
<text text-anchor="middle" x="892" y="-477.5" font-family="FreeSans.ttf" font-size="10.00" fill="#000000">iDynTree/Core/Twist.h</text>
</a>
</g>
</g>
<!-- Node0&#45;&gt;Node24 -->
<g id="edge40" class="edge">
<title>Node0&#45;&gt;Node24</title>
<path fill="none" stroke="#191970" d="M615.7904,-529.5761C667.7521,-520.2496 764.8624,-502.8196 828.979,-491.3115"/>
<polygon fill="#191970" stroke="#191970" points="829.7497,-494.7291 838.9741,-489.5175 828.513,-487.8392 829.7497,-494.7291"/>
</g>
<!-- Node27 -->
<g id="node28" class="node">
<title>Node27</title>
<g id="a_node28"><a xlink:href="SpatialAcc_8h.html" target="_top" xlink:title="iDynTree/Core/SpatialAcc.h">
<polygon fill="none" stroke="#000000" points="665,-470.5 665,-489.5 813,-489.5 813,-470.5 665,-470.5"/>
<text text-anchor="middle" x="739" y="-477.5" font-family="FreeSans.ttf" font-size="10.00" fill="#000000">iDynTree/Core/SpatialAcc.h</text>
</a>
</g>
</g>
<!-- Node0&#45;&gt;Node27 -->
<g id="edge51" class="edge">
<title>Node0&#45;&gt;Node27</title>
<path fill="none" stroke="#191970" d="M607.3331,-526.3733C633.5434,-517.1419 673.2984,-503.1402 702.2668,-492.9375"/>
<polygon fill="#191970" stroke="#191970" points="703.7542,-496.1244 712.0236,-489.5011 701.4288,-489.5219 703.7542,-496.1244"/>
</g>
<!-- Node28 -->
<g id="node29" class="node">
<title>Node28</title>
<g id="a_node29"><a xlink:href="Wrench_8h.html" target="_top" xlink:title="iDynTree/Core/Wrench.h">
<polygon fill="none" stroke="#000000" points="513.5,-470.5 513.5,-489.5 646.5,-489.5 646.5,-470.5 513.5,-470.5"/>
<text text-anchor="middle" x="580" y="-477.5" font-family="FreeSans.ttf" font-size="10.00" fill="#000000">iDynTree/Core/Wrench.h</text>
</a>
</g>
</g>
<!-- Node0&#45;&gt;Node28 -->
<g id="edge53" class="edge">
<title>Node0&#45;&gt;Node28</title>
<path fill="none" stroke="#191970" d="M580,-526.2455C580,-518.9382 580,-508.6944 580,-499.7046"/>
<polygon fill="#191970" stroke="#191970" points="583.5001,-499.6426 580,-489.6427 576.5001,-499.6427 583.5001,-499.6426"/>
</g>
<!-- Node30 -->
<g id="node31" class="node">
<title>Node30</title>
<g id="a_node31"><a xlink:href="ArticulatedBodyInertia_8h.html" target="_top" xlink:title="iDynTree/Core/Articulated\lBodyInertia.h">
<polygon fill="none" stroke="#000000" points="81.5,-168.5 81.5,-198.5 222.5,-198.5 222.5,-168.5 81.5,-168.5"/>
<text text-anchor="start" x="89.5" y="-186.5" font-family="FreeSans.ttf" font-size="10.00" fill="#000000">iDynTree/Core/Articulated</text>
<text text-anchor="middle" x="152" y="-175.5" font-family="FreeSans.ttf" font-size="10.00" fill="#000000">BodyInertia.h</text>
</a>
</g>
</g>
<!-- Node0&#45;&gt;Node30 -->
<g id="edge58" class="edge">
<title>Node0&#45;&gt;Node30</title>
<path fill="none" stroke="#191970" d="M544.3122,-532.7508C449.2324,-523.1157 197,-490.747 197,-418.5 197,-418.5 197,-418.5 197,-301 197,-266.8259 180.1943,-230.5387 167.1232,-207.4838"/>
<polygon fill="#191970" stroke="#191970" points="170.0726,-205.5945 161.987,-198.7481 164.0384,-209.1425 170.0726,-205.5945"/>
</g>
<!-- Node31 -->
<g id="node32" class="node">
<title>Node31</title>
<g id="a_node32"><a xlink:href="Indices_8h.html" target="_top" xlink:title="iDynTree/Model/Indices.h">
<polygon fill="none" stroke="#000000" points="0,-291.5 0,-310.5 138,-310.5 138,-291.5 0,-291.5"/>
<text text-anchor="middle" x="69" y="-298.5" font-family="FreeSans.ttf" font-size="10.00" fill="#000000">iDynTree/Model/Indices.h</text>
</a>
</g>
</g>
<!-- Node0&#45;&gt;Node31 -->
<g id="edge61" class="edge">
<title>Node0&#45;&gt;Node31</title>
<path fill="none" stroke="#191970" d="M544.2565,-533.6566C452.3847,-527.382 213.0874,-509.3573 183,-490 119.6686,-449.2545 86.3903,-359.6863 74.3456,-320.2668"/>
<polygon fill="#191970" stroke="#191970" points="77.6728,-319.1744 71.5041,-310.5606 70.9548,-321.1412 77.6728,-319.1744"/>
</g>
<!-- Node32 -->
<g id="node33" class="node">
<title>Node32</title>
<polygon fill="none" stroke="#bfbfbf" points="971.5,-470.5 971.5,-489.5 1018.5,-489.5 1018.5,-470.5 971.5,-470.5"/>
<text text-anchor="middle" x="995" y="-477.5" font-family="FreeSans.ttf" font-size="10.00" fill="#000000">vector</text>
</g>
<!-- Node0&#45;&gt;Node32 -->
<g id="edge63" class="edge">
<title>Node0&#45;&gt;Node32</title>
<path fill="none" stroke="#191970" d="M615.6224,-533.7923C681.9164,-529.237 828.759,-517.0475 961.4049,-489.7859"/>
<polygon fill="#191970" stroke="#191970" points="962.2626,-493.1824 971.3352,-487.7108 960.8307,-486.3304 962.2626,-493.1824"/>
</g>
<!-- Node2 -->
<g id="node3" class="node">
<title>Node2</title>
<g id="a_node3"><a xlink:href="Position_8h.html" target="_top" xlink:title="iDynTree/Core/Position.h">
<polygon fill="none" stroke="#000000" points="377,-291.5 377,-310.5 513,-310.5 513,-291.5 377,-291.5"/>
<text text-anchor="middle" x="445" y="-298.5" font-family="FreeSans.ttf" font-size="10.00" fill="#000000">iDynTree/Core/Position.h</text>
</a>
</g>
</g>
<!-- Node1&#45;&gt;Node2 -->
<g id="edge2" class="edge">
<title>Node1&#45;&gt;Node2</title>
<path fill="none" stroke="#191970" d="M445,-347.2455C445,-339.9382 445,-329.6944 445,-320.7046"/>
<polygon fill="#191970" stroke="#191970" points="448.5001,-320.6426 445,-310.6427 441.5001,-320.6427 448.5001,-320.6426"/>
</g>
<!-- Node16 -->
<g id="node17" class="node">
<title>Node16</title>
<polygon fill="none" stroke="#bfbfbf" points="411,-56.5 411,-75.5 455,-75.5 455,-56.5 411,-56.5"/>
<text text-anchor="middle" x="433" y="-63.5" font-family="FreeSans.ttf" font-size="10.00" fill="#000000">string</text>
</g>
<!-- Node1&#45;&gt;Node16 -->
<g id="edge39" class="edge">
<title>Node1&#45;&gt;Node16</title>
<path fill="none" stroke="#191970" d="M382.0138,-347.4608C325.367,-334.8869 251,-306.6413 251,-245 251,-245 251,-245 251,-183.5 251,-112.9811 348.6324,-82.7295 400.881,-71.5891"/>
<polygon fill="#191970" stroke="#191970" points="401.574,-75.0199 410.6832,-69.6096 400.1883,-68.1584 401.574,-75.0199"/>
</g>
<!-- Node19 -->
<g id="node20" class="node">
<title>Node19</title>
<g id="a_node20"><a xlink:href="Rotation_8h.html" target="_top" xlink:title="iDynTree/Core/Rotation.h">
<polygon fill="none" stroke="#000000" points="561.5,-235.5 561.5,-254.5 698.5,-254.5 698.5,-235.5 561.5,-235.5"/>
<text text-anchor="middle" x="630" y="-242.5" font-family="FreeSans.ttf" font-size="10.00" fill="#000000">iDynTree/Core/Rotation.h</text>
</a>
</g>
</g>
<!-- Node1&#45;&gt;Node19 -->
<g id="edge37" class="edge">
<title>Node1&#45;&gt;Node19</title>
<path fill="none" stroke="#191970" d="M461.252,-347.3552C476.8553,-338.0801 501.0754,-323.6434 522,-311 550.7987,-293.5988 583.7857,-273.4012 605.6471,-259.9782"/>
<polygon fill="#191970" stroke="#191970" points="607.6021,-262.885 614.2905,-254.6682 603.9378,-256.9206 607.6021,-262.885"/>
</g>
<!-- Node22 -->
<g id="node23" class="node">
<title>Node22</title>
<g id="a_node23"><a xlink:href="MatrixFixSize_8h.html" target="_top" xlink:title="iDynTree/Core/MatrixFixSize.h">
<polygon fill="none" stroke="#000000" points="585.5,-112.5 585.5,-131.5 746.5,-131.5 746.5,-112.5 585.5,-112.5"/>
<text text-anchor="middle" x="666" y="-119.5" font-family="FreeSans.ttf" font-size="10.00" fill="#000000">iDynTree/Core/MatrixFixSize.h</text>
</a>
</g>
</g>
<!-- Node1&#45;&gt;Node22 -->
<g id="edge38" class="edge">
<title>Node1&#45;&gt;Node22</title>
<path fill="none" stroke="#191970" d="M417.7623,-347.4078C400.8481,-340.0449 380.0966,-328.1929 368,-311 330.9983,-258.4093 303.8896,-216.5966 346,-168 360.9309,-150.7693 485.8254,-136.88 575.0765,-129.0321"/>
<polygon fill="#191970" stroke="#191970" points="575.5683,-132.5027 585.2285,-128.1518 574.9635,-125.5288 575.5683,-132.5027"/>
</g>
<!-- Node3 -->
<g id="node4" class="node">
<title>Node3</title>
<g id="a_node4"><a xlink:href="PositionRaw_8h.html" target="_top" xlink:title="iDynTree/Core/PositionRaw.h">
<polygon fill="none" stroke="#000000" points="355,-174 355,-193 511,-193 511,-174 355,-174"/>
<text text-anchor="middle" x="433" y="-181" font-family="FreeSans.ttf" font-size="10.00" fill="#000000">iDynTree/Core/PositionRaw.h</text>
</a>
</g>
</g>
<!-- Node2&#45;&gt;Node3 -->
<g id="edge3" class="edge">
<title>Node2&#45;&gt;Node3</title>
<path fill="none" stroke="#191970" d="M444.018,-291.3845C442.0578,-272.1913 437.625,-228.786 435.0187,-203.2663"/>
<polygon fill="#191970" stroke="#191970" points="438.4935,-202.841 433.9956,-193.2484 431.5298,-203.5523 438.4935,-202.841"/>
</g>
<!-- Node2&#45;&gt;Node16 -->
<g id="edge36" class="edge">
<title>Node2&#45;&gt;Node16</title>
<path fill="none" stroke="#191970" d="M429.9609,-291.319C406.7415,-275.363 363.0631,-241.0793 346,-199 327.2349,-152.7234 378.4857,-105.4048 410.1331,-81.6469"/>
<polygon fill="#191970" stroke="#191970" points="412.4336,-84.3018 418.4649,-75.5912 408.318,-78.6394 412.4336,-84.3018"/>
</g>
<!-- Node2&#45;&gt;Node19 -->
<g id="edge22" class="edge">
<title>Node2&#45;&gt;Node19</title>
<path fill="none" stroke="#191970" d="M476.8026,-291.3733C507.8317,-281.9807 555.1754,-267.6496 589.0147,-257.4064"/>
<polygon fill="#191970" stroke="#191970" points="590.0553,-260.7483 598.6124,-254.5011 588.0272,-254.0485 590.0553,-260.7483"/>
</g>
<!-- Node4 -->
<g id="node5" class="node">
<title>Node4</title>
<g id="a_node5"><a xlink:href="VectorFixSize_8h.html" target="_top" xlink:title="iDynTree/Core/VectorFixSize.h">
<polygon fill="none" stroke="#000000" points="764.5,-112.5 764.5,-131.5 925.5,-131.5 925.5,-112.5 764.5,-112.5"/>
<text text-anchor="middle" x="845" y="-119.5" font-family="FreeSans.ttf" font-size="10.00" fill="#000000">iDynTree/Core/VectorFixSize.h</text>
</a>
</g>
</g>
<!-- Node3&#45;&gt;Node4 -->
<g id="edge4" class="edge">
<title>Node3&#45;&gt;Node4</title>
<path fill="none" stroke="#191970" d="M496.923,-173.9581C571.0091,-162.8991 692.8973,-144.7047 771.0168,-133.0436"/>
<polygon fill="#191970" stroke="#191970" points="771.8924,-136.4518 781.2661,-131.5137 770.8589,-129.5285 771.8924,-136.4518"/>
</g>
<!-- Node3&#45;&gt;Node16 -->
<g id="edge21" class="edge">
<title>Node3&#45;&gt;Node16</title>
<path fill="none" stroke="#191970" d="M433,-173.8845C433,-154.6913 433,-111.286 433,-85.7663"/>
<polygon fill="#191970" stroke="#191970" points="436.5001,-85.7483 433,-75.7484 429.5001,-85.7484 436.5001,-85.7483"/>
</g>
<!-- Node5 -->
<g id="node6" class="node">
<title>Node5</title>
<g id="a_node6"><a xlink:href="Utils_8h.html" target="_top" xlink:title="iDynTree/Core/Utils.h">
<polygon fill="none" stroke="#000000" points="1042.5,-56.5 1042.5,-75.5 1161.5,-75.5 1161.5,-56.5 1042.5,-56.5"/>
<text text-anchor="middle" x="1102" y="-63.5" font-family="FreeSans.ttf" font-size="10.00" fill="#000000">iDynTree/Core/Utils.h</text>
</a>
</g>
</g>
<!-- Node4&#45;&gt;Node5 -->
<g id="edge5" class="edge">
<title>Node4&#45;&gt;Node5</title>
<path fill="none" stroke="#191970" d="M888.8879,-112.4369C932.9638,-102.8328 1000.9481,-88.0191 1048.2358,-77.7152"/>
<polygon fill="#191970" stroke="#191970" points="1049.2676,-81.0725 1058.2932,-75.5237 1047.7772,-74.233 1049.2676,-81.0725"/>
</g>
<!-- Node7 -->
<g id="node8" class="node">
<title>Node7</title>
<g id="a_node8"><a xlink:href="Span_8h.html" target="_top" xlink:title="iDynTree/Core/Span.h">
<polygon fill="none" stroke="#000000" points="825.5,-56.5 825.5,-75.5 946.5,-75.5 946.5,-56.5 825.5,-56.5"/>
<text text-anchor="middle" x="886" y="-63.5" font-family="FreeSans.ttf" font-size="10.00" fill="#000000">iDynTree/Core/Span.h</text>
</a>
</g>
</g>
<!-- Node4&#45;&gt;Node7 -->
<g id="edge7" class="edge">
<title>Node4&#45;&gt;Node7</title>
<path fill="none" stroke="#191970" d="M852.1417,-112.2455C857.8444,-104.4564 865.99,-93.3308 872.8625,-83.9439"/>
<polygon fill="#191970" stroke="#191970" points="875.8568,-85.7789 878.9402,-75.6427 870.2087,-81.6437 875.8568,-85.7789"/>
</g>
<!-- Node8 -->
<g id="node9" class="node">
<title>Node8</title>
<polygon fill="none" stroke="#bfbfbf" points="559,-.5 559,-19.5 611,-19.5 611,-.5 559,-.5"/>
<text text-anchor="middle" x="585" y="-7.5" font-family="FreeSans.ttf" font-size="10.00" fill="#000000">cassert</text>
</g>
<!-- Node4&#45;&gt;Node8 -->
<g id="edge19" class="edge">
<title>Node4&#45;&gt;Node8</title>
<path fill="none" stroke="#191970" d="M837.9729,-112.2259C826.9272,-97.6197 804.0553,-70.2896 778,-56 715.2314,-21.5755 690.3954,-37.5847 621,-20 620.9018,-19.9751 620.8034,-19.9501 620.7048,-19.9251"/>
<polygon fill="#191970" stroke="#191970" points="621.8704,-16.6126 611.3092,-17.457 620.0918,-23.3829 621.8704,-16.6126"/>
</g>
<!-- Node4&#45;&gt;Node16 -->
<g id="edge17" class="edge">
<title>Node4&#45;&gt;Node16</title>
<path fill="none" stroke="#191970" d="M774.6428,-112.4369C684.5115,-100.186 532.0165,-79.4586 465.5717,-70.4272"/>
<polygon fill="#191970" stroke="#191970" points="465.6807,-66.9099 455.3004,-69.0311 464.7379,-73.8462 465.6807,-66.9099"/>
</g>
<!-- Node17 -->
<g id="node18" class="node">
<title>Node17</title>
<polygon fill="none" stroke="#bfbfbf" points="965,-56.5 965,-75.5 1021,-75.5 1021,-56.5 965,-56.5"/>
<text text-anchor="middle" x="993" y="-63.5" font-family="FreeSans.ttf" font-size="10.00" fill="#000000">sstream</text>
</g>
<!-- Node4&#45;&gt;Node17 -->
<g id="edge18" class="edge">
<title>Node4&#45;&gt;Node17</title>
<path fill="none" stroke="#191970" d="M870.4421,-112.3733C894.7326,-103.1822 931.5208,-89.2624 958.4543,-79.0713"/>
<polygon fill="#191970" stroke="#191970" points="959.7757,-82.3136 967.8899,-75.5011 957.2984,-75.7666 959.7757,-82.3136"/>
</g>
<!-- Node18 -->
<g id="node19" class="node">
<title>Node18</title>
<polygon fill="none" stroke="#bfbfbf" points="641,-56.5 641,-75.5 691,-75.5 691,-56.5 641,-56.5"/>
<text text-anchor="middle" x="666" y="-63.5" font-family="FreeSans.ttf" font-size="10.00" fill="#000000">cstring</text>
</g>
<!-- Node4&#45;&gt;Node18 -->
<g id="edge20" class="edge">
<title>Node4&#45;&gt;Node18</title>
<path fill="none" stroke="#191970" d="M814.2288,-112.3733C782.7044,-102.5109 733.7757,-87.2036 700.8445,-76.9011"/>
<polygon fill="#191970" stroke="#191970" points="701.764,-73.5215 691.1751,-73.876 699.6739,-80.2022 701.764,-73.5215"/>
</g>
<!-- Node6 -->
<g id="node7" class="node">
<title>Node6</title>
<polygon fill="none" stroke="#bfbfbf" points="1139.5,-.5 1139.5,-19.5 1192.5,-19.5 1192.5,-.5 1139.5,-.5"/>
<text text-anchor="middle" x="1166" y="-7.5" font-family="FreeSans.ttf" font-size="10.00" fill="#000000">cstddef</text>
</g>
<!-- Node5&#45;&gt;Node6 -->
<g id="edge6" class="edge">
<title>Node5&#45;&gt;Node6</title>
<path fill="none" stroke="#191970" d="M1113.1479,-56.2455C1122.5087,-48.0549 1136.0858,-36.1749 1147.1349,-26.5069"/>
<polygon fill="#191970" stroke="#191970" points="1149.7588,-28.8618 1154.9798,-19.6427 1145.1492,-23.5937 1149.7588,-28.8618"/>
</g>
<!-- Node7&#45;&gt;Node6 -->
<g id="edge11" class="edge">
<title>Node7&#45;&gt;Node6</title>
<path fill="none" stroke="#191970" d="M943.9689,-56.494C991.36,-48.3989 1060.2809,-35.891 1129.5534,-19.9513"/>
<polygon fill="#191970" stroke="#191970" points="1130.3801,-23.3526 1139.3282,-17.6795 1128.7954,-16.5343 1130.3801,-23.3526"/>
</g>
<!-- Node7&#45;&gt;Node8 -->
<g id="edge8" class="edge">
<title>Node7&#45;&gt;Node8</title>
<path fill="none" stroke="#191970" d="M825.409,-57.2317C771.4774,-49.0122 690.5854,-35.6637 621,-20 620.9011,-19.9777 620.8021,-19.9554 620.703,-19.9329"/>
<polygon fill="#191970" stroke="#191970" points="621.8157,-16.6021 611.27,-17.621 620.1494,-23.4009 621.8157,-16.6021"/>
</g>
<!-- Node9 -->
<g id="node10" class="node">
<title>Node9</title>
<polygon fill="none" stroke="#bfbfbf" points="863,-.5 863,-19.5 927,-19.5 927,-.5 863,-.5"/>
<text text-anchor="middle" x="895" y="-7.5" font-family="FreeSans.ttf" font-size="10.00" fill="#000000">algorithm</text>
</g>
<!-- Node7&#45;&gt;Node9 -->
<g id="edge9" class="edge">
<title>Node7&#45;&gt;Node9</title>
<path fill="none" stroke="#191970" d="M887.5677,-56.2455C888.7421,-48.9382 890.3884,-38.6944 891.8332,-29.7046"/>
<polygon fill="#191970" stroke="#191970" points="895.3191,-30.0714 893.4503,-19.6427 888.4078,-28.9606 895.3191,-30.0714"/>
</g>
<!-- Node10 -->
<g id="node11" class="node">
<title>Node10</title>
<polygon fill="none" stroke="#bfbfbf" points="945,-.5 945,-19.5 987,-19.5 987,-.5 945,-.5"/>
<text text-anchor="middle" x="966" y="-7.5" font-family="FreeSans.ttf" font-size="10.00" fill="#000000">array</text>
</g>
<!-- Node7&#45;&gt;Node10 -->
<g id="edge10" class="edge">
<title>Node7&#45;&gt;Node10</title>
<path fill="none" stroke="#191970" d="M899.9349,-56.2455C912.0947,-47.7337 929.9464,-35.2375 944.0285,-25.3801"/>
<polygon fill="#191970" stroke="#191970" points="946.0395,-28.2447 952.2248,-19.6427 942.0253,-22.51 946.0395,-28.2447"/>
</g>
<!-- Node11 -->
<g id="node12" class="node">
<title>Node11</title>
<polygon fill="none" stroke="#bfbfbf" points="1005.5,-.5 1005.5,-19.5 1058.5,-19.5 1058.5,-.5 1005.5,-.5"/>
<text text-anchor="middle" x="1032" y="-7.5" font-family="FreeSans.ttf" font-size="10.00" fill="#000000">iterator</text>
</g>
<!-- Node7&#45;&gt;Node11 -->
<g id="edge12" class="edge">
<title>Node7&#45;&gt;Node11</title>
<path fill="none" stroke="#191970" d="M911.0983,-56.3733C934.9555,-47.2226 971.0335,-33.3844 997.571,-23.2057"/>
<polygon fill="#191970" stroke="#191970" points="999.1459,-26.3503 1007.2292,-19.5011 996.639,-19.8145 999.1459,-26.3503"/>
</g>
<!-- Node12 -->
<g id="node13" class="node">
<title>Node12</title>
<polygon fill="none" stroke="#bfbfbf" points="1077,-.5 1077,-19.5 1121,-19.5 1121,-.5 1077,-.5"/>
<text text-anchor="middle" x="1099" y="-7.5" font-family="FreeSans.ttf" font-size="10.00" fill="#000000">limits</text>
</g>
<!-- Node7&#45;&gt;Node12 -->
<g id="edge13" class="edge">
<title>Node7&#45;&gt;Node12</title>
<path fill="none" stroke="#191970" d="M927.0422,-56.4266C961.9658,-48.1017 1013.6516,-35.3615 1067.0651,-20.1492"/>
<polygon fill="#191970" stroke="#191970" points="1068.0557,-23.5063 1076.7016,-17.3828 1066.1241,-16.778 1068.0557,-23.5063"/>
</g>
<!-- Node13 -->
<g id="node14" class="node">
<title>Node13</title>
<polygon fill="none" stroke="#bfbfbf" points="629.5,-.5 629.5,-19.5 694.5,-19.5 694.5,-.5 629.5,-.5"/>
<text text-anchor="middle" x="662" y="-7.5" font-family="FreeSans.ttf" font-size="10.00" fill="#000000">stdexcept</text>
</g>
<!-- Node7&#45;&gt;Node13 -->
<g id="edge14" class="edge">
<title>Node7&#45;&gt;Node13</title>
<path fill="none" stroke="#191970" d="M847.7475,-56.4369C807.9217,-46.4804 745.7005,-30.9251 704.3991,-20.5998"/>
<polygon fill="#191970" stroke="#191970" points="705.1841,-17.1884 694.6338,-18.1584 703.4863,-23.9794 705.1841,-17.1884"/>
</g>
<!-- Node14 -->
<g id="node15" class="node">
<title>Node14</title>
<polygon fill="none" stroke="#bfbfbf" points="712.5,-.5 712.5,-19.5 781.5,-19.5 781.5,-.5 712.5,-.5"/>
<text text-anchor="middle" x="747" y="-7.5" font-family="FreeSans.ttf" font-size="10.00" fill="#000000">type_traits</text>
</g>
<!-- Node7&#45;&gt;Node14 -->
<g id="edge15" class="edge">
<title>Node7&#45;&gt;Node14</title>
<path fill="none" stroke="#191970" d="M862.105,-56.3733C839.4918,-47.2629 805.3458,-33.5062 780.1127,-23.3404"/>
<polygon fill="#191970" stroke="#191970" points="781.1666,-19.9917 770.5831,-19.5011 778.5507,-26.4845 781.1666,-19.9917"/>
</g>
<!-- Node15 -->
<g id="node16" class="node">
<title>Node15</title>
<polygon fill="none" stroke="#bfbfbf" points="799.5,-.5 799.5,-19.5 844.5,-19.5 844.5,-.5 799.5,-.5"/>
<text text-anchor="middle" x="822" y="-7.5" font-family="FreeSans.ttf" font-size="10.00" fill="#000000">utility</text>
</g>
<!-- Node7&#45;&gt;Node15 -->
<g id="edge16" class="edge">
<title>Node7&#45;&gt;Node15</title>
<path fill="none" stroke="#191970" d="M874.8521,-56.2455C865.4913,-48.0549 851.9142,-36.1749 840.8651,-26.5069"/>
<polygon fill="#191970" stroke="#191970" points="842.8508,-23.5937 833.0202,-19.6427 838.2412,-28.8618 842.8508,-23.5937"/>
</g>
<!-- Node19&#45;&gt;Node4 -->
<g id="edge35" class="edge">
<title>Node19&#45;&gt;Node4</title>
<path fill="none" stroke="#191970" d="M655.5113,-235.4468C677.0183,-226.9899 708.308,-213.7286 734,-199 754.4393,-187.2827 757.6852,-181.4908 777,-168 791.9056,-157.5889 808.8405,-146.1318 822.0814,-137.2561"/>
<polygon fill="#191970" stroke="#191970" points="824.2203,-140.0364 830.5877,-131.5684 820.3293,-134.2174 824.2203,-140.0364"/>
</g>
<!-- Node19&#45;&gt;Node16 -->
<g id="edge23" class="edge">
<title>Node19&#45;&gt;Node16</title>
<path fill="none" stroke="#191970" d="M612.2992,-235.3494C597.1917,-226.7345 575.2395,-213.2998 558,-199 513.5447,-162.1252 469.0253,-110.3359 447.0697,-83.5643"/>
<polygon fill="#191970" stroke="#191970" points="449.7852,-81.356 440.7628,-75.8019 444.3523,-85.7702 449.7852,-81.356"/>
</g>
<!-- Node20 -->
<g id="node21" class="node">
<title>Node20</title>
<g id="a_node21"><a xlink:href="GeomVector3_8h.html" target="_top" xlink:title="iDynTree/Core/GeomVector3.h">
<polygon fill="none" stroke="#000000" points="819.5,-174 819.5,-193 982.5,-193 982.5,-174 819.5,-174"/>
<text text-anchor="middle" x="901" y="-181" font-family="FreeSans.ttf" font-size="10.00" fill="#000000">iDynTree/Core/GeomVector3.h</text>
</a>
</g>
</g>
<!-- Node19&#45;&gt;Node20 -->
<g id="edge24" class="edge">
<title>Node19&#45;&gt;Node20</title>
<path fill="none" stroke="#191970" d="M672.0464,-235.4581C719.7136,-224.6406 797.4651,-206.9959 848.9293,-195.3168"/>
<polygon fill="#191970" stroke="#191970" points="849.8775,-198.6907 858.855,-193.0643 848.3283,-191.8642 849.8775,-198.6907"/>
</g>
<!-- Node21 -->
<g id="node22" class="node">
<title>Node21</title>
<g id="a_node22"><a xlink:href="RotationRaw_8h.html" target="_top" xlink:title="iDynTree/Core/RotationRaw.h">
<polygon fill="none" stroke="#000000" points="567,-174 567,-193 725,-193 725,-174 567,-174"/>
<text text-anchor="middle" x="646" y="-181" font-family="FreeSans.ttf" font-size="10.00" fill="#000000">iDynTree/Core/RotationRaw.h</text>
</a>
</g>
</g>
<!-- Node19&#45;&gt;Node21 -->
<g id="edge26" class="edge">
<title>Node19&#45;&gt;Node21</title>
<path fill="none" stroke="#191970" d="M632.5,-235.3906C634.7412,-226.776 638.0986,-213.8708 640.9045,-203.0858"/>
<polygon fill="#191970" stroke="#191970" points="644.3341,-203.804 643.4648,-193.2449 637.5596,-202.0414 644.3341,-203.804"/>
</g>
<!-- Node20&#45;&gt;Node4 -->
<g id="edge25" class="edge">
<title>Node20&#45;&gt;Node4</title>
<path fill="none" stroke="#191970" d="M892.25,-173.8906C883.8338,-164.6478 870.9203,-150.466 860.719,-139.2628"/>
<polygon fill="#191970" stroke="#191970" points="863.194,-136.7824 853.8734,-131.7449 858.0182,-141.4953 863.194,-136.7824"/>
</g>
<!-- Node21&#45;&gt;Node16 -->
<g id="edge34" class="edge">
<title>Node21&#45;&gt;Node16</title>
<path fill="none" stroke="#191970" d="M632.0938,-173.85C611.1227,-159.4954 569.9233,-132.0585 533,-112 510.6325,-99.8489 484.468,-87.8889 464.5135,-79.2109"/>
<polygon fill="#191970" stroke="#191970" points="465.8294,-75.9669 455.2603,-75.228 463.0618,-82.3966 465.8294,-75.9669"/>
</g>
<!-- Node21&#45;&gt;Node22 -->
<g id="edge27" class="edge">
<title>Node21&#45;&gt;Node22</title>
<path fill="none" stroke="#191970" d="M649.125,-173.8906C651.9265,-165.276 656.1233,-152.3708 659.6306,-141.5858"/>
<polygon fill="#191970" stroke="#191970" points="663.0667,-142.3371 662.8309,-131.7449 656.4098,-140.1722 663.0667,-142.3371"/>
</g>
<!-- Node22&#45;&gt;Node5 -->
<g id="edge28" class="edge">
<title>Node22&#45;&gt;Node5</title>
<path fill="none" stroke="#191970" d="M743.4341,-112.4944C817.1476,-103.3792 931.1794,-89.1062 1030,-76 1030.7506,-75.9004 1031.5056,-75.8001 1032.2644,-75.699"/>
<polygon fill="#191970" stroke="#191970" points="1032.8447,-79.1525 1042.2889,-74.3508 1031.9116,-72.215 1032.8447,-79.1525"/>
</g>
<!-- Node22&#45;&gt;Node8 -->
<g id="edge29" class="edge">
<title>Node22&#45;&gt;Node8</title>
<path fill="none" stroke="#191970" d="M658.6538,-112.1665C651.7331,-102.8779 641.0978,-88.5393 632,-76 620.3213,-59.9035 607.2078,-41.457 597.8059,-28.1652"/>
<polygon fill="#191970" stroke="#191970" points="600.5812,-26.0277 591.9531,-19.8789 594.8636,-30.0661 600.5812,-26.0277"/>
</g>
<!-- Node22&#45;&gt;Node16 -->
<g id="edge31" class="edge">
<title>Node22&#45;&gt;Node16</title>
<path fill="none" stroke="#191970" d="M626.2106,-112.4369C580.6785,-101.4935 507.0042,-83.7864 465.0129,-73.6941"/>
<polygon fill="#191970" stroke="#191970" points="465.5972,-70.2349 455.0562,-71.3011 463.9614,-77.0411 465.5972,-70.2349"/>
</g>
<!-- Node22&#45;&gt;Node17 -->
<g id="edge33" class="edge">
<title>Node22&#45;&gt;Node17</title>
<path fill="none" stroke="#191970" d="M740.0008,-112.4804C796.4281,-104.7107 876.2258,-92.6292 954.73,-76.101"/>
<polygon fill="#191970" stroke="#191970" points="955.7431,-79.4638 964.7938,-73.9559 954.2838,-72.6176 955.7431,-79.4638"/>
</g>
<!-- Node22&#45;&gt;Node18 -->
<g id="edge30" class="edge">
<title>Node22&#45;&gt;Node18</title>
<path fill="none" stroke="#191970" d="M666,-112.2455C666,-104.9382 666,-94.6944 666,-85.7046"/>
<polygon fill="#191970" stroke="#191970" points="669.5001,-85.6426 666,-75.6427 662.5001,-85.6427 669.5001,-85.6426"/>
</g>
<!-- Node23 -->
<g id="node24" class="node">
<title>Node23</title>
<polygon fill="none" stroke="#bfbfbf" points="709,-56.5 709,-75.5 769,-75.5 769,-56.5 709,-56.5"/>
<text text-anchor="middle" x="739" y="-63.5" font-family="FreeSans.ttf" font-size="10.00" fill="#000000">iostream</text>
</g>
<!-- Node22&#45;&gt;Node23 -->
<g id="edge32" class="edge">
<title>Node22&#45;&gt;Node23</title>
<path fill="none" stroke="#191970" d="M678.7156,-112.2455C689.602,-103.8943 705.4883,-91.7076 718.22,-81.9408"/>
<polygon fill="#191970" stroke="#191970" points="720.6261,-84.5063 726.4301,-75.6427 716.3654,-78.9523 720.6261,-84.5063"/>
</g>
<!-- Node25 -->
<g id="node26" class="node">
<title>Node25</title>
<g id="a_node26"><a xlink:href="SpatialMotionVector_8h.html" target="_top" xlink:title="iDynTree/Core/SpatialMotion\lVector.h">
<polygon fill="none" stroke="#000000" points="819.5,-403.5 819.5,-433.5 974.5,-433.5 974.5,-403.5 819.5,-403.5"/>
<text text-anchor="start" x="827.5" y="-421.5" font-family="FreeSans.ttf" font-size="10.00" fill="#000000">iDynTree/Core/SpatialMotion</text>
<text text-anchor="middle" x="897" y="-410.5" font-family="FreeSans.ttf" font-size="10.00" fill="#000000">Vector.h</text>
</a>
</g>
</g>
<!-- Node24&#45;&gt;Node25 -->
<g id="edge41" class="edge">
<title>Node24&#45;&gt;Node25</title>
<path fill="none" stroke="#191970" d="M892.7813,-470.3906C893.364,-463.2234 894.1881,-453.0862 894.9536,-443.671"/>
<polygon fill="#191970" stroke="#191970" points="898.4549,-443.7954 895.7769,-433.5446 891.4779,-443.2281 898.4549,-443.7954"/>
</g>
<!-- Node25&#45;&gt;Node4 -->
<g id="edge42" class="edge">
<title>Node25&#45;&gt;Node4</title>
<path fill="none" stroke="#191970" d="M937.8739,-403.2954C954.0919,-395.0967 971.1874,-383.2556 981,-367 1026.7767,-291.1659 1044.455,-239.3778 992,-168 981.4696,-153.6709 942.2058,-141.8149 906.9056,-133.7298"/>
<polygon fill="#191970" stroke="#191970" points="907.6021,-130.2993 897.0814,-131.5505 906.0861,-137.1332 907.6021,-130.2993"/>
</g>
<!-- Node25&#45;&gt;Node20 -->
<g id="edge43" class="edge">
<title>Node25&#45;&gt;Node20</title>
<path fill="none" stroke="#191970" d="M927.3986,-403.4946C941.265,-394.8907 956.2848,-382.6614 964,-367 992.5576,-309.0299 942.9269,-234.8861 916.2625,-201.37"/>
<polygon fill="#191970" stroke="#191970" points="918.7795,-198.9192 909.7366,-193.3986 913.3631,-203.3535 918.7795,-198.9192"/>
</g>
<!-- Node26 -->
<g id="node27" class="node">
<title>Node26</title>
<g id="a_node27"><a xlink:href="SpatialVector_8h.html" target="_top" xlink:title="iDynTree/Core/SpatialVector.h">
<polygon fill="none" stroke="#000000" points="793.5,-347.5 793.5,-366.5 954.5,-366.5 954.5,-347.5 793.5,-347.5"/>
<text text-anchor="middle" x="874" y="-354.5" font-family="FreeSans.ttf" font-size="10.00" fill="#000000">iDynTree/Core/SpatialVector.h</text>
</a>
</g>
</g>
<!-- Node25&#45;&gt;Node26 -->
<g id="edge44" class="edge">
<title>Node25&#45;&gt;Node26</title>
<path fill="none" stroke="#191970" d="M891.3146,-403.2977C888.255,-395.1166 884.4502,-384.943 881.1872,-376.2179"/>
<polygon fill="#191970" stroke="#191970" points="884.4638,-374.9873 877.6826,-366.8469 877.9073,-377.4394 884.4638,-374.9873"/>
</g>
<!-- Node26&#45;&gt;Node2 -->
<g id="edge45" class="edge">
<title>Node26&#45;&gt;Node2</title>
<path fill="none" stroke="#191970" d="M800.7397,-347.4369C723.5571,-337.3618 602.4547,-321.5535 523.3906,-311.2328"/>
<polygon fill="#191970" stroke="#191970" points="523.3721,-307.7008 513.0032,-309.8769 522.466,-314.6419 523.3721,-307.7008"/>
</g>
<!-- Node26&#45;&gt;Node5 -->
<g id="edge47" class="edge">
<title>Node26&#45;&gt;Node5</title>
<path fill="none" stroke="#191970" d="M935.9037,-347.4526C985.8332,-338.9022 1051.3457,-325.5044 1074,-311 1105.2199,-291.0115 1125,-282.0705 1125,-245 1125,-245 1125,-245 1125,-183.5 1125,-148.3287 1114.9523,-108.3199 1108.139,-85.2331"/>
<polygon fill="#191970" stroke="#191970" points="1111.4715,-84.1617 1105.1981,-75.6239 1104.778,-86.2104 1111.4715,-84.1617"/>
</g>
<!-- Node26&#45;&gt;Node17 -->
<g id="edge50" class="edge">
<title>Node26&#45;&gt;Node17</title>
<path fill="none" stroke="#191970" d="M953.6162,-347.468C1014.1158,-335.258 1087,-307.5651 1087,-245 1087,-245 1087,-245 1087,-183.5 1087,-149.9798 1083.4625,-138.5498 1063,-112 1052.758,-98.7111 1037.5297,-88.0571 1023.8899,-80.3621"/>
<polygon fill="#191970" stroke="#191970" points="1025.2532,-77.1228 1014.7815,-75.5115 1021.9628,-83.3013 1025.2532,-77.1228"/>
</g>
<!-- Node26&#45;&gt;Node19 -->
<g id="edge46" class="edge">
<title>Node26&#45;&gt;Node19</title>
<path fill="none" stroke="#191970" d="M853.1967,-347.4509C809.9794,-327.6135 710.3366,-281.8758 660.1065,-258.8194"/>
<polygon fill="#191970" stroke="#191970" points="661.2991,-255.5157 650.7506,-254.5249 658.3788,-261.8775 661.2991,-255.5157"/>
</g>
<!-- Node26&#45;&gt;Node20 -->
<g id="edge48" class="edge">
<title>Node26&#45;&gt;Node20</title>
<path fill="none" stroke="#191970" d="M875.4901,-347.4248C879.7581,-319.999 892.0936,-240.732 897.9037,-203.3964"/>
<polygon fill="#191970" stroke="#191970" points="901.4018,-203.6788 899.4812,-193.2595 894.4851,-202.6024 901.4018,-203.6788"/>
</g>
<!-- Node26&#45;&gt;Node23 -->
<g id="edge49" class="edge">
<title>Node26&#45;&gt;Node23</title>
<path fill="none" stroke="#191970" d="M888.1718,-347.3837C925.7713,-320.5938 1023.1192,-242.1981 992,-168 978.2644,-135.2499 966.106,-129.1363 935,-112 908.5624,-97.4355 828.5835,-81.5853 779.3421,-72.8136"/>
<polygon fill="#191970" stroke="#191970" points="779.7867,-69.3382 769.3315,-71.0523 778.5737,-76.2323 779.7867,-69.3382"/>
</g>
<!-- Node27&#45;&gt;Node25 -->
<g id="edge52" class="edge">
<title>Node27&#45;&gt;Node25</title>
<path fill="none" stroke="#191970" d="M763.6875,-470.3906C786.3578,-461.5664 820.5937,-448.2404 848.6942,-437.3026"/>
<polygon fill="#191970" stroke="#191970" points="850.2995,-440.4336 858.3489,-433.5446 847.7603,-433.9103 850.2995,-440.4336"/>
</g>
<!-- Node29 -->
<g id="node30" class="node">
<title>Node29</title>
<g id="a_node30"><a xlink:href="SpatialForceVector_8h.html" target="_top" xlink:title="iDynTree/Core/SpatialForce\lVector.h">
<polygon fill="none" stroke="#000000" points="653,-403.5 653,-433.5 801,-433.5 801,-403.5 653,-403.5"/>
<text text-anchor="start" x="661" y="-421.5" font-family="FreeSans.ttf" font-size="10.00" fill="#000000">iDynTree/Core/SpatialForce</text>
<text text-anchor="middle" x="727" y="-410.5" font-family="FreeSans.ttf" font-size="10.00" fill="#000000">Vector.h</text>
</a>
</g>
</g>
<!-- Node28&#45;&gt;Node29 -->
<g id="edge54" class="edge">
<title>Node28&#45;&gt;Node29</title>
<path fill="none" stroke="#191970" d="M602.9688,-470.3906C623.9687,-461.6049 655.6352,-448.3567 681.7145,-437.446"/>
<polygon fill="#191970" stroke="#191970" points="683.1654,-440.633 691.0398,-433.5446 680.4637,-434.1754 683.1654,-440.633"/>
</g>
<!-- Node29&#45;&gt;Node4 -->
<g id="edge55" class="edge">
<title>Node29&#45;&gt;Node4</title>
<path fill="none" stroke="#191970" d="M730.3009,-403.4484C739.4278,-363.483 767.2577,-252.0156 811,-168 816.2417,-157.9322 823.5804,-147.6849 830.0986,-139.4252"/>
<polygon fill="#191970" stroke="#191970" points="832.8531,-141.5857 836.472,-131.6281 827.4333,-137.1556 832.8531,-141.5857"/>
</g>
<!-- Node29&#45;&gt;Node20 -->
<g id="edge56" class="edge">
<title>Node29&#45;&gt;Node20</title>
<path fill="none" stroke="#191970" d="M738.1492,-403.4422C768.8848,-361.9315 854.7339,-245.9858 887.7913,-201.3393"/>
<polygon fill="#191970" stroke="#191970" points="890.6989,-203.2942 893.8367,-193.1746 885.0731,-199.1287 890.6989,-203.2942"/>
</g>
<!-- Node29&#45;&gt;Node26 -->
<g id="edge57" class="edge">
<title>Node29&#45;&gt;Node26</title>
<path fill="none" stroke="#191970" d="M762.9602,-403.4554C787.0573,-393.374 818.513,-380.2139 841.7903,-370.4755"/>
<polygon fill="#191970" stroke="#191970" points="843.3459,-373.6187 851.2202,-366.5303 840.6442,-367.1611 843.3459,-373.6187"/>
</g>
<!-- Node30&#45;&gt;Node16 -->
<g id="edge60" class="edge">
<title>Node30&#45;&gt;Node16</title>
<path fill="none" stroke="#191970" d="M165.8045,-168.2271C181.4699,-151.8448 208.5596,-126.266 237,-112 290.7738,-85.0265 360.8391,-73.5298 400.9811,-68.8917"/>
<polygon fill="#191970" stroke="#191970" points="401.4282,-72.3639 410.9928,-67.8065 400.6738,-65.4046 401.4282,-72.3639"/>
</g>
<!-- Node30&#45;&gt;Node22 -->
<g id="edge59" class="edge">
<title>Node30&#45;&gt;Node22</title>
<path fill="none" stroke="#191970" d="M222.5597,-174.5069C239.7169,-172.3482 258.0148,-170.0693 275,-168 377.9663,-155.4557 496.2603,-141.6187 575.5244,-132.43"/>
<polygon fill="#191970" stroke="#191970" points="575.9456,-135.9047 585.4763,-131.277 575.1399,-128.9512 575.9456,-135.9047"/>
</g>
<!-- Node31&#45;&gt;Node16 -->
<g id="edge62" class="edge">
<title>Node31&#45;&gt;Node16</title>
<path fill="none" stroke="#191970" d="M65.9549,-291.2523C59.2372,-267.7109 45.7325,-206.8361 72,-168 109.4952,-112.564 319.4594,-80.3971 400.8022,-69.8672"/>
<polygon fill="#191970" stroke="#191970" points="401.4734,-73.3102 410.9535,-68.5796 400.5925,-66.3658 401.4734,-73.3102"/>
</g>
</g>
</svg>
