<?xml version="1.0" encoding="UTF-8" standalone="no"?>
<!DOCTYPE svg PUBLIC "-//W3C//DTD SVG 1.1//EN"
 "http://www.w3.org/Graphics/SVG/1.1/DTD/svg11.dtd">
<!-- Generated by graphviz version 2.40.1 (20161225.0304)
 -->
<!-- Title: LinkTraversalsCache.cpp Pages: 1 -->
<svg width="1782pt" height="744pt"
 viewBox="0.00 0.00 1782.00 744.00" xmlns="http://www.w3.org/2000/svg" xmlns:xlink="http://www.w3.org/1999/xlink">
<g id="graph0" class="graph" transform="scale(1 1) rotate(0) translate(4 740)">
<title>LinkTraversalsCache.cpp</title>
<!-- Node0 -->
<g id="node1" class="node">
<title>Node0</title>
<polygon fill="#bfbfbf" stroke="#000000" points="411.5,-716.5 411.5,-735.5 548.5,-735.5 548.5,-716.5 411.5,-716.5"/>
<text text-anchor="middle" x="480" y="-723.5" font-family="FreeSans.ttf" font-size="10.00" fill="#000000">LinkTraversalsCache.cpp</text>
</g>
<!-- Node1 -->
<g id="node2" class="node">
<title>Node1</title>
<g id="a_node2"><a xlink:href="LinkTraversalsCache_8h.html" target="_top" xlink:title="iDynTree/Model/LinkTraversals\lCache.h">
<polygon fill="none" stroke="#000000" points="0,-593.5 0,-623.5 164,-623.5 164,-593.5 0,-593.5"/>
<text text-anchor="start" x="8" y="-611.5" font-family="FreeSans.ttf" font-size="10.00" fill="#000000">iDynTree/Model/LinkTraversals</text>
<text text-anchor="middle" x="82" y="-600.5" font-family="FreeSans.ttf" font-size="10.00" fill="#000000">Cache.h</text>
</a>
</g>
</g>
<!-- Node0&#45;&gt;Node1 -->
<g id="edge1" class="edge">
<title>Node0&#45;&gt;Node1</title>
<path fill="none" stroke="#191970" d="M447.7671,-716.484C381.3692,-696.8816 228.4104,-651.7242 142.8157,-626.4544"/>
<polygon fill="#191970" stroke="#191970" points="143.5568,-623.0239 132.975,-623.5492 141.5748,-629.7374 143.5568,-623.0239"/>
</g>
<!-- Node5 -->
<g id="node6" class="node">
<title>Node5</title>
<g id="a_node6"><a xlink:href="Traversal_8h.html" target="_top" xlink:title="iDynTree/Model/Traversal.h">
<polygon fill="none" stroke="#000000" points="220,-599 220,-618 368,-618 368,-599 220,-599"/>
<text text-anchor="middle" x="294" y="-606" font-family="FreeSans.ttf" font-size="10.00" fill="#000000">iDynTree/Model/Traversal.h</text>
</a>
</g>
</g>
<!-- Node0&#45;&gt;Node5 -->
<g id="edge5" class="edge">
<title>Node0&#45;&gt;Node5</title>
<path fill="none" stroke="#191970" d="M464.7788,-716.3845C432.4087,-695.9356 356.5323,-648.0029 317.7431,-623.499"/>
<polygon fill="#191970" stroke="#191970" points="319.4943,-620.4654 309.1706,-618.0836 315.7557,-626.3834 319.4943,-620.4654"/>
</g>
<!-- Node6 -->
<g id="node7" class="node">
<title>Node6</title>
<g id="a_node7"><a xlink:href="Model_8h.html" target="_top" xlink:title="iDynTree/Model/Model.h">
<polygon fill="none" stroke="#000000" points="530.5,-660.5 530.5,-679.5 663.5,-679.5 663.5,-660.5 530.5,-660.5"/>
<text text-anchor="middle" x="597" y="-667.5" font-family="FreeSans.ttf" font-size="10.00" fill="#000000">iDynTree/Model/Model.h</text>
</a>
</g>
</g>
<!-- Node0&#45;&gt;Node6 -->
<g id="edge8" class="edge">
<title>Node0&#45;&gt;Node6</title>
<path fill="none" stroke="#191970" d="M500.113,-716.3733C518.8103,-707.4241 546.8744,-693.9917 567.9934,-683.8835"/>
<polygon fill="#191970" stroke="#191970" points="569.6405,-686.9755 577.1494,-679.5011 566.6183,-680.6614 569.6405,-686.9755"/>
</g>
<!-- Node15 -->
<g id="node16" class="node">
<title>Node15</title>
<polygon fill="none" stroke="#bfbfbf" points="1554,-.5 1554,-19.5 1606,-19.5 1606,-.5 1554,-.5"/>
<text text-anchor="middle" x="1580" y="-7.5" font-family="FreeSans.ttf" font-size="10.00" fill="#000000">cassert</text>
</g>
<!-- Node0&#45;&gt;Node15 -->
<g id="edge85" class="edge">
<title>Node0&#45;&gt;Node15</title>
<path fill="none" stroke="#191970" d="M548.6574,-723.3991C816.175,-712.8196 1774,-670.6042 1774,-608.5 1774,-608.5 1774,-608.5 1774,-122 1774,-49.8749 1672.1858,-23.4713 1616.0743,-14.3965"/>
<polygon fill="#191970" stroke="#191970" points="1616.5749,-10.9325 1606.1637,-12.8965 1615.5273,-17.8536 1616.5749,-10.9325"/>
</g>
<!-- Node2 -->
<g id="node3" class="node">
<title>Node2</title>
<polygon fill="none" stroke="#bfbfbf" points="219.5,-537.5 219.5,-556.5 266.5,-556.5 266.5,-537.5 219.5,-537.5"/>
<text text-anchor="middle" x="243" y="-544.5" font-family="FreeSans.ttf" font-size="10.00" fill="#000000">vector</text>
</g>
<!-- Node1&#45;&gt;Node2 -->
<g id="edge2" class="edge">
<title>Node1&#45;&gt;Node2</title>
<path fill="none" stroke="#191970" d="M121.385,-593.4554C148.5058,-583.0956 184.1373,-569.4848 209.8137,-559.6768"/>
<polygon fill="#191970" stroke="#191970" points="211.3767,-562.8264 219.4694,-555.9884 208.8788,-556.2873 211.3767,-562.8264"/>
</g>
<!-- Node3 -->
<g id="node4" class="node">
<title>Node3</title>
<g id="a_node4"><a xlink:href="Indices_8h.html" target="_top" xlink:title="iDynTree/Model/Indices.h">
<polygon fill="none" stroke="#000000" points="422,-537.5 422,-556.5 560,-556.5 560,-537.5 422,-537.5"/>
<text text-anchor="middle" x="491" y="-544.5" font-family="FreeSans.ttf" font-size="10.00" fill="#000000">iDynTree/Model/Indices.h</text>
</a>
</g>
</g>
<!-- Node1&#45;&gt;Node3 -->
<g id="edge3" class="edge">
<title>Node1&#45;&gt;Node3</title>
<path fill="none" stroke="#191970" d="M164.2753,-596.1285C238.3133,-584.9957 346.1123,-568.7863 417.3639,-558.0724"/>
<polygon fill="#191970" stroke="#191970" points="418.2345,-561.4809 427.6029,-556.5328 417.1936,-554.5588 418.2345,-561.4809"/>
</g>
<!-- Node4 -->
<g id="node5" class="node">
<title>Node4</title>
<polygon fill="none" stroke="#bfbfbf" points="812,-56.5 812,-75.5 856,-75.5 856,-56.5 812,-56.5"/>
<text text-anchor="middle" x="834" y="-63.5" font-family="FreeSans.ttf" font-size="10.00" fill="#000000">string</text>
</g>
<!-- Node3&#45;&gt;Node4 -->
<g id="edge4" class="edge">
<title>Node3&#45;&gt;Node4</title>
<path fill="none" stroke="#191970" d="M502.7486,-537.3792C525.4223,-517.6509 573,-470.1054 573,-418.5 573,-418.5 573,-418.5 573,-178 573,-136.8295 602.1044,-132.1623 638,-112 690.5917,-82.4596 761.3491,-71.8426 801.8794,-68.06"/>
<polygon fill="#191970" stroke="#191970" points="802.3186,-71.5353 811.9863,-67.201 801.7258,-64.5605 802.3186,-71.5353"/>
</g>
<!-- Node5&#45;&gt;Node2 -->
<g id="edge7" class="edge">
<title>Node5&#45;&gt;Node2</title>
<path fill="none" stroke="#191970" d="M286.0313,-598.8906C278.4409,-589.7376 266.8339,-575.7409 257.5868,-564.59"/>
<polygon fill="#191970" stroke="#191970" points="260.1587,-562.2083 251.0811,-556.7449 254.7703,-566.6766 260.1587,-562.2083"/>
</g>
<!-- Node5&#45;&gt;Node3 -->
<g id="edge6" class="edge">
<title>Node5&#45;&gt;Node3</title>
<path fill="none" stroke="#191970" d="M324.7813,-598.8906C358.7549,-588.2846 413.5604,-571.1753 450.8772,-559.5257"/>
<polygon fill="#191970" stroke="#191970" points="451.9323,-562.8629 460.4349,-556.5419 449.8462,-556.181 451.9323,-562.8629"/>
</g>
<!-- Node6&#45;&gt;Node2 -->
<g id="edge84" class="edge">
<title>Node6&#45;&gt;Node2</title>
<path fill="none" stroke="#191970" d="M530.4526,-666.8035C425.6394,-661.0797 231.8081,-647.4351 211,-624 195.6363,-606.6967 211.9341,-580.982 226.3448,-564.1058"/>
<polygon fill="#191970" stroke="#191970" points="229.0134,-566.373 233.1206,-556.6067 223.8195,-561.68 229.0134,-566.373"/>
</g>
<!-- Node6&#45;&gt;Node3 -->
<g id="edge77" class="edge">
<title>Node6&#45;&gt;Node3</title>
<path fill="none" stroke="#191970" d="M588.6824,-660.3484C570.8023,-639.6008 528.4979,-590.5117 505.8762,-564.262"/>
<polygon fill="#191970" stroke="#191970" points="508.4585,-561.8971 499.279,-556.6068 503.1559,-566.4668 508.4585,-561.8971"/>
</g>
<!-- Node7 -->
<g id="node8" class="node">
<title>Node7</title>
<g id="a_node8"><a xlink:href="IJoint_8h.html" target="_top" xlink:title="iDynTree/Model/IJoint.h">
<polygon fill="none" stroke="#000000" points="386,-599 386,-618 514,-618 514,-599 386,-599"/>
<text text-anchor="middle" x="450" y="-606" font-family="FreeSans.ttf" font-size="10.00" fill="#000000">iDynTree/Model/IJoint.h</text>
</a>
</g>
</g>
<!-- Node6&#45;&gt;Node7 -->
<g id="edge9" class="edge">
<title>Node6&#45;&gt;Node7</title>
<path fill="none" stroke="#191970" d="M574.0313,-660.3906C549.3276,-650.0554 509.863,-633.5447 482.0973,-621.9284"/>
<polygon fill="#191970" stroke="#191970" points="483.3835,-618.6727 472.8075,-618.0419 480.6818,-625.1303 483.3835,-618.6727"/>
</g>
<!-- Node8 -->
<g id="node9" class="node">
<title>Node8</title>
<g id="a_node9"><a xlink:href="Link_8h.html" target="_top" xlink:title="iDynTree/Model/Link.h">
<polygon fill="none" stroke="#000000" points="790,-599 790,-618 914,-618 914,-599 790,-599"/>
<text text-anchor="middle" x="852" y="-606" font-family="FreeSans.ttf" font-size="10.00" fill="#000000">iDynTree/Model/Link.h</text>
</a>
</g>
</g>
<!-- Node6&#45;&gt;Node8 -->
<g id="edge11" class="edge">
<title>Node6&#45;&gt;Node8</title>
<path fill="none" stroke="#191970" d="M636.564,-660.4581C681.23,-649.6857 753.9687,-632.1428 802.397,-620.4631"/>
<polygon fill="#191970" stroke="#191970" points="803.4426,-623.8113 812.3432,-618.0643 801.8013,-617.0065 803.4426,-623.8113"/>
</g>
<!-- Node40 -->
<g id="node41" class="node">
<title>Node40</title>
<g id="a_node41"><a xlink:href="Transform_8h.html" target="_top" xlink:title="iDynTree/Core/Transform.h">
<polygon fill="none" stroke="#000000" points="791,-347.5 791,-366.5 937,-366.5 937,-347.5 791,-347.5"/>
<text text-anchor="middle" x="864" y="-354.5" font-family="FreeSans.ttf" font-size="10.00" fill="#000000">iDynTree/Core/Transform.h</text>
</a>
</g>
</g>
<!-- Node6&#45;&gt;Node40 -->
<g id="edge72" class="edge">
<title>Node6&#45;&gt;Node40</title>
<path fill="none" stroke="#191970" d="M663.563,-665.2292C753.9512,-658.0638 906.248,-643.2817 923,-624 945.6761,-597.8995 899.7166,-557.9038 884,-501 872.011,-457.5926 867.0187,-404.7448 865.0939,-376.7"/>
<polygon fill="#191970" stroke="#191970" points="868.5804,-376.3721 864.4628,-366.6101 861.594,-376.8092 868.5804,-376.3721"/>
</g>
<!-- Node41 -->
<g id="node42" class="node">
<title>Node41</title>
<g id="a_node42"><a xlink:href="SolidShapes_8h.html" target="_top" xlink:title="iDynTree/Model/SolidShapes.h">
<polygon fill="none" stroke="#000000" points="570.5,-599 570.5,-618 733.5,-618 733.5,-599 570.5,-599"/>
<text text-anchor="middle" x="652" y="-606" font-family="FreeSans.ttf" font-size="10.00" fill="#000000">iDynTree/Model/SolidShapes.h</text>
</a>
</g>
</g>
<!-- Node6&#45;&gt;Node41 -->
<g id="edge78" class="edge">
<title>Node6&#45;&gt;Node41</title>
<path fill="none" stroke="#191970" d="M605.5938,-660.3906C613.8597,-651.1478 626.5426,-636.966 636.5617,-625.7628"/>
<polygon fill="#191970" stroke="#191970" points="639.2278,-628.0321 643.2851,-618.2449 634.01,-623.3657 639.2278,-628.0321"/>
</g>
<!-- Node42 -->
<g id="node43" class="node">
<title>Node42</title>
<polygon fill="none" stroke="#bfbfbf" points="728.5,-537.5 728.5,-556.5 777.5,-556.5 777.5,-537.5 728.5,-537.5"/>
<text text-anchor="middle" x="753" y="-544.5" font-family="FreeSans.ttf" font-size="10.00" fill="#000000">cstdlib</text>
</g>
<!-- Node6&#45;&gt;Node42 -->
<g id="edge83" class="edge">
<title>Node6&#45;&gt;Node42</title>
<path fill="none" stroke="#191970" d="M645.9093,-660.4797C683.2298,-652.1817 730.328,-639.1256 743,-624 756.2797,-608.149 757.2352,-583.647 755.868,-566.5529"/>
<polygon fill="#191970" stroke="#191970" points="759.3392,-566.0994 754.7404,-556.5548 752.3833,-566.8841 759.3392,-566.0994"/>
</g>
<!-- Node7&#45;&gt;Node3 -->
<g id="edge10" class="edge">
<title>Node7&#45;&gt;Node3</title>
<path fill="none" stroke="#191970" d="M456.4063,-598.8906C462.3886,-589.917 471.4747,-576.2879 478.8339,-565.2491"/>
<polygon fill="#191970" stroke="#191970" points="481.8686,-567.0068 484.5034,-556.7449 476.0442,-563.1239 481.8686,-567.0068"/>
</g>
<!-- Node8&#45;&gt;Node3 -->
<g id="edge71" class="edge">
<title>Node8&#45;&gt;Node3</title>
<path fill="none" stroke="#191970" d="M795.9898,-598.9581C731.472,-587.9668 625.5807,-569.9272 557.0866,-558.2585"/>
<polygon fill="#191970" stroke="#191970" points="557.2903,-554.7429 546.8445,-556.5137 556.1147,-561.6435 557.2903,-554.7429"/>
</g>
<!-- Node9 -->
<g id="node10" class="node">
<title>Node9</title>
<g id="a_node10"><a xlink:href="SpatialInertia_8h.html" target="_top" xlink:title="iDynTree/Core/SpatialInertia.h">
<polygon fill="none" stroke="#000000" points="1228,-537.5 1228,-556.5 1390,-556.5 1390,-537.5 1228,-537.5"/>
<text text-anchor="middle" x="1309" y="-544.5" font-family="FreeSans.ttf" font-size="10.00" fill="#000000">iDynTree/Core/SpatialInertia.h</text>
</a>
</g>
</g>
<!-- Node8&#45;&gt;Node9 -->
<g id="edge12" class="edge">
<title>Node8&#45;&gt;Node9</title>
<path fill="none" stroke="#191970" d="M914.1087,-600.1418C995.533,-589.1843 1138.5245,-569.9414 1228.2675,-557.8644"/>
<polygon fill="#191970" stroke="#191970" points="1228.9558,-561.3035 1238.3996,-556.5009 1228.0221,-554.366 1228.9558,-561.3035"/>
</g>
<!-- Node10 -->
<g id="node11" class="node">
<title>Node10</title>
<g id="a_node11"><a xlink:href="SpatialInertiaRaw_8h.html" target="_top" xlink:title="iDynTree/Core/SpatialInertia\lRaw.h">
<polygon fill="none" stroke="#000000" points="1592.5,-470.5 1592.5,-500.5 1745.5,-500.5 1745.5,-470.5 1592.5,-470.5"/>
<text text-anchor="start" x="1600.5" y="-488.5" font-family="FreeSans.ttf" font-size="10.00" fill="#000000">iDynTree/Core/SpatialInertia</text>
<text text-anchor="middle" x="1669" y="-477.5" font-family="FreeSans.ttf" font-size="10.00" fill="#000000">Raw.h</text>
</a>
</g>
</g>
<!-- Node9&#45;&gt;Node10 -->
<g id="edge13" class="edge">
<title>Node9&#45;&gt;Node10</title>
<path fill="none" stroke="#191970" d="M1364.855,-537.4581C1422.9011,-527.5419 1514.5297,-511.8887 1582.057,-500.3528"/>
<polygon fill="#191970" stroke="#191970" points="1582.9904,-503.7441 1592.2582,-498.6101 1581.8116,-496.8441 1582.9904,-503.7441"/>
</g>
<!-- Node19 -->
<g id="node20" class="node">
<title>Node19</title>
<g id="a_node20"><a xlink:href="VectorFixSize_8h.html" target="_top" xlink:title="iDynTree/Core/VectorFixSize.h">
<polygon fill="none" stroke="#000000" points="1219.5,-112.5 1219.5,-131.5 1380.5,-131.5 1380.5,-112.5 1219.5,-112.5"/>
<text text-anchor="middle" x="1300" y="-119.5" font-family="FreeSans.ttf" font-size="10.00" fill="#000000">iDynTree/Core/VectorFixSize.h</text>
</a>
</g>
</g>
<!-- Node9&#45;&gt;Node19 -->
<g id="edge23" class="edge">
<title>Node9&#45;&gt;Node19</title>
<path fill="none" stroke="#191970" d="M1390.1382,-540.5508C1449.4114,-534.163 1523.091,-522.1796 1545,-501 1572.0525,-474.8482 1564,-456.1265 1564,-418.5 1564,-418.5 1564,-418.5 1564,-234 1564,-184.7548 1519.3947,-189.3119 1475,-168 1441.5073,-151.9217 1401.6116,-140.8816 1368.3769,-133.6561"/>
<polygon fill="#191970" stroke="#191970" points="1368.7972,-130.168 1358.2909,-131.5348 1367.3565,-137.0181 1368.7972,-130.168"/>
</g>
<!-- Node28 -->
<g id="node29" class="node">
<title>Node28</title>
<g id="a_node29"><a xlink:href="Twist_8h.html" target="_top" xlink:title="iDynTree/Core/Twist.h">
<polygon fill="none" stroke="#000000" points="1248,-476 1248,-495 1370,-495 1370,-476 1248,-476"/>
<text text-anchor="middle" x="1309" y="-483" font-family="FreeSans.ttf" font-size="10.00" fill="#000000">iDynTree/Core/Twist.h</text>
</a>
</g>
</g>
<!-- Node9&#45;&gt;Node28 -->
<g id="edge39" class="edge">
<title>Node9&#45;&gt;Node28</title>
<path fill="none" stroke="#191970" d="M1309,-537.3906C1309,-528.8657 1309,-516.1392 1309,-505.4235"/>
<polygon fill="#191970" stroke="#191970" points="1312.5001,-505.2448 1309,-495.2449 1305.5001,-505.2449 1312.5001,-505.2448"/>
</g>
<!-- Node36 -->
<g id="node37" class="node">
<title>Node36</title>
<g id="a_node37"><a xlink:href="SpatialMomentum_8h.html" target="_top" xlink:title="iDynTree/Core/SpatialMomentum.h">
<polygon fill="none" stroke="#000000" points="1044,-476 1044,-495 1230,-495 1230,-476 1044,-476"/>
<text text-anchor="middle" x="1137" y="-483" font-family="FreeSans.ttf" font-size="10.00" fill="#000000">iDynTree/Core/SpatialMomentum.h</text>
</a>
</g>
</g>
<!-- Node9&#45;&gt;Node36 -->
<g id="edge62" class="edge">
<title>Node9&#45;&gt;Node36</title>
<path fill="none" stroke="#191970" d="M1282.125,-537.3906C1252.8414,-526.92 1205.831,-510.1111 1173.2863,-498.4745"/>
<polygon fill="#191970" stroke="#191970" points="1174.2809,-495.1131 1163.6863,-495.0419 1171.9241,-501.7045 1174.2809,-495.1131"/>
</g>
<!-- Node38 -->
<g id="node39" class="node">
<title>Node38</title>
<g id="a_node39"><a xlink:href="SpatialAcc_8h.html" target="_top" xlink:title="iDynTree/Core/SpatialAcc.h">
<polygon fill="none" stroke="#000000" points="1388,-476 1388,-495 1536,-495 1536,-476 1388,-476"/>
<text text-anchor="middle" x="1462" y="-483" font-family="FreeSans.ttf" font-size="10.00" fill="#000000">iDynTree/Core/SpatialAcc.h</text>
</a>
</g>
</g>
<!-- Node9&#45;&gt;Node38 -->
<g id="edge67" class="edge">
<title>Node9&#45;&gt;Node38</title>
<path fill="none" stroke="#191970" d="M1332.9063,-537.3906C1358.7305,-527.0103 1400.0527,-510.4004 1428.9705,-498.7766"/>
<polygon fill="#191970" stroke="#191970" points="1430.2885,-502.019 1438.2616,-495.0419 1427.6778,-495.5241 1430.2885,-502.019"/>
</g>
<!-- Node39 -->
<g id="node40" class="node">
<title>Node39</title>
<g id="a_node40"><a xlink:href="Wrench_8h.html" target="_top" xlink:title="iDynTree/Core/Wrench.h">
<polygon fill="none" stroke="#000000" points="892.5,-476 892.5,-495 1025.5,-495 1025.5,-476 892.5,-476"/>
<text text-anchor="middle" x="959" y="-483" font-family="FreeSans.ttf" font-size="10.00" fill="#000000">iDynTree/Core/Wrench.h</text>
</a>
</g>
</g>
<!-- Node9&#45;&gt;Node39 -->
<g id="edge69" class="edge">
<title>Node9&#45;&gt;Node39</title>
<path fill="none" stroke="#191970" d="M1248.4905,-537.4625C1192.899,-528.5529 1108.2686,-514.6175 1035,-501 1028.3286,-499.7601 1021.339,-498.4077 1014.4148,-497.0353"/>
<polygon fill="#191970" stroke="#191970" points="1014.8545,-493.5539 1004.3617,-495.0208 1013.4791,-500.4174 1014.8545,-493.5539"/>
</g>
<!-- Node11 -->
<g id="node12" class="node">
<title>Node11</title>
<g id="a_node12"><a xlink:href="RotationalInertiaRaw_8h.html" target="_top" xlink:title="iDynTree/Core/Rotational\lInertiaRaw.h">
<polygon fill="none" stroke="#000000" points="1594.5,-280.5 1594.5,-310.5 1731.5,-310.5 1731.5,-280.5 1594.5,-280.5"/>
<text text-anchor="start" x="1602.5" y="-298.5" font-family="FreeSans.ttf" font-size="10.00" fill="#000000">iDynTree/Core/Rotational</text>
<text text-anchor="middle" x="1663" y="-287.5" font-family="FreeSans.ttf" font-size="10.00" fill="#000000">InertiaRaw.h</text>
</a>
</g>
</g>
<!-- Node10&#45;&gt;Node11 -->
<g id="edge14" class="edge">
<title>Node10&#45;&gt;Node11</title>
<path fill="none" stroke="#191970" d="M1668.5191,-470.2727C1667.4875,-437.6039 1665.0532,-360.5184 1663.7906,-320.5352"/>
<polygon fill="#191970" stroke="#191970" points="1667.2888,-320.4206 1663.4748,-310.5361 1660.2923,-320.6416 1667.2888,-320.4206"/>
</g>
<!-- Node12 -->
<g id="node13" class="node">
<title>Node12</title>
<g id="a_node13"><a xlink:href="MatrixFixSize_8h.html" target="_top" xlink:title="iDynTree/Core/MatrixFixSize.h">
<polygon fill="none" stroke="#000000" points="1440.5,-112.5 1440.5,-131.5 1601.5,-131.5 1601.5,-112.5 1440.5,-112.5"/>
<text text-anchor="middle" x="1521" y="-119.5" font-family="FreeSans.ttf" font-size="10.00" fill="#000000">iDynTree/Core/MatrixFixSize.h</text>
</a>
</g>
</g>
<!-- Node11&#45;&gt;Node12 -->
<g id="edge15" class="edge">
<title>Node11&#45;&gt;Node12</title>
<path fill="none" stroke="#191970" d="M1654.8928,-280.3117C1641.1156,-255.2917 1611.3616,-204.5447 1578,-168 1567.7171,-156.7361 1554.5581,-145.9297 1543.4749,-137.6245"/>
<polygon fill="#191970" stroke="#191970" points="1545.2689,-134.601 1535.1261,-131.5392 1541.1457,-140.2579 1545.2689,-134.601"/>
</g>
<!-- Node12&#45;&gt;Node4 -->
<g id="edge20" class="edge">
<title>Node12&#45;&gt;Node4</title>
<path fill="none" stroke="#191970" d="M1440.1722,-115.4114C1288.7563,-103.0689 968.4351,-76.9583 866.1277,-68.6189"/>
<polygon fill="#191970" stroke="#191970" points="866.3536,-65.1257 856.1022,-67.8016 865.7848,-72.1026 866.3536,-65.1257"/>
</g>
<!-- Node13 -->
<g id="node14" class="node">
<title>Node13</title>
<g id="a_node14"><a xlink:href="Utils_8h.html" target="_top" xlink:title="iDynTree/Core/Utils.h">
<polygon fill="none" stroke="#000000" points="1465.5,-56.5 1465.5,-75.5 1584.5,-75.5 1584.5,-56.5 1465.5,-56.5"/>
<text text-anchor="middle" x="1525" y="-63.5" font-family="FreeSans.ttf" font-size="10.00" fill="#000000">iDynTree/Core/Utils.h</text>
</a>
</g>
</g>
<!-- Node12&#45;&gt;Node13 -->
<g id="edge16" class="edge">
<title>Node12&#45;&gt;Node13</title>
<path fill="none" stroke="#191970" d="M1521.6967,-112.2455C1522.2187,-104.9382 1522.9504,-94.6944 1523.5925,-85.7046"/>
<polygon fill="#191970" stroke="#191970" points="1527.0898,-85.8667 1524.3112,-75.6427 1520.1076,-85.3679 1527.0898,-85.8667"/>
</g>
<!-- Node12&#45;&gt;Node15 -->
<g id="edge18" class="edge">
<title>Node12&#45;&gt;Node15</title>
<path fill="none" stroke="#191970" d="M1548.6959,-112.4275C1565.0463,-105.1781 1584.3739,-93.4435 1594,-76 1602.1061,-61.3108 1596.7586,-42.3977 1590.4748,-28.5859"/>
<polygon fill="#191970" stroke="#191970" points="1593.5485,-26.9082 1585.9126,-19.5636 1587.3017,-30.067 1593.5485,-26.9082"/>
</g>
<!-- Node16 -->
<g id="node17" class="node">
<title>Node16</title>
<polygon fill="none" stroke="#bfbfbf" points="1397,-56.5 1397,-75.5 1447,-75.5 1447,-56.5 1397,-56.5"/>
<text text-anchor="middle" x="1422" y="-63.5" font-family="FreeSans.ttf" font-size="10.00" fill="#000000">cstring</text>
</g>
<!-- Node12&#45;&gt;Node16 -->
<g id="edge19" class="edge">
<title>Node12&#45;&gt;Node16</title>
<path fill="none" stroke="#191970" d="M1503.7555,-112.2455C1488.4239,-103.5731 1465.7801,-90.7645 1448.2084,-80.825"/>
<polygon fill="#191970" stroke="#191970" points="1449.4741,-77.5198 1439.0469,-75.6427 1446.0276,-83.6126 1449.4741,-77.5198"/>
</g>
<!-- Node17 -->
<g id="node18" class="node">
<title>Node17</title>
<polygon fill="none" stroke="#bfbfbf" points="1641,-56.5 1641,-75.5 1701,-75.5 1701,-56.5 1641,-56.5"/>
<text text-anchor="middle" x="1671" y="-63.5" font-family="FreeSans.ttf" font-size="10.00" fill="#000000">iostream</text>
</g>
<!-- Node12&#45;&gt;Node17 -->
<g id="edge21" class="edge">
<title>Node12&#45;&gt;Node17</title>
<path fill="none" stroke="#191970" d="M1546.7859,-112.3733C1571.4047,-103.1822 1608.69,-89.2624 1635.9875,-79.0713"/>
<polygon fill="#191970" stroke="#191970" points="1637.4063,-82.2777 1645.5506,-75.5011 1634.958,-75.7198 1637.4063,-82.2777"/>
</g>
<!-- Node18 -->
<g id="node19" class="node">
<title>Node18</title>
<polygon fill="none" stroke="#bfbfbf" points="1323,-56.5 1323,-75.5 1379,-75.5 1379,-56.5 1323,-56.5"/>
<text text-anchor="middle" x="1351" y="-63.5" font-family="FreeSans.ttf" font-size="10.00" fill="#000000">sstream</text>
</g>
<!-- Node12&#45;&gt;Node18 -->
<g id="edge22" class="edge">
<title>Node12&#45;&gt;Node18</title>
<path fill="none" stroke="#191970" d="M1491.776,-112.3733C1463.3362,-103.0049 1419.9817,-88.7234 1388.9026,-78.4856"/>
<polygon fill="#191970" stroke="#191970" points="1389.8708,-75.1196 1379.2778,-75.315 1387.6807,-81.7681 1389.8708,-75.1196"/>
</g>
<!-- Node14 -->
<g id="node15" class="node">
<title>Node14</title>
<polygon fill="none" stroke="#bfbfbf" points="1474.5,-.5 1474.5,-19.5 1527.5,-19.5 1527.5,-.5 1474.5,-.5"/>
<text text-anchor="middle" x="1501" y="-7.5" font-family="FreeSans.ttf" font-size="10.00" fill="#000000">cstddef</text>
</g>
<!-- Node13&#45;&gt;Node14 -->
<g id="edge17" class="edge">
<title>Node13&#45;&gt;Node14</title>
<path fill="none" stroke="#191970" d="M1520.8195,-56.2455C1517.619,-48.7776 1513.104,-38.2427 1509.1916,-29.1137"/>
<polygon fill="#191970" stroke="#191970" points="1512.2888,-27.4554 1505.1326,-19.6427 1505.8548,-30.2129 1512.2888,-27.4554"/>
</g>
<!-- Node19&#45;&gt;Node4 -->
<g id="edge35" class="edge">
<title>Node19&#45;&gt;Node4</title>
<path fill="none" stroke="#191970" d="M1220.6855,-112.4686C1116.8926,-99.9957 939.655,-78.6967 866.7738,-69.9385"/>
<polygon fill="#191970" stroke="#191970" points="866.745,-66.4099 856.3988,-68.6917 865.9098,-73.3599 866.745,-66.4099"/>
</g>
<!-- Node19&#45;&gt;Node13 -->
<g id="edge24" class="edge">
<title>Node19&#45;&gt;Node13</title>
<path fill="none" stroke="#191970" d="M1338.4232,-112.4369C1376.6875,-102.9133 1435.5337,-88.2672 1476.8849,-77.9753"/>
<polygon fill="#191970" stroke="#191970" points="1477.8766,-81.3353 1486.7353,-75.5237 1476.1859,-74.5426 1477.8766,-81.3353"/>
</g>
<!-- Node19&#45;&gt;Node15 -->
<g id="edge37" class="edge">
<title>Node19&#45;&gt;Node15</title>
<path fill="none" stroke="#191970" d="M1298.9631,-112.329C1297.9984,-97.8573 1298.5612,-70.7007 1314,-56 1350.3531,-21.3849 1487.7472,-29.6908 1537,-20 1539.1997,-19.5672 1541.4581,-19.1027 1543.733,-18.6195"/>
<polygon fill="#191970" stroke="#191970" points="1544.6733,-21.9963 1553.6824,-16.4208 1543.1628,-15.1612 1544.6733,-21.9963"/>
</g>
<!-- Node19&#45;&gt;Node16 -->
<g id="edge38" class="edge">
<title>Node19&#45;&gt;Node16</title>
<path fill="none" stroke="#191970" d="M1320.9725,-112.3733C1340.5567,-103.3838 1369.9961,-89.8706 1392.051,-79.7471"/>
<polygon fill="#191970" stroke="#191970" points="1393.6729,-82.8538 1401.3011,-75.5011 1390.7527,-76.4919 1393.6729,-82.8538"/>
</g>
<!-- Node19&#45;&gt;Node18 -->
<g id="edge36" class="edge">
<title>Node19&#45;&gt;Node18</title>
<path fill="none" stroke="#191970" d="M1308.8835,-112.2455C1316.1966,-104.2155 1326.7391,-92.6394 1335.4467,-83.0781"/>
<polygon fill="#191970" stroke="#191970" points="1338.0727,-85.3928 1342.2183,-75.6427 1332.8972,-80.6795 1338.0727,-85.3928"/>
</g>
<!-- Node20 -->
<g id="node21" class="node">
<title>Node20</title>
<g id="a_node21"><a xlink:href="Span_8h.html" target="_top" xlink:title="iDynTree/Core/Span.h">
<polygon fill="none" stroke="#000000" points="1145.5,-56.5 1145.5,-75.5 1266.5,-75.5 1266.5,-56.5 1145.5,-56.5"/>
<text text-anchor="middle" x="1206" y="-63.5" font-family="FreeSans.ttf" font-size="10.00" fill="#000000">iDynTree/Core/Span.h</text>
</a>
</g>
</g>
<!-- Node19&#45;&gt;Node20 -->
<g id="edge25" class="edge">
<title>Node19&#45;&gt;Node20</title>
<path fill="none" stroke="#191970" d="M1283.6264,-112.2455C1269.0692,-103.5731 1247.569,-90.7645 1230.8848,-80.825"/>
<polygon fill="#191970" stroke="#191970" points="1232.5683,-77.7539 1222.1859,-75.6427 1228.9856,-83.7676 1232.5683,-77.7539"/>
</g>
<!-- Node20&#45;&gt;Node14 -->
<g id="edge29" class="edge">
<title>Node20&#45;&gt;Node14</title>
<path fill="none" stroke="#191970" d="M1256.3771,-56.4369C1315.465,-45.2202 1411.9857,-26.8976 1464.3762,-16.9523"/>
<polygon fill="#191970" stroke="#191970" points="1465.07,-20.3832 1474.2417,-15.0795 1463.7644,-13.506 1465.07,-20.3832"/>
</g>
<!-- Node20&#45;&gt;Node15 -->
<g id="edge26" class="edge">
<title>Node20&#45;&gt;Node15</title>
<path fill="none" stroke="#191970" d="M1266.8403,-57.8484C1355.1256,-45.9733 1511.0799,-24.8049 1537,-20 1539.2043,-19.5914 1541.4663,-19.1456 1543.7439,-18.6765"/>
<polygon fill="#191970" stroke="#191970" points="1544.6713,-22.0567 1553.7001,-16.5131 1543.1849,-15.2163 1544.6713,-22.0567"/>
</g>
<!-- Node21 -->
<g id="node22" class="node">
<title>Node21</title>
<polygon fill="none" stroke="#bfbfbf" points="1174,-.5 1174,-19.5 1238,-19.5 1238,-.5 1174,-.5"/>
<text text-anchor="middle" x="1206" y="-7.5" font-family="FreeSans.ttf" font-size="10.00" fill="#000000">algorithm</text>
</g>
<!-- Node20&#45;&gt;Node21 -->
<g id="edge27" class="edge">
<title>Node20&#45;&gt;Node21</title>
<path fill="none" stroke="#191970" d="M1206,-56.2455C1206,-48.9382 1206,-38.6944 1206,-29.7046"/>
<polygon fill="#191970" stroke="#191970" points="1209.5001,-29.6426 1206,-19.6427 1202.5001,-29.6427 1209.5001,-29.6426"/>
</g>
<!-- Node22 -->
<g id="node23" class="node">
<title>Node22</title>
<polygon fill="none" stroke="#bfbfbf" points="1256,-.5 1256,-19.5 1298,-19.5 1298,-.5 1256,-.5"/>
<text text-anchor="middle" x="1277" y="-7.5" font-family="FreeSans.ttf" font-size="10.00" fill="#000000">array</text>
</g>
<!-- Node20&#45;&gt;Node22 -->
<g id="edge28" class="edge">
<title>Node20&#45;&gt;Node22</title>
<path fill="none" stroke="#191970" d="M1218.3673,-56.2455C1228.9554,-47.8943 1244.4064,-35.7076 1256.7893,-25.9408"/>
<polygon fill="#191970" stroke="#191970" points="1259.0903,-28.5837 1264.7745,-19.6427 1254.7553,-23.0875 1259.0903,-28.5837"/>
</g>
<!-- Node23 -->
<g id="node24" class="node">
<title>Node23</title>
<polygon fill="none" stroke="#bfbfbf" points="1316.5,-.5 1316.5,-19.5 1369.5,-19.5 1369.5,-.5 1316.5,-.5"/>
<text text-anchor="middle" x="1343" y="-7.5" font-family="FreeSans.ttf" font-size="10.00" fill="#000000">iterator</text>
</g>
<!-- Node20&#45;&gt;Node23 -->
<g id="edge30" class="edge">
<title>Node20&#45;&gt;Node23</title>
<path fill="none" stroke="#191970" d="M1229.5511,-56.3733C1251.8391,-47.2629 1285.4937,-33.5062 1310.3637,-23.3404"/>
<polygon fill="#191970" stroke="#191970" points="1311.8239,-26.5247 1319.7562,-19.5011 1309.1753,-20.0451 1311.8239,-26.5247"/>
</g>
<!-- Node24 -->
<g id="node25" class="node">
<title>Node24</title>
<polygon fill="none" stroke="#bfbfbf" points="1388,-.5 1388,-19.5 1432,-19.5 1432,-.5 1388,-.5"/>
<text text-anchor="middle" x="1410" y="-7.5" font-family="FreeSans.ttf" font-size="10.00" fill="#000000">limits</text>
</g>
<!-- Node20&#45;&gt;Node24 -->
<g id="edge31" class="edge">
<title>Node20&#45;&gt;Node24</title>
<path fill="none" stroke="#191970" d="M1244.2967,-56.4281C1277.3987,-48.0183 1326.7302,-35.162 1378.0832,-20.1727"/>
<polygon fill="#191970" stroke="#191970" points="1379.0842,-23.5266 1387.692,-17.3496 1377.1109,-16.8105 1379.0842,-23.5266"/>
</g>
<!-- Node25 -->
<g id="node26" class="node">
<title>Node25</title>
<polygon fill="none" stroke="#bfbfbf" points="940.5,-.5 940.5,-19.5 1005.5,-19.5 1005.5,-.5 940.5,-.5"/>
<text text-anchor="middle" x="973" y="-7.5" font-family="FreeSans.ttf" font-size="10.00" fill="#000000">stdexcept</text>
</g>
<!-- Node20&#45;&gt;Node25 -->
<g id="edge32" class="edge">
<title>Node20&#45;&gt;Node25</title>
<path fill="none" stroke="#191970" d="M1166.2106,-56.4369C1124.3361,-46.3726 1058.6591,-30.5876 1015.7147,-20.2662"/>
<polygon fill="#191970" stroke="#191970" points="1016.3897,-16.8288 1005.8486,-17.8949 1014.7538,-23.635 1016.3897,-16.8288"/>
</g>
<!-- Node26 -->
<g id="node27" class="node">
<title>Node26</title>
<polygon fill="none" stroke="#bfbfbf" points="1023.5,-.5 1023.5,-19.5 1092.5,-19.5 1092.5,-.5 1023.5,-.5"/>
<text text-anchor="middle" x="1058" y="-7.5" font-family="FreeSans.ttf" font-size="10.00" fill="#000000">type_traits</text>
</g>
<!-- Node20&#45;&gt;Node26 -->
<g id="edge33" class="edge">
<title>Node20&#45;&gt;Node26</title>
<path fill="none" stroke="#191970" d="M1180.5579,-56.3733C1156.2674,-47.1822 1119.4792,-33.2624 1092.5457,-23.0713"/>
<polygon fill="#191970" stroke="#191970" points="1093.7016,-19.7666 1083.1101,-19.5011 1091.2243,-26.3136 1093.7016,-19.7666"/>
</g>
<!-- Node27 -->
<g id="node28" class="node">
<title>Node27</title>
<polygon fill="none" stroke="#bfbfbf" points="1110.5,-.5 1110.5,-19.5 1155.5,-19.5 1155.5,-.5 1110.5,-.5"/>
<text text-anchor="middle" x="1133" y="-7.5" font-family="FreeSans.ttf" font-size="10.00" fill="#000000">utility</text>
</g>
<!-- Node20&#45;&gt;Node27 -->
<g id="edge34" class="edge">
<title>Node20&#45;&gt;Node27</title>
<path fill="none" stroke="#191970" d="M1193.2844,-56.2455C1182.398,-47.8943 1166.5117,-35.7076 1153.78,-25.9408"/>
<polygon fill="#191970" stroke="#191970" points="1155.6346,-22.9523 1145.5699,-19.6427 1151.3739,-28.5063 1155.6346,-22.9523"/>
</g>
<!-- Node29 -->
<g id="node30" class="node">
<title>Node29</title>
<g id="a_node30"><a xlink:href="SpatialMotionVector_8h.html" target="_top" xlink:title="iDynTree/Core/SpatialMotion\lVector.h">
<polygon fill="none" stroke="#000000" points="1339.5,-403.5 1339.5,-433.5 1494.5,-433.5 1494.5,-403.5 1339.5,-403.5"/>
<text text-anchor="start" x="1347.5" y="-421.5" font-family="FreeSans.ttf" font-size="10.00" fill="#000000">iDynTree/Core/SpatialMotion</text>
<text text-anchor="middle" x="1417" y="-410.5" font-family="FreeSans.ttf" font-size="10.00" fill="#000000">Vector.h</text>
</a>
</g>
</g>
<!-- Node28&#45;&gt;Node29 -->
<g id="edge40" class="edge">
<title>Node28&#45;&gt;Node29</title>
<path fill="none" stroke="#191970" d="M1324.4738,-475.9005C1339.9511,-466.2988 1364.2391,-451.2313 1384.0476,-438.9427"/>
<polygon fill="#191970" stroke="#191970" points="1386.1333,-441.7677 1392.7858,-433.5218 1382.4431,-435.8193 1386.1333,-441.7677"/>
</g>
<!-- Node29&#45;&gt;Node19 -->
<g id="edge41" class="edge">
<title>Node29&#45;&gt;Node19</title>
<path fill="none" stroke="#191970" d="M1458.2682,-403.3412C1475.6134,-395.052 1494.6018,-383.1278 1507,-367 1527.0398,-340.9319 1526,-328.3806 1526,-295.5 1526,-295.5 1526,-295.5 1526,-234 1526,-194.0143 1410.9865,-154.0807 1345.0558,-134.4739"/>
<polygon fill="#191970" stroke="#191970" points="1345.8933,-131.0722 1335.3125,-131.6178 1343.9242,-137.7895 1345.8933,-131.0722"/>
</g>
<!-- Node30 -->
<g id="node31" class="node">
<title>Node30</title>
<g id="a_node31"><a xlink:href="GeomVector3_8h.html" target="_top" xlink:title="iDynTree/Core/GeomVector3.h">
<polygon fill="none" stroke="#000000" points="1220.5,-168.5 1220.5,-187.5 1383.5,-187.5 1383.5,-168.5 1220.5,-168.5"/>
<text text-anchor="middle" x="1302" y="-175.5" font-family="FreeSans.ttf" font-size="10.00" fill="#000000">iDynTree/Core/GeomVector3.h</text>
</a>
</g>
</g>
<!-- Node29&#45;&gt;Node30 -->
<g id="edge42" class="edge">
<title>Node29&#45;&gt;Node30</title>
<path fill="none" stroke="#191970" d="M1374.3207,-403.4819C1357.2484,-395.3162 1339.0487,-383.4493 1328,-367 1292.6716,-314.4029 1295.6237,-234.8773 1299.3727,-198.0375"/>
<polygon fill="#191970" stroke="#191970" points="1302.9002,-198.0002 1300.5704,-187.6647 1295.9464,-197.1972 1302.9002,-198.0002"/>
</g>
<!-- Node31 -->
<g id="node32" class="node">
<title>Node31</title>
<g id="a_node32"><a xlink:href="SpatialVector_8h.html" target="_top" xlink:title="iDynTree/Core/SpatialVector.h">
<polygon fill="none" stroke="#000000" points="1336.5,-347.5 1336.5,-366.5 1497.5,-366.5 1497.5,-347.5 1336.5,-347.5"/>
<text text-anchor="middle" x="1417" y="-354.5" font-family="FreeSans.ttf" font-size="10.00" fill="#000000">iDynTree/Core/SpatialVector.h</text>
</a>
</g>
</g>
<!-- Node29&#45;&gt;Node31 -->
<g id="edge44" class="edge">
<title>Node29&#45;&gt;Node31</title>
<path fill="none" stroke="#191970" d="M1417,-403.2977C1417,-395.3834 1417,-385.6043 1417,-377.0759"/>
<polygon fill="#191970" stroke="#191970" points="1420.5001,-376.8469 1417,-366.8469 1413.5001,-376.847 1420.5001,-376.8469"/>
</g>
<!-- Node30&#45;&gt;Node19 -->
<g id="edge43" class="edge">
<title>Node30&#45;&gt;Node19</title>
<path fill="none" stroke="#191970" d="M1301.6516,-168.2455C1301.3907,-160.9382 1301.0248,-150.6944 1300.7037,-141.7046"/>
<polygon fill="#191970" stroke="#191970" points="1304.1992,-141.5113 1300.3444,-131.6427 1297.2036,-141.7613 1304.1992,-141.5113"/>
</g>
<!-- Node31&#45;&gt;Node13 -->
<g id="edge58" class="edge">
<title>Node31&#45;&gt;Node13</title>
<path fill="none" stroke="#191970" d="M1430.2721,-347.4958C1467.8454,-319.6428 1574.5806,-233.7328 1611,-132 1613.996,-123.6312 1615.5687,-119.6249 1611,-112 1601.9913,-96.9649 1586.2066,-86.5677 1570.5987,-79.5159"/>
<polygon fill="#191970" stroke="#191970" points="1571.5449,-76.1203 1560.9657,-75.546 1568.8777,-82.5923 1571.5449,-76.1203"/>
</g>
<!-- Node31&#45;&gt;Node17 -->
<g id="edge60" class="edge">
<title>Node31&#45;&gt;Node17</title>
<path fill="none" stroke="#191970" d="M1423.3758,-347.2118C1433.2365,-332.2809 1453.0339,-303.1137 1472,-280 1529.2423,-210.2395 1549.7582,-198.2771 1611,-132 1626.1433,-115.6116 1643.2484,-96.7622 1655.3092,-83.4143"/>
<polygon fill="#191970" stroke="#191970" points="1658.0024,-85.6541 1662.1042,-75.8855 1652.8058,-80.964 1658.0024,-85.6541"/>
</g>
<!-- Node31&#45;&gt;Node18 -->
<g id="edge61" class="edge">
<title>Node31&#45;&gt;Node18</title>
<path fill="none" stroke="#191970" d="M1416.3463,-347.4362C1414.991,-326.7538 1412,-276.3162 1412,-234 1412,-234 1412,-234 1412,-178 1412,-147.08 1405.1616,-138.9476 1390,-112 1384.1473,-101.5976 1375.7733,-91.3379 1368.2842,-83.1566"/>
<polygon fill="#191970" stroke="#191970" points="1370.6488,-80.5645 1361.2162,-75.7398 1365.5813,-85.3937 1370.6488,-80.5645"/>
</g>
<!-- Node31&#45;&gt;Node30 -->
<g id="edge59" class="edge">
<title>Node31&#45;&gt;Node30</title>
<path fill="none" stroke="#191970" d="M1412.6785,-347.394C1400.5548,-320.6241 1366.0626,-245.7249 1350,-224 1341.9329,-213.0891 1331.1523,-202.4984 1321.8517,-194.2349"/>
<polygon fill="#191970" stroke="#191970" points="1324.0284,-191.4905 1314.1649,-187.6224 1319.4634,-196.7972 1324.0284,-191.4905"/>
</g>
<!-- Node32 -->
<g id="node33" class="node">
<title>Node32</title>
<g id="a_node33"><a xlink:href="Position_8h.html" target="_top" xlink:title="Position.h">
<polygon fill="none" stroke="#000000" points="831.5,-286 831.5,-305 896.5,-305 896.5,-286 831.5,-286"/>
<text text-anchor="middle" x="864" y="-293" font-family="FreeSans.ttf" font-size="10.00" fill="#000000">Position.h</text>
</a>
</g>
</g>
<!-- Node31&#45;&gt;Node32 -->
<g id="edge45" class="edge">
<title>Node31&#45;&gt;Node32</title>
<path fill="none" stroke="#191970" d="M1336.2931,-348.0245C1217.2227,-334.7825 998.6616,-310.4759 906.631,-300.2411"/>
<polygon fill="#191970" stroke="#191970" points="906.8929,-296.7487 896.5673,-299.1219 906.1192,-303.7058 906.8929,-296.7487"/>
</g>
<!-- Node34 -->
<g id="node35" class="node">
<title>Node34</title>
<g id="a_node35"><a xlink:href="Rotation_8h.html" target="_top" xlink:title="iDynTree/Core/Rotation.h">
<polygon fill="none" stroke="#000000" points="909.5,-224.5 909.5,-243.5 1046.5,-243.5 1046.5,-224.5 909.5,-224.5"/>
<text text-anchor="middle" x="978" y="-231.5" font-family="FreeSans.ttf" font-size="10.00" fill="#000000">iDynTree/Core/Rotation.h</text>
</a>
</g>
</g>
<!-- Node31&#45;&gt;Node34 -->
<g id="edge57" class="edge">
<title>Node31&#45;&gt;Node34</title>
<path fill="none" stroke="#191970" d="M1382.9177,-347.4507C1304.1451,-325.3801 1109.5232,-270.8505 1021.9459,-246.3129"/>
<polygon fill="#191970" stroke="#191970" points="1022.6341,-242.871 1012.0606,-243.5432 1020.7455,-249.6114 1022.6341,-242.871"/>
</g>
<!-- Node32&#45;&gt;Node4 -->
<g id="edge56" class="edge">
<title>Node32&#45;&gt;Node4</title>
<path fill="none" stroke="#191970" d="M846.2847,-285.8007C818.9233,-269.6746 767.4105,-234.471 747,-188 728.3536,-145.5456 777.8482,-103.067 809.6355,-81.1788"/>
<polygon fill="#191970" stroke="#191970" points="811.677,-84.0244 818.0603,-75.5683 807.797,-78.1981 811.677,-84.0244"/>
</g>
<!-- Node33 -->
<g id="node34" class="node">
<title>Node33</title>
<g id="a_node34"><a xlink:href="PositionRaw_8h.html" target="_top" xlink:title="iDynTree/Core/PositionRaw.h">
<polygon fill="none" stroke="#000000" points="756,-168.5 756,-187.5 912,-187.5 912,-168.5 756,-168.5"/>
<text text-anchor="middle" x="834" y="-175.5" font-family="FreeSans.ttf" font-size="10.00" fill="#000000">iDynTree/Core/PositionRaw.h</text>
</a>
</g>
</g>
<!-- Node32&#45;&gt;Node33 -->
<g id="edge46" class="edge">
<title>Node32&#45;&gt;Node33</title>
<path fill="none" stroke="#191970" d="M861.545,-285.8845C856.6446,-266.6913 845.5624,-223.286 839.0467,-197.7663"/>
<polygon fill="#191970" stroke="#191970" points="842.3541,-196.5717 836.4889,-187.7484 835.5716,-198.3034 842.3541,-196.5717"/>
</g>
<!-- Node32&#45;&gt;Node34 -->
<g id="edge49" class="edge">
<title>Node32&#45;&gt;Node34</title>
<path fill="none" stroke="#191970" d="M881.8125,-285.8906C900.4685,-275.8262 929.9797,-259.9057 951.3974,-248.3514"/>
<polygon fill="#191970" stroke="#191970" points="953.1734,-251.3702 960.3126,-243.5419 949.8498,-245.2095 953.1734,-251.3702"/>
</g>
<!-- Node33&#45;&gt;Node4 -->
<g id="edge48" class="edge">
<title>Node33&#45;&gt;Node4</title>
<path fill="none" stroke="#191970" d="M834,-168.4509C834,-150.184 834,-109.9553 834,-85.6976"/>
<polygon fill="#191970" stroke="#191970" points="837.5001,-85.5249 834,-75.5249 830.5001,-85.5249 837.5001,-85.5249"/>
</g>
<!-- Node33&#45;&gt;Node19 -->
<g id="edge47" class="edge">
<title>Node33&#45;&gt;Node19</title>
<path fill="none" stroke="#191970" d="M912.2606,-168.5953C994.6775,-158.6911 1124.2365,-143.1218 1210.6188,-132.7411"/>
<polygon fill="#191970" stroke="#191970" points="1211.1599,-136.2013 1220.6708,-131.5331 1210.3246,-129.2513 1211.1599,-136.2013"/>
</g>
<!-- Node34&#45;&gt;Node4 -->
<g id="edge50" class="edge">
<title>Node34&#45;&gt;Node4</title>
<path fill="none" stroke="#191970" d="M969.8453,-224.4862C946.5896,-197.3545 879.6684,-119.2798 849.3065,-83.8576"/>
<polygon fill="#191970" stroke="#191970" points="851.5893,-81.1427 842.4239,-75.8279 846.2744,-85.6983 851.5893,-81.1427"/>
</g>
<!-- Node34&#45;&gt;Node19 -->
<g id="edge55" class="edge">
<title>Node34&#45;&gt;Node19</title>
<path fill="none" stroke="#191970" d="M977.7573,-224.2332C977.9695,-209.6366 980.6933,-182.3188 997,-168 1027.8495,-140.9112 1131.6126,-129.7657 1209.1718,-125.1855"/>
<polygon fill="#191970" stroke="#191970" points="1209.6634,-128.6635 1219.4511,-124.6074 1209.2703,-121.6745 1209.6634,-128.6635"/>
</g>
<!-- Node34&#45;&gt;Node30 -->
<g id="edge51" class="edge">
<title>Node34&#45;&gt;Node30</title>
<path fill="none" stroke="#191970" d="M1033.3294,-224.4369C1089.7115,-214.6918 1177.1258,-199.5832 1236.827,-189.2645"/>
<polygon fill="#191970" stroke="#191970" points="1237.641,-192.6758 1246.8988,-187.5237 1236.4487,-185.778 1237.641,-192.6758"/>
</g>
<!-- Node35 -->
<g id="node36" class="node">
<title>Node35</title>
<g id="a_node36"><a xlink:href="RotationRaw_8h.html" target="_top" xlink:title="iDynTree/Core/RotationRaw.h">
<polygon fill="none" stroke="#000000" points="1006,-168.5 1006,-187.5 1164,-187.5 1164,-168.5 1006,-168.5"/>
<text text-anchor="middle" x="1085" y="-175.5" font-family="FreeSans.ttf" font-size="10.00" fill="#000000">iDynTree/Core/RotationRaw.h</text>
</a>
</g>
</g>
<!-- Node34&#45;&gt;Node35 -->
<g id="edge52" class="edge">
<title>Node34&#45;&gt;Node35</title>
<path fill="none" stroke="#191970" d="M996.638,-224.2455C1013.4386,-215.4527 1038.3634,-202.4079 1057.4618,-192.4125"/>
<polygon fill="#191970" stroke="#191970" points="1059.3386,-195.3807 1066.5756,-187.6427 1056.0927,-189.1787 1059.3386,-195.3807"/>
</g>
<!-- Node35&#45;&gt;Node4 -->
<g id="edge54" class="edge">
<title>Node35&#45;&gt;Node4</title>
<path fill="none" stroke="#191970" d="M1067.4728,-168.4585C1042.5962,-155.0805 995.4573,-130.3338 954,-112 924.5877,-98.9929 890.2536,-86.05 865.8646,-77.2225"/>
<polygon fill="#191970" stroke="#191970" points="866.9835,-73.9055 856.389,-73.8188 864.617,-80.4934 866.9835,-73.9055"/>
</g>
<!-- Node35&#45;&gt;Node12 -->
<g id="edge53" class="edge">
<title>Node35&#45;&gt;Node12</title>
<path fill="none" stroke="#191970" d="M1159.4557,-168.4369C1236.4251,-158.5509 1356.3707,-143.145 1436.7602,-132.8198"/>
<polygon fill="#191970" stroke="#191970" points="1437.3788,-136.2692 1446.8514,-131.5237 1436.487,-129.3262 1437.3788,-136.2692"/>
</g>
<!-- Node37 -->
<g id="node38" class="node">
<title>Node37</title>
<g id="a_node38"><a xlink:href="SpatialForceVector_8h.html" target="_top" xlink:title="iDynTree/Core/SpatialForce\lVector.h">
<polygon fill="none" stroke="#000000" points="1110,-403.5 1110,-433.5 1258,-433.5 1258,-403.5 1110,-403.5"/>
<text text-anchor="start" x="1118" y="-421.5" font-family="FreeSans.ttf" font-size="10.00" fill="#000000">iDynTree/Core/SpatialForce</text>
<text text-anchor="middle" x="1184" y="-410.5" font-family="FreeSans.ttf" font-size="10.00" fill="#000000">Vector.h</text>
</a>
</g>
</g>
<!-- Node36&#45;&gt;Node37 -->
<g id="edge63" class="edge">
<title>Node36&#45;&gt;Node37</title>
<path fill="none" stroke="#191970" d="M1143.734,-475.9005C1149.9234,-467.0773 1159.3504,-453.6387 1167.5274,-441.9822"/>
<polygon fill="#191970" stroke="#191970" points="1170.5848,-443.7184 1173.4623,-433.5218 1164.8542,-439.6984 1170.5848,-443.7184"/>
</g>
<!-- Node37&#45;&gt;Node19 -->
<g id="edge64" class="edge">
<title>Node37&#45;&gt;Node19</title>
<path fill="none" stroke="#191970" d="M1181.1617,-403.3045C1174.2363,-361.5361 1160.5885,-243.1119 1212,-168 1222.3373,-152.8972 1239.235,-142.4097 1255.4739,-135.307"/>
<polygon fill="#191970" stroke="#191970" points="1256.9374,-138.4908 1264.9045,-131.5068 1254.321,-131.9981 1256.9374,-138.4908"/>
</g>
<!-- Node37&#45;&gt;Node30 -->
<g id="edge65" class="edge">
<title>Node37&#45;&gt;Node30</title>
<path fill="none" stroke="#191970" d="M1191.3814,-403.4556C1211.9739,-361.4855 1270.026,-243.1673 1292.7321,-196.8892"/>
<polygon fill="#191970" stroke="#191970" points="1295.9832,-198.2088 1297.2459,-187.6895 1289.6989,-195.1254 1295.9832,-198.2088"/>
</g>
<!-- Node37&#45;&gt;Node31 -->
<g id="edge66" class="edge">
<title>Node37&#45;&gt;Node31</title>
<path fill="none" stroke="#191970" d="M1240.9982,-403.4554C1280.8979,-392.9239 1333.5262,-379.0328 1370.8081,-369.1923"/>
<polygon fill="#191970" stroke="#191970" points="1372.1177,-372.4666 1380.8933,-366.5303 1370.3312,-365.6984 1372.1177,-372.4666"/>
</g>
<!-- Node38&#45;&gt;Node29 -->
<g id="edge68" class="edge">
<title>Node38&#45;&gt;Node29</title>
<path fill="none" stroke="#191970" d="M1455.5526,-475.9005C1449.6266,-467.0773 1440.6006,-453.6387 1432.7716,-441.9822"/>
<polygon fill="#191970" stroke="#191970" points="1435.5703,-439.8717 1427.0892,-433.5218 1429.7594,-443.7746 1435.5703,-439.8717"/>
</g>
<!-- Node39&#45;&gt;Node37 -->
<g id="edge70" class="edge">
<title>Node39&#45;&gt;Node37</title>
<path fill="none" stroke="#191970" d="M991.237,-475.9005C1025.7329,-465.6284 1081.2368,-449.1006 1123.8471,-436.4122"/>
<polygon fill="#191970" stroke="#191970" points="1124.9686,-439.7302 1133.5538,-433.5218 1122.9708,-433.0213 1124.9686,-439.7302"/>
</g>
<!-- Node40&#45;&gt;Node4 -->
<g id="edge76" class="edge">
<title>Node40&#45;&gt;Node4</title>
<path fill="none" stroke="#191970" d="M823.2047,-347.4212C771.7756,-332.6381 690,-298.9242 690,-234 690,-234 690,-234 690,-178 690,-121.5572 759.7848,-89.422 802.1938,-75.1043"/>
<polygon fill="#191970" stroke="#191970" points="803.3727,-78.4017 811.8156,-72.001 801.224,-71.7396 803.3727,-78.4017"/>
</g>
<!-- Node40&#45;&gt;Node12 -->
<g id="edge75" class="edge">
<title>Node40&#45;&gt;Node12</title>
<path fill="none" stroke="#191970" d="M900.9887,-347.4755C988.2824,-324.5069 1213.289,-262.4275 1393,-188 1429.6645,-172.8153 1470.0691,-151.0887 1495.4817,-136.7695"/>
<polygon fill="#191970" stroke="#191970" points="1497.4838,-139.6575 1504.4482,-131.6733 1494.0249,-133.5717 1497.4838,-139.6575"/>
</g>
<!-- Node40&#45;&gt;Node32 -->
<g id="edge73" class="edge">
<title>Node40&#45;&gt;Node32</title>
<path fill="none" stroke="#191970" d="M864,-347.3906C864,-338.8657 864,-326.1392 864,-315.4235"/>
<polygon fill="#191970" stroke="#191970" points="867.5001,-315.2448 864,-305.2449 860.5001,-315.2449 867.5001,-315.2448"/>
</g>
<!-- Node40&#45;&gt;Node34 -->
<g id="edge74" class="edge">
<title>Node40&#45;&gt;Node34</title>
<path fill="none" stroke="#191970" d="M872.9454,-347.3484C892.1749,-326.6008 937.672,-277.5117 962.0011,-251.262"/>
<polygon fill="#191970" stroke="#191970" points="964.8655,-253.3203 969.0962,-243.6068 959.7315,-248.5619 964.8655,-253.3203"/>
</g>
<!-- Node41&#45;&gt;Node2 -->
<g id="edge81" class="edge">
<title>Node41&#45;&gt;Node2</title>
<path fill="none" stroke="#191970" d="M588.5425,-598.9581C500.794,-585.7636 345.4953,-562.4119 277.0343,-552.1176"/>
<polygon fill="#191970" stroke="#191970" points="277.2253,-548.6071 266.816,-550.5811 276.1843,-555.5293 277.2253,-548.6071"/>
</g>
<!-- Node41&#45;&gt;Node4 -->
<g id="edge80" class="edge">
<title>Node41&#45;&gt;Node4</title>
<path fill="none" stroke="#191970" d="M652,-598.9309C652,-578.238 652,-527.7813 652,-485.5 652,-485.5 652,-485.5 652,-178 652,-108.5809 749.226,-80.8067 801.5539,-70.8855"/>
<polygon fill="#191970" stroke="#191970" points="802.4519,-74.2807 811.6832,-69.0814 801.2244,-67.3892 802.4519,-74.2807"/>
</g>
<!-- Node41&#45;&gt;Node40 -->
<g id="edge82" class="edge">
<title>Node41&#45;&gt;Node40</title>
<path fill="none" stroke="#191970" d="M660.0518,-598.948C691.731,-561.3663 808.0684,-423.3528 849.3506,-374.3789"/>
<polygon fill="#191970" stroke="#191970" points="852.1711,-376.4633 855.9402,-366.5615 846.819,-371.9517 852.1711,-376.4633"/>
</g>
<!-- Node41&#45;&gt;Node42 -->
<g id="edge79" class="edge">
<title>Node41&#45;&gt;Node42</title>
<path fill="none" stroke="#191970" d="M667.7813,-598.8906C684.0875,-588.9616 709.754,-573.333 728.6614,-561.8201"/>
<polygon fill="#191970" stroke="#191970" points="730.6087,-564.7322 737.3296,-556.5419 726.9681,-558.7533 730.6087,-564.7322"/>
</g>
</g>
</svg>
