<?xml version="1.0" encoding="UTF-8" standalone="no"?>
<!DOCTYPE svg PUBLIC "-//W3C//DTD SVG 1.1//EN"
 "http://www.w3.org/Graphics/SVG/1.1/DTD/svg11.dtd">
<!-- Generated by graphviz version 2.40.1 (20161225.0304)
 -->
<!-- Title: ModelVisualization.h Pages: 1 -->
<svg width="1600pt" height="666pt"
 viewBox="0.00 0.00 1600.00 666.00" xmlns="http://www.w3.org/2000/svg" xmlns:xlink="http://www.w3.org/1999/xlink">
<g id="graph0" class="graph" transform="scale(1 1) rotate(0) translate(4 662)">
<title>ModelVisualization.h</title>
<!-- Node0 -->
<g id="node1" class="node">
<title>Node0</title>
<polygon fill="#bfbfbf" stroke="#000000" points="672,-638.5 672,-657.5 790,-657.5 790,-638.5 672,-638.5"/>
<text text-anchor="middle" x="731" y="-645.5" font-family="FreeSans.ttf" font-size="10.00" fill="#000000">ModelVisualization.h</text>
</g>
<!-- Node1 -->
<g id="node2" class="node">
<title>Node1</title>
<g id="a_node2"><a xlink:href="Visualizer_8h.html" target="_top" xlink:title="iDynTree/Visualizer.h">
<polygon fill="none" stroke="#000000" points="618.5,-582.5 618.5,-601.5 737.5,-601.5 737.5,-582.5 618.5,-582.5"/>
<text text-anchor="middle" x="678" y="-589.5" font-family="FreeSans.ttf" font-size="10.00" fill="#000000">iDynTree/Visualizer.h</text>
</a>
</g>
</g>
<!-- Node0&#45;&gt;Node1 -->
<g id="edge1" class="edge">
<title>Node0&#45;&gt;Node1</title>
<path fill="none" stroke="#191970" d="M721.7681,-638.2455C714.1683,-630.2155 703.2123,-618.6394 694.1632,-609.0781"/>
<polygon fill="#191970" stroke="#191970" points="696.542,-606.4998 687.1261,-601.6427 691.4579,-611.3115 696.542,-606.4998"/>
</g>
<!-- Node38 -->
<g id="node39" class="node">
<title>Node38</title>
<polygon fill="none" stroke="#bfbfbf" points="755.5,-582.5 755.5,-601.5 812.5,-601.5 812.5,-582.5 755.5,-582.5"/>
<text text-anchor="middle" x="784" y="-589.5" font-family="FreeSans.ttf" font-size="10.00" fill="#000000">irrlicht.h</text>
</g>
<!-- Node0&#45;&gt;Node38 -->
<g id="edge79" class="edge">
<title>Node0&#45;&gt;Node38</title>
<path fill="none" stroke="#191970" d="M740.2319,-638.2455C747.8317,-630.2155 758.7877,-618.6394 767.8368,-609.0781"/>
<polygon fill="#191970" stroke="#191970" points="770.5421,-611.3115 774.8739,-601.6427 765.458,-606.4998 770.5421,-611.3115"/>
</g>
<!-- Node2 -->
<g id="node3" class="node">
<title>Node2</title>
<polygon fill="none" stroke="#bfbfbf" points="376,-56.5 376,-75.5 420,-75.5 420,-56.5 376,-56.5"/>
<text text-anchor="middle" x="398" y="-63.5" font-family="FreeSans.ttf" font-size="10.00" fill="#000000">string</text>
</g>
<!-- Node1&#45;&gt;Node2 -->
<g id="edge2" class="edge">
<title>Node1&#45;&gt;Node2</title>
<path fill="none" stroke="#191970" d="M618.4262,-588.4029C452.9817,-577.6234 0,-542.4107 0,-480 0,-480 0,-480 0,-183.5 0,-107.451 270.6676,-76.9235 365.5836,-68.5562"/>
<polygon fill="#191970" stroke="#191970" points="366.0839,-72.0263 375.749,-67.6862 365.4869,-65.0518 366.0839,-72.0263"/>
</g>
<!-- Node3 -->
<g id="node4" class="node">
<title>Node3</title>
<g id="a_node4"><a xlink:href="Direction_8h.html" target="_top" xlink:title="iDynTree/Core/Direction.h">
<polygon fill="none" stroke="#000000" points="1197.5,-174 1197.5,-193 1338.5,-193 1338.5,-174 1197.5,-174"/>
<text text-anchor="middle" x="1268" y="-181" font-family="FreeSans.ttf" font-size="10.00" fill="#000000">iDynTree/Core/Direction.h</text>
</a>
</g>
</g>
<!-- Node1&#45;&gt;Node3 -->
<g id="edge3" class="edge">
<title>Node1&#45;&gt;Node3</title>
<path fill="none" stroke="#191970" d="M737.6392,-583.0869C905.0176,-557.9735 1367,-487.9388 1367,-480 1367,-480 1367,-480 1367,-301 1367,-255.3112 1322.6825,-218.1611 1293.3503,-198.5765"/>
<polygon fill="#191970" stroke="#191970" points="1295.0977,-195.539 1284.794,-193.0724 1291.3107,-201.4261 1295.0977,-195.539"/>
</g>
<!-- Node18 -->
<g id="node19" class="node">
<title>Node18</title>
<g id="a_node19"><a xlink:href="Position_8h.html" target="_top" xlink:title="iDynTree/Core/Position.h">
<polygon fill="none" stroke="#000000" points="488,-291.5 488,-310.5 624,-310.5 624,-291.5 488,-291.5"/>
<text text-anchor="middle" x="556" y="-298.5" font-family="FreeSans.ttf" font-size="10.00" fill="#000000">iDynTree/Core/Position.h</text>
</a>
</g>
</g>
<!-- Node1&#45;&gt;Node18 -->
<g id="edge23" class="edge">
<title>Node1&#45;&gt;Node18</title>
<path fill="none" stroke="#191970" d="M651.6855,-582.4947C614.4864,-567.1657 551,-533.2099 551,-480 551,-480 551,-480 551,-418.5 551,-384.1088 553.1646,-344.1067 554.6453,-320.7654"/>
<polygon fill="#191970" stroke="#191970" points="558.1405,-320.9512 555.3048,-310.743 551.1556,-320.4916 558.1405,-320.9512"/>
</g>
<!-- Node25 -->
<g id="node26" class="node">
<title>Node25</title>
<g id="a_node26"><a xlink:href="JointState_8h.html" target="_top" xlink:title="iDynTree/Model/JointState.h">
<polygon fill="none" stroke="#000000" points="1112.5,-470.5 1112.5,-489.5 1263.5,-489.5 1263.5,-470.5 1112.5,-470.5"/>
<text text-anchor="middle" x="1188" y="-477.5" font-family="FreeSans.ttf" font-size="10.00" fill="#000000">iDynTree/Model/JointState.h</text>
</a>
</g>
</g>
<!-- Node1&#45;&gt;Node25 -->
<g id="edge42" class="edge">
<title>Node1&#45;&gt;Node25</title>
<path fill="none" stroke="#191970" d="M721.4823,-582.4509C814.6364,-561.9936 1033.2153,-513.9919 1134.6059,-491.7258"/>
<polygon fill="#191970" stroke="#191970" points="1135.6113,-495.0885 1144.6277,-489.5249 1134.1097,-488.2514 1135.6113,-495.0885"/>
</g>
<!-- Node30 -->
<g id="node31" class="node">
<title>Node30</title>
<g id="a_node31"><a xlink:href="LinkState_8h.html" target="_top" xlink:title="iDynTree/Model/LinkState.h">
<polygon fill="none" stroke="#000000" points="603.5,-526.5 603.5,-545.5 752.5,-545.5 752.5,-526.5 603.5,-526.5"/>
<text text-anchor="middle" x="678" y="-533.5" font-family="FreeSans.ttf" font-size="10.00" fill="#000000">iDynTree/Model/LinkState.h</text>
</a>
</g>
</g>
<!-- Node1&#45;&gt;Node30 -->
<g id="edge58" class="edge">
<title>Node1&#45;&gt;Node30</title>
<path fill="none" stroke="#191970" d="M678,-582.2455C678,-574.9382 678,-564.6944 678,-555.7046"/>
<polygon fill="#191970" stroke="#191970" points="681.5001,-555.6426 678,-545.6427 674.5001,-555.6427 681.5001,-555.6426"/>
</g>
<!-- Node3&#45;&gt;Node2 -->
<g id="edge4" class="edge">
<title>Node3&#45;&gt;Node2</title>
<path fill="none" stroke="#191970" d="M1197.1469,-177.8051C1160.1524,-174.8476 1114.1388,-171.1939 1073,-168 861.9186,-151.6121 805.6134,-173.4796 598,-132 593.7385,-131.1486 485.4493,-95.1437 430.0334,-76.6811"/>
<polygon fill="#191970" stroke="#191970" points="430.9319,-73.2914 420.3383,-73.4503 428.7189,-79.9324 430.9319,-73.2914"/>
</g>
<!-- Node4 -->
<g id="node5" class="node">
<title>Node4</title>
<g id="a_node5"><a xlink:href="VectorFixSize_8h.html" target="_top" xlink:title="iDynTree/Core/VectorFixSize.h">
<polygon fill="none" stroke="#000000" points="902.5,-112.5 902.5,-131.5 1063.5,-131.5 1063.5,-112.5 902.5,-112.5"/>
<text text-anchor="middle" x="983" y="-119.5" font-family="FreeSans.ttf" font-size="10.00" fill="#000000">iDynTree/Core/VectorFixSize.h</text>
</a>
</g>
</g>
<!-- Node3&#45;&gt;Node4 -->
<g id="edge5" class="edge">
<title>Node3&#45;&gt;Node4</title>
<path fill="none" stroke="#191970" d="M1223.7815,-173.9581C1173.5473,-163.1181 1091.5427,-145.4224 1037.4228,-133.7439"/>
<polygon fill="#191970" stroke="#191970" points="1037.8356,-130.2524 1027.3223,-131.5643 1036.359,-137.095 1037.8356,-130.2524"/>
</g>
<!-- Node5 -->
<g id="node6" class="node">
<title>Node5</title>
<g id="a_node6"><a xlink:href="Utils_8h.html" target="_top" xlink:title="iDynTree/Core/Utils.h">
<polygon fill="none" stroke="#000000" points="1005.5,-56.5 1005.5,-75.5 1124.5,-75.5 1124.5,-56.5 1005.5,-56.5"/>
<text text-anchor="middle" x="1065" y="-63.5" font-family="FreeSans.ttf" font-size="10.00" fill="#000000">iDynTree/Core/Utils.h</text>
</a>
</g>
</g>
<!-- Node3&#45;&gt;Node5 -->
<g id="edge22" class="edge">
<title>Node3&#45;&gt;Node5</title>
<path fill="none" stroke="#191970" d="M1251.3877,-173.8845C1215.9099,-153.3494 1132.5479,-105.0979 1090.3794,-80.6901"/>
<polygon fill="#191970" stroke="#191970" points="1091.9653,-77.564 1081.5572,-75.5836 1088.4586,-83.6223 1091.9653,-77.564"/>
</g>
<!-- Node4&#45;&gt;Node2 -->
<g id="edge18" class="edge">
<title>Node4&#45;&gt;Node2</title>
<path fill="none" stroke="#191970" d="M902.2725,-114.2722C771.5536,-101.759 519.2112,-77.6031 430.1107,-69.0738"/>
<polygon fill="#191970" stroke="#191970" points="430.3612,-65.5819 420.0731,-68.113 429.6941,-72.5501 430.3612,-65.5819"/>
</g>
<!-- Node4&#45;&gt;Node5 -->
<g id="edge6" class="edge">
<title>Node4&#45;&gt;Node5</title>
<path fill="none" stroke="#191970" d="M997.2833,-112.2455C1009.747,-103.7337 1028.0451,-91.2375 1042.4792,-81.3801"/>
<polygon fill="#191970" stroke="#191970" points="1044.5962,-84.1726 1050.8804,-75.6427 1040.6485,-78.392 1044.5962,-84.1726"/>
</g>
<!-- Node7 -->
<g id="node8" class="node">
<title>Node7</title>
<g id="a_node8"><a xlink:href="Span_8h.html" target="_top" xlink:title="iDynTree/Core/Span.h">
<polygon fill="none" stroke="#000000" points="1232.5,-56.5 1232.5,-75.5 1353.5,-75.5 1353.5,-56.5 1232.5,-56.5"/>
<text text-anchor="middle" x="1293" y="-63.5" font-family="FreeSans.ttf" font-size="10.00" fill="#000000">iDynTree/Core/Span.h</text>
</a>
</g>
</g>
<!-- Node4&#45;&gt;Node7 -->
<g id="edge8" class="edge">
<title>Node4&#45;&gt;Node7</title>
<path fill="none" stroke="#191970" d="M1035.9387,-112.4369C1089.773,-102.712 1173.1761,-87.6456 1230.2887,-77.3285"/>
<polygon fill="#191970" stroke="#191970" points="1231.0612,-80.7457 1240.2797,-75.5237 1229.8167,-73.8572 1231.0612,-80.7457"/>
</g>
<!-- Node8 -->
<g id="node9" class="node">
<title>Node8</title>
<polygon fill="none" stroke="#bfbfbf" points="951,-.5 951,-19.5 1003,-19.5 1003,-.5 951,-.5"/>
<text text-anchor="middle" x="977" y="-7.5" font-family="FreeSans.ttf" font-size="10.00" fill="#000000">cassert</text>
</g>
<!-- Node4&#45;&gt;Node8 -->
<g id="edge20" class="edge">
<title>Node4&#45;&gt;Node8</title>
<path fill="none" stroke="#191970" d="M982.4884,-112.4509C981.5099,-94.184 979.3547,-53.9553 978.0552,-29.6976"/>
<polygon fill="#191970" stroke="#191970" points="981.5403,-29.3233 977.5103,-19.5249 974.5503,-29.6978 981.5403,-29.3233"/>
</g>
<!-- Node16 -->
<g id="node17" class="node">
<title>Node16</title>
<polygon fill="none" stroke="#bfbfbf" points="807,-56.5 807,-75.5 863,-75.5 863,-56.5 807,-56.5"/>
<text text-anchor="middle" x="835" y="-63.5" font-family="FreeSans.ttf" font-size="10.00" fill="#000000">sstream</text>
</g>
<!-- Node4&#45;&gt;Node16 -->
<g id="edge19" class="edge">
<title>Node4&#45;&gt;Node16</title>
<path fill="none" stroke="#191970" d="M957.5579,-112.3733C933.2674,-103.1822 896.4792,-89.2624 869.5457,-79.0713"/>
<polygon fill="#191970" stroke="#191970" points="870.7016,-75.7666 860.1101,-75.5011 868.2243,-82.3136 870.7016,-75.7666"/>
</g>
<!-- Node17 -->
<g id="node18" class="node">
<title>Node17</title>
<polygon fill="none" stroke="#bfbfbf" points="893,-56.5 893,-75.5 943,-75.5 943,-56.5 893,-56.5"/>
<text text-anchor="middle" x="918" y="-63.5" font-family="FreeSans.ttf" font-size="10.00" fill="#000000">cstring</text>
</g>
<!-- Node4&#45;&gt;Node17 -->
<g id="edge21" class="edge">
<title>Node4&#45;&gt;Node17</title>
<path fill="none" stroke="#191970" d="M971.6779,-112.2455C962.0777,-103.9746 948.1108,-91.9416 936.8305,-82.2232"/>
<polygon fill="#191970" stroke="#191970" points="939.053,-79.5182 929.1924,-75.6427 934.484,-84.8214 939.053,-79.5182"/>
</g>
<!-- Node6 -->
<g id="node7" class="node">
<title>Node6</title>
<polygon fill="none" stroke="#bfbfbf" points="1029.5,-.5 1029.5,-19.5 1082.5,-19.5 1082.5,-.5 1029.5,-.5"/>
<text text-anchor="middle" x="1056" y="-7.5" font-family="FreeSans.ttf" font-size="10.00" fill="#000000">cstddef</text>
</g>
<!-- Node5&#45;&gt;Node6 -->
<g id="edge7" class="edge">
<title>Node5&#45;&gt;Node6</title>
<path fill="none" stroke="#191970" d="M1063.4323,-56.2455C1062.2579,-48.9382 1060.6116,-38.6944 1059.1668,-29.7046"/>
<polygon fill="#191970" stroke="#191970" points="1062.5922,-28.9606 1057.5497,-19.6427 1055.6809,-30.0714 1062.5922,-28.9606"/>
</g>
<!-- Node7&#45;&gt;Node6 -->
<g id="edge12" class="edge">
<title>Node7&#45;&gt;Node6</title>
<path fill="none" stroke="#191970" d="M1247.9026,-56.466C1209.0183,-48.0804 1151.154,-35.2097 1092.5105,-20.3021"/>
<polygon fill="#191970" stroke="#191970" points="1093.2679,-16.8832 1082.7123,-17.7939 1091.5319,-23.6646 1093.2679,-16.8832"/>
</g>
<!-- Node7&#45;&gt;Node8 -->
<g id="edge9" class="edge">
<title>Node7&#45;&gt;Node8</title>
<path fill="none" stroke="#191970" d="M1232.3528,-56.8777C1176.8998,-48.2768 1092.6943,-34.5629 1020,-20 1017.8018,-19.5596 1015.5446,-19.0894 1013.2705,-18.6017"/>
<polygon fill="#191970" stroke="#191970" points="1013.8444,-15.144 1003.3233,-16.392 1012.3263,-21.9774 1013.8444,-15.144"/>
</g>
<!-- Node9 -->
<g id="node10" class="node">
<title>Node9</title>
<polygon fill="none" stroke="#bfbfbf" points="1334,-.5 1334,-19.5 1398,-19.5 1398,-.5 1334,-.5"/>
<text text-anchor="middle" x="1366" y="-7.5" font-family="FreeSans.ttf" font-size="10.00" fill="#000000">algorithm</text>
</g>
<!-- Node7&#45;&gt;Node9 -->
<g id="edge10" class="edge">
<title>Node7&#45;&gt;Node9</title>
<path fill="none" stroke="#191970" d="M1305.7156,-56.2455C1316.602,-47.8943 1332.4883,-35.7076 1345.22,-25.9408"/>
<polygon fill="#191970" stroke="#191970" points="1347.6261,-28.5063 1353.4301,-19.6427 1343.3654,-22.9523 1347.6261,-28.5063"/>
</g>
<!-- Node10 -->
<g id="node11" class="node">
<title>Node10</title>
<polygon fill="none" stroke="#bfbfbf" points="1416,-.5 1416,-19.5 1458,-19.5 1458,-.5 1416,-.5"/>
<text text-anchor="middle" x="1437" y="-7.5" font-family="FreeSans.ttf" font-size="10.00" fill="#000000">array</text>
</g>
<!-- Node7&#45;&gt;Node10 -->
<g id="edge11" class="edge">
<title>Node7&#45;&gt;Node10</title>
<path fill="none" stroke="#191970" d="M1317.7545,-56.3733C1342.2831,-46.8343 1379.9096,-32.2018 1406.3214,-21.9306"/>
<polygon fill="#191970" stroke="#191970" points="1407.7927,-25.1138 1415.8442,-18.2273 1405.2555,-18.5898 1407.7927,-25.1138"/>
</g>
<!-- Node11 -->
<g id="node12" class="node">
<title>Node11</title>
<polygon fill="none" stroke="#bfbfbf" points="1476.5,-.5 1476.5,-19.5 1529.5,-19.5 1529.5,-.5 1476.5,-.5"/>
<text text-anchor="middle" x="1503" y="-7.5" font-family="FreeSans.ttf" font-size="10.00" fill="#000000">iterator</text>
</g>
<!-- Node7&#45;&gt;Node11 -->
<g id="edge13" class="edge">
<title>Node7&#45;&gt;Node11</title>
<path fill="none" stroke="#191970" d="M1329.6967,-56.4408C1362.8708,-47.7675 1413.3069,-34.5031 1466.344,-20.1548"/>
<polygon fill="#191970" stroke="#191970" points="1467.5375,-23.4577 1476.2739,-17.4639 1465.7065,-16.7014 1467.5375,-23.4577"/>
</g>
<!-- Node12 -->
<g id="node13" class="node">
<title>Node12</title>
<polygon fill="none" stroke="#bfbfbf" points="1548,-.5 1548,-19.5 1592,-19.5 1592,-.5 1548,-.5"/>
<text text-anchor="middle" x="1570" y="-7.5" font-family="FreeSans.ttf" font-size="10.00" fill="#000000">limits</text>
</g>
<!-- Node7&#45;&gt;Node12 -->
<g id="edge14" class="edge">
<title>Node7&#45;&gt;Node12</title>
<path fill="none" stroke="#191970" d="M1353.586,-56.6582C1403.4307,-48.487 1475.7446,-35.515 1538,-20 1538.0988,-19.9754 1538.1978,-19.9506 1538.2969,-19.9257"/>
<polygon fill="#191970" stroke="#191970" points="1539.0041,-23.3614 1547.715,-17.3306 1537.1445,-16.6129 1539.0041,-23.3614"/>
</g>
<!-- Node13 -->
<g id="node14" class="node">
<title>Node13</title>
<polygon fill="none" stroke="#bfbfbf" points="1100.5,-.5 1100.5,-19.5 1165.5,-19.5 1165.5,-.5 1100.5,-.5"/>
<text text-anchor="middle" x="1133" y="-7.5" font-family="FreeSans.ttf" font-size="10.00" fill="#000000">stdexcept</text>
</g>
<!-- Node7&#45;&gt;Node13 -->
<g id="edge15" class="edge">
<title>Node7&#45;&gt;Node13</title>
<path fill="none" stroke="#191970" d="M1265.495,-56.3733C1239.1198,-47.1419 1199.1149,-33.1402 1169.9642,-22.9375"/>
<polygon fill="#191970" stroke="#191970" points="1170.7409,-19.5012 1160.1461,-19.5011 1168.4284,-26.1082 1170.7409,-19.5012"/>
</g>
<!-- Node14 -->
<g id="node15" class="node">
<title>Node14</title>
<polygon fill="none" stroke="#bfbfbf" points="1183.5,-.5 1183.5,-19.5 1252.5,-19.5 1252.5,-.5 1183.5,-.5"/>
<text text-anchor="middle" x="1218" y="-7.5" font-family="FreeSans.ttf" font-size="10.00" fill="#000000">type_traits</text>
</g>
<!-- Node7&#45;&gt;Node14 -->
<g id="edge16" class="edge">
<title>Node7&#45;&gt;Node14</title>
<path fill="none" stroke="#191970" d="M1279.936,-56.2455C1268.6438,-47.814 1252.1155,-35.4729 1238.9729,-25.6598"/>
<polygon fill="#191970" stroke="#191970" points="1241.0211,-22.8211 1230.9143,-19.6427 1236.8331,-28.4301 1241.0211,-22.8211"/>
</g>
<!-- Node15 -->
<g id="node16" class="node">
<title>Node15</title>
<polygon fill="none" stroke="#bfbfbf" points="1270.5,-.5 1270.5,-19.5 1315.5,-19.5 1315.5,-.5 1270.5,-.5"/>
<text text-anchor="middle" x="1293" y="-7.5" font-family="FreeSans.ttf" font-size="10.00" fill="#000000">utility</text>
</g>
<!-- Node7&#45;&gt;Node15 -->
<g id="edge17" class="edge">
<title>Node7&#45;&gt;Node15</title>
<path fill="none" stroke="#191970" d="M1293,-56.2455C1293,-48.9382 1293,-38.6944 1293,-29.7046"/>
<polygon fill="#191970" stroke="#191970" points="1296.5001,-29.6426 1293,-19.6427 1289.5001,-29.6427 1296.5001,-29.6426"/>
</g>
<!-- Node18&#45;&gt;Node2 -->
<g id="edge41" class="edge">
<title>Node18&#45;&gt;Node2</title>
<path fill="none" stroke="#191970" d="M515.7854,-291.4627C471.8594,-278.6577 403.6756,-251.2167 373,-199 353.4142,-165.6607 363.4745,-149.475 373,-112 375.4785,-102.2493 380.4873,-92.3309 385.3751,-84.2128"/>
<polygon fill="#191970" stroke="#191970" points="388.4313,-85.9312 390.8985,-75.6276 382.5444,-82.1437 388.4313,-85.9312"/>
</g>
<!-- Node19 -->
<g id="node20" class="node">
<title>Node19</title>
<g id="a_node20"><a xlink:href="PositionRaw_8h.html" target="_top" xlink:title="iDynTree/Core/PositionRaw.h">
<polygon fill="none" stroke="#000000" points="399,-174 399,-193 555,-193 555,-174 399,-174"/>
<text text-anchor="middle" x="477" y="-181" font-family="FreeSans.ttf" font-size="10.00" fill="#000000">iDynTree/Core/PositionRaw.h</text>
</a>
</g>
</g>
<!-- Node18&#45;&gt;Node19 -->
<g id="edge24" class="edge">
<title>Node18&#45;&gt;Node19</title>
<path fill="none" stroke="#191970" d="M549.5351,-291.3845C536.3414,-271.761 506.1308,-226.8274 489.154,-201.5772"/>
<polygon fill="#191970" stroke="#191970" points="492.0384,-199.5942 483.5542,-193.2484 486.2293,-203.5 492.0384,-199.5942"/>
</g>
<!-- Node20 -->
<g id="node21" class="node">
<title>Node20</title>
<g id="a_node21"><a xlink:href="Rotation_8h.html" target="_top" xlink:title="iDynTree/Core/Rotation.h">
<polygon fill="none" stroke="#000000" points="583.5,-235.5 583.5,-254.5 720.5,-254.5 720.5,-235.5 583.5,-235.5"/>
<text text-anchor="middle" x="652" y="-242.5" font-family="FreeSans.ttf" font-size="10.00" fill="#000000">iDynTree/Core/Rotation.h</text>
</a>
</g>
</g>
<!-- Node18&#45;&gt;Node20 -->
<g id="edge27" class="edge">
<title>Node18&#45;&gt;Node20</title>
<path fill="none" stroke="#191970" d="M572.7219,-291.2455C587.5889,-282.5731 609.5466,-269.7645 626.5858,-259.825"/>
<polygon fill="#191970" stroke="#191970" points="628.5955,-262.7047 635.4697,-254.6427 625.0683,-256.6582 628.5955,-262.7047"/>
</g>
<!-- Node19&#45;&gt;Node2 -->
<g id="edge26" class="edge">
<title>Node19&#45;&gt;Node2</title>
<path fill="none" stroke="#191970" d="M470.5351,-173.8845C457.3414,-154.261 427.1308,-109.3274 410.154,-84.0772"/>
<polygon fill="#191970" stroke="#191970" points="413.0384,-82.0942 404.5542,-75.7484 407.2293,-86 413.0384,-82.0942"/>
</g>
<!-- Node19&#45;&gt;Node4 -->
<g id="edge25" class="edge">
<title>Node19&#45;&gt;Node4</title>
<path fill="none" stroke="#191970" d="M527.0535,-173.9914C539.1257,-171.8617 552.0032,-169.7252 564,-168 676.7608,-151.784 807.3202,-138.28 892.3354,-130.1859"/>
<polygon fill="#191970" stroke="#191970" points="892.8476,-133.6531 902.473,-129.2258 892.1875,-126.6843 892.8476,-133.6531"/>
</g>
<!-- Node20&#45;&gt;Node2 -->
<g id="edge28" class="edge">
<title>Node20&#45;&gt;Node2</title>
<path fill="none" stroke="#191970" d="M583.2922,-242.6288C514.109,-238.6241 414.2411,-227.8679 390,-199 363.0917,-166.9558 378.2047,-113.7912 389.3892,-85.3531"/>
<polygon fill="#191970" stroke="#191970" points="392.7709,-86.3371 393.3877,-75.7602 386.3097,-83.6439 392.7709,-86.3371"/>
</g>
<!-- Node20&#45;&gt;Node4 -->
<g id="edge40" class="edge">
<title>Node20&#45;&gt;Node4</title>
<path fill="none" stroke="#191970" d="M677.6976,-235.4507C736.3555,-213.6534 880.2122,-160.1961 947.3754,-135.2381"/>
<polygon fill="#191970" stroke="#191970" points="948.936,-138.3921 957.0906,-131.628 946.4977,-131.8305 948.936,-138.3921"/>
</g>
<!-- Node21 -->
<g id="node22" class="node">
<title>Node21</title>
<g id="a_node22"><a xlink:href="GeomVector3_8h.html" target="_top" xlink:title="iDynTree/Core/GeomVector3.h">
<polygon fill="none" stroke="#000000" points="901.5,-174 901.5,-193 1064.5,-193 1064.5,-174 901.5,-174"/>
<text text-anchor="middle" x="983" y="-181" font-family="FreeSans.ttf" font-size="10.00" fill="#000000">iDynTree/Core/GeomVector3.h</text>
</a>
</g>
</g>
<!-- Node20&#45;&gt;Node21 -->
<g id="edge29" class="edge">
<title>Node20&#45;&gt;Node21</title>
<path fill="none" stroke="#191970" d="M703.3556,-235.4581C762.2689,-224.512 858.8065,-206.5752 921.6299,-194.9026"/>
<polygon fill="#191970" stroke="#191970" points="922.6039,-198.2816 931.7963,-193.0137 921.3252,-191.3994 922.6039,-198.2816"/>
</g>
<!-- Node22 -->
<g id="node23" class="node">
<title>Node22</title>
<g id="a_node23"><a xlink:href="RotationRaw_8h.html" target="_top" xlink:title="iDynTree/Core/RotationRaw.h">
<polygon fill="none" stroke="#000000" points="573,-174 573,-193 731,-193 731,-174 573,-174"/>
<text text-anchor="middle" x="652" y="-181" font-family="FreeSans.ttf" font-size="10.00" fill="#000000">iDynTree/Core/RotationRaw.h</text>
</a>
</g>
</g>
<!-- Node20&#45;&gt;Node22 -->
<g id="edge31" class="edge">
<title>Node20&#45;&gt;Node22</title>
<path fill="none" stroke="#191970" d="M652,-235.3906C652,-226.8657 652,-214.1392 652,-203.4235"/>
<polygon fill="#191970" stroke="#191970" points="655.5001,-203.2448 652,-193.2449 648.5001,-203.2449 655.5001,-203.2448"/>
</g>
<!-- Node21&#45;&gt;Node4 -->
<g id="edge30" class="edge">
<title>Node21&#45;&gt;Node4</title>
<path fill="none" stroke="#191970" d="M983,-173.8906C983,-165.3657 983,-152.6392 983,-141.9235"/>
<polygon fill="#191970" stroke="#191970" points="986.5001,-141.7448 983,-131.7449 979.5001,-141.7449 986.5001,-141.7448"/>
</g>
<!-- Node22&#45;&gt;Node2 -->
<g id="edge39" class="edge">
<title>Node22&#45;&gt;Node2</title>
<path fill="none" stroke="#191970" d="M631.2141,-173.8845C586.357,-153.1336 480.3202,-104.0812 428.11,-79.9289"/>
<polygon fill="#191970" stroke="#191970" points="429.2623,-76.6056 418.7169,-75.5836 426.3233,-82.9587 429.2623,-76.6056"/>
</g>
<!-- Node23 -->
<g id="node24" class="node">
<title>Node23</title>
<g id="a_node24"><a xlink:href="MatrixFixSize_8h.html" target="_top" xlink:title="iDynTree/Core/MatrixFixSize.h">
<polygon fill="none" stroke="#000000" points="607.5,-112.5 607.5,-131.5 768.5,-131.5 768.5,-112.5 607.5,-112.5"/>
<text text-anchor="middle" x="688" y="-119.5" font-family="FreeSans.ttf" font-size="10.00" fill="#000000">iDynTree/Core/MatrixFixSize.h</text>
</a>
</g>
</g>
<!-- Node22&#45;&gt;Node23 -->
<g id="edge32" class="edge">
<title>Node22&#45;&gt;Node23</title>
<path fill="none" stroke="#191970" d="M657.625,-173.8906C662.8253,-165.0068 670.6966,-151.5601 677.1233,-140.5811"/>
<polygon fill="#191970" stroke="#191970" points="680.2644,-142.1432 682.2957,-131.7449 674.2233,-138.6069 680.2644,-142.1432"/>
</g>
<!-- Node23&#45;&gt;Node2 -->
<g id="edge36" class="edge">
<title>Node23&#45;&gt;Node2</title>
<path fill="none" stroke="#191970" d="M638.4767,-112.4369C578.971,-100.9461 480.8467,-81.998 430.3067,-72.2385"/>
<polygon fill="#191970" stroke="#191970" points="430.7575,-68.761 420.2752,-70.3014 429.4302,-75.634 430.7575,-68.761"/>
</g>
<!-- Node23&#45;&gt;Node5 -->
<g id="edge33" class="edge">
<title>Node23&#45;&gt;Node5</title>
<path fill="none" stroke="#191970" d="M752.3802,-112.4369C819.9306,-102.4029 925.7626,-86.6825 995.2587,-76.3595"/>
<polygon fill="#191970" stroke="#191970" points="995.8625,-79.8083 1005.2396,-74.8769 994.8339,-72.8842 995.8625,-79.8083"/>
</g>
<!-- Node23&#45;&gt;Node8 -->
<g id="edge34" class="edge">
<title>Node23&#45;&gt;Node8</title>
<path fill="none" stroke="#191970" d="M688.908,-112.1957C690.8184,-97.5501 696.6328,-70.1693 714,-56 748.192,-28.104 877.006,-16.2577 940.7777,-12.0183"/>
<polygon fill="#191970" stroke="#191970" points="941.0389,-15.5088 950.7959,-11.3795 940.5935,-8.523 941.0389,-15.5088"/>
</g>
<!-- Node23&#45;&gt;Node16 -->
<g id="edge38" class="edge">
<title>Node23&#45;&gt;Node16</title>
<path fill="none" stroke="#191970" d="M713.2702,-112.3733C737.3966,-103.1822 773.9362,-89.2624 800.6877,-79.0713"/>
<polygon fill="#191970" stroke="#191970" points="801.9607,-82.3318 810.0596,-75.5011 799.4687,-75.7904 801.9607,-82.3318"/>
</g>
<!-- Node23&#45;&gt;Node17 -->
<g id="edge35" class="edge">
<title>Node23&#45;&gt;Node17</title>
<path fill="none" stroke="#191970" d="M727.2771,-112.4369C771.0144,-101.7878 841.0575,-84.7338 882.9888,-74.5245"/>
<polygon fill="#191970" stroke="#191970" points="883.8688,-77.9125 892.7569,-72.1461 882.2127,-71.1112 883.8688,-77.9125"/>
</g>
<!-- Node24 -->
<g id="node25" class="node">
<title>Node24</title>
<polygon fill="none" stroke="#bfbfbf" points="723,-56.5 723,-75.5 783,-75.5 783,-56.5 723,-56.5"/>
<text text-anchor="middle" x="753" y="-63.5" font-family="FreeSans.ttf" font-size="10.00" fill="#000000">iostream</text>
</g>
<!-- Node23&#45;&gt;Node24 -->
<g id="edge37" class="edge">
<title>Node23&#45;&gt;Node24</title>
<path fill="none" stroke="#191970" d="M699.3221,-112.2455C708.9223,-103.9746 722.8892,-91.9416 734.1695,-82.2232"/>
<polygon fill="#191970" stroke="#191970" points="736.516,-84.8214 741.8076,-75.6427 731.947,-79.5182 736.516,-84.8214"/>
</g>
<!-- Node25&#45;&gt;Node4 -->
<g id="edge43" class="edge">
<title>Node25&#45;&gt;Node4</title>
<path fill="none" stroke="#191970" d="M1185.4376,-470.1946C1180.2514,-449.4585 1169,-399.5666 1169,-357 1169,-357 1169,-357 1169,-245 1169,-207.0319 1160.7652,-192.782 1132,-168 1112.8914,-151.5374 1087.9575,-140.9649 1063.9688,-134.1756"/>
<polygon fill="#191970" stroke="#191970" points="1064.687,-130.7453 1054.125,-131.5792 1062.9017,-137.5139 1064.687,-130.7453"/>
</g>
<!-- Node26 -->
<g id="node27" class="node">
<title>Node26</title>
<g id="a_node27"><a xlink:href="VectorDynSize_8h.html" target="_top" xlink:title="iDynTree/Core/VectorDynSize.h">
<polygon fill="none" stroke="#000000" points="1357.5,-112.5 1357.5,-131.5 1524.5,-131.5 1524.5,-112.5 1357.5,-112.5"/>
<text text-anchor="middle" x="1441" y="-119.5" font-family="FreeSans.ttf" font-size="10.00" fill="#000000">iDynTree/Core/VectorDynSize.h</text>
</a>
</g>
</g>
<!-- Node25&#45;&gt;Node26 -->
<g id="edge44" class="edge">
<title>Node25&#45;&gt;Node26</title>
<path fill="none" stroke="#191970" d="M1219.5537,-470.4178C1279.7381,-449.9653 1405,-395.9878 1405,-301 1405,-301 1405,-301 1405,-245 1405,-206.8178 1421.1765,-164.5555 1431.8422,-140.8402"/>
<polygon fill="#191970" stroke="#191970" points="1435.0948,-142.1464 1436.1449,-131.6037 1428.7495,-139.1905 1435.0948,-142.1464"/>
</g>
<!-- Node27 -->
<g id="node28" class="node">
<title>Node27</title>
<g id="a_node28"><a xlink:href="SpatialForceVector_8h.html" target="_top" xlink:title="iDynTree/Core/SpatialForce\lVector.h">
<polygon fill="none" stroke="#000000" points="992,-403.5 992,-433.5 1140,-433.5 1140,-403.5 992,-403.5"/>
<text text-anchor="start" x="1000" y="-421.5" font-family="FreeSans.ttf" font-size="10.00" fill="#000000">iDynTree/Core/SpatialForce</text>
<text text-anchor="middle" x="1066" y="-410.5" font-family="FreeSans.ttf" font-size="10.00" fill="#000000">Vector.h</text>
</a>
</g>
</g>
<!-- Node25&#45;&gt;Node27 -->
<g id="edge47" class="edge">
<title>Node25&#45;&gt;Node27</title>
<path fill="none" stroke="#191970" d="M1168.9375,-470.3906C1151.8912,-461.7976 1126.3764,-448.9356 1105.0144,-438.1671"/>
<polygon fill="#191970" stroke="#191970" points="1106.3497,-434.9207 1095.8446,-433.5446 1103.1986,-441.1714 1106.3497,-434.9207"/>
</g>
<!-- Node29 -->
<g id="node30" class="node">
<title>Node29</title>
<polygon fill="none" stroke="#bfbfbf" points="926.5,-409 926.5,-428 973.5,-428 973.5,-409 926.5,-409"/>
<text text-anchor="middle" x="950" y="-416" font-family="FreeSans.ttf" font-size="10.00" fill="#000000">vector</text>
</g>
<!-- Node25&#45;&gt;Node29 -->
<g id="edge57" class="edge">
<title>Node25&#45;&gt;Node29</title>
<path fill="none" stroke="#191970" d="M1130.0744,-470.4972C1088.4976,-462.8372 1031.4838,-450.6028 983,-434 981.3532,-433.4361 979.6794,-432.8144 978.0035,-432.154"/>
<polygon fill="#191970" stroke="#191970" points="979.1218,-428.8248 968.5532,-428.0789 976.3499,-435.2526 979.1218,-428.8248"/>
</g>
<!-- Node26&#45;&gt;Node2 -->
<g id="edge46" class="edge">
<title>Node26&#45;&gt;Node2</title>
<path fill="none" stroke="#191970" d="M1357.41,-117.5119C1141.635,-105.9267 572.8769,-75.3894 430.6137,-67.7511"/>
<polygon fill="#191970" stroke="#191970" points="430.5504,-64.2427 420.3771,-67.2015 430.175,-71.2327 430.5504,-64.2427"/>
</g>
<!-- Node26&#45;&gt;Node7 -->
<g id="edge45" class="edge">
<title>Node26&#45;&gt;Node7</title>
<path fill="none" stroke="#191970" d="M1415.5579,-112.3733C1391.2674,-103.1822 1354.4792,-89.2624 1327.5457,-79.0713"/>
<polygon fill="#191970" stroke="#191970" points="1328.7016,-75.7666 1318.1101,-75.5011 1326.2243,-82.3136 1328.7016,-75.7666"/>
</g>
<!-- Node27&#45;&gt;Node4 -->
<g id="edge48" class="edge">
<title>Node27&#45;&gt;Node4</title>
<path fill="none" stroke="#191970" d="M1081.0757,-403.2684C1100.2773,-382.181 1131,-342.0301 1131,-301 1131,-301 1131,-301 1131,-245 1131,-209.154 1131.6653,-194.0107 1107,-168 1091.7239,-151.8906 1070.2987,-141.388 1049.5485,-134.555"/>
<polygon fill="#191970" stroke="#191970" points="1050.3535,-131.1416 1039.7676,-131.577 1048.3145,-137.838 1050.3535,-131.1416"/>
</g>
<!-- Node27&#45;&gt;Node21 -->
<g id="edge49" class="edge">
<title>Node27&#45;&gt;Node21</title>
<path fill="none" stroke="#191970" d="M1060.6817,-403.4422C1046.1735,-362.3648 1005.9215,-248.3983 989.8027,-202.7606"/>
<polygon fill="#191970" stroke="#191970" points="993.0476,-201.4382 986.417,-193.1746 986.4471,-203.7694 993.0476,-201.4382"/>
</g>
<!-- Node28 -->
<g id="node29" class="node">
<title>Node28</title>
<g id="a_node29"><a xlink:href="SpatialVector_8h.html" target="_top" xlink:title="iDynTree/Core/SpatialVector.h">
<polygon fill="none" stroke="#000000" points="752.5,-347.5 752.5,-366.5 913.5,-366.5 913.5,-347.5 752.5,-347.5"/>
<text text-anchor="middle" x="833" y="-354.5" font-family="FreeSans.ttf" font-size="10.00" fill="#000000">iDynTree/Core/SpatialVector.h</text>
</a>
</g>
</g>
<!-- Node27&#45;&gt;Node28 -->
<g id="edge50" class="edge">
<title>Node27&#45;&gt;Node28</title>
<path fill="none" stroke="#191970" d="M1009.0018,-403.4554C969.1021,-392.9239 916.4738,-379.0328 879.1919,-369.1923"/>
<polygon fill="#191970" stroke="#191970" points="879.6688,-365.6984 869.1067,-366.5303 877.8823,-372.4666 879.6688,-365.6984"/>
</g>
<!-- Node28&#45;&gt;Node5 -->
<g id="edge53" class="edge">
<title>Node28&#45;&gt;Node5</title>
<path fill="none" stroke="#191970" d="M893.6133,-347.477C1017.4339,-326.6558 1292.3583,-272.9615 1347,-199 1405.9285,-119.236 1236.0817,-85.5214 1134.7275,-72.7974"/>
<polygon fill="#191970" stroke="#191970" points="1134.8885,-69.2913 1124.5393,-71.5597 1134.0442,-76.2402 1134.8885,-69.2913"/>
</g>
<!-- Node28&#45;&gt;Node16 -->
<g id="edge56" class="edge">
<title>Node28&#45;&gt;Node16</title>
<path fill="none" stroke="#191970" d="M833.2866,-347.4127C833.8396,-328.0567 835,-282.9227 835,-245 835,-245 835,-245 835,-183.5 835,-149.1399 835,-109.128 835,-85.7764"/>
<polygon fill="#191970" stroke="#191970" points="838.5001,-85.7489 835,-75.7489 831.5001,-85.749 838.5001,-85.7489"/>
</g>
<!-- Node28&#45;&gt;Node18 -->
<g id="edge51" class="edge">
<title>Node28&#45;&gt;Node18</title>
<path fill="none" stroke="#191970" d="M785.6967,-347.4369C737.892,-337.7724 663.9932,-322.8326 612.9892,-312.5213"/>
<polygon fill="#191970" stroke="#191970" points="613.6034,-309.0747 603.1082,-310.5237 612.2163,-315.9359 613.6034,-309.0747"/>
</g>
<!-- Node28&#45;&gt;Node20 -->
<g id="edge52" class="edge">
<title>Node28&#45;&gt;Node20</title>
<path fill="none" stroke="#191970" d="M817.568,-347.4509C786.0436,-327.9441 714.0462,-283.3932 676.2263,-259.9909"/>
<polygon fill="#191970" stroke="#191970" points="677.7383,-256.8106 667.3929,-254.5249 674.0549,-262.7631 677.7383,-256.8106"/>
</g>
<!-- Node28&#45;&gt;Node21 -->
<g id="edge54" class="edge">
<title>Node28&#45;&gt;Node21</title>
<path fill="none" stroke="#191970" d="M841.2783,-347.4248C865.5004,-319.4079 936.4946,-237.2912 967.8341,-201.0418"/>
<polygon fill="#191970" stroke="#191970" points="970.6699,-203.1134 974.5624,-193.2595 965.3745,-198.5353 970.6699,-203.1134"/>
</g>
<!-- Node28&#45;&gt;Node24 -->
<g id="edge55" class="edge">
<title>Node28&#45;&gt;Node24</title>
<path fill="none" stroke="#191970" d="M827.6881,-347.4462C817.6741,-328.5117 797,-284.623 797,-245 797,-245 797,-245 797,-183.5 797,-146.4993 777.6281,-106.8689 764.5919,-84.3889"/>
<polygon fill="#191970" stroke="#191970" points="767.4585,-82.3642 759.3041,-75.5998 761.4604,-85.9729 767.4585,-82.3642"/>
</g>
<!-- Node30&#45;&gt;Node29 -->
<g id="edge78" class="edge">
<title>Node30&#45;&gt;Node29</title>
<path fill="none" stroke="#191970" d="M752.747,-528.632C812.0556,-521.4925 889.0053,-508.9392 914,-490 930.9012,-477.1935 940.444,-454.2539 945.396,-437.8093"/>
<polygon fill="#191970" stroke="#191970" points="948.7864,-438.6794 948.0185,-428.1124 942.0291,-436.8519 948.7864,-438.6794"/>
</g>
<!-- Node31 -->
<g id="node32" class="node">
<title>Node31</title>
<g id="a_node32"><a xlink:href="Transform_8h.html" target="_top" xlink:title="iDynTree/Core/Transform.h">
<polygon fill="none" stroke="#000000" points="579,-347.5 579,-366.5 725,-366.5 725,-347.5 579,-347.5"/>
<text text-anchor="middle" x="652" y="-354.5" font-family="FreeSans.ttf" font-size="10.00" fill="#000000">iDynTree/Core/Transform.h</text>
</a>
</g>
</g>
<!-- Node30&#45;&gt;Node31 -->
<g id="edge59" class="edge">
<title>Node30&#45;&gt;Node31</title>
<path fill="none" stroke="#191970" d="M652.115,-526.4647C636.2773,-519.1252 617.3206,-507.2779 608,-490 587.1477,-451.3453 617.6092,-401.0438 637.3658,-374.762"/>
<polygon fill="#191970" stroke="#191970" points="640.1703,-376.8574 643.5659,-366.8214 634.6529,-372.5493 640.1703,-376.8574"/>
</g>
<!-- Node32 -->
<g id="node33" class="node">
<title>Node32</title>
<g id="a_node33"><a xlink:href="Twist_8h.html" target="_top" xlink:title="iDynTree/Core/Twist.h">
<polygon fill="none" stroke="#000000" points="617,-470.5 617,-489.5 739,-489.5 739,-470.5 617,-470.5"/>
<text text-anchor="middle" x="678" y="-477.5" font-family="FreeSans.ttf" font-size="10.00" fill="#000000">iDynTree/Core/Twist.h</text>
</a>
</g>
</g>
<!-- Node30&#45;&gt;Node32 -->
<g id="edge64" class="edge">
<title>Node30&#45;&gt;Node32</title>
<path fill="none" stroke="#191970" d="M678,-526.2455C678,-518.9382 678,-508.6944 678,-499.7046"/>
<polygon fill="#191970" stroke="#191970" points="681.5001,-499.6426 678,-489.6427 674.5001,-499.6427 681.5001,-499.6426"/>
</g>
<!-- Node34 -->
<g id="node35" class="node">
<title>Node34</title>
<g id="a_node35"><a xlink:href="SpatialAcc_8h.html" target="_top" xlink:title="iDynTree/Core/SpatialAcc.h">
<polygon fill="none" stroke="#000000" points="757,-470.5 757,-489.5 905,-489.5 905,-470.5 757,-470.5"/>
<text text-anchor="middle" x="831" y="-477.5" font-family="FreeSans.ttf" font-size="10.00" fill="#000000">iDynTree/Core/SpatialAcc.h</text>
</a>
</g>
</g>
<!-- Node30&#45;&gt;Node34 -->
<g id="edge69" class="edge">
<title>Node30&#45;&gt;Node34</title>
<path fill="none" stroke="#191970" d="M704.3016,-526.3733C729.4128,-517.1822 767.4438,-503.2624 795.2872,-493.0713"/>
<polygon fill="#191970" stroke="#191970" points="796.8538,-496.2251 805.0416,-489.5011 794.4478,-489.6516 796.8538,-496.2251"/>
</g>
<!-- Node35 -->
<g id="node36" class="node">
<title>Node35</title>
<g id="a_node36"><a xlink:href="Wrench_8h.html" target="_top" xlink:title="iDynTree/Core/Wrench.h">
<polygon fill="none" stroke="#000000" points="961.5,-470.5 961.5,-489.5 1094.5,-489.5 1094.5,-470.5 961.5,-470.5"/>
<text text-anchor="middle" x="1028" y="-477.5" font-family="FreeSans.ttf" font-size="10.00" fill="#000000">iDynTree/Core/Wrench.h</text>
</a>
</g>
</g>
<!-- Node30&#45;&gt;Node35 -->
<g id="edge71" class="edge">
<title>Node30&#45;&gt;Node35</title>
<path fill="none" stroke="#191970" d="M737.7695,-526.4369C798.9277,-516.6516 893.886,-501.4582 958.395,-491.1368"/>
<polygon fill="#191970" stroke="#191970" points="959.1556,-494.5597 968.4771,-489.5237 958.0497,-487.6476 959.1556,-494.5597"/>
</g>
<!-- Node36 -->
<g id="node37" class="node">
<title>Node36</title>
<g id="a_node37"><a xlink:href="ArticulatedBodyInertia_8h.html" target="_top" xlink:title="iDynTree/Core/Articulated\lBodyInertia.h">
<polygon fill="none" stroke="#000000" points="163.5,-168.5 163.5,-198.5 304.5,-198.5 304.5,-168.5 163.5,-168.5"/>
<text text-anchor="start" x="171.5" y="-186.5" font-family="FreeSans.ttf" font-size="10.00" fill="#000000">iDynTree/Core/Articulated</text>
<text text-anchor="middle" x="234" y="-175.5" font-family="FreeSans.ttf" font-size="10.00" fill="#000000">BodyInertia.h</text>
</a>
</g>
</g>
<!-- Node30&#45;&gt;Node36 -->
<g id="edge73" class="edge">
<title>Node30&#45;&gt;Node36</title>
<path fill="none" stroke="#191970" d="M603.2088,-530.0922C484.1936,-518.6058 265,-488.0149 265,-418.5 265,-418.5 265,-418.5 265,-301 265,-268.1038 253.4995,-231.6901 244.508,-208.2478"/>
<polygon fill="#191970" stroke="#191970" points="247.6763,-206.7432 240.7265,-198.7462 241.1725,-209.3317 247.6763,-206.7432"/>
</g>
<!-- Node37 -->
<g id="node38" class="node">
<title>Node37</title>
<g id="a_node38"><a xlink:href="Indices_8h.html" target="_top" xlink:title="iDynTree/Model/Indices.h">
<polygon fill="none" stroke="#000000" points="28,-291.5 28,-310.5 166,-310.5 166,-291.5 28,-291.5"/>
<text text-anchor="middle" x="97" y="-298.5" font-family="FreeSans.ttf" font-size="10.00" fill="#000000">iDynTree/Model/Indices.h</text>
</a>
</g>
</g>
<!-- Node30&#45;&gt;Node37 -->
<g id="edge76" class="edge">
<title>Node30&#45;&gt;Node37</title>
<path fill="none" stroke="#191970" d="M603.4796,-534.7196C497.6416,-531.7727 310.0617,-522.0512 251,-490 177.4225,-450.0714 125.6135,-359.0263 105.8549,-319.6822"/>
<polygon fill="#191970" stroke="#191970" points="108.973,-318.0912 101.4304,-310.6508 102.6868,-321.1709 108.973,-318.0912"/>
</g>
<!-- Node31&#45;&gt;Node2 -->
<g id="edge63" class="edge">
<title>Node31&#45;&gt;Node2</title>
<path fill="none" stroke="#191970" d="M594.0165,-347.4436C474.1717,-326.3703 206.0051,-271.9283 154,-199 96.7488,-118.7149 286.445,-81.8499 365.2632,-70.2484"/>
<polygon fill="#191970" stroke="#191970" points="366.2039,-73.6499 375.6117,-68.7771 365.2186,-66.7196 366.2039,-73.6499"/>
</g>
<!-- Node31&#45;&gt;Node18 -->
<g id="edge60" class="edge">
<title>Node31&#45;&gt;Node18</title>
<path fill="none" stroke="#191970" d="M635.2781,-347.2455C620.4111,-338.5731 598.4534,-325.7645 581.4142,-315.825"/>
<polygon fill="#191970" stroke="#191970" points="582.9317,-312.6582 572.5303,-310.6427 579.4045,-318.7047 582.9317,-312.6582"/>
</g>
<!-- Node31&#45;&gt;Node20 -->
<g id="edge61" class="edge">
<title>Node31&#45;&gt;Node20</title>
<path fill="none" stroke="#191970" d="M652,-347.4509C652,-329.184 652,-288.9553 652,-264.6976"/>
<polygon fill="#191970" stroke="#191970" points="655.5001,-264.5249 652,-254.5249 648.5001,-264.5249 655.5001,-264.5249"/>
</g>
<!-- Node31&#45;&gt;Node23 -->
<g id="edge62" class="edge">
<title>Node31&#45;&gt;Node23</title>
<path fill="none" stroke="#191970" d="M661.8097,-347.2939C678.4315,-330.2405 711.98,-293.0824 729,-255 739.3495,-231.843 737.544,-224.2453 740,-199 741.3341,-185.287 745.6592,-180.5619 740,-168 734.4303,-155.6369 723.7137,-145.2563 713.4494,-137.5033"/>
<polygon fill="#191970" stroke="#191970" points="715.2549,-134.4948 705.0567,-131.623 711.2382,-140.2277 715.2549,-134.4948"/>
</g>
<!-- Node33 -->
<g id="node34" class="node">
<title>Node33</title>
<g id="a_node34"><a xlink:href="SpatialMotionVector_8h.html" target="_top" xlink:title="iDynTree/Core/SpatialMotion\lVector.h">
<polygon fill="none" stroke="#000000" points="753.5,-403.5 753.5,-433.5 908.5,-433.5 908.5,-403.5 753.5,-403.5"/>
<text text-anchor="start" x="761.5" y="-421.5" font-family="FreeSans.ttf" font-size="10.00" fill="#000000">iDynTree/Core/SpatialMotion</text>
<text text-anchor="middle" x="831" y="-410.5" font-family="FreeSans.ttf" font-size="10.00" fill="#000000">Vector.h</text>
</a>
</g>
</g>
<!-- Node32&#45;&gt;Node33 -->
<g id="edge65" class="edge">
<title>Node32&#45;&gt;Node33</title>
<path fill="none" stroke="#191970" d="M701.9063,-470.3906C723.8592,-461.5664 757.0117,-448.2404 784.2229,-437.3026"/>
<polygon fill="#191970" stroke="#191970" points="785.5989,-440.5217 793.572,-433.5446 782.9881,-434.0268 785.5989,-440.5217"/>
</g>
<!-- Node33&#45;&gt;Node4 -->
<g id="edge66" class="edge">
<title>Node33&#45;&gt;Node4</title>
<path fill="none" stroke="#191970" d="M876.315,-403.4376C897.8904,-394.8837 923.2308,-382.7142 943,-367 1016.9066,-308.2531 1042.4709,-288.3384 1073,-199 1077.4552,-185.9624 1080.1915,-179.752 1073,-168 1063.6591,-152.7354 1047.4772,-142.3326 1031.3874,-135.3404"/>
<polygon fill="#191970" stroke="#191970" points="1032.5629,-132.0414 1021.977,-131.6067 1029.9813,-138.548 1032.5629,-132.0414"/>
</g>
<!-- Node33&#45;&gt;Node21 -->
<g id="edge67" class="edge">
<title>Node33&#45;&gt;Node21</title>
<path fill="none" stroke="#191970" d="M871.8001,-403.2943C889.3697,-394.9428 908.8532,-382.9821 922,-367 962.7986,-317.4026 976.6851,-239.4647 981.0983,-203.236"/>
<polygon fill="#191970" stroke="#191970" points="984.6068,-203.3503 982.2204,-193.0278 977.6487,-202.5854 984.6068,-203.3503"/>
</g>
<!-- Node33&#45;&gt;Node28 -->
<g id="edge68" class="edge">
<title>Node33&#45;&gt;Node28</title>
<path fill="none" stroke="#191970" d="M831.4944,-403.2977C831.7518,-395.3834 832.0698,-385.6043 832.3471,-377.0759"/>
<polygon fill="#191970" stroke="#191970" points="835.8528,-376.9554 832.6798,-366.8469 828.8565,-376.7279 835.8528,-376.9554"/>
</g>
<!-- Node34&#45;&gt;Node33 -->
<g id="edge70" class="edge">
<title>Node34&#45;&gt;Node33</title>
<path fill="none" stroke="#191970" d="M831,-470.3906C831,-463.2234 831,-453.0862 831,-443.671"/>
<polygon fill="#191970" stroke="#191970" points="834.5001,-443.5446 831,-433.5446 827.5001,-443.5446 834.5001,-443.5446"/>
</g>
<!-- Node35&#45;&gt;Node27 -->
<g id="edge72" class="edge">
<title>Node35&#45;&gt;Node27</title>
<path fill="none" stroke="#191970" d="M1033.9375,-470.3906C1038.6041,-462.838 1045.3085,-451.9876 1051.3812,-442.1593"/>
<polygon fill="#191970" stroke="#191970" points="1054.4252,-443.8914 1056.7042,-433.5446 1048.4702,-440.2119 1054.4252,-443.8914"/>
</g>
<!-- Node36&#45;&gt;Node2 -->
<g id="edge75" class="edge">
<title>Node36&#45;&gt;Node2</title>
<path fill="none" stroke="#191970" d="M250.2505,-168.369C266.8741,-153.2488 293.7696,-129.7589 319,-112 335.444,-100.4256 354.9624,-89.0402 370.4839,-80.4919"/>
<polygon fill="#191970" stroke="#191970" points="372.4501,-83.4071 379.5684,-75.5598 369.1101,-77.2552 372.4501,-83.4071"/>
</g>
<!-- Node36&#45;&gt;Node23 -->
<g id="edge74" class="edge">
<title>Node36&#45;&gt;Node23</title>
<path fill="none" stroke="#191970" d="M304.9375,-173.8906C386.9804,-162.7769 521.7381,-144.5223 607.5983,-132.8914"/>
<polygon fill="#191970" stroke="#191970" points="608.121,-136.3527 617.5606,-131.5419 607.1813,-129.416 608.121,-136.3527"/>
</g>
<!-- Node37&#45;&gt;Node2 -->
<g id="edge77" class="edge">
<title>Node37&#45;&gt;Node2</title>
<path fill="none" stroke="#191970" d="M94.6688,-291.0907C87.9731,-259.8926 72.1449,-162.7607 121,-112 154.2232,-77.4809 299.7262,-68.8515 365.5056,-66.7052"/>
<polygon fill="#191970" stroke="#191970" points="365.8248,-70.1974 375.7171,-66.4037 365.6181,-63.2005 365.8248,-70.1974"/>
</g>
</g>
</svg>
