<?xml version="1.0" encoding="UTF-8" standalone="no"?>
<!DOCTYPE svg PUBLIC "-//W3C//DTD SVG 1.1//EN"
 "http://www.w3.org/Graphics/SVG/1.1/DTD/svg11.dtd">
<!-- Generated by graphviz version 2.40.1 (20161225.0304)
 -->
<!-- Title: ModelLoader.cpp Pages: 1 -->
<svg width="2643pt" height="722pt"
 viewBox="0.00 0.00 2642.50 722.00" xmlns="http://www.w3.org/2000/svg" xmlns:xlink="http://www.w3.org/1999/xlink">
<g id="graph0" class="graph" transform="scale(1 1) rotate(0) translate(4 718)">
<title>ModelLoader.cpp</title>
<!-- Node0 -->
<g id="node1" class="node">
<title>Node0</title>
<polygon fill="#bfbfbf" stroke="#000000" points="1952,-694.5 1952,-713.5 2050,-713.5 2050,-694.5 1952,-694.5"/>
<text text-anchor="middle" x="2001" y="-701.5" font-family="FreeSans.ttf" font-size="10.00" fill="#000000">ModelLoader.cpp</text>
</g>
<!-- Node1 -->
<g id="node2" class="node">
<title>Node1</title>
<g id="a_node2"><a xlink:href="ModelLoader_8h.html" target="_top" xlink:title="iDynTree/ModelIO/ModelLoader.h">
<polygon fill="none" stroke="#000000" points="973,-571.5 973,-590.5 1149,-590.5 1149,-571.5 973,-571.5"/>
<text text-anchor="middle" x="1061" y="-578.5" font-family="FreeSans.ttf" font-size="10.00" fill="#000000">iDynTree/ModelIO/ModelLoader.h</text>
</a>
</g>
</g>
<!-- Node0&#45;&gt;Node1 -->
<g id="edge1" class="edge">
<title>Node0&#45;&gt;Node1</title>
<path fill="none" stroke="#191970" d="M1951.7699,-703.2537C1805.4857,-700.6851 1375.1631,-690.4978 1239,-658 1182.3648,-644.483 1121.0215,-614.0918 1087.1739,-595.7917"/>
<polygon fill="#191970" stroke="#191970" points="1088.4364,-592.4923 1077.9851,-590.7536 1085.071,-598.6303 1088.4364,-592.4923"/>
</g>
<!-- Node5 -->
<g id="node6" class="node">
<title>Node5</title>
<polygon fill="none" stroke="#bfbfbf" points="1601,-56.5 1601,-75.5 1645,-75.5 1645,-56.5 1601,-56.5"/>
<text text-anchor="middle" x="1623" y="-63.5" font-family="FreeSans.ttf" font-size="10.00" fill="#000000">string</text>
</g>
<!-- Node0&#45;&gt;Node5 -->
<g id="edge128" class="edge">
<title>Node0&#45;&gt;Node5</title>
<path fill="none" stroke="#191970" d="M2050.3628,-700.4838C2164.1138,-691.0279 2435,-660.1958 2435,-581 2435,-581 2435,-581 2435,-178 2435,-165.7664 2624.4385,-192.7393 2269,-112 2150.0367,-84.977 1768.5887,-70.7145 1655.1273,-66.996"/>
<polygon fill="#191970" stroke="#191970" points="1655.1093,-63.4937 1645.0015,-66.669 1654.8833,-70.49 1655.1093,-63.4937"/>
</g>
<!-- Node41 -->
<g id="node34" class="node">
<title>Node41</title>
<polygon fill="none" stroke="#bfbfbf" points="1229.5,-347.5 1229.5,-366.5 1276.5,-366.5 1276.5,-347.5 1229.5,-347.5"/>
<text text-anchor="middle" x="1253" y="-354.5" font-family="FreeSans.ttf" font-size="10.00" fill="#000000">vector</text>
</g>
<!-- Node0&#45;&gt;Node41 -->
<g id="edge129" class="edge">
<title>Node0&#45;&gt;Node41</title>
<path fill="none" stroke="#191970" d="M1951.9216,-701.1347C1785.5117,-690.7738 1253,-652.0668 1253,-581 1253,-581 1253,-581 1253,-469 1253,-436.7116 1253,-399.1872 1253,-376.8048"/>
<polygon fill="#191970" stroke="#191970" points="1256.5001,-376.5883 1253,-366.5884 1249.5001,-376.5884 1256.5001,-376.5883"/>
</g>
<!-- Node45 -->
<g id="node38" class="node">
<title>Node45</title>
<g id="a_node38"><a xlink:href="URDFDocument_8h.html" target="_top" xlink:title="URDFDocument.h">
<polygon fill="none" stroke="#000000" points="1534.5,-633 1534.5,-652 1637.5,-652 1637.5,-633 1534.5,-633"/>
<text text-anchor="middle" x="1586" y="-640" font-family="FreeSans.ttf" font-size="10.00" fill="#000000">URDFDocument.h</text>
</a>
</g>
</g>
<!-- Node0&#45;&gt;Node45 -->
<g id="edge71" class="edge">
<title>Node0&#45;&gt;Node45</title>
<path fill="none" stroke="#191970" d="M1951.7644,-696.7036C1875.9163,-685.4635 1730.6081,-663.9299 1647.7991,-651.6582"/>
<polygon fill="#191970" stroke="#191970" points="1648.1783,-648.1762 1637.7732,-650.1724 1647.1521,-655.1006 1648.1783,-648.1762"/>
</g>
<!-- Node56 -->
<g id="node49" class="node">
<title>Node56</title>
<g id="a_node49"><a xlink:href="XMLParser_8h.html" target="_top" xlink:title="iDynTree/XMLParser.h">
<polygon fill="none" stroke="#000000" points="2247.5,-403.5 2247.5,-422.5 2368.5,-422.5 2368.5,-403.5 2247.5,-403.5"/>
<text text-anchor="middle" x="2308" y="-410.5" font-family="FreeSans.ttf" font-size="10.00" fill="#000000">iDynTree/XMLParser.h</text>
</a>
</g>
</g>
<!-- Node0&#45;&gt;Node56 -->
<g id="edge122" class="edge">
<title>Node0&#45;&gt;Node56</title>
<path fill="none" stroke="#191970" d="M2050.0277,-697.6193C2148.0749,-683.4831 2359,-645.5688 2359,-581 2359,-581 2359,-581 2359,-525 2359,-489.0802 2337.0045,-452.0352 2321.9033,-430.8345"/>
<polygon fill="#191970" stroke="#191970" points="2324.5094,-428.4725 2315.7458,-422.5185 2318.8837,-432.638 2324.5094,-428.4725"/>
</g>
<!-- Node57 -->
<g id="node50" class="node">
<title>Node57</title>
<g id="a_node50"><a xlink:href="ModelSensorsTransformers_8h.html" target="_top" xlink:title="Collection of function to modify model and sensors in various ways. ">
<polygon fill="none" stroke="#000000" points="2463.5,-627.5 2463.5,-657.5 2634.5,-657.5 2634.5,-627.5 2463.5,-627.5"/>
<text text-anchor="start" x="2471.5" y="-645.5" font-family="FreeSans.ttf" font-size="10.00" fill="#000000">iDynTree/Sensors/ModelSensors</text>
<text text-anchor="middle" x="2549" y="-634.5" font-family="FreeSans.ttf" font-size="10.00" fill="#000000">Transformers.h</text>
</a>
</g>
</g>
<!-- Node0&#45;&gt;Node57 -->
<g id="edge127" class="edge">
<title>Node0&#45;&gt;Node57</title>
<path fill="none" stroke="#191970" d="M2050.1513,-699.787C2132.7042,-692.5243 2304.3756,-676.6208 2449,-658 2450.4702,-657.8107 2451.9521,-657.6171 2453.4434,-657.4195"/>
<polygon fill="#191970" stroke="#191970" points="2453.9596,-660.8816 2463.3962,-656.065 2453.0156,-653.9456 2453.9596,-660.8816"/>
</g>
<!-- Node2 -->
<g id="node3" class="node">
<title>Node2</title>
<g id="a_node3"><a xlink:href="Model_8h.html" target="_top" xlink:title="iDynTree/Model/Model.h">
<polygon fill="none" stroke="#000000" points="806.5,-459.5 806.5,-478.5 939.5,-478.5 939.5,-459.5 806.5,-459.5"/>
<text text-anchor="middle" x="873" y="-466.5" font-family="FreeSans.ttf" font-size="10.00" fill="#000000">iDynTree/Model/Model.h</text>
</a>
</g>
</g>
<!-- Node1&#45;&gt;Node2 -->
<g id="edge2" class="edge">
<title>Node1&#45;&gt;Node2</title>
<path fill="none" stroke="#191970" d="M1044.9712,-571.4509C1012.0889,-551.8615 936.8113,-507.0152 897.6658,-483.6945"/>
<polygon fill="#191970" stroke="#191970" points="899.3706,-480.6361 888.9882,-478.5249 895.7879,-486.6498 899.3706,-480.6361"/>
</g>
<!-- Node1&#45;&gt;Node5 -->
<g id="edge69" class="edge">
<title>Node1&#45;&gt;Node5</title>
<path fill="none" stroke="#191970" d="M972.9824,-578.735C819.1722,-572.8805 510.6969,-552.0997 436,-479 411.5597,-455.0823 402.7686,-429.8069 424,-403 467.3722,-348.2382 512.335,-393.4281 577,-367 592.8754,-360.5119 593.7098,-352.3621 610,-347 693.5124,-319.511 944.7268,-375.9359 1004,-311 1013.2886,-300.8241 1010.9949,-291.8701 1004,-280 987.2341,-251.5487 962.9597,-266.7267 939,-244 912.0194,-218.4078 884.2837,-199.5306 904,-168 911.5351,-155.9497 1005.2823,-115.7166 1019,-112 1128.4081,-82.3573 1481.8481,-70.0192 1590.7526,-66.8615"/>
<polygon fill="#191970" stroke="#191970" points="1590.9039,-70.3587 1600.8006,-66.5763 1590.7053,-63.3615 1590.9039,-70.3587"/>
</g>
<!-- Node1&#45;&gt;Node41 -->
<g id="edge70" class="edge">
<title>Node1&#45;&gt;Node41</title>
<path fill="none" stroke="#191970" d="M1069.25,-571.375C1098.8524,-536.8389 1199.9897,-418.8453 1238.2108,-374.2541"/>
<polygon fill="#191970" stroke="#191970" points="1240.9302,-376.4595 1244.7807,-366.5891 1235.6154,-371.9039 1240.9302,-376.4595"/>
</g>
<!-- Node42 -->
<g id="node35" class="node">
<title>Node42</title>
<g id="a_node35"><a xlink:href="Sensors_8h.html" target="_top" xlink:title="iDynTree/Sensors/Sensors.h">
<polygon fill="none" stroke="#000000" points="736.5,-515.5 736.5,-534.5 887.5,-534.5 887.5,-515.5 736.5,-515.5"/>
<text text-anchor="middle" x="812" y="-522.5" font-family="FreeSans.ttf" font-size="10.00" fill="#000000">iDynTree/Sensors/Sensors.h</text>
</a>
</g>
</g>
<!-- Node1&#45;&gt;Node42 -->
<g id="edge58" class="edge">
<title>Node1&#45;&gt;Node42</title>
<path fill="none" stroke="#191970" d="M1018.4783,-571.4369C975.8639,-561.8529 910.1824,-547.0812 864.379,-536.78"/>
<polygon fill="#191970" stroke="#191970" points="864.8706,-533.3032 854.3463,-534.5237 863.3346,-540.1326 864.8706,-533.3032"/>
</g>
<!-- Node44 -->
<g id="node37" class="node">
<title>Node44</title>
<polygon fill="none" stroke="#bfbfbf" points="1727,-347.5 1727,-366.5 1785,-366.5 1785,-347.5 1727,-347.5"/>
<text text-anchor="middle" x="1756" y="-354.5" font-family="FreeSans.ttf" font-size="10.00" fill="#000000">memory</text>
</g>
<!-- Node1&#45;&gt;Node44 -->
<g id="edge68" class="edge">
<title>Node1&#45;&gt;Node44</title>
<path fill="none" stroke="#191970" d="M1149.2201,-578.0857C1289.5114,-572.7396 1551.2461,-559.5905 1586,-535 1638.6062,-497.7779 1599.7414,-447.8668 1646,-403 1656.6531,-392.6675 1689.8829,-379.4781 1717.0559,-369.8739"/>
<polygon fill="#191970" stroke="#191970" points="1718.4423,-373.0975 1726.7399,-366.5096 1716.1451,-366.4851 1718.4423,-373.0975"/>
</g>
<!-- Node3 -->
<g id="node4" class="node">
<title>Node3</title>
<g id="a_node4"><a xlink:href="IJoint_8h.html" target="_top" xlink:title="iDynTree/Model/IJoint.h">
<polygon fill="none" stroke="#000000" points="763,-403.5 763,-422.5 891,-422.5 891,-403.5 763,-403.5"/>
<text text-anchor="middle" x="827" y="-410.5" font-family="FreeSans.ttf" font-size="10.00" fill="#000000">iDynTree/Model/IJoint.h</text>
</a>
</g>
</g>
<!-- Node2&#45;&gt;Node3 -->
<g id="edge3" class="edge">
<title>Node2&#45;&gt;Node3</title>
<path fill="none" stroke="#191970" d="M864.9874,-459.2455C858.5232,-451.3761 849.2615,-440.101 841.5017,-430.6542"/>
<polygon fill="#191970" stroke="#191970" points="843.9727,-428.1484 834.9208,-422.6427 838.5636,-432.5916 843.9727,-428.1484"/>
</g>
<!-- Node4 -->
<g id="node5" class="node">
<title>Node4</title>
<g id="a_node5"><a xlink:href="Indices_8h.html" target="_top" xlink:title="iDynTree/Model/Indices.h">
<polygon fill="none" stroke="#000000" points="826,-347.5 826,-366.5 964,-366.5 964,-347.5 826,-347.5"/>
<text text-anchor="middle" x="895" y="-354.5" font-family="FreeSans.ttf" font-size="10.00" fill="#000000">iDynTree/Model/Indices.h</text>
</a>
</g>
</g>
<!-- Node2&#45;&gt;Node4 -->
<g id="edge50" class="edge">
<title>Node2&#45;&gt;Node4</title>
<path fill="none" stroke="#191970" d="M819.1939,-459.4667C778.5156,-449.7646 732.9798,-431.9682 754,-403 764.1508,-389.0111 802.4306,-377.0439 836.5458,-368.8249"/>
<polygon fill="#191970" stroke="#191970" points="837.5533,-372.1839 846.4958,-366.5022 835.962,-365.3671 837.5533,-372.1839"/>
</g>
<!-- Node6 -->
<g id="node7" class="node">
<title>Node6</title>
<g id="a_node7"><a xlink:href="Link_8h.html" target="_top" xlink:title="iDynTree/Model/Link.h">
<polygon fill="none" stroke="#000000" points="469,-403.5 469,-422.5 593,-422.5 593,-403.5 469,-403.5"/>
<text text-anchor="middle" x="531" y="-410.5" font-family="FreeSans.ttf" font-size="10.00" fill="#000000">iDynTree/Model/Link.h</text>
</a>
</g>
</g>
<!-- Node2&#45;&gt;Node6 -->
<g id="edge6" class="edge">
<title>Node2&#45;&gt;Node6</title>
<path fill="none" stroke="#191970" d="M814.5967,-459.4369C754.9594,-449.6717 662.4302,-434.5207 599.4035,-424.2006"/>
<polygon fill="#191970" stroke="#191970" points="599.5966,-420.6857 589.1624,-422.5237 598.4654,-427.5937 599.5966,-420.6857"/>
</g>
<!-- Node38 -->
<g id="node24" class="node">
<title>Node38</title>
<g id="a_node24"><a xlink:href="Transform_8h.html" target="_top" xlink:title="iDynTree/Core/Transform.h">
<polygon fill="none" stroke="#000000" points="662,-347.5 662,-366.5 808,-366.5 808,-347.5 662,-347.5"/>
<text text-anchor="middle" x="735" y="-354.5" font-family="FreeSans.ttf" font-size="10.00" fill="#000000">iDynTree/Core/Transform.h</text>
</a>
</g>
</g>
<!-- Node2&#45;&gt;Node38 -->
<g id="edge27" class="edge">
<title>Node2&#45;&gt;Node38</title>
<path fill="none" stroke="#191970" d="M832.3957,-459.4252C799.0168,-450.7053 755.4268,-437.0758 744,-423 733.6479,-410.2479 732.0123,-391.3301 732.6078,-377.0134"/>
<polygon fill="#191970" stroke="#191970" points="736.1224,-376.9734 733.4398,-366.7239 729.1452,-376.4092 736.1224,-376.9734"/>
</g>
<!-- Node39 -->
<g id="node32" class="node">
<title>Node39</title>
<g id="a_node32"><a xlink:href="SolidShapes_8h.html" target="_top" xlink:title="iDynTree/Model/SolidShapes.h">
<polygon fill="none" stroke="#000000" points="947.5,-403.5 947.5,-422.5 1110.5,-422.5 1110.5,-403.5 947.5,-403.5"/>
<text text-anchor="middle" x="1029" y="-410.5" font-family="FreeSans.ttf" font-size="10.00" fill="#000000">iDynTree/Model/SolidShapes.h</text>
</a>
</g>
</g>
<!-- Node2&#45;&gt;Node39 -->
<g id="edge51" class="edge">
<title>Node2&#45;&gt;Node39</title>
<path fill="none" stroke="#191970" d="M899.8174,-459.3733C925.5332,-450.1419 964.538,-436.1402 992.9599,-425.9375"/>
<polygon fill="#191970" stroke="#191970" points="994.3032,-429.174 1002.5326,-422.5011 991.9381,-422.5857 994.3032,-429.174"/>
</g>
<!-- Node40 -->
<g id="node33" class="node">
<title>Node40</title>
<polygon fill="none" stroke="#bfbfbf" points="993.5,-347.5 993.5,-366.5 1042.5,-366.5 1042.5,-347.5 993.5,-347.5"/>
<text text-anchor="middle" x="1018" y="-354.5" font-family="FreeSans.ttf" font-size="10.00" fill="#000000">cstdlib</text>
</g>
<!-- Node2&#45;&gt;Node40 -->
<g id="edge56" class="edge">
<title>Node2&#45;&gt;Node40</title>
<path fill="none" stroke="#191970" d="M881.2834,-459.2545C893.1668,-445.6341 916.1489,-420.6013 939,-403 954.6186,-390.9696 973.6803,-379.7837 989.1664,-371.4551"/>
<polygon fill="#191970" stroke="#191970" points="991.0647,-374.4113 998.2839,-366.6567 987.8045,-368.2168 991.0647,-374.4113"/>
</g>
<!-- Node2&#45;&gt;Node41 -->
<g id="edge57" class="edge">
<title>Node2&#45;&gt;Node41</title>
<path fill="none" stroke="#191970" d="M939.5178,-461.682C989.9642,-454.9256 1060.5275,-442.8658 1120,-423 1130.7729,-419.4015 1189.754,-389.474 1225.4565,-371.1769"/>
<polygon fill="#191970" stroke="#191970" points="1227.1203,-374.2572 1234.4192,-366.5775 1223.9243,-368.0293 1227.1203,-374.2572"/>
</g>
<!-- Node3&#45;&gt;Node4 -->
<g id="edge4" class="edge">
<title>Node3&#45;&gt;Node4</title>
<path fill="none" stroke="#191970" d="M838.8447,-403.2455C848.888,-394.9746 863.4995,-382.9416 875.3004,-373.2232"/>
<polygon fill="#191970" stroke="#191970" points="877.7967,-375.7015 883.291,-366.6427 873.3467,-370.298 877.7967,-375.7015"/>
</g>
<!-- Node4&#45;&gt;Node5 -->
<g id="edge5" class="edge">
<title>Node4&#45;&gt;Node5</title>
<path fill="none" stroke="#191970" d="M964.2775,-348.0277C1048.4913,-336.8467 1180.5172,-318.3197 1189,-311 1216.1392,-287.582 1213,-269.846 1213,-234 1213,-234 1213,-234 1213,-178 1213,-146.7875 1212.5411,-131.3903 1237,-112 1264.5415,-90.1658 1502.8452,-73.4071 1590.6734,-67.9211"/>
<polygon fill="#191970" stroke="#191970" points="1591.0858,-71.4024 1600.8516,-67.2939 1590.6552,-64.4156 1591.0858,-71.4024"/>
</g>
<!-- Node6&#45;&gt;Node4 -->
<g id="edge26" class="edge">
<title>Node6&#45;&gt;Node4</title>
<path fill="none" stroke="#191970" d="M593.1602,-403.4369C656.8956,-393.6314 755.928,-378.3957 823.0246,-368.0731"/>
<polygon fill="#191970" stroke="#191970" points="823.7447,-371.5036 833.0961,-366.5237 822.6802,-364.585 823.7447,-371.5036"/>
</g>
<!-- Node7 -->
<g id="node8" class="node">
<title>Node7</title>
<g id="a_node8"><a xlink:href="SpatialInertia_8h.html" target="_top" xlink:title="iDynTree/Core/SpatialInertia.h">
<polygon fill="none" stroke="#000000" points="406,-347.5 406,-366.5 568,-366.5 568,-347.5 406,-347.5"/>
<text text-anchor="middle" x="487" y="-354.5" font-family="FreeSans.ttf" font-size="10.00" fill="#000000">iDynTree/Core/SpatialInertia.h</text>
</a>
</g>
</g>
<!-- Node6&#45;&gt;Node7 -->
<g id="edge7" class="edge">
<title>Node6&#45;&gt;Node7</title>
<path fill="none" stroke="#191970" d="M523.3358,-403.2455C517.1527,-395.3761 508.2937,-384.101 500.8711,-374.6542"/>
<polygon fill="#191970" stroke="#191970" points="503.5068,-372.3435 494.5764,-366.6427 498.0025,-376.6683 503.5068,-372.3435"/>
</g>
<!-- Node8 -->
<g id="node9" class="node">
<title>Node8</title>
<g id="a_node9"><a xlink:href="SpatialInertiaRaw_8h.html" target="_top" xlink:title="iDynTree/Core/SpatialInertia\lRaw.h">
<polygon fill="none" stroke="#ff0000" points="841.5,-280.5 841.5,-310.5 994.5,-310.5 994.5,-280.5 841.5,-280.5"/>
<text text-anchor="start" x="849.5" y="-298.5" font-family="FreeSans.ttf" font-size="10.00" fill="#000000">iDynTree/Core/SpatialInertia</text>
<text text-anchor="middle" x="918" y="-287.5" font-family="FreeSans.ttf" font-size="10.00" fill="#000000">Raw.h</text>
</a>
</g>
</g>
<!-- Node7&#45;&gt;Node8 -->
<g id="edge8" class="edge">
<title>Node7&#45;&gt;Node8</title>
<path fill="none" stroke="#191970" d="M566.8649,-347.4907C634.7631,-339.1508 735.0845,-326.2285 831.228,-311.2425"/>
<polygon fill="#191970" stroke="#191970" points="831.7806,-314.6987 841.1174,-309.6913 830.6958,-307.7832 831.7806,-314.6987"/>
</g>
<!-- Node17 -->
<g id="node10" class="node">
<title>Node17</title>
<g id="a_node10"><a xlink:href="VectorFixSize_8h.html" target="_top" xlink:title="iDynTree/Core/VectorFixSize.h">
<polygon fill="none" stroke="#000000" points="616.5,-112.5 616.5,-131.5 777.5,-131.5 777.5,-112.5 616.5,-112.5"/>
<text text-anchor="middle" x="697" y="-119.5" font-family="FreeSans.ttf" font-size="10.00" fill="#000000">iDynTree/Core/VectorFixSize.h</text>
</a>
</g>
</g>
<!-- Node7&#45;&gt;Node17 -->
<g id="edge9" class="edge">
<title>Node7&#45;&gt;Node17</title>
<path fill="none" stroke="#191970" d="M405.6562,-350.6385C317.1717,-342.8753 186.21,-328.5844 171,-311 161.9866,-300.5795 162.7776,-291.0552 171,-280 225.4195,-206.8319 492.1418,-154.7992 623.5506,-133.1633"/>
<polygon fill="#191970" stroke="#191970" points="624.2331,-136.5983 633.5394,-131.5344 623.1064,-129.6896 624.2331,-136.5983"/>
</g>
<!-- Node26 -->
<g id="node20" class="node">
<title>Node26</title>
<g id="a_node20"><a xlink:href="Twist_8h.html" target="_top" xlink:title="iDynTree/Core/Twist.h">
<polygon fill="none" stroke="#ff0000" points="180,-286 180,-305 302,-305 302,-286 180,-286"/>
<text text-anchor="middle" x="241" y="-293" font-family="FreeSans.ttf" font-size="10.00" fill="#000000">iDynTree/Core/Twist.h</text>
</a>
</g>
</g>
<!-- Node7&#45;&gt;Node26 -->
<g id="edge22" class="edge">
<title>Node7&#45;&gt;Node26</title>
<path fill="none" stroke="#191970" d="M448.8324,-347.4581C405.833,-336.7082 335.8649,-319.2162 289.1458,-307.5365"/>
<polygon fill="#191970" stroke="#191970" points="289.8075,-304.0942 279.2571,-305.0643 288.1097,-310.8852 289.8075,-304.0942"/>
</g>
<!-- Node34 -->
<g id="node21" class="node">
<title>Node34</title>
<g id="a_node21"><a xlink:href="SpatialMomentum_8h.html" target="_top" xlink:title="iDynTree/Core/SpatialMomentum.h">
<polygon fill="none" stroke="#ff0000" points="320,-286 320,-305 506,-305 506,-286 320,-286"/>
<text text-anchor="middle" x="413" y="-293" font-family="FreeSans.ttf" font-size="10.00" fill="#000000">iDynTree/Core/SpatialMomentum.h</text>
</a>
</g>
</g>
<!-- Node7&#45;&gt;Node34 -->
<g id="edge23" class="edge">
<title>Node7&#45;&gt;Node34</title>
<path fill="none" stroke="#191970" d="M475.4375,-347.3906C463.9921,-337.8786 446.2527,-323.1357 432.603,-311.7917"/>
<polygon fill="#191970" stroke="#191970" points="434.6533,-308.9447 424.7255,-305.2449 430.1792,-314.3283 434.6533,-308.9447"/>
</g>
<!-- Node36 -->
<g id="node22" class="node">
<title>Node36</title>
<g id="a_node22"><a xlink:href="SpatialAcc_8h.html" target="_top" xlink:title="iDynTree/Core/SpatialAcc.h">
<polygon fill="none" stroke="#ff0000" points="524,-286 524,-305 672,-305 672,-286 524,-286"/>
<text text-anchor="middle" x="598" y="-293" font-family="FreeSans.ttf" font-size="10.00" fill="#000000">iDynTree/Core/SpatialAcc.h</text>
</a>
</g>
</g>
<!-- Node7&#45;&gt;Node36 -->
<g id="edge24" class="edge">
<title>Node7&#45;&gt;Node36</title>
<path fill="none" stroke="#191970" d="M504.3438,-347.3906C522.4273,-337.3713 550.9859,-321.5483 571.8165,-310.0071"/>
<polygon fill="#191970" stroke="#191970" points="573.7271,-312.9498 580.778,-305.0419 570.3346,-306.8268 573.7271,-312.9498"/>
</g>
<!-- Node37 -->
<g id="node23" class="node">
<title>Node37</title>
<g id="a_node23"><a xlink:href="Wrench_8h.html" target="_top" xlink:title="iDynTree/Core/Wrench.h">
<polygon fill="none" stroke="#ff0000" points="690.5,-286 690.5,-305 823.5,-305 823.5,-286 690.5,-286"/>
<text text-anchor="middle" x="757" y="-293" font-family="FreeSans.ttf" font-size="10.00" fill="#000000">iDynTree/Core/Wrench.h</text>
</a>
</g>
</g>
<!-- Node7&#45;&gt;Node37 -->
<g id="edge25" class="edge">
<title>Node7&#45;&gt;Node37</title>
<path fill="none" stroke="#191970" d="M528.8913,-347.4581C576.3826,-336.6406 653.8472,-318.9959 705.1215,-307.3168"/>
<polygon fill="#191970" stroke="#191970" points="706.0375,-310.6978 715.0105,-305.0643 704.4829,-303.8727 706.0375,-310.6978"/>
</g>
<!-- Node17&#45;&gt;Node5 -->
<g id="edge18" class="edge">
<title>Node17&#45;&gt;Node5</title>
<path fill="none" stroke="#191970" d="M777.9324,-112.7924C780.9925,-112.5126 784.0232,-112.2471 787,-112 1099.2775,-86.0801 1478.4334,-71.195 1590.4006,-67.14"/>
<polygon fill="#191970" stroke="#191970" points="1590.8168,-70.6274 1600.6848,-66.771 1590.5657,-63.632 1590.8168,-70.6274"/>
</g>
<!-- Node11 -->
<g id="node11" class="node">
<title>Node11</title>
<g id="a_node11"><a xlink:href="Utils_8h.html" target="_top" xlink:title="iDynTree/Core/Utils.h">
<polygon fill="none" stroke="#000000" points="954.5,-56.5 954.5,-75.5 1073.5,-75.5 1073.5,-56.5 954.5,-56.5"/>
<text text-anchor="middle" x="1014" y="-63.5" font-family="FreeSans.ttf" font-size="10.00" fill="#000000">iDynTree/Core/Utils.h</text>
</a>
</g>
</g>
<!-- Node17&#45;&gt;Node11 -->
<g id="edge10" class="edge">
<title>Node17&#45;&gt;Node11</title>
<path fill="none" stroke="#191970" d="M751.1341,-112.4369C806.298,-102.6918 891.8237,-87.5832 950.2351,-77.2645"/>
<polygon fill="#191970" stroke="#191970" points="950.8506,-80.71 960.0892,-75.5237 949.6328,-73.8167 950.8506,-80.71"/>
</g>
<!-- Node18 -->
<g id="node13" class="node">
<title>Node18</title>
<g id="a_node13"><a xlink:href="Span_8h.html" target="_top" xlink:title="iDynTree/Core/Span.h">
<polygon fill="none" stroke="#ff0000" points="518.5,-56.5 518.5,-75.5 639.5,-75.5 639.5,-56.5 518.5,-56.5"/>
<text text-anchor="middle" x="579" y="-63.5" font-family="FreeSans.ttf" font-size="10.00" fill="#000000">iDynTree/Core/Span.h</text>
</a>
</g>
</g>
<!-- Node17&#45;&gt;Node18 -->
<g id="edge12" class="edge">
<title>Node17&#45;&gt;Node18</title>
<path fill="none" stroke="#191970" d="M676.7151,-112.3733C657.8579,-103.4241 629.554,-89.9917 608.2545,-79.8835"/>
<polygon fill="#191970" stroke="#191970" points="609.5551,-76.6266 599.0202,-75.5011 606.5539,-82.9506 609.5551,-76.6266"/>
</g>
<!-- Node13 -->
<g id="node14" class="node">
<title>Node13</title>
<polygon fill="none" stroke="#bfbfbf" points="642,-.5 642,-19.5 694,-19.5 694,-.5 642,-.5"/>
<text text-anchor="middle" x="668" y="-7.5" font-family="FreeSans.ttf" font-size="10.00" fill="#000000">cassert</text>
</g>
<!-- Node17&#45;&gt;Node13 -->
<g id="edge20" class="edge">
<title>Node17&#45;&gt;Node13</title>
<path fill="none" stroke="#191970" d="M694.5275,-112.4509C689.7762,-94.1013 679.2869,-53.5908 673.0153,-29.3693"/>
<polygon fill="#191970" stroke="#191970" points="676.3612,-28.3283 670.4663,-19.5249 669.5847,-30.083 676.3612,-28.3283"/>
</g>
<!-- Node16 -->
<g id="node18" class="node">
<title>Node16</title>
<polygon fill="none" stroke="#bfbfbf" points="696,-56.5 696,-75.5 752,-75.5 752,-56.5 696,-56.5"/>
<text text-anchor="middle" x="724" y="-63.5" font-family="FreeSans.ttf" font-size="10.00" fill="#000000">sstream</text>
</g>
<!-- Node17&#45;&gt;Node16 -->
<g id="edge19" class="edge">
<title>Node17&#45;&gt;Node16</title>
<path fill="none" stroke="#191970" d="M701.703,-112.2455C705.3424,-104.6973 710.4924,-94.0158 714.9262,-84.8197"/>
<polygon fill="#191970" stroke="#191970" points="718.1605,-86.1704 719.3509,-75.6427 711.8551,-83.1303 718.1605,-86.1704"/>
</g>
<!-- Node14 -->
<g id="node19" class="node">
<title>Node14</title>
<polygon fill="none" stroke="#bfbfbf" points="770,-56.5 770,-75.5 820,-75.5 820,-56.5 770,-56.5"/>
<text text-anchor="middle" x="795" y="-63.5" font-family="FreeSans.ttf" font-size="10.00" fill="#000000">cstring</text>
</g>
<!-- Node17&#45;&gt;Node14 -->
<g id="edge21" class="edge">
<title>Node17&#45;&gt;Node14</title>
<path fill="none" stroke="#191970" d="M714.0703,-112.2455C729.247,-103.5731 751.6621,-90.7645 769.0563,-80.825"/>
<polygon fill="#191970" stroke="#191970" points="771.1794,-83.643 778.1253,-75.6427 767.7064,-77.5653 771.1794,-83.643"/>
</g>
<!-- Node12 -->
<g id="node12" class="node">
<title>Node12</title>
<polygon fill="none" stroke="#bfbfbf" points="849.5,-.5 849.5,-19.5 902.5,-19.5 902.5,-.5 849.5,-.5"/>
<text text-anchor="middle" x="876" y="-7.5" font-family="FreeSans.ttf" font-size="10.00" fill="#000000">cstddef</text>
</g>
<!-- Node11&#45;&gt;Node12 -->
<g id="edge11" class="edge">
<title>Node11&#45;&gt;Node12</title>
<path fill="none" stroke="#191970" d="M990.277,-56.3733C967.8263,-47.2629 933.9261,-33.5062 908.8745,-23.3404"/>
<polygon fill="#191970" stroke="#191970" points="909.9957,-20.0182 899.4135,-19.5011 907.3635,-26.5045 909.9957,-20.0182"/>
</g>
<!-- Node18&#45;&gt;Node12 -->
<g id="edge16" class="edge">
<title>Node18&#45;&gt;Node12</title>
<path fill="none" stroke="#191970" d="M629.7187,-56.4369C689.3625,-45.1909 786.8899,-26.8019 839.5401,-16.8746"/>
<polygon fill="#191970" stroke="#191970" points="840.269,-20.2989 849.4473,-15.0066 838.9719,-13.4201 840.269,-20.2989"/>
</g>
<!-- Node18&#45;&gt;Node13 -->
<g id="edge13" class="edge">
<title>Node18&#45;&gt;Node13</title>
<path fill="none" stroke="#191970" d="M594.5026,-56.2455C608.158,-47.6534 628.2657,-35.0014 643.9989,-25.1018"/>
<polygon fill="#191970" stroke="#191970" points="646.0751,-27.9307 652.675,-19.6427 642.3471,-22.006 646.0751,-27.9307"/>
</g>
<!-- Node19 -->
<g id="node15" class="node">
<title>Node19</title>
<polygon fill="none" stroke="#bfbfbf" points="554,-.5 554,-19.5 618,-19.5 618,-.5 554,-.5"/>
<text text-anchor="middle" x="586" y="-7.5" font-family="FreeSans.ttf" font-size="10.00" fill="#000000">algorithm</text>
</g>
<!-- Node18&#45;&gt;Node19 -->
<g id="edge14" class="edge">
<title>Node18&#45;&gt;Node19</title>
<path fill="none" stroke="#191970" d="M580.2193,-56.2455C581.1327,-48.9382 582.4132,-38.6944 583.5369,-29.7046"/>
<polygon fill="#191970" stroke="#191970" points="587.0272,-29.9996 584.7947,-19.6427 580.0813,-29.1313 587.0272,-29.9996"/>
</g>
<!-- Node20 -->
<g id="node16" class="node">
<title>Node20</title>
<polygon fill="none" stroke="#bfbfbf" points="494,-.5 494,-19.5 536,-19.5 536,-.5 494,-.5"/>
<text text-anchor="middle" x="515" y="-7.5" font-family="FreeSans.ttf" font-size="10.00" fill="#000000">array</text>
</g>
<!-- Node18&#45;&gt;Node20 -->
<g id="edge15" class="edge">
<title>Node18&#45;&gt;Node20</title>
<path fill="none" stroke="#191970" d="M567.8521,-56.2455C558.4913,-48.0549 544.9142,-36.1749 533.8651,-26.5069"/>
<polygon fill="#191970" stroke="#191970" points="535.8508,-23.5937 526.0202,-19.6427 531.2412,-28.8618 535.8508,-23.5937"/>
</g>
<!-- Node21 -->
<g id="node17" class="node">
<title>Node21</title>
<polygon fill="none" stroke="#bfbfbf" points="208.5,-.5 208.5,-19.5 261.5,-19.5 261.5,-.5 208.5,-.5"/>
<text text-anchor="middle" x="235" y="-7.5" font-family="FreeSans.ttf" font-size="10.00" fill="#000000">iterator</text>
</g>
<!-- Node18&#45;&gt;Node21 -->
<g id="edge17" class="edge">
<title>Node18&#45;&gt;Node21</title>
<path fill="none" stroke="#191970" d="M520.2552,-56.4369C449.1118,-44.8554 331.4325,-25.6983 271.9129,-16.0091"/>
<polygon fill="#191970" stroke="#191970" points="272.2761,-12.5222 261.8437,-14.3699 271.1513,-19.4313 272.2761,-12.5222"/>
</g>
<!-- Node38&#45;&gt;Node5 -->
<g id="edge49" class="edge">
<title>Node38&#45;&gt;Node5</title>
<path fill="none" stroke="#191970" d="M808.3685,-347.7976C911.6528,-334.8041 1087.8081,-312.4841 1091,-311 1136.9238,-289.6473 1175,-284.6452 1175,-234 1175,-234 1175,-234 1175,-178 1175,-143.6999 1186.1061,-130.4835 1215,-112 1246.4792,-91.8627 1500.1446,-73.8507 1590.8758,-67.9939"/>
<polygon fill="#191970" stroke="#191970" points="1591.1063,-71.4864 1600.8628,-67.3559 1590.66,-64.5006 1591.1063,-71.4864"/>
</g>
<!-- Node30 -->
<g id="node25" class="node">
<title>Node30</title>
<g id="a_node25"><a xlink:href="Position_8h.html" target="_top" xlink:title="Position.h">
<polygon fill="none" stroke="#000000" points="1324.5,-286 1324.5,-305 1389.5,-305 1389.5,-286 1324.5,-286"/>
<text text-anchor="middle" x="1357" y="-293" font-family="FreeSans.ttf" font-size="10.00" fill="#000000">Position.h</text>
</a>
</g>
</g>
<!-- Node38&#45;&gt;Node30 -->
<g id="edge28" class="edge">
<title>Node38&#45;&gt;Node30</title>
<path fill="none" stroke="#191970" d="M808.3066,-347.9634C811.242,-347.6322 814.1485,-347.3098 817,-347 913.4808,-336.5182 1204.618,-309.5336 1314.4469,-299.4124"/>
<polygon fill="#191970" stroke="#191970" points="1314.8601,-302.8892 1324.4969,-298.4867 1314.218,-295.9187 1314.8601,-302.8892"/>
</g>
<!-- Node32 -->
<g id="node27" class="node">
<title>Node32</title>
<g id="a_node27"><a xlink:href="Rotation_8h.html" target="_top" xlink:title="iDynTree/Core/Rotation.h">
<polygon fill="none" stroke="#000000" points="947.5,-224.5 947.5,-243.5 1084.5,-243.5 1084.5,-224.5 947.5,-224.5"/>
<text text-anchor="middle" x="1016" y="-231.5" font-family="FreeSans.ttf" font-size="10.00" fill="#000000">iDynTree/Core/Rotation.h</text>
</a>
</g>
</g>
<!-- Node38&#45;&gt;Node32 -->
<g id="edge47" class="edge">
<title>Node38&#45;&gt;Node32</title>
<path fill="none" stroke="#191970" d="M808.1799,-347.6997C907.4528,-334.999 1072.8076,-313.509 1075,-311 1084.0658,-300.6251 1081.046,-292.3803 1075,-280 1068.5959,-266.8865 1056.4479,-256.4229 1044.8315,-248.8092"/>
<polygon fill="#191970" stroke="#191970" points="1046.5211,-245.7405 1036.1561,-243.5457 1042.8902,-251.7252 1046.5211,-245.7405"/>
</g>
<!-- Node10 -->
<g id="node30" class="node">
<title>Node10</title>
<g id="a_node30"><a xlink:href="MatrixFixSize_8h.html" target="_top" xlink:title="iDynTree/Core/MatrixFixSize.h">
<polygon fill="none" stroke="#000000" points="795.5,-112.5 795.5,-131.5 956.5,-131.5 956.5,-112.5 795.5,-112.5"/>
<text text-anchor="middle" x="876" y="-119.5" font-family="FreeSans.ttf" font-size="10.00" fill="#000000">iDynTree/Core/MatrixFixSize.h</text>
</a>
</g>
</g>
<!-- Node38&#45;&gt;Node10 -->
<g id="edge48" class="edge">
<title>Node38&#45;&gt;Node10</title>
<path fill="none" stroke="#191970" d="M803.8211,-347.4707C881.3575,-336.4035 997.518,-318.6845 1004,-311 1012.8834,-300.4685 1010.9949,-291.8701 1004,-280 987.2341,-251.5487 966.3048,-262.5745 939,-244 906.6286,-221.9789 887.7093,-223.4068 871,-188 864.1892,-173.568 866.2393,-155.3714 869.5408,-141.7417"/>
<polygon fill="#191970" stroke="#191970" points="872.9567,-142.5244 872.3116,-131.9492 866.2211,-140.6185 872.9567,-142.5244"/>
</g>
<!-- Node30&#45;&gt;Node5 -->
<g id="edge46" class="edge">
<title>Node30&#45;&gt;Node5</title>
<path fill="none" stroke="#191970" d="M1389.5119,-291.3688C1443.3971,-282.6785 1550.56,-257.2279 1604,-188 1626.9343,-158.2902 1627.3848,-112.1509 1625.3787,-85.9535"/>
<polygon fill="#191970" stroke="#191970" points="1628.8385,-85.3677 1624.3916,-75.7513 1621.871,-86.0419 1628.8385,-85.3677"/>
</g>
<!-- Node31 -->
<g id="node26" class="node">
<title>Node31</title>
<g id="a_node26"><a xlink:href="PositionRaw_8h.html" target="_top" xlink:title="iDynTree/Core/PositionRaw.h">
<polygon fill="none" stroke="#000000" points="1279,-168.5 1279,-187.5 1435,-187.5 1435,-168.5 1279,-168.5"/>
<text text-anchor="middle" x="1357" y="-175.5" font-family="FreeSans.ttf" font-size="10.00" fill="#000000">iDynTree/Core/PositionRaw.h</text>
</a>
</g>
</g>
<!-- Node30&#45;&gt;Node31 -->
<g id="edge29" class="edge">
<title>Node30&#45;&gt;Node31</title>
<path fill="none" stroke="#191970" d="M1357,-285.8845C1357,-266.6913 1357,-223.286 1357,-197.7663"/>
<polygon fill="#191970" stroke="#191970" points="1360.5001,-197.7483 1357,-187.7484 1353.5001,-197.7484 1360.5001,-197.7483"/>
</g>
<!-- Node30&#45;&gt;Node32 -->
<g id="edge32" class="edge">
<title>Node30&#45;&gt;Node32</title>
<path fill="none" stroke="#191970" d="M1324.3035,-289.6031C1267.8636,-279.4241 1151.2505,-258.3927 1078.7275,-245.313"/>
<polygon fill="#191970" stroke="#191970" points="1079.2601,-241.8527 1068.7977,-243.5222 1078.0177,-248.7416 1079.2601,-241.8527"/>
</g>
<!-- Node31&#45;&gt;Node5 -->
<g id="edge31" class="edge">
<title>Node31&#45;&gt;Node5</title>
<path fill="none" stroke="#191970" d="M1379.679,-168.4509C1427.1075,-148.481 1536.8732,-102.2639 1591.2686,-79.3606"/>
<polygon fill="#191970" stroke="#191970" points="1592.8954,-82.4733 1600.7536,-75.3669 1590.179,-76.0218 1592.8954,-82.4733"/>
</g>
<!-- Node31&#45;&gt;Node17 -->
<g id="edge30" class="edge">
<title>Node31&#45;&gt;Node17</title>
<path fill="none" stroke="#191970" d="M1278.5636,-172.4213C1170.5928,-164.574 969.8363,-149.3814 787.9602,-132.0676"/>
<polygon fill="#191970" stroke="#191970" points="788.2288,-128.5775 777.9411,-131.1099 787.5626,-135.5457 788.2288,-128.5775"/>
</g>
<!-- Node32&#45;&gt;Node5 -->
<g id="edge33" class="edge">
<title>Node32&#45;&gt;Node5</title>
<path fill="none" stroke="#191970" d="M1033.3402,-224.3953C1047.1987,-216.0932 1066.4762,-203.0741 1080,-188 1105.9167,-159.1123 1090.4067,-133.0677 1123,-112 1162.1985,-86.6629 1485.763,-71.5243 1590.4546,-67.2536"/>
<polygon fill="#191970" stroke="#191970" points="1590.8734,-70.7397 1600.7249,-66.8411 1590.5924,-63.7454 1590.8734,-70.7397"/>
</g>
<!-- Node32&#45;&gt;Node17 -->
<g id="edge45" class="edge">
<title>Node32&#45;&gt;Node17</title>
<path fill="none" stroke="#191970" d="M988.8022,-224.4509C931.5947,-204.3655 798.762,-157.7284 733.9285,-134.9655"/>
<polygon fill="#191970" stroke="#191970" points="734.7238,-131.5353 724.1289,-131.5249 732.4048,-138.1401 734.7238,-131.5353"/>
</g>
<!-- Node28 -->
<g id="node28" class="node">
<title>Node28</title>
<g id="a_node28"><a xlink:href="GeomVector3_8h.html" target="_top" xlink:title="iDynTree/Core/GeomVector3.h">
<polygon fill="none" stroke="#000000" points="615.5,-168.5 615.5,-187.5 778.5,-187.5 778.5,-168.5 615.5,-168.5"/>
<text text-anchor="middle" x="697" y="-175.5" font-family="FreeSans.ttf" font-size="10.00" fill="#000000">iDynTree/Core/GeomVector3.h</text>
</a>
</g>
</g>
<!-- Node32&#45;&gt;Node28 -->
<g id="edge34" class="edge">
<title>Node32&#45;&gt;Node28</title>
<path fill="none" stroke="#191970" d="M961.5244,-224.4369C906.0125,-214.6918 819.9471,-199.5832 761.1672,-189.2645"/>
<polygon fill="#191970" stroke="#191970" points="761.7055,-185.8055 751.2509,-187.5237 760.4951,-192.7001 761.7055,-185.8055"/>
</g>
<!-- Node33 -->
<g id="node29" class="node">
<title>Node33</title>
<g id="a_node29"><a xlink:href="RotationRaw_8h.html" target="_top" xlink:title="iDynTree/Core/RotationRaw.h">
<polygon fill="none" stroke="#000000" points="913,-168.5 913,-187.5 1071,-187.5 1071,-168.5 913,-168.5"/>
<text text-anchor="middle" x="992" y="-175.5" font-family="FreeSans.ttf" font-size="10.00" fill="#000000">iDynTree/Core/RotationRaw.h</text>
</a>
</g>
</g>
<!-- Node32&#45;&gt;Node33 -->
<g id="edge36" class="edge">
<title>Node32&#45;&gt;Node33</title>
<path fill="none" stroke="#191970" d="M1011.8195,-224.2455C1008.619,-216.7776 1004.104,-206.2427 1000.1916,-197.1137"/>
<polygon fill="#191970" stroke="#191970" points="1003.2888,-195.4554 996.1326,-187.6427 996.8548,-198.2129 1003.2888,-195.4554"/>
</g>
<!-- Node28&#45;&gt;Node17 -->
<g id="edge35" class="edge">
<title>Node28&#45;&gt;Node17</title>
<path fill="none" stroke="#191970" d="M697,-168.2455C697,-160.9382 697,-150.6944 697,-141.7046"/>
<polygon fill="#191970" stroke="#191970" points="700.5001,-141.6426 697,-131.6427 693.5001,-141.6427 700.5001,-141.6426"/>
</g>
<!-- Node33&#45;&gt;Node5 -->
<g id="edge44" class="edge">
<title>Node33&#45;&gt;Node5</title>
<path fill="none" stroke="#191970" d="M996.8215,-168.2697C1004.8789,-153.1953 1022.6301,-124.6215 1047,-112 1095.3799,-86.9434 1476.4417,-71.2872 1590.7165,-67.1209"/>
<polygon fill="#191970" stroke="#191970" points="1591.0548,-70.6111 1600.9224,-66.7536 1590.803,-63.6156 1591.0548,-70.6111"/>
</g>
<!-- Node33&#45;&gt;Node10 -->
<g id="edge37" class="edge">
<title>Node33&#45;&gt;Node10</title>
<path fill="none" stroke="#191970" d="M972.0589,-168.3733C953.5214,-159.4241 925.6972,-145.9917 904.7587,-135.8835"/>
<polygon fill="#191970" stroke="#191970" points="906.2081,-132.6967 895.6809,-131.5011 903.1648,-139.0006 906.2081,-132.6967"/>
</g>
<!-- Node10&#45;&gt;Node5 -->
<g id="edge41" class="edge">
<title>Node10&#45;&gt;Node5</title>
<path fill="none" stroke="#191970" d="M956.5748,-113.3245C961.4542,-112.8594 966.2917,-112.4138 971,-112 1208.5548,-91.1234 1495.4609,-73.5236 1590.6098,-67.8891"/>
<polygon fill="#191970" stroke="#191970" points="1590.966,-71.3742 1600.7425,-67.2914 1590.5538,-64.3864 1590.966,-71.3742"/>
</g>
<!-- Node10&#45;&gt;Node11 -->
<g id="edge38" class="edge">
<title>Node10&#45;&gt;Node11</title>
<path fill="none" stroke="#191970" d="M899.723,-112.3733C922.1737,-103.2629 956.0739,-89.5062 981.1255,-79.3404"/>
<polygon fill="#191970" stroke="#191970" points="982.6365,-82.5045 990.5865,-75.5011 980.0043,-76.0182 982.6365,-82.5045"/>
</g>
<!-- Node10&#45;&gt;Node13 -->
<g id="edge39" class="edge">
<title>Node10&#45;&gt;Node13</title>
<path fill="none" stroke="#191970" d="M871.73,-112.3473C864.8431,-97.8997 849.9086,-70.774 829,-56 791.5632,-29.5472 739.1602,-18.2294 704.4325,-13.4379"/>
<polygon fill="#191970" stroke="#191970" points="704.6187,-9.9336 694.2585,-12.1508 703.7401,-16.8783 704.6187,-9.9336"/>
</g>
<!-- Node10&#45;&gt;Node16 -->
<g id="edge43" class="edge">
<title>Node10&#45;&gt;Node16</title>
<path fill="none" stroke="#191970" d="M849.8703,-112.3733C824.9232,-103.1822 787.1408,-89.2624 759.4794,-79.0713"/>
<polygon fill="#191970" stroke="#191970" points="760.3822,-75.674 749.7888,-75.5011 757.9622,-82.2424 760.3822,-75.674"/>
</g>
<!-- Node10&#45;&gt;Node14 -->
<g id="edge40" class="edge">
<title>Node10&#45;&gt;Node14</title>
<path fill="none" stroke="#191970" d="M861.8909,-112.2455C849.5791,-103.7337 831.5042,-91.2375 817.2462,-81.3801"/>
<polygon fill="#191970" stroke="#191970" points="819.1634,-78.4506 808.9474,-75.6427 815.1826,-84.2085 819.1634,-78.4506"/>
</g>
<!-- Node15 -->
<g id="node31" class="node">
<title>Node15</title>
<polygon fill="none" stroke="#bfbfbf" points="876,-56.5 876,-75.5 936,-75.5 936,-56.5 876,-56.5"/>
<text text-anchor="middle" x="906" y="-63.5" font-family="FreeSans.ttf" font-size="10.00" fill="#000000">iostream</text>
</g>
<!-- Node10&#45;&gt;Node15 -->
<g id="edge42" class="edge">
<title>Node10&#45;&gt;Node15</title>
<path fill="none" stroke="#191970" d="M881.2256,-112.2455C885.3123,-104.617 891.1135,-93.7881 896.075,-84.5267"/>
<polygon fill="#191970" stroke="#191970" points="899.1972,-86.1103 900.8343,-75.6427 893.0268,-82.8047 899.1972,-86.1103"/>
</g>
<!-- Node39&#45;&gt;Node5 -->
<g id="edge53" class="edge">
<title>Node39&#45;&gt;Node5</title>
<path fill="none" stroke="#191970" d="M1110.7097,-411.1406C1244.7367,-407.2871 1505.0803,-396.2029 1592,-367 1674.8948,-339.1494 1737,-321.4483 1737,-234 1737,-234 1737,-234 1737,-178 1737,-131.4628 1688.0617,-97.828 1654.3136,-80.1659"/>
<polygon fill="#191970" stroke="#191970" points="1655.7576,-76.9746 1645.251,-75.6105 1652.6138,-83.2289 1655.7576,-76.9746"/>
</g>
<!-- Node39&#45;&gt;Node38 -->
<g id="edge55" class="edge">
<title>Node39&#45;&gt;Node38</title>
<path fill="none" stroke="#191970" d="M978.7937,-403.4369C927.9493,-393.7522 849.294,-378.7703 795.1487,-368.4569"/>
<polygon fill="#191970" stroke="#191970" points="795.4776,-364.9567 784.9993,-366.5237 794.1677,-371.8331 795.4776,-364.9567"/>
</g>
<!-- Node39&#45;&gt;Node40 -->
<g id="edge52" class="edge">
<title>Node39&#45;&gt;Node40</title>
<path fill="none" stroke="#191970" d="M1027.0839,-403.2455C1025.6486,-395.9382 1023.6364,-385.6944 1021.8705,-376.7046"/>
<polygon fill="#191970" stroke="#191970" points="1025.256,-375.7805 1019.8941,-366.6427 1018.3873,-377.1298 1025.256,-375.7805"/>
</g>
<!-- Node39&#45;&gt;Node41 -->
<g id="edge54" class="edge">
<title>Node39&#45;&gt;Node41</title>
<path fill="none" stroke="#191970" d="M1067.2525,-403.4369C1110.1043,-392.7239 1178.8841,-375.529 1219.634,-365.3415"/>
<polygon fill="#191970" stroke="#191970" points="1220.5049,-368.7316 1229.3574,-362.9106 1218.8071,-361.9406 1220.5049,-368.7316"/>
</g>
<!-- Node42&#45;&gt;Node2 -->
<g id="edge66" class="edge">
<title>Node42&#45;&gt;Node2</title>
<path fill="none" stroke="#191970" d="M822.6254,-515.2455C831.5473,-507.0549 844.488,-495.1749 855.0192,-485.5069"/>
<polygon fill="#191970" stroke="#191970" points="857.4968,-487.9837 862.4964,-478.6427 852.7629,-482.8271 857.4968,-487.9837"/>
</g>
<!-- Node42&#45;&gt;Node4 -->
<g id="edge67" class="edge">
<title>Node42&#45;&gt;Node4</title>
<path fill="none" stroke="#191970" d="M799.116,-515.3156C772.2995,-493.9872 715.2778,-441.7753 744,-403 754.7726,-388.4569 794.6252,-376.6755 830.6828,-368.6774"/>
<polygon fill="#191970" stroke="#191970" points="831.6817,-372.0428 840.7249,-366.5227 830.2131,-365.1986 831.6817,-372.0428"/>
</g>
<!-- Node42&#45;&gt;Node5 -->
<g id="edge60" class="edge">
<title>Node42&#45;&gt;Node5</title>
<path fill="none" stroke="#191970" d="M736.4589,-519.1268C639.8503,-511.0028 482.4034,-495.4643 461,-479 433.0278,-457.4828 415.7482,-430.3914 438,-403 487.245,-342.3808 535.8845,-391.6301 610,-367 630.0016,-360.3531 632.6325,-352.4232 653,-347 743.9496,-322.7833 995.9423,-362.0701 1075,-311 1160.0673,-256.0478 1101.4801,-167.7906 1186,-112 1219.6027,-89.8192 1494.9739,-72.9386 1590.5063,-67.7009"/>
<polygon fill="#191970" stroke="#191970" points="1590.93,-71.1832 1600.7261,-67.1476 1590.5515,-64.1934 1590.93,-71.1832"/>
</g>
<!-- Node42&#45;&gt;Node21 -->
<g id="edge62" class="edge">
<title>Node42&#45;&gt;Node21</title>
<path fill="none" stroke="#191970" d="M736.3382,-522.4406C534.7591,-514.6207 0,-486.9106 0,-413 0,-413 0,-413 0,-122 0,-78.5635 132.4862,-37.213 198.5049,-19.3042"/>
<polygon fill="#191970" stroke="#191970" points="199.7413,-22.5967 208.4993,-16.6345 197.9348,-15.8338 199.7413,-22.5967"/>
</g>
<!-- Node42&#45;&gt;Node28 -->
<g id="edge59" class="edge">
<title>Node42&#45;&gt;Node28</title>
<path fill="none" stroke="#191970" d="M736.393,-521.1851C606.0892,-514.1454 349.597,-498.076 313,-479 226.3049,-433.8106 204.6027,-402.8095 171,-311 166.2645,-298.0616 162.2339,-290.6293 171,-280 225.0225,-214.4953 469.4825,-190.5451 605.3018,-182.1943"/>
<polygon fill="#191970" stroke="#191970" points="605.5168,-185.6878 615.2897,-181.5963 605.0983,-178.7003 605.5168,-185.6878"/>
</g>
<!-- Node42&#45;&gt;Node41 -->
<g id="edge61" class="edge">
<title>Node42&#45;&gt;Node41</title>
<path fill="none" stroke="#191970" d="M859.3574,-515.4509C926.7055,-500.8554 1053.0653,-469.683 1153,-423 1182.5818,-409.1813 1213.4813,-387.4967 1232.9622,-372.7867"/>
<polygon fill="#191970" stroke="#191970" points="1235.2594,-375.4357 1241.0636,-366.5721 1230.9989,-369.8816 1235.2594,-375.4357"/>
</g>
<!-- Node43 -->
<g id="node36" class="node">
<title>Node43</title>
<g id="a_node36"><a xlink:href="VectorDynSize_8h.html" target="_top" xlink:title="iDynTree/Core/VectorDynSize.h">
<polygon fill="none" stroke="#000000" points="431.5,-112.5 431.5,-131.5 598.5,-131.5 598.5,-112.5 431.5,-112.5"/>
<text text-anchor="middle" x="515" y="-119.5" font-family="FreeSans.ttf" font-size="10.00" fill="#000000">iDynTree/Core/VectorDynSize.h</text>
</a>
</g>
</g>
<!-- Node42&#45;&gt;Node43 -->
<g id="edge63" class="edge">
<title>Node42&#45;&gt;Node43</title>
<path fill="none" stroke="#191970" d="M736.3821,-521.1376C598.4612,-513.7089 316.3847,-496.6017 275,-479 215.4601,-453.6765 207.8159,-426.328 182,-367 156.6412,-308.7227 140.772,-272.369 182,-224 215.5479,-184.6413 235.4073,-185.7007 284,-168 329.7151,-151.3476 382.8351,-140.2377 426.6018,-133.1155"/>
<polygon fill="#191970" stroke="#191970" points="427.3223,-136.5451 436.6512,-131.523 426.2266,-129.6313 427.3223,-136.5451"/>
</g>
<!-- Node43&#45;&gt;Node5 -->
<g id="edge65" class="edge">
<title>Node43&#45;&gt;Node5</title>
<path fill="none" stroke="#191970" d="M598.629,-112.761C601.7915,-112.49 604.9236,-112.2349 608,-112 994.2411,-82.5104 1464.7158,-69.7652 1590.6995,-66.7369"/>
<polygon fill="#191970" stroke="#191970" points="1590.9125,-70.233 1600.8266,-66.4967 1590.7464,-63.2349 1590.9125,-70.233"/>
</g>
<!-- Node43&#45;&gt;Node18 -->
<g id="edge64" class="edge">
<title>Node43&#45;&gt;Node18</title>
<path fill="none" stroke="#191970" d="M526.1479,-112.2455C535.5087,-104.0549 549.0858,-92.1749 560.1349,-82.5069"/>
<polygon fill="#191970" stroke="#191970" points="562.7588,-84.8618 567.9798,-75.6427 558.1492,-79.5937 562.7588,-84.8618"/>
</g>
<!-- Node45&#45;&gt;Node1 -->
<g id="edge116" class="edge">
<title>Node45&#45;&gt;Node1</title>
<path fill="none" stroke="#191970" d="M1534.2242,-636.4348C1445.4201,-626.0321 1262.9662,-604.6589 1152.3629,-591.7025"/>
<polygon fill="#191970" stroke="#191970" points="1152.5587,-588.2016 1142.2194,-590.5143 1151.7442,-595.1541 1152.5587,-588.2016"/>
</g>
<!-- Node45&#45;&gt;Node2 -->
<g id="edge117" class="edge">
<title>Node45&#45;&gt;Node2</title>
<path fill="none" stroke="#191970" d="M1534.4801,-635.9714C1472.8153,-627.6847 1366.6406,-611.9141 1277,-591 1139.6271,-558.9494 980.3744,-506.1024 909.8529,-481.8683"/>
<polygon fill="#191970" stroke="#191970" points="910.6998,-478.4582 900.105,-478.5063 908.4174,-485.0756 910.6998,-478.4582"/>
</g>
<!-- Node45&#45;&gt;Node5 -->
<g id="edge119" class="edge">
<title>Node45&#45;&gt;Node5</title>
<path fill="none" stroke="#191970" d="M1637.58,-639.275C1750.1831,-631.9221 2014.8961,-612.8528 2102,-591 2239.616,-556.4746 2397,-610.8808 2397,-469 2397,-469 2397,-469 2397,-178 2397,-101.8357 1802.3687,-73.143 1655.4983,-67.2177"/>
<polygon fill="#191970" stroke="#191970" points="1655.4602,-63.7136 1645.3296,-66.8153 1655.1833,-70.7081 1655.4602,-63.7136"/>
</g>
<!-- Node45&#45;&gt;Node41 -->
<g id="edge120" class="edge">
<title>Node45&#45;&gt;Node41</title>
<path fill="none" stroke="#191970" d="M1534.2773,-632.9336C1449.6726,-615.7943 1291,-576.7518 1291,-525 1291,-525 1291,-525 1291,-469 1291,-434.6118 1274.7366,-397.2832 1263.489,-375.5791"/>
<polygon fill="#191970" stroke="#191970" points="1266.431,-373.6605 1258.607,-366.5166 1260.2683,-376.9804 1266.431,-373.6605"/>
</g>
<!-- Node45&#45;&gt;Node42 -->
<g id="edge118" class="edge">
<title>Node45&#45;&gt;Node42</title>
<path fill="none" stroke="#191970" d="M1534.1309,-640.384C1404.9621,-634.7656 1071.586,-618.0279 964,-591 917.6736,-579.3618 867.5024,-555.0582 837.9598,-539.4131"/>
<polygon fill="#191970" stroke="#191970" points="839.5894,-536.3155 829.1239,-534.6648 836.2758,-542.4815 839.5894,-536.3155"/>
</g>
<!-- Node46 -->
<g id="node39" class="node">
<title>Node46</title>
<g id="a_node39"><a xlink:href="XMLDocument_8h.html" target="_top" xlink:title="iDynTree/XMLDocument.h">
<polygon fill="none" stroke="#000000" points="2049,-403.5 2049,-422.5 2191,-422.5 2191,-403.5 2049,-403.5"/>
<text text-anchor="middle" x="2120" y="-410.5" font-family="FreeSans.ttf" font-size="10.00" fill="#000000">iDynTree/XMLDocument.h</text>
</a>
</g>
</g>
<!-- Node45&#45;&gt;Node46 -->
<g id="edge72" class="edge">
<title>Node45&#45;&gt;Node46</title>
<path fill="none" stroke="#191970" d="M1609.5215,-632.8723C1634.6638,-622.5665 1675.6832,-605.7101 1711,-591 1770.2067,-566.3393 1785.1113,-560.4105 1844,-535 1933.4755,-496.3913 2038.6406,-449.4783 2089.4554,-426.7128"/>
<polygon fill="#191970" stroke="#191970" points="2090.8908,-429.905 2098.5843,-422.6208 2088.0275,-423.5174 2090.8908,-429.905"/>
</g>
<!-- Node47 -->
<g id="node40" class="node">
<title>Node47</title>
<g id="a_node40"><a xlink:href="JointElement_8h.html" target="_top" xlink:title="JointElement.h">
<polygon fill="none" stroke="#000000" points="1787,-459.5 1787,-478.5 1875,-478.5 1875,-459.5 1787,-459.5"/>
<text text-anchor="middle" x="1831" y="-466.5" font-family="FreeSans.ttf" font-size="10.00" fill="#000000">JointElement.h</text>
</a>
</g>
</g>
<!-- Node45&#45;&gt;Node47 -->
<g id="edge75" class="edge">
<title>Node45&#45;&gt;Node47</title>
<path fill="none" stroke="#191970" d="M1607.3701,-632.8642C1627.7253,-623.3215 1658.8971,-607.7456 1684,-591 1734.0066,-557.6417 1786.8905,-510.3637 1813.5104,-485.5982"/>
<polygon fill="#191970" stroke="#191970" points="1815.9936,-488.0678 1820.8962,-478.6755 1811.2066,-482.9605 1815.9936,-488.0678"/>
</g>
<!-- Node50 -->
<g id="node43" class="node">
<title>Node50</title>
<polygon fill="none" stroke="#bfbfbf" points="1898.5,-347.5 1898.5,-366.5 1991.5,-366.5 1991.5,-347.5 1898.5,-347.5"/>
<text text-anchor="middle" x="1945" y="-354.5" font-family="FreeSans.ttf" font-size="10.00" fill="#000000">unordered_map</text>
</g>
<!-- Node45&#45;&gt;Node50 -->
<g id="edge121" class="edge">
<title>Node45&#45;&gt;Node50</title>
<path fill="none" stroke="#191970" d="M1637.5327,-638.3727C1788.4703,-625.5995 2219,-583.9952 2219,-525 2219,-525 2219,-525 2219,-469 2219,-438.4754 2222.6547,-423.4578 2200,-403 2171.5568,-377.315 2068.0159,-365.4431 2001.942,-360.3752"/>
<polygon fill="#191970" stroke="#191970" points="2001.9065,-356.8632 1991.6765,-359.6192 2001.3923,-363.8443 2001.9065,-356.8632"/>
</g>
<!-- Node53 -->
<g id="node46" class="node">
<title>Node53</title>
<g id="a_node46"><a xlink:href="MaterialElement_8h.html" target="_top" xlink:title="MaterialElement.h">
<polygon fill="none" stroke="#000000" points="1395,-459.5 1395,-478.5 1501,-478.5 1501,-459.5 1395,-459.5"/>
<text text-anchor="middle" x="1448" y="-466.5" font-family="FreeSans.ttf" font-size="10.00" fill="#000000">MaterialElement.h</text>
</a>
</g>
</g>
<!-- Node45&#45;&gt;Node53 -->
<g id="edge94" class="edge">
<title>Node45&#45;&gt;Node53</title>
<path fill="none" stroke="#191970" d="M1572.0911,-632.8195C1548.4103,-615.6755 1500.1022,-577.7295 1472,-535 1462.5902,-520.6924 1456.2814,-502.2176 1452.5034,-488.455"/>
<polygon fill="#191970" stroke="#191970" points="1455.8547,-487.4313 1450.0051,-478.5976 1449.0692,-489.151 1455.8547,-487.4313"/>
</g>
<!-- Node54 -->
<g id="node47" class="node">
<title>Node54</title>
<g id="a_node47"><a xlink:href="SensorElement_8h.html" target="_top" xlink:title="SensorElement.h">
<polygon fill="none" stroke="#000000" points="1575.5,-571.5 1575.5,-590.5 1674.5,-590.5 1674.5,-571.5 1575.5,-571.5"/>
<text text-anchor="middle" x="1625" y="-578.5" font-family="FreeSans.ttf" font-size="10.00" fill="#000000">SensorElement.h</text>
</a>
</g>
</g>
<!-- Node45&#45;&gt;Node54 -->
<g id="edge99" class="edge">
<title>Node45&#45;&gt;Node54</title>
<path fill="none" stroke="#191970" d="M1592.0938,-632.8906C1597.7843,-623.917 1606.4272,-610.2879 1613.4274,-599.2491"/>
<polygon fill="#191970" stroke="#191970" points="1616.4207,-601.0644 1618.8203,-590.7449 1610.5091,-597.3155 1616.4207,-601.0644"/>
</g>
<!-- Node55 -->
<g id="node48" class="node">
<title>Node55</title>
<g id="a_node48"><a xlink:href="VisualElement_8h.html" target="_top" xlink:title="VisualElement.h">
<polygon fill="none" stroke="#000000" points="1481,-515.5 1481,-534.5 1577,-534.5 1577,-515.5 1481,-515.5"/>
<text text-anchor="middle" x="1529" y="-522.5" font-family="FreeSans.ttf" font-size="10.00" fill="#000000">VisualElement.h</text>
</a>
</g>
</g>
<!-- Node45&#45;&gt;Node55 -->
<g id="edge107" class="edge">
<title>Node45&#45;&gt;Node55</title>
<path fill="none" stroke="#191970" d="M1581.3355,-632.8845C1571.8995,-613.4331 1550.3999,-569.1138 1538.0939,-543.7462"/>
<polygon fill="#191970" stroke="#191970" points="1541.2427,-542.218 1533.729,-534.7484 1534.9446,-545.2733 1541.2427,-542.218"/>
</g>
<!-- Node46&#45;&gt;Node5 -->
<g id="edge74" class="edge">
<title>Node46&#45;&gt;Node5</title>
<path fill="none" stroke="#191970" d="M2113.5526,-403.4207C2101.1097,-383.975 2075,-338.0961 2075,-295.5 2075,-295.5 2075,-295.5 2075,-178 2075,-143.6999 2063.9039,-130.4678 2035,-112 2003.1686,-91.6616 1746.4695,-73.7454 1655.1239,-67.9565"/>
<polygon fill="#191970" stroke="#191970" points="1655.2751,-64.4592 1645.0756,-67.3265 1654.837,-71.4454 1655.2751,-64.4592"/>
</g>
<!-- Node46&#45;&gt;Node44 -->
<g id="edge73" class="edge">
<title>Node46&#45;&gt;Node44</title>
<path fill="none" stroke="#191970" d="M2057.8398,-403.4369C1982.6331,-391.8666 1858.2804,-372.7354 1795.2423,-363.0373"/>
<polygon fill="#191970" stroke="#191970" points="1795.7194,-359.5696 1785.3035,-361.5082 1794.655,-366.4882 1795.7194,-359.5696"/>
</g>
<!-- Node47&#45;&gt;Node5 -->
<g id="edge92" class="edge">
<title>Node47&#45;&gt;Node5</title>
<path fill="none" stroke="#191970" d="M1836.607,-459.4834C1847.1774,-440.6141 1869,-396.8343 1869,-357 1869,-357 1869,-357 1869,-178 1869,-138.9495 1844.3952,-132.241 1811,-112 1761.9091,-82.2458 1694.6157,-71.7182 1655.2757,-68.0066"/>
<polygon fill="#191970" stroke="#191970" points="1655.4566,-64.5094 1645.1956,-67.1481 1654.8625,-71.4842 1655.4566,-64.5094"/>
</g>
<!-- Node47&#45;&gt;Node38 -->
<g id="edge90" class="edge">
<title>Node47&#45;&gt;Node38</title>
<path fill="none" stroke="#191970" d="M1786.899,-467.4625C1585.7168,-460.4066 764.3248,-431.1228 754,-423 740.2594,-412.19 736.0259,-392.1119 734.9166,-376.9285"/>
<polygon fill="#191970" stroke="#191970" points="738.4006,-376.385 734.5715,-366.5063 731.4044,-376.6167 738.4006,-376.385"/>
</g>
<!-- Node47&#45;&gt;Node44 -->
<g id="edge91" class="edge">
<title>Node47&#45;&gt;Node44</title>
<path fill="none" stroke="#191970" d="M1830.0311,-459.2912C1828.2921,-445.7145 1823.6617,-420.7333 1812,-403 1803.9814,-390.8065 1791.7326,-380.2191 1780.7332,-372.2856"/>
<polygon fill="#191970" stroke="#191970" points="1782.5156,-369.2644 1772.2845,-366.5121 1778.5661,-375.0439 1782.5156,-369.2644"/>
</g>
<!-- Node48 -->
<g id="node41" class="node">
<title>Node48</title>
<g id="a_node41"><a xlink:href="XMLElement_8h.html" target="_top" xlink:title="iDynTree/XMLElement.h">
<polygon fill="none" stroke="#000000" points="1671,-403.5 1671,-422.5 1803,-422.5 1803,-403.5 1671,-403.5"/>
<text text-anchor="middle" x="1737" y="-410.5" font-family="FreeSans.ttf" font-size="10.00" fill="#000000">iDynTree/XMLElement.h</text>
</a>
</g>
</g>
<!-- Node47&#45;&gt;Node48 -->
<g id="edge76" class="edge">
<title>Node47&#45;&gt;Node48</title>
<path fill="none" stroke="#191970" d="M1814.6264,-459.2455C1800.0692,-450.5731 1778.569,-437.7645 1761.8848,-427.825"/>
<polygon fill="#191970" stroke="#191970" points="1763.5683,-424.7539 1753.1859,-422.6427 1759.9856,-430.7676 1763.5683,-424.7539"/>
</g>
<!-- Node47&#45;&gt;Node50 -->
<g id="edge93" class="edge">
<title>Node47&#45;&gt;Node50</title>
<path fill="none" stroke="#191970" d="M1842.4282,-459.4211C1853.149,-450.3123 1869.507,-436.0954 1883,-423 1899.4428,-407.0417 1917.2596,-387.8612 1929.5559,-374.3003"/>
<polygon fill="#191970" stroke="#191970" points="1932.3443,-376.4344 1936.4372,-366.662 1927.1435,-371.7491 1932.3443,-376.4344"/>
</g>
<!-- Node51 -->
<g id="node44" class="node">
<title>Node51</title>
<g id="a_node44"><a xlink:href="Axis_8h.html" target="_top" xlink:title="iDynTree/Core/Axis.h">
<polygon fill="none" stroke="#000000" points="1465,-347.5 1465,-366.5 1583,-366.5 1583,-347.5 1465,-347.5"/>
<text text-anchor="middle" x="1524" y="-354.5" font-family="FreeSans.ttf" font-size="10.00" fill="#000000">iDynTree/Core/Axis.h</text>
</a>
</g>
</g>
<!-- Node47&#45;&gt;Node51 -->
<g id="edge82" class="edge">
<title>Node47&#45;&gt;Node51</title>
<path fill="none" stroke="#191970" d="M1787.61,-459.4717C1753.0658,-451.3439 1703.7552,-438.523 1662,-423 1621.9186,-408.0993 1577.6642,-385.8331 1550.3424,-371.3614"/>
<polygon fill="#191970" stroke="#191970" points="1551.8883,-368.2192 1541.419,-366.5926 1548.5889,-374.3929 1551.8883,-368.2192"/>
</g>
<!-- Node48&#45;&gt;Node5 -->
<g id="edge79" class="edge">
<title>Node48&#45;&gt;Node5</title>
<path fill="none" stroke="#191970" d="M1753.9288,-403.4452C1766.7733,-395.3445 1783.8914,-382.5726 1794,-367 1811.9026,-339.4205 1813,-328.3806 1813,-295.5 1813,-295.5 1813,-295.5 1813,-178 1813,-146.7875 1811.9191,-133.1882 1789,-112 1769.5755,-94.0425 1697.7211,-78.9363 1655.1785,-71.3165"/>
<polygon fill="#191970" stroke="#191970" points="1655.7527,-67.8639 1645.299,-69.587 1654.5456,-74.7591 1655.7527,-67.8639"/>
</g>
<!-- Node48&#45;&gt;Node41 -->
<g id="edge81" class="edge">
<title>Node48&#45;&gt;Node41</title>
<path fill="none" stroke="#191970" d="M1670.9695,-405.3601C1566.4624,-393.2684 1366.6463,-370.1492 1286.9975,-360.9336"/>
<polygon fill="#191970" stroke="#191970" points="1286.9147,-357.4007 1276.5787,-359.7281 1286.1101,-364.3544 1286.9147,-357.4007"/>
</g>
<!-- Node48&#45;&gt;Node44 -->
<g id="edge78" class="edge">
<title>Node48&#45;&gt;Node44</title>
<path fill="none" stroke="#191970" d="M1740.3095,-403.2455C1742.8433,-395.7776 1746.4177,-385.2427 1749.515,-376.1137"/>
<polygon fill="#191970" stroke="#191970" points="1752.8298,-377.237 1752.7284,-366.6427 1746.2009,-374.9879 1752.8298,-377.237"/>
</g>
<!-- Node49 -->
<g id="node42" class="node">
<title>Node49</title>
<polygon fill="none" stroke="#bfbfbf" points="2166.5,-347.5 2166.5,-366.5 2231.5,-366.5 2231.5,-347.5 2166.5,-347.5"/>
<text text-anchor="middle" x="2199" y="-354.5" font-family="FreeSans.ttf" font-size="10.00" fill="#000000">functional</text>
</g>
<!-- Node48&#45;&gt;Node49 -->
<g id="edge77" class="edge">
<title>Node48&#45;&gt;Node49</title>
<path fill="none" stroke="#191970" d="M1803.1933,-404.9766C1899.4237,-393.3123 2075.2735,-371.9972 2156.1846,-362.1897"/>
<polygon fill="#191970" stroke="#191970" points="2156.9868,-365.6182 2166.4929,-360.9402 2156.1444,-358.6691 2156.9868,-365.6182"/>
</g>
<!-- Node48&#45;&gt;Node50 -->
<g id="edge80" class="edge">
<title>Node48&#45;&gt;Node50</title>
<path fill="none" stroke="#191970" d="M1772.7565,-403.3733C1807.9426,-393.9001 1861.7881,-379.4032 1899.8956,-369.1435"/>
<polygon fill="#191970" stroke="#191970" points="1900.9639,-372.4806 1909.7101,-366.5011 1899.144,-365.7213 1900.9639,-372.4806"/>
</g>
<!-- Node51&#45;&gt;Node5 -->
<g id="edge83" class="edge">
<title>Node51&#45;&gt;Node5</title>
<path fill="none" stroke="#191970" d="M1565.0297,-347.4951C1616.7545,-332.7947 1699,-299.1732 1699,-234 1699,-234 1699,-234 1699,-178 1699,-138.2361 1665.7929,-102.1042 1643.2792,-82.177"/>
<polygon fill="#191970" stroke="#191970" points="1645.4317,-79.4128 1635.5499,-75.5918 1640.8921,-84.7412 1645.4317,-79.4128"/>
</g>
<!-- Node51&#45;&gt;Node11 -->
<g id="edge89" class="edge">
<title>Node51&#45;&gt;Node11</title>
<path fill="none" stroke="#191970" d="M1534.5852,-347.2938C1565.8454,-317.4905 1652.6071,-225.821 1604,-168 1538.2536,-89.7908 1225.5805,-71.5489 1083.9752,-67.2942"/>
<polygon fill="#191970" stroke="#191970" points="1083.7679,-63.7869 1073.6721,-67.0003 1083.5682,-70.7841 1083.7679,-63.7869"/>
</g>
<!-- Node51&#45;&gt;Node30 -->
<g id="edge88" class="edge">
<title>Node51&#45;&gt;Node30</title>
<path fill="none" stroke="#191970" d="M1497.9063,-347.3906C1469.5964,-336.9652 1424.2232,-320.2559 1392.6408,-308.6252"/>
<polygon fill="#191970" stroke="#191970" points="1393.504,-305.2133 1382.9105,-305.0419 1391.0849,-311.7821 1393.504,-305.2133"/>
</g>
<!-- Node52 -->
<g id="node45" class="node">
<title>Node52</title>
<g id="a_node45"><a xlink:href="Direction_8h.html" target="_top" xlink:title="iDynTree/Core/Direction.h">
<polygon fill="none" stroke="#000000" points="1453.5,-168.5 1453.5,-187.5 1594.5,-187.5 1594.5,-168.5 1453.5,-168.5"/>
<text text-anchor="middle" x="1524" y="-175.5" font-family="FreeSans.ttf" font-size="10.00" fill="#000000">iDynTree/Core/Direction.h</text>
</a>
</g>
</g>
<!-- Node51&#45;&gt;Node52 -->
<g id="edge84" class="edge">
<title>Node51&#45;&gt;Node52</title>
<path fill="none" stroke="#191970" d="M1524,-347.3762C1524,-319.2097 1524,-236.5126 1524,-198.0713"/>
<polygon fill="#191970" stroke="#191970" points="1527.5001,-197.6714 1524,-187.6714 1520.5001,-197.6714 1527.5001,-197.6714"/>
</g>
<!-- Node52&#45;&gt;Node5 -->
<g id="edge85" class="edge">
<title>Node52&#45;&gt;Node5</title>
<path fill="none" stroke="#191970" d="M1532.4407,-168.4509C1549.1719,-149.5227 1586.7465,-107.014 1607.8602,-83.1279"/>
<polygon fill="#191970" stroke="#191970" points="1610.5802,-85.3354 1614.5807,-75.5249 1605.3354,-80.6994 1610.5802,-85.3354"/>
</g>
<!-- Node52&#45;&gt;Node17 -->
<g id="edge86" class="edge">
<title>Node52&#45;&gt;Node17</title>
<path fill="none" stroke="#191970" d="M1453.3584,-168.8991C1450.1977,-168.5773 1447.067,-168.2754 1444,-168 1156.0047,-142.1416 1080.1347,-155.8403 787.9718,-132.0343"/>
<polygon fill="#191970" stroke="#191970" points="788.1856,-128.5402 777.9323,-131.2085 787.6117,-135.5166 788.1856,-128.5402"/>
</g>
<!-- Node52&#45;&gt;Node11 -->
<g id="edge87" class="edge">
<title>Node52&#45;&gt;Node11</title>
<path fill="none" stroke="#191970" d="M1480.5177,-168.4509C1387.3636,-147.9936 1168.7847,-99.9919 1067.3941,-77.7258"/>
<polygon fill="#191970" stroke="#191970" points="1067.8903,-74.2514 1057.3723,-75.5249 1066.3887,-81.0885 1067.8903,-74.2514"/>
</g>
<!-- Node53&#45;&gt;Node5 -->
<g id="edge98" class="edge">
<title>Node53&#45;&gt;Node5</title>
<path fill="none" stroke="#191970" d="M1437.7046,-459.2059C1413.5037,-435.7024 1352.3092,-373.4083 1316,-311 1282.4261,-253.2932 1229.8754,-221.3601 1270,-168 1309.26,-115.7896 1511.6329,-81.8348 1591.0045,-70.3421"/>
<polygon fill="#191970" stroke="#191970" points="1591.5185,-73.8043 1600.9257,-68.9303 1590.5323,-66.8741 1591.5185,-73.8043"/>
</g>
<!-- Node53&#45;&gt;Node17 -->
<g id="edge96" class="edge">
<title>Node53&#45;&gt;Node17</title>
<path fill="none" stroke="#191970" d="M1394.8846,-467.4946C1202.9245,-461.9209 551.6198,-441.8075 460,-423 320.9927,-394.465 241.8502,-427.6213 161,-311 135.0712,-273.5994 176.8639,-248.8345 215,-224 275.6797,-184.485 297.7488,-185.5564 368,-168 411.7312,-157.0712 524.7208,-142.3382 606.0853,-132.5214"/>
<polygon fill="#191970" stroke="#191970" points="606.8324,-135.957 616.3437,-131.2895 605.9977,-129.0069 606.8324,-135.957"/>
</g>
<!-- Node53&#45;&gt;Node44 -->
<g id="edge97" class="edge">
<title>Node53&#45;&gt;Node44</title>
<path fill="none" stroke="#191970" d="M1460.1704,-459.3967C1478.9931,-445.0136 1516.7855,-417.9709 1553,-403 1607.492,-380.4732 1674.9907,-367.9749 1716.7772,-361.8728"/>
<polygon fill="#191970" stroke="#191970" points="1717.4096,-365.3184 1726.8233,-360.457 1716.4327,-358.3869 1717.4096,-365.3184"/>
</g>
<!-- Node53&#45;&gt;Node48 -->
<g id="edge95" class="edge">
<title>Node53&#45;&gt;Node48</title>
<path fill="none" stroke="#191970" d="M1497.3525,-459.4369C1547.3322,-449.7522 1624.6498,-434.7703 1677.8742,-424.4569"/>
<polygon fill="#191970" stroke="#191970" points="1678.6995,-427.8622 1687.8511,-422.5237 1677.3678,-420.99 1678.6995,-427.8622"/>
</g>
<!-- Node54&#45;&gt;Node5 -->
<g id="edge104" class="edge">
<title>Node54&#45;&gt;Node5</title>
<path fill="none" stroke="#191970" d="M1671.4524,-571.4563C1730.2056,-557.8394 1832.7727,-528.8047 1908,-479 1969.6256,-438.2004 2021,-430.9075 2021,-357 2021,-357 2021,-357 2021,-178 2021,-102.2302 1750.3324,-75.2618 1655.4164,-68.134"/>
<polygon fill="#191970" stroke="#191970" points="1655.4781,-64.6294 1645.251,-67.3967 1654.9716,-71.6111 1655.4781,-64.6294"/>
</g>
<!-- Node54&#45;&gt;Node38 -->
<g id="edge101" class="edge">
<title>Node54&#45;&gt;Node38</title>
<path fill="none" stroke="#191970" d="M1575.1319,-576.4677C1457.2208,-565.7536 1151.9971,-538.0338 897,-515 808.1137,-506.9709 575.8955,-520.722 497,-479 462.0969,-460.5423 425.4103,-433.068 451,-403 457.5775,-395.2714 570.301,-378.8118 651.7233,-367.8246"/>
<polygon fill="#191970" stroke="#191970" points="652.543,-371.2461 661.9881,-366.446 651.6111,-364.3084 652.543,-371.2461"/>
</g>
<!-- Node54&#45;&gt;Node41 -->
<g id="edge106" class="edge">
<title>Node54&#45;&gt;Node41</title>
<path fill="none" stroke="#191970" d="M1576.4197,-571.4535C1520.5822,-558.4679 1428.6039,-530.6948 1366,-479 1332.6023,-451.422 1334.8841,-434.3511 1305,-403 1294.9945,-392.5033 1282.9082,-381.7127 1272.9069,-373.223"/>
<polygon fill="#191970" stroke="#191970" points="1275.0057,-370.4157 1265.0876,-366.6897 1270.5174,-375.7874 1275.0057,-370.4157"/>
</g>
<!-- Node54&#45;&gt;Node42 -->
<g id="edge102" class="edge">
<title>Node54&#45;&gt;Node42</title>
<path fill="none" stroke="#191970" d="M1575.367,-577.5812C1440.7328,-568.3075 1067.3757,-542.5905 897.7884,-530.9092"/>
<polygon fill="#191970" stroke="#191970" points="897.8709,-527.4066 887.654,-530.2111 897.3898,-534.3901 897.8709,-527.4066"/>
</g>
<!-- Node54&#45;&gt;Node44 -->
<g id="edge103" class="edge">
<title>Node54&#45;&gt;Node44</title>
<path fill="none" stroke="#191970" d="M1624.2412,-571.3093C1622.5033,-542.4138 1621.1504,-455.5993 1662,-403 1675.7282,-385.3231 1698.0105,-374.007 1717.4355,-367.0232"/>
<polygon fill="#191970" stroke="#191970" points="1718.5993,-370.3247 1726.9814,-363.8447 1716.3878,-363.6832 1718.5993,-370.3247"/>
</g>
<!-- Node54&#45;&gt;Node48 -->
<g id="edge100" class="edge">
<title>Node54&#45;&gt;Node48</title>
<path fill="none" stroke="#191970" d="M1631.945,-571.1833C1638.4803,-561.9065 1648.5048,-547.5759 1657,-535 1681.7823,-498.3132 1710.0192,-454.8475 1725.4392,-430.9642"/>
<polygon fill="#191970" stroke="#191970" points="1728.387,-432.8511 1730.8643,-422.55 1722.5038,-429.0579 1728.387,-432.8511"/>
</g>
<!-- Node54&#45;&gt;Node50 -->
<g id="edge105" class="edge">
<title>Node54&#45;&gt;Node50</title>
<path fill="none" stroke="#191970" d="M1674.6294,-573.3338C1735.2807,-561.8358 1838.4039,-535.172 1908,-479 1930.8392,-460.5662 1934.4823,-451.087 1943,-423 1947.5744,-407.9159 1947.8119,-389.9953 1947.0516,-376.6368"/>
<polygon fill="#191970" stroke="#191970" points="1950.5391,-376.3396 1946.2515,-366.6511 1943.5614,-376.8987 1950.5391,-376.3396"/>
</g>
<!-- Node55&#45;&gt;Node5 -->
<g id="edge113" class="edge">
<title>Node55&#45;&gt;Node5</title>
<path fill="none" stroke="#191970" d="M1529.7713,-515.404C1532.0753,-492.8626 1540.8248,-435.9552 1572,-403 1579.0795,-395.5162 1725.788,-318.3562 1733,-311 1760.2903,-283.164 1775,-272.9821 1775,-234 1775,-234 1775,-234 1775,-178 1775,-118.8522 1699.4821,-87.4415 1654.9054,-74.0527"/>
<polygon fill="#191970" stroke="#191970" points="1655.6792,-70.6337 1645.1021,-71.2474 1653.7533,-77.3635 1655.6792,-70.6337"/>
</g>
<!-- Node55&#45;&gt;Node38 -->
<g id="edge110" class="edge">
<title>Node55&#45;&gt;Node38</title>
<path fill="none" stroke="#191970" d="M1480.8236,-522.2532C1328.823,-513.5471 865.4352,-486.6881 798,-479 646.71,-461.7519 558.4793,-539.1379 460,-423 454.2512,-416.2204 454.2564,-409.7841 460,-403 466.3552,-395.4935 575.5102,-378.974 654.3568,-367.9134"/>
<polygon fill="#191970" stroke="#191970" points="654.877,-371.3748 664.2968,-366.5254 653.9089,-364.4421 654.877,-371.3748"/>
</g>
<!-- Node55&#45;&gt;Node39 -->
<g id="edge111" class="edge">
<title>Node55&#45;&gt;Node39</title>
<path fill="none" stroke="#191970" d="M1486.3703,-515.4509C1395.0427,-494.9936 1180.7497,-446.9919 1081.3471,-424.7258"/>
<polygon fill="#191970" stroke="#191970" points="1082.0451,-421.2954 1071.5218,-422.5249 1080.5149,-428.1262 1082.0451,-421.2954"/>
</g>
<!-- Node55&#45;&gt;Node41 -->
<g id="edge115" class="edge">
<title>Node55&#45;&gt;Node41</title>
<path fill="none" stroke="#191970" d="M1480.9842,-518.6536C1451.0047,-512.6396 1413.0946,-501.0707 1386,-479 1355.9101,-454.4894 1371.0178,-429.8547 1343,-403 1326.8926,-387.5613 1304.5838,-376.1111 1286.2072,-368.4959"/>
<polygon fill="#191970" stroke="#191970" points="1287.3257,-365.1747 1276.739,-364.7607 1284.7569,-371.6863 1287.3257,-365.1747"/>
</g>
<!-- Node55&#45;&gt;Node44 -->
<g id="edge112" class="edge">
<title>Node55&#45;&gt;Node44</title>
<path fill="none" stroke="#191970" d="M1532.7056,-515.3925C1542.9019,-489.4103 1571.8844,-418.6566 1591,-403 1600.8388,-394.9415 1671.2027,-377.1132 1716.8112,-366.1699"/>
<polygon fill="#191970" stroke="#191970" points="1717.7824,-369.5366 1726.6977,-363.8123 1716.1586,-362.7275 1717.7824,-369.5366"/>
</g>
<!-- Node55&#45;&gt;Node48 -->
<g id="edge108" class="edge">
<title>Node55&#45;&gt;Node48</title>
<path fill="none" stroke="#191970" d="M1546.734,-515.4509C1583.2679,-495.7788 1667.104,-450.6363 1710.2563,-427.4005"/>
<polygon fill="#191970" stroke="#191970" points="1712.1656,-430.3476 1719.3109,-422.5249 1708.8468,-424.1843 1712.1656,-430.3476"/>
</g>
<!-- Node55&#45;&gt;Node50 -->
<g id="edge114" class="edge">
<title>Node55&#45;&gt;Node50</title>
<path fill="none" stroke="#191970" d="M1577.0587,-521.2856C1668.2314,-513.8761 1859.4337,-496.4642 1884,-479 1918.6053,-454.3991 1934.6593,-404.4134 1941.1729,-376.6684"/>
<polygon fill="#191970" stroke="#191970" points="1944.6592,-377.1046 1943.3455,-366.5915 1937.8165,-375.6292 1944.6592,-377.1046"/>
</g>
<!-- Node55&#45;&gt;Node53 -->
<g id="edge109" class="edge">
<title>Node55&#45;&gt;Node53</title>
<path fill="none" stroke="#191970" d="M1514.8909,-515.2455C1502.5791,-506.7337 1484.5042,-494.2375 1470.2462,-484.3801"/>
<polygon fill="#191970" stroke="#191970" points="1472.1634,-481.4506 1461.9474,-478.6427 1468.1826,-487.2085 1472.1634,-481.4506"/>
</g>
<!-- Node56&#45;&gt;Node5 -->
<g id="edge125" class="edge">
<title>Node56&#45;&gt;Node5</title>
<path fill="none" stroke="#191970" d="M2305.7753,-403.3119C2301.3789,-383.2912 2292,-335.8516 2292,-295.5 2292,-295.5 2292,-295.5 2292,-178 2292,-112.6454 1788.9556,-76.4175 1655.2884,-67.9448"/>
<polygon fill="#191970" stroke="#191970" points="1655.4578,-64.4486 1645.2588,-67.3174 1655.0208,-71.4349 1655.4578,-64.4486"/>
</g>
<!-- Node56&#45;&gt;Node44 -->
<g id="edge124" class="edge">
<title>Node56&#45;&gt;Node44</title>
<path fill="none" stroke="#191970" d="M2247.3473,-406.8468C2133.4293,-395.2899 1890.4083,-370.6356 1795.31,-360.988"/>
<polygon fill="#191970" stroke="#191970" points="1795.5555,-357.495 1785.2533,-359.9677 1794.8489,-364.4593 1795.5555,-357.495"/>
</g>
<!-- Node56&#45;&gt;Node49 -->
<g id="edge123" class="edge">
<title>Node56&#45;&gt;Node49</title>
<path fill="none" stroke="#191970" d="M2289.0136,-403.2455C2271.8208,-394.4125 2246.2762,-381.2887 2226.7868,-371.2758"/>
<polygon fill="#191970" stroke="#191970" points="2228.263,-368.0993 2217.7688,-366.6427 2225.0641,-374.3257 2228.263,-368.0993"/>
</g>
<!-- Node56&#45;&gt;Node50 -->
<g id="edge126" class="edge">
<title>Node56&#45;&gt;Node50</title>
<path fill="none" stroke="#191970" d="M2247.242,-403.6269C2178.7067,-393.0539 2068.1351,-375.9961 2001.4317,-365.7057"/>
<polygon fill="#191970" stroke="#191970" points="2001.9343,-362.2419 1991.5176,-364.1763 2000.867,-369.1601 2001.9343,-362.2419"/>
</g>
</g>
</svg>
