<?xml version="1.0" encoding="UTF-8" standalone="no"?>
<!DOCTYPE svg PUBLIC "-//W3C//DTD SVG 1.1//EN"
 "http://www.w3.org/Graphics/SVG/1.1/DTD/svg11.dtd">
<!-- Generated by graphviz version 2.40.1 (20161225.0304)
 -->
<!-- Title: Model.h Pages: 1 -->
<svg width="1498pt" height="677pt"
 viewBox="0.00 0.00 1497.50 677.00" xmlns="http://www.w3.org/2000/svg" xmlns:xlink="http://www.w3.org/1999/xlink">
<g id="graph0" class="graph" transform="scale(1 1) rotate(0) translate(4 673)">
<title>Model.h</title>
<!-- Node0 -->
<g id="node1" class="node">
<title>Node0</title>
<polygon fill="#bfbfbf" stroke="#000000" points="1188.5,-649.5 1188.5,-668.5 1243.5,-668.5 1243.5,-649.5 1188.5,-649.5"/>
<text text-anchor="middle" x="1216" y="-656.5" font-family="FreeSans.ttf" font-size="10.00" fill="#000000">Model.h</text>
</g>
<!-- Node1 -->
<g id="node2" class="node">
<title>Node1</title>
<g id="a_node2"><a xlink:href="IJoint_8h.html" target="_top" xlink:title="iDynTree/Model/IJoint.h">
<polygon fill="none" stroke="#000000" points="1060,-593.5 1060,-612.5 1188,-612.5 1188,-593.5 1060,-593.5"/>
<text text-anchor="middle" x="1124" y="-600.5" font-family="FreeSans.ttf" font-size="10.00" fill="#000000">iDynTree/Model/IJoint.h</text>
</a>
</g>
</g>
<!-- Node0&#45;&gt;Node1 -->
<g id="edge1" class="edge">
<title>Node0&#45;&gt;Node1</title>
<path fill="none" stroke="#191970" d="M1199.9748,-649.2455C1185.8592,-640.6534 1165.0737,-628.0014 1148.8101,-618.1018"/>
<polygon fill="#191970" stroke="#191970" points="1150.2034,-614.8525 1139.8415,-612.6427 1146.5637,-620.8319 1150.2034,-614.8525"/>
</g>
<!-- Node2 -->
<g id="node3" class="node">
<title>Node2</title>
<g id="a_node3"><a xlink:href="Indices_8h.html" target="_top" xlink:title="iDynTree/Model/Indices.h">
<polygon fill="none" stroke="#000000" points="1066,-537.5 1066,-556.5 1204,-556.5 1204,-537.5 1066,-537.5"/>
<text text-anchor="middle" x="1135" y="-544.5" font-family="FreeSans.ttf" font-size="10.00" fill="#000000">iDynTree/Model/Indices.h</text>
</a>
</g>
</g>
<!-- Node0&#45;&gt;Node2 -->
<g id="edge70" class="edge">
<title>Node0&#45;&gt;Node2</title>
<path fill="none" stroke="#191970" d="M1215.152,-649.2096C1213.5566,-635.5359 1209.0957,-610.4401 1197,-593 1188.2349,-580.3622 1174.8705,-569.8116 1162.7911,-562.0163"/>
<polygon fill="#191970" stroke="#191970" points="1164.2632,-558.8149 1153.9018,-556.6033 1160.6225,-564.7937 1164.2632,-558.8149"/>
</g>
<!-- Node4 -->
<g id="node5" class="node">
<title>Node4</title>
<g id="a_node5"><a xlink:href="Link_8h.html" target="_top" xlink:title="iDynTree/Model/Link.h">
<polygon fill="none" stroke="#000000" points="880,-593.5 880,-612.5 1004,-612.5 1004,-593.5 880,-593.5"/>
<text text-anchor="middle" x="942" y="-600.5" font-family="FreeSans.ttf" font-size="10.00" fill="#000000">iDynTree/Model/Link.h</text>
</a>
</g>
</g>
<!-- Node0&#45;&gt;Node4 -->
<g id="edge4" class="edge">
<title>Node0&#45;&gt;Node4</title>
<path fill="none" stroke="#191970" d="M1188.4733,-653.3741C1144.3058,-644.3472 1056.698,-626.4419 998.7231,-614.5931"/>
<polygon fill="#191970" stroke="#191970" points="999.1151,-611.1009 988.6168,-612.5275 997.7134,-617.9591 999.1151,-611.1009"/>
</g>
<!-- Node36 -->
<g id="node37" class="node">
<title>Node36</title>
<g id="a_node37"><a xlink:href="Transform_8h.html" target="_top" xlink:title="iDynTree/Core/Transform.h">
<polygon fill="none" stroke="#000000" points="1011,-347.5 1011,-366.5 1157,-366.5 1157,-347.5 1011,-347.5"/>
<text text-anchor="middle" x="1084" y="-354.5" font-family="FreeSans.ttf" font-size="10.00" fill="#000000">iDynTree/Core/Transform.h</text>
</a>
</g>
</g>
<!-- Node0&#45;&gt;Node36 -->
<g id="edge65" class="edge">
<title>Node0&#45;&gt;Node36</title>
<path fill="none" stroke="#191970" d="M1188.4563,-654.6442C1146.7503,-647.5165 1070.3743,-632.2119 1051,-613 1029.3252,-591.5068 1032,-577.5246 1032,-547 1032,-547 1032,-547 1032,-485.5 1032,-443.6451 1055.999,-399.3534 1071.3894,-375.2527"/>
<polygon fill="#191970" stroke="#191970" points="1074.3976,-377.0488 1076.987,-366.7753 1068.5561,-373.1917 1074.3976,-377.0488"/>
</g>
<!-- Node37 -->
<g id="node38" class="node">
<title>Node37</title>
<g id="a_node38"><a xlink:href="SolidShapes_8h.html" target="_top" xlink:title="iDynTree/Model/SolidShapes.h">
<polygon fill="none" stroke="#000000" points="1244.5,-593.5 1244.5,-612.5 1407.5,-612.5 1407.5,-593.5 1244.5,-593.5"/>
<text text-anchor="middle" x="1326" y="-600.5" font-family="FreeSans.ttf" font-size="10.00" fill="#000000">iDynTree/Model/SolidShapes.h</text>
</a>
</g>
</g>
<!-- Node0&#45;&gt;Node37 -->
<g id="edge71" class="edge">
<title>Node0&#45;&gt;Node37</title>
<path fill="none" stroke="#191970" d="M1235.1605,-649.2455C1252.5111,-640.4125 1278.2901,-627.2887 1297.9583,-617.2758"/>
<polygon fill="#191970" stroke="#191970" points="1299.7353,-620.2986 1307.059,-612.6427 1296.5595,-614.0605 1299.7353,-620.2986"/>
</g>
<!-- Node38 -->
<g id="node39" class="node">
<title>Node38</title>
<polygon fill="none" stroke="#bfbfbf" points="1368.5,-537.5 1368.5,-556.5 1417.5,-556.5 1417.5,-537.5 1368.5,-537.5"/>
<text text-anchor="middle" x="1393" y="-544.5" font-family="FreeSans.ttf" font-size="10.00" fill="#000000">cstdlib</text>
</g>
<!-- Node0&#45;&gt;Node38 -->
<g id="edge76" class="edge">
<title>Node0&#45;&gt;Node38</title>
<path fill="none" stroke="#191970" d="M1243.7806,-656.8159C1293.7605,-652.2475 1395.6367,-639.8047 1417,-613 1428.2015,-598.9454 1418.546,-579.1938 1408.3387,-564.9657"/>
<polygon fill="#191970" stroke="#191970" points="1410.9904,-562.6738 1402.0935,-556.9209 1405.461,-566.9663 1410.9904,-562.6738"/>
</g>
<!-- Node39 -->
<g id="node40" class="node">
<title>Node39</title>
<polygon fill="none" stroke="#bfbfbf" points="1442.5,-537.5 1442.5,-556.5 1489.5,-556.5 1489.5,-537.5 1442.5,-537.5"/>
<text text-anchor="middle" x="1466" y="-544.5" font-family="FreeSans.ttf" font-size="10.00" fill="#000000">vector</text>
</g>
<!-- Node0&#45;&gt;Node39 -->
<g id="edge77" class="edge">
<title>Node0&#45;&gt;Node39</title>
<path fill="none" stroke="#191970" d="M1243.6154,-656.1428C1295.1907,-650.3312 1403.5965,-635.727 1433,-613 1447.8445,-601.5262 1456.5046,-581.5799 1461.198,-566.6102"/>
<polygon fill="#191970" stroke="#191970" points="1464.624,-567.355 1463.9462,-556.7818 1457.8826,-565.4699 1464.624,-567.355"/>
</g>
<!-- Node1&#45;&gt;Node2 -->
<g id="edge2" class="edge">
<title>Node1&#45;&gt;Node2</title>
<path fill="none" stroke="#191970" d="M1125.9161,-593.2455C1127.3514,-585.9382 1129.3636,-575.6944 1131.1295,-566.7046"/>
<polygon fill="#191970" stroke="#191970" points="1134.6127,-567.1298 1133.1059,-556.6427 1127.744,-565.7805 1134.6127,-567.1298"/>
</g>
<!-- Node3 -->
<g id="node4" class="node">
<title>Node3</title>
<polygon fill="none" stroke="#bfbfbf" points="1152,-56.5 1152,-75.5 1196,-75.5 1196,-56.5 1152,-56.5"/>
<text text-anchor="middle" x="1174" y="-63.5" font-family="FreeSans.ttf" font-size="10.00" fill="#000000">string</text>
</g>
<!-- Node2&#45;&gt;Node3 -->
<g id="edge3" class="edge">
<title>Node2&#45;&gt;Node3</title>
<path fill="none" stroke="#191970" d="M1164.4999,-537.3701C1208.96,-520.7854 1288,-482.326 1288,-418.5 1288,-418.5 1288,-418.5 1288,-178 1288,-131.4628 1239.0617,-97.828 1205.3136,-80.1659"/>
<polygon fill="#191970" stroke="#191970" points="1206.7576,-76.9746 1196.251,-75.6105 1203.6138,-83.2289 1206.7576,-76.9746"/>
</g>
<!-- Node4&#45;&gt;Node2 -->
<g id="edge64" class="edge">
<title>Node4&#45;&gt;Node2</title>
<path fill="none" stroke="#191970" d="M975.1779,-593.3733C1007.5487,-583.9807 1056.9398,-569.6496 1092.2424,-559.4064"/>
<polygon fill="#191970" stroke="#191970" points="1093.6265,-562.6492 1102.2551,-556.5011 1091.6758,-555.9264 1093.6265,-562.6492"/>
</g>
<!-- Node5 -->
<g id="node6" class="node">
<title>Node5</title>
<g id="a_node6"><a xlink:href="SpatialInertia_8h.html" target="_top" xlink:title="iDynTree/Core/SpatialInertia.h">
<polygon fill="none" stroke="#000000" points="502,-537.5 502,-556.5 664,-556.5 664,-537.5 502,-537.5"/>
<text text-anchor="middle" x="583" y="-544.5" font-family="FreeSans.ttf" font-size="10.00" fill="#000000">iDynTree/Core/SpatialInertia.h</text>
</a>
</g>
</g>
<!-- Node4&#45;&gt;Node5 -->
<g id="edge5" class="edge">
<title>Node4&#45;&gt;Node5</title>
<path fill="none" stroke="#191970" d="M880.6936,-593.4369C817.8337,-583.6314 720.1617,-568.3957 653.9868,-558.0731"/>
<polygon fill="#191970" stroke="#191970" points="654.4735,-554.6068 644.0535,-556.5237 653.3946,-561.5232 654.4735,-554.6068"/>
</g>
<!-- Node6 -->
<g id="node7" class="node">
<title>Node6</title>
<g id="a_node7"><a xlink:href="SpatialInertiaRaw_8h.html" target="_top" xlink:title="iDynTree/Core/SpatialInertia\lRaw.h">
<polygon fill="none" stroke="#000000" points="700.5,-470.5 700.5,-500.5 853.5,-500.5 853.5,-470.5 700.5,-470.5"/>
<text text-anchor="start" x="708.5" y="-488.5" font-family="FreeSans.ttf" font-size="10.00" fill="#000000">iDynTree/Core/SpatialInertia</text>
<text text-anchor="middle" x="777" y="-477.5" font-family="FreeSans.ttf" font-size="10.00" fill="#000000">Raw.h</text>
</a>
</g>
</g>
<!-- Node5&#45;&gt;Node6 -->
<g id="edge6" class="edge">
<title>Node5&#45;&gt;Node6</title>
<path fill="none" stroke="#191970" d="M613.3125,-537.3906C641.756,-528.3737 685.0271,-514.6563 719.9369,-503.5896"/>
<polygon fill="#191970" stroke="#191970" points="721.0675,-506.9029 729.5423,-500.5446 718.9521,-500.2302 721.0675,-506.9029"/>
</g>
<!-- Node15 -->
<g id="node16" class="node">
<title>Node15</title>
<g id="a_node16"><a xlink:href="VectorFixSize_8h.html" target="_top" xlink:title="iDynTree/Core/VectorFixSize.h">
<polygon fill="none" stroke="#000000" points="448.5,-112.5 448.5,-131.5 609.5,-131.5 609.5,-112.5 448.5,-112.5"/>
<text text-anchor="middle" x="529" y="-119.5" font-family="FreeSans.ttf" font-size="10.00" fill="#000000">iDynTree/Core/VectorFixSize.h</text>
</a>
</g>
</g>
<!-- Node5&#45;&gt;Node15 -->
<g id="edge16" class="edge">
<title>Node5&#45;&gt;Node15</title>
<path fill="none" stroke="#191970" d="M606.2652,-537.3548C621.8106,-529.7278 641.4555,-517.5922 653,-501 674.4898,-470.114 672,-456.1265 672,-418.5 672,-418.5 672,-418.5 672,-234 672,-182.3635 613.495,-150.9614 571.3281,-135.0344"/>
<polygon fill="#191970" stroke="#191970" points="572.4014,-131.7008 561.8071,-131.592 570.0212,-138.2837 572.4014,-131.7008"/>
</g>
<!-- Node24 -->
<g id="node25" class="node">
<title>Node24</title>
<g id="a_node25"><a xlink:href="Twist_8h.html" target="_top" xlink:title="iDynTree/Core/Twist.h">
<polygon fill="none" stroke="#000000" points="522,-476 522,-495 644,-495 644,-476 522,-476"/>
<text text-anchor="middle" x="583" y="-483" font-family="FreeSans.ttf" font-size="10.00" fill="#000000">iDynTree/Core/Twist.h</text>
</a>
</g>
</g>
<!-- Node5&#45;&gt;Node24 -->
<g id="edge32" class="edge">
<title>Node5&#45;&gt;Node24</title>
<path fill="none" stroke="#191970" d="M583,-537.3906C583,-528.8657 583,-516.1392 583,-505.4235"/>
<polygon fill="#191970" stroke="#191970" points="586.5001,-505.2448 583,-495.2449 579.5001,-505.2449 586.5001,-505.2448"/>
</g>
<!-- Node32 -->
<g id="node33" class="node">
<title>Node32</title>
<g id="a_node33"><a xlink:href="SpatialMomentum_8h.html" target="_top" xlink:title="iDynTree/Core/SpatialMomentum.h">
<polygon fill="none" stroke="#000000" points="0,-476 0,-495 186,-495 186,-476 0,-476"/>
<text text-anchor="middle" x="93" y="-483" font-family="FreeSans.ttf" font-size="10.00" fill="#000000">iDynTree/Core/SpatialMomentum.h</text>
</a>
</g>
</g>
<!-- Node5&#45;&gt;Node32 -->
<g id="edge55" class="edge">
<title>Node5&#45;&gt;Node32</title>
<path fill="none" stroke="#191970" d="M501.9008,-538.1688C423.3359,-529.4285 300.8732,-515.3164 195,-501 184.7771,-499.6176 173.9913,-498.0728 163.4134,-496.5084"/>
<polygon fill="#191970" stroke="#191970" points="163.7678,-493.0226 153.3606,-495.0074 162.734,-499.9459 163.7678,-493.0226"/>
</g>
<!-- Node34 -->
<g id="node35" class="node">
<title>Node34</title>
<g id="a_node35"><a xlink:href="SpatialAcc_8h.html" target="_top" xlink:title="iDynTree/Core/SpatialAcc.h">
<polygon fill="none" stroke="#000000" points="356,-476 356,-495 504,-495 504,-476 356,-476"/>
<text text-anchor="middle" x="430" y="-483" font-family="FreeSans.ttf" font-size="10.00" fill="#000000">iDynTree/Core/SpatialAcc.h</text>
</a>
</g>
</g>
<!-- Node5&#45;&gt;Node34 -->
<g id="edge60" class="edge">
<title>Node5&#45;&gt;Node34</title>
<path fill="none" stroke="#191970" d="M559.0938,-537.3906C533.2695,-527.0103 491.9473,-510.4004 463.0295,-498.7766"/>
<polygon fill="#191970" stroke="#191970" points="464.3222,-495.5241 453.7384,-495.0419 461.7115,-502.019 464.3222,-495.5241"/>
</g>
<!-- Node35 -->
<g id="node36" class="node">
<title>Node35</title>
<g id="a_node36"><a xlink:href="Wrench_8h.html" target="_top" xlink:title="iDynTree/Core/Wrench.h">
<polygon fill="none" stroke="#000000" points="204.5,-476 204.5,-495 337.5,-495 337.5,-476 204.5,-476"/>
<text text-anchor="middle" x="271" y="-483" font-family="FreeSans.ttf" font-size="10.00" fill="#000000">iDynTree/Core/Wrench.h</text>
</a>
</g>
</g>
<!-- Node5&#45;&gt;Node35 -->
<g id="edge62" class="edge">
<title>Node5&#45;&gt;Node35</title>
<path fill="none" stroke="#191970" d="M533.251,-537.4333C485.4727,-528.2147 411.2713,-513.8175 347,-501 340.7602,-499.7556 334.2347,-498.4425 327.7415,-497.1285"/>
<polygon fill="#191970" stroke="#191970" points="328.1067,-493.6314 317.6104,-495.0727 326.7146,-500.4916 328.1067,-493.6314"/>
</g>
<!-- Node7 -->
<g id="node8" class="node">
<title>Node7</title>
<g id="a_node8"><a xlink:href="RotationalInertiaRaw_8h.html" target="_top" xlink:title="iDynTree/Core/Rotational\lInertiaRaw.h">
<polygon fill="none" stroke="#000000" points="704.5,-280.5 704.5,-310.5 841.5,-310.5 841.5,-280.5 704.5,-280.5"/>
<text text-anchor="start" x="712.5" y="-298.5" font-family="FreeSans.ttf" font-size="10.00" fill="#000000">iDynTree/Core/Rotational</text>
<text text-anchor="middle" x="773" y="-287.5" font-family="FreeSans.ttf" font-size="10.00" fill="#000000">InertiaRaw.h</text>
</a>
</g>
</g>
<!-- Node6&#45;&gt;Node7 -->
<g id="edge7" class="edge">
<title>Node6&#45;&gt;Node7</title>
<path fill="none" stroke="#191970" d="M776.6794,-470.2727C775.9917,-437.6039 774.3688,-360.5184 773.5271,-320.5352"/>
<polygon fill="#191970" stroke="#191970" points="777.0264,-320.4602 773.3165,-310.5361 770.0279,-320.6076 777.0264,-320.4602"/>
</g>
<!-- Node8 -->
<g id="node9" class="node">
<title>Node8</title>
<g id="a_node9"><a xlink:href="MatrixFixSize_8h.html" target="_top" xlink:title="iDynTree/Core/MatrixFixSize.h">
<polygon fill="none" stroke="#000000" points="667.5,-112.5 667.5,-131.5 828.5,-131.5 828.5,-112.5 667.5,-112.5"/>
<text text-anchor="middle" x="748" y="-119.5" font-family="FreeSans.ttf" font-size="10.00" fill="#000000">iDynTree/Core/MatrixFixSize.h</text>
</a>
</g>
</g>
<!-- Node7&#45;&gt;Node8 -->
<g id="edge8" class="edge">
<title>Node7&#45;&gt;Node8</title>
<path fill="none" stroke="#191970" d="M770.8251,-280.4065C766.3015,-249.0126 755.8813,-176.6961 750.8375,-141.6925"/>
<polygon fill="#191970" stroke="#191970" points="754.2937,-141.1366 749.4032,-131.738 747.3652,-142.135 754.2937,-141.1366"/>
</g>
<!-- Node8&#45;&gt;Node3 -->
<g id="edge13" class="edge">
<title>Node8&#45;&gt;Node3</title>
<path fill="none" stroke="#191970" d="M820.748,-112.4369C914.5853,-100.1015 1073.7987,-79.172 1141.7314,-70.2419"/>
<polygon fill="#191970" stroke="#191970" points="1142.3679,-73.6884 1151.8265,-68.9148 1141.4555,-66.7481 1142.3679,-73.6884"/>
</g>
<!-- Node9 -->
<g id="node10" class="node">
<title>Node9</title>
<g id="a_node10"><a xlink:href="Utils_8h.html" target="_top" xlink:title="iDynTree/Core/Utils.h">
<polygon fill="none" stroke="#000000" points="241.5,-56.5 241.5,-75.5 360.5,-75.5 360.5,-56.5 241.5,-56.5"/>
<text text-anchor="middle" x="301" y="-63.5" font-family="FreeSans.ttf" font-size="10.00" fill="#000000">iDynTree/Core/Utils.h</text>
</a>
</g>
</g>
<!-- Node8&#45;&gt;Node9 -->
<g id="edge9" class="edge">
<title>Node8&#45;&gt;Node9</title>
<path fill="none" stroke="#191970" d="M667.1898,-112.7069C592.9265,-104.0425 479.5095,-90.4983 370.9766,-76.1062"/>
<polygon fill="#191970" stroke="#191970" points="371.2018,-72.6054 360.8275,-74.7559 370.2785,-79.5442 371.2018,-72.6054"/>
</g>
<!-- Node11 -->
<g id="node12" class="node">
<title>Node11</title>
<polygon fill="none" stroke="#bfbfbf" points="728,-.5 728,-19.5 780,-19.5 780,-.5 728,-.5"/>
<text text-anchor="middle" x="754" y="-7.5" font-family="FreeSans.ttf" font-size="10.00" fill="#000000">cassert</text>
</g>
<!-- Node8&#45;&gt;Node11 -->
<g id="edge11" class="edge">
<title>Node8&#45;&gt;Node11</title>
<path fill="none" stroke="#191970" d="M753.6945,-112.1646C758.5863,-103.1092 765.2692,-89.1298 768,-76 771.2748,-60.255 767.01,-42.4147 762.351,-29.2554"/>
<polygon fill="#191970" stroke="#191970" points="765.5685,-27.873 758.6664,-19.8349 759.0494,-30.4228 765.5685,-27.873"/>
</g>
<!-- Node12 -->
<g id="node13" class="node">
<title>Node12</title>
<polygon fill="none" stroke="#bfbfbf" points="631,-56.5 631,-75.5 681,-75.5 681,-56.5 631,-56.5"/>
<text text-anchor="middle" x="656" y="-63.5" font-family="FreeSans.ttf" font-size="10.00" fill="#000000">cstring</text>
</g>
<!-- Node8&#45;&gt;Node12 -->
<g id="edge12" class="edge">
<title>Node8&#45;&gt;Node12</title>
<path fill="none" stroke="#191970" d="M731.9748,-112.2455C717.8592,-103.6534 697.0737,-91.0014 680.8101,-81.1018"/>
<polygon fill="#191970" stroke="#191970" points="682.2034,-77.8525 671.8415,-75.6427 678.5637,-83.8319 682.2034,-77.8525"/>
</g>
<!-- Node13 -->
<g id="node14" class="node">
<title>Node13</title>
<polygon fill="none" stroke="#bfbfbf" points="699,-56.5 699,-75.5 759,-75.5 759,-56.5 699,-56.5"/>
<text text-anchor="middle" x="729" y="-63.5" font-family="FreeSans.ttf" font-size="10.00" fill="#000000">iostream</text>
</g>
<!-- Node8&#45;&gt;Node13 -->
<g id="edge14" class="edge">
<title>Node8&#45;&gt;Node13</title>
<path fill="none" stroke="#191970" d="M744.6905,-112.2455C742.1567,-104.7776 738.5823,-94.2427 735.485,-85.1137"/>
<polygon fill="#191970" stroke="#191970" points="738.7991,-83.9879 732.2716,-75.6427 732.1702,-86.237 738.7991,-83.9879"/>
</g>
<!-- Node14 -->
<g id="node15" class="node">
<title>Node14</title>
<polygon fill="none" stroke="#bfbfbf" points="557,-56.5 557,-75.5 613,-75.5 613,-56.5 557,-56.5"/>
<text text-anchor="middle" x="585" y="-63.5" font-family="FreeSans.ttf" font-size="10.00" fill="#000000">sstream</text>
</g>
<!-- Node8&#45;&gt;Node14 -->
<g id="edge15" class="edge">
<title>Node8&#45;&gt;Node14</title>
<path fill="none" stroke="#191970" d="M719.9793,-112.3733C692.9922,-103.1016 651.9983,-89.0178 622.2689,-78.804"/>
<polygon fill="#191970" stroke="#191970" points="623.2497,-75.4403 612.6551,-75.5011 620.9752,-82.0605 623.2497,-75.4403"/>
</g>
<!-- Node10 -->
<g id="node11" class="node">
<title>Node10</title>
<polygon fill="none" stroke="#bfbfbf" points="146.5,-.5 146.5,-19.5 199.5,-19.5 199.5,-.5 146.5,-.5"/>
<text text-anchor="middle" x="173" y="-7.5" font-family="FreeSans.ttf" font-size="10.00" fill="#000000">cstddef</text>
</g>
<!-- Node9&#45;&gt;Node10 -->
<g id="edge10" class="edge">
<title>Node9&#45;&gt;Node10</title>
<path fill="none" stroke="#191970" d="M278.996,-56.3733C258.3565,-47.3435 227.2842,-33.7494 204.1111,-23.6111"/>
<polygon fill="#191970" stroke="#191970" points="205.2813,-20.3028 194.7169,-19.5011 202.4755,-26.7159 205.2813,-20.3028"/>
</g>
<!-- Node15&#45;&gt;Node3 -->
<g id="edge28" class="edge">
<title>Node15&#45;&gt;Node3</title>
<path fill="none" stroke="#191970" d="M609.7108,-114.9925C752.7422,-102.5743 1044.7716,-77.2198 1141.8319,-68.7929"/>
<polygon fill="#191970" stroke="#191970" points="1142.2477,-72.2701 1151.9074,-67.9181 1141.6421,-65.2963 1142.2477,-72.2701"/>
</g>
<!-- Node15&#45;&gt;Node9 -->
<g id="edge17" class="edge">
<title>Node15&#45;&gt;Node9</title>
<path fill="none" stroke="#191970" d="M490.0645,-112.4369C451.208,-102.8932 391.407,-88.2052 349.4911,-77.9101"/>
<polygon fill="#191970" stroke="#191970" points="350.3212,-74.51 339.7749,-75.5237 348.6514,-81.308 350.3212,-74.51"/>
</g>
<!-- Node15&#45;&gt;Node11 -->
<g id="edge30" class="edge">
<title>Node15&#45;&gt;Node11</title>
<path fill="none" stroke="#191970" d="M528.8631,-112.3503C529.2135,-97.9066 532.1155,-70.7858 548,-56 604.5308,-3.3795 642.9791,-38.3441 718,-20 718.0985,-19.9759 718.197,-19.9518 718.2958,-19.9275"/>
<polygon fill="#191970" stroke="#191970" points="718.8904,-23.3886 727.7035,-17.5081 717.1469,-16.6092 718.8904,-23.3886"/>
</g>
<!-- Node15&#45;&gt;Node12 -->
<g id="edge31" class="edge">
<title>Node15&#45;&gt;Node12</title>
<path fill="none" stroke="#191970" d="M550.8321,-112.3733C571.3103,-103.3435 602.1399,-89.7494 625.1319,-79.6111"/>
<polygon fill="#191970" stroke="#191970" points="626.715,-82.7383 634.4528,-75.5011 623.8907,-76.3333 626.715,-82.7383"/>
</g>
<!-- Node15&#45;&gt;Node14 -->
<g id="edge29" class="edge">
<title>Node15&#45;&gt;Node14</title>
<path fill="none" stroke="#191970" d="M538.7545,-112.2455C546.8648,-104.1352 558.5925,-92.4075 568.2081,-82.7919"/>
<polygon fill="#191970" stroke="#191970" points="570.7611,-85.1887 575.3573,-75.6427 565.8113,-80.2389 570.7611,-85.1887"/>
</g>
<!-- Node16 -->
<g id="node17" class="node">
<title>Node16</title>
<g id="a_node17"><a xlink:href="Span_8h.html" target="_top" xlink:title="iDynTree/Core/Span.h">
<polygon fill="none" stroke="#000000" points="379.5,-56.5 379.5,-75.5 500.5,-75.5 500.5,-56.5 379.5,-56.5"/>
<text text-anchor="middle" x="440" y="-63.5" font-family="FreeSans.ttf" font-size="10.00" fill="#000000">iDynTree/Core/Span.h</text>
</a>
</g>
</g>
<!-- Node15&#45;&gt;Node16 -->
<g id="edge18" class="edge">
<title>Node15&#45;&gt;Node16</title>
<path fill="none" stroke="#191970" d="M513.4974,-112.2455C499.842,-103.6534 479.7343,-91.0014 464.0011,-81.1018"/>
<polygon fill="#191970" stroke="#191970" points="465.6529,-78.006 455.325,-75.6427 461.9249,-83.9307 465.6529,-78.006"/>
</g>
<!-- Node16&#45;&gt;Node10 -->
<g id="edge22" class="edge">
<title>Node16&#45;&gt;Node10</title>
<path fill="none" stroke="#191970" d="M386.0765,-56.4361C341.305,-48.2291 275.7629,-35.6024 209.464,-19.976"/>
<polygon fill="#191970" stroke="#191970" points="210.2176,-16.5576 199.6791,-17.6488 208.5979,-23.3677 210.2176,-16.5576"/>
</g>
<!-- Node16&#45;&gt;Node11 -->
<g id="edge19" class="edge">
<title>Node16&#45;&gt;Node11</title>
<path fill="none" stroke="#191970" d="M500.5511,-57.8865C557.108,-49.8587 643.7208,-36.4126 718,-20 718.099,-19.9781 718.1981,-19.9562 718.2973,-19.9341"/>
<polygon fill="#191970" stroke="#191970" points="718.842,-23.4035 727.7354,-17.6453 717.1922,-16.6007 718.842,-23.4035"/>
</g>
<!-- Node17 -->
<g id="node18" class="node">
<title>Node17</title>
<polygon fill="none" stroke="#bfbfbf" points="514,-.5 514,-19.5 578,-19.5 578,-.5 514,-.5"/>
<text text-anchor="middle" x="546" y="-7.5" font-family="FreeSans.ttf" font-size="10.00" fill="#000000">algorithm</text>
</g>
<!-- Node16&#45;&gt;Node17 -->
<g id="edge20" class="edge">
<title>Node16&#45;&gt;Node17</title>
<path fill="none" stroke="#191970" d="M458.4638,-56.2455C475.1074,-47.4527 499.7993,-34.4079 518.7192,-24.4125"/>
<polygon fill="#191970" stroke="#191970" points="520.5408,-27.4086 527.7478,-19.6427 517.2709,-21.2193 520.5408,-27.4086"/>
</g>
<!-- Node18 -->
<g id="node19" class="node">
<title>Node18</title>
<polygon fill="none" stroke="#bfbfbf" points="596,-.5 596,-19.5 638,-19.5 638,-.5 596,-.5"/>
<text text-anchor="middle" x="617" y="-7.5" font-family="FreeSans.ttf" font-size="10.00" fill="#000000">array</text>
</g>
<!-- Node16&#45;&gt;Node18 -->
<g id="edge21" class="edge">
<title>Node16&#45;&gt;Node18</title>
<path fill="none" stroke="#191970" d="M471.0251,-56.4738C498.8342,-47.8949 540.9815,-34.7944 586.0527,-20.2702"/>
<polygon fill="#191970" stroke="#191970" points="587.2707,-23.5549 595.7107,-17.1504 585.119,-16.8938 587.2707,-23.5549"/>
</g>
<!-- Node19 -->
<g id="node20" class="node">
<title>Node19</title>
<polygon fill="none" stroke="#bfbfbf" points="656.5,-.5 656.5,-19.5 709.5,-19.5 709.5,-.5 656.5,-.5"/>
<text text-anchor="middle" x="683" y="-7.5" font-family="FreeSans.ttf" font-size="10.00" fill="#000000">iterator</text>
</g>
<!-- Node16&#45;&gt;Node19 -->
<g id="edge23" class="edge">
<title>Node16&#45;&gt;Node19</title>
<path fill="none" stroke="#191970" d="M486.2028,-56.4556C526.1248,-48.046 585.5793,-35.1352 646.515,-20.026"/>
<polygon fill="#191970" stroke="#191970" points="647.45,-23.4001 656.3048,-17.5826 645.7548,-16.6085 647.45,-23.4001"/>
</g>
<!-- Node20 -->
<g id="node21" class="node">
<title>Node20</title>
<polygon fill="none" stroke="#bfbfbf" points="218,-.5 218,-19.5 262,-19.5 262,-.5 218,-.5"/>
<text text-anchor="middle" x="240" y="-7.5" font-family="FreeSans.ttf" font-size="10.00" fill="#000000">limits</text>
</g>
<!-- Node16&#45;&gt;Node20 -->
<g id="edge24" class="edge">
<title>Node16&#45;&gt;Node20</title>
<path fill="none" stroke="#191970" d="M402.9367,-56.4397C370.6818,-48.0023 322.4607,-35.1082 272.0774,-20.2338"/>
<polygon fill="#191970" stroke="#191970" points="272.8953,-16.8257 262.3126,-17.3339 270.9024,-23.536 272.8953,-16.8257"/>
</g>
<!-- Node21 -->
<g id="node22" class="node">
<title>Node21</title>
<polygon fill="none" stroke="#bfbfbf" points="280.5,-.5 280.5,-19.5 345.5,-19.5 345.5,-.5 280.5,-.5"/>
<text text-anchor="middle" x="313" y="-7.5" font-family="FreeSans.ttf" font-size="10.00" fill="#000000">stdexcept</text>
</g>
<!-- Node16&#45;&gt;Node21 -->
<g id="edge25" class="edge">
<title>Node16&#45;&gt;Node21</title>
<path fill="none" stroke="#191970" d="M418.1679,-56.3733C397.6897,-47.3435 366.8601,-33.7494 343.8681,-23.6111"/>
<polygon fill="#191970" stroke="#191970" points="345.1093,-20.3333 334.5472,-19.5011 342.285,-26.7383 345.1093,-20.3333"/>
</g>
<!-- Node22 -->
<g id="node23" class="node">
<title>Node22</title>
<polygon fill="none" stroke="#bfbfbf" points="363.5,-.5 363.5,-19.5 432.5,-19.5 432.5,-.5 363.5,-.5"/>
<text text-anchor="middle" x="398" y="-7.5" font-family="FreeSans.ttf" font-size="10.00" fill="#000000">type_traits</text>
</g>
<!-- Node16&#45;&gt;Node22 -->
<g id="edge26" class="edge">
<title>Node16&#45;&gt;Node22</title>
<path fill="none" stroke="#191970" d="M432.6842,-56.2455C426.7821,-48.3761 418.3258,-37.101 411.2406,-27.6542"/>
<polygon fill="#191970" stroke="#191970" points="414.0321,-25.5427 405.232,-19.6427 408.432,-29.7427 414.0321,-25.5427"/>
</g>
<!-- Node23 -->
<g id="node24" class="node">
<title>Node23</title>
<polygon fill="none" stroke="#bfbfbf" points="450.5,-.5 450.5,-19.5 495.5,-19.5 495.5,-.5 450.5,-.5"/>
<text text-anchor="middle" x="473" y="-7.5" font-family="FreeSans.ttf" font-size="10.00" fill="#000000">utility</text>
</g>
<!-- Node16&#45;&gt;Node23 -->
<g id="edge27" class="edge">
<title>Node16&#45;&gt;Node23</title>
<path fill="none" stroke="#191970" d="M445.7482,-56.2455C450.2435,-48.617 456.6248,-37.7881 462.0825,-28.5267"/>
<polygon fill="#191970" stroke="#191970" points="465.2561,-30.035 467.3177,-19.6427 459.2253,-26.4811 465.2561,-30.035"/>
</g>
<!-- Node25 -->
<g id="node26" class="node">
<title>Node25</title>
<g id="a_node26"><a xlink:href="SpatialMotionVector_8h.html" target="_top" xlink:title="iDynTree/Core/SpatialMotion\lVector.h">
<polygon fill="none" stroke="#000000" points="480.5,-403.5 480.5,-433.5 635.5,-433.5 635.5,-403.5 480.5,-403.5"/>
<text text-anchor="start" x="488.5" y="-421.5" font-family="FreeSans.ttf" font-size="10.00" fill="#000000">iDynTree/Core/SpatialMotion</text>
<text text-anchor="middle" x="558" y="-410.5" font-family="FreeSans.ttf" font-size="10.00" fill="#000000">Vector.h</text>
</a>
</g>
</g>
<!-- Node24&#45;&gt;Node25 -->
<g id="edge33" class="edge">
<title>Node24&#45;&gt;Node25</title>
<path fill="none" stroke="#191970" d="M579.4181,-475.9005C576.2227,-467.3368 571.4049,-454.4252 567.1475,-443.0152"/>
<polygon fill="#191970" stroke="#191970" points="570.3803,-441.6672 563.6051,-433.5218 563.8219,-444.1144 570.3803,-441.6672"/>
</g>
<!-- Node25&#45;&gt;Node15 -->
<g id="edge34" class="edge">
<title>Node25&#45;&gt;Node15</title>
<path fill="none" stroke="#191970" d="M575.2456,-403.2826C597.6688,-381.7209 634,-339.93 634,-295.5 634,-295.5 634,-295.5 634,-234 634,-189.1218 588.5761,-154.8269 557.4816,-136.6081"/>
<polygon fill="#191970" stroke="#191970" points="559.18,-133.5478 548.7497,-131.688 555.7438,-139.6463 559.18,-133.5478"/>
</g>
<!-- Node26 -->
<g id="node27" class="node">
<title>Node26</title>
<g id="a_node27"><a xlink:href="GeomVector3_8h.html" target="_top" xlink:title="iDynTree/Core/GeomVector3.h">
<polygon fill="none" stroke="#000000" points="404.5,-168.5 404.5,-187.5 567.5,-187.5 567.5,-168.5 404.5,-168.5"/>
<text text-anchor="middle" x="486" y="-175.5" font-family="FreeSans.ttf" font-size="10.00" fill="#000000">iDynTree/Core/GeomVector3.h</text>
</a>
</g>
</g>
<!-- Node25&#45;&gt;Node26 -->
<g id="edge35" class="edge">
<title>Node25&#45;&gt;Node26</title>
<path fill="none" stroke="#191970" d="M553.8984,-403.403C549.9323,-388.9099 543.7018,-366.4169 538,-347 521.9843,-292.4605 501.9319,-228.4016 492.0615,-197.1284"/>
<polygon fill="#191970" stroke="#191970" points="495.3702,-195.9828 489.0182,-187.5033 488.6958,-198.0932 495.3702,-195.9828"/>
</g>
<!-- Node27 -->
<g id="node28" class="node">
<title>Node27</title>
<g id="a_node28"><a xlink:href="SpatialVector_8h.html" target="_top" xlink:title="iDynTree/Core/SpatialVector.h">
<polygon fill="none" stroke="#000000" points="368.5,-347.5 368.5,-366.5 529.5,-366.5 529.5,-347.5 368.5,-347.5"/>
<text text-anchor="middle" x="449" y="-354.5" font-family="FreeSans.ttf" font-size="10.00" fill="#000000">iDynTree/Core/SpatialVector.h</text>
</a>
</g>
</g>
<!-- Node25&#45;&gt;Node27 -->
<g id="edge37" class="edge">
<title>Node25&#45;&gt;Node27</title>
<path fill="none" stroke="#191970" d="M531.3356,-403.4554C514.1059,-393.734 491.8025,-381.15 474.7554,-371.5317"/>
<polygon fill="#191970" stroke="#191970" points="476.3204,-368.3961 465.8911,-366.5303 472.8806,-374.4926 476.3204,-368.3961"/>
</g>
<!-- Node26&#45;&gt;Node15 -->
<g id="edge36" class="edge">
<title>Node26&#45;&gt;Node15</title>
<path fill="none" stroke="#191970" d="M493.49,-168.2455C499.5326,-160.3761 508.1903,-149.101 515.4441,-139.6542"/>
<polygon fill="#191970" stroke="#191970" points="518.2815,-141.7058 521.5958,-131.6427 512.7295,-137.4426 518.2815,-141.7058"/>
</g>
<!-- Node27&#45;&gt;Node9 -->
<g id="edge51" class="edge">
<title>Node27&#45;&gt;Node9</title>
<path fill="none" stroke="#191970" d="M436.426,-347.1732C426.069,-338.5494 411.5793,-325.1966 402,-311 350.63,-234.8691 317.961,-128.4955 306.0634,-85.336"/>
<polygon fill="#191970" stroke="#191970" points="309.4115,-84.3086 303.43,-75.5638 302.6526,-86.13 309.4115,-84.3086"/>
</g>
<!-- Node27&#45;&gt;Node13 -->
<g id="edge53" class="edge">
<title>Node27&#45;&gt;Node13</title>
<path fill="none" stroke="#191970" d="M455.7217,-347.2422C480.0313,-312.4039 566.7662,-191.9712 658,-112 671.5903,-100.0874 688.5191,-88.9992 702.4373,-80.695"/>
<polygon fill="#191970" stroke="#191970" points="704.2037,-83.7167 711.0835,-75.6594 700.6807,-77.6678 704.2037,-83.7167"/>
</g>
<!-- Node27&#45;&gt;Node14 -->
<g id="edge54" class="edge">
<title>Node27&#45;&gt;Node14</title>
<path fill="none" stroke="#191970" d="M442.127,-347.4462C422.9192,-319.5199 371.5757,-235.7272 395,-168 405.3461,-138.0862 412.9663,-130.0034 439,-112 471.5011,-89.5242 515.5016,-77.639 546.6787,-71.6241"/>
<polygon fill="#191970" stroke="#191970" points="547.5099,-75.0306 556.725,-69.8026 546.261,-68.1429 547.5099,-75.0306"/>
</g>
<!-- Node27&#45;&gt;Node26 -->
<g id="edge52" class="edge">
<title>Node27&#45;&gt;Node26</title>
<path fill="none" stroke="#191970" d="M450.9893,-347.3762C456.8365,-319.0883 474.0528,-235.7987 481.9534,-197.5767"/>
<polygon fill="#191970" stroke="#191970" points="485.4041,-198.1729 484.0009,-187.6714 478.549,-196.7559 485.4041,-198.1729"/>
</g>
<!-- Node28 -->
<g id="node29" class="node">
<title>Node28</title>
<g id="a_node29"><a xlink:href="Position_8h.html" target="_top" xlink:title="Position.h">
<polygon fill="none" stroke="#000000" points="979.5,-286 979.5,-305 1044.5,-305 1044.5,-286 979.5,-286"/>
<text text-anchor="middle" x="1012" y="-293" font-family="FreeSans.ttf" font-size="10.00" fill="#000000">Position.h</text>
</a>
</g>
</g>
<!-- Node27&#45;&gt;Node28 -->
<g id="edge38" class="edge">
<title>Node27&#45;&gt;Node28</title>
<path fill="none" stroke="#191970" d="M529.6642,-348.1885C650.8468,-334.951 875.6409,-310.3954 969.3047,-300.1639"/>
<polygon fill="#191970" stroke="#191970" points="969.7123,-303.6403 979.2731,-299.075 968.9521,-296.6817 969.7123,-303.6403"/>
</g>
<!-- Node30 -->
<g id="node31" class="node">
<title>Node30</title>
<g id="a_node31"><a xlink:href="Rotation_8h.html" target="_top" xlink:title="iDynTree/Core/Rotation.h">
<polygon fill="none" stroke="#000000" points="846.5,-224.5 846.5,-243.5 983.5,-243.5 983.5,-224.5 846.5,-224.5"/>
<text text-anchor="middle" x="915" y="-231.5" font-family="FreeSans.ttf" font-size="10.00" fill="#000000">iDynTree/Core/Rotation.h</text>
</a>
</g>
</g>
<!-- Node27&#45;&gt;Node30 -->
<g id="edge50" class="edge">
<title>Node27&#45;&gt;Node30</title>
<path fill="none" stroke="#191970" d="M476.4163,-347.4568C521.5883,-331.9511 614.6646,-300.9186 695,-280 747.5486,-266.3168 807.9758,-253.9171 852.1883,-245.4487"/>
<polygon fill="#191970" stroke="#191970" points="853.0432,-248.849 862.2135,-243.5426 851.7357,-241.9722 853.0432,-248.849"/>
</g>
<!-- Node28&#45;&gt;Node3 -->
<g id="edge49" class="edge">
<title>Node28&#45;&gt;Node3</title>
<path fill="none" stroke="#191970" d="M1026.376,-285.819C1051.5419,-268.3855 1104.2928,-229.6318 1140,-188 1158.9561,-165.8987 1166.1543,-160.0401 1174,-132 1178.2453,-116.8275 1177.9302,-98.9135 1176.7289,-85.58"/>
<polygon fill="#191970" stroke="#191970" points="1180.2034,-85.1566 1175.592,-75.6179 1173.2485,-85.9503 1180.2034,-85.1566"/>
</g>
<!-- Node29 -->
<g id="node30" class="node">
<title>Node29</title>
<g id="a_node30"><a xlink:href="PositionRaw_8h.html" target="_top" xlink:title="iDynTree/Core/PositionRaw.h">
<polygon fill="none" stroke="#000000" points="776,-168.5 776,-187.5 932,-187.5 932,-168.5 776,-168.5"/>
<text text-anchor="middle" x="854" y="-175.5" font-family="FreeSans.ttf" font-size="10.00" fill="#000000">iDynTree/Core/PositionRaw.h</text>
</a>
</g>
</g>
<!-- Node28&#45;&gt;Node29 -->
<g id="edge39" class="edge">
<title>Node28&#45;&gt;Node29</title>
<path fill="none" stroke="#191970" d="M1012.0248,-285.7901C1011.5315,-270.5987 1008.3546,-241.1763 992,-224 979.8747,-211.2655 940.1075,-198.7741 906.3584,-190.0293"/>
<polygon fill="#191970" stroke="#191970" points="907.1255,-186.6131 896.5724,-187.5525 905.408,-193.3992 907.1255,-186.6131"/>
</g>
<!-- Node28&#45;&gt;Node30 -->
<g id="edge42" class="edge">
<title>Node28&#45;&gt;Node30</title>
<path fill="none" stroke="#191970" d="M996.8438,-285.8906C981.3257,-276.0519 956.9807,-260.6167 938.8716,-249.1351"/>
<polygon fill="#191970" stroke="#191970" points="940.3696,-245.9407 930.0498,-243.5419 936.6213,-251.8526 940.3696,-245.9407"/>
</g>
<!-- Node29&#45;&gt;Node3 -->
<g id="edge41" class="edge">
<title>Node29&#45;&gt;Node3</title>
<path fill="none" stroke="#191970" d="M881.283,-168.4509C940.2699,-147.8055 1079.4081,-99.1072 1142.2334,-77.1183"/>
<polygon fill="#191970" stroke="#191970" points="1143.707,-80.3108 1151.9893,-73.7037 1141.3945,-73.7038 1143.707,-80.3108"/>
</g>
<!-- Node29&#45;&gt;Node15 -->
<g id="edge40" class="edge">
<title>Node29&#45;&gt;Node15</title>
<path fill="none" stroke="#191970" d="M798.4998,-168.4369C741.9437,-158.6918 654.2596,-143.5832 594.3741,-133.2645"/>
<polygon fill="#191970" stroke="#191970" points="594.7204,-129.7726 584.2713,-131.5237 593.5317,-136.671 594.7204,-129.7726"/>
</g>
<!-- Node30&#45;&gt;Node3 -->
<g id="edge43" class="edge">
<title>Node30&#45;&gt;Node3</title>
<path fill="none" stroke="#191970" d="M983.5166,-224.9507C1033.7364,-217.1289 1096.5644,-204.4854 1117,-188 1149.4645,-161.8109 1164.3638,-112.8672 1170.4128,-85.6072"/>
<polygon fill="#191970" stroke="#191970" points="1173.8663,-86.188 1172.4318,-75.6908 1167.007,-84.7914 1173.8663,-86.188"/>
</g>
<!-- Node30&#45;&gt;Node15 -->
<g id="edge48" class="edge">
<title>Node30&#45;&gt;Node15</title>
<path fill="none" stroke="#191970" d="M882.0899,-224.4509C812.2972,-204.2002 649.4832,-156.9589 571.7644,-134.4083"/>
<polygon fill="#191970" stroke="#191970" points="572.4061,-130.9502 561.8268,-131.5249 570.4554,-137.6729 572.4061,-130.9502"/>
</g>
<!-- Node30&#45;&gt;Node26 -->
<g id="edge44" class="edge">
<title>Node30&#45;&gt;Node26</title>
<path fill="none" stroke="#191970" d="M846.0737,-225.0026C770.664,-215.1589 649.8043,-199.3824 569.18,-188.858"/>
<polygon fill="#191970" stroke="#191970" points="569.4315,-185.3612 559.0626,-187.5373 568.5254,-192.3023 569.4315,-185.3612"/>
</g>
<!-- Node31 -->
<g id="node32" class="node">
<title>Node31</title>
<g id="a_node32"><a xlink:href="RotationRaw_8h.html" target="_top" xlink:title="iDynTree/Core/RotationRaw.h">
<polygon fill="none" stroke="#000000" points="950,-168.5 950,-187.5 1108,-187.5 1108,-168.5 950,-168.5"/>
<text text-anchor="middle" x="1029" y="-175.5" font-family="FreeSans.ttf" font-size="10.00" fill="#000000">iDynTree/Core/RotationRaw.h</text>
</a>
</g>
</g>
<!-- Node30&#45;&gt;Node31 -->
<g id="edge45" class="edge">
<title>Node30&#45;&gt;Node31</title>
<path fill="none" stroke="#191970" d="M934.5973,-224.3733C952.7331,-215.4644 979.9135,-202.1127 1000.4587,-192.0203"/>
<polygon fill="#191970" stroke="#191970" points="1002.2261,-195.0517 1009.6584,-187.5011 999.1397,-188.7688 1002.2261,-195.0517"/>
</g>
<!-- Node31&#45;&gt;Node3 -->
<g id="edge47" class="edge">
<title>Node31&#45;&gt;Node3</title>
<path fill="none" stroke="#191970" d="M1041.3626,-168.4509C1066.296,-149.1921 1122.8333,-105.5218 1153.4236,-81.8935"/>
<polygon fill="#191970" stroke="#191970" points="1155.8941,-84.4078 1161.6687,-75.5249 1151.6151,-78.8679 1155.8941,-84.4078"/>
</g>
<!-- Node31&#45;&gt;Node8 -->
<g id="edge46" class="edge">
<title>Node31&#45;&gt;Node8</title>
<path fill="none" stroke="#191970" d="M981.0137,-168.4369C932.5186,-158.7724 857.5527,-143.8326 805.8121,-133.5213"/>
<polygon fill="#191970" stroke="#191970" points="806.2797,-130.0457 795.7884,-131.5237 804.9115,-136.9107 806.2797,-130.0457"/>
</g>
<!-- Node33 -->
<g id="node34" class="node">
<title>Node33</title>
<g id="a_node34"><a xlink:href="SpatialForceVector_8h.html" target="_top" xlink:title="iDynTree/Core/SpatialForce\lVector.h">
<polygon fill="none" stroke="#000000" points="197,-403.5 197,-433.5 345,-433.5 345,-403.5 197,-403.5"/>
<text text-anchor="start" x="205" y="-421.5" font-family="FreeSans.ttf" font-size="10.00" fill="#000000">iDynTree/Core/SpatialForce</text>
<text text-anchor="middle" x="271" y="-410.5" font-family="FreeSans.ttf" font-size="10.00" fill="#000000">Vector.h</text>
</a>
</g>
</g>
<!-- Node32&#45;&gt;Node33 -->
<g id="edge56" class="edge">
<title>Node32&#45;&gt;Node33</title>
<path fill="none" stroke="#191970" d="M118.5031,-475.9005C145.276,-465.8231 188.0449,-449.7247 221.4855,-437.1375"/>
<polygon fill="#191970" stroke="#191970" points="222.9654,-440.3202 231.0914,-433.5218 220.4995,-433.7689 222.9654,-440.3202"/>
</g>
<!-- Node33&#45;&gt;Node15 -->
<g id="edge57" class="edge">
<title>Node33&#45;&gt;Node15</title>
<path fill="none" stroke="#191970" d="M274.2283,-403.35C284.2123,-360.1406 318.631,-235.1044 395,-168 413.5116,-151.7341 438.0574,-141.1544 461.0791,-134.3015"/>
<polygon fill="#191970" stroke="#191970" points="462.1352,-137.6407 470.8302,-131.587 460.2579,-130.8971 462.1352,-137.6407"/>
</g>
<!-- Node33&#45;&gt;Node26 -->
<g id="edge58" class="edge">
<title>Node33&#45;&gt;Node26</title>
<path fill="none" stroke="#191970" d="M284.4492,-403.4556C322.4423,-360.9564 430.4197,-240.1723 470.6471,-195.1738"/>
<polygon fill="#191970" stroke="#191970" points="473.2824,-197.4774 477.3379,-187.6895 468.0637,-192.8121 473.2824,-197.4774"/>
</g>
<!-- Node33&#45;&gt;Node27 -->
<g id="edge59" class="edge">
<title>Node33&#45;&gt;Node27</title>
<path fill="none" stroke="#191970" d="M314.5437,-403.4554C344.3737,-393.149 383.5166,-379.6249 411.8702,-369.8286"/>
<polygon fill="#191970" stroke="#191970" points="413.1076,-373.1041 421.4163,-366.5303 410.8216,-366.4879 413.1076,-373.1041"/>
</g>
<!-- Node34&#45;&gt;Node25 -->
<g id="edge61" class="edge">
<title>Node34&#45;&gt;Node25</title>
<path fill="none" stroke="#191970" d="M448.3393,-475.9005C467.0134,-466.1258 496.5093,-450.6865 520.209,-438.2812"/>
<polygon fill="#191970" stroke="#191970" points="522.0652,-441.2602 529.3017,-433.5218 518.8189,-435.0584 522.0652,-441.2602"/>
</g>
<!-- Node35&#45;&gt;Node33 -->
<g id="edge63" class="edge">
<title>Node35&#45;&gt;Node33</title>
<path fill="none" stroke="#191970" d="M271,-475.9005C271,-467.5099 271,-454.9451 271,-443.7085"/>
<polygon fill="#191970" stroke="#191970" points="274.5001,-443.5217 271,-433.5218 267.5001,-443.5218 274.5001,-443.5217"/>
</g>
<!-- Node36&#45;&gt;Node3 -->
<g id="edge69" class="edge">
<title>Node36&#45;&gt;Node3</title>
<path fill="none" stroke="#191970" d="M1120.8408,-347.4837C1169.7457,-332.3718 1250,-297.8462 1250,-234 1250,-234 1250,-234 1250,-178 1250,-138.2361 1216.7929,-102.1042 1194.2792,-82.177"/>
<polygon fill="#191970" stroke="#191970" points="1196.4317,-79.4128 1186.5499,-75.5918 1191.8921,-84.7412 1196.4317,-79.4128"/>
</g>
<!-- Node36&#45;&gt;Node8 -->
<g id="edge68" class="edge">
<title>Node36&#45;&gt;Node8</title>
<path fill="none" stroke="#191970" d="M1090.4553,-347.2955C1109.9313,-316.7054 1163.9624,-221.1803 1117,-168 1098.8293,-147.4235 941.9175,-133.8834 838.6446,-127.1128"/>
<polygon fill="#191970" stroke="#191970" points="838.7179,-123.6103 828.5133,-126.4589 838.267,-130.5958 838.7179,-123.6103"/>
</g>
<!-- Node36&#45;&gt;Node28 -->
<g id="edge66" class="edge">
<title>Node36&#45;&gt;Node28</title>
<path fill="none" stroke="#191970" d="M1072.75,-347.3906C1061.614,-337.8786 1044.354,-323.1357 1031.0732,-311.7917"/>
<polygon fill="#191970" stroke="#191970" points="1033.2856,-309.0784 1023.4086,-305.2449 1028.7392,-314.4011 1033.2856,-309.0784"/>
</g>
<!-- Node36&#45;&gt;Node30 -->
<g id="edge67" class="edge">
<title>Node36&#45;&gt;Node30</title>
<path fill="none" stroke="#191970" d="M1045.5165,-347.4271C1021.9752,-340.2025 992.2171,-328.4947 970,-311 949.824,-295.1126 933.7804,-269.9171 924.3455,-252.705"/>
<polygon fill="#191970" stroke="#191970" points="927.3233,-250.8475 919.5727,-243.624 921.127,-254.1042 927.3233,-250.8475"/>
</g>
<!-- Node37&#45;&gt;Node3 -->
<g id="edge73" class="edge">
<title>Node37&#45;&gt;Node3</title>
<path fill="none" stroke="#191970" d="M1326,-593.2511C1326,-573.1182 1326,-525.4826 1326,-485.5 1326,-485.5 1326,-485.5 1326,-178 1326,-118.8522 1250.4821,-87.4415 1205.9054,-74.0527"/>
<polygon fill="#191970" stroke="#191970" points="1206.6792,-70.6337 1196.1021,-71.2474 1204.7533,-77.3635 1206.6792,-70.6337"/>
</g>
<!-- Node37&#45;&gt;Node36 -->
<g id="edge75" class="edge">
<title>Node37&#45;&gt;Node36</title>
<path fill="none" stroke="#191970" d="M1316.5133,-593.3565C1279.9178,-556.1561 1147.6379,-421.6897 1100.6792,-373.9549"/>
<polygon fill="#191970" stroke="#191970" points="1102.9291,-371.2511 1093.4211,-366.5768 1097.9389,-376.1602 1102.9291,-371.2511"/>
</g>
<!-- Node37&#45;&gt;Node38 -->
<g id="edge72" class="edge">
<title>Node37&#45;&gt;Node38</title>
<path fill="none" stroke="#191970" d="M1337.6705,-593.2455C1347.5661,-584.9746 1361.9627,-572.9416 1373.5901,-563.2232"/>
<polygon fill="#191970" stroke="#191970" points="1376.035,-565.7413 1381.4632,-556.6427 1371.5458,-560.3703 1376.035,-565.7413"/>
</g>
<!-- Node37&#45;&gt;Node39 -->
<g id="edge74" class="edge">
<title>Node37&#45;&gt;Node39</title>
<path fill="none" stroke="#191970" d="M1350.0669,-593.3733C1372.8428,-584.2629 1407.2344,-570.5062 1432.649,-560.3404"/>
<polygon fill="#191970" stroke="#191970" points="1434.2623,-563.4648 1442.2472,-556.5011 1431.6625,-556.9654 1434.2623,-563.4648"/>
</g>
</g>
</svg>
