<?xml version="1.0" encoding="UTF-8" standalone="no"?>
<!DOCTYPE svg PUBLIC "-//W3C//DTD SVG 1.1//EN"
 "http://www.w3.org/Graphics/SVG/1.1/DTD/svg11.dtd">
<!-- Generated by graphviz version 2.40.1 (20161225.0304)
 -->
<!-- Title: MultipleShootingSolver.cpp Pages: 1 -->
<svg width="2435pt" height="554pt"
 viewBox="0.00 0.00 2434.50 554.00" xmlns="http://www.w3.org/2000/svg" xmlns:xlink="http://www.w3.org/1999/xlink">
<g id="graph0" class="graph" transform="scale(1 1) rotate(0) translate(4 550)">
<title>MultipleShootingSolver.cpp</title>
<!-- Node0 -->
<g id="node1" class="node">
<title>Node0</title>
<polygon fill="#bfbfbf" stroke="#000000" points="1302.5,-526.5 1302.5,-545.5 1451.5,-545.5 1451.5,-526.5 1302.5,-526.5"/>
<text text-anchor="middle" x="1377" y="-533.5" font-family="FreeSans.ttf" font-size="10.00" fill="#000000">MultipleShootingSolver.cpp</text>
</g>
<!-- Node1 -->
<g id="node2" class="node">
<title>Node1</title>
<g id="a_node2"><a xlink:href="MultipleShootingSolver_8h.html" target="_top" xlink:title="iDynTree/OCSolvers\l/MultipleShootingSolver.h">
<polygon fill="none" stroke="#000000" points="225,-459.5 225,-489.5 365,-489.5 365,-459.5 225,-459.5"/>
<text text-anchor="start" x="233" y="-477.5" font-family="FreeSans.ttf" font-size="10.00" fill="#000000">iDynTree/OCSolvers</text>
<text text-anchor="middle" x="295" y="-466.5" font-family="FreeSans.ttf" font-size="10.00" fill="#000000">/MultipleShootingSolver.h</text>
</a>
</g>
</g>
<!-- Node0&#45;&gt;Node1 -->
<g id="edge1" class="edge">
<title>Node0&#45;&gt;Node1</title>
<path fill="none" stroke="#191970" d="M1302.361,-533.8817C1102.4126,-527.9956 557.7786,-510.5176 379,-490 377.7155,-489.8526 376.421,-489.6972 375.1188,-489.5346"/>
<polygon fill="#191970" stroke="#191970" points="375.4,-486.0407 365.019,-488.1585 374.4549,-492.9766 375.4,-486.0407"/>
</g>
<!-- Node6 -->
<g id="node7" class="node">
<title>Node6</title>
<g id="a_node7"><a xlink:href="VectorDynSize_8h.html" target="_top" xlink:title="iDynTree/Core/VectorDynSize.h">
<polygon fill="none" stroke="#000000" points="1182.5,-336.5 1182.5,-355.5 1349.5,-355.5 1349.5,-336.5 1182.5,-336.5"/>
<text text-anchor="middle" x="1266" y="-343.5" font-family="FreeSans.ttf" font-size="10.00" fill="#000000">iDynTree/Core/VectorDynSize.h</text>
</a>
</g>
</g>
<!-- Node0&#45;&gt;Node6 -->
<g id="edge84" class="edge">
<title>Node0&#45;&gt;Node6</title>
<path fill="none" stroke="#191970" d="M1374.9336,-526.469C1369.3308,-502.2004 1352.074,-436.8259 1320,-392 1311.7139,-380.4195 1299.8969,-369.916 1289.429,-361.8791"/>
<polygon fill="#191970" stroke="#191970" points="1291.1934,-358.8326 1281.0603,-355.7387 1287.0523,-364.4764 1291.1934,-358.8326"/>
</g>
<!-- Node8 -->
<g id="node9" class="node">
<title>Node8</title>
<polygon fill="none" stroke="#bfbfbf" points="2026,-.5 2026,-19.5 2078,-19.5 2078,-.5 2026,-.5"/>
<text text-anchor="middle" x="2052" y="-7.5" font-family="FreeSans.ttf" font-size="10.00" fill="#000000">cassert</text>
</g>
<!-- Node0&#45;&gt;Node8 -->
<g id="edge109" class="edge">
<title>Node0&#45;&gt;Node8</title>
<path fill="none" stroke="#191970" d="M1451.6953,-534.6879C1664.7014,-530.6263 2261.9045,-516.8848 2294,-490 2322.8441,-465.8387 2313,-445.1265 2313,-407.5 2313,-407.5 2313,-407.5 2313,-122 2313,-74.87 2272.1818,-77.0222 2230,-56 2184.1094,-33.1294 2125.7215,-20.8485 2088.5911,-14.8727"/>
<polygon fill="#191970" stroke="#191970" points="2088.6649,-11.343 2078.2492,-13.2833 2087.6014,-18.2618 2088.6649,-11.343"/>
</g>
<!-- Node9 -->
<g id="node10" class="node">
<title>Node9</title>
<polygon fill="none" stroke="#bfbfbf" points="2207,-.5 2207,-19.5 2271,-19.5 2271,-.5 2207,-.5"/>
<text text-anchor="middle" x="2239" y="-7.5" font-family="FreeSans.ttf" font-size="10.00" fill="#000000">algorithm</text>
</g>
<!-- Node0&#45;&gt;Node9 -->
<g id="edge110" class="edge">
<title>Node0&#45;&gt;Node9</title>
<path fill="none" stroke="#191970" d="M1451.8121,-534.514C1668.2308,-529.9292 2281.8494,-514.7979 2317,-490 2349.4059,-467.1385 2351,-447.1584 2351,-407.5 2351,-407.5 2351,-407.5 2351,-122 2351,-75.7508 2302.6579,-41.9293 2269.4935,-24.1683"/>
<polygon fill="#191970" stroke="#191970" points="2271.0878,-21.0526 2260.5947,-19.5877 2267.8841,-27.2764 2271.0878,-21.0526"/>
</g>
<!-- Node16 -->
<g id="node17" class="node">
<title>Node16</title>
<polygon fill="none" stroke="#bfbfbf" points="1075,-56.5 1075,-75.5 1119,-75.5 1119,-56.5 1075,-56.5"/>
<text text-anchor="middle" x="1097" y="-63.5" font-family="FreeSans.ttf" font-size="10.00" fill="#000000">string</text>
</g>
<!-- Node0&#45;&gt;Node16 -->
<g id="edge112" class="edge">
<title>Node0&#45;&gt;Node16</title>
<path fill="none" stroke="#191970" d="M1351.8863,-526.4831C1307.172,-509.0341 1211.5522,-469.4189 1138,-423 1119.5678,-411.3674 1119.1386,-402.4296 1100,-392 1054.46,-367.183 1019.4956,-397.9499 989,-356 979.6627,-343.1556 942.7703,-254.5868 1034,-112 1042.34,-98.965 1055.7863,-88.4018 1068.1189,-80.7008"/>
<polygon fill="#191970" stroke="#191970" points="1069.9558,-83.6811 1076.8132,-75.6048 1066.4161,-77.6421 1069.9558,-83.6811"/>
</g>
<!-- Node22 -->
<g id="node23" class="node">
<title>Node22</title>
<g id="a_node23"><a xlink:href="Utils_8h.html" target="_top" xlink:title="iDynTree/Core/Utils.h">
<polygon fill="none" stroke="#000000" points="1352.5,-56.5 1352.5,-75.5 1471.5,-75.5 1471.5,-56.5 1352.5,-56.5"/>
<text text-anchor="middle" x="1412" y="-63.5" font-family="FreeSans.ttf" font-size="10.00" fill="#000000">iDynTree/Core/Utils.h</text>
</a>
</g>
</g>
<!-- Node0&#45;&gt;Node22 -->
<g id="edge85" class="edge">
<title>Node0&#45;&gt;Node22</title>
<path fill="none" stroke="#191970" d="M1376.8735,-526.0169C1376.6279,-511.3197 1375.9279,-483.0035 1374,-459 1369.5909,-404.1051 1373.4105,-389.1529 1359,-336 1338.0924,-258.8828 1275.5494,-245.4975 1295,-168 1301.8734,-140.614 1304.9804,-131.911 1325,-112 1339.076,-98.0004 1358.2974,-87.2326 1375.0934,-79.647"/>
<polygon fill="#191970" stroke="#191970" points="1376.8358,-82.708 1384.6452,-75.5481 1374.0754,-76.2753 1376.8358,-82.708"/>
</g>
<!-- Node23 -->
<g id="node24" class="node">
<title>Node23</title>
<polygon fill="none" stroke="#bfbfbf" points="2165,-56.5 2165,-75.5 2221,-75.5 2221,-56.5 2165,-56.5"/>
<text text-anchor="middle" x="2193" y="-63.5" font-family="FreeSans.ttf" font-size="10.00" fill="#000000">sstream</text>
</g>
<!-- Node0&#45;&gt;Node23 -->
<g id="edge113" class="edge">
<title>Node0&#45;&gt;Node23</title>
<path fill="none" stroke="#191970" d="M1451.5506,-526.5587C1523.788,-517.3715 1636.4305,-502.9428 1734,-490 1843.166,-475.5189 2132.0066,-481.9843 2225,-423 2259.4574,-401.1442 2275,-386.8043 2275,-346 2275,-346 2275,-346 2275,-178 2275,-137.257 2239.2358,-101.48 2214.9459,-81.8797"/>
<polygon fill="#191970" stroke="#191970" points="2216.9552,-79.0087 2206.9102,-75.6399 2212.6619,-84.5375 2216.9552,-79.0087"/>
</g>
<!-- Node31 -->
<g id="node32" class="node">
<title>Node31</title>
<g id="a_node32"><a xlink:href="OptimizationProblem_8h.html" target="_top" xlink:title="iDynTree/OptimizationProblem.h">
<polygon fill="none" stroke="#000000" points="308.5,-336.5 308.5,-355.5 483.5,-355.5 483.5,-336.5 308.5,-336.5"/>
<text text-anchor="middle" x="396" y="-343.5" font-family="FreeSans.ttf" font-size="10.00" fill="#000000">iDynTree/OptimizationProblem.h</text>
</a>
</g>
</g>
<!-- Node0&#45;&gt;Node31 -->
<g id="edge83" class="edge">
<title>Node0&#45;&gt;Node31</title>
<path fill="none" stroke="#191970" d="M1302.3529,-534.8271C1147.5238,-531.7813 796.2755,-521.5218 681,-490 576.226,-461.3498 464.8808,-392.1999 418.4008,-361.3292"/>
<polygon fill="#191970" stroke="#191970" points="420.2454,-358.3521 409.9908,-355.6888 416.3463,-364.1657 420.2454,-358.3521"/>
</g>
<!-- Node33 -->
<g id="node34" class="node">
<title>Node33</title>
<g id="a_node34"><a xlink:href="SparsityStructure_8h.html" target="_top" xlink:title="iDynTree/SparsityStructure.h">
<polygon fill="none" stroke="#000000" points="748.5,-336.5 748.5,-355.5 903.5,-355.5 903.5,-336.5 748.5,-336.5"/>
<text text-anchor="middle" x="826" y="-343.5" font-family="FreeSans.ttf" font-size="10.00" fill="#000000">iDynTree/SparsityStructure.h</text>
</a>
</g>
</g>
<!-- Node0&#45;&gt;Node33 -->
<g id="edge58" class="edge">
<title>Node0&#45;&gt;Node33</title>
<path fill="none" stroke="#191970" d="M1302.4549,-534.6722C1163.5785,-531.4674 876.3305,-521.1165 844,-490 810.5336,-457.7903 815.9339,-397.291 821.5773,-365.9524"/>
<polygon fill="#191970" stroke="#191970" points="825.0721,-366.3239 823.5959,-355.8324 818.2073,-364.9546 825.0721,-366.3239"/>
</g>
<!-- Node35 -->
<g id="node36" class="node">
<title>Node35</title>
<g id="a_node36"><a xlink:href="OptimalControlProblem_8h.html" target="_top" xlink:title="iDynTree/OptimalControlProblem.h">
<polygon fill="none" stroke="#000000" points="853,-465 853,-484 1039,-484 1039,-465 853,-465"/>
<text text-anchor="middle" x="946" y="-472" font-family="FreeSans.ttf" font-size="10.00" fill="#000000">iDynTree/OptimalControlProblem.h</text>
</a>
</g>
</g>
<!-- Node0&#45;&gt;Node35 -->
<g id="edge64" class="edge">
<title>Node0&#45;&gt;Node35</title>
<path fill="none" stroke="#191970" d="M1310.1291,-526.4581C1232.4682,-515.3766 1104.5965,-497.1304 1022.8952,-485.4723"/>
<polygon fill="#191970" stroke="#191970" points="1023.0673,-481.9615 1012.6731,-484.0137 1022.0784,-488.8913 1023.0673,-481.9615"/>
</g>
<!-- Node36 -->
<g id="node37" class="node">
<title>Node36</title>
<g id="a_node37"><a xlink:href="DynamicalSystem_8h.html" target="_top" xlink:title="iDynTree/DynamicalSystem.h">
<polygon fill="none" stroke="#000000" points="929.5,-398 929.5,-417 1090.5,-417 1090.5,-398 929.5,-398"/>
<text text-anchor="middle" x="1010" y="-405" font-family="FreeSans.ttf" font-size="10.00" fill="#000000">iDynTree/DynamicalSystem.h</text>
</a>
</g>
</g>
<!-- Node0&#45;&gt;Node36 -->
<g id="edge71" class="edge">
<title>Node0&#45;&gt;Node36</title>
<path fill="none" stroke="#191970" d="M1302.3291,-527.9651C1234.1983,-519.8082 1139.1021,-506.1093 1105,-490 1071.9659,-474.3952 1041.5469,-443.967 1024.4259,-424.7448"/>
<polygon fill="#191970" stroke="#191970" points="1026.9306,-422.291 1017.7333,-417.0318 1021.6435,-426.8786 1026.9306,-422.291"/>
</g>
<!-- Node37 -->
<g id="node38" class="node">
<title>Node37</title>
<g id="a_node38"><a xlink:href="Integrator_8h.html" target="_top" xlink:title="iDynTree/Integrator.h">
<polygon fill="none" stroke="#000000" points="669.5,-398 669.5,-417 788.5,-417 788.5,-398 669.5,-398"/>
<text text-anchor="middle" x="729" y="-405" font-family="FreeSans.ttf" font-size="10.00" fill="#000000">iDynTree/Integrator.h</text>
</a>
</g>
</g>
<!-- Node0&#45;&gt;Node37 -->
<g id="edge74" class="edge">
<title>Node0&#45;&gt;Node37</title>
<path fill="none" stroke="#191970" d="M1302.2265,-532.8071C1158.6101,-526.2546 854.4786,-510.1915 811,-490 780.4837,-475.8282 754.9555,-445.1577 740.8489,-425.4672"/>
<polygon fill="#191970" stroke="#191970" points="743.5955,-423.2852 735.0316,-417.0474 737.8363,-427.2642 743.5955,-423.2852"/>
</g>
<!-- Node38 -->
<g id="node39" class="node">
<title>Node38</title>
<polygon fill="none" stroke="#bfbfbf" points="540,-336.5 540,-355.5 578,-355.5 578,-336.5 540,-336.5"/>
<text text-anchor="middle" x="559" y="-343.5" font-family="FreeSans.ttf" font-size="10.00" fill="#000000">map</text>
</g>
<!-- Node0&#45;&gt;Node38 -->
<g id="edge114" class="edge">
<title>Node0&#45;&gt;Node38</title>
<path fill="none" stroke="#191970" d="M1302.4525,-533.986C1162.3641,-529.6082 865.015,-517.3388 766,-490 701.8165,-472.2784 685.4929,-462.6496 632,-423 608.5601,-405.626 586.1805,-380.275 572.5221,-363.4688"/>
<polygon fill="#191970" stroke="#191970" points="575.1818,-361.1902 566.2152,-355.5466 569.7053,-365.5501 575.1818,-361.1902"/>
</g>
<!-- Node39 -->
<g id="node40" class="node">
<title>Node39</title>
<g id="a_node40"><a xlink:href="TimeRange_8h.html" target="_top" xlink:title="iDynTree/TimeRange.h">
<polygon fill="none" stroke="#000000" points="2157.5,-465 2157.5,-484 2284.5,-484 2284.5,-465 2157.5,-465"/>
<text text-anchor="middle" x="2221" y="-472" font-family="FreeSans.ttf" font-size="10.00" fill="#000000">iDynTree/TimeRange.h</text>
</a>
</g>
</g>
<!-- Node0&#45;&gt;Node39 -->
<g id="edge82" class="edge">
<title>Node0&#45;&gt;Node39</title>
<path fill="none" stroke="#191970" d="M1451.5297,-534.8895C1588.8369,-532.0976 1890.7881,-522.4789 2143,-490 2151.3658,-488.9227 2160.1809,-487.4768 2168.7545,-485.8996"/>
<polygon fill="#191970" stroke="#191970" points="2169.5032,-489.3199 2178.6668,-484.0021 2168.187,-482.4448 2169.5032,-489.3199"/>
</g>
<!-- Node40 -->
<g id="node41" class="node">
<title>Node40</title>
<polygon fill="none" stroke="#bfbfbf" points="1443.5,-398 1443.5,-417 1520.5,-417 1520.5,-398 1443.5,-398"/>
<text text-anchor="middle" x="1482" y="-405" font-family="FreeSans.ttf" font-size="10.00" fill="#000000">Eigen/Dense</text>
</g>
<!-- Node0&#45;&gt;Node40 -->
<g id="edge86" class="edge">
<title>Node0&#45;&gt;Node40</title>
<path fill="none" stroke="#191970" d="M1389.8688,-526.2792C1400.9787,-517.5173 1417.0747,-503.9083 1429,-490 1446.2293,-469.9057 1462.0808,-443.7872 1471.8725,-426.3747"/>
<polygon fill="#191970" stroke="#191970" points="1475.1448,-427.688 1476.9021,-417.2399 1469.0129,-424.3118 1475.1448,-427.688"/>
</g>
<!-- Node41 -->
<g id="node42" class="node">
<title>Node41</title>
<g id="a_node42"><a xlink:href="EigenHelpers_8h.html" target="_top" xlink:title="iDynTree/Core/EigenHelpers.h">
<polygon fill="none" stroke="#000000" points="1563.5,-465 1563.5,-484 1724.5,-484 1724.5,-465 1563.5,-465"/>
<text text-anchor="middle" x="1644" y="-472" font-family="FreeSans.ttf" font-size="10.00" fill="#000000">iDynTree/Core/EigenHelpers.h</text>
</a>
</g>
</g>
<!-- Node0&#45;&gt;Node41 -->
<g id="edge87" class="edge">
<title>Node0&#45;&gt;Node41</title>
<path fill="none" stroke="#191970" d="M1418.4258,-526.4581C1465.3894,-515.6406 1541.9933,-497.9959 1592.6979,-486.3168"/>
<polygon fill="#191970" stroke="#191970" points="1593.5178,-489.7196 1602.477,-484.0643 1591.9465,-482.8983 1593.5178,-489.7196"/>
</g>
<!-- Node45 -->
<g id="node46" class="node">
<title>Node45</title>
<polygon fill="none" stroke="#bfbfbf" points="2379.5,-465 2379.5,-484 2426.5,-484 2426.5,-465 2379.5,-465"/>
<text text-anchor="middle" x="2403" y="-472" font-family="FreeSans.ttf" font-size="10.00" fill="#000000">cmath</text>
</g>
<!-- Node0&#45;&gt;Node45 -->
<g id="edge111" class="edge">
<title>Node0&#45;&gt;Node45</title>
<path fill="none" stroke="#191970" d="M1451.5564,-533.9895C1666.3493,-527.9925 2276.8056,-509.436 2365,-490 2367.8702,-489.3675 2370.802,-488.5364 2373.7011,-487.5871"/>
<polygon fill="#191970" stroke="#191970" points="2375.1406,-490.7861 2383.2946,-484.0212 2372.7017,-484.2247 2375.1406,-490.7861"/>
</g>
<!-- Node2 -->
<g id="node3" class="node">
<title>Node2</title>
<g id="a_node3"><a xlink:href="OptimalControlSolver_8h.html" target="_top" xlink:title="iDynTree/OptimalControlSolver.h">
<polygon fill="none" stroke="#000000" points="0,-336.5 0,-355.5 176,-355.5 176,-336.5 0,-336.5"/>
<text text-anchor="middle" x="88" y="-343.5" font-family="FreeSans.ttf" font-size="10.00" fill="#000000">iDynTree/OptimalControlSolver.h</text>
</a>
</g>
</g>
<!-- Node1&#45;&gt;Node2 -->
<g id="edge2" class="edge">
<title>Node1&#45;&gt;Node2</title>
<path fill="none" stroke="#191970" d="M260.0706,-459.4014C239.2096,-449.8903 212.4841,-436.8259 190,-423 159.4053,-404.1868 126.7191,-378.3785 106.8192,-361.9436"/>
<polygon fill="#191970" stroke="#191970" points="109.0388,-359.2373 99.1169,-355.5216 104.5561,-364.6137 109.0388,-359.2373"/>
</g>
<!-- Node3 -->
<g id="node4" class="node">
<title>Node3</title>
<polygon fill="none" stroke="#bfbfbf" points="232,-280.5 232,-299.5 290,-299.5 290,-280.5 232,-280.5"/>
<text text-anchor="middle" x="261" y="-287.5" font-family="FreeSans.ttf" font-size="10.00" fill="#000000">memory</text>
</g>
<!-- Node1&#45;&gt;Node3 -->
<g id="edge57" class="edge">
<title>Node1&#45;&gt;Node3</title>
<path fill="none" stroke="#191970" d="M263.3579,-459.4839C249.1842,-450.9409 233.9065,-438.7673 226,-423 206.7453,-384.6021 231.8388,-334.4884 248.4577,-308.0893"/>
<polygon fill="#191970" stroke="#191970" points="251.5338,-309.7814 254.0992,-299.5018 245.6833,-305.9379 251.5338,-309.7814"/>
</g>
<!-- Node5 -->
<g id="node6" class="node">
<title>Node5</title>
<g id="a_node6"><a xlink:href="TimeVaryingObject_8h.html" target="_top" xlink:title="iDynTree/TimeVaryingObject.h">
<polygon fill="none" stroke="#000000" points="1147,-398 1147,-417 1311,-417 1311,-398 1147,-398"/>
<text text-anchor="middle" x="1229" y="-405" font-family="FreeSans.ttf" font-size="10.00" fill="#000000">iDynTree/TimeVaryingObject.h</text>
</a>
</g>
</g>
<!-- Node1&#45;&gt;Node5 -->
<g id="edge5" class="edge">
<title>Node1&#45;&gt;Node5</title>
<path fill="none" stroke="#191970" d="M365.0925,-471.3316C504.9975,-464.7167 828.7623,-447.952 1100,-423 1114.6916,-421.6485 1130.2967,-419.9758 1145.3895,-418.2342"/>
<polygon fill="#191970" stroke="#191970" points="1146.2147,-421.6615 1155.739,-417.0206 1145.3994,-414.7092 1146.2147,-421.6615"/>
</g>
<!-- Node30 -->
<g id="node31" class="node">
<title>Node30</title>
<g id="a_node31"><a xlink:href="Optimizer_8h.html" target="_top" xlink:title="iDynTree/Optimizer.h">
<polygon fill="none" stroke="#000000" points="235.5,-398 235.5,-417 354.5,-417 354.5,-398 235.5,-398"/>
<text text-anchor="middle" x="295" y="-405" font-family="FreeSans.ttf" font-size="10.00" fill="#000000">iDynTree/Optimizer.h</text>
</a>
</g>
</g>
<!-- Node1&#45;&gt;Node30 -->
<g id="edge50" class="edge">
<title>Node1&#45;&gt;Node30</title>
<path fill="none" stroke="#191970" d="M295,-459.2967C295,-449.7699 295,-437.3954 295,-427.1306"/>
<polygon fill="#191970" stroke="#191970" points="298.5001,-427.0549 295,-417.055 291.5001,-427.055 298.5001,-427.0549"/>
</g>
<!-- Node32 -->
<g id="node33" class="node">
<title>Node32</title>
<polygon fill="none" stroke="#bfbfbf" points="582.5,-280.5 582.5,-299.5 629.5,-299.5 629.5,-280.5 582.5,-280.5"/>
<text text-anchor="middle" x="606" y="-287.5" font-family="FreeSans.ttf" font-size="10.00" fill="#000000">vector</text>
</g>
<!-- Node1&#45;&gt;Node32 -->
<g id="edge56" class="edge">
<title>Node1&#45;&gt;Node32</title>
<path fill="none" stroke="#191970" d="M320.4504,-459.4016C378.9913,-424.6723 522.6335,-339.4569 580.8662,-304.9106"/>
<polygon fill="#191970" stroke="#191970" points="582.9535,-307.7419 589.7681,-299.6295 579.3819,-301.7216 582.9535,-307.7419"/>
</g>
<!-- Node2&#45;&gt;Node3 -->
<g id="edge3" class="edge">
<title>Node2&#45;&gt;Node3</title>
<path fill="none" stroke="#191970" d="M117.7398,-336.3733C146.5942,-327.0331 190.5354,-312.8094 222.1424,-302.5782"/>
<polygon fill="#191970" stroke="#191970" points="223.5002,-305.8175 231.9363,-299.4079 221.3444,-299.1578 223.5002,-305.8175"/>
</g>
<!-- Node4 -->
<g id="node5" class="node">
<title>Node4</title>
<polygon fill="none" stroke="#bfbfbf" points="687.5,-.5 687.5,-19.5 740.5,-19.5 740.5,-.5 687.5,-.5"/>
<text text-anchor="middle" x="714" y="-7.5" font-family="FreeSans.ttf" font-size="10.00" fill="#000000">cstddef</text>
</g>
<!-- Node2&#45;&gt;Node4 -->
<g id="edge4" class="edge">
<title>Node2&#45;&gt;Node4</title>
<path fill="none" stroke="#191970" d="M98.9254,-336.4083C118.1474,-318.4089 156,-277.4481 156,-234 156,-234 156,-234 156,-122 156,-68.6551 553.0855,-25.6095 677.3118,-13.4482"/>
<polygon fill="#191970" stroke="#191970" points="677.8464,-16.9129 687.4619,-12.4641 677.1708,-9.9455 677.8464,-16.9129"/>
</g>
<!-- Node5&#45;&gt;Node6 -->
<g id="edge6" class="edge">
<title>Node5&#45;&gt;Node6</title>
<path fill="none" stroke="#191970" d="M1234.7813,-397.8906C1240.126,-389.0068 1248.2159,-375.5601 1254.8211,-364.5811"/>
<polygon fill="#191970" stroke="#191970" points="1257.9811,-366.118 1260.1372,-355.7449 1251.9829,-362.5093 1257.9811,-366.118"/>
</g>
<!-- Node17 -->
<g id="node18" class="node">
<title>Node17</title>
<g id="a_node18"><a xlink:href="MatrixDynSize_8h.html" target="_top" xlink:title="iDynTree/Core/MatrixDynSize.h">
<polygon fill="none" stroke="#000000" points="997.5,-336.5 997.5,-355.5 1164.5,-355.5 1164.5,-336.5 997.5,-336.5"/>
<text text-anchor="middle" x="1081" y="-343.5" font-family="FreeSans.ttf" font-size="10.00" fill="#000000">iDynTree/Core/MatrixDynSize.h</text>
</a>
</g>
</g>
<!-- Node5&#45;&gt;Node17 -->
<g id="edge18" class="edge">
<title>Node5&#45;&gt;Node17</title>
<path fill="none" stroke="#191970" d="M1205.875,-397.8906C1181.0033,-387.5554 1141.2702,-371.0447 1113.3156,-359.4284"/>
<polygon fill="#191970" stroke="#191970" points="1114.5402,-356.1472 1103.9626,-355.5419 1111.854,-362.6113 1114.5402,-356.1472"/>
</g>
<!-- Node18 -->
<g id="node19" class="node">
<title>Node18</title>
<g id="a_node19"><a xlink:href="Transform_8h.html" target="_top" xlink:title="iDynTree/Core/Transform.h">
<polygon fill="none" stroke="#000000" points="1455,-336.5 1455,-355.5 1601,-355.5 1601,-336.5 1455,-336.5"/>
<text text-anchor="middle" x="1528" y="-343.5" font-family="FreeSans.ttf" font-size="10.00" fill="#000000">iDynTree/Core/Transform.h</text>
</a>
</g>
</g>
<!-- Node5&#45;&gt;Node18 -->
<g id="edge20" class="edge">
<title>Node5&#45;&gt;Node18</title>
<path fill="none" stroke="#191970" d="M1275.3907,-397.9581C1328.3116,-387.073 1414.8414,-369.2751 1471.6106,-357.5985"/>
<polygon fill="#191970" stroke="#191970" points="1472.4107,-361.0073 1481.5005,-355.5643 1471.0004,-354.1508 1472.4107,-361.0073"/>
</g>
<!-- Node7 -->
<g id="node8" class="node">
<title>Node7</title>
<g id="a_node8"><a xlink:href="Span_8h.html" target="_top" xlink:title="iDynTree/Core/Span.h">
<polygon fill="none" stroke="#000000" points="1792.5,-56.5 1792.5,-75.5 1913.5,-75.5 1913.5,-56.5 1792.5,-56.5"/>
<text text-anchor="middle" x="1853" y="-63.5" font-family="FreeSans.ttf" font-size="10.00" fill="#000000">iDynTree/Core/Span.h</text>
</a>
</g>
</g>
<!-- Node6&#45;&gt;Node7 -->
<g id="edge7" class="edge">
<title>Node6&#45;&gt;Node7</title>
<path fill="none" stroke="#191970" d="M1264.8544,-336.1626C1261.9502,-306.0901 1257.6564,-214.6016 1306,-168 1373.106,-103.3122 1649.8559,-78.1899 1782.0603,-69.7406"/>
<polygon fill="#191970" stroke="#191970" points="1782.33,-73.2307 1792.0923,-69.1138 1781.8935,-66.2443 1782.33,-73.2307"/>
</g>
<!-- Node6&#45;&gt;Node16 -->
<g id="edge17" class="edge">
<title>Node6&#45;&gt;Node16</title>
<path fill="none" stroke="#191970" d="M1251.9917,-336.308C1214.5169,-309.3346 1112.7921,-228.9621 1083,-132 1078.2224,-116.4506 1082.7483,-98.3489 1087.8897,-85.04"/>
<polygon fill="#191970" stroke="#191970" points="1091.2423,-86.1035 1091.9791,-75.5343 1084.8121,-83.3372 1091.2423,-86.1035"/>
</g>
<!-- Node7&#45;&gt;Node4 -->
<g id="edge11" class="edge">
<title>Node7&#45;&gt;Node4</title>
<path fill="none" stroke="#191970" d="M1792.1651,-63.009C1585.7919,-52.8625 916.0487,-19.9339 751.0097,-11.8196"/>
<polygon fill="#191970" stroke="#191970" points="751.0389,-8.3169 740.879,-11.3215 750.6951,-15.3085 751.0389,-8.3169"/>
</g>
<!-- Node7&#45;&gt;Node8 -->
<g id="edge8" class="edge">
<title>Node7&#45;&gt;Node8</title>
<path fill="none" stroke="#191970" d="M1887.2512,-56.4449C1918.4293,-47.7356 1965.9885,-34.4218 2015.9454,-20.2903"/>
<polygon fill="#191970" stroke="#191970" points="2016.9619,-23.6402 2025.6306,-17.5489 2015.0554,-16.9048 2016.9619,-23.6402"/>
</g>
<!-- Node7&#45;&gt;Node9 -->
<g id="edge9" class="edge">
<title>Node7&#45;&gt;Node9</title>
<path fill="none" stroke="#191970" d="M1913.7371,-57.1884C1992.6971,-45.7331 2128.566,-26.0215 2197.0065,-16.0923"/>
<polygon fill="#191970" stroke="#191970" points="2197.6029,-19.5425 2206.9968,-14.643 2196.5978,-12.615 2197.6029,-19.5425"/>
</g>
<!-- Node10 -->
<g id="node11" class="node">
<title>Node10</title>
<polygon fill="none" stroke="#bfbfbf" points="1894,-.5 1894,-19.5 1936,-19.5 1936,-.5 1894,-.5"/>
<text text-anchor="middle" x="1915" y="-7.5" font-family="FreeSans.ttf" font-size="10.00" fill="#000000">array</text>
</g>
<!-- Node7&#45;&gt;Node10 -->
<g id="edge10" class="edge">
<title>Node7&#45;&gt;Node10</title>
<path fill="none" stroke="#191970" d="M1863.7996,-56.2455C1872.8678,-48.0549 1886.0206,-36.1749 1896.7245,-26.5069"/>
<polygon fill="#191970" stroke="#191970" points="1899.2491,-28.9429 1904.3242,-19.6427 1894.5571,-23.7482 1899.2491,-28.9429"/>
</g>
<!-- Node11 -->
<g id="node12" class="node">
<title>Node11</title>
<polygon fill="none" stroke="#bfbfbf" points="1954.5,-.5 1954.5,-19.5 2007.5,-19.5 2007.5,-.5 1954.5,-.5"/>
<text text-anchor="middle" x="1981" y="-7.5" font-family="FreeSans.ttf" font-size="10.00" fill="#000000">iterator</text>
</g>
<!-- Node7&#45;&gt;Node11 -->
<g id="edge12" class="edge">
<title>Node7&#45;&gt;Node11</title>
<path fill="none" stroke="#191970" d="M1875.004,-56.3733C1895.6435,-47.3435 1926.7158,-33.7494 1949.8889,-23.6111"/>
<polygon fill="#191970" stroke="#191970" points="1951.5245,-26.7159 1959.2831,-19.5011 1948.7187,-20.3028 1951.5245,-26.7159"/>
</g>
<!-- Node12 -->
<g id="node13" class="node">
<title>Node12</title>
<polygon fill="none" stroke="#bfbfbf" points="1598,-.5 1598,-19.5 1642,-19.5 1642,-.5 1598,-.5"/>
<text text-anchor="middle" x="1620" y="-7.5" font-family="FreeSans.ttf" font-size="10.00" fill="#000000">limits</text>
</g>
<!-- Node7&#45;&gt;Node12 -->
<g id="edge13" class="edge">
<title>Node7&#45;&gt;Node12</title>
<path fill="none" stroke="#191970" d="M1806.4423,-56.4212C1765.5399,-47.7504 1704.5287,-34.1952 1652,-20 1651.9017,-19.9734 1651.8032,-19.9468 1651.7046,-19.92"/>
<polygon fill="#191970" stroke="#191970" points="1652.8926,-16.6199 1642.3146,-17.2168 1650.956,-23.3467 1652.8926,-16.6199"/>
</g>
<!-- Node13 -->
<g id="node14" class="node">
<title>Node13</title>
<polygon fill="none" stroke="#bfbfbf" points="1660.5,-.5 1660.5,-19.5 1725.5,-19.5 1725.5,-.5 1660.5,-.5"/>
<text text-anchor="middle" x="1693" y="-7.5" font-family="FreeSans.ttf" font-size="10.00" fill="#000000">stdexcept</text>
</g>
<!-- Node7&#45;&gt;Node13 -->
<g id="edge14" class="edge">
<title>Node7&#45;&gt;Node13</title>
<path fill="none" stroke="#191970" d="M1825.495,-56.3733C1799.1198,-47.1419 1759.1149,-33.1402 1729.9642,-22.9375"/>
<polygon fill="#191970" stroke="#191970" points="1730.7409,-19.5012 1720.1461,-19.5011 1728.4284,-26.1082 1730.7409,-19.5012"/>
</g>
<!-- Node14 -->
<g id="node15" class="node">
<title>Node14</title>
<polygon fill="none" stroke="#bfbfbf" points="1743.5,-.5 1743.5,-19.5 1812.5,-19.5 1812.5,-.5 1743.5,-.5"/>
<text text-anchor="middle" x="1778" y="-7.5" font-family="FreeSans.ttf" font-size="10.00" fill="#000000">type_traits</text>
</g>
<!-- Node7&#45;&gt;Node14 -->
<g id="edge15" class="edge">
<title>Node7&#45;&gt;Node14</title>
<path fill="none" stroke="#191970" d="M1839.936,-56.2455C1828.6438,-47.814 1812.1155,-35.4729 1798.9729,-25.6598"/>
<polygon fill="#191970" stroke="#191970" points="1801.0211,-22.8211 1790.9143,-19.6427 1796.8331,-28.4301 1801.0211,-22.8211"/>
</g>
<!-- Node15 -->
<g id="node16" class="node">
<title>Node15</title>
<polygon fill="none" stroke="#bfbfbf" points="1830.5,-.5 1830.5,-19.5 1875.5,-19.5 1875.5,-.5 1830.5,-.5"/>
<text text-anchor="middle" x="1853" y="-7.5" font-family="FreeSans.ttf" font-size="10.00" fill="#000000">utility</text>
</g>
<!-- Node7&#45;&gt;Node15 -->
<g id="edge16" class="edge">
<title>Node7&#45;&gt;Node15</title>
<path fill="none" stroke="#191970" d="M1853,-56.2455C1853,-48.9382 1853,-38.6944 1853,-29.7046"/>
<polygon fill="#191970" stroke="#191970" points="1856.5001,-29.6426 1853,-19.6427 1849.5001,-29.6427 1856.5001,-29.6426"/>
</g>
<!-- Node17&#45;&gt;Node16 -->
<g id="edge19" class="edge">
<title>Node17&#45;&gt;Node16</title>
<path fill="none" stroke="#191970" d="M1075.7324,-336.1163C1058.7654,-302.8574 1008.7017,-192.5725 1045,-112 1050.5697,-99.6369 1061.2863,-89.2563 1071.5506,-81.5033"/>
<polygon fill="#191970" stroke="#191970" points="1073.7618,-84.2277 1079.9433,-75.623 1069.7451,-78.4948 1073.7618,-84.2277"/>
</g>
<!-- Node18&#45;&gt;Node16 -->
<g id="edge49" class="edge">
<title>Node18&#45;&gt;Node16</title>
<path fill="none" stroke="#191970" d="M1504.3178,-336.4718C1441.6372,-310.4815 1268.1331,-233.4647 1150,-132 1133.7222,-118.019 1118.771,-98.5152 1108.9286,-84.3372"/>
<polygon fill="#191970" stroke="#191970" points="1111.7307,-82.2325 1103.236,-75.9009 1105.9282,-86.1479 1111.7307,-82.2325"/>
</g>
<!-- Node19 -->
<g id="node20" class="node">
<title>Node19</title>
<g id="a_node20"><a xlink:href="Position_8h.html" target="_top" xlink:title="iDynTree/Core/Position.h">
<polygon fill="none" stroke="#000000" points="1449,-280.5 1449,-299.5 1585,-299.5 1585,-280.5 1449,-280.5"/>
<text text-anchor="middle" x="1517" y="-287.5" font-family="FreeSans.ttf" font-size="10.00" fill="#000000">iDynTree/Core/Position.h</text>
</a>
</g>
</g>
<!-- Node18&#45;&gt;Node19 -->
<g id="edge21" class="edge">
<title>Node18&#45;&gt;Node19</title>
<path fill="none" stroke="#191970" d="M1526.0839,-336.2455C1524.6486,-328.9382 1522.6364,-318.6944 1520.8705,-309.7046"/>
<polygon fill="#191970" stroke="#191970" points="1524.256,-308.7805 1518.8941,-299.6427 1517.3873,-310.1298 1524.256,-308.7805"/>
</g>
<!-- Node25 -->
<g id="node26" class="node">
<title>Node25</title>
<g id="a_node26"><a xlink:href="Rotation_8h.html" target="_top" xlink:title="iDynTree/Core/Rotation.h">
<polygon fill="none" stroke="#000000" points="1582.5,-224.5 1582.5,-243.5 1719.5,-243.5 1719.5,-224.5 1582.5,-224.5"/>
<text text-anchor="middle" x="1651" y="-231.5" font-family="FreeSans.ttf" font-size="10.00" fill="#000000">iDynTree/Core/Rotation.h</text>
</a>
</g>
</g>
<!-- Node18&#45;&gt;Node25 -->
<g id="edge47" class="edge">
<title>Node18&#45;&gt;Node25</title>
<path fill="none" stroke="#191970" d="M1544.0199,-336.4304C1557.92,-327.7654 1578.2309,-314.2136 1594,-300 1610.4208,-285.199 1626.6532,-265.8107 1637.57,-251.8832"/>
<polygon fill="#191970" stroke="#191970" points="1640.6015,-253.6826 1643.9249,-243.6225 1635.0533,-249.4144 1640.6015,-253.6826"/>
</g>
<!-- Node28 -->
<g id="node29" class="node">
<title>Node28</title>
<g id="a_node29"><a xlink:href="MatrixFixSize_8h.html" target="_top" xlink:title="iDynTree/Core/MatrixFixSize.h">
<polygon fill="none" stroke="#000000" points="1971.5,-112.5 1971.5,-131.5 2132.5,-131.5 2132.5,-112.5 1971.5,-112.5"/>
<text text-anchor="middle" x="2052" y="-119.5" font-family="FreeSans.ttf" font-size="10.00" fill="#000000">iDynTree/Core/MatrixFixSize.h</text>
</a>
</g>
</g>
<!-- Node18&#45;&gt;Node28 -->
<g id="edge48" class="edge">
<title>Node18&#45;&gt;Node28</title>
<path fill="none" stroke="#191970" d="M1547.8951,-336.3432C1605.3642,-308.5996 1776.8335,-226.8824 1923,-168 1952.9842,-155.921 1987.5033,-143.6981 2013.2841,-134.8907"/>
<polygon fill="#191970" stroke="#191970" points="2014.714,-138.1015 2023.0578,-131.5722 2012.4635,-131.4732 2014.714,-138.1015"/>
</g>
<!-- Node19&#45;&gt;Node16 -->
<g id="edge46" class="edge">
<title>Node19&#45;&gt;Node16</title>
<path fill="none" stroke="#191970" d="M1492.2928,-280.3356C1435.8063,-257.8059 1293.6457,-198.6235 1184,-132 1159.3032,-116.9936 1133.1722,-96.4583 1116.0708,-82.2986"/>
<polygon fill="#191970" stroke="#191970" points="1117.9184,-79.2803 1108.0064,-75.5382 1113.4213,-84.6447 1117.9184,-79.2803"/>
</g>
<!-- Node20 -->
<g id="node21" class="node">
<title>Node20</title>
<g id="a_node21"><a xlink:href="PositionRaw_8h.html" target="_top" xlink:title="iDynTree/Core/PositionRaw.h">
<polygon fill="none" stroke="#000000" points="1315,-168.5 1315,-187.5 1471,-187.5 1471,-168.5 1315,-168.5"/>
<text text-anchor="middle" x="1393" y="-175.5" font-family="FreeSans.ttf" font-size="10.00" fill="#000000">iDynTree/Core/PositionRaw.h</text>
</a>
</g>
</g>
<!-- Node19&#45;&gt;Node20 -->
<g id="edge22" class="edge">
<title>Node19&#45;&gt;Node20</title>
<path fill="none" stroke="#191970" d="M1506.4278,-280.4509C1485.2885,-261.3574 1437.5844,-218.2697 1411.2749,-194.5063"/>
<polygon fill="#191970" stroke="#191970" points="1413.3125,-191.6304 1403.5454,-187.5249 1408.6204,-196.8251 1413.3125,-191.6304"/>
</g>
<!-- Node19&#45;&gt;Node25 -->
<g id="edge32" class="edge">
<title>Node19&#45;&gt;Node25</title>
<path fill="none" stroke="#191970" d="M1540.0354,-280.3733C1561.7388,-271.3032 1594.4618,-257.6279 1618.755,-247.4755"/>
<polygon fill="#191970" stroke="#191970" points="1620.3881,-250.5865 1628.2652,-243.5011 1617.6889,-244.1278 1620.3881,-250.5865"/>
</g>
<!-- Node20&#45;&gt;Node16 -->
<g id="edge31" class="edge">
<title>Node20&#45;&gt;Node16</title>
<path fill="none" stroke="#191970" d="M1353.7834,-168.4831C1321.4529,-160.1872 1274.6352,-147.1322 1235,-132 1195.2729,-116.8327 1151.2544,-94.8186 1123.8547,-80.4564"/>
<polygon fill="#191970" stroke="#191970" points="1125.3671,-77.297 1114.8904,-75.7191 1122.0965,-83.486 1125.3671,-77.297"/>
</g>
<!-- Node21 -->
<g id="node22" class="node">
<title>Node21</title>
<g id="a_node22"><a xlink:href="VectorFixSize_8h.html" target="_top" xlink:title="iDynTree/Core/VectorFixSize.h">
<polygon fill="none" stroke="#000000" points="1792.5,-112.5 1792.5,-131.5 1953.5,-131.5 1953.5,-112.5 1792.5,-112.5"/>
<text text-anchor="middle" x="1873" y="-119.5" font-family="FreeSans.ttf" font-size="10.00" fill="#000000">iDynTree/Core/VectorFixSize.h</text>
</a>
</g>
</g>
<!-- Node20&#45;&gt;Node21 -->
<g id="edge23" class="edge">
<title>Node20&#45;&gt;Node21</title>
<path fill="none" stroke="#191970" d="M1471.1886,-168.878C1556.3678,-158.9404 1692.4478,-143.0644 1782.2679,-132.5854"/>
<polygon fill="#191970" stroke="#191970" points="1782.9141,-136.0339 1792.4411,-131.3985 1782.1028,-129.081 1782.9141,-136.0339"/>
</g>
<!-- Node21&#45;&gt;Node7 -->
<g id="edge26" class="edge">
<title>Node21&#45;&gt;Node7</title>
<path fill="none" stroke="#191970" d="M1869.5163,-112.2455C1866.8492,-104.7776 1863.0867,-94.2427 1859.8263,-85.1137"/>
<polygon fill="#191970" stroke="#191970" points="1863.1033,-83.8829 1856.4438,-75.6427 1856.5111,-86.2373 1863.1033,-83.8829"/>
</g>
<!-- Node21&#45;&gt;Node8 -->
<g id="edge29" class="edge">
<title>Node21&#45;&gt;Node8</title>
<path fill="none" stroke="#191970" d="M1884.9709,-112.4471C1902.0088,-99.0557 1934.4674,-74.2931 1964,-56 1982.9192,-44.2811 2005.1351,-32.6838 2022.5119,-24.0656"/>
<polygon fill="#191970" stroke="#191970" points="2024.1778,-27.1469 2031.6161,-19.6023 2021.0964,-20.8616 2024.1778,-27.1469"/>
</g>
<!-- Node21&#45;&gt;Node16 -->
<g id="edge27" class="edge">
<title>Node21&#45;&gt;Node16</title>
<path fill="none" stroke="#191970" d="M1792.1504,-116.1655C1623.8643,-104.0211 1242.1914,-76.4777 1129.1326,-68.3188"/>
<polygon fill="#191970" stroke="#191970" points="1129.2721,-64.8199 1119.0461,-67.591 1128.7682,-71.8017 1129.2721,-64.8199"/>
</g>
<!-- Node21&#45;&gt;Node22 -->
<g id="edge24" class="edge">
<title>Node21&#45;&gt;Node22</title>
<path fill="none" stroke="#191970" d="M1794.5365,-112.4686C1706.7336,-101.8028 1565.802,-84.6831 1481.7257,-74.4699"/>
<polygon fill="#191970" stroke="#191970" points="1482.1108,-70.9911 1471.7617,-73.2596 1481.2666,-77.94 1482.1108,-70.9911"/>
</g>
<!-- Node21&#45;&gt;Node23 -->
<g id="edge28" class="edge">
<title>Node21&#45;&gt;Node23</title>
<path fill="none" stroke="#191970" d="M1940.612,-112.4835C1997.5016,-104.0961 2080.8779,-90.9133 2153,-76 2153.5915,-75.8777 2154.1874,-75.7526 2154.7868,-75.625"/>
<polygon fill="#191970" stroke="#191970" points="2155.6782,-79.0119 2164.659,-73.3909 2154.133,-72.1845 2155.6782,-79.0119"/>
</g>
<!-- Node24 -->
<g id="node25" class="node">
<title>Node24</title>
<polygon fill="none" stroke="#bfbfbf" points="1973,-56.5 1973,-75.5 2023,-75.5 2023,-56.5 1973,-56.5"/>
<text text-anchor="middle" x="1998" y="-63.5" font-family="FreeSans.ttf" font-size="10.00" fill="#000000">cstring</text>
</g>
<!-- Node21&#45;&gt;Node24 -->
<g id="edge30" class="edge">
<title>Node21&#45;&gt;Node24</title>
<path fill="none" stroke="#191970" d="M1894.4883,-112.3733C1914.644,-103.3435 1944.988,-89.7494 1967.618,-79.6111"/>
<polygon fill="#191970" stroke="#191970" points="1969.0971,-82.7838 1976.7921,-75.5011 1966.2351,-76.3955 1969.0971,-82.7838"/>
</g>
<!-- Node22&#45;&gt;Node4 -->
<g id="edge25" class="edge">
<title>Node22&#45;&gt;Node4</title>
<path fill="none" stroke="#191970" d="M1352.4889,-61.2255C1212.4421,-49.9896 865.2664,-22.136 751.0679,-12.9739"/>
<polygon fill="#191970" stroke="#191970" points="751.0064,-9.4578 740.7585,-12.1468 750.4466,-16.4354 751.0064,-9.4578"/>
</g>
<!-- Node25&#45;&gt;Node16 -->
<g id="edge33" class="edge">
<title>Node25&#45;&gt;Node16</title>
<path fill="none" stroke="#191970" d="M1628.5979,-224.4586C1596.1902,-210.8616 1534.1708,-185.6104 1480,-168 1445.9644,-156.9354 1214.3038,-96.4907 1128.7032,-74.2326"/>
<polygon fill="#191970" stroke="#191970" points="1129.5702,-70.8417 1119.0113,-71.7133 1127.8091,-77.6166 1129.5702,-70.8417"/>
</g>
<!-- Node25&#45;&gt;Node21 -->
<g id="edge45" class="edge">
<title>Node25&#45;&gt;Node21</title>
<path fill="none" stroke="#191970" d="M1632.343,-224.4262C1609.7876,-211.6255 1576.8566,-188.2013 1594,-168 1606.2737,-153.537 1705.427,-139.7703 1782.0784,-131.1312"/>
<polygon fill="#191970" stroke="#191970" points="1782.7052,-134.5832 1792.2569,-129.999 1781.9313,-127.6261 1782.7052,-134.5832"/>
</g>
<!-- Node26 -->
<g id="node27" class="node">
<title>Node26</title>
<g id="a_node27"><a xlink:href="GeomVector3_8h.html" target="_top" xlink:title="iDynTree/Core/GeomVector3.h">
<polygon fill="none" stroke="#000000" points="1931.5,-168.5 1931.5,-187.5 2094.5,-187.5 2094.5,-168.5 1931.5,-168.5"/>
<text text-anchor="middle" x="2013" y="-175.5" font-family="FreeSans.ttf" font-size="10.00" fill="#000000">iDynTree/Core/GeomVector3.h</text>
</a>
</g>
</g>
<!-- Node25&#45;&gt;Node26 -->
<g id="edge34" class="edge">
<title>Node25&#45;&gt;Node26</title>
<path fill="none" stroke="#191970" d="M1712.8187,-224.4369C1776.2039,-214.6314 1874.6921,-199.3957 1941.42,-189.0731"/>
<polygon fill="#191970" stroke="#191970" points="1942.0889,-192.5114 1951.4363,-187.5237 1941.0187,-185.5937 1942.0889,-192.5114"/>
</g>
<!-- Node27 -->
<g id="node28" class="node">
<title>Node27</title>
<g id="a_node28"><a xlink:href="RotationRaw_8h.html" target="_top" xlink:title="iDynTree/Core/RotationRaw.h">
<polygon fill="none" stroke="#000000" points="1603,-168.5 1603,-187.5 1761,-187.5 1761,-168.5 1603,-168.5"/>
<text text-anchor="middle" x="1682" y="-175.5" font-family="FreeSans.ttf" font-size="10.00" fill="#000000">iDynTree/Core/RotationRaw.h</text>
</a>
</g>
</g>
<!-- Node25&#45;&gt;Node27 -->
<g id="edge36" class="edge">
<title>Node25&#45;&gt;Node27</title>
<path fill="none" stroke="#191970" d="M1656.3998,-224.2455C1660.6227,-216.617 1666.6173,-205.7881 1671.7441,-196.5267"/>
<polygon fill="#191970" stroke="#191970" points="1674.881,-198.0867 1676.6621,-187.6427 1668.7568,-194.6965 1674.881,-198.0867"/>
</g>
<!-- Node26&#45;&gt;Node21 -->
<g id="edge35" class="edge">
<title>Node26&#45;&gt;Node21</title>
<path fill="none" stroke="#191970" d="M1988.9331,-168.3733C1966.1572,-159.2629 1931.7656,-145.5062 1906.351,-135.3404"/>
<polygon fill="#191970" stroke="#191970" points="1907.3375,-131.9654 1896.7528,-131.5011 1904.7377,-138.4648 1907.3375,-131.9654"/>
</g>
<!-- Node27&#45;&gt;Node16 -->
<g id="edge44" class="edge">
<title>Node27&#45;&gt;Node16</title>
<path fill="none" stroke="#191970" d="M1632.3756,-168.4993C1515.6384,-146.1496 1226.1901,-90.7338 1129.2337,-72.1712"/>
<polygon fill="#191970" stroke="#191970" points="1129.6403,-68.6856 1119.1605,-70.2427 1128.324,-75.5607 1129.6403,-68.6856"/>
</g>
<!-- Node27&#45;&gt;Node28 -->
<g id="edge37" class="edge">
<title>Node27&#45;&gt;Node28</title>
<path fill="none" stroke="#191970" d="M1745.1849,-168.4369C1809.9708,-158.6314 1910.6356,-143.3957 1978.8382,-133.0731"/>
<polygon fill="#191970" stroke="#191970" points="1979.7121,-136.4808 1989.0757,-131.5237 1978.6646,-129.5596 1979.7121,-136.4808"/>
</g>
<!-- Node28&#45;&gt;Node8 -->
<g id="edge39" class="edge">
<title>Node28&#45;&gt;Node8</title>
<path fill="none" stroke="#191970" d="M2052,-112.4509C2052,-94.184 2052,-53.9553 2052,-29.6976"/>
<polygon fill="#191970" stroke="#191970" points="2055.5001,-29.5249 2052,-19.5249 2048.5001,-29.5249 2055.5001,-29.5249"/>
</g>
<!-- Node28&#45;&gt;Node16 -->
<g id="edge41" class="edge">
<title>Node28&#45;&gt;Node16</title>
<path fill="none" stroke="#191970" d="M1971.4905,-112.7392C1968.6262,-112.4782 1965.7892,-112.2306 1963,-112 1796.2736,-98.2173 1266.4108,-73.699 1129.526,-67.4705"/>
<polygon fill="#191970" stroke="#191970" points="1129.4332,-63.9628 1119.2846,-67.0053 1129.1155,-70.9556 1129.4332,-63.9628"/>
</g>
<!-- Node28&#45;&gt;Node22 -->
<g id="edge38" class="edge">
<title>Node28&#45;&gt;Node22</title>
<path fill="none" stroke="#191970" d="M1971.4806,-112.8485C1968.6192,-112.5565 1965.7854,-112.2727 1963,-112 1790.1055,-95.0733 1586.2981,-79.0901 1481.6878,-71.1756"/>
<polygon fill="#191970" stroke="#191970" points="1481.8072,-67.6747 1471.5721,-70.412 1481.2803,-74.6549 1481.8072,-67.6747"/>
</g>
<!-- Node28&#45;&gt;Node23 -->
<g id="edge43" class="edge">
<title>Node28&#45;&gt;Node23</title>
<path fill="none" stroke="#191970" d="M2076.2388,-112.3733C2099.2789,-103.2226 2134.1214,-89.3844 2159.7501,-79.2057"/>
<polygon fill="#191970" stroke="#191970" points="2161.0756,-82.4452 2169.0775,-75.5011 2158.4918,-75.9395 2161.0756,-82.4452"/>
</g>
<!-- Node28&#45;&gt;Node24 -->
<g id="edge40" class="edge">
<title>Node28&#45;&gt;Node24</title>
<path fill="none" stroke="#191970" d="M2042.5939,-112.2455C2034.8507,-104.2155 2023.688,-92.6394 2014.4682,-83.0781"/>
<polygon fill="#191970" stroke="#191970" points="2016.7591,-80.4117 2007.2983,-75.6427 2011.7202,-85.2706 2016.7591,-80.4117"/>
</g>
<!-- Node29 -->
<g id="node30" class="node">
<title>Node29</title>
<polygon fill="none" stroke="#bfbfbf" points="2084,-56.5 2084,-75.5 2144,-75.5 2144,-56.5 2084,-56.5"/>
<text text-anchor="middle" x="2114" y="-63.5" font-family="FreeSans.ttf" font-size="10.00" fill="#000000">iostream</text>
</g>
<!-- Node28&#45;&gt;Node29 -->
<g id="edge42" class="edge">
<title>Node28&#45;&gt;Node29</title>
<path fill="none" stroke="#191970" d="M2062.7996,-112.2455C2071.8678,-104.0549 2085.0206,-92.1749 2095.7245,-82.5069"/>
<polygon fill="#191970" stroke="#191970" points="2098.2491,-84.9429 2103.3242,-75.6427 2093.5571,-79.7482 2098.2491,-84.9429"/>
</g>
<!-- Node30&#45;&gt;Node3 -->
<g id="edge51" class="edge">
<title>Node30&#45;&gt;Node3</title>
<path fill="none" stroke="#191970" d="M287.8329,-397.8336C280.899,-387.9013 270.7612,-371.7122 266,-356 261.4636,-341.0299 260.3379,-323.3189 260.2782,-310.0147"/>
<polygon fill="#191970" stroke="#191970" points="263.7837,-309.6909 260.4414,-299.6371 256.7845,-309.5808 263.7837,-309.6909"/>
</g>
<!-- Node30&#45;&gt;Node31 -->
<g id="edge52" class="edge">
<title>Node30&#45;&gt;Node31</title>
<path fill="none" stroke="#191970" d="M310.7813,-397.8906C327.0875,-387.9616 352.754,-372.333 371.6614,-360.8201"/>
<polygon fill="#191970" stroke="#191970" points="373.6087,-363.7322 380.3296,-355.5419 369.9681,-357.7533 373.6087,-363.7322"/>
</g>
<!-- Node31&#45;&gt;Node3 -->
<g id="edge54" class="edge">
<title>Node31&#45;&gt;Node3</title>
<path fill="none" stroke="#191970" d="M372.7927,-336.3733C350.8301,-327.2629 317.6668,-313.5062 293.1599,-303.3404"/>
<polygon fill="#191970" stroke="#191970" points="294.4824,-300.0999 283.9045,-299.5011 291.8003,-306.5657 294.4824,-300.0999"/>
</g>
<!-- Node31&#45;&gt;Node4 -->
<g id="edge55" class="edge">
<title>Node31&#45;&gt;Node4</title>
<path fill="none" stroke="#191970" d="M409.4013,-336.2421C431.9403,-318.5868 475,-278.9723 475,-234 475,-234 475,-234 475,-122 475,-77.8695 610.2963,-36.7434 677.2973,-19.0827"/>
<polygon fill="#191970" stroke="#191970" points="678.2487,-22.4518 687.0482,-16.5512 676.4896,-15.6764 678.2487,-22.4518"/>
</g>
<!-- Node31&#45;&gt;Node32 -->
<g id="edge53" class="edge">
<title>Node31&#45;&gt;Node32</title>
<path fill="none" stroke="#191970" d="M432.1003,-336.3733C471.4397,-325.8827 533.8812,-309.2317 572.2642,-298.9962"/>
<polygon fill="#191970" stroke="#191970" points="573.6525,-302.2484 582.413,-296.2899 571.8488,-295.4847 573.6525,-302.2484"/>
</g>
<!-- Node33&#45;&gt;Node4 -->
<g id="edge61" class="edge">
<title>Node33&#45;&gt;Node4</title>
<path fill="none" stroke="#191970" d="M817.5556,-336.4207C810.1245,-327.5377 799.5036,-313.6676 793,-300 747.4381,-204.2491 724.4314,-77.782 716.8803,-29.6949"/>
<polygon fill="#191970" stroke="#191970" points="720.3235,-29.0566 715.3585,-19.6972 713.4032,-30.11 720.3235,-29.0566"/>
</g>
<!-- Node33&#45;&gt;Node16 -->
<g id="edge63" class="edge">
<title>Node33&#45;&gt;Node16</title>
<path fill="none" stroke="#191970" d="M820.6881,-336.4462C810.6741,-317.5117 790,-273.623 790,-234 790,-234 790,-234 790,-178 790,-120.0209 985.6878,-83.2302 1064.5948,-70.7518"/>
<polygon fill="#191970" stroke="#191970" points="1065.5747,-74.1419 1074.9213,-69.1528 1064.5035,-67.2243 1065.5747,-74.1419"/>
</g>
<!-- Node33&#45;&gt;Node22 -->
<g id="edge59" class="edge">
<title>Node33&#45;&gt;Node22</title>
<path fill="none" stroke="#191970" d="M844.1485,-336.394C925.1202,-293.5492 1250.4185,-121.572 1273,-112 1304.1612,-98.7912 1340.5095,-86.8788 1368.2195,-78.4874"/>
<polygon fill="#191970" stroke="#191970" points="1369.4339,-81.7775 1378.0121,-75.5593 1367.4285,-75.0709 1369.4339,-81.7775"/>
</g>
<!-- Node33&#45;&gt;Node32 -->
<g id="edge60" class="edge">
<title>Node33&#45;&gt;Node32</title>
<path fill="none" stroke="#191970" d="M788.1807,-336.3733C746.3647,-325.7292 679.6329,-308.7429 639.5929,-298.5509"/>
<polygon fill="#191970" stroke="#191970" points="640.3318,-295.1275 629.7774,-296.0524 638.605,-301.9111 640.3318,-295.1275"/>
</g>
<!-- Node34 -->
<g id="node35" class="node">
<title>Node34</title>
<polygon fill="none" stroke="#bfbfbf" points="818,-280.5 818,-299.5 904,-299.5 904,-280.5 818,-280.5"/>
<text text-anchor="middle" x="861" y="-287.5" font-family="FreeSans.ttf" font-size="10.00" fill="#000000">unordered_set</text>
</g>
<!-- Node33&#45;&gt;Node34 -->
<g id="edge62" class="edge">
<title>Node33&#45;&gt;Node34</title>
<path fill="none" stroke="#191970" d="M832.0965,-336.2455C836.9145,-328.5367 843.7751,-317.5598 849.6032,-308.2348"/>
<polygon fill="#191970" stroke="#191970" points="852.6413,-309.9777 854.9733,-299.6427 846.7053,-306.2677 852.6413,-309.9777"/>
</g>
<!-- Node35&#45;&gt;Node3 -->
<g id="edge65" class="edge">
<title>Node35&#45;&gt;Node3</title>
<path fill="none" stroke="#191970" d="M852.6885,-467.2079C695.4583,-453.3405 386.3211,-418.7981 299,-356 283.1268,-344.5846 272.9122,-324.3352 267.1154,-309.2665"/>
<polygon fill="#191970" stroke="#191970" points="270.4164,-308.1032 263.7927,-299.8342 263.8141,-310.429 270.4164,-308.1032"/>
</g>
<!-- Node35&#45;&gt;Node5 -->
<g id="edge70" class="edge">
<title>Node35&#45;&gt;Node5</title>
<path fill="none" stroke="#191970" d="M986.2465,-464.9717C1036.8143,-452.9998 1123.6124,-432.4504 1178.5607,-419.4415"/>
<polygon fill="#191970" stroke="#191970" points="1179.5095,-422.8137 1188.4342,-417.1039 1177.8968,-416.002 1179.5095,-422.8137"/>
</g>
<!-- Node35&#45;&gt;Node16 -->
<g id="edge67" class="edge">
<title>Node35&#45;&gt;Node16</title>
<path fill="none" stroke="#191970" d="M939.5929,-464.7432C933.4377,-454.7405 924.5628,-438.4978 921,-423 917.9131,-409.5725 920.2603,-405.7579 921,-392 923.448,-346.4696 932,-335.5962 932,-290 932,-290 932,-290 932,-178 932,-146.7875 933.5637,-133.6988 956,-112 985.5998,-83.3732 1033.2423,-72.5612 1064.8339,-68.4778"/>
<polygon fill="#191970" stroke="#191970" points="1065.3426,-71.9426 1074.8831,-67.335 1064.5516,-64.9875 1065.3426,-71.9426"/>
</g>
<!-- Node35&#45;&gt;Node22 -->
<g id="edge68" class="edge">
<title>Node35&#45;&gt;Node22</title>
<path fill="none" stroke="#191970" d="M1039.3262,-470.8924C1134.8461,-465.5966 1275.4161,-452.8672 1320,-423 1355.2045,-399.4161 1366.2499,-377.7492 1359,-336 1345.6043,-258.8603 1275.3441,-240.043 1306,-168 1322.3696,-129.5306 1361.1471,-98.5523 1386.9816,-81.2147"/>
<polygon fill="#191970" stroke="#191970" points="1389.0465,-84.0469 1395.5219,-75.6612 1385.2304,-78.1786 1389.0465,-84.0469"/>
</g>
<!-- Node35&#45;&gt;Node32 -->
<g id="edge66" class="edge">
<title>Node35&#45;&gt;Node32</title>
<path fill="none" stroke="#191970" d="M852.8131,-467.2819C781.3051,-460.0134 690.0592,-446.4379 661,-423 625.6301,-394.4723 612.7571,-339.3574 608.2674,-309.8264"/>
<polygon fill="#191970" stroke="#191970" points="611.6864,-308.9874 606.8896,-299.5407 604.7483,-309.9169 611.6864,-308.9874"/>
</g>
<!-- Node35&#45;&gt;Node33 -->
<g id="edge69" class="edge">
<title>Node35&#45;&gt;Node33</title>
<path fill="none" stroke="#191970" d="M933.6651,-464.8474C921.3056,-454.9257 902.0117,-438.7447 887,-423 868.9967,-404.1176 850.7276,-380.3067 838.939,-364.2001"/>
<polygon fill="#191970" stroke="#191970" points="841.4921,-361.7574 832.7979,-355.7025 835.8186,-365.8576 841.4921,-361.7574"/>
</g>
<!-- Node36&#45;&gt;Node6 -->
<g id="edge72" class="edge">
<title>Node36&#45;&gt;Node6</title>
<path fill="none" stroke="#191970" d="M1049.7191,-397.9581C1094.5603,-387.1857 1167.5843,-369.6428 1216.2025,-357.9631"/>
<polygon fill="#191970" stroke="#191970" points="1217.2819,-361.3034 1226.1877,-355.5643 1215.6468,-354.4971 1217.2819,-361.3034"/>
</g>
<!-- Node36&#45;&gt;Node33 -->
<g id="edge73" class="edge">
<title>Node36&#45;&gt;Node33</title>
<path fill="none" stroke="#191970" d="M981.25,-397.8906C949.7883,-387.3749 899.1992,-370.466 864.3686,-358.8243"/>
<polygon fill="#191970" stroke="#191970" points="865.1419,-355.3925 854.5481,-355.5419 862.9228,-362.0315 865.1419,-355.3925"/>
</g>
<!-- Node37&#45;&gt;Node3 -->
<g id="edge80" class="edge">
<title>Node37&#45;&gt;Node3</title>
<path fill="none" stroke="#191970" d="M713.9449,-397.8254C688.7551,-382.1304 635.9953,-351.3344 587,-336 486.7051,-304.61 362.3151,-294.5812 300.1764,-291.4218"/>
<polygon fill="#191970" stroke="#191970" points="300.1887,-287.9185 290.0338,-290.9396 299.8563,-294.9106 300.1887,-287.9185"/>
</g>
<!-- Node37&#45;&gt;Node6 -->
<g id="edge75" class="edge">
<title>Node37&#45;&gt;Node6</title>
<path fill="none" stroke="#191970" d="M788.5202,-400.6834C881.6003,-390.0234 1062.3698,-369.3208 1172.818,-356.6717"/>
<polygon fill="#191970" stroke="#191970" points="1173.4149,-360.1263 1182.9517,-355.5111 1172.6184,-353.1717 1173.4149,-360.1263"/>
</g>
<!-- Node37&#45;&gt;Node16 -->
<g id="edge79" class="edge">
<title>Node37&#45;&gt;Node16</title>
<path fill="none" stroke="#191970" d="M728.3258,-397.7666C725.8567,-353.2732 722.441,-168.9698 830,-112 870.3739,-90.6155 1003.2203,-75.1974 1064.9479,-69.0045"/>
<polygon fill="#191970" stroke="#191970" points="1065.3064,-72.4863 1074.9152,-68.023 1064.6203,-65.52 1065.3064,-72.4863"/>
</g>
<!-- Node37&#45;&gt;Node17 -->
<g id="edge76" class="edge">
<title>Node37&#45;&gt;Node17</title>
<path fill="none" stroke="#191970" d="M783.6138,-397.9581C846.5231,-386.9668 949.7745,-368.9272 1016.561,-357.2585"/>
<polygon fill="#191970" stroke="#191970" points="1017.2993,-360.6826 1026.5477,-355.5137 1016.0945,-353.7871 1017.2993,-360.6826"/>
</g>
<!-- Node37&#45;&gt;Node32 -->
<g id="edge78" class="edge">
<title>Node37&#45;&gt;Node32</title>
<path fill="none" stroke="#191970" d="M719.5491,-397.5848C706.1241,-383.5926 680.6437,-357.3747 658,-336 647.3177,-325.9164 635.021,-315.0081 625.068,-306.3458"/>
<polygon fill="#191970" stroke="#191970" points="627.1983,-303.5608 617.3457,-299.6651 622.6185,-308.8547 627.1983,-303.5608"/>
</g>
<!-- Node37&#45;&gt;Node33 -->
<g id="edge77" class="edge">
<title>Node37&#45;&gt;Node33</title>
<path fill="none" stroke="#191970" d="M744.1563,-397.8906C759.6743,-388.0519 784.0193,-372.6167 802.1284,-361.1351"/>
<polygon fill="#191970" stroke="#191970" points="804.3787,-363.8526 810.9502,-355.5419 800.6304,-357.9407 804.3787,-363.8526"/>
</g>
<!-- Node37&#45;&gt;Node38 -->
<g id="edge81" class="edge">
<title>Node37&#45;&gt;Node38</title>
<path fill="none" stroke="#191970" d="M702.4375,-397.8906C671.2597,-386.6116 619.7514,-367.9777 587.6842,-356.3769"/>
<polygon fill="#191970" stroke="#191970" points="588.6006,-352.9865 578.0063,-352.8758 586.2192,-359.569 588.6006,-352.9865"/>
</g>
<!-- Node41&#45;&gt;Node6 -->
<g id="edge89" class="edge">
<title>Node41&#45;&gt;Node6</title>
<path fill="none" stroke="#191970" d="M1635.879,-464.8121C1619.0745,-445.0154 1580.5904,-401.0266 1563,-392 1528.362,-374.2253 1433.1834,-361.5422 1359.8167,-354.0547"/>
<polygon fill="#191970" stroke="#191970" points="1359.9169,-350.5472 1349.6177,-353.0326 1359.2189,-357.5124 1359.9169,-350.5472"/>
</g>
<!-- Node41&#45;&gt;Node17 -->
<g id="edge91" class="edge">
<title>Node41&#45;&gt;Node17</title>
<path fill="none" stroke="#191970" d="M1626.939,-464.9208C1610.1056,-455.1812 1583.9277,-439.2503 1563,-423 1547.1059,-410.6583 1548.3124,-400.3424 1530,-392 1460.2549,-360.2268 1267.6951,-363.9235 1174.6783,-355.9663"/>
<polygon fill="#191970" stroke="#191970" points="1174.9335,-352.4749 1164.6488,-355.0198 1174.2757,-359.4439 1174.9335,-352.4749"/>
</g>
<!-- Node41&#45;&gt;Node18 -->
<g id="edge107" class="edge">
<title>Node41&#45;&gt;Node18</title>
<path fill="none" stroke="#191970" d="M1640.8652,-464.8565C1635.1208,-448.3564 1621.5754,-414.3315 1601,-392 1589.0099,-378.9865 1572.5421,-368.1885 1558.2818,-360.3322"/>
<polygon fill="#191970" stroke="#191970" points="1559.7776,-357.1642 1549.2988,-355.6005 1556.5153,-363.3576 1559.7776,-357.1642"/>
</g>
<!-- Node41&#45;&gt;Node21 -->
<g id="edge90" class="edge">
<title>Node41&#45;&gt;Node21</title>
<path fill="none" stroke="#191970" d="M1685.5255,-464.9721C1739.5182,-449.8375 1827,-414.7134 1827,-346 1827,-346 1827,-346 1827,-234 1827,-198.66 1846.8391,-161.4332 1860.4597,-140.0395"/>
<polygon fill="#191970" stroke="#191970" points="1863.4179,-141.9114 1866.0136,-131.6394 1857.5788,-138.0507 1863.4179,-141.9114"/>
</g>
<!-- Node41&#45;&gt;Node22 -->
<g id="edge108" class="edge">
<title>Node41&#45;&gt;Node22</title>
<path fill="none" stroke="#191970" d="M1643.1269,-464.5952C1640.1736,-434.932 1628.7214,-344.8563 1594,-280 1549.2724,-196.4529 1467.5941,-116.4486 1430.8233,-82.7393"/>
<polygon fill="#191970" stroke="#191970" points="1433.0451,-80.0292 1423.2864,-75.9038 1428.3425,-85.2144 1433.0451,-80.0292"/>
</g>
<!-- Node41&#45;&gt;Node28 -->
<g id="edge92" class="edge">
<title>Node41&#45;&gt;Node28</title>
<path fill="none" stroke="#191970" d="M1724.5537,-471.1313C1868.0715,-464.5227 2156.6343,-448.2636 2195,-423 2227.5574,-401.5612 2237,-384.9821 2237,-346 2237,-346 2237,-346 2237,-234 2237,-176.652 2171.141,-147.8663 2118.0129,-133.9749"/>
<polygon fill="#191970" stroke="#191970" points="2118.8086,-130.5663 2108.2596,-131.5509 2117.1201,-137.3596 2118.8086,-130.5663"/>
</g>
<!-- Node41&#45;&gt;Node40 -->
<g id="edge88" class="edge">
<title>Node41&#45;&gt;Node40</title>
<path fill="none" stroke="#191970" d="M1620.7893,-464.9005C1593.0006,-453.4077 1546.2772,-434.0838 1514.8062,-421.068"/>
<polygon fill="#191970" stroke="#191970" points="1515.7461,-417.6693 1505.1676,-417.0817 1513.0708,-424.1379 1515.7461,-417.6693"/>
</g>
<!-- Node42 -->
<g id="node43" class="node">
<title>Node42</title>
<g id="a_node43"><a xlink:href="SpatialMotionVector_8h.html" target="_top" xlink:title="iDynTree/Core/SpatialMotion\lVector.h">
<polygon fill="none" stroke="#000000" points="1855.5,-392.5 1855.5,-422.5 2010.5,-422.5 2010.5,-392.5 1855.5,-392.5"/>
<text text-anchor="start" x="1863.5" y="-410.5" font-family="FreeSans.ttf" font-size="10.00" fill="#000000">iDynTree/Core/SpatialMotion</text>
<text text-anchor="middle" x="1933" y="-399.5" font-family="FreeSans.ttf" font-size="10.00" fill="#000000">Vector.h</text>
</a>
</g>
</g>
<!-- Node41&#45;&gt;Node42 -->
<g id="edge93" class="edge">
<title>Node41&#45;&gt;Node42</title>
<path fill="none" stroke="#191970" d="M1685.0997,-464.9717C1729.9913,-454.5643 1802.843,-437.6748 1857.9811,-424.8919"/>
<polygon fill="#191970" stroke="#191970" points="1859.1086,-428.2234 1868.0598,-422.5553 1857.5276,-421.4043 1859.1086,-428.2234"/>
</g>
<!-- Node44 -->
<g id="node45" class="node">
<title>Node44</title>
<g id="a_node45"><a xlink:href="SpatialForceVector_8h.html" target="_top" xlink:title="iDynTree/Core/SpatialForce\lVector.h">
<polygon fill="none" stroke="#000000" points="2038,-392.5 2038,-422.5 2186,-422.5 2186,-392.5 2038,-392.5"/>
<text text-anchor="start" x="2046" y="-410.5" font-family="FreeSans.ttf" font-size="10.00" fill="#000000">iDynTree/Core/SpatialForce</text>
<text text-anchor="middle" x="2112" y="-399.5" font-family="FreeSans.ttf" font-size="10.00" fill="#000000">Vector.h</text>
</a>
</g>
</g>
<!-- Node41&#45;&gt;Node44 -->
<g id="edge103" class="edge">
<title>Node41&#45;&gt;Node44</title>
<path fill="none" stroke="#191970" d="M1718.6486,-464.964C1794.5885,-455.1014 1915.6253,-438.9366 2020,-423 2022.5219,-422.6149 2025.0816,-422.2186 2027.6651,-421.8138"/>
<polygon fill="#191970" stroke="#191970" points="2028.3905,-425.2426 2037.7174,-420.2167 2027.2921,-418.3293 2028.3905,-425.2426"/>
</g>
<!-- Node42&#45;&gt;Node21 -->
<g id="edge94" class="edge">
<title>Node42&#45;&gt;Node21</title>
<path fill="none" stroke="#191970" d="M1927.3865,-392.3388C1923.7712,-382.1654 1919.1716,-368.4061 1916,-356 1895.9883,-277.7206 1881.453,-182.4473 1875.7089,-141.8534"/>
<polygon fill="#191970" stroke="#191970" points="1879.1705,-141.335 1874.3246,-131.9134 1872.2374,-142.3006 1879.1705,-141.335"/>
</g>
<!-- Node42&#45;&gt;Node26 -->
<g id="edge95" class="edge">
<title>Node42&#45;&gt;Node26</title>
<path fill="none" stroke="#191970" d="M1927.4099,-392.2261C1922.8647,-377.6049 1917.9622,-355.0226 1923,-336 1937.804,-280.1011 1977.5011,-223.3035 1998.8884,-195.5126"/>
<polygon fill="#191970" stroke="#191970" points="2001.7182,-197.5758 2005.1341,-187.5467 1996.2096,-193.2566 2001.7182,-197.5758"/>
</g>
<!-- Node43 -->
<g id="node44" class="node">
<title>Node43</title>
<g id="a_node44"><a xlink:href="SpatialVector_8h.html" target="_top" xlink:title="iDynTree/Core/SpatialVector.h">
<polygon fill="none" stroke="#000000" points="1931.5,-336.5 1931.5,-355.5 2092.5,-355.5 2092.5,-336.5 1931.5,-336.5"/>
<text text-anchor="middle" x="2012" y="-343.5" font-family="FreeSans.ttf" font-size="10.00" fill="#000000">iDynTree/Core/SpatialVector.h</text>
</a>
</g>
</g>
<!-- Node42&#45;&gt;Node43 -->
<g id="edge96" class="edge">
<title>Node42&#45;&gt;Node43</title>
<path fill="none" stroke="#191970" d="M1952.5281,-392.2977C1964.2937,-383.1384 1979.2675,-371.4816 1991.2465,-362.1562"/>
<polygon fill="#191970" stroke="#191970" points="1993.6103,-364.7516 1999.3511,-355.8469 1989.3102,-359.228 1993.6103,-364.7516"/>
</g>
<!-- Node43&#45;&gt;Node19 -->
<g id="edge97" class="edge">
<title>Node43&#45;&gt;Node19</title>
<path fill="none" stroke="#191970" d="M1931.368,-336.878C1838.5528,-326.3777 1687.1332,-309.2474 1595.3093,-298.8592"/>
<polygon fill="#191970" stroke="#191970" points="1595.5701,-295.3665 1585.24,-297.7201 1594.7832,-302.3221 1595.5701,-295.3665"/>
</g>
<!-- Node43&#45;&gt;Node22 -->
<g id="edge99" class="edge">
<title>Node43&#45;&gt;Node22</title>
<path fill="none" stroke="#191970" d="M2001.8089,-336.3466C1970.088,-306.8036 1869.2772,-216.6773 1770,-168 1673.7081,-120.7864 1551.8246,-91.9231 1477.9886,-77.4586"/>
<polygon fill="#191970" stroke="#191970" points="1478.3784,-73.9694 1467.8966,-75.5128 1477.0531,-80.8428 1478.3784,-73.9694"/>
</g>
<!-- Node43&#45;&gt;Node23 -->
<g id="edge102" class="edge">
<title>Node43&#45;&gt;Node23</title>
<path fill="none" stroke="#191970" d="M2069.632,-336.4664C2124.5771,-323.6951 2199,-295.1162 2199,-234 2199,-234 2199,-234 2199,-178 2199,-145.6653 2196.4755,-108.1547 2194.7016,-85.7876"/>
<polygon fill="#191970" stroke="#191970" points="2198.1698,-85.2576 2193.8597,-75.5791 2191.1935,-85.833 2198.1698,-85.2576"/>
</g>
<!-- Node43&#45;&gt;Node25 -->
<g id="edge98" class="edge">
<title>Node43&#45;&gt;Node25</title>
<path fill="none" stroke="#191970" d="M1981.2213,-336.4509C1916.0821,-316.2415 1764.301,-269.1516 1691.4407,-246.5467"/>
<polygon fill="#191970" stroke="#191970" points="1692.2888,-243.1453 1681.7008,-243.5249 1690.2145,-249.8309 1692.2888,-243.1453"/>
</g>
<!-- Node43&#45;&gt;Node26 -->
<g id="edge100" class="edge">
<title>Node43&#45;&gt;Node26</title>
<path fill="none" stroke="#191970" d="M2012.0566,-336.4862C2012.2147,-309.9293 2012.6633,-234.5651 2012.88,-198.1655"/>
<polygon fill="#191970" stroke="#191970" points="2016.3818,-197.8486 2012.9415,-187.8279 2009.3819,-197.8068 2016.3818,-197.8486"/>
</g>
<!-- Node43&#45;&gt;Node29 -->
<g id="edge101" class="edge">
<title>Node43&#45;&gt;Node29</title>
<path fill="none" stroke="#191970" d="M2020.7,-336.2696C2045.6775,-307.5956 2117.3911,-219.9091 2142,-132 2146.7436,-115.0547 2137.7086,-96.697 2128.6667,-83.6547"/>
<polygon fill="#191970" stroke="#191970" points="2131.3838,-81.4444 2122.575,-75.5574 2125.7899,-85.6527 2131.3838,-81.4444"/>
</g>
<!-- Node44&#45;&gt;Node21 -->
<g id="edge104" class="edge">
<title>Node44&#45;&gt;Node21</title>
<path fill="none" stroke="#191970" d="M2117.3391,-392.2066C2130.8897,-350.317 2161.6224,-232.5589 2104,-168 2093.7098,-156.4711 2015.0297,-142.5187 1952.3135,-133.0246"/>
<polygon fill="#191970" stroke="#191970" points="1952.8059,-129.5594 1942.3979,-131.5402 1951.7694,-136.4822 1952.8059,-129.5594"/>
</g>
<!-- Node44&#45;&gt;Node26 -->
<g id="edge105" class="edge">
<title>Node44&#45;&gt;Node26</title>
<path fill="none" stroke="#191970" d="M2111.5137,-392.3362C2110.6646,-377.5996 2108.3418,-354.7609 2102,-336 2083.6124,-281.6041 2046.2518,-224.5205 2026.2849,-196.188"/>
<polygon fill="#191970" stroke="#191970" points="2028.8975,-193.8244 2020.2329,-187.7272 2023.2041,-197.8969 2028.8975,-193.8244"/>
</g>
<!-- Node44&#45;&gt;Node43 -->
<g id="edge106" class="edge">
<title>Node44&#45;&gt;Node43</title>
<path fill="none" stroke="#191970" d="M2087.5372,-392.4554C2071.8765,-382.8241 2051.6468,-370.3828 2036.0644,-360.7996"/>
<polygon fill="#191970" stroke="#191970" points="2037.848,-357.7876 2027.4965,-355.5303 2034.181,-363.7503 2037.848,-357.7876"/>
</g>
</g>
</svg>
