<?xml version="1.0" encoding="UTF-8" standalone="no"?>
<!DOCTYPE svg PUBLIC "-//W3C//DTD SVG 1.1//EN"
 "http://www.w3.org/Graphics/SVG/1.1/DTD/svg11.dtd">
<!-- Generated by graphviz version 2.40.1 (20161225.0304)
 -->
<!-- Title: MultipleShootingSolver.h Pages: 1 -->
<svg width="1235pt" height="476pt"
 viewBox="0.00 0.00 1234.82 476.00" xmlns="http://www.w3.org/2000/svg" xmlns:xlink="http://www.w3.org/1999/xlink">
<g id="graph0" class="graph" transform="scale(1 1) rotate(0) translate(4 472)">
<title>MultipleShootingSolver.h</title>
<!-- Node0 -->
<g id="node1" class="node">
<title>Node0</title>
<polygon fill="#bfbfbf" stroke="#000000" points="905,-448.5 905,-467.5 1042,-467.5 1042,-448.5 905,-448.5"/>
<text text-anchor="middle" x="973.5" y="-455.5" font-family="FreeSans.ttf" font-size="10.00" fill="#000000">MultipleShootingSolver.h</text>
</g>
<!-- Node1 -->
<g id="node2" class="node">
<title>Node1</title>
<g id="a_node2"><a xlink:href="OptimalControlSolver_8h.html" target="_top" xlink:title="iDynTree/OptimalControlSolver.h">
<polygon fill="none" stroke="#000000" points="769.5,-336.5 769.5,-355.5 945.5,-355.5 945.5,-336.5 769.5,-336.5"/>
<text text-anchor="middle" x="857.5" y="-343.5" font-family="FreeSans.ttf" font-size="10.00" fill="#000000">iDynTree/OptimalControlSolver.h</text>
</a>
</g>
</g>
<!-- Node0&#45;&gt;Node1 -->
<g id="edge1" class="edge">
<title>Node0&#45;&gt;Node1</title>
<path fill="none" stroke="#191970" d="M963.6099,-448.4509C943.8344,-429.3574 899.2079,-386.2697 874.5959,-362.5063"/>
<polygon fill="#191970" stroke="#191970" points="876.9902,-359.9529 867.3651,-355.5249 872.128,-364.9888 876.9902,-359.9529"/>
</g>
<!-- Node2 -->
<g id="node3" class="node">
<title>Node2</title>
<polygon fill="none" stroke="#bfbfbf" points="982.5,-280.5 982.5,-299.5 1040.5,-299.5 1040.5,-280.5 982.5,-280.5"/>
<text text-anchor="middle" x="1011.5" y="-287.5" font-family="FreeSans.ttf" font-size="10.00" fill="#000000">memory</text>
</g>
<!-- Node0&#45;&gt;Node2 -->
<g id="edge56" class="edge">
<title>Node0&#45;&gt;Node2</title>
<path fill="none" stroke="#191970" d="M975.6519,-448.4862C981.6848,-421.8144 998.8533,-345.9117 1007.0452,-309.695"/>
<polygon fill="#191970" stroke="#191970" points="1010.4845,-310.3537 1009.277,-299.8279 1003.657,-308.8093 1010.4845,-310.3537"/>
</g>
<!-- Node4 -->
<g id="node5" class="node">
<title>Node4</title>
<g id="a_node5"><a xlink:href="TimeVaryingObject_8h.html" target="_top" xlink:title="iDynTree/TimeVaryingObject.h">
<polygon fill="none" stroke="#000000" points="167.5,-392.5 167.5,-411.5 331.5,-411.5 331.5,-392.5 167.5,-392.5"/>
<text text-anchor="middle" x="249.5" y="-399.5" font-family="FreeSans.ttf" font-size="10.00" fill="#000000">iDynTree/TimeVaryingObject.h</text>
</a>
</g>
</g>
<!-- Node0&#45;&gt;Node4 -->
<g id="edge4" class="edge">
<title>Node0&#45;&gt;Node4</title>
<path fill="none" stroke="#191970" d="M904.7351,-452.6812C773.9211,-442.563 489.178,-420.5386 341.8846,-409.1458"/>
<polygon fill="#191970" stroke="#191970" points="341.7611,-405.6259 331.521,-408.3442 341.2212,-412.605 341.7611,-405.6259"/>
</g>
<!-- Node29 -->
<g id="node30" class="node">
<title>Node29</title>
<g id="a_node30"><a xlink:href="Optimizer_8h.html" target="_top" xlink:title="iDynTree/Optimizer.h">
<polygon fill="none" stroke="#000000" points="1002,-392.5 1002,-411.5 1121,-411.5 1121,-392.5 1002,-392.5"/>
<text text-anchor="middle" x="1061.5" y="-399.5" font-family="FreeSans.ttf" font-size="10.00" fill="#000000">iDynTree/Optimizer.h</text>
</a>
</g>
</g>
<!-- Node0&#45;&gt;Node29 -->
<g id="edge49" class="edge">
<title>Node0&#45;&gt;Node29</title>
<path fill="none" stroke="#191970" d="M988.8284,-448.2455C1002.3303,-439.6534 1022.2122,-427.0014 1037.7686,-417.1018"/>
<polygon fill="#191970" stroke="#191970" points="1039.7897,-419.9643 1046.3472,-411.6427 1036.0315,-414.0587 1039.7897,-419.9643"/>
</g>
<!-- Node31 -->
<g id="node32" class="node">
<title>Node31</title>
<polygon fill="none" stroke="#bfbfbf" points="1131,-280.5 1131,-299.5 1178,-299.5 1178,-280.5 1131,-280.5"/>
<text text-anchor="middle" x="1154.5" y="-287.5" font-family="FreeSans.ttf" font-size="10.00" fill="#000000">vector</text>
</g>
<!-- Node0&#45;&gt;Node31 -->
<g id="edge55" class="edge">
<title>Node0&#45;&gt;Node31</title>
<path fill="none" stroke="#191970" d="M1016.2253,-448.4759C1048.1608,-440.6279 1092.5012,-428.1696 1129.5,-412 1174.0601,-392.526 1199.4739,-398.2799 1223.5,-356 1235.6468,-334.6246 1210.56,-315.8644 1187.3048,-303.8636"/>
<polygon fill="#191970" stroke="#191970" points="1188.7558,-300.6773 1178.2321,-299.4515 1185.6944,-306.9724 1188.7558,-300.6773"/>
</g>
<!-- Node1&#45;&gt;Node2 -->
<g id="edge2" class="edge">
<title>Node1&#45;&gt;Node2</title>
<path fill="none" stroke="#191970" d="M883.9735,-336.3733C909.3597,-327.1419 947.8645,-313.1402 975.922,-302.9375"/>
<polygon fill="#191970" stroke="#191970" points="977.1701,-306.2079 985.3719,-299.5011 974.7778,-299.6293 977.1701,-306.2079"/>
</g>
<!-- Node3 -->
<g id="node4" class="node">
<title>Node3</title>
<polygon fill="none" stroke="#bfbfbf" points="783,-.5 783,-19.5 836,-19.5 836,-.5 783,-.5"/>
<text text-anchor="middle" x="809.5" y="-7.5" font-family="FreeSans.ttf" font-size="10.00" fill="#000000">cstddef</text>
</g>
<!-- Node1&#45;&gt;Node3 -->
<g id="edge3" class="edge">
<title>Node1&#45;&gt;Node3</title>
<path fill="none" stroke="#191970" d="M874.8417,-336.4601C902.7423,-319.6916 954.5,-282.1023 954.5,-234 954.5,-234 954.5,-234 954.5,-122 954.5,-91.4754 956.3185,-78.3236 935.5,-56 912.1603,-30.9729 874.0971,-19.521 845.9049,-14.3057"/>
<polygon fill="#191970" stroke="#191970" points="846.4504,-10.8484 836.0104,-12.6529 845.2971,-17.7528 846.4504,-10.8484"/>
</g>
<!-- Node5 -->
<g id="node6" class="node">
<title>Node5</title>
<g id="a_node6"><a xlink:href="VectorDynSize_8h.html" target="_top" xlink:title="iDynTree/Core/VectorDynSize.h">
<polygon fill="none" stroke="#000000" points="0,-112.5 0,-131.5 167,-131.5 167,-112.5 0,-112.5"/>
<text text-anchor="middle" x="83.5" y="-119.5" font-family="FreeSans.ttf" font-size="10.00" fill="#000000">iDynTree/Core/VectorDynSize.h</text>
</a>
</g>
</g>
<!-- Node4&#45;&gt;Node5 -->
<g id="edge5" class="edge">
<title>Node4&#45;&gt;Node5</title>
<path fill="none" stroke="#191970" d="M211.1005,-392.4689C143.5408,-374.5679 10.5,-333.7611 10.5,-290 10.5,-290 10.5,-290 10.5,-234 10.5,-194.8965 42.1171,-158.7535 63.7361,-138.6105"/>
<polygon fill="#191970" stroke="#191970" points="66.3346,-140.9817 71.4455,-131.7011 61.6627,-135.7688 66.3346,-140.9817"/>
</g>
<!-- Node16 -->
<g id="node17" class="node">
<title>Node16</title>
<g id="a_node17"><a xlink:href="MatrixDynSize_8h.html" target="_top" xlink:title="iDynTree/Core/MatrixDynSize.h">
<polygon fill="none" stroke="#000000" points="38,-224.5 38,-243.5 205,-243.5 205,-224.5 38,-224.5"/>
<text text-anchor="middle" x="121.5" y="-231.5" font-family="FreeSans.ttf" font-size="10.00" fill="#000000">iDynTree/Core/MatrixDynSize.h</text>
</a>
</g>
</g>
<!-- Node4&#45;&gt;Node16 -->
<g id="edge17" class="edge">
<title>Node4&#45;&gt;Node16</title>
<path fill="none" stroke="#191970" d="M242.2514,-392.4862C221.5796,-365.3545 162.0941,-287.2798 135.1058,-251.8576"/>
<polygon fill="#191970" stroke="#191970" points="137.8324,-249.6611 128.9879,-243.8279 132.2644,-253.9034 137.8324,-249.6611"/>
</g>
<!-- Node17 -->
<g id="node18" class="node">
<title>Node17</title>
<g id="a_node18"><a xlink:href="Transform_8h.html" target="_top" xlink:title="iDynTree/Core/Transform.h">
<polygon fill="none" stroke="#000000" points="303.5,-336.5 303.5,-355.5 449.5,-355.5 449.5,-336.5 303.5,-336.5"/>
<text text-anchor="middle" x="376.5" y="-343.5" font-family="FreeSans.ttf" font-size="10.00" fill="#000000">iDynTree/Core/Transform.h</text>
</a>
</g>
</g>
<!-- Node4&#45;&gt;Node17 -->
<g id="edge19" class="edge">
<title>Node4&#45;&gt;Node17</title>
<path fill="none" stroke="#191970" d="M271.3321,-392.3733C291.8103,-383.3435 322.6399,-369.7494 345.6319,-359.6111"/>
<polygon fill="#191970" stroke="#191970" points="347.215,-362.7383 354.9528,-355.5011 344.3907,-356.3333 347.215,-362.7383"/>
</g>
<!-- Node6 -->
<g id="node7" class="node">
<title>Node6</title>
<g id="a_node7"><a xlink:href="Span_8h.html" target="_top" xlink:title="iDynTree/Core/Span.h">
<polygon fill="none" stroke="#000000" points="262,-56.5 262,-75.5 383,-75.5 383,-56.5 262,-56.5"/>
<text text-anchor="middle" x="322.5" y="-63.5" font-family="FreeSans.ttf" font-size="10.00" fill="#000000">iDynTree/Core/Span.h</text>
</a>
</g>
</g>
<!-- Node5&#45;&gt;Node6 -->
<g id="edge6" class="edge">
<title>Node5&#45;&gt;Node6</title>
<path fill="none" stroke="#191970" d="M124.314,-112.4369C165.1311,-102.8731 227.9959,-88.1432 271.9472,-77.845"/>
<polygon fill="#191970" stroke="#191970" points="272.9165,-81.2128 281.8543,-75.5237 271.3195,-74.3973 272.9165,-81.2128"/>
</g>
<!-- Node15 -->
<g id="node16" class="node">
<title>Node15</title>
<polygon fill="none" stroke="#bfbfbf" points="401.5,-56.5 401.5,-75.5 445.5,-75.5 445.5,-56.5 401.5,-56.5"/>
<text text-anchor="middle" x="423.5" y="-63.5" font-family="FreeSans.ttf" font-size="10.00" fill="#000000">string</text>
</g>
<!-- Node5&#45;&gt;Node15 -->
<g id="edge16" class="edge">
<title>Node5&#45;&gt;Node15</title>
<path fill="none" stroke="#191970" d="M167.1624,-113.053C229.4817,-105.5326 316.4087,-93.2316 391.5,-76 391.5993,-75.9772 391.6987,-75.9543 391.7982,-75.9312"/>
<polygon fill="#191970" stroke="#191970" points="392.4652,-79.3751 401.2409,-73.4389 390.6788,-72.6069 392.4652,-79.3751"/>
</g>
<!-- Node6&#45;&gt;Node3 -->
<g id="edge10" class="edge">
<title>Node6&#45;&gt;Node3</title>
<path fill="none" stroke="#191970" d="M383.1903,-57.2087C386.3376,-56.7907 389.4552,-56.3853 392.5,-56 532.6536,-38.2634 699.8079,-20.9972 772.5932,-13.6702"/>
<polygon fill="#191970" stroke="#191970" points="773.0325,-17.1438 782.6329,-12.6625 772.3333,-10.1788 773.0325,-17.1438"/>
</g>
<!-- Node7 -->
<g id="node8" class="node">
<title>Node7</title>
<polygon fill="none" stroke="#bfbfbf" points="567.5,-.5 567.5,-19.5 619.5,-19.5 619.5,-.5 567.5,-.5"/>
<text text-anchor="middle" x="593.5" y="-7.5" font-family="FreeSans.ttf" font-size="10.00" fill="#000000">cassert</text>
</g>
<!-- Node6&#45;&gt;Node7 -->
<g id="edge7" class="edge">
<title>Node6&#45;&gt;Node7</title>
<path fill="none" stroke="#191970" d="M377.839,-56.4207C425.6258,-47.8503 496.4086,-34.4411 557.5,-20 557.5986,-19.9767 557.6974,-19.9533 557.7963,-19.9298"/>
<polygon fill="#191970" stroke="#191970" points="558.3739,-23.3938 567.2148,-17.5552 556.6626,-16.6062 558.3739,-23.3938"/>
</g>
<!-- Node8 -->
<g id="node9" class="node">
<title>Node8</title>
<polygon fill="none" stroke="#bfbfbf" points="120.5,-.5 120.5,-19.5 184.5,-19.5 184.5,-.5 120.5,-.5"/>
<text text-anchor="middle" x="152.5" y="-7.5" font-family="FreeSans.ttf" font-size="10.00" fill="#000000">algorithm</text>
</g>
<!-- Node6&#45;&gt;Node8 -->
<g id="edge8" class="edge">
<title>Node6&#45;&gt;Node8</title>
<path fill="none" stroke="#191970" d="M293.276,-56.3733C265.0075,-47.0613 222.0035,-32.8953 190.9656,-22.671"/>
<polygon fill="#191970" stroke="#191970" points="191.9357,-19.3056 181.3427,-19.5011 189.7456,-25.9542 191.9357,-19.3056"/>
</g>
<!-- Node9 -->
<g id="node10" class="node">
<title>Node9</title>
<polygon fill="none" stroke="#bfbfbf" points="202.5,-.5 202.5,-19.5 244.5,-19.5 244.5,-.5 202.5,-.5"/>
<text text-anchor="middle" x="223.5" y="-7.5" font-family="FreeSans.ttf" font-size="10.00" fill="#000000">array</text>
</g>
<!-- Node6&#45;&gt;Node9 -->
<g id="edge9" class="edge">
<title>Node6&#45;&gt;Node9</title>
<path fill="none" stroke="#191970" d="M305.2555,-56.2455C289.9239,-47.5731 267.2801,-34.7645 249.7084,-24.825"/>
<polygon fill="#191970" stroke="#191970" points="250.9741,-21.5198 240.5469,-19.6427 247.5276,-27.6126 250.9741,-21.5198"/>
</g>
<!-- Node10 -->
<g id="node11" class="node">
<title>Node10</title>
<polygon fill="none" stroke="#bfbfbf" points="263,-.5 263,-19.5 316,-19.5 316,-.5 263,-.5"/>
<text text-anchor="middle" x="289.5" y="-7.5" font-family="FreeSans.ttf" font-size="10.00" fill="#000000">iterator</text>
</g>
<!-- Node6&#45;&gt;Node10 -->
<g id="edge11" class="edge">
<title>Node6&#45;&gt;Node10</title>
<path fill="none" stroke="#191970" d="M316.7518,-56.2455C312.2565,-48.617 305.8752,-37.7881 300.4175,-28.5267"/>
<polygon fill="#191970" stroke="#191970" points="303.2747,-26.4811 295.1823,-19.6427 297.2439,-30.035 303.2747,-26.4811"/>
</g>
<!-- Node11 -->
<g id="node12" class="node">
<title>Node11</title>
<polygon fill="none" stroke="#bfbfbf" points="334.5,-.5 334.5,-19.5 378.5,-19.5 378.5,-.5 334.5,-.5"/>
<text text-anchor="middle" x="356.5" y="-7.5" font-family="FreeSans.ttf" font-size="10.00" fill="#000000">limits</text>
</g>
<!-- Node6&#45;&gt;Node11 -->
<g id="edge12" class="edge">
<title>Node6&#45;&gt;Node11</title>
<path fill="none" stroke="#191970" d="M328.4223,-56.2455C333.1027,-48.5367 339.7673,-37.5598 345.4289,-28.2348"/>
<polygon fill="#191970" stroke="#191970" points="348.4475,-30.007 350.6455,-19.6427 342.4639,-26.3741 348.4475,-30.007"/>
</g>
<!-- Node12 -->
<g id="node13" class="node">
<title>Node12</title>
<polygon fill="none" stroke="#bfbfbf" points="397,-.5 397,-19.5 462,-19.5 462,-.5 397,-.5"/>
<text text-anchor="middle" x="429.5" y="-7.5" font-family="FreeSans.ttf" font-size="10.00" fill="#000000">stdexcept</text>
</g>
<!-- Node6&#45;&gt;Node12 -->
<g id="edge13" class="edge">
<title>Node6&#45;&gt;Node12</title>
<path fill="none" stroke="#191970" d="M341.138,-56.2455C357.9386,-47.4527 382.8634,-34.4079 401.9618,-24.4125"/>
<polygon fill="#191970" stroke="#191970" points="403.8386,-27.3807 411.0756,-19.6427 400.5927,-21.1787 403.8386,-27.3807"/>
</g>
<!-- Node13 -->
<g id="node14" class="node">
<title>Node13</title>
<polygon fill="none" stroke="#bfbfbf" points="480,-.5 480,-19.5 549,-19.5 549,-.5 480,-.5"/>
<text text-anchor="middle" x="514.5" y="-7.5" font-family="FreeSans.ttf" font-size="10.00" fill="#000000">type_traits</text>
</g>
<!-- Node6&#45;&gt;Node13 -->
<g id="edge14" class="edge">
<title>Node6&#45;&gt;Node13</title>
<path fill="none" stroke="#191970" d="M355.506,-56.3733C387.7091,-46.9807 436.8442,-32.6496 471.9639,-22.4064"/>
<polygon fill="#191970" stroke="#191970" points="473.3047,-25.6612 481.9247,-19.5011 471.3447,-18.9412 473.3047,-25.6612"/>
</g>
<!-- Node14 -->
<g id="node15" class="node">
<title>Node14</title>
<polygon fill="none" stroke="#bfbfbf" points="57,-.5 57,-19.5 102,-19.5 102,-.5 57,-.5"/>
<text text-anchor="middle" x="79.5" y="-7.5" font-family="FreeSans.ttf" font-size="10.00" fill="#000000">utility</text>
</g>
<!-- Node6&#45;&gt;Node14 -->
<g id="edge15" class="edge">
<title>Node6&#45;&gt;Node14</title>
<path fill="none" stroke="#191970" d="M272.7502,-56.4438C231.9856,-48.3223 172.6323,-35.8353 111.9087,-19.9321"/>
<polygon fill="#191970" stroke="#191970" points="112.7165,-16.5255 102.1538,-17.3506 110.9256,-23.2925 112.7165,-16.5255"/>
</g>
<!-- Node16&#45;&gt;Node15 -->
<g id="edge18" class="edge">
<title>Node16&#45;&gt;Node15</title>
<path fill="none" stroke="#191970" d="M126.2375,-224.1823C138.1412,-200.6428 171.7311,-140.8104 218.5,-112 285.367,-70.8089 315.4843,-95.7362 391.5,-76 391.5986,-75.9744 391.6973,-75.9487 391.7962,-75.9229"/>
<polygon fill="#191970" stroke="#191970" points="392.5241,-79.3541 401.2006,-73.274 390.6262,-72.6163 392.5241,-79.3541"/>
</g>
<!-- Node17&#45;&gt;Node15 -->
<g id="edge48" class="edge">
<title>Node17&#45;&gt;Node15</title>
<path fill="none" stroke="#191970" d="M343.4635,-336.4779C300.9498,-321.958 232.5,-289.9003 232.5,-234 232.5,-234 232.5,-234 232.5,-178 232.5,-141.5407 337.3716,-97.618 391.6972,-77.311"/>
<polygon fill="#191970" stroke="#191970" points="393.0444,-80.5447 401.2161,-73.8012 390.6227,-73.9769 393.0444,-80.5447"/>
</g>
<!-- Node18 -->
<g id="node19" class="node">
<title>Node18</title>
<g id="a_node19"><a xlink:href="Position_8h.html" target="_top" xlink:title="iDynTree/Core/Position.h">
<polygon fill="none" stroke="#000000" points="308.5,-280.5 308.5,-299.5 444.5,-299.5 444.5,-280.5 308.5,-280.5"/>
<text text-anchor="middle" x="376.5" y="-287.5" font-family="FreeSans.ttf" font-size="10.00" fill="#000000">iDynTree/Core/Position.h</text>
</a>
</g>
</g>
<!-- Node17&#45;&gt;Node18 -->
<g id="edge20" class="edge">
<title>Node17&#45;&gt;Node18</title>
<path fill="none" stroke="#191970" d="M376.5,-336.2455C376.5,-328.9382 376.5,-318.6944 376.5,-309.7046"/>
<polygon fill="#191970" stroke="#191970" points="380.0001,-309.6426 376.5,-299.6427 373.0001,-309.6427 380.0001,-309.6426"/>
</g>
<!-- Node24 -->
<g id="node25" class="node">
<title>Node24</title>
<g id="a_node25"><a xlink:href="Rotation_8h.html" target="_top" xlink:title="iDynTree/Core/Rotation.h">
<polygon fill="none" stroke="#000000" points="433,-224.5 433,-243.5 570,-243.5 570,-224.5 433,-224.5"/>
<text text-anchor="middle" x="501.5" y="-231.5" font-family="FreeSans.ttf" font-size="10.00" fill="#000000">iDynTree/Core/Rotation.h</text>
</a>
</g>
</g>
<!-- Node17&#45;&gt;Node24 -->
<g id="edge46" class="edge">
<title>Node17&#45;&gt;Node24</title>
<path fill="none" stroke="#191970" d="M397.2993,-336.4804C413.7195,-328.3149 436.5999,-315.4392 453.5,-300 468.6283,-286.1795 481.983,-266.9101 490.7397,-252.7593"/>
<polygon fill="#191970" stroke="#191970" points="493.9032,-254.2888 496.0328,-243.9102 487.8958,-250.6955 493.9032,-254.2888"/>
</g>
<!-- Node27 -->
<g id="node28" class="node">
<title>Node27</title>
<g id="a_node28"><a xlink:href="MatrixFixSize_8h.html" target="_top" xlink:title="iDynTree/Core/MatrixFixSize.h">
<polygon fill="none" stroke="#000000" points="718,-112.5 718,-131.5 879,-131.5 879,-112.5 718,-112.5"/>
<text text-anchor="middle" x="798.5" y="-119.5" font-family="FreeSans.ttf" font-size="10.00" fill="#000000">iDynTree/Core/MatrixFixSize.h</text>
</a>
</g>
</g>
<!-- Node17&#45;&gt;Node27 -->
<g id="edge47" class="edge">
<title>Node17&#45;&gt;Node27</title>
<path fill="none" stroke="#191970" d="M438.8848,-336.4498C564.8229,-315.7615 842.1774,-262.5879 897.5,-188 915.4764,-163.7635 880.7015,-145.6965 847.5244,-134.6497"/>
<polygon fill="#191970" stroke="#191970" points="848.3881,-131.2522 837.7984,-131.5844 846.2839,-137.9285 848.3881,-131.2522"/>
</g>
<!-- Node18&#45;&gt;Node15 -->
<g id="edge45" class="edge">
<title>Node18&#45;&gt;Node15</title>
<path fill="none" stroke="#191970" d="M360.1983,-280.2626C329.2444,-260.4476 266.9755,-213.4532 289.5,-168 310.7679,-125.0825 359.6933,-95.3223 392.1671,-79.4557"/>
<polygon fill="#191970" stroke="#191970" points="393.711,-82.5973 401.2605,-75.1639 390.7232,-76.267 393.711,-82.5973"/>
</g>
<!-- Node19 -->
<g id="node20" class="node">
<title>Node19</title>
<g id="a_node20"><a xlink:href="PositionRaw_8h.html" target="_top" xlink:title="iDynTree/Core/PositionRaw.h">
<polygon fill="none" stroke="#000000" points="298.5,-168.5 298.5,-187.5 454.5,-187.5 454.5,-168.5 298.5,-168.5"/>
<text text-anchor="middle" x="376.5" y="-175.5" font-family="FreeSans.ttf" font-size="10.00" fill="#000000">iDynTree/Core/PositionRaw.h</text>
</a>
</g>
</g>
<!-- Node18&#45;&gt;Node19 -->
<g id="edge21" class="edge">
<title>Node18&#45;&gt;Node19</title>
<path fill="none" stroke="#191970" d="M376.5,-280.4509C376.5,-262.184 376.5,-221.9553 376.5,-197.6976"/>
<polygon fill="#191970" stroke="#191970" points="380.0001,-197.5249 376.5,-187.5249 373.0001,-197.5249 380.0001,-197.5249"/>
</g>
<!-- Node18&#45;&gt;Node24 -->
<g id="edge31" class="edge">
<title>Node18&#45;&gt;Node24</title>
<path fill="none" stroke="#191970" d="M397.9883,-280.3733C418.144,-271.3435 448.488,-257.7494 471.118,-247.6111"/>
<polygon fill="#191970" stroke="#191970" points="472.5971,-250.7838 480.2921,-243.5011 469.7351,-244.3955 472.5971,-250.7838"/>
</g>
<!-- Node19&#45;&gt;Node15 -->
<g id="edge30" class="edge">
<title>Node19&#45;&gt;Node15</title>
<path fill="none" stroke="#191970" d="M380.5072,-168.4509C388.2422,-150.0186 405.3608,-109.2254 415.5087,-85.043"/>
<polygon fill="#191970" stroke="#191970" points="418.8607,-86.1002 419.5029,-75.5249 412.406,-83.3915 418.8607,-86.1002"/>
</g>
<!-- Node20 -->
<g id="node21" class="node">
<title>Node20</title>
<g id="a_node21"><a xlink:href="VectorFixSize_8h.html" target="_top" xlink:title="iDynTree/Core/VectorFixSize.h">
<polygon fill="none" stroke="#000000" points="539,-112.5 539,-131.5 700,-131.5 700,-112.5 539,-112.5"/>
<text text-anchor="middle" x="619.5" y="-119.5" font-family="FreeSans.ttf" font-size="10.00" fill="#000000">iDynTree/Core/VectorFixSize.h</text>
</a>
</g>
</g>
<!-- Node19&#45;&gt;Node20 -->
<g id="edge22" class="edge">
<title>Node19&#45;&gt;Node20</title>
<path fill="none" stroke="#191970" d="M417.9971,-168.4369C459.5847,-158.8529 523.6834,-144.0812 568.3831,-133.78"/>
<polygon fill="#191970" stroke="#191970" points="569.2155,-137.18 578.1741,-131.5237 567.6435,-130.3588 569.2155,-137.18"/>
</g>
<!-- Node20&#45;&gt;Node6 -->
<g id="edge25" class="edge">
<title>Node20&#45;&gt;Node6</title>
<path fill="none" stroke="#191970" d="M568.7813,-112.4369C517.3114,-102.7321 437.6298,-87.708 382.9216,-77.3926"/>
<polygon fill="#191970" stroke="#191970" points="383.4848,-73.9372 373.0095,-75.5237 382.1878,-80.816 383.4848,-73.9372"/>
</g>
<!-- Node20&#45;&gt;Node7 -->
<g id="edge28" class="edge">
<title>Node20&#45;&gt;Node7</title>
<path fill="none" stroke="#191970" d="M587.61,-112.4777C570.0823,-105.43 549.8495,-93.8893 539.5,-76 528.4918,-56.9719 548.4201,-37.8134 567.101,-25.0771"/>
<polygon fill="#191970" stroke="#191970" points="569.2211,-27.8756 575.7548,-19.5352 565.446,-21.9808 569.2211,-27.8756"/>
</g>
<!-- Node20&#45;&gt;Node15 -->
<g id="edge26" class="edge">
<title>Node20&#45;&gt;Node15</title>
<path fill="none" stroke="#191970" d="M585.8064,-112.3733C549.2465,-101.9276 491.3086,-85.3739 455.4472,-75.1278"/>
<polygon fill="#191970" stroke="#191970" points="456.0913,-71.6718 445.5145,-72.2899 454.1682,-78.4025 456.0913,-71.6718"/>
</g>
<!-- Node21 -->
<g id="node22" class="node">
<title>Node21</title>
<g id="a_node22"><a xlink:href="Utils_8h.html" target="_top" xlink:title="iDynTree/Core/Utils.h">
<polygon fill="none" stroke="#000000" points="549,-56.5 549,-75.5 668,-75.5 668,-56.5 549,-56.5"/>
<text text-anchor="middle" x="608.5" y="-63.5" font-family="FreeSans.ttf" font-size="10.00" fill="#000000">iDynTree/Core/Utils.h</text>
</a>
</g>
</g>
<!-- Node20&#45;&gt;Node21 -->
<g id="edge23" class="edge">
<title>Node20&#45;&gt;Node21</title>
<path fill="none" stroke="#191970" d="M617.5839,-112.2455C616.1486,-104.9382 614.1364,-94.6944 612.3705,-85.7046"/>
<polygon fill="#191970" stroke="#191970" points="615.756,-84.7805 610.3941,-75.6427 608.8873,-86.1298 615.756,-84.7805"/>
</g>
<!-- Node22 -->
<g id="node23" class="node">
<title>Node22</title>
<polygon fill="none" stroke="#bfbfbf" points="686.5,-56.5 686.5,-75.5 742.5,-75.5 742.5,-56.5 686.5,-56.5"/>
<text text-anchor="middle" x="714.5" y="-63.5" font-family="FreeSans.ttf" font-size="10.00" fill="#000000">sstream</text>
</g>
<!-- Node20&#45;&gt;Node22 -->
<g id="edge27" class="edge">
<title>Node20&#45;&gt;Node22</title>
<path fill="none" stroke="#191970" d="M636.0477,-112.2455C650.7599,-103.5731 672.4888,-90.7645 689.3505,-80.825"/>
<polygon fill="#191970" stroke="#191970" points="691.3046,-83.736 698.1419,-75.6427 687.7498,-77.7057 691.3046,-83.736"/>
</g>
<!-- Node23 -->
<g id="node24" class="node">
<title>Node23</title>
<polygon fill="none" stroke="#bfbfbf" points="760.5,-56.5 760.5,-75.5 810.5,-75.5 810.5,-56.5 760.5,-56.5"/>
<text text-anchor="middle" x="785.5" y="-63.5" font-family="FreeSans.ttf" font-size="10.00" fill="#000000">cstring</text>
</g>
<!-- Node20&#45;&gt;Node23 -->
<g id="edge29" class="edge">
<title>Node20&#45;&gt;Node23</title>
<path fill="none" stroke="#191970" d="M648.0364,-112.3733C676.4363,-102.7926 720.0677,-88.0736 750.5337,-77.7959"/>
<polygon fill="#191970" stroke="#191970" points="751.9633,-81.0074 760.3199,-74.4945 749.7257,-74.3747 751.9633,-81.0074"/>
</g>
<!-- Node21&#45;&gt;Node3 -->
<g id="edge24" class="edge">
<title>Node21&#45;&gt;Node3</title>
<path fill="none" stroke="#191970" d="M643.0531,-56.3733C679.2702,-46.2829 735.9444,-30.4931 772.9077,-20.1949"/>
<polygon fill="#191970" stroke="#191970" points="774.0834,-23.5007 782.7771,-17.4452 772.2046,-16.7575 774.0834,-23.5007"/>
</g>
<!-- Node24&#45;&gt;Node15 -->
<g id="edge32" class="edge">
<title>Node24&#45;&gt;Node15</title>
<path fill="none" stroke="#191970" d="M497.0829,-224.4862C484.6462,-197.6994 449.1548,-121.2565 432.4277,-85.2289"/>
<polygon fill="#191970" stroke="#191970" points="435.4486,-83.4241 428.0629,-75.8279 429.0996,-86.3719 435.4486,-83.4241"/>
</g>
<!-- Node24&#45;&gt;Node20 -->
<g id="edge44" class="edge">
<title>Node24&#45;&gt;Node20</title>
<path fill="none" stroke="#191970" d="M505.108,-224.4514C510.7185,-210.6186 522.6666,-184.8239 539.5,-168 552.9195,-154.5882 571.0425,-143.7412 586.6459,-135.9562"/>
<polygon fill="#191970" stroke="#191970" points="588.4515,-138.9728 595.971,-131.509 585.4382,-132.6545 588.4515,-138.9728"/>
</g>
<!-- Node25 -->
<g id="node26" class="node">
<title>Node25</title>
<g id="a_node26"><a xlink:href="GeomVector3_8h.html" target="_top" xlink:title="iDynTree/Core/GeomVector3.h">
<polygon fill="none" stroke="#000000" points="549,-168.5 549,-187.5 712,-187.5 712,-168.5 549,-168.5"/>
<text text-anchor="middle" x="630.5" y="-175.5" font-family="FreeSans.ttf" font-size="10.00" fill="#000000">iDynTree/Core/GeomVector3.h</text>
</a>
</g>
</g>
<!-- Node24&#45;&gt;Node25 -->
<g id="edge33" class="edge">
<title>Node24&#45;&gt;Node25</title>
<path fill="none" stroke="#191970" d="M523.6759,-224.3733C544.4766,-215.3435 575.7917,-201.7494 599.1458,-191.6111"/>
<polygon fill="#191970" stroke="#191970" points="600.8343,-194.6938 608.6135,-187.5011 598.0468,-188.2727 600.8343,-194.6938"/>
</g>
<!-- Node26 -->
<g id="node27" class="node">
<title>Node26</title>
<g id="a_node27"><a xlink:href="RotationRaw_8h.html" target="_top" xlink:title="iDynTree/Core/RotationRaw.h">
<polygon fill="none" stroke="#000000" points="730.5,-168.5 730.5,-187.5 888.5,-187.5 888.5,-168.5 730.5,-168.5"/>
<text text-anchor="middle" x="809.5" y="-175.5" font-family="FreeSans.ttf" font-size="10.00" fill="#000000">iDynTree/Core/RotationRaw.h</text>
</a>
</g>
</g>
<!-- Node24&#45;&gt;Node26 -->
<g id="edge35" class="edge">
<title>Node24&#45;&gt;Node26</title>
<path fill="none" stroke="#191970" d="M554.0971,-224.4369C607.5841,-214.712 690.4492,-199.6456 747.1933,-189.3285"/>
<polygon fill="#191970" stroke="#191970" points="747.9072,-192.7562 757.1198,-187.5237 746.655,-185.8691 747.9072,-192.7562"/>
</g>
<!-- Node25&#45;&gt;Node20 -->
<g id="edge34" class="edge">
<title>Node25&#45;&gt;Node20</title>
<path fill="none" stroke="#191970" d="M628.5839,-168.2455C627.1486,-160.9382 625.1364,-150.6944 623.3705,-141.7046"/>
<polygon fill="#191970" stroke="#191970" points="626.756,-140.7805 621.3941,-131.6427 619.8873,-142.1298 626.756,-140.7805"/>
</g>
<!-- Node26&#45;&gt;Node15 -->
<g id="edge43" class="edge">
<title>Node26&#45;&gt;Node15</title>
<path fill="none" stroke="#191970" d="M730.4976,-168.5343C660.9557,-159.5624 565.3483,-145.4879 529.5,-132 497.156,-119.8305 463.9914,-97.2253 443.5696,-81.8997"/>
<polygon fill="#191970" stroke="#191970" points="445.4519,-78.9327 435.3845,-75.6315 441.1959,-84.4903 445.4519,-78.9327"/>
</g>
<!-- Node26&#45;&gt;Node27 -->
<g id="edge36" class="edge">
<title>Node26&#45;&gt;Node27</title>
<path fill="none" stroke="#191970" d="M807.5839,-168.2455C806.1486,-160.9382 804.1364,-150.6944 802.3705,-141.7046"/>
<polygon fill="#191970" stroke="#191970" points="805.756,-140.7805 800.3941,-131.6427 798.8873,-142.1298 805.756,-140.7805"/>
</g>
<!-- Node27&#45;&gt;Node7 -->
<g id="edge38" class="edge">
<title>Node27&#45;&gt;Node7</title>
<path fill="none" stroke="#191970" d="M806.5742,-112.4349C817.2484,-98.5815 833.1935,-72.7614 819.5,-56 795.9498,-27.1736 687.3966,-15.9551 629.7346,-11.9733"/>
<polygon fill="#191970" stroke="#191970" points="629.7988,-8.4702 619.5921,-11.3115 629.3429,-15.4553 629.7988,-8.4702"/>
</g>
<!-- Node27&#45;&gt;Node15 -->
<g id="edge40" class="edge">
<title>Node27&#45;&gt;Node15</title>
<path fill="none" stroke="#191970" d="M734.4613,-112.4369C653.5822,-100.3589 517.531,-80.042 455.7538,-70.8166"/>
<polygon fill="#191970" stroke="#191970" points="456.2102,-67.346 445.8029,-69.3306 455.1763,-74.2692 456.2102,-67.346"/>
</g>
<!-- Node27&#45;&gt;Node21 -->
<g id="edge37" class="edge">
<title>Node27&#45;&gt;Node21</title>
<path fill="none" stroke="#191970" d="M765.8378,-112.3733C733.9702,-102.9807 685.3469,-88.6496 650.593,-78.4064"/>
<polygon fill="#191970" stroke="#191970" points="651.3175,-74.9711 640.736,-75.5011 649.3385,-81.6855 651.3175,-74.9711"/>
</g>
<!-- Node27&#45;&gt;Node22 -->
<g id="edge42" class="edge">
<title>Node27&#45;&gt;Node22</title>
<path fill="none" stroke="#191970" d="M783.8683,-112.2455C771.1006,-103.7337 752.3562,-91.2375 737.5701,-81.3801"/>
<polygon fill="#191970" stroke="#191970" points="739.226,-78.2775 728.964,-75.6427 735.3431,-84.1019 739.226,-78.2775"/>
</g>
<!-- Node27&#45;&gt;Node23 -->
<g id="edge39" class="edge">
<title>Node27&#45;&gt;Node23</title>
<path fill="none" stroke="#191970" d="M796.2356,-112.2455C794.5206,-104.8579 792.1088,-94.4689 790.0056,-85.4087"/>
<polygon fill="#191970" stroke="#191970" points="793.4092,-84.5922 787.7385,-75.6427 786.5905,-86.1751 793.4092,-84.5922"/>
</g>
<!-- Node28 -->
<g id="node29" class="node">
<title>Node28</title>
<polygon fill="none" stroke="#bfbfbf" points="866.5,-56.5 866.5,-75.5 926.5,-75.5 926.5,-56.5 866.5,-56.5"/>
<text text-anchor="middle" x="896.5" y="-63.5" font-family="FreeSans.ttf" font-size="10.00" fill="#000000">iostream</text>
</g>
<!-- Node27&#45;&gt;Node28 -->
<g id="edge41" class="edge">
<title>Node27&#45;&gt;Node28</title>
<path fill="none" stroke="#191970" d="M815.5703,-112.2455C830.747,-103.5731 853.1621,-90.7645 870.5563,-80.825"/>
<polygon fill="#191970" stroke="#191970" points="872.6794,-83.643 879.6253,-75.6427 869.2064,-77.5653 872.6794,-83.643"/>
</g>
<!-- Node29&#45;&gt;Node2 -->
<g id="edge50" class="edge">
<title>Node29&#45;&gt;Node2</title>
<path fill="none" stroke="#191970" d="M1053.6448,-392.3119C1046.7162,-383.3557 1036.772,-369.4392 1030.5,-356 1023.5664,-341.1432 1018.5998,-323.2058 1015.4874,-309.7829"/>
<polygon fill="#191970" stroke="#191970" points="1018.8483,-308.7663 1013.3066,-299.7363 1012.0076,-310.2512 1018.8483,-308.7663"/>
</g>
<!-- Node30 -->
<g id="node31" class="node">
<title>Node30</title>
<g id="a_node31"><a xlink:href="OptimizationProblem_8h.html" target="_top" xlink:title="iDynTree/OptimizationProblem.h">
<polygon fill="none" stroke="#000000" points="1040,-336.5 1040,-355.5 1215,-355.5 1215,-336.5 1040,-336.5"/>
<text text-anchor="middle" x="1127.5" y="-343.5" font-family="FreeSans.ttf" font-size="10.00" fill="#000000">iDynTree/OptimizationProblem.h</text>
</a>
</g>
</g>
<!-- Node29&#45;&gt;Node30 -->
<g id="edge51" class="edge">
<title>Node29&#45;&gt;Node30</title>
<path fill="none" stroke="#191970" d="M1072.9963,-392.2455C1082.7442,-383.9746 1096.9259,-371.9416 1108.3798,-362.2232"/>
<polygon fill="#191970" stroke="#191970" points="1110.7747,-364.7813 1116.1354,-355.6427 1106.2459,-359.4437 1110.7747,-364.7813"/>
</g>
<!-- Node30&#45;&gt;Node2 -->
<g id="edge53" class="edge">
<title>Node30&#45;&gt;Node2</title>
<path fill="none" stroke="#191970" d="M1107.5589,-336.3733C1089.0214,-327.4241 1061.1972,-313.9917 1040.2587,-303.8835"/>
<polygon fill="#191970" stroke="#191970" points="1041.7081,-300.6967 1031.1809,-299.5011 1038.6648,-307.0006 1041.7081,-300.6967"/>
</g>
<!-- Node30&#45;&gt;Node3 -->
<g id="edge54" class="edge">
<title>Node30&#45;&gt;Node3</title>
<path fill="none" stroke="#191970" d="M1123.3685,-336.3161C1115.5798,-317.1534 1099.5,-272.8832 1099.5,-234 1099.5,-234 1099.5,-234 1099.5,-122 1099.5,-68.2169 923.7318,-30.2936 845.8744,-16.1335"/>
<polygon fill="#191970" stroke="#191970" points="846.464,-12.6835 836.0043,-14.3706 845.2332,-19.5744 846.464,-12.6835"/>
</g>
<!-- Node30&#45;&gt;Node31 -->
<g id="edge52" class="edge">
<title>Node30&#45;&gt;Node31</title>
<path fill="none" stroke="#191970" d="M1132.203,-336.2455C1135.8424,-328.6973 1140.9924,-318.0158 1145.4262,-308.8197"/>
<polygon fill="#191970" stroke="#191970" points="1148.6605,-310.1704 1149.8509,-299.6427 1142.3551,-307.1303 1148.6605,-310.1704"/>
</g>
</g>
</svg>
