<?xml version="1.0" encoding="UTF-8" standalone="no"?>
<!DOCTYPE svg PUBLIC "-//W3C//DTD SVG 1.1//EN"
 "http://www.w3.org/Graphics/SVG/1.1/DTD/svg11.dtd">
<!-- Generated by graphviz version 2.40.1 (20161225.0304)
 -->
<!-- Title: OptimalControlProblem.cpp Pages: 1 -->
<svg width="2374pt" height="599pt"
 viewBox="0.00 0.00 2373.82 599.00" xmlns="http://www.w3.org/2000/svg" xmlns:xlink="http://www.w3.org/1999/xlink">
<g id="graph0" class="graph" transform="scale(1 1) rotate(0) translate(4 595)">
<title>OptimalControlProblem.cpp</title>
<!-- Node0 -->
<g id="node1" class="node">
<title>Node0</title>
<polygon fill="#bfbfbf" stroke="#000000" points="1014.8156,-571.5 1014.8156,-590.5 1166.8156,-590.5 1166.8156,-571.5 1014.8156,-571.5"/>
<text text-anchor="middle" x="1090.8156" y="-578.5" font-family="FreeSans.ttf" font-size="10.00" fill="#000000">OptimalControlProblem.cpp</text>
</g>
<!-- Node1 -->
<g id="node2" class="node">
<title>Node1</title>
<g id="a_node2"><a xlink:href="OptimalControlProblem_8h.html" target="_top" xlink:title="iDynTree/OptimalControlProblem.h">
<polygon fill="none" stroke="#000000" points="212.8156,-459.5 212.8156,-478.5 398.8156,-478.5 398.8156,-459.5 212.8156,-459.5"/>
<text text-anchor="middle" x="305.8156" y="-466.5" font-family="FreeSans.ttf" font-size="10.00" fill="#000000">iDynTree/OptimalControlProblem.h</text>
</a>
</g>
</g>
<!-- Node0&#45;&gt;Node1 -->
<g id="edge1" class="edge">
<title>Node0&#45;&gt;Node1</title>
<path fill="none" stroke="#191970" d="M1014.5054,-577.8919C849.3009,-570.8648 468.8488,-552.9626 412.8156,-535 379.1712,-524.2146 345.2929,-500.6799 324.9287,-484.8317"/>
<polygon fill="#191970" stroke="#191970" points="327.0709,-482.0634 317.0686,-478.5697 322.7091,-487.5383 327.0709,-482.0634"/>
</g>
<!-- Node5 -->
<g id="node6" class="node">
<title>Node5</title>
<g id="a_node6"><a xlink:href="Utils_8h.html" target="_top" xlink:title="iDynTree/Core/Utils.h">
<polygon fill="none" stroke="#000000" points="419.3156,-56.5 419.3156,-75.5 538.3156,-75.5 538.3156,-56.5 419.3156,-56.5"/>
<text text-anchor="middle" x="478.8156" y="-63.5" font-family="FreeSans.ttf" font-size="10.00" fill="#000000">iDynTree/Core/Utils.h</text>
</a>
</g>
</g>
<!-- Node0&#45;&gt;Node5 -->
<g id="edge107" class="edge">
<title>Node0&#45;&gt;Node5</title>
<path fill="none" stroke="#191970" d="M1014.6277,-579.8265C781.6908,-575.4141 91.0635,-555.8972 29.8156,-479 -113.5964,-298.9452 310.1198,-126.9408 441.3732,-79.094"/>
<polygon fill="#191970" stroke="#191970" points="442.8046,-82.2984 451.0208,-75.6093 440.4265,-75.7147 442.8046,-82.2984"/>
</g>
<!-- Node10 -->
<g id="node11" class="node">
<title>Node10</title>
<g id="a_node11"><a xlink:href="VectorDynSize_8h.html" target="_top" xlink:title="iDynTree/Core/VectorDynSize.h">
<polygon fill="none" stroke="#000000" points="1031.3156,-336.5 1031.3156,-355.5 1198.3156,-355.5 1198.3156,-336.5 1031.3156,-336.5"/>
<text text-anchor="middle" x="1114.8156" y="-343.5" font-family="FreeSans.ttf" font-size="10.00" fill="#000000">iDynTree/Core/VectorDynSize.h</text>
</a>
</g>
</g>
<!-- Node0&#45;&gt;Node10 -->
<g id="edge105" class="edge">
<title>Node0&#45;&gt;Node10</title>
<path fill="none" stroke="#191970" d="M1166.994,-576.866C1229.8563,-571.6725 1311.9874,-560.1602 1332.8156,-535 1369.7723,-490.3567 1432.55,-527.7006 1266.8156,-392 1246.5707,-375.4238 1220.4468,-364.8159 1195.5851,-358.0294"/>
<polygon fill="#191970" stroke="#191970" points="1196.3228,-354.6055 1185.7678,-355.5237 1194.5916,-361.3881 1196.3228,-354.6055"/>
</g>
<!-- Node12 -->
<g id="node13" class="node">
<title>Node12</title>
<polygon fill="none" stroke="#bfbfbf" points="1661.8156,-.5 1661.8156,-19.5 1713.8156,-19.5 1713.8156,-.5 1661.8156,-.5"/>
<text text-anchor="middle" x="1687.8156" y="-7.5" font-family="FreeSans.ttf" font-size="10.00" fill="#000000">cassert</text>
</g>
<!-- Node0&#45;&gt;Node12 -->
<g id="edge132" class="edge">
<title>Node0&#45;&gt;Node12</title>
<path fill="none" stroke="#191970" d="M1166.9292,-579.9065C1304.1647,-577.1546 1601.9558,-567.6155 1850.8156,-535 1987.4713,-517.09 2153.8156,-606.8244 2153.8156,-469 2153.8156,-469 2153.8156,-469 2153.8156,-122 2153.8156,-33.7243 1833.681,-14.8401 1724.0957,-10.9618"/>
<polygon fill="#191970" stroke="#191970" points="1723.9789,-7.4561 1713.8683,-10.6223 1723.7466,-14.4523 1723.9789,-7.4561"/>
</g>
<!-- Node20 -->
<g id="node21" class="node">
<title>Node20</title>
<g id="a_node21"><a xlink:href="MatrixDynSize_8h.html" target="_top" xlink:title="iDynTree/Core/MatrixDynSize.h">
<polygon fill="none" stroke="#000000" points="1216.3156,-336.5 1216.3156,-355.5 1383.3156,-355.5 1383.3156,-336.5 1216.3156,-336.5"/>
<text text-anchor="middle" x="1299.8156" y="-343.5" font-family="FreeSans.ttf" font-size="10.00" fill="#000000">iDynTree/Core/MatrixDynSize.h</text>
</a>
</g>
</g>
<!-- Node0&#45;&gt;Node20 -->
<g id="edge106" class="edge">
<title>Node0&#45;&gt;Node20</title>
<path fill="none" stroke="#191970" d="M1166.9362,-577.4926C1236.4707,-572.6448 1332.3559,-561.2824 1358.8156,-535 1406.9061,-487.2317 1345.904,-400.9139 1315.3392,-363.7767"/>
<polygon fill="#191970" stroke="#191970" points="1317.7684,-361.2281 1308.6469,-355.8385 1312.4165,-365.74 1317.7684,-361.2281"/>
</g>
<!-- Node25 -->
<g id="node26" class="node">
<title>Node25</title>
<polygon fill="none" stroke="#bfbfbf" points="1836.8156,-56.5 1836.8156,-75.5 1892.8156,-75.5 1892.8156,-56.5 1836.8156,-56.5"/>
<text text-anchor="middle" x="1864.8156" y="-63.5" font-family="FreeSans.ttf" font-size="10.00" fill="#000000">sstream</text>
</g>
<!-- Node0&#45;&gt;Node25 -->
<g id="edge133" class="edge">
<title>Node0&#45;&gt;Node25</title>
<path fill="none" stroke="#191970" d="M1167.0198,-576.6653C1404.566,-562.6539 2115.8156,-516.7175 2115.8156,-469 2115.8156,-469 2115.8156,-469 2115.8156,-178 2115.8156,-131.9505 1973.142,-91.6747 1902.9285,-74.6421"/>
<polygon fill="#191970" stroke="#191970" points="1903.6601,-71.2184 1893.1206,-72.2998 1902.034,-78.027 1903.6601,-71.2184"/>
</g>
<!-- Node32 -->
<g id="node33" class="node">
<title>Node32</title>
<g id="a_node33"><a xlink:href="DynamicalSystem_8h.html" target="_top" xlink:title="iDynTree/DynamicalSystem.h">
<polygon fill="none" stroke="#000000" points="410.3156,-398 410.3156,-417 571.3156,-417 571.3156,-398 410.3156,-398"/>
<text text-anchor="middle" x="490.8156" y="-405" font-family="FreeSans.ttf" font-size="10.00" fill="#000000">iDynTree/DynamicalSystem.h</text>
</a>
</g>
</g>
<!-- Node0&#45;&gt;Node32 -->
<g id="edge57" class="edge">
<title>Node0&#45;&gt;Node32</title>
<path fill="none" stroke="#191970" d="M1014.5493,-576.4229C895.875,-568.8785 672.5654,-552.8762 594.8156,-535 525.8696,-519.148 486.0901,-537.1618 445.8156,-479 432.9712,-460.4509 451.8111,-438.3773 468.8954,-423.7124"/>
<polygon fill="#191970" stroke="#191970" points="471.4241,-426.1684 476.9947,-417.1563 467.0199,-420.7276 471.4241,-426.1684"/>
</g>
<!-- Node33 -->
<g id="node34" class="node">
<title>Node33</title>
<g id="a_node34"><a xlink:href="LinearSystem_8h.html" target="_top" xlink:title="iDynTree/LinearSystem.h">
<polygon fill="none" stroke="#000000" points="454.8156,-459.5 454.8156,-478.5 592.8156,-478.5 592.8156,-459.5 454.8156,-459.5"/>
<text text-anchor="middle" x="523.8156" y="-466.5" font-family="FreeSans.ttf" font-size="10.00" fill="#000000">iDynTree/LinearSystem.h</text>
</a>
</g>
</g>
<!-- Node0&#45;&gt;Node33 -->
<g id="edge60" class="edge">
<title>Node0&#45;&gt;Node33</title>
<path fill="none" stroke="#191970" d="M1014.3739,-576.7651C905.574,-570.1162 711.8147,-555.8032 644.8156,-535 607.6946,-523.4739 568.965,-500.0022 545.6138,-484.3849"/>
<polygon fill="#191970" stroke="#191970" points="547.4015,-481.3678 537.1673,-478.6272 543.4587,-487.1518 547.4015,-481.3678"/>
</g>
<!-- Node34 -->
<g id="node35" class="node">
<title>Node34</title>
<g id="a_node35"><a xlink:href="ConstraintsGroup_8h.html" target="_top" xlink:title="iDynTree/ConstraintsGroup.h">
<polygon fill="none" stroke="#000000" points="38.8156,-459.5 38.8156,-478.5 194.8156,-478.5 194.8156,-459.5 38.8156,-459.5"/>
<text text-anchor="middle" x="116.8156" y="-466.5" font-family="FreeSans.ttf" font-size="10.00" fill="#000000">iDynTree/ConstraintsGroup.h</text>
</a>
</g>
</g>
<!-- Node0&#45;&gt;Node34 -->
<g id="edge65" class="edge">
<title>Node0&#45;&gt;Node34</title>
<path fill="none" stroke="#191970" d="M1014.7274,-578.01C855.4246,-571.4457 491.4199,-554.7718 368.8156,-535 291.9569,-522.6054 204.5186,-497.0374 155.4806,-481.6166"/>
<polygon fill="#191970" stroke="#191970" points="156.4984,-478.2677 145.9083,-478.5815 154.3827,-484.9403 156.4984,-478.2677"/>
</g>
<!-- Node35 -->
<g id="node36" class="node">
<title>Node35</title>
<g id="a_node36"><a xlink:href="Constraint_8h.html" target="_top" xlink:title="iDynTree/Constraint.h">
<polygon fill="none" stroke="#000000" points="891.8156,-398 891.8156,-417 1013.8156,-417 1013.8156,-398 891.8156,-398"/>
<text text-anchor="middle" x="952.8156" y="-405" font-family="FreeSans.ttf" font-size="10.00" fill="#000000">iDynTree/Constraint.h</text>
</a>
</g>
</g>
<!-- Node0&#45;&gt;Node35 -->
<g id="edge70" class="edge">
<title>Node0&#45;&gt;Node35</title>
<path fill="none" stroke="#191970" d="M1022.5485,-571.4885C968.8844,-559.8892 898.1415,-534.4296 866.8156,-479 852.4391,-453.5615 884.6832,-433.3231 913.7045,-420.9617"/>
<polygon fill="#191970" stroke="#191970" points="915.3833,-424.0588 923.3509,-417.0754 912.7674,-417.5659 915.3833,-424.0588"/>
</g>
<!-- Node36 -->
<g id="node37" class="node">
<title>Node36</title>
<g id="a_node37"><a xlink:href="LinearConstraint_8h.html" target="_top" xlink:title="iDynTree/LinearConstraint.h">
<polygon fill="none" stroke="#000000" points="1054.8156,-459.5 1054.8156,-478.5 1206.8156,-478.5 1206.8156,-459.5 1054.8156,-459.5"/>
<text text-anchor="middle" x="1130.8156" y="-466.5" font-family="FreeSans.ttf" font-size="10.00" fill="#000000">iDynTree/LinearConstraint.h</text>
</a>
</g>
</g>
<!-- Node0&#45;&gt;Node36 -->
<g id="edge75" class="edge">
<title>Node0&#45;&gt;Node36</title>
<path fill="none" stroke="#191970" d="M1097.528,-571.2042C1103.4227,-562.1754 1111.816,-548.2129 1116.8156,-535 1122.5154,-519.9365 1126.1312,-502.0144 1128.2573,-488.6501"/>
<polygon fill="#191970" stroke="#191970" points="1131.7347,-489.0576 1129.7059,-478.6588 1124.8072,-488.0531 1131.7347,-489.0576"/>
</g>
<!-- Node37 -->
<g id="node38" class="node">
<title>Node37</title>
<g id="a_node38"><a xlink:href="Cost_8h.html" target="_top" xlink:title="iDynTree/Cost.h">
<polygon fill="none" stroke="#000000" points="666.3156,-398 666.3156,-417 759.3156,-417 759.3156,-398 666.3156,-398"/>
<text text-anchor="middle" x="712.8156" y="-405" font-family="FreeSans.ttf" font-size="10.00" fill="#000000">iDynTree/Cost.h</text>
</a>
</g>
</g>
<!-- Node0&#45;&gt;Node37 -->
<g id="edge82" class="edge">
<title>Node0&#45;&gt;Node37</title>
<path fill="none" stroke="#191970" d="M1014.5423,-575.1323C954.3825,-569.0651 868.893,-557.2293 796.8156,-535 741.3432,-517.8918 709.8403,-528.0647 678.8156,-479 667.6588,-461.3559 681.7065,-439.4818 694.9796,-424.6068"/>
<polygon fill="#191970" stroke="#191970" points="697.7383,-426.7856 702.1089,-417.1342 692.6736,-421.9535 697.7383,-426.7856"/>
</g>
<!-- Node38 -->
<g id="node39" class="node">
<title>Node38</title>
<g id="a_node39"><a xlink:href="QuadraticLikeCost_8h.html" target="_top" xlink:title="iDynTree/QuadraticLikeCost.h">
<polygon fill="none" stroke="#000000" points="875.3156,-459.5 875.3156,-478.5 1036.3156,-478.5 1036.3156,-459.5 875.3156,-459.5"/>
<text text-anchor="middle" x="955.8156" y="-466.5" font-family="FreeSans.ttf" font-size="10.00" fill="#000000">iDynTree/QuadraticLikeCost.h</text>
</a>
</g>
</g>
<!-- Node0&#45;&gt;Node38 -->
<g id="edge85" class="edge">
<title>Node0&#45;&gt;Node38</title>
<path fill="none" stroke="#191970" d="M1040.9628,-571.4406C1018.3042,-564.7423 992.8219,-553.5406 975.8156,-535 964.3208,-522.4681 959.4246,-503.5262 957.3433,-489.1444"/>
<polygon fill="#191970" stroke="#191970" points="960.7776,-488.3551 956.2053,-478.7976 953.8196,-489.1204 960.7776,-488.3551"/>
</g>
<!-- Node39 -->
<g id="node40" class="node">
<title>Node39</title>
<g id="a_node40"><a xlink:href="QuadraticCost_8h.html" target="_top" xlink:title="iDynTree/QuadraticCost.h">
<polygon fill="none" stroke="#000000" points="1183.8156,-515.5 1183.8156,-534.5 1323.8156,-534.5 1323.8156,-515.5 1183.8156,-515.5"/>
<text text-anchor="middle" x="1253.8156" y="-522.5" font-family="FreeSans.ttf" font-size="10.00" fill="#000000">iDynTree/QuadraticCost.h</text>
</a>
</g>
</g>
<!-- Node0&#45;&gt;Node39 -->
<g id="edge89" class="edge">
<title>Node0&#45;&gt;Node39</title>
<path fill="none" stroke="#191970" d="M1118.8363,-571.3733C1145.8234,-562.1016 1186.8173,-548.0178 1216.5467,-537.804"/>
<polygon fill="#191970" stroke="#191970" points="1217.8403,-541.0605 1226.1605,-534.5011 1215.5659,-534.4403 1217.8403,-541.0605"/>
</g>
<!-- Node40 -->
<g id="node41" class="node">
<title>Node40</title>
<g id="a_node41"><a xlink:href="L2NormCost_8h.html" target="_top" xlink:title="iDynTree/L2NormCost.h">
<polygon fill="none" stroke="#000000" points="687.3156,-459.5 687.3156,-478.5 818.3156,-478.5 818.3156,-459.5 687.3156,-459.5"/>
<text text-anchor="middle" x="752.8156" y="-466.5" font-family="FreeSans.ttf" font-size="10.00" fill="#000000">iDynTree/L2NormCost.h</text>
</a>
</g>
</g>
<!-- Node0&#45;&gt;Node40 -->
<g id="edge95" class="edge">
<title>Node0&#45;&gt;Node40</title>
<path fill="none" stroke="#191970" d="M1014.7843,-571.7889C950.6742,-563.2303 864.4592,-549.6321 832.8156,-535 807.4868,-523.2879 783.505,-501.5668 768.5227,-486.2484"/>
<polygon fill="#191970" stroke="#191970" points="770.9742,-483.7472 761.5488,-478.9084 765.8995,-488.5688 770.9742,-483.7472"/>
</g>
<!-- Node41 -->
<g id="node42" class="node">
<title>Node41</title>
<g id="a_node42"><a xlink:href="LinearCost_8h.html" target="_top" xlink:title="iDynTree/LinearCost.h">
<polygon fill="none" stroke="#000000" points="984.3156,-515.5 984.3156,-534.5 1107.3156,-534.5 1107.3156,-515.5 984.3156,-515.5"/>
<text text-anchor="middle" x="1045.8156" y="-522.5" font-family="FreeSans.ttf" font-size="10.00" fill="#000000">iDynTree/LinearCost.h</text>
</a>
</g>
</g>
<!-- Node0&#45;&gt;Node41 -->
<g id="edge101" class="edge">
<title>Node0&#45;&gt;Node41</title>
<path fill="none" stroke="#191970" d="M1082.9772,-571.2455C1076.6535,-563.3761 1067.5932,-552.101 1060.002,-542.6542"/>
<polygon fill="#191970" stroke="#191970" points="1062.5564,-540.2454 1053.5642,-534.6427 1057.0998,-544.6302 1062.5564,-540.2454"/>
</g>
<!-- Node42 -->
<g id="node43" class="node">
<title>Node42</title>
<g id="a_node43"><a xlink:href="TimeRange_8h.html" target="_top" xlink:title="iDynTree/TimeRange.h">
<polygon fill="none" stroke="#000000" points="2182.3156,-515.5 2182.3156,-534.5 2309.3156,-534.5 2309.3156,-515.5 2182.3156,-515.5"/>
<text text-anchor="middle" x="2245.8156" y="-522.5" font-family="FreeSans.ttf" font-size="10.00" fill="#000000">iDynTree/TimeRange.h</text>
</a>
</g>
</g>
<!-- Node0&#45;&gt;Node42 -->
<g id="edge104" class="edge">
<title>Node0&#45;&gt;Node42</title>
<path fill="none" stroke="#191970" d="M1167.0187,-579.9645C1343.3859,-577.0832 1793.2391,-566.9527 2167.8156,-535 2169.1164,-534.889 2170.4288,-534.7724 2171.7502,-534.6507"/>
<polygon fill="#191970" stroke="#191970" points="2172.4086,-538.1025 2182.012,-533.6276 2171.7141,-531.137 2172.4086,-538.1025"/>
</g>
<!-- Node43 -->
<g id="node44" class="node">
<title>Node43</title>
<g id="a_node44"><a xlink:href="EigenHelpers_8h.html" target="_top" xlink:title="iDynTree/Core/EigenHelpers.h">
<polygon fill="none" stroke="#000000" points="1546.3156,-459.5 1546.3156,-478.5 1707.3156,-478.5 1707.3156,-459.5 1546.3156,-459.5"/>
<text text-anchor="middle" x="1626.8156" y="-466.5" font-family="FreeSans.ttf" font-size="10.00" fill="#000000">iDynTree/Core/EigenHelpers.h</text>
</a>
</g>
</g>
<!-- Node0&#45;&gt;Node43 -->
<g id="edge108" class="edge">
<title>Node0&#45;&gt;Node43</title>
<path fill="none" stroke="#191970" d="M1166.9902,-577.6146C1243.5552,-572.8296 1364.435,-561.487 1465.8156,-535 1514.288,-522.336 1567.5254,-498.3813 1599.0111,-483.0795"/>
<polygon fill="#191970" stroke="#191970" points="1600.6268,-486.1854 1608.0549,-478.6306 1597.5368,-479.9042 1600.6268,-486.1854"/>
</g>
<!-- Node44 -->
<g id="node45" class="node">
<title>Node44</title>
<polygon fill="none" stroke="#bfbfbf" points="2010.3156,-398 2010.3156,-417 2087.3156,-417 2087.3156,-398 2010.3156,-398"/>
<text text-anchor="middle" x="2048.8156" y="-405" font-family="FreeSans.ttf" font-size="10.00" fill="#000000">Eigen/Dense</text>
</g>
<!-- Node0&#45;&gt;Node44 -->
<g id="edge130" class="edge">
<title>Node0&#45;&gt;Node44</title>
<path fill="none" stroke="#191970" d="M1167.0782,-575.2912C1251.1539,-568.3747 1390.2256,-555.0917 1508.8156,-535 1727.7898,-497.9011 1780.9187,-479.0833 1995.8156,-423 1999.6202,-422.0071 2003.5662,-420.9344 2007.5106,-419.8331"/>
<polygon fill="#191970" stroke="#191970" points="2008.5714,-423.1703 2017.2306,-417.0655 2006.6544,-416.4379 2008.5714,-423.1703"/>
</g>
<!-- Node48 -->
<g id="node49" class="node">
<title>Node48</title>
<polygon fill="none" stroke="#bfbfbf" points="2327.8156,-515.5 2327.8156,-534.5 2365.8156,-534.5 2365.8156,-515.5 2327.8156,-515.5"/>
<text text-anchor="middle" x="2346.8156" y="-522.5" font-family="FreeSans.ttf" font-size="10.00" fill="#000000">map</text>
</g>
<!-- Node0&#45;&gt;Node48 -->
<g id="edge131" class="edge">
<title>Node0&#45;&gt;Node48</title>
<path fill="none" stroke="#191970" d="M1166.9928,-579.4978C1411.3945,-574.4955 2168.0841,-557.5273 2317.6793,-534.4227"/>
<polygon fill="#191970" stroke="#191970" points="2318.4967,-537.8333 2327.752,-532.6767 2317.3011,-530.9362 2318.4967,-537.8333"/>
</g>
<!-- Node2 -->
<g id="node3" class="node">
<title>Node2</title>
<polygon fill="none" stroke="#bfbfbf" points="589.8156,-398 589.8156,-417 647.8156,-417 647.8156,-398 589.8156,-398"/>
<text text-anchor="middle" x="618.8156" y="-405" font-family="FreeSans.ttf" font-size="10.00" fill="#000000">memory</text>
</g>
<!-- Node1&#45;&gt;Node2 -->
<g id="edge2" class="edge">
<title>Node1&#45;&gt;Node2</title>
<path fill="none" stroke="#191970" d="M390.7744,-459.4605C445.4079,-452.1728 517.5622,-440.3843 579.8156,-423 582.423,-422.2719 585.0951,-421.4286 587.7582,-420.5189"/>
<polygon fill="#191970" stroke="#191970" points="589.063,-423.7682 597.2315,-417.0208 586.6382,-417.2015 589.063,-423.7682"/>
</g>
<!-- Node3 -->
<g id="node4" class="node">
<title>Node3</title>
<polygon fill="none" stroke="#bfbfbf" points="127.3156,-280.5 127.3156,-299.5 174.3156,-299.5 174.3156,-280.5 127.3156,-280.5"/>
<text text-anchor="middle" x="150.8156" y="-287.5" font-family="FreeSans.ttf" font-size="10.00" fill="#000000">vector</text>
</g>
<!-- Node1&#45;&gt;Node3 -->
<g id="edge3" class="edge">
<title>Node1&#45;&gt;Node3</title>
<path fill="none" stroke="#191970" d="M276.0524,-459.3762C256.8939,-451.9437 232.5387,-440.0254 215.8156,-423 183.3818,-389.98 164.4133,-337.5969 156.0161,-309.4358"/>
<polygon fill="#191970" stroke="#191970" points="159.3227,-308.2672 153.2242,-299.6036 152.589,-310.1794 159.3227,-308.2672"/>
</g>
<!-- Node4 -->
<g id="node5" class="node">
<title>Node4</title>
<polygon fill="none" stroke="#bfbfbf" points="959.8156,-56.5 959.8156,-75.5 1003.8156,-75.5 1003.8156,-56.5 959.8156,-56.5"/>
<text text-anchor="middle" x="981.8156" y="-63.5" font-family="FreeSans.ttf" font-size="10.00" fill="#000000">string</text>
</g>
<!-- Node1&#45;&gt;Node4 -->
<g id="edge4" class="edge">
<title>Node1&#45;&gt;Node4</title>
<path fill="none" stroke="#191970" d="M319.9578,-459.2159C332.7593,-450.195 351.9789,-436.2375 367.8156,-423 383.2552,-410.0943 383.0993,-401.5432 400.8156,-392 461.5559,-359.2813 493.9354,-393.5471 551.8156,-356 666.4396,-281.6429 622.4775,-183.6458 738.8156,-112 773.7496,-90.4862 891.9436,-75.4583 949.6217,-69.2218"/>
<polygon fill="#191970" stroke="#191970" points="950.0774,-72.6932 959.6535,-68.16 949.3406,-65.7321 950.0774,-72.6932"/>
</g>
<!-- Node1&#45;&gt;Node5 -->
<g id="edge5" class="edge">
<title>Node1&#45;&gt;Node5</title>
<path fill="none" stroke="#191970" d="M308.6596,-459.2347C321.2996,-416.5191 374.8982,-242.4281 445.8156,-112 451.1253,-102.2346 458.184,-92.1199 464.4101,-83.8704"/>
<polygon fill="#191970" stroke="#191970" points="467.3439,-85.799 470.7172,-75.7555 461.817,-81.5033 467.3439,-85.799"/>
</g>
<!-- Node7 -->
<g id="node8" class="node">
<title>Node7</title>
<g id="a_node8"><a xlink:href="SparsityStructure_8h.html" target="_top" xlink:title="iDynTree/SparsityStructure.h">
<polygon fill="none" stroke="#000000" points="388.3156,-336.5 388.3156,-355.5 543.3156,-355.5 543.3156,-336.5 388.3156,-336.5"/>
<text text-anchor="middle" x="465.8156" y="-343.5" font-family="FreeSans.ttf" font-size="10.00" fill="#000000">iDynTree/SparsityStructure.h</text>
</a>
</g>
</g>
<!-- Node1&#45;&gt;Node7 -->
<g id="edge7" class="edge">
<title>Node1&#45;&gt;Node7</title>
<path fill="none" stroke="#191970" d="M315.3952,-459.4019C330.7905,-444.2186 362.3092,-414.116 391.8156,-392 407.0075,-380.6131 425.0899,-369.3349 439.5771,-360.7957"/>
<polygon fill="#191970" stroke="#191970" points="441.6223,-363.6553 448.5115,-355.6061 438.1064,-357.6023 441.6223,-363.6553"/>
</g>
<!-- Node9 -->
<g id="node10" class="node">
<title>Node9</title>
<g id="a_node10"><a xlink:href="TimeVaryingObject_8h.html" target="_top" xlink:title="iDynTree/TimeVaryingObject.h">
<polygon fill="none" stroke="#000000" points="1069.8156,-398 1069.8156,-417 1233.8156,-417 1233.8156,-398 1069.8156,-398"/>
<text text-anchor="middle" x="1151.8156" y="-405" font-family="FreeSans.ttf" font-size="10.00" fill="#000000">iDynTree/TimeVaryingObject.h</text>
</a>
</g>
</g>
<!-- Node1&#45;&gt;Node9 -->
<g id="edge13" class="edge">
<title>Node1&#45;&gt;Node9</title>
<path fill="none" stroke="#191970" d="M399.1878,-462.2132C414.7572,-461.1152 430.7414,-460.0086 445.8156,-459 702.1855,-441.8466 766.9344,-446.3358 1022.8156,-423 1037.7417,-421.6388 1053.6099,-419.94 1068.9257,-418.1705"/>
<polygon fill="#191970" stroke="#191970" points="1069.3714,-421.6423 1078.8952,-417.0004 1068.5554,-414.6901 1069.3714,-421.6423"/>
</g>
<!-- Node6 -->
<g id="node7" class="node">
<title>Node6</title>
<polygon fill="none" stroke="#bfbfbf" points="395.3156,-.5 395.3156,-19.5 448.3156,-19.5 448.3156,-.5 395.3156,-.5"/>
<text text-anchor="middle" x="421.8156" y="-7.5" font-family="FreeSans.ttf" font-size="10.00" fill="#000000">cstddef</text>
</g>
<!-- Node5&#45;&gt;Node6 -->
<g id="edge6" class="edge">
<title>Node5&#45;&gt;Node6</title>
<path fill="none" stroke="#191970" d="M468.8869,-56.2455C460.6318,-48.1352 448.6947,-36.4075 438.9073,-26.7919"/>
<polygon fill="#191970" stroke="#191970" points="441.2167,-24.1542 431.6304,-19.6427 436.3109,-29.1476 441.2167,-24.1542"/>
</g>
<!-- Node7&#45;&gt;Node3 -->
<g id="edge9" class="edge">
<title>Node7&#45;&gt;Node3</title>
<path fill="none" stroke="#191970" d="M412.0231,-336.4369C346.9524,-324.8688 239.3672,-305.7425 184.8055,-296.0427"/>
<polygon fill="#191970" stroke="#191970" points="185.0867,-292.5378 174.6285,-294.2334 183.8615,-299.4298 185.0867,-292.5378"/>
</g>
<!-- Node7&#45;&gt;Node4 -->
<g id="edge12" class="edge">
<title>Node7&#45;&gt;Node4</title>
<path fill="none" stroke="#191970" d="M501.4744,-336.448C522.0288,-329.3474 547.0383,-317.7628 563.8156,-300 627.5571,-232.5144 576.0265,-161.0874 654.8156,-112 703.644,-81.5788 876.891,-70.5842 949.4642,-67.2536"/>
<polygon fill="#191970" stroke="#191970" points="949.9774,-70.7345 959.8144,-66.7997 949.6706,-63.7412 949.9774,-70.7345"/>
</g>
<!-- Node7&#45;&gt;Node5 -->
<g id="edge8" class="edge">
<title>Node7&#45;&gt;Node5</title>
<path fill="none" stroke="#191970" d="M462.1267,-336.2751C455.1726,-317.0407 440.8156,-272.6505 440.8156,-234 440.8156,-234 440.8156,-234 440.8156,-178 440.8156,-143.6118 457.079,-106.2832 468.3266,-84.5791"/>
<polygon fill="#191970" stroke="#191970" points="471.5472,-85.9804 473.2085,-75.5166 465.3845,-82.6605 471.5472,-85.9804"/>
</g>
<!-- Node7&#45;&gt;Node6 -->
<g id="edge10" class="edge">
<title>Node7&#45;&gt;Node6</title>
<path fill="none" stroke="#191970" d="M408.1836,-336.4664C353.2385,-323.6951 278.8156,-295.1162 278.8156,-234 278.8156,-234 278.8156,-234 278.8156,-122 278.8156,-67.8447 343.1674,-35.946 385.5328,-20.8136"/>
<polygon fill="#191970" stroke="#191970" points="386.9209,-24.0382 395.2535,-17.4947 384.659,-17.4136 386.9209,-24.0382"/>
</g>
<!-- Node8 -->
<g id="node9" class="node">
<title>Node8</title>
<polygon fill="none" stroke="#bfbfbf" points="468.8156,-280.5 468.8156,-299.5 554.8156,-299.5 554.8156,-280.5 468.8156,-280.5"/>
<text text-anchor="middle" x="511.8156" y="-287.5" font-family="FreeSans.ttf" font-size="10.00" fill="#000000">unordered_set</text>
</g>
<!-- Node7&#45;&gt;Node8 -->
<g id="edge11" class="edge">
<title>Node7&#45;&gt;Node8</title>
<path fill="none" stroke="#191970" d="M473.8282,-336.2455C480.2923,-328.3761 489.554,-317.101 497.3139,-307.6542"/>
<polygon fill="#191970" stroke="#191970" points="500.2519,-309.5916 503.8948,-299.6427 494.8428,-305.1484 500.2519,-309.5916"/>
</g>
<!-- Node9&#45;&gt;Node10 -->
<g id="edge14" class="edge">
<title>Node9&#45;&gt;Node10</title>
<path fill="none" stroke="#191970" d="M1146.0343,-397.8906C1140.6896,-389.0068 1132.5997,-375.5601 1125.9944,-364.5811"/>
<polygon fill="#191970" stroke="#191970" points="1128.8327,-362.5093 1120.6783,-355.7449 1122.8345,-366.118 1128.8327,-362.5093"/>
</g>
<!-- Node9&#45;&gt;Node20 -->
<g id="edge26" class="edge">
<title>Node9&#45;&gt;Node20</title>
<path fill="none" stroke="#191970" d="M1174.9406,-397.8906C1199.8123,-387.5554 1239.5454,-371.0447 1267.5,-359.4284"/>
<polygon fill="#191970" stroke="#191970" points="1268.9616,-362.6113 1276.853,-355.5419 1266.2754,-356.1472 1268.9616,-362.6113"/>
</g>
<!-- Node21 -->
<g id="node22" class="node">
<title>Node21</title>
<g id="a_node22"><a xlink:href="Transform_8h.html" target="_top" xlink:title="iDynTree/Core/Transform.h">
<polygon fill="none" stroke="#000000" points="1438.8156,-336.5 1438.8156,-355.5 1584.8156,-355.5 1584.8156,-336.5 1438.8156,-336.5"/>
<text text-anchor="middle" x="1511.8156" y="-343.5" font-family="FreeSans.ttf" font-size="10.00" fill="#000000">iDynTree/Core/Transform.h</text>
</a>
</g>
</g>
<!-- Node9&#45;&gt;Node21 -->
<g id="edge28" class="edge">
<title>Node9&#45;&gt;Node21</title>
<path fill="none" stroke="#191970" d="M1207.6706,-397.9581C1272.0097,-386.9668 1377.6077,-368.9272 1445.9121,-357.2585"/>
<polygon fill="#191970" stroke="#191970" points="1446.858,-360.6477 1456.1257,-355.5137 1445.6791,-353.7477 1446.858,-360.6477"/>
</g>
<!-- Node10&#45;&gt;Node4 -->
<g id="edge25" class="edge">
<title>Node10&#45;&gt;Node4</title>
<path fill="none" stroke="#191970" d="M1082.5847,-336.4129C1063.4162,-329.2073 1039.9613,-317.525 1024.8156,-300 970.9002,-237.6147 974.9226,-130.2383 979.309,-85.9705"/>
<polygon fill="#191970" stroke="#191970" points="982.8003,-86.2411 980.4247,-75.916 975.843,-85.4689 982.8003,-86.2411"/>
</g>
<!-- Node11 -->
<g id="node12" class="node">
<title>Node11</title>
<g id="a_node12"><a xlink:href="Span_8h.html" target="_top" xlink:title="iDynTree/Core/Span.h">
<polygon fill="none" stroke="#000000" points="1328.3156,-56.5 1328.3156,-75.5 1449.3156,-75.5 1449.3156,-56.5 1328.3156,-56.5"/>
<text text-anchor="middle" x="1388.8156" y="-63.5" font-family="FreeSans.ttf" font-size="10.00" fill="#000000">iDynTree/Core/Span.h</text>
</a>
</g>
</g>
<!-- Node10&#45;&gt;Node11 -->
<g id="edge15" class="edge">
<title>Node10&#45;&gt;Node11</title>
<path fill="none" stroke="#191970" d="M1112.6999,-336.2788C1106.9873,-307.2982 1094.2184,-220.2702 1133.8156,-168 1177.4995,-110.3351 1258.9731,-85.1945 1318.0989,-74.281"/>
<polygon fill="#191970" stroke="#191970" points="1318.8776,-77.698 1328.1244,-72.5262 1317.6707,-70.8028 1318.8776,-77.698"/>
</g>
<!-- Node11&#45;&gt;Node6 -->
<g id="edge19" class="edge">
<title>Node11&#45;&gt;Node6</title>
<path fill="none" stroke="#191970" d="M1327.9591,-62.4757C1145.2568,-51.8953 605.1145,-20.615 458.7521,-12.139"/>
<polygon fill="#191970" stroke="#191970" points="458.7012,-8.6303 448.5155,-11.5462 458.2964,-15.6186 458.7012,-8.6303"/>
</g>
<!-- Node11&#45;&gt;Node12 -->
<g id="edge16" class="edge">
<title>Node11&#45;&gt;Node12</title>
<path fill="none" stroke="#191970" d="M1441.8037,-56.4443C1492.2416,-47.2934 1570.2557,-32.9957 1637.8156,-20 1642.2884,-19.1396 1646.9831,-18.2211 1651.6298,-17.3026"/>
<polygon fill="#191970" stroke="#191970" points="1652.4961,-20.6989 1661.6207,-15.3145 1651.1299,-13.8335 1652.4961,-20.6989"/>
</g>
<!-- Node13 -->
<g id="node14" class="node">
<title>Node13</title>
<polygon fill="none" stroke="#bfbfbf" points="1504.8156,-.5 1504.8156,-19.5 1568.8156,-19.5 1568.8156,-.5 1504.8156,-.5"/>
<text text-anchor="middle" x="1536.8156" y="-7.5" font-family="FreeSans.ttf" font-size="10.00" fill="#000000">algorithm</text>
</g>
<!-- Node11&#45;&gt;Node13 -->
<g id="edge17" class="edge">
<title>Node11&#45;&gt;Node13</title>
<path fill="none" stroke="#191970" d="M1414.2577,-56.3733C1438.5482,-47.1822 1475.3364,-33.2624 1502.2699,-23.0713"/>
<polygon fill="#191970" stroke="#191970" points="1503.5912,-26.3136 1511.7055,-19.5011 1501.114,-19.7666 1503.5912,-26.3136"/>
</g>
<!-- Node14 -->
<g id="node15" class="node">
<title>Node14</title>
<polygon fill="none" stroke="#bfbfbf" points="1586.8156,-.5 1586.8156,-19.5 1628.8156,-19.5 1628.8156,-.5 1586.8156,-.5"/>
<text text-anchor="middle" x="1607.8156" y="-7.5" font-family="FreeSans.ttf" font-size="10.00" fill="#000000">array</text>
</g>
<!-- Node11&#45;&gt;Node14 -->
<g id="edge18" class="edge">
<title>Node11&#45;&gt;Node14</title>
<path fill="none" stroke="#191970" d="M1432.6256,-56.4225C1468.9268,-48.2436 1522.0476,-35.7176 1576.7176,-20.1567"/>
<polygon fill="#191970" stroke="#191970" points="1577.9351,-23.4485 1586.5784,-17.3212 1576.0006,-16.7211 1577.9351,-23.4485"/>
</g>
<!-- Node15 -->
<g id="node16" class="node">
<title>Node15</title>
<polygon fill="none" stroke="#bfbfbf" points="1137.3156,-.5 1137.3156,-19.5 1190.3156,-19.5 1190.3156,-.5 1137.3156,-.5"/>
<text text-anchor="middle" x="1163.8156" y="-7.5" font-family="FreeSans.ttf" font-size="10.00" fill="#000000">iterator</text>
</g>
<!-- Node11&#45;&gt;Node15 -->
<g id="edge20" class="edge">
<title>Node11&#45;&gt;Node15</title>
<path fill="none" stroke="#191970" d="M1347.7964,-56.4188C1311.5456,-47.8614 1257.0042,-34.7684 1200.3726,-20.0862"/>
<polygon fill="#191970" stroke="#191970" points="1201.0854,-16.6551 1190.5261,-17.5226 1199.3217,-23.4293 1201.0854,-16.6551"/>
</g>
<!-- Node16 -->
<g id="node17" class="node">
<title>Node16</title>
<polygon fill="none" stroke="#bfbfbf" points="1208.8156,-.5 1208.8156,-19.5 1252.8156,-19.5 1252.8156,-.5 1208.8156,-.5"/>
<text text-anchor="middle" x="1230.8156" y="-7.5" font-family="FreeSans.ttf" font-size="10.00" fill="#000000">limits</text>
</g>
<!-- Node11&#45;&gt;Node16 -->
<g id="edge21" class="edge">
<title>Node11&#45;&gt;Node16</title>
<path fill="none" stroke="#191970" d="M1361.6544,-56.3733C1334.1882,-46.6384 1291.7543,-31.5985 1262.7068,-21.3032"/>
<polygon fill="#191970" stroke="#191970" points="1263.6319,-17.9178 1253.0371,-17.876 1261.2934,-24.5157 1263.6319,-17.9178"/>
</g>
<!-- Node17 -->
<g id="node18" class="node">
<title>Node17</title>
<polygon fill="none" stroke="#bfbfbf" points="1271.3156,-.5 1271.3156,-19.5 1336.3156,-19.5 1336.3156,-.5 1271.3156,-.5"/>
<text text-anchor="middle" x="1303.8156" y="-7.5" font-family="FreeSans.ttf" font-size="10.00" fill="#000000">stdexcept</text>
</g>
<!-- Node11&#45;&gt;Node17 -->
<g id="edge22" class="edge">
<title>Node11&#45;&gt;Node17</title>
<path fill="none" stroke="#191970" d="M1374.0097,-56.2455C1361.09,-47.7337 1342.1225,-35.2375 1327.1603,-25.3801"/>
<polygon fill="#191970" stroke="#191970" points="1328.728,-22.2216 1318.4518,-19.6427 1324.8768,-28.067 1328.728,-22.2216"/>
</g>
<!-- Node18 -->
<g id="node19" class="node">
<title>Node18</title>
<polygon fill="none" stroke="#bfbfbf" points="1354.3156,-.5 1354.3156,-19.5 1423.3156,-19.5 1423.3156,-.5 1354.3156,-.5"/>
<text text-anchor="middle" x="1388.8156" y="-7.5" font-family="FreeSans.ttf" font-size="10.00" fill="#000000">type_traits</text>
</g>
<!-- Node11&#45;&gt;Node18 -->
<g id="edge23" class="edge">
<title>Node11&#45;&gt;Node18</title>
<path fill="none" stroke="#191970" d="M1388.8156,-56.2455C1388.8156,-48.9382 1388.8156,-38.6944 1388.8156,-29.7046"/>
<polygon fill="#191970" stroke="#191970" points="1392.3157,-29.6426 1388.8156,-19.6427 1385.3157,-29.6427 1392.3157,-29.6426"/>
</g>
<!-- Node19 -->
<g id="node20" class="node">
<title>Node19</title>
<polygon fill="none" stroke="#bfbfbf" points="1441.3156,-.5 1441.3156,-19.5 1486.3156,-19.5 1486.3156,-.5 1441.3156,-.5"/>
<text text-anchor="middle" x="1463.8156" y="-7.5" font-family="FreeSans.ttf" font-size="10.00" fill="#000000">utility</text>
</g>
<!-- Node11&#45;&gt;Node19 -->
<g id="edge24" class="edge">
<title>Node11&#45;&gt;Node19</title>
<path fill="none" stroke="#191970" d="M1401.8796,-56.2455C1413.1718,-47.814 1429.7001,-35.4729 1442.8427,-25.6598"/>
<polygon fill="#191970" stroke="#191970" points="1444.9825,-28.4301 1450.9013,-19.6427 1440.7944,-22.8211 1444.9825,-28.4301"/>
</g>
<!-- Node20&#45;&gt;Node4 -->
<g id="edge27" class="edge">
<title>Node20&#45;&gt;Node4</title>
<path fill="none" stroke="#191970" d="M1232.9091,-336.4937C1167.4213,-326.638 1075.6572,-311.1416 1062.8156,-300 1029.3061,-270.9267 997.1798,-136.6367 985.9869,-85.6812"/>
<polygon fill="#191970" stroke="#191970" points="989.3485,-84.6665 983.815,-75.6315 982.5065,-86.1452 989.3485,-84.6665"/>
</g>
<!-- Node21&#45;&gt;Node4 -->
<g id="edge56" class="edge">
<title>Node21&#45;&gt;Node4</title>
<path fill="none" stroke="#191970" d="M1462.2843,-336.4764C1380.5001,-318.7876 1215.1169,-274.5374 1102.8156,-188 1060.5408,-155.4238 1018.2579,-108.7953 996.625,-83.6656"/>
<polygon fill="#191970" stroke="#191970" points="999.0167,-81.0757 989.8683,-75.7318 993.6874,-85.6143 999.0167,-81.0757"/>
</g>
<!-- Node22 -->
<g id="node23" class="node">
<title>Node22</title>
<g id="a_node23"><a xlink:href="Position_8h.html" target="_top" xlink:title="iDynTree/Core/Position.h">
<polygon fill="none" stroke="#000000" points="1338.8156,-280.5 1338.8156,-299.5 1474.8156,-299.5 1474.8156,-280.5 1338.8156,-280.5"/>
<text text-anchor="middle" x="1406.8156" y="-287.5" font-family="FreeSans.ttf" font-size="10.00" fill="#000000">iDynTree/Core/Position.h</text>
</a>
</g>
</g>
<!-- Node21&#45;&gt;Node22 -->
<g id="edge29" class="edge">
<title>Node21&#45;&gt;Node22</title>
<path fill="none" stroke="#191970" d="M1493.526,-336.2455C1477.0393,-327.4527 1452.5804,-314.4079 1433.839,-304.4125"/>
<polygon fill="#191970" stroke="#191970" points="1435.3662,-301.2604 1424.8956,-299.6427 1432.0721,-307.4368 1435.3662,-301.2604"/>
</g>
<!-- Node27 -->
<g id="node28" class="node">
<title>Node27</title>
<g id="a_node28"><a xlink:href="Rotation_8h.html" target="_top" xlink:title="iDynTree/Core/Rotation.h">
<polygon fill="none" stroke="#000000" points="1413.3156,-224.5 1413.3156,-243.5 1550.3156,-243.5 1550.3156,-224.5 1413.3156,-224.5"/>
<text text-anchor="middle" x="1481.8156" y="-231.5" font-family="FreeSans.ttf" font-size="10.00" fill="#000000">iDynTree/Core/Rotation.h</text>
</a>
</g>
</g>
<!-- Node21&#45;&gt;Node27 -->
<g id="edge54" class="edge">
<title>Node21&#45;&gt;Node27</title>
<path fill="none" stroke="#191970" d="M1509.2578,-336.4509C1504.3427,-318.1013 1493.4917,-277.5908 1487.0038,-253.3693"/>
<polygon fill="#191970" stroke="#191970" points="1490.3351,-252.2788 1484.3669,-243.5249 1483.5735,-254.09 1490.3351,-252.2788"/>
</g>
<!-- Node30 -->
<g id="node31" class="node">
<title>Node30</title>
<g id="a_node31"><a xlink:href="MatrixFixSize_8h.html" target="_top" xlink:title="iDynTree/Core/MatrixFixSize.h">
<polygon fill="none" stroke="#000000" points="1639.3156,-112.5 1639.3156,-131.5 1800.3156,-131.5 1800.3156,-112.5 1639.3156,-112.5"/>
<text text-anchor="middle" x="1719.8156" y="-119.5" font-family="FreeSans.ttf" font-size="10.00" fill="#000000">iDynTree/Core/MatrixFixSize.h</text>
</a>
</g>
</g>
<!-- Node21&#45;&gt;Node30 -->
<g id="edge55" class="edge">
<title>Node21&#45;&gt;Node30</title>
<path fill="none" stroke="#191970" d="M1516.5526,-336.3716C1531.0685,-307.6502 1577.5659,-221.2716 1636.8156,-168 1651.5628,-154.7407 1670.7928,-143.7802 1687.0291,-135.8882"/>
<polygon fill="#191970" stroke="#191970" points="1688.6132,-139.0112 1696.1864,-131.602 1685.6457,-132.6714 1688.6132,-139.0112"/>
</g>
<!-- Node22&#45;&gt;Node4 -->
<g id="edge53" class="edge">
<title>Node22&#45;&gt;Node4</title>
<path fill="none" stroke="#191970" d="M1367.0725,-280.4707C1311.8535,-266.0853 1210.1166,-235.3667 1133.8156,-188 1091.8746,-161.9636 1091.6856,-142.4312 1052.8156,-112 1038.3009,-100.6365 1020.9528,-89.3587 1007.0382,-80.8139"/>
<polygon fill="#191970" stroke="#191970" points="1008.8221,-77.8025 998.4545,-75.62 1005.1982,-83.7915 1008.8221,-77.8025"/>
</g>
<!-- Node23 -->
<g id="node24" class="node">
<title>Node23</title>
<g id="a_node24"><a xlink:href="PositionRaw_8h.html" target="_top" xlink:title="iDynTree/Core/PositionRaw.h">
<polygon fill="none" stroke="#000000" points="1142.8156,-168.5 1142.8156,-187.5 1298.8156,-187.5 1298.8156,-168.5 1142.8156,-168.5"/>
<text text-anchor="middle" x="1220.8156" y="-175.5" font-family="FreeSans.ttf" font-size="10.00" fill="#000000">iDynTree/Core/PositionRaw.h</text>
</a>
</g>
</g>
<!-- Node22&#45;&gt;Node23 -->
<g id="edge30" class="edge">
<title>Node22&#45;&gt;Node23</title>
<path fill="none" stroke="#191970" d="M1390.9573,-280.4509C1358.4248,-260.8615 1283.948,-216.0152 1245.219,-192.6945"/>
<polygon fill="#191970" stroke="#191970" points="1247.006,-189.6851 1236.6337,-187.5249 1243.395,-195.6818 1247.006,-189.6851"/>
</g>
<!-- Node22&#45;&gt;Node27 -->
<g id="edge39" class="edge">
<title>Node22&#45;&gt;Node27</title>
<path fill="none" stroke="#191970" d="M1419.8796,-280.2455C1431.1718,-271.814 1447.7001,-259.4729 1460.8427,-249.6598"/>
<polygon fill="#191970" stroke="#191970" points="1462.9825,-252.4301 1468.9013,-243.6427 1458.7944,-246.8211 1462.9825,-252.4301"/>
</g>
<!-- Node23&#45;&gt;Node4 -->
<g id="edge38" class="edge">
<title>Node23&#45;&gt;Node4</title>
<path fill="none" stroke="#191970" d="M1202.9262,-168.4123C1178.042,-155.1922 1131.4529,-130.862 1090.8156,-112 1065.1271,-100.0766 1035.4901,-87.6528 1013.6101,-78.7266"/>
<polygon fill="#191970" stroke="#191970" points="1014.7273,-75.4028 1004.145,-74.8858 1012.0952,-81.8891 1014.7273,-75.4028"/>
</g>
<!-- Node24 -->
<g id="node25" class="node">
<title>Node24</title>
<g id="a_node25"><a xlink:href="VectorFixSize_8h.html" target="_top" xlink:title="iDynTree/Core/VectorFixSize.h">
<polygon fill="none" stroke="#000000" points="1460.3156,-112.5 1460.3156,-131.5 1621.3156,-131.5 1621.3156,-112.5 1460.3156,-112.5"/>
<text text-anchor="middle" x="1540.8156" y="-119.5" font-family="FreeSans.ttf" font-size="10.00" fill="#000000">iDynTree/Core/VectorFixSize.h</text>
</a>
</g>
</g>
<!-- Node23&#45;&gt;Node24 -->
<g id="edge31" class="edge">
<title>Node23&#45;&gt;Node24</title>
<path fill="none" stroke="#191970" d="M1275.4619,-168.4369C1331.1479,-158.6918 1417.483,-143.5832 1476.4472,-133.2645"/>
<polygon fill="#191970" stroke="#191970" points="1477.1477,-136.6952 1486.3946,-131.5237 1475.9409,-129.7999 1477.1477,-136.6952"/>
</g>
<!-- Node24&#45;&gt;Node4 -->
<g id="edge34" class="edge">
<title>Node24&#45;&gt;Node4</title>
<path fill="none" stroke="#191970" d="M1460.1292,-113.9169C1335.0154,-101.3832 1099.7037,-77.8099 1014.0436,-69.2286"/>
<polygon fill="#191970" stroke="#191970" points="1014.1932,-65.7261 1003.8941,-68.2118 1013.4954,-72.6913 1014.1932,-65.7261"/>
</g>
<!-- Node24&#45;&gt;Node5 -->
<g id="edge32" class="edge">
<title>Node24&#45;&gt;Node5</title>
<path fill="none" stroke="#191970" d="M1460.1213,-117.7449C1258.9486,-107.137 737.7894,-79.6559 548.6783,-69.6839"/>
<polygon fill="#191970" stroke="#191970" points="548.7518,-66.183 538.5814,-69.1515 548.3832,-73.1733 548.7518,-66.183"/>
</g>
<!-- Node24&#45;&gt;Node11 -->
<g id="edge33" class="edge">
<title>Node24&#45;&gt;Node11</title>
<path fill="none" stroke="#191970" d="M1514.6858,-112.3733C1489.7388,-103.1822 1451.9564,-89.2624 1424.2949,-79.0713"/>
<polygon fill="#191970" stroke="#191970" points="1425.1978,-75.674 1414.6043,-75.5011 1422.7778,-82.2424 1425.1978,-75.674"/>
</g>
<!-- Node24&#45;&gt;Node12 -->
<g id="edge36" class="edge">
<title>Node24&#45;&gt;Node12</title>
<path fill="none" stroke="#191970" d="M1548.9047,-112.1909C1560.5262,-98.4949 1583.0636,-73.3728 1605.8156,-56 1621.9747,-43.6613 1641.8209,-32.44 1657.9411,-24.1695"/>
<polygon fill="#191970" stroke="#191970" points="1659.5752,-27.2656 1666.9459,-19.6549 1656.4378,-21.008 1659.5752,-27.2656"/>
</g>
<!-- Node24&#45;&gt;Node25 -->
<g id="edge35" class="edge">
<title>Node24&#45;&gt;Node25</title>
<path fill="none" stroke="#191970" d="M1607.7244,-112.4738C1665.0179,-103.9855 1749.614,-90.665 1822.8156,-76 1824.0558,-75.7515 1825.315,-75.4924 1826.5853,-75.225"/>
<polygon fill="#191970" stroke="#191970" points="1827.3998,-78.6296 1836.4101,-73.056 1825.8907,-71.7942 1827.3998,-78.6296"/>
</g>
<!-- Node26 -->
<g id="node27" class="node">
<title>Node26</title>
<polygon fill="none" stroke="#bfbfbf" points="1614.8156,-56.5 1614.8156,-75.5 1664.8156,-75.5 1664.8156,-56.5 1614.8156,-56.5"/>
<text text-anchor="middle" x="1639.8156" y="-63.5" font-family="FreeSans.ttf" font-size="10.00" fill="#000000">cstring</text>
</g>
<!-- Node24&#45;&gt;Node26 -->
<g id="edge37" class="edge">
<title>Node24&#45;&gt;Node26</title>
<path fill="none" stroke="#191970" d="M1558.0601,-112.2455C1573.3917,-103.5731 1596.0355,-90.7645 1613.6071,-80.825"/>
<polygon fill="#191970" stroke="#191970" points="1615.7879,-83.6126 1622.7687,-75.6427 1612.3415,-77.5198 1615.7879,-83.6126"/>
</g>
<!-- Node27&#45;&gt;Node4 -->
<g id="edge40" class="edge">
<title>Node27&#45;&gt;Node4</title>
<path fill="none" stroke="#191970" d="M1448.8462,-224.4539C1420.9606,-216.0014 1380.174,-202.7423 1345.8156,-188 1328.2767,-180.4745 1325.4396,-175.324 1307.8156,-168 1203.2028,-124.5261 1073.1893,-89.1368 1013.9355,-73.9741"/>
<polygon fill="#191970" stroke="#191970" points="1014.6023,-70.5324 1004.0485,-71.4643 1012.8799,-77.3172 1014.6023,-70.5324"/>
</g>
<!-- Node27&#45;&gt;Node24 -->
<g id="edge52" class="edge">
<title>Node27&#45;&gt;Node24</title>
<path fill="none" stroke="#191970" d="M1492.4519,-224.3901C1501.4705,-215.6994 1514.1313,-202.1324 1521.8156,-188 1529.6473,-173.5965 1534.5473,-155.6254 1537.4055,-142.0743"/>
<polygon fill="#191970" stroke="#191970" points="1540.9093,-142.3851 1539.3457,-131.9063 1534.0333,-141.073 1540.9093,-142.3851"/>
</g>
<!-- Node28 -->
<g id="node29" class="node">
<title>Node28</title>
<g id="a_node29"><a xlink:href="GeomVector3_8h.html" target="_top" xlink:title="iDynTree/Core/GeomVector3.h">
<polygon fill="none" stroke="#000000" points="1645.3156,-168.5 1645.3156,-187.5 1808.3156,-187.5 1808.3156,-168.5 1645.3156,-168.5"/>
<text text-anchor="middle" x="1726.8156" y="-175.5" font-family="FreeSans.ttf" font-size="10.00" fill="#000000">iDynTree/Core/GeomVector3.h</text>
</a>
</g>
</g>
<!-- Node27&#45;&gt;Node28 -->
<g id="edge41" class="edge">
<title>Node27&#45;&gt;Node28</title>
<path fill="none" stroke="#191970" d="M1523.6542,-224.4369C1565.5841,-214.8529 1630.2104,-200.0812 1675.278,-189.78"/>
<polygon fill="#191970" stroke="#191970" points="1676.1808,-193.164 1685.1495,-187.5237 1674.621,-186.34 1676.1808,-193.164"/>
</g>
<!-- Node29 -->
<g id="node30" class="node">
<title>Node29</title>
<g id="a_node30"><a xlink:href="RotationRaw_8h.html" target="_top" xlink:title="iDynTree/Core/RotationRaw.h">
<polygon fill="none" stroke="#000000" points="1354.8156,-168.5 1354.8156,-187.5 1512.8156,-187.5 1512.8156,-168.5 1354.8156,-168.5"/>
<text text-anchor="middle" x="1433.8156" y="-175.5" font-family="FreeSans.ttf" font-size="10.00" fill="#000000">iDynTree/Core/RotationRaw.h</text>
</a>
</g>
</g>
<!-- Node27&#45;&gt;Node29 -->
<g id="edge43" class="edge">
<title>Node27&#45;&gt;Node29</title>
<path fill="none" stroke="#191970" d="M1473.4546,-224.2455C1466.6406,-216.2958 1456.8475,-204.8706 1448.7004,-195.3656"/>
<polygon fill="#191970" stroke="#191970" points="1451.2461,-192.9575 1442.0807,-187.6427 1445.9313,-197.513 1451.2461,-192.9575"/>
</g>
<!-- Node28&#45;&gt;Node24 -->
<g id="edge42" class="edge">
<title>Node28&#45;&gt;Node24</title>
<path fill="none" stroke="#191970" d="M1694.841,-168.3733C1663.6443,-158.9807 1616.0446,-144.6496 1582.0224,-134.4064"/>
<polygon fill="#191970" stroke="#191970" points="1582.9574,-131.0327 1572.3729,-131.5011 1580.9393,-137.7355 1582.9574,-131.0327"/>
</g>
<!-- Node29&#45;&gt;Node4 -->
<g id="edge51" class="edge">
<title>Node29&#45;&gt;Node4</title>
<path fill="none" stroke="#191970" d="M1415.4087,-168.2989C1387.0745,-153.7879 1330.7083,-126.5806 1279.8156,-112 1185.4576,-84.9668 1069.4596,-72.8567 1014.1385,-68.3114"/>
<polygon fill="#191970" stroke="#191970" points="1014.1528,-64.8017 1003.9077,-67.501 1013.6,-71.7798 1014.1528,-64.8017"/>
</g>
<!-- Node29&#45;&gt;Node30 -->
<g id="edge44" class="edge">
<title>Node29&#45;&gt;Node30</title>
<path fill="none" stroke="#191970" d="M1482.6558,-168.4369C1532.1166,-158.7522 1608.6316,-143.7703 1661.3036,-133.4569"/>
<polygon fill="#191970" stroke="#191970" points="1662.0358,-136.8801 1671.1768,-131.5237 1660.6906,-130.0105 1662.0358,-136.8801"/>
</g>
<!-- Node30&#45;&gt;Node4 -->
<g id="edge48" class="edge">
<title>Node30&#45;&gt;Node4</title>
<path fill="none" stroke="#191970" d="M1639.3005,-112.8032C1636.4378,-112.524 1633.6027,-112.2552 1630.8156,-112 1394.4262,-90.3515 1108.7937,-73.2471 1014.0637,-67.8148"/>
<polygon fill="#191970" stroke="#191970" points="1014.1587,-64.3146 1003.9756,-67.2391 1013.7599,-71.3032 1014.1587,-64.3146"/>
</g>
<!-- Node30&#45;&gt;Node5 -->
<g id="edge45" class="edge">
<title>Node30&#45;&gt;Node5</title>
<path fill="none" stroke="#191970" d="M1639.3099,-112.6916C1636.4445,-112.444 1633.6063,-112.2122 1630.8156,-112 1221.3855,-80.8645 728.3905,-70.0906 548.6709,-67.0386"/>
<polygon fill="#191970" stroke="#191970" points="548.6186,-63.5374 538.5615,-66.8695 548.5015,-70.5364 548.6186,-63.5374"/>
</g>
<!-- Node30&#45;&gt;Node12 -->
<g id="edge46" class="edge">
<title>Node30&#45;&gt;Node12</title>
<path fill="none" stroke="#191970" d="M1717.0873,-112.4509C1711.8445,-94.1013 1700.2701,-53.5908 1693.3497,-29.3693"/>
<polygon fill="#191970" stroke="#191970" points="1696.6496,-28.1786 1690.537,-19.5249 1689.9189,-30.1017 1696.6496,-28.1786"/>
</g>
<!-- Node30&#45;&gt;Node25 -->
<g id="edge50" class="edge">
<title>Node30&#45;&gt;Node25</title>
<path fill="none" stroke="#191970" d="M1744.742,-112.3733C1768.4358,-103.2226 1804.2667,-89.3844 1830.6224,-79.2057"/>
<polygon fill="#191970" stroke="#191970" points="1832.147,-82.3689 1840.2145,-75.5011 1829.625,-75.8389 1832.147,-82.3689"/>
</g>
<!-- Node30&#45;&gt;Node26 -->
<g id="edge47" class="edge">
<title>Node30&#45;&gt;Node26</title>
<path fill="none" stroke="#191970" d="M1705.8806,-112.2455C1693.7209,-103.7337 1675.8691,-91.2375 1661.7871,-81.3801"/>
<polygon fill="#191970" stroke="#191970" points="1663.7903,-78.51 1653.5908,-75.6427 1659.776,-84.2447 1663.7903,-78.51"/>
</g>
<!-- Node31 -->
<g id="node32" class="node">
<title>Node31</title>
<polygon fill="none" stroke="#bfbfbf" points="1753.8156,-56.5 1753.8156,-75.5 1813.8156,-75.5 1813.8156,-56.5 1753.8156,-56.5"/>
<text text-anchor="middle" x="1783.8156" y="-63.5" font-family="FreeSans.ttf" font-size="10.00" fill="#000000">iostream</text>
</g>
<!-- Node30&#45;&gt;Node31 -->
<g id="edge49" class="edge">
<title>Node30&#45;&gt;Node31</title>
<path fill="none" stroke="#191970" d="M1730.9635,-112.2455C1740.3242,-104.0549 1753.9014,-92.1749 1764.9505,-82.5069"/>
<polygon fill="#191970" stroke="#191970" points="1767.5744,-84.8618 1772.7954,-75.6427 1762.9648,-79.5937 1767.5744,-84.8618"/>
</g>
<!-- Node32&#45;&gt;Node7 -->
<g id="edge59" class="edge">
<title>Node32&#45;&gt;Node7</title>
<path fill="none" stroke="#191970" d="M486.9093,-397.8906C483.371,-389.1862 478.052,-376.1015 473.6406,-365.2494"/>
<polygon fill="#191970" stroke="#191970" points="476.7851,-363.6907 469.7769,-355.7449 470.3004,-366.3268 476.7851,-363.6907"/>
</g>
<!-- Node32&#45;&gt;Node10 -->
<g id="edge58" class="edge">
<title>Node32&#45;&gt;Node10</title>
<path fill="none" stroke="#191970" d="M541.6307,-397.9758C554.3914,-395.7972 568.0785,-393.6424 580.8156,-392 734.3663,-372.2001 913.8901,-358.7064 1020.7637,-351.6854"/>
<polygon fill="#191970" stroke="#191970" points="1021.1251,-355.1694 1030.8762,-351.0262 1020.6696,-348.1842 1021.1251,-355.1694"/>
</g>
<!-- Node33&#45;&gt;Node2 -->
<g id="edge64" class="edge">
<title>Node33&#45;&gt;Node2</title>
<path fill="none" stroke="#191970" d="M538.6593,-459.3906C553.8574,-449.5519 577.7004,-434.1167 595.4362,-422.6351"/>
<polygon fill="#191970" stroke="#191970" points="597.5836,-425.4144 604.0761,-417.0419 593.7795,-419.5382 597.5836,-425.4144"/>
</g>
<!-- Node33&#45;&gt;Node7 -->
<g id="edge63" class="edge">
<title>Node33&#45;&gt;Node7</title>
<path fill="none" stroke="#191970" d="M484.2994,-459.442C452.2019,-450.7844 410.6913,-437.2371 400.8156,-423 392.9628,-411.6792 394.4843,-404.2369 400.8156,-392 407.8702,-378.365 421.0351,-367.9036 433.6819,-360.4282"/>
<polygon fill="#191970" stroke="#191970" points="435.5993,-363.3692 442.7044,-355.5099 432.249,-357.2231 435.5993,-363.3692"/>
</g>
<!-- Node33&#45;&gt;Node9 -->
<g id="edge62" class="edge">
<title>Node33&#45;&gt;Node9</title>
<path fill="none" stroke="#191970" d="M592.8909,-463.2403C689.2551,-455.0665 869.4709,-439.2774 1022.8156,-423 1036.5335,-421.5439 1051.0591,-419.8989 1065.2237,-418.2383"/>
<polygon fill="#191970" stroke="#191970" points="1065.9371,-421.6785 1075.4572,-417.029 1065.1155,-414.7269 1065.9371,-421.6785"/>
</g>
<!-- Node33&#45;&gt;Node32 -->
<g id="edge61" class="edge">
<title>Node33&#45;&gt;Node32</title>
<path fill="none" stroke="#191970" d="M518.6593,-459.3906C513.8924,-450.5068 506.6771,-437.0601 500.7859,-426.0811"/>
<polygon fill="#191970" stroke="#191970" points="503.8568,-424.4016 496.0445,-417.2449 497.6887,-427.7114 503.8568,-424.4016"/>
</g>
<!-- Node34&#45;&gt;Node2 -->
<g id="edge66" class="edge">
<title>Node34&#45;&gt;Node2</title>
<path fill="none" stroke="#191970" d="M195.0625,-459.9351C198.0172,-459.6154 200.9428,-459.3026 203.8156,-459 370.7673,-441.4143 416.628,-462.3944 579.8156,-423 582.6043,-422.3268 585.4578,-421.494 588.2902,-420.5666"/>
<polygon fill="#191970" stroke="#191970" points="589.5095,-423.8475 597.7138,-417.1437 587.1197,-417.2681 589.5095,-423.8475"/>
</g>
<!-- Node34&#45;&gt;Node3 -->
<g id="edge68" class="edge">
<title>Node34&#45;&gt;Node3</title>
<path fill="none" stroke="#191970" d="M118.2796,-459.2813C121.6441,-437.2597 130.3679,-381.9038 139.8156,-336 141.5909,-327.3742 143.8094,-317.9022 145.7881,-309.8069"/>
<polygon fill="#191970" stroke="#191970" points="149.2523,-310.3796 148.2736,-299.8301 142.4599,-308.6874 149.2523,-310.3796"/>
</g>
<!-- Node34&#45;&gt;Node4 -->
<g id="edge67" class="edge">
<title>Node34&#45;&gt;Node4</title>
<path fill="none" stroke="#191970" d="M126.0546,-459.4848C173.3647,-411.4755 395.2419,-194.8781 625.8156,-112 685.0663,-90.7027 872.5728,-74.3674 948.9553,-68.4293"/>
<polygon fill="#191970" stroke="#191970" points="949.6869,-71.8836 959.3901,-67.6293 949.1518,-64.9041 949.6869,-71.8836"/>
</g>
<!-- Node34&#45;&gt;Node7 -->
<g id="edge69" class="edge">
<title>Node34&#45;&gt;Node7</title>
<path fill="none" stroke="#191970" d="M143.9106,-459.4507C205.8854,-437.6086 358.0614,-383.9764 428.6889,-359.0848"/>
<polygon fill="#191970" stroke="#191970" points="430.2292,-362.253 438.4972,-355.628 427.9024,-355.651 430.2292,-362.253"/>
</g>
<!-- Node35&#45;&gt;Node4 -->
<g id="edge72" class="edge">
<title>Node35&#45;&gt;Node4</title>
<path fill="none" stroke="#191970" d="M942.7916,-397.8586C924.3283,-379.0095 886.8156,-335.1564 886.8156,-290 886.8156,-290 886.8156,-290 886.8156,-178 886.8156,-146.7875 891.3759,-136.4196 910.8156,-112 921.3695,-98.7424 936.8317,-88.0914 950.6343,-80.3904"/>
<polygon fill="#191970" stroke="#191970" points="952.6308,-83.2945 959.8442,-75.5344 949.366,-77.1025 952.6308,-83.2945"/>
</g>
<!-- Node35&#45;&gt;Node6 -->
<g id="edge71" class="edge">
<title>Node35&#45;&gt;Node6</title>
<path fill="none" stroke="#191970" d="M927.3621,-397.9237C858.0787,-371.1757 661.8666,-290.8414 520.8156,-188 464.1865,-146.7113 436.4899,-140.8081 409.8156,-76 403.5988,-60.8956 407.7954,-42.5318 412.8614,-29.0134"/>
<polygon fill="#191970" stroke="#191970" points="416.1046,-30.3299 416.7468,-19.7545 409.6499,-27.6212 416.1046,-30.3299"/>
</g>
<!-- Node35&#45;&gt;Node7 -->
<g id="edge74" class="edge">
<title>Node35&#45;&gt;Node7</title>
<path fill="none" stroke="#191970" d="M910.1066,-397.9606C899.5844,-395.8076 888.3207,-393.6683 877.8156,-392 766.4787,-374.3187 637.1491,-361.0535 553.5241,-353.4195"/>
<polygon fill="#191970" stroke="#191970" points="553.8318,-349.9332 543.5568,-352.5166 553.2002,-356.9046 553.8318,-349.9332"/>
</g>
<!-- Node35&#45;&gt;Node10 -->
<g id="edge73" class="edge">
<title>Node35&#45;&gt;Node10</title>
<path fill="none" stroke="#191970" d="M978.1281,-397.8906C1005.5903,-387.4652 1049.605,-370.7559 1080.2418,-359.1252"/>
<polygon fill="#191970" stroke="#191970" points="1081.5741,-362.3633 1089.6808,-355.5419 1079.0896,-355.819 1081.5741,-362.3633"/>
</g>
<!-- Node36&#45;&gt;Node2 -->
<g id="edge81" class="edge">
<title>Node36&#45;&gt;Node2</title>
<path fill="none" stroke="#191970" d="M1054.3698,-459.9165C1051.4824,-459.602 1048.6232,-459.2954 1045.8156,-459 873.5809,-440.881 826.2242,-463.3934 657.8156,-423 655.0258,-422.3309 652.1717,-421.5009 649.3388,-420.5754"/>
<polygon fill="#191970" stroke="#191970" points="650.5087,-417.2766 639.9145,-417.1555 648.1209,-423.8568 650.5087,-417.2766"/>
</g>
<!-- Node36&#45;&gt;Node4 -->
<g id="edge80" class="edge">
<title>Node36&#45;&gt;Node4</title>
<path fill="none" stroke="#191970" d="M1112.5496,-459.4673C1097.6048,-451.1164 1076.4579,-437.9933 1060.8156,-423 986.1058,-351.3901 924.8156,-337.4869 924.8156,-234 924.8156,-234 924.8156,-234 924.8156,-178 924.8156,-141.1826 949.5831,-104.2377 966.4656,-83.3313"/>
<polygon fill="#191970" stroke="#191970" points="969.1666,-85.5574 972.9093,-75.6456 963.8025,-81.06 969.1666,-85.5574"/>
</g>
<!-- Node36&#45;&gt;Node7 -->
<g id="edge79" class="edge">
<title>Node36&#45;&gt;Node7</title>
<path fill="none" stroke="#191970" d="M1071.91,-459.4756C1021.4848,-450.9884 947.0663,-437.6685 882.8156,-423 831.6261,-411.3134 820.1895,-402.8473 768.8156,-392 696.8174,-376.798 614.1789,-364.596 553.4099,-356.5894"/>
<polygon fill="#191970" stroke="#191970" points="553.8388,-353.1157 543.4697,-355.2914 552.9324,-360.0568 553.8388,-353.1157"/>
</g>
<!-- Node36&#45;&gt;Node9 -->
<g id="edge78" class="edge">
<title>Node36&#45;&gt;Node9</title>
<path fill="none" stroke="#191970" d="M1134.0968,-459.3906C1137.0691,-450.6862 1141.537,-437.6015 1145.2426,-426.7494"/>
<polygon fill="#191970" stroke="#191970" points="1148.5688,-427.8394 1148.4881,-417.2449 1141.9443,-425.5773 1148.5688,-427.8394"/>
</g>
<!-- Node36&#45;&gt;Node20 -->
<g id="edge77" class="edge">
<title>Node36&#45;&gt;Node20</title>
<path fill="none" stroke="#191970" d="M1167.4795,-459.489C1190.7255,-452.1864 1220.5087,-440.3709 1242.8156,-423 1263.329,-407.0257 1280.0436,-381.8495 1289.95,-364.6655"/>
<polygon fill="#191970" stroke="#191970" points="1293.1873,-366.0445 1294.9733,-355.6013 1287.0646,-362.6514 1293.1873,-366.0445"/>
</g>
<!-- Node36&#45;&gt;Node35 -->
<g id="edge76" class="edge">
<title>Node36&#45;&gt;Node35</title>
<path fill="none" stroke="#191970" d="M1103.0031,-459.3906C1072.5673,-448.8749 1023.6279,-431.966 989.933,-420.3243"/>
<polygon fill="#191970" stroke="#191970" points="991.0275,-416.9995 980.4328,-417.0419 988.7415,-423.6157 991.0275,-416.9995"/>
</g>
<!-- Node37&#45;&gt;Node4 -->
<g id="edge83" class="edge">
<title>Node37&#45;&gt;Node4</title>
<path fill="none" stroke="#191970" d="M710.8802,-397.9417C703.2182,-357.1184 679.1547,-195.6628 758.8156,-112 784.6163,-84.9031 894.1943,-72.7276 949.5435,-68.2225"/>
<polygon fill="#191970" stroke="#191970" points="949.8341,-71.7105 959.5324,-67.4451 949.2909,-64.7317 949.8341,-71.7105"/>
</g>
<!-- Node37&#45;&gt;Node7 -->
<g id="edge84" class="edge">
<title>Node37&#45;&gt;Node7</title>
<path fill="none" stroke="#191970" d="M679.1062,-397.9719C671.7706,-395.9538 664.0425,-393.8699 656.8156,-392 609.6807,-379.8046 555.7261,-366.9075 517.2117,-357.8828"/>
<polygon fill="#191970" stroke="#191970" points="517.8066,-354.4276 507.2724,-355.5595 516.2132,-361.2439 517.8066,-354.4276"/>
</g>
<!-- Node38&#45;&gt;Node2 -->
<g id="edge88" class="edge">
<title>Node38&#45;&gt;Node2</title>
<path fill="none" stroke="#191970" d="M875.1077,-461.5152C814.5665,-454.708 730.0471,-442.6585 657.8156,-423 655.2034,-422.2891 652.5279,-421.458 649.8625,-420.5566"/>
<polygon fill="#191970" stroke="#191970" points="650.9787,-417.238 640.3852,-417.0734 648.5639,-423.8083 650.9787,-417.238"/>
</g>
<!-- Node38&#45;&gt;Node9 -->
<g id="edge87" class="edge">
<title>Node38&#45;&gt;Node9</title>
<path fill="none" stroke="#191970" d="M986.4406,-459.3906C1020.098,-448.8298 1074.3054,-431.8208 1111.4215,-420.1747"/>
<polygon fill="#191970" stroke="#191970" points="1112.9122,-423.3753 1121.4056,-417.0419 1110.8164,-416.6963 1112.9122,-423.3753"/>
</g>
<!-- Node38&#45;&gt;Node37 -->
<g id="edge86" class="edge">
<title>Node38&#45;&gt;Node37</title>
<path fill="none" stroke="#191970" d="M918.1134,-459.4581C875.6384,-448.7082 806.5235,-431.2162 760.3743,-419.5365"/>
<polygon fill="#191970" stroke="#191970" points="761.1593,-416.1248 750.6062,-417.0643 759.4418,-422.9109 761.1593,-416.1248"/>
</g>
<!-- Node39&#45;&gt;Node2 -->
<g id="edge94" class="edge">
<title>Node39&#45;&gt;Node2</title>
<path fill="none" stroke="#191970" d="M1183.5373,-519.7284C1031.3324,-508.2654 684.3713,-481.8658 678.8156,-479 656.3029,-467.3873 638.912,-443.2969 628.7821,-426.2971"/>
<polygon fill="#191970" stroke="#191970" points="631.6397,-424.2396 623.673,-417.2552 625.5453,-427.6833 631.6397,-424.2396"/>
</g>
<!-- Node39&#45;&gt;Node9 -->
<g id="edge91" class="edge">
<title>Node39&#45;&gt;Node9</title>
<path fill="none" stroke="#191970" d="M1255.8238,-515.1201C1258.0549,-501.34 1260.0107,-476.1186 1248.8156,-459 1236.9422,-440.8443 1216.4626,-428.6541 1197.372,-420.7132"/>
<polygon fill="#191970" stroke="#191970" points="1198.4526,-417.3787 1187.8631,-417.0439 1195.9325,-423.9093 1198.4526,-417.3787"/>
</g>
<!-- Node39&#45;&gt;Node10 -->
<g id="edge92" class="edge">
<title>Node39&#45;&gt;Node10</title>
<path fill="none" stroke="#191970" d="M1257.1283,-515.2724C1260.0796,-506.0586 1264.1773,-491.7706 1265.8156,-479 1270.9048,-439.33 1270.8931,-420.4826 1242.8156,-392 1226.7867,-375.7399 1204.6058,-365.2004 1183.2069,-358.3798"/>
<polygon fill="#191970" stroke="#191970" points="1184.0367,-354.9755 1173.4548,-355.5006 1182.0545,-361.689 1184.0367,-354.9755"/>
</g>
<!-- Node39&#45;&gt;Node20 -->
<g id="edge93" class="edge">
<title>Node39&#45;&gt;Node20</title>
<path fill="none" stroke="#191970" d="M1280.4166,-515.397C1296.4029,-508.0839 1315.4154,-496.291 1324.8156,-479 1344.9156,-442.0275 1324.6499,-391.6828 1310.6645,-364.7781"/>
<polygon fill="#191970" stroke="#191970" points="1313.5696,-362.7949 1305.7092,-355.6911 1307.424,-366.1462 1313.5696,-362.7949"/>
</g>
<!-- Node39&#45;&gt;Node38 -->
<g id="edge90" class="edge">
<title>Node39&#45;&gt;Node38</title>
<path fill="none" stroke="#191970" d="M1202.9262,-515.4369C1151.2829,-505.7321 1071.333,-490.708 1016.4406,-480.3926"/>
<polygon fill="#191970" stroke="#191970" points="1016.9695,-476.9308 1006.4951,-478.5237 1015.6767,-483.8104 1016.9695,-476.9308"/>
</g>
<!-- Node40&#45;&gt;Node2 -->
<g id="edge99" class="edge">
<title>Node40&#45;&gt;Node2</title>
<path fill="none" stroke="#191970" d="M731.8781,-459.3906C709.5558,-449.1457 674.0119,-432.8326 648.7399,-421.2339"/>
<polygon fill="#191970" stroke="#191970" points="650.1545,-418.0322 639.6061,-417.0419 647.2346,-424.3942 650.1545,-418.0322"/>
</g>
<!-- Node40&#45;&gt;Node4 -->
<g id="edge100" class="edge">
<title>Node40&#45;&gt;Node4</title>
<path fill="none" stroke="#191970" d="M766.8459,-459.235C777.8939,-450.8398 792.874,-437.7737 801.8156,-423 876.3859,-299.7912 798.0268,-220.4262 892.8156,-112 907.9257,-94.716 931.114,-83.0265 950.0335,-75.7573"/>
<polygon fill="#191970" stroke="#191970" points="951.2534,-79.0381 959.4727,-72.3527 948.8783,-72.4533 951.2534,-79.0381"/>
</g>
<!-- Node40&#45;&gt;Node5 -->
<g id="edge98" class="edge">
<title>Node40&#45;&gt;Node5</title>
<path fill="none" stroke="#191970" d="M758.3022,-459.2269C765.915,-444.3156 777.7865,-415.1737 768.8156,-392 756.6627,-360.6067 742.1174,-359.295 717.8156,-336 643.7892,-265.0405 609.6024,-264.0495 540.8156,-188 520.639,-165.6931 516.5041,-158.7827 502.8156,-132 495.1097,-116.9229 488.7016,-98.7811 484.4509,-85.3366"/>
<polygon fill="#191970" stroke="#191970" points="487.781,-84.2573 481.5209,-75.7097 481.0843,-86.2955 487.781,-84.2573"/>
</g>
<!-- Node40&#45;&gt;Node9 -->
<g id="edge97" class="edge">
<title>Node40&#45;&gt;Node9</title>
<path fill="none" stroke="#191970" d="M814.7215,-459.4581C886.47,-448.3991 1004.5122,-430.2047 1080.1668,-418.5436"/>
<polygon fill="#191970" stroke="#191970" points="1080.7426,-421.9963 1090.0927,-417.0137 1079.6762,-415.078 1080.7426,-421.9963"/>
</g>
<!-- Node40&#45;&gt;Node37 -->
<g id="edge96" class="edge">
<title>Node40&#45;&gt;Node37</title>
<path fill="none" stroke="#191970" d="M746.5656,-459.3906C740.7291,-450.417 731.8646,-436.7879 724.6849,-425.7491"/>
<polygon fill="#191970" stroke="#191970" points="727.54,-423.7194 719.1537,-417.2449 721.672,-427.5361 727.54,-423.7194"/>
</g>
<!-- Node41&#45;&gt;Node9 -->
<g id="edge103" class="edge">
<title>Node41&#45;&gt;Node9</title>
<path fill="none" stroke="#191970" d="M1107.7268,-516.2502C1150.6806,-508.7651 1202.4821,-496.4208 1215.8156,-479 1231.7075,-458.2365 1204.0575,-436.0577 1180.282,-422.0034"/>
<polygon fill="#191970" stroke="#191970" points="1181.8892,-418.8917 1171.4583,-417.0347 1178.4544,-424.9912 1181.8892,-418.8917"/>
</g>
<!-- Node41&#45;&gt;Node38 -->
<g id="edge102" class="edge">
<title>Node41&#45;&gt;Node38</title>
<path fill="none" stroke="#191970" d="M1030.1388,-515.2455C1016.33,-506.6534 995.9963,-494.0014 980.0863,-484.1018"/>
<polygon fill="#191970" stroke="#191970" points="981.6524,-480.954 971.3127,-478.6427 977.9542,-486.8974 981.6524,-480.954"/>
</g>
<!-- Node43&#45;&gt;Node5 -->
<g id="edge129" class="edge">
<title>Node43&#45;&gt;Node5</title>
<path fill="none" stroke="#191970" d="M1610.6918,-459.4872C1595.2311,-450.3077 1571.2838,-435.9376 1550.8156,-423 1529.6634,-409.63 1525.5571,-404.3886 1503.8156,-392 1472.0381,-373.8928 1462.3548,-372.6997 1429.8156,-356 1413.1848,-347.4648 1410.3336,-342.5231 1392.8156,-336 1323.2891,-310.1106 1302.0586,-316.8861 1229.8156,-300 955.5738,-235.8986 881.4398,-233.7156 618.8156,-132 578.6935,-116.4605 533.9917,-94.5398 506.1355,-80.2997"/>
<polygon fill="#191970" stroke="#191970" points="507.513,-77.0723 497.0201,-75.6062 504.3085,-83.2958 507.513,-77.0723"/>
</g>
<!-- Node43&#45;&gt;Node10 -->
<g id="edge110" class="edge">
<title>Node43&#45;&gt;Node10</title>
<path fill="none" stroke="#191970" d="M1586.674,-459.4215C1552.9698,-450.9967 1503.7406,-437.7939 1461.8156,-423 1428.961,-411.4067 1423.2389,-401.8341 1389.8156,-392 1353.9822,-381.4568 1261.4124,-366.9081 1193.5349,-357.0149"/>
<polygon fill="#191970" stroke="#191970" points="1193.6865,-353.5004 1183.2877,-355.5293 1192.6821,-360.4279 1193.6865,-353.5004"/>
</g>
<!-- Node43&#45;&gt;Node20 -->
<g id="edge112" class="edge">
<title>Node43&#45;&gt;Node20</title>
<path fill="none" stroke="#191970" d="M1599.2334,-459.4178C1575.9487,-450.9432 1541.9968,-437.6721 1513.8156,-423 1491.29,-411.2724 1488.9845,-402.399 1465.8156,-392 1431.6943,-376.6853 1391.2942,-365.3556 1358.8933,-357.7723"/>
<polygon fill="#191970" stroke="#191970" points="1359.6386,-354.3525 1349.1104,-355.5389 1358.0805,-361.1769 1359.6386,-354.3525"/>
</g>
<!-- Node43&#45;&gt;Node21 -->
<g id="edge128" class="edge">
<title>Node43&#45;&gt;Node21</title>
<path fill="none" stroke="#191970" d="M1617.7917,-459.3484C1598.3096,-438.511 1552.0994,-389.0862 1527.6373,-362.9224"/>
<polygon fill="#191970" stroke="#191970" points="1530.1837,-360.5211 1520.7975,-355.6068 1525.0704,-365.3018 1530.1837,-360.5211"/>
</g>
<!-- Node43&#45;&gt;Node24 -->
<g id="edge111" class="edge">
<title>Node43&#45;&gt;Node24</title>
<path fill="none" stroke="#191970" d="M1707.4839,-461.3272C1790.3117,-452.7013 1909.2684,-437.9389 1924.8156,-423 1968.2458,-381.269 1950.8156,-350.23 1950.8156,-290 1950.8156,-290 1950.8156,-290 1950.8156,-234 1950.8156,-184.7548 1907.359,-186.732 1861.8156,-168 1840.8218,-159.3653 1718.8694,-143.3522 1631.5024,-132.6851"/>
<polygon fill="#191970" stroke="#191970" points="1631.9124,-129.2093 1621.563,-131.4763 1631.0673,-136.1581 1631.9124,-129.2093"/>
</g>
<!-- Node43&#45;&gt;Node30 -->
<g id="edge113" class="edge">
<title>Node43&#45;&gt;Node30</title>
<path fill="none" stroke="#191970" d="M1707.5027,-462.0624C1797.1511,-453.6485 1931.7486,-438.6397 1949.8156,-423 1996.3894,-382.6832 1988.8156,-351.6001 1988.8156,-290 1988.8156,-290 1988.8156,-290 1988.8156,-234 1988.8156,-186.1711 1946.8287,-188.916 1903.8156,-168 1869.8565,-151.4867 1829.3983,-140.5372 1795.0786,-133.4805"/>
<polygon fill="#191970" stroke="#191970" points="1795.5967,-130.0152 1785.1069,-131.5029 1794.2349,-136.8814 1795.5967,-130.0152"/>
</g>
<!-- Node43&#45;&gt;Node44 -->
<g id="edge109" class="edge">
<title>Node43&#45;&gt;Node44</title>
<path fill="none" stroke="#191970" d="M1707.3226,-462.7134C1782.4871,-455.9611 1897.5145,-443.364 1995.8156,-423 2000.2658,-422.0781 2004.8854,-420.9661 2009.4589,-419.766"/>
<polygon fill="#191970" stroke="#191970" points="2010.6102,-423.079 2019.3139,-417.0378 2008.7425,-416.3327 2010.6102,-423.079"/>
</g>
<!-- Node45 -->
<g id="node46" class="node">
<title>Node45</title>
<g id="a_node46"><a xlink:href="SpatialMotionVector_8h.html" target="_top" xlink:title="iDynTree/Core/SpatialMotion\lVector.h">
<polygon fill="none" stroke="#000000" points="1594.3156,-392.5 1594.3156,-422.5 1749.3156,-422.5 1749.3156,-392.5 1594.3156,-392.5"/>
<text text-anchor="start" x="1602.3156" y="-410.5" font-family="FreeSans.ttf" font-size="10.00" fill="#000000">iDynTree/Core/SpatialMotion</text>
<text text-anchor="middle" x="1671.8156" y="-399.5" font-family="FreeSans.ttf" font-size="10.00" fill="#000000">Vector.h</text>
</a>
</g>
</g>
<!-- Node43&#45;&gt;Node45 -->
<g id="edge114" class="edge">
<title>Node43&#45;&gt;Node45</title>
<path fill="none" stroke="#191970" d="M1633.8468,-459.3906C1639.4295,-451.761 1647.4747,-440.7658 1654.7238,-430.8588"/>
<polygon fill="#191970" stroke="#191970" points="1657.7268,-432.6817 1660.8073,-422.5446 1652.0776,-428.5481 1657.7268,-432.6817"/>
</g>
<!-- Node47 -->
<g id="node48" class="node">
<title>Node47</title>
<g id="a_node48"><a xlink:href="SpatialForceVector_8h.html" target="_top" xlink:title="iDynTree/Core/SpatialForce\lVector.h">
<polygon fill="none" stroke="#000000" points="1767.8156,-392.5 1767.8156,-422.5 1915.8156,-422.5 1915.8156,-392.5 1767.8156,-392.5"/>
<text text-anchor="start" x="1775.8156" y="-410.5" font-family="FreeSans.ttf" font-size="10.00" fill="#000000">iDynTree/Core/SpatialForce</text>
<text text-anchor="middle" x="1841.8156" y="-399.5" font-family="FreeSans.ttf" font-size="10.00" fill="#000000">Vector.h</text>
</a>
</g>
</g>
<!-- Node43&#45;&gt;Node47 -->
<g id="edge124" class="edge">
<title>Node43&#45;&gt;Node47</title>
<path fill="none" stroke="#191970" d="M1660.4093,-459.3906C1692.2012,-450.2967 1740.7078,-436.4215 1779.5655,-425.3064"/>
<polygon fill="#191970" stroke="#191970" points="1780.5688,-428.6599 1789.2207,-422.5446 1778.6437,-421.9298 1780.5688,-428.6599"/>
</g>
<!-- Node45&#45;&gt;Node24 -->
<g id="edge115" class="edge">
<title>Node45&#45;&gt;Node24</title>
<path fill="none" stroke="#191970" d="M1659.3352,-392.2269C1643.1079,-370.7752 1616.8156,-329.8666 1616.8156,-290 1616.8156,-290 1616.8156,-290 1616.8156,-234 1616.8156,-194.2361 1583.6085,-158.1042 1561.0948,-138.177"/>
<polygon fill="#191970" stroke="#191970" points="1563.2473,-135.4128 1553.3654,-131.5918 1558.7077,-140.7412 1563.2473,-135.4128"/>
</g>
<!-- Node45&#45;&gt;Node28 -->
<g id="edge116" class="edge">
<title>Node45&#45;&gt;Node28</title>
<path fill="none" stroke="#191970" d="M1671.2483,-392.3016C1670.9872,-377.7351 1671.3246,-355.1909 1674.8156,-336 1684.2058,-284.3795 1706.4595,-226.4466 1718.588,-197.1625"/>
<polygon fill="#191970" stroke="#191970" points="1721.9027,-198.3092 1722.5557,-187.7345 1715.4507,-195.5939 1721.9027,-198.3092"/>
</g>
<!-- Node46 -->
<g id="node47" class="node">
<title>Node46</title>
<g id="a_node47"><a xlink:href="SpatialVector_8h.html" target="_top" xlink:title="iDynTree/Core/SpatialVector.h">
<polygon fill="none" stroke="#000000" points="1683.3156,-336.5 1683.3156,-355.5 1844.3156,-355.5 1844.3156,-336.5 1683.3156,-336.5"/>
<text text-anchor="middle" x="1763.8156" y="-343.5" font-family="FreeSans.ttf" font-size="10.00" fill="#000000">iDynTree/Core/SpatialVector.h</text>
</a>
</g>
</g>
<!-- Node45&#45;&gt;Node46 -->
<g id="edge117" class="edge">
<title>Node45&#45;&gt;Node46</title>
<path fill="none" stroke="#191970" d="M1694.5572,-392.2977C1708.6122,-382.9022 1726.5986,-370.8787 1740.7191,-361.4395"/>
<polygon fill="#191970" stroke="#191970" points="1742.9915,-364.1305 1749.36,-355.6633 1739.1013,-358.311 1742.9915,-364.1305"/>
</g>
<!-- Node46&#45;&gt;Node5 -->
<g id="edge120" class="edge">
<title>Node46&#45;&gt;Node5</title>
<path fill="none" stroke="#191970" d="M1683.2549,-341.3965C1595.6859,-335.48 1451.9116,-323.0978 1329.8156,-300 1010.1666,-239.5297 635.3881,-118.4129 516.7809,-78.8354"/>
<polygon fill="#191970" stroke="#191970" points="517.6646,-75.4404 507.0708,-75.5862 515.4433,-82.0786 517.6646,-75.4404"/>
</g>
<!-- Node46&#45;&gt;Node22 -->
<g id="edge118" class="edge">
<title>Node46&#45;&gt;Node22</title>
<path fill="none" stroke="#191970" d="M1702.8507,-336.4369C1640.4694,-326.6516 1543.6118,-311.4582 1477.8126,-301.1368"/>
<polygon fill="#191970" stroke="#191970" points="1477.9506,-297.6157 1467.529,-299.5237 1476.8658,-304.5311 1477.9506,-297.6157"/>
</g>
<!-- Node46&#45;&gt;Node25 -->
<g id="edge123" class="edge">
<title>Node46&#45;&gt;Node25</title>
<path fill="none" stroke="#191970" d="M1784.9551,-336.4901C1817.1607,-320.3882 1874.8156,-284.5089 1874.8156,-234 1874.8156,-234 1874.8156,-234 1874.8156,-178 1874.8156,-145.5831 1870.6081,-108.0969 1867.6515,-85.7572"/>
<polygon fill="#191970" stroke="#191970" points="1871.0793,-84.992 1866.2483,-75.5627 1864.1447,-85.9466 1871.0793,-84.992"/>
</g>
<!-- Node46&#45;&gt;Node27 -->
<g id="edge119" class="edge">
<title>Node46&#45;&gt;Node27</title>
<path fill="none" stroke="#191970" d="M1739.7724,-336.4509C1689.4083,-316.4482 1572.7398,-270.1117 1515.1714,-247.2477"/>
<polygon fill="#191970" stroke="#191970" points="1516.3837,-243.9633 1505.7979,-243.5249 1513.7998,-250.469 1516.3837,-243.9633"/>
</g>
<!-- Node46&#45;&gt;Node28 -->
<g id="edge121" class="edge">
<title>Node46&#45;&gt;Node28</title>
<path fill="none" stroke="#191970" d="M1761.7203,-336.4862C1755.8461,-309.8144 1739.1295,-233.9117 1731.1532,-197.695"/>
<polygon fill="#191970" stroke="#191970" points="1734.5491,-196.841 1728.9801,-187.8279 1727.7129,-198.3467 1734.5491,-196.841"/>
</g>
<!-- Node46&#45;&gt;Node31 -->
<g id="edge122" class="edge">
<title>Node46&#45;&gt;Node31</title>
<path fill="none" stroke="#191970" d="M1769.5142,-336.2613C1784.3231,-309.9064 1822.5543,-234.6794 1817.8156,-168 1816.0333,-142.9217 1817.9191,-135.7998 1809.8156,-112 1806.5428,-102.388 1801.2396,-92.4884 1796.2735,-84.3468"/>
<polygon fill="#191970" stroke="#191970" points="1799.0852,-82.2476 1790.7405,-75.7195 1793.1929,-86.0266 1799.0852,-82.2476"/>
</g>
<!-- Node47&#45;&gt;Node24 -->
<g id="edge125" class="edge">
<title>Node47&#45;&gt;Node24</title>
<path fill="none" stroke="#191970" d="M1858.6416,-392.1813C1879.6372,-371.3024 1912.8156,-331.7099 1912.8156,-290 1912.8156,-290 1912.8156,-290 1912.8156,-234 1912.8156,-182.5883 1865.4469,-187.3498 1817.8156,-168 1784.7908,-154.584 1699.1018,-141.4845 1631.6957,-132.718"/>
<polygon fill="#191970" stroke="#191970" points="1631.8339,-129.2071 1621.4691,-131.4028 1630.9409,-136.1499 1631.8339,-129.2071"/>
</g>
<!-- Node47&#45;&gt;Node28 -->
<g id="edge126" class="edge">
<title>Node47&#45;&gt;Node28</title>
<path fill="none" stroke="#191970" d="M1848.6484,-392.3351C1854.3011,-377.5978 1860.42,-354.7585 1853.8156,-336 1832.3423,-275.0101 1776.2774,-220.1823 1746.3327,-194.0856"/>
<polygon fill="#191970" stroke="#191970" points="1748.5067,-191.3395 1738.6298,-187.5056 1743.9601,-196.662 1748.5067,-191.3395"/>
</g>
<!-- Node47&#45;&gt;Node46 -->
<g id="edge127" class="edge">
<title>Node47&#45;&gt;Node46</title>
<path fill="none" stroke="#191970" d="M1822.5347,-392.2977C1810.918,-383.1384 1796.1337,-371.4816 1784.3064,-362.1562"/>
<polygon fill="#191970" stroke="#191970" points="1786.3241,-359.2901 1776.3044,-355.8469 1781.99,-364.787 1786.3241,-359.2901"/>
</g>
</g>
</svg>
