<?xml version="1.0" encoding="UTF-8" standalone="no"?>
<!DOCTYPE svg PUBLIC "-//W3C//DTD SVG 1.1//EN"
 "http://www.w3.org/Graphics/SVG/1.1/DTD/svg11.dtd">
<!-- Generated by graphviz version 2.40.1 (20161225.0304)
 -->
<!-- Title: OptimalControl.h Pages: 1 -->
<svg width="1328pt" height="532pt"
 viewBox="0.00 0.00 1327.50 532.00" xmlns="http://www.w3.org/2000/svg" xmlns:xlink="http://www.w3.org/1999/xlink">
<g id="graph0" class="graph" transform="scale(1 1) rotate(0) translate(4 528)">
<title>OptimalControl.h</title>
<!-- Node0 -->
<g id="node1" class="node">
<title>Node0</title>
<polygon fill="#bfbfbf" stroke="#000000" points="819,-504.5 819,-523.5 919,-523.5 919,-504.5 819,-504.5"/>
<text text-anchor="middle" x="869" y="-511.5" font-family="FreeSans.ttf" font-size="10.00" fill="#000000">OptimalControl.h</text>
</g>
<!-- Node1 -->
<g id="node2" class="node">
<title>Node1</title>
<g id="a_node2"><a xlink:href="DynamicalSystem_8h.html" target="_top" xlink:title="iDynTree/DynamicalSystem.h">
<polygon fill="none" stroke="#000000" points="458.5,-392.5 458.5,-411.5 619.5,-411.5 619.5,-392.5 458.5,-392.5"/>
<text text-anchor="middle" x="539" y="-399.5" font-family="FreeSans.ttf" font-size="10.00" fill="#000000">iDynTree/DynamicalSystem.h</text>
</a>
</g>
</g>
<!-- Node0&#45;&gt;Node1 -->
<g id="edge1" class="edge">
<title>Node0&#45;&gt;Node1</title>
<path fill="none" stroke="#191970" d="M818.8516,-508.4313C754.4537,-500.7048 646.7378,-485.6704 611,-468 587.6577,-456.4585 566.412,-435.015 553.1467,-419.702"/>
<polygon fill="#191970" stroke="#191970" points="555.7394,-417.3466 546.6355,-411.9272 550.3728,-421.841 555.7394,-417.3466"/>
</g>
<!-- Node18 -->
<g id="node19" class="node">
<title>Node18</title>
<g id="a_node19"><a xlink:href="LinearSystem_8h.html" target="_top" xlink:title="iDynTree/LinearSystem.h">
<polygon fill="none" stroke="#000000" points="620,-448.5 620,-467.5 758,-467.5 758,-448.5 620,-448.5"/>
<text text-anchor="middle" x="689" y="-455.5" font-family="FreeSans.ttf" font-size="10.00" fill="#000000">iDynTree/LinearSystem.h</text>
</a>
</g>
</g>
<!-- Node0&#45;&gt;Node18 -->
<g id="edge21" class="edge">
<title>Node0&#45;&gt;Node18</title>
<path fill="none" stroke="#191970" d="M838.0569,-504.3733C807.9961,-495.021 762.1974,-480.7725 729.3022,-470.5385"/>
<polygon fill="#191970" stroke="#191970" points="730.1277,-467.1299 719.5393,-467.5011 728.0481,-473.8139 730.1277,-467.1299"/>
</g>
<!-- Node33 -->
<g id="node34" class="node">
<title>Node33</title>
<g id="a_node34"><a xlink:href="Constraint_8h.html" target="_top" xlink:title="iDynTree/Constraint.h">
<polygon fill="none" stroke="#000000" points="307,-392.5 307,-411.5 429,-411.5 429,-392.5 307,-392.5"/>
<text text-anchor="middle" x="368" y="-399.5" font-family="FreeSans.ttf" font-size="10.00" fill="#000000">iDynTree/Constraint.h</text>
</a>
</g>
</g>
<!-- Node0&#45;&gt;Node33 -->
<g id="edge58" class="edge">
<title>Node0&#45;&gt;Node33</title>
<path fill="none" stroke="#191970" d="M818.7943,-508.2947C760.6289,-501.1651 662.1329,-487.4854 579,-468 516.5135,-453.3539 445.6357,-429.6826 403.9876,-415.0248"/>
<polygon fill="#191970" stroke="#191970" points="404.8977,-411.6341 394.3029,-411.593 402.5596,-418.2321 404.8977,-411.6341"/>
</g>
<!-- Node34 -->
<g id="node35" class="node">
<title>Node34</title>
<g id="a_node35"><a xlink:href="ConstraintsGroup_8h.html" target="_top" xlink:title="iDynTree/ConstraintsGroup.h">
<polygon fill="none" stroke="#000000" points="980,-448.5 980,-467.5 1136,-467.5 1136,-448.5 980,-448.5"/>
<text text-anchor="middle" x="1058" y="-455.5" font-family="FreeSans.ttf" font-size="10.00" fill="#000000">iDynTree/ConstraintsGroup.h</text>
</a>
</g>
</g>
<!-- Node0&#45;&gt;Node34 -->
<g id="edge63" class="edge">
<title>Node0&#45;&gt;Node34</title>
<path fill="none" stroke="#191970" d="M901.4903,-504.3733C933.1902,-494.9807 981.5576,-480.6496 1016.1286,-470.4064"/>
<polygon fill="#191970" stroke="#191970" points="1017.3401,-473.6979 1025.9337,-467.5011 1015.3514,-466.9863 1017.3401,-473.6979"/>
</g>
<!-- Node35 -->
<g id="node36" class="node">
<title>Node35</title>
<g id="a_node36"><a xlink:href="Cost_8h.html" target="_top" xlink:title="iDynTree/Cost.h">
<polygon fill="none" stroke="#000000" points="1124.5,-392.5 1124.5,-411.5 1217.5,-411.5 1217.5,-392.5 1124.5,-392.5"/>
<text text-anchor="middle" x="1171" y="-399.5" font-family="FreeSans.ttf" font-size="10.00" fill="#000000">iDynTree/Cost.h</text>
</a>
</g>
</g>
<!-- Node0&#45;&gt;Node35 -->
<g id="edge68" class="edge">
<title>Node0&#45;&gt;Node35</title>
<path fill="none" stroke="#191970" d="M919.1295,-511.4791C989.0512,-507.0067 1111.1083,-495.4258 1145,-468 1158.8846,-456.7644 1165.3819,-437.0763 1168.4059,-422.1191"/>
<polygon fill="#191970" stroke="#191970" points="1171.9302,-422.2583 1170.1061,-411.8217 1165.0238,-421.1179 1171.9302,-422.2583"/>
</g>
<!-- Node36 -->
<g id="node37" class="node">
<title>Node36</title>
<g id="a_node37"><a xlink:href="OptimalControlProblem_8h.html" target="_top" xlink:title="iDynTree/OptimalControlProblem.h">
<polygon fill="none" stroke="#000000" points="776,-448.5 776,-467.5 962,-467.5 962,-448.5 776,-448.5"/>
<text text-anchor="middle" x="869" y="-455.5" font-family="FreeSans.ttf" font-size="10.00" fill="#000000">iDynTree/OptimalControlProblem.h</text>
</a>
</g>
</g>
<!-- Node0&#45;&gt;Node36 -->
<g id="edge71" class="edge">
<title>Node0&#45;&gt;Node36</title>
<path fill="none" stroke="#191970" d="M869,-504.2455C869,-496.9382 869,-486.6944 869,-477.7046"/>
<polygon fill="#191970" stroke="#191970" points="872.5001,-477.6426 869,-467.6427 865.5001,-477.6427 872.5001,-477.6426"/>
</g>
<!-- Node37 -->
<g id="node38" class="node">
<title>Node37</title>
<g id="a_node38"><a xlink:href="TimeRange_8h.html" target="_top" xlink:title="iDynTree/TimeRange.h">
<polygon fill="none" stroke="#000000" points="1192.5,-448.5 1192.5,-467.5 1319.5,-467.5 1319.5,-448.5 1192.5,-448.5"/>
<text text-anchor="middle" x="1256" y="-455.5" font-family="FreeSans.ttf" font-size="10.00" fill="#000000">iDynTree/TimeRange.h</text>
</a>
</g>
</g>
<!-- Node0&#45;&gt;Node37 -->
<g id="edge78" class="edge">
<title>Node0&#45;&gt;Node37</title>
<path fill="none" stroke="#191970" d="M919.1967,-506.7364C986.1361,-497.0501 1105.13,-479.8313 1182.2694,-468.669"/>
<polygon fill="#191970" stroke="#191970" points="1183.0023,-472.0995 1192.3979,-467.2034 1181.9998,-465.1717 1183.0023,-472.0995"/>
</g>
<!-- Node2 -->
<g id="node3" class="node">
<title>Node2</title>
<g id="a_node3"><a xlink:href="VectorDynSize_8h.html" target="_top" xlink:title="iDynTree/Core/VectorDynSize.h">
<polygon fill="none" stroke="#000000" points="284.5,-336.5 284.5,-355.5 451.5,-355.5 451.5,-336.5 284.5,-336.5"/>
<text text-anchor="middle" x="368" y="-343.5" font-family="FreeSans.ttf" font-size="10.00" fill="#000000">iDynTree/Core/VectorDynSize.h</text>
</a>
</g>
</g>
<!-- Node1&#45;&gt;Node2 -->
<g id="edge2" class="edge">
<title>Node1&#45;&gt;Node2</title>
<path fill="none" stroke="#191970" d="M509.6041,-392.3733C481.1693,-383.0613 437.9123,-368.8953 406.6919,-358.671"/>
<polygon fill="#191970" stroke="#191970" points="407.605,-355.2872 397.0124,-355.5011 405.4264,-361.9396 407.605,-355.2872"/>
</g>
<!-- Node14 -->
<g id="node15" class="node">
<title>Node14</title>
<g id="a_node15"><a xlink:href="SparsityStructure_8h.html" target="_top" xlink:title="iDynTree/SparsityStructure.h">
<polygon fill="none" stroke="#000000" points="540.5,-336.5 540.5,-355.5 695.5,-355.5 695.5,-336.5 540.5,-336.5"/>
<text text-anchor="middle" x="618" y="-343.5" font-family="FreeSans.ttf" font-size="10.00" fill="#000000">iDynTree/SparsityStructure.h</text>
</a>
</g>
</g>
<!-- Node1&#45;&gt;Node14 -->
<g id="edge14" class="edge">
<title>Node1&#45;&gt;Node14</title>
<path fill="none" stroke="#191970" d="M552.7607,-392.2455C564.6552,-383.814 582.065,-371.4729 595.9085,-361.6598"/>
<polygon fill="#191970" stroke="#191970" points="598.2628,-364.2811 604.3969,-355.6427 594.2146,-358.5704 598.2628,-364.2811"/>
</g>
<!-- Node3 -->
<g id="node4" class="node">
<title>Node3</title>
<g id="a_node4"><a xlink:href="Span_8h.html" target="_top" xlink:title="iDynTree/Core/Span.h">
<polygon fill="none" stroke="#000000" points="282.5,-56.5 282.5,-75.5 403.5,-75.5 403.5,-56.5 282.5,-56.5"/>
<text text-anchor="middle" x="343" y="-63.5" font-family="FreeSans.ttf" font-size="10.00" fill="#000000">iDynTree/Core/Span.h</text>
</a>
</g>
</g>
<!-- Node2&#45;&gt;Node3 -->
<g id="edge3" class="edge">
<title>Node2&#45;&gt;Node3</title>
<path fill="none" stroke="#191970" d="M356.9198,-336.3338C326.0577,-308.4957 239.8209,-224.2161 216,-132 213.7768,-123.3936 210.8959,-119.2774 216,-112 225.1737,-98.9204 260.5588,-86.7328 291.6551,-78.193"/>
<polygon fill="#191970" stroke="#191970" points="292.8009,-81.5099 301.5619,-75.552 290.9978,-74.7461 292.8009,-81.5099"/>
</g>
<!-- Node13 -->
<g id="node14" class="node">
<title>Node13</title>
<polygon fill="none" stroke="#bfbfbf" points="760,-56.5 760,-75.5 804,-75.5 804,-56.5 760,-56.5"/>
<text text-anchor="middle" x="782" y="-63.5" font-family="FreeSans.ttf" font-size="10.00" fill="#000000">string</text>
</g>
<!-- Node2&#45;&gt;Node13 -->
<g id="edge13" class="edge">
<title>Node2&#45;&gt;Node13</title>
<path fill="none" stroke="#191970" d="M369.3198,-336.0953C371.8516,-321.3184 378.8536,-293.7684 397,-280 487.4807,-211.3488 552.4108,-302.1042 650,-244 666.7846,-234.0066 740.0185,-127.8357 769.5692,-84.3821"/>
<polygon fill="#191970" stroke="#191970" points="772.6109,-86.1329 775.329,-75.8926 766.8182,-82.2028 772.6109,-86.1329"/>
</g>
<!-- Node4 -->
<g id="node5" class="node">
<title>Node4</title>
<polygon fill="none" stroke="#bfbfbf" points="590,-.5 590,-19.5 642,-19.5 642,-.5 590,-.5"/>
<text text-anchor="middle" x="616" y="-7.5" font-family="FreeSans.ttf" font-size="10.00" fill="#000000">cassert</text>
</g>
<!-- Node3&#45;&gt;Node4 -->
<g id="edge4" class="edge">
<title>Node3&#45;&gt;Node4</title>
<path fill="none" stroke="#191970" d="M400.0434,-56.4191C446.1761,-48.3425 512.9821,-35.9082 579.831,-20.1346"/>
<polygon fill="#191970" stroke="#191970" points="580.7763,-23.5073 589.6918,-17.7832 579.1526,-16.6983 580.7763,-23.5073"/>
</g>
<!-- Node5 -->
<g id="node6" class="node">
<title>Node5</title>
<polygon fill="none" stroke="#bfbfbf" points="448,-.5 448,-19.5 512,-19.5 512,-.5 448,-.5"/>
<text text-anchor="middle" x="480" y="-7.5" font-family="FreeSans.ttf" font-size="10.00" fill="#000000">algorithm</text>
</g>
<!-- Node3&#45;&gt;Node5 -->
<g id="edge5" class="edge">
<title>Node3&#45;&gt;Node5</title>
<path fill="none" stroke="#191970" d="M366.5511,-56.3733C388.8391,-47.2629 422.4937,-33.5062 447.3637,-23.3404"/>
<polygon fill="#191970" stroke="#191970" points="448.8239,-26.5247 456.7562,-19.5011 446.1753,-20.0451 448.8239,-26.5247"/>
</g>
<!-- Node6 -->
<g id="node7" class="node">
<title>Node6</title>
<polygon fill="none" stroke="#bfbfbf" points="530,-.5 530,-19.5 572,-19.5 572,-.5 530,-.5"/>
<text text-anchor="middle" x="551" y="-7.5" font-family="FreeSans.ttf" font-size="10.00" fill="#000000">array</text>
</g>
<!-- Node3&#45;&gt;Node6 -->
<g id="edge6" class="edge">
<title>Node3&#45;&gt;Node6</title>
<path fill="none" stroke="#191970" d="M383.1589,-56.4596C417.2559,-48.1725 467.6749,-35.4811 519.9691,-20.1721"/>
<polygon fill="#191970" stroke="#191970" points="521.1524,-23.4722 529.7519,-17.2836 519.1701,-16.7587 521.1524,-23.4722"/>
</g>
<!-- Node7 -->
<g id="node8" class="node">
<title>Node7</title>
<polygon fill="none" stroke="#bfbfbf" points="9.5,-.5 9.5,-19.5 62.5,-19.5 62.5,-.5 9.5,-.5"/>
<text text-anchor="middle" x="36" y="-7.5" font-family="FreeSans.ttf" font-size="10.00" fill="#000000">cstddef</text>
</g>
<!-- Node3&#45;&gt;Node7 -->
<g id="edge7" class="edge">
<title>Node3&#45;&gt;Node7</title>
<path fill="none" stroke="#191970" d="M282.2817,-56.5355C219.1516,-46.5615 123.5088,-31.0449 72.546,-20.1363"/>
<polygon fill="#191970" stroke="#191970" points="73.1946,-16.6952 62.6744,-17.9506 71.6813,-23.5297 73.1946,-16.6952"/>
</g>
<!-- Node8 -->
<g id="node9" class="node">
<title>Node8</title>
<polygon fill="none" stroke="#bfbfbf" points="80.5,-.5 80.5,-19.5 133.5,-19.5 133.5,-.5 80.5,-.5"/>
<text text-anchor="middle" x="107" y="-7.5" font-family="FreeSans.ttf" font-size="10.00" fill="#000000">iterator</text>
</g>
<!-- Node3&#45;&gt;Node8 -->
<g id="edge8" class="edge">
<title>Node3&#45;&gt;Node8</title>
<path fill="none" stroke="#191970" d="M298.7734,-56.4256C260.2974,-47.9619 202.8145,-34.9966 143.6028,-20.071"/>
<polygon fill="#191970" stroke="#191970" points="144.2543,-16.6255 133.7008,-17.5605 142.5339,-23.4108 144.2543,-16.6255"/>
</g>
<!-- Node9 -->
<g id="node10" class="node">
<title>Node9</title>
<polygon fill="none" stroke="#bfbfbf" points="152,-.5 152,-19.5 196,-19.5 196,-.5 152,-.5"/>
<text text-anchor="middle" x="174" y="-7.5" font-family="FreeSans.ttf" font-size="10.00" fill="#000000">limits</text>
</g>
<!-- Node3&#45;&gt;Node9 -->
<g id="edge9" class="edge">
<title>Node3&#45;&gt;Node9</title>
<path fill="none" stroke="#191970" d="M313.9479,-56.3733C283.8019,-46.3841 236.7988,-30.8091 205.7062,-20.5062"/>
<polygon fill="#191970" stroke="#191970" points="206.8052,-17.1833 196.2119,-17.3601 204.6034,-23.828 206.8052,-17.1833"/>
</g>
<!-- Node10 -->
<g id="node11" class="node">
<title>Node10</title>
<polygon fill="none" stroke="#bfbfbf" points="214.5,-.5 214.5,-19.5 279.5,-19.5 279.5,-.5 214.5,-.5"/>
<text text-anchor="middle" x="247" y="-7.5" font-family="FreeSans.ttf" font-size="10.00" fill="#000000">stdexcept</text>
</g>
<!-- Node3&#45;&gt;Node10 -->
<g id="edge10" class="edge">
<title>Node3&#45;&gt;Node10</title>
<path fill="none" stroke="#191970" d="M326.2781,-56.2455C311.4111,-47.5731 289.4534,-34.7645 272.4142,-24.825"/>
<polygon fill="#191970" stroke="#191970" points="273.9317,-21.6582 263.5303,-19.6427 270.4045,-27.7047 273.9317,-21.6582"/>
</g>
<!-- Node11 -->
<g id="node12" class="node">
<title>Node11</title>
<polygon fill="none" stroke="#bfbfbf" points="297.5,-.5 297.5,-19.5 366.5,-19.5 366.5,-.5 297.5,-.5"/>
<text text-anchor="middle" x="332" y="-7.5" font-family="FreeSans.ttf" font-size="10.00" fill="#000000">type_traits</text>
</g>
<!-- Node3&#45;&gt;Node11 -->
<g id="edge11" class="edge">
<title>Node3&#45;&gt;Node11</title>
<path fill="none" stroke="#191970" d="M341.0839,-56.2455C339.6486,-48.9382 337.6364,-38.6944 335.8705,-29.7046"/>
<polygon fill="#191970" stroke="#191970" points="339.256,-28.7805 333.8941,-19.6427 332.3873,-30.1298 339.256,-28.7805"/>
</g>
<!-- Node12 -->
<g id="node13" class="node">
<title>Node12</title>
<polygon fill="none" stroke="#bfbfbf" points="384.5,-.5 384.5,-19.5 429.5,-19.5 429.5,-.5 384.5,-.5"/>
<text text-anchor="middle" x="407" y="-7.5" font-family="FreeSans.ttf" font-size="10.00" fill="#000000">utility</text>
</g>
<!-- Node3&#45;&gt;Node12 -->
<g id="edge12" class="edge">
<title>Node3&#45;&gt;Node12</title>
<path fill="none" stroke="#191970" d="M354.1479,-56.2455C363.5087,-48.0549 377.0858,-36.1749 388.1349,-26.5069"/>
<polygon fill="#191970" stroke="#191970" points="390.7588,-28.8618 395.9798,-19.6427 386.1492,-23.5937 390.7588,-28.8618"/>
</g>
<!-- Node14&#45;&gt;Node7 -->
<g id="edge18" class="edge">
<title>Node14&#45;&gt;Node7</title>
<path fill="none" stroke="#191970" d="M540.3446,-337.9318C390.4768,-321.3071 76,-280.8416 76,-234 76,-234 76,-234 76,-178 76,-148.938 53.0612,-67.549 41.9257,-29.7514"/>
<polygon fill="#191970" stroke="#191970" points="45.2093,-28.5139 39.0065,-19.9247 38.4991,-30.5073 45.2093,-28.5139"/>
</g>
<!-- Node14&#45;&gt;Node13 -->
<g id="edge20" class="edge">
<title>Node14&#45;&gt;Node13</title>
<path fill="none" stroke="#191970" d="M626.5934,-336.3813C641.9717,-318.8674 674.6741,-280.2308 697,-244 730.8811,-189.0174 760.9724,-118.444 774.4704,-85.0894"/>
<polygon fill="#191970" stroke="#191970" points="777.7881,-86.2194 778.2537,-75.6348 771.289,-83.6188 777.7881,-86.2194"/>
</g>
<!-- Node15 -->
<g id="node16" class="node">
<title>Node15</title>
<g id="a_node16"><a xlink:href="Utils_8h.html" target="_top" xlink:title="iDynTree/Core/Utils.h">
<polygon fill="none" stroke="#000000" points="66.5,-56.5 66.5,-75.5 185.5,-75.5 185.5,-56.5 66.5,-56.5"/>
<text text-anchor="middle" x="126" y="-63.5" font-family="FreeSans.ttf" font-size="10.00" fill="#000000">iDynTree/Core/Utils.h</text>
</a>
</g>
</g>
<!-- Node14&#45;&gt;Node15 -->
<g id="edge15" class="edge">
<title>Node14&#45;&gt;Node15</title>
<path fill="none" stroke="#191970" d="M540.2572,-338.2287C496.6928,-331.8345 442.2004,-320.3639 397,-300 280.6399,-247.577 176.6127,-128.7302 139.9801,-83.7225"/>
<polygon fill="#191970" stroke="#191970" points="142.5619,-81.3479 133.5684,-75.7471 137.1062,-85.7338 142.5619,-81.3479"/>
</g>
<!-- Node16 -->
<g id="node17" class="node">
<title>Node16</title>
<polygon fill="none" stroke="#bfbfbf" points="978.5,-280.5 978.5,-299.5 1025.5,-299.5 1025.5,-280.5 978.5,-280.5"/>
<text text-anchor="middle" x="1002" y="-287.5" font-family="FreeSans.ttf" font-size="10.00" fill="#000000">vector</text>
</g>
<!-- Node14&#45;&gt;Node16 -->
<g id="edge17" class="edge">
<title>Node14&#45;&gt;Node16</title>
<path fill="none" stroke="#191970" d="M683.5756,-336.4369C765.9909,-324.418 904.3511,-304.2405 968.0386,-294.9527"/>
<polygon fill="#191970" stroke="#191970" points="968.9266,-298.3603 978.3168,-293.4538 967.9164,-291.4336 968.9266,-298.3603"/>
</g>
<!-- Node17 -->
<g id="node18" class="node">
<title>Node17</title>
<polygon fill="none" stroke="#bfbfbf" points="406,-280.5 406,-299.5 492,-299.5 492,-280.5 406,-280.5"/>
<text text-anchor="middle" x="449" y="-287.5" font-family="FreeSans.ttf" font-size="10.00" fill="#000000">unordered_set</text>
</g>
<!-- Node14&#45;&gt;Node17 -->
<g id="edge19" class="edge">
<title>Node14&#45;&gt;Node17</title>
<path fill="none" stroke="#191970" d="M588.9479,-336.3733C560.8457,-327.0613 518.0946,-312.8953 487.2393,-302.671"/>
<polygon fill="#191970" stroke="#191970" points="488.2664,-299.3243 477.673,-299.5011 486.0645,-305.969 488.2664,-299.3243"/>
</g>
<!-- Node15&#45;&gt;Node7 -->
<g id="edge16" class="edge">
<title>Node15&#45;&gt;Node7</title>
<path fill="none" stroke="#191970" d="M110.3232,-56.2455C96.5144,-47.6534 76.1807,-35.0014 60.2708,-25.1018"/>
<polygon fill="#191970" stroke="#191970" points="61.8368,-21.954 51.4972,-19.6427 58.1387,-27.8974 61.8368,-21.954"/>
</g>
<!-- Node18&#45;&gt;Node1 -->
<g id="edge22" class="edge">
<title>Node18&#45;&gt;Node1</title>
<path fill="none" stroke="#191970" d="M663.2141,-448.3733C638.5953,-439.1822 601.31,-425.2624 574.0125,-415.0713"/>
<polygon fill="#191970" stroke="#191970" points="575.042,-411.7198 564.4494,-411.5011 572.5937,-418.2777 575.042,-411.7198"/>
</g>
<!-- Node18&#45;&gt;Node14 -->
<g id="edge56" class="edge">
<title>Node18&#45;&gt;Node14</title>
<path fill="none" stroke="#191970" d="M682.9466,-448.4509C671.1046,-429.7707 644.7035,-388.1238 629.459,-364.0761"/>
<polygon fill="#191970" stroke="#191970" points="632.3483,-362.0969 624.0381,-355.5249 626.4362,-365.8448 632.3483,-362.0969"/>
</g>
<!-- Node19 -->
<g id="node20" class="node">
<title>Node19</title>
<g id="a_node20"><a xlink:href="TimeVaryingObject_8h.html" target="_top" xlink:title="iDynTree/TimeVaryingObject.h">
<polygon fill="none" stroke="#000000" points="676,-392.5 676,-411.5 840,-411.5 840,-392.5 676,-392.5"/>
<text text-anchor="middle" x="758" y="-399.5" font-family="FreeSans.ttf" font-size="10.00" fill="#000000">iDynTree/TimeVaryingObject.h</text>
</a>
</g>
</g>
<!-- Node18&#45;&gt;Node19 -->
<g id="edge23" class="edge">
<title>Node18&#45;&gt;Node19</title>
<path fill="none" stroke="#191970" d="M701.0189,-448.2455C711.2098,-439.9746 726.0362,-427.9416 738.0107,-418.2232"/>
<polygon fill="#191970" stroke="#191970" points="740.5598,-420.662 746.1188,-411.6427 736.1486,-415.2268 740.5598,-420.662"/>
</g>
<!-- Node32 -->
<g id="node33" class="node">
<title>Node32</title>
<polygon fill="none" stroke="#bfbfbf" points="972,-392.5 972,-411.5 1030,-411.5 1030,-392.5 972,-392.5"/>
<text text-anchor="middle" x="1001" y="-399.5" font-family="FreeSans.ttf" font-size="10.00" fill="#000000">memory</text>
</g>
<!-- Node18&#45;&gt;Node32 -->
<g id="edge57" class="edge">
<title>Node18&#45;&gt;Node32</title>
<path fill="none" stroke="#191970" d="M742.2802,-448.4369C804.5763,-437.2555 906.2134,-419.013 961.7407,-409.0465"/>
<polygon fill="#191970" stroke="#191970" points="962.655,-412.4385 971.8793,-407.2268 961.4183,-405.5486 962.655,-412.4385"/>
</g>
<!-- Node19&#45;&gt;Node2 -->
<g id="edge24" class="edge">
<title>Node19&#45;&gt;Node2</title>
<path fill="none" stroke="#191970" d="M691.3997,-392.4369C622.8314,-382.5912 516.1336,-367.2705 444.2326,-356.9462"/>
<polygon fill="#191970" stroke="#191970" points="444.7215,-353.4806 434.3256,-355.5237 443.7265,-360.4095 444.7215,-353.4806"/>
</g>
<!-- Node20 -->
<g id="node21" class="node">
<title>Node20</title>
<g id="a_node21"><a xlink:href="MatrixDynSize_8h.html" target="_top" xlink:title="iDynTree/Core/MatrixDynSize.h">
<polygon fill="none" stroke="#000000" points="939.5,-224.5 939.5,-243.5 1106.5,-243.5 1106.5,-224.5 939.5,-224.5"/>
<text text-anchor="middle" x="1023" y="-231.5" font-family="FreeSans.ttf" font-size="10.00" fill="#000000">iDynTree/Core/MatrixDynSize.h</text>
</a>
</g>
</g>
<!-- Node19&#45;&gt;Node20 -->
<g id="edge25" class="edge">
<title>Node19&#45;&gt;Node20</title>
<path fill="none" stroke="#191970" d="M787.3274,-392.3682C810.3332,-384.2251 842.7445,-371.4337 869,-356 897.0566,-339.5076 968.856,-279.8129 1003.5946,-250.488"/>
<polygon fill="#191970" stroke="#191970" points="1006.2061,-252.8631 1011.5788,-243.7316 1001.6843,-247.5196 1006.2061,-252.8631"/>
</g>
<!-- Node21 -->
<g id="node22" class="node">
<title>Node21</title>
<g id="a_node22"><a xlink:href="Transform_8h.html" target="_top" xlink:title="iDynTree/Core/Transform.h">
<polygon fill="none" stroke="#000000" points="714,-336.5 714,-355.5 860,-355.5 860,-336.5 714,-336.5"/>
<text text-anchor="middle" x="787" y="-343.5" font-family="FreeSans.ttf" font-size="10.00" fill="#000000">iDynTree/Core/Transform.h</text>
</a>
</g>
</g>
<!-- Node19&#45;&gt;Node21 -->
<g id="edge27" class="edge">
<title>Node19&#45;&gt;Node21</title>
<path fill="none" stroke="#191970" d="M763.0514,-392.2455C767.0019,-384.617 772.6097,-373.7881 777.4058,-364.5267"/>
<polygon fill="#191970" stroke="#191970" points="780.5159,-366.1321 782.0065,-355.6427 774.2999,-362.9131 780.5159,-366.1321"/>
</g>
<!-- Node20&#45;&gt;Node13 -->
<g id="edge26" class="edge">
<title>Node20&#45;&gt;Node13</title>
<path fill="none" stroke="#191970" d="M1025.3769,-224.2505C1030.3194,-201.3773 1038.9787,-143.8049 1010,-112 984.1307,-83.6077 870.8009,-72.0107 814.2842,-67.9262"/>
<polygon fill="#191970" stroke="#191970" points="814.3195,-64.4205 804.1034,-67.2276 813.8403,-71.404 814.3195,-64.4205"/>
</g>
<!-- Node21&#45;&gt;Node13 -->
<g id="edge55" class="edge">
<title>Node21&#45;&gt;Node13</title>
<path fill="none" stroke="#191970" d="M825.5768,-336.4822C847.5367,-329.436 874.3063,-317.8954 893,-300 920.1377,-274.0211 911.0072,-256.4135 930,-224 939.8481,-207.1931 949.1784,-206.5894 955,-188 957.6565,-179.5173 957.8586,-176.4167 955,-168 944.9083,-138.2872 937.3921,-130.4373 912,-112 882.4539,-90.5465 841.9713,-78.3285 814.0703,-71.9561"/>
<polygon fill="#191970" stroke="#191970" points="814.5552,-68.4803 804.042,-69.793 813.0792,-75.3229 814.5552,-68.4803"/>
</g>
<!-- Node22 -->
<g id="node23" class="node">
<title>Node22</title>
<g id="a_node23"><a xlink:href="Position_8h.html" target="_top" xlink:title="iDynTree/Core/Position.h">
<polygon fill="none" stroke="#000000" points="748,-280.5 748,-299.5 884,-299.5 884,-280.5 748,-280.5"/>
<text text-anchor="middle" x="816" y="-287.5" font-family="FreeSans.ttf" font-size="10.00" fill="#000000">iDynTree/Core/Position.h</text>
</a>
</g>
</g>
<!-- Node21&#45;&gt;Node22 -->
<g id="edge28" class="edge">
<title>Node21&#45;&gt;Node22</title>
<path fill="none" stroke="#191970" d="M792.0514,-336.2455C796.0019,-328.617 801.6097,-317.7881 806.4058,-308.5267"/>
<polygon fill="#191970" stroke="#191970" points="809.5159,-310.1321 811.0065,-299.6427 803.2999,-306.9131 809.5159,-310.1321"/>
</g>
<!-- Node27 -->
<g id="node28" class="node">
<title>Node27</title>
<g id="a_node28"><a xlink:href="Rotation_8h.html" target="_top" xlink:title="iDynTree/Core/Rotation.h">
<polygon fill="none" stroke="#000000" points="504.5,-224.5 504.5,-243.5 641.5,-243.5 641.5,-224.5 504.5,-224.5"/>
<text text-anchor="middle" x="573" y="-231.5" font-family="FreeSans.ttf" font-size="10.00" fill="#000000">iDynTree/Core/Rotation.h</text>
</a>
</g>
</g>
<!-- Node21&#45;&gt;Node27 -->
<g id="edge53" class="edge">
<title>Node21&#45;&gt;Node27</title>
<path fill="none" stroke="#191970" d="M768.7545,-336.4509C731.0877,-316.7375 644.5497,-271.4465 600.2359,-248.2543"/>
<polygon fill="#191970" stroke="#191970" points="601.6822,-245.0609 591.1993,-243.5249 598.4363,-251.2629 601.6822,-245.0609"/>
</g>
<!-- Node30 -->
<g id="node31" class="node">
<title>Node30</title>
<g id="a_node31"><a xlink:href="MatrixFixSize_8h.html" target="_top" xlink:title="iDynTree/Core/MatrixFixSize.h">
<polygon fill="none" stroke="#000000" points="225.5,-112.5 225.5,-131.5 386.5,-131.5 386.5,-112.5 225.5,-112.5"/>
<text text-anchor="middle" x="306" y="-119.5" font-family="FreeSans.ttf" font-size="10.00" fill="#000000">iDynTree/Core/MatrixFixSize.h</text>
</a>
</g>
</g>
<!-- Node21&#45;&gt;Node30 -->
<g id="edge54" class="edge">
<title>Node21&#45;&gt;Node30</title>
<path fill="none" stroke="#191970" d="M752.6637,-336.3967C636.1691,-303.7401 262.7787,-198.4247 255,-188 241.8578,-170.3873 262.2193,-150.4629 280.9807,-137.1569"/>
<polygon fill="#191970" stroke="#191970" points="283.0027,-140.0152 289.3621,-131.5412 279.1062,-134.1998 283.0027,-140.0152"/>
</g>
<!-- Node22&#45;&gt;Node13 -->
<g id="edge52" class="edge">
<title>Node22&#45;&gt;Node13</title>
<path fill="none" stroke="#191970" d="M828.0696,-280.2169C858.7615,-255.31 937.4812,-191.2327 939,-188 942.7799,-179.9549 943.2407,-175.8121 939,-168 912.4519,-119.0933 851.1966,-89.982 813.5285,-76.0623"/>
<polygon fill="#191970" stroke="#191970" points="814.6316,-72.7399 804.0369,-72.6913 812.2888,-79.3363 814.6316,-72.7399"/>
</g>
<!-- Node23 -->
<g id="node24" class="node">
<title>Node23</title>
<g id="a_node24"><a xlink:href="PositionRaw_8h.html" target="_top" xlink:title="iDynTree/Core/PositionRaw.h">
<polygon fill="none" stroke="#000000" points="774,-168.5 774,-187.5 930,-187.5 930,-168.5 774,-168.5"/>
<text text-anchor="middle" x="852" y="-175.5" font-family="FreeSans.ttf" font-size="10.00" fill="#000000">iDynTree/Core/PositionRaw.h</text>
</a>
</g>
</g>
<!-- Node22&#45;&gt;Node23 -->
<g id="edge29" class="edge">
<title>Node22&#45;&gt;Node23</title>
<path fill="none" stroke="#191970" d="M819.0693,-280.4509C824.9674,-262.1013 837.9887,-221.5908 845.7741,-197.3693"/>
<polygon fill="#191970" stroke="#191970" points="849.2104,-198.1162 848.9384,-187.5249 842.5462,-195.9741 849.2104,-198.1162"/>
</g>
<!-- Node22&#45;&gt;Node27 -->
<g id="edge38" class="edge">
<title>Node22&#45;&gt;Node27</title>
<path fill="none" stroke="#191970" d="M774.5029,-280.4369C732.9153,-270.8529 668.8166,-256.0812 624.1169,-245.78"/>
<polygon fill="#191970" stroke="#191970" points="624.8565,-242.3588 614.3259,-243.5237 623.2845,-249.18 624.8565,-242.3588"/>
</g>
<!-- Node23&#45;&gt;Node13 -->
<g id="edge37" class="edge">
<title>Node23&#45;&gt;Node13</title>
<path fill="none" stroke="#191970" d="M846.0318,-168.4509C834.3567,-149.7707 808.3274,-108.1238 793.2976,-84.0761"/>
<polygon fill="#191970" stroke="#191970" points="796.2211,-82.1499 787.9531,-75.5249 790.2851,-85.8599 796.2211,-82.1499"/>
</g>
<!-- Node24 -->
<g id="node25" class="node">
<title>Node24</title>
<g id="a_node25"><a xlink:href="VectorFixSize_8h.html" target="_top" xlink:title="iDynTree/Core/VectorFixSize.h">
<polygon fill="none" stroke="#000000" points="404.5,-112.5 404.5,-131.5 565.5,-131.5 565.5,-112.5 404.5,-112.5"/>
<text text-anchor="middle" x="485" y="-119.5" font-family="FreeSans.ttf" font-size="10.00" fill="#000000">iDynTree/Core/VectorFixSize.h</text>
</a>
</g>
</g>
<!-- Node23&#45;&gt;Node24 -->
<g id="edge30" class="edge">
<title>Node23&#45;&gt;Node24</title>
<path fill="none" stroke="#191970" d="M789.3275,-168.4369C725.0668,-158.6314 625.2182,-143.3957 557.5686,-133.0731"/>
<polygon fill="#191970" stroke="#191970" points="557.8276,-129.5722 547.4141,-131.5237 556.7717,-136.4921 557.8276,-129.5722"/>
</g>
<!-- Node24&#45;&gt;Node3 -->
<g id="edge32" class="edge">
<title>Node24&#45;&gt;Node3</title>
<path fill="none" stroke="#191970" d="M460.5893,-112.3733C437.3858,-103.2226 402.2962,-89.3844 376.4858,-79.2057"/>
<polygon fill="#191970" stroke="#191970" points="377.6789,-75.9139 367.0921,-75.5011 375.1108,-82.4258 377.6789,-75.9139"/>
</g>
<!-- Node24&#45;&gt;Node4 -->
<g id="edge35" class="edge">
<title>Node24&#45;&gt;Node4</title>
<path fill="none" stroke="#191970" d="M528.3009,-112.4808C550.2809,-105.6462 575.8814,-94.3118 593,-76 604.8859,-63.2856 610.673,-44.099 613.4642,-29.6846"/>
<polygon fill="#191970" stroke="#191970" points="616.9248,-30.2087 615.0661,-19.7782 610.0146,-29.0913 616.9248,-30.2087"/>
</g>
<!-- Node24&#45;&gt;Node13 -->
<g id="edge33" class="edge">
<title>Node24&#45;&gt;Node13</title>
<path fill="none" stroke="#191970" d="M535.7187,-112.4369C597.0982,-100.8636 698.5984,-81.7256 750.0207,-72.0298"/>
<polygon fill="#191970" stroke="#191970" points="750.7278,-75.4582 759.9061,-70.1658 749.4308,-68.5794 750.7278,-75.4582"/>
</g>
<!-- Node24&#45;&gt;Node15 -->
<g id="edge31" class="edge">
<title>Node24&#45;&gt;Node15</title>
<path fill="none" stroke="#191970" d="M423.6936,-112.4369C360.3575,-102.5572 261.6798,-87.1645 195.4882,-76.8394"/>
<polygon fill="#191970" stroke="#191970" points="195.9805,-73.3739 185.5605,-75.2908 194.9015,-80.2903 195.9805,-73.3739"/>
</g>
<!-- Node25 -->
<g id="node26" class="node">
<title>Node25</title>
<polygon fill="none" stroke="#bfbfbf" points="528,-56.5 528,-75.5 584,-75.5 584,-56.5 528,-56.5"/>
<text text-anchor="middle" x="556" y="-63.5" font-family="FreeSans.ttf" font-size="10.00" fill="#000000">sstream</text>
</g>
<!-- Node24&#45;&gt;Node25 -->
<g id="edge34" class="edge">
<title>Node24&#45;&gt;Node25</title>
<path fill="none" stroke="#191970" d="M497.3673,-112.2455C507.9554,-103.8943 523.4064,-91.7076 535.7893,-81.9408"/>
<polygon fill="#191970" stroke="#191970" points="538.0903,-84.5837 543.7745,-75.6427 533.7553,-79.0875 538.0903,-84.5837"/>
</g>
<!-- Node26 -->
<g id="node27" class="node">
<title>Node26</title>
<polygon fill="none" stroke="#bfbfbf" points="460,-56.5 460,-75.5 510,-75.5 510,-56.5 460,-56.5"/>
<text text-anchor="middle" x="485" y="-63.5" font-family="FreeSans.ttf" font-size="10.00" fill="#000000">cstring</text>
</g>
<!-- Node24&#45;&gt;Node26 -->
<g id="edge36" class="edge">
<title>Node24&#45;&gt;Node26</title>
<path fill="none" stroke="#191970" d="M485,-112.2455C485,-104.9382 485,-94.6944 485,-85.7046"/>
<polygon fill="#191970" stroke="#191970" points="488.5001,-85.6426 485,-75.6427 481.5001,-85.6427 488.5001,-85.6426"/>
</g>
<!-- Node27&#45;&gt;Node13 -->
<g id="edge39" class="edge">
<title>Node27&#45;&gt;Node13</title>
<path fill="none" stroke="#191970" d="M595.2768,-224.4569C611.8583,-216.5233 634.2533,-203.9641 650,-188 677.4087,-160.2129 665.8127,-138.997 694,-112 710.0721,-96.6066 732.3124,-85.0407 750.4129,-77.3566"/>
<polygon fill="#191970" stroke="#191970" points="752.0198,-80.4821 759.9774,-73.4873 749.3947,-73.993 752.0198,-80.4821"/>
</g>
<!-- Node27&#45;&gt;Node24 -->
<g id="edge51" class="edge">
<title>Node27&#45;&gt;Node24</title>
<path fill="none" stroke="#191970" d="M523.2965,-224.476C502.8633,-217.8489 481.1734,-206.6954 469,-188 459.6956,-173.7107 466.0106,-154.5021 473.2665,-140.4931"/>
<polygon fill="#191970" stroke="#191970" points="476.3399,-142.169 478.2598,-131.7495 470.2613,-138.6976 476.3399,-142.169"/>
</g>
<!-- Node28 -->
<g id="node29" class="node">
<title>Node28</title>
<g id="a_node29"><a xlink:href="GeomVector3_8h.html" target="_top" xlink:title="iDynTree/Core/GeomVector3.h">
<polygon fill="none" stroke="#000000" points="478.5,-168.5 478.5,-187.5 641.5,-187.5 641.5,-168.5 478.5,-168.5"/>
<text text-anchor="middle" x="560" y="-175.5" font-family="FreeSans.ttf" font-size="10.00" fill="#000000">iDynTree/Core/GeomVector3.h</text>
</a>
</g>
</g>
<!-- Node27&#45;&gt;Node28 -->
<g id="edge40" class="edge">
<title>Node27&#45;&gt;Node28</title>
<path fill="none" stroke="#191970" d="M570.7356,-224.2455C569.0206,-216.8579 566.6088,-206.4689 564.5056,-197.4087"/>
<polygon fill="#191970" stroke="#191970" points="567.9092,-196.5922 562.2385,-187.6427 561.0905,-198.1751 567.9092,-196.5922"/>
</g>
<!-- Node29 -->
<g id="node30" class="node">
<title>Node29</title>
<g id="a_node30"><a xlink:href="RotationRaw_8h.html" target="_top" xlink:title="iDynTree/Core/RotationRaw.h">
<polygon fill="none" stroke="#000000" points="264,-168.5 264,-187.5 422,-187.5 422,-168.5 264,-168.5"/>
<text text-anchor="middle" x="343" y="-175.5" font-family="FreeSans.ttf" font-size="10.00" fill="#000000">iDynTree/Core/RotationRaw.h</text>
</a>
</g>
</g>
<!-- Node27&#45;&gt;Node29 -->
<g id="edge42" class="edge">
<title>Node27&#45;&gt;Node29</title>
<path fill="none" stroke="#191970" d="M533.7229,-224.4369C494.5256,-214.8932 434.2,-200.2052 391.9165,-189.9101"/>
<polygon fill="#191970" stroke="#191970" points="392.6592,-186.4888 382.1151,-187.5237 391.0032,-193.2901 392.6592,-186.4888"/>
</g>
<!-- Node28&#45;&gt;Node24 -->
<g id="edge41" class="edge">
<title>Node28&#45;&gt;Node24</title>
<path fill="none" stroke="#191970" d="M546.936,-168.2455C535.6438,-159.814 519.1155,-147.4729 505.9729,-137.6598"/>
<polygon fill="#191970" stroke="#191970" points="508.0211,-134.8211 497.9143,-131.6427 503.8331,-140.4301 508.0211,-134.8211"/>
</g>
<!-- Node29&#45;&gt;Node13 -->
<g id="edge50" class="edge">
<title>Node29&#45;&gt;Node13</title>
<path fill="none" stroke="#191970" d="M422.0244,-168.9752C475.2645,-161.7569 546.6906,-149.8511 608,-132 630.1897,-125.5391 634.4732,-120.4094 656,-112 687.7873,-99.5824 724.4713,-86.3076 750.0291,-77.2262"/>
<polygon fill="#191970" stroke="#191970" points="751.3236,-80.4809 759.5814,-73.8432 748.9866,-73.8824 751.3236,-80.4809"/>
</g>
<!-- Node29&#45;&gt;Node30 -->
<g id="edge43" class="edge">
<title>Node29&#45;&gt;Node30</title>
<path fill="none" stroke="#191970" d="M336.5551,-168.2455C331.4618,-160.5367 324.2092,-149.5598 318.048,-140.2348"/>
<polygon fill="#191970" stroke="#191970" points="320.8038,-138.0566 312.3711,-131.6427 314.9635,-141.9155 320.8038,-138.0566"/>
</g>
<!-- Node30&#45;&gt;Node4 -->
<g id="edge45" class="edge">
<title>Node30&#45;&gt;Node4</title>
<path fill="none" stroke="#191970" d="M329.3524,-112.3756C350.9599,-103.3503 383.8891,-89.2906 412,-76 429.6106,-67.6739 432.8527,-63.0805 451,-56 504.0154,-35.3151 521.5169,-36.0908 579.9004,-20.2492"/>
<polygon fill="#191970" stroke="#191970" points="580.9276,-23.5966 589.6333,-17.5582 579.0621,-16.8497 580.9276,-23.5966"/>
</g>
<!-- Node30&#45;&gt;Node13 -->
<g id="edge47" class="edge">
<title>Node30&#45;&gt;Node13</title>
<path fill="none" stroke="#191970" d="M386.7469,-112.5004C493.1802,-99.9788 675.5577,-78.5226 749.4676,-69.8273"/>
<polygon fill="#191970" stroke="#191970" points="750.0408,-73.2841 759.5634,-68.6396 749.2229,-66.3321 750.0408,-73.2841"/>
</g>
<!-- Node30&#45;&gt;Node15 -->
<g id="edge44" class="edge">
<title>Node30&#45;&gt;Node15</title>
<path fill="none" stroke="#191970" d="M275.0569,-112.3733C244.9961,-103.021 199.1974,-88.7725 166.3022,-78.5385"/>
<polygon fill="#191970" stroke="#191970" points="167.1277,-75.1299 156.5393,-75.5011 165.0481,-81.8139 167.1277,-75.1299"/>
</g>
<!-- Node30&#45;&gt;Node25 -->
<g id="edge49" class="edge">
<title>Node30&#45;&gt;Node25</title>
<path fill="none" stroke="#191970" d="M353.5342,-112.462C394.6085,-104.0564 455.7831,-91.1482 517.7992,-76.2081"/>
<polygon fill="#191970" stroke="#191970" points="518.8633,-79.5516 527.7566,-73.7933 517.2134,-72.7488 518.8633,-79.5516"/>
</g>
<!-- Node30&#45;&gt;Node26 -->
<g id="edge46" class="edge">
<title>Node30&#45;&gt;Node26</title>
<path fill="none" stroke="#191970" d="M336.7712,-112.3733C368.2956,-102.5109 417.2243,-87.2036 450.1555,-76.9011"/>
<polygon fill="#191970" stroke="#191970" points="451.3261,-80.2022 459.8249,-73.876 449.236,-73.5215 451.3261,-80.2022"/>
</g>
<!-- Node31 -->
<g id="node32" class="node">
<title>Node31</title>
<polygon fill="none" stroke="#bfbfbf" points="204,-56.5 204,-75.5 264,-75.5 264,-56.5 204,-56.5"/>
<text text-anchor="middle" x="234" y="-63.5" font-family="FreeSans.ttf" font-size="10.00" fill="#000000">iostream</text>
</g>
<!-- Node30&#45;&gt;Node31 -->
<g id="edge48" class="edge">
<title>Node30&#45;&gt;Node31</title>
<path fill="none" stroke="#191970" d="M293.4586,-112.2455C282.7213,-103.8943 267.0527,-91.7076 254.4953,-81.9408"/>
<polygon fill="#191970" stroke="#191970" points="256.4401,-79.0194 246.3977,-75.6427 252.1425,-84.5449 256.4401,-79.0194"/>
</g>
<!-- Node33&#45;&gt;Node2 -->
<g id="edge61" class="edge">
<title>Node33&#45;&gt;Node2</title>
<path fill="none" stroke="#191970" d="M368,-392.2455C368,-384.9382 368,-374.6944 368,-365.7046"/>
<polygon fill="#191970" stroke="#191970" points="371.5001,-365.6426 368,-355.6427 364.5001,-365.6427 371.5001,-365.6426"/>
</g>
<!-- Node33&#45;&gt;Node7 -->
<g id="edge59" class="edge">
<title>Node33&#45;&gt;Node7</title>
<path fill="none" stroke="#191970" d="M306.8192,-396.1097C202.1769,-384.3257 0,-353.3597 0,-290 0,-290 0,-290 0,-122 0,-87.7942 15.4074,-50.4094 26.0631,-28.6445"/>
<polygon fill="#191970" stroke="#191970" points="29.273,-30.0537 30.6881,-19.5538 23.0341,-26.8795 29.273,-30.0537"/>
</g>
<!-- Node33&#45;&gt;Node13 -->
<g id="edge60" class="edge">
<title>Node33&#45;&gt;Node13</title>
<path fill="none" stroke="#191970" d="M339.6827,-392.4254C300.8967,-377.3059 236,-343.9474 236,-290 236,-290 236,-290 236,-234 236,-203.4754 231.6818,-187.698 255,-168 309.4969,-121.9639 506.3288,-154.5796 574,-132 590.6303,-126.451 591.819,-118.7478 608,-112 655.5663,-92.164 714.0683,-78.7933 749.6695,-71.7909"/>
<polygon fill="#191970" stroke="#191970" points="750.7828,-75.1414 759.9455,-69.8221 749.4655,-68.2664 750.7828,-75.1414"/>
</g>
<!-- Node33&#45;&gt;Node14 -->
<g id="edge62" class="edge">
<title>Node33&#45;&gt;Node14</title>
<path fill="none" stroke="#191970" d="M410.6925,-392.4369C453.5679,-382.8328 519.7005,-368.0191 565.7002,-357.7152"/>
<polygon fill="#191970" stroke="#191970" points="566.4905,-361.1249 575.4836,-355.5237 564.9604,-354.2942 566.4905,-361.1249"/>
</g>
<!-- Node34&#45;&gt;Node13 -->
<g id="edge65" class="edge">
<title>Node34&#45;&gt;Node13</title>
<path fill="none" stroke="#191970" d="M1116.0363,-448.4501C1158.4451,-440.3522 1211.1901,-427.5815 1227,-412 1248.7406,-390.5734 1246,-376.5246 1246,-346 1246,-346 1246,-346 1246,-178 1246,-133.2632 1210.9114,-130.1008 1170,-112 1106.3288,-83.8294 895.2787,-71.259 814.1544,-67.384"/>
<polygon fill="#191970" stroke="#191970" points="814.19,-63.8819 804.0383,-66.914 813.8651,-70.8744 814.19,-63.8819"/>
</g>
<!-- Node34&#45;&gt;Node14 -->
<g id="edge67" class="edge">
<title>Node34&#45;&gt;Node14</title>
<path fill="none" stroke="#191970" d="M1058.3194,-448.1439C1058.2075,-433.4306 1055.6128,-405.9625 1039,-392 984.0282,-345.798 794.4193,-362.8156 705.8194,-355.907"/>
<polygon fill="#191970" stroke="#191970" points="706.0676,-352.415 695.7851,-354.9684 705.4156,-359.3846 706.0676,-352.415"/>
</g>
<!-- Node34&#45;&gt;Node16 -->
<g id="edge66" class="edge">
<title>Node34&#45;&gt;Node16</title>
<path fill="none" stroke="#191970" d="M1059.975,-448.4069C1062.2784,-435.3862 1065.1579,-411.5055 1060,-392 1051.503,-359.8671 1030.277,-327.2604 1015.999,-307.8365"/>
<polygon fill="#191970" stroke="#191970" points="1018.6375,-305.5226 1009.8163,-299.6542 1013.0525,-309.7427 1018.6375,-305.5226"/>
</g>
<!-- Node34&#45;&gt;Node32 -->
<g id="edge64" class="edge">
<title>Node34&#45;&gt;Node32</title>
<path fill="none" stroke="#191970" d="M1048.0714,-448.2455C1039.8162,-440.1352 1027.8791,-428.4075 1018.0918,-418.7919"/>
<polygon fill="#191970" stroke="#191970" points="1020.4011,-416.1542 1010.8149,-411.6427 1015.4954,-421.1476 1020.4011,-416.1542"/>
</g>
<!-- Node35&#45;&gt;Node13 -->
<g id="edge69" class="edge">
<title>Node35&#45;&gt;Node13</title>
<path fill="none" stroke="#191970" d="M1171.1433,-392.4119C1171.4198,-373.0545 1172,-327.9182 1172,-290 1172,-290 1172,-290 1172,-178 1172,-146.7875 1172.3966,-131.4687 1148,-112 1122.0781,-91.3141 898.4805,-73.9871 814.0744,-68.1267"/>
<polygon fill="#191970" stroke="#191970" points="814.2505,-64.6306 804.0345,-67.4383 813.7716,-71.6142 814.2505,-64.6306"/>
</g>
<!-- Node35&#45;&gt;Node14 -->
<g id="edge70" class="edge">
<title>Node35&#45;&gt;Node14</title>
<path fill="none" stroke="#191970" d="M1124.4174,-397.2667C1107.8679,-395.5925 1089.104,-393.7027 1072,-392 912.2567,-376.0974 869.7027,-373.4627 706.2114,-356.1146"/>
<polygon fill="#191970" stroke="#191970" points="706.0951,-352.5826 695.781,-355.0054 705.3548,-359.5433 706.0951,-352.5826"/>
</g>
<!-- Node36&#45;&gt;Node13 -->
<g id="edge74" class="edge">
<title>Node36&#45;&gt;Node13</title>
<path fill="none" stroke="#191970" d="M882.1734,-448.2839C900.1631,-435.1239 933.5484,-411.0857 963,-392 1037.2634,-343.8746 1134,-378.4936 1134,-290 1134,-290 1134,-290 1134,-178 1134,-111.2049 900.9284,-78.9553 814.0938,-69.258"/>
<polygon fill="#191970" stroke="#191970" points="814.3392,-65.7641 804.0192,-68.1615 813.5817,-72.723 814.3392,-65.7641"/>
</g>
<!-- Node36&#45;&gt;Node14 -->
<g id="edge76" class="edge">
<title>Node36&#45;&gt;Node14</title>
<path fill="none" stroke="#191970" d="M868.9991,-448.3132C868.4408,-433.821 865.1421,-406.6378 849,-392 837.3369,-381.4238 756.1016,-366.9243 693.2252,-357.0499"/>
<polygon fill="#191970" stroke="#191970" points="693.7243,-353.5855 683.305,-355.5061 692.6478,-360.5022 693.7243,-353.5855"/>
</g>
<!-- Node36&#45;&gt;Node15 -->
<g id="edge75" class="edge">
<title>Node36&#45;&gt;Node15</title>
<path fill="none" stroke="#191970" d="M775.8962,-448.7904C772.8962,-448.5198 769.9247,-448.2556 767,-448 685.5215,-440.8796 38,-427.789 38,-346 38,-346 38,-346 38,-178 38,-136.2321 76.3084,-100.8241 102.3742,-81.5662"/>
<polygon fill="#191970" stroke="#191970" points="104.5485,-84.3148 110.6716,-75.6685 100.493,-78.6092 104.5485,-84.3148"/>
</g>
<!-- Node36&#45;&gt;Node16 -->
<g id="edge73" class="edge">
<title>Node36&#45;&gt;Node16</title>
<path fill="none" stroke="#191970" d="M876.5317,-448.4862C898.011,-421.3545 959.8202,-343.2798 987.8627,-307.8576"/>
<polygon fill="#191970" stroke="#191970" points="990.7567,-309.8408 994.2196,-299.8279 985.2684,-305.4959 990.7567,-309.8408"/>
</g>
<!-- Node36&#45;&gt;Node19 -->
<g id="edge77" class="edge">
<title>Node36&#45;&gt;Node19</title>
<path fill="none" stroke="#191970" d="M849.9184,-448.3733C832.2598,-439.4644 805.7947,-426.1127 785.7902,-416.0203"/>
<polygon fill="#191970" stroke="#191970" points="787.3372,-412.8806 776.8326,-411.5011 784.1842,-419.1303 787.3372,-412.8806"/>
</g>
<!-- Node36&#45;&gt;Node32 -->
<g id="edge72" class="edge">
<title>Node36&#45;&gt;Node32</title>
<path fill="none" stroke="#191970" d="M891.6916,-448.3733C913.0711,-439.3032 945.3057,-425.6279 969.2362,-415.4755"/>
<polygon fill="#191970" stroke="#191970" points="970.7656,-418.6287 978.6045,-411.5011 968.0317,-412.1846 970.7656,-418.6287"/>
</g>
</g>
</svg>
