<?xml version="1.0" encoding="UTF-8" standalone="no"?>
<!DOCTYPE svg PUBLIC "-//W3C//DTD SVG 1.1//EN"
 "http://www.w3.org/Graphics/SVG/1.1/DTD/svg11.dtd">
<!-- Generated by graphviz version 2.40.1 (20161225.0304)
 -->
<!-- Title: OriginElement.cpp Pages: 1 -->
<svg width="1294pt" height="476pt"
 viewBox="0.00 0.00 1293.50 476.00" xmlns="http://www.w3.org/2000/svg" xmlns:xlink="http://www.w3.org/1999/xlink">
<g id="graph0" class="graph" transform="scale(1 1) rotate(0) translate(4 472)">
<title>OriginElement.cpp</title>
<!-- Node0 -->
<g id="node1" class="node">
<title>Node0</title>
<polygon fill="#bfbfbf" stroke="#000000" points="555,-448.5 555,-467.5 662,-467.5 662,-448.5 555,-448.5"/>
<text text-anchor="middle" x="608.5" y="-455.5" font-family="FreeSans.ttf" font-size="10.00" fill="#000000">OriginElement.cpp</text>
</g>
<!-- Node1 -->
<g id="node2" class="node">
<title>Node1</title>
<g id="a_node2"><a xlink:href="OriginElement_8h.html" target="_top" xlink:title="OriginElement.h">
<polygon fill="none" stroke="#000000" points="173,-392.5 173,-411.5 268,-411.5 268,-392.5 173,-392.5"/>
<text text-anchor="middle" x="220.5" y="-399.5" font-family="FreeSans.ttf" font-size="10.00" fill="#000000">OriginElement.h</text>
</a>
</g>
</g>
<!-- Node0&#45;&gt;Node1 -->
<g id="edge1" class="edge">
<title>Node0&#45;&gt;Node1</title>
<path fill="none" stroke="#191970" d="M554.9576,-450.2722C482.2886,-439.7839 352.9483,-421.1162 278.1919,-410.3267"/>
<polygon fill="#191970" stroke="#191970" points="278.4147,-406.8226 268.0172,-408.8582 277.4147,-413.7508 278.4147,-406.8226"/>
</g>
<!-- Node8 -->
<g id="node9" class="node">
<title>Node8</title>
<g id="a_node9"><a xlink:href="URDFParsingUtils_8h.html" target="_top" xlink:title="URDFParsingUtils.h">
<polygon fill="none" stroke="#000000" points="1005.5,-392.5 1005.5,-411.5 1115.5,-411.5 1115.5,-392.5 1005.5,-392.5"/>
<text text-anchor="middle" x="1060.5" y="-399.5" font-family="FreeSans.ttf" font-size="10.00" fill="#000000">URDFParsingUtils.h</text>
</a>
</g>
</g>
<!-- Node0&#45;&gt;Node8 -->
<g id="edge9" class="edge">
<title>Node0&#45;&gt;Node8</title>
<path fill="none" stroke="#191970" d="M662.1253,-451.3562C745.3256,-441.0482 905.2631,-421.2329 995.1126,-410.1011"/>
<polygon fill="#191970" stroke="#191970" points="995.6864,-413.5568 1005.1802,-408.8538 994.8257,-406.61 995.6864,-413.5568"/>
</g>
<!-- Node12 -->
<g id="node13" class="node">
<title>Node12</title>
<g id="a_node13"><a xlink:href="Transform_8h.html" target="_top" xlink:title="iDynTree/Core/Transform.h">
<polygon fill="none" stroke="#000000" points="612.5,-336.5 612.5,-355.5 758.5,-355.5 758.5,-336.5 612.5,-336.5"/>
<text text-anchor="middle" x="685.5" y="-343.5" font-family="FreeSans.ttf" font-size="10.00" fill="#000000">iDynTree/Core/Transform.h</text>
</a>
</g>
</g>
<!-- Node0&#45;&gt;Node12 -->
<g id="edge58" class="edge">
<title>Node0&#45;&gt;Node12</title>
<path fill="none" stroke="#191970" d="M615.065,-448.4509C627.9077,-429.7707 656.5399,-388.1238 673.0726,-364.0761"/>
<polygon fill="#191970" stroke="#191970" points="676.1705,-365.7482 678.9516,-355.5249 670.4022,-361.7825 676.1705,-365.7482"/>
</g>
<!-- Node34 -->
<g id="node35" class="node">
<title>Node34</title>
<g id="a_node35"><a xlink:href="XMLAttribute_8h.html" target="_top" xlink:title="iDynTree/XMLAttribute.h">
<polygon fill="none" stroke="#000000" points="309.5,-224.5 309.5,-243.5 443.5,-243.5 443.5,-224.5 309.5,-224.5"/>
<text text-anchor="middle" x="376.5" y="-231.5" font-family="FreeSans.ttf" font-size="10.00" fill="#000000">iDynTree/XMLAttribute.h</text>
</a>
</g>
</g>
<!-- Node0&#45;&gt;Node34 -->
<g id="edge56" class="edge">
<title>Node0&#45;&gt;Node34</title>
<path fill="none" stroke="#191970" d="M598.5313,-448.375C562.6129,-413.6953 439.5363,-294.8627 393.7982,-250.7017"/>
<polygon fill="#191970" stroke="#191970" points="396.0567,-248.0172 386.4316,-243.5891 391.1946,-253.053 396.0567,-248.0172"/>
</g>
<!-- Node2 -->
<g id="node3" class="node">
<title>Node2</title>
<g id="a_node3"><a xlink:href="XMLElement_8h.html" target="_top" xlink:title="iDynTree/XMLElement.h">
<polygon fill="none" stroke="#000000" points="154.5,-336.5 154.5,-355.5 286.5,-355.5 286.5,-336.5 154.5,-336.5"/>
<text text-anchor="middle" x="220.5" y="-343.5" font-family="FreeSans.ttf" font-size="10.00" fill="#000000">iDynTree/XMLElement.h</text>
</a>
</g>
</g>
<!-- Node1&#45;&gt;Node2 -->
<g id="edge2" class="edge">
<title>Node1&#45;&gt;Node2</title>
<path fill="none" stroke="#191970" d="M220.5,-392.2455C220.5,-384.9382 220.5,-374.6944 220.5,-365.7046"/>
<polygon fill="#191970" stroke="#191970" points="224.0001,-365.6426 220.5,-355.6427 217.0001,-365.6427 224.0001,-365.6426"/>
</g>
<!-- Node6 -->
<g id="node7" class="node">
<title>Node6</title>
<polygon fill="none" stroke="#bfbfbf" points="0,-280.5 0,-299.5 93,-299.5 93,-280.5 0,-280.5"/>
<text text-anchor="middle" x="46.5" y="-287.5" font-family="FreeSans.ttf" font-size="10.00" fill="#000000">unordered_map</text>
</g>
<!-- Node1&#45;&gt;Node6 -->
<g id="edge8" class="edge">
<title>Node1&#45;&gt;Node6</title>
<path fill="none" stroke="#191970" d="M204.5897,-392.4805C189.3334,-383.2961 165.7019,-368.9227 145.5,-356 118.9414,-339.0111 88.8619,-318.8202 68.8998,-305.2838"/>
<polygon fill="#191970" stroke="#191970" points="70.7271,-302.294 60.4889,-299.5681 66.7927,-308.0836 70.7271,-302.294"/>
</g>
<!-- Node3 -->
<g id="node4" class="node">
<title>Node3</title>
<polygon fill="none" stroke="#bfbfbf" points="188,-280.5 188,-299.5 253,-299.5 253,-280.5 188,-280.5"/>
<text text-anchor="middle" x="220.5" y="-287.5" font-family="FreeSans.ttf" font-size="10.00" fill="#000000">functional</text>
</g>
<!-- Node2&#45;&gt;Node3 -->
<g id="edge3" class="edge">
<title>Node2&#45;&gt;Node3</title>
<path fill="none" stroke="#191970" d="M220.5,-336.2455C220.5,-328.9382 220.5,-318.6944 220.5,-309.7046"/>
<polygon fill="#191970" stroke="#191970" points="224.0001,-309.6426 220.5,-299.6427 217.0001,-309.6427 224.0001,-309.6426"/>
</g>
<!-- Node4 -->
<g id="node5" class="node">
<title>Node4</title>
<polygon fill="none" stroke="#bfbfbf" points="111.5,-280.5 111.5,-299.5 169.5,-299.5 169.5,-280.5 111.5,-280.5"/>
<text text-anchor="middle" x="140.5" y="-287.5" font-family="FreeSans.ttf" font-size="10.00" fill="#000000">memory</text>
</g>
<!-- Node2&#45;&gt;Node4 -->
<g id="edge4" class="edge">
<title>Node2&#45;&gt;Node4</title>
<path fill="none" stroke="#191970" d="M206.5651,-336.2455C194.4053,-327.7337 176.5536,-315.2375 162.4715,-305.3801"/>
<polygon fill="#191970" stroke="#191970" points="164.4747,-302.51 154.2752,-299.6427 160.4605,-308.2447 164.4747,-302.51"/>
</g>
<!-- Node5 -->
<g id="node6" class="node">
<title>Node5</title>
<polygon fill="none" stroke="#bfbfbf" points="634.5,-56.5 634.5,-75.5 678.5,-75.5 678.5,-56.5 634.5,-56.5"/>
<text text-anchor="middle" x="656.5" y="-63.5" font-family="FreeSans.ttf" font-size="10.00" fill="#000000">string</text>
</g>
<!-- Node2&#45;&gt;Node5 -->
<g id="edge5" class="edge">
<title>Node2&#45;&gt;Node5</title>
<path fill="none" stroke="#191970" d="M231.689,-336.4952C241.1719,-327.8718 254.4736,-314.3447 262.5,-300 277.4051,-273.3618 281.5,-264.5246 281.5,-234 281.5,-234 281.5,-234 281.5,-178 281.5,-106.678 533.6926,-77.0124 624.447,-68.646"/>
<polygon fill="#191970" stroke="#191970" points="624.794,-72.129 634.4421,-67.7511 624.1697,-65.1569 624.794,-72.129"/>
</g>
<!-- Node2&#45;&gt;Node6 -->
<g id="edge6" class="edge">
<title>Node2&#45;&gt;Node6</title>
<path fill="none" stroke="#191970" d="M190.5883,-336.3733C161.6548,-327.0613 117.6389,-312.8953 85.8707,-302.671"/>
<polygon fill="#191970" stroke="#191970" points="86.6128,-299.2331 76.0213,-299.5011 84.4682,-305.8965 86.6128,-299.2331"/>
</g>
<!-- Node7 -->
<g id="node8" class="node">
<title>Node7</title>
<polygon fill="none" stroke="#bfbfbf" points="334,-280.5 334,-299.5 381,-299.5 381,-280.5 334,-280.5"/>
<text text-anchor="middle" x="357.5" y="-287.5" font-family="FreeSans.ttf" font-size="10.00" fill="#000000">vector</text>
</g>
<!-- Node2&#45;&gt;Node7 -->
<g id="edge7" class="edge">
<title>Node2&#45;&gt;Node7</title>
<path fill="none" stroke="#191970" d="M244.0511,-336.3733C266.3391,-327.2629 299.9937,-313.5062 324.8637,-303.3404"/>
<polygon fill="#191970" stroke="#191970" points="326.3239,-306.5247 334.2562,-299.5011 323.6753,-300.0451 326.3239,-306.5247"/>
</g>
<!-- Node8&#45;&gt;Node5 -->
<g id="edge13" class="edge">
<title>Node8&#45;&gt;Node5</title>
<path fill="none" stroke="#191970" d="M1063.2758,-392.0938C1066.9613,-379.125 1073.7891,-355.7223 1080.5,-336 1105.8537,-261.4899 1188.4971,-227.0836 1136.5,-168 1094.9087,-120.7404 916.321,-148.2517 855.5,-132 833.1722,-126.0339 829.2474,-119.8215 807.5,-112 766.955,-97.4179 719.2555,-83.3963 688.4832,-74.747"/>
<polygon fill="#191970" stroke="#191970" points="689.3038,-71.3424 678.7311,-72.0267 687.4229,-78.085 689.3038,-71.3424"/>
</g>
<!-- Node8&#45;&gt;Node7 -->
<g id="edge14" class="edge">
<title>Node8&#45;&gt;Node7</title>
<path fill="none" stroke="#191970" d="M1005.2262,-399.3276C918.8886,-394.5054 747.0368,-382.3002 603.5,-356 526.3068,-341.8559 437.9114,-315.6019 390.9472,-300.827"/>
<polygon fill="#191970" stroke="#191970" points="391.8893,-297.454 381.2991,-297.7693 389.7745,-304.1269 391.8893,-297.454"/>
</g>
<!-- Node9 -->
<g id="node10" class="node">
<title>Node9</title>
<polygon fill="none" stroke="#bfbfbf" points="1089,-336.5 1089,-355.5 1136,-355.5 1136,-336.5 1089,-336.5"/>
<text text-anchor="middle" x="1112.5" y="-343.5" font-family="FreeSans.ttf" font-size="10.00" fill="#000000">cmath</text>
</g>
<!-- Node8&#45;&gt;Node9 -->
<g id="edge10" class="edge">
<title>Node8&#45;&gt;Node9</title>
<path fill="none" stroke="#191970" d="M1069.5577,-392.2455C1077.0142,-384.2155 1087.7634,-372.6394 1096.6417,-363.0781"/>
<polygon fill="#191970" stroke="#191970" points="1099.3063,-365.3522 1103.5461,-355.6427 1094.1768,-360.589 1099.3063,-365.3522"/>
</g>
<!-- Node10 -->
<g id="node11" class="node">
<title>Node10</title>
<polygon fill="none" stroke="#bfbfbf" points="1154,-336.5 1154,-355.5 1203,-355.5 1203,-336.5 1154,-336.5"/>
<text text-anchor="middle" x="1178.5" y="-343.5" font-family="FreeSans.ttf" font-size="10.00" fill="#000000">cstdlib</text>
</g>
<!-- Node8&#45;&gt;Node10 -->
<g id="edge11" class="edge">
<title>Node8&#45;&gt;Node10</title>
<path fill="none" stroke="#191970" d="M1080.7849,-392.3733C1099.6421,-383.4241 1127.946,-369.9917 1149.2455,-359.8835"/>
<polygon fill="#191970" stroke="#191970" points="1150.9461,-362.9506 1158.4798,-355.5011 1147.9449,-356.6266 1150.9461,-362.9506"/>
</g>
<!-- Node11 -->
<g id="node12" class="node">
<title>Node11</title>
<polygon fill="none" stroke="#bfbfbf" points="1229.5,-56.5 1229.5,-75.5 1285.5,-75.5 1285.5,-56.5 1229.5,-56.5"/>
<text text-anchor="middle" x="1257.5" y="-63.5" font-family="FreeSans.ttf" font-size="10.00" fill="#000000">sstream</text>
</g>
<!-- Node8&#45;&gt;Node11 -->
<g id="edge12" class="edge">
<title>Node8&#45;&gt;Node11</title>
<path fill="none" stroke="#191970" d="M1114.6227,-392.4459C1158.172,-383.8913 1215.0453,-370.4911 1233.5,-356 1259.7797,-335.3645 1269.5,-323.4132 1269.5,-290 1269.5,-290 1269.5,-290 1269.5,-178 1269.5,-145.3778 1264.4046,-107.7135 1260.8544,-85.4301"/>
<polygon fill="#191970" stroke="#191970" points="1264.3053,-84.8456 1259.2193,-75.5514 1257.3993,-85.9887 1264.3053,-84.8456"/>
</g>
<!-- Node8&#45;&gt;Node12 -->
<g id="edge15" class="edge">
<title>Node8&#45;&gt;Node12</title>
<path fill="none" stroke="#191970" d="M1005.1675,-393.737C939.9821,-384.0027 831.434,-367.7928 759.1736,-357.0019"/>
<polygon fill="#191970" stroke="#191970" points="759.6337,-353.5319 749.2264,-355.5165 758.5998,-360.4551 759.6337,-353.5319"/>
</g>
<!-- Node15 -->
<g id="node16" class="node">
<title>Node15</title>
<g id="a_node16"><a xlink:href="VectorFixSize_8h.html" target="_top" xlink:title="iDynTree/Core/VectorFixSize.h">
<polygon fill="none" stroke="#000000" points="864,-112.5 864,-131.5 1025,-131.5 1025,-112.5 864,-112.5"/>
<text text-anchor="middle" x="944.5" y="-119.5" font-family="FreeSans.ttf" font-size="10.00" fill="#000000">iDynTree/Core/VectorFixSize.h</text>
</a>
</g>
</g>
<!-- Node8&#45;&gt;Node15 -->
<g id="edge54" class="edge">
<title>Node8&#45;&gt;Node15</title>
<path fill="none" stroke="#191970" d="M1109.6298,-392.4427C1148.2888,-383.9833 1197.9779,-370.7205 1212.5,-356 1233.9372,-334.2699 1231.5,-320.5246 1231.5,-290 1231.5,-290 1231.5,-290 1231.5,-234 1231.5,-202.7875 1231.4211,-188.0501 1207.5,-168 1193.9563,-156.648 1103.2199,-142.4972 1032.0648,-132.9105"/>
<polygon fill="#191970" stroke="#191970" points="1032.0952,-129.3836 1021.7201,-131.53 1031.1692,-136.3221 1032.0952,-129.3836"/>
</g>
<!-- Node33 -->
<g id="node34" class="node">
<title>Node33</title>
<polygon fill="none" stroke="#bfbfbf" points="974.5,-336.5 974.5,-355.5 1032.5,-355.5 1032.5,-336.5 974.5,-336.5"/>
<text text-anchor="middle" x="1003.5" y="-343.5" font-family="FreeSans.ttf" font-size="10.00" fill="#000000">fpconv.h</text>
</g>
<!-- Node8&#45;&gt;Node33 -->
<g id="edge55" class="edge">
<title>Node8&#45;&gt;Node33</title>
<path fill="none" stroke="#191970" d="M1050.5714,-392.2455C1042.3162,-384.1352 1030.3791,-372.4075 1020.5918,-362.7919"/>
<polygon fill="#191970" stroke="#191970" points="1022.9011,-360.1542 1013.3149,-355.6427 1017.9954,-365.1476 1022.9011,-360.1542"/>
</g>
<!-- Node12&#45;&gt;Node5 -->
<g id="edge53" class="edge">
<title>Node12&#45;&gt;Node5</title>
<path fill="none" stroke="#191970" d="M612.4519,-337.9176C550.4577,-326.521 471.5,-299.2065 471.5,-234 471.5,-234 471.5,-234 471.5,-178 471.5,-107.4264 571.2386,-80.1083 624.249,-70.5729"/>
<polygon fill="#191970" stroke="#191970" points="624.907,-74.0114 634.1847,-68.8953 623.7415,-67.1091 624.907,-74.0114"/>
</g>
<!-- Node13 -->
<g id="node14" class="node">
<title>Node13</title>
<g id="a_node14"><a xlink:href="Position_8h.html" target="_top" xlink:title="iDynTree/Core/Position.h">
<polygon fill="none" stroke="#000000" points="569.5,-280.5 569.5,-299.5 705.5,-299.5 705.5,-280.5 569.5,-280.5"/>
<text text-anchor="middle" x="637.5" y="-287.5" font-family="FreeSans.ttf" font-size="10.00" fill="#000000">iDynTree/Core/Position.h</text>
</a>
</g>
</g>
<!-- Node12&#45;&gt;Node13 -->
<g id="edge16" class="edge">
<title>Node12&#45;&gt;Node13</title>
<path fill="none" stroke="#191970" d="M677.139,-336.2455C670.325,-328.2958 660.5319,-316.8706 652.3848,-307.3656"/>
<polygon fill="#191970" stroke="#191970" points="654.9305,-304.9575 645.7651,-299.6427 649.6157,-309.513 654.9305,-304.9575"/>
</g>
<!-- Node28 -->
<g id="node29" class="node">
<title>Node28</title>
<g id="a_node29"><a xlink:href="Rotation_8h.html" target="_top" xlink:title="iDynTree/Core/Rotation.h">
<polygon fill="none" stroke="#000000" points="672,-224.5 672,-243.5 809,-243.5 809,-224.5 672,-224.5"/>
<text text-anchor="middle" x="740.5" y="-231.5" font-family="FreeSans.ttf" font-size="10.00" fill="#000000">iDynTree/Core/Rotation.h</text>
</a>
</g>
</g>
<!-- Node12&#45;&gt;Node28 -->
<g id="edge51" class="edge">
<title>Node12&#45;&gt;Node28</title>
<path fill="none" stroke="#191970" d="M692.2716,-336.4406C698.5318,-327.3456 707.8448,-313.138 714.5,-300 722.2287,-284.7429 729.2235,-266.6163 734.0062,-253.2235"/>
<polygon fill="#191970" stroke="#191970" points="737.359,-254.2377 737.3393,-243.6428 730.7477,-251.9375 737.359,-254.2377"/>
</g>
<!-- Node31 -->
<g id="node32" class="node">
<title>Node31</title>
<g id="a_node32"><a xlink:href="MatrixFixSize_8h.html" target="_top" xlink:title="iDynTree/Core/MatrixFixSize.h">
<polygon fill="none" stroke="#000000" points="1043,-112.5 1043,-131.5 1204,-131.5 1204,-112.5 1043,-112.5"/>
<text text-anchor="middle" x="1123.5" y="-119.5" font-family="FreeSans.ttf" font-size="10.00" fill="#000000">iDynTree/Core/MatrixFixSize.h</text>
</a>
</g>
</g>
<!-- Node12&#45;&gt;Node31 -->
<g id="edge52" class="edge">
<title>Node12&#45;&gt;Node31</title>
<path fill="none" stroke="#191970" d="M733.5133,-336.4241C839.6119,-314.1877 1088.4434,-255.7561 1136.5,-188 1146.1773,-174.3558 1140.9558,-155.3184 1134.4781,-141.1942"/>
<polygon fill="#191970" stroke="#191970" points="1137.406,-139.2326 1129.7344,-131.9253 1131.1747,-142.4218 1137.406,-139.2326"/>
</g>
<!-- Node13&#45;&gt;Node5 -->
<g id="edge50" class="edge">
<title>Node13&#45;&gt;Node5</title>
<path fill="none" stroke="#191970" d="M616.6223,-280.4433C578.742,-261.6481 504.7066,-217.3844 528.5,-168 548.5631,-126.358 594.8124,-96.4522 625.8675,-80.1815"/>
<polygon fill="#191970" stroke="#191970" points="627.6311,-83.2117 634.9716,-75.5718 624.469,-76.9666 627.6311,-83.2117"/>
</g>
<!-- Node14 -->
<g id="node15" class="node">
<title>Node14</title>
<g id="a_node15"><a xlink:href="PositionRaw_8h.html" target="_top" xlink:title="iDynTree/Core/PositionRaw.h">
<polygon fill="none" stroke="#000000" points="537.5,-168.5 537.5,-187.5 693.5,-187.5 693.5,-168.5 537.5,-168.5"/>
<text text-anchor="middle" x="615.5" y="-175.5" font-family="FreeSans.ttf" font-size="10.00" fill="#000000">iDynTree/Core/PositionRaw.h</text>
</a>
</g>
</g>
<!-- Node13&#45;&gt;Node14 -->
<g id="edge17" class="edge">
<title>Node13&#45;&gt;Node14</title>
<path fill="none" stroke="#191970" d="M635.6243,-280.4509C632.0199,-262.1013 624.0625,-221.5908 619.3047,-197.3693"/>
<polygon fill="#191970" stroke="#191970" points="622.7329,-196.6627 617.371,-187.5249 615.8641,-198.012 622.7329,-196.6627"/>
</g>
<!-- Node13&#45;&gt;Node28 -->
<g id="edge36" class="edge">
<title>Node13&#45;&gt;Node28</title>
<path fill="none" stroke="#191970" d="M655.4412,-280.2455C671.54,-271.4928 695.3879,-258.527 713.7391,-248.5496"/>
<polygon fill="#191970" stroke="#191970" points="715.6507,-251.4942 722.7644,-243.6427 712.3071,-245.3444 715.6507,-251.4942"/>
</g>
<!-- Node14&#45;&gt;Node5 -->
<g id="edge35" class="edge">
<title>Node14&#45;&gt;Node5</title>
<path fill="none" stroke="#191970" d="M618.9956,-168.4509C625.7432,-150.0186 640.6764,-109.2254 649.5289,-85.043"/>
<polygon fill="#191970" stroke="#191970" points="652.8622,-86.1187 653.0132,-75.5249 646.2888,-83.7123 652.8622,-86.1187"/>
</g>
<!-- Node14&#45;&gt;Node15 -->
<g id="edge18" class="edge">
<title>Node14&#45;&gt;Node15</title>
<path fill="none" stroke="#191970" d="M671.6833,-168.4369C728.9354,-158.6918 817.6987,-143.5832 878.3213,-133.2645"/>
<polygon fill="#191970" stroke="#191970" points="879.2775,-136.6521 888.5484,-131.5237 878.1029,-129.7514 879.2775,-136.6521"/>
</g>
<!-- Node15&#45;&gt;Node5 -->
<g id="edge31" class="edge">
<title>Node15&#45;&gt;Node5</title>
<path fill="none" stroke="#191970" d="M895.3183,-112.4369C836.223,-100.9461 738.7754,-81.998 688.5838,-72.2385"/>
<polygon fill="#191970" stroke="#191970" points="689.1058,-68.7745 678.6216,-70.3014 687.7697,-75.6459 689.1058,-68.7745"/>
</g>
<!-- Node15&#45;&gt;Node11 -->
<g id="edge32" class="edge">
<title>Node15&#45;&gt;Node11</title>
<path fill="none" stroke="#191970" d="M1013.1968,-112.4782C1066.8482,-104.6 1143.4477,-92.387 1219.1059,-76.1449"/>
<polygon fill="#191970" stroke="#191970" points="1220.2597,-79.4759 1229.2888,-73.9328 1218.7737,-72.6355 1220.2597,-79.4759"/>
</g>
<!-- Node16 -->
<g id="node17" class="node">
<title>Node16</title>
<g id="a_node17"><a xlink:href="Utils_8h.html" target="_top" xlink:title="iDynTree/Core/Utils.h">
<polygon fill="none" stroke="#000000" points="908,-56.5 908,-75.5 1027,-75.5 1027,-56.5 908,-56.5"/>
<text text-anchor="middle" x="967.5" y="-63.5" font-family="FreeSans.ttf" font-size="10.00" fill="#000000">iDynTree/Core/Utils.h</text>
</a>
</g>
</g>
<!-- Node15&#45;&gt;Node16 -->
<g id="edge19" class="edge">
<title>Node15&#45;&gt;Node16</title>
<path fill="none" stroke="#191970" d="M948.5063,-112.2455C951.5735,-104.7776 955.9003,-94.2427 959.6497,-85.1137"/>
<polygon fill="#191970" stroke="#191970" points="962.9779,-86.2226 963.5396,-75.6427 956.5028,-83.5631 962.9779,-86.2226"/>
</g>
<!-- Node18 -->
<g id="node19" class="node">
<title>Node18</title>
<g id="a_node19"><a xlink:href="Span_8h.html" target="_top" xlink:title="iDynTree/Core/Span.h">
<polygon fill="none" stroke="#000000" points="723,-56.5 723,-75.5 844,-75.5 844,-56.5 723,-56.5"/>
<text text-anchor="middle" x="783.5" y="-63.5" font-family="FreeSans.ttf" font-size="10.00" fill="#000000">iDynTree/Core/Span.h</text>
</a>
</g>
</g>
<!-- Node15&#45;&gt;Node18 -->
<g id="edge21" class="edge">
<title>Node15&#45;&gt;Node18</title>
<path fill="none" stroke="#191970" d="M916.8231,-112.3733C890.1672,-103.1016 849.6762,-89.0178 820.3116,-78.804"/>
<polygon fill="#191970" stroke="#191970" points="821.4105,-75.4807 810.8157,-75.5011 819.1109,-82.0921 821.4105,-75.4807"/>
</g>
<!-- Node19 -->
<g id="node20" class="node">
<title>Node19</title>
<polygon fill="none" stroke="#bfbfbf" points="1034.5,-.5 1034.5,-19.5 1086.5,-19.5 1086.5,-.5 1034.5,-.5"/>
<text text-anchor="middle" x="1060.5" y="-7.5" font-family="FreeSans.ttf" font-size="10.00" fill="#000000">cassert</text>
</g>
<!-- Node15&#45;&gt;Node19 -->
<g id="edge33" class="edge">
<title>Node15&#45;&gt;Node19</title>
<path fill="none" stroke="#191970" d="M929.7568,-112.4012C911.583,-99.3742 884.8015,-75.4862 899.5,-56 899.5,-56 977.2055,-33.7984 1024.6486,-20.2433"/>
<polygon fill="#191970" stroke="#191970" points="1025.6206,-23.6057 1034.2742,-17.4931 1023.6975,-16.875 1025.6206,-23.6057"/>
</g>
<!-- Node27 -->
<g id="node28" class="node">
<title>Node27</title>
<polygon fill="none" stroke="#bfbfbf" points="1045.5,-56.5 1045.5,-75.5 1095.5,-75.5 1095.5,-56.5 1045.5,-56.5"/>
<text text-anchor="middle" x="1070.5" y="-63.5" font-family="FreeSans.ttf" font-size="10.00" fill="#000000">cstring</text>
</g>
<!-- Node15&#45;&gt;Node27 -->
<g id="edge34" class="edge">
<title>Node15&#45;&gt;Node27</title>
<path fill="none" stroke="#191970" d="M966.1602,-112.3733C986.4772,-103.3435 1017.064,-89.7494 1039.875,-79.6111"/>
<polygon fill="#191970" stroke="#191970" points="1041.4059,-82.7609 1049.1225,-75.5011 1038.5628,-76.3642 1041.4059,-82.7609"/>
</g>
<!-- Node17 -->
<g id="node18" class="node">
<title>Node17</title>
<polygon fill="none" stroke="#bfbfbf" points="963,-.5 963,-19.5 1016,-19.5 1016,-.5 963,-.5"/>
<text text-anchor="middle" x="989.5" y="-7.5" font-family="FreeSans.ttf" font-size="10.00" fill="#000000">cstddef</text>
</g>
<!-- Node16&#45;&gt;Node17 -->
<g id="edge20" class="edge">
<title>Node16&#45;&gt;Node17</title>
<path fill="none" stroke="#191970" d="M971.3321,-56.2455C974.2659,-48.7776 978.4047,-38.2427 981.991,-29.1137"/>
<polygon fill="#191970" stroke="#191970" points="985.3129,-30.23 985.7118,-19.6427 978.7976,-27.6704 985.3129,-30.23"/>
</g>
<!-- Node18&#45;&gt;Node17 -->
<g id="edge25" class="edge">
<title>Node18&#45;&gt;Node17</title>
<path fill="none" stroke="#191970" d="M819.5733,-56.47C852.1142,-47.8346 901.5473,-34.6215 952.8256,-20.4396"/>
<polygon fill="#191970" stroke="#191970" points="954.0572,-23.7303 962.759,-17.6864 952.1875,-16.9845 954.0572,-23.7303"/>
</g>
<!-- Node18&#45;&gt;Node19 -->
<g id="edge22" class="edge">
<title>Node18&#45;&gt;Node19</title>
<path fill="none" stroke="#191970" d="M841.5093,-56.492C888.4215,-48.4577 956.3526,-36.0476 1024.1885,-20.161"/>
<polygon fill="#191970" stroke="#191970" points="1025.2694,-23.502 1034.1939,-17.792 1023.6565,-16.6903 1025.2694,-23.502"/>
</g>
<!-- Node20 -->
<g id="node21" class="node">
<title>Node20</title>
<polygon fill="none" stroke="#bfbfbf" points="453.5,-.5 453.5,-19.5 517.5,-19.5 517.5,-.5 453.5,-.5"/>
<text text-anchor="middle" x="485.5" y="-7.5" font-family="FreeSans.ttf" font-size="10.00" fill="#000000">algorithm</text>
</g>
<!-- Node18&#45;&gt;Node20 -->
<g id="edge23" class="edge">
<title>Node18&#45;&gt;Node20</title>
<path fill="none" stroke="#191970" d="M724.3503,-56.4857C674.3733,-48.2025 600.6853,-35.4195 527.5335,-20.1253"/>
<polygon fill="#191970" stroke="#191970" points="528.1926,-16.6874 517.6858,-18.0503 526.7493,-23.537 528.1926,-16.6874"/>
</g>
<!-- Node21 -->
<g id="node22" class="node">
<title>Node21</title>
<polygon fill="none" stroke="#bfbfbf" points="535.5,-.5 535.5,-19.5 577.5,-19.5 577.5,-.5 535.5,-.5"/>
<text text-anchor="middle" x="556.5" y="-7.5" font-family="FreeSans.ttf" font-size="10.00" fill="#000000">array</text>
</g>
<!-- Node18&#45;&gt;Node21 -->
<g id="edge24" class="edge">
<title>Node18&#45;&gt;Node21</title>
<path fill="none" stroke="#191970" d="M738.0819,-56.4416C698.1852,-47.7839 638.6846,-34.2364 587.5,-20 587.4013,-19.9725 587.3023,-19.945 587.2033,-19.9173"/>
<polygon fill="#191970" stroke="#191970" points="588.3591,-16.6095 577.7764,-17.1154 586.3647,-23.3194 588.3591,-16.6095"/>
</g>
<!-- Node22 -->
<g id="node23" class="node">
<title>Node22</title>
<polygon fill="none" stroke="#bfbfbf" points="596,-.5 596,-19.5 649,-19.5 649,-.5 596,-.5"/>
<text text-anchor="middle" x="622.5" y="-7.5" font-family="FreeSans.ttf" font-size="10.00" fill="#000000">iterator</text>
</g>
<!-- Node18&#45;&gt;Node22 -->
<g id="edge26" class="edge">
<title>Node18&#45;&gt;Node22</title>
<path fill="none" stroke="#191970" d="M755.8231,-56.3733C728.9248,-47.0173 687.9389,-32.7614 658.5135,-22.5264"/>
<polygon fill="#191970" stroke="#191970" points="659.6095,-19.202 649.0147,-19.2225 657.3098,-25.8135 659.6095,-19.202"/>
</g>
<!-- Node23 -->
<g id="node24" class="node">
<title>Node23</title>
<polygon fill="none" stroke="#bfbfbf" points="667.5,-.5 667.5,-19.5 711.5,-19.5 711.5,-.5 667.5,-.5"/>
<text text-anchor="middle" x="689.5" y="-7.5" font-family="FreeSans.ttf" font-size="10.00" fill="#000000">limits</text>
</g>
<!-- Node18&#45;&gt;Node23 -->
<g id="edge27" class="edge">
<title>Node18&#45;&gt;Node23</title>
<path fill="none" stroke="#191970" d="M767.1264,-56.2455C752.5692,-47.5731 731.069,-34.7645 714.3848,-24.825"/>
<polygon fill="#191970" stroke="#191970" points="716.0683,-21.7539 705.6859,-19.6427 712.4856,-27.7676 716.0683,-21.7539"/>
</g>
<!-- Node24 -->
<g id="node25" class="node">
<title>Node24</title>
<polygon fill="none" stroke="#bfbfbf" points="730,-.5 730,-19.5 795,-19.5 795,-.5 730,-.5"/>
<text text-anchor="middle" x="762.5" y="-7.5" font-family="FreeSans.ttf" font-size="10.00" fill="#000000">stdexcept</text>
</g>
<!-- Node18&#45;&gt;Node24 -->
<g id="edge28" class="edge">
<title>Node18&#45;&gt;Node24</title>
<path fill="none" stroke="#191970" d="M779.8421,-56.2455C777.0416,-48.7776 773.091,-38.2427 769.6676,-29.1137"/>
<polygon fill="#191970" stroke="#191970" points="772.9045,-27.777 766.116,-19.6427 766.3501,-30.2349 772.9045,-27.777"/>
</g>
<!-- Node25 -->
<g id="node26" class="node">
<title>Node25</title>
<polygon fill="none" stroke="#bfbfbf" points="813,-.5 813,-19.5 882,-19.5 882,-.5 813,-.5"/>
<text text-anchor="middle" x="847.5" y="-7.5" font-family="FreeSans.ttf" font-size="10.00" fill="#000000">type_traits</text>
</g>
<!-- Node18&#45;&gt;Node25 -->
<g id="edge29" class="edge">
<title>Node18&#45;&gt;Node25</title>
<path fill="none" stroke="#191970" d="M794.6479,-56.2455C804.0087,-48.0549 817.5858,-36.1749 828.6349,-26.5069"/>
<polygon fill="#191970" stroke="#191970" points="831.2588,-28.8618 836.4798,-19.6427 826.6492,-23.5937 831.2588,-28.8618"/>
</g>
<!-- Node26 -->
<g id="node27" class="node">
<title>Node26</title>
<polygon fill="none" stroke="#bfbfbf" points="900,-.5 900,-19.5 945,-19.5 945,-.5 900,-.5"/>
<text text-anchor="middle" x="922.5" y="-7.5" font-family="FreeSans.ttf" font-size="10.00" fill="#000000">utility</text>
</g>
<!-- Node18&#45;&gt;Node26 -->
<g id="edge30" class="edge">
<title>Node18&#45;&gt;Node26</title>
<path fill="none" stroke="#191970" d="M807.395,-56.3733C830.2823,-47.1524 864.9836,-33.1721 890.3009,-22.9723"/>
<polygon fill="#191970" stroke="#191970" points="891.8697,-26.1137 899.8373,-19.1303 889.2538,-19.6208 891.8697,-26.1137"/>
</g>
<!-- Node28&#45;&gt;Node5 -->
<g id="edge37" class="edge">
<title>Node28&#45;&gt;Node5</title>
<path fill="none" stroke="#191970" d="M735.7431,-224.4862C722.3497,-197.6994 684.1282,-121.2565 666.1145,-85.2289"/>
<polygon fill="#191970" stroke="#191970" points="669.0166,-83.2069 661.4139,-75.8279 662.7556,-86.3374 669.0166,-83.2069"/>
</g>
<!-- Node28&#45;&gt;Node15 -->
<g id="edge49" class="edge">
<title>Node28&#45;&gt;Node15</title>
<path fill="none" stroke="#191970" d="M743.5749,-224.3403C748.678,-209.8834 760.2825,-182.7458 779.5,-168 796.1931,-155.1913 844.847,-142.4877 885.0276,-133.6868"/>
<polygon fill="#191970" stroke="#191970" points="885.9947,-137.0589 895.0359,-131.5356 884.5236,-130.2152 885.9947,-137.0589"/>
</g>
<!-- Node29 -->
<g id="node30" class="node">
<title>Node29</title>
<g id="a_node30"><a xlink:href="GeomVector3_8h.html" target="_top" xlink:title="iDynTree/Core/GeomVector3.h">
<polygon fill="none" stroke="#000000" points="788,-168.5 788,-187.5 951,-187.5 951,-168.5 788,-168.5"/>
<text text-anchor="middle" x="869.5" y="-175.5" font-family="FreeSans.ttf" font-size="10.00" fill="#000000">iDynTree/Core/GeomVector3.h</text>
</a>
</g>
</g>
<!-- Node28&#45;&gt;Node29 -->
<g id="edge38" class="edge">
<title>Node28&#45;&gt;Node29</title>
<path fill="none" stroke="#191970" d="M762.6759,-224.3733C783.4766,-215.3435 814.7917,-201.7494 838.1458,-191.6111"/>
<polygon fill="#191970" stroke="#191970" points="839.8343,-194.6938 847.6135,-187.5011 837.0468,-188.2727 839.8343,-194.6938"/>
</g>
<!-- Node30 -->
<g id="node31" class="node">
<title>Node30</title>
<g id="a_node31"><a xlink:href="RotationRaw_8h.html" target="_top" xlink:title="iDynTree/Core/RotationRaw.h">
<polygon fill="none" stroke="#000000" points="969.5,-168.5 969.5,-187.5 1127.5,-187.5 1127.5,-168.5 969.5,-168.5"/>
<text text-anchor="middle" x="1048.5" y="-175.5" font-family="FreeSans.ttf" font-size="10.00" fill="#000000">iDynTree/Core/RotationRaw.h</text>
</a>
</g>
</g>
<!-- Node28&#45;&gt;Node30 -->
<g id="edge40" class="edge">
<title>Node28&#45;&gt;Node30</title>
<path fill="none" stroke="#191970" d="M793.0971,-224.4369C846.5841,-214.712 929.4492,-199.6456 986.1933,-189.3285"/>
<polygon fill="#191970" stroke="#191970" points="986.9072,-192.7562 996.1198,-187.5237 985.655,-185.8691 986.9072,-192.7562"/>
</g>
<!-- Node29&#45;&gt;Node15 -->
<g id="edge39" class="edge">
<title>Node29&#45;&gt;Node15</title>
<path fill="none" stroke="#191970" d="M882.564,-168.2455C893.8562,-159.814 910.3845,-147.4729 923.5271,-137.6598"/>
<polygon fill="#191970" stroke="#191970" points="925.6669,-140.4301 931.5857,-131.6427 921.4789,-134.8211 925.6669,-140.4301"/>
</g>
<!-- Node30&#45;&gt;Node5 -->
<g id="edge48" class="edge">
<title>Node30&#45;&gt;Node5</title>
<path fill="none" stroke="#191970" d="M986.0952,-168.4791C940.0703,-160.7058 876.2114,-148.3398 821.5,-132 773.0086,-117.5179 718.9168,-94.4978 686.3099,-79.8268"/>
<polygon fill="#191970" stroke="#191970" points="687.4628,-76.5065 676.9103,-75.5604 684.5697,-82.8806 687.4628,-76.5065"/>
</g>
<!-- Node30&#45;&gt;Node31 -->
<g id="edge41" class="edge">
<title>Node30&#45;&gt;Node31</title>
<path fill="none" stroke="#191970" d="M1061.564,-168.2455C1072.8562,-159.814 1089.3845,-147.4729 1102.5271,-137.6598"/>
<polygon fill="#191970" stroke="#191970" points="1104.6669,-140.4301 1110.5857,-131.6427 1100.4789,-134.8211 1104.6669,-140.4301"/>
</g>
<!-- Node31&#45;&gt;Node5 -->
<g id="edge45" class="edge">
<title>Node31&#45;&gt;Node5</title>
<path fill="none" stroke="#191970" d="M1042.9415,-112.947C924.0765,-99.5882 715.5114,-76.1439 714.5,-76 706.1779,-74.8156 697.2151,-73.3598 688.8826,-71.9293"/>
<polygon fill="#191970" stroke="#191970" points="689.2154,-68.4343 678.7609,-70.1532 688.0055,-75.3289 689.2154,-68.4343"/>
</g>
<!-- Node31&#45;&gt;Node11 -->
<g id="edge47" class="edge">
<title>Node31&#45;&gt;Node11</title>
<path fill="none" stroke="#191970" d="M1146.5354,-112.3733C1168.2388,-103.3032 1200.9618,-89.6279 1225.255,-79.4755"/>
<polygon fill="#191970" stroke="#191970" points="1226.8881,-82.5865 1234.7652,-75.5011 1224.1889,-76.1278 1226.8881,-82.5865"/>
</g>
<!-- Node31&#45;&gt;Node16 -->
<g id="edge42" class="edge">
<title>Node31&#45;&gt;Node16</title>
<path fill="none" stroke="#191970" d="M1096.6826,-112.3733C1070.9668,-103.1419 1031.962,-89.1402 1003.5401,-78.9375"/>
<polygon fill="#191970" stroke="#191970" points="1004.5619,-75.5857 993.9674,-75.5011 1002.1968,-82.174 1004.5619,-75.5857"/>
</g>
<!-- Node31&#45;&gt;Node19 -->
<g id="edge43" class="edge">
<title>Node31&#45;&gt;Node19</title>
<path fill="none" stroke="#191970" d="M1122.2293,-112.477C1120.1316,-99.121 1115.0779,-74.4004 1104.5,-56 1098.1746,-44.9969 1088.6695,-34.6085 1080.1105,-26.4976"/>
<polygon fill="#191970" stroke="#191970" points="1082.3992,-23.8484 1072.6346,-19.7369 1077.7039,-29.0402 1082.3992,-23.8484"/>
</g>
<!-- Node31&#45;&gt;Node27 -->
<g id="edge44" class="edge">
<title>Node31&#45;&gt;Node27</title>
<path fill="none" stroke="#191970" d="M1114.2681,-112.2455C1106.6683,-104.2155 1095.7123,-92.6394 1086.6632,-83.0781"/>
<polygon fill="#191970" stroke="#191970" points="1089.042,-80.4998 1079.6261,-75.6427 1083.9579,-85.3115 1089.042,-80.4998"/>
</g>
<!-- Node32 -->
<g id="node33" class="node">
<title>Node32</title>
<polygon fill="none" stroke="#bfbfbf" points="1151.5,-56.5 1151.5,-75.5 1211.5,-75.5 1211.5,-56.5 1151.5,-56.5"/>
<text text-anchor="middle" x="1181.5" y="-63.5" font-family="FreeSans.ttf" font-size="10.00" fill="#000000">iostream</text>
</g>
<!-- Node31&#45;&gt;Node32 -->
<g id="edge46" class="edge">
<title>Node31&#45;&gt;Node32</title>
<path fill="none" stroke="#191970" d="M1133.6028,-112.2455C1142.0028,-104.1352 1154.1494,-92.4075 1164.1084,-82.7919"/>
<polygon fill="#191970" stroke="#191970" points="1166.75,-85.1066 1171.5129,-75.6427 1161.8878,-80.0707 1166.75,-85.1066"/>
</g>
<!-- Node34&#45;&gt;Node5 -->
<g id="edge57" class="edge">
<title>Node34&#45;&gt;Node5</title>
<path fill="none" stroke="#191970" d="M380.023,-224.2573C389.0017,-200.8842 415.0776,-141.3933 457.5,-112 484.2471,-93.4676 574.9256,-77.8647 624.1196,-70.5162"/>
<polygon fill="#191970" stroke="#191970" points="624.8498,-73.9466 634.2368,-69.034 623.835,-67.0206 624.8498,-73.9466"/>
</g>
</g>
</svg>
