<?xml version="1.0" encoding="UTF-8" standalone="no"?>
<!DOCTYPE svg PUBLIC "-//W3C//DTD SVG 1.1//EN"
 "http://www.w3.org/Graphics/SVG/1.1/DTD/svg11.dtd">
<!-- Generated by graphviz version 2.40.1 (20161225.0304)
 -->
<!-- Title: OsqpInterface.cpp Pages: 1 -->
<svg width="1823pt" height="554pt"
 viewBox="0.00 0.00 1823.00 554.00" xmlns="http://www.w3.org/2000/svg" xmlns:xlink="http://www.w3.org/1999/xlink">
<g id="graph0" class="graph" transform="scale(1 1) rotate(0) translate(4 550)">
<title>OsqpInterface.cpp</title>
<!-- Node0 -->
<g id="node1" class="node">
<title>Node0</title>
<polygon fill="#bfbfbf" stroke="#000000" points="1069.5,-526.5 1069.5,-545.5 1174.5,-545.5 1174.5,-526.5 1069.5,-526.5"/>
<text text-anchor="middle" x="1122" y="-533.5" font-family="FreeSans.ttf" font-size="10.00" fill="#000000">OsqpInterface.cpp</text>
</g>
<!-- Node1 -->
<g id="node2" class="node">
<title>Node1</title>
<g id="a_node2"><a xlink:href="OsqpInterface_8h.html" target="_top" xlink:title="iDynTree/Optimizers\l/OsqpInterface.h">
<polygon fill="none" stroke="#000000" points="102,-459.5 102,-489.5 218,-489.5 218,-459.5 102,-459.5"/>
<text text-anchor="start" x="110" y="-477.5" font-family="FreeSans.ttf" font-size="10.00" fill="#000000">iDynTree/Optimizers</text>
<text text-anchor="middle" x="160" y="-466.5" font-family="FreeSans.ttf" font-size="10.00" fill="#000000">/OsqpInterface.h</text>
</a>
</g>
</g>
<!-- Node0&#45;&gt;Node1 -->
<g id="edge1" class="edge">
<title>Node0&#45;&gt;Node1</title>
<path fill="none" stroke="#191970" d="M1069.0423,-535.496C932.4467,-533.7026 557.1838,-525.646 247,-490 240.8986,-489.2988 234.578,-488.4379 228.256,-487.4844"/>
<polygon fill="#191970" stroke="#191970" points="228.7752,-484.0231 218.3515,-485.9194 227.6827,-490.9373 228.7752,-484.0231"/>
</g>
<!-- Node6 -->
<g id="node7" class="node">
<title>Node6</title>
<polygon fill="none" stroke="#bfbfbf" points="198.5,-280.5 198.5,-299.5 245.5,-299.5 245.5,-280.5 198.5,-280.5"/>
<text text-anchor="middle" x="222" y="-287.5" font-family="FreeSans.ttf" font-size="10.00" fill="#000000">vector</text>
</g>
<!-- Node0&#45;&gt;Node6 -->
<g id="edge81" class="edge">
<title>Node0&#45;&gt;Node6</title>
<path fill="none" stroke="#191970" d="M1069.3313,-534.7773C890.4685,-530.4088 315.7087,-514.5145 285,-490 229.3689,-445.59 264.4029,-403.2262 241,-336 237.8841,-327.0493 233.9502,-317.3239 230.4713,-309.1308"/>
<polygon fill="#191970" stroke="#191970" points="233.592,-307.5297 226.4039,-299.7462 227.1693,-310.3134 233.592,-307.5297"/>
</g>
<!-- Node8 -->
<g id="node9" class="node">
<title>Node8</title>
<polygon fill="none" stroke="#bfbfbf" points="327.5,-398 327.5,-417 404.5,-417 404.5,-398 327.5,-398"/>
<text text-anchor="middle" x="366" y="-405" font-family="FreeSans.ttf" font-size="10.00" fill="#000000">Eigen/Dense</text>
</g>
<!-- Node0&#45;&gt;Node8 -->
<g id="edge10" class="edge">
<title>Node0&#45;&gt;Node8</title>
<path fill="none" stroke="#191970" d="M1069.4186,-530.8782C998.3796,-523.3966 875.9211,-508.3533 835,-490 815.1127,-481.0804 817.1624,-467.279 797,-459 640.888,-394.8981 584.7317,-454.828 419,-423 414.3044,-422.0982 409.4267,-420.9595 404.6162,-419.7104"/>
<polygon fill="#191970" stroke="#191970" points="405.4868,-416.3199 394.9159,-417.0319 403.6236,-423.0674 405.4868,-416.3199"/>
</g>
<!-- Node9 -->
<g id="node10" class="node">
<title>Node9</title>
<polygon fill="none" stroke="#bfbfbf" points="708,-465 708,-484 788,-484 788,-465 708,-465"/>
<text text-anchor="middle" x="748" y="-472" font-family="FreeSans.ttf" font-size="10.00" fill="#000000">Eigen/Sparse</text>
</g>
<!-- Node0&#45;&gt;Node9 -->
<g id="edge11" class="edge">
<title>Node0&#45;&gt;Node9</title>
<path fill="none" stroke="#191970" d="M1069.2289,-530.6536C1005.4717,-523.6803 895.159,-509.9679 802,-490 797.534,-489.0428 792.895,-487.9171 788.2958,-486.7166"/>
<polygon fill="#191970" stroke="#191970" points="788.9421,-483.265 778.3732,-484.0055 787.0971,-490.0175 788.9421,-483.265"/>
</g>
<!-- Node10 -->
<g id="node11" class="node">
<title>Node10</title>
<g id="a_node11"><a xlink:href="EigenHelpers_8h.html" target="_top" xlink:title="iDynTree/Core/EigenHelpers.h">
<polygon fill="none" stroke="#000000" points="844.5,-465 844.5,-484 1005.5,-484 1005.5,-465 844.5,-465"/>
<text text-anchor="middle" x="925" y="-472" font-family="FreeSans.ttf" font-size="10.00" fill="#000000">iDynTree/Core/EigenHelpers.h</text>
</a>
</g>
</g>
<!-- Node0&#45;&gt;Node10 -->
<g id="edge12" class="edge">
<title>Node0&#45;&gt;Node10</title>
<path fill="none" stroke="#191970" d="M1091.2188,-526.3906C1057.2451,-515.7846 1002.4396,-498.6753 965.1228,-487.0257"/>
<polygon fill="#191970" stroke="#191970" points="966.1538,-483.681 955.5651,-484.0419 964.0677,-490.3629 966.1538,-483.681"/>
</g>
<!-- Node11 -->
<g id="node12" class="node">
<title>Node11</title>
<g id="a_node12"><a xlink:href="VectorDynSize_8h.html" target="_top" xlink:title="iDynTree/Core/VectorDynSize.h">
<polygon fill="none" stroke="#000000" points="1308.5,-224.5 1308.5,-243.5 1475.5,-243.5 1475.5,-224.5 1308.5,-224.5"/>
<text text-anchor="middle" x="1392" y="-231.5" font-family="FreeSans.ttf" font-size="10.00" fill="#000000">iDynTree/Core/VectorDynSize.h</text>
</a>
</g>
</g>
<!-- Node0&#45;&gt;Node11 -->
<g id="edge75" class="edge">
<title>Node0&#45;&gt;Node11</title>
<path fill="none" stroke="#191970" d="M1170.9497,-526.4504C1229.2938,-511.8931 1319,-478.041 1319,-407.5 1319,-407.5 1319,-407.5 1319,-346 1319,-306.8965 1350.6171,-270.7535 1372.2361,-250.6105"/>
<polygon fill="#191970" stroke="#191970" points="1374.8346,-252.9817 1379.9455,-243.7011 1370.1627,-247.7688 1374.8346,-252.9817"/>
</g>
<!-- Node13 -->
<g id="node14" class="node">
<title>Node13</title>
<polygon fill="none" stroke="#bfbfbf" points="967,-.5 967,-19.5 1019,-19.5 1019,-.5 967,-.5"/>
<text text-anchor="middle" x="993" y="-7.5" font-family="FreeSans.ttf" font-size="10.00" fill="#000000">cassert</text>
</g>
<!-- Node0&#45;&gt;Node13 -->
<g id="edge78" class="edge">
<title>Node0&#45;&gt;Node13</title>
<path fill="none" stroke="#191970" d="M1174.6424,-531.0306C1287.1771,-518.9505 1541,-483.3018 1541,-407.5 1541,-407.5 1541,-407.5 1541,-122 1541,-69.5737 1151.0307,-25.8969 1029.0307,-13.5156"/>
<polygon fill="#191970" stroke="#191970" points="1029.3625,-10.0314 1019.0625,-12.5134 1028.6622,-16.9963 1029.3625,-10.0314"/>
</g>
<!-- Node16 -->
<g id="node17" class="node">
<title>Node16</title>
<polygon fill="none" stroke="#bfbfbf" points="1313.5,-.5 1313.5,-19.5 1366.5,-19.5 1366.5,-.5 1313.5,-.5"/>
<text text-anchor="middle" x="1340" y="-7.5" font-family="FreeSans.ttf" font-size="10.00" fill="#000000">iterator</text>
</g>
<!-- Node0&#45;&gt;Node16 -->
<g id="edge82" class="edge">
<title>Node0&#45;&gt;Node16</title>
<path fill="none" stroke="#191970" d="M1174.7576,-532.2398C1258.0735,-525.7583 1415.9939,-511.1145 1468,-490 1524.9523,-466.8774 1579,-468.9672 1579,-407.5 1579,-407.5 1579,-407.5 1579,-122 1579,-77.8695 1443.7037,-36.7434 1376.7027,-19.0827"/>
<polygon fill="#191970" stroke="#191970" points="1377.5104,-15.6764 1366.9518,-16.5512 1375.7513,-22.4518 1377.5104,-15.6764"/>
</g>
<!-- Node22 -->
<g id="node23" class="node">
<title>Node22</title>
<g id="a_node23"><a xlink:href="Utils_8h.html" target="_top" xlink:title="iDynTree/Core/Utils.h">
<polygon fill="none" stroke="#000000" points="341.5,-56.5 341.5,-75.5 460.5,-75.5 460.5,-56.5 341.5,-56.5"/>
<text text-anchor="middle" x="401" y="-63.5" font-family="FreeSans.ttf" font-size="10.00" fill="#000000">iDynTree/Core/Utils.h</text>
</a>
</g>
</g>
<!-- Node0&#45;&gt;Node22 -->
<g id="edge77" class="edge">
<title>Node0&#45;&gt;Node22</title>
<path fill="none" stroke="#191970" d="M1069.2657,-533.3566C887.6209,-523.5592 299,-485.7718 299,-407.5 299,-407.5 299,-407.5 299,-178 299,-133.6687 343.2224,-99.1591 373.4309,-80.7571"/>
<polygon fill="#191970" stroke="#191970" points="375.4297,-83.6426 382.2916,-75.5702 371.8934,-77.6016 375.4297,-83.6426"/>
</g>
<!-- Node25 -->
<g id="node26" class="node">
<title>Node25</title>
<g id="a_node26"><a xlink:href="MatrixDynSize_8h.html" target="_top" xlink:title="iDynTree/Core/MatrixDynSize.h">
<polygon fill="none" stroke="#000000" points="1346.5,-398 1346.5,-417 1513.5,-417 1513.5,-398 1346.5,-398"/>
<text text-anchor="middle" x="1430" y="-405" font-family="FreeSans.ttf" font-size="10.00" fill="#000000">iDynTree/Core/MatrixDynSize.h</text>
</a>
</g>
</g>
<!-- Node0&#45;&gt;Node25 -->
<g id="edge76" class="edge">
<title>Node0&#45;&gt;Node25</title>
<path fill="none" stroke="#191970" d="M1174.6459,-531.7057C1218.8217,-526.457 1282.6004,-514.953 1333,-490 1365.9633,-473.6798 1397.0519,-443.7257 1414.7791,-424.7531"/>
<polygon fill="#191970" stroke="#191970" points="1417.5787,-426.8776 1421.734,-417.1315 1412.408,-422.1591 1417.5787,-426.8776"/>
</g>
<!-- Node37 -->
<g id="node38" class="node">
<title>Node37</title>
<polygon fill="none" stroke="#bfbfbf" points="1607.5,-465 1607.5,-484 1664.5,-484 1664.5,-465 1607.5,-465"/>
<text text-anchor="middle" x="1636" y="-472" font-family="FreeSans.ttf" font-size="10.00" fill="#000000">ostream</text>
</g>
<!-- Node0&#45;&gt;Node37 -->
<g id="edge79" class="edge">
<title>Node0&#45;&gt;Node37</title>
<path fill="none" stroke="#191970" d="M1174.5464,-532.521C1280.0897,-525.262 1514.4533,-507.7017 1593,-490 1596.2514,-489.2673 1599.5933,-488.3577 1602.9085,-487.3492"/>
<polygon fill="#191970" stroke="#191970" points="1604.2744,-490.5834 1612.657,-484.1041 1602.0634,-483.9417 1604.2744,-490.5834"/>
</g>
<!-- Node38 -->
<g id="node39" class="node">
<title>Node38</title>
<polygon fill="none" stroke="#bfbfbf" points="1683,-465 1683,-484 1815,-484 1815,-465 1683,-465"/>
<text text-anchor="middle" x="1749" y="-472" font-family="FreeSans.ttf" font-size="10.00" fill="#000000">OsqpEigen/OsqpEigen.h</text>
</g>
<!-- Node0&#45;&gt;Node38 -->
<g id="edge80" class="edge">
<title>Node0&#45;&gt;Node38</title>
<path fill="none" stroke="#191970" d="M1174.6532,-533.6739C1272.9792,-528.8718 1491.0308,-516.0592 1673,-490 1680.6856,-488.8994 1688.7643,-487.5083 1696.6693,-486.0134"/>
<polygon fill="#191970" stroke="#191970" points="1697.406,-489.4357 1706.5465,-484.0784 1696.0602,-482.5663 1697.406,-489.4357"/>
</g>
<!-- Node2 -->
<g id="node3" class="node">
<title>Node2</title>
<polygon fill="none" stroke="#bfbfbf" points="0,-280.5 0,-299.5 58,-299.5 58,-280.5 0,-280.5"/>
<text text-anchor="middle" x="29" y="-287.5" font-family="FreeSans.ttf" font-size="10.00" fill="#000000">memory</text>
</g>
<!-- Node1&#45;&gt;Node2 -->
<g id="edge2" class="edge">
<title>Node1&#45;&gt;Node2</title>
<path fill="none" stroke="#191970" d="M128.0543,-459.4468C111.2522,-450.4732 91.0731,-437.924 76,-423 51.0255,-398.2727 44.9812,-389.3852 34,-356 29.0631,-340.9907 27.9871,-323.0646 28.0487,-309.6849"/>
<polygon fill="#191970" stroke="#191970" points="31.5477,-309.7666 28.3083,-299.6791 24.5501,-309.585 31.5477,-309.7666"/>
</g>
<!-- Node3 -->
<g id="node4" class="node">
<title>Node3</title>
<polygon fill="none" stroke="#bfbfbf" points="1162,-56.5 1162,-75.5 1206,-75.5 1206,-56.5 1162,-56.5"/>
<text text-anchor="middle" x="1184" y="-63.5" font-family="FreeSans.ttf" font-size="10.00" fill="#000000">string</text>
</g>
<!-- Node1&#45;&gt;Node3 -->
<g id="edge3" class="edge">
<title>Node1&#45;&gt;Node3</title>
<path fill="none" stroke="#191970" d="M218.0596,-473.867C372.3221,-471.6563 783.8219,-462.1165 830,-423 856.8961,-400.2169 849,-381.2487 849,-346 849,-346 849,-346 849,-234 849,-99.3832 1067.8213,-72.6255 1151.7582,-67.3135"/>
<polygon fill="#191970" stroke="#191970" points="1151.9759,-70.8068 1161.7603,-66.7428 1151.5771,-63.8182 1151.9759,-70.8068"/>
</g>
<!-- Node4 -->
<g id="node5" class="node">
<title>Node4</title>
<g id="a_node5"><a xlink:href="Optimizer_8h.html" target="_top" xlink:title="iDynTree/Optimizer.h">
<polygon fill="none" stroke="#000000" points="85.5,-398 85.5,-417 204.5,-417 204.5,-398 85.5,-398"/>
<text text-anchor="middle" x="145" y="-405" font-family="FreeSans.ttf" font-size="10.00" fill="#000000">iDynTree/Optimizer.h</text>
</a>
</g>
</g>
<!-- Node1&#45;&gt;Node4 -->
<g id="edge4" class="edge">
<title>Node1&#45;&gt;Node4</title>
<path fill="none" stroke="#191970" d="M156.5963,-459.2967C154.4634,-449.7699 151.693,-437.3954 149.3949,-427.1306"/>
<polygon fill="#191970" stroke="#191970" points="152.7394,-426.0487 147.1392,-417.055 145.9085,-427.5781 152.7394,-426.0487"/>
</g>
<!-- Node4&#45;&gt;Node2 -->
<g id="edge5" class="edge">
<title>Node4&#45;&gt;Node2</title>
<path fill="none" stroke="#191970" d="M113.1986,-397.9589C91.858,-389.9967 64.6957,-376.5826 48,-356 37.3313,-342.8476 32.6524,-323.9736 30.6008,-309.7754"/>
<polygon fill="#191970" stroke="#191970" points="34.0509,-309.1355 29.4545,-299.5897 27.0949,-309.9184 34.0509,-309.1355"/>
</g>
<!-- Node5 -->
<g id="node6" class="node">
<title>Node5</title>
<g id="a_node6"><a xlink:href="OptimizationProblem_8h.html" target="_top" xlink:title="iDynTree/OptimizationProblem.h">
<polygon fill="none" stroke="#000000" points="57.5,-336.5 57.5,-355.5 232.5,-355.5 232.5,-336.5 57.5,-336.5"/>
<text text-anchor="middle" x="145" y="-343.5" font-family="FreeSans.ttf" font-size="10.00" fill="#000000">iDynTree/OptimizationProblem.h</text>
</a>
</g>
</g>
<!-- Node4&#45;&gt;Node5 -->
<g id="edge6" class="edge">
<title>Node4&#45;&gt;Node5</title>
<path fill="none" stroke="#191970" d="M145,-397.8906C145,-389.3657 145,-376.6392 145,-365.9235"/>
<polygon fill="#191970" stroke="#191970" points="148.5001,-365.7448 145,-355.7449 141.5001,-365.7449 148.5001,-365.7448"/>
</g>
<!-- Node5&#45;&gt;Node2 -->
<g id="edge8" class="edge">
<title>Node5&#45;&gt;Node2</title>
<path fill="none" stroke="#191970" d="M125.0589,-336.3733C106.5214,-327.4241 78.6972,-313.9917 57.7587,-303.8835"/>
<polygon fill="#191970" stroke="#191970" points="59.2081,-300.6967 48.6809,-299.5011 56.1648,-307.0006 59.2081,-300.6967"/>
</g>
<!-- Node5&#45;&gt;Node6 -->
<g id="edge7" class="edge">
<title>Node5&#45;&gt;Node6</title>
<path fill="none" stroke="#191970" d="M158.4124,-336.2455C170.0057,-327.814 186.9748,-315.4729 200.4678,-305.6598"/>
<polygon fill="#191970" stroke="#191970" points="202.7126,-308.355 208.7413,-299.6427 198.5953,-302.6938 202.7126,-308.355"/>
</g>
<!-- Node7 -->
<g id="node8" class="node">
<title>Node7</title>
<polygon fill="none" stroke="#bfbfbf" points="374.5,-.5 374.5,-19.5 427.5,-19.5 427.5,-.5 374.5,-.5"/>
<text text-anchor="middle" x="401" y="-7.5" font-family="FreeSans.ttf" font-size="10.00" fill="#000000">cstddef</text>
</g>
<!-- Node5&#45;&gt;Node7 -->
<g id="edge9" class="edge">
<title>Node5&#45;&gt;Node7</title>
<path fill="none" stroke="#191970" d="M146.8626,-336.455C150.4572,-317.1751 158,-272.1712 158,-234 158,-234 158,-234 158,-122 158,-77.1525 296.2409,-36.2415 364.1864,-18.8422"/>
<polygon fill="#191970" stroke="#191970" points="365.2255,-22.1898 374.0663,-16.3511 363.514,-15.4022 365.2255,-22.1898"/>
</g>
<!-- Node10&#45;&gt;Node8 -->
<g id="edge13" class="edge">
<title>Node10&#45;&gt;Node8</title>
<path fill="none" stroke="#191970" d="M870.8435,-464.9499C857.5172,-462.7973 843.2654,-460.6608 830,-459 648.0544,-436.2207 599.2052,-456.8996 419,-423 414.301,-422.116 409.4213,-420.9882 404.6096,-419.745"/>
<polygon fill="#191970" stroke="#191970" points="405.4787,-416.3541 394.9082,-417.0725 403.6195,-423.1027 405.4787,-416.3541"/>
</g>
<!-- Node10&#45;&gt;Node11 -->
<g id="edge14" class="edge">
<title>Node10&#45;&gt;Node11</title>
<path fill="none" stroke="#191970" d="M943.5951,-464.9237C1015.8673,-427.7043 1278.3284,-292.5396 1364.4313,-248.1976"/>
<polygon fill="#191970" stroke="#191970" points="1366.0639,-251.2938 1373.3517,-243.6037 1362.8589,-245.0705 1366.0639,-251.2938"/>
</g>
<!-- Node21 -->
<g id="node22" class="node">
<title>Node21</title>
<g id="a_node22"><a xlink:href="VectorFixSize_8h.html" target="_top" xlink:title="iDynTree/Core/VectorFixSize.h">
<polygon fill="none" stroke="#000000" points="726.5,-112.5 726.5,-131.5 887.5,-131.5 887.5,-112.5 726.5,-112.5"/>
<text text-anchor="middle" x="807" y="-119.5" font-family="FreeSans.ttf" font-size="10.00" fill="#000000">iDynTree/Core/VectorFixSize.h</text>
</a>
</g>
</g>
<!-- Node10&#45;&gt;Node21 -->
<g id="edge26" class="edge">
<title>Node10&#45;&gt;Node21</title>
<path fill="none" stroke="#191970" d="M925,-464.8281C925,-443.4175 925,-390.395 925,-346 925,-346 925,-346 925,-290 925,-223.6273 862.562,-164.9211 828.5229,-137.8481"/>
<polygon fill="#191970" stroke="#191970" points="830.5851,-135.0182 820.5361,-131.6612 826.2983,-140.5521 830.5851,-135.0182"/>
</g>
<!-- Node10&#45;&gt;Node22 -->
<g id="edge74" class="edge">
<title>Node10&#45;&gt;Node22</title>
<path fill="none" stroke="#191970" d="M870.3302,-464.972C857.1484,-462.843 843.0904,-460.7117 830,-459 749.1833,-448.4324 524.8655,-478.3094 465,-423 366.8043,-332.2776 387.4662,-146.4797 397.3769,-85.7126"/>
<polygon fill="#191970" stroke="#191970" points="400.8738,-86.0298 399.1245,-75.5804 393.9757,-84.84 400.8738,-86.0298"/>
</g>
<!-- Node10&#45;&gt;Node25 -->
<g id="edge34" class="edge">
<title>Node10&#45;&gt;Node25</title>
<path fill="none" stroke="#191970" d="M996.8179,-464.9717C1089.5255,-452.6719 1250.4743,-431.3183 1347.9203,-418.3898"/>
<polygon fill="#191970" stroke="#191970" points="1348.5687,-421.8345 1358.0215,-417.0496 1347.648,-414.8953 1348.5687,-421.8345"/>
</g>
<!-- Node26 -->
<g id="node27" class="node">
<title>Node26</title>
<g id="a_node27"><a xlink:href="MatrixFixSize_8h.html" target="_top" xlink:title="iDynTree/Core/MatrixFixSize.h">
<polygon fill="none" stroke="#000000" points="547.5,-112.5 547.5,-131.5 708.5,-131.5 708.5,-112.5 547.5,-112.5"/>
<text text-anchor="middle" x="628" y="-119.5" font-family="FreeSans.ttf" font-size="10.00" fill="#000000">iDynTree/Core/MatrixFixSize.h</text>
</a>
</g>
</g>
<!-- Node10&#45;&gt;Node26 -->
<g id="edge36" class="edge">
<title>Node10&#45;&gt;Node26</title>
<path fill="none" stroke="#191970" d="M870.0709,-464.9989C856.9619,-462.8808 843.0013,-460.7475 830,-459 754.6993,-448.8787 540.8174,-479.4821 490,-423 465.4427,-395.7053 416.9588,-353.0403 556,-168 566.2334,-154.3811 581.7752,-143.7238 595.8031,-136.1118"/>
<polygon fill="#191970" stroke="#191970" points="597.42,-139.2161 604.7318,-131.5488 594.2345,-132.9829 597.42,-139.2161"/>
</g>
<!-- Node28 -->
<g id="node29" class="node">
<title>Node28</title>
<g id="a_node29"><a xlink:href="SpatialMotionVector_8h.html" target="_top" xlink:title="iDynTree/Core/SpatialMotion\lVector.h">
<polygon fill="none" stroke="#000000" points="499.5,-392.5 499.5,-422.5 654.5,-422.5 654.5,-392.5 499.5,-392.5"/>
<text text-anchor="start" x="507.5" y="-410.5" font-family="FreeSans.ttf" font-size="10.00" fill="#000000">iDynTree/Core/SpatialMotion</text>
<text text-anchor="middle" x="577" y="-399.5" font-family="FreeSans.ttf" font-size="10.00" fill="#000000">Vector.h</text>
</a>
</g>
</g>
<!-- Node10&#45;&gt;Node28 -->
<g id="edge43" class="edge">
<title>Node10&#45;&gt;Node28</title>
<path fill="none" stroke="#191970" d="M875.5097,-464.9717C820.7141,-454.422 731.3232,-437.2116 664.6223,-424.3698"/>
<polygon fill="#191970" stroke="#191970" points="665.0186,-420.8819 654.5373,-422.4281 663.6952,-427.7557 665.0186,-420.8819"/>
</g>
<!-- Node35 -->
<g id="node36" class="node">
<title>Node35</title>
<g id="a_node36"><a xlink:href="SpatialForceVector_8h.html" target="_top" xlink:title="iDynTree/Core/SpatialForce\lVector.h">
<polygon fill="none" stroke="#000000" points="673,-392.5 673,-422.5 821,-422.5 821,-392.5 673,-392.5"/>
<text text-anchor="start" x="681" y="-410.5" font-family="FreeSans.ttf" font-size="10.00" fill="#000000">iDynTree/Core/SpatialForce</text>
<text text-anchor="middle" x="747" y="-399.5" font-family="FreeSans.ttf" font-size="10.00" fill="#000000">Vector.h</text>
</a>
</g>
</g>
<!-- Node10&#45;&gt;Node35 -->
<g id="edge65" class="edge">
<title>Node10&#45;&gt;Node35</title>
<path fill="none" stroke="#191970" d="M899.4969,-464.9005C872.724,-454.8231 829.9551,-438.7247 796.5145,-426.1375"/>
<polygon fill="#191970" stroke="#191970" points="797.5005,-422.7689 786.9086,-422.5218 795.0346,-429.3202 797.5005,-422.7689"/>
</g>
<!-- Node36 -->
<g id="node37" class="node">
<title>Node36</title>
<g id="a_node37"><a xlink:href="Transform_8h.html" target="_top" xlink:title="iDynTree/Core/Transform.h">
<polygon fill="none" stroke="#000000" points="953,-336.5 953,-355.5 1099,-355.5 1099,-336.5 953,-336.5"/>
<text text-anchor="middle" x="1026" y="-343.5" font-family="FreeSans.ttf" font-size="10.00" fill="#000000">iDynTree/Core/Transform.h</text>
</a>
</g>
</g>
<!-- Node10&#45;&gt;Node36 -->
<g id="edge69" class="edge">
<title>Node10&#45;&gt;Node36</title>
<path fill="none" stroke="#191970" d="M932.5914,-464.8416C949.4811,-443.3533 990.3776,-391.3216 1012.0238,-363.7817"/>
<polygon fill="#191970" stroke="#191970" points="1014.8926,-365.7955 1018.3205,-355.7705 1009.3891,-361.4697 1014.8926,-365.7955"/>
</g>
<!-- Node11&#45;&gt;Node3 -->
<g id="edge25" class="edge">
<title>Node11&#45;&gt;Node3</title>
<path fill="none" stroke="#191970" d="M1407.618,-224.4791C1419.2472,-216.3972 1434.2332,-203.6339 1441,-188 1456.0008,-153.3424 1434.3631,-133.0364 1403,-112 1372.7517,-91.7113 1269.3317,-76.4661 1216.1515,-69.7601"/>
<polygon fill="#191970" stroke="#191970" points="1216.5756,-66.286 1206.2219,-68.5338 1215.7175,-73.2332 1216.5756,-66.286"/>
</g>
<!-- Node12 -->
<g id="node13" class="node">
<title>Node12</title>
<g id="a_node13"><a xlink:href="Span_8h.html" target="_top" xlink:title="iDynTree/Core/Span.h">
<polygon fill="none" stroke="#000000" points="746.5,-56.5 746.5,-75.5 867.5,-75.5 867.5,-56.5 746.5,-56.5"/>
<text text-anchor="middle" x="807" y="-63.5" font-family="FreeSans.ttf" font-size="10.00" fill="#000000">iDynTree/Core/Span.h</text>
</a>
</g>
</g>
<!-- Node11&#45;&gt;Node12 -->
<g id="edge15" class="edge">
<title>Node11&#45;&gt;Node12</title>
<path fill="none" stroke="#191970" d="M1386.0155,-224.1078C1376.5267,-209.3474 1356.5635,-181.8185 1332,-168 1255.0601,-124.7164 1002.7585,-89.4568 878.0598,-74.1822"/>
<polygon fill="#191970" stroke="#191970" points="878.2015,-70.6737 867.8523,-72.9416 877.3569,-77.6226 878.2015,-70.6737"/>
</g>
<!-- Node12&#45;&gt;Node7 -->
<g id="edge19" class="edge">
<title>Node12&#45;&gt;Node7</title>
<path fill="none" stroke="#191970" d="M746.1139,-57.5386C742.3532,-57.0175 738.6253,-56.5014 735,-56 627.023,-41.0661 499.3951,-23.5172 437.8456,-15.0605"/>
<polygon fill="#191970" stroke="#191970" points="438.2268,-11.5801 427.8435,-13.6864 437.274,-18.515 438.2268,-11.5801"/>
</g>
<!-- Node12&#45;&gt;Node13 -->
<g id="edge16" class="edge">
<title>Node12&#45;&gt;Node13</title>
<path fill="none" stroke="#191970" d="M838.9745,-56.3733C871.8729,-46.4684 923.0125,-31.0715 957.2344,-20.7681"/>
<polygon fill="#191970" stroke="#191970" points="958.2741,-24.1104 966.8404,-17.876 956.256,-17.4076 958.2741,-24.1104"/>
</g>
<!-- Node14 -->
<g id="node15" class="node">
<title>Node14</title>
<polygon fill="none" stroke="#bfbfbf" points="885,-.5 885,-19.5 949,-19.5 949,-.5 885,-.5"/>
<text text-anchor="middle" x="917" y="-7.5" font-family="FreeSans.ttf" font-size="10.00" fill="#000000">algorithm</text>
</g>
<!-- Node12&#45;&gt;Node14 -->
<g id="edge17" class="edge">
<title>Node12&#45;&gt;Node14</title>
<path fill="none" stroke="#191970" d="M826.1605,-56.2455C843.5111,-47.4125 869.2901,-34.2887 888.9583,-24.2758"/>
<polygon fill="#191970" stroke="#191970" points="890.7353,-27.2986 898.059,-19.6427 887.5595,-21.0605 890.7353,-27.2986"/>
</g>
<!-- Node15 -->
<g id="node16" class="node">
<title>Node15</title>
<polygon fill="none" stroke="#bfbfbf" points="529,-.5 529,-19.5 571,-19.5 571,-.5 529,-.5"/>
<text text-anchor="middle" x="550" y="-7.5" font-family="FreeSans.ttf" font-size="10.00" fill="#000000">array</text>
</g>
<!-- Node12&#45;&gt;Node15 -->
<g id="edge18" class="edge">
<title>Node12&#45;&gt;Node15</title>
<path fill="none" stroke="#191970" d="M750.1168,-56.4581C706.1877,-48.638 643.7624,-36.5485 580.8918,-20.0074"/>
<polygon fill="#191970" stroke="#191970" points="581.7726,-16.62 571.2084,-17.4248 579.9687,-23.3836 581.7726,-16.62"/>
</g>
<!-- Node12&#45;&gt;Node16 -->
<g id="edge20" class="edge">
<title>Node12&#45;&gt;Node16</title>
<path fill="none" stroke="#191970" d="M867.623,-59.6306C979.0362,-47.9249 1213.193,-23.3231 1303.4476,-13.8404"/>
<polygon fill="#191970" stroke="#191970" points="1303.8953,-17.3127 1313.4748,-12.7869 1303.1638,-10.351 1303.8953,-17.3127"/>
</g>
<!-- Node17 -->
<g id="node18" class="node">
<title>Node17</title>
<polygon fill="none" stroke="#bfbfbf" points="589,-.5 589,-19.5 633,-19.5 633,-.5 589,-.5"/>
<text text-anchor="middle" x="611" y="-7.5" font-family="FreeSans.ttf" font-size="10.00" fill="#000000">limits</text>
</g>
<!-- Node12&#45;&gt;Node17 -->
<g id="edge21" class="edge">
<title>Node12&#45;&gt;Node17</title>
<path fill="none" stroke="#191970" d="M771.1536,-56.4521C739.6786,-47.9695 692.4404,-35.0006 642.9175,-20.201"/>
<polygon fill="#191970" stroke="#191970" points="643.9017,-16.8422 633.3176,-17.3174 641.888,-23.5463 643.9017,-16.8422"/>
</g>
<!-- Node18 -->
<g id="node19" class="node">
<title>Node18</title>
<polygon fill="none" stroke="#bfbfbf" points="651.5,-.5 651.5,-19.5 716.5,-19.5 716.5,-.5 651.5,-.5"/>
<text text-anchor="middle" x="684" y="-7.5" font-family="FreeSans.ttf" font-size="10.00" fill="#000000">stdexcept</text>
</g>
<!-- Node12&#45;&gt;Node18 -->
<g id="edge22" class="edge">
<title>Node12&#45;&gt;Node18</title>
<path fill="none" stroke="#191970" d="M785.8555,-56.3733C766.1108,-47.3838 736.4302,-33.8706 714.1945,-23.7471"/>
<polygon fill="#191970" stroke="#191970" points="715.42,-20.4594 704.8685,-19.5011 712.5194,-26.8302 715.42,-20.4594"/>
</g>
<!-- Node19 -->
<g id="node20" class="node">
<title>Node19</title>
<polygon fill="none" stroke="#bfbfbf" points="734.5,-.5 734.5,-19.5 803.5,-19.5 803.5,-.5 734.5,-.5"/>
<text text-anchor="middle" x="769" y="-7.5" font-family="FreeSans.ttf" font-size="10.00" fill="#000000">type_traits</text>
</g>
<!-- Node12&#45;&gt;Node19 -->
<g id="edge23" class="edge">
<title>Node12&#45;&gt;Node19</title>
<path fill="none" stroke="#191970" d="M800.3809,-56.2455C795.0954,-48.4564 787.5459,-37.3308 781.1762,-27.9439"/>
<polygon fill="#191970" stroke="#191970" points="784.0545,-25.9522 775.5432,-19.6427 778.2621,-29.8827 784.0545,-25.9522"/>
</g>
<!-- Node20 -->
<g id="node21" class="node">
<title>Node20</title>
<polygon fill="none" stroke="#bfbfbf" points="821.5,-.5 821.5,-19.5 866.5,-19.5 866.5,-.5 821.5,-.5"/>
<text text-anchor="middle" x="844" y="-7.5" font-family="FreeSans.ttf" font-size="10.00" fill="#000000">utility</text>
</g>
<!-- Node12&#45;&gt;Node20 -->
<g id="edge24" class="edge">
<title>Node12&#45;&gt;Node20</title>
<path fill="none" stroke="#191970" d="M813.4449,-56.2455C818.5382,-48.5367 825.7908,-37.5598 831.952,-28.2348"/>
<polygon fill="#191970" stroke="#191970" points="835.0365,-29.9155 837.6289,-19.6427 829.1962,-26.0566 835.0365,-29.9155"/>
</g>
<!-- Node21&#45;&gt;Node3 -->
<g id="edge30" class="edge">
<title>Node21&#45;&gt;Node3</title>
<path fill="none" stroke="#191970" d="M871.3802,-112.4369C952.8895,-100.3294 1090.1366,-79.9426 1152.0284,-70.7491"/>
<polygon fill="#191970" stroke="#191970" points="1152.6108,-74.2011 1161.9879,-69.2697 1151.5822,-67.2771 1152.6108,-74.2011"/>
</g>
<!-- Node21&#45;&gt;Node12 -->
<g id="edge29" class="edge">
<title>Node21&#45;&gt;Node12</title>
<path fill="none" stroke="#191970" d="M807,-112.2455C807,-104.9382 807,-94.6944 807,-85.7046"/>
<polygon fill="#191970" stroke="#191970" points="810.5001,-85.6426 807,-75.6427 803.5001,-85.6427 810.5001,-85.6426"/>
</g>
<!-- Node21&#45;&gt;Node13 -->
<g id="edge32" class="edge">
<title>Node21&#45;&gt;Node13</title>
<path fill="none" stroke="#191970" d="M839.4366,-112.3771C863.0956,-104.5531 895.3674,-92.1683 921,-76 942.7823,-62.2604 964.0605,-41.5938 977.7662,-27.0551"/>
<polygon fill="#191970" stroke="#191970" points="980.3505,-29.4155 984.5565,-19.6913 975.2044,-24.6702 980.3505,-29.4155"/>
</g>
<!-- Node21&#45;&gt;Node22 -->
<g id="edge27" class="edge">
<title>Node21&#45;&gt;Node22</title>
<path fill="none" stroke="#191970" d="M737.6674,-112.4369C663.2577,-102.1735 545.7148,-85.9607 471.035,-75.66"/>
<polygon fill="#191970" stroke="#191970" points="471.1752,-72.1463 460.7908,-74.247 470.2187,-79.0806 471.1752,-72.1463"/>
</g>
<!-- Node23 -->
<g id="node24" class="node">
<title>Node23</title>
<polygon fill="none" stroke="#bfbfbf" points="600,-56.5 600,-75.5 656,-75.5 656,-56.5 600,-56.5"/>
<text text-anchor="middle" x="628" y="-63.5" font-family="FreeSans.ttf" font-size="10.00" fill="#000000">sstream</text>
</g>
<!-- Node21&#45;&gt;Node23 -->
<g id="edge31" class="edge">
<title>Node21&#45;&gt;Node23</title>
<path fill="none" stroke="#191970" d="M776.2288,-112.3733C745.6103,-102.7943 698.5733,-88.0788 665.7222,-77.8014"/>
<polygon fill="#191970" stroke="#191970" points="666.6053,-74.4104 656.0164,-74.7649 664.5152,-81.0911 666.6053,-74.4104"/>
</g>
<!-- Node24 -->
<g id="node25" class="node">
<title>Node24</title>
<polygon fill="none" stroke="#bfbfbf" points="676,-56.5 676,-75.5 726,-75.5 726,-56.5 676,-56.5"/>
<text text-anchor="middle" x="701" y="-63.5" font-family="FreeSans.ttf" font-size="10.00" fill="#000000">cstring</text>
</g>
<!-- Node21&#45;&gt;Node24 -->
<g id="edge33" class="edge">
<title>Node21&#45;&gt;Node24</title>
<path fill="none" stroke="#191970" d="M788.5362,-112.2455C771.8926,-103.4527 747.2007,-90.4079 728.2808,-80.4125"/>
<polygon fill="#191970" stroke="#191970" points="729.7291,-77.2193 719.2522,-75.6427 726.4592,-83.4086 729.7291,-77.2193"/>
</g>
<!-- Node22&#45;&gt;Node7 -->
<g id="edge28" class="edge">
<title>Node22&#45;&gt;Node7</title>
<path fill="none" stroke="#191970" d="M401,-56.2455C401,-48.9382 401,-38.6944 401,-29.7046"/>
<polygon fill="#191970" stroke="#191970" points="404.5001,-29.6426 401,-19.6427 397.5001,-29.6427 404.5001,-29.6426"/>
</g>
<!-- Node25&#45;&gt;Node3 -->
<g id="edge35" class="edge">
<title>Node25&#45;&gt;Node3</title>
<path fill="none" stroke="#191970" d="M1441.4063,-397.7863C1461.9375,-379.1488 1503,-336.1101 1503,-290 1503,-290 1503,-290 1503,-178 1503,-134.2612 1469.1929,-131.4166 1430,-112 1392.7986,-93.5701 1274.0507,-77.0218 1216.2374,-69.8163"/>
<polygon fill="#191970" stroke="#191970" points="1216.5371,-66.3269 1206.1849,-68.5812 1215.6835,-73.2746 1216.5371,-66.3269"/>
</g>
<!-- Node26&#45;&gt;Node3 -->
<g id="edge40" class="edge">
<title>Node26&#45;&gt;Node3</title>
<path fill="none" stroke="#191970" d="M708.5248,-112.9022C711.3848,-112.595 714.2167,-112.2934 717,-112 879.9383,-94.8222 1075.0784,-76.2451 1151.2699,-69.0683"/>
<polygon fill="#191970" stroke="#191970" points="1152.002,-72.515 1161.6302,-68.0937 1151.3463,-65.5458 1152.002,-72.515"/>
</g>
<!-- Node26&#45;&gt;Node13 -->
<g id="edge38" class="edge">
<title>Node26&#45;&gt;Node13</title>
<path fill="none" stroke="#191970" d="M692.5781,-112.4922C754.4305,-102.9411 843.074,-87.9631 876,-76 911.0626,-63.2606 947.9885,-40.6729 970.7595,-25.5182"/>
<polygon fill="#191970" stroke="#191970" points="973.0032,-28.2259 979.3235,-19.7227 969.08,-22.4286 973.0032,-28.2259"/>
</g>
<!-- Node26&#45;&gt;Node22 -->
<g id="edge37" class="edge">
<title>Node26&#45;&gt;Node22</title>
<path fill="none" stroke="#191970" d="M589.2352,-112.4369C550.6308,-102.9133 491.2616,-88.2672 449.5428,-77.9753"/>
<polygon fill="#191970" stroke="#191970" points="450.1521,-74.5208 439.6049,-75.5237 448.4755,-81.317 450.1521,-74.5208"/>
</g>
<!-- Node26&#45;&gt;Node23 -->
<g id="edge42" class="edge">
<title>Node26&#45;&gt;Node23</title>
<path fill="none" stroke="#191970" d="M628,-112.2455C628,-104.9382 628,-94.6944 628,-85.7046"/>
<polygon fill="#191970" stroke="#191970" points="631.5001,-85.6426 628,-75.6427 624.5001,-85.6427 631.5001,-85.6426"/>
</g>
<!-- Node26&#45;&gt;Node24 -->
<g id="edge39" class="edge">
<title>Node26&#45;&gt;Node24</title>
<path fill="none" stroke="#191970" d="M640.7156,-112.2455C651.602,-103.8943 667.4883,-91.7076 680.22,-81.9408"/>
<polygon fill="#191970" stroke="#191970" points="682.6261,-84.5063 688.4301,-75.6427 678.3654,-78.9523 682.6261,-84.5063"/>
</g>
<!-- Node27 -->
<g id="node28" class="node">
<title>Node27</title>
<polygon fill="none" stroke="#bfbfbf" points="501,-56.5 501,-75.5 561,-75.5 561,-56.5 501,-56.5"/>
<text text-anchor="middle" x="531" y="-63.5" font-family="FreeSans.ttf" font-size="10.00" fill="#000000">iostream</text>
</g>
<!-- Node26&#45;&gt;Node27 -->
<g id="edge41" class="edge">
<title>Node26&#45;&gt;Node27</title>
<path fill="none" stroke="#191970" d="M611.1039,-112.2455C596.082,-103.5731 573.8957,-90.7645 556.679,-80.825"/>
<polygon fill="#191970" stroke="#191970" points="558.1128,-77.6114 547.7025,-75.6427 554.6129,-83.6737 558.1128,-77.6114"/>
</g>
<!-- Node28&#45;&gt;Node21 -->
<g id="edge44" class="edge">
<title>Node28&#45;&gt;Node21</title>
<path fill="none" stroke="#191970" d="M570.6565,-392.372C554.3866,-350.9048 516.229,-234.1264 572,-168 582.0494,-156.0846 660.9797,-142.3425 724.6345,-133.0035"/>
<polygon fill="#191970" stroke="#191970" points="725.3123,-136.442 734.7067,-131.5434 724.308,-129.5144 725.3123,-136.442"/>
</g>
<!-- Node29 -->
<g id="node30" class="node">
<title>Node29</title>
<g id="a_node30"><a xlink:href="GeomVector3_8h.html" target="_top" xlink:title="iDynTree/Core/GeomVector3.h">
<polygon fill="none" stroke="#000000" points="581.5,-168.5 581.5,-187.5 744.5,-187.5 744.5,-168.5 581.5,-168.5"/>
<text text-anchor="middle" x="663" y="-175.5" font-family="FreeSans.ttf" font-size="10.00" fill="#000000">iDynTree/Core/GeomVector3.h</text>
</a>
</g>
</g>
<!-- Node28&#45;&gt;Node29 -->
<g id="edge45" class="edge">
<title>Node28&#45;&gt;Node29</title>
<path fill="none" stroke="#191970" d="M573.8283,-392.436C571.33,-377.7734 569.02,-354.9879 574,-336 588.6302,-280.2174 627.8903,-223.3696 649.0429,-195.5408"/>
<polygon fill="#191970" stroke="#191970" points="651.8651,-197.6129 655.2202,-187.5633 646.3304,-193.3271 651.8651,-197.6129"/>
</g>
<!-- Node30 -->
<g id="node31" class="node">
<title>Node30</title>
<g id="a_node31"><a xlink:href="SpatialVector_8h.html" target="_top" xlink:title="iDynTree/Core/SpatialVector.h">
<polygon fill="none" stroke="#000000" points="583.5,-336.5 583.5,-355.5 744.5,-355.5 744.5,-336.5 583.5,-336.5"/>
<text text-anchor="middle" x="664" y="-343.5" font-family="FreeSans.ttf" font-size="10.00" fill="#000000">iDynTree/Core/SpatialVector.h</text>
</a>
</g>
</g>
<!-- Node28&#45;&gt;Node30 -->
<g id="edge47" class="edge">
<title>Node28&#45;&gt;Node30</title>
<path fill="none" stroke="#191970" d="M598.5056,-392.2977C611.7968,-382.9022 628.8057,-370.8787 642.1588,-361.4395"/>
<polygon fill="#191970" stroke="#191970" points="644.1846,-364.2937 650.33,-355.6633 640.1439,-358.5776 644.1846,-364.2937"/>
</g>
<!-- Node29&#45;&gt;Node21 -->
<g id="edge46" class="edge">
<title>Node29&#45;&gt;Node21</title>
<path fill="none" stroke="#191970" d="M687.7545,-168.3733C711.2849,-159.2226 746.8687,-145.3844 773.0426,-135.2057"/>
<polygon fill="#191970" stroke="#191970" points="774.5171,-138.3877 782.5685,-131.5011 771.9799,-131.8636 774.5171,-138.3877"/>
</g>
<!-- Node30&#45;&gt;Node22 -->
<g id="edge61" class="edge">
<title>Node30&#45;&gt;Node22</title>
<path fill="none" stroke="#191970" d="M645.1534,-336.3714C629.6884,-327.9635 607.6985,-314.8103 591,-300 512.5462,-230.4175 440.4956,-126.3893 412.8954,-84.4778"/>
<polygon fill="#191970" stroke="#191970" points="415.6683,-82.3226 407.2727,-75.86 409.8058,-86.1476 415.6683,-82.3226"/>
</g>
<!-- Node30&#45;&gt;Node23 -->
<g id="edge64" class="edge">
<title>Node30&#45;&gt;Node23</title>
<path fill="none" stroke="#191970" d="M655.5633,-336.2159C631.3424,-307.3962 561.8064,-219.3542 538,-132 535.6628,-123.4239 533.3603,-119.5819 538,-112 549.3874,-93.3911 570.9417,-82.0076 590.1018,-75.2205"/>
<polygon fill="#191970" stroke="#191970" points="591.3963,-78.4805 599.8365,-72.0764 589.2448,-71.8194 591.3963,-78.4805"/>
</g>
<!-- Node30&#45;&gt;Node27 -->
<g id="edge63" class="edge">
<title>Node30&#45;&gt;Node27</title>
<path fill="none" stroke="#191970" d="M650.5596,-336.4101C638.9732,-327.7321 622.2291,-314.1727 610,-300 572.6894,-256.7595 567.2624,-241.3972 547,-188 537.8586,-163.9098 535.5555,-157.5198 532,-132 529.8719,-116.7254 529.7049,-99.2708 530.0252,-86.1496"/>
<polygon fill="#191970" stroke="#191970" points="533.5322,-86.0177 530.3952,-75.898 526.5367,-85.7653 533.5322,-86.0177"/>
</g>
<!-- Node30&#45;&gt;Node29 -->
<g id="edge62" class="edge">
<title>Node30&#45;&gt;Node29</title>
<path fill="none" stroke="#191970" d="M663.9434,-336.4862C663.7853,-309.9293 663.3367,-234.5651 663.12,-198.1655"/>
<polygon fill="#191970" stroke="#191970" points="666.6181,-197.8068 663.0585,-187.8279 659.6182,-197.8486 666.6181,-197.8068"/>
</g>
<!-- Node31 -->
<g id="node32" class="node">
<title>Node31</title>
<g id="a_node32"><a xlink:href="Position_8h.html" target="_top" xlink:title="Position.h">
<polygon fill="none" stroke="#000000" points="1052.5,-280.5 1052.5,-299.5 1117.5,-299.5 1117.5,-280.5 1052.5,-280.5"/>
<text text-anchor="middle" x="1085" y="-287.5" font-family="FreeSans.ttf" font-size="10.00" fill="#000000">Position.h</text>
</a>
</g>
</g>
<!-- Node30&#45;&gt;Node31 -->
<g id="edge48" class="edge">
<title>Node30&#45;&gt;Node31</title>
<path fill="none" stroke="#191970" d="M735.8941,-336.4369C823.9753,-324.7206 970.3421,-305.2514 1042.3385,-295.6747"/>
<polygon fill="#191970" stroke="#191970" points="1042.9544,-299.1237 1052.4056,-294.3356 1042.0313,-292.1848 1042.9544,-299.1237"/>
</g>
<!-- Node33 -->
<g id="node34" class="node">
<title>Node33</title>
<g id="a_node34"><a xlink:href="Rotation_8h.html" target="_top" xlink:title="iDynTree/Core/Rotation.h">
<polygon fill="none" stroke="#000000" points="955.5,-224.5 955.5,-243.5 1092.5,-243.5 1092.5,-224.5 955.5,-224.5"/>
<text text-anchor="middle" x="1024" y="-231.5" font-family="FreeSans.ttf" font-size="10.00" fill="#000000">iDynTree/Core/Rotation.h</text>
</a>
</g>
</g>
<!-- Node30&#45;&gt;Node33 -->
<g id="edge60" class="edge">
<title>Node30&#45;&gt;Node33</title>
<path fill="none" stroke="#191970" d="M694.6934,-336.4509C759.6522,-316.2415 911.0128,-269.1516 983.6714,-246.5467"/>
<polygon fill="#191970" stroke="#191970" points="984.8755,-249.8376 993.3843,-243.5249 982.796,-243.1536 984.8755,-249.8376"/>
</g>
<!-- Node31&#45;&gt;Node3 -->
<g id="edge59" class="edge">
<title>Node31&#45;&gt;Node3</title>
<path fill="none" stroke="#191970" d="M1112.9708,-280.4219C1174.8819,-258.9485 1319.0697,-207.3291 1332,-188 1367.0484,-135.6073 1269.3387,-93.99 1216.0433,-75.8602"/>
<polygon fill="#191970" stroke="#191970" points="1216.933,-72.468 1206.3397,-72.6509 1214.7349,-79.114 1216.933,-72.468"/>
</g>
<!-- Node32 -->
<g id="node33" class="node">
<title>Node32</title>
<g id="a_node33"><a xlink:href="PositionRaw_8h.html" target="_top" xlink:title="iDynTree/Core/PositionRaw.h">
<polygon fill="none" stroke="#000000" points="1167,-168.5 1167,-187.5 1323,-187.5 1323,-168.5 1167,-168.5"/>
<text text-anchor="middle" x="1245" y="-175.5" font-family="FreeSans.ttf" font-size="10.00" fill="#000000">iDynTree/Core/PositionRaw.h</text>
</a>
</g>
</g>
<!-- Node31&#45;&gt;Node32 -->
<g id="edge49" class="edge">
<title>Node31&#45;&gt;Node32</title>
<path fill="none" stroke="#191970" d="M1098.6415,-280.4509C1126.3903,-261.0268 1189.6138,-216.7703 1223.1579,-193.2895"/>
<polygon fill="#191970" stroke="#191970" points="1225.2078,-196.1269 1231.393,-187.5249 1221.1935,-190.3922 1225.2078,-196.1269"/>
</g>
<!-- Node31&#45;&gt;Node33 -->
<g id="edge52" class="edge">
<title>Node31&#45;&gt;Node33</title>
<path fill="none" stroke="#191970" d="M1074.3746,-280.2455C1065.4527,-272.0549 1052.512,-260.1749 1041.9808,-250.5069"/>
<polygon fill="#191970" stroke="#191970" points="1044.2371,-247.8271 1034.5036,-243.6427 1039.5032,-252.9837 1044.2371,-247.8271"/>
</g>
<!-- Node32&#45;&gt;Node3 -->
<g id="edge51" class="edge">
<title>Node32&#45;&gt;Node3</title>
<path fill="none" stroke="#191970" d="M1239.7992,-168.4509C1229.6701,-149.8533 1207.1429,-108.4919 1194.0195,-84.3964"/>
<polygon fill="#191970" stroke="#191970" points="1197.0444,-82.6328 1189.1877,-75.5249 1190.8971,-85.9809 1197.0444,-82.6328"/>
</g>
<!-- Node32&#45;&gt;Node21 -->
<g id="edge50" class="edge">
<title>Node32&#45;&gt;Node21</title>
<path fill="none" stroke="#191970" d="M1170.2028,-168.4369C1092.8803,-158.5509 972.3845,-143.145 891.6262,-132.8198"/>
<polygon fill="#191970" stroke="#191970" points="891.8519,-129.3202 881.4887,-131.5237 890.9641,-136.2637 891.8519,-129.3202"/>
</g>
<!-- Node33&#45;&gt;Node3 -->
<g id="edge53" class="edge">
<title>Node33&#45;&gt;Node3</title>
<path fill="none" stroke="#191970" d="M1044.3283,-224.4631C1060.3612,-216.2878 1082.6662,-203.4074 1099,-188 1132.3212,-156.5687 1160.2878,-110.0953 1174.3137,-84.5338"/>
<polygon fill="#191970" stroke="#191970" points="1177.4938,-86.0098 1179.1422,-75.5439 1171.327,-82.6975 1177.4938,-86.0098"/>
</g>
<!-- Node33&#45;&gt;Node21 -->
<g id="edge58" class="edge">
<title>Node33&#45;&gt;Node21</title>
<path fill="none" stroke="#191970" d="M1042.9257,-224.4779C1065.8118,-211.7345 1099.2487,-188.3736 1082,-168 1069.9704,-153.791 973.0859,-140.0473 897.6777,-131.3412"/>
<polygon fill="#191970" stroke="#191970" points="897.9923,-127.8545 887.6602,-130.1994 897.1995,-134.8094 897.9923,-127.8545"/>
</g>
<!-- Node33&#45;&gt;Node29 -->
<g id="edge54" class="edge">
<title>Node33&#45;&gt;Node29</title>
<path fill="none" stroke="#191970" d="M962.3521,-224.4369C899.142,-214.6314 800.9258,-199.3957 734.3822,-189.0731"/>
<polygon fill="#191970" stroke="#191970" points="734.812,-185.598 724.3937,-187.5237 733.7389,-192.5153 734.812,-185.598"/>
</g>
<!-- Node34 -->
<g id="node35" class="node">
<title>Node34</title>
<g id="a_node35"><a xlink:href="RotationRaw_8h.html" target="_top" xlink:title="iDynTree/Core/RotationRaw.h">
<polygon fill="none" stroke="#000000" points="915,-168.5 915,-187.5 1073,-187.5 1073,-168.5 915,-168.5"/>
<text text-anchor="middle" x="994" y="-175.5" font-family="FreeSans.ttf" font-size="10.00" fill="#000000">iDynTree/Core/RotationRaw.h</text>
</a>
</g>
</g>
<!-- Node33&#45;&gt;Node34 -->
<g id="edge55" class="edge">
<title>Node33&#45;&gt;Node34</title>
<path fill="none" stroke="#191970" d="M1018.7744,-224.2455C1014.6877,-216.617 1008.8865,-205.7881 1003.925,-196.5267"/>
<polygon fill="#191970" stroke="#191970" points="1006.9732,-194.8047 999.1657,-187.6427 1000.8028,-198.1103 1006.9732,-194.8047"/>
</g>
<!-- Node34&#45;&gt;Node3 -->
<g id="edge57" class="edge">
<title>Node34&#45;&gt;Node3</title>
<path fill="none" stroke="#191970" d="M1010.1993,-168.4509C1043.4315,-148.8615 1119.5099,-104.0152 1159.0718,-80.6945"/>
<polygon fill="#191970" stroke="#191970" points="1161.0044,-83.6182 1167.8417,-75.5249 1157.4497,-77.5879 1161.0044,-83.6182"/>
</g>
<!-- Node34&#45;&gt;Node26 -->
<g id="edge56" class="edge">
<title>Node34&#45;&gt;Node26</title>
<path fill="none" stroke="#191970" d="M931.4982,-168.4369C867.4126,-158.6314 767.8361,-143.3957 700.3709,-133.0731"/>
<polygon fill="#191970" stroke="#191970" points="700.6583,-129.5765 690.244,-131.5237 699.5996,-136.4959 700.6583,-129.5765"/>
</g>
<!-- Node35&#45;&gt;Node21 -->
<g id="edge66" class="edge">
<title>Node35&#45;&gt;Node21</title>
<path fill="none" stroke="#191970" d="M750.2259,-392.1503C760.3611,-343.9237 791.5602,-195.4676 802.8598,-141.7006"/>
<polygon fill="#191970" stroke="#191970" points="806.3226,-142.2407 804.9542,-131.7347 799.4723,-140.801 806.3226,-142.2407"/>
</g>
<!-- Node35&#45;&gt;Node29 -->
<g id="edge67" class="edge">
<title>Node35&#45;&gt;Node29</title>
<path fill="none" stroke="#191970" d="M764.3972,-392.3528C778.2258,-378.3721 794.154,-356.7033 787,-336 766.0765,-275.4487 711.3175,-220.4299 682.0662,-194.1904"/>
<polygon fill="#191970" stroke="#191970" points="684.362,-191.5485 674.5416,-187.5721 679.7388,-196.8046 684.362,-191.5485"/>
</g>
<!-- Node35&#45;&gt;Node30 -->
<g id="edge68" class="edge">
<title>Node35&#45;&gt;Node30</title>
<path fill="none" stroke="#191970" d="M726.4831,-392.2977C714.0018,-383.0495 698.0841,-371.2551 685.4386,-361.8853"/>
<polygon fill="#191970" stroke="#191970" points="687.4078,-358.9882 677.2894,-355.8469 683.2404,-364.6126 687.4078,-358.9882"/>
</g>
<!-- Node36&#45;&gt;Node3 -->
<g id="edge73" class="edge">
<title>Node36&#45;&gt;Node3</title>
<path fill="none" stroke="#191970" d="M1049.188,-336.4598C1120.5836,-306.8506 1333.293,-216.7892 1350,-188 1364.6887,-162.6888 1330.9351,-118.1664 1324,-112 1293.7283,-85.0837 1247.3485,-73.866 1216.3655,-69.2243"/>
<polygon fill="#191970" stroke="#191970" points="1216.4779,-65.7079 1206.1002,-67.8417 1215.5435,-72.6452 1216.4779,-65.7079"/>
</g>
<!-- Node36&#45;&gt;Node26 -->
<g id="edge72" class="edge">
<title>Node36&#45;&gt;Node26</title>
<path fill="none" stroke="#191970" d="M1013.5498,-336.3981C975.9698,-307.7504 859.6977,-221.5567 753,-168 726.2079,-154.5517 694.4956,-142.9276 669.717,-134.7288"/>
<polygon fill="#191970" stroke="#191970" points="670.4931,-131.3009 659.901,-131.5392 668.3299,-137.9582 670.4931,-131.3009"/>
</g>
<!-- Node36&#45;&gt;Node31 -->
<g id="edge70" class="edge">
<title>Node36&#45;&gt;Node31</title>
<path fill="none" stroke="#191970" d="M1036.277,-336.2455C1044.8218,-328.1352 1057.1778,-316.4075 1067.3085,-306.7919"/>
<polygon fill="#191970" stroke="#191970" points="1069.9972,-309.0655 1074.8408,-299.6427 1065.1782,-303.9884 1069.9972,-309.0655"/>
</g>
<!-- Node36&#45;&gt;Node33 -->
<g id="edge71" class="edge">
<title>Node36&#45;&gt;Node33</title>
<path fill="none" stroke="#191970" d="M1025.8295,-336.4509C1025.5033,-318.184 1024.7849,-277.9553 1024.3517,-253.6976"/>
<polygon fill="#191970" stroke="#191970" points="1027.8482,-253.4608 1024.1701,-243.5249 1020.8493,-253.5858 1027.8482,-253.4608"/>
</g>
</g>
</svg>
