<?xml version="1.0" encoding="UTF-8" standalone="no"?>
<!DOCTYPE svg PUBLIC "-//W3C//DTD SVG 1.1//EN"
 "http://www.w3.org/Graphics/SVG/1.1/DTD/svg11.dtd">
<!-- Generated by graphviz version 2.40.1 (20161225.0304)
 -->
<!-- Title: Position.cpp Pages: 1 -->
<svg width="1328pt" height="543pt"
 viewBox="0.00 0.00 1327.61 543.00" xmlns="http://www.w3.org/2000/svg" xmlns:xlink="http://www.w3.org/1999/xlink">
<g id="graph0" class="graph" transform="scale(1 1) rotate(0) translate(4 539)">
<title>Position.cpp</title>
<!-- Node0 -->
<g id="node1" class="node">
<title>Node0</title>
<polygon fill="#bfbfbf" stroke="#000000" points="734.6102,-515.5 734.6102,-534.5 810.6102,-534.5 810.6102,-515.5 734.6102,-515.5"/>
<text text-anchor="middle" x="772.6102" y="-522.5" font-family="FreeSans.ttf" font-size="10.00" fill="#000000">Position.cpp</text>
</g>
<!-- Node1 -->
<g id="node2" class="node">
<title>Node1</title>
<g id="a_node2"><a xlink:href="Position_8h.html" target="_top" xlink:title="iDynTree/Core/Position.h">
<polygon fill="none" stroke="#000000" points="667.6102,-280.5 667.6102,-299.5 803.6102,-299.5 803.6102,-280.5 667.6102,-280.5"/>
<text text-anchor="middle" x="735.6102" y="-287.5" font-family="FreeSans.ttf" font-size="10.00" fill="#000000">iDynTree/Core/Position.h</text>
</a>
</g>
</g>
<!-- Node0&#45;&gt;Node1 -->
<g id="edge1" class="edge">
<title>Node0&#45;&gt;Node1</title>
<path fill="none" stroke="#191970" d="M810.8644,-515.7812C843.1261,-507.1408 885.6046,-493.4244 895.6102,-479 917.6487,-447.2287 919.3299,-422.5367 895.6102,-392 855.9348,-340.9219 801.0318,-401.035 754.6102,-356 742.1982,-343.9587 737.7516,-324.3779 736.2288,-309.665"/>
<polygon fill="#191970" stroke="#191970" points="739.713,-309.3113 735.5507,-299.5683 732.7287,-309.7804 739.713,-309.3113"/>
</g>
<!-- Node4 -->
<g id="node5" class="node">
<title>Node4</title>
<g id="a_node5"><a xlink:href="Utils_8h.html" target="_top" xlink:title="iDynTree/Core/Utils.h">
<polygon fill="none" stroke="#000000" points="237.1102,-56.5 237.1102,-75.5 356.1102,-75.5 356.1102,-56.5 237.1102,-56.5"/>
<text text-anchor="middle" x="296.6102" y="-63.5" font-family="FreeSans.ttf" font-size="10.00" fill="#000000">iDynTree/Core/Utils.h</text>
</a>
</g>
</g>
<!-- Node0&#45;&gt;Node4 -->
<g id="edge57" class="edge">
<title>Node0&#45;&gt;Node4</title>
<path fill="none" stroke="#191970" d="M734.5944,-523.9016C585.6354,-519.441 48.4889,-501.8261 20.6102,-479 -4.8307,-458.1698 1.6102,-440.3806 1.6102,-407.5 1.6102,-407.5 1.6102,-407.5 1.6102,-178 1.6102,-129.3881 143.3877,-94.3497 230.367,-77.4279"/>
<polygon fill="#191970" stroke="#191970" points="231.2642,-80.8198 240.4286,-75.5034 229.9491,-73.9444 231.2642,-80.8198"/>
</g>
<!-- Node7 -->
<g id="node8" class="node">
<title>Node7</title>
<polygon fill="none" stroke="#bfbfbf" points="933.6102,-.5 933.6102,-19.5 985.6102,-19.5 985.6102,-.5 933.6102,-.5"/>
<text text-anchor="middle" x="959.6102" y="-7.5" font-family="FreeSans.ttf" font-size="10.00" fill="#000000">cassert</text>
</g>
<!-- Node0&#45;&gt;Node7 -->
<g id="edge75" class="edge">
<title>Node0&#45;&gt;Node7</title>
<path fill="none" stroke="#191970" d="M810.8731,-523.9443C906.7122,-520.8587 1154.801,-510.0242 1230.6102,-479 1277.5693,-459.7824 1319.6102,-458.2392 1319.6102,-407.5 1319.6102,-407.5 1319.6102,-407.5 1319.6102,-122 1319.6102,-78.9164 1287.3411,-74.871 1248.6102,-56 1204.6068,-34.5601 1063.1108,-19.3342 995.8182,-13.1146"/>
<polygon fill="#191970" stroke="#191970" points="995.9571,-9.6129 985.6816,-12.1942 995.3241,-16.5843 995.9571,-9.6129"/>
</g>
<!-- Node16 -->
<g id="node17" class="node">
<title>Node16</title>
<polygon fill="none" stroke="#bfbfbf" points="1079.6102,-56.5 1079.6102,-75.5 1135.6102,-75.5 1135.6102,-56.5 1079.6102,-56.5"/>
<text text-anchor="middle" x="1107.6102" y="-63.5" font-family="FreeSans.ttf" font-size="10.00" fill="#000000">sstream</text>
</g>
<!-- Node0&#45;&gt;Node16 -->
<g id="edge77" class="edge">
<title>Node0&#45;&gt;Node16</title>
<path fill="none" stroke="#191970" d="M810.7552,-523.6442C922.884,-518.6327 1243.6102,-496.5175 1243.6102,-407.5 1243.6102,-407.5 1243.6102,-407.5 1243.6102,-234 1243.6102,-164.3451 1172.1105,-107.377 1132.7963,-81.3179"/>
<polygon fill="#191970" stroke="#191970" points="1134.3161,-78.1333 1124.015,-75.6558 1130.5228,-84.0164 1134.3161,-78.1333"/>
</g>
<!-- Node18 -->
<g id="node19" class="node">
<title>Node18</title>
<g id="a_node19"><a xlink:href="Rotation_8h.html" target="_top" xlink:title="iDynTree/Core/Rotation.h">
<polygon fill="none" stroke="#000000" points="528.1102,-224.5 528.1102,-243.5 665.1102,-243.5 665.1102,-224.5 528.1102,-224.5"/>
<text text-anchor="middle" x="596.6102" y="-231.5" font-family="FreeSans.ttf" font-size="10.00" fill="#000000">iDynTree/Core/Rotation.h</text>
</a>
</g>
</g>
<!-- Node0&#45;&gt;Node18 -->
<g id="edge36" class="edge">
<title>Node0&#45;&gt;Node18</title>
<path fill="none" stroke="#191970" d="M810.6602,-515.7256C829.7822,-508.9322 851.2528,-497.5598 862.6102,-479 882.7928,-446.0185 885.8625,-422.8941 862.6102,-392 827.8439,-345.8078 791.313,-377.4111 737.6102,-356 687.3859,-335.9757 667.5607,-338.5126 629.6102,-300 616.7127,-286.9114 607.9082,-267.77 602.6591,-253.4676"/>
<polygon fill="#191970" stroke="#191970" points="605.8569,-251.9991 599.3293,-243.6541 599.2281,-254.2484 605.8569,-251.9991"/>
</g>
<!-- Node22 -->
<g id="node23" class="node">
<title>Node22</title>
<polygon fill="none" stroke="#bfbfbf" points="1179.6102,-56.5 1179.6102,-75.5 1239.6102,-75.5 1239.6102,-56.5 1179.6102,-56.5"/>
<text text-anchor="middle" x="1209.6102" y="-63.5" font-family="FreeSans.ttf" font-size="10.00" fill="#000000">iostream</text>
</g>
<!-- Node0&#45;&gt;Node22 -->
<g id="edge76" class="edge">
<title>Node0&#45;&gt;Node22</title>
<path fill="none" stroke="#191970" d="M810.868,-524.3436C929.2417,-521.2896 1281.6102,-504.087 1281.6102,-407.5 1281.6102,-407.5 1281.6102,-407.5 1281.6102,-178 1281.6102,-139.0554 1250.4262,-102.8622 1229.1034,-82.6662"/>
<polygon fill="#191970" stroke="#191970" points="1231.2483,-79.8856 1221.4996,-75.7368 1226.5333,-85.0595 1231.2483,-79.8856"/>
</g>
<!-- Node23 -->
<g id="node24" class="node">
<title>Node23</title>
<g id="a_node24"><a xlink:href="Twist_8h.html" target="_top" xlink:title="iDynTree/Core/Twist.h">
<polygon fill="none" stroke="#000000" points="551.6102,-459.5 551.6102,-478.5 673.6102,-478.5 673.6102,-459.5 551.6102,-459.5"/>
<text text-anchor="middle" x="612.6102" y="-466.5" font-family="FreeSans.ttf" font-size="10.00" fill="#000000">iDynTree/Core/Twist.h</text>
</a>
</g>
</g>
<!-- Node0&#45;&gt;Node23 -->
<g id="edge37" class="edge">
<title>Node0&#45;&gt;Node23</title>
<path fill="none" stroke="#191970" d="M745.1052,-515.3733C718.73,-506.1419 678.7251,-492.1402 649.5744,-481.9375"/>
<polygon fill="#191970" stroke="#191970" points="650.3511,-478.5012 639.7563,-478.5011 648.0386,-485.1082 650.3511,-478.5012"/>
</g>
<!-- Node26 -->
<g id="node27" class="node">
<title>Node26</title>
<g id="a_node27"><a xlink:href="Wrench_8h.html" target="_top" xlink:title="iDynTree/Core/Wrench.h">
<polygon fill="none" stroke="#000000" points="30.1102,-459.5 30.1102,-478.5 163.1102,-478.5 163.1102,-459.5 30.1102,-459.5"/>
<text text-anchor="middle" x="96.6102" y="-466.5" font-family="FreeSans.ttf" font-size="10.00" fill="#000000">iDynTree/Core/Wrench.h</text>
</a>
</g>
</g>
<!-- Node0&#45;&gt;Node26 -->
<g id="edge48" class="edge">
<title>Node0&#45;&gt;Node26</title>
<path fill="none" stroke="#191970" d="M734.2887,-522.7864C640.5481,-517.2166 392.0062,-501.5135 173.373,-479.0268"/>
<polygon fill="#191970" stroke="#191970" points="173.6215,-475.5339 163.3142,-477.9852 172.9004,-482.4966 173.6215,-475.5339"/>
</g>
<!-- Node28 -->
<g id="node29" class="node">
<title>Node28</title>
<g id="a_node29"><a xlink:href="SpatialAcc_8h.html" target="_top" xlink:title="iDynTree/Core/SpatialAcc.h">
<polygon fill="none" stroke="#000000" points="385.6102,-459.5 385.6102,-478.5 533.6102,-478.5 533.6102,-459.5 385.6102,-459.5"/>
<text text-anchor="middle" x="459.6102" y="-466.5" font-family="FreeSans.ttf" font-size="10.00" fill="#000000">iDynTree/Core/SpatialAcc.h</text>
</a>
</g>
</g>
<!-- Node0&#45;&gt;Node28 -->
<g id="edge53" class="edge">
<title>Node0&#45;&gt;Node28</title>
<path fill="none" stroke="#191970" d="M734.5432,-518.1893C681.886,-508.7682 586.1499,-491.6397 522.7074,-480.2889"/>
<polygon fill="#191970" stroke="#191970" points="523.2742,-476.8349 512.8141,-478.5189 522.0413,-483.7254 523.2742,-476.8349"/>
</g>
<!-- Node29 -->
<g id="node30" class="node">
<title>Node29</title>
<g id="a_node30"><a xlink:href="SpatialMomentum_8h.html" target="_top" xlink:title="iDynTree/Core/SpatialMomentum.h">
<polygon fill="none" stroke="#000000" points="181.6102,-459.5 181.6102,-478.5 367.6102,-478.5 367.6102,-459.5 181.6102,-459.5"/>
<text text-anchor="middle" x="274.6102" y="-466.5" font-family="FreeSans.ttf" font-size="10.00" fill="#000000">iDynTree/Core/SpatialMomentum.h</text>
</a>
</g>
</g>
<!-- Node0&#45;&gt;Node29 -->
<g id="edge55" class="edge">
<title>Node0&#45;&gt;Node29</title>
<path fill="none" stroke="#191970" d="M734.3599,-520.6988C656.9469,-511.9937 479.7067,-492.0631 369.2944,-479.6472"/>
<polygon fill="#191970" stroke="#191970" points="369.4826,-476.1464 359.1541,-478.5069 368.7004,-483.1026 369.4826,-476.1464"/>
</g>
<!-- Node30 -->
<g id="node31" class="node">
<title>Node30</title>
<g id="a_node31"><a xlink:href="EigenHelpers_8h.html" target="_top" xlink:title="iDynTree/Core/EigenHelpers.h">
<polygon fill="none" stroke="#000000" points="692.1102,-459.5 692.1102,-478.5 853.1102,-478.5 853.1102,-459.5 692.1102,-459.5"/>
<text text-anchor="middle" x="772.6102" y="-466.5" font-family="FreeSans.ttf" font-size="10.00" fill="#000000">iDynTree/Core/EigenHelpers.h</text>
</a>
</g>
</g>
<!-- Node0&#45;&gt;Node30 -->
<g id="edge58" class="edge">
<title>Node0&#45;&gt;Node30</title>
<path fill="none" stroke="#191970" d="M772.6102,-515.2455C772.6102,-507.9382 772.6102,-497.6944 772.6102,-488.7046"/>
<polygon fill="#191970" stroke="#191970" points="776.1103,-488.6426 772.6102,-478.6427 769.1103,-488.6427 776.1103,-488.6426"/>
</g>
<!-- Node2 -->
<g id="node3" class="node">
<title>Node2</title>
<g id="a_node3"><a xlink:href="PositionRaw_8h.html" target="_top" xlink:title="iDynTree/Core/PositionRaw.h">
<polygon fill="none" stroke="#000000" points="617.6102,-168.5 617.6102,-187.5 773.6102,-187.5 773.6102,-168.5 617.6102,-168.5"/>
<text text-anchor="middle" x="695.6102" y="-175.5" font-family="FreeSans.ttf" font-size="10.00" fill="#000000">iDynTree/Core/PositionRaw.h</text>
</a>
</g>
</g>
<!-- Node1&#45;&gt;Node2 -->
<g id="edge2" class="edge">
<title>Node1&#45;&gt;Node2</title>
<path fill="none" stroke="#191970" d="M732.1999,-280.4509C725.6169,-262.0186 711.0479,-221.2254 702.4113,-197.043"/>
<polygon fill="#191970" stroke="#191970" points="705.6715,-195.7651 699.012,-187.5249 699.0793,-198.1195 705.6715,-195.7651"/>
</g>
<!-- Node15 -->
<g id="node16" class="node">
<title>Node15</title>
<polygon fill="none" stroke="#bfbfbf" points="779.6102,-56.5 779.6102,-75.5 823.6102,-75.5 823.6102,-56.5 779.6102,-56.5"/>
<text text-anchor="middle" x="801.6102" y="-63.5" font-family="FreeSans.ttf" font-size="10.00" fill="#000000">string</text>
</g>
<!-- Node1&#45;&gt;Node15 -->
<g id="edge35" class="edge">
<title>Node1&#45;&gt;Node15</title>
<path fill="none" stroke="#191970" d="M741.2368,-280.2287C751.201,-262.4728 771.9054,-223.4656 782.6102,-188 793.1978,-152.9228 798.1174,-110.2978 800.2178,-85.8422"/>
<polygon fill="#191970" stroke="#191970" points="803.7211,-85.9357 801.0149,-75.6923 796.7426,-85.3875 803.7211,-85.9357"/>
</g>
<!-- Node1&#45;&gt;Node18 -->
<g id="edge21" class="edge">
<title>Node1&#45;&gt;Node18</title>
<path fill="none" stroke="#191970" d="M711.7153,-280.3733C689.102,-271.2629 654.9561,-257.5062 629.723,-247.3404"/>
<polygon fill="#191970" stroke="#191970" points="630.7769,-243.9917 620.1934,-243.5011 628.161,-250.4845 630.7769,-243.9917"/>
</g>
<!-- Node3 -->
<g id="node4" class="node">
<title>Node3</title>
<g id="a_node4"><a xlink:href="VectorFixSize_8h.html" target="_top" xlink:title="iDynTree/Core/VectorFixSize.h">
<polygon fill="none" stroke="#000000" points="506.1102,-112.5 506.1102,-131.5 667.1102,-131.5 667.1102,-112.5 506.1102,-112.5"/>
<text text-anchor="middle" x="586.6102" y="-119.5" font-family="FreeSans.ttf" font-size="10.00" fill="#000000">iDynTree/Core/VectorFixSize.h</text>
</a>
</g>
</g>
<!-- Node2&#45;&gt;Node3 -->
<g id="edge3" class="edge">
<title>Node2&#45;&gt;Node3</title>
<path fill="none" stroke="#191970" d="M676.6239,-168.2455C659.431,-159.4125 633.8864,-146.2887 614.397,-136.2758"/>
<polygon fill="#191970" stroke="#191970" points="615.8732,-133.0993 605.379,-131.6427 612.6743,-139.3257 615.8732,-133.0993"/>
</g>
<!-- Node2&#45;&gt;Node15 -->
<g id="edge20" class="edge">
<title>Node2&#45;&gt;Node15</title>
<path fill="none" stroke="#191970" d="M704.6477,-168.4509C722.6402,-149.4401 763.1452,-106.6423 785.695,-82.816"/>
<polygon fill="#191970" stroke="#191970" points="788.2638,-85.1937 792.5956,-75.5249 783.1797,-80.382 788.2638,-85.1937"/>
</g>
<!-- Node3&#45;&gt;Node4 -->
<g id="edge4" class="edge">
<title>Node3&#45;&gt;Node4</title>
<path fill="none" stroke="#191970" d="M537.087,-112.4369C486.9344,-102.7522 409.3492,-87.7703 355.9406,-77.4569"/>
<polygon fill="#191970" stroke="#191970" points="356.4115,-73.9832 345.9292,-75.5237 355.0842,-80.8563 356.4115,-73.9832"/>
</g>
<!-- Node6 -->
<g id="node7" class="node">
<title>Node6</title>
<g id="a_node7"><a xlink:href="Span_8h.html" target="_top" xlink:title="iDynTree/Core/Span.h">
<polygon fill="none" stroke="#000000" points="523.1102,-56.5 523.1102,-75.5 644.1102,-75.5 644.1102,-56.5 523.1102,-56.5"/>
<text text-anchor="middle" x="583.6102" y="-63.5" font-family="FreeSans.ttf" font-size="10.00" fill="#000000">iDynTree/Core/Span.h</text>
</a>
</g>
</g>
<!-- Node3&#45;&gt;Node6 -->
<g id="edge6" class="edge">
<title>Node3&#45;&gt;Node6</title>
<path fill="none" stroke="#191970" d="M586.0877,-112.2455C585.6962,-104.9382 585.1474,-94.6944 584.6658,-85.7046"/>
<polygon fill="#191970" stroke="#191970" points="588.1568,-85.4411 584.1268,-75.6427 581.1669,-85.8156 588.1568,-85.4411"/>
</g>
<!-- Node3&#45;&gt;Node7 -->
<g id="edge18" class="edge">
<title>Node3&#45;&gt;Node7</title>
<path fill="none" stroke="#191970" d="M610.7439,-112.4184C645.6502,-98.7726 712.4264,-73.4625 770.6102,-56 823.0888,-40.2498 884.9638,-25.987 923.2457,-17.6525"/>
<polygon fill="#191970" stroke="#191970" points="924.3538,-20.994 933.3901,-15.4627 922.8768,-14.1516 924.3538,-20.994"/>
</g>
<!-- Node3&#45;&gt;Node15 -->
<g id="edge16" class="edge">
<title>Node3&#45;&gt;Node15</title>
<path fill="none" stroke="#191970" d="M623.57,-112.3733C664.7897,-101.637 730.7828,-84.4481 769.792,-74.2875"/>
<polygon fill="#191970" stroke="#191970" points="770.7715,-77.6493 779.5665,-71.7416 769.0071,-70.8753 770.7715,-77.6493"/>
</g>
<!-- Node3&#45;&gt;Node16 -->
<g id="edge17" class="edge">
<title>Node3&#45;&gt;Node16</title>
<path fill="none" stroke="#191970" d="M667.1596,-113.3421C781.1079,-101.0943 984.8884,-79.1908 1069.3316,-70.1144"/>
<polygon fill="#191970" stroke="#191970" points="1069.9265,-73.5707 1079.4952,-69.022 1069.1784,-66.6108 1069.9265,-73.5707"/>
</g>
<!-- Node17 -->
<g id="node18" class="node">
<title>Node17</title>
<polygon fill="none" stroke="#bfbfbf" points="868.6102,-56.5 868.6102,-75.5 918.6102,-75.5 918.6102,-56.5 868.6102,-56.5"/>
<text text-anchor="middle" x="893.6102" y="-63.5" font-family="FreeSans.ttf" font-size="10.00" fill="#000000">cstring</text>
</g>
<!-- Node3&#45;&gt;Node17 -->
<g id="edge19" class="edge">
<title>Node3&#45;&gt;Node17</title>
<path fill="none" stroke="#191970" d="M639.0366,-112.4369C701.6519,-101.0152 804.6597,-82.2255 858.4395,-72.4155"/>
<polygon fill="#191970" stroke="#191970" points="859.303,-75.8158 868.5126,-70.5781 858.0468,-68.9295 859.303,-75.8158"/>
</g>
<!-- Node5 -->
<g id="node6" class="node">
<title>Node5</title>
<polygon fill="none" stroke="#bfbfbf" points="280.1102,-.5 280.1102,-19.5 333.1102,-19.5 333.1102,-.5 280.1102,-.5"/>
<text text-anchor="middle" x="306.6102" y="-7.5" font-family="FreeSans.ttf" font-size="10.00" fill="#000000">cstddef</text>
</g>
<!-- Node4&#45;&gt;Node5 -->
<g id="edge5" class="edge">
<title>Node4&#45;&gt;Node5</title>
<path fill="none" stroke="#191970" d="M298.3521,-56.2455C299.657,-48.9382 301.4862,-38.6944 303.0916,-29.7046"/>
<polygon fill="#191970" stroke="#191970" points="306.5758,-30.1022 304.8883,-19.6427 299.6848,-28.8717 306.5758,-30.1022"/>
</g>
<!-- Node6&#45;&gt;Node5 -->
<g id="edge10" class="edge">
<title>Node6&#45;&gt;Node5</title>
<path fill="none" stroke="#191970" d="M530.9744,-56.4692C483.0512,-47.6188 410.4029,-33.7694 347.6102,-20 346.1789,-19.6861 344.721,-19.3603 343.2493,-19.0262"/>
<polygon fill="#191970" stroke="#191970" points="344.0088,-15.6095 333.4748,-16.7426 342.4163,-22.4259 344.0088,-15.6095"/>
</g>
<!-- Node6&#45;&gt;Node7 -->
<g id="edge7" class="edge">
<title>Node6&#45;&gt;Node7</title>
<path fill="none" stroke="#191970" d="M644.439,-56.9404C723.3893,-45.1818 858.6687,-25.0338 923.2403,-15.4168"/>
<polygon fill="#191970" stroke="#191970" points="923.9699,-18.8468 933.3451,-13.9118 922.9386,-11.9232 923.9699,-18.8468"/>
</g>
<!-- Node8 -->
<g id="node9" class="node">
<title>Node8</title>
<polygon fill="none" stroke="#bfbfbf" points="784.6102,-.5 784.6102,-19.5 848.6102,-19.5 848.6102,-.5 784.6102,-.5"/>
<text text-anchor="middle" x="816.6102" y="-7.5" font-family="FreeSans.ttf" font-size="10.00" fill="#000000">algorithm</text>
</g>
<!-- Node6&#45;&gt;Node8 -->
<g id="edge8" class="edge">
<title>Node6&#45;&gt;Node8</title>
<path fill="none" stroke="#191970" d="M623.7047,-56.4443C660.4305,-47.6803 716.575,-34.2542 774.3452,-20.2995"/>
<polygon fill="#191970" stroke="#191970" points="775.4865,-23.6245 784.3843,-17.8731 773.8419,-16.8205 775.4865,-23.6245"/>
</g>
<!-- Node9 -->
<g id="node10" class="node">
<title>Node9</title>
<polygon fill="none" stroke="#bfbfbf" points="356.6102,-.5 356.6102,-19.5 398.6102,-19.5 398.6102,-.5 356.6102,-.5"/>
<text text-anchor="middle" x="377.6102" y="-7.5" font-family="FreeSans.ttf" font-size="10.00" fill="#000000">array</text>
</g>
<!-- Node6&#45;&gt;Node9 -->
<g id="edge9" class="edge">
<title>Node6&#45;&gt;Node9</title>
<path fill="none" stroke="#191970" d="M543.9094,-56.42C510.1998,-48.1081 460.3502,-35.4008 408.5516,-20.1526"/>
<polygon fill="#191970" stroke="#191970" points="409.443,-16.7663 398.8605,-17.2763 407.4513,-23.477 409.443,-16.7663"/>
</g>
<!-- Node10 -->
<g id="node11" class="node">
<title>Node10</title>
<polygon fill="none" stroke="#bfbfbf" points="417.1102,-.5 417.1102,-19.5 470.1102,-19.5 470.1102,-.5 417.1102,-.5"/>
<text text-anchor="middle" x="443.6102" y="-7.5" font-family="FreeSans.ttf" font-size="10.00" fill="#000000">iterator</text>
</g>
<!-- Node6&#45;&gt;Node10 -->
<g id="edge11" class="edge">
<title>Node6&#45;&gt;Node10</title>
<path fill="none" stroke="#191970" d="M559.5434,-56.3733C536.7674,-47.2629 502.3758,-33.5062 476.9612,-23.3404"/>
<polygon fill="#191970" stroke="#191970" points="477.9477,-19.9654 467.363,-19.5011 475.3479,-26.4648 477.9477,-19.9654"/>
</g>
<!-- Node11 -->
<g id="node12" class="node">
<title>Node11</title>
<polygon fill="none" stroke="#bfbfbf" points="488.6102,-.5 488.6102,-19.5 532.6102,-19.5 532.6102,-.5 488.6102,-.5"/>
<text text-anchor="middle" x="510.6102" y="-7.5" font-family="FreeSans.ttf" font-size="10.00" fill="#000000">limits</text>
</g>
<!-- Node6&#45;&gt;Node11 -->
<g id="edge12" class="edge">
<title>Node6&#45;&gt;Node11</title>
<path fill="none" stroke="#191970" d="M570.8946,-56.2455C560.0082,-47.8943 544.122,-35.7076 531.3902,-25.9408"/>
<polygon fill="#191970" stroke="#191970" points="533.2448,-22.9523 523.1801,-19.6427 528.9842,-28.5063 533.2448,-22.9523"/>
</g>
<!-- Node12 -->
<g id="node13" class="node">
<title>Node12</title>
<polygon fill="none" stroke="#bfbfbf" points="551.1102,-.5 551.1102,-19.5 616.1102,-19.5 616.1102,-.5 551.1102,-.5"/>
<text text-anchor="middle" x="583.6102" y="-7.5" font-family="FreeSans.ttf" font-size="10.00" fill="#000000">stdexcept</text>
</g>
<!-- Node6&#45;&gt;Node12 -->
<g id="edge13" class="edge">
<title>Node6&#45;&gt;Node12</title>
<path fill="none" stroke="#191970" d="M583.6102,-56.2455C583.6102,-48.9382 583.6102,-38.6944 583.6102,-29.7046"/>
<polygon fill="#191970" stroke="#191970" points="587.1103,-29.6426 583.6102,-19.6427 580.1103,-29.6427 587.1103,-29.6426"/>
</g>
<!-- Node13 -->
<g id="node14" class="node">
<title>Node13</title>
<polygon fill="none" stroke="#bfbfbf" points="634.1102,-.5 634.1102,-19.5 703.1102,-19.5 703.1102,-.5 634.1102,-.5"/>
<text text-anchor="middle" x="668.6102" y="-7.5" font-family="FreeSans.ttf" font-size="10.00" fill="#000000">type_traits</text>
</g>
<!-- Node6&#45;&gt;Node13 -->
<g id="edge14" class="edge">
<title>Node6&#45;&gt;Node13</title>
<path fill="none" stroke="#191970" d="M598.4161,-56.2455C611.3358,-47.7337 630.3033,-35.2375 645.2655,-25.3801"/>
<polygon fill="#191970" stroke="#191970" points="647.549,-28.067 653.974,-19.6427 643.6978,-22.2216 647.549,-28.067"/>
</g>
<!-- Node14 -->
<g id="node15" class="node">
<title>Node14</title>
<polygon fill="none" stroke="#bfbfbf" points="721.1102,-.5 721.1102,-19.5 766.1102,-19.5 766.1102,-.5 721.1102,-.5"/>
<text text-anchor="middle" x="743.6102" y="-7.5" font-family="FreeSans.ttf" font-size="10.00" fill="#000000">utility</text>
</g>
<!-- Node6&#45;&gt;Node14 -->
<g id="edge15" class="edge">
<title>Node6&#45;&gt;Node14</title>
<path fill="none" stroke="#191970" d="M611.1152,-56.3733C638.9291,-46.6384 681.9001,-31.5985 711.3153,-21.3032"/>
<polygon fill="#191970" stroke="#191970" points="712.825,-24.4831 721.1074,-17.876 710.5125,-17.8761 712.825,-24.4831"/>
</g>
<!-- Node18&#45;&gt;Node3 -->
<g id="edge34" class="edge">
<title>Node18&#45;&gt;Node3</title>
<path fill="none" stroke="#191970" d="M590.6337,-224.2032C585.499,-215.1737 578.4831,-201.2108 575.6102,-188 572.2546,-172.5696 575.5644,-154.9166 579.4069,-141.7524"/>
<polygon fill="#191970" stroke="#191970" points="582.8479,-142.4899 582.6254,-131.8974 576.1938,-140.3168 582.8479,-142.4899"/>
</g>
<!-- Node18&#45;&gt;Node15 -->
<g id="edge22" class="edge">
<title>Node18&#45;&gt;Node15</title>
<path fill="none" stroke="#191970" d="M595.8797,-224.4745C595.3222,-210.6704 596.2221,-184.9112 608.6102,-168 608.6959,-167.8831 721.4918,-108.3087 774.583,-80.2719"/>
<polygon fill="#191970" stroke="#191970" points="776.2547,-83.3473 783.463,-75.5826 772.9859,-77.1573 776.2547,-83.3473"/>
</g>
<!-- Node19 -->
<g id="node20" class="node">
<title>Node19</title>
<g id="a_node20"><a xlink:href="GeomVector3_8h.html" target="_top" xlink:title="iDynTree/Core/GeomVector3.h">
<polygon fill="none" stroke="#000000" points="360.1102,-168.5 360.1102,-187.5 523.1102,-187.5 523.1102,-168.5 360.1102,-168.5"/>
<text text-anchor="middle" x="441.6102" y="-175.5" font-family="FreeSans.ttf" font-size="10.00" fill="#000000">iDynTree/Core/GeomVector3.h</text>
</a>
</g>
</g>
<!-- Node18&#45;&gt;Node19 -->
<g id="edge23" class="edge">
<title>Node18&#45;&gt;Node19</title>
<path fill="none" stroke="#191970" d="M569.9648,-224.3733C544.4138,-215.1419 505.659,-201.1402 477.4193,-190.9375"/>
<polygon fill="#191970" stroke="#191970" points="478.5023,-187.6074 467.908,-187.5011 476.1237,-194.1909 478.5023,-187.6074"/>
</g>
<!-- Node20 -->
<g id="node21" class="node">
<title>Node20</title>
<g id="a_node21"><a xlink:href="RotationRaw_8h.html" target="_top" xlink:title="iDynTree/Core/RotationRaw.h">
<polygon fill="none" stroke="#000000" points="829.6102,-168.5 829.6102,-187.5 987.6102,-187.5 987.6102,-168.5 829.6102,-168.5"/>
<text text-anchor="middle" x="908.6102" y="-175.5" font-family="FreeSans.ttf" font-size="10.00" fill="#000000">iDynTree/Core/RotationRaw.h</text>
</a>
</g>
</g>
<!-- Node18&#45;&gt;Node20 -->
<g id="edge25" class="edge">
<title>Node18&#45;&gt;Node20</title>
<path fill="none" stroke="#191970" d="M649.8904,-224.4369C704.0721,-214.712 788.0133,-199.6456 845.4944,-189.3285"/>
<polygon fill="#191970" stroke="#191970" points="846.3254,-192.7353 855.5498,-187.5237 845.0887,-185.8454 846.3254,-192.7353"/>
</g>
<!-- Node19&#45;&gt;Node3 -->
<g id="edge24" class="edge">
<title>Node19&#45;&gt;Node3</title>
<path fill="none" stroke="#191970" d="M466.5366,-168.3733C490.2304,-159.2226 526.0613,-145.3844 552.417,-135.2057"/>
<polygon fill="#191970" stroke="#191970" points="553.9416,-138.3689 562.0091,-131.5011 551.4197,-131.8389 553.9416,-138.3689"/>
</g>
<!-- Node20&#45;&gt;Node15 -->
<g id="edge33" class="edge">
<title>Node20&#45;&gt;Node15</title>
<path fill="none" stroke="#191970" d="M898.8962,-168.1857C889.7429,-158.9105 875.671,-144.5811 863.6102,-132 847.9338,-115.6472 830.2621,-96.7932 817.8078,-83.4346"/>
<polygon fill="#191970" stroke="#191970" points="820.1677,-80.833 810.792,-75.8987 815.0443,-85.6028 820.1677,-80.833"/>
</g>
<!-- Node21 -->
<g id="node22" class="node">
<title>Node21</title>
<g id="a_node22"><a xlink:href="MatrixFixSize_8h.html" target="_top" xlink:title="iDynTree/Core/MatrixFixSize.h">
<polygon fill="none" stroke="#000000" points="944.1102,-112.5 944.1102,-131.5 1105.1102,-131.5 1105.1102,-112.5 944.1102,-112.5"/>
<text text-anchor="middle" x="1024.6102" y="-119.5" font-family="FreeSans.ttf" font-size="10.00" fill="#000000">iDynTree/Core/MatrixFixSize.h</text>
</a>
</g>
</g>
<!-- Node20&#45;&gt;Node21 -->
<g id="edge26" class="edge">
<title>Node20&#45;&gt;Node21</title>
<path fill="none" stroke="#191970" d="M928.5513,-168.3733C947.0889,-159.4241 974.913,-145.9917 995.8516,-135.8835"/>
<polygon fill="#191970" stroke="#191970" points="997.4454,-139.0006 1004.9293,-131.5011 994.4022,-132.6967 997.4454,-139.0006"/>
</g>
<!-- Node21&#45;&gt;Node4 -->
<g id="edge27" class="edge">
<title>Node21&#45;&gt;Node4</title>
<path fill="none" stroke="#191970" d="M943.92,-115.7931C800.14,-104.7331 502.0221,-81.8009 366.4474,-71.3721"/>
<polygon fill="#191970" stroke="#191970" points="366.427,-67.8603 356.1879,-70.5829 365.89,-74.8396 366.427,-67.8603"/>
</g>
<!-- Node21&#45;&gt;Node7 -->
<g id="edge28" class="edge">
<title>Node21&#45;&gt;Node7</title>
<path fill="none" stroke="#191970" d="M1019.0684,-112.4509C1008.2751,-93.8533 984.2707,-52.4919 970.2867,-28.3964"/>
<polygon fill="#191970" stroke="#191970" points="973.1848,-26.417 965.1381,-19.5249 967.1305,-29.9307 973.1848,-26.417"/>
</g>
<!-- Node21&#45;&gt;Node15 -->
<g id="edge30" class="edge">
<title>Node21&#45;&gt;Node15</title>
<path fill="none" stroke="#191970" d="M986.5285,-112.4369C943.3862,-101.6029 873.8454,-84.1398 833.4635,-73.999"/>
<polygon fill="#191970" stroke="#191970" points="834.1688,-70.5675 823.6174,-71.5265 832.4638,-77.3567 834.1688,-70.5675"/>
</g>
<!-- Node21&#45;&gt;Node16 -->
<g id="edge32" class="edge">
<title>Node21&#45;&gt;Node16</title>
<path fill="none" stroke="#191970" d="M1039.0677,-112.2455C1051.6835,-103.7337 1070.2047,-91.2375 1084.8148,-81.3801"/>
<polygon fill="#191970" stroke="#191970" points="1086.9863,-84.1371 1093.3184,-75.6427 1083.0712,-78.3343 1086.9863,-84.1371"/>
</g>
<!-- Node21&#45;&gt;Node17 -->
<g id="edge29" class="edge">
<title>Node21&#45;&gt;Node17</title>
<path fill="none" stroke="#191970" d="M1002.0905,-112.3733C980.873,-103.3032 948.8826,-89.6279 925.1334,-79.4755"/>
<polygon fill="#191970" stroke="#191970" points="926.4069,-76.2136 915.8361,-75.5011 923.6554,-82.6502 926.4069,-76.2136"/>
</g>
<!-- Node21&#45;&gt;Node22 -->
<g id="edge31" class="edge">
<title>Node21&#45;&gt;Node22</title>
<path fill="none" stroke="#191970" d="M1056.4129,-112.3733C1087.818,-102.8668 1135.9358,-88.3015 1169.8495,-78.0357"/>
<polygon fill="#191970" stroke="#191970" points="1170.8906,-81.3775 1179.4476,-75.1303 1168.8625,-74.6777 1170.8906,-81.3775"/>
</g>
<!-- Node24 -->
<g id="node25" class="node">
<title>Node24</title>
<g id="a_node25"><a xlink:href="SpatialMotionVector_8h.html" target="_top" xlink:title="iDynTree/Core/SpatialMotion\lVector.h">
<polygon fill="none" stroke="#000000" points="374.1102,-392.5 374.1102,-422.5 529.1102,-422.5 529.1102,-392.5 374.1102,-392.5"/>
<text text-anchor="start" x="382.1102" y="-410.5" font-family="FreeSans.ttf" font-size="10.00" fill="#000000">iDynTree/Core/SpatialMotion</text>
<text text-anchor="middle" x="451.6102" y="-399.5" font-family="FreeSans.ttf" font-size="10.00" fill="#000000">Vector.h</text>
</a>
</g>
</g>
<!-- Node23&#45;&gt;Node24 -->
<g id="edge38" class="edge">
<title>Node23&#45;&gt;Node24</title>
<path fill="none" stroke="#191970" d="M587.454,-459.3906C564.2523,-450.5279 529.1623,-437.1239 500.4584,-426.1594"/>
<polygon fill="#191970" stroke="#191970" points="501.5859,-422.8435 490.9953,-422.5446 499.088,-429.3826 501.5859,-422.8435"/>
</g>
<!-- Node24&#45;&gt;Node3 -->
<g id="edge39" class="edge">
<title>Node24&#45;&gt;Node3</title>
<path fill="none" stroke="#191970" d="M373.8643,-393.0667C319.1423,-377.8929 255.6102,-347.8248 255.6102,-290 255.6102,-290 255.6102,-290 255.6102,-234 255.6102,-193.7538 282.1567,-187.0474 317.6102,-168 334.2029,-159.0856 433.9772,-143.4966 507.1903,-132.9648"/>
<polygon fill="#191970" stroke="#191970" points="507.9298,-136.3947 517.3332,-131.5135 506.9383,-129.4653 507.9298,-136.3947"/>
</g>
<!-- Node24&#45;&gt;Node19 -->
<g id="edge40" class="edge">
<title>Node24&#45;&gt;Node19</title>
<path fill="none" stroke="#191970" d="M450.9541,-392.4419C449.2076,-352.3599 444.4448,-243.0534 442.4778,-197.9113"/>
<polygon fill="#191970" stroke="#191970" points="445.9736,-197.7363 442.0415,-187.8981 438.9803,-198.041 445.9736,-197.7363"/>
</g>
<!-- Node25 -->
<g id="node26" class="node">
<title>Node25</title>
<g id="a_node26"><a xlink:href="SpatialVector_8h.html" target="_top" xlink:title="iDynTree/Core/SpatialVector.h">
<polygon fill="none" stroke="#000000" points="475.1102,-336.5 475.1102,-355.5 636.1102,-355.5 636.1102,-336.5 475.1102,-336.5"/>
<text text-anchor="middle" x="555.6102" y="-343.5" font-family="FreeSans.ttf" font-size="10.00" fill="#000000">iDynTree/Core/SpatialVector.h</text>
</a>
</g>
</g>
<!-- Node24&#45;&gt;Node25 -->
<g id="edge41" class="edge">
<title>Node24&#45;&gt;Node25</title>
<path fill="none" stroke="#191970" d="M477.0515,-392.4554C493.3386,-382.8241 514.3775,-370.3828 530.5832,-360.7996"/>
<polygon fill="#191970" stroke="#191970" points="532.6678,-363.6331 539.4939,-355.5303 529.1047,-357.6078 532.6678,-363.6331"/>
</g>
<!-- Node25&#45;&gt;Node1 -->
<g id="edge42" class="edge">
<title>Node25&#45;&gt;Node1</title>
<path fill="none" stroke="#191970" d="M586.5533,-336.3733C616.6142,-327.021 662.4128,-312.7725 695.308,-302.5385"/>
<polygon fill="#191970" stroke="#191970" points="696.5621,-305.8139 705.0709,-299.5011 694.4826,-299.1299 696.5621,-305.8139"/>
</g>
<!-- Node25&#45;&gt;Node4 -->
<g id="edge44" class="edge">
<title>Node25&#45;&gt;Node4</title>
<path fill="none" stroke="#191970" d="M510.5708,-336.4707C435.6612,-319.3107 293.6102,-280.6235 293.6102,-234 293.6102,-234 293.6102,-234 293.6102,-178 293.6102,-145.7 294.8725,-108.1791 295.7595,-85.8005"/>
<polygon fill="#191970" stroke="#191970" points="299.2656,-85.7217 296.1804,-75.5861 292.2715,-85.4334 299.2656,-85.7217"/>
</g>
<!-- Node25&#45;&gt;Node16 -->
<g id="edge47" class="edge">
<title>Node25&#45;&gt;Node16</title>
<path fill="none" stroke="#191970" d="M636.3893,-338.4736C687.9173,-331.9961 755.5041,-320.354 812.6102,-300 830.6949,-293.5542 1104.8785,-148.5499 1114.6102,-132 1122.8948,-117.9112 1119.8498,-99.1728 1115.4867,-85.2627"/>
<polygon fill="#191970" stroke="#191970" points="1118.7346,-83.951 1112.0592,-75.7236 1112.1469,-86.318 1118.7346,-83.951"/>
</g>
<!-- Node25&#45;&gt;Node18 -->
<g id="edge43" class="edge">
<title>Node25&#45;&gt;Node18</title>
<path fill="none" stroke="#191970" d="M559.1059,-336.4509C565.8534,-318.0186 580.7866,-277.2254 589.6391,-253.043"/>
<polygon fill="#191970" stroke="#191970" points="592.9725,-254.1187 593.1234,-243.5249 586.3991,-251.7123 592.9725,-254.1187"/>
</g>
<!-- Node25&#45;&gt;Node19 -->
<g id="edge45" class="edge">
<title>Node25&#45;&gt;Node19</title>
<path fill="none" stroke="#191970" d="M549.1545,-336.4862C530.8217,-309.4695 478.2127,-231.9405 454.035,-196.3102"/>
<polygon fill="#191970" stroke="#191970" points="456.7904,-194.1374 448.2792,-187.8279 450.998,-198.0679 456.7904,-194.1374"/>
</g>
<!-- Node25&#45;&gt;Node22 -->
<g id="edge46" class="edge">
<title>Node25&#45;&gt;Node22</title>
<path fill="none" stroke="#191970" d="M636.2863,-340.2504C695.6239,-334.3518 777.6115,-322.6792 846.6102,-300 947.099,-266.9704 967.8395,-245.5213 1056.6102,-188 1108.2864,-154.5151 1163.4834,-107.2898 1191.3117,-82.5658"/>
<polygon fill="#191970" stroke="#191970" points="1193.9165,-84.9317 1199.0352,-75.6554 1189.2489,-79.715 1193.9165,-84.9317"/>
</g>
<!-- Node27 -->
<g id="node28" class="node">
<title>Node27</title>
<g id="a_node28"><a xlink:href="SpatialForceVector_8h.html" target="_top" xlink:title="iDynTree/Core/SpatialForce\lVector.h">
<polygon fill="none" stroke="#000000" points="207.6102,-392.5 207.6102,-422.5 355.6102,-422.5 355.6102,-392.5 207.6102,-392.5"/>
<text text-anchor="start" x="215.6102" y="-410.5" font-family="FreeSans.ttf" font-size="10.00" fill="#000000">iDynTree/Core/SpatialForce</text>
<text text-anchor="middle" x="281.6102" y="-399.5" font-family="FreeSans.ttf" font-size="10.00" fill="#000000">Vector.h</text>
</a>
</g>
</g>
<!-- Node26&#45;&gt;Node27 -->
<g id="edge49" class="edge">
<title>Node26&#45;&gt;Node27</title>
<path fill="none" stroke="#191970" d="M125.5165,-459.3906C152.5245,-450.4123 193.5517,-436.7735 226.7672,-425.7316"/>
<polygon fill="#191970" stroke="#191970" points="227.9689,-429.0205 236.3541,-422.5446 225.7606,-422.378 227.9689,-429.0205"/>
</g>
<!-- Node27&#45;&gt;Node3 -->
<g id="edge50" class="edge">
<title>Node27&#45;&gt;Node3</title>
<path fill="none" stroke="#191970" d="M266.7665,-392.2253C247.8602,-371.0891 217.6102,-330.8831 217.6102,-290 217.6102,-290 217.6102,-290 217.6102,-234 217.6102,-194.6547 241.975,-186.6669 276.6102,-168 295.7104,-157.7058 411.3693,-142.3803 495.838,-132.2904"/>
<polygon fill="#191970" stroke="#191970" points="496.4584,-135.7414 505.9759,-131.0866 495.6329,-128.7903 496.4584,-135.7414"/>
</g>
<!-- Node27&#45;&gt;Node19 -->
<g id="edge51" class="edge">
<title>Node27&#45;&gt;Node19</title>
<path fill="none" stroke="#191970" d="M292.1083,-392.4419C320.4073,-351.8504 398.2023,-240.2633 428.907,-196.2212"/>
<polygon fill="#191970" stroke="#191970" points="431.8616,-198.103 434.7096,-187.8981 426.1194,-194.0997 431.8616,-198.103"/>
</g>
<!-- Node27&#45;&gt;Node25 -->
<g id="edge52" class="edge">
<title>Node27&#45;&gt;Node25</title>
<path fill="none" stroke="#191970" d="M348.6382,-392.4554C396.2607,-381.7664 459.3026,-367.6165 503.2452,-357.7535"/>
<polygon fill="#191970" stroke="#191970" points="504.1593,-361.1355 513.15,-355.5303 502.6262,-354.3054 504.1593,-361.1355"/>
</g>
<!-- Node28&#45;&gt;Node24 -->
<g id="edge54" class="edge">
<title>Node28&#45;&gt;Node24</title>
<path fill="none" stroke="#191970" d="M458.3602,-459.3906C457.4279,-452.2234 456.1092,-442.0862 454.8845,-432.671"/>
<polygon fill="#191970" stroke="#191970" points="458.328,-432.0095 453.5672,-422.5446 451.3865,-432.9126 458.328,-432.0095"/>
</g>
<!-- Node29&#45;&gt;Node27 -->
<g id="edge56" class="edge">
<title>Node29&#45;&gt;Node27</title>
<path fill="none" stroke="#191970" d="M275.704,-459.3906C276.5198,-452.2234 277.6736,-442.0862 278.7452,-432.671"/>
<polygon fill="#191970" stroke="#191970" points="282.2444,-432.8763 279.8978,-422.5446 275.2893,-432.0846 282.2444,-432.8763"/>
</g>
<!-- Node30&#45;&gt;Node3 -->
<g id="edge63" class="edge">
<title>Node30&#45;&gt;Node3</title>
<path fill="none" stroke="#191970" d="M743.6465,-459.4619C671.6245,-435.5866 488.5759,-373.8831 465.6102,-356 394.2176,-300.4073 377.3616,-274.4397 350.6102,-188 347.9823,-179.5085 344.958,-174.8603 350.6102,-168 360.5468,-155.9396 439.6019,-142.25 503.5185,-132.9632"/>
<polygon fill="#191970" stroke="#191970" points="504.2325,-136.3967 513.6338,-131.5115 503.238,-129.4677 504.2325,-136.3967"/>
</g>
<!-- Node30&#45;&gt;Node4 -->
<g id="edge74" class="edge">
<title>Node30&#45;&gt;Node4</title>
<path fill="none" stroke="#191970" d="M691.6726,-459.8533C688.6139,-459.5564 685.585,-459.2708 682.6102,-459 626.3676,-453.8807 221.8048,-455.4885 175.6102,-423 145.0103,-401.4791 141.6102,-383.41 141.6102,-346 141.6102,-346 141.6102,-346 141.6102,-178 141.6102,-124.4908 203.0488,-93.9645 248.5642,-78.6916"/>
<polygon fill="#191970" stroke="#191970" points="249.8408,-81.9579 258.2956,-75.5729 247.7045,-75.2918 249.8408,-81.9579"/>
</g>
<!-- Node30&#45;&gt;Node21 -->
<g id="edge66" class="edge">
<title>Node30&#45;&gt;Node21</title>
<path fill="none" stroke="#191970" d="M835.7844,-459.4633C919.3851,-443.1243 1063.9489,-401.1453 1130.6102,-300 1164.01,-249.3225 1138.7196,-210.7239 1095.6102,-168 1083.1504,-155.6516 1066.8623,-144.8127 1053.0302,-136.7626"/>
<polygon fill="#191970" stroke="#191970" points="1054.357,-133.4938 1043.9237,-131.6508 1050.9305,-139.5978 1054.357,-133.4938"/>
</g>
<!-- Node30&#45;&gt;Node24 -->
<g id="edge67" class="edge">
<title>Node30&#45;&gt;Node24</title>
<path fill="none" stroke="#191970" d="M722.8062,-459.4581C673.9475,-450.0973 598.405,-435.6242 539.4455,-424.3283"/>
<polygon fill="#191970" stroke="#191970" points="539.8677,-420.8456 529.3878,-422.4013 538.5505,-427.7205 539.8677,-420.8456"/>
</g>
<!-- Node30&#45;&gt;Node27 -->
<g id="edge68" class="edge">
<title>Node30&#45;&gt;Node27</title>
<path fill="none" stroke="#191970" d="M692.0555,-459.9918C586.8486,-448.2175 411.4228,-428.5489 365.7817,-422.9287"/>
<polygon fill="#191970" stroke="#191970" points="366.1455,-419.4466 355.7771,-421.6254 365.2412,-426.388 366.1455,-419.4466"/>
</g>
<!-- Node31 -->
<g id="node32" class="node">
<title>Node31</title>
<polygon fill="none" stroke="#bfbfbf" points="776.1102,-398 776.1102,-417 853.1102,-417 853.1102,-398 776.1102,-398"/>
<text text-anchor="middle" x="814.6102" y="-405" font-family="FreeSans.ttf" font-size="10.00" fill="#000000">Eigen/Dense</text>
</g>
<!-- Node30&#45;&gt;Node31 -->
<g id="edge59" class="edge">
<title>Node30&#45;&gt;Node31</title>
<path fill="none" stroke="#191970" d="M779.1727,-459.3906C785.301,-450.417 794.6087,-436.7879 802.1474,-425.7491"/>
<polygon fill="#191970" stroke="#191970" points="805.2059,-427.4768 807.9552,-417.2449 799.4252,-423.529 805.2059,-427.4768"/>
</g>
<!-- Node32 -->
<g id="node33" class="node">
<title>Node32</title>
<g id="a_node33"><a xlink:href="VectorDynSize_8h.html" target="_top" xlink:title="iDynTree/Core/VectorDynSize.h">
<polygon fill="none" stroke="#000000" points="321.1102,-112.5 321.1102,-131.5 488.1102,-131.5 488.1102,-112.5 321.1102,-112.5"/>
<text text-anchor="middle" x="404.6102" y="-119.5" font-family="FreeSans.ttf" font-size="10.00" fill="#000000">iDynTree/Core/VectorDynSize.h</text>
</a>
</g>
</g>
<!-- Node30&#45;&gt;Node32 -->
<g id="edge60" class="edge">
<title>Node30&#45;&gt;Node32</title>
<path fill="none" stroke="#191970" d="M691.6714,-459.8661C688.613,-459.5657 685.5845,-459.2758 682.6102,-459 628.9142,-454.0216 239.8011,-457.8046 198.6102,-423 171.686,-400.2502 179.6102,-381.2487 179.6102,-346 179.6102,-346 179.6102,-346 179.6102,-234 179.6102,-171.872 249.2116,-144.2071 310.9921,-131.8883"/>
<polygon fill="#191970" stroke="#191970" points="311.6469,-135.3266 320.8285,-130.04 310.3542,-128.447 311.6469,-135.3266"/>
</g>
<!-- Node33 -->
<g id="node34" class="node">
<title>Node33</title>
<g id="a_node34"><a xlink:href="MatrixDynSize_8h.html" target="_top" xlink:title="iDynTree/Core/MatrixDynSize.h">
<polygon fill="none" stroke="#000000" points="935.1102,-280.5 935.1102,-299.5 1102.1102,-299.5 1102.1102,-280.5 935.1102,-280.5"/>
<text text-anchor="middle" x="1018.6102" y="-287.5" font-family="FreeSans.ttf" font-size="10.00" fill="#000000">iDynTree/Core/MatrixDynSize.h</text>
</a>
</g>
</g>
<!-- Node30&#45;&gt;Node33 -->
<g id="edge64" class="edge">
<title>Node30&#45;&gt;Node33</title>
<path fill="none" stroke="#191970" d="M768.2296,-459.2634C761.8052,-443.3422 752.1689,-411.5555 767.6102,-392 810.3655,-337.8531 855.3007,-383.4191 918.6102,-356 948.7367,-342.9524 979.7255,-320.9068 999.0625,-305.9173"/>
<polygon fill="#191970" stroke="#191970" points="1001.4031,-308.5287 1007.0822,-299.5845 997.065,-303.035 1001.4031,-308.5287"/>
</g>
<!-- Node34 -->
<g id="node35" class="node">
<title>Node34</title>
<g id="a_node35"><a xlink:href="Transform_8h.html" target="_top" xlink:title="iDynTree/Core/Transform.h">
<polygon fill="none" stroke="#000000" points="763.6102,-336.5 763.6102,-355.5 909.6102,-355.5 909.6102,-336.5 763.6102,-336.5"/>
<text text-anchor="middle" x="836.6102" y="-343.5" font-family="FreeSans.ttf" font-size="10.00" fill="#000000">iDynTree/Core/Transform.h</text>
</a>
</g>
</g>
<!-- Node30&#45;&gt;Node34 -->
<g id="edge69" class="edge">
<title>Node30&#45;&gt;Node34</title>
<path fill="none" stroke="#191970" d="M761.2649,-459.3997C745.029,-444.4683 718.6881,-415.007 733.6102,-392 743.8159,-376.2649 760.7997,-365.8651 778.0624,-359.0109"/>
<polygon fill="#191970" stroke="#191970" points="779.4208,-362.2417 787.6401,-355.5564 777.0458,-355.6569 779.4208,-362.2417"/>
</g>
<!-- Node32&#45;&gt;Node6 -->
<g id="edge61" class="edge">
<title>Node32&#45;&gt;Node6</title>
<path fill="none" stroke="#191970" d="M435.3814,-112.3733C465.2753,-103.021 510.8195,-88.7725 543.5319,-78.5385"/>
<polygon fill="#191970" stroke="#191970" points="544.7418,-81.8273 553.2406,-75.5011 542.6517,-75.1466 544.7418,-81.8273"/>
</g>
<!-- Node32&#45;&gt;Node15 -->
<g id="edge62" class="edge">
<title>Node32&#45;&gt;Node15</title>
<path fill="none" stroke="#191970" d="M472.4059,-112.4369C558.8361,-100.2452 704.7804,-79.6586 769.2907,-70.5589"/>
<polygon fill="#191970" stroke="#191970" points="769.87,-74.0119 779.2831,-69.1494 768.8922,-67.0806 769.87,-74.0119"/>
</g>
<!-- Node33&#45;&gt;Node15 -->
<g id="edge65" class="edge">
<title>Node33&#45;&gt;Node15</title>
<path fill="none" stroke="#191970" d="M1023.2698,-280.4027C1033.2382,-258.3423 1053.8352,-203.2184 1029.6102,-168 1004.2568,-131.141 976.6089,-149.9024 935.6102,-132 897.9341,-115.5484 855.5337,-94.1625 828.7084,-80.2624"/>
<polygon fill="#191970" stroke="#191970" points="830.0538,-77.0169 819.5676,-75.503 826.821,-83.2258 830.0538,-77.0169"/>
</g>
<!-- Node34&#45;&gt;Node1 -->
<g id="edge70" class="edge">
<title>Node34&#45;&gt;Node1</title>
<path fill="none" stroke="#191970" d="M819.0174,-336.2455C803.2312,-327.4928 779.8464,-314.527 761.8515,-304.5496"/>
<polygon fill="#191970" stroke="#191970" points="763.4443,-301.4308 753.0015,-299.6427 760.05,-307.5528 763.4443,-301.4308"/>
</g>
<!-- Node34&#45;&gt;Node15 -->
<g id="edge73" class="edge">
<title>Node34&#45;&gt;Node15</title>
<path fill="none" stroke="#191970" d="M849.9032,-336.3424C892.6787,-304.7242 1022.513,-204.2638 996.6102,-168 967.9358,-127.8558 935.3339,-154.8477 891.6102,-132 887.9042,-130.0634 848.2643,-100.7217 822.8432,-81.8193"/>
<polygon fill="#191970" stroke="#191970" points="824.6386,-78.7926 814.5266,-75.6306 820.4597,-84.4084 824.6386,-78.7926"/>
</g>
<!-- Node34&#45;&gt;Node18 -->
<g id="edge71" class="edge">
<title>Node34&#45;&gt;Node18</title>
<path fill="none" stroke="#191970" d="M763.2765,-336.6191C729.6592,-329.9864 690.3287,-318.788 658.6102,-300 638.2236,-287.9242 620.3515,-267.1906 609.0996,-252.1793"/>
<polygon fill="#191970" stroke="#191970" points="611.6736,-249.7649 602.9859,-243.7008 605.9958,-253.8591 611.6736,-249.7649"/>
</g>
<!-- Node34&#45;&gt;Node21 -->
<g id="edge72" class="edge">
<title>Node34&#45;&gt;Node21</title>
<path fill="none" stroke="#191970" d="M909.8657,-338.6262C986.8539,-330.1219 1098.63,-315.3319 1111.6102,-300 1155.0016,-248.7476 1081.6093,-172.1421 1044.3229,-138.6628"/>
<polygon fill="#191970" stroke="#191970" points="1046.3723,-135.8045 1036.5487,-131.8363 1041.7536,-141.0645 1046.3723,-135.8045"/>
</g>
</g>
</svg>
