<?xml version="1.0" encoding="UTF-8" standalone="no"?>
<!DOCTYPE svg PUBLIC "-//W3C//DTD SVG 1.1//EN"
 "http://www.w3.org/Graphics/SVG/1.1/DTD/svg11.dtd">
<!-- Generated by graphviz version 2.40.1 (20161225.0304)
 -->
<!-- Title: PredictSensorsMeasurements.cpp Pages: 1 -->
<svg width="2207pt" height="856pt"
 viewBox="0.00 0.00 2206.50 856.00" xmlns="http://www.w3.org/2000/svg" xmlns:xlink="http://www.w3.org/1999/xlink">
<g id="graph0" class="graph" transform="scale(1 1) rotate(0) translate(4 852)">
<title>PredictSensorsMeasurements.cpp</title>
<!-- Node0 -->
<g id="node1" class="node">
<title>Node0</title>
<polygon fill="#bfbfbf" stroke="#000000" points="635.5,-828.5 635.5,-847.5 816.5,-847.5 816.5,-828.5 635.5,-828.5"/>
<text text-anchor="middle" x="726" y="-835.5" font-family="FreeSans.ttf" font-size="10.00" fill="#000000">PredictSensorsMeasurements.cpp</text>
</g>
<!-- Node1 -->
<g id="node2" class="node">
<title>Node1</title>
<g id="a_node2"><a xlink:href="PredictSensorsMeasurements_8h.html" target="_top" xlink:title="iDynTree/Sensors/Predict\lSensorsMeasurements.h">
<polygon fill="none" stroke="#000000" points="294.5,-638.5 294.5,-668.5 431.5,-668.5 431.5,-638.5 294.5,-638.5"/>
<text text-anchor="start" x="302.5" y="-656.5" font-family="FreeSans.ttf" font-size="10.00" fill="#000000">iDynTree/Sensors/Predict</text>
<text text-anchor="middle" x="363" y="-645.5" font-family="FreeSans.ttf" font-size="10.00" fill="#000000">SensorsMeasurements.h</text>
</a>
</g>
</g>
<!-- Node0&#45;&gt;Node1 -->
<g id="edge1" class="edge">
<title>Node0&#45;&gt;Node1</title>
<path fill="none" stroke="#191970" d="M635.3588,-836.4629C494.5017,-833.1235 236.2093,-822.8254 208,-792 165.4486,-745.5024 253.1059,-697.9838 313.1082,-672.4804"/>
<polygon fill="#191970" stroke="#191970" points="314.5901,-675.6547 322.4766,-668.5798 311.8995,-669.1925 314.5901,-675.6547"/>
</g>
<!-- Node27 -->
<g id="node23" class="node">
<title>Node27</title>
<g id="a_node23"><a xlink:href="SpatialMotionVector_8h.html" target="_top" xlink:title="iDynTree/Core/SpatialMotion\lVector.h">
<polygon fill="none" stroke="#000000" points="388.5,-403.5 388.5,-433.5 543.5,-433.5 543.5,-403.5 388.5,-403.5"/>
<text text-anchor="start" x="396.5" y="-421.5" font-family="FreeSans.ttf" font-size="10.00" fill="#000000">iDynTree/Core/SpatialMotion</text>
<text text-anchor="middle" x="466" y="-410.5" font-family="FreeSans.ttf" font-size="10.00" fill="#000000">Vector.h</text>
</a>
</g>
</g>
<!-- Node0&#45;&gt;Node27 -->
<g id="edge58" class="edge">
<title>Node0&#45;&gt;Node27</title>
<path fill="none" stroke="#191970" d="M635.4223,-836.7556C484.6616,-833.7913 195.4087,-823.9615 162,-792 94.1198,-727.0603 102.6402,-669.032 138,-582 164.145,-517.6484 186.5484,-504.2095 247,-470 287.0451,-447.3385 336.6107,-434.6278 378.4545,-427.5086"/>
<polygon fill="#191970" stroke="#191970" points="379.0498,-430.9578 388.3605,-425.9019 377.9291,-424.0481 379.0498,-430.9578"/>
</g>
<!-- Node29 -->
<g id="node25" class="node">
<title>Node29</title>
<g id="a_node25"><a xlink:href="SpatialAcc_8h.html" target="_top" xlink:title="iDynTree/Core/SpatialAcc.h">
<polygon fill="none" stroke="#000000" points="256,-470.5 256,-489.5 404,-489.5 404,-470.5 256,-470.5"/>
<text text-anchor="middle" x="330" y="-477.5" font-family="FreeSans.ttf" font-size="10.00" fill="#000000">iDynTree/Core/SpatialAcc.h</text>
</a>
</g>
</g>
<!-- Node0&#45;&gt;Node29 -->
<g id="edge125" class="edge">
<title>Node0&#45;&gt;Node29</title>
<path fill="none" stroke="#191970" d="M635.4841,-836.8435C489.372,-834.0267 214.7915,-824.4321 185,-792 99.4841,-698.9043 254.4588,-546.5013 310.7406,-496.4749"/>
<polygon fill="#191970" stroke="#191970" points="313.3689,-498.8254 318.5821,-489.6019 308.7549,-493.5612 313.3689,-498.8254"/>
</g>
<!-- Node35 -->
<g id="node31" class="node">
<title>Node35</title>
<g id="a_node31"><a xlink:href="AccelerometerSensor_8h.html" target="_top" xlink:title="iDynTree/Sensors/Accelerometer\lSensor.h">
<polygon fill="none" stroke="#000000" points="402.5,-761.5 402.5,-791.5 577.5,-791.5 577.5,-761.5 402.5,-761.5"/>
<text text-anchor="start" x="410.5" y="-779.5" font-family="FreeSans.ttf" font-size="10.00" fill="#000000">iDynTree/Sensors/Accelerometer</text>
<text text-anchor="middle" x="490" y="-768.5" font-family="FreeSans.ttf" font-size="10.00" fill="#000000">Sensor.h</text>
</a>
</g>
</g>
<!-- Node0&#45;&gt;Node35 -->
<g id="edge59" class="edge">
<title>Node0&#45;&gt;Node35</title>
<path fill="none" stroke="#191970" d="M689.3839,-828.4581C654.3111,-819.3183 600.5356,-805.3048 557.6671,-794.1336"/>
<polygon fill="#191970" stroke="#191970" points="558.4214,-790.7133 547.8619,-791.5784 556.6561,-797.4871 558.4214,-790.7133"/>
</g>
<!-- Node36 -->
<g id="node32" class="node">
<title>Node36</title>
<g id="a_node32"><a xlink:href="Sensors_8h.html" target="_top" xlink:title="iDynTree/Sensors/Sensors.h">
<polygon fill="none" stroke="#000000" points="620.5,-705.5 620.5,-724.5 771.5,-724.5 771.5,-705.5 620.5,-705.5"/>
<text text-anchor="middle" x="696" y="-712.5" font-family="FreeSans.ttf" font-size="10.00" fill="#000000">iDynTree/Sensors/Sensors.h</text>
</a>
</g>
</g>
<!-- Node0&#45;&gt;Node36 -->
<g id="edge100" class="edge">
<title>Node0&#45;&gt;Node36</title>
<path fill="none" stroke="#191970" d="M735.6834,-828.3335C749.2521,-813.5616 770.9893,-784.5992 759,-761 752.139,-747.4951 739.2468,-737.0099 726.9034,-729.4839"/>
<polygon fill="#191970" stroke="#191970" points="728.5367,-726.3868 718.1066,-724.5258 725.0997,-732.4849 728.5367,-726.3868"/>
</g>
<!-- Node38 -->
<g id="node34" class="node">
<title>Node38</title>
<g id="a_node34"><a xlink:href="Model_8h.html" target="_top" xlink:title="iDynTree/Model/Model.h">
<polygon fill="none" stroke="#000000" points="1189.5,-644 1189.5,-663 1322.5,-663 1322.5,-644 1189.5,-644"/>
<text text-anchor="middle" x="1256" y="-651" font-family="FreeSans.ttf" font-size="10.00" fill="#000000">iDynTree/Model/Model.h</text>
</a>
</g>
</g>
<!-- Node0&#45;&gt;Node38 -->
<g id="edge101" class="edge">
<title>Node0&#45;&gt;Node38</title>
<path fill="none" stroke="#191970" d="M810.8539,-828.4607C860.195,-821.4376 923.085,-809.9277 977,-792 1076.3423,-758.967 1184.9879,-696.6898 1232.0545,-668.2897"/>
<polygon fill="#191970" stroke="#191970" points="1233.8982,-671.2649 1240.6257,-663.08 1230.2625,-665.2831 1233.8982,-671.2649"/>
</g>
<!-- Node47 -->
<g id="node40" class="node">
<title>Node47</title>
<g id="a_node40"><a xlink:href="GyroscopeSensor_8h.html" target="_top" xlink:title="iDynTree/Sensors/Gyroscope\lSensor.h">
<polygon fill="none" stroke="#000000" points="595.5,-761.5 595.5,-791.5 750.5,-791.5 750.5,-761.5 595.5,-761.5"/>
<text text-anchor="start" x="603.5" y="-779.5" font-family="FreeSans.ttf" font-size="10.00" fill="#000000">iDynTree/Sensors/Gyroscope</text>
<text text-anchor="middle" x="673" y="-768.5" font-family="FreeSans.ttf" font-size="10.00" fill="#000000">Sensor.h</text>
</a>
</g>
</g>
<!-- Node0&#45;&gt;Node47 -->
<g id="edge89" class="edge">
<title>Node0&#45;&gt;Node47</title>
<path fill="none" stroke="#191970" d="M717.7188,-828.3906C711.0108,-820.6068 701.2841,-809.3202 692.6141,-799.2597"/>
<polygon fill="#191970" stroke="#191970" points="695.1448,-796.8349 685.9653,-791.5446 689.8422,-801.4046 695.1448,-796.8349"/>
</g>
<!-- Node48 -->
<g id="node41" class="node">
<title>Node48</title>
<g id="a_node41"><a xlink:href="ThreeAxisAngularAccelerometerSensor_8h.html" target="_top" xlink:title="iDynTree/Sensors/ThreeAxis\lAngularAccelerometerSensor.h">
<polygon fill="none" stroke="#000000" points="217.5,-761.5 217.5,-791.5 384.5,-791.5 384.5,-761.5 217.5,-761.5"/>
<text text-anchor="start" x="225.5" y="-779.5" font-family="FreeSans.ttf" font-size="10.00" fill="#000000">iDynTree/Sensors/ThreeAxis</text>
<text text-anchor="middle" x="301" y="-768.5" font-family="FreeSans.ttf" font-size="10.00" fill="#000000">AngularAccelerometerSensor.h</text>
</a>
</g>
</g>
<!-- Node0&#45;&gt;Node48 -->
<g id="edge93" class="edge">
<title>Node0&#45;&gt;Node48</title>
<path fill="none" stroke="#191970" d="M652.4999,-828.483C587.2727,-819.8914 489.1163,-806.607 394.7254,-792.2422"/>
<polygon fill="#191970" stroke="#191970" points="395.1339,-788.7641 384.7199,-790.7132 394.0764,-795.6837 395.1339,-788.7641"/>
</g>
<!-- Node49 -->
<g id="node42" class="node">
<title>Node49</title>
<g id="a_node42"><a xlink:href="SixAxisForceTorqueSensor_8h.html" target="_top" xlink:title="iDynTree/Sensors/SixAxis\lForceTorqueSensor.h">
<polygon fill="none" stroke="#000000" points="807,-761.5 807,-791.5 947,-791.5 947,-761.5 807,-761.5"/>
<text text-anchor="start" x="815" y="-779.5" font-family="FreeSans.ttf" font-size="10.00" fill="#000000">iDynTree/Sensors/SixAxis</text>
<text text-anchor="middle" x="877" y="-768.5" font-family="FreeSans.ttf" font-size="10.00" fill="#000000">ForceTorqueSensor.h</text>
</a>
</g>
</g>
<!-- Node0&#45;&gt;Node49 -->
<g id="edge96" class="edge">
<title>Node0&#45;&gt;Node49</title>
<path fill="none" stroke="#191970" d="M749.5938,-828.3906C771.1651,-819.6049 803.6933,-806.3567 830.4822,-795.446"/>
<polygon fill="#191970" stroke="#191970" points="832.1201,-798.5581 840.0612,-791.5446 829.4797,-792.0752 832.1201,-798.5581"/>
</g>
<!-- Node50 -->
<g id="node43" class="node">
<title>Node50</title>
<g id="a_node43"><a xlink:href="Traversal_8h.html" target="_top" xlink:title="iDynTree/Model/Traversal.h">
<polygon fill="none" stroke="#000000" points="1886,-582.5 1886,-601.5 2034,-601.5 2034,-582.5 1886,-582.5"/>
<text text-anchor="middle" x="1960" y="-589.5" font-family="FreeSans.ttf" font-size="10.00" fill="#000000">iDynTree/Model/Traversal.h</text>
</a>
</g>
</g>
<!-- Node0&#45;&gt;Node50 -->
<g id="edge102" class="edge">
<title>Node0&#45;&gt;Node50</title>
<path fill="none" stroke="#191970" d="M816.6993,-828.8015C890.7507,-820.756 997.9796,-807.8843 1091,-792 1346.0384,-748.4494 1408.2058,-728.5055 1660,-669 1750.7743,-647.5477 1856.2731,-619.8138 1914.864,-604.1607"/>
<polygon fill="#191970" stroke="#191970" points="1915.7944,-607.5349 1924.5497,-601.5689 1913.9849,-600.7729 1915.7944,-607.5349"/>
</g>
<!-- Node51 -->
<g id="node44" class="node">
<title>Node51</title>
<g id="a_node44"><a xlink:href="ForwardKinematics_8h.html" target="_top" xlink:title="iDynTree/Model/ForwardKinematics.h">
<polygon fill="none" stroke="#000000" points="2001.5,-705.5 2001.5,-724.5 2198.5,-724.5 2198.5,-705.5 2001.5,-705.5"/>
<text text-anchor="middle" x="2100" y="-712.5" font-family="FreeSans.ttf" font-size="10.00" fill="#000000">iDynTree/Model/ForwardKinematics.h</text>
</a>
</g>
</g>
<!-- Node0&#45;&gt;Node51 -->
<g id="edge105" class="edge">
<title>Node0&#45;&gt;Node51</title>
<path fill="none" stroke="#191970" d="M816.6055,-837.5924C1087.0994,-835.9715 1876.8845,-828.1619 1987,-792 2025.031,-779.5107 2061.9862,-750.0686 2082.7836,-731.4243"/>
<polygon fill="#191970" stroke="#191970" points="2085.1783,-733.9771 2090.1764,-724.6352 2080.4435,-728.8213 2085.1783,-733.9771"/>
</g>
<!-- Node52 -->
<g id="node45" class="node">
<title>Node52</title>
<g id="a_node45"><a xlink:href="FreeFloatingState_8h.html" target="_top" xlink:title="iDynTree/Model/FreeFloating\lState.h">
<polygon fill="none" stroke="#000000" points="882,-638.5 882,-668.5 1036,-668.5 1036,-638.5 882,-638.5"/>
<text text-anchor="start" x="890" y="-656.5" font-family="FreeSans.ttf" font-size="10.00" fill="#000000">iDynTree/Model/FreeFloating</text>
<text text-anchor="middle" x="959" y="-645.5" font-family="FreeSans.ttf" font-size="10.00" fill="#000000">State.h</text>
</a>
</g>
</g>
<!-- Node0&#45;&gt;Node52 -->
<g id="edge107" class="edge">
<title>Node0&#45;&gt;Node52</title>
<path fill="none" stroke="#191970" d="M816.6616,-831.3484C873.0002,-825.1348 938.0175,-813.457 956,-792 982.5327,-760.3408 974.8142,-708.8223 966.8602,-678.3416"/>
<polygon fill="#191970" stroke="#191970" points="970.1702,-677.183 964.0927,-668.5046 963.4318,-679.0788 970.1702,-677.183"/>
</g>
<!-- Node54 -->
<g id="node47" class="node">
<title>Node54</title>
<g id="a_node47"><a xlink:href="Dynamics_8h.html" target="_top" xlink:title="iDynTree/Model/Dynamics.h">
<polygon fill="none" stroke="#000000" points="1341,-644 1341,-663 1493,-663 1493,-644 1341,-644"/>
<text text-anchor="middle" x="1417" y="-651" font-family="FreeSans.ttf" font-size="10.00" fill="#000000">iDynTree/Model/Dynamics.h</text>
</a>
</g>
</g>
<!-- Node0&#45;&gt;Node54 -->
<g id="edge119" class="edge">
<title>Node0&#45;&gt;Node54</title>
<path fill="none" stroke="#191970" d="M816.7818,-828.6746C876.9813,-821.3816 957.4058,-809.5069 1027,-792 1163.5325,-757.6543 1319.5363,-694.7471 1385.2199,-667.1209"/>
<polygon fill="#191970" stroke="#191970" points="1386.7578,-670.2707 1394.6065,-663.1539 1384.0328,-663.8229 1386.7578,-670.2707"/>
</g>
<!-- Node56 -->
<g id="node49" class="node">
<title>Node56</title>
<g id="a_node49"><a xlink:href="EigenHelpers_8h.html" target="_top" xlink:title="iDynTree/Core/EigenHelpers.h">
<polygon fill="none" stroke="#000000" points="790.5,-470.5 790.5,-489.5 951.5,-489.5 951.5,-470.5 790.5,-470.5"/>
<text text-anchor="middle" x="871" y="-477.5" font-family="FreeSans.ttf" font-size="10.00" fill="#000000">iDynTree/Core/EigenHelpers.h</text>
</a>
</g>
</g>
<!-- Node0&#45;&gt;Node56 -->
<g id="edge126" class="edge">
<title>Node0&#45;&gt;Node56</title>
<path fill="none" stroke="#191970" d="M635.3703,-836.7134C491.0551,-833.7137 222.2358,-823.8676 193,-792 183.6859,-781.8474 190.0291,-774.4537 193,-761 207.7202,-694.3392 225.6469,-671.7276 285,-638 434.2021,-553.2154 496.7844,-599.0127 660,-546 682.3715,-538.7337 686.7632,-533.6688 709,-526 746.948,-512.9129 790.7886,-500.6323 823.286,-492.0573"/>
<polygon fill="#191970" stroke="#191970" points="824.2001,-495.4361 832.9882,-489.5183 822.4279,-488.6641 824.2001,-495.4361"/>
</g>
<!-- Node2 -->
<g id="node3" class="node">
<title>Node2</title>
<g id="a_node3"><a xlink:href="LinkState_8h.html" target="_top" xlink:title="iDynTree/Model/LinkState.h">
<polygon fill="none" stroke="#000000" points="585.5,-582.5 585.5,-601.5 734.5,-601.5 734.5,-582.5 585.5,-582.5"/>
<text text-anchor="middle" x="660" y="-589.5" font-family="FreeSans.ttf" font-size="10.00" fill="#000000">iDynTree/Model/LinkState.h</text>
</a>
</g>
</g>
<!-- Node1&#45;&gt;Node2 -->
<g id="edge2" class="edge">
<title>Node1&#45;&gt;Node2</title>
<path fill="none" stroke="#191970" d="M431.5107,-639.3134C483.8095,-628.4839 554.9748,-613.7476 603.9144,-603.6137"/>
<polygon fill="#191970" stroke="#191970" points="604.9229,-606.9792 614.0054,-601.5241 603.5034,-600.1246 604.9229,-606.9792"/>
</g>
<!-- Node22 -->
<g id="node8" class="node">
<title>Node22</title>
<g id="a_node8"><a xlink:href="GeomVector3_8h.html" target="_top" xlink:title="iDynTree/Core/GeomVector3.h">
<polygon fill="none" stroke="#000000" points="203.5,-174 203.5,-193 366.5,-193 366.5,-174 203.5,-174"/>
<text text-anchor="middle" x="285" y="-181" font-family="FreeSans.ttf" font-size="10.00" fill="#000000">iDynTree/Core/GeomVector3.h</text>
</a>
</g>
</g>
<!-- Node1&#45;&gt;Node22 -->
<g id="edge57" class="edge">
<title>Node1&#45;&gt;Node22</title>
<path fill="none" stroke="#191970" d="M347.5966,-638.4663C331.518,-623.21 305.1818,-599.4216 280,-582 252.5218,-562.9897 235.3772,-571.6799 214,-546 157.4405,-478.0564 152,-445.4042 152,-357 152,-357 152,-357 152,-301 152,-249.1636 209.4436,-214.7115 248.8274,-197.1824"/>
<polygon fill="#191970" stroke="#191970" points="250.5845,-200.2378 258.4051,-193.0902 247.8341,-193.8008 250.5845,-200.2378"/>
</g>
<!-- Node3 -->
<g id="node4" class="node">
<title>Node3</title>
<g id="a_node4"><a xlink:href="Transform_8h.html" target="_top" xlink:title="iDynTree/Core/Transform.h">
<polygon fill="none" stroke="#000000" points="1160,-409 1160,-428 1306,-428 1306,-409 1160,-409"/>
<text text-anchor="middle" x="1233" y="-416" font-family="FreeSans.ttf" font-size="10.00" fill="#000000">iDynTree/Core/Transform.h</text>
</a>
</g>
</g>
<!-- Node2&#45;&gt;Node3 -->
<g id="edge3" class="edge">
<title>Node2&#45;&gt;Node3</title>
<path fill="none" stroke="#191970" d="M691.4407,-582.4871C722.1788,-573.1862 770.3068,-558.6222 812,-546 951.379,-503.8043 1116.7059,-453.7275 1191.9915,-430.9224"/>
<polygon fill="#191970" stroke="#191970" points="1193.0211,-434.2677 1201.5769,-428.0188 1190.9917,-427.5683 1193.0211,-434.2677"/>
</g>
<!-- Node26 -->
<g id="node22" class="node">
<title>Node26</title>
<g id="a_node22"><a xlink:href="Twist_8h.html" target="_top" xlink:title="iDynTree/Core/Twist.h">
<polygon fill="none" stroke="#000000" points="422,-470.5 422,-489.5 544,-489.5 544,-470.5 422,-470.5"/>
<text text-anchor="middle" x="483" y="-477.5" font-family="FreeSans.ttf" font-size="10.00" fill="#000000">iDynTree/Core/Twist.h</text>
</a>
</g>
</g>
<!-- Node2&#45;&gt;Node26 -->
<g id="edge33" class="edge">
<title>Node2&#45;&gt;Node26</title>
<path fill="none" stroke="#191970" d="M586.81,-582.4911C543.0457,-575.135 493.4032,-563.2592 480,-546 469.9088,-533.0056 472.0677,-513.8529 475.9171,-499.5222"/>
<polygon fill="#191970" stroke="#191970" points="479.3495,-500.2749 479.0155,-489.6854 472.6729,-498.1719 479.3495,-500.2749"/>
</g>
<!-- Node2&#45;&gt;Node29 -->
<g id="edge44" class="edge">
<title>Node2&#45;&gt;Node29</title>
<path fill="none" stroke="#191970" d="M607.6808,-582.4449C568.8144,-574.6183 514.8243,-562.2004 469,-546 428.2205,-531.5831 383.4229,-509.002 356.0019,-494.3506"/>
<polygon fill="#191970" stroke="#191970" points="357.5249,-491.1954 347.0625,-489.5253 354.1998,-497.3553 357.5249,-491.1954"/>
</g>
<!-- Node30 -->
<g id="node26" class="node">
<title>Node30</title>
<g id="a_node26"><a xlink:href="Wrench_8h.html" target="_top" xlink:title="iDynTree/Core/Wrench.h">
<polygon fill="none" stroke="#000000" points="600.5,-470.5 600.5,-489.5 733.5,-489.5 733.5,-470.5 600.5,-470.5"/>
<text text-anchor="middle" x="667" y="-477.5" font-family="FreeSans.ttf" font-size="10.00" fill="#000000">iDynTree/Core/Wrench.h</text>
</a>
</g>
</g>
<!-- Node2&#45;&gt;Node30 -->
<g id="edge46" class="edge">
<title>Node2&#45;&gt;Node30</title>
<path fill="none" stroke="#191970" d="M660.5968,-582.4509C661.7385,-564.184 664.2528,-523.9553 665.7689,-499.6976"/>
<polygon fill="#191970" stroke="#191970" points="669.274,-499.7238 666.4047,-489.5249 662.2876,-499.2871 669.274,-499.7238"/>
</g>
<!-- Node32 -->
<g id="node28" class="node">
<title>Node32</title>
<g id="a_node28"><a xlink:href="ArticulatedBodyInertia_8h.html" target="_top" xlink:title="iDynTree/Core/Articulated\lBodyInertia.h">
<polygon fill="none" stroke="#000000" points="1261.5,-168.5 1261.5,-198.5 1402.5,-198.5 1402.5,-168.5 1261.5,-168.5"/>
<text text-anchor="start" x="1269.5" y="-186.5" font-family="FreeSans.ttf" font-size="10.00" fill="#000000">iDynTree/Core/Articulated</text>
<text text-anchor="middle" x="1332" y="-175.5" font-family="FreeSans.ttf" font-size="10.00" fill="#000000">BodyInertia.h</text>
</a>
</g>
</g>
<!-- Node2&#45;&gt;Node32 -->
<g id="edge51" class="edge">
<title>Node2&#45;&gt;Node32</title>
<path fill="none" stroke="#191970" d="M701.9676,-582.4743C742.2684,-573.2855 804.8457,-558.9089 859,-546 912.1567,-533.3289 1334,-473.146 1334,-418.5 1334,-418.5 1334,-418.5 1334,-301 1334,-269.2968 1333.2631,-232.789 1332.6839,-208.9901"/>
<polygon fill="#191970" stroke="#191970" points="1336.1757,-208.6171 1332.4241,-198.7087 1329.1779,-208.794 1336.1757,-208.6171"/>
</g>
<!-- Node33 -->
<g id="node29" class="node">
<title>Node33</title>
<g id="a_node29"><a xlink:href="Indices_8h.html" target="_top" xlink:title="iDynTree/Model/Indices.h">
<polygon fill="none" stroke="#000000" points="1622,-526.5 1622,-545.5 1760,-545.5 1760,-526.5 1622,-526.5"/>
<text text-anchor="middle" x="1691" y="-533.5" font-family="FreeSans.ttf" font-size="10.00" fill="#000000">iDynTree/Model/Indices.h</text>
</a>
</g>
</g>
<!-- Node2&#45;&gt;Node33 -->
<g id="edge54" class="edge">
<title>Node2&#45;&gt;Node33</title>
<path fill="none" stroke="#191970" d="M734.5617,-587.9501C923.1457,-577.7069 1417.8612,-550.8359 1611.5841,-540.3136"/>
<polygon fill="#191970" stroke="#191970" points="1611.8948,-543.8019 1621.6902,-539.7646 1611.515,-536.8123 1611.8948,-543.8019"/>
</g>
<!-- Node34 -->
<g id="node30" class="node">
<title>Node34</title>
<polygon fill="none" stroke="#bfbfbf" points="980.5,-526.5 980.5,-545.5 1027.5,-545.5 1027.5,-526.5 980.5,-526.5"/>
<text text-anchor="middle" x="1004" y="-533.5" font-family="FreeSans.ttf" font-size="10.00" fill="#000000">vector</text>
</g>
<!-- Node2&#45;&gt;Node34 -->
<g id="edge56" class="edge">
<title>Node2&#45;&gt;Node34</title>
<path fill="none" stroke="#191970" d="M734.5977,-583.0781C796.8038,-575.0907 887.6023,-562.1588 966,-546 967.4616,-545.6988 968.9508,-545.376 970.4523,-545.0375"/>
<polygon fill="#191970" stroke="#191970" points="971.4786,-548.3904 980.3766,-542.6392 969.8342,-541.5862 971.4786,-548.3904"/>
</g>
<!-- Node4 -->
<g id="node5" class="node">
<title>Node4</title>
<g id="a_node5"><a xlink:href="Position_8h.html" target="_top" xlink:title="iDynTree/Core/Position.h">
<polygon fill="none" stroke="#ff0000" points="993,-291.5 993,-310.5 1129,-310.5 1129,-291.5 993,-291.5"/>
<text text-anchor="middle" x="1061" y="-298.5" font-family="FreeSans.ttf" font-size="10.00" fill="#000000">iDynTree/Core/Position.h</text>
</a>
</g>
</g>
<!-- Node3&#45;&gt;Node4 -->
<g id="edge4" class="edge">
<title>Node3&#45;&gt;Node4</title>
<path fill="none" stroke="#191970" d="M1214.212,-408.8698C1195.6364,-399.0915 1166.6446,-383.132 1143,-367 1120.1181,-351.3884 1095.5851,-331.1255 1079.3782,-317.1926"/>
<polygon fill="#191970" stroke="#191970" points="1081.5614,-314.453 1071.7149,-310.5418 1076.9732,-319.7397 1081.5614,-314.453"/>
</g>
<!-- Node21 -->
<g id="node6" class="node">
<title>Node21</title>
<g id="a_node6"><a xlink:href="Rotation_8h.html" target="_top" xlink:title="iDynTree/Core/Rotation.h">
<polygon fill="none" stroke="#ff0000" points="858.5,-235.5 858.5,-254.5 995.5,-254.5 995.5,-235.5 858.5,-235.5"/>
<text text-anchor="middle" x="927" y="-242.5" font-family="FreeSans.ttf" font-size="10.00" fill="#000000">iDynTree/Core/Rotation.h</text>
</a>
</g>
</g>
<!-- Node3&#45;&gt;Node21 -->
<g id="edge24" class="edge">
<title>Node3&#45;&gt;Node21</title>
<path fill="none" stroke="#191970" d="M1198.248,-408.9767C1147.6453,-393.9563 1052.2837,-361.2062 984,-311 965.8177,-297.6313 949.484,-277.4542 939.0108,-262.93"/>
<polygon fill="#191970" stroke="#191970" points="941.8783,-260.923 933.283,-254.7285 936.1393,-264.9311 941.8783,-260.923"/>
</g>
<!-- Node18 -->
<g id="node7" class="node">
<title>Node18</title>
<polygon fill="none" stroke="#bfbfbf" points="1211,-56.5 1211,-75.5 1255,-75.5 1255,-56.5 1211,-56.5"/>
<text text-anchor="middle" x="1233" y="-63.5" font-family="FreeSans.ttf" font-size="10.00" fill="#000000">string</text>
</g>
<!-- Node3&#45;&gt;Node18 -->
<g id="edge32" class="edge">
<title>Node3&#45;&gt;Node18</title>
<path fill="none" stroke="#191970" d="M1233,-408.7511C1233,-388.6182 1233,-340.9826 1233,-301 1233,-301 1233,-301 1233,-183.5 1233,-149.1399 1233,-109.128 1233,-85.7764"/>
<polygon fill="#191970" stroke="#191970" points="1236.5001,-85.7489 1233,-75.7489 1229.5001,-85.749 1236.5001,-85.7489"/>
</g>
<!-- Node24 -->
<g id="node20" class="node">
<title>Node24</title>
<g id="a_node20"><a xlink:href="MatrixFixSize_8h.html" target="_top" xlink:title="iDynTree/Core/MatrixFixSize.h">
<polygon fill="none" stroke="#000000" points="769.5,-112.5 769.5,-131.5 930.5,-131.5 930.5,-112.5 769.5,-112.5"/>
<text text-anchor="middle" x="850" y="-119.5" font-family="FreeSans.ttf" font-size="10.00" fill="#000000">iDynTree/Core/MatrixFixSize.h</text>
</a>
</g>
</g>
<!-- Node3&#45;&gt;Node24 -->
<g id="edge25" class="edge">
<title>Node3&#45;&gt;Node24</title>
<path fill="none" stroke="#191970" d="M1228.5948,-408.8777C1210.8309,-371.2321 1140.4656,-232.8232 1038,-168 1009.049,-149.6846 973.3397,-138.6617 940.847,-132.0277"/>
<polygon fill="#191970" stroke="#191970" points="941.359,-128.562 930.8773,-130.1065 940.0344,-135.4356 941.359,-128.562"/>
</g>
<!-- Node4&#45;&gt;Node21 -->
<g id="edge5" class="edge">
<title>Node4&#45;&gt;Node21</title>
<path fill="none" stroke="#191970" d="M1037.9646,-291.3733C1016.2612,-282.3032 983.5382,-268.6279 959.245,-258.4755"/>
<polygon fill="#191970" stroke="#191970" points="960.3111,-255.1278 949.7348,-254.5011 957.6119,-261.5865 960.3111,-255.1278"/>
</g>
<!-- Node4&#45;&gt;Node18 -->
<g id="edge23" class="edge">
<title>Node4&#45;&gt;Node18</title>
<path fill="none" stroke="#191970" d="M1065.8872,-291.3177C1080.7709,-262.3323 1127.7842,-174.4004 1181,-112 1190.2876,-101.1094 1202.1478,-90.4244 1212.1954,-82.0977"/>
<polygon fill="#191970" stroke="#191970" points="1214.531,-84.7104 1220.1128,-75.7051 1210.1336,-79.264 1214.531,-84.7104"/>
</g>
<!-- Node21&#45;&gt;Node18 -->
<g id="edge6" class="edge">
<title>Node21&#45;&gt;Node18</title>
<path fill="none" stroke="#191970" d="M939.3646,-235.3905C969.63,-212.1558 1050.3481,-151.9107 1124,-112 1149.0566,-98.4223 1178.9716,-86.0498 1201.118,-77.5647"/>
<polygon fill="#191970" stroke="#191970" points="1202.5805,-80.7538 1210.7014,-73.9493 1200.1096,-74.2044 1202.5805,-80.7538"/>
</g>
<!-- Node21&#45;&gt;Node22 -->
<g id="edge7" class="edge">
<title>Node21&#45;&gt;Node22</title>
<path fill="none" stroke="#191970" d="M858.2948,-238.4184C742.159,-227.2933 506.9994,-204.7663 376.8468,-192.2984"/>
<polygon fill="#191970" stroke="#191970" points="376.7964,-188.7776 366.5082,-191.308 376.1289,-195.7457 376.7964,-188.7776"/>
</g>
<!-- Node6 -->
<g id="node9" class="node">
<title>Node6</title>
<g id="a_node9"><a xlink:href="VectorFixSize_8h.html" target="_top" xlink:title="iDynTree/Core/VectorFixSize.h">
<polygon fill="none" stroke="#000000" points="590.5,-112.5 590.5,-131.5 751.5,-131.5 751.5,-112.5 590.5,-112.5"/>
<text text-anchor="middle" x="671" y="-119.5" font-family="FreeSans.ttf" font-size="10.00" fill="#000000">iDynTree/Core/VectorFixSize.h</text>
</a>
</g>
</g>
<!-- Node21&#45;&gt;Node6 -->
<g id="edge22" class="edge">
<title>Node21&#45;&gt;Node6</title>
<path fill="none" stroke="#191970" d="M919.3921,-235.3643C905.9535,-219.0054 876.3597,-185.8424 844,-168 814.0396,-151.4805 777.8553,-140.6623 746.3404,-133.6967"/>
<polygon fill="#191970" stroke="#191970" points="746.7942,-130.2152 736.2861,-131.5681 745.3444,-137.0635 746.7942,-130.2152"/>
</g>
<!-- Node22&#45;&gt;Node6 -->
<g id="edge8" class="edge">
<title>Node22&#45;&gt;Node6</title>
<path fill="none" stroke="#191970" d="M344.889,-173.9581C414.1581,-162.9217 528.0301,-144.7789 601.2371,-133.1151"/>
<polygon fill="#191970" stroke="#191970" points="601.9634,-136.5436 611.2881,-131.5137 600.862,-129.6308 601.9634,-136.5436"/>
</g>
<!-- Node6&#45;&gt;Node18 -->
<g id="edge18" class="edge">
<title>Node6&#45;&gt;Node18</title>
<path fill="none" stroke="#191970" d="M751.5244,-112.8978C754.3844,-112.5918 757.2165,-112.2917 760,-112 925.7525,-94.6292 1124.4243,-76.0313 1200.8652,-68.9582"/>
<polygon fill="#191970" stroke="#191970" points="1201.1884,-72.4433 1210.8239,-68.0379 1200.5443,-65.473 1201.1884,-72.4433"/>
</g>
<!-- Node7 -->
<g id="node10" class="node">
<title>Node7</title>
<g id="a_node10"><a xlink:href="Utils_8h.html" target="_top" xlink:title="iDynTree/Core/Utils.h">
<polygon fill="none" stroke="#000000" points="426.5,-56.5 426.5,-75.5 545.5,-75.5 545.5,-56.5 426.5,-56.5"/>
<text text-anchor="middle" x="486" y="-63.5" font-family="FreeSans.ttf" font-size="10.00" fill="#000000">iDynTree/Core/Utils.h</text>
</a>
</g>
</g>
<!-- Node6&#45;&gt;Node7 -->
<g id="edge9" class="edge">
<title>Node6&#45;&gt;Node7</title>
<path fill="none" stroke="#191970" d="M639.1974,-112.3733C608.1683,-102.9807 560.8246,-88.6496 526.9853,-78.4064"/>
<polygon fill="#191970" stroke="#191970" points="527.9728,-75.0485 517.3876,-75.5011 525.9447,-81.7483 527.9728,-75.0485"/>
</g>
<!-- Node9 -->
<g id="node12" class="node">
<title>Node9</title>
<g id="a_node12"><a xlink:href="Span_8h.html" target="_top" xlink:title="iDynTree/Core/Span.h">
<polygon fill="none" stroke="#ff0000" points="287.5,-56.5 287.5,-75.5 408.5,-75.5 408.5,-56.5 287.5,-56.5"/>
<text text-anchor="middle" x="348" y="-63.5" font-family="FreeSans.ttf" font-size="10.00" fill="#000000">iDynTree/Core/Span.h</text>
</a>
</g>
</g>
<!-- Node6&#45;&gt;Node9 -->
<g id="edge11" class="edge">
<title>Node6&#45;&gt;Node9</title>
<path fill="none" stroke="#191970" d="M615.8413,-112.4369C559.6333,-102.6918 472.4888,-87.5832 412.9718,-77.2645"/>
<polygon fill="#191970" stroke="#191970" points="413.3821,-73.7835 402.9312,-75.5237 412.1863,-80.6806 413.3821,-73.7835"/>
</g>
<!-- Node10 -->
<g id="node13" class="node">
<title>Node10</title>
<polygon fill="none" stroke="#bfbfbf" points="641,-.5 641,-19.5 693,-19.5 693,-.5 641,-.5"/>
<text text-anchor="middle" x="667" y="-7.5" font-family="FreeSans.ttf" font-size="10.00" fill="#000000">cassert</text>
</g>
<!-- Node6&#45;&gt;Node10 -->
<g id="edge20" class="edge">
<title>Node6&#45;&gt;Node10</title>
<path fill="none" stroke="#191970" d="M670.659,-112.4509C670.0066,-94.184 668.5698,-53.9553 667.7035,-29.6976"/>
<polygon fill="#191970" stroke="#191970" points="671.195,-29.3936 667.3402,-19.5249 664.1994,-29.6435 671.195,-29.3936"/>
</g>
<!-- Node19 -->
<g id="node18" class="node">
<title>Node19</title>
<polygon fill="none" stroke="#bfbfbf" points="695,-56.5 695,-75.5 751,-75.5 751,-56.5 695,-56.5"/>
<text text-anchor="middle" x="723" y="-63.5" font-family="FreeSans.ttf" font-size="10.00" fill="#000000">sstream</text>
</g>
<!-- Node6&#45;&gt;Node19 -->
<g id="edge19" class="edge">
<title>Node6&#45;&gt;Node19</title>
<path fill="none" stroke="#191970" d="M680.0577,-112.2455C687.5142,-104.2155 698.2634,-92.6394 707.1417,-83.0781"/>
<polygon fill="#191970" stroke="#191970" points="709.8063,-85.3522 714.0461,-75.6427 704.6768,-80.589 709.8063,-85.3522"/>
</g>
<!-- Node20 -->
<g id="node19" class="node">
<title>Node20</title>
<polygon fill="none" stroke="#bfbfbf" points="770,-56.5 770,-75.5 820,-75.5 820,-56.5 770,-56.5"/>
<text text-anchor="middle" x="795" y="-63.5" font-family="FreeSans.ttf" font-size="10.00" fill="#000000">cstring</text>
</g>
<!-- Node6&#45;&gt;Node20 -->
<g id="edge21" class="edge">
<title>Node6&#45;&gt;Node20</title>
<path fill="none" stroke="#191970" d="M692.3164,-112.3733C712.2216,-103.3838 742.1436,-89.8706 764.56,-79.7471"/>
<polygon fill="#191970" stroke="#191970" points="766.2887,-82.8068 773.9618,-75.5011 763.4075,-76.4272 766.2887,-82.8068"/>
</g>
<!-- Node8 -->
<g id="node11" class="node">
<title>Node8</title>
<polygon fill="none" stroke="#bfbfbf" points="459.5,-.5 459.5,-19.5 512.5,-19.5 512.5,-.5 459.5,-.5"/>
<text text-anchor="middle" x="486" y="-7.5" font-family="FreeSans.ttf" font-size="10.00" fill="#000000">cstddef</text>
</g>
<!-- Node7&#45;&gt;Node8 -->
<g id="edge10" class="edge">
<title>Node7&#45;&gt;Node8</title>
<path fill="none" stroke="#191970" d="M486,-56.2455C486,-48.9382 486,-38.6944 486,-29.7046"/>
<polygon fill="#191970" stroke="#191970" points="489.5001,-29.6426 486,-19.6427 482.5001,-29.6427 489.5001,-29.6426"/>
</g>
<!-- Node9&#45;&gt;Node8 -->
<g id="edge15" class="edge">
<title>Node9&#45;&gt;Node8</title>
<path fill="none" stroke="#191970" d="M371.723,-56.3733C394.1737,-47.2629 428.0739,-33.5062 453.1255,-23.3404"/>
<polygon fill="#191970" stroke="#191970" points="454.6365,-26.5045 462.5865,-19.5011 452.0043,-20.0182 454.6365,-26.5045"/>
</g>
<!-- Node9&#45;&gt;Node10 -->
<g id="edge12" class="edge">
<title>Node9&#45;&gt;Node10</title>
<path fill="none" stroke="#191970" d="M402.4756,-56.4369C467.674,-44.9914 575.0187,-26.1472 630.8032,-16.3543"/>
<polygon fill="#191970" stroke="#191970" points="631.6771,-19.7545 640.9213,-14.5781 630.4667,-12.8599 631.6771,-19.7545"/>
</g>
<!-- Node11 -->
<g id="node14" class="node">
<title>Node11</title>
<polygon fill="none" stroke="#bfbfbf" points="316,-.5 316,-19.5 380,-19.5 380,-.5 316,-.5"/>
<text text-anchor="middle" x="348" y="-7.5" font-family="FreeSans.ttf" font-size="10.00" fill="#000000">algorithm</text>
</g>
<!-- Node9&#45;&gt;Node11 -->
<g id="edge13" class="edge">
<title>Node9&#45;&gt;Node11</title>
<path fill="none" stroke="#191970" d="M348,-56.2455C348,-48.9382 348,-38.6944 348,-29.7046"/>
<polygon fill="#191970" stroke="#191970" points="351.5001,-29.6426 348,-19.6427 344.5001,-29.6427 351.5001,-29.6426"/>
</g>
<!-- Node12 -->
<g id="node15" class="node">
<title>Node12</title>
<polygon fill="none" stroke="#bfbfbf" points="398,-.5 398,-19.5 440,-19.5 440,-.5 398,-.5"/>
<text text-anchor="middle" x="419" y="-7.5" font-family="FreeSans.ttf" font-size="10.00" fill="#000000">array</text>
</g>
<!-- Node9&#45;&gt;Node12 -->
<g id="edge14" class="edge">
<title>Node9&#45;&gt;Node12</title>
<path fill="none" stroke="#191970" d="M360.3673,-56.2455C370.9554,-47.8943 386.4064,-35.7076 398.7893,-25.9408"/>
<polygon fill="#191970" stroke="#191970" points="401.0903,-28.5837 406.7745,-19.6427 396.7553,-23.0875 401.0903,-28.5837"/>
</g>
<!-- Node13 -->
<g id="node16" class="node">
<title>Node13</title>
<polygon fill="none" stroke="#bfbfbf" points="78.5,-.5 78.5,-19.5 131.5,-19.5 131.5,-.5 78.5,-.5"/>
<text text-anchor="middle" x="105" y="-7.5" font-family="FreeSans.ttf" font-size="10.00" fill="#000000">iterator</text>
</g>
<!-- Node9&#45;&gt;Node13 -->
<g id="edge16" class="edge">
<title>Node9&#45;&gt;Node13</title>
<path fill="none" stroke="#191970" d="M306.5029,-56.4369C260.0981,-45.7428 185.6651,-28.5895 141.4298,-18.3953"/>
<polygon fill="#191970" stroke="#191970" points="142.2005,-14.9813 131.6699,-16.1461 140.6285,-21.8025 142.2005,-14.9813"/>
</g>
<!-- Node14 -->
<g id="node17" class="node">
<title>Node14</title>
<polygon fill="none" stroke="#bfbfbf" points="254,-.5 254,-19.5 298,-19.5 298,-.5 254,-.5"/>
<text text-anchor="middle" x="276" y="-7.5" font-family="FreeSans.ttf" font-size="10.00" fill="#000000">limits</text>
</g>
<!-- Node9&#45;&gt;Node14 -->
<g id="edge17" class="edge">
<title>Node9&#45;&gt;Node14</title>
<path fill="none" stroke="#191970" d="M335.4586,-56.2455C324.7213,-47.8943 309.0527,-35.7076 296.4953,-25.9408"/>
<polygon fill="#191970" stroke="#191970" points="298.4401,-23.0194 288.3977,-19.6427 294.1425,-28.5449 298.4401,-23.0194"/>
</g>
<!-- Node24&#45;&gt;Node18 -->
<g id="edge29" class="edge">
<title>Node24&#45;&gt;Node18</title>
<path fill="none" stroke="#191970" d="M915.4049,-112.4369C998.2114,-100.3294 1137.6428,-79.9426 1200.5195,-70.7491"/>
<polygon fill="#191970" stroke="#191970" points="1201.2492,-74.1797 1210.6376,-69.2697 1200.2364,-67.2534 1201.2492,-74.1797"/>
</g>
<!-- Node24&#45;&gt;Node7 -->
<g id="edge26" class="edge">
<title>Node24&#45;&gt;Node7</title>
<path fill="none" stroke="#191970" d="M787.8398,-112.4369C723.4284,-102.5274 622.9673,-87.0719 555.8514,-76.7464"/>
<polygon fill="#191970" stroke="#191970" points="556.2042,-73.2596 545.7883,-75.1982 555.1398,-80.1782 556.2042,-73.2596"/>
</g>
<!-- Node24&#45;&gt;Node10 -->
<g id="edge27" class="edge">
<title>Node24&#45;&gt;Node10</title>
<path fill="none" stroke="#191970" d="M849.6898,-112.4616C848.6996,-98.1633 844.7155,-71.2299 829,-56 811.107,-38.66 745.2264,-24.0184 703.1909,-16.1689"/>
<polygon fill="#191970" stroke="#191970" points="703.7855,-12.7196 693.3197,-14.368 702.5292,-19.606 703.7855,-12.7196"/>
</g>
<!-- Node24&#45;&gt;Node19 -->
<g id="edge31" class="edge">
<title>Node24&#45;&gt;Node19</title>
<path fill="none" stroke="#191970" d="M828.1679,-112.3733C807.6897,-103.3435 776.8601,-89.7494 753.8681,-79.6111"/>
<polygon fill="#191970" stroke="#191970" points="755.1093,-76.3333 744.5472,-75.5011 752.285,-82.7383 755.1093,-76.3333"/>
</g>
<!-- Node24&#45;&gt;Node20 -->
<g id="edge28" class="edge">
<title>Node24&#45;&gt;Node20</title>
<path fill="none" stroke="#191970" d="M840.4197,-112.2455C832.4542,-104.1352 820.9359,-92.4075 811.4921,-82.7919"/>
<polygon fill="#191970" stroke="#191970" points="813.9747,-80.3247 804.4705,-75.6427 808.9805,-85.2297 813.9747,-80.3247"/>
</g>
<!-- Node25 -->
<g id="node21" class="node">
<title>Node25</title>
<polygon fill="none" stroke="#bfbfbf" points="574,-56.5 574,-75.5 634,-75.5 634,-56.5 574,-56.5"/>
<text text-anchor="middle" x="604" y="-63.5" font-family="FreeSans.ttf" font-size="10.00" fill="#000000">iostream</text>
</g>
<!-- Node24&#45;&gt;Node25 -->
<g id="edge30" class="edge">
<title>Node24&#45;&gt;Node25</title>
<path fill="none" stroke="#191970" d="M807.9906,-112.4369C762.1587,-102.0036 689.3198,-85.4224 644.2099,-75.1535"/>
<polygon fill="#191970" stroke="#191970" points="644.7265,-71.6816 634.1991,-72.8746 643.1727,-78.507 644.7265,-71.6816"/>
</g>
<!-- Node26&#45;&gt;Node27 -->
<g id="edge34" class="edge">
<title>Node26&#45;&gt;Node27</title>
<path fill="none" stroke="#191970" d="M480.3438,-470.3906C478.3413,-463.1463 475.5001,-452.8679 472.874,-443.3676"/>
<polygon fill="#191970" stroke="#191970" points="476.1965,-442.2506 470.1587,-433.5446 469.4496,-444.1157 476.1965,-442.2506"/>
</g>
<!-- Node27&#45;&gt;Node22 -->
<g id="edge36" class="edge">
<title>Node27&#45;&gt;Node22</title>
<path fill="none" stroke="#191970" d="M421.666,-403.3913C402.5747,-395.0858 381.1964,-383.1348 366,-367 320.129,-318.2965 297.4874,-239.3426 289.0445,-202.9749"/>
<polygon fill="#191970" stroke="#191970" points="292.4457,-202.1453 286.8702,-193.1362 285.6107,-203.6559 292.4457,-202.1453"/>
</g>
<!-- Node27&#45;&gt;Node6 -->
<g id="edge35" class="edge">
<title>Node27&#45;&gt;Node6</title>
<path fill="none" stroke="#191970" d="M521.8072,-403.4503C541.9425,-395.5342 563.3033,-383.8577 578,-367 598.1417,-343.8966 598,-331.6506 598,-301 598,-301 598,-301 598,-245 598,-209.154 602.9726,-198.3792 622,-168 629.0897,-156.6806 639.6361,-146.2868 649.1304,-138.2541"/>
<polygon fill="#191970" stroke="#191970" points="651.5003,-140.8394 657.0898,-131.839 647.1075,-135.3893 651.5003,-140.8394"/>
</g>
<!-- Node28 -->
<g id="node24" class="node">
<title>Node28</title>
<g id="a_node24"><a xlink:href="SpatialVector_8h.html" target="_top" xlink:title="iDynTree/Core/SpatialVector.h">
<polygon fill="none" stroke="#000000" points="408.5,-347.5 408.5,-366.5 569.5,-366.5 569.5,-347.5 408.5,-347.5"/>
<text text-anchor="middle" x="489" y="-354.5" font-family="FreeSans.ttf" font-size="10.00" fill="#000000">iDynTree/Core/SpatialVector.h</text>
</a>
</g>
</g>
<!-- Node27&#45;&gt;Node28 -->
<g id="edge37" class="edge">
<title>Node27&#45;&gt;Node28</title>
<path fill="none" stroke="#191970" d="M471.6854,-403.2977C474.745,-395.1166 478.5498,-384.943 481.8128,-376.2179"/>
<polygon fill="#191970" stroke="#191970" points="485.0927,-377.4394 485.3174,-366.8469 478.5362,-374.9873 485.0927,-377.4394"/>
</g>
<!-- Node28&#45;&gt;Node4 -->
<g id="edge38" class="edge">
<title>Node28&#45;&gt;Node4</title>
<path fill="none" stroke="#191970" d="M569.7404,-349.0953C679.3767,-338.3617 874.0683,-319.301 982.5206,-308.6833"/>
<polygon fill="#191970" stroke="#191970" points="983.1296,-312.1405 992.741,-307.6827 982.4475,-305.1738 983.1296,-312.1405"/>
</g>
<!-- Node28&#45;&gt;Node21 -->
<g id="edge39" class="edge">
<title>Node28&#45;&gt;Node21</title>
<path fill="none" stroke="#191970" d="M526.3436,-347.4509C605.9425,-327.0969 792.1738,-279.4761 879.8169,-257.0651"/>
<polygon fill="#191970" stroke="#191970" points="880.9297,-260.3932 889.7509,-254.5249 879.1955,-253.6114 880.9297,-260.3932"/>
</g>
<!-- Node28&#45;&gt;Node22 -->
<g id="edge41" class="edge">
<title>Node28&#45;&gt;Node22</title>
<path fill="none" stroke="#191970" d="M483.5611,-347.1966C470.6612,-324.7028 436.1156,-268.7302 394,-235 373.0816,-218.2465 345.8182,-205.3679 323.7912,-196.6795"/>
<polygon fill="#191970" stroke="#191970" points="324.9848,-193.3889 314.3939,-193.0986 322.4922,-199.9301 324.9848,-193.3889"/>
</g>
<!-- Node28&#45;&gt;Node7 -->
<g id="edge40" class="edge">
<title>Node28&#45;&gt;Node7</title>
<path fill="none" stroke="#191970" d="M488.2836,-347.4181C486.9011,-328.0718 484,-282.9544 484,-245 484,-245 484,-245 484,-183.5 484,-149.1349 484.8658,-109.1246 485.4581,-85.7746"/>
<polygon fill="#191970" stroke="#191970" points="488.9576,-85.8366 485.7219,-75.748 481.96,-85.6524 488.9576,-85.8366"/>
</g>
<!-- Node28&#45;&gt;Node19 -->
<g id="edge43" class="edge">
<title>Node28&#45;&gt;Node19</title>
<path fill="none" stroke="#191970" d="M500.7242,-347.2278C520.8902,-329.249 560,-288.7424 560,-245 560,-245 560,-245 560,-183.5 560,-150.3799 557.906,-135.7404 581,-112 595.5345,-97.0586 647.8786,-82.7303 684.7721,-74.145"/>
<polygon fill="#191970" stroke="#191970" points="685.75,-77.512 694.7239,-71.88 684.1965,-70.6865 685.75,-77.512"/>
</g>
<!-- Node28&#45;&gt;Node25 -->
<g id="edge42" class="edge">
<title>Node28&#45;&gt;Node25</title>
<path fill="none" stroke="#191970" d="M493.8693,-347.3939C503.0488,-328.3677 522,-284.3256 522,-245 522,-245 522,-245 522,-183.5 522,-149.9798 526.7408,-139.4351 546,-112 554.6498,-99.6782 567.5277,-89.0013 578.9532,-81.044"/>
<polygon fill="#191970" stroke="#191970" points="580.9087,-83.9469 587.3131,-75.5068 577.0433,-78.1109 580.9087,-83.9469"/>
</g>
<!-- Node29&#45;&gt;Node27 -->
<g id="edge45" class="edge">
<title>Node29&#45;&gt;Node27</title>
<path fill="none" stroke="#191970" d="M351.25,-470.3906C370.5081,-461.682 399.4622,-448.5888 423.4671,-437.7336"/>
<polygon fill="#191970" stroke="#191970" points="425.0611,-440.8541 432.7307,-433.5446 422.1768,-434.4759 425.0611,-440.8541"/>
</g>
<!-- Node31 -->
<g id="node27" class="node">
<title>Node31</title>
<g id="a_node27"><a xlink:href="SpatialForceVector_8h.html" target="_top" xlink:title="iDynTree/Core/SpatialForce\lVector.h">
<polygon fill="none" stroke="#000000" points="600,-403.5 600,-433.5 748,-433.5 748,-403.5 600,-403.5"/>
<text text-anchor="start" x="608" y="-421.5" font-family="FreeSans.ttf" font-size="10.00" fill="#000000">iDynTree/Core/SpatialForce</text>
<text text-anchor="middle" x="674" y="-410.5" font-family="FreeSans.ttf" font-size="10.00" fill="#000000">Vector.h</text>
</a>
</g>
</g>
<!-- Node30&#45;&gt;Node31 -->
<g id="edge47" class="edge">
<title>Node30&#45;&gt;Node31</title>
<path fill="none" stroke="#191970" d="M668.0938,-470.3906C668.9095,-463.2234 670.0634,-453.0862 671.135,-443.671"/>
<polygon fill="#191970" stroke="#191970" points="674.6342,-443.8763 672.2876,-433.5446 667.6791,-443.0846 674.6342,-443.8763"/>
</g>
<!-- Node31&#45;&gt;Node22 -->
<g id="edge49" class="edge">
<title>Node31&#45;&gt;Node22</title>
<path fill="none" stroke="#191970" d="M599.6924,-407.7361C524.004,-396.2728 415.4614,-378.2622 399,-367 391.0696,-361.5744 322.7631,-247.2119 295.8416,-201.8264"/>
<polygon fill="#191970" stroke="#191970" points="298.7327,-199.8395 290.6241,-193.0203 292.7103,-203.4077 298.7327,-199.8395"/>
</g>
<!-- Node31&#45;&gt;Node6 -->
<g id="edge48" class="edge">
<title>Node31&#45;&gt;Node6</title>
<path fill="none" stroke="#191970" d="M674,-403.2899C674,-380.892 674,-337.7188 674,-301 674,-301 674,-301 674,-245 674,-208.4885 672.6626,-165.8988 671.7737,-141.6249"/>
<polygon fill="#191970" stroke="#191970" points="675.2688,-141.4273 671.3922,-131.5672 668.2738,-141.6927 675.2688,-141.4273"/>
</g>
<!-- Node31&#45;&gt;Node28 -->
<g id="edge50" class="edge">
<title>Node31&#45;&gt;Node28</title>
<path fill="none" stroke="#191970" d="M628.7439,-403.4554C597.6054,-393.104 556.7031,-379.5067 527.2045,-369.7004"/>
<polygon fill="#191970" stroke="#191970" points="528.262,-366.3637 517.6684,-366.5303 526.0537,-373.0063 528.262,-366.3637"/>
</g>
<!-- Node32&#45;&gt;Node18 -->
<g id="edge53" class="edge">
<title>Node32&#45;&gt;Node18</title>
<path fill="none" stroke="#191970" d="M1319.0575,-168.1389C1300.6534,-146.2957 1267.0159,-106.3724 1247.6962,-83.4424"/>
<polygon fill="#191970" stroke="#191970" points="1250.1744,-80.9517 1241.0544,-75.5595 1244.8212,-85.4621 1250.1744,-80.9517"/>
</g>
<!-- Node32&#45;&gt;Node24 -->
<g id="edge52" class="edge">
<title>Node32&#45;&gt;Node24</title>
<path fill="none" stroke="#191970" d="M1261.3969,-174.4915C1174.6085,-163.4179 1027.4591,-144.6426 934.6788,-132.8044"/>
<polygon fill="#191970" stroke="#191970" points="935.1215,-129.3326 924.7589,-131.5387 934.2355,-136.2764 935.1215,-129.3326"/>
</g>
<!-- Node33&#45;&gt;Node18 -->
<g id="edge55" class="edge">
<title>Node33&#45;&gt;Node18</title>
<path fill="none" stroke="#191970" d="M1684.1228,-526.4843C1670.8503,-507.1531 1643,-461.4698 1643,-418.5 1643,-418.5 1643,-418.5 1643,-183.5 1643,-138.0856 1610.7872,-131.9718 1570,-112 1516.6728,-85.888 1339.1549,-72.4138 1265.481,-67.8361"/>
<polygon fill="#191970" stroke="#191970" points="1265.5851,-64.3361 1255.3917,-67.2248 1265.1617,-71.3233 1265.5851,-64.3361"/>
</g>
<!-- Node35&#45;&gt;Node22 -->
<g id="edge60" class="edge">
<title>Node35&#45;&gt;Node22</title>
<path fill="none" stroke="#191970" d="M409.0939,-761.484C345.6453,-749.2932 265.8177,-732.879 252,-725 187.251,-688.0794 165.2116,-671.3908 138,-602 77.1876,-446.9257 116.1314,-369.7884 214,-235 225.1138,-219.6937 242.1589,-207.116 256.7625,-198.2227"/>
<polygon fill="#191970" stroke="#191970" points="258.5742,-201.218 265.4649,-193.17 255.0595,-195.1643 258.5742,-201.218"/>
</g>
<!-- Node35&#45;&gt;Node36 -->
<g id="edge61" class="edge">
<title>Node35&#45;&gt;Node36</title>
<path fill="none" stroke="#191970" d="M540.3933,-761.4554C575.3679,-751.0139 621.4046,-737.27 654.3127,-727.4455"/>
<polygon fill="#191970" stroke="#191970" points="655.4965,-730.7448 664.0773,-724.5303 653.494,-724.0373 655.4965,-730.7448"/>
</g>
<!-- Node36&#45;&gt;Node18 -->
<g id="edge63" class="edge">
<title>Node36&#45;&gt;Node18</title>
<path fill="none" stroke="#191970" d="M771.5375,-714.4191C934.3586,-712.504 1330.34,-704.2813 1660,-669 1879.2626,-645.5338 2138,-756.5148 2138,-536 2138,-536 2138,-536 2138,-183.5 2138,-93.6707 1427.7474,-70.7849 1265.6603,-66.7317"/>
<polygon fill="#191970" stroke="#191970" points="1265.4531,-63.2257 1255.3709,-66.4815 1265.2829,-70.2236 1265.4531,-63.2257"/>
</g>
<!-- Node36&#45;&gt;Node22 -->
<g id="edge62" class="edge">
<title>Node36&#45;&gt;Node22</title>
<path fill="none" stroke="#191970" d="M667.8808,-705.4031C577.0731,-673.7748 294.7731,-570.2618 247,-490 242.4536,-482.3618 246.2605,-478.8581 247,-470 251.2369,-419.2493 266,-407.9272 266,-357 266,-357 266,-357 266,-301 266,-266.1936 274.2253,-226.3226 279.8521,-203.1197"/>
<polygon fill="#191970" stroke="#191970" points="283.3113,-203.7152 282.3581,-193.1633 276.523,-202.0065 283.3113,-203.7152"/>
</g>
<!-- Node36&#45;&gt;Node13 -->
<g id="edge65" class="edge">
<title>Node36&#45;&gt;Node13</title>
<path fill="none" stroke="#191970" d="M620.2294,-710.7883C518.8262,-704.4215 344.807,-690.7306 285,-669 142.149,-617.0958 0,-631.9883 0,-480 0,-480 0,-480 0,-122 0,-77.1218 45.4239,-42.8269 76.5184,-24.6081"/>
<polygon fill="#191970" stroke="#191970" points="78.2562,-27.6463 85.2503,-19.688 74.82,-21.5478 78.2562,-27.6463"/>
</g>
<!-- Node36&#45;&gt;Node33 -->
<g id="edge88" class="edge">
<title>Node36&#45;&gt;Node33</title>
<path fill="none" stroke="#191970" d="M771.7899,-713.4347C1013.1846,-707.6385 1752.1023,-683.3345 1818,-602 1839.7946,-575.0999 1800.2459,-557.9307 1759.6711,-547.8684"/>
<polygon fill="#191970" stroke="#191970" points="1760.4587,-544.4582 1749.9239,-545.584 1758.8614,-551.2736 1760.4587,-544.4582"/>
</g>
<!-- Node36&#45;&gt;Node34 -->
<g id="edge64" class="edge">
<title>Node36&#45;&gt;Node34</title>
<path fill="none" stroke="#191970" d="M719.9784,-705.4127C737.1856,-697.6065 760.056,-685.2282 776,-669 806.9497,-637.4986 789.0442,-608.9874 824,-582 875.5358,-542.2121 902.9618,-562.2849 966,-546 967.4448,-545.6267 968.9202,-545.2443 970.4104,-544.8569"/>
<polygon fill="#191970" stroke="#191970" points="971.5019,-548.1892 980.2919,-542.2743 969.7319,-541.4167 971.5019,-548.1892"/>
</g>
<!-- Node37 -->
<g id="node33" class="node">
<title>Node37</title>
<g id="a_node33"><a xlink:href="VectorDynSize_8h.html" target="_top" xlink:title="iDynTree/Core/VectorDynSize.h">
<polygon fill="none" stroke="#000000" points="937.5,-409 937.5,-428 1104.5,-428 1104.5,-409 937.5,-409"/>
<text text-anchor="middle" x="1021" y="-416" font-family="FreeSans.ttf" font-size="10.00" fill="#000000">iDynTree/Core/VectorDynSize.h</text>
</a>
</g>
</g>
<!-- Node36&#45;&gt;Node37 -->
<g id="edge66" class="edge">
<title>Node36&#45;&gt;Node37</title>
<path fill="none" stroke="#191970" d="M675.0997,-705.3809C631.4382,-684.0011 537.6596,-630.5817 576,-582 589.6237,-564.7372 942.2935,-501.5618 961,-490 982.4326,-476.7533 999.9638,-453.2222 1010.4265,-436.786"/>
<polygon fill="#191970" stroke="#191970" points="1013.5293,-438.4201 1015.746,-428.0598 1007.5523,-434.7765 1013.5293,-438.4201"/>
</g>
<!-- Node36&#45;&gt;Node38 -->
<g id="edge69" class="edge">
<title>Node36&#45;&gt;Node38</title>
<path fill="none" stroke="#191970" d="M771.5241,-706.7058C878.1007,-695.0014 1071.581,-673.7532 1178.9695,-661.9596"/>
<polygon fill="#191970" stroke="#191970" points="1179.5293,-665.4193 1189.0874,-660.8484 1178.765,-658.4611 1179.5293,-665.4193"/>
</g>
<!-- Node37&#45;&gt;Node18 -->
<g id="edge68" class="edge">
<title>Node37&#45;&gt;Node18</title>
<path fill="none" stroke="#191970" d="M1043.3912,-408.9892C1090.3859,-387.3531 1195,-329.6795 1195,-245 1195,-245 1195,-245 1195,-183.5 1195,-147.2454 1211.5805,-107.6181 1222.837,-84.8929"/>
<polygon fill="#191970" stroke="#191970" points="1226.0965,-86.2076 1227.5555,-75.7137 1219.8708,-83.0073 1226.0965,-86.2076"/>
</g>
<!-- Node37&#45;&gt;Node9 -->
<g id="edge67" class="edge">
<title>Node37&#45;&gt;Node9</title>
<path fill="none" stroke="#191970" d="M937.2065,-410.6119C910.0307,-408.1079 879.7415,-405.3744 852,-403 751.3838,-394.3883 492.6707,-404.7302 399,-367 289.7331,-322.9877 244.4022,-305.4705 194,-199 166.8214,-141.5876 253.7955,-99.2121 307.9739,-79.0739"/>
<polygon fill="#191970" stroke="#191970" points="309.4552,-82.2603 317.6736,-75.5738 307.0792,-75.6758 309.4552,-82.2603"/>
</g>
<!-- Node38&#45;&gt;Node3 -->
<g id="edge79" class="edge">
<title>Node38&#45;&gt;Node3</title>
<path fill="none" stroke="#191970" d="M1300.5278,-643.9806C1310.8405,-641.8977 1321.7858,-639.7845 1332,-638 1386.6412,-628.4539 1542.7161,-643.9556 1579,-602 1663.0108,-504.8571 1434.6895,-451.1678 1309.1977,-429.6934"/>
<polygon fill="#191970" stroke="#191970" points="1309.6785,-426.2253 1299.2367,-428.0194 1308.5184,-433.1285 1309.6785,-426.2253"/>
</g>
<!-- Node38&#45;&gt;Node33 -->
<g id="edge80" class="edge">
<title>Node38&#45;&gt;Node33</title>
<path fill="none" stroke="#191970" d="M1300.1048,-643.9351C1310.5354,-641.8313 1321.6383,-639.7203 1332,-638 1455.7744,-617.4497 1497.0265,-652.2346 1612,-602 1637.6605,-590.7883 1661.5043,-568.5763 1676.1423,-553.0298"/>
<polygon fill="#191970" stroke="#191970" points="1678.7652,-555.3478 1682.9188,-545.6011 1673.5937,-550.6303 1678.7652,-555.3478"/>
</g>
<!-- Node38&#45;&gt;Node34 -->
<g id="edge87" class="edge">
<title>Node38&#45;&gt;Node34</title>
<path fill="none" stroke="#191970" d="M1189.2962,-650.9604C1114.2147,-646.5355 999.1385,-634.5024 972,-602 959.7423,-587.3196 972.8808,-567.1483 985.8361,-552.9815"/>
<polygon fill="#191970" stroke="#191970" points="988.3663,-555.4002 992.8522,-545.8018 983.3598,-550.5078 988.3663,-555.4002"/>
</g>
<!-- Node39 -->
<g id="node35" class="node">
<title>Node39</title>
<g id="a_node35"><a xlink:href="IJoint_8h.html" target="_top" xlink:title="iDynTree/Model/IJoint.h">
<polygon fill="none" stroke="#000000" points="1664,-582.5 1664,-601.5 1792,-601.5 1792,-582.5 1664,-582.5"/>
<text text-anchor="middle" x="1728" y="-589.5" font-family="FreeSans.ttf" font-size="10.00" fill="#000000">iDynTree/Model/IJoint.h</text>
</a>
</g>
</g>
<!-- Node38&#45;&gt;Node39 -->
<g id="edge70" class="edge">
<title>Node38&#45;&gt;Node39</title>
<path fill="none" stroke="#191970" d="M1299.2853,-643.9828C1309.9475,-641.8291 1321.3596,-639.6839 1332,-638 1472.4877,-615.7665 1508.7888,-619.0441 1650,-602 1651.258,-601.8482 1652.5273,-601.6942 1653.8054,-601.5384"/>
<polygon fill="#191970" stroke="#191970" points="1654.2391,-605.0116 1663.7363,-600.3154 1653.3834,-598.064 1654.2391,-605.0116"/>
</g>
<!-- Node40 -->
<g id="node36" class="node">
<title>Node40</title>
<g id="a_node36"><a xlink:href="Link_8h.html" target="_top" xlink:title="iDynTree/Model/Link.h">
<polygon fill="none" stroke="#000000" points="1446,-582.5 1446,-601.5 1570,-601.5 1570,-582.5 1446,-582.5"/>
<text text-anchor="middle" x="1508" y="-589.5" font-family="FreeSans.ttf" font-size="10.00" fill="#000000">iDynTree/Model/Link.h</text>
</a>
</g>
</g>
<!-- Node38&#45;&gt;Node40 -->
<g id="edge72" class="edge">
<title>Node38&#45;&gt;Node40</title>
<path fill="none" stroke="#191970" d="M1295.0985,-643.9581C1339.239,-633.1857 1411.122,-615.6428 1458.9806,-603.9631"/>
<polygon fill="#191970" stroke="#191970" points="1459.9247,-607.3355 1468.8098,-601.5643 1458.265,-600.535 1459.9247,-607.3355"/>
</g>
<!-- Node45 -->
<g id="node38" class="node">
<title>Node45</title>
<g id="a_node38"><a xlink:href="SolidShapes_8h.html" target="_top" xlink:title="iDynTree/Model/SolidShapes.h">
<polygon fill="none" stroke="#000000" points="1226.5,-582.5 1226.5,-601.5 1389.5,-601.5 1389.5,-582.5 1226.5,-582.5"/>
<text text-anchor="middle" x="1308" y="-589.5" font-family="FreeSans.ttf" font-size="10.00" fill="#000000">iDynTree/Model/SolidShapes.h</text>
</a>
</g>
</g>
<!-- Node38&#45;&gt;Node45 -->
<g id="edge81" class="edge">
<title>Node38&#45;&gt;Node45</title>
<path fill="none" stroke="#191970" d="M1264.125,-643.8906C1271.8642,-634.7376 1283.6987,-620.7409 1293.1272,-609.59"/>
<polygon fill="#191970" stroke="#191970" points="1295.9765,-611.6409 1299.7604,-601.7449 1290.6311,-607.1213 1295.9765,-611.6409"/>
</g>
<!-- Node46 -->
<g id="node39" class="node">
<title>Node46</title>
<polygon fill="none" stroke="#bfbfbf" points="1198.5,-526.5 1198.5,-545.5 1247.5,-545.5 1247.5,-526.5 1198.5,-526.5"/>
<text text-anchor="middle" x="1223" y="-533.5" font-family="FreeSans.ttf" font-size="10.00" fill="#000000">cstdlib</text>
</g>
<!-- Node38&#45;&gt;Node46 -->
<g id="edge86" class="edge">
<title>Node38&#45;&gt;Node46</title>
<path fill="none" stroke="#191970" d="M1245.9695,-643.9687C1236.6757,-634.3855 1223.4866,-618.6767 1218,-602 1213.0621,-586.9911 1214.871,-569.0649 1217.6037,-555.6851"/>
<polygon fill="#191970" stroke="#191970" points="1221.0746,-556.2183 1219.9886,-545.6793 1214.2653,-554.5952 1221.0746,-556.2183"/>
</g>
<!-- Node39&#45;&gt;Node33 -->
<g id="edge71" class="edge">
<title>Node39&#45;&gt;Node33</title>
<path fill="none" stroke="#191970" d="M1721.5551,-582.2455C1716.4618,-574.5367 1709.2092,-563.5598 1703.048,-554.2348"/>
<polygon fill="#191970" stroke="#191970" points="1705.8038,-552.0566 1697.3711,-545.6427 1699.9635,-555.9155 1705.8038,-552.0566"/>
</g>
<!-- Node40&#45;&gt;Node33 -->
<g id="edge78" class="edge">
<title>Node40&#45;&gt;Node33</title>
<path fill="none" stroke="#191970" d="M1539.4588,-582.3733C1570.0207,-573.021 1616.5826,-558.7725 1650.0261,-548.5385"/>
<polygon fill="#191970" stroke="#191970" points="1651.4136,-551.7742 1659.9517,-545.5011 1649.3652,-545.0806 1651.4136,-551.7742"/>
</g>
<!-- Node41 -->
<g id="node37" class="node">
<title>Node41</title>
<g id="a_node37"><a xlink:href="SpatialInertia_8h.html" target="_top" xlink:title="iDynTree/Core/SpatialInertia.h">
<polygon fill="none" stroke="#ff0000" points="489,-526.5 489,-545.5 651,-545.5 651,-526.5 489,-526.5"/>
<text text-anchor="middle" x="570" y="-533.5" font-family="FreeSans.ttf" font-size="10.00" fill="#000000">iDynTree/Core/SpatialInertia.h</text>
</a>
</g>
</g>
<!-- Node40&#45;&gt;Node41 -->
<g id="edge73" class="edge">
<title>Node40&#45;&gt;Node41</title>
<path fill="none" stroke="#191970" d="M1445.7792,-585.9014C1430.4915,-584.5107 1414.1615,-583.1158 1399,-582 1131.2954,-562.2991 814.3968,-546.9193 661.53,-539.9987"/>
<polygon fill="#191970" stroke="#191970" points="661.4028,-536.4895 651.2551,-539.5351 661.0872,-543.4824 661.4028,-536.4895"/>
</g>
<!-- Node41&#45;&gt;Node6 -->
<g id="edge74" class="edge">
<title>Node41&#45;&gt;Node6</title>
<path fill="none" stroke="#191970" d="M570.6556,-526.4629C572.3574,-504.3597 577.7422,-448.0772 591,-403 604.9809,-355.4643 636,-350.5491 636,-301 636,-301 636,-301 636,-245 636,-206.9004 651.7272,-164.61 662.0966,-140.8672"/>
<polygon fill="#191970" stroke="#191970" points="665.3475,-142.1726 666.2797,-131.6188 658.9695,-139.2877 665.3475,-142.1726"/>
</g>
<!-- Node41&#45;&gt;Node26 -->
<g id="edge75" class="edge">
<title>Node41&#45;&gt;Node26</title>
<path fill="none" stroke="#191970" d="M554.8458,-526.2455C541.4973,-517.6534 521.8414,-505.0014 506.4617,-495.1018"/>
<polygon fill="#191970" stroke="#191970" points="508.2836,-492.1121 497.9806,-489.6427 504.4949,-497.9982 508.2836,-492.1121"/>
</g>
<!-- Node41&#45;&gt;Node29 -->
<g id="edge76" class="edge">
<title>Node41&#45;&gt;Node29</title>
<path fill="none" stroke="#191970" d="M529.0152,-526.4369C488.0274,-516.8731 424.8996,-502.1432 380.7643,-491.845"/>
<polygon fill="#191970" stroke="#191970" points="381.3495,-488.3876 370.8157,-489.5237 379.7588,-495.2045 381.3495,-488.3876"/>
</g>
<!-- Node41&#45;&gt;Node30 -->
<g id="edge77" class="edge">
<title>Node41&#45;&gt;Node30</title>
<path fill="none" stroke="#191970" d="M586.8961,-526.2455C601.918,-517.5731 624.1043,-504.7645 641.321,-494.825"/>
<polygon fill="#191970" stroke="#191970" points="643.3871,-497.6737 650.2975,-489.6427 639.8872,-491.6114 643.3871,-497.6737"/>
</g>
<!-- Node45&#45;&gt;Node3 -->
<g id="edge85" class="edge">
<title>Node45&#45;&gt;Node3</title>
<path fill="none" stroke="#191970" d="M1303.8608,-582.4248C1291.9031,-554.7625 1257.1476,-474.3614 1241.1874,-437.4403"/>
<polygon fill="#191970" stroke="#191970" points="1244.3995,-436.0498 1237.2188,-428.2595 1237.9741,-438.8274 1244.3995,-436.0498"/>
</g>
<!-- Node45&#45;&gt;Node18 -->
<g id="edge83" class="edge">
<title>Node45&#45;&gt;Node18</title>
<path fill="none" stroke="#191970" d="M1348.9522,-582.4547C1419.3911,-564.8358 1556,-524.8805 1556,-480 1556,-480 1556,-480 1556,-183.5 1556,-122.1094 1347.334,-83.4971 1265.4354,-70.7065"/>
<polygon fill="#191970" stroke="#191970" points="1265.6155,-67.1934 1255.2011,-69.1401 1264.5564,-74.1128 1265.6155,-67.1934"/>
</g>
<!-- Node45&#45;&gt;Node34 -->
<g id="edge84" class="edge">
<title>Node45&#45;&gt;Node34</title>
<path fill="none" stroke="#191970" d="M1256.086,-582.4369C1193.6056,-570.9273 1090.5097,-551.936 1037.6068,-542.1907"/>
<polygon fill="#191970" stroke="#191970" points="1038.1909,-538.7395 1027.7223,-540.3699 1036.9227,-545.6237 1038.1909,-538.7395"/>
</g>
<!-- Node45&#45;&gt;Node46 -->
<g id="edge82" class="edge">
<title>Node45&#45;&gt;Node46</title>
<path fill="none" stroke="#191970" d="M1293.1941,-582.2455C1280.2744,-573.7337 1261.3069,-561.2375 1246.3448,-551.3801"/>
<polygon fill="#191970" stroke="#191970" points="1247.9124,-548.2216 1237.6362,-545.6427 1244.0613,-554.067 1247.9124,-548.2216"/>
</g>
<!-- Node47&#45;&gt;Node22 -->
<g id="edge90" class="edge">
<title>Node47&#45;&gt;Node22</title>
<path fill="none" stroke="#191970" d="M604.3634,-761.4396C499.0793,-737.7564 307.4618,-692.1287 285,-669 156.2688,-536.4471 248.0086,-274.8984 277.0278,-202.4778"/>
<polygon fill="#191970" stroke="#191970" points="280.275,-203.7837 280.8205,-193.2029 273.7958,-201.1342 280.275,-203.7837"/>
</g>
<!-- Node47&#45;&gt;Node34 -->
<g id="edge92" class="edge">
<title>Node47&#45;&gt;Node34</title>
<path fill="none" stroke="#191970" d="M644.257,-761.2671C622.8044,-747.731 599.0944,-726.7662 611,-705 659.6322,-616.0892 709.4056,-620.8628 803,-582 871.5183,-553.5494 893.8896,-563.4439 966,-546 967.4504,-545.6491 968.9305,-545.2852 970.4244,-544.913"/>
<polygon fill="#191970" stroke="#191970" points="971.4963,-548.2517 980.3203,-542.3877 969.7654,-541.4691 971.4963,-548.2517"/>
</g>
<!-- Node47&#45;&gt;Node36 -->
<g id="edge91" class="edge">
<title>Node47&#45;&gt;Node36</title>
<path fill="none" stroke="#191970" d="M678.6854,-761.2977C681.745,-753.1166 685.5498,-742.943 688.8128,-734.2179"/>
<polygon fill="#191970" stroke="#191970" points="692.0927,-735.4394 692.3174,-724.8469 685.5362,-732.9873 692.0927,-735.4394"/>
</g>
<!-- Node48&#45;&gt;Node22 -->
<g id="edge94" class="edge">
<title>Node48&#45;&gt;Node22</title>
<path fill="none" stroke="#191970" d="M246.7825,-761.4635C223.4261,-753.2228 196.771,-741.303 176,-725 94.1836,-660.7828 38,-640.0085 38,-536 38,-536 38,-536 38,-301 38,-257.2338 166.0588,-215.5757 237.7616,-195.6808"/>
<polygon fill="#191970" stroke="#191970" points="238.7643,-199.0352 247.486,-193.02 236.9168,-192.2833 238.7643,-199.0352"/>
</g>
<!-- Node48&#45;&gt;Node36 -->
<g id="edge95" class="edge">
<title>Node48&#45;&gt;Node36</title>
<path fill="none" stroke="#191970" d="M384.7274,-762.3344C387.5176,-761.8813 390.2811,-761.4354 393,-761 470.761,-748.5477 559.8899,-735.1177 621.2481,-726.0031"/>
<polygon fill="#191970" stroke="#191970" points="621.8526,-729.4518 631.2306,-724.5219 620.8251,-722.5276 621.8526,-729.4518"/>
</g>
<!-- Node49&#45;&gt;Node2 -->
<g id="edge98" class="edge">
<title>Node49&#45;&gt;Node2</title>
<path fill="none" stroke="#191970" d="M859.242,-761.4016C818.9004,-727.102 720.6396,-643.5576 679.0722,-608.2158"/>
<polygon fill="#191970" stroke="#191970" points="681.2115,-605.4406 671.3258,-601.6295 676.6772,-610.7735 681.2115,-605.4406"/>
</g>
<!-- Node49&#45;&gt;Node34 -->
<g id="edge99" class="edge">
<title>Node49&#45;&gt;Node34</title>
<path fill="none" stroke="#191970" d="M872.6009,-761.2027C865.8651,-734.8494 855.5089,-679.7043 873,-638 886.7356,-605.2499 902.0833,-603.9521 930,-582 944.8267,-570.3411 962.7653,-559.1269 977.2671,-550.69"/>
<polygon fill="#191970" stroke="#191970" points="979.2849,-553.5683 986.2333,-545.5701 975.8137,-547.4895 979.2849,-553.5683"/>
</g>
<!-- Node49&#45;&gt;Node36 -->
<g id="edge97" class="edge">
<title>Node49&#45;&gt;Node36</title>
<path fill="none" stroke="#191970" d="M832.7224,-761.4554C802.3896,-751.149 762.5871,-737.6249 733.7556,-727.8286"/>
<polygon fill="#191970" stroke="#191970" points="734.643,-724.4336 724.0486,-724.5303 732.3909,-731.0615 734.643,-724.4336"/>
</g>
<!-- Node50&#45;&gt;Node33 -->
<g id="edge103" class="edge">
<title>Node50&#45;&gt;Node33</title>
<path fill="none" stroke="#191970" d="M1914.0629,-582.4369C1867.7355,-572.7925 1796.1732,-557.8948 1746.6531,-547.5858"/>
<polygon fill="#191970" stroke="#191970" points="1747.2511,-544.1353 1736.7476,-545.5237 1745.8244,-550.9884 1747.2511,-544.1353"/>
</g>
<!-- Node50&#45;&gt;Node34 -->
<g id="edge104" class="edge">
<title>Node50&#45;&gt;Node34</title>
<path fill="none" stroke="#191970" d="M1885.9863,-587.2655C1859.2125,-585.5739 1828.7466,-583.6732 1801,-582 1505.441,-564.1765 1148.1354,-544.0658 1037.9723,-537.8979"/>
<polygon fill="#191970" stroke="#191970" points="1037.9806,-534.393 1027.8007,-537.3287 1037.5895,-541.3821 1037.9806,-534.393"/>
</g>
<!-- Node51&#45;&gt;Node33 -->
<g id="edge106" class="edge">
<title>Node51&#45;&gt;Node33</title>
<path fill="none" stroke="#191970" d="M2099.0483,-705.3355C2096.0269,-680.3208 2084.2624,-613.233 2043,-582 2021.6723,-565.8563 1867.3913,-550.4535 1770.2897,-542.211"/>
<polygon fill="#191970" stroke="#191970" points="1770.462,-538.7132 1760.2039,-541.3631 1769.8755,-545.6886 1770.462,-538.7132"/>
</g>
<!-- Node52&#45;&gt;Node2 -->
<g id="edge112" class="edge">
<title>Node52&#45;&gt;Node2</title>
<path fill="none" stroke="#191970" d="M885.8564,-638.4554C833.5605,-627.6989 764.2252,-613.4376 716.2368,-603.5671"/>
<polygon fill="#191970" stroke="#191970" points="716.8345,-600.1168 706.3344,-601.5303 715.4242,-606.9733 716.8345,-600.1168"/>
</g>
<!-- Node52&#45;&gt;Node3 -->
<g id="edge108" class="edge">
<title>Node52&#45;&gt;Node3</title>
<path fill="none" stroke="#191970" d="M1034.9452,-638.4586C1077.1546,-628.8706 1124.4239,-615.7062 1141,-602 1168.471,-579.2852 1209.1872,-480.0186 1225.6733,-437.7109"/>
<polygon fill="#191970" stroke="#191970" points="1228.9842,-438.8527 1229.3198,-428.2632 1222.4537,-436.3321 1228.9842,-438.8527"/>
</g>
<!-- Node52&#45;&gt;Node26 -->
<g id="edge109" class="edge">
<title>Node52&#45;&gt;Node26</title>
<path fill="none" stroke="#191970" d="M881.7663,-646.3162C786.7702,-636.9241 631.3047,-619.5885 576,-602 524.8496,-585.7327 496.7946,-591.9178 469,-546 460.3121,-531.6472 465.7288,-512.6941 472.1866,-498.7817"/>
<polygon fill="#191970" stroke="#191970" points="475.4081,-500.1713 476.886,-489.68 469.1882,-496.9598 475.4081,-500.1713"/>
</g>
<!-- Node52&#45;&gt;Node33 -->
<g id="edge111" class="edge">
<title>Node52&#45;&gt;Node33</title>
<path fill="none" stroke="#191970" d="M1036.1775,-647.8904C1143.8001,-639.483 1333.1579,-622.4032 1399,-602 1417.23,-596.3509 1418.9558,-588.2173 1437,-582 1493.9015,-562.3941 1561.0037,-550.6993 1611.9445,-544.0109"/>
<polygon fill="#191970" stroke="#191970" points="1612.433,-547.477 1621.9094,-542.7391 1611.5468,-540.5333 1612.433,-547.477"/>
</g>
<!-- Node52&#45;&gt;Node34 -->
<g id="edge118" class="edge">
<title>Node52&#45;&gt;Node34</title>
<path fill="none" stroke="#191970" d="M948.1402,-638.3378C938.8878,-623.4012 928.4817,-600.2361 938,-582 945.1245,-568.3502 958.3523,-557.926 971.1056,-550.4806"/>
<polygon fill="#191970" stroke="#191970" points="973.0647,-553.4012 980.2141,-545.5822 969.7492,-547.2362 973.0647,-553.4012"/>
</g>
<!-- Node52&#45;&gt;Node37 -->
<g id="edge110" class="edge">
<title>Node52&#45;&gt;Node37</title>
<path fill="none" stroke="#191970" d="M946.3194,-638.4208C935.8834,-624.1282 923.7468,-601.9392 930,-582 944.9052,-534.4729 970.8033,-534.0783 994,-490 1002.9504,-472.9924 1010.416,-452.3415 1015.2117,-437.6146"/>
<polygon fill="#191970" stroke="#191970" points="1018.5505,-438.6645 1018.2149,-428.075 1011.8735,-436.5624 1018.5505,-438.6645"/>
</g>
<!-- Node53 -->
<g id="node46" class="node">
<title>Node53</title>
<g id="a_node46"><a xlink:href="JointState_8h.html" target="_top" xlink:title="iDynTree/Model/JointState.h">
<polygon fill="none" stroke="#000000" points="980.5,-582.5 980.5,-601.5 1131.5,-601.5 1131.5,-582.5 980.5,-582.5"/>
<text text-anchor="middle" x="1056" y="-589.5" font-family="FreeSans.ttf" font-size="10.00" fill="#000000">iDynTree/Model/JointState.h</text>
</a>
</g>
</g>
<!-- Node52&#45;&gt;Node53 -->
<g id="edge113" class="edge">
<title>Node52&#45;&gt;Node53</title>
<path fill="none" stroke="#191970" d="M982.9775,-638.2977C997.9376,-628.8127 1017.122,-616.6495 1032.0726,-607.1705"/>
<polygon fill="#191970" stroke="#191970" points="1034.1873,-609.9739 1040.7587,-601.6633 1030.439,-604.062 1034.1873,-609.9739"/>
</g>
<!-- Node53&#45;&gt;Node6 -->
<g id="edge114" class="edge">
<title>Node53&#45;&gt;Node6</title>
<path fill="none" stroke="#191970" d="M1064.3363,-582.2061C1088.2135,-552.909 1152.7271,-464.1966 1114,-403 1094.0134,-371.4172 1071.0012,-384.5459 1038,-367 951.7866,-321.1626 930.1761,-309.2612 849,-255 795.4228,-219.187 784.6556,-206.533 733,-168 719.514,-157.94 704.346,-146.6853 692.3883,-137.8264"/>
<polygon fill="#191970" stroke="#191970" points="694.4379,-134.9891 684.3186,-131.8506 690.2721,-140.6146 694.4379,-134.9891"/>
</g>
<!-- Node53&#45;&gt;Node31 -->
<g id="edge116" class="edge">
<title>Node53&#45;&gt;Node31</title>
<path fill="none" stroke="#191970" d="M1056.2623,-582.2108C1056.0757,-567.5848 1053.3849,-540.2293 1037,-526 950.2496,-450.6624 888.3531,-530.9475 781,-490 764.6832,-483.7763 728.3938,-458.4912 702.6092,-439.7455"/>
<polygon fill="#191970" stroke="#191970" points="704.4492,-436.755 694.3116,-433.6759 700.3164,-442.4048 704.4492,-436.755"/>
</g>
<!-- Node53&#45;&gt;Node34 -->
<g id="edge117" class="edge">
<title>Node53&#45;&gt;Node34</title>
<path fill="none" stroke="#191970" d="M1046.9423,-582.2455C1039.4858,-574.2155 1028.7366,-562.6394 1019.8583,-553.0781"/>
<polygon fill="#191970" stroke="#191970" points="1022.3232,-550.589 1012.9539,-545.6427 1017.1937,-555.3522 1022.3232,-550.589"/>
</g>
<!-- Node53&#45;&gt;Node37 -->
<g id="edge115" class="edge">
<title>Node53&#45;&gt;Node37</title>
<path fill="none" stroke="#191970" d="M1060.7203,-582.1537C1066.3031,-569.2496 1074.3251,-545.9169 1070,-526 1062.7855,-492.7781 1044.3722,-457.5113 1032.2859,-436.7745"/>
<polygon fill="#191970" stroke="#191970" points="1035.2245,-434.8688 1027.0893,-428.0813 1029.2161,-438.4604 1035.2245,-434.8688"/>
</g>
<!-- Node54&#45;&gt;Node2 -->
<g id="edge123" class="edge">
<title>Node54&#45;&gt;Node2</title>
<path fill="none" stroke="#191970" d="M1369.9369,-643.9472C1357.6323,-641.7166 1344.3541,-639.5443 1332,-638 1121.8627,-611.7321 872.7462,-599.6089 744.956,-594.7633"/>
<polygon fill="#191970" stroke="#191970" points="744.9677,-591.2614 734.844,-594.3855 744.7063,-598.2565 744.9677,-591.2614"/>
</g>
<!-- Node54&#45;&gt;Node33 -->
<g id="edge122" class="edge">
<title>Node54&#45;&gt;Node33</title>
<path fill="none" stroke="#191970" d="M1493.167,-648.6016C1599.3229,-640.9872 1781.0701,-624.7813 1801,-602 1822.5378,-577.3809 1783.1535,-559.2862 1745.6633,-548.3333"/>
<polygon fill="#191970" stroke="#191970" points="1746.2747,-544.8707 1735.7029,-545.5685 1744.4024,-551.6157 1746.2747,-544.8707"/>
</g>
<!-- Node54&#45;&gt;Node53 -->
<g id="edge124" class="edge">
<title>Node54&#45;&gt;Node53</title>
<path fill="none" stroke="#191970" d="M1365.3301,-643.948C1354.334,-641.9516 1342.7872,-639.8824 1332,-638 1261.4959,-625.6971 1180.7293,-612.3194 1124.8642,-603.1788"/>
<polygon fill="#191970" stroke="#191970" points="1125.1644,-599.6815 1114.7308,-601.5226 1124.0353,-606.5899 1125.1644,-599.6815"/>
</g>
<!-- Node55 -->
<g id="node48" class="node">
<title>Node55</title>
<g id="a_node48"><a xlink:href="MatrixDynSize_8h.html" target="_top" xlink:title="iDynTree/Core/MatrixDynSize.h">
<polygon fill="none" stroke="#000000" points="1361.5,-409 1361.5,-428 1528.5,-428 1528.5,-409 1361.5,-409"/>
<text text-anchor="middle" x="1445" y="-416" font-family="FreeSans.ttf" font-size="10.00" fill="#000000">iDynTree/Core/MatrixDynSize.h</text>
</a>
</g>
</g>
<!-- Node54&#45;&gt;Node55 -->
<g id="edge120" class="edge">
<title>Node54&#45;&gt;Node55</title>
<path fill="none" stroke="#191970" d="M1493.207,-652.8811C1651.9523,-650.7978 2006.4296,-641.7026 2043,-602 2116.6987,-521.9892 1708.8256,-454.8284 1527.9725,-429.4053"/>
<polygon fill="#191970" stroke="#191970" points="1528.3512,-425.9243 1517.9634,-428.0083 1527.3835,-432.8571 1528.3512,-425.9243"/>
</g>
<!-- Node55&#45;&gt;Node18 -->
<g id="edge121" class="edge">
<title>Node55&#45;&gt;Node18</title>
<path fill="none" stroke="#191970" d="M1444.0267,-408.7627C1442.1033,-388.6514 1438,-341.0535 1438,-301 1438,-301 1438,-301 1438,-183.5 1438,-104.9117 1323.196,-78.1434 1265.4139,-69.6476"/>
<polygon fill="#191970" stroke="#191970" points="1265.7115,-66.1557 1255.3288,-68.2655 1264.761,-73.0909 1265.7115,-66.1557"/>
</g>
<!-- Node56&#45;&gt;Node3 -->
<g id="edge134" class="edge">
<title>Node56&#45;&gt;Node3</title>
<path fill="none" stroke="#191970" d="M927.1653,-470.4581C991.8619,-459.4668 1098.0465,-441.4272 1166.7303,-429.7585"/>
<polygon fill="#191970" stroke="#191970" points="1167.7283,-433.1392 1177.0008,-428.0137 1166.5558,-426.2381 1167.7283,-433.1392"/>
</g>
<!-- Node56&#45;&gt;Node6 -->
<g id="edge129" class="edge">
<title>Node56&#45;&gt;Node6</title>
<path fill="none" stroke="#191970" d="M869.6422,-470.1863C867.3393,-455.222 861.9218,-426.0118 852,-403 805.4542,-295.0456 719.2247,-181.9748 685.2701,-139.4932"/>
<polygon fill="#191970" stroke="#191970" points="687.8507,-137.1176 678.851,-131.5268 682.3999,-141.5095 687.8507,-137.1176"/>
</g>
<!-- Node56&#45;&gt;Node7 -->
<g id="edge135" class="edge">
<title>Node56&#45;&gt;Node7</title>
<path fill="none" stroke="#191970" d="M790.2472,-473.1373C653.0355,-461.3819 388.224,-438.245 379,-434 280.7108,-388.7663 262.964,-351.4852 214,-255 196.0454,-219.6199 171.0324,-200.3514 194,-168 221.7044,-128.9764 352.3912,-94.8455 429.2206,-77.7126"/>
<polygon fill="#191970" stroke="#191970" points="430.2158,-81.0774 439.2292,-75.5088 428.7104,-74.2412 430.2158,-81.0774"/>
</g>
<!-- Node56&#45;&gt;Node24 -->
<g id="edge131" class="edge">
<title>Node56&#45;&gt;Node24</title>
<path fill="none" stroke="#191970" d="M876.738,-470.4039C902.3007,-427.6492 1004.5777,-256.5342 1005,-255 1007.3587,-246.4298 1009.029,-242.9233 1005,-235 979.9202,-185.6788 922.1029,-152.7793 884.6082,-135.7612"/>
<polygon fill="#191970" stroke="#191970" points="885.6446,-132.3938 875.0812,-131.579 882.8309,-138.8034 885.6446,-132.3938"/>
</g>
<!-- Node56&#45;&gt;Node27 -->
<g id="edge132" class="edge">
<title>Node56&#45;&gt;Node27</title>
<path fill="none" stroke="#191970" d="M808.1631,-470.4581C739.9074,-460.0933 630.376,-443.4608 553.6741,-431.8135"/>
<polygon fill="#191970" stroke="#191970" points="553.9603,-428.3169 543.5481,-430.2758 552.9093,-435.2375 553.9603,-428.3169"/>
</g>
<!-- Node56&#45;&gt;Node31 -->
<g id="edge133" class="edge">
<title>Node56&#45;&gt;Node31</title>
<path fill="none" stroke="#191970" d="M840.2188,-470.3906C811.3354,-461.3737 767.3951,-447.6563 731.9455,-436.5896"/>
<polygon fill="#191970" stroke="#191970" points="732.7803,-433.1837 722.1916,-433.5446 730.6943,-439.8656 732.7803,-433.1837"/>
</g>
<!-- Node56&#45;&gt;Node37 -->
<g id="edge128" class="edge">
<title>Node56&#45;&gt;Node37</title>
<path fill="none" stroke="#191970" d="M894.4375,-470.3906C919.6453,-460.0554 959.9153,-443.5447 988.2477,-431.9284"/>
<polygon fill="#191970" stroke="#191970" points="989.8023,-435.0739 997.7271,-428.0419 987.1468,-428.5971 989.8023,-435.0739"/>
</g>
<!-- Node56&#45;&gt;Node55 -->
<g id="edge130" class="edge">
<title>Node56&#45;&gt;Node55</title>
<path fill="none" stroke="#191970" d="M951.6544,-472.0215C1040.6535,-463.1295 1188.1105,-448.1368 1315,-434 1328.4514,-432.5014 1342.6787,-430.8613 1356.5932,-429.2267"/>
<polygon fill="#191970" stroke="#191970" points="1357.1333,-432.6873 1366.6542,-428.0394 1356.313,-425.7355 1357.1333,-432.6873"/>
</g>
<!-- Node57 -->
<g id="node50" class="node">
<title>Node57</title>
<polygon fill="none" stroke="#bfbfbf" points="766.5,-409 766.5,-428 843.5,-428 843.5,-409 766.5,-409"/>
<text text-anchor="middle" x="805" y="-416" font-family="FreeSans.ttf" font-size="10.00" fill="#000000">Eigen/Dense</text>
</g>
<!-- Node56&#45;&gt;Node57 -->
<g id="edge127" class="edge">
<title>Node56&#45;&gt;Node57</title>
<path fill="none" stroke="#191970" d="M860.6875,-470.3906C850.5758,-460.9683 834.9558,-446.4134 822.8293,-435.1137"/>
<polygon fill="#191970" stroke="#191970" points="825.1601,-432.5015 815.4579,-428.2449 820.388,-437.6228 825.1601,-432.5015"/>
</g>
</g>
</svg>
