<?xml version="1.0" encoding="UTF-8" standalone="no"?>
<!DOCTYPE svg PUBLIC "-//W3C//DTD SVG 1.1//EN"
 "http://www.w3.org/Graphics/SVG/1.1/DTD/svg11.dtd">
<!-- Generated by graphviz version 2.40.1 (20161225.0304)
 -->
<!-- Title: PrismaticJoint.h Pages: 1 -->
<svg width="1325pt" height="487pt"
 viewBox="0.00 0.00 1324.50 487.00" xmlns="http://www.w3.org/2000/svg" xmlns:xlink="http://www.w3.org/1999/xlink">
<g id="graph0" class="graph" transform="scale(1 1) rotate(0) translate(4 483)">
<title>PrismaticJoint.h</title>
<!-- Node0 -->
<g id="node1" class="node">
<title>Node0</title>
<polygon fill="#bfbfbf" stroke="#000000" points="378.5,-459.5 378.5,-478.5 471.5,-478.5 471.5,-459.5 378.5,-459.5"/>
<text text-anchor="middle" x="425" y="-466.5" font-family="FreeSans.ttf" font-size="10.00" fill="#000000">PrismaticJoint.h</text>
</g>
<!-- Node1 -->
<g id="node2" class="node">
<title>Node1</title>
<g id="a_node2"><a xlink:href="Transform_8h.html" target="_top" xlink:title="iDynTree/Core/Transform.h">
<polygon fill="none" stroke="#000000" points="352,-336.5 352,-355.5 498,-355.5 498,-336.5 352,-336.5"/>
<text text-anchor="middle" x="425" y="-343.5" font-family="FreeSans.ttf" font-size="10.00" fill="#000000">iDynTree/Core/Transform.h</text>
</a>
</g>
</g>
<!-- Node0&#45;&gt;Node1 -->
<g id="edge1" class="edge">
<title>Node0&#45;&gt;Node1</title>
<path fill="none" stroke="#191970" d="M425,-459.3484C425,-439.2295 425,-392.4608 425,-365.7098"/>
<polygon fill="#191970" stroke="#191970" points="428.5001,-365.6067 425,-355.6068 421.5001,-365.6068 428.5001,-365.6067"/>
</g>
<!-- Node24 -->
<g id="node25" class="node">
<title>Node24</title>
<g id="a_node25"><a xlink:href="SpatialMotionVector_8h.html" target="_top" xlink:title="iDynTree/Core/SpatialMotion\lVector.h">
<polygon fill="none" stroke="#000000" points="1084.5,-392.5 1084.5,-422.5 1239.5,-422.5 1239.5,-392.5 1084.5,-392.5"/>
<text text-anchor="start" x="1092.5" y="-410.5" font-family="FreeSans.ttf" font-size="10.00" fill="#000000">iDynTree/Core/SpatialMotion</text>
<text text-anchor="middle" x="1162" y="-399.5" font-family="FreeSans.ttf" font-size="10.00" fill="#000000">Vector.h</text>
</a>
</g>
</g>
<!-- Node0&#45;&gt;Node24 -->
<g id="edge40" class="edge">
<title>Node0&#45;&gt;Node24</title>
<path fill="none" stroke="#191970" d="M471.6618,-465.1062C592.4922,-455.0234 917.0951,-427.9364 1074.2969,-414.8185"/>
<polygon fill="#191970" stroke="#191970" points="1074.7312,-418.2945 1084.4055,-413.975 1074.149,-411.3188 1074.7312,-418.2945"/>
</g>
<!-- Node26 -->
<g id="node27" class="node">
<title>Node26</title>
<g id="a_node27"><a xlink:href="Axis_8h.html" target="_top" xlink:title="iDynTree/Core/Axis.h">
<polygon fill="none" stroke="#000000" points="533,-336.5 533,-355.5 651,-355.5 651,-336.5 533,-336.5"/>
<text text-anchor="middle" x="592" y="-343.5" font-family="FreeSans.ttf" font-size="10.00" fill="#000000">iDynTree/Core/Axis.h</text>
</a>
</g>
</g>
<!-- Node0&#45;&gt;Node26 -->
<g id="edge50" class="edge">
<title>Node0&#45;&gt;Node26</title>
<path fill="none" stroke="#191970" d="M438.1042,-459.3484C466.8834,-438.1517 535.8264,-387.3734 570.833,-361.5901"/>
<polygon fill="#191970" stroke="#191970" points="572.9805,-364.3553 578.9567,-355.6068 568.8292,-358.719 572.9805,-364.3553"/>
</g>
<!-- Node28 -->
<g id="node29" class="node">
<title>Node28</title>
<g id="a_node29"><a xlink:href="Indices_8h.html" target="_top" xlink:title="iDynTree/Model/Indices.h">
<polygon fill="none" stroke="#000000" points="0,-280.5 0,-299.5 138,-299.5 138,-280.5 0,-280.5"/>
<text text-anchor="middle" x="69" y="-287.5" font-family="FreeSans.ttf" font-size="10.00" fill="#000000">iDynTree/Model/Indices.h</text>
</a>
</g>
</g>
<!-- Node0&#45;&gt;Node28 -->
<g id="edge58" class="edge">
<title>Node0&#45;&gt;Node28</title>
<path fill="none" stroke="#191970" d="M378.1836,-465.8417C333.7746,-461.2622 266.2531,-450.101 214,-423 157.3896,-393.6391 106.2338,-336.3712 82.6827,-307.5127"/>
<polygon fill="#191970" stroke="#191970" points="85.2701,-305.1445 76.2845,-299.5311 79.8083,-309.5228 85.2701,-305.1445"/>
</g>
<!-- Node29 -->
<g id="node30" class="node">
<title>Node29</title>
<g id="a_node30"><a xlink:href="MovableJointImpl_8h.html" target="_top" xlink:title="iDynTree/Model/MovableJoint\lImpl.h">
<polygon fill="none" stroke="#000000" points="223,-392.5 223,-422.5 381,-422.5 381,-392.5 223,-392.5"/>
<text text-anchor="start" x="231" y="-410.5" font-family="FreeSans.ttf" font-size="10.00" fill="#000000">iDynTree/Model/MovableJoint</text>
<text text-anchor="middle" x="302" y="-399.5" font-family="FreeSans.ttf" font-size="10.00" fill="#000000">Impl.h</text>
</a>
</g>
</g>
<!-- Node0&#45;&gt;Node29 -->
<g id="edge60" class="edge">
<title>Node0&#45;&gt;Node29</title>
<path fill="none" stroke="#191970" d="M405.7813,-459.3906C388.5182,-450.7591 362.6404,-437.8202 341.0447,-427.0224"/>
<polygon fill="#191970" stroke="#191970" points="342.5987,-423.8863 332.0892,-422.5446 339.4682,-430.1473 342.5987,-423.8863"/>
</g>
<!-- Node2 -->
<g id="node3" class="node">
<title>Node2</title>
<g id="a_node3"><a xlink:href="Position_8h.html" target="_top" xlink:title="iDynTree/Core/Position.h">
<polygon fill="none" stroke="#000000" points="524,-280.5 524,-299.5 660,-299.5 660,-280.5 524,-280.5"/>
<text text-anchor="middle" x="592" y="-287.5" font-family="FreeSans.ttf" font-size="10.00" fill="#000000">iDynTree/Core/Position.h</text>
</a>
</g>
</g>
<!-- Node1&#45;&gt;Node2 -->
<g id="edge2" class="edge">
<title>Node1&#45;&gt;Node2</title>
<path fill="none" stroke="#191970" d="M453.7083,-336.3733C481.3577,-327.1016 523.3576,-313.0178 553.8166,-302.804"/>
<polygon fill="#191970" stroke="#191970" points="555.2979,-305.9989 563.6663,-299.5011 553.0724,-299.3621 555.2979,-305.9989"/>
</g>
<!-- Node16 -->
<g id="node17" class="node">
<title>Node16</title>
<polygon fill="none" stroke="#bfbfbf" points="419,-56.5 419,-75.5 463,-75.5 463,-56.5 419,-56.5"/>
<text text-anchor="middle" x="441" y="-63.5" font-family="FreeSans.ttf" font-size="10.00" fill="#000000">string</text>
</g>
<!-- Node1&#45;&gt;Node16 -->
<g id="edge39" class="edge">
<title>Node1&#45;&gt;Node16</title>
<path fill="none" stroke="#191970" d="M380.7706,-336.4454C306.7971,-319.176 166,-280.2338 166,-234 166,-234 166,-234 166,-178 166,-146.7875 166.1604,-132.1468 190,-112 222.6389,-84.417 348.625,-72.2833 408.7336,-67.9783"/>
<polygon fill="#191970" stroke="#191970" points="409.077,-71.4631 418.8136,-67.2859 408.5973,-64.4795 409.077,-71.4631"/>
</g>
<!-- Node19 -->
<g id="node20" class="node">
<title>Node19</title>
<g id="a_node20"><a xlink:href="Rotation_8h.html" target="_top" xlink:title="iDynTree/Core/Rotation.h">
<polygon fill="none" stroke="#000000" points="620.5,-224.5 620.5,-243.5 757.5,-243.5 757.5,-224.5 620.5,-224.5"/>
<text text-anchor="middle" x="689" y="-231.5" font-family="FreeSans.ttf" font-size="10.00" fill="#000000">iDynTree/Core/Rotation.h</text>
</a>
</g>
</g>
<!-- Node1&#45;&gt;Node19 -->
<g id="edge37" class="edge">
<title>Node1&#45;&gt;Node19</title>
<path fill="none" stroke="#191970" d="M495.531,-336.4854C562.9089,-326.7956 656.0875,-311.5894 669,-300 681.9227,-288.4015 686.6223,-268.7617 688.2685,-253.9145"/>
<polygon fill="#191970" stroke="#191970" points="691.7762,-253.937 689.0178,-243.7076 684.795,-253.4245 691.7762,-253.937"/>
</g>
<!-- Node22 -->
<g id="node23" class="node">
<title>Node22</title>
<g id="a_node23"><a xlink:href="MatrixFixSize_8h.html" target="_top" xlink:title="iDynTree/Core/MatrixFixSize.h">
<polygon fill="none" stroke="#000000" points="647.5,-112.5 647.5,-131.5 808.5,-131.5 808.5,-112.5 647.5,-112.5"/>
<text text-anchor="middle" x="728" y="-119.5" font-family="FreeSans.ttf" font-size="10.00" fill="#000000">iDynTree/Core/MatrixFixSize.h</text>
</a>
</g>
</g>
<!-- Node1&#45;&gt;Node22 -->
<g id="edge38" class="edge">
<title>Node1&#45;&gt;Node22</title>
<path fill="none" stroke="#191970" d="M408.7915,-336.3551C364.1249,-308.643 245.9865,-227.0019 299,-168 321.1642,-143.3322 517.9498,-130.7804 637.1612,-125.3862"/>
<polygon fill="#191970" stroke="#191970" points="637.5458,-128.8726 647.3808,-124.9326 637.2354,-121.8795 637.5458,-128.8726"/>
</g>
<!-- Node3 -->
<g id="node4" class="node">
<title>Node3</title>
<g id="a_node4"><a xlink:href="PositionRaw_8h.html" target="_top" xlink:title="iDynTree/Core/PositionRaw.h">
<polygon fill="none" stroke="#000000" points="522,-168.5 522,-187.5 678,-187.5 678,-168.5 522,-168.5"/>
<text text-anchor="middle" x="600" y="-175.5" font-family="FreeSans.ttf" font-size="10.00" fill="#000000">iDynTree/Core/PositionRaw.h</text>
</a>
</g>
</g>
<!-- Node2&#45;&gt;Node3 -->
<g id="edge3" class="edge">
<title>Node2&#45;&gt;Node3</title>
<path fill="none" stroke="#191970" d="M592.6821,-280.4509C593.9869,-262.184 596.8603,-221.9553 598.593,-197.6976"/>
<polygon fill="#191970" stroke="#191970" points="602.0982,-197.7489 599.3197,-187.5249 595.116,-197.2501 602.0982,-197.7489"/>
</g>
<!-- Node2&#45;&gt;Node16 -->
<g id="edge36" class="edge">
<title>Node2&#45;&gt;Node16</title>
<path fill="none" stroke="#191970" d="M544.7685,-280.4499C469.5426,-264.1739 328.0194,-228.8298 299,-188 263.445,-137.9746 357.6013,-95.3707 409.459,-76.4577"/>
<polygon fill="#191970" stroke="#191970" points="410.6603,-79.7453 418.9124,-73.1004 408.3176,-73.1489 410.6603,-79.7453"/>
</g>
<!-- Node2&#45;&gt;Node19 -->
<g id="edge22" class="edge">
<title>Node2&#45;&gt;Node19</title>
<path fill="none" stroke="#191970" d="M608.8961,-280.2455C623.918,-271.5731 646.1043,-258.7645 663.321,-248.825"/>
<polygon fill="#191970" stroke="#191970" points="665.3871,-251.6737 672.2975,-243.6427 661.8872,-245.6114 665.3871,-251.6737"/>
</g>
<!-- Node4 -->
<g id="node5" class="node">
<title>Node4</title>
<g id="a_node5"><a xlink:href="VectorFixSize_8h.html" target="_top" xlink:title="iDynTree/Core/VectorFixSize.h">
<polygon fill="none" stroke="#000000" points="884.5,-112.5 884.5,-131.5 1045.5,-131.5 1045.5,-112.5 884.5,-112.5"/>
<text text-anchor="middle" x="965" y="-119.5" font-family="FreeSans.ttf" font-size="10.00" fill="#000000">iDynTree/Core/VectorFixSize.h</text>
</a>
</g>
</g>
<!-- Node3&#45;&gt;Node4 -->
<g id="edge4" class="edge">
<title>Node3&#45;&gt;Node4</title>
<path fill="none" stroke="#191970" d="M662.331,-168.4369C726.2415,-158.6314 825.5459,-143.3957 892.8268,-133.0731"/>
<polygon fill="#191970" stroke="#191970" points="893.5725,-136.4998 902.9261,-131.5237 892.5109,-129.5807 893.5725,-136.4998"/>
</g>
<!-- Node3&#45;&gt;Node16 -->
<g id="edge21" class="edge">
<title>Node3&#45;&gt;Node16</title>
<path fill="none" stroke="#191970" d="M586.6539,-168.2943C568.8097,-155.3477 536.1569,-131.7624 508,-112 493.268,-101.6601 476.5819,-90.2032 463.5471,-81.3099"/>
<polygon fill="#191970" stroke="#191970" points="465.4105,-78.3443 455.1752,-75.6077 461.4699,-84.1299 465.4105,-78.3443"/>
</g>
<!-- Node5 -->
<g id="node6" class="node">
<title>Node5</title>
<g id="a_node6"><a xlink:href="Utils_8h.html" target="_top" xlink:title="iDynTree/Core/Utils.h">
<polygon fill="none" stroke="#000000" points="1102.5,-56.5 1102.5,-75.5 1221.5,-75.5 1221.5,-56.5 1102.5,-56.5"/>
<text text-anchor="middle" x="1162" y="-63.5" font-family="FreeSans.ttf" font-size="10.00" fill="#000000">iDynTree/Core/Utils.h</text>
</a>
</g>
</g>
<!-- Node4&#45;&gt;Node5 -->
<g id="edge5" class="edge">
<title>Node4&#45;&gt;Node5</title>
<path fill="none" stroke="#191970" d="M998.8655,-112.3733C1032.049,-102.9404 1082.755,-88.5265 1118.8194,-78.2747"/>
<polygon fill="#191970" stroke="#191970" points="1119.9145,-81.6021 1128.5764,-75.5011 1118.0005,-74.8689 1119.9145,-81.6021"/>
</g>
<!-- Node7 -->
<g id="node8" class="node">
<title>Node7</title>
<g id="a_node8"><a xlink:href="Span_8h.html" target="_top" xlink:title="iDynTree/Core/Span.h">
<polygon fill="none" stroke="#000000" points="963.5,-56.5 963.5,-75.5 1084.5,-75.5 1084.5,-56.5 963.5,-56.5"/>
<text text-anchor="middle" x="1024" y="-63.5" font-family="FreeSans.ttf" font-size="10.00" fill="#000000">iDynTree/Core/Span.h</text>
</a>
</g>
</g>
<!-- Node4&#45;&gt;Node7 -->
<g id="edge7" class="edge">
<title>Node4&#45;&gt;Node7</title>
<path fill="none" stroke="#191970" d="M975.277,-112.2455C983.8218,-104.1352 996.1778,-92.4075 1006.3085,-82.7919"/>
<polygon fill="#191970" stroke="#191970" points="1008.9972,-85.0655 1013.8408,-75.6427 1004.1782,-79.9884 1008.9972,-85.0655"/>
</g>
<!-- Node8 -->
<g id="node9" class="node">
<title>Node8</title>
<polygon fill="none" stroke="#bfbfbf" points="684,-.5 684,-19.5 736,-19.5 736,-.5 684,-.5"/>
<text text-anchor="middle" x="710" y="-7.5" font-family="FreeSans.ttf" font-size="10.00" fill="#000000">cassert</text>
</g>
<!-- Node4&#45;&gt;Node8 -->
<g id="edge19" class="edge">
<title>Node4&#45;&gt;Node8</title>
<path fill="none" stroke="#191970" d="M947.2915,-112.4032C914.5447,-94.67 847.3528,-58.3514 842,-56 810.1812,-42.0226 772.6552,-29.2885 745.7639,-20.7806"/>
<polygon fill="#191970" stroke="#191970" points="746.6012,-17.3754 736.0124,-17.733 744.513,-24.0567 746.6012,-17.3754"/>
</g>
<!-- Node4&#45;&gt;Node16 -->
<g id="edge17" class="edge">
<title>Node4&#45;&gt;Node16</title>
<path fill="none" stroke="#191970" d="M884.2734,-113.3727C766.8191,-100.8204 554.0309,-78.0796 473.2671,-69.4484"/>
<polygon fill="#191970" stroke="#191970" points="473.523,-65.9559 463.2077,-68.3733 472.7791,-72.9163 473.523,-65.9559"/>
</g>
<!-- Node17 -->
<g id="node18" class="node">
<title>Node17</title>
<polygon fill="none" stroke="#bfbfbf" points="889,-56.5 889,-75.5 945,-75.5 945,-56.5 889,-56.5"/>
<text text-anchor="middle" x="917" y="-63.5" font-family="FreeSans.ttf" font-size="10.00" fill="#000000">sstream</text>
</g>
<!-- Node4&#45;&gt;Node17 -->
<g id="edge18" class="edge">
<title>Node4&#45;&gt;Node17</title>
<path fill="none" stroke="#191970" d="M956.639,-112.2455C949.825,-104.2958 940.0319,-92.8706 931.8848,-83.3656"/>
<polygon fill="#191970" stroke="#191970" points="934.4305,-80.9575 925.2651,-75.6427 929.1157,-85.513 934.4305,-80.9575"/>
</g>
<!-- Node18 -->
<g id="node19" class="node">
<title>Node18</title>
<polygon fill="none" stroke="#bfbfbf" points="783,-56.5 783,-75.5 833,-75.5 833,-56.5 783,-56.5"/>
<text text-anchor="middle" x="808" y="-63.5" font-family="FreeSans.ttf" font-size="10.00" fill="#000000">cstring</text>
</g>
<!-- Node4&#45;&gt;Node18 -->
<g id="edge20" class="edge">
<title>Node4&#45;&gt;Node18</title>
<path fill="none" stroke="#191970" d="M938.0107,-112.3733C911.6595,-102.9741 871.4433,-88.6295 842.7216,-78.3848"/>
<polygon fill="#191970" stroke="#191970" points="843.678,-75.01 833.0833,-74.9469 841.3262,-81.6031 843.678,-75.01"/>
</g>
<!-- Node6 -->
<g id="node7" class="node">
<title>Node6</title>
<polygon fill="none" stroke="#bfbfbf" points="1263.5,-.5 1263.5,-19.5 1316.5,-19.5 1316.5,-.5 1263.5,-.5"/>
<text text-anchor="middle" x="1290" y="-7.5" font-family="FreeSans.ttf" font-size="10.00" fill="#000000">cstddef</text>
</g>
<!-- Node5&#45;&gt;Node6 -->
<g id="edge6" class="edge">
<title>Node5&#45;&gt;Node6</title>
<path fill="none" stroke="#191970" d="M1184.004,-56.3733C1204.6435,-47.3435 1235.7158,-33.7494 1258.8889,-23.6111"/>
<polygon fill="#191970" stroke="#191970" points="1260.5245,-26.7159 1268.2831,-19.5011 1257.7187,-20.3028 1260.5245,-26.7159"/>
</g>
<!-- Node7&#45;&gt;Node6 -->
<g id="edge11" class="edge">
<title>Node7&#45;&gt;Node6</title>
<path fill="none" stroke="#191970" d="M1078.416,-56.4621C1123.107,-48.3348 1188.2445,-35.8196 1253.2925,-20.2857"/>
<polygon fill="#191970" stroke="#191970" points="1254.4064,-23.6175 1263.3066,-17.8698 1252.7647,-16.8127 1254.4064,-23.6175"/>
</g>
<!-- Node7&#45;&gt;Node8 -->
<g id="edge8" class="edge">
<title>Node7&#45;&gt;Node8</title>
<path fill="none" stroke="#191970" d="M963.2569,-56.8214C898.4224,-46.8859 798.8987,-31.2037 746.1846,-20.0328"/>
<polygon fill="#191970" stroke="#191970" points="746.8078,-16.5864 736.29,-17.8619 745.3075,-23.4237 746.8078,-16.5864"/>
</g>
<!-- Node9 -->
<g id="node10" class="node">
<title>Node9</title>
<polygon fill="none" stroke="#bfbfbf" points="754,-.5 754,-19.5 818,-19.5 818,-.5 754,-.5"/>
<text text-anchor="middle" x="786" y="-7.5" font-family="FreeSans.ttf" font-size="10.00" fill="#000000">algorithm</text>
</g>
<!-- Node7&#45;&gt;Node9 -->
<g id="edge9" class="edge">
<title>Node7&#45;&gt;Node9</title>
<path fill="none" stroke="#191970" d="M982.4649,-56.4264C944.6803,-47.6893 887.1056,-34.3066 828.0884,-20.2448"/>
<polygon fill="#191970" stroke="#191970" points="828.761,-16.8071 818.2217,-17.8907 827.1364,-23.6159 828.761,-16.8071"/>
</g>
<!-- Node10 -->
<g id="node11" class="node">
<title>Node10</title>
<polygon fill="none" stroke="#bfbfbf" points="836,-.5 836,-19.5 878,-19.5 878,-.5 836,-.5"/>
<text text-anchor="middle" x="857" y="-7.5" font-family="FreeSans.ttf" font-size="10.00" fill="#000000">array</text>
</g>
<!-- Node7&#45;&gt;Node10 -->
<g id="edge10" class="edge">
<title>Node7&#45;&gt;Node10</title>
<path fill="none" stroke="#191970" d="M995.2917,-56.3733C965.4639,-46.3711 918.9352,-30.7687 888.2116,-20.4662"/>
<polygon fill="#191970" stroke="#191970" points="889.0391,-17.0522 878.4452,-17.1912 886.8136,-23.689 889.0391,-17.0522"/>
</g>
<!-- Node11 -->
<g id="node12" class="node">
<title>Node11</title>
<polygon fill="none" stroke="#bfbfbf" points="896.5,-.5 896.5,-19.5 949.5,-19.5 949.5,-.5 896.5,-.5"/>
<text text-anchor="middle" x="923" y="-7.5" font-family="FreeSans.ttf" font-size="10.00" fill="#000000">iterator</text>
</g>
<!-- Node7&#45;&gt;Node11 -->
<g id="edge12" class="edge">
<title>Node7&#45;&gt;Node11</title>
<path fill="none" stroke="#191970" d="M1006.4071,-56.2455C990.621,-47.4928 967.2361,-34.527 949.2413,-24.5496"/>
<polygon fill="#191970" stroke="#191970" points="950.8341,-21.4308 940.3913,-19.6427 947.4397,-27.5528 950.8341,-21.4308"/>
</g>
<!-- Node12 -->
<g id="node13" class="node">
<title>Node12</title>
<polygon fill="none" stroke="#bfbfbf" points="968,-.5 968,-19.5 1012,-19.5 1012,-.5 968,-.5"/>
<text text-anchor="middle" x="990" y="-7.5" font-family="FreeSans.ttf" font-size="10.00" fill="#000000">limits</text>
</g>
<!-- Node7&#45;&gt;Node12 -->
<g id="edge13" class="edge">
<title>Node7&#45;&gt;Node12</title>
<path fill="none" stroke="#191970" d="M1018.0777,-56.2455C1013.3973,-48.5367 1006.7327,-37.5598 1001.0711,-28.2348"/>
<polygon fill="#191970" stroke="#191970" points="1004.0361,-26.3741 995.8545,-19.6427 998.0525,-30.007 1004.0361,-26.3741"/>
</g>
<!-- Node13 -->
<g id="node14" class="node">
<title>Node13</title>
<polygon fill="none" stroke="#bfbfbf" points="1030.5,-.5 1030.5,-19.5 1095.5,-19.5 1095.5,-.5 1030.5,-.5"/>
<text text-anchor="middle" x="1063" y="-7.5" font-family="FreeSans.ttf" font-size="10.00" fill="#000000">stdexcept</text>
</g>
<!-- Node7&#45;&gt;Node13 -->
<g id="edge14" class="edge">
<title>Node7&#45;&gt;Node13</title>
<path fill="none" stroke="#191970" d="M1030.7933,-56.2455C1036.2178,-48.4564 1043.9661,-37.3308 1050.5033,-27.9439"/>
<polygon fill="#191970" stroke="#191970" points="1053.4417,-29.849 1056.2846,-19.6427 1047.6975,-25.8485 1053.4417,-29.849"/>
</g>
<!-- Node14 -->
<g id="node15" class="node">
<title>Node14</title>
<polygon fill="none" stroke="#bfbfbf" points="1113.5,-.5 1113.5,-19.5 1182.5,-19.5 1182.5,-.5 1113.5,-.5"/>
<text text-anchor="middle" x="1148" y="-7.5" font-family="FreeSans.ttf" font-size="10.00" fill="#000000">type_traits</text>
</g>
<!-- Node7&#45;&gt;Node14 -->
<g id="edge15" class="edge">
<title>Node7&#45;&gt;Node14</title>
<path fill="none" stroke="#191970" d="M1045.3164,-56.3733C1065.2216,-47.3838 1095.1436,-33.8706 1117.56,-23.7471"/>
<polygon fill="#191970" stroke="#191970" points="1119.2887,-26.8068 1126.9618,-19.5011 1116.4075,-20.4272 1119.2887,-26.8068"/>
</g>
<!-- Node15 -->
<g id="node16" class="node">
<title>Node15</title>
<polygon fill="none" stroke="#bfbfbf" points="1200.5,-.5 1200.5,-19.5 1245.5,-19.5 1245.5,-.5 1200.5,-.5"/>
<text text-anchor="middle" x="1223" y="-7.5" font-family="FreeSans.ttf" font-size="10.00" fill="#000000">utility</text>
</g>
<!-- Node7&#45;&gt;Node15 -->
<g id="edge16" class="edge">
<title>Node7&#45;&gt;Node15</title>
<path fill="none" stroke="#191970" d="M1060.8401,-56.4209C1092.9016,-47.9714 1140.8356,-35.0691 1190.6901,-20.3116"/>
<polygon fill="#191970" stroke="#191970" points="1191.764,-23.6438 1200.3496,-17.4358 1189.7666,-16.9348 1191.764,-23.6438"/>
</g>
<!-- Node19&#45;&gt;Node4 -->
<g id="edge35" class="edge">
<title>Node19&#45;&gt;Node4</title>
<path fill="none" stroke="#191970" d="M691.6274,-224.1504C696.0902,-209.4454 706.6117,-181.9882 726,-168 749.5981,-150.9745 816.9838,-138.9539 874.2102,-131.4809"/>
<polygon fill="#191970" stroke="#191970" points="874.9187,-134.919 884.3965,-130.1839 874.0345,-127.9751 874.9187,-134.919"/>
</g>
<!-- Node19&#45;&gt;Node16 -->
<g id="edge23" class="edge">
<title>Node19&#45;&gt;Node16</title>
<path fill="none" stroke="#191970" d="M634.5067,-224.4683C590.2274,-215.878 532.0935,-202.4141 513,-188 477.8231,-161.4442 456.6126,-112.2815 447.0531,-85.1774"/>
<polygon fill="#191970" stroke="#191970" points="450.3568,-84.0208 443.8567,-75.6543 443.7207,-86.2483 450.3568,-84.0208"/>
</g>
<!-- Node20 -->
<g id="node21" class="node">
<title>Node20</title>
<g id="a_node21"><a xlink:href="GeomVector3_8h.html" target="_top" xlink:title="iDynTree/Core/GeomVector3.h">
<polygon fill="none" stroke="#000000" points="932.5,-168.5 932.5,-187.5 1095.5,-187.5 1095.5,-168.5 932.5,-168.5"/>
<text text-anchor="middle" x="1014" y="-175.5" font-family="FreeSans.ttf" font-size="10.00" fill="#000000">iDynTree/Core/GeomVector3.h</text>
</a>
</g>
</g>
<!-- Node19&#45;&gt;Node20 -->
<g id="edge24" class="edge">
<title>Node19&#45;&gt;Node20</title>
<path fill="none" stroke="#191970" d="M744.5002,-224.4369C801.0563,-214.6918 888.7404,-199.5832 948.6259,-189.2645"/>
<polygon fill="#191970" stroke="#191970" points="949.4683,-192.671 958.7287,-187.5237 948.2796,-185.7726 949.4683,-192.671"/>
</g>
<!-- Node21 -->
<g id="node22" class="node">
<title>Node21</title>
<g id="a_node22"><a xlink:href="RotationRaw_8h.html" target="_top" xlink:title="iDynTree/Core/RotationRaw.h">
<polygon fill="none" stroke="#000000" points="308,-168.5 308,-187.5 466,-187.5 466,-168.5 308,-168.5"/>
<text text-anchor="middle" x="387" y="-175.5" font-family="FreeSans.ttf" font-size="10.00" fill="#000000">iDynTree/Core/RotationRaw.h</text>
</a>
</g>
</g>
<!-- Node19&#45;&gt;Node21 -->
<g id="edge26" class="edge">
<title>Node19&#45;&gt;Node21</title>
<path fill="none" stroke="#191970" d="M637.4275,-224.4369C585.091,-214.7321 504.068,-199.708 448.4388,-189.3926"/>
<polygon fill="#191970" stroke="#191970" points="448.8303,-185.9056 438.3598,-187.5237 447.554,-192.7883 448.8303,-185.9056"/>
</g>
<!-- Node20&#45;&gt;Node4 -->
<g id="edge25" class="edge">
<title>Node20&#45;&gt;Node4</title>
<path fill="none" stroke="#191970" d="M1005.4649,-168.2455C998.5088,-160.2958 988.5117,-148.8706 980.1949,-139.3656"/>
<polygon fill="#191970" stroke="#191970" points="982.6564,-136.8637 973.4373,-131.6427 977.3884,-141.4732 982.6564,-136.8637"/>
</g>
<!-- Node21&#45;&gt;Node16 -->
<g id="edge34" class="edge">
<title>Node21&#45;&gt;Node16</title>
<path fill="none" stroke="#191970" d="M391.604,-168.4509C400.5309,-149.936 420.3358,-108.8591 431.9749,-84.7187"/>
<polygon fill="#191970" stroke="#191970" points="435.2173,-86.0527 436.4076,-75.5249 428.9119,-83.0125 435.2173,-86.0527"/>
</g>
<!-- Node21&#45;&gt;Node22 -->
<g id="edge27" class="edge">
<title>Node21&#45;&gt;Node22</title>
<path fill="none" stroke="#191970" d="M445.2325,-168.4369C504.6955,-158.6717 596.9541,-143.5207 659.7965,-133.2006"/>
<polygon fill="#191970" stroke="#191970" points="660.707,-136.598 670.0076,-131.5237 659.5726,-129.6905 660.707,-136.598"/>
</g>
<!-- Node22&#45;&gt;Node5 -->
<g id="edge28" class="edge">
<title>Node22&#45;&gt;Node5</title>
<path fill="none" stroke="#191970" d="M807.6698,-112.4754C879.5353,-103.7715 988.4235,-90.3065 1092.2731,-76.2162"/>
<polygon fill="#191970" stroke="#191970" points="1092.8693,-79.6675 1102.306,-74.8509 1091.9253,-72.7314 1092.8693,-79.6675"/>
</g>
<!-- Node22&#45;&gt;Node8 -->
<g id="edge29" class="edge">
<title>Node22&#45;&gt;Node8</title>
<path fill="none" stroke="#191970" d="M718.6382,-112.3788C710.8766,-103.6808 700.425,-90.1096 696,-76 691.1322,-60.4786 695.6658,-42.3745 700.8331,-29.0575"/>
<polygon fill="#191970" stroke="#191970" points="704.19,-30.1126 704.9456,-19.5447 697.7647,-27.3348 704.19,-30.1126"/>
</g>
<!-- Node22&#45;&gt;Node16 -->
<g id="edge31" class="edge">
<title>Node22&#45;&gt;Node16</title>
<path fill="none" stroke="#191970" d="M678.989,-112.4369C620.0989,-100.9461 522.9897,-81.998 472.9724,-72.2385"/>
<polygon fill="#191970" stroke="#191970" points="473.53,-68.7814 463.0448,-70.3014 472.1894,-75.6518 473.53,-68.7814"/>
</g>
<!-- Node22&#45;&gt;Node17 -->
<g id="edge33" class="edge">
<title>Node22&#45;&gt;Node17</title>
<path fill="none" stroke="#191970" d="M760.4903,-112.3733C793.439,-102.6107 844.3942,-87.5128 879.1481,-77.2154"/>
<polygon fill="#191970" stroke="#191970" points="880.3399,-80.5127 888.9335,-74.316 878.3512,-73.8011 880.3399,-80.5127"/>
</g>
<!-- Node22&#45;&gt;Node18 -->
<g id="edge30" class="edge">
<title>Node22&#45;&gt;Node18</title>
<path fill="none" stroke="#191970" d="M741.9349,-112.2455C754.0947,-103.7337 771.9464,-91.2375 786.0285,-81.3801"/>
<polygon fill="#191970" stroke="#191970" points="788.0395,-84.2447 794.2248,-75.6427 784.0253,-78.51 788.0395,-84.2447"/>
</g>
<!-- Node23 -->
<g id="node24" class="node">
<title>Node23</title>
<polygon fill="none" stroke="#bfbfbf" points="705,-56.5 705,-75.5 765,-75.5 765,-56.5 705,-56.5"/>
<text text-anchor="middle" x="735" y="-63.5" font-family="FreeSans.ttf" font-size="10.00" fill="#000000">iostream</text>
</g>
<!-- Node22&#45;&gt;Node23 -->
<g id="edge32" class="edge">
<title>Node22&#45;&gt;Node23</title>
<path fill="none" stroke="#191970" d="M729.2193,-112.2455C730.1327,-104.9382 731.4132,-94.6944 732.5369,-85.7046"/>
<polygon fill="#191970" stroke="#191970" points="736.0272,-85.9996 733.7947,-75.6427 729.0813,-85.1313 736.0272,-85.9996"/>
</g>
<!-- Node24&#45;&gt;Node4 -->
<g id="edge41" class="edge">
<title>Node24&#45;&gt;Node4</title>
<path fill="none" stroke="#191970" d="M1174.2524,-392.3192C1184.2084,-378.1382 1195.866,-356.1846 1191,-336 1171.3414,-254.455 1168.7452,-222.5215 1105,-168 1085.7759,-151.5576 1060.5168,-140.9543 1036.7524,-134.1324"/>
<polygon fill="#191970" stroke="#191970" points="1037.6002,-130.7361 1027.0346,-131.5226 1035.7846,-137.4966 1037.6002,-130.7361"/>
</g>
<!-- Node24&#45;&gt;Node20 -->
<g id="edge42" class="edge">
<title>Node24&#45;&gt;Node20</title>
<path fill="none" stroke="#191970" d="M1169.8716,-392.4655C1176.5197,-377.6257 1183.8124,-354.5324 1176,-336 1148.026,-269.6408 1077.0545,-217.3052 1039.0033,-192.933"/>
<polygon fill="#191970" stroke="#191970" points="1040.8572,-189.9644 1030.5256,-187.6177 1037.1388,-195.8952 1040.8572,-189.9644"/>
</g>
<!-- Node25 -->
<g id="node26" class="node">
<title>Node25</title>
<g id="a_node26"><a xlink:href="SpatialVector_8h.html" target="_top" xlink:title="iDynTree/Core/SpatialVector.h">
<polygon fill="none" stroke="#000000" points="1005.5,-336.5 1005.5,-355.5 1166.5,-355.5 1166.5,-336.5 1005.5,-336.5"/>
<text text-anchor="middle" x="1086" y="-343.5" font-family="FreeSans.ttf" font-size="10.00" fill="#000000">iDynTree/Core/SpatialVector.h</text>
</a>
</g>
</g>
<!-- Node24&#45;&gt;Node25 -->
<g id="edge43" class="edge">
<title>Node24&#45;&gt;Node25</title>
<path fill="none" stroke="#191970" d="M1143.2135,-392.2977C1131.8947,-383.1384 1117.4895,-371.4816 1105.9654,-362.1562"/>
<polygon fill="#191970" stroke="#191970" points="1108.1439,-359.4167 1098.1686,-355.8469 1103.7405,-364.8583 1108.1439,-359.4167"/>
</g>
<!-- Node25&#45;&gt;Node2 -->
<g id="edge44" class="edge">
<title>Node25&#45;&gt;Node2</title>
<path fill="none" stroke="#191970" d="M1005.2552,-336.8467C912.5725,-326.3402 761.5973,-309.2256 670.0589,-298.8488"/>
<polygon fill="#191970" stroke="#191970" points="670.3517,-295.3596 660.021,-297.7109 669.5631,-302.3151 670.3517,-295.3596"/>
</g>
<!-- Node25&#45;&gt;Node5 -->
<g id="edge46" class="edge">
<title>Node25&#45;&gt;Node5</title>
<path fill="none" stroke="#191970" d="M1124.977,-336.3933C1143.8619,-329.5635 1164.8258,-318.2604 1176,-300 1218.2994,-230.8761 1186.3248,-127.7105 1170.0295,-85.2821"/>
<polygon fill="#191970" stroke="#191970" points="1173.2298,-83.8579 1166.2792,-75.8616 1166.7262,-86.447 1173.2298,-83.8579"/>
</g>
<!-- Node25&#45;&gt;Node17 -->
<g id="edge49" class="edge">
<title>Node25&#45;&gt;Node17</title>
<path fill="none" stroke="#191970" d="M1090.0271,-336.3405C1100.8367,-308.9243 1128.1504,-228.6881 1105,-168 1093.1079,-136.8253 1082.8755,-130.3368 1055,-112 1038.3413,-101.0417 989.7257,-86.0997 954.9166,-76.2582"/>
<polygon fill="#191970" stroke="#191970" points="955.6291,-72.8233 945.056,-73.5016 953.7444,-79.5648 955.6291,-72.8233"/>
</g>
<!-- Node25&#45;&gt;Node19 -->
<g id="edge45" class="edge">
<title>Node25&#45;&gt;Node19</title>
<path fill="none" stroke="#191970" d="M1040.1689,-336.4226C1000.2634,-327.8035 940.979,-314.3228 890,-300 831.8137,-283.6523 765.3813,-261.051 725.3454,-246.9901"/>
<polygon fill="#191970" stroke="#191970" points="726.3514,-243.6337 715.7566,-243.6084 724.0231,-250.2352 726.3514,-243.6337"/>
</g>
<!-- Node25&#45;&gt;Node20 -->
<g id="edge47" class="edge">
<title>Node25&#45;&gt;Node20</title>
<path fill="none" stroke="#191970" d="M1081.9227,-336.4862C1070.4426,-309.6994 1037.6813,-233.2565 1022.241,-197.2289"/>
<polygon fill="#191970" stroke="#191970" points="1025.3682,-195.6406 1018.2119,-187.8279 1018.9342,-198.3981 1025.3682,-195.6406"/>
</g>
<!-- Node25&#45;&gt;Node23 -->
<g id="edge48" class="edge">
<title>Node25&#45;&gt;Node23</title>
<path fill="none" stroke="#191970" d="M1076.4745,-336.1734C1043.1769,-302.1688 928.0285,-187.4588 818,-112 800.7365,-100.1605 780.1629,-88.7416 763.818,-80.2425"/>
<polygon fill="#191970" stroke="#191970" points="765.2362,-77.0366 754.7399,-75.5946 762.046,-83.2674 765.2362,-77.0366"/>
</g>
<!-- Node26&#45;&gt;Node2 -->
<g id="edge56" class="edge">
<title>Node26&#45;&gt;Node2</title>
<path fill="none" stroke="#191970" d="M592,-336.2455C592,-328.9382 592,-318.6944 592,-309.7046"/>
<polygon fill="#191970" stroke="#191970" points="595.5001,-309.6426 592,-299.6427 588.5001,-309.6427 595.5001,-309.6426"/>
</g>
<!-- Node26&#45;&gt;Node5 -->
<g id="edge57" class="edge">
<title>Node26&#45;&gt;Node5</title>
<path fill="none" stroke="#191970" d="M651.1198,-340.5639C796.9328,-326.364 1162,-285.6544 1162,-234 1162,-234 1162,-234 1162,-178 1162,-145.7116 1162,-108.1872 1162,-85.8048"/>
<polygon fill="#191970" stroke="#191970" points="1165.5001,-85.5883 1162,-75.5884 1158.5001,-85.5884 1165.5001,-85.5883"/>
</g>
<!-- Node26&#45;&gt;Node16 -->
<g id="edge51" class="edge">
<title>Node26&#45;&gt;Node16</title>
<path fill="none" stroke="#191970" d="M532.9957,-337.1633C457.1778,-322.0834 330.1851,-283.1699 287,-188 276.7514,-165.4145 299.2595,-116.881 304,-112 318.7164,-96.8474 373.3414,-81.7274 409.0103,-73.1523"/>
<polygon fill="#191970" stroke="#191970" points="410.0301,-76.508 418.9625,-70.8105 408.4267,-69.6941 410.0301,-76.508"/>
</g>
<!-- Node27 -->
<g id="node28" class="node">
<title>Node27</title>
<g id="a_node28"><a xlink:href="Direction_8h.html" target="_top" xlink:title="iDynTree/Core/Direction.h">
<polygon fill="none" stroke="#000000" points="734.5,-168.5 734.5,-187.5 875.5,-187.5 875.5,-168.5 734.5,-168.5"/>
<text text-anchor="middle" x="805" y="-175.5" font-family="FreeSans.ttf" font-size="10.00" fill="#000000">iDynTree/Core/Direction.h</text>
</a>
</g>
</g>
<!-- Node26&#45;&gt;Node27 -->
<g id="edge52" class="edge">
<title>Node26&#45;&gt;Node27</title>
<path fill="none" stroke="#191970" d="M618.8277,-336.4156C656.4248,-321.7776 724.8941,-290.5546 767,-244 779.7034,-229.9544 790.0874,-210.9648 796.7706,-196.9605"/>
<polygon fill="#191970" stroke="#191970" points="799.99,-198.3364 800.9632,-187.7863 793.6233,-195.4268 799.99,-198.3364"/>
</g>
<!-- Node27&#45;&gt;Node4 -->
<g id="edge54" class="edge">
<title>Node27&#45;&gt;Node4</title>
<path fill="none" stroke="#191970" d="M832.505,-168.3733C858.8802,-159.1419 898.8851,-145.1402 928.0358,-134.9375"/>
<polygon fill="#191970" stroke="#191970" points="929.5716,-138.1082 937.8539,-131.5011 927.2591,-131.5012 929.5716,-138.1082"/>
</g>
<!-- Node27&#45;&gt;Node5 -->
<g id="edge55" class="edge">
<title>Node27&#45;&gt;Node5</title>
<path fill="none" stroke="#191970" d="M875.5931,-172.0522C926.7359,-166.0731 996.8229,-154.3863 1055,-132 1087.6175,-119.4489 1121.2935,-96.7774 1141.9427,-81.5563"/>
<polygon fill="#191970" stroke="#191970" points="1144.0591,-84.344 1149.9537,-75.5404 1139.8556,-78.7466 1144.0591,-84.344"/>
</g>
<!-- Node27&#45;&gt;Node16 -->
<g id="edge53" class="edge">
<title>Node27&#45;&gt;Node16</title>
<path fill="none" stroke="#191970" d="M768.5761,-168.4841C734.8391,-159.5336 683.3371,-145.5228 639,-132 579.9829,-113.9998 511.8734,-90.7442 472.8796,-77.1889"/>
<polygon fill="#191970" stroke="#191970" points="473.7456,-73.7843 463.1508,-73.798 471.4417,-80.3943 473.7456,-73.7843"/>
</g>
<!-- Node28&#45;&gt;Node16 -->
<g id="edge59" class="edge">
<title>Node28&#45;&gt;Node16</title>
<path fill="none" stroke="#191970" d="M70.3306,-280.3225C75.0616,-249.9159 94.0144,-155.7307 152,-112 191.9608,-81.863 341.6035,-70.8672 408.4226,-67.4006"/>
<polygon fill="#191970" stroke="#191970" points="408.9635,-70.8783 418.7788,-66.8897 408.6185,-63.8868 408.9635,-70.8783"/>
</g>
<!-- Node30 -->
<g id="node31" class="node">
<title>Node30</title>
<g id="a_node31"><a xlink:href="IJoint_8h.html" target="_top" xlink:title="iDynTree/Model/IJoint.h">
<polygon fill="none" stroke="#000000" points="173,-336.5 173,-355.5 301,-355.5 301,-336.5 173,-336.5"/>
<text text-anchor="middle" x="237" y="-343.5" font-family="FreeSans.ttf" font-size="10.00" fill="#000000">iDynTree/Model/IJoint.h</text>
</a>
</g>
</g>
<!-- Node29&#45;&gt;Node30 -->
<g id="edge61" class="edge">
<title>Node29&#45;&gt;Node30</title>
<path fill="none" stroke="#191970" d="M285.9326,-392.2977C276.534,-383.4052 264.6473,-372.1586 254.943,-362.9769"/>
<polygon fill="#191970" stroke="#191970" points="257.0768,-360.1774 247.4073,-355.8469 252.2658,-365.2621 257.0768,-360.1774"/>
</g>
<!-- Node30&#45;&gt;Node28 -->
<g id="edge62" class="edge">
<title>Node30&#45;&gt;Node28</title>
<path fill="none" stroke="#191970" d="M208.1198,-336.3733C180.1839,-327.0613 137.6858,-312.8953 107.0131,-302.671"/>
<polygon fill="#191970" stroke="#191970" points="108.097,-299.3431 97.5034,-299.5011 105.8834,-305.9839 108.097,-299.3431"/>
</g>
</g>
</svg>
