<?xml version="1.0" encoding="UTF-8" standalone="no"?>
<!DOCTYPE svg PUBLIC "-//W3C//DTD SVG 1.1//EN"
 "http://www.w3.org/Graphics/SVG/1.1/DTD/svg11.dtd">
<!-- Generated by graphviz version 2.40.1 (20161225.0304)
 -->
<!-- Title: PrivateUtils.cpp Pages: 1 -->
<svg width="1334pt" height="599pt"
 viewBox="0.00 0.00 1334.00 599.00" xmlns="http://www.w3.org/2000/svg" xmlns:xlink="http://www.w3.org/1999/xlink">
<g id="graph0" class="graph" transform="scale(1 1) rotate(0) translate(4 595)">
<title>PrivateUtils.cpp</title>
<!-- Node0 -->
<g id="node1" class="node">
<title>Node0</title>
<polygon fill="#bfbfbf" stroke="#000000" points="213.5,-571.5 213.5,-590.5 307.5,-590.5 307.5,-571.5 213.5,-571.5"/>
<text text-anchor="middle" x="260.5" y="-578.5" font-family="FreeSans.ttf" font-size="10.00" fill="#000000">PrivateUtils.cpp</text>
</g>
<!-- Node1 -->
<g id="node2" class="node">
<title>Node1</title>
<g id="a_node2"><a xlink:href="PrivateUtils_8h.html" target="_top" xlink:title="iDynTree/Core/PrivateUtils.h">
<polygon fill="none" stroke="#000000" points="183.5,-515.5 183.5,-534.5 337.5,-534.5 337.5,-515.5 183.5,-515.5"/>
<text text-anchor="middle" x="260.5" y="-522.5" font-family="FreeSans.ttf" font-size="10.00" fill="#000000">iDynTree/Core/PrivateUtils.h</text>
</a>
</g>
</g>
<!-- Node0&#45;&gt;Node1 -->
<g id="edge1" class="edge">
<title>Node0&#45;&gt;Node1</title>
<path fill="none" stroke="#191970" d="M260.5,-571.2455C260.5,-563.9382 260.5,-553.6944 260.5,-544.7046"/>
<polygon fill="#191970" stroke="#191970" points="264.0001,-544.6426 260.5,-534.6427 257.0001,-544.6427 264.0001,-544.6426"/>
</g>
<!-- Node2 -->
<g id="node3" class="node">
<title>Node2</title>
<polygon fill="none" stroke="#bfbfbf" points="0,-398 0,-417 77,-417 77,-398 0,-398"/>
<text text-anchor="middle" x="38.5" y="-405" font-family="FreeSans.ttf" font-size="10.00" fill="#000000">Eigen/Dense</text>
</g>
<!-- Node1&#45;&gt;Node2 -->
<g id="edge2" class="edge">
<title>Node1&#45;&gt;Node2</title>
<path fill="none" stroke="#191970" d="M242.3328,-515.3845C203.3715,-494.7631 111.6031,-446.192 65.6759,-421.8837"/>
<polygon fill="#191970" stroke="#191970" points="67.0825,-418.6682 56.6069,-417.0836 63.8079,-424.855 67.0825,-418.6682"/>
</g>
<!-- Node3 -->
<g id="node4" class="node">
<title>Node3</title>
<g id="a_node4"><a xlink:href="EigenHelpers_8h.html" target="_top" xlink:title="iDynTree/Core/EigenHelpers.h">
<polygon fill="none" stroke="#000000" points="310,-459.5 310,-478.5 471,-478.5 471,-459.5 310,-459.5"/>
<text text-anchor="middle" x="390.5" y="-466.5" font-family="FreeSans.ttf" font-size="10.00" fill="#000000">iDynTree/Core/EigenHelpers.h</text>
</a>
</g>
</g>
<!-- Node1&#45;&gt;Node3 -->
<g id="edge3" class="edge">
<title>Node1&#45;&gt;Node3</title>
<path fill="none" stroke="#191970" d="M282.8478,-515.3733C303.9033,-506.3032 335.6495,-492.6279 359.2175,-482.4755"/>
<polygon fill="#191970" stroke="#191970" points="360.6444,-485.6719 368.4438,-478.5011 357.875,-479.243 360.6444,-485.6719"/>
</g>
<!-- Node3&#45;&gt;Node2 -->
<g id="edge4" class="edge">
<title>Node3&#45;&gt;Node2</title>
<path fill="none" stroke="#191970" d="M309.6967,-459.503C249.2252,-451.6873 164.689,-439.2577 91.5,-423 87.2886,-422.0645 82.9201,-420.979 78.5799,-419.825"/>
<polygon fill="#191970" stroke="#191970" points="79.1634,-416.3545 68.5913,-417.0468 77.2876,-423.0985 79.1634,-416.3545"/>
</g>
<!-- Node4 -->
<g id="node5" class="node">
<title>Node4</title>
<g id="a_node5"><a xlink:href="VectorDynSize_8h.html" target="_top" xlink:title="iDynTree/Core/VectorDynSize.h">
<polygon fill="none" stroke="#000000" points="1159,-112.5 1159,-131.5 1326,-131.5 1326,-112.5 1159,-112.5"/>
<text text-anchor="middle" x="1242.5" y="-119.5" font-family="FreeSans.ttf" font-size="10.00" fill="#000000">iDynTree/Core/VectorDynSize.h</text>
</a>
</g>
</g>
<!-- Node3&#45;&gt;Node4 -->
<g id="edge5" class="edge">
<title>Node3&#45;&gt;Node4</title>
<path fill="none" stroke="#191970" d="M471.0378,-465.759C683.4219,-456.1455 1242.5,-423.4806 1242.5,-346 1242.5,-346 1242.5,-346 1242.5,-234 1242.5,-201.7116 1242.5,-164.1872 1242.5,-141.8048"/>
<polygon fill="#191970" stroke="#191970" points="1246.0001,-141.5883 1242.5,-131.5884 1239.0001,-141.5884 1246.0001,-141.5883"/>
</g>
<!-- Node16 -->
<g id="node17" class="node">
<title>Node16</title>
<g id="a_node17"><a xlink:href="VectorFixSize_8h.html" target="_top" xlink:title="iDynTree/Core/VectorFixSize.h">
<polygon fill="none" stroke="#000000" points="473,-112.5 473,-131.5 634,-131.5 634,-112.5 473,-112.5"/>
<text text-anchor="middle" x="553.5" y="-119.5" font-family="FreeSans.ttf" font-size="10.00" fill="#000000">iDynTree/Core/VectorFixSize.h</text>
</a>
</g>
</g>
<!-- Node3&#45;&gt;Node16 -->
<g id="edge17" class="edge">
<title>Node3&#45;&gt;Node16</title>
<path fill="none" stroke="#191970" d="M443.8644,-459.476C487.2068,-450.8906 544.0598,-437.4295 562.5,-423 597.2791,-395.7854 580.1025,-368.0346 610.5,-336 642.9279,-301.8256 660.4862,-304.8668 700.5,-280 726.2689,-263.9858 742.3578,-269.689 758.5,-244 776.5274,-215.3109 785.7545,-194.3874 764.5,-168 749.0658,-148.8385 693.995,-137.2337 643.9875,-130.4736"/>
<polygon fill="#191970" stroke="#191970" points="644.4343,-127.0023 634.0668,-129.1854 643.5328,-133.9441 644.4343,-127.0023"/>
</g>
<!-- Node17 -->
<g id="node18" class="node">
<title>Node17</title>
<g id="a_node18"><a xlink:href="Utils_8h.html" target="_top" xlink:title="iDynTree/Core/Utils.h">
<polygon fill="none" stroke="#000000" points="135,-56.5 135,-75.5 254,-75.5 254,-56.5 135,-56.5"/>
<text text-anchor="middle" x="194.5" y="-63.5" font-family="FreeSans.ttf" font-size="10.00" fill="#000000">iDynTree/Core/Utils.h</text>
</a>
</g>
</g>
<!-- Node3&#45;&gt;Node17 -->
<g id="edge65" class="edge">
<title>Node3&#45;&gt;Node17</title>
<path fill="none" stroke="#191970" d="M309.8457,-459.8531C252.4601,-452.1089 181.314,-439.6126 156.5,-423 122.3904,-400.1642 105.5,-387.048 105.5,-346 105.5,-346 105.5,-346 105.5,-178 105.5,-136.0503 144.2437,-100.7004 170.6057,-81.503"/>
<polygon fill="#191970" stroke="#191970" points="172.8144,-84.2292 178.9974,-75.6256 168.7987,-78.4956 172.8144,-84.2292"/>
</g>
<!-- Node20 -->
<g id="node21" class="node">
<title>Node20</title>
<g id="a_node21"><a xlink:href="MatrixDynSize_8h.html" target="_top" xlink:title="iDynTree/Core/MatrixDynSize.h">
<polygon fill="none" stroke="#000000" points="1048,-280.5 1048,-299.5 1215,-299.5 1215,-280.5 1048,-280.5"/>
<text text-anchor="middle" x="1131.5" y="-287.5" font-family="FreeSans.ttf" font-size="10.00" fill="#000000">iDynTree/Core/MatrixDynSize.h</text>
</a>
</g>
</g>
<!-- Node3&#45;&gt;Node20 -->
<g id="edge25" class="edge">
<title>Node3&#45;&gt;Node20</title>
<path fill="none" stroke="#191970" d="M449.8803,-459.494C500.7119,-451.0182 575.7305,-437.7047 640.5,-423 808.708,-384.8116 1006.0474,-327.4789 1090.1597,-302.4416"/>
<polygon fill="#191970" stroke="#191970" points="1091.2643,-305.7645 1099.8464,-299.5518 1089.2632,-299.0566 1091.2643,-305.7645"/>
</g>
<!-- Node21 -->
<g id="node22" class="node">
<title>Node21</title>
<g id="a_node22"><a xlink:href="MatrixFixSize_8h.html" target="_top" xlink:title="iDynTree/Core/MatrixFixSize.h">
<polygon fill="none" stroke="#000000" points="248,-112.5 248,-131.5 409,-131.5 409,-112.5 248,-112.5"/>
<text text-anchor="middle" x="328.5" y="-119.5" font-family="FreeSans.ttf" font-size="10.00" fill="#000000">iDynTree/Core/MatrixFixSize.h</text>
</a>
</g>
</g>
<!-- Node3&#45;&gt;Node21 -->
<g id="edge27" class="edge">
<title>Node3&#45;&gt;Node21</title>
<path fill="none" stroke="#191970" d="M309.9647,-462.054C237.8853,-450.895 143.5,-421.8092 143.5,-346 143.5,-346 143.5,-346 143.5,-234 143.5,-176.652 209.359,-147.8663 262.4871,-133.9749"/>
<polygon fill="#191970" stroke="#191970" points="263.3799,-137.3596 272.2404,-131.5509 261.6914,-130.5663 263.3799,-137.3596"/>
</g>
<!-- Node23 -->
<g id="node24" class="node">
<title>Node23</title>
<g id="a_node24"><a xlink:href="SpatialMotionVector_8h.html" target="_top" xlink:title="iDynTree/Core/SpatialMotion\lVector.h">
<polygon fill="none" stroke="#000000" points="399,-392.5 399,-422.5 554,-422.5 554,-392.5 399,-392.5"/>
<text text-anchor="start" x="407" y="-410.5" font-family="FreeSans.ttf" font-size="10.00" fill="#000000">iDynTree/Core/SpatialMotion</text>
<text text-anchor="middle" x="476.5" y="-399.5" font-family="FreeSans.ttf" font-size="10.00" fill="#000000">Vector.h</text>
</a>
</g>
</g>
<!-- Node3&#45;&gt;Node23 -->
<g id="edge34" class="edge">
<title>Node3&#45;&gt;Node23</title>
<path fill="none" stroke="#191970" d="M403.9375,-459.3906C415.4688,-451.1444 432.4976,-438.9669 447.1611,-428.4807"/>
<polygon fill="#191970" stroke="#191970" points="449.3638,-431.2084 455.462,-422.5446 445.292,-425.5145 449.3638,-431.2084"/>
</g>
<!-- Node30 -->
<g id="node31" class="node">
<title>Node30</title>
<g id="a_node31"><a xlink:href="SpatialForceVector_8h.html" target="_top" xlink:title="iDynTree/Core/SpatialForce\lVector.h">
<polygon fill="none" stroke="#000000" points="227.5,-392.5 227.5,-422.5 375.5,-422.5 375.5,-392.5 227.5,-392.5"/>
<text text-anchor="start" x="235.5" y="-410.5" font-family="FreeSans.ttf" font-size="10.00" fill="#000000">iDynTree/Core/SpatialForce</text>
<text text-anchor="middle" x="301.5" y="-399.5" font-family="FreeSans.ttf" font-size="10.00" fill="#000000">Vector.h</text>
</a>
</g>
</g>
<!-- Node3&#45;&gt;Node30 -->
<g id="edge56" class="edge">
<title>Node3&#45;&gt;Node30</title>
<path fill="none" stroke="#191970" d="M376.5938,-459.3906C364.6602,-451.1444 347.0374,-438.9669 331.8623,-428.4807"/>
<polygon fill="#191970" stroke="#191970" points="333.4885,-425.3501 323.2718,-422.5446 329.5091,-431.1089 333.4885,-425.3501"/>
</g>
<!-- Node31 -->
<g id="node32" class="node">
<title>Node31</title>
<g id="a_node32"><a xlink:href="Transform_8h.html" target="_top" xlink:title="iDynTree/Core/Transform.h">
<polygon fill="none" stroke="#000000" points="619.5,-336.5 619.5,-355.5 765.5,-355.5 765.5,-336.5 619.5,-336.5"/>
<text text-anchor="middle" x="692.5" y="-343.5" font-family="FreeSans.ttf" font-size="10.00" fill="#000000">iDynTree/Core/Transform.h</text>
</a>
</g>
</g>
<!-- Node3&#45;&gt;Node31 -->
<g id="edge60" class="edge">
<title>Node3&#45;&gt;Node31</title>
<path fill="none" stroke="#191970" d="M471.1283,-461.6769C512.9453,-455.4702 563.8458,-444.0352 605.5,-423 634.7436,-408.2321 661.9004,-381.2079 677.8466,-363.4244"/>
<polygon fill="#191970" stroke="#191970" points="680.7968,-365.3668 684.7342,-355.5308 675.5224,-360.7645 680.7968,-365.3668"/>
</g>
<!-- Node5 -->
<g id="node6" class="node">
<title>Node5</title>
<g id="a_node6"><a xlink:href="Span_8h.html" target="_top" xlink:title="iDynTree/Core/Span.h">
<polygon fill="none" stroke="#000000" points="846,-56.5 846,-75.5 967,-75.5 967,-56.5 846,-56.5"/>
<text text-anchor="middle" x="906.5" y="-63.5" font-family="FreeSans.ttf" font-size="10.00" fill="#000000">iDynTree/Core/Span.h</text>
</a>
</g>
</g>
<!-- Node4&#45;&gt;Node5 -->
<g id="edge6" class="edge">
<title>Node4&#45;&gt;Node5</title>
<path fill="none" stroke="#191970" d="M1185.1213,-112.4369C1126.5303,-102.6717 1035.6244,-87.5207 973.7034,-77.2006"/>
<polygon fill="#191970" stroke="#191970" points="974.0814,-73.7154 963.642,-75.5237 972.9305,-80.6201 974.0814,-73.7154"/>
</g>
<!-- Node15 -->
<g id="node16" class="node">
<title>Node15</title>
<polygon fill="none" stroke="#bfbfbf" points="783.5,-56.5 783.5,-75.5 827.5,-75.5 827.5,-56.5 783.5,-56.5"/>
<text text-anchor="middle" x="805.5" y="-63.5" font-family="FreeSans.ttf" font-size="10.00" fill="#000000">string</text>
</g>
<!-- Node4&#45;&gt;Node15 -->
<g id="edge16" class="edge">
<title>Node4&#45;&gt;Node15</title>
<path fill="none" stroke="#191970" d="M1158.8886,-113.3607C1049.5034,-101.9256 868.0952,-82.4569 837.5,-76 837.4003,-75.979 837.3005,-75.9578 837.2006,-75.9364"/>
<polygon fill="#191970" stroke="#191970" points="838.2896,-72.6017 827.7365,-73.5414 836.5723,-79.3878 838.2896,-72.6017"/>
</g>
<!-- Node6 -->
<g id="node7" class="node">
<title>Node6</title>
<polygon fill="none" stroke="#bfbfbf" points="527.5,-.5 527.5,-19.5 579.5,-19.5 579.5,-.5 527.5,-.5"/>
<text text-anchor="middle" x="553.5" y="-7.5" font-family="FreeSans.ttf" font-size="10.00" fill="#000000">cassert</text>
</g>
<!-- Node5&#45;&gt;Node6 -->
<g id="edge7" class="edge">
<title>Node5&#45;&gt;Node6</title>
<path fill="none" stroke="#191970" d="M846.2182,-56.4369C772.6562,-44.767 650.609,-25.4054 589.9904,-15.7889"/>
<polygon fill="#191970" stroke="#191970" points="590.1846,-12.276 579.7597,-14.1658 589.0878,-19.1895 590.1846,-12.276"/>
</g>
<!-- Node7 -->
<g id="node8" class="node">
<title>Node7</title>
<polygon fill="none" stroke="#bfbfbf" points="1022.5,-.5 1022.5,-19.5 1086.5,-19.5 1086.5,-.5 1022.5,-.5"/>
<text text-anchor="middle" x="1054.5" y="-7.5" font-family="FreeSans.ttf" font-size="10.00" fill="#000000">algorithm</text>
</g>
<!-- Node5&#45;&gt;Node7 -->
<g id="edge8" class="edge">
<title>Node5&#45;&gt;Node7</title>
<path fill="none" stroke="#191970" d="M931.9421,-56.3733C956.2326,-47.1822 993.0208,-33.2624 1019.9543,-23.0713"/>
<polygon fill="#191970" stroke="#191970" points="1021.2757,-26.3136 1029.3899,-19.5011 1018.7984,-19.7666 1021.2757,-26.3136"/>
</g>
<!-- Node8 -->
<g id="node9" class="node">
<title>Node8</title>
<polygon fill="none" stroke="#bfbfbf" points="1104.5,-.5 1104.5,-19.5 1146.5,-19.5 1146.5,-.5 1104.5,-.5"/>
<text text-anchor="middle" x="1125.5" y="-7.5" font-family="FreeSans.ttf" font-size="10.00" fill="#000000">array</text>
</g>
<!-- Node5&#45;&gt;Node8 -->
<g id="edge9" class="edge">
<title>Node5&#45;&gt;Node8</title>
<path fill="none" stroke="#191970" d="M950.31,-56.4225C986.6112,-48.2436 1039.7321,-35.7176 1094.402,-20.1567"/>
<polygon fill="#191970" stroke="#191970" points="1095.6195,-23.4485 1104.2629,-17.3212 1093.685,-16.7211 1095.6195,-23.4485"/>
</g>
<!-- Node9 -->
<g id="node10" class="node">
<title>Node9</title>
<polygon fill="none" stroke="#bfbfbf" points="312,-.5 312,-19.5 365,-19.5 365,-.5 312,-.5"/>
<text text-anchor="middle" x="338.5" y="-7.5" font-family="FreeSans.ttf" font-size="10.00" fill="#000000">cstddef</text>
</g>
<!-- Node5&#45;&gt;Node9 -->
<g id="edge10" class="edge">
<title>Node5&#45;&gt;Node9</title>
<path fill="none" stroke="#191970" d="M845.8177,-57.1426C842.6684,-56.7419 839.5481,-56.3583 836.5,-56 664.2547,-35.7544 457.6197,-19.0976 375.1222,-12.7547"/>
<polygon fill="#191970" stroke="#191970" points="375.2406,-9.2536 365.0027,-11.9806 374.7066,-16.2332 375.2406,-9.2536"/>
</g>
<!-- Node10 -->
<g id="node11" class="node">
<title>Node10</title>
<polygon fill="none" stroke="#bfbfbf" points="655,-.5 655,-19.5 708,-19.5 708,-.5 655,-.5"/>
<text text-anchor="middle" x="681.5" y="-7.5" font-family="FreeSans.ttf" font-size="10.00" fill="#000000">iterator</text>
</g>
<!-- Node5&#45;&gt;Node10 -->
<g id="edge11" class="edge">
<title>Node5&#45;&gt;Node10</title>
<path fill="none" stroke="#191970" d="M865.4809,-56.4188C829.23,-47.8614 774.6887,-34.7684 718.057,-20.0862"/>
<polygon fill="#191970" stroke="#191970" points="718.7698,-16.6551 708.2105,-17.5226 717.0061,-23.4293 718.7698,-16.6551"/>
</g>
<!-- Node11 -->
<g id="node12" class="node">
<title>Node11</title>
<polygon fill="none" stroke="#bfbfbf" points="726.5,-.5 726.5,-19.5 770.5,-19.5 770.5,-.5 726.5,-.5"/>
<text text-anchor="middle" x="748.5" y="-7.5" font-family="FreeSans.ttf" font-size="10.00" fill="#000000">limits</text>
</g>
<!-- Node5&#45;&gt;Node11 -->
<g id="edge12" class="edge">
<title>Node5&#45;&gt;Node11</title>
<path fill="none" stroke="#191970" d="M879.3388,-56.3733C851.8726,-46.6384 809.4388,-31.5985 780.3913,-21.3032"/>
<polygon fill="#191970" stroke="#191970" points="781.3163,-17.9178 770.7216,-17.876 778.9778,-24.5157 781.3163,-17.9178"/>
</g>
<!-- Node12 -->
<g id="node13" class="node">
<title>Node12</title>
<polygon fill="none" stroke="#bfbfbf" points="789,-.5 789,-19.5 854,-19.5 854,-.5 789,-.5"/>
<text text-anchor="middle" x="821.5" y="-7.5" font-family="FreeSans.ttf" font-size="10.00" fill="#000000">stdexcept</text>
</g>
<!-- Node5&#45;&gt;Node12 -->
<g id="edge13" class="edge">
<title>Node5&#45;&gt;Node12</title>
<path fill="none" stroke="#191970" d="M891.6941,-56.2455C878.7744,-47.7337 859.8069,-35.2375 844.8448,-25.3801"/>
<polygon fill="#191970" stroke="#191970" points="846.4124,-22.2216 836.1362,-19.6427 842.5613,-28.067 846.4124,-22.2216"/>
</g>
<!-- Node13 -->
<g id="node14" class="node">
<title>Node13</title>
<polygon fill="none" stroke="#bfbfbf" points="872,-.5 872,-19.5 941,-19.5 941,-.5 872,-.5"/>
<text text-anchor="middle" x="906.5" y="-7.5" font-family="FreeSans.ttf" font-size="10.00" fill="#000000">type_traits</text>
</g>
<!-- Node5&#45;&gt;Node13 -->
<g id="edge14" class="edge">
<title>Node5&#45;&gt;Node13</title>
<path fill="none" stroke="#191970" d="M906.5,-56.2455C906.5,-48.9382 906.5,-38.6944 906.5,-29.7046"/>
<polygon fill="#191970" stroke="#191970" points="910.0001,-29.6426 906.5,-19.6427 903.0001,-29.6427 910.0001,-29.6426"/>
</g>
<!-- Node14 -->
<g id="node15" class="node">
<title>Node14</title>
<polygon fill="none" stroke="#bfbfbf" points="959,-.5 959,-19.5 1004,-19.5 1004,-.5 959,-.5"/>
<text text-anchor="middle" x="981.5" y="-7.5" font-family="FreeSans.ttf" font-size="10.00" fill="#000000">utility</text>
</g>
<!-- Node5&#45;&gt;Node14 -->
<g id="edge15" class="edge">
<title>Node5&#45;&gt;Node14</title>
<path fill="none" stroke="#191970" d="M919.564,-56.2455C930.8562,-47.814 947.3845,-35.4729 960.5271,-25.6598"/>
<polygon fill="#191970" stroke="#191970" points="962.6669,-28.4301 968.5857,-19.6427 958.4789,-22.8211 962.6669,-28.4301"/>
</g>
<!-- Node16&#45;&gt;Node5 -->
<g id="edge20" class="edge">
<title>Node16&#45;&gt;Node5</title>
<path fill="none" stroke="#191970" d="M613.7818,-112.4369C675.4642,-102.6516 771.2365,-87.4582 836.2984,-77.1368"/>
<polygon fill="#191970" stroke="#191970" points="837.1388,-80.5473 846.4669,-75.5237 836.042,-73.6338 837.1388,-80.5473"/>
</g>
<!-- Node16&#45;&gt;Node6 -->
<g id="edge23" class="edge">
<title>Node16&#45;&gt;Node6</title>
<path fill="none" stroke="#191970" d="M553.5,-112.4509C553.5,-94.184 553.5,-53.9553 553.5,-29.6976"/>
<polygon fill="#191970" stroke="#191970" points="557.0001,-29.5249 553.5,-19.5249 550.0001,-29.5249 557.0001,-29.5249"/>
</g>
<!-- Node16&#45;&gt;Node15 -->
<g id="edge21" class="edge">
<title>Node16&#45;&gt;Node15</title>
<path fill="none" stroke="#191970" d="M596.534,-112.4369C646.7441,-101.2791 728.5959,-83.0898 773.5067,-73.1096"/>
<polygon fill="#191970" stroke="#191970" points="774.2942,-76.5201 783.2968,-70.934 772.7757,-69.6868 774.2942,-76.5201"/>
</g>
<!-- Node16&#45;&gt;Node17 -->
<g id="edge18" class="edge">
<title>Node16&#45;&gt;Node17</title>
<path fill="none" stroke="#191970" d="M492.1936,-112.4369C428.8575,-102.5572 330.1798,-87.1645 263.9882,-76.8394"/>
<polygon fill="#191970" stroke="#191970" points="264.4805,-73.3739 254.0605,-75.2908 263.4015,-80.2903 264.4805,-73.3739"/>
</g>
<!-- Node18 -->
<g id="node19" class="node">
<title>Node18</title>
<polygon fill="none" stroke="#bfbfbf" points="456.5,-56.5 456.5,-75.5 512.5,-75.5 512.5,-56.5 456.5,-56.5"/>
<text text-anchor="middle" x="484.5" y="-63.5" font-family="FreeSans.ttf" font-size="10.00" fill="#000000">sstream</text>
</g>
<!-- Node16&#45;&gt;Node18 -->
<g id="edge22" class="edge">
<title>Node16&#45;&gt;Node18</title>
<path fill="none" stroke="#191970" d="M541.4811,-112.2455C531.2902,-103.9746 516.4638,-91.9416 504.4893,-82.2232"/>
<polygon fill="#191970" stroke="#191970" points="506.3514,-79.2268 496.3812,-75.6427 501.9402,-84.662 506.3514,-79.2268"/>
</g>
<!-- Node19 -->
<g id="node20" class="node">
<title>Node19</title>
<polygon fill="none" stroke="#bfbfbf" points="388.5,-56.5 388.5,-75.5 438.5,-75.5 438.5,-56.5 388.5,-56.5"/>
<text text-anchor="middle" x="413.5" y="-63.5" font-family="FreeSans.ttf" font-size="10.00" fill="#000000">cstring</text>
</g>
<!-- Node16&#45;&gt;Node19 -->
<g id="edge24" class="edge">
<title>Node16&#45;&gt;Node19</title>
<path fill="none" stroke="#191970" d="M529.4331,-112.3733C506.6572,-103.2629 472.2656,-89.5062 446.851,-79.3404"/>
<polygon fill="#191970" stroke="#191970" points="447.8375,-75.9654 437.2528,-75.5011 445.2377,-82.4648 447.8375,-75.9654"/>
</g>
<!-- Node17&#45;&gt;Node9 -->
<g id="edge19" class="edge">
<title>Node17&#45;&gt;Node9</title>
<path fill="none" stroke="#191970" d="M219.2545,-56.3733C242.7849,-47.2226 278.3687,-33.3844 304.5426,-23.2057"/>
<polygon fill="#191970" stroke="#191970" points="306.0171,-26.3877 314.0685,-19.5011 303.4799,-19.8636 306.0171,-26.3877"/>
</g>
<!-- Node20&#45;&gt;Node15 -->
<g id="edge26" class="edge">
<title>Node20&#45;&gt;Node15</title>
<path fill="none" stroke="#191970" d="M1133.7624,-280.1722C1140.0392,-250.1274 1154.2789,-158.7101 1107.5,-112 1064.6666,-69.2296 896.602,-89.0748 837.5,-76 837.4005,-75.978 837.301,-75.9558 837.2012,-75.9335"/>
<polygon fill="#191970" stroke="#191970" points="838.307,-72.6045 827.7488,-73.4846 836.5514,-79.3808 838.307,-72.6045"/>
</g>
<!-- Node21&#45;&gt;Node6 -->
<g id="edge29" class="edge">
<title>Node21&#45;&gt;Node6</title>
<path fill="none" stroke="#191970" d="M333.3153,-112.2957C341.0259,-97.7807 357.5376,-70.5681 379.5,-56 421.5659,-28.0969 479.8335,-17.0919 517.1017,-12.7697"/>
<polygon fill="#191970" stroke="#191970" points="517.9104,-16.204 527.4885,-11.6753 517.1768,-9.2425 517.9104,-16.204"/>
</g>
<!-- Node21&#45;&gt;Node15 -->
<g id="edge31" class="edge">
<title>Node21&#45;&gt;Node15</title>
<path fill="none" stroke="#191970" d="M409.1467,-112.532C515.9987,-99.9876 699.5744,-78.4357 773.3853,-69.7703"/>
<polygon fill="#191970" stroke="#191970" points="773.9331,-73.2301 783.4567,-68.5879 773.1168,-66.2778 773.9331,-73.2301"/>
</g>
<!-- Node21&#45;&gt;Node17 -->
<g id="edge28" class="edge">
<title>Node21&#45;&gt;Node17</title>
<path fill="none" stroke="#191970" d="M305.4646,-112.3733C283.7612,-103.3032 251.0382,-89.6279 226.745,-79.4755"/>
<polygon fill="#191970" stroke="#191970" points="227.8111,-76.1278 217.2348,-75.5011 225.1119,-82.5865 227.8111,-76.1278"/>
</g>
<!-- Node21&#45;&gt;Node18 -->
<g id="edge33" class="edge">
<title>Node21&#45;&gt;Node18</title>
<path fill="none" stroke="#191970" d="M355.3174,-112.3733C381.0332,-103.1419 420.038,-89.1402 448.4599,-78.9375"/>
<polygon fill="#191970" stroke="#191970" points="449.8032,-82.174 458.0326,-75.5011 447.4381,-75.5857 449.8032,-82.174"/>
</g>
<!-- Node21&#45;&gt;Node19 -->
<g id="edge30" class="edge">
<title>Node21&#45;&gt;Node19</title>
<path fill="none" stroke="#191970" d="M343.3059,-112.2455C356.2256,-103.7337 375.1931,-91.2375 390.1552,-81.3801"/>
<polygon fill="#191970" stroke="#191970" points="392.4387,-84.067 398.8638,-75.6427 388.5876,-78.2216 392.4387,-84.067"/>
</g>
<!-- Node22 -->
<g id="node23" class="node">
<title>Node22</title>
<polygon fill="none" stroke="#bfbfbf" points="272.5,-56.5 272.5,-75.5 332.5,-75.5 332.5,-56.5 272.5,-56.5"/>
<text text-anchor="middle" x="302.5" y="-63.5" font-family="FreeSans.ttf" font-size="10.00" fill="#000000">iostream</text>
</g>
<!-- Node21&#45;&gt;Node22 -->
<g id="edge32" class="edge">
<title>Node21&#45;&gt;Node22</title>
<path fill="none" stroke="#191970" d="M323.9711,-112.2455C320.4666,-104.6973 315.5073,-94.0158 311.2377,-84.8197"/>
<polygon fill="#191970" stroke="#191970" points="314.3627,-83.2389 306.977,-75.6427 308.0136,-86.1867 314.3627,-83.2389"/>
</g>
<!-- Node23&#45;&gt;Node16 -->
<g id="edge35" class="edge">
<title>Node23&#45;&gt;Node16</title>
<path fill="none" stroke="#191970" d="M494.7479,-392.473C517.5179,-371.917 553.5,-332.6812 553.5,-290 553.5,-290 553.5,-290 553.5,-234 553.5,-201.7116 553.5,-164.1872 553.5,-141.8048"/>
<polygon fill="#191970" stroke="#191970" points="557.0001,-141.5883 553.5,-131.5884 550.0001,-141.5884 557.0001,-141.5883"/>
</g>
<!-- Node24 -->
<g id="node25" class="node">
<title>Node24</title>
<g id="a_node25"><a xlink:href="GeomVector3_8h.html" target="_top" xlink:title="iDynTree/Core/GeomVector3.h">
<polygon fill="none" stroke="#000000" points="362,-168.5 362,-187.5 525,-187.5 525,-168.5 362,-168.5"/>
<text text-anchor="middle" x="443.5" y="-175.5" font-family="FreeSans.ttf" font-size="10.00" fill="#000000">iDynTree/Core/GeomVector3.h</text>
</a>
</g>
</g>
<!-- Node23&#45;&gt;Node24 -->
<g id="edge36" class="edge">
<title>Node23&#45;&gt;Node24</title>
<path fill="none" stroke="#191970" d="M484.3845,-392.3497C490.9226,-378.0069 498.6719,-355.784 495.5,-336 487.1941,-284.194 464.4856,-226.3389 452.0017,-197.1156"/>
<polygon fill="#191970" stroke="#191970" points="455.1085,-195.4831 447.9106,-187.7088 448.6893,-198.2749 455.1085,-195.4831"/>
</g>
<!-- Node25 -->
<g id="node26" class="node">
<title>Node25</title>
<g id="a_node26"><a xlink:href="SpatialVector_8h.html" target="_top" xlink:title="iDynTree/Core/SpatialVector.h">
<polygon fill="none" stroke="#000000" points="326,-336.5 326,-355.5 487,-355.5 487,-336.5 326,-336.5"/>
<text text-anchor="middle" x="406.5" y="-343.5" font-family="FreeSans.ttf" font-size="10.00" fill="#000000">iDynTree/Core/SpatialVector.h</text>
</a>
</g>
</g>
<!-- Node23&#45;&gt;Node25 -->
<g id="edge38" class="edge">
<title>Node23&#45;&gt;Node25</title>
<path fill="none" stroke="#191970" d="M459.1966,-392.2977C448.9738,-383.3163 436.0177,-371.9334 425.5104,-362.702"/>
<polygon fill="#191970" stroke="#191970" points="427.5305,-359.8178 417.7079,-355.8469 422.9103,-365.0766 427.5305,-359.8178"/>
</g>
<!-- Node24&#45;&gt;Node16 -->
<g id="edge37" class="edge">
<title>Node24&#45;&gt;Node16</title>
<path fill="none" stroke="#191970" d="M462.6605,-168.2455C480.0111,-159.4125 505.7901,-146.2887 525.4583,-136.2758"/>
<polygon fill="#191970" stroke="#191970" points="527.2353,-139.2986 534.559,-131.6427 524.0595,-133.0605 527.2353,-139.2986"/>
</g>
<!-- Node25&#45;&gt;Node17 -->
<g id="edge52" class="edge">
<title>Node25&#45;&gt;Node17</title>
<path fill="none" stroke="#191970" d="M325.9054,-338.5121C261.344,-327.5504 181.5,-300.5425 181.5,-234 181.5,-234 181.5,-234 181.5,-178 181.5,-145.3457 187.02,-107.6911 190.8661,-85.4184"/>
<polygon fill="#191970" stroke="#191970" points="194.3165,-86.0059 192.6374,-75.545 187.4265,-84.7698 194.3165,-86.0059"/>
</g>
<!-- Node25&#45;&gt;Node18 -->
<g id="edge55" class="edge">
<title>Node25&#45;&gt;Node18</title>
<path fill="none" stroke="#191970" d="M398.561,-336.4832C376.4641,-308.7755 318.0702,-226.4265 352.5,-168 369.2659,-139.5487 391.048,-151.7702 417.5,-132 436.9604,-117.4553 456.4337,-97.5212 469.3304,-83.3765"/>
<polygon fill="#191970" stroke="#191970" points="472.0499,-85.5861 476.114,-75.8018 466.8353,-80.9162 472.0499,-85.5861"/>
</g>
<!-- Node25&#45;&gt;Node22 -->
<g id="edge54" class="edge">
<title>Node25&#45;&gt;Node22</title>
<path fill="none" stroke="#191970" d="M348.868,-336.4664C293.9229,-323.6951 219.5,-295.1162 219.5,-234 219.5,-234 219.5,-234 219.5,-178 219.5,-147.4754 220.9148,-136.9502 238.5,-112 247.571,-99.1299 261.4181,-88.5359 273.9149,-80.772"/>
<polygon fill="#191970" stroke="#191970" points="275.8328,-83.7048 282.6883,-75.6268 272.2917,-77.6665 275.8328,-83.7048"/>
</g>
<!-- Node25&#45;&gt;Node24 -->
<g id="edge53" class="edge">
<title>Node25&#45;&gt;Node24</title>
<path fill="none" stroke="#191970" d="M408.5953,-336.4862C414.4695,-309.8144 431.1861,-233.9117 439.1624,-197.695"/>
<polygon fill="#191970" stroke="#191970" points="442.6027,-198.3467 441.3355,-187.8279 435.7665,-196.841 442.6027,-198.3467"/>
</g>
<!-- Node26 -->
<g id="node27" class="node">
<title>Node26</title>
<g id="a_node27"><a xlink:href="Position_8h.html" target="_top" xlink:title="Position.h">
<polygon fill="none" stroke="#000000" points="709,-280.5 709,-299.5 774,-299.5 774,-280.5 709,-280.5"/>
<text text-anchor="middle" x="741.5" y="-287.5" font-family="FreeSans.ttf" font-size="10.00" fill="#000000">Position.h</text>
</a>
</g>
</g>
<!-- Node25&#45;&gt;Node26 -->
<g id="edge39" class="edge">
<title>Node25&#45;&gt;Node26</title>
<path fill="none" stroke="#191970" d="M463.7079,-336.4369C530.3456,-325.2974 638.9084,-307.1496 698.674,-297.159"/>
<polygon fill="#191970" stroke="#191970" points="699.6059,-300.5518 708.8919,-295.4509 698.4517,-293.6476 699.6059,-300.5518"/>
</g>
<!-- Node28 -->
<g id="node29" class="node">
<title>Node28</title>
<g id="a_node29"><a xlink:href="Rotation_8h.html" target="_top" xlink:title="iDynTree/Core/Rotation.h">
<polygon fill="none" stroke="#000000" points="612,-224.5 612,-243.5 749,-243.5 749,-224.5 612,-224.5"/>
<text text-anchor="middle" x="680.5" y="-231.5" font-family="FreeSans.ttf" font-size="10.00" fill="#000000">iDynTree/Core/Rotation.h</text>
</a>
</g>
</g>
<!-- Node25&#45;&gt;Node28 -->
<g id="edge51" class="edge">
<title>Node25&#45;&gt;Node28</title>
<path fill="none" stroke="#191970" d="M429.8611,-336.4509C478.6953,-316.4895 591.687,-270.3031 647.743,-247.3897"/>
<polygon fill="#191970" stroke="#191970" points="649.2658,-250.5484 657.198,-243.5249 646.6172,-244.0689 649.2658,-250.5484"/>
</g>
<!-- Node26&#45;&gt;Node15 -->
<g id="edge50" class="edge">
<title>Node26&#45;&gt;Node15</title>
<path fill="none" stroke="#191970" d="M774.2093,-283.6132C844.3116,-269.1915 1005.217,-231.9167 1036.5,-188 1041.6572,-180.7601 1041.3527,-175.4474 1036.5,-168 1024.881,-150.1683 897.9714,-100.6982 837.3647,-77.8488"/>
<polygon fill="#191970" stroke="#191970" points="838.4827,-74.53 827.8906,-74.2903 836.0213,-81.083 838.4827,-74.53"/>
</g>
<!-- Node27 -->
<g id="node28" class="node">
<title>Node27</title>
<g id="a_node28"><a xlink:href="PositionRaw_8h.html" target="_top" xlink:title="iDynTree/Core/PositionRaw.h">
<polygon fill="none" stroke="#000000" points="871.5,-168.5 871.5,-187.5 1027.5,-187.5 1027.5,-168.5 871.5,-168.5"/>
<text text-anchor="middle" x="949.5" y="-175.5" font-family="FreeSans.ttf" font-size="10.00" fill="#000000">iDynTree/Core/PositionRaw.h</text>
</a>
</g>
</g>
<!-- Node26&#45;&gt;Node27 -->
<g id="edge40" class="edge">
<title>Node26&#45;&gt;Node27</title>
<path fill="none" stroke="#191970" d="M759.234,-280.4509C795.7679,-260.7788 879.604,-215.6363 922.7563,-192.4005"/>
<polygon fill="#191970" stroke="#191970" points="924.6656,-195.3476 931.8109,-187.5249 921.3468,-189.1843 924.6656,-195.3476"/>
</g>
<!-- Node26&#45;&gt;Node28 -->
<g id="edge43" class="edge">
<title>Node26&#45;&gt;Node28</title>
<path fill="none" stroke="#191970" d="M730.8746,-280.2455C721.9527,-272.0549 709.012,-260.1749 698.4808,-250.5069"/>
<polygon fill="#191970" stroke="#191970" points="700.7371,-247.8271 691.0036,-243.6427 696.0032,-252.9837 700.7371,-247.8271"/>
</g>
<!-- Node27&#45;&gt;Node15 -->
<g id="edge42" class="edge">
<title>Node27&#45;&gt;Node15</title>
<path fill="none" stroke="#191970" d="M937.2226,-168.4509C912.4613,-149.1921 856.3138,-105.5218 825.9345,-81.8935"/>
<polygon fill="#191970" stroke="#191970" points="827.7886,-78.9016 817.7463,-75.5249 823.491,-84.4271 827.7886,-78.9016"/>
</g>
<!-- Node27&#45;&gt;Node16 -->
<g id="edge41" class="edge">
<title>Node27&#45;&gt;Node16</title>
<path fill="none" stroke="#191970" d="M881.8751,-168.4369C812.2519,-158.5912 703.9125,-143.2705 630.9054,-132.9462"/>
<polygon fill="#191970" stroke="#191970" points="631.2375,-129.4584 620.846,-131.5237 630.2573,-136.3895 631.2375,-129.4584"/>
</g>
<!-- Node28&#45;&gt;Node15 -->
<g id="edge44" class="edge">
<title>Node28&#45;&gt;Node15</title>
<path fill="none" stroke="#191970" d="M709.4013,-224.42C727.5197,-217.0622 750.0914,-205.2112 764.5,-188 789.6138,-158.0013 799.5537,-111.9683 803.3282,-85.867"/>
<polygon fill="#191970" stroke="#191970" points="806.8308,-86.0686 804.628,-75.7053 799.8874,-85.1804 806.8308,-86.0686"/>
</g>
<!-- Node28&#45;&gt;Node16 -->
<g id="edge49" class="edge">
<title>Node28&#45;&gt;Node16</title>
<path fill="none" stroke="#191970" d="M703.7865,-224.2989C729.7545,-212.0963 765.9605,-190.0586 748.5,-168 735.0278,-150.98 688.3413,-139.6219 644.0295,-132.4504"/>
<polygon fill="#191970" stroke="#191970" points="644.451,-128.974 634.0317,-130.8945 643.3745,-135.8907 644.451,-128.974"/>
</g>
<!-- Node28&#45;&gt;Node24 -->
<g id="edge45" class="edge">
<title>Node28&#45;&gt;Node24</title>
<path fill="none" stroke="#191970" d="M640.0275,-224.4369C599.552,-214.8731 537.2133,-200.1432 493.6297,-189.845"/>
<polygon fill="#191970" stroke="#191970" points="494.3424,-186.4171 483.8055,-187.5237 492.7327,-193.2295 494.3424,-186.4171"/>
</g>
<!-- Node29 -->
<g id="node30" class="node">
<title>Node29</title>
<g id="a_node30"><a xlink:href="RotationRaw_8h.html" target="_top" xlink:title="iDynTree/Core/RotationRaw.h">
<polygon fill="none" stroke="#000000" points="581.5,-168.5 581.5,-187.5 739.5,-187.5 739.5,-168.5 581.5,-168.5"/>
<text text-anchor="middle" x="660.5" y="-175.5" font-family="FreeSans.ttf" font-size="10.00" fill="#000000">iDynTree/Core/RotationRaw.h</text>
</a>
</g>
</g>
<!-- Node28&#45;&gt;Node29 -->
<g id="edge46" class="edge">
<title>Node28&#45;&gt;Node29</title>
<path fill="none" stroke="#191970" d="M677.0163,-224.2455C674.3492,-216.7776 670.5867,-206.2427 667.3263,-197.1137"/>
<polygon fill="#191970" stroke="#191970" points="670.6033,-195.8829 663.9438,-187.6427 664.0111,-198.2373 670.6033,-195.8829"/>
</g>
<!-- Node29&#45;&gt;Node15 -->
<g id="edge48" class="edge">
<title>Node29&#45;&gt;Node15</title>
<path fill="none" stroke="#191970" d="M672.8626,-168.4509C697.796,-149.1921 754.3333,-105.5218 784.9236,-81.8935"/>
<polygon fill="#191970" stroke="#191970" points="787.3941,-84.4078 793.1687,-75.5249 783.1151,-78.8679 787.3941,-84.4078"/>
</g>
<!-- Node29&#45;&gt;Node21 -->
<g id="edge47" class="edge">
<title>Node29&#45;&gt;Node21</title>
<path fill="none" stroke="#191970" d="M603.8044,-168.4369C545.9109,-158.6717 456.0872,-143.5207 394.9034,-133.2006"/>
<polygon fill="#191970" stroke="#191970" points="395.4046,-129.7358 384.9618,-131.5237 394.2403,-136.6383 395.4046,-129.7358"/>
</g>
<!-- Node30&#45;&gt;Node16 -->
<g id="edge57" class="edge">
<title>Node30&#45;&gt;Node16</title>
<path fill="none" stroke="#191970" d="M299.5228,-392.4453C294.8936,-350.1425 288.1896,-229.3071 352.5,-168 369.0959,-152.1791 419.4119,-140.6734 465.5459,-133.1258"/>
<polygon fill="#191970" stroke="#191970" points="466.2904,-136.5516 475.6186,-131.5282 465.1938,-129.638 466.2904,-136.5516"/>
</g>
<!-- Node30&#45;&gt;Node24 -->
<g id="edge58" class="edge">
<title>Node30&#45;&gt;Node24</title>
<path fill="none" stroke="#191970" d="M302.6139,-392.3349C304.1776,-377.396 307.8752,-354.2293 316.5,-336 344.1723,-277.5123 397.6003,-221.5415 425.5176,-194.6385"/>
<polygon fill="#191970" stroke="#191970" points="428.1459,-196.9694 432.9899,-187.5468 423.3271,-191.8921 428.1459,-196.9694"/>
</g>
<!-- Node30&#45;&gt;Node25 -->
<g id="edge59" class="edge">
<title>Node30&#45;&gt;Node25</title>
<path fill="none" stroke="#191970" d="M327.1859,-392.4554C343.6297,-382.8241 364.8708,-370.3828 381.2323,-360.7996"/>
<polygon fill="#191970" stroke="#191970" points="383.3688,-363.6045 390.2287,-355.5303 379.831,-357.5643 383.3688,-363.6045"/>
</g>
<!-- Node31&#45;&gt;Node15 -->
<g id="edge64" class="edge">
<title>Node31&#45;&gt;Node15</title>
<path fill="none" stroke="#191970" d="M765.8112,-339.53C853.9687,-327.1894 996.8911,-291.4223 1051.5,-188 1101.6243,-93.071 940.2833,-106.9766 837.5,-76 837.399,-75.9696 837.2978,-75.939 837.1965,-75.9085"/>
<polygon fill="#191970" stroke="#191970" points="838.1024,-72.5255 827.5158,-72.9445 836.053,-79.2188 838.1024,-72.5255"/>
</g>
<!-- Node31&#45;&gt;Node21 -->
<g id="edge63" class="edge">
<title>Node31&#45;&gt;Node21</title>
<path fill="none" stroke="#191970" d="M646.1562,-336.4803C573.6832,-319.2688 433.4576,-276.2592 352.5,-188 340.6784,-175.1122 334.5696,-155.9465 331.4831,-141.584"/>
<polygon fill="#191970" stroke="#191970" points="334.9201,-140.9218 329.6674,-131.7207 328.0357,-142.1891 334.9201,-140.9218"/>
</g>
<!-- Node31&#45;&gt;Node26 -->
<g id="edge61" class="edge">
<title>Node31&#45;&gt;Node26</title>
<path fill="none" stroke="#191970" d="M701.0351,-336.2455C707.9912,-328.2958 717.9883,-316.8706 726.3051,-307.3656"/>
<polygon fill="#191970" stroke="#191970" points="729.1116,-309.4732 733.0627,-299.6427 723.8436,-304.8637 729.1116,-309.4732"/>
</g>
<!-- Node31&#45;&gt;Node28 -->
<g id="edge62" class="edge">
<title>Node31&#45;&gt;Node28</title>
<path fill="none" stroke="#191970" d="M691.4769,-336.4509C689.5197,-318.184 685.2095,-277.9553 682.6105,-253.6976"/>
<polygon fill="#191970" stroke="#191970" points="686.066,-253.0951 681.5205,-243.5249 679.1059,-253.8409 686.066,-253.0951"/>
</g>
</g>
</svg>
