<?xml version="1.0" encoding="UTF-8" standalone="no"?>
<!DOCTYPE svg PUBLIC "-//W3C//DTD SVG 1.1//EN"
 "http://www.w3.org/Graphics/SVG/1.1/DTD/svg11.dtd">
<!-- Generated by graphviz version 2.40.1 (20161225.0304)
 -->
<!-- Title: QuadraticLikeCost.cpp Pages: 1 -->
<svg width="1462pt" height="543pt"
 viewBox="0.00 0.00 1462.00 543.00" xmlns="http://www.w3.org/2000/svg" xmlns:xlink="http://www.w3.org/1999/xlink">
<g id="graph0" class="graph" transform="scale(1 1) rotate(0) translate(4 539)">
<title>QuadraticLikeCost.cpp</title>
<!-- Node0 -->
<g id="node1" class="node">
<title>Node0</title>
<polygon fill="#bfbfbf" stroke="#000000" points="838.5,-515.5 838.5,-534.5 964.5,-534.5 964.5,-515.5 838.5,-515.5"/>
<text text-anchor="middle" x="901.5" y="-522.5" font-family="FreeSans.ttf" font-size="10.00" fill="#000000">QuadraticLikeCost.cpp</text>
</g>
<!-- Node1 -->
<g id="node2" class="node">
<title>Node1</title>
<g id="a_node2"><a xlink:href="QuadraticLikeCost_8h.html" target="_top" xlink:title="iDynTree/QuadraticLikeCost.h">
<polygon fill="none" stroke="#000000" points="297,-459.5 297,-478.5 458,-478.5 458,-459.5 297,-459.5"/>
<text text-anchor="middle" x="377.5" y="-466.5" font-family="FreeSans.ttf" font-size="10.00" fill="#000000">iDynTree/QuadraticLikeCost.h</text>
</a>
</g>
</g>
<!-- Node0&#45;&gt;Node1 -->
<g id="edge1" class="edge">
<title>Node0&#45;&gt;Node1</title>
<path fill="none" stroke="#191970" d="M838.2934,-518.2451C745.9995,-508.3816 573.8643,-489.9855 468.1101,-478.6835"/>
<polygon fill="#191970" stroke="#191970" points="468.4033,-475.195 458.088,-477.6125 467.6594,-482.1554 468.4033,-475.195"/>
</g>
<!-- Node5 -->
<g id="node6" class="node">
<title>Node5</title>
<g id="a_node6"><a xlink:href="Utils_8h.html" target="_top" xlink:title="iDynTree/Core/Utils.h">
<polygon fill="none" stroke="#000000" points="229,-56.5 229,-75.5 348,-75.5 348,-56.5 229,-56.5"/>
<text text-anchor="middle" x="288.5" y="-63.5" font-family="FreeSans.ttf" font-size="10.00" fill="#000000">iDynTree/Core/Utils.h</text>
</a>
</g>
</g>
<!-- Node0&#45;&gt;Node5 -->
<g id="edge56" class="edge">
<title>Node0&#45;&gt;Node5</title>
<path fill="none" stroke="#191970" d="M838.3618,-522.8132C703.4097,-517.725 390.7679,-503.6151 287.5,-479 224.3129,-463.9386 192.1236,-474.4726 152.5,-423 116.1139,-375.733 134.5,-349.65 134.5,-290 134.5,-290 134.5,-290 134.5,-234 134.5,-203.4754 136.2135,-193.1581 153.5,-168 168.6182,-145.9975 230.3207,-103.8212 264.8376,-81.2088"/>
<polygon fill="#191970" stroke="#191970" points="266.9156,-84.0324 273.3872,-75.6437 263.0969,-78.1657 266.9156,-84.0324"/>
</g>
<!-- Node33 -->
<g id="node34" class="node">
<title>Node33</title>
<polygon fill="none" stroke="#bfbfbf" points="1377,-398 1377,-417 1454,-417 1454,-398 1377,-398"/>
<text text-anchor="middle" x="1415.5" y="-405" font-family="FreeSans.ttf" font-size="10.00" fill="#000000">Eigen/Dense</text>
</g>
<!-- Node0&#45;&gt;Node33 -->
<g id="edge57" class="edge">
<title>Node0&#45;&gt;Node33</title>
<path fill="none" stroke="#191970" d="M920.1196,-515.4926C938.3223,-506.1958 966.8211,-491.6348 991.5,-479 1008.8393,-470.1229 1011.8389,-464.5876 1030.5,-459 1172.6834,-416.4264 1216.9289,-451.9431 1362.5,-423 1367.0119,-422.1029 1371.6944,-420.9976 1376.3251,-419.7936"/>
<polygon fill="#191970" stroke="#191970" points="1377.5848,-423.0768 1386.2933,-417.0427 1375.7225,-416.3291 1377.5848,-423.0768"/>
</g>
<!-- Node34 -->
<g id="node35" class="node">
<title>Node34</title>
<g id="a_node35"><a xlink:href="EigenHelpers_8h.html" target="_top" xlink:title="iDynTree/Core/EigenHelpers.h">
<polygon fill="none" stroke="#000000" points="821,-459.5 821,-478.5 982,-478.5 982,-459.5 821,-459.5"/>
<text text-anchor="middle" x="901.5" y="-466.5" font-family="FreeSans.ttf" font-size="10.00" fill="#000000">iDynTree/Core/EigenHelpers.h</text>
</a>
</g>
</g>
<!-- Node0&#45;&gt;Node34 -->
<g id="edge58" class="edge">
<title>Node0&#45;&gt;Node34</title>
<path fill="none" stroke="#191970" d="M901.5,-515.2455C901.5,-507.9382 901.5,-497.6944 901.5,-488.7046"/>
<polygon fill="#191970" stroke="#191970" points="905.0001,-488.6426 901.5,-478.6427 898.0001,-488.6427 905.0001,-488.6426"/>
</g>
<!-- Node38 -->
<g id="node39" class="node">
<title>Node38</title>
<polygon fill="none" stroke="#bfbfbf" points="1039,-459.5 1039,-478.5 1086,-478.5 1086,-459.5 1039,-459.5"/>
<text text-anchor="middle" x="1062.5" y="-466.5" font-family="FreeSans.ttf" font-size="10.00" fill="#000000">cmath</text>
</g>
<!-- Node0&#45;&gt;Node38 -->
<g id="edge80" class="edge">
<title>Node0&#45;&gt;Node38</title>
<path fill="none" stroke="#191970" d="M929.1769,-515.3733C956.9637,-505.7083 999.7843,-490.8142 1029.3638,-480.5256"/>
<polygon fill="#191970" stroke="#191970" points="1030.5515,-483.8183 1038.8466,-477.2273 1028.2518,-477.2068 1030.5515,-483.8183"/>
</g>
<!-- Node2 -->
<g id="node3" class="node">
<title>Node2</title>
<g id="a_node3"><a xlink:href="Cost_8h.html" target="_top" xlink:title="iDynTree/Cost.h">
<polygon fill="none" stroke="#000000" points="163,-168.5 163,-187.5 256,-187.5 256,-168.5 163,-168.5"/>
<text text-anchor="middle" x="209.5" y="-175.5" font-family="FreeSans.ttf" font-size="10.00" fill="#000000">iDynTree/Cost.h</text>
</a>
</g>
</g>
<!-- Node1&#45;&gt;Node2 -->
<g id="edge2" class="edge">
<title>Node1&#45;&gt;Node2</title>
<path fill="none" stroke="#191970" d="M333.0071,-459.4596C311.5609,-452.6878 287.158,-441.4169 271.5,-423 214.3852,-355.8217 208.7353,-243.1296 208.9455,-197.7841"/>
<polygon fill="#191970" stroke="#191970" points="212.4451,-197.8273 209.0974,-187.7753 205.4459,-197.721 212.4451,-197.8273"/>
</g>
<!-- Node9 -->
<g id="node10" class="node">
<title>Node9</title>
<g id="a_node10"><a xlink:href="TimeVaryingObject_8h.html" target="_top" xlink:title="iDynTree/TimeVaryingObject.h">
<polygon fill="none" stroke="#000000" points="424.5,-398 424.5,-417 588.5,-417 588.5,-398 424.5,-398"/>
<text text-anchor="middle" x="506.5" y="-405" font-family="FreeSans.ttf" font-size="10.00" fill="#000000">iDynTree/TimeVaryingObject.h</text>
</a>
</g>
</g>
<!-- Node1&#45;&gt;Node9 -->
<g id="edge11" class="edge">
<title>Node1&#45;&gt;Node9</title>
<path fill="none" stroke="#191970" d="M397.6563,-459.3906C419.051,-449.1908 453.062,-432.9763 477.3702,-421.3875"/>
<polygon fill="#191970" stroke="#191970" points="478.9648,-424.5047 486.4853,-417.0419 475.9524,-418.186 478.9648,-424.5047"/>
</g>
<!-- Node32 -->
<g id="node33" class="node">
<title>Node32</title>
<polygon fill="none" stroke="#bfbfbf" points="161.5,-398 161.5,-417 219.5,-417 219.5,-398 161.5,-398"/>
<text text-anchor="middle" x="190.5" y="-405" font-family="FreeSans.ttf" font-size="10.00" fill="#000000">memory</text>
</g>
<!-- Node1&#45;&gt;Node32 -->
<g id="edge55" class="edge">
<title>Node1&#45;&gt;Node32</title>
<path fill="none" stroke="#191970" d="M346.4931,-459.4567C317.2573,-450.3731 272.2644,-436.1732 233.5,-423 231.2178,-422.2244 228.8718,-421.4147 226.5092,-420.5898"/>
<polygon fill="#191970" stroke="#191970" points="227.4199,-417.1995 216.8252,-417.1623 225.0844,-423.7983 227.4199,-417.1995"/>
</g>
<!-- Node3 -->
<g id="node4" class="node">
<title>Node3</title>
<polygon fill="none" stroke="#bfbfbf" points="452.5,-56.5 452.5,-75.5 496.5,-75.5 496.5,-56.5 452.5,-56.5"/>
<text text-anchor="middle" x="474.5" y="-63.5" font-family="FreeSans.ttf" font-size="10.00" fill="#000000">string</text>
</g>
<!-- Node2&#45;&gt;Node3 -->
<g id="edge3" class="edge">
<title>Node2&#45;&gt;Node3</title>
<path fill="none" stroke="#191970" d="M227.8346,-168.4126C253.8563,-154.9801 303.1609,-130.169 346.5,-112 378.7986,-98.4595 416.6352,-85.1688 442.7522,-76.3831"/>
<polygon fill="#191970" stroke="#191970" points="444.1151,-79.6181 452.4929,-73.1325 441.8992,-72.9781 444.1151,-79.6181"/>
</g>
<!-- Node4 -->
<g id="node5" class="node">
<title>Node4</title>
<g id="a_node5"><a xlink:href="SparsityStructure_8h.html" target="_top" xlink:title="iDynTree/SparsityStructure.h">
<polygon fill="none" stroke="#000000" points="25,-112.5 25,-131.5 180,-131.5 180,-112.5 25,-112.5"/>
<text text-anchor="middle" x="102.5" y="-119.5" font-family="FreeSans.ttf" font-size="10.00" fill="#000000">iDynTree/SparsityStructure.h</text>
</a>
</g>
</g>
<!-- Node2&#45;&gt;Node4 -->
<g id="edge4" class="edge">
<title>Node2&#45;&gt;Node4</title>
<path fill="none" stroke="#191970" d="M190.862,-168.2455C174.0614,-159.4527 149.1366,-146.4079 130.0382,-136.4125"/>
<polygon fill="#191970" stroke="#191970" points="131.4073,-133.1787 120.9244,-131.6427 128.1614,-139.3807 131.4073,-133.1787"/>
</g>
<!-- Node4&#45;&gt;Node3 -->
<g id="edge10" class="edge">
<title>Node4&#45;&gt;Node3</title>
<path fill="none" stroke="#191970" d="M166.0264,-112.4369C246.0927,-100.3839 380.6637,-80.1259 442.1234,-70.8739"/>
<polygon fill="#191970" stroke="#191970" points="443.0079,-74.2803 452.3755,-69.3306 441.9659,-67.3583 443.0079,-74.2803"/>
</g>
<!-- Node4&#45;&gt;Node5 -->
<g id="edge5" class="edge">
<title>Node4&#45;&gt;Node5</title>
<path fill="none" stroke="#191970" d="M134.4745,-112.3733C165.6713,-102.9807 213.271,-88.6496 247.2932,-78.4064"/>
<polygon fill="#191970" stroke="#191970" points="248.3763,-81.7355 256.9427,-75.5011 246.3582,-75.0327 248.3763,-81.7355"/>
</g>
<!-- Node6 -->
<g id="node7" class="node">
<title>Node6</title>
<polygon fill="none" stroke="#bfbfbf" points="262,-.5 262,-19.5 315,-19.5 315,-.5 262,-.5"/>
<text text-anchor="middle" x="288.5" y="-7.5" font-family="FreeSans.ttf" font-size="10.00" fill="#000000">cstddef</text>
</g>
<!-- Node4&#45;&gt;Node6 -->
<g id="edge8" class="edge">
<title>Node4&#45;&gt;Node6</title>
<path fill="none" stroke="#191970" d="M118.3583,-112.4509C150.8908,-92.8615 225.3676,-48.0152 264.0966,-24.6945"/>
<polygon fill="#191970" stroke="#191970" points="265.9206,-27.6818 272.6819,-19.5249 262.3096,-21.6851 265.9206,-27.6818"/>
</g>
<!-- Node7 -->
<g id="node8" class="node">
<title>Node7</title>
<polygon fill="none" stroke="#bfbfbf" points="0,-56.5 0,-75.5 47,-75.5 47,-56.5 0,-56.5"/>
<text text-anchor="middle" x="23.5" y="-63.5" font-family="FreeSans.ttf" font-size="10.00" fill="#000000">vector</text>
</g>
<!-- Node4&#45;&gt;Node7 -->
<g id="edge7" class="edge">
<title>Node4&#45;&gt;Node7</title>
<path fill="none" stroke="#191970" d="M88.7393,-112.2455C76.8448,-103.814 59.435,-91.4729 45.5915,-81.6598"/>
<polygon fill="#191970" stroke="#191970" points="47.2854,-78.5704 37.1031,-75.6427 43.2372,-84.2811 47.2854,-78.5704"/>
</g>
<!-- Node8 -->
<g id="node9" class="node">
<title>Node8</title>
<polygon fill="none" stroke="#bfbfbf" points="65.5,-56.5 65.5,-75.5 151.5,-75.5 151.5,-56.5 65.5,-56.5"/>
<text text-anchor="middle" x="108.5" y="-63.5" font-family="FreeSans.ttf" font-size="10.00" fill="#000000">unordered_set</text>
</g>
<!-- Node4&#45;&gt;Node8 -->
<g id="edge9" class="edge">
<title>Node4&#45;&gt;Node8</title>
<path fill="none" stroke="#191970" d="M103.5451,-112.2455C104.328,-104.9382 105.4256,-94.6944 106.3888,-85.7046"/>
<polygon fill="#191970" stroke="#191970" points="109.8815,-85.9587 107.4669,-75.6427 102.9214,-85.2129 109.8815,-85.9587"/>
</g>
<!-- Node5&#45;&gt;Node6 -->
<g id="edge6" class="edge">
<title>Node5&#45;&gt;Node6</title>
<path fill="none" stroke="#191970" d="M288.5,-56.2455C288.5,-48.9382 288.5,-38.6944 288.5,-29.7046"/>
<polygon fill="#191970" stroke="#191970" points="292.0001,-29.6426 288.5,-19.6427 285.0001,-29.6427 292.0001,-29.6426"/>
</g>
<!-- Node10 -->
<g id="node11" class="node">
<title>Node10</title>
<g id="a_node11"><a xlink:href="VectorDynSize_8h.html" target="_top" xlink:title="iDynTree/Core/VectorDynSize.h">
<polygon fill="none" stroke="#000000" points="388,-280.5 388,-299.5 555,-299.5 555,-280.5 388,-280.5"/>
<text text-anchor="middle" x="471.5" y="-287.5" font-family="FreeSans.ttf" font-size="10.00" fill="#000000">iDynTree/Core/VectorDynSize.h</text>
</a>
</g>
</g>
<!-- Node9&#45;&gt;Node10 -->
<g id="edge12" class="edge">
<title>Node9&#45;&gt;Node10</title>
<path fill="none" stroke="#191970" d="M504.3824,-397.6935C501.3096,-383.8305 495.2402,-357.7652 488.5,-336 485.7374,-327.0791 482.2213,-317.358 479.1045,-309.1601"/>
<polygon fill="#191970" stroke="#191970" points="482.3391,-307.8208 475.4569,-299.7656 475.8137,-310.3545 482.3391,-307.8208"/>
</g>
<!-- Node20 -->
<g id="node21" class="node">
<title>Node20</title>
<g id="a_node21"><a xlink:href="MatrixDynSize_8h.html" target="_top" xlink:title="iDynTree/Core/MatrixDynSize.h">
<polygon fill="none" stroke="#000000" points="312,-336.5 312,-355.5 479,-355.5 479,-336.5 312,-336.5"/>
<text text-anchor="middle" x="395.5" y="-343.5" font-family="FreeSans.ttf" font-size="10.00" fill="#000000">iDynTree/Core/MatrixDynSize.h</text>
</a>
</g>
</g>
<!-- Node9&#45;&gt;Node20 -->
<g id="edge24" class="edge">
<title>Node9&#45;&gt;Node20</title>
<path fill="none" stroke="#191970" d="M489.1563,-397.8906C471.0727,-387.8713 442.5141,-372.0483 421.6835,-360.5071"/>
<polygon fill="#191970" stroke="#191970" points="423.1654,-357.3268 412.722,-355.5419 419.7729,-363.4498 423.1654,-357.3268"/>
</g>
<!-- Node21 -->
<g id="node22" class="node">
<title>Node21</title>
<g id="a_node22"><a xlink:href="Transform_8h.html" target="_top" xlink:title="iDynTree/Core/Transform.h">
<polygon fill="none" stroke="#000000" points="699.5,-336.5 699.5,-355.5 845.5,-355.5 845.5,-336.5 699.5,-336.5"/>
<text text-anchor="middle" x="772.5" y="-343.5" font-family="FreeSans.ttf" font-size="10.00" fill="#000000">iDynTree/Core/Transform.h</text>
</a>
</g>
</g>
<!-- Node9&#45;&gt;Node21 -->
<g id="edge26" class="edge">
<title>Node9&#45;&gt;Node21</title>
<path fill="none" stroke="#191970" d="M547.7706,-397.9581C594.4609,-387.1632 670.5575,-369.5694 721.074,-357.8899"/>
<polygon fill="#191970" stroke="#191970" points="722.178,-361.227 731.1325,-355.5643 720.6011,-354.4069 722.178,-361.227"/>
</g>
<!-- Node10&#45;&gt;Node3 -->
<g id="edge23" class="edge">
<title>Node10&#45;&gt;Node3</title>
<path fill="none" stroke="#191970" d="M464.3692,-280.3798C445.056,-253.0673 394.9843,-173.0775 422.5,-112 428.0697,-99.6369 438.7863,-89.2563 449.0506,-81.5033"/>
<polygon fill="#191970" stroke="#191970" points="451.2618,-84.2277 457.4433,-75.623 447.2451,-78.4948 451.2618,-84.2277"/>
</g>
<!-- Node11 -->
<g id="node12" class="node">
<title>Node11</title>
<g id="a_node12"><a xlink:href="Span_8h.html" target="_top" xlink:title="iDynTree/Core/Span.h">
<polygon fill="none" stroke="#000000" points="515,-56.5 515,-75.5 636,-75.5 636,-56.5 515,-56.5"/>
<text text-anchor="middle" x="575.5" y="-63.5" font-family="FreeSans.ttf" font-size="10.00" fill="#000000">iDynTree/Core/Span.h</text>
</a>
</g>
</g>
<!-- Node10&#45;&gt;Node11 -->
<g id="edge13" class="edge">
<title>Node10&#45;&gt;Node11</title>
<path fill="none" stroke="#191970" d="M475.9688,-280.375C491.8367,-246.1979 545.6513,-130.2894 566.8326,-84.6683"/>
<polygon fill="#191970" stroke="#191970" points="570.0113,-86.1332 571.0479,-75.5891 563.6622,-83.1853 570.0113,-86.1332"/>
</g>
<!-- Node11&#45;&gt;Node6 -->
<g id="edge17" class="edge">
<title>Node11&#45;&gt;Node6</title>
<path fill="none" stroke="#191970" d="M519.6375,-56.447C469.6641,-47.6889 394.4874,-33.9905 329.5,-20 328.0675,-19.6916 326.6085,-19.3704 325.1361,-19.0402"/>
<polygon fill="#191970" stroke="#191970" points="325.8904,-15.6223 315.3581,-16.7722 324.3087,-22.4412 325.8904,-15.6223"/>
</g>
<!-- Node12 -->
<g id="node13" class="node">
<title>Node12</title>
<polygon fill="none" stroke="#bfbfbf" points="848.5,-.5 848.5,-19.5 900.5,-19.5 900.5,-.5 848.5,-.5"/>
<text text-anchor="middle" x="874.5" y="-7.5" font-family="FreeSans.ttf" font-size="10.00" fill="#000000">cassert</text>
</g>
<!-- Node11&#45;&gt;Node12 -->
<g id="edge14" class="edge">
<title>Node11&#45;&gt;Node12</title>
<path fill="none" stroke="#191970" d="M636.1534,-57.2987C687.5894,-49.496 763.4817,-36.9897 838.1556,-20.1326"/>
<polygon fill="#191970" stroke="#191970" points="839.2354,-23.4762 848.2041,-17.8358 837.6756,-16.6522 839.2354,-23.4762"/>
</g>
<!-- Node13 -->
<g id="node14" class="node">
<title>Node13</title>
<polygon fill="none" stroke="#bfbfbf" points="338.5,-.5 338.5,-19.5 402.5,-19.5 402.5,-.5 338.5,-.5"/>
<text text-anchor="middle" x="370.5" y="-7.5" font-family="FreeSans.ttf" font-size="10.00" fill="#000000">algorithm</text>
</g>
<!-- Node11&#45;&gt;Node13 -->
<g id="edge15" class="edge">
<title>Node11&#45;&gt;Node13</title>
<path fill="none" stroke="#191970" d="M540.2592,-56.3733C504.7399,-46.6704 449.9279,-31.6974 412.2502,-21.4049"/>
<polygon fill="#191970" stroke="#191970" points="413.1547,-18.0238 402.5858,-18.7649 411.31,-24.7764 413.1547,-18.0238"/>
</g>
<!-- Node14 -->
<g id="node15" class="node">
<title>Node14</title>
<polygon fill="none" stroke="#bfbfbf" points="420.5,-.5 420.5,-19.5 462.5,-19.5 462.5,-.5 420.5,-.5"/>
<text text-anchor="middle" x="441.5" y="-7.5" font-family="FreeSans.ttf" font-size="10.00" fill="#000000">array</text>
</g>
<!-- Node11&#45;&gt;Node14 -->
<g id="edge16" class="edge">
<title>Node11&#45;&gt;Node14</title>
<path fill="none" stroke="#191970" d="M552.4646,-56.3733C530.3666,-47.1383 496.8446,-33.1291 472.4284,-22.9253"/>
<polygon fill="#191970" stroke="#191970" points="473.485,-19.5736 462.9087,-18.9469 470.7858,-26.0323 473.485,-19.5736"/>
</g>
<!-- Node15 -->
<g id="node16" class="node">
<title>Node15</title>
<polygon fill="none" stroke="#bfbfbf" points="481,-.5 481,-19.5 534,-19.5 534,-.5 481,-.5"/>
<text text-anchor="middle" x="507.5" y="-7.5" font-family="FreeSans.ttf" font-size="10.00" fill="#000000">iterator</text>
</g>
<!-- Node11&#45;&gt;Node15 -->
<g id="edge18" class="edge">
<title>Node11&#45;&gt;Node15</title>
<path fill="none" stroke="#191970" d="M563.6553,-56.2455C553.612,-47.9746 539.0005,-35.9416 527.1996,-26.2232"/>
<polygon fill="#191970" stroke="#191970" points="529.1533,-23.298 519.209,-19.6427 524.7033,-28.7015 529.1533,-23.298"/>
</g>
<!-- Node16 -->
<g id="node17" class="node">
<title>Node16</title>
<polygon fill="none" stroke="#bfbfbf" points="552.5,-.5 552.5,-19.5 596.5,-19.5 596.5,-.5 552.5,-.5"/>
<text text-anchor="middle" x="574.5" y="-7.5" font-family="FreeSans.ttf" font-size="10.00" fill="#000000">limits</text>
</g>
<!-- Node11&#45;&gt;Node16 -->
<g id="edge19" class="edge">
<title>Node11&#45;&gt;Node16</title>
<path fill="none" stroke="#191970" d="M575.3258,-56.2455C575.1953,-48.9382 575.0124,-38.6944 574.8519,-29.7046"/>
<polygon fill="#191970" stroke="#191970" points="578.3503,-29.5786 574.6722,-19.6427 571.3514,-29.7036 578.3503,-29.5786"/>
</g>
<!-- Node17 -->
<g id="node18" class="node">
<title>Node17</title>
<polygon fill="none" stroke="#bfbfbf" points="615,-.5 615,-19.5 680,-19.5 680,-.5 615,-.5"/>
<text text-anchor="middle" x="647.5" y="-7.5" font-family="FreeSans.ttf" font-size="10.00" fill="#000000">stdexcept</text>
</g>
<!-- Node11&#45;&gt;Node17 -->
<g id="edge20" class="edge">
<title>Node11&#45;&gt;Node17</title>
<path fill="none" stroke="#191970" d="M588.0414,-56.2455C598.7787,-47.8943 614.4473,-35.7076 627.0047,-25.9408"/>
<polygon fill="#191970" stroke="#191970" points="629.3575,-28.5449 635.1023,-19.6427 625.0599,-23.0194 629.3575,-28.5449"/>
</g>
<!-- Node18 -->
<g id="node19" class="node">
<title>Node18</title>
<polygon fill="none" stroke="#bfbfbf" points="698,-.5 698,-19.5 767,-19.5 767,-.5 698,-.5"/>
<text text-anchor="middle" x="732.5" y="-7.5" font-family="FreeSans.ttf" font-size="10.00" fill="#000000">type_traits</text>
</g>
<!-- Node11&#45;&gt;Node18 -->
<g id="edge21" class="edge">
<title>Node11&#45;&gt;Node18</title>
<path fill="none" stroke="#191970" d="M602.4893,-56.3733C628.3699,-47.1419 667.6248,-33.1402 696.2289,-22.9375"/>
<polygon fill="#191970" stroke="#191970" points="697.62,-26.1573 705.8629,-19.5011 695.2683,-19.5642 697.62,-26.1573"/>
</g>
<!-- Node19 -->
<g id="node20" class="node">
<title>Node19</title>
<polygon fill="none" stroke="#bfbfbf" points="785,-.5 785,-19.5 830,-19.5 830,-.5 785,-.5"/>
<text text-anchor="middle" x="807.5" y="-7.5" font-family="FreeSans.ttf" font-size="10.00" fill="#000000">utility</text>
</g>
<!-- Node11&#45;&gt;Node19 -->
<g id="edge22" class="edge">
<title>Node11&#45;&gt;Node19</title>
<path fill="none" stroke="#191970" d="M622.4947,-56.4553C661.1769,-48.327 717.6194,-35.8467 774.9297,-20.2798"/>
<polygon fill="#191970" stroke="#191970" points="776.1651,-23.5702 784.8816,-17.5474 774.3117,-16.8201 776.1651,-23.5702"/>
</g>
<!-- Node20&#45;&gt;Node3 -->
<g id="edge25" class="edge">
<title>Node20&#45;&gt;Node3</title>
<path fill="none" stroke="#191970" d="M390.3356,-336.4283C380.5998,-317.4624 360.5,-273.5212 360.5,-234 360.5,-234 360.5,-234 360.5,-178 360.5,-131.4628 409.4383,-97.828 443.1864,-80.1659"/>
<polygon fill="#191970" stroke="#191970" points="444.8862,-83.2289 452.249,-75.6105 441.7424,-76.9746 444.8862,-83.2289"/>
</g>
<!-- Node21&#45;&gt;Node3 -->
<g id="edge54" class="edge">
<title>Node21&#45;&gt;Node3</title>
<path fill="none" stroke="#191970" d="M742.7709,-336.3907C688.314,-317.2305 572.5534,-269.0028 511.5,-188 494.7512,-165.7784 491.7124,-158.5872 483.5,-132 478.8541,-116.9592 476.6043,-99.2527 475.516,-85.9682"/>
<polygon fill="#191970" stroke="#191970" points="478.9832,-85.3562 474.8276,-75.6103 471.9986,-85.8205 478.9832,-85.3562"/>
</g>
<!-- Node22 -->
<g id="node23" class="node">
<title>Node22</title>
<g id="a_node23"><a xlink:href="Position_8h.html" target="_top" xlink:title="iDynTree/Core/Position.h">
<polygon fill="none" stroke="#000000" points="669.5,-280.5 669.5,-299.5 805.5,-299.5 805.5,-280.5 669.5,-280.5"/>
<text text-anchor="middle" x="737.5" y="-287.5" font-family="FreeSans.ttf" font-size="10.00" fill="#000000">iDynTree/Core/Position.h</text>
</a>
</g>
</g>
<!-- Node21&#45;&gt;Node22 -->
<g id="edge27" class="edge">
<title>Node21&#45;&gt;Node22</title>
<path fill="none" stroke="#191970" d="M766.4035,-336.2455C761.5855,-328.5367 754.7249,-317.5598 748.8968,-308.2348"/>
<polygon fill="#191970" stroke="#191970" points="751.7947,-306.2677 743.5267,-299.6427 745.8587,-309.9777 751.7947,-306.2677"/>
</g>
<!-- Node27 -->
<g id="node28" class="node">
<title>Node27</title>
<g id="a_node28"><a xlink:href="Rotation_8h.html" target="_top" xlink:title="iDynTree/Core/Rotation.h">
<polygon fill="none" stroke="#000000" points="765,-224.5 765,-243.5 902,-243.5 902,-224.5 765,-224.5"/>
<text text-anchor="middle" x="833.5" y="-231.5" font-family="FreeSans.ttf" font-size="10.00" fill="#000000">iDynTree/Core/Rotation.h</text>
</a>
</g>
</g>
<!-- Node21&#45;&gt;Node27 -->
<g id="edge52" class="edge">
<title>Node21&#45;&gt;Node27</title>
<path fill="none" stroke="#191970" d="M783.689,-336.4952C793.1719,-327.8718 806.4736,-314.3447 814.5,-300 822.5057,-285.6924 827.3927,-267.7142 830.2017,-254.1359"/>
<polygon fill="#191970" stroke="#191970" points="833.71,-254.4133 832.0954,-243.9423 826.8278,-253.1348 833.71,-254.4133"/>
</g>
<!-- Node30 -->
<g id="node31" class="node">
<title>Node30</title>
<g id="a_node31"><a xlink:href="MatrixFixSize_8h.html" target="_top" xlink:title="iDynTree/Core/MatrixFixSize.h">
<polygon fill="none" stroke="#000000" points="973,-112.5 973,-131.5 1134,-131.5 1134,-112.5 973,-112.5"/>
<text text-anchor="middle" x="1053.5" y="-119.5" font-family="FreeSans.ttf" font-size="10.00" fill="#000000">iDynTree/Core/MatrixFixSize.h</text>
</a>
</g>
</g>
<!-- Node21&#45;&gt;Node30 -->
<g id="edge53" class="edge">
<title>Node21&#45;&gt;Node30</title>
<path fill="none" stroke="#191970" d="M786.1758,-336.4905C811.3947,-318.8397 866.7391,-279.5658 911.5,-244 957.1614,-207.7187 1008.5767,-162.36 1035.2463,-138.4741"/>
<polygon fill="#191970" stroke="#191970" points="1037.5936,-141.0703 1042.6949,-131.7844 1032.9162,-135.8623 1037.5936,-141.0703"/>
</g>
<!-- Node22&#45;&gt;Node3 -->
<g id="edge51" class="edge">
<title>Node22&#45;&gt;Node3</title>
<path fill="none" stroke="#191970" d="M702.1871,-280.4743C657.3172,-266.7633 579.9019,-237.5123 531.5,-188 502.7578,-158.5984 486.6049,-112.0131 479.3092,-85.732"/>
<polygon fill="#191970" stroke="#191970" points="482.633,-84.6083 476.7139,-75.8211 475.8614,-86.3816 482.633,-84.6083"/>
</g>
<!-- Node23 -->
<g id="node24" class="node">
<title>Node23</title>
<g id="a_node24"><a xlink:href="PositionRaw_8h.html" target="_top" xlink:title="iDynTree/Core/PositionRaw.h">
<polygon fill="none" stroke="#000000" points="540.5,-168.5 540.5,-187.5 696.5,-187.5 696.5,-168.5 540.5,-168.5"/>
<text text-anchor="middle" x="618.5" y="-175.5" font-family="FreeSans.ttf" font-size="10.00" fill="#000000">iDynTree/Core/PositionRaw.h</text>
</a>
</g>
</g>
<!-- Node22&#45;&gt;Node23 -->
<g id="edge28" class="edge">
<title>Node22&#45;&gt;Node23</title>
<path fill="none" stroke="#191970" d="M727.3541,-280.4509C707.0672,-261.3574 661.2866,-218.2697 636.038,-194.5063"/>
<polygon fill="#191970" stroke="#191970" points="638.301,-191.8299 628.6202,-187.5249 633.5034,-196.9273 638.301,-191.8299"/>
</g>
<!-- Node22&#45;&gt;Node27 -->
<g id="edge37" class="edge">
<title>Node22&#45;&gt;Node27</title>
<path fill="none" stroke="#191970" d="M754.2219,-280.2455C769.0889,-271.5731 791.0466,-258.7645 808.0858,-248.825"/>
<polygon fill="#191970" stroke="#191970" points="810.0955,-251.7047 816.9697,-243.6427 806.5683,-245.6582 810.0955,-251.7047"/>
</g>
<!-- Node23&#45;&gt;Node3 -->
<g id="edge36" class="edge">
<title>Node23&#45;&gt;Node3</title>
<path fill="none" stroke="#191970" d="M606.2226,-168.4509C581.4613,-149.1921 525.3138,-105.5218 494.9345,-81.8935"/>
<polygon fill="#191970" stroke="#191970" points="496.7886,-78.9016 486.7463,-75.5249 492.491,-84.4271 496.7886,-78.9016"/>
</g>
<!-- Node24 -->
<g id="node25" class="node">
<title>Node24</title>
<g id="a_node25"><a xlink:href="VectorFixSize_8h.html" target="_top" xlink:title="iDynTree/Core/VectorFixSize.h">
<polygon fill="none" stroke="#000000" points="794,-112.5 794,-131.5 955,-131.5 955,-112.5 794,-112.5"/>
<text text-anchor="middle" x="874.5" y="-119.5" font-family="FreeSans.ttf" font-size="10.00" fill="#000000">iDynTree/Core/VectorFixSize.h</text>
</a>
</g>
</g>
<!-- Node23&#45;&gt;Node24 -->
<g id="edge29" class="edge">
<title>Node23&#45;&gt;Node24</title>
<path fill="none" stroke="#191970" d="M662.2171,-168.4369C706.1216,-158.8328 773.8413,-144.0191 820.945,-133.7152"/>
<polygon fill="#191970" stroke="#191970" points="821.9422,-137.0799 830.9632,-131.5237 820.4463,-130.2416 821.9422,-137.0799"/>
</g>
<!-- Node24&#45;&gt;Node3 -->
<g id="edge32" class="edge">
<title>Node24&#45;&gt;Node3</title>
<path fill="none" stroke="#191970" d="M793.8995,-113.6257C702.5915,-103.8383 559.5909,-87.517 506.5,-76 506.4005,-75.9784 506.3008,-75.9566 506.201,-75.9347"/>
<polygon fill="#191970" stroke="#191970" points="507.2996,-72.6033 496.7435,-73.5085 505.5601,-79.3837 507.2996,-72.6033"/>
</g>
<!-- Node24&#45;&gt;Node5 -->
<g id="edge30" class="edge">
<title>Node24&#45;&gt;Node5</title>
<path fill="none" stroke="#191970" d="M793.9414,-114.3016C678.4542,-103.2652 467.747,-83.1294 358.4465,-72.6843"/>
<polygon fill="#191970" stroke="#191970" points="358.4798,-69.1716 348.1922,-71.7044 357.8138,-76.1399 358.4798,-69.1716"/>
</g>
<!-- Node24&#45;&gt;Node11 -->
<g id="edge31" class="edge">
<title>Node24&#45;&gt;Node11</title>
<path fill="none" stroke="#191970" d="M823.4398,-112.4369C771.6232,-102.7321 691.405,-87.708 636.3285,-77.3926"/>
<polygon fill="#191970" stroke="#191970" points="636.823,-73.9245 626.3496,-75.5237 635.5344,-80.8048 636.823,-73.9245"/>
</g>
<!-- Node24&#45;&gt;Node12 -->
<g id="edge34" class="edge">
<title>Node24&#45;&gt;Node12</title>
<path fill="none" stroke="#191970" d="M874.5,-112.4509C874.5,-94.184 874.5,-53.9553 874.5,-29.6976"/>
<polygon fill="#191970" stroke="#191970" points="878.0001,-29.5249 874.5,-19.5249 871.0001,-29.5249 878.0001,-29.5249"/>
</g>
<!-- Node25 -->
<g id="node26" class="node">
<title>Node25</title>
<polygon fill="none" stroke="#bfbfbf" points="1025.5,-56.5 1025.5,-75.5 1081.5,-75.5 1081.5,-56.5 1025.5,-56.5"/>
<text text-anchor="middle" x="1053.5" y="-63.5" font-family="FreeSans.ttf" font-size="10.00" fill="#000000">sstream</text>
</g>
<!-- Node24&#45;&gt;Node25 -->
<g id="edge33" class="edge">
<title>Node24&#45;&gt;Node25</title>
<path fill="none" stroke="#191970" d="M905.2712,-112.3733C935.8897,-102.7943 982.9267,-88.0788 1015.7778,-77.8014"/>
<polygon fill="#191970" stroke="#191970" points="1016.9848,-81.0911 1025.4836,-74.7649 1014.8947,-74.4104 1016.9848,-81.0911"/>
</g>
<!-- Node26 -->
<g id="node27" class="node">
<title>Node26</title>
<polygon fill="none" stroke="#bfbfbf" points="907.5,-56.5 907.5,-75.5 957.5,-75.5 957.5,-56.5 907.5,-56.5"/>
<text text-anchor="middle" x="932.5" y="-63.5" font-family="FreeSans.ttf" font-size="10.00" fill="#000000">cstring</text>
</g>
<!-- Node24&#45;&gt;Node26 -->
<g id="edge35" class="edge">
<title>Node24&#45;&gt;Node26</title>
<path fill="none" stroke="#191970" d="M884.6028,-112.2455C893.0028,-104.1352 905.1494,-92.4075 915.1084,-82.7919"/>
<polygon fill="#191970" stroke="#191970" points="917.75,-85.1066 922.5129,-75.6427 912.8878,-80.0707 917.75,-85.1066"/>
</g>
<!-- Node27&#45;&gt;Node3 -->
<g id="edge38" class="edge">
<title>Node27&#45;&gt;Node3</title>
<path fill="none" stroke="#191970" d="M814.5035,-224.3738C796.2652,-215.1122 767.9557,-200.6849 743.5,-188 726.5582,-179.2124 722.6841,-176.3039 705.5,-168 635.2248,-134.0406 550.9721,-97.983 506.1718,-79.17"/>
<polygon fill="#191970" stroke="#191970" points="507.283,-75.8409 496.7072,-75.2058 504.5786,-82.2974 507.283,-75.8409"/>
</g>
<!-- Node27&#45;&gt;Node24 -->
<g id="edge50" class="edge">
<title>Node27&#45;&gt;Node24</title>
<path fill="none" stroke="#191970" d="M869.4657,-224.454C887.8626,-217.5484 908.6215,-206.1556 919.5,-188 930.0617,-170.3731 913.322,-151.0406 897.3466,-137.8821"/>
<polygon fill="#191970" stroke="#191970" points="899.2664,-134.9426 889.2108,-131.6055 894.9905,-140.485 899.2664,-134.9426"/>
</g>
<!-- Node28 -->
<g id="node29" class="node">
<title>Node28</title>
<g id="a_node29"><a xlink:href="GeomVector3_8h.html" target="_top" xlink:title="iDynTree/Core/GeomVector3.h">
<polygon fill="none" stroke="#000000" points="1043,-168.5 1043,-187.5 1206,-187.5 1206,-168.5 1043,-168.5"/>
<text text-anchor="middle" x="1124.5" y="-175.5" font-family="FreeSans.ttf" font-size="10.00" fill="#000000">iDynTree/Core/GeomVector3.h</text>
</a>
</g>
</g>
<!-- Node27&#45;&gt;Node28 -->
<g id="edge39" class="edge">
<title>Node27&#45;&gt;Node28</title>
<path fill="none" stroke="#191970" d="M883.194,-224.4369C933.5196,-214.7522 1011.3723,-199.7703 1064.9651,-189.4569"/>
<polygon fill="#191970" stroke="#191970" points="1065.8525,-192.8504 1075.0109,-187.5237 1064.5297,-185.9765 1065.8525,-192.8504"/>
</g>
<!-- Node29 -->
<g id="node30" class="node">
<title>Node29</title>
<g id="a_node30"><a xlink:href="RotationRaw_8h.html" target="_top" xlink:title="iDynTree/Core/RotationRaw.h">
<polygon fill="none" stroke="#000000" points="752.5,-168.5 752.5,-187.5 910.5,-187.5 910.5,-168.5 752.5,-168.5"/>
<text text-anchor="middle" x="831.5" y="-175.5" font-family="FreeSans.ttf" font-size="10.00" fill="#000000">iDynTree/Core/RotationRaw.h</text>
</a>
</g>
</g>
<!-- Node27&#45;&gt;Node29 -->
<g id="edge41" class="edge">
<title>Node27&#45;&gt;Node29</title>
<path fill="none" stroke="#191970" d="M833.1516,-224.2455C832.8907,-216.9382 832.5248,-206.6944 832.2037,-197.7046"/>
<polygon fill="#191970" stroke="#191970" points="835.6992,-197.5113 831.8444,-187.6427 828.7036,-197.7613 835.6992,-197.5113"/>
</g>
<!-- Node28&#45;&gt;Node24 -->
<g id="edge40" class="edge">
<title>Node28&#45;&gt;Node24</title>
<path fill="none" stroke="#191970" d="M1081.8075,-168.4369C1038.9321,-158.8328 972.7995,-144.0191 926.7998,-133.7152"/>
<polygon fill="#191970" stroke="#191970" points="927.5396,-130.2942 917.0164,-131.5237 926.0095,-137.1249 927.5396,-130.2942"/>
</g>
<!-- Node29&#45;&gt;Node3 -->
<g id="edge49" class="edge">
<title>Node29&#45;&gt;Node3</title>
<path fill="none" stroke="#191970" d="M821.3157,-168.2845C805.1693,-153.4972 772.0714,-125.6261 738.5,-112 641.8154,-72.7573 608.1349,-99.6273 506.5,-76 506.4008,-75.9769 506.3014,-75.9537 506.202,-75.9304"/>
<polygon fill="#191970" stroke="#191970" points="507.3264,-72.6077 496.7629,-73.4224 505.5288,-79.373 507.3264,-72.6077"/>
</g>
<!-- Node29&#45;&gt;Node30 -->
<g id="edge42" class="edge">
<title>Node29&#45;&gt;Node30</title>
<path fill="none" stroke="#191970" d="M869.4109,-168.4369C907.165,-158.9133 965.2265,-144.2672 1006.0264,-133.9753"/>
<polygon fill="#191970" stroke="#191970" points="1006.9053,-137.3633 1015.7454,-131.5237 1005.1931,-130.576 1006.9053,-137.3633"/>
</g>
<!-- Node30&#45;&gt;Node3 -->
<g id="edge46" class="edge">
<title>Node30&#45;&gt;Node3</title>
<path fill="none" stroke="#191970" d="M972.9823,-112.8309C970.1204,-112.5439 967.2861,-112.2659 964.5,-112 761.2405,-92.598 706.9834,-114.6948 506.5,-76 506.4,-75.9807 506.2998,-75.9612 506.1996,-75.9415"/>
<polygon fill="#191970" stroke="#191970" points="507.2591,-72.597 496.716,-73.6428 505.6101,-79.4 507.2591,-72.597"/>
</g>
<!-- Node30&#45;&gt;Node5 -->
<g id="edge43" class="edge">
<title>Node30&#45;&gt;Node5</title>
<path fill="none" stroke="#191970" d="M972.9859,-112.793C970.1229,-112.5167 967.2874,-112.2513 964.5,-112 905.3528,-106.6673 518.8744,-81.124 358.2886,-70.574"/>
<polygon fill="#191970" stroke="#191970" points="358.2516,-67.0641 348.0436,-69.9011 357.7927,-74.049 358.2516,-67.0641"/>
</g>
<!-- Node30&#45;&gt;Node12 -->
<g id="edge44" class="edge">
<title>Node30&#45;&gt;Node12</title>
<path fill="none" stroke="#191970" d="M1042.1731,-112.3155C1026.0241,-98.7676 995.1575,-73.8203 966.5,-56 946.9613,-43.8501 923.7859,-32.2781 905.5837,-23.7799"/>
<polygon fill="#191970" stroke="#191970" points="906.8492,-20.5095 896.3015,-19.5103 903.9239,-26.869 906.8492,-20.5095"/>
</g>
<!-- Node30&#45;&gt;Node25 -->
<g id="edge48" class="edge">
<title>Node30&#45;&gt;Node25</title>
<path fill="none" stroke="#191970" d="M1053.5,-112.2455C1053.5,-104.9382 1053.5,-94.6944 1053.5,-85.7046"/>
<polygon fill="#191970" stroke="#191970" points="1057.0001,-85.6426 1053.5,-75.6427 1050.0001,-85.6427 1057.0001,-85.6426"/>
</g>
<!-- Node30&#45;&gt;Node26 -->
<g id="edge45" class="edge">
<title>Node30&#45;&gt;Node26</title>
<path fill="none" stroke="#191970" d="M1032.6994,-112.3733C1013.2757,-103.3838 984.0776,-89.8706 962.2036,-79.7471"/>
<polygon fill="#191970" stroke="#191970" points="963.5745,-76.5249 953.0292,-75.5011 960.6344,-82.8776 963.5745,-76.5249"/>
</g>
<!-- Node31 -->
<g id="node32" class="node">
<title>Node31</title>
<polygon fill="none" stroke="#bfbfbf" points="1227.5,-56.5 1227.5,-75.5 1287.5,-75.5 1287.5,-56.5 1227.5,-56.5"/>
<text text-anchor="middle" x="1257.5" y="-63.5" font-family="FreeSans.ttf" font-size="10.00" fill="#000000">iostream</text>
</g>
<!-- Node30&#45;&gt;Node31 -->
<g id="edge47" class="edge">
<title>Node30&#45;&gt;Node31</title>
<path fill="none" stroke="#191970" d="M1088.5689,-112.3733C1124.2852,-102.5688 1179.6043,-87.3831 1217.126,-77.0831"/>
<polygon fill="#191970" stroke="#191970" points="1218.4893,-80.3384 1227.2061,-74.316 1216.6363,-73.5881 1218.4893,-80.3384"/>
</g>
<!-- Node34&#45;&gt;Node5 -->
<g id="edge79" class="edge">
<title>Node34&#45;&gt;Node5</title>
<path fill="none" stroke="#191970" d="M820.8589,-467.01C697.8067,-463.0818 469.4453,-452.0308 393.5,-423 322.1116,-395.7111 284.5,-366.4264 284.5,-290 284.5,-290 284.5,-290 284.5,-178 284.5,-145.691 286.183,-108.1727 287.3656,-85.7971"/>
<polygon fill="#191970" stroke="#191970" points="290.8728,-85.7613 287.9269,-75.5843 283.8833,-85.3771 290.8728,-85.7613"/>
</g>
<!-- Node34&#45;&gt;Node10 -->
<g id="edge60" class="edge">
<title>Node34&#45;&gt;Node10</title>
<path fill="none" stroke="#191970" d="M878.3813,-459.3762C806.5519,-429.4751 587.0962,-338.1203 503.9201,-303.4958"/>
<polygon fill="#191970" stroke="#191970" points="505.0485,-300.1745 494.4714,-299.5625 502.3583,-306.6369 505.0485,-300.1745"/>
</g>
<!-- Node34&#45;&gt;Node20 -->
<g id="edge62" class="edge">
<title>Node34&#45;&gt;Node20</title>
<path fill="none" stroke="#191970" d="M820.9256,-466.3654C690.7538,-461.3774 445.6427,-448.6747 415.5,-423 399.1209,-409.0488 395.2697,-383.5649 394.7648,-365.7495"/>
<polygon fill="#191970" stroke="#191970" points="398.2653,-365.599 394.8092,-355.5837 391.2654,-365.5683 398.2653,-365.599"/>
</g>
<!-- Node34&#45;&gt;Node21 -->
<g id="edge78" class="edge">
<title>Node34&#45;&gt;Node21</title>
<path fill="none" stroke="#191970" d="M891.3776,-459.3484C869.4295,-438.4212 817.2405,-388.6596 789.8944,-362.5854"/>
<polygon fill="#191970" stroke="#191970" points="792.2281,-359.9745 782.5754,-355.6068 787.3975,-365.0406 792.2281,-359.9745"/>
</g>
<!-- Node34&#45;&gt;Node24 -->
<g id="edge61" class="edge">
<title>Node34&#45;&gt;Node24</title>
<path fill="none" stroke="#191970" d="M977.0287,-459.4947C1073.9376,-447.1703 1230.2894,-426.798 1235.5,-423 1266.1825,-400.6356 1272.5,-383.9681 1272.5,-346 1272.5,-346 1272.5,-346 1272.5,-234 1272.5,-200.5868 1264.0975,-186.8368 1236.5,-168 1230.9003,-164.1779 1070.8451,-144.8898 965.4558,-132.5346"/>
<polygon fill="#191970" stroke="#191970" points="965.7737,-129.048 955.4345,-131.3614 964.9596,-136.0005 965.7737,-129.048"/>
</g>
<!-- Node34&#45;&gt;Node30 -->
<g id="edge63" class="edge">
<title>Node34&#45;&gt;Node30</title>
<path fill="none" stroke="#191970" d="M980.6374,-459.4697C1086.3425,-446.666 1260.7782,-425.2462 1263.5,-423 1350.9133,-350.8602 1349.3215,-239.6422 1261.5,-168 1242.5986,-152.5808 1187.9491,-140.8383 1139.4108,-133.0776"/>
<polygon fill="#191970" stroke="#191970" points="1139.8992,-129.6115 1129.4796,-131.5304 1138.8216,-136.5281 1139.8992,-129.6115"/>
</g>
<!-- Node34&#45;&gt;Node33 -->
<g id="edge59" class="edge">
<title>Node34&#45;&gt;Node33</title>
<path fill="none" stroke="#191970" d="M982.0894,-460.4784C986.9652,-459.9748 991.7978,-459.4787 996.5,-459 1159.1111,-442.4445 1202.0295,-454.075 1362.5,-423 1367.1942,-422.091 1372.071,-420.9478 1376.8811,-419.6963"/>
<polygon fill="#191970" stroke="#191970" points="1377.8747,-423.053 1386.5809,-417.0153 1376.0098,-416.3059 1377.8747,-423.053"/>
</g>
<!-- Node35 -->
<g id="node36" class="node">
<title>Node35</title>
<g id="a_node36"><a xlink:href="SpatialMotionVector_8h.html" target="_top" xlink:title="iDynTree/Core/SpatialMotion\lVector.h">
<polygon fill="none" stroke="#000000" points="1071,-392.5 1071,-422.5 1226,-422.5 1226,-392.5 1071,-392.5"/>
<text text-anchor="start" x="1079" y="-410.5" font-family="FreeSans.ttf" font-size="10.00" fill="#000000">iDynTree/Core/SpatialMotion</text>
<text text-anchor="middle" x="1148.5" y="-399.5" font-family="FreeSans.ttf" font-size="10.00" fill="#000000">Vector.h</text>
</a>
</g>
</g>
<!-- Node34&#45;&gt;Node35 -->
<g id="edge64" class="edge">
<title>Node34&#45;&gt;Node35</title>
<path fill="none" stroke="#191970" d="M939.8227,-459.4581C976.6077,-450.2991 1033.0494,-436.2458 1077.9622,-425.0631"/>
<polygon fill="#191970" stroke="#191970" points="1079.0831,-428.3909 1087.9411,-422.5784 1077.3917,-421.5983 1079.0831,-428.3909"/>
</g>
<!-- Node37 -->
<g id="node38" class="node">
<title>Node37</title>
<g id="a_node38"><a xlink:href="SpatialForceVector_8h.html" target="_top" xlink:title="iDynTree/Core/SpatialForce\lVector.h">
<polygon fill="none" stroke="#000000" points="886.5,-392.5 886.5,-422.5 1034.5,-422.5 1034.5,-392.5 886.5,-392.5"/>
<text text-anchor="start" x="894.5" y="-410.5" font-family="FreeSans.ttf" font-size="10.00" fill="#000000">iDynTree/Core/SpatialForce</text>
<text text-anchor="middle" x="960.5" y="-399.5" font-family="FreeSans.ttf" font-size="10.00" fill="#000000">Vector.h</text>
</a>
</g>
</g>
<!-- Node34&#45;&gt;Node37 -->
<g id="edge74" class="edge">
<title>Node34&#45;&gt;Node37</title>
<path fill="none" stroke="#191970" d="M910.7188,-459.3906C918.2601,-451.5298 929.2287,-440.0964 938.9518,-429.9612"/>
<polygon fill="#191970" stroke="#191970" points="941.6698,-432.1839 946.067,-422.5446 936.6184,-427.3378 941.6698,-432.1839"/>
</g>
<!-- Node35&#45;&gt;Node24 -->
<g id="edge65" class="edge">
<title>Node35&#45;&gt;Node24</title>
<path fill="none" stroke="#191970" d="M1169.7584,-392.2466C1195.2255,-372.0184 1234.5,-333.7335 1234.5,-290 1234.5,-290 1234.5,-290 1234.5,-234 1234.5,-203.4754 1238.603,-187.95 1215.5,-168 1210.7053,-163.8597 1062.4707,-145.0006 963.0419,-132.7523"/>
<polygon fill="#191970" stroke="#191970" points="963.3307,-129.2615 952.9782,-131.5146 962.4762,-136.2092 963.3307,-129.2615"/>
</g>
<!-- Node35&#45;&gt;Node28 -->
<g id="edge66" class="edge">
<title>Node35&#45;&gt;Node28</title>
<path fill="none" stroke="#191970" d="M1159.9026,-392.1784C1166.4619,-382.3846 1174.0648,-369.1017 1177.5,-356 1179.7544,-347.4018 1178.9322,-344.7728 1177.5,-336 1169.0305,-284.1197 1145.8869,-226.2958 1133.1642,-197.0968"/>
<polygon fill="#191970" stroke="#191970" points="1136.2493,-195.42 1128.9948,-187.6984 1129.8507,-198.2586 1136.2493,-195.42"/>
</g>
<!-- Node36 -->
<g id="node37" class="node">
<title>Node36</title>
<g id="a_node37"><a xlink:href="SpatialVector_8h.html" target="_top" xlink:title="iDynTree/Core/SpatialVector.h">
<polygon fill="none" stroke="#000000" points="1007,-336.5 1007,-355.5 1168,-355.5 1168,-336.5 1007,-336.5"/>
<text text-anchor="middle" x="1087.5" y="-343.5" font-family="FreeSans.ttf" font-size="10.00" fill="#000000">iDynTree/Core/SpatialVector.h</text>
</a>
</g>
</g>
<!-- Node35&#45;&gt;Node36 -->
<g id="edge67" class="edge">
<title>Node35&#45;&gt;Node36</title>
<path fill="none" stroke="#191970" d="M1133.4213,-392.2977C1124.6011,-383.4052 1113.4459,-372.1586 1104.3388,-362.9769"/>
<polygon fill="#191970" stroke="#191970" points="1106.794,-360.4821 1097.2669,-355.8469 1101.8241,-365.4116 1106.794,-360.4821"/>
</g>
<!-- Node36&#45;&gt;Node5 -->
<g id="edge70" class="edge">
<title>Node36&#45;&gt;Node5</title>
<path fill="none" stroke="#191970" d="M1006.6689,-342.4209C826.821,-334.23 407.1737,-313.7681 379.5,-300 344.7989,-282.7356 322.5,-272.7585 322.5,-234 322.5,-234 322.5,-234 322.5,-178 322.5,-143.9677 307.9485,-106.5293 297.8849,-84.7067"/>
<polygon fill="#191970" stroke="#191970" points="300.9939,-83.0954 293.5168,-75.5891 294.681,-86.1198 300.9939,-83.0954"/>
</g>
<!-- Node36&#45;&gt;Node22 -->
<g id="edge68" class="edge">
<title>Node36&#45;&gt;Node22</title>
<path fill="none" stroke="#191970" d="M1027.7305,-336.4369C966.5723,-326.6516 871.614,-311.4582 807.105,-301.1368"/>
<polygon fill="#191970" stroke="#191970" points="807.4503,-297.6476 797.0229,-299.5237 806.3444,-304.5597 807.4503,-297.6476"/>
</g>
<!-- Node36&#45;&gt;Node25 -->
<g id="edge73" class="edge">
<title>Node36&#45;&gt;Node25</title>
<path fill="none" stroke="#191970" d="M1116.1783,-336.3976C1182.6909,-312.536 1337.9946,-246.7554 1286.5,-168 1243.1154,-101.648 1145.989,-78.1956 1091.8356,-70.1051"/>
<polygon fill="#191970" stroke="#191970" points="1091.9931,-66.5934 1081.6065,-68.6836 1091.0296,-73.5268 1091.9931,-66.5934"/>
</g>
<!-- Node36&#45;&gt;Node27 -->
<g id="edge69" class="edge">
<title>Node36&#45;&gt;Node27</title>
<path fill="none" stroke="#191970" d="M1065.8441,-336.4509C1020.7619,-316.5722 916.6967,-270.6852 864.5142,-247.6756"/>
<polygon fill="#191970" stroke="#191970" points="865.6632,-244.3571 855.1011,-243.5249 862.8389,-250.7621 865.6632,-244.3571"/>
</g>
<!-- Node36&#45;&gt;Node28 -->
<g id="edge71" class="edge">
<title>Node36&#45;&gt;Node28</title>
<path fill="none" stroke="#191970" d="M1089.5953,-336.4862C1095.4695,-309.8144 1112.1861,-233.9117 1120.1624,-197.695"/>
<polygon fill="#191970" stroke="#191970" points="1123.6027,-198.3467 1122.3355,-187.8279 1116.7665,-196.841 1123.6027,-198.3467"/>
</g>
<!-- Node36&#45;&gt;Node31 -->
<g id="edge72" class="edge">
<title>Node36&#45;&gt;Node31</title>
<path fill="none" stroke="#191970" d="M1145.5047,-336.442C1232.4556,-320.4488 1386.5,-284.9281 1386.5,-234 1386.5,-234 1386.5,-234 1386.5,-178 1386.5,-128.6478 1331.9985,-96.1337 1293.8468,-79.4194"/>
<polygon fill="#191970" stroke="#191970" points="1295.1177,-76.157 1284.5426,-75.5097 1292.4059,-82.6104 1295.1177,-76.157"/>
</g>
<!-- Node37&#45;&gt;Node24 -->
<g id="edge75" class="edge">
<title>Node37&#45;&gt;Node24</title>
<path fill="none" stroke="#191970" d="M962.7462,-392.2538C967.8365,-352.4141 976.7425,-243.0915 934.5,-168 927.2179,-155.0551 914.6507,-144.5665 902.8934,-136.8919"/>
<polygon fill="#191970" stroke="#191970" points="904.5233,-133.7867 894.1613,-131.5776 900.884,-139.7663 904.5233,-133.7867"/>
</g>
<!-- Node37&#45;&gt;Node28 -->
<g id="edge76" class="edge">
<title>Node37&#45;&gt;Node28</title>
<path fill="none" stroke="#191970" d="M967.5844,-392.2514C974.6938,-377.452 986.3122,-354.5681 998.5,-336 1034.0927,-281.7746 1083.9899,-223.4677 1108.9686,-195.2543"/>
<polygon fill="#191970" stroke="#191970" points="1111.8368,-197.2966 1115.8772,-187.5024 1106.6109,-192.6393 1111.8368,-197.2966"/>
</g>
<!-- Node37&#45;&gt;Node36 -->
<g id="edge77" class="edge">
<title>Node37&#45;&gt;Node36</title>
<path fill="none" stroke="#191970" d="M991.5677,-392.4554C1012.0145,-382.554 1038.5937,-369.683 1058.5885,-360.0004"/>
<polygon fill="#191970" stroke="#191970" points="1060.3447,-363.0388 1067.8195,-355.5303 1057.2938,-356.7387 1060.3447,-363.0388"/>
</g>
</g>
</svg>
