<?xml version="1.0" encoding="UTF-8" standalone="no"?>
<!DOCTYPE svg PUBLIC "-//W3C//DTD SVG 1.1//EN"
 "http://www.w3.org/Graphics/SVG/1.1/DTD/svg11.dtd">
<!-- Generated by graphviz version 2.40.1 (20161225.0304)
 -->
<!-- Title: QuadraticCost.h Pages: 1 -->
<svg width="1261pt" height="532pt"
 viewBox="0.00 0.00 1261.00 532.00" xmlns="http://www.w3.org/2000/svg" xmlns:xlink="http://www.w3.org/1999/xlink">
<g id="graph0" class="graph" transform="scale(1 1) rotate(0) translate(4 528)">
<title>QuadraticCost.h</title>
<!-- Node0 -->
<g id="node1" class="node">
<title>Node0</title>
<polygon fill="#bfbfbf" stroke="#000000" points="388.5,-504.5 388.5,-523.5 483.5,-523.5 483.5,-504.5 388.5,-504.5"/>
<text text-anchor="middle" x="436" y="-511.5" font-family="FreeSans.ttf" font-size="10.00" fill="#000000">QuadraticCost.h</text>
</g>
<!-- Node1 -->
<g id="node2" class="node">
<title>Node1</title>
<g id="a_node2"><a xlink:href="QuadraticLikeCost_8h.html" target="_top" xlink:title="iDynTree/QuadraticLikeCost.h">
<polygon fill="none" stroke="#000000" points="355.5,-448.5 355.5,-467.5 516.5,-467.5 516.5,-448.5 355.5,-448.5"/>
<text text-anchor="middle" x="436" y="-455.5" font-family="FreeSans.ttf" font-size="10.00" fill="#000000">iDynTree/QuadraticLikeCost.h</text>
</a>
</g>
</g>
<!-- Node0&#45;&gt;Node1 -->
<g id="edge1" class="edge">
<title>Node0&#45;&gt;Node1</title>
<path fill="none" stroke="#191970" d="M436,-504.2455C436,-496.9382 436,-486.6944 436,-477.7046"/>
<polygon fill="#191970" stroke="#191970" points="439.5001,-477.6426 436,-467.6427 432.5001,-477.6427 439.5001,-477.6426"/>
</g>
<!-- Node9 -->
<g id="node10" class="node">
<title>Node9</title>
<g id="a_node10"><a xlink:href="TimeVaryingObject_8h.html" target="_top" xlink:title="iDynTree/TimeVaryingObject.h">
<polygon fill="none" stroke="#000000" points="423,-392.5 423,-411.5 587,-411.5 587,-392.5 423,-392.5"/>
<text text-anchor="middle" x="505" y="-399.5" font-family="FreeSans.ttf" font-size="10.00" fill="#000000">iDynTree/TimeVaryingObject.h</text>
</a>
</g>
</g>
<!-- Node0&#45;&gt;Node9 -->
<g id="edge56" class="edge">
<title>Node0&#45;&gt;Node9</title>
<path fill="none" stroke="#191970" d="M474.977,-504.3933C493.8619,-497.5635 514.8258,-486.2604 526,-468 535.0771,-453.1667 527.1958,-434.0288 518.6201,-420.1842"/>
<polygon fill="#191970" stroke="#191970" points="521.2822,-417.8739 512.772,-411.5631 515.4893,-421.8035 521.2822,-417.8739"/>
</g>
<!-- Node10 -->
<g id="node11" class="node">
<title>Node10</title>
<g id="a_node11"><a xlink:href="VectorDynSize_8h.html" target="_top" xlink:title="iDynTree/Core/VectorDynSize.h">
<polygon fill="none" stroke="#000000" points="940.5,-280.5 940.5,-299.5 1107.5,-299.5 1107.5,-280.5 940.5,-280.5"/>
<text text-anchor="middle" x="1024" y="-287.5" font-family="FreeSans.ttf" font-size="10.00" fill="#000000">iDynTree/Core/VectorDynSize.h</text>
</a>
</g>
</g>
<!-- Node0&#45;&gt;Node10 -->
<g id="edge57" class="edge">
<title>Node0&#45;&gt;Node10</title>
<path fill="none" stroke="#191970" d="M461.2656,-504.375C554.8444,-468.7259 881.8455,-344.1541 989.4099,-303.1772"/>
<polygon fill="#191970" stroke="#191970" points="990.7296,-306.4199 998.8285,-299.5891 988.2376,-299.8784 990.7296,-306.4199"/>
</g>
<!-- Node20 -->
<g id="node21" class="node">
<title>Node20</title>
<g id="a_node21"><a xlink:href="MatrixDynSize_8h.html" target="_top" xlink:title="iDynTree/Core/MatrixDynSize.h">
<polygon fill="none" stroke="#000000" points="205.5,-336.5 205.5,-355.5 372.5,-355.5 372.5,-336.5 205.5,-336.5"/>
<text text-anchor="middle" x="289" y="-343.5" font-family="FreeSans.ttf" font-size="10.00" fill="#000000">iDynTree/Core/MatrixDynSize.h</text>
</a>
</g>
</g>
<!-- Node0&#45;&gt;Node20 -->
<g id="edge58" class="edge">
<title>Node0&#45;&gt;Node20</title>
<path fill="none" stroke="#191970" d="M400.3419,-504.4474C379.7877,-497.3465 354.7782,-485.7619 338,-468 310.2966,-438.6725 297.4897,-391.6856 292.2154,-365.4046"/>
<polygon fill="#191970" stroke="#191970" points="295.6485,-364.7214 290.3947,-355.5209 288.7643,-365.9896 295.6485,-364.7214"/>
</g>
<!-- Node32 -->
<g id="node33" class="node">
<title>Node32</title>
<polygon fill="none" stroke="#bfbfbf" points="337,-392.5 337,-411.5 395,-411.5 395,-392.5 337,-392.5"/>
<text text-anchor="middle" x="366" y="-399.5" font-family="FreeSans.ttf" font-size="10.00" fill="#000000">memory</text>
</g>
<!-- Node0&#45;&gt;Node32 -->
<g id="edge59" class="edge">
<title>Node0&#45;&gt;Node32</title>
<path fill="none" stroke="#191970" d="M397.023,-504.3933C378.1381,-497.5635 357.1742,-486.2604 346,-468 336.9618,-453.2302 344.5189,-434.0841 352.8052,-420.2202"/>
<polygon fill="#191970" stroke="#191970" points="355.9102,-421.8675 358.4633,-411.5848 350.0551,-418.031 355.9102,-421.8675"/>
</g>
<!-- Node2 -->
<g id="node3" class="node">
<title>Node2</title>
<g id="a_node3"><a xlink:href="Cost_8h.html" target="_top" xlink:title="iDynTree/Cost.h">
<polygon fill="none" stroke="#000000" points="107.5,-168.5 107.5,-187.5 200.5,-187.5 200.5,-168.5 107.5,-168.5"/>
<text text-anchor="middle" x="154" y="-175.5" font-family="FreeSans.ttf" font-size="10.00" fill="#000000">iDynTree/Cost.h</text>
</a>
</g>
</g>
<!-- Node1&#45;&gt;Node2 -->
<g id="edge2" class="edge">
<title>Node1&#45;&gt;Node2</title>
<path fill="none" stroke="#191970" d="M390.4891,-448.4339C315.2151,-431.2876 173,-392.712 173,-346 173,-346 173,-346 173,-290 173,-257.2688 165.0148,-219.9052 159.3978,-197.6716"/>
<polygon fill="#191970" stroke="#191970" points="162.7289,-196.5763 156.8035,-187.7934 155.9585,-198.3545 162.7289,-196.5763"/>
</g>
<!-- Node1&#45;&gt;Node9 -->
<g id="edge11" class="edge">
<title>Node1&#45;&gt;Node9</title>
<path fill="none" stroke="#191970" d="M448.0189,-448.2455C458.2098,-439.9746 473.0362,-427.9416 485.0107,-418.2232"/>
<polygon fill="#191970" stroke="#191970" points="487.5598,-420.662 493.1188,-411.6427 483.1486,-415.2268 487.5598,-420.662"/>
</g>
<!-- Node1&#45;&gt;Node32 -->
<g id="edge55" class="edge">
<title>Node1&#45;&gt;Node32</title>
<path fill="none" stroke="#191970" d="M423.8069,-448.2455C413.3679,-439.8943 398.1345,-427.7076 385.926,-417.9408"/>
<polygon fill="#191970" stroke="#191970" points="388.0485,-415.1566 378.0533,-411.6427 383.6756,-420.6227 388.0485,-415.1566"/>
</g>
<!-- Node3 -->
<g id="node4" class="node">
<title>Node3</title>
<polygon fill="none" stroke="#bfbfbf" points="389,-56.5 389,-75.5 433,-75.5 433,-56.5 389,-56.5"/>
<text text-anchor="middle" x="411" y="-63.5" font-family="FreeSans.ttf" font-size="10.00" fill="#000000">string</text>
</g>
<!-- Node2&#45;&gt;Node3 -->
<g id="edge3" class="edge">
<title>Node2&#45;&gt;Node3</title>
<path fill="none" stroke="#191970" d="M160.194,-168.2279C169.9843,-153.6244 190.4649,-126.2977 215,-112 267.1166,-81.6293 338.0395,-71.3015 378.728,-67.7955"/>
<polygon fill="#191970" stroke="#191970" points="379.1768,-71.2713 388.8767,-67.0096 378.6363,-64.2922 379.1768,-71.2713"/>
</g>
<!-- Node4 -->
<g id="node5" class="node">
<title>Node4</title>
<g id="a_node5"><a xlink:href="SparsityStructure_8h.html" target="_top" xlink:title="iDynTree/SparsityStructure.h">
<polygon fill="none" stroke="#000000" points="7.5,-112.5 7.5,-131.5 162.5,-131.5 162.5,-112.5 7.5,-112.5"/>
<text text-anchor="middle" x="85" y="-119.5" font-family="FreeSans.ttf" font-size="10.00" fill="#000000">iDynTree/SparsityStructure.h</text>
</a>
</g>
</g>
<!-- Node2&#45;&gt;Node4 -->
<g id="edge4" class="edge">
<title>Node2&#45;&gt;Node4</title>
<path fill="none" stroke="#191970" d="M141.9811,-168.2455C131.7902,-159.9746 116.9638,-147.9416 104.9893,-138.2232"/>
<polygon fill="#191970" stroke="#191970" points="106.8514,-135.2268 96.8812,-131.6427 102.4402,-140.662 106.8514,-135.2268"/>
</g>
<!-- Node4&#45;&gt;Node3 -->
<g id="edge10" class="edge">
<title>Node4&#45;&gt;Node3</title>
<path fill="none" stroke="#191970" d="M140.671,-112.4369C209.1793,-100.6686 323.2228,-81.0783 378.7048,-71.5476"/>
<polygon fill="#191970" stroke="#191970" points="379.4114,-74.9776 388.6744,-69.8351 378.2262,-68.0787 379.4114,-74.9776"/>
</g>
<!-- Node5 -->
<g id="node6" class="node">
<title>Node5</title>
<g id="a_node6"><a xlink:href="Utils_8h.html" target="_top" xlink:title="iDynTree/Core/Utils.h">
<polygon fill="none" stroke="#000000" points="476.5,-56.5 476.5,-75.5 595.5,-75.5 595.5,-56.5 476.5,-56.5"/>
<text text-anchor="middle" x="536" y="-63.5" font-family="FreeSans.ttf" font-size="10.00" fill="#000000">iDynTree/Core/Utils.h</text>
</a>
</g>
</g>
<!-- Node4&#45;&gt;Node5 -->
<g id="edge5" class="edge">
<title>Node4&#45;&gt;Node5</title>
<path fill="none" stroke="#191970" d="M161.7615,-112.4686C247.0897,-101.8736 383.7066,-84.9101 466.1419,-74.6742"/>
<polygon fill="#191970" stroke="#191970" points="466.6739,-78.1351 476.1664,-73.4294 465.8113,-71.1884 466.6739,-78.1351"/>
</g>
<!-- Node6 -->
<g id="node7" class="node">
<title>Node6</title>
<polygon fill="none" stroke="#bfbfbf" points="509.5,-.5 509.5,-19.5 562.5,-19.5 562.5,-.5 509.5,-.5"/>
<text text-anchor="middle" x="536" y="-7.5" font-family="FreeSans.ttf" font-size="10.00" fill="#000000">cstddef</text>
</g>
<!-- Node4&#45;&gt;Node6 -->
<g id="edge8" class="edge">
<title>Node4&#45;&gt;Node6</title>
<path fill="none" stroke="#191970" d="M123.452,-112.4509C209.3367,-91.1226 415.7819,-39.8546 499.6549,-19.0258"/>
<polygon fill="#191970" stroke="#191970" points="500.6308,-22.3899 509.4924,-16.5828 498.9436,-15.5962 500.6308,-22.3899"/>
</g>
<!-- Node7 -->
<g id="node8" class="node">
<title>Node7</title>
<polygon fill="none" stroke="#bfbfbf" points="104.5,-56.5 104.5,-75.5 151.5,-75.5 151.5,-56.5 104.5,-56.5"/>
<text text-anchor="middle" x="128" y="-63.5" font-family="FreeSans.ttf" font-size="10.00" fill="#000000">vector</text>
</g>
<!-- Node4&#45;&gt;Node7 -->
<g id="edge7" class="edge">
<title>Node4&#45;&gt;Node7</title>
<path fill="none" stroke="#191970" d="M92.49,-112.2455C98.5326,-104.3761 107.1903,-93.101 114.4441,-83.6542"/>
<polygon fill="#191970" stroke="#191970" points="117.2815,-85.7058 120.5958,-75.6427 111.7295,-81.4426 117.2815,-85.7058"/>
</g>
<!-- Node8 -->
<g id="node9" class="node">
<title>Node8</title>
<polygon fill="none" stroke="#bfbfbf" points="0,-56.5 0,-75.5 86,-75.5 86,-56.5 0,-56.5"/>
<text text-anchor="middle" x="43" y="-63.5" font-family="FreeSans.ttf" font-size="10.00" fill="#000000">unordered_set</text>
</g>
<!-- Node4&#45;&gt;Node8 -->
<g id="edge9" class="edge">
<title>Node4&#45;&gt;Node8</title>
<path fill="none" stroke="#191970" d="M77.6842,-112.2455C71.7821,-104.3761 63.3258,-93.101 56.2406,-83.6542"/>
<polygon fill="#191970" stroke="#191970" points="59.0321,-81.5427 50.232,-75.6427 53.432,-85.7427 59.0321,-81.5427"/>
</g>
<!-- Node5&#45;&gt;Node6 -->
<g id="edge6" class="edge">
<title>Node5&#45;&gt;Node6</title>
<path fill="none" stroke="#191970" d="M536,-56.2455C536,-48.9382 536,-38.6944 536,-29.7046"/>
<polygon fill="#191970" stroke="#191970" points="539.5001,-29.6426 536,-19.6427 532.5001,-29.6427 539.5001,-29.6426"/>
</g>
<!-- Node9&#45;&gt;Node10 -->
<g id="edge12" class="edge">
<title>Node9&#45;&gt;Node10</title>
<path fill="none" stroke="#191970" d="M549.2496,-392.4509C644.1434,-371.9729 866.9333,-323.8949 969.976,-301.6584"/>
<polygon fill="#191970" stroke="#191970" points="970.8257,-305.0556 979.8624,-299.5249 969.349,-298.2132 970.8257,-305.0556"/>
</g>
<!-- Node9&#45;&gt;Node20 -->
<g id="edge24" class="edge">
<title>Node9&#45;&gt;Node20</title>
<path fill="none" stroke="#191970" d="M467.8683,-392.3733C431.1733,-382.8598 374.9361,-368.2797 335.3349,-358.0127"/>
<polygon fill="#191970" stroke="#191970" points="336.2056,-354.6228 325.6472,-355.5011 334.4488,-361.3988 336.2056,-354.6228"/>
</g>
<!-- Node21 -->
<g id="node22" class="node">
<title>Node21</title>
<g id="a_node22"><a xlink:href="Transform_8h.html" target="_top" xlink:title="iDynTree/Core/Transform.h">
<polygon fill="none" stroke="#000000" points="432,-336.5 432,-355.5 578,-355.5 578,-336.5 432,-336.5"/>
<text text-anchor="middle" x="505" y="-343.5" font-family="FreeSans.ttf" font-size="10.00" fill="#000000">iDynTree/Core/Transform.h</text>
</a>
</g>
</g>
<!-- Node9&#45;&gt;Node21 -->
<g id="edge26" class="edge">
<title>Node9&#45;&gt;Node21</title>
<path fill="none" stroke="#191970" d="M505,-392.2455C505,-384.9382 505,-374.6944 505,-365.7046"/>
<polygon fill="#191970" stroke="#191970" points="508.5001,-365.6426 505,-355.6427 501.5001,-365.6427 508.5001,-365.6426"/>
</g>
<!-- Node10&#45;&gt;Node3 -->
<g id="edge23" class="edge">
<title>Node10&#45;&gt;Node3</title>
<path fill="none" stroke="#191970" d="M1019.9833,-280.2445C1009.5517,-256.3041 979.0912,-194.6656 932,-168 800.1564,-93.3428 740.1797,-167.9803 593,-132 569.3492,-126.2182 564.8231,-120.4791 542,-112 508.3398,-99.4948 469.4949,-85.9669 442.8974,-76.8411"/>
<polygon fill="#191970" stroke="#191970" points="443.9342,-73.4967 433.3397,-73.5704 441.6678,-80.1196 443.9342,-73.4967"/>
</g>
<!-- Node11 -->
<g id="node12" class="node">
<title>Node11</title>
<g id="a_node12"><a xlink:href="Span_8h.html" target="_top" xlink:title="iDynTree/Core/Span.h">
<polygon fill="none" stroke="#000000" points="910.5,-56.5 910.5,-75.5 1031.5,-75.5 1031.5,-56.5 910.5,-56.5"/>
<text text-anchor="middle" x="971" y="-63.5" font-family="FreeSans.ttf" font-size="10.00" fill="#000000">iDynTree/Core/Span.h</text>
</a>
</g>
</g>
<!-- Node10&#45;&gt;Node11 -->
<g id="edge13" class="edge">
<title>Node10&#45;&gt;Node11</title>
<path fill="none" stroke="#191970" d="M1022.7947,-280.4201C1020.0939,-259.7234 1013.0008,-209.3624 1003,-168 995.9384,-138.7936 985.0097,-105.7324 977.9297,-85.3739"/>
<polygon fill="#191970" stroke="#191970" points="981.1542,-83.993 974.5301,-75.7242 974.5519,-86.319 981.1542,-83.993"/>
</g>
<!-- Node11&#45;&gt;Node6 -->
<g id="edge17" class="edge">
<title>Node11&#45;&gt;Node6</title>
<path fill="none" stroke="#191970" d="M910.0571,-58.1545C818.46,-46.3627 648.0576,-24.4258 573.0585,-14.7707"/>
<polygon fill="#191970" stroke="#191970" points="573.0711,-11.2436 562.706,-13.438 572.1773,-18.1863 573.0711,-11.2436"/>
</g>
<!-- Node12 -->
<g id="node13" class="node">
<title>Node12</title>
<polygon fill="none" stroke="#bfbfbf" points="691,-.5 691,-19.5 743,-19.5 743,-.5 691,-.5"/>
<text text-anchor="middle" x="717" y="-7.5" font-family="FreeSans.ttf" font-size="10.00" fill="#000000">cassert</text>
</g>
<!-- Node11&#45;&gt;Node12 -->
<g id="edge14" class="edge">
<title>Node11&#45;&gt;Node12</title>
<path fill="none" stroke="#191970" d="M921.4484,-56.4691C877.1318,-47.7255 810.4928,-34.0361 753,-20 752.9015,-19.976 752.8029,-19.9518 752.7042,-19.9277"/>
<polygon fill="#191970" stroke="#191970" points="753.8524,-16.609 743.296,-17.5103 752.1104,-23.3888 753.8524,-16.609"/>
</g>
<!-- Node13 -->
<g id="node14" class="node">
<title>Node13</title>
<polygon fill="none" stroke="#bfbfbf" points="1129,-.5 1129,-19.5 1193,-19.5 1193,-.5 1129,-.5"/>
<text text-anchor="middle" x="1161" y="-7.5" font-family="FreeSans.ttf" font-size="10.00" fill="#000000">algorithm</text>
</g>
<!-- Node11&#45;&gt;Node13 -->
<g id="edge15" class="edge">
<title>Node11&#45;&gt;Node13</title>
<path fill="none" stroke="#191970" d="M1003.6622,-56.3733C1035.5298,-46.9807 1084.1531,-32.6496 1118.907,-22.4064"/>
<polygon fill="#191970" stroke="#191970" points="1120.1615,-25.6855 1128.764,-19.5011 1118.1825,-18.9711 1120.1615,-25.6855"/>
</g>
<!-- Node14 -->
<g id="node15" class="node">
<title>Node14</title>
<polygon fill="none" stroke="#bfbfbf" points="1211,-.5 1211,-19.5 1253,-19.5 1253,-.5 1211,-.5"/>
<text text-anchor="middle" x="1232" y="-7.5" font-family="FreeSans.ttf" font-size="10.00" fill="#000000">array</text>
</g>
<!-- Node11&#45;&gt;Node14 -->
<g id="edge16" class="edge">
<title>Node11&#45;&gt;Node14</title>
<path fill="none" stroke="#191970" d="M1029.3715,-56.4614C1074.0603,-48.6844 1137.3498,-36.651 1200.9924,-20.0298"/>
<polygon fill="#191970" stroke="#191970" points="1202.0234,-23.3775 1210.794,-17.4338 1200.2312,-16.6108 1202.0234,-23.3775"/>
</g>
<!-- Node15 -->
<g id="node16" class="node">
<title>Node15</title>
<polygon fill="none" stroke="#bfbfbf" points="761.5,-.5 761.5,-19.5 814.5,-19.5 814.5,-.5 761.5,-.5"/>
<text text-anchor="middle" x="788" y="-7.5" font-family="FreeSans.ttf" font-size="10.00" fill="#000000">iterator</text>
</g>
<!-- Node11&#45;&gt;Node15 -->
<g id="edge18" class="edge">
<title>Node11&#45;&gt;Node15</title>
<path fill="none" stroke="#191970" d="M939.5412,-56.3733C907.5902,-46.5959 858.1514,-31.4671 824.4975,-21.1686"/>
<polygon fill="#191970" stroke="#191970" points="825.1833,-17.7183 814.5968,-18.1389 823.1349,-24.4119 825.1833,-17.7183"/>
</g>
<!-- Node16 -->
<g id="node17" class="node">
<title>Node16</title>
<polygon fill="none" stroke="#bfbfbf" points="833,-.5 833,-19.5 877,-19.5 877,-.5 833,-.5"/>
<text text-anchor="middle" x="855" y="-7.5" font-family="FreeSans.ttf" font-size="10.00" fill="#000000">limits</text>
</g>
<!-- Node11&#45;&gt;Node16 -->
<g id="edge19" class="edge">
<title>Node11&#45;&gt;Node16</title>
<path fill="none" stroke="#191970" d="M951.0589,-56.3733C932.5214,-47.4241 904.6972,-33.9917 883.7587,-23.8835"/>
<polygon fill="#191970" stroke="#191970" points="885.2081,-20.6967 874.6809,-19.5011 882.1648,-27.0006 885.2081,-20.6967"/>
</g>
<!-- Node17 -->
<g id="node18" class="node">
<title>Node17</title>
<polygon fill="none" stroke="#bfbfbf" points="895.5,-.5 895.5,-19.5 960.5,-19.5 960.5,-.5 895.5,-.5"/>
<text text-anchor="middle" x="928" y="-7.5" font-family="FreeSans.ttf" font-size="10.00" fill="#000000">stdexcept</text>
</g>
<!-- Node11&#45;&gt;Node17 -->
<g id="edge20" class="edge">
<title>Node11&#45;&gt;Node17</title>
<path fill="none" stroke="#191970" d="M963.51,-56.2455C957.4674,-48.3761 948.8097,-37.101 941.5559,-27.6542"/>
<polygon fill="#191970" stroke="#191970" points="944.2705,-25.4426 935.4042,-19.6427 938.7185,-29.7058 944.2705,-25.4426"/>
</g>
<!-- Node18 -->
<g id="node19" class="node">
<title>Node18</title>
<polygon fill="none" stroke="#bfbfbf" points="978.5,-.5 978.5,-19.5 1047.5,-19.5 1047.5,-.5 978.5,-.5"/>
<text text-anchor="middle" x="1013" y="-7.5" font-family="FreeSans.ttf" font-size="10.00" fill="#000000">type_traits</text>
</g>
<!-- Node11&#45;&gt;Node18 -->
<g id="edge21" class="edge">
<title>Node11&#45;&gt;Node18</title>
<path fill="none" stroke="#191970" d="M978.3158,-56.2455C984.2179,-48.3761 992.6742,-37.101 999.7594,-27.6542"/>
<polygon fill="#191970" stroke="#191970" points="1002.568,-29.7427 1005.768,-19.6427 996.9679,-25.5427 1002.568,-29.7427"/>
</g>
<!-- Node19 -->
<g id="node20" class="node">
<title>Node19</title>
<polygon fill="none" stroke="#bfbfbf" points="1065.5,-.5 1065.5,-19.5 1110.5,-19.5 1110.5,-.5 1065.5,-.5"/>
<text text-anchor="middle" x="1088" y="-7.5" font-family="FreeSans.ttf" font-size="10.00" fill="#000000">utility</text>
</g>
<!-- Node11&#45;&gt;Node19 -->
<g id="edge22" class="edge">
<title>Node11&#45;&gt;Node19</title>
<path fill="none" stroke="#191970" d="M991.113,-56.3733C1009.8103,-47.4241 1037.8744,-33.9917 1058.9934,-23.8835"/>
<polygon fill="#191970" stroke="#191970" points="1060.6405,-26.9755 1068.1494,-19.5011 1057.6183,-20.6614 1060.6405,-26.9755"/>
</g>
<!-- Node20&#45;&gt;Node3 -->
<g id="edge25" class="edge">
<title>Node20&#45;&gt;Node3</title>
<path fill="none" stroke="#191970" d="M279.625,-336.4412C262.75,-318.1765 229,-276.353 229,-234 229,-234 229,-234 229,-178 229,-108.5809 326.226,-80.8067 378.5539,-70.8855"/>
<polygon fill="#191970" stroke="#191970" points="379.4519,-74.2807 388.6832,-69.0814 378.2244,-67.3892 379.4519,-74.2807"/>
</g>
<!-- Node21&#45;&gt;Node3 -->
<g id="edge54" class="edge">
<title>Node21&#45;&gt;Node3</title>
<path fill="none" stroke="#191970" d="M466.7612,-336.4399C399.4841,-318.4917 267,-277.611 267,-234 267,-234 267,-234 267,-178 267,-121.5572 336.7848,-89.422 379.1938,-75.1043"/>
<polygon fill="#191970" stroke="#191970" points="380.3727,-78.4017 388.8156,-72.001 378.224,-71.7396 380.3727,-78.4017"/>
</g>
<!-- Node22 -->
<g id="node23" class="node">
<title>Node22</title>
<g id="a_node23"><a xlink:href="Position_8h.html" target="_top" xlink:title="iDynTree/Core/Position.h">
<polygon fill="none" stroke="#000000" points="414,-280.5 414,-299.5 550,-299.5 550,-280.5 414,-280.5"/>
<text text-anchor="middle" x="482" y="-287.5" font-family="FreeSans.ttf" font-size="10.00" fill="#000000">iDynTree/Core/Position.h</text>
</a>
</g>
</g>
<!-- Node21&#45;&gt;Node22 -->
<g id="edge27" class="edge">
<title>Node21&#45;&gt;Node22</title>
<path fill="none" stroke="#191970" d="M500.9937,-336.2455C497.9265,-328.7776 493.5997,-318.2427 489.8503,-309.1137"/>
<polygon fill="#191970" stroke="#191970" points="492.9972,-307.5631 485.9604,-299.6427 486.5221,-310.2226 492.9972,-307.5631"/>
</g>
<!-- Node27 -->
<g id="node28" class="node">
<title>Node27</title>
<g id="a_node28"><a xlink:href="Rotation_8h.html" target="_top" xlink:title="iDynTree/Core/Rotation.h">
<polygon fill="none" stroke="#000000" points="544.5,-224.5 544.5,-243.5 681.5,-243.5 681.5,-224.5 544.5,-224.5"/>
<text text-anchor="middle" x="613" y="-231.5" font-family="FreeSans.ttf" font-size="10.00" fill="#000000">iDynTree/Core/Rotation.h</text>
</a>
</g>
</g>
<!-- Node21&#45;&gt;Node27 -->
<g id="edge52" class="edge">
<title>Node21&#45;&gt;Node27</title>
<path fill="none" stroke="#191970" d="M517.5633,-336.3614C528.8784,-327.4385 545.7229,-313.5431 559,-300 573.9634,-284.7368 589.2242,-265.6977 599.6877,-251.9962"/>
<polygon fill="#191970" stroke="#191970" points="602.5981,-253.9496 605.8197,-243.8565 597.0071,-249.7377 602.5981,-253.9496"/>
</g>
<!-- Node30 -->
<g id="node31" class="node">
<title>Node30</title>
<g id="a_node31"><a xlink:href="MatrixFixSize_8h.html" target="_top" xlink:title="iDynTree/Core/MatrixFixSize.h">
<polygon fill="none" stroke="#000000" points="601.5,-112.5 601.5,-131.5 762.5,-131.5 762.5,-112.5 601.5,-112.5"/>
<text text-anchor="middle" x="682" y="-119.5" font-family="FreeSans.ttf" font-size="10.00" fill="#000000">iDynTree/Core/MatrixFixSize.h</text>
</a>
</g>
</g>
<!-- Node21&#45;&gt;Node30 -->
<g id="edge53" class="edge">
<title>Node21&#45;&gt;Node30</title>
<path fill="none" stroke="#191970" d="M548.631,-336.4525C648.0813,-313.715 886.4963,-253.3564 932,-188 937.079,-180.7051 937.6883,-174.8305 932,-168 921.5237,-155.4202 839.202,-141.9693 771.8406,-132.8834"/>
<polygon fill="#191970" stroke="#191970" points="771.9712,-129.3699 761.5967,-131.5193 771.0472,-136.3087 771.9712,-129.3699"/>
</g>
<!-- Node22&#45;&gt;Node3 -->
<g id="edge51" class="edge">
<title>Node22&#45;&gt;Node3</title>
<path fill="none" stroke="#191970" d="M451.4644,-280.429C413.6757,-266.7458 351.0191,-237.603 324,-188 301.7059,-147.0715 353.2251,-103.6781 386.163,-81.315"/>
<polygon fill="#191970" stroke="#191970" points="388.4485,-84.0012 394.8837,-75.5846 384.6044,-78.1512 388.4485,-84.0012"/>
</g>
<!-- Node23 -->
<g id="node24" class="node">
<title>Node23</title>
<g id="a_node24"><a xlink:href="PositionRaw_8h.html" target="_top" xlink:title="iDynTree/Core/PositionRaw.h">
<polygon fill="none" stroke="#000000" points="333,-168.5 333,-187.5 489,-187.5 489,-168.5 333,-168.5"/>
<text text-anchor="middle" x="411" y="-175.5" font-family="FreeSans.ttf" font-size="10.00" fill="#000000">iDynTree/Core/PositionRaw.h</text>
</a>
</g>
</g>
<!-- Node22&#45;&gt;Node23 -->
<g id="edge28" class="edge">
<title>Node22&#45;&gt;Node23</title>
<path fill="none" stroke="#191970" d="M475.9466,-280.4509C464.1046,-261.7707 437.7035,-220.1238 422.459,-196.0761"/>
<polygon fill="#191970" stroke="#191970" points="425.3483,-194.0969 417.0381,-187.5249 419.4362,-197.8448 425.3483,-194.0969"/>
</g>
<!-- Node22&#45;&gt;Node27 -->
<g id="edge37" class="edge">
<title>Node22&#45;&gt;Node27</title>
<path fill="none" stroke="#191970" d="M504.5197,-280.3733C525.7372,-271.3032 557.7276,-257.6279 581.4769,-247.4755"/>
<polygon fill="#191970" stroke="#191970" points="582.9548,-250.6502 590.7742,-243.5011 580.2033,-244.2136 582.9548,-250.6502"/>
</g>
<!-- Node23&#45;&gt;Node3 -->
<g id="edge36" class="edge">
<title>Node23&#45;&gt;Node3</title>
<path fill="none" stroke="#191970" d="M411,-168.4509C411,-150.184 411,-109.9553 411,-85.6976"/>
<polygon fill="#191970" stroke="#191970" points="414.5001,-85.5249 411,-75.5249 407.5001,-85.5249 414.5001,-85.5249"/>
</g>
<!-- Node24 -->
<g id="node25" class="node">
<title>Node24</title>
<g id="a_node25"><a xlink:href="VectorFixSize_8h.html" target="_top" xlink:title="iDynTree/Core/VectorFixSize.h">
<polygon fill="none" stroke="#000000" points="780.5,-112.5 780.5,-131.5 941.5,-131.5 941.5,-112.5 780.5,-112.5"/>
<text text-anchor="middle" x="861" y="-119.5" font-family="FreeSans.ttf" font-size="10.00" fill="#000000">iDynTree/Core/VectorFixSize.h</text>
</a>
</g>
</g>
<!-- Node23&#45;&gt;Node24 -->
<g id="edge29" class="edge">
<title>Node23&#45;&gt;Node24</title>
<path fill="none" stroke="#191970" d="M487.5913,-168.4686C567.0704,-158.5779 691.1466,-143.1373 774.207,-132.8009"/>
<polygon fill="#191970" stroke="#191970" points="774.8886,-136.2432 784.3799,-131.535 774.0241,-129.2967 774.8886,-136.2432"/>
</g>
<!-- Node24&#45;&gt;Node3 -->
<g id="edge32" class="edge">
<title>Node24&#45;&gt;Node3</title>
<path fill="none" stroke="#191970" d="M780.2082,-112.8325C673.9555,-100.7349 497.1475,-80.4475 467,-76 459.1876,-74.8475 450.7922,-73.4393 442.9401,-72.0477"/>
<polygon fill="#191970" stroke="#191970" points="443.4894,-68.5903 433.0255,-70.2506 442.2409,-75.4781 443.4894,-68.5903"/>
</g>
<!-- Node24&#45;&gt;Node5 -->
<g id="edge30" class="edge">
<title>Node24&#45;&gt;Node5</title>
<path fill="none" stroke="#191970" d="M805.4998,-112.4369C748.9437,-102.6918 661.2596,-87.5832 601.3741,-77.2645"/>
<polygon fill="#191970" stroke="#191970" points="601.7204,-73.7726 591.2713,-75.5237 600.5317,-80.671 601.7204,-73.7726"/>
</g>
<!-- Node24&#45;&gt;Node11 -->
<g id="edge31" class="edge">
<title>Node24&#45;&gt;Node11</title>
<path fill="none" stroke="#191970" d="M880.1605,-112.2455C897.5111,-103.4125 923.2901,-90.2887 942.9583,-80.2758"/>
<polygon fill="#191970" stroke="#191970" points="944.7353,-83.2986 952.059,-75.6427 941.5595,-77.0605 944.7353,-83.2986"/>
</g>
<!-- Node24&#45;&gt;Node12 -->
<g id="edge34" class="edge">
<title>Node24&#45;&gt;Node12</title>
<path fill="none" stroke="#191970" d="M864.6507,-112.4026C869.2568,-98.509 875.2031,-72.6393 863,-56 859.6262,-51.3997 795.077,-32.2709 752.9473,-20.176"/>
<polygon fill="#191970" stroke="#191970" points="753.8671,-16.7988 743.2902,-17.4139 751.9421,-23.529 753.8671,-16.7988"/>
</g>
<!-- Node25 -->
<g id="node26" class="node">
<title>Node25</title>
<polygon fill="none" stroke="#bfbfbf" points="798,-56.5 798,-75.5 854,-75.5 854,-56.5 798,-56.5"/>
<text text-anchor="middle" x="826" y="-63.5" font-family="FreeSans.ttf" font-size="10.00" fill="#000000">sstream</text>
</g>
<!-- Node24&#45;&gt;Node25 -->
<g id="edge33" class="edge">
<title>Node24&#45;&gt;Node25</title>
<path fill="none" stroke="#191970" d="M854.9035,-112.2455C850.0855,-104.5367 843.2249,-93.5598 837.3968,-84.2348"/>
<polygon fill="#191970" stroke="#191970" points="840.2947,-82.2677 832.0267,-75.6427 834.3587,-85.9777 840.2947,-82.2677"/>
</g>
<!-- Node26 -->
<g id="node27" class="node">
<title>Node26</title>
<polygon fill="none" stroke="#bfbfbf" points="730,-56.5 730,-75.5 780,-75.5 780,-56.5 730,-56.5"/>
<text text-anchor="middle" x="755" y="-63.5" font-family="FreeSans.ttf" font-size="10.00" fill="#000000">cstring</text>
</g>
<!-- Node24&#45;&gt;Node26 -->
<g id="edge35" class="edge">
<title>Node24&#45;&gt;Node26</title>
<path fill="none" stroke="#191970" d="M842.5362,-112.2455C825.8926,-103.4527 801.2007,-90.4079 782.2808,-80.4125"/>
<polygon fill="#191970" stroke="#191970" points="783.7291,-77.2193 773.2522,-75.6427 780.4592,-83.4086 783.7291,-77.2193"/>
</g>
<!-- Node27&#45;&gt;Node3 -->
<g id="edge38" class="edge">
<title>Node27&#45;&gt;Node3</title>
<path fill="none" stroke="#191970" d="M594.1699,-224.3696C578.0758,-215.7673 554.6347,-202.3399 536,-188 492.8168,-154.7695 448.6708,-108.0825 426.1887,-83.2011"/>
<polygon fill="#191970" stroke="#191970" points="428.7057,-80.7653 419.4275,-75.6499 423.4907,-85.4347 428.7057,-80.7653"/>
</g>
<!-- Node27&#45;&gt;Node24 -->
<g id="edge50" class="edge">
<title>Node27&#45;&gt;Node24</title>
<path fill="none" stroke="#191970" d="M634.3563,-224.367C654.4835,-215.22 685.4348,-200.9772 712,-188 729.5029,-179.4498 733.3342,-176.2083 751,-168 776.2326,-156.2758 805.2933,-144.1819 827.206,-135.3386"/>
<polygon fill="#191970" stroke="#191970" points="828.7537,-138.489 836.7316,-131.5173 826.1474,-131.9922 828.7537,-138.489"/>
</g>
<!-- Node28 -->
<g id="node29" class="node">
<title>Node28</title>
<g id="a_node29"><a xlink:href="GeomVector3_8h.html" target="_top" xlink:title="iDynTree/Core/GeomVector3.h">
<polygon fill="none" stroke="#000000" points="759.5,-168.5 759.5,-187.5 922.5,-187.5 922.5,-168.5 759.5,-168.5"/>
<text text-anchor="middle" x="841" y="-175.5" font-family="FreeSans.ttf" font-size="10.00" fill="#000000">iDynTree/Core/GeomVector3.h</text>
</a>
</g>
</g>
<!-- Node27&#45;&gt;Node28 -->
<g id="edge39" class="edge">
<title>Node27&#45;&gt;Node28</title>
<path fill="none" stroke="#191970" d="M651.9355,-224.4369C690.792,-214.8932 750.593,-200.2052 792.5089,-189.9101"/>
<polygon fill="#191970" stroke="#191970" points="793.3486,-193.308 802.2251,-187.5237 791.6788,-186.51 793.3486,-193.308"/>
</g>
<!-- Node29 -->
<g id="node30" class="node">
<title>Node29</title>
<g id="a_node30"><a xlink:href="RotationRaw_8h.html" target="_top" xlink:title="iDynTree/Core/RotationRaw.h">
<polygon fill="none" stroke="#000000" points="545,-168.5 545,-187.5 703,-187.5 703,-168.5 545,-168.5"/>
<text text-anchor="middle" x="624" y="-175.5" font-family="FreeSans.ttf" font-size="10.00" fill="#000000">iDynTree/Core/RotationRaw.h</text>
</a>
</g>
</g>
<!-- Node27&#45;&gt;Node29 -->
<g id="edge41" class="edge">
<title>Node27&#45;&gt;Node29</title>
<path fill="none" stroke="#191970" d="M614.9161,-224.2455C616.3514,-216.9382 618.3636,-206.6944 620.1295,-197.7046"/>
<polygon fill="#191970" stroke="#191970" points="623.6127,-198.1298 622.1059,-187.6427 616.744,-196.7805 623.6127,-198.1298"/>
</g>
<!-- Node28&#45;&gt;Node24 -->
<g id="edge40" class="edge">
<title>Node28&#45;&gt;Node24</title>
<path fill="none" stroke="#191970" d="M844.4837,-168.2455C847.1508,-160.7776 850.9133,-150.2427 854.1737,-141.1137"/>
<polygon fill="#191970" stroke="#191970" points="857.4889,-142.2373 857.5562,-131.6427 850.8967,-139.8829 857.4889,-142.2373"/>
</g>
<!-- Node29&#45;&gt;Node3 -->
<g id="edge49" class="edge">
<title>Node29&#45;&gt;Node3</title>
<path fill="none" stroke="#191970" d="M608.5494,-168.3275C587.0344,-155.0091 546.6709,-130.5653 511,-112 488.4202,-100.2481 462.2643,-88.2719 442.3669,-79.4865"/>
<polygon fill="#191970" stroke="#191970" points="443.709,-76.2533 433.145,-75.4449 440.8991,-82.6646 443.709,-76.2533"/>
</g>
<!-- Node29&#45;&gt;Node30 -->
<g id="edge42" class="edge">
<title>Node29&#45;&gt;Node30</title>
<path fill="none" stroke="#191970" d="M634.1028,-168.2455C642.5028,-160.1352 654.6494,-148.4075 664.6084,-138.7919"/>
<polygon fill="#191970" stroke="#191970" points="667.25,-141.1066 672.0129,-131.6427 662.3878,-136.0707 667.25,-141.1066"/>
</g>
<!-- Node30&#45;&gt;Node3 -->
<g id="edge46" class="edge">
<title>Node30&#45;&gt;Node3</title>
<path fill="none" stroke="#191970" d="M635.7214,-112.4369C580.9092,-101.1104 491.0328,-82.5382 443.2423,-72.6626"/>
<polygon fill="#191970" stroke="#191970" points="443.656,-69.1742 433.1546,-70.5781 442.2394,-76.0294 443.656,-69.1742"/>
</g>
<!-- Node30&#45;&gt;Node5 -->
<g id="edge43" class="edge">
<title>Node30&#45;&gt;Node5</title>
<path fill="none" stroke="#191970" d="M656.9017,-112.3733C633.0445,-103.2226 596.9665,-89.3844 570.429,-79.2057"/>
<polygon fill="#191970" stroke="#191970" points="571.361,-75.8145 560.7708,-75.5011 568.8541,-82.3503 571.361,-75.8145"/>
</g>
<!-- Node30&#45;&gt;Node12 -->
<g id="edge44" class="edge">
<title>Node30&#45;&gt;Node12</title>
<path fill="none" stroke="#191970" d="M669.359,-112.4732C654.064,-99.7245 631.6843,-76.3578 643,-56 651.3196,-41.0324 666.7513,-30.3073 681.3784,-22.9994"/>
<polygon fill="#191970" stroke="#191970" points="683.1622,-26.0318 690.7915,-18.6802 680.2429,-19.6696 683.1622,-26.0318"/>
</g>
<!-- Node30&#45;&gt;Node25 -->
<g id="edge48" class="edge">
<title>Node30&#45;&gt;Node25</title>
<path fill="none" stroke="#191970" d="M706.7545,-112.3733C730.2849,-103.2226 765.8687,-89.3844 792.0426,-79.2057"/>
<polygon fill="#191970" stroke="#191970" points="793.5171,-82.3877 801.5685,-75.5011 790.9799,-75.8636 793.5171,-82.3877"/>
</g>
<!-- Node30&#45;&gt;Node26 -->
<g id="edge45" class="edge">
<title>Node30&#45;&gt;Node26</title>
<path fill="none" stroke="#191970" d="M694.7156,-112.2455C705.602,-103.8943 721.4883,-91.7076 734.22,-81.9408"/>
<polygon fill="#191970" stroke="#191970" points="736.6261,-84.5063 742.4301,-75.6427 732.3654,-78.9523 736.6261,-84.5063"/>
</g>
<!-- Node31 -->
<g id="node32" class="node">
<title>Node31</title>
<polygon fill="none" stroke="#bfbfbf" points="652,-56.5 652,-75.5 712,-75.5 712,-56.5 652,-56.5"/>
<text text-anchor="middle" x="682" y="-63.5" font-family="FreeSans.ttf" font-size="10.00" fill="#000000">iostream</text>
</g>
<!-- Node30&#45;&gt;Node31 -->
<g id="edge47" class="edge">
<title>Node30&#45;&gt;Node31</title>
<path fill="none" stroke="#191970" d="M682,-112.2455C682,-104.9382 682,-94.6944 682,-85.7046"/>
<polygon fill="#191970" stroke="#191970" points="685.5001,-85.6426 682,-75.6427 678.5001,-85.6427 685.5001,-85.6426"/>
</g>
</g>
</svg>
