<?xml version="1.0" encoding="UTF-8" standalone="no"?>
<!DOCTYPE svg PUBLIC "-//W3C//DTD SVG 1.1//EN"
 "http://www.w3.org/Graphics/SVG/1.1/DTD/svg11.dtd">
<!-- Generated by graphviz version 2.40.1 (20161225.0304)
 -->
<!-- Title: QuadraticCost.cpp Pages: 1 -->
<svg width="1479pt" height="599pt"
 viewBox="0.00 0.00 1478.50 599.00" xmlns="http://www.w3.org/2000/svg" xmlns:xlink="http://www.w3.org/1999/xlink">
<g id="graph0" class="graph" transform="scale(1 1) rotate(0) translate(4 595)">
<title>QuadraticCost.cpp</title>
<!-- Node0 -->
<g id="node1" class="node">
<title>Node0</title>
<polygon fill="#bfbfbf" stroke="#000000" points="484,-571.5 484,-590.5 590,-590.5 590,-571.5 484,-571.5"/>
<text text-anchor="middle" x="537" y="-578.5" font-family="FreeSans.ttf" font-size="10.00" fill="#000000">QuadraticCost.cpp</text>
</g>
<!-- Node1 -->
<g id="node2" class="node">
<title>Node1</title>
<g id="a_node2"><a xlink:href="QuadraticCost_8h.html" target="_top" xlink:title="iDynTree/QuadraticCost.h">
<polygon fill="none" stroke="#000000" points="180,-515.5 180,-534.5 320,-534.5 320,-515.5 180,-515.5"/>
<text text-anchor="middle" x="250" y="-522.5" font-family="FreeSans.ttf" font-size="10.00" fill="#000000">iDynTree/QuadraticCost.h</text>
</a>
</g>
</g>
<!-- Node0&#45;&gt;Node1 -->
<g id="edge1" class="edge">
<title>Node0&#45;&gt;Node1</title>
<path fill="none" stroke="#191970" d="M487.989,-571.4369C438.3553,-561.7522 361.5727,-546.7703 308.7166,-536.4569"/>
<polygon fill="#191970" stroke="#191970" points="309.294,-533.0036 298.8088,-534.5237 307.9534,-539.8741 309.294,-533.0036"/>
</g>
<!-- Node6 -->
<g id="node7" class="node">
<title>Node6</title>
<g id="a_node7"><a xlink:href="Utils_8h.html" target="_top" xlink:title="iDynTree/Core/Utils.h">
<polygon fill="none" stroke="#000000" points="663.5,-56.5 663.5,-75.5 782.5,-75.5 782.5,-56.5 663.5,-56.5"/>
<text text-anchor="middle" x="723" y="-63.5" font-family="FreeSans.ttf" font-size="10.00" fill="#000000">iDynTree/Core/Utils.h</text>
</a>
</g>
</g>
<!-- Node0&#45;&gt;Node6 -->
<g id="edge61" class="edge">
<title>Node0&#45;&gt;Node6</title>
<path fill="none" stroke="#191970" d="M534.1965,-571.2066C528.9113,-551.8521 518,-507.2612 518,-469 518,-469 518,-469 518,-407.5 518,-327.8374 473,-313.6626 473,-234 473,-234 473,-234 473,-178 473,-134.9051 598.2857,-96.6972 671.474,-78.0538"/>
<polygon fill="#191970" stroke="#191970" points="672.5891,-81.3826 681.4369,-75.5546 670.8858,-74.593 672.5891,-81.3826"/>
</g>
<!-- Node34 -->
<g id="node35" class="node">
<title>Node34</title>
<g id="a_node35"><a xlink:href="EigenHelpers_8h.html" target="_top" xlink:title="iDynTree/Core/EigenHelpers.h">
<polygon fill="none" stroke="#000000" points="768.5,-459.5 768.5,-478.5 929.5,-478.5 929.5,-459.5 768.5,-459.5"/>
<text text-anchor="middle" x="849" y="-466.5" font-family="FreeSans.ttf" font-size="10.00" fill="#000000">iDynTree/Core/EigenHelpers.h</text>
</a>
</g>
</g>
<!-- Node0&#45;&gt;Node34 -->
<g id="edge62" class="edge">
<title>Node0&#45;&gt;Node34</title>
<path fill="none" stroke="#191970" d="M539.8877,-571.0825C544.7462,-556.2889 556.0355,-528.7174 576,-515 605.0607,-495.0327 690.4818,-482.8433 758.1155,-476.075"/>
<polygon fill="#191970" stroke="#191970" points="758.7671,-479.5282 768.3807,-475.0752 758.0885,-472.5611 758.7671,-479.5282"/>
</g>
<!-- Node39 -->
<g id="node40" class="node">
<title>Node39</title>
<polygon fill="none" stroke="#bfbfbf" points="584.5,-515.5 584.5,-534.5 631.5,-534.5 631.5,-515.5 584.5,-515.5"/>
<text text-anchor="middle" x="608" y="-522.5" font-family="FreeSans.ttf" font-size="10.00" fill="#000000">cmath</text>
</g>
<!-- Node0&#45;&gt;Node39 -->
<g id="edge84" class="edge">
<title>Node0&#45;&gt;Node39</title>
<path fill="none" stroke="#191970" d="M549.3673,-571.2455C559.9554,-562.8943 575.4064,-550.7076 587.7893,-540.9408"/>
<polygon fill="#191970" stroke="#191970" points="590.0903,-543.5837 595.7745,-534.6427 585.7553,-538.0875 590.0903,-543.5837"/>
</g>
<!-- Node2 -->
<g id="node3" class="node">
<title>Node2</title>
<g id="a_node3"><a xlink:href="QuadraticLikeCost_8h.html" target="_top" xlink:title="iDynTree/QuadraticLikeCost.h">
<polygon fill="none" stroke="#000000" points="32.5,-459.5 32.5,-478.5 193.5,-478.5 193.5,-459.5 32.5,-459.5"/>
<text text-anchor="middle" x="113" y="-466.5" font-family="FreeSans.ttf" font-size="10.00" fill="#000000">iDynTree/QuadraticLikeCost.h</text>
</a>
</g>
</g>
<!-- Node1&#45;&gt;Node2 -->
<g id="edge2" class="edge">
<title>Node1&#45;&gt;Node2</title>
<path fill="none" stroke="#191970" d="M226.4489,-515.3733C204.1609,-506.2629 170.5063,-492.5062 145.6363,-482.3404"/>
<polygon fill="#191970" stroke="#191970" points="146.8247,-479.0451 136.2438,-478.5011 144.1761,-485.5247 146.8247,-479.0451"/>
</g>
<!-- Node10 -->
<g id="node11" class="node">
<title>Node10</title>
<g id="a_node11"><a xlink:href="TimeVaryingObject_8h.html" target="_top" xlink:title="iDynTree/TimeVaryingObject.h">
<polygon fill="none" stroke="#000000" points="250,-398 250,-417 414,-417 414,-398 250,-398"/>
<text text-anchor="middle" x="332" y="-405" font-family="FreeSans.ttf" font-size="10.00" fill="#000000">iDynTree/TimeVaryingObject.h</text>
</a>
</g>
</g>
<!-- Node1&#45;&gt;Node10 -->
<g id="edge57" class="edge">
<title>Node1&#45;&gt;Node10</title>
<path fill="none" stroke="#191970" d="M256.7104,-515.3845C270.4051,-495.761 301.763,-450.8274 319.3844,-425.5772"/>
<polygon fill="#191970" stroke="#191970" points="322.3441,-427.4519 325.1969,-417.2484 316.6037,-423.4459 322.3441,-427.4519"/>
</g>
<!-- Node11 -->
<g id="node12" class="node">
<title>Node11</title>
<g id="a_node12"><a xlink:href="VectorDynSize_8h.html" target="_top" xlink:title="iDynTree/Core/VectorDynSize.h">
<polygon fill="none" stroke="#000000" points="138.5,-336.5 138.5,-355.5 305.5,-355.5 305.5,-336.5 138.5,-336.5"/>
<text text-anchor="middle" x="222" y="-343.5" font-family="FreeSans.ttf" font-size="10.00" fill="#000000">iDynTree/Core/VectorDynSize.h</text>
</a>
</g>
</g>
<!-- Node1&#45;&gt;Node11 -->
<g id="edge58" class="edge">
<title>Node1&#45;&gt;Node11</title>
<path fill="none" stroke="#191970" d="M248.4946,-515.3762C244.0697,-487.0883 231.0411,-403.7987 225.0623,-365.5767"/>
<polygon fill="#191970" stroke="#191970" points="228.5163,-365.0103 223.5128,-355.6714 221.6004,-366.0922 228.5163,-365.0103"/>
</g>
<!-- Node21 -->
<g id="node22" class="node">
<title>Node21</title>
<g id="a_node22"><a xlink:href="MatrixDynSize_8h.html" target="_top" xlink:title="iDynTree/Core/MatrixDynSize.h">
<polygon fill="none" stroke="#000000" points="323.5,-336.5 323.5,-355.5 490.5,-355.5 490.5,-336.5 323.5,-336.5"/>
<text text-anchor="middle" x="407" y="-343.5" font-family="FreeSans.ttf" font-size="10.00" fill="#000000">iDynTree/Core/MatrixDynSize.h</text>
</a>
</g>
</g>
<!-- Node1&#45;&gt;Node21 -->
<g id="edge59" class="edge">
<title>Node1&#45;&gt;Node21</title>
<path fill="none" stroke="#191970" d="M286.2336,-515.3932C327.7391,-502.2278 393.7712,-474.164 423,-423 433.3199,-404.9353 425.6862,-381.0957 417.8153,-364.7559"/>
<polygon fill="#191970" stroke="#191970" points="420.7913,-362.8949 413.0422,-355.6698 414.5943,-366.1504 420.7913,-362.8949"/>
</g>
<!-- Node33 -->
<g id="node34" class="node">
<title>Node33</title>
<polygon fill="none" stroke="#bfbfbf" points="0,-398 0,-417 58,-417 58,-398 0,-398"/>
<text text-anchor="middle" x="29" y="-405" font-family="FreeSans.ttf" font-size="10.00" fill="#000000">memory</text>
</g>
<!-- Node1&#45;&gt;Node33 -->
<g id="edge60" class="edge">
<title>Node1&#45;&gt;Node33</title>
<path fill="none" stroke="#191970" d="M179.9407,-520.327C120.7644,-514.7469 42.5993,-502.9693 23,-479 11.2116,-464.5831 15.2379,-442.6205 20.6281,-426.842"/>
<polygon fill="#191970" stroke="#191970" points="24.0623,-427.6647 24.4001,-417.0752 17.5324,-425.1427 24.0623,-427.6647"/>
</g>
<!-- Node3 -->
<g id="node4" class="node">
<title>Node3</title>
<g id="a_node4"><a xlink:href="Cost_8h.html" target="_top" xlink:title="iDynTree/Cost.h">
<polygon fill="none" stroke="#000000" points="130.5,-168.5 130.5,-187.5 223.5,-187.5 223.5,-168.5 130.5,-168.5"/>
<text text-anchor="middle" x="177" y="-175.5" font-family="FreeSans.ttf" font-size="10.00" fill="#000000">iDynTree/Cost.h</text>
</a>
</g>
</g>
<!-- Node2&#45;&gt;Node3 -->
<g id="edge3" class="edge">
<title>Node2&#45;&gt;Node3</title>
<path fill="none" stroke="#191970" d="M112.7385,-459.4317C112.1964,-438.7405 111,-388.2868 111,-346 111,-346 111,-346 111,-290 111,-251.944 139.6331,-215.4306 159.1802,-194.9377"/>
<polygon fill="#191970" stroke="#191970" points="161.8422,-197.2238 166.396,-187.6575 156.8705,-192.2961 161.8422,-197.2238"/>
</g>
<!-- Node2&#45;&gt;Node10 -->
<g id="edge12" class="edge">
<title>Node2&#45;&gt;Node10</title>
<path fill="none" stroke="#191970" d="M147.2188,-459.3906C185.2275,-448.7169 246.6911,-431.4566 288.1884,-419.8033"/>
<polygon fill="#191970" stroke="#191970" points="289.3402,-423.1153 298.0215,-417.0419 287.4477,-416.3759 289.3402,-423.1153"/>
</g>
<!-- Node2&#45;&gt;Node33 -->
<g id="edge56" class="edge">
<title>Node2&#45;&gt;Node33</title>
<path fill="none" stroke="#191970" d="M99.875,-459.3906C86.56,-449.6421 65.7406,-434.3994 50.1053,-422.9521"/>
<polygon fill="#191970" stroke="#191970" points="52.1691,-420.1253 42.0328,-417.0419 48.0339,-425.7734 52.1691,-420.1253"/>
</g>
<!-- Node4 -->
<g id="node5" class="node">
<title>Node4</title>
<polygon fill="none" stroke="#bfbfbf" points="520,-56.5 520,-75.5 564,-75.5 564,-56.5 520,-56.5"/>
<text text-anchor="middle" x="542" y="-63.5" font-family="FreeSans.ttf" font-size="10.00" fill="#000000">string</text>
</g>
<!-- Node3&#45;&gt;Node4 -->
<g id="edge4" class="edge">
<title>Node3&#45;&gt;Node4</title>
<path fill="none" stroke="#191970" d="M195.1533,-168.4135C228.117,-151.0611 295.4841,-115.8723 307,-112 392.1928,-83.3537 418.3846,-96.0491 506,-76 507.2804,-75.707 508.5836,-75.3978 509.8978,-75.0767"/>
<polygon fill="#191970" stroke="#191970" points="511.196,-78.3559 519.997,-72.4573 509.4385,-71.5801 511.196,-78.3559"/>
</g>
<!-- Node5 -->
<g id="node6" class="node">
<title>Node5</title>
<g id="a_node6"><a xlink:href="SparsityStructure_8h.html" target="_top" xlink:title="iDynTree/SparsityStructure.h">
<polygon fill="none" stroke="#000000" points="99.5,-112.5 99.5,-131.5 254.5,-131.5 254.5,-112.5 99.5,-112.5"/>
<text text-anchor="middle" x="177" y="-119.5" font-family="FreeSans.ttf" font-size="10.00" fill="#000000">iDynTree/SparsityStructure.h</text>
</a>
</g>
</g>
<!-- Node3&#45;&gt;Node5 -->
<g id="edge5" class="edge">
<title>Node3&#45;&gt;Node5</title>
<path fill="none" stroke="#191970" d="M177,-168.2455C177,-160.9382 177,-150.6944 177,-141.7046"/>
<polygon fill="#191970" stroke="#191970" points="180.5001,-141.6426 177,-131.6427 173.5001,-141.6427 180.5001,-141.6426"/>
</g>
<!-- Node5&#45;&gt;Node4 -->
<g id="edge11" class="edge">
<title>Node5&#45;&gt;Node4</title>
<path fill="none" stroke="#191970" d="M253.7596,-112.4595C335.4601,-102.0921 459.2737,-85.7121 506,-76 507.2503,-75.7401 508.5213,-75.4611 509.8022,-75.1673"/>
<polygon fill="#191970" stroke="#191970" points="510.7934,-78.5273 519.6434,-72.7025 509.0927,-71.737 510.7934,-78.5273"/>
</g>
<!-- Node5&#45;&gt;Node6 -->
<g id="edge6" class="edge">
<title>Node5&#45;&gt;Node6</title>
<path fill="none" stroke="#191970" d="M254.6486,-114.036C361.1041,-103.1175 550.784,-83.6632 653.0461,-73.1748"/>
<polygon fill="#191970" stroke="#191970" points="653.6753,-76.6287 663.266,-72.1266 652.9611,-69.6652 653.6753,-76.6287"/>
</g>
<!-- Node7 -->
<g id="node8" class="node">
<title>Node7</title>
<polygon fill="none" stroke="#bfbfbf" points="661.5,-.5 661.5,-19.5 714.5,-19.5 714.5,-.5 661.5,-.5"/>
<text text-anchor="middle" x="688" y="-7.5" font-family="FreeSans.ttf" font-size="10.00" fill="#000000">cstddef</text>
</g>
<!-- Node5&#45;&gt;Node7 -->
<g id="edge9" class="edge">
<title>Node5&#45;&gt;Node7</title>
<path fill="none" stroke="#191970" d="M246.246,-112.4622C326.9127,-101.1591 451.8915,-82.9793 473,-76 491.1204,-70.0086 493.1872,-62.8522 511,-56 568.5351,-33.8675 587.7111,-36.3522 651.5308,-20.0378"/>
<polygon fill="#191970" stroke="#191970" points="652.4909,-23.4045 661.2806,-17.4891 650.7205,-16.632 652.4909,-23.4045"/>
</g>
<!-- Node8 -->
<g id="node9" class="node">
<title>Node8</title>
<polygon fill="none" stroke="#bfbfbf" points="110.5,-56.5 110.5,-75.5 157.5,-75.5 157.5,-56.5 110.5,-56.5"/>
<text text-anchor="middle" x="134" y="-63.5" font-family="FreeSans.ttf" font-size="10.00" fill="#000000">vector</text>
</g>
<!-- Node5&#45;&gt;Node8 -->
<g id="edge8" class="edge">
<title>Node5&#45;&gt;Node8</title>
<path fill="none" stroke="#191970" d="M169.51,-112.2455C163.4674,-104.3761 154.8097,-93.101 147.5559,-83.6542"/>
<polygon fill="#191970" stroke="#191970" points="150.2705,-81.4426 141.4042,-75.6427 144.7185,-85.7058 150.2705,-81.4426"/>
</g>
<!-- Node9 -->
<g id="node10" class="node">
<title>Node9</title>
<polygon fill="none" stroke="#bfbfbf" points="176,-56.5 176,-75.5 262,-75.5 262,-56.5 176,-56.5"/>
<text text-anchor="middle" x="219" y="-63.5" font-family="FreeSans.ttf" font-size="10.00" fill="#000000">unordered_set</text>
</g>
<!-- Node5&#45;&gt;Node9 -->
<g id="edge10" class="edge">
<title>Node5&#45;&gt;Node9</title>
<path fill="none" stroke="#191970" d="M184.3158,-112.2455C190.2179,-104.3761 198.6742,-93.101 205.7594,-83.6542"/>
<polygon fill="#191970" stroke="#191970" points="208.568,-85.7427 211.768,-75.6427 202.9679,-81.5427 208.568,-85.7427"/>
</g>
<!-- Node6&#45;&gt;Node7 -->
<g id="edge7" class="edge">
<title>Node6&#45;&gt;Node7</title>
<path fill="none" stroke="#191970" d="M716.9035,-56.2455C712.0855,-48.5367 705.2249,-37.5598 699.3968,-28.2348"/>
<polygon fill="#191970" stroke="#191970" points="702.2947,-26.2677 694.0267,-19.6427 696.3587,-29.9777 702.2947,-26.2677"/>
</g>
<!-- Node10&#45;&gt;Node11 -->
<g id="edge13" class="edge">
<title>Node10&#45;&gt;Node11</title>
<path fill="none" stroke="#191970" d="M314.8125,-397.8906C296.8918,-387.8713 268.5905,-372.0483 247.9477,-360.5071"/>
<polygon fill="#191970" stroke="#191970" points="249.5033,-357.367 239.0668,-355.5419 246.0872,-363.4769 249.5033,-357.367"/>
</g>
<!-- Node10&#45;&gt;Node21 -->
<g id="edge25" class="edge">
<title>Node10&#45;&gt;Node21</title>
<path fill="none" stroke="#191970" d="M343.7188,-397.8906C355.3188,-388.3786 373.2979,-373.6357 387.1321,-362.2917"/>
<polygon fill="#191970" stroke="#191970" points="389.6026,-364.7921 395.116,-355.7449 385.164,-359.3792 389.6026,-364.7921"/>
</g>
<!-- Node22 -->
<g id="node23" class="node">
<title>Node22</title>
<g id="a_node23"><a xlink:href="Transform_8h.html" target="_top" xlink:title="iDynTree/Core/Transform.h">
<polygon fill="none" stroke="#000000" points="549,-336.5 549,-355.5 695,-355.5 695,-336.5 549,-336.5"/>
<text text-anchor="middle" x="622" y="-343.5" font-family="FreeSans.ttf" font-size="10.00" fill="#000000">iDynTree/Core/Transform.h</text>
</a>
</g>
</g>
<!-- Node10&#45;&gt;Node22 -->
<g id="edge27" class="edge">
<title>Node10&#45;&gt;Node22</title>
<path fill="none" stroke="#191970" d="M376.9943,-397.9581C428.216,-387.0956 511.9001,-369.3488 566.9655,-357.6711"/>
<polygon fill="#191970" stroke="#191970" points="567.8438,-361.0628 576.9001,-355.5643 566.3916,-354.2151 567.8438,-361.0628"/>
</g>
<!-- Node11&#45;&gt;Node4 -->
<g id="edge24" class="edge">
<title>Node11&#45;&gt;Node4</title>
<path fill="none" stroke="#191970" d="M240.1581,-336.2847C268.7386,-319.5219 321,-282.2704 321,-234 321,-234 321,-234 321,-178 321,-132.5883 359.2951,-134.0397 399,-112 408.8901,-106.5101 471.0551,-87.3335 510.0971,-75.5432"/>
<polygon fill="#191970" stroke="#191970" points="511.3899,-78.8092 519.9559,-72.5743 509.3714,-72.1065 511.3899,-78.8092"/>
</g>
<!-- Node12 -->
<g id="node13" class="node">
<title>Node12</title>
<g id="a_node13"><a xlink:href="Span_8h.html" target="_top" xlink:title="iDynTree/Core/Span.h">
<polygon fill="none" stroke="#000000" points="342.5,-56.5 342.5,-75.5 463.5,-75.5 463.5,-56.5 342.5,-56.5"/>
<text text-anchor="middle" x="403" y="-63.5" font-family="FreeSans.ttf" font-size="10.00" fill="#000000">iDynTree/Core/Span.h</text>
</a>
</g>
</g>
<!-- Node11&#45;&gt;Node12 -->
<g id="edge14" class="edge">
<title>Node11&#45;&gt;Node12</title>
<path fill="none" stroke="#191970" d="M185.8317,-336.491C141.1597,-322.3037 71,-290.9557 71,-234 71,-234 71,-234 71,-178 71,-147.4754 67.0154,-132.0863 90,-112 107.9516,-96.3121 245.5292,-80.7445 332.2087,-72.3504"/>
<polygon fill="#191970" stroke="#191970" points="332.6342,-75.8257 342.2546,-71.3875 331.9663,-68.8576 332.6342,-75.8257"/>
</g>
<!-- Node12&#45;&gt;Node7 -->
<g id="edge18" class="edge">
<title>Node12&#45;&gt;Node7</title>
<path fill="none" stroke="#191970" d="M462.6708,-56.4982C511.0293,-48.4511 581.1076,-36.0086 651.4113,-19.9764"/>
<polygon fill="#191970" stroke="#191970" points="652.3721,-23.3468 661.3307,-17.6905 650.8001,-16.5256 652.3721,-23.3468"/>
</g>
<!-- Node13 -->
<g id="node14" class="node">
<title>Node13</title>
<polygon fill="none" stroke="#bfbfbf" points="930,-.5 930,-19.5 982,-19.5 982,-.5 930,-.5"/>
<text text-anchor="middle" x="956" y="-7.5" font-family="FreeSans.ttf" font-size="10.00" fill="#000000">cassert</text>
</g>
<!-- Node12&#45;&gt;Node13 -->
<g id="edge15" class="edge">
<title>Node12&#45;&gt;Node13</title>
<path fill="none" stroke="#191970" d="M463.7626,-59.8468C579.1221,-48.1648 826.6334,-23.1004 919.6597,-13.68"/>
<polygon fill="#191970" stroke="#191970" points="920.1141,-17.152 929.7106,-12.6622 919.4088,-10.1876 920.1141,-17.152"/>
</g>
<!-- Node14 -->
<g id="node15" class="node">
<title>Node14</title>
<polygon fill="none" stroke="#bfbfbf" points="579,-.5 579,-19.5 643,-19.5 643,-.5 579,-.5"/>
<text text-anchor="middle" x="611" y="-7.5" font-family="FreeSans.ttf" font-size="10.00" fill="#000000">algorithm</text>
</g>
<!-- Node12&#45;&gt;Node14 -->
<g id="edge16" class="edge">
<title>Node12&#45;&gt;Node14</title>
<path fill="none" stroke="#191970" d="M438.7565,-56.3733C474.9023,-46.6417 530.739,-31.6087 568.9777,-21.3137"/>
<polygon fill="#191970" stroke="#191970" points="570.0345,-24.6539 578.7807,-18.6744 568.2146,-17.8946 570.0345,-24.6539"/>
</g>
<!-- Node15 -->
<g id="node16" class="node">
<title>Node15</title>
<polygon fill="none" stroke="#bfbfbf" points="151,-.5 151,-19.5 193,-19.5 193,-.5 151,-.5"/>
<text text-anchor="middle" x="172" y="-7.5" font-family="FreeSans.ttf" font-size="10.00" fill="#000000">array</text>
</g>
<!-- Node12&#45;&gt;Node15 -->
<g id="edge17" class="edge">
<title>Node12&#45;&gt;Node15</title>
<path fill="none" stroke="#191970" d="M356.2417,-56.4354C315.5269,-47.8244 255.0356,-34.3484 203,-20 202.9012,-19.9728 202.8022,-19.9454 202.7031,-19.9179"/>
<polygon fill="#191970" stroke="#191970" points="203.855,-16.6088 193.2729,-17.128 201.8691,-23.3212 203.855,-16.6088"/>
</g>
<!-- Node16 -->
<g id="node17" class="node">
<title>Node16</title>
<polygon fill="none" stroke="#bfbfbf" points="211.5,-.5 211.5,-19.5 264.5,-19.5 264.5,-.5 211.5,-.5"/>
<text text-anchor="middle" x="238" y="-7.5" font-family="FreeSans.ttf" font-size="10.00" fill="#000000">iterator</text>
</g>
<!-- Node12&#45;&gt;Node16 -->
<g id="edge19" class="edge">
<title>Node12&#45;&gt;Node16</title>
<path fill="none" stroke="#191970" d="M374.6355,-56.3733C346.9034,-46.9611 304.5596,-32.5899 274.3662,-22.3425"/>
<polygon fill="#191970" stroke="#191970" points="275.2255,-18.9381 264.6311,-19.0384 272.9757,-25.5667 275.2255,-18.9381"/>
</g>
<!-- Node17 -->
<g id="node18" class="node">
<title>Node17</title>
<polygon fill="none" stroke="#bfbfbf" points="283,-.5 283,-19.5 327,-19.5 327,-.5 283,-.5"/>
<text text-anchor="middle" x="305" y="-7.5" font-family="FreeSans.ttf" font-size="10.00" fill="#000000">limits</text>
</g>
<!-- Node12&#45;&gt;Node17 -->
<g id="edge20" class="edge">
<title>Node12&#45;&gt;Node17</title>
<path fill="none" stroke="#191970" d="M385.9297,-56.2455C370.753,-47.5731 348.3379,-34.7645 330.9437,-24.825"/>
<polygon fill="#191970" stroke="#191970" points="332.2936,-21.5653 321.8747,-19.6427 328.8206,-27.643 332.2936,-21.5653"/>
</g>
<!-- Node18 -->
<g id="node19" class="node">
<title>Node18</title>
<polygon fill="none" stroke="#bfbfbf" points="345.5,-.5 345.5,-19.5 410.5,-19.5 410.5,-.5 345.5,-.5"/>
<text text-anchor="middle" x="378" y="-7.5" font-family="FreeSans.ttf" font-size="10.00" fill="#000000">stdexcept</text>
</g>
<!-- Node12&#45;&gt;Node18 -->
<g id="edge21" class="edge">
<title>Node12&#45;&gt;Node18</title>
<path fill="none" stroke="#191970" d="M398.6453,-56.2455C395.2756,-48.6973 390.507,-38.0158 386.4017,-28.8197"/>
<polygon fill="#191970" stroke="#191970" points="389.5773,-27.3473 382.3048,-19.6427 383.1853,-30.2009 389.5773,-27.3473"/>
</g>
<!-- Node19 -->
<g id="node20" class="node">
<title>Node19</title>
<polygon fill="none" stroke="#bfbfbf" points="428.5,-.5 428.5,-19.5 497.5,-19.5 497.5,-.5 428.5,-.5"/>
<text text-anchor="middle" x="463" y="-7.5" font-family="FreeSans.ttf" font-size="10.00" fill="#000000">type_traits</text>
</g>
<!-- Node12&#45;&gt;Node19 -->
<g id="edge22" class="edge">
<title>Node12&#45;&gt;Node19</title>
<path fill="none" stroke="#191970" d="M413.4512,-56.2455C422.2269,-48.0549 434.9554,-36.1749 445.314,-26.5069"/>
<polygon fill="#191970" stroke="#191970" points="447.7461,-29.0246 452.6686,-19.6427 442.9699,-23.9072 447.7461,-29.0246"/>
</g>
<!-- Node20 -->
<g id="node21" class="node">
<title>Node20</title>
<polygon fill="none" stroke="#bfbfbf" points="515.5,-.5 515.5,-19.5 560.5,-19.5 560.5,-.5 515.5,-.5"/>
<text text-anchor="middle" x="538" y="-7.5" font-family="FreeSans.ttf" font-size="10.00" fill="#000000">utility</text>
</g>
<!-- Node12&#45;&gt;Node20 -->
<g id="edge23" class="edge">
<title>Node12&#45;&gt;Node20</title>
<path fill="none" stroke="#191970" d="M426.2073,-56.3733C448.1699,-47.2629 481.3332,-33.5062 505.8401,-23.3404"/>
<polygon fill="#191970" stroke="#191970" points="507.1997,-26.5657 515.0955,-19.5011 504.5176,-20.0999 507.1997,-26.5657"/>
</g>
<!-- Node21&#45;&gt;Node4 -->
<g id="edge26" class="edge">
<title>Node21&#45;&gt;Node4</title>
<path fill="none" stroke="#191970" d="M399.7098,-336.4077C386.282,-317.7535 359,-274.829 359,-234 359,-234 359,-234 359,-178 359,-142.919 458.0718,-98.8279 510.4248,-77.9776"/>
<polygon fill="#191970" stroke="#191970" points="511.8985,-81.1591 519.9259,-74.2445 509.3386,-74.644 511.8985,-81.1591"/>
</g>
<!-- Node22&#45;&gt;Node4 -->
<g id="edge55" class="edge">
<title>Node22&#45;&gt;Node4</title>
<path fill="none" stroke="#191970" d="M599.3193,-336.3475C582.7439,-328.4341 560.5387,-315.95 545,-300 505.1462,-259.0915 496.4724,-243.2483 482,-188 476.6906,-167.7313 486.9065,-117.7412 490,-112 496.5214,-99.897 507.5546,-89.4472 517.7844,-81.5801"/>
<polygon fill="#191970" stroke="#191970" points="520.0109,-84.2896 526.0718,-75.5996 515.9146,-78.6132 520.0109,-84.2896"/>
</g>
<!-- Node23 -->
<g id="node24" class="node">
<title>Node23</title>
<g id="a_node24"><a xlink:href="Position_8h.html" target="_top" xlink:title="iDynTree/Core/Position.h">
<polygon fill="none" stroke="#000000" points="554,-280.5 554,-299.5 690,-299.5 690,-280.5 554,-280.5"/>
<text text-anchor="middle" x="622" y="-287.5" font-family="FreeSans.ttf" font-size="10.00" fill="#000000">iDynTree/Core/Position.h</text>
</a>
</g>
</g>
<!-- Node22&#45;&gt;Node23 -->
<g id="edge28" class="edge">
<title>Node22&#45;&gt;Node23</title>
<path fill="none" stroke="#191970" d="M622,-336.2455C622,-328.9382 622,-318.6944 622,-309.7046"/>
<polygon fill="#191970" stroke="#191970" points="625.5001,-309.6426 622,-299.6427 618.5001,-309.6427 625.5001,-309.6426"/>
</g>
<!-- Node28 -->
<g id="node29" class="node">
<title>Node28</title>
<g id="a_node29"><a xlink:href="Rotation_8h.html" target="_top" xlink:title="iDynTree/Core/Rotation.h">
<polygon fill="none" stroke="#000000" points="761.5,-224.5 761.5,-243.5 898.5,-243.5 898.5,-224.5 761.5,-224.5"/>
<text text-anchor="middle" x="830" y="-231.5" font-family="FreeSans.ttf" font-size="10.00" fill="#000000">iDynTree/Core/Rotation.h</text>
</a>
</g>
</g>
<!-- Node22&#45;&gt;Node28 -->
<g id="edge53" class="edge">
<title>Node22&#45;&gt;Node28</title>
<path fill="none" stroke="#191970" d="M639.734,-336.4509C676.2679,-316.7788 760.104,-271.6363 803.2563,-248.4005"/>
<polygon fill="#191970" stroke="#191970" points="805.1656,-251.3476 812.3109,-243.5249 801.8468,-245.1843 805.1656,-251.3476"/>
</g>
<!-- Node31 -->
<g id="node32" class="node">
<title>Node31</title>
<g id="a_node32"><a xlink:href="MatrixFixSize_8h.html" target="_top" xlink:title="iDynTree/Core/MatrixFixSize.h">
<polygon fill="none" stroke="#000000" points="1093.5,-112.5 1093.5,-131.5 1254.5,-131.5 1254.5,-112.5 1093.5,-112.5"/>
<text text-anchor="middle" x="1174" y="-119.5" font-family="FreeSans.ttf" font-size="10.00" fill="#000000">iDynTree/Core/MatrixFixSize.h</text>
</a>
</g>
</g>
<!-- Node22&#45;&gt;Node31 -->
<g id="edge54" class="edge">
<title>Node22&#45;&gt;Node31</title>
<path fill="none" stroke="#191970" d="M651.5753,-336.4703C703.8662,-319.3964 815.8269,-281.8275 908,-244 981.947,-213.6524 998.2832,-201.1874 1071,-168 1095.1475,-156.9792 1122.5969,-144.7342 1143.0834,-135.6503"/>
<polygon fill="#191970" stroke="#191970" points="1144.526,-138.8394 1152.2521,-131.5898 1141.6914,-132.439 1144.526,-138.8394"/>
</g>
<!-- Node23&#45;&gt;Node4 -->
<g id="edge52" class="edge">
<title>Node23&#45;&gt;Node4</title>
<path fill="none" stroke="#191970" d="M599.8885,-280.4002C569.0707,-265.6466 514.4629,-234.1766 492,-188 474.2649,-151.5421 505.0041,-107.1336 525.6318,-83.2274"/>
<polygon fill="#191970" stroke="#191970" points="528.3367,-85.4536 532.4103,-75.6732 523.1267,-80.7786 528.3367,-85.4536"/>
</g>
<!-- Node24 -->
<g id="node25" class="node">
<title>Node24</title>
<g id="a_node25"><a xlink:href="PositionRaw_8h.html" target="_top" xlink:title="iDynTree/Core/PositionRaw.h">
<polygon fill="none" stroke="#000000" points="501,-168.5 501,-187.5 657,-187.5 657,-168.5 501,-168.5"/>
<text text-anchor="middle" x="579" y="-175.5" font-family="FreeSans.ttf" font-size="10.00" fill="#000000">iDynTree/Core/PositionRaw.h</text>
</a>
</g>
</g>
<!-- Node23&#45;&gt;Node24 -->
<g id="edge29" class="edge">
<title>Node23&#45;&gt;Node24</title>
<path fill="none" stroke="#191970" d="M618.3338,-280.4509C611.2572,-262.0186 595.5955,-221.2254 586.3112,-197.043"/>
<polygon fill="#191970" stroke="#191970" points="589.5086,-195.606 582.6569,-187.5249 582.9737,-198.115 589.5086,-195.606"/>
</g>
<!-- Node23&#45;&gt;Node28 -->
<g id="edge38" class="edge">
<title>Node23&#45;&gt;Node28</title>
<path fill="none" stroke="#191970" d="M657.7565,-280.3733C692.9426,-270.9001 746.7881,-256.4032 784.8956,-246.1435"/>
<polygon fill="#191970" stroke="#191970" points="785.9639,-249.4806 794.7101,-243.5011 784.144,-242.7213 785.9639,-249.4806"/>
</g>
<!-- Node24&#45;&gt;Node4 -->
<g id="edge37" class="edge">
<title>Node24&#45;&gt;Node4</title>
<path fill="none" stroke="#191970" d="M575.8454,-168.4509C569.7562,-150.0186 556.2798,-109.2254 548.291,-85.043"/>
<polygon fill="#191970" stroke="#191970" points="551.6069,-83.9223 545.1466,-75.5249 544.9602,-86.1181 551.6069,-83.9223"/>
</g>
<!-- Node25 -->
<g id="node26" class="node">
<title>Node25</title>
<g id="a_node26"><a xlink:href="VectorFixSize_8h.html" target="_top" xlink:title="iDynTree/Core/VectorFixSize.h">
<polygon fill="none" stroke="#000000" points="875.5,-112.5 875.5,-131.5 1036.5,-131.5 1036.5,-112.5 875.5,-112.5"/>
<text text-anchor="middle" x="956" y="-119.5" font-family="FreeSans.ttf" font-size="10.00" fill="#000000">iDynTree/Core/VectorFixSize.h</text>
</a>
</g>
</g>
<!-- Node24&#45;&gt;Node25 -->
<g id="edge30" class="edge">
<title>Node24&#45;&gt;Node25</title>
<path fill="none" stroke="#191970" d="M643.3802,-168.4369C709.5275,-158.6113 812.3825,-143.3331 881.8817,-133.0096"/>
<polygon fill="#191970" stroke="#191970" points="882.5081,-136.4551 891.8853,-131.5237 881.4795,-129.531 882.5081,-136.4551"/>
</g>
<!-- Node25&#45;&gt;Node4 -->
<g id="edge33" class="edge">
<title>Node25&#45;&gt;Node4</title>
<path fill="none" stroke="#191970" d="M885.3013,-112.4369C794.7324,-100.186 641.4972,-79.4586 574.7298,-70.4272"/>
<polygon fill="#191970" stroke="#191970" points="574.7876,-66.9032 564.4087,-69.0311 573.8492,-73.8401 574.7876,-66.9032"/>
</g>
<!-- Node25&#45;&gt;Node6 -->
<g id="edge31" class="edge">
<title>Node25&#45;&gt;Node6</title>
<path fill="none" stroke="#191970" d="M916.2106,-112.4369C876.502,-102.8932 815.3896,-88.2052 772.5545,-77.9101"/>
<polygon fill="#191970" stroke="#191970" points="773.1663,-74.4575 762.6253,-75.5237 771.5305,-81.2637 773.1663,-74.4575"/>
</g>
<!-- Node25&#45;&gt;Node12 -->
<g id="edge32" class="edge">
<title>Node25&#45;&gt;Node12</title>
<path fill="none" stroke="#191970" d="M875.2931,-113.8272C767.0786,-102.8687 576.688,-83.5887 473.7869,-73.1683"/>
<polygon fill="#191970" stroke="#191970" points="474.1063,-69.6828 463.8045,-72.1574 473.401,-76.6472 474.1063,-69.6828"/>
</g>
<!-- Node25&#45;&gt;Node13 -->
<g id="edge35" class="edge">
<title>Node25&#45;&gt;Node13</title>
<path fill="none" stroke="#191970" d="M956,-112.4509C956,-94.184 956,-53.9553 956,-29.6976"/>
<polygon fill="#191970" stroke="#191970" points="959.5001,-29.5249 956,-19.5249 952.5001,-29.5249 959.5001,-29.5249"/>
</g>
<!-- Node26 -->
<g id="node27" class="node">
<title>Node26</title>
<polygon fill="none" stroke="#bfbfbf" points="1146,-56.5 1146,-75.5 1202,-75.5 1202,-56.5 1146,-56.5"/>
<text text-anchor="middle" x="1174" y="-63.5" font-family="FreeSans.ttf" font-size="10.00" fill="#000000">sstream</text>
</g>
<!-- Node25&#45;&gt;Node26 -->
<g id="edge34" class="edge">
<title>Node25&#45;&gt;Node26</title>
<path fill="none" stroke="#191970" d="M993.4755,-112.3733C1033.2315,-102.1607 1095.7156,-86.1098 1135.76,-75.8231"/>
<polygon fill="#191970" stroke="#191970" points="1136.8629,-79.1535 1145.6776,-73.2755 1135.1212,-72.3736 1136.8629,-79.1535"/>
</g>
<!-- Node27 -->
<g id="node28" class="node">
<title>Node27</title>
<polygon fill="none" stroke="#bfbfbf" points="998,-56.5 998,-75.5 1048,-75.5 1048,-56.5 998,-56.5"/>
<text text-anchor="middle" x="1023" y="-63.5" font-family="FreeSans.ttf" font-size="10.00" fill="#000000">cstring</text>
</g>
<!-- Node25&#45;&gt;Node27 -->
<g id="edge36" class="edge">
<title>Node25&#45;&gt;Node27</title>
<path fill="none" stroke="#191970" d="M967.6705,-112.2455C977.5661,-103.9746 991.9627,-91.9416 1003.5901,-82.2232"/>
<polygon fill="#191970" stroke="#191970" points="1006.035,-84.7413 1011.4632,-75.6427 1001.5458,-79.3703 1006.035,-84.7413"/>
</g>
<!-- Node28&#45;&gt;Node4 -->
<g id="edge39" class="edge">
<title>Node28&#45;&gt;Node4</title>
<path fill="none" stroke="#191970" d="M810.9229,-224.4867C792.9659,-215.4244 765.4088,-201.2388 742,-188 677.0522,-151.2689 602.4823,-104.5305 565.434,-80.9903"/>
<polygon fill="#191970" stroke="#191970" points="567.167,-77.9445 556.852,-75.5255 563.4071,-83.8491 567.167,-77.9445"/>
</g>
<!-- Node28&#45;&gt;Node25 -->
<g id="edge51" class="edge">
<title>Node28&#45;&gt;Node25</title>
<path fill="none" stroke="#191970" d="M857.5104,-224.3567C876.2562,-216.7307 900.7144,-204.5954 918,-188 931.8148,-174.7368 942.1616,-155.3539 948.5424,-141.0222"/>
<polygon fill="#191970" stroke="#191970" points="951.8378,-142.2142 952.4804,-131.6389 945.3832,-139.5052 951.8378,-142.2142"/>
</g>
<!-- Node29 -->
<g id="node30" class="node">
<title>Node29</title>
<g id="a_node30"><a xlink:href="GeomVector3_8h.html" target="_top" xlink:title="iDynTree/Core/GeomVector3.h">
<polygon fill="none" stroke="#000000" points="1079.5,-168.5 1079.5,-187.5 1242.5,-187.5 1242.5,-168.5 1079.5,-168.5"/>
<text text-anchor="middle" x="1161" y="-175.5" font-family="FreeSans.ttf" font-size="10.00" fill="#000000">iDynTree/Core/GeomVector3.h</text>
</a>
</g>
</g>
<!-- Node28&#45;&gt;Node29 -->
<g id="edge40" class="edge">
<title>Node28&#45;&gt;Node29</title>
<path fill="none" stroke="#191970" d="M886.5248,-224.4369C944.244,-214.6717 1033.7971,-199.5207 1094.7966,-189.2006"/>
<polygon fill="#191970" stroke="#191970" points="1095.4323,-192.6429 1104.7083,-187.5237 1094.2645,-185.7409 1095.4323,-192.6429"/>
</g>
<!-- Node30 -->
<g id="node31" class="node">
<title>Node30</title>
<g id="a_node31"><a xlink:href="RotationRaw_8h.html" target="_top" xlink:title="iDynTree/Core/RotationRaw.h">
<polygon fill="none" stroke="#000000" points="751,-168.5 751,-187.5 909,-187.5 909,-168.5 751,-168.5"/>
<text text-anchor="middle" x="830" y="-175.5" font-family="FreeSans.ttf" font-size="10.00" fill="#000000">iDynTree/Core/RotationRaw.h</text>
</a>
</g>
</g>
<!-- Node28&#45;&gt;Node30 -->
<g id="edge42" class="edge">
<title>Node28&#45;&gt;Node30</title>
<path fill="none" stroke="#191970" d="M830,-224.2455C830,-216.9382 830,-206.6944 830,-197.7046"/>
<polygon fill="#191970" stroke="#191970" points="833.5001,-197.6426 830,-187.6427 826.5001,-197.6427 833.5001,-197.6426"/>
</g>
<!-- Node29&#45;&gt;Node25 -->
<g id="edge41" class="edge">
<title>Node29&#45;&gt;Node25</title>
<path fill="none" stroke="#191970" d="M1125.7592,-168.3733C1091.0806,-158.9001 1038.0117,-144.4032 1000.4538,-134.1435"/>
<polygon fill="#191970" stroke="#191970" points="1001.3498,-130.7601 990.7809,-131.5011 999.5051,-137.5126 1001.3498,-130.7601"/>
</g>
<!-- Node30&#45;&gt;Node4 -->
<g id="edge50" class="edge">
<title>Node30&#45;&gt;Node4</title>
<path fill="none" stroke="#191970" d="M805.6621,-168.4648C772.8313,-155.6092 712.5269,-132.0204 661,-112 631.5538,-100.5589 597.9815,-87.5881 574.0206,-78.3433"/>
<polygon fill="#191970" stroke="#191970" points="574.9697,-74.9581 564.3801,-74.6247 572.4505,-81.4891 574.9697,-74.9581"/>
</g>
<!-- Node30&#45;&gt;Node31 -->
<g id="edge43" class="edge">
<title>Node30&#45;&gt;Node31</title>
<path fill="none" stroke="#191970" d="M888.7448,-168.4369C948.8546,-158.6516 1042.1851,-143.4582 1105.5883,-133.1368"/>
<polygon fill="#191970" stroke="#191970" points="1106.1898,-136.585 1115.4975,-131.5237 1105.065,-129.676 1106.1898,-136.585"/>
</g>
<!-- Node31&#45;&gt;Node4 -->
<g id="edge47" class="edge">
<title>Node31&#45;&gt;Node4</title>
<path fill="none" stroke="#191970" d="M1093.3148,-114.8507C952.9695,-102.415 669.7577,-77.3203 574.2712,-68.8595"/>
<polygon fill="#191970" stroke="#191970" points="574.3565,-65.3534 564.0866,-67.957 573.7386,-72.3261 574.3565,-65.3534"/>
</g>
<!-- Node31&#45;&gt;Node6 -->
<g id="edge44" class="edge">
<title>Node31&#45;&gt;Node6</title>
<path fill="none" stroke="#191970" d="M1097.2385,-112.4686C1011.9103,-101.8736 875.2934,-84.9101 792.8581,-74.6742"/>
<polygon fill="#191970" stroke="#191970" points="793.1887,-71.1884 782.8336,-73.4294 792.3261,-78.1351 793.1887,-71.1884"/>
</g>
<!-- Node31&#45;&gt;Node13 -->
<g id="edge45" class="edge">
<title>Node31&#45;&gt;Node13</title>
<path fill="none" stroke="#191970" d="M1157.9625,-112.3696C1135.6397,-99.1001 1093.7939,-74.7127 1057,-56 1034.1234,-44.3654 1007.7088,-32.3844 987.6316,-23.5674"/>
<polygon fill="#191970" stroke="#191970" points="988.8932,-20.2992 978.3279,-19.5086 986.0941,-26.7153 988.8932,-20.2992"/>
</g>
<!-- Node31&#45;&gt;Node26 -->
<g id="edge49" class="edge">
<title>Node31&#45;&gt;Node26</title>
<path fill="none" stroke="#191970" d="M1174,-112.2455C1174,-104.9382 1174,-94.6944 1174,-85.7046"/>
<polygon fill="#191970" stroke="#191970" points="1177.5001,-85.6426 1174,-75.6427 1170.5001,-85.6427 1177.5001,-85.6426"/>
</g>
<!-- Node31&#45;&gt;Node27 -->
<g id="edge46" class="edge">
<title>Node31&#45;&gt;Node27</title>
<path fill="none" stroke="#191970" d="M1148.0422,-112.3733C1123.1091,-103.1265 1085.27,-89.0935 1057.7474,-78.8865"/>
<polygon fill="#191970" stroke="#191970" points="1058.7104,-75.5107 1048.1173,-75.315 1056.2763,-82.0739 1058.7104,-75.5107"/>
</g>
<!-- Node32 -->
<g id="node33" class="node">
<title>Node32</title>
<polygon fill="none" stroke="#bfbfbf" points="1316,-56.5 1316,-75.5 1376,-75.5 1376,-56.5 1316,-56.5"/>
<text text-anchor="middle" x="1346" y="-63.5" font-family="FreeSans.ttf" font-size="10.00" fill="#000000">iostream</text>
</g>
<!-- Node31&#45;&gt;Node32 -->
<g id="edge48" class="edge">
<title>Node31&#45;&gt;Node32</title>
<path fill="none" stroke="#191970" d="M1203.5679,-112.3733C1232.1688,-103.0613 1275.6788,-88.8953 1307.0819,-78.671"/>
<polygon fill="#191970" stroke="#191970" points="1308.3928,-81.9251 1316.818,-75.5011 1306.2257,-75.269 1308.3928,-81.9251"/>
</g>
<!-- Node34&#45;&gt;Node6 -->
<g id="edge83" class="edge">
<title>Node34&#45;&gt;Node6</title>
<path fill="none" stroke="#191970" d="M826.4737,-459.4688C790.2317,-442.4468 723,-403.1656 723,-346 723,-346 723,-346 723,-178 723,-145.7116 723,-108.1872 723,-85.8048"/>
<polygon fill="#191970" stroke="#191970" points="726.5001,-85.5883 723,-75.5884 719.5001,-85.5884 726.5001,-85.5883"/>
</g>
<!-- Node34&#45;&gt;Node11 -->
<g id="edge64" class="edge">
<title>Node34&#45;&gt;Node11</title>
<path fill="none" stroke="#191970" d="M777.2458,-459.4859C717.1265,-451.1231 629.1605,-437.9737 553,-423 494.7179,-411.5413 480.8399,-405.5145 423,-392 372.5469,-380.2115 314.895,-367.0491 274.3112,-357.8345"/>
<polygon fill="#191970" stroke="#191970" points="274.9024,-354.3798 264.3758,-355.5801 273.3534,-361.2063 274.9024,-354.3798"/>
</g>
<!-- Node34&#45;&gt;Node21 -->
<g id="edge66" class="edge">
<title>Node34&#45;&gt;Node21</title>
<path fill="none" stroke="#191970" d="M808.4369,-459.4989C770.859,-450.5587 713.4757,-436.5546 664,-423 586.8806,-401.872 497.6203,-374.4538 447.183,-358.6831"/>
<polygon fill="#191970" stroke="#191970" points="447.9171,-355.2454 437.3281,-355.5953 445.8241,-361.9252 447.9171,-355.2454"/>
</g>
<!-- Node34&#45;&gt;Node22 -->
<g id="edge82" class="edge">
<title>Node34&#45;&gt;Node22</title>
<path fill="none" stroke="#191970" d="M805.1305,-459.4879C776.5271,-452.1305 739.0672,-440.2544 709,-423 680.886,-406.8665 653.7852,-380.6454 637.5043,-363.3593"/>
<polygon fill="#191970" stroke="#191970" points="639.774,-360.6574 630.424,-355.6745 634.6259,-365.4005 639.774,-360.6574"/>
</g>
<!-- Node34&#45;&gt;Node25 -->
<g id="edge65" class="edge">
<title>Node34&#45;&gt;Node25</title>
<path fill="none" stroke="#191970" d="M871.5263,-459.4688C907.7683,-442.4468 975,-403.1656 975,-346 975,-346 975,-346 975,-234 975,-201.2688 967.0148,-163.9052 961.3978,-141.6716"/>
<polygon fill="#191970" stroke="#191970" points="964.7289,-140.5763 958.8035,-131.7934 957.9585,-142.3545 964.7289,-140.5763"/>
</g>
<!-- Node34&#45;&gt;Node31 -->
<g id="edge67" class="edge">
<title>Node34&#45;&gt;Node31</title>
<path fill="none" stroke="#191970" d="M929.6007,-467.3457C1062.9573,-463.7662 1317.6182,-453.0387 1345,-423 1372.0366,-393.34 1425.2512,-342.6261 1271,-168 1257.674,-152.9138 1238.3279,-142.3696 1220.4129,-135.22"/>
<polygon fill="#191970" stroke="#191970" points="1221.2475,-131.7962 1210.6547,-131.59 1218.8069,-138.357 1221.2475,-131.7962"/>
</g>
<!-- Node35 -->
<g id="node36" class="node">
<title>Node35</title>
<polygon fill="none" stroke="#bfbfbf" points="1393.5,-398 1393.5,-417 1470.5,-417 1470.5,-398 1393.5,-398"/>
<text text-anchor="middle" x="1432" y="-405" font-family="FreeSans.ttf" font-size="10.00" fill="#000000">Eigen/Dense</text>
</g>
<!-- Node34&#45;&gt;Node35 -->
<g id="edge63" class="edge">
<title>Node34&#45;&gt;Node35</title>
<path fill="none" stroke="#191970" d="M929.583,-466.9578C1034.0487,-463.1829 1221.5063,-452.5625 1379,-423 1383.6993,-422.1179 1388.5793,-420.9912 1393.3911,-419.7487"/>
<polygon fill="#191970" stroke="#191970" points="1394.3809,-423.1064 1403.0926,-417.0768 1392.5222,-416.3577 1394.3809,-423.1064"/>
</g>
<!-- Node36 -->
<g id="node37" class="node">
<title>Node36</title>
<g id="a_node37"><a xlink:href="SpatialMotionVector_8h.html" target="_top" xlink:title="iDynTree/Core/SpatialMotion\lVector.h">
<polygon fill="none" stroke="#000000" points="1180.5,-392.5 1180.5,-422.5 1335.5,-422.5 1335.5,-392.5 1180.5,-392.5"/>
<text text-anchor="start" x="1188.5" y="-410.5" font-family="FreeSans.ttf" font-size="10.00" fill="#000000">iDynTree/Core/SpatialMotion</text>
<text text-anchor="middle" x="1258" y="-399.5" font-family="FreeSans.ttf" font-size="10.00" fill="#000000">Vector.h</text>
</a>
</g>
</g>
<!-- Node34&#45;&gt;Node36 -->
<g id="edge68" class="edge">
<title>Node34&#45;&gt;Node36</title>
<path fill="none" stroke="#191970" d="M914.5551,-459.4984C977.5144,-450.3271 1075.2948,-435.9627 1160,-423 1163.4241,-422.476 1166.9149,-421.9387 1170.4409,-421.3934"/>
<polygon fill="#191970" stroke="#191970" points="1171.1001,-424.833 1180.4446,-419.8399 1170.0259,-417.916 1171.1001,-424.833"/>
</g>
<!-- Node38 -->
<g id="node39" class="node">
<title>Node38</title>
<g id="a_node39"><a xlink:href="SpatialForceVector_8h.html" target="_top" xlink:title="iDynTree/Core/SpatialForce\lVector.h">
<polygon fill="none" stroke="#000000" points="1003,-392.5 1003,-422.5 1151,-422.5 1151,-392.5 1003,-392.5"/>
<text text-anchor="start" x="1011" y="-410.5" font-family="FreeSans.ttf" font-size="10.00" fill="#000000">iDynTree/Core/SpatialForce</text>
<text text-anchor="middle" x="1077" y="-399.5" font-family="FreeSans.ttf" font-size="10.00" fill="#000000">Vector.h</text>
</a>
</g>
</g>
<!-- Node34&#45;&gt;Node38 -->
<g id="edge78" class="edge">
<title>Node34&#45;&gt;Node38</title>
<path fill="none" stroke="#191970" d="M884.625,-459.3906C918.482,-450.2581 970.215,-436.3038 1011.5093,-425.1653"/>
<polygon fill="#191970" stroke="#191970" points="1012.4815,-428.5282 1021.2249,-422.5446 1010.6585,-421.7697 1012.4815,-428.5282"/>
</g>
<!-- Node36&#45;&gt;Node25 -->
<g id="edge69" class="edge">
<title>Node36&#45;&gt;Node25</title>
<path fill="none" stroke="#191970" d="M1263.5615,-392.3779C1277.9135,-350.418 1311.1051,-231.4599 1252,-168 1244.8048,-160.2747 1127.621,-143.8393 1042.8907,-132.8534"/>
<polygon fill="#191970" stroke="#191970" points="1043.094,-129.3507 1032.7282,-131.5417 1042.1979,-136.2931 1043.094,-129.3507"/>
</g>
<!-- Node36&#45;&gt;Node29 -->
<g id="edge70" class="edge">
<title>Node36&#45;&gt;Node29</title>
<path fill="none" stroke="#191970" d="M1258.0455,-392.3451C1257.6885,-377.6152 1256.0619,-354.7812 1250,-336 1232.363,-281.3562 1194.6835,-224.3779 1174.4712,-196.1265"/>
<polygon fill="#191970" stroke="#191970" points="1177.051,-193.7229 1168.3404,-187.6917 1171.3887,-197.8386 1177.051,-193.7229"/>
</g>
<!-- Node37 -->
<g id="node38" class="node">
<title>Node37</title>
<g id="a_node38"><a xlink:href="SpatialVector_8h.html" target="_top" xlink:title="iDynTree/Core/SpatialVector.h">
<polygon fill="none" stroke="#000000" points="1079.5,-336.5 1079.5,-355.5 1240.5,-355.5 1240.5,-336.5 1079.5,-336.5"/>
<text text-anchor="middle" x="1160" y="-343.5" font-family="FreeSans.ttf" font-size="10.00" fill="#000000">iDynTree/Core/SpatialVector.h</text>
</a>
</g>
</g>
<!-- Node36&#45;&gt;Node37 -->
<g id="edge71" class="edge">
<title>Node36&#45;&gt;Node37</title>
<path fill="none" stroke="#191970" d="M1234.0265,-392.4554C1218.8224,-382.9141 1199.2241,-370.6151 1184.0125,-361.0691"/>
<polygon fill="#191970" stroke="#191970" points="1185.5172,-357.8813 1175.1865,-355.5303 1181.7963,-363.8105 1185.5172,-357.8813"/>
</g>
<!-- Node37&#45;&gt;Node6 -->
<g id="edge74" class="edge">
<title>Node37&#45;&gt;Node6</title>
<path fill="none" stroke="#191970" d="M1172.289,-336.3293C1206.5841,-308.2045 1297.891,-224.8378 1252,-168 1204.3025,-108.9247 1156.5022,-157.5415 1085,-132 1066.6556,-125.4472 1064.565,-117.899 1046,-112 961.4519,-85.1351 859.4579,-73.9243 793.0113,-69.2688"/>
<polygon fill="#191970" stroke="#191970" points="792.8717,-65.7517 782.6604,-68.5765 792.4045,-72.7361 792.8717,-65.7517"/>
</g>
<!-- Node37&#45;&gt;Node23 -->
<g id="edge72" class="edge">
<title>Node37&#45;&gt;Node23</title>
<path fill="none" stroke="#191970" d="M1079.456,-337.6162C977.1486,-326.9671 801.7542,-308.7105 700.454,-298.1662"/>
<polygon fill="#191970" stroke="#191970" points="700.5938,-294.6619 690.2852,-297.1078 699.8691,-301.6243 700.5938,-294.6619"/>
</g>
<!-- Node37&#45;&gt;Node26 -->
<g id="edge77" class="edge">
<title>Node37&#45;&gt;Node26</title>
<path fill="none" stroke="#191970" d="M1192.1458,-336.4846C1231.1619,-323.0065 1295.1794,-294.2279 1323,-244 1339.3663,-214.452 1336.332,-199.0354 1323,-168 1303.0094,-121.4643 1248.9056,-93.0405 1211.7087,-78.4025"/>
<polygon fill="#191970" stroke="#191970" points="1212.7699,-75.0621 1202.1781,-74.8054 1210.298,-81.6111 1212.7699,-75.0621"/>
</g>
<!-- Node37&#45;&gt;Node28 -->
<g id="edge73" class="edge">
<title>Node37&#45;&gt;Node28</title>
<path fill="none" stroke="#191970" d="M1131.8644,-336.4509C1072.5624,-316.3242 934.7052,-269.5363 867.7887,-246.8253"/>
<polygon fill="#191970" stroke="#191970" points="868.6588,-243.4245 858.0644,-243.5249 866.409,-250.0532 868.6588,-243.4245"/>
</g>
<!-- Node37&#45;&gt;Node29 -->
<g id="edge75" class="edge">
<title>Node37&#45;&gt;Node29</title>
<path fill="none" stroke="#191970" d="M1160.0566,-336.4862C1160.2147,-309.9293 1160.6633,-234.5651 1160.88,-198.1655"/>
<polygon fill="#191970" stroke="#191970" points="1164.3818,-197.8486 1160.9415,-187.8279 1157.3819,-197.8068 1164.3818,-197.8486"/>
</g>
<!-- Node37&#45;&gt;Node32 -->
<g id="edge76" class="edge">
<title>Node37&#45;&gt;Node32</title>
<path fill="none" stroke="#191970" d="M1205.5109,-336.4339C1280.7849,-319.2876 1423,-280.712 1423,-234 1423,-234 1423,-234 1423,-178 1423,-138.0704 1389.356,-101.9919 1366.5461,-82.1198"/>
<polygon fill="#191970" stroke="#191970" points="1368.6269,-79.297 1358.715,-75.5547 1364.1297,-84.6614 1368.6269,-79.297"/>
</g>
<!-- Node38&#45;&gt;Node25 -->
<g id="edge79" class="edge">
<title>Node38&#45;&gt;Node25</title>
<path fill="none" stroke="#191970" d="M1062.1563,-392.2253C1043.25,-371.0891 1013,-330.8831 1013,-290 1013,-290 1013,-290 1013,-234 1013,-197.1826 988.2325,-160.2377 971.3499,-139.3313"/>
<polygon fill="#191970" stroke="#191970" points="974.0131,-137.06 964.9063,-131.6456 968.6489,-141.5574 974.0131,-137.06"/>
</g>
<!-- Node38&#45;&gt;Node29 -->
<g id="edge80" class="edge">
<title>Node38&#45;&gt;Node29</title>
<path fill="none" stroke="#191970" d="M1072.8202,-392.4527C1069.4278,-377.8025 1065.9613,-355.0259 1071,-336 1085.804,-280.1011 1125.5011,-223.3035 1146.8884,-195.5126"/>
<polygon fill="#191970" stroke="#191970" points="1149.7182,-197.5758 1153.1341,-187.5467 1144.2096,-193.2566 1149.7182,-197.5758"/>
</g>
<!-- Node38&#45;&gt;Node37 -->
<g id="edge81" class="edge">
<title>Node38&#45;&gt;Node37</title>
<path fill="none" stroke="#191970" d="M1097.5169,-392.2977C1109.9982,-383.0495 1125.9159,-371.2551 1138.5614,-361.8853"/>
<polygon fill="#191970" stroke="#191970" points="1140.7596,-364.6126 1146.7106,-355.8469 1136.5922,-358.9882 1140.7596,-364.6126"/>
</g>
</g>
</svg>
