<?xml version="1.0" encoding="UTF-8" standalone="no"?>
<!DOCTYPE svg PUBLIC "-//W3C//DTD SVG 1.1//EN"
 "http://www.w3.org/Graphics/SVG/1.1/DTD/svg11.dtd">
<!-- Generated by graphviz version 2.40.1 (20161225.0304)
 -->
<!-- Title: Rotation.h Pages: 1 -->
<svg width="915pt" height="252pt"
 viewBox="0.00 0.00 915.00 252.00" xmlns="http://www.w3.org/2000/svg" xmlns:xlink="http://www.w3.org/1999/xlink">
<g id="graph0" class="graph" transform="scale(1 1) rotate(0) translate(4 248)">
<title>Rotation.h</title>
<!-- Node0 -->
<g id="node1" class="node">
<title>Node0</title>
<polygon fill="#bfbfbf" stroke="#000000" points="166,-224.5 166,-243.5 232,-243.5 232,-224.5 166,-224.5"/>
<text text-anchor="middle" x="199" y="-231.5" font-family="FreeSans.ttf" font-size="10.00" fill="#000000">Rotation.h</text>
</g>
<!-- Node1 -->
<g id="node2" class="node">
<title>Node1</title>
<polygon fill="none" stroke="#bfbfbf" points="0,-56.5 0,-75.5 44,-75.5 44,-56.5 0,-56.5"/>
<text text-anchor="middle" x="22" y="-63.5" font-family="FreeSans.ttf" font-size="10.00" fill="#000000">string</text>
</g>
<!-- Node0&#45;&gt;Node1 -->
<g id="edge1" class="edge">
<title>Node0&#45;&gt;Node1</title>
<path fill="none" stroke="#191970" d="M165.699,-230.1706C119.439,-224.0876 39.4321,-210.5415 22,-188 -.8901,-158.4007 7.8117,-111.5556 15.4041,-85.3621"/>
<polygon fill="#191970" stroke="#191970" points="18.7468,-86.3996 18.3936,-75.8107 12.0663,-84.3087 18.7468,-86.3996"/>
</g>
<!-- Node2 -->
<g id="node3" class="node">
<title>Node2</title>
<g id="a_node3"><a xlink:href="GeomVector3_8h.html" target="_top" xlink:title="iDynTree/Core/GeomVector3.h">
<polygon fill="none" stroke="#000000" points="207.5,-168.5 207.5,-187.5 370.5,-187.5 370.5,-168.5 207.5,-168.5"/>
<text text-anchor="middle" x="289" y="-175.5" font-family="FreeSans.ttf" font-size="10.00" fill="#000000">iDynTree/Core/GeomVector3.h</text>
</a>
</g>
</g>
<!-- Node0&#45;&gt;Node2 -->
<g id="edge2" class="edge">
<title>Node0&#45;&gt;Node2</title>
<path fill="none" stroke="#191970" d="M214.6768,-224.2455C228.4856,-215.6534 248.8193,-203.0014 264.7292,-193.1018"/>
<polygon fill="#191970" stroke="#191970" points="266.8613,-195.8974 273.5028,-187.6427 263.1632,-189.954 266.8613,-195.8974"/>
</g>
<!-- Node3 -->
<g id="node4" class="node">
<title>Node3</title>
<g id="a_node4"><a xlink:href="VectorFixSize_8h.html" target="_top" xlink:title="iDynTree/Core/VectorFixSize.h">
<polygon fill="none" stroke="#000000" points="273.5,-112.5 273.5,-131.5 434.5,-131.5 434.5,-112.5 273.5,-112.5"/>
<text text-anchor="middle" x="354" y="-119.5" font-family="FreeSans.ttf" font-size="10.00" fill="#000000">iDynTree/Core/VectorFixSize.h</text>
</a>
</g>
</g>
<!-- Node0&#45;&gt;Node3 -->
<g id="edge29" class="edge">
<title>Node0&#45;&gt;Node3</title>
<path fill="none" stroke="#191970" d="M232.2564,-230.3843C279.4233,-224.493 362.0372,-211.099 380,-188 391.1441,-173.6695 380.8342,-153.9597 370.0821,-139.8168"/>
<polygon fill="#191970" stroke="#191970" points="372.5708,-137.3325 363.5181,-131.8281 367.1623,-141.7765 372.5708,-137.3325"/>
</g>
<!-- Node17 -->
<g id="node18" class="node">
<title>Node17</title>
<g id="a_node18"><a xlink:href="RotationRaw_8h.html" target="_top" xlink:title="iDynTree/Core/RotationRaw.h">
<polygon fill="none" stroke="#000000" points="31,-168.5 31,-187.5 189,-187.5 189,-168.5 31,-168.5"/>
<text text-anchor="middle" x="110" y="-175.5" font-family="FreeSans.ttf" font-size="10.00" fill="#000000">iDynTree/Core/RotationRaw.h</text>
</a>
</g>
</g>
<!-- Node0&#45;&gt;Node17 -->
<g id="edge20" class="edge">
<title>Node0&#45;&gt;Node17</title>
<path fill="none" stroke="#191970" d="M183.4974,-224.2455C169.842,-215.6534 149.7343,-203.0014 134.0011,-193.1018"/>
<polygon fill="#191970" stroke="#191970" points="135.6529,-190.006 125.325,-187.6427 131.9249,-195.9307 135.6529,-190.006"/>
</g>
<!-- Node2&#45;&gt;Node3 -->
<g id="edge3" class="edge">
<title>Node2&#45;&gt;Node3</title>
<path fill="none" stroke="#191970" d="M300.3221,-168.2455C309.9223,-159.9746 323.8892,-147.9416 335.1695,-138.2232"/>
<polygon fill="#191970" stroke="#191970" points="337.516,-140.8214 342.8076,-131.6427 332.947,-135.5182 337.516,-140.8214"/>
</g>
<!-- Node3&#45;&gt;Node1 -->
<g id="edge16" class="edge">
<title>Node3&#45;&gt;Node1</title>
<path fill="none" stroke="#191970" d="M297.3044,-112.4369C227.3612,-100.6392 110.8131,-80.9805 54.468,-71.4765"/>
<polygon fill="#191970" stroke="#191970" points="54.7955,-67.9824 44.3526,-69.7703 53.6312,-74.8849 54.7955,-67.9824"/>
</g>
<!-- Node4 -->
<g id="node5" class="node">
<title>Node4</title>
<g id="a_node5"><a xlink:href="Utils_8h.html" target="_top" xlink:title="iDynTree/Core/Utils.h">
<polygon fill="none" stroke="#000000" points="320.5,-56.5 320.5,-75.5 439.5,-75.5 439.5,-56.5 320.5,-56.5"/>
<text text-anchor="middle" x="380" y="-63.5" font-family="FreeSans.ttf" font-size="10.00" fill="#000000">iDynTree/Core/Utils.h</text>
</a>
</g>
</g>
<!-- Node3&#45;&gt;Node4 -->
<g id="edge4" class="edge">
<title>Node3&#45;&gt;Node4</title>
<path fill="none" stroke="#191970" d="M358.5289,-112.2455C362.0334,-104.6973 366.9927,-94.0158 371.2623,-84.8197"/>
<polygon fill="#191970" stroke="#191970" points="374.4864,-86.1867 375.523,-75.6427 368.1373,-83.2389 374.4864,-86.1867"/>
</g>
<!-- Node6 -->
<g id="node7" class="node">
<title>Node6</title>
<g id="a_node7"><a xlink:href="Span_8h.html" target="_top" xlink:title="iDynTree/Core/Span.h">
<polygon fill="none" stroke="#000000" points="513.5,-56.5 513.5,-75.5 634.5,-75.5 634.5,-56.5 513.5,-56.5"/>
<text text-anchor="middle" x="574" y="-63.5" font-family="FreeSans.ttf" font-size="10.00" fill="#000000">iDynTree/Core/Span.h</text>
</a>
</g>
</g>
<!-- Node3&#45;&gt;Node6 -->
<g id="edge6" class="edge">
<title>Node3&#45;&gt;Node6</title>
<path fill="none" stroke="#191970" d="M391.8193,-112.3733C429.1938,-102.8598 486.4724,-88.2797 526.8071,-78.0127"/>
<polygon fill="#191970" stroke="#191970" points="527.8466,-81.3598 536.6742,-75.5011 526.1198,-74.5761 527.8466,-81.3598"/>
</g>
<!-- Node7 -->
<g id="node8" class="node">
<title>Node7</title>
<polygon fill="none" stroke="#bfbfbf" points="274,-.5 274,-19.5 326,-19.5 326,-.5 274,-.5"/>
<text text-anchor="middle" x="300" y="-7.5" font-family="FreeSans.ttf" font-size="10.00" fill="#000000">cassert</text>
</g>
<!-- Node3&#45;&gt;Node7 -->
<g id="edge18" class="edge">
<title>Node3&#45;&gt;Node7</title>
<path fill="none" stroke="#191970" d="M390.8323,-112.4281C425.1424,-101.6551 468.3161,-82.1791 449,-56 447.2571,-53.6379 379.448,-33.3517 335.9167,-20.5199"/>
<polygon fill="#191970" stroke="#191970" points="336.8101,-17.1345 326.2288,-17.669 334.8339,-23.8497 336.8101,-17.1345"/>
</g>
<!-- Node15 -->
<g id="node16" class="node">
<title>Node15</title>
<polygon fill="none" stroke="#bfbfbf" points="178,-56.5 178,-75.5 234,-75.5 234,-56.5 178,-56.5"/>
<text text-anchor="middle" x="206" y="-63.5" font-family="FreeSans.ttf" font-size="10.00" fill="#000000">sstream</text>
</g>
<!-- Node3&#45;&gt;Node15 -->
<g id="edge17" class="edge">
<title>Node3&#45;&gt;Node15</title>
<path fill="none" stroke="#191970" d="M328.5579,-112.3733C304.2674,-103.1822 267.4792,-89.2624 240.5457,-79.0713"/>
<polygon fill="#191970" stroke="#191970" points="241.7016,-75.7666 231.1101,-75.5011 239.2243,-82.3136 241.7016,-75.7666"/>
</g>
<!-- Node16 -->
<g id="node17" class="node">
<title>Node16</title>
<polygon fill="none" stroke="#bfbfbf" points="252,-56.5 252,-75.5 302,-75.5 302,-56.5 252,-56.5"/>
<text text-anchor="middle" x="277" y="-63.5" font-family="FreeSans.ttf" font-size="10.00" fill="#000000">cstring</text>
</g>
<!-- Node3&#45;&gt;Node16 -->
<g id="edge19" class="edge">
<title>Node3&#45;&gt;Node16</title>
<path fill="none" stroke="#191970" d="M340.5876,-112.2455C328.9943,-103.814 312.0252,-91.4729 298.5322,-81.6598"/>
<polygon fill="#191970" stroke="#191970" points="300.4047,-78.6938 290.2587,-75.6427 296.2874,-84.355 300.4047,-78.6938"/>
</g>
<!-- Node5 -->
<g id="node6" class="node">
<title>Node5</title>
<polygon fill="none" stroke="#bfbfbf" points="344.5,-.5 344.5,-19.5 397.5,-19.5 397.5,-.5 344.5,-.5"/>
<text text-anchor="middle" x="371" y="-7.5" font-family="FreeSans.ttf" font-size="10.00" fill="#000000">cstddef</text>
</g>
<!-- Node4&#45;&gt;Node5 -->
<g id="edge5" class="edge">
<title>Node4&#45;&gt;Node5</title>
<path fill="none" stroke="#191970" d="M378.4323,-56.2455C377.2579,-48.9382 375.6116,-38.6944 374.1668,-29.7046"/>
<polygon fill="#191970" stroke="#191970" points="377.5922,-28.9606 372.5497,-19.6427 370.6809,-30.0714 377.5922,-28.9606"/>
</g>
<!-- Node6&#45;&gt;Node5 -->
<g id="edge10" class="edge">
<title>Node6&#45;&gt;Node5</title>
<path fill="none" stroke="#191970" d="M539.13,-56.4187C507.387,-47.6913 458.9617,-34.3644 407.6813,-20.1845"/>
<polygon fill="#191970" stroke="#191970" points="408.3057,-16.7258 397.7345,-17.4332 406.4396,-23.4725 408.3057,-16.7258"/>
</g>
<!-- Node6&#45;&gt;Node7 -->
<g id="edge7" class="edge">
<title>Node6&#45;&gt;Node7</title>
<path fill="none" stroke="#191970" d="M517.9488,-56.4732C469.5485,-47.9357 397.86,-34.5451 336,-20 335.9013,-19.9768 335.8025,-19.9535 335.7036,-19.9301"/>
<polygon fill="#191970" stroke="#191970" points="336.835,-16.6057 326.2835,-17.5625 335.1287,-23.3946 336.835,-16.6057"/>
</g>
<!-- Node8 -->
<g id="node9" class="node">
<title>Node8</title>
<polygon fill="none" stroke="#bfbfbf" points="783,-.5 783,-19.5 847,-19.5 847,-.5 783,-.5"/>
<text text-anchor="middle" x="815" y="-7.5" font-family="FreeSans.ttf" font-size="10.00" fill="#000000">algorithm</text>
</g>
<!-- Node6&#45;&gt;Node8 -->
<g id="edge8" class="edge">
<title>Node6&#45;&gt;Node8</title>
<path fill="none" stroke="#191970" d="M616.1768,-56.4688C654.543,-47.7608 712.999,-34.3989 772.7864,-20.2674"/>
<polygon fill="#191970" stroke="#191970" points="773.8563,-23.6109 782.7807,-17.9008 772.2433,-16.7993 773.8563,-23.6109"/>
</g>
<!-- Node9 -->
<g id="node10" class="node">
<title>Node9</title>
<polygon fill="none" stroke="#bfbfbf" points="865,-.5 865,-19.5 907,-19.5 907,-.5 865,-.5"/>
<text text-anchor="middle" x="886" y="-7.5" font-family="FreeSans.ttf" font-size="10.00" fill="#000000">array</text>
</g>
<!-- Node6&#45;&gt;Node9 -->
<g id="edge9" class="edge">
<title>Node6&#45;&gt;Node9</title>
<path fill="none" stroke="#191970" d="M634.5264,-58.9766C689.772,-51.9236 773.7496,-39.5945 854.9334,-19.9583"/>
<polygon fill="#191970" stroke="#191970" points="855.9432,-23.3144 864.8179,-17.5273 854.2714,-16.5169 855.9432,-23.3144"/>
</g>
<!-- Node10 -->
<g id="node11" class="node">
<title>Node10</title>
<polygon fill="none" stroke="#bfbfbf" points="415.5,-.5 415.5,-19.5 468.5,-19.5 468.5,-.5 415.5,-.5"/>
<text text-anchor="middle" x="442" y="-7.5" font-family="FreeSans.ttf" font-size="10.00" fill="#000000">iterator</text>
</g>
<!-- Node6&#45;&gt;Node10 -->
<g id="edge11" class="edge">
<title>Node6&#45;&gt;Node10</title>
<path fill="none" stroke="#191970" d="M551.3084,-56.3733C529.9289,-47.3032 497.6943,-33.6279 473.7638,-23.4755"/>
<polygon fill="#191970" stroke="#191970" points="474.9683,-20.1846 464.3955,-19.5011 472.2344,-26.6287 474.9683,-20.1846"/>
</g>
<!-- Node11 -->
<g id="node12" class="node">
<title>Node11</title>
<polygon fill="none" stroke="#bfbfbf" points="487,-.5 487,-19.5 531,-19.5 531,-.5 487,-.5"/>
<text text-anchor="middle" x="509" y="-7.5" font-family="FreeSans.ttf" font-size="10.00" fill="#000000">limits</text>
</g>
<!-- Node6&#45;&gt;Node11 -->
<g id="edge12" class="edge">
<title>Node6&#45;&gt;Node11</title>
<path fill="none" stroke="#191970" d="M562.6779,-56.2455C553.0777,-47.9746 539.1108,-35.9416 527.8305,-26.2232"/>
<polygon fill="#191970" stroke="#191970" points="530.053,-23.5182 520.1924,-19.6427 525.484,-28.8214 530.053,-23.5182"/>
</g>
<!-- Node12 -->
<g id="node13" class="node">
<title>Node12</title>
<polygon fill="none" stroke="#bfbfbf" points="549.5,-.5 549.5,-19.5 614.5,-19.5 614.5,-.5 549.5,-.5"/>
<text text-anchor="middle" x="582" y="-7.5" font-family="FreeSans.ttf" font-size="10.00" fill="#000000">stdexcept</text>
</g>
<!-- Node6&#45;&gt;Node12 -->
<g id="edge13" class="edge">
<title>Node6&#45;&gt;Node12</title>
<path fill="none" stroke="#191970" d="M575.3935,-56.2455C576.4374,-48.9382 577.9008,-38.6944 579.1851,-29.7046"/>
<polygon fill="#191970" stroke="#191970" points="582.673,-30.0372 580.6225,-19.6427 575.7434,-29.0472 582.673,-30.0372"/>
</g>
<!-- Node13 -->
<g id="node14" class="node">
<title>Node13</title>
<polygon fill="none" stroke="#bfbfbf" points="632.5,-.5 632.5,-19.5 701.5,-19.5 701.5,-.5 632.5,-.5"/>
<text text-anchor="middle" x="667" y="-7.5" font-family="FreeSans.ttf" font-size="10.00" fill="#000000">type_traits</text>
</g>
<!-- Node6&#45;&gt;Node13 -->
<g id="edge14" class="edge">
<title>Node6&#45;&gt;Node13</title>
<path fill="none" stroke="#191970" d="M590.1994,-56.2455C604.6018,-47.5731 625.8732,-34.7645 642.3799,-24.825"/>
<polygon fill="#191970" stroke="#191970" points="644.225,-27.7996 650.9863,-19.6427 640.614,-21.8028 644.225,-27.7996"/>
</g>
<!-- Node14 -->
<g id="node15" class="node">
<title>Node14</title>
<polygon fill="none" stroke="#bfbfbf" points="719.5,-.5 719.5,-19.5 764.5,-19.5 764.5,-.5 719.5,-.5"/>
<text text-anchor="middle" x="742" y="-7.5" font-family="FreeSans.ttf" font-size="10.00" fill="#000000">utility</text>
</g>
<!-- Node6&#45;&gt;Node14 -->
<g id="edge15" class="edge">
<title>Node6&#45;&gt;Node14</title>
<path fill="none" stroke="#191970" d="M602.8802,-56.3733C632.5495,-46.4835 678.6442,-31.1186 709.5537,-20.8154"/>
<polygon fill="#191970" stroke="#191970" points="711.0282,-24.0133 719.4082,-17.5306 708.8145,-17.3725 711.0282,-24.0133"/>
</g>
<!-- Node17&#45;&gt;Node1 -->
<g id="edge28" class="edge">
<title>Node17&#45;&gt;Node1</title>
<path fill="none" stroke="#191970" d="M97.4941,-168.3248C86.7268,-159.5921 71.1998,-146.0003 60,-132 48.1697,-117.2115 37.6818,-98.3103 30.7376,-84.5281"/>
<polygon fill="#191970" stroke="#191970" points="33.8749,-82.9764 26.3389,-75.5292 27.586,-86.0504 33.8749,-82.9764"/>
</g>
<!-- Node18 -->
<g id="node19" class="node">
<title>Node18</title>
<g id="a_node19"><a xlink:href="MatrixFixSize_8h.html" target="_top" xlink:title="iDynTree/Core/MatrixFixSize.h">
<polygon fill="none" stroke="#000000" points="69.5,-112.5 69.5,-131.5 230.5,-131.5 230.5,-112.5 69.5,-112.5"/>
<text text-anchor="middle" x="150" y="-119.5" font-family="FreeSans.ttf" font-size="10.00" fill="#000000">iDynTree/Core/MatrixFixSize.h</text>
</a>
</g>
</g>
<!-- Node17&#45;&gt;Node18 -->
<g id="edge21" class="edge">
<title>Node17&#45;&gt;Node18</title>
<path fill="none" stroke="#191970" d="M116.9675,-168.2455C122.5311,-160.4564 130.478,-149.3308 137.1829,-139.9439"/>
<polygon fill="#191970" stroke="#191970" points="140.148,-141.8144 143.1124,-131.6427 134.4519,-137.7457 140.148,-141.8144"/>
</g>
<!-- Node18&#45;&gt;Node1 -->
<g id="edge25" class="edge">
<title>Node18&#45;&gt;Node1</title>
<path fill="none" stroke="#191970" d="M127.996,-112.3733C107.3565,-103.3435 76.2842,-89.7494 53.1111,-79.6111"/>
<polygon fill="#191970" stroke="#191970" points="54.2813,-76.3028 43.7169,-75.5011 51.4755,-82.7159 54.2813,-76.3028"/>
</g>
<!-- Node18&#45;&gt;Node4 -->
<g id="edge22" class="edge">
<title>Node18&#45;&gt;Node4</title>
<path fill="none" stroke="#191970" d="M189.2771,-112.4369C228.4744,-102.8932 288.8,-88.2052 331.0835,-77.9101"/>
<polygon fill="#191970" stroke="#191970" points="331.9968,-81.2901 340.8849,-75.5237 330.3408,-74.4888 331.9968,-81.2901"/>
</g>
<!-- Node18&#45;&gt;Node7 -->
<g id="edge23" class="edge">
<title>Node18&#45;&gt;Node7</title>
<path fill="none" stroke="#191970" d="M130.5607,-112.4388C107.5231,-99.8431 74.2454,-76.8433 91,-56 112.2768,-29.5311 209.7462,-17.4077 263.738,-12.6393"/>
<polygon fill="#191970" stroke="#191970" points="264.2502,-16.1086 273.9212,-11.7816 263.6627,-9.1333 264.2502,-16.1086"/>
</g>
<!-- Node18&#45;&gt;Node15 -->
<g id="edge27" class="edge">
<title>Node18&#45;&gt;Node15</title>
<path fill="none" stroke="#191970" d="M159.7545,-112.2455C167.8648,-104.1352 179.5925,-92.4075 189.2081,-82.7919"/>
<polygon fill="#191970" stroke="#191970" points="191.7611,-85.1887 196.3573,-75.6427 186.8113,-80.2389 191.7611,-85.1887"/>
</g>
<!-- Node18&#45;&gt;Node16 -->
<g id="edge24" class="edge">
<title>Node18&#45;&gt;Node16</title>
<path fill="none" stroke="#191970" d="M171.8321,-112.3733C192.3103,-103.3435 223.1399,-89.7494 246.1319,-79.6111"/>
<polygon fill="#191970" stroke="#191970" points="247.715,-82.7383 255.4528,-75.5011 244.8907,-76.3333 247.715,-82.7383"/>
</g>
<!-- Node19 -->
<g id="node20" class="node">
<title>Node19</title>
<polygon fill="none" stroke="#bfbfbf" points="100,-56.5 100,-75.5 160,-75.5 160,-56.5 100,-56.5"/>
<text text-anchor="middle" x="130" y="-63.5" font-family="FreeSans.ttf" font-size="10.00" fill="#000000">iostream</text>
</g>
<!-- Node18&#45;&gt;Node19 -->
<g id="edge26" class="edge">
<title>Node18&#45;&gt;Node19</title>
<path fill="none" stroke="#191970" d="M146.5163,-112.2455C143.8492,-104.7776 140.0867,-94.2427 136.8263,-85.1137"/>
<polygon fill="#191970" stroke="#191970" points="140.1033,-83.8829 133.4438,-75.6427 133.5111,-86.2373 140.1033,-83.8829"/>
</g>
</g>
</svg>
