<?xml version="1.0" encoding="UTF-8" standalone="no"?>
<!DOCTYPE svg PUBLIC "-//W3C//DTD SVG 1.1//EN"
 "http://www.w3.org/Graphics/SVG/1.1/DTD/svg11.dtd">
<!-- Generated by graphviz version 2.40.1 (20161225.0304)
 -->
<!-- Title: Sensors.cpp Pages: 1 -->
<svg width="1729pt" height="867pt"
 viewBox="0.00 0.00 1728.76 867.00" xmlns="http://www.w3.org/2000/svg" xmlns:xlink="http://www.w3.org/1999/xlink">
<g id="graph0" class="graph" transform="scale(1 1) rotate(0) translate(4 863)">
<title>Sensors.cpp</title>
<!-- Node0 -->
<g id="node1" class="node">
<title>Node0</title>
<polygon fill="#bfbfbf" stroke="#000000" points="286.2589,-839.5 286.2589,-858.5 361.2589,-858.5 361.2589,-839.5 286.2589,-839.5"/>
<text text-anchor="middle" x="323.7589" y="-846.5" font-family="FreeSans.ttf" font-size="10.00" fill="#000000">Sensors.cpp</text>
</g>
<!-- Node1 -->
<g id="node2" class="node">
<title>Node1</title>
<polygon fill="none" stroke="#bfbfbf" points="655.2589,-548.5 655.2589,-567.5 702.2589,-567.5 702.2589,-548.5 655.2589,-548.5"/>
<text text-anchor="middle" x="678.7589" y="-555.5" font-family="FreeSans.ttf" font-size="10.00" fill="#000000">vector</text>
</g>
<!-- Node0&#45;&gt;Node1 -->
<g id="edge1" class="edge">
<title>Node0&#45;&gt;Node1</title>
<path fill="none" stroke="#191970" d="M312.3716,-839.2935C296.4102,-824.4691 270.8163,-795.4393 284.7589,-772 365.4035,-636.4257 565.2672,-581.3932 645.0654,-564.3441"/>
<polygon fill="#191970" stroke="#191970" points="645.9833,-567.7284 655.066,-562.2736 644.564,-560.8738 645.9833,-567.7284"/>
</g>
<!-- Node2 -->
<g id="node3" class="node">
<title>Node2</title>
<polygon fill="none" stroke="#bfbfbf" points="29.7589,-778 29.7589,-797 67.7589,-797 67.7589,-778 29.7589,-778"/>
<text text-anchor="middle" x="48.7589" y="-785" font-family="FreeSans.ttf" font-size="10.00" fill="#000000">map</text>
</g>
<!-- Node0&#45;&gt;Node2 -->
<g id="edge2" class="edge">
<title>Node0&#45;&gt;Node2</title>
<path fill="none" stroke="#191970" d="M286.1332,-844.8239C237.9125,-838.8012 152.1388,-825.8148 81.7589,-803 79.9074,-802.3998 78.0245,-801.7202 76.1446,-800.9888"/>
<polygon fill="#191970" stroke="#191970" points="77.4972,-797.7607 66.9276,-797.0297 74.7344,-804.1924 77.4972,-797.7607"/>
</g>
<!-- Node3 -->
<g id="node4" class="node">
<title>Node3</title>
<g id="a_node4"><a xlink:href="Wrench_8h.html" target="_top" xlink:title="iDynTree/Core/Wrench.h">
<polygon fill="none" stroke="#000000" points="296.2589,-487 296.2589,-506 429.2589,-506 429.2589,-487 296.2589,-487"/>
<text text-anchor="middle" x="362.7589" y="-494" font-family="FreeSans.ttf" font-size="10.00" fill="#000000">iDynTree/Core/Wrench.h</text>
</a>
</g>
</g>
<!-- Node0&#45;&gt;Node3 -->
<g id="edge3" class="edge">
<title>Node0&#45;&gt;Node3</title>
<path fill="none" stroke="#191970" d="M308.7624,-839.3308C297.5991,-831.1671 283.2207,-818.3661 276.7589,-803 271.418,-790.2995 274.6824,-785.6204 276.7589,-772 291.9295,-672.4894 336.2508,-559.5002 354.6287,-515.4678"/>
<polygon fill="#191970" stroke="#191970" points="357.8554,-516.8238 358.5201,-506.2498 351.4065,-514.1013 357.8554,-516.8238"/>
</g>
<!-- Node9 -->
<g id="node10" class="node">
<title>Node9</title>
<polygon fill="none" stroke="#bfbfbf" points="709.7589,-.5 709.7589,-19.5 761.7589,-19.5 761.7589,-.5 709.7589,-.5"/>
<text text-anchor="middle" x="735.7589" y="-7.5" font-family="FreeSans.ttf" font-size="10.00" fill="#000000">cassert</text>
</g>
<!-- Node0&#45;&gt;Node9 -->
<g id="edge112" class="edge">
<title>Node0&#45;&gt;Node9</title>
<path fill="none" stroke="#191970" d="M286.0381,-848.3426C213.6285,-846.2909 58.9289,-837.8366 20.7589,-803 -5.2766,-779.2382 1.7589,-761.2487 1.7589,-726 1.7589,-726 1.7589,-726 1.7589,-122 1.7589,-50.6321 551.0454,-18.9259 699.2754,-11.669"/>
<polygon fill="#191970" stroke="#191970" points="699.8155,-15.1471 709.6354,-11.1699 699.4786,-8.1552 699.8155,-15.1471"/>
</g>
<!-- Node27 -->
<g id="node28" class="node">
<title>Node27</title>
<polygon fill="none" stroke="#bfbfbf" points="282.7589,-56.5 282.7589,-75.5 342.7589,-75.5 342.7589,-56.5 282.7589,-56.5"/>
<text text-anchor="middle" x="312.7589" y="-63.5" font-family="FreeSans.ttf" font-size="10.00" fill="#000000">iostream</text>
</g>
<!-- Node0&#45;&gt;Node27 -->
<g id="edge113" class="edge">
<title>Node0&#45;&gt;Node27</title>
<path fill="none" stroke="#191970" d="M309.5839,-839.4504C297.9073,-830.9956 281.5693,-817.7354 270.7589,-803 112.2883,-586.9919 42.7589,-512.9038 42.7589,-245 42.7589,-245 42.7589,-245 42.7589,-183.5 42.7589,-134.0037 197.2428,-92.1577 272.5029,-74.7084"/>
<polygon fill="#191970" stroke="#191970" points="273.6021,-78.0476 282.5724,-72.4098 272.0442,-71.2231 273.6021,-78.0476"/>
</g>
<!-- Node28 -->
<g id="node29" class="node">
<title>Node28</title>
<g id="a_node29"><a xlink:href="Sensors_8h.html" target="_top" xlink:title="iDynTree/Sensors/Sensors.h">
<polygon fill="none" stroke="#000000" points="759.2589,-716.5 759.2589,-735.5 910.2589,-735.5 910.2589,-716.5 759.2589,-716.5"/>
<text text-anchor="middle" x="834.7589" y="-723.5" font-family="FreeSans.ttf" font-size="10.00" fill="#000000">iDynTree/Sensors/Sensors.h</text>
</a>
</g>
</g>
<!-- Node0&#45;&gt;Node28 -->
<g id="edge48" class="edge">
<title>Node0&#45;&gt;Node28</title>
<path fill="none" stroke="#191970" d="M361.4455,-847.787C469.5196,-843.9852 774.9972,-830.8591 809.7589,-803 826.8437,-789.3077 832.3931,-763.7676 834.1196,-745.8686"/>
<polygon fill="#191970" stroke="#191970" points="837.6278,-745.8525 834.7775,-735.6483 830.6423,-745.4028 837.6278,-745.8525"/>
</g>
<!-- Node29 -->
<g id="node30" class="node">
<title>Node29</title>
<g id="a_node30"><a xlink:href="VectorDynSize_8h.html" target="_top" xlink:title="iDynTree/Core/VectorDynSize.h">
<polygon fill="none" stroke="#000000" points="1526.2589,-235.5 1526.2589,-254.5 1693.2589,-254.5 1693.2589,-235.5 1526.2589,-235.5"/>
<text text-anchor="middle" x="1609.7589" y="-242.5" font-family="FreeSans.ttf" font-size="10.00" fill="#000000">iDynTree/Core/VectorDynSize.h</text>
</a>
</g>
</g>
<!-- Node0&#45;&gt;Node29 -->
<g id="edge111" class="edge">
<title>Node0&#45;&gt;Node29</title>
<path fill="none" stroke="#191970" d="M361.5247,-847.6137C581.0131,-839.3146 1682.7589,-794.2574 1682.7589,-726 1682.7589,-726 1682.7589,-726 1682.7589,-368 1682.7589,-325.0952 1649.5055,-284.0759 1627.8859,-261.9412"/>
<polygon fill="#191970" stroke="#191970" points="1630.1033,-259.2118 1620.5303,-254.6722 1625.1829,-264.1908 1630.1033,-259.2118"/>
</g>
<!-- Node44 -->
<g id="node45" class="node">
<title>Node44</title>
<g id="a_node45"><a xlink:href="SixAxisForceTorqueSensor_8h.html" target="_top" xlink:title="iDynTree/Sensors/SixAxis\lForceTorqueSensor.h">
<polygon fill="none" stroke="#000000" points="660.7589,-772.5 660.7589,-802.5 800.7589,-802.5 800.7589,-772.5 660.7589,-772.5"/>
<text text-anchor="start" x="668.7589" y="-790.5" font-family="FreeSans.ttf" font-size="10.00" fill="#000000">iDynTree/Sensors/SixAxis</text>
<text text-anchor="middle" x="730.7589" y="-779.5" font-family="FreeSans.ttf" font-size="10.00" fill="#000000">ForceTorqueSensor.h</text>
</a>
</g>
</g>
<!-- Node0&#45;&gt;Node44 -->
<g id="edge91" class="edge">
<title>Node0&#45;&gt;Node44</title>
<path fill="none" stroke="#191970" d="M361.6201,-844.3191C420.8469,-836.8561 539.232,-821.3745 650.5023,-802.9871"/>
<polygon fill="#191970" stroke="#191970" points="651.2659,-806.4082 660.5558,-801.3144 650.117,-799.5032 651.2659,-806.4082"/>
</g>
<!-- Node47 -->
<g id="node48" class="node">
<title>Node47</title>
<g id="a_node48"><a xlink:href="AccelerometerSensor_8h.html" target="_top" xlink:title="iDynTree/Sensors/Accelerometer\lSensor.h">
<polygon fill="none" stroke="#000000" points="294.2589,-772.5 294.2589,-802.5 469.2589,-802.5 469.2589,-772.5 294.2589,-772.5"/>
<text text-anchor="start" x="302.2589" y="-790.5" font-family="FreeSans.ttf" font-size="10.00" fill="#000000">iDynTree/Sensors/Accelerometer</text>
<text text-anchor="middle" x="381.7589" y="-779.5" font-family="FreeSans.ttf" font-size="10.00" fill="#000000">Sensor.h</text>
</a>
</g>
</g>
<!-- Node0&#45;&gt;Node47 -->
<g id="edge104" class="edge">
<title>Node0&#45;&gt;Node47</title>
<path fill="none" stroke="#191970" d="M332.8214,-839.3906C340.2349,-831.5298 351.0176,-820.0964 360.5759,-809.9612"/>
<polygon fill="#191970" stroke="#191970" points="363.2557,-812.221 367.5705,-802.5446 358.1631,-807.4183 363.2557,-812.221"/>
</g>
<!-- Node48 -->
<g id="node49" class="node">
<title>Node48</title>
<g id="a_node49"><a xlink:href="GyroscopeSensor_8h.html" target="_top" xlink:title="iDynTree/Sensors/Gyroscope\lSensor.h">
<polygon fill="none" stroke="#000000" points="487.2589,-772.5 487.2589,-802.5 642.2589,-802.5 642.2589,-772.5 487.2589,-772.5"/>
<text text-anchor="start" x="495.2589" y="-790.5" font-family="FreeSans.ttf" font-size="10.00" fill="#000000">iDynTree/Sensors/Gyroscope</text>
<text text-anchor="middle" x="564.7589" y="-779.5" font-family="FreeSans.ttf" font-size="10.00" fill="#000000">Sensor.h</text>
</a>
</g>
</g>
<!-- Node0&#45;&gt;Node48 -->
<g id="edge107" class="edge">
<title>Node0&#45;&gt;Node48</title>
<path fill="none" stroke="#191970" d="M361.1507,-839.4581C397.0421,-830.2991 452.1127,-816.2458 495.9345,-805.0631"/>
<polygon fill="#191970" stroke="#191970" points="496.847,-808.4424 505.6711,-802.5784 495.1161,-801.6598 496.847,-808.4424"/>
</g>
<!-- Node4 -->
<g id="node5" class="node">
<title>Node4</title>
<g id="a_node5"><a xlink:href="SpatialForceVector_8h.html" target="_top" xlink:title="iDynTree/Core/SpatialForce\lVector.h">
<polygon fill="none" stroke="#000000" points="386.7589,-414.5 386.7589,-444.5 534.7589,-444.5 534.7589,-414.5 386.7589,-414.5"/>
<text text-anchor="start" x="394.7589" y="-432.5" font-family="FreeSans.ttf" font-size="10.00" fill="#000000">iDynTree/Core/SpatialForce</text>
<text text-anchor="middle" x="460.7589" y="-421.5" font-family="FreeSans.ttf" font-size="10.00" fill="#000000">Vector.h</text>
</a>
</g>
</g>
<!-- Node3&#45;&gt;Node4 -->
<g id="edge4" class="edge">
<title>Node3&#45;&gt;Node4</title>
<path fill="none" stroke="#191970" d="M376.7999,-486.9005C390.7176,-477.3853 412.4868,-462.5023 430.3708,-450.2755"/>
<polygon fill="#191970" stroke="#191970" points="432.5069,-453.0549 438.7867,-444.5218 428.5562,-447.2763 432.5069,-453.0549"/>
</g>
<!-- Node5 -->
<g id="node6" class="node">
<title>Node5</title>
<g id="a_node6"><a xlink:href="VectorFixSize_8h.html" target="_top" xlink:title="iDynTree/Core/VectorFixSize.h">
<polygon fill="none" stroke="#000000" points="709.2589,-112.5 709.2589,-131.5 870.2589,-131.5 870.2589,-112.5 709.2589,-112.5"/>
<text text-anchor="middle" x="789.7589" y="-119.5" font-family="FreeSans.ttf" font-size="10.00" fill="#000000">iDynTree/Core/VectorFixSize.h</text>
</a>
</g>
</g>
<!-- Node4&#45;&gt;Node5 -->
<g id="edge5" class="edge">
<title>Node4&#45;&gt;Node5</title>
<path fill="none" stroke="#191970" d="M433.0012,-414.3775C400.4146,-394.3605 350.7589,-355.7745 350.7589,-306.5 350.7589,-306.5 350.7589,-306.5 350.7589,-245 350.7589,-209.7513 343.2301,-191.2098 369.7589,-168 423.1095,-121.324 610.9405,-138.5658 698.6256,-131.9352"/>
<polygon fill="#191970" stroke="#191970" points="699.1678,-135.4003 708.8067,-131.0024 698.529,-128.4295 699.1678,-135.4003"/>
</g>
<!-- Node20 -->
<g id="node21" class="node">
<title>Node20</title>
<g id="a_node21"><a xlink:href="GeomVector3_8h.html" target="_top" xlink:title="iDynTree/Core/GeomVector3.h">
<polygon fill="none" stroke="#000000" points="379.2589,-174 379.2589,-193 542.2589,-193 542.2589,-174 379.2589,-174"/>
<text text-anchor="middle" x="460.7589" y="-181" font-family="FreeSans.ttf" font-size="10.00" fill="#000000">iDynTree/Core/GeomVector3.h</text>
</a>
</g>
</g>
<!-- Node4&#45;&gt;Node20 -->
<g id="edge22" class="edge">
<title>Node4&#45;&gt;Node20</title>
<path fill="none" stroke="#191970" d="M460.7589,-414.4819C460.7589,-372.0787 460.7589,-251.4165 460.7589,-203.484"/>
<polygon fill="#191970" stroke="#191970" points="464.259,-203.1955 460.7589,-193.1956 457.259,-203.1956 464.259,-203.1955"/>
</g>
<!-- Node21 -->
<g id="node22" class="node">
<title>Node21</title>
<g id="a_node22"><a xlink:href="SpatialVector_8h.html" target="_top" xlink:title="iDynTree/Core/SpatialVector.h">
<polygon fill="none" stroke="#000000" points="573.2589,-358.5 573.2589,-377.5 734.2589,-377.5 734.2589,-358.5 573.2589,-358.5"/>
<text text-anchor="middle" x="653.7589" y="-365.5" font-family="FreeSans.ttf" font-size="10.00" fill="#000000">iDynTree/Core/SpatialVector.h</text>
</a>
</g>
</g>
<!-- Node4&#45;&gt;Node21 -->
<g id="edge24" class="edge">
<title>Node4&#45;&gt;Node21</title>
<path fill="none" stroke="#191970" d="M507.972,-414.4554C540.5983,-404.059 583.4993,-390.3884 614.303,-380.5727"/>
<polygon fill="#191970" stroke="#191970" points="615.3854,-383.9013 623.8507,-377.5303 613.2601,-377.2317 615.3854,-383.9013"/>
</g>
<!-- Node6 -->
<g id="node7" class="node">
<title>Node6</title>
<g id="a_node7"><a xlink:href="Utils_8h.html" target="_top" xlink:title="iDynTree/Core/Utils.h">
<polygon fill="none" stroke="#000000" points="827.2589,-56.5 827.2589,-75.5 946.2589,-75.5 946.2589,-56.5 827.2589,-56.5"/>
<text text-anchor="middle" x="886.7589" y="-63.5" font-family="FreeSans.ttf" font-size="10.00" fill="#000000">iDynTree/Core/Utils.h</text>
</a>
</g>
</g>
<!-- Node5&#45;&gt;Node6 -->
<g id="edge6" class="edge">
<title>Node5&#45;&gt;Node6</title>
<path fill="none" stroke="#191970" d="M806.655,-112.2455C821.6769,-103.5731 843.8632,-90.7645 861.0799,-80.825"/>
<polygon fill="#191970" stroke="#191970" points="863.146,-83.6737 870.0564,-75.6427 859.6461,-77.6114 863.146,-83.6737"/>
</g>
<!-- Node8 -->
<g id="node9" class="node">
<title>Node8</title>
<g id="a_node9"><a xlink:href="Span_8h.html" target="_top" xlink:title="iDynTree/Core/Span.h">
<polygon fill="none" stroke="#000000" points="1227.2589,-56.5 1227.2589,-75.5 1348.2589,-75.5 1348.2589,-56.5 1227.2589,-56.5"/>
<text text-anchor="middle" x="1287.7589" y="-63.5" font-family="FreeSans.ttf" font-size="10.00" fill="#000000">iDynTree/Core/Span.h</text>
</a>
</g>
</g>
<!-- Node5&#45;&gt;Node8 -->
<g id="edge8" class="edge">
<title>Node5&#45;&gt;Node8</title>
<path fill="none" stroke="#191970" d="M870.317,-114.1866C954.235,-105.8549 1089.788,-91.8578 1217.1347,-76.0415"/>
<polygon fill="#191970" stroke="#191970" points="1217.5802,-79.5132 1227.0699,-74.8017 1216.7134,-72.567 1217.5802,-79.5132"/>
</g>
<!-- Node5&#45;&gt;Node9 -->
<g id="edge20" class="edge">
<title>Node5&#45;&gt;Node9</title>
<path fill="none" stroke="#191970" d="M786.7783,-112.3471C782.5865,-99.2586 774.3769,-75.3013 764.7589,-56 759.9865,-46.4228 753.7553,-36.3089 748.2925,-28.011"/>
<polygon fill="#191970" stroke="#191970" points="751.068,-25.867 742.5701,-19.5395 745.2673,-29.7853 751.068,-25.867"/>
</g>
<!-- Node17 -->
<g id="node18" class="node">
<title>Node17</title>
<polygon fill="none" stroke="#bfbfbf" points="1164.7589,-56.5 1164.7589,-75.5 1208.7589,-75.5 1208.7589,-56.5 1164.7589,-56.5"/>
<text text-anchor="middle" x="1186.7589" y="-63.5" font-family="FreeSans.ttf" font-size="10.00" fill="#000000">string</text>
</g>
<!-- Node5&#45;&gt;Node17 -->
<g id="edge18" class="edge">
<title>Node5&#45;&gt;Node17</title>
<path fill="none" stroke="#191970" d="M857.5545,-112.4369C943.9848,-100.2452 1089.929,-79.6586 1154.4393,-70.5589"/>
<polygon fill="#191970" stroke="#191970" points="1155.0187,-74.0119 1164.4318,-69.1494 1154.0409,-67.0806 1155.0187,-74.0119"/>
</g>
<!-- Node18 -->
<g id="node19" class="node">
<title>Node18</title>
<polygon fill="none" stroke="#bfbfbf" points="582.7589,-56.5 582.7589,-75.5 638.7589,-75.5 638.7589,-56.5 582.7589,-56.5"/>
<text text-anchor="middle" x="610.7589" y="-63.5" font-family="FreeSans.ttf" font-size="10.00" fill="#000000">sstream</text>
</g>
<!-- Node5&#45;&gt;Node18 -->
<g id="edge19" class="edge">
<title>Node5&#45;&gt;Node18</title>
<path fill="none" stroke="#191970" d="M758.9877,-112.3733C728.3691,-102.7943 681.3322,-88.0788 648.4811,-77.8014"/>
<polygon fill="#191970" stroke="#191970" points="649.3642,-74.4104 638.7753,-74.7649 647.2741,-81.0911 649.3642,-74.4104"/>
</g>
<!-- Node19 -->
<g id="node20" class="node">
<title>Node19</title>
<polygon fill="none" stroke="#bfbfbf" points="705.7589,-56.5 705.7589,-75.5 755.7589,-75.5 755.7589,-56.5 705.7589,-56.5"/>
<text text-anchor="middle" x="730.7589" y="-63.5" font-family="FreeSans.ttf" font-size="10.00" fill="#000000">cstring</text>
</g>
<!-- Node5&#45;&gt;Node19 -->
<g id="edge21" class="edge">
<title>Node5&#45;&gt;Node19</title>
<path fill="none" stroke="#191970" d="M779.4819,-112.2455C770.9371,-104.1352 758.5811,-92.4075 748.4504,-82.7919"/>
<polygon fill="#191970" stroke="#191970" points="750.5807,-79.9884 740.9181,-75.6427 745.7617,-85.0655 750.5807,-79.9884"/>
</g>
<!-- Node7 -->
<g id="node8" class="node">
<title>Node7</title>
<polygon fill="none" stroke="#bfbfbf" points="939.2589,-.5 939.2589,-19.5 992.2589,-19.5 992.2589,-.5 939.2589,-.5"/>
<text text-anchor="middle" x="965.7589" y="-7.5" font-family="FreeSans.ttf" font-size="10.00" fill="#000000">cstddef</text>
</g>
<!-- Node6&#45;&gt;Node7 -->
<g id="edge7" class="edge">
<title>Node6&#45;&gt;Node7</title>
<path fill="none" stroke="#191970" d="M900.5196,-56.2455C912.4141,-47.814 929.8239,-35.4729 943.6674,-25.6598"/>
<polygon fill="#191970" stroke="#191970" points="946.0217,-28.2811 952.1558,-19.6427 941.9735,-22.5704 946.0217,-28.2811"/>
</g>
<!-- Node8&#45;&gt;Node7 -->
<g id="edge12" class="edge">
<title>Node8&#45;&gt;Node7</title>
<path fill="none" stroke="#191970" d="M1232.771,-56.4369C1166.9917,-44.997 1058.7114,-26.1657 1002.379,-16.3687"/>
<polygon fill="#191970" stroke="#191970" points="1002.9389,-12.9136 992.487,-14.6484 1001.7394,-19.8101 1002.9389,-12.9136"/>
</g>
<!-- Node8&#45;&gt;Node9 -->
<g id="edge9" class="edge">
<title>Node8&#45;&gt;Node9</title>
<path fill="none" stroke="#191970" d="M1227.0753,-57.1539C1223.9262,-56.7503 1220.8064,-56.3629 1217.7589,-56 1051.5993,-36.2137 852.4092,-19.385 772.024,-12.878"/>
<polygon fill="#191970" stroke="#191970" points="772.1777,-9.3791 761.9289,-12.0646 771.6154,-16.3565 772.1777,-9.3791"/>
</g>
<!-- Node10 -->
<g id="node11" class="node">
<title>Node10</title>
<polygon fill="none" stroke="#bfbfbf" points="1445.7589,-.5 1445.7589,-19.5 1509.7589,-19.5 1509.7589,-.5 1445.7589,-.5"/>
<text text-anchor="middle" x="1477.7589" y="-7.5" font-family="FreeSans.ttf" font-size="10.00" fill="#000000">algorithm</text>
</g>
<!-- Node8&#45;&gt;Node10 -->
<g id="edge10" class="edge">
<title>Node8&#45;&gt;Node10</title>
<path fill="none" stroke="#191970" d="M1320.421,-56.3733C1352.2887,-46.9807 1400.912,-32.6496 1435.6659,-22.4064"/>
<polygon fill="#191970" stroke="#191970" points="1436.9204,-25.6855 1445.5229,-19.5011 1434.9414,-18.9711 1436.9204,-25.6855"/>
</g>
<!-- Node11 -->
<g id="node12" class="node">
<title>Node11</title>
<polygon fill="none" stroke="#bfbfbf" points="1089.7589,-.5 1089.7589,-19.5 1131.7589,-19.5 1131.7589,-.5 1089.7589,-.5"/>
<text text-anchor="middle" x="1110.7589" y="-7.5" font-family="FreeSans.ttf" font-size="10.00" fill="#000000">array</text>
</g>
<!-- Node8&#45;&gt;Node11 -->
<g id="edge11" class="edge">
<title>Node8&#45;&gt;Node11</title>
<path fill="none" stroke="#191970" d="M1256.7338,-56.4738C1228.9246,-47.8949 1186.7774,-34.7944 1141.7062,-20.2702"/>
<polygon fill="#191970" stroke="#191970" points="1142.6399,-16.8938 1132.0482,-17.1504 1140.4881,-23.5549 1142.6399,-16.8938"/>
</g>
<!-- Node12 -->
<g id="node13" class="node">
<title>Node12</title>
<polygon fill="none" stroke="#bfbfbf" points="1590.2589,-.5 1590.2589,-19.5 1643.2589,-19.5 1643.2589,-.5 1590.2589,-.5"/>
<text text-anchor="middle" x="1616.7589" y="-7.5" font-family="FreeSans.ttf" font-size="10.00" fill="#000000">iterator</text>
</g>
<!-- Node8&#45;&gt;Node12 -->
<g id="edge13" class="edge">
<title>Node8&#45;&gt;Node12</title>
<path fill="none" stroke="#191970" d="M1343.9422,-56.4369C1411.3242,-44.9676 1522.3547,-26.0688 1579.7855,-16.2933"/>
<polygon fill="#191970" stroke="#191970" points="1580.5918,-19.7065 1589.8627,-14.5781 1579.4172,-12.8058 1580.5918,-19.7065"/>
</g>
<!-- Node13 -->
<g id="node14" class="node">
<title>Node13</title>
<polygon fill="none" stroke="#bfbfbf" points="1149.7589,-.5 1149.7589,-19.5 1193.7589,-19.5 1193.7589,-.5 1149.7589,-.5"/>
<text text-anchor="middle" x="1171.7589" y="-7.5" font-family="FreeSans.ttf" font-size="10.00" fill="#000000">limits</text>
</g>
<!-- Node8&#45;&gt;Node13 -->
<g id="edge14" class="edge">
<title>Node8&#45;&gt;Node13</title>
<path fill="none" stroke="#191970" d="M1267.8178,-56.3733C1249.2802,-47.4241 1221.4561,-33.9917 1200.5175,-23.8835"/>
<polygon fill="#191970" stroke="#191970" points="1201.9669,-20.6967 1191.4398,-19.5011 1198.9237,-27.0006 1201.9669,-20.6967"/>
</g>
<!-- Node14 -->
<g id="node15" class="node">
<title>Node14</title>
<polygon fill="none" stroke="#bfbfbf" points="1212.2589,-.5 1212.2589,-19.5 1277.2589,-19.5 1277.2589,-.5 1212.2589,-.5"/>
<text text-anchor="middle" x="1244.7589" y="-7.5" font-family="FreeSans.ttf" font-size="10.00" fill="#000000">stdexcept</text>
</g>
<!-- Node8&#45;&gt;Node14 -->
<g id="edge15" class="edge">
<title>Node8&#45;&gt;Node14</title>
<path fill="none" stroke="#191970" d="M1280.2688,-56.2455C1274.2263,-48.3761 1265.5686,-37.101 1258.3148,-27.6542"/>
<polygon fill="#191970" stroke="#191970" points="1261.0294,-25.4426 1252.1631,-19.6427 1255.4773,-29.7058 1261.0294,-25.4426"/>
</g>
<!-- Node15 -->
<g id="node16" class="node">
<title>Node15</title>
<polygon fill="none" stroke="#bfbfbf" points="1295.2589,-.5 1295.2589,-19.5 1364.2589,-19.5 1364.2589,-.5 1295.2589,-.5"/>
<text text-anchor="middle" x="1329.7589" y="-7.5" font-family="FreeSans.ttf" font-size="10.00" fill="#000000">type_traits</text>
</g>
<!-- Node8&#45;&gt;Node15 -->
<g id="edge16" class="edge">
<title>Node8&#45;&gt;Node15</title>
<path fill="none" stroke="#191970" d="M1295.0747,-56.2455C1300.9768,-48.3761 1309.4331,-37.101 1316.5182,-27.6542"/>
<polygon fill="#191970" stroke="#191970" points="1319.3268,-29.7427 1322.5269,-19.6427 1313.7268,-25.5427 1319.3268,-29.7427"/>
</g>
<!-- Node16 -->
<g id="node17" class="node">
<title>Node16</title>
<polygon fill="none" stroke="#bfbfbf" points="1382.2589,-.5 1382.2589,-19.5 1427.2589,-19.5 1427.2589,-.5 1382.2589,-.5"/>
<text text-anchor="middle" x="1404.7589" y="-7.5" font-family="FreeSans.ttf" font-size="10.00" fill="#000000">utility</text>
</g>
<!-- Node8&#45;&gt;Node16 -->
<g id="edge17" class="edge">
<title>Node8&#45;&gt;Node16</title>
<path fill="none" stroke="#191970" d="M1307.8719,-56.3733C1326.5692,-47.4241 1354.6333,-33.9917 1375.7523,-23.8835"/>
<polygon fill="#191970" stroke="#191970" points="1377.3993,-26.9755 1384.9083,-19.5011 1374.3772,-20.6614 1377.3993,-26.9755"/>
</g>
<!-- Node20&#45;&gt;Node5 -->
<g id="edge23" class="edge">
<title>Node20&#45;&gt;Node5</title>
<path fill="none" stroke="#191970" d="M511.8041,-173.9581C570.3615,-163.012 666.3158,-145.0752 728.7596,-133.4026"/>
<polygon fill="#191970" stroke="#191970" points="729.678,-136.7916 738.8646,-131.5137 728.3917,-129.9108 729.678,-136.7916"/>
</g>
<!-- Node21&#45;&gt;Node6 -->
<g id="edge44" class="edge">
<title>Node21&#45;&gt;Node6</title>
<path fill="none" stroke="#191970" d="M657.3004,-358.0684C669.2804,-325.8486 711.3985,-223.1325 779.7589,-168 816.2024,-138.6084 849.6365,-168.659 878.7589,-132 888.956,-119.1639 890.3007,-100.2553 889.477,-85.9634"/>
<polygon fill="#191970" stroke="#191970" points="892.9301,-85.3102 888.4792,-75.6957 885.9629,-85.9874 892.9301,-85.3102"/>
</g>
<!-- Node21&#45;&gt;Node18 -->
<g id="edge47" class="edge">
<title>Node21&#45;&gt;Node18</title>
<path fill="none" stroke="#191970" d="M649.7296,-358.4234C637.1159,-328.8851 596.4915,-237.0237 550.7589,-168 539.2553,-150.6378 527.849,-151.5833 520.7589,-132 517.7329,-123.642 516.1192,-119.5819 520.7589,-112 532.1463,-93.3911 553.7006,-82.0076 572.8607,-75.2205"/>
<polygon fill="#191970" stroke="#191970" points="574.1552,-78.4805 582.5954,-72.0764 572.0037,-71.8194 574.1552,-78.4805"/>
</g>
<!-- Node21&#45;&gt;Node20 -->
<g id="edge45" class="edge">
<title>Node21&#45;&gt;Node20</title>
<path fill="none" stroke="#191970" d="M643.6541,-358.3402C612.5176,-328.5751 517.7691,-237.9994 478.3033,-200.2718"/>
<polygon fill="#191970" stroke="#191970" points="480.4107,-197.4443 470.7636,-193.0641 475.5736,-202.5042 480.4107,-197.4443"/>
</g>
<!-- Node22 -->
<g id="node23" class="node">
<title>Node22</title>
<g id="a_node23"><a xlink:href="Position_8h.html" target="_top" xlink:title="Position.h">
<polygon fill="none" stroke="#000000" points="1048.2589,-297 1048.2589,-316 1113.2589,-316 1113.2589,-297 1048.2589,-297"/>
<text text-anchor="middle" x="1080.7589" y="-304" font-family="FreeSans.ttf" font-size="10.00" fill="#000000">Position.h</text>
</a>
</g>
</g>
<!-- Node21&#45;&gt;Node22 -->
<g id="edge25" class="edge">
<title>Node21&#45;&gt;Node22</title>
<path fill="none" stroke="#191970" d="M720.0091,-358.4581C808.7172,-345.6817 963.5506,-323.3813 1038.1658,-312.6346"/>
<polygon fill="#191970" stroke="#191970" points="1038.7479,-316.087 1048.1468,-311.1971 1037.7499,-309.1585 1038.7479,-316.087"/>
</g>
<!-- Node24 -->
<g id="node25" class="node">
<title>Node24</title>
<g id="a_node25"><a xlink:href="Rotation_8h.html" target="_top" xlink:title="iDynTree/Core/Rotation.h">
<polygon fill="none" stroke="#000000" points="813.2589,-235.5 813.2589,-254.5 950.2589,-254.5 950.2589,-235.5 813.2589,-235.5"/>
<text text-anchor="middle" x="881.7589" y="-242.5" font-family="FreeSans.ttf" font-size="10.00" fill="#000000">iDynTree/Core/Rotation.h</text>
</a>
</g>
</g>
<!-- Node21&#45;&gt;Node24 -->
<g id="edge43" class="edge">
<title>Node21&#45;&gt;Node24</title>
<path fill="none" stroke="#191970" d="M679.3718,-358.3352C701.3901,-349.7114 733.767,-336.2717 760.7589,-322 796.8683,-302.9075 836.3849,-276.6663 860.115,-260.2777"/>
<polygon fill="#191970" stroke="#191970" points="862.1878,-263.0993 868.3968,-254.5145 858.1894,-257.3536 862.1878,-263.0993"/>
</g>
<!-- Node21&#45;&gt;Node27 -->
<g id="edge46" class="edge">
<title>Node21&#45;&gt;Node27</title>
<path fill="none" stroke="#191970" d="M625.9523,-358.3711C570.031,-337.6913 443.0571,-283.9062 369.7589,-199 340.3395,-164.9216 324.1764,-113.3779 317.1268,-85.5223"/>
<polygon fill="#191970" stroke="#191970" points="320.5258,-84.6868 314.7916,-75.7778 313.7185,-86.3182 320.5258,-84.6868"/>
</g>
<!-- Node22&#45;&gt;Node17 -->
<g id="edge42" class="edge">
<title>Node22&#45;&gt;Node17</title>
<path fill="none" stroke="#191970" d="M1091.7906,-296.8117C1110.8459,-279.3669 1149.6234,-240.5962 1167.7589,-199 1184.1537,-161.3963 1186.9894,-112.6869 1187.1584,-85.8797"/>
<polygon fill="#191970" stroke="#191970" points="1190.6581,-85.8074 1187.0993,-75.8281 1183.6582,-85.8486 1190.6581,-85.8074"/>
</g>
<!-- Node23 -->
<g id="node24" class="node">
<title>Node23</title>
<g id="a_node24"><a xlink:href="PositionRaw_8h.html" target="_top" xlink:title="iDynTree/Core/PositionRaw.h">
<polygon fill="none" stroke="#000000" points="1002.7589,-174 1002.7589,-193 1158.7589,-193 1158.7589,-174 1002.7589,-174"/>
<text text-anchor="middle" x="1080.7589" y="-181" font-family="FreeSans.ttf" font-size="10.00" fill="#000000">iDynTree/Core/PositionRaw.h</text>
</a>
</g>
</g>
<!-- Node22&#45;&gt;Node23 -->
<g id="edge26" class="edge">
<title>Node22&#45;&gt;Node23</title>
<path fill="none" stroke="#191970" d="M1080.7589,-296.8484C1080.7589,-276.7295 1080.7589,-229.9608 1080.7589,-203.2098"/>
<polygon fill="#191970" stroke="#191970" points="1084.259,-203.1067 1080.7589,-193.1068 1077.259,-203.1068 1084.259,-203.1067"/>
</g>
<!-- Node22&#45;&gt;Node24 -->
<g id="edge29" class="edge">
<title>Node22&#45;&gt;Node24</title>
<path fill="none" stroke="#191970" d="M1049.6651,-296.8906C1015.3465,-286.2846 959.9846,-269.1753 922.2891,-257.5257"/>
<polygon fill="#191970" stroke="#191970" points="923.2219,-254.1507 912.6343,-254.5419 921.155,-260.8386 923.2219,-254.1507"/>
</g>
<!-- Node23&#45;&gt;Node5 -->
<g id="edge27" class="edge">
<title>Node23&#45;&gt;Node5</title>
<path fill="none" stroke="#191970" d="M1035.6094,-173.9581C984.2111,-163.0956 900.2384,-145.3488 844.9831,-133.6711"/>
<polygon fill="#191970" stroke="#191970" points="845.5219,-130.2077 835.0143,-131.5643 844.0744,-137.0565 845.5219,-130.2077"/>
</g>
<!-- Node23&#45;&gt;Node17 -->
<g id="edge28" class="edge">
<title>Node23&#45;&gt;Node17</title>
<path fill="none" stroke="#191970" d="M1089.4333,-173.8845C1107.2915,-154.0889 1148.3849,-108.5372 1171.0462,-83.4173"/>
<polygon fill="#191970" stroke="#191970" points="1173.865,-85.5179 1177.9646,-75.7484 1168.6674,-80.829 1173.865,-85.5179"/>
</g>
<!-- Node24&#45;&gt;Node5 -->
<g id="edge41" class="edge">
<title>Node24&#45;&gt;Node5</title>
<path fill="none" stroke="#191970" d="M833.7827,-235.4988C813.506,-228.8558 791.8283,-217.6832 779.7589,-199 768.6129,-181.7464 774.2783,-157.7524 780.691,-141.1546"/>
<polygon fill="#191970" stroke="#191970" points="783.9334,-142.4737 784.6368,-131.9023 777.4945,-139.7277 783.9334,-142.4737"/>
</g>
<!-- Node24&#45;&gt;Node17 -->
<g id="edge30" class="edge">
<title>Node24&#45;&gt;Node17</title>
<path fill="none" stroke="#191970" d="M898.6122,-235.36C913.8738,-226.4361 936.8021,-212.54 955.7589,-199 973.4952,-186.3317 975.5902,-180.04 993.7589,-168 1048.3652,-131.8133 1117.2191,-97.9917 1156.1858,-79.8388"/>
<polygon fill="#191970" stroke="#191970" points="1157.8133,-82.9424 1165.4217,-75.5694 1154.876,-76.5884 1157.8133,-82.9424"/>
</g>
<!-- Node24&#45;&gt;Node20 -->
<g id="edge31" class="edge">
<title>Node24&#45;&gt;Node20</title>
<path fill="none" stroke="#191970" d="M816.4395,-235.4581C740.5805,-224.3766 615.6757,-206.1304 535.87,-194.4723"/>
<polygon fill="#191970" stroke="#191970" points="536.286,-190.996 525.885,-193.0137 535.2741,-197.9225 536.286,-190.996"/>
</g>
<!-- Node25 -->
<g id="node26" class="node">
<title>Node25</title>
<g id="a_node26"><a xlink:href="RotationRaw_8h.html" target="_top" xlink:title="iDynTree/Core/RotationRaw.h">
<polygon fill="none" stroke="#000000" points="788.7589,-174 788.7589,-193 946.7589,-193 946.7589,-174 788.7589,-174"/>
<text text-anchor="middle" x="867.7589" y="-181" font-family="FreeSans.ttf" font-size="10.00" fill="#000000">iDynTree/Core/RotationRaw.h</text>
</a>
</g>
</g>
<!-- Node24&#45;&gt;Node25 -->
<g id="edge32" class="edge">
<title>Node24&#45;&gt;Node25</title>
<path fill="none" stroke="#191970" d="M879.5714,-235.3906C877.6103,-226.776 874.6726,-213.8708 872.2174,-203.0858"/>
<polygon fill="#191970" stroke="#191970" points="875.6096,-202.2185 869.9772,-193.2449 868.7842,-203.7723 875.6096,-202.2185"/>
</g>
<!-- Node25&#45;&gt;Node17 -->
<g id="edge40" class="edge">
<title>Node25&#45;&gt;Node17</title>
<path fill="none" stroke="#191970" d="M877.0865,-173.9133C892.8184,-158.3448 926.2968,-127.7265 960.7589,-112 1025.5077,-82.4523 1109.2968,-71.76 1154.4699,-67.9841"/>
<polygon fill="#191970" stroke="#191970" points="1154.86,-71.4644 1164.5601,-67.2032 1154.3198,-64.4853 1154.86,-71.4644"/>
</g>
<!-- Node26 -->
<g id="node27" class="node">
<title>Node26</title>
<g id="a_node27"><a xlink:href="MatrixFixSize_8h.html" target="_top" xlink:title="iDynTree/Core/MatrixFixSize.h">
<polygon fill="none" stroke="#000000" points="530.2589,-112.5 530.2589,-131.5 691.2589,-131.5 691.2589,-112.5 530.2589,-112.5"/>
<text text-anchor="middle" x="610.7589" y="-119.5" font-family="FreeSans.ttf" font-size="10.00" fill="#000000">iDynTree/Core/MatrixFixSize.h</text>
</a>
</g>
</g>
<!-- Node25&#45;&gt;Node26 -->
<g id="edge33" class="edge">
<title>Node25&#45;&gt;Node26</title>
<path fill="none" stroke="#191970" d="M827.8846,-173.9581C782.8683,-163.1857 709.559,-145.6428 660.7509,-133.9631"/>
<polygon fill="#191970" stroke="#191970" points="661.2667,-130.4877 650.7267,-131.5643 659.6375,-137.2955 661.2667,-130.4877"/>
</g>
<!-- Node26&#45;&gt;Node6 -->
<g id="edge34" class="edge">
<title>Node26&#45;&gt;Node6</title>
<path fill="none" stroke="#191970" d="M657.8914,-112.4369C705.5236,-102.7724 779.1556,-87.8326 829.9754,-77.5213"/>
<polygon fill="#191970" stroke="#191970" points="830.7165,-80.9423 839.8208,-75.5237 829.3245,-74.0821 830.7165,-80.9423"/>
</g>
<!-- Node26&#45;&gt;Node9 -->
<g id="edge35" class="edge">
<title>Node26&#45;&gt;Node9</title>
<path fill="none" stroke="#191970" d="M621.4163,-112.4509C642.8183,-93.2747 691.2318,-49.8962 717.6798,-26.1988"/>
<polygon fill="#191970" stroke="#191970" points="720.0163,-28.8048 725.1284,-19.5249 715.345,-23.5914 720.0163,-28.8048"/>
</g>
<!-- Node26&#45;&gt;Node17 -->
<g id="edge37" class="edge">
<title>Node26&#45;&gt;Node17</title>
<path fill="none" stroke="#191970" d="M691.2822,-112.8878C694.1425,-112.5847 696.975,-112.2879 699.7589,-112 870.8001,-94.3144 1075.9282,-75.8289 1154.2263,-68.8723"/>
<polygon fill="#191970" stroke="#191970" points="1154.7643,-72.3384 1164.416,-67.9685 1154.1458,-65.3658 1154.7643,-72.3384"/>
</g>
<!-- Node26&#45;&gt;Node18 -->
<g id="edge39" class="edge">
<title>Node26&#45;&gt;Node18</title>
<path fill="none" stroke="#191970" d="M610.7589,-112.2455C610.7589,-104.9382 610.7589,-94.6944 610.7589,-85.7046"/>
<polygon fill="#191970" stroke="#191970" points="614.259,-85.6426 610.7589,-75.6427 607.259,-85.6427 614.259,-85.6426"/>
</g>
<!-- Node26&#45;&gt;Node19 -->
<g id="edge36" class="edge">
<title>Node26&#45;&gt;Node19</title>
<path fill="none" stroke="#191970" d="M631.3876,-112.3733C650.6507,-103.3838 679.6075,-89.8706 701.3008,-79.7471"/>
<polygon fill="#191970" stroke="#191970" points="702.8176,-82.9017 710.3993,-75.5011 699.8574,-76.5584 702.8176,-82.9017"/>
</g>
<!-- Node26&#45;&gt;Node27 -->
<g id="edge38" class="edge">
<title>Node26&#45;&gt;Node27</title>
<path fill="none" stroke="#191970" d="M559.8694,-112.4369C501.4274,-101.4545 406.7351,-83.66 353.1291,-73.5863"/>
<polygon fill="#191970" stroke="#191970" points="353.453,-70.086 342.9786,-71.6789 352.1601,-76.9656 353.453,-70.086"/>
</g>
<!-- Node28&#45;&gt;Node1 -->
<g id="edge51" class="edge">
<title>Node28&#45;&gt;Node1</title>
<path fill="none" stroke="#191970" d="M822.578,-716.3853C801.1966,-699.18 756.1146,-661.4142 723.7589,-624 710.7866,-608.9996 698.2655,-590.1637 689.7393,-576.4578"/>
<polygon fill="#191970" stroke="#191970" points="692.714,-574.6132 684.5184,-567.8988 686.7381,-578.2585 692.714,-574.6132"/>
</g>
<!-- Node28&#45;&gt;Node12 -->
<g id="edge52" class="edge">
<title>Node28&#45;&gt;Node12</title>
<path fill="none" stroke="#191970" d="M910.4034,-723.0287C1062.6996,-716.6489 1395.8913,-700.5376 1443.7589,-680 1596.2979,-614.553 1720.7589,-595.4863 1720.7589,-429.5 1720.7589,-429.5 1720.7589,-429.5 1720.7589,-122 1720.7589,-77.5129 1676.1529,-43.2585 1645.3665,-24.9145"/>
<polygon fill="#191970" stroke="#191970" points="1646.7383,-21.667 1636.3205,-19.7386 1643.2619,-27.7428 1646.7383,-21.667"/>
</g>
<!-- Node28&#45;&gt;Node17 -->
<g id="edge50" class="edge">
<title>Node28&#45;&gt;Node17</title>
<path fill="none" stroke="#191970" d="M910.5307,-722.4172C1056.0925,-715.1725 1364.4881,-697.9394 1409.7589,-680 1446.7984,-665.3224 1459.104,-658.0695 1479.7589,-624 1538.7936,-526.6241 1544.3175,-187.1457 1458.7589,-112 1418.2387,-76.4113 1271.3188,-88.0788 1218.7589,-76 1218.6596,-75.9772 1218.5602,-75.9542 1218.4607,-75.9311"/>
<polygon fill="#191970" stroke="#191970" points="1219.5806,-72.607 1209.0184,-73.4371 1217.793,-79.3749 1219.5806,-72.607"/>
</g>
<!-- Node28&#45;&gt;Node20 -->
<g id="edge49" class="edge">
<title>Node28&#45;&gt;Node20</title>
<path fill="none" stroke="#191970" d="M794.3113,-716.4339C678.0387,-688.0361 347.3181,-600.6621 286.7589,-512 278.9879,-500.6229 285.2043,-494.6898 286.7589,-481 292.5738,-429.7946 312.7589,-419.5345 312.7589,-368 312.7589,-368 312.7589,-368 312.7589,-306.5 312.7589,-249.8145 377.7691,-214.2387 421.6164,-196.6905"/>
<polygon fill="#191970" stroke="#191970" points="423.0883,-199.8744 431.1646,-193.017 420.5747,-193.3413 423.0883,-199.8744"/>
</g>
<!-- Node28&#45;&gt;Node29 -->
<g id="edge53" class="edge">
<title>Node28&#45;&gt;Node29</title>
<path fill="none" stroke="#191970" d="M910.5273,-721.8699C1093.172,-710.9046 1542.7589,-677.467 1542.7589,-614 1542.7589,-614 1542.7589,-614 1542.7589,-368 1542.7589,-325.9539 1573.3247,-284.5929 1593.1662,-262.1732"/>
<polygon fill="#191970" stroke="#191970" points="1595.981,-264.2822 1600.1594,-254.5461 1590.8215,-259.5514 1595.981,-264.2822"/>
</g>
<!-- Node30 -->
<g id="node31" class="node">
<title>Node30</title>
<g id="a_node31"><a xlink:href="Model_8h.html" target="_top" xlink:title="iDynTree/Model/Model.h">
<polygon fill="none" stroke="#000000" points="962.2589,-660.5 962.2589,-679.5 1095.2589,-679.5 1095.2589,-660.5 962.2589,-660.5"/>
<text text-anchor="middle" x="1028.7589" y="-667.5" font-family="FreeSans.ttf" font-size="10.00" fill="#000000">iDynTree/Model/Model.h</text>
</a>
</g>
</g>
<!-- Node28&#45;&gt;Node30 -->
<g id="edge56" class="edge">
<title>Node28&#45;&gt;Node30</title>
<path fill="none" stroke="#191970" d="M868.1087,-716.3733C900.7869,-706.9404 950.7207,-692.5265 986.2358,-682.2747"/>
<polygon fill="#191970" stroke="#191970" points="987.2072,-685.6373 995.8443,-679.5011 985.2658,-678.9119 987.2072,-685.6373"/>
</g>
<!-- Node32 -->
<g id="node33" class="node">
<title>Node32</title>
<g id="a_node33"><a xlink:href="Indices_8h.html" target="_top" xlink:title="iDynTree/Model/Indices.h">
<polygon fill="none" stroke="#000000" points="1343.7589,-548.5 1343.7589,-567.5 1481.7589,-567.5 1481.7589,-548.5 1343.7589,-548.5"/>
<text text-anchor="middle" x="1412.7589" y="-555.5" font-family="FreeSans.ttf" font-size="10.00" fill="#000000">iDynTree/Model/Indices.h</text>
</a>
</g>
</g>
<!-- Node28&#45;&gt;Node32 -->
<g id="edge90" class="edge">
<title>Node28&#45;&gt;Node32</title>
<path fill="none" stroke="#191970" d="M910.3174,-719.2021C1069.6029,-704.1079 1428.1817,-665.8112 1463.7589,-624 1478.0814,-607.1678 1457.1984,-586.9467 1437.9974,-573.3605"/>
<polygon fill="#191970" stroke="#191970" points="1439.6828,-570.2769 1429.4262,-567.6211 1435.788,-576.0933 1439.6828,-570.2769"/>
</g>
<!-- Node29&#45;&gt;Node8 -->
<g id="edge54" class="edge">
<title>Node29&#45;&gt;Node8</title>
<path fill="none" stroke="#191970" d="M1609.2694,-235.4601C1607.4523,-210.746 1598.9711,-144.3216 1559.7589,-112 1529.7744,-87.2846 1428.5166,-75.4196 1358.3881,-70.0444"/>
<polygon fill="#191970" stroke="#191970" points="1358.5101,-66.5439 1348.2794,-69.2976 1357.9943,-73.5249 1358.5101,-66.5439"/>
</g>
<!-- Node29&#45;&gt;Node17 -->
<g id="edge55" class="edge">
<title>Node29&#45;&gt;Node17</title>
<path fill="none" stroke="#191970" d="M1605.9124,-235.1745C1595.396,-209.7711 1563.5173,-141.8256 1512.7589,-112 1399.2601,-45.3082 1347.4442,-103.7465 1218.7589,-76 1218.6593,-75.9785 1218.5596,-75.9569 1218.4598,-75.9351"/>
<polygon fill="#191970" stroke="#191970" points="1219.5563,-72.6029 1209.0008,-73.5159 1217.8217,-79.3846 1219.5563,-72.6029"/>
</g>
<!-- Node30&#45;&gt;Node1 -->
<g id="edge89" class="edge">
<title>Node30&#45;&gt;Node1</title>
<path fill="none" stroke="#191970" d="M962.0596,-662.7215C893.902,-654.5689 793.1862,-640.3362 757.7589,-624 732.6057,-612.4014 708.9534,-590.6564 694.2038,-575.3014"/>
<polygon fill="#191970" stroke="#191970" points="696.721,-572.8688 687.3415,-567.9419 691.6013,-577.6426 696.721,-572.8688"/>
</g>
<!-- Node31 -->
<g id="node32" class="node">
<title>Node31</title>
<g id="a_node32"><a xlink:href="IJoint_8h.html" target="_top" xlink:title="iDynTree/Model/IJoint.h">
<polygon fill="none" stroke="#000000" points="1310.7589,-604.5 1310.7589,-623.5 1438.7589,-623.5 1438.7589,-604.5 1310.7589,-604.5"/>
<text text-anchor="middle" x="1374.7589" y="-611.5" font-family="FreeSans.ttf" font-size="10.00" fill="#000000">iDynTree/Model/IJoint.h</text>
</a>
</g>
</g>
<!-- Node30&#45;&gt;Node31 -->
<g id="edge57" class="edge">
<title>Node30&#45;&gt;Node31</title>
<path fill="none" stroke="#191970" d="M1087.8453,-660.4369C1148.3045,-650.6516 1242.1776,-635.4582 1305.9494,-625.1368"/>
<polygon fill="#191970" stroke="#191970" points="1306.6039,-628.5765 1315.9162,-623.5237 1305.4854,-621.6664 1306.6039,-628.5765"/>
</g>
<!-- Node30&#45;&gt;Node32 -->
<g id="edge82" class="edge">
<title>Node30&#45;&gt;Node32</title>
<path fill="none" stroke="#191970" d="M1095.5401,-667.4684C1207.8742,-662.5172 1424.712,-649.7156 1447.7589,-624 1460.8324,-609.4126 1446.298,-589.0654 1432.1807,-574.8319"/>
<polygon fill="#191970" stroke="#191970" points="1434.2307,-571.9535 1424.5587,-567.6287 1429.4227,-577.0411 1434.2307,-571.9535"/>
</g>
<!-- Node33 -->
<g id="node34" class="node">
<title>Node33</title>
<g id="a_node34"><a xlink:href="Link_8h.html" target="_top" xlink:title="iDynTree/Model/Link.h">
<polygon fill="none" stroke="#000000" points="1130.7589,-604.5 1130.7589,-623.5 1254.7589,-623.5 1254.7589,-604.5 1130.7589,-604.5"/>
<text text-anchor="middle" x="1192.7589" y="-611.5" font-family="FreeSans.ttf" font-size="10.00" fill="#000000">iDynTree/Model/Link.h</text>
</a>
</g>
</g>
<!-- Node30&#45;&gt;Node33 -->
<g id="edge60" class="edge">
<title>Node30&#45;&gt;Node33</title>
<path fill="none" stroke="#191970" d="M1056.9515,-660.3733C1084.1041,-651.1016 1125.3495,-637.0178 1155.2614,-626.804"/>
<polygon fill="#191970" stroke="#191970" points="1156.6017,-630.0449 1164.9342,-623.5011 1154.3396,-623.4204 1156.6017,-630.0449"/>
</g>
<!-- Node41 -->
<g id="node42" class="node">
<title>Node41</title>
<g id="a_node42"><a xlink:href="Transform_8h.html" target="_top" xlink:title="iDynTree/Core/Transform.h">
<polygon fill="none" stroke="#000000" points="1103.7589,-358.5 1103.7589,-377.5 1249.7589,-377.5 1249.7589,-358.5 1103.7589,-358.5"/>
<text text-anchor="middle" x="1176.7589" y="-365.5" font-family="FreeSans.ttf" font-size="10.00" fill="#000000">iDynTree/Core/Transform.h</text>
</a>
</g>
</g>
<!-- Node30&#45;&gt;Node41 -->
<g id="edge77" class="edge">
<title>Node30&#45;&gt;Node41</title>
<path fill="none" stroke="#191970" d="M1095.3604,-666.1822C1157.1873,-661.0814 1242.753,-649.5163 1263.7589,-624 1325.1399,-549.439 1231.668,-429.3755 1192.5999,-385.1059"/>
<polygon fill="#191970" stroke="#191970" points="1195.0697,-382.618 1185.7802,-377.5234 1189.8651,-387.2991 1195.0697,-382.618"/>
</g>
<!-- Node42 -->
<g id="node43" class="node">
<title>Node42</title>
<g id="a_node43"><a xlink:href="SolidShapes_8h.html" target="_top" xlink:title="iDynTree/Model/SolidShapes.h">
<polygon fill="none" stroke="#000000" points="783.2589,-604.5 783.2589,-623.5 946.2589,-623.5 946.2589,-604.5 783.2589,-604.5"/>
<text text-anchor="middle" x="864.7589" y="-611.5" font-family="FreeSans.ttf" font-size="10.00" fill="#000000">iDynTree/Model/SolidShapes.h</text>
</a>
</g>
</g>
<!-- Node30&#45;&gt;Node42 -->
<g id="edge83" class="edge">
<title>Node30&#45;&gt;Node42</title>
<path fill="none" stroke="#191970" d="M1000.5663,-660.3733C973.4136,-651.1016 932.1682,-637.0178 902.2564,-626.804"/>
<polygon fill="#191970" stroke="#191970" points="903.1781,-623.4204 892.5836,-623.5011 900.9161,-630.0449 903.1781,-623.4204"/>
</g>
<!-- Node43 -->
<g id="node44" class="node">
<title>Node43</title>
<polygon fill="none" stroke="#bfbfbf" points="730.2589,-548.5 730.2589,-567.5 779.2589,-567.5 779.2589,-548.5 730.2589,-548.5"/>
<text text-anchor="middle" x="754.7589" y="-555.5" font-family="FreeSans.ttf" font-size="10.00" fill="#000000">cstdlib</text>
</g>
<!-- Node30&#45;&gt;Node43 -->
<g id="edge88" class="edge">
<title>Node30&#45;&gt;Node43</title>
<path fill="none" stroke="#191970" d="M962.1091,-665.8516C896.0273,-660.3918 800.8441,-648.4587 773.7589,-624 760.9244,-612.4101 756.534,-592.7692 755.1393,-577.9194"/>
<polygon fill="#191970" stroke="#191970" points="758.6213,-577.4985 754.5665,-567.7103 751.6323,-577.8907 758.6213,-577.4985"/>
</g>
<!-- Node31&#45;&gt;Node32 -->
<g id="edge58" class="edge">
<title>Node31&#45;&gt;Node32</title>
<path fill="none" stroke="#191970" d="M1381.378,-604.2455C1386.6634,-596.4564 1394.213,-585.3308 1400.5826,-575.9439"/>
<polygon fill="#191970" stroke="#191970" points="1403.4967,-577.8827 1406.2156,-567.6427 1397.7044,-573.9522 1403.4967,-577.8827"/>
</g>
<!-- Node32&#45;&gt;Node17 -->
<g id="edge59" class="edge">
<title>Node32&#45;&gt;Node17</title>
<path fill="none" stroke="#191970" d="M1419.034,-548.462C1432.045,-527.7356 1460.7589,-476.653 1460.7589,-429.5 1460.7589,-429.5 1460.7589,-429.5 1460.7589,-183.5 1460.7589,-149.9798 1462.2816,-133.73 1436.7589,-112 1361.9872,-48.3396 1314.3002,-98.7004 1218.7589,-76 1218.6598,-75.9765 1218.5605,-75.9528 1218.4612,-75.9289"/>
<polygon fill="#191970" stroke="#191970" points="1219.5941,-72.6093 1209.0284,-73.3942 1217.7775,-79.3695 1219.5941,-72.6093"/>
</g>
<!-- Node33&#45;&gt;Node32 -->
<g id="edge76" class="edge">
<title>Node33&#45;&gt;Node32</title>
<path fill="none" stroke="#191970" d="M1230.5782,-604.3733C1267.9527,-594.8598 1325.2313,-580.2797 1365.566,-570.0127"/>
<polygon fill="#191970" stroke="#191970" points="1366.6055,-573.3598 1375.433,-567.5011 1364.8787,-566.5761 1366.6055,-573.3598"/>
</g>
<!-- Node34 -->
<g id="node35" class="node">
<title>Node34</title>
<g id="a_node35"><a xlink:href="SpatialInertia_8h.html" target="_top" xlink:title="iDynTree/Core/SpatialInertia.h">
<polygon fill="none" stroke="#000000" points="835.7589,-548.5 835.7589,-567.5 997.7589,-567.5 997.7589,-548.5 835.7589,-548.5"/>
<text text-anchor="middle" x="916.7589" y="-555.5" font-family="FreeSans.ttf" font-size="10.00" fill="#000000">iDynTree/Core/SpatialInertia.h</text>
</a>
</g>
</g>
<!-- Node33&#45;&gt;Node34 -->
<g id="edge61" class="edge">
<title>Node33&#45;&gt;Node34</title>
<path fill="none" stroke="#191970" d="M1145.6264,-604.4369C1097.9942,-594.7724 1024.3622,-579.8326 973.5423,-569.5213"/>
<polygon fill="#191970" stroke="#191970" points="974.1933,-566.0821 963.697,-567.5237 972.8013,-572.9423 974.1933,-566.0821"/>
</g>
<!-- Node34&#45;&gt;Node3 -->
<g id="edge75" class="edge">
<title>Node34&#45;&gt;Node3</title>
<path fill="none" stroke="#191970" d="M835.6589,-549.4007C830.9566,-548.9215 826.2971,-548.4516 821.7589,-548 651.1862,-531.0275 607.2838,-537.3849 437.7589,-512 430.2617,-510.8774 422.3838,-509.4859 414.6666,-508.0011"/>
<polygon fill="#191970" stroke="#191970" points="415.1505,-504.5289 404.6597,-506.0102 413.7845,-511.3943 415.1505,-504.5289"/>
</g>
<!-- Node34&#45;&gt;Node5 -->
<g id="edge65" class="edge">
<title>Node34&#45;&gt;Node5</title>
<path fill="none" stroke="#191970" d="M902.6116,-548.4018C889.3081,-539.2794 868.9266,-525.0532 851.7589,-512 834.4086,-498.808 832.7285,-491.7338 813.7589,-481 709.1697,-421.819 629.1487,-478.8239 563.7589,-378 497.4006,-275.6829 683.6003,-172.5077 759.3295,-135.9145"/>
<polygon fill="#191970" stroke="#191970" points="760.8877,-139.0492 768.4117,-131.5899 757.8782,-132.7291 760.8877,-139.0492"/>
</g>
<!-- Node35 -->
<g id="node36" class="node">
<title>Node35</title>
<g id="a_node36"><a xlink:href="SpatialInertiaRaw_8h.html" target="_top" xlink:title="iDynTree/Core/SpatialInertia\lRaw.h">
<polygon fill="none" stroke="#000000" points="447.2589,-481.5 447.2589,-511.5 600.2589,-511.5 600.2589,-481.5 447.2589,-481.5"/>
<text text-anchor="start" x="455.2589" y="-499.5" font-family="FreeSans.ttf" font-size="10.00" fill="#000000">iDynTree/Core/SpatialInertia</text>
<text text-anchor="middle" x="523.7589" y="-488.5" font-family="FreeSans.ttf" font-size="10.00" fill="#000000">Raw.h</text>
</a>
</g>
</g>
<!-- Node34&#45;&gt;Node35 -->
<g id="edge62" class="edge">
<title>Node34&#45;&gt;Node35</title>
<path fill="none" stroke="#191970" d="M849.2929,-548.4765C789.2806,-539.8713 698.868,-526.5804 610.5548,-512.1044"/>
<polygon fill="#191970" stroke="#191970" points="611.0691,-508.642 600.6334,-510.4716 609.9323,-515.5491 611.0691,-508.642"/>
</g>
<!-- Node37 -->
<g id="node38" class="node">
<title>Node37</title>
<g id="a_node38"><a xlink:href="Twist_8h.html" target="_top" xlink:title="iDynTree/Core/Twist.h">
<polygon fill="none" stroke="#000000" points="860.7589,-487 860.7589,-506 982.7589,-506 982.7589,-487 860.7589,-487"/>
<text text-anchor="middle" x="921.7589" y="-494" font-family="FreeSans.ttf" font-size="10.00" fill="#000000">iDynTree/Core/Twist.h</text>
</a>
</g>
</g>
<!-- Node34&#45;&gt;Node37 -->
<g id="edge66" class="edge">
<title>Node34&#45;&gt;Node37</title>
<path fill="none" stroke="#191970" d="M917.5401,-548.3906C918.2332,-539.8657 919.2679,-527.1392 920.1391,-516.4235"/>
<polygon fill="#191970" stroke="#191970" points="923.6447,-516.4956 920.9666,-506.2449 916.6677,-515.9283 923.6447,-516.4956"/>
</g>
<!-- Node39 -->
<g id="node40" class="node">
<title>Node39</title>
<g id="a_node40"><a xlink:href="SpatialMomentum_8h.html" target="_top" xlink:title="iDynTree/Core/SpatialMomentum.h">
<polygon fill="none" stroke="#000000" points="618.7589,-487 618.7589,-506 804.7589,-506 804.7589,-487 618.7589,-487"/>
<text text-anchor="middle" x="711.7589" y="-494" font-family="FreeSans.ttf" font-size="10.00" fill="#000000">iDynTree/Core/SpatialMomentum.h</text>
</a>
</g>
</g>
<!-- Node34&#45;&gt;Node39 -->
<g id="edge71" class="edge">
<title>Node34&#45;&gt;Node39</title>
<path fill="none" stroke="#191970" d="M884.7276,-548.3906C849.3743,-537.7846 792.3432,-520.6753 753.5111,-509.0257"/>
<polygon fill="#191970" stroke="#191970" points="754.1492,-505.5631 743.5652,-506.0419 752.1377,-512.2678 754.1492,-505.5631"/>
</g>
<!-- Node40 -->
<g id="node41" class="node">
<title>Node40</title>
<g id="a_node41"><a xlink:href="SpatialAcc_8h.html" target="_top" xlink:title="iDynTree/Core/SpatialAcc.h">
<polygon fill="none" stroke="#000000" points="1000.7589,-487 1000.7589,-506 1148.7589,-506 1148.7589,-487 1000.7589,-487"/>
<text text-anchor="middle" x="1074.7589" y="-494" font-family="FreeSans.ttf" font-size="10.00" fill="#000000">iDynTree/Core/SpatialAcc.h</text>
</a>
</g>
</g>
<!-- Node34&#45;&gt;Node40 -->
<g id="edge73" class="edge">
<title>Node34&#45;&gt;Node40</title>
<path fill="none" stroke="#191970" d="M941.4464,-548.3906C968.1146,-538.0103 1010.7871,-521.4004 1040.65,-509.7766"/>
<polygon fill="#191970" stroke="#191970" points="1042.1954,-512.9309 1050.2447,-506.0419 1039.6562,-506.4076 1042.1954,-512.9309"/>
</g>
<!-- Node36 -->
<g id="node37" class="node">
<title>Node36</title>
<g id="a_node37"><a xlink:href="RotationalInertiaRaw_8h.html" target="_top" xlink:title="iDynTree/Core/Rotational\lInertiaRaw.h">
<polygon fill="none" stroke="#000000" points="71.2589,-291.5 71.2589,-321.5 208.2589,-321.5 208.2589,-291.5 71.2589,-291.5"/>
<text text-anchor="start" x="79.2589" y="-309.5" font-family="FreeSans.ttf" font-size="10.00" fill="#000000">iDynTree/Core/Rotational</text>
<text text-anchor="middle" x="139.7589" y="-298.5" font-family="FreeSans.ttf" font-size="10.00" fill="#000000">InertiaRaw.h</text>
</a>
</g>
</g>
<!-- Node35&#45;&gt;Node36 -->
<g id="edge63" class="edge">
<title>Node35&#45;&gt;Node36</title>
<path fill="none" stroke="#191970" d="M473.843,-481.4697C445.2014,-472.2123 408.8645,-459.3815 377.7589,-445 300.423,-409.2443 215.4161,-356.1472 170.901,-327.1837"/>
<polygon fill="#191970" stroke="#191970" points="172.5778,-324.0984 162.2929,-321.5547 168.7468,-329.957 172.5778,-324.0984"/>
</g>
<!-- Node36&#45;&gt;Node26 -->
<g id="edge64" class="edge">
<title>Node36&#45;&gt;Node26</title>
<path fill="none" stroke="#191970" d="M155.5812,-291.349C171.7781,-276.2133 198.0137,-252.7115 222.7589,-235 270.5482,-200.7946 281.5292,-188.0876 336.7589,-168 395.8623,-146.5035 465.8374,-134.9715 520.2783,-128.8301"/>
<polygon fill="#191970" stroke="#191970" points="520.6938,-132.3056 530.2567,-127.7449 519.9369,-125.3466 520.6938,-132.3056"/>
</g>
<!-- Node38 -->
<g id="node39" class="node">
<title>Node38</title>
<g id="a_node39"><a xlink:href="SpatialMotionVector_8h.html" target="_top" xlink:title="iDynTree/Core/SpatialMotion\lVector.h">
<polygon fill="none" stroke="#000000" points="723.2589,-414.5 723.2589,-444.5 878.2589,-444.5 878.2589,-414.5 723.2589,-414.5"/>
<text text-anchor="start" x="731.2589" y="-432.5" font-family="FreeSans.ttf" font-size="10.00" fill="#000000">iDynTree/Core/SpatialMotion</text>
<text text-anchor="middle" x="800.7589" y="-421.5" font-family="FreeSans.ttf" font-size="10.00" fill="#000000">Vector.h</text>
</a>
</g>
</g>
<!-- Node37&#45;&gt;Node38 -->
<g id="edge67" class="edge">
<title>Node37&#45;&gt;Node38</title>
<path fill="none" stroke="#191970" d="M904.4225,-486.9005C886.8478,-477.1691 859.1333,-461.823 836.7809,-449.4461"/>
<polygon fill="#191970" stroke="#191970" points="838.3316,-446.304 827.8877,-444.5218 834.9407,-452.4279 838.3316,-446.304"/>
</g>
<!-- Node38&#45;&gt;Node5 -->
<g id="edge68" class="edge">
<title>Node38&#45;&gt;Node5</title>
<path fill="none" stroke="#191970" d="M798.0269,-414.468C791.5186,-377.8018 775.2338,-280.7836 769.7589,-199 768.8386,-185.253 766.9533,-181.4891 769.7589,-168 771.7003,-158.6655 775.6392,-148.9017 779.512,-140.783"/>
<polygon fill="#191970" stroke="#191970" points="782.6492,-142.3353 784.0644,-131.8354 776.4102,-139.161 782.6492,-142.3353"/>
</g>
<!-- Node38&#45;&gt;Node20 -->
<g id="edge69" class="edge">
<title>Node38&#45;&gt;Node20</title>
<path fill="none" stroke="#191970" d="M790.7061,-414.2927C780.0368,-398.8981 762.0769,-375.0013 742.7589,-358 660.3672,-285.4892 544.3071,-224.2059 490.4106,-197.6379"/>
<polygon fill="#191970" stroke="#191970" points="491.6141,-194.3306 481.0926,-193.0862 488.5416,-200.6203 491.6141,-194.3306"/>
</g>
<!-- Node38&#45;&gt;Node21 -->
<g id="edge70" class="edge">
<title>Node38&#45;&gt;Node21</title>
<path fill="none" stroke="#191970" d="M764.7986,-414.4554C740.7016,-404.374 709.2458,-391.2139 685.9686,-381.4755"/>
<polygon fill="#191970" stroke="#191970" points="687.1147,-378.1611 676.5387,-377.5303 684.413,-384.6187 687.1147,-378.1611"/>
</g>
<!-- Node39&#45;&gt;Node4 -->
<g id="edge72" class="edge">
<title>Node39&#45;&gt;Node4</title>
<path fill="none" stroke="#191970" d="M676.0633,-486.9717C637.3979,-476.6507 574.8503,-459.9547 527.1091,-447.211"/>
<polygon fill="#191970" stroke="#191970" points="527.7247,-443.7528 517.1603,-444.5553 525.9193,-450.516 527.7247,-443.7528"/>
</g>
<!-- Node40&#45;&gt;Node38 -->
<g id="edge74" class="edge">
<title>Node40&#45;&gt;Node38</title>
<path fill="none" stroke="#191970" d="M1035.7923,-486.9717C993.3191,-476.5859 924.4468,-459.7449 872.2096,-446.9715"/>
<polygon fill="#191970" stroke="#191970" points="872.8737,-443.5309 862.3285,-444.5553 871.2109,-450.3305 872.8737,-443.5309"/>
</g>
<!-- Node41&#45;&gt;Node17 -->
<g id="edge81" class="edge">
<title>Node41&#45;&gt;Node17</title>
<path fill="none" stroke="#191970" d="M1183.4331,-358.3013C1196.6222,-338.1605 1224.7589,-289.9283 1224.7589,-245 1224.7589,-245 1224.7589,-245 1224.7589,-183.5 1224.7589,-147.2454 1208.1783,-107.6181 1196.9219,-84.8929"/>
<polygon fill="#191970" stroke="#191970" points="1199.888,-83.0073 1192.2033,-75.7137 1193.6624,-86.2076 1199.888,-83.0073"/>
</g>
<!-- Node41&#45;&gt;Node22 -->
<g id="edge78" class="edge">
<title>Node41&#45;&gt;Node22</title>
<path fill="none" stroke="#191970" d="M1161.7589,-358.3906C1146.4008,-348.5519 1122.3068,-333.1167 1104.3843,-321.6351"/>
<polygon fill="#191970" stroke="#191970" points="1105.9619,-318.4891 1095.6535,-316.0419 1102.1859,-324.3833 1105.9619,-318.4891"/>
</g>
<!-- Node41&#45;&gt;Node24 -->
<g id="edge79" class="edge">
<title>Node41&#45;&gt;Node24</title>
<path fill="none" stroke="#191970" d="M1144.4949,-358.4641C1116.4568,-349.8712 1074.9341,-336.4057 1039.7589,-322 992.4157,-302.611 939.3166,-275.5924 908.3063,-259.2536"/>
<polygon fill="#191970" stroke="#191970" points="909.8974,-256.1357 899.4225,-254.5461 906.6198,-262.321 909.8974,-256.1357"/>
</g>
<!-- Node41&#45;&gt;Node26 -->
<g id="edge80" class="edge">
<title>Node41&#45;&gt;Node26</title>
<path fill="none" stroke="#191970" d="M1122.5091,-358.4853C1080.3755,-350.488 1020.7372,-337.8333 969.7589,-322 893.7787,-298.4013 873.8262,-292.6889 803.7589,-255 736.9775,-219.0786 665.1546,-164.9806 631.0152,-138.2018"/>
<polygon fill="#191970" stroke="#191970" points="632.8129,-135.1616 622.7962,-131.7098 628.474,-140.6548 632.8129,-135.1616"/>
</g>
<!-- Node42&#45;&gt;Node1 -->
<g id="edge86" class="edge">
<title>Node42&#45;&gt;Node1</title>
<path fill="none" stroke="#191970" d="M832.7843,-604.3733C799.18,-594.2558 746.5432,-578.4082 712.3451,-568.112"/>
<polygon fill="#191970" stroke="#191970" points="712.9498,-564.6389 702.3653,-565.1073 710.9317,-571.3417 712.9498,-564.6389"/>
</g>
<!-- Node42&#45;&gt;Node17 -->
<g id="edge85" class="edge">
<title>Node42&#45;&gt;Node17</title>
<path fill="none" stroke="#191970" d="M920.3025,-604.4623C960.5074,-596.7513 1015.8038,-584.4694 1062.7589,-568 1219.0733,-513.1731 1251.3246,-460.1303 1342.7589,-322 1383.394,-260.6124 1443.2187,-230.1496 1403.7589,-168 1382.5959,-134.6681 1273.6488,-94.7287 1218.6316,-76.2754"/>
<polygon fill="#191970" stroke="#191970" points="1219.6131,-72.9134 1209.0197,-73.0862 1217.4087,-79.5573 1219.6131,-72.9134"/>
</g>
<!-- Node42&#45;&gt;Node41 -->
<g id="edge87" class="edge">
<title>Node42&#45;&gt;Node41</title>
<path fill="none" stroke="#191970" d="M898.5506,-604.4358C972.0008,-583.34 1140.9839,-533.0255 1157.7589,-512 1186.486,-475.9939 1183.8911,-418.0564 1180.047,-387.8168"/>
<polygon fill="#191970" stroke="#191970" points="1183.4767,-387.0796 1178.5752,-377.6867 1176.5494,-388.0861 1183.4767,-387.0796"/>
</g>
<!-- Node42&#45;&gt;Node43 -->
<g id="edge84" class="edge">
<title>Node42&#45;&gt;Node43</title>
<path fill="none" stroke="#191970" d="M845.5983,-604.2455C828.2478,-595.4125 802.4688,-582.2887 782.8006,-572.2758"/>
<polygon fill="#191970" stroke="#191970" points="784.1994,-569.0605 773.6998,-567.6427 781.0236,-575.2986 784.1994,-569.0605"/>
</g>
<!-- Node44&#45;&gt;Node1 -->
<g id="edge103" class="edge">
<title>Node44&#45;&gt;Node1</title>
<path fill="none" stroke="#191970" d="M727.347,-772.4419C718.2653,-732.3599 693.4986,-623.0534 683.2704,-577.9113"/>
<polygon fill="#191970" stroke="#191970" points="686.6249,-576.8775 681.0016,-567.8981 679.798,-578.4244 686.6249,-576.8775"/>
</g>
<!-- Node44&#45;&gt;Node28 -->
<g id="edge92" class="edge">
<title>Node44&#45;&gt;Node28</title>
<path fill="none" stroke="#191970" d="M756.2001,-772.4554C772.4873,-762.8241 793.5262,-750.3828 809.7319,-740.7996"/>
<polygon fill="#191970" stroke="#191970" points="811.8165,-743.6331 818.6426,-735.5303 808.2534,-737.6078 811.8165,-743.6331"/>
</g>
<!-- Node45 -->
<g id="node46" class="node">
<title>Node45</title>
<g id="a_node46"><a xlink:href="LinkState_8h.html" target="_top" xlink:title="iDynTree/Model/LinkState.h">
<polygon fill="none" stroke="#000000" points="964.2589,-604.5 964.2589,-623.5 1113.2589,-623.5 1113.2589,-604.5 964.2589,-604.5"/>
<text text-anchor="middle" x="1038.7589" y="-611.5" font-family="FreeSans.ttf" font-size="10.00" fill="#000000">iDynTree/Model/LinkState.h</text>
</a>
</g>
</g>
<!-- Node44&#45;&gt;Node45 -->
<g id="edge93" class="edge">
<title>Node44&#45;&gt;Node45</title>
<path fill="none" stroke="#191970" d="M730.8199,-772.4302C731.69,-756.4664 735.4684,-731.4752 749.7589,-716 782.4674,-680.5798 913.6965,-644.192 987.5663,-625.9571"/>
<polygon fill="#191970" stroke="#191970" points="988.7097,-629.2808 997.5927,-623.5066 987.0477,-622.4809 988.7097,-629.2808"/>
</g>
<!-- Node45&#45;&gt;Node1 -->
<g id="edge102" class="edge">
<title>Node45&#45;&gt;Node1</title>
<path fill="none" stroke="#191970" d="M964.23,-605.1472C899.5834,-597.0091 803.6329,-583.8267 720.7589,-568 718.09,-567.4903 715.3348,-566.9245 712.5713,-566.3286"/>
<polygon fill="#191970" stroke="#191970" points="713.192,-562.8806 702.6659,-564.0857 711.646,-569.7078 713.192,-562.8806"/>
</g>
<!-- Node45&#45;&gt;Node3 -->
<g id="edge97" class="edge">
<title>Node45&#45;&gt;Node3</title>
<path fill="none" stroke="#191970" d="M974.0003,-604.4513C931.3829,-597.0787 874.8052,-585.1993 826.7589,-568 808.4189,-561.4348 806.4353,-553.5362 787.7589,-548 637.8309,-503.5576 592.3049,-535.8551 437.7589,-512 430.3582,-510.8577 422.5838,-509.4677 414.9583,-507.9945"/>
<polygon fill="#191970" stroke="#191970" points="415.5546,-504.5446 405.0635,-506.0235 414.1871,-511.4097 415.5546,-504.5446"/>
</g>
<!-- Node45&#45;&gt;Node32 -->
<g id="edge101" class="edge">
<title>Node45&#45;&gt;Node32</title>
<path fill="none" stroke="#191970" d="M1102.6268,-604.4369C1168.2476,-594.6113 1270.2843,-579.3331 1339.2304,-569.0096"/>
<polygon fill="#191970" stroke="#191970" points="1339.7829,-572.466 1349.1544,-567.5237 1338.7463,-565.5432 1339.7829,-572.466"/>
</g>
<!-- Node45&#45;&gt;Node37 -->
<g id="edge95" class="edge">
<title>Node45&#45;&gt;Node37</title>
<path fill="none" stroke="#191970" d="M1036.0535,-604.4837C1031.7435,-590.691 1022.1935,-564.9459 1006.7589,-548 992.1523,-531.9631 971.3926,-519.2572 954.046,-510.4781"/>
<polygon fill="#191970" stroke="#191970" points="955.3463,-507.219 944.8209,-506.0087 952.2942,-513.5186 955.3463,-507.219"/>
</g>
<!-- Node45&#45;&gt;Node40 -->
<g id="edge96" class="edge">
<title>Node45&#45;&gt;Node40</title>
<path fill="none" stroke="#191970" d="M1094.6124,-604.4367C1115.5331,-597.8472 1137.2441,-586.7332 1149.7589,-568 1165.2238,-544.8508 1134.5842,-523.5611 1107.9298,-510.3422"/>
<polygon fill="#191970" stroke="#191970" points="1109.2878,-507.1129 1098.7501,-506.0132 1106.302,-513.4443 1109.2878,-507.1129"/>
</g>
<!-- Node45&#45;&gt;Node41 -->
<g id="edge94" class="edge">
<title>Node45&#45;&gt;Node41</title>
<path fill="none" stroke="#191970" d="M1092.9734,-604.4836C1117.6562,-597.8045 1145.7547,-586.6064 1165.7589,-568 1216.5318,-520.7749 1200.9647,-482.5853 1190.7589,-414 1189.4262,-405.0439 1186.7094,-395.419 1184.0208,-387.3"/>
<polygon fill="#191970" stroke="#191970" points="1187.2524,-385.9402 1180.6212,-377.6772 1180.6522,-388.272 1187.2524,-385.9402"/>
</g>
<!-- Node46 -->
<g id="node47" class="node">
<title>Node46</title>
<g id="a_node47"><a xlink:href="ArticulatedBodyInertia_8h.html" target="_top" xlink:title="iDynTree/Core/Articulated\lBodyInertia.h">
<polygon fill="none" stroke="#000000" points="1253.2589,-168.5 1253.2589,-198.5 1394.2589,-198.5 1394.2589,-168.5 1253.2589,-168.5"/>
<text text-anchor="start" x="1261.2589" y="-186.5" font-family="FreeSans.ttf" font-size="10.00" fill="#000000">iDynTree/Core/Articulated</text>
<text text-anchor="middle" x="1323.7589" y="-175.5" font-family="FreeSans.ttf" font-size="10.00" fill="#000000">BodyInertia.h</text>
</a>
</g>
</g>
<!-- Node45&#45;&gt;Node46 -->
<g id="edge98" class="edge">
<title>Node45&#45;&gt;Node46</title>
<path fill="none" stroke="#191970" d="M1094.6738,-604.4821C1178.9444,-586.5743 1328.7589,-539.298 1328.7589,-429.5 1328.7589,-429.5 1328.7589,-429.5 1328.7589,-306.5 1328.7589,-272.6173 1326.8413,-233.5278 1325.3812,-208.6754"/>
<polygon fill="#191970" stroke="#191970" points="1328.8715,-208.4096 1324.7707,-198.6406 1321.8845,-208.8347 1328.8715,-208.4096"/>
</g>
<!-- Node46&#45;&gt;Node17 -->
<g id="edge100" class="edge">
<title>Node46&#45;&gt;Node17</title>
<path fill="none" stroke="#191970" d="M1306.129,-168.3795C1280.3054,-146.2315 1232.3847,-105.1316 1205.7883,-82.3209"/>
<polygon fill="#191970" stroke="#191970" points="1207.8267,-79.4581 1197.9574,-75.6046 1203.2695,-84.7716 1207.8267,-79.4581"/>
</g>
<!-- Node46&#45;&gt;Node26 -->
<g id="edge99" class="edge">
<title>Node46&#45;&gt;Node26</title>
<path fill="none" stroke="#191970" d="M1253.1217,-176.1455C1226.3913,-173.4508 1195.6838,-170.461 1167.7589,-168 963.1969,-149.9719 909.1245,-151.5932 701.2903,-132.1186"/>
<polygon fill="#191970" stroke="#191970" points="701.5602,-128.6286 691.276,-131.1751 700.9036,-135.5977 701.5602,-128.6286"/>
</g>
<!-- Node47&#45;&gt;Node20 -->
<g id="edge105" class="edge">
<title>Node47&#45;&gt;Node20</title>
<path fill="none" stroke="#191970" d="M355.3402,-772.2965C303.1334,-740.0522 191.7589,-659.3835 191.7589,-558 191.7589,-558 191.7589,-558 191.7589,-496.5 191.7589,-436.4 218.1353,-277.3704 260.7589,-235 278.5417,-217.3228 336.5919,-203.589 385.6017,-194.7661"/>
<polygon fill="#191970" stroke="#191970" points="386.3423,-198.1897 395.5863,-193.0128 385.1316,-191.2952 386.3423,-198.1897"/>
</g>
<!-- Node47&#45;&gt;Node28 -->
<g id="edge106" class="edge">
<title>Node47&#45;&gt;Node28</title>
<path fill="none" stroke="#191970" d="M469.3754,-773.2353C472.202,-772.8129 475.0021,-772.4001 477.7589,-772 570.3443,-758.5643 676.7323,-745.1114 749.1162,-736.2563"/>
<polygon fill="#191970" stroke="#191970" points="749.597,-739.7237 759.0992,-735.0379 748.7488,-732.7753 749.597,-739.7237"/>
</g>
<!-- Node48&#45;&gt;Node1 -->
<g id="edge110" class="edge">
<title>Node48&#45;&gt;Node1</title>
<path fill="none" stroke="#191970" d="M572.2387,-772.4419C592.2753,-732.1052 647.1364,-621.6611 669.292,-577.0583"/>
<polygon fill="#191970" stroke="#191970" points="672.528,-578.4112 673.8422,-567.8981 666.2588,-575.297 672.528,-578.4112"/>
</g>
<!-- Node48&#45;&gt;Node20 -->
<g id="edge108" class="edge">
<title>Node48&#45;&gt;Node20</title>
<path fill="none" stroke="#191970" d="M536.2706,-772.3912C473.3914,-737.0598 324.7471,-642.0753 279.7589,-512 238.8418,-393.6957 236.1883,-317.0154 330.7589,-235 352.3734,-216.255 381.639,-203.8543 406.93,-195.9293"/>
<polygon fill="#191970" stroke="#191970" points="408.1764,-199.2102 416.7644,-193.0056 406.1816,-192.5005 408.1764,-199.2102"/>
</g>
<!-- Node48&#45;&gt;Node28 -->
<g id="edge109" class="edge">
<title>Node48&#45;&gt;Node28</title>
<path fill="none" stroke="#191970" d="M630.8083,-772.4554C677.7356,-761.7664 739.8572,-747.6165 783.1583,-737.7535"/>
<polygon fill="#191970" stroke="#191970" points="783.9455,-741.1639 792.9185,-735.5303 782.3909,-734.3387 783.9455,-741.1639"/>
</g>
</g>
</svg>
