<?xml version="1.0" encoding="UTF-8" standalone="no"?>
<!DOCTYPE svg PUBLIC "-//W3C//DTD SVG 1.1//EN"
 "http://www.w3.org/Graphics/SVG/1.1/DTD/svg11.dtd">
<!-- Generated by graphviz version 2.40.1 (20161225.0304)
 -->
<!-- Title: skinDynLibConversions.cpp Pages: 1 -->
<svg width="2400pt" height="744pt"
 viewBox="0.00 0.00 2399.64 744.00" xmlns="http://www.w3.org/2000/svg" xmlns:xlink="http://www.w3.org/1999/xlink">
<g id="graph0" class="graph" transform="scale(1 1) rotate(0) translate(4 740)">
<title>skinDynLibConversions.cpp</title>
<!-- Node0 -->
<g id="node1" class="node">
<title>Node0</title>
<polygon fill="#bfbfbf" stroke="#000000" points="1258.1427,-716.5 1258.1427,-735.5 1409.1427,-735.5 1409.1427,-716.5 1258.1427,-716.5"/>
<text text-anchor="middle" x="1333.6427" y="-723.5" font-family="FreeSans.ttf" font-size="10.00" fill="#000000">skinDynLibConversions.cpp</text>
</g>
<!-- Node1 -->
<g id="node2" class="node">
<title>Node1</title>
<g id="a_node2"><a xlink:href="skinDynLibConversions_8h.html" target="_top" xlink:title="iDynTree/skinDynLibConversions.h">
<polygon fill="none" stroke="#000000" points="168.1427,-660.5 168.1427,-679.5 353.1427,-679.5 353.1427,-660.5 168.1427,-660.5"/>
<text text-anchor="middle" x="260.6427" y="-667.5" font-family="FreeSans.ttf" font-size="10.00" fill="#000000">iDynTree/skinDynLibConversions.h</text>
</a>
</g>
</g>
<!-- Node0&#45;&gt;Node1 -->
<g id="edge1" class="edge">
<title>Node0&#45;&gt;Node1</title>
<path fill="none" stroke="#191970" d="M1257.7639,-722.0399C1069.0004,-712.1883 578.0627,-686.5662 363.5117,-675.3687"/>
<polygon fill="#191970" stroke="#191970" points="363.6751,-671.8726 353.5062,-674.8466 363.3102,-678.8631 363.6751,-671.8726"/>
</g>
<!-- Node11 -->
<g id="node12" class="node">
<title>Node11</title>
<polygon fill="none" stroke="#bfbfbf" points="1341.6427,-.5 1341.6427,-19.5 1393.6427,-19.5 1393.6427,-.5 1341.6427,-.5"/>
<text text-anchor="middle" x="1367.6427" y="-7.5" font-family="FreeSans.ttf" font-size="10.00" fill="#000000">cassert</text>
</g>
<!-- Node0&#45;&gt;Node11 -->
<g id="edge117" class="edge">
<title>Node0&#45;&gt;Node11</title>
<path fill="none" stroke="#191970" d="M1409.1511,-722.7043C1607.5964,-713.0419 2128.6427,-680.7889 2128.6427,-608.5 2128.6427,-608.5 2128.6427,-608.5 2128.6427,-122 2128.6427,-47.8285 1555.4936,-18.0424 1404.003,-11.465"/>
<polygon fill="#191970" stroke="#191970" points="1403.9782,-7.9609 1393.838,-11.0313 1403.6797,-14.9545 1403.9782,-7.9609"/>
</g>
<!-- Node21 -->
<g id="node17" class="node">
<title>Node21</title>
<g id="a_node17"><a xlink:href="Position_8h.html" target="_top" xlink:title="iDynTree/Core/Position.h">
<polygon fill="none" stroke="#000000" points="922.6427,-291.5 922.6427,-310.5 1058.6427,-310.5 1058.6427,-291.5 922.6427,-291.5"/>
<text text-anchor="middle" x="990.6427" y="-298.5" font-family="FreeSans.ttf" font-size="10.00" fill="#000000">iDynTree/Core/Position.h</text>
</a>
</g>
</g>
<!-- Node0&#45;&gt;Node21 -->
<g id="edge80" class="edge">
<title>Node0&#45;&gt;Node21</title>
<path fill="none" stroke="#191970" d="M1257.7649,-721.6243C1173.013,-715.8321 1032.0387,-703.488 912.6427,-680 824.1688,-662.5951 799.9144,-660.9044 717.6427,-624 692.217,-612.5948 625.0897,-581.4074 611.6427,-557 535.3366,-418.4977 807.1172,-340.5602 931.586,-312.7757"/>
<polygon fill="#191970" stroke="#191970" points="932.7057,-316.1133 941.7231,-310.5511 931.2052,-309.276 932.7057,-316.1133"/>
</g>
<!-- Node36 -->
<g id="node32" class="node">
<title>Node36</title>
<g id="a_node32"><a xlink:href="Wrench_8h.html" target="_top" xlink:title="iDynTree/Core/Wrench.h">
<polygon fill="none" stroke="#000000" points="1929.1427,-476 1929.1427,-495 2062.1427,-495 2062.1427,-476 1929.1427,-476"/>
<text text-anchor="middle" x="1995.6427" y="-483" font-family="FreeSans.ttf" font-size="10.00" fill="#000000">iDynTree/Core/Wrench.h</text>
</a>
</g>
</g>
<!-- Node0&#45;&gt;Node36 -->
<g id="edge81" class="edge">
<title>Node0&#45;&gt;Node36</title>
<path fill="none" stroke="#191970" d="M1360.3771,-716.4608C1432.0717,-690.8588 1634.572,-618.4123 1802.6427,-557 1857.7907,-536.8492 1921.6572,-513.1095 1960.3299,-498.6898"/>
<polygon fill="#191970" stroke="#191970" points="1961.9236,-501.831 1970.0697,-495.0566 1959.4771,-495.2724 1961.9236,-501.831"/>
</g>
<!-- Node42 -->
<g id="node38" class="node">
<title>Node42</title>
<g id="a_node38"><a xlink:href="Model_8h.html" target="_top" xlink:title="iDynTree/Model/Model.h">
<polygon fill="none" stroke="#000000" points="921.1427,-660.5 921.1427,-679.5 1054.1427,-679.5 1054.1427,-660.5 921.1427,-660.5"/>
<text text-anchor="middle" x="987.6427" y="-667.5" font-family="FreeSans.ttf" font-size="10.00" fill="#000000">iDynTree/Model/Model.h</text>
</a>
</g>
</g>
<!-- Node0&#45;&gt;Node42 -->
<g id="edge82" class="edge">
<title>Node0&#45;&gt;Node42</title>
<path fill="none" stroke="#191970" d="M1274.5563,-716.4369C1214.0971,-706.6516 1120.2239,-691.4582 1056.4522,-681.1368"/>
<polygon fill="#191970" stroke="#191970" points="1056.9161,-677.6664 1046.4854,-679.5237 1055.7977,-684.5765 1056.9161,-677.6664"/>
</g>
<!-- Node51 -->
<g id="node46" class="node">
<title>Node51</title>
<g id="a_node46"><a xlink:href="Traversal_8h.html" target="_top" xlink:title="iDynTree/Model/Traversal.h">
<polygon fill="none" stroke="#000000" points="1138.6427,-537.5 1138.6427,-556.5 1286.6427,-556.5 1286.6427,-537.5 1138.6427,-537.5"/>
<text text-anchor="middle" x="1212.6427" y="-544.5" font-family="FreeSans.ttf" font-size="10.00" fill="#000000">iDynTree/Model/Traversal.h</text>
</a>
</g>
</g>
<!-- Node0&#45;&gt;Node51 -->
<g id="edge104" class="edge">
<title>Node0&#45;&gt;Node51</title>
<path fill="none" stroke="#191970" d="M1327.1372,-716.3762C1307.769,-687.7241 1250.2573,-602.6448 1224.8934,-565.1229"/>
<polygon fill="#191970" stroke="#191970" points="1227.6803,-562.996 1219.1804,-556.6714 1221.881,-566.9163 1227.6803,-562.996"/>
</g>
<!-- Node52 -->
<g id="node47" class="node">
<title>Node52</title>
<g id="a_node47"><a xlink:href="ContactWrench_8h.html" target="_top" xlink:title="iDynTree/Model/ContactWrench.h">
<polygon fill="none" stroke="#000000" points="1354.1427,-599 1354.1427,-618 1531.1427,-618 1531.1427,-599 1354.1427,-599"/>
<text text-anchor="middle" x="1442.6427" y="-606" font-family="FreeSans.ttf" font-size="10.00" fill="#000000">iDynTree/Model/ContactWrench.h</text>
</a>
</g>
</g>
<!-- Node0&#45;&gt;Node52 -->
<g id="edge107" class="edge">
<title>Node0&#45;&gt;Node52</title>
<path fill="none" stroke="#191970" d="M1342.5626,-716.3845C1361.0061,-696.5028 1403.5506,-650.6406 1426.7882,-625.5908"/>
<polygon fill="#191970" stroke="#191970" points="1429.3645,-627.96 1433.5995,-618.2484 1424.2326,-623.1993 1429.3645,-627.96"/>
</g>
<!-- Node53 -->
<g id="node48" class="node">
<title>Node53</title>
<g id="a_node48"><a xlink:href="YARPConversions_8h.html" target="_top" xlink:title="iDynTree/yarp/YARPConversions.h">
<polygon fill="none" stroke="#000000" points="2157.1427,-660.5 2157.1427,-679.5 2338.1427,-679.5 2338.1427,-660.5 2157.1427,-660.5"/>
<text text-anchor="middle" x="2247.6427" y="-667.5" font-family="FreeSans.ttf" font-size="10.00" fill="#000000">iDynTree/yarp/YARPConversions.h</text>
</a>
</g>
</g>
<!-- Node0&#45;&gt;Node53 -->
<g id="edge113" class="edge">
<title>Node0&#45;&gt;Node53</title>
<path fill="none" stroke="#191970" d="M1409.2707,-722.6642C1552.5004,-716.1326 1873.1422,-700.4878 2142.6427,-680 2143.9522,-679.9004 2145.2708,-679.7986 2146.5968,-679.6947"/>
<polygon fill="#191970" stroke="#191970" points="2147.1999,-683.1574 2156.8846,-678.8612 2146.6346,-676.1803 2147.1999,-683.1574"/>
</g>
<!-- Node2 -->
<g id="node3" class="node">
<title>Node2</title>
<polygon fill="none" stroke="#bfbfbf" points="241.6427,-599 241.6427,-618 279.6427,-618 279.6427,-599 241.6427,-599"/>
<text text-anchor="middle" x="260.6427" y="-606" font-family="FreeSans.ttf" font-size="10.00" fill="#000000">map</text>
</g>
<!-- Node1&#45;&gt;Node2 -->
<g id="edge2" class="edge">
<title>Node1&#45;&gt;Node2</title>
<path fill="none" stroke="#191970" d="M260.6427,-660.3906C260.6427,-651.8657 260.6427,-639.1392 260.6427,-628.4235"/>
<polygon fill="#191970" stroke="#191970" points="264.1428,-628.2448 260.6427,-618.2449 257.1428,-628.2449 264.1428,-628.2448"/>
</g>
<!-- Node3 -->
<g id="node4" class="node">
<title>Node3</title>
<polygon fill="none" stroke="#bfbfbf" points="720.6427,-56.5 720.6427,-75.5 764.6427,-75.5 764.6427,-56.5 720.6427,-56.5"/>
<text text-anchor="middle" x="742.6427" y="-63.5" font-family="FreeSans.ttf" font-size="10.00" fill="#000000">string</text>
</g>
<!-- Node1&#45;&gt;Node3 -->
<g id="edge3" class="edge">
<title>Node1&#45;&gt;Node3</title>
<path fill="none" stroke="#191970" d="M167.8955,-662.4963C109.7144,-655.8986 41.8403,-644.1119 20.6427,-624 -4.9281,-599.7389 1.6427,-582.2487 1.6427,-547 1.6427,-547 1.6427,-547 1.6427,-183.5 1.6427,-110.6648 567.3149,-75.4067 710.1787,-67.6635"/>
<polygon fill="#191970" stroke="#191970" points="710.6669,-71.1425 720.466,-67.1141 710.2936,-64.1525 710.6669,-71.1425"/>
</g>
<!-- Node4 -->
<g id="node5" class="node">
<title>Node4</title>
<g id="a_node5"><a xlink:href="Indices_8h.html" target="_top" xlink:title="iDynTree/Model/Indices.h">
<polygon fill="none" stroke="#000000" points="646.6427,-476 646.6427,-495 784.6427,-495 784.6427,-476 646.6427,-476"/>
<text text-anchor="middle" x="715.6427" y="-483" font-family="FreeSans.ttf" font-size="10.00" fill="#000000">iDynTree/Model/Indices.h</text>
</a>
</g>
</g>
<!-- Node1&#45;&gt;Node4 -->
<g id="edge4" class="edge">
<title>Node1&#45;&gt;Node4</title>
<path fill="none" stroke="#191970" d="M251.3584,-659.9991C237.8973,-644.2639 216.2689,-613.4187 232.6427,-593 282.3676,-530.9913 512.5745,-502.4587 636.3616,-491.406"/>
<polygon fill="#191970" stroke="#191970" points="636.8861,-494.8736 646.5428,-490.5149 636.2757,-487.9002 636.8861,-494.8736"/>
</g>
<!-- Node5 -->
<g id="node6" class="node">
<title>Node5</title>
<g id="a_node6"><a xlink:href="ExternalWrenchesEstimation_8h.html" target="_top" xlink:title="iDynTree/Estimation\l/ExternalWrenchesEstimation.h">
<polygon fill="none" stroke="#000000" points="470.1427,-593.5 470.1427,-623.5 639.1427,-623.5 639.1427,-593.5 470.1427,-593.5"/>
<text text-anchor="start" x="478.1427" y="-611.5" font-family="FreeSans.ttf" font-size="10.00" fill="#000000">iDynTree/Estimation</text>
<text text-anchor="middle" x="554.6427" y="-600.5" font-family="FreeSans.ttf" font-size="10.00" fill="#000000">/ExternalWrenchesEstimation.h</text>
</a>
</g>
</g>
<!-- Node1&#45;&gt;Node5 -->
<g id="edge6" class="edge">
<title>Node1&#45;&gt;Node5</title>
<path fill="none" stroke="#191970" d="M306.2576,-660.4581C350.6699,-651.1678 419.1552,-636.8418 472.9737,-625.5838"/>
<polygon fill="#191970" stroke="#191970" points="473.7716,-628.9928 482.8431,-623.5193 472.3383,-622.1411 473.7716,-628.9928"/>
</g>
<!-- Node40 -->
<g id="node36" class="node">
<title>Node40</title>
<polygon fill="none" stroke="#bfbfbf" points="297.6427,-593.5 297.6427,-623.5 451.6427,-623.5 451.6427,-593.5 297.6427,-593.5"/>
<text text-anchor="start" x="305.6427" y="-611.5" font-family="FreeSans.ttf" font-size="10.00" fill="#000000">iCub/skinDynLib/dynContact</text>
<text text-anchor="middle" x="374.6427" y="-600.5" font-family="FreeSans.ttf" font-size="10.00" fill="#000000">List.h</text>
</g>
<!-- Node1&#45;&gt;Node40 -->
<g id="edge78" class="edge">
<title>Node1&#45;&gt;Node40</title>
<path fill="none" stroke="#191970" d="M278.4552,-660.3906C294.3123,-651.8361 318.0118,-639.0509 337.9179,-628.3121"/>
<polygon fill="#191970" stroke="#191970" points="339.6159,-631.3729 346.7552,-623.5446 336.2924,-625.2122 339.6159,-631.3729"/>
</g>
<!-- Node41 -->
<g id="node37" class="node">
<title>Node41</title>
<polygon fill="none" stroke="#bfbfbf" points="29.6427,-593.5 29.6427,-623.5 185.6427,-623.5 185.6427,-593.5 29.6427,-593.5"/>
<text text-anchor="start" x="37.6427" y="-611.5" font-family="FreeSans.ttf" font-size="10.00" fill="#000000">iCub/skinDynLib/skinContact</text>
<text text-anchor="middle" x="107.6427" y="-600.5" font-family="FreeSans.ttf" font-size="10.00" fill="#000000">List.h</text>
</g>
<!-- Node1&#45;&gt;Node41 -->
<g id="edge79" class="edge">
<title>Node1&#45;&gt;Node41</title>
<path fill="none" stroke="#191970" d="M236.7364,-660.3906C214.7835,-651.5664 181.631,-638.2404 154.4198,-627.3026"/>
<polygon fill="#191970" stroke="#191970" points="155.6546,-624.0268 145.0707,-623.5446 153.0438,-630.5217 155.6546,-624.0268"/>
</g>
<!-- Node4&#45;&gt;Node3 -->
<g id="edge5" class="edge">
<title>Node4&#45;&gt;Node3</title>
<path fill="none" stroke="#191970" d="M689.2037,-475.9386C579.623,-434.986 173.3422,-269.3008 314.6427,-112 341.0009,-82.6571 614.9555,-70.427 710.2138,-67.0404"/>
<polygon fill="#191970" stroke="#191970" points="710.5339,-70.5315 720.4068,-66.6877 710.2918,-63.5357 710.5339,-70.5315"/>
</g>
<!-- Node5&#45;&gt;Node4 -->
<g id="edge47" class="edge">
<title>Node5&#45;&gt;Node4</title>
<path fill="none" stroke="#191970" d="M563.7706,-593.4798C573.901,-577.7907 591.5022,-553.2462 611.6427,-537 631.9056,-520.6551 658.2082,-507.6899 679.2916,-498.8567"/>
<polygon fill="#191970" stroke="#191970" points="680.6205,-502.0947 688.5709,-495.0917 677.9886,-495.6083 680.6205,-502.0947"/>
</g>
<!-- Node6 -->
<g id="node7" class="node">
<title>Node6</title>
<g id="a_node7"><a xlink:href="Direction_8h.html" target="_top" xlink:title="iDynTree/Core/Direction.h">
<polygon fill="none" stroke="#000000" points="395.1427,-174 395.1427,-193 536.1427,-193 536.1427,-174 395.1427,-174"/>
<text text-anchor="middle" x="465.6427" y="-181" font-family="FreeSans.ttf" font-size="10.00" fill="#000000">iDynTree/Core/Direction.h</text>
</a>
</g>
</g>
<!-- Node5&#45;&gt;Node6 -->
<g id="edge7" class="edge">
<title>Node5&#45;&gt;Node6</title>
<path fill="none" stroke="#191970" d="M487.2904,-593.4982C465.51,-585.7463 442.8297,-574.1658 426.6427,-557 403.6458,-532.6125 402.6427,-519.0202 402.6427,-485.5 402.6427,-485.5 402.6427,-485.5 402.6427,-418.5 402.6427,-335.5229 439.7401,-241.5138 457.0005,-202.2648"/>
<polygon fill="#191970" stroke="#191970" points="460.2115,-203.658 461.1119,-193.1015 453.8249,-200.7924 460.2115,-203.658"/>
</g>
<!-- Node7 -->
<g id="node8" class="node">
<title>Node7</title>
<g id="a_node8"><a xlink:href="VectorFixSize_8h.html" target="_top" xlink:title="iDynTree/Core/VectorFixSize.h">
<polygon fill="none" stroke="#000000" points="1305.1427,-112.5 1305.1427,-131.5 1466.1427,-131.5 1466.1427,-112.5 1305.1427,-112.5"/>
<text text-anchor="middle" x="1385.6427" y="-119.5" font-family="FreeSans.ttf" font-size="10.00" fill="#000000">iDynTree/Core/VectorFixSize.h</text>
</a>
</g>
</g>
<!-- Node5&#45;&gt;Node7 -->
<g id="edge46" class="edge">
<title>Node5&#45;&gt;Node7</title>
<path fill="none" stroke="#191970" d="M550.1445,-593.3372C547.3663,-583.1632 544.0687,-569.4038 542.6427,-557 531.7191,-461.9835 512.2966,-403.2587 589.6427,-347 804.4395,-190.7647 916.5141,-282.5364 1168.6427,-199 1201.3276,-188.1707 1207.3989,-180.0795 1239.6427,-168 1273.5918,-155.2816 1312.8172,-143.0559 1342.0557,-134.4092"/>
<polygon fill="#191970" stroke="#191970" points="1343.3456,-137.6784 1351.9561,-131.5051 1341.3752,-130.9614 1343.3456,-137.6784"/>
</g>
<!-- Node5&#45;&gt;Node21 -->
<g id="edge22" class="edge">
<title>Node5&#45;&gt;Node21</title>
<path fill="none" stroke="#191970" d="M552.125,-593.2308C545.2329,-545.4375 531.8393,-398.8172 616.6427,-347 664.7137,-317.6273 817.3758,-306.9563 912.1444,-303.1177"/>
<polygon fill="#191970" stroke="#191970" points="912.4086,-306.6102 922.2653,-302.7248 912.137,-299.6155 912.4086,-306.6102"/>
</g>
<!-- Node28 -->
<g id="node24" class="node">
<title>Node28</title>
<g id="a_node24"><a xlink:href="MatrixDynSize_8h.html" target="_top" xlink:title="iDynTree/Core/MatrixDynSize.h">
<polygon fill="none" stroke="#000000" points="170.1427,-291.5 170.1427,-310.5 337.1427,-310.5 337.1427,-291.5 170.1427,-291.5"/>
<text text-anchor="middle" x="253.6427" y="-298.5" font-family="FreeSans.ttf" font-size="10.00" fill="#000000">iDynTree/Core/MatrixDynSize.h</text>
</a>
</g>
</g>
<!-- Node5&#45;&gt;Node28 -->
<g id="edge41" class="edge">
<title>Node5&#45;&gt;Node28</title>
<path fill="none" stroke="#191970" d="M474.5062,-593.4695C426.7606,-583.5203 371.5091,-569.9627 350.6427,-557 315.1607,-534.9576 289.6427,-527.2713 289.6427,-485.5 289.6427,-485.5 289.6427,-485.5 289.6427,-418.5 289.6427,-382.4217 273.9348,-342.7379 263.2708,-319.9538"/>
<polygon fill="#191970" stroke="#191970" points="266.3173,-318.2149 258.8006,-310.7483 260.0205,-321.2727 266.3173,-318.2149"/>
</g>
<!-- Node29 -->
<g id="node25" class="node">
<title>Node29</title>
<g id="a_node25"><a xlink:href="VectorDynSize_8h.html" target="_top" xlink:title="iDynTree/Core/VectorDynSize.h">
<polygon fill="none" stroke="#000000" points="865.1427,-112.5 865.1427,-131.5 1032.1427,-131.5 1032.1427,-112.5 865.1427,-112.5"/>
<text text-anchor="middle" x="948.6427" y="-119.5" font-family="FreeSans.ttf" font-size="10.00" fill="#000000">iDynTree/Core/VectorDynSize.h</text>
</a>
</g>
</g>
<!-- Node5&#45;&gt;Node29 -->
<g id="edge43" class="edge">
<title>Node5&#45;&gt;Node29</title>
<path fill="none" stroke="#191970" d="M485.2418,-593.4245C430.9657,-577.0734 364.6427,-544.9334 364.6427,-485.5 364.6427,-485.5 364.6427,-485.5 364.6427,-357 364.6427,-272.4328 325.8306,-226.7664 386.6427,-168 419.5236,-136.2252 703.7471,-126.3289 854.9338,-123.3008"/>
<polygon fill="#191970" stroke="#191970" points="855.2097,-126.7962 865.1398,-123.1027 855.0738,-119.7975 855.2097,-126.7962"/>
</g>
<!-- Node30 -->
<g id="node26" class="node">
<title>Node30</title>
<g id="a_node26"><a xlink:href="LinkState_8h.html" target="_top" xlink:title="iDynTree/Model/LinkState.h">
<polygon fill="none" stroke="#000000" points="1380.1427,-537.5 1380.1427,-556.5 1529.1427,-556.5 1529.1427,-537.5 1380.1427,-537.5"/>
<text text-anchor="middle" x="1454.6427" y="-544.5" font-family="FreeSans.ttf" font-size="10.00" fill="#000000">iDynTree/Model/LinkState.h</text>
</a>
</g>
</g>
<!-- Node5&#45;&gt;Node30 -->
<g id="edge48" class="edge">
<title>Node5&#45;&gt;Node30</title>
<path fill="none" stroke="#191970" d="M639.3125,-602.7142C811.0344,-590.9799 1198.504,-564.5028 1370.1106,-552.7764"/>
<polygon fill="#191970" stroke="#191970" points="1370.3674,-556.2671 1380.1055,-552.0934 1369.8902,-549.2834 1370.3674,-556.2671"/>
</g>
<!-- Node39 -->
<g id="node35" class="node">
<title>Node39</title>
<polygon fill="none" stroke="#bfbfbf" points="1029.1427,-476 1029.1427,-495 1076.1427,-495 1076.1427,-476 1029.1427,-476"/>
<text text-anchor="middle" x="1052.6427" y="-483" font-family="FreeSans.ttf" font-size="10.00" fill="#000000">vector</text>
</g>
<!-- Node5&#45;&gt;Node39 -->
<g id="edge77" class="edge">
<title>Node5&#45;&gt;Node39</title>
<path fill="none" stroke="#191970" d="M639.1706,-603.3526C786.6066,-593.9641 1076.6444,-573.5055 1091.6427,-557 1106.5155,-540.6326 1088.6572,-517.5758 1072.511,-502.1131"/>
<polygon fill="#191970" stroke="#191970" points="1074.6345,-499.3141 1064.8732,-495.1949 1069.9352,-504.5023 1074.6345,-499.3141"/>
</g>
<!-- Node6&#45;&gt;Node3 -->
<g id="edge8" class="edge">
<title>Node6&#45;&gt;Node3</title>
<path fill="none" stroke="#191970" d="M488.3108,-173.8845C537.5551,-152.9957 654.4092,-103.4276 710.9342,-79.4504"/>
<polygon fill="#191970" stroke="#191970" points="712.5964,-82.5472 720.4356,-75.42 709.8628,-76.103 712.5964,-82.5472"/>
</g>
<!-- Node6&#45;&gt;Node7 -->
<g id="edge9" class="edge">
<title>Node6&#45;&gt;Node7</title>
<path fill="none" stroke="#191970" d="M508.6431,-173.9935C520.5712,-171.6778 533.5631,-169.4521 545.6427,-168 874.0131,-128.5255 961.7554,-158.0502 1294.707,-132.1039"/>
<polygon fill="#191970" stroke="#191970" points="1295.4417,-135.5568 1305.1347,-131.2795 1294.8899,-128.5786 1295.4417,-135.5568"/>
</g>
<!-- Node8 -->
<g id="node9" class="node">
<title>Node8</title>
<g id="a_node9"><a xlink:href="Utils_8h.html" target="_top" xlink:title="iDynTree/Core/Utils.h">
<polygon fill="none" stroke="#000000" points="1130.1427,-56.5 1130.1427,-75.5 1249.1427,-75.5 1249.1427,-56.5 1130.1427,-56.5"/>
<text text-anchor="middle" x="1189.6427" y="-63.5" font-family="FreeSans.ttf" font-size="10.00" fill="#000000">iDynTree/Core/Utils.h</text>
</a>
</g>
</g>
<!-- Node6&#45;&gt;Node8 -->
<g id="edge21" class="edge">
<title>Node6&#45;&gt;Node8</title>
<path fill="none" stroke="#191970" d="M509.92,-173.9475C521.5009,-171.7168 534.0026,-169.5445 545.6427,-168 764.7467,-138.9278 827.2706,-185.8179 1041.6427,-132 1086.7512,-120.6756 1135.3173,-96.455 1164.0654,-80.7159"/>
<polygon fill="#191970" stroke="#191970" points="1165.9836,-83.654 1173.0213,-75.7343 1162.5809,-77.5366 1165.9836,-83.654"/>
</g>
<!-- Node7&#45;&gt;Node3 -->
<g id="edge17" class="edge">
<title>Node7&#45;&gt;Node3</title>
<path fill="none" stroke="#191970" d="M1305.1235,-112.8468C1302.262,-112.5553 1299.4282,-112.2721 1296.6427,-112 1098.5961,-92.6558 860.2017,-74.6325 774.9173,-68.3504"/>
<polygon fill="#191970" stroke="#191970" points="775.0594,-64.8515 764.8299,-67.6096 774.5466,-71.8327 775.0594,-64.8515"/>
</g>
<!-- Node7&#45;&gt;Node8 -->
<g id="edge10" class="edge">
<title>Node7&#45;&gt;Node8</title>
<path fill="none" stroke="#191970" d="M1351.9491,-112.3733C1318.934,-102.9404 1268.4854,-88.5265 1232.6041,-78.2747"/>
<polygon fill="#191970" stroke="#191970" points="1233.4734,-74.8831 1222.8966,-75.5011 1231.5503,-81.6137 1233.4734,-74.8831"/>
</g>
<!-- Node10 -->
<g id="node11" class="node">
<title>Node10</title>
<g id="a_node11"><a xlink:href="Span_8h.html" target="_top" xlink:title="iDynTree/Core/Span.h">
<polygon fill="none" stroke="#ff0000" points="991.1427,-56.5 991.1427,-75.5 1112.1427,-75.5 1112.1427,-56.5 991.1427,-56.5"/>
<text text-anchor="middle" x="1051.6427" y="-63.5" font-family="FreeSans.ttf" font-size="10.00" fill="#000000">iDynTree/Core/Span.h</text>
</a>
</g>
</g>
<!-- Node7&#45;&gt;Node10 -->
<g id="edge12" class="edge">
<title>Node7&#45;&gt;Node10</title>
<path fill="none" stroke="#191970" d="M1328.6056,-112.4369C1270.3633,-102.6717 1179.9985,-87.5207 1118.4461,-77.2006"/>
<polygon fill="#191970" stroke="#191970" points="1118.8857,-73.7255 1108.4446,-75.5237 1117.7282,-80.6291 1118.8857,-73.7255"/>
</g>
<!-- Node7&#45;&gt;Node11 -->
<g id="edge19" class="edge">
<title>Node7&#45;&gt;Node11</title>
<path fill="none" stroke="#191970" d="M1403.2612,-112.3052C1422.9655,-100.109 1450.6452,-78.0777 1438.6427,-56 1430.948,-41.8462 1416.8127,-31.3764 1403.1686,-24.0321"/>
<polygon fill="#191970" stroke="#191970" points="1404.4015,-20.7372 1393.8863,-19.44 1401.2975,-27.0114 1404.4015,-20.7372"/>
</g>
<!-- Node19 -->
<g id="node15" class="node">
<title>Node19</title>
<polygon fill="none" stroke="#bfbfbf" points="1373.6427,-56.5 1373.6427,-75.5 1429.6427,-75.5 1429.6427,-56.5 1373.6427,-56.5"/>
<text text-anchor="middle" x="1401.6427" y="-63.5" font-family="FreeSans.ttf" font-size="10.00" fill="#000000">sstream</text>
</g>
<!-- Node7&#45;&gt;Node19 -->
<g id="edge18" class="edge">
<title>Node7&#45;&gt;Node19</title>
<path fill="none" stroke="#191970" d="M1388.4297,-112.2455C1390.5404,-104.8579 1393.5087,-94.4689 1396.0974,-85.4087"/>
<polygon fill="#191970" stroke="#191970" points="1399.5057,-86.2195 1398.8876,-75.6427 1392.775,-84.2964 1399.5057,-86.2195"/>
</g>
<!-- Node20 -->
<g id="node16" class="node">
<title>Node20</title>
<polygon fill="none" stroke="#bfbfbf" points="1305.6427,-56.5 1305.6427,-75.5 1355.6427,-75.5 1355.6427,-56.5 1305.6427,-56.5"/>
<text text-anchor="middle" x="1330.6427" y="-63.5" font-family="FreeSans.ttf" font-size="10.00" fill="#000000">cstring</text>
</g>
<!-- Node7&#45;&gt;Node20 -->
<g id="edge20" class="edge">
<title>Node7&#45;&gt;Node20</title>
<path fill="none" stroke="#191970" d="M1376.0624,-112.2455C1368.0969,-104.1352 1356.5786,-92.4075 1347.1348,-82.7919"/>
<polygon fill="#191970" stroke="#191970" points="1349.6174,-80.3247 1340.1132,-75.6427 1344.6232,-85.2297 1349.6174,-80.3247"/>
</g>
<!-- Node9 -->
<g id="node10" class="node">
<title>Node9</title>
<polygon fill="none" stroke="#bfbfbf" points="1163.1427,-.5 1163.1427,-19.5 1216.1427,-19.5 1216.1427,-.5 1163.1427,-.5"/>
<text text-anchor="middle" x="1189.6427" y="-7.5" font-family="FreeSans.ttf" font-size="10.00" fill="#000000">cstddef</text>
</g>
<!-- Node8&#45;&gt;Node9 -->
<g id="edge11" class="edge">
<title>Node8&#45;&gt;Node9</title>
<path fill="none" stroke="#191970" d="M1189.6427,-56.2455C1189.6427,-48.9382 1189.6427,-38.6944 1189.6427,-29.7046"/>
<polygon fill="#191970" stroke="#191970" points="1193.1428,-29.6426 1189.6427,-19.6427 1186.1428,-29.6427 1193.1428,-29.6426"/>
</g>
<!-- Node10&#45;&gt;Node9 -->
<g id="edge16" class="edge">
<title>Node10&#45;&gt;Node9</title>
<path fill="none" stroke="#191970" d="M1075.3657,-56.3733C1097.8164,-47.2629 1131.7166,-33.5062 1156.7682,-23.3404"/>
<polygon fill="#191970" stroke="#191970" points="1158.2792,-26.5045 1166.2292,-19.5011 1155.647,-20.0182 1158.2792,-26.5045"/>
</g>
<!-- Node10&#45;&gt;Node11 -->
<g id="edge13" class="edge">
<title>Node10&#45;&gt;Node11</title>
<path fill="none" stroke="#191970" d="M1105.606,-56.4369C1170.0256,-45.0208 1275.9814,-26.2438 1331.3602,-16.4298"/>
<polygon fill="#191970" stroke="#191970" points="1332.1768,-19.8397 1341.4126,-14.6484 1330.9553,-12.9471 1332.1768,-19.8397"/>
</g>
<!-- Node12 -->
<g id="node13" class="node">
<title>Node12</title>
<polygon fill="none" stroke="#bfbfbf" points="984.6427,-.5 984.6427,-19.5 1048.6427,-19.5 1048.6427,-.5 984.6427,-.5"/>
<text text-anchor="middle" x="1016.6427" y="-7.5" font-family="FreeSans.ttf" font-size="10.00" fill="#000000">algorithm</text>
</g>
<!-- Node10&#45;&gt;Node12 -->
<g id="edge14" class="edge">
<title>Node10&#45;&gt;Node12</title>
<path fill="none" stroke="#191970" d="M1045.5462,-56.2455C1040.7282,-48.5367 1033.8676,-37.5598 1028.0395,-28.2348"/>
<polygon fill="#191970" stroke="#191970" points="1030.9374,-26.2677 1022.6694,-19.6427 1025.0014,-29.9777 1030.9374,-26.2677"/>
</g>
<!-- Node13 -->
<g id="node14" class="node">
<title>Node13</title>
<polygon fill="none" stroke="#bfbfbf" points="1066.6427,-.5 1066.6427,-19.5 1108.6427,-19.5 1108.6427,-.5 1066.6427,-.5"/>
<text text-anchor="middle" x="1087.6427" y="-7.5" font-family="FreeSans.ttf" font-size="10.00" fill="#000000">array</text>
</g>
<!-- Node10&#45;&gt;Node13 -->
<g id="edge15" class="edge">
<title>Node10&#45;&gt;Node13</title>
<path fill="none" stroke="#191970" d="M1057.9134,-56.2455C1062.8691,-48.5367 1069.9257,-37.5598 1075.9203,-28.2348"/>
<polygon fill="#191970" stroke="#191970" points="1078.9803,-29.9471 1081.4438,-19.6427 1073.0921,-26.1618 1078.9803,-29.9471"/>
</g>
<!-- Node21&#45;&gt;Node3 -->
<g id="edge40" class="edge">
<title>Node21&#45;&gt;Node3</title>
<path fill="none" stroke="#191970" d="M987.9237,-291.436C980.5647,-267.2353 957.9778,-203.0093 916.6427,-168 880.2779,-137.2004 856.5478,-156.4497 815.6427,-132 793.3696,-118.687 771.831,-97.9408 757.9946,-83.2668"/>
<polygon fill="#191970" stroke="#191970" points="760.4922,-80.8121 751.1444,-75.825 755.3419,-85.5529 760.4922,-80.8121"/>
</g>
<!-- Node22 -->
<g id="node18" class="node">
<title>Node22</title>
<g id="a_node18"><a xlink:href="PositionRaw_8h.html" target="_top" xlink:title="iDynTree/Core/PositionRaw.h">
<polygon fill="none" stroke="#000000" points="751.6427,-174 751.6427,-193 907.6427,-193 907.6427,-174 751.6427,-174"/>
<text text-anchor="middle" x="829.6427" y="-181" font-family="FreeSans.ttf" font-size="10.00" fill="#000000">iDynTree/Core/PositionRaw.h</text>
</a>
</g>
</g>
<!-- Node21&#45;&gt;Node22 -->
<g id="edge23" class="edge">
<title>Node21&#45;&gt;Node22</title>
<path fill="none" stroke="#191970" d="M975.6241,-291.4364C961.5014,-282.3385 939.8653,-268.1289 921.6427,-255 896.2545,-236.7085 867.9572,-214.4164 849.5361,-199.637"/>
<polygon fill="#191970" stroke="#191970" points="851.3253,-196.5839 841.3423,-193.0355 846.9336,-202.0349 851.3253,-196.5839"/>
</g>
<!-- Node23 -->
<g id="node19" class="node">
<title>Node23</title>
<g id="a_node19"><a xlink:href="Rotation_8h.html" target="_top" xlink:title="iDynTree/Core/Rotation.h">
<polygon fill="none" stroke="#000000" points="1022.1427,-235.5 1022.1427,-254.5 1159.1427,-254.5 1159.1427,-235.5 1022.1427,-235.5"/>
<text text-anchor="middle" x="1090.6427" y="-242.5" font-family="FreeSans.ttf" font-size="10.00" fill="#000000">iDynTree/Core/Rotation.h</text>
</a>
</g>
</g>
<!-- Node21&#45;&gt;Node23 -->
<g id="edge26" class="edge">
<title>Node21&#45;&gt;Node23</title>
<path fill="none" stroke="#191970" d="M1008.0614,-291.2455C1023.6912,-282.4928 1046.8446,-269.527 1064.6612,-259.5496"/>
<polygon fill="#191970" stroke="#191970" points="1066.4087,-262.5825 1073.4236,-254.6427 1062.9884,-256.475 1066.4087,-262.5825"/>
</g>
<!-- Node22&#45;&gt;Node3 -->
<g id="edge25" class="edge">
<title>Node22&#45;&gt;Node3</title>
<path fill="none" stroke="#191970" d="M820.8178,-173.9389C811.6427,-163.8263 797.0539,-147.2552 785.6427,-132 774.0415,-116.4907 762.116,-97.942 753.7756,-84.4634"/>
<polygon fill="#191970" stroke="#191970" points="756.5955,-82.3659 748.3921,-75.661 750.6238,-86.0182 756.5955,-82.3659"/>
</g>
<!-- Node22&#45;&gt;Node7 -->
<g id="edge24" class="edge">
<title>Node22&#45;&gt;Node7</title>
<path fill="none" stroke="#191970" d="M907.7327,-174.938C998.3002,-164.9966 1152.4081,-148.0462 1294.8767,-132.195"/>
<polygon fill="#191970" stroke="#191970" points="1295.5619,-135.6405 1305.1133,-131.0558 1294.7875,-128.6834 1295.5619,-135.6405"/>
</g>
<!-- Node23&#45;&gt;Node3 -->
<g id="edge27" class="edge">
<title>Node23&#45;&gt;Node3</title>
<path fill="none" stroke="#191970" d="M1067.053,-235.3949C1046.8047,-226.8084 1017.1044,-213.39 992.6427,-199 972.336,-187.0543 970.3523,-179.2327 949.6427,-168 910.6825,-146.8683 896.6088,-151.1613 856.6427,-132 824.1998,-116.4456 788.5781,-95.0829 765.9373,-80.9252"/>
<polygon fill="#191970" stroke="#191970" points="767.6863,-77.8905 757.3606,-75.5178 763.953,-83.8118 767.6863,-77.8905"/>
</g>
<!-- Node23&#45;&gt;Node7 -->
<g id="edge39" class="edge">
<title>Node23&#45;&gt;Node7</title>
<path fill="none" stroke="#191970" d="M1132.2423,-235.4261C1162.7695,-227.6264 1204.803,-215.2506 1239.6427,-199 1262.6578,-188.2648 1265.4312,-180.3121 1287.6427,-168 1309.1584,-156.0735 1334.2907,-144.318 1353.7171,-135.6761"/>
<polygon fill="#191970" stroke="#191970" points="1355.2874,-138.8091 1363.0299,-131.5769 1352.4672,-132.4023 1355.2874,-138.8091"/>
</g>
<!-- Node24 -->
<g id="node20" class="node">
<title>Node24</title>
<g id="a_node20"><a xlink:href="GeomVector3_8h.html" target="_top" xlink:title="iDynTree/Core/GeomVector3.h">
<polygon fill="none" stroke="#000000" points="1330.1427,-174 1330.1427,-193 1493.1427,-193 1493.1427,-174 1330.1427,-174"/>
<text text-anchor="middle" x="1411.6427" y="-181" font-family="FreeSans.ttf" font-size="10.00" fill="#000000">iDynTree/Core/GeomVector3.h</text>
</a>
</g>
</g>
<!-- Node23&#45;&gt;Node24 -->
<g id="edge28" class="edge">
<title>Node23&#45;&gt;Node24</title>
<path fill="none" stroke="#191970" d="M1140.4467,-235.4581C1197.5802,-224.512 1291.2013,-206.5752 1352.1267,-194.9026"/>
<polygon fill="#191970" stroke="#191970" points="1352.8232,-198.3329 1361.9859,-193.0137 1351.5059,-191.4579 1352.8232,-198.3329"/>
</g>
<!-- Node25 -->
<g id="node21" class="node">
<title>Node25</title>
<g id="a_node21"><a xlink:href="RotationRaw_8h.html" target="_top" xlink:title="iDynTree/Core/RotationRaw.h">
<polygon fill="none" stroke="#000000" points="1001.6427,-174 1001.6427,-193 1159.6427,-193 1159.6427,-174 1001.6427,-174"/>
<text text-anchor="middle" x="1080.6427" y="-181" font-family="FreeSans.ttf" font-size="10.00" fill="#000000">iDynTree/Core/RotationRaw.h</text>
</a>
</g>
</g>
<!-- Node23&#45;&gt;Node25 -->
<g id="edge30" class="edge">
<title>Node23&#45;&gt;Node25</title>
<path fill="none" stroke="#191970" d="M1089.0802,-235.3906C1087.694,-226.8657 1085.6247,-214.1392 1083.8823,-203.4235"/>
<polygon fill="#191970" stroke="#191970" points="1087.2869,-202.5535 1082.2272,-193.2449 1080.3776,-203.677 1087.2869,-202.5535"/>
</g>
<!-- Node24&#45;&gt;Node7 -->
<g id="edge29" class="edge">
<title>Node24&#45;&gt;Node7</title>
<path fill="none" stroke="#191970" d="M1407.5802,-173.8906C1403.9003,-165.1862 1398.3685,-152.1015 1393.7807,-141.2494"/>
<polygon fill="#191970" stroke="#191970" points="1396.8802,-139.5927 1389.7625,-131.7449 1390.4327,-142.3185 1396.8802,-139.5927"/>
</g>
<!-- Node25&#45;&gt;Node3 -->
<g id="edge38" class="edge">
<title>Node25&#45;&gt;Node3</title>
<path fill="none" stroke="#191970" d="M1078.3178,-173.7751C1074.0024,-158.0079 1063.1684,-127.1105 1041.6427,-112 999.1049,-82.1396 843.6339,-70.956 775.2694,-67.4181"/>
<polygon fill="#191970" stroke="#191970" points="775.2365,-63.9123 765.0758,-66.9143 774.8908,-70.9038 775.2365,-63.9123"/>
</g>
<!-- Node26 -->
<g id="node22" class="node">
<title>Node26</title>
<g id="a_node22"><a xlink:href="MatrixFixSize_8h.html" target="_top" xlink:title="iDynTree/Core/MatrixFixSize.h">
<polygon fill="none" stroke="#000000" points="1126.1427,-112.5 1126.1427,-131.5 1287.1427,-131.5 1287.1427,-112.5 1126.1427,-112.5"/>
<text text-anchor="middle" x="1206.6427" y="-119.5" font-family="FreeSans.ttf" font-size="10.00" fill="#000000">iDynTree/Core/MatrixFixSize.h</text>
</a>
</g>
</g>
<!-- Node25&#45;&gt;Node26 -->
<g id="edge31" class="edge">
<title>Node25&#45;&gt;Node26</title>
<path fill="none" stroke="#191970" d="M1100.3302,-173.8906C1121.1349,-163.7359 1154.1537,-147.6196 1177.8746,-136.0416"/>
<polygon fill="#191970" stroke="#191970" points="1179.642,-139.0736 1187.0934,-131.5419 1176.5715,-132.783 1179.642,-139.0736"/>
</g>
<!-- Node26&#45;&gt;Node3 -->
<g id="edge35" class="edge">
<title>Node26&#45;&gt;Node3</title>
<path fill="none" stroke="#191970" d="M1127.6686,-112.4686C1024.3212,-99.9957 847.8442,-78.6967 775.2758,-69.9385"/>
<polygon fill="#191970" stroke="#191970" points="775.2927,-66.4152 764.9454,-68.6917 774.4539,-73.3648 775.2927,-66.4152"/>
</g>
<!-- Node26&#45;&gt;Node8 -->
<g id="edge32" class="edge">
<title>Node26&#45;&gt;Node8</title>
<path fill="none" stroke="#191970" d="M1203.6815,-112.2455C1201.4389,-104.8579 1198.285,-94.4689 1195.5346,-85.4087"/>
<polygon fill="#191970" stroke="#191970" points="1198.8239,-84.1948 1192.5699,-75.6427 1192.1257,-86.2282 1198.8239,-84.1948"/>
</g>
<!-- Node26&#45;&gt;Node11 -->
<g id="edge33" class="edge">
<title>Node26&#45;&gt;Node11</title>
<path fill="none" stroke="#191970" d="M1219.2926,-112.3651C1236.5587,-99.297 1268.5709,-75.3628 1296.6427,-56 1312.1144,-45.3283 1329.8595,-33.8313 1343.7391,-25.0007"/>
<polygon fill="#191970" stroke="#191970" points="1345.663,-27.9252 1352.2391,-19.6183 1341.918,-22.0112 1345.663,-27.9252"/>
</g>
<!-- Node26&#45;&gt;Node19 -->
<g id="edge37" class="edge">
<title>Node26&#45;&gt;Node19</title>
<path fill="none" stroke="#191970" d="M1240.1644,-112.3733C1274.6036,-102.483 1328.11,-87.1171 1363.9871,-76.8139"/>
<polygon fill="#191970" stroke="#191970" points="1364.9629,-80.1752 1373.6083,-74.0509 1363.0307,-73.4472 1364.9629,-80.1752"/>
</g>
<!-- Node26&#45;&gt;Node20 -->
<g id="edge34" class="edge">
<title>Node26&#45;&gt;Node20</title>
<path fill="none" stroke="#191970" d="M1227.9591,-112.3733C1247.8643,-103.3838 1277.7863,-89.8706 1300.2027,-79.7471"/>
<polygon fill="#191970" stroke="#191970" points="1301.9314,-82.8068 1309.6045,-75.5011 1299.0502,-76.4272 1301.9314,-82.8068"/>
</g>
<!-- Node27 -->
<g id="node23" class="node">
<title>Node27</title>
<polygon fill="none" stroke="#bfbfbf" points="1556.6427,-56.5 1556.6427,-75.5 1616.6427,-75.5 1616.6427,-56.5 1556.6427,-56.5"/>
<text text-anchor="middle" x="1586.6427" y="-63.5" font-family="FreeSans.ttf" font-size="10.00" fill="#000000">iostream</text>
</g>
<!-- Node26&#45;&gt;Node27 -->
<g id="edge36" class="edge">
<title>Node26&#45;&gt;Node27</title>
<path fill="none" stroke="#191970" d="M1271.5353,-112.4369C1350.4108,-100.8131 1481.0683,-81.5583 1546.5843,-71.9033"/>
<polygon fill="#191970" stroke="#191970" points="1547.1392,-75.3595 1556.522,-70.4388 1546.1186,-68.4343 1547.1392,-75.3595"/>
</g>
<!-- Node28&#45;&gt;Node3 -->
<g id="edge42" class="edge">
<title>Node28&#45;&gt;Node3</title>
<path fill="none" stroke="#191970" d="M251.2122,-291.4004C243.9729,-260.2965 226.0597,-161.4474 276.6427,-112 307.5974,-81.7403 609.6122,-69.9906 710.2219,-66.8966"/>
<polygon fill="#191970" stroke="#191970" points="710.5038,-70.3898 720.3947,-66.5924 710.2945,-63.393 710.5038,-70.3898"/>
</g>
<!-- Node29&#45;&gt;Node3 -->
<g id="edge45" class="edge">
<title>Node29&#45;&gt;Node3</title>
<path fill="none" stroke="#191970" d="M913.23,-112.3733C874.3245,-101.797 812.3849,-84.959 774.8173,-74.7465"/>
<polygon fill="#191970" stroke="#191970" points="775.475,-71.2983 764.907,-72.0524 773.6387,-78.0532 775.475,-71.2983"/>
</g>
<!-- Node29&#45;&gt;Node10 -->
<g id="edge44" class="edge">
<title>Node29&#45;&gt;Node10</title>
<path fill="none" stroke="#191970" d="M966.5839,-112.2455C982.6827,-103.4928 1006.5306,-90.527 1024.8818,-80.5496"/>
<polygon fill="#191970" stroke="#191970" points="1026.7934,-83.4942 1033.9071,-75.6427 1023.4498,-77.3444 1026.7934,-83.4942"/>
</g>
<!-- Node30&#45;&gt;Node4 -->
<g id="edge75" class="edge">
<title>Node30&#45;&gt;Node4</title>
<path fill="none" stroke="#191970" d="M1380.0835,-542.328C1219.6065,-532.1962 851.3628,-508.5114 794.6427,-501 786.2773,-499.8922 777.4636,-498.4448 768.8785,-496.8796"/>
<polygon fill="#191970" stroke="#191970" points="769.4219,-493.4204 758.9457,-495.0014 768.1213,-500.2985 769.4219,-493.4204"/>
</g>
<!-- Node31 -->
<g id="node27" class="node">
<title>Node31</title>
<g id="a_node27"><a xlink:href="Transform_8h.html" target="_top" xlink:title="iDynTree/Core/Transform.h">
<polygon fill="none" stroke="#000000" points="1073.6427,-347.5 1073.6427,-366.5 1219.6427,-366.5 1219.6427,-347.5 1073.6427,-347.5"/>
<text text-anchor="middle" x="1146.6427" y="-354.5" font-family="FreeSans.ttf" font-size="10.00" fill="#000000">iDynTree/Core/Transform.h</text>
</a>
</g>
</g>
<!-- Node30&#45;&gt;Node31 -->
<g id="edge49" class="edge">
<title>Node30&#45;&gt;Node31</title>
<path fill="none" stroke="#191970" d="M1379.8388,-537.5521C1295.5387,-526.5646 1169.1652,-508.9237 1161.6427,-501 1129.7377,-467.3935 1136.0064,-407.5092 1142.0135,-376.6243"/>
<polygon fill="#191970" stroke="#191970" points="1145.4757,-377.1708 1144.1437,-366.6601 1138.6304,-375.7074 1145.4757,-377.1708"/>
</g>
<!-- Node32 -->
<g id="node28" class="node">
<title>Node32</title>
<g id="a_node28"><a xlink:href="Twist_8h.html" target="_top" xlink:title="iDynTree/Core/Twist.h">
<polygon fill="none" stroke="#000000" points="1336.6427,-476 1336.6427,-495 1458.6427,-495 1458.6427,-476 1336.6427,-476"/>
<text text-anchor="middle" x="1397.6427" y="-483" font-family="FreeSans.ttf" font-size="10.00" fill="#000000">iDynTree/Core/Twist.h</text>
</a>
</g>
</g>
<!-- Node30&#45;&gt;Node32 -->
<g id="edge54" class="edge">
<title>Node30&#45;&gt;Node32</title>
<path fill="none" stroke="#191970" d="M1445.7364,-537.3906C1437.1699,-528.1478 1424.0258,-513.966 1413.6424,-502.7628"/>
<polygon fill="#191970" stroke="#191970" points="1416.0392,-500.2 1406.6745,-495.2449 1410.9052,-504.9584 1416.0392,-500.2"/>
</g>
<!-- Node35 -->
<g id="node31" class="node">
<title>Node35</title>
<g id="a_node31"><a xlink:href="SpatialAcc_8h.html" target="_top" xlink:title="iDynTree/Core/SpatialAcc.h">
<polygon fill="none" stroke="#000000" points="1170.6427,-476 1170.6427,-495 1318.6427,-495 1318.6427,-476 1170.6427,-476"/>
<text text-anchor="middle" x="1244.6427" y="-483" font-family="FreeSans.ttf" font-size="10.00" fill="#000000">iDynTree/Core/SpatialAcc.h</text>
</a>
</g>
</g>
<!-- Node30&#45;&gt;Node35 -->
<g id="edge65" class="edge">
<title>Node30&#45;&gt;Node35</title>
<path fill="none" stroke="#191970" d="M1421.8302,-537.3906C1385.4605,-526.7395 1326.6949,-509.5296 1286.9064,-497.8772"/>
<polygon fill="#191970" stroke="#191970" points="1287.8054,-494.4936 1277.2248,-495.0419 1285.838,-501.2114 1287.8054,-494.4936"/>
</g>
<!-- Node30&#45;&gt;Node36 -->
<g id="edge67" class="edge">
<title>Node30&#45;&gt;Node36</title>
<path fill="none" stroke="#191970" d="M1529.2871,-538.0184C1532.4472,-537.6683 1535.576,-537.3274 1538.6427,-537 1707.7693,-518.9454 1751.407,-526.0304 1919.6427,-501 1927.1443,-499.8839 1935.0235,-498.5087 1942.7513,-497.0424"/>
<polygon fill="#191970" stroke="#191970" points="1943.6387,-500.4351 1952.7784,-495.0764 1942.2918,-493.5659 1943.6387,-500.4351"/>
</g>
<!-- Node38 -->
<g id="node34" class="node">
<title>Node38</title>
<g id="a_node34"><a xlink:href="ArticulatedBodyInertia_8h.html" target="_top" xlink:title="iDynTree/Core/Articulated\lBodyInertia.h">
<polygon fill="none" stroke="#000000" points="554.1427,-168.5 554.1427,-198.5 695.1427,-198.5 695.1427,-168.5 554.1427,-168.5"/>
<text text-anchor="start" x="562.1427" y="-186.5" font-family="FreeSans.ttf" font-size="10.00" fill="#000000">iDynTree/Core/Articulated</text>
<text text-anchor="middle" x="624.6427" y="-175.5" font-family="FreeSans.ttf" font-size="10.00" fill="#000000">BodyInertia.h</text>
</a>
</g>
</g>
<!-- Node30&#45;&gt;Node38 -->
<g id="edge72" class="edge">
<title>Node30&#45;&gt;Node38</title>
<path fill="none" stroke="#191970" d="M1379.7743,-537.5629C1293.8526,-526.497 1161.8732,-508.6909 1139.6427,-501 1113.49,-491.9522 1110.0693,-483.0065 1085.6427,-470 944.4104,-394.7976 894.5519,-401.5645 762.6427,-311 716.8747,-279.5772 670.9657,-233.58 645.3333,-206.277"/>
<polygon fill="#191970" stroke="#191970" points="647.727,-203.7114 638.355,-198.7701 642.6,-208.4773 647.727,-203.7114"/>
</g>
<!-- Node30&#45;&gt;Node39 -->
<g id="edge76" class="edge">
<title>Node30&#45;&gt;Node39</title>
<path fill="none" stroke="#191970" d="M1379.8308,-538.0517C1277.38,-525.7236 1104.4479,-504.6208 1090.6427,-501 1088.0195,-500.312 1085.3363,-499.4859 1082.6689,-498.5781"/>
<polygon fill="#191970" stroke="#191970" points="1083.806,-495.2665 1073.2138,-495.0325 1081.3482,-501.8208 1083.806,-495.2665"/>
</g>
<!-- Node31&#45;&gt;Node3 -->
<g id="edge53" class="edge">
<title>Node31&#45;&gt;Node3</title>
<path fill="none" stroke="#191970" d="M1073.4446,-352.6433C952.3765,-343.4105 723.6427,-316.505 723.6427,-245 723.6427,-245 723.6427,-245 723.6427,-183.5 723.6427,-148.6936 731.868,-108.8226 737.4948,-85.6197"/>
<polygon fill="#191970" stroke="#191970" points="740.954,-86.2152 740.0008,-75.6633 734.1657,-84.5065 740.954,-86.2152"/>
</g>
<!-- Node31&#45;&gt;Node21 -->
<g id="edge50" class="edge">
<title>Node31&#45;&gt;Node21</title>
<path fill="none" stroke="#191970" d="M1119.8253,-347.3733C1094.1095,-338.1419 1055.1047,-324.1402 1026.6828,-313.9375"/>
<polygon fill="#191970" stroke="#191970" points="1027.7046,-310.5857 1017.1101,-310.5011 1025.3395,-317.174 1027.7046,-310.5857"/>
</g>
<!-- Node31&#45;&gt;Node23 -->
<g id="edge51" class="edge">
<title>Node31&#45;&gt;Node23</title>
<path fill="none" stroke="#191970" d="M1141.8682,-347.4509C1132.6107,-328.936 1112.0722,-287.8591 1100.002,-263.7187"/>
<polygon fill="#191970" stroke="#191970" points="1103.0078,-261.9039 1095.4051,-254.5249 1096.7468,-265.0344 1103.0078,-261.9039"/>
</g>
<!-- Node31&#45;&gt;Node26 -->
<g id="edge52" class="edge">
<title>Node31&#45;&gt;Node26</title>
<path fill="none" stroke="#191970" d="M1149.0691,-347.4967C1158.0388,-312.3651 1189.4362,-189.3922 1201.6906,-141.3958"/>
<polygon fill="#191970" stroke="#191970" points="1205.1034,-142.1766 1204.1861,-131.6216 1198.321,-140.4449 1205.1034,-142.1766"/>
</g>
<!-- Node33 -->
<g id="node29" class="node">
<title>Node33</title>
<g id="a_node29"><a xlink:href="SpatialMotionVector_8h.html" target="_top" xlink:title="iDynTree/Core/SpatialMotion\lVector.h">
<polygon fill="none" stroke="#000000" points="1320.1427,-403.5 1320.1427,-433.5 1475.1427,-433.5 1475.1427,-403.5 1320.1427,-403.5"/>
<text text-anchor="start" x="1328.1427" y="-421.5" font-family="FreeSans.ttf" font-size="10.00" fill="#000000">iDynTree/Core/SpatialMotion</text>
<text text-anchor="middle" x="1397.6427" y="-410.5" font-family="FreeSans.ttf" font-size="10.00" fill="#000000">Vector.h</text>
</a>
</g>
</g>
<!-- Node32&#45;&gt;Node33 -->
<g id="edge55" class="edge">
<title>Node32&#45;&gt;Node33</title>
<path fill="none" stroke="#191970" d="M1397.6427,-475.9005C1397.6427,-467.5099 1397.6427,-454.9451 1397.6427,-443.7085"/>
<polygon fill="#191970" stroke="#191970" points="1401.1428,-443.5217 1397.6427,-433.5218 1394.1428,-443.5218 1401.1428,-443.5217"/>
</g>
<!-- Node33&#45;&gt;Node7 -->
<g id="edge56" class="edge">
<title>Node33&#45;&gt;Node7</title>
<path fill="none" stroke="#191970" d="M1360.8255,-403.4687C1345.4959,-395.1524 1329.2816,-383.1711 1320.6427,-367 1299.9371,-328.2415 1137.7076,-524.2655 1321.6427,-168 1328.6134,-154.4983 1341.5791,-144.0546 1354.0271,-136.5564"/>
<polygon fill="#191970" stroke="#191970" points="1355.8701,-139.5363 1362.9066,-131.6155 1352.4664,-133.4195 1355.8701,-139.5363"/>
</g>
<!-- Node33&#45;&gt;Node24 -->
<g id="edge57" class="edge">
<title>Node33&#45;&gt;Node24</title>
<path fill="none" stroke="#191970" d="M1365.1884,-403.3708C1350.9157,-394.8631 1335.6096,-382.7522 1327.6427,-367 1323.6309,-359.0679 1325.5531,-355.6398 1327.6427,-347 1341.452,-289.9023 1378.8334,-230.3813 1398.7477,-201.4438"/>
<polygon fill="#191970" stroke="#191970" points="1401.6763,-203.3633 1404.5475,-193.165 1395.9432,-199.3469 1401.6763,-203.3633"/>
</g>
<!-- Node34 -->
<g id="node30" class="node">
<title>Node34</title>
<g id="a_node30"><a xlink:href="SpatialVector_8h.html" target="_top" xlink:title="iDynTree/Core/SpatialVector.h">
<polygon fill="none" stroke="#000000" points="1336.1427,-347.5 1336.1427,-366.5 1497.1427,-366.5 1497.1427,-347.5 1336.1427,-347.5"/>
<text text-anchor="middle" x="1416.6427" y="-354.5" font-family="FreeSans.ttf" font-size="10.00" fill="#000000">iDynTree/Core/SpatialVector.h</text>
</a>
</g>
</g>
<!-- Node33&#45;&gt;Node34 -->
<g id="edge58" class="edge">
<title>Node33&#45;&gt;Node34</title>
<path fill="none" stroke="#191970" d="M1402.3393,-403.2977C1404.8394,-395.2055 1407.9417,-385.1639 1410.6174,-376.5029"/>
<polygon fill="#191970" stroke="#191970" points="1413.9928,-377.4345 1413.6006,-366.8469 1407.3047,-375.3682 1413.9928,-377.4345"/>
</g>
<!-- Node34&#45;&gt;Node8 -->
<g id="edge61" class="edge">
<title>Node34&#45;&gt;Node8</title>
<path fill="none" stroke="#191970" d="M1424.164,-347.3878C1442.091,-323.7901 1487.005,-260.4395 1502.6427,-199 1512.6289,-159.765 1508.1041,-136.1944 1475.6427,-112 1458.5665,-99.2726 1338.8656,-83.2478 1259.8297,-73.8619"/>
<polygon fill="#191970" stroke="#191970" points="1259.7837,-70.3324 1249.443,-72.6388 1258.965,-77.2844 1259.7837,-70.3324"/>
</g>
<!-- Node34&#45;&gt;Node19 -->
<g id="edge64" class="edge">
<title>Node34&#45;&gt;Node19</title>
<path fill="none" stroke="#191970" d="M1436.52,-347.3982C1468.1712,-331.4289 1530.8143,-296.9782 1573.6427,-255 1620.6067,-208.9682 1652.8689,-163.2342 1611.6427,-112 1590.4858,-85.7071 1494.4229,-73.6064 1439.8429,-68.7676"/>
<polygon fill="#191970" stroke="#191970" points="1440.0977,-65.2768 1429.8381,-67.9207 1439.5072,-72.2518 1440.0977,-65.2768"/>
</g>
<!-- Node34&#45;&gt;Node21 -->
<g id="edge59" class="edge">
<title>Node34&#45;&gt;Node21</title>
<path fill="none" stroke="#191970" d="M1343.8947,-347.4369C1267.4792,-337.3917 1147.7096,-321.6473 1069.1851,-311.3248"/>
<polygon fill="#191970" stroke="#191970" points="1069.2364,-307.8015 1058.8655,-309.9682 1068.324,-314.7418 1069.2364,-307.8015"/>
</g>
<!-- Node34&#45;&gt;Node23 -->
<g id="edge60" class="edge">
<title>Node34&#45;&gt;Node23</title>
<path fill="none" stroke="#191970" d="M1388.8481,-347.4509C1330.2649,-327.3242 1194.0788,-280.5363 1127.9734,-257.8253"/>
<polygon fill="#191970" stroke="#191970" points="1128.9616,-254.464 1118.3669,-254.5249 1126.6871,-261.0842 1128.9616,-254.464"/>
</g>
<!-- Node34&#45;&gt;Node24 -->
<g id="edge62" class="edge">
<title>Node34&#45;&gt;Node24</title>
<path fill="none" stroke="#191970" d="M1416.3668,-347.4248C1415.5764,-319.999 1413.292,-240.732 1412.2161,-203.3964"/>
<polygon fill="#191970" stroke="#191970" points="1415.7107,-203.1545 1411.924,-193.2595 1408.7136,-203.3562 1415.7107,-203.1545"/>
</g>
<!-- Node34&#45;&gt;Node27 -->
<g id="edge63" class="edge">
<title>Node34&#45;&gt;Node27</title>
<path fill="none" stroke="#191970" d="M1460.2392,-347.452C1533.5625,-330.1216 1673.6427,-290.994 1673.6427,-245 1673.6427,-245 1673.6427,-245 1673.6427,-183.5 1673.6427,-139.9434 1634.5512,-101.9844 1608.7758,-81.6899"/>
<polygon fill="#191970" stroke="#191970" points="1610.7027,-78.7585 1600.6208,-75.502 1606.4714,-84.335 1610.7027,-78.7585"/>
</g>
<!-- Node35&#45;&gt;Node33 -->
<g id="edge66" class="edge">
<title>Node35&#45;&gt;Node33</title>
<path fill="none" stroke="#191970" d="M1266.5639,-475.9005C1289.2803,-465.9528 1325.3942,-450.1382 1353.9682,-437.6254"/>
<polygon fill="#191970" stroke="#191970" points="1355.583,-440.7392 1363.3393,-433.5218 1352.7751,-434.3271 1355.583,-440.7392"/>
</g>
<!-- Node37 -->
<g id="node33" class="node">
<title>Node37</title>
<g id="a_node33"><a xlink:href="SpatialForceVector_8h.html" target="_top" xlink:title="iDynTree/Core/SpatialForce\lVector.h">
<polygon fill="none" stroke="#000000" points="1531.6427,-403.5 1531.6427,-433.5 1679.6427,-433.5 1679.6427,-403.5 1531.6427,-403.5"/>
<text text-anchor="start" x="1539.6427" y="-421.5" font-family="FreeSans.ttf" font-size="10.00" fill="#000000">iDynTree/Core/SpatialForce</text>
<text text-anchor="middle" x="1605.6427" y="-410.5" font-family="FreeSans.ttf" font-size="10.00" fill="#000000">Vector.h</text>
</a>
</g>
</g>
<!-- Node36&#45;&gt;Node37 -->
<g id="edge68" class="edge">
<title>Node36&#45;&gt;Node37</title>
<path fill="none" stroke="#191970" d="M1950.2862,-475.9512C1940.2117,-473.9135 1929.5757,-471.8268 1919.6427,-470 1841.8978,-455.702 1752.9597,-441.2974 1689.6323,-431.3727"/>
<polygon fill="#191970" stroke="#191970" points="1690.1148,-427.9057 1679.6942,-429.819 1689.0336,-434.8217 1690.1148,-427.9057"/>
</g>
<!-- Node37&#45;&gt;Node7 -->
<g id="edge69" class="edge">
<title>Node37&#45;&gt;Node7</title>
<path fill="none" stroke="#191970" d="M1606.0907,-403.4115C1606.517,-360.3666 1601.692,-235.7264 1535.6427,-168 1522.5617,-154.5869 1480.2246,-142.3061 1443.8513,-133.814"/>
<polygon fill="#191970" stroke="#191970" points="1444.307,-130.3283 1433.7796,-131.5215 1442.7533,-137.1537 1444.307,-130.3283"/>
</g>
<!-- Node37&#45;&gt;Node24 -->
<g id="edge70" class="edge">
<title>Node37&#45;&gt;Node24</title>
<path fill="none" stroke="#191970" d="M1593.212,-403.4422C1558.872,-361.8448 1462.8268,-245.5014 1426.1396,-201.0606"/>
<polygon fill="#191970" stroke="#191970" points="1428.6948,-198.6582 1419.6294,-193.1746 1423.2966,-203.1146 1428.6948,-198.6582"/>
</g>
<!-- Node37&#45;&gt;Node34 -->
<g id="edge71" class="edge">
<title>Node37&#45;&gt;Node34</title>
<path fill="none" stroke="#191970" d="M1559.4081,-403.4554C1527.5963,-393.104 1485.8097,-379.5067 1455.6733,-369.7004"/>
<polygon fill="#191970" stroke="#191970" points="1456.5232,-366.2964 1445.931,-366.5303 1454.3572,-372.9529 1456.5232,-366.2964"/>
</g>
<!-- Node38&#45;&gt;Node3 -->
<g id="edge74" class="edge">
<title>Node38&#45;&gt;Node3</title>
<path fill="none" stroke="#191970" d="M640.0691,-168.1389C662.1986,-146.1032 702.8064,-105.6675 725.7307,-82.8403"/>
<polygon fill="#191970" stroke="#191970" points="728.4261,-85.0957 733.0425,-75.5595 723.4868,-80.1354 728.4261,-85.0957"/>
</g>
<!-- Node38&#45;&gt;Node26 -->
<g id="edge73" class="edge">
<title>Node38&#45;&gt;Node26</title>
<path fill="none" stroke="#191970" d="M695.4188,-173.831C710.9656,-171.811 727.3506,-169.7619 742.6427,-168 872.22,-153.0704 1022.4996,-138.7113 1116.0881,-130.119"/>
<polygon fill="#191970" stroke="#191970" points="1116.4498,-133.6006 1126.0888,-129.2029 1115.8113,-126.6297 1116.4498,-133.6006"/>
</g>
<!-- Node42&#45;&gt;Node4 -->
<g id="edge96" class="edge">
<title>Node42&#45;&gt;Node4</title>
<path fill="none" stroke="#191970" d="M939.0211,-660.4676C910.5689,-653.3954 874.8181,-641.8333 846.6427,-624 819.5588,-606.8576 758.4671,-536.3704 730.333,-503.0738"/>
<polygon fill="#191970" stroke="#191970" points="732.7438,-500.5025 723.628,-495.103 727.387,-505.0086 732.7438,-500.5025"/>
</g>
<!-- Node42&#45;&gt;Node31 -->
<g id="edge95" class="edge">
<title>Node42&#45;&gt;Node31</title>
<path fill="none" stroke="#191970" d="M1054.4084,-667.5644C1158.7232,-663.0589 1366.4651,-651.2707 1540.6427,-624 1779.9757,-586.528 1920.9086,-690.6409 2071.6427,-501 2080.2156,-490.2143 2081.1518,-479.9702 2071.6427,-470 2013.2959,-408.8239 1393.7188,-454.2577 1311.6427,-434 1283.9864,-427.174 1213.4918,-391.7956 1174.1833,-371.4504"/>
<polygon fill="#191970" stroke="#191970" points="1175.3938,-368.135 1164.9066,-366.6283 1172.1652,-374.346 1175.3938,-368.135"/>
</g>
<!-- Node42&#45;&gt;Node39 -->
<g id="edge103" class="edge">
<title>Node42&#45;&gt;Node39</title>
<path fill="none" stroke="#191970" d="M1031.1052,-660.4699C1108.3784,-642.5492 1264.5007,-601.5973 1295.6427,-557 1331.1679,-506.1257 1319.3043,-566.8926 1090.6427,-501 1088.1866,-500.2922 1085.6726,-499.4784 1083.1652,-498.6022"/>
<polygon fill="#191970" stroke="#191970" points="1084.2549,-495.2724 1073.6634,-495.0058 1081.7769,-501.8191 1084.2549,-495.2724"/>
</g>
<!-- Node43 -->
<g id="node39" class="node">
<title>Node43</title>
<g id="a_node39"><a xlink:href="IJoint_8h.html" target="_top" xlink:title="iDynTree/Model/IJoint.h">
<polygon fill="none" stroke="#000000" points="620.6427,-537.5 620.6427,-556.5 748.6427,-556.5 748.6427,-537.5 620.6427,-537.5"/>
<text text-anchor="middle" x="684.6427" y="-544.5" font-family="FreeSans.ttf" font-size="10.00" fill="#000000">iDynTree/Model/IJoint.h</text>
</a>
</g>
</g>
<!-- Node42&#45;&gt;Node43 -->
<g id="edge83" class="edge">
<title>Node42&#45;&gt;Node43</title>
<path fill="none" stroke="#191970" d="M921.0248,-660.6701C864.9089,-652.0329 789.5942,-638.3862 762.6427,-624 735.6253,-609.5786 711.7494,-582.8559 697.7436,-564.9994"/>
<polygon fill="#191970" stroke="#191970" points="700.1885,-562.4315 691.3548,-556.582 694.6126,-566.6635 700.1885,-562.4315"/>
</g>
<!-- Node44 -->
<g id="node40" class="node">
<title>Node44</title>
<g id="a_node40"><a xlink:href="Link_8h.html" target="_top" xlink:title="iDynTree/Model/Link.h">
<polygon fill="none" stroke="#000000" points="880.6427,-599 880.6427,-618 1004.6427,-618 1004.6427,-599 880.6427,-599"/>
<text text-anchor="middle" x="942.6427" y="-606" font-family="FreeSans.ttf" font-size="10.00" fill="#000000">iDynTree/Model/Link.h</text>
</a>
</g>
</g>
<!-- Node42&#45;&gt;Node44 -->
<g id="edge85" class="edge">
<title>Node42&#45;&gt;Node44</title>
<path fill="none" stroke="#191970" d="M980.6114,-660.3906C973.9797,-651.3273 963.8731,-637.5149 955.754,-626.4188"/>
<polygon fill="#191970" stroke="#191970" points="958.5028,-624.2484 949.7731,-618.2449 952.8536,-628.382 958.5028,-624.2484"/>
</g>
<!-- Node49 -->
<g id="node44" class="node">
<title>Node49</title>
<g id="a_node44"><a xlink:href="SolidShapes_8h.html" target="_top" xlink:title="iDynTree/Model/SolidShapes.h">
<polygon fill="none" stroke="#000000" points="919.1427,-537.5 919.1427,-556.5 1082.1427,-556.5 1082.1427,-537.5 919.1427,-537.5"/>
<text text-anchor="middle" x="1000.6427" y="-544.5" font-family="FreeSans.ttf" font-size="10.00" fill="#000000">iDynTree/Model/SolidShapes.h</text>
</a>
</g>
</g>
<!-- Node42&#45;&gt;Node49 -->
<g id="edge97" class="edge">
<title>Node42&#45;&gt;Node49</title>
<path fill="none" stroke="#191970" d="M995.0246,-660.4183C1001.37,-651.5336 1010.0488,-637.6624 1013.6427,-624 1018.7428,-604.6118 1013.6133,-581.9301 1008.3704,-566.229"/>
<polygon fill="#191970" stroke="#191970" points="1011.5704,-564.7886 1004.8469,-556.6005 1004.9967,-567.1943 1011.5704,-564.7886"/>
</g>
<!-- Node50 -->
<g id="node45" class="node">
<title>Node50</title>
<polygon fill="none" stroke="#bfbfbf" points="803.1427,-476 803.1427,-495 852.1427,-495 852.1427,-476 803.1427,-476"/>
<text text-anchor="middle" x="827.6427" y="-483" font-family="FreeSans.ttf" font-size="10.00" fill="#000000">cstdlib</text>
</g>
<!-- Node42&#45;&gt;Node50 -->
<g id="edge102" class="edge">
<title>Node42&#45;&gt;Node50</title>
<path fill="none" stroke="#191970" d="M937.473,-660.4392C914.6439,-653.7405 888.9286,-642.539 871.6427,-624 840.505,-590.6052 831.4027,-535.2093 828.7418,-505.6088"/>
<polygon fill="#191970" stroke="#191970" points="832.2077,-505.0138 827.9862,-495.2963 825.2264,-505.5254 832.2077,-505.0138"/>
</g>
<!-- Node43&#45;&gt;Node4 -->
<g id="edge84" class="edge">
<title>Node43&#45;&gt;Node4</title>
<path fill="none" stroke="#191970" d="M689.4864,-537.3906C693.9193,-528.5965 700.6058,-515.3312 706.1086,-504.4145"/>
<polygon fill="#191970" stroke="#191970" points="709.3549,-505.75 710.7307,-495.2449 703.1041,-502.5992 709.3549,-505.75"/>
</g>
<!-- Node44&#45;&gt;Node4 -->
<g id="edge94" class="edge">
<title>Node44&#45;&gt;Node4</title>
<path fill="none" stroke="#191970" d="M924.8304,-598.8484C885.1312,-577.3374 789.2069,-525.3608 742.3284,-499.9596"/>
<polygon fill="#191970" stroke="#191970" points="743.832,-496.7936 733.3723,-495.1068 740.4971,-502.9482 743.832,-496.7936"/>
</g>
<!-- Node45 -->
<g id="node41" class="node">
<title>Node45</title>
<g id="a_node41"><a xlink:href="SpatialInertia_8h.html" target="_top" xlink:title="iDynTree/Core/SpatialInertia.h">
<polygon fill="none" stroke="#000000" points="1547.6427,-537.5 1547.6427,-556.5 1709.6427,-556.5 1709.6427,-537.5 1547.6427,-537.5"/>
<text text-anchor="middle" x="1628.6427" y="-544.5" font-family="FreeSans.ttf" font-size="10.00" fill="#000000">iDynTree/Core/SpatialInertia.h</text>
</a>
</g>
</g>
<!-- Node44&#45;&gt;Node45 -->
<g id="edge86" class="edge">
<title>Node44&#45;&gt;Node45</title>
<path fill="none" stroke="#191970" d="M1004.8961,-603.625C1111.5764,-595.1602 1336.4504,-576.8341 1537.0776,-557.1363"/>
<polygon fill="#191970" stroke="#191970" points="1537.6083,-560.6011 1547.217,-556.1376 1536.9221,-553.6348 1537.6083,-560.6011"/>
</g>
<!-- Node45&#45;&gt;Node7 -->
<g id="edge88" class="edge">
<title>Node45&#45;&gt;Node7</title>
<path fill="none" stroke="#191970" d="M1589.7572,-537.4838C1557.8751,-528.8019 1516.4612,-515.1953 1506.6427,-501 1506.6427,-501 1506.6427,-347 1506.6427,-347 1505.7538,-267.4295 1548.1813,-233.2571 1502.6427,-168 1491.4746,-151.996 1473.8348,-141.5599 1455.6066,-134.7546"/>
<polygon fill="#191970" stroke="#191970" points="1456.6463,-131.4115 1446.052,-131.5166 1454.3995,-138.0411 1456.6463,-131.4115"/>
</g>
<!-- Node45&#45;&gt;Node32 -->
<g id="edge89" class="edge">
<title>Node45&#45;&gt;Node32</title>
<path fill="none" stroke="#191970" d="M1592.8024,-537.4581C1552.5942,-526.7533 1487.2736,-509.3628 1443.4058,-497.6837"/>
<polygon fill="#191970" stroke="#191970" points="1444.1309,-494.2549 1433.5671,-495.0643 1442.33,-501.0193 1444.1309,-494.2549"/>
</g>
<!-- Node45&#45;&gt;Node35 -->
<g id="edge92" class="edge">
<title>Node45&#45;&gt;Node35</title>
<path fill="none" stroke="#191970" d="M1562.1867,-537.4862C1501.1282,-528.5927 1408.1653,-514.6677 1327.6427,-501 1320.0215,-499.7064 1312.0181,-498.288 1304.1135,-496.8512"/>
<polygon fill="#191970" stroke="#191970" points="1304.6575,-493.3926 1294.1899,-495.0293 1303.3935,-500.2776 1304.6575,-493.3926"/>
</g>
<!-- Node45&#45;&gt;Node36 -->
<g id="edge93" class="edge">
<title>Node45&#45;&gt;Node36</title>
<path fill="none" stroke="#191970" d="M1694.3709,-537.4615C1753.4428,-528.6866 1842.5103,-514.9547 1919.6427,-501 1926.409,-499.7759 1933.4997,-498.4234 1940.5162,-497.0425"/>
<polygon fill="#191970" stroke="#191970" points="1941.5753,-500.4002 1950.6968,-495.0106 1940.2051,-493.5356 1941.5753,-500.4002"/>
</g>
<!-- Node46 -->
<g id="node42" class="node">
<title>Node46</title>
<g id="a_node42"><a xlink:href="SpatialInertiaRaw_8h.html" target="_top" xlink:title="iDynTree/Core/SpatialInertia\lRaw.h">
<polygon fill="none" stroke="#ff0000" points="1515.1427,-470.5 1515.1427,-500.5 1668.1427,-500.5 1668.1427,-470.5 1515.1427,-470.5"/>
<text text-anchor="start" x="1523.1427" y="-488.5" font-family="FreeSans.ttf" font-size="10.00" fill="#000000">iDynTree/Core/SpatialInertia</text>
<text text-anchor="middle" x="1591.6427" y="-477.5" font-family="FreeSans.ttf" font-size="10.00" fill="#000000">Raw.h</text>
</a>
</g>
</g>
<!-- Node45&#45;&gt;Node46 -->
<g id="edge87" class="edge">
<title>Node45&#45;&gt;Node46</title>
<path fill="none" stroke="#191970" d="M1622.8614,-537.3906C1618.3176,-529.838 1611.7897,-518.9876 1605.8768,-509.1593"/>
<polygon fill="#191970" stroke="#191970" points="1608.8482,-507.309 1600.6939,-500.5446 1602.8501,-510.9177 1608.8482,-507.309"/>
</g>
<!-- Node48 -->
<g id="node43" class="node">
<title>Node48</title>
<g id="a_node43"><a xlink:href="SpatialMomentum_8h.html" target="_top" xlink:title="iDynTree/Core/SpatialMomentum.h">
<polygon fill="none" stroke="#000000" points="1724.6427,-476 1724.6427,-495 1910.6427,-495 1910.6427,-476 1724.6427,-476"/>
<text text-anchor="middle" x="1817.6427" y="-483" font-family="FreeSans.ttf" font-size="10.00" fill="#000000">iDynTree/Core/SpatialMomentum.h</text>
</a>
</g>
</g>
<!-- Node45&#45;&gt;Node48 -->
<g id="edge90" class="edge">
<title>Node45&#45;&gt;Node48</title>
<path fill="none" stroke="#191970" d="M1658.1739,-537.3906C1690.6293,-526.8298 1742.9008,-509.8208 1778.6913,-498.1747"/>
<polygon fill="#191970" stroke="#191970" points="1779.8926,-501.4645 1788.3188,-495.0419 1777.7266,-494.808 1779.8926,-501.4645"/>
</g>
<!-- Node48&#45;&gt;Node37 -->
<g id="edge91" class="edge">
<title>Node48&#45;&gt;Node37</title>
<path fill="none" stroke="#191970" d="M1787.2683,-475.9005C1754.9024,-465.6717 1702.9085,-449.2397 1662.8278,-436.5727"/>
<polygon fill="#191970" stroke="#191970" points="1663.7641,-433.198 1653.1743,-433.5218 1661.6547,-439.8726 1663.7641,-433.198"/>
</g>
<!-- Node49&#45;&gt;Node3 -->
<g id="edge99" class="edge">
<title>Node49&#45;&gt;Node3</title>
<path fill="none" stroke="#191970" d="M983.3906,-537.3768C884.2282,-482.0455 391.0812,-206.6175 386.6427,-199 379.7063,-187.0956 378.3499,-179.0025 386.6427,-168 426.2699,-115.4245 630.3426,-81.6887 710.3794,-70.2983"/>
<polygon fill="#191970" stroke="#191970" points="710.9646,-73.7506 720.3836,-68.8995 709.9953,-66.818 710.9646,-73.7506"/>
</g>
<!-- Node49&#45;&gt;Node31 -->
<g id="edge101" class="edge">
<title>Node49&#45;&gt;Node31</title>
<path fill="none" stroke="#191970" d="M1001.3625,-537.3046C1002.8763,-521.9881 1007.426,-491.7062 1020.6427,-470 1046.5661,-427.4252 1093.4615,-391.6553 1122.1509,-372.367"/>
<polygon fill="#191970" stroke="#191970" points="1124.3433,-375.1143 1130.7762,-366.696 1120.4976,-369.2653 1124.3433,-375.1143"/>
</g>
<!-- Node49&#45;&gt;Node39 -->
<g id="edge100" class="edge">
<title>Node49&#45;&gt;Node39</title>
<path fill="none" stroke="#191970" d="M1008.7677,-537.3906C1016.5069,-528.2376 1028.3414,-514.2409 1037.7699,-503.09"/>
<polygon fill="#191970" stroke="#191970" points="1040.6192,-505.1409 1044.4031,-495.2449 1035.2738,-500.6213 1040.6192,-505.1409"/>
</g>
<!-- Node49&#45;&gt;Node50 -->
<g id="edge98" class="edge">
<title>Node49&#45;&gt;Node50</title>
<path fill="none" stroke="#191970" d="M971.4866,-537.4363C944.2467,-528.396 902.5122,-514.276 866.6427,-501 864.7465,-500.2982 862.8032,-499.5664 860.8452,-498.8194"/>
<polygon fill="#191970" stroke="#191970" points="861.6722,-495.3858 851.0835,-495.0256 859.1364,-501.9104 861.6722,-495.3858"/>
</g>
<!-- Node51&#45;&gt;Node4 -->
<g id="edge105" class="edge">
<title>Node51&#45;&gt;Node4</title>
<path fill="none" stroke="#191970" d="M1138.3997,-540.7309C1054.6349,-533.2169 914.4439,-519.3114 794.6427,-501 786.871,-499.8121 778.7005,-498.3979 770.6817,-496.9142"/>
<polygon fill="#191970" stroke="#191970" points="771.1244,-493.4358 760.6471,-495.0095 769.8189,-500.313 771.1244,-493.4358"/>
</g>
<!-- Node51&#45;&gt;Node39 -->
<g id="edge106" class="edge">
<title>Node51&#45;&gt;Node39</title>
<path fill="none" stroke="#191970" d="M1186.3868,-537.3311C1161.6274,-528.1587 1123.5149,-513.8988 1090.6427,-501 1089.0011,-500.3559 1087.3218,-499.6914 1085.6273,-499.0166"/>
<polygon fill="#191970" stroke="#191970" points="1086.4985,-495.5944 1075.9149,-495.1073 1083.8848,-502.0881 1086.4985,-495.5944"/>
</g>
<!-- Node52&#45;&gt;Node4 -->
<g id="edge110" class="edge">
<title>Node52&#45;&gt;Node4</title>
<path fill="none" stroke="#191970" d="M1354.0291,-602.669C1225.2037,-593.7232 992.6358,-575.6777 910.6427,-557 879.0507,-549.8035 795.7131,-517.4738 748.8522,-498.8455"/>
<polygon fill="#191970" stroke="#191970" points="750.0232,-495.5445 739.438,-495.0923 747.4309,-502.0468 750.0232,-495.5445"/>
</g>
<!-- Node52&#45;&gt;Node21 -->
<g id="edge108" class="edge">
<title>Node52&#45;&gt;Node21</title>
<path fill="none" stroke="#191970" d="M1498.593,-598.978C1578.2303,-585.2961 1715.1145,-561.2475 1718.6427,-557 1744.0375,-526.4284 1718.0736,-494.8593 1677.6427,-470 1593.3169,-418.1515 1330.045,-456.4879 1233.6427,-434 1154.9567,-415.6448 1133.4035,-409.4305 1064.6427,-367 1042.3931,-353.2703 1020.4982,-332.6019 1006.368,-318.06"/>
<polygon fill="#191970" stroke="#191970" points="1008.7913,-315.5292 999.3639,-310.6945 1003.7186,-320.353 1008.7913,-315.5292"/>
</g>
<!-- Node52&#45;&gt;Node30 -->
<g id="edge111" class="edge">
<title>Node52&#45;&gt;Node30</title>
<path fill="none" stroke="#191970" d="M1444.5177,-598.8906C1446.1986,-590.276 1448.7167,-577.3708 1450.8211,-566.5858"/>
<polygon fill="#191970" stroke="#191970" points="1454.2613,-567.2301 1452.7413,-556.7449 1447.3909,-565.8895 1454.2613,-567.2301"/>
</g>
<!-- Node52&#45;&gt;Node36 -->
<g id="edge109" class="edge">
<title>Node52&#45;&gt;Node36</title>
<path fill="none" stroke="#191970" d="M1514.6126,-598.999C1577.5448,-590.0993 1671.1943,-575.4212 1751.6427,-557 1825.3572,-540.1208 1909.6819,-513.8131 1957.405,-498.255"/>
<polygon fill="#191970" stroke="#191970" points="1958.6032,-501.5455 1967.016,-495.1054 1956.4233,-494.8936 1958.6032,-501.5455"/>
</g>
<!-- Node52&#45;&gt;Node39 -->
<g id="edge112" class="edge">
<title>Node52&#45;&gt;Node39</title>
<path fill="none" stroke="#191970" d="M1430.872,-598.7751C1411.1034,-583.0078 1369.3848,-552.1102 1328.6427,-537 1228.3379,-499.7995 1193.7847,-529.402 1090.6427,-501 1088.1784,-500.3214 1085.6584,-499.5286 1083.1469,-498.6669"/>
<polygon fill="#191970" stroke="#191970" points="1084.2295,-495.3349 1073.6373,-495.0982 1081.77,-501.8886 1084.2295,-495.3349"/>
</g>
<!-- Node53&#45;&gt;Node36 -->
<g id="edge116" class="edge">
<title>Node53&#45;&gt;Node36</title>
<path fill="none" stroke="#191970" d="M2229.6117,-660.4955C2213.2927,-651.6628 2188.7985,-637.8246 2168.6427,-624 2109.7697,-583.6198 2045.353,-529.0131 2014.359,-502.0177"/>
<polygon fill="#191970" stroke="#191970" points="2016.3658,-499.123 2006.5358,-495.1706 2011.7556,-504.3904 2016.3658,-499.123"/>
</g>
<!-- Node54 -->
<g id="node49" class="node">
<title>Node54</title>
<polygon fill="none" stroke="#bfbfbf" points="2177.6427,-599 2177.6427,-618 2275.6427,-618 2275.6427,-599 2177.6427,-599"/>
<text text-anchor="middle" x="2226.6427" y="-606" font-family="FreeSans.ttf" font-size="10.00" fill="#000000">yarp/sig/Matrix.h</text>
</g>
<!-- Node53&#45;&gt;Node54 -->
<g id="edge114" class="edge">
<title>Node53&#45;&gt;Node54</title>
<path fill="none" stroke="#191970" d="M2244.3614,-660.3906C2241.3892,-651.6862 2236.9213,-638.6015 2233.2157,-627.7494"/>
<polygon fill="#191970" stroke="#191970" points="2236.5139,-626.5773 2229.9702,-618.2449 2229.8895,-628.8394 2236.5139,-626.5773"/>
</g>
<!-- Node55 -->
<g id="node50" class="node">
<title>Node55</title>
<polygon fill="none" stroke="#bfbfbf" points="2293.6427,-599 2293.6427,-618 2391.6427,-618 2391.6427,-599 2293.6427,-599"/>
<text text-anchor="middle" x="2342.6427" y="-606" font-family="FreeSans.ttf" font-size="10.00" fill="#000000">yarp/sig/Vector.h</text>
</g>
<!-- Node53&#45;&gt;Node55 -->
<g id="edge115" class="edge">
<title>Node53&#45;&gt;Node55</title>
<path fill="none" stroke="#191970" d="M2262.4864,-660.3906C2277.6845,-650.5519 2301.5275,-635.1167 2319.2633,-623.6351"/>
<polygon fill="#191970" stroke="#191970" points="2321.4107,-626.4144 2327.9032,-618.0419 2317.6066,-620.5382 2321.4107,-626.4144"/>
</g>
</g>
</svg>
