<?xml version="1.0" encoding="UTF-8" standalone="no"?>
<!DOCTYPE svg PUBLIC "-//W3C//DTD SVG 1.1//EN"
 "http://www.w3.org/Graphics/SVG/1.1/DTD/svg11.dtd">
<!-- Generated by graphviz version 2.40.1 (20161225.0304)
 -->
<!-- Title: SO3Utils.h Pages: 1 -->
<svg width="862pt" height="308pt"
 viewBox="0.00 0.00 862.00 308.00" xmlns="http://www.w3.org/2000/svg" xmlns:xlink="http://www.w3.org/1999/xlink">
<g id="graph0" class="graph" transform="scale(1 1) rotate(0) translate(4 304)">
<title>SO3Utils.h</title>
<!-- Node0 -->
<g id="node1" class="node">
<title>Node0</title>
<polygon fill="#bfbfbf" stroke="#000000" points="591,-280.5 591,-299.5 659,-299.5 659,-280.5 591,-280.5"/>
<text text-anchor="middle" x="625" y="-287.5" font-family="FreeSans.ttf" font-size="10.00" fill="#000000">SO3Utils.h</text>
</g>
<!-- Node1 -->
<g id="node2" class="node">
<title>Node1</title>
<g id="a_node2"><a xlink:href="Rotation_8h.html" target="_top" xlink:title="iDynTree/Core/Rotation.h">
<polygon fill="none" stroke="#000000" points="556.5,-224.5 556.5,-243.5 693.5,-243.5 693.5,-224.5 556.5,-224.5"/>
<text text-anchor="middle" x="625" y="-231.5" font-family="FreeSans.ttf" font-size="10.00" fill="#000000">iDynTree/Core/Rotation.h</text>
</a>
</g>
</g>
<!-- Node0&#45;&gt;Node1 -->
<g id="edge1" class="edge">
<title>Node0&#45;&gt;Node1</title>
<path fill="none" stroke="#191970" d="M625,-280.2455C625,-272.9382 625,-262.6944 625,-253.7046"/>
<polygon fill="#191970" stroke="#191970" points="628.5001,-253.6426 625,-243.6427 621.5001,-253.6427 628.5001,-253.6426"/>
</g>
<!-- Node3 -->
<g id="node4" class="node">
<title>Node3</title>
<g id="a_node4"><a xlink:href="GeomVector3_8h.html" target="_top" xlink:title="iDynTree/Core/GeomVector3.h">
<polygon fill="none" stroke="#000000" points="433.5,-168.5 433.5,-187.5 596.5,-187.5 596.5,-168.5 433.5,-168.5"/>
<text text-anchor="middle" x="515" y="-175.5" font-family="FreeSans.ttf" font-size="10.00" fill="#000000">iDynTree/Core/GeomVector3.h</text>
</a>
</g>
</g>
<!-- Node0&#45;&gt;Node3 -->
<g id="edge31" class="edge">
<title>Node0&#45;&gt;Node3</title>
<path fill="none" stroke="#191970" d="M601.0162,-280.3592C584.1599,-272.5982 562.0236,-260.299 547,-244 534.6205,-230.5696 526.0675,-211.4694 520.9394,-197.2693"/>
<polygon fill="#191970" stroke="#191970" points="524.1753,-195.9101 517.6788,-187.5407 517.5381,-198.1346 524.1753,-195.9101"/>
</g>
<!-- Node21 -->
<g id="node22" class="node">
<title>Node21</title>
<polygon fill="none" stroke="#bfbfbf" points="711.5,-224.5 711.5,-243.5 758.5,-243.5 758.5,-224.5 711.5,-224.5"/>
<text text-anchor="middle" x="735" y="-231.5" font-family="FreeSans.ttf" font-size="10.00" fill="#000000">vector</text>
</g>
<!-- Node0&#45;&gt;Node21 -->
<g id="edge32" class="edge">
<title>Node0&#45;&gt;Node21</title>
<path fill="none" stroke="#191970" d="M644.1605,-280.2455C661.5111,-271.4125 687.2901,-258.2887 706.9583,-248.2758"/>
<polygon fill="#191970" stroke="#191970" points="708.7353,-251.2986 716.059,-243.6427 705.5595,-245.0605 708.7353,-251.2986"/>
</g>
<!-- Node2 -->
<g id="node3" class="node">
<title>Node2</title>
<polygon fill="none" stroke="#bfbfbf" points="810,-56.5 810,-75.5 854,-75.5 854,-56.5 810,-56.5"/>
<text text-anchor="middle" x="832" y="-63.5" font-family="FreeSans.ttf" font-size="10.00" fill="#000000">string</text>
</g>
<!-- Node1&#45;&gt;Node2 -->
<g id="edge2" class="edge">
<title>Node1&#45;&gt;Node2</title>
<path fill="none" stroke="#191970" d="M679.812,-224.4227C734.1652,-214.4009 810.6688,-198.6694 820,-188 844.7644,-159.6842 841.0529,-112.3119 836.3818,-85.6955"/>
<polygon fill="#191970" stroke="#191970" points="839.7739,-84.8068 834.4013,-75.6753 832.9068,-86.1642 839.7739,-84.8068"/>
</g>
<!-- Node1&#45;&gt;Node3 -->
<g id="edge3" class="edge">
<title>Node1&#45;&gt;Node3</title>
<path fill="none" stroke="#191970" d="M605.8395,-224.2455C588.4889,-215.4125 562.7099,-202.2887 543.0417,-192.2758"/>
<polygon fill="#191970" stroke="#191970" points="544.4405,-189.0605 533.941,-187.6427 541.2647,-195.2986 544.4405,-189.0605"/>
</g>
<!-- Node4 -->
<g id="node5" class="node">
<title>Node4</title>
<g id="a_node5"><a xlink:href="VectorFixSize_8h.html" target="_top" xlink:title="iDynTree/Core/VectorFixSize.h">
<polygon fill="none" stroke="#000000" points="434.5,-112.5 434.5,-131.5 595.5,-131.5 595.5,-112.5 434.5,-112.5"/>
<text text-anchor="middle" x="515" y="-119.5" font-family="FreeSans.ttf" font-size="10.00" fill="#000000">iDynTree/Core/VectorFixSize.h</text>
</a>
</g>
</g>
<!-- Node1&#45;&gt;Node4 -->
<g id="edge30" class="edge">
<title>Node1&#45;&gt;Node4</title>
<path fill="none" stroke="#191970" d="M624.4131,-224.375C623.0945,-210.447 618.822,-184.535 605,-168 592.6757,-153.2567 574.4267,-142.7095 557.577,-135.4663"/>
<polygon fill="#191970" stroke="#191970" points="558.4575,-132.0486 547.8731,-131.5767 555.853,-138.5461 558.4575,-132.0486"/>
</g>
<!-- Node18 -->
<g id="node19" class="node">
<title>Node18</title>
<g id="a_node19"><a xlink:href="RotationRaw_8h.html" target="_top" xlink:title="iDynTree/Core/RotationRaw.h">
<polygon fill="none" stroke="#000000" points="653,-168.5 653,-187.5 811,-187.5 811,-168.5 653,-168.5"/>
<text text-anchor="middle" x="732" y="-175.5" font-family="FreeSans.ttf" font-size="10.00" fill="#000000">iDynTree/Core/RotationRaw.h</text>
</a>
</g>
</g>
<!-- Node1&#45;&gt;Node18 -->
<g id="edge21" class="edge">
<title>Node1&#45;&gt;Node18</title>
<path fill="none" stroke="#191970" d="M643.638,-224.2455C660.4386,-215.4527 685.3634,-202.4079 704.4618,-192.4125"/>
<polygon fill="#191970" stroke="#191970" points="706.3386,-195.3807 713.5756,-187.6427 703.0927,-189.1787 706.3386,-195.3807"/>
</g>
<!-- Node3&#45;&gt;Node4 -->
<g id="edge4" class="edge">
<title>Node3&#45;&gt;Node4</title>
<path fill="none" stroke="#191970" d="M515,-168.2455C515,-160.9382 515,-150.6944 515,-141.7046"/>
<polygon fill="#191970" stroke="#191970" points="518.5001,-141.6426 515,-131.6427 511.5001,-141.6427 518.5001,-141.6426"/>
</g>
<!-- Node4&#45;&gt;Node2 -->
<g id="edge17" class="edge">
<title>Node4&#45;&gt;Node2</title>
<path fill="none" stroke="#191970" d="M594.8561,-112.4782C650.0956,-105.1223 725.3736,-93.5788 799.7534,-76.0226"/>
<polygon fill="#191970" stroke="#191970" points="800.8567,-79.3573 809.7645,-73.6213 799.224,-72.5503 800.8567,-79.3573"/>
</g>
<!-- Node5 -->
<g id="node6" class="node">
<title>Node5</title>
<g id="a_node6"><a xlink:href="Utils_8h.html" target="_top" xlink:title="iDynTree/Core/Utils.h">
<polygon fill="none" stroke="#000000" points="488.5,-56.5 488.5,-75.5 607.5,-75.5 607.5,-56.5 488.5,-56.5"/>
<text text-anchor="middle" x="548" y="-63.5" font-family="FreeSans.ttf" font-size="10.00" fill="#000000">iDynTree/Core/Utils.h</text>
</a>
</g>
</g>
<!-- Node4&#45;&gt;Node5 -->
<g id="edge5" class="edge">
<title>Node4&#45;&gt;Node5</title>
<path fill="none" stroke="#191970" d="M520.7482,-112.2455C525.2435,-104.617 531.6248,-93.7881 537.0825,-84.5267"/>
<polygon fill="#191970" stroke="#191970" points="540.2561,-86.035 542.3177,-75.6427 534.2253,-82.4811 540.2561,-86.035"/>
</g>
<!-- Node7 -->
<g id="node8" class="node">
<title>Node7</title>
<g id="a_node8"><a xlink:href="Span_8h.html" target="_top" xlink:title="iDynTree/Core/Span.h">
<polygon fill="none" stroke="#000000" points="236.5,-56.5 236.5,-75.5 357.5,-75.5 357.5,-56.5 236.5,-56.5"/>
<text text-anchor="middle" x="297" y="-63.5" font-family="FreeSans.ttf" font-size="10.00" fill="#000000">iDynTree/Core/Span.h</text>
</a>
</g>
</g>
<!-- Node4&#45;&gt;Node7 -->
<g id="edge7" class="edge">
<title>Node4&#45;&gt;Node7</title>
<path fill="none" stroke="#191970" d="M477.5245,-112.3733C440.4897,-102.8598 383.7318,-88.2797 343.7639,-78.0127"/>
<polygon fill="#191970" stroke="#191970" points="344.5429,-74.5993 333.9865,-75.5011 342.8012,-81.3792 344.5429,-74.5993"/>
</g>
<!-- Node8 -->
<g id="node9" class="node">
<title>Node8</title>
<polygon fill="none" stroke="#bfbfbf" points="581,-.5 581,-19.5 633,-19.5 633,-.5 581,-.5"/>
<text text-anchor="middle" x="607" y="-7.5" font-family="FreeSans.ttf" font-size="10.00" fill="#000000">cassert</text>
</g>
<!-- Node4&#45;&gt;Node8 -->
<g id="edge19" class="edge">
<title>Node4&#45;&gt;Node8</title>
<path fill="none" stroke="#191970" d="M469.2711,-112.4316C429.9899,-102.1127 382.9118,-83.3919 405,-56 452.3882,2.7667 497.7116,-38.11 571,-20 571.0984,-19.9757 571.1969,-19.9513 571.2956,-19.9268"/>
<polygon fill="#191970" stroke="#191970" points="571.8956,-23.3869 580.6998,-17.4932 570.1419,-16.6102 571.8956,-23.3869"/>
</g>
<!-- Node16 -->
<g id="node17" class="node">
<title>Node16</title>
<polygon fill="none" stroke="#bfbfbf" points="414,-56.5 414,-75.5 470,-75.5 470,-56.5 414,-56.5"/>
<text text-anchor="middle" x="442" y="-63.5" font-family="FreeSans.ttf" font-size="10.00" fill="#000000">sstream</text>
</g>
<!-- Node4&#45;&gt;Node16 -->
<g id="edge18" class="edge">
<title>Node4&#45;&gt;Node16</title>
<path fill="none" stroke="#191970" d="M502.2844,-112.2455C491.398,-103.8943 475.5117,-91.7076 462.78,-81.9408"/>
<polygon fill="#191970" stroke="#191970" points="464.6346,-78.9523 454.5699,-75.6427 460.3739,-84.5063 464.6346,-78.9523"/>
</g>
<!-- Node17 -->
<g id="node18" class="node">
<title>Node17</title>
<polygon fill="none" stroke="#bfbfbf" points="626,-56.5 626,-75.5 676,-75.5 676,-56.5 626,-56.5"/>
<text text-anchor="middle" x="651" y="-63.5" font-family="FreeSans.ttf" font-size="10.00" fill="#000000">cstring</text>
</g>
<!-- Node4&#45;&gt;Node17 -->
<g id="edge20" class="edge">
<title>Node4&#45;&gt;Node17</title>
<path fill="none" stroke="#191970" d="M538.3792,-112.3733C560.5045,-103.2629 593.9134,-89.5062 618.6019,-79.3404"/>
<polygon fill="#191970" stroke="#191970" points="620.0117,-82.5451 627.9258,-75.5011 617.3464,-76.0723 620.0117,-82.5451"/>
</g>
<!-- Node6 -->
<g id="node7" class="node">
<title>Node6</title>
<polygon fill="none" stroke="#bfbfbf" points="509.5,-.5 509.5,-19.5 562.5,-19.5 562.5,-.5 509.5,-.5"/>
<text text-anchor="middle" x="536" y="-7.5" font-family="FreeSans.ttf" font-size="10.00" fill="#000000">cstddef</text>
</g>
<!-- Node5&#45;&gt;Node6 -->
<g id="edge6" class="edge">
<title>Node5&#45;&gt;Node6</title>
<path fill="none" stroke="#191970" d="M545.9098,-56.2455C544.3439,-48.9382 542.1488,-38.6944 540.2224,-29.7046"/>
<polygon fill="#191970" stroke="#191970" points="543.584,-28.6873 538.0663,-19.6427 536.7393,-30.1541 543.584,-28.6873"/>
</g>
<!-- Node7&#45;&gt;Node6 -->
<g id="edge11" class="edge">
<title>Node7&#45;&gt;Node6</title>
<path fill="none" stroke="#191970" d="M341.8984,-56.4753C380.9569,-48.0438 439.3057,-35.0998 499.2743,-20.0949"/>
<polygon fill="#191970" stroke="#191970" points="500.4589,-23.4059 509.3016,-17.5701 498.7497,-16.6178 500.4589,-23.4059"/>
</g>
<!-- Node7&#45;&gt;Node8 -->
<g id="edge8" class="edge">
<title>Node7&#45;&gt;Node8</title>
<path fill="none" stroke="#191970" d="M357.7545,-57.6636C413.5129,-49.5724 498.2508,-36.1642 571,-20 571.0989,-19.978 571.198,-19.9559 571.2972,-19.9337"/>
<polygon fill="#191970" stroke="#191970" points="571.8446,-23.4027 580.7338,-17.638 570.1898,-16.6011 571.8446,-23.4027"/>
</g>
<!-- Node9 -->
<g id="node10" class="node">
<title>Node9</title>
<polygon fill="none" stroke="#bfbfbf" points="0,-.5 0,-19.5 64,-19.5 64,-.5 0,-.5"/>
<text text-anchor="middle" x="32" y="-7.5" font-family="FreeSans.ttf" font-size="10.00" fill="#000000">algorithm</text>
</g>
<!-- Node7&#45;&gt;Node9 -->
<g id="edge9" class="edge">
<title>Node7&#45;&gt;Node9</title>
<path fill="none" stroke="#191970" d="M247.9487,-56.4651C204.712,-47.9392 139.7658,-34.8392 74.2879,-20.2334"/>
<polygon fill="#191970" stroke="#191970" points="74.7262,-16.7448 64.2028,-17.9725 73.1949,-23.5753 74.7262,-16.7448"/>
</g>
<!-- Node10 -->
<g id="node11" class="node">
<title>Node10</title>
<polygon fill="none" stroke="#bfbfbf" points="82,-.5 82,-19.5 124,-19.5 124,-.5 82,-.5"/>
<text text-anchor="middle" x="103" y="-7.5" font-family="FreeSans.ttf" font-size="10.00" fill="#000000">array</text>
</g>
<!-- Node7&#45;&gt;Node10 -->
<g id="edge10" class="edge">
<title>Node7&#45;&gt;Node10</title>
<path fill="none" stroke="#191970" d="M261.023,-56.4456C229.7809,-48.0296 183.1114,-35.1741 134.0952,-20.2424"/>
<polygon fill="#191970" stroke="#191970" points="134.8512,-16.8135 124.2645,-17.2291 132.7997,-23.5061 134.8512,-16.8135"/>
</g>
<!-- Node11 -->
<g id="node12" class="node">
<title>Node11</title>
<polygon fill="none" stroke="#bfbfbf" points="142.5,-.5 142.5,-19.5 195.5,-19.5 195.5,-.5 142.5,-.5"/>
<text text-anchor="middle" x="169" y="-7.5" font-family="FreeSans.ttf" font-size="10.00" fill="#000000">iterator</text>
</g>
<!-- Node7&#45;&gt;Node11 -->
<g id="edge12" class="edge">
<title>Node7&#45;&gt;Node11</title>
<path fill="none" stroke="#191970" d="M274.996,-56.3733C254.3565,-47.3435 223.2842,-33.7494 200.1111,-23.6111"/>
<polygon fill="#191970" stroke="#191970" points="201.2813,-20.3028 190.7169,-19.5011 198.4755,-26.7159 201.2813,-20.3028"/>
</g>
<!-- Node12 -->
<g id="node13" class="node">
<title>Node12</title>
<polygon fill="none" stroke="#bfbfbf" points="214,-.5 214,-19.5 258,-19.5 258,-.5 214,-.5"/>
<text text-anchor="middle" x="236" y="-7.5" font-family="FreeSans.ttf" font-size="10.00" fill="#000000">limits</text>
</g>
<!-- Node7&#45;&gt;Node12 -->
<g id="edge13" class="edge">
<title>Node7&#45;&gt;Node12</title>
<path fill="none" stroke="#191970" d="M286.3746,-56.2455C277.4527,-48.0549 264.512,-36.1749 253.9808,-26.5069"/>
<polygon fill="#191970" stroke="#191970" points="256.2371,-23.8271 246.5036,-19.6427 251.5032,-28.9837 256.2371,-23.8271"/>
</g>
<!-- Node13 -->
<g id="node14" class="node">
<title>Node13</title>
<polygon fill="none" stroke="#bfbfbf" points="276.5,-.5 276.5,-19.5 341.5,-19.5 341.5,-.5 276.5,-.5"/>
<text text-anchor="middle" x="309" y="-7.5" font-family="FreeSans.ttf" font-size="10.00" fill="#000000">stdexcept</text>
</g>
<!-- Node7&#45;&gt;Node13 -->
<g id="edge14" class="edge">
<title>Node7&#45;&gt;Node13</title>
<path fill="none" stroke="#191970" d="M299.0902,-56.2455C300.6561,-48.9382 302.8512,-38.6944 304.7776,-29.7046"/>
<polygon fill="#191970" stroke="#191970" points="308.2607,-30.1541 306.9337,-19.6427 301.416,-28.6873 308.2607,-30.1541"/>
</g>
<!-- Node14 -->
<g id="node15" class="node">
<title>Node14</title>
<polygon fill="none" stroke="#bfbfbf" points="359.5,-.5 359.5,-19.5 428.5,-19.5 428.5,-.5 359.5,-.5"/>
<text text-anchor="middle" x="394" y="-7.5" font-family="FreeSans.ttf" font-size="10.00" fill="#000000">type_traits</text>
</g>
<!-- Node7&#45;&gt;Node14 -->
<g id="edge15" class="edge">
<title>Node7&#45;&gt;Node14</title>
<path fill="none" stroke="#191970" d="M313.8961,-56.2455C328.918,-47.5731 351.1043,-34.7645 368.321,-24.825"/>
<polygon fill="#191970" stroke="#191970" points="370.3871,-27.6737 377.2975,-19.6427 366.8872,-21.6114 370.3871,-27.6737"/>
</g>
<!-- Node15 -->
<g id="node16" class="node">
<title>Node15</title>
<polygon fill="none" stroke="#bfbfbf" points="446.5,-.5 446.5,-19.5 491.5,-19.5 491.5,-.5 446.5,-.5"/>
<text text-anchor="middle" x="469" y="-7.5" font-family="FreeSans.ttf" font-size="10.00" fill="#000000">utility</text>
</g>
<!-- Node7&#45;&gt;Node15 -->
<g id="edge16" class="edge">
<title>Node7&#45;&gt;Node15</title>
<path fill="none" stroke="#191970" d="M326.5679,-56.3733C357.2489,-46.3841 405.0864,-30.8091 436.7309,-20.5062"/>
<polygon fill="#191970" stroke="#191970" points="437.9687,-23.7841 446.3938,-17.3601 435.8016,-17.128 437.9687,-23.7841"/>
</g>
<!-- Node18&#45;&gt;Node2 -->
<g id="edge29" class="edge">
<title>Node18&#45;&gt;Node2</title>
<path fill="none" stroke="#191970" d="M743.9549,-168.3827C754.7018,-159.4741 770.6487,-145.5877 783,-132 796.7269,-116.899 810.4076,-98.0749 819.8105,-84.399"/>
<polygon fill="#191970" stroke="#191970" points="822.881,-86.1066 825.5848,-75.8625 817.0829,-82.1845 822.881,-86.1066"/>
</g>
<!-- Node19 -->
<g id="node20" class="node">
<title>Node19</title>
<g id="a_node20"><a xlink:href="MatrixFixSize_8h.html" target="_top" xlink:title="iDynTree/Core/MatrixFixSize.h">
<polygon fill="none" stroke="#000000" points="613.5,-112.5 613.5,-131.5 774.5,-131.5 774.5,-112.5 613.5,-112.5"/>
<text text-anchor="middle" x="694" y="-119.5" font-family="FreeSans.ttf" font-size="10.00" fill="#000000">iDynTree/Core/MatrixFixSize.h</text>
</a>
</g>
</g>
<!-- Node18&#45;&gt;Node19 -->
<g id="edge22" class="edge">
<title>Node18&#45;&gt;Node19</title>
<path fill="none" stroke="#191970" d="M725.3809,-168.2455C720.0954,-160.4564 712.5459,-149.3308 706.1762,-139.9439"/>
<polygon fill="#191970" stroke="#191970" points="709.0545,-137.9522 700.5432,-131.6427 703.2621,-141.8827 709.0545,-137.9522"/>
</g>
<!-- Node19&#45;&gt;Node2 -->
<g id="edge26" class="edge">
<title>Node19&#45;&gt;Node2</title>
<path fill="none" stroke="#191970" d="M717.723,-112.3733C740.5818,-103.0972 775.3104,-89.0045 800.483,-78.7895"/>
<polygon fill="#191970" stroke="#191970" points="802.0022,-81.9503 809.9522,-74.9469 799.37,-75.464 802.0022,-81.9503"/>
</g>
<!-- Node19&#45;&gt;Node5 -->
<g id="edge23" class="edge">
<title>Node19&#45;&gt;Node5</title>
<path fill="none" stroke="#191970" d="M668.9017,-112.3733C645.0445,-103.2226 608.9665,-89.3844 582.429,-79.2057"/>
<polygon fill="#191970" stroke="#191970" points="583.361,-75.8145 572.7708,-75.5011 580.8541,-82.3503 583.361,-75.8145"/>
</g>
<!-- Node19&#45;&gt;Node8 -->
<g id="edge24" class="edge">
<title>Node19&#45;&gt;Node8</title>
<path fill="none" stroke="#191970" d="M695.1766,-112.1265C696.296,-98.3541 696.3966,-73.1418 685,-56 674.9088,-40.8217 657.9599,-29.9567 642.4345,-22.6112"/>
<polygon fill="#191970" stroke="#191970" points="643.5895,-19.296 633.0258,-18.4853 640.7783,-25.7067 643.5895,-19.296"/>
</g>
<!-- Node19&#45;&gt;Node16 -->
<g id="edge28" class="edge">
<title>Node19&#45;&gt;Node16</title>
<path fill="none" stroke="#191970" d="M646.0145,-112.4946C604.5515,-104.11 542.8005,-91.2154 480.2798,-76.2228"/>
<polygon fill="#191970" stroke="#191970" points="480.7842,-72.744 470.242,-73.7989 479.141,-79.5485 480.7842,-72.744"/>
</g>
<!-- Node19&#45;&gt;Node17 -->
<g id="edge25" class="edge">
<title>Node19&#45;&gt;Node17</title>
<path fill="none" stroke="#191970" d="M686.51,-112.2455C680.4674,-104.3761 671.8097,-93.101 664.5559,-83.6542"/>
<polygon fill="#191970" stroke="#191970" points="667.2705,-81.4426 658.4042,-75.6427 661.7185,-85.7058 667.2705,-81.4426"/>
</g>
<!-- Node20 -->
<g id="node21" class="node">
<title>Node20</title>
<polygon fill="none" stroke="#bfbfbf" points="732,-56.5 732,-75.5 792,-75.5 792,-56.5 732,-56.5"/>
<text text-anchor="middle" x="762" y="-63.5" font-family="FreeSans.ttf" font-size="10.00" fill="#000000">iostream</text>
</g>
<!-- Node19&#45;&gt;Node20 -->
<g id="edge27" class="edge">
<title>Node19&#45;&gt;Node20</title>
<path fill="none" stroke="#191970" d="M705.8447,-112.2455C715.888,-103.9746 730.4995,-91.9416 742.3004,-82.2232"/>
<polygon fill="#191970" stroke="#191970" points="744.7967,-84.7015 750.291,-75.6427 740.3467,-79.298 744.7967,-84.7015"/>
</g>
</g>
</svg>
