<?xml version="1.0" encoding="UTF-8" standalone="no"?>
<!DOCTYPE svg PUBLIC "-//W3C//DTD SVG 1.1//EN"
 "http://www.w3.org/Graphics/SVG/1.1/DTD/svg11.dtd">
<!-- Generated by graphviz version 2.40.1 (20161225.0304)
 -->
<!-- Title: SolidShapes.h Pages: 1 -->
<svg width="872pt" height="420pt"
 viewBox="0.00 0.00 871.50 420.00" xmlns="http://www.w3.org/2000/svg" xmlns:xlink="http://www.w3.org/1999/xlink">
<g id="graph0" class="graph" transform="scale(1 1) rotate(0) translate(4 416)">
<title>SolidShapes.h</title>
<!-- Node0 -->
<g id="node1" class="node">
<title>Node0</title>
<polygon fill="#bfbfbf" stroke="#000000" points="61,-392.5 61,-411.5 146,-411.5 146,-392.5 61,-392.5"/>
<text text-anchor="middle" x="103.5" y="-399.5" font-family="FreeSans.ttf" font-size="10.00" fill="#000000">SolidShapes.h</text>
</g>
<!-- Node1 -->
<g id="node2" class="node">
<title>Node1</title>
<polygon fill="none" stroke="#bfbfbf" points="0,-336.5 0,-355.5 49,-355.5 49,-336.5 0,-336.5"/>
<text text-anchor="middle" x="24.5" y="-343.5" font-family="FreeSans.ttf" font-size="10.00" fill="#000000">cstdlib</text>
</g>
<!-- Node0&#45;&gt;Node1 -->
<g id="edge1" class="edge">
<title>Node0&#45;&gt;Node1</title>
<path fill="none" stroke="#191970" d="M89.7393,-392.2455C77.8448,-383.814 60.435,-371.4729 46.5915,-361.6598"/>
<polygon fill="#191970" stroke="#191970" points="48.2854,-358.5704 38.1031,-355.6427 44.2372,-364.2811 48.2854,-358.5704"/>
</g>
<!-- Node2 -->
<g id="node3" class="node">
<title>Node2</title>
<polygon fill="none" stroke="#bfbfbf" points="243.5,-56.5 243.5,-75.5 287.5,-75.5 287.5,-56.5 243.5,-56.5"/>
<text text-anchor="middle" x="265.5" y="-63.5" font-family="FreeSans.ttf" font-size="10.00" fill="#000000">string</text>
</g>
<!-- Node0&#45;&gt;Node2 -->
<g id="edge2" class="edge">
<title>Node0&#45;&gt;Node2</title>
<path fill="none" stroke="#191970" d="M99.6636,-392.2883C92.4313,-373.0769 77.5,-328.7253 77.5,-290 77.5,-290 77.5,-290 77.5,-178 77.5,-106.409 179.3621,-79.5282 233.1282,-70.3261"/>
<polygon fill="#191970" stroke="#191970" points="233.8752,-73.7511 243.1957,-68.7133 232.7679,-66.8392 233.8752,-73.7511"/>
</g>
<!-- Node3 -->
<g id="node4" class="node">
<title>Node3</title>
<polygon fill="none" stroke="#bfbfbf" points="106,-336.5 106,-355.5 153,-355.5 153,-336.5 106,-336.5"/>
<text text-anchor="middle" x="129.5" y="-343.5" font-family="FreeSans.ttf" font-size="10.00" fill="#000000">vector</text>
</g>
<!-- Node0&#45;&gt;Node3 -->
<g id="edge3" class="edge">
<title>Node0&#45;&gt;Node3</title>
<path fill="none" stroke="#191970" d="M108.0289,-392.2455C111.5334,-384.6973 116.4927,-374.0158 120.7623,-364.8197"/>
<polygon fill="#191970" stroke="#191970" points="123.9864,-366.1867 125.023,-355.6427 117.6373,-363.2389 123.9864,-366.1867"/>
</g>
<!-- Node4 -->
<g id="node5" class="node">
<title>Node4</title>
<g id="a_node5"><a xlink:href="Transform_8h.html" target="_top" xlink:title="iDynTree/Core/Transform.h">
<polygon fill="none" stroke="#000000" points="186.5,-336.5 186.5,-355.5 332.5,-355.5 332.5,-336.5 186.5,-336.5"/>
<text text-anchor="middle" x="259.5" y="-343.5" font-family="FreeSans.ttf" font-size="10.00" fill="#000000">iDynTree/Core/Transform.h</text>
</a>
</g>
</g>
<!-- Node0&#45;&gt;Node4 -->
<g id="edge4" class="edge">
<title>Node0&#45;&gt;Node4</title>
<path fill="none" stroke="#191970" d="M130.3174,-392.3733C156.0332,-383.1419 195.038,-369.1402 223.4599,-358.9375"/>
<polygon fill="#191970" stroke="#191970" points="224.8032,-362.174 233.0326,-355.5011 222.4381,-355.5857 224.8032,-362.174"/>
</g>
<!-- Node4&#45;&gt;Node2 -->
<g id="edge42" class="edge">
<title>Node4&#45;&gt;Node2</title>
<path fill="none" stroke="#191970" d="M226.4635,-336.4779C183.9498,-321.958 115.5,-289.9003 115.5,-234 115.5,-234 115.5,-234 115.5,-178 115.5,-119.5062 189.6416,-87.9013 233.6745,-74.2891"/>
<polygon fill="#191970" stroke="#191970" points="234.765,-77.6166 243.367,-71.4314 232.7854,-70.9023 234.765,-77.6166"/>
</g>
<!-- Node5 -->
<g id="node6" class="node">
<title>Node5</title>
<g id="a_node6"><a xlink:href="Position_8h.html" target="_top" xlink:title="iDynTree/Core/Position.h">
<polygon fill="none" stroke="#000000" points="191.5,-280.5 191.5,-299.5 327.5,-299.5 327.5,-280.5 191.5,-280.5"/>
<text text-anchor="middle" x="259.5" y="-287.5" font-family="FreeSans.ttf" font-size="10.00" fill="#000000">iDynTree/Core/Position.h</text>
</a>
</g>
</g>
<!-- Node4&#45;&gt;Node5 -->
<g id="edge5" class="edge">
<title>Node4&#45;&gt;Node5</title>
<path fill="none" stroke="#191970" d="M259.5,-336.2455C259.5,-328.9382 259.5,-318.6944 259.5,-309.7046"/>
<polygon fill="#191970" stroke="#191970" points="263.0001,-309.6426 259.5,-299.6427 256.0001,-309.6427 263.0001,-309.6426"/>
</g>
<!-- Node21 -->
<g id="node22" class="node">
<title>Node21</title>
<g id="a_node22"><a xlink:href="Rotation_8h.html" target="_top" xlink:title="iDynTree/Core/Rotation.h">
<polygon fill="none" stroke="#000000" points="350,-224.5 350,-243.5 487,-243.5 487,-224.5 350,-224.5"/>
<text text-anchor="middle" x="418.5" y="-231.5" font-family="FreeSans.ttf" font-size="10.00" fill="#000000">iDynTree/Core/Rotation.h</text>
</a>
</g>
</g>
<!-- Node4&#45;&gt;Node21 -->
<g id="edge40" class="edge">
<title>Node4&#45;&gt;Node21</title>
<path fill="none" stroke="#191970" d="M277.0573,-336.4364C292.9516,-327.564 316.8183,-313.7005 336.5,-300 359.1067,-284.2633 383.5187,-264.178 399.7734,-250.3201"/>
<polygon fill="#191970" stroke="#191970" points="402.1761,-252.8702 407.4773,-243.6969 397.6126,-247.5621 402.1761,-252.8702"/>
</g>
<!-- Node24 -->
<g id="node25" class="node">
<title>Node24</title>
<g id="a_node25"><a xlink:href="MatrixFixSize_8h.html" target="_top" xlink:title="iDynTree/Core/MatrixFixSize.h">
<polygon fill="none" stroke="#000000" points="625,-112.5 625,-131.5 786,-131.5 786,-112.5 625,-112.5"/>
<text text-anchor="middle" x="705.5" y="-119.5" font-family="FreeSans.ttf" font-size="10.00" fill="#000000">iDynTree/Core/MatrixFixSize.h</text>
</a>
</g>
</g>
<!-- Node4&#45;&gt;Node24 -->
<g id="edge41" class="edge">
<title>Node4&#45;&gt;Node24</title>
<path fill="none" stroke="#191970" d="M317.0035,-336.4411C436.5912,-315.2666 705.4156,-260.4902 758.5,-188 771.601,-170.1098 750.8453,-150.38 731.5928,-137.1944"/>
<polygon fill="#191970" stroke="#191970" points="733.2781,-134.1163 722.9799,-131.6268 729.4779,-139.995 733.2781,-134.1163"/>
</g>
<!-- Node5&#45;&gt;Node2 -->
<g id="edge39" class="edge">
<title>Node5&#45;&gt;Node2</title>
<path fill="none" stroke="#191970" d="M243.4545,-280.2792C213.6307,-260.8565 154.267,-215.0593 172.5,-168 186.7023,-131.3439 220.8904,-99.783 243.6191,-81.8389"/>
<polygon fill="#191970" stroke="#191970" points="245.8932,-84.5057 251.7034,-75.6461 241.6364,-78.9487 245.8932,-84.5057"/>
</g>
<!-- Node6 -->
<g id="node7" class="node">
<title>Node6</title>
<g id="a_node7"><a xlink:href="PositionRaw_8h.html" target="_top" xlink:title="iDynTree/Core/PositionRaw.h">
<polygon fill="none" stroke="#000000" points="181.5,-168.5 181.5,-187.5 337.5,-187.5 337.5,-168.5 181.5,-168.5"/>
<text text-anchor="middle" x="259.5" y="-175.5" font-family="FreeSans.ttf" font-size="10.00" fill="#000000">iDynTree/Core/PositionRaw.h</text>
</a>
</g>
</g>
<!-- Node5&#45;&gt;Node6 -->
<g id="edge6" class="edge">
<title>Node5&#45;&gt;Node6</title>
<path fill="none" stroke="#191970" d="M259.5,-280.4509C259.5,-262.184 259.5,-221.9553 259.5,-197.6976"/>
<polygon fill="#191970" stroke="#191970" points="263.0001,-197.5249 259.5,-187.5249 256.0001,-197.5249 263.0001,-197.5249"/>
</g>
<!-- Node5&#45;&gt;Node21 -->
<g id="edge25" class="edge">
<title>Node5&#45;&gt;Node21</title>
<path fill="none" stroke="#191970" d="M286.8331,-280.3733C313.0434,-271.1419 352.7984,-257.1402 381.7668,-246.9375"/>
<polygon fill="#191970" stroke="#191970" points="383.2542,-250.1244 391.5236,-243.5011 380.9288,-243.5219 383.2542,-250.1244"/>
</g>
<!-- Node6&#45;&gt;Node2 -->
<g id="edge24" class="edge">
<title>Node6&#45;&gt;Node2</title>
<path fill="none" stroke="#191970" d="M260.0116,-168.4509C260.9901,-150.184 263.1453,-109.9553 264.4448,-85.6976"/>
<polygon fill="#191970" stroke="#191970" points="267.9497,-85.6978 264.9897,-75.5249 260.9597,-85.3233 267.9497,-85.6978"/>
</g>
<!-- Node7 -->
<g id="node8" class="node">
<title>Node7</title>
<g id="a_node8"><a xlink:href="VectorFixSize_8h.html" target="_top" xlink:title="iDynTree/Core/VectorFixSize.h">
<polygon fill="none" stroke="#000000" points="432,-112.5 432,-131.5 593,-131.5 593,-112.5 432,-112.5"/>
<text text-anchor="middle" x="512.5" y="-119.5" font-family="FreeSans.ttf" font-size="10.00" fill="#000000">iDynTree/Core/VectorFixSize.h</text>
</a>
</g>
</g>
<!-- Node6&#45;&gt;Node7 -->
<g id="edge7" class="edge">
<title>Node6&#45;&gt;Node7</title>
<path fill="none" stroke="#191970" d="M302.7048,-168.4369C346.0947,-158.8328 413.0209,-144.0191 459.5726,-133.7152"/>
<polygon fill="#191970" stroke="#191970" points="460.4662,-137.1022 469.4734,-131.5237 458.9533,-130.2676 460.4662,-137.1022"/>
</g>
<!-- Node7&#45;&gt;Node2 -->
<g id="edge20" class="edge">
<title>Node7&#45;&gt;Node2</title>
<path fill="none" stroke="#191970" d="M462.4994,-112.4662C418.954,-103.8746 354.2396,-90.4099 298.5,-76 298.174,-75.9157 297.8464,-75.8303 297.5174,-75.7439"/>
<polygon fill="#191970" stroke="#191970" points="298.369,-72.3479 287.7961,-73.0286 296.4859,-79.0898 298.369,-72.3479"/>
</g>
<!-- Node8 -->
<g id="node9" class="node">
<title>Node8</title>
<g id="a_node9"><a xlink:href="Utils_8h.html" target="_top" xlink:title="iDynTree/Core/Utils.h">
<polygon fill="none" stroke="#000000" points="554,-56.5 554,-75.5 673,-75.5 673,-56.5 554,-56.5"/>
<text text-anchor="middle" x="613.5" y="-63.5" font-family="FreeSans.ttf" font-size="10.00" fill="#000000">iDynTree/Core/Utils.h</text>
</a>
</g>
</g>
<!-- Node7&#45;&gt;Node8 -->
<g id="edge8" class="edge">
<title>Node7&#45;&gt;Node8</title>
<path fill="none" stroke="#191970" d="M530.0929,-112.2455C545.879,-103.4928 569.2639,-90.527 587.2587,-80.5496"/>
<polygon fill="#191970" stroke="#191970" points="589.0603,-83.5528 596.1087,-75.6427 585.6659,-77.4308 589.0603,-83.5528"/>
</g>
<!-- Node10 -->
<g id="node11" class="node">
<title>Node10</title>
<g id="a_node11"><a xlink:href="Span_8h.html" target="_top" xlink:title="iDynTree/Core/Span.h">
<polygon fill="none" stroke="#000000" points="308,-56.5 308,-75.5 429,-75.5 429,-56.5 308,-56.5"/>
<text text-anchor="middle" x="368.5" y="-63.5" font-family="FreeSans.ttf" font-size="10.00" fill="#000000">iDynTree/Core/Span.h</text>
</a>
</g>
</g>
<!-- Node7&#45;&gt;Node10 -->
<g id="edge10" class="edge">
<title>Node7&#45;&gt;Node10</title>
<path fill="none" stroke="#191970" d="M487.7455,-112.3733C464.2151,-103.2226 428.6313,-89.3844 402.4574,-79.2057"/>
<polygon fill="#191970" stroke="#191970" points="403.5201,-75.8636 392.9315,-75.5011 400.9829,-82.3877 403.5201,-75.8636"/>
</g>
<!-- Node11 -->
<g id="node12" class="node">
<title>Node11</title>
<polygon fill="none" stroke="#bfbfbf" points="636.5,-.5 636.5,-19.5 688.5,-19.5 688.5,-.5 636.5,-.5"/>
<text text-anchor="middle" x="662.5" y="-7.5" font-family="FreeSans.ttf" font-size="10.00" fill="#000000">cassert</text>
</g>
<!-- Node7&#45;&gt;Node11 -->
<g id="edge22" class="edge">
<title>Node7&#45;&gt;Node11</title>
<path fill="none" stroke="#191970" d="M500.5007,-112.4306C485.131,-99.0194 462.1024,-74.2336 476.5,-56 517.3346,-4.2855 557.0279,-34.4613 626.2015,-20.0091"/>
<polygon fill="#191970" stroke="#191970" points="627.2313,-23.3623 636.161,-17.6605 625.6246,-16.5492 627.2313,-23.3623"/>
</g>
<!-- Node19 -->
<g id="node20" class="node">
<title>Node19</title>
<polygon fill="none" stroke="#bfbfbf" points="691.5,-56.5 691.5,-75.5 747.5,-75.5 747.5,-56.5 691.5,-56.5"/>
<text text-anchor="middle" x="719.5" y="-63.5" font-family="FreeSans.ttf" font-size="10.00" fill="#000000">sstream</text>
</g>
<!-- Node7&#45;&gt;Node19 -->
<g id="edge21" class="edge">
<title>Node7&#45;&gt;Node19</title>
<path fill="none" stroke="#191970" d="M548.0846,-112.3733C585.3299,-102.2972 643.5834,-86.5378 681.6535,-76.2387"/>
<polygon fill="#191970" stroke="#191970" points="682.6076,-79.6065 691.3466,-73.6164 680.7795,-72.8494 682.6076,-79.6065"/>
</g>
<!-- Node20 -->
<g id="node21" class="node">
<title>Node20</title>
<polygon fill="none" stroke="#bfbfbf" points="485.5,-56.5 485.5,-75.5 535.5,-75.5 535.5,-56.5 485.5,-56.5"/>
<text text-anchor="middle" x="510.5" y="-63.5" font-family="FreeSans.ttf" font-size="10.00" fill="#000000">cstring</text>
</g>
<!-- Node7&#45;&gt;Node20 -->
<g id="edge23" class="edge">
<title>Node7&#45;&gt;Node20</title>
<path fill="none" stroke="#191970" d="M512.1516,-112.2455C511.8907,-104.9382 511.5248,-94.6944 511.2037,-85.7046"/>
<polygon fill="#191970" stroke="#191970" points="514.6992,-85.5113 510.8444,-75.6427 507.7036,-85.7613 514.6992,-85.5113"/>
</g>
<!-- Node9 -->
<g id="node10" class="node">
<title>Node9</title>
<polygon fill="none" stroke="#bfbfbf" points="565,-.5 565,-19.5 618,-19.5 618,-.5 565,-.5"/>
<text text-anchor="middle" x="591.5" y="-7.5" font-family="FreeSans.ttf" font-size="10.00" fill="#000000">cstddef</text>
</g>
<!-- Node8&#45;&gt;Node9 -->
<g id="edge9" class="edge">
<title>Node8&#45;&gt;Node9</title>
<path fill="none" stroke="#191970" d="M609.6679,-56.2455C606.7341,-48.7776 602.5953,-38.2427 599.009,-29.1137"/>
<polygon fill="#191970" stroke="#191970" points="602.2024,-27.6704 595.2882,-19.6427 595.6871,-30.23 602.2024,-27.6704"/>
</g>
<!-- Node10&#45;&gt;Node9 -->
<g id="edge14" class="edge">
<title>Node10&#45;&gt;Node9</title>
<path fill="none" stroke="#191970" d="M408.7132,-56.4736C444.5677,-47.8981 498.7184,-34.7471 555.0012,-20.0762"/>
<polygon fill="#191970" stroke="#191970" points="555.9994,-23.4329 564.7876,-17.5153 554.2272,-16.6609 555.9994,-23.4329"/>
</g>
<!-- Node10&#45;&gt;Node11 -->
<g id="edge11" class="edge">
<title>Node10&#45;&gt;Node11</title>
<path fill="none" stroke="#191970" d="M429.0386,-57.0479C479.4906,-49.1781 553.4027,-36.7032 626.3802,-20.0893"/>
<polygon fill="#191970" stroke="#191970" points="627.243,-23.4822 636.2019,-17.8265 625.6714,-16.6609 627.243,-23.4822"/>
</g>
<!-- Node12 -->
<g id="node13" class="node">
<title>Node12</title>
<polygon fill="none" stroke="#bfbfbf" points="288.5,-.5 288.5,-19.5 352.5,-19.5 352.5,-.5 288.5,-.5"/>
<text text-anchor="middle" x="320.5" y="-7.5" font-family="FreeSans.ttf" font-size="10.00" fill="#000000">algorithm</text>
</g>
<!-- Node10&#45;&gt;Node12 -->
<g id="edge12" class="edge">
<title>Node10&#45;&gt;Node12</title>
<path fill="none" stroke="#191970" d="M360.139,-56.2455C353.325,-48.2958 343.5319,-36.8706 335.3848,-27.3656"/>
<polygon fill="#191970" stroke="#191970" points="337.9305,-24.9575 328.7651,-19.6427 332.6157,-29.513 337.9305,-24.9575"/>
</g>
<!-- Node13 -->
<g id="node14" class="node">
<title>Node13</title>
<polygon fill="none" stroke="#bfbfbf" points="370.5,-.5 370.5,-19.5 412.5,-19.5 412.5,-.5 370.5,-.5"/>
<text text-anchor="middle" x="391.5" y="-7.5" font-family="FreeSans.ttf" font-size="10.00" fill="#000000">array</text>
</g>
<!-- Node10&#45;&gt;Node13 -->
<g id="edge13" class="edge">
<title>Node10&#45;&gt;Node13</title>
<path fill="none" stroke="#191970" d="M372.5063,-56.2455C375.5735,-48.7776 379.9003,-38.2427 383.6497,-29.1137"/>
<polygon fill="#191970" stroke="#191970" points="386.9779,-30.2226 387.5396,-19.6427 380.5028,-27.5631 386.9779,-30.2226"/>
</g>
<!-- Node14 -->
<g id="node15" class="node">
<title>Node14</title>
<polygon fill="none" stroke="#bfbfbf" points="431,-.5 431,-19.5 484,-19.5 484,-.5 431,-.5"/>
<text text-anchor="middle" x="457.5" y="-7.5" font-family="FreeSans.ttf" font-size="10.00" fill="#000000">iterator</text>
</g>
<!-- Node10&#45;&gt;Node14 -->
<g id="edge15" class="edge">
<title>Node10&#45;&gt;Node14</title>
<path fill="none" stroke="#191970" d="M384.0026,-56.2455C397.658,-47.6534 417.7657,-35.0014 433.4989,-25.1018"/>
<polygon fill="#191970" stroke="#191970" points="435.5751,-27.9307 442.175,-19.6427 431.8471,-22.006 435.5751,-27.9307"/>
</g>
<!-- Node15 -->
<g id="node16" class="node">
<title>Node15</title>
<polygon fill="none" stroke="#bfbfbf" points="502.5,-.5 502.5,-19.5 546.5,-19.5 546.5,-.5 502.5,-.5"/>
<text text-anchor="middle" x="524.5" y="-7.5" font-family="FreeSans.ttf" font-size="10.00" fill="#000000">limits</text>
</g>
<!-- Node10&#45;&gt;Node15 -->
<g id="edge16" class="edge">
<title>Node10&#45;&gt;Node15</title>
<path fill="none" stroke="#191970" d="M395.3174,-56.3733C422.28,-46.6944 463.8515,-31.7712 492.5166,-21.4812"/>
<polygon fill="#191970" stroke="#191970" points="493.8431,-24.7238 502.0725,-18.0509 491.478,-18.1354 493.8431,-24.7238"/>
</g>
<!-- Node16 -->
<g id="node17" class="node">
<title>Node16</title>
<polygon fill="none" stroke="#bfbfbf" points="55,-.5 55,-19.5 120,-19.5 120,-.5 55,-.5"/>
<text text-anchor="middle" x="87.5" y="-7.5" font-family="FreeSans.ttf" font-size="10.00" fill="#000000">stdexcept</text>
</g>
<!-- Node10&#45;&gt;Node16 -->
<g id="edge17" class="edge">
<title>Node10&#45;&gt;Node16</title>
<path fill="none" stroke="#191970" d="M314.4884,-56.4427C268.0285,-48.0418 198.9792,-35.1301 130.2717,-20.3156"/>
<polygon fill="#191970" stroke="#191970" points="130.6546,-16.8173 120.1397,-18.1163 129.1697,-23.658 130.6546,-16.8173"/>
</g>
<!-- Node17 -->
<g id="node18" class="node">
<title>Node17</title>
<polygon fill="none" stroke="#bfbfbf" points="138,-.5 138,-19.5 207,-19.5 207,-.5 138,-.5"/>
<text text-anchor="middle" x="172.5" y="-7.5" font-family="FreeSans.ttf" font-size="10.00" fill="#000000">type_traits</text>
</g>
<!-- Node10&#45;&gt;Node17 -->
<g id="edge18" class="edge">
<title>Node10&#45;&gt;Node17</title>
<path fill="none" stroke="#191970" d="M334.8064,-56.3733C301.7913,-46.9404 251.3427,-32.5265 215.4614,-22.2747"/>
<polygon fill="#191970" stroke="#191970" points="216.3307,-18.8831 205.7539,-19.5011 214.4076,-25.6137 216.3307,-18.8831"/>
</g>
<!-- Node18 -->
<g id="node19" class="node">
<title>Node18</title>
<polygon fill="none" stroke="#bfbfbf" points="225,-.5 225,-19.5 270,-19.5 270,-.5 225,-.5"/>
<text text-anchor="middle" x="247.5" y="-7.5" font-family="FreeSans.ttf" font-size="10.00" fill="#000000">utility</text>
</g>
<!-- Node10&#45;&gt;Node18 -->
<g id="edge19" class="edge">
<title>Node10&#45;&gt;Node18</title>
<path fill="none" stroke="#191970" d="M347.6994,-56.3733C328.2757,-47.3838 299.0776,-33.8706 277.2036,-23.7471"/>
<polygon fill="#191970" stroke="#191970" points="278.5745,-20.5249 268.0292,-19.5011 275.6344,-26.8776 278.5745,-20.5249"/>
</g>
<!-- Node21&#45;&gt;Node2 -->
<g id="edge26" class="edge">
<title>Node21&#45;&gt;Node2</title>
<path fill="none" stroke="#191970" d="M409.8357,-224.4862C385.0217,-197.2396 313.4192,-118.6172 281.3552,-83.4096"/>
<polygon fill="#191970" stroke="#191970" points="283.7714,-80.8647 274.4504,-75.8279 278.596,-85.578 283.7714,-80.8647"/>
</g>
<!-- Node21&#45;&gt;Node7 -->
<g id="edge38" class="edge">
<title>Node21&#45;&gt;Node7</title>
<path fill="none" stroke="#191970" d="M487.3124,-228.9858C577.4429,-221.7074 726.0199,-206.9852 742.5,-188 748.3269,-181.2874 748.1355,-174.8742 742.5,-168 732.8095,-156.1795 655.3724,-142.4016 592.9874,-133.0281"/>
<polygon fill="#191970" stroke="#191970" points="593.1282,-129.5108 582.7227,-131.5047 592.1005,-136.4349 593.1282,-129.5108"/>
</g>
<!-- Node22 -->
<g id="node23" class="node">
<title>Node22</title>
<g id="a_node23"><a xlink:href="GeomVector3_8h.html" target="_top" xlink:title="iDynTree/Core/GeomVector3.h">
<polygon fill="none" stroke="#000000" points="570,-168.5 570,-187.5 733,-187.5 733,-168.5 570,-168.5"/>
<text text-anchor="middle" x="651.5" y="-175.5" font-family="FreeSans.ttf" font-size="10.00" fill="#000000">iDynTree/Core/GeomVector3.h</text>
</a>
</g>
</g>
<!-- Node21&#45;&gt;Node22 -->
<g id="edge27" class="edge">
<title>Node21&#45;&gt;Node22</title>
<path fill="none" stroke="#191970" d="M458.2894,-224.4369C497.998,-214.8932 559.1104,-200.2052 601.9455,-189.9101"/>
<polygon fill="#191970" stroke="#191970" points="602.9695,-193.2637 611.8747,-187.5237 601.3337,-186.4575 602.9695,-193.2637"/>
</g>
<!-- Node23 -->
<g id="node24" class="node">
<title>Node23</title>
<g id="a_node24"><a xlink:href="RotationRaw_8h.html" target="_top" xlink:title="iDynTree/Core/RotationRaw.h">
<polygon fill="none" stroke="#000000" points="393.5,-168.5 393.5,-187.5 551.5,-187.5 551.5,-168.5 393.5,-168.5"/>
<text text-anchor="middle" x="472.5" y="-175.5" font-family="FreeSans.ttf" font-size="10.00" fill="#000000">iDynTree/Core/RotationRaw.h</text>
</a>
</g>
</g>
<!-- Node21&#45;&gt;Node23 -->
<g id="edge29" class="edge">
<title>Node21&#45;&gt;Node23</title>
<path fill="none" stroke="#191970" d="M427.9061,-224.2455C435.6493,-216.2155 446.812,-204.6394 456.0318,-195.0781"/>
<polygon fill="#191970" stroke="#191970" points="458.7798,-197.2706 463.2017,-187.6427 453.7409,-192.4117 458.7798,-197.2706"/>
</g>
<!-- Node22&#45;&gt;Node7 -->
<g id="edge28" class="edge">
<title>Node22&#45;&gt;Node7</title>
<path fill="none" stroke="#191970" d="M627.605,-168.3733C604.9918,-159.2629 570.8458,-145.5062 545.6127,-135.3404"/>
<polygon fill="#191970" stroke="#191970" points="546.6666,-131.9917 536.0831,-131.5011 544.0507,-138.4845 546.6666,-131.9917"/>
</g>
<!-- Node23&#45;&gt;Node2 -->
<g id="edge37" class="edge">
<title>Node23&#45;&gt;Node2</title>
<path fill="none" stroke="#191970" d="M460.7598,-168.2934C443.6738,-154.4954 410.5948,-129.0017 379.5,-112 352.9115,-97.4622 320.7477,-84.9001 297.3725,-76.5943"/>
<polygon fill="#191970" stroke="#191970" points="298.2139,-73.1811 287.6191,-73.194 295.9095,-79.7909 298.2139,-73.1811"/>
</g>
<!-- Node23&#45;&gt;Node24 -->
<g id="edge30" class="edge">
<title>Node23&#45;&gt;Node24</title>
<path fill="none" stroke="#191970" d="M512.2894,-168.4369C551.998,-158.8932 613.1104,-144.2052 655.9455,-133.9101"/>
<polygon fill="#191970" stroke="#191970" points="656.9695,-137.2637 665.8747,-131.5237 655.3337,-130.4575 656.9695,-137.2637"/>
</g>
<!-- Node24&#45;&gt;Node2 -->
<g id="edge34" class="edge">
<title>Node24&#45;&gt;Node2</title>
<path fill="none" stroke="#191970" d="M624.727,-113.6674C515.1921,-102.2451 329.5786,-82.4097 298.5,-76 298.1702,-75.932 297.839,-75.8621 297.5065,-75.7905"/>
<polygon fill="#191970" stroke="#191970" points="298.2766,-72.3753 287.7252,-73.3337 296.5713,-79.1644 298.2766,-72.3753"/>
</g>
<!-- Node24&#45;&gt;Node8 -->
<g id="edge31" class="edge">
<title>Node24&#45;&gt;Node8</title>
<path fill="none" stroke="#191970" d="M689.4748,-112.2455C675.3592,-103.6534 654.5737,-91.0014 638.3101,-81.1018"/>
<polygon fill="#191970" stroke="#191970" points="639.7034,-77.8525 629.3415,-75.6427 636.0637,-83.8319 639.7034,-77.8525"/>
</g>
<!-- Node24&#45;&gt;Node11 -->
<g id="edge32" class="edge">
<title>Node24&#45;&gt;Node11</title>
<path fill="none" stroke="#191970" d="M722.2887,-112.3878C741.8084,-99.9226 769.7613,-77.2536 756.5,-56 743.8541,-35.7326 719.4015,-24.1497 698.6062,-17.6769"/>
<polygon fill="#191970" stroke="#191970" points="699.3342,-14.2456 688.7592,-14.8941 697.4305,-20.9818 699.3342,-14.2456"/>
</g>
<!-- Node24&#45;&gt;Node19 -->
<g id="edge36" class="edge">
<title>Node24&#45;&gt;Node19</title>
<path fill="none" stroke="#191970" d="M707.9386,-112.2455C709.7855,-104.8579 712.3828,-94.4689 714.6478,-85.4087"/>
<polygon fill="#191970" stroke="#191970" points="718.0594,-86.193 717.0893,-75.6427 711.2684,-84.4952 718.0594,-86.193"/>
</g>
<!-- Node24&#45;&gt;Node20 -->
<g id="edge33" class="edge">
<title>Node24&#45;&gt;Node20</title>
<path fill="none" stroke="#191970" d="M671.9783,-112.3733C636.6952,-102.2407 581.3989,-86.3607 545.5504,-76.0658"/>
<polygon fill="#191970" stroke="#191970" points="546.1184,-72.5875 535.5408,-73.1912 544.1862,-79.3155 546.1184,-72.5875"/>
</g>
<!-- Node25 -->
<g id="node26" class="node">
<title>Node25</title>
<polygon fill="none" stroke="#bfbfbf" points="803.5,-56.5 803.5,-75.5 863.5,-75.5 863.5,-56.5 803.5,-56.5"/>
<text text-anchor="middle" x="833.5" y="-63.5" font-family="FreeSans.ttf" font-size="10.00" fill="#000000">iostream</text>
</g>
<!-- Node24&#45;&gt;Node25 -->
<g id="edge35" class="edge">
<title>Node24&#45;&gt;Node25</title>
<path fill="none" stroke="#191970" d="M727.504,-112.3733C748.1435,-103.3435 779.2158,-89.7494 802.3889,-79.6111"/>
<polygon fill="#191970" stroke="#191970" points="804.0245,-82.7159 811.7831,-75.5011 801.2187,-76.3028 804.0245,-82.7159"/>
</g>
</g>
</svg>
