<?xml version="1.0" encoding="UTF-8" standalone="no"?>
<!DOCTYPE svg PUBLIC "-//W3C//DTD SVG 1.1//EN"
 "http://www.w3.org/Graphics/SVG/1.1/DTD/svg11.dtd">
<!-- Generated by graphviz version 2.40.1 (20161225.0304)
 -->
<!-- Title: SolidShapes.cpp Pages: 1 -->
<svg width="1272pt" height="733pt"
 viewBox="0.00 0.00 1272.00 733.00" xmlns="http://www.w3.org/2000/svg" xmlns:xlink="http://www.w3.org/1999/xlink">
<g id="graph0" class="graph" transform="scale(1 1) rotate(0) translate(4 729)">
<title>SolidShapes.cpp</title>
<!-- Node0 -->
<g id="node1" class="node">
<title>Node0</title>
<polygon fill="#bfbfbf" stroke="#000000" points="292,-705.5 292,-724.5 388,-724.5 388,-705.5 292,-705.5"/>
<text text-anchor="middle" x="340" y="-712.5" font-family="FreeSans.ttf" font-size="10.00" fill="#000000">SolidShapes.cpp</text>
</g>
<!-- Node1 -->
<g id="node2" class="node">
<title>Node1</title>
<g id="a_node2"><a xlink:href="SolidShapes_8h.html" target="_top" xlink:title="iDynTree/Model/SolidShapes.h">
<polygon fill="none" stroke="#000000" points="165.5,-593.5 165.5,-612.5 328.5,-612.5 328.5,-593.5 165.5,-593.5"/>
<text text-anchor="middle" x="247" y="-600.5" font-family="FreeSans.ttf" font-size="10.00" fill="#000000">iDynTree/Model/SolidShapes.h</text>
</a>
</g>
</g>
<!-- Node0&#45;&gt;Node1 -->
<g id="edge1" class="edge">
<title>Node0&#45;&gt;Node1</title>
<path fill="none" stroke="#191970" d="M332.0709,-705.4509C316.4223,-686.6054 281.3642,-644.3849 261.483,-620.4419"/>
<polygon fill="#191970" stroke="#191970" points="263.9901,-617.9824 254.9091,-612.5249 258.6047,-622.4543 263.9901,-617.9824"/>
</g>
<!-- Node27 -->
<g id="node28" class="node">
<title>Node27</title>
<g id="a_node28"><a xlink:href="Model_8h.html" target="_top" xlink:title="iDynTree/Model/Model.h">
<polygon fill="none" stroke="#000000" points="347.5,-649.5 347.5,-668.5 480.5,-668.5 480.5,-649.5 347.5,-649.5"/>
<text text-anchor="middle" x="414" y="-656.5" font-family="FreeSans.ttf" font-size="10.00" fill="#000000">iDynTree/Model/Model.h</text>
</a>
</g>
</g>
<!-- Node0&#45;&gt;Node27 -->
<g id="edge44" class="edge">
<title>Node0&#45;&gt;Node27</title>
<path fill="none" stroke="#191970" d="M352.8898,-705.2455C363.9254,-696.8943 380.0292,-684.7076 392.9353,-674.9408"/>
<polygon fill="#191970" stroke="#191970" points="395.3959,-677.4681 401.2579,-668.6427 391.1717,-671.8862 395.3959,-677.4681"/>
</g>
<!-- Node2 -->
<g id="node3" class="node">
<title>Node2</title>
<polygon fill="none" stroke="#bfbfbf" points="360.5,-537.5 360.5,-556.5 409.5,-556.5 409.5,-537.5 360.5,-537.5"/>
<text text-anchor="middle" x="385" y="-544.5" font-family="FreeSans.ttf" font-size="10.00" fill="#000000">cstdlib</text>
</g>
<!-- Node1&#45;&gt;Node2 -->
<g id="edge2" class="edge">
<title>Node1&#45;&gt;Node2</title>
<path fill="none" stroke="#191970" d="M270.723,-593.3733C293.1737,-584.2629 327.0739,-570.5062 352.1255,-560.3404"/>
<polygon fill="#191970" stroke="#191970" points="353.6365,-563.5045 361.5865,-556.5011 351.0043,-557.0182 353.6365,-563.5045"/>
</g>
<!-- Node3 -->
<g id="node4" class="node">
<title>Node3</title>
<polygon fill="none" stroke="#bfbfbf" points="284,-56.5 284,-75.5 328,-75.5 328,-56.5 284,-56.5"/>
<text text-anchor="middle" x="306" y="-63.5" font-family="FreeSans.ttf" font-size="10.00" fill="#000000">string</text>
</g>
<!-- Node1&#45;&gt;Node3 -->
<g id="edge3" class="edge">
<title>Node1&#45;&gt;Node3</title>
<path fill="none" stroke="#191970" d="M209.486,-593.48C140.3885,-574.8384 0,-531.3247 0,-485.5 0,-485.5 0,-485.5 0,-178 0,-136.5164 29.3467,-131.4274 66,-112 101.6557,-93.1013 216.8537,-76.8881 273.6845,-69.8055"/>
<polygon fill="#191970" stroke="#191970" points="274.4088,-73.243 283.9083,-68.5516 273.5566,-66.295 274.4088,-73.243"/>
</g>
<!-- Node4 -->
<g id="node5" class="node">
<title>Node4</title>
<polygon fill="none" stroke="#bfbfbf" points="289.5,-537.5 289.5,-556.5 336.5,-556.5 336.5,-537.5 289.5,-537.5"/>
<text text-anchor="middle" x="313" y="-544.5" font-family="FreeSans.ttf" font-size="10.00" fill="#000000">vector</text>
</g>
<!-- Node1&#45;&gt;Node4 -->
<g id="edge4" class="edge">
<title>Node1&#45;&gt;Node4</title>
<path fill="none" stroke="#191970" d="M258.4963,-593.2455C268.2442,-584.9746 282.4259,-572.9416 293.8798,-563.2232"/>
<polygon fill="#191970" stroke="#191970" points="296.2747,-565.7813 301.6354,-556.6427 291.7459,-560.4437 296.2747,-565.7813"/>
</g>
<!-- Node5 -->
<g id="node6" class="node">
<title>Node5</title>
<g id="a_node6"><a xlink:href="Transform_8h.html" target="_top" xlink:title="iDynTree/Core/Transform.h">
<polygon fill="none" stroke="#000000" points="245,-347.5 245,-366.5 391,-366.5 391,-347.5 245,-347.5"/>
<text text-anchor="middle" x="318" y="-354.5" font-family="FreeSans.ttf" font-size="10.00" fill="#000000">iDynTree/Core/Transform.h</text>
</a>
</g>
</g>
<!-- Node1&#45;&gt;Node5 -->
<g id="edge5" class="edge">
<title>Node1&#45;&gt;Node5</title>
<path fill="none" stroke="#191970" d="M248.8899,-593.2249C253.2542,-571.0878 264.6859,-515.5109 278,-470 287.792,-436.5284 301.9045,-398.457 310.4851,-376.1506"/>
<polygon fill="#191970" stroke="#191970" points="313.8536,-377.1447 314.2098,-366.5559 307.3281,-374.6114 313.8536,-377.1447"/>
</g>
<!-- Node5&#45;&gt;Node3 -->
<g id="edge43" class="edge">
<title>Node5&#45;&gt;Node3</title>
<path fill="none" stroke="#191970" d="M244.8152,-350.3112C188.2833,-343.6526 116.2213,-331.4197 95,-311 69.6003,-286.5598 76,-269.2487 76,-234 76,-234 76,-234 76,-178 76,-134.4564 210.9373,-91.9089 274.1007,-74.3779"/>
<polygon fill="#191970" stroke="#191970" points="275.2233,-77.6995 283.9466,-71.6868 273.3776,-70.9472 275.2233,-77.6995"/>
</g>
<!-- Node6 -->
<g id="node7" class="node">
<title>Node6</title>
<g id="a_node7"><a xlink:href="Position_8h.html" target="_top" xlink:title="iDynTree/Core/Position.h">
<polygon fill="none" stroke="#000000" points="298,-286 298,-305 434,-305 434,-286 298,-286"/>
<text text-anchor="middle" x="366" y="-293" font-family="FreeSans.ttf" font-size="10.00" fill="#000000">iDynTree/Core/Position.h</text>
</a>
</g>
</g>
<!-- Node5&#45;&gt;Node6 -->
<g id="edge6" class="edge">
<title>Node5&#45;&gt;Node6</title>
<path fill="none" stroke="#191970" d="M325.5,-347.3906C332.5738,-338.3273 343.3542,-324.5149 352.0146,-313.4188"/>
<polygon fill="#191970" stroke="#191970" points="355.0006,-315.2815 358.3943,-305.2449 349.4824,-310.9746 355.0006,-315.2815"/>
</g>
<!-- Node22 -->
<g id="node23" class="node">
<title>Node22</title>
<g id="a_node23"><a xlink:href="Rotation_8h.html" target="_top" xlink:title="iDynTree/Core/Rotation.h">
<polygon fill="none" stroke="#000000" points="450.5,-224.5 450.5,-243.5 587.5,-243.5 587.5,-224.5 450.5,-224.5"/>
<text text-anchor="middle" x="519" y="-231.5" font-family="FreeSans.ttf" font-size="10.00" fill="#000000">iDynTree/Core/Rotation.h</text>
</a>
</g>
</g>
<!-- Node5&#45;&gt;Node22 -->
<g id="edge41" class="edge">
<title>Node5&#45;&gt;Node22</title>
<path fill="none" stroke="#191970" d="M356.9375,-347.4618C382.6886,-340.0366 416.4646,-328.0937 443,-311 468.1447,-294.8021 491.4144,-268.9618 505.4123,-251.7425"/>
<polygon fill="#191970" stroke="#191970" points="508.3808,-253.632 511.848,-243.6205 502.8943,-249.2846 508.3808,-253.632"/>
</g>
<!-- Node25 -->
<g id="node26" class="node">
<title>Node25</title>
<g id="a_node26"><a xlink:href="MatrixFixSize_8h.html" target="_top" xlink:title="iDynTree/Core/MatrixFixSize.h">
<polygon fill="none" stroke="#000000" points="478.5,-112.5 478.5,-131.5 639.5,-131.5 639.5,-112.5 478.5,-112.5"/>
<text text-anchor="middle" x="559" y="-119.5" font-family="FreeSans.ttf" font-size="10.00" fill="#000000">iDynTree/Core/MatrixFixSize.h</text>
</a>
</g>
</g>
<!-- Node5&#45;&gt;Node25 -->
<g id="edge42" class="edge">
<title>Node5&#45;&gt;Node25</title>
<path fill="none" stroke="#191970" d="M309.9659,-347.2843C282.0761,-313.0215 192.555,-198.2638 219,-168 235.2373,-149.4179 372.9179,-135.618 468.0146,-128.1954"/>
<polygon fill="#191970" stroke="#191970" points="468.5301,-131.6661 478.2322,-127.4095 467.9932,-124.6868 468.5301,-131.6661"/>
</g>
<!-- Node6&#45;&gt;Node3 -->
<g id="edge40" class="edge">
<title>Node6&#45;&gt;Node3</title>
<path fill="none" stroke="#191970" d="M341.3461,-285.9958C306.6231,-271.0969 244.6866,-238.6066 219,-188 198.0131,-146.6526 248.4263,-103.7395 280.9877,-81.4852"/>
<polygon fill="#191970" stroke="#191970" points="283.2132,-84.2097 289.6242,-75.7746 279.3523,-78.3706 283.2132,-84.2097"/>
</g>
<!-- Node7 -->
<g id="node8" class="node">
<title>Node7</title>
<g id="a_node8"><a xlink:href="PositionRaw_8h.html" target="_top" xlink:title="iDynTree/Core/PositionRaw.h">
<polygon fill="none" stroke="#000000" points="228,-168.5 228,-187.5 384,-187.5 384,-168.5 228,-168.5"/>
<text text-anchor="middle" x="306" y="-175.5" font-family="FreeSans.ttf" font-size="10.00" fill="#000000">iDynTree/Core/PositionRaw.h</text>
</a>
</g>
</g>
<!-- Node6&#45;&gt;Node7 -->
<g id="edge7" class="edge">
<title>Node6&#45;&gt;Node7</title>
<path fill="none" stroke="#191970" d="M361.0899,-285.8845C351.1573,-266.4331 328.5262,-222.1138 315.5725,-196.7462"/>
<polygon fill="#191970" stroke="#191970" points="318.6428,-195.0627 310.9779,-187.7484 312.4086,-198.2462 318.6428,-195.0627"/>
</g>
<!-- Node6&#45;&gt;Node22 -->
<g id="edge26" class="edge">
<title>Node6&#45;&gt;Node22</title>
<path fill="none" stroke="#191970" d="M389.9063,-285.8906C415.7305,-275.5103 457.0527,-258.9004 485.9705,-247.2766"/>
<polygon fill="#191970" stroke="#191970" points="487.2885,-250.519 495.2616,-243.5419 484.6778,-244.0241 487.2885,-250.519"/>
</g>
<!-- Node7&#45;&gt;Node3 -->
<g id="edge25" class="edge">
<title>Node7&#45;&gt;Node3</title>
<path fill="none" stroke="#191970" d="M306,-168.4509C306,-150.184 306,-109.9553 306,-85.6976"/>
<polygon fill="#191970" stroke="#191970" points="309.5001,-85.5249 306,-75.5249 302.5001,-85.5249 309.5001,-85.5249"/>
</g>
<!-- Node8 -->
<g id="node9" class="node">
<title>Node8</title>
<g id="a_node9"><a xlink:href="VectorFixSize_8h.html" target="_top" xlink:title="iDynTree/Core/VectorFixSize.h">
<polygon fill="none" stroke="#000000" points="732.5,-112.5 732.5,-131.5 893.5,-131.5 893.5,-112.5 732.5,-112.5"/>
<text text-anchor="middle" x="813" y="-119.5" font-family="FreeSans.ttf" font-size="10.00" fill="#000000">iDynTree/Core/VectorFixSize.h</text>
</a>
</g>
</g>
<!-- Node7&#45;&gt;Node8 -->
<g id="edge8" class="edge">
<title>Node7&#45;&gt;Node8</title>
<path fill="none" stroke="#191970" d="M384.1076,-169.3727C475.321,-159.2979 625.9568,-142.6596 722.2715,-132.0213"/>
<polygon fill="#191970" stroke="#191970" points="722.7326,-135.4917 732.2878,-130.915 721.964,-128.5341 722.7326,-135.4917"/>
</g>
<!-- Node8&#45;&gt;Node3 -->
<g id="edge21" class="edge">
<title>Node8&#45;&gt;Node3</title>
<path fill="none" stroke="#191970" d="M732.3842,-113.0957C618.9754,-100.5693 417.3963,-78.3041 338.727,-69.6148"/>
<polygon fill="#191970" stroke="#191970" points="338.7879,-66.1003 328.4641,-68.4812 338.0194,-73.058 338.7879,-66.1003"/>
</g>
<!-- Node9 -->
<g id="node10" class="node">
<title>Node9</title>
<g id="a_node10"><a xlink:href="Utils_8h.html" target="_top" xlink:title="iDynTree/Core/Utils.h">
<polygon fill="none" stroke="#000000" points="713.5,-56.5 713.5,-75.5 832.5,-75.5 832.5,-56.5 713.5,-56.5"/>
<text text-anchor="middle" x="773" y="-63.5" font-family="FreeSans.ttf" font-size="10.00" fill="#000000">iDynTree/Core/Utils.h</text>
</a>
</g>
</g>
<!-- Node8&#45;&gt;Node9 -->
<g id="edge9" class="edge">
<title>Node8&#45;&gt;Node9</title>
<path fill="none" stroke="#191970" d="M806.0325,-112.2455C800.4689,-104.4564 792.522,-93.3308 785.8171,-83.9439"/>
<polygon fill="#191970" stroke="#191970" points="788.5481,-81.7457 779.8876,-75.6427 782.852,-85.8144 788.5481,-81.7457"/>
</g>
<!-- Node11 -->
<g id="node12" class="node">
<title>Node11</title>
<g id="a_node12"><a xlink:href="Span_8h.html" target="_top" xlink:title="iDynTree/Core/Span.h">
<polygon fill="none" stroke="#000000" points="850.5,-56.5 850.5,-75.5 971.5,-75.5 971.5,-56.5 850.5,-56.5"/>
<text text-anchor="middle" x="911" y="-63.5" font-family="FreeSans.ttf" font-size="10.00" fill="#000000">iDynTree/Core/Span.h</text>
</a>
</g>
</g>
<!-- Node8&#45;&gt;Node11 -->
<g id="edge11" class="edge">
<title>Node8&#45;&gt;Node11</title>
<path fill="none" stroke="#191970" d="M830.0703,-112.2455C845.247,-103.5731 867.6621,-90.7645 885.0563,-80.825"/>
<polygon fill="#191970" stroke="#191970" points="887.1794,-83.643 894.1253,-75.6427 883.7064,-77.5653 887.1794,-83.643"/>
</g>
<!-- Node12 -->
<g id="node13" class="node">
<title>Node12</title>
<polygon fill="none" stroke="#bfbfbf" points="631,-.5 631,-19.5 683,-19.5 683,-.5 631,-.5"/>
<text text-anchor="middle" x="657" y="-7.5" font-family="FreeSans.ttf" font-size="10.00" fill="#000000">cassert</text>
</g>
<!-- Node8&#45;&gt;Node12 -->
<g id="edge23" class="edge">
<title>Node8&#45;&gt;Node12</title>
<path fill="none" stroke="#191970" d="M778.1012,-112.4509C755.5959,-105.0781 726.6051,-93.1987 705,-76 688.7884,-63.0948 675.434,-43.3943 666.9632,-28.8745"/>
<polygon fill="#191970" stroke="#191970" points="669.8297,-26.8282 661.904,-19.7973 663.7153,-30.2362 669.8297,-26.8282"/>
</g>
<!-- Node20 -->
<g id="node21" class="node">
<title>Node20</title>
<polygon fill="none" stroke="#bfbfbf" points="990,-56.5 990,-75.5 1046,-75.5 1046,-56.5 990,-56.5"/>
<text text-anchor="middle" x="1018" y="-63.5" font-family="FreeSans.ttf" font-size="10.00" fill="#000000">sstream</text>
</g>
<!-- Node8&#45;&gt;Node20 -->
<g id="edge22" class="edge">
<title>Node8&#45;&gt;Node20</title>
<path fill="none" stroke="#191970" d="M848.2408,-112.3733C884.8646,-102.3687 941.9997,-86.7611 979.714,-76.4586"/>
<polygon fill="#191970" stroke="#191970" points="981.0789,-79.7141 989.8031,-73.7026 979.2343,-72.9615 981.0789,-79.7141"/>
</g>
<!-- Node21 -->
<g id="node22" class="node">
<title>Node21</title>
<polygon fill="none" stroke="#bfbfbf" points="607,-56.5 607,-75.5 657,-75.5 657,-56.5 607,-56.5"/>
<text text-anchor="middle" x="632" y="-63.5" font-family="FreeSans.ttf" font-size="10.00" fill="#000000">cstring</text>
</g>
<!-- Node8&#45;&gt;Node21 -->
<g id="edge24" class="edge">
<title>Node8&#45;&gt;Node21</title>
<path fill="none" stroke="#191970" d="M781.885,-112.3733C749.9168,-102.4825 700.2485,-87.1156 666.9472,-76.8124"/>
<polygon fill="#191970" stroke="#191970" points="667.7632,-73.4012 657.1755,-73.7891 665.6942,-80.0885 667.7632,-73.4012"/>
</g>
<!-- Node10 -->
<g id="node11" class="node">
<title>Node10</title>
<polygon fill="none" stroke="#bfbfbf" points="701.5,-.5 701.5,-19.5 754.5,-19.5 754.5,-.5 701.5,-.5"/>
<text text-anchor="middle" x="728" y="-7.5" font-family="FreeSans.ttf" font-size="10.00" fill="#000000">cstddef</text>
</g>
<!-- Node9&#45;&gt;Node10 -->
<g id="edge10" class="edge">
<title>Node9&#45;&gt;Node10</title>
<path fill="none" stroke="#191970" d="M765.1616,-56.2455C758.838,-48.3761 749.7776,-37.101 742.1864,-27.6542"/>
<polygon fill="#191970" stroke="#191970" points="744.7408,-25.2454 735.7486,-19.6427 739.2842,-29.6302 744.7408,-25.2454"/>
</g>
<!-- Node11&#45;&gt;Node10 -->
<g id="edge15" class="edge">
<title>Node11&#45;&gt;Node10</title>
<path fill="none" stroke="#191970" d="M879.5412,-56.3733C847.5902,-46.5959 798.1514,-31.4671 764.4975,-21.1686"/>
<polygon fill="#191970" stroke="#191970" points="765.1833,-17.7183 754.5968,-18.1389 763.1349,-24.4119 765.1833,-17.7183"/>
</g>
<!-- Node11&#45;&gt;Node12 -->
<g id="edge12" class="edge">
<title>Node11&#45;&gt;Node12</title>
<path fill="none" stroke="#191970" d="M861.4484,-56.4691C817.1318,-47.7255 750.4928,-34.0361 693,-20 692.9015,-19.976 692.8029,-19.9518 692.7042,-19.9277"/>
<polygon fill="#191970" stroke="#191970" points="693.8524,-16.609 683.296,-17.5103 692.1104,-23.3888 693.8524,-16.609"/>
</g>
<!-- Node13 -->
<g id="node14" class="node">
<title>Node13</title>
<polygon fill="none" stroke="#bfbfbf" points="1140,-.5 1140,-19.5 1204,-19.5 1204,-.5 1140,-.5"/>
<text text-anchor="middle" x="1172" y="-7.5" font-family="FreeSans.ttf" font-size="10.00" fill="#000000">algorithm</text>
</g>
<!-- Node11&#45;&gt;Node13 -->
<g id="edge13" class="edge">
<title>Node11&#45;&gt;Node13</title>
<path fill="none" stroke="#191970" d="M958.7348,-56.4935C1001.1849,-47.9327 1065.1929,-34.7641 1129.8371,-20.213"/>
<polygon fill="#191970" stroke="#191970" points="1130.8129,-23.5808 1139.7948,-17.9616 1129.2691,-16.7532 1130.8129,-23.5808"/>
</g>
<!-- Node14 -->
<g id="node15" class="node">
<title>Node14</title>
<polygon fill="none" stroke="#bfbfbf" points="1222,-.5 1222,-19.5 1264,-19.5 1264,-.5 1222,-.5"/>
<text text-anchor="middle" x="1243" y="-7.5" font-family="FreeSans.ttf" font-size="10.00" fill="#000000">array</text>
</g>
<!-- Node11&#45;&gt;Node14 -->
<g id="edge14" class="edge">
<title>Node11&#45;&gt;Node14</title>
<path fill="none" stroke="#191970" d="M971.6336,-57.3308C1046.338,-46.5698 1167.9471,-28.7667 1211.9704,-19.7509"/>
<polygon fill="#191970" stroke="#191970" points="1212.8251,-23.1463 1221.8248,-17.5557 1211.303,-16.3138 1212.8251,-23.1463"/>
</g>
<!-- Node15 -->
<g id="node16" class="node">
<title>Node15</title>
<polygon fill="none" stroke="#bfbfbf" points="772.5,-.5 772.5,-19.5 825.5,-19.5 825.5,-.5 772.5,-.5"/>
<text text-anchor="middle" x="799" y="-7.5" font-family="FreeSans.ttf" font-size="10.00" fill="#000000">iterator</text>
</g>
<!-- Node11&#45;&gt;Node15 -->
<g id="edge16" class="edge">
<title>Node11&#45;&gt;Node15</title>
<path fill="none" stroke="#191970" d="M891.7465,-56.3733C873.9288,-47.4644 847.2253,-34.1127 827.0406,-24.0203"/>
<polygon fill="#191970" stroke="#191970" points="828.5118,-20.8428 818.0022,-19.5011 825.3813,-27.1038 828.5118,-20.8428"/>
</g>
<!-- Node16 -->
<g id="node17" class="node">
<title>Node16</title>
<polygon fill="none" stroke="#bfbfbf" points="844,-.5 844,-19.5 888,-19.5 888,-.5 844,-.5"/>
<text text-anchor="middle" x="866" y="-7.5" font-family="FreeSans.ttf" font-size="10.00" fill="#000000">limits</text>
</g>
<!-- Node11&#45;&gt;Node16 -->
<g id="edge17" class="edge">
<title>Node11&#45;&gt;Node16</title>
<path fill="none" stroke="#191970" d="M903.1616,-56.2455C896.838,-48.3761 887.7776,-37.101 880.1864,-27.6542"/>
<polygon fill="#191970" stroke="#191970" points="882.7408,-25.2454 873.7486,-19.6427 877.2842,-29.6302 882.7408,-25.2454"/>
</g>
<!-- Node17 -->
<g id="node18" class="node">
<title>Node17</title>
<polygon fill="none" stroke="#bfbfbf" points="906.5,-.5 906.5,-19.5 971.5,-19.5 971.5,-.5 906.5,-.5"/>
<text text-anchor="middle" x="939" y="-7.5" font-family="FreeSans.ttf" font-size="10.00" fill="#000000">stdexcept</text>
</g>
<!-- Node11&#45;&gt;Node17 -->
<g id="edge18" class="edge">
<title>Node11&#45;&gt;Node17</title>
<path fill="none" stroke="#191970" d="M915.8772,-56.2455C919.6513,-48.6973 924.9921,-38.0158 929.5901,-28.8197"/>
<polygon fill="#191970" stroke="#191970" points="932.837,-30.1522 934.1787,-19.6427 926.576,-27.0217 932.837,-30.1522"/>
</g>
<!-- Node18 -->
<g id="node19" class="node">
<title>Node18</title>
<polygon fill="none" stroke="#bfbfbf" points="989.5,-.5 989.5,-19.5 1058.5,-19.5 1058.5,-.5 989.5,-.5"/>
<text text-anchor="middle" x="1024" y="-7.5" font-family="FreeSans.ttf" font-size="10.00" fill="#000000">type_traits</text>
</g>
<!-- Node11&#45;&gt;Node18 -->
<g id="edge19" class="edge">
<title>Node11&#45;&gt;Node18</title>
<path fill="none" stroke="#191970" d="M930.4254,-56.3733C948.4021,-47.4644 975.3441,-34.1127 995.709,-24.0203"/>
<polygon fill="#191970" stroke="#191970" points="997.4222,-27.0776 1004.8281,-19.5011 994.3139,-20.8055 997.4222,-27.0776"/>
</g>
<!-- Node19 -->
<g id="node20" class="node">
<title>Node19</title>
<polygon fill="none" stroke="#bfbfbf" points="1076.5,-.5 1076.5,-19.5 1121.5,-19.5 1121.5,-.5 1076.5,-.5"/>
<text text-anchor="middle" x="1099" y="-7.5" font-family="FreeSans.ttf" font-size="10.00" fill="#000000">utility</text>
</g>
<!-- Node11&#45;&gt;Node19 -->
<g id="edge20" class="edge">
<title>Node11&#45;&gt;Node19</title>
<path fill="none" stroke="#191970" d="M944.4617,-56.4796C974.2486,-47.942 1019.2437,-34.8929 1066.5332,-20.4034"/>
<polygon fill="#191970" stroke="#191970" points="1067.8059,-23.6738 1076.3354,-17.3891 1065.7484,-16.983 1067.8059,-23.6738"/>
</g>
<!-- Node22&#45;&gt;Node3 -->
<g id="edge27" class="edge">
<title>Node22&#45;&gt;Node3</title>
<path fill="none" stroke="#191970" d="M496.2565,-224.3446C477.839,-216.013 451.6541,-202.979 431,-188 386.6693,-155.8501 342.6805,-108.3499 320.6106,-83.1541"/>
<polygon fill="#191970" stroke="#191970" points="323.1901,-80.7863 313.9975,-75.5189 317.8989,-85.3693 323.1901,-80.7863"/>
</g>
<!-- Node22&#45;&gt;Node8 -->
<g id="edge39" class="edge">
<title>Node22&#45;&gt;Node8</title>
<path fill="none" stroke="#191970" d="M537.2458,-224.4552C571.708,-206.4357 643.1954,-169.1008 646,-168 682.6586,-153.6113 725.5115,-141.9066 758.6291,-133.9049"/>
<polygon fill="#191970" stroke="#191970" points="759.6566,-137.2583 768.5768,-131.5416 758.0386,-130.4478 759.6566,-137.2583"/>
</g>
<!-- Node23 -->
<g id="node24" class="node">
<title>Node23</title>
<g id="a_node24"><a xlink:href="GeomVector3_8h.html" target="_top" xlink:title="iDynTree/Core/GeomVector3.h">
<polygon fill="none" stroke="#000000" points="654.5,-168.5 654.5,-187.5 817.5,-187.5 817.5,-168.5 654.5,-168.5"/>
<text text-anchor="middle" x="736" y="-175.5" font-family="FreeSans.ttf" font-size="10.00" fill="#000000">iDynTree/Core/GeomVector3.h</text>
</a>
</g>
</g>
<!-- Node22&#45;&gt;Node23 -->
<g id="edge28" class="edge">
<title>Node22&#45;&gt;Node23</title>
<path fill="none" stroke="#191970" d="M556.3036,-224.3733C593.1685,-214.8598 649.666,-200.2797 689.4506,-190.0127"/>
<polygon fill="#191970" stroke="#191970" points="690.375,-193.3889 699.1831,-187.5011 688.6258,-186.611 690.375,-193.3889"/>
</g>
<!-- Node24 -->
<g id="node25" class="node">
<title>Node24</title>
<g id="a_node25"><a xlink:href="RotationRaw_8h.html" target="_top" xlink:title="iDynTree/Core/RotationRaw.h">
<polygon fill="none" stroke="#000000" points="440,-168.5 440,-187.5 598,-187.5 598,-168.5 440,-168.5"/>
<text text-anchor="middle" x="519" y="-175.5" font-family="FreeSans.ttf" font-size="10.00" fill="#000000">iDynTree/Core/RotationRaw.h</text>
</a>
</g>
</g>
<!-- Node22&#45;&gt;Node24 -->
<g id="edge30" class="edge">
<title>Node22&#45;&gt;Node24</title>
<path fill="none" stroke="#191970" d="M519,-224.2455C519,-216.9382 519,-206.6944 519,-197.7046"/>
<polygon fill="#191970" stroke="#191970" points="522.5001,-197.6426 519,-187.6427 515.5001,-197.6427 522.5001,-197.6426"/>
</g>
<!-- Node23&#45;&gt;Node8 -->
<g id="edge29" class="edge">
<title>Node23&#45;&gt;Node8</title>
<path fill="none" stroke="#191970" d="M749.4124,-168.2455C761.0057,-159.814 777.9748,-147.4729 791.4678,-137.6598"/>
<polygon fill="#191970" stroke="#191970" points="793.7126,-140.355 799.7413,-131.6427 789.5953,-134.6938 793.7126,-140.355"/>
</g>
<!-- Node24&#45;&gt;Node3 -->
<g id="edge38" class="edge">
<title>Node24&#45;&gt;Node3</title>
<path fill="none" stroke="#191970" d="M507.5838,-168.4511C490.6315,-154.618 457.4167,-128.8229 426,-112 397.4759,-96.726 362.7603,-83.9954 338.0214,-75.8281"/>
<polygon fill="#191970" stroke="#191970" points="338.9983,-72.4656 328.4065,-72.7174 336.8435,-79.1257 338.9983,-72.4656"/>
</g>
<!-- Node24&#45;&gt;Node25 -->
<g id="edge31" class="edge">
<title>Node24&#45;&gt;Node25</title>
<path fill="none" stroke="#191970" d="M525.9675,-168.2455C531.5311,-160.4564 539.478,-149.3308 546.1829,-139.9439"/>
<polygon fill="#191970" stroke="#191970" points="549.148,-141.8144 552.1124,-131.6427 543.4519,-137.7457 549.148,-141.8144"/>
</g>
<!-- Node25&#45;&gt;Node3 -->
<g id="edge35" class="edge">
<title>Node25&#45;&gt;Node3</title>
<path fill="none" stroke="#191970" d="M515.7952,-112.4369C465.3859,-101.2791 383.2092,-83.0898 338.1202,-73.1096"/>
<polygon fill="#191970" stroke="#191970" points="338.8114,-69.678 328.2913,-70.934 337.2986,-76.5125 338.8114,-69.678"/>
</g>
<!-- Node25&#45;&gt;Node9 -->
<g id="edge32" class="edge">
<title>Node25&#45;&gt;Node9</title>
<path fill="none" stroke="#191970" d="M595.7879,-112.3733C632.0661,-102.8799 687.6236,-88.3415 726.8446,-78.0781"/>
<polygon fill="#191970" stroke="#191970" points="727.904,-81.4188 736.6921,-75.5011 726.1318,-74.6468 727.904,-81.4188"/>
</g>
<!-- Node25&#45;&gt;Node12 -->
<g id="edge33" class="edge">
<title>Node25&#45;&gt;Node12</title>
<path fill="none" stroke="#191970" d="M546.2211,-112.4877C530.1552,-99.3551 506.2466,-75.1259 520,-56 531.9832,-39.3357 584.6115,-25.1823 621.0349,-17.1374"/>
<polygon fill="#191970" stroke="#191970" points="621.7892,-20.5553 630.8312,-15.0333 620.3191,-13.7114 621.7892,-20.5553"/>
</g>
<!-- Node25&#45;&gt;Node20 -->
<g id="edge37" class="edge">
<title>Node25&#45;&gt;Node20</title>
<path fill="none" stroke="#191970" d="M639.662,-116.9493C722.7476,-110.8994 856.0555,-98.8365 979.7921,-75.9805"/>
<polygon fill="#191970" stroke="#191970" points="980.639,-79.3828 989.8227,-74.0998 979.3489,-72.5027 980.639,-79.3828"/>
</g>
<!-- Node25&#45;&gt;Node21 -->
<g id="edge34" class="edge">
<title>Node25&#45;&gt;Node21</title>
<path fill="none" stroke="#191970" d="M571.7156,-112.2455C582.602,-103.8943 598.4883,-91.7076 611.22,-81.9408"/>
<polygon fill="#191970" stroke="#191970" points="613.6261,-84.5063 619.4301,-75.6427 609.3654,-78.9523 613.6261,-84.5063"/>
</g>
<!-- Node26 -->
<g id="node27" class="node">
<title>Node26</title>
<polygon fill="none" stroke="#bfbfbf" points="529,-56.5 529,-75.5 589,-75.5 589,-56.5 529,-56.5"/>
<text text-anchor="middle" x="559" y="-63.5" font-family="FreeSans.ttf" font-size="10.00" fill="#000000">iostream</text>
</g>
<!-- Node25&#45;&gt;Node26 -->
<g id="edge36" class="edge">
<title>Node25&#45;&gt;Node26</title>
<path fill="none" stroke="#191970" d="M559,-112.2455C559,-104.9382 559,-94.6944 559,-85.7046"/>
<polygon fill="#191970" stroke="#191970" points="562.5001,-85.6426 559,-75.6427 555.5001,-85.6427 562.5001,-85.6426"/>
</g>
<!-- Node27&#45;&gt;Node1 -->
<g id="edge77" class="edge">
<title>Node27&#45;&gt;Node1</title>
<path fill="none" stroke="#191970" d="M385.2917,-649.3733C357.6423,-640.1016 315.6424,-626.0178 285.1834,-615.804"/>
<polygon fill="#191970" stroke="#191970" points="285.9276,-612.3621 275.3337,-612.5011 283.7021,-618.9989 285.9276,-612.3621"/>
</g>
<!-- Node27&#45;&gt;Node2 -->
<g id="edge78" class="edge">
<title>Node27&#45;&gt;Node2</title>
<path fill="none" stroke="#191970" d="M411.5275,-649.4509C406.7762,-631.1013 396.2869,-590.5908 390.0153,-566.3693"/>
<polygon fill="#191970" stroke="#191970" points="393.3612,-565.3283 387.4663,-556.5249 386.5847,-567.083 393.3612,-565.3283"/>
</g>
<!-- Node27&#45;&gt;Node4 -->
<g id="edge79" class="edge">
<title>Node27&#45;&gt;Node4</title>
<path fill="none" stroke="#191970" d="M405.3888,-649.4509C388.3196,-630.5227 349.9859,-588.014 328.4457,-564.1279"/>
<polygon fill="#191970" stroke="#191970" points="330.8856,-561.6073 321.5894,-556.5249 325.6872,-566.2952 330.8856,-561.6073"/>
</g>
<!-- Node27&#45;&gt;Node5 -->
<g id="edge75" class="edge">
<title>Node27&#45;&gt;Node5</title>
<path fill="none" stroke="#191970" d="M480.6864,-657.2712C649.9314,-650.6872 1073.5304,-619.2399 940,-470 891.8426,-416.177 688.0356,-447.0381 617,-434 523.4955,-416.8379 416.0439,-386.4992 358.8466,-369.4778"/>
<polygon fill="#191970" stroke="#191970" points="359.6851,-366.0754 349.1014,-366.5616 357.6782,-372.7816 359.6851,-366.0754"/>
</g>
<!-- Node28 -->
<g id="node29" class="node">
<title>Node28</title>
<g id="a_node29"><a xlink:href="IJoint_8h.html" target="_top" xlink:title="iDynTree/Model/IJoint.h">
<polygon fill="none" stroke="#000000" points="461,-593.5 461,-612.5 589,-612.5 589,-593.5 461,-593.5"/>
<text text-anchor="middle" x="525" y="-600.5" font-family="FreeSans.ttf" font-size="10.00" fill="#000000">iDynTree/Model/IJoint.h</text>
</a>
</g>
</g>
<!-- Node27&#45;&gt;Node28 -->
<g id="edge45" class="edge">
<title>Node27&#45;&gt;Node28</title>
<path fill="none" stroke="#191970" d="M433.0816,-649.3733C450.7402,-640.4644 477.2053,-627.1127 497.2098,-617.0203"/>
<polygon fill="#191970" stroke="#191970" points="498.8158,-620.1303 506.1674,-612.5011 495.6628,-613.8806 498.8158,-620.1303"/>
</g>
<!-- Node29 -->
<g id="node30" class="node">
<title>Node29</title>
<g id="a_node30"><a xlink:href="Indices_8h.html" target="_top" xlink:title="iDynTree/Model/Indices.h">
<polygon fill="none" stroke="#000000" points="431,-537.5 431,-556.5 569,-556.5 569,-537.5 431,-537.5"/>
<text text-anchor="middle" x="500" y="-544.5" font-family="FreeSans.ttf" font-size="10.00" fill="#000000">iDynTree/Model/Indices.h</text>
</a>
</g>
</g>
<!-- Node27&#45;&gt;Node29 -->
<g id="edge76" class="edge">
<title>Node27&#45;&gt;Node29</title>
<path fill="none" stroke="#191970" d="M418.6092,-649.0591C425.0698,-635.6444 437.6492,-611.3185 452,-593 460.3681,-582.3182 471.1732,-571.7462 480.4123,-563.4359"/>
<polygon fill="#191970" stroke="#191970" points="482.809,-565.9895 488.0278,-556.7691 478.1981,-560.7225 482.809,-565.9895"/>
</g>
<!-- Node30 -->
<g id="node31" class="node">
<title>Node30</title>
<g id="a_node31"><a xlink:href="Link_8h.html" target="_top" xlink:title="iDynTree/Model/Link.h">
<polygon fill="none" stroke="#000000" points="607,-593.5 607,-612.5 731,-612.5 731,-593.5 607,-593.5"/>
<text text-anchor="middle" x="669" y="-600.5" font-family="FreeSans.ttf" font-size="10.00" fill="#000000">iDynTree/Model/Link.h</text>
</a>
</g>
</g>
<!-- Node27&#45;&gt;Node30 -->
<g id="edge48" class="edge">
<title>Node27&#45;&gt;Node30</title>
<path fill="none" stroke="#191970" d="M457.5463,-649.4369C501.2793,-639.8328 568.7345,-625.0191 615.6542,-614.7152"/>
<polygon fill="#191970" stroke="#191970" points="616.6168,-618.0872 625.6333,-612.5237 615.1153,-611.2502 616.6168,-618.0872"/>
</g>
<!-- Node28&#45;&gt;Node29 -->
<g id="edge46" class="edge">
<title>Node28&#45;&gt;Node29</title>
<path fill="none" stroke="#191970" d="M520.6453,-593.2455C517.2756,-585.6973 512.507,-575.0158 508.4017,-565.8197"/>
<polygon fill="#191970" stroke="#191970" points="511.5773,-564.3473 504.3048,-556.6427 505.1853,-567.2009 511.5773,-564.3473"/>
</g>
<!-- Node29&#45;&gt;Node3 -->
<g id="edge47" class="edge">
<title>Node29&#45;&gt;Node3</title>
<path fill="none" stroke="#191970" d="M430.6387,-538.3414C426.7022,-537.8798 422.8015,-537.4296 419,-537 341.0867,-528.1959 129.8408,-549.205 68,-501 37.2286,-477.0137 38,-457.5157 38,-418.5 38,-418.5 38,-418.5 38,-178 38,-132.5883 75.5102,-132.5621 116,-112 167.5577,-85.8172 234.6476,-74.1104 273.7577,-69.2084"/>
<polygon fill="#191970" stroke="#191970" points="274.2553,-72.674 283.776,-68.0257 273.4346,-65.7223 274.2553,-72.674"/>
</g>
<!-- Node30&#45;&gt;Node29 -->
<g id="edge74" class="edge">
<title>Node30&#45;&gt;Node29</title>
<path fill="none" stroke="#191970" d="M639.9479,-593.3733C611.8457,-584.0613 569.0946,-569.8953 538.2393,-559.671"/>
<polygon fill="#191970" stroke="#191970" points="539.2664,-556.3243 528.673,-556.5011 537.0645,-562.969 539.2664,-556.3243"/>
</g>
<!-- Node31 -->
<g id="node32" class="node">
<title>Node31</title>
<g id="a_node32"><a xlink:href="SpatialInertia_8h.html" target="_top" xlink:title="iDynTree/Core/SpatialInertia.h">
<polygon fill="none" stroke="#000000" points="588,-537.5 588,-556.5 750,-556.5 750,-537.5 588,-537.5"/>
<text text-anchor="middle" x="669" y="-544.5" font-family="FreeSans.ttf" font-size="10.00" fill="#000000">iDynTree/Core/SpatialInertia.h</text>
</a>
</g>
</g>
<!-- Node30&#45;&gt;Node31 -->
<g id="edge49" class="edge">
<title>Node30&#45;&gt;Node31</title>
<path fill="none" stroke="#191970" d="M669,-593.2455C669,-585.9382 669,-575.6944 669,-566.7046"/>
<polygon fill="#191970" stroke="#191970" points="672.5001,-566.6426 669,-556.6427 665.5001,-566.6427 672.5001,-566.6426"/>
</g>
<!-- Node31&#45;&gt;Node8 -->
<g id="edge53" class="edge">
<title>Node31&#45;&gt;Node8</title>
<path fill="none" stroke="#191970" d="M750.2516,-538.0666C817.4942,-529.7863 907.1171,-516.4415 940,-501 990.9223,-477.0874 1036,-474.7573 1036,-418.5 1036,-418.5 1036,-418.5 1036,-234 1036,-171.4918 965.1655,-143.8666 903.341,-131.6597"/>
<polygon fill="#191970" stroke="#191970" points="903.9797,-128.2185 893.5081,-129.83 902.699,-135.1004 903.9797,-128.2185"/>
</g>
<!-- Node32 -->
<g id="node33" class="node">
<title>Node32</title>
<g id="a_node33"><a xlink:href="SpatialInertiaRaw_8h.html" target="_top" xlink:title="iDynTree/Core/SpatialInertia\lRaw.h">
<polygon fill="none" stroke="#000000" points="77.5,-470.5 77.5,-500.5 230.5,-500.5 230.5,-470.5 77.5,-470.5"/>
<text text-anchor="start" x="85.5" y="-488.5" font-family="FreeSans.ttf" font-size="10.00" fill="#000000">iDynTree/Core/SpatialInertia</text>
<text text-anchor="middle" x="154" y="-477.5" font-family="FreeSans.ttf" font-size="10.00" fill="#000000">Raw.h</text>
</a>
</g>
</g>
<!-- Node31&#45;&gt;Node32 -->
<g id="edge50" class="edge">
<title>Node31&#45;&gt;Node32</title>
<path fill="none" stroke="#191970" d="M587.7283,-537.6124C508.6285,-528.4347 385.0374,-513.986 278,-501 265.934,-499.5361 253.2105,-497.9707 240.6952,-496.4181"/>
<polygon fill="#191970" stroke="#191970" points="241.0748,-492.9385 230.7193,-495.178 240.2112,-499.885 241.0748,-492.9385"/>
</g>
<!-- Node34 -->
<g id="node35" class="node">
<title>Node34</title>
<g id="a_node35"><a xlink:href="Twist_8h.html" target="_top" xlink:title="iDynTree/Core/Twist.h">
<polygon fill="none" stroke="#000000" points="809,-476 809,-495 931,-495 931,-476 809,-476"/>
<text text-anchor="middle" x="870" y="-483" font-family="FreeSans.ttf" font-size="10.00" fill="#000000">iDynTree/Core/Twist.h</text>
</a>
</g>
</g>
<!-- Node31&#45;&gt;Node34 -->
<g id="edge54" class="edge">
<title>Node31&#45;&gt;Node34</title>
<path fill="none" stroke="#191970" d="M700.4063,-537.3906C735.0698,-526.7846 790.9881,-509.6753 829.0625,-498.0257"/>
<polygon fill="#191970" stroke="#191970" points="830.2759,-501.3146 838.8143,-495.0419 828.2278,-494.6209 830.2759,-501.3146"/>
</g>
<!-- Node37 -->
<g id="node38" class="node">
<title>Node37</title>
<g id="a_node38"><a xlink:href="SpatialMomentum_8h.html" target="_top" xlink:title="iDynTree/Core/SpatialMomentum.h">
<polygon fill="none" stroke="#000000" points="439,-476 439,-495 625,-495 625,-476 439,-476"/>
<text text-anchor="middle" x="532" y="-483" font-family="FreeSans.ttf" font-size="10.00" fill="#000000">iDynTree/Core/SpatialMomentum.h</text>
</a>
</g>
</g>
<!-- Node31&#45;&gt;Node37 -->
<g id="edge65" class="edge">
<title>Node31&#45;&gt;Node37</title>
<path fill="none" stroke="#191970" d="M647.5938,-537.3906C624.7717,-527.1457 588.4321,-510.8326 562.5943,-499.2339"/>
<polygon fill="#191970" stroke="#191970" points="563.8123,-495.9443 553.2559,-495.0419 560.9455,-502.3303 563.8123,-495.9443"/>
</g>
<!-- Node39 -->
<g id="node40" class="node">
<title>Node39</title>
<g id="a_node40"><a xlink:href="SpatialAcc_8h.html" target="_top" xlink:title="iDynTree/Core/SpatialAcc.h">
<polygon fill="none" stroke="#000000" points="643,-476 643,-495 791,-495 791,-476 643,-476"/>
<text text-anchor="middle" x="717" y="-483" font-family="FreeSans.ttf" font-size="10.00" fill="#000000">iDynTree/Core/SpatialAcc.h</text>
</a>
</g>
</g>
<!-- Node31&#45;&gt;Node39 -->
<g id="edge70" class="edge">
<title>Node31&#45;&gt;Node39</title>
<path fill="none" stroke="#191970" d="M676.5,-537.3906C683.5738,-528.3273 694.3542,-514.5149 703.0146,-503.4188"/>
<polygon fill="#191970" stroke="#191970" points="706.0006,-505.2815 709.3943,-495.2449 700.4824,-500.9746 706.0006,-505.2815"/>
</g>
<!-- Node40 -->
<g id="node41" class="node">
<title>Node40</title>
<g id="a_node41"><a xlink:href="Wrench_8h.html" target="_top" xlink:title="iDynTree/Core/Wrench.h">
<polygon fill="none" stroke="#000000" points="287.5,-476 287.5,-495 420.5,-495 420.5,-476 287.5,-476"/>
<text text-anchor="middle" x="354" y="-483" font-family="FreeSans.ttf" font-size="10.00" fill="#000000">iDynTree/Core/Wrench.h</text>
</a>
</g>
</g>
<!-- Node31&#45;&gt;Node40 -->
<g id="edge72" class="edge">
<title>Node31&#45;&gt;Node40</title>
<path fill="none" stroke="#191970" d="M618.6121,-537.4693C570.2218,-528.2768 495.0739,-513.8978 430,-501 423.672,-499.7458 417.0509,-498.4182 410.4681,-497.0886"/>
<polygon fill="#191970" stroke="#191970" points="410.6986,-493.5642 400.2026,-495.0078 409.308,-500.4247 410.6986,-493.5642"/>
</g>
<!-- Node33 -->
<g id="node34" class="node">
<title>Node33</title>
<g id="a_node34"><a xlink:href="RotationalInertiaRaw_8h.html" target="_top" xlink:title="iDynTree/Core/Rotational\lInertiaRaw.h">
<polygon fill="none" stroke="#000000" points="104.5,-280.5 104.5,-310.5 241.5,-310.5 241.5,-280.5 104.5,-280.5"/>
<text text-anchor="start" x="112.5" y="-298.5" font-family="FreeSans.ttf" font-size="10.00" fill="#000000">iDynTree/Core/Rotational</text>
<text text-anchor="middle" x="173" y="-287.5" font-family="FreeSans.ttf" font-size="10.00" fill="#000000">InertiaRaw.h</text>
</a>
</g>
</g>
<!-- Node32&#45;&gt;Node33 -->
<g id="edge51" class="edge">
<title>Node32&#45;&gt;Node33</title>
<path fill="none" stroke="#191970" d="M155.5227,-470.2727C158.7896,-437.6039 166.4982,-360.5184 170.4965,-320.5352"/>
<polygon fill="#191970" stroke="#191970" points="173.9839,-320.8348 171.4964,-310.5361 167.0186,-320.1382 173.9839,-320.8348"/>
</g>
<!-- Node33&#45;&gt;Node25 -->
<g id="edge52" class="edge">
<title>Node33&#45;&gt;Node25</title>
<path fill="none" stroke="#191970" d="M169.2491,-280.4693C163.5888,-253.8078 156.4238,-198.2068 186,-168 205.4378,-148.1478 364.1307,-134.3493 468.1687,-127.3371"/>
<polygon fill="#191970" stroke="#191970" points="468.6271,-130.8145 478.3731,-126.6592 468.163,-123.8299 468.6271,-130.8145"/>
</g>
<!-- Node35 -->
<g id="node36" class="node">
<title>Node35</title>
<g id="a_node36"><a xlink:href="SpatialMotionVector_8h.html" target="_top" xlink:title="iDynTree/Core/SpatialMotion\lVector.h">
<polygon fill="none" stroke="#000000" points="792.5,-403.5 792.5,-433.5 947.5,-433.5 947.5,-403.5 792.5,-403.5"/>
<text text-anchor="start" x="800.5" y="-421.5" font-family="FreeSans.ttf" font-size="10.00" fill="#000000">iDynTree/Core/SpatialMotion</text>
<text text-anchor="middle" x="870" y="-410.5" font-family="FreeSans.ttf" font-size="10.00" fill="#000000">Vector.h</text>
</a>
</g>
</g>
<!-- Node34&#45;&gt;Node35 -->
<g id="edge55" class="edge">
<title>Node34&#45;&gt;Node35</title>
<path fill="none" stroke="#191970" d="M870,-475.9005C870,-467.5099 870,-454.9451 870,-443.7085"/>
<polygon fill="#191970" stroke="#191970" points="873.5001,-443.5217 870,-433.5218 866.5001,-443.5218 873.5001,-443.5217"/>
</g>
<!-- Node35&#45;&gt;Node8 -->
<g id="edge56" class="edge">
<title>Node35&#45;&gt;Node8</title>
<path fill="none" stroke="#191970" d="M904.6386,-403.4148C942.5464,-384.2868 998,-347.4305 998,-295.5 998,-295.5 998,-295.5 998,-234 998,-176.652 932.141,-147.8663 879.0129,-133.9749"/>
<polygon fill="#191970" stroke="#191970" points="879.8086,-130.5663 869.2596,-131.5509 878.1201,-137.3596 879.8086,-130.5663"/>
</g>
<!-- Node35&#45;&gt;Node23 -->
<g id="edge57" class="edge">
<title>Node35&#45;&gt;Node23</title>
<path fill="none" stroke="#191970" d="M861.6177,-403.4556C838.1839,-361.3973 772.0322,-242.6698 746.3625,-196.5984"/>
<polygon fill="#191970" stroke="#191970" points="749.3234,-194.7215 741.3987,-187.6895 743.2085,-198.1286 749.3234,-194.7215"/>
</g>
<!-- Node36 -->
<g id="node37" class="node">
<title>Node36</title>
<g id="a_node37"><a xlink:href="SpatialVector_8h.html" target="_top" xlink:title="iDynTree/Core/SpatialVector.h">
<polygon fill="none" stroke="#000000" points="655.5,-347.5 655.5,-366.5 816.5,-366.5 816.5,-347.5 655.5,-347.5"/>
<text text-anchor="middle" x="736" y="-354.5" font-family="FreeSans.ttf" font-size="10.00" fill="#000000">iDynTree/Core/SpatialVector.h</text>
</a>
</g>
</g>
<!-- Node35&#45;&gt;Node36 -->
<g id="edge58" class="edge">
<title>Node35&#45;&gt;Node36</title>
<path fill="none" stroke="#191970" d="M837.2199,-403.4554C815.45,-393.464 787.0914,-380.4487 765.9314,-370.7372"/>
<polygon fill="#191970" stroke="#191970" points="767.3137,-367.5206 756.7652,-366.5303 764.3938,-373.8826 767.3137,-367.5206"/>
</g>
<!-- Node36&#45;&gt;Node6 -->
<g id="edge59" class="edge">
<title>Node36&#45;&gt;Node6</title>
<path fill="none" stroke="#191970" d="M678.5935,-347.4581C612.3314,-336.4443 503.49,-318.3531 433.3022,-306.6867"/>
<polygon fill="#191970" stroke="#191970" points="433.6753,-303.2008 423.2368,-305.0137 432.5275,-310.1061 433.6753,-303.2008"/>
</g>
<!-- Node36&#45;&gt;Node9 -->
<g id="edge61" class="edge">
<title>Node36&#45;&gt;Node9</title>
<path fill="none" stroke="#191970" d="M782.9357,-347.4696C838.0366,-333.2223 922,-300.5876 922,-234 922,-234 922,-234 922,-178 922,-147.4754 923.9293,-134.2198 903,-112 886.9851,-94.9976 864.2957,-84.2736 842.3451,-77.5118"/>
<polygon fill="#191970" stroke="#191970" points="843.2487,-74.1301 832.6728,-74.7628 841.335,-80.8634 843.2487,-74.1301"/>
</g>
<!-- Node36&#45;&gt;Node20 -->
<g id="edge64" class="edge">
<title>Node36&#45;&gt;Node20</title>
<path fill="none" stroke="#191970" d="M809.6562,-347.481C874.9436,-334.4259 960,-303.9874 960,-234 960,-234 960,-234 960,-178 960,-141.0488 985.202,-104.1465 1002.3808,-83.2847"/>
<polygon fill="#191970" stroke="#191970" points="1005.0985,-85.4919 1008.9375,-75.6171 999.7784,-80.9426 1005.0985,-85.4919"/>
</g>
<!-- Node36&#45;&gt;Node22 -->
<g id="edge60" class="edge">
<title>Node36&#45;&gt;Node22</title>
<path fill="none" stroke="#191970" d="M718.9724,-347.3484C681.1012,-325.8823 589.7061,-274.0776 544.7914,-248.6191"/>
<polygon fill="#191970" stroke="#191970" points="546.3741,-245.4931 535.9485,-243.6068 542.9223,-251.5828 546.3741,-245.4931"/>
</g>
<!-- Node36&#45;&gt;Node23 -->
<g id="edge62" class="edge">
<title>Node36&#45;&gt;Node23</title>
<path fill="none" stroke="#191970" d="M736,-347.3762C736,-319.2097 736,-236.5126 736,-198.0713"/>
<polygon fill="#191970" stroke="#191970" points="739.5001,-197.6714 736,-187.6714 732.5001,-197.6714 739.5001,-197.6714"/>
</g>
<!-- Node36&#45;&gt;Node26 -->
<g id="edge63" class="edge">
<title>Node36&#45;&gt;Node26</title>
<path fill="none" stroke="#191970" d="M747.5698,-347.3418C780.8169,-318.4239 871.4772,-230.661 827,-168 798.9312,-128.4557 769.4125,-149.0092 724,-132 677.6548,-114.6415 624.6073,-93.1239 591.4524,-79.4744"/>
<polygon fill="#191970" stroke="#191970" points="592.41,-76.0833 581.831,-75.5042 589.7399,-82.5541 592.41,-76.0833"/>
</g>
<!-- Node38 -->
<g id="node39" class="node">
<title>Node38</title>
<g id="a_node39"><a xlink:href="SpatialForceVector_8h.html" target="_top" xlink:title="iDynTree/Core/SpatialForce\lVector.h">
<polygon fill="none" stroke="#000000" points="626,-403.5 626,-433.5 774,-433.5 774,-403.5 626,-403.5"/>
<text text-anchor="start" x="634" y="-421.5" font-family="FreeSans.ttf" font-size="10.00" fill="#000000">iDynTree/Core/SpatialForce</text>
<text text-anchor="middle" x="700" y="-410.5" font-family="FreeSans.ttf" font-size="10.00" fill="#000000">Vector.h</text>
</a>
</g>
</g>
<!-- Node37&#45;&gt;Node38 -->
<g id="edge66" class="edge">
<title>Node37&#45;&gt;Node38</title>
<path fill="none" stroke="#191970" d="M556.0703,-475.9005C581.2307,-465.8663 621.3591,-449.8627 652.8603,-437.2997"/>
<polygon fill="#191970" stroke="#191970" points="654.3415,-440.4772 662.3335,-433.5218 651.7484,-433.9752 654.3415,-440.4772"/>
</g>
<!-- Node38&#45;&gt;Node8 -->
<g id="edge67" class="edge">
<title>Node38&#45;&gt;Node8</title>
<path fill="none" stroke="#191970" d="M765.1305,-403.4204C818.0615,-386.848 884,-354.3857 884,-295.5 884,-295.5 884,-295.5 884,-234 884,-202.7875 876.9079,-194.2363 860,-168 852.8246,-156.8657 842.5,-146.3759 833.3543,-138.2331"/>
<polygon fill="#191970" stroke="#191970" points="835.6075,-135.5548 825.7293,-131.7243 831.0628,-140.8788 835.6075,-135.5548"/>
</g>
<!-- Node38&#45;&gt;Node23 -->
<g id="edge68" class="edge">
<title>Node38&#45;&gt;Node23</title>
<path fill="none" stroke="#191970" d="M677.4732,-403.4495C666.0259,-394.397 653.2434,-381.7722 647,-367 643.5395,-358.8124 644.8667,-355.6291 647,-347 661.7213,-287.4529 701.6368,-225.7223 722.6505,-196.0545"/>
<polygon fill="#191970" stroke="#191970" points="725.7428,-197.7504 728.7531,-187.5922 720.0651,-193.6559 725.7428,-197.7504"/>
</g>
<!-- Node38&#45;&gt;Node36 -->
<g id="edge69" class="edge">
<title>Node38&#45;&gt;Node36</title>
<path fill="none" stroke="#191970" d="M708.8989,-403.2977C713.7919,-394.9388 719.9026,-384.4997 725.0824,-375.6509"/>
<polygon fill="#191970" stroke="#191970" points="728.2047,-377.2452 730.2359,-366.8469 722.1635,-373.7089 728.2047,-377.2452"/>
</g>
<!-- Node39&#45;&gt;Node35 -->
<g id="edge71" class="edge">
<title>Node39&#45;&gt;Node35</title>
<path fill="none" stroke="#191970" d="M738.9212,-475.9005C761.6376,-465.9528 797.7515,-450.1382 826.3255,-437.6254"/>
<polygon fill="#191970" stroke="#191970" points="827.9403,-440.7392 835.6966,-433.5218 825.1324,-434.3271 827.9403,-440.7392"/>
</g>
<!-- Node40&#45;&gt;Node38 -->
<g id="edge73" class="edge">
<title>Node40&#45;&gt;Node38</title>
<path fill="none" stroke="#191970" d="M400.2002,-475.9798C410.0319,-473.9813 420.3558,-471.9032 430,-470 492.1254,-457.7404 562.3909,-444.353 615.6654,-434.3009"/>
<polygon fill="#191970" stroke="#191970" points="616.569,-437.6923 625.7474,-432.4001 615.272,-430.8135 616.569,-437.6923"/>
</g>
</g>
</svg>
