<?xml version="1.0" encoding="UTF-8" standalone="no"?>
<!DOCTYPE svg PUBLIC "-//W3C//DTD SVG 1.1//EN"
 "http://www.w3.org/Graphics/SVG/1.1/DTD/svg11.dtd">
<!-- Generated by graphviz version 2.40.1 (20161225.0304)
 -->
<!-- Title: SpatialInertiaRaw.cpp Pages: 1 -->
<svg width="1390pt" height="621pt"
 viewBox="0.00 0.00 1390.00 621.00" xmlns="http://www.w3.org/2000/svg" xmlns:xlink="http://www.w3.org/1999/xlink">
<g id="graph0" class="graph" transform="scale(1 1) rotate(0) translate(4 617)">
<title>SpatialInertiaRaw.cpp</title>
<!-- Node0 -->
<g id="node1" class="node">
<title>Node0</title>
<polygon fill="#bfbfbf" stroke="#000000" points="464,-593.5 464,-612.5 586,-612.5 586,-593.5 464,-593.5"/>
<text text-anchor="middle" x="525" y="-600.5" font-family="FreeSans.ttf" font-size="10.00" fill="#000000">SpatialInertiaRaw.cpp</text>
</g>
<!-- Node1 -->
<g id="node2" class="node">
<title>Node1</title>
<g id="a_node2"><a xlink:href="SpatialInertiaRaw_8h.html" target="_top" xlink:title="iDynTree/Core/SpatialInertia\lRaw.h">
<polygon fill="none" stroke="#000000" points="129.5,-526.5 129.5,-556.5 282.5,-556.5 282.5,-526.5 129.5,-526.5"/>
<text text-anchor="start" x="137.5" y="-544.5" font-family="FreeSans.ttf" font-size="10.00" fill="#000000">iDynTree/Core/SpatialInertia</text>
<text text-anchor="middle" x="206" y="-533.5" font-family="FreeSans.ttf" font-size="10.00" fill="#000000">Raw.h</text>
</a>
</g>
</g>
<!-- Node0&#45;&gt;Node1 -->
<g id="edge1" class="edge">
<title>Node0&#45;&gt;Node1</title>
<path fill="none" stroke="#191970" d="M475.5063,-593.4581C426.7866,-584.0654 351.3683,-569.5256 292.6897,-558.2129"/>
<polygon fill="#191970" stroke="#191970" points="293.1641,-554.74 282.6823,-556.2836 291.8389,-561.6134 293.1641,-554.74"/>
</g>
<!-- Node4 -->
<g id="node5" class="node">
<title>Node4</title>
<g id="a_node5"><a xlink:href="Utils_8h.html" target="_top" xlink:title="iDynTree/Core/Utils.h">
<polygon fill="none" stroke="#000000" points="779.5,-56.5 779.5,-75.5 898.5,-75.5 898.5,-56.5 779.5,-56.5"/>
<text text-anchor="middle" x="839" y="-63.5" font-family="FreeSans.ttf" font-size="10.00" fill="#000000">iDynTree/Core/Utils.h</text>
</a>
</g>
</g>
<!-- Node0&#45;&gt;Node4 -->
<g id="edge53" class="edge">
<title>Node0&#45;&gt;Node4</title>
<path fill="none" stroke="#191970" d="M586.0115,-600.4662C721.6856,-594.5161 1044.8551,-578.5124 1152,-557 1257.6894,-535.7798 1382,-587.7986 1382,-480 1382,-480 1382,-480 1382,-234 1382,-168.9151 1356.7581,-145.5721 1301,-112 1284.4604,-102.0415 1033.851,-81.2198 908.8355,-71.376"/>
<polygon fill="#191970" stroke="#191970" points="908.841,-67.8657 898.5977,-70.5723 908.2931,-74.8443 908.841,-67.8657"/>
</g>
<!-- Node6 -->
<g id="node7" class="node">
<title>Node6</title>
<polygon fill="none" stroke="#bfbfbf" points="315,-.5 315,-19.5 367,-19.5 367,-.5 315,-.5"/>
<text text-anchor="middle" x="341" y="-7.5" font-family="FreeSans.ttf" font-size="10.00" fill="#000000">cassert</text>
</g>
<!-- Node0&#45;&gt;Node6 -->
<g id="edge76" class="edge">
<title>Node0&#45;&gt;Node6</title>
<path fill="none" stroke="#191970" d="M463.9539,-600.2445C342.5687,-594.32 79.5633,-579.092 45,-557 11.6017,-535.6526 0,-519.6379 0,-480 0,-480 0,-480 0,-122 0,-58.3788 216.9615,-24.9928 304.7644,-14.0867"/>
<polygon fill="#191970" stroke="#191970" points="305.3031,-17.5471 314.8085,-12.8676 304.4596,-10.5981 305.3031,-17.5471"/>
</g>
<!-- Node9 -->
<g id="node10" class="node">
<title>Node9</title>
<polygon fill="none" stroke="#bfbfbf" points="200,-56.5 200,-75.5 260,-75.5 260,-56.5 200,-56.5"/>
<text text-anchor="middle" x="230" y="-63.5" font-family="FreeSans.ttf" font-size="10.00" fill="#000000">iostream</text>
</g>
<!-- Node0&#45;&gt;Node9 -->
<g id="edge74" class="edge">
<title>Node0&#45;&gt;Node9</title>
<path fill="none" stroke="#191970" d="M463.9956,-599.7049C350.2289,-593.1167 114.3239,-577.2019 83,-557 49.689,-535.5166 38,-519.6379 38,-480 38,-480 38,-480 38,-178 38,-108.43 133.2167,-81.3016 189.5438,-71.3398"/>
<polygon fill="#191970" stroke="#191970" points="190.2858,-74.7646 199.577,-69.6731 189.1386,-67.8592 190.2858,-74.7646"/>
</g>
<!-- Node10 -->
<g id="node11" class="node">
<title>Node10</title>
<polygon fill="none" stroke="#bfbfbf" points="292,-56.5 292,-75.5 348,-75.5 348,-56.5 292,-56.5"/>
<text text-anchor="middle" x="320" y="-63.5" font-family="FreeSans.ttf" font-size="10.00" fill="#000000">sstream</text>
</g>
<!-- Node0&#45;&gt;Node10 -->
<g id="edge75" class="edge">
<title>Node0&#45;&gt;Node10</title>
<path fill="none" stroke="#191970" d="M463.7202,-599.0905C357.5659,-591.8714 148.0724,-575.4875 120,-557 87.0818,-535.3212 76,-519.4155 76,-480 76,-480 76,-480 76,-178 76,-133.3328 212.766,-92.7703 281.511,-75.2031"/>
<polygon fill="#191970" stroke="#191970" points="282.6886,-78.5159 291.5326,-72.682 280.9808,-71.7274 282.6886,-78.5159"/>
</g>
<!-- Node11 -->
<g id="node12" class="node">
<title>Node11</title>
<g id="a_node12"><a xlink:href="SpatialForceVector_8h.html" target="_top" xlink:title="iDynTree/Core/SpatialForce\lVector.h">
<polygon fill="none" stroke="#000000" points="324,-403.5 324,-433.5 472,-433.5 472,-403.5 324,-403.5"/>
<text text-anchor="start" x="332" y="-421.5" font-family="FreeSans.ttf" font-size="10.00" fill="#000000">iDynTree/Core/SpatialForce</text>
<text text-anchor="middle" x="398" y="-410.5" font-family="FreeSans.ttf" font-size="10.00" fill="#000000">Vector.h</text>
</a>
</g>
</g>
<!-- Node0&#45;&gt;Node11 -->
<g id="edge11" class="edge">
<title>Node0&#45;&gt;Node11</title>
<path fill="none" stroke="#191970" d="M518.3507,-593.3402C498.9985,-565.2261 442.3024,-482.8605 414.1887,-442.0183"/>
<polygon fill="#191970" stroke="#191970" points="417.041,-439.989 408.4879,-433.7363 411.2749,-443.958 417.041,-439.989"/>
</g>
<!-- Node24 -->
<g id="node25" class="node">
<title>Node24</title>
<g id="a_node25"><a xlink:href="PositionRaw_8h.html" target="_top" xlink:title="iDynTree/Core/PositionRaw.h">
<polygon fill="none" stroke="#000000" points="862,-224.5 862,-243.5 1018,-243.5 1018,-224.5 862,-224.5"/>
<text text-anchor="middle" x="940" y="-231.5" font-family="FreeSans.ttf" font-size="10.00" fill="#000000">iDynTree/Core/PositionRaw.h</text>
</a>
</g>
</g>
<!-- Node0&#45;&gt;Node24 -->
<g id="edge52" class="edge">
<title>Node0&#45;&gt;Node24</title>
<path fill="none" stroke="#191970" d="M586.25,-596.6201C696.5,-583.4245 917,-548.474 917,-480 917,-480 917,-480 917,-357 917,-319.8871 927.2425,-277.532 934.0573,-253.4586"/>
<polygon fill="#191970" stroke="#191970" points="937.4433,-254.3496 936.8981,-243.7688 930.7261,-252.3802 937.4433,-254.3496"/>
</g>
<!-- Node27 -->
<g id="node28" class="node">
<title>Node27</title>
<g id="a_node28"><a xlink:href="SpatialMotionVector_8h.html" target="_top" xlink:title="iDynTree/Core/SpatialMotion\lVector.h">
<polygon fill="none" stroke="#000000" points="490.5,-403.5 490.5,-433.5 645.5,-433.5 645.5,-403.5 490.5,-403.5"/>
<text text-anchor="start" x="498.5" y="-421.5" font-family="FreeSans.ttf" font-size="10.00" fill="#000000">iDynTree/Core/SpatialMotion</text>
<text text-anchor="middle" x="568" y="-410.5" font-family="FreeSans.ttf" font-size="10.00" fill="#000000">Vector.h</text>
</a>
</g>
</g>
<!-- Node0&#45;&gt;Node27 -->
<g id="edge48" class="edge">
<title>Node0&#45;&gt;Node27</title>
<path fill="none" stroke="#191970" d="M527.2513,-593.3402C533.7213,-565.5797 552.5191,-484.924 562.155,-443.579"/>
<polygon fill="#191970" stroke="#191970" points="565.5878,-444.2698 564.449,-433.7363 558.7705,-442.6809 565.5878,-444.2698"/>
</g>
<!-- Node28 -->
<g id="node29" class="node">
<title>Node28</title>
<g id="a_node29"><a xlink:href="PrivateUtils_8h.html" target="_top" xlink:title="iDynTree/Core/PrivateUtils.h">
<polygon fill="none" stroke="#000000" points="949,-532 949,-551 1103,-551 1103,-532 949,-532"/>
<text text-anchor="middle" x="1026" y="-539" font-family="FreeSans.ttf" font-size="10.00" fill="#000000">iDynTree/Core/PrivateUtils.h</text>
</a>
</g>
</g>
<!-- Node0&#45;&gt;Node28 -->
<g id="edge54" class="edge">
<title>Node0&#45;&gt;Node28</title>
<path fill="none" stroke="#191970" d="M586.3333,-596.9946C665.9345,-588.9843 809.082,-573.8424 931,-557 940.5217,-555.6846 950.5606,-554.1778 960.4036,-552.6321"/>
<polygon fill="#191970" stroke="#191970" points="961.2356,-556.0437 970.5602,-551.0135 960.1339,-549.131 961.2356,-556.0437"/>
</g>
<!-- Node29 -->
<g id="node30" class="node">
<title>Node29</title>
<polygon fill="none" stroke="#bfbfbf" points="1226.5,-409 1226.5,-428 1303.5,-428 1303.5,-409 1226.5,-409"/>
<text text-anchor="middle" x="1265" y="-416" font-family="FreeSans.ttf" font-size="10.00" fill="#000000">Eigen/Dense</text>
</g>
<!-- Node0&#45;&gt;Node29 -->
<g id="edge73" class="edge">
<title>Node0&#45;&gt;Node29</title>
<path fill="none" stroke="#191970" d="M586.0084,-600.4506C726.5227,-594.2605 1064.5937,-577.4326 1112,-557 1174.2898,-530.1525 1228.1228,-467.272 1251.9426,-436.3334"/>
<polygon fill="#191970" stroke="#191970" points="1254.8719,-438.262 1258.0985,-428.1704 1249.283,-434.0472 1254.8719,-438.262"/>
</g>
<!-- Node2 -->
<g id="node3" class="node">
<title>Node2</title>
<g id="a_node3"><a xlink:href="RotationalInertiaRaw_8h.html" target="_top" xlink:title="iDynTree/Core/Rotational\lInertiaRaw.h">
<polygon fill="none" stroke="#000000" points="104.5,-280.5 104.5,-310.5 241.5,-310.5 241.5,-280.5 104.5,-280.5"/>
<text text-anchor="start" x="112.5" y="-298.5" font-family="FreeSans.ttf" font-size="10.00" fill="#000000">iDynTree/Core/Rotational</text>
<text text-anchor="middle" x="173" y="-287.5" font-family="FreeSans.ttf" font-size="10.00" fill="#000000">InertiaRaw.h</text>
</a>
</g>
</g>
<!-- Node1&#45;&gt;Node2 -->
<g id="edge2" class="edge">
<title>Node1&#45;&gt;Node2</title>
<path fill="none" stroke="#191970" d="M203.9854,-526.4819C198.4967,-485.5667 183.2338,-371.7883 176.3928,-320.7921"/>
<polygon fill="#191970" stroke="#191970" points="179.8288,-320.08 175.0302,-310.6341 172.8909,-321.0107 179.8288,-320.08"/>
</g>
<!-- Node3 -->
<g id="node4" class="node">
<title>Node3</title>
<g id="a_node4"><a xlink:href="MatrixFixSize_8h.html" target="_top" xlink:title="iDynTree/Core/MatrixFixSize.h">
<polygon fill="none" stroke="#000000" points="334.5,-112.5 334.5,-131.5 495.5,-131.5 495.5,-112.5 334.5,-112.5"/>
<text text-anchor="middle" x="415" y="-119.5" font-family="FreeSans.ttf" font-size="10.00" fill="#000000">iDynTree/Core/MatrixFixSize.h</text>
</a>
</g>
</g>
<!-- Node2&#45;&gt;Node3 -->
<g id="edge3" class="edge">
<title>Node2&#45;&gt;Node3</title>
<path fill="none" stroke="#191970" d="M178.4155,-280.3919C188.7984,-253.6077 214.0807,-197.8188 254,-168 276.3035,-151.3398 304.4504,-140.707 330.9477,-133.9236"/>
<polygon fill="#191970" stroke="#191970" points="332.1006,-137.2463 341.0067,-131.5077 330.4658,-130.4399 332.1006,-137.2463"/>
</g>
<!-- Node3&#45;&gt;Node4 -->
<g id="edge4" class="edge">
<title>Node3&#45;&gt;Node4</title>
<path fill="none" stroke="#191970" d="M487.4064,-112.4369C566.1795,-102.0329 691.2403,-85.5154 769.0392,-75.2401"/>
<polygon fill="#191970" stroke="#191970" points="769.7684,-78.6743 779.224,-73.8949 768.8518,-71.7345 769.7684,-78.6743"/>
</g>
<!-- Node3&#45;&gt;Node6 -->
<g id="edge6" class="edge">
<title>Node3&#45;&gt;Node6</title>
<path fill="none" stroke="#191970" d="M408.6908,-112.4509C396.3485,-93.7707 368.8318,-52.1238 352.9432,-28.0761"/>
<polygon fill="#191970" stroke="#191970" points="355.726,-25.9388 347.2932,-19.5249 349.8857,-29.7977 355.726,-25.9388"/>
</g>
<!-- Node7 -->
<g id="node8" class="node">
<title>Node7</title>
<polygon fill="none" stroke="#bfbfbf" points="437,-56.5 437,-75.5 487,-75.5 487,-56.5 437,-56.5"/>
<text text-anchor="middle" x="462" y="-63.5" font-family="FreeSans.ttf" font-size="10.00" fill="#000000">cstring</text>
</g>
<!-- Node3&#45;&gt;Node7 -->
<g id="edge7" class="edge">
<title>Node3&#45;&gt;Node7</title>
<path fill="none" stroke="#191970" d="M423.1868,-112.2455C429.8589,-104.2958 439.4479,-92.8706 447.4253,-83.3656"/>
<polygon fill="#191970" stroke="#191970" points="450.1592,-85.5525 453.907,-75.6427 444.7974,-81.0524 450.1592,-85.5525"/>
</g>
<!-- Node8 -->
<g id="node9" class="node">
<title>Node8</title>
<polygon fill="none" stroke="#bfbfbf" points="984,-56.5 984,-75.5 1028,-75.5 1028,-56.5 984,-56.5"/>
<text text-anchor="middle" x="1006" y="-63.5" font-family="FreeSans.ttf" font-size="10.00" fill="#000000">string</text>
</g>
<!-- Node3&#45;&gt;Node8 -->
<g id="edge8" class="edge">
<title>Node3&#45;&gt;Node8</title>
<path fill="none" stroke="#191970" d="M495.5214,-112.8694C498.3823,-112.5715 501.2154,-112.2808 504,-112 682.9171,-93.9595 727.9845,-93.0363 907,-76 929.3457,-73.8734 954.5124,-71.3294 973.8796,-69.3395"/>
<polygon fill="#191970" stroke="#191970" points="974.3995,-72.8045 983.9877,-68.2972 973.6814,-65.8414 974.3995,-72.8045"/>
</g>
<!-- Node3&#45;&gt;Node9 -->
<g id="edge9" class="edge">
<title>Node3&#45;&gt;Node9</title>
<path fill="none" stroke="#191970" d="M383.1974,-112.3733C351.7922,-102.8668 303.6744,-88.3015 269.7608,-78.0357"/>
<polygon fill="#191970" stroke="#191970" points="270.7478,-74.6777 260.1626,-75.1303 268.7197,-81.3775 270.7478,-74.6777"/>
</g>
<!-- Node3&#45;&gt;Node10 -->
<g id="edge10" class="edge">
<title>Node3&#45;&gt;Node10</title>
<path fill="none" stroke="#191970" d="M398.4523,-112.2455C383.7401,-103.5731 362.0112,-90.7645 345.1495,-80.825"/>
<polygon fill="#191970" stroke="#191970" points="346.7502,-77.7057 336.3581,-75.6427 343.1954,-83.736 346.7502,-77.7057"/>
</g>
<!-- Node5 -->
<g id="node6" class="node">
<title>Node5</title>
<polygon fill="none" stroke="#bfbfbf" points="895.5,-.5 895.5,-19.5 948.5,-19.5 948.5,-.5 895.5,-.5"/>
<text text-anchor="middle" x="922" y="-7.5" font-family="FreeSans.ttf" font-size="10.00" fill="#000000">cstddef</text>
</g>
<!-- Node4&#45;&gt;Node5 -->
<g id="edge5" class="edge">
<title>Node4&#45;&gt;Node5</title>
<path fill="none" stroke="#191970" d="M853.4575,-56.2455C866.0732,-47.7337 884.5944,-35.2375 899.2045,-25.3801"/>
<polygon fill="#191970" stroke="#191970" points="901.3761,-28.1371 907.7082,-19.6427 897.4609,-22.3343 901.3761,-28.1371"/>
</g>
<!-- Node12 -->
<g id="node13" class="node">
<title>Node12</title>
<g id="a_node13"><a xlink:href="VectorFixSize_8h.html" target="_top" xlink:title="iDynTree/Core/VectorFixSize.h">
<polygon fill="none" stroke="#000000" points="513.5,-112.5 513.5,-131.5 674.5,-131.5 674.5,-112.5 513.5,-112.5"/>
<text text-anchor="middle" x="594" y="-119.5" font-family="FreeSans.ttf" font-size="10.00" fill="#000000">iDynTree/Core/VectorFixSize.h</text>
</a>
</g>
</g>
<!-- Node11&#45;&gt;Node12 -->
<g id="edge12" class="edge">
<title>Node11&#45;&gt;Node12</title>
<path fill="none" stroke="#191970" d="M382.726,-403.3254C374.243,-393.7875 364.5143,-380.7214 360,-367 341.3263,-310.241 199.9963,-363.3034 363,-168 372.8553,-156.1919 450.912,-142.375 513.6023,-132.9889"/>
<polygon fill="#191970" stroke="#191970" points="514.1391,-136.4477 523.519,-131.5215 513.1144,-129.5231 514.1391,-136.4477"/>
</g>
<!-- Node21 -->
<g id="node22" class="node">
<title>Node21</title>
<g id="a_node22"><a xlink:href="GeomVector3_8h.html" target="_top" xlink:title="iDynTree/Core/GeomVector3.h">
<polygon fill="none" stroke="#000000" points="372.5,-168.5 372.5,-187.5 535.5,-187.5 535.5,-168.5 372.5,-168.5"/>
<text text-anchor="middle" x="454" y="-175.5" font-family="FreeSans.ttf" font-size="10.00" fill="#000000">iDynTree/Core/GeomVector3.h</text>
</a>
</g>
</g>
<!-- Node11&#45;&gt;Node21 -->
<g id="edge28" class="edge">
<title>Node11&#45;&gt;Node21</title>
<path fill="none" stroke="#191970" d="M385.0465,-403.4249C377.5907,-393.7239 368.9401,-380.452 365,-367 362.5014,-358.4695 362.8667,-355.6291 365,-347 379.7213,-287.4529 419.6368,-225.7223 440.6505,-196.0545"/>
<polygon fill="#191970" stroke="#191970" points="443.7428,-197.7504 446.7531,-187.5922 438.0651,-193.6559 443.7428,-197.7504"/>
</g>
<!-- Node22 -->
<g id="node23" class="node">
<title>Node22</title>
<g id="a_node23"><a xlink:href="SpatialVector_8h.html" target="_top" xlink:title="iDynTree/Core/SpatialVector.h">
<polygon fill="none" stroke="#000000" points="374.5,-347.5 374.5,-366.5 535.5,-366.5 535.5,-347.5 374.5,-347.5"/>
<text text-anchor="middle" x="455" y="-354.5" font-family="FreeSans.ttf" font-size="10.00" fill="#000000">iDynTree/Core/SpatialVector.h</text>
</a>
</g>
</g>
<!-- Node11&#45;&gt;Node22 -->
<g id="edge30" class="edge">
<title>Node11&#45;&gt;Node22</title>
<path fill="none" stroke="#191970" d="M412.0899,-403.2977C420.2493,-394.4941 430.5472,-383.3833 439.0095,-374.2529"/>
<polygon fill="#191970" stroke="#191970" points="441.6429,-376.5604 445.8736,-366.8469 436.5089,-371.8021 441.6429,-376.5604"/>
</g>
<!-- Node12&#45;&gt;Node4 -->
<g id="edge13" class="edge">
<title>Node12&#45;&gt;Node4</title>
<path fill="none" stroke="#191970" d="M635.8386,-112.4369C677.7685,-102.8529 742.3948,-88.0812 787.4624,-77.78"/>
<polygon fill="#191970" stroke="#191970" points="788.3653,-81.164 797.3339,-75.5237 786.8054,-74.34 788.3653,-81.164"/>
</g>
<!-- Node12&#45;&gt;Node6 -->
<g id="edge26" class="edge">
<title>Node12&#45;&gt;Node6</title>
<path fill="none" stroke="#191970" d="M582.3414,-112.4019C564.6665,-98.2708 529.582,-71.8342 496,-56 490.4795,-53.397 420.8961,-33.0928 376.8593,-20.3448"/>
<polygon fill="#191970" stroke="#191970" points="377.6547,-16.9315 367.0759,-17.5153 375.7098,-23.6559 377.6547,-16.9315"/>
</g>
<!-- Node12&#45;&gt;Node7 -->
<g id="edge27" class="edge">
<title>Node12&#45;&gt;Node7</title>
<path fill="none" stroke="#191970" d="M571.3084,-112.3733C549.9289,-103.3032 517.6943,-89.6279 493.7638,-79.4755"/>
<polygon fill="#191970" stroke="#191970" points="494.9683,-76.1846 484.3955,-75.5011 492.2344,-82.6287 494.9683,-76.1846"/>
</g>
<!-- Node12&#45;&gt;Node8 -->
<g id="edge24" class="edge">
<title>Node12&#45;&gt;Node8</title>
<path fill="none" stroke="#191970" d="M664.3572,-112.4369C754.4885,-100.186 906.9835,-79.4586 973.4283,-70.4272"/>
<polygon fill="#191970" stroke="#191970" points="974.2621,-73.8462 983.6996,-69.0311 973.3193,-66.9099 974.2621,-73.8462"/>
</g>
<!-- Node12&#45;&gt;Node10 -->
<g id="edge25" class="edge">
<title>Node12&#45;&gt;Node10</title>
<path fill="none" stroke="#191970" d="M547.209,-112.4369C493.8404,-101.5294 407.5941,-83.9024 358.1329,-73.7936"/>
<polygon fill="#191970" stroke="#191970" points="358.6602,-70.3291 348.1619,-71.7557 357.2585,-77.1873 358.6602,-70.3291"/>
</g>
<!-- Node13 -->
<g id="node14" class="node">
<title>Node13</title>
<g id="a_node14"><a xlink:href="Span_8h.html" target="_top" xlink:title="iDynTree/Core/Span.h">
<polygon fill="none" stroke="#000000" points="557.5,-56.5 557.5,-75.5 678.5,-75.5 678.5,-56.5 557.5,-56.5"/>
<text text-anchor="middle" x="618" y="-63.5" font-family="FreeSans.ttf" font-size="10.00" fill="#000000">iDynTree/Core/Span.h</text>
</a>
</g>
</g>
<!-- Node12&#45;&gt;Node13 -->
<g id="edge14" class="edge">
<title>Node12&#45;&gt;Node13</title>
<path fill="none" stroke="#191970" d="M598.1805,-112.2455C601.381,-104.7776 605.896,-94.2427 609.8084,-85.1137"/>
<polygon fill="#191970" stroke="#191970" points="613.1452,-86.2129 613.8674,-75.6427 606.7112,-83.4554 613.1452,-86.2129"/>
</g>
<!-- Node13&#45;&gt;Node5 -->
<g id="edge18" class="edge">
<title>Node13&#45;&gt;Node5</title>
<path fill="none" stroke="#191970" d="M678.7461,-57.3635C731.0527,-49.5202 808.715,-36.9086 885.4947,-19.931"/>
<polygon fill="#191970" stroke="#191970" points="886.3447,-23.3274 895.3394,-17.7287 884.8165,-16.4963 886.3447,-23.3274"/>
</g>
<!-- Node13&#45;&gt;Node6 -->
<g id="edge15" class="edge">
<title>Node13&#45;&gt;Node6</title>
<path fill="none" stroke="#191970" d="M559.9907,-56.492C513.0785,-48.4577 445.1474,-36.0476 377.3115,-20.161"/>
<polygon fill="#191970" stroke="#191970" points="377.8435,-16.6903 367.3061,-17.792 376.2306,-23.502 377.8435,-16.6903"/>
</g>
<!-- Node14 -->
<g id="node15" class="node">
<title>Node14</title>
<polygon fill="none" stroke="#bfbfbf" points="449,-.5 449,-19.5 513,-19.5 513,-.5 449,-.5"/>
<text text-anchor="middle" x="481" y="-7.5" font-family="FreeSans.ttf" font-size="10.00" fill="#000000">algorithm</text>
</g>
<!-- Node13&#45;&gt;Node14 -->
<g id="edge16" class="edge">
<title>Node13&#45;&gt;Node14</title>
<path fill="none" stroke="#191970" d="M594.4489,-56.3733C572.1609,-47.2629 538.5063,-33.5062 513.6363,-23.3404"/>
<polygon fill="#191970" stroke="#191970" points="514.8247,-20.0451 504.2438,-19.5011 512.1761,-26.5247 514.8247,-20.0451"/>
</g>
<!-- Node15 -->
<g id="node16" class="node">
<title>Node15</title>
<polygon fill="none" stroke="#bfbfbf" points="531,-.5 531,-19.5 573,-19.5 573,-.5 531,-.5"/>
<text text-anchor="middle" x="552" y="-7.5" font-family="FreeSans.ttf" font-size="10.00" fill="#000000">array</text>
</g>
<!-- Node13&#45;&gt;Node15 -->
<g id="edge17" class="edge">
<title>Node13&#45;&gt;Node15</title>
<path fill="none" stroke="#191970" d="M606.5037,-56.2455C596.7558,-47.9746 582.5741,-35.9416 571.1202,-26.2232"/>
<polygon fill="#191970" stroke="#191970" points="573.2541,-23.4437 563.3646,-19.6427 568.7253,-28.7813 573.2541,-23.4437"/>
</g>
<!-- Node16 -->
<g id="node17" class="node">
<title>Node16</title>
<polygon fill="none" stroke="#bfbfbf" points="591.5,-.5 591.5,-19.5 644.5,-19.5 644.5,-.5 591.5,-.5"/>
<text text-anchor="middle" x="618" y="-7.5" font-family="FreeSans.ttf" font-size="10.00" fill="#000000">iterator</text>
</g>
<!-- Node13&#45;&gt;Node16 -->
<g id="edge19" class="edge">
<title>Node13&#45;&gt;Node16</title>
<path fill="none" stroke="#191970" d="M618,-56.2455C618,-48.9382 618,-38.6944 618,-29.7046"/>
<polygon fill="#191970" stroke="#191970" points="621.5001,-29.6426 618,-19.6427 614.5001,-29.6427 621.5001,-29.6426"/>
</g>
<!-- Node17 -->
<g id="node18" class="node">
<title>Node17</title>
<polygon fill="none" stroke="#bfbfbf" points="663,-.5 663,-19.5 707,-19.5 707,-.5 663,-.5"/>
<text text-anchor="middle" x="685" y="-7.5" font-family="FreeSans.ttf" font-size="10.00" fill="#000000">limits</text>
</g>
<!-- Node13&#45;&gt;Node17 -->
<g id="edge20" class="edge">
<title>Node13&#45;&gt;Node17</title>
<path fill="none" stroke="#191970" d="M629.6705,-56.2455C639.5661,-47.9746 653.9627,-35.9416 665.5901,-26.2232"/>
<polygon fill="#191970" stroke="#191970" points="668.035,-28.7413 673.4632,-19.6427 663.5458,-23.3703 668.035,-28.7413"/>
</g>
<!-- Node18 -->
<g id="node19" class="node">
<title>Node18</title>
<polygon fill="none" stroke="#bfbfbf" points="725.5,-.5 725.5,-19.5 790.5,-19.5 790.5,-.5 725.5,-.5"/>
<text text-anchor="middle" x="758" y="-7.5" font-family="FreeSans.ttf" font-size="10.00" fill="#000000">stdexcept</text>
</g>
<!-- Node13&#45;&gt;Node18 -->
<g id="edge21" class="edge">
<title>Node13&#45;&gt;Node18</title>
<path fill="none" stroke="#191970" d="M642.0669,-56.3733C664.8428,-47.2629 699.2344,-33.5062 724.649,-23.3404"/>
<polygon fill="#191970" stroke="#191970" points="726.2623,-26.4648 734.2472,-19.5011 723.6625,-19.9654 726.2623,-26.4648"/>
</g>
<!-- Node19 -->
<g id="node20" class="node">
<title>Node19</title>
<polygon fill="none" stroke="#bfbfbf" points="808.5,-.5 808.5,-19.5 877.5,-19.5 877.5,-.5 808.5,-.5"/>
<text text-anchor="middle" x="843" y="-7.5" font-family="FreeSans.ttf" font-size="10.00" fill="#000000">type_traits</text>
</g>
<!-- Node13&#45;&gt;Node19 -->
<g id="edge22" class="edge">
<title>Node13&#45;&gt;Node19</title>
<path fill="none" stroke="#191970" d="M656.4232,-56.4369C695.8471,-46.6247 757.119,-31.3748 798.5948,-21.052"/>
<polygon fill="#191970" stroke="#191970" points="799.5685,-24.4165 808.4271,-18.6048 797.8778,-17.6237 799.5685,-24.4165"/>
</g>
<!-- Node20 -->
<g id="node21" class="node">
<title>Node20</title>
<polygon fill="none" stroke="#bfbfbf" points="385.5,-.5 385.5,-19.5 430.5,-19.5 430.5,-.5 385.5,-.5"/>
<text text-anchor="middle" x="408" y="-7.5" font-family="FreeSans.ttf" font-size="10.00" fill="#000000">utility</text>
</g>
<!-- Node13&#45;&gt;Node20 -->
<g id="edge23" class="edge">
<title>Node13&#45;&gt;Node20</title>
<path fill="none" stroke="#191970" d="M578.6078,-56.4203C544.4856,-47.9882 493.5933,-35.0926 440.3049,-19.9867"/>
<polygon fill="#191970" stroke="#191970" points="441.2601,-16.6196 430.6836,-17.2424 439.34,-23.3511 441.2601,-16.6196"/>
</g>
<!-- Node21&#45;&gt;Node12 -->
<g id="edge29" class="edge">
<title>Node21&#45;&gt;Node12</title>
<path fill="none" stroke="#191970" d="M478.0669,-168.3733C500.8428,-159.2629 535.2344,-145.5062 560.649,-135.3404"/>
<polygon fill="#191970" stroke="#191970" points="562.2623,-138.4648 570.2472,-131.5011 559.6625,-131.9654 562.2623,-138.4648"/>
</g>
<!-- Node22&#45;&gt;Node4 -->
<g id="edge44" class="edge">
<title>Node22&#45;&gt;Node4</title>
<path fill="none" stroke="#191970" d="M466.9545,-347.3876C501.9573,-319.3025 607.406,-235.122 697,-168 738.8675,-136.6337 788.7223,-101.2703 816.8336,-81.5083"/>
<polygon fill="#191970" stroke="#191970" points="818.9845,-84.2748 825.159,-75.6651 814.9631,-78.5452 818.9845,-84.2748"/>
</g>
<!-- Node22&#45;&gt;Node9 -->
<g id="edge46" class="edge">
<title>Node22&#45;&gt;Node9</title>
<path fill="none" stroke="#191970" d="M447.5138,-347.3179C415.0822,-305.373 286.4321,-138.9855 243.8026,-83.8514"/>
<polygon fill="#191970" stroke="#191970" points="246.4,-81.4886 237.5143,-75.7185 240.8622,-85.7704 246.4,-81.4886"/>
</g>
<!-- Node22&#45;&gt;Node10 -->
<g id="edge47" class="edge">
<title>Node22&#45;&gt;Node10</title>
<path fill="none" stroke="#191970" d="M452.2193,-347.3789C445.3662,-324.6199 426.1527,-266.2199 398,-224 385.6198,-205.4337 377.0968,-205.299 363,-188 343.9994,-164.6833 334.9145,-160.3971 325,-132 319.7918,-117.0827 318.7359,-99.1497 318.8744,-85.744"/>
<polygon fill="#191970" stroke="#191970" points="322.3735,-85.8241 319.2066,-75.7136 315.3774,-85.5922 322.3735,-85.8241"/>
</g>
<!-- Node22&#45;&gt;Node21 -->
<g id="edge45" class="edge">
<title>Node22&#45;&gt;Node21</title>
<path fill="none" stroke="#191970" d="M454.9462,-347.3762C454.7889,-319.2097 454.3269,-236.5126 454.1121,-198.0713"/>
<polygon fill="#191970" stroke="#191970" points="457.6099,-197.6517 454.054,-187.6714 450.61,-197.6908 457.6099,-197.6517"/>
</g>
<!-- Node23 -->
<g id="node24" class="node">
<title>Node23</title>
<g id="a_node24"><a xlink:href="Position_8h.html" target="_top" xlink:title="Position.h">
<polygon fill="none" stroke="#000000" points="803.5,-286 803.5,-305 868.5,-305 868.5,-286 803.5,-286"/>
<text text-anchor="middle" x="836" y="-293" font-family="FreeSans.ttf" font-size="10.00" fill="#000000">Position.h</text>
</a>
</g>
</g>
<!-- Node22&#45;&gt;Node23 -->
<g id="edge31" class="edge">
<title>Node22&#45;&gt;Node23</title>
<path fill="none" stroke="#191970" d="M514.1132,-347.4581C591.4501,-334.9746 725.1142,-313.3989 793.3047,-302.3918"/>
<polygon fill="#191970" stroke="#191970" points="793.9577,-305.8317 803.2722,-300.7828 792.8422,-298.9212 793.9577,-305.8317"/>
</g>
<!-- Node25 -->
<g id="node26" class="node">
<title>Node25</title>
<g id="a_node26"><a xlink:href="Rotation_8h.html" target="_top" xlink:title="iDynTree/Core/Rotation.h">
<polygon fill="none" stroke="#000000" points="706.5,-224.5 706.5,-243.5 843.5,-243.5 843.5,-224.5 706.5,-224.5"/>
<text text-anchor="middle" x="775" y="-231.5" font-family="FreeSans.ttf" font-size="10.00" fill="#000000">iDynTree/Core/Rotation.h</text>
</a>
</g>
</g>
<!-- Node22&#45;&gt;Node25 -->
<g id="edge43" class="edge">
<title>Node22&#45;&gt;Node25</title>
<path fill="none" stroke="#191970" d="M479.8436,-347.4507C536.5521,-325.6534 675.6281,-272.1961 740.5593,-247.2381"/>
<polygon fill="#191970" stroke="#191970" points="741.8732,-250.4828 749.9516,-243.628 739.3616,-243.9489 741.8732,-250.4828"/>
</g>
<!-- Node23&#45;&gt;Node8 -->
<g id="edge42" class="edge">
<title>Node23&#45;&gt;Node8</title>
<path fill="none" stroke="#191970" d="M868.6693,-291.4667C918.0107,-284.6287 1007.8372,-269.0141 1027,-244 1063.3412,-196.5621 1033.3406,-120.1271 1016.0821,-84.8962"/>
<polygon fill="#191970" stroke="#191970" points="1019.0748,-83.0598 1011.4198,-75.7351 1012.8362,-86.2348 1019.0748,-83.0598"/>
</g>
<!-- Node23&#45;&gt;Node24 -->
<g id="edge32" class="edge">
<title>Node23&#45;&gt;Node24</title>
<path fill="none" stroke="#191970" d="M852.25,-285.8906C869.1169,-275.9165 895.7099,-260.1908 915.2035,-248.6633"/>
<polygon fill="#191970" stroke="#191970" points="917.038,-251.6447 923.8641,-243.5419 913.4749,-245.6194 917.038,-251.6447"/>
</g>
<!-- Node23&#45;&gt;Node25 -->
<g id="edge35" class="edge">
<title>Node23&#45;&gt;Node25</title>
<path fill="none" stroke="#191970" d="M826.4688,-285.8906C817.2121,-276.5581 802.961,-262.1902 791.7997,-250.9374"/>
<polygon fill="#191970" stroke="#191970" points="794.1928,-248.38 784.6656,-243.7449 789.2228,-253.3095 794.1928,-248.38"/>
</g>
<!-- Node24&#45;&gt;Node8 -->
<g id="edge34" class="edge">
<title>Node24&#45;&gt;Node8</title>
<path fill="none" stroke="#191970" d="M943.7375,-224.4862C954.2609,-197.6994 984.2921,-121.2565 998.4458,-85.2289"/>
<polygon fill="#191970" stroke="#191970" points="1001.7401,-86.4152 1002.139,-75.8279 995.2248,-83.8556 1001.7401,-86.4152"/>
</g>
<!-- Node24&#45;&gt;Node12 -->
<g id="edge33" class="edge">
<title>Node24&#45;&gt;Node12</title>
<path fill="none" stroke="#191970" d="M935.7486,-224.4926C928.6042,-209.7237 912.7095,-181.5609 890,-168 856.2039,-147.8188 758.8751,-135.4203 684.9683,-128.6569"/>
<polygon fill="#191970" stroke="#191970" points="684.9761,-125.1437 674.7042,-127.7397 684.353,-132.116 684.9761,-125.1437"/>
</g>
<!-- Node25&#45;&gt;Node8 -->
<g id="edge36" class="edge">
<title>Node25&#45;&gt;Node8</title>
<path fill="none" stroke="#191970" d="M809.6009,-224.4643C833.479,-216.8876 865.2563,-204.7671 890,-188 933.7189,-158.3747 973.5132,-109.7891 993.1419,-83.7688"/>
<polygon fill="#191970" stroke="#191970" points="996.0731,-85.6918 999.2172,-75.5742 990.4499,-81.5229 996.0731,-85.6918"/>
</g>
<!-- Node25&#45;&gt;Node12 -->
<g id="edge41" class="edge">
<title>Node25&#45;&gt;Node12</title>
<path fill="none" stroke="#191970" d="M812.3068,-224.4927C848.4257,-213.522 894.7668,-193.6495 873,-168 860.7263,-153.537 761.573,-139.7703 684.9216,-131.1312"/>
<polygon fill="#191970" stroke="#191970" points="685.0687,-127.6261 674.7431,-129.999 684.2948,-134.5832 685.0687,-127.6261"/>
</g>
<!-- Node25&#45;&gt;Node21 -->
<g id="edge37" class="edge">
<title>Node25&#45;&gt;Node21</title>
<path fill="none" stroke="#191970" d="M720.1829,-224.4369C664.3229,-214.6918 577.7179,-199.5832 518.5695,-189.2645"/>
<polygon fill="#191970" stroke="#191970" points="519.0438,-185.7944 508.591,-187.5237 517.8407,-192.6903 519.0438,-185.7944"/>
</g>
<!-- Node26 -->
<g id="node27" class="node">
<title>Node26</title>
<g id="a_node27"><a xlink:href="RotationRaw_8h.html" target="_top" xlink:title="iDynTree/Core/RotationRaw.h">
<polygon fill="none" stroke="#000000" points="706,-168.5 706,-187.5 864,-187.5 864,-168.5 706,-168.5"/>
<text text-anchor="middle" x="785" y="-175.5" font-family="FreeSans.ttf" font-size="10.00" fill="#000000">iDynTree/Core/RotationRaw.h</text>
</a>
</g>
</g>
<!-- Node25&#45;&gt;Node26 -->
<g id="edge38" class="edge">
<title>Node25&#45;&gt;Node26</title>
<path fill="none" stroke="#191970" d="M776.7419,-224.2455C778.0467,-216.9382 779.876,-206.6944 781.4813,-197.7046"/>
<polygon fill="#191970" stroke="#191970" points="784.9656,-198.1022 783.2781,-187.6427 778.0746,-196.8717 784.9656,-198.1022"/>
</g>
<!-- Node26&#45;&gt;Node3 -->
<g id="edge39" class="edge">
<title>Node26&#45;&gt;Node3</title>
<path fill="none" stroke="#191970" d="M721.8151,-168.4369C657.0292,-158.6314 556.3644,-143.3957 488.1618,-133.0731"/>
<polygon fill="#191970" stroke="#191970" points="488.3354,-129.5596 477.9243,-131.5237 487.2879,-136.4808 488.3354,-129.5596"/>
</g>
<!-- Node26&#45;&gt;Node8 -->
<g id="edge40" class="edge">
<title>Node26&#45;&gt;Node8</title>
<path fill="none" stroke="#191970" d="M803.8423,-168.4509C842.8228,-148.6961 932.4849,-103.2565 978.1604,-80.1088"/>
<polygon fill="#191970" stroke="#191970" points="979.8676,-83.1674 987.2054,-75.5249 976.7032,-76.9235 979.8676,-83.1674"/>
</g>
<!-- Node27&#45;&gt;Node12 -->
<g id="edge49" class="edge">
<title>Node27&#45;&gt;Node12</title>
<path fill="none" stroke="#191970" d="M575.0448,-403.3399C585.0036,-380.4833 602,-335.6005 602,-295.5 602,-295.5 602,-295.5 602,-234 602,-201.6293 598.634,-164.1294 596.2687,-141.7743"/>
<polygon fill="#191970" stroke="#191970" points="599.719,-141.1291 595.1462,-131.5719 592.761,-141.8948 599.719,-141.1291"/>
</g>
<!-- Node27&#45;&gt;Node21 -->
<g id="edge50" class="edge">
<title>Node27&#45;&gt;Node21</title>
<path fill="none" stroke="#191970" d="M563.7386,-403.442C559.4063,-388.7839 552.1819,-366.0016 544,-347 519.563,-290.2475 483.1631,-226.81 465.0568,-196.317"/>
<polygon fill="#191970" stroke="#191970" points="467.9952,-194.4111 459.8593,-187.6245 461.9873,-198.0035 467.9952,-194.4111"/>
</g>
<!-- Node27&#45;&gt;Node22 -->
<g id="edge51" class="edge">
<title>Node27&#45;&gt;Node22</title>
<path fill="none" stroke="#191970" d="M540.3571,-403.4554C522.4951,-393.734 499.3732,-381.15 481.7005,-371.5317"/>
<polygon fill="#191970" stroke="#191970" points="482.9675,-368.2365 472.511,-366.5303 479.6213,-374.3849 482.9675,-368.2365"/>
</g>
<!-- Node28&#45;&gt;Node29 -->
<g id="edge55" class="edge">
<title>Node28&#45;&gt;Node29</title>
<path fill="none" stroke="#191970" d="M1044.7539,-531.8484C1086.639,-510.2925 1187.9689,-458.1436 1237.2121,-432.8009"/>
<polygon fill="#191970" stroke="#191970" points="1239.0432,-435.7949 1246.3332,-428.1068 1235.84,-429.5708 1239.0432,-435.7949"/>
</g>
<!-- Node30 -->
<g id="node31" class="node">
<title>Node30</title>
<g id="a_node31"><a xlink:href="EigenHelpers_8h.html" target="_top" xlink:title="iDynTree/Core/EigenHelpers.h">
<polygon fill="none" stroke="#000000" points="945.5,-470.5 945.5,-489.5 1106.5,-489.5 1106.5,-470.5 945.5,-470.5"/>
<text text-anchor="middle" x="1026" y="-477.5" font-family="FreeSans.ttf" font-size="10.00" fill="#000000">iDynTree/Core/EigenHelpers.h</text>
</a>
</g>
</g>
<!-- Node28&#45;&gt;Node30 -->
<g id="edge56" class="edge">
<title>Node28&#45;&gt;Node30</title>
<path fill="none" stroke="#191970" d="M1026,-531.8906C1026,-523.3657 1026,-510.6392 1026,-499.9235"/>
<polygon fill="#191970" stroke="#191970" points="1029.5001,-499.7448 1026,-489.7449 1022.5001,-499.7449 1029.5001,-499.7448"/>
</g>
<!-- Node30&#45;&gt;Node3 -->
<g id="edge64" class="edge">
<title>Node30&#45;&gt;Node3</title>
<path fill="none" stroke="#191970" d="M945.2924,-477.3079C764.1018,-470.9229 338.8996,-453.8968 315,-434 243.1722,-374.2021 259.2802,-306.068 304,-224 319.0147,-196.4455 324.1548,-189.5125 347,-168 359.6464,-156.0913 375.6635,-145.0958 388.9757,-136.8429"/>
<polygon fill="#191970" stroke="#191970" points="390.9295,-139.7519 397.685,-131.5901 387.3142,-133.7577 390.9295,-139.7519"/>
</g>
<!-- Node30&#45;&gt;Node4 -->
<g id="edge72" class="edge">
<title>Node30&#45;&gt;Node4</title>
<path fill="none" stroke="#191970" d="M1051.7857,-470.4838C1069.9851,-462.7831 1094.0492,-450.5048 1111,-434 1140.1369,-405.6298 1312.2411,-142.1952 1285,-112 1278.7635,-105.0871 1032.6194,-82.8041 908.7336,-71.9934"/>
<polygon fill="#191970" stroke="#191970" points="908.8493,-68.4904 898.5833,-71.1095 908.2419,-75.464 908.8493,-68.4904"/>
</g>
<!-- Node30&#45;&gt;Node11 -->
<g id="edge66" class="edge">
<title>Node30&#45;&gt;Node11</title>
<path fill="none" stroke="#191970" d="M945.3856,-475.7333C840.8576,-469.6327 652.7294,-456.7216 482.3144,-434.0932"/>
<polygon fill="#191970" stroke="#191970" points="482.5288,-430.5907 472.1521,-432.7293 481.5976,-437.5285 482.5288,-430.5907"/>
</g>
<!-- Node30&#45;&gt;Node12 -->
<g id="edge61" class="edge">
<title>Node30&#45;&gt;Node12</title>
<path fill="none" stroke="#191970" d="M960.1347,-470.4758C859.2459,-454.0105 678,-416.1934 678,-357 678,-357 678,-357 678,-234 678,-192.9075 641.3635,-157.2426 616.4811,-137.7588"/>
<polygon fill="#191970" stroke="#191970" points="618.3431,-134.7795 608.2495,-131.5596 614.1321,-140.3713 618.3431,-134.7795"/>
</g>
<!-- Node30&#45;&gt;Node27 -->
<g id="edge65" class="edge">
<title>Node30&#45;&gt;Node27</title>
<path fill="none" stroke="#191970" d="M945.3792,-470.5442C871.949,-461.7443 760.5639,-447.9268 664,-434 661.1803,-433.5933 658.3151,-433.1729 655.4228,-432.7423"/>
<polygon fill="#191970" stroke="#191970" points="655.9216,-429.2781 645.5109,-431.2445 654.8756,-436.1995 655.9216,-429.2781"/>
</g>
<!-- Node30&#45;&gt;Node29 -->
<g id="edge57" class="edge">
<title>Node30&#45;&gt;Node29</title>
<path fill="none" stroke="#191970" d="M1066.7648,-470.4401C1104.5338,-461.4592 1162.2194,-447.4285 1212,-434 1215.6387,-433.0184 1219.4098,-431.9728 1223.1867,-430.906"/>
<polygon fill="#191970" stroke="#191970" points="1224.4623,-434.1813 1233.1111,-428.0617 1222.5338,-427.4522 1224.4623,-434.1813"/>
</g>
<!-- Node31 -->
<g id="node32" class="node">
<title>Node31</title>
<g id="a_node32"><a xlink:href="VectorDynSize_8h.html" target="_top" xlink:title="iDynTree/Core/VectorDynSize.h">
<polygon fill="none" stroke="#000000" points="1109.5,-112.5 1109.5,-131.5 1276.5,-131.5 1276.5,-112.5 1109.5,-112.5"/>
<text text-anchor="middle" x="1193" y="-119.5" font-family="FreeSans.ttf" font-size="10.00" fill="#000000">iDynTree/Core/VectorDynSize.h</text>
</a>
</g>
</g>
<!-- Node30&#45;&gt;Node31 -->
<g id="edge58" class="edge">
<title>Node30&#45;&gt;Node31</title>
<path fill="none" stroke="#191970" d="M1041.4241,-470.2445C1068.561,-451.7422 1122,-408.7387 1122,-357 1122,-357 1122,-357 1122,-234 1122,-195.2128 1152.7509,-158.9698 1173.7776,-138.7214"/>
<polygon fill="#191970" stroke="#191970" points="1176.3204,-141.1368 1181.2758,-131.7722 1171.5622,-136.0026 1176.3204,-141.1368"/>
</g>
<!-- Node32 -->
<g id="node33" class="node">
<title>Node32</title>
<g id="a_node33"><a xlink:href="MatrixDynSize_8h.html" target="_top" xlink:title="iDynTree/Core/MatrixDynSize.h">
<polygon fill="none" stroke="#000000" points="1187.5,-347.5 1187.5,-366.5 1354.5,-366.5 1354.5,-347.5 1187.5,-347.5"/>
<text text-anchor="middle" x="1271" y="-354.5" font-family="FreeSans.ttf" font-size="10.00" fill="#000000">iDynTree/Core/MatrixDynSize.h</text>
</a>
</g>
</g>
<!-- Node30&#45;&gt;Node32 -->
<g id="edge62" class="edge">
<title>Node30&#45;&gt;Node32</title>
<path fill="none" stroke="#191970" d="M1071.7447,-470.4237C1101.899,-463.0113 1141.6464,-451.0974 1174,-434 1190.4228,-425.3213 1228.8633,-393.282 1252.1198,-373.369"/>
<polygon fill="#191970" stroke="#191970" points="1254.6347,-375.8224 1259.932,-366.6469 1250.069,-370.5162 1254.6347,-375.8224"/>
</g>
<!-- Node33 -->
<g id="node34" class="node">
<title>Node33</title>
<g id="a_node34"><a xlink:href="Transform_8h.html" target="_top" xlink:title="iDynTree/Core/Transform.h">
<polygon fill="none" stroke="#000000" points="743,-347.5 743,-366.5 889,-366.5 889,-347.5 743,-347.5"/>
<text text-anchor="middle" x="816" y="-354.5" font-family="FreeSans.ttf" font-size="10.00" fill="#000000">iDynTree/Core/Transform.h</text>
</a>
</g>
</g>
<!-- Node30&#45;&gt;Node33 -->
<g id="edge67" class="edge">
<title>Node30&#45;&gt;Node33</title>
<path fill="none" stroke="#191970" d="M1009.5217,-470.3484C972.9488,-448.9272 884.7951,-397.2943 841.2328,-371.7792"/>
<polygon fill="#191970" stroke="#191970" points="842.7996,-368.6408 832.4018,-366.6068 839.2617,-374.6809 842.7996,-368.6408"/>
</g>
<!-- Node31&#45;&gt;Node8 -->
<g id="edge60" class="edge">
<title>Node31&#45;&gt;Node8</title>
<path fill="none" stroke="#191970" d="M1160.8536,-112.3733C1126.5007,-102.0858 1072.3645,-85.8739 1038.0491,-75.5976"/>
<polygon fill="#191970" stroke="#191970" points="1038.6634,-72.1281 1028.0797,-72.6121 1036.6552,-78.8338 1038.6634,-72.1281"/>
</g>
<!-- Node31&#45;&gt;Node13 -->
<g id="edge59" class="edge">
<title>Node31&#45;&gt;Node13</title>
<path fill="none" stroke="#191970" d="M1109.3901,-113.8571C995.9355,-102.8076 795.2044,-83.2582 688.8006,-72.8954"/>
<polygon fill="#191970" stroke="#191970" points="689.0962,-69.4077 678.804,-71.9218 688.4176,-76.3747 689.0962,-69.4077"/>
</g>
<!-- Node32&#45;&gt;Node8 -->
<g id="edge63" class="edge">
<title>Node32&#45;&gt;Node8</title>
<path fill="none" stroke="#191970" d="M1277.8779,-347.1318C1302.2353,-310.8803 1379.7018,-183.4658 1318,-112 1299.8453,-90.9724 1114.3796,-74.374 1038.2982,-68.3981"/>
<polygon fill="#191970" stroke="#191970" points="1038.5577,-64.9079 1028.3175,-67.6261 1038.0178,-71.887 1038.5577,-64.9079"/>
</g>
<!-- Node33&#45;&gt;Node3 -->
<g id="edge70" class="edge">
<title>Node33&#45;&gt;Node3</title>
<path fill="none" stroke="#191970" d="M804.5215,-347.323C768.3475,-317.2147 652.6719,-223.8729 544,-168 516.9316,-154.0829 484.6793,-142.5824 459.1952,-134.5614"/>
<polygon fill="#191970" stroke="#191970" points="460.0197,-131.1531 449.4325,-131.5536 457.9587,-137.8428 460.0197,-131.1531"/>
</g>
<!-- Node33&#45;&gt;Node8 -->
<g id="edge71" class="edge">
<title>Node33&#45;&gt;Node8</title>
<path fill="none" stroke="#191970" d="M861.981,-347.4517C915.0933,-333.919 1001.0444,-303.8406 1047,-244 1082.7338,-197.4697 1072.2253,-164.4806 1046,-112 1040.6779,-101.3497 1032.3087,-91.1765 1024.5982,-83.1179"/>
<polygon fill="#191970" stroke="#191970" points="1026.8095,-80.3816 1017.2447,-75.8248 1021.8802,-85.3517 1026.8095,-80.3816"/>
</g>
<!-- Node33&#45;&gt;Node23 -->
<g id="edge68" class="edge">
<title>Node33&#45;&gt;Node23</title>
<path fill="none" stroke="#191970" d="M819.125,-347.3906C821.9265,-338.776 826.1233,-325.8708 829.6306,-315.0858"/>
<polygon fill="#191970" stroke="#191970" points="833.0667,-315.8371 832.8309,-305.2449 826.4098,-313.6722 833.0667,-315.8371"/>
</g>
<!-- Node33&#45;&gt;Node25 -->
<g id="edge69" class="edge">
<title>Node33&#45;&gt;Node25</title>
<path fill="none" stroke="#191970" d="M810.6839,-347.3778C805.8082,-338.2383 798.6576,-324.0007 794,-311 787.1989,-292.0163 781.9611,-269.5527 778.7238,-253.8037"/>
<polygon fill="#191970" stroke="#191970" points="782.094,-252.8029 776.7263,-243.6684 775.2261,-254.1565 782.094,-252.8029"/>
</g>
</g>
</svg>
