<?xml version="1.0" encoding="UTF-8" standalone="no"?>
<!DOCTYPE svg PUBLIC "-//W3C//DTD SVG 1.1//EN"
 "http://www.w3.org/Graphics/SVG/1.1/DTD/svg11.dtd">
<!-- Generated by graphviz version 2.40.1 (20161225.0304)
 -->
<!-- Title: SpatialForceVector.cpp Pages: 1 -->
<svg width="1319pt" height="543pt"
 viewBox="0.00 0.00 1318.50 543.00" xmlns="http://www.w3.org/2000/svg" xmlns:xlink="http://www.w3.org/1999/xlink">
<g id="graph0" class="graph" transform="scale(1 1) rotate(0) translate(4 539)">
<title>SpatialForceVector.cpp</title>
<!-- Node0 -->
<g id="node1" class="node">
<title>Node0</title>
<polygon fill="#bfbfbf" stroke="#000000" points="50.5,-515.5 50.5,-534.5 177.5,-534.5 177.5,-515.5 50.5,-515.5"/>
<text text-anchor="middle" x="114" y="-522.5" font-family="FreeSans.ttf" font-size="10.00" fill="#000000">SpatialForceVector.cpp</text>
</g>
<!-- Node1 -->
<g id="node2" class="node">
<title>Node1</title>
<g id="a_node2"><a xlink:href="SpatialForceVector_8h.html" target="_top" xlink:title="iDynTree/Core/SpatialForce\lVector.h">
<polygon fill="none" stroke="#000000" points="116,-392.5 116,-422.5 264,-422.5 264,-392.5 116,-392.5"/>
<text text-anchor="start" x="124" y="-410.5" font-family="FreeSans.ttf" font-size="10.00" fill="#000000">iDynTree/Core/SpatialForce</text>
<text text-anchor="middle" x="190" y="-399.5" font-family="FreeSans.ttf" font-size="10.00" fill="#000000">Vector.h</text>
</a>
</g>
</g>
<!-- Node0&#45;&gt;Node1 -->
<g id="edge1" class="edge">
<title>Node0&#45;&gt;Node1</title>
<path fill="none" stroke="#191970" d="M120.2194,-515.3845C132.0163,-497.1458 157.9551,-457.0432 174.67,-431.201"/>
<polygon fill="#191970" stroke="#191970" points="177.667,-433.0119 180.1593,-422.7143 171.7893,-429.2101 177.667,-433.0119"/>
</g>
<!-- Node3 -->
<g id="node4" class="node">
<title>Node3</title>
<g id="a_node4"><a xlink:href="Utils_8h.html" target="_top" xlink:title="iDynTree/Core/Utils.h">
<polygon fill="none" stroke="#000000" points="83.5,-56.5 83.5,-75.5 202.5,-75.5 202.5,-56.5 83.5,-56.5"/>
<text text-anchor="middle" x="143" y="-63.5" font-family="FreeSans.ttf" font-size="10.00" fill="#000000">iDynTree/Core/Utils.h</text>
</a>
</g>
</g>
<!-- Node0&#45;&gt;Node3 -->
<g id="edge45" class="edge">
<title>Node0&#45;&gt;Node3</title>
<path fill="none" stroke="#191970" d="M81.749,-515.4302C62.573,-508.2312 39.1172,-496.5496 24,-479 2.1231,-453.603 0,-441.0202 0,-407.5 0,-407.5 0,-407.5 0,-178 0,-126.3635 58.505,-94.9614 100.6719,-79.0344"/>
<polygon fill="#191970" stroke="#191970" points="101.9788,-82.2837 110.1929,-75.592 99.5986,-75.7008 101.9788,-82.2837"/>
</g>
<!-- Node15 -->
<g id="node16" class="node">
<title>Node15</title>
<polygon fill="none" stroke="#bfbfbf" points="249,-56.5 249,-75.5 305,-75.5 305,-56.5 249,-56.5"/>
<text text-anchor="middle" x="277" y="-63.5" font-family="FreeSans.ttf" font-size="10.00" fill="#000000">sstream</text>
</g>
<!-- Node0&#45;&gt;Node15 -->
<g id="edge66" class="edge">
<title>Node0&#45;&gt;Node15</title>
<path fill="none" stroke="#191970" d="M102.125,-515.3867C80.75,-496.9165 38,-454.1455 38,-407.5 38,-407.5 38,-407.5 38,-234 38,-137.0335 171.2994,-91.1998 238.7972,-74.2069"/>
<polygon fill="#191970" stroke="#191970" points="239.7537,-77.5765 248.645,-71.815 238.1014,-70.7742 239.7537,-77.5765"/>
</g>
<!-- Node25 -->
<g id="node26" class="node">
<title>Node25</title>
<g id="a_node26"><a xlink:href="EigenHelpers_8h.html" target="_top" xlink:title="iDynTree/Core/EigenHelpers.h">
<polygon fill="none" stroke="#000000" points="540.5,-459.5 540.5,-478.5 701.5,-478.5 701.5,-459.5 540.5,-459.5"/>
<text text-anchor="middle" x="621" y="-466.5" font-family="FreeSans.ttf" font-size="10.00" fill="#000000">iDynTree/Core/EigenHelpers.h</text>
</a>
</g>
</g>
<!-- Node0&#45;&gt;Node25 -->
<g id="edge46" class="edge">
<title>Node0&#45;&gt;Node25</title>
<path fill="none" stroke="#191970" d="M177.6985,-517.9643C266.754,-508.1278 428.9333,-490.2145 530.4992,-478.9961"/>
<polygon fill="#191970" stroke="#191970" points="530.8837,-482.4751 540.439,-477.8983 530.1151,-475.5174 530.8837,-482.4751"/>
</g>
<!-- Node2 -->
<g id="node3" class="node">
<title>Node2</title>
<g id="a_node3"><a xlink:href="VectorFixSize_8h.html" target="_top" xlink:title="iDynTree/Core/VectorFixSize.h">
<polygon fill="none" stroke="#000000" points="271.5,-112.5 271.5,-131.5 432.5,-131.5 432.5,-112.5 271.5,-112.5"/>
<text text-anchor="middle" x="352" y="-119.5" font-family="FreeSans.ttf" font-size="10.00" fill="#000000">iDynTree/Core/VectorFixSize.h</text>
</a>
</g>
</g>
<!-- Node1&#45;&gt;Node2 -->
<g id="edge2" class="edge">
<title>Node1&#45;&gt;Node2</title>
<path fill="none" stroke="#191970" d="M190.1838,-392.4658C191.4856,-351.2386 200.6178,-235.0164 261,-168 274.2974,-153.2416 293.423,-142.5829 310.7119,-135.2655"/>
<polygon fill="#191970" stroke="#191970" points="312.0811,-138.4877 320.0792,-131.5393 309.4937,-131.9834 312.0811,-138.4877"/>
</g>
<!-- Node17 -->
<g id="node18" class="node">
<title>Node17</title>
<g id="a_node18"><a xlink:href="GeomVector3_8h.html" target="_top" xlink:title="iDynTree/Core/GeomVector3.h">
<polygon fill="none" stroke="#000000" points="270.5,-168.5 270.5,-187.5 433.5,-187.5 433.5,-168.5 270.5,-168.5"/>
<text text-anchor="middle" x="352" y="-175.5" font-family="FreeSans.ttf" font-size="10.00" fill="#000000">iDynTree/Core/GeomVector3.h</text>
</a>
</g>
</g>
<!-- Node1&#45;&gt;Node17 -->
<g id="edge19" class="edge">
<title>Node1&#45;&gt;Node17</title>
<path fill="none" stroke="#191970" d="M191.873,-392.495C194.2204,-377.4729 199.1897,-354.0576 209,-336 241.4491,-276.2718 300.9765,-220.8947 332.0016,-194.3873"/>
<polygon fill="#191970" stroke="#191970" points="334.5535,-196.8141 339.9503,-187.6968 330.0458,-191.4587 334.5535,-196.8141"/>
</g>
<!-- Node18 -->
<g id="node19" class="node">
<title>Node18</title>
<g id="a_node19"><a xlink:href="SpatialVector_8h.html" target="_top" xlink:title="iDynTree/Core/SpatialVector.h">
<polygon fill="none" stroke="#000000" points="218.5,-336.5 218.5,-355.5 379.5,-355.5 379.5,-336.5 218.5,-336.5"/>
<text text-anchor="middle" x="299" y="-343.5" font-family="FreeSans.ttf" font-size="10.00" fill="#000000">iDynTree/Core/SpatialVector.h</text>
</a>
</g>
</g>
<!-- Node1&#45;&gt;Node18 -->
<g id="edge21" class="edge">
<title>Node1&#45;&gt;Node18</title>
<path fill="none" stroke="#191970" d="M216.6644,-392.4554C233.8941,-382.734 256.1975,-370.15 273.2446,-360.5317"/>
<polygon fill="#191970" stroke="#191970" points="275.1194,-363.4926 282.1089,-355.5303 271.6796,-357.3961 275.1194,-363.4926"/>
</g>
<!-- Node2&#45;&gt;Node3 -->
<g id="edge3" class="edge">
<title>Node2&#45;&gt;Node3</title>
<path fill="none" stroke="#191970" d="M316.0716,-112.3733C280.7163,-102.9001 226.612,-88.4032 188.3212,-78.1435"/>
<polygon fill="#191970" stroke="#191970" points="189.0247,-74.7086 178.4595,-75.5011 187.213,-81.4701 189.0247,-74.7086"/>
</g>
<!-- Node5 -->
<g id="node6" class="node">
<title>Node5</title>
<g id="a_node6"><a xlink:href="Span_8h.html" target="_top" xlink:title="iDynTree/Core/Span.h">
<polygon fill="none" stroke="#000000" points="559.5,-56.5 559.5,-75.5 680.5,-75.5 680.5,-56.5 559.5,-56.5"/>
<text text-anchor="middle" x="620" y="-63.5" font-family="FreeSans.ttf" font-size="10.00" fill="#000000">iDynTree/Core/Span.h</text>
</a>
</g>
</g>
<!-- Node2&#45;&gt;Node5 -->
<g id="edge5" class="edge">
<title>Node2&#45;&gt;Node5</title>
<path fill="none" stroke="#191970" d="M397.7663,-112.4369C443.9215,-102.7925 515.2178,-87.8948 564.5537,-77.5858"/>
<polygon fill="#191970" stroke="#191970" points="565.3498,-80.9951 574.4224,-75.5237 563.9179,-74.1431 565.3498,-80.9951"/>
</g>
<!-- Node6 -->
<g id="node7" class="node">
<title>Node6</title>
<polygon fill="none" stroke="#bfbfbf" points="359,-.5 359,-19.5 411,-19.5 411,-.5 359,-.5"/>
<text text-anchor="middle" x="385" y="-7.5" font-family="FreeSans.ttf" font-size="10.00" fill="#000000">cassert</text>
</g>
<!-- Node2&#45;&gt;Node6 -->
<g id="edge17" class="edge">
<title>Node2&#45;&gt;Node6</title>
<path fill="none" stroke="#191970" d="M353.4601,-112.4616C355.5707,-99.5031 359.9006,-75.6924 366,-56 368.8041,-46.9467 372.6934,-37.2067 376.2231,-29.0304"/>
<polygon fill="#191970" stroke="#191970" points="379.5168,-30.238 380.393,-19.6794 373.1236,-27.387 379.5168,-30.238"/>
</g>
<!-- Node14 -->
<g id="node15" class="node">
<title>Node14</title>
<polygon fill="none" stroke="#bfbfbf" points="856,-56.5 856,-75.5 900,-75.5 900,-56.5 856,-56.5"/>
<text text-anchor="middle" x="878" y="-63.5" font-family="FreeSans.ttf" font-size="10.00" fill="#000000">string</text>
</g>
<!-- Node2&#45;&gt;Node14 -->
<g id="edge15" class="edge">
<title>Node2&#45;&gt;Node14</title>
<path fill="none" stroke="#191970" d="M432.5274,-112.9264C435.3866,-112.6124 438.2177,-112.3027 441,-112 592.1259,-95.556 772.7603,-76.8403 845.3961,-69.353"/>
<polygon fill="#191970" stroke="#191970" points="846.1212,-72.7969 855.7099,-68.2905 845.4039,-65.8338 846.1212,-72.7969"/>
</g>
<!-- Node2&#45;&gt;Node15 -->
<g id="edge16" class="edge">
<title>Node2&#45;&gt;Node15</title>
<path fill="none" stroke="#191970" d="M338.936,-112.2455C327.6438,-103.814 311.1155,-91.4729 297.9729,-81.6598"/>
<polygon fill="#191970" stroke="#191970" points="300.0211,-78.8211 289.9143,-75.6427 295.8331,-84.4301 300.0211,-78.8211"/>
</g>
<!-- Node16 -->
<g id="node17" class="node">
<title>Node16</title>
<polygon fill="none" stroke="#bfbfbf" points="453,-56.5 453,-75.5 503,-75.5 503,-56.5 453,-56.5"/>
<text text-anchor="middle" x="478" y="-63.5" font-family="FreeSans.ttf" font-size="10.00" fill="#000000">cstring</text>
</g>
<!-- Node2&#45;&gt;Node16 -->
<g id="edge18" class="edge">
<title>Node2&#45;&gt;Node16</title>
<path fill="none" stroke="#191970" d="M373.6602,-112.3733C393.9772,-103.3435 424.564,-89.7494 447.375,-79.6111"/>
<polygon fill="#191970" stroke="#191970" points="448.9059,-82.7609 456.6225,-75.5011 446.0628,-76.3642 448.9059,-82.7609"/>
</g>
<!-- Node4 -->
<g id="node5" class="node">
<title>Node4</title>
<polygon fill="none" stroke="#bfbfbf" points="241.5,-.5 241.5,-19.5 294.5,-19.5 294.5,-.5 241.5,-.5"/>
<text text-anchor="middle" x="268" y="-7.5" font-family="FreeSans.ttf" font-size="10.00" fill="#000000">cstddef</text>
</g>
<!-- Node3&#45;&gt;Node4 -->
<g id="edge4" class="edge">
<title>Node3&#45;&gt;Node4</title>
<path fill="none" stroke="#191970" d="M164.4883,-56.3733C184.644,-47.3435 214.988,-33.7494 237.618,-23.6111"/>
<polygon fill="#191970" stroke="#191970" points="239.0971,-26.7838 246.7921,-19.5011 236.2351,-20.3955 239.0971,-26.7838"/>
</g>
<!-- Node5&#45;&gt;Node4 -->
<g id="edge9" class="edge">
<title>Node5&#45;&gt;Node4</title>
<path fill="none" stroke="#191970" d="M559.889,-56.4369C486.7206,-44.7965 365.4483,-25.5031 304.8462,-15.8619"/>
<polygon fill="#191970" stroke="#191970" points="305.0357,-12.3481 294.61,-14.2334 303.9358,-19.2612 305.0357,-12.3481"/>
</g>
<!-- Node5&#45;&gt;Node6 -->
<g id="edge6" class="edge">
<title>Node5&#45;&gt;Node6</title>
<path fill="none" stroke="#191970" d="M575.3546,-56.4317C536.8588,-48.0242 479.5697,-35.1392 421.1052,-20.1973"/>
<polygon fill="#191970" stroke="#191970" points="421.8898,-16.7852 411.3331,-17.6831 420.1456,-23.5645 421.8898,-16.7852"/>
</g>
<!-- Node7 -->
<g id="node8" class="node">
<title>Node7</title>
<polygon fill="none" stroke="#bfbfbf" points="857,-.5 857,-19.5 921,-19.5 921,-.5 857,-.5"/>
<text text-anchor="middle" x="889" y="-7.5" font-family="FreeSans.ttf" font-size="10.00" fill="#000000">algorithm</text>
</g>
<!-- Node5&#45;&gt;Node7 -->
<g id="edge7" class="edge">
<title>Node5&#45;&gt;Node7</title>
<path fill="none" stroke="#191970" d="M670.3848,-56.4372C714.497,-47.9287 780.5533,-34.8601 846.9963,-20.163"/>
<polygon fill="#191970" stroke="#191970" points="847.7978,-23.5703 856.7996,-17.9831 846.2783,-16.7372 847.7978,-23.5703"/>
</g>
<!-- Node8 -->
<g id="node9" class="node">
<title>Node8</title>
<polygon fill="none" stroke="#bfbfbf" points="429,-.5 429,-19.5 471,-19.5 471,-.5 429,-.5"/>
<text text-anchor="middle" x="450" y="-7.5" font-family="FreeSans.ttf" font-size="10.00" fill="#000000">array</text>
</g>
<!-- Node5&#45;&gt;Node8 -->
<g id="edge8" class="edge">
<title>Node5&#45;&gt;Node8</title>
<path fill="none" stroke="#191970" d="M590.7607,-56.4332C564.3663,-47.7884 524.2197,-34.6175 480.8874,-20.2853"/>
<polygon fill="#191970" stroke="#191970" points="481.8948,-16.9321 471.3015,-17.113 479.6955,-23.5777 481.8948,-16.9321"/>
</g>
<!-- Node9 -->
<g id="node10" class="node">
<title>Node9</title>
<polygon fill="none" stroke="#bfbfbf" points="489.5,-.5 489.5,-19.5 542.5,-19.5 542.5,-.5 489.5,-.5"/>
<text text-anchor="middle" x="516" y="-7.5" font-family="FreeSans.ttf" font-size="10.00" fill="#000000">iterator</text>
</g>
<!-- Node5&#45;&gt;Node9 -->
<g id="edge10" class="edge">
<title>Node5&#45;&gt;Node9</title>
<path fill="none" stroke="#191970" d="M601.8846,-56.2455C585.555,-47.4527 561.329,-34.4079 542.7661,-24.4125"/>
<polygon fill="#191970" stroke="#191970" points="544.3719,-21.3021 533.9078,-19.6427 541.0532,-27.4654 544.3719,-21.3021"/>
</g>
<!-- Node10 -->
<g id="node11" class="node">
<title>Node10</title>
<polygon fill="none" stroke="#bfbfbf" points="561,-.5 561,-19.5 605,-19.5 605,-.5 561,-.5"/>
<text text-anchor="middle" x="583" y="-7.5" font-family="FreeSans.ttf" font-size="10.00" fill="#000000">limits</text>
</g>
<!-- Node5&#45;&gt;Node10 -->
<g id="edge11" class="edge">
<title>Node5&#45;&gt;Node10</title>
<path fill="none" stroke="#191970" d="M613.5551,-56.2455C608.4618,-48.5367 601.2092,-37.5598 595.048,-28.2348"/>
<polygon fill="#191970" stroke="#191970" points="597.8038,-26.0566 589.3711,-19.6427 591.9635,-29.9155 597.8038,-26.0566"/>
</g>
<!-- Node11 -->
<g id="node12" class="node">
<title>Node11</title>
<polygon fill="none" stroke="#bfbfbf" points="623.5,-.5 623.5,-19.5 688.5,-19.5 688.5,-.5 623.5,-.5"/>
<text text-anchor="middle" x="656" y="-7.5" font-family="FreeSans.ttf" font-size="10.00" fill="#000000">stdexcept</text>
</g>
<!-- Node5&#45;&gt;Node11 -->
<g id="edge12" class="edge">
<title>Node5&#45;&gt;Node11</title>
<path fill="none" stroke="#191970" d="M626.2707,-56.2455C631.2264,-48.5367 638.283,-37.5598 644.2776,-28.2348"/>
<polygon fill="#191970" stroke="#191970" points="647.3376,-29.9471 649.8011,-19.6427 641.4494,-26.1618 647.3376,-29.9471"/>
</g>
<!-- Node12 -->
<g id="node13" class="node">
<title>Node12</title>
<polygon fill="none" stroke="#bfbfbf" points="706.5,-.5 706.5,-19.5 775.5,-19.5 775.5,-.5 706.5,-.5"/>
<text text-anchor="middle" x="741" y="-7.5" font-family="FreeSans.ttf" font-size="10.00" fill="#000000">type_traits</text>
</g>
<!-- Node5&#45;&gt;Node12 -->
<g id="edge13" class="edge">
<title>Node5&#45;&gt;Node12</title>
<path fill="none" stroke="#191970" d="M640.8006,-56.3733C660.2243,-47.3838 689.4224,-33.8706 711.2964,-23.7471"/>
<polygon fill="#191970" stroke="#191970" points="712.8656,-26.8776 720.4708,-19.5011 709.9255,-20.5249 712.8656,-26.8776"/>
</g>
<!-- Node13 -->
<g id="node14" class="node">
<title>Node13</title>
<polygon fill="none" stroke="#bfbfbf" points="793.5,-.5 793.5,-19.5 838.5,-19.5 838.5,-.5 793.5,-.5"/>
<text text-anchor="middle" x="816" y="-7.5" font-family="FreeSans.ttf" font-size="10.00" fill="#000000">utility</text>
</g>
<!-- Node5&#45;&gt;Node13 -->
<g id="edge14" class="edge">
<title>Node5&#45;&gt;Node13</title>
<path fill="none" stroke="#191970" d="M655.8464,-56.4521C687.256,-47.9872 734.3633,-35.0545 783.4964,-20.3808"/>
<polygon fill="#191970" stroke="#191970" points="784.7747,-23.6514 793.3459,-17.4236 782.7618,-16.947 784.7747,-23.6514"/>
</g>
<!-- Node17&#45;&gt;Node2 -->
<g id="edge20" class="edge">
<title>Node17&#45;&gt;Node2</title>
<path fill="none" stroke="#191970" d="M352,-168.2455C352,-160.9382 352,-150.6944 352,-141.7046"/>
<polygon fill="#191970" stroke="#191970" points="355.5001,-141.6426 352,-131.6427 348.5001,-141.6427 355.5001,-141.6426"/>
</g>
<!-- Node18&#45;&gt;Node3 -->
<g id="edge41" class="edge">
<title>Node18&#45;&gt;Node3</title>
<path fill="none" stroke="#191970" d="M281.2778,-336.344C267.079,-328.0122 247.2459,-314.978 233,-300 173.1185,-237.0413 151.9007,-129.9858 145.4596,-85.8871"/>
<polygon fill="#191970" stroke="#191970" points="148.9134,-85.3097 144.0977,-75.8726 141.9772,-86.2531 148.9134,-85.3097"/>
</g>
<!-- Node18&#45;&gt;Node15 -->
<g id="edge44" class="edge">
<title>Node18&#45;&gt;Node15</title>
<path fill="none" stroke="#191970" d="M287.2379,-336.2288C277.1125,-327.4347 262.5147,-313.8066 252,-300 217.5282,-254.736 204.23,-243.0876 190,-188 181.1407,-153.7038 191.934,-139.7094 214,-112 223.9115,-99.5537 237.9942,-88.8431 250.3322,-80.8964"/>
<polygon fill="#191970" stroke="#191970" points="252.2384,-83.833 258.9231,-75.6132 248.5715,-77.8703 252.2384,-83.833"/>
</g>
<!-- Node18&#45;&gt;Node17 -->
<g id="edge42" class="edge">
<title>Node18&#45;&gt;Node17</title>
<path fill="none" stroke="#191970" d="M302.0014,-336.4862C310.4157,-309.8144 334.3612,-233.9117 345.7867,-197.695"/>
<polygon fill="#191970" stroke="#191970" points="349.2287,-198.4176 348.8995,-187.8279 342.553,-196.3115 349.2287,-198.4176"/>
</g>
<!-- Node19 -->
<g id="node20" class="node">
<title>Node19</title>
<g id="a_node20"><a xlink:href="Position_8h.html" target="_top" xlink:title="Position.h">
<polygon fill="none" stroke="#000000" points="661.5,-280.5 661.5,-299.5 726.5,-299.5 726.5,-280.5 661.5,-280.5"/>
<text text-anchor="middle" x="694" y="-287.5" font-family="FreeSans.ttf" font-size="10.00" fill="#000000">Position.h</text>
</a>
</g>
</g>
<!-- Node18&#45;&gt;Node19 -->
<g id="edge22" class="edge">
<title>Node18&#45;&gt;Node19</title>
<path fill="none" stroke="#191970" d="M366.4541,-336.4369C447.9831,-324.8783 582.7357,-305.7742 651.2076,-296.0668"/>
<polygon fill="#191970" stroke="#191970" points="651.8027,-299.5175 661.2124,-294.6484 650.8201,-292.5868 651.8027,-299.5175"/>
</g>
<!-- Node21 -->
<g id="node22" class="node">
<title>Node21</title>
<g id="a_node22"><a xlink:href="Rotation_8h.html" target="_top" xlink:title="iDynTree/Core/Rotation.h">
<polygon fill="none" stroke="#000000" points="528.5,-224.5 528.5,-243.5 665.5,-243.5 665.5,-224.5 528.5,-224.5"/>
<text text-anchor="middle" x="597" y="-231.5" font-family="FreeSans.ttf" font-size="10.00" fill="#000000">iDynTree/Core/Rotation.h</text>
</a>
</g>
</g>
<!-- Node18&#45;&gt;Node21 -->
<g id="edge40" class="edge">
<title>Node18&#45;&gt;Node21</title>
<path fill="none" stroke="#191970" d="M324.4073,-336.4509C377.7389,-316.4069 501.4267,-269.9202 562.1279,-247.1063"/>
<polygon fill="#191970" stroke="#191970" points="563.5276,-250.3193 571.657,-243.5249 561.0649,-243.7668 563.5276,-250.3193"/>
</g>
<!-- Node24 -->
<g id="node25" class="node">
<title>Node24</title>
<polygon fill="none" stroke="#bfbfbf" points="375,-56.5 375,-75.5 435,-75.5 435,-56.5 375,-56.5"/>
<text text-anchor="middle" x="405" y="-63.5" font-family="FreeSans.ttf" font-size="10.00" fill="#000000">iostream</text>
</g>
<!-- Node18&#45;&gt;Node24 -->
<g id="edge43" class="edge">
<title>Node18&#45;&gt;Node24</title>
<path fill="none" stroke="#191970" d="M292.9808,-336.3514C272.3733,-301.9669 208.7916,-183.6567 262,-112 274.3994,-95.3015 326.8611,-81.5539 364.649,-73.5625"/>
<polygon fill="#191970" stroke="#191970" points="365.7808,-76.9032 374.8725,-71.4635 364.3729,-70.0462 365.7808,-76.9032"/>
</g>
<!-- Node19&#45;&gt;Node14 -->
<g id="edge39" class="edge">
<title>Node19&#45;&gt;Node14</title>
<path fill="none" stroke="#191970" d="M726.7603,-284.7577C802.3887,-271.9188 985.4097,-236.3831 1021,-188 1057.5142,-138.3609 962.358,-95.5734 909.9095,-76.5374"/>
<polygon fill="#191970" stroke="#191970" points="910.9424,-73.1904 900.3476,-73.1574 908.6094,-79.7902 910.9424,-73.1904"/>
</g>
<!-- Node20 -->
<g id="node21" class="node">
<title>Node20</title>
<g id="a_node21"><a xlink:href="PositionRaw_8h.html" target="_top" xlink:title="iDynTree/Core/PositionRaw.h">
<polygon fill="none" stroke="#000000" points="604,-168.5 604,-187.5 760,-187.5 760,-168.5 604,-168.5"/>
<text text-anchor="middle" x="682" y="-175.5" font-family="FreeSans.ttf" font-size="10.00" fill="#000000">iDynTree/Core/PositionRaw.h</text>
</a>
</g>
</g>
<!-- Node19&#45;&gt;Node20 -->
<g id="edge23" class="edge">
<title>Node19&#45;&gt;Node20</title>
<path fill="none" stroke="#191970" d="M692.9769,-280.4509C691.0197,-262.184 686.7095,-221.9553 684.1105,-197.6976"/>
<polygon fill="#191970" stroke="#191970" points="687.566,-197.0951 683.0205,-187.5249 680.6059,-197.8409 687.566,-197.0951"/>
</g>
<!-- Node19&#45;&gt;Node21 -->
<g id="edge26" class="edge">
<title>Node19&#45;&gt;Node21</title>
<path fill="none" stroke="#191970" d="M677.1039,-280.2455C662.082,-271.5731 639.8957,-258.7645 622.679,-248.825"/>
<polygon fill="#191970" stroke="#191970" points="624.1128,-245.6114 613.7025,-243.6427 620.6129,-251.6737 624.1128,-245.6114"/>
</g>
<!-- Node20&#45;&gt;Node2 -->
<g id="edge24" class="edge">
<title>Node20&#45;&gt;Node2</title>
<path fill="none" stroke="#191970" d="M625.6459,-168.4369C568.1011,-158.6717 478.8186,-143.5207 418.0033,-133.2006"/>
<polygon fill="#191970" stroke="#191970" points="418.5663,-129.7461 408.1216,-131.5237 417.3951,-136.6475 418.5663,-129.7461"/>
</g>
<!-- Node20&#45;&gt;Node14 -->
<g id="edge25" class="edge">
<title>Node20&#45;&gt;Node14</title>
<path fill="none" stroke="#191970" d="M745.4687,-168.4763C789.7427,-160.591 843.6986,-148.0851 860,-132 872.2611,-119.9016 876.4068,-100.3284 877.6971,-85.6328"/>
<polygon fill="#191970" stroke="#191970" points="881.1974,-85.7165 878.2144,-75.5503 874.2066,-85.3578 881.1974,-85.7165"/>
</g>
<!-- Node21&#45;&gt;Node2 -->
<g id="edge38" class="edge">
<title>Node21&#45;&gt;Node2</title>
<path fill="none" stroke="#191970" d="M587.6759,-224.4794C573.1841,-210.2044 543.8088,-183.3009 514,-168 483.0192,-152.0975 445.798,-141.035 414.8501,-133.7512"/>
<polygon fill="#191970" stroke="#191970" points="415.5658,-130.3247 405.0383,-131.5178 414.012,-137.1501 415.5658,-130.3247"/>
</g>
<!-- Node21&#45;&gt;Node14 -->
<g id="edge27" class="edge">
<title>Node21&#45;&gt;Node14</title>
<path fill="none" stroke="#191970" d="M593.9317,-224.3931C590.2246,-210.9374 585.5767,-186.099 595,-168 615.0431,-129.5042 635.3142,-129.5696 675,-112 732.1466,-86.7002 804.7279,-74.5898 845.8083,-69.3948"/>
<polygon fill="#191970" stroke="#191970" points="846.2802,-72.8633 855.7893,-68.1912 845.4421,-65.9137 846.2802,-72.8633"/>
</g>
<!-- Node21&#45;&gt;Node17 -->
<g id="edge28" class="edge">
<title>Node21&#45;&gt;Node17</title>
<path fill="none" stroke="#191970" d="M555.1614,-224.4369C513.2315,-214.8529 448.6052,-200.0812 403.5376,-189.78"/>
<polygon fill="#191970" stroke="#191970" points="404.1946,-186.34 393.6661,-187.5237 402.6347,-193.164 404.1946,-186.34"/>
</g>
<!-- Node22 -->
<g id="node23" class="node">
<title>Node22</title>
<g id="a_node23"><a xlink:href="RotationRaw_8h.html" target="_top" xlink:title="iDynTree/Core/RotationRaw.h">
<polygon fill="none" stroke="#000000" points="854,-168.5 854,-187.5 1012,-187.5 1012,-168.5 854,-168.5"/>
<text text-anchor="middle" x="933" y="-175.5" font-family="FreeSans.ttf" font-size="10.00" fill="#000000">iDynTree/Core/RotationRaw.h</text>
</a>
</g>
</g>
<!-- Node21&#45;&gt;Node22 -->
<g id="edge29" class="edge">
<title>Node21&#45;&gt;Node22</title>
<path fill="none" stroke="#191970" d="M654.3787,-224.4369C712.9697,-214.6717 803.8756,-199.5207 865.7966,-189.2006"/>
<polygon fill="#191970" stroke="#191970" points="866.5695,-192.6201 875.858,-187.5237 865.4186,-185.7154 866.5695,-192.6201"/>
</g>
<!-- Node22&#45;&gt;Node14 -->
<g id="edge37" class="edge">
<title>Node22&#45;&gt;Node14</title>
<path fill="none" stroke="#191970" d="M928.3107,-168.4509C919.2186,-149.936 899.0469,-108.8591 887.1922,-84.7187"/>
<polygon fill="#191970" stroke="#191970" points="890.227,-82.9582 882.6774,-75.5249 883.9437,-86.0438 890.227,-82.9582"/>
</g>
<!-- Node23 -->
<g id="node24" class="node">
<title>Node23</title>
<g id="a_node24"><a xlink:href="MatrixFixSize_8h.html" target="_top" xlink:title="iDynTree/Core/MatrixFixSize.h">
<polygon fill="none" stroke="#000000" points="450.5,-112.5 450.5,-131.5 611.5,-131.5 611.5,-112.5 450.5,-112.5"/>
<text text-anchor="middle" x="531" y="-119.5" font-family="FreeSans.ttf" font-size="10.00" fill="#000000">iDynTree/Core/MatrixFixSize.h</text>
</a>
</g>
</g>
<!-- Node22&#45;&gt;Node23 -->
<g id="edge30" class="edge">
<title>Node22&#45;&gt;Node23</title>
<path fill="none" stroke="#191970" d="M864.3505,-168.4369C793.6723,-158.5912 683.6915,-143.2705 609.5782,-132.9462"/>
<polygon fill="#191970" stroke="#191970" points="609.7536,-129.4369 599.3663,-131.5237 608.7878,-136.37 609.7536,-129.4369"/>
</g>
<!-- Node23&#45;&gt;Node3 -->
<g id="edge31" class="edge">
<title>Node23&#45;&gt;Node3</title>
<path fill="none" stroke="#191970" d="M464.7413,-112.4369C394.6011,-102.3136 284.3577,-86.4021 212.875,-76.0851"/>
<polygon fill="#191970" stroke="#191970" points="213.0165,-72.5693 202.6191,-74.6048 212.0165,-79.4975 213.0165,-72.5693"/>
</g>
<!-- Node23&#45;&gt;Node6 -->
<g id="edge32" class="edge">
<title>Node23&#45;&gt;Node6</title>
<path fill="none" stroke="#191970" d="M530.8462,-112.1483C530.0965,-97.938 526.6579,-71.6777 512,-56 505.5134,-49.0622 456.3746,-32.4829 421.1656,-21.2438"/>
<polygon fill="#191970" stroke="#191970" points="421.7907,-17.7704 411.2006,-18.0859 419.6761,-24.4433 421.7907,-17.7704"/>
</g>
<!-- Node23&#45;&gt;Node14 -->
<g id="edge34" class="edge">
<title>Node23&#45;&gt;Node14</title>
<path fill="none" stroke="#191970" d="M590.2572,-112.4369C664.0591,-100.5265 787.5071,-80.604 845.7362,-71.2068"/>
<polygon fill="#191970" stroke="#191970" points="846.5086,-74.6276 855.8232,-69.579 845.3933,-67.717 846.5086,-74.6276"/>
</g>
<!-- Node23&#45;&gt;Node15 -->
<g id="edge36" class="edge">
<title>Node23&#45;&gt;Node15</title>
<path fill="none" stroke="#191970" d="M487.6244,-112.4369C439.1487,-101.7493 361.4116,-84.6104 315.1636,-74.414"/>
<polygon fill="#191970" stroke="#191970" points="315.756,-70.9607 305.237,-72.2255 314.2489,-77.7965 315.756,-70.9607"/>
</g>
<!-- Node23&#45;&gt;Node16 -->
<g id="edge33" class="edge">
<title>Node23&#45;&gt;Node16</title>
<path fill="none" stroke="#191970" d="M521.7681,-112.2455C514.1683,-104.2155 503.2123,-92.6394 494.1632,-83.0781"/>
<polygon fill="#191970" stroke="#191970" points="496.542,-80.4998 487.1261,-75.6427 491.4579,-85.3115 496.542,-80.4998"/>
</g>
<!-- Node23&#45;&gt;Node24 -->
<g id="edge35" class="edge">
<title>Node23&#45;&gt;Node24</title>
<path fill="none" stroke="#191970" d="M509.3398,-112.3733C489.0228,-103.3435 458.436,-89.7494 435.625,-79.6111"/>
<polygon fill="#191970" stroke="#191970" points="436.9372,-76.3642 426.3775,-75.5011 434.0941,-82.7609 436.9372,-76.3642"/>
</g>
<!-- Node25&#45;&gt;Node1 -->
<g id="edge59" class="edge">
<title>Node25&#45;&gt;Node1</title>
<path fill="none" stroke="#191970" d="M554.1291,-459.4581C478.7724,-448.7053 356.1402,-431.2068 274.2868,-419.527"/>
<polygon fill="#191970" stroke="#191970" points="274.6582,-416.0446 264.264,-418.0968 273.6693,-422.9744 274.6582,-416.0446"/>
</g>
<!-- Node25&#45;&gt;Node2 -->
<g id="edge51" class="edge">
<title>Node25&#45;&gt;Node2</title>
<path fill="none" stroke="#191970" d="M599.9234,-459.4952C565.2561,-442.2521 500,-402.3151 500,-346 500,-346 500,-346 500,-234 500,-200.3717 488.1405,-190.3343 463,-168 445.633,-152.5714 422.3705,-141.8613 401.6282,-134.684"/>
<polygon fill="#191970" stroke="#191970" points="402.5889,-131.3158 391.9963,-131.5351 400.4137,-137.9693 402.5889,-131.3158"/>
</g>
<!-- Node25&#45;&gt;Node3 -->
<g id="edge65" class="edge">
<title>Node25&#45;&gt;Node3</title>
<path fill="none" stroke="#191970" d="M540.2515,-466.362C404.2535,-461.2472 140.9438,-448.2017 107,-423 77.3798,-401.0084 76,-382.8916 76,-346 76,-346 76,-346 76,-178 76,-139.7946 105.0669,-103.3286 124.9102,-82.8854"/>
<polygon fill="#191970" stroke="#191970" points="127.597,-85.1503 132.2353,-75.6248 122.6691,-80.1788 127.597,-85.1503"/>
</g>
<!-- Node25&#45;&gt;Node23 -->
<g id="edge54" class="edge">
<title>Node25&#45;&gt;Node23</title>
<path fill="none" stroke="#191970" d="M632.8124,-459.4938C680.3304,-420.1518 851.0971,-267.4839 769,-168 750.2623,-145.294 680.9213,-133.6671 621.8838,-127.7914"/>
<polygon fill="#191970" stroke="#191970" points="622.0392,-124.2905 611.7528,-126.8283 621.3767,-131.259 622.0392,-124.2905"/>
</g>
<!-- Node26 -->
<g id="node27" class="node">
<title>Node26</title>
<polygon fill="none" stroke="#bfbfbf" points="1182.5,-398 1182.5,-417 1259.5,-417 1259.5,-398 1182.5,-398"/>
<text text-anchor="middle" x="1221" y="-405" font-family="FreeSans.ttf" font-size="10.00" fill="#000000">Eigen/Dense</text>
</g>
<!-- Node25&#45;&gt;Node26 -->
<g id="edge47" class="edge">
<title>Node25&#45;&gt;Node26</title>
<path fill="none" stroke="#191970" d="M701.8497,-467.2586C809.1926,-463.7976 1004.28,-453.5044 1168,-423 1172.7565,-422.1138 1177.6974,-420.9746 1182.5652,-419.7165"/>
<polygon fill="#191970" stroke="#191970" points="1183.6631,-423.0445 1192.3718,-417.0105 1181.801,-416.2967 1183.6631,-423.0445"/>
</g>
<!-- Node27 -->
<g id="node28" class="node">
<title>Node27</title>
<g id="a_node28"><a xlink:href="VectorDynSize_8h.html" target="_top" xlink:title="iDynTree/Core/VectorDynSize.h">
<polygon fill="none" stroke="#000000" points="683.5,-112.5 683.5,-131.5 850.5,-131.5 850.5,-112.5 683.5,-112.5"/>
<text text-anchor="middle" x="767" y="-119.5" font-family="FreeSans.ttf" font-size="10.00" fill="#000000">iDynTree/Core/VectorDynSize.h</text>
</a>
</g>
</g>
<!-- Node25&#45;&gt;Node27 -->
<g id="edge48" class="edge">
<title>Node25&#45;&gt;Node27</title>
<path fill="none" stroke="#191970" d="M701.632,-465.5288C841.8961,-457.2714 1116,-430.3447 1116,-346 1116,-346 1116,-346 1116,-234 1116,-179.7298 961.0644,-148.0575 857.6571,-132.9624"/>
<polygon fill="#191970" stroke="#191970" points="857.9009,-129.4617 847.5059,-131.5093 856.909,-136.391 857.9009,-129.4617"/>
</g>
<!-- Node28 -->
<g id="node29" class="node">
<title>Node28</title>
<g id="a_node29"><a xlink:href="MatrixDynSize_8h.html" target="_top" xlink:title="iDynTree/Core/MatrixDynSize.h">
<polygon fill="none" stroke="#000000" points="1143.5,-280.5 1143.5,-299.5 1310.5,-299.5 1310.5,-280.5 1143.5,-280.5"/>
<text text-anchor="middle" x="1227" y="-287.5" font-family="FreeSans.ttf" font-size="10.00" fill="#000000">iDynTree/Core/MatrixDynSize.h</text>
</a>
</g>
</g>
<!-- Node25&#45;&gt;Node28 -->
<g id="edge52" class="edge">
<title>Node25&#45;&gt;Node28</title>
<path fill="none" stroke="#191970" d="M701.713,-465.3513C835.874,-458.7477 1093.6908,-443.5678 1130,-423 1176.0448,-396.9174 1206.2286,-338.9835 1219.4065,-308.9211"/>
<polygon fill="#191970" stroke="#191970" points="1222.6984,-310.1223 1223.3567,-299.5479 1216.2478,-307.4038 1222.6984,-310.1223"/>
</g>
<!-- Node29 -->
<g id="node30" class="node">
<title>Node29</title>
<g id="a_node30"><a xlink:href="SpatialMotionVector_8h.html" target="_top" xlink:title="iDynTree/Core/SpatialMotion\lVector.h">
<polygon fill="none" stroke="#000000" points="316.5,-392.5 316.5,-422.5 471.5,-422.5 471.5,-392.5 316.5,-392.5"/>
<text text-anchor="start" x="324.5" y="-410.5" font-family="FreeSans.ttf" font-size="10.00" fill="#000000">iDynTree/Core/SpatialMotion</text>
<text text-anchor="middle" x="394" y="-399.5" font-family="FreeSans.ttf" font-size="10.00" fill="#000000">Vector.h</text>
</a>
</g>
</g>
<!-- Node25&#45;&gt;Node29 -->
<g id="edge55" class="edge">
<title>Node25&#45;&gt;Node29</title>
<path fill="none" stroke="#191970" d="M585.5313,-459.3906C551.8227,-450.2581 500.3166,-436.3038 459.2035,-425.1653"/>
<polygon fill="#191970" stroke="#191970" points="460.0978,-421.7814 449.5304,-422.5446 458.2672,-428.5379 460.0978,-421.7814"/>
</g>
<!-- Node30 -->
<g id="node31" class="node">
<title>Node30</title>
<g id="a_node31"><a xlink:href="Transform_8h.html" target="_top" xlink:title="iDynTree/Core/Transform.h">
<polygon fill="none" stroke="#000000" points="784,-336.5 784,-355.5 930,-355.5 930,-336.5 784,-336.5"/>
<text text-anchor="middle" x="857" y="-343.5" font-family="FreeSans.ttf" font-size="10.00" fill="#000000">iDynTree/Core/Transform.h</text>
</a>
</g>
</g>
<!-- Node25&#45;&gt;Node30 -->
<g id="edge60" class="edge">
<title>Node25&#45;&gt;Node30</title>
<path fill="none" stroke="#191970" d="M669.739,-459.4819C699.9122,-452.2782 738.728,-440.5732 770,-423 798.2582,-407.1204 825.3221,-380.8345 841.5556,-363.4649"/>
<polygon fill="#191970" stroke="#191970" points="844.4526,-365.4829 848.6125,-355.7389 839.2841,-360.762 844.4526,-365.4829"/>
</g>
<!-- Node27&#45;&gt;Node5 -->
<g id="edge49" class="edge">
<title>Node27&#45;&gt;Node5</title>
<path fill="none" stroke="#191970" d="M741.7298,-112.3733C717.6034,-103.1822 681.0638,-89.2624 654.3123,-79.0713"/>
<polygon fill="#191970" stroke="#191970" points="655.5313,-75.7904 644.9404,-75.5011 653.0393,-82.3318 655.5313,-75.7904"/>
</g>
<!-- Node27&#45;&gt;Node14 -->
<g id="edge50" class="edge">
<title>Node27&#45;&gt;Node14</title>
<path fill="none" stroke="#191970" d="M786.0816,-112.3733C803.7402,-103.4644 830.2053,-90.1127 850.2098,-80.0203"/>
<polygon fill="#191970" stroke="#191970" points="851.8158,-83.1303 859.1674,-75.5011 848.6628,-76.8806 851.8158,-83.1303"/>
</g>
<!-- Node28&#45;&gt;Node14 -->
<g id="edge53" class="edge">
<title>Node28&#45;&gt;Node14</title>
<path fill="none" stroke="#191970" d="M1222.7519,-280.3757C1208.8697,-250.1272 1161.6927,-156.3596 1092,-112 1062.1579,-93.0054 962.5403,-77.3097 910.4173,-70.1605"/>
<polygon fill="#191970" stroke="#191970" points="910.7368,-66.672 900.3591,-68.8063 909.8027,-73.6094 910.7368,-66.672"/>
</g>
<!-- Node29&#45;&gt;Node2 -->
<g id="edge56" class="edge">
<title>Node29&#45;&gt;Node2</title>
<path fill="none" stroke="#191970" d="M409.7715,-392.4006C429.8594,-371.4631 462,-331.4816 462,-290 462,-290 462,-290 462,-234 462,-203.3494 461.658,-191.5164 442,-168 429.6757,-153.2567 411.4267,-142.7095 394.577,-135.4663"/>
<polygon fill="#191970" stroke="#191970" points="395.4575,-132.0486 384.8731,-131.5767 392.853,-138.5461 395.4575,-132.0486"/>
</g>
<!-- Node29&#45;&gt;Node17 -->
<g id="edge57" class="edge">
<title>Node29&#45;&gt;Node17</title>
<path fill="none" stroke="#191970" d="M393.3469,-392.3623C392.575,-377.8397 390.9974,-355.3261 388,-336 380.1619,-285.4638 365.3039,-227.0328 357.3472,-197.3989"/>
<polygon fill="#191970" stroke="#191970" points="360.6647,-196.26 354.6646,-187.5279 353.9097,-198.0958 360.6647,-196.26"/>
</g>
<!-- Node29&#45;&gt;Node18 -->
<g id="edge58" class="edge">
<title>Node29&#45;&gt;Node18</title>
<path fill="none" stroke="#191970" d="M370.5168,-392.2977C355.8652,-382.8127 337.0764,-370.6495 322.4341,-361.1705"/>
<polygon fill="#191970" stroke="#191970" points="324.2236,-358.1596 313.927,-355.6633 320.4195,-364.0357 324.2236,-358.1596"/>
</g>
<!-- Node30&#45;&gt;Node14 -->
<g id="edge64" class="edge">
<title>Node30&#45;&gt;Node14</title>
<path fill="none" stroke="#191970" d="M930.2828,-339.0548C994.6139,-328.4417 1078,-301.6393 1078,-234 1078,-234 1078,-234 1078,-178 1078,-102.1055 967.0078,-77.1317 910.3923,-69.3296"/>
<polygon fill="#191970" stroke="#191970" points="910.53,-65.8189 900.1677,-68.026 909.6447,-72.7627 910.53,-65.8189"/>
</g>
<!-- Node30&#45;&gt;Node19 -->
<g id="edge61" class="edge">
<title>Node30&#45;&gt;Node19</title>
<path fill="none" stroke="#191970" d="M828.9793,-336.3733C801.9922,-327.1016 760.9983,-313.0178 731.2689,-302.804"/>
<polygon fill="#191970" stroke="#191970" points="732.2497,-299.4403 721.6551,-299.5011 729.9752,-306.0605 732.2497,-299.4403"/>
</g>
<!-- Node30&#45;&gt;Node21 -->
<g id="edge62" class="edge">
<title>Node30&#45;&gt;Node21</title>
<path fill="none" stroke="#191970" d="M795.0373,-336.4693C744.095,-327.8292 676.6025,-314.2922 653,-300 633.6264,-288.2685 617.6542,-267.4738 607.7937,-252.354"/>
<polygon fill="#191970" stroke="#191970" points="610.7263,-250.4422 602.4681,-243.805 604.7848,-254.1434 610.7263,-250.4422"/>
</g>
<!-- Node30&#45;&gt;Node23 -->
<g id="edge63" class="edge">
<title>Node30&#45;&gt;Node23</title>
<path fill="none" stroke="#191970" d="M857.2514,-336.4644C857.4806,-306.4794 853.8115,-213.408 802,-168 775.5867,-144.8512 689.9556,-133.1149 621.9364,-127.3203"/>
<polygon fill="#191970" stroke="#191970" points="621.8633,-123.8026 611.6108,-126.4741 621.2915,-130.7792 621.8633,-123.8026"/>
</g>
</g>
</svg>
