<?xml version="1.0" encoding="UTF-8" standalone="no"?>
<!DOCTYPE svg PUBLIC "-//W3C//DTD SVG 1.1//EN"
 "http://www.w3.org/Graphics/SVG/1.1/DTD/svg11.dtd">
<!-- Generated by graphviz version 2.40.1 (20161225.0304)
 -->
<!-- Title: SpatialAcc.cpp Pages: 1 -->
<svg width="1154pt" height="599pt"
 viewBox="0.00 0.00 1153.50 599.00" xmlns="http://www.w3.org/2000/svg" xmlns:xlink="http://www.w3.org/1999/xlink">
<g id="graph0" class="graph" transform="scale(1 1) rotate(0) translate(4 595)">
<title>SpatialAcc.cpp</title>
<!-- Node0 -->
<g id="node1" class="node">
<title>Node0</title>
<polygon fill="#bfbfbf" stroke="#000000" points="382,-571.5 382,-590.5 470,-590.5 470,-571.5 382,-571.5"/>
<text text-anchor="middle" x="426" y="-578.5" font-family="FreeSans.ttf" font-size="10.00" fill="#000000">SpatialAcc.cpp</text>
</g>
<!-- Node1 -->
<g id="node2" class="node">
<title>Node1</title>
<g id="a_node2"><a xlink:href="SpatialAcc_8h.html" target="_top" xlink:title="iDynTree/Core/SpatialAcc.h">
<polygon fill="none" stroke="#000000" points="217,-459.5 217,-478.5 365,-478.5 365,-459.5 217,-459.5"/>
<text text-anchor="middle" x="291" y="-466.5" font-family="FreeSans.ttf" font-size="10.00" fill="#000000">iDynTree/Core/SpatialAcc.h</text>
</a>
</g>
</g>
<!-- Node0&#45;&gt;Node1 -->
<g id="edge1" class="edge">
<title>Node0&#45;&gt;Node1</title>
<path fill="none" stroke="#191970" d="M414.49,-571.4509C391.3758,-552.2747 339.0892,-508.8962 310.5254,-485.1988"/>
<polygon fill="#191970" stroke="#191970" points="312.4119,-482.2162 302.4809,-478.5249 307.9424,-487.6036 312.4119,-482.2162"/>
</g>
<!-- Node26 -->
<g id="node27" class="node">
<title>Node26</title>
<g id="a_node27"><a xlink:href="PrivateUtils_8h.html" target="_top" xlink:title="iDynTree/Core/PrivateUtils.h">
<polygon fill="none" stroke="#000000" points="436,-515.5 436,-534.5 590,-534.5 590,-515.5 436,-515.5"/>
<text text-anchor="middle" x="513" y="-522.5" font-family="FreeSans.ttf" font-size="10.00" fill="#000000">iDynTree/Core/PrivateUtils.h</text>
</a>
</g>
</g>
<!-- Node0&#45;&gt;Node26 -->
<g id="edge46" class="edge">
<title>Node0&#45;&gt;Node26</title>
<path fill="none" stroke="#191970" d="M441.1542,-571.2455C454.5027,-562.6534 474.1586,-550.0014 489.5383,-540.1018"/>
<polygon fill="#191970" stroke="#191970" points="491.5051,-542.9982 498.0194,-534.6427 487.7164,-537.1121 491.5051,-542.9982"/>
</g>
<!-- Node2 -->
<g id="node3" class="node">
<title>Node2</title>
<g id="a_node3"><a xlink:href="SpatialMotionVector_8h.html" target="_top" xlink:title="iDynTree/Core/SpatialMotion\lVector.h">
<polygon fill="none" stroke="#000000" points="163.5,-392.5 163.5,-422.5 318.5,-422.5 318.5,-392.5 163.5,-392.5"/>
<text text-anchor="start" x="171.5" y="-410.5" font-family="FreeSans.ttf" font-size="10.00" fill="#000000">iDynTree/Core/SpatialMotion</text>
<text text-anchor="middle" x="241" y="-399.5" font-family="FreeSans.ttf" font-size="10.00" fill="#000000">Vector.h</text>
</a>
</g>
</g>
<!-- Node1&#45;&gt;Node2 -->
<g id="edge2" class="edge">
<title>Node1&#45;&gt;Node2</title>
<path fill="none" stroke="#191970" d="M283.1875,-459.3906C276.9219,-451.6839 267.8645,-440.5434 259.7471,-430.5589"/>
<polygon fill="#191970" stroke="#191970" points="262.2554,-428.0959 253.2314,-422.5446 256.824,-432.5117 262.2554,-428.0959"/>
</g>
<!-- Node3 -->
<g id="node4" class="node">
<title>Node3</title>
<g id="a_node4"><a xlink:href="VectorFixSize_8h.html" target="_top" xlink:title="iDynTree/Core/VectorFixSize.h">
<polygon fill="none" stroke="#000000" points="220.5,-112.5 220.5,-131.5 381.5,-131.5 381.5,-112.5 220.5,-112.5"/>
<text text-anchor="middle" x="301" y="-119.5" font-family="FreeSans.ttf" font-size="10.00" fill="#000000">iDynTree/Core/VectorFixSize.h</text>
</a>
</g>
</g>
<!-- Node2&#45;&gt;Node3 -->
<g id="edge3" class="edge">
<title>Node2&#45;&gt;Node3</title>
<path fill="none" stroke="#191970" d="M222.8548,-392.1847C212.9731,-382.7879 201.4731,-369.9129 195,-356 159.467,-279.6278 122.3766,-236.7828 171,-168 180.4243,-154.6683 216.7071,-142.4851 248.5541,-134.0108"/>
<polygon fill="#191970" stroke="#191970" points="249.4542,-137.3933 258.2606,-131.5028 247.703,-130.6159 249.4542,-137.3933"/>
</g>
<!-- Node18 -->
<g id="node19" class="node">
<title>Node18</title>
<g id="a_node19"><a xlink:href="GeomVector3_8h.html" target="_top" xlink:title="iDynTree/Core/GeomVector3.h">
<polygon fill="none" stroke="#000000" points="180.5,-168.5 180.5,-187.5 343.5,-187.5 343.5,-168.5 180.5,-168.5"/>
<text text-anchor="middle" x="262" y="-175.5" font-family="FreeSans.ttf" font-size="10.00" fill="#000000">iDynTree/Core/GeomVector3.h</text>
</a>
</g>
</g>
<!-- Node2&#45;&gt;Node18 -->
<g id="edge20" class="edge">
<title>Node2&#45;&gt;Node18</title>
<path fill="none" stroke="#191970" d="M224.1193,-392.1071C215.0757,-382.6844 204.8257,-369.8094 200,-356 197.0677,-347.6087 198.3477,-344.734 200,-336 209.9954,-283.1647 237.2446,-225.3706 252.0706,-196.5343"/>
<polygon fill="#191970" stroke="#191970" points="255.2116,-198.0806 256.748,-187.5978 249.0098,-194.8345 255.2116,-198.0806"/>
</g>
<!-- Node19 -->
<g id="node20" class="node">
<title>Node19</title>
<g id="a_node20"><a xlink:href="SpatialVector_8h.html" target="_top" xlink:title="iDynTree/Core/SpatialVector.h">
<polygon fill="none" stroke="#000000" points="209.5,-336.5 209.5,-355.5 370.5,-355.5 370.5,-336.5 209.5,-336.5"/>
<text text-anchor="middle" x="290" y="-343.5" font-family="FreeSans.ttf" font-size="10.00" fill="#000000">iDynTree/Core/SpatialVector.h</text>
</a>
</g>
</g>
<!-- Node2&#45;&gt;Node19 -->
<g id="edge22" class="edge">
<title>Node2&#45;&gt;Node19</title>
<path fill="none" stroke="#191970" d="M253.1124,-392.2977C259.9849,-383.672 268.6223,-372.8312 275.811,-363.8087"/>
<polygon fill="#191970" stroke="#191970" points="278.6604,-365.849 282.1545,-355.8469 273.1856,-361.487 278.6604,-365.849"/>
</g>
<!-- Node4 -->
<g id="node5" class="node">
<title>Node4</title>
<g id="a_node5"><a xlink:href="Utils_8h.html" target="_top" xlink:title="iDynTree/Core/Utils.h">
<polygon fill="none" stroke="#000000" points="113.5,-56.5 113.5,-75.5 232.5,-75.5 232.5,-56.5 113.5,-56.5"/>
<text text-anchor="middle" x="173" y="-63.5" font-family="FreeSans.ttf" font-size="10.00" fill="#000000">iDynTree/Core/Utils.h</text>
</a>
</g>
</g>
<!-- Node3&#45;&gt;Node4 -->
<g id="edge4" class="edge">
<title>Node3&#45;&gt;Node4</title>
<path fill="none" stroke="#191970" d="M278.996,-112.3733C258.3565,-103.3435 227.2842,-89.7494 204.1111,-79.6111"/>
<polygon fill="#191970" stroke="#191970" points="205.2813,-76.3028 194.7169,-75.5011 202.4755,-82.7159 205.2813,-76.3028"/>
</g>
<!-- Node6 -->
<g id="node7" class="node">
<title>Node6</title>
<g id="a_node7"><a xlink:href="Span_8h.html" target="_top" xlink:title="iDynTree/Core/Span.h">
<polygon fill="none" stroke="#000000" points="547.5,-56.5 547.5,-75.5 668.5,-75.5 668.5,-56.5 547.5,-56.5"/>
<text text-anchor="middle" x="608" y="-63.5" font-family="FreeSans.ttf" font-size="10.00" fill="#000000">iDynTree/Core/Span.h</text>
</a>
</g>
</g>
<!-- Node3&#45;&gt;Node6 -->
<g id="edge6" class="edge">
<title>Node3&#45;&gt;Node6</title>
<path fill="none" stroke="#191970" d="M353.4264,-112.4369C406.7397,-102.712 489.3357,-87.6456 545.8956,-77.3285"/>
<polygon fill="#191970" stroke="#191970" points="546.5803,-80.7614 555.7899,-75.5237 545.3241,-73.8751 546.5803,-80.7614"/>
</g>
<!-- Node7 -->
<g id="node8" class="node">
<title>Node7</title>
<polygon fill="none" stroke="#bfbfbf" points="328,-.5 328,-19.5 380,-19.5 380,-.5 328,-.5"/>
<text text-anchor="middle" x="354" y="-7.5" font-family="FreeSans.ttf" font-size="10.00" fill="#000000">cassert</text>
</g>
<!-- Node3&#45;&gt;Node7 -->
<g id="edge18" class="edge">
<title>Node3&#45;&gt;Node7</title>
<path fill="none" stroke="#191970" d="M293.1172,-112.1116C283.4998,-98.7562 269.7184,-74.4975 280,-56 288.3196,-41.0324 303.7513,-30.3073 318.3784,-22.9994"/>
<polygon fill="#191970" stroke="#191970" points="320.1622,-26.0318 327.7915,-18.6802 317.2429,-19.6696 320.1622,-26.0318"/>
</g>
<!-- Node15 -->
<g id="node16" class="node">
<title>Node15</title>
<polygon fill="none" stroke="#bfbfbf" points="779,-56.5 779,-75.5 823,-75.5 823,-56.5 779,-56.5"/>
<text text-anchor="middle" x="801" y="-63.5" font-family="FreeSans.ttf" font-size="10.00" fill="#000000">string</text>
</g>
<!-- Node3&#45;&gt;Node15 -->
<g id="edge16" class="edge">
<title>Node3&#45;&gt;Node15</title>
<path fill="none" stroke="#191970" d="M381.6113,-112.9715C493.7315,-100.4141 691.6684,-78.2451 768.8836,-69.597"/>
<polygon fill="#191970" stroke="#191970" points="769.4081,-73.0603 778.9563,-68.4689 768.6289,-66.1038 769.4081,-73.0603"/>
</g>
<!-- Node16 -->
<g id="node17" class="node">
<title>Node16</title>
<polygon fill="none" stroke="#bfbfbf" points="289,-56.5 289,-75.5 345,-75.5 345,-56.5 289,-56.5"/>
<text text-anchor="middle" x="317" y="-63.5" font-family="FreeSans.ttf" font-size="10.00" fill="#000000">sstream</text>
</g>
<!-- Node3&#45;&gt;Node16 -->
<g id="edge17" class="edge">
<title>Node3&#45;&gt;Node16</title>
<path fill="none" stroke="#191970" d="M303.787,-112.2455C305.8977,-104.8579 308.866,-94.4689 311.4547,-85.4087"/>
<polygon fill="#191970" stroke="#191970" points="314.863,-86.2195 314.245,-75.6427 308.1323,-84.2964 314.863,-86.2195"/>
</g>
<!-- Node17 -->
<g id="node18" class="node">
<title>Node17</title>
<polygon fill="none" stroke="#bfbfbf" points="363,-56.5 363,-75.5 413,-75.5 413,-56.5 363,-56.5"/>
<text text-anchor="middle" x="388" y="-63.5" font-family="FreeSans.ttf" font-size="10.00" fill="#000000">cstring</text>
</g>
<!-- Node3&#45;&gt;Node17 -->
<g id="edge19" class="edge">
<title>Node3&#45;&gt;Node17</title>
<path fill="none" stroke="#191970" d="M316.1542,-112.2455C329.5027,-103.6534 349.1586,-91.0014 364.5383,-81.1018"/>
<polygon fill="#191970" stroke="#191970" points="366.5051,-83.9982 373.0194,-75.6427 362.7164,-78.1121 366.5051,-83.9982"/>
</g>
<!-- Node5 -->
<g id="node6" class="node">
<title>Node5</title>
<polygon fill="none" stroke="#bfbfbf" points="222.5,-.5 222.5,-19.5 275.5,-19.5 275.5,-.5 222.5,-.5"/>
<text text-anchor="middle" x="249" y="-7.5" font-family="FreeSans.ttf" font-size="10.00" fill="#000000">cstddef</text>
</g>
<!-- Node4&#45;&gt;Node5 -->
<g id="edge5" class="edge">
<title>Node4&#45;&gt;Node5</title>
<path fill="none" stroke="#191970" d="M186.2382,-56.2455C197.681,-47.814 214.4296,-35.4729 227.7475,-25.6598"/>
<polygon fill="#191970" stroke="#191970" points="229.9391,-28.3924 235.9135,-19.6427 225.7867,-22.757 229.9391,-28.3924"/>
</g>
<!-- Node6&#45;&gt;Node5 -->
<g id="edge10" class="edge">
<title>Node6&#45;&gt;Node5</title>
<path fill="none" stroke="#191970" d="M547.1005,-56.5004C472.214,-44.8189 347.4782,-25.3615 285.8185,-15.7433"/>
<polygon fill="#191970" stroke="#191970" points="286.1924,-12.2593 275.7724,-14.1762 285.1135,-19.1757 286.1924,-12.2593"/>
</g>
<!-- Node6&#45;&gt;Node7 -->
<g id="edge7" class="edge">
<title>Node6&#45;&gt;Node7</title>
<path fill="none" stroke="#191970" d="M557.3174,-56.4186C515.0423,-48.1865 453.0157,-35.5542 390.3752,-20.2211"/>
<polygon fill="#191970" stroke="#191970" points="390.867,-16.7374 380.3194,-17.7373 389.1883,-23.5332 390.867,-16.7374"/>
</g>
<!-- Node8 -->
<g id="node9" class="node">
<title>Node8</title>
<polygon fill="none" stroke="#bfbfbf" points="766,-.5 766,-19.5 830,-19.5 830,-.5 766,-.5"/>
<text text-anchor="middle" x="798" y="-7.5" font-family="FreeSans.ttf" font-size="10.00" fill="#000000">algorithm</text>
</g>
<!-- Node6&#45;&gt;Node8 -->
<g id="edge8" class="edge">
<title>Node6&#45;&gt;Node8</title>
<path fill="none" stroke="#191970" d="M640.6622,-56.3733C672.5298,-46.9807 721.1531,-32.6496 755.907,-22.4064"/>
<polygon fill="#191970" stroke="#191970" points="757.1615,-25.6855 765.764,-19.5011 755.1825,-18.9711 757.1615,-25.6855"/>
</g>
<!-- Node9 -->
<g id="node10" class="node">
<title>Node9</title>
<polygon fill="none" stroke="#bfbfbf" points="848,-.5 848,-19.5 890,-19.5 890,-.5 848,-.5"/>
<text text-anchor="middle" x="869" y="-7.5" font-family="FreeSans.ttf" font-size="10.00" fill="#000000">array</text>
</g>
<!-- Node6&#45;&gt;Node9 -->
<g id="edge9" class="edge">
<title>Node6&#45;&gt;Node9</title>
<path fill="none" stroke="#191970" d="M666.3715,-56.4614C711.0603,-48.6844 774.3498,-36.651 837.9924,-20.0298"/>
<polygon fill="#191970" stroke="#191970" points="839.0234,-23.3775 847.794,-17.4338 837.2312,-16.6108 839.0234,-23.3775"/>
</g>
<!-- Node10 -->
<g id="node11" class="node">
<title>Node10</title>
<polygon fill="none" stroke="#bfbfbf" points="398.5,-.5 398.5,-19.5 451.5,-19.5 451.5,-.5 398.5,-.5"/>
<text text-anchor="middle" x="425" y="-7.5" font-family="FreeSans.ttf" font-size="10.00" fill="#000000">iterator</text>
</g>
<!-- Node6&#45;&gt;Node10 -->
<g id="edge11" class="edge">
<title>Node6&#45;&gt;Node10</title>
<path fill="none" stroke="#191970" d="M576.5412,-56.3733C544.5902,-46.5959 495.1514,-31.4671 461.4975,-21.1686"/>
<polygon fill="#191970" stroke="#191970" points="462.1833,-17.7183 451.5968,-18.1389 460.1349,-24.4119 462.1833,-17.7183"/>
</g>
<!-- Node11 -->
<g id="node12" class="node">
<title>Node11</title>
<polygon fill="none" stroke="#bfbfbf" points="470,-.5 470,-19.5 514,-19.5 514,-.5 470,-.5"/>
<text text-anchor="middle" x="492" y="-7.5" font-family="FreeSans.ttf" font-size="10.00" fill="#000000">limits</text>
</g>
<!-- Node6&#45;&gt;Node11 -->
<g id="edge12" class="edge">
<title>Node6&#45;&gt;Node11</title>
<path fill="none" stroke="#191970" d="M588.0589,-56.3733C569.5214,-47.4241 541.6972,-33.9917 520.7587,-23.8835"/>
<polygon fill="#191970" stroke="#191970" points="522.2081,-20.6967 511.6809,-19.5011 519.1648,-27.0006 522.2081,-20.6967"/>
</g>
<!-- Node12 -->
<g id="node13" class="node">
<title>Node12</title>
<polygon fill="none" stroke="#bfbfbf" points="532.5,-.5 532.5,-19.5 597.5,-19.5 597.5,-.5 532.5,-.5"/>
<text text-anchor="middle" x="565" y="-7.5" font-family="FreeSans.ttf" font-size="10.00" fill="#000000">stdexcept</text>
</g>
<!-- Node6&#45;&gt;Node12 -->
<g id="edge13" class="edge">
<title>Node6&#45;&gt;Node12</title>
<path fill="none" stroke="#191970" d="M600.51,-56.2455C594.4674,-48.3761 585.8097,-37.101 578.5559,-27.6542"/>
<polygon fill="#191970" stroke="#191970" points="581.2705,-25.4426 572.4042,-19.6427 575.7185,-29.7058 581.2705,-25.4426"/>
</g>
<!-- Node13 -->
<g id="node14" class="node">
<title>Node13</title>
<polygon fill="none" stroke="#bfbfbf" points="615.5,-.5 615.5,-19.5 684.5,-19.5 684.5,-.5 615.5,-.5"/>
<text text-anchor="middle" x="650" y="-7.5" font-family="FreeSans.ttf" font-size="10.00" fill="#000000">type_traits</text>
</g>
<!-- Node6&#45;&gt;Node13 -->
<g id="edge14" class="edge">
<title>Node6&#45;&gt;Node13</title>
<path fill="none" stroke="#191970" d="M615.3158,-56.2455C621.2179,-48.3761 629.6742,-37.101 636.7594,-27.6542"/>
<polygon fill="#191970" stroke="#191970" points="639.568,-29.7427 642.768,-19.6427 633.9679,-25.5427 639.568,-29.7427"/>
</g>
<!-- Node14 -->
<g id="node15" class="node">
<title>Node14</title>
<polygon fill="none" stroke="#bfbfbf" points="702.5,-.5 702.5,-19.5 747.5,-19.5 747.5,-.5 702.5,-.5"/>
<text text-anchor="middle" x="725" y="-7.5" font-family="FreeSans.ttf" font-size="10.00" fill="#000000">utility</text>
</g>
<!-- Node6&#45;&gt;Node14 -->
<g id="edge15" class="edge">
<title>Node6&#45;&gt;Node14</title>
<path fill="none" stroke="#191970" d="M628.113,-56.3733C646.8103,-47.4241 674.8744,-33.9917 695.9934,-23.8835"/>
<polygon fill="#191970" stroke="#191970" points="697.6405,-26.9755 705.1494,-19.5011 694.6183,-20.6614 697.6405,-26.9755"/>
</g>
<!-- Node18&#45;&gt;Node3 -->
<g id="edge21" class="edge">
<title>Node18&#45;&gt;Node3</title>
<path fill="none" stroke="#191970" d="M268.7933,-168.2455C274.2178,-160.4564 281.9661,-149.3308 288.5033,-139.9439"/>
<polygon fill="#191970" stroke="#191970" points="291.4417,-141.849 294.2846,-131.6427 285.6975,-137.8485 291.4417,-141.849"/>
</g>
<!-- Node19&#45;&gt;Node4 -->
<g id="edge42" class="edge">
<title>Node19&#45;&gt;Node4</title>
<path fill="none" stroke="#191970" d="M265.8701,-336.3757C248.1655,-328.4767 224.2939,-315.9983 207,-300 185.1021,-279.7427 180.0972,-272.07 170,-244 150.3561,-189.3902 161.1434,-119.1265 168.2885,-85.5534"/>
<polygon fill="#191970" stroke="#191970" points="171.7362,-86.1751 170.5228,-75.6499 164.9078,-84.6345 171.7362,-86.1751"/>
</g>
<!-- Node19&#45;&gt;Node16 -->
<g id="edge45" class="edge">
<title>Node19&#45;&gt;Node16</title>
<path fill="none" stroke="#191970" d="M275.2132,-336.4453C238.484,-311.4005 147.6876,-240.7457 171,-168 180.3342,-138.873 187.217,-131.2321 211,-112 231.0202,-95.8107 257.609,-84.2923 279.1481,-76.8305"/>
<polygon fill="#191970" stroke="#191970" points="280.2544,-80.1511 288.6474,-73.6853 278.0541,-73.5059 280.2544,-80.1511"/>
</g>
<!-- Node19&#45;&gt;Node18 -->
<g id="edge43" class="edge">
<title>Node19&#45;&gt;Node18</title>
<path fill="none" stroke="#191970" d="M288.4144,-336.4862C283.9691,-309.8144 271.3186,-233.9117 265.2825,-197.695"/>
<polygon fill="#191970" stroke="#191970" points="268.7344,-197.1164 263.638,-187.8279 261.8297,-198.2672 268.7344,-197.1164"/>
</g>
<!-- Node20 -->
<g id="node21" class="node">
<title>Node20</title>
<g id="a_node21"><a xlink:href="Position_8h.html" target="_top" xlink:title="Position.h">
<polygon fill="none" stroke="#000000" points="693.5,-280.5 693.5,-299.5 758.5,-299.5 758.5,-280.5 693.5,-280.5"/>
<text text-anchor="middle" x="726" y="-287.5" font-family="FreeSans.ttf" font-size="10.00" fill="#000000">Position.h</text>
</a>
</g>
</g>
<!-- Node19&#45;&gt;Node20 -->
<g id="edge23" class="edge">
<title>Node19&#45;&gt;Node20</title>
<path fill="none" stroke="#191970" d="M364.4557,-336.4369C456.1388,-324.6611 608.7993,-305.0533 682.9495,-295.5294"/>
<polygon fill="#191970" stroke="#191970" points="683.8308,-298.9451 693.3034,-294.1996 682.9389,-292.0021 683.8308,-298.9451"/>
</g>
<!-- Node22 -->
<g id="node23" class="node">
<title>Node22</title>
<g id="a_node23"><a xlink:href="Rotation_8h.html" target="_top" xlink:title="iDynTree/Core/Rotation.h">
<polygon fill="none" stroke="#000000" points="524.5,-224.5 524.5,-243.5 661.5,-243.5 661.5,-224.5 524.5,-224.5"/>
<text text-anchor="middle" x="593" y="-231.5" font-family="FreeSans.ttf" font-size="10.00" fill="#000000">iDynTree/Core/Rotation.h</text>
</a>
</g>
</g>
<!-- Node19&#45;&gt;Node22 -->
<g id="edge41" class="edge">
<title>Node19&#45;&gt;Node22</title>
<path fill="none" stroke="#191970" d="M315.8336,-336.4509C370.06,-316.4069 495.8231,-269.9202 557.5428,-247.1063"/>
<polygon fill="#191970" stroke="#191970" points="559.0656,-250.275 567.2318,-243.5249 556.6385,-243.7091 559.0656,-250.275"/>
</g>
<!-- Node25 -->
<g id="node26" class="node">
<title>Node25</title>
<polygon fill="none" stroke="#bfbfbf" points="431,-56.5 431,-75.5 491,-75.5 491,-56.5 431,-56.5"/>
<text text-anchor="middle" x="461" y="-63.5" font-family="FreeSans.ttf" font-size="10.00" fill="#000000">iostream</text>
</g>
<!-- Node19&#45;&gt;Node25 -->
<g id="edge44" class="edge">
<title>Node19&#45;&gt;Node25</title>
<path fill="none" stroke="#191970" d="M295.3229,-336.4897C313.3457,-304.4118 374.0151,-197.4254 429,-112 435.0321,-102.6284 442.0739,-92.4324 448.0136,-84.0266"/>
<polygon fill="#191970" stroke="#191970" points="450.9718,-85.9064 453.9263,-75.7318 445.2717,-81.8432 450.9718,-85.9064"/>
</g>
<!-- Node20&#45;&gt;Node15 -->
<g id="edge40" class="edge">
<title>Node20&#45;&gt;Node15</title>
<path fill="none" stroke="#191970" d="M750.5926,-280.3933C796.3558,-260.7858 891.7088,-211.2028 911,-132 913.1035,-123.3636 915.9259,-119.3992 911,-112 893.8606,-86.2549 859.2569,-74.8923 833.4135,-69.8935"/>
<polygon fill="#191970" stroke="#191970" points="833.745,-66.3996 823.299,-68.1687 832.5683,-73.3 833.745,-66.3996"/>
</g>
<!-- Node21 -->
<g id="node22" class="node">
<title>Node21</title>
<g id="a_node22"><a xlink:href="PositionRaw_8h.html" target="_top" xlink:title="iDynTree/Core/PositionRaw.h">
<polygon fill="none" stroke="#000000" points="690,-168.5 690,-187.5 846,-187.5 846,-168.5 690,-168.5"/>
<text text-anchor="middle" x="768" y="-175.5" font-family="FreeSans.ttf" font-size="10.00" fill="#000000">iDynTree/Core/PositionRaw.h</text>
</a>
</g>
</g>
<!-- Node20&#45;&gt;Node21 -->
<g id="edge24" class="edge">
<title>Node20&#45;&gt;Node21</title>
<path fill="none" stroke="#191970" d="M729.5809,-280.4509C736.493,-262.0186 751.7905,-221.2254 760.8589,-197.043"/>
<polygon fill="#191970" stroke="#191970" points="764.194,-198.1171 764.4282,-187.5249 757.6397,-195.6592 764.194,-198.1171"/>
</g>
<!-- Node20&#45;&gt;Node22 -->
<g id="edge27" class="edge">
<title>Node20&#45;&gt;Node22</title>
<path fill="none" stroke="#191970" d="M703.1365,-280.3733C681.595,-271.3032 649.1162,-257.6279 625.0044,-247.4755"/>
<polygon fill="#191970" stroke="#191970" points="626.1397,-244.156 615.5652,-243.5011 623.4233,-250.6075 626.1397,-244.156"/>
</g>
<!-- Node21&#45;&gt;Node3 -->
<g id="edge25" class="edge">
<title>Node21&#45;&gt;Node3</title>
<path fill="none" stroke="#191970" d="M689.8347,-168.6269C607.287,-158.7282 477.3374,-143.1454 390.6777,-132.7536"/>
<polygon fill="#191970" stroke="#191970" points="390.9389,-129.26 380.5933,-131.5444 390.1054,-136.2102 390.9389,-129.26"/>
</g>
<!-- Node21&#45;&gt;Node15 -->
<g id="edge26" class="edge">
<title>Node21&#45;&gt;Node15</title>
<path fill="none" stroke="#191970" d="M748.2363,-168.3974C726.1494,-156.294 695.183,-134.3563 709,-112 721.9895,-90.9825 747.8118,-79.2468 768.8012,-72.8991"/>
<polygon fill="#191970" stroke="#191970" points="769.9225,-76.2208 778.6394,-70.1987 768.0697,-69.4705 769.9225,-76.2208"/>
</g>
<!-- Node22&#45;&gt;Node3 -->
<g id="edge39" class="edge">
<title>Node22&#45;&gt;Node3</title>
<path fill="none" stroke="#191970" d="M568.1042,-224.4509C515.8464,-204.4069 394.649,-157.9202 335.17,-135.1063"/>
<polygon fill="#191970" stroke="#191970" points="336.4229,-131.8383 325.8327,-131.5249 333.916,-138.374 336.4229,-131.8383"/>
</g>
<!-- Node22&#45;&gt;Node15 -->
<g id="edge28" class="edge">
<title>Node22&#45;&gt;Node15</title>
<path fill="none" stroke="#191970" d="M661.5163,-227.9614C728.1156,-221.0402 823.6638,-208.0032 855,-188 887.0014,-167.5722 914.0292,-144.2523 894,-112 880.71,-90.5995 854.1857,-78.8528 832.8531,-72.599"/>
<polygon fill="#191970" stroke="#191970" points="833.7454,-69.2147 823.1815,-70.0245 831.9447,-75.9792 833.7454,-69.2147"/>
</g>
<!-- Node22&#45;&gt;Node18 -->
<g id="edge29" class="edge">
<title>Node22&#45;&gt;Node18</title>
<path fill="none" stroke="#191970" d="M536.4752,-224.4369C478.756,-214.6717 389.2029,-199.5207 328.2034,-189.2006"/>
<polygon fill="#191970" stroke="#191970" points="328.7355,-185.7409 318.2917,-187.5237 327.5677,-192.6429 328.7355,-185.7409"/>
</g>
<!-- Node23 -->
<g id="node24" class="node">
<title>Node23</title>
<g id="a_node24"><a xlink:href="RotationRaw_8h.html" target="_top" xlink:title="iDynTree/Core/RotationRaw.h">
<polygon fill="none" stroke="#000000" points="514,-168.5 514,-187.5 672,-187.5 672,-168.5 514,-168.5"/>
<text text-anchor="middle" x="593" y="-175.5" font-family="FreeSans.ttf" font-size="10.00" fill="#000000">iDynTree/Core/RotationRaw.h</text>
</a>
</g>
</g>
<!-- Node22&#45;&gt;Node23 -->
<g id="edge30" class="edge">
<title>Node22&#45;&gt;Node23</title>
<path fill="none" stroke="#191970" d="M593,-224.2455C593,-216.9382 593,-206.6944 593,-197.7046"/>
<polygon fill="#191970" stroke="#191970" points="596.5001,-197.6426 593,-187.6427 589.5001,-197.6427 596.5001,-197.6426"/>
</g>
<!-- Node23&#45;&gt;Node15 -->
<g id="edge38" class="edge">
<title>Node23&#45;&gt;Node15</title>
<path fill="none" stroke="#191970" d="M607.3564,-168.4776C627.7543,-155.1224 666.4858,-130.4025 701,-112 723.4616,-100.0238 749.6223,-88.0567 769.5515,-79.3316"/>
<polygon fill="#191970" stroke="#191970" points="771.0101,-82.514 778.7908,-75.323 768.2239,-76.0924 771.0101,-82.514"/>
</g>
<!-- Node24 -->
<g id="node25" class="node">
<title>Node24</title>
<g id="a_node25"><a xlink:href="MatrixFixSize_8h.html" target="_top" xlink:title="iDynTree/Core/MatrixFixSize.h">
<polygon fill="none" stroke="#000000" points="438.5,-112.5 438.5,-131.5 599.5,-131.5 599.5,-112.5 438.5,-112.5"/>
<text text-anchor="middle" x="519" y="-119.5" font-family="FreeSans.ttf" font-size="10.00" fill="#000000">iDynTree/Core/MatrixFixSize.h</text>
</a>
</g>
</g>
<!-- Node23&#45;&gt;Node24 -->
<g id="edge31" class="edge">
<title>Node23&#45;&gt;Node24</title>
<path fill="none" stroke="#191970" d="M580.1102,-168.2455C569.0746,-159.8943 552.9708,-147.7076 540.0647,-137.9408"/>
<polygon fill="#191970" stroke="#191970" points="541.8283,-134.8862 531.7421,-131.6427 537.6041,-140.4681 541.8283,-134.8862"/>
</g>
<!-- Node24&#45;&gt;Node4 -->
<g id="edge32" class="edge">
<title>Node24&#45;&gt;Node4</title>
<path fill="none" stroke="#191970" d="M459.9136,-112.4369C399.4544,-102.6516 305.5812,-87.4582 241.8095,-77.1368"/>
<polygon fill="#191970" stroke="#191970" points="242.2734,-73.6664 231.8427,-75.5237 241.155,-80.5765 242.2734,-73.6664"/>
</g>
<!-- Node24&#45;&gt;Node7 -->
<g id="edge33" class="edge">
<title>Node24&#45;&gt;Node7</title>
<path fill="none" stroke="#191970" d="M518.933,-112.0655C518.2913,-97.752 514.9861,-71.3643 500,-56 496.0166,-51.9161 431.6758,-32.6108 389.7492,-20.3439"/>
<polygon fill="#191970" stroke="#191970" points="390.7204,-16.9814 380.1404,-17.5408 388.76,-23.7013 390.7204,-16.9814"/>
</g>
<!-- Node24&#45;&gt;Node15 -->
<g id="edge35" class="edge">
<title>Node24&#45;&gt;Node15</title>
<path fill="none" stroke="#191970" d="M567.1571,-112.4369C624.7537,-100.9993 719.5569,-82.1731 768.8997,-72.3745"/>
<polygon fill="#191970" stroke="#191970" points="769.8677,-75.7507 778.9944,-70.3699 768.5042,-68.8848 769.8677,-75.7507"/>
</g>
<!-- Node24&#45;&gt;Node16 -->
<g id="edge37" class="edge">
<title>Node24&#45;&gt;Node16</title>
<path fill="none" stroke="#191970" d="M484.275,-112.3733C448.2901,-102.3973 392.2097,-86.8502 355.0448,-76.5471"/>
<polygon fill="#191970" stroke="#191970" points="355.668,-73.0879 345.0964,-73.7891 353.7979,-79.8335 355.668,-73.0879"/>
</g>
<!-- Node24&#45;&gt;Node17 -->
<g id="edge34" class="edge">
<title>Node24&#45;&gt;Node17</title>
<path fill="none" stroke="#191970" d="M496.4803,-112.3733C475.2628,-103.3032 443.2724,-89.6279 419.5231,-79.4755"/>
<polygon fill="#191970" stroke="#191970" points="420.7967,-76.2136 410.2258,-75.5011 418.0452,-82.6502 420.7967,-76.2136"/>
</g>
<!-- Node24&#45;&gt;Node25 -->
<g id="edge36" class="edge">
<title>Node24&#45;&gt;Node25</title>
<path fill="none" stroke="#191970" d="M508.8972,-112.2455C500.4972,-104.1352 488.3506,-92.4075 478.3916,-82.7919"/>
<polygon fill="#191970" stroke="#191970" points="480.6122,-80.0707 470.9871,-75.6427 475.75,-85.1066 480.6122,-80.0707"/>
</g>
<!-- Node27 -->
<g id="node28" class="node">
<title>Node27</title>
<polygon fill="none" stroke="#bfbfbf" points="1016.5,-398 1016.5,-417 1093.5,-417 1093.5,-398 1016.5,-398"/>
<text text-anchor="middle" x="1055" y="-405" font-family="FreeSans.ttf" font-size="10.00" fill="#000000">Eigen/Dense</text>
</g>
<!-- Node26&#45;&gt;Node27 -->
<g id="edge47" class="edge">
<title>Node26&#45;&gt;Node27</title>
<path fill="none" stroke="#191970" d="M565.4147,-515.4736C655.2608,-498.8309 844.2533,-462.4536 1002,-423 1006.0282,-421.9925 1010.2105,-420.8823 1014.3794,-419.7328"/>
<polygon fill="#191970" stroke="#191970" points="1015.3344,-423.1001 1024.0038,-417.0097 1013.4286,-416.3645 1015.3344,-423.1001"/>
</g>
<!-- Node28 -->
<g id="node29" class="node">
<title>Node28</title>
<g id="a_node29"><a xlink:href="EigenHelpers_8h.html" target="_top" xlink:title="iDynTree/Core/EigenHelpers.h">
<polygon fill="none" stroke="#000000" points="432.5,-459.5 432.5,-478.5 593.5,-478.5 593.5,-459.5 432.5,-459.5"/>
<text text-anchor="middle" x="513" y="-466.5" font-family="FreeSans.ttf" font-size="10.00" fill="#000000">iDynTree/Core/EigenHelpers.h</text>
</a>
</g>
</g>
<!-- Node26&#45;&gt;Node28 -->
<g id="edge48" class="edge">
<title>Node26&#45;&gt;Node28</title>
<path fill="none" stroke="#191970" d="M513,-515.2455C513,-507.9382 513,-497.6944 513,-488.7046"/>
<polygon fill="#191970" stroke="#191970" points="516.5001,-488.6426 513,-478.6427 509.5001,-488.6427 516.5001,-488.6426"/>
</g>
<!-- Node28&#45;&gt;Node2 -->
<g id="edge57" class="edge">
<title>Node28&#45;&gt;Node2</title>
<path fill="none" stroke="#191970" d="M470.7984,-459.4581C429.9652,-450.2256 367.1369,-436.0199 317.489,-424.7944"/>
<polygon fill="#191970" stroke="#191970" points="317.9526,-421.3109 307.4269,-422.5193 316.4088,-428.1386 317.9526,-421.3109"/>
</g>
<!-- Node28&#45;&gt;Node3 -->
<g id="edge53" class="edge">
<title>Node28&#45;&gt;Node3</title>
<path fill="none" stroke="#191970" d="M432.4346,-462.9643C342.6117,-455.4825 203.4593,-441.4319 154,-423 96.0156,-401.3911 38,-407.88 38,-346 38,-346 38,-346 38,-290 38,-196.1474 158.4163,-152.3858 236.2892,-133.898"/>
<polygon fill="#191970" stroke="#191970" points="237.5398,-137.2023 246.5062,-131.5584 235.9773,-130.3789 237.5398,-137.2023"/>
</g>
<!-- Node28&#45;&gt;Node4 -->
<g id="edge67" class="edge">
<title>Node28&#45;&gt;Node4</title>
<path fill="none" stroke="#191970" d="M432.274,-462.5918C305.4115,-452.2771 72.0569,-432.2183 56,-423 19.302,-401.9316 0,-388.3157 0,-346 0,-346 0,-346 0,-178 0,-121.9828 64.7056,-92.5924 114.9724,-78.212"/>
<polygon fill="#191970" stroke="#191970" points="116.0811,-81.5376 124.8099,-75.5326 114.2415,-74.7836 116.0811,-81.5376"/>
</g>
<!-- Node28&#45;&gt;Node24 -->
<g id="edge56" class="edge">
<title>Node28&#45;&gt;Node24</title>
<path fill="none" stroke="#191970" d="M512.6236,-459.2957C511.2508,-423.352 506.514,-294.383 505,-188 504.8735,-179.112 503.6917,-176.7921 505,-168 506.3327,-159.0439 509.0494,-149.419 511.7381,-141.3"/>
<polygon fill="#191970" stroke="#191970" points="515.1067,-142.272 515.1376,-131.6772 508.5064,-139.9402 515.1067,-142.272"/>
</g>
<!-- Node28&#45;&gt;Node27 -->
<g id="edge49" class="edge">
<title>Node28&#45;&gt;Node27</title>
<path fill="none" stroke="#191970" d="M593.7067,-466.1221C691.2002,-461.5648 859.8349,-450.2168 1002,-423 1006.6961,-422.1009 1011.5741,-420.9639 1016.3849,-419.7157"/>
<polygon fill="#191970" stroke="#191970" points="1017.377,-423.0728 1026.0853,-417.0381 1015.5145,-416.3251 1017.377,-423.0728"/>
</g>
<!-- Node29 -->
<g id="node30" class="node">
<title>Node29</title>
<g id="a_node30"><a xlink:href="VectorDynSize_8h.html" target="_top" xlink:title="iDynTree/Core/VectorDynSize.h">
<polygon fill="none" stroke="#000000" points="717.5,-112.5 717.5,-131.5 884.5,-131.5 884.5,-112.5 717.5,-112.5"/>
<text text-anchor="middle" x="801" y="-119.5" font-family="FreeSans.ttf" font-size="10.00" fill="#000000">iDynTree/Core/VectorDynSize.h</text>
</a>
</g>
</g>
<!-- Node28&#45;&gt;Node29 -->
<g id="edge50" class="edge">
<title>Node28&#45;&gt;Node29</title>
<path fill="none" stroke="#191970" d="M593.6618,-462.8332C719.9304,-450.9308 950,-419.2004 950,-346 950,-346 950,-346 950,-234 950,-181.35 889.8194,-150.3847 845.9512,-134.8068"/>
<polygon fill="#191970" stroke="#191970" points="846.9053,-131.4346 836.3109,-131.5337 844.6547,-138.0629 846.9053,-131.4346"/>
</g>
<!-- Node30 -->
<g id="node31" class="node">
<title>Node30</title>
<g id="a_node31"><a xlink:href="MatrixDynSize_8h.html" target="_top" xlink:title="iDynTree/Core/MatrixDynSize.h">
<polygon fill="none" stroke="#000000" points="978.5,-280.5 978.5,-299.5 1145.5,-299.5 1145.5,-280.5 978.5,-280.5"/>
<text text-anchor="middle" x="1062" y="-287.5" font-family="FreeSans.ttf" font-size="10.00" fill="#000000">iDynTree/Core/MatrixDynSize.h</text>
</a>
</g>
</g>
<!-- Node28&#45;&gt;Node30 -->
<g id="edge54" class="edge">
<title>Node28&#45;&gt;Node30</title>
<path fill="none" stroke="#191970" d="M593.9784,-464.2975C715.1107,-456.73 932.6862,-440.8754 964,-423 1010.1232,-396.6708 1040.7951,-338.847 1054.2372,-308.8644"/>
<polygon fill="#191970" stroke="#191970" points="1057.522,-310.086 1058.2704,-299.5176 1051.0949,-307.3126 1057.522,-310.086"/>
</g>
<!-- Node31 -->
<g id="node32" class="node">
<title>Node31</title>
<g id="a_node32"><a xlink:href="SpatialForceVector_8h.html" target="_top" xlink:title="iDynTree/Core/SpatialForce\lVector.h">
<polygon fill="none" stroke="#000000" points="337,-392.5 337,-422.5 485,-422.5 485,-392.5 337,-392.5"/>
<text text-anchor="start" x="345" y="-410.5" font-family="FreeSans.ttf" font-size="10.00" fill="#000000">iDynTree/Core/SpatialForce</text>
<text text-anchor="middle" x="411" y="-399.5" font-family="FreeSans.ttf" font-size="10.00" fill="#000000">Vector.h</text>
</a>
</g>
</g>
<!-- Node28&#45;&gt;Node31 -->
<g id="edge58" class="edge">
<title>Node28&#45;&gt;Node31</title>
<path fill="none" stroke="#191970" d="M497.0625,-459.3906C483.1302,-450.9903 462.4316,-438.5103 444.8251,-427.8945"/>
<polygon fill="#191970" stroke="#191970" points="446.323,-424.7108 435.952,-422.5446 442.7086,-430.7054 446.323,-424.7108"/>
</g>
<!-- Node32 -->
<g id="node33" class="node">
<title>Node32</title>
<g id="a_node33"><a xlink:href="Transform_8h.html" target="_top" xlink:title="iDynTree/Core/Transform.h">
<polygon fill="none" stroke="#000000" points="653,-336.5 653,-355.5 799,-355.5 799,-336.5 653,-336.5"/>
<text text-anchor="middle" x="726" y="-343.5" font-family="FreeSans.ttf" font-size="10.00" fill="#000000">iDynTree/Core/Transform.h</text>
</a>
</g>
</g>
<!-- Node28&#45;&gt;Node32 -->
<g id="edge62" class="edge">
<title>Node28&#45;&gt;Node32</title>
<path fill="none" stroke="#191970" d="M529.7138,-459.3484C566.8868,-437.8823 656.5973,-386.0776 700.6841,-360.6191"/>
<polygon fill="#191970" stroke="#191970" points="702.4543,-363.6385 709.3639,-355.6068 698.9538,-357.5766 702.4543,-363.6385"/>
</g>
<!-- Node29&#45;&gt;Node6 -->
<g id="edge51" class="edge">
<title>Node29&#45;&gt;Node6</title>
<path fill="none" stroke="#191970" d="M767.8221,-112.3733C735.4513,-102.9807 686.0602,-88.6496 650.7576,-78.4064"/>
<polygon fill="#191970" stroke="#191970" points="651.3242,-74.9264 640.7449,-75.5011 649.3735,-81.6492 651.3242,-74.9264"/>
</g>
<!-- Node29&#45;&gt;Node15 -->
<g id="edge52" class="edge">
<title>Node29&#45;&gt;Node15</title>
<path fill="none" stroke="#191970" d="M801,-112.2455C801,-104.9382 801,-94.6944 801,-85.7046"/>
<polygon fill="#191970" stroke="#191970" points="804.5001,-85.6426 801,-75.6427 797.5001,-85.6427 804.5001,-85.6426"/>
</g>
<!-- Node30&#45;&gt;Node15 -->
<g id="edge55" class="edge">
<title>Node30&#45;&gt;Node15</title>
<path fill="none" stroke="#191970" d="M1064.2692,-280.3059C1070.585,-250.646 1085.0841,-160.2189 1040,-112 1012.3571,-82.435 892.2424,-71.3587 833.538,-67.6563"/>
<polygon fill="#191970" stroke="#191970" points="833.5178,-64.149 823.3273,-67.048 833.1015,-71.1366 833.5178,-64.149"/>
</g>
<!-- Node31&#45;&gt;Node3 -->
<g id="edge59" class="edge">
<title>Node31&#45;&gt;Node3</title>
<path fill="none" stroke="#191970" d="M410.4455,-392.2412C408.3572,-352.3712 398.4727,-242.9815 352,-168 344.737,-156.2815 333.631,-145.7647 323.635,-137.7546"/>
<polygon fill="#191970" stroke="#191970" points="325.6852,-134.9165 315.6083,-131.6444 321.4452,-140.4864 325.6852,-134.9165"/>
</g>
<!-- Node31&#45;&gt;Node18 -->
<g id="edge60" class="edge">
<title>Node31&#45;&gt;Node18</title>
<path fill="none" stroke="#191970" d="M405.2903,-392.2432C399.4935,-377.4376 389.8461,-354.5493 379,-336 347.3043,-281.7932 300.7416,-223.9001 277.048,-195.6127"/>
<polygon fill="#191970" stroke="#191970" points="279.5959,-193.2049 270.4708,-187.8212 274.2469,-197.7203 279.5959,-193.2049"/>
</g>
<!-- Node31&#45;&gt;Node19 -->
<g id="edge61" class="edge">
<title>Node31&#45;&gt;Node19</title>
<path fill="none" stroke="#191970" d="M381.4001,-392.4554C362.0078,-382.599 336.8258,-369.7999 317.8057,-360.1327"/>
<polygon fill="#191970" stroke="#191970" points="319.2512,-356.9412 308.7507,-355.5303 316.0795,-363.1815 319.2512,-356.9412"/>
</g>
<!-- Node32&#45;&gt;Node15 -->
<g id="edge66" class="edge">
<title>Node32&#45;&gt;Node15</title>
<path fill="none" stroke="#191970" d="M754.2444,-336.4726C774.3066,-328.7665 801.1052,-316.4864 821,-300 888.7972,-243.8179 909.6159,-218.5127 926,-132 927.654,-123.2664 931.0855,-119.2904 926,-112 915.0596,-96.3162 866.0817,-81.6977 832.7815,-73.3143"/>
<polygon fill="#191970" stroke="#191970" points="833.5556,-69.9005 823.0098,-70.9185 831.8887,-76.6991 833.5556,-69.9005"/>
</g>
<!-- Node32&#45;&gt;Node20 -->
<g id="edge63" class="edge">
<title>Node32&#45;&gt;Node20</title>
<path fill="none" stroke="#191970" d="M726,-336.2455C726,-328.9382 726,-318.6944 726,-309.7046"/>
<polygon fill="#191970" stroke="#191970" points="729.5001,-309.6426 726,-299.6427 722.5001,-309.6427 729.5001,-309.6426"/>
</g>
<!-- Node32&#45;&gt;Node22 -->
<g id="edge64" class="edge">
<title>Node32&#45;&gt;Node22</title>
<path fill="none" stroke="#191970" d="M714.6605,-336.4509C691.8888,-317.2747 640.3768,-273.8962 612.2361,-250.1988"/>
<polygon fill="#191970" stroke="#191970" points="614.2144,-247.2891 604.3108,-243.5249 609.7055,-252.6435 614.2144,-247.2891"/>
</g>
<!-- Node32&#45;&gt;Node24 -->
<g id="edge65" class="edge">
<title>Node32&#45;&gt;Node24</title>
<path fill="none" stroke="#191970" d="M742.4249,-336.4785C787.7023,-309.0962 907.563,-228.2494 855,-168 839.0114,-149.6734 703.692,-135.8413 609.741,-128.3363"/>
<polygon fill="#191970" stroke="#191970" points="609.8875,-124.8371 599.6436,-127.5412 609.3379,-131.8155 609.8875,-124.8371"/>
</g>
</g>
</svg>
