<?xml version="1.0" encoding="UTF-8" standalone="no"?>
<!DOCTYPE svg PUBLIC "-//W3C//DTD SVG 1.1//EN"
 "http://www.w3.org/Graphics/SVG/1.1/DTD/svg11.dtd">
<!-- Generated by graphviz version 2.40.1 (20161225.0304)
 -->
<!-- Title: SpatialInertia.cpp Pages: 1 -->
<svg width="1538pt" height="621pt"
 viewBox="0.00 0.00 1537.50 621.00" xmlns="http://www.w3.org/2000/svg" xmlns:xlink="http://www.w3.org/1999/xlink">
<g id="graph0" class="graph" transform="scale(1 1) rotate(0) translate(4 617)">
<title>SpatialInertia.cpp</title>
<!-- Node0 -->
<g id="node1" class="node">
<title>Node0</title>
<polygon fill="#bfbfbf" stroke="#000000" points="574,-593.5 574,-612.5 676,-612.5 676,-593.5 574,-593.5"/>
<text text-anchor="middle" x="625" y="-600.5" font-family="FreeSans.ttf" font-size="10.00" fill="#000000">SpatialInertia.cpp</text>
</g>
<!-- Node1 -->
<g id="node2" class="node">
<title>Node1</title>
<g id="a_node2"><a xlink:href="Position_8h.html" target="_top" xlink:title="iDynTree/Core/Position.h">
<polygon fill="none" stroke="#000000" points="1109,-286 1109,-305 1245,-305 1245,-286 1109,-286"/>
<text text-anchor="middle" x="1177" y="-293" font-family="FreeSans.ttf" font-size="10.00" fill="#000000">iDynTree/Core/Position.h</text>
</a>
</g>
</g>
<!-- Node0&#45;&gt;Node1 -->
<g id="edge1" class="edge">
<title>Node0&#45;&gt;Node1</title>
<path fill="none" stroke="#191970" d="M676.1839,-598.887C826.6413,-586.1173 1257,-544.44 1257,-485.5 1257,-485.5 1257,-485.5 1257,-418.5 1257,-384.532 1248.6269,-375.4054 1230,-347 1221.254,-333.6627 1208.5045,-321.1346 1197.7019,-311.7748"/>
<polygon fill="#191970" stroke="#191970" points="1199.8378,-308.9985 1189.9193,-305.274 1195.3503,-314.3709 1199.8378,-308.9985"/>
</g>
<!-- Node7 -->
<g id="node8" class="node">
<title>Node7</title>
<polygon fill="none" stroke="#bfbfbf" points="552,-.5 552,-19.5 604,-19.5 604,-.5 552,-.5"/>
<text text-anchor="middle" x="578" y="-7.5" font-family="FreeSans.ttf" font-size="10.00" fill="#000000">cassert</text>
</g>
<!-- Node0&#45;&gt;Node7 -->
<g id="edge83" class="edge">
<title>Node0&#45;&gt;Node7</title>
<path fill="none" stroke="#191970" d="M573.7098,-600.736C445.2724,-594.7837 116.8829,-577.7176 72,-557 31.0537,-538.0995 0,-530.598 0,-485.5 0,-485.5 0,-485.5 0,-122 0,-66.574 414.9315,-24.6682 541.6725,-13.1608"/>
<polygon fill="#191970" stroke="#191970" points="542.0162,-16.6441 551.6626,-12.2628 541.3894,-9.6722 542.0162,-16.6441"/>
</g>
<!-- Node16 -->
<g id="node17" class="node">
<title>Node16</title>
<polygon fill="none" stroke="#bfbfbf" points="390,-56.5 390,-75.5 446,-75.5 446,-56.5 390,-56.5"/>
<text text-anchor="middle" x="418" y="-63.5" font-family="FreeSans.ttf" font-size="10.00" fill="#000000">sstream</text>
</g>
<!-- Node0&#45;&gt;Node16 -->
<g id="edge85" class="edge">
<title>Node0&#45;&gt;Node16</title>
<path fill="none" stroke="#191970" d="M573.5967,-601.103C452.608,-595.4491 155.4897,-574.2411 95,-501 -36.2869,-342.0374 294.0023,-136.4058 391.7288,-80.5425"/>
<polygon fill="#191970" stroke="#191970" points="393.4604,-83.5842 400.4369,-75.6105 390.0106,-77.4932 393.4604,-83.5842"/>
</g>
<!-- Node22 -->
<g id="node23" class="node">
<title>Node22</title>
<polygon fill="none" stroke="#bfbfbf" points="203,-56.5 203,-75.5 263,-75.5 263,-56.5 203,-56.5"/>
<text text-anchor="middle" x="233" y="-63.5" font-family="FreeSans.ttf" font-size="10.00" fill="#000000">iostream</text>
</g>
<!-- Node0&#45;&gt;Node22 -->
<g id="edge84" class="edge">
<title>Node0&#45;&gt;Node22</title>
<path fill="none" stroke="#191970" d="M573.6362,-601.0563C467.4512,-596.546 227.2403,-583.6603 150,-557 94.1754,-537.7316 38,-544.5564 38,-485.5 38,-485.5 38,-485.5 38,-178 38,-107.2498 135.717,-80.5422 192.8046,-70.976"/>
<polygon fill="#191970" stroke="#191970" points="193.6222,-74.3907 202.9586,-69.3825 192.5369,-67.4753 193.6222,-74.3907"/>
</g>
<!-- Node23 -->
<g id="node24" class="node">
<title>Node23</title>
<g id="a_node24"><a xlink:href="SpatialInertia_8h.html" target="_top" xlink:title="iDynTree/Core/SpatialInertia.h">
<polygon fill="none" stroke="#000000" points="435,-537.5 435,-556.5 597,-556.5 597,-537.5 435,-537.5"/>
<text text-anchor="middle" x="516" y="-544.5" font-family="FreeSans.ttf" font-size="10.00" fill="#000000">iDynTree/Core/SpatialInertia.h</text>
</a>
</g>
</g>
<!-- Node0&#45;&gt;Node23 -->
<g id="edge36" class="edge">
<title>Node0&#45;&gt;Node23</title>
<path fill="none" stroke="#191970" d="M606.0136,-593.2455C588.8208,-584.4125 563.2762,-571.2887 543.7868,-561.2758"/>
<polygon fill="#191970" stroke="#191970" points="545.263,-558.0993 534.7688,-556.6427 542.0641,-564.3257 545.263,-558.0993"/>
</g>
<!-- Node26 -->
<g id="node27" class="node">
<title>Node26</title>
<g id="a_node27"><a xlink:href="Twist_8h.html" target="_top" xlink:title="iDynTree/Core/Twist.h">
<polygon fill="none" stroke="#000000" points="480,-476 480,-495 602,-495 602,-476 480,-476"/>
<text text-anchor="middle" x="541" y="-483" font-family="FreeSans.ttf" font-size="10.00" fill="#000000">iDynTree/Core/Twist.h</text>
</a>
</g>
</g>
<!-- Node0&#45;&gt;Node26 -->
<g id="edge62" class="edge">
<title>Node0&#45;&gt;Node26</title>
<path fill="none" stroke="#191970" d="M624.0745,-593.2624C622.3871,-579.6514 617.8177,-554.6297 606,-537 596.0044,-522.0884 580.3259,-509.4853 566.8716,-500.4793"/>
<polygon fill="#191970" stroke="#191970" points="568.7456,-497.5234 558.4334,-495.0925 564.979,-503.4236 568.7456,-497.5234"/>
</g>
<!-- Node29 -->
<g id="node30" class="node">
<title>Node29</title>
<g id="a_node30"><a xlink:href="SpatialMomentum_8h.html" target="_top" xlink:title="iDynTree/Core/SpatialMomentum.h">
<polygon fill="none" stroke="#000000" points="620,-476 620,-495 806,-495 806,-476 620,-476"/>
<text text-anchor="middle" x="713" y="-483" font-family="FreeSans.ttf" font-size="10.00" fill="#000000">iDynTree/Core/SpatialMomentum.h</text>
</a>
</g>
</g>
<!-- Node0&#45;&gt;Node29 -->
<g id="edge61" class="edge">
<title>Node0&#45;&gt;Node29</title>
<path fill="none" stroke="#191970" d="M632.2014,-593.3845C646.8982,-573.761 680.5505,-528.8274 699.4613,-503.5772"/>
<polygon fill="#191970" stroke="#191970" points="702.5059,-505.3506 705.6991,-495.2484 696.9031,-501.1544 702.5059,-505.3506"/>
</g>
<!-- Node31 -->
<g id="node32" class="node">
<title>Node31</title>
<g id="a_node32"><a xlink:href="SpatialAcc_8h.html" target="_top" xlink:title="iDynTree/Core/SpatialAcc.h">
<polygon fill="none" stroke="#000000" points="276,-476 276,-495 424,-495 424,-476 276,-476"/>
<text text-anchor="middle" x="350" y="-483" font-family="FreeSans.ttf" font-size="10.00" fill="#000000">iDynTree/Core/SpatialAcc.h</text>
</a>
</g>
</g>
<!-- Node0&#45;&gt;Node31 -->
<g id="edge63" class="edge">
<title>Node0&#45;&gt;Node31</title>
<path fill="none" stroke="#191970" d="M573.7637,-598.6133C531.9605,-593.3319 472.4359,-581.83 426,-557 400.6966,-543.4699 377.611,-519.3117 363.6852,-502.8562"/>
<polygon fill="#191970" stroke="#191970" points="366.326,-500.557 357.2746,-495.0503 360.9164,-504.9996 366.326,-500.557"/>
</g>
<!-- Node32 -->
<g id="node33" class="node">
<title>Node32</title>
<g id="a_node33"><a xlink:href="Wrench_8h.html" target="_top" xlink:title="iDynTree/Core/Wrench.h">
<polygon fill="none" stroke="#000000" points="824.5,-476 824.5,-495 957.5,-495 957.5,-476 824.5,-476"/>
<text text-anchor="middle" x="891" y="-483" font-family="FreeSans.ttf" font-size="10.00" fill="#000000">iDynTree/Core/Wrench.h</text>
</a>
</g>
</g>
<!-- Node0&#45;&gt;Node32 -->
<g id="edge64" class="edge">
<title>Node0&#45;&gt;Node32</title>
<path fill="none" stroke="#191970" d="M646.7679,-593.3845C693.9396,-572.5474 805.7152,-523.1728 860.1466,-499.1289"/>
<polygon fill="#191970" stroke="#191970" points="861.5713,-502.3258 869.3044,-495.0836 858.7428,-495.9227 861.5713,-502.3258"/>
</g>
<!-- Node33 -->
<g id="node34" class="node">
<title>Node33</title>
<polygon fill="none" stroke="#bfbfbf" points="1151.5,-409 1151.5,-428 1228.5,-428 1228.5,-409 1151.5,-409"/>
<text text-anchor="middle" x="1190" y="-416" font-family="FreeSans.ttf" font-size="10.00" fill="#000000">Eigen/Dense</text>
</g>
<!-- Node0&#45;&gt;Node33 -->
<g id="edge65" class="edge">
<title>Node0&#45;&gt;Node33</title>
<path fill="none" stroke="#191970" d="M676.0676,-598.5696C792.1314,-587.6344 1071.4489,-556.1696 1146,-501 1166.9308,-485.5107 1178.9068,-457.0406 1184.9321,-437.939"/>
<polygon fill="#191970" stroke="#191970" points="1188.336,-438.7667 1187.7507,-428.1881 1181.6114,-436.8228 1188.336,-438.7667"/>
</g>
<!-- Node34 -->
<g id="node35" class="node">
<title>Node34</title>
<g id="a_node35"><a xlink:href="EigenHelpers_8h.html" target="_top" xlink:title="iDynTree/Core/EigenHelpers.h">
<polygon fill="none" stroke="#000000" points="975.5,-476 975.5,-495 1136.5,-495 1136.5,-476 975.5,-476"/>
<text text-anchor="middle" x="1056" y="-483" font-family="FreeSans.ttf" font-size="10.00" fill="#000000">iDynTree/Core/EigenHelpers.h</text>
</a>
</g>
</g>
<!-- Node0&#45;&gt;Node34 -->
<g id="edge66" class="edge">
<title>Node0&#45;&gt;Node34</title>
<path fill="none" stroke="#191970" d="M659.9055,-593.484C737.6883,-572.2787 925.1656,-521.1683 1011.3254,-497.6793"/>
<polygon fill="#191970" stroke="#191970" points="1012.3427,-501.0297 1021.07,-495.0227 1010.5015,-494.2762 1012.3427,-501.0297"/>
</g>
<!-- Node2 -->
<g id="node3" class="node">
<title>Node2</title>
<g id="a_node3"><a xlink:href="PositionRaw_8h.html" target="_top" xlink:title="iDynTree/Core/PositionRaw.h">
<polygon fill="none" stroke="#000000" points="1113,-168.5 1113,-187.5 1269,-187.5 1269,-168.5 1113,-168.5"/>
<text text-anchor="middle" x="1191" y="-175.5" font-family="FreeSans.ttf" font-size="10.00" fill="#000000">iDynTree/Core/PositionRaw.h</text>
</a>
</g>
</g>
<!-- Node1&#45;&gt;Node2 -->
<g id="edge2" class="edge">
<title>Node1&#45;&gt;Node2</title>
<path fill="none" stroke="#191970" d="M1178.1457,-285.8845C1180.4325,-266.6913 1185.6042,-223.286 1188.6449,-197.7663"/>
<polygon fill="#191970" stroke="#191970" points="1192.1307,-198.0923 1189.8385,-187.7484 1185.1799,-197.264 1192.1307,-198.0923"/>
</g>
<!-- Node15 -->
<g id="node16" class="node">
<title>Node15</title>
<polygon fill="none" stroke="#bfbfbf" points="1136,-56.5 1136,-75.5 1180,-75.5 1180,-56.5 1136,-56.5"/>
<text text-anchor="middle" x="1158" y="-63.5" font-family="FreeSans.ttf" font-size="10.00" fill="#000000">string</text>
</g>
<!-- Node1&#45;&gt;Node15 -->
<g id="edge35" class="edge">
<title>Node1&#45;&gt;Node15</title>
<path fill="none" stroke="#191970" d="M1195.1392,-285.8987C1230.0499,-266.0416 1301.1723,-218.1088 1278,-168 1259.256,-127.4672 1215.5858,-97.1365 1186.4237,-80.4882"/>
<polygon fill="#191970" stroke="#191970" points="1187.9611,-77.339 1177.5153,-75.5681 1184.5768,-83.4665 1187.9611,-77.339"/>
</g>
<!-- Node18 -->
<g id="node19" class="node">
<title>Node18</title>
<g id="a_node19"><a xlink:href="Rotation_8h.html" target="_top" xlink:title="iDynTree/Core/Rotation.h">
<polygon fill="none" stroke="#000000" points="833.5,-224.5 833.5,-243.5 970.5,-243.5 970.5,-224.5 833.5,-224.5"/>
<text text-anchor="middle" x="902" y="-231.5" font-family="FreeSans.ttf" font-size="10.00" fill="#000000">iDynTree/Core/Rotation.h</text>
</a>
</g>
</g>
<!-- Node1&#45;&gt;Node18 -->
<g id="edge21" class="edge">
<title>Node1&#45;&gt;Node18</title>
<path fill="none" stroke="#191970" d="M1134.333,-285.9581C1085.9622,-275.1406 1007.0631,-257.4959 954.8393,-245.8168"/>
<polygon fill="#191970" stroke="#191970" points="955.2899,-242.3312 944.7671,-243.5643 953.7622,-249.1624 955.2899,-242.3312"/>
</g>
<!-- Node3 -->
<g id="node4" class="node">
<title>Node3</title>
<g id="a_node4"><a xlink:href="VectorFixSize_8h.html" target="_top" xlink:title="iDynTree/Core/VectorFixSize.h">
<polygon fill="none" stroke="#000000" points="708.5,-112.5 708.5,-131.5 869.5,-131.5 869.5,-112.5 708.5,-112.5"/>
<text text-anchor="middle" x="789" y="-119.5" font-family="FreeSans.ttf" font-size="10.00" fill="#000000">iDynTree/Core/VectorFixSize.h</text>
</a>
</g>
</g>
<!-- Node2&#45;&gt;Node3 -->
<g id="edge3" class="edge">
<title>Node2&#45;&gt;Node3</title>
<path fill="none" stroke="#191970" d="M1122.3505,-168.4369C1051.6723,-158.5912 941.6915,-143.2705 867.5782,-132.9462"/>
<polygon fill="#191970" stroke="#191970" points="867.7536,-129.4369 857.3663,-131.5237 866.7878,-136.37 867.7536,-129.4369"/>
</g>
<!-- Node2&#45;&gt;Node15 -->
<g id="edge20" class="edge">
<title>Node2&#45;&gt;Node15</title>
<path fill="none" stroke="#191970" d="M1188.2137,-168.1465C1184.551,-155.2346 1177.8904,-131.8935 1172,-112 1169.3963,-103.2065 1166.4491,-93.489 1163.9326,-85.2598"/>
<polygon fill="#191970" stroke="#191970" points="1167.218,-84.0351 1160.9378,-75.5021 1160.526,-86.089 1167.218,-84.0351"/>
</g>
<!-- Node4 -->
<g id="node5" class="node">
<title>Node4</title>
<g id="a_node5"><a xlink:href="Utils_8h.html" target="_top" xlink:title="iDynTree/Core/Utils.h">
<polygon fill="none" stroke="#000000" points="641.5,-56.5 641.5,-75.5 760.5,-75.5 760.5,-56.5 641.5,-56.5"/>
<text text-anchor="middle" x="701" y="-63.5" font-family="FreeSans.ttf" font-size="10.00" fill="#000000">iDynTree/Core/Utils.h</text>
</a>
</g>
</g>
<!-- Node3&#45;&gt;Node4 -->
<g id="edge4" class="edge">
<title>Node3&#45;&gt;Node4</title>
<path fill="none" stroke="#191970" d="M773.6716,-112.2455C760.1697,-103.6534 740.2878,-91.0014 724.7314,-81.1018"/>
<polygon fill="#191970" stroke="#191970" points="726.4685,-78.0587 716.1528,-75.6427 722.7103,-83.9643 726.4685,-78.0587"/>
</g>
<!-- Node6 -->
<g id="node7" class="node">
<title>Node6</title>
<g id="a_node7"><a xlink:href="Span_8h.html" target="_top" xlink:title="iDynTree/Core/Span.h">
<polygon fill="none" stroke="#000000" points="835.5,-56.5 835.5,-75.5 956.5,-75.5 956.5,-56.5 835.5,-56.5"/>
<text text-anchor="middle" x="896" y="-63.5" font-family="FreeSans.ttf" font-size="10.00" fill="#000000">iDynTree/Core/Span.h</text>
</a>
</g>
</g>
<!-- Node3&#45;&gt;Node6 -->
<g id="edge6" class="edge">
<title>Node3&#45;&gt;Node6</title>
<path fill="none" stroke="#191970" d="M807.638,-112.2455C824.4386,-103.4527 849.3634,-90.4079 868.4618,-80.4125"/>
<polygon fill="#191970" stroke="#191970" points="870.3386,-83.3807 877.5756,-75.6427 867.0927,-77.1787 870.3386,-83.3807"/>
</g>
<!-- Node3&#45;&gt;Node7 -->
<g id="edge18" class="edge">
<title>Node3&#45;&gt;Node7</title>
<path fill="none" stroke="#191970" d="M789.0875,-112.4027C788.6725,-98.0273 785.6875,-70.9947 770,-56 758.7337,-45.2312 666.5659,-26.5458 614.136,-16.6279"/>
<polygon fill="#191970" stroke="#191970" points="614.6896,-13.1708 604.2156,-14.7662 613.3985,-20.0507 614.6896,-13.1708"/>
</g>
<!-- Node3&#45;&gt;Node15 -->
<g id="edge16" class="edge">
<title>Node3&#45;&gt;Node15</title>
<path fill="none" stroke="#191970" d="M852.0141,-112.4369C931.2405,-100.4134 1064.2681,-80.2249 1125.4361,-70.942"/>
<polygon fill="#191970" stroke="#191970" points="1126.2879,-74.3528 1135.6495,-69.3919 1125.2376,-67.4321 1126.2879,-74.3528"/>
</g>
<!-- Node3&#45;&gt;Node16 -->
<g id="edge17" class="edge">
<title>Node3&#45;&gt;Node16</title>
<path fill="none" stroke="#191970" d="M725.6444,-112.4369C648.2073,-100.7483 519.6488,-81.3432 456.0449,-71.7426"/>
<polygon fill="#191970" stroke="#191970" points="456.4567,-68.2652 446.0463,-70.2334 455.4119,-75.1868 456.4567,-68.2652"/>
</g>
<!-- Node17 -->
<g id="node18" class="node">
<title>Node17</title>
<polygon fill="none" stroke="#bfbfbf" points="573,-56.5 573,-75.5 623,-75.5 623,-56.5 573,-56.5"/>
<text text-anchor="middle" x="598" y="-63.5" font-family="FreeSans.ttf" font-size="10.00" fill="#000000">cstring</text>
</g>
<!-- Node3&#45;&gt;Node17 -->
<g id="edge19" class="edge">
<title>Node3&#45;&gt;Node17</title>
<path fill="none" stroke="#191970" d="M756.1659,-112.3733C721.8007,-102.2976 668.0525,-86.539 632.925,-76.2398"/>
<polygon fill="#191970" stroke="#191970" points="633.6842,-72.8151 623.1033,-73.3601 631.7147,-79.5323 633.6842,-72.8151"/>
</g>
<!-- Node5 -->
<g id="node6" class="node">
<title>Node5</title>
<polygon fill="none" stroke="#bfbfbf" points="655.5,-.5 655.5,-19.5 708.5,-19.5 708.5,-.5 655.5,-.5"/>
<text text-anchor="middle" x="682" y="-7.5" font-family="FreeSans.ttf" font-size="10.00" fill="#000000">cstddef</text>
</g>
<!-- Node4&#45;&gt;Node5 -->
<g id="edge5" class="edge">
<title>Node4&#45;&gt;Node5</title>
<path fill="none" stroke="#191970" d="M697.6905,-56.2455C695.1567,-48.7776 691.5823,-38.2427 688.485,-29.1137"/>
<polygon fill="#191970" stroke="#191970" points="691.7991,-27.9879 685.2716,-19.6427 685.1702,-30.237 691.7991,-27.9879"/>
</g>
<!-- Node6&#45;&gt;Node5 -->
<g id="edge10" class="edge">
<title>Node6&#45;&gt;Node5</title>
<path fill="none" stroke="#191970" d="M858.0993,-56.4165C824.071,-47.7651 772.5036,-34.539 718.4766,-20.0947"/>
<polygon fill="#191970" stroke="#191970" points="719.2869,-16.6884 708.7217,-17.4805 717.4748,-23.4498 719.2869,-16.6884"/>
</g>
<!-- Node6&#45;&gt;Node7 -->
<g id="edge7" class="edge">
<title>Node6&#45;&gt;Node7</title>
<path fill="none" stroke="#191970" d="M841.6952,-56.4369C776.8678,-45.0208 670.2414,-26.2438 614.5122,-16.4298"/>
<polygon fill="#191970" stroke="#191970" points="614.8516,-12.9358 604.3961,-14.6484 613.6375,-19.8297 614.8516,-12.9358"/>
</g>
<!-- Node8 -->
<g id="node9" class="node">
<title>Node8</title>
<polygon fill="none" stroke="#bfbfbf" points="727,-.5 727,-19.5 791,-19.5 791,-.5 727,-.5"/>
<text text-anchor="middle" x="759" y="-7.5" font-family="FreeSans.ttf" font-size="10.00" fill="#000000">algorithm</text>
</g>
<!-- Node6&#45;&gt;Node8 -->
<g id="edge8" class="edge">
<title>Node6&#45;&gt;Node8</title>
<path fill="none" stroke="#191970" d="M872.4489,-56.3733C850.1609,-47.2629 816.5063,-33.5062 791.6363,-23.3404"/>
<polygon fill="#191970" stroke="#191970" points="792.8247,-20.0451 782.2438,-19.5011 790.1761,-26.5247 792.8247,-20.0451"/>
</g>
<!-- Node9 -->
<g id="node10" class="node">
<title>Node9</title>
<polygon fill="none" stroke="#bfbfbf" points="809,-.5 809,-19.5 851,-19.5 851,-.5 809,-.5"/>
<text text-anchor="middle" x="830" y="-7.5" font-family="FreeSans.ttf" font-size="10.00" fill="#000000">array</text>
</g>
<!-- Node6&#45;&gt;Node9 -->
<g id="edge9" class="edge">
<title>Node6&#45;&gt;Node9</title>
<path fill="none" stroke="#191970" d="M884.5037,-56.2455C874.7558,-47.9746 860.5741,-35.9416 849.1202,-26.2232"/>
<polygon fill="#191970" stroke="#191970" points="851.2541,-23.4437 841.3646,-19.6427 846.7253,-28.7813 851.2541,-23.4437"/>
</g>
<!-- Node10 -->
<g id="node11" class="node">
<title>Node10</title>
<polygon fill="none" stroke="#bfbfbf" points="869.5,-.5 869.5,-19.5 922.5,-19.5 922.5,-.5 869.5,-.5"/>
<text text-anchor="middle" x="896" y="-7.5" font-family="FreeSans.ttf" font-size="10.00" fill="#000000">iterator</text>
</g>
<!-- Node6&#45;&gt;Node10 -->
<g id="edge11" class="edge">
<title>Node6&#45;&gt;Node10</title>
<path fill="none" stroke="#191970" d="M896,-56.2455C896,-48.9382 896,-38.6944 896,-29.7046"/>
<polygon fill="#191970" stroke="#191970" points="899.5001,-29.6426 896,-19.6427 892.5001,-29.6427 899.5001,-29.6426"/>
</g>
<!-- Node11 -->
<g id="node12" class="node">
<title>Node11</title>
<polygon fill="none" stroke="#bfbfbf" points="941,-.5 941,-19.5 985,-19.5 985,-.5 941,-.5"/>
<text text-anchor="middle" x="963" y="-7.5" font-family="FreeSans.ttf" font-size="10.00" fill="#000000">limits</text>
</g>
<!-- Node6&#45;&gt;Node11 -->
<g id="edge12" class="edge">
<title>Node6&#45;&gt;Node11</title>
<path fill="none" stroke="#191970" d="M907.6705,-56.2455C917.5661,-47.9746 931.9627,-35.9416 943.5901,-26.2232"/>
<polygon fill="#191970" stroke="#191970" points="946.035,-28.7413 951.4632,-19.6427 941.5458,-23.3703 946.035,-28.7413"/>
</g>
<!-- Node12 -->
<g id="node13" class="node">
<title>Node12</title>
<polygon fill="none" stroke="#bfbfbf" points="1003.5,-.5 1003.5,-19.5 1068.5,-19.5 1068.5,-.5 1003.5,-.5"/>
<text text-anchor="middle" x="1036" y="-7.5" font-family="FreeSans.ttf" font-size="10.00" fill="#000000">stdexcept</text>
</g>
<!-- Node6&#45;&gt;Node12 -->
<g id="edge13" class="edge">
<title>Node6&#45;&gt;Node12</title>
<path fill="none" stroke="#191970" d="M920.0669,-56.3733C942.8428,-47.2629 977.2344,-33.5062 1002.649,-23.3404"/>
<polygon fill="#191970" stroke="#191970" points="1004.2623,-26.4648 1012.2472,-19.5011 1001.6625,-19.9654 1004.2623,-26.4648"/>
</g>
<!-- Node13 -->
<g id="node14" class="node">
<title>Node13</title>
<polygon fill="none" stroke="#bfbfbf" points="1086.5,-.5 1086.5,-19.5 1155.5,-19.5 1155.5,-.5 1086.5,-.5"/>
<text text-anchor="middle" x="1121" y="-7.5" font-family="FreeSans.ttf" font-size="10.00" fill="#000000">type_traits</text>
</g>
<!-- Node6&#45;&gt;Node13 -->
<g id="edge14" class="edge">
<title>Node6&#45;&gt;Node13</title>
<path fill="none" stroke="#191970" d="M934.4232,-56.4369C973.8471,-46.6247 1035.119,-31.3748 1076.5948,-21.052"/>
<polygon fill="#191970" stroke="#191970" points="1077.5685,-24.4165 1086.4271,-18.6048 1075.8778,-17.6237 1077.5685,-24.4165"/>
</g>
<!-- Node14 -->
<g id="node15" class="node">
<title>Node14</title>
<polygon fill="none" stroke="#bfbfbf" points="1173.5,-.5 1173.5,-19.5 1218.5,-19.5 1218.5,-.5 1173.5,-.5"/>
<text text-anchor="middle" x="1196" y="-7.5" font-family="FreeSans.ttf" font-size="10.00" fill="#000000">utility</text>
</g>
<!-- Node6&#45;&gt;Node14 -->
<g id="edge15" class="edge">
<title>Node6&#45;&gt;Node14</title>
<path fill="none" stroke="#191970" d="M956.6026,-58.1578C1009.2073,-50.7799 1087.5095,-38.4308 1163.6628,-20.0825"/>
<polygon fill="#191970" stroke="#191970" points="1164.5384,-23.4716 1173.42,-17.6952 1162.8747,-16.6722 1164.5384,-23.4716"/>
</g>
<!-- Node18&#45;&gt;Node3 -->
<g id="edge34" class="edge">
<title>Node18&#45;&gt;Node3</title>
<path fill="none" stroke="#191970" d="M871.5359,-224.3904C852.7216,-217.0747 829.3293,-205.2813 814,-188 802.3373,-174.8521 795.8954,-155.7179 792.4852,-141.4332"/>
<polygon fill="#191970" stroke="#191970" points="795.9086,-140.7041 790.4322,-131.6344 789.0573,-142.1397 795.9086,-140.7041"/>
</g>
<!-- Node18&#45;&gt;Node15 -->
<g id="edge22" class="edge">
<title>Node18&#45;&gt;Node15</title>
<path fill="none" stroke="#191970" d="M958.1503,-224.4469C1012.3802,-212.2922 1093.0064,-186.0062 1140,-132 1151.0732,-119.2744 1155.4,-100.3537 1157.0579,-86.0292"/>
<polygon fill="#191970" stroke="#191970" points="1160.573,-85.983 1157.8931,-75.7327 1153.596,-85.417 1160.573,-85.983"/>
</g>
<!-- Node19 -->
<g id="node20" class="node">
<title>Node19</title>
<g id="a_node20"><a xlink:href="GeomVector3_8h.html" target="_top" xlink:title="iDynTree/Core/GeomVector3.h">
<polygon fill="none" stroke="#000000" points="451.5,-168.5 451.5,-187.5 614.5,-187.5 614.5,-168.5 451.5,-168.5"/>
<text text-anchor="middle" x="533" y="-175.5" font-family="FreeSans.ttf" font-size="10.00" fill="#000000">iDynTree/Core/GeomVector3.h</text>
</a>
</g>
</g>
<!-- Node18&#45;&gt;Node19 -->
<g id="edge23" class="edge">
<title>Node18&#45;&gt;Node19</title>
<path fill="none" stroke="#191970" d="M838.9859,-224.4369C774.375,-214.6314 673.9823,-199.3957 605.9641,-189.0731"/>
<polygon fill="#191970" stroke="#191970" points="606.1662,-185.5638 595.7542,-187.5237 605.1158,-192.4846 606.1662,-185.5638"/>
</g>
<!-- Node20 -->
<g id="node21" class="node">
<title>Node20</title>
<g id="a_node21"><a xlink:href="RotationRaw_8h.html" target="_top" xlink:title="iDynTree/Core/RotationRaw.h">
<polygon fill="none" stroke="#000000" points="823,-168.5 823,-187.5 981,-187.5 981,-168.5 823,-168.5"/>
<text text-anchor="middle" x="902" y="-175.5" font-family="FreeSans.ttf" font-size="10.00" fill="#000000">iDynTree/Core/RotationRaw.h</text>
</a>
</g>
</g>
<!-- Node18&#45;&gt;Node20 -->
<g id="edge25" class="edge">
<title>Node18&#45;&gt;Node20</title>
<path fill="none" stroke="#191970" d="M902,-224.2455C902,-216.9382 902,-206.6944 902,-197.7046"/>
<polygon fill="#191970" stroke="#191970" points="905.5001,-197.6426 902,-187.6427 898.5001,-197.6427 905.5001,-197.6426"/>
</g>
<!-- Node19&#45;&gt;Node3 -->
<g id="edge24" class="edge">
<title>Node19&#45;&gt;Node3</title>
<path fill="none" stroke="#191970" d="M576.7171,-168.4369C620.6216,-158.8328 688.3413,-144.0191 735.445,-133.7152"/>
<polygon fill="#191970" stroke="#191970" points="736.4422,-137.0799 745.4632,-131.5237 734.9463,-130.2416 736.4422,-137.0799"/>
</g>
<!-- Node20&#45;&gt;Node15 -->
<g id="edge33" class="edge">
<title>Node20&#45;&gt;Node15</title>
<path fill="none" stroke="#191970" d="M907.0397,-168.1968C915.0993,-153.5526 932.3185,-126.1736 955,-112 983.2525,-94.3451 1076.1163,-78.259 1125.862,-70.6406"/>
<polygon fill="#191970" stroke="#191970" points="1126.4169,-74.0966 1135.784,-69.1459 1125.3741,-67.1747 1126.4169,-74.0966"/>
</g>
<!-- Node21 -->
<g id="node22" class="node">
<title>Node21</title>
<g id="a_node22"><a xlink:href="MatrixFixSize_8h.html" target="_top" xlink:title="iDynTree/Core/MatrixFixSize.h">
<polygon fill="none" stroke="#000000" points="477.5,-112.5 477.5,-131.5 638.5,-131.5 638.5,-112.5 477.5,-112.5"/>
<text text-anchor="middle" x="558" y="-119.5" font-family="FreeSans.ttf" font-size="10.00" fill="#000000">iDynTree/Core/MatrixFixSize.h</text>
</a>
</g>
</g>
<!-- Node20&#45;&gt;Node21 -->
<g id="edge26" class="edge">
<title>Node20&#45;&gt;Node21</title>
<path fill="none" stroke="#191970" d="M843.2552,-168.4369C783.1454,-158.6516 689.8149,-143.4582 626.4117,-133.1368"/>
<polygon fill="#191970" stroke="#191970" points="626.935,-129.676 616.5025,-131.5237 625.8102,-136.585 626.935,-129.676"/>
</g>
<!-- Node21&#45;&gt;Node4 -->
<g id="edge27" class="edge">
<title>Node21&#45;&gt;Node4</title>
<path fill="none" stroke="#191970" d="M582.5826,-112.3733C605.9496,-103.2226 641.2862,-89.3844 667.2784,-79.2057"/>
<polygon fill="#191970" stroke="#191970" points="668.703,-82.4066 676.7382,-75.5011 666.1505,-75.8886 668.703,-82.4066"/>
</g>
<!-- Node21&#45;&gt;Node7 -->
<g id="edge28" class="edge">
<title>Node21&#45;&gt;Node7</title>
<path fill="none" stroke="#191970" d="M558.2702,-112.0708C558.7676,-99.0772 560.1591,-75.6478 564,-56 565.7372,-47.1135 568.5156,-37.4993 571.1411,-29.3694"/>
<polygon fill="#191970" stroke="#191970" points="574.5152,-30.3172 574.4039,-19.723 567.8843,-28.0743 574.5152,-30.3172"/>
</g>
<!-- Node21&#45;&gt;Node15 -->
<g id="edge30" class="edge">
<title>Node21&#45;&gt;Node15</title>
<path fill="none" stroke="#191970" d="M638.6071,-114.4767C772.3379,-101.9951 1034.3877,-77.5372 1125.7,-69.0147"/>
<polygon fill="#191970" stroke="#191970" points="1126.0932,-72.4933 1135.7247,-68.079 1125.4427,-65.5236 1126.0932,-72.4933"/>
</g>
<!-- Node21&#45;&gt;Node16 -->
<g id="edge32" class="edge">
<title>Node21&#45;&gt;Node16</title>
<path fill="none" stroke="#191970" d="M533.9331,-112.3733C511.1572,-103.2629 476.7656,-89.5062 451.351,-79.3404"/>
<polygon fill="#191970" stroke="#191970" points="452.3375,-75.9654 441.7528,-75.5011 449.7377,-82.4648 452.3375,-75.9654"/>
</g>
<!-- Node21&#45;&gt;Node17 -->
<g id="edge29" class="edge">
<title>Node21&#45;&gt;Node17</title>
<path fill="none" stroke="#191970" d="M564.9675,-112.2455C570.5311,-104.4564 578.478,-93.3308 585.1829,-83.9439"/>
<polygon fill="#191970" stroke="#191970" points="588.148,-85.8144 591.1124,-75.6427 582.4519,-81.7457 588.148,-85.8144"/>
</g>
<!-- Node21&#45;&gt;Node22 -->
<g id="edge31" class="edge">
<title>Node21&#45;&gt;Node22</title>
<path fill="none" stroke="#191970" d="M502.4998,-112.4369C437.4731,-101.2323 331.2956,-82.9371 273.5349,-72.9845"/>
<polygon fill="#191970" stroke="#191970" points="273.7831,-69.4757 263.334,-71.2268 272.5944,-76.3741 273.7831,-69.4757"/>
</g>
<!-- Node23&#45;&gt;Node3 -->
<g id="edge40" class="edge">
<title>Node23&#45;&gt;Node3</title>
<path fill="none" stroke="#191970" d="M506.7788,-537.4131C491.9539,-522.2453 461.5795,-492.1636 433,-470 409.6188,-451.8678 393.1248,-458.8082 377,-434 311.5738,-333.3409 323.7003,-233.9758 424,-168 446.4732,-153.2174 597.4314,-137.9704 698.0399,-129.2718"/>
<polygon fill="#191970" stroke="#191970" points="698.5557,-132.7405 708.2202,-128.399 697.9577,-125.766 698.5557,-132.7405"/>
</g>
<!-- Node24 -->
<g id="node25" class="node">
<title>Node24</title>
<g id="a_node25"><a xlink:href="SpatialInertiaRaw_8h.html" target="_top" xlink:title="iDynTree/Core/SpatialInertia\lRaw.h">
<polygon fill="none" stroke="#000000" points="104.5,-470.5 104.5,-500.5 257.5,-500.5 257.5,-470.5 104.5,-470.5"/>
<text text-anchor="start" x="112.5" y="-488.5" font-family="FreeSans.ttf" font-size="10.00" fill="#000000">iDynTree/Core/SpatialInertia</text>
<text text-anchor="middle" x="181" y="-477.5" font-family="FreeSans.ttf" font-size="10.00" fill="#000000">Raw.h</text>
</a>
</g>
</g>
<!-- Node23&#45;&gt;Node24 -->
<g id="edge37" class="edge">
<title>Node23&#45;&gt;Node24</title>
<path fill="none" stroke="#191970" d="M464.0238,-537.4581C411.7103,-527.8543 330.0842,-512.8692 267.9089,-501.4549"/>
<polygon fill="#191970" stroke="#191970" points="268.1819,-497.9466 257.7142,-499.5834 266.9178,-504.8316 268.1819,-497.9466"/>
</g>
<!-- Node23&#45;&gt;Node26 -->
<g id="edge41" class="edge">
<title>Node23&#45;&gt;Node26</title>
<path fill="none" stroke="#191970" d="M519.9063,-537.3906C523.4446,-528.6862 528.7636,-515.6015 533.175,-504.7494"/>
<polygon fill="#191970" stroke="#191970" points="536.5152,-505.8268 537.0387,-495.2449 530.0305,-503.1907 536.5152,-505.8268"/>
</g>
<!-- Node23&#45;&gt;Node29 -->
<g id="edge52" class="edge">
<title>Node23&#45;&gt;Node29</title>
<path fill="none" stroke="#191970" d="M546.7813,-537.3906C580.7549,-526.7846 635.5604,-509.6753 672.8772,-498.0257"/>
<polygon fill="#191970" stroke="#191970" points="673.9323,-501.3629 682.4349,-495.0419 671.8462,-494.681 673.9323,-501.3629"/>
</g>
<!-- Node23&#45;&gt;Node31 -->
<g id="edge57" class="edge">
<title>Node23&#45;&gt;Node31</title>
<path fill="none" stroke="#191970" d="M490.0625,-537.3906C461.9222,-526.9652 416.8207,-510.2559 385.4274,-498.6252"/>
<polygon fill="#191970" stroke="#191970" points="386.3485,-495.234 375.7554,-495.0419 383.9166,-501.798 386.3485,-495.234"/>
</g>
<!-- Node23&#45;&gt;Node32 -->
<g id="edge59" class="edge">
<title>Node23&#45;&gt;Node32</title>
<path fill="none" stroke="#191970" d="M584.1407,-537.478C644.8454,-528.7665 736.0273,-515.1194 815,-501 821.7688,-499.7898 828.861,-498.4457 835.8784,-497.0693"/>
<polygon fill="#191970" stroke="#191970" points="836.936,-500.4275 846.0596,-495.0414 835.5685,-493.5624 836.936,-500.4275"/>
</g>
<!-- Node25 -->
<g id="node26" class="node">
<title>Node25</title>
<g id="a_node26"><a xlink:href="RotationalInertiaRaw_8h.html" target="_top" xlink:title="iDynTree/Core/Rotational\lInertiaRaw.h">
<polygon fill="none" stroke="#000000" points="155.5,-280.5 155.5,-310.5 292.5,-310.5 292.5,-280.5 155.5,-280.5"/>
<text text-anchor="start" x="163.5" y="-298.5" font-family="FreeSans.ttf" font-size="10.00" fill="#000000">iDynTree/Core/Rotational</text>
<text text-anchor="middle" x="224" y="-287.5" font-family="FreeSans.ttf" font-size="10.00" fill="#000000">InertiaRaw.h</text>
</a>
</g>
</g>
<!-- Node24&#45;&gt;Node25 -->
<g id="edge38" class="edge">
<title>Node24&#45;&gt;Node25</title>
<path fill="none" stroke="#191970" d="M184.4462,-470.2727C191.8396,-437.6039 209.2853,-360.5184 218.3341,-320.5352"/>
<polygon fill="#191970" stroke="#191970" points="221.8034,-321.062 220.5971,-310.5361 214.976,-319.5168 221.8034,-321.062"/>
</g>
<!-- Node25&#45;&gt;Node21 -->
<g id="edge39" class="edge">
<title>Node25&#45;&gt;Node21</title>
<path fill="none" stroke="#191970" d="M227.7788,-280.4372C235.4476,-253.2105 255.5567,-196.0357 295,-168 322.2557,-148.6271 402.3291,-136.4797 467.0266,-129.5669"/>
<polygon fill="#191970" stroke="#191970" points="467.6833,-133.0176 477.2677,-128.5021 466.9593,-126.0551 467.6833,-133.0176"/>
</g>
<!-- Node27 -->
<g id="node28" class="node">
<title>Node27</title>
<g id="a_node28"><a xlink:href="SpatialMotionVector_8h.html" target="_top" xlink:title="iDynTree/Core/SpatialMotion\lVector.h">
<polygon fill="none" stroke="#000000" points="420.5,-403.5 420.5,-433.5 575.5,-433.5 575.5,-403.5 420.5,-403.5"/>
<text text-anchor="start" x="428.5" y="-421.5" font-family="FreeSans.ttf" font-size="10.00" fill="#000000">iDynTree/Core/SpatialMotion</text>
<text text-anchor="middle" x="498" y="-410.5" font-family="FreeSans.ttf" font-size="10.00" fill="#000000">Vector.h</text>
</a>
</g>
</g>
<!-- Node26&#45;&gt;Node27 -->
<g id="edge42" class="edge">
<title>Node26&#45;&gt;Node27</title>
<path fill="none" stroke="#191970" d="M534.8391,-475.9005C529.1765,-467.0773 520.5517,-453.6387 513.0707,-441.9822"/>
<polygon fill="#191970" stroke="#191970" points="515.9877,-440.0472 507.6408,-433.5218 510.0965,-443.8281 515.9877,-440.0472"/>
</g>
<!-- Node27&#45;&gt;Node3 -->
<g id="edge43" class="edge">
<title>Node27&#45;&gt;Node3</title>
<path fill="none" stroke="#191970" d="M484.4203,-403.4399C476.4942,-393.7445 467.0817,-380.4732 462,-367 430.6304,-283.8292 383.4207,-234.8573 442,-168 450.4333,-158.3749 598.035,-141.4975 697.9897,-131.0808"/>
<polygon fill="#191970" stroke="#191970" points="698.5263,-134.544 708.1119,-130.031 697.8041,-127.5814 698.5263,-134.544"/>
</g>
<!-- Node27&#45;&gt;Node19 -->
<g id="edge44" class="edge">
<title>Node27&#45;&gt;Node19</title>
<path fill="none" stroke="#191970" d="M485.8211,-403.2988C478.8133,-393.5503 470.6866,-380.2728 467,-367 464.6211,-358.4353 465.3548,-355.7353 467,-347 477.7899,-289.7107 507.4748,-226.9255 523.0945,-196.5347"/>
<polygon fill="#191970" stroke="#191970" points="526.2734,-198.0084 527.8048,-187.5248 520.07,-194.7653 526.2734,-198.0084"/>
</g>
<!-- Node28 -->
<g id="node29" class="node">
<title>Node28</title>
<g id="a_node29"><a xlink:href="SpatialVector_8h.html" target="_top" xlink:title="iDynTree/Core/SpatialVector.h">
<polygon fill="none" stroke="#000000" points="476.5,-347.5 476.5,-366.5 637.5,-366.5 637.5,-347.5 476.5,-347.5"/>
<text text-anchor="middle" x="557" y="-354.5" font-family="FreeSans.ttf" font-size="10.00" fill="#000000">iDynTree/Core/SpatialVector.h</text>
</a>
</g>
</g>
<!-- Node27&#45;&gt;Node28 -->
<g id="edge45" class="edge">
<title>Node27&#45;&gt;Node28</title>
<path fill="none" stroke="#191970" d="M512.5843,-403.2977C521.03,-394.4941 531.6892,-383.3833 540.4484,-374.2529"/>
<polygon fill="#191970" stroke="#191970" points="543.1561,-376.4862 547.5534,-366.8469 538.1048,-371.6402 543.1561,-376.4862"/>
</g>
<!-- Node28&#45;&gt;Node1 -->
<g id="edge46" class="edge">
<title>Node28&#45;&gt;Node1</title>
<path fill="none" stroke="#191970" d="M637.7361,-348.9915C757.3921,-337.1224 980.3669,-315.0047 1098.6387,-303.2729"/>
<polygon fill="#191970" stroke="#191970" points="1099.1024,-306.7442 1108.7081,-302.2741 1098.4114,-299.7784 1099.1024,-306.7442"/>
</g>
<!-- Node28&#45;&gt;Node4 -->
<g id="edge48" class="edge">
<title>Node28&#45;&gt;Node4</title>
<path fill="none" stroke="#191970" d="M561.7911,-347.3179C582.419,-305.6325 663.8672,-141.0392 691.6538,-84.8872"/>
<polygon fill="#191970" stroke="#191970" points="694.8926,-86.2335 696.1909,-75.7185 688.6187,-83.1288 694.8926,-86.2335"/>
</g>
<!-- Node28&#45;&gt;Node16 -->
<g id="edge51" class="edge">
<title>Node28&#45;&gt;Node16</title>
<path fill="none" stroke="#191970" d="M549.5899,-347.2492C526.5078,-316.7097 456.5745,-222.8726 442,-188 427.6999,-153.7839 421.7845,-110.5501 419.4402,-85.8101"/>
<polygon fill="#191970" stroke="#191970" points="422.9036,-85.2273 418.576,-75.5566 415.9283,-85.8153 422.9036,-85.2273"/>
</g>
<!-- Node28&#45;&gt;Node18 -->
<g id="edge47" class="edge">
<title>Node28&#45;&gt;Node18</title>
<path fill="none" stroke="#191970" d="M583.7845,-347.4507C645.049,-325.6086 795.4809,-271.9764 865.2988,-247.0848"/>
<polygon fill="#191970" stroke="#191970" points="866.7508,-250.283 874.9947,-243.628 864.4,-243.6895 866.7508,-250.283"/>
</g>
<!-- Node28&#45;&gt;Node19 -->
<g id="edge49" class="edge">
<title>Node28&#45;&gt;Node19</title>
<path fill="none" stroke="#191970" d="M555.7097,-347.3762C551.9331,-319.2097 540.8453,-236.5126 535.6911,-198.0713"/>
<polygon fill="#191970" stroke="#191970" points="539.0947,-197.1176 534.2967,-187.6714 532.1567,-198.0479 539.0947,-197.1176"/>
</g>
<!-- Node28&#45;&gt;Node22 -->
<g id="edge50" class="edge">
<title>Node28&#45;&gt;Node22</title>
<path fill="none" stroke="#191970" d="M544.5847,-347.3508C532.912,-338.1923 515.0346,-323.9417 500,-311 403.4479,-227.888 292.5808,-122.9639 250.4587,-82.7387"/>
<polygon fill="#191970" stroke="#191970" points="252.6216,-79.9643 242.9755,-75.582 247.7834,-85.0231 252.6216,-79.9643"/>
</g>
<!-- Node30 -->
<g id="node31" class="node">
<title>Node30</title>
<g id="a_node31"><a xlink:href="SpatialForceVector_8h.html" target="_top" xlink:title="iDynTree/Core/SpatialForce\lVector.h">
<polygon fill="none" stroke="#000000" points="614,-403.5 614,-433.5 762,-433.5 762,-403.5 614,-403.5"/>
<text text-anchor="start" x="622" y="-421.5" font-family="FreeSans.ttf" font-size="10.00" fill="#000000">iDynTree/Core/SpatialForce</text>
<text text-anchor="middle" x="688" y="-410.5" font-family="FreeSans.ttf" font-size="10.00" fill="#000000">Vector.h</text>
</a>
</g>
</g>
<!-- Node29&#45;&gt;Node30 -->
<g id="edge53" class="edge">
<title>Node29&#45;&gt;Node30</title>
<path fill="none" stroke="#191970" d="M709.4181,-475.9005C706.2227,-467.3368 701.4049,-454.4252 697.1475,-443.0152"/>
<polygon fill="#191970" stroke="#191970" points="700.3803,-441.6672 693.6051,-433.5218 693.8219,-444.1144 700.3803,-441.6672"/>
</g>
<!-- Node30&#45;&gt;Node3 -->
<g id="edge54" class="edge">
<title>Node30&#45;&gt;Node3</title>
<path fill="none" stroke="#191970" d="M688.4102,-403.3673C690.1005,-362.7337 698.7506,-248.851 743,-168 749.1441,-156.7738 758.8613,-146.4733 767.7849,-138.4786"/>
<polygon fill="#191970" stroke="#191970" points="770.2685,-140.9615 775.6315,-131.8242 765.741,-135.6227 770.2685,-140.9615"/>
</g>
<!-- Node30&#45;&gt;Node19 -->
<g id="edge55" class="edge">
<title>Node30&#45;&gt;Node19</title>
<path fill="none" stroke="#191970" d="M679.6763,-403.247C671.6069,-388.6409 658.8771,-366.0692 647,-347 612.0691,-290.9171 567.4593,-226.7562 545.8635,-196.1241"/>
<polygon fill="#191970" stroke="#191970" points="548.5671,-193.8853 539.9365,-187.7401 542.8512,-197.9261 548.5671,-193.8853"/>
</g>
<!-- Node30&#45;&gt;Node28 -->
<g id="edge56" class="edge">
<title>Node30&#45;&gt;Node28</title>
<path fill="none" stroke="#191970" d="M655.9538,-403.4554C634.7672,-393.509 607.1972,-380.5659 586.5412,-370.8686"/>
<polygon fill="#191970" stroke="#191970" points="587.8399,-367.6118 577.3004,-366.5303 584.8651,-373.9483 587.8399,-367.6118"/>
</g>
<!-- Node31&#45;&gt;Node27 -->
<g id="edge58" class="edge">
<title>Node31&#45;&gt;Node27</title>
<path fill="none" stroke="#191970" d="M371.2048,-475.9005C393.0833,-465.9961 427.8091,-450.2756 455.3919,-437.7888"/>
<polygon fill="#191970" stroke="#191970" points="457.1511,-440.8344 464.8176,-433.5218 454.2641,-434.4574 457.1511,-440.8344"/>
</g>
<!-- Node32&#45;&gt;Node30 -->
<g id="edge60" class="edge">
<title>Node32&#45;&gt;Node30</title>
<path fill="none" stroke="#191970" d="M861.915,-475.9005C831.1197,-465.7366 781.7674,-449.4479 743.4891,-436.8141"/>
<polygon fill="#191970" stroke="#191970" points="744.1068,-433.3324 733.5137,-433.5218 741.9129,-439.9797 744.1068,-433.3324"/>
</g>
<!-- Node34&#45;&gt;Node3 -->
<g id="edge71" class="edge">
<title>Node34&#45;&gt;Node3</title>
<path fill="none" stroke="#191970" d="M1019.2931,-475.9919C946.3223,-456.0083 790,-407.3252 790,-357 790,-357 790,-357 790,-295.5 790,-239.9672 789.4814,-174.4379 789.1911,-142.1106"/>
<polygon fill="#191970" stroke="#191970" points="792.688,-141.7501 789.0959,-131.7828 785.6883,-141.8147 792.688,-141.7501"/>
</g>
<!-- Node34&#45;&gt;Node4 -->
<g id="edge82" class="edge">
<title>Node34&#45;&gt;Node4</title>
<path fill="none" stroke="#191970" d="M1049.8556,-475.9437C1037.1157,-455.1816 1009,-404.0338 1009,-357 1009,-357 1009,-357 1009,-234 1009,-203.4754 1009.4754,-191.5045 990,-168 954.7455,-125.4518 930.7126,-131.4689 879,-112 840.1219,-97.3631 794.7666,-85.7192 759.5692,-77.8083"/>
<polygon fill="#191970" stroke="#191970" points="759.9784,-74.3144 749.4589,-75.5755 758.4688,-81.1497 759.9784,-74.3144"/>
</g>
<!-- Node34&#45;&gt;Node21 -->
<g id="edge74" class="edge">
<title>Node34&#45;&gt;Node21</title>
<path fill="none" stroke="#191970" d="M1006.7096,-475.9407C993.8262,-473.7101 979.9263,-471.5395 967,-470 905.5273,-462.6785 462.6703,-468.0979 411,-434 378.9819,-412.8708 372,-395.3615 372,-357 372,-357 372,-357 372,-295.5 372,-234.3017 379.5197,-210.0326 424,-168 441.2858,-151.6654 464.63,-141.1078 486.9902,-134.2934"/>
<polygon fill="#191970" stroke="#191970" points="488.1612,-137.5995 496.8294,-131.5075 486.2541,-130.8642 488.1612,-137.5995"/>
</g>
<!-- Node34&#45;&gt;Node27 -->
<g id="edge75" class="edge">
<title>Node34&#45;&gt;Node27</title>
<path fill="none" stroke="#191970" d="M1004.8013,-475.9224C992.4513,-473.7952 979.2763,-471.6771 967,-470 806.8055,-448.115 765.4908,-453.5946 605,-434 598.7641,-433.2387 592.3299,-432.4114 585.8558,-431.5486"/>
<polygon fill="#191970" stroke="#191970" points="586.0517,-428.0432 575.6721,-430.1678 585.1111,-434.9798 586.0517,-428.0432"/>
</g>
<!-- Node34&#45;&gt;Node30 -->
<g id="edge76" class="edge">
<title>Node34&#45;&gt;Node30</title>
<path fill="none" stroke="#191970" d="M1003.6654,-475.9717C943.3032,-464.9818 843.2412,-446.764 771.9597,-433.7861"/>
<polygon fill="#191970" stroke="#191970" points="772.565,-430.3389 762.0997,-431.991 771.3111,-437.2257 772.565,-430.3389"/>
</g>
<!-- Node34&#45;&gt;Node33 -->
<g id="edge67" class="edge">
<title>Node34&#45;&gt;Node33</title>
<path fill="none" stroke="#191970" d="M1075.1989,-475.9005C1097.8862,-464.5569 1135.8313,-445.5844 1161.8435,-432.5783"/>
<polygon fill="#191970" stroke="#191970" points="1163.4577,-435.6843 1170.8367,-428.0817 1160.3271,-429.4234 1163.4577,-435.6843"/>
</g>
<!-- Node35 -->
<g id="node36" class="node">
<title>Node35</title>
<g id="a_node36"><a xlink:href="VectorDynSize_8h.html" target="_top" xlink:title="iDynTree/Core/VectorDynSize.h">
<polygon fill="none" stroke="#000000" points="963.5,-112.5 963.5,-131.5 1130.5,-131.5 1130.5,-112.5 963.5,-112.5"/>
<text text-anchor="middle" x="1047" y="-119.5" font-family="FreeSans.ttf" font-size="10.00" fill="#000000">iDynTree/Core/VectorDynSize.h</text>
</a>
</g>
</g>
<!-- Node34&#45;&gt;Node35 -->
<g id="edge68" class="edge">
<title>Node34&#45;&gt;Node35</title>
<path fill="none" stroke="#191970" d="M1054.8601,-475.8443C1052.4384,-454.4659 1047,-401.5037 1047,-357 1047,-357 1047,-357 1047,-234 1047,-201.7116 1047,-164.1872 1047,-141.8048"/>
<polygon fill="#191970" stroke="#191970" points="1050.5001,-141.5883 1047,-131.5884 1043.5001,-141.5884 1050.5001,-141.5883"/>
</g>
<!-- Node36 -->
<g id="node37" class="node">
<title>Node36</title>
<g id="a_node37"><a xlink:href="MatrixDynSize_8h.html" target="_top" xlink:title="iDynTree/Core/MatrixDynSize.h">
<polygon fill="none" stroke="#000000" points="1362.5,-224.5 1362.5,-243.5 1529.5,-243.5 1529.5,-224.5 1362.5,-224.5"/>
<text text-anchor="middle" x="1446" y="-231.5" font-family="FreeSans.ttf" font-size="10.00" fill="#000000">iDynTree/Core/MatrixDynSize.h</text>
</a>
</g>
</g>
<!-- Node34&#45;&gt;Node36 -->
<g id="edge72" class="edge">
<title>Node34&#45;&gt;Node36</title>
<path fill="none" stroke="#191970" d="M1066.0412,-475.7905C1087.9896,-454.5933 1138.6347,-405.8326 1143,-403 1178.1035,-380.2215 1192.7316,-386.0309 1230,-367 1303.7095,-329.3607 1385.6044,-275.3075 1423.9426,-249.2245"/>
<polygon fill="#191970" stroke="#191970" points="1426.0166,-252.0465 1432.2968,-243.5136 1422.0661,-246.2677 1426.0166,-252.0465"/>
</g>
<!-- Node37 -->
<g id="node38" class="node">
<title>Node37</title>
<g id="a_node38"><a xlink:href="Transform_8h.html" target="_top" xlink:title="iDynTree/Core/Transform.h">
<polygon fill="none" stroke="#000000" points="1075,-347.5 1075,-366.5 1221,-366.5 1221,-347.5 1075,-347.5"/>
<text text-anchor="middle" x="1148" y="-354.5" font-family="FreeSans.ttf" font-size="10.00" fill="#000000">iDynTree/Core/Transform.h</text>
</a>
</g>
</g>
<!-- Node34&#45;&gt;Node37 -->
<g id="edge77" class="edge">
<title>Node34&#45;&gt;Node37</title>
<path fill="none" stroke="#191970" d="M1061.7969,-475.5681C1071.1383,-459.7824 1090.3657,-428.1783 1109,-403 1116.2874,-393.1534 1125.0599,-382.6988 1132.4378,-374.2488"/>
<polygon fill="#191970" stroke="#191970" points="1135.2342,-376.3703 1139.2443,-366.5636 1129.994,-371.7292 1135.2342,-376.3703"/>
</g>
<!-- Node35&#45;&gt;Node6 -->
<g id="edge69" class="edge">
<title>Node35&#45;&gt;Node6</title>
<path fill="none" stroke="#191970" d="M1021.0422,-112.3733C996.2593,-103.1822 958.7254,-89.2624 931.246,-79.0713"/>
<polygon fill="#191970" stroke="#191970" points="932.2121,-75.6968 921.6191,-75.5011 929.7781,-82.26 932.2121,-75.6968"/>
</g>
<!-- Node35&#45;&gt;Node15 -->
<g id="edge70" class="edge">
<title>Node35&#45;&gt;Node15</title>
<path fill="none" stroke="#191970" d="M1066.0816,-112.3733C1083.7402,-103.4644 1110.2053,-90.1127 1130.2098,-80.0203"/>
<polygon fill="#191970" stroke="#191970" points="1131.8158,-83.1303 1139.1674,-75.5011 1128.6628,-76.8806 1131.8158,-83.1303"/>
</g>
<!-- Node36&#45;&gt;Node15 -->
<g id="edge73" class="edge">
<title>Node36&#45;&gt;Node15</title>
<path fill="none" stroke="#191970" d="M1441.204,-224.2756C1429.1705,-200.9432 1395.3142,-141.5358 1349,-112 1322.8659,-95.3336 1237.5643,-79.1456 1190.2836,-71.1577"/>
<polygon fill="#191970" stroke="#191970" points="1190.6892,-67.6772 1180.2505,-69.4894 1189.5409,-74.5824 1190.6892,-67.6772"/>
</g>
<!-- Node37&#45;&gt;Node1 -->
<g id="edge78" class="edge">
<title>Node37&#45;&gt;Node1</title>
<path fill="none" stroke="#191970" d="M1152.5313,-347.3906C1156.6781,-338.5965 1162.9332,-325.3312 1168.081,-314.4145"/>
<polygon fill="#191970" stroke="#191970" points="1171.3055,-315.7825 1172.4049,-305.2449 1164.9741,-312.7969 1171.3055,-315.7825"/>
</g>
<!-- Node37&#45;&gt;Node15 -->
<g id="edge81" class="edge">
<title>Node37&#45;&gt;Node15</title>
<path fill="none" stroke="#191970" d="M1190.6627,-347.4362C1212.282,-340.589 1237.4005,-329.2568 1254,-311 1292.6715,-268.4675 1285.0001,-244.7758 1294,-188 1299.8817,-150.8952 1285.467,-136.5151 1257,-112 1237.3771,-95.1012 1210.4974,-83.137 1189.6981,-75.6539"/>
<polygon fill="#191970" stroke="#191970" points="1190.629,-72.2731 1180.0344,-72.3384 1188.3573,-78.8942 1190.629,-72.2731"/>
</g>
<!-- Node37&#45;&gt;Node18 -->
<g id="edge79" class="edge">
<title>Node37&#45;&gt;Node18</title>
<path fill="none" stroke="#191970" d="M1128.6968,-347.3484C1085.4951,-325.7475 980.8524,-273.4262 930.2857,-248.1428"/>
<polygon fill="#191970" stroke="#191970" points="931.7231,-244.9485 921.2135,-243.6068 928.5926,-251.2095 931.7231,-244.9485"/>
</g>
<!-- Node37&#45;&gt;Node21 -->
<g id="edge80" class="edge">
<title>Node37&#45;&gt;Node21</title>
<path fill="none" stroke="#191970" d="M1111.8268,-347.4922C1079.7979,-338.8158 1031.9162,-325.2125 991,-311 834.0697,-256.4893 654.4208,-169.9289 586.2319,-136.153"/>
<polygon fill="#191970" stroke="#191970" points="587.5087,-132.8791 576.9959,-131.5627 584.3932,-139.1476 587.5087,-132.8791"/>
</g>
</g>
</svg>
