<?xml version="1.0" encoding="UTF-8" standalone="no"?>
<!DOCTYPE svg PUBLIC "-//W3C//DTD SVG 1.1//EN"
 "http://www.w3.org/Graphics/SVG/1.1/DTD/svg11.dtd">
<!-- Generated by graphviz version 2.40.1 (20161225.0304)
 -->
<!-- Title: SpatialInertia.h Pages: 1 -->
<svg width="992pt" height="565pt"
 viewBox="0.00 0.00 992.00 565.00" xmlns="http://www.w3.org/2000/svg" xmlns:xlink="http://www.w3.org/1999/xlink">
<g id="graph0" class="graph" transform="scale(1 1) rotate(0) translate(4 561)">
<title>SpatialInertia.h</title>
<!-- Node0 -->
<g id="node1" class="node">
<title>Node0</title>
<polygon fill="#bfbfbf" stroke="#000000" points="509,-537.5 509,-556.5 600,-556.5 600,-537.5 509,-537.5"/>
<text text-anchor="middle" x="554.5" y="-544.5" font-family="FreeSans.ttf" font-size="10.00" fill="#000000">SpatialInertia.h</text>
</g>
<!-- Node1 -->
<g id="node2" class="node">
<title>Node1</title>
<g id="a_node2"><a xlink:href="SpatialInertiaRaw_8h.html" target="_top" xlink:title="iDynTree/Core/SpatialInertia\lRaw.h">
<polygon fill="none" stroke="#000000" points="70,-470.5 70,-500.5 223,-500.5 223,-470.5 70,-470.5"/>
<text text-anchor="start" x="78" y="-488.5" font-family="FreeSans.ttf" font-size="10.00" fill="#000000">iDynTree/Core/SpatialInertia</text>
<text text-anchor="middle" x="146.5" y="-477.5" font-family="FreeSans.ttf" font-size="10.00" fill="#000000">Raw.h</text>
</a>
</g>
</g>
<!-- Node0&#45;&gt;Node1 -->
<g id="edge1" class="edge">
<title>Node0&#45;&gt;Node1</title>
<path fill="none" stroke="#191970" d="M508.9341,-540.3262C448.6426,-531.4705 339.0589,-515.2878 245.5,-501 241.5499,-500.3968 237.5118,-499.777 233.433,-499.1485"/>
<polygon fill="#191970" stroke="#191970" points="233.6554,-495.6414 223.2382,-497.5729 232.5862,-502.5593 233.6554,-495.6414"/>
</g>
<!-- Node11 -->
<g id="node12" class="node">
<title>Node11</title>
<g id="a_node12"><a xlink:href="VectorFixSize_8h.html" target="_top" xlink:title="iDynTree/Core/VectorFixSize.h">
<polygon fill="none" stroke="#000000" points="567,-112.5 567,-131.5 728,-131.5 728,-112.5 567,-112.5"/>
<text text-anchor="middle" x="647.5" y="-119.5" font-family="FreeSans.ttf" font-size="10.00" fill="#000000">iDynTree/Core/VectorFixSize.h</text>
</a>
</g>
</g>
<!-- Node0&#45;&gt;Node11 -->
<g id="edge11" class="edge">
<title>Node0&#45;&gt;Node11</title>
<path fill="none" stroke="#191970" d="M600.2333,-543.9332C690.5637,-537.4635 885.1043,-521.3268 907.5,-501 935.3617,-475.7121 926.5,-456.1265 926.5,-418.5 926.5,-418.5 926.5,-418.5 926.5,-234 926.5,-186.1711 884.6395,-188.654 841.5,-168 806.5414,-151.2628 765.0494,-140.3667 729.4274,-133.404"/>
<polygon fill="#191970" stroke="#191970" points="730.0212,-129.9544 719.5462,-131.5429 728.7255,-136.8334 730.0212,-129.9544"/>
</g>
<!-- Node20 -->
<g id="node21" class="node">
<title>Node20</title>
<g id="a_node21"><a xlink:href="Twist_8h.html" target="_top" xlink:title="iDynTree/Core/Twist.h">
<polygon fill="none" stroke="#000000" points="420.5,-476 420.5,-495 542.5,-495 542.5,-476 420.5,-476"/>
<text text-anchor="middle" x="481.5" y="-483" font-family="FreeSans.ttf" font-size="10.00" fill="#000000">iDynTree/Core/Twist.h</text>
</a>
</g>
</g>
<!-- Node0&#45;&gt;Node20 -->
<g id="edge27" class="edge">
<title>Node0&#45;&gt;Node20</title>
<path fill="none" stroke="#191970" d="M543.0938,-537.3906C531.8031,-527.8786 514.3033,-513.1357 500.8381,-501.7917"/>
<polygon fill="#191970" stroke="#191970" points="502.9699,-499.0111 493.0671,-495.2449 498.4598,-504.3646 502.9699,-499.0111"/>
</g>
<!-- Node28 -->
<g id="node29" class="node">
<title>Node28</title>
<g id="a_node29"><a xlink:href="SpatialMomentum_8h.html" target="_top" xlink:title="iDynTree/Core/SpatialMomentum.h">
<polygon fill="none" stroke="#000000" points="712.5,-476 712.5,-495 898.5,-495 898.5,-476 712.5,-476"/>
<text text-anchor="middle" x="805.5" y="-483" font-family="FreeSans.ttf" font-size="10.00" fill="#000000">iDynTree/Core/SpatialMomentum.h</text>
</a>
</g>
</g>
<!-- Node0&#45;&gt;Node28 -->
<g id="edge50" class="edge">
<title>Node0&#45;&gt;Node28</title>
<path fill="none" stroke="#191970" d="M593.4434,-537.4581C637.4087,-526.6857 709.0065,-509.1428 756.6751,-497.4631"/>
<polygon fill="#191970" stroke="#191970" points="757.5855,-500.8436 766.4653,-495.0643 755.9196,-494.0447 757.5855,-500.8436"/>
</g>
<!-- Node30 -->
<g id="node31" class="node">
<title>Node30</title>
<g id="a_node31"><a xlink:href="SpatialAcc_8h.html" target="_top" xlink:title="iDynTree/Core/SpatialAcc.h">
<polygon fill="none" stroke="#000000" points="254.5,-476 254.5,-495 402.5,-495 402.5,-476 254.5,-476"/>
<text text-anchor="middle" x="328.5" y="-483" font-family="FreeSans.ttf" font-size="10.00" fill="#000000">iDynTree/Core/SpatialAcc.h</text>
</a>
</g>
</g>
<!-- Node0&#45;&gt;Node30 -->
<g id="edge55" class="edge">
<title>Node0&#45;&gt;Node30</title>
<path fill="none" stroke="#191970" d="M519.1875,-537.3906C479.8809,-526.6944 416.2674,-509.3836 373.4406,-497.7294"/>
<polygon fill="#191970" stroke="#191970" points="374.1327,-494.2905 363.5645,-495.0419 372.2946,-501.0449 374.1327,-494.2905"/>
</g>
<!-- Node31 -->
<g id="node32" class="node">
<title>Node31</title>
<g id="a_node32"><a xlink:href="Wrench_8h.html" target="_top" xlink:title="iDynTree/Core/Wrench.h">
<polygon fill="none" stroke="#000000" points="561,-476 561,-495 694,-495 694,-476 561,-476"/>
<text text-anchor="middle" x="627.5" y="-483" font-family="FreeSans.ttf" font-size="10.00" fill="#000000">iDynTree/Core/Wrench.h</text>
</a>
</g>
</g>
<!-- Node0&#45;&gt;Node31 -->
<g id="edge57" class="edge">
<title>Node0&#45;&gt;Node31</title>
<path fill="none" stroke="#191970" d="M565.9063,-537.3906C577.1969,-527.8786 594.6967,-513.1357 608.1619,-501.7917"/>
<polygon fill="#191970" stroke="#191970" points="610.5402,-504.3646 615.9329,-495.2449 606.0301,-499.0111 610.5402,-504.3646"/>
</g>
<!-- Node2 -->
<g id="node3" class="node">
<title>Node2</title>
<g id="a_node3"><a xlink:href="RotationalInertiaRaw_8h.html" target="_top" xlink:title="iDynTree/Core/Rotational\lInertiaRaw.h">
<polygon fill="none" stroke="#000000" points="0,-336.5 0,-366.5 137,-366.5 137,-336.5 0,-336.5"/>
<text text-anchor="start" x="8" y="-354.5" font-family="FreeSans.ttf" font-size="10.00" fill="#000000">iDynTree/Core/Rotational</text>
<text text-anchor="middle" x="68.5" y="-343.5" font-family="FreeSans.ttf" font-size="10.00" fill="#000000">InertiaRaw.h</text>
</a>
</g>
</g>
<!-- Node1&#45;&gt;Node2 -->
<g id="edge2" class="edge">
<title>Node1&#45;&gt;Node2</title>
<path fill="none" stroke="#191970" d="M137.704,-470.389C124.3035,-447.3676 98.6445,-403.2866 82.6156,-375.7499"/>
<polygon fill="#191970" stroke="#191970" points="85.4391,-373.6431 77.3835,-366.7614 79.3894,-377.1646 85.4391,-373.6431"/>
</g>
<!-- Node3 -->
<g id="node4" class="node">
<title>Node3</title>
<g id="a_node4"><a xlink:href="MatrixFixSize_8h.html" target="_top" xlink:title="iDynTree/Core/MatrixFixSize.h">
<polygon fill="none" stroke="#000000" points="330,-112.5 330,-131.5 491,-131.5 491,-112.5 330,-112.5"/>
<text text-anchor="middle" x="410.5" y="-119.5" font-family="FreeSans.ttf" font-size="10.00" fill="#000000">iDynTree/Core/MatrixFixSize.h</text>
</a>
</g>
</g>
<!-- Node2&#45;&gt;Node3 -->
<g id="edge3" class="edge">
<title>Node2&#45;&gt;Node3</title>
<path fill="none" stroke="#191970" d="M66.957,-336.4423C64.261,-301.1888 62.9871,-212.8903 111.5,-168 141.1524,-140.5618 243.1462,-129.4891 319.8259,-125.0213"/>
<polygon fill="#191970" stroke="#191970" points="320.201,-128.506 329.9922,-124.4585 319.8141,-121.5167 320.201,-128.506"/>
</g>
<!-- Node4 -->
<g id="node5" class="node">
<title>Node4</title>
<g id="a_node5"><a xlink:href="Utils_8h.html" target="_top" xlink:title="iDynTree/Core/Utils.h">
<polygon fill="none" stroke="#000000" points="755,-56.5 755,-75.5 874,-75.5 874,-56.5 755,-56.5"/>
<text text-anchor="middle" x="814.5" y="-63.5" font-family="FreeSans.ttf" font-size="10.00" fill="#000000">iDynTree/Core/Utils.h</text>
</a>
</g>
</g>
<!-- Node3&#45;&gt;Node4 -->
<g id="edge4" class="edge">
<title>Node3&#45;&gt;Node4</title>
<path fill="none" stroke="#191970" d="M481.1045,-112.4609C546.6638,-103.5677 647.284,-89.8284 744.6466,-76.1125"/>
<polygon fill="#191970" stroke="#191970" points="745.2516,-79.5619 754.6648,-74.6996 744.274,-72.6305 745.2516,-79.5619"/>
</g>
<!-- Node6 -->
<g id="node7" class="node">
<title>Node6</title>
<polygon fill="none" stroke="#bfbfbf" points="350.5,-.5 350.5,-19.5 402.5,-19.5 402.5,-.5 350.5,-.5"/>
<text text-anchor="middle" x="376.5" y="-7.5" font-family="FreeSans.ttf" font-size="10.00" fill="#000000">cassert</text>
</g>
<!-- Node3&#45;&gt;Node6 -->
<g id="edge6" class="edge">
<title>Node3&#45;&gt;Node6</title>
<path fill="none" stroke="#191970" d="M407.6012,-112.4509C402.0308,-94.1013 389.7329,-53.5908 382.38,-29.3693"/>
<polygon fill="#191970" stroke="#191970" points="385.6455,-28.077 379.3915,-19.5249 378.9473,-30.1104 385.6455,-28.077"/>
</g>
<!-- Node7 -->
<g id="node8" class="node">
<title>Node7</title>
<polygon fill="none" stroke="#bfbfbf" points="509.5,-56.5 509.5,-75.5 559.5,-75.5 559.5,-56.5 509.5,-56.5"/>
<text text-anchor="middle" x="534.5" y="-63.5" font-family="FreeSans.ttf" font-size="10.00" fill="#000000">cstring</text>
</g>
<!-- Node3&#45;&gt;Node7 -->
<g id="edge7" class="edge">
<title>Node3&#45;&gt;Node7</title>
<path fill="none" stroke="#191970" d="M431.8164,-112.3733C451.7216,-103.3838 481.6436,-89.8706 504.06,-79.7471"/>
<polygon fill="#191970" stroke="#191970" points="505.7887,-82.8068 513.4618,-75.5011 502.9075,-76.4272 505.7887,-82.8068"/>
</g>
<!-- Node8 -->
<g id="node9" class="node">
<title>Node8</title>
<polygon fill="none" stroke="#bfbfbf" points="260.5,-56.5 260.5,-75.5 304.5,-75.5 304.5,-56.5 260.5,-56.5"/>
<text text-anchor="middle" x="282.5" y="-63.5" font-family="FreeSans.ttf" font-size="10.00" fill="#000000">string</text>
</g>
<!-- Node3&#45;&gt;Node8 -->
<g id="edge8" class="edge">
<title>Node3&#45;&gt;Node8</title>
<path fill="none" stroke="#191970" d="M388.496,-112.3733C367.8565,-103.3435 336.7842,-89.7494 313.6111,-79.6111"/>
<polygon fill="#191970" stroke="#191970" points="314.7813,-76.3028 304.2169,-75.5011 311.9755,-82.7159 314.7813,-76.3028"/>
</g>
<!-- Node9 -->
<g id="node10" class="node">
<title>Node9</title>
<polygon fill="none" stroke="#bfbfbf" points="85.5,-56.5 85.5,-75.5 145.5,-75.5 145.5,-56.5 85.5,-56.5"/>
<text text-anchor="middle" x="115.5" y="-63.5" font-family="FreeSans.ttf" font-size="10.00" fill="#000000">iostream</text>
</g>
<!-- Node3&#45;&gt;Node9 -->
<g id="edge9" class="edge">
<title>Node3&#45;&gt;Node9</title>
<path fill="none" stroke="#191970" d="M360.1229,-112.4369C302.4235,-101.4838 209.0299,-83.7548 155.8892,-73.6671"/>
<polygon fill="#191970" stroke="#191970" points="156.2976,-70.1822 145.8203,-71.7557 154.992,-77.0594 156.2976,-70.1822"/>
</g>
<!-- Node10 -->
<g id="node11" class="node">
<title>Node10</title>
<polygon fill="none" stroke="#bfbfbf" points="435.5,-56.5 435.5,-75.5 491.5,-75.5 491.5,-56.5 435.5,-56.5"/>
<text text-anchor="middle" x="463.5" y="-63.5" font-family="FreeSans.ttf" font-size="10.00" fill="#000000">sstream</text>
</g>
<!-- Node3&#45;&gt;Node10 -->
<g id="edge10" class="edge">
<title>Node3&#45;&gt;Node10</title>
<path fill="none" stroke="#191970" d="M419.7319,-112.2455C427.3317,-104.2155 438.2877,-92.6394 447.3368,-83.0781"/>
<polygon fill="#191970" stroke="#191970" points="450.0421,-85.3115 454.3739,-75.6427 444.958,-80.4998 450.0421,-85.3115"/>
</g>
<!-- Node5 -->
<g id="node6" class="node">
<title>Node5</title>
<polygon fill="none" stroke="#bfbfbf" points="931,-.5 931,-19.5 984,-19.5 984,-.5 931,-.5"/>
<text text-anchor="middle" x="957.5" y="-7.5" font-family="FreeSans.ttf" font-size="10.00" fill="#000000">cstddef</text>
</g>
<!-- Node4&#45;&gt;Node5 -->
<g id="edge5" class="edge">
<title>Node4&#45;&gt;Node5</title>
<path fill="none" stroke="#191970" d="M839.0826,-56.3733C862.4496,-47.2226 897.7862,-33.3844 923.7784,-23.2057"/>
<polygon fill="#191970" stroke="#191970" points="925.203,-26.4066 933.2382,-19.5011 922.6505,-19.8886 925.203,-26.4066"/>
</g>
<!-- Node11&#45;&gt;Node4 -->
<g id="edge12" class="edge">
<title>Node11&#45;&gt;Node4</title>
<path fill="none" stroke="#191970" d="M676.2083,-112.3733C703.8577,-103.1016 745.8576,-89.0178 776.3166,-78.804"/>
<polygon fill="#191970" stroke="#191970" points="777.7979,-81.9989 786.1663,-75.5011 775.5724,-75.3621 777.7979,-81.9989"/>
</g>
<!-- Node11&#45;&gt;Node6 -->
<g id="edge25" class="edge">
<title>Node11&#45;&gt;Node6</title>
<path fill="none" stroke="#191970" d="M638.8166,-112.2687C625.2732,-97.7184 597.6356,-70.4604 568.5,-56 507.1302,-25.5415 482.9285,-36.7493 412.5929,-20.102"/>
<polygon fill="#191970" stroke="#191970" points="413.3808,-16.6915 402.8326,-17.685 411.6981,-23.4862 413.3808,-16.6915"/>
</g>
<!-- Node11&#45;&gt;Node7 -->
<g id="edge26" class="edge">
<title>Node11&#45;&gt;Node7</title>
<path fill="none" stroke="#191970" d="M628.0746,-112.3733C610.0979,-103.4644 583.1559,-90.1127 562.791,-80.0203"/>
<polygon fill="#191970" stroke="#191970" points="564.1861,-76.8055 553.6719,-75.5011 561.0778,-83.0776 564.1861,-76.8055"/>
</g>
<!-- Node11&#45;&gt;Node8 -->
<g id="edge23" class="edge">
<title>Node11&#45;&gt;Node8</title>
<path fill="none" stroke="#191970" d="M585.169,-112.4369C506.8014,-100.4134 375.2159,-80.2249 314.7109,-70.942"/>
<polygon fill="#191970" stroke="#191970" points="315.0233,-67.449 304.6082,-69.3919 313.9617,-74.368 315.0233,-67.449"/>
</g>
<!-- Node11&#45;&gt;Node10 -->
<g id="edge24" class="edge">
<title>Node11&#45;&gt;Node10</title>
<path fill="none" stroke="#191970" d="M615.8693,-112.3733C584.2092,-102.7376 535.4719,-87.9045 501.678,-77.6194"/>
<polygon fill="#191970" stroke="#191970" points="502.2913,-74.1476 491.7055,-74.5843 500.2532,-80.8443 502.2913,-74.1476"/>
</g>
<!-- Node12 -->
<g id="node13" class="node">
<title>Node12</title>
<g id="a_node13"><a xlink:href="Span_8h.html" target="_top" xlink:title="iDynTree/Core/Span.h">
<polygon fill="none" stroke="#000000" points="616,-56.5 616,-75.5 737,-75.5 737,-56.5 616,-56.5"/>
<text text-anchor="middle" x="676.5" y="-63.5" font-family="FreeSans.ttf" font-size="10.00" fill="#000000">iDynTree/Core/Span.h</text>
</a>
</g>
</g>
<!-- Node11&#45;&gt;Node12 -->
<g id="edge13" class="edge">
<title>Node11&#45;&gt;Node12</title>
<path fill="none" stroke="#191970" d="M652.5514,-112.2455C656.5019,-104.617 662.1097,-93.7881 666.9058,-84.5267"/>
<polygon fill="#191970" stroke="#191970" points="670.0159,-86.1321 671.5065,-75.6427 663.7999,-82.9131 670.0159,-86.1321"/>
</g>
<!-- Node12&#45;&gt;Node5 -->
<g id="edge17" class="edge">
<title>Node12&#45;&gt;Node5</title>
<path fill="none" stroke="#191970" d="M735.2055,-56.4271C782.7834,-48.3387 851.7337,-35.8726 921.0479,-19.9512"/>
<polygon fill="#191970" stroke="#191970" points="921.8786,-23.3515 930.8287,-17.6817 920.2963,-16.5326 921.8786,-23.3515"/>
</g>
<!-- Node12&#45;&gt;Node6 -->
<g id="edge14" class="edge">
<title>Node12&#45;&gt;Node6</title>
<path fill="none" stroke="#191970" d="M615.8807,-57.3564C564.2488,-49.5681 487.9302,-37.0527 412.8925,-20.142"/>
<polygon fill="#191970" stroke="#191970" points="413.3236,-16.6504 402.7955,-17.8376 411.7661,-23.4749 413.3236,-16.6504"/>
</g>
<!-- Node13 -->
<g id="node14" class="node">
<title>Node13</title>
<polygon fill="none" stroke="#bfbfbf" points="654.5,-.5 654.5,-19.5 718.5,-19.5 718.5,-.5 654.5,-.5"/>
<text text-anchor="middle" x="686.5" y="-7.5" font-family="FreeSans.ttf" font-size="10.00" fill="#000000">algorithm</text>
</g>
<!-- Node12&#45;&gt;Node13 -->
<g id="edge15" class="edge">
<title>Node12&#45;&gt;Node13</title>
<path fill="none" stroke="#191970" d="M678.2419,-56.2455C679.5467,-48.9382 681.376,-38.6944 682.9813,-29.7046"/>
<polygon fill="#191970" stroke="#191970" points="686.4656,-30.1022 684.7781,-19.6427 679.5746,-28.8717 686.4656,-30.1022"/>
</g>
<!-- Node14 -->
<g id="node15" class="node">
<title>Node14</title>
<polygon fill="none" stroke="#bfbfbf" points="736.5,-.5 736.5,-19.5 778.5,-19.5 778.5,-.5 736.5,-.5"/>
<text text-anchor="middle" x="757.5" y="-7.5" font-family="FreeSans.ttf" font-size="10.00" fill="#000000">array</text>
</g>
<!-- Node12&#45;&gt;Node14 -->
<g id="edge16" class="edge">
<title>Node12&#45;&gt;Node14</title>
<path fill="none" stroke="#191970" d="M690.6091,-56.2455C702.9209,-47.7337 720.9958,-35.2375 735.2538,-25.3801"/>
<polygon fill="#191970" stroke="#191970" points="737.3174,-28.2085 743.5526,-19.6427 733.3366,-22.4506 737.3174,-28.2085"/>
</g>
<!-- Node15 -->
<g id="node16" class="node">
<title>Node15</title>
<polygon fill="none" stroke="#bfbfbf" points="797,-.5 797,-19.5 850,-19.5 850,-.5 797,-.5"/>
<text text-anchor="middle" x="823.5" y="-7.5" font-family="FreeSans.ttf" font-size="10.00" fill="#000000">iterator</text>
</g>
<!-- Node12&#45;&gt;Node15 -->
<g id="edge18" class="edge">
<title>Node12&#45;&gt;Node15</title>
<path fill="none" stroke="#191970" d="M701.7702,-56.3733C725.8966,-47.1822 762.4362,-33.2624 789.1877,-23.0713"/>
<polygon fill="#191970" stroke="#191970" points="790.4607,-26.3318 798.5596,-19.5011 787.9687,-19.7904 790.4607,-26.3318"/>
</g>
<!-- Node16 -->
<g id="node17" class="node">
<title>Node16</title>
<polygon fill="none" stroke="#bfbfbf" points="868.5,-.5 868.5,-19.5 912.5,-19.5 912.5,-.5 868.5,-.5"/>
<text text-anchor="middle" x="890.5" y="-7.5" font-family="FreeSans.ttf" font-size="10.00" fill="#000000">limits</text>
</g>
<!-- Node12&#45;&gt;Node16 -->
<g id="edge19" class="edge">
<title>Node12&#45;&gt;Node16</title>
<path fill="none" stroke="#191970" d="M716.7913,-56.4939C753.7844,-47.6056 810.0422,-33.684 858.5,-20 858.598,-19.9723 858.6962,-19.9445 858.7945,-19.9167"/>
<polygon fill="#191970" stroke="#191970" points="859.5664,-23.3382 868.1675,-17.1518 857.5858,-16.6242 859.5664,-23.3382"/>
</g>
<!-- Node17 -->
<g id="node18" class="node">
<title>Node17</title>
<polygon fill="none" stroke="#bfbfbf" points="421,-.5 421,-19.5 486,-19.5 486,-.5 421,-.5"/>
<text text-anchor="middle" x="453.5" y="-7.5" font-family="FreeSans.ttf" font-size="10.00" fill="#000000">stdexcept</text>
</g>
<!-- Node12&#45;&gt;Node17 -->
<g id="edge20" class="edge">
<title>Node12&#45;&gt;Node17</title>
<path fill="none" stroke="#191970" d="M638.4183,-56.4369C598.8852,-46.5093 537.1858,-31.0153 496.0678,-20.6897"/>
<polygon fill="#191970" stroke="#191970" points="496.8921,-17.2881 486.3407,-18.247 495.1871,-24.0773 496.8921,-17.2881"/>
</g>
<!-- Node18 -->
<g id="node19" class="node">
<title>Node18</title>
<polygon fill="none" stroke="#bfbfbf" points="504,-.5 504,-19.5 573,-19.5 573,-.5 504,-.5"/>
<text text-anchor="middle" x="538.5" y="-7.5" font-family="FreeSans.ttf" font-size="10.00" fill="#000000">type_traits</text>
</g>
<!-- Node12&#45;&gt;Node18 -->
<g id="edge21" class="edge">
<title>Node12&#45;&gt;Node18</title>
<path fill="none" stroke="#191970" d="M652.777,-56.3733C630.3263,-47.2629 596.4261,-33.5062 571.3745,-23.3404"/>
<polygon fill="#191970" stroke="#191970" points="572.4957,-20.0182 561.9135,-19.5011 569.8635,-26.5045 572.4957,-20.0182"/>
</g>
<!-- Node19 -->
<g id="node20" class="node">
<title>Node19</title>
<polygon fill="none" stroke="#bfbfbf" points="591,-.5 591,-19.5 636,-19.5 636,-.5 591,-.5"/>
<text text-anchor="middle" x="613.5" y="-7.5" font-family="FreeSans.ttf" font-size="10.00" fill="#000000">utility</text>
</g>
<!-- Node12&#45;&gt;Node19 -->
<g id="edge22" class="edge">
<title>Node12&#45;&gt;Node19</title>
<path fill="none" stroke="#191970" d="M665.5262,-56.2455C656.3118,-48.0549 642.9468,-36.1749 632.0703,-26.5069"/>
<polygon fill="#191970" stroke="#191970" points="634.1474,-23.6704 624.348,-19.6427 629.4968,-28.9023 634.1474,-23.6704"/>
</g>
<!-- Node21 -->
<g id="node22" class="node">
<title>Node21</title>
<g id="a_node22"><a xlink:href="SpatialMotionVector_8h.html" target="_top" xlink:title="iDynTree/Core/SpatialMotion\lVector.h">
<polygon fill="none" stroke="#000000" points="441,-403.5 441,-433.5 596,-433.5 596,-403.5 441,-403.5"/>
<text text-anchor="start" x="449" y="-421.5" font-family="FreeSans.ttf" font-size="10.00" fill="#000000">iDynTree/Core/SpatialMotion</text>
<text text-anchor="middle" x="518.5" y="-410.5" font-family="FreeSans.ttf" font-size="10.00" fill="#000000">Vector.h</text>
</a>
</g>
</g>
<!-- Node20&#45;&gt;Node21 -->
<g id="edge28" class="edge">
<title>Node20&#45;&gt;Node21</title>
<path fill="none" stroke="#191970" d="M486.8012,-475.9005C491.6259,-467.1638 498.9498,-453.9018 505.3426,-442.3256"/>
<polygon fill="#191970" stroke="#191970" points="508.434,-443.9676 510.2044,-433.5218 502.3063,-440.5836 508.434,-443.9676"/>
</g>
<!-- Node21&#45;&gt;Node11 -->
<g id="edge29" class="edge">
<title>Node21&#45;&gt;Node11</title>
<path fill="none" stroke="#191970" d="M550.7403,-403.3646C568.476,-394.2031 590.3048,-381.5007 607.5,-367 686.6299,-300.2698 721.2891,-285.3379 756.5,-188 766.3121,-160.8752 737.8525,-144.2598 707.5616,-134.485"/>
<polygon fill="#191970" stroke="#191970" points="708.2919,-131.0505 697.7087,-131.547 706.2916,-137.7586 708.2919,-131.0505"/>
</g>
<!-- Node22 -->
<g id="node23" class="node">
<title>Node22</title>
<g id="a_node23"><a xlink:href="GeomVector3_8h.html" target="_top" xlink:title="iDynTree/Core/GeomVector3.h">
<polygon fill="none" stroke="#000000" points="585,-168.5 585,-187.5 748,-187.5 748,-168.5 585,-168.5"/>
<text text-anchor="middle" x="666.5" y="-175.5" font-family="FreeSans.ttf" font-size="10.00" fill="#000000">iDynTree/Core/GeomVector3.h</text>
</a>
</g>
</g>
<!-- Node21&#45;&gt;Node22 -->
<g id="edge30" class="edge">
<title>Node21&#45;&gt;Node22</title>
<path fill="none" stroke="#191970" d="M558.0894,-403.434C575.4188,-395.0564 594.6807,-383.0352 607.5,-367 648.7382,-315.4165 661.3096,-234.8076 665.0156,-197.7933"/>
<polygon fill="#191970" stroke="#191970" points="668.506,-198.0562 665.9031,-187.7861 661.5333,-197.4378 668.506,-198.0562"/>
</g>
<!-- Node23 -->
<g id="node24" class="node">
<title>Node23</title>
<g id="a_node24"><a xlink:href="SpatialVector_8h.html" target="_top" xlink:title="iDynTree/Core/SpatialVector.h">
<polygon fill="none" stroke="#000000" points="438,-342 438,-361 599,-361 599,-342 438,-342"/>
<text text-anchor="middle" x="518.5" y="-349" font-family="FreeSans.ttf" font-size="10.00" fill="#000000">iDynTree/Core/SpatialVector.h</text>
</a>
</g>
</g>
<!-- Node21&#45;&gt;Node23 -->
<g id="edge32" class="edge">
<title>Node21&#45;&gt;Node23</title>
<path fill="none" stroke="#191970" d="M518.5,-403.2967C518.5,-393.7699 518.5,-381.3954 518.5,-371.1306"/>
<polygon fill="#191970" stroke="#191970" points="522.0001,-371.0549 518.5,-361.055 515.0001,-371.055 522.0001,-371.0549"/>
</g>
<!-- Node22&#45;&gt;Node11 -->
<g id="edge31" class="edge">
<title>Node22&#45;&gt;Node11</title>
<path fill="none" stroke="#191970" d="M663.1905,-168.2455C660.6567,-160.7776 657.0823,-150.2427 653.985,-141.1137"/>
<polygon fill="#191970" stroke="#191970" points="657.2991,-139.9879 650.7716,-131.6427 650.6702,-142.237 657.2991,-139.9879"/>
</g>
<!-- Node23&#45;&gt;Node4 -->
<g id="edge46" class="edge">
<title>Node23&#45;&gt;Node4</title>
<path fill="none" stroke="#191970" d="M570.398,-341.9659C655.2895,-324.8751 814.5,-285.9032 814.5,-234 814.5,-234 814.5,-234 814.5,-178 814.5,-145.7116 814.5,-108.1872 814.5,-85.8048"/>
<polygon fill="#191970" stroke="#191970" points="818.0001,-85.5883 814.5,-75.5884 811.0001,-85.5884 818.0001,-85.5883"/>
</g>
<!-- Node23&#45;&gt;Node9 -->
<g id="edge48" class="edge">
<title>Node23&#45;&gt;Node9</title>
<path fill="none" stroke="#191970" d="M463.2644,-341.9428C415.2381,-333.031 344.0526,-318.3665 283.5,-300 218.1833,-280.1885 194.0904,-286.271 140.5,-244 116.6866,-225.2165 110.5836,-216.9377 101.5,-188 90.4872,-152.9166 100.6688,-109.7288 108.4848,-85.2821"/>
<polygon fill="#191970" stroke="#191970" points="111.8212,-86.3417 111.7229,-75.7473 105.193,-84.0907 111.8212,-86.3417"/>
</g>
<!-- Node23&#45;&gt;Node10 -->
<g id="edge49" class="edge">
<title>Node23&#45;&gt;Node10</title>
<path fill="none" stroke="#191970" d="M519.6494,-341.9341C523.2496,-308.7363 532.2145,-195.9453 499.5,-112 495.4005,-101.4808 488.0584,-91.4113 481.0691,-83.3897"/>
<polygon fill="#191970" stroke="#191970" points="483.4311,-80.7895 474.0641,-75.8388 478.2993,-85.5503 483.4311,-80.7895"/>
</g>
<!-- Node23&#45;&gt;Node22 -->
<g id="edge47" class="edge">
<title>Node23&#45;&gt;Node22</title>
<path fill="none" stroke="#191970" d="M526.6679,-341.9248C550.567,-313.9079 620.6147,-231.7912 651.5363,-195.5418"/>
<polygon fill="#191970" stroke="#191970" points="654.3478,-197.639 658.1749,-187.7595 649.0222,-193.0961 654.3478,-197.639"/>
</g>
<!-- Node24 -->
<g id="node25" class="node">
<title>Node24</title>
<g id="a_node25"><a xlink:href="Position_8h.html" target="_top" xlink:title="Position.h">
<polygon fill="none" stroke="#000000" points="293,-280.5 293,-299.5 358,-299.5 358,-280.5 293,-280.5"/>
<text text-anchor="middle" x="325.5" y="-287.5" font-family="FreeSans.ttf" font-size="10.00" fill="#000000">Position.h</text>
</a>
</g>
</g>
<!-- Node23&#45;&gt;Node24 -->
<g id="edge33" class="edge">
<title>Node23&#45;&gt;Node24</title>
<path fill="none" stroke="#191970" d="M488.3438,-341.8906C455.2015,-331.3298 401.8238,-314.3208 365.2758,-302.6747"/>
<polygon fill="#191970" stroke="#191970" points="366.0351,-299.2433 355.4445,-299.5419 363.9098,-305.9129 366.0351,-299.2433"/>
</g>
<!-- Node26 -->
<g id="node27" class="node">
<title>Node26</title>
<g id="a_node27"><a xlink:href="Rotation_8h.html" target="_top" xlink:title="iDynTree/Core/Rotation.h">
<polygon fill="none" stroke="#000000" points="348,-224.5 348,-243.5 485,-243.5 485,-224.5 348,-224.5"/>
<text text-anchor="middle" x="416.5" y="-231.5" font-family="FreeSans.ttf" font-size="10.00" fill="#000000">iDynTree/Core/Rotation.h</text>
</a>
</g>
</g>
<!-- Node23&#45;&gt;Node26 -->
<g id="edge45" class="edge">
<title>Node23&#45;&gt;Node26</title>
<path fill="none" stroke="#191970" d="M510.1529,-341.8845C492.9686,-322.0889 453.4259,-276.5372 431.6197,-251.4173"/>
<polygon fill="#191970" stroke="#191970" points="434.1609,-249.0056 424.9624,-243.7484 428.8748,-253.5944 434.1609,-249.0056"/>
</g>
<!-- Node24&#45;&gt;Node8 -->
<g id="edge44" class="edge">
<title>Node24&#45;&gt;Node8</title>
<path fill="none" stroke="#191970" d="M292.6222,-285.3118C243.2778,-276.3113 151.5896,-251.5186 111.5,-188 73.7661,-128.2137 191.242,-89.0145 250.4958,-73.5072"/>
<polygon fill="#191970" stroke="#191970" points="251.6608,-76.8226 260.493,-70.9708 249.9393,-70.0375 251.6608,-76.8226"/>
</g>
<!-- Node25 -->
<g id="node26" class="node">
<title>Node25</title>
<g id="a_node26"><a xlink:href="PositionRaw_8h.html" target="_top" xlink:title="iDynTree/Core/PositionRaw.h">
<polygon fill="none" stroke="#000000" points="120.5,-168.5 120.5,-187.5 276.5,-187.5 276.5,-168.5 120.5,-168.5"/>
<text text-anchor="middle" x="198.5" y="-175.5" font-family="FreeSans.ttf" font-size="10.00" fill="#000000">iDynTree/Core/PositionRaw.h</text>
</a>
</g>
</g>
<!-- Node24&#45;&gt;Node25 -->
<g id="edge34" class="edge">
<title>Node24&#45;&gt;Node25</title>
<path fill="none" stroke="#191970" d="M314.6721,-280.4509C292.9276,-261.2747 243.7395,-217.8962 216.8683,-194.1988"/>
<polygon fill="#191970" stroke="#191970" points="219.1157,-191.5141 209.3005,-187.5249 214.4857,-196.7642 219.1157,-191.5141"/>
</g>
<!-- Node24&#45;&gt;Node26 -->
<g id="edge37" class="edge">
<title>Node24&#45;&gt;Node26</title>
<path fill="none" stroke="#191970" d="M341.351,-280.2455C355.3132,-271.6534 375.8728,-259.0014 391.9596,-249.1018"/>
<polygon fill="#191970" stroke="#191970" points="394.1484,-251.8645 400.8307,-243.6427 390.4797,-245.9029 394.1484,-251.8645"/>
</g>
<!-- Node25&#45;&gt;Node8 -->
<g id="edge36" class="edge">
<title>Node25&#45;&gt;Node8</title>
<path fill="none" stroke="#191970" d="M205.6618,-168.4509C219.734,-149.688 251.1839,-107.7548 269.1815,-83.758"/>
<polygon fill="#191970" stroke="#191970" points="272.1563,-85.6249 275.3563,-75.5249 266.5563,-81.4249 272.1563,-85.6249"/>
</g>
<!-- Node25&#45;&gt;Node11 -->
<g id="edge35" class="edge">
<title>Node25&#45;&gt;Node11</title>
<path fill="none" stroke="#191970" d="M274.9211,-168.4686C354.2236,-158.5779 478.0241,-143.1373 560.8999,-132.8009"/>
<polygon fill="#191970" stroke="#191970" points="561.5602,-136.2458 571.0501,-131.535 560.6938,-129.2996 561.5602,-136.2458"/>
</g>
<!-- Node26&#45;&gt;Node8 -->
<g id="edge38" class="edge">
<title>Node26&#45;&gt;Node8</title>
<path fill="none" stroke="#191970" d="M383.4994,-224.4038C363.8066,-217.1948 339.5834,-205.5121 323.5,-188 296.9045,-159.0419 287.4994,-112.2539 284.2181,-85.8278"/>
<polygon fill="#191970" stroke="#191970" points="287.664,-85.1321 283.1278,-75.5575 280.7031,-85.8711 287.664,-85.1321"/>
</g>
<!-- Node26&#45;&gt;Node11 -->
<g id="edge43" class="edge">
<title>Node26&#45;&gt;Node11</title>
<path fill="none" stroke="#191970" d="M436.1949,-224.4509C477.0244,-204.6548 571.0508,-159.0663 618.6997,-135.9638"/>
<polygon fill="#191970" stroke="#191970" points="620.3837,-139.037 627.8549,-131.5249 617.3298,-132.7383 620.3837,-139.037"/>
</g>
<!-- Node26&#45;&gt;Node22 -->
<g id="edge39" class="edge">
<title>Node26&#45;&gt;Node22</title>
<path fill="none" stroke="#191970" d="M459.1925,-224.4369C502.0679,-214.8328 568.2005,-200.0191 614.2002,-189.7152"/>
<polygon fill="#191970" stroke="#191970" points="614.9905,-193.1249 623.9836,-187.5237 613.4604,-186.2942 614.9905,-193.1249"/>
</g>
<!-- Node27 -->
<g id="node28" class="node">
<title>Node27</title>
<g id="a_node28"><a xlink:href="RotationRaw_8h.html" target="_top" xlink:title="iDynTree/Core/RotationRaw.h">
<polygon fill="none" stroke="#000000" points="332.5,-168.5 332.5,-187.5 490.5,-187.5 490.5,-168.5 332.5,-168.5"/>
<text text-anchor="middle" x="411.5" y="-175.5" font-family="FreeSans.ttf" font-size="10.00" fill="#000000">iDynTree/Core/RotationRaw.h</text>
</a>
</g>
</g>
<!-- Node26&#45;&gt;Node27 -->
<g id="edge40" class="edge">
<title>Node26&#45;&gt;Node27</title>
<path fill="none" stroke="#191970" d="M415.6291,-224.2455C414.9766,-216.9382 414.062,-206.6944 413.2593,-197.7046"/>
<polygon fill="#191970" stroke="#191970" points="416.7365,-197.2918 412.361,-187.6427 409.7642,-197.9143 416.7365,-197.2918"/>
</g>
<!-- Node27&#45;&gt;Node3 -->
<g id="edge41" class="edge">
<title>Node27&#45;&gt;Node3</title>
<path fill="none" stroke="#191970" d="M411.3258,-168.2455C411.1953,-160.9382 411.0124,-150.6944 410.8519,-141.7046"/>
<polygon fill="#191970" stroke="#191970" points="414.3503,-141.5786 410.6722,-131.6427 407.3514,-141.7036 414.3503,-141.5786"/>
</g>
<!-- Node27&#45;&gt;Node8 -->
<g id="edge42" class="edge">
<title>Node27&#45;&gt;Node8</title>
<path fill="none" stroke="#191970" d="M382.6267,-168.3968C363.2951,-160.8529 338.2373,-148.7982 320.5,-132 306.5951,-118.8313 296.2601,-99.4359 289.9067,-85.0756"/>
<polygon fill="#191970" stroke="#191970" points="293.0653,-83.556 285.99,-75.6699 286.6032,-86.247 293.0653,-83.556"/>
</g>
<!-- Node29 -->
<g id="node30" class="node">
<title>Node29</title>
<g id="a_node30"><a xlink:href="SpatialForceVector_8h.html" target="_top" xlink:title="iDynTree/Core/SpatialForce\lVector.h">
<polygon fill="none" stroke="#000000" points="638.5,-403.5 638.5,-433.5 786.5,-433.5 786.5,-403.5 638.5,-403.5"/>
<text text-anchor="start" x="646.5" y="-421.5" font-family="FreeSans.ttf" font-size="10.00" fill="#000000">iDynTree/Core/SpatialForce</text>
<text text-anchor="middle" x="712.5" y="-410.5" font-family="FreeSans.ttf" font-size="10.00" fill="#000000">Vector.h</text>
</a>
</g>
</g>
<!-- Node28&#45;&gt;Node29 -->
<g id="edge51" class="edge">
<title>Node28&#45;&gt;Node29</title>
<path fill="none" stroke="#191970" d="M792.1754,-475.9005C779.0878,-466.4718 758.6842,-451.7725 741.8014,-439.6096"/>
<polygon fill="#191970" stroke="#191970" points="743.5107,-436.5274 733.3511,-433.5218 739.4189,-442.2069 743.5107,-436.5274"/>
</g>
<!-- Node29&#45;&gt;Node11 -->
<g id="edge52" class="edge">
<title>Node29&#45;&gt;Node11</title>
<path fill="none" stroke="#191970" d="M750.0174,-403.3828C791.4871,-383.8978 852.5,-345.756 852.5,-290 852.5,-290 852.5,-290 852.5,-234 852.5,-175.1516 786.637,-147.0322 729.5757,-133.7133"/>
<polygon fill="#191970" stroke="#191970" points="730.295,-130.2879 719.7753,-131.5473 728.7843,-137.123 730.295,-130.2879"/>
</g>
<!-- Node29&#45;&gt;Node22 -->
<g id="edge53" class="edge">
<title>Node29&#45;&gt;Node22</title>
<path fill="none" stroke="#191970" d="M712.2799,-403.2815C711.4432,-370.059 707.4521,-288.8229 688.5,-224 685.7449,-214.5766 681.2479,-204.6845 677.0353,-196.4986"/>
<polygon fill="#191970" stroke="#191970" points="680.0085,-194.6385 672.1742,-187.5059 673.8506,-197.9672 680.0085,-194.6385"/>
</g>
<!-- Node29&#45;&gt;Node23 -->
<g id="edge54" class="edge">
<title>Node29&#45;&gt;Node23</title>
<path fill="none" stroke="#191970" d="M668.9626,-403.4639C634.8444,-391.6808 587.8932,-375.4657 555.5581,-364.2984"/>
<polygon fill="#191970" stroke="#191970" points="556.6175,-360.9615 546.0228,-361.0053 554.3324,-367.578 556.6175,-360.9615"/>
</g>
<!-- Node30&#45;&gt;Node21 -->
<g id="edge56" class="edge">
<title>Node30&#45;&gt;Node21</title>
<path fill="none" stroke="#191970" d="M355.7224,-475.9005C384.4229,-465.7798 430.3446,-449.5864 466.1065,-436.9756"/>
<polygon fill="#191970" stroke="#191970" points="467.6341,-440.1482 475.901,-433.5218 465.3062,-433.5466 467.6341,-440.1482"/>
</g>
<!-- Node31&#45;&gt;Node29 -->
<g id="edge58" class="edge">
<title>Node31&#45;&gt;Node29</title>
<path fill="none" stroke="#191970" d="M639.6784,-475.9005C651.5305,-466.5583 669.947,-452.0417 685.2937,-439.945"/>
<polygon fill="#191970" stroke="#191970" points="687.7556,-442.461 693.4425,-433.5218 683.4223,-436.9635 687.7556,-442.461"/>
</g>
</g>
</svg>
