<?xml version="1.0" encoding="UTF-8" standalone="no"?>
<!DOCTYPE svg PUBLIC "-//W3C//DTD SVG 1.1//EN"
 "http://www.w3.org/Graphics/SVG/1.1/DTD/svg11.dtd">
<!-- Generated by graphviz version 2.40.1 (20161225.0304)
 -->
<!-- Title: SpatialMotionVector.cpp Pages: 1 -->
<svg width="1437pt" height="599pt"
 viewBox="0.00 0.00 1436.50 599.00" xmlns="http://www.w3.org/2000/svg" xmlns:xlink="http://www.w3.org/1999/xlink">
<g id="graph0" class="graph" transform="scale(1 1) rotate(0) translate(4 595)">
<title>SpatialMotionVector.cpp</title>
<!-- Node0 -->
<g id="node1" class="node">
<title>Node0</title>
<polygon fill="#bfbfbf" stroke="#000000" points="195,-571.5 195,-590.5 329,-590.5 329,-571.5 195,-571.5"/>
<text text-anchor="middle" x="262" y="-578.5" font-family="FreeSans.ttf" font-size="10.00" fill="#000000">SpatialMotionVector.cpp</text>
</g>
<!-- Node1 -->
<g id="node2" class="node">
<title>Node1</title>
<g id="a_node2"><a xlink:href="SpatialMotionVector_8h.html" target="_top" xlink:title="iDynTree/Core/SpatialMotion\lVector.h">
<polygon fill="none" stroke="#000000" points="490.5,-392.5 490.5,-422.5 645.5,-422.5 645.5,-392.5 490.5,-392.5"/>
<text text-anchor="start" x="498.5" y="-410.5" font-family="FreeSans.ttf" font-size="10.00" fill="#000000">iDynTree/Core/SpatialMotion</text>
<text text-anchor="middle" x="568" y="-399.5" font-family="FreeSans.ttf" font-size="10.00" fill="#000000">Vector.h</text>
</a>
</g>
</g>
<!-- Node0&#45;&gt;Node1 -->
<g id="edge1" class="edge">
<title>Node0&#45;&gt;Node1</title>
<path fill="none" stroke="#191970" d="M281.0214,-571.3872C298.9391,-562.2545 326.4696,-548.0214 350,-535 415.9409,-498.5093 491.6118,-453.5405 534.2186,-427.9297"/>
<polygon fill="#191970" stroke="#191970" points="536.284,-430.7716 543.0465,-422.6157 532.6739,-424.7743 536.284,-430.7716"/>
</g>
<!-- Node3 -->
<g id="node4" class="node">
<title>Node3</title>
<g id="a_node4"><a xlink:href="Utils_8h.html" target="_top" xlink:title="iDynTree/Core/Utils.h">
<polygon fill="none" stroke="#000000" points="131.5,-56.5 131.5,-75.5 250.5,-75.5 250.5,-56.5 131.5,-56.5"/>
<text text-anchor="middle" x="191" y="-63.5" font-family="FreeSans.ttf" font-size="10.00" fill="#000000">iDynTree/Core/Utils.h</text>
</a>
</g>
</g>
<!-- Node0&#45;&gt;Node3 -->
<g id="edge54" class="edge">
<title>Node0&#45;&gt;Node3</title>
<path fill="none" stroke="#191970" d="M194.8974,-575.3958C133.753,-569.0067 49.2491,-556.548 24,-535 .258,-514.7382 0,-500.2125 0,-469 0,-469 0,-469 0,-178 0,-146.7875 1.0646,-133.1705 24,-112 39.1259,-98.0381 85.8309,-85.8542 126.0151,-77.5393"/>
<polygon fill="#191970" stroke="#191970" points="126.9581,-80.9197 136.0678,-75.51 125.5729,-74.0581 126.9581,-80.9197"/>
</g>
<!-- Node15 -->
<g id="node16" class="node">
<title>Node15</title>
<polygon fill="none" stroke="#bfbfbf" points="513,-56.5 513,-75.5 569,-75.5 569,-56.5 513,-56.5"/>
<text text-anchor="middle" x="541" y="-63.5" font-family="FreeSans.ttf" font-size="10.00" fill="#000000">sstream</text>
</g>
<!-- Node0&#45;&gt;Node15 -->
<g id="edge72" class="edge">
<title>Node0&#45;&gt;Node15</title>
<path fill="none" stroke="#191970" d="M194.7926,-575.4555C128.812,-565.8982 38,-539.8709 38,-469 38,-469 38,-469 38,-178 38,-100.5435 448.4262,-86.7078 503,-76 503.1004,-75.9803 503.201,-75.9605 503.3016,-75.9406"/>
<polygon fill="#191970" stroke="#191970" points="503.8599,-79.4017 512.8705,-73.8285 502.3512,-72.5662 503.8599,-79.4017"/>
</g>
<!-- Node25 -->
<g id="node26" class="node">
<title>Node25</title>
<g id="a_node26"><a xlink:href="SpatialForceVector_8h.html" target="_top" xlink:title="iDynTree/Core/SpatialForce\lVector.h">
<polygon fill="none" stroke="#000000" points="324,-392.5 324,-422.5 472,-422.5 472,-392.5 324,-392.5"/>
<text text-anchor="start" x="332" y="-410.5" font-family="FreeSans.ttf" font-size="10.00" fill="#000000">iDynTree/Core/SpatialForce</text>
<text text-anchor="middle" x="398" y="-399.5" font-family="FreeSans.ttf" font-size="10.00" fill="#000000">Vector.h</text>
</a>
</g>
</g>
<!-- Node0&#45;&gt;Node25 -->
<g id="edge45" class="edge">
<title>Node0&#45;&gt;Node25</title>
<path fill="none" stroke="#191970" d="M277.1294,-571.2895C301.2647,-555.0432 348.457,-520.06 375,-479 384.0258,-465.0378 389.7662,-447.2476 393.2549,-432.9058"/>
<polygon fill="#191970" stroke="#191970" points="396.763,-433.2507 395.501,-422.7313 389.9276,-431.7417 396.763,-433.2507"/>
</g>
<!-- Node26 -->
<g id="node27" class="node">
<title>Node26</title>
<g id="a_node27"><a xlink:href="Transform_8h.html" target="_top" xlink:title="iDynTree/Core/Transform.h">
<polygon fill="none" stroke="#000000" points="744,-336.5 744,-355.5 890,-355.5 890,-336.5 744,-336.5"/>
<text text-anchor="middle" x="817" y="-343.5" font-family="FreeSans.ttf" font-size="10.00" fill="#000000">iDynTree/Core/Transform.h</text>
</a>
</g>
</g>
<!-- Node0&#45;&gt;Node26 -->
<g id="edge49" class="edge">
<title>Node0&#45;&gt;Node26</title>
<path fill="none" stroke="#191970" d="M299.1396,-571.4829C377.3108,-550.6729 563.4451,-496.9986 707,-423 740.8728,-405.5395 776.3409,-378.9794 797.5541,-362.0615"/>
<polygon fill="#191970" stroke="#191970" points="799.89,-364.6739 805.4689,-355.6669 795.4908,-359.2289 799.89,-364.6739"/>
</g>
<!-- Node27 -->
<g id="node28" class="node">
<title>Node27</title>
<g id="a_node28"><a xlink:href="PrivateUtils_8h.html" target="_top" xlink:title="iDynTree/Core/PrivateUtils.h">
<polygon fill="none" stroke="#000000" points="133,-515.5 133,-534.5 287,-534.5 287,-515.5 133,-515.5"/>
<text text-anchor="middle" x="210" y="-522.5" font-family="FreeSans.ttf" font-size="10.00" fill="#000000">iDynTree/Core/PrivateUtils.h</text>
</a>
</g>
</g>
<!-- Node0&#45;&gt;Node27 -->
<g id="edge55" class="edge">
<title>Node0&#45;&gt;Node27</title>
<path fill="none" stroke="#191970" d="M252.9423,-571.2455C245.4858,-563.2155 234.7366,-551.6394 225.8583,-542.0781"/>
<polygon fill="#191970" stroke="#191970" points="228.3232,-539.589 218.9539,-534.6427 223.1937,-544.3522 228.3232,-539.589"/>
</g>
<!-- Node28 -->
<g id="node29" class="node">
<title>Node28</title>
<polygon fill="none" stroke="#bfbfbf" points="66.5,-398 66.5,-417 143.5,-417 143.5,-398 66.5,-398"/>
<text text-anchor="middle" x="105" y="-405" font-family="FreeSans.ttf" font-size="10.00" fill="#000000">Eigen/Dense</text>
</g>
<!-- Node0&#45;&gt;Node28 -->
<g id="edge71" class="edge">
<title>Node0&#45;&gt;Node28</title>
<path fill="none" stroke="#191970" d="M217.2324,-571.417C181.7674,-562.8935 136.2206,-549.5534 124,-535 98.3228,-504.4213 99.2079,-454.535 102.1026,-427.1069"/>
<polygon fill="#191970" stroke="#191970" points="105.5786,-427.5158 103.3493,-417.1581 98.633,-426.6453 105.5786,-427.5158"/>
</g>
<!-- Node29 -->
<g id="node30" class="node">
<title>Node29</title>
<g id="a_node30"><a xlink:href="EigenHelpers_8h.html" target="_top" xlink:title="iDynTree/Core/EigenHelpers.h">
<polygon fill="none" stroke="#000000" points="205.5,-459.5 205.5,-478.5 366.5,-478.5 366.5,-459.5 205.5,-459.5"/>
<text text-anchor="middle" x="286" y="-466.5" font-family="FreeSans.ttf" font-size="10.00" fill="#000000">iDynTree/Core/EigenHelpers.h</text>
</a>
</g>
</g>
<!-- Node0&#45;&gt;Node29 -->
<g id="edge70" class="edge">
<title>Node0&#45;&gt;Node29</title>
<path fill="none" stroke="#191970" d="M271.9362,-571.4913C280.176,-562.8654 291.2767,-549.3368 296,-535 301.0361,-519.7138 297.6654,-501.5897 293.5268,-488.2053"/>
<polygon fill="#191970" stroke="#191970" points="296.7863,-486.9224 290.1892,-478.6321 290.1765,-489.2269 296.7863,-486.9224"/>
</g>
<!-- Node2 -->
<g id="node3" class="node">
<title>Node2</title>
<g id="a_node3"><a xlink:href="VectorFixSize_8h.html" target="_top" xlink:title="iDynTree/Core/VectorFixSize.h">
<polygon fill="none" stroke="#000000" points="460.5,-112.5 460.5,-131.5 621.5,-131.5 621.5,-112.5 460.5,-112.5"/>
<text text-anchor="middle" x="541" y="-119.5" font-family="FreeSans.ttf" font-size="10.00" fill="#000000">iDynTree/Core/VectorFixSize.h</text>
</a>
</g>
</g>
<!-- Node1&#45;&gt;Node2 -->
<g id="edge2" class="edge">
<title>Node1&#45;&gt;Node2</title>
<path fill="none" stroke="#191970" d="M604.1065,-392.3886C641.3393,-374.1077 694,-339.5021 694,-290 694,-290 694,-290 694,-234 694,-203.4754 696.0337,-190.121 675,-168 659.4939,-151.6923 637.9566,-141.1656 616.6794,-134.3706"/>
<polygon fill="#191970" stroke="#191970" points="617.5257,-130.9713 606.9443,-131.5038 615.5483,-137.6862 617.5257,-130.9713"/>
</g>
<!-- Node17 -->
<g id="node18" class="node">
<title>Node17</title>
<g id="a_node18"><a xlink:href="GeomVector3_8h.html" target="_top" xlink:title="iDynTree/Core/GeomVector3.h">
<polygon fill="none" stroke="#000000" points="502.5,-168.5 502.5,-187.5 665.5,-187.5 665.5,-168.5 502.5,-168.5"/>
<text text-anchor="middle" x="584" y="-175.5" font-family="FreeSans.ttf" font-size="10.00" fill="#000000">iDynTree/Core/GeomVector3.h</text>
</a>
</g>
</g>
<!-- Node1&#45;&gt;Node17 -->
<g id="edge19" class="edge">
<title>Node1&#45;&gt;Node17</title>
<path fill="none" stroke="#191970" d="M599.6421,-392.4839C613.8158,-383.9409 629.0935,-371.7673 637,-356 664.6113,-300.9373 621.4981,-228.93 597.8399,-195.9313"/>
<polygon fill="#191970" stroke="#191970" points="600.5173,-193.6652 591.758,-187.7049 594.8885,-197.8267 600.5173,-193.6652"/>
</g>
<!-- Node18 -->
<g id="node19" class="node">
<title>Node18</title>
<g id="a_node19"><a xlink:href="SpatialVector_8h.html" target="_top" xlink:title="iDynTree/Core/SpatialVector.h">
<polygon fill="none" stroke="#000000" points="466.5,-336.5 466.5,-355.5 627.5,-355.5 627.5,-336.5 466.5,-336.5"/>
<text text-anchor="middle" x="547" y="-343.5" font-family="FreeSans.ttf" font-size="10.00" fill="#000000">iDynTree/Core/SpatialVector.h</text>
</a>
</g>
</g>
<!-- Node1&#45;&gt;Node18 -->
<g id="edge21" class="edge">
<title>Node1&#45;&gt;Node18</title>
<path fill="none" stroke="#191970" d="M562.809,-392.2977C560.0458,-384.2055 556.6169,-374.1639 553.6595,-365.5029"/>
<polygon fill="#191970" stroke="#191970" points="556.9061,-364.1794 550.3624,-355.8469 550.2816,-366.4415 556.9061,-364.1794"/>
</g>
<!-- Node2&#45;&gt;Node3 -->
<g id="edge3" class="edge">
<title>Node2&#45;&gt;Node3</title>
<path fill="none" stroke="#191970" d="M481.2305,-112.4369C420.0723,-102.6516 325.114,-87.4582 260.605,-77.1368"/>
<polygon fill="#191970" stroke="#191970" points="260.9503,-73.6476 250.5229,-75.5237 259.8444,-80.5597 260.9503,-73.6476"/>
</g>
<!-- Node5 -->
<g id="node6" class="node">
<title>Node5</title>
<g id="a_node6"><a xlink:href="Span_8h.html" target="_top" xlink:title="iDynTree/Core/Span.h">
<polygon fill="none" stroke="#000000" points="373.5,-56.5 373.5,-75.5 494.5,-75.5 494.5,-56.5 373.5,-56.5"/>
<text text-anchor="middle" x="434" y="-63.5" font-family="FreeSans.ttf" font-size="10.00" fill="#000000">iDynTree/Core/Span.h</text>
</a>
</g>
</g>
<!-- Node2&#45;&gt;Node5 -->
<g id="edge5" class="edge">
<title>Node2&#45;&gt;Node5</title>
<path fill="none" stroke="#191970" d="M522.362,-112.2455C505.5614,-103.4527 480.6366,-90.4079 461.5382,-80.4125"/>
<polygon fill="#191970" stroke="#191970" points="462.9073,-77.1787 452.4244,-75.6427 459.6614,-83.3807 462.9073,-77.1787"/>
</g>
<!-- Node6 -->
<g id="node7" class="node">
<title>Node6</title>
<polygon fill="none" stroke="#bfbfbf" points="693,-.5 693,-19.5 745,-19.5 745,-.5 693,-.5"/>
<text text-anchor="middle" x="719" y="-7.5" font-family="FreeSans.ttf" font-size="10.00" fill="#000000">cassert</text>
</g>
<!-- Node2&#45;&gt;Node6 -->
<g id="edge17" class="edge">
<title>Node2&#45;&gt;Node6</title>
<path fill="none" stroke="#191970" d="M552.3378,-112.333C568.4997,-98.8058 599.3816,-73.8831 628,-56 647.2534,-43.9689 670.0547,-32.4474 688.017,-23.9445"/>
<polygon fill="#191970" stroke="#191970" points="689.8617,-26.9462 697.4449,-19.5471 686.9027,-20.6023 689.8617,-26.9462"/>
</g>
<!-- Node14 -->
<g id="node15" class="node">
<title>Node14</title>
<polygon fill="none" stroke="#bfbfbf" points="924,-56.5 924,-75.5 968,-75.5 968,-56.5 924,-56.5"/>
<text text-anchor="middle" x="946" y="-63.5" font-family="FreeSans.ttf" font-size="10.00" fill="#000000">string</text>
</g>
<!-- Node2&#45;&gt;Node14 -->
<g id="edge15" class="edge">
<title>Node2&#45;&gt;Node14</title>
<path fill="none" stroke="#191970" d="M610.1618,-112.4369C698.5477,-100.2156 847.942,-79.5586 913.5069,-70.4929"/>
<polygon fill="#191970" stroke="#191970" points="914.2262,-73.9268 923.6525,-69.09 913.2673,-66.9928 914.2262,-73.9268"/>
</g>
<!-- Node2&#45;&gt;Node15 -->
<g id="edge16" class="edge">
<title>Node2&#45;&gt;Node15</title>
<path fill="none" stroke="#191970" d="M541,-112.2455C541,-104.9382 541,-94.6944 541,-85.7046"/>
<polygon fill="#191970" stroke="#191970" points="544.5001,-85.6426 541,-75.6427 537.5001,-85.6427 544.5001,-85.6426"/>
</g>
<!-- Node16 -->
<g id="node17" class="node">
<title>Node16</title>
<polygon fill="none" stroke="#bfbfbf" points="637,-56.5 637,-75.5 687,-75.5 687,-56.5 637,-56.5"/>
<text text-anchor="middle" x="662" y="-63.5" font-family="FreeSans.ttf" font-size="10.00" fill="#000000">cstring</text>
</g>
<!-- Node2&#45;&gt;Node16 -->
<g id="edge18" class="edge">
<title>Node2&#45;&gt;Node16</title>
<path fill="none" stroke="#191970" d="M561.8006,-112.3733C581.2243,-103.3838 610.4224,-89.8706 632.2964,-79.7471"/>
<polygon fill="#191970" stroke="#191970" points="633.8656,-82.8776 641.4708,-75.5011 630.9255,-76.5249 633.8656,-82.8776"/>
</g>
<!-- Node4 -->
<g id="node5" class="node">
<title>Node4</title>
<polygon fill="none" stroke="#bfbfbf" points="112.5,-.5 112.5,-19.5 165.5,-19.5 165.5,-.5 112.5,-.5"/>
<text text-anchor="middle" x="139" y="-7.5" font-family="FreeSans.ttf" font-size="10.00" fill="#000000">cstddef</text>
</g>
<!-- Node3&#45;&gt;Node4 -->
<g id="edge4" class="edge">
<title>Node3&#45;&gt;Node4</title>
<path fill="none" stroke="#191970" d="M181.9423,-56.2455C174.4858,-48.2155 163.7366,-36.6394 154.8583,-27.0781"/>
<polygon fill="#191970" stroke="#191970" points="157.3232,-24.589 147.9539,-19.6427 152.1937,-29.3522 157.3232,-24.589"/>
</g>
<!-- Node5&#45;&gt;Node4 -->
<g id="edge9" class="edge">
<title>Node5&#45;&gt;Node4</title>
<path fill="none" stroke="#191970" d="M373.4881,-57.1065C322.8383,-49.2505 248.5047,-36.7658 175.502,-20.1872"/>
<polygon fill="#191970" stroke="#191970" points="176.2092,-16.7586 165.6793,-17.9295 174.6411,-23.5807 176.2092,-16.7586"/>
</g>
<!-- Node5&#45;&gt;Node6 -->
<g id="edge6" class="edge">
<title>Node5&#45;&gt;Node6</title>
<path fill="none" stroke="#191970" d="M494.705,-56.5124C543.2587,-48.5404 613.2399,-36.1954 682.8764,-20.1041"/>
<polygon fill="#191970" stroke="#191970" points="683.7567,-23.4928 692.6978,-17.8088 682.1637,-16.6764 683.7567,-23.4928"/>
</g>
<!-- Node7 -->
<g id="node8" class="node">
<title>Node7</title>
<polygon fill="none" stroke="#bfbfbf" points="551,-.5 551,-19.5 615,-19.5 615,-.5 551,-.5"/>
<text text-anchor="middle" x="583" y="-7.5" font-family="FreeSans.ttf" font-size="10.00" fill="#000000">algorithm</text>
</g>
<!-- Node5&#45;&gt;Node7 -->
<g id="edge7" class="edge">
<title>Node5&#45;&gt;Node7</title>
<path fill="none" stroke="#191970" d="M459.614,-56.3733C484.0687,-47.1822 521.1054,-33.2624 548.2209,-23.0713"/>
<polygon fill="#191970" stroke="#191970" points="549.5909,-26.2956 557.7202,-19.5011 547.1281,-19.7431 549.5909,-26.2956"/>
</g>
<!-- Node8 -->
<g id="node9" class="node">
<title>Node8</title>
<polygon fill="none" stroke="#bfbfbf" points="633,-.5 633,-19.5 675,-19.5 675,-.5 633,-.5"/>
<text text-anchor="middle" x="654" y="-7.5" font-family="FreeSans.ttf" font-size="10.00" fill="#000000">array</text>
</g>
<!-- Node5&#45;&gt;Node8 -->
<g id="edge8" class="edge">
<title>Node5&#45;&gt;Node8</title>
<path fill="none" stroke="#191970" d="M478.0447,-56.4428C514.5398,-48.2761 567.9428,-35.7577 622.859,-20.1659"/>
<polygon fill="#191970" stroke="#191970" points="624.1167,-23.4463 632.7638,-17.3244 622.1863,-16.7177 624.1167,-23.4463"/>
</g>
<!-- Node9 -->
<g id="node10" class="node">
<title>Node9</title>
<polygon fill="none" stroke="#bfbfbf" points="183.5,-.5 183.5,-19.5 236.5,-19.5 236.5,-.5 183.5,-.5"/>
<text text-anchor="middle" x="210" y="-7.5" font-family="FreeSans.ttf" font-size="10.00" fill="#000000">iterator</text>
</g>
<!-- Node5&#45;&gt;Node9 -->
<g id="edge10" class="edge">
<title>Node5&#45;&gt;Node9</title>
<path fill="none" stroke="#191970" d="M393.5684,-56.4898C357.5201,-47.9251 303.0782,-34.7816 246.5415,-20.0847"/>
<polygon fill="#191970" stroke="#191970" points="247.2713,-16.658 236.7115,-17.519 245.5034,-23.4311 247.2713,-16.658"/>
</g>
<!-- Node10 -->
<g id="node11" class="node">
<title>Node10</title>
<polygon fill="none" stroke="#bfbfbf" points="255,-.5 255,-19.5 299,-19.5 299,-.5 255,-.5"/>
<text text-anchor="middle" x="277" y="-7.5" font-family="FreeSans.ttf" font-size="10.00" fill="#000000">limits</text>
</g>
<!-- Node5&#45;&gt;Node10 -->
<g id="edge11" class="edge">
<title>Node5&#45;&gt;Node10</title>
<path fill="none" stroke="#191970" d="M407.0107,-56.3733C379.7184,-46.6384 337.5531,-31.5985 308.6894,-21.3032"/>
<polygon fill="#191970" stroke="#191970" points="309.6756,-17.939 299.0809,-17.876 307.3238,-24.5322 309.6756,-17.939"/>
</g>
<!-- Node11 -->
<g id="node12" class="node">
<title>Node11</title>
<polygon fill="none" stroke="#bfbfbf" points="317.5,-.5 317.5,-19.5 382.5,-19.5 382.5,-.5 317.5,-.5"/>
<text text-anchor="middle" x="350" y="-7.5" font-family="FreeSans.ttf" font-size="10.00" fill="#000000">stdexcept</text>
</g>
<!-- Node5&#45;&gt;Node11 -->
<g id="edge12" class="edge">
<title>Node5&#45;&gt;Node11</title>
<path fill="none" stroke="#191970" d="M419.3683,-56.2455C406.6006,-47.7337 387.8562,-35.2375 373.0701,-25.3801"/>
<polygon fill="#191970" stroke="#191970" points="374.726,-22.2775 364.464,-19.6427 370.8431,-28.1019 374.726,-22.2775"/>
</g>
<!-- Node12 -->
<g id="node13" class="node">
<title>Node12</title>
<polygon fill="none" stroke="#bfbfbf" points="400.5,-.5 400.5,-19.5 469.5,-19.5 469.5,-.5 400.5,-.5"/>
<text text-anchor="middle" x="435" y="-7.5" font-family="FreeSans.ttf" font-size="10.00" fill="#000000">type_traits</text>
</g>
<!-- Node5&#45;&gt;Node12 -->
<g id="edge13" class="edge">
<title>Node5&#45;&gt;Node12</title>
<path fill="none" stroke="#191970" d="M434.1742,-56.2455C434.3047,-48.9382 434.4876,-38.6944 434.6481,-29.7046"/>
<polygon fill="#191970" stroke="#191970" points="438.1486,-29.7036 434.8278,-19.6427 431.1497,-29.5786 438.1486,-29.7036"/>
</g>
<!-- Node13 -->
<g id="node14" class="node">
<title>Node13</title>
<polygon fill="none" stroke="#bfbfbf" points="487.5,-.5 487.5,-19.5 532.5,-19.5 532.5,-.5 487.5,-.5"/>
<text text-anchor="middle" x="510" y="-7.5" font-family="FreeSans.ttf" font-size="10.00" fill="#000000">utility</text>
</g>
<!-- Node5&#45;&gt;Node13 -->
<g id="edge14" class="edge">
<title>Node5&#45;&gt;Node13</title>
<path fill="none" stroke="#191970" d="M447.2382,-56.2455C458.681,-47.814 475.4296,-35.4729 488.7475,-25.6598"/>
<polygon fill="#191970" stroke="#191970" points="490.9391,-28.3924 496.9135,-19.6427 486.7867,-22.757 490.9391,-28.3924"/>
</g>
<!-- Node17&#45;&gt;Node2 -->
<g id="edge20" class="edge">
<title>Node17&#45;&gt;Node2</title>
<path fill="none" stroke="#191970" d="M576.51,-168.2455C570.4674,-160.3761 561.8097,-149.101 554.5559,-139.6542"/>
<polygon fill="#191970" stroke="#191970" points="557.2705,-137.4426 548.4042,-131.6427 551.7185,-141.7058 557.2705,-137.4426"/>
</g>
<!-- Node18&#45;&gt;Node3 -->
<g id="edge41" class="edge">
<title>Node18&#45;&gt;Node3</title>
<path fill="none" stroke="#191970" d="M517.9122,-336.3768C495.1,-328.2385 462.9745,-315.4492 437,-300 334.5706,-239.0765 304.9896,-222.9728 228,-132 215.9632,-117.777 205.906,-99.0532 199.33,-85.1826"/>
<polygon fill="#191970" stroke="#191970" points="202.332,-83.3292 195.0047,-75.6767 195.9605,-86.2283 202.332,-83.3292"/>
</g>
<!-- Node18&#45;&gt;Node15 -->
<g id="edge44" class="edge">
<title>Node18&#45;&gt;Node15</title>
<path fill="none" stroke="#191970" d="M522.3947,-336.3697C504.3175,-328.4675 479.8919,-315.9879 462,-300 416.7679,-259.5814 402.1672,-245.8754 384,-188 370.5139,-145.0375 413.4422,-136.8409 451,-112 469.5236,-99.7484 491.7291,-88.3677 509.4485,-79.9912"/>
<polygon fill="#191970" stroke="#191970" points="511.1822,-83.0452 518.7792,-75.6602 508.2351,-76.6958 511.1822,-83.0452"/>
</g>
<!-- Node18&#45;&gt;Node17 -->
<g id="edge42" class="edge">
<title>Node18&#45;&gt;Node17</title>
<path fill="none" stroke="#191970" d="M549.0953,-336.4862C554.9695,-309.8144 571.6861,-233.9117 579.6624,-197.695"/>
<polygon fill="#191970" stroke="#191970" points="583.1027,-198.3467 581.8355,-187.8279 576.2665,-196.841 583.1027,-198.3467"/>
</g>
<!-- Node19 -->
<g id="node20" class="node">
<title>Node19</title>
<g id="a_node20"><a xlink:href="Position_8h.html" target="_top" xlink:title="Position.h">
<polygon fill="none" stroke="#000000" points="832.5,-280.5 832.5,-299.5 897.5,-299.5 897.5,-280.5 832.5,-280.5"/>
<text text-anchor="middle" x="865" y="-287.5" font-family="FreeSans.ttf" font-size="10.00" fill="#000000">Position.h</text>
</a>
</g>
</g>
<!-- Node18&#45;&gt;Node19 -->
<g id="edge22" class="edge">
<title>Node18&#45;&gt;Node19</title>
<path fill="none" stroke="#191970" d="M601.3048,-336.4369C663.762,-325.4381 765.0176,-307.607 822.1756,-297.5414"/>
<polygon fill="#191970" stroke="#191970" points="823.0744,-300.9371 832.3158,-295.7557 821.8603,-294.0431 823.0744,-300.9371"/>
</g>
<!-- Node21 -->
<g id="node22" class="node">
<title>Node21</title>
<g id="a_node22"><a xlink:href="Rotation_8h.html" target="_top" xlink:title="iDynTree/Core/Rotation.h">
<polygon fill="none" stroke="#000000" points="735.5,-224.5 735.5,-243.5 872.5,-243.5 872.5,-224.5 735.5,-224.5"/>
<text text-anchor="middle" x="804" y="-231.5" font-family="FreeSans.ttf" font-size="10.00" fill="#000000">iDynTree/Core/Rotation.h</text>
</a>
</g>
</g>
<!-- Node18&#45;&gt;Node21 -->
<g id="edge40" class="edge">
<title>Node18&#45;&gt;Node21</title>
<path fill="none" stroke="#191970" d="M568.9117,-336.4509C614.6212,-316.5308 720.2587,-270.4942 772.9481,-247.5323"/>
<polygon fill="#191970" stroke="#191970" points="774.3748,-250.7286 782.1438,-243.5249 771.5782,-244.3115 774.3748,-250.7286"/>
</g>
<!-- Node24 -->
<g id="node25" class="node">
<title>Node24</title>
<polygon fill="none" stroke="#bfbfbf" points="774,-56.5 774,-75.5 834,-75.5 834,-56.5 774,-56.5"/>
<text text-anchor="middle" x="804" y="-63.5" font-family="FreeSans.ttf" font-size="10.00" fill="#000000">iostream</text>
</g>
<!-- Node18&#45;&gt;Node24 -->
<g id="edge43" class="edge">
<title>Node18&#45;&gt;Node24</title>
<path fill="none" stroke="#191970" d="M538.3742,-336.1451C513.7295,-306.791 447.6179,-218.8276 493,-168 587.4377,-62.2305 715.5623,-237.7695 810,-132 821.0993,-119.5689 817.718,-100.0765 812.689,-85.4928"/>
<polygon fill="#191970" stroke="#191970" points="815.8379,-83.9364 808.9194,-75.9123 809.3239,-86.4994 815.8379,-83.9364"/>
</g>
<!-- Node19&#45;&gt;Node14 -->
<g id="edge39" class="edge">
<title>Node19&#45;&gt;Node14</title>
<path fill="none" stroke="#191970" d="M897.6594,-282.7276C963.9663,-267.2311 1110.5087,-229.0077 1139,-188 1183.7635,-123.5717 1043.963,-85.8454 978.2152,-72.0419"/>
<polygon fill="#191970" stroke="#191970" points="978.8357,-68.5965 968.3385,-70.0315 977.4394,-75.4559 978.8357,-68.5965"/>
</g>
<!-- Node20 -->
<g id="node21" class="node">
<title>Node20</title>
<g id="a_node21"><a xlink:href="PositionRaw_8h.html" target="_top" xlink:title="iDynTree/Core/PositionRaw.h">
<polygon fill="none" stroke="#000000" points="974,-168.5 974,-187.5 1130,-187.5 1130,-168.5 974,-168.5"/>
<text text-anchor="middle" x="1052" y="-175.5" font-family="FreeSans.ttf" font-size="10.00" fill="#000000">iDynTree/Core/PositionRaw.h</text>
</a>
</g>
</g>
<!-- Node19&#45;&gt;Node20 -->
<g id="edge23" class="edge">
<title>Node19&#45;&gt;Node20</title>
<path fill="none" stroke="#191970" d="M880.9435,-280.4509C913.651,-260.8615 988.5281,-216.0152 1027.4654,-192.6945"/>
<polygon fill="#191970" stroke="#191970" points="1029.3162,-195.6658 1036.0968,-187.5249 1025.7195,-189.6605 1029.3162,-195.6658"/>
</g>
<!-- Node19&#45;&gt;Node21 -->
<g id="edge26" class="edge">
<title>Node19&#45;&gt;Node21</title>
<path fill="none" stroke="#191970" d="M854.3746,-280.2455C845.4527,-272.0549 832.512,-260.1749 821.9808,-250.5069"/>
<polygon fill="#191970" stroke="#191970" points="824.2371,-247.8271 814.5036,-243.6427 819.5032,-252.9837 824.2371,-247.8271"/>
</g>
<!-- Node20&#45;&gt;Node2 -->
<g id="edge24" class="edge">
<title>Node20&#45;&gt;Node2</title>
<path fill="none" stroke="#191970" d="M973.6274,-169.4799C891.3066,-160.5208 757.7614,-145.9592 632.1396,-132.124"/>
<polygon fill="#191970" stroke="#191970" points="632.2754,-128.6179 621.9523,-131.0017 631.5088,-135.5758 632.2754,-128.6179"/>
</g>
<!-- Node20&#45;&gt;Node14 -->
<g id="edge25" class="edge">
<title>Node20&#45;&gt;Node14</title>
<path fill="none" stroke="#191970" d="M1042.9625,-168.4509C1024.9701,-149.4401 984.4651,-106.6423 961.9152,-82.816"/>
<polygon fill="#191970" stroke="#191970" points="964.4305,-80.382 955.0146,-75.5249 959.3465,-85.1937 964.4305,-80.382"/>
</g>
<!-- Node21&#45;&gt;Node2 -->
<g id="edge38" class="edge">
<title>Node21&#45;&gt;Node2</title>
<path fill="none" stroke="#191970" d="M792.6551,-224.3017C775.4374,-210.0427 741.1906,-183.4448 708,-168 674.519,-152.42 634.7332,-141.2026 602.3948,-133.7474"/>
<polygon fill="#191970" stroke="#191970" points="603.1366,-130.3269 592.6131,-131.5538 601.6048,-137.1572 603.1366,-130.3269"/>
</g>
<!-- Node21&#45;&gt;Node14 -->
<g id="edge27" class="edge">
<title>Node21&#45;&gt;Node14</title>
<path fill="none" stroke="#191970" d="M865.4765,-224.425C888.0229,-217.8414 911.7347,-206.7348 927,-188 950.8259,-158.759 950.8749,-112.077 948.5766,-85.7448"/>
<polygon fill="#191970" stroke="#191970" points="952.0253,-85.0804 947.4715,-75.5141 945.0657,-85.8322 952.0253,-85.0804"/>
</g>
<!-- Node21&#45;&gt;Node17 -->
<g id="edge28" class="edge">
<title>Node21&#45;&gt;Node17</title>
<path fill="none" stroke="#191970" d="M766.1807,-224.3733C728.8062,-214.8598 671.5276,-200.2797 631.1929,-190.0127"/>
<polygon fill="#191970" stroke="#191970" points="631.8802,-186.5761 621.3258,-187.5011 630.1534,-193.3598 631.8802,-186.5761"/>
</g>
<!-- Node22 -->
<g id="node23" class="node">
<title>Node22</title>
<g id="a_node23"><a xlink:href="RotationRaw_8h.html" target="_top" xlink:title="iDynTree/Core/RotationRaw.h">
<polygon fill="none" stroke="#000000" points="760,-168.5 760,-187.5 918,-187.5 918,-168.5 760,-168.5"/>
<text text-anchor="middle" x="839" y="-175.5" font-family="FreeSans.ttf" font-size="10.00" fill="#000000">iDynTree/Core/RotationRaw.h</text>
</a>
</g>
</g>
<!-- Node21&#45;&gt;Node22 -->
<g id="edge29" class="edge">
<title>Node21&#45;&gt;Node22</title>
<path fill="none" stroke="#191970" d="M810.0965,-224.2455C814.9145,-216.5367 821.7751,-205.5598 827.6032,-196.2348"/>
<polygon fill="#191970" stroke="#191970" points="830.6413,-197.9777 832.9733,-187.6427 824.7053,-194.2677 830.6413,-197.9777"/>
</g>
<!-- Node22&#45;&gt;Node14 -->
<g id="edge37" class="edge">
<title>Node22&#45;&gt;Node14</title>
<path fill="none" stroke="#191970" d="M848.1228,-168.4509C866.2849,-149.4401 907.172,-106.6423 929.9347,-82.816"/>
<polygon fill="#191970" stroke="#191970" points="932.5232,-85.1733 936.9003,-75.5249 927.4617,-80.3378 932.5232,-85.1733"/>
</g>
<!-- Node23 -->
<g id="node24" class="node">
<title>Node23</title>
<g id="a_node24"><a xlink:href="MatrixFixSize_8h.html" target="_top" xlink:title="iDynTree/Core/MatrixFixSize.h">
<polygon fill="none" stroke="#000000" points="639.5,-112.5 639.5,-131.5 800.5,-131.5 800.5,-112.5 639.5,-112.5"/>
<text text-anchor="middle" x="720" y="-119.5" font-family="FreeSans.ttf" font-size="10.00" fill="#000000">iDynTree/Core/MatrixFixSize.h</text>
</a>
</g>
</g>
<!-- Node22&#45;&gt;Node23 -->
<g id="edge30" class="edge">
<title>Node22&#45;&gt;Node23</title>
<path fill="none" stroke="#191970" d="M818.5432,-168.3733C799.5262,-159.4241 770.9825,-145.9917 749.5024,-135.8835"/>
<polygon fill="#191970" stroke="#191970" points="750.7284,-132.5923 740.1899,-131.5011 747.7478,-138.926 750.7284,-132.5923"/>
</g>
<!-- Node23&#45;&gt;Node3 -->
<g id="edge31" class="edge">
<title>Node23&#45;&gt;Node3</title>
<path fill="none" stroke="#191970" d="M639.4729,-112.9238C636.6136,-112.6105 633.7824,-112.3018 631,-112 500.2602,-97.8212 347.5787,-82.0314 260.7906,-73.1283"/>
<polygon fill="#191970" stroke="#191970" points="261.102,-69.642 250.7971,-72.1037 260.3879,-76.6055 261.102,-69.642"/>
</g>
<!-- Node23&#45;&gt;Node6 -->
<g id="edge32" class="edge">
<title>Node23&#45;&gt;Node6</title>
<path fill="none" stroke="#191970" d="M719.9147,-112.4509C719.7516,-94.184 719.3925,-53.9553 719.1759,-29.6976"/>
<polygon fill="#191970" stroke="#191970" points="722.6743,-29.4932 719.085,-19.5249 715.6746,-29.5558 722.6743,-29.4932"/>
</g>
<!-- Node23&#45;&gt;Node14 -->
<g id="edge34" class="edge">
<title>Node23&#45;&gt;Node14</title>
<path fill="none" stroke="#191970" d="M758.594,-112.4369C802.4095,-101.5799 873.0925,-84.0656 913.9785,-73.9345"/>
<polygon fill="#191970" stroke="#191970" points="914.8321,-77.3289 923.6968,-71.5265 913.1485,-70.5344 914.8321,-77.3289"/>
</g>
<!-- Node23&#45;&gt;Node15 -->
<g id="edge36" class="edge">
<title>Node23&#45;&gt;Node15</title>
<path fill="none" stroke="#191970" d="M689.2288,-112.3733C658.6103,-102.7943 611.5733,-88.0788 578.7222,-77.8014"/>
<polygon fill="#191970" stroke="#191970" points="579.6053,-74.4104 569.0164,-74.7649 577.5152,-81.0911 579.6053,-74.4104"/>
</g>
<!-- Node23&#45;&gt;Node16 -->
<g id="edge33" class="edge">
<title>Node23&#45;&gt;Node16</title>
<path fill="none" stroke="#191970" d="M709.8972,-112.2455C701.4972,-104.1352 689.3506,-92.4075 679.3916,-82.7919"/>
<polygon fill="#191970" stroke="#191970" points="681.6122,-80.0707 671.9871,-75.6427 676.75,-85.1066 681.6122,-80.0707"/>
</g>
<!-- Node23&#45;&gt;Node24 -->
<g id="edge35" class="edge">
<title>Node23&#45;&gt;Node24</title>
<path fill="none" stroke="#191970" d="M734.6317,-112.2455C747.3994,-103.7337 766.1438,-91.2375 780.9299,-81.3801"/>
<polygon fill="#191970" stroke="#191970" points="783.1569,-84.1019 789.536,-75.6427 779.274,-78.2775 783.1569,-84.1019"/>
</g>
<!-- Node25&#45;&gt;Node2 -->
<g id="edge46" class="edge">
<title>Node25&#45;&gt;Node2</title>
<path fill="none" stroke="#191970" d="M398.0015,-392.2923C398.7623,-351.6067 405.9249,-238.5722 460,-168 470.9964,-153.6488 487.8361,-143.0594 503.3184,-135.6831"/>
<polygon fill="#191970" stroke="#191970" points="505.0049,-138.7636 512.7185,-131.5006 502.1592,-132.3681 505.0049,-138.7636"/>
</g>
<!-- Node25&#45;&gt;Node17 -->
<g id="edge47" class="edge">
<title>Node25&#45;&gt;Node17</title>
<path fill="none" stroke="#191970" d="M410.204,-392.4419C443.2393,-351.6806 534.2961,-239.3282 569.6777,-195.6719"/>
<polygon fill="#191970" stroke="#191970" points="572.4007,-197.8708 575.978,-187.8981 566.9625,-193.4633 572.4007,-197.8708"/>
</g>
<!-- Node25&#45;&gt;Node18 -->
<g id="edge48" class="edge">
<title>Node25&#45;&gt;Node18</title>
<path fill="none" stroke="#191970" d="M434.4495,-392.4554C458.8744,-382.374 490.7581,-369.2139 514.3521,-359.4755"/>
<polygon fill="#191970" stroke="#191970" points="516.0021,-362.5809 523.9103,-355.5303 513.3313,-356.1104 516.0021,-362.5809"/>
</g>
<!-- Node26&#45;&gt;Node14 -->
<g id="edge53" class="edge">
<title>Node26&#45;&gt;Node14</title>
<path fill="none" stroke="#191970" d="M890.113,-341.3679C1009.7068,-331.7634 1234,-304.3702 1234,-234 1234,-234 1234,-234 1234,-178 1234,-123.5598 1052.9876,-85.0451 977.9723,-71.4213"/>
<polygon fill="#191970" stroke="#191970" points="978.5797,-67.9745 968.1207,-69.6651 977.3512,-74.8658 978.5797,-67.9745"/>
</g>
<!-- Node26&#45;&gt;Node19 -->
<g id="edge50" class="edge">
<title>Node26&#45;&gt;Node19</title>
<path fill="none" stroke="#191970" d="M825.361,-336.2455C832.175,-328.2958 841.9681,-316.8706 850.1152,-307.3656"/>
<polygon fill="#191970" stroke="#191970" points="852.8843,-309.513 856.7349,-299.6427 847.5695,-304.9575 852.8843,-309.513"/>
</g>
<!-- Node26&#45;&gt;Node21 -->
<g id="edge51" class="edge">
<title>Node26&#45;&gt;Node21</title>
<path fill="none" stroke="#191970" d="M815.8916,-336.4509C813.7714,-318.184 809.102,-277.9553 806.2863,-253.6976"/>
<polygon fill="#191970" stroke="#191970" points="809.7353,-253.0546 805.1056,-243.5249 802.782,-253.8618 809.7353,-253.0546"/>
</g>
<!-- Node26&#45;&gt;Node23 -->
<g id="edge52" class="edge">
<title>Node26&#45;&gt;Node23</title>
<path fill="none" stroke="#191970" d="M876.4163,-336.456C990.6044,-315.7632 1222.344,-260.9947 1139,-168 1117.4956,-144.0056 927.2732,-131.2543 810.6518,-125.6328"/>
<polygon fill="#191970" stroke="#191970" points="810.8027,-122.1361 800.6484,-125.1593 810.4717,-129.1283 810.8027,-122.1361"/>
</g>
<!-- Node27&#45;&gt;Node28 -->
<g id="edge56" class="edge">
<title>Node27&#45;&gt;Node28</title>
<path fill="none" stroke="#191970" d="M201.4074,-515.3845C183.7177,-495.5889 143.012,-450.0372 120.5644,-424.9173"/>
<polygon fill="#191970" stroke="#191970" points="122.9845,-422.3728 113.7113,-417.2484 117.7649,-427.0371 122.9845,-422.3728"/>
</g>
<!-- Node27&#45;&gt;Node29 -->
<g id="edge57" class="edge">
<title>Node27&#45;&gt;Node29</title>
<path fill="none" stroke="#191970" d="M223.2382,-515.2455C234.681,-506.814 251.4296,-494.4729 264.7475,-484.6598"/>
<polygon fill="#191970" stroke="#191970" points="266.9391,-487.3924 272.9135,-478.6427 262.7867,-481.757 266.9391,-487.3924"/>
</g>
<!-- Node29&#45;&gt;Node1 -->
<g id="edge66" class="edge">
<title>Node29&#45;&gt;Node1</title>
<path fill="none" stroke="#191970" d="M329.7531,-459.4581C372.2643,-450.187 437.7701,-435.9012 489.343,-424.6539"/>
<polygon fill="#191970" stroke="#191970" points="490.1064,-428.0698 499.131,-422.5193 488.6148,-421.2305 490.1064,-428.0698"/>
</g>
<!-- Node29&#45;&gt;Node2 -->
<g id="edge62" class="edge">
<title>Node29&#45;&gt;Node2</title>
<path fill="none" stroke="#191970" d="M280.8752,-459.4277C270.5028,-439.1328 248,-390.0296 248,-346 248,-346 248,-346 248,-290 248,-192.3231 372.0606,-150.6299 458.7285,-133.4206"/>
<polygon fill="#191970" stroke="#191970" points="459.4083,-136.8541 468.573,-131.5382 458.0936,-129.9787 459.4083,-136.8541"/>
</g>
<!-- Node29&#45;&gt;Node3 -->
<g id="edge69" class="edge">
<title>Node29&#45;&gt;Node3</title>
<path fill="none" stroke="#191970" d="M266.6615,-459.4425C234.1367,-441.8461 172,-401.0282 172,-346 172,-346 172,-346 172,-178 172,-145.2688 179.9852,-107.9052 185.6022,-85.6716"/>
<polygon fill="#191970" stroke="#191970" points="189.0415,-86.3545 188.1965,-75.7934 182.2711,-84.5763 189.0415,-86.3545"/>
</g>
<!-- Node29&#45;&gt;Node23 -->
<g id="edge65" class="edge">
<title>Node29&#45;&gt;Node23</title>
<path fill="none" stroke="#191970" d="M288.8398,-459.2632C301.9438,-416.252 360.9816,-242.1475 478,-168 492.2597,-158.9645 580.9891,-143.5758 646.9014,-133.1081"/>
<polygon fill="#191970" stroke="#191970" points="647.5266,-136.5528 656.8586,-131.5365 646.4352,-129.6384 647.5266,-136.5528"/>
</g>
<!-- Node29&#45;&gt;Node25 -->
<g id="edge67" class="edge">
<title>Node29&#45;&gt;Node25</title>
<path fill="none" stroke="#191970" d="M303.5,-459.3906C319.0087,-450.8747 342.153,-438.166 361.6549,-427.4573"/>
<polygon fill="#191970" stroke="#191970" points="363.5209,-430.4257 370.6017,-422.5446 360.1516,-424.2899 363.5209,-430.4257"/>
</g>
<!-- Node29&#45;&gt;Node26 -->
<g id="edge68" class="edge">
<title>Node29&#45;&gt;Node26</title>
<path fill="none" stroke="#191970" d="M366.7404,-461.9664C458.5931,-453.4314 602.6313,-438.278 655,-423 706.2031,-408.0621 761.409,-378.644 792.3403,-360.8091"/>
<polygon fill="#191970" stroke="#191970" points="794.26,-363.7412 801.1291,-355.6749 790.729,-357.697 794.26,-363.7412"/>
</g>
<!-- Node29&#45;&gt;Node28 -->
<g id="edge58" class="edge">
<title>Node29&#45;&gt;Node28</title>
<path fill="none" stroke="#191970" d="M257.7188,-459.3906C226.77,-448.8749 177.0058,-431.966 142.743,-420.3243"/>
<polygon fill="#191970" stroke="#191970" points="143.6771,-416.9452 133.0827,-417.0419 141.425,-423.573 143.6771,-416.9452"/>
</g>
<!-- Node30 -->
<g id="node31" class="node">
<title>Node30</title>
<g id="a_node31"><a xlink:href="VectorDynSize_8h.html" target="_top" xlink:title="iDynTree/Core/VectorDynSize.h">
<polygon fill="none" stroke="#000000" points="237.5,-112.5 237.5,-131.5 404.5,-131.5 404.5,-112.5 237.5,-112.5"/>
<text text-anchor="middle" x="321" y="-119.5" font-family="FreeSans.ttf" font-size="10.00" fill="#000000">iDynTree/Core/VectorDynSize.h</text>
</a>
</g>
</g>
<!-- Node29&#45;&gt;Node30 -->
<g id="edge59" class="edge">
<title>Node29&#45;&gt;Node30</title>
<path fill="none" stroke="#191970" d="M271.2188,-459.3432C259.5571,-451.0109 243.6915,-437.9764 234,-423 214.5254,-392.9055 210,-381.846 210,-346 210,-346 210,-346 210,-234 210,-188.029 257.7604,-154.1769 290.624,-136.325"/>
<polygon fill="#191970" stroke="#191970" points="292.6111,-139.2362 299.8605,-131.5099 289.3751,-133.0291 292.6111,-139.2362"/>
</g>
<!-- Node31 -->
<g id="node32" class="node">
<title>Node31</title>
<g id="a_node32"><a xlink:href="MatrixDynSize_8h.html" target="_top" xlink:title="iDynTree/Core/MatrixDynSize.h">
<polygon fill="none" stroke="#000000" points="1261.5,-280.5 1261.5,-299.5 1428.5,-299.5 1428.5,-280.5 1261.5,-280.5"/>
<text text-anchor="middle" x="1345" y="-287.5" font-family="FreeSans.ttf" font-size="10.00" fill="#000000">iDynTree/Core/MatrixDynSize.h</text>
</a>
</g>
</g>
<!-- Node29&#45;&gt;Node31 -->
<g id="edge63" class="edge">
<title>Node29&#45;&gt;Node31</title>
<path fill="none" stroke="#191970" d="M366.6242,-462.5239C451.5921,-455.1543 589.1758,-441.6732 707,-423 928.3879,-387.9137 1189.2041,-327.4822 1295.8425,-301.9451"/>
<polygon fill="#191970" stroke="#191970" points="1296.7679,-305.3225 1305.6745,-299.5847 1295.1337,-298.5158 1296.7679,-305.3225"/>
</g>
<!-- Node30&#45;&gt;Node5 -->
<g id="edge60" class="edge">
<title>Node30&#45;&gt;Node5</title>
<path fill="none" stroke="#191970" d="M340.4254,-112.3733C358.4021,-103.4644 385.3441,-90.1127 405.709,-80.0203"/>
<polygon fill="#191970" stroke="#191970" points="407.4222,-83.0776 414.8281,-75.5011 404.3139,-76.8055 407.4222,-83.0776"/>
</g>
<!-- Node30&#45;&gt;Node14 -->
<g id="edge61" class="edge">
<title>Node30&#45;&gt;Node14</title>
<path fill="none" stroke="#191970" d="M404.6475,-114.8593C507.754,-106.0043 688.3199,-90.3239 843,-76 866.7651,-73.7993 893.6015,-71.1898 913.9222,-69.1883"/>
<polygon fill="#191970" stroke="#191970" points="914.2964,-72.6685 923.904,-68.2025 913.6084,-65.7024 914.2964,-72.6685"/>
</g>
<!-- Node31&#45;&gt;Node14 -->
<g id="edge64" class="edge">
<title>Node31&#45;&gt;Node14</title>
<path fill="none" stroke="#191970" d="M1342.9043,-280.2636C1335.7699,-249.6823 1309.378,-155.0354 1248,-112 1204.9256,-81.7983 1047.2476,-70.781 978.4578,-67.3518"/>
<polygon fill="#191970" stroke="#191970" points="978.3667,-63.8436 968.2118,-66.8648 978.0343,-70.8357 978.3667,-63.8436"/>
</g>
</g>
</svg>
