<?xml version="1.0" encoding="UTF-8" standalone="no"?>
<!DOCTYPE svg PUBLIC "-//W3C//DTD SVG 1.1//EN"
 "http://www.w3.org/Graphics/SVG/1.1/DTD/svg11.dtd">
<!-- Generated by graphviz version 2.40.1 (20161225.0304)
 -->
<!-- Title: TestUtils.cpp Pages: 1 -->
<svg width="1629pt" height="621pt"
 viewBox="0.00 0.00 1629.15 621.00" xmlns="http://www.w3.org/2000/svg" xmlns:xlink="http://www.w3.org/1999/xlink">
<g id="graph0" class="graph" transform="scale(1 1) rotate(0) translate(4 617)">
<title>TestUtils.cpp</title>
<!-- Node0 -->
<g id="node1" class="node">
<title>Node0</title>
<polygon fill="#bfbfbf" stroke="#000000" points="1036.5,-593.5 1036.5,-612.5 1115.5,-612.5 1115.5,-593.5 1036.5,-593.5"/>
<text text-anchor="middle" x="1076" y="-600.5" font-family="FreeSans.ttf" font-size="10.00" fill="#000000">TestUtils.cpp</text>
</g>
<!-- Node1 -->
<g id="node2" class="node">
<title>Node1</title>
<g id="a_node2"><a xlink:href="SpatialForceVector_8h.html" target="_top" xlink:title="iDynTree/Core/SpatialForce\lVector.h">
<polygon fill="none" stroke="#000000" points="85,-403.5 85,-433.5 233,-433.5 233,-403.5 85,-403.5"/>
<text text-anchor="start" x="93" y="-421.5" font-family="FreeSans.ttf" font-size="10.00" fill="#000000">iDynTree/Core/SpatialForce</text>
<text text-anchor="middle" x="159" y="-410.5" font-family="FreeSans.ttf" font-size="10.00" fill="#000000">Vector.h</text>
</a>
</g>
</g>
<!-- Node0&#45;&gt;Node1 -->
<g id="edge1" class="edge">
<title>Node0&#45;&gt;Node1</title>
<path fill="none" stroke="#191970" d="M1036.4419,-602.2054C856.5316,-598.1802 121.4997,-577.1393 57,-501 35.7155,-475.8745 71.0065,-452.8148 105.7581,-437.5015"/>
<polygon fill="#191970" stroke="#191970" points="107.1728,-440.7035 115.0208,-433.5859 104.4471,-434.2559 107.1728,-440.7035"/>
</g>
<!-- Node24 -->
<g id="node25" class="node">
<title>Node24</title>
<polygon fill="none" stroke="#bfbfbf" points="1272,-56.5 1272,-75.5 1332,-75.5 1332,-56.5 1272,-56.5"/>
<text text-anchor="middle" x="1302" y="-63.5" font-family="FreeSans.ttf" font-size="10.00" fill="#000000">iostream</text>
</g>
<!-- Node0&#45;&gt;Node24 -->
<g id="edge86" class="edge">
<title>Node0&#45;&gt;Node24</title>
<path fill="none" stroke="#191970" d="M1115.8398,-600.4201C1160.3645,-596.2126 1233.6023,-585.2609 1290,-557 1438.6954,-482.4889 1495.2543,-458.5545 1572,-311 1612.997,-232.1776 1648.6754,-179.5816 1591,-112 1575.0339,-93.2916 1417.8668,-76.5663 1342.2468,-69.5283"/>
<polygon fill="#191970" stroke="#191970" points="1342.419,-66.0295 1332.1409,-68.6003 1341.7789,-73.0001 1342.419,-66.0295"/>
</g>
<!-- Node25 -->
<g id="node26" class="node">
<title>Node25</title>
<g id="a_node26"><a xlink:href="SpatialMotionVector_8h.html" target="_top" xlink:title="iDynTree/Core/SpatialMotion\lVector.h">
<polygon fill="none" stroke="#000000" points="367.5,-403.5 367.5,-433.5 522.5,-433.5 522.5,-403.5 367.5,-403.5"/>
<text text-anchor="start" x="375.5" y="-421.5" font-family="FreeSans.ttf" font-size="10.00" fill="#000000">iDynTree/Core/SpatialMotion</text>
<text text-anchor="middle" x="445" y="-410.5" font-family="FreeSans.ttf" font-size="10.00" fill="#000000">Vector.h</text>
</a>
</g>
</g>
<!-- Node0&#45;&gt;Node25 -->
<g id="edge45" class="edge">
<title>Node0&#45;&gt;Node25</title>
<path fill="none" stroke="#191970" d="M1036.3038,-595.3288C974.026,-582.2149 850.7922,-551.8602 757,-501 737.8398,-490.6101 738.7657,-479.1858 719,-470 686.5389,-454.9141 600.1236,-440.0692 532.9353,-430.2225"/>
<polygon fill="#191970" stroke="#191970" points="533.1486,-426.717 522.75,-428.7463 532.1445,-433.6446 533.1486,-426.717"/>
</g>
<!-- Node26 -->
<g id="node27" class="node">
<title>Node26</title>
<g id="a_node27"><a xlink:href="Axis_8h.html" target="_top" xlink:title="iDynTree/Core/Axis.h">
<polygon fill="none" stroke="#000000" points="1017,-347.5 1017,-366.5 1135,-366.5 1135,-347.5 1017,-347.5"/>
<text text-anchor="middle" x="1076" y="-354.5" font-family="FreeSans.ttf" font-size="10.00" fill="#000000">iDynTree/Core/Axis.h</text>
</a>
</g>
</g>
<!-- Node0&#45;&gt;Node26 -->
<g id="edge49" class="edge">
<title>Node0&#45;&gt;Node26</title>
<path fill="none" stroke="#191970" d="M1076,-593.3565C1076,-556.8479 1076,-426.6569 1076,-376.7066"/>
<polygon fill="#191970" stroke="#191970" points="1079.5001,-376.5768 1076,-366.5768 1072.5001,-376.5769 1079.5001,-376.5768"/>
</g>
<!-- Node28 -->
<g id="node29" class="node">
<title>Node28</title>
<g id="a_node29"><a xlink:href="SpatialInertia_8h.html" target="_top" xlink:title="iDynTree/Core/SpatialInertia.h">
<polygon fill="none" stroke="#000000" points="402,-537.5 402,-556.5 564,-556.5 564,-537.5 402,-537.5"/>
<text text-anchor="middle" x="483" y="-544.5" font-family="FreeSans.ttf" font-size="10.00" fill="#000000">iDynTree/Core/SpatialInertia.h</text>
</a>
</g>
</g>
<!-- Node0&#45;&gt;Node28 -->
<g id="edge57" class="edge">
<title>Node0&#45;&gt;Node28</title>
<path fill="none" stroke="#191970" d="M1036.1708,-599.2387C942.3377,-590.3776 705.4338,-568.0056 574.134,-555.6062"/>
<polygon fill="#191970" stroke="#191970" points="574.3763,-552.1136 564.0915,-554.6579 573.7181,-559.0826 574.3763,-552.1136"/>
</g>
<!-- Node35 -->
<g id="node36" class="node">
<title>Node35</title>
<g id="a_node36"><a xlink:href="TestUtils_8h.html" target="_top" xlink:title="iDynTree/Core/TestUtils.h">
<polygon fill="none" stroke="#000000" points="1265.5,-168.5 1265.5,-187.5 1404.5,-187.5 1404.5,-168.5 1265.5,-168.5"/>
<text text-anchor="middle" x="1335" y="-175.5" font-family="FreeSans.ttf" font-size="10.00" fill="#000000">iDynTree/Core/TestUtils.h</text>
</a>
</g>
</g>
<!-- Node0&#45;&gt;Node35 -->
<g id="edge70" class="edge">
<title>Node0&#45;&gt;Node35</title>
<path fill="none" stroke="#191970" d="M1115.6273,-600.3421C1181.1701,-593.5613 1305,-569.6195 1305,-485.5 1305,-485.5 1305,-485.5 1305,-295.5 1305,-259.8765 1318.1056,-220.0133 1326.9926,-197.0771"/>
<polygon fill="#191970" stroke="#191970" points="1330.345,-198.1214 1330.8286,-187.5376 1323.8504,-195.5097 1330.345,-198.1214"/>
</g>
<!-- Node39 -->
<g id="node40" class="node">
<title>Node39</title>
<polygon fill="none" stroke="#bfbfbf" points="1467.5,-112.5 1467.5,-131.5 1516.5,-131.5 1516.5,-112.5 1467.5,-112.5"/>
<text text-anchor="middle" x="1492" y="-119.5" font-family="FreeSans.ttf" font-size="10.00" fill="#000000">cstdlib</text>
</g>
<!-- Node0&#45;&gt;Node39 -->
<g id="edge87" class="edge">
<title>Node0&#45;&gt;Node39</title>
<path fill="none" stroke="#191970" d="M1115.7928,-600.9748C1224.773,-594.3506 1520,-568.7254 1520,-485.5 1520,-485.5 1520,-485.5 1520,-234 1520,-200.5848 1508.1246,-163.1911 1499.8415,-141.1729"/>
<polygon fill="#191970" stroke="#191970" points="1503.0326,-139.7229 1496.1315,-131.6839 1496.5132,-142.2719 1503.0326,-139.7229"/>
</g>
<!-- Node40 -->
<g id="node41" class="node">
<title>Node40</title>
<polygon fill="none" stroke="#bfbfbf" points="1534.5,-112.5 1534.5,-131.5 1581.5,-131.5 1581.5,-112.5 1534.5,-112.5"/>
<text text-anchor="middle" x="1558" y="-119.5" font-family="FreeSans.ttf" font-size="10.00" fill="#000000">cmath</text>
</g>
<!-- Node0&#45;&gt;Node40 -->
<g id="edge88" class="edge">
<title>Node0&#45;&gt;Node40</title>
<path fill="none" stroke="#191970" d="M1115.8542,-601.7915C1231.3352,-597.2183 1558,-576.2607 1558,-485.5 1558,-485.5 1558,-485.5 1558,-234 1558,-201.7116 1558,-164.1872 1558,-141.8048"/>
<polygon fill="#191970" stroke="#191970" points="1561.5001,-141.5883 1558,-131.5884 1554.5001,-141.5884 1561.5001,-141.5883"/>
</g>
<!-- Node41 -->
<g id="node42" class="node">
<title>Node41</title>
<g id="a_node42"><a xlink:href="Transform_8h.html" target="_top" xlink:title="iDynTree/Core/Transform.h">
<polygon fill="none" stroke="#000000" points="732,-347.5 732,-366.5 878,-366.5 878,-347.5 732,-347.5"/>
<text text-anchor="middle" x="805" y="-354.5" font-family="FreeSans.ttf" font-size="10.00" fill="#000000">iDynTree/Core/Transform.h</text>
</a>
</g>
</g>
<!-- Node0&#45;&gt;Node41 -->
<g id="edge81" class="edge">
<title>Node0&#45;&gt;Node41</title>
<path fill="none" stroke="#191970" d="M1065.3765,-593.3565C1024.2262,-556.0024 875.0378,-420.5768 823.031,-373.3676"/>
<polygon fill="#191970" stroke="#191970" points="825.3069,-370.7066 815.5501,-366.5768 820.602,-375.8897 825.3069,-370.7066"/>
</g>
<!-- Node2 -->
<g id="node3" class="node">
<title>Node2</title>
<g id="a_node3"><a xlink:href="VectorFixSize_8h.html" target="_top" xlink:title="iDynTree/Core/VectorFixSize.h">
<polygon fill="none" stroke="#000000" points="183.5,-112.5 183.5,-131.5 344.5,-131.5 344.5,-112.5 183.5,-112.5"/>
<text text-anchor="middle" x="264" y="-119.5" font-family="FreeSans.ttf" font-size="10.00" fill="#000000">iDynTree/Core/VectorFixSize.h</text>
</a>
</g>
</g>
<!-- Node1&#45;&gt;Node2 -->
<g id="edge2" class="edge">
<title>Node1&#45;&gt;Node2</title>
<path fill="none" stroke="#191970" d="M149.2446,-403.2654C135.7417,-380.6754 113,-336.5376 113,-295.5 113,-295.5 113,-295.5 113,-234 113,-202.7875 114.9155,-190.0566 137,-168 153.1873,-151.8332 175.481,-141.3078 196.8761,-134.472"/>
<polygon fill="#191970" stroke="#191970" points="198.0252,-137.782 206.6179,-131.5839 196.0355,-131.0707 198.0252,-137.782"/>
</g>
<!-- Node17 -->
<g id="node18" class="node">
<title>Node17</title>
<g id="a_node18"><a xlink:href="GeomVector3_8h.html" target="_top" xlink:title="iDynTree/Core/GeomVector3.h">
<polygon fill="none" stroke="#000000" points="179.5,-168.5 179.5,-187.5 342.5,-187.5 342.5,-168.5 179.5,-168.5"/>
<text text-anchor="middle" x="261" y="-175.5" font-family="FreeSans.ttf" font-size="10.00" fill="#000000">iDynTree/Core/GeomVector3.h</text>
</a>
</g>
</g>
<!-- Node1&#45;&gt;Node17 -->
<g id="edge19" class="edge">
<title>Node1&#45;&gt;Node17</title>
<path fill="none" stroke="#191970" d="M161.6635,-403.2661C168.0523,-369.3258 186.3497,-285.6332 221,-224 226.9741,-213.3737 235.6704,-202.9971 243.4296,-194.7968"/>
<polygon fill="#191970" stroke="#191970" points="245.9334,-197.2425 250.4623,-187.6644 240.9489,-192.3277 245.9334,-197.2425"/>
</g>
<!-- Node18 -->
<g id="node19" class="node">
<title>Node18</title>
<g id="a_node19"><a xlink:href="SpatialVector_8h.html" target="_top" xlink:title="iDynTree/Core/SpatialVector.h">
<polygon fill="none" stroke="#000000" points="309.5,-347.5 309.5,-366.5 470.5,-366.5 470.5,-347.5 309.5,-347.5"/>
<text text-anchor="middle" x="390" y="-354.5" font-family="FreeSans.ttf" font-size="10.00" fill="#000000">iDynTree/Core/SpatialVector.h</text>
</a>
</g>
</g>
<!-- Node1&#45;&gt;Node18 -->
<g id="edge21" class="edge">
<title>Node1&#45;&gt;Node18</title>
<path fill="none" stroke="#191970" d="M215.509,-403.4554C255.0662,-392.9239 307.2427,-379.0328 344.2046,-369.1923"/>
<polygon fill="#191970" stroke="#191970" points="345.4403,-372.4853 354.2032,-366.5303 343.6393,-365.7209 345.4403,-372.4853"/>
</g>
<!-- Node3 -->
<g id="node4" class="node">
<title>Node3</title>
<g id="a_node4"><a xlink:href="Utils_8h.html" target="_top" xlink:title="iDynTree/Core/Utils.h">
<polygon fill="none" stroke="#000000" points="517.5,-56.5 517.5,-75.5 636.5,-75.5 636.5,-56.5 517.5,-56.5"/>
<text text-anchor="middle" x="577" y="-63.5" font-family="FreeSans.ttf" font-size="10.00" fill="#000000">iDynTree/Core/Utils.h</text>
</a>
</g>
</g>
<!-- Node2&#45;&gt;Node3 -->
<g id="edge3" class="edge">
<title>Node2&#45;&gt;Node3</title>
<path fill="none" stroke="#191970" d="M317.451,-112.4369C371.8063,-102.712 456.0165,-87.6456 513.6819,-77.3285"/>
<polygon fill="#191970" stroke="#191970" points="514.5422,-80.7302 523.7695,-75.5237 513.3094,-73.8396 514.5422,-80.7302"/>
</g>
<!-- Node5 -->
<g id="node6" class="node">
<title>Node5</title>
<g id="a_node6"><a xlink:href="Span_8h.html" target="_top" xlink:title="iDynTree/Core/Span.h">
<polygon fill="none" stroke="#000000" points="233.5,-56.5 233.5,-75.5 354.5,-75.5 354.5,-56.5 233.5,-56.5"/>
<text text-anchor="middle" x="294" y="-63.5" font-family="FreeSans.ttf" font-size="10.00" fill="#000000">iDynTree/Core/Span.h</text>
</a>
</g>
</g>
<!-- Node2&#45;&gt;Node5 -->
<g id="edge5" class="edge">
<title>Node2&#45;&gt;Node5</title>
<path fill="none" stroke="#191970" d="M269.2256,-112.2455C273.3123,-104.617 279.1135,-93.7881 284.075,-84.5267"/>
<polygon fill="#191970" stroke="#191970" points="287.1972,-86.1103 288.8343,-75.6427 281.0268,-82.8047 287.1972,-86.1103"/>
</g>
<!-- Node6 -->
<g id="node7" class="node">
<title>Node6</title>
<polygon fill="none" stroke="#bfbfbf" points="463,-.5 463,-19.5 515,-19.5 515,-.5 463,-.5"/>
<text text-anchor="middle" x="489" y="-7.5" font-family="FreeSans.ttf" font-size="10.00" fill="#000000">cassert</text>
</g>
<!-- Node2&#45;&gt;Node6 -->
<g id="edge17" class="edge">
<title>Node2&#45;&gt;Node6</title>
<path fill="none" stroke="#191970" d="M285.3821,-112.4196C305.5276,-103.3098 336.4912,-89.0922 363,-76 381.7612,-66.7342 430.8997,-40.8131 461.975,-24.3484"/>
<polygon fill="#191970" stroke="#191970" points="463.79,-27.3477 470.9855,-19.5712 460.511,-21.1631 463.79,-27.3477"/>
</g>
<!-- Node14 -->
<g id="node15" class="node">
<title>Node14</title>
<polygon fill="none" stroke="#bfbfbf" points="827,-56.5 827,-75.5 871,-75.5 871,-56.5 827,-56.5"/>
<text text-anchor="middle" x="849" y="-63.5" font-family="FreeSans.ttf" font-size="10.00" fill="#000000">string</text>
</g>
<!-- Node2&#45;&gt;Node14 -->
<g id="edge15" class="edge">
<title>Node2&#45;&gt;Node14</title>
<path fill="none" stroke="#191970" d="M344.7275,-114.2722C475.4464,-101.759 727.7888,-77.6031 816.8893,-69.0738"/>
<polygon fill="#191970" stroke="#191970" points="817.3059,-72.5501 826.9269,-68.113 816.6388,-65.5819 817.3059,-72.5501"/>
</g>
<!-- Node15 -->
<g id="node16" class="node">
<title>Node15</title>
<polygon fill="none" stroke="#bfbfbf" points="159,-56.5 159,-75.5 215,-75.5 215,-56.5 159,-56.5"/>
<text text-anchor="middle" x="187" y="-63.5" font-family="FreeSans.ttf" font-size="10.00" fill="#000000">sstream</text>
</g>
<!-- Node2&#45;&gt;Node15 -->
<g id="edge16" class="edge">
<title>Node2&#45;&gt;Node15</title>
<path fill="none" stroke="#191970" d="M250.5876,-112.2455C238.9943,-103.814 222.0252,-91.4729 208.5322,-81.6598"/>
<polygon fill="#191970" stroke="#191970" points="210.4047,-78.6938 200.2587,-75.6427 206.2874,-84.355 210.4047,-78.6938"/>
</g>
<!-- Node16 -->
<g id="node17" class="node">
<title>Node16</title>
<polygon fill="none" stroke="#bfbfbf" points="411,-56.5 411,-75.5 461,-75.5 461,-56.5 411,-56.5"/>
<text text-anchor="middle" x="436" y="-63.5" font-family="FreeSans.ttf" font-size="10.00" fill="#000000">cstring</text>
</g>
<!-- Node2&#45;&gt;Node16 -->
<g id="edge18" class="edge">
<title>Node2&#45;&gt;Node16</title>
<path fill="none" stroke="#191970" d="M293.5679,-112.3733C323.3822,-102.6663 369.3974,-87.6846 401.0112,-77.3917"/>
<polygon fill="#191970" stroke="#191970" points="402.3054,-80.6512 410.7305,-74.2273 400.1382,-73.9951 402.3054,-80.6512"/>
</g>
<!-- Node4 -->
<g id="node5" class="node">
<title>Node4</title>
<polygon fill="none" stroke="#bfbfbf" points="542.5,-.5 542.5,-19.5 595.5,-19.5 595.5,-.5 542.5,-.5"/>
<text text-anchor="middle" x="569" y="-7.5" font-family="FreeSans.ttf" font-size="10.00" fill="#000000">cstddef</text>
</g>
<!-- Node3&#45;&gt;Node4 -->
<g id="edge4" class="edge">
<title>Node3&#45;&gt;Node4</title>
<path fill="none" stroke="#191970" d="M575.6065,-56.2455C574.5626,-48.9382 573.0992,-38.6944 571.8149,-29.7046"/>
<polygon fill="#191970" stroke="#191970" points="575.2566,-29.0472 570.3775,-19.6427 568.327,-30.0372 575.2566,-29.0472"/>
</g>
<!-- Node5&#45;&gt;Node4 -->
<g id="edge9" class="edge">
<title>Node5&#45;&gt;Node4</title>
<path fill="none" stroke="#191970" d="M343.4149,-56.4324C390.0332,-47.3317 461.8444,-33.1202 524,-20 526.7896,-19.4111 529.6743,-18.7925 532.5735,-18.1638"/>
<polygon fill="#191970" stroke="#191970" points="533.3514,-21.5765 542.3699,-16.0161 531.8523,-14.7389 533.3514,-21.5765"/>
</g>
<!-- Node5&#45;&gt;Node6 -->
<g id="edge6" class="edge">
<title>Node5&#45;&gt;Node6</title>
<path fill="none" stroke="#191970" d="M327.5217,-56.3733C362.4084,-46.3545 416.861,-30.7168 452.7339,-20.4149"/>
<polygon fill="#191970" stroke="#191970" points="454.132,-23.6549 462.7774,-17.5306 452.1998,-16.9269 454.132,-23.6549"/>
</g>
<!-- Node7 -->
<g id="node8" class="node">
<title>Node7</title>
<polygon fill="none" stroke="#bfbfbf" points="1008,-.5 1008,-19.5 1072,-19.5 1072,-.5 1008,-.5"/>
<text text-anchor="middle" x="1040" y="-7.5" font-family="FreeSans.ttf" font-size="10.00" fill="#000000">algorithm</text>
</g>
<!-- Node5&#45;&gt;Node7 -->
<g id="edge7" class="edge">
<title>Node5&#45;&gt;Node7</title>
<path fill="none" stroke="#191970" d="M354.5286,-60.1768C370.0002,-58.7484 386.6113,-57.2671 402,-56 626.2101,-37.539 895.0902,-19.4901 997.5412,-12.7615"/>
<polygon fill="#191970" stroke="#191970" points="998.0339,-16.2368 1007.7836,-12.0901 997.576,-9.2518 998.0339,-16.2368"/>
</g>
<!-- Node8 -->
<g id="node9" class="node">
<title>Node8</title>
<polygon fill="none" stroke="#bfbfbf" points="35,-.5 35,-19.5 77,-19.5 77,-.5 35,-.5"/>
<text text-anchor="middle" x="56" y="-7.5" font-family="FreeSans.ttf" font-size="10.00" fill="#000000">array</text>
</g>
<!-- Node5&#45;&gt;Node8 -->
<g id="edge8" class="edge">
<title>Node5&#45;&gt;Node8</title>
<path fill="none" stroke="#191970" d="M244.0505,-56.4738C203.9248,-48.4785 145.9772,-36.1654 87.0661,-20.096"/>
<polygon fill="#191970" stroke="#191970" points="87.7922,-16.6656 77.2213,-17.3774 85.9289,-23.413 87.7922,-16.6656"/>
</g>
<!-- Node9 -->
<g id="node10" class="node">
<title>Node9</title>
<polygon fill="none" stroke="#bfbfbf" points="95.5,-.5 95.5,-19.5 148.5,-19.5 148.5,-.5 95.5,-.5"/>
<text text-anchor="middle" x="122" y="-7.5" font-family="FreeSans.ttf" font-size="10.00" fill="#000000">iterator</text>
</g>
<!-- Node5&#45;&gt;Node9 -->
<g id="edge10" class="edge">
<title>Node5&#45;&gt;Node9</title>
<path fill="none" stroke="#191970" d="M264.4321,-56.3733C235.0511,-46.8073 189.9368,-32.119 158.3764,-21.8435"/>
<polygon fill="#191970" stroke="#191970" points="159.2352,-18.4423 148.6429,-18.6744 157.068,-25.0984 159.2352,-18.4423"/>
</g>
<!-- Node10 -->
<g id="node11" class="node">
<title>Node10</title>
<polygon fill="none" stroke="#bfbfbf" points="167,-.5 167,-19.5 211,-19.5 211,-.5 167,-.5"/>
<text text-anchor="middle" x="189" y="-7.5" font-family="FreeSans.ttf" font-size="10.00" fill="#000000">limits</text>
</g>
<!-- Node5&#45;&gt;Node10 -->
<g id="edge11" class="edge">
<title>Node5&#45;&gt;Node10</title>
<path fill="none" stroke="#191970" d="M275.7104,-56.2455C259.2238,-47.4527 234.7648,-34.4079 216.0235,-24.4125"/>
<polygon fill="#191970" stroke="#191970" points="217.5506,-21.2604 207.08,-19.6427 214.2565,-27.4368 217.5506,-21.2604"/>
</g>
<!-- Node11 -->
<g id="node12" class="node">
<title>Node11</title>
<polygon fill="none" stroke="#bfbfbf" points="229.5,-.5 229.5,-19.5 294.5,-19.5 294.5,-.5 229.5,-.5"/>
<text text-anchor="middle" x="262" y="-7.5" font-family="FreeSans.ttf" font-size="10.00" fill="#000000">stdexcept</text>
</g>
<!-- Node5&#45;&gt;Node11 -->
<g id="edge12" class="edge">
<title>Node5&#45;&gt;Node11</title>
<path fill="none" stroke="#191970" d="M288.426,-56.2455C284.0669,-48.617 277.8789,-37.7881 272.5867,-28.5267"/>
<polygon fill="#191970" stroke="#191970" points="275.5104,-26.5886 267.5101,-19.6427 269.4327,-30.0616 275.5104,-26.5886"/>
</g>
<!-- Node12 -->
<g id="node13" class="node">
<title>Node12</title>
<polygon fill="none" stroke="#bfbfbf" points="312.5,-.5 312.5,-19.5 381.5,-19.5 381.5,-.5 312.5,-.5"/>
<text text-anchor="middle" x="347" y="-7.5" font-family="FreeSans.ttf" font-size="10.00" fill="#000000">type_traits</text>
</g>
<!-- Node5&#45;&gt;Node12 -->
<g id="edge13" class="edge">
<title>Node5&#45;&gt;Node12</title>
<path fill="none" stroke="#191970" d="M303.2319,-56.2455C310.8317,-48.2155 321.7877,-36.6394 330.8368,-27.0781"/>
<polygon fill="#191970" stroke="#191970" points="333.5421,-29.3115 337.8739,-19.6427 328.458,-24.4998 333.5421,-29.3115"/>
</g>
<!-- Node13 -->
<g id="node14" class="node">
<title>Node13</title>
<polygon fill="none" stroke="#bfbfbf" points="399.5,-.5 399.5,-19.5 444.5,-19.5 444.5,-.5 399.5,-.5"/>
<text text-anchor="middle" x="422" y="-7.5" font-family="FreeSans.ttf" font-size="10.00" fill="#000000">utility</text>
</g>
<!-- Node5&#45;&gt;Node13 -->
<g id="edge14" class="edge">
<title>Node5&#45;&gt;Node13</title>
<path fill="none" stroke="#191970" d="M316.004,-56.3733C336.6435,-47.3435 367.7158,-33.7494 390.8889,-23.6111"/>
<polygon fill="#191970" stroke="#191970" points="392.5245,-26.7159 400.2831,-19.5011 389.7187,-20.3028 392.5245,-26.7159"/>
</g>
<!-- Node17&#45;&gt;Node2 -->
<g id="edge20" class="edge">
<title>Node17&#45;&gt;Node2</title>
<path fill="none" stroke="#191970" d="M261.5226,-168.2455C261.914,-160.9382 262.4628,-150.6944 262.9444,-141.7046"/>
<polygon fill="#191970" stroke="#191970" points="266.4434,-141.8156 263.4834,-131.6427 259.4534,-141.4411 266.4434,-141.8156"/>
</g>
<!-- Node18&#45;&gt;Node3 -->
<g id="edge41" class="edge">
<title>Node18&#45;&gt;Node3</title>
<path fill="none" stroke="#191970" d="M386.6922,-347.1874C375.2102,-311.1298 340.8497,-184.3063 399,-112 412.7789,-94.8668 463.2787,-82.8521 506.9856,-75.4088"/>
<polygon fill="#191970" stroke="#191970" points="507.7557,-78.8292 517.0549,-73.7523 506.6194,-71.922 507.7557,-78.8292"/>
</g>
<!-- Node18&#45;&gt;Node15 -->
<g id="edge44" class="edge">
<title>Node18&#45;&gt;Node15</title>
<path fill="none" stroke="#191970" d="M366.2867,-347.4554C318.5204,-326.7563 211.729,-272.6754 170,-188 153.5395,-154.5987 167.3359,-110.193 177.8445,-85.2054"/>
<polygon fill="#191970" stroke="#191970" points="181.174,-86.3327 182.0491,-75.774 174.7805,-83.4824 181.174,-86.3327"/>
</g>
<!-- Node18&#45;&gt;Node17 -->
<g id="edge42" class="edge">
<title>Node18&#45;&gt;Node17</title>
<path fill="none" stroke="#191970" d="M383.0644,-347.3762C362.4157,-318.7241 301.1016,-233.6448 274.0607,-196.1229"/>
<polygon fill="#191970" stroke="#191970" points="276.656,-193.7378 267.9699,-187.6714 270.9771,-197.8305 276.656,-193.7378"/>
</g>
<!-- Node19 -->
<g id="node20" class="node">
<title>Node19</title>
<g id="a_node20"><a xlink:href="Position_8h.html" target="_top" xlink:title="Position.h">
<polygon fill="none" stroke="#000000" points="772.5,-286 772.5,-305 837.5,-305 837.5,-286 772.5,-286"/>
<text text-anchor="middle" x="805" y="-293" font-family="FreeSans.ttf" font-size="10.00" fill="#000000">Position.h</text>
</a>
</g>
</g>
<!-- Node18&#45;&gt;Node19 -->
<g id="edge22" class="edge">
<title>Node18&#45;&gt;Node19</title>
<path fill="none" stroke="#191970" d="M454.3884,-347.4581C539.9932,-334.7721 688.9584,-312.6965 762.0523,-301.8645"/>
<polygon fill="#191970" stroke="#191970" points="762.8906,-305.2786 772.2695,-300.3504 761.8644,-298.3542 762.8906,-305.2786"/>
</g>
<!-- Node21 -->
<g id="node22" class="node">
<title>Node21</title>
<g id="a_node22"><a xlink:href="Rotation_8h.html" target="_top" xlink:title="iDynTree/Core/Rotation.h">
<polygon fill="none" stroke="#000000" points="523.5,-224.5 523.5,-243.5 660.5,-243.5 660.5,-224.5 523.5,-224.5"/>
<text text-anchor="middle" x="592" y="-231.5" font-family="FreeSans.ttf" font-size="10.00" fill="#000000">iDynTree/Core/Rotation.h</text>
</a>
</g>
</g>
<!-- Node18&#45;&gt;Node21 -->
<g id="edge40" class="edge">
<title>Node18&#45;&gt;Node21</title>
<path fill="none" stroke="#191970" d="M392.0549,-347.377C396.0511,-331.0372 406.4372,-297.9022 428,-280 443.888,-266.8092 491.2529,-254.3198 531.0206,-245.6927"/>
<polygon fill="#191970" stroke="#191970" points="531.8893,-249.0863 540.9436,-243.5844 530.4345,-242.2391 531.8893,-249.0863"/>
</g>
<!-- Node18&#45;&gt;Node24 -->
<g id="edge43" class="edge">
<title>Node18&#45;&gt;Node24</title>
<path fill="none" stroke="#191970" d="M470.5858,-351.3612C581.8771,-343.146 776.7331,-327.1041 846,-311 929.1447,-291.6694 948.6076,-280.0158 1026,-244 1128.4995,-196.3002 1237.794,-115.7075 1281.8674,-81.7908"/>
<polygon fill="#191970" stroke="#191970" points="1284.0286,-84.544 1289.7912,-75.6534 1279.7421,-79.01 1284.0286,-84.544"/>
</g>
<!-- Node19&#45;&gt;Node14 -->
<g id="edge39" class="edge">
<title>Node19&#45;&gt;Node14</title>
<path fill="none" stroke="#191970" d="M837.5603,-288.0593C905.6689,-271.7661 1059.3377,-230.944 1089,-188 1094.0518,-180.6862 1094.628,-174.8802 1089,-168 1037.8964,-105.5261 981.5166,-171.268 911,-132 890.2986,-120.4722 872.4824,-99.6413 861.3296,-84.4574"/>
<polygon fill="#191970" stroke="#191970" points="863.8996,-82.0278 855.2804,-75.8666 858.1761,-86.0581 863.8996,-82.0278"/>
</g>
<!-- Node20 -->
<g id="node21" class="node">
<title>Node20</title>
<g id="a_node21"><a xlink:href="PositionRaw_8h.html" target="_top" xlink:title="iDynTree/Core/PositionRaw.h">
<polygon fill="none" stroke="#000000" points="727,-168.5 727,-187.5 883,-187.5 883,-168.5 727,-168.5"/>
<text text-anchor="middle" x="805" y="-175.5" font-family="FreeSans.ttf" font-size="10.00" fill="#000000">iDynTree/Core/PositionRaw.h</text>
</a>
</g>
</g>
<!-- Node19&#45;&gt;Node20 -->
<g id="edge23" class="edge">
<title>Node19&#45;&gt;Node20</title>
<path fill="none" stroke="#191970" d="M805,-285.8845C805,-266.6913 805,-223.286 805,-197.7663"/>
<polygon fill="#191970" stroke="#191970" points="808.5001,-197.7483 805,-187.7484 801.5001,-197.7484 808.5001,-197.7483"/>
</g>
<!-- Node19&#45;&gt;Node21 -->
<g id="edge26" class="edge">
<title>Node19&#45;&gt;Node21</title>
<path fill="none" stroke="#191970" d="M772.1855,-286.0254C735.3936,-275.4024 675.5889,-258.1348 635.0644,-246.4341"/>
<polygon fill="#191970" stroke="#191970" points="635.7811,-242.9981 625.2027,-243.5867 633.8393,-249.7234 635.7811,-242.9981"/>
</g>
<!-- Node20&#45;&gt;Node2 -->
<g id="edge24" class="edge">
<title>Node20&#45;&gt;Node2</title>
<path fill="none" stroke="#191970" d="M726.9117,-169.9169C628.3629,-159.7159 459.1694,-142.2024 354.9091,-131.4102"/>
<polygon fill="#191970" stroke="#191970" points="355.0218,-127.9032 344.7146,-130.3549 354.301,-134.866 355.0218,-127.9032"/>
</g>
<!-- Node20&#45;&gt;Node14 -->
<g id="edge25" class="edge">
<title>Node20&#45;&gt;Node14</title>
<path fill="none" stroke="#191970" d="M808.7514,-168.4509C815.9927,-150.0186 832.0186,-109.2254 841.5188,-85.043"/>
<polygon fill="#191970" stroke="#191970" points="844.8591,-86.1122 845.2581,-75.5249 838.3439,-83.5526 844.8591,-86.1122"/>
</g>
<!-- Node21&#45;&gt;Node2 -->
<g id="edge38" class="edge">
<title>Node21&#45;&gt;Node2</title>
<path fill="none" stroke="#191970" d="M564.0349,-224.4509C505.0923,-204.3242 368.0706,-157.5363 301.5597,-134.8253"/>
<polygon fill="#191970" stroke="#191970" points="302.4888,-131.4442 291.8943,-131.5249 300.2268,-138.0686 302.4888,-131.4442"/>
</g>
<!-- Node21&#45;&gt;Node14 -->
<g id="edge27" class="edge">
<title>Node21&#45;&gt;Node14</title>
<path fill="none" stroke="#191970" d="M612.3764,-224.3856C630.5113,-215.5872 657.5618,-201.8642 680,-188 735.996,-153.401 797.7398,-106.3761 828.7928,-82.0514"/>
<polygon fill="#191970" stroke="#191970" points="831.0141,-84.7571 836.7072,-75.8218 826.6846,-79.2567 831.0141,-84.7571"/>
</g>
<!-- Node21&#45;&gt;Node17 -->
<g id="edge28" class="edge">
<title>Node21&#45;&gt;Node17</title>
<path fill="none" stroke="#191970" d="M535.4752,-224.4369C477.756,-214.6717 388.2029,-199.5207 327.2034,-189.2006"/>
<polygon fill="#191970" stroke="#191970" points="327.7355,-185.7409 317.2917,-187.5237 326.5677,-192.6429 327.7355,-185.7409"/>
</g>
<!-- Node22 -->
<g id="node23" class="node">
<title>Node22</title>
<g id="a_node23"><a xlink:href="RotationRaw_8h.html" target="_top" xlink:title="iDynTree/Core/RotationRaw.h">
<polygon fill="none" stroke="#000000" points="513,-168.5 513,-187.5 671,-187.5 671,-168.5 513,-168.5"/>
<text text-anchor="middle" x="592" y="-175.5" font-family="FreeSans.ttf" font-size="10.00" fill="#000000">iDynTree/Core/RotationRaw.h</text>
</a>
</g>
</g>
<!-- Node21&#45;&gt;Node22 -->
<g id="edge29" class="edge">
<title>Node21&#45;&gt;Node22</title>
<path fill="none" stroke="#191970" d="M592,-224.2455C592,-216.9382 592,-206.6944 592,-197.7046"/>
<polygon fill="#191970" stroke="#191970" points="595.5001,-197.6426 592,-187.6427 588.5001,-197.6427 595.5001,-197.6426"/>
</g>
<!-- Node22&#45;&gt;Node14 -->
<g id="edge37" class="edge">
<title>Node22&#45;&gt;Node14</title>
<path fill="none" stroke="#191970" d="M605.8009,-168.3621C626.2525,-154.4181 666.165,-128.4862 703,-112 740.8639,-95.0534 786.8347,-81.6706 816.9486,-73.8062"/>
<polygon fill="#191970" stroke="#191970" points="818.0805,-77.1294 826.8996,-71.2578 816.3439,-70.3482 818.0805,-77.1294"/>
</g>
<!-- Node23 -->
<g id="node24" class="node">
<title>Node23</title>
<g id="a_node24"><a xlink:href="MatrixFixSize_8h.html" target="_top" xlink:title="iDynTree/Core/MatrixFixSize.h">
<polygon fill="none" stroke="#000000" points="408.5,-112.5 408.5,-131.5 569.5,-131.5 569.5,-112.5 408.5,-112.5"/>
<text text-anchor="middle" x="489" y="-119.5" font-family="FreeSans.ttf" font-size="10.00" fill="#000000">iDynTree/Core/MatrixFixSize.h</text>
</a>
</g>
</g>
<!-- Node22&#45;&gt;Node23 -->
<g id="edge30" class="edge">
<title>Node22&#45;&gt;Node23</title>
<path fill="none" stroke="#191970" d="M574.0588,-168.2455C557.96,-159.4928 534.1121,-146.527 515.7609,-136.5496"/>
<polygon fill="#191970" stroke="#191970" points="517.1929,-133.3444 506.7356,-131.6427 513.8493,-139.4942 517.1929,-133.3444"/>
</g>
<!-- Node23&#45;&gt;Node3 -->
<g id="edge31" class="edge">
<title>Node23&#45;&gt;Node3</title>
<path fill="none" stroke="#191970" d="M504.3284,-112.2455C517.8303,-103.6534 537.7122,-91.0014 553.2686,-81.1018"/>
<polygon fill="#191970" stroke="#191970" points="555.2897,-83.9643 561.8472,-75.6427 551.5315,-78.0587 555.2897,-83.9643"/>
</g>
<!-- Node23&#45;&gt;Node6 -->
<g id="edge32" class="edge">
<title>Node23&#45;&gt;Node6</title>
<path fill="none" stroke="#191970" d="M489,-112.4509C489,-94.184 489,-53.9553 489,-29.6976"/>
<polygon fill="#191970" stroke="#191970" points="492.5001,-29.5249 489,-19.5249 485.5001,-29.5249 492.5001,-29.5249"/>
</g>
<!-- Node23&#45;&gt;Node14 -->
<g id="edge34" class="edge">
<title>Node23&#45;&gt;Node14</title>
<path fill="none" stroke="#191970" d="M550.4772,-112.4369C627.5818,-100.4428 756.9183,-80.3238 816.7902,-71.0104"/>
<polygon fill="#191970" stroke="#191970" points="817.4539,-74.4494 826.797,-69.4538 816.3779,-67.5325 817.4539,-74.4494"/>
</g>
<!-- Node23&#45;&gt;Node15 -->
<g id="edge36" class="edge">
<title>Node23&#45;&gt;Node15</title>
<path fill="none" stroke="#191970" d="M424.4165,-112.4928C372.871,-104.5153 298.6412,-92.1603 225.113,-76.0988"/>
<polygon fill="#191970" stroke="#191970" points="225.7351,-72.6519 215.2156,-73.913 224.2255,-79.4872 225.7351,-72.6519"/>
</g>
<!-- Node23&#45;&gt;Node16 -->
<g id="edge33" class="edge">
<title>Node23&#45;&gt;Node16</title>
<path fill="none" stroke="#191970" d="M479.7681,-112.2455C472.1683,-104.2155 461.2123,-92.6394 452.1632,-83.0781"/>
<polygon fill="#191970" stroke="#191970" points="454.542,-80.4998 445.1261,-75.6427 449.4579,-85.3115 454.542,-80.4998"/>
</g>
<!-- Node23&#45;&gt;Node24 -->
<g id="edge35" class="edge">
<title>Node23&#45;&gt;Node24</title>
<path fill="none" stroke="#191970" d="M569.5518,-116.4515C740.6337,-104.6673 1134.9545,-77.5062 1261.8667,-68.7644"/>
<polygon fill="#191970" stroke="#191970" points="1262.1894,-72.2506 1271.9252,-68.0716 1261.7083,-65.2671 1262.1894,-72.2506"/>
</g>
<!-- Node25&#45;&gt;Node2 -->
<g id="edge46" class="edge">
<title>Node25&#45;&gt;Node2</title>
<path fill="none" stroke="#191970" d="M367.1744,-405.4371C338.5797,-397.7809 307.2892,-385.7633 283,-367 208.5463,-309.4848 196.1404,-278.3772 170,-188 167.5302,-179.4611 165.2946,-175.5413 170,-168 179.5675,-152.6664 195.893,-142.3037 212.2798,-135.3641"/>
<polygon fill="#191970" stroke="#191970" points="213.8125,-138.5243 221.8846,-131.6619 211.2949,-131.9927 213.8125,-138.5243"/>
</g>
<!-- Node25&#45;&gt;Node17 -->
<g id="edge47" class="edge">
<title>Node25&#45;&gt;Node17</title>
<path fill="none" stroke="#191970" d="M384.437,-403.4256C350.0584,-393.6733 311.6234,-380.3463 300,-367 257.5258,-318.23 256.9313,-235.5503 259.2086,-197.8273"/>
<polygon fill="#191970" stroke="#191970" points="262.7141,-197.8826 259.9644,-187.6508 255.7333,-197.3641 262.7141,-197.8826"/>
</g>
<!-- Node25&#45;&gt;Node18 -->
<g id="edge48" class="edge">
<title>Node25&#45;&gt;Node18</title>
<path fill="none" stroke="#191970" d="M431.4045,-403.2977C423.6109,-394.5831 413.7953,-383.6075 405.6774,-374.5302"/>
<polygon fill="#191970" stroke="#191970" points="408.0813,-371.9678 398.8062,-366.8469 402.8635,-376.6341 408.0813,-371.9678"/>
</g>
<!-- Node26&#45;&gt;Node3 -->
<g id="edge56" class="edge">
<title>Node26&#45;&gt;Node3</title>
<path fill="none" stroke="#191970" d="M1069.76,-347.112C1048.9929,-315.1244 978.5989,-213.8753 892,-168 811.0297,-125.1065 774.948,-163.7646 689,-132 655.1017,-119.4719 619.791,-96.7946 598.097,-81.566"/>
<polygon fill="#191970" stroke="#191970" points="599.8476,-78.5151 589.677,-75.5467 595.7767,-84.2096 599.8476,-78.5151"/>
</g>
<!-- Node26&#45;&gt;Node14 -->
<g id="edge50" class="edge">
<title>Node26&#45;&gt;Node14</title>
<path fill="none" stroke="#191970" d="M1083.7803,-347.1768C1106.6605,-317.0368 1169.4051,-224.5011 1125,-168 1083.1695,-114.7748 1039.3887,-158.2749 977,-132 961.5433,-125.4904 959.6965,-120.0807 945,-112 923.6648,-100.2691 898.8648,-88.4298 879.8162,-79.7004"/>
<polygon fill="#191970" stroke="#191970" points="881.2506,-76.5078 870.6984,-75.5577 878.3549,-82.8808 881.2506,-76.5078"/>
</g>
<!-- Node26&#45;&gt;Node19 -->
<g id="edge55" class="edge">
<title>Node26&#45;&gt;Node19</title>
<path fill="none" stroke="#191970" d="M1033.9536,-347.4581C983.3258,-335.9688 898.7605,-316.7778 847.7991,-305.2127"/>
<polygon fill="#191970" stroke="#191970" points="848.2936,-301.736 837.7669,-302.936 846.7443,-308.5624 848.2936,-301.736"/>
</g>
<!-- Node27 -->
<g id="node28" class="node">
<title>Node27</title>
<g id="a_node28"><a xlink:href="Direction_8h.html" target="_top" xlink:title="iDynTree/Core/Direction.h">
<polygon fill="none" stroke="#000000" points="939.5,-168.5 939.5,-187.5 1080.5,-187.5 1080.5,-168.5 939.5,-168.5"/>
<text text-anchor="middle" x="1010" y="-175.5" font-family="FreeSans.ttf" font-size="10.00" fill="#000000">iDynTree/Core/Direction.h</text>
</a>
</g>
</g>
<!-- Node26&#45;&gt;Node27 -->
<g id="edge51" class="edge">
<title>Node26&#45;&gt;Node27</title>
<path fill="none" stroke="#191970" d="M1072.4516,-347.3762C1061.9766,-318.9669 1031.0473,-235.0828 1017.0377,-197.0871"/>
<polygon fill="#191970" stroke="#191970" points="1020.3094,-195.8431 1013.566,-187.6714 1013.7416,-198.2648 1020.3094,-195.8431"/>
</g>
<!-- Node27&#45;&gt;Node2 -->
<g id="edge53" class="edge">
<title>Node27&#45;&gt;Node2</title>
<path fill="none" stroke="#191970" d="M939.1897,-171.8641C923.645,-170.5548 907.2694,-169.2045 892,-168 672.9858,-150.7239 618.1027,-148.1146 399,-132 384.7172,-130.9495 369.5848,-129.8325 354.8165,-128.7402"/>
<polygon fill="#191970" stroke="#191970" points="354.8964,-125.2367 344.6653,-127.9891 354.3798,-132.2176 354.8964,-125.2367"/>
</g>
<!-- Node27&#45;&gt;Node3 -->
<g id="edge54" class="edge">
<title>Node27&#45;&gt;Node3</title>
<path fill="none" stroke="#191970" d="M939.4058,-169.0967C886.8792,-161.5983 813.7351,-149.3057 751,-132 699.5502,-117.8074 642.0474,-94.4494 607.7269,-79.6642"/>
<polygon fill="#191970" stroke="#191970" points="608.8355,-76.3298 598.2692,-75.5535 606.0451,-82.7496 608.8355,-76.3298"/>
</g>
<!-- Node27&#45;&gt;Node14 -->
<g id="edge52" class="edge">
<title>Node27&#45;&gt;Node14</title>
<path fill="none" stroke="#191970" d="M944.3239,-168.4416C919.3036,-161.8574 892.2172,-150.7458 873,-132 860.4812,-119.7883 854.4565,-100.5411 851.5787,-85.9762"/>
<polygon fill="#191970" stroke="#191970" points="855.0062,-85.2479 849.936,-75.945 848.0982,-86.3792 855.0062,-85.2479"/>
</g>
<!-- Node28&#45;&gt;Node2 -->
<g id="edge61" class="edge">
<title>Node28&#45;&gt;Node2</title>
<path fill="none" stroke="#191970" d="M401.7023,-541.8693C286.3478,-534.0388 85.8849,-518.1923 57,-501 18.7032,-478.2058 0,-463.0671 0,-418.5 0,-418.5 0,-418.5 0,-234 0,-189.1513 130.7514,-151.9573 208.2204,-133.8561"/>
<polygon fill="#191970" stroke="#191970" points="209.3549,-137.1867 218.3161,-131.5345 207.786,-130.3647 209.3549,-137.1867"/>
</g>
<!-- Node29 -->
<g id="node30" class="node">
<title>Node29</title>
<g id="a_node30"><a xlink:href="SpatialInertiaRaw_8h.html" target="_top" xlink:title="iDynTree/Core/SpatialInertia\lRaw.h">
<polygon fill="none" stroke="#000000" points="766.5,-470.5 766.5,-500.5 919.5,-500.5 919.5,-470.5 766.5,-470.5"/>
<text text-anchor="start" x="774.5" y="-488.5" font-family="FreeSans.ttf" font-size="10.00" fill="#000000">iDynTree/Core/SpatialInertia</text>
<text text-anchor="middle" x="843" y="-477.5" font-family="FreeSans.ttf" font-size="10.00" fill="#000000">Raw.h</text>
</a>
</g>
</g>
<!-- Node28&#45;&gt;Node29 -->
<g id="edge58" class="edge">
<title>Node28&#45;&gt;Node29</title>
<path fill="none" stroke="#191970" d="M538.855,-537.4581C596.9011,-527.5419 688.5297,-511.8887 756.057,-500.3528"/>
<polygon fill="#191970" stroke="#191970" points="756.9904,-503.7441 766.2582,-498.6101 755.8116,-496.8441 756.9904,-503.7441"/>
</g>
<!-- Node31 -->
<g id="node32" class="node">
<title>Node31</title>
<g id="a_node32"><a xlink:href="Twist_8h.html" target="_top" xlink:title="iDynTree/Core/Twist.h">
<polygon fill="none" stroke="#000000" points="422,-476 422,-495 544,-495 544,-476 422,-476"/>
<text text-anchor="middle" x="483" y="-483" font-family="FreeSans.ttf" font-size="10.00" fill="#000000">iDynTree/Core/Twist.h</text>
</a>
</g>
</g>
<!-- Node28&#45;&gt;Node31 -->
<g id="edge62" class="edge">
<title>Node28&#45;&gt;Node31</title>
<path fill="none" stroke="#191970" d="M483,-537.3906C483,-528.8657 483,-516.1392 483,-505.4235"/>
<polygon fill="#191970" stroke="#191970" points="486.5001,-505.2448 483,-495.2449 479.5001,-505.2449 486.5001,-505.2448"/>
</g>
<!-- Node32 -->
<g id="node33" class="node">
<title>Node32</title>
<g id="a_node33"><a xlink:href="SpatialMomentum_8h.html" target="_top" xlink:title="iDynTree/Core/SpatialMomentum.h">
<polygon fill="none" stroke="#000000" points="66,-476 66,-495 252,-495 252,-476 66,-476"/>
<text text-anchor="middle" x="159" y="-483" font-family="FreeSans.ttf" font-size="10.00" fill="#000000">iDynTree/Core/SpatialMomentum.h</text>
</a>
</g>
</g>
<!-- Node28&#45;&gt;Node32 -->
<g id="edge64" class="edge">
<title>Node28&#45;&gt;Node32</title>
<path fill="none" stroke="#191970" d="M432.7305,-537.4581C375.0631,-526.512 280.567,-508.5752 219.0722,-496.9026"/>
<polygon fill="#191970" stroke="#191970" points="219.5982,-493.44 209.1209,-495.0137 218.2927,-500.3172 219.5982,-493.44"/>
</g>
<!-- Node33 -->
<g id="node34" class="node">
<title>Node33</title>
<g id="a_node34"><a xlink:href="SpatialAcc_8h.html" target="_top" xlink:title="iDynTree/Core/SpatialAcc.h">
<polygon fill="none" stroke="#000000" points="562,-476 562,-495 710,-495 710,-476 562,-476"/>
<text text-anchor="middle" x="636" y="-483" font-family="FreeSans.ttf" font-size="10.00" fill="#000000">iDynTree/Core/SpatialAcc.h</text>
</a>
</g>
</g>
<!-- Node28&#45;&gt;Node33 -->
<g id="edge66" class="edge">
<title>Node28&#45;&gt;Node33</title>
<path fill="none" stroke="#191970" d="M506.9063,-537.3906C532.7305,-527.0103 574.0527,-510.4004 602.9705,-498.7766"/>
<polygon fill="#191970" stroke="#191970" points="604.2885,-502.019 612.2616,-495.0419 601.6778,-495.5241 604.2885,-502.019"/>
</g>
<!-- Node34 -->
<g id="node35" class="node">
<title>Node34</title>
<g id="a_node35"><a xlink:href="Wrench_8h.html" target="_top" xlink:title="iDynTree/Core/Wrench.h">
<polygon fill="none" stroke="#000000" points="270.5,-476 270.5,-495 403.5,-495 403.5,-476 270.5,-476"/>
<text text-anchor="middle" x="337" y="-483" font-family="FreeSans.ttf" font-size="10.00" fill="#000000">iDynTree/Core/Wrench.h</text>
</a>
</g>
</g>
<!-- Node28&#45;&gt;Node34 -->
<g id="edge68" class="edge">
<title>Node28&#45;&gt;Node34</title>
<path fill="none" stroke="#191970" d="M460.1875,-537.3906C435.6519,-527.0554 396.4558,-510.5447 368.8789,-498.9284"/>
<polygon fill="#191970" stroke="#191970" points="370.2268,-495.6984 359.6523,-495.0419 367.5094,-502.1495 370.2268,-495.6984"/>
</g>
<!-- Node30 -->
<g id="node31" class="node">
<title>Node30</title>
<g id="a_node31"><a xlink:href="RotationalInertiaRaw_8h.html" target="_top" xlink:title="iDynTree/Core/Rotational\lInertiaRaw.h">
<polygon fill="none" stroke="#000000" points="437.5,-280.5 437.5,-310.5 574.5,-310.5 574.5,-280.5 437.5,-280.5"/>
<text text-anchor="start" x="445.5" y="-298.5" font-family="FreeSans.ttf" font-size="10.00" fill="#000000">iDynTree/Core/Rotational</text>
<text text-anchor="middle" x="506" y="-287.5" font-family="FreeSans.ttf" font-size="10.00" fill="#000000">InertiaRaw.h</text>
</a>
</g>
</g>
<!-- Node29&#45;&gt;Node30 -->
<g id="edge59" class="edge">
<title>Node29&#45;&gt;Node30</title>
<path fill="none" stroke="#191970" d="M816.2745,-470.4322C756.0568,-436.4816 609.7359,-353.9861 541.7799,-315.6727"/>
<polygon fill="#191970" stroke="#191970" points="543.1581,-312.4318 532.7283,-310.5693 539.7203,-318.5294 543.1581,-312.4318"/>
</g>
<!-- Node30&#45;&gt;Node23 -->
<g id="edge60" class="edge">
<title>Node30&#45;&gt;Node23</title>
<path fill="none" stroke="#191970" d="M494.6197,-280.1171C487.9906,-270.3002 480.144,-257.0147 476,-244 465.7296,-211.7448 464.7236,-201.2638 471,-168 472.7441,-158.7566 476.2981,-148.9893 479.7909,-140.844"/>
<polygon fill="#191970" stroke="#191970" points="483.0628,-142.1052 484.0415,-131.5556 476.6976,-139.1923 483.0628,-142.1052"/>
</g>
<!-- Node31&#45;&gt;Node25 -->
<g id="edge63" class="edge">
<title>Node31&#45;&gt;Node25</title>
<path fill="none" stroke="#191970" d="M477.5555,-475.9005C472.6004,-467.1638 465.0786,-453.9018 458.513,-442.3256"/>
<polygon fill="#191970" stroke="#191970" points="461.4977,-440.4934 453.5198,-433.5218 455.4088,-443.9468 461.4977,-440.4934"/>
</g>
<!-- Node32&#45;&gt;Node1 -->
<g id="edge65" class="edge">
<title>Node32&#45;&gt;Node1</title>
<path fill="none" stroke="#191970" d="M159,-475.9005C159,-467.5099 159,-454.9451 159,-443.7085"/>
<polygon fill="#191970" stroke="#191970" points="162.5001,-443.5217 159,-433.5218 155.5001,-443.5218 162.5001,-443.5217"/>
</g>
<!-- Node33&#45;&gt;Node25 -->
<g id="edge67" class="edge">
<title>Node33&#45;&gt;Node25</title>
<path fill="none" stroke="#191970" d="M608.6344,-475.9005C579.7828,-465.7798 533.6194,-449.5864 497.6693,-436.9756"/>
<polygon fill="#191970" stroke="#191970" points="498.4181,-433.5292 487.8232,-433.5218 496.101,-440.1346 498.4181,-433.5292"/>
</g>
<!-- Node34&#45;&gt;Node1 -->
<g id="edge69" class="edge">
<title>Node34&#45;&gt;Node1</title>
<path fill="none" stroke="#191970" d="M311.4969,-475.9005C284.724,-465.8231 241.9551,-449.7247 208.5145,-437.1375"/>
<polygon fill="#191970" stroke="#191970" points="209.5005,-433.7689 198.9086,-433.5218 207.0346,-440.3202 209.5005,-433.7689"/>
</g>
<!-- Node35&#45;&gt;Node3 -->
<g id="edge73" class="edge">
<title>Node35&#45;&gt;Node3</title>
<path fill="none" stroke="#191970" d="M1265.4931,-169.9784C1192.5339,-161.3687 1074.5427,-146.9078 973,-132 855.1971,-114.705 718.2779,-91.1026 640.2124,-77.312"/>
<polygon fill="#191970" stroke="#191970" points="640.5174,-73.8117 630.0604,-75.5153 639.2974,-80.7046 640.5174,-73.8117"/>
</g>
<!-- Node35&#45;&gt;Node7 -->
<g id="edge74" class="edge">
<title>Node35&#45;&gt;Node7</title>
<path fill="none" stroke="#191970" d="M1356.7658,-168.3857C1371.0664,-160.773 1388.6252,-148.6416 1397,-132 1417.7635,-90.7406 1342.2672,-56.6413 1341,-56 1296.4937,-33.4749 1154.031,-19.1618 1082.2219,-13.1943"/>
<polygon fill="#191970" stroke="#191970" points="1082.4111,-9.6982 1072.1598,-12.3744 1081.8425,-16.6751 1082.4111,-9.6982"/>
</g>
<!-- Node35&#45;&gt;Node14 -->
<g id="edge77" class="edge">
<title>Node35&#45;&gt;Node14</title>
<path fill="none" stroke="#191970" d="M1265.2773,-173.867C1200.3648,-168.6183 1101.497,-157.0218 1019,-132 999.215,-125.9991 996.0853,-119.9504 977,-112 944.8633,-98.6128 907.2893,-85.3886 881.1991,-76.5797"/>
<polygon fill="#191970" stroke="#191970" points="882.0496,-73.1735 871.4558,-73.3151 879.8257,-79.8108 882.0496,-73.1735"/>
</g>
<!-- Node35&#45;&gt;Node24 -->
<g id="edge76" class="edge">
<title>Node35&#45;&gt;Node24</title>
<path fill="none" stroke="#191970" d="M1350.461,-168.3281C1368.4381,-155.7999 1394.1864,-133.0645 1382,-112 1373.1636,-96.726 1357.1224,-86.0801 1341.7116,-78.9072"/>
<polygon fill="#191970" stroke="#191970" points="1342.8391,-75.5832 1332.2677,-74.8796 1340.093,-82.022 1342.8391,-75.5832"/>
</g>
<!-- Node36 -->
<g id="node37" class="node">
<title>Node36</title>
<g id="a_node37"><a xlink:href="MatrixDynSize_8h.html" target="_top" xlink:title="iDynTree/Core/MatrixDynSize.h">
<polygon fill="none" stroke="#000000" points="1028.5,-112.5 1028.5,-131.5 1195.5,-131.5 1195.5,-112.5 1028.5,-112.5"/>
<text text-anchor="middle" x="1112" y="-119.5" font-family="FreeSans.ttf" font-size="10.00" fill="#000000">iDynTree/Core/MatrixDynSize.h</text>
</a>
</g>
</g>
<!-- Node35&#45;&gt;Node36 -->
<g id="edge71" class="edge">
<title>Node35&#45;&gt;Node36</title>
<path fill="none" stroke="#191970" d="M1296.9183,-168.4369C1258.9941,-158.9133 1200.6711,-144.2672 1159.6874,-133.9753"/>
<polygon fill="#191970" stroke="#191970" points="1160.476,-130.5647 1149.9246,-131.5237 1158.771,-137.3539 1160.476,-130.5647"/>
</g>
<!-- Node37 -->
<g id="node38" class="node">
<title>Node37</title>
<polygon fill="none" stroke="#bfbfbf" points="1251,-112.5 1251,-131.5 1307,-131.5 1307,-112.5 1251,-112.5"/>
<text text-anchor="middle" x="1279" y="-119.5" font-family="FreeSans.ttf" font-size="10.00" fill="#000000">iomanip</text>
</g>
<!-- Node35&#45;&gt;Node37 -->
<g id="edge75" class="edge">
<title>Node35&#45;&gt;Node37</title>
<path fill="none" stroke="#191970" d="M1325.2455,-168.2455C1317.1352,-160.1352 1305.4075,-148.4075 1295.7919,-138.7919"/>
<polygon fill="#191970" stroke="#191970" points="1298.1887,-136.2389 1288.6427,-131.6427 1293.2389,-141.1887 1298.1887,-136.2389"/>
</g>
<!-- Node38 -->
<g id="node39" class="node">
<title>Node38</title>
<polygon fill="none" stroke="#bfbfbf" points="1325.5,-112.5 1325.5,-131.5 1372.5,-131.5 1372.5,-112.5 1325.5,-112.5"/>
<text text-anchor="middle" x="1349" y="-119.5" font-family="FreeSans.ttf" font-size="10.00" fill="#000000">vector</text>
</g>
<!-- Node35&#45;&gt;Node38 -->
<g id="edge78" class="edge">
<title>Node35&#45;&gt;Node38</title>
<path fill="none" stroke="#191970" d="M1337.4386,-168.2455C1339.2855,-160.8579 1341.8828,-150.4689 1344.1478,-141.4087"/>
<polygon fill="#191970" stroke="#191970" points="1347.5594,-142.193 1346.5893,-131.6427 1340.7684,-140.4952 1347.5594,-142.193"/>
</g>
<!-- Node35&#45;&gt;Node39 -->
<g id="edge79" class="edge">
<title>Node35&#45;&gt;Node39</title>
<path fill="none" stroke="#191970" d="M1361.9893,-168.3733C1388.4974,-158.9181 1429.0359,-144.4585 1457.7901,-134.2023"/>
<polygon fill="#191970" stroke="#191970" points="1459.1841,-137.4211 1467.427,-130.7649 1456.8323,-130.828 1459.1841,-137.4211"/>
</g>
<!-- Node35&#45;&gt;Node40 -->
<g id="edge80" class="edge">
<title>Node35&#45;&gt;Node40</title>
<path fill="none" stroke="#191970" d="M1378.0693,-168.4889C1414.7183,-160.203 1468.959,-147.4881 1524.3082,-132.3549"/>
<polygon fill="#191970" stroke="#191970" points="1525.5766,-135.6359 1534.2864,-129.6034 1523.7157,-128.8877 1525.5766,-135.6359"/>
</g>
<!-- Node36&#45;&gt;Node14 -->
<g id="edge72" class="edge">
<title>Node36&#45;&gt;Node14</title>
<path fill="none" stroke="#191970" d="M1067.0875,-112.4369C1014.1662,-101.1685 927.564,-82.7284 881.0072,-72.8152"/>
<polygon fill="#191970" stroke="#191970" points="881.6727,-69.3785 871.163,-70.7191 880.2148,-76.225 881.6727,-69.3785"/>
</g>
<!-- Node41&#45;&gt;Node14 -->
<g id="edge85" class="edge">
<title>Node41&#45;&gt;Node14</title>
<path fill="none" stroke="#191970" d="M851.5306,-347.4839C922.5812,-330.0807 1055.2137,-285.5429 1106,-188 1150.1249,-103.2513 1086.3724,-190.792 949,-132 918.8174,-119.0826 887.8417,-97.0067 868.523,-81.9748"/>
<polygon fill="#191970" stroke="#191970" points="870.522,-79.0931 860.5118,-75.6222 866.1726,-84.5779 870.522,-79.0931"/>
</g>
<!-- Node41&#45;&gt;Node19 -->
<g id="edge82" class="edge">
<title>Node41&#45;&gt;Node19</title>
<path fill="none" stroke="#191970" d="M805,-347.3906C805,-338.8657 805,-326.1392 805,-315.4235"/>
<polygon fill="#191970" stroke="#191970" points="808.5001,-315.2448 805,-305.2449 801.5001,-315.2449 808.5001,-315.2448"/>
</g>
<!-- Node41&#45;&gt;Node21 -->
<g id="edge83" class="edge">
<title>Node41&#45;&gt;Node21</title>
<path fill="none" stroke="#191970" d="M788.2862,-347.3484C751.1132,-325.8823 661.4027,-274.0776 617.3159,-248.6191"/>
<polygon fill="#191970" stroke="#191970" points="619.0462,-245.5766 608.6361,-243.6068 615.5457,-251.6385 619.0462,-245.5766"/>
</g>
<!-- Node41&#45;&gt;Node23 -->
<g id="edge84" class="edge">
<title>Node41&#45;&gt;Node23</title>
<path fill="none" stroke="#191970" d="M775.7605,-347.4744C705.4527,-324.317 531.4363,-265.4027 514,-244 490.0901,-214.651 487.1918,-168.379 487.7481,-142.0616"/>
<polygon fill="#191970" stroke="#191970" points="491.2558,-141.9426 488.1652,-131.8086 484.2615,-141.6581 491.2558,-141.9426"/>
</g>
</g>
</svg>
