<?xml version="1.0" encoding="UTF-8" standalone="no"?>
<!DOCTYPE svg PUBLIC "-//W3C//DTD SVG 1.1//EN"
 "http://www.w3.org/Graphics/SVG/1.1/DTD/svg11.dtd">
<!-- Generated by graphviz version 2.40.1 (20161225.0304)
 -->
<!-- Title: TimeVaryingObject.h Pages: 1 -->
<svg width="897pt" height="420pt"
 viewBox="0.00 0.00 897.00 420.00" xmlns="http://www.w3.org/2000/svg" xmlns:xlink="http://www.w3.org/1999/xlink">
<g id="graph0" class="graph" transform="scale(1 1) rotate(0) translate(4 416)">
<title>TimeVaryingObject.h</title>
<!-- Node0 -->
<g id="node1" class="node">
<title>Node0</title>
<polygon fill="#bfbfbf" stroke="#000000" points="119,-392.5 119,-411.5 238,-411.5 238,-392.5 119,-392.5"/>
<text text-anchor="middle" x="178.5" y="-399.5" font-family="FreeSans.ttf" font-size="10.00" fill="#000000">TimeVaryingObject.h</text>
</g>
<!-- Node1 -->
<g id="node2" class="node">
<title>Node1</title>
<g id="a_node2"><a xlink:href="VectorDynSize_8h.html" target="_top" xlink:title="iDynTree/Core/VectorDynSize.h">
<polygon fill="none" stroke="#000000" points="0,-112.5 0,-131.5 167,-131.5 167,-112.5 0,-112.5"/>
<text text-anchor="middle" x="83.5" y="-119.5" font-family="FreeSans.ttf" font-size="10.00" fill="#000000">iDynTree/Core/VectorDynSize.h</text>
</a>
</g>
</g>
<!-- Node0&#45;&gt;Node1 -->
<g id="edge1" class="edge">
<title>Node0&#45;&gt;Node1</title>
<path fill="none" stroke="#191970" d="M157.3605,-392.4901C125.1548,-376.3882 67.5,-340.5089 67.5,-290 67.5,-290 67.5,-290 67.5,-234 67.5,-201.2342 74.2939,-163.6134 79.0275,-141.3778"/>
<polygon fill="#191970" stroke="#191970" points="82.4649,-142.0428 81.2076,-131.5228 75.6302,-140.5307 82.4649,-142.0428"/>
</g>
<!-- Node13 -->
<g id="node14" class="node">
<title>Node13</title>
<g id="a_node14"><a xlink:href="MatrixDynSize_8h.html" target="_top" xlink:title="iDynTree/Core/MatrixDynSize.h">
<polygon fill="none" stroke="#000000" points="95,-280.5 95,-299.5 262,-299.5 262,-280.5 95,-280.5"/>
<text text-anchor="middle" x="178.5" y="-287.5" font-family="FreeSans.ttf" font-size="10.00" fill="#000000">iDynTree/Core/MatrixDynSize.h</text>
</a>
</g>
</g>
<!-- Node0&#45;&gt;Node13 -->
<g id="edge13" class="edge">
<title>Node0&#45;&gt;Node13</title>
<path fill="none" stroke="#191970" d="M178.5,-392.4509C178.5,-374.184 178.5,-333.9553 178.5,-309.6976"/>
<polygon fill="#191970" stroke="#191970" points="182.0001,-309.5249 178.5,-299.5249 175.0001,-309.5249 182.0001,-309.5249"/>
</g>
<!-- Node14 -->
<g id="node15" class="node">
<title>Node14</title>
<g id="a_node15"><a xlink:href="Transform_8h.html" target="_top" xlink:title="iDynTree/Core/Transform.h">
<polygon fill="none" stroke="#000000" points="371.5,-336.5 371.5,-355.5 517.5,-355.5 517.5,-336.5 371.5,-336.5"/>
<text text-anchor="middle" x="444.5" y="-343.5" font-family="FreeSans.ttf" font-size="10.00" fill="#000000">iDynTree/Core/Transform.h</text>
</a>
</g>
</g>
<!-- Node0&#45;&gt;Node14 -->
<g id="edge15" class="edge">
<title>Node0&#45;&gt;Node14</title>
<path fill="none" stroke="#191970" d="M223.9248,-392.4369C269.7355,-382.7925 340.4998,-367.8948 389.4675,-357.5858"/>
<polygon fill="#191970" stroke="#191970" points="390.1981,-361.0088 399.2626,-355.5237 388.756,-354.1589 390.1981,-361.0088"/>
</g>
<!-- Node2 -->
<g id="node3" class="node">
<title>Node2</title>
<g id="a_node3"><a xlink:href="Span_8h.html" target="_top" xlink:title="iDynTree/Core/Span.h">
<polygon fill="none" stroke="#000000" points="281,-56.5 281,-75.5 402,-75.5 402,-56.5 281,-56.5"/>
<text text-anchor="middle" x="341.5" y="-63.5" font-family="FreeSans.ttf" font-size="10.00" fill="#000000">iDynTree/Core/Span.h</text>
</a>
</g>
</g>
<!-- Node1&#45;&gt;Node2 -->
<g id="edge2" class="edge">
<title>Node1&#45;&gt;Node2</title>
<path fill="none" stroke="#191970" d="M127.5586,-112.4369C171.8989,-102.8127 240.3411,-87.957 287.8249,-77.6504"/>
<polygon fill="#191970" stroke="#191970" points="288.5931,-81.0653 297.6231,-75.5237 287.1082,-74.2245 288.5931,-81.0653"/>
</g>
<!-- Node12 -->
<g id="node13" class="node">
<title>Node12</title>
<polygon fill="none" stroke="#bfbfbf" points="420.5,-56.5 420.5,-75.5 464.5,-75.5 464.5,-56.5 420.5,-56.5"/>
<text text-anchor="middle" x="442.5" y="-63.5" font-family="FreeSans.ttf" font-size="10.00" fill="#000000">string</text>
</g>
<!-- Node1&#45;&gt;Node12 -->
<g id="edge12" class="edge">
<title>Node1&#45;&gt;Node12</title>
<path fill="none" stroke="#191970" d="M161.7008,-112.492C242.9645,-102.3444 364.5663,-86.3354 410.5,-76 410.5994,-75.9776 410.6989,-75.9551 410.7985,-75.9324"/>
<polygon fill="#191970" stroke="#191970" points="411.4563,-79.3782 420.2465,-73.4637 409.6865,-72.6056 411.4563,-79.3782"/>
</g>
<!-- Node3 -->
<g id="node4" class="node">
<title>Node3</title>
<polygon fill="none" stroke="#bfbfbf" points="604.5,-.5 604.5,-19.5 656.5,-19.5 656.5,-.5 604.5,-.5"/>
<text text-anchor="middle" x="630.5" y="-7.5" font-family="FreeSans.ttf" font-size="10.00" fill="#000000">cassert</text>
</g>
<!-- Node2&#45;&gt;Node3 -->
<g id="edge3" class="edge">
<title>Node2&#45;&gt;Node3</title>
<path fill="none" stroke="#191970" d="M390.8525,-56.4369C448.618,-45.2436 542.9023,-26.9739 594.2997,-17.0146"/>
<polygon fill="#191970" stroke="#191970" points="595.1344,-20.418 604.286,-15.0795 593.8027,-13.5459 595.1344,-20.418"/>
</g>
<!-- Node4 -->
<g id="node5" class="node">
<title>Node4</title>
<polygon fill="none" stroke="#bfbfbf" points="239.5,-.5 239.5,-19.5 303.5,-19.5 303.5,-.5 239.5,-.5"/>
<text text-anchor="middle" x="271.5" y="-7.5" font-family="FreeSans.ttf" font-size="10.00" fill="#000000">algorithm</text>
</g>
<!-- Node2&#45;&gt;Node4 -->
<g id="edge4" class="edge">
<title>Node2&#45;&gt;Node4</title>
<path fill="none" stroke="#191970" d="M329.3069,-56.2455C318.8679,-47.8943 303.6345,-35.7076 291.426,-25.9408"/>
<polygon fill="#191970" stroke="#191970" points="293.5485,-23.1566 283.5533,-19.6427 289.1756,-28.6227 293.5485,-23.1566"/>
</g>
<!-- Node5 -->
<g id="node6" class="node">
<title>Node5</title>
<polygon fill="none" stroke="#bfbfbf" points="321.5,-.5 321.5,-19.5 363.5,-19.5 363.5,-.5 321.5,-.5"/>
<text text-anchor="middle" x="342.5" y="-7.5" font-family="FreeSans.ttf" font-size="10.00" fill="#000000">array</text>
</g>
<!-- Node2&#45;&gt;Node5 -->
<g id="edge5" class="edge">
<title>Node2&#45;&gt;Node5</title>
<path fill="none" stroke="#191970" d="M341.6742,-56.2455C341.8047,-48.9382 341.9876,-38.6944 342.1481,-29.7046"/>
<polygon fill="#191970" stroke="#191970" points="345.6486,-29.7036 342.3278,-19.6427 338.6497,-29.5786 345.6486,-29.7036"/>
</g>
<!-- Node6 -->
<g id="node7" class="node">
<title>Node6</title>
<polygon fill="none" stroke="#bfbfbf" points="516,-.5 516,-19.5 569,-19.5 569,-.5 516,-.5"/>
<text text-anchor="middle" x="542.5" y="-7.5" font-family="FreeSans.ttf" font-size="10.00" fill="#000000">cstddef</text>
</g>
<!-- Node2&#45;&gt;Node6 -->
<g id="edge6" class="edge">
<title>Node2&#45;&gt;Node6</title>
<path fill="none" stroke="#191970" d="M376.0531,-56.3733C412.2702,-46.2829 468.9444,-30.4931 505.9077,-20.1949"/>
<polygon fill="#191970" stroke="#191970" points="507.0834,-23.5007 515.7771,-17.4452 505.2046,-16.7575 507.0834,-23.5007"/>
</g>
<!-- Node7 -->
<g id="node8" class="node">
<title>Node7</title>
<polygon fill="none" stroke="#bfbfbf" points="382,-.5 382,-19.5 435,-19.5 435,-.5 382,-.5"/>
<text text-anchor="middle" x="408.5" y="-7.5" font-family="FreeSans.ttf" font-size="10.00" fill="#000000">iterator</text>
</g>
<!-- Node2&#45;&gt;Node7 -->
<g id="edge7" class="edge">
<title>Node2&#45;&gt;Node7</title>
<path fill="none" stroke="#191970" d="M353.1705,-56.2455C363.0661,-47.9746 377.4627,-35.9416 389.0901,-26.2232"/>
<polygon fill="#191970" stroke="#191970" points="391.535,-28.7413 396.9632,-19.6427 387.0458,-23.3703 391.535,-28.7413"/>
</g>
<!-- Node8 -->
<g id="node9" class="node">
<title>Node8</title>
<polygon fill="none" stroke="#bfbfbf" points="453.5,-.5 453.5,-19.5 497.5,-19.5 497.5,-.5 453.5,-.5"/>
<text text-anchor="middle" x="475.5" y="-7.5" font-family="FreeSans.ttf" font-size="10.00" fill="#000000">limits</text>
</g>
<!-- Node2&#45;&gt;Node8 -->
<g id="edge8" class="edge">
<title>Node2&#45;&gt;Node8</title>
<path fill="none" stroke="#191970" d="M364.5354,-56.3733C386.3704,-47.2482 419.3589,-33.462 443.6957,-23.2913"/>
<polygon fill="#191970" stroke="#191970" points="445.3333,-26.4004 453.2104,-19.315 442.6341,-19.9417 445.3333,-26.4004"/>
</g>
<!-- Node9 -->
<g id="node10" class="node">
<title>Node9</title>
<polygon fill="none" stroke="#bfbfbf" points="6,-.5 6,-19.5 71,-19.5 71,-.5 6,-.5"/>
<text text-anchor="middle" x="38.5" y="-7.5" font-family="FreeSans.ttf" font-size="10.00" fill="#000000">stdexcept</text>
</g>
<!-- Node2&#45;&gt;Node9 -->
<g id="edge9" class="edge">
<title>Node2&#45;&gt;Node9</title>
<path fill="none" stroke="#191970" d="M280.9289,-56.5196C229.9756,-48.2817 154.987,-35.5465 81.0764,-20.2396"/>
<polygon fill="#191970" stroke="#191970" points="81.6342,-16.7806 71.1299,-18.1624 80.2032,-23.6328 81.6342,-16.7806"/>
</g>
<!-- Node10 -->
<g id="node11" class="node">
<title>Node10</title>
<polygon fill="none" stroke="#bfbfbf" points="89,-.5 89,-19.5 158,-19.5 158,-.5 89,-.5"/>
<text text-anchor="middle" x="123.5" y="-7.5" font-family="FreeSans.ttf" font-size="10.00" fill="#000000">type_traits</text>
</g>
<!-- Node2&#45;&gt;Node10 -->
<g id="edge10" class="edge">
<title>Node2&#45;&gt;Node10</title>
<path fill="none" stroke="#191970" d="M304.0245,-56.3733C266.3164,-46.6868 208.1614,-31.7479 168.1007,-21.4571"/>
<polygon fill="#191970" stroke="#191970" points="168.8854,-18.0451 158.3291,-18.9469 167.1438,-24.825 168.8854,-18.0451"/>
</g>
<!-- Node11 -->
<g id="node12" class="node">
<title>Node11</title>
<polygon fill="none" stroke="#bfbfbf" points="176,-.5 176,-19.5 221,-19.5 221,-.5 176,-.5"/>
<text text-anchor="middle" x="198.5" y="-7.5" font-family="FreeSans.ttf" font-size="10.00" fill="#000000">utility</text>
</g>
<!-- Node2&#45;&gt;Node11 -->
<g id="edge11" class="edge">
<title>Node2&#45;&gt;Node11</title>
<path fill="none" stroke="#191970" d="M316.9174,-56.3733C293.1256,-47.0562 256.9248,-32.8797 230.8132,-22.6541"/>
<polygon fill="#191970" stroke="#191970" points="231.9343,-19.3344 221.3466,-18.9469 229.3818,-25.8524 231.9343,-19.3344"/>
</g>
<!-- Node13&#45;&gt;Node12 -->
<g id="edge14" class="edge">
<title>Node13&#45;&gt;Node12</title>
<path fill="none" stroke="#191970" d="M181.5738,-280.136C191.7909,-249.176 227.8057,-153.5281 294.5,-112 340.3241,-83.467 358.9602,-92.0506 410.5,-76 410.6007,-75.9686 410.7016,-75.9372 410.8027,-75.9057"/>
<polygon fill="#191970" stroke="#191970" points="411.9635,-79.21 420.4679,-72.8913 409.8793,-72.5275 411.9635,-79.21"/>
</g>
<!-- Node14&#45;&gt;Node12 -->
<g id="edge44" class="edge">
<title>Node14&#45;&gt;Node12</title>
<path fill="none" stroke="#191970" d="M444.5,-336.4116C444.5,-317.0538 444.5,-271.9167 444.5,-234 444.5,-234 444.5,-234 444.5,-178 444.5,-145.7064 443.6585,-108.1836 443.0672,-85.8029"/>
<polygon fill="#191970" stroke="#191970" points="446.5599,-85.4874 442.7866,-75.5873 439.5626,-85.6797 446.5599,-85.4874"/>
</g>
<!-- Node15 -->
<g id="node16" class="node">
<title>Node15</title>
<g id="a_node16"><a xlink:href="Position_8h.html" target="_top" xlink:title="iDynTree/Core/Position.h">
<polygon fill="none" stroke="#000000" points="280.5,-280.5 280.5,-299.5 416.5,-299.5 416.5,-280.5 280.5,-280.5"/>
<text text-anchor="middle" x="348.5" y="-287.5" font-family="FreeSans.ttf" font-size="10.00" fill="#000000">iDynTree/Core/Position.h</text>
</a>
</g>
</g>
<!-- Node14&#45;&gt;Node15 -->
<g id="edge16" class="edge">
<title>Node14&#45;&gt;Node15</title>
<path fill="none" stroke="#191970" d="M427.7781,-336.2455C412.9111,-327.5731 390.9534,-314.7645 373.9142,-304.825"/>
<polygon fill="#191970" stroke="#191970" points="375.4317,-301.6582 365.0303,-299.6427 371.9045,-307.7047 375.4317,-301.6582"/>
</g>
<!-- Node21 -->
<g id="node22" class="node">
<title>Node21</title>
<g id="a_node22"><a xlink:href="Rotation_8h.html" target="_top" xlink:title="iDynTree/Core/Rotation.h">
<polygon fill="none" stroke="#000000" points="497,-224.5 497,-243.5 634,-243.5 634,-224.5 497,-224.5"/>
<text text-anchor="middle" x="565.5" y="-231.5" font-family="FreeSans.ttf" font-size="10.00" fill="#000000">iDynTree/Core/Rotation.h</text>
</a>
</g>
</g>
<!-- Node14&#45;&gt;Node21 -->
<g id="edge42" class="edge">
<title>Node14&#45;&gt;Node21</title>
<path fill="none" stroke="#191970" d="M454.8164,-336.4509C475.4442,-317.3574 521.9943,-274.2697 547.6672,-250.5063"/>
<polygon fill="#191970" stroke="#191970" points="550.2485,-252.8864 555.2097,-243.5249 545.4935,-247.7492 550.2485,-252.8864"/>
</g>
<!-- Node24 -->
<g id="node25" class="node">
<title>Node24</title>
<g id="a_node25"><a xlink:href="MatrixFixSize_8h.html" target="_top" xlink:title="iDynTree/Core/MatrixFixSize.h">
<polygon fill="none" stroke="#000000" points="728,-112.5 728,-131.5 889,-131.5 889,-112.5 728,-112.5"/>
<text text-anchor="middle" x="808.5" y="-119.5" font-family="FreeSans.ttf" font-size="10.00" fill="#000000">iDynTree/Core/MatrixFixSize.h</text>
</a>
</g>
</g>
<!-- Node14&#45;&gt;Node24 -->
<g id="edge43" class="edge">
<title>Node14&#45;&gt;Node24</title>
<path fill="none" stroke="#191970" d="M488.9074,-336.432C589.4978,-313.7658 829.5786,-253.7441 875.5,-188 889.5319,-167.911 864.085,-148.6931 840.6252,-136.2292"/>
<polygon fill="#191970" stroke="#191970" points="841.9917,-132.9989 831.4848,-131.6365 838.8488,-139.2537 841.9917,-132.9989"/>
</g>
<!-- Node15&#45;&gt;Node12 -->
<g id="edge41" class="edge">
<title>Node15&#45;&gt;Node12</title>
<path fill="none" stroke="#191970" d="M330.2497,-280.381C295.2112,-260.594 224.2949,-213.3697 251.5,-168 269.4052,-138.1395 361.4019,-98.0874 410.892,-78.227"/>
<polygon fill="#191970" stroke="#191970" points="412.4756,-81.364 420.4773,-74.4197 409.8916,-74.8584 412.4756,-81.364"/>
</g>
<!-- Node16 -->
<g id="node17" class="node">
<title>Node16</title>
<g id="a_node17"><a xlink:href="PositionRaw_8h.html" target="_top" xlink:title="iDynTree/Core/PositionRaw.h">
<polygon fill="none" stroke="#000000" points="260.5,-168.5 260.5,-187.5 416.5,-187.5 416.5,-168.5 260.5,-168.5"/>
<text text-anchor="middle" x="338.5" y="-175.5" font-family="FreeSans.ttf" font-size="10.00" fill="#000000">iDynTree/Core/PositionRaw.h</text>
</a>
</g>
</g>
<!-- Node15&#45;&gt;Node16 -->
<g id="edge17" class="edge">
<title>Node15&#45;&gt;Node16</title>
<path fill="none" stroke="#191970" d="M347.6474,-280.4509C346.0164,-262.184 342.4246,-221.9553 340.2587,-197.6976"/>
<polygon fill="#191970" stroke="#191970" points="343.726,-197.174 339.3504,-187.5249 336.7537,-197.7966 343.726,-197.174"/>
</g>
<!-- Node15&#45;&gt;Node21 -->
<g id="edge27" class="edge">
<title>Node15&#45;&gt;Node21</title>
<path fill="none" stroke="#191970" d="M385.8036,-280.3733C422.6685,-270.8598 479.166,-256.2797 518.9506,-246.0127"/>
<polygon fill="#191970" stroke="#191970" points="519.875,-249.3889 528.6831,-243.5011 518.1258,-242.611 519.875,-249.3889"/>
</g>
<!-- Node16&#45;&gt;Node12 -->
<g id="edge26" class="edge">
<title>Node16&#45;&gt;Node12</title>
<path fill="none" stroke="#191970" d="M347.367,-168.4509C364.9432,-149.5227 404.4155,-107.014 426.5955,-83.1279"/>
<polygon fill="#191970" stroke="#191970" points="429.4157,-85.2344 433.6555,-75.5249 424.2861,-80.4713 429.4157,-85.2344"/>
</g>
<!-- Node17 -->
<g id="node18" class="node">
<title>Node17</title>
<g id="a_node18"><a xlink:href="VectorFixSize_8h.html" target="_top" xlink:title="iDynTree/Core/VectorFixSize.h">
<polygon fill="none" stroke="#000000" points="549,-112.5 549,-131.5 710,-131.5 710,-112.5 549,-112.5"/>
<text text-anchor="middle" x="629.5" y="-119.5" font-family="FreeSans.ttf" font-size="10.00" fill="#000000">iDynTree/Core/VectorFixSize.h</text>
</a>
</g>
</g>
<!-- Node16&#45;&gt;Node17 -->
<g id="edge18" class="edge">
<title>Node16&#45;&gt;Node17</title>
<path fill="none" stroke="#191970" d="M388.194,-168.4369C438.5196,-158.7522 516.3723,-143.7703 569.9651,-133.4569"/>
<polygon fill="#191970" stroke="#191970" points="570.8525,-136.8504 580.0109,-131.5237 569.5297,-129.9765 570.8525,-136.8504"/>
</g>
<!-- Node17&#45;&gt;Node2 -->
<g id="edge21" class="edge">
<title>Node17&#45;&gt;Node2</title>
<path fill="none" stroke="#191970" d="M580.3183,-112.4369C530.5116,-102.7522 453.4615,-87.7703 400.4212,-77.4569"/>
<polygon fill="#191970" stroke="#191970" points="400.9631,-73.9968 390.4789,-75.5237 399.627,-80.8681 400.9631,-73.9968"/>
</g>
<!-- Node17&#45;&gt;Node3 -->
<g id="edge24" class="edge">
<title>Node17&#45;&gt;Node3</title>
<path fill="none" stroke="#191970" d="M629.5853,-112.4509C629.7484,-94.184 630.1075,-53.9553 630.3241,-29.6976"/>
<polygon fill="#191970" stroke="#191970" points="633.8254,-29.5558 630.415,-19.5249 626.8257,-29.4932 633.8254,-29.5558"/>
</g>
<!-- Node17&#45;&gt;Node12 -->
<g id="edge22" class="edge">
<title>Node17&#45;&gt;Node12</title>
<path fill="none" stroke="#191970" d="M596.2561,-112.4614C566.662,-103.9116 521.9556,-90.8539 474.6416,-76.3048"/>
<polygon fill="#191970" stroke="#191970" points="475.4171,-72.8814 464.8297,-73.2776 473.3534,-79.5702 475.4171,-72.8814"/>
</g>
<!-- Node18 -->
<g id="node19" class="node">
<title>Node18</title>
<g id="a_node19"><a xlink:href="Utils_8h.html" target="_top" xlink:title="iDynTree/Core/Utils.h">
<polygon fill="none" stroke="#000000" points="483,-56.5 483,-75.5 602,-75.5 602,-56.5 483,-56.5"/>
<text text-anchor="middle" x="542.5" y="-63.5" font-family="FreeSans.ttf" font-size="10.00" fill="#000000">iDynTree/Core/Utils.h</text>
</a>
</g>
</g>
<!-- Node17&#45;&gt;Node18 -->
<g id="edge19" class="edge">
<title>Node17&#45;&gt;Node18</title>
<path fill="none" stroke="#191970" d="M614.3458,-112.2455C600.9973,-103.6534 581.3414,-91.0014 565.9617,-81.1018"/>
<polygon fill="#191970" stroke="#191970" points="567.7836,-78.1121 557.4806,-75.6427 563.9949,-83.9982 567.7836,-78.1121"/>
</g>
<!-- Node19 -->
<g id="node20" class="node">
<title>Node19</title>
<polygon fill="none" stroke="#bfbfbf" points="658.5,-56.5 658.5,-75.5 714.5,-75.5 714.5,-56.5 658.5,-56.5"/>
<text text-anchor="middle" x="686.5" y="-63.5" font-family="FreeSans.ttf" font-size="10.00" fill="#000000">sstream</text>
</g>
<!-- Node17&#45;&gt;Node19 -->
<g id="edge23" class="edge">
<title>Node17&#45;&gt;Node19</title>
<path fill="none" stroke="#191970" d="M639.4286,-112.2455C647.6838,-104.1352 659.6209,-92.4075 669.4082,-82.7919"/>
<polygon fill="#191970" stroke="#191970" points="672.0046,-85.1476 676.6851,-75.6427 667.0989,-80.1542 672.0046,-85.1476"/>
</g>
<!-- Node20 -->
<g id="node21" class="node">
<title>Node20</title>
<polygon fill="none" stroke="#bfbfbf" points="732.5,-56.5 732.5,-75.5 782.5,-75.5 782.5,-56.5 732.5,-56.5"/>
<text text-anchor="middle" x="757.5" y="-63.5" font-family="FreeSans.ttf" font-size="10.00" fill="#000000">cstring</text>
</g>
<!-- Node17&#45;&gt;Node20 -->
<g id="edge25" class="edge">
<title>Node17&#45;&gt;Node20</title>
<path fill="none" stroke="#191970" d="M651.504,-112.3733C672.1435,-103.3435 703.2158,-89.7494 726.3889,-79.6111"/>
<polygon fill="#191970" stroke="#191970" points="728.0245,-82.7159 735.7831,-75.5011 725.2187,-76.3028 728.0245,-82.7159"/>
</g>
<!-- Node18&#45;&gt;Node6 -->
<g id="edge20" class="edge">
<title>Node18&#45;&gt;Node6</title>
<path fill="none" stroke="#191970" d="M542.5,-56.2455C542.5,-48.9382 542.5,-38.6944 542.5,-29.7046"/>
<polygon fill="#191970" stroke="#191970" points="546.0001,-29.6426 542.5,-19.6427 539.0001,-29.6427 546.0001,-29.6426"/>
</g>
<!-- Node21&#45;&gt;Node12 -->
<g id="edge28" class="edge">
<title>Node21&#45;&gt;Node12</title>
<path fill="none" stroke="#191970" d="M547.612,-224.4575C533.6244,-216.2791 514.4431,-203.3971 501.5,-188 487.4836,-171.3261 462.876,-114.945 450.3318,-85.0216"/>
<polygon fill="#191970" stroke="#191970" points="453.506,-83.5392 446.435,-75.6492 447.0424,-86.2266 453.506,-83.5392"/>
</g>
<!-- Node21&#45;&gt;Node17 -->
<g id="edge40" class="edge">
<title>Node21&#45;&gt;Node17</title>
<path fill="none" stroke="#191970" d="M634.307,-227.9137C716.5616,-219.9289 845.0147,-204.9279 859.5,-188 865.2792,-181.2463 865.1355,-174.8742 859.5,-168 849.8095,-156.1795 772.3724,-142.4016 709.9874,-133.0281"/>
<polygon fill="#191970" stroke="#191970" points="710.1282,-129.5108 699.7227,-131.5047 709.1005,-136.4349 710.1282,-129.5108"/>
</g>
<!-- Node22 -->
<g id="node23" class="node">
<title>Node22</title>
<g id="a_node23"><a xlink:href="GeomVector3_8h.html" target="_top" xlink:title="iDynTree/Core/GeomVector3.h">
<polygon fill="none" stroke="#000000" points="687,-168.5 687,-187.5 850,-187.5 850,-168.5 687,-168.5"/>
<text text-anchor="middle" x="768.5" y="-175.5" font-family="FreeSans.ttf" font-size="10.00" fill="#000000">iDynTree/Core/GeomVector3.h</text>
</a>
</g>
</g>
<!-- Node21&#45;&gt;Node22 -->
<g id="edge29" class="edge">
<title>Node21&#45;&gt;Node22</title>
<path fill="none" stroke="#191970" d="M600.3969,-224.3733C634.5911,-214.9404 686.8415,-200.5265 724.0042,-190.2747"/>
<polygon fill="#191970" stroke="#191970" points="725.3493,-193.5345 734.0584,-187.5011 723.4877,-186.7865 725.3493,-193.5345"/>
</g>
<!-- Node23 -->
<g id="node24" class="node">
<title>Node23</title>
<g id="a_node24"><a xlink:href="RotationRaw_8h.html" target="_top" xlink:title="iDynTree/Core/RotationRaw.h">
<polygon fill="none" stroke="#000000" points="510.5,-168.5 510.5,-187.5 668.5,-187.5 668.5,-168.5 510.5,-168.5"/>
<text text-anchor="middle" x="589.5" y="-175.5" font-family="FreeSans.ttf" font-size="10.00" fill="#000000">iDynTree/Core/RotationRaw.h</text>
</a>
</g>
</g>
<!-- Node21&#45;&gt;Node23 -->
<g id="edge31" class="edge">
<title>Node21&#45;&gt;Node23</title>
<path fill="none" stroke="#191970" d="M569.6805,-224.2455C572.881,-216.7776 577.396,-206.2427 581.3084,-197.1137"/>
<polygon fill="#191970" stroke="#191970" points="584.6452,-198.2129 585.3674,-187.6427 578.2112,-195.4554 584.6452,-198.2129"/>
</g>
<!-- Node22&#45;&gt;Node17 -->
<g id="edge30" class="edge">
<title>Node22&#45;&gt;Node17</title>
<path fill="none" stroke="#191970" d="M744.605,-168.3733C721.9918,-159.2629 687.8458,-145.5062 662.6127,-135.3404"/>
<polygon fill="#191970" stroke="#191970" points="663.6666,-131.9917 653.0831,-131.5011 661.0507,-138.4845 663.6666,-131.9917"/>
</g>
<!-- Node23&#45;&gt;Node12 -->
<g id="edge39" class="edge">
<title>Node23&#45;&gt;Node12</title>
<path fill="none" stroke="#191970" d="M576.9669,-168.4509C551.5811,-149.1094 493.8798,-105.1465 462.9624,-81.5904"/>
<polygon fill="#191970" stroke="#191970" points="465.0769,-78.8013 455.0014,-75.5249 460.8346,-84.3694 465.0769,-78.8013"/>
</g>
<!-- Node23&#45;&gt;Node24 -->
<g id="edge32" class="edge">
<title>Node23&#45;&gt;Node24</title>
<path fill="none" stroke="#191970" d="M627.1474,-168.3733C664.352,-158.8598 721.3703,-144.2797 761.5216,-134.0127"/>
<polygon fill="#191970" stroke="#191970" points="762.5227,-137.3695 771.3438,-131.5011 760.7884,-130.5877 762.5227,-137.3695"/>
</g>
<!-- Node24&#45;&gt;Node3 -->
<g id="edge34" class="edge">
<title>Node24&#45;&gt;Node3</title>
<path fill="none" stroke="#191970" d="M828.5877,-112.4664C852.3947,-99.9004 886.7881,-76.9328 869.5,-56 844.2437,-25.4191 727.5067,-14.9525 667.0389,-11.5449"/>
<polygon fill="#191970" stroke="#191970" points="666.9581,-8.0359 656.7877,-11.0046 666.5896,-15.0262 666.9581,-8.0359"/>
</g>
<!-- Node24&#45;&gt;Node12 -->
<g id="edge36" class="edge">
<title>Node24&#45;&gt;Node12</title>
<path fill="none" stroke="#191970" d="M727.9851,-112.5949C649.4337,-103.1402 534.3806,-88.4836 474.8276,-75.9224"/>
<polygon fill="#191970" stroke="#191970" points="475.241,-72.4292 464.7208,-73.6841 473.7274,-79.2636 475.241,-72.4292"/>
</g>
<!-- Node24&#45;&gt;Node18 -->
<g id="edge33" class="edge">
<title>Node24&#45;&gt;Node18</title>
<path fill="none" stroke="#191970" d="M763.0752,-112.4369C717.2645,-102.7925 646.5002,-87.8948 597.5325,-77.5858"/>
<polygon fill="#191970" stroke="#191970" points="598.244,-74.1589 587.7374,-75.5237 596.8019,-81.0088 598.244,-74.1589"/>
</g>
<!-- Node24&#45;&gt;Node19 -->
<g id="edge38" class="edge">
<title>Node24&#45;&gt;Node19</title>
<path fill="none" stroke="#191970" d="M787.5275,-112.3733C767.9433,-103.3838 738.5039,-89.8706 716.449,-79.7471"/>
<polygon fill="#191970" stroke="#191970" points="717.7473,-76.4919 707.1989,-75.5011 714.8271,-82.8538 717.7473,-76.4919"/>
</g>
<!-- Node24&#45;&gt;Node20 -->
<g id="edge35" class="edge">
<title>Node24&#45;&gt;Node20</title>
<path fill="none" stroke="#191970" d="M799.6165,-112.2455C792.3034,-104.2155 781.7609,-92.6394 773.0533,-83.0781"/>
<polygon fill="#191970" stroke="#191970" points="775.6028,-80.6795 766.2817,-75.6427 770.4273,-85.3928 775.6028,-80.6795"/>
</g>
<!-- Node25 -->
<g id="node26" class="node">
<title>Node25</title>
<polygon fill="none" stroke="#bfbfbf" points="800.5,-56.5 800.5,-75.5 860.5,-75.5 860.5,-56.5 800.5,-56.5"/>
<text text-anchor="middle" x="830.5" y="-63.5" font-family="FreeSans.ttf" font-size="10.00" fill="#000000">iostream</text>
</g>
<!-- Node24&#45;&gt;Node25 -->
<g id="edge37" class="edge">
<title>Node24&#45;&gt;Node25</title>
<path fill="none" stroke="#191970" d="M812.3321,-112.2455C815.2659,-104.7776 819.4047,-94.2427 822.991,-85.1137"/>
<polygon fill="#191970" stroke="#191970" points="826.3129,-86.23 826.7118,-75.6427 819.7976,-83.6704 826.3129,-86.23"/>
</g>
</g>
</svg>
