<?xml version="1.0" encoding="UTF-8" standalone="no"?>
<!DOCTYPE svg PUBLIC "-//W3C//DTD SVG 1.1//EN"
 "http://www.w3.org/Graphics/SVG/1.1/DTD/svg11.dtd">
<!-- Generated by graphviz version 2.40.1 (20161225.0304)
 -->
<!-- Title: TransformConstraint.h Pages: 1 -->
<svg width="1148pt" height="532pt"
 viewBox="0.00 0.00 1148.00 532.00" xmlns="http://www.w3.org/2000/svg" xmlns:xlink="http://www.w3.org/1999/xlink">
<g id="graph0" class="graph" transform="scale(1 1) rotate(0) translate(4 528)">
<title>TransformConstraint.h</title>
<!-- Node0 -->
<g id="node1" class="node">
<title>Node0</title>
<polygon fill="#bfbfbf" stroke="#000000" points="599.5,-504.5 599.5,-523.5 724.5,-523.5 724.5,-504.5 599.5,-504.5"/>
<text text-anchor="middle" x="662" y="-511.5" font-family="FreeSans.ttf" font-size="10.00" fill="#000000">TransformConstraint.h</text>
</g>
<!-- Node1 -->
<g id="node2" class="node">
<title>Node1</title>
<g id="a_node2"><a xlink:href="Transform_8h.html" target="_top" xlink:title="iDynTree/Core/Transform.h">
<polygon fill="none" stroke="#000000" points="569,-336.5 569,-355.5 715,-355.5 715,-336.5 569,-336.5"/>
<text text-anchor="middle" x="642" y="-343.5" font-family="FreeSans.ttf" font-size="10.00" fill="#000000">iDynTree/Core/Transform.h</text>
</a>
</g>
</g>
<!-- Node0&#45;&gt;Node1 -->
<g id="edge1" class="edge">
<title>Node0&#45;&gt;Node1</title>
<path fill="none" stroke="#191970" d="M660.8674,-504.4862C657.7059,-477.9293 648.7339,-402.5651 644.4007,-366.1655"/>
<polygon fill="#191970" stroke="#191970" points="647.8277,-365.344 643.17,-355.8279 640.8767,-366.1715 647.8277,-365.344"/>
</g>
<!-- Node24 -->
<g id="node25" class="node">
<title>Node24</title>
<g id="a_node25"><a xlink:href="InverseKinematics_8h.html" target="_top" xlink:title="iDynTree/InverseKinematics.h">
<polygon fill="none" stroke="#000000" points="769,-448.5 769,-467.5 931,-467.5 931,-448.5 769,-448.5"/>
<text text-anchor="middle" x="850" y="-455.5" font-family="FreeSans.ttf" font-size="10.00" fill="#000000">iDynTree/InverseKinematics.h</text>
</a>
</g>
</g>
<!-- Node0&#45;&gt;Node24 -->
<g id="edge40" class="edge">
<title>Node0&#45;&gt;Node24</title>
<path fill="none" stroke="#191970" d="M694.3184,-504.3733C725.8506,-494.9807 773.9621,-480.6496 808.3501,-470.4064"/>
<polygon fill="#191970" stroke="#191970" points="809.5187,-473.7103 818.1034,-467.5011 807.5203,-467.0016 809.5187,-473.7103"/>
</g>
<!-- Node2 -->
<g id="node3" class="node">
<title>Node2</title>
<g id="a_node3"><a xlink:href="Position_8h.html" target="_top" xlink:title="iDynTree/Core/Position.h">
<polygon fill="none" stroke="#000000" points="754,-280.5 754,-299.5 890,-299.5 890,-280.5 754,-280.5"/>
<text text-anchor="middle" x="822" y="-287.5" font-family="FreeSans.ttf" font-size="10.00" fill="#000000">iDynTree/Core/Position.h</text>
</a>
</g>
</g>
<!-- Node1&#45;&gt;Node2 -->
<g id="edge2" class="edge">
<title>Node1&#45;&gt;Node2</title>
<path fill="none" stroke="#191970" d="M672.9431,-336.3733C703.0039,-327.021 748.8026,-312.7725 781.6978,-302.5385"/>
<polygon fill="#191970" stroke="#191970" points="782.9519,-305.8139 791.4607,-299.5011 780.8723,-299.1299 782.9519,-305.8139"/>
</g>
<!-- Node16 -->
<g id="node17" class="node">
<title>Node16</title>
<polygon fill="none" stroke="#bfbfbf" points="675,-56.5 675,-75.5 719,-75.5 719,-56.5 675,-56.5"/>
<text text-anchor="middle" x="697" y="-63.5" font-family="FreeSans.ttf" font-size="10.00" fill="#000000">string</text>
</g>
<!-- Node1&#45;&gt;Node16 -->
<g id="edge39" class="edge">
<title>Node1&#45;&gt;Node16</title>
<path fill="none" stroke="#191970" d="M644.2624,-336.227C651.2184,-305.9853 672.6843,-211.2031 687,-132 689.774,-116.6523 692.395,-99.2015 694.2573,-86.1003"/>
<polygon fill="#191970" stroke="#191970" points="697.7693,-86.2563 695.6833,-75.8689 690.8363,-85.29 697.7693,-86.2563"/>
</g>
<!-- Node19 -->
<g id="node20" class="node">
<title>Node19</title>
<g id="a_node20"><a xlink:href="Rotation_8h.html" target="_top" xlink:title="iDynTree/Core/Rotation.h">
<polygon fill="none" stroke="#000000" points="340.5,-224.5 340.5,-243.5 477.5,-243.5 477.5,-224.5 340.5,-224.5"/>
<text text-anchor="middle" x="409" y="-231.5" font-family="FreeSans.ttf" font-size="10.00" fill="#000000">iDynTree/Core/Rotation.h</text>
</a>
</g>
</g>
<!-- Node1&#45;&gt;Node19 -->
<g id="edge37" class="edge">
<title>Node1&#45;&gt;Node19</title>
<path fill="none" stroke="#191970" d="M622.1346,-336.4509C580.9515,-316.6548 486.1111,-271.0663 438.0496,-247.9638"/>
<polygon fill="#191970" stroke="#191970" points="439.3443,-244.7028 428.8152,-243.5249 436.3117,-251.0118 439.3443,-244.7028"/>
</g>
<!-- Node22 -->
<g id="node23" class="node">
<title>Node22</title>
<g id="a_node23"><a xlink:href="MatrixFixSize_8h.html" target="_top" xlink:title="iDynTree/Core/MatrixFixSize.h">
<polygon fill="none" stroke="#000000" points="11.5,-112.5 11.5,-131.5 172.5,-131.5 172.5,-112.5 11.5,-112.5"/>
<text text-anchor="middle" x="92" y="-119.5" font-family="FreeSans.ttf" font-size="10.00" fill="#000000">iDynTree/Core/MatrixFixSize.h</text>
</a>
</g>
</g>
<!-- Node1&#45;&gt;Node22 -->
<g id="edge38" class="edge">
<title>Node1&#45;&gt;Node22</title>
<path fill="none" stroke="#191970" d="M568.9791,-336.9654C427.8945,-317.8502 126.3077,-268.3526 65,-188 53.9304,-173.4917 64.5606,-153.8089 75.571,-139.7208"/>
<polygon fill="#191970" stroke="#191970" points="78.5084,-141.6672 82.2851,-131.7683 73.1597,-137.1514 78.5084,-141.6672"/>
</g>
<!-- Node3 -->
<g id="node4" class="node">
<title>Node3</title>
<g id="a_node4"><a xlink:href="PositionRaw_8h.html" target="_top" xlink:title="iDynTree/Core/PositionRaw.h">
<polygon fill="none" stroke="#000000" points="744,-168.5 744,-187.5 900,-187.5 900,-168.5 744,-168.5"/>
<text text-anchor="middle" x="822" y="-175.5" font-family="FreeSans.ttf" font-size="10.00" fill="#000000">iDynTree/Core/PositionRaw.h</text>
</a>
</g>
</g>
<!-- Node2&#45;&gt;Node3 -->
<g id="edge3" class="edge">
<title>Node2&#45;&gt;Node3</title>
<path fill="none" stroke="#191970" d="M822,-280.4509C822,-262.184 822,-221.9553 822,-197.6976"/>
<polygon fill="#191970" stroke="#191970" points="825.5001,-197.5249 822,-187.5249 818.5001,-197.5249 825.5001,-197.5249"/>
</g>
<!-- Node2&#45;&gt;Node16 -->
<g id="edge36" class="edge">
<title>Node2&#45;&gt;Node16</title>
<path fill="none" stroke="#191970" d="M838.0792,-280.4604C870.0519,-260.2451 936.2736,-211.3884 909,-168 869.2075,-104.6958 777.9146,-79.7696 729.127,-70.705"/>
<polygon fill="#191970" stroke="#191970" points="729.5641,-67.2285 719.1112,-68.957 728.3605,-74.1242 729.5641,-67.2285"/>
</g>
<!-- Node2&#45;&gt;Node19 -->
<g id="edge22" class="edge">
<title>Node2&#45;&gt;Node19</title>
<path fill="none" stroke="#191970" d="M753.8014,-280.7527C680.6769,-270.8375 564.7307,-255.116 487.7674,-244.6803"/>
<polygon fill="#191970" stroke="#191970" points="488.0237,-241.1831 477.644,-243.3077 487.0831,-248.1196 488.0237,-241.1831"/>
</g>
<!-- Node4 -->
<g id="node5" class="node">
<title>Node4</title>
<g id="a_node5"><a xlink:href="VectorFixSize_8h.html" target="_top" xlink:title="iDynTree/Core/VectorFixSize.h">
<polygon fill="none" stroke="#000000" points="190.5,-112.5 190.5,-131.5 351.5,-131.5 351.5,-112.5 190.5,-112.5"/>
<text text-anchor="middle" x="271" y="-119.5" font-family="FreeSans.ttf" font-size="10.00" fill="#000000">iDynTree/Core/VectorFixSize.h</text>
</a>
</g>
</g>
<!-- Node3&#45;&gt;Node4 -->
<g id="edge4" class="edge">
<title>Node3&#45;&gt;Node4</title>
<path fill="none" stroke="#191970" d="M743.9323,-170.0657C643.2713,-159.8352 468.5273,-142.0754 361.9655,-131.2451"/>
<polygon fill="#191970" stroke="#191970" points="362.1734,-127.7483 351.8707,-130.2192 361.4655,-134.7124 362.1734,-127.7483"/>
</g>
<!-- Node3&#45;&gt;Node16 -->
<g id="edge21" class="edge">
<title>Node3&#45;&gt;Node16</title>
<path fill="none" stroke="#191970" d="M811.3426,-168.4509C789.9406,-149.2747 741.5271,-105.8962 715.079,-82.1988"/>
<polygon fill="#191970" stroke="#191970" points="717.4138,-79.5914 707.6305,-75.5249 712.7426,-84.8048 717.4138,-79.5914"/>
</g>
<!-- Node5 -->
<g id="node6" class="node">
<title>Node5</title>
<g id="a_node6"><a xlink:href="Utils_8h.html" target="_top" xlink:title="iDynTree/Core/Utils.h">
<polygon fill="none" stroke="#000000" points="296.5,-56.5 296.5,-75.5 415.5,-75.5 415.5,-56.5 296.5,-56.5"/>
<text text-anchor="middle" x="356" y="-63.5" font-family="FreeSans.ttf" font-size="10.00" fill="#000000">iDynTree/Core/Utils.h</text>
</a>
</g>
</g>
<!-- Node4&#45;&gt;Node5 -->
<g id="edge5" class="edge">
<title>Node4&#45;&gt;Node5</title>
<path fill="none" stroke="#191970" d="M285.8059,-112.2455C298.7256,-103.7337 317.6931,-91.2375 332.6552,-81.3801"/>
<polygon fill="#191970" stroke="#191970" points="334.9387,-84.067 341.3638,-75.6427 331.0876,-78.2216 334.9387,-84.067"/>
</g>
<!-- Node7 -->
<g id="node8" class="node">
<title>Node7</title>
<g id="a_node8"><a xlink:href="Span_8h.html" target="_top" xlink:title="iDynTree/Core/Span.h">
<polygon fill="none" stroke="#000000" points="433.5,-56.5 433.5,-75.5 554.5,-75.5 554.5,-56.5 433.5,-56.5"/>
<text text-anchor="middle" x="494" y="-63.5" font-family="FreeSans.ttf" font-size="10.00" fill="#000000">iDynTree/Core/Span.h</text>
</a>
</g>
</g>
<!-- Node4&#45;&gt;Node7 -->
<g id="edge7" class="edge">
<title>Node4&#45;&gt;Node7</title>
<path fill="none" stroke="#191970" d="M309.0817,-112.4369C347.0059,-102.9133 405.3289,-88.2672 446.3126,-77.9753"/>
<polygon fill="#191970" stroke="#191970" points="447.229,-81.3539 456.0754,-75.5237 445.524,-74.5647 447.229,-81.3539"/>
</g>
<!-- Node8 -->
<g id="node9" class="node">
<title>Node8</title>
<polygon fill="none" stroke="#bfbfbf" points="197,-.5 197,-19.5 249,-19.5 249,-.5 197,-.5"/>
<text text-anchor="middle" x="223" y="-7.5" font-family="FreeSans.ttf" font-size="10.00" fill="#000000">cassert</text>
</g>
<!-- Node4&#45;&gt;Node8 -->
<g id="edge19" class="edge">
<title>Node4&#45;&gt;Node8</title>
<path fill="none" stroke="#191970" d="M268.4261,-112.3837C264.7929,-99.3368 257.6311,-75.4264 249,-56 244.8237,-46.6002 239.3181,-36.6101 234.4487,-28.3499"/>
<polygon fill="#191970" stroke="#191970" points="237.3162,-26.3281 229.1426,-19.5869 231.3283,-29.9538 237.3162,-26.3281"/>
</g>
<!-- Node4&#45;&gt;Node16 -->
<g id="edge17" class="edge">
<title>Node4&#45;&gt;Node16</title>
<path fill="none" stroke="#191970" d="M343.748,-112.4369C437.5853,-100.1015 596.7987,-79.172 664.7314,-70.2419"/>
<polygon fill="#191970" stroke="#191970" points="665.3679,-73.6884 674.8265,-68.9148 664.4555,-66.7481 665.3679,-73.6884"/>
</g>
<!-- Node17 -->
<g id="node18" class="node">
<title>Node17</title>
<polygon fill="none" stroke="#bfbfbf" points="184,-56.5 184,-75.5 240,-75.5 240,-56.5 184,-56.5"/>
<text text-anchor="middle" x="212" y="-63.5" font-family="FreeSans.ttf" font-size="10.00" fill="#000000">sstream</text>
</g>
<!-- Node4&#45;&gt;Node17 -->
<g id="edge18" class="edge">
<title>Node4&#45;&gt;Node17</title>
<path fill="none" stroke="#191970" d="M260.723,-112.2455C252.1782,-104.1352 239.8222,-92.4075 229.6915,-82.7919"/>
<polygon fill="#191970" stroke="#191970" points="231.8218,-79.9884 222.1592,-75.6427 227.0028,-85.0655 231.8218,-79.9884"/>
</g>
<!-- Node18 -->
<g id="node19" class="node">
<title>Node18</title>
<polygon fill="none" stroke="#bfbfbf" points="116,-56.5 116,-75.5 166,-75.5 166,-56.5 116,-56.5"/>
<text text-anchor="middle" x="141" y="-63.5" font-family="FreeSans.ttf" font-size="10.00" fill="#000000">cstring</text>
</g>
<!-- Node4&#45;&gt;Node18 -->
<g id="edge20" class="edge">
<title>Node4&#45;&gt;Node18</title>
<path fill="none" stroke="#191970" d="M248.6522,-112.3733C227.5967,-103.3032 195.8505,-89.6279 172.2825,-79.4755"/>
<polygon fill="#191970" stroke="#191970" points="173.625,-76.243 163.0562,-75.5011 170.8556,-82.6719 173.625,-76.243"/>
</g>
<!-- Node6 -->
<g id="node7" class="node">
<title>Node6</title>
<polygon fill="none" stroke="#bfbfbf" points="267.5,-.5 267.5,-19.5 320.5,-19.5 320.5,-.5 267.5,-.5"/>
<text text-anchor="middle" x="294" y="-7.5" font-family="FreeSans.ttf" font-size="10.00" fill="#000000">cstddef</text>
</g>
<!-- Node5&#45;&gt;Node6 -->
<g id="edge6" class="edge">
<title>Node5&#45;&gt;Node6</title>
<path fill="none" stroke="#191970" d="M345.2004,-56.2455C336.1322,-48.0549 322.9794,-36.1749 312.2755,-26.5069"/>
<polygon fill="#191970" stroke="#191970" points="314.4429,-23.7482 304.6758,-19.6427 309.7509,-28.9429 314.4429,-23.7482"/>
</g>
<!-- Node7&#45;&gt;Node6 -->
<g id="edge11" class="edge">
<title>Node7&#45;&gt;Node6</title>
<path fill="none" stroke="#191970" d="M459.5356,-56.461C428.1644,-47.7628 380.313,-34.457 330.4169,-20.3897"/>
<polygon fill="#191970" stroke="#191970" points="331.3227,-17.0087 320.748,-17.6614 329.4216,-23.7456 331.3227,-17.0087"/>
</g>
<!-- Node7&#45;&gt;Node8 -->
<g id="edge8" class="edge">
<title>Node7&#45;&gt;Node8</title>
<path fill="none" stroke="#191970" d="M437.9188,-56.4675C392.1676,-48.3733 325.6809,-35.8909 259.1268,-20.128"/>
<polygon fill="#191970" stroke="#191970" points="259.8493,-16.7022 249.3093,-17.7787 258.2201,-23.51 259.8493,-16.7022"/>
</g>
<!-- Node9 -->
<g id="node10" class="node">
<title>Node9</title>
<polygon fill="none" stroke="#bfbfbf" points="572,-.5 572,-19.5 636,-19.5 636,-.5 572,-.5"/>
<text text-anchor="middle" x="604" y="-7.5" font-family="FreeSans.ttf" font-size="10.00" fill="#000000">algorithm</text>
</g>
<!-- Node7&#45;&gt;Node9 -->
<g id="edge9" class="edge">
<title>Node7&#45;&gt;Node9</title>
<path fill="none" stroke="#191970" d="M513.1605,-56.2455C530.5111,-47.4125 556.2901,-34.2887 575.9583,-24.2758"/>
<polygon fill="#191970" stroke="#191970" points="577.7353,-27.2986 585.059,-19.6427 574.5595,-21.0605 577.7353,-27.2986"/>
</g>
<!-- Node10 -->
<g id="node11" class="node">
<title>Node10</title>
<polygon fill="none" stroke="#bfbfbf" points="654,-.5 654,-19.5 696,-19.5 696,-.5 654,-.5"/>
<text text-anchor="middle" x="675" y="-7.5" font-family="FreeSans.ttf" font-size="10.00" fill="#000000">array</text>
</g>
<!-- Node7&#45;&gt;Node10 -->
<g id="edge10" class="edge">
<title>Node7&#45;&gt;Node10</title>
<path fill="none" stroke="#191970" d="M526.1829,-56.4605C554.8315,-47.9102 598.1071,-34.8521 644.1626,-20.2167"/>
<polygon fill="#191970" stroke="#191970" points="645.2529,-23.5427 653.7171,-17.1703 643.1264,-16.8735 645.2529,-23.5427"/>
</g>
<!-- Node11 -->
<g id="node12" class="node">
<title>Node11</title>
<polygon fill="none" stroke="#bfbfbf" points="714.5,-.5 714.5,-19.5 767.5,-19.5 767.5,-.5 714.5,-.5"/>
<text text-anchor="middle" x="741" y="-7.5" font-family="FreeSans.ttf" font-size="10.00" fill="#000000">iterator</text>
</g>
<!-- Node7&#45;&gt;Node11 -->
<g id="edge12" class="edge">
<title>Node7&#45;&gt;Node11</title>
<path fill="none" stroke="#191970" d="M541.5242,-56.4366C582.2275,-48.0662 642.6192,-35.2233 704.3856,-20.0496"/>
<polygon fill="#191970" stroke="#191970" points="705.4411,-23.3941 714.3078,-17.5946 703.7598,-16.599 705.4411,-23.3941"/>
</g>
<!-- Node12 -->
<g id="node13" class="node">
<title>Node12</title>
<polygon fill="none" stroke="#bfbfbf" points="786,-.5 786,-19.5 830,-19.5 830,-.5 786,-.5"/>
<text text-anchor="middle" x="808" y="-7.5" font-family="FreeSans.ttf" font-size="10.00" fill="#000000">limits</text>
</g>
<!-- Node7&#45;&gt;Node12 -->
<g id="edge13" class="edge">
<title>Node7&#45;&gt;Node12</title>
<path fill="none" stroke="#191970" d="M554.7013,-58.8296C610.1154,-51.6755 694.3717,-39.2757 775.8438,-20.0015"/>
<polygon fill="#191970" stroke="#191970" points="776.8586,-23.3573 785.7635,-17.6168 775.2223,-16.5512 776.8586,-23.3573"/>
</g>
<!-- Node13 -->
<g id="node14" class="node">
<title>Node13</title>
<polygon fill="none" stroke="#bfbfbf" points="338.5,-.5 338.5,-19.5 403.5,-19.5 403.5,-.5 338.5,-.5"/>
<text text-anchor="middle" x="371" y="-7.5" font-family="FreeSans.ttf" font-size="10.00" fill="#000000">stdexcept</text>
</g>
<!-- Node7&#45;&gt;Node13 -->
<g id="edge14" class="edge">
<title>Node7&#45;&gt;Node13</title>
<path fill="none" stroke="#191970" d="M472.8555,-56.3733C453.1108,-47.3838 423.4302,-33.8706 401.1945,-23.7471"/>
<polygon fill="#191970" stroke="#191970" points="402.42,-20.4594 391.8685,-19.5011 399.5194,-26.8302 402.42,-20.4594"/>
</g>
<!-- Node14 -->
<g id="node15" class="node">
<title>Node14</title>
<polygon fill="none" stroke="#bfbfbf" points="421.5,-.5 421.5,-19.5 490.5,-19.5 490.5,-.5 421.5,-.5"/>
<text text-anchor="middle" x="456" y="-7.5" font-family="FreeSans.ttf" font-size="10.00" fill="#000000">type_traits</text>
</g>
<!-- Node7&#45;&gt;Node14 -->
<g id="edge15" class="edge">
<title>Node7&#45;&gt;Node14</title>
<path fill="none" stroke="#191970" d="M487.3809,-56.2455C482.0954,-48.4564 474.5459,-37.3308 468.1762,-27.9439"/>
<polygon fill="#191970" stroke="#191970" points="471.0545,-25.9522 462.5432,-19.6427 465.2621,-29.8827 471.0545,-25.9522"/>
</g>
<!-- Node15 -->
<g id="node16" class="node">
<title>Node15</title>
<polygon fill="none" stroke="#bfbfbf" points="508.5,-.5 508.5,-19.5 553.5,-19.5 553.5,-.5 508.5,-.5"/>
<text text-anchor="middle" x="531" y="-7.5" font-family="FreeSans.ttf" font-size="10.00" fill="#000000">utility</text>
</g>
<!-- Node7&#45;&gt;Node15 -->
<g id="edge16" class="edge">
<title>Node7&#45;&gt;Node15</title>
<path fill="none" stroke="#191970" d="M500.4449,-56.2455C505.5382,-48.5367 512.7908,-37.5598 518.952,-28.2348"/>
<polygon fill="#191970" stroke="#191970" points="522.0365,-29.9155 524.6289,-19.6427 516.1962,-26.0566 522.0365,-29.9155"/>
</g>
<!-- Node19&#45;&gt;Node4 -->
<g id="edge35" class="edge">
<title>Node19&#45;&gt;Node4</title>
<path fill="none" stroke="#191970" d="M348.838,-224.4726C325.8092,-217.8886 301.2074,-206.7689 285,-188 274.1268,-175.4084 271.0094,-156.473 270.3886,-142.1088"/>
<polygon fill="#191970" stroke="#191970" points="273.8866,-141.7561 270.3256,-131.7776 266.8867,-141.7988 273.8866,-141.7561"/>
</g>
<!-- Node19&#45;&gt;Node16 -->
<g id="edge23" class="edge">
<title>Node19&#45;&gt;Node16</title>
<path fill="none" stroke="#191970" d="M477.659,-224.9971C530.4637,-217.0032 598.1383,-204.1037 621,-188 657.5608,-162.2467 680.1779,-112.7629 690.4567,-85.394"/>
<polygon fill="#191970" stroke="#191970" points="693.8263,-86.3658 693.9015,-75.7712 687.2359,-84.0064 693.8263,-86.3658"/>
</g>
<!-- Node20 -->
<g id="node21" class="node">
<title>Node20</title>
<g id="a_node21"><a xlink:href="GeomVector3_8h.html" target="_top" xlink:title="iDynTree/Core/GeomVector3.h">
<polygon fill="none" stroke="#000000" points="74.5,-168.5 74.5,-187.5 237.5,-187.5 237.5,-168.5 74.5,-168.5"/>
<text text-anchor="middle" x="156" y="-175.5" font-family="FreeSans.ttf" font-size="10.00" fill="#000000">iDynTree/Core/GeomVector3.h</text>
</a>
</g>
</g>
<!-- Node19&#45;&gt;Node20 -->
<g id="edge24" class="edge">
<title>Node19&#45;&gt;Node20</title>
<path fill="none" stroke="#191970" d="M365.7952,-224.4369C322.4053,-214.8328 255.4791,-200.0191 208.9274,-189.7152"/>
<polygon fill="#191970" stroke="#191970" points="209.5467,-186.2676 199.0266,-187.5237 208.0338,-193.1022 209.5467,-186.2676"/>
</g>
<!-- Node21 -->
<g id="node22" class="node">
<title>Node21</title>
<g id="a_node22"><a xlink:href="RotationRaw_8h.html" target="_top" xlink:title="iDynTree/Core/RotationRaw.h">
<polygon fill="none" stroke="#000000" points="294,-168.5 294,-187.5 452,-187.5 452,-168.5 294,-168.5"/>
<text text-anchor="middle" x="373" y="-175.5" font-family="FreeSans.ttf" font-size="10.00" fill="#000000">iDynTree/Core/RotationRaw.h</text>
</a>
</g>
</g>
<!-- Node19&#45;&gt;Node21 -->
<g id="edge26" class="edge">
<title>Node19&#45;&gt;Node21</title>
<path fill="none" stroke="#191970" d="M402.7293,-224.2455C397.7736,-216.5367 390.717,-205.5598 384.7224,-196.2348"/>
<polygon fill="#191970" stroke="#191970" points="387.5506,-194.1618 379.1989,-187.6427 381.6624,-197.9471 387.5506,-194.1618"/>
</g>
<!-- Node20&#45;&gt;Node4 -->
<g id="edge25" class="edge">
<title>Node20&#45;&gt;Node4</title>
<path fill="none" stroke="#191970" d="M175.7692,-168.3733C194.1469,-159.4241 221.7312,-145.9917 242.4893,-135.8835"/>
<polygon fill="#191970" stroke="#191970" points="244.0304,-139.026 251.4888,-131.5011 240.9657,-132.7325 244.0304,-139.026"/>
</g>
<!-- Node21&#45;&gt;Node16 -->
<g id="edge34" class="edge">
<title>Node21&#45;&gt;Node16</title>
<path fill="none" stroke="#191970" d="M443.7609,-168.4633C485.3185,-161.4106 538.2927,-149.8698 583,-132 598.925,-125.6347 601.2087,-120.6799 616,-112 634.3053,-101.258 655.1305,-89.4402 671.0808,-80.4728"/>
<polygon fill="#191970" stroke="#191970" points="672.8437,-83.497 679.8528,-75.552 669.4189,-77.392 672.8437,-83.497"/>
</g>
<!-- Node21&#45;&gt;Node22 -->
<g id="edge27" class="edge">
<title>Node21&#45;&gt;Node22</title>
<path fill="none" stroke="#191970" d="M325.0137,-168.4369C276.5186,-158.7724 201.5527,-143.8326 149.8121,-133.5213"/>
<polygon fill="#191970" stroke="#191970" points="150.2797,-130.0457 139.7884,-131.5237 148.9115,-136.9107 150.2797,-130.0457"/>
</g>
<!-- Node22&#45;&gt;Node5 -->
<g id="edge28" class="edge">
<title>Node22&#45;&gt;Node5</title>
<path fill="none" stroke="#191970" d="M137.0833,-112.4369C182.4546,-102.8127 252.4886,-87.957 301.0766,-77.6504"/>
<polygon fill="#191970" stroke="#191970" points="302.0466,-81.0226 311.1027,-75.5237 300.5941,-74.175 302.0466,-81.0226"/>
</g>
<!-- Node22&#45;&gt;Node8 -->
<g id="edge29" class="edge">
<title>Node22&#45;&gt;Node8</title>
<path fill="none" stroke="#191970" d="M91.5427,-112.2501C91.4138,-98.1665 93.2392,-72.0625 107,-56 127.1579,-32.4703 160.9962,-20.8742 186.9385,-15.2216"/>
<polygon fill="#191970" stroke="#191970" points="187.6708,-18.6447 196.8017,-13.2708 186.3126,-11.7777 187.6708,-18.6447"/>
</g>
<!-- Node22&#45;&gt;Node16 -->
<g id="edge31" class="edge">
<title>Node22&#45;&gt;Node16</title>
<path fill="none" stroke="#191970" d="M172.5214,-112.8688C175.3823,-112.571 178.2153,-112.2805 181,-112 363.8426,-93.5804 583.5276,-75.2601 664.7651,-68.6146"/>
<polygon fill="#191970" stroke="#191970" points="665.172,-72.0931 674.8541,-67.7911 664.6025,-65.1163 665.172,-72.0931"/>
</g>
<!-- Node22&#45;&gt;Node17 -->
<g id="edge33" class="edge">
<title>Node22&#45;&gt;Node17</title>
<path fill="none" stroke="#191970" d="M112.6287,-112.3733C131.8919,-103.3838 160.8486,-89.8706 182.5419,-79.7471"/>
<polygon fill="#191970" stroke="#191970" points="184.0587,-82.9017 191.6405,-75.5011 181.0985,-76.5584 184.0587,-82.9017"/>
</g>
<!-- Node22&#45;&gt;Node18 -->
<g id="edge30" class="edge">
<title>Node22&#45;&gt;Node18</title>
<path fill="none" stroke="#191970" d="M100.5351,-112.2455C107.4912,-104.2958 117.4883,-92.8706 125.8051,-83.3656"/>
<polygon fill="#191970" stroke="#191970" points="128.6116,-85.4732 132.5627,-75.6427 123.3436,-80.8637 128.6116,-85.4732"/>
</g>
<!-- Node23 -->
<g id="node24" class="node">
<title>Node23</title>
<polygon fill="none" stroke="#bfbfbf" points="0,-56.5 0,-75.5 60,-75.5 60,-56.5 0,-56.5"/>
<text text-anchor="middle" x="30" y="-63.5" font-family="FreeSans.ttf" font-size="10.00" fill="#000000">iostream</text>
</g>
<!-- Node22&#45;&gt;Node23 -->
<g id="edge32" class="edge">
<title>Node22&#45;&gt;Node23</title>
<path fill="none" stroke="#191970" d="M81.2004,-112.2455C72.1322,-104.0549 58.9794,-92.1749 48.2755,-82.5069"/>
<polygon fill="#191970" stroke="#191970" points="50.4429,-79.7482 40.6758,-75.6427 45.7509,-84.9429 50.4429,-79.7482"/>
</g>
<!-- Node24&#45;&gt;Node16 -->
<g id="edge41" class="edge">
<title>Node24&#45;&gt;Node16</title>
<path fill="none" stroke="#191970" d="M904.5468,-448.454C988.5527,-432.182 1140,-395.9237 1140,-346 1140,-346 1140,-346 1140,-178 1140,-93.2411 831.3381,-71.9453 729.3054,-67.2211"/>
<polygon fill="#191970" stroke="#191970" points="729.4162,-63.7227 719.272,-66.7798 729.1085,-70.7159 729.4162,-63.7227"/>
</g>
<!-- Node25 -->
<g id="node26" class="node">
<title>Node25</title>
<polygon fill="none" stroke="#bfbfbf" points="984.5,-336.5 984.5,-355.5 1031.5,-355.5 1031.5,-336.5 984.5,-336.5"/>
<text text-anchor="middle" x="1008" y="-343.5" font-family="FreeSans.ttf" font-size="10.00" fill="#000000">vector</text>
</g>
<!-- Node24&#45;&gt;Node25 -->
<g id="edge42" class="edge">
<title>Node24&#45;&gt;Node25</title>
<path fill="none" stroke="#191970" d="M874.2511,-448.4313C893.5306,-440.238 920.7045,-427.3489 942,-412 961.5605,-397.9016 980.6797,-377.8949 993.2623,-363.6112"/>
<polygon fill="#191970" stroke="#191970" points="995.9887,-365.809 999.8693,-355.9505 990.6878,-361.2373 995.9887,-365.809"/>
</g>
<!-- Node26 -->
<g id="node27" class="node">
<title>Node26</title>
<g id="a_node27"><a xlink:href="ConvexHullHelpers_8h.html" target="_top" xlink:title="iDynTree/ConvexHullHelpers.h">
<polygon fill="none" stroke="#000000" points="767.5,-392.5 767.5,-411.5 932.5,-411.5 932.5,-392.5 767.5,-392.5"/>
<text text-anchor="middle" x="850" y="-399.5" font-family="FreeSans.ttf" font-size="10.00" fill="#000000">iDynTree/ConvexHullHelpers.h</text>
</a>
</g>
</g>
<!-- Node24&#45;&gt;Node26 -->
<g id="edge43" class="edge">
<title>Node24&#45;&gt;Node26</title>
<path fill="none" stroke="#191970" d="M850,-448.2455C850,-440.9382 850,-430.6944 850,-421.7046"/>
<polygon fill="#191970" stroke="#191970" points="853.5001,-421.6426 850,-411.6427 846.5001,-421.6427 853.5001,-421.6426"/>
</g>
<!-- Node29 -->
<g id="node30" class="node">
<title>Node29</title>
<g id="a_node30"><a xlink:href="Direction_8h.html" target="_top" xlink:title="iDynTree/Core/Direction.h">
<polygon fill="none" stroke="#000000" points="470.5,-168.5 470.5,-187.5 611.5,-187.5 611.5,-168.5 470.5,-168.5"/>
<text text-anchor="middle" x="541" y="-175.5" font-family="FreeSans.ttf" font-size="10.00" fill="#000000">iDynTree/Core/Direction.h</text>
</a>
</g>
</g>
<!-- Node24&#45;&gt;Node29 -->
<g id="edge53" class="edge">
<title>Node24&#45;&gt;Node29</title>
<path fill="none" stroke="#191970" d="M788.2119,-448.4805C698.0378,-432.8184 541,-398.0682 541,-346 541,-346 541,-346 541,-290 541,-257.7116 541,-220.1872 541,-197.8048"/>
<polygon fill="#191970" stroke="#191970" points="544.5001,-197.5883 541,-187.5884 537.5001,-197.5884 544.5001,-197.5883"/>
</g>
<!-- Node26&#45;&gt;Node1 -->
<g id="edge49" class="edge">
<title>Node26&#45;&gt;Node1</title>
<path fill="none" stroke="#191970" d="M814.2435,-392.3733C779.0574,-382.9001 725.2119,-368.4032 687.1044,-358.1435"/>
<polygon fill="#191970" stroke="#191970" points="687.856,-354.7213 677.2899,-355.5011 686.0361,-361.4806 687.856,-354.7213"/>
</g>
<!-- Node26&#45;&gt;Node2 -->
<g id="edge48" class="edge">
<title>Node26&#45;&gt;Node2</title>
<path fill="none" stroke="#191970" d="M847.6127,-392.4509C843.0253,-374.1013 832.8977,-333.5908 826.8423,-309.3693"/>
<polygon fill="#191970" stroke="#191970" points="830.2022,-308.3774 824.3812,-299.5249 823.4112,-310.0752 830.2022,-308.3774"/>
</g>
<!-- Node26&#45;&gt;Node16 -->
<g id="edge44" class="edge">
<title>Node26&#45;&gt;Node16</title>
<path fill="none" stroke="#191970" d="M858.0965,-392.0677C883.5819,-359.5407 958.5791,-253.405 926,-168 914.1079,-136.8253 904.5019,-129.3471 876,-112 829.9742,-83.9873 767.3109,-72.932 729.6406,-68.6408"/>
<polygon fill="#191970" stroke="#191970" points="729.5648,-65.114 719.2557,-67.5579 728.8387,-72.0762 729.5648,-65.114"/>
</g>
<!-- Node26&#45;&gt;Node25 -->
<g id="edge45" class="edge">
<title>Node26&#45;&gt;Node25</title>
<path fill="none" stroke="#191970" d="M877.1612,-392.3733C904.1538,-382.8062 945.6025,-368.1156 974.5945,-357.8399"/>
<polygon fill="#191970" stroke="#191970" points="976.0295,-361.0447 984.2857,-354.4051 973.691,-354.4469 976.0295,-361.0447"/>
</g>
<!-- Node27 -->
<g id="node28" class="node">
<title>Node27</title>
<g id="a_node28"><a xlink:href="MatrixDynSize_8h.html" target="_top" xlink:title="iDynTree/Core/MatrixDynSize.h">
<polygon fill="none" stroke="#000000" points="945.5,-280.5 945.5,-299.5 1112.5,-299.5 1112.5,-280.5 945.5,-280.5"/>
<text text-anchor="middle" x="1029" y="-287.5" font-family="FreeSans.ttf" font-size="10.00" fill="#000000">iDynTree/Core/MatrixDynSize.h</text>
</a>
</g>
</g>
<!-- Node26&#45;&gt;Node27 -->
<g id="edge46" class="edge">
<title>Node26&#45;&gt;Node27</title>
<path fill="none" stroke="#191970" d="M868.1744,-392.3885C884.9652,-383.372 910.4881,-369.318 932,-356 958.5825,-339.5428 988.1594,-319.0937 1007.5837,-305.3559"/>
<polygon fill="#191970" stroke="#191970" points="1009.6229,-308.2005 1015.7467,-299.5547 1005.5679,-302.4947 1009.6229,-308.2005"/>
</g>
<!-- Node28 -->
<g id="node29" class="node">
<title>Node28</title>
<g id="a_node29"><a xlink:href="VectorDynSize_8h.html" target="_top" xlink:title="iDynTree/Core/VectorDynSize.h">
<polygon fill="none" stroke="#000000" points="407.5,-112.5 407.5,-131.5 574.5,-131.5 574.5,-112.5 407.5,-112.5"/>
<text text-anchor="middle" x="491" y="-119.5" font-family="FreeSans.ttf" font-size="10.00" fill="#000000">iDynTree/Core/VectorDynSize.h</text>
</a>
</g>
</g>
<!-- Node26&#45;&gt;Node28 -->
<g id="edge50" class="edge">
<title>Node26&#45;&gt;Node28</title>
<path fill="none" stroke="#191970" d="M839.7125,-392.3057C820.7324,-374.3544 779.0353,-334.6101 745,-300 688.562,-242.6087 688.4007,-212.0017 621,-168 597.3736,-152.5758 567.9485,-141.604 543.0713,-134.2541"/>
<polygon fill="#191970" stroke="#191970" points="544.0048,-130.8809 533.429,-131.5167 542.093,-137.6147 544.0048,-130.8809"/>
</g>
<!-- Node27&#45;&gt;Node16 -->
<g id="edge47" class="edge">
<title>Node27&#45;&gt;Node16</title>
<path fill="none" stroke="#191970" d="M1029.6167,-280.4817C1030.9868,-250.5479 1030.7988,-157.6121 980,-112 943.5123,-79.2378 795.5507,-69.6578 729.3218,-66.9827"/>
<polygon fill="#191970" stroke="#191970" points="729.1784,-63.475 719.0542,-66.5974 728.9158,-70.4701 729.1784,-63.475"/>
</g>
<!-- Node28&#45;&gt;Node7 -->
<g id="edge51" class="edge">
<title>Node28&#45;&gt;Node7</title>
<path fill="none" stroke="#191970" d="M491.5226,-112.2455C491.914,-104.9382 492.4628,-94.6944 492.9444,-85.7046"/>
<polygon fill="#191970" stroke="#191970" points="496.4434,-85.8156 493.4834,-75.6427 489.4534,-85.4411 496.4434,-85.8156"/>
</g>
<!-- Node28&#45;&gt;Node16 -->
<g id="edge52" class="edge">
<title>Node28&#45;&gt;Node16</title>
<path fill="none" stroke="#191970" d="M526.4127,-112.3733C565.3182,-101.797 627.2578,-84.959 664.8254,-74.7465"/>
<polygon fill="#191970" stroke="#191970" points="666.004,-78.0532 674.7357,-72.0524 664.1677,-71.2983 666.004,-78.0532"/>
</g>
<!-- Node29&#45;&gt;Node4 -->
<g id="edge55" class="edge">
<title>Node29&#45;&gt;Node4</title>
<path fill="none" stroke="#191970" d="M494.8921,-168.4369C448.3925,-158.7925 376.5641,-143.8948 326.86,-133.5858"/>
<polygon fill="#191970" stroke="#191970" points="327.4201,-130.1275 316.9177,-131.5237 325.9985,-136.9817 327.4201,-130.1275"/>
</g>
<!-- Node29&#45;&gt;Node5 -->
<g id="edge56" class="edge">
<title>Node29&#45;&gt;Node5</title>
<path fill="none" stroke="#191970" d="M481.3105,-168.4525C453.8207,-161.7663 422.0456,-150.5714 398,-132 382.1049,-119.7236 370.5591,-99.608 363.6416,-84.8058"/>
<polygon fill="#191970" stroke="#191970" points="366.8137,-83.324 359.5954,-75.5686 360.4018,-86.1327 366.8137,-83.324"/>
</g>
<!-- Node29&#45;&gt;Node16 -->
<g id="edge54" class="edge">
<title>Node29&#45;&gt;Node16</title>
<path fill="none" stroke="#191970" d="M558.0935,-168.3929C573.5697,-159.4911 596.8132,-145.6091 616,-132 638.301,-116.182 662.4207,-96.1111 678.4866,-82.2788"/>
<polygon fill="#191970" stroke="#191970" points="680.8435,-84.8676 686.1016,-75.6696 676.2552,-79.5811 680.8435,-84.8676"/>
</g>
</g>
</svg>
