<?xml version="1.0" encoding="UTF-8" standalone="no"?>
<!DOCTYPE svg PUBLIC "-//W3C//DTD SVG 1.1//EN"
 "http://www.w3.org/Graphics/SVG/1.1/DTD/svg11.dtd">
<!-- Generated by graphviz version 2.40.1 (20161225.0304)
 -->
<!-- Title: TransformDerivative.cpp Pages: 1 -->
<svg width="1601pt" height="554pt"
 viewBox="0.00 0.00 1601.00 554.00" xmlns="http://www.w3.org/2000/svg" xmlns:xlink="http://www.w3.org/1999/xlink">
<g id="graph0" class="graph" transform="scale(1 1) rotate(0) translate(4 550)">
<title>TransformDerivative.cpp</title>
<!-- Node0 -->
<g id="node1" class="node">
<title>Node0</title>
<polygon fill="#bfbfbf" stroke="#000000" points="739,-526.5 739,-545.5 876,-545.5 876,-526.5 739,-526.5"/>
<text text-anchor="middle" x="807.5" y="-533.5" font-family="FreeSans.ttf" font-size="10.00" fill="#000000">TransformDerivative.cpp</text>
</g>
<!-- Node1 -->
<g id="node2" class="node">
<title>Node1</title>
<g id="a_node2"><a xlink:href="ArticulatedBodyInertia_8h.html" target="_top" xlink:title="iDynTree/Core/Articulated\lBodyInertia.h">
<polygon fill="none" stroke="#000000" points="1452,-168.5 1452,-198.5 1593,-198.5 1593,-168.5 1452,-168.5"/>
<text text-anchor="start" x="1460" y="-186.5" font-family="FreeSans.ttf" font-size="10.00" fill="#000000">iDynTree/Core/Articulated</text>
<text text-anchor="middle" x="1522.5" y="-175.5" font-family="FreeSans.ttf" font-size="10.00" fill="#000000">BodyInertia.h</text>
</a>
</g>
</g>
<!-- Node0&#45;&gt;Node1 -->
<g id="edge1" class="edge">
<title>Node0&#45;&gt;Node1</title>
<path fill="none" stroke="#191970" d="M876.1602,-532.3283C1060.3438,-521.568 1551.5,-486.4991 1551.5,-418.5 1551.5,-418.5 1551.5,-418.5 1551.5,-301 1551.5,-268.2378 1540.7414,-231.7948 1532.3301,-208.3092"/>
<polygon fill="#191970" stroke="#191970" points="1535.5563,-206.9429 1528.7926,-198.788 1528.9946,-209.3809 1535.5563,-206.9429"/>
</g>
<!-- Node10 -->
<g id="node11" class="node">
<title>Node10</title>
<g id="a_node11"><a xlink:href="TransformDerivative_8h.html" target="_top" xlink:title="iDynTree/Core/TransformDerivative.h">
<polygon fill="none" stroke="#000000" points="582,-174 582,-193 779,-193 779,-174 582,-174"/>
<text text-anchor="middle" x="680.5" y="-181" font-family="FreeSans.ttf" font-size="10.00" fill="#000000">iDynTree/Core/TransformDerivative.h</text>
</a>
</g>
</g>
<!-- Node0&#45;&gt;Node10 -->
<g id="edge11" class="edge">
<title>Node0&#45;&gt;Node10</title>
<path fill="none" stroke="#191970" d="M807.5,-526.2511C807.5,-506.1182 807.5,-458.4826 807.5,-418.5 807.5,-418.5 807.5,-418.5 807.5,-301 807.5,-250.0483 751.7425,-215.0309 714.117,-197.2013"/>
<polygon fill="#191970" stroke="#191970" points="715.5379,-194.0025 704.9869,-193.0394 712.6344,-200.372 715.5379,-194.0025"/>
</g>
<!-- Node20 -->
<g id="node21" class="node">
<title>Node20</title>
<g id="a_node21"><a xlink:href="Transform_8h.html" target="_top" xlink:title="iDynTree/Core/Transform.h">
<polygon fill="none" stroke="#000000" points="955.5,-347.5 955.5,-366.5 1101.5,-366.5 1101.5,-347.5 955.5,-347.5"/>
<text text-anchor="middle" x="1028.5" y="-354.5" font-family="FreeSans.ttf" font-size="10.00" fill="#000000">iDynTree/Core/Transform.h</text>
</a>
</g>
</g>
<!-- Node0&#45;&gt;Node20 -->
<g id="edge29" class="edge">
<title>Node0&#45;&gt;Node20</title>
<path fill="none" stroke="#191970" d="M819.3819,-526.3762C855.4314,-497.1777 963.8301,-409.3797 1008.7098,-373.0291"/>
<polygon fill="#191970" stroke="#191970" points="1010.9914,-375.6852 1016.5593,-366.6714 1006.5856,-370.2457 1010.9914,-375.6852"/>
</g>
<!-- Node26 -->
<g id="node27" class="node">
<title>Node26</title>
<polygon fill="none" stroke="#bfbfbf" points="0,-409 0,-428 77,-428 77,-409 0,-409"/>
<text text-anchor="middle" x="38.5" y="-416" font-family="FreeSans.ttf" font-size="10.00" fill="#000000">Eigen/Dense</text>
</g>
<!-- Node0&#45;&gt;Node26 -->
<g id="edge46" class="edge">
<title>Node0&#45;&gt;Node26</title>
<path fill="none" stroke="#191970" d="M738.804,-529.5183C610.5801,-516.6911 326.514,-484.832 91.5,-434 87.1121,-433.0509 82.5561,-431.9304 78.0403,-430.733"/>
<polygon fill="#191970" stroke="#191970" points="78.8717,-427.3314 68.2996,-428.0253 76.9969,-434.0757 78.8717,-427.3314"/>
</g>
<!-- Node27 -->
<g id="node28" class="node">
<title>Node27</title>
<g id="a_node28"><a xlink:href="EigenHelpers_8h.html" target="_top" xlink:title="iDynTree/Core/EigenHelpers.h">
<polygon fill="none" stroke="#000000" points="546,-470.5 546,-489.5 707,-489.5 707,-470.5 546,-470.5"/>
<text text-anchor="middle" x="626.5" y="-477.5" font-family="FreeSans.ttf" font-size="10.00" fill="#000000">iDynTree/Core/EigenHelpers.h</text>
</a>
</g>
</g>
<!-- Node0&#45;&gt;Node27 -->
<g id="edge47" class="edge">
<title>Node0&#45;&gt;Node27</title>
<path fill="none" stroke="#191970" d="M776.385,-526.3733C746.1571,-517.021 700.104,-502.7725 667.0261,-492.5385"/>
<polygon fill="#191970" stroke="#191970" points="667.7967,-489.1133 657.209,-489.5011 665.7277,-495.8005 667.7967,-489.1133"/>
</g>
<!-- Node2 -->
<g id="node3" class="node">
<title>Node2</title>
<g id="a_node3"><a xlink:href="MatrixFixSize_8h.html" target="_top" xlink:title="iDynTree/Core/MatrixFixSize.h">
<polygon fill="none" stroke="#000000" points="732,-112.5 732,-131.5 893,-131.5 893,-112.5 732,-112.5"/>
<text text-anchor="middle" x="812.5" y="-119.5" font-family="FreeSans.ttf" font-size="10.00" fill="#000000">iDynTree/Core/MatrixFixSize.h</text>
</a>
</g>
</g>
<!-- Node1&#45;&gt;Node2 -->
<g id="edge2" class="edge">
<title>Node1&#45;&gt;Node2</title>
<path fill="none" stroke="#191970" d="M1451.8268,-177.3783C1322.1779,-166.1482 1046.5167,-142.2705 903.236,-129.8595"/>
<polygon fill="#191970" stroke="#191970" points="903.4171,-126.3622 893.1524,-128.9861 902.813,-133.3361 903.4171,-126.3622"/>
</g>
<!-- Node7 -->
<g id="node8" class="node">
<title>Node7</title>
<polygon fill="none" stroke="#bfbfbf" points="1161.5,-56.5 1161.5,-75.5 1205.5,-75.5 1205.5,-56.5 1161.5,-56.5"/>
<text text-anchor="middle" x="1183.5" y="-63.5" font-family="FreeSans.ttf" font-size="10.00" fill="#000000">string</text>
</g>
<!-- Node1&#45;&gt;Node7 -->
<g id="edge10" class="edge">
<title>Node1&#45;&gt;Node7</title>
<path fill="none" stroke="#191970" d="M1509.1122,-168.2498C1493.6109,-151.6353 1466.4719,-125.613 1437.5,-112 1398.5527,-93.6998 1275.0958,-76.969 1215.8433,-69.7518"/>
<polygon fill="#191970" stroke="#191970" points="1215.9076,-66.2344 1205.5615,-68.5166 1215.0727,-73.1844 1215.9076,-66.2344"/>
</g>
<!-- Node3 -->
<g id="node4" class="node">
<title>Node3</title>
<g id="a_node4"><a xlink:href="Utils_8h.html" target="_top" xlink:title="iDynTree/Core/Utils.h">
<polygon fill="none" stroke="#000000" points="191,-56.5 191,-75.5 310,-75.5 310,-56.5 191,-56.5"/>
<text text-anchor="middle" x="250.5" y="-63.5" font-family="FreeSans.ttf" font-size="10.00" fill="#000000">iDynTree/Core/Utils.h</text>
</a>
</g>
</g>
<!-- Node2&#45;&gt;Node3 -->
<g id="edge3" class="edge">
<title>Node2&#45;&gt;Node3</title>
<path fill="none" stroke="#191970" d="M731.9791,-113.9766C621.5364,-102.9716 424.8805,-83.376 320.3417,-72.9593"/>
<polygon fill="#191970" stroke="#191970" points="320.5092,-69.4588 310.2114,-71.9499 319.8151,-76.4243 320.5092,-69.4588"/>
</g>
<!-- Node5 -->
<g id="node6" class="node">
<title>Node5</title>
<polygon fill="none" stroke="#bfbfbf" points="804.5,-.5 804.5,-19.5 856.5,-19.5 856.5,-.5 804.5,-.5"/>
<text text-anchor="middle" x="830.5" y="-7.5" font-family="FreeSans.ttf" font-size="10.00" fill="#000000">cassert</text>
</g>
<!-- Node2&#45;&gt;Node5 -->
<g id="edge5" class="edge">
<title>Node2&#45;&gt;Node5</title>
<path fill="none" stroke="#191970" d="M814.0347,-112.4509C816.9704,-94.184 823.4358,-53.9553 827.3343,-29.6976"/>
<polygon fill="#191970" stroke="#191970" points="830.838,-29.9536 828.9692,-19.5249 823.9267,-28.8428 830.838,-29.9536"/>
</g>
<!-- Node6 -->
<g id="node7" class="node">
<title>Node6</title>
<polygon fill="none" stroke="#bfbfbf" points="743.5,-56.5 743.5,-75.5 793.5,-75.5 793.5,-56.5 743.5,-56.5"/>
<text text-anchor="middle" x="768.5" y="-63.5" font-family="FreeSans.ttf" font-size="10.00" fill="#000000">cstring</text>
</g>
<!-- Node2&#45;&gt;Node6 -->
<g id="edge6" class="edge">
<title>Node2&#45;&gt;Node6</title>
<path fill="none" stroke="#191970" d="M804.8358,-112.2455C798.6527,-104.3761 789.7937,-93.101 782.3711,-83.6542"/>
<polygon fill="#191970" stroke="#191970" points="785.0068,-81.3435 776.0764,-75.6427 779.5025,-85.6683 785.0068,-81.3435"/>
</g>
<!-- Node2&#45;&gt;Node7 -->
<g id="edge7" class="edge">
<title>Node2&#45;&gt;Node7</title>
<path fill="none" stroke="#191970" d="M875.8556,-112.4369C955.7067,-100.3839 1089.916,-80.1259 1151.2105,-70.8739"/>
<polygon fill="#191970" stroke="#191970" points="1152.0694,-74.284 1161.435,-69.3306 1151.0246,-67.3624 1152.0694,-74.284"/>
</g>
<!-- Node8 -->
<g id="node9" class="node">
<title>Node8</title>
<polygon fill="none" stroke="#bfbfbf" points="368.5,-56.5 368.5,-75.5 428.5,-75.5 428.5,-56.5 368.5,-56.5"/>
<text text-anchor="middle" x="398.5" y="-63.5" font-family="FreeSans.ttf" font-size="10.00" fill="#000000">iostream</text>
</g>
<!-- Node2&#45;&gt;Node8 -->
<g id="edge8" class="edge">
<title>Node2&#45;&gt;Node8</title>
<path fill="none" stroke="#191970" d="M741.8013,-112.4369C654.5933,-100.6406 509.2835,-80.9852 439.0123,-71.4799"/>
<polygon fill="#191970" stroke="#191970" points="439.1805,-67.9709 428.8015,-70.0988 438.2421,-74.9077 439.1805,-67.9709"/>
</g>
<!-- Node9 -->
<g id="node10" class="node">
<title>Node9</title>
<polygon fill="none" stroke="#bfbfbf" points="486.5,-56.5 486.5,-75.5 542.5,-75.5 542.5,-56.5 486.5,-56.5"/>
<text text-anchor="middle" x="514.5" y="-63.5" font-family="FreeSans.ttf" font-size="10.00" fill="#000000">sstream</text>
</g>
<!-- Node2&#45;&gt;Node9 -->
<g id="edge9" class="edge">
<title>Node2&#45;&gt;Node9</title>
<path fill="none" stroke="#191970" d="M749.1639,-112.4647C698.3931,-104.4491 625.1501,-92.0548 552.4975,-76.0789"/>
<polygon fill="#191970" stroke="#191970" points="553.2384,-72.6582 542.7172,-73.9054 551.7198,-79.4915 553.2384,-72.6582"/>
</g>
<!-- Node4 -->
<g id="node5" class="node">
<title>Node4</title>
<polygon fill="none" stroke="#bfbfbf" points="224,-.5 224,-19.5 277,-19.5 277,-.5 224,-.5"/>
<text text-anchor="middle" x="250.5" y="-7.5" font-family="FreeSans.ttf" font-size="10.00" fill="#000000">cstddef</text>
</g>
<!-- Node3&#45;&gt;Node4 -->
<g id="edge4" class="edge">
<title>Node3&#45;&gt;Node4</title>
<path fill="none" stroke="#191970" d="M250.5,-56.2455C250.5,-48.9382 250.5,-38.6944 250.5,-29.7046"/>
<polygon fill="#191970" stroke="#191970" points="254.0001,-29.6426 250.5,-19.6427 247.0001,-29.6427 254.0001,-29.6426"/>
</g>
<!-- Node10&#45;&gt;Node2 -->
<g id="edge28" class="edge">
<title>Node10&#45;&gt;Node2</title>
<path fill="none" stroke="#191970" d="M701.125,-173.8906C723.0173,-163.6908 757.8193,-147.4763 782.6927,-135.8875"/>
<polygon fill="#191970" stroke="#191970" points="784.4335,-138.9377 792.0198,-131.5419 781.4772,-132.5926 784.4335,-138.9377"/>
</g>
<!-- Node11 -->
<g id="node12" class="node">
<title>Node11</title>
<g id="a_node12"><a xlink:href="VectorFixSize_8h.html" target="_top" xlink:title="iDynTree/Core/VectorFixSize.h">
<polygon fill="none" stroke="#000000" points="541,-112.5 541,-131.5 702,-131.5 702,-112.5 541,-112.5"/>
<text text-anchor="middle" x="621.5" y="-119.5" font-family="FreeSans.ttf" font-size="10.00" fill="#000000">iDynTree/Core/VectorFixSize.h</text>
</a>
</g>
</g>
<!-- Node10&#45;&gt;Node11 -->
<g id="edge12" class="edge">
<title>Node10&#45;&gt;Node11</title>
<path fill="none" stroke="#191970" d="M671.2813,-173.8906C662.4142,-164.6478 648.8088,-150.466 638.0611,-139.2628"/>
<polygon fill="#191970" stroke="#191970" points="640.2973,-136.5381 630.8487,-131.7449 635.2459,-141.3841 640.2973,-136.5381"/>
</g>
<!-- Node11&#45;&gt;Node3 -->
<g id="edge13" class="edge">
<title>Node11&#45;&gt;Node3</title>
<path fill="none" stroke="#191970" d="M558.1444,-112.4369C492.1006,-102.468 388.8719,-86.8863 320.4677,-76.5612"/>
<polygon fill="#191970" stroke="#191970" points="320.6286,-73.0459 310.2182,-75.0141 319.5838,-79.9675 320.6286,-73.0459"/>
</g>
<!-- Node11&#45;&gt;Node5 -->
<g id="edge26" class="edge">
<title>Node11&#45;&gt;Node5</title>
<path fill="none" stroke="#191970" d="M636.9926,-112.4074C658.5562,-99.1816 698.976,-74.8448 734.5,-56 756.1482,-44.516 781.1257,-32.5875 800.1758,-23.756"/>
<polygon fill="#191970" stroke="#191970" points="801.6612,-26.9253 809.2791,-19.562 798.7321,-20.5676 801.6612,-26.9253"/>
</g>
<!-- Node11&#45;&gt;Node6 -->
<g id="edge27" class="edge">
<title>Node11&#45;&gt;Node6</title>
<path fill="none" stroke="#191970" d="M646.7702,-112.3733C670.8966,-103.1822 707.4362,-89.2624 734.1877,-79.0713"/>
<polygon fill="#191970" stroke="#191970" points="735.4607,-82.3318 743.5596,-75.5011 732.9687,-75.7904 735.4607,-82.3318"/>
</g>
<!-- Node11&#45;&gt;Node7 -->
<g id="edge24" class="edge">
<title>Node11&#45;&gt;Node7</title>
<path fill="none" stroke="#191970" d="M702.0209,-113.9766C827.7425,-101.4491 1065.1811,-77.7898 1151.2835,-69.2102"/>
<polygon fill="#191970" stroke="#191970" points="1151.6447,-72.6916 1161.2484,-68.2172 1150.9506,-65.7261 1151.6447,-72.6916"/>
</g>
<!-- Node11&#45;&gt;Node9 -->
<g id="edge25" class="edge">
<title>Node11&#45;&gt;Node9</title>
<path fill="none" stroke="#191970" d="M602.862,-112.2455C586.0614,-103.4527 561.1366,-90.4079 542.0382,-80.4125"/>
<polygon fill="#191970" stroke="#191970" points="543.4073,-77.1787 532.9244,-75.6427 540.1614,-83.3807 543.4073,-77.1787"/>
</g>
<!-- Node12 -->
<g id="node13" class="node">
<title>Node12</title>
<g id="a_node13"><a xlink:href="Span_8h.html" target="_top" xlink:title="iDynTree/Core/Span.h">
<polygon fill="none" stroke="#000000" points="561,-56.5 561,-75.5 682,-75.5 682,-56.5 561,-56.5"/>
<text text-anchor="middle" x="621.5" y="-63.5" font-family="FreeSans.ttf" font-size="10.00" fill="#000000">iDynTree/Core/Span.h</text>
</a>
</g>
</g>
<!-- Node11&#45;&gt;Node12 -->
<g id="edge14" class="edge">
<title>Node11&#45;&gt;Node12</title>
<path fill="none" stroke="#191970" d="M621.5,-112.2455C621.5,-104.9382 621.5,-94.6944 621.5,-85.7046"/>
<polygon fill="#191970" stroke="#191970" points="625.0001,-85.6426 621.5,-75.6427 618.0001,-85.6427 625.0001,-85.6426"/>
</g>
<!-- Node12&#45;&gt;Node4 -->
<g id="edge18" class="edge">
<title>Node12&#45;&gt;Node4</title>
<path fill="none" stroke="#191970" d="M560.7975,-57.3003C557.6534,-56.8584 554.5398,-56.4228 551.5,-56 436.5686,-40.0135 404.0319,-44.199 287.2103,-20.14"/>
<polygon fill="#191970" stroke="#191970" points="287.6583,-16.6582 277.1543,-18.0429 286.2291,-23.5108 287.6583,-16.6582"/>
</g>
<!-- Node12&#45;&gt;Node5 -->
<g id="edge15" class="edge">
<title>Node12&#45;&gt;Node5</title>
<path fill="none" stroke="#191970" d="M658.5554,-56.4312C691.7545,-47.8076 742.0263,-34.6253 794.3519,-20.2821"/>
<polygon fill="#191970" stroke="#191970" points="795.4276,-23.6164 804.1425,-17.5913 793.5724,-16.8666 795.4276,-23.6164"/>
</g>
<!-- Node13 -->
<g id="node14" class="node">
<title>Node13</title>
<polygon fill="none" stroke="#bfbfbf" points="662.5,-.5 662.5,-19.5 726.5,-19.5 726.5,-.5 662.5,-.5"/>
<text text-anchor="middle" x="694.5" y="-7.5" font-family="FreeSans.ttf" font-size="10.00" fill="#000000">algorithm</text>
</g>
<!-- Node12&#45;&gt;Node13 -->
<g id="edge16" class="edge">
<title>Node12&#45;&gt;Node13</title>
<path fill="none" stroke="#191970" d="M634.2156,-56.2455C645.102,-47.8943 660.9883,-35.7076 673.72,-25.9408"/>
<polygon fill="#191970" stroke="#191970" points="676.1261,-28.5063 681.9301,-19.6427 671.8654,-22.9523 676.1261,-28.5063"/>
</g>
<!-- Node14 -->
<g id="node15" class="node">
<title>Node14</title>
<polygon fill="none" stroke="#bfbfbf" points="744.5,-.5 744.5,-19.5 786.5,-19.5 786.5,-.5 744.5,-.5"/>
<text text-anchor="middle" x="765.5" y="-7.5" font-family="FreeSans.ttf" font-size="10.00" fill="#000000">array</text>
</g>
<!-- Node12&#45;&gt;Node14 -->
<g id="edge17" class="edge">
<title>Node12&#45;&gt;Node14</title>
<path fill="none" stroke="#191970" d="M646.2545,-56.3733C670.7831,-46.8343 708.4096,-32.2018 734.8214,-21.9306"/>
<polygon fill="#191970" stroke="#191970" points="736.2927,-25.1138 744.3442,-18.2273 733.7555,-18.5898 736.2927,-25.1138"/>
</g>
<!-- Node15 -->
<g id="node16" class="node">
<title>Node15</title>
<polygon fill="none" stroke="#bfbfbf" points="295,-.5 295,-19.5 348,-19.5 348,-.5 295,-.5"/>
<text text-anchor="middle" x="321.5" y="-7.5" font-family="FreeSans.ttf" font-size="10.00" fill="#000000">iterator</text>
</g>
<!-- Node12&#45;&gt;Node15 -->
<g id="edge19" class="edge">
<title>Node12&#45;&gt;Node15</title>
<path fill="none" stroke="#191970" d="M560.875,-57.174C509.4566,-49.2938 433.5752,-36.7396 358.2961,-20.0009"/>
<polygon fill="#191970" stroke="#191970" points="358.6867,-16.5014 348.1623,-17.7211 357.1502,-23.3307 358.6867,-16.5014"/>
</g>
<!-- Node16 -->
<g id="node17" class="node">
<title>Node16</title>
<polygon fill="none" stroke="#bfbfbf" points="366.5,-.5 366.5,-19.5 410.5,-19.5 410.5,-.5 366.5,-.5"/>
<text text-anchor="middle" x="388.5" y="-7.5" font-family="FreeSans.ttf" font-size="10.00" fill="#000000">limits</text>
</g>
<!-- Node12&#45;&gt;Node16 -->
<g id="edge20" class="edge">
<title>Node12&#45;&gt;Node16</title>
<path fill="none" stroke="#191970" d="M574.2689,-56.4751C535.3124,-48.342 478.434,-35.834 420.4685,-20.1035"/>
<polygon fill="#191970" stroke="#191970" points="421.3501,-16.7161 410.7804,-17.4466 419.4986,-23.4668 421.3501,-16.7161"/>
</g>
<!-- Node17 -->
<g id="node18" class="node">
<title>Node17</title>
<polygon fill="none" stroke="#bfbfbf" points="429,-.5 429,-19.5 494,-19.5 494,-.5 429,-.5"/>
<text text-anchor="middle" x="461.5" y="-7.5" font-family="FreeSans.ttf" font-size="10.00" fill="#000000">stdexcept</text>
</g>
<!-- Node12&#45;&gt;Node17 -->
<g id="edge21" class="edge">
<title>Node12&#45;&gt;Node17</title>
<path fill="none" stroke="#191970" d="M593.995,-56.3733C567.6198,-47.1419 527.6149,-33.1402 498.4642,-22.9375"/>
<polygon fill="#191970" stroke="#191970" points="499.2409,-19.5012 488.6461,-19.5011 496.9284,-26.1082 499.2409,-19.5012"/>
</g>
<!-- Node18 -->
<g id="node19" class="node">
<title>Node18</title>
<polygon fill="none" stroke="#bfbfbf" points="512,-.5 512,-19.5 581,-19.5 581,-.5 512,-.5"/>
<text text-anchor="middle" x="546.5" y="-7.5" font-family="FreeSans.ttf" font-size="10.00" fill="#000000">type_traits</text>
</g>
<!-- Node12&#45;&gt;Node18 -->
<g id="edge22" class="edge">
<title>Node12&#45;&gt;Node18</title>
<path fill="none" stroke="#191970" d="M608.436,-56.2455C597.1438,-47.814 580.6155,-35.4729 567.4729,-25.6598"/>
<polygon fill="#191970" stroke="#191970" points="569.5211,-22.8211 559.4143,-19.6427 565.3331,-28.4301 569.5211,-22.8211"/>
</g>
<!-- Node19 -->
<g id="node20" class="node">
<title>Node19</title>
<polygon fill="none" stroke="#bfbfbf" points="599,-.5 599,-19.5 644,-19.5 644,-.5 599,-.5"/>
<text text-anchor="middle" x="621.5" y="-7.5" font-family="FreeSans.ttf" font-size="10.00" fill="#000000">utility</text>
</g>
<!-- Node12&#45;&gt;Node19 -->
<g id="edge23" class="edge">
<title>Node12&#45;&gt;Node19</title>
<path fill="none" stroke="#191970" d="M621.5,-56.2455C621.5,-48.9382 621.5,-38.6944 621.5,-29.7046"/>
<polygon fill="#191970" stroke="#191970" points="625.0001,-29.6426 621.5,-19.6427 618.0001,-29.6427 625.0001,-29.6426"/>
</g>
<!-- Node20&#45;&gt;Node2 -->
<g id="edge44" class="edge">
<title>Node20&#45;&gt;Node2</title>
<path fill="none" stroke="#191970" d="M1012.724,-347.4612C986.8964,-331.2013 935.1983,-295.8799 902.5,-255 875.5586,-221.3175 884.8269,-202.9126 859.5,-168 851.6182,-157.1351 841.0636,-146.5482 831.9533,-138.2752"/>
<polygon fill="#191970" stroke="#191970" points="834.243,-135.6279 824.4225,-131.6519 829.6201,-140.8842 834.243,-135.6279"/>
</g>
<!-- Node20&#45;&gt;Node7 -->
<g id="edge45" class="edge">
<title>Node20&#45;&gt;Node7</title>
<path fill="none" stroke="#191970" d="M1081.9089,-347.4971C1152.7376,-331.4551 1272.8452,-291.232 1307.5,-199 1321.74,-161.101 1309.22,-140.5355 1280.5,-112 1262.4342,-94.0502 1236.0192,-82.1569 1215.3147,-74.9685"/>
<polygon fill="#191970" stroke="#191970" points="1216.2636,-71.5964 1205.6709,-71.8116 1214.0858,-78.2491 1216.2636,-71.5964"/>
</g>
<!-- Node21 -->
<g id="node22" class="node">
<title>Node21</title>
<g id="a_node22"><a xlink:href="Position_8h.html" target="_top" xlink:title="iDynTree/Core/Position.h">
<polygon fill="none" stroke="#000000" points="1008.5,-291.5 1008.5,-310.5 1144.5,-310.5 1144.5,-291.5 1008.5,-291.5"/>
<text text-anchor="middle" x="1076.5" y="-298.5" font-family="FreeSans.ttf" font-size="10.00" fill="#000000">iDynTree/Core/Position.h</text>
</a>
</g>
</g>
<!-- Node20&#45;&gt;Node21 -->
<g id="edge30" class="edge">
<title>Node20&#45;&gt;Node21</title>
<path fill="none" stroke="#191970" d="M1036.861,-347.2455C1043.675,-339.2958 1053.4681,-327.8706 1061.6152,-318.3656"/>
<polygon fill="#191970" stroke="#191970" points="1064.3843,-320.513 1068.2349,-310.6427 1059.0695,-315.9575 1064.3843,-320.513"/>
</g>
<!-- Node23 -->
<g id="node24" class="node">
<title>Node23</title>
<g id="a_node24"><a xlink:href="Rotation_8h.html" target="_top" xlink:title="iDynTree/Core/Rotation.h">
<polygon fill="none" stroke="#000000" points="912,-235.5 912,-254.5 1049,-254.5 1049,-235.5 912,-235.5"/>
<text text-anchor="middle" x="980.5" y="-242.5" font-family="FreeSans.ttf" font-size="10.00" fill="#000000">iDynTree/Core/Rotation.h</text>
</a>
</g>
</g>
<!-- Node20&#45;&gt;Node23 -->
<g id="edge43" class="edge">
<title>Node20&#45;&gt;Node23</title>
<path fill="none" stroke="#191970" d="M1021.1894,-347.2298C1014.7333,-338.2183 1005.4468,-324.2668 999.5,-311 992.7938,-296.0392 987.8103,-278.1095 984.6336,-264.7161"/>
<polygon fill="#191970" stroke="#191970" points="987.991,-263.6918 982.3919,-254.6973 981.1599,-265.2203 987.991,-263.6918"/>
</g>
<!-- Node21&#45;&gt;Node7 -->
<g id="edge42" class="edge">
<title>Node21&#45;&gt;Node7</title>
<path fill="none" stroke="#191970" d="M1132.7741,-291.4371C1183.7998,-279.4611 1256.1218,-253.4694 1290.5,-199 1319.6283,-152.8487 1251.4796,-104.2718 1210.9345,-80.6412"/>
<polygon fill="#191970" stroke="#191970" points="1212.4464,-77.475 1202.0212,-75.5861 1208.993,-83.5639 1212.4464,-77.475"/>
</g>
<!-- Node22 -->
<g id="node23" class="node">
<title>Node22</title>
<g id="a_node23"><a xlink:href="PositionRaw_8h.html" target="_top" xlink:title="iDynTree/Core/PositionRaw.h">
<polygon fill="none" stroke="#000000" points="949.5,-174 949.5,-193 1105.5,-193 1105.5,-174 949.5,-174"/>
<text text-anchor="middle" x="1027.5" y="-181" font-family="FreeSans.ttf" font-size="10.00" fill="#000000">iDynTree/Core/PositionRaw.h</text>
</a>
</g>
</g>
<!-- Node21&#45;&gt;Node22 -->
<g id="edge31" class="edge">
<title>Node21&#45;&gt;Node22</title>
<path fill="none" stroke="#191970" d="M1074.7328,-291.3232C1072.1441,-278.2078 1066.718,-254.22 1058.5,-235 1053.5767,-223.4854 1046.4574,-211.4498 1040.2827,-201.9117"/>
<polygon fill="#191970" stroke="#191970" points="1043.0058,-199.6873 1034.5392,-193.318 1037.1859,-203.5769 1043.0058,-199.6873"/>
</g>
<!-- Node21&#45;&gt;Node23 -->
<g id="edge34" class="edge">
<title>Node21&#45;&gt;Node23</title>
<path fill="none" stroke="#191970" d="M1059.7781,-291.2455C1044.9111,-282.5731 1022.9534,-269.7645 1005.9142,-259.825"/>
<polygon fill="#191970" stroke="#191970" points="1007.4317,-256.6582 997.0303,-254.6427 1003.9045,-262.7047 1007.4317,-256.6582"/>
</g>
<!-- Node22&#45;&gt;Node7 -->
<g id="edge33" class="edge">
<title>Node22&#45;&gt;Node7</title>
<path fill="none" stroke="#191970" d="M1064.6764,-173.9583C1089.7842,-166.0243 1122.4301,-152.6438 1145.5,-132 1159.7714,-119.2294 1170.0581,-99.7817 1176.3006,-85.3008"/>
<polygon fill="#191970" stroke="#191970" points="1179.6375,-86.3841 1180.1305,-75.8007 1173.1452,-83.7667 1179.6375,-86.3841"/>
</g>
<!-- Node22&#45;&gt;Node11 -->
<g id="edge32" class="edge">
<title>Node22&#45;&gt;Node11</title>
<path fill="none" stroke="#191970" d="M964.508,-173.9581C891.5008,-162.8991 771.3876,-144.7047 694.4057,-133.0436"/>
<polygon fill="#191970" stroke="#191970" points="694.7172,-129.5509 684.3058,-131.5137 693.6687,-136.472 694.7172,-129.5509"/>
</g>
<!-- Node23&#45;&gt;Node7 -->
<g id="edge35" class="edge">
<title>Node23&#45;&gt;Node7</title>
<path fill="none" stroke="#191970" d="M968.0788,-235.18C958.4984,-226.7529 945.9865,-213.6707 940.5,-199 926.5668,-161.7429 931.2871,-137.8729 961.5,-112 989.6679,-87.8783 1096.6519,-74.3441 1151.1595,-68.8804"/>
<polygon fill="#191970" stroke="#191970" points="1151.7071,-72.3438 1161.3224,-67.8946 1151.0312,-65.3765 1151.7071,-72.3438"/>
</g>
<!-- Node23&#45;&gt;Node11 -->
<g id="edge41" class="edge">
<title>Node23&#45;&gt;Node11</title>
<path fill="none" stroke="#191970" d="M958.7927,-235.434C923.3726,-220.0314 850.746,-189.3084 787.5,-168 748.5897,-154.8906 703.6685,-142.6116 670.3758,-134.0429"/>
<polygon fill="#191970" stroke="#191970" points="670.9914,-130.5879 660.4364,-131.506 669.2601,-137.3705 670.9914,-130.5879"/>
</g>
<!-- Node24 -->
<g id="node25" class="node">
<title>Node24</title>
<g id="a_node25"><a xlink:href="GeomVector3_8h.html" target="_top" xlink:title="iDynTree/Core/GeomVector3.h">
<polygon fill="none" stroke="#000000" points="324,-174 324,-193 487,-193 487,-174 324,-174"/>
<text text-anchor="middle" x="405.5" y="-181" font-family="FreeSans.ttf" font-size="10.00" fill="#000000">iDynTree/Core/GeomVector3.h</text>
</a>
</g>
</g>
<!-- Node23&#45;&gt;Node24 -->
<g id="edge36" class="edge">
<title>Node23&#45;&gt;Node24</title>
<path fill="none" stroke="#191970" d="M911.9976,-237.6732C808.8015,-226.6357 613.2681,-205.7222 497.6673,-193.3579"/>
<polygon fill="#191970" stroke="#191970" points="497.7391,-189.8457 487.4235,-192.2623 496.9946,-196.806 497.7391,-189.8457"/>
</g>
<!-- Node25 -->
<g id="node26" class="node">
<title>Node25</title>
<g id="a_node26"><a xlink:href="RotationRaw_8h.html" target="_top" xlink:title="iDynTree/Core/RotationRaw.h">
<polygon fill="none" stroke="#000000" points="1123.5,-174 1123.5,-193 1281.5,-193 1281.5,-174 1123.5,-174"/>
<text text-anchor="middle" x="1202.5" y="-181" font-family="FreeSans.ttf" font-size="10.00" fill="#000000">iDynTree/Core/RotationRaw.h</text>
</a>
</g>
</g>
<!-- Node23&#45;&gt;Node25 -->
<g id="edge38" class="edge">
<title>Node23&#45;&gt;Node25</title>
<path fill="none" stroke="#191970" d="M1015.1875,-235.3906C1053.7984,-224.6944 1116.286,-207.3836 1158.3548,-195.7294"/>
<polygon fill="#191970" stroke="#191970" points="1159.3535,-199.0847 1168.0561,-193.0419 1157.4846,-192.3387 1159.3535,-199.0847"/>
</g>
<!-- Node24&#45;&gt;Node11 -->
<g id="edge37" class="edge">
<title>Node24&#45;&gt;Node11</title>
<path fill="none" stroke="#191970" d="M439.25,-173.8906C476.7381,-163.2169 537.3597,-145.9566 578.2886,-134.3033"/>
<polygon fill="#191970" stroke="#191970" points="579.3277,-137.6466 587.987,-131.5419 577.4108,-130.9141 579.3277,-137.6466"/>
</g>
<!-- Node25&#45;&gt;Node2 -->
<g id="edge39" class="edge">
<title>Node25&#45;&gt;Node2</title>
<path fill="none" stroke="#191970" d="M1149.4845,-173.9571C1137.9599,-171.9399 1125.8279,-169.8601 1114.5,-168 1037.4115,-155.3417 949.0507,-142.021 887.9115,-132.9909"/>
<polygon fill="#191970" stroke="#191970" points="888.364,-129.5199 877.9603,-131.5235 887.3427,-136.445 888.364,-129.5199"/>
</g>
<!-- Node25&#45;&gt;Node7 -->
<g id="edge40" class="edge">
<title>Node25&#45;&gt;Node7</title>
<path fill="none" stroke="#191970" d="M1200.9452,-173.8845C1197.8416,-154.6913 1190.8228,-111.286 1186.6963,-85.7663"/>
<polygon fill="#191970" stroke="#191970" points="1190.1278,-85.0614 1185.0763,-75.7484 1183.2176,-86.1789 1190.1278,-85.0614"/>
</g>
<!-- Node27&#45;&gt;Node2 -->
<g id="edge55" class="edge">
<title>Node27&#45;&gt;Node2</title>
<path fill="none" stroke="#191970" d="M633.1298,-470.1887C656.7578,-434.8914 738.0715,-310.547 787.5,-199 795.9201,-179.9982 802.9543,-157.2565 807.3942,-141.4358"/>
<polygon fill="#191970" stroke="#191970" points="810.7895,-142.2879 810.0386,-131.7197 804.0352,-140.4495 810.7895,-142.2879"/>
</g>
<!-- Node27&#45;&gt;Node3 -->
<g id="edge71" class="edge">
<title>Node27&#45;&gt;Node3</title>
<path fill="none" stroke="#191970" d="M545.8216,-475.2025C423.5021,-467.4307 201.863,-451.2133 169.5,-434 130.2117,-413.1032 105.5,-401.5 105.5,-357 105.5,-357 105.5,-357 105.5,-183.5 105.5,-129.4291 167.1156,-95.9228 210.0161,-79.1468"/>
<polygon fill="#191970" stroke="#191970" points="211.2622,-82.4175 219.3939,-75.6259 208.8017,-75.8642 211.2622,-82.4175"/>
</g>
<!-- Node27&#45;&gt;Node11 -->
<g id="edge52" class="edge">
<title>Node27&#45;&gt;Node11</title>
<path fill="none" stroke="#191970" d="M615.7286,-470.3278C595.4224,-450.9706 553.5,-405.1738 553.5,-357 553.5,-357 553.5,-357 553.5,-245 553.5,-209.7513 554.6975,-198.4227 572.5,-168 579.2457,-156.4722 589.7557,-146.0565 599.315,-138.0631"/>
<polygon fill="#191970" stroke="#191970" points="601.6878,-140.6486 607.3523,-131.6952 597.3407,-135.162 601.6878,-140.6486"/>
</g>
<!-- Node27&#45;&gt;Node20 -->
<g id="edge70" class="edge">
<title>Node27&#45;&gt;Node20</title>
<path fill="none" stroke="#191970" d="M657.7098,-470.4507C729.6235,-448.4473 906.9773,-394.1823 987.5225,-369.5379"/>
<polygon fill="#191970" stroke="#191970" points="988.7718,-372.8159 997.3101,-366.5432 986.7237,-366.1222 988.7718,-372.8159"/>
</g>
<!-- Node27&#45;&gt;Node26 -->
<g id="edge48" class="edge">
<title>Node27&#45;&gt;Node26</title>
<path fill="none" stroke="#191970" d="M545.6124,-478.0401C440.2515,-474.3504 250.7096,-463.8183 91.5,-434 86.7443,-433.1093 81.8039,-431.9674 76.9364,-430.7079"/>
<polygon fill="#191970" stroke="#191970" points="77.7009,-427.2881 67.1301,-428.0004 75.8379,-434.0357 77.7009,-427.2881"/>
</g>
<!-- Node28 -->
<g id="node29" class="node">
<title>Node28</title>
<g id="a_node29"><a xlink:href="VectorDynSize_8h.html" target="_top" xlink:title="iDynTree/Core/VectorDynSize.h">
<polygon fill="none" stroke="#000000" points="970,-112.5 970,-131.5 1137,-131.5 1137,-112.5 970,-112.5"/>
<text text-anchor="middle" x="1053.5" y="-119.5" font-family="FreeSans.ttf" font-size="10.00" fill="#000000">iDynTree/Core/VectorDynSize.h</text>
</a>
</g>
</g>
<!-- Node27&#45;&gt;Node28 -->
<g id="edge49" class="edge">
<title>Node27&#45;&gt;Node28</title>
<path fill="none" stroke="#191970" d="M673.1527,-470.4861C716.7697,-461.4806 783.6725,-447.3839 841.5,-434 1060.9351,-383.213 1200.7327,-405.5742 1290.5,-199 1295.9911,-186.3637 1299.2652,-178.6301 1290.5,-168 1272.1622,-145.7607 1205.1153,-134.1401 1146.9934,-128.1475"/>
<polygon fill="#191970" stroke="#191970" points="1147.3021,-124.6611 1137.0069,-127.163 1146.6153,-131.6273 1147.3021,-124.6611"/>
</g>
<!-- Node29 -->
<g id="node30" class="node">
<title>Node29</title>
<g id="a_node30"><a xlink:href="MatrixDynSize_8h.html" target="_top" xlink:title="iDynTree/Core/MatrixDynSize.h">
<polygon fill="none" stroke="#000000" points="1357,-291.5 1357,-310.5 1524,-310.5 1524,-291.5 1357,-291.5"/>
<text text-anchor="middle" x="1440.5" y="-298.5" font-family="FreeSans.ttf" font-size="10.00" fill="#000000">iDynTree/Core/MatrixDynSize.h</text>
</a>
</g>
</g>
<!-- Node27&#45;&gt;Node29 -->
<g id="edge53" class="edge">
<title>Node27&#45;&gt;Node29</title>
<path fill="none" stroke="#191970" d="M707.2301,-478.6574C882.98,-475.1863 1288.9065,-463.9924 1343.5,-434 1389.8807,-408.5195 1419.9145,-350.3167 1432.9837,-320.0594"/>
<polygon fill="#191970" stroke="#191970" points="1436.2997,-321.1998 1436.8979,-310.6219 1429.8338,-318.518 1436.2997,-321.1998"/>
</g>
<!-- Node30 -->
<g id="node31" class="node">
<title>Node30</title>
<g id="a_node31"><a xlink:href="SpatialMotionVector_8h.html" target="_top" xlink:title="iDynTree/Core/SpatialMotion\lVector.h">
<polygon fill="none" stroke="#000000" points="359,-403.5 359,-433.5 514,-433.5 514,-403.5 359,-403.5"/>
<text text-anchor="start" x="367" y="-421.5" font-family="FreeSans.ttf" font-size="10.00" fill="#000000">iDynTree/Core/SpatialMotion</text>
<text text-anchor="middle" x="436.5" y="-410.5" font-family="FreeSans.ttf" font-size="10.00" fill="#000000">Vector.h</text>
</a>
</g>
</g>
<!-- Node27&#45;&gt;Node30 -->
<g id="edge56" class="edge">
<title>Node27&#45;&gt;Node30</title>
<path fill="none" stroke="#191970" d="M596.8125,-470.3906C569.0745,-461.4123 526.9385,-447.7735 492.8253,-436.7316"/>
<polygon fill="#191970" stroke="#191970" points="493.5711,-433.2943 482.9792,-433.5446 491.4154,-439.9541 493.5711,-433.2943"/>
</g>
<!-- Node32 -->
<g id="node33" class="node">
<title>Node32</title>
<g id="a_node33"><a xlink:href="SpatialForceVector_8h.html" target="_top" xlink:title="iDynTree/Core/SpatialForce\lVector.h">
<polygon fill="none" stroke="#000000" points="178.5,-403.5 178.5,-433.5 326.5,-433.5 326.5,-403.5 178.5,-403.5"/>
<text text-anchor="start" x="186.5" y="-421.5" font-family="FreeSans.ttf" font-size="10.00" fill="#000000">iDynTree/Core/SpatialForce</text>
<text text-anchor="middle" x="252.5" y="-410.5" font-family="FreeSans.ttf" font-size="10.00" fill="#000000">Vector.h</text>
</a>
</g>
</g>
<!-- Node27&#45;&gt;Node32 -->
<g id="edge66" class="edge">
<title>Node27&#45;&gt;Node32</title>
<path fill="none" stroke="#191970" d="M568.4729,-470.4581C506.4811,-460.2643 407.62,-444.0077 336.9921,-432.3938"/>
<polygon fill="#191970" stroke="#191970" points="337.2196,-428.8842 326.7842,-430.7152 336.0837,-435.7915 337.2196,-428.8842"/>
</g>
<!-- Node28&#45;&gt;Node7 -->
<g id="edge51" class="edge">
<title>Node28&#45;&gt;Node7</title>
<path fill="none" stroke="#191970" d="M1075.8478,-112.3733C1096.9033,-103.3032 1128.6495,-89.6279 1152.2175,-79.4755"/>
<polygon fill="#191970" stroke="#191970" points="1153.6444,-82.6719 1161.4438,-75.5011 1150.875,-76.243 1153.6444,-82.6719"/>
</g>
<!-- Node28&#45;&gt;Node12 -->
<g id="edge50" class="edge">
<title>Node28&#45;&gt;Node12</title>
<path fill="none" stroke="#191970" d="M979.7274,-112.4369C899.3528,-102.018 771.6813,-85.4679 692.4394,-75.1959"/>
<polygon fill="#191970" stroke="#191970" points="692.4346,-71.666 682.0676,-73.8513 691.5346,-78.6079 692.4346,-71.666"/>
</g>
<!-- Node29&#45;&gt;Node7 -->
<g id="edge54" class="edge">
<title>Node29&#45;&gt;Node7</title>
<path fill="none" stroke="#191970" d="M1441.7067,-291.0664C1444.9037,-259.7961 1450.1654,-162.4736 1399.5,-112 1373.9715,-86.5681 1269.4802,-73.6833 1215.7466,-68.6311"/>
<polygon fill="#191970" stroke="#191970" points="1215.9898,-65.1388 1205.7151,-67.7236 1215.3591,-72.1104 1215.9898,-65.1388"/>
</g>
<!-- Node30&#45;&gt;Node11 -->
<g id="edge57" class="edge">
<title>Node30&#45;&gt;Node11</title>
<path fill="none" stroke="#191970" d="M455.6237,-403.2216C479.004,-382.6825 515.5,-343.7715 515.5,-301 515.5,-301 515.5,-301 515.5,-245 515.5,-209.154 516.9364,-195.8536 539.5,-168 550.9868,-153.8201 568.0793,-143.2523 583.6908,-135.8461"/>
<polygon fill="#191970" stroke="#191970" points="585.4397,-138.8989 593.1564,-131.6392 582.5967,-132.5023 585.4397,-138.8989"/>
</g>
<!-- Node30&#45;&gt;Node24 -->
<g id="edge58" class="edge">
<title>Node30&#45;&gt;Node24</title>
<path fill="none" stroke="#191970" d="M434.5137,-403.4422C429.1178,-362.5381 414.1877,-249.3587 408.1174,-203.3419"/>
<polygon fill="#191970" stroke="#191970" points="411.5541,-202.631 406.7762,-193.1746 404.6142,-203.5465 411.5541,-202.631"/>
</g>
<!-- Node31 -->
<g id="node32" class="node">
<title>Node31</title>
<g id="a_node32"><a xlink:href="SpatialVector_8h.html" target="_top" xlink:title="iDynTree/Core/SpatialVector.h">
<polygon fill="none" stroke="#000000" points="215,-347.5 215,-366.5 376,-366.5 376,-347.5 215,-347.5"/>
<text text-anchor="middle" x="295.5" y="-354.5" font-family="FreeSans.ttf" font-size="10.00" fill="#000000">iDynTree/Core/SpatialVector.h</text>
</a>
</g>
</g>
<!-- Node30&#45;&gt;Node31 -->
<g id="edge59" class="edge">
<title>Node30&#45;&gt;Node31</title>
<path fill="none" stroke="#191970" d="M402.0075,-403.4554C378.9972,-393.419 348.9914,-380.3314 326.6945,-370.6061"/>
<polygon fill="#191970" stroke="#191970" points="327.9154,-367.3202 317.35,-366.5303 325.1167,-373.7364 327.9154,-367.3202"/>
</g>
<!-- Node31&#45;&gt;Node3 -->
<g id="edge62" class="edge">
<title>Node31&#45;&gt;Node3</title>
<path fill="none" stroke="#191970" d="M280.9038,-347.2204C269.3494,-338.8168 253.538,-325.7464 243.5,-311 225.9364,-285.198 219.5,-276.2125 219.5,-245 219.5,-245 219.5,-245 219.5,-183.5 219.5,-147.8027 233.0425,-107.9632 242.2257,-85.0516"/>
<polygon fill="#191970" stroke="#191970" points="245.58,-86.1008 246.1896,-75.5235 239.1169,-83.412 245.58,-86.1008"/>
</g>
<!-- Node31&#45;&gt;Node8 -->
<g id="edge64" class="edge">
<title>Node31&#45;&gt;Node8</title>
<path fill="none" stroke="#191970" d="M289.893,-347.4834C279.3226,-328.6141 257.5,-284.8343 257.5,-245 257.5,-245 257.5,-245 257.5,-183.5 257.5,-149.9798 258.4067,-136.2961 281.5,-112 301.7864,-90.657 333.1853,-79.034 358.3499,-72.8136"/>
<polygon fill="#191970" stroke="#191970" points="359.3762,-76.1697 368.3509,-70.539 357.8237,-69.344 359.3762,-76.1697"/>
</g>
<!-- Node31&#45;&gt;Node9 -->
<g id="edge65" class="edge">
<title>Node31&#45;&gt;Node9</title>
<path fill="none" stroke="#191970" d="M295.5,-347.4116C295.5,-328.0538 295.5,-282.9167 295.5,-245 295.5,-245 295.5,-245 295.5,-183.5 295.5,-142.8507 414.1364,-98.3865 476.7727,-77.7435"/>
<polygon fill="#191970" stroke="#191970" points="477.8907,-81.0604 486.3179,-74.6392 475.7257,-74.4036 477.8907,-81.0604"/>
</g>
<!-- Node31&#45;&gt;Node21 -->
<g id="edge60" class="edge">
<title>Node31&#45;&gt;Node21</title>
<path fill="none" stroke="#191970" d="M376.1391,-351.2179C526.9123,-340.4071 849.686,-317.2632 998.4587,-306.5958"/>
<polygon fill="#191970" stroke="#191970" points="998.71,-310.0869 1008.434,-305.8805 998.2093,-303.1048 998.71,-310.0869"/>
</g>
<!-- Node31&#45;&gt;Node23 -->
<g id="edge61" class="edge">
<title>Node31&#45;&gt;Node23</title>
<path fill="none" stroke="#191970" d="M353.6072,-347.4993C479.5441,-326.9081 777.1423,-278.2497 911.9794,-256.2034"/>
<polygon fill="#191970" stroke="#191970" points="912.8763,-259.6033 922.1805,-254.5355 911.7467,-252.695 912.8763,-259.6033"/>
</g>
<!-- Node31&#45;&gt;Node24 -->
<g id="edge63" class="edge">
<title>Node31&#45;&gt;Node24</title>
<path fill="none" stroke="#191970" d="M301.5708,-347.4248C319.1837,-319.6443 370.5198,-238.6733 393.7904,-201.9693"/>
<polygon fill="#191970" stroke="#191970" points="396.9138,-203.5793 399.3124,-193.2595 391.0018,-199.831 396.9138,-203.5793"/>
</g>
<!-- Node32&#45;&gt;Node11 -->
<g id="edge67" class="edge">
<title>Node32&#45;&gt;Node11</title>
<path fill="none" stroke="#191970" d="M223.5762,-403.4746C191.2844,-384.3829 143.5,-348.1635 143.5,-301 143.5,-301 143.5,-301 143.5,-245 143.5,-165.8959 392.1284,-136.9154 530.7589,-126.9048"/>
<polygon fill="#191970" stroke="#191970" points="531.2243,-130.3808 540.9543,-126.1884 530.7336,-123.398 531.2243,-130.3808"/>
</g>
<!-- Node32&#45;&gt;Node24 -->
<g id="edge68" class="edge">
<title>Node32&#45;&gt;Node24</title>
<path fill="none" stroke="#191970" d="M231.394,-403.3374C214.6983,-389.3463 195.6993,-367.6709 205.5,-347 240.7315,-272.6922 328.1028,-220.9501 374.845,-197.571"/>
<polygon fill="#191970" stroke="#191970" points="376.4508,-200.6819 383.8968,-193.1448 373.3758,-194.3934 376.4508,-200.6819"/>
</g>
<!-- Node32&#45;&gt;Node31 -->
<g id="edge69" class="edge">
<title>Node32&#45;&gt;Node31</title>
<path fill="none" stroke="#191970" d="M263.1292,-403.2977C269.0981,-394.7609 276.5838,-384.0545 282.8529,-375.0883"/>
<polygon fill="#191970" stroke="#191970" points="285.7534,-377.048 288.6152,-366.8469 280.0165,-373.0368 285.7534,-377.048"/>
</g>
</g>
</svg>
