<?xml version="1.0" encoding="UTF-8" standalone="no"?>
<!DOCTYPE svg PUBLIC "-//W3C//DTD SVG 1.1//EN"
 "http://www.w3.org/Graphics/SVG/1.1/DTD/svg11.dtd">
<!-- Generated by graphviz version 2.40.1 (20161225.0304)
 -->
<!-- Title: Traversal.cpp Pages: 1 -->
<svg width="1522pt" height="733pt"
 viewBox="0.00 0.00 1522.00 733.00" xmlns="http://www.w3.org/2000/svg" xmlns:xlink="http://www.w3.org/1999/xlink">
<g id="graph0" class="graph" transform="scale(1 1) rotate(0) translate(4 729)">
<title>Traversal.cpp</title>
<!-- Node0 -->
<g id="node1" class="node">
<title>Node0</title>
<polygon fill="#bfbfbf" stroke="#000000" points="960.5,-705.5 960.5,-724.5 1041.5,-724.5 1041.5,-705.5 960.5,-705.5"/>
<text text-anchor="middle" x="1001" y="-712.5" font-family="FreeSans.ttf" font-size="10.00" fill="#000000">Traversal.cpp</text>
</g>
<!-- Node1 -->
<g id="node2" class="node">
<title>Node1</title>
<g id="a_node2"><a xlink:href="Traversal_8h.html" target="_top" xlink:title="iDynTree/Model/Traversal.h">
<polygon fill="none" stroke="#000000" points="184,-593.5 184,-612.5 332,-612.5 332,-593.5 184,-593.5"/>
<text text-anchor="middle" x="258" y="-600.5" font-family="FreeSans.ttf" font-size="10.00" fill="#000000">iDynTree/Model/Traversal.h</text>
</a>
</g>
</g>
<!-- Node0&#45;&gt;Node1 -->
<g id="edge1" class="edge">
<title>Node0&#45;&gt;Node1</title>
<path fill="none" stroke="#191970" d="M960.1819,-713.4177C845.5187,-708.7123 522.1555,-693.5843 419,-669 369.9991,-657.322 316.5244,-632.8549 285.1942,-617.2142"/>
<polygon fill="#191970" stroke="#191970" points="286.7142,-614.0608 276.2114,-612.6675 283.5529,-620.3064 286.7142,-614.0608"/>
</g>
<!-- Node5 -->
<g id="node6" class="node">
<title>Node5</title>
<g id="a_node6"><a xlink:href="Model_8h.html" target="_top" xlink:title="iDynTree/Model/Model.h">
<polygon fill="none" stroke="#000000" points="428.5,-649.5 428.5,-668.5 561.5,-668.5 561.5,-649.5 428.5,-649.5"/>
<text text-anchor="middle" x="495" y="-656.5" font-family="FreeSans.ttf" font-size="10.00" fill="#000000">iDynTree/Model/Model.h</text>
</a>
</g>
</g>
<!-- Node0&#45;&gt;Node5 -->
<g id="edge5" class="edge">
<title>Node0&#45;&gt;Node5</title>
<path fill="none" stroke="#191970" d="M960.4472,-710.5119C876.1609,-701.1838 680.8551,-679.5689 571.9261,-667.5136"/>
<polygon fill="#191970" stroke="#191970" points="571.9852,-663.9988 561.6608,-666.3775 571.2151,-670.9563 571.9852,-663.9988"/>
</g>
<!-- Node14 -->
<g id="node15" class="node">
<title>Node14</title>
<polygon fill="none" stroke="#bfbfbf" points="1462,-.5 1462,-19.5 1514,-19.5 1514,-.5 1462,-.5"/>
<text text-anchor="middle" x="1488" y="-7.5" font-family="FreeSans.ttf" font-size="10.00" fill="#000000">cassert</text>
</g>
<!-- Node0&#45;&gt;Node14 -->
<g id="edge82" class="edge">
<title>Node0&#45;&gt;Node14</title>
<path fill="none" stroke="#191970" d="M1041.7305,-713.4128C1133.3372,-709.3828 1352.9134,-697.0225 1421,-669 1464.583,-651.0625 1504,-650.13 1504,-603 1504,-603 1504,-603 1504,-122 1504,-89.2342 1497.2061,-51.6134 1492.4725,-29.3778"/>
<polygon fill="#191970" stroke="#191970" points="1495.8698,-28.5307 1490.2924,-19.5228 1489.0351,-30.0428 1495.8698,-28.5307"/>
</g>
<!-- Node17 -->
<g id="node18" class="node">
<title>Node17</title>
<polygon fill="none" stroke="#bfbfbf" points="1395,-56.5 1395,-75.5 1451,-75.5 1451,-56.5 1395,-56.5"/>
<text text-anchor="middle" x="1423" y="-63.5" font-family="FreeSans.ttf" font-size="10.00" fill="#000000">sstream</text>
</g>
<!-- Node0&#45;&gt;Node17 -->
<g id="edge83" class="edge">
<title>Node0&#45;&gt;Node17</title>
<path fill="none" stroke="#191970" d="M1041.8581,-713.8508C1155.3267,-709.5598 1466,-689.8784 1466,-603 1466,-603 1466,-603 1466,-178 1466,-143.1403 1447.6207,-105.9899 1434.8941,-84.444"/>
<polygon fill="#191970" stroke="#191970" points="1437.7451,-82.3983 1429.5308,-75.7069 1431.7794,-86.0603 1437.7451,-82.3983"/>
</g>
<!-- Node2 -->
<g id="node3" class="node">
<title>Node2</title>
<g id="a_node3"><a xlink:href="Indices_8h.html" target="_top" xlink:title="iDynTree/Model/Indices.h">
<polygon fill="none" stroke="#000000" points="184,-537.5 184,-556.5 322,-556.5 322,-537.5 184,-537.5"/>
<text text-anchor="middle" x="253" y="-544.5" font-family="FreeSans.ttf" font-size="10.00" fill="#000000">iDynTree/Model/Indices.h</text>
</a>
</g>
</g>
<!-- Node1&#45;&gt;Node2 -->
<g id="edge2" class="edge">
<title>Node1&#45;&gt;Node2</title>
<path fill="none" stroke="#191970" d="M257.1291,-593.2455C256.4766,-585.9382 255.562,-575.6944 254.7593,-566.7046"/>
<polygon fill="#191970" stroke="#191970" points="258.2365,-566.2918 253.861,-556.6427 251.2642,-566.9143 258.2365,-566.2918"/>
</g>
<!-- Node4 -->
<g id="node5" class="node">
<title>Node4</title>
<polygon fill="none" stroke="#bfbfbf" points="340.5,-537.5 340.5,-556.5 387.5,-556.5 387.5,-537.5 340.5,-537.5"/>
<text text-anchor="middle" x="364" y="-544.5" font-family="FreeSans.ttf" font-size="10.00" fill="#000000">vector</text>
</g>
<!-- Node1&#45;&gt;Node4 -->
<g id="edge4" class="edge">
<title>Node1&#45;&gt;Node4</title>
<path fill="none" stroke="#191970" d="M276.4638,-593.2455C293.1074,-584.4527 317.7993,-571.4079 336.7192,-561.4125"/>
<polygon fill="#191970" stroke="#191970" points="338.5408,-564.4086 345.7478,-556.6427 335.2709,-558.2193 338.5408,-564.4086"/>
</g>
<!-- Node3 -->
<g id="node4" class="node">
<title>Node3</title>
<polygon fill="none" stroke="#bfbfbf" points="600,-56.5 600,-75.5 644,-75.5 644,-56.5 600,-56.5"/>
<text text-anchor="middle" x="622" y="-63.5" font-family="FreeSans.ttf" font-size="10.00" fill="#000000">string</text>
</g>
<!-- Node2&#45;&gt;Node3 -->
<g id="edge3" class="edge">
<title>Node2&#45;&gt;Node3</title>
<path fill="none" stroke="#191970" d="M269.7188,-537.3729C299.8125,-518.6506 360,-474.2387 360,-418.5 360,-418.5 360,-418.5 360,-178 360,-136.5164 389.7542,-132.1774 426,-112 478.5639,-82.7386 549.0463,-72.0305 589.5914,-68.1548"/>
<polygon fill="#191970" stroke="#191970" points="590.0521,-71.628 599.7096,-67.2711 589.443,-64.6546 590.0521,-71.628"/>
</g>
<!-- Node5&#45;&gt;Node2 -->
<g id="edge74" class="edge">
<title>Node5&#45;&gt;Node2</title>
<path fill="none" stroke="#191970" d="M428.1621,-654.0172C339.2578,-646.6997 191.3333,-631.8491 175,-613 157.2051,-592.4641 188.6341,-572.8732 216.75,-560.4492"/>
<polygon fill="#191970" stroke="#191970" points="218.2241,-563.6261 226.0821,-556.5195 215.5075,-557.1748 218.2241,-563.6261"/>
</g>
<!-- Node5&#45;&gt;Node4 -->
<g id="edge81" class="edge">
<title>Node5&#45;&gt;Node4</title>
<path fill="none" stroke="#191970" d="M442.0573,-649.4665C419.6118,-642.8311 394.9977,-631.6736 379,-613 368.1419,-600.3257 364.7149,-581.3993 363.8157,-567.0596"/>
<polygon fill="#191970" stroke="#191970" points="367.3062,-566.6537 363.5427,-556.7499 360.3087,-566.8391 367.3062,-566.6537"/>
</g>
<!-- Node6 -->
<g id="node7" class="node">
<title>Node6</title>
<g id="a_node7"><a xlink:href="IJoint_8h.html" target="_top" xlink:title="iDynTree/Model/IJoint.h">
<polygon fill="none" stroke="#000000" points="0,-593.5 0,-612.5 128,-612.5 128,-593.5 0,-593.5"/>
<text text-anchor="middle" x="64" y="-600.5" font-family="FreeSans.ttf" font-size="10.00" fill="#000000">iDynTree/Model/IJoint.h</text>
</a>
</g>
</g>
<!-- Node5&#45;&gt;Node6 -->
<g id="edge6" class="edge">
<title>Node5&#45;&gt;Node6</title>
<path fill="none" stroke="#191970" d="M428.1291,-650.3114C349.6746,-640.1178 219.9778,-623.2663 138.4051,-612.6675"/>
<polygon fill="#191970" stroke="#191970" points="138.5781,-609.1606 128.2104,-611.3429 137.6761,-616.1023 138.5781,-609.1606"/>
</g>
<!-- Node7 -->
<g id="node8" class="node">
<title>Node7</title>
<g id="a_node8"><a xlink:href="Link_8h.html" target="_top" xlink:title="iDynTree/Model/Link.h">
<polygon fill="none" stroke="#000000" points="388,-593.5 388,-612.5 512,-612.5 512,-593.5 388,-593.5"/>
<text text-anchor="middle" x="450" y="-600.5" font-family="FreeSans.ttf" font-size="10.00" fill="#000000">iDynTree/Model/Link.h</text>
</a>
</g>
</g>
<!-- Node5&#45;&gt;Node7 -->
<g id="edge8" class="edge">
<title>Node5&#45;&gt;Node7</title>
<path fill="none" stroke="#191970" d="M487.1616,-649.2455C480.838,-641.3761 471.7776,-630.101 464.1864,-620.6542"/>
<polygon fill="#191970" stroke="#191970" points="466.7408,-618.2454 457.7486,-612.6427 461.2842,-622.6302 466.7408,-618.2454"/>
</g>
<!-- Node39 -->
<g id="node40" class="node">
<title>Node39</title>
<g id="a_node40"><a xlink:href="Transform_8h.html" target="_top" xlink:title="iDynTree/Core/Transform.h">
<polygon fill="none" stroke="#000000" points="508,-347.5 508,-366.5 654,-366.5 654,-347.5 508,-347.5"/>
<text text-anchor="middle" x="581" y="-354.5" font-family="FreeSans.ttf" font-size="10.00" fill="#000000">iDynTree/Core/Transform.h</text>
</a>
</g>
</g>
<!-- Node5&#45;&gt;Node39 -->
<g id="edge69" class="edge">
<title>Node5&#45;&gt;Node39</title>
<path fill="none" stroke="#191970" d="M501.7346,-649.2125C507.6443,-640.1894 516.047,-626.2305 521,-613 554.4015,-523.7773 537.8563,-494.6125 564,-403 566.5627,-394.0197 570.0503,-384.2901 573.1997,-376.1019"/>
<polygon fill="#191970" stroke="#191970" points="576.4844,-377.3131 576.913,-366.7269 569.9764,-374.7353 576.4844,-377.3131"/>
</g>
<!-- Node40 -->
<g id="node41" class="node">
<title>Node40</title>
<g id="a_node41"><a xlink:href="SolidShapes_8h.html" target="_top" xlink:title="iDynTree/Model/SolidShapes.h">
<polygon fill="none" stroke="#000000" points="568.5,-593.5 568.5,-612.5 731.5,-612.5 731.5,-593.5 568.5,-593.5"/>
<text text-anchor="middle" x="650" y="-600.5" font-family="FreeSans.ttf" font-size="10.00" fill="#000000">iDynTree/Model/SolidShapes.h</text>
</a>
</g>
</g>
<!-- Node5&#45;&gt;Node40 -->
<g id="edge75" class="edge">
<title>Node5&#45;&gt;Node40</title>
<path fill="none" stroke="#191970" d="M521.6454,-649.3733C547.1964,-640.1419 585.9512,-626.1402 614.1909,-615.9375"/>
<polygon fill="#191970" stroke="#191970" points="615.4865,-619.1909 623.7022,-612.5011 613.1079,-612.6074 615.4865,-619.1909"/>
</g>
<!-- Node41 -->
<g id="node42" class="node">
<title>Node41</title>
<polygon fill="none" stroke="#bfbfbf" points="948.5,-537.5 948.5,-556.5 997.5,-556.5 997.5,-537.5 948.5,-537.5"/>
<text text-anchor="middle" x="973" y="-544.5" font-family="FreeSans.ttf" font-size="10.00" fill="#000000">cstdlib</text>
</g>
<!-- Node5&#45;&gt;Node41 -->
<g id="edge80" class="edge">
<title>Node5&#45;&gt;Node41</title>
<path fill="none" stroke="#191970" d="M554.215,-649.4792C604.2407,-641.0657 677.6527,-627.8486 741,-613 826.9953,-592.8427 849.6097,-583.0288 938.7728,-557.0595"/>
<polygon fill="#191970" stroke="#191970" points="939.8652,-560.387 948.4949,-554.2405 937.9157,-553.6639 939.8652,-560.387"/>
</g>
<!-- Node6&#45;&gt;Node2 -->
<g id="edge7" class="edge">
<title>Node6&#45;&gt;Node2</title>
<path fill="none" stroke="#191970" d="M96.4903,-593.3733C128.1902,-583.9807 176.5576,-569.6496 211.1286,-559.4064"/>
<polygon fill="#191970" stroke="#191970" points="212.3401,-562.6979 220.9337,-556.5011 210.3514,-555.9863 212.3401,-562.6979"/>
</g>
<!-- Node7&#45;&gt;Node2 -->
<g id="edge68" class="edge">
<title>Node7&#45;&gt;Node2</title>
<path fill="none" stroke="#191970" d="M416.1345,-593.3733C382.951,-583.9404 332.245,-569.5265 296.1806,-559.2747"/>
<polygon fill="#191970" stroke="#191970" points="296.9995,-555.8689 286.4236,-556.5011 295.0855,-562.6021 296.9995,-555.8689"/>
</g>
<!-- Node8 -->
<g id="node9" class="node">
<title>Node8</title>
<g id="a_node9"><a xlink:href="SpatialInertia_8h.html" target="_top" xlink:title="iDynTree/Core/SpatialInertia.h">
<polygon fill="none" stroke="#000000" points="768,-537.5 768,-556.5 930,-556.5 930,-537.5 768,-537.5"/>
<text text-anchor="middle" x="849" y="-544.5" font-family="FreeSans.ttf" font-size="10.00" fill="#000000">iDynTree/Core/SpatialInertia.h</text>
</a>
</g>
</g>
<!-- Node7&#45;&gt;Node8 -->
<g id="edge9" class="edge">
<title>Node7&#45;&gt;Node8</title>
<path fill="none" stroke="#191970" d="M512.3438,-594.25C582.1937,-584.4465 695.5212,-568.5409 771.1392,-557.9278"/>
<polygon fill="#191970" stroke="#191970" points="771.6726,-561.3874 781.0891,-556.5314 770.6997,-554.4553 771.6726,-561.3874"/>
</g>
<!-- Node9 -->
<g id="node10" class="node">
<title>Node9</title>
<g id="a_node10"><a xlink:href="SpatialInertiaRaw_8h.html" target="_top" xlink:title="iDynTree/Core/SpatialInertia\lRaw.h">
<polygon fill="none" stroke="#000000" points="584.5,-470.5 584.5,-500.5 737.5,-500.5 737.5,-470.5 584.5,-470.5"/>
<text text-anchor="start" x="592.5" y="-488.5" font-family="FreeSans.ttf" font-size="10.00" fill="#000000">iDynTree/Core/SpatialInertia</text>
<text text-anchor="middle" x="661" y="-477.5" font-family="FreeSans.ttf" font-size="10.00" fill="#000000">Raw.h</text>
</a>
</g>
</g>
<!-- Node8&#45;&gt;Node9 -->
<g id="edge10" class="edge">
<title>Node8&#45;&gt;Node9</title>
<path fill="none" stroke="#191970" d="M819.625,-537.3906C792.179,-528.4123 750.4865,-514.7735 716.7324,-503.7316"/>
<polygon fill="#191970" stroke="#191970" points="717.5826,-500.3273 706.99,-500.5446 715.4061,-506.9803 717.5826,-500.3273"/>
</g>
<!-- Node18 -->
<g id="node19" class="node">
<title>Node18</title>
<g id="a_node19"><a xlink:href="VectorFixSize_8h.html" target="_top" xlink:title="iDynTree/Core/VectorFixSize.h">
<polygon fill="none" stroke="#000000" points="1123.5,-112.5 1123.5,-131.5 1284.5,-131.5 1284.5,-112.5 1123.5,-112.5"/>
<text text-anchor="middle" x="1204" y="-119.5" font-family="FreeSans.ttf" font-size="10.00" fill="#000000">iDynTree/Core/VectorFixSize.h</text>
</a>
</g>
</g>
<!-- Node8&#45;&gt;Node18 -->
<g id="edge20" class="edge">
<title>Node8&#45;&gt;Node18</title>
<path fill="none" stroke="#191970" d="M930.3512,-537.9264C933.6091,-537.6055 936.835,-537.2953 940,-537 992.0384,-532.1449 1373.4858,-539.3447 1409,-501 1460.1478,-445.7757 1398.4333,-222.9586 1347,-168 1334.7141,-154.872 1294.1761,-142.5407 1259.3852,-133.9566"/>
<polygon fill="#191970" stroke="#191970" points="1259.8242,-130.4624 1249.283,-131.5268 1258.1872,-137.2683 1259.8242,-130.4624"/>
</g>
<!-- Node27 -->
<g id="node28" class="node">
<title>Node27</title>
<g id="a_node28"><a xlink:href="Twist_8h.html" target="_top" xlink:title="iDynTree/Core/Twist.h">
<polygon fill="none" stroke="#000000" points="1112,-476 1112,-495 1234,-495 1234,-476 1112,-476"/>
<text text-anchor="middle" x="1173" y="-483" font-family="FreeSans.ttf" font-size="10.00" fill="#000000">iDynTree/Core/Twist.h</text>
</a>
</g>
</g>
<!-- Node8&#45;&gt;Node27 -->
<g id="edge36" class="edge">
<title>Node8&#45;&gt;Node27</title>
<path fill="none" stroke="#191970" d="M905.1126,-537.4808C956.6599,-528.5836 1035.1216,-514.6562 1103,-501 1108.863,-499.8204 1114.9909,-498.5377 1121.0779,-497.232"/>
<polygon fill="#191970" stroke="#191970" points="1122.1998,-500.57 1131.2291,-495.0271 1120.714,-493.7295 1122.1998,-500.57"/>
</g>
<!-- Node35 -->
<g id="node36" class="node">
<title>Node35</title>
<g id="a_node36"><a xlink:href="SpatialMomentum_8h.html" target="_top" xlink:title="iDynTree/Core/SpatialMomentum.h">
<polygon fill="none" stroke="#000000" points="756,-476 756,-495 942,-495 942,-476 756,-476"/>
<text text-anchor="middle" x="849" y="-483" font-family="FreeSans.ttf" font-size="10.00" fill="#000000">iDynTree/Core/SpatialMomentum.h</text>
</a>
</g>
</g>
<!-- Node8&#45;&gt;Node35 -->
<g id="edge59" class="edge">
<title>Node8&#45;&gt;Node35</title>
<path fill="none" stroke="#191970" d="M849,-537.3906C849,-528.8657 849,-516.1392 849,-505.4235"/>
<polygon fill="#191970" stroke="#191970" points="852.5001,-505.2448 849,-495.2449 845.5001,-505.2449 852.5001,-505.2448"/>
</g>
<!-- Node37 -->
<g id="node38" class="node">
<title>Node37</title>
<g id="a_node38"><a xlink:href="SpatialAcc_8h.html" target="_top" xlink:title="iDynTree/Core/SpatialAcc.h">
<polygon fill="none" stroke="#000000" points="1252,-476 1252,-495 1400,-495 1400,-476 1252,-476"/>
<text text-anchor="middle" x="1326" y="-483" font-family="FreeSans.ttf" font-size="10.00" fill="#000000">iDynTree/Core/SpatialAcc.h</text>
</a>
</g>
</g>
<!-- Node8&#45;&gt;Node37 -->
<g id="edge64" class="edge">
<title>Node8&#45;&gt;Node37</title>
<path fill="none" stroke="#191970" d="M930.2476,-537.8154C1036.5547,-525.7513 1212.9129,-505.5602 1243,-501 1251.037,-499.7819 1259.4866,-498.3642 1267.793,-496.8905"/>
<polygon fill="#191970" stroke="#191970" points="1268.6006,-500.3013 1277.8166,-495.0749 1267.3529,-493.4134 1268.6006,-500.3013"/>
</g>
<!-- Node38 -->
<g id="node39" class="node">
<title>Node38</title>
<g id="a_node39"><a xlink:href="Wrench_8h.html" target="_top" xlink:title="iDynTree/Core/Wrench.h">
<polygon fill="none" stroke="#000000" points="960.5,-476 960.5,-495 1093.5,-495 1093.5,-476 960.5,-476"/>
<text text-anchor="middle" x="1027" y="-483" font-family="FreeSans.ttf" font-size="10.00" fill="#000000">iDynTree/Core/Wrench.h</text>
</a>
</g>
</g>
<!-- Node8&#45;&gt;Node38 -->
<g id="edge66" class="edge">
<title>Node8&#45;&gt;Node38</title>
<path fill="none" stroke="#191970" d="M876.8125,-537.3906C907.2483,-526.8749 956.1877,-509.966 989.8826,-498.3243"/>
<polygon fill="#191970" stroke="#191970" points="991.074,-501.6157 999.3828,-495.0419 988.788,-494.9995 991.074,-501.6157"/>
</g>
<!-- Node10 -->
<g id="node11" class="node">
<title>Node10</title>
<g id="a_node11"><a xlink:href="RotationalInertiaRaw_8h.html" target="_top" xlink:title="iDynTree/Core/Rotational\lInertiaRaw.h">
<polygon fill="none" stroke="#000000" points="890.5,-280.5 890.5,-310.5 1027.5,-310.5 1027.5,-280.5 890.5,-280.5"/>
<text text-anchor="start" x="898.5" y="-298.5" font-family="FreeSans.ttf" font-size="10.00" fill="#000000">iDynTree/Core/Rotational</text>
<text text-anchor="middle" x="959" y="-287.5" font-family="FreeSans.ttf" font-size="10.00" fill="#000000">InertiaRaw.h</text>
</a>
</g>
</g>
<!-- Node9&#45;&gt;Node10 -->
<g id="edge11" class="edge">
<title>Node9&#45;&gt;Node10</title>
<path fill="none" stroke="#191970" d="M684.6326,-470.4322C737.6637,-436.6204 866.2121,-354.6601 926.62,-316.145"/>
<polygon fill="#191970" stroke="#191970" points="928.8146,-318.8967 935.3649,-310.5693 925.0513,-312.9943 928.8146,-318.8967"/>
</g>
<!-- Node11 -->
<g id="node12" class="node">
<title>Node11</title>
<g id="a_node12"><a xlink:href="MatrixFixSize_8h.html" target="_top" xlink:title="iDynTree/Core/MatrixFixSize.h">
<polygon fill="none" stroke="#000000" points="866.5,-112.5 866.5,-131.5 1027.5,-131.5 1027.5,-112.5 866.5,-112.5"/>
<text text-anchor="middle" x="947" y="-119.5" font-family="FreeSans.ttf" font-size="10.00" fill="#000000">iDynTree/Core/MatrixFixSize.h</text>
</a>
</g>
</g>
<!-- Node10&#45;&gt;Node11 -->
<g id="edge12" class="edge">
<title>Node10&#45;&gt;Node11</title>
<path fill="none" stroke="#191970" d="M970.8731,-280.1525C988.1984,-255.7589 1016.5333,-206.9194 999,-168 993.4303,-155.6369 982.7137,-145.2563 972.4494,-137.5033"/>
<polygon fill="#191970" stroke="#191970" points="974.2549,-134.4948 964.0567,-131.623 970.2382,-140.2277 974.2549,-134.4948"/>
</g>
<!-- Node11&#45;&gt;Node3 -->
<g id="edge17" class="edge">
<title>Node11&#45;&gt;Node3</title>
<path fill="none" stroke="#191970" d="M891.4998,-112.4369C823.2016,-100.6686 709.5079,-81.0783 654.1962,-71.5476"/>
<polygon fill="#191970" stroke="#191970" points="654.7062,-68.084 644.2571,-69.8351 653.5175,-74.9824 654.7062,-68.084"/>
</g>
<!-- Node12 -->
<g id="node13" class="node">
<title>Node12</title>
<g id="a_node13"><a xlink:href="Utils_8h.html" target="_top" xlink:title="iDynTree/Core/Utils.h">
<polygon fill="none" stroke="#000000" points="849.5,-56.5 849.5,-75.5 968.5,-75.5 968.5,-56.5 849.5,-56.5"/>
<text text-anchor="middle" x="909" y="-63.5" font-family="FreeSans.ttf" font-size="10.00" fill="#000000">iDynTree/Core/Utils.h</text>
</a>
</g>
</g>
<!-- Node11&#45;&gt;Node12 -->
<g id="edge13" class="edge">
<title>Node11&#45;&gt;Node12</title>
<path fill="none" stroke="#191970" d="M940.3809,-112.2455C935.0954,-104.4564 927.5459,-93.3308 921.1762,-83.9439"/>
<polygon fill="#191970" stroke="#191970" points="924.0545,-81.9522 915.5432,-75.6427 918.2621,-85.8827 924.0545,-81.9522"/>
</g>
<!-- Node11&#45;&gt;Node14 -->
<g id="edge15" class="edge">
<title>Node11&#45;&gt;Node14</title>
<path fill="none" stroke="#191970" d="M1027.5874,-115.6658C1094.3696,-109.2292 1191.3793,-97.1226 1274,-76 1298.3924,-69.7639 1303.0978,-63.9095 1327,-56 1327.3827,-55.8734 1404.6155,-33.8135 1451.9584,-20.2927"/>
<polygon fill="#191970" stroke="#191970" points="1453.2005,-23.578 1461.8549,-17.4664 1451.2782,-16.8471 1453.2005,-23.578"/>
</g>
<!-- Node15 -->
<g id="node16" class="node">
<title>Node15</title>
<polygon fill="none" stroke="#bfbfbf" points="1072,-56.5 1072,-75.5 1122,-75.5 1122,-56.5 1072,-56.5"/>
<text text-anchor="middle" x="1097" y="-63.5" font-family="FreeSans.ttf" font-size="10.00" fill="#000000">cstring</text>
</g>
<!-- Node11&#45;&gt;Node15 -->
<g id="edge16" class="edge">
<title>Node11&#45;&gt;Node15</title>
<path fill="none" stroke="#191970" d="M972.7859,-112.3733C997.4047,-103.1822 1034.69,-89.2624 1061.9875,-79.0713"/>
<polygon fill="#191970" stroke="#191970" points="1063.4063,-82.2777 1071.5506,-75.5011 1060.958,-75.7198 1063.4063,-82.2777"/>
</g>
<!-- Node16 -->
<g id="node17" class="node">
<title>Node16</title>
<polygon fill="none" stroke="#bfbfbf" points="989,-56.5 989,-75.5 1049,-75.5 1049,-56.5 989,-56.5"/>
<text text-anchor="middle" x="1019" y="-63.5" font-family="FreeSans.ttf" font-size="10.00" fill="#000000">iostream</text>
</g>
<!-- Node11&#45;&gt;Node16 -->
<g id="edge18" class="edge">
<title>Node11&#45;&gt;Node16</title>
<path fill="none" stroke="#191970" d="M959.5414,-112.2455C970.2787,-103.8943 985.9473,-91.7076 998.5047,-81.9408"/>
<polygon fill="#191970" stroke="#191970" points="1000.8575,-84.5449 1006.6023,-75.6427 996.5599,-79.0194 1000.8575,-84.5449"/>
</g>
<!-- Node11&#45;&gt;Node17 -->
<g id="edge19" class="edge">
<title>Node11&#45;&gt;Node17</title>
<path fill="none" stroke="#191970" d="M1027.7469,-112.5004C1131.485,-100.2959 1307.3698,-79.6036 1384.6471,-70.5121"/>
<polygon fill="#191970" stroke="#191970" points="1385.3566,-73.9529 1394.8791,-69.3083 1384.5386,-67.0008 1385.3566,-73.9529"/>
</g>
<!-- Node13 -->
<g id="node14" class="node">
<title>Node13</title>
<polygon fill="none" stroke="#bfbfbf" points="881.5,-.5 881.5,-19.5 934.5,-19.5 934.5,-.5 881.5,-.5"/>
<text text-anchor="middle" x="908" y="-7.5" font-family="FreeSans.ttf" font-size="10.00" fill="#000000">cstddef</text>
</g>
<!-- Node12&#45;&gt;Node13 -->
<g id="edge14" class="edge">
<title>Node12&#45;&gt;Node13</title>
<path fill="none" stroke="#191970" d="M908.8258,-56.2455C908.6953,-48.9382 908.5124,-38.6944 908.3519,-29.7046"/>
<polygon fill="#191970" stroke="#191970" points="911.8503,-29.5786 908.1722,-19.6427 904.8514,-29.7036 911.8503,-29.5786"/>
</g>
<!-- Node18&#45;&gt;Node3 -->
<g id="edge32" class="edge">
<title>Node18&#45;&gt;Node3</title>
<path fill="none" stroke="#191970" d="M1123.3811,-114.2429C993.3765,-101.7338 743.0252,-77.645 654.2141,-69.0996"/>
<polygon fill="#191970" stroke="#191970" points="654.4925,-65.6103 644.2032,-68.1364 653.822,-72.5782 654.4925,-65.6103"/>
</g>
<!-- Node18&#45;&gt;Node12 -->
<g id="edge21" class="edge">
<title>Node18&#45;&gt;Node12</title>
<path fill="none" stroke="#191970" d="M1153.6229,-112.4369C1102.4995,-102.7321 1023.3545,-87.708 969.0147,-77.3926"/>
<polygon fill="#191970" stroke="#191970" points="969.6467,-73.9502 959.1693,-75.5237 968.3411,-80.8273 969.6467,-73.9502"/>
</g>
<!-- Node18&#45;&gt;Node14 -->
<g id="edge34" class="edge">
<title>Node18&#45;&gt;Node14</title>
<path fill="none" stroke="#191970" d="M1230.4836,-112.3664C1255.4549,-103.219 1293.8857,-88.9759 1327,-76 1371.9893,-58.3709 1423.6122,-37.0056 1456.0155,-23.4553"/>
<polygon fill="#191970" stroke="#191970" points="1457.5546,-26.6053 1465.4261,-19.5137 1454.8503,-20.1488 1457.5546,-26.6053"/>
</g>
<!-- Node18&#45;&gt;Node15 -->
<g id="edge35" class="edge">
<title>Node18&#45;&gt;Node15</title>
<path fill="none" stroke="#191970" d="M1185.362,-112.2455C1168.5614,-103.4527 1143.6366,-90.4079 1124.5382,-80.4125"/>
<polygon fill="#191970" stroke="#191970" points="1125.9073,-77.1787 1115.4244,-75.6427 1122.6614,-83.3807 1125.9073,-77.1787"/>
</g>
<!-- Node18&#45;&gt;Node17 -->
<g id="edge33" class="edge">
<title>Node18&#45;&gt;Node17</title>
<path fill="none" stroke="#191970" d="M1241.6474,-112.3733C1281.7833,-102.1102 1344.978,-85.9508 1385.1799,-75.6709"/>
<polygon fill="#191970" stroke="#191970" points="1386.0561,-79.0595 1394.8773,-73.1912 1384.3219,-72.2777 1386.0561,-79.0595"/>
</g>
<!-- Node19 -->
<g id="node20" class="node">
<title>Node19</title>
<g id="a_node20"><a xlink:href="Span_8h.html" target="_top" xlink:title="iDynTree/Core/Span.h">
<polygon fill="none" stroke="#000000" points="1143.5,-56.5 1143.5,-75.5 1264.5,-75.5 1264.5,-56.5 1143.5,-56.5"/>
<text text-anchor="middle" x="1204" y="-63.5" font-family="FreeSans.ttf" font-size="10.00" fill="#000000">iDynTree/Core/Span.h</text>
</a>
</g>
</g>
<!-- Node18&#45;&gt;Node19 -->
<g id="edge22" class="edge">
<title>Node18&#45;&gt;Node19</title>
<path fill="none" stroke="#191970" d="M1204,-112.2455C1204,-104.9382 1204,-94.6944 1204,-85.7046"/>
<polygon fill="#191970" stroke="#191970" points="1207.5001,-85.6426 1204,-75.6427 1200.5001,-85.6427 1207.5001,-85.6426"/>
</g>
<!-- Node19&#45;&gt;Node13 -->
<g id="edge26" class="edge">
<title>Node19&#45;&gt;Node13</title>
<path fill="none" stroke="#191970" d="M1143.2547,-56.9415C1092.6244,-49.0071 1018.4366,-36.4936 944.6045,-19.9639"/>
<polygon fill="#191970" stroke="#191970" points="945.1901,-16.508 934.6641,-17.7132 943.6443,-23.3352 945.1901,-16.508"/>
</g>
<!-- Node19&#45;&gt;Node14 -->
<g id="edge23" class="edge">
<title>Node19&#45;&gt;Node14</title>
<path fill="none" stroke="#191970" d="M1264.4606,-56.494C1312.8191,-48.5115 1382.5199,-36.1607 1451.9104,-20.0978"/>
<polygon fill="#191970" stroke="#191970" points="1452.7584,-23.494 1461.6973,-17.8067 1451.1628,-16.6783 1452.7584,-23.494"/>
</g>
<!-- Node20 -->
<g id="node21" class="node">
<title>Node20</title>
<polygon fill="none" stroke="#bfbfbf" points="1320,-.5 1320,-19.5 1384,-19.5 1384,-.5 1320,-.5"/>
<text text-anchor="middle" x="1352" y="-7.5" font-family="FreeSans.ttf" font-size="10.00" fill="#000000">algorithm</text>
</g>
<!-- Node19&#45;&gt;Node20 -->
<g id="edge24" class="edge">
<title>Node19&#45;&gt;Node20</title>
<path fill="none" stroke="#191970" d="M1229.4421,-56.3733C1253.7326,-47.1822 1290.5208,-33.2624 1317.4543,-23.0713"/>
<polygon fill="#191970" stroke="#191970" points="1318.7757,-26.3136 1326.8899,-19.5011 1316.2984,-19.7666 1318.7757,-26.3136"/>
</g>
<!-- Node21 -->
<g id="node22" class="node">
<title>Node21</title>
<polygon fill="none" stroke="#bfbfbf" points="1402,-.5 1402,-19.5 1444,-19.5 1444,-.5 1402,-.5"/>
<text text-anchor="middle" x="1423" y="-7.5" font-family="FreeSans.ttf" font-size="10.00" fill="#000000">array</text>
</g>
<!-- Node19&#45;&gt;Node21 -->
<g id="edge25" class="edge">
<title>Node19&#45;&gt;Node21</title>
<path fill="none" stroke="#191970" d="M1247.81,-56.4225C1284.1112,-48.2436 1337.2321,-35.7176 1391.902,-20.1567"/>
<polygon fill="#191970" stroke="#191970" points="1393.1195,-23.4485 1401.7629,-17.3212 1391.185,-16.7211 1393.1195,-23.4485"/>
</g>
<!-- Node22 -->
<g id="node23" class="node">
<title>Node22</title>
<polygon fill="none" stroke="#bfbfbf" points="952.5,-.5 952.5,-19.5 1005.5,-19.5 1005.5,-.5 952.5,-.5"/>
<text text-anchor="middle" x="979" y="-7.5" font-family="FreeSans.ttf" font-size="10.00" fill="#000000">iterator</text>
</g>
<!-- Node19&#45;&gt;Node22 -->
<g id="edge27" class="edge">
<title>Node19&#45;&gt;Node22</title>
<path fill="none" stroke="#191970" d="M1162.9809,-56.4188C1126.73,-47.8614 1072.1887,-34.7684 1015.557,-20.0862"/>
<polygon fill="#191970" stroke="#191970" points="1016.2698,-16.6551 1005.7105,-17.5226 1014.5061,-23.4293 1016.2698,-16.6551"/>
</g>
<!-- Node23 -->
<g id="node24" class="node">
<title>Node23</title>
<polygon fill="none" stroke="#bfbfbf" points="1024,-.5 1024,-19.5 1068,-19.5 1068,-.5 1024,-.5"/>
<text text-anchor="middle" x="1046" y="-7.5" font-family="FreeSans.ttf" font-size="10.00" fill="#000000">limits</text>
</g>
<!-- Node19&#45;&gt;Node23 -->
<g id="edge28" class="edge">
<title>Node19&#45;&gt;Node23</title>
<path fill="none" stroke="#191970" d="M1176.8388,-56.3733C1149.3726,-46.6384 1106.9388,-31.5985 1077.8913,-21.3032"/>
<polygon fill="#191970" stroke="#191970" points="1078.8163,-17.9178 1068.2216,-17.876 1076.4778,-24.5157 1078.8163,-17.9178"/>
</g>
<!-- Node24 -->
<g id="node25" class="node">
<title>Node24</title>
<polygon fill="none" stroke="#bfbfbf" points="1086.5,-.5 1086.5,-19.5 1151.5,-19.5 1151.5,-.5 1086.5,-.5"/>
<text text-anchor="middle" x="1119" y="-7.5" font-family="FreeSans.ttf" font-size="10.00" fill="#000000">stdexcept</text>
</g>
<!-- Node19&#45;&gt;Node24 -->
<g id="edge29" class="edge">
<title>Node19&#45;&gt;Node24</title>
<path fill="none" stroke="#191970" d="M1189.1941,-56.2455C1176.2744,-47.7337 1157.3069,-35.2375 1142.3448,-25.3801"/>
<polygon fill="#191970" stroke="#191970" points="1143.9124,-22.2216 1133.6362,-19.6427 1140.0613,-28.067 1143.9124,-22.2216"/>
</g>
<!-- Node25 -->
<g id="node26" class="node">
<title>Node25</title>
<polygon fill="none" stroke="#bfbfbf" points="1169.5,-.5 1169.5,-19.5 1238.5,-19.5 1238.5,-.5 1169.5,-.5"/>
<text text-anchor="middle" x="1204" y="-7.5" font-family="FreeSans.ttf" font-size="10.00" fill="#000000">type_traits</text>
</g>
<!-- Node19&#45;&gt;Node25 -->
<g id="edge30" class="edge">
<title>Node19&#45;&gt;Node25</title>
<path fill="none" stroke="#191970" d="M1204,-56.2455C1204,-48.9382 1204,-38.6944 1204,-29.7046"/>
<polygon fill="#191970" stroke="#191970" points="1207.5001,-29.6426 1204,-19.6427 1200.5001,-29.6427 1207.5001,-29.6426"/>
</g>
<!-- Node26 -->
<g id="node27" class="node">
<title>Node26</title>
<polygon fill="none" stroke="#bfbfbf" points="1256.5,-.5 1256.5,-19.5 1301.5,-19.5 1301.5,-.5 1256.5,-.5"/>
<text text-anchor="middle" x="1279" y="-7.5" font-family="FreeSans.ttf" font-size="10.00" fill="#000000">utility</text>
</g>
<!-- Node19&#45;&gt;Node26 -->
<g id="edge31" class="edge">
<title>Node19&#45;&gt;Node26</title>
<path fill="none" stroke="#191970" d="M1217.064,-56.2455C1228.3562,-47.814 1244.8845,-35.4729 1258.0271,-25.6598"/>
<polygon fill="#191970" stroke="#191970" points="1260.1669,-28.4301 1266.0857,-19.6427 1255.9789,-22.8211 1260.1669,-28.4301"/>
</g>
<!-- Node28 -->
<g id="node29" class="node">
<title>Node28</title>
<g id="a_node29"><a xlink:href="SpatialMotionVector_8h.html" target="_top" xlink:title="iDynTree/Core/SpatialMotion\lVector.h">
<polygon fill="none" stroke="#000000" points="1202.5,-403.5 1202.5,-433.5 1357.5,-433.5 1357.5,-403.5 1202.5,-403.5"/>
<text text-anchor="start" x="1210.5" y="-421.5" font-family="FreeSans.ttf" font-size="10.00" fill="#000000">iDynTree/Core/SpatialMotion</text>
<text text-anchor="middle" x="1280" y="-410.5" font-family="FreeSans.ttf" font-size="10.00" fill="#000000">Vector.h</text>
</a>
</g>
</g>
<!-- Node27&#45;&gt;Node28 -->
<g id="edge37" class="edge">
<title>Node27&#45;&gt;Node28</title>
<path fill="none" stroke="#191970" d="M1188.3305,-475.9005C1203.6646,-466.2988 1227.7277,-451.2313 1247.3527,-438.9427"/>
<polygon fill="#191970" stroke="#191970" points="1249.392,-441.7954 1256.01,-433.5218 1245.677,-435.8625 1249.392,-441.7954"/>
</g>
<!-- Node28&#45;&gt;Node18 -->
<g id="edge38" class="edge">
<title>Node28&#45;&gt;Node18</title>
<path fill="none" stroke="#191970" d="M1289.9769,-403.357C1316.036,-361.7228 1380.5959,-243.6097 1328,-168 1319.008,-155.0735 1284.0575,-142.794 1253.5451,-134.1788"/>
<polygon fill="#191970" stroke="#191970" points="1254.4026,-130.7848 1243.8329,-131.5143 1252.5505,-137.5354 1254.4026,-130.7848"/>
</g>
<!-- Node29 -->
<g id="node30" class="node">
<title>Node29</title>
<g id="a_node30"><a xlink:href="GeomVector3_8h.html" target="_top" xlink:title="iDynTree/Core/GeomVector3.h">
<polygon fill="none" stroke="#000000" points="1122.5,-168.5 1122.5,-187.5 1285.5,-187.5 1285.5,-168.5 1122.5,-168.5"/>
<text text-anchor="middle" x="1204" y="-175.5" font-family="FreeSans.ttf" font-size="10.00" fill="#000000">iDynTree/Core/GeomVector3.h</text>
</a>
</g>
</g>
<!-- Node28&#45;&gt;Node29 -->
<g id="edge39" class="edge">
<title>Node28&#45;&gt;Node29</title>
<path fill="none" stroke="#191970" d="M1275.2459,-403.4556C1262.0387,-361.6618 1224.9072,-244.1602 1210.1547,-197.4763"/>
<polygon fill="#191970" stroke="#191970" points="1213.4126,-196.17 1207.062,-187.6895 1206.7379,-198.2793 1213.4126,-196.17"/>
</g>
<!-- Node30 -->
<g id="node31" class="node">
<title>Node30</title>
<g id="a_node31"><a xlink:href="SpatialVector_8h.html" target="_top" xlink:title="iDynTree/Core/SpatialVector.h">
<polygon fill="none" stroke="#000000" points="975.5,-347.5 975.5,-366.5 1136.5,-366.5 1136.5,-347.5 975.5,-347.5"/>
<text text-anchor="middle" x="1056" y="-354.5" font-family="FreeSans.ttf" font-size="10.00" fill="#000000">iDynTree/Core/SpatialVector.h</text>
</a>
</g>
</g>
<!-- Node28&#45;&gt;Node30 -->
<g id="edge41" class="edge">
<title>Node28&#45;&gt;Node30</title>
<path fill="none" stroke="#191970" d="M1225.2034,-403.4554C1186.8449,-392.9239 1136.2495,-379.0328 1100.4076,-369.1923"/>
<polygon fill="#191970" stroke="#191970" points="1101.2819,-365.8028 1090.712,-366.5303 1099.4285,-372.5531 1101.2819,-365.8028"/>
</g>
<!-- Node29&#45;&gt;Node18 -->
<g id="edge40" class="edge">
<title>Node29&#45;&gt;Node18</title>
<path fill="none" stroke="#191970" d="M1204,-168.2455C1204,-160.9382 1204,-150.6944 1204,-141.7046"/>
<polygon fill="#191970" stroke="#191970" points="1207.5001,-141.6426 1204,-131.6427 1200.5001,-141.6427 1207.5001,-141.6426"/>
</g>
<!-- Node30&#45;&gt;Node12 -->
<g id="edge55" class="edge">
<title>Node30&#45;&gt;Node12</title>
<path fill="none" stroke="#191970" d="M978.8604,-347.4917C942.0169,-340.7954 898.1797,-329.5806 862,-311 821.6467,-290.276 803.8022,-285.2838 785,-244 754.9161,-177.9449 840.4039,-110.4652 884.5032,-81.1421"/>
<polygon fill="#191970" stroke="#191970" points="886.4975,-84.0204 892.9771,-75.6379 882.6843,-78.1501 886.4975,-84.0204"/>
</g>
<!-- Node30&#45;&gt;Node16 -->
<g id="edge57" class="edge">
<title>Node30&#45;&gt;Node16</title>
<path fill="none" stroke="#191970" d="M1056,-347.4309C1056,-326.738 1056,-276.2813 1056,-234 1056,-234 1056,-234 1056,-178 1056,-143.7041 1040.1646,-106.3471 1029.213,-84.6122"/>
<polygon fill="#191970" stroke="#191970" points="1032.1994,-82.7704 1024.4595,-75.5354 1025.9982,-86.0179 1032.1994,-82.7704"/>
</g>
<!-- Node30&#45;&gt;Node17 -->
<g id="edge58" class="edge">
<title>Node30&#45;&gt;Node17</title>
<path fill="none" stroke="#191970" d="M1073.3118,-347.4093C1115.838,-323.4533 1227.9357,-257.8807 1310,-188 1349.3247,-154.5136 1388.8737,-108.2471 1409.1275,-83.418"/>
<polygon fill="#191970" stroke="#191970" points="1411.8932,-85.564 1415.4548,-75.5857 1406.4481,-81.165 1411.8932,-85.564"/>
</g>
<!-- Node30&#45;&gt;Node29 -->
<g id="edge56" class="edge">
<title>Node30&#45;&gt;Node29</title>
<path fill="none" stroke="#191970" d="M1063.9571,-347.3762C1087.7475,-318.6027 1158.589,-232.9228 1189.4079,-195.6485"/>
<polygon fill="#191970" stroke="#191970" points="1192.3288,-197.6085 1196.0035,-187.6714 1186.9339,-193.148 1192.3288,-197.6085"/>
</g>
<!-- Node31 -->
<g id="node32" class="node">
<title>Node31</title>
<g id="a_node32"><a xlink:href="Position_8h.html" target="_top" xlink:title="Position.h">
<polygon fill="none" stroke="#000000" points="634.5,-286 634.5,-305 699.5,-305 699.5,-286 634.5,-286"/>
<text text-anchor="middle" x="667" y="-293" font-family="FreeSans.ttf" font-size="10.00" fill="#000000">Position.h</text>
</a>
</g>
</g>
<!-- Node30&#45;&gt;Node31 -->
<g id="edge42" class="edge">
<title>Node30&#45;&gt;Node31</title>
<path fill="none" stroke="#191970" d="M975.4334,-350.4021C905.6479,-343.683 802.3065,-331.3161 714,-311 710.3524,-310.1608 706.5852,-309.1584 702.8448,-308.0726"/>
<polygon fill="#191970" stroke="#191970" points="703.6945,-304.6719 693.1067,-305.0586 701.6248,-311.3589 703.6945,-304.6719"/>
</g>
<!-- Node33 -->
<g id="node34" class="node">
<title>Node33</title>
<g id="a_node34"><a xlink:href="Rotation_8h.html" target="_top" xlink:title="iDynTree/Core/Rotation.h">
<polygon fill="none" stroke="#000000" points="793.5,-224.5 793.5,-243.5 930.5,-243.5 930.5,-224.5 793.5,-224.5"/>
<text text-anchor="middle" x="862" y="-231.5" font-family="FreeSans.ttf" font-size="10.00" fill="#000000">iDynTree/Core/Rotation.h</text>
</a>
</g>
</g>
<!-- Node30&#45;&gt;Node33 -->
<g id="edge54" class="edge">
<title>Node30&#45;&gt;Node33</title>
<path fill="none" stroke="#191970" d="M994.3424,-347.4444C950.944,-339.5042 897.8735,-326.9423 882,-311 866.9712,-295.906 862.7915,-271.054 861.8435,-253.6784"/>
<polygon fill="#191970" stroke="#191970" points="865.3389,-253.4329 861.6058,-243.5176 858.3408,-253.5968 865.3389,-253.4329"/>
</g>
<!-- Node31&#45;&gt;Node3 -->
<g id="edge53" class="edge">
<title>Node31&#45;&gt;Node3</title>
<path fill="none" stroke="#191970" d="M646.0757,-285.9239C615.0657,-270.4204 558.0897,-236.582 535,-188 515.0959,-146.1206 565.0841,-103.4163 597.2874,-81.3379"/>
<polygon fill="#191970" stroke="#191970" points="599.4264,-84.1192 605.8259,-75.6755 595.5576,-78.2854 599.4264,-84.1192"/>
</g>
<!-- Node32 -->
<g id="node33" class="node">
<title>Node32</title>
<g id="a_node33"><a xlink:href="PositionRaw_8h.html" target="_top" xlink:title="iDynTree/Core/PositionRaw.h">
<polygon fill="none" stroke="#000000" points="544,-168.5 544,-187.5 700,-187.5 700,-168.5 544,-168.5"/>
<text text-anchor="middle" x="622" y="-175.5" font-family="FreeSans.ttf" font-size="10.00" fill="#000000">iDynTree/Core/PositionRaw.h</text>
</a>
</g>
</g>
<!-- Node31&#45;&gt;Node32 -->
<g id="edge43" class="edge">
<title>Node31&#45;&gt;Node32</title>
<path fill="none" stroke="#191970" d="M663.3175,-285.8845C655.9339,-266.6053 639.1943,-222.8963 629.439,-197.4241"/>
<polygon fill="#191970" stroke="#191970" points="632.5785,-195.8352 625.7334,-187.7484 626.0415,-198.3387 632.5785,-195.8352"/>
</g>
<!-- Node31&#45;&gt;Node33 -->
<g id="edge46" class="edge">
<title>Node31&#45;&gt;Node33</title>
<path fill="none" stroke="#191970" d="M697.4688,-285.8906C730.9544,-275.3298 784.8853,-258.3208 821.812,-246.6747"/>
<polygon fill="#191970" stroke="#191970" points="823.261,-249.8877 831.7452,-243.5419 821.1555,-243.2118 823.261,-249.8877"/>
</g>
<!-- Node32&#45;&gt;Node3 -->
<g id="edge45" class="edge">
<title>Node32&#45;&gt;Node3</title>
<path fill="none" stroke="#191970" d="M622,-168.4509C622,-150.184 622,-109.9553 622,-85.6976"/>
<polygon fill="#191970" stroke="#191970" points="625.5001,-85.5249 622,-75.5249 618.5001,-85.5249 625.5001,-85.5249"/>
</g>
<!-- Node32&#45;&gt;Node18 -->
<g id="edge44" class="edge">
<title>Node32&#45;&gt;Node18</title>
<path fill="none" stroke="#191970" d="M700.1889,-170.4767C807.4701,-160.1541 999.8854,-141.6399 1113.3432,-130.723"/>
<polygon fill="#191970" stroke="#191970" points="1113.777,-134.1975 1123.3958,-129.7557 1113.1065,-127.2297 1113.777,-134.1975"/>
</g>
<!-- Node33&#45;&gt;Node3 -->
<g id="edge47" class="edge">
<title>Node33&#45;&gt;Node3</title>
<path fill="none" stroke="#191970" d="M848.4089,-224.4862C808.7348,-196.7144 692.8101,-115.5671 644.0324,-81.4227"/>
<polygon fill="#191970" stroke="#191970" points="645.939,-78.485 635.7395,-75.6177 641.9247,-84.2196 645.939,-78.485"/>
</g>
<!-- Node33&#45;&gt;Node18 -->
<g id="edge52" class="edge">
<title>Node33&#45;&gt;Node18</title>
<path fill="none" stroke="#191970" d="M891.1587,-224.4509C952.7434,-204.2829 1096.0744,-157.3441 1165.2634,-134.6857"/>
<polygon fill="#191970" stroke="#191970" points="1166.501,-137.9634 1174.9151,-131.5249 1164.3224,-131.311 1166.501,-137.9634"/>
</g>
<!-- Node33&#45;&gt;Node29 -->
<g id="edge48" class="edge">
<title>Node33&#45;&gt;Node29</title>
<path fill="none" stroke="#191970" d="M920.4033,-224.4369C980.0406,-214.6717 1072.5698,-199.5207 1135.5965,-189.2006"/>
<polygon fill="#191970" stroke="#191970" points="1136.5346,-192.5937 1145.8376,-187.5237 1135.4034,-185.6857 1136.5346,-192.5937"/>
</g>
<!-- Node34 -->
<g id="node35" class="node">
<title>Node34</title>
<g id="a_node35"><a xlink:href="RotationRaw_8h.html" target="_top" xlink:title="iDynTree/Core/RotationRaw.h">
<polygon fill="none" stroke="#000000" points="832,-168.5 832,-187.5 990,-187.5 990,-168.5 832,-168.5"/>
<text text-anchor="middle" x="911" y="-175.5" font-family="FreeSans.ttf" font-size="10.00" fill="#000000">iDynTree/Core/RotationRaw.h</text>
</a>
</g>
</g>
<!-- Node33&#45;&gt;Node34 -->
<g id="edge49" class="edge">
<title>Node33&#45;&gt;Node34</title>
<path fill="none" stroke="#191970" d="M870.5351,-224.2455C877.4912,-216.2958 887.4883,-204.8706 895.8051,-195.3656"/>
<polygon fill="#191970" stroke="#191970" points="898.6116,-197.4732 902.5627,-187.6427 893.3436,-192.8637 898.6116,-197.4732"/>
</g>
<!-- Node34&#45;&gt;Node3 -->
<g id="edge51" class="edge">
<title>Node34&#45;&gt;Node3</title>
<path fill="none" stroke="#191970" d="M886.36,-168.4509C833.9715,-148.1481 711.579,-100.7157 653.5703,-78.2348"/>
<polygon fill="#191970" stroke="#191970" points="654.7641,-74.9439 644.1751,-74.5938 652.2346,-81.4709 654.7641,-74.9439"/>
</g>
<!-- Node34&#45;&gt;Node11 -->
<g id="edge50" class="edge">
<title>Node34&#45;&gt;Node11</title>
<path fill="none" stroke="#191970" d="M917.2707,-168.2455C922.2264,-160.5367 929.283,-149.5598 935.2776,-140.2348"/>
<polygon fill="#191970" stroke="#191970" points="938.3376,-141.9471 940.8011,-131.6427 932.4494,-138.1618 938.3376,-141.9471"/>
</g>
<!-- Node36 -->
<g id="node37" class="node">
<title>Node36</title>
<g id="a_node37"><a xlink:href="SpatialForceVector_8h.html" target="_top" xlink:title="iDynTree/Core/SpatialForce\lVector.h">
<polygon fill="none" stroke="#000000" points="982,-403.5 982,-433.5 1130,-433.5 1130,-403.5 982,-403.5"/>
<text text-anchor="start" x="990" y="-421.5" font-family="FreeSans.ttf" font-size="10.00" fill="#000000">iDynTree/Core/SpatialForce</text>
<text text-anchor="middle" x="1056" y="-410.5" font-family="FreeSans.ttf" font-size="10.00" fill="#000000">Vector.h</text>
</a>
</g>
</g>
<!-- Node35&#45;&gt;Node36 -->
<g id="edge60" class="edge">
<title>Node35&#45;&gt;Node36</title>
<path fill="none" stroke="#191970" d="M878.6581,-475.9005C910.1938,-465.6933 960.8136,-449.3091 999.9152,-436.6531"/>
<polygon fill="#191970" stroke="#191970" points="1001.1532,-439.9312 1009.5895,-433.5218 998.9976,-433.2713 1001.1532,-439.9312"/>
</g>
<!-- Node36&#45;&gt;Node18 -->
<g id="edge61" class="edge">
<title>Node36&#45;&gt;Node18</title>
<path fill="none" stroke="#191970" d="M1088.6126,-403.4267C1106.5507,-394.2847 1128.6246,-381.581 1146,-367 1225.2909,-300.4611 1259.7891,-285.3379 1295,-188 1298.0237,-179.6412 1299.6566,-175.5716 1295,-168 1285.6199,-152.7479 1269.4458,-142.3672 1253.311,-135.3894"/>
<polygon fill="#191970" stroke="#191970" points="1254.4539,-132.0778 1243.8672,-131.6631 1251.8846,-138.5893 1254.4539,-132.0778"/>
</g>
<!-- Node36&#45;&gt;Node29 -->
<g id="edge62" class="edge">
<title>Node36&#45;&gt;Node29</title>
<path fill="none" stroke="#191970" d="M1096.5247,-403.3383C1113.9361,-394.9956 1133.185,-383.0298 1146,-367 1187.1767,-315.4935 1199.2156,-234.8461 1202.6598,-197.8077"/>
<polygon fill="#191970" stroke="#191970" points="1206.152,-198.0448 1203.4755,-187.7936 1199.1751,-197.4765 1206.152,-198.0448"/>
</g>
<!-- Node36&#45;&gt;Node30 -->
<g id="edge63" class="edge">
<title>Node36&#45;&gt;Node30</title>
<path fill="none" stroke="#191970" d="M1056,-403.2977C1056,-395.3834 1056,-385.6043 1056,-377.0759"/>
<polygon fill="#191970" stroke="#191970" points="1059.5001,-376.8469 1056,-366.8469 1052.5001,-376.847 1059.5001,-376.8469"/>
</g>
<!-- Node37&#45;&gt;Node28 -->
<g id="edge65" class="edge">
<title>Node37&#45;&gt;Node28</title>
<path fill="none" stroke="#191970" d="M1319.4093,-475.9005C1313.3516,-467.0773 1304.1251,-453.6387 1296.1221,-441.9822"/>
<polygon fill="#191970" stroke="#191970" points="1298.859,-439.7848 1290.3134,-433.5218 1293.0881,-443.7468 1298.859,-439.7848"/>
</g>
<!-- Node38&#45;&gt;Node36 -->
<g id="edge67" class="edge">
<title>Node38&#45;&gt;Node36</title>
<path fill="none" stroke="#191970" d="M1031.155,-475.9005C1034.8617,-467.3368 1040.4503,-454.4252 1045.3889,-443.0152"/>
<polygon fill="#191970" stroke="#191970" points="1048.7378,-444.0893 1049.498,-433.5218 1042.3137,-441.3087 1048.7378,-444.0893"/>
</g>
<!-- Node39&#45;&gt;Node3 -->
<g id="edge73" class="edge">
<title>Node39&#45;&gt;Node3</title>
<path fill="none" stroke="#191970" d="M563.9916,-347.2414C534.7368,-329.0404 478,-286.9198 478,-234 478,-234 478,-234 478,-178 478,-121.5572 547.7848,-89.422 590.1938,-75.1043"/>
<polygon fill="#191970" stroke="#191970" points="591.3727,-78.4017 599.8156,-72.001 589.224,-71.7396 591.3727,-78.4017"/>
</g>
<!-- Node39&#45;&gt;Node11 -->
<g id="edge72" class="edge">
<title>Node39&#45;&gt;Node11</title>
<path fill="none" stroke="#191970" d="M584.6588,-347.4175C591.0419,-331.7179 605.5147,-300.2425 626,-280 705.8477,-201.0988 832.9331,-154.8566 900.7684,-134.4837"/>
<polygon fill="#191970" stroke="#191970" points="902.1283,-137.7319 910.7325,-131.5498 900.1511,-131.017 902.1283,-137.7319"/>
</g>
<!-- Node39&#45;&gt;Node31 -->
<g id="edge70" class="edge">
<title>Node39&#45;&gt;Node31</title>
<path fill="none" stroke="#191970" d="M594.4375,-347.3906C608.0695,-337.6421 629.3846,-322.3994 645.3922,-310.9521"/>
<polygon fill="#191970" stroke="#191970" points="647.5586,-313.7057 653.6569,-305.0419 643.4868,-308.0118 647.5586,-313.7057"/>
</g>
<!-- Node39&#45;&gt;Node33 -->
<g id="edge71" class="edge">
<title>Node39&#45;&gt;Node33</title>
<path fill="none" stroke="#191970" d="M610.6238,-347.4909C636.8223,-338.8136 675.9113,-325.2098 709,-311 754.3658,-291.5178 805.2431,-264.9179 835.4006,-248.6275"/>
<polygon fill="#191970" stroke="#191970" points="837.3138,-251.5714 844.4307,-243.7228 833.9727,-245.4202 837.3138,-251.5714"/>
</g>
<!-- Node40&#45;&gt;Node3 -->
<g id="edge77" class="edge">
<title>Node40&#45;&gt;Node3</title>
<path fill="none" stroke="#191970" d="M633.5097,-593.4009C620.3816,-585.1021 602.2405,-572.0845 590,-557 490.2668,-434.0938 440,-392.2803 440,-234 440,-234 440,-234 440,-178 440,-108.5809 537.226,-80.8067 589.5539,-70.8855"/>
<polygon fill="#191970" stroke="#191970" points="590.4519,-74.2807 599.6832,-69.0814 589.2244,-67.3892 590.4519,-74.2807"/>
</g>
<!-- Node40&#45;&gt;Node4 -->
<g id="edge78" class="edge">
<title>Node40&#45;&gt;Node4</title>
<path fill="none" stroke="#191970" d="M601.1598,-593.4369C543.2196,-582.092 448.154,-563.4777 397.7811,-553.6145"/>
<polygon fill="#191970" stroke="#191970" points="398.2261,-550.1352 387.7399,-551.6484 396.881,-557.0048 398.2261,-550.1352"/>
</g>
<!-- Node40&#45;&gt;Node39 -->
<g id="edge79" class="edge">
<title>Node40&#45;&gt;Node39</title>
<path fill="none" stroke="#191970" d="M639.5226,-593.2453C622.293,-576.4024 588.6289,-539.9134 576,-501 562.1615,-458.3596 570.1484,-404.8508 576.1849,-376.5866"/>
<polygon fill="#191970" stroke="#191970" points="579.6171,-377.2781 578.4302,-366.7499 572.7926,-375.7203 579.6171,-377.2781"/>
</g>
<!-- Node40&#45;&gt;Node41 -->
<g id="edge76" class="edge">
<title>Node40&#45;&gt;Node41</title>
<path fill="none" stroke="#191970" d="M726.8734,-593.4965C783.0002,-585.9265 861.0431,-574.0964 938.3063,-556.9221"/>
<polygon fill="#191970" stroke="#191970" points="939.2282,-560.3022 948.2139,-554.6891 937.689,-553.4735 939.2282,-560.3022"/>
</g>
</g>
</svg>
