<?xml version="1.0" encoding="UTF-8" standalone="no"?>
<!DOCTYPE svg PUBLIC "-//W3C//DTD SVG 1.1//EN"
 "http://www.w3.org/Graphics/SVG/1.1/DTD/svg11.dtd">
<!-- Generated by graphviz version 2.40.1 (20161225.0304)
 -->
<!-- Title: Twist.h Pages: 1 -->
<svg width="945pt" height="487pt"
 viewBox="0.00 0.00 944.50 487.00" xmlns="http://www.w3.org/2000/svg" xmlns:xlink="http://www.w3.org/1999/xlink">
<g id="graph0" class="graph" transform="scale(1 1) rotate(0) translate(4 483)">
<title>Twist.h</title>
<!-- Node0 -->
<g id="node1" class="node">
<title>Node0</title>
<polygon fill="#bfbfbf" stroke="#000000" points="299.5,-459.5 299.5,-478.5 349.5,-478.5 349.5,-459.5 299.5,-459.5"/>
<text text-anchor="middle" x="324.5" y="-466.5" font-family="FreeSans.ttf" font-size="10.00" fill="#000000">Twist.h</text>
</g>
<!-- Node1 -->
<g id="node2" class="node">
<title>Node1</title>
<g id="a_node2"><a xlink:href="SpatialMotionVector_8h.html" target="_top" xlink:title="iDynTree/Core/SpatialMotion\lVector.h">
<polygon fill="none" stroke="#000000" points="247,-392.5 247,-422.5 402,-422.5 402,-392.5 247,-392.5"/>
<text text-anchor="start" x="255" y="-410.5" font-family="FreeSans.ttf" font-size="10.00" fill="#000000">iDynTree/Core/SpatialMotion</text>
<text text-anchor="middle" x="324.5" y="-399.5" font-family="FreeSans.ttf" font-size="10.00" fill="#000000">Vector.h</text>
</a>
</g>
</g>
<!-- Node0&#45;&gt;Node1 -->
<g id="edge1" class="edge">
<title>Node0&#45;&gt;Node1</title>
<path fill="none" stroke="#191970" d="M324.5,-459.3906C324.5,-452.2234 324.5,-442.0862 324.5,-432.671"/>
<polygon fill="#191970" stroke="#191970" points="328.0001,-432.5446 324.5,-422.5446 321.0001,-432.5446 328.0001,-432.5446"/>
</g>
<!-- Node2 -->
<g id="node3" class="node">
<title>Node2</title>
<g id="a_node3"><a xlink:href="VectorFixSize_8h.html" target="_top" xlink:title="iDynTree/Core/VectorFixSize.h">
<polygon fill="none" stroke="#000000" points="245,-112.5 245,-131.5 406,-131.5 406,-112.5 245,-112.5"/>
<text text-anchor="middle" x="325.5" y="-119.5" font-family="FreeSans.ttf" font-size="10.00" fill="#000000">iDynTree/Core/VectorFixSize.h</text>
</a>
</g>
</g>
<!-- Node1&#45;&gt;Node2 -->
<g id="edge2" class="edge">
<title>Node1&#45;&gt;Node2</title>
<path fill="none" stroke="#191970" d="M295.022,-392.3745C262.4387,-373.3051 214.5,-337.2244 214.5,-290 214.5,-290 214.5,-290 214.5,-234 214.5,-203.4754 213.9824,-191.4695 233.5,-168 245.928,-153.0557 264.4188,-142.5037 281.5703,-135.3106"/>
<polygon fill="#191970" stroke="#191970" points="282.8778,-138.5574 290.9142,-131.6534 280.3264,-132.0389 282.8778,-138.5574"/>
</g>
<!-- Node17 -->
<g id="node18" class="node">
<title>Node17</title>
<g id="a_node18"><a xlink:href="GeomVector3_8h.html" target="_top" xlink:title="iDynTree/Core/GeomVector3.h">
<polygon fill="none" stroke="#000000" points="243,-168.5 243,-187.5 406,-187.5 406,-168.5 243,-168.5"/>
<text text-anchor="middle" x="324.5" y="-175.5" font-family="FreeSans.ttf" font-size="10.00" fill="#000000">iDynTree/Core/GeomVector3.h</text>
</a>
</g>
</g>
<!-- Node1&#45;&gt;Node17 -->
<g id="edge19" class="edge">
<title>Node1&#45;&gt;Node17</title>
<path fill="none" stroke="#191970" d="M324.5,-392.4419C324.5,-352.3599 324.5,-243.0534 324.5,-197.9113"/>
<polygon fill="#191970" stroke="#191970" points="328.0001,-197.8981 324.5,-187.8981 321.0001,-197.8982 328.0001,-197.8981"/>
</g>
<!-- Node18 -->
<g id="node19" class="node">
<title>Node18</title>
<g id="a_node19"><a xlink:href="SpatialVector_8h.html" target="_top" xlink:title="iDynTree/Core/SpatialVector.h">
<polygon fill="none" stroke="#000000" points="354,-336.5 354,-355.5 515,-355.5 515,-336.5 354,-336.5"/>
<text text-anchor="middle" x="434.5" y="-343.5" font-family="FreeSans.ttf" font-size="10.00" fill="#000000">iDynTree/Core/SpatialVector.h</text>
</a>
</g>
</g>
<!-- Node1&#45;&gt;Node18 -->
<g id="edge21" class="edge">
<title>Node1&#45;&gt;Node18</title>
<path fill="none" stroke="#191970" d="M351.409,-392.4554C368.7968,-382.734 391.3049,-370.15 408.5084,-360.5317"/>
<polygon fill="#191970" stroke="#191970" points="410.4335,-363.4653 417.4539,-355.5303 407.0174,-357.3554 410.4335,-363.4653"/>
</g>
<!-- Node3 -->
<g id="node4" class="node">
<title>Node3</title>
<g id="a_node4"><a xlink:href="Utils_8h.html" target="_top" xlink:title="iDynTree/Core/Utils.h">
<polygon fill="none" stroke="#000000" points="117,-56.5 117,-75.5 236,-75.5 236,-56.5 117,-56.5"/>
<text text-anchor="middle" x="176.5" y="-63.5" font-family="FreeSans.ttf" font-size="10.00" fill="#000000">iDynTree/Core/Utils.h</text>
</a>
</g>
</g>
<!-- Node2&#45;&gt;Node3 -->
<g id="edge3" class="edge">
<title>Node2&#45;&gt;Node3</title>
<path fill="none" stroke="#191970" d="M299.886,-112.3733C275.4313,-103.1822 238.3946,-89.2624 211.2791,-79.0713"/>
<polygon fill="#191970" stroke="#191970" points="212.3719,-75.7431 201.7798,-75.5011 209.9091,-82.2956 212.3719,-75.7431"/>
</g>
<!-- Node5 -->
<g id="node6" class="node">
<title>Node5</title>
<g id="a_node6"><a xlink:href="Span_8h.html" target="_top" xlink:title="iDynTree/Core/Span.h">
<polygon fill="none" stroke="#000000" points="254,-56.5 254,-75.5 375,-75.5 375,-56.5 254,-56.5"/>
<text text-anchor="middle" x="314.5" y="-63.5" font-family="FreeSans.ttf" font-size="10.00" fill="#000000">iDynTree/Core/Span.h</text>
</a>
</g>
</g>
<!-- Node2&#45;&gt;Node5 -->
<g id="edge5" class="edge">
<title>Node2&#45;&gt;Node5</title>
<path fill="none" stroke="#191970" d="M323.5839,-112.2455C322.1486,-104.9382 320.1364,-94.6944 318.3705,-85.7046"/>
<polygon fill="#191970" stroke="#191970" points="321.756,-84.7805 316.3941,-75.6427 314.8873,-86.1298 321.756,-84.7805"/>
</g>
<!-- Node6 -->
<g id="node7" class="node">
<title>Node6</title>
<polygon fill="none" stroke="#bfbfbf" points="581.5,-.5 581.5,-19.5 633.5,-19.5 633.5,-.5 581.5,-.5"/>
<text text-anchor="middle" x="607.5" y="-7.5" font-family="FreeSans.ttf" font-size="10.00" fill="#000000">cassert</text>
</g>
<!-- Node2&#45;&gt;Node6 -->
<g id="edge17" class="edge">
<title>Node2&#45;&gt;Node6</title>
<path fill="none" stroke="#191970" d="M336.6311,-112.4034C353.8735,-98.0291 388.598,-70.9977 422.5,-56 482.3821,-29.5092 504.2204,-36.673 571.3747,-20.1507"/>
<polygon fill="#191970" stroke="#191970" points="572.3344,-23.5181 581.1599,-17.6562 570.6052,-16.735 572.3344,-23.5181"/>
</g>
<!-- Node14 -->
<g id="node15" class="node">
<title>Node14</title>
<polygon fill="none" stroke="#bfbfbf" points="636.5,-56.5 636.5,-75.5 680.5,-75.5 680.5,-56.5 636.5,-56.5"/>
<text text-anchor="middle" x="658.5" y="-63.5" font-family="FreeSans.ttf" font-size="10.00" fill="#000000">string</text>
</g>
<!-- Node2&#45;&gt;Node14 -->
<g id="edge15" class="edge">
<title>Node2&#45;&gt;Node14</title>
<path fill="none" stroke="#191970" d="M382.3664,-112.4369C452.6948,-100.6099 570.0012,-80.8827 626.3548,-71.4058"/>
<polygon fill="#191970" stroke="#191970" points="627.1811,-74.8161 636.4622,-69.7061 626.0202,-67.913 627.1811,-74.8161"/>
</g>
<!-- Node15 -->
<g id="node16" class="node">
<title>Node15</title>
<polygon fill="none" stroke="#bfbfbf" points="431.5,-56.5 431.5,-75.5 487.5,-75.5 487.5,-56.5 431.5,-56.5"/>
<text text-anchor="middle" x="459.5" y="-63.5" font-family="FreeSans.ttf" font-size="10.00" fill="#000000">sstream</text>
</g>
<!-- Node2&#45;&gt;Node15 -->
<g id="edge16" class="edge">
<title>Node2&#45;&gt;Node15</title>
<path fill="none" stroke="#191970" d="M348.5354,-112.3733C370.2388,-103.3032 402.9618,-89.6279 427.255,-79.4755"/>
<polygon fill="#191970" stroke="#191970" points="428.8881,-82.5865 436.7652,-75.5011 426.1889,-76.1278 428.8881,-82.5865"/>
</g>
<!-- Node16 -->
<g id="node17" class="node">
<title>Node16</title>
<polygon fill="none" stroke="#bfbfbf" points="511.5,-56.5 511.5,-75.5 561.5,-75.5 561.5,-56.5 511.5,-56.5"/>
<text text-anchor="middle" x="536.5" y="-63.5" font-family="FreeSans.ttf" font-size="10.00" fill="#000000">cstring</text>
</g>
<!-- Node2&#45;&gt;Node16 -->
<g id="edge18" class="edge">
<title>Node2&#45;&gt;Node16</title>
<path fill="none" stroke="#191970" d="M361.7722,-112.3733C400.927,-101.9814 462.8593,-85.5445 501.5086,-75.2868"/>
<polygon fill="#191970" stroke="#191970" points="502.5118,-78.6418 511.2793,-72.6936 500.7161,-71.8761 502.5118,-78.6418"/>
</g>
<!-- Node4 -->
<g id="node5" class="node">
<title>Node4</title>
<polygon fill="none" stroke="#bfbfbf" points="0,-.5 0,-19.5 53,-19.5 53,-.5 0,-.5"/>
<text text-anchor="middle" x="26.5" y="-7.5" font-family="FreeSans.ttf" font-size="10.00" fill="#000000">cstddef</text>
</g>
<!-- Node3&#45;&gt;Node4 -->
<g id="edge4" class="edge">
<title>Node3&#45;&gt;Node4</title>
<path fill="none" stroke="#191970" d="M150.7141,-56.3733C126.0953,-47.1822 88.81,-33.2624 61.5125,-23.0713"/>
<polygon fill="#191970" stroke="#191970" points="62.542,-19.7198 51.9494,-19.5011 60.0937,-26.2777 62.542,-19.7198"/>
</g>
<!-- Node5&#45;&gt;Node4 -->
<g id="edge9" class="edge">
<title>Node5&#45;&gt;Node4</title>
<path fill="none" stroke="#191970" d="M253.849,-56.5095C204.91,-48.4915 134.1163,-36.084 63.1764,-19.9919"/>
<polygon fill="#191970" stroke="#191970" points="63.6972,-16.5206 53.1678,-17.6969 62.1326,-23.3435 63.6972,-16.5206"/>
</g>
<!-- Node5&#45;&gt;Node6 -->
<g id="edge6" class="edge">
<title>Node5&#45;&gt;Node6</title>
<path fill="none" stroke="#191970" d="M375.0636,-56.9892C425.3174,-49.1057 498.8092,-36.6407 571.4277,-20.0799"/>
<polygon fill="#191970" stroke="#191970" points="572.2445,-23.4835 581.2015,-17.8246 570.6706,-16.6627 572.2445,-23.4835"/>
</g>
<!-- Node7 -->
<g id="node8" class="node">
<title>Node7</title>
<polygon fill="none" stroke="#bfbfbf" points="71.5,-.5 71.5,-19.5 135.5,-19.5 135.5,-.5 71.5,-.5"/>
<text text-anchor="middle" x="103.5" y="-7.5" font-family="FreeSans.ttf" font-size="10.00" fill="#000000">algorithm</text>
</g>
<!-- Node5&#45;&gt;Node7 -->
<g id="edge7" class="edge">
<title>Node5&#45;&gt;Node7</title>
<path fill="none" stroke="#191970" d="M278.2278,-56.3733C241.3444,-46.5843 184.2496,-31.4312 145.4437,-21.132"/>
<polygon fill="#191970" stroke="#191970" points="146.0693,-17.6769 135.506,-18.4945 144.2736,-24.4427 146.0693,-17.6769"/>
</g>
<!-- Node8 -->
<g id="node9" class="node">
<title>Node8</title>
<polygon fill="none" stroke="#bfbfbf" points="153.5,-.5 153.5,-19.5 195.5,-19.5 195.5,-.5 153.5,-.5"/>
<text text-anchor="middle" x="174.5" y="-7.5" font-family="FreeSans.ttf" font-size="10.00" fill="#000000">array</text>
</g>
<!-- Node5&#45;&gt;Node8 -->
<g id="edge8" class="edge">
<title>Node5&#45;&gt;Node8</title>
<path fill="none" stroke="#191970" d="M290.4331,-56.3733C266.8289,-46.9316 230.749,-32.4996 205.1151,-22.246"/>
<polygon fill="#191970" stroke="#191970" points="206.0973,-18.8694 195.5127,-18.4051 203.4975,-25.3687 206.0973,-18.8694"/>
</g>
<!-- Node9 -->
<g id="node10" class="node">
<title>Node9</title>
<polygon fill="none" stroke="#bfbfbf" points="214,-.5 214,-19.5 267,-19.5 267,-.5 214,-.5"/>
<text text-anchor="middle" x="240.5" y="-7.5" font-family="FreeSans.ttf" font-size="10.00" fill="#000000">iterator</text>
</g>
<!-- Node5&#45;&gt;Node9 -->
<g id="edge10" class="edge">
<title>Node5&#45;&gt;Node9</title>
<path fill="none" stroke="#191970" d="M301.6102,-56.2455C290.5746,-47.8943 274.4708,-35.7076 261.5647,-25.9408"/>
<polygon fill="#191970" stroke="#191970" points="263.3283,-22.8862 253.2421,-19.6427 259.1041,-28.4681 263.3283,-22.8862"/>
</g>
<!-- Node10 -->
<g id="node11" class="node">
<title>Node10</title>
<polygon fill="none" stroke="#bfbfbf" points="285.5,-.5 285.5,-19.5 329.5,-19.5 329.5,-.5 285.5,-.5"/>
<text text-anchor="middle" x="307.5" y="-7.5" font-family="FreeSans.ttf" font-size="10.00" fill="#000000">limits</text>
</g>
<!-- Node5&#45;&gt;Node10 -->
<g id="edge11" class="edge">
<title>Node5&#45;&gt;Node10</title>
<path fill="none" stroke="#191970" d="M313.2807,-56.2455C312.3673,-48.9382 311.0868,-38.6944 309.9631,-29.7046"/>
<polygon fill="#191970" stroke="#191970" points="313.4187,-29.1313 308.7053,-19.6427 306.4728,-29.9996 313.4187,-29.1313"/>
</g>
<!-- Node11 -->
<g id="node12" class="node">
<title>Node11</title>
<polygon fill="none" stroke="#bfbfbf" points="348,-.5 348,-19.5 413,-19.5 413,-.5 348,-.5"/>
<text text-anchor="middle" x="380.5" y="-7.5" font-family="FreeSans.ttf" font-size="10.00" fill="#000000">stdexcept</text>
</g>
<!-- Node5&#45;&gt;Node11 -->
<g id="edge12" class="edge">
<title>Node5&#45;&gt;Node11</title>
<path fill="none" stroke="#191970" d="M325.9963,-56.2455C335.7442,-47.9746 349.9259,-35.9416 361.3798,-26.2232"/>
<polygon fill="#191970" stroke="#191970" points="363.7747,-28.7813 369.1354,-19.6427 359.2459,-23.4437 363.7747,-28.7813"/>
</g>
<!-- Node12 -->
<g id="node13" class="node">
<title>Node12</title>
<polygon fill="none" stroke="#bfbfbf" points="431,-.5 431,-19.5 500,-19.5 500,-.5 431,-.5"/>
<text text-anchor="middle" x="465.5" y="-7.5" font-family="FreeSans.ttf" font-size="10.00" fill="#000000">type_traits</text>
</g>
<!-- Node5&#45;&gt;Node12 -->
<g id="edge13" class="edge">
<title>Node5&#45;&gt;Node12</title>
<path fill="none" stroke="#191970" d="M340.4578,-56.3733C365.2407,-47.1822 402.7746,-33.2624 430.254,-23.0713"/>
<polygon fill="#191970" stroke="#191970" points="431.7219,-26.26 439.8809,-19.5011 429.2879,-19.6968 431.7219,-26.26"/>
</g>
<!-- Node13 -->
<g id="node14" class="node">
<title>Node13</title>
<polygon fill="none" stroke="#bfbfbf" points="518,-.5 518,-19.5 563,-19.5 563,-.5 518,-.5"/>
<text text-anchor="middle" x="540.5" y="-7.5" font-family="FreeSans.ttf" font-size="10.00" fill="#000000">utility</text>
</g>
<!-- Node5&#45;&gt;Node13 -->
<g id="edge14" class="edge">
<title>Node5&#45;&gt;Node13</title>
<path fill="none" stroke="#191970" d="M358.6409,-56.4595C395.9495,-48.1881 450.9996,-35.4992 507.9351,-20.0143"/>
<polygon fill="#191970" stroke="#191970" points="509.1146,-23.3201 517.8323,-17.2991 507.2626,-16.5696 509.1146,-23.3201"/>
</g>
<!-- Node17&#45;&gt;Node2 -->
<g id="edge20" class="edge">
<title>Node17&#45;&gt;Node2</title>
<path fill="none" stroke="#191970" d="M324.6742,-168.2455C324.8047,-160.9382 324.9876,-150.6944 325.1481,-141.7046"/>
<polygon fill="#191970" stroke="#191970" points="328.6486,-141.7036 325.3278,-131.6427 321.6497,-141.5786 328.6486,-141.7036"/>
</g>
<!-- Node18&#45;&gt;Node3 -->
<g id="edge41" class="edge">
<title>Node18&#45;&gt;Node3</title>
<path fill="none" stroke="#191970" d="M417.4937,-336.4445C379.8662,-314.5707 288.5473,-257.3618 233.5,-188 208.0673,-155.9537 190.7697,-110.7101 182.3698,-85.2876"/>
<polygon fill="#191970" stroke="#191970" points="185.6866,-84.1682 179.3168,-75.702 179.0167,-86.2926 185.6866,-84.1682"/>
</g>
<!-- Node18&#45;&gt;Node15 -->
<g id="edge44" class="edge">
<title>Node18&#45;&gt;Node15</title>
<path fill="none" stroke="#191970" d="M434.5,-336.4116C434.5,-317.0538 434.5,-271.9167 434.5,-234 434.5,-234 434.5,-234 434.5,-178 434.5,-144.7847 445.103,-107.3305 452.4987,-85.2459"/>
<polygon fill="#191970" stroke="#191970" points="455.8308,-86.3197 455.8112,-75.7249 449.2195,-84.0195 455.8308,-86.3197"/>
</g>
<!-- Node18&#45;&gt;Node17 -->
<g id="edge42" class="edge">
<title>Node18&#45;&gt;Node17</title>
<path fill="none" stroke="#191970" d="M428.2708,-336.4862C410.5812,-309.4695 359.8182,-231.9405 336.4888,-196.3102"/>
<polygon fill="#191970" stroke="#191970" points="339.341,-194.2768 330.9349,-187.8279 333.4847,-198.1114 339.341,-194.2768"/>
</g>
<!-- Node19 -->
<g id="node20" class="node">
<title>Node19</title>
<g id="a_node20"><a xlink:href="Position_8h.html" target="_top" xlink:title="Position.h">
<polygon fill="none" stroke="#000000" points="560,-280.5 560,-299.5 625,-299.5 625,-280.5 560,-280.5"/>
<text text-anchor="middle" x="592.5" y="-287.5" font-family="FreeSans.ttf" font-size="10.00" fill="#000000">Position.h</text>
</a>
</g>
</g>
<!-- Node18&#45;&gt;Node19 -->
<g id="edge22" class="edge">
<title>Node18&#45;&gt;Node19</title>
<path fill="none" stroke="#191970" d="M461.6612,-336.3733C487.7067,-327.1419 527.2116,-313.1402 555.9979,-302.9375"/>
<polygon fill="#191970" stroke="#191970" points="557.437,-306.1408 565.6933,-299.5011 555.0985,-299.5429 557.437,-306.1408"/>
</g>
<!-- Node21 -->
<g id="node22" class="node">
<title>Node21</title>
<g id="a_node22"><a xlink:href="Rotation_8h.html" target="_top" xlink:title="iDynTree/Core/Rotation.h">
<polygon fill="none" stroke="#000000" points="488,-224.5 488,-243.5 625,-243.5 625,-224.5 488,-224.5"/>
<text text-anchor="middle" x="556.5" y="-231.5" font-family="FreeSans.ttf" font-size="10.00" fill="#000000">iDynTree/Core/Rotation.h</text>
</a>
</g>
</g>
<!-- Node18&#45;&gt;Node21 -->
<g id="edge40" class="edge">
<title>Node18&#45;&gt;Node21</title>
<path fill="none" stroke="#191970" d="M444.9017,-336.4509C465.7,-317.3574 512.6347,-274.2697 538.5199,-250.5063"/>
<polygon fill="#191970" stroke="#191970" points="541.1251,-252.8659 546.1247,-243.5249 536.3912,-247.7093 541.1251,-252.8659"/>
</g>
<!-- Node24 -->
<g id="node25" class="node">
<title>Node24</title>
<polygon fill="none" stroke="#bfbfbf" points="802.5,-56.5 802.5,-75.5 862.5,-75.5 862.5,-56.5 802.5,-56.5"/>
<text text-anchor="middle" x="832.5" y="-63.5" font-family="FreeSans.ttf" font-size="10.00" fill="#000000">iostream</text>
</g>
<!-- Node18&#45;&gt;Node24 -->
<g id="edge43" class="edge">
<title>Node18&#45;&gt;Node24</title>
<path fill="none" stroke="#191970" d="M513.4897,-336.4658C654.8599,-318.3227 936.5,-276.806 936.5,-234 936.5,-234 936.5,-234 936.5,-178 936.5,-133.5129 891.894,-99.2585 861.1076,-80.9145"/>
<polygon fill="#191970" stroke="#191970" points="862.4795,-77.667 852.0616,-75.7386 859.0031,-83.7428 862.4795,-77.667"/>
</g>
<!-- Node19&#45;&gt;Node14 -->
<g id="edge39" class="edge">
<title>Node19&#45;&gt;Node14</title>
<path fill="none" stroke="#191970" d="M625.1112,-283.3075C693.7432,-268.4917 849.2722,-230.8231 879.5,-188 930.5685,-115.6524 763.3355,-81.5071 690.5987,-70.3303"/>
<polygon fill="#191970" stroke="#191970" points="690.9952,-66.8509 680.5899,-68.8461 689.9683,-73.7752 690.9952,-66.8509"/>
</g>
<!-- Node20 -->
<g id="node21" class="node">
<title>Node20</title>
<g id="a_node21"><a xlink:href="PositionRaw_8h.html" target="_top" xlink:title="iDynTree/Core/PositionRaw.h">
<polygon fill="none" stroke="#000000" points="714.5,-168.5 714.5,-187.5 870.5,-187.5 870.5,-168.5 714.5,-168.5"/>
<text text-anchor="middle" x="792.5" y="-175.5" font-family="FreeSans.ttf" font-size="10.00" fill="#000000">iDynTree/Core/PositionRaw.h</text>
</a>
</g>
</g>
<!-- Node19&#45;&gt;Node20 -->
<g id="edge23" class="edge">
<title>Node19&#45;&gt;Node20</title>
<path fill="none" stroke="#191970" d="M609.5519,-280.4509C644.6069,-260.8201 724.9538,-215.8259 766.5228,-192.5472"/>
<polygon fill="#191970" stroke="#191970" points="768.4763,-195.4647 775.4913,-187.5249 765.0561,-189.3572 768.4763,-195.4647"/>
</g>
<!-- Node19&#45;&gt;Node21 -->
<g id="edge26" class="edge">
<title>Node19&#45;&gt;Node21</title>
<path fill="none" stroke="#191970" d="M586.2293,-280.2455C581.2736,-272.5367 574.217,-261.5598 568.2224,-252.2348"/>
<polygon fill="#191970" stroke="#191970" points="571.0506,-250.1618 562.6989,-243.6427 565.1624,-253.9471 571.0506,-250.1618"/>
</g>
<!-- Node20&#45;&gt;Node2 -->
<g id="edge24" class="edge">
<title>Node20&#45;&gt;Node2</title>
<path fill="none" stroke="#191970" d="M714.3347,-168.6269C631.787,-158.7282 501.8374,-143.1454 415.1777,-132.7536"/>
<polygon fill="#191970" stroke="#191970" points="415.4389,-129.26 405.0933,-131.5444 414.6054,-136.2102 415.4389,-129.26"/>
</g>
<!-- Node20&#45;&gt;Node14 -->
<g id="edge25" class="edge">
<title>Node20&#45;&gt;Node14</title>
<path fill="none" stroke="#191970" d="M781.0752,-168.4509C758.1323,-149.2747 706.233,-105.8962 677.8807,-82.1988"/>
<polygon fill="#191970" stroke="#191970" points="679.8133,-79.2525 669.8958,-75.5249 675.3241,-84.6235 679.8133,-79.2525"/>
</g>
<!-- Node21&#45;&gt;Node2 -->
<g id="edge38" class="edge">
<title>Node21&#45;&gt;Node2</title>
<path fill="none" stroke="#191970" d="M536.8051,-224.4509C495.9756,-204.6548 401.9492,-159.0663 354.3003,-135.9638"/>
<polygon fill="#191970" stroke="#191970" points="355.6702,-132.7383 345.1451,-131.5249 352.6163,-139.037 355.6702,-132.7383"/>
</g>
<!-- Node21&#45;&gt;Node14 -->
<g id="edge27" class="edge">
<title>Node21&#45;&gt;Node14</title>
<path fill="none" stroke="#191970" d="M612.3536,-224.4367C633.2742,-217.8472 654.9852,-206.7332 667.5,-188 688.3419,-156.8021 676.1328,-110.5647 666.5632,-84.9015"/>
<polygon fill="#191970" stroke="#191970" points="669.7964,-83.5599 662.8514,-75.5588 663.291,-86.1445 669.7964,-83.5599"/>
</g>
<!-- Node21&#45;&gt;Node17 -->
<g id="edge28" class="edge">
<title>Node21&#45;&gt;Node17</title>
<path fill="none" stroke="#191970" d="M516.8814,-224.4369C477.3432,-214.8932 416.4931,-200.2052 373.8418,-189.9101"/>
<polygon fill="#191970" stroke="#191970" points="374.4973,-186.4679 363.9552,-187.5237 372.8548,-193.2724 374.4973,-186.4679"/>
</g>
<!-- Node22 -->
<g id="node23" class="node">
<title>Node22</title>
<g id="a_node23"><a xlink:href="RotationRaw_8h.html" target="_top" xlink:title="iDynTree/Core/RotationRaw.h">
<polygon fill="none" stroke="#000000" points="500.5,-168.5 500.5,-187.5 658.5,-187.5 658.5,-168.5 500.5,-168.5"/>
<text text-anchor="middle" x="579.5" y="-175.5" font-family="FreeSans.ttf" font-size="10.00" fill="#000000">iDynTree/Core/RotationRaw.h</text>
</a>
</g>
</g>
<!-- Node21&#45;&gt;Node22 -->
<g id="edge29" class="edge">
<title>Node21&#45;&gt;Node22</title>
<path fill="none" stroke="#191970" d="M560.5063,-224.2455C563.5735,-216.7776 567.9003,-206.2427 571.6497,-197.1137"/>
<polygon fill="#191970" stroke="#191970" points="574.9779,-198.2226 575.5396,-187.6427 568.5028,-195.5631 574.9779,-198.2226"/>
</g>
<!-- Node22&#45;&gt;Node14 -->
<g id="edge37" class="edge">
<title>Node22&#45;&gt;Node14</title>
<path fill="none" stroke="#191970" d="M594.6191,-168.3031C606.5956,-159.9474 623.0039,-146.9012 633.5,-132 643.4103,-117.9305 649.9714,-99.4325 653.8752,-85.6005"/>
<polygon fill="#191970" stroke="#191970" points="657.3251,-86.2402 656.4496,-75.6816 650.5496,-84.4817 657.3251,-86.2402"/>
</g>
<!-- Node23 -->
<g id="node24" class="node">
<title>Node23</title>
<g id="a_node24"><a xlink:href="MatrixFixSize_8h.html" target="_top" xlink:title="iDynTree/Core/MatrixFixSize.h">
<polygon fill="none" stroke="#000000" points="463,-112.5 463,-131.5 624,-131.5 624,-112.5 463,-112.5"/>
<text text-anchor="middle" x="543.5" y="-119.5" font-family="FreeSans.ttf" font-size="10.00" fill="#000000">iDynTree/Core/MatrixFixSize.h</text>
</a>
</g>
</g>
<!-- Node22&#45;&gt;Node23 -->
<g id="edge30" class="edge">
<title>Node22&#45;&gt;Node23</title>
<path fill="none" stroke="#191970" d="M573.2293,-168.2455C568.2736,-160.5367 561.217,-149.5598 555.2224,-140.2348"/>
<polygon fill="#191970" stroke="#191970" points="558.0506,-138.1618 549.6989,-131.6427 552.1624,-141.9471 558.0506,-138.1618"/>
</g>
<!-- Node23&#45;&gt;Node3 -->
<g id="edge31" class="edge">
<title>Node23&#45;&gt;Node3</title>
<path fill="none" stroke="#191970" d="M480.8275,-112.4369C415.6905,-102.4977 313.9884,-86.9792 246.3193,-76.6536"/>
<polygon fill="#191970" stroke="#191970" points="246.5901,-73.1545 236.1766,-75.106 245.5342,-80.0744 246.5901,-73.1545"/>
</g>
<!-- Node23&#45;&gt;Node6 -->
<g id="edge32" class="edge">
<title>Node23&#45;&gt;Node6</title>
<path fill="none" stroke="#191970" d="M549.3503,-112.1624C554.8577,-102.8708 563.3113,-88.5302 570.5,-76 579.5638,-60.2014 589.6635,-42.155 597.018,-28.9304"/>
<polygon fill="#191970" stroke="#191970" points="600.2516,-30.3165 602.0443,-19.8744 594.1311,-26.9194 600.2516,-30.3165"/>
</g>
<!-- Node23&#45;&gt;Node14 -->
<g id="edge34" class="edge">
<title>Node23&#45;&gt;Node14</title>
<path fill="none" stroke="#191970" d="M563.2692,-112.3733C581.6469,-103.4241 609.2312,-89.9917 629.9893,-79.8835"/>
<polygon fill="#191970" stroke="#191970" points="631.5304,-83.026 638.9888,-75.5011 628.4657,-76.7325 631.5304,-83.026"/>
</g>
<!-- Node23&#45;&gt;Node15 -->
<g id="edge36" class="edge">
<title>Node23&#45;&gt;Node15</title>
<path fill="none" stroke="#191970" d="M528.8683,-112.2455C516.1006,-103.7337 497.3562,-91.2375 482.5701,-81.3801"/>
<polygon fill="#191970" stroke="#191970" points="484.226,-78.2775 473.964,-75.6427 480.3431,-84.1019 484.226,-78.2775"/>
</g>
<!-- Node23&#45;&gt;Node16 -->
<g id="edge33" class="edge">
<title>Node23&#45;&gt;Node16</title>
<path fill="none" stroke="#191970" d="M542.2807,-112.2455C541.3673,-104.9382 540.0868,-94.6944 538.9631,-85.7046"/>
<polygon fill="#191970" stroke="#191970" points="542.4187,-85.1313 537.7053,-75.6427 535.4728,-85.9996 542.4187,-85.1313"/>
</g>
<!-- Node23&#45;&gt;Node24 -->
<g id="edge35" class="edge">
<title>Node23&#45;&gt;Node24</title>
<path fill="none" stroke="#191970" d="M592.8525,-112.4369C649.2272,-101.5131 740.3834,-83.8496 792.5139,-73.7482"/>
<polygon fill="#191970" stroke="#191970" points="793.2462,-77.1715 802.3977,-71.833 791.9145,-70.2993 793.2462,-77.1715"/>
</g>
</g>
</svg>
