<?xml version="1.0" encoding="UTF-8" standalone="no"?>
<!DOCTYPE svg PUBLIC "-//W3C//DTD SVG 1.1//EN"
 "http://www.w3.org/Graphics/SVG/1.1/DTD/svg11.dtd">
<!-- Generated by graphviz version 2.40.1 (20161225.0304)
 -->
<!-- Title: URDFModelImport.cpp Pages: 1 -->
<svg width="1724pt" height="856pt"
 viewBox="0.00 0.00 1723.83 856.00" xmlns="http://www.w3.org/2000/svg" xmlns:xlink="http://www.w3.org/1999/xlink">
<g id="graph0" class="graph" transform="scale(1 1) rotate(0) translate(4 852)">
<title>URDFModelImport.cpp</title>
<!-- Node0 -->
<g id="node1" class="node">
<title>Node0</title>
<polygon fill="#bfbfbf" stroke="#000000" points="921.3253,-828.5 921.3253,-847.5 1046.3253,-847.5 1046.3253,-828.5 921.3253,-828.5"/>
<text text-anchor="middle" x="983.8253" y="-835.5" font-family="FreeSans.ttf" font-size="10.00" fill="#000000">URDFModelImport.cpp</text>
</g>
<!-- Node1 -->
<g id="node2" class="node">
<title>Node1</title>
<g id="a_node2"><a xlink:href="URDFModelImport_8h.html" target="_top" xlink:title="iDynTree/ModelIO/URDFModel\lImport.h">
<polygon fill="none" stroke="#000000" points="728.3253,-112.5 728.3253,-142.5 889.3253,-142.5 889.3253,-112.5 728.3253,-112.5"/>
<text text-anchor="start" x="736.3253" y="-130.5" font-family="FreeSans.ttf" font-size="10.00" fill="#000000">iDynTree/ModelIO/URDFModel</text>
<text text-anchor="middle" x="808.8253" y="-119.5" font-family="FreeSans.ttf" font-size="10.00" fill="#000000">Import.h</text>
</a>
</g>
</g>
<!-- Node0&#45;&gt;Node1 -->
<g id="edge1" class="edge">
<title>Node0&#45;&gt;Node1</title>
<path fill="none" stroke="#191970" d="M981.0218,-828.2066C975.7366,-808.8521 964.8253,-764.2612 964.8253,-726 964.8253,-726 964.8253,-726 964.8253,-670 964.8253,-601.0037 917.1465,-597.2499 868.8253,-548 851.1297,-529.9643 841.9525,-530.5763 824.8253,-512 794.6156,-479.2342 767.8253,-474.0671 767.8253,-429.5 767.8253,-429.5 767.8253,-429.5 767.8253,-245 767.8253,-211.3494 783.0014,-175.1523 794.8874,-151.963"/>
<polygon fill="#191970" stroke="#191970" points="798.1199,-153.3388 799.7261,-142.8664 791.9398,-150.0514 798.1199,-153.3388"/>
</g>
<!-- Node5 -->
<g id="node6" class="node">
<title>Node5</title>
<g id="a_node6"><a xlink:href="ModelLoader_8h.html" target="_top" xlink:title="iDynTree/ModelIO/ModelLoader.h">
<polygon fill="none" stroke="#000000" points="144.8253,-772.5 144.8253,-791.5 320.8253,-791.5 320.8253,-772.5 144.8253,-772.5"/>
<text text-anchor="middle" x="232.8253" y="-779.5" font-family="FreeSans.ttf" font-size="10.00" fill="#000000">iDynTree/ModelIO/ModelLoader.h</text>
</a>
</g>
</g>
<!-- Node0&#45;&gt;Node5 -->
<g id="edge5" class="edge">
<title>Node0&#45;&gt;Node5</title>
<path fill="none" stroke="#191970" d="M921.0872,-833.3218C790.349,-823.573 487.906,-801.0207 331.0929,-789.3275"/>
<polygon fill="#191970" stroke="#191970" points="331.2105,-785.8267 320.9779,-788.5733 330.6899,-792.8073 331.2105,-785.8267"/>
</g>
<!-- Node6 -->
<g id="node7" class="node">
<title>Node6</title>
<g id="a_node7"><a xlink:href="Model_8h.html" target="_top" xlink:title="iDynTree/Model/Model.h">
<polygon fill="none" stroke="#000000" points="439.3253,-660.5 439.3253,-679.5 572.3253,-679.5 572.3253,-660.5 439.3253,-660.5"/>
<text text-anchor="middle" x="505.8253" y="-667.5" font-family="FreeSans.ttf" font-size="10.00" fill="#000000">iDynTree/Model/Model.h</text>
</a>
</g>
</g>
<!-- Node0&#45;&gt;Node6 -->
<g id="edge96" class="edge">
<title>Node0&#45;&gt;Node6</title>
<path fill="none" stroke="#191970" d="M956.7564,-828.4862C875.6763,-799.9894 634.6989,-715.2945 542.3777,-682.8468"/>
<polygon fill="#191970" stroke="#191970" points="543.4877,-679.5272 532.8929,-679.5133 541.1666,-686.1312 543.4877,-679.5272"/>
</g>
<!-- Node16 -->
<g id="node17" class="node">
<title>Node16</title>
<polygon fill="none" stroke="#bfbfbf" points="1399.8253,-56.5 1399.8253,-75.5 1459.8253,-75.5 1459.8253,-56.5 1399.8253,-56.5"/>
<text text-anchor="middle" x="1429.8253" y="-63.5" font-family="FreeSans.ttf" font-size="10.00" fill="#000000">iostream</text>
</g>
<!-- Node0&#45;&gt;Node16 -->
<g id="edge99" class="edge">
<title>Node0&#45;&gt;Node16</title>
<path fill="none" stroke="#191970" d="M992.1257,-828.3041C1004.5507,-814.2879 1029.2702,-788.2669 1054.8253,-772 1333.9475,-594.3267 1715.8253,-760.3731 1715.8253,-429.5 1715.8253,-429.5 1715.8253,-429.5 1715.8253,-189 1715.8253,-136.1086 1548.6682,-92.1993 1469.9383,-74.4515"/>
<polygon fill="#191970" stroke="#191970" points="1470.4127,-70.9717 1459.8918,-72.2208 1468.8953,-77.8053 1470.4127,-70.9717"/>
</g>
<!-- Node41 -->
<g id="node42" class="node">
<title>Node41</title>
<polygon fill="none" stroke="#bfbfbf" points="811.3253,-548.5 811.3253,-567.5 860.3253,-567.5 860.3253,-548.5 811.3253,-548.5"/>
<text text-anchor="middle" x="835.8253" y="-555.5" font-family="FreeSans.ttf" font-size="10.00" fill="#000000">cstdlib</text>
</g>
<!-- Node0&#45;&gt;Node41 -->
<g id="edge97" class="edge">
<title>Node0&#45;&gt;Node41</title>
<path fill="none" stroke="#191970" d="M966.8412,-828.368C939.5159,-811.4638 888.8253,-773.6798 888.8253,-726 888.8253,-726 888.8253,-726 888.8253,-670 888.8253,-633.8604 866.0001,-596.9196 850.3078,-575.7933"/>
<polygon fill="#191970" stroke="#191970" points="852.9863,-573.5352 844.1066,-567.7558 847.4441,-577.8112 852.9863,-573.5352"/>
</g>
<!-- Node46 -->
<g id="node47" class="node">
<title>Node46</title>
<polygon fill="none" stroke="#bfbfbf" points="1063.3253,-772.5 1063.3253,-791.5 1110.3253,-791.5 1110.3253,-772.5 1063.3253,-772.5"/>
<text text-anchor="middle" x="1086.8253" y="-779.5" font-family="FreeSans.ttf" font-size="10.00" fill="#000000">cmath</text>
</g>
<!-- Node0&#45;&gt;Node46 -->
<g id="edge98" class="edge">
<title>Node0&#45;&gt;Node46</title>
<path fill="none" stroke="#191970" d="M1001.7666,-828.2455C1017.8653,-819.4928 1041.7132,-806.527 1060.0644,-796.5496"/>
<polygon fill="#191970" stroke="#191970" points="1061.976,-799.4942 1069.0897,-791.6427 1058.6324,-793.3444 1061.976,-799.4942"/>
</g>
<!-- Node47 -->
<g id="node48" class="node">
<title>Node47</title>
<polygon fill="none" stroke="#bfbfbf" points="1128.3253,-772.5 1128.3253,-791.5 1183.3253,-791.5 1183.3253,-772.5 1128.3253,-772.5"/>
<text text-anchor="middle" x="1155.8253" y="-779.5" font-family="FreeSans.ttf" font-size="10.00" fill="#000000">fstream</text>
</g>
<!-- Node0&#45;&gt;Node47 -->
<g id="edge100" class="edge">
<title>Node0&#45;&gt;Node47</title>
<path fill="none" stroke="#191970" d="M1013.3932,-828.3733C1042.4275,-818.9202 1086.8261,-804.4649 1118.3262,-794.209"/>
<polygon fill="#191970" stroke="#191970" points="1119.6393,-797.4624 1128.0644,-791.0384 1117.4721,-790.8063 1119.6393,-797.4624"/>
</g>
<!-- Node48 -->
<g id="node49" class="node">
<title>Node48</title>
<polygon fill="none" stroke="#bfbfbf" points="1201.8253,-772.5 1201.8253,-791.5 1233.8253,-791.5 1233.8253,-772.5 1201.8253,-772.5"/>
<text text-anchor="middle" x="1217.8253" y="-779.5" font-family="FreeSans.ttf" font-size="10.00" fill="#000000">set</text>
</g>
<!-- Node0&#45;&gt;Node48 -->
<g id="edge101" class="edge">
<title>Node0&#45;&gt;Node48</title>
<path fill="none" stroke="#191970" d="M1038.5892,-828.4929C1078.7983,-820.9369 1134.8038,-809.2169 1191.6799,-791.9966"/>
<polygon fill="#191970" stroke="#191970" points="1193.0313,-795.2426 1201.5568,-788.9524 1190.9695,-788.5531 1193.0313,-795.2426"/>
</g>
<!-- Node2 -->
<g id="node3" class="node">
<title>Node2</title>
<polygon fill="none" stroke="#bfbfbf" points="490.8253,-56.5 490.8253,-75.5 534.8253,-75.5 534.8253,-56.5 490.8253,-56.5"/>
<text text-anchor="middle" x="512.8253" y="-63.5" font-family="FreeSans.ttf" font-size="10.00" fill="#000000">string</text>
</g>
<!-- Node1&#45;&gt;Node2 -->
<g id="edge2" class="edge">
<title>Node1&#45;&gt;Node2</title>
<path fill="none" stroke="#191970" d="M736.4156,-112.4554C675.2835,-99.754 590.6312,-82.1658 545.0255,-72.6902"/>
<polygon fill="#191970" stroke="#191970" points="545.6114,-69.2373 535.1085,-70.6298 544.1874,-76.0909 545.6114,-69.2373"/>
</g>
<!-- Node3 -->
<g id="node4" class="node">
<title>Node3</title>
<g id="a_node4"><a xlink:href="Utils_8h.html" target="_top" xlink:title="iDynTree/Core/Utils.h">
<polygon fill="none" stroke="#000000" points="942.3253,-56.5 942.3253,-75.5 1061.3253,-75.5 1061.3253,-56.5 942.3253,-56.5"/>
<text text-anchor="middle" x="1001.8253" y="-63.5" font-family="FreeSans.ttf" font-size="10.00" fill="#000000">iDynTree/Core/Utils.h</text>
</a>
</g>
</g>
<!-- Node1&#45;&gt;Node3 -->
<g id="edge3" class="edge">
<title>Node1&#45;&gt;Node3</title>
<path fill="none" stroke="#191970" d="M856.0384,-112.4554C888.6647,-102.059 931.5657,-88.3884 962.3694,-78.5727"/>
<polygon fill="#191970" stroke="#191970" points="963.4519,-81.9013 971.9172,-75.5303 961.3265,-75.2317 963.4519,-81.9013"/>
</g>
<!-- Node4 -->
<g id="node5" class="node">
<title>Node4</title>
<polygon fill="none" stroke="#bfbfbf" points="975.3253,-.5 975.3253,-19.5 1028.3253,-19.5 1028.3253,-.5 975.3253,-.5"/>
<text text-anchor="middle" x="1001.8253" y="-7.5" font-family="FreeSans.ttf" font-size="10.00" fill="#000000">cstddef</text>
</g>
<!-- Node3&#45;&gt;Node4 -->
<g id="edge4" class="edge">
<title>Node3&#45;&gt;Node4</title>
<path fill="none" stroke="#191970" d="M1001.8253,-56.2455C1001.8253,-48.9382 1001.8253,-38.6944 1001.8253,-29.7046"/>
<polygon fill="#191970" stroke="#191970" points="1005.3254,-29.6426 1001.8253,-19.6427 998.3254,-29.6427 1005.3254,-29.6426"/>
</g>
<!-- Node5&#45;&gt;Node2 -->
<g id="edge94" class="edge">
<title>Node5&#45;&gt;Node2</title>
<path fill="none" stroke="#191970" d="M146.9916,-772.4897C96.2647,-765.1873 38.4131,-753.3718 19.8253,-736 -2.476,-715.1576 .8253,-700.5246 .8253,-670 .8253,-670 .8253,-670 .8253,-614 .8253,-525.3155 76.8253,-518.1845 76.8253,-429.5 76.8253,-429.5 76.8253,-429.5 76.8253,-189 76.8253,-140.9157 109.7289,-133.3259 152.8253,-112 210.1317,-83.6425 402.8397,-71.3363 480.2415,-67.454"/>
<polygon fill="#191970" stroke="#191970" points="480.5537,-70.943 490.3719,-66.9613 480.2136,-63.9513 480.5537,-70.943"/>
</g>
<!-- Node5&#45;&gt;Node6 -->
<g id="edge6" class="edge">
<title>Node5&#45;&gt;Node6</title>
<path fill="none" stroke="#191970" d="M256.1011,-772.4509C304.7571,-752.4895 417.3365,-706.3031 473.1879,-683.3897"/>
<polygon fill="#191970" stroke="#191970" points="474.6852,-686.5586 482.6084,-679.5249 472.0282,-680.0824 474.6852,-686.5586"/>
</g>
<!-- Node42 -->
<g id="node43" class="node">
<title>Node42</title>
<polygon fill="none" stroke="#bfbfbf" points="337.3253,-548.5 337.3253,-567.5 384.3253,-567.5 384.3253,-548.5 337.3253,-548.5"/>
<text text-anchor="middle" x="360.8253" y="-555.5" font-family="FreeSans.ttf" font-size="10.00" fill="#000000">vector</text>
</g>
<!-- Node5&#45;&gt;Node42 -->
<g id="edge95" class="edge">
<title>Node5&#45;&gt;Node42</title>
<path fill="none" stroke="#191970" d="M241.6435,-772.1845C249.0566,-763.3619 259.3022,-749.717 264.8253,-736 287.0132,-680.8948 252.8145,-653.388 285.8253,-604 295.8772,-588.9613 312.6782,-577.9926 327.8334,-570.5466"/>
<polygon fill="#191970" stroke="#191970" points="329.3448,-573.7041 336.9819,-566.3607 326.4323,-567.3388 329.3448,-573.7041"/>
</g>
<!-- Node43 -->
<g id="node44" class="node">
<title>Node43</title>
<g id="a_node44"><a xlink:href="Sensors_8h.html" target="_top" xlink:title="iDynTree/Sensors/Sensors.h">
<polygon fill="none" stroke="#000000" points="105.3253,-716.5 105.3253,-735.5 256.3253,-735.5 256.3253,-716.5 105.3253,-716.5"/>
<text text-anchor="middle" x="180.8253" y="-723.5" font-family="FreeSans.ttf" font-size="10.00" fill="#000000">iDynTree/Sensors/Sensors.h</text>
</a>
</g>
</g>
<!-- Node5&#45;&gt;Node43 -->
<g id="edge83" class="edge">
<title>Node5&#45;&gt;Node43</title>
<path fill="none" stroke="#191970" d="M223.7676,-772.2455C216.3112,-764.2155 205.5619,-752.6394 196.6836,-743.0781"/>
<polygon fill="#191970" stroke="#191970" points="199.1486,-740.589 189.7792,-735.6427 194.019,-745.3522 199.1486,-740.589"/>
</g>
<!-- Node45 -->
<g id="node46" class="node">
<title>Node45</title>
<polygon fill="none" stroke="#bfbfbf" points="28.8253,-716.5 28.8253,-735.5 86.8253,-735.5 86.8253,-716.5 28.8253,-716.5"/>
<text text-anchor="middle" x="57.8253" y="-723.5" font-family="FreeSans.ttf" font-size="10.00" fill="#000000">memory</text>
</g>
<!-- Node5&#45;&gt;Node45 -->
<g id="edge93" class="edge">
<title>Node5&#45;&gt;Node45</title>
<path fill="none" stroke="#191970" d="M202.7418,-772.3733C173.4655,-763.0049 128.8359,-748.7234 96.8427,-738.4856"/>
<polygon fill="#191970" stroke="#191970" points="97.5258,-735.0294 86.9348,-735.315 95.3923,-741.6964 97.5258,-735.0294"/>
</g>
<!-- Node7 -->
<g id="node8" class="node">
<title>Node7</title>
<g id="a_node8"><a xlink:href="IJoint_8h.html" target="_top" xlink:title="iDynTree/Model/IJoint.h">
<polygon fill="none" stroke="#000000" points="294.8253,-604.5 294.8253,-623.5 422.8253,-623.5 422.8253,-604.5 294.8253,-604.5"/>
<text text-anchor="middle" x="358.8253" y="-611.5" font-family="FreeSans.ttf" font-size="10.00" fill="#000000">iDynTree/Model/IJoint.h</text>
</a>
</g>
</g>
<!-- Node6&#45;&gt;Node7 -->
<g id="edge7" class="edge">
<title>Node6&#45;&gt;Node7</title>
<path fill="none" stroke="#191970" d="M480.5551,-660.3733C456.4287,-651.1822 419.8891,-637.2624 393.1376,-627.0713"/>
<polygon fill="#191970" stroke="#191970" points="394.3567,-623.7904 383.7658,-623.5011 391.8646,-630.3318 394.3567,-623.7904"/>
</g>
<!-- Node8 -->
<g id="node9" class="node">
<title>Node8</title>
<g id="a_node9"><a xlink:href="Indices_8h.html" target="_top" xlink:title="iDynTree/Model/Indices.h">
<polygon fill="none" stroke="#000000" points="180.8253,-548.5 180.8253,-567.5 318.8253,-567.5 318.8253,-548.5 180.8253,-548.5"/>
<text text-anchor="middle" x="249.8253" y="-555.5" font-family="FreeSans.ttf" font-size="10.00" fill="#000000">iDynTree/Model/Indices.h</text>
</a>
</g>
</g>
<!-- Node6&#45;&gt;Node8 -->
<g id="edge75" class="edge">
<title>Node6&#45;&gt;Node8</title>
<path fill="none" stroke="#191970" d="M439.2804,-662.2958C383.6919,-654.7524 309.79,-641.7976 285.8253,-624 270.4793,-612.6032 260.9096,-592.6458 255.5297,-577.6525"/>
<polygon fill="#191970" stroke="#191970" points="258.7491,-576.2346 252.33,-567.8058 252.0918,-578.398 258.7491,-576.2346"/>
</g>
<!-- Node9 -->
<g id="node10" class="node">
<title>Node9</title>
<g id="a_node10"><a xlink:href="Link_8h.html" target="_top" xlink:title="iDynTree/Model/Link.h">
<polygon fill="none" stroke="#000000" points="698.8253,-604.5 698.8253,-623.5 822.8253,-623.5 822.8253,-604.5 698.8253,-604.5"/>
<text text-anchor="middle" x="760.8253" y="-611.5" font-family="FreeSans.ttf" font-size="10.00" fill="#000000">iDynTree/Model/Link.h</text>
</a>
</g>
</g>
<!-- Node6&#45;&gt;Node9 -->
<g id="edge10" class="edge">
<title>Node6&#45;&gt;Node9</title>
<path fill="none" stroke="#191970" d="M549.3716,-660.4369C593.1046,-650.8328 660.5598,-636.0191 707.4795,-625.7152"/>
<polygon fill="#191970" stroke="#191970" points="708.4421,-629.0872 717.4586,-623.5237 706.9406,-622.2502 708.4421,-629.0872"/>
</g>
<!-- Node39 -->
<g id="node40" class="node">
<title>Node39</title>
<g id="a_node40"><a xlink:href="Transform_8h.html" target="_top" xlink:title="iDynTree/Core/Transform.h">
<polygon fill="none" stroke="#000000" points="593.8253,-358.5 593.8253,-377.5 739.8253,-377.5 739.8253,-358.5 593.8253,-358.5"/>
<text text-anchor="middle" x="666.8253" y="-365.5" font-family="FreeSans.ttf" font-size="10.00" fill="#000000">iDynTree/Core/Transform.h</text>
</a>
</g>
</g>
<!-- Node6&#45;&gt;Node39 -->
<g id="edge70" class="edge">
<title>Node6&#45;&gt;Node39</title>
<path fill="none" stroke="#191970" d="M551.1923,-660.4654C588.2505,-651.8229 636.7248,-638.2845 650.8253,-624 672.3576,-602.1868 670.8253,-588.6506 670.8253,-558 670.8253,-558 670.8253,-558 670.8253,-496.5 670.8253,-457.9826 669.0077,-413.0023 667.8229,-387.7753"/>
<polygon fill="#191970" stroke="#191970" points="671.3131,-387.487 667.3319,-377.6687 664.3214,-387.8268 671.3131,-387.487"/>
</g>
<!-- Node40 -->
<g id="node41" class="node">
<title>Node40</title>
<g id="a_node41"><a xlink:href="SolidShapes_8h.html" target="_top" xlink:title="iDynTree/Model/SolidShapes.h">
<polygon fill="none" stroke="#000000" points="479.3253,-604.5 479.3253,-623.5 642.3253,-623.5 642.3253,-604.5 479.3253,-604.5"/>
<text text-anchor="middle" x="560.8253" y="-611.5" font-family="FreeSans.ttf" font-size="10.00" fill="#000000">iDynTree/Model/SolidShapes.h</text>
</a>
</g>
</g>
<!-- Node6&#45;&gt;Node40 -->
<g id="edge76" class="edge">
<title>Node6&#45;&gt;Node40</title>
<path fill="none" stroke="#191970" d="M515.4056,-660.2455C523.3711,-652.1352 534.8894,-640.4075 544.3333,-630.7919"/>
<polygon fill="#191970" stroke="#191970" points="546.8448,-633.2297 551.3548,-623.6427 541.8507,-628.3247 546.8448,-633.2297"/>
</g>
<!-- Node6&#45;&gt;Node41 -->
<g id="edge81" class="edge">
<title>Node6&#45;&gt;Node41</title>
<path fill="none" stroke="#191970" d="M572.6099,-665.0575C662.8541,-657.7106 814.5217,-642.7397 831.8253,-624 843.1197,-611.7683 842.9007,-592.2128 840.5887,-577.5576"/>
<polygon fill="#191970" stroke="#191970" points="843.9708,-576.6225 838.5687,-567.5084 837.1081,-578.002 843.9708,-576.6225"/>
</g>
<!-- Node6&#45;&gt;Node42 -->
<g id="edge82" class="edge">
<title>Node6&#45;&gt;Node42</title>
<path fill="none" stroke="#191970" d="M495.7199,-660.0755C481.8582,-646.6793 455.9155,-622.3745 431.8253,-604 417.0726,-592.7476 399.5906,-581.399 385.6654,-572.7894"/>
<polygon fill="#191970" stroke="#191970" points="387.4515,-569.7791 377.0925,-567.5556 383.8039,-575.7537 387.4515,-569.7791"/>
</g>
<!-- Node7&#45;&gt;Node8 -->
<g id="edge8" class="edge">
<title>Node7&#45;&gt;Node8</title>
<path fill="none" stroke="#191970" d="M339.839,-604.2455C322.6461,-595.4125 297.1015,-582.2887 277.6121,-572.2758"/>
<polygon fill="#191970" stroke="#191970" points="279.0883,-569.0993 268.5941,-567.6427 275.8894,-575.3257 279.0883,-569.0993"/>
</g>
<!-- Node8&#45;&gt;Node2 -->
<g id="edge9" class="edge">
<title>Node8&#45;&gt;Node2</title>
<path fill="none" stroke="#191970" d="M249.8253,-548.3281C249.8253,-526.9175 249.8253,-473.895 249.8253,-429.5 249.8253,-429.5 249.8253,-429.5 249.8253,-189 249.8253,-145.0629 274.5746,-135.2993 311.8253,-112 339.6767,-94.5798 430.904,-78.4943 480.3203,-70.7835"/>
<polygon fill="#191970" stroke="#191970" points="481.1279,-74.2006 490.4813,-69.2242 480.066,-67.2816 481.1279,-74.2006"/>
</g>
<!-- Node9&#45;&gt;Node8 -->
<g id="edge69" class="edge">
<title>Node9&#45;&gt;Node8</title>
<path fill="none" stroke="#191970" d="M698.754,-607.8326C616.6895,-599.5835 467.3021,-584.2387 329.4636,-568.1729"/>
<polygon fill="#191970" stroke="#191970" points="329.4771,-564.6507 319.1383,-566.9654 328.664,-571.6033 329.4771,-564.6507"/>
</g>
<!-- Node10 -->
<g id="node11" class="node">
<title>Node10</title>
<g id="a_node11"><a xlink:href="SpatialInertia_8h.html" target="_top" xlink:title="iDynTree/Core/SpatialInertia.h">
<polygon fill="none" stroke="#000000" points="1125.8253,-548.5 1125.8253,-567.5 1287.8253,-567.5 1287.8253,-548.5 1125.8253,-548.5"/>
<text text-anchor="middle" x="1206.8253" y="-555.5" font-family="FreeSans.ttf" font-size="10.00" fill="#000000">iDynTree/Core/SpatialInertia.h</text>
</a>
</g>
</g>
<!-- Node9&#45;&gt;Node10 -->
<g id="edge11" class="edge">
<title>Node9&#45;&gt;Node10</title>
<path fill="none" stroke="#191970" d="M822.8397,-606.2134C900.3144,-596.4857 1033.2987,-579.7881 1120.6424,-568.8212"/>
<polygon fill="#191970" stroke="#191970" points="1121.3103,-572.2649 1130.7964,-567.5462 1120.4382,-565.3194 1121.3103,-572.2649"/>
</g>
<!-- Node11 -->
<g id="node12" class="node">
<title>Node11</title>
<g id="a_node12"><a xlink:href="SpatialInertiaRaw_8h.html" target="_top" xlink:title="iDynTree/Core/SpatialInertia\lRaw.h">
<polygon fill="none" stroke="#000000" points="1534.3253,-481.5 1534.3253,-511.5 1687.3253,-511.5 1687.3253,-481.5 1534.3253,-481.5"/>
<text text-anchor="start" x="1542.3253" y="-499.5" font-family="FreeSans.ttf" font-size="10.00" fill="#000000">iDynTree/Core/SpatialInertia</text>
<text text-anchor="middle" x="1610.8253" y="-488.5" font-family="FreeSans.ttf" font-size="10.00" fill="#000000">Raw.h</text>
</a>
</g>
</g>
<!-- Node10&#45;&gt;Node11 -->
<g id="edge12" class="edge">
<title>Node10&#45;&gt;Node11</title>
<path fill="none" stroke="#191970" d="M1274.6663,-548.4846C1338.1108,-539.478 1435.4732,-525.3805 1519.8253,-512 1521.1163,-511.7952 1522.4174,-511.5877 1523.7267,-511.378"/>
<polygon fill="#191970" stroke="#191970" points="1524.5801,-514.7854 1533.8915,-509.7308 1523.4603,-507.8756 1524.5801,-514.7854"/>
</g>
<!-- Node18 -->
<g id="node19" class="node">
<title>Node18</title>
<g id="a_node19"><a xlink:href="VectorFixSize_8h.html" target="_top" xlink:title="iDynTree/Core/VectorFixSize.h">
<polygon fill="none" stroke="#000000" points="943.3253,-118 943.3253,-137 1104.3253,-137 1104.3253,-118 943.3253,-118"/>
<text text-anchor="middle" x="1023.8253" y="-125" font-family="FreeSans.ttf" font-size="10.00" fill="#000000">iDynTree/Core/VectorFixSize.h</text>
</a>
</g>
</g>
<!-- Node10&#45;&gt;Node18 -->
<g id="edge21" class="edge">
<title>Node10&#45;&gt;Node18</title>
<path fill="none" stroke="#191970" d="M1287.8565,-550.021C1365.8854,-541.5006 1473.9515,-527.1614 1486.8253,-512 1495.7431,-501.4976 1491.4042,-493.9947 1486.8253,-481 1429.571,-318.5145 1389.6425,-270.7439 1243.8253,-179 1219.0545,-163.4149 1148.4192,-148.5017 1093.8003,-138.7719"/>
<polygon fill="#191970" stroke="#191970" points="1094.2574,-135.2987 1083.8028,-137.0164 1093.0468,-142.1932 1094.2574,-135.2987"/>
</g>
<!-- Node27 -->
<g id="node28" class="node">
<title>Node27</title>
<g id="a_node28"><a xlink:href="Twist_8h.html" target="_top" xlink:title="iDynTree/Core/Twist.h">
<polygon fill="none" stroke="#000000" points="999.8253,-487 999.8253,-506 1121.8253,-506 1121.8253,-487 999.8253,-487"/>
<text text-anchor="middle" x="1060.8253" y="-494" font-family="FreeSans.ttf" font-size="10.00" fill="#000000">iDynTree/Core/Twist.h</text>
</a>
</g>
</g>
<!-- Node10&#45;&gt;Node27 -->
<g id="edge37" class="edge">
<title>Node10&#45;&gt;Node27</title>
<path fill="none" stroke="#191970" d="M1184.0128,-548.3906C1159.4772,-538.0554 1120.2811,-521.5447 1092.7042,-509.9284"/>
<polygon fill="#191970" stroke="#191970" points="1094.0521,-506.6984 1083.4776,-506.0419 1091.3347,-513.1495 1094.0521,-506.6984"/>
</g>
<!-- Node35 -->
<g id="node36" class="node">
<title>Node35</title>
<g id="a_node36"><a xlink:href="SpatialMomentum_8h.html" target="_top" xlink:title="iDynTree/Core/SpatialMomentum.h">
<polygon fill="none" stroke="#000000" points="1291.8253,-487 1291.8253,-506 1477.8253,-506 1477.8253,-487 1291.8253,-487"/>
<text text-anchor="middle" x="1384.8253" y="-494" font-family="FreeSans.ttf" font-size="10.00" fill="#000000">iDynTree/Core/SpatialMomentum.h</text>
</a>
</g>
</g>
<!-- Node10&#45;&gt;Node35 -->
<g id="edge60" class="edge">
<title>Node10&#45;&gt;Node35</title>
<path fill="none" stroke="#191970" d="M1234.6378,-548.3906C1265.0736,-537.8749 1314.013,-520.966 1347.7079,-509.3243"/>
<polygon fill="#191970" stroke="#191970" points="1348.8994,-512.6157 1357.2081,-506.0419 1346.6134,-505.9995 1348.8994,-512.6157"/>
</g>
<!-- Node37 -->
<g id="node38" class="node">
<title>Node37</title>
<g id="a_node38"><a xlink:href="SpatialAcc_8h.html" target="_top" xlink:title="iDynTree/Core/SpatialAcc.h">
<polygon fill="none" stroke="#000000" points="833.8253,-487 833.8253,-506 981.8253,-506 981.8253,-487 833.8253,-487"/>
<text text-anchor="middle" x="907.8253" y="-494" font-family="FreeSans.ttf" font-size="10.00" fill="#000000">iDynTree/Core/SpatialAcc.h</text>
</a>
</g>
</g>
<!-- Node10&#45;&gt;Node37 -->
<g id="edge65" class="edge">
<title>Node10&#45;&gt;Node37</title>
<path fill="none" stroke="#191970" d="M1160.4346,-548.4581C1107.5137,-537.573 1020.9839,-519.7751 964.2148,-508.0985"/>
<polygon fill="#191970" stroke="#191970" points="964.825,-504.6508 954.3248,-506.0643 963.4146,-511.5073 964.825,-504.6508"/>
</g>
<!-- Node38 -->
<g id="node39" class="node">
<title>Node38</title>
<g id="a_node39"><a xlink:href="Wrench_8h.html" target="_top" xlink:title="iDynTree/Core/Wrench.h">
<polygon fill="none" stroke="#000000" points="1140.3253,-487 1140.3253,-506 1273.3253,-506 1273.3253,-487 1140.3253,-487"/>
<text text-anchor="middle" x="1206.8253" y="-494" font-family="FreeSans.ttf" font-size="10.00" fill="#000000">iDynTree/Core/Wrench.h</text>
</a>
</g>
</g>
<!-- Node10&#45;&gt;Node38 -->
<g id="edge67" class="edge">
<title>Node10&#45;&gt;Node38</title>
<path fill="none" stroke="#191970" d="M1206.8253,-548.3906C1206.8253,-539.8657 1206.8253,-527.1392 1206.8253,-516.4235"/>
<polygon fill="#191970" stroke="#191970" points="1210.3254,-516.2448 1206.8253,-506.2449 1203.3254,-516.2449 1210.3254,-516.2448"/>
</g>
<!-- Node12 -->
<g id="node13" class="node">
<title>Node12</title>
<g id="a_node13"><a xlink:href="RotationalInertiaRaw_8h.html" target="_top" xlink:title="iDynTree/Core/Rotational\lInertiaRaw.h">
<polygon fill="none" stroke="#000000" points="1473.3253,-291.5 1473.3253,-321.5 1610.3253,-321.5 1610.3253,-291.5 1473.3253,-291.5"/>
<text text-anchor="start" x="1481.3253" y="-309.5" font-family="FreeSans.ttf" font-size="10.00" fill="#000000">iDynTree/Core/Rotational</text>
<text text-anchor="middle" x="1541.8253" y="-298.5" font-family="FreeSans.ttf" font-size="10.00" fill="#000000">InertiaRaw.h</text>
</a>
</g>
</g>
<!-- Node11&#45;&gt;Node12 -->
<g id="edge13" class="edge">
<title>Node11&#45;&gt;Node12</title>
<path fill="none" stroke="#191970" d="M1605.2954,-481.2727C1593.3809,-448.4646 1565.1982,-370.8602 1550.732,-331.0257"/>
<polygon fill="#191970" stroke="#191970" points="1553.9891,-329.7408 1547.2858,-321.5361 1547.4095,-332.1302 1553.9891,-329.7408"/>
</g>
<!-- Node13 -->
<g id="node14" class="node">
<title>Node13</title>
<g id="a_node14"><a xlink:href="MatrixFixSize_8h.html" target="_top" xlink:title="iDynTree/Core/MatrixFixSize.h">
<polygon fill="none" stroke="#000000" points="1164.3253,-118 1164.3253,-137 1325.3253,-137 1325.3253,-118 1164.3253,-118"/>
<text text-anchor="middle" x="1244.8253" y="-125" font-family="FreeSans.ttf" font-size="10.00" fill="#000000">iDynTree/Core/MatrixFixSize.h</text>
</a>
</g>
</g>
<!-- Node12&#45;&gt;Node13 -->
<g id="edge14" class="edge">
<title>Node12&#45;&gt;Node13</title>
<path fill="none" stroke="#191970" d="M1529.5912,-291.2406C1507.5566,-264.7191 1458.5599,-209.9952 1405.8253,-179 1374.2067,-160.4158 1335.0895,-147.703 1303.3306,-139.558"/>
<polygon fill="#191970" stroke="#191970" points="1303.8448,-136.0796 1293.2966,-137.0723 1302.1616,-142.8743 1303.8448,-136.0796"/>
</g>
<!-- Node13&#45;&gt;Node2 -->
<g id="edge18" class="edge">
<title>Node13&#45;&gt;Node2</title>
<path fill="none" stroke="#191970" d="M1169.0306,-117.9917C1150.9559,-115.8739 1131.7185,-113.7426 1113.8253,-112 896.8927,-90.8734 635.1205,-73.6743 545.0719,-67.9967"/>
<polygon fill="#191970" stroke="#191970" points="545.1558,-64.4952 534.9562,-67.362 544.7174,-71.4815 545.1558,-64.4952"/>
</g>
<!-- Node13&#45;&gt;Node3 -->
<g id="edge15" class="edge">
<title>Node13&#45;&gt;Node3</title>
<path fill="none" stroke="#191970" d="M1207.1232,-117.9581C1164.6481,-107.2082 1095.5333,-89.7162 1049.384,-78.0365"/>
<polygon fill="#191970" stroke="#191970" points="1050.169,-74.6248 1039.6159,-75.5643 1048.4515,-81.4109 1050.169,-74.6248"/>
</g>
<!-- Node14 -->
<g id="node15" class="node">
<title>Node14</title>
<polygon fill="none" stroke="#bfbfbf" points="1063.8253,-.5 1063.8253,-19.5 1115.8253,-19.5 1115.8253,-.5 1063.8253,-.5"/>
<text text-anchor="middle" x="1089.8253" y="-7.5" font-family="FreeSans.ttf" font-size="10.00" fill="#000000">cassert</text>
</g>
<!-- Node13&#45;&gt;Node14 -->
<g id="edge16" class="edge">
<title>Node13&#45;&gt;Node14</title>
<path fill="none" stroke="#191970" d="M1249.4618,-117.568C1255.6857,-102.6023 1264.4779,-74.0997 1250.8253,-56 1235.8255,-36.1143 1168.7612,-22.2388 1126.0596,-15.238"/>
<polygon fill="#191970" stroke="#191970" points="1126.4618,-11.7581 1116.0367,-13.647 1125.3643,-18.6716 1126.4618,-11.7581"/>
</g>
<!-- Node15 -->
<g id="node16" class="node">
<title>Node15</title>
<polygon fill="none" stroke="#bfbfbf" points="1117.8253,-56.5 1117.8253,-75.5 1167.8253,-75.5 1167.8253,-56.5 1117.8253,-56.5"/>
<text text-anchor="middle" x="1142.8253" y="-63.5" font-family="FreeSans.ttf" font-size="10.00" fill="#000000">cstring</text>
</g>
<!-- Node13&#45;&gt;Node15 -->
<g id="edge17" class="edge">
<title>Node13&#45;&gt;Node15</title>
<path fill="none" stroke="#191970" d="M1228.8878,-117.8906C1212.4202,-107.9616 1186.4995,-92.333 1167.4049,-80.8201"/>
<polygon fill="#191970" stroke="#191970" points="1169.0219,-77.7081 1158.6509,-75.5419 1165.4075,-83.7027 1169.0219,-77.7081"/>
</g>
<!-- Node13&#45;&gt;Node16 -->
<g id="edge19" class="edge">
<title>Node13&#45;&gt;Node16</title>
<path fill="none" stroke="#191970" d="M1273.7316,-117.8906C1305.3643,-107.3749 1356.2283,-90.466 1391.2482,-78.8243"/>
<polygon fill="#191970" stroke="#191970" points="1392.7368,-82.0178 1401.1221,-75.5419 1390.5285,-75.3753 1392.7368,-82.0178"/>
</g>
<!-- Node17 -->
<g id="node18" class="node">
<title>Node17</title>
<polygon fill="none" stroke="#bfbfbf" points="1185.8253,-56.5 1185.8253,-75.5 1241.8253,-75.5 1241.8253,-56.5 1185.8253,-56.5"/>
<text text-anchor="middle" x="1213.8253" y="-63.5" font-family="FreeSans.ttf" font-size="10.00" fill="#000000">sstream</text>
</g>
<!-- Node13&#45;&gt;Node17 -->
<g id="edge20" class="edge">
<title>Node13&#45;&gt;Node17</title>
<path fill="none" stroke="#191970" d="M1239.9816,-117.8906C1235.5488,-109.0965 1228.8622,-95.8312 1223.3595,-84.9145"/>
<polygon fill="#191970" stroke="#191970" points="1226.364,-83.0992 1218.7374,-75.7449 1220.1132,-86.25 1226.364,-83.0992"/>
</g>
<!-- Node18&#45;&gt;Node2 -->
<g id="edge33" class="edge">
<title>Node18&#45;&gt;Node2</title>
<path fill="none" stroke="#191970" d="M946.8692,-117.99C930.6718,-116.0004 913.6881,-113.9233 897.8253,-112 767.1062,-96.1506 611.3693,-77.6651 545.1677,-69.8257"/>
<polygon fill="#191970" stroke="#191970" points="545.3057,-66.3177 534.9636,-68.6177 544.4828,-73.2692 545.3057,-66.3177"/>
</g>
<!-- Node18&#45;&gt;Node3 -->
<g id="edge22" class="edge">
<title>Node18&#45;&gt;Node3</title>
<path fill="none" stroke="#191970" d="M1020.3878,-117.8906C1017.2741,-109.1862 1012.5933,-96.1015 1008.7113,-85.2494"/>
<polygon fill="#191970" stroke="#191970" points="1011.9751,-83.9817 1005.3113,-75.7449 1005.3841,-86.3394 1011.9751,-83.9817"/>
</g>
<!-- Node18&#45;&gt;Node14 -->
<g id="edge35" class="edge">
<title>Node18&#45;&gt;Node14</title>
<path fill="none" stroke="#191970" d="M1035.11,-117.9751C1045.7735,-108.3967 1061.4884,-92.6913 1070.8253,-76 1078.8293,-61.6915 1083.7165,-43.7133 1086.526,-30.1354"/>
<polygon fill="#191970" stroke="#191970" points="1090.0342,-30.4131 1088.4201,-19.9419 1083.152,-29.1342 1090.0342,-30.4131"/>
</g>
<!-- Node18&#45;&gt;Node15 -->
<g id="edge36" class="edge">
<title>Node18&#45;&gt;Node15</title>
<path fill="none" stroke="#191970" d="M1042.4191,-117.8906C1061.9806,-107.7811 1092.9754,-91.7628 1115.3562,-80.1962"/>
<polygon fill="#191970" stroke="#191970" points="1117.0853,-83.2425 1124.3621,-75.5419 1113.8714,-77.0238 1117.0853,-83.2425"/>
</g>
<!-- Node18&#45;&gt;Node17 -->
<g id="edge34" class="edge">
<title>Node18&#45;&gt;Node17</title>
<path fill="none" stroke="#191970" d="M1053.5128,-117.8906C1086.5215,-107.2062 1139.9199,-89.922 1175.9234,-78.2683"/>
<polygon fill="#191970" stroke="#191970" points="1177.1494,-81.5503 1185.5856,-75.1408 1174.9937,-74.8905 1177.1494,-81.5503"/>
</g>
<!-- Node19 -->
<g id="node20" class="node">
<title>Node19</title>
<g id="a_node20"><a xlink:href="Span_8h.html" target="_top" xlink:title="iDynTree/Core/Span.h">
<polygon fill="none" stroke="#000000" points="714.3253,-56.5 714.3253,-75.5 835.3253,-75.5 835.3253,-56.5 714.3253,-56.5"/>
<text text-anchor="middle" x="774.8253" y="-63.5" font-family="FreeSans.ttf" font-size="10.00" fill="#000000">iDynTree/Core/Span.h</text>
</a>
</g>
</g>
<!-- Node18&#45;&gt;Node19 -->
<g id="edge23" class="edge">
<title>Node18&#45;&gt;Node19</title>
<path fill="none" stroke="#191970" d="M985.1923,-117.9581C941.5772,-107.1857 870.55,-89.6428 823.2612,-77.9631"/>
<polygon fill="#191970" stroke="#191970" points="824.0965,-74.5643 813.549,-75.5643 822.418,-81.3601 824.0965,-74.5643"/>
</g>
<!-- Node19&#45;&gt;Node4 -->
<g id="edge27" class="edge">
<title>Node19&#45;&gt;Node4</title>
<path fill="none" stroke="#191970" d="M816.9046,-56.4688C853.7595,-47.9979 908.9863,-35.0082 965.3202,-20.3271"/>
<polygon fill="#191970" stroke="#191970" points="966.319,-23.6837 975.105,-17.7627 964.5443,-16.9124 966.319,-23.6837"/>
</g>
<!-- Node19&#45;&gt;Node14 -->
<g id="edge24" class="edge">
<title>Node19&#45;&gt;Node14</title>
<path fill="none" stroke="#191970" d="M830.7966,-56.4913C884.0731,-47.3739 966.4756,-33.0993 1037.8253,-20 1042.9496,-19.0592 1048.3535,-18.0449 1053.662,-17.0357"/>
<polygon fill="#191970" stroke="#191970" points="1054.4914,-20.4406 1063.6545,-15.122 1053.1746,-13.5655 1054.4914,-20.4406"/>
</g>
<!-- Node20 -->
<g id="node21" class="node">
<title>Node20</title>
<polygon fill="none" stroke="#bfbfbf" points="537.8253,-.5 537.8253,-19.5 601.8253,-19.5 601.8253,-.5 537.8253,-.5"/>
<text text-anchor="middle" x="569.8253" y="-7.5" font-family="FreeSans.ttf" font-size="10.00" fill="#000000">algorithm</text>
</g>
<!-- Node19&#45;&gt;Node20 -->
<g id="edge25" class="edge">
<title>Node19&#45;&gt;Node20</title>
<path fill="none" stroke="#191970" d="M739.5846,-56.3733C704.0652,-46.6704 649.2532,-31.6974 611.5755,-21.4049"/>
<polygon fill="#191970" stroke="#191970" points="612.48,-18.0238 601.9111,-18.7649 610.6354,-24.7764 612.48,-18.0238"/>
</g>
<!-- Node21 -->
<g id="node22" class="node">
<title>Node21</title>
<polygon fill="none" stroke="#bfbfbf" points="619.8253,-.5 619.8253,-19.5 661.8253,-19.5 661.8253,-.5 619.8253,-.5"/>
<text text-anchor="middle" x="640.8253" y="-7.5" font-family="FreeSans.ttf" font-size="10.00" fill="#000000">array</text>
</g>
<!-- Node19&#45;&gt;Node21 -->
<g id="edge26" class="edge">
<title>Node19&#45;&gt;Node21</title>
<path fill="none" stroke="#191970" d="M751.7899,-56.3733C729.6919,-47.1383 696.1699,-33.1291 671.7538,-22.9253"/>
<polygon fill="#191970" stroke="#191970" points="672.8103,-19.5736 662.234,-18.9469 670.1111,-26.0323 672.8103,-19.5736"/>
</g>
<!-- Node22 -->
<g id="node23" class="node">
<title>Node22</title>
<polygon fill="none" stroke="#bfbfbf" points="252.3253,-.5 252.3253,-19.5 305.3253,-19.5 305.3253,-.5 252.3253,-.5"/>
<text text-anchor="middle" x="278.8253" y="-7.5" font-family="FreeSans.ttf" font-size="10.00" fill="#000000">iterator</text>
</g>
<!-- Node19&#45;&gt;Node22 -->
<g id="edge28" class="edge">
<title>Node19&#45;&gt;Node22</title>
<path fill="none" stroke="#191970" d="M714.006,-59.1333C609.8149,-47.3698 400.2419,-23.7083 315.566,-14.1481"/>
<polygon fill="#191970" stroke="#191970" points="315.7343,-10.645 305.4047,-13.0009 314.9489,-17.6008 315.7343,-10.645"/>
</g>
<!-- Node23 -->
<g id="node24" class="node">
<title>Node23</title>
<polygon fill="none" stroke="#bfbfbf" points="679.8253,-.5 679.8253,-19.5 723.8253,-19.5 723.8253,-.5 679.8253,-.5"/>
<text text-anchor="middle" x="701.8253" y="-7.5" font-family="FreeSans.ttf" font-size="10.00" fill="#000000">limits</text>
</g>
<!-- Node19&#45;&gt;Node23 -->
<g id="edge29" class="edge">
<title>Node19&#45;&gt;Node23</title>
<path fill="none" stroke="#191970" d="M762.1097,-56.2455C751.2233,-47.8943 735.337,-35.7076 722.6053,-25.9408"/>
<polygon fill="#191970" stroke="#191970" points="724.4599,-22.9523 714.3952,-19.6427 720.1992,-28.5063 724.4599,-22.9523"/>
</g>
<!-- Node24 -->
<g id="node25" class="node">
<title>Node24</title>
<polygon fill="none" stroke="#bfbfbf" points="742.3253,-.5 742.3253,-19.5 807.3253,-19.5 807.3253,-.5 742.3253,-.5"/>
<text text-anchor="middle" x="774.8253" y="-7.5" font-family="FreeSans.ttf" font-size="10.00" fill="#000000">stdexcept</text>
</g>
<!-- Node19&#45;&gt;Node24 -->
<g id="edge30" class="edge">
<title>Node19&#45;&gt;Node24</title>
<path fill="none" stroke="#191970" d="M774.8253,-56.2455C774.8253,-48.9382 774.8253,-38.6944 774.8253,-29.7046"/>
<polygon fill="#191970" stroke="#191970" points="778.3254,-29.6426 774.8253,-19.6427 771.3254,-29.6427 778.3254,-29.6426"/>
</g>
<!-- Node25 -->
<g id="node26" class="node">
<title>Node25</title>
<polygon fill="none" stroke="#bfbfbf" points="825.3253,-.5 825.3253,-19.5 894.3253,-19.5 894.3253,-.5 825.3253,-.5"/>
<text text-anchor="middle" x="859.8253" y="-7.5" font-family="FreeSans.ttf" font-size="10.00" fill="#000000">type_traits</text>
</g>
<!-- Node19&#45;&gt;Node25 -->
<g id="edge31" class="edge">
<title>Node19&#45;&gt;Node25</title>
<path fill="none" stroke="#191970" d="M789.6312,-56.2455C802.5509,-47.7337 821.5184,-35.2375 836.4806,-25.3801"/>
<polygon fill="#191970" stroke="#191970" points="838.7641,-28.067 845.1891,-19.6427 834.9129,-22.2216 838.7641,-28.067"/>
</g>
<!-- Node26 -->
<g id="node27" class="node">
<title>Node26</title>
<polygon fill="none" stroke="#bfbfbf" points="912.3253,-.5 912.3253,-19.5 957.3253,-19.5 957.3253,-.5 912.3253,-.5"/>
<text text-anchor="middle" x="934.8253" y="-7.5" font-family="FreeSans.ttf" font-size="10.00" fill="#000000">utility</text>
</g>
<!-- Node19&#45;&gt;Node26 -->
<g id="edge32" class="edge">
<title>Node19&#45;&gt;Node26</title>
<path fill="none" stroke="#191970" d="M802.3303,-56.3733C830.1442,-46.6384 873.1152,-31.5985 902.5304,-21.3032"/>
<polygon fill="#191970" stroke="#191970" points="904.0401,-24.4831 912.3225,-17.876 901.7276,-17.8761 904.0401,-24.4831"/>
</g>
<!-- Node28 -->
<g id="node29" class="node">
<title>Node28</title>
<g id="a_node29"><a xlink:href="SpatialMotionVector_8h.html" target="_top" xlink:title="iDynTree/Core/SpatialMotion\lVector.h">
<polygon fill="none" stroke="#000000" points="983.3253,-414.5 983.3253,-444.5 1138.3253,-444.5 1138.3253,-414.5 983.3253,-414.5"/>
<text text-anchor="start" x="991.3253" y="-432.5" font-family="FreeSans.ttf" font-size="10.00" fill="#000000">iDynTree/Core/SpatialMotion</text>
<text text-anchor="middle" x="1060.8253" y="-421.5" font-family="FreeSans.ttf" font-size="10.00" fill="#000000">Vector.h</text>
</a>
</g>
</g>
<!-- Node27&#45;&gt;Node28 -->
<g id="edge38" class="edge">
<title>Node27&#45;&gt;Node28</title>
<path fill="none" stroke="#191970" d="M1060.8253,-486.9005C1060.8253,-478.5099 1060.8253,-465.9451 1060.8253,-454.7085"/>
<polygon fill="#191970" stroke="#191970" points="1064.3254,-454.5217 1060.8253,-444.5218 1057.3254,-454.5218 1064.3254,-454.5217"/>
</g>
<!-- Node28&#45;&gt;Node18 -->
<g id="edge39" class="edge">
<title>Node28&#45;&gt;Node18</title>
<path fill="none" stroke="#191970" d="M1022.1581,-414.3485C966.5763,-390.191 866.2381,-337.1249 824.8253,-255 809.6166,-224.8399 804.1482,-205.7094 824.8253,-179 839.3568,-160.2291 892.5276,-147.0596 940.2533,-138.7389"/>
<polygon fill="#191970" stroke="#191970" points="941.061,-142.1521 950.339,-137.0367 939.8959,-135.2498 941.061,-142.1521"/>
</g>
<!-- Node29 -->
<g id="node30" class="node">
<title>Node29</title>
<g id="a_node30"><a xlink:href="GeomVector3_8h.html" target="_top" xlink:title="iDynTree/Core/GeomVector3.h">
<polygon fill="none" stroke="#000000" points="1048.3253,-179.5 1048.3253,-198.5 1211.3253,-198.5 1211.3253,-179.5 1048.3253,-179.5"/>
<text text-anchor="middle" x="1129.8253" y="-186.5" font-family="FreeSans.ttf" font-size="10.00" fill="#000000">iDynTree/Core/GeomVector3.h</text>
</a>
</g>
</g>
<!-- Node28&#45;&gt;Node29 -->
<g id="edge40" class="edge">
<title>Node28&#45;&gt;Node29</title>
<path fill="none" stroke="#191970" d="M1065.1416,-414.4556C1077.1323,-372.6618 1110.8438,-255.1602 1124.2375,-208.4763"/>
<polygon fill="#191970" stroke="#191970" points="1127.6518,-209.2669 1127.0454,-198.6895 1120.9233,-207.3364 1127.6518,-209.2669"/>
</g>
<!-- Node30 -->
<g id="node31" class="node">
<title>Node30</title>
<g id="a_node31"><a xlink:href="SpatialVector_8h.html" target="_top" xlink:title="iDynTree/Core/SpatialVector.h">
<polygon fill="none" stroke="#000000" points="1113.3253,-358.5 1113.3253,-377.5 1274.3253,-377.5 1274.3253,-358.5 1113.3253,-358.5"/>
<text text-anchor="middle" x="1193.8253" y="-365.5" font-family="FreeSans.ttf" font-size="10.00" fill="#000000">iDynTree/Core/SpatialVector.h</text>
</a>
</g>
</g>
<!-- Node28&#45;&gt;Node30 -->
<g id="edge42" class="edge">
<title>Node28&#45;&gt;Node30</title>
<path fill="none" stroke="#191970" d="M1093.3608,-414.4554C1114.9682,-404.464 1143.1152,-391.4487 1164.1173,-381.7372"/>
<polygon fill="#191970" stroke="#191970" points="1165.6074,-384.9043 1173.215,-377.5303 1162.6694,-378.5506 1165.6074,-384.9043"/>
</g>
<!-- Node29&#45;&gt;Node18 -->
<g id="edge41" class="edge">
<title>Node29&#45;&gt;Node18</title>
<path fill="none" stroke="#191970" d="M1113.2628,-179.3906C1096.0716,-169.4165 1068.9671,-153.6908 1049.0987,-142.1633"/>
<polygon fill="#191970" stroke="#191970" points="1050.6776,-139.033 1040.2715,-137.0419 1047.1647,-145.0877 1050.6776,-139.033"/>
</g>
<!-- Node30&#45;&gt;Node3 -->
<g id="edge56" class="edge">
<title>Node30&#45;&gt;Node3</title>
<path fill="none" stroke="#191970" d="M1199.3262,-358.1187C1214.966,-328.5776 1256.3318,-239.2537 1220.8253,-179 1204.0595,-150.5487 1183.6135,-160.8433 1155.8253,-143 1136.3029,-130.4643 1134.0421,-123.3822 1113.8253,-112 1090.2106,-98.7048 1061.9759,-87.1343 1039.7635,-78.9232"/>
<polygon fill="#191970" stroke="#191970" points="1040.9267,-75.6221 1030.3325,-75.504 1038.5408,-82.2029 1040.9267,-75.6221"/>
</g>
<!-- Node30&#45;&gt;Node16 -->
<g id="edge58" class="edge">
<title>Node30&#45;&gt;Node16</title>
<path fill="none" stroke="#191970" d="M1202.8117,-358.2923C1211.2475,-349.0925 1224.1335,-334.814 1234.8253,-322 1307.1877,-235.2749 1386.8698,-125.8726 1417.1824,-83.6955"/>
<polygon fill="#191970" stroke="#191970" points="1420.0526,-85.6989 1423.0352,-75.5326 1414.3638,-81.6201 1420.0526,-85.6989"/>
</g>
<!-- Node30&#45;&gt;Node17 -->
<g id="edge59" class="edge">
<title>Node30&#45;&gt;Node17</title>
<path fill="none" stroke="#191970" d="M1202.8731,-358.2529C1229.5919,-328.716 1307.9541,-236.4833 1334.8253,-143 1338.6315,-129.7584 1342.6475,-123.342 1334.8253,-112 1325.0392,-97.8102 1283.5352,-84.1092 1251.8387,-75.4062"/>
<polygon fill="#191970" stroke="#191970" points="1252.5095,-71.9627 1241.9448,-72.7619 1250.702,-78.7253 1252.5095,-71.9627"/>
</g>
<!-- Node30&#45;&gt;Node29 -->
<g id="edge57" class="edge">
<title>Node30&#45;&gt;Node29</title>
<path fill="none" stroke="#191970" d="M1190.3844,-358.3762C1180.2703,-330.0883 1150.4908,-246.7987 1136.8248,-208.5767"/>
<polygon fill="#191970" stroke="#191970" points="1139.9457,-206.9093 1133.2833,-198.6714 1133.3543,-209.266 1139.9457,-206.9093"/>
</g>
<!-- Node31 -->
<g id="node32" class="node">
<title>Node31</title>
<g id="a_node32"><a xlink:href="Position_8h.html" target="_top" xlink:title="Position.h">
<polygon fill="none" stroke="#000000" points="634.3253,-297 634.3253,-316 699.3253,-316 699.3253,-297 634.3253,-297"/>
<text text-anchor="middle" x="666.8253" y="-304" font-family="FreeSans.ttf" font-size="10.00" fill="#000000">Position.h</text>
</a>
</g>
</g>
<!-- Node30&#45;&gt;Node31 -->
<g id="edge43" class="edge">
<title>Node30&#45;&gt;Node31</title>
<path fill="none" stroke="#191970" d="M1113.2117,-358.5925C999.8886,-345.3679 797.5129,-321.751 709.5777,-311.4891"/>
<polygon fill="#191970" stroke="#191970" points="709.7732,-307.9883 699.4349,-310.3055 708.9618,-314.9411 709.7732,-307.9883"/>
</g>
<!-- Node33 -->
<g id="node34" class="node">
<title>Node33</title>
<g id="a_node34"><a xlink:href="Rotation_8h.html" target="_top" xlink:title="iDynTree/Core/Rotation.h">
<polygon fill="none" stroke="#000000" points="834.3253,-235.5 834.3253,-254.5 971.3253,-254.5 971.3253,-235.5 834.3253,-235.5"/>
<text text-anchor="middle" x="902.8253" y="-242.5" font-family="FreeSans.ttf" font-size="10.00" fill="#000000">iDynTree/Core/Rotation.h</text>
</a>
</g>
</g>
<!-- Node30&#45;&gt;Node33 -->
<g id="edge55" class="edge">
<title>Node30&#45;&gt;Node33</title>
<path fill="none" stroke="#191970" d="M1177.5237,-358.2594C1150.8712,-342.6117 1096.0021,-311.5518 1046.8253,-291 1014.6586,-277.557 977.1017,-265.6793 948.4095,-257.3621"/>
<polygon fill="#191970" stroke="#191970" points="949.2307,-253.9567 938.6538,-254.572 947.3058,-260.6869 949.2307,-253.9567"/>
</g>
<!-- Node31&#45;&gt;Node2 -->
<g id="edge54" class="edge">
<title>Node31&#45;&gt;Node2</title>
<path fill="none" stroke="#191970" d="M636.1317,-296.9652C580.9271,-277.9515 466.3144,-229.5246 419.8253,-143 413.3043,-130.8632 412.5567,-123.7044 419.8253,-112 433.1154,-90.5995 459.6396,-78.8528 480.9722,-72.599"/>
<polygon fill="#191970" stroke="#191970" points="481.8807,-75.9792 490.6438,-70.0245 480.08,-69.2147 481.8807,-75.9792"/>
</g>
<!-- Node32 -->
<g id="node33" class="node">
<title>Node32</title>
<g id="a_node33"><a xlink:href="PositionRaw_8h.html" target="_top" xlink:title="iDynTree/Core/PositionRaw.h">
<polygon fill="none" stroke="#000000" points="583.8253,-179.5 583.8253,-198.5 739.8253,-198.5 739.8253,-179.5 583.8253,-179.5"/>
<text text-anchor="middle" x="661.8253" y="-186.5" font-family="FreeSans.ttf" font-size="10.00" fill="#000000">iDynTree/Core/PositionRaw.h</text>
</a>
</g>
</g>
<!-- Node31&#45;&gt;Node32 -->
<g id="edge44" class="edge">
<title>Node31&#45;&gt;Node32</title>
<path fill="none" stroke="#191970" d="M666.4162,-296.8845C665.5994,-277.6913 663.7524,-234.286 662.6664,-208.7663"/>
<polygon fill="#191970" stroke="#191970" points="666.1622,-208.5905 662.2401,-198.7484 659.1686,-208.8882 666.1622,-208.5905"/>
</g>
<!-- Node31&#45;&gt;Node33 -->
<g id="edge47" class="edge">
<title>Node31&#45;&gt;Node33</title>
<path fill="none" stroke="#191970" d="M695.1488,-296.9786C701.5904,-294.9179 708.4221,-292.8146 714.8253,-291 760.2305,-278.1323 812.4014,-265.538 850.2476,-256.7903"/>
<polygon fill="#191970" stroke="#191970" points="851.0739,-260.1917 860.0353,-254.5399 849.5053,-253.3697 851.0739,-260.1917"/>
</g>
<!-- Node32&#45;&gt;Node2 -->
<g id="edge46" class="edge">
<title>Node32&#45;&gt;Node2</title>
<path fill="none" stroke="#191970" d="M661.4667,-179.3697C660.3571,-163.3155 655.8674,-130.9765 637.8253,-112 613.383,-86.2918 573.3495,-74.8763 545.1867,-69.8555"/>
<polygon fill="#191970" stroke="#191970" points="545.4594,-66.3547 535.0315,-68.2279 544.3516,-73.2664 545.4594,-66.3547"/>
</g>
<!-- Node32&#45;&gt;Node18 -->
<g id="edge45" class="edge">
<title>Node32&#45;&gt;Node18</title>
<path fill="none" stroke="#191970" d="M717.9906,-179.4581C782.6872,-168.4668 888.8719,-150.4272 957.5557,-138.7585"/>
<polygon fill="#191970" stroke="#191970" points="958.5536,-142.1392 967.8261,-137.0137 957.3811,-135.2381 958.5536,-142.1392"/>
</g>
<!-- Node33&#45;&gt;Node2 -->
<g id="edge48" class="edge">
<title>Node33&#45;&gt;Node2</title>
<path fill="none" stroke="#191970" d="M834.3235,-240.1386C743.2048,-232.9644 591.592,-218.2821 574.8253,-199 554.8987,-176.0838 603.8264,-145.7591 604.8253,-143 609.5156,-130.0451 612.0687,-123.7201 604.8253,-112 591.8358,-90.9825 566.0135,-79.2468 545.0241,-72.8991"/>
<polygon fill="#191970" stroke="#191970" points="545.7557,-69.4705 535.1859,-70.1987 543.9028,-76.2208 545.7557,-69.4705"/>
</g>
<!-- Node33&#45;&gt;Node18 -->
<g id="edge53" class="edge">
<title>Node33&#45;&gt;Node18</title>
<path fill="none" stroke="#191970" d="M940.3883,-235.3816C960.8159,-228.3814 985.0577,-216.9204 1000.8253,-199 1013.5789,-184.5052 1019.2736,-162.8595 1021.8086,-147.1834"/>
<polygon fill="#191970" stroke="#191970" points="1025.3125,-147.3835 1023.1517,-137.0114 1018.3727,-146.4671 1025.3125,-147.3835"/>
</g>
<!-- Node33&#45;&gt;Node29 -->
<g id="edge49" class="edge">
<title>Node33&#45;&gt;Node29</title>
<path fill="none" stroke="#191970" d="M941.5901,-235.4369C980.1945,-225.9133 1039.5637,-211.2672 1081.2825,-200.9753"/>
<polygon fill="#191970" stroke="#191970" points="1082.3498,-204.317 1091.2204,-198.5237 1080.6732,-197.5208 1082.3498,-204.317"/>
</g>
<!-- Node34 -->
<g id="node35" class="node">
<title>Node34</title>
<g id="a_node35"><a xlink:href="RotationRaw_8h.html" target="_top" xlink:title="iDynTree/Core/RotationRaw.h">
<polygon fill="none" stroke="#000000" points="833.8253,-179.5 833.8253,-198.5 991.8253,-198.5 991.8253,-179.5 833.8253,-179.5"/>
<text text-anchor="middle" x="912.8253" y="-186.5" font-family="FreeSans.ttf" font-size="10.00" fill="#000000">iDynTree/Core/RotationRaw.h</text>
</a>
</g>
</g>
<!-- Node33&#45;&gt;Node34 -->
<g id="edge50" class="edge">
<title>Node33&#45;&gt;Node34</title>
<path fill="none" stroke="#191970" d="M904.5672,-235.2455C905.8721,-227.9382 907.7013,-217.6944 909.3066,-208.7046"/>
<polygon fill="#191970" stroke="#191970" points="912.7909,-209.1022 911.1034,-198.6427 905.8999,-207.8717 912.7909,-209.1022"/>
</g>
<!-- Node34&#45;&gt;Node2 -->
<g id="edge52" class="edge">
<title>Node34&#45;&gt;Node2</title>
<path fill="none" stroke="#191970" d="M855.6447,-179.4677C816.3841,-171.9553 763.5002,-159.9093 718.8253,-143 691.4891,-132.6533 687.791,-123.2771 660.8253,-112 621.9657,-95.7488 575.2898,-82.1721 544.8876,-74.0757"/>
<polygon fill="#191970" stroke="#191970" points="545.4128,-70.5952 534.8521,-71.445 543.6378,-77.3664 545.4128,-70.5952"/>
</g>
<!-- Node34&#45;&gt;Node13 -->
<g id="edge51" class="edge">
<title>Node34&#45;&gt;Node13</title>
<path fill="none" stroke="#191970" d="M964.3361,-179.4581C1023.4273,-168.512 1120.2566,-150.5752 1183.2698,-138.9026"/>
<polygon fill="#191970" stroke="#191970" points="1184.2717,-142.2766 1193.4669,-137.0137 1182.9967,-135.3937 1184.2717,-142.2766"/>
</g>
<!-- Node36 -->
<g id="node37" class="node">
<title>Node36</title>
<g id="a_node37"><a xlink:href="SpatialForceVector_8h.html" target="_top" xlink:title="iDynTree/Core/SpatialForce\lVector.h">
<polygon fill="none" stroke="#000000" points="1246.8253,-414.5 1246.8253,-444.5 1394.8253,-444.5 1394.8253,-414.5 1246.8253,-414.5"/>
<text text-anchor="start" x="1254.8253" y="-432.5" font-family="FreeSans.ttf" font-size="10.00" fill="#000000">iDynTree/Core/SpatialForce</text>
<text text-anchor="middle" x="1320.8253" y="-421.5" font-family="FreeSans.ttf" font-size="10.00" fill="#000000">Vector.h</text>
</a>
</g>
</g>
<!-- Node35&#45;&gt;Node36 -->
<g id="edge61" class="edge">
<title>Node35&#45;&gt;Node36</title>
<path fill="none" stroke="#191970" d="M1375.6557,-486.9005C1366.9797,-477.8178 1353.6317,-463.8442 1342.2782,-451.9585"/>
<polygon fill="#191970" stroke="#191970" points="1344.6127,-449.3353 1335.1745,-444.5218 1339.5509,-454.1705 1344.6127,-449.3353"/>
</g>
<!-- Node36&#45;&gt;Node18 -->
<g id="edge62" class="edge">
<title>Node36&#45;&gt;Node18</title>
<path fill="none" stroke="#191970" d="M1319.6081,-414.2507C1315.2331,-370.227 1296.2799,-242.0606 1220.8253,-179 1201.1584,-162.5635 1140.5626,-148.2234 1091.7162,-138.8786"/>
<polygon fill="#191970" stroke="#191970" points="1092.279,-135.4232 1081.8051,-137.0193 1090.9882,-142.3032 1092.279,-135.4232"/>
</g>
<!-- Node36&#45;&gt;Node29 -->
<g id="edge63" class="edge">
<title>Node36&#45;&gt;Node29</title>
<path fill="none" stroke="#191970" d="M1314.3843,-414.3383C1307.722,-399.402 1296.5246,-376.2372 1283.8253,-358 1241.3473,-296.998 1178.6095,-234.8105 1147.9823,-205.8142"/>
<polygon fill="#191970" stroke="#191970" points="1150.2636,-203.1552 1140.5783,-198.8604 1145.4714,-208.2576 1150.2636,-203.1552"/>
</g>
<!-- Node36&#45;&gt;Node30 -->
<g id="edge64" class="edge">
<title>Node36&#45;&gt;Node30</title>
<path fill="none" stroke="#191970" d="M1289.7576,-414.4554C1269.3109,-404.554 1242.7316,-391.683 1222.7368,-382.0004"/>
<polygon fill="#191970" stroke="#191970" points="1224.0315,-378.7387 1213.5058,-377.5303 1220.9806,-385.0388 1224.0315,-378.7387"/>
</g>
<!-- Node37&#45;&gt;Node28 -->
<g id="edge66" class="edge">
<title>Node37&#45;&gt;Node28</title>
<path fill="none" stroke="#191970" d="M929.7465,-486.9005C952.4629,-476.9528 988.5769,-461.1382 1017.1509,-448.6254"/>
<polygon fill="#191970" stroke="#191970" points="1018.7657,-451.7392 1026.5219,-444.5218 1015.9577,-445.3271 1018.7657,-451.7392"/>
</g>
<!-- Node38&#45;&gt;Node36 -->
<g id="edge68" class="edge">
<title>Node38&#45;&gt;Node36</title>
<path fill="none" stroke="#191970" d="M1223.1587,-486.9005C1239.6432,-477.2123 1265.596,-461.9593 1286.6062,-449.6113"/>
<polygon fill="#191970" stroke="#191970" points="1288.418,-452.6062 1295.2659,-444.5218 1284.8712,-446.5713 1288.418,-452.6062"/>
</g>
<!-- Node39&#45;&gt;Node2 -->
<g id="edge74" class="edge">
<title>Node39&#45;&gt;Node2</title>
<path fill="none" stroke="#191970" d="M616.791,-358.4437C530.7305,-340.5636 363.8253,-298.9346 363.8253,-245 363.8253,-245 363.8253,-245 363.8253,-189 363.8253,-148.9063 380.7679,-138.5341 410.8253,-112 431.0664,-94.1316 459.3948,-82.1063 481.0626,-74.8464"/>
<polygon fill="#191970" stroke="#191970" points="482.3281,-78.1168 490.7976,-71.7514 480.2071,-71.4458 482.3281,-78.1168"/>
</g>
<!-- Node39&#45;&gt;Node13 -->
<g id="edge73" class="edge">
<title>Node39&#45;&gt;Node13</title>
<path fill="none" stroke="#191970" d="M718.8217,-358.4187C842.1754,-334.7326 1147.66,-270.1619 1220.8253,-199 1234.8579,-185.3516 1240.6858,-163.2599 1243.1061,-147.2411"/>
<polygon fill="#191970" stroke="#191970" points="1246.5827,-147.6449 1244.2963,-137.2997 1239.6323,-146.8127 1246.5827,-147.6449"/>
</g>
<!-- Node39&#45;&gt;Node31 -->
<g id="edge71" class="edge">
<title>Node39&#45;&gt;Node31</title>
<path fill="none" stroke="#191970" d="M666.8253,-358.3906C666.8253,-349.8657 666.8253,-337.1392 666.8253,-326.4235"/>
<polygon fill="#191970" stroke="#191970" points="670.3254,-326.2448 666.8253,-316.2449 663.3254,-326.2449 670.3254,-326.2448"/>
</g>
<!-- Node39&#45;&gt;Node33 -->
<g id="edge72" class="edge">
<title>Node39&#45;&gt;Node33</title>
<path fill="none" stroke="#191970" d="M685.3438,-358.3484C726.7032,-336.7925 826.7612,-284.6436 875.3862,-259.3009"/>
<polygon fill="#191970" stroke="#191970" points="877.1426,-262.3324 884.3928,-254.6068 873.9073,-256.1249 877.1426,-262.3324"/>
</g>
<!-- Node40&#45;&gt;Node2 -->
<g id="edge78" class="edge">
<title>Node40&#45;&gt;Node2</title>
<path fill="none" stroke="#191970" d="M526.1503,-604.4834C460.7811,-584.1965 325.8253,-530.1284 325.8253,-429.5 325.8253,-429.5 325.8253,-429.5 325.8253,-189 325.8253,-148.4361 342.8526,-136.9635 374.8253,-112 405.9861,-87.6704 450.6395,-75.895 480.6322,-70.4177"/>
<polygon fill="#191970" stroke="#191970" points="481.3082,-73.8532 490.5835,-68.7327 480.1395,-66.9514 481.3082,-73.8532"/>
</g>
<!-- Node40&#45;&gt;Node39 -->
<g id="edge80" class="edge">
<title>Node40&#45;&gt;Node39</title>
<path fill="none" stroke="#191970" d="M564.9806,-604.3565C580.8114,-567.6173 637.5208,-436.0086 658.7375,-386.7698"/>
<polygon fill="#191970" stroke="#191970" points="661.9558,-388.1456 662.6987,-377.5768 655.5272,-385.3755 661.9558,-388.1456"/>
</g>
<!-- Node40&#45;&gt;Node41 -->
<g id="edge77" class="edge">
<title>Node40&#45;&gt;Node41</title>
<path fill="none" stroke="#191970" d="M607.787,-604.4369C662.6676,-593.2612 752.1886,-575.0315 801.1473,-565.0617"/>
<polygon fill="#191970" stroke="#191970" points="802.139,-568.4317 811.2395,-563.0066 800.7422,-561.5724 802.139,-568.4317"/>
</g>
<!-- Node40&#45;&gt;Node42 -->
<g id="edge79" class="edge">
<title>Node40&#45;&gt;Node42</title>
<path fill="none" stroke="#191970" d="M526.4441,-604.3733C489.3863,-593.9971 430.8036,-577.5939 394.158,-567.3332"/>
<polygon fill="#191970" stroke="#191970" points="395.0133,-563.9381 384.4399,-564.6121 393.1258,-570.6788 395.0133,-563.9381"/>
</g>
<!-- Node43&#45;&gt;Node2 -->
<g id="edge85" class="edge">
<title>Node43&#45;&gt;Node2</title>
<path fill="none" stroke="#191970" d="M170.2213,-716.3425C151.5646,-698.2361 114.8253,-657.1076 114.8253,-614 114.8253,-614 114.8253,-614 114.8253,-189 114.8253,-112.6595 385.4929,-78.5809 480.4089,-68.9773"/>
<polygon fill="#191970" stroke="#191970" points="480.966,-72.4395 490.5743,-67.975 480.2791,-65.4732 480.966,-72.4395"/>
</g>
<!-- Node43&#45;&gt;Node6 -->
<g id="edge91" class="edge">
<title>Node43&#45;&gt;Node6</title>
<path fill="none" stroke="#191970" d="M236.3255,-716.4369C292.8816,-706.6918 380.5657,-691.5832 440.4512,-681.2645"/>
<polygon fill="#191970" stroke="#191970" points="441.2936,-684.671 450.554,-679.5237 440.1049,-677.7726 441.2936,-684.671"/>
</g>
<!-- Node43&#45;&gt;Node8 -->
<g id="edge92" class="edge">
<title>Node43&#45;&gt;Node8</title>
<path fill="none" stroke="#191970" d="M184.7328,-716.4862C195.7345,-689.6994 227.1307,-613.2565 241.9277,-577.2289"/>
<polygon fill="#191970" stroke="#191970" points="245.2272,-578.4078 245.7889,-567.8279 238.752,-575.7484 245.2272,-578.4078"/>
</g>
<!-- Node43&#45;&gt;Node22 -->
<g id="edge87" class="edge">
<title>Node43&#45;&gt;Node22</title>
<path fill="none" stroke="#191970" d="M148.6033,-716.4626C106.7074,-701.8408 38.8253,-669.5748 38.8253,-614 38.8253,-614 38.8253,-614 38.8253,-127.5 38.8253,-82.7111 175.3595,-38.6413 242.4662,-19.686"/>
<polygon fill="#191970" stroke="#191970" points="243.5296,-23.0231 252.2241,-16.9686 241.6517,-16.2797 243.5296,-23.0231"/>
</g>
<!-- Node43&#45;&gt;Node29 -->
<g id="edge84" class="edge">
<title>Node43&#45;&gt;Node29</title>
<path fill="none" stroke="#191970" d="M256.5557,-724.6143C413.0007,-720.1829 764.466,-701.6199 850.8253,-624 876.6421,-600.7958 883.6901,-579.3684 868.8253,-548 858.0052,-525.167 835.6454,-534.833 824.8253,-512 818.9253,-499.5494 819.4145,-493.6709 824.8253,-481 883.2878,-344.0937 1040.924,-240.6472 1103.604,-203.726"/>
<polygon fill="#191970" stroke="#191970" points="1105.5908,-206.6197 1112.48,-198.5705 1102.0749,-200.5667 1105.5908,-206.6197"/>
</g>
<!-- Node43&#45;&gt;Node42 -->
<g id="edge86" class="edge">
<title>Node43&#45;&gt;Node42</title>
<path fill="none" stroke="#191970" d="M188.629,-716.4721C195.8729,-707.3993 206.7268,-693.2067 214.8253,-680 234.567,-647.8062 225.3198,-629.877 252.8253,-604 264.1284,-593.3661 300.2059,-579.1044 327.5805,-569.2949"/>
<polygon fill="#191970" stroke="#191970" points="328.9444,-572.5252 337.21,-565.8972 326.6152,-565.924 328.9444,-572.5252"/>
</g>
<!-- Node44 -->
<g id="node45" class="node">
<title>Node44</title>
<g id="a_node45"><a xlink:href="VectorDynSize_8h.html" target="_top" xlink:title="iDynTree/Core/VectorDynSize.h">
<polygon fill="none" stroke="#000000" points="429.3253,-118 429.3253,-137 596.3253,-137 596.3253,-118 429.3253,-118"/>
<text text-anchor="middle" x="512.8253" y="-125" font-family="FreeSans.ttf" font-size="10.00" fill="#000000">iDynTree/Core/VectorDynSize.h</text>
</a>
</g>
</g>
<!-- Node43&#45;&gt;Node44 -->
<g id="edge88" class="edge">
<title>Node43&#45;&gt;Node44</title>
<path fill="none" stroke="#191970" d="M177.5564,-716.2585C168.854,-688.6268 147.3963,-607.8777 171.8253,-548 199.6659,-479.7603 287.8253,-503.2004 287.8253,-429.5 287.8253,-429.5 287.8253,-429.5 287.8253,-306.5 287.8253,-214.6285 404.1261,-162.3357 469.4982,-140.1989"/>
<polygon fill="#191970" stroke="#191970" points="470.7351,-143.4766 479.1405,-137.0269 468.5476,-136.8272 470.7351,-143.4766"/>
</g>
<!-- Node44&#45;&gt;Node2 -->
<g id="edge90" class="edge">
<title>Node44&#45;&gt;Node2</title>
<path fill="none" stroke="#191970" d="M512.8253,-117.8906C512.8253,-109.3657 512.8253,-96.6392 512.8253,-85.9235"/>
<polygon fill="#191970" stroke="#191970" points="516.3254,-85.7448 512.8253,-75.7449 509.3254,-85.7449 516.3254,-85.7448"/>
</g>
<!-- Node44&#45;&gt;Node19 -->
<g id="edge89" class="edge">
<title>Node44&#45;&gt;Node19</title>
<path fill="none" stroke="#191970" d="M553.4754,-117.9581C599.4635,-107.1632 674.4158,-89.5694 724.1726,-77.8899"/>
<polygon fill="#191970" stroke="#191970" points="725.1444,-81.257 734.0799,-75.5643 723.5447,-74.4422 725.1444,-81.257"/>
</g>
</g>
</svg>
