<?xml version="1.0" encoding="UTF-8" standalone="no"?>
<!DOCTYPE svg PUBLIC "-//W3C//DTD SVG 1.1//EN"
 "http://www.w3.org/Graphics/SVG/1.1/DTD/svg11.dtd">
<!-- Generated by graphviz version 2.40.1 (20161225.0304)
 -->
<!-- Title: URDFParsingUtils.h Pages: 1 -->
<svg width="1208pt" height="420pt"
 viewBox="0.00 0.00 1207.50 420.00" xmlns="http://www.w3.org/2000/svg" xmlns:xlink="http://www.w3.org/1999/xlink">
<g id="graph0" class="graph" transform="scale(1 1) rotate(0) translate(4 416)">
<title>URDFParsingUtils.h</title>
<!-- Node0 -->
<g id="node1" class="node">
<title>Node0</title>
<polygon fill="#bfbfbf" stroke="#000000" points="414.5,-392.5 414.5,-411.5 524.5,-411.5 524.5,-392.5 414.5,-392.5"/>
<text text-anchor="middle" x="469.5" y="-399.5" font-family="FreeSans.ttf" font-size="10.00" fill="#000000">URDFParsingUtils.h</text>
</g>
<!-- Node1 -->
<g id="node2" class="node">
<title>Node1</title>
<polygon fill="none" stroke="#bfbfbf" points="107,-336.5 107,-355.5 154,-355.5 154,-336.5 107,-336.5"/>
<text text-anchor="middle" x="130.5" y="-343.5" font-family="FreeSans.ttf" font-size="10.00" fill="#000000">cmath</text>
</g>
<!-- Node0&#45;&gt;Node1 -->
<g id="edge1" class="edge">
<title>Node0&#45;&gt;Node1</title>
<path fill="none" stroke="#191970" d="M414.3977,-396.3369C354.6938,-389.6227 256.5551,-376.9076 163.9619,-356.0801"/>
<polygon fill="#191970" stroke="#191970" points="164.6827,-352.6547 154.1542,-353.8383 163.1229,-359.4787 164.6827,-352.6547"/>
</g>
<!-- Node2 -->
<g id="node3" class="node">
<title>Node2</title>
<polygon fill="none" stroke="#bfbfbf" points="172,-336.5 172,-355.5 221,-355.5 221,-336.5 172,-336.5"/>
<text text-anchor="middle" x="196.5" y="-343.5" font-family="FreeSans.ttf" font-size="10.00" fill="#000000">cstdlib</text>
</g>
<!-- Node0&#45;&gt;Node2 -->
<g id="edge2" class="edge">
<title>Node0&#45;&gt;Node2</title>
<path fill="none" stroke="#191970" d="M416.3461,-392.4427C368.7996,-383.6819 297.2835,-369.9818 235.5,-356 234.0513,-355.6722 232.5744,-355.3298 231.0839,-354.9777"/>
<polygon fill="#191970" stroke="#191970" points="231.7516,-351.5379 221.2062,-352.5607 230.0878,-358.3373 231.7516,-351.5379"/>
</g>
<!-- Node3 -->
<g id="node4" class="node">
<title>Node3</title>
<polygon fill="none" stroke="#bfbfbf" points="405.5,-56.5 405.5,-75.5 461.5,-75.5 461.5,-56.5 405.5,-56.5"/>
<text text-anchor="middle" x="433.5" y="-63.5" font-family="FreeSans.ttf" font-size="10.00" fill="#000000">sstream</text>
</g>
<!-- Node0&#45;&gt;Node3 -->
<g id="edge3" class="edge">
<title>Node0&#45;&gt;Node3</title>
<path fill="none" stroke="#191970" d="M414.2687,-397.5858C349.1004,-389.009 249.5,-363.8248 249.5,-290 249.5,-290 249.5,-290 249.5,-178 249.5,-110.3695 341.3226,-82.3987 395.2363,-71.8045"/>
<polygon fill="#191970" stroke="#191970" points="395.9584,-75.2303 405.1532,-69.9667 394.6829,-68.3475 395.9584,-75.2303"/>
</g>
<!-- Node4 -->
<g id="node5" class="node">
<title>Node4</title>
<polygon fill="none" stroke="#bfbfbf" points="812.5,-56.5 812.5,-75.5 856.5,-75.5 856.5,-56.5 812.5,-56.5"/>
<text text-anchor="middle" x="834.5" y="-63.5" font-family="FreeSans.ttf" font-size="10.00" fill="#000000">string</text>
</g>
<!-- Node0&#45;&gt;Node4 -->
<g id="edge4" class="edge">
<title>Node0&#45;&gt;Node4</title>
<path fill="none" stroke="#191970" d="M524.6592,-397.0993C669.1333,-383.5264 1047.5,-342.9276 1047.5,-290 1047.5,-290 1047.5,-290 1047.5,-178 1047.5,-97.3998 926.5403,-74.6741 866.927,-68.3683"/>
<polygon fill="#191970" stroke="#191970" points="867.1818,-64.8767 856.8922,-67.401 866.5102,-71.8444 867.1818,-64.8767"/>
</g>
<!-- Node5 -->
<g id="node6" class="node">
<title>Node5</title>
<polygon fill="none" stroke="#bfbfbf" points="1076,-336.5 1076,-355.5 1123,-355.5 1123,-336.5 1076,-336.5"/>
<text text-anchor="middle" x="1099.5" y="-343.5" font-family="FreeSans.ttf" font-size="10.00" fill="#000000">vector</text>
</g>
<!-- Node0&#45;&gt;Node5 -->
<g id="edge5" class="edge">
<title>Node0&#45;&gt;Node5</title>
<path fill="none" stroke="#191970" d="M524.5858,-401.0177C629.6935,-398.4165 865.8316,-389.0714 1061.5,-356 1062.9714,-355.7513 1064.4688,-355.4721 1065.977,-355.1694"/>
<polygon fill="#191970" stroke="#191970" points="1066.9523,-358.537 1075.9265,-352.9055 1065.3992,-351.7115 1066.9523,-358.537"/>
</g>
<!-- Node6 -->
<g id="node7" class="node">
<title>Node6</title>
<g id="a_node7"><a xlink:href="Transform_8h.html" target="_top" xlink:title="iDynTree/Core/Transform.h">
<polygon fill="none" stroke="#000000" points="579.5,-336.5 579.5,-355.5 725.5,-355.5 725.5,-336.5 579.5,-336.5"/>
<text text-anchor="middle" x="652.5" y="-343.5" font-family="FreeSans.ttf" font-size="10.00" fill="#000000">iDynTree/Core/Transform.h</text>
</a>
</g>
</g>
<!-- Node0&#45;&gt;Node6 -->
<g id="edge6" class="edge">
<title>Node0&#45;&gt;Node6</title>
<path fill="none" stroke="#191970" d="M500.9588,-392.3733C531.5207,-383.021 578.0826,-368.7725 611.5261,-358.5385"/>
<polygon fill="#191970" stroke="#191970" points="612.9136,-361.7742 621.4517,-355.5011 610.8652,-355.0806 612.9136,-361.7742"/>
</g>
<!-- Node9 -->
<g id="node10" class="node">
<title>Node9</title>
<g id="a_node10"><a xlink:href="VectorFixSize_8h.html" target="_top" xlink:title="iDynTree/Core/VectorFixSize.h">
<polygon fill="none" stroke="#000000" points="353,-112.5 353,-131.5 514,-131.5 514,-112.5 353,-112.5"/>
<text text-anchor="middle" x="433.5" y="-119.5" font-family="FreeSans.ttf" font-size="10.00" fill="#000000">iDynTree/Core/VectorFixSize.h</text>
</a>
</g>
</g>
<!-- Node0&#45;&gt;Node9 -->
<g id="edge45" class="edge">
<title>Node0&#45;&gt;Node9</title>
<path fill="none" stroke="#191970" d="M415.3868,-392.4584C361.7381,-379.5212 287.5,-350.6598 287.5,-290 287.5,-290 287.5,-290 287.5,-234 287.5,-203.3494 286.4399,-190.2695 307.5,-168 322.7635,-151.86 344.147,-141.3612 364.9702,-134.5406"/>
<polygon fill="#191970" stroke="#191970" points="366.2365,-137.8143 374.7949,-131.5691 364.2099,-131.1141 366.2365,-137.8143"/>
</g>
<!-- Node27 -->
<g id="node28" class="node">
<title>Node27</title>
<polygon fill="none" stroke="#bfbfbf" points="1141.5,-336.5 1141.5,-355.5 1199.5,-355.5 1199.5,-336.5 1141.5,-336.5"/>
<text text-anchor="middle" x="1170.5" y="-343.5" font-family="FreeSans.ttf" font-size="10.00" fill="#000000">fpconv.h</text>
</g>
<!-- Node0&#45;&gt;Node27 -->
<g id="edge46" class="edge">
<title>Node0&#45;&gt;Node27</title>
<path fill="none" stroke="#191970" d="M524.5631,-399.5163C658.2392,-393.277 998.102,-376.1054 1131.1864,-355.8903"/>
<polygon fill="#191970" stroke="#191970" points="1131.8332,-359.3315 1141.1594,-354.3043 1130.7338,-352.4184 1131.8332,-359.3315"/>
</g>
<!-- Node6&#45;&gt;Node4 -->
<g id="edge44" class="edge">
<title>Node6&#45;&gt;Node4</title>
<path fill="none" stroke="#191970" d="M725.6057,-338.0421C830.0508,-324.608 1009.5,-292.9491 1009.5,-234 1009.5,-234 1009.5,-234 1009.5,-178 1009.5,-110.9846 917.332,-82.251 866.7729,-71.5304"/>
<polygon fill="#191970" stroke="#191970" points="867.1561,-68.0378 856.6639,-69.5089 865.7834,-74.9019 867.1561,-68.0378"/>
</g>
<!-- Node7 -->
<g id="node8" class="node">
<title>Node7</title>
<g id="a_node8"><a xlink:href="Position_8h.html" target="_top" xlink:title="iDynTree/Core/Position.h">
<polygon fill="none" stroke="#000000" points="739.5,-280.5 739.5,-299.5 875.5,-299.5 875.5,-280.5 739.5,-280.5"/>
<text text-anchor="middle" x="807.5" y="-287.5" font-family="FreeSans.ttf" font-size="10.00" fill="#000000">iDynTree/Core/Position.h</text>
</a>
</g>
</g>
<!-- Node6&#45;&gt;Node7 -->
<g id="edge7" class="edge">
<title>Node6&#45;&gt;Node7</title>
<path fill="none" stroke="#191970" d="M679.1454,-336.3733C704.6964,-327.1419 743.4512,-313.1402 771.6909,-302.9375"/>
<polygon fill="#191970" stroke="#191970" points="772.9865,-306.1909 781.2022,-299.5011 770.6079,-299.6074 772.9865,-306.1909"/>
</g>
<!-- Node22 -->
<g id="node23" class="node">
<title>Node22</title>
<g id="a_node23"><a xlink:href="Rotation_8h.html" target="_top" xlink:title="iDynTree/Core/Rotation.h">
<polygon fill="none" stroke="#000000" points="584,-224.5 584,-243.5 721,-243.5 721,-224.5 584,-224.5"/>
<text text-anchor="middle" x="652.5" y="-231.5" font-family="FreeSans.ttf" font-size="10.00" fill="#000000">iDynTree/Core/Rotation.h</text>
</a>
</g>
</g>
<!-- Node6&#45;&gt;Node22 -->
<g id="edge42" class="edge">
<title>Node6&#45;&gt;Node22</title>
<path fill="none" stroke="#191970" d="M652.5,-336.4509C652.5,-318.184 652.5,-277.9553 652.5,-253.6976"/>
<polygon fill="#191970" stroke="#191970" points="656.0001,-253.5249 652.5,-243.5249 649.0001,-253.5249 656.0001,-253.5249"/>
</g>
<!-- Node25 -->
<g id="node26" class="node">
<title>Node25</title>
<g id="a_node26"><a xlink:href="MatrixFixSize_8h.html" target="_top" xlink:title="iDynTree/Core/MatrixFixSize.h">
<polygon fill="none" stroke="#000000" points="532,-112.5 532,-131.5 693,-131.5 693,-112.5 532,-112.5"/>
<text text-anchor="middle" x="612.5" y="-119.5" font-family="FreeSans.ttf" font-size="10.00" fill="#000000">iDynTree/Core/MatrixFixSize.h</text>
</a>
</g>
</g>
<!-- Node6&#45;&gt;Node25 -->
<g id="edge43" class="edge">
<title>Node6&#45;&gt;Node25</title>
<path fill="none" stroke="#191970" d="M642.6903,-336.2939C626.0685,-319.2405 592.52,-282.0824 575.5,-244 565.1505,-220.843 566.956,-213.2453 564.5,-188 563.6393,-179.1529 561.0112,-176.1756 564.5,-168 569.6156,-156.0122 579.5575,-145.6498 589.0727,-137.8114"/>
<polygon fill="#191970" stroke="#191970" points="591.3797,-140.4532 597.1926,-131.5954 587.1246,-134.8949 591.3797,-140.4532"/>
</g>
<!-- Node7&#45;&gt;Node4 -->
<g id="edge41" class="edge">
<title>Node7&#45;&gt;Node4</title>
<path fill="none" stroke="#191970" d="M833.8177,-280.4276C868.3645,-266.2585 927.5394,-236.0761 952.5,-188 976.989,-140.8321 908.401,-99.5704 865.7315,-79.3051"/>
<polygon fill="#191970" stroke="#191970" points="867.0935,-76.0791 856.5464,-75.0739 864.1646,-82.4369 867.0935,-76.0791"/>
</g>
<!-- Node8 -->
<g id="node9" class="node">
<title>Node8</title>
<g id="a_node9"><a xlink:href="PositionRaw_8h.html" target="_top" xlink:title="iDynTree/Core/PositionRaw.h">
<polygon fill="none" stroke="#000000" points="787.5,-168.5 787.5,-187.5 943.5,-187.5 943.5,-168.5 787.5,-168.5"/>
<text text-anchor="middle" x="865.5" y="-175.5" font-family="FreeSans.ttf" font-size="10.00" fill="#000000">iDynTree/Core/PositionRaw.h</text>
</a>
</g>
</g>
<!-- Node7&#45;&gt;Node8 -->
<g id="edge8" class="edge">
<title>Node7&#45;&gt;Node8</title>
<path fill="none" stroke="#191970" d="M812.445,-280.4509C822.0331,-261.936 843.3051,-220.8591 855.8064,-196.7187"/>
<polygon fill="#191970" stroke="#191970" points="859.0769,-198.0144 860.5675,-187.5249 852.8609,-194.7953 859.0769,-198.0144"/>
</g>
<!-- Node7&#45;&gt;Node22 -->
<g id="edge27" class="edge">
<title>Node7&#45;&gt;Node22</title>
<path fill="none" stroke="#191970" d="M780.8546,-280.3733C755.3036,-271.1419 716.5488,-257.1402 688.3091,-246.9375"/>
<polygon fill="#191970" stroke="#191970" points="689.3921,-243.6074 678.7978,-243.5011 687.0135,-250.1909 689.3921,-243.6074"/>
</g>
<!-- Node8&#45;&gt;Node4 -->
<g id="edge26" class="edge">
<title>Node8&#45;&gt;Node4</title>
<path fill="none" stroke="#191970" d="M862.857,-168.4509C857.778,-150.1013 846.5653,-109.5908 839.8612,-85.3693"/>
<polygon fill="#191970" stroke="#191970" points="843.1772,-84.2289 837.1364,-75.5249 836.4308,-86.0962 843.1772,-84.2289"/>
</g>
<!-- Node8&#45;&gt;Node9 -->
<g id="edge9" class="edge">
<title>Node8&#45;&gt;Node9</title>
<path fill="none" stroke="#191970" d="M791.7274,-168.4369C715.4641,-158.5509 596.6189,-143.145 516.9669,-132.8198"/>
<polygon fill="#191970" stroke="#191970" points="517.3353,-129.3383 506.9683,-131.5237 516.4354,-136.2803 517.3353,-129.3383"/>
</g>
<!-- Node9&#45;&gt;Node3 -->
<g id="edge23" class="edge">
<title>Node9&#45;&gt;Node3</title>
<path fill="none" stroke="#191970" d="M433.5,-112.2455C433.5,-104.9382 433.5,-94.6944 433.5,-85.7046"/>
<polygon fill="#191970" stroke="#191970" points="437.0001,-85.6426 433.5,-75.6427 430.0001,-85.6427 437.0001,-85.6426"/>
</g>
<!-- Node9&#45;&gt;Node4 -->
<g id="edge22" class="edge">
<title>Node9&#45;&gt;Node4</title>
<path fill="none" stroke="#191970" d="M501.9787,-112.4369C589.4917,-100.2156 737.4105,-79.5586 802.3278,-70.4929"/>
<polygon fill="#191970" stroke="#191970" points="802.9535,-73.9396 812.3732,-69.09 801.9852,-67.0068 802.9535,-73.9396"/>
</g>
<!-- Node10 -->
<g id="node11" class="node">
<title>Node10</title>
<g id="a_node11"><a xlink:href="Utils_8h.html" target="_top" xlink:title="iDynTree/Core/Utils.h">
<polygon fill="none" stroke="#000000" points="548,-56.5 548,-75.5 667,-75.5 667,-56.5 548,-56.5"/>
<text text-anchor="middle" x="607.5" y="-63.5" font-family="FreeSans.ttf" font-size="10.00" fill="#000000">iDynTree/Core/Utils.h</text>
</a>
</g>
</g>
<!-- Node9&#45;&gt;Node10 -->
<g id="edge10" class="edge">
<title>Node9&#45;&gt;Node10</title>
<path fill="none" stroke="#191970" d="M463.4117,-112.3733C492.3452,-103.0613 536.3611,-88.8953 568.1293,-78.671"/>
<polygon fill="#191970" stroke="#191970" points="569.5318,-81.8965 577.9787,-75.5011 567.3872,-75.2331 569.5318,-81.8965"/>
</g>
<!-- Node12 -->
<g id="node13" class="node">
<title>Node12</title>
<g id="a_node13"><a xlink:href="Span_8h.html" target="_top" xlink:title="iDynTree/Core/Span.h">
<polygon fill="none" stroke="#000000" points="228,-56.5 228,-75.5 349,-75.5 349,-56.5 228,-56.5"/>
<text text-anchor="middle" x="288.5" y="-63.5" font-family="FreeSans.ttf" font-size="10.00" fill="#000000">iDynTree/Core/Span.h</text>
</a>
</g>
</g>
<!-- Node9&#45;&gt;Node12 -->
<g id="edge12" class="edge">
<title>Node9&#45;&gt;Node12</title>
<path fill="none" stroke="#191970" d="M408.5736,-112.3733C384.8798,-103.2226 349.0489,-89.3844 322.6932,-79.2057"/>
<polygon fill="#191970" stroke="#191970" points="323.6906,-75.8389 313.1011,-75.5011 321.1686,-82.3689 323.6906,-75.8389"/>
</g>
<!-- Node13 -->
<g id="node14" class="node">
<title>Node13</title>
<polygon fill="none" stroke="#bfbfbf" points="581.5,-.5 581.5,-19.5 633.5,-19.5 633.5,-.5 581.5,-.5"/>
<text text-anchor="middle" x="607.5" y="-7.5" font-family="FreeSans.ttf" font-size="10.00" fill="#000000">cassert</text>
</g>
<!-- Node9&#45;&gt;Node13 -->
<g id="edge24" class="edge">
<title>Node9&#45;&gt;Node13</title>
<path fill="none" stroke="#191970" d="M421.171,-112.3975C405.3787,-98.947 381.7155,-74.1148 396.5,-56 445.0119,3.4392 491.1962,-35.641 571.2511,-19.9479"/>
<polygon fill="#191970" stroke="#191970" points="572.1754,-23.3282 581.1843,-17.7523 570.6645,-16.4932 572.1754,-23.3282"/>
</g>
<!-- Node21 -->
<g id="node22" class="node">
<title>Node21</title>
<polygon fill="none" stroke="#bfbfbf" points="479.5,-56.5 479.5,-75.5 529.5,-75.5 529.5,-56.5 479.5,-56.5"/>
<text text-anchor="middle" x="504.5" y="-63.5" font-family="FreeSans.ttf" font-size="10.00" fill="#000000">cstring</text>
</g>
<!-- Node9&#45;&gt;Node21 -->
<g id="edge25" class="edge">
<title>Node9&#45;&gt;Node21</title>
<path fill="none" stroke="#191970" d="M445.8673,-112.2455C456.4554,-103.8943 471.9064,-91.7076 484.2893,-81.9408"/>
<polygon fill="#191970" stroke="#191970" points="486.5903,-84.5837 492.2745,-75.6427 482.2553,-79.0875 486.5903,-84.5837"/>
</g>
<!-- Node11 -->
<g id="node12" class="node">
<title>Node11</title>
<polygon fill="none" stroke="#bfbfbf" points="510,-.5 510,-19.5 563,-19.5 563,-.5 510,-.5"/>
<text text-anchor="middle" x="536.5" y="-7.5" font-family="FreeSans.ttf" font-size="10.00" fill="#000000">cstddef</text>
</g>
<!-- Node10&#45;&gt;Node11 -->
<g id="edge11" class="edge">
<title>Node10&#45;&gt;Node11</title>
<path fill="none" stroke="#191970" d="M595.1327,-56.2455C584.5446,-47.8943 569.0936,-35.7076 556.7107,-25.9408"/>
<polygon fill="#191970" stroke="#191970" points="558.7447,-23.0875 548.7255,-19.6427 554.4097,-28.5837 558.7447,-23.0875"/>
</g>
<!-- Node12&#45;&gt;Node11 -->
<g id="edge16" class="edge">
<title>Node12&#45;&gt;Node11</title>
<path fill="none" stroke="#191970" d="M336.2519,-56.4534C377.1497,-48.0937 437.8287,-35.2576 499.8464,-20.0571"/>
<polygon fill="#191970" stroke="#191970" points="500.939,-23.3926 509.8085,-17.5976 499.2611,-16.5966 500.939,-23.3926"/>
</g>
<!-- Node12&#45;&gt;Node13 -->
<g id="edge13" class="edge">
<title>Node12&#45;&gt;Node13</title>
<path fill="none" stroke="#191970" d="M349.0884,-57.043C415.0251,-47.1537 517.2684,-31.3723 571.1132,-20.068"/>
<polygon fill="#191970" stroke="#191970" points="572.185,-23.4168 581.2118,-17.87 570.6962,-16.5769 572.185,-23.4168"/>
</g>
<!-- Node14 -->
<g id="node15" class="node">
<title>Node14</title>
<polygon fill="none" stroke="#bfbfbf" points="367.5,-.5 367.5,-19.5 431.5,-19.5 431.5,-.5 367.5,-.5"/>
<text text-anchor="middle" x="399.5" y="-7.5" font-family="FreeSans.ttf" font-size="10.00" fill="#000000">algorithm</text>
</g>
<!-- Node12&#45;&gt;Node14 -->
<g id="edge14" class="edge">
<title>Node12&#45;&gt;Node14</title>
<path fill="none" stroke="#191970" d="M307.5816,-56.3733C325.2402,-47.4644 351.7053,-34.1127 371.7098,-24.0203"/>
<polygon fill="#191970" stroke="#191970" points="373.3158,-27.1303 380.6674,-19.5011 370.1628,-20.8806 373.3158,-27.1303"/>
</g>
<!-- Node15 -->
<g id="node16" class="node">
<title>Node15</title>
<polygon fill="none" stroke="#bfbfbf" points="449.5,-.5 449.5,-19.5 491.5,-19.5 491.5,-.5 449.5,-.5"/>
<text text-anchor="middle" x="470.5" y="-7.5" font-family="FreeSans.ttf" font-size="10.00" fill="#000000">array</text>
</g>
<!-- Node12&#45;&gt;Node15 -->
<g id="edge15" class="edge">
<title>Node12&#45;&gt;Node15</title>
<path fill="none" stroke="#191970" d="M320.901,-56.4792C349.7426,-47.9414 393.3071,-34.8922 439.613,-20.228"/>
<polygon fill="#191970" stroke="#191970" points="440.7485,-23.5397 449.2186,-17.1752 438.6282,-16.8685 440.7485,-23.5397"/>
</g>
<!-- Node16 -->
<g id="node17" class="node">
<title>Node16</title>
<polygon fill="none" stroke="#bfbfbf" points="0,-.5 0,-19.5 53,-19.5 53,-.5 0,-.5"/>
<text text-anchor="middle" x="26.5" y="-7.5" font-family="FreeSans.ttf" font-size="10.00" fill="#000000">iterator</text>
</g>
<!-- Node12&#45;&gt;Node16 -->
<g id="edge17" class="edge">
<title>Node12&#45;&gt;Node16</title>
<path fill="none" stroke="#191970" d="M236.2081,-56.4349C192.4986,-48.1958 128.3197,-35.5344 63.2134,-20.0439"/>
<polygon fill="#191970" stroke="#191970" points="63.7228,-16.5668 53.1821,-17.6361 62.089,-23.3735 63.7228,-16.5668"/>
</g>
<!-- Node17 -->
<g id="node18" class="node">
<title>Node17</title>
<polygon fill="none" stroke="#bfbfbf" points="71.5,-.5 71.5,-19.5 115.5,-19.5 115.5,-.5 71.5,-.5"/>
<text text-anchor="middle" x="93.5" y="-7.5" font-family="FreeSans.ttf" font-size="10.00" fill="#000000">limits</text>
</g>
<!-- Node12&#45;&gt;Node17 -->
<g id="edge18" class="edge">
<title>Node12&#45;&gt;Node17</title>
<path fill="none" stroke="#191970" d="M252.875,-56.4335C221.6585,-47.9565 174.8385,-35.0154 125.6782,-20.2828"/>
<polygon fill="#191970" stroke="#191970" points="126.4034,-16.846 115.8188,-17.3132 124.3845,-23.5485 126.4034,-16.846"/>
</g>
<!-- Node18 -->
<g id="node19" class="node">
<title>Node18</title>
<polygon fill="none" stroke="#bfbfbf" points="134,-.5 134,-19.5 199,-19.5 199,-.5 134,-.5"/>
<text text-anchor="middle" x="166.5" y="-7.5" font-family="FreeSans.ttf" font-size="10.00" fill="#000000">stdexcept</text>
</g>
<!-- Node12&#45;&gt;Node18 -->
<g id="edge19" class="edge">
<title>Node12&#45;&gt;Node18</title>
<path fill="none" stroke="#191970" d="M267.5275,-56.3733C247.9433,-47.3838 218.5039,-33.8706 196.449,-23.7471"/>
<polygon fill="#191970" stroke="#191970" points="197.7473,-20.4919 187.1989,-19.5011 194.8271,-26.8538 197.7473,-20.4919"/>
</g>
<!-- Node19 -->
<g id="node20" class="node">
<title>Node19</title>
<polygon fill="none" stroke="#bfbfbf" points="217,-.5 217,-19.5 286,-19.5 286,-.5 217,-.5"/>
<text text-anchor="middle" x="251.5" y="-7.5" font-family="FreeSans.ttf" font-size="10.00" fill="#000000">type_traits</text>
</g>
<!-- Node12&#45;&gt;Node19 -->
<g id="edge20" class="edge">
<title>Node12&#45;&gt;Node19</title>
<path fill="none" stroke="#191970" d="M282.0551,-56.2455C276.9618,-48.5367 269.7092,-37.5598 263.548,-28.2348"/>
<polygon fill="#191970" stroke="#191970" points="266.3038,-26.0566 257.8711,-19.6427 260.4635,-29.9155 266.3038,-26.0566"/>
</g>
<!-- Node20 -->
<g id="node21" class="node">
<title>Node20</title>
<polygon fill="none" stroke="#bfbfbf" points="304,-.5 304,-19.5 349,-19.5 349,-.5 304,-.5"/>
<text text-anchor="middle" x="326.5" y="-7.5" font-family="FreeSans.ttf" font-size="10.00" fill="#000000">utility</text>
</g>
<!-- Node12&#45;&gt;Node20 -->
<g id="edge21" class="edge">
<title>Node12&#45;&gt;Node20</title>
<path fill="none" stroke="#191970" d="M295.1191,-56.2455C300.4046,-48.4564 307.9541,-37.3308 314.3238,-27.9439"/>
<polygon fill="#191970" stroke="#191970" points="317.2379,-29.8827 319.9568,-19.6427 311.4455,-25.9522 317.2379,-29.8827"/>
</g>
<!-- Node22&#45;&gt;Node4 -->
<g id="edge28" class="edge">
<title>Node22&#45;&gt;Node4</title>
<path fill="none" stroke="#191970" d="M677.372,-224.4511C696.0147,-216.5145 721.4811,-203.954 740.5,-188 777.011,-157.3727 808.2461,-110.2567 823.8543,-84.4568"/>
<polygon fill="#191970" stroke="#191970" points="826.9617,-86.0783 829.0495,-75.6912 820.9399,-82.5092 826.9617,-86.0783"/>
</g>
<!-- Node22&#45;&gt;Node9 -->
<g id="edge40" class="edge">
<title>Node22&#45;&gt;Node9</title>
<path fill="none" stroke="#191970" d="M633.8282,-224.4509C595.2005,-204.6961 506.3498,-159.2565 461.0877,-136.1088"/>
<polygon fill="#191970" stroke="#191970" points="462.6215,-132.9621 452.1246,-131.5249 459.4342,-139.1943 462.6215,-132.9621"/>
</g>
<!-- Node23 -->
<g id="node24" class="node">
<title>Node23</title>
<g id="a_node24"><a xlink:href="GeomVector3_8h.html" target="_top" xlink:title="iDynTree/Core/GeomVector3.h">
<polygon fill="none" stroke="#000000" points="316,-168.5 316,-187.5 479,-187.5 479,-168.5 316,-168.5"/>
<text text-anchor="middle" x="397.5" y="-175.5" font-family="FreeSans.ttf" font-size="10.00" fill="#000000">iDynTree/Core/GeomVector3.h</text>
</a>
</g>
</g>
<!-- Node22&#45;&gt;Node23 -->
<g id="edge29" class="edge">
<title>Node22&#45;&gt;Node23</title>
<path fill="none" stroke="#191970" d="M608.9537,-224.4369C565.2207,-214.8328 497.7655,-200.0191 450.8458,-189.7152"/>
<polygon fill="#191970" stroke="#191970" points="451.3847,-186.2502 440.8667,-187.5237 449.8832,-193.0872 451.3847,-186.2502"/>
</g>
<!-- Node24 -->
<g id="node25" class="node">
<title>Node24</title>
<g id="a_node25"><a xlink:href="RotationRaw_8h.html" target="_top" xlink:title="iDynTree/Core/RotationRaw.h">
<polygon fill="none" stroke="#000000" points="573.5,-168.5 573.5,-187.5 731.5,-187.5 731.5,-168.5 573.5,-168.5"/>
<text text-anchor="middle" x="652.5" y="-175.5" font-family="FreeSans.ttf" font-size="10.00" fill="#000000">iDynTree/Core/RotationRaw.h</text>
</a>
</g>
</g>
<!-- Node22&#45;&gt;Node24 -->
<g id="edge31" class="edge">
<title>Node22&#45;&gt;Node24</title>
<path fill="none" stroke="#191970" d="M652.5,-224.2455C652.5,-216.9382 652.5,-206.6944 652.5,-197.7046"/>
<polygon fill="#191970" stroke="#191970" points="656.0001,-197.6426 652.5,-187.6427 649.0001,-197.6427 656.0001,-197.6426"/>
</g>
<!-- Node23&#45;&gt;Node9 -->
<g id="edge30" class="edge">
<title>Node23&#45;&gt;Node9</title>
<path fill="none" stroke="#191970" d="M403.7707,-168.2455C408.7264,-160.5367 415.783,-149.5598 421.7776,-140.2348"/>
<polygon fill="#191970" stroke="#191970" points="424.8376,-141.9471 427.3011,-131.6427 418.9494,-138.1618 424.8376,-141.9471"/>
</g>
<!-- Node24&#45;&gt;Node4 -->
<g id="edge39" class="edge">
<title>Node24&#45;&gt;Node4</title>
<path fill="none" stroke="#191970" d="M664.7576,-168.4584C682.1978,-155.0803 715.4029,-130.3335 745.5,-112 764.676,-100.3191 787.144,-88.7215 804.7076,-80.0936"/>
<polygon fill="#191970" stroke="#191970" points="806.4429,-83.1418 813.9085,-75.6242 803.3843,-76.8454 806.4429,-83.1418"/>
</g>
<!-- Node24&#45;&gt;Node25 -->
<g id="edge32" class="edge">
<title>Node24&#45;&gt;Node25</title>
<path fill="none" stroke="#191970" d="M645.5325,-168.2455C639.9689,-160.4564 632.022,-149.3308 625.3171,-139.9439"/>
<polygon fill="#191970" stroke="#191970" points="628.0481,-137.7457 619.3876,-131.6427 622.352,-141.8144 628.0481,-137.7457"/>
</g>
<!-- Node25&#45;&gt;Node3 -->
<g id="edge38" class="edge">
<title>Node25&#45;&gt;Node3</title>
<path fill="none" stroke="#191970" d="M581.7288,-112.3733C551.1103,-102.7943 504.0733,-88.0788 471.2222,-77.8014"/>
<polygon fill="#191970" stroke="#191970" points="472.1053,-74.4104 461.5164,-74.7649 470.0152,-81.0911 472.1053,-74.4104"/>
</g>
<!-- Node25&#45;&gt;Node4 -->
<g id="edge36" class="edge">
<title>Node25&#45;&gt;Node4</title>
<path fill="none" stroke="#191970" d="M650.4109,-112.4369C693.2459,-101.6317 762.2217,-84.2324 802.4691,-74.0799"/>
<polygon fill="#191970" stroke="#191970" points="803.4501,-77.4421 812.2903,-71.6025 801.7379,-70.6547 803.4501,-77.4421"/>
</g>
<!-- Node25&#45;&gt;Node10 -->
<g id="edge33" class="edge">
<title>Node25&#45;&gt;Node10</title>
<path fill="none" stroke="#191970" d="M611.6291,-112.2455C610.9766,-104.9382 610.062,-94.6944 609.2593,-85.7046"/>
<polygon fill="#191970" stroke="#191970" points="612.7365,-85.2918 608.361,-75.6427 605.7642,-85.9143 612.7365,-85.2918"/>
</g>
<!-- Node25&#45;&gt;Node13 -->
<g id="edge34" class="edge">
<title>Node25&#45;&gt;Node13</title>
<path fill="none" stroke="#191970" d="M687.9101,-112.4214C732.7746,-103.4117 776.9577,-86.5592 754.5,-56 741.2717,-37.9997 682.7006,-23.9021 643.6038,-16.2799"/>
<polygon fill="#191970" stroke="#191970" points="644.1118,-12.814 633.6354,-14.3934 642.8101,-19.6919 644.1118,-12.814"/>
</g>
<!-- Node25&#45;&gt;Node21 -->
<g id="edge35" class="edge">
<title>Node25&#45;&gt;Node21</title>
<path fill="none" stroke="#191970" d="M593.6878,-112.2455C576.6527,-103.4125 551.3425,-90.2887 532.0319,-80.2758"/>
<polygon fill="#191970" stroke="#191970" points="533.5853,-77.1388 523.0966,-75.6427 530.363,-83.353 533.5853,-77.1388"/>
</g>
<!-- Node26 -->
<g id="node27" class="node">
<title>Node26</title>
<polygon fill="none" stroke="#bfbfbf" points="685.5,-56.5 685.5,-75.5 745.5,-75.5 745.5,-56.5 685.5,-56.5"/>
<text text-anchor="middle" x="715.5" y="-63.5" font-family="FreeSans.ttf" font-size="10.00" fill="#000000">iostream</text>
</g>
<!-- Node25&#45;&gt;Node26 -->
<g id="edge37" class="edge">
<title>Node25&#45;&gt;Node26</title>
<path fill="none" stroke="#191970" d="M630.4412,-112.2455C646.54,-103.4928 670.3879,-90.527 688.7391,-80.5496"/>
<polygon fill="#191970" stroke="#191970" points="690.6507,-83.4942 697.7644,-75.6427 687.3071,-77.3444 690.6507,-83.4942"/>
</g>
</g>
</svg>
