<?xml version="1.0" encoding="UTF-8" standalone="no"?>
<!DOCTYPE svg PUBLIC "-//W3C//DTD SVG 1.1//EN"
 "http://www.w3.org/Graphics/SVG/1.1/DTD/svg11.dtd">
<!-- Generated by graphviz version 2.40.1 (20161225.0304)
 -->
<!-- Title: URDFDocument.h Pages: 1 -->
<svg width="2411pt" height="655pt"
 viewBox="0.00 0.00 2410.50 655.00" xmlns="http://www.w3.org/2000/svg" xmlns:xlink="http://www.w3.org/1999/xlink">
<g id="graph0" class="graph" transform="scale(1 1) rotate(0) translate(4 651)">
<title>URDFDocument.h</title>
<!-- Node0 -->
<g id="node1" class="node">
<title>Node0</title>
<polygon fill="#bfbfbf" stroke="#000000" points="556.5,-627.5 556.5,-646.5 659.5,-646.5 659.5,-627.5 556.5,-627.5"/>
<text text-anchor="middle" x="608" y="-634.5" font-family="FreeSans.ttf" font-size="10.00" fill="#000000">URDFDocument.h</text>
</g>
<!-- Node1 -->
<g id="node2" class="node">
<title>Node1</title>
<g id="a_node2"><a xlink:href="XMLDocument_8h.html" target="_top" xlink:title="iDynTree/XMLDocument.h">
<polygon fill="none" stroke="#000000" points="672,-403.5 672,-422.5 814,-422.5 814,-403.5 672,-403.5"/>
<text text-anchor="middle" x="743" y="-410.5" font-family="FreeSans.ttf" font-size="10.00" fill="#000000">iDynTree/XMLDocument.h</text>
</a>
</g>
</g>
<!-- Node0&#45;&gt;Node1 -->
<g id="edge1" class="edge">
<title>Node0&#45;&gt;Node1</title>
<path fill="none" stroke="#191970" d="M613.8008,-627.375C634.4419,-593.1261 704.5479,-476.802 731.9218,-431.3817"/>
<polygon fill="#191970" stroke="#191970" points="735.0566,-432.9606 737.2208,-422.5891 729.0613,-429.3473 735.0566,-432.9606"/>
</g>
<!-- Node3 -->
<g id="node4" class="node">
<title>Node3</title>
<polygon fill="none" stroke="#bfbfbf" points="891,-56.5 891,-75.5 935,-75.5 935,-56.5 891,-56.5"/>
<text text-anchor="middle" x="913" y="-63.5" font-family="FreeSans.ttf" font-size="10.00" fill="#000000">string</text>
</g>
<!-- Node0&#45;&gt;Node3 -->
<g id="edge120" class="edge">
<title>Node0&#45;&gt;Node3</title>
<path fill="none" stroke="#191970" d="M556.1674,-635.7925C474.0398,-632.9264 309.4294,-623.2919 174,-591 93.5458,-571.8164 0,-607.7097 0,-525 0,-525 0,-525 0,-178 0,-115.1759 64.4865,-128.8814 125,-112 198.5699,-91.4763 741.6269,-71.8126 880.6535,-67.0764"/>
<polygon fill="#191970" stroke="#191970" points="880.8054,-70.5733 890.6812,-66.7368 880.5684,-63.5773 880.8054,-70.5733"/>
</g>
<!-- Node4 -->
<g id="node5" class="node">
<title>Node4</title>
<g id="a_node5"><a xlink:href="JointElement_8h.html" target="_top" xlink:title="JointElement.h">
<polygon fill="none" stroke="#000000" points="558,-459.5 558,-478.5 646,-478.5 646,-459.5 558,-459.5"/>
<text text-anchor="middle" x="602" y="-466.5" font-family="FreeSans.ttf" font-size="10.00" fill="#000000">JointElement.h</text>
</a>
</g>
</g>
<!-- Node0&#45;&gt;Node4 -->
<g id="edge4" class="edge">
<title>Node0&#45;&gt;Node4</title>
<path fill="none" stroke="#191970" d="M607.6602,-627.4862C606.7118,-600.9293 604.0202,-525.5651 602.7202,-489.1655"/>
<polygon fill="#191970" stroke="#191970" points="606.2058,-488.6966 602.351,-478.8279 599.2102,-488.9465 606.2058,-488.6966"/>
</g>
<!-- Node7 -->
<g id="node8" class="node">
<title>Node7</title>
<polygon fill="none" stroke="#bfbfbf" points="105.5,-347.5 105.5,-366.5 198.5,-366.5 198.5,-347.5 105.5,-347.5"/>
<text text-anchor="middle" x="152" y="-354.5" font-family="FreeSans.ttf" font-size="10.00" fill="#000000">unordered_map</text>
</g>
<!-- Node0&#45;&gt;Node7 -->
<g id="edge122" class="edge">
<title>Node0&#45;&gt;Node7</title>
<path fill="none" stroke="#191970" d="M556.021,-631.5224C422.156,-616.7184 76,-573.7266 76,-525 76,-525 76,-525 76,-469 76,-429.2361 109.2071,-393.1042 131.7208,-373.177"/>
<polygon fill="#191970" stroke="#191970" points="134.1079,-375.7412 139.4501,-366.5918 129.5683,-370.4128 134.1079,-375.7412"/>
</g>
<!-- Node8 -->
<g id="node9" class="node">
<title>Node8</title>
<polygon fill="none" stroke="#bfbfbf" points="1046.5,-347.5 1046.5,-366.5 1093.5,-366.5 1093.5,-347.5 1046.5,-347.5"/>
<text text-anchor="middle" x="1070" y="-354.5" font-family="FreeSans.ttf" font-size="10.00" fill="#000000">vector</text>
</g>
<!-- Node0&#45;&gt;Node8 -->
<g id="edge121" class="edge">
<title>Node0&#45;&gt;Node8</title>
<path fill="none" stroke="#191970" d="M659.7378,-633.7139C764.4738,-626.7132 994.2927,-609.4538 1025,-591 1055.4305,-572.7126 1070,-560.5027 1070,-525 1070,-525 1070,-525 1070,-469 1070,-436.7116 1070,-399.1872 1070,-376.8048"/>
<polygon fill="#191970" stroke="#191970" points="1073.5001,-376.5883 1070,-366.5884 1066.5001,-376.5884 1073.5001,-376.5883"/>
</g>
<!-- Node33 -->
<g id="node34" class="node">
<title>Node33</title>
<g id="a_node34"><a xlink:href="MaterialElement_8h.html" target="_top" xlink:title="MaterialElement.h">
<polygon fill="none" stroke="#000000" points="272,-459.5 272,-478.5 378,-478.5 378,-459.5 272,-459.5"/>
<text text-anchor="middle" x="325" y="-466.5" font-family="FreeSans.ttf" font-size="10.00" fill="#000000">MaterialElement.h</text>
</a>
</g>
</g>
<!-- Node0&#45;&gt;Node33 -->
<g id="edge61" class="edge">
<title>Node0&#45;&gt;Node33</title>
<path fill="none" stroke="#191970" d="M556.3888,-629.2799C500.0854,-618.1754 411.0555,-592.3219 359,-535 346.7088,-521.4653 337.6001,-502.6671 331.9206,-488.5932"/>
<polygon fill="#191970" stroke="#191970" points="335.0694,-487.0257 328.25,-478.9172 328.5245,-489.5085 335.0694,-487.0257"/>
</g>
<!-- Node34 -->
<g id="node35" class="node">
<title>Node34</title>
<g id="a_node35"><a xlink:href="SensorElement_8h.html" target="_top" xlink:title="SensorElement.h">
<polygon fill="none" stroke="#000000" points="480.5,-571.5 480.5,-590.5 579.5,-590.5 579.5,-571.5 480.5,-571.5"/>
<text text-anchor="middle" x="530" y="-578.5" font-family="FreeSans.ttf" font-size="10.00" fill="#000000">SensorElement.h</text>
</a>
</g>
</g>
<!-- Node0&#45;&gt;Node34 -->
<g id="edge66" class="edge">
<title>Node0&#45;&gt;Node34</title>
<path fill="none" stroke="#191970" d="M594.4134,-627.2455C582.6695,-618.814 565.4801,-606.4729 551.8118,-596.6598"/>
<polygon fill="#191970" stroke="#191970" points="553.5954,-593.6316 543.4309,-590.6427 549.5129,-599.3179 553.5954,-593.6316"/>
</g>
<!-- Node35 -->
<g id="node36" class="node">
<title>Node35</title>
<g id="a_node36"><a xlink:href="Sensors_8h.html" target="_top" xlink:title="iDynTree/Sensors/Sensors.h">
<polygon fill="none" stroke="#000000" points="1342.5,-515.5 1342.5,-534.5 1493.5,-534.5 1493.5,-515.5 1342.5,-515.5"/>
<text text-anchor="middle" x="1418" y="-522.5" font-family="FreeSans.ttf" font-size="10.00" fill="#000000">iDynTree/Sensors/Sensors.h</text>
</a>
</g>
</g>
<!-- Node0&#45;&gt;Node35 -->
<g id="edge119" class="edge">
<title>Node0&#45;&gt;Node35</title>
<path fill="none" stroke="#191970" d="M659.523,-636.6218C799.349,-635.1161 1183.514,-627.6637 1304,-591 1339.5743,-580.1748 1375.9477,-556.4756 1397.7541,-540.6232"/>
<polygon fill="#191970" stroke="#191970" points="1399.9585,-543.3456 1405.8976,-534.5719 1395.7834,-537.727 1399.9585,-543.3456"/>
</g>
<!-- Node37 -->
<g id="node38" class="node">
<title>Node37</title>
<g id="a_node38"><a xlink:href="Model_8h.html" target="_top" xlink:title="iDynTree/Model/Model.h">
<polygon fill="none" stroke="#000000" points="1363.5,-459.5 1363.5,-478.5 1496.5,-478.5 1496.5,-459.5 1363.5,-459.5"/>
<text text-anchor="middle" x="1430" y="-466.5" font-family="FreeSans.ttf" font-size="10.00" fill="#000000">iDynTree/Model/Model.h</text>
</a>
</g>
</g>
<!-- Node0&#45;&gt;Node37 -->
<g id="edge118" class="edge">
<title>Node0&#45;&gt;Node37</title>
<path fill="none" stroke="#191970" d="M659.7079,-636.0929C747.8042,-633.6424 932.206,-624.5721 1084,-591 1204.1799,-564.42 1340.0751,-508.4521 1399.4814,-482.6087"/>
<polygon fill="#191970" stroke="#191970" points="1400.9193,-485.8 1408.6759,-478.5829 1398.1116,-479.3877 1400.9193,-485.8"/>
</g>
<!-- Node53 -->
<g id="node49" class="node">
<title>Node53</title>
<g id="a_node49"><a xlink:href="VisualElement_8h.html" target="_top" xlink:title="VisualElement.h">
<polygon fill="none" stroke="#000000" points="368,-515.5 368,-534.5 464,-534.5 464,-515.5 368,-515.5"/>
<text text-anchor="middle" x="416" y="-522.5" font-family="FreeSans.ttf" font-size="10.00" fill="#000000">VisualElement.h</text>
</a>
</g>
</g>
<!-- Node0&#45;&gt;Node53 -->
<g id="edge103" class="edge">
<title>Node0&#45;&gt;Node53</title>
<path fill="none" stroke="#191970" d="M558.7305,-627.4359C531.2208,-620.4532 497.2984,-608.9917 471,-591 452.6212,-578.4264 436.973,-558.0711 427.1213,-543.2869"/>
<polygon fill="#191970" stroke="#191970" points="429.8485,-541.0548 421.5139,-534.5139 423.9504,-544.8247 429.8485,-541.0548"/>
</g>
<!-- Node54 -->
<g id="node50" class="node">
<title>Node54</title>
<g id="a_node50"><a xlink:href="ModelLoader_8h.html" target="_top" xlink:title="iDynTree/ModelIO/ModelLoader.h">
<polygon fill="none" stroke="#000000" points="840,-571.5 840,-590.5 1016,-590.5 1016,-571.5 840,-571.5"/>
<text text-anchor="middle" x="928" y="-578.5" font-family="FreeSans.ttf" font-size="10.00" fill="#000000">iDynTree/ModelIO/ModelLoader.h</text>
</a>
</g>
</g>
<!-- Node0&#45;&gt;Node54 -->
<g id="edge112" class="edge">
<title>Node0&#45;&gt;Node54</title>
<path fill="none" stroke="#191970" d="M659.7692,-627.9404C715.2845,-618.2252 803.5257,-602.783 863.513,-592.2852"/>
<polygon fill="#191970" stroke="#191970" points="864.3816,-595.6865 873.6286,-590.515 863.1749,-588.7913 864.3816,-595.6865"/>
</g>
<!-- Node2 -->
<g id="node3" class="node">
<title>Node2</title>
<polygon fill="none" stroke="#bfbfbf" points="501,-347.5 501,-366.5 559,-366.5 559,-347.5 501,-347.5"/>
<text text-anchor="middle" x="530" y="-354.5" font-family="FreeSans.ttf" font-size="10.00" fill="#000000">memory</text>
</g>
<!-- Node1&#45;&gt;Node2 -->
<g id="edge2" class="edge">
<title>Node1&#45;&gt;Node2</title>
<path fill="none" stroke="#191970" d="M706.384,-403.3733C668.087,-393.3046 608.2042,-377.5607 569.029,-367.2612"/>
<polygon fill="#191970" stroke="#191970" points="569.8585,-363.8604 559.2972,-364.7026 568.0786,-370.6303 569.8585,-363.8604"/>
</g>
<!-- Node1&#45;&gt;Node3 -->
<g id="edge3" class="edge">
<title>Node1&#45;&gt;Node3</title>
<path fill="none" stroke="#191970" d="M743.8343,-403.2596C745.4829,-383.1426 749,-335.5347 749,-295.5 749,-295.5 749,-295.5 749,-178 749,-144.5868 759.6221,-133.7349 785,-112 812.3536,-88.573 852.5463,-76.7329 880.5712,-70.9887"/>
<polygon fill="#191970" stroke="#191970" points="881.4916,-74.3766 890.6641,-69.0742 880.187,-67.4992 881.4916,-74.3766"/>
</g>
<!-- Node4&#45;&gt;Node2 -->
<g id="edge58" class="edge">
<title>Node4&#45;&gt;Node2</title>
<path fill="none" stroke="#191970" d="M595.8613,-459.4509C583.8526,-440.7707 557.0796,-399.1238 541.6204,-375.0761"/>
<polygon fill="#191970" stroke="#191970" points="544.4749,-373.044 536.1231,-366.5249 538.5866,-376.8294 544.4749,-373.044"/>
</g>
<!-- Node4&#45;&gt;Node3 -->
<g id="edge59" class="edge">
<title>Node4&#45;&gt;Node3</title>
<path fill="none" stroke="#191970" d="M602.5731,-459.4157C603.6791,-440.0653 606,-394.9408 606,-357 606,-357 606,-357 606,-178 606,-120.0209 801.6878,-83.2302 880.5948,-70.7518"/>
<polygon fill="#191970" stroke="#191970" points="881.5747,-74.1419 890.9213,-69.1528 880.5035,-67.2243 881.5747,-74.1419"/>
</g>
<!-- Node5 -->
<g id="node6" class="node">
<title>Node5</title>
<g id="a_node6"><a xlink:href="XMLElement_8h.html" target="_top" xlink:title="iDynTree/XMLElement.h">
<polygon fill="none" stroke="#000000" points="256,-403.5 256,-422.5 388,-422.5 388,-403.5 256,-403.5"/>
<text text-anchor="middle" x="322" y="-410.5" font-family="FreeSans.ttf" font-size="10.00" fill="#000000">iDynTree/XMLElement.h</text>
</a>
</g>
</g>
<!-- Node4&#45;&gt;Node5 -->
<g id="edge5" class="edge">
<title>Node4&#45;&gt;Node5</title>
<path fill="none" stroke="#191970" d="M557.942,-460.1884C509.7626,-450.5525 432.3741,-435.0748 379.4578,-424.4916"/>
<polygon fill="#191970" stroke="#191970" points="380.0381,-421.0384 369.5459,-422.5092 378.6652,-427.9024 380.0381,-421.0384"/>
</g>
<!-- Node4&#45;&gt;Node7 -->
<g id="edge60" class="edge">
<title>Node4&#45;&gt;Node7</title>
<path fill="none" stroke="#191970" d="M557.9308,-465.9097C475.8651,-459.7254 302.8839,-444.5482 247,-423 217.3706,-411.5752 188.0992,-389.0835 170.0479,-373.5552"/>
<polygon fill="#191970" stroke="#191970" points="171.9485,-370.5644 162.1352,-366.5707 167.3161,-375.8124 171.9485,-370.5644"/>
</g>
<!-- Node9 -->
<g id="node10" class="node">
<title>Node9</title>
<g id="a_node10"><a xlink:href="Axis_8h.html" target="_top" xlink:title="iDynTree/Core/Axis.h">
<polygon fill="none" stroke="#000000" points="910,-347.5 910,-366.5 1028,-366.5 1028,-347.5 910,-347.5"/>
<text text-anchor="middle" x="969" y="-354.5" font-family="FreeSans.ttf" font-size="10.00" fill="#000000">iDynTree/Core/Axis.h</text>
</a>
</g>
</g>
<!-- Node4&#45;&gt;Node9 -->
<g id="edge11" class="edge">
<title>Node4&#45;&gt;Node9</title>
<path fill="none" stroke="#191970" d="M646.4645,-460.9401C701.1727,-450.8153 790.7671,-433.4991 823,-423 866.0108,-408.9903 913.2909,-386.1476 942.0612,-371.3468"/>
<polygon fill="#191970" stroke="#191970" points="943.8177,-374.3784 951.0756,-366.6601 940.5886,-368.1677 943.8177,-374.3784"/>
</g>
<!-- Node32 -->
<g id="node33" class="node">
<title>Node32</title>
<g id="a_node33"><a xlink:href="Transform_8h.html" target="_top" xlink:title="iDynTree/Core/Transform.h">
<polygon fill="none" stroke="#000000" points="1299,-347.5 1299,-366.5 1445,-366.5 1445,-347.5 1299,-347.5"/>
<text text-anchor="middle" x="1372" y="-354.5" font-family="FreeSans.ttf" font-size="10.00" fill="#000000">iDynTree/Core/Transform.h</text>
</a>
</g>
</g>
<!-- Node4&#45;&gt;Node32 -->
<g id="edge53" class="edge">
<title>Node4&#45;&gt;Node32</title>
<path fill="none" stroke="#191970" d="M646.1372,-466.4334C805.7019,-457.1348 1343.4469,-425.619 1347,-423 1361.6034,-412.2359 1367.6773,-391.8454 1370.2031,-376.5643"/>
<polygon fill="#191970" stroke="#191970" points="1373.6867,-376.9149 1371.4863,-366.5511 1366.7435,-376.025 1373.6867,-376.9149"/>
</g>
<!-- Node5&#45;&gt;Node2 -->
<g id="edge7" class="edge">
<title>Node5&#45;&gt;Node2</title>
<path fill="none" stroke="#191970" d="M357.7565,-403.3733C394.8619,-393.3833 452.7176,-377.8068 490.9853,-367.5039"/>
<polygon fill="#191970" stroke="#191970" points="492.0001,-370.8555 500.7463,-364.876 490.1802,-364.0961 492.0001,-370.8555"/>
</g>
<!-- Node5&#45;&gt;Node3 -->
<g id="edge8" class="edge">
<title>Node5&#45;&gt;Node3</title>
<path fill="none" stroke="#191970" d="M318.1067,-403.4356C310.4131,-383.643 294,-336.6022 294,-295.5 294,-295.5 294,-295.5 294,-178 294,-121.7466 348.5875,-129.6508 402,-112 491.5697,-82.4007 782.7334,-70.2914 880.5846,-66.9929"/>
<polygon fill="#191970" stroke="#191970" points="880.8738,-70.4853 890.7534,-66.6586 880.6438,-63.4891 880.8738,-70.4853"/>
</g>
<!-- Node6 -->
<g id="node7" class="node">
<title>Node6</title>
<polygon fill="none" stroke="#bfbfbf" points="322.5,-347.5 322.5,-366.5 387.5,-366.5 387.5,-347.5 322.5,-347.5"/>
<text text-anchor="middle" x="355" y="-354.5" font-family="FreeSans.ttf" font-size="10.00" fill="#000000">functional</text>
</g>
<!-- Node5&#45;&gt;Node6 -->
<g id="edge6" class="edge">
<title>Node5&#45;&gt;Node6</title>
<path fill="none" stroke="#191970" d="M327.7482,-403.2455C332.2435,-395.617 338.6248,-384.7881 344.0825,-375.5267"/>
<polygon fill="#191970" stroke="#191970" points="347.2561,-377.035 349.3177,-366.6427 341.2253,-373.4811 347.2561,-377.035"/>
</g>
<!-- Node5&#45;&gt;Node7 -->
<g id="edge9" class="edge">
<title>Node5&#45;&gt;Node7</title>
<path fill="none" stroke="#191970" d="M292.776,-403.3733C264.5075,-394.0613 221.5035,-379.8953 190.4656,-369.671"/>
<polygon fill="#191970" stroke="#191970" points="191.4357,-366.3056 180.8427,-366.5011 189.2456,-372.9542 191.4357,-366.3056"/>
</g>
<!-- Node5&#45;&gt;Node8 -->
<g id="edge10" class="edge">
<title>Node5&#45;&gt;Node8</title>
<path fill="none" stroke="#191970" d="M388.0843,-410.6921C536.876,-405.1886 895.455,-390.13 1036.2152,-366.6511"/>
<polygon fill="#191970" stroke="#191970" points="1037.1208,-370.0458 1046.3668,-364.8726 1035.9128,-363.1508 1037.1208,-370.0458"/>
</g>
<!-- Node9&#45;&gt;Node3 -->
<g id="edge12" class="edge">
<title>Node9&#45;&gt;Node3</title>
<path fill="none" stroke="#191970" d="M961.2134,-347.4759C945.8262,-327.6572 913,-279.9879 913,-234 913,-234 913,-234 913,-178 913,-145.7116 913,-108.1872 913,-85.8048"/>
<polygon fill="#191970" stroke="#191970" points="916.5001,-85.5883 913,-75.5884 909.5001,-85.5884 916.5001,-85.5883"/>
</g>
<!-- Node10 -->
<g id="node11" class="node">
<title>Node10</title>
<g id="a_node11"><a xlink:href="Direction_8h.html" target="_top" xlink:title="iDynTree/Core/Direction.h">
<polygon fill="none" stroke="#000000" points="1519.5,-168.5 1519.5,-187.5 1660.5,-187.5 1660.5,-168.5 1519.5,-168.5"/>
<text text-anchor="middle" x="1590" y="-175.5" font-family="FreeSans.ttf" font-size="10.00" fill="#000000">iDynTree/Core/Direction.h</text>
</a>
</g>
</g>
<!-- Node9&#45;&gt;Node10 -->
<g id="edge13" class="edge">
<title>Node9&#45;&gt;Node10</title>
<path fill="none" stroke="#191970" d="M1028.0865,-348.3749C1031.4396,-347.9047 1034.7621,-347.4435 1038,-347 1161.8714,-330.0332 1197.2224,-346.8516 1317,-311 1414.3389,-281.8647 1519.8405,-221.2201 1566.0487,-193.0203"/>
<polygon fill="#191970" stroke="#191970" points="1568.0514,-195.8975 1574.7326,-187.6748 1564.382,-189.9363 1568.0514,-195.8975"/>
</g>
<!-- Node12 -->
<g id="node13" class="node">
<title>Node12</title>
<g id="a_node13"><a xlink:href="Utils_8h.html" target="_top" xlink:title="iDynTree/Core/Utils.h">
<polygon fill="none" stroke="#000000" points="1787.5,-56.5 1787.5,-75.5 1906.5,-75.5 1906.5,-56.5 1787.5,-56.5"/>
<text text-anchor="middle" x="1847" y="-63.5" font-family="FreeSans.ttf" font-size="10.00" fill="#000000">iDynTree/Core/Utils.h</text>
</a>
</g>
</g>
<!-- Node9&#45;&gt;Node12 -->
<g id="edge52" class="edge">
<title>Node9&#45;&gt;Node12</title>
<path fill="none" stroke="#191970" d="M1028.076,-348.2959C1031.4318,-347.8458 1034.7577,-347.4106 1038,-347 1185.2445,-328.3531 1223.9558,-337.4522 1370,-311 1478.562,-291.3368 1783.3365,-275.1435 1851,-188 1873.9603,-158.4296 1863.3269,-111.5736 1854.5305,-85.3705"/>
<polygon fill="#191970" stroke="#191970" points="1857.7713,-84.0394 1851.092,-75.8152 1851.1848,-86.4096 1857.7713,-84.0394"/>
</g>
<!-- Node25 -->
<g id="node26" class="node">
<title>Node25</title>
<g id="a_node26"><a xlink:href="Position_8h.html" target="_top" xlink:title="iDynTree/Core/Position.h">
<polygon fill="none" stroke="#000000" points="1172,-286 1172,-305 1308,-305 1308,-286 1172,-286"/>
<text text-anchor="middle" x="1240" y="-293" font-family="FreeSans.ttf" font-size="10.00" fill="#000000">iDynTree/Core/Position.h</text>
</a>
</g>
</g>
<!-- Node9&#45;&gt;Node25 -->
<g id="edge33" class="edge">
<title>Node9&#45;&gt;Node25</title>
<path fill="none" stroke="#191970" d="M1011.0464,-347.4581C1058.7136,-336.6406 1136.4651,-318.9959 1187.9293,-307.3168"/>
<polygon fill="#191970" stroke="#191970" points="1188.8775,-310.6907 1197.855,-305.0643 1187.3283,-303.8642 1188.8775,-310.6907"/>
</g>
<!-- Node10&#45;&gt;Node3 -->
<g id="edge14" class="edge">
<title>Node10&#45;&gt;Node3</title>
<path fill="none" stroke="#191970" d="M1563.5999,-168.4037C1539.1638,-159.3977 1501.902,-145.3506 1470,-132 1450.1842,-123.7073 1446.7698,-117.4814 1426,-112 1334.4351,-87.8349 1043.2086,-72.1675 945.3952,-67.4786"/>
<polygon fill="#191970" stroke="#191970" points="945.3853,-63.9744 935.231,-66.9977 945.0544,-70.9665 945.3853,-63.9744"/>
</g>
<!-- Node11 -->
<g id="node12" class="node">
<title>Node11</title>
<g id="a_node12"><a xlink:href="VectorFixSize_8h.html" target="_top" xlink:title="iDynTree/Core/VectorFixSize.h">
<polygon fill="none" stroke="#000000" points="1657.5,-112.5 1657.5,-131.5 1818.5,-131.5 1818.5,-112.5 1657.5,-112.5"/>
<text text-anchor="middle" x="1738" y="-119.5" font-family="FreeSans.ttf" font-size="10.00" fill="#000000">iDynTree/Core/VectorFixSize.h</text>
</a>
</g>
</g>
<!-- Node10&#45;&gt;Node11 -->
<g id="edge15" class="edge">
<title>Node10&#45;&gt;Node11</title>
<path fill="none" stroke="#191970" d="M1615.4421,-168.3733C1639.7326,-159.1822 1676.5208,-145.2624 1703.4543,-135.0713"/>
<polygon fill="#191970" stroke="#191970" points="1704.7757,-138.3136 1712.8899,-131.5011 1702.2984,-131.7666 1704.7757,-138.3136"/>
</g>
<!-- Node10&#45;&gt;Node12 -->
<g id="edge32" class="edge">
<title>Node10&#45;&gt;Node12</title>
<path fill="none" stroke="#191970" d="M1658.5295,-168.4651C1724.3051,-158.725 1815.4799,-143.4483 1828,-132 1840.7621,-120.3304 1845.1622,-100.7002 1846.5788,-85.8745"/>
<polygon fill="#191970" stroke="#191970" points="1850.0848,-85.8711 1847.1696,-75.6852 1843.0965,-85.4658 1850.0848,-85.8711"/>
</g>
<!-- Node11&#45;&gt;Node3 -->
<g id="edge28" class="edge">
<title>Node11&#45;&gt;Node3</title>
<path fill="none" stroke="#191970" d="M1657.4876,-112.773C1654.6242,-112.5024 1651.7881,-112.2436 1649,-112 1377.0761,-88.2404 1047.5901,-72.1503 945.0297,-67.4348"/>
<polygon fill="#191970" stroke="#191970" points="945.1556,-63.937 935.0063,-66.977 944.8362,-70.9297 945.1556,-63.937"/>
</g>
<!-- Node11&#45;&gt;Node12 -->
<g id="edge16" class="edge">
<title>Node11&#45;&gt;Node12</title>
<path fill="none" stroke="#191970" d="M1756.9864,-112.2455C1774.1792,-103.4125 1799.7238,-90.2887 1819.2132,-80.2758"/>
<polygon fill="#191970" stroke="#191970" points="1820.9359,-83.3257 1828.2312,-75.6427 1817.737,-77.0993 1820.9359,-83.3257"/>
</g>
<!-- Node14 -->
<g id="node15" class="node">
<title>Node14</title>
<g id="a_node15"><a xlink:href="Span_8h.html" target="_top" xlink:title="iDynTree/Core/Span.h">
<polygon fill="none" stroke="#000000" points="2006.5,-56.5 2006.5,-75.5 2127.5,-75.5 2127.5,-56.5 2006.5,-56.5"/>
<text text-anchor="middle" x="2067" y="-63.5" font-family="FreeSans.ttf" font-size="10.00" fill="#000000">iDynTree/Core/Span.h</text>
</a>
</g>
</g>
<!-- Node11&#45;&gt;Node14 -->
<g id="edge18" class="edge">
<title>Node11&#45;&gt;Node14</title>
<path fill="none" stroke="#191970" d="M1794.1833,-112.4369C1851.4354,-102.6918 1940.1987,-87.5832 2000.8213,-77.2645"/>
<polygon fill="#191970" stroke="#191970" points="2001.7775,-80.6521 2011.0484,-75.5237 2000.6029,-73.7514 2001.7775,-80.6521"/>
</g>
<!-- Node15 -->
<g id="node16" class="node">
<title>Node15</title>
<polygon fill="none" stroke="#bfbfbf" points="1733,-.5 1733,-19.5 1785,-19.5 1785,-.5 1733,-.5"/>
<text text-anchor="middle" x="1759" y="-7.5" font-family="FreeSans.ttf" font-size="10.00" fill="#000000">cassert</text>
</g>
<!-- Node11&#45;&gt;Node15 -->
<g id="edge30" class="edge">
<title>Node11&#45;&gt;Node15</title>
<path fill="none" stroke="#191970" d="M1739.7904,-112.4509C1743.231,-94.1013 1750.8267,-53.5908 1755.3683,-29.3693"/>
<polygon fill="#191970" stroke="#191970" points="1758.8112,-29.9986 1757.2141,-19.5249 1751.9311,-28.7086 1758.8112,-29.9986"/>
</g>
<!-- Node23 -->
<g id="node24" class="node">
<title>Node23</title>
<polygon fill="none" stroke="#bfbfbf" points="1675,-56.5 1675,-75.5 1731,-75.5 1731,-56.5 1675,-56.5"/>
<text text-anchor="middle" x="1703" y="-63.5" font-family="FreeSans.ttf" font-size="10.00" fill="#000000">sstream</text>
</g>
<!-- Node11&#45;&gt;Node23 -->
<g id="edge29" class="edge">
<title>Node11&#45;&gt;Node23</title>
<path fill="none" stroke="#191970" d="M1731.9035,-112.2455C1727.0855,-104.5367 1720.2249,-93.5598 1714.3968,-84.2348"/>
<polygon fill="#191970" stroke="#191970" points="1717.2947,-82.2677 1709.0267,-75.6427 1711.3587,-85.9777 1717.2947,-82.2677"/>
</g>
<!-- Node24 -->
<g id="node25" class="node">
<title>Node24</title>
<polygon fill="none" stroke="#bfbfbf" points="1607,-56.5 1607,-75.5 1657,-75.5 1657,-56.5 1607,-56.5"/>
<text text-anchor="middle" x="1632" y="-63.5" font-family="FreeSans.ttf" font-size="10.00" fill="#000000">cstring</text>
</g>
<!-- Node11&#45;&gt;Node24 -->
<g id="edge31" class="edge">
<title>Node11&#45;&gt;Node24</title>
<path fill="none" stroke="#191970" d="M1719.5362,-112.2455C1702.8926,-103.4527 1678.2007,-90.4079 1659.2808,-80.4125"/>
<polygon fill="#191970" stroke="#191970" points="1660.7291,-77.2193 1650.2522,-75.6427 1657.4592,-83.4086 1660.7291,-77.2193"/>
</g>
<!-- Node13 -->
<g id="node14" class="node">
<title>Node13</title>
<polygon fill="none" stroke="#bfbfbf" points="1815.5,-.5 1815.5,-19.5 1868.5,-19.5 1868.5,-.5 1815.5,-.5"/>
<text text-anchor="middle" x="1842" y="-7.5" font-family="FreeSans.ttf" font-size="10.00" fill="#000000">cstddef</text>
</g>
<!-- Node12&#45;&gt;Node13 -->
<g id="edge17" class="edge">
<title>Node12&#45;&gt;Node13</title>
<path fill="none" stroke="#191970" d="M1846.1291,-56.2455C1845.4766,-48.9382 1844.562,-38.6944 1843.7593,-29.7046"/>
<polygon fill="#191970" stroke="#191970" points="1847.2365,-29.2918 1842.861,-19.6427 1840.2642,-29.9143 1847.2365,-29.2918"/>
</g>
<!-- Node14&#45;&gt;Node13 -->
<g id="edge22" class="edge">
<title>Node14&#45;&gt;Node13</title>
<path fill="none" stroke="#191970" d="M2025.9809,-56.4188C1989.73,-47.8614 1935.1887,-34.7684 1878.557,-20.0862"/>
<polygon fill="#191970" stroke="#191970" points="1879.2698,-16.6551 1868.7105,-17.5226 1877.5061,-23.4293 1879.2698,-16.6551"/>
</g>
<!-- Node14&#45;&gt;Node15 -->
<g id="edge19" class="edge">
<title>Node14&#45;&gt;Node15</title>
<path fill="none" stroke="#191970" d="M2010.3578,-56.4872C1957.6268,-47.5107 1876.8824,-33.4581 1807,-20 1803.1145,-19.2517 1799.0575,-18.4455 1795.0193,-17.627"/>
<polygon fill="#191970" stroke="#191970" points="1795.6286,-14.1791 1785.1286,-15.5933 1794.2187,-21.0357 1795.6286,-14.1791"/>
</g>
<!-- Node16 -->
<g id="node17" class="node">
<title>Node16</title>
<polygon fill="none" stroke="#bfbfbf" points="2037,-.5 2037,-19.5 2101,-19.5 2101,-.5 2037,-.5"/>
<text text-anchor="middle" x="2069" y="-7.5" font-family="FreeSans.ttf" font-size="10.00" fill="#000000">algorithm</text>
</g>
<!-- Node14&#45;&gt;Node16 -->
<g id="edge20" class="edge">
<title>Node14&#45;&gt;Node16</title>
<path fill="none" stroke="#191970" d="M2067.3484,-56.2455C2067.6093,-48.9382 2067.9752,-38.6944 2068.2963,-29.7046"/>
<polygon fill="#191970" stroke="#191970" points="2071.7964,-29.7613 2068.6556,-19.6427 2064.8008,-29.5113 2071.7964,-29.7613"/>
</g>
<!-- Node17 -->
<g id="node18" class="node">
<title>Node17</title>
<polygon fill="none" stroke="#bfbfbf" points="2119,-.5 2119,-19.5 2161,-19.5 2161,-.5 2119,-.5"/>
<text text-anchor="middle" x="2140" y="-7.5" font-family="FreeSans.ttf" font-size="10.00" fill="#000000">array</text>
</g>
<!-- Node14&#45;&gt;Node17 -->
<g id="edge21" class="edge">
<title>Node14&#45;&gt;Node17</title>
<path fill="none" stroke="#191970" d="M2079.7156,-56.2455C2090.602,-47.8943 2106.4883,-35.7076 2119.22,-25.9408"/>
<polygon fill="#191970" stroke="#191970" points="2121.6261,-28.5063 2127.4301,-19.6427 2117.3654,-22.9523 2121.6261,-28.5063"/>
</g>
<!-- Node18 -->
<g id="node19" class="node">
<title>Node18</title>
<polygon fill="none" stroke="#bfbfbf" points="2349.5,-.5 2349.5,-19.5 2402.5,-19.5 2402.5,-.5 2349.5,-.5"/>
<text text-anchor="middle" x="2376" y="-7.5" font-family="FreeSans.ttf" font-size="10.00" fill="#000000">iterator</text>
</g>
<!-- Node14&#45;&gt;Node18 -->
<g id="edge23" class="edge">
<title>Node14&#45;&gt;Node18</title>
<path fill="none" stroke="#191970" d="M2119.7679,-56.4369C2182.2747,-45.1088 2284.7735,-26.5329 2339.2596,-16.6585"/>
<polygon fill="#191970" stroke="#191970" points="2339.9569,-20.0892 2349.1724,-14.862 2338.7085,-13.2014 2339.9569,-20.0892"/>
</g>
<!-- Node19 -->
<g id="node20" class="node">
<title>Node19</title>
<polygon fill="none" stroke="#bfbfbf" points="2179,-.5 2179,-19.5 2223,-19.5 2223,-.5 2179,-.5"/>
<text text-anchor="middle" x="2201" y="-7.5" font-family="FreeSans.ttf" font-size="10.00" fill="#000000">limits</text>
</g>
<!-- Node14&#45;&gt;Node19 -->
<g id="edge24" class="edge">
<title>Node14&#45;&gt;Node19</title>
<path fill="none" stroke="#191970" d="M2090.0354,-56.3733C2111.8704,-47.2482 2144.8589,-33.462 2169.1957,-23.2913"/>
<polygon fill="#191970" stroke="#191970" points="2170.8333,-26.4004 2178.7104,-19.315 2168.1341,-19.9417 2170.8333,-26.4004"/>
</g>
<!-- Node20 -->
<g id="node21" class="node">
<title>Node20</title>
<polygon fill="none" stroke="#bfbfbf" points="2241.5,-.5 2241.5,-19.5 2306.5,-19.5 2306.5,-.5 2241.5,-.5"/>
<text text-anchor="middle" x="2274" y="-7.5" font-family="FreeSans.ttf" font-size="10.00" fill="#000000">stdexcept</text>
</g>
<!-- Node14&#45;&gt;Node20 -->
<g id="edge25" class="edge">
<title>Node14&#45;&gt;Node20</title>
<path fill="none" stroke="#191970" d="M2102.5846,-56.3733C2138.3443,-46.6991 2193.4699,-31.7859 2231.5044,-21.4964"/>
<polygon fill="#191970" stroke="#191970" points="2232.5264,-24.8458 2241.2654,-18.8557 2230.6984,-18.0887 2232.5264,-24.8458"/>
</g>
<!-- Node21 -->
<g id="node22" class="node">
<title>Node21</title>
<polygon fill="none" stroke="#bfbfbf" points="1886.5,-.5 1886.5,-19.5 1955.5,-19.5 1955.5,-.5 1886.5,-.5"/>
<text text-anchor="middle" x="1921" y="-7.5" font-family="FreeSans.ttf" font-size="10.00" fill="#000000">type_traits</text>
</g>
<!-- Node14&#45;&gt;Node21 -->
<g id="edge26" class="edge">
<title>Node14&#45;&gt;Node21</title>
<path fill="none" stroke="#191970" d="M2041.9017,-56.3733C2018.0445,-47.2226 1981.9665,-33.3844 1955.429,-23.2057"/>
<polygon fill="#191970" stroke="#191970" points="1956.361,-19.8145 1945.7708,-19.5011 1953.8541,-26.3503 1956.361,-19.8145"/>
</g>
<!-- Node22 -->
<g id="node23" class="node">
<title>Node22</title>
<polygon fill="none" stroke="#bfbfbf" points="1973.5,-.5 1973.5,-19.5 2018.5,-19.5 2018.5,-.5 1973.5,-.5"/>
<text text-anchor="middle" x="1996" y="-7.5" font-family="FreeSans.ttf" font-size="10.00" fill="#000000">utility</text>
</g>
<!-- Node14&#45;&gt;Node22 -->
<g id="edge27" class="edge">
<title>Node14&#45;&gt;Node22</title>
<path fill="none" stroke="#191970" d="M2054.6327,-56.2455C2044.0446,-47.8943 2028.5936,-35.7076 2016.2107,-25.9408"/>
<polygon fill="#191970" stroke="#191970" points="2018.2447,-23.0875 2008.2255,-19.6427 2013.9097,-28.5837 2018.2447,-23.0875"/>
</g>
<!-- Node25&#45;&gt;Node3 -->
<g id="edge51" class="edge">
<title>Node25&#45;&gt;Node3</title>
<path fill="none" stroke="#191970" d="M1211.4336,-285.9825C1167.7337,-270.4465 1083.1408,-236.4373 1024,-188 990.918,-160.9053 994.2522,-143.1906 965,-112 955.0799,-101.4225 942.9987,-90.6271 932.9788,-82.1549"/>
<polygon fill="#191970" stroke="#191970" points="935.0676,-79.3399 925.1397,-75.6404 930.5937,-84.7236 935.0676,-79.3399"/>
</g>
<!-- Node26 -->
<g id="node27" class="node">
<title>Node26</title>
<g id="a_node27"><a xlink:href="PositionRaw_8h.html" target="_top" xlink:title="iDynTree/Core/PositionRaw.h">
<polygon fill="none" stroke="#000000" points="1231,-168.5 1231,-187.5 1387,-187.5 1387,-168.5 1231,-168.5"/>
<text text-anchor="middle" x="1309" y="-175.5" font-family="FreeSans.ttf" font-size="10.00" fill="#000000">iDynTree/Core/PositionRaw.h</text>
</a>
</g>
</g>
<!-- Node25&#45;&gt;Node26 -->
<g id="edge34" class="edge">
<title>Node25&#45;&gt;Node26</title>
<path fill="none" stroke="#191970" d="M1241.062,-285.583C1242.9723,-271.1296 1247.9748,-243.8419 1260,-224 1266.9226,-212.5776 1277.4513,-202.173 1286.9772,-194.1597"/>
<polygon fill="#191970" stroke="#191970" points="1289.3481,-196.7454 1294.9744,-187.7679 1284.9777,-191.2773 1289.3481,-196.7454"/>
</g>
<!-- Node27 -->
<g id="node28" class="node">
<title>Node27</title>
<g id="a_node28"><a xlink:href="Rotation_8h.html" target="_top" xlink:title="iDynTree/Core/Rotation.h">
<polygon fill="none" stroke="#000000" points="1268.5,-224.5 1268.5,-243.5 1405.5,-243.5 1405.5,-224.5 1268.5,-224.5"/>
<text text-anchor="middle" x="1337" y="-231.5" font-family="FreeSans.ttf" font-size="10.00" fill="#000000">iDynTree/Core/Rotation.h</text>
</a>
</g>
</g>
<!-- Node25&#45;&gt;Node27 -->
<g id="edge37" class="edge">
<title>Node25&#45;&gt;Node27</title>
<path fill="none" stroke="#191970" d="M1255.1563,-285.8906C1270.6743,-276.0519 1295.0193,-260.6167 1313.1284,-249.1351"/>
<polygon fill="#191970" stroke="#191970" points="1315.3787,-251.8526 1321.9502,-243.5419 1311.6304,-245.9407 1315.3787,-251.8526"/>
</g>
<!-- Node26&#45;&gt;Node3 -->
<g id="edge36" class="edge">
<title>Node26&#45;&gt;Node3</title>
<path fill="none" stroke="#191970" d="M1275.2373,-168.4509C1199.8526,-147.13 1018.6838,-95.8904 944.9898,-75.0476"/>
<polygon fill="#191970" stroke="#191970" points="945.9019,-71.6684 935.3268,-72.3146 943.9968,-78.4041 945.9019,-71.6684"/>
</g>
<!-- Node26&#45;&gt;Node11 -->
<g id="edge35" class="edge">
<title>Node26&#45;&gt;Node11</title>
<path fill="none" stroke="#191970" d="M1382.2603,-168.4369C1457.994,-158.5509 1576.0139,-143.145 1655.1127,-132.8198"/>
<polygon fill="#191970" stroke="#191970" points="1655.5791,-136.2887 1665.0419,-131.5237 1654.6729,-129.3476 1655.5791,-136.2887"/>
</g>
<!-- Node27&#45;&gt;Node3 -->
<g id="edge38" class="edge">
<title>Node27&#45;&gt;Node3</title>
<path fill="none" stroke="#191970" d="M1268.3311,-229.9866C1193.8994,-224.4617 1081.0428,-212.3019 1046,-188 1014.1089,-165.8837 1031.0178,-138.8547 1003,-112 986.463,-96.1496 963.3896,-84.5032 944.7457,-76.8949"/>
<polygon fill="#191970" stroke="#191970" points="945.7751,-73.54 935.1863,-73.183 943.2413,-80.0654 945.7751,-73.54"/>
</g>
<!-- Node27&#45;&gt;Node11 -->
<g id="edge50" class="edge">
<title>Node27&#45;&gt;Node11</title>
<path fill="none" stroke="#191970" d="M1358.857,-224.3877C1391.4521,-210.3579 1454.9744,-184.1857 1511,-168 1562.5376,-153.1109 1622.0079,-141.2476 1667.1464,-133.2999"/>
<polygon fill="#191970" stroke="#191970" points="1667.8794,-136.725 1677.1323,-131.5642 1666.6807,-129.8284 1667.8794,-136.725"/>
</g>
<!-- Node28 -->
<g id="node29" class="node">
<title>Node28</title>
<g id="a_node29"><a xlink:href="GeomVector3_8h.html" target="_top" xlink:title="iDynTree/Core/GeomVector3.h">
<polygon fill="none" stroke="#000000" points="1678.5,-168.5 1678.5,-187.5 1841.5,-187.5 1841.5,-168.5 1678.5,-168.5"/>
<text text-anchor="middle" x="1760" y="-175.5" font-family="FreeSans.ttf" font-size="10.00" fill="#000000">iDynTree/Core/GeomVector3.h</text>
</a>
</g>
</g>
<!-- Node27&#45;&gt;Node28 -->
<g id="edge39" class="edge">
<title>Node27&#45;&gt;Node28</title>
<path fill="none" stroke="#191970" d="M1405.9037,-224.878C1480.3266,-215.0253 1598.8427,-199.3352 1678.0048,-188.8552"/>
<polygon fill="#191970" stroke="#191970" points="1678.4855,-192.3222 1687.9396,-187.5399 1677.5667,-185.3827 1678.4855,-192.3222"/>
</g>
<!-- Node29 -->
<g id="node30" class="node">
<title>Node29</title>
<g id="a_node30"><a xlink:href="RotationRaw_8h.html" target="_top" xlink:title="iDynTree/Core/RotationRaw.h">
<polygon fill="none" stroke="#000000" points="1055,-168.5 1055,-187.5 1213,-187.5 1213,-168.5 1055,-168.5"/>
<text text-anchor="middle" x="1134" y="-175.5" font-family="FreeSans.ttf" font-size="10.00" fill="#000000">iDynTree/Core/RotationRaw.h</text>
</a>
</g>
</g>
<!-- Node27&#45;&gt;Node29 -->
<g id="edge41" class="edge">
<title>Node27&#45;&gt;Node29</title>
<path fill="none" stroke="#191970" d="M1302.1031,-224.3733C1267.9089,-214.9404 1215.6585,-200.5265 1178.4958,-190.2747"/>
<polygon fill="#191970" stroke="#191970" points="1179.0123,-186.7865 1168.4416,-187.5011 1177.1507,-193.5345 1179.0123,-186.7865"/>
</g>
<!-- Node28&#45;&gt;Node11 -->
<g id="edge40" class="edge">
<title>Node28&#45;&gt;Node11</title>
<path fill="none" stroke="#191970" d="M1756.1679,-168.2455C1753.2341,-160.7776 1749.0953,-150.2427 1745.509,-141.1137"/>
<polygon fill="#191970" stroke="#191970" points="1748.7024,-139.6704 1741.7882,-131.6427 1742.1871,-142.23 1748.7024,-139.6704"/>
</g>
<!-- Node29&#45;&gt;Node3 -->
<g id="edge49" class="edge">
<title>Node29&#45;&gt;Node3</title>
<path fill="none" stroke="#191970" d="M1122.6302,-168.3635C1105.7356,-154.4211 1072.5921,-128.4912 1041,-112 1009.7686,-95.697 971.4651,-82.7728 944.9403,-74.8263"/>
<polygon fill="#191970" stroke="#191970" points="945.6247,-71.3798 935.0441,-71.9287 943.6577,-78.0978 945.6247,-71.3798"/>
</g>
<!-- Node30 -->
<g id="node31" class="node">
<title>Node30</title>
<g id="a_node31"><a xlink:href="MatrixFixSize_8h.html" target="_top" xlink:title="iDynTree/Core/MatrixFixSize.h">
<polygon fill="none" stroke="#000000" points="1478.5,-112.5 1478.5,-131.5 1639.5,-131.5 1639.5,-112.5 1478.5,-112.5"/>
<text text-anchor="middle" x="1559" y="-119.5" font-family="FreeSans.ttf" font-size="10.00" fill="#000000">iDynTree/Core/MatrixFixSize.h</text>
</a>
</g>
</g>
<!-- Node29&#45;&gt;Node30 -->
<g id="edge42" class="edge">
<title>Node29&#45;&gt;Node30</title>
<path fill="none" stroke="#191970" d="M1206.5772,-168.4369C1281.4519,-158.571 1398.0481,-143.2078 1476.4063,-132.8829"/>
<polygon fill="#191970" stroke="#191970" points="1477.2651,-136.3001 1486.7221,-131.5237 1476.3506,-129.3601 1477.2651,-136.3001"/>
</g>
<!-- Node30&#45;&gt;Node3 -->
<g id="edge46" class="edge">
<title>Node30&#45;&gt;Node3</title>
<path fill="none" stroke="#191970" d="M1478.4187,-113.3962C1473.5409,-112.9131 1468.7056,-112.444 1464,-112 1266.9564,-93.4064 1029.8954,-74.9247 945.0919,-68.4357"/>
<polygon fill="#191970" stroke="#191970" points="945.2989,-64.9414 935.0614,-67.6698 944.7659,-71.921 945.2989,-64.9414"/>
</g>
<!-- Node30&#45;&gt;Node12 -->
<g id="edge43" class="edge">
<title>Node30&#45;&gt;Node12</title>
<path fill="none" stroke="#191970" d="M1608.1817,-112.4369C1657.9884,-102.7522 1735.0385,-87.7703 1788.0788,-77.4569"/>
<polygon fill="#191970" stroke="#191970" points="1788.873,-80.8681 1798.0211,-75.5237 1787.5369,-73.9968 1788.873,-80.8681"/>
</g>
<!-- Node30&#45;&gt;Node15 -->
<g id="edge44" class="edge">
<title>Node30&#45;&gt;Node15</title>
<path fill="none" stroke="#191970" d="M1546.1432,-112.4397C1529.662,-99.0394 1504.9141,-74.2663 1520,-56 1545.2563,-25.4191 1661.9933,-14.9525 1722.4611,-11.5449"/>
<polygon fill="#191970" stroke="#191970" points="1722.9104,-15.0262 1732.7123,-11.0046 1722.5419,-8.0359 1722.9104,-15.0262"/>
</g>
<!-- Node30&#45;&gt;Node23 -->
<g id="edge48" class="edge">
<title>Node30&#45;&gt;Node23</title>
<path fill="none" stroke="#191970" d="M1583.7545,-112.3733C1607.2849,-103.2226 1642.8687,-89.3844 1669.0426,-79.2057"/>
<polygon fill="#191970" stroke="#191970" points="1670.5171,-82.3877 1678.5685,-75.5011 1667.9799,-75.8636 1670.5171,-82.3877"/>
</g>
<!-- Node30&#45;&gt;Node24 -->
<g id="edge45" class="edge">
<title>Node30&#45;&gt;Node24</title>
<path fill="none" stroke="#191970" d="M1571.7156,-112.2455C1582.602,-103.8943 1598.4883,-91.7076 1611.22,-81.9408"/>
<polygon fill="#191970" stroke="#191970" points="1613.6261,-84.5063 1619.4301,-75.6427 1609.3654,-78.9523 1613.6261,-84.5063"/>
</g>
<!-- Node31 -->
<g id="node32" class="node">
<title>Node31</title>
<polygon fill="none" stroke="#bfbfbf" points="1529,-56.5 1529,-75.5 1589,-75.5 1589,-56.5 1529,-56.5"/>
<text text-anchor="middle" x="1559" y="-63.5" font-family="FreeSans.ttf" font-size="10.00" fill="#000000">iostream</text>
</g>
<!-- Node30&#45;&gt;Node31 -->
<g id="edge47" class="edge">
<title>Node30&#45;&gt;Node31</title>
<path fill="none" stroke="#191970" d="M1559,-112.2455C1559,-104.9382 1559,-94.6944 1559,-85.7046"/>
<polygon fill="#191970" stroke="#191970" points="1562.5001,-85.6426 1559,-75.6427 1555.5001,-85.6427 1562.5001,-85.6426"/>
</g>
<!-- Node32&#45;&gt;Node3 -->
<g id="edge57" class="edge">
<title>Node32&#45;&gt;Node3</title>
<path fill="none" stroke="#191970" d="M1320.798,-347.4644C1208.6008,-325.8643 951,-272.1205 951,-234 951,-234 951,-234 951,-178 951,-143.6118 934.7366,-106.2832 923.489,-84.5791"/>
<polygon fill="#191970" stroke="#191970" points="926.431,-82.6605 918.607,-75.5166 920.2683,-85.9804 926.431,-82.6605"/>
</g>
<!-- Node32&#45;&gt;Node25 -->
<g id="edge54" class="edge">
<title>Node32&#45;&gt;Node25</title>
<path fill="none" stroke="#191970" d="M1351.375,-347.3906C1329.4827,-337.1908 1294.6807,-320.9763 1269.8073,-309.3875"/>
<polygon fill="#191970" stroke="#191970" points="1271.0228,-306.0926 1260.4802,-305.0419 1268.0665,-312.4377 1271.0228,-306.0926"/>
</g>
<!-- Node32&#45;&gt;Node27 -->
<g id="edge55" class="edge">
<title>Node32&#45;&gt;Node27</title>
<path fill="none" stroke="#191970" d="M1369.2536,-347.3484C1363.5032,-327.1397 1350.1016,-280.0427 1342.5069,-253.3528"/>
<polygon fill="#191970" stroke="#191970" points="1345.837,-252.267 1339.7336,-243.6068 1339.1042,-254.1829 1345.837,-252.267"/>
</g>
<!-- Node32&#45;&gt;Node30 -->
<g id="edge56" class="edge">
<title>Node32&#45;&gt;Node30</title>
<path fill="none" stroke="#191970" d="M1378.3855,-347.1126C1397.187,-318.2823 1454.574,-232.2833 1511,-168 1520.0692,-157.6679 1531.0901,-146.9923 1540.2832,-138.5295"/>
<polygon fill="#191970" stroke="#191970" points="1542.7329,-141.0329 1547.7965,-131.7264 1538.0345,-135.844 1542.7329,-141.0329"/>
</g>
<!-- Node33&#45;&gt;Node2 -->
<g id="edge64" class="edge">
<title>Node33&#45;&gt;Node2</title>
<path fill="none" stroke="#191970" d="M342.4782,-459.4509C378.4852,-439.7788 461.1121,-394.6363 503.642,-371.4005"/>
<polygon fill="#191970" stroke="#191970" points="505.4685,-374.3909 512.5661,-366.5249 502.1123,-368.248 505.4685,-374.3909"/>
</g>
<!-- Node33&#45;&gt;Node3 -->
<g id="edge65" class="edge">
<title>Node33&#45;&gt;Node3</title>
<path fill="none" stroke="#191970" d="M298.6571,-459.4589C281.6016,-452.0032 260.1904,-440.0264 247,-423 228.3059,-398.8694 228,-387.5246 228,-357 228,-357 228,-357 228,-178 228,-126.9527 273.9592,-129.2599 322,-112 426.1716,-74.5736 772.5662,-67.5653 880.5593,-66.2813"/>
<polygon fill="#191970" stroke="#191970" points="880.8621,-69.7783 890.8229,-66.1683 880.7849,-62.7787 880.8621,-69.7783"/>
</g>
<!-- Node33&#45;&gt;Node5 -->
<g id="edge62" class="edge">
<title>Node33&#45;&gt;Node5</title>
<path fill="none" stroke="#191970" d="M324.4774,-459.2455C324.086,-451.9382 323.5372,-441.6944 323.0556,-432.7046"/>
<polygon fill="#191970" stroke="#191970" points="326.5466,-432.4411 322.5166,-422.6427 319.5566,-432.8156 326.5466,-432.4411"/>
</g>
<!-- Node33&#45;&gt;Node11 -->
<g id="edge63" class="edge">
<title>Node33&#45;&gt;Node11</title>
<path fill="none" stroke="#191970" d="M378.0665,-466.6305C587.5241,-457.2757 1345.5222,-423.3988 1347,-423 1398.8212,-409.0161 1406.9587,-392.8477 1454,-367 1521.8811,-329.7016 1534.9336,-313.0109 1605,-280 1710.5963,-230.2496 1784.469,-283.913 1851,-188 1869.1095,-161.8929 1833.7092,-144.6132 1797.8588,-134.3076"/>
<polygon fill="#191970" stroke="#191970" points="1798.3461,-130.8138 1787.7793,-131.5843 1796.5202,-137.5715 1798.3461,-130.8138"/>
</g>
<!-- Node34&#45;&gt;Node2 -->
<g id="edge99" class="edge">
<title>Node34&#45;&gt;Node2</title>
<path fill="none" stroke="#191970" d="M530,-571.375C530,-537.4851 530,-423.2317 530,-376.8332"/>
<polygon fill="#191970" stroke="#191970" points="533.5001,-376.5891 530,-366.5891 526.5001,-376.5892 533.5001,-376.5891"/>
</g>
<!-- Node34&#45;&gt;Node3 -->
<g id="edge100" class="edge">
<title>Node34&#45;&gt;Node3</title>
<path fill="none" stroke="#191970" d="M520.6709,-571.2038C493.4444,-541.5401 416,-449.0709 416,-357 416,-357 416,-357 416,-178 416,-130.2255 770.0029,-83.3159 880.4755,-69.84"/>
<polygon fill="#191970" stroke="#191970" points="881.1719,-73.2814 890.6794,-68.6062 880.3316,-66.332 881.1719,-73.2814"/>
</g>
<!-- Node34&#45;&gt;Node5 -->
<g id="edge67" class="edge">
<title>Node34&#45;&gt;Node5</title>
<path fill="none" stroke="#191970" d="M480.9536,-571.4372C446.1364,-563.7823 398.7187,-551.5792 359,-535 313.4164,-515.9727 287.6019,-521.8328 263,-479 251.6643,-459.2641 273.1855,-440.2764 293.3439,-427.7752"/>
<polygon fill="#191970" stroke="#191970" points="295.2196,-430.7331 302.0927,-422.6701 291.6916,-424.6871 295.2196,-430.7331"/>
</g>
<!-- Node34&#45;&gt;Node7 -->
<g id="edge101" class="edge">
<title>Node34&#45;&gt;Node7</title>
<path fill="none" stroke="#191970" d="M480.3106,-574.454C421.9482,-566.1949 329.1349,-551.1115 298,-535 233.782,-501.769 221.2057,-482.4166 180,-423 170.0375,-408.6345 162.5784,-390.1654 157.8746,-376.4197"/>
<polygon fill="#191970" stroke="#191970" points="161.1003,-375.0187 154.6978,-366.5772 154.4387,-377.1688 161.1003,-375.0187"/>
</g>
<!-- Node34&#45;&gt;Node8 -->
<g id="edge102" class="edge">
<title>Node34&#45;&gt;Node8</title>
<path fill="none" stroke="#191970" d="M553.2031,-571.375C638.9697,-535.7977 938.2411,-411.6555 1037.6342,-370.4258"/>
<polygon fill="#191970" stroke="#191970" points="1038.9876,-373.6537 1046.8833,-366.5891 1036.3054,-367.1879 1038.9876,-373.6537"/>
</g>
<!-- Node34&#45;&gt;Node32 -->
<g id="edge68" class="edge">
<title>Node34&#45;&gt;Node32</title>
<path fill="none" stroke="#191970" d="M579.5929,-575.5379C754.2994,-555.8059 1333.5233,-486.0493 1386,-423 1396.9589,-409.8332 1390.8272,-390.17 1383.5556,-375.7303"/>
<polygon fill="#191970" stroke="#191970" points="1386.4574,-373.7471 1378.5353,-366.7122 1380.3412,-377.152 1386.4574,-373.7471"/>
</g>
<!-- Node34&#45;&gt;Node35 -->
<g id="edge69" class="edge">
<title>Node34&#45;&gt;Node35</title>
<path fill="none" stroke="#191970" d="M579.6455,-577.8692C724.6476,-568.7249 1148.817,-541.9755 1332.0547,-530.42"/>
<polygon fill="#191970" stroke="#191970" points="1332.4256,-533.9036 1342.1855,-529.7811 1331.985,-526.9175 1332.4256,-533.9036"/>
</g>
<!-- Node35&#45;&gt;Node3 -->
<g id="edge71" class="edge">
<title>Node35&#45;&gt;Node3</title>
<path fill="none" stroke="#191970" d="M1358.1164,-515.4796C1311.5757,-507.4793 1245.63,-494.8233 1189,-479 1019.0822,-431.5224 837,-471.9261 837,-295.5 837,-295.5 837,-295.5 837,-178 837,-138.2361 870.2071,-102.1042 892.7208,-82.177"/>
<polygon fill="#191970" stroke="#191970" points="895.1079,-84.7412 900.4501,-75.5918 890.5683,-79.4128 895.1079,-84.7412"/>
</g>
<!-- Node35&#45;&gt;Node8 -->
<g id="edge72" class="edge">
<title>Node35&#45;&gt;Node8</title>
<path fill="none" stroke="#191970" d="M1364.587,-515.4447C1302.6408,-502.4208 1199.5105,-474.5826 1125,-423 1106.8922,-410.4643 1091.3757,-390.4326 1081.4852,-375.7224"/>
<polygon fill="#191970" stroke="#191970" points="1084.1911,-373.4604 1075.8276,-366.9564 1078.3097,-377.2564 1084.1911,-373.4604"/>
</g>
<!-- Node35&#45;&gt;Node18 -->
<g id="edge73" class="edge">
<title>Node35&#45;&gt;Node18</title>
<path fill="none" stroke="#191970" d="M1493.6018,-524.4065C1669.1304,-522.4419 2099.9674,-514.0847 2240,-479 2307.5083,-462.086 2382,-482.5949 2382,-413 2382,-413 2382,-413 2382,-122 2382,-89.6653 2379.4755,-52.1547 2377.7016,-29.7876"/>
<polygon fill="#191970" stroke="#191970" points="2381.1698,-29.2576 2376.8597,-19.5791 2374.1935,-29.833 2381.1698,-29.2576"/>
</g>
<!-- Node35&#45;&gt;Node28 -->
<g id="edge70" class="edge">
<title>Node35&#45;&gt;Node28</title>
<path fill="none" stroke="#191970" d="M1493.7554,-520.3123C1594.1423,-513.4355 1765.4924,-499.2016 1825,-479 1870.6874,-463.49 1894.2613,-465.0045 1918,-423 1952.1649,-362.547 1872.6971,-366.2844 1818,-347 1727.4536,-315.0763 1666.9743,-384.3278 1605,-311 1562.4837,-260.6949 1663.2742,-213.3686 1721.7891,-191.1837"/>
<polygon fill="#191970" stroke="#191970" points="1723.324,-194.3475 1731.4841,-187.5902 1720.8911,-187.7839 1723.324,-194.3475"/>
</g>
<!-- Node36 -->
<g id="node37" class="node">
<title>Node36</title>
<g id="a_node37"><a xlink:href="VectorDynSize_8h.html" target="_top" xlink:title="iDynTree/Core/VectorDynSize.h">
<polygon fill="none" stroke="#000000" points="1983.5,-112.5 1983.5,-131.5 2150.5,-131.5 2150.5,-112.5 1983.5,-112.5"/>
<text text-anchor="middle" x="2067" y="-119.5" font-family="FreeSans.ttf" font-size="10.00" fill="#000000">iDynTree/Core/VectorDynSize.h</text>
</a>
</g>
</g>
<!-- Node35&#45;&gt;Node36 -->
<g id="edge74" class="edge">
<title>Node35&#45;&gt;Node36</title>
<path fill="none" stroke="#191970" d="M1493.7785,-523.7529C1714.9344,-519.1165 2344,-498.421 2344,-413 2344,-413 2344,-413 2344,-234 2344,-187.5506 2208.4361,-151.2777 2126.9816,-133.6753"/>
<polygon fill="#191970" stroke="#191970" points="2127.3512,-130.1757 2116.842,-131.5199 2125.8956,-137.0228 2127.3512,-130.1757"/>
</g>
<!-- Node35&#45;&gt;Node37 -->
<g id="edge77" class="edge">
<title>Node35&#45;&gt;Node37</title>
<path fill="none" stroke="#191970" d="M1420.0902,-515.2455C1421.6561,-507.9382 1423.8512,-497.6944 1425.7776,-488.7046"/>
<polygon fill="#191970" stroke="#191970" points="1429.2607,-489.1541 1427.9337,-478.6427 1422.416,-487.6873 1429.2607,-489.1541"/>
</g>
<!-- Node39 -->
<g id="node40" class="node">
<title>Node39</title>
<g id="a_node40"><a xlink:href="Indices_8h.html" target="_top" xlink:title="iDynTree/Model/Indices.h">
<polygon fill="none" stroke="#000000" points="1671,-347.5 1671,-366.5 1809,-366.5 1809,-347.5 1671,-347.5"/>
<text text-anchor="middle" x="1740" y="-354.5" font-family="FreeSans.ttf" font-size="10.00" fill="#000000">iDynTree/Model/Indices.h</text>
</a>
</g>
</g>
<!-- Node35&#45;&gt;Node39 -->
<g id="edge98" class="edge">
<title>Node35&#45;&gt;Node39</title>
<path fill="none" stroke="#191970" d="M1493.844,-520.2919C1616.6986,-510.9089 1850.5972,-485.1585 1901,-423 1928.7631,-388.7616 1872.5692,-372.1116 1819.1081,-364.1233"/>
<polygon fill="#191970" stroke="#191970" points="1819.5677,-360.6536 1809.1784,-362.7302 1818.5951,-367.5857 1819.5677,-360.6536"/>
</g>
<!-- Node36&#45;&gt;Node3 -->
<g id="edge76" class="edge">
<title>Node36&#45;&gt;Node3</title>
<path fill="none" stroke="#191970" d="M1983.0776,-117.9275C1749.3249,-106.5842 1097.967,-74.9759 945.3081,-67.5678"/>
<polygon fill="#191970" stroke="#191970" points="945.349,-64.0658 935.1911,-67.0769 945.0097,-71.0575 945.349,-64.0658"/>
</g>
<!-- Node36&#45;&gt;Node14 -->
<g id="edge75" class="edge">
<title>Node36&#45;&gt;Node14</title>
<path fill="none" stroke="#191970" d="M2067,-112.2455C2067,-104.9382 2067,-94.6944 2067,-85.7046"/>
<polygon fill="#191970" stroke="#191970" points="2070.5001,-85.6426 2067,-75.6427 2063.5001,-85.6427 2070.5001,-85.6426"/>
</g>
<!-- Node37&#45;&gt;Node8 -->
<g id="edge97" class="edge">
<title>Node37&#45;&gt;Node8</title>
<path fill="none" stroke="#191970" d="M1363.2792,-465.2852C1308.5568,-460.3986 1229.9682,-449.1002 1166,-423 1136.5493,-410.9836 1107.0537,-388.8234 1088.6826,-373.5173"/>
<polygon fill="#191970" stroke="#191970" points="1090.4862,-370.4555 1080.6066,-366.6285 1085.9433,-375.7811 1090.4862,-370.4555"/>
</g>
<!-- Node37&#45;&gt;Node32 -->
<g id="edge89" class="edge">
<title>Node37&#45;&gt;Node32</title>
<path fill="none" stroke="#191970" d="M1470.8376,-459.4905C1507.3815,-449.0005 1552.3003,-429.959 1532,-403 1520.7083,-388.0045 1479.6837,-376.3837 1442.0056,-368.5735"/>
<polygon fill="#191970" stroke="#191970" points="1442.5012,-365.1033 1432.0085,-366.5713 1441.1265,-371.967 1442.5012,-365.1033"/>
</g>
<!-- Node38 -->
<g id="node39" class="node">
<title>Node38</title>
<g id="a_node39"><a xlink:href="IJoint_8h.html" target="_top" xlink:title="iDynTree/Model/IJoint.h">
<polygon fill="none" stroke="#000000" points="1584,-403.5 1584,-422.5 1712,-422.5 1712,-403.5 1584,-403.5"/>
<text text-anchor="middle" x="1648" y="-410.5" font-family="FreeSans.ttf" font-size="10.00" fill="#000000">iDynTree/Model/IJoint.h</text>
</a>
</g>
</g>
<!-- Node37&#45;&gt;Node38 -->
<g id="edge78" class="edge">
<title>Node37&#45;&gt;Node38</title>
<path fill="none" stroke="#191970" d="M1467.4755,-459.3733C1504.5103,-449.8598 1561.2682,-435.2797 1601.2361,-425.0127"/>
<polygon fill="#191970" stroke="#191970" points="1602.1988,-428.3792 1611.0135,-422.5011 1600.4571,-421.5993 1602.1988,-428.3792"/>
</g>
<!-- Node37&#45;&gt;Node39 -->
<g id="edge90" class="edge">
<title>Node37&#45;&gt;Node39</title>
<path fill="none" stroke="#191970" d="M1496.7604,-466.588C1572.1658,-462.4975 1688.6107,-451.6167 1721,-423 1733.9595,-411.55 1738.3333,-391.8905 1739.69,-376.9983"/>
<polygon fill="#191970" stroke="#191970" points="1743.1987,-376.9252 1740.2317,-366.7543 1736.2085,-376.5555 1743.1987,-376.9252"/>
</g>
<!-- Node40 -->
<g id="node41" class="node">
<title>Node40</title>
<g id="a_node41"><a xlink:href="Link_8h.html" target="_top" xlink:title="iDynTree/Model/Link.h">
<polygon fill="none" stroke="#000000" points="1768,-403.5 1768,-422.5 1892,-422.5 1892,-403.5 1768,-403.5"/>
<text text-anchor="middle" x="1830" y="-410.5" font-family="FreeSans.ttf" font-size="10.00" fill="#000000">iDynTree/Model/Link.h</text>
</a>
</g>
</g>
<!-- Node37&#45;&gt;Node40 -->
<g id="edge81" class="edge">
<title>Node37&#45;&gt;Node40</title>
<path fill="none" stroke="#191970" d="M1496.5009,-459.6899C1568.6394,-449.5905 1683.4228,-433.5208 1757.7399,-423.1164"/>
<polygon fill="#191970" stroke="#191970" points="1758.531,-426.5399 1767.9492,-421.6871 1757.5604,-419.6075 1758.531,-426.5399"/>
</g>
<!-- Node51 -->
<g id="node47" class="node">
<title>Node51</title>
<g id="a_node47"><a xlink:href="SolidShapes_8h.html" target="_top" xlink:title="iDynTree/Model/SolidShapes.h">
<polygon fill="none" stroke="#000000" points="1174.5,-403.5 1174.5,-422.5 1337.5,-422.5 1337.5,-403.5 1174.5,-403.5"/>
<text text-anchor="middle" x="1256" y="-410.5" font-family="FreeSans.ttf" font-size="10.00" fill="#000000">iDynTree/Model/SolidShapes.h</text>
</a>
</g>
</g>
<!-- Node37&#45;&gt;Node51 -->
<g id="edge91" class="edge">
<title>Node37&#45;&gt;Node51</title>
<path fill="none" stroke="#191970" d="M1400.0883,-459.3733C1371.1548,-450.0613 1327.1389,-435.8953 1295.3707,-425.671"/>
<polygon fill="#191970" stroke="#191970" points="1296.1128,-422.2331 1285.5213,-422.5011 1293.9682,-428.8965 1296.1128,-422.2331"/>
</g>
<!-- Node52 -->
<g id="node48" class="node">
<title>Node52</title>
<polygon fill="none" stroke="#bfbfbf" points="1231.5,-347.5 1231.5,-366.5 1280.5,-366.5 1280.5,-347.5 1231.5,-347.5"/>
<text text-anchor="middle" x="1256" y="-354.5" font-family="FreeSans.ttf" font-size="10.00" fill="#000000">cstdlib</text>
</g>
<!-- Node37&#45;&gt;Node52 -->
<g id="edge96" class="edge">
<title>Node37&#45;&gt;Node52</title>
<path fill="none" stroke="#191970" d="M1419.2637,-459.2768C1403.9402,-445.6829 1374.5907,-420.6814 1347,-403 1328.0108,-390.8308 1305.3833,-379.3808 1287.4422,-370.9483"/>
<polygon fill="#191970" stroke="#191970" points="1288.5558,-367.6072 1278.01,-366.5886 1285.6188,-373.9613 1288.5558,-367.6072"/>
</g>
<!-- Node38&#45;&gt;Node39 -->
<g id="edge79" class="edge">
<title>Node38&#45;&gt;Node39</title>
<path fill="none" stroke="#191970" d="M1664.0252,-403.2455C1678.1408,-394.6534 1698.9263,-382.0014 1715.1899,-372.1018"/>
<polygon fill="#191970" stroke="#191970" points="1717.4363,-374.8319 1724.1585,-366.6427 1713.7966,-368.8525 1717.4363,-374.8319"/>
</g>
<!-- Node39&#45;&gt;Node3 -->
<g id="edge80" class="edge">
<title>Node39&#45;&gt;Node3</title>
<path fill="none" stroke="#191970" d="M1670.5624,-351.6135C1628.8231,-345.9899 1575.8618,-334.4952 1534,-311 1456.9782,-267.7711 1473.2706,-210.7824 1396,-168 1316.9454,-124.2299 1040.4041,-83.3597 945.3648,-70.3108"/>
<polygon fill="#191970" stroke="#191970" points="945.5878,-66.809 935.207,-68.9275 944.6432,-73.7449 945.5878,-66.809"/>
</g>
<!-- Node40&#45;&gt;Node39 -->
<g id="edge88" class="edge">
<title>Node40&#45;&gt;Node39</title>
<path fill="none" stroke="#191970" d="M1814.3232,-403.2455C1800.5144,-394.6534 1780.1807,-382.0014 1764.2708,-372.1018"/>
<polygon fill="#191970" stroke="#191970" points="1765.8368,-368.954 1755.4972,-366.6427 1762.1387,-374.8974 1765.8368,-368.954"/>
</g>
<!-- Node41 -->
<g id="node42" class="node">
<title>Node41</title>
<g id="a_node42"><a xlink:href="SpatialInertia_8h.html" target="_top" xlink:title="iDynTree/Core/SpatialInertia.h">
<polygon fill="none" stroke="#ff0000" points="1920,-347.5 1920,-366.5 2082,-366.5 2082,-347.5 1920,-347.5"/>
<text text-anchor="middle" x="2001" y="-354.5" font-family="FreeSans.ttf" font-size="10.00" fill="#000000">iDynTree/Core/SpatialInertia.h</text>
</a>
</g>
</g>
<!-- Node40&#45;&gt;Node41 -->
<g id="edge82" class="edge">
<title>Node40&#45;&gt;Node41</title>
<path fill="none" stroke="#191970" d="M1859.3959,-403.3733C1887.8307,-394.0613 1931.0877,-379.8953 1962.3081,-369.671"/>
<polygon fill="#191970" stroke="#191970" points="1963.5736,-372.9396 1971.9876,-366.5011 1961.395,-366.2872 1963.5736,-372.9396"/>
</g>
<!-- Node41&#45;&gt;Node11 -->
<g id="edge84" class="edge">
<title>Node41&#45;&gt;Node11</title>
<path fill="none" stroke="#191970" d="M2082.283,-349.2972C2162.084,-340.8945 2273.7499,-326.5515 2287,-311 2295.9354,-300.5126 2295.2863,-291.0074 2287,-280 2230.2972,-204.6769 1955.0286,-154.09 1817.101,-133.0412"/>
<polygon fill="#191970" stroke="#191970" points="1817.4204,-129.5498 1807.0097,-131.5165 1816.3746,-136.4712 1817.4204,-129.5498"/>
</g>
<!-- Node42 -->
<g id="node43" class="node">
<title>Node42</title>
<g id="a_node43"><a xlink:href="SpatialInertiaRaw_8h.html" target="_top" xlink:title="iDynTree/Core/SpatialInertia\lRaw.h">
<polygon fill="none" stroke="#ff0000" points="2124.5,-280.5 2124.5,-310.5 2277.5,-310.5 2277.5,-280.5 2124.5,-280.5"/>
<text text-anchor="start" x="2132.5" y="-298.5" font-family="FreeSans.ttf" font-size="10.00" fill="#000000">iDynTree/Core/SpatialInertia</text>
<text text-anchor="middle" x="2201" y="-287.5" font-family="FreeSans.ttf" font-size="10.00" fill="#000000">Raw.h</text>
</a>
</g>
</g>
<!-- Node41&#45;&gt;Node42 -->
<g id="edge83" class="edge">
<title>Node41&#45;&gt;Node42</title>
<path fill="none" stroke="#191970" d="M2032.25,-347.3906C2061.5732,-338.3737 2106.1826,-324.6563 2142.1721,-313.5896"/>
<polygon fill="#191970" stroke="#191970" points="2143.5449,-316.8292 2152.0745,-310.5446 2141.4874,-310.1384 2143.5449,-316.8292"/>
</g>
<!-- Node44 -->
<g id="node44" class="node">
<title>Node44</title>
<g id="a_node44"><a xlink:href="Twist_8h.html" target="_top" xlink:title="iDynTree/Core/Twist.h">
<polygon fill="none" stroke="#ff0000" points="1614,-286 1614,-305 1736,-305 1736,-286 1614,-286"/>
<text text-anchor="middle" x="1675" y="-293" font-family="FreeSans.ttf" font-size="10.00" fill="#000000">iDynTree/Core/Twist.h</text>
</a>
</g>
</g>
<!-- Node41&#45;&gt;Node44 -->
<g id="edge85" class="edge">
<title>Node41&#45;&gt;Node44</title>
<path fill="none" stroke="#191970" d="M1944.1896,-347.4647C1892.2306,-338.584 1813.2947,-324.6913 1745,-311 1739.1362,-309.8245 1733.0077,-308.5442 1726.9205,-307.2399"/>
<polygon fill="#191970" stroke="#191970" points="1727.2839,-303.7374 1716.769,-305.0365 1725.7991,-310.5781 1727.2839,-303.7374"/>
</g>
<!-- Node47 -->
<g id="node45" class="node">
<title>Node47</title>
<g id="a_node45"><a xlink:href="SpatialMomentum_8h.html" target="_top" xlink:title="iDynTree/Core/SpatialMomentum.h">
<polygon fill="none" stroke="#ff0000" points="1754,-286 1754,-305 1940,-305 1940,-286 1754,-286"/>
<text text-anchor="middle" x="1847" y="-293" font-family="FreeSans.ttf" font-size="10.00" fill="#000000">iDynTree/Core/SpatialMomentum.h</text>
</a>
</g>
</g>
<!-- Node41&#45;&gt;Node47 -->
<g id="edge86" class="edge">
<title>Node41&#45;&gt;Node47</title>
<path fill="none" stroke="#191970" d="M1976.9375,-347.3906C1950.9444,-337.0103 1909.3522,-320.4004 1880.2453,-308.7766"/>
<polygon fill="#191970" stroke="#191970" points="1881.4785,-305.5003 1870.8935,-305.0419 1878.8823,-312.0011 1881.4785,-305.5003"/>
</g>
<!-- Node49 -->
<g id="node46" class="node">
<title>Node49</title>
<g id="a_node46"><a xlink:href="SpatialAcc_8h.html" target="_top" xlink:title="iDynTree/Core/SpatialAcc.h">
<polygon fill="none" stroke="#ff0000" points="1958,-286 1958,-305 2106,-305 2106,-286 1958,-286"/>
<text text-anchor="middle" x="2032" y="-293" font-family="FreeSans.ttf" font-size="10.00" fill="#000000">iDynTree/Core/SpatialAcc.h</text>
</a>
</g>
</g>
<!-- Node41&#45;&gt;Node49 -->
<g id="edge87" class="edge">
<title>Node41&#45;&gt;Node49</title>
<path fill="none" stroke="#191970" d="M2005.8438,-347.3906C2010.2766,-338.5965 2016.9631,-325.3312 2022.4659,-314.4145"/>
<polygon fill="#191970" stroke="#191970" points="2025.7122,-315.75 2027.088,-305.2449 2019.4614,-312.5992 2025.7122,-315.75"/>
</g>
<!-- Node51&#45;&gt;Node3 -->
<g id="edge93" class="edge">
<title>Node51&#45;&gt;Node3</title>
<path fill="none" stroke="#191970" d="M1174.4365,-406.8941C1076.2768,-398.8611 921.9466,-383.7814 901,-367 874.6109,-345.8583 875,-329.3136 875,-295.5 875,-295.5 875,-295.5 875,-178 875,-143.6118 891.2634,-106.2832 902.511,-84.5791"/>
<polygon fill="#191970" stroke="#191970" points="905.7317,-85.9804 907.393,-75.5166 899.569,-82.6605 905.7317,-85.9804"/>
</g>
<!-- Node51&#45;&gt;Node8 -->
<g id="edge94" class="edge">
<title>Node51&#45;&gt;Node8</title>
<path fill="none" stroke="#191970" d="M1224.0255,-403.3733C1190.4211,-393.2558 1137.7843,-377.4082 1103.5862,-367.112"/>
<polygon fill="#191970" stroke="#191970" points="1104.1909,-363.6389 1093.6064,-364.1073 1102.1728,-370.3417 1104.1909,-363.6389"/>
</g>
<!-- Node51&#45;&gt;Node32 -->
<g id="edge95" class="edge">
<title>Node51&#45;&gt;Node32</title>
<path fill="none" stroke="#191970" d="M1275.9411,-403.3733C1294.4786,-394.4241 1322.3028,-380.9917 1343.2413,-370.8835"/>
<polygon fill="#191970" stroke="#191970" points="1344.8352,-374.0006 1352.3191,-366.5011 1341.7919,-367.6967 1344.8352,-374.0006"/>
</g>
<!-- Node51&#45;&gt;Node52 -->
<g id="edge92" class="edge">
<title>Node51&#45;&gt;Node52</title>
<path fill="none" stroke="#191970" d="M1256,-403.2455C1256,-395.9382 1256,-385.6944 1256,-376.7046"/>
<polygon fill="#191970" stroke="#191970" points="1259.5001,-376.6426 1256,-366.6427 1252.5001,-376.6427 1259.5001,-376.6426"/>
</g>
<!-- Node53&#45;&gt;Node2 -->
<g id="edge108" class="edge">
<title>Node53&#45;&gt;Node2</title>
<path fill="none" stroke="#191970" d="M422.4558,-515.4862C440.7886,-488.4695 493.3975,-410.9405 517.5753,-375.3102"/>
<polygon fill="#191970" stroke="#191970" points="520.6122,-377.0679 523.3311,-366.8279 514.8199,-373.1374 520.6122,-377.0679"/>
</g>
<!-- Node53&#45;&gt;Node3 -->
<g id="edge109" class="edge">
<title>Node53&#45;&gt;Node3</title>
<path fill="none" stroke="#191970" d="M367.936,-517.0616C330.4623,-509.8824 277.6364,-497.5605 234,-479 139.5784,-438.8383 38,-459.608 38,-357 38,-357 38,-357 38,-178 38,-91.2622 723.2292,-70.3306 880.9139,-66.6621"/>
<polygon fill="#191970" stroke="#191970" points="881.0146,-70.1608 890.933,-66.436 880.8566,-63.1626 881.0146,-70.1608"/>
</g>
<!-- Node53&#45;&gt;Node5 -->
<g id="edge104" class="edge">
<title>Node53&#45;&gt;Node5</title>
<path fill="none" stroke="#191970" d="M413.4868,-515.1594C409.6036,-501.4261 401.0853,-476.26 387,-459 376.731,-446.4165 362.1976,-435.6946 349.4767,-427.7759"/>
<polygon fill="#191970" stroke="#191970" points="351.0068,-424.6139 340.6212,-422.5187 347.4334,-430.6332 351.0068,-424.6139"/>
</g>
<!-- Node53&#45;&gt;Node7 -->
<g id="edge110" class="edge">
<title>Node53&#45;&gt;Node7</title>
<path fill="none" stroke="#191970" d="M367.6589,-516.8357C336.2339,-510.0394 295.2604,-498.2821 263,-479 218.3662,-452.3223 181.2027,-402.1064 163.3694,-375.1683"/>
<polygon fill="#191970" stroke="#191970" points="166.2553,-373.1855 157.8871,-366.6874 160.3766,-376.9857 166.2553,-373.1855"/>
</g>
<!-- Node53&#45;&gt;Node8 -->
<g id="edge111" class="edge">
<title>Node53&#45;&gt;Node8</title>
<path fill="none" stroke="#191970" d="M464.0823,-520.7953C513.3505,-515.3348 591.5126,-503.4423 655,-479 671.0049,-472.8382 672.0419,-465.2818 688,-459 761.0779,-430.2334 785.014,-442.85 861,-423 923.9207,-406.5631 995.9804,-382.6567 1036.9326,-368.5801"/>
<polygon fill="#191970" stroke="#191970" points="1038.0959,-371.8813 1046.4054,-365.3084 1035.8106,-365.2648 1038.0959,-371.8813"/>
</g>
<!-- Node53&#45;&gt;Node32 -->
<g id="edge106" class="edge">
<title>Node53&#45;&gt;Node32</title>
<path fill="none" stroke="#191970" d="M464.018,-521.5713C652.9494,-507.8625 1336.3606,-456.1361 1368,-423 1379.4973,-410.9588 1379.2513,-391.378 1376.8778,-376.665"/>
<polygon fill="#191970" stroke="#191970" points="1380.2448,-375.6613 1374.8072,-366.5683 1373.3875,-377.0676 1380.2448,-375.6613"/>
</g>
<!-- Node53&#45;&gt;Node33 -->
<g id="edge105" class="edge">
<title>Node53&#45;&gt;Node33</title>
<path fill="none" stroke="#191970" d="M400.149,-515.2455C386.1868,-506.6534 365.6272,-494.0014 349.5404,-484.1018"/>
<polygon fill="#191970" stroke="#191970" points="351.0203,-480.9029 340.6693,-478.6427 347.3516,-486.8645 351.0203,-480.9029"/>
</g>
<!-- Node53&#45;&gt;Node51 -->
<g id="edge107" class="edge">
<title>Node53&#45;&gt;Node51</title>
<path fill="none" stroke="#191970" d="M464.3143,-517.7404C518.8243,-509.3385 610.0516,-494.6399 688,-479 726.4754,-471.2802 735.2705,-465.3226 774,-459 908.8135,-436.9918 1066.6871,-424.389 1164.0258,-418.1189"/>
<polygon fill="#191970" stroke="#191970" points="1164.371,-421.6042 1174.1289,-417.4769 1163.927,-414.6183 1164.371,-421.6042"/>
</g>
<!-- Node54&#45;&gt;Node2 -->
<g id="edge115" class="edge">
<title>Node54&#45;&gt;Node2</title>
<path fill="none" stroke="#191970" d="M910.8984,-571.375C848.2594,-536.1209 631.1046,-413.9031 555.8869,-371.5695"/>
<polygon fill="#191970" stroke="#191970" points="557.4691,-368.4438 547.0378,-366.5891 554.0358,-374.544 557.4691,-368.4438"/>
</g>
<!-- Node54&#45;&gt;Node3 -->
<g id="edge116" class="edge">
<title>Node54&#45;&gt;Node3</title>
<path fill="none" stroke="#191970" d="M922.2906,-571.3029C897.3252,-528.5441 799,-356.2817 799,-295.5 799,-295.5 799,-295.5 799,-178 799,-131.4628 847.9383,-97.828 881.6864,-80.1659"/>
<polygon fill="#191970" stroke="#191970" points="883.3862,-83.2289 890.749,-75.6105 880.2424,-76.9746 883.3862,-83.2289"/>
</g>
<!-- Node54&#45;&gt;Node8 -->
<g id="edge117" class="edge">
<title>Node54&#45;&gt;Node8</title>
<path fill="none" stroke="#191970" d="M934.1016,-571.375C955.8585,-537.0543 1029.8635,-420.3139 1058.5278,-375.097"/>
<polygon fill="#191970" stroke="#191970" points="1061.5231,-376.909 1063.9212,-366.5891 1055.6109,-373.1611 1061.5231,-376.909"/>
</g>
<!-- Node54&#45;&gt;Node35 -->
<g id="edge114" class="edge">
<title>Node54&#45;&gt;Node35</title>
<path fill="none" stroke="#191970" d="M1011.3994,-571.4686C1100.7065,-561.2621 1241.7252,-545.1457 1332.0154,-534.8268"/>
<polygon fill="#191970" stroke="#191970" points="1332.6848,-538.2732 1342.2227,-533.6603 1331.89,-531.3184 1332.6848,-538.2732"/>
</g>
<!-- Node54&#45;&gt;Node37 -->
<g id="edge113" class="edge">
<title>Node54&#45;&gt;Node37</title>
<path fill="none" stroke="#191970" d="M970.8002,-571.4509C1062.4931,-550.9936 1277.6433,-502.9919 1377.4435,-480.7258"/>
<polygon fill="#191970" stroke="#191970" points="1378.3102,-484.1185 1387.3081,-478.5249 1376.7859,-477.2865 1378.3102,-484.1185"/>
</g>
</g>
</svg>
