<?xml version="1.0" encoding="UTF-8" standalone="no"?>
<!DOCTYPE svg PUBLIC "-//W3C//DTD SVG 1.1//EN"
 "http://www.w3.org/Graphics/SVG/1.1/DTD/svg11.dtd">
<!-- Generated by graphviz version 2.40.1 (20161225.0304)
 -->
<!-- Title: urdf2dh.cpp Pages: 1 -->
<svg width="3184pt" height="699pt"
 viewBox="0.00 0.00 3183.99 699.00" xmlns="http://www.w3.org/2000/svg" xmlns:xlink="http://www.w3.org/1999/xlink">
<g id="graph0" class="graph" transform="scale(1 1) rotate(0) translate(4 695)">
<title>urdf2dh.cpp</title>
<!-- Node0 -->
<g id="node1" class="node">
<title>Node0</title>
<polygon fill="#bfbfbf" stroke="#000000" points="2557.9883,-671.5 2557.9883,-690.5 2631.9883,-690.5 2631.9883,-671.5 2557.9883,-671.5"/>
<text text-anchor="middle" x="2594.9883" y="-678.5" font-family="FreeSans.ttf" font-size="10.00" fill="#000000">urdf2dh.cpp</text>
</g>
<!-- Node1 -->
<g id="node2" class="node">
<title>Node1</title>
<polygon fill="none" stroke="#bfbfbf" points="557.9883,-224.5 557.9883,-243.5 617.9883,-243.5 617.9883,-224.5 557.9883,-224.5"/>
<text text-anchor="middle" x="587.9883" y="-231.5" font-family="FreeSans.ttf" font-size="10.00" fill="#000000">iostream</text>
</g>
<!-- Node0&#45;&gt;Node1 -->
<g id="edge1" class="edge">
<title>Node0&#45;&gt;Node1</title>
<path fill="none" stroke="#191970" d="M2557.8574,-680.4874C2330.7262,-677.2888 1126.4504,-659.4099 757.9883,-635 609.9043,-625.1897 93.9883,-711.9086 93.9883,-563.5 93.9883,-563.5 93.9883,-563.5 93.9883,-429.5 93.9883,-385.1841 113.7531,-372.5129 149.9883,-347 215.1293,-301.1347 452.1414,-256.9908 547.6722,-240.6496"/>
<polygon fill="#191970" stroke="#191970" points="548.5293,-244.0543 557.8028,-238.9304 547.3581,-237.1529 548.5293,-244.0543"/>
</g>
<!-- Node2 -->
<g id="node3" class="node">
<title>Node2</title>
<polygon fill="none" stroke="#bfbfbf" points="2998.4883,-615.5 2998.4883,-634.5 3053.4883,-634.5 3053.4883,-615.5 2998.4883,-615.5"/>
<text text-anchor="middle" x="3025.9883" y="-622.5" font-family="FreeSans.ttf" font-size="10.00" fill="#000000">fstream</text>
</g>
<!-- Node0&#45;&gt;Node2 -->
<g id="edge2" class="edge">
<title>Node0&#45;&gt;Node2</title>
<path fill="none" stroke="#191970" d="M2632.2073,-678.0469C2701.7008,-672.2128 2855.7637,-657.767 2983.9883,-635 2985.2752,-634.7715 2986.5816,-634.5277 2987.899,-634.2718"/>
<polygon fill="#191970" stroke="#191970" points="2989.0074,-637.6151 2998.0686,-632.1248 2987.5613,-630.7661 2989.0074,-637.6151"/>
</g>
<!-- Node3 -->
<g id="node4" class="node">
<title>Node3</title>
<g id="a_node4"><a xlink:href="TestUtils_8h.html" target="_top" xlink:title="iDynTree/Core/TestUtils.h">
<polygon fill="none" stroke="#000000" points="576.4883,-420 576.4883,-439 715.4883,-439 715.4883,-420 576.4883,-420"/>
<text text-anchor="middle" x="645.9883" y="-427" font-family="FreeSans.ttf" font-size="10.00" fill="#000000">iDynTree/Core/TestUtils.h</text>
</a>
</g>
</g>
<!-- Node0&#45;&gt;Node3 -->
<g id="edge3" class="edge">
<title>Node0&#45;&gt;Node3</title>
<path fill="none" stroke="#191970" d="M2557.8762,-679.5824C2381.2921,-672.3195 1609.0622,-634.7168 989.9883,-512 882.4819,-490.6894 757.6993,-459.0006 691.9663,-441.7578"/>
<polygon fill="#191970" stroke="#191970" points="692.4967,-438.2783 681.9353,-439.1183 690.7154,-445.0478 692.4967,-438.2783"/>
</g>
<!-- Node13 -->
<g id="node14" class="node">
<title>Node13</title>
<g id="a_node14"><a xlink:href="DenavitHartenberg_8h.html" target="_top" xlink:title="iDynTree/Model/DenavitHartenberg.h">
<polygon fill="none" stroke="#000000" points="2225.4883,-554 2225.4883,-573 2422.4883,-573 2422.4883,-554 2225.4883,-554"/>
<text text-anchor="middle" x="2323.9883" y="-561" font-family="FreeSans.ttf" font-size="10.00" fill="#000000">iDynTree/Model/DenavitHartenberg.h</text>
</a>
</g>
</g>
<!-- Node0&#45;&gt;Node13 -->
<g id="edge15" class="edge">
<title>Node0&#45;&gt;Node13</title>
<path fill="none" stroke="#191970" d="M2572.8112,-671.3845C2524.7529,-650.5474 2410.8761,-601.1728 2355.4217,-577.1289"/>
<polygon fill="#191970" stroke="#191970" points="2356.6588,-573.8505 2346.0917,-573.0836 2353.8742,-580.2728 2356.6588,-573.8505"/>
</g>
<!-- Node47 -->
<g id="node29" class="node">
<title>Node47</title>
<g id="a_node29"><a xlink:href="ModelTestUtils_8h.html" target="_top" xlink:title="iDynTree/Model/ModelTest\lUtils.h">
<polygon fill="none" stroke="#000000" points="1424.4883,-548.5 1424.4883,-578.5 1567.4883,-578.5 1567.4883,-548.5 1424.4883,-548.5"/>
<text text-anchor="start" x="1432.4883" y="-566.5" font-family="FreeSans.ttf" font-size="10.00" fill="#000000">iDynTree/Model/ModelTest</text>
<text text-anchor="middle" x="1495.9883" y="-555.5" font-family="FreeSans.ttf" font-size="10.00" fill="#000000">Utils.h</text>
</a>
</g>
</g>
<!-- Node0&#45;&gt;Node47 -->
<g id="edge56" class="edge">
<title>Node0&#45;&gt;Node47</title>
<path fill="none" stroke="#191970" d="M2557.7929,-677.0232C2401.9441,-660.3606 1799.3521,-595.9343 1578.0806,-572.2769"/>
<polygon fill="#191970" stroke="#191970" points="1578.1508,-568.7646 1567.8354,-571.1816 1577.4066,-575.7249 1578.1508,-568.7646"/>
</g>
<!-- Node58 -->
<g id="node43" class="node">
<title>Node58</title>
<g id="a_node43"><a xlink:href="ModelLoader_8h.html" target="_top" xlink:title="iDynTree/ModelIO/ModelLoader.h">
<polygon fill="none" stroke="#000000" points="2597.9883,-615.5 2597.9883,-634.5 2773.9883,-634.5 2773.9883,-615.5 2597.9883,-615.5"/>
<text text-anchor="middle" x="2685.9883" y="-622.5" font-family="FreeSans.ttf" font-size="10.00" fill="#000000">iDynTree/ModelIO/ModelLoader.h</text>
</a>
</g>
</g>
<!-- Node0&#45;&gt;Node58 -->
<g id="edge102" class="edge">
<title>Node0&#45;&gt;Node58</title>
<path fill="none" stroke="#191970" d="M2610.8393,-671.2455C2624.8015,-662.6534 2645.3611,-650.0014 2661.4479,-640.1018"/>
<polygon fill="#191970" stroke="#191970" points="2663.6367,-642.8645 2670.319,-634.6427 2659.968,-636.9029 2663.6367,-642.8645"/>
</g>
<!-- Node61 -->
<g id="node46" class="node">
<title>Node61</title>
<g id="a_node46"><a xlink:href="KinDynComputations_8h.html" target="_top" xlink:title="iDynTree/KinDynComputations.h">
<polygon fill="none" stroke="#000000" points="292.4883,-487 292.4883,-506 467.4883,-506 467.4883,-487 292.4883,-487"/>
<text text-anchor="middle" x="379.9883" y="-494" font-family="FreeSans.ttf" font-size="10.00" fill="#000000">iDynTree/KinDynComputations.h</text>
</a>
</g>
</g>
<!-- Node0&#45;&gt;Node61 -->
<g id="edge115" class="edge">
<title>Node0&#45;&gt;Node61</title>
<path fill="none" stroke="#191970" d="M2557.7418,-680.5866C2320.9859,-677.8827 1030.2502,-661.9882 856.9883,-635 686.765,-608.4851 491.7251,-539.0062 414.2698,-509.7686"/>
<polygon fill="#191970" stroke="#191970" points="415.1522,-506.3599 404.561,-506.0814 412.6669,-512.9038 415.1522,-506.3599"/>
</g>
<!-- Node63 -->
<g id="node48" class="node">
<title>Node63</title>
<g id="a_node48"><a xlink:href="iKinConversions_8h.html" target="_top" xlink:title="iDynTree/iKinConversions.h">
<polygon fill="none" stroke="#000000" points="2791.9883,-615.5 2791.9883,-634.5 2941.9883,-634.5 2941.9883,-615.5 2791.9883,-615.5"/>
<text text-anchor="middle" x="2866.9883" y="-622.5" font-family="FreeSans.ttf" font-size="10.00" fill="#000000">iDynTree/iKinConversions.h</text>
</a>
</g>
</g>
<!-- Node0&#45;&gt;Node63 -->
<g id="edge125" class="edge">
<title>Node0&#45;&gt;Node63</title>
<path fill="none" stroke="#191970" d="M2632.2384,-673.3309C2678.3018,-663.8472 2757.157,-647.6123 2810.6376,-636.6016"/>
<polygon fill="#191970" stroke="#191970" points="2811.5574,-639.9857 2820.6462,-634.541 2810.1458,-633.1295 2811.5574,-639.9857"/>
</g>
<!-- Node64 -->
<g id="node49" class="node">
<title>Node64</title>
<polygon fill="none" stroke="#bfbfbf" points="3017.9883,-554 3017.9883,-573 3127.9883,-573 3127.9883,-554 3017.9883,-554"/>
<text text-anchor="middle" x="3072.9883" y="-561" font-family="FreeSans.ttf" font-size="10.00" fill="#000000">iCub/iKin/iKinFwd.h</text>
</g>
<!-- Node0&#45;&gt;Node64 -->
<g id="edge128" class="edge">
<title>Node0&#45;&gt;Node64</title>
<path fill="none" stroke="#191970" d="M2632.24,-678.0833C2711.1158,-671.6 2892.5335,-654.9769 2950.9883,-635 2961.2959,-631.4774 3015.9496,-598.4733 3048.5063,-578.5588"/>
<polygon fill="#191970" stroke="#191970" points="3050.7405,-581.2946 3057.4377,-573.085 3047.0827,-575.3263 3050.7405,-581.2946"/>
</g>
<!-- Node65 -->
<g id="node50" class="node">
<title>Node65</title>
<polygon fill="none" stroke="#bfbfbf" points="3071.9883,-615.5 3071.9883,-634.5 3175.9883,-634.5 3175.9883,-615.5 3071.9883,-615.5"/>
<text text-anchor="middle" x="3123.9883" y="-622.5" font-family="FreeSans.ttf" font-size="10.00" fill="#000000">yarp/os/Property.h</text>
</g>
<!-- Node0&#45;&gt;Node65 -->
<g id="edge129" class="edge">
<title>Node0&#45;&gt;Node65</title>
<path fill="none" stroke="#191970" d="M2632.0891,-678.1719C2709.7457,-672.0764 2895.2947,-656.5922 3061.3728,-635.1416"/>
<polygon fill="#191970" stroke="#191970" points="3062.3134,-638.5487 3071.7776,-633.7865 3061.4093,-631.6074 3062.3134,-638.5487"/>
</g>
<!-- Node3&#45;&gt;Node1 -->
<g id="edge10" class="edge">
<title>Node3&#45;&gt;Node1</title>
<path fill="none" stroke="#191970" d="M643.1121,-419.8051C634.0475,-389.2513 605.9555,-294.5619 593.7488,-253.417"/>
<polygon fill="#191970" stroke="#191970" points="597.0816,-252.3449 590.8819,-243.7534 590.3707,-254.3359 597.0816,-252.3449"/>
</g>
<!-- Node4 -->
<g id="node5" class="node">
<title>Node4</title>
<g id="a_node5"><a xlink:href="MatrixDynSize_8h.html" target="_top" xlink:title="iDynTree/Core/MatrixDynSize.h">
<polygon fill="none" stroke="#000000" points="159.4883,-353 159.4883,-372 326.4883,-372 326.4883,-353 159.4883,-353"/>
<text text-anchor="middle" x="242.9883" y="-360" font-family="FreeSans.ttf" font-size="10.00" fill="#000000">iDynTree/Core/MatrixDynSize.h</text>
</a>
</g>
</g>
<!-- Node3&#45;&gt;Node4 -->
<g id="edge4" class="edge">
<title>Node3&#45;&gt;Node4</title>
<path fill="none" stroke="#191970" d="M588.6762,-419.9717C515.367,-407.7838 388.5865,-386.7062 310.625,-373.7448"/>
<polygon fill="#191970" stroke="#191970" points="310.8672,-370.2371 300.4286,-372.0496 309.7191,-377.1423 310.8672,-370.2371"/>
</g>
<!-- Node5 -->
<g id="node6" class="node">
<title>Node5</title>
<polygon fill="none" stroke="#bfbfbf" points="1550.9883,-56.5 1550.9883,-75.5 1594.9883,-75.5 1594.9883,-56.5 1550.9883,-56.5"/>
<text text-anchor="middle" x="1572.9883" y="-63.5" font-family="FreeSans.ttf" font-size="10.00" fill="#000000">string</text>
</g>
<!-- Node3&#45;&gt;Node5 -->
<g id="edge11" class="edge">
<title>Node3&#45;&gt;Node5</title>
<path fill="none" stroke="#191970" d="M650.0915,-419.9453C657.8393,-402.9649 676.1909,-367.4033 701.9883,-347 935.0779,-162.6485 1041.191,-189.869 1327.9883,-112 1403.1228,-91.6001 1493.6437,-77.1557 1540.8247,-70.3704"/>
<polygon fill="#191970" stroke="#191970" points="1541.3502,-73.8309 1550.7605,-68.963 1540.3685,-66.9001 1541.3502,-73.8309"/>
</g>
<!-- Node6 -->
<g id="node7" class="node">
<title>Node6</title>
<g id="a_node7"><a xlink:href="Utils_8h.html" target="_top" xlink:title="iDynTree/Core/Utils.h">
<polygon fill="none" stroke="#000000" points="919.4883,-56.5 919.4883,-75.5 1038.4883,-75.5 1038.4883,-56.5 919.4883,-56.5"/>
<text text-anchor="middle" x="978.9883" y="-63.5" font-family="FreeSans.ttf" font-size="10.00" fill="#000000">iDynTree/Core/Utils.h</text>
</a>
</g>
</g>
<!-- Node3&#45;&gt;Node6 -->
<g id="edge6" class="edge">
<title>Node3&#45;&gt;Node6</title>
<path fill="none" stroke="#191970" d="M645.9883,-419.7483C645.9883,-397.643 645.9883,-342.0278 645.9883,-295.5 645.9883,-295.5 645.9883,-295.5 645.9883,-178 645.9883,-122.9191 811.7332,-89.8115 909.3564,-75.0883"/>
<polygon fill="#191970" stroke="#191970" points="910.0746,-78.5203 919.4546,-73.5941 909.0499,-71.5957 910.0746,-78.5203"/>
</g>
<!-- Node8 -->
<g id="node9" class="node">
<title>Node8</title>
<polygon fill="none" stroke="#bfbfbf" points="351.9883,-.5 351.9883,-19.5 415.9883,-19.5 415.9883,-.5 351.9883,-.5"/>
<text text-anchor="middle" x="383.9883" y="-7.5" font-family="FreeSans.ttf" font-size="10.00" fill="#000000">algorithm</text>
</g>
<!-- Node3&#45;&gt;Node8 -->
<g id="edge8" class="edge">
<title>Node3&#45;&gt;Node8</title>
<path fill="none" stroke="#191970" d="M591.8427,-419.9614C460.2151,-393.4348 125.3719,-305.074 3.9883,-76 -.1736,-68.1457 -1.9073,-62.6524 3.9883,-56 26.1328,-31.0132 247.6896,-16.9088 341.9246,-11.9993"/>
<polygon fill="#191970" stroke="#191970" points="342.1603,-15.4919 351.9685,-11.4859 341.8028,-8.5011 342.1603,-15.4919"/>
</g>
<!-- Node9 -->
<g id="node10" class="node">
<title>Node9</title>
<polygon fill="none" stroke="#bfbfbf" points="457.9883,-353 457.9883,-372 513.9883,-372 513.9883,-353 457.9883,-353"/>
<text text-anchor="middle" x="485.9883" y="-360" font-family="FreeSans.ttf" font-size="10.00" fill="#000000">iomanip</text>
</g>
<!-- Node3&#45;&gt;Node9 -->
<g id="edge9" class="edge">
<title>Node3&#45;&gt;Node9</title>
<path fill="none" stroke="#191970" d="M623.0642,-419.9005C595.6185,-408.4077 549.4719,-389.0838 518.3895,-376.068"/>
<polygon fill="#191970" stroke="#191970" points="519.4457,-372.7159 508.8699,-372.0817 516.7419,-379.1726 519.4457,-372.7159"/>
</g>
<!-- Node10 -->
<g id="node11" class="node">
<title>Node10</title>
<polygon fill="none" stroke="#bfbfbf" points="1802.4883,-353 1802.4883,-372 1849.4883,-372 1849.4883,-353 1802.4883,-353"/>
<text text-anchor="middle" x="1825.9883" y="-360" font-family="FreeSans.ttf" font-size="10.00" fill="#000000">vector</text>
</g>
<!-- Node3&#45;&gt;Node10 -->
<g id="edge12" class="edge">
<title>Node3&#45;&gt;Node10</title>
<path fill="none" stroke="#191970" d="M715.829,-423.9043C757.6313,-420.6891 811.8281,-416.755 859.9883,-414 1240.5909,-392.2275 1337.3624,-412.8784 1716.9883,-378 1742.3419,-375.6706 1770.8217,-371.5689 1792.3103,-368.1698"/>
<polygon fill="#191970" stroke="#191970" points="1792.937,-371.6141 1802.2533,-366.5685 1791.8239,-364.7031 1792.937,-371.6141"/>
</g>
<!-- Node11 -->
<g id="node12" class="node">
<title>Node11</title>
<polygon fill="none" stroke="#bfbfbf" points="2409.4883,-353 2409.4883,-372 2458.4883,-372 2458.4883,-353 2409.4883,-353"/>
<text text-anchor="middle" x="2433.9883" y="-360" font-family="FreeSans.ttf" font-size="10.00" fill="#000000">cstdlib</text>
</g>
<!-- Node3&#45;&gt;Node11 -->
<g id="edge13" class="edge">
<title>Node3&#45;&gt;Node11</title>
<path fill="none" stroke="#191970" d="M715.8139,-423.6198C757.6109,-420.3052 811.8075,-416.3666 859.9883,-414 1478.1166,-383.6379 1634.0645,-412.273 2251.9883,-378 2303.2847,-375.1549 2362.5452,-369.7032 2399.146,-366.0835"/>
<polygon fill="#191970" stroke="#191970" points="2399.6907,-369.5466 2409.2931,-365.0694 2398.9945,-362.5812 2399.6907,-369.5466"/>
</g>
<!-- Node12 -->
<g id="node13" class="node">
<title>Node12</title>
<polygon fill="none" stroke="#bfbfbf" points="532.4883,-353 532.4883,-372 579.4883,-372 579.4883,-353 532.4883,-353"/>
<text text-anchor="middle" x="555.9883" y="-360" font-family="FreeSans.ttf" font-size="10.00" fill="#000000">cmath</text>
</g>
<!-- Node3&#45;&gt;Node12 -->
<g id="edge14" class="edge">
<title>Node3&#45;&gt;Node12</title>
<path fill="none" stroke="#191970" d="M633.0935,-419.9005C618.5241,-409.0544 594.5861,-391.2339 577.2429,-378.3229"/>
<polygon fill="#191970" stroke="#191970" points="578.9706,-375.2457 568.8592,-372.0817 574.7905,-380.8606 578.9706,-375.2457"/>
</g>
<!-- Node4&#45;&gt;Node5 -->
<g id="edge5" class="edge">
<title>Node4&#45;&gt;Node5</title>
<path fill="none" stroke="#191970" d="M254.0955,-352.7224C283.5074,-327.3645 366.7368,-259.0278 447.9883,-224 603.0324,-157.16 644.8716,-142.1911 810.9883,-112 954.48,-85.9209 1414.4431,-70.6841 1540.6766,-66.9222"/>
<polygon fill="#191970" stroke="#191970" points="1540.9549,-70.4156 1550.8475,-66.6225 1540.7487,-63.4187 1540.9549,-70.4156"/>
</g>
<!-- Node7 -->
<g id="node8" class="node">
<title>Node7</title>
<polygon fill="none" stroke="#bfbfbf" points="925.4883,-.5 925.4883,-19.5 978.4883,-19.5 978.4883,-.5 925.4883,-.5"/>
<text text-anchor="middle" x="951.9883" y="-7.5" font-family="FreeSans.ttf" font-size="10.00" fill="#000000">cstddef</text>
</g>
<!-- Node6&#45;&gt;Node7 -->
<g id="edge7" class="edge">
<title>Node6&#45;&gt;Node7</title>
<path fill="none" stroke="#191970" d="M974.2853,-56.2455C970.6459,-48.6973 965.4959,-38.0158 961.0621,-28.8197"/>
<polygon fill="#191970" stroke="#191970" points="964.1332,-27.1303 956.6374,-19.6427 957.8278,-30.1704 964.1332,-27.1303"/>
</g>
<!-- Node13&#45;&gt;Node10 -->
<g id="edge55" class="edge">
<title>Node13&#45;&gt;Node10</title>
<path fill="none" stroke="#191970" d="M2225.2376,-560.099C2065.3481,-552.2278 1761.2551,-526.6371 1697.9883,-445 1689.5486,-434.1097 1690.2641,-425.4089 1697.9883,-414 1722.1409,-378.3258 1748.0428,-394.1357 1787.9883,-378 1789.6234,-377.3395 1791.2975,-376.6619 1792.9877,-375.9766"/>
<polygon fill="#191970" stroke="#191970" points="1794.7411,-379.042 1802.6868,-372.0337 1792.1049,-372.5574 1794.7411,-379.042"/>
</g>
<!-- Node14 -->
<g id="node15" class="node">
<title>Node14</title>
<g id="a_node15"><a xlink:href="Indices_8h.html" target="_top" xlink:title="iDynTree/Model/Indices.h">
<polygon fill="none" stroke="#000000" points="2010.9883,-286 2010.9883,-305 2148.9883,-305 2148.9883,-286 2010.9883,-286"/>
<text text-anchor="middle" x="2079.9883" y="-293" font-family="FreeSans.ttf" font-size="10.00" fill="#000000">iDynTree/Model/Indices.h</text>
</a>
</g>
</g>
<!-- Node13&#45;&gt;Node14 -->
<g id="edge16" class="edge">
<title>Node13&#45;&gt;Node14</title>
<path fill="none" stroke="#191970" d="M2324.0305,-553.8492C2323.6159,-519.5927 2317.2816,-402.9029 2251.9883,-347 2234.4697,-332.0009 2179.7366,-317.1348 2136.6636,-307.2593"/>
<polygon fill="#191970" stroke="#191970" points="2137.3583,-303.8281 2126.8335,-305.0447 2135.8198,-310.657 2137.3583,-303.8281"/>
</g>
<!-- Node15 -->
<g id="node16" class="node">
<title>Node15</title>
<g id="a_node16"><a xlink:href="Model_8h.html" target="_top" xlink:title="iDynTree/Model/Model.h">
<polygon fill="none" stroke="#000000" points="2477.4883,-487 2477.4883,-506 2610.4883,-506 2610.4883,-487 2477.4883,-487"/>
<text text-anchor="middle" x="2543.9883" y="-494" font-family="FreeSans.ttf" font-size="10.00" fill="#000000">iDynTree/Model/Model.h</text>
</a>
</g>
</g>
<!-- Node13&#45;&gt;Node15 -->
<g id="edge18" class="edge">
<title>Node13&#45;&gt;Node15</title>
<path fill="none" stroke="#191970" d="M2355.5089,-553.9005C2394.2269,-542.1091 2460.0119,-522.0746 2502.7242,-509.0668"/>
<polygon fill="#191970" stroke="#191970" points="2503.9796,-512.3433 2512.5261,-506.0817 2501.9402,-505.6469 2503.9796,-512.3433"/>
</g>
<!-- Node45 -->
<g id="node19" class="node">
<title>Node45</title>
<g id="a_node19"><a xlink:href="Transform_8h.html" target="_top" xlink:title="iDynTree/Core/Transform.h">
<polygon fill="none" stroke="#000000" points="1867.9883,-353 1867.9883,-372 2013.9883,-372 2013.9883,-353 1867.9883,-353"/>
<text text-anchor="middle" x="1940.9883" y="-360" font-family="FreeSans.ttf" font-size="10.00" fill="#000000">iDynTree/Core/Transform.h</text>
</a>
</g>
</g>
<!-- Node13&#45;&gt;Node45 -->
<g id="edge54" class="edge">
<title>Node13&#45;&gt;Node45</title>
<path fill="none" stroke="#191970" d="M2255.7248,-553.9534C2149.2847,-537.5139 1951.6195,-500.2192 1909.9883,-445 1895.1066,-425.2611 1911.3558,-397.5777 1925.3694,-379.8393"/>
<polygon fill="#191970" stroke="#191970" points="1928.189,-381.9236 1931.9231,-372.0086 1922.8209,-377.4309 1928.189,-381.9236"/>
</g>
<!-- Node14&#45;&gt;Node5 -->
<g id="edge17" class="edge">
<title>Node14&#45;&gt;Node5</title>
<path fill="none" stroke="#191970" d="M2072.5661,-285.8308C2047.9621,-254.5628 1965.3223,-155.6864 1871.9883,-112 1825.0301,-90.0205 1672.6554,-74.5826 1605.3983,-68.6697"/>
<polygon fill="#191970" stroke="#191970" points="1605.6281,-65.1766 1595.364,-67.803 1605.0257,-72.1506 1605.6281,-65.1766"/>
</g>
<!-- Node15&#45;&gt;Node10 -->
<g id="edge53" class="edge">
<title>Node15&#45;&gt;Node10</title>
<path fill="none" stroke="#191970" d="M2477.3942,-489.9198C2446.5586,-486.9849 2409.4243,-483.609 2375.9883,-481 2313.3844,-476.115 1854.953,-490.7946 1811.9883,-445 1795.9794,-427.9366 1805.6546,-399.6903 1815.0334,-381.0853"/>
<polygon fill="#191970" stroke="#191970" points="1818.2116,-382.567 1819.9106,-372.1092 1812.0609,-379.2249 1818.2116,-382.567"/>
</g>
<!-- Node15&#45;&gt;Node11 -->
<g id="edge52" class="edge">
<title>Node15&#45;&gt;Node11</title>
<path fill="none" stroke="#191970" d="M2549.6365,-486.938C2558.4934,-470.5608 2573.1513,-436.7163 2557.9883,-414 2538.2788,-384.4723 2498.1342,-371.8505 2468.8442,-366.47"/>
<polygon fill="#191970" stroke="#191970" points="2469.0356,-362.955 2458.6022,-364.7974 2467.9074,-369.8634 2469.0356,-362.955"/>
</g>
<!-- Node15&#45;&gt;Node14 -->
<g id="edge46" class="edge">
<title>Node15&#45;&gt;Node14</title>
<path fill="none" stroke="#191970" d="M2610.6588,-491.9635C2682.1052,-484.432 2780.5242,-464.7368 2742.9883,-414 2682.451,-332.1725 2623.6189,-367.8384 2523.9883,-347 2397.8256,-320.6122 2248.4662,-306.7864 2159.1221,-300.3301"/>
<polygon fill="#191970" stroke="#191970" points="2159.2872,-296.8331 2149.0644,-299.6162 2158.7915,-303.8155 2159.2872,-296.8331"/>
</g>
<!-- Node16 -->
<g id="node17" class="node">
<title>Node16</title>
<g id="a_node17"><a xlink:href="IJoint_8h.html" target="_top" xlink:title="iDynTree/Model/IJoint.h">
<polygon fill="none" stroke="#000000" points="2114.9883,-353 2114.9883,-372 2242.9883,-372 2242.9883,-353 2114.9883,-353"/>
<text text-anchor="middle" x="2178.9883" y="-360" font-family="FreeSans.ttf" font-size="10.00" fill="#000000">iDynTree/Model/IJoint.h</text>
</a>
</g>
</g>
<!-- Node15&#45;&gt;Node16 -->
<g id="edge19" class="edge">
<title>Node15&#45;&gt;Node16</title>
<path fill="none" stroke="#191970" d="M2544.9227,-486.9303C2546.0334,-469.6006 2545.6034,-433.0553 2524.9883,-414 2505.356,-395.8532 2349.0358,-378.3051 2253.3515,-369.1175"/>
<polygon fill="#191970" stroke="#191970" points="2253.4295,-365.6092 2243.1431,-368.1469 2252.7669,-372.5778 2253.4295,-365.6092"/>
</g>
<!-- Node17 -->
<g id="node18" class="node">
<title>Node17</title>
<g id="a_node18"><a xlink:href="Link_8h.html" target="_top" xlink:title="iDynTree/Model/Link.h">
<polygon fill="none" stroke="#ff0000" points="2609.9883,-420 2609.9883,-439 2733.9883,-439 2733.9883,-420 2609.9883,-420"/>
<text text-anchor="middle" x="2671.9883" y="-427" font-family="FreeSans.ttf" font-size="10.00" fill="#000000">iDynTree/Model/Link.h</text>
</a>
</g>
</g>
<!-- Node15&#45;&gt;Node17 -->
<g id="edge21" class="edge">
<title>Node15&#45;&gt;Node17</title>
<path fill="none" stroke="#191970" d="M2562.3276,-486.9005C2583.9039,-475.6067 2619.9274,-456.7506 2644.7649,-443.7497"/>
<polygon fill="#191970" stroke="#191970" points="2646.4465,-446.8201 2653.683,-439.0817 2643.2002,-440.6183 2646.4465,-446.8201"/>
</g>
<!-- Node15&#45;&gt;Node45 -->
<g id="edge23" class="edge">
<title>Node15&#45;&gt;Node45</title>
<path fill="none" stroke="#191970" d="M2477.3749,-490.1554C2446.5353,-487.2692 2409.4033,-483.8662 2375.9883,-481 2325.5706,-476.6754 1956.3265,-482.1689 1921.9883,-445 1905.8511,-427.5326 1917.7015,-399.1902 1928.608,-380.6965"/>
<polygon fill="#191970" stroke="#191970" points="1931.6978,-382.3584 1934.0722,-372.033 1925.7771,-378.6241 1931.6978,-382.3584"/>
</g>
<!-- Node46 -->
<g id="node28" class="node">
<title>Node46</title>
<g id="a_node28"><a xlink:href="SolidShapes_8h.html" target="_top" xlink:title="iDynTree/Model/SolidShapes.h">
<polygon fill="none" stroke="#000000" points="2352.4883,-420 2352.4883,-439 2515.4883,-439 2515.4883,-420 2352.4883,-420"/>
<text text-anchor="middle" x="2433.9883" y="-427" font-family="FreeSans.ttf" font-size="10.00" fill="#000000">iDynTree/Model/SolidShapes.h</text>
</a>
</g>
</g>
<!-- Node15&#45;&gt;Node46 -->
<g id="edge47" class="edge">
<title>Node15&#45;&gt;Node46</title>
<path fill="none" stroke="#191970" d="M2528.228,-486.9005C2510.0125,-475.8057 2479.8153,-457.4128 2458.5206,-444.4424"/>
<polygon fill="#191970" stroke="#191970" points="2460.0806,-441.2945 2449.7194,-439.0817 2456.4392,-447.2728 2460.0806,-441.2945"/>
</g>
<!-- Node16&#45;&gt;Node14 -->
<g id="edge20" class="edge">
<title>Node16&#45;&gt;Node14</title>
<path fill="none" stroke="#191970" d="M2164.804,-352.9005C2148.5572,-341.9052 2121.7192,-323.7422 2102.5849,-310.7927"/>
<polygon fill="#191970" stroke="#191970" points="2104.3897,-307.7879 2094.1463,-305.0817 2100.4663,-313.5851 2104.3897,-307.7879"/>
</g>
<!-- Node17&#45;&gt;Node14 -->
<g id="edge22" class="edge">
<title>Node17&#45;&gt;Node14</title>
<path fill="none" stroke="#191970" d="M2653.1348,-419.9843C2617.7854,-402.5757 2538.7236,-365.6757 2467.9883,-347 2363.2973,-319.3592 2238.6095,-306.1751 2159.3797,-300.1598"/>
<polygon fill="#191970" stroke="#191970" points="2159.2195,-296.6385 2148.9888,-299.3923 2158.7038,-303.6195 2159.2195,-296.6385"/>
</g>
<!-- Node45&#45;&gt;Node5 -->
<g id="edge45" class="edge">
<title>Node45&#45;&gt;Node5</title>
<path fill="none" stroke="#191970" d="M1929.0964,-352.9104C1906.1462,-333.238 1857.9883,-285.7883 1857.9883,-234 1857.9883,-234 1857.9883,-234 1857.9883,-178 1857.9883,-124.289 1680.4319,-85.5904 1605.612,-71.6676"/>
<polygon fill="#191970" stroke="#191970" points="1605.8178,-68.1474 1595.3518,-69.7943 1604.5605,-75.0335 1605.8178,-68.1474"/>
</g>
<!-- Node37 -->
<g id="node20" class="node">
<title>Node37</title>
<g id="a_node20"><a xlink:href="Position_8h.html" target="_top" xlink:title="Position.h">
<polygon fill="none" stroke="#ff0000" points="1691.4883,-286 1691.4883,-305 1756.4883,-305 1756.4883,-286 1691.4883,-286"/>
<text text-anchor="middle" x="1723.9883" y="-293" font-family="FreeSans.ttf" font-size="10.00" fill="#000000">Position.h</text>
</a>
</g>
</g>
<!-- Node45&#45;&gt;Node37 -->
<g id="edge24" class="edge">
<title>Node45&#45;&gt;Node37</title>
<path fill="none" stroke="#191970" d="M1909.8975,-352.9005C1871.7075,-341.1091 1806.8196,-321.0746 1764.6897,-308.0668"/>
<polygon fill="#191970" stroke="#191970" points="1765.6089,-304.6876 1755.0214,-305.0817 1763.5438,-311.3761 1765.6089,-304.6876"/>
</g>
<!-- Node39 -->
<g id="node21" class="node">
<title>Node39</title>
<g id="a_node21"><a xlink:href="Rotation_8h.html" target="_top" xlink:title="iDynTree/Core/Rotation.h">
<polygon fill="none" stroke="#ff0000" points="1567.4883,-224.5 1567.4883,-243.5 1704.4883,-243.5 1704.4883,-224.5 1567.4883,-224.5"/>
<text text-anchor="middle" x="1635.9883" y="-231.5" font-family="FreeSans.ttf" font-size="10.00" fill="#000000">iDynTree/Core/Rotation.h</text>
</a>
</g>
</g>
<!-- Node45&#45;&gt;Node39 -->
<g id="edge39" class="edge">
<title>Node45&#45;&gt;Node39</title>
<path fill="none" stroke="#191970" d="M1890.7577,-352.9976C1816.914,-338.9548 1687.2647,-313.9882 1682.9883,-311 1662.7054,-296.827 1649.5565,-270.8199 1642.4614,-252.984"/>
<polygon fill="#191970" stroke="#191970" points="1645.7324,-251.7384 1638.9753,-243.578 1639.1687,-254.1711 1645.7324,-251.7384"/>
</g>
<!-- Node21 -->
<g id="node27" class="node">
<title>Node21</title>
<g id="a_node27"><a xlink:href="MatrixFixSize_8h.html" target="_top" xlink:title="iDynTree/Core/MatrixFixSize.h">
<polygon fill="none" stroke="#ff0000" points="1249.4883,-286 1249.4883,-305 1410.4883,-305 1410.4883,-286 1249.4883,-286"/>
<text text-anchor="middle" x="1329.9883" y="-293" font-family="FreeSans.ttf" font-size="10.00" fill="#000000">iDynTree/Core/MatrixFixSize.h</text>
</a>
</g>
</g>
<!-- Node45&#45;&gt;Node21 -->
<g id="edge40" class="edge">
<title>Node45&#45;&gt;Node21</title>
<path fill="none" stroke="#191970" d="M1894.2766,-352.9198C1882.7729,-350.7681 1870.4623,-348.6396 1858.9883,-347 1705.8971,-325.1241 1526.5314,-309.8188 1420.9055,-301.8567"/>
<polygon fill="#191970" stroke="#191970" points="1421.1506,-298.3654 1410.9172,-301.1092 1420.6281,-305.3458 1421.1506,-298.3654"/>
</g>
<!-- Node37&#45;&gt;Node5 -->
<g id="edge38" class="edge">
<title>Node37&#45;&gt;Node5</title>
<path fill="none" stroke="#191970" d="M1724.3748,-285.7495C1724.5624,-271.5036 1723.4709,-244.4717 1713.9883,-224 1685.6185,-162.7532 1625.4207,-108.0913 1593.6379,-82.07"/>
<polygon fill="#191970" stroke="#191970" points="1595.8262,-79.3384 1585.8411,-75.796 1591.4377,-84.792 1595.8262,-79.3384"/>
</g>
<!-- Node37&#45;&gt;Node39 -->
<g id="edge25" class="edge">
<title>Node37&#45;&gt;Node39</title>
<path fill="none" stroke="#191970" d="M1710.2383,-285.8906C1696.2892,-276.1421 1674.4785,-260.8994 1658.0986,-249.4521"/>
<polygon fill="#191970" stroke="#191970" points="1659.8434,-246.4015 1649.6417,-243.5419 1655.8335,-252.1392 1659.8434,-246.4015"/>
</g>
<!-- Node39&#45;&gt;Node5 -->
<g id="edge26" class="edge">
<title>Node39&#45;&gt;Node5</title>
<path fill="none" stroke="#191970" d="M1632.4206,-224.4862C1622.3756,-197.6994 1593.7095,-121.2565 1580.1991,-85.2289"/>
<polygon fill="#191970" stroke="#191970" points="1583.4622,-83.9622 1576.6738,-75.8279 1576.9079,-86.4201 1583.4622,-83.9622"/>
</g>
<!-- Node35 -->
<g id="node22" class="node">
<title>Node35</title>
<g id="a_node22"><a xlink:href="GeomVector3_8h.html" target="_top" xlink:title="iDynTree/Core/GeomVector3.h">
<polygon fill="none" stroke="#000000" points="1233.4883,-168.5 1233.4883,-187.5 1396.4883,-187.5 1396.4883,-168.5 1233.4883,-168.5"/>
<text text-anchor="middle" x="1314.9883" y="-175.5" font-family="FreeSans.ttf" font-size="10.00" fill="#000000">iDynTree/Core/GeomVector3.h</text>
</a>
</g>
</g>
<!-- Node39&#45;&gt;Node35 -->
<g id="edge27" class="edge">
<title>Node39&#45;&gt;Node35</title>
<path fill="none" stroke="#191970" d="M1581.1712,-224.4369C1525.3112,-214.6918 1438.7062,-199.5832 1379.5578,-189.2645"/>
<polygon fill="#191970" stroke="#191970" points="1380.0321,-185.7944 1369.5793,-187.5237 1378.829,-192.6903 1380.0321,-185.7944"/>
</g>
<!-- Node25 -->
<g id="node23" class="node">
<title>Node25</title>
<g id="a_node23"><a xlink:href="VectorFixSize_8h.html" target="_top" xlink:title="iDynTree/Core/VectorFixSize.h">
<polygon fill="none" stroke="#ff0000" points="820.4883,-112.5 820.4883,-131.5 981.4883,-131.5 981.4883,-112.5 820.4883,-112.5"/>
<text text-anchor="middle" x="900.9883" y="-119.5" font-family="FreeSans.ttf" font-size="10.00" fill="#000000">iDynTree/Core/VectorFixSize.h</text>
</a>
</g>
</g>
<!-- Node39&#45;&gt;Node25 -->
<g id="edge37" class="edge">
<title>Node39&#45;&gt;Node25</title>
<path fill="none" stroke="#191970" d="M1567.3785,-228.2135C1485.5748,-220.8778 1344.8524,-206.8773 1224.9883,-188 1127.5621,-172.6564 1014.9732,-148.1806 951.4557,-133.7413"/>
<polygon fill="#191970" stroke="#191970" points="952.2209,-130.326 941.6928,-131.513 950.6632,-137.1505 952.2209,-130.326"/>
</g>
<!-- Node35&#45;&gt;Node25 -->
<g id="edge28" class="edge">
<title>Node35&#45;&gt;Node25</title>
<path fill="none" stroke="#191970" d="M1244.2896,-168.4369C1171.3528,-158.571 1057.7743,-143.2078 981.4443,-132.8829"/>
<polygon fill="#191970" stroke="#191970" points="981.7744,-129.3958 971.3954,-131.5237 980.836,-136.3326 981.7744,-129.3958"/>
</g>
<!-- Node25&#45;&gt;Node5 -->
<g id="edge35" class="edge">
<title>Node25&#45;&gt;Node5</title>
<path fill="none" stroke="#191970" d="M981.5677,-113.3754C986.446,-112.8975 991.2819,-112.4352 995.9883,-112 1203.4735,-92.8122 1453.3853,-74.5292 1540.8754,-68.2734"/>
<polygon fill="#191970" stroke="#191970" points="1541.2346,-71.7568 1550.9602,-67.5542 1540.7366,-64.7745 1541.2346,-71.7568"/>
</g>
<!-- Node25&#45;&gt;Node6 -->
<g id="edge29" class="edge">
<title>Node25&#45;&gt;Node6</title>
<path fill="none" stroke="#191970" d="M914.5749,-112.2455C926.3188,-103.814 943.5082,-91.4729 957.1765,-81.6598"/>
<polygon fill="#191970" stroke="#191970" points="959.4754,-84.3179 965.5574,-75.6427 955.3929,-78.6316 959.4754,-84.3179"/>
</g>
<!-- Node26 -->
<g id="node24" class="node">
<title>Node26</title>
<g id="a_node24"><a xlink:href="Span_8h.html" target="_top" xlink:title="iDynTree/Core/Span.h">
<polygon fill="none" stroke="#ff0000" points="741.4883,-56.5 741.4883,-75.5 862.4883,-75.5 862.4883,-56.5 741.4883,-56.5"/>
<text text-anchor="middle" x="801.9883" y="-63.5" font-family="FreeSans.ttf" font-size="10.00" fill="#000000">iDynTree/Core/Span.h</text>
</a>
</g>
</g>
<!-- Node25&#45;&gt;Node26 -->
<g id="edge30" class="edge">
<title>Node25&#45;&gt;Node26</title>
<path fill="none" stroke="#191970" d="M883.7438,-112.2455C868.4122,-103.5731 845.7684,-90.7645 828.1967,-80.825"/>
<polygon fill="#191970" stroke="#191970" points="829.4624,-77.5198 819.0352,-75.6427 826.0159,-83.6126 829.4624,-77.5198"/>
</g>
<!-- Node22 -->
<g id="node25" class="node">
<title>Node22</title>
<polygon fill="none" stroke="#bfbfbf" points="801.9883,-.5 801.9883,-19.5 853.9883,-19.5 853.9883,-.5 801.9883,-.5"/>
<text text-anchor="middle" x="827.9883" y="-7.5" font-family="FreeSans.ttf" font-size="10.00" fill="#000000">cassert</text>
</g>
<!-- Node25&#45;&gt;Node22 -->
<g id="edge36" class="edge">
<title>Node25&#45;&gt;Node22</title>
<path fill="none" stroke="#191970" d="M897.6365,-112.0881C892.8613,-98.7062 883.2976,-74.4175 870.9883,-56 863.9912,-45.5307 854.5852,-35.1698 846.3547,-26.9393"/>
<polygon fill="#191970" stroke="#191970" points="848.5615,-24.2044 838.9407,-19.7669 843.6944,-29.2355 848.5615,-24.2044"/>
</g>
<!-- Node26&#45;&gt;Node7 -->
<g id="edge33" class="edge">
<title>Node26&#45;&gt;Node7</title>
<path fill="none" stroke="#191970" d="M827.7742,-56.3733C852.393,-47.1822 889.6783,-33.2624 916.9758,-23.0713"/>
<polygon fill="#191970" stroke="#191970" points="918.3946,-26.2777 926.5389,-19.5011 915.9463,-19.7198 918.3946,-26.2777"/>
</g>
<!-- Node26&#45;&gt;Node8 -->
<g id="edge32" class="edge">
<title>Node26&#45;&gt;Node8</title>
<path fill="none" stroke="#191970" d="M741.2075,-57.8571C655.2455,-46.3407 500.3612,-25.5906 426.0279,-15.6321"/>
<polygon fill="#191970" stroke="#191970" points="426.4655,-12.1595 416.0893,-14.3006 425.5359,-19.0976 426.4655,-12.1595"/>
</g>
<!-- Node26&#45;&gt;Node22 -->
<g id="edge31" class="edge">
<title>Node26&#45;&gt;Node22</title>
<path fill="none" stroke="#191970" d="M806.5172,-56.2455C810.0217,-48.6973 814.981,-38.0158 819.2506,-28.8197"/>
<polygon fill="#191970" stroke="#191970" points="822.4747,-30.1867 823.5113,-19.6427 816.1256,-27.2389 822.4747,-30.1867"/>
</g>
<!-- Node28 -->
<g id="node26" class="node">
<title>Node28</title>
<polygon fill="none" stroke="#bfbfbf" points="1997.4883,-.5 1997.4883,-19.5 2050.4883,-19.5 2050.4883,-.5 1997.4883,-.5"/>
<text text-anchor="middle" x="2023.9883" y="-7.5" font-family="FreeSans.ttf" font-size="10.00" fill="#000000">iterator</text>
</g>
<!-- Node26&#45;&gt;Node28 -->
<g id="edge34" class="edge">
<title>Node26&#45;&gt;Node28</title>
<path fill="none" stroke="#191970" d="M862.7683,-59.8796C878.4645,-58.4485 895.3453,-57.0402 910.9883,-56 1333.2019,-27.9252 1846.7295,-14.2382 1987.0588,-10.8532"/>
<polygon fill="#191970" stroke="#191970" points="1987.3448,-14.3475 1997.2583,-10.6096 1987.1776,-7.3495 1987.3448,-14.3475"/>
</g>
<!-- Node21&#45;&gt;Node1 -->
<g id="edge44" class="edge">
<title>Node21&#45;&gt;Node1</title>
<path fill="none" stroke="#191970" d="M1265.2634,-285.9904C1249.187,-283.8241 1231.9801,-281.6712 1215.9883,-280 994.6381,-256.8678 728.1883,-241.4361 628.3533,-236.0865"/>
<polygon fill="#191970" stroke="#191970" points="628.2858,-232.578 618.114,-235.542 627.914,-239.5681 628.2858,-232.578"/>
</g>
<!-- Node21&#45;&gt;Node5 -->
<g id="edge43" class="edge">
<title>Node21&#45;&gt;Node5</title>
<path fill="none" stroke="#191970" d="M1337.239,-285.9416C1351.1645,-267.4361 1382.3646,-225.2537 1405.9883,-188 1426.772,-155.2249 1419.4449,-137.1667 1448.9883,-112 1475.3749,-89.5224 1513.7609,-77.5586 1540.8188,-71.5251"/>
<polygon fill="#191970" stroke="#191970" points="1541.8601,-74.8837 1550.9406,-69.4252 1540.4381,-68.0296 1541.8601,-74.8837"/>
</g>
<!-- Node21&#45;&gt;Node6 -->
<g id="edge41" class="edge">
<title>Node21&#45;&gt;Node6</title>
<path fill="none" stroke="#191970" d="M1280.1863,-285.938C1243.731,-277.7808 1193.7278,-264.1379 1152.9883,-244 1076.918,-206.3977 1015.174,-121.7562 990.5335,-84.359"/>
<polygon fill="#191970" stroke="#191970" points="993.4506,-82.4244 985.0823,-75.9265 987.572,-86.2247 993.4506,-82.4244"/>
</g>
<!-- Node21&#45;&gt;Node22 -->
<g id="edge42" class="edge">
<title>Node21&#45;&gt;Node22</title>
<path fill="none" stroke="#191970" d="M1320.0624,-285.8833C1277.8111,-245.1402 1112.1735,-87.4099 1047.9883,-56 1016.0337,-40.3626 917.9848,-23.6638 864.209,-15.3492"/>
<polygon fill="#191970" stroke="#191970" points="864.4908,-11.8517 854.0768,-13.8009 863.4333,-18.7714 864.4908,-11.8517"/>
</g>
<!-- Node46&#45;&gt;Node5 -->
<g id="edge49" class="edge">
<title>Node46&#45;&gt;Node5</title>
<path fill="none" stroke="#191970" d="M2483.8044,-419.9332C2575.5614,-400.8786 2761.9883,-354.8603 2761.9883,-295.5 2761.9883,-295.5 2761.9883,-295.5 2761.9883,-178 2761.9883,-118.1909 1795.8014,-75.1994 1605.3579,-67.3064"/>
<polygon fill="#191970" stroke="#191970" points="1605.2922,-63.8008 1595.1567,-66.8865 1605.0042,-70.7949 1605.2922,-63.8008"/>
</g>
<!-- Node46&#45;&gt;Node10 -->
<g id="edge50" class="edge">
<title>Node46&#45;&gt;Node10</title>
<path fill="none" stroke="#191970" d="M2352.4521,-421.8576C2325.2716,-419.3298 2294.8274,-416.5201 2266.9883,-414 2085.6918,-397.5882 2034.7401,-425.4244 1858.9883,-378 1857.0175,-377.4682 1855.0195,-376.8244 1853.0325,-376.1053"/>
<polygon fill="#191970" stroke="#191970" points="1853.9407,-372.6909 1843.3652,-372.0514 1851.2337,-379.1463 1853.9407,-372.6909"/>
</g>
<!-- Node46&#45;&gt;Node11 -->
<g id="edge48" class="edge">
<title>Node46&#45;&gt;Node11</title>
<path fill="none" stroke="#191970" d="M2433.9883,-419.9005C2433.9883,-410.149 2433.9883,-394.7597 2433.9883,-382.3695"/>
<polygon fill="#191970" stroke="#191970" points="2437.4884,-382.0816 2433.9883,-372.0817 2430.4884,-382.0817 2437.4884,-382.0816"/>
</g>
<!-- Node46&#45;&gt;Node45 -->
<g id="edge51" class="edge">
<title>Node46&#45;&gt;Node45</title>
<path fill="none" stroke="#191970" d="M2363.877,-419.9717C2273.4638,-407.6843 2116.5657,-386.3614 2021.4064,-373.429"/>
<polygon fill="#191970" stroke="#191970" points="2021.6367,-369.9282 2011.2564,-372.0496 2020.694,-376.8645 2021.6367,-369.9282"/>
</g>
<!-- Node47&#45;&gt;Node3 -->
<g id="edge99" class="edge">
<title>Node47&#45;&gt;Node3</title>
<path fill="none" stroke="#191970" d="M1424.2503,-552.1907C1263.579,-526.8614 876.4276,-465.8281 716.7132,-440.6496"/>
<polygon fill="#191970" stroke="#191970" points="716.9498,-437.1437 706.5268,-439.0437 715.8597,-444.0583 716.9498,-437.1437"/>
</g>
<!-- Node47&#45;&gt;Node15 -->
<g id="edge57" class="edge">
<title>Node47&#45;&gt;Node15</title>
<path fill="none" stroke="#191970" d="M1567.6091,-558.9212C1757.2688,-546.796 2271.3606,-513.9294 2466.9956,-501.4222"/>
<polygon fill="#191970" stroke="#191970" points="2467.431,-504.9016 2477.1873,-500.7707 2466.9843,-497.9159 2467.431,-504.9016"/>
</g>
<!-- Node47&#45;&gt;Node16 -->
<g id="edge101" class="edge">
<title>Node47&#45;&gt;Node16</title>
<path fill="none" stroke="#191970" d="M1567.5359,-557.7619C1750.008,-542.4072 2221.5717,-497.9302 2266.9883,-445 2289.6124,-418.633 2245.9552,-391.7925 2212.4231,-376.1658"/>
<polygon fill="#191970" stroke="#191970" points="2213.8533,-372.9714 2203.2973,-372.0653 2210.9843,-379.3564 2213.8533,-372.9714"/>
</g>
<!-- Node47&#45;&gt;Node22 -->
<g id="edge100" class="edge">
<title>Node47&#45;&gt;Node22</title>
<path fill="none" stroke="#191970" d="M1424.3152,-562.9823C1198.5794,-560.9544 504.2201,-551.5781 282.9883,-512 149.8742,-488.1861 17.9883,-497.7275 17.9883,-362.5 17.9883,-362.5 17.9883,-362.5 17.9883,-122 17.9883,-42.7252 634.6482,-16.5231 791.8595,-11.1313"/>
<polygon fill="#191970" stroke="#191970" points="792.0787,-14.626 801.9555,-10.7922 791.8437,-7.6299 792.0787,-14.626"/>
</g>
<!-- Node48 -->
<g id="node30" class="node">
<title>Node48</title>
<g id="a_node30"><a xlink:href="FixedJoint_8h.html" target="_top" xlink:title="iDynTree/Model/FixedJoint.h">
<polygon fill="none" stroke="#000000" points="1930.4883,-420 1930.4883,-439 2081.4883,-439 2081.4883,-420 1930.4883,-420"/>
<text text-anchor="middle" x="2005.9883" y="-427" font-family="FreeSans.ttf" font-size="10.00" fill="#000000">iDynTree/Model/FixedJoint.h</text>
</a>
</g>
</g>
<!-- Node47&#45;&gt;Node48 -->
<g id="edge58" class="edge">
<title>Node47&#45;&gt;Node48</title>
<path fill="none" stroke="#191970" d="M1526.7109,-548.4108C1565.6583,-529.8817 1635.2927,-498.7369 1697.9883,-481 1792.4808,-454.2676 1819.1551,-461.3336 1915.9883,-445 1923.991,-443.6501 1932.3917,-442.2204 1940.7112,-440.7966"/>
<polygon fill="#191970" stroke="#191970" points="1941.5222,-444.2087 1950.7867,-439.0688 1940.339,-437.3094 1941.5222,-444.2087"/>
</g>
<!-- Node49 -->
<g id="node31" class="node">
<title>Node49</title>
<g id="a_node31"><a xlink:href="RevoluteJoint_8h.html" target="_top" xlink:title="iDynTree/Model/RevoluteJoint.h">
<polygon fill="none" stroke="#000000" points="1411.9883,-487 1411.9883,-506 1579.9883,-506 1579.9883,-487 1411.9883,-487"/>
<text text-anchor="middle" x="1495.9883" y="-494" font-family="FreeSans.ttf" font-size="10.00" fill="#000000">iDynTree/Model/RevoluteJoint.h</text>
</a>
</g>
</g>
<!-- Node47&#45;&gt;Node49 -->
<g id="edge62" class="edge">
<title>Node47&#45;&gt;Node49</title>
<path fill="none" stroke="#191970" d="M1495.9883,-548.2967C1495.9883,-538.7699 1495.9883,-526.3954 1495.9883,-516.1306"/>
<polygon fill="#191970" stroke="#191970" points="1499.4884,-516.0549 1495.9883,-506.055 1492.4884,-516.055 1499.4884,-516.0549"/>
</g>
<!-- Node53 -->
<g id="node35" class="node">
<title>Node53</title>
<g id="a_node35"><a xlink:href="FreeFloatingState_8h.html" target="_top" xlink:title="iDynTree/Model/FreeFloating\lState.h">
<polygon fill="none" stroke="#000000" points="1239.9883,-481.5 1239.9883,-511.5 1393.9883,-511.5 1393.9883,-481.5 1239.9883,-481.5"/>
<text text-anchor="start" x="1247.9883" y="-499.5" font-family="FreeSans.ttf" font-size="10.00" fill="#000000">iDynTree/Model/FreeFloating</text>
<text text-anchor="middle" x="1316.9883" y="-488.5" font-family="FreeSans.ttf" font-size="10.00" fill="#000000">State.h</text>
</a>
</g>
</g>
<!-- Node47&#45;&gt;Node53 -->
<g id="edge74" class="edge">
<title>Node47&#45;&gt;Node53</title>
<path fill="none" stroke="#191970" d="M1455.8172,-548.4639C1429.5387,-538.6278 1395.0093,-525.7034 1366.9611,-515.2049"/>
<polygon fill="#191970" stroke="#191970" points="1367.927,-511.8293 1357.3346,-511.6017 1365.4731,-518.3852 1367.927,-511.8293"/>
</g>
<!-- Node55 -->
<g id="node38" class="node">
<title>Node55</title>
<g id="a_node38"><a xlink:href="LinkState_8h.html" target="_top" xlink:title="iDynTree/Model/LinkState.h">
<polygon fill="none" stroke="#000000" points="1193.4883,-420 1193.4883,-439 1342.4883,-439 1342.4883,-420 1193.4883,-420"/>
<text text-anchor="middle" x="1267.9883" y="-427" font-family="FreeSans.ttf" font-size="10.00" fill="#000000">iDynTree/Model/LinkState.h</text>
</a>
</g>
</g>
<!-- Node47&#45;&gt;Node55 -->
<g id="edge98" class="edge">
<title>Node47&#45;&gt;Node55</title>
<path fill="none" stroke="#191970" d="M1424.4829,-559.5913C1354.534,-554.0953 1255.0989,-541.2474 1230.9883,-512 1214.7096,-492.2531 1234.1707,-464.1983 1250.4526,-446.4258"/>
<polygon fill="#191970" stroke="#191970" points="1253.1444,-448.6767 1257.57,-439.0504 1248.1073,-443.8159 1253.1444,-448.6767"/>
</g>
<!-- Node48&#45;&gt;Node14 -->
<g id="edge60" class="edge">
<title>Node48&#45;&gt;Node14</title>
<path fill="none" stroke="#191970" d="M2018.4414,-419.7567C2029.7847,-410.252 2046.2134,-394.8039 2055.9883,-378 2067.4323,-358.3268 2073.7603,-332.7983 2077.0054,-315.3825"/>
<polygon fill="#191970" stroke="#191970" points="2080.502,-315.6955 2078.7155,-305.2524 2073.5997,-314.5302 2080.502,-315.6955"/>
</g>
<!-- Node48&#45;&gt;Node16 -->
<g id="edge61" class="edge">
<title>Node48&#45;&gt;Node16</title>
<path fill="none" stroke="#191970" d="M2030.775,-419.9005C2060.7075,-408.3082 2111.2122,-388.7486 2144.8238,-375.7313"/>
<polygon fill="#191970" stroke="#191970" points="2146.1865,-378.957 2154.2476,-372.0817 2143.6585,-372.4294 2146.1865,-378.957"/>
</g>
<!-- Node48&#45;&gt;Node45 -->
<g id="edge59" class="edge">
<title>Node48&#45;&gt;Node45</title>
<path fill="none" stroke="#191970" d="M1996.6754,-419.9005C1986.4427,-409.353 1969.8111,-392.2096 1957.3837,-379.3998"/>
<polygon fill="#191970" stroke="#191970" points="1959.7592,-376.822 1950.2839,-372.0817 1954.735,-381.6962 1959.7592,-376.822"/>
</g>
<!-- Node49&#45;&gt;Node14 -->
<g id="edge71" class="edge">
<title>Node49&#45;&gt;Node14</title>
<path fill="none" stroke="#191970" d="M1548.4003,-486.9603C1673.7568,-463.8272 1983.4429,-404.6896 2022.9883,-378 2046.3509,-362.2324 2062.9612,-333.4112 2072.0157,-314.3539"/>
<polygon fill="#191970" stroke="#191970" points="2075.2425,-315.7124 2076.1608,-305.1574 2068.8607,-312.836 2075.2425,-315.7124"/>
</g>
<!-- Node49&#45;&gt;Node45 -->
<g id="edge63" class="edge">
<title>Node49&#45;&gt;Node45</title>
<path fill="none" stroke="#191970" d="M1521.3324,-486.991C1564.8605,-470.8396 1656.7932,-437.5131 1735.9883,-414 1787.4989,-398.7065 1847.1514,-384.0593 1888.7796,-374.3226"/>
<polygon fill="#191970" stroke="#191970" points="1889.7472,-377.6911 1898.6943,-372.0167 1888.1614,-370.873 1889.7472,-377.6911"/>
</g>
<!-- Node34 -->
<g id="node32" class="node">
<title>Node34</title>
<g id="a_node32"><a xlink:href="SpatialMotionVector_8h.html" target="_top" xlink:title="iDynTree/Core/SpatialMotion\lVector.h">
<polygon fill="none" stroke="#ff0000" points="1051.4883,-280.5 1051.4883,-310.5 1206.4883,-310.5 1206.4883,-280.5 1051.4883,-280.5"/>
<text text-anchor="start" x="1059.4883" y="-298.5" font-family="FreeSans.ttf" font-size="10.00" fill="#000000">iDynTree/Core/SpatialMotion</text>
<text text-anchor="middle" x="1128.9883" y="-287.5" font-family="FreeSans.ttf" font-size="10.00" fill="#000000">Vector.h</text>
</a>
</g>
</g>
<!-- Node49&#45;&gt;Node34 -->
<g id="edge64" class="edge">
<title>Node49&#45;&gt;Node34</title>
<path fill="none" stroke="#191970" d="M1491.7794,-486.8958C1479.4353,-459.9454 1440.5348,-383.2234 1382.9883,-347 1368.7203,-338.0188 1284.0959,-321.9014 1216.388,-310.0822"/>
<polygon fill="#191970" stroke="#191970" points="1216.9828,-306.6332 1206.5315,-308.3709 1215.7854,-313.53 1216.9828,-306.6332"/>
</g>
<!-- Node50 -->
<g id="node33" class="node">
<title>Node50</title>
<g id="a_node33"><a xlink:href="Axis_8h.html" target="_top" xlink:title="iDynTree/Core/Axis.h">
<polygon fill="none" stroke="#ff0000" points="1589.9883,-353 1589.9883,-372 1707.9883,-372 1707.9883,-353 1589.9883,-353"/>
<text text-anchor="middle" x="1648.9883" y="-360" font-family="FreeSans.ttf" font-size="10.00" fill="#000000">iDynTree/Core/Axis.h</text>
</a>
</g>
</g>
<!-- Node49&#45;&gt;Node50 -->
<g id="edge67" class="edge">
<title>Node49&#45;&gt;Node50</title>
<path fill="none" stroke="#191970" d="M1505.7699,-486.8206C1521.7571,-471.1179 1554.6479,-439.3002 1583.9883,-414 1598.34,-401.6245 1615.117,-388.3604 1628.0313,-378.3931"/>
<polygon fill="#191970" stroke="#191970" points="1630.4711,-380.9328 1636.2776,-372.0707 1626.212,-375.3776 1630.4711,-380.9328"/>
</g>
<!-- Node52 -->
<g id="node34" class="node">
<title>Node52</title>
<g id="a_node34"><a xlink:href="MovableJointImpl_8h.html" target="_top" xlink:title="iDynTree/Model/MovableJoint\lImpl.h">
<polygon fill="none" stroke="#000000" points="2099.9883,-414.5 2099.9883,-444.5 2257.9883,-444.5 2257.9883,-414.5 2099.9883,-414.5"/>
<text text-anchor="start" x="2107.9883" y="-432.5" font-family="FreeSans.ttf" font-size="10.00" fill="#000000">iDynTree/Model/MovableJoint</text>
<text text-anchor="middle" x="2178.9883" y="-421.5" font-family="FreeSans.ttf" font-size="10.00" fill="#000000">Impl.h</text>
</a>
</g>
</g>
<!-- Node49&#45;&gt;Node52 -->
<g id="edge72" class="edge">
<title>Node49&#45;&gt;Node52</title>
<path fill="none" stroke="#191970" d="M1580.0112,-490.1466C1715.6274,-479.7418 1978.0365,-458.9508 2089.8606,-445.0525"/>
<polygon fill="#191970" stroke="#191970" points="2090.4092,-448.5109 2099.8848,-443.7715 2089.5218,-441.5674 2090.4092,-448.5109"/>
</g>
<!-- Node34&#45;&gt;Node35 -->
<g id="edge66" class="edge">
<title>Node34&#45;&gt;Node35</title>
<path fill="none" stroke="#191970" d="M1152.9238,-280.3795C1188.5906,-257.848 1255.3059,-215.7026 1291.0022,-193.1525"/>
<polygon fill="#191970" stroke="#191970" points="1293.1993,-195.9045 1299.7844,-187.6046 1289.4607,-189.9864 1293.1993,-195.9045"/>
</g>
<!-- Node34&#45;&gt;Node25 -->
<g id="edge65" class="edge">
<title>Node34&#45;&gt;Node25</title>
<path fill="none" stroke="#191970" d="M1099.2804,-280.4812C1081.2745,-270.9014 1058.1567,-257.7378 1038.9883,-244 992.0804,-210.3815 942.7276,-163.5326 917.6885,-138.8142"/>
<polygon fill="#191970" stroke="#191970" points="920.0053,-136.1821 910.4472,-131.6112 915.0687,-141.145 920.0053,-136.1821"/>
</g>
<!-- Node50&#45;&gt;Node5 -->
<g id="edge68" class="edge">
<title>Node50&#45;&gt;Node5</title>
<path fill="none" stroke="#191970" d="M1631.8008,-352.9938C1600.8633,-334.4732 1538.9883,-290.3839 1538.9883,-234 1538.9883,-234 1538.9883,-234 1538.9883,-178 1538.9883,-143.9677 1553.5398,-106.5293 1563.6034,-84.7067"/>
<polygon fill="#191970" stroke="#191970" points="1566.8073,-86.1198 1567.9715,-75.5891 1560.4944,-83.0954 1566.8073,-86.1198"/>
</g>
<!-- Node50&#45;&gt;Node6 -->
<g id="edge70" class="edge">
<title>Node50&#45;&gt;Node6</title>
<path fill="none" stroke="#191970" d="M1623.8767,-352.8749C1557.8827,-327.4274 1374.3518,-255.6731 1224.9883,-188 1144.4837,-151.5252 1051.5624,-103.8952 1006.4314,-80.3973"/>
<polygon fill="#191970" stroke="#191970" points="1007.7773,-77.1518 997.2926,-75.6285 1004.539,-83.3577 1007.7773,-77.1518"/>
</g>
<!-- Node50&#45;&gt;Node37 -->
<g id="edge69" class="edge">
<title>Node50&#45;&gt;Node37</title>
<path fill="none" stroke="#191970" d="M1659.734,-352.9005C1671.6523,-342.2535 1691.094,-324.8856 1705.4751,-312.0385"/>
<polygon fill="#191970" stroke="#191970" points="1708.1367,-314.354 1713.2626,-305.0817 1703.4732,-309.1337 1708.1367,-314.354"/>
</g>
<!-- Node52&#45;&gt;Node16 -->
<g id="edge73" class="edge">
<title>Node52&#45;&gt;Node16</title>
<path fill="none" stroke="#191970" d="M2178.9883,-414.2967C2178.9883,-404.7699 2178.9883,-392.3954 2178.9883,-382.1306"/>
<polygon fill="#191970" stroke="#191970" points="2182.4884,-382.0549 2178.9883,-372.055 2175.4884,-382.055 2182.4884,-382.0549"/>
</g>
<!-- Node53&#45;&gt;Node10 -->
<g id="edge97" class="edge">
<title>Node53&#45;&gt;Node10</title>
<path fill="none" stroke="#191970" d="M1387.8938,-481.4973C1422.0211,-472.9882 1463.0202,-460.8396 1497.9883,-445 1521.1213,-434.5214 1522.2256,-422.9595 1545.9883,-414 1647.7355,-375.6371 1683.1161,-406.7405 1787.9883,-378 1790.4535,-377.3244 1792.974,-376.5338 1795.4859,-375.6736"/>
<polygon fill="#191970" stroke="#191970" points="1796.8616,-378.8958 1804.9963,-372.1077 1794.404,-372.3414 1796.8616,-378.8958"/>
</g>
<!-- Node53&#45;&gt;Node14 -->
<g id="edge81" class="edge">
<title>Node53&#45;&gt;Node14</title>
<path fill="none" stroke="#191970" d="M1343.0035,-481.3497C1376.6833,-462.4569 1437.7415,-430.6257 1493.9883,-414 1605.0171,-381.1816 1644.7835,-421.7215 1751.9883,-378 1773.4711,-369.2386 1772.6828,-356.1841 1793.9883,-347 1860.2304,-318.4451 1941.6917,-305.722 2000.7089,-300.0535"/>
<polygon fill="#191970" stroke="#191970" points="2001.0789,-303.5344 2010.7189,-299.1389 2000.4419,-296.5634 2001.0789,-303.5344"/>
</g>
<!-- Node53&#45;&gt;Node45 -->
<g id="edge75" class="edge">
<title>Node53&#45;&gt;Node45</title>
<path fill="none" stroke="#191970" d="M1385.8134,-481.4542C1429.0882,-471.7127 1485.998,-458.3872 1535.9883,-445 1582.1673,-432.6335 1592.4115,-424.7718 1638.9883,-414 1735.5187,-391.6755 1761.4149,-395.2025 1858.9883,-378 1866.3297,-376.7057 1874.0326,-375.3055 1881.655,-373.8943"/>
<polygon fill="#191970" stroke="#191970" points="1882.4033,-377.3152 1891.5919,-372.0408 1881.1197,-370.4339 1882.4033,-377.3152"/>
</g>
<!-- Node33 -->
<g id="node36" class="node">
<title>Node33</title>
<g id="a_node36"><a xlink:href="Twist_8h.html" target="_top" xlink:title="iDynTree/Core/Twist.h">
<polygon fill="none" stroke="#000000" points="933.9883,-353 933.9883,-372 1055.9883,-372 1055.9883,-353 933.9883,-353"/>
<text text-anchor="middle" x="994.9883" y="-360" font-family="FreeSans.ttf" font-size="10.00" fill="#000000">iDynTree/Core/Twist.h</text>
</a>
</g>
</g>
<!-- Node53&#45;&gt;Node33 -->
<g id="edge76" class="edge">
<title>Node53&#45;&gt;Node33</title>
<path fill="none" stroke="#191970" d="M1277.267,-481.4504C1250.9815,-471.3815 1215.8068,-457.6975 1184.9883,-445 1128.3692,-421.6724 1063.0072,-392.8763 1025.5844,-376.2079"/>
<polygon fill="#191970" stroke="#191970" points="1026.8058,-372.9204 1016.2474,-372.0425 1023.9539,-379.3131 1026.8058,-372.9204"/>
</g>
<!-- Node54 -->
<g id="node37" class="node">
<title>Node54</title>
<g id="a_node37"><a xlink:href="VectorDynSize_8h.html" target="_top" xlink:title="iDynTree/Core/VectorDynSize.h">
<polygon fill="none" stroke="#000000" points="711.4883,-353 711.4883,-372 878.4883,-372 878.4883,-353 711.4883,-353"/>
<text text-anchor="middle" x="794.9883" y="-360" font-family="FreeSans.ttf" font-size="10.00" fill="#000000">iDynTree/Core/VectorDynSize.h</text>
</a>
</g>
</g>
<!-- Node53&#45;&gt;Node54 -->
<g id="edge78" class="edge">
<title>Node53&#45;&gt;Node54</title>
<path fill="none" stroke="#191970" d="M1239.9567,-494.9208C1127.1133,-491.4261 923.3878,-480.2846 859.9883,-445 833.9379,-430.5018 814.6492,-400.8709 804.1112,-381.3508"/>
<polygon fill="#191970" stroke="#191970" points="807.0919,-379.4935 799.4087,-372.1984 800.8657,-382.6925 807.0919,-379.4935"/>
</g>
<!-- Node53&#45;&gt;Node55 -->
<g id="edge82" class="edge">
<title>Node53&#45;&gt;Node55</title>
<path fill="none" stroke="#191970" d="M1305.8694,-481.2967C1298.4574,-471.1618 1288.6883,-457.804 1280.9273,-447.1921"/>
<polygon fill="#191970" stroke="#191970" points="1283.7046,-445.0606 1274.9763,-439.055 1278.0544,-449.1928 1283.7046,-445.0606"/>
</g>
<!-- Node57 -->
<g id="node42" class="node">
<title>Node57</title>
<g id="a_node42"><a xlink:href="JointState_8h.html" target="_top" xlink:title="iDynTree/Model/JointState.h">
<polygon fill="none" stroke="#ff0000" points="869.4883,-420 869.4883,-439 1020.4883,-439 1020.4883,-420 869.4883,-420"/>
<text text-anchor="middle" x="944.9883" y="-427" font-family="FreeSans.ttf" font-size="10.00" fill="#000000">iDynTree/Model/JointState.h</text>
</a>
</g>
</g>
<!-- Node53&#45;&gt;Node57 -->
<g id="edge93" class="edge">
<title>Node53&#45;&gt;Node57</title>
<path fill="none" stroke="#191970" d="M1239.9097,-482.6176C1171.2271,-470.2473 1071.9504,-452.3668 1007.9387,-440.8378"/>
<polygon fill="#191970" stroke="#191970" points="1008.4402,-437.3719 997.9781,-439.0439 1007.1993,-444.2611 1008.4402,-437.3719"/>
</g>
<!-- Node33&#45;&gt;Node34 -->
<g id="edge77" class="edge">
<title>Node33&#45;&gt;Node34</title>
<path fill="none" stroke="#191970" d="M1014.1872,-352.9005C1033.8232,-343.0826 1064.8887,-327.5498 1089.7549,-315.1167"/>
<polygon fill="#191970" stroke="#191970" points="1091.5658,-318.1245 1098.9448,-310.5218 1088.4352,-311.8635 1091.5658,-318.1245"/>
</g>
<!-- Node54&#45;&gt;Node5 -->
<g id="edge80" class="edge">
<title>Node54&#45;&gt;Node5</title>
<path fill="none" stroke="#191970" d="M813.8743,-352.8024C873.2235,-322.5807 1061.7309,-228.5114 1224.9883,-168 1338.8312,-125.8041 1478.6336,-89.2998 1540.6844,-73.8565"/>
<polygon fill="#191970" stroke="#191970" points="1541.7858,-77.1896 1550.6528,-71.3906 1540.1049,-70.3944 1541.7858,-77.1896"/>
</g>
<!-- Node54&#45;&gt;Node26 -->
<g id="edge79" class="edge">
<title>Node54&#45;&gt;Node26</title>
<path fill="none" stroke="#191970" d="M794.6083,-352.8299C793.8011,-331.4229 791.9883,-278.4071 791.9883,-234 791.9883,-234 791.9883,-234 791.9883,-178 791.9883,-145.5831 796.1958,-108.0969 799.1524,-85.7572"/>
<polygon fill="#191970" stroke="#191970" points="802.6592,-85.9466 800.5555,-75.5627 795.7246,-84.992 802.6592,-85.9466"/>
</g>
<!-- Node55&#45;&gt;Node10 -->
<g id="edge92" class="edge">
<title>Node55&#45;&gt;Node10</title>
<path fill="none" stroke="#191970" d="M1342.5877,-423.7359C1437.5559,-415.8924 1606.5316,-400.2415 1749.9883,-378 1763.9534,-375.8348 1779.2408,-372.84 1792.4194,-370.0597"/>
<polygon fill="#191970" stroke="#191970" points="1793.4314,-373.4221 1802.4708,-367.8958 1791.9581,-366.5789 1793.4314,-373.4221"/>
</g>
<!-- Node55&#45;&gt;Node14 -->
<g id="edge91" class="edge">
<title>Node55&#45;&gt;Node14</title>
<path fill="none" stroke="#191970" d="M1342.5585,-421.9386C1465.7049,-409.3112 1699.7935,-384.6577 1716.9883,-378 1738.9587,-369.4932 1738.2166,-356.0029 1759.9883,-347 1802.3754,-329.4723 1920.5511,-313.3831 2000.7972,-304.0086"/>
<polygon fill="#191970" stroke="#191970" points="2001.3448,-307.4687 2010.8765,-302.843 2000.5406,-300.515 2001.3448,-307.4687"/>
</g>
<!-- Node55&#45;&gt;Node45 -->
<g id="edge83" class="edge">
<title>Node55&#45;&gt;Node45</title>
<path fill="none" stroke="#191970" d="M1342.8918,-425.3786C1455.3441,-418.6481 1674.3144,-403.4354 1858.9883,-378 1867.4474,-376.8349 1876.3578,-375.3847 1885.0634,-373.8425"/>
<polygon fill="#191970" stroke="#191970" points="1885.9406,-377.2403 1895.1495,-372.0013 1884.6835,-370.3541 1885.9406,-377.2403"/>
</g>
<!-- Node55&#45;&gt;Node33 -->
<g id="edge84" class="edge">
<title>Node55&#45;&gt;Node33</title>
<path fill="none" stroke="#191970" d="M1229.164,-419.9717C1180.4842,-408.0246 1096.9993,-387.5357 1043.9756,-374.5225"/>
<polygon fill="#191970" stroke="#191970" points="1044.6667,-371.0883 1034.1207,-372.1039 1042.9982,-377.8866 1044.6667,-371.0883"/>
</g>
<!-- Node43 -->
<g id="node39" class="node">
<title>Node43</title>
<g id="a_node39"><a xlink:href="SpatialAcc_8h.html" target="_top" xlink:title="iDynTree/Core/SpatialAcc.h">
<polygon fill="none" stroke="#000000" points="1073.9883,-353 1073.9883,-372 1221.9883,-372 1221.9883,-353 1073.9883,-353"/>
<text text-anchor="middle" x="1147.9883" y="-360" font-family="FreeSans.ttf" font-size="10.00" fill="#000000">iDynTree/Core/SpatialAcc.h</text>
</a>
</g>
</g>
<!-- Node55&#45;&gt;Node43 -->
<g id="edge85" class="edge">
<title>Node55&#45;&gt;Node43</title>
<path fill="none" stroke="#191970" d="M1250.7952,-419.9005C1230.7456,-408.7062 1197.3895,-390.0823 1174.1281,-377.0947"/>
<polygon fill="#191970" stroke="#191970" points="1175.587,-373.9007 1165.1495,-372.0817 1172.1745,-380.0126 1175.587,-373.9007"/>
</g>
<!-- Node44 -->
<g id="node40" class="node">
<title>Node44</title>
<g id="a_node40"><a xlink:href="Wrench_8h.html" target="_top" xlink:title="iDynTree/Core/Wrench.h">
<polygon fill="none" stroke="#ff0000" points="1240.4883,-353 1240.4883,-372 1373.4883,-372 1373.4883,-353 1240.4883,-353"/>
<text text-anchor="middle" x="1306.9883" y="-360" font-family="FreeSans.ttf" font-size="10.00" fill="#000000">iDynTree/Core/Wrench.h</text>
</a>
</g>
</g>
<!-- Node55&#45;&gt;Node44 -->
<g id="edge87" class="edge">
<title>Node55&#45;&gt;Node44</title>
<path fill="none" stroke="#191970" d="M1273.576,-419.9005C1279.484,-409.751 1288.947,-393.4941 1296.2965,-380.8679"/>
<polygon fill="#191970" stroke="#191970" points="1299.405,-382.4849 1301.4109,-372.0817 1293.3553,-378.9634 1299.405,-382.4849"/>
</g>
<!-- Node56 -->
<g id="node41" class="node">
<title>Node56</title>
<g id="a_node41"><a xlink:href="ArticulatedBodyInertia_8h.html" target="_top" xlink:title="iDynTree/Core/Articulated\lBodyInertia.h">
<polygon fill="none" stroke="#000000" points="1430.4883,-347.5 1430.4883,-377.5 1571.4883,-377.5 1571.4883,-347.5 1430.4883,-347.5"/>
<text text-anchor="start" x="1438.4883" y="-365.5" font-family="FreeSans.ttf" font-size="10.00" fill="#000000">iDynTree/Core/Articulated</text>
<text text-anchor="middle" x="1500.9883" y="-354.5" font-family="FreeSans.ttf" font-size="10.00" fill="#000000">BodyInertia.h</text>
</a>
</g>
</g>
<!-- Node55&#45;&gt;Node56 -->
<g id="edge88" class="edge">
<title>Node55&#45;&gt;Node56</title>
<path fill="none" stroke="#191970" d="M1301.3715,-419.9005C1337.1691,-409.6068 1394.8134,-393.031 1438.9752,-380.3321"/>
<polygon fill="#191970" stroke="#191970" points="1440.1051,-383.6491 1448.7484,-377.5218 1438.1706,-376.9217 1440.1051,-383.6491"/>
</g>
<!-- Node43&#45;&gt;Node34 -->
<g id="edge86" class="edge">
<title>Node43&#45;&gt;Node34</title>
<path fill="none" stroke="#191970" d="M1145.2661,-352.9005C1142.8621,-344.4234 1139.2499,-331.6856 1136.0385,-320.3614"/>
<polygon fill="#191970" stroke="#191970" points="1139.3437,-319.1875 1133.2482,-310.5218 1132.6093,-321.0973 1139.3437,-319.1875"/>
</g>
<!-- Node56&#45;&gt;Node5 -->
<g id="edge90" class="edge">
<title>Node56&#45;&gt;Node5</title>
<path fill="none" stroke="#191970" d="M1493.4807,-347.4979C1482.4064,-323.9437 1462.9883,-276.5732 1462.9883,-234 1462.9883,-234 1462.9883,-234 1462.9883,-178 1462.9883,-132.2337 1510.3184,-98.3178 1542.886,-80.3977"/>
<polygon fill="#191970" stroke="#191970" points="1544.8319,-83.3282 1552.0392,-75.5625 1541.5623,-77.1387 1544.8319,-83.3282"/>
</g>
<!-- Node56&#45;&gt;Node21 -->
<g id="edge89" class="edge">
<title>Node56&#45;&gt;Node21</title>
<path fill="none" stroke="#191970" d="M1462.6126,-347.4639C1433.0163,-335.8677 1392.4643,-319.9789 1364.0187,-308.8335"/>
<polygon fill="#191970" stroke="#191970" points="1365.0875,-305.4933 1354.4998,-305.1039 1362.5338,-312.0109 1365.0875,-305.4933"/>
</g>
<!-- Node57&#45;&gt;Node10 -->
<g id="edge96" class="edge">
<title>Node57&#45;&gt;Node10</title>
<path fill="none" stroke="#191970" d="M1020.622,-424.6078C1208.3022,-412.4472 1682.7531,-381.571 1716.9883,-378 1742.3113,-375.3586 1770.7924,-371.2695 1792.2892,-367.9544"/>
<polygon fill="#191970" stroke="#191970" points="1792.8975,-371.4019 1802.2366,-366.3989 1791.8159,-364.486 1792.8975,-371.4019"/>
</g>
<!-- Node57&#45;&gt;Node25 -->
<g id="edge94" class="edge">
<title>Node57&#45;&gt;Node25</title>
<path fill="none" stroke="#191970" d="M940.3237,-419.8851C935.6204,-409.7286 928.5602,-393.1222 924.9883,-378 904.6417,-291.8589 901.4157,-185.5806 900.9953,-142.0357"/>
<polygon fill="#191970" stroke="#191970" points="904.4947,-141.9044 900.9396,-131.9239 897.4948,-141.9431 904.4947,-141.9044"/>
</g>
<!-- Node57&#45;&gt;Node54 -->
<g id="edge95" class="edge">
<title>Node57&#45;&gt;Node54</title>
<path fill="none" stroke="#191970" d="M923.497,-419.9005C897.878,-408.4574 854.8784,-389.2509 825.7436,-376.2374"/>
<polygon fill="#191970" stroke="#191970" points="826.9978,-372.9643 816.4398,-372.0817 824.1429,-379.3557 826.9978,-372.9643"/>
</g>
<!-- Node58&#45;&gt;Node5 -->
<g id="edge113" class="edge">
<title>Node58&#45;&gt;Node5</title>
<path fill="none" stroke="#191970" d="M2685.5166,-615.299C2685.2818,-599.1406 2687.2382,-566.6519 2704.9883,-548 2743.374,-507.6641 2777.5147,-541.0982 2824.9883,-512 2890.9167,-471.5902 2913.9883,-439.8273 2913.9883,-362.5 2913.9883,-362.5 2913.9883,-362.5 2913.9883,-178 2913.9883,-164.877 3021.3129,-164.4226 2688.9883,-112 2472.0197,-77.7743 1765.0987,-68.1005 1605.2946,-66.3275"/>
<polygon fill="#191970" stroke="#191970" points="1605.1957,-62.8263 1595.1583,-66.2176 1605.1197,-69.8259 1605.1957,-62.8263"/>
</g>
<!-- Node58&#45;&gt;Node10 -->
<g id="edge114" class="edge">
<title>Node58&#45;&gt;Node10</title>
<path fill="none" stroke="#191970" d="M2741.8419,-615.4367C2762.7625,-608.8472 2784.4735,-597.7332 2796.9883,-579 2804.6418,-567.5435 2804.8185,-559.3364 2796.9883,-548 2749.1844,-478.7906 2702.3118,-498.2625 2619.9883,-481 2467.9771,-449.1246 2066.1844,-502.7143 1921.9883,-445 1887.5344,-431.2099 1856.7612,-399.7127 1839.8057,-379.871"/>
<polygon fill="#191970" stroke="#191970" points="1842.493,-377.6285 1833.4146,-372.1666 1837.1054,-382.0978 1842.493,-377.6285"/>
</g>
<!-- Node58&#45;&gt;Node15 -->
<g id="edge103" class="edge">
<title>Node58&#45;&gt;Node15</title>
<path fill="none" stroke="#191970" d="M2728.5388,-615.4528C2748.0643,-608.7153 2769.4063,-597.4765 2780.9883,-579 2788.306,-567.3262 2789.6346,-558.727 2780.9883,-548 2761.0265,-523.2346 2682.0741,-509.7631 2620.7158,-502.8808"/>
<polygon fill="#191970" stroke="#191970" points="2620.9635,-499.3872 2610.6451,-501.7918 2620.2109,-506.3467 2620.9635,-499.3872"/>
</g>
<!-- Node59 -->
<g id="node44" class="node">
<title>Node59</title>
<g id="a_node44"><a xlink:href="Sensors_8h.html" target="_top" xlink:title="iDynTree/Sensors/Sensors.h">
<polygon fill="none" stroke="#000000" points="2506.4883,-554 2506.4883,-573 2657.4883,-573 2657.4883,-554 2506.4883,-554"/>
<text text-anchor="middle" x="2581.9883" y="-561" font-family="FreeSans.ttf" font-size="10.00" fill="#000000">iDynTree/Sensors/Sensors.h</text>
</a>
</g>
</g>
<!-- Node58&#45;&gt;Node59 -->
<g id="edge104" class="edge">
<title>Node58&#45;&gt;Node59</title>
<path fill="none" stroke="#191970" d="M2669.7383,-615.3906C2652.8714,-605.4165 2626.2784,-589.6908 2606.7848,-578.1633"/>
<polygon fill="#191970" stroke="#191970" points="2608.5134,-575.1194 2598.1242,-573.0419 2604.9503,-581.1447 2608.5134,-575.1194"/>
</g>
<!-- Node60 -->
<g id="node45" class="node">
<title>Node60</title>
<polygon fill="none" stroke="#bfbfbf" points="2713.9883,-554 2713.9883,-573 2771.9883,-573 2771.9883,-554 2713.9883,-554"/>
<text text-anchor="middle" x="2742.9883" y="-561" font-family="FreeSans.ttf" font-size="10.00" fill="#000000">memory</text>
</g>
<!-- Node58&#45;&gt;Node60 -->
<g id="edge112" class="edge">
<title>Node58&#45;&gt;Node60</title>
<path fill="none" stroke="#191970" d="M2694.8945,-615.3906C2703.4611,-606.1478 2716.6052,-591.966 2726.9886,-580.7628"/>
<polygon fill="#191970" stroke="#191970" points="2729.7258,-582.9584 2733.9565,-573.2449 2724.5918,-578.2 2729.7258,-582.9584"/>
</g>
<!-- Node59&#45;&gt;Node5 -->
<g id="edge106" class="edge">
<title>Node59&#45;&gt;Node5</title>
<path fill="none" stroke="#191970" d="M2626.6439,-553.9762C2675.4359,-543.1622 2750.1075,-525.298 2775.9883,-512 2827.2364,-485.6679 2875.9883,-487.1173 2875.9883,-429.5 2875.9883,-429.5 2875.9883,-429.5 2875.9883,-178 2875.9883,-1.3256 2659.6213,-131.1539 2483.9883,-112 2141.6439,-74.6652 1723.5557,-67.5665 1605.4344,-66.2753"/>
<polygon fill="#191970" stroke="#191970" points="1605.2957,-62.7737 1595.2601,-66.1706 1605.2236,-69.7734 1605.2957,-62.7737"/>
</g>
<!-- Node59&#45;&gt;Node10 -->
<g id="edge107" class="edge">
<title>Node59&#45;&gt;Node10</title>
<path fill="none" stroke="#191970" d="M2506.3412,-554.7351C2314.4173,-532.1429 1822.0588,-471.8248 1798.9883,-445 1783.0274,-426.4418 1798.1882,-398.2229 1811.4046,-380.0724"/>
<polygon fill="#191970" stroke="#191970" points="1814.2516,-382.1121 1817.5916,-372.0574 1808.7105,-377.8347 1814.2516,-382.1121"/>
</g>
<!-- Node59&#45;&gt;Node14 -->
<g id="edge111" class="edge">
<title>Node59&#45;&gt;Node14</title>
<path fill="none" stroke="#191970" d="M2613.7194,-553.8582C2675.5231,-533.337 2802.5058,-481.6328 2760.9883,-414 2726.569,-357.9303 2692.188,-365.2837 2628.9883,-347 2543.0344,-322.1336 2289.8697,-306.1221 2159.53,-299.2928"/>
<polygon fill="#191970" stroke="#191970" points="2159.3846,-295.7806 2149.2167,-298.7582 2159.0221,-302.7712 2159.3846,-295.7806"/>
</g>
<!-- Node59&#45;&gt;Node15 -->
<g id="edge110" class="edge">
<title>Node59&#45;&gt;Node15</title>
<path fill="none" stroke="#191970" d="M2576.5438,-553.9005C2570.7874,-543.751 2561.567,-527.4941 2554.4059,-514.8679"/>
<polygon fill="#191970" stroke="#191970" points="2557.4006,-513.0533 2549.4227,-506.0817 2551.3117,-516.5067 2557.4006,-513.0533"/>
</g>
<!-- Node59&#45;&gt;Node35 -->
<g id="edge105" class="edge">
<title>Node59&#45;&gt;Node35</title>
<path fill="none" stroke="#191970" d="M2645.6707,-553.964C2677.7007,-546.6613 2715.6318,-533.9462 2743.9883,-512 2806.0577,-463.9621 2837.9883,-440.9872 2837.9883,-362.5 2837.9883,-362.5 2837.9883,-362.5 2837.9883,-295.5 2837.9883,-223.3342 1736.6239,-188.9351 1407.0625,-180.2573"/>
<polygon fill="#191970" stroke="#191970" points="1406.6901,-176.7465 1396.602,-179.9837 1406.507,-183.7441 1406.6901,-176.7465"/>
</g>
<!-- Node59&#45;&gt;Node28 -->
<g id="edge108" class="edge">
<title>Node59&#45;&gt;Node28</title>
<path fill="none" stroke="#191970" d="M2648.1833,-553.9756C2709.3711,-544.368 2795.1845,-528.6151 2824.9883,-512 2901.1374,-469.5482 2951.9883,-449.6828 2951.9883,-362.5 2951.9883,-362.5 2951.9883,-362.5 2951.9883,-234 2951.9883,-178.7386 2968.6307,-149.4436 2927.9883,-112 2863.1233,-52.2403 2223.2287,-19.1114 2061.1479,-11.6365"/>
<polygon fill="#191970" stroke="#191970" points="2060.8942,-8.1214 2050.745,-11.1619 2060.5751,-15.1141 2060.8942,-8.1214"/>
</g>
<!-- Node59&#45;&gt;Node54 -->
<g id="edge109" class="edge">
<title>Node59&#45;&gt;Node54</title>
<path fill="none" stroke="#191970" d="M2506.4866,-555.3034C2482.6649,-552.8233 2456.2381,-550.1812 2431.9883,-548 2223.3299,-529.2315 2170.0354,-536.6368 1961.9883,-512 1689.306,-479.7091 1624.5448,-447.3355 1351.9883,-414 1162.9459,-390.8788 1114.4613,-397.2768 924.9883,-378 910.8413,-376.5607 895.8448,-374.8992 881.259,-373.21"/>
<polygon fill="#191970" stroke="#191970" points="881.5811,-369.7239 871.2422,-372.0385 880.7679,-376.6765 881.5811,-369.7239"/>
</g>
<!-- Node61&#45;&gt;Node4 -->
<g id="edge119" class="edge">
<title>Node61&#45;&gt;Node4</title>
<path fill="none" stroke="#191970" d="M375.0376,-486.9477C366.2224,-470.5852 346.5056,-436.7622 322.9883,-414 307.7089,-399.2112 287.5664,-386.2729 271.3156,-377.0637"/>
<polygon fill="#191970" stroke="#191970" points="272.7125,-373.8376 262.2633,-372.0866 269.3399,-379.9716 272.7125,-373.8376"/>
</g>
<!-- Node61&#45;&gt;Node5 -->
<g id="edge116" class="edge">
<title>Node61&#45;&gt;Node5</title>
<path fill="none" stroke="#191970" d="M380.8841,-486.6748C382.4809,-471.0352 386.3883,-439.6278 393.9883,-414 424.9729,-309.5179 451.6345,-272.9774 548.9883,-224 640.2856,-178.0695 1376.4751,-89.1716 1540.6205,-69.7902"/>
<polygon fill="#191970" stroke="#191970" points="1541.0706,-73.2615 1550.5923,-68.6154 1540.2514,-66.3096 1541.0706,-73.2615"/>
</g>
<!-- Node61&#45;&gt;Node6 -->
<g id="edge120" class="edge">
<title>Node61&#45;&gt;Node6</title>
<path fill="none" stroke="#191970" d="M308.4567,-486.9722C245.3816,-477.6472 158.9754,-462.3449 128.9883,-445 86.6071,-420.4863 55.9883,-411.46 55.9883,-362.5 55.9883,-362.5 55.9883,-362.5 55.9883,-178 55.9883,-156.5348 693.5529,-93.3854 908.9028,-72.6677"/>
<polygon fill="#191970" stroke="#191970" points="909.5194,-76.1247 919.1389,-71.6843 908.85,-69.1568 909.5194,-76.1247"/>
</g>
<!-- Node61&#45;&gt;Node10 -->
<g id="edge117" class="edge">
<title>Node61&#45;&gt;Node10</title>
<path fill="none" stroke="#191970" d="M467.7549,-493.6094C673.5306,-486.5472 1182.4617,-467.3493 1351.9883,-445 1417.7547,-436.3298 1432.6661,-425.5501 1497.9883,-414 1610.2638,-394.1478 1639.6856,-397.698 1751.9883,-378 1765.22,-375.6792 1779.6991,-372.7367 1792.3136,-370.0406"/>
<polygon fill="#191970" stroke="#191970" points="1793.3716,-373.3925 1802.4028,-367.8528 1791.8882,-366.5515 1793.3716,-373.3925"/>
</g>
<!-- Node61&#45;&gt;Node14 -->
<g id="edge121" class="edge">
<title>Node61&#45;&gt;Node14</title>
<path fill="none" stroke="#191970" d="M383.0232,-486.6815C392.6826,-456.1245 423.5708,-363.7568 448.9883,-347 510.0974,-306.7131 1692.8481,-313.8045 1765.9883,-311 1845.8092,-307.9393 1936.9889,-303.3123 2000.4521,-299.9102"/>
<polygon fill="#191970" stroke="#191970" points="2000.9893,-303.3864 2010.7867,-299.3539 2000.613,-296.3966 2000.9893,-303.3864"/>
</g>
<!-- Node61&#45;&gt;Node25 -->
<g id="edge118" class="edge">
<title>Node61&#45;&gt;Node25</title>
<path fill="none" stroke="#191970" d="M295.5015,-486.9688C238.9949,-478.8752 171.3909,-465.2978 150.9883,-445 124.314,-418.4626 131.9883,-400.1265 131.9883,-362.5 131.9883,-362.5 131.9883,-362.5 131.9883,-234 131.9883,-166.1696 606.5493,-135.7929 810.073,-125.8843"/>
<polygon fill="#191970" stroke="#191970" points="810.325,-129.3764 820.1453,-125.3999 809.9887,-122.3844 810.325,-129.3764"/>
</g>
<!-- Node61&#45;&gt;Node55 -->
<g id="edge124" class="edge">
<title>Node61&#45;&gt;Node55</title>
<path fill="none" stroke="#191970" d="M467.5634,-489.8924C638.5461,-476.9917 1014.7828,-448.6045 1183.3693,-435.8845"/>
<polygon fill="#191970" stroke="#191970" points="1183.7294,-439.3674 1193.4377,-435.1249 1183.2027,-432.3873 1183.7294,-439.3674"/>
</g>
<!-- Node62 -->
<g id="node47" class="node">
<title>Node62</title>
<g id="a_node47"><a xlink:href="FreeFloatingMatrices_8h.html" target="_top" xlink:title="iDynTree/Model/FreeFloating\lMatrices.h">
<polygon fill="none" stroke="#000000" points="159.9883,-414.5 159.9883,-444.5 313.9883,-444.5 313.9883,-414.5 159.9883,-414.5"/>
<text text-anchor="start" x="167.9883" y="-432.5" font-family="FreeSans.ttf" font-size="10.00" fill="#000000">iDynTree/Model/FreeFloating</text>
<text text-anchor="middle" x="236.9883" y="-421.5" font-family="FreeSans.ttf" font-size="10.00" fill="#000000">Matrices.h</text>
</a>
</g>
</g>
<!-- Node61&#45;&gt;Node62 -->
<g id="edge122" class="edge">
<title>Node61&#45;&gt;Node62</title>
<path fill="none" stroke="#191970" d="M359.4999,-486.9005C338.3605,-476.9961 304.8079,-461.2756 278.157,-448.7888"/>
<polygon fill="#191970" stroke="#191970" points="279.59,-445.5952 269.0497,-444.5218 276.6201,-451.9339 279.59,-445.5952"/>
</g>
<!-- Node62&#45;&gt;Node4 -->
<g id="edge123" class="edge">
<title>Node62&#45;&gt;Node4</title>
<path fill="none" stroke="#191970" d="M238.3498,-414.2967C239.2029,-404.7699 240.3111,-392.3954 241.2303,-382.1306"/>
<polygon fill="#191970" stroke="#191970" points="244.7266,-382.3273 242.1326,-372.055 237.7545,-381.7029 244.7266,-382.3273"/>
</g>
<!-- Node63&#45;&gt;Node5 -->
<g id="edge126" class="edge">
<title>Node63&#45;&gt;Node5</title>
<path fill="none" stroke="#191970" d="M2887.2992,-615.4809C2922.2347,-597.5379 2989.9883,-555.1757 2989.9883,-496.5 2989.9883,-496.5 2989.9883,-496.5 2989.9883,-234 2989.9883,-133.7778 2764.854,-112.8866 2759.9883,-112 2643.6737,-90.8052 1783.3004,-70.6714 1605.1995,-66.7043"/>
<polygon fill="#191970" stroke="#191970" points="1605.2259,-63.2042 1595.1508,-66.4816 1605.0707,-70.2025 1605.2259,-63.2042"/>
</g>
<!-- Node63&#45;&gt;Node64 -->
<g id="edge127" class="edge">
<title>Node63&#45;&gt;Node64</title>
<path fill="none" stroke="#191970" d="M2899.1758,-615.3906C2934.7016,-604.7846 2992.0109,-587.6753 3031.0324,-576.0257"/>
<polygon fill="#191970" stroke="#191970" points="3032.446,-579.2564 3041.0268,-573.0419 3030.4435,-572.5489 3032.446,-579.2564"/>
</g>
</g>
</svg>
