<?xml version="1.0" encoding="UTF-8" standalone="no"?>
<!DOCTYPE svg PUBLIC "-//W3C//DTD SVG 1.1//EN"
 "http://www.w3.org/Graphics/SVG/1.1/DTD/svg11.dtd">
<!-- Generated by graphviz version 2.40.1 (20161225.0304)
 -->
<!-- Title: VectorsVisualization.h Pages: 1 -->
<svg width="1536pt" height="666pt"
 viewBox="0.00 0.00 1536.00 666.00" xmlns="http://www.w3.org/2000/svg" xmlns:xlink="http://www.w3.org/1999/xlink">
<g id="graph0" class="graph" transform="scale(1 1) rotate(0) translate(4 662)">
<title>VectorsVisualization.h</title>
<!-- Node0 -->
<g id="node1" class="node">
<title>Node0</title>
<polygon fill="#bfbfbf" stroke="#000000" points="1243.5,-638.5 1243.5,-657.5 1368.5,-657.5 1368.5,-638.5 1243.5,-638.5"/>
<text text-anchor="middle" x="1306" y="-645.5" font-family="FreeSans.ttf" font-size="10.00" fill="#000000">VectorsVisualization.h</text>
</g>
<!-- Node1 -->
<g id="node2" class="node">
<title>Node1</title>
<g id="a_node2"><a xlink:href="Visualizer_8h.html" target="_top" xlink:title="iDynTree/Visualizer.h">
<polygon fill="none" stroke="#000000" points="859.5,-582.5 859.5,-601.5 978.5,-601.5 978.5,-582.5 859.5,-582.5"/>
<text text-anchor="middle" x="919" y="-589.5" font-family="FreeSans.ttf" font-size="10.00" fill="#000000">iDynTree/Visualizer.h</text>
</a>
</g>
</g>
<!-- Node0&#45;&gt;Node1 -->
<g id="edge1" class="edge">
<title>Node0&#45;&gt;Node1</title>
<path fill="none" stroke="#191970" d="M1243.3916,-638.9404C1173.6182,-628.844 1061.0999,-612.5623 988.6108,-602.0729"/>
<polygon fill="#191970" stroke="#191970" points="989.0548,-598.6007 978.6566,-600.6325 988.0522,-605.5286 989.0548,-598.6007"/>
</g>
<!-- Node29 -->
<g id="node30" class="node">
<title>Node29</title>
<polygon fill="none" stroke="#bfbfbf" points="1192.5,-409 1192.5,-428 1239.5,-428 1239.5,-409 1192.5,-409"/>
<text text-anchor="middle" x="1216" y="-416" font-family="FreeSans.ttf" font-size="10.00" fill="#000000">vector</text>
</g>
<!-- Node0&#45;&gt;Node29 -->
<g id="edge79" class="edge">
<title>Node0&#45;&gt;Node29</title>
<path fill="none" stroke="#191970" d="M1302.2474,-638.4309C1288.6673,-603.8017 1241.9188,-484.5929 1223.5224,-437.6821"/>
<polygon fill="#191970" stroke="#191970" points="1226.678,-436.1419 1219.7686,-428.11 1220.1612,-438.6976 1226.678,-436.1419"/>
</g>
<!-- Node38 -->
<g id="node39" class="node">
<title>Node38</title>
<polygon fill="none" stroke="#bfbfbf" points="1334.5,-582.5 1334.5,-601.5 1391.5,-601.5 1391.5,-582.5 1334.5,-582.5"/>
<text text-anchor="middle" x="1363" y="-589.5" font-family="FreeSans.ttf" font-size="10.00" fill="#000000">irrlicht.h</text>
</g>
<!-- Node0&#45;&gt;Node38 -->
<g id="edge80" class="edge">
<title>Node0&#45;&gt;Node38</title>
<path fill="none" stroke="#191970" d="M1315.9286,-638.2455C1324.1838,-630.1352 1336.1209,-618.4075 1345.9082,-608.7919"/>
<polygon fill="#191970" stroke="#191970" points="1348.5046,-611.1476 1353.1851,-601.6427 1343.5989,-606.1542 1348.5046,-611.1476"/>
</g>
<!-- Node2 -->
<g id="node3" class="node">
<title>Node2</title>
<polygon fill="none" stroke="#bfbfbf" points="428,-56.5 428,-75.5 472,-75.5 472,-56.5 428,-56.5"/>
<text text-anchor="middle" x="450" y="-63.5" font-family="FreeSans.ttf" font-size="10.00" fill="#000000">string</text>
</g>
<!-- Node1&#45;&gt;Node2 -->
<g id="edge2" class="edge">
<title>Node1&#45;&gt;Node2</title>
<path fill="none" stroke="#191970" d="M859.4099,-591.0227C655.7644,-586.9038 0,-566.8942 0,-480 0,-480 0,-480 0,-183.5 0,-145.4714 14.6088,-131.9245 47,-112 78.3764,-92.6997 327.6963,-74.2184 417.7213,-68.1114"/>
<polygon fill="#191970" stroke="#191970" points="418.142,-71.5911 427.8849,-67.4288 417.6728,-64.6069 418.142,-71.5911"/>
</g>
<!-- Node3 -->
<g id="node4" class="node">
<title>Node3</title>
<g id="a_node4"><a xlink:href="Direction_8h.html" target="_top" xlink:title="iDynTree/Core/Direction.h">
<polygon fill="none" stroke="#000000" points="1100.5,-174 1100.5,-193 1241.5,-193 1241.5,-174 1100.5,-174"/>
<text text-anchor="middle" x="1171" y="-181" font-family="FreeSans.ttf" font-size="10.00" fill="#000000">iDynTree/Core/Direction.h</text>
</a>
</g>
</g>
<!-- Node1&#45;&gt;Node3 -->
<g id="edge3" class="edge">
<title>Node1&#45;&gt;Node3</title>
<path fill="none" stroke="#191970" d="M978.5987,-585.3066C1078.2772,-572.4373 1268,-540.0545 1268,-480 1268,-480 1268,-480 1268,-301 1268,-255.6921 1224.5778,-218.4133 1195.8382,-198.7017"/>
<polygon fill="#191970" stroke="#191970" points="1197.7267,-195.7544 1187.4547,-193.1588 1193.8661,-201.5936 1197.7267,-195.7544"/>
</g>
<!-- Node18 -->
<g id="node19" class="node">
<title>Node18</title>
<g id="a_node19"><a xlink:href="Position_8h.html" target="_top" xlink:title="iDynTree/Core/Position.h">
<polygon fill="none" stroke="#000000" points="399,-291.5 399,-310.5 535,-310.5 535,-291.5 399,-291.5"/>
<text text-anchor="middle" x="467" y="-298.5" font-family="FreeSans.ttf" font-size="10.00" fill="#000000">iDynTree/Core/Position.h</text>
</a>
</g>
</g>
<!-- Node1&#45;&gt;Node18 -->
<g id="edge23" class="edge">
<title>Node1&#45;&gt;Node18</title>
<path fill="none" stroke="#191970" d="M859.3256,-587.8782C805.1108,-582.6642 723.6617,-571.1141 657,-546 612.2053,-529.1241 599.8136,-522.8538 565,-490 516.6721,-444.3928 505.8517,-428.2151 480,-367 473.7528,-352.2071 470.4662,-334.2649 468.762,-320.824"/>
<polygon fill="#191970" stroke="#191970" points="472.2286,-320.3254 467.6724,-310.7603 465.2692,-321.0789 472.2286,-320.3254"/>
</g>
<!-- Node25 -->
<g id="node26" class="node">
<title>Node25</title>
<g id="a_node26"><a xlink:href="JointState_8h.html" target="_top" xlink:title="iDynTree/Model/JointState.h">
<polygon fill="none" stroke="#000000" points="1047.5,-470.5 1047.5,-489.5 1198.5,-489.5 1198.5,-470.5 1047.5,-470.5"/>
<text text-anchor="middle" x="1123" y="-477.5" font-family="FreeSans.ttf" font-size="10.00" fill="#000000">iDynTree/Model/JointState.h</text>
</a>
</g>
</g>
<!-- Node1&#45;&gt;Node25 -->
<g id="edge42" class="edge">
<title>Node1&#45;&gt;Node25</title>
<path fill="none" stroke="#191970" d="M936.3929,-582.4509C972.2243,-562.7788 1054.4481,-517.6363 1096.7706,-494.4005"/>
<polygon fill="#191970" stroke="#191970" points="1098.5697,-497.4056 1105.6511,-489.5249 1095.2009,-491.2695 1098.5697,-497.4056"/>
</g>
<!-- Node30 -->
<g id="node31" class="node">
<title>Node30</title>
<g id="a_node31"><a xlink:href="LinkState_8h.html" target="_top" xlink:title="iDynTree/Model/LinkState.h">
<polygon fill="none" stroke="#000000" points="666.5,-526.5 666.5,-545.5 815.5,-545.5 815.5,-526.5 666.5,-526.5"/>
<text text-anchor="middle" x="741" y="-533.5" font-family="FreeSans.ttf" font-size="10.00" fill="#000000">iDynTree/Model/LinkState.h</text>
</a>
</g>
</g>
<!-- Node1&#45;&gt;Node30 -->
<g id="edge58" class="edge">
<title>Node1&#45;&gt;Node30</title>
<path fill="none" stroke="#191970" d="M888.4007,-582.3733C858.6739,-573.021 813.3841,-558.7725 780.8544,-548.5385"/>
<polygon fill="#191970" stroke="#191970" points="781.7895,-545.1636 771.2,-545.5011 779.6887,-551.8409 781.7895,-545.1636"/>
</g>
<!-- Node3&#45;&gt;Node2 -->
<g id="edge4" class="edge">
<title>Node3&#45;&gt;Node2</title>
<path fill="none" stroke="#191970" d="M1100.2922,-176.2849C1073.2979,-173.592 1042.2316,-170.567 1014,-168 821.685,-150.5132 766.8617,-184.4051 581,-132 559.8068,-126.0244 507.4694,-98.0055 475.7347,-80.4508"/>
<polygon fill="#191970" stroke="#191970" points="477.4298,-77.3887 466.9889,-75.5894 474.0288,-83.5071 477.4298,-77.3887"/>
</g>
<!-- Node4 -->
<g id="node5" class="node">
<title>Node4</title>
<g id="a_node5"><a xlink:href="VectorFixSize_8h.html" target="_top" xlink:title="iDynTree/Core/VectorFixSize.h">
<polygon fill="none" stroke="#000000" points="842.5,-112.5 842.5,-131.5 1003.5,-131.5 1003.5,-112.5 842.5,-112.5"/>
<text text-anchor="middle" x="923" y="-119.5" font-family="FreeSans.ttf" font-size="10.00" fill="#000000">iDynTree/Core/VectorFixSize.h</text>
</a>
</g>
</g>
<!-- Node3&#45;&gt;Node4 -->
<g id="edge5" class="edge">
<title>Node3&#45;&gt;Node4</title>
<path fill="none" stroke="#191970" d="M1132.5221,-173.9581C1089.1731,-163.2082 1018.6361,-145.7162 971.5373,-134.0365"/>
<polygon fill="#191970" stroke="#191970" points="972.1166,-130.5742 961.5682,-131.5643 970.4317,-137.3684 972.1166,-130.5742"/>
</g>
<!-- Node5 -->
<g id="node6" class="node">
<title>Node5</title>
<g id="a_node6"><a xlink:href="Utils_8h.html" target="_top" xlink:title="iDynTree/Core/Utils.h">
<polygon fill="none" stroke="#000000" points="969.5,-56.5 969.5,-75.5 1088.5,-75.5 1088.5,-56.5 969.5,-56.5"/>
<text text-anchor="middle" x="1029" y="-63.5" font-family="FreeSans.ttf" font-size="10.00" fill="#000000">iDynTree/Core/Utils.h</text>
</a>
</g>
</g>
<!-- Node3&#45;&gt;Node5 -->
<g id="edge22" class="edge">
<title>Node3&#45;&gt;Node5</title>
<path fill="none" stroke="#191970" d="M1159.3795,-173.8845C1135.0403,-153.7446 1078.4825,-106.945 1048.4878,-82.1255"/>
<polygon fill="#191970" stroke="#191970" points="1050.7168,-79.427 1040.781,-75.7484 1046.2541,-84.8201 1050.7168,-79.427"/>
</g>
<!-- Node4&#45;&gt;Node2 -->
<g id="edge18" class="edge">
<title>Node4&#45;&gt;Node2</title>
<path fill="none" stroke="#191970" d="M842.4941,-112.4686C736.6744,-99.9403 555.6434,-78.5075 482.2872,-69.8226"/>
<polygon fill="#191970" stroke="#191970" points="482.6093,-66.3364 472.2672,-68.6363 481.7863,-73.2878 482.6093,-66.3364"/>
</g>
<!-- Node4&#45;&gt;Node5 -->
<g id="edge6" class="edge">
<title>Node4&#45;&gt;Node5</title>
<path fill="none" stroke="#191970" d="M941.4638,-112.2455C958.1074,-103.4527 982.7993,-90.4079 1001.7192,-80.4125"/>
<polygon fill="#191970" stroke="#191970" points="1003.5408,-83.4086 1010.7478,-75.6427 1000.2709,-77.2193 1003.5408,-83.4086"/>
</g>
<!-- Node7 -->
<g id="node8" class="node">
<title>Node7</title>
<g id="a_node8"><a xlink:href="Span_8h.html" target="_top" xlink:title="iDynTree/Core/Span.h">
<polygon fill="none" stroke="#000000" points="1142.5,-56.5 1142.5,-75.5 1263.5,-75.5 1263.5,-56.5 1142.5,-56.5"/>
<text text-anchor="middle" x="1203" y="-63.5" font-family="FreeSans.ttf" font-size="10.00" fill="#000000">iDynTree/Core/Span.h</text>
</a>
</g>
</g>
<!-- Node4&#45;&gt;Node7 -->
<g id="edge8" class="edge">
<title>Node4&#45;&gt;Node7</title>
<path fill="none" stroke="#191970" d="M970.8156,-112.4369C1019.1381,-102.7724 1093.8372,-87.8326 1145.3936,-77.5213"/>
<polygon fill="#191970" stroke="#191970" points="1146.2623,-80.9169 1155.3816,-75.5237 1144.8894,-74.0529 1146.2623,-80.9169"/>
</g>
<!-- Node8 -->
<g id="node9" class="node">
<title>Node8</title>
<polygon fill="none" stroke="#bfbfbf" points="841,-.5 841,-19.5 893,-19.5 893,-.5 841,-.5"/>
<text text-anchor="middle" x="867" y="-7.5" font-family="FreeSans.ttf" font-size="10.00" fill="#000000">cassert</text>
</g>
<!-- Node4&#45;&gt;Node8 -->
<g id="edge20" class="edge">
<title>Node4&#45;&gt;Node8</title>
<path fill="none" stroke="#191970" d="M913.196,-112.2386C904.8759,-103.4506 893.1778,-89.8263 886,-76 878.4459,-61.4489 873.5253,-43.4888 870.5885,-29.9794"/>
<polygon fill="#191970" stroke="#191970" points="873.9576,-28.976 868.574,-19.851 867.0921,-30.3416 873.9576,-28.976"/>
</g>
<!-- Node16 -->
<g id="node17" class="node">
<title>Node16</title>
<polygon fill="none" stroke="#bfbfbf" points="895,-56.5 895,-75.5 951,-75.5 951,-56.5 895,-56.5"/>
<text text-anchor="middle" x="923" y="-63.5" font-family="FreeSans.ttf" font-size="10.00" fill="#000000">sstream</text>
</g>
<!-- Node4&#45;&gt;Node16 -->
<g id="edge19" class="edge">
<title>Node4&#45;&gt;Node16</title>
<path fill="none" stroke="#191970" d="M923,-112.2455C923,-104.9382 923,-94.6944 923,-85.7046"/>
<polygon fill="#191970" stroke="#191970" points="926.5001,-85.6426 923,-75.6427 919.5001,-85.6427 926.5001,-85.6426"/>
</g>
<!-- Node17 -->
<g id="node18" class="node">
<title>Node17</title>
<polygon fill="none" stroke="#bfbfbf" points="786,-56.5 786,-75.5 836,-75.5 836,-56.5 786,-56.5"/>
<text text-anchor="middle" x="811" y="-63.5" font-family="FreeSans.ttf" font-size="10.00" fill="#000000">cstring</text>
</g>
<!-- Node4&#45;&gt;Node17 -->
<g id="edge21" class="edge">
<title>Node4&#45;&gt;Node17</title>
<path fill="none" stroke="#191970" d="M903.7465,-112.3733C885.9288,-103.4644 859.2253,-90.1127 839.0406,-80.0203"/>
<polygon fill="#191970" stroke="#191970" points="840.5118,-76.8428 830.0022,-75.5011 837.3813,-83.1038 840.5118,-76.8428"/>
</g>
<!-- Node6 -->
<g id="node7" class="node">
<title>Node6</title>
<polygon fill="none" stroke="#bfbfbf" points="965.5,-.5 965.5,-19.5 1018.5,-19.5 1018.5,-.5 965.5,-.5"/>
<text text-anchor="middle" x="992" y="-7.5" font-family="FreeSans.ttf" font-size="10.00" fill="#000000">cstddef</text>
</g>
<!-- Node5&#45;&gt;Node6 -->
<g id="edge7" class="edge">
<title>Node5&#45;&gt;Node6</title>
<path fill="none" stroke="#191970" d="M1022.5551,-56.2455C1017.4618,-48.5367 1010.2092,-37.5598 1004.048,-28.2348"/>
<polygon fill="#191970" stroke="#191970" points="1006.8038,-26.0566 998.3711,-19.6427 1000.9635,-29.9155 1006.8038,-26.0566"/>
</g>
<!-- Node7&#45;&gt;Node6 -->
<g id="edge12" class="edge">
<title>Node7&#45;&gt;Node6</title>
<path fill="none" stroke="#191970" d="M1165.511,-56.464C1131.9252,-47.8625 1081.072,-34.6958 1028.5568,-20.3898"/>
<polygon fill="#191970" stroke="#191970" points="1029.3045,-16.9658 1018.7355,-17.7061 1027.4593,-23.7183 1029.3045,-16.9658"/>
</g>
<!-- Node7&#45;&gt;Node8 -->
<g id="edge9" class="edge">
<title>Node7&#45;&gt;Node8</title>
<path fill="none" stroke="#191970" d="M1145.6213,-56.4369C1076.2763,-44.8794 961.6656,-25.7776 903.4163,-16.0694"/>
<polygon fill="#191970" stroke="#191970" points="903.6588,-12.5616 893.2194,-14.3699 902.5079,-19.4663 903.6588,-12.5616"/>
</g>
<!-- Node9 -->
<g id="node10" class="node">
<title>Node9</title>
<polygon fill="none" stroke="#bfbfbf" points="1404,-.5 1404,-19.5 1468,-19.5 1468,-.5 1404,-.5"/>
<text text-anchor="middle" x="1436" y="-7.5" font-family="FreeSans.ttf" font-size="10.00" fill="#000000">algorithm</text>
</g>
<!-- Node7&#45;&gt;Node9 -->
<g id="edge10" class="edge">
<title>Node7&#45;&gt;Node9</title>
<path fill="none" stroke="#191970" d="M1242.7894,-56.4369C1284.9046,-46.3148 1351.0966,-30.406 1394.0234,-20.0888"/>
<polygon fill="#191970" stroke="#191970" points="1394.9695,-23.4612 1403.8746,-17.7211 1393.3336,-16.655 1394.9695,-23.4612"/>
</g>
<!-- Node10 -->
<g id="node11" class="node">
<title>Node10</title>
<polygon fill="none" stroke="#bfbfbf" points="1486,-.5 1486,-19.5 1528,-19.5 1528,-.5 1486,-.5"/>
<text text-anchor="middle" x="1507" y="-7.5" font-family="FreeSans.ttf" font-size="10.00" fill="#000000">array</text>
</g>
<!-- Node7&#45;&gt;Node10 -->
<g id="edge11" class="edge">
<title>Node7&#45;&gt;Node10</title>
<path fill="none" stroke="#191970" d="M1263.688,-58.5689C1317.2899,-51.3829 1397.6453,-39.0962 1475.801,-20.0023"/>
<polygon fill="#191970" stroke="#191970" points="1476.9535,-23.3225 1485.8148,-17.5149 1475.266,-16.5289 1476.9535,-23.3225"/>
</g>
<!-- Node11 -->
<g id="node12" class="node">
<title>Node11</title>
<polygon fill="none" stroke="#bfbfbf" points="1036.5,-.5 1036.5,-19.5 1089.5,-19.5 1089.5,-.5 1036.5,-.5"/>
<text text-anchor="middle" x="1063" y="-7.5" font-family="FreeSans.ttf" font-size="10.00" fill="#000000">iterator</text>
</g>
<!-- Node7&#45;&gt;Node11 -->
<g id="edge13" class="edge">
<title>Node7&#45;&gt;Node11</title>
<path fill="none" stroke="#191970" d="M1178.9331,-56.3733C1156.1572,-47.2629 1121.7656,-33.5062 1096.351,-23.3404"/>
<polygon fill="#191970" stroke="#191970" points="1097.3375,-19.9654 1086.7528,-19.5011 1094.7377,-26.4648 1097.3375,-19.9654"/>
</g>
<!-- Node12 -->
<g id="node13" class="node">
<title>Node12</title>
<polygon fill="none" stroke="#bfbfbf" points="1108,-.5 1108,-19.5 1152,-19.5 1152,-.5 1108,-.5"/>
<text text-anchor="middle" x="1130" y="-7.5" font-family="FreeSans.ttf" font-size="10.00" fill="#000000">limits</text>
</g>
<!-- Node7&#45;&gt;Node12 -->
<g id="edge14" class="edge">
<title>Node7&#45;&gt;Node12</title>
<path fill="none" stroke="#191970" d="M1190.2844,-56.2455C1179.398,-47.8943 1163.5117,-35.7076 1150.78,-25.9408"/>
<polygon fill="#191970" stroke="#191970" points="1152.6346,-22.9523 1142.5699,-19.6427 1148.3739,-28.5063 1152.6346,-22.9523"/>
</g>
<!-- Node13 -->
<g id="node14" class="node">
<title>Node13</title>
<polygon fill="none" stroke="#bfbfbf" points="1170.5,-.5 1170.5,-19.5 1235.5,-19.5 1235.5,-.5 1170.5,-.5"/>
<text text-anchor="middle" x="1203" y="-7.5" font-family="FreeSans.ttf" font-size="10.00" fill="#000000">stdexcept</text>
</g>
<!-- Node7&#45;&gt;Node13 -->
<g id="edge15" class="edge">
<title>Node7&#45;&gt;Node13</title>
<path fill="none" stroke="#191970" d="M1203,-56.2455C1203,-48.9382 1203,-38.6944 1203,-29.7046"/>
<polygon fill="#191970" stroke="#191970" points="1206.5001,-29.6426 1203,-19.6427 1199.5001,-29.6427 1206.5001,-29.6426"/>
</g>
<!-- Node14 -->
<g id="node15" class="node">
<title>Node14</title>
<polygon fill="none" stroke="#bfbfbf" points="1253.5,-.5 1253.5,-19.5 1322.5,-19.5 1322.5,-.5 1253.5,-.5"/>
<text text-anchor="middle" x="1288" y="-7.5" font-family="FreeSans.ttf" font-size="10.00" fill="#000000">type_traits</text>
</g>
<!-- Node7&#45;&gt;Node14 -->
<g id="edge16" class="edge">
<title>Node7&#45;&gt;Node14</title>
<path fill="none" stroke="#191970" d="M1217.8059,-56.2455C1230.7256,-47.7337 1249.6931,-35.2375 1264.6552,-25.3801"/>
<polygon fill="#191970" stroke="#191970" points="1266.9387,-28.067 1273.3638,-19.6427 1263.0876,-22.2216 1266.9387,-28.067"/>
</g>
<!-- Node15 -->
<g id="node16" class="node">
<title>Node15</title>
<polygon fill="none" stroke="#bfbfbf" points="1340.5,-.5 1340.5,-19.5 1385.5,-19.5 1385.5,-.5 1340.5,-.5"/>
<text text-anchor="middle" x="1363" y="-7.5" font-family="FreeSans.ttf" font-size="10.00" fill="#000000">utility</text>
</g>
<!-- Node7&#45;&gt;Node15 -->
<g id="edge17" class="edge">
<title>Node7&#45;&gt;Node15</title>
<path fill="none" stroke="#191970" d="M1230.505,-56.3733C1258.3188,-46.6384 1301.2899,-31.5985 1330.7051,-21.3032"/>
<polygon fill="#191970" stroke="#191970" points="1332.2148,-24.4831 1340.4972,-17.876 1329.9023,-17.8761 1332.2148,-24.4831"/>
</g>
<!-- Node18&#45;&gt;Node2 -->
<g id="edge41" class="edge">
<title>Node18&#45;&gt;Node2</title>
<path fill="none" stroke="#191970" d="M430.5643,-291.4565C388.826,-278.3519 322.4189,-250.3466 293,-199 259.0619,-139.7658 363.2853,-94.8519 418.3062,-75.8874"/>
<polygon fill="#191970" stroke="#191970" points="419.5936,-79.1474 427.9628,-72.6507 417.3689,-72.5103 419.5936,-79.1474"/>
</g>
<!-- Node19 -->
<g id="node20" class="node">
<title>Node19</title>
<g id="a_node20"><a xlink:href="PositionRaw_8h.html" target="_top" xlink:title="iDynTree/Core/PositionRaw.h">
<polygon fill="none" stroke="#000000" points="302,-174 302,-193 458,-193 458,-174 302,-174"/>
<text text-anchor="middle" x="380" y="-181" font-family="FreeSans.ttf" font-size="10.00" fill="#000000">iDynTree/Core/PositionRaw.h</text>
</a>
</g>
</g>
<!-- Node18&#45;&gt;Node19 -->
<g id="edge24" class="edge">
<title>Node18&#45;&gt;Node19</title>
<path fill="none" stroke="#191970" d="M459.8804,-291.3845C445.3507,-271.761 412.0807,-226.8274 393.3848,-201.5772"/>
<polygon fill="#191970" stroke="#191970" points="395.9815,-199.2024 387.2179,-193.2484 390.3557,-203.3679 395.9815,-199.2024"/>
</g>
<!-- Node20 -->
<g id="node21" class="node">
<title>Node20</title>
<g id="a_node21"><a xlink:href="Rotation_8h.html" target="_top" xlink:title="iDynTree/Core/Rotation.h">
<polygon fill="none" stroke="#000000" points="524.5,-235.5 524.5,-254.5 661.5,-254.5 661.5,-235.5 524.5,-235.5"/>
<text text-anchor="middle" x="593" y="-242.5" font-family="FreeSans.ttf" font-size="10.00" fill="#000000">iDynTree/Core/Rotation.h</text>
</a>
</g>
</g>
<!-- Node18&#45;&gt;Node20 -->
<g id="edge27" class="edge">
<title>Node18&#45;&gt;Node20</title>
<path fill="none" stroke="#191970" d="M488.6602,-291.3733C508.9772,-282.3435 539.564,-268.7494 562.375,-258.6111"/>
<polygon fill="#191970" stroke="#191970" points="563.9059,-261.7609 571.6225,-254.5011 561.0628,-255.3642 563.9059,-261.7609"/>
</g>
<!-- Node19&#45;&gt;Node2 -->
<g id="edge26" class="edge">
<title>Node19&#45;&gt;Node2</title>
<path fill="none" stroke="#191970" d="M385.7284,-173.8845C397.3677,-154.3471 423.9534,-109.7211 439.032,-84.4106"/>
<polygon fill="#191970" stroke="#191970" points="442.0812,-86.1307 444.1925,-75.7484 436.0675,-82.5481 442.0812,-86.1307"/>
</g>
<!-- Node19&#45;&gt;Node4 -->
<g id="edge25" class="edge">
<title>Node19&#45;&gt;Node4</title>
<path fill="none" stroke="#191970" d="M455.3339,-173.9884C471.7025,-171.9693 488.9276,-169.8808 505,-168 617.7078,-154.8111 747.6437,-140.6803 832.3392,-131.6133"/>
<polygon fill="#191970" stroke="#191970" points="832.8684,-135.0768 842.4394,-130.5331 832.1239,-128.1164 832.8684,-135.0768"/>
</g>
<!-- Node20&#45;&gt;Node2 -->
<g id="edge28" class="edge">
<title>Node20&#45;&gt;Node2</title>
<path fill="none" stroke="#191970" d="M563.1304,-235.3967C544.3166,-228.0293 520.7034,-216.1765 505,-199 474.6366,-165.7882 459.7745,-113.4832 453.6304,-85.3852"/>
<polygon fill="#191970" stroke="#191970" points="457.0577,-84.6749 451.6287,-75.5767 450.1991,-86.0746 457.0577,-84.6749"/>
</g>
<!-- Node20&#45;&gt;Node4 -->
<g id="edge40" class="edge">
<title>Node20&#45;&gt;Node4</title>
<path fill="none" stroke="#191970" d="M618.62,-235.4507C677.1007,-213.6534 820.5228,-160.1961 887.483,-135.2381"/>
<polygon fill="#191970" stroke="#191970" points="889.021,-138.4002 897.1688,-131.628 886.5762,-131.841 889.021,-138.4002"/>
</g>
<!-- Node21 -->
<g id="node22" class="node">
<title>Node21</title>
<g id="a_node22"><a xlink:href="GeomVector3_8h.html" target="_top" xlink:title="iDynTree/Core/GeomVector3.h">
<polygon fill="none" stroke="#000000" points="842.5,-174 842.5,-193 1005.5,-193 1005.5,-174 842.5,-174"/>
<text text-anchor="middle" x="924" y="-181" font-family="FreeSans.ttf" font-size="10.00" fill="#000000">iDynTree/Core/GeomVector3.h</text>
</a>
</g>
</g>
<!-- Node20&#45;&gt;Node21 -->
<g id="edge29" class="edge">
<title>Node20&#45;&gt;Node21</title>
<path fill="none" stroke="#191970" d="M644.3556,-235.4581C703.2689,-224.512 799.8065,-206.5752 862.6299,-194.9026"/>
<polygon fill="#191970" stroke="#191970" points="863.6039,-198.2816 872.7963,-193.0137 862.3252,-191.3994 863.6039,-198.2816"/>
</g>
<!-- Node22 -->
<g id="node23" class="node">
<title>Node22</title>
<g id="a_node23"><a xlink:href="RotationRaw_8h.html" target="_top" xlink:title="iDynTree/Core/RotationRaw.h">
<polygon fill="none" stroke="#000000" points="514,-174 514,-193 672,-193 672,-174 514,-174"/>
<text text-anchor="middle" x="593" y="-181" font-family="FreeSans.ttf" font-size="10.00" fill="#000000">iDynTree/Core/RotationRaw.h</text>
</a>
</g>
</g>
<!-- Node20&#45;&gt;Node22 -->
<g id="edge31" class="edge">
<title>Node20&#45;&gt;Node22</title>
<path fill="none" stroke="#191970" d="M593,-235.3906C593,-226.8657 593,-214.1392 593,-203.4235"/>
<polygon fill="#191970" stroke="#191970" points="596.5001,-203.2448 593,-193.2449 589.5001,-203.2449 596.5001,-203.2448"/>
</g>
<!-- Node21&#45;&gt;Node4 -->
<g id="edge30" class="edge">
<title>Node21&#45;&gt;Node4</title>
<path fill="none" stroke="#191970" d="M923.8438,-173.8906C923.7051,-165.3657 923.4982,-152.6392 923.324,-141.9235"/>
<polygon fill="#191970" stroke="#191970" points="926.8207,-141.6866 923.1585,-131.7449 919.8216,-141.8005 926.8207,-141.6866"/>
</g>
<!-- Node22&#45;&gt;Node2 -->
<g id="edge39" class="edge">
<title>Node22&#45;&gt;Node2</title>
<path fill="none" stroke="#191970" d="M581.2977,-173.8845C556.787,-153.7446 499.8309,-106.945 469.625,-82.1255"/>
<polygon fill="#191970" stroke="#191970" points="471.8123,-79.3927 461.864,-75.7484 467.3683,-84.8012 471.8123,-79.3927"/>
</g>
<!-- Node23 -->
<g id="node24" class="node">
<title>Node23</title>
<g id="a_node24"><a xlink:href="MatrixFixSize_8h.html" target="_top" xlink:title="iDynTree/Core/MatrixFixSize.h">
<polygon fill="none" stroke="#000000" points="590.5,-112.5 590.5,-131.5 751.5,-131.5 751.5,-112.5 590.5,-112.5"/>
<text text-anchor="middle" x="671" y="-119.5" font-family="FreeSans.ttf" font-size="10.00" fill="#000000">iDynTree/Core/MatrixFixSize.h</text>
</a>
</g>
</g>
<!-- Node22&#45;&gt;Node23 -->
<g id="edge32" class="edge">
<title>Node22&#45;&gt;Node23</title>
<path fill="none" stroke="#191970" d="M605.1875,-173.8906C617.437,-164.2324 636.5263,-149.1812 650.9977,-137.771"/>
<polygon fill="#191970" stroke="#191970" points="653.2124,-140.4819 658.8981,-131.5419 648.8783,-134.985 653.2124,-140.4819"/>
</g>
<!-- Node23&#45;&gt;Node2 -->
<g id="edge36" class="edge">
<title>Node23&#45;&gt;Node2</title>
<path fill="none" stroke="#191970" d="M633.2599,-112.4369C590.6179,-101.6317 521.9527,-84.2324 481.8867,-74.0799"/>
<polygon fill="#191970" stroke="#191970" points="482.6631,-70.6661 472.1097,-71.6025 480.9436,-77.4516 482.6631,-70.6661"/>
</g>
<!-- Node23&#45;&gt;Node5 -->
<g id="edge33" class="edge">
<title>Node23&#45;&gt;Node5</title>
<path fill="none" stroke="#191970" d="M732.1356,-112.4369C795.2003,-102.572 893.4023,-87.2108 959.4073,-76.886"/>
<polygon fill="#191970" stroke="#191970" points="959.9698,-80.3407 969.3087,-75.3372 958.8879,-73.4248 959.9698,-80.3407"/>
</g>
<!-- Node23&#45;&gt;Node8 -->
<g id="edge34" class="edge">
<title>Node23&#45;&gt;Node8</title>
<path fill="none" stroke="#191970" d="M671.4343,-112.4151C672.6144,-98.0559 676.9722,-71.0442 693,-56 712.815,-37.4011 786.0394,-22.8391 830.9417,-15.4153"/>
<polygon fill="#191970" stroke="#191970" points="831.5656,-18.86 840.8805,-13.8119 830.4507,-11.9493 831.5656,-18.86"/>
</g>
<!-- Node23&#45;&gt;Node16 -->
<g id="edge38" class="edge">
<title>Node23&#45;&gt;Node16</title>
<path fill="none" stroke="#191970" d="M714.034,-112.4369C762.1281,-101.7493 839.2531,-84.6104 885.1369,-74.414"/>
<polygon fill="#191970" stroke="#191970" points="885.9828,-77.8115 894.9854,-72.2255 884.4642,-70.9782 885.9828,-77.8115"/>
</g>
<!-- Node23&#45;&gt;Node17 -->
<g id="edge35" class="edge">
<title>Node23&#45;&gt;Node17</title>
<path fill="none" stroke="#191970" d="M695.0669,-112.3733C717.8428,-103.2629 752.2344,-89.5062 777.649,-79.3404"/>
<polygon fill="#191970" stroke="#191970" points="779.2623,-82.4648 787.2472,-75.5011 776.6625,-75.9654 779.2623,-82.4648"/>
</g>
<!-- Node24 -->
<g id="node25" class="node">
<title>Node24</title>
<polygon fill="none" stroke="#bfbfbf" points="702,-56.5 702,-75.5 762,-75.5 762,-56.5 702,-56.5"/>
<text text-anchor="middle" x="732" y="-63.5" font-family="FreeSans.ttf" font-size="10.00" fill="#000000">iostream</text>
</g>
<!-- Node23&#45;&gt;Node24 -->
<g id="edge37" class="edge">
<title>Node23&#45;&gt;Node24</title>
<path fill="none" stroke="#191970" d="M681.6254,-112.2455C690.5473,-104.0549 703.488,-92.1749 714.0192,-82.5069"/>
<polygon fill="#191970" stroke="#191970" points="716.4968,-84.9837 721.4964,-75.6427 711.7629,-79.8271 716.4968,-84.9837"/>
</g>
<!-- Node25&#45;&gt;Node4 -->
<g id="edge43" class="edge">
<title>Node25&#45;&gt;Node4</title>
<path fill="none" stroke="#191970" d="M1128.5294,-470.4777C1139.7207,-450.2774 1164,-401.3433 1164,-357 1164,-357 1164,-357 1164,-301 1164,-218.9606 1103.9144,-214.0228 1036,-168 1014.7121,-153.5741 988.2011,-142.4853 966.2087,-134.8128"/>
<polygon fill="#191970" stroke="#191970" points="967.0512,-131.4034 956.4571,-131.5283 964.8168,-138.0373 967.0512,-131.4034"/>
</g>
<!-- Node26 -->
<g id="node27" class="node">
<title>Node26</title>
<g id="a_node27"><a xlink:href="VectorDynSize_8h.html" target="_top" xlink:title="iDynTree/Core/VectorDynSize.h">
<polygon fill="none" stroke="#000000" points="1335.5,-112.5 1335.5,-131.5 1502.5,-131.5 1502.5,-112.5 1335.5,-112.5"/>
<text text-anchor="middle" x="1419" y="-119.5" font-family="FreeSans.ttf" font-size="10.00" fill="#000000">iDynTree/Core/VectorDynSize.h</text>
</a>
</g>
</g>
<!-- Node25&#45;&gt;Node26 -->
<g id="edge44" class="edge">
<title>Node25&#45;&gt;Node26</title>
<path fill="none" stroke="#191970" d="M1130.2787,-470.4286C1141.458,-455.7809 1163.5992,-426.9785 1183,-403 1264.8967,-301.7792 1366.4444,-183.0812 1404.0701,-139.3243"/>
<polygon fill="#191970" stroke="#191970" points="1406.848,-141.4621 1410.7182,-131.5995 1401.5423,-136.8959 1406.848,-141.4621"/>
</g>
<!-- Node27 -->
<g id="node28" class="node">
<title>Node27</title>
<g id="a_node28"><a xlink:href="SpatialForceVector_8h.html" target="_top" xlink:title="iDynTree/Core/SpatialForce\lVector.h">
<polygon fill="none" stroke="#000000" points="950,-403.5 950,-433.5 1098,-433.5 1098,-403.5 950,-403.5"/>
<text text-anchor="start" x="958" y="-421.5" font-family="FreeSans.ttf" font-size="10.00" fill="#000000">iDynTree/Core/SpatialForce</text>
<text text-anchor="middle" x="1024" y="-410.5" font-family="FreeSans.ttf" font-size="10.00" fill="#000000">Vector.h</text>
</a>
</g>
</g>
<!-- Node25&#45;&gt;Node27 -->
<g id="edge47" class="edge">
<title>Node25&#45;&gt;Node27</title>
<path fill="none" stroke="#191970" d="M1107.5313,-470.3906C1094.0087,-461.9903 1073.9189,-449.5103 1056.8302,-438.8945"/>
<polygon fill="#191970" stroke="#191970" points="1058.5595,-435.8484 1048.2181,-433.5446 1054.8656,-441.7945 1058.5595,-435.8484"/>
</g>
<!-- Node25&#45;&gt;Node29 -->
<g id="edge57" class="edge">
<title>Node25&#45;&gt;Node29</title>
<path fill="none" stroke="#191970" d="M1137.5313,-470.3906C1152.4094,-460.5519 1175.7504,-445.1167 1193.1128,-433.6351"/>
<polygon fill="#191970" stroke="#191970" points="1195.1602,-436.4773 1201.5708,-428.0419 1191.299,-430.6385 1195.1602,-436.4773"/>
</g>
<!-- Node26&#45;&gt;Node2 -->
<g id="edge46" class="edge">
<title>Node26&#45;&gt;Node2</title>
<path fill="none" stroke="#191970" d="M1335.1243,-117.1527C1131.2241,-105.369 616.4599,-75.62 482.3505,-67.8696"/>
<polygon fill="#191970" stroke="#191970" points="482.4915,-64.372 472.3062,-67.2891 482.0875,-71.3603 482.4915,-64.372"/>
</g>
<!-- Node26&#45;&gt;Node7 -->
<g id="edge45" class="edge">
<title>Node26&#45;&gt;Node7</title>
<path fill="none" stroke="#191970" d="M1381.8683,-112.3733C1345.1733,-102.8598 1288.9361,-88.2797 1249.3349,-78.0127"/>
<polygon fill="#191970" stroke="#191970" points="1250.2056,-74.6228 1239.6472,-75.5011 1248.4488,-81.3988 1250.2056,-74.6228"/>
</g>
<!-- Node27&#45;&gt;Node4 -->
<g id="edge48" class="edge">
<title>Node27&#45;&gt;Node4</title>
<path fill="none" stroke="#191970" d="M1028.3263,-403.3584C1039.2651,-361.7276 1063.7694,-243.6225 1014,-168 1003.9936,-152.7957 987.3454,-142.3842 971.0048,-135.3683"/>
<polygon fill="#191970" stroke="#191970" points="972.059,-132.022 961.4719,-131.6192 969.4971,-138.5363 972.059,-132.022"/>
</g>
<!-- Node27&#45;&gt;Node21 -->
<g id="edge49" class="edge">
<title>Node27&#45;&gt;Node21</title>
<path fill="none" stroke="#191970" d="M1021.769,-403.3962C1019.3331,-388.7042 1014.8419,-365.8975 1008,-347 987.9909,-291.7344 953.2936,-231.3613 935.4,-201.836"/>
<polygon fill="#191970" stroke="#191970" points="938.2302,-199.7558 930.0214,-193.0575 932.2615,-203.4129 938.2302,-199.7558"/>
</g>
<!-- Node28 -->
<g id="node29" class="node">
<title>Node28</title>
<g id="a_node29"><a xlink:href="SpatialVector_8h.html" target="_top" xlink:title="iDynTree/Core/SpatialVector.h">
<polygon fill="none" stroke="#000000" points="838.5,-347.5 838.5,-366.5 999.5,-366.5 999.5,-347.5 838.5,-347.5"/>
<text text-anchor="middle" x="919" y="-354.5" font-family="FreeSans.ttf" font-size="10.00" fill="#000000">iDynTree/Core/SpatialVector.h</text>
</a>
</g>
</g>
<!-- Node27&#45;&gt;Node28 -->
<g id="edge50" class="edge">
<title>Node27&#45;&gt;Node28</title>
<path fill="none" stroke="#191970" d="M998.3141,-403.4554C981.8703,-393.8241 960.6292,-381.3828 944.2677,-371.7996"/>
<polygon fill="#191970" stroke="#191970" points="945.669,-368.5643 935.2713,-366.5303 942.1312,-374.6045 945.669,-368.5643"/>
</g>
<!-- Node28&#45;&gt;Node5 -->
<g id="edge53" class="edge">
<title>Node28&#45;&gt;Node5</title>
<path fill="none" stroke="#191970" d="M991.6166,-347.4537C1074.9252,-332.1904 1207.8798,-293.6509 1269,-199 1314.3649,-128.7478 1184.6555,-92.3033 1098.6502,-76.3352"/>
<polygon fill="#191970" stroke="#191970" points="1099.1157,-72.8628 1088.6535,-74.534 1097.8743,-79.7519 1099.1157,-72.8628"/>
</g>
<!-- Node28&#45;&gt;Node16 -->
<g id="edge56" class="edge">
<title>Node28&#45;&gt;Node16</title>
<path fill="none" stroke="#191970" d="M928.0707,-347.239C950.4234,-323.8253 1010.9353,-264.2511 1074,-235 1149.9285,-199.7823 1299.5953,-235.4221 1250,-168 1241.1537,-155.9739 1044.9307,-100.0398 960.7753,-76.4923"/>
<polygon fill="#191970" stroke="#191970" points="961.6611,-73.1058 951.0882,-73.7863 959.7778,-79.8477 961.6611,-73.1058"/>
</g>
<!-- Node28&#45;&gt;Node18 -->
<g id="edge51" class="edge">
<title>Node28&#45;&gt;Node18</title>
<path fill="none" stroke="#191970" d="M842.0683,-347.4686C759.3329,-337.2182 628.4852,-321.007 545.2449,-310.6941"/>
<polygon fill="#191970" stroke="#191970" points="545.4392,-307.1914 535.0847,-309.4353 544.5784,-314.1383 545.4392,-307.1914"/>
</g>
<!-- Node28&#45;&gt;Node20 -->
<g id="edge52" class="edge">
<title>Node28&#45;&gt;Node20</title>
<path fill="none" stroke="#191970" d="M891.2054,-347.4509C832.6222,-327.3242 696.4361,-280.5363 630.3307,-257.8253"/>
<polygon fill="#191970" stroke="#191970" points="631.3189,-254.464 620.7242,-254.5249 629.0444,-261.0842 631.3189,-254.464"/>
</g>
<!-- Node28&#45;&gt;Node21 -->
<g id="edge54" class="edge">
<title>Node28&#45;&gt;Node21</title>
<path fill="none" stroke="#191970" d="M919.2759,-347.4248C920.0663,-319.999 922.3507,-240.732 923.4266,-203.3964"/>
<polygon fill="#191970" stroke="#191970" points="926.9291,-203.3562 923.7187,-193.2595 919.932,-203.1545 926.9291,-203.3562"/>
</g>
<!-- Node28&#45;&gt;Node24 -->
<g id="edge55" class="edge">
<title>Node28&#45;&gt;Node24</title>
<path fill="none" stroke="#191970" d="M912.7782,-347.3179C885.8795,-305.4595 779.3419,-139.6711 743.6916,-84.1938"/>
<polygon fill="#191970" stroke="#191970" points="746.5958,-82.239 738.2452,-75.7185 740.7069,-86.0234 746.5958,-82.239"/>
</g>
<!-- Node30&#45;&gt;Node29 -->
<g id="edge78" class="edge">
<title>Node30&#45;&gt;Node29</title>
<path fill="none" stroke="#191970" d="M815.8788,-533.6476C940.504,-529.0003 1179.5858,-516.6886 1207,-490 1220.402,-476.9527 1221.2202,-454.7601 1219.5815,-438.5531"/>
<polygon fill="#191970" stroke="#191970" points="1223.0241,-437.8973 1218.179,-428.4752 1216.0909,-438.8623 1223.0241,-437.8973"/>
</g>
<!-- Node31 -->
<g id="node32" class="node">
<title>Node31</title>
<g id="a_node32"><a xlink:href="Transform_8h.html" target="_top" xlink:title="iDynTree/Core/Transform.h">
<polygon fill="none" stroke="#000000" points="489,-347.5 489,-366.5 635,-366.5 635,-347.5 489,-347.5"/>
<text text-anchor="middle" x="562" y="-354.5" font-family="FreeSans.ttf" font-size="10.00" fill="#000000">iDynTree/Core/Transform.h</text>
</a>
</g>
</g>
<!-- Node30&#45;&gt;Node31 -->
<g id="edge59" class="edge">
<title>Node30&#45;&gt;Node31</title>
<path fill="none" stroke="#191970" d="M684.6045,-526.4686C644.263,-518.4625 594.7599,-505.8039 581,-490 553.4164,-458.3191 555.2394,-405.391 558.7455,-376.789"/>
<polygon fill="#191970" stroke="#191970" points="562.2244,-377.1843 560.1658,-366.7913 555.294,-376.1996 562.2244,-377.1843"/>
</g>
<!-- Node32 -->
<g id="node33" class="node">
<title>Node32</title>
<g id="a_node33"><a xlink:href="Twist_8h.html" target="_top" xlink:title="iDynTree/Core/Twist.h">
<polygon fill="none" stroke="#000000" points="756,-470.5 756,-489.5 878,-489.5 878,-470.5 756,-470.5"/>
<text text-anchor="middle" x="817" y="-477.5" font-family="FreeSans.ttf" font-size="10.00" fill="#000000">iDynTree/Core/Twist.h</text>
</a>
</g>
</g>
<!-- Node30&#45;&gt;Node32 -->
<g id="edge64" class="edge">
<title>Node30&#45;&gt;Node32</title>
<path fill="none" stroke="#191970" d="M754.2382,-526.2455C765.681,-517.814 782.4296,-505.4729 795.7475,-495.6598"/>
<polygon fill="#191970" stroke="#191970" points="797.9391,-498.3924 803.9135,-489.6427 793.7867,-492.757 797.9391,-498.3924"/>
</g>
<!-- Node34 -->
<g id="node35" class="node">
<title>Node34</title>
<g id="a_node35"><a xlink:href="SpatialAcc_8h.html" target="_top" xlink:title="iDynTree/Core/SpatialAcc.h">
<polygon fill="none" stroke="#000000" points="590,-470.5 590,-489.5 738,-489.5 738,-470.5 590,-470.5"/>
<text text-anchor="middle" x="664" y="-477.5" font-family="FreeSans.ttf" font-size="10.00" fill="#000000">iDynTree/Core/SpatialAcc.h</text>
</a>
</g>
</g>
<!-- Node30&#45;&gt;Node34 -->
<g id="edge69" class="edge">
<title>Node30&#45;&gt;Node34</title>
<path fill="none" stroke="#191970" d="M727.5876,-526.2455C715.9943,-517.814 699.0252,-505.4729 685.5322,-495.6598"/>
<polygon fill="#191970" stroke="#191970" points="687.4047,-492.6938 677.2587,-489.6427 683.2874,-498.355 687.4047,-492.6938"/>
</g>
<!-- Node35 -->
<g id="node36" class="node">
<title>Node35</title>
<g id="a_node36"><a xlink:href="Wrench_8h.html" target="_top" xlink:title="iDynTree/Core/Wrench.h">
<polygon fill="none" stroke="#000000" points="896.5,-470.5 896.5,-489.5 1029.5,-489.5 1029.5,-470.5 896.5,-470.5"/>
<text text-anchor="middle" x="963" y="-477.5" font-family="FreeSans.ttf" font-size="10.00" fill="#000000">iDynTree/Core/Wrench.h</text>
</a>
</g>
</g>
<!-- Node30&#45;&gt;Node35 -->
<g id="edge71" class="edge">
<title>Node30&#45;&gt;Node35</title>
<path fill="none" stroke="#191970" d="M778.9109,-526.4369C816.665,-516.9133 874.7265,-502.2672 915.5264,-491.9753"/>
<polygon fill="#191970" stroke="#191970" points="916.4053,-495.3633 925.2454,-489.5237 914.6931,-488.576 916.4053,-495.3633"/>
</g>
<!-- Node36 -->
<g id="node37" class="node">
<title>Node36</title>
<g id="a_node37"><a xlink:href="ArticulatedBodyInertia_8h.html" target="_top" xlink:title="iDynTree/Core/Articulated\lBodyInertia.h">
<polygon fill="none" stroke="#000000" points="104.5,-168.5 104.5,-198.5 245.5,-198.5 245.5,-168.5 104.5,-168.5"/>
<text text-anchor="start" x="112.5" y="-186.5" font-family="FreeSans.ttf" font-size="10.00" fill="#000000">iDynTree/Core/Articulated</text>
<text text-anchor="middle" x="175" y="-175.5" font-family="FreeSans.ttf" font-size="10.00" fill="#000000">BodyInertia.h</text>
</a>
</g>
</g>
<!-- Node30&#45;&gt;Node36 -->
<g id="edge73" class="edge">
<title>Node30&#45;&gt;Node36</title>
<path fill="none" stroke="#191970" d="M666.3746,-527.6751C516.6895,-509.9642 194,-466.2462 194,-418.5 194,-418.5 194,-418.5 194,-301 194,-268.7443 186.9361,-232.1392 181.4226,-208.4809"/>
<polygon fill="#191970" stroke="#191970" points="184.7818,-207.4812 179.0294,-198.584 177.9779,-209.1265 184.7818,-207.4812"/>
</g>
<!-- Node37 -->
<g id="node38" class="node">
<title>Node37</title>
<g id="a_node38"><a xlink:href="Indices_8h.html" target="_top" xlink:title="iDynTree/Model/Indices.h">
<polygon fill="none" stroke="#000000" points="28,-291.5 28,-310.5 166,-310.5 166,-291.5 28,-291.5"/>
<text text-anchor="middle" x="97" y="-298.5" font-family="FreeSans.ttf" font-size="10.00" fill="#000000">iDynTree/Model/Indices.h</text>
</a>
</g>
</g>
<!-- Node30&#45;&gt;Node37 -->
<g id="edge76" class="edge">
<title>Node30&#45;&gt;Node37</title>
<path fill="none" stroke="#191970" d="M666.4013,-534.0957C522.8136,-529.8234 218.7149,-517.6042 180,-490 122.7781,-449.2001 104.519,-360.0026 99.1073,-320.497"/>
<polygon fill="#191970" stroke="#191970" points="102.578,-320.0436 97.8774,-310.5486 95.6309,-320.9026 102.578,-320.0436"/>
</g>
<!-- Node31&#45;&gt;Node2 -->
<g id="edge63" class="edge">
<title>Node31&#45;&gt;Node2</title>
<path fill="none" stroke="#191970" d="M510.4663,-347.4962C399.3707,-325.8306 143.4263,-269.1845 95,-199 87.1754,-187.6597 87.4102,-179.4988 95,-168 131.1738,-113.196 336.6786,-80.7974 417.4263,-70.0309"/>
<polygon fill="#191970" stroke="#191970" points="418.0594,-73.478 427.5214,-68.7115 417.1522,-66.5371 418.0594,-73.478"/>
</g>
<!-- Node31&#45;&gt;Node18 -->
<g id="edge60" class="edge">
<title>Node31&#45;&gt;Node18</title>
<path fill="none" stroke="#191970" d="M545.4523,-347.2455C530.7401,-338.5731 509.0112,-325.7645 492.1495,-315.825"/>
<polygon fill="#191970" stroke="#191970" points="493.7502,-312.7057 483.3581,-310.6427 490.1954,-318.736 493.7502,-312.7057"/>
</g>
<!-- Node31&#45;&gt;Node20 -->
<g id="edge61" class="edge">
<title>Node31&#45;&gt;Node20</title>
<path fill="none" stroke="#191970" d="M564.643,-347.4509C569.722,-329.1013 580.9347,-288.5908 587.6388,-264.3693"/>
<polygon fill="#191970" stroke="#191970" points="591.0692,-265.0962 590.3636,-254.5249 584.3228,-263.2289 591.0692,-265.0962"/>
</g>
<!-- Node31&#45;&gt;Node23 -->
<g id="edge62" class="edge">
<title>Node31&#45;&gt;Node23</title>
<path fill="none" stroke="#191970" d="M576.9973,-347.4558C600.8188,-331.4428 646.9598,-296.7806 670,-255 689.7966,-219.1013 682.6158,-169.0274 676.3545,-141.7055"/>
<polygon fill="#191970" stroke="#191970" points="679.7023,-140.6641 673.8919,-131.8047 672.9092,-142.3538 679.7023,-140.6641"/>
</g>
<!-- Node33 -->
<g id="node34" class="node">
<title>Node33</title>
<g id="a_node34"><a xlink:href="SpatialMotionVector_8h.html" target="_top" xlink:title="iDynTree/Core/SpatialMotion\lVector.h">
<polygon fill="none" stroke="#000000" points="732.5,-403.5 732.5,-433.5 887.5,-433.5 887.5,-403.5 732.5,-403.5"/>
<text text-anchor="start" x="740.5" y="-421.5" font-family="FreeSans.ttf" font-size="10.00" fill="#000000">iDynTree/Core/SpatialMotion</text>
<text text-anchor="middle" x="810" y="-410.5" font-family="FreeSans.ttf" font-size="10.00" fill="#000000">Vector.h</text>
</a>
</g>
</g>
<!-- Node32&#45;&gt;Node33 -->
<g id="edge65" class="edge">
<title>Node32&#45;&gt;Node33</title>
<path fill="none" stroke="#191970" d="M815.9063,-470.3906C815.0905,-463.2234 813.9366,-453.0862 812.865,-443.671"/>
<polygon fill="#191970" stroke="#191970" points="816.3209,-443.0846 811.7124,-433.5446 809.3658,-443.8763 816.3209,-443.0846"/>
</g>
<!-- Node33&#45;&gt;Node4 -->
<g id="edge66" class="edge">
<title>Node33&#45;&gt;Node4</title>
<path fill="none" stroke="#191970" d="M806.7531,-403.3172C798.7249,-361.581 782.0893,-243.2316 833,-168 843.2764,-152.8144 860.1581,-142.3617 876.5409,-135.3082"/>
<polygon fill="#191970" stroke="#191970" points="878.0631,-138.47 886.0754,-131.5379 875.489,-131.9605 878.0631,-138.47"/>
</g>
<!-- Node33&#45;&gt;Node21 -->
<g id="edge67" class="edge">
<title>Node33&#45;&gt;Node21</title>
<path fill="none" stroke="#191970" d="M812.8042,-403.3297C815.8117,-388.5883 821.2275,-365.7461 829,-347 852.1454,-291.1768 891.124,-231.0974 911.1988,-201.7456"/>
<polygon fill="#191970" stroke="#191970" points="914.202,-203.5562 917.0083,-193.3398 908.4434,-199.5763 914.202,-203.5562"/>
</g>
<!-- Node33&#45;&gt;Node28 -->
<g id="edge68" class="edge">
<title>Node33&#45;&gt;Node28</title>
<path fill="none" stroke="#191970" d="M836.6644,-403.4554C853.8941,-393.734 876.1975,-381.15 893.2446,-371.5317"/>
<polygon fill="#191970" stroke="#191970" points="895.1194,-374.4926 902.1089,-366.5303 891.6796,-368.3961 895.1194,-374.4926"/>
</g>
<!-- Node34&#45;&gt;Node33 -->
<g id="edge70" class="edge">
<title>Node34&#45;&gt;Node33</title>
<path fill="none" stroke="#191970" d="M686.8125,-470.3906C707.6696,-461.6049 739.1207,-448.3567 765.0225,-437.446"/>
<polygon fill="#191970" stroke="#191970" points="766.4273,-440.6522 774.2844,-433.5446 763.7099,-434.2011 766.4273,-440.6522"/>
</g>
<!-- Node35&#45;&gt;Node27 -->
<g id="edge72" class="edge">
<title>Node35&#45;&gt;Node27</title>
<path fill="none" stroke="#191970" d="M972.5313,-470.3906C980.4047,-462.4527 991.8913,-450.8718 1002.0167,-440.6635"/>
<polygon fill="#191970" stroke="#191970" points="1004.5205,-443.1093 1009.0777,-433.5446 999.5506,-438.1797 1004.5205,-443.1093"/>
</g>
<!-- Node36&#45;&gt;Node2 -->
<g id="edge75" class="edge">
<title>Node36&#45;&gt;Node2</title>
<path fill="none" stroke="#191970" d="M188.8235,-168.2649C204.5056,-151.9156 231.6098,-126.3656 260,-112 311.5957,-85.8922 378.6731,-74.1605 417.7705,-69.2335"/>
<polygon fill="#191970" stroke="#191970" points="418.2679,-72.6991 427.7853,-68.0441 417.4423,-65.748 418.2679,-72.6991"/>
</g>
<!-- Node36&#45;&gt;Node23 -->
<g id="edge74" class="edge">
<title>Node36&#45;&gt;Node23</title>
<path fill="none" stroke="#191970" d="M245.8071,-174.0877C261.352,-172.0525 277.7285,-169.9322 293,-168 391.389,-155.5517 504.2685,-141.8967 580.87,-132.7239"/>
<polygon fill="#191970" stroke="#191970" points="581.4505,-136.1795 590.9638,-131.516 580.6187,-129.2291 581.4505,-136.1795"/>
</g>
<!-- Node37&#45;&gt;Node2 -->
<g id="edge77" class="edge">
<title>Node37&#45;&gt;Node2</title>
<path fill="none" stroke="#191970" d="M90.3735,-291.2918C70.3703,-260.6908 14.7909,-165.1367 62,-112 85.5407,-85.5035 329.2622,-71.6106 417.953,-67.4027"/>
<polygon fill="#191970" stroke="#191970" points="418.1483,-70.8975 427.9751,-66.9373 417.8235,-63.905 418.1483,-70.8975"/>
</g>
</g>
</svg>
