<?xml version="1.0" encoding="UTF-8" standalone="no"?>
<!DOCTYPE svg PUBLIC "-//W3C//DTD SVG 1.1//EN"
 "http://www.w3.org/Graphics/SVG/1.1/DTD/svg11.dtd">
<!-- Generated by graphviz version 2.40.1 (20161225.0304)
 -->
<!-- Title: VisualElement.cpp Pages: 1 -->
<svg width="1303pt" height="532pt"
 viewBox="0.00 0.00 1302.50 532.00" xmlns="http://www.w3.org/2000/svg" xmlns:xlink="http://www.w3.org/1999/xlink">
<g id="graph0" class="graph" transform="scale(1 1) rotate(0) translate(4 528)">
<title>VisualElement.cpp</title>
<!-- Node0 -->
<g id="node1" class="node">
<title>Node0</title>
<polygon fill="#bfbfbf" stroke="#000000" points="219.5,-504.5 219.5,-523.5 326.5,-523.5 326.5,-504.5 219.5,-504.5"/>
<text text-anchor="middle" x="273" y="-511.5" font-family="FreeSans.ttf" font-size="10.00" fill="#000000">VisualElement.cpp</text>
</g>
<!-- Node1 -->
<g id="node2" class="node">
<title>Node1</title>
<g id="a_node2"><a xlink:href="VisualElement_8h.html" target="_top" xlink:title="VisualElement.h">
<polygon fill="none" stroke="#000000" points="342,-448.5 342,-467.5 438,-467.5 438,-448.5 342,-448.5"/>
<text text-anchor="middle" x="390" y="-455.5" font-family="FreeSans.ttf" font-size="10.00" fill="#000000">VisualElement.h</text>
</a>
</g>
</g>
<!-- Node0&#45;&gt;Node1 -->
<g id="edge1" class="edge">
<title>Node0&#45;&gt;Node1</title>
<path fill="none" stroke="#191970" d="M293.113,-504.3733C311.8103,-495.4241 339.8744,-481.9917 360.9934,-471.8835"/>
<polygon fill="#191970" stroke="#191970" points="362.6405,-474.9755 370.1494,-467.5011 359.6183,-468.6614 362.6405,-474.9755"/>
</g>
<!-- Node8 -->
<g id="node9" class="node">
<title>Node8</title>
<g id="a_node9"><a xlink:href="MaterialElement_8h.html" target="_top" xlink:title="MaterialElement.h">
<polygon fill="none" stroke="#000000" points="256,-392.5 256,-411.5 362,-411.5 362,-392.5 256,-392.5"/>
<text text-anchor="middle" x="309" y="-399.5" font-family="FreeSans.ttf" font-size="10.00" fill="#000000">MaterialElement.h</text>
</a>
</g>
</g>
<!-- Node0&#45;&gt;Node8 -->
<g id="edge63" class="edge">
<title>Node0&#45;&gt;Node8</title>
<path fill="none" stroke="#191970" d="M276.0693,-504.4509C281.9674,-486.1013 294.9887,-445.5908 302.7741,-421.3693"/>
<polygon fill="#191970" stroke="#191970" points="306.2104,-422.1162 305.9384,-411.5249 299.5462,-419.9741 306.2104,-422.1162"/>
</g>
<!-- Node10 -->
<g id="node11" class="node">
<title>Node10</title>
<g id="a_node11"><a xlink:href="Utils_8h.html" target="_top" xlink:title="iDynTree/Core/Utils.h">
<polygon fill="none" stroke="#000000" points="1175.5,-56.5 1175.5,-75.5 1294.5,-75.5 1294.5,-56.5 1175.5,-56.5"/>
<text text-anchor="middle" x="1235" y="-63.5" font-family="FreeSans.ttf" font-size="10.00" fill="#000000">iDynTree/Core/Utils.h</text>
</a>
</g>
</g>
<!-- Node0&#45;&gt;Node10 -->
<g id="edge69" class="edge">
<title>Node0&#45;&gt;Node10</title>
<path fill="none" stroke="#191970" d="M326.7119,-513.5922C532.468,-511.3313 1259,-496.6471 1259,-402 1259,-402 1259,-402 1259,-178 1259,-144.8465 1248.8211,-107.3737 1241.7212,-85.2684"/>
<polygon fill="#191970" stroke="#191970" points="1245.0264,-84.1157 1238.5413,-75.7375 1238.3862,-86.3312 1245.0264,-84.1157"/>
</g>
<!-- Node33 -->
<g id="node34" class="node">
<title>Node33</title>
<g id="a_node34"><a xlink:href="GeometryElement_8h.html" target="_top" xlink:title="GeometryElement.h">
<polygon fill="none" stroke="#000000" points="142.5,-448.5 142.5,-467.5 257.5,-467.5 257.5,-448.5 142.5,-448.5"/>
<text text-anchor="middle" x="200" y="-455.5" font-family="FreeSans.ttf" font-size="10.00" fill="#000000">GeometryElement.h</text>
</a>
</g>
</g>
<!-- Node0&#45;&gt;Node33 -->
<g id="edge61" class="edge">
<title>Node0&#45;&gt;Node33</title>
<path fill="none" stroke="#191970" d="M260.2844,-504.2455C249.398,-495.8943 233.5117,-483.7076 220.78,-473.9408"/>
<polygon fill="#191970" stroke="#191970" points="222.6346,-470.9523 212.5699,-467.6427 218.3739,-476.5063 222.6346,-470.9523"/>
</g>
<!-- Node34 -->
<g id="node35" class="node">
<title>Node34</title>
<g id="a_node35"><a xlink:href="OriginElement_8h.html" target="_top" xlink:title="OriginElement.h">
<polygon fill="none" stroke="#000000" points="28.5,-392.5 28.5,-411.5 123.5,-411.5 123.5,-392.5 28.5,-392.5"/>
<text text-anchor="middle" x="76" y="-399.5" font-family="FreeSans.ttf" font-size="10.00" fill="#000000">OriginElement.h</text>
</a>
</g>
</g>
<!-- Node0&#45;&gt;Node34 -->
<g id="edge64" class="edge">
<title>Node0&#45;&gt;Node34</title>
<path fill="none" stroke="#191970" d="M223.8484,-504.469C195.8812,-497.4587 161.1312,-485.9587 134,-468 114.8286,-455.3101 98.1273,-434.6855 87.6328,-419.8677"/>
<polygon fill="#191970" stroke="#191970" points="90.4611,-417.8029 81.934,-411.5149 84.6787,-421.748 90.4611,-417.8029"/>
</g>
<!-- Node35 -->
<g id="node36" class="node">
<title>Node35</title>
<g id="a_node36"><a xlink:href="XMLAttribute_8h.html" target="_top" xlink:title="iDynTree/XMLAttribute.h">
<polygon fill="none" stroke="#000000" points="3,-224.5 3,-243.5 137,-243.5 137,-224.5 3,-224.5"/>
<text text-anchor="middle" x="70" y="-231.5" font-family="FreeSans.ttf" font-size="10.00" fill="#000000">iDynTree/XMLAttribute.h</text>
</a>
</g>
</g>
<!-- Node0&#45;&gt;Node35 -->
<g id="edge67" class="edge">
<title>Node0&#45;&gt;Node35</title>
<path fill="none" stroke="#191970" d="M224.5076,-504.4833C146.0583,-487.683 0,-449.9635 0,-402 0,-402 0,-402 0,-346 0,-307.1653 30.6377,-270.6944 51.3749,-250.4569"/>
<polygon fill="#191970" stroke="#191970" points="53.862,-252.9226 58.7533,-243.5244 49.0688,-247.821 53.862,-252.9226"/>
</g>
<!-- Node2 -->
<g id="node3" class="node">
<title>Node2</title>
<g id="a_node3"><a xlink:href="XMLElement_8h.html" target="_top" xlink:title="iDynTree/XMLElement.h">
<polygon fill="none" stroke="#000000" points="149,-336.5 149,-355.5 281,-355.5 281,-336.5 149,-336.5"/>
<text text-anchor="middle" x="215" y="-343.5" font-family="FreeSans.ttf" font-size="10.00" fill="#000000">iDynTree/XMLElement.h</text>
</a>
</g>
</g>
<!-- Node1&#45;&gt;Node2 -->
<g id="edge2" class="edge">
<title>Node1&#45;&gt;Node2</title>
<path fill="none" stroke="#191970" d="M341.8355,-452.2959C311.608,-446.5338 273.4796,-435.0043 247,-412 232.9214,-399.7691 224.4781,-379.932 219.83,-365.1943"/>
<polygon fill="#191970" stroke="#191970" points="223.1888,-364.2094 217.09,-355.546 216.4551,-366.1218 223.1888,-364.2094"/>
</g>
<!-- Node4 -->
<g id="node5" class="node">
<title>Node4</title>
<polygon fill="none" stroke="#bfbfbf" points="271,-280.5 271,-299.5 329,-299.5 329,-280.5 271,-280.5"/>
<text text-anchor="middle" x="300" y="-287.5" font-family="FreeSans.ttf" font-size="10.00" fill="#000000">memory</text>
</g>
<!-- Node1&#45;&gt;Node4 -->
<g id="edge57" class="edge">
<title>Node1&#45;&gt;Node4</title>
<path fill="none" stroke="#191970" d="M388.2353,-448.2439C385.6168,-435.0385 380.0182,-410.9492 371,-392 355.7351,-359.9251 330.7392,-326.9192 314.8419,-307.4457"/>
<polygon fill="#191970" stroke="#191970" points="317.5231,-305.1959 308.4432,-299.7365 312.1368,-309.6667 317.5231,-305.1959"/>
</g>
<!-- Node5 -->
<g id="node6" class="node">
<title>Node5</title>
<polygon fill="none" stroke="#bfbfbf" points="534,-56.5 534,-75.5 578,-75.5 578,-56.5 534,-56.5"/>
<text text-anchor="middle" x="556" y="-63.5" font-family="FreeSans.ttf" font-size="10.00" fill="#000000">string</text>
</g>
<!-- Node1&#45;&gt;Node5 -->
<g id="edge58" class="edge">
<title>Node1&#45;&gt;Node5</title>
<path fill="none" stroke="#191970" d="M391.3337,-448.3588C397.6324,-405.5123 427.4866,-229.3162 507,-112 514.5948,-100.7944 525.3694,-90.2978 534.8819,-82.1691"/>
<polygon fill="#191970" stroke="#191970" points="537.2883,-84.7222 542.8048,-75.6769 532.8516,-79.3078 537.2883,-84.7222"/>
</g>
<!-- Node6 -->
<g id="node7" class="node">
<title>Node6</title>
<polygon fill="none" stroke="#bfbfbf" points="38.5,-280.5 38.5,-299.5 131.5,-299.5 131.5,-280.5 38.5,-280.5"/>
<text text-anchor="middle" x="85" y="-287.5" font-family="FreeSans.ttf" font-size="10.00" fill="#000000">unordered_map</text>
</g>
<!-- Node1&#45;&gt;Node6 -->
<g id="edge59" class="edge">
<title>Node1&#45;&gt;Node6</title>
<path fill="none" stroke="#191970" d="M343.0063,-448.463C309.9734,-440.8533 265.2124,-428.6939 228,-412 185.7025,-393.0248 174.8102,-386.6168 140,-356 123.6466,-341.6166 108.0554,-322.1695 97.677,-308.1144"/>
<polygon fill="#191970" stroke="#191970" points="100.3428,-305.8271 91.6542,-299.7642 94.6655,-309.9221 100.3428,-305.8271"/>
</g>
<!-- Node7 -->
<g id="node8" class="node">
<title>Node7</title>
<polygon fill="none" stroke="#bfbfbf" points="527.5,-280.5 527.5,-299.5 574.5,-299.5 574.5,-280.5 527.5,-280.5"/>
<text text-anchor="middle" x="551" y="-287.5" font-family="FreeSans.ttf" font-size="10.00" fill="#000000">vector</text>
</g>
<!-- Node1&#45;&gt;Node7 -->
<g id="edge60" class="edge">
<title>Node1&#45;&gt;Node7</title>
<path fill="none" stroke="#191970" d="M438.228,-455.7479C500.9403,-451.6923 605.288,-440.711 629,-412 637.851,-401.283 643.8793,-367.2844 625,-336 615.6796,-320.5553 598.9853,-309.5181 583.8093,-302.1334"/>
<polygon fill="#191970" stroke="#191970" points="585.191,-298.9171 574.6359,-298.0007 582.3157,-305.2994 585.191,-298.9171"/>
</g>
<!-- Node1&#45;&gt;Node8 -->
<g id="edge8" class="edge">
<title>Node1&#45;&gt;Node8</title>
<path fill="none" stroke="#191970" d="M375.8909,-448.2455C363.5791,-439.7337 345.5042,-427.2375 331.2462,-417.3801"/>
<polygon fill="#191970" stroke="#191970" points="333.1634,-414.4506 322.9474,-411.6427 329.1826,-420.2085 333.1634,-414.4506"/>
</g>
<!-- Node23 -->
<g id="node24" class="node">
<title>Node23</title>
<g id="a_node24"><a xlink:href="Transform_8h.html" target="_top" xlink:title="iDynTree/Core/Transform.h">
<polygon fill="none" stroke="#000000" points="676,-336.5 676,-355.5 822,-355.5 822,-336.5 676,-336.5"/>
<text text-anchor="middle" x="749" y="-343.5" font-family="FreeSans.ttf" font-size="10.00" fill="#000000">iDynTree/Core/Transform.h</text>
</a>
</g>
</g>
<!-- Node1&#45;&gt;Node23 -->
<g id="edge29" class="edge">
<title>Node1&#45;&gt;Node23</title>
<path fill="none" stroke="#191970" d="M438.062,-452.6705C505.0234,-444.7708 622.604,-429.0415 662,-412 689.1161,-400.2704 715.4577,-378.3644 731.9197,-363.018"/>
<polygon fill="#191970" stroke="#191970" points="734.7799,-365.1248 739.5794,-355.6794 729.9372,-360.0702 734.7799,-365.1248"/>
</g>
<!-- Node31 -->
<g id="node32" class="node">
<title>Node31</title>
<g id="a_node32"><a xlink:href="SolidShapes_8h.html" target="_top" xlink:title="iDynTree/Model/SolidShapes.h">
<polygon fill="none" stroke="#000000" points="456.5,-392.5 456.5,-411.5 619.5,-411.5 619.5,-392.5 456.5,-392.5"/>
<text text-anchor="middle" x="538" y="-399.5" font-family="FreeSans.ttf" font-size="10.00" fill="#000000">iDynTree/Model/SolidShapes.h</text>
</a>
</g>
</g>
<!-- Node1&#45;&gt;Node31 -->
<g id="edge52" class="edge">
<title>Node1&#45;&gt;Node31</title>
<path fill="none" stroke="#191970" d="M415.4421,-448.3733C439.7326,-439.1822 476.5208,-425.2624 503.4543,-415.0713"/>
<polygon fill="#191970" stroke="#191970" points="504.7757,-418.3136 512.8899,-411.5011 502.2984,-411.7666 504.7757,-418.3136"/>
</g>
<!-- Node3 -->
<g id="node4" class="node">
<title>Node3</title>
<polygon fill="none" stroke="#bfbfbf" points="149.5,-280.5 149.5,-299.5 214.5,-299.5 214.5,-280.5 149.5,-280.5"/>
<text text-anchor="middle" x="182" y="-287.5" font-family="FreeSans.ttf" font-size="10.00" fill="#000000">functional</text>
</g>
<!-- Node2&#45;&gt;Node3 -->
<g id="edge3" class="edge">
<title>Node2&#45;&gt;Node3</title>
<path fill="none" stroke="#191970" d="M209.2518,-336.2455C204.7565,-328.617 198.3752,-317.7881 192.9175,-308.5267"/>
<polygon fill="#191970" stroke="#191970" points="195.7747,-306.4811 187.6823,-299.6427 189.7439,-310.035 195.7747,-306.4811"/>
</g>
<!-- Node2&#45;&gt;Node4 -->
<g id="edge4" class="edge">
<title>Node2&#45;&gt;Node4</title>
<path fill="none" stroke="#191970" d="M229.8059,-336.2455C242.7256,-327.7337 261.6931,-315.2375 276.6552,-305.3801"/>
<polygon fill="#191970" stroke="#191970" points="278.9387,-308.067 285.3638,-299.6427 275.0876,-302.2216 278.9387,-308.067"/>
</g>
<!-- Node2&#45;&gt;Node5 -->
<g id="edge5" class="edge">
<title>Node2&#45;&gt;Node5</title>
<path fill="none" stroke="#191970" d="M219.1315,-336.3161C226.9202,-317.1534 243,-272.8832 243,-234 243,-234 243,-234 243,-178 243,-118.761 444.2664,-82.5094 524.0131,-70.4706"/>
<polygon fill="#191970" stroke="#191970" points="524.6099,-73.9206 533.9904,-68.9956 523.5861,-66.9958 524.6099,-73.9206"/>
</g>
<!-- Node2&#45;&gt;Node6 -->
<g id="edge6" class="edge">
<title>Node2&#45;&gt;Node6</title>
<path fill="none" stroke="#191970" d="M192.6522,-336.3733C171.5967,-327.3032 139.8505,-313.6279 116.2825,-303.4755"/>
<polygon fill="#191970" stroke="#191970" points="117.625,-300.243 107.0562,-299.5011 114.8556,-306.6719 117.625,-300.243"/>
</g>
<!-- Node2&#45;&gt;Node7 -->
<g id="edge7" class="edge">
<title>Node2&#45;&gt;Node7</title>
<path fill="none" stroke="#191970" d="M272.3787,-336.4369C342.7824,-324.7029 459.8445,-305.1926 517.2118,-295.6314"/>
<polygon fill="#191970" stroke="#191970" points="517.9157,-299.0624 527.2042,-293.966 516.7648,-292.1577 517.9157,-299.0624"/>
</g>
<!-- Node8&#45;&gt;Node2 -->
<g id="edge9" class="edge">
<title>Node8&#45;&gt;Node2</title>
<path fill="none" stroke="#191970" d="M292.6264,-392.2455C278.0692,-383.5731 256.569,-370.7645 239.8848,-360.825"/>
<polygon fill="#191970" stroke="#191970" points="241.5683,-357.7539 231.1859,-355.6427 237.9856,-363.7676 241.5683,-357.7539"/>
</g>
<!-- Node8&#45;&gt;Node4 -->
<g id="edge27" class="edge">
<title>Node8&#45;&gt;Node4</title>
<path fill="none" stroke="#191970" d="M308.2327,-392.4509C306.7648,-374.184 303.5321,-333.9553 301.5828,-309.6976"/>
<polygon fill="#191970" stroke="#191970" points="305.0552,-309.2124 300.7654,-299.5249 298.0777,-309.7731 305.0552,-309.2124"/>
</g>
<!-- Node8&#45;&gt;Node5 -->
<g id="edge28" class="edge">
<title>Node8&#45;&gt;Node5</title>
<path fill="none" stroke="#191970" d="M313.7779,-392.4285C325.9189,-367.1929 357,-296.4876 357,-234 357,-234 357,-234 357,-178 357,-102.3942 467.4372,-77.2789 523.7697,-69.3859"/>
<polygon fill="#191970" stroke="#191970" points="524.4769,-72.8236 533.9432,-68.0655 523.5758,-65.8818 524.4769,-72.8236"/>
</g>
<!-- Node9 -->
<g id="node10" class="node">
<title>Node9</title>
<g id="a_node10"><a xlink:href="VectorFixSize_8h.html" target="_top" xlink:title="iDynTree/Core/VectorFixSize.h">
<polygon fill="none" stroke="#000000" points="809.5,-112.5 809.5,-131.5 970.5,-131.5 970.5,-112.5 809.5,-112.5"/>
<text text-anchor="middle" x="890" y="-119.5" font-family="FreeSans.ttf" font-size="10.00" fill="#000000">iDynTree/Core/VectorFixSize.h</text>
</a>
</g>
</g>
<!-- Node8&#45;&gt;Node9 -->
<g id="edge10" class="edge">
<title>Node8&#45;&gt;Node9</title>
<path fill="none" stroke="#191970" d="M320.0351,-392.3499C368.4797,-350.0676 561.3495,-182.6125 594,-168 629.759,-151.9963 725.9522,-138.897 799.0592,-130.8266"/>
<polygon fill="#191970" stroke="#191970" points="799.6505,-134.283 809.213,-129.7215 798.893,-127.3241 799.6505,-134.283"/>
</g>
<!-- Node9&#45;&gt;Node5 -->
<g id="edge23" class="edge">
<title>Node9&#45;&gt;Node5</title>
<path fill="none" stroke="#191970" d="M832.9629,-112.4369C762.4233,-100.6099 644.7645,-80.8827 588.2417,-71.4058"/>
<polygon fill="#191970" stroke="#191970" points="588.5451,-67.9079 578.104,-69.7061 587.3876,-74.8115 588.5451,-67.9079"/>
</g>
<!-- Node9&#45;&gt;Node10 -->
<g id="edge11" class="edge">
<title>Node9&#45;&gt;Node10</title>
<path fill="none" stroke="#191970" d="M948.9156,-112.4369C1009.2001,-102.6516 1102.8019,-87.4582 1166.3894,-77.1368"/>
<polygon fill="#191970" stroke="#191970" points="1167.0174,-80.5808 1176.3274,-75.5237 1165.8958,-73.6712 1167.0174,-80.5808"/>
</g>
<!-- Node12 -->
<g id="node13" class="node">
<title>Node12</title>
<g id="a_node13"><a xlink:href="Span_8h.html" target="_top" xlink:title="iDynTree/Core/Span.h">
<polygon fill="none" stroke="#000000" points="739.5,-56.5 739.5,-75.5 860.5,-75.5 860.5,-56.5 739.5,-56.5"/>
<text text-anchor="middle" x="800" y="-63.5" font-family="FreeSans.ttf" font-size="10.00" fill="#000000">iDynTree/Core/Span.h</text>
</a>
</g>
</g>
<!-- Node9&#45;&gt;Node12 -->
<g id="edge13" class="edge">
<title>Node9&#45;&gt;Node12</title>
<path fill="none" stroke="#191970" d="M874.3232,-112.2455C860.5144,-103.6534 840.1807,-91.0014 824.2708,-81.1018"/>
<polygon fill="#191970" stroke="#191970" points="825.8368,-77.954 815.4972,-75.6427 822.1387,-83.8974 825.8368,-77.954"/>
</g>
<!-- Node13 -->
<g id="node14" class="node">
<title>Node13</title>
<polygon fill="none" stroke="#bfbfbf" points="1021,-.5 1021,-19.5 1073,-19.5 1073,-.5 1021,-.5"/>
<text text-anchor="middle" x="1047" y="-7.5" font-family="FreeSans.ttf" font-size="10.00" fill="#000000">cassert</text>
</g>
<!-- Node9&#45;&gt;Node13 -->
<g id="edge25" class="edge">
<title>Node9&#45;&gt;Node13</title>
<path fill="none" stroke="#191970" d="M889.9284,-112.1052C890.368,-97.8411 893.2917,-71.5145 908,-56 911.698,-52.0993 971.2035,-33.2677 1011.1469,-20.9411"/>
<polygon fill="#191970" stroke="#191970" points="1012.3061,-24.2464 1020.8346,-17.9604 1010.2475,-17.5559 1012.3061,-24.2464"/>
</g>
<!-- Node21 -->
<g id="node22" class="node">
<title>Node21</title>
<polygon fill="none" stroke="#bfbfbf" points="985,-56.5 985,-75.5 1041,-75.5 1041,-56.5 985,-56.5"/>
<text text-anchor="middle" x="1013" y="-63.5" font-family="FreeSans.ttf" font-size="10.00" fill="#000000">sstream</text>
</g>
<!-- Node9&#45;&gt;Node21 -->
<g id="edge24" class="edge">
<title>Node9&#45;&gt;Node21</title>
<path fill="none" stroke="#191970" d="M911.1445,-112.3733C930.8892,-103.3838 960.5698,-89.8706 982.8055,-79.7471"/>
<polygon fill="#191970" stroke="#191970" points="984.4806,-82.8302 992.1315,-75.5011 981.58,-76.4594 984.4806,-82.8302"/>
</g>
<!-- Node22 -->
<g id="node23" class="node">
<title>Node22</title>
<polygon fill="none" stroke="#bfbfbf" points="917,-56.5 917,-75.5 967,-75.5 967,-56.5 917,-56.5"/>
<text text-anchor="middle" x="942" y="-63.5" font-family="FreeSans.ttf" font-size="10.00" fill="#000000">cstring</text>
</g>
<!-- Node9&#45;&gt;Node22 -->
<g id="edge26" class="edge">
<title>Node9&#45;&gt;Node22</title>
<path fill="none" stroke="#191970" d="M899.0577,-112.2455C906.5142,-104.2155 917.2634,-92.6394 926.1417,-83.0781"/>
<polygon fill="#191970" stroke="#191970" points="928.8063,-85.3522 933.0461,-75.6427 923.6768,-80.589 928.8063,-85.3522"/>
</g>
<!-- Node11 -->
<g id="node12" class="node">
<title>Node11</title>
<polygon fill="none" stroke="#bfbfbf" points="1161.5,-.5 1161.5,-19.5 1214.5,-19.5 1214.5,-.5 1161.5,-.5"/>
<text text-anchor="middle" x="1188" y="-7.5" font-family="FreeSans.ttf" font-size="10.00" fill="#000000">cstddef</text>
</g>
<!-- Node10&#45;&gt;Node11 -->
<g id="edge12" class="edge">
<title>Node10&#45;&gt;Node11</title>
<path fill="none" stroke="#191970" d="M1226.8132,-56.2455C1220.1411,-48.2958 1210.5521,-36.8706 1202.5747,-27.3656"/>
<polygon fill="#191970" stroke="#191970" points="1205.2026,-25.0524 1196.093,-19.6427 1199.8408,-29.5525 1205.2026,-25.0524"/>
</g>
<!-- Node12&#45;&gt;Node11 -->
<g id="edge17" class="edge">
<title>Node12&#45;&gt;Node11</title>
<path fill="none" stroke="#191970" d="M860.625,-57.25C942.1565,-45.4826 1084.6035,-24.9232 1151.429,-15.2783"/>
<polygon fill="#191970" stroke="#191970" points="1152.0865,-18.7198 1161.4839,-13.8271 1151.0864,-11.7915 1152.0865,-18.7198"/>
</g>
<!-- Node12&#45;&gt;Node13 -->
<g id="edge14" class="edge">
<title>Node12&#45;&gt;Node13</title>
<path fill="none" stroke="#191970" d="M848.1985,-56.467C889.1136,-48.1662 949.5855,-35.4095 1010.8409,-20.183"/>
<polygon fill="#191970" stroke="#191970" points="1011.8266,-23.5443 1020.6759,-17.7184 1010.125,-16.7543 1011.8266,-23.5443"/>
</g>
<!-- Node14 -->
<g id="node15" class="node">
<title>Node14</title>
<polygon fill="none" stroke="#bfbfbf" points="939,-.5 939,-19.5 1003,-19.5 1003,-.5 939,-.5"/>
<text text-anchor="middle" x="971" y="-7.5" font-family="FreeSans.ttf" font-size="10.00" fill="#000000">algorithm</text>
</g>
<!-- Node12&#45;&gt;Node14 -->
<g id="edge15" class="edge">
<title>Node12&#45;&gt;Node14</title>
<path fill="none" stroke="#191970" d="M829.3959,-56.3733C857.8307,-47.0613 901.0877,-32.8953 932.3081,-22.671"/>
<polygon fill="#191970" stroke="#191970" points="933.5736,-25.9396 941.9876,-19.5011 931.395,-19.2872 933.5736,-25.9396"/>
</g>
<!-- Node15 -->
<g id="node16" class="node">
<title>Node15</title>
<polygon fill="none" stroke="#bfbfbf" points="511,-.5 511,-19.5 553,-19.5 553,-.5 511,-.5"/>
<text text-anchor="middle" x="532" y="-7.5" font-family="FreeSans.ttf" font-size="10.00" fill="#000000">array</text>
</g>
<!-- Node12&#45;&gt;Node15 -->
<g id="edge16" class="edge">
<title>Node12&#45;&gt;Node15</title>
<path fill="none" stroke="#191970" d="M740.1431,-56.4347C691.9572,-48.2434 622.669,-35.3553 563,-20 562.9007,-19.9745 562.8013,-19.9488 562.7018,-19.923"/>
<polygon fill="#191970" stroke="#191970" points="563.8234,-16.6033 553.2468,-17.2257 561.903,-23.3348 563.8234,-16.6033"/>
</g>
<!-- Node16 -->
<g id="node17" class="node">
<title>Node16</title>
<polygon fill="none" stroke="#bfbfbf" points="571.5,-.5 571.5,-19.5 624.5,-19.5 624.5,-.5 571.5,-.5"/>
<text text-anchor="middle" x="598" y="-7.5" font-family="FreeSans.ttf" font-size="10.00" fill="#000000">iterator</text>
</g>
<!-- Node12&#45;&gt;Node16 -->
<g id="edge18" class="edge">
<title>Node12&#45;&gt;Node16</title>
<path fill="none" stroke="#191970" d="M765.6624,-56.4915C734.1249,-47.7568 685.826,-34.3762 634.6605,-20.1821"/>
<polygon fill="#191970" stroke="#191970" points="635.3076,-16.7295 624.7358,-17.4286 633.4361,-23.4747 635.3076,-16.7295"/>
</g>
<!-- Node17 -->
<g id="node18" class="node">
<title>Node17</title>
<polygon fill="none" stroke="#bfbfbf" points="643,-.5 643,-19.5 687,-19.5 687,-.5 643,-.5"/>
<text text-anchor="middle" x="665" y="-7.5" font-family="FreeSans.ttf" font-size="10.00" fill="#000000">limits</text>
</g>
<!-- Node12&#45;&gt;Node17 -->
<g id="edge19" class="edge">
<title>Node12&#45;&gt;Node17</title>
<path fill="none" stroke="#191970" d="M776.7927,-56.3733C754.5639,-47.1524 720.8612,-33.1721 696.2725,-22.9723"/>
<polygon fill="#191970" stroke="#191970" points="697.5885,-19.729 687.0105,-19.1303 694.9063,-26.1948 697.5885,-19.729"/>
</g>
<!-- Node18 -->
<g id="node19" class="node">
<title>Node18</title>
<polygon fill="none" stroke="#bfbfbf" points="705.5,-.5 705.5,-19.5 770.5,-19.5 770.5,-.5 705.5,-.5"/>
<text text-anchor="middle" x="738" y="-7.5" font-family="FreeSans.ttf" font-size="10.00" fill="#000000">stdexcept</text>
</g>
<!-- Node12&#45;&gt;Node18 -->
<g id="edge20" class="edge">
<title>Node12&#45;&gt;Node18</title>
<path fill="none" stroke="#191970" d="M789.2004,-56.2455C780.1322,-48.0549 766.9794,-36.1749 756.2755,-26.5069"/>
<polygon fill="#191970" stroke="#191970" points="758.4429,-23.7482 748.6758,-19.6427 753.7509,-28.9429 758.4429,-23.7482"/>
</g>
<!-- Node19 -->
<g id="node20" class="node">
<title>Node19</title>
<polygon fill="none" stroke="#bfbfbf" points="788.5,-.5 788.5,-19.5 857.5,-19.5 857.5,-.5 788.5,-.5"/>
<text text-anchor="middle" x="823" y="-7.5" font-family="FreeSans.ttf" font-size="10.00" fill="#000000">type_traits</text>
</g>
<!-- Node12&#45;&gt;Node19 -->
<g id="edge21" class="edge">
<title>Node12&#45;&gt;Node19</title>
<path fill="none" stroke="#191970" d="M804.0063,-56.2455C807.0735,-48.7776 811.4003,-38.2427 815.1497,-29.1137"/>
<polygon fill="#191970" stroke="#191970" points="818.4779,-30.2226 819.0396,-19.6427 812.0028,-27.5631 818.4779,-30.2226"/>
</g>
<!-- Node20 -->
<g id="node21" class="node">
<title>Node20</title>
<polygon fill="none" stroke="#bfbfbf" points="875.5,-.5 875.5,-19.5 920.5,-19.5 920.5,-.5 875.5,-.5"/>
<text text-anchor="middle" x="898" y="-7.5" font-family="FreeSans.ttf" font-size="10.00" fill="#000000">utility</text>
</g>
<!-- Node12&#45;&gt;Node20 -->
<g id="edge22" class="edge">
<title>Node12&#45;&gt;Node20</title>
<path fill="none" stroke="#191970" d="M817.0703,-56.2455C832.247,-47.5731 854.6621,-34.7645 872.0563,-24.825"/>
<polygon fill="#191970" stroke="#191970" points="874.1794,-27.643 881.1253,-19.6427 870.7064,-21.5653 874.1794,-27.643"/>
</g>
<!-- Node23&#45;&gt;Node5 -->
<g id="edge51" class="edge">
<title>Node23&#45;&gt;Node5</title>
<path fill="none" stroke="#191970" d="M707.343,-336.463C684.4082,-329.4891 656.6902,-318.0272 637,-300 576.4195,-244.5359 575.8197,-212.5978 560,-132 557.0245,-116.8405 556.072,-99.3801 555.8378,-86.2273"/>
<polygon fill="#191970" stroke="#191970" points="559.3364,-85.9254 555.7842,-75.9438 552.3365,-85.962 559.3364,-85.9254"/>
</g>
<!-- Node24 -->
<g id="node25" class="node">
<title>Node24</title>
<g id="a_node25"><a xlink:href="Position_8h.html" target="_top" xlink:title="iDynTree/Core/Position.h">
<polygon fill="none" stroke="#000000" points="646,-280.5 646,-299.5 782,-299.5 782,-280.5 646,-280.5"/>
<text text-anchor="middle" x="714" y="-287.5" font-family="FreeSans.ttf" font-size="10.00" fill="#000000">iDynTree/Core/Position.h</text>
</a>
</g>
</g>
<!-- Node23&#45;&gt;Node24 -->
<g id="edge30" class="edge">
<title>Node23&#45;&gt;Node24</title>
<path fill="none" stroke="#191970" d="M742.9035,-336.2455C738.0855,-328.5367 731.2249,-317.5598 725.3968,-308.2348"/>
<polygon fill="#191970" stroke="#191970" points="728.2947,-306.2677 720.0267,-299.6427 722.3587,-309.9777 728.2947,-306.2677"/>
</g>
<!-- Node26 -->
<g id="node27" class="node">
<title>Node26</title>
<g id="a_node27"><a xlink:href="Rotation_8h.html" target="_top" xlink:title="iDynTree/Core/Rotation.h">
<polygon fill="none" stroke="#000000" points="752.5,-224.5 752.5,-243.5 889.5,-243.5 889.5,-224.5 752.5,-224.5"/>
<text text-anchor="middle" x="821" y="-231.5" font-family="FreeSans.ttf" font-size="10.00" fill="#000000">iDynTree/Core/Rotation.h</text>
</a>
</g>
</g>
<!-- Node23&#45;&gt;Node26 -->
<g id="edge49" class="edge">
<title>Node23&#45;&gt;Node26</title>
<path fill="none" stroke="#191970" d="M759.6804,-336.1857C768.8374,-327.364 781.9465,-313.7196 791,-300 800.6274,-285.4107 808.638,-267.2274 813.9528,-253.6429"/>
<polygon fill="#191970" stroke="#191970" points="817.376,-254.4829 817.6165,-243.8908 810.8232,-252.0211 817.376,-254.4829"/>
</g>
<!-- Node29 -->
<g id="node30" class="node">
<title>Node29</title>
<g id="a_node30"><a xlink:href="MatrixFixSize_8h.html" target="_top" xlink:title="iDynTree/Core/MatrixFixSize.h">
<polygon fill="none" stroke="#000000" points="988.5,-112.5 988.5,-131.5 1149.5,-131.5 1149.5,-112.5 988.5,-112.5"/>
<text text-anchor="middle" x="1069" y="-119.5" font-family="FreeSans.ttf" font-size="10.00" fill="#000000">iDynTree/Core/MatrixFixSize.h</text>
</a>
</g>
</g>
<!-- Node23&#45;&gt;Node29 -->
<g id="edge50" class="edge">
<title>Node23&#45;&gt;Node29</title>
<path fill="none" stroke="#191970" d="M797.2228,-336.4575C903.7851,-314.2899 1153.7067,-255.9905 1202,-188 1221.7886,-160.1403 1185.4159,-143.4357 1145.7414,-133.8041"/>
<polygon fill="#191970" stroke="#191970" points="1146.4171,-130.3685 1135.8899,-131.5636 1144.8647,-137.1942 1146.4171,-130.3685"/>
</g>
<!-- Node24&#45;&gt;Node5 -->
<g id="edge48" class="edge">
<title>Node24&#45;&gt;Node5</title>
<path fill="none" stroke="#191970" d="M697.4467,-280.2927C671.5985,-264.3006 621.7446,-229.9685 594,-188 572.7817,-155.9038 562.8721,-111.3002 558.6871,-85.8684"/>
<polygon fill="#191970" stroke="#191970" points="562.0979,-85.0133 557.1471,-75.6464 555.176,-86.0562 562.0979,-85.0133"/>
</g>
<!-- Node25 -->
<g id="node26" class="node">
<title>Node25</title>
<g id="a_node26"><a xlink:href="PositionRaw_8h.html" target="_top" xlink:title="iDynTree/Core/PositionRaw.h">
<polygon fill="none" stroke="#000000" points="603,-168.5 603,-187.5 759,-187.5 759,-168.5 603,-168.5"/>
<text text-anchor="middle" x="681" y="-175.5" font-family="FreeSans.ttf" font-size="10.00" fill="#000000">iDynTree/Core/PositionRaw.h</text>
</a>
</g>
</g>
<!-- Node24&#45;&gt;Node25 -->
<g id="edge31" class="edge">
<title>Node24&#45;&gt;Node25</title>
<path fill="none" stroke="#191970" d="M711.1864,-280.4509C705.7798,-262.1013 693.8437,-221.5908 686.707,-197.3693"/>
<polygon fill="#191970" stroke="#191970" points="689.9901,-196.128 683.8064,-187.5249 683.2755,-198.1064 689.9901,-196.128"/>
</g>
<!-- Node24&#45;&gt;Node26 -->
<g id="edge34" class="edge">
<title>Node24&#45;&gt;Node26</title>
<path fill="none" stroke="#191970" d="M732.638,-280.2455C749.4386,-271.4527 774.3634,-258.4079 793.4618,-248.4125"/>
<polygon fill="#191970" stroke="#191970" points="795.3386,-251.3807 802.5756,-243.6427 792.0927,-245.1787 795.3386,-251.3807"/>
</g>
<!-- Node25&#45;&gt;Node5 -->
<g id="edge33" class="edge">
<title>Node25&#45;&gt;Node5</title>
<path fill="none" stroke="#191970" d="M670.3426,-168.4509C648.9406,-149.2747 600.5271,-105.8962 574.079,-82.1988"/>
<polygon fill="#191970" stroke="#191970" points="576.4138,-79.5914 566.6305,-75.5249 571.7426,-84.8048 576.4138,-79.5914"/>
</g>
<!-- Node25&#45;&gt;Node9 -->
<g id="edge32" class="edge">
<title>Node25&#45;&gt;Node9</title>
<path fill="none" stroke="#191970" d="M716.9284,-168.3733C752.2837,-158.9001 806.388,-144.4032 844.6788,-134.1435"/>
<polygon fill="#191970" stroke="#191970" points="845.787,-137.4701 854.5405,-131.5011 843.9753,-130.7086 845.787,-137.4701"/>
</g>
<!-- Node26&#45;&gt;Node5 -->
<g id="edge35" class="edge">
<title>Node26&#45;&gt;Node5</title>
<path fill="none" stroke="#191970" d="M815.2364,-224.3535C806.5001,-210.3988 788.7118,-184.4538 768,-168 711.3309,-122.9813 631.5408,-91.4153 587.788,-76.2476"/>
<polygon fill="#191970" stroke="#191970" points="588.8421,-72.9092 578.2476,-73.003 586.5882,-79.5365 588.8421,-72.9092"/>
</g>
<!-- Node26&#45;&gt;Node9 -->
<g id="edge47" class="edge">
<title>Node26&#45;&gt;Node9</title>
<path fill="none" stroke="#191970" d="M822.9073,-224.4478C825.8851,-211.0572 832.5204,-186.2956 844,-168 850.8937,-157.0131 860.8598,-146.6264 869.7542,-138.5124"/>
<polygon fill="#191970" stroke="#191970" points="872.2713,-140.9611 877.5025,-131.7478 867.6676,-135.688 872.2713,-140.9611"/>
</g>
<!-- Node27 -->
<g id="node28" class="node">
<title>Node27</title>
<g id="a_node28"><a xlink:href="GeomVector3_8h.html" target="_top" xlink:title="iDynTree/Core/GeomVector3.h">
<polygon fill="none" stroke="#000000" points="1029.5,-168.5 1029.5,-187.5 1192.5,-187.5 1192.5,-168.5 1029.5,-168.5"/>
<text text-anchor="middle" x="1111" y="-175.5" font-family="FreeSans.ttf" font-size="10.00" fill="#000000">iDynTree/Core/GeomVector3.h</text>
</a>
</g>
</g>
<!-- Node26&#45;&gt;Node27 -->
<g id="edge36" class="edge">
<title>Node26&#45;&gt;Node27</title>
<path fill="none" stroke="#191970" d="M870.5233,-224.4369C920.6759,-214.7522 998.261,-199.7703 1051.6697,-189.4569"/>
<polygon fill="#191970" stroke="#191970" points="1052.526,-192.8563 1061.681,-187.5237 1051.1987,-185.9832 1052.526,-192.8563"/>
</g>
<!-- Node28 -->
<g id="node29" class="node">
<title>Node28</title>
<g id="a_node29"><a xlink:href="RotationRaw_8h.html" target="_top" xlink:title="iDynTree/Core/RotationRaw.h">
<polygon fill="none" stroke="#000000" points="853,-168.5 853,-187.5 1011,-187.5 1011,-168.5 853,-168.5"/>
<text text-anchor="middle" x="932" y="-175.5" font-family="FreeSans.ttf" font-size="10.00" fill="#000000">iDynTree/Core/RotationRaw.h</text>
</a>
</g>
</g>
<!-- Node26&#45;&gt;Node28 -->
<g id="edge38" class="edge">
<title>Node26&#45;&gt;Node28</title>
<path fill="none" stroke="#191970" d="M840.0816,-224.3733C857.7402,-215.4644 884.2053,-202.1127 904.2098,-192.0203"/>
<polygon fill="#191970" stroke="#191970" points="905.8158,-195.1303 913.1674,-187.5011 902.6628,-188.8806 905.8158,-195.1303"/>
</g>
<!-- Node27&#45;&gt;Node9 -->
<g id="edge37" class="edge">
<title>Node27&#45;&gt;Node9</title>
<path fill="none" stroke="#191970" d="M1073.2599,-168.4369C1035.7552,-158.9335 978.1201,-144.3291 937.5176,-134.0407"/>
<polygon fill="#191970" stroke="#191970" points="938.1379,-130.5873 927.5845,-131.5237 936.4184,-137.3728 938.1379,-130.5873"/>
</g>
<!-- Node28&#45;&gt;Node5 -->
<g id="edge46" class="edge">
<title>Node28&#45;&gt;Node5</title>
<path fill="none" stroke="#191970" d="M902.3255,-168.4183C875.5904,-159.5879 835.3312,-145.7984 801,-132 781.0686,-123.9892 777.3509,-118.8754 757,-112 698.7818,-92.3313 628.2633,-78.3571 588.1173,-71.2842"/>
<polygon fill="#191970" stroke="#191970" points="588.5629,-67.8094 578.1128,-69.5542 587.3702,-74.707 588.5629,-67.8094"/>
</g>
<!-- Node28&#45;&gt;Node29 -->
<g id="edge39" class="edge">
<title>Node28&#45;&gt;Node29</title>
<path fill="none" stroke="#191970" d="M955.5511,-168.3733C977.8391,-159.2629 1011.4937,-145.5062 1036.3637,-135.3404"/>
<polygon fill="#191970" stroke="#191970" points="1037.8239,-138.5247 1045.7562,-131.5011 1035.1753,-132.0451 1037.8239,-138.5247"/>
</g>
<!-- Node29&#45;&gt;Node5 -->
<g id="edge43" class="edge">
<title>Node29&#45;&gt;Node5</title>
<path fill="none" stroke="#191970" d="M988.4713,-112.9379C985.6125,-112.6206 982.7818,-112.3072 980,-112 833.6955,-95.8444 658.9345,-77.041 588.1367,-69.4441"/>
<polygon fill="#191970" stroke="#191970" points="588.3897,-65.9513 578.0734,-68.3647 587.643,-72.9114 588.3897,-65.9513"/>
</g>
<!-- Node29&#45;&gt;Node10 -->
<g id="edge40" class="edge">
<title>Node29&#45;&gt;Node10</title>
<path fill="none" stroke="#191970" d="M1097.5364,-112.3733C1125.0202,-103.1016 1166.7686,-89.0178 1197.0452,-78.804"/>
<polygon fill="#191970" stroke="#191970" points="1198.4794,-82.0141 1206.836,-75.5011 1196.2418,-75.3813 1198.4794,-82.0141"/>
</g>
<!-- Node29&#45;&gt;Node13 -->
<g id="edge41" class="edge">
<title>Node29&#45;&gt;Node13</title>
<path fill="none" stroke="#191970" d="M1067.1243,-112.4509C1063.5199,-94.1013 1055.5625,-53.5908 1050.8047,-29.3693"/>
<polygon fill="#191970" stroke="#191970" points="1054.2329,-28.6627 1048.871,-19.5249 1047.3641,-30.012 1054.2329,-28.6627"/>
</g>
<!-- Node29&#45;&gt;Node21 -->
<g id="edge45" class="edge">
<title>Node29&#45;&gt;Node21</title>
<path fill="none" stroke="#191970" d="M1059.2455,-112.2455C1051.1352,-104.1352 1039.4075,-92.4075 1029.7919,-82.7919"/>
<polygon fill="#191970" stroke="#191970" points="1032.1887,-80.2389 1022.6427,-75.6427 1027.2389,-85.1887 1032.1887,-80.2389"/>
</g>
<!-- Node29&#45;&gt;Node22 -->
<g id="edge42" class="edge">
<title>Node29&#45;&gt;Node22</title>
<path fill="none" stroke="#191970" d="M1047.1679,-112.3733C1026.6897,-103.3435 995.8601,-89.7494 972.8681,-79.6111"/>
<polygon fill="#191970" stroke="#191970" points="974.1093,-76.3333 963.5472,-75.5011 971.285,-82.7383 974.1093,-76.3333"/>
</g>
<!-- Node30 -->
<g id="node31" class="node">
<title>Node30</title>
<polygon fill="none" stroke="#bfbfbf" points="1097,-56.5 1097,-75.5 1157,-75.5 1157,-56.5 1097,-56.5"/>
<text text-anchor="middle" x="1127" y="-63.5" font-family="FreeSans.ttf" font-size="10.00" fill="#000000">iostream</text>
</g>
<!-- Node29&#45;&gt;Node30 -->
<g id="edge44" class="edge">
<title>Node29&#45;&gt;Node30</title>
<path fill="none" stroke="#191970" d="M1079.1028,-112.2455C1087.5028,-104.1352 1099.6494,-92.4075 1109.6084,-82.7919"/>
<polygon fill="#191970" stroke="#191970" points="1112.25,-85.1066 1117.0129,-75.6427 1107.3878,-80.0707 1112.25,-85.1066"/>
</g>
<!-- Node31&#45;&gt;Node5 -->
<g id="edge54" class="edge">
<title>Node31&#45;&gt;Node5</title>
<path fill="none" stroke="#191970" d="M532.0767,-392.2094C521.1666,-373.2164 499,-329.7379 499,-290 499,-290 499,-290 499,-178 499,-141.1826 523.7675,-104.2377 540.6501,-83.3313"/>
<polygon fill="#191970" stroke="#191970" points="543.3511,-85.5574 547.0938,-75.6456 537.9869,-81.06 543.3511,-85.5574"/>
</g>
<!-- Node31&#45;&gt;Node7 -->
<g id="edge55" class="edge">
<title>Node31&#45;&gt;Node7</title>
<path fill="none" stroke="#191970" d="M539.1084,-392.4509C541.2286,-374.184 545.898,-333.9553 548.7137,-309.6976"/>
<polygon fill="#191970" stroke="#191970" points="552.218,-309.8618 549.8944,-299.5249 545.2647,-309.0546 552.218,-309.8618"/>
</g>
<!-- Node31&#45;&gt;Node23 -->
<g id="edge56" class="edge">
<title>Node31&#45;&gt;Node23</title>
<path fill="none" stroke="#191970" d="M574.2722,-392.3733C609.9658,-382.9001 664.5879,-368.4032 703.2451,-358.1435"/>
<polygon fill="#191970" stroke="#191970" points="704.4336,-361.4493 713.2011,-355.5011 702.6379,-354.6835 704.4336,-361.4493"/>
</g>
<!-- Node32 -->
<g id="node33" class="node">
<title>Node32</title>
<polygon fill="none" stroke="#bfbfbf" points="566.5,-336.5 566.5,-355.5 615.5,-355.5 615.5,-336.5 566.5,-336.5"/>
<text text-anchor="middle" x="591" y="-343.5" font-family="FreeSans.ttf" font-size="10.00" fill="#000000">cstdlib</text>
</g>
<!-- Node31&#45;&gt;Node32 -->
<g id="edge53" class="edge">
<title>Node31&#45;&gt;Node32</title>
<path fill="none" stroke="#191970" d="M547.2319,-392.2455C554.8317,-384.2155 565.7877,-372.6394 574.8368,-363.0781"/>
<polygon fill="#191970" stroke="#191970" points="577.5421,-365.3115 581.8739,-355.6427 572.458,-360.4998 577.5421,-365.3115"/>
</g>
<!-- Node33&#45;&gt;Node2 -->
<g id="edge62" class="edge">
<title>Node33&#45;&gt;Node2</title>
<path fill="none" stroke="#191970" d="M201.2789,-448.4509C203.7254,-430.184 209.1131,-389.9553 212.3619,-365.6976"/>
<polygon fill="#191970" stroke="#191970" points="215.8659,-365.901 213.7243,-355.5249 208.9278,-364.9718 215.8659,-365.901"/>
</g>
<!-- Node34&#45;&gt;Node2 -->
<g id="edge65" class="edge">
<title>Node34&#45;&gt;Node2</title>
<path fill="none" stroke="#191970" d="M99.895,-392.3733C122.5082,-383.2629 156.6542,-369.5062 181.8873,-359.3404"/>
<polygon fill="#191970" stroke="#191970" points="183.4493,-362.4845 191.4169,-355.5011 180.8334,-355.9917 183.4493,-362.4845"/>
</g>
<!-- Node34&#45;&gt;Node6 -->
<g id="edge66" class="edge">
<title>Node34&#45;&gt;Node6</title>
<path fill="none" stroke="#191970" d="M76.7673,-392.4509C78.2352,-374.184 81.4679,-333.9553 83.4172,-309.6976"/>
<polygon fill="#191970" stroke="#191970" points="86.9223,-309.7731 84.2346,-299.5249 79.9448,-309.2124 86.9223,-309.7731"/>
</g>
<!-- Node35&#45;&gt;Node5 -->
<g id="edge68" class="edge">
<title>Node35&#45;&gt;Node5</title>
<path fill="none" stroke="#191970" d="M78.9137,-224.3419C101.4421,-200.6236 163.5443,-139.4521 229,-112 281.927,-89.8025 452.0915,-74.1886 523.7312,-68.4383"/>
<polygon fill="#191970" stroke="#191970" points="524.2624,-71.9074 533.9559,-67.6312 523.7114,-64.9291 524.2624,-71.9074"/>
</g>
</g>
</svg>
