<?xml version="1.0" encoding="UTF-8" standalone="no"?>
<!DOCTYPE svg PUBLIC "-//W3C//DTD SVG 1.1//EN"
 "http://www.w3.org/Graphics/SVG/1.1/DTD/svg11.dtd">
<!-- Generated by graphviz version 2.40.1 (20161225.0304)
 -->
<!-- Title: YARPConfigurationsLoader.h Pages: 1 -->
<svg width="854pt" height="308pt"
 viewBox="0.00 0.00 853.50 308.00" xmlns="http://www.w3.org/2000/svg" xmlns:xlink="http://www.w3.org/1999/xlink">
<g id="graph0" class="graph" transform="scale(1 1) rotate(0) translate(4 304)">
<title>YARPConfigurationsLoader.h</title>
<!-- Node0 -->
<g id="node1" class="node">
<title>Node0</title>
<polygon fill="#bfbfbf" stroke="#000000" points="640,-280.5 640,-299.5 793,-299.5 793,-280.5 640,-280.5"/>
<text text-anchor="middle" x="716.5" y="-287.5" font-family="FreeSans.ttf" font-size="10.00" fill="#000000">YARPConfigurationsLoader.h</text>
</g>
<!-- Node1 -->
<g id="node2" class="node">
<title>Node1</title>
<polygon fill="none" stroke="#bfbfbf" points="511,-224.5 511,-243.5 630,-243.5 630,-224.5 511,-224.5"/>
<text text-anchor="middle" x="570.5" y="-231.5" font-family="FreeSans.ttf" font-size="10.00" fill="#000000">yarp/os/Searchable.h</text>
</g>
<!-- Node0&#45;&gt;Node1 -->
<g id="edge1" class="edge">
<title>Node0&#45;&gt;Node1</title>
<path fill="none" stroke="#191970" d="M691.4017,-280.3733C667.5445,-271.2226 631.4665,-257.3844 604.929,-247.2057"/>
<polygon fill="#191970" stroke="#191970" points="605.861,-243.8145 595.2708,-243.5011 603.3541,-250.3503 605.861,-243.8145"/>
</g>
<!-- Node2 -->
<g id="node3" class="node">
<title>Node2</title>
<g id="a_node3"><a xlink:href="Rotation_8h.html" target="_top" xlink:title="iDynTree/Core/Rotation.h">
<polygon fill="none" stroke="#000000" points="648,-224.5 648,-243.5 785,-243.5 785,-224.5 648,-224.5"/>
<text text-anchor="middle" x="716.5" y="-231.5" font-family="FreeSans.ttf" font-size="10.00" fill="#000000">iDynTree/Core/Rotation.h</text>
</a>
</g>
</g>
<!-- Node0&#45;&gt;Node2 -->
<g id="edge2" class="edge">
<title>Node0&#45;&gt;Node2</title>
<path fill="none" stroke="#191970" d="M716.5,-280.2455C716.5,-272.9382 716.5,-262.6944 716.5,-253.7046"/>
<polygon fill="#191970" stroke="#191970" points="720.0001,-253.6426 716.5,-243.6427 713.0001,-253.6427 720.0001,-253.6426"/>
</g>
<!-- Node3 -->
<g id="node4" class="node">
<title>Node3</title>
<polygon fill="none" stroke="#bfbfbf" points="801.5,-56.5 801.5,-75.5 845.5,-75.5 845.5,-56.5 801.5,-56.5"/>
<text text-anchor="middle" x="823.5" y="-63.5" font-family="FreeSans.ttf" font-size="10.00" fill="#000000">string</text>
</g>
<!-- Node0&#45;&gt;Node3 -->
<g id="edge32" class="edge">
<title>Node0&#45;&gt;Node3</title>
<path fill="none" stroke="#191970" d="M739.998,-280.4041C756.8341,-272.5935 779.1546,-260.2137 794.5,-244 813.7664,-223.6435 813.3705,-214.1338 823.5,-188 835.9429,-155.8977 843.9039,-146.0027 838.5,-112 837.0699,-103.0016 834.1588,-93.3703 831.2784,-85.2579"/>
<polygon fill="#191970" stroke="#191970" points="834.4537,-83.7599 827.6368,-75.6493 827.908,-86.2407 834.4537,-83.7599"/>
</g>
<!-- Node2&#45;&gt;Node3 -->
<g id="edge3" class="edge">
<title>Node2&#45;&gt;Node3</title>
<path fill="none" stroke="#191970" d="M750.8597,-224.4519C769.6462,-217.4358 791.6462,-205.9358 804.5,-188 826.3628,-157.4931 827.2076,-111.6471 825.5576,-85.7147"/>
<polygon fill="#191970" stroke="#191970" points="829.0354,-85.3012 824.7213,-75.6246 822.0594,-85.8795 829.0354,-85.3012"/>
</g>
<!-- Node4 -->
<g id="node5" class="node">
<title>Node4</title>
<g id="a_node5"><a xlink:href="GeomVector3_8h.html" target="_top" xlink:title="iDynTree/Core/GeomVector3.h">
<polygon fill="none" stroke="#000000" points="456,-168.5 456,-187.5 619,-187.5 619,-168.5 456,-168.5"/>
<text text-anchor="middle" x="537.5" y="-175.5" font-family="FreeSans.ttf" font-size="10.00" fill="#000000">iDynTree/Core/GeomVector3.h</text>
</a>
</g>
</g>
<!-- Node2&#45;&gt;Node4 -->
<g id="edge4" class="edge">
<title>Node2&#45;&gt;Node4</title>
<path fill="none" stroke="#191970" d="M685.7288,-224.3733C655.835,-215.021 610.2907,-200.7725 577.5783,-190.5385"/>
<polygon fill="#191970" stroke="#191970" points="578.4586,-187.1466 567.8697,-187.5011 576.3685,-193.8273 578.4586,-187.1466"/>
</g>
<!-- Node5 -->
<g id="node6" class="node">
<title>Node5</title>
<g id="a_node6"><a xlink:href="VectorFixSize_8h.html" target="_top" xlink:title="iDynTree/Core/VectorFixSize.h">
<polygon fill="none" stroke="#000000" points="383,-112.5 383,-131.5 544,-131.5 544,-112.5 383,-112.5"/>
<text text-anchor="middle" x="463.5" y="-119.5" font-family="FreeSans.ttf" font-size="10.00" fill="#000000">iDynTree/Core/VectorFixSize.h</text>
</a>
</g>
</g>
<!-- Node2&#45;&gt;Node5 -->
<g id="edge31" class="edge">
<title>Node2&#45;&gt;Node5</title>
<path fill="none" stroke="#191970" d="M647.7672,-224.5283C569.9432,-213.473 453.0174,-195.7217 446.5,-188 435.2311,-174.6488 442.6171,-154.7424 450.8873,-140.2842"/>
<polygon fill="#191970" stroke="#191970" points="453.9253,-142.0274 456.2625,-131.6935 447.9911,-138.3143 453.9253,-142.0274"/>
</g>
<!-- Node19 -->
<g id="node20" class="node">
<title>Node19</title>
<g id="a_node20"><a xlink:href="RotationRaw_8h.html" target="_top" xlink:title="iDynTree/Core/RotationRaw.h">
<polygon fill="none" stroke="#000000" points="637.5,-168.5 637.5,-187.5 795.5,-187.5 795.5,-168.5 637.5,-168.5"/>
<text text-anchor="middle" x="716.5" y="-175.5" font-family="FreeSans.ttf" font-size="10.00" fill="#000000">iDynTree/Core/RotationRaw.h</text>
</a>
</g>
</g>
<!-- Node2&#45;&gt;Node19 -->
<g id="edge22" class="edge">
<title>Node2&#45;&gt;Node19</title>
<path fill="none" stroke="#191970" d="M716.5,-224.2455C716.5,-216.9382 716.5,-206.6944 716.5,-197.7046"/>
<polygon fill="#191970" stroke="#191970" points="720.0001,-197.6426 716.5,-187.6427 713.0001,-197.6427 720.0001,-197.6426"/>
</g>
<!-- Node4&#45;&gt;Node5 -->
<g id="edge5" class="edge">
<title>Node4&#45;&gt;Node5</title>
<path fill="none" stroke="#191970" d="M524.6102,-168.2455C513.5746,-159.8943 497.4708,-147.7076 484.5647,-137.9408"/>
<polygon fill="#191970" stroke="#191970" points="486.3283,-134.8862 476.2421,-131.6427 482.1041,-140.4681 486.3283,-134.8862"/>
</g>
<!-- Node5&#45;&gt;Node3 -->
<g id="edge18" class="edge">
<title>Node5&#45;&gt;Node3</title>
<path fill="none" stroke="#191970" d="M524.9772,-112.4369C602.0818,-100.4428 731.4183,-80.3238 791.2902,-71.0104"/>
<polygon fill="#191970" stroke="#191970" points="791.9539,-74.4494 801.297,-69.4538 790.8779,-67.5325 791.9539,-74.4494"/>
</g>
<!-- Node6 -->
<g id="node7" class="node">
<title>Node6</title>
<g id="a_node7"><a xlink:href="Utils_8h.html" target="_top" xlink:title="iDynTree/Core/Utils.h">
<polygon fill="none" stroke="#000000" points="548,-56.5 548,-75.5 667,-75.5 667,-56.5 548,-56.5"/>
<text text-anchor="middle" x="607.5" y="-63.5" font-family="FreeSans.ttf" font-size="10.00" fill="#000000">iDynTree/Core/Utils.h</text>
</a>
</g>
</g>
<!-- Node5&#45;&gt;Node6 -->
<g id="edge6" class="edge">
<title>Node5&#45;&gt;Node6</title>
<path fill="none" stroke="#191970" d="M488.2545,-112.3733C511.7849,-103.2226 547.3687,-89.3844 573.5426,-79.2057"/>
<polygon fill="#191970" stroke="#191970" points="575.0171,-82.3877 583.0685,-75.5011 572.4799,-75.8636 575.0171,-82.3877"/>
</g>
<!-- Node8 -->
<g id="node9" class="node">
<title>Node8</title>
<g id="a_node9"><a xlink:href="Span_8h.html" target="_top" xlink:title="iDynTree/Core/Span.h">
<polygon fill="none" stroke="#000000" points="228,-56.5 228,-75.5 349,-75.5 349,-56.5 228,-56.5"/>
<text text-anchor="middle" x="288.5" y="-63.5" font-family="FreeSans.ttf" font-size="10.00" fill="#000000">iDynTree/Core/Span.h</text>
</a>
</g>
</g>
<!-- Node5&#45;&gt;Node8 -->
<g id="edge8" class="edge">
<title>Node5&#45;&gt;Node8</title>
<path fill="none" stroke="#191970" d="M433.4164,-112.3733C404.3166,-103.0613 360.0477,-88.8953 328.097,-78.671"/>
<polygon fill="#191970" stroke="#191970" points="328.782,-75.2155 318.191,-75.5011 326.6485,-81.8824 328.782,-75.2155"/>
</g>
<!-- Node9 -->
<g id="node10" class="node">
<title>Node9</title>
<polygon fill="none" stroke="#bfbfbf" points="581.5,-.5 581.5,-19.5 633.5,-19.5 633.5,-.5 581.5,-.5"/>
<text text-anchor="middle" x="607.5" y="-7.5" font-family="FreeSans.ttf" font-size="10.00" fill="#000000">cassert</text>
</g>
<!-- Node5&#45;&gt;Node9 -->
<g id="edge20" class="edge">
<title>Node5&#45;&gt;Node9</title>
<path fill="none" stroke="#191970" d="M440.8614,-112.3761C415.0996,-100.0781 378.7549,-77.7671 396.5,-56 446.6741,5.5463 494.3117,-38.6371 571.5,-20 571.5985,-19.9762 571.6972,-19.9523 571.796,-19.9284"/>
<polygon fill="#191970" stroke="#191970" points="572.3842,-23.3906 581.2078,-17.5259 570.6528,-16.608 572.3842,-23.3906"/>
</g>
<!-- Node17 -->
<g id="node18" class="node">
<title>Node17</title>
<polygon fill="none" stroke="#bfbfbf" points="473.5,-56.5 473.5,-75.5 529.5,-75.5 529.5,-56.5 473.5,-56.5"/>
<text text-anchor="middle" x="501.5" y="-63.5" font-family="FreeSans.ttf" font-size="10.00" fill="#000000">sstream</text>
</g>
<!-- Node5&#45;&gt;Node17 -->
<g id="edge19" class="edge">
<title>Node5&#45;&gt;Node17</title>
<path fill="none" stroke="#191970" d="M470.1191,-112.2455C475.4046,-104.4564 482.9541,-93.3308 489.3238,-83.9439"/>
<polygon fill="#191970" stroke="#191970" points="492.2379,-85.8827 494.9568,-75.6427 486.4455,-81.9522 492.2379,-85.8827"/>
</g>
<!-- Node18 -->
<g id="node19" class="node">
<title>Node18</title>
<polygon fill="none" stroke="#bfbfbf" points="405.5,-56.5 405.5,-75.5 455.5,-75.5 455.5,-56.5 405.5,-56.5"/>
<text text-anchor="middle" x="430.5" y="-63.5" font-family="FreeSans.ttf" font-size="10.00" fill="#000000">cstring</text>
</g>
<!-- Node5&#45;&gt;Node18 -->
<g id="edge21" class="edge">
<title>Node5&#45;&gt;Node18</title>
<path fill="none" stroke="#191970" d="M457.7518,-112.2455C453.2565,-104.617 446.8752,-93.7881 441.4175,-84.5267"/>
<polygon fill="#191970" stroke="#191970" points="444.2747,-82.4811 436.1823,-75.6427 438.2439,-86.035 444.2747,-82.4811"/>
</g>
<!-- Node7 -->
<g id="node8" class="node">
<title>Node7</title>
<polygon fill="none" stroke="#bfbfbf" points="510,-.5 510,-19.5 563,-19.5 563,-.5 510,-.5"/>
<text text-anchor="middle" x="536.5" y="-7.5" font-family="FreeSans.ttf" font-size="10.00" fill="#000000">cstddef</text>
</g>
<!-- Node6&#45;&gt;Node7 -->
<g id="edge7" class="edge">
<title>Node6&#45;&gt;Node7</title>
<path fill="none" stroke="#191970" d="M595.1327,-56.2455C584.5446,-47.8943 569.0936,-35.7076 556.7107,-25.9408"/>
<polygon fill="#191970" stroke="#191970" points="558.7447,-23.0875 548.7255,-19.6427 554.4097,-28.5837 558.7447,-23.0875"/>
</g>
<!-- Node8&#45;&gt;Node7 -->
<g id="edge12" class="edge">
<title>Node8&#45;&gt;Node7</title>
<path fill="none" stroke="#191970" d="M336.2519,-56.4534C377.1497,-48.0937 437.8287,-35.2576 499.8464,-20.0571"/>
<polygon fill="#191970" stroke="#191970" points="500.939,-23.3926 509.8085,-17.5976 499.2611,-16.5966 500.939,-23.3926"/>
</g>
<!-- Node8&#45;&gt;Node9 -->
<g id="edge9" class="edge">
<title>Node8&#45;&gt;Node9</title>
<path fill="none" stroke="#191970" d="M349.1727,-56.9379C419.2636,-46.3279 530.2341,-29.0565 571.5,-20 571.599,-19.9783 571.6981,-19.9564 571.7974,-19.9345"/>
<polygon fill="#191970" stroke="#191970" points="572.3389,-23.4045 581.2373,-17.654 570.695,-16.6002 572.3389,-23.4045"/>
</g>
<!-- Node10 -->
<g id="node11" class="node">
<title>Node10</title>
<polygon fill="none" stroke="#bfbfbf" points="367.5,-.5 367.5,-19.5 431.5,-19.5 431.5,-.5 367.5,-.5"/>
<text text-anchor="middle" x="399.5" y="-7.5" font-family="FreeSans.ttf" font-size="10.00" fill="#000000">algorithm</text>
</g>
<!-- Node8&#45;&gt;Node10 -->
<g id="edge10" class="edge">
<title>Node8&#45;&gt;Node10</title>
<path fill="none" stroke="#191970" d="M307.5816,-56.3733C325.2402,-47.4644 351.7053,-34.1127 371.7098,-24.0203"/>
<polygon fill="#191970" stroke="#191970" points="373.3158,-27.1303 380.6674,-19.5011 370.1628,-20.8806 373.3158,-27.1303"/>
</g>
<!-- Node11 -->
<g id="node12" class="node">
<title>Node11</title>
<polygon fill="none" stroke="#bfbfbf" points="449.5,-.5 449.5,-19.5 491.5,-19.5 491.5,-.5 449.5,-.5"/>
<text text-anchor="middle" x="470.5" y="-7.5" font-family="FreeSans.ttf" font-size="10.00" fill="#000000">array</text>
</g>
<!-- Node8&#45;&gt;Node11 -->
<g id="edge11" class="edge">
<title>Node8&#45;&gt;Node11</title>
<path fill="none" stroke="#191970" d="M320.901,-56.4792C349.7426,-47.9414 393.3071,-34.8922 439.613,-20.228"/>
<polygon fill="#191970" stroke="#191970" points="440.7485,-23.5397 449.2186,-17.1752 438.6282,-16.8685 440.7485,-23.5397"/>
</g>
<!-- Node12 -->
<g id="node13" class="node">
<title>Node12</title>
<polygon fill="none" stroke="#bfbfbf" points="0,-.5 0,-19.5 53,-19.5 53,-.5 0,-.5"/>
<text text-anchor="middle" x="26.5" y="-7.5" font-family="FreeSans.ttf" font-size="10.00" fill="#000000">iterator</text>
</g>
<!-- Node8&#45;&gt;Node12 -->
<g id="edge13" class="edge">
<title>Node8&#45;&gt;Node12</title>
<path fill="none" stroke="#191970" d="M236.2081,-56.4349C192.4986,-48.1958 128.3197,-35.5344 63.2134,-20.0439"/>
<polygon fill="#191970" stroke="#191970" points="63.7228,-16.5668 53.1821,-17.6361 62.089,-23.3735 63.7228,-16.5668"/>
</g>
<!-- Node13 -->
<g id="node14" class="node">
<title>Node13</title>
<polygon fill="none" stroke="#bfbfbf" points="71.5,-.5 71.5,-19.5 115.5,-19.5 115.5,-.5 71.5,-.5"/>
<text text-anchor="middle" x="93.5" y="-7.5" font-family="FreeSans.ttf" font-size="10.00" fill="#000000">limits</text>
</g>
<!-- Node8&#45;&gt;Node13 -->
<g id="edge14" class="edge">
<title>Node8&#45;&gt;Node13</title>
<path fill="none" stroke="#191970" d="M252.875,-56.4335C221.6585,-47.9565 174.8385,-35.0154 125.6782,-20.2828"/>
<polygon fill="#191970" stroke="#191970" points="126.4034,-16.846 115.8188,-17.3132 124.3845,-23.5485 126.4034,-16.846"/>
</g>
<!-- Node14 -->
<g id="node15" class="node">
<title>Node14</title>
<polygon fill="none" stroke="#bfbfbf" points="134,-.5 134,-19.5 199,-19.5 199,-.5 134,-.5"/>
<text text-anchor="middle" x="166.5" y="-7.5" font-family="FreeSans.ttf" font-size="10.00" fill="#000000">stdexcept</text>
</g>
<!-- Node8&#45;&gt;Node14 -->
<g id="edge15" class="edge">
<title>Node8&#45;&gt;Node14</title>
<path fill="none" stroke="#191970" d="M267.5275,-56.3733C247.9433,-47.3838 218.5039,-33.8706 196.449,-23.7471"/>
<polygon fill="#191970" stroke="#191970" points="197.7473,-20.4919 187.1989,-19.5011 194.8271,-26.8538 197.7473,-20.4919"/>
</g>
<!-- Node15 -->
<g id="node16" class="node">
<title>Node15</title>
<polygon fill="none" stroke="#bfbfbf" points="217,-.5 217,-19.5 286,-19.5 286,-.5 217,-.5"/>
<text text-anchor="middle" x="251.5" y="-7.5" font-family="FreeSans.ttf" font-size="10.00" fill="#000000">type_traits</text>
</g>
<!-- Node8&#45;&gt;Node15 -->
<g id="edge16" class="edge">
<title>Node8&#45;&gt;Node15</title>
<path fill="none" stroke="#191970" d="M282.0551,-56.2455C276.9618,-48.5367 269.7092,-37.5598 263.548,-28.2348"/>
<polygon fill="#191970" stroke="#191970" points="266.3038,-26.0566 257.8711,-19.6427 260.4635,-29.9155 266.3038,-26.0566"/>
</g>
<!-- Node16 -->
<g id="node17" class="node">
<title>Node16</title>
<polygon fill="none" stroke="#bfbfbf" points="304,-.5 304,-19.5 349,-19.5 349,-.5 304,-.5"/>
<text text-anchor="middle" x="326.5" y="-7.5" font-family="FreeSans.ttf" font-size="10.00" fill="#000000">utility</text>
</g>
<!-- Node8&#45;&gt;Node16 -->
<g id="edge17" class="edge">
<title>Node8&#45;&gt;Node16</title>
<path fill="none" stroke="#191970" d="M295.1191,-56.2455C300.4046,-48.4564 307.9541,-37.3308 314.3238,-27.9439"/>
<polygon fill="#191970" stroke="#191970" points="317.2379,-29.8827 319.9568,-19.6427 311.4455,-25.9522 317.2379,-29.8827"/>
</g>
<!-- Node19&#45;&gt;Node3 -->
<g id="edge30" class="edge">
<title>Node19&#45;&gt;Node3</title>
<path fill="none" stroke="#191970" d="M727.5659,-168.4754C737.9289,-159.4049 753.6946,-145.2139 766.5,-132 781.7117,-116.303 797.8949,-97.3194 809.1156,-83.7488"/>
<polygon fill="#191970" stroke="#191970" points="812.0795,-85.654 815.7125,-75.7016 806.666,-81.2162 812.0795,-85.654"/>
</g>
<!-- Node20 -->
<g id="node21" class="node">
<title>Node20</title>
<g id="a_node21"><a xlink:href="MatrixFixSize_8h.html" target="_top" xlink:title="iDynTree/Core/MatrixFixSize.h">
<polygon fill="none" stroke="#000000" points="596,-112.5 596,-131.5 757,-131.5 757,-112.5 596,-112.5"/>
<text text-anchor="middle" x="676.5" y="-119.5" font-family="FreeSans.ttf" font-size="10.00" fill="#000000">iDynTree/Core/MatrixFixSize.h</text>
</a>
</g>
</g>
<!-- Node19&#45;&gt;Node20 -->
<g id="edge23" class="edge">
<title>Node19&#45;&gt;Node20</title>
<path fill="none" stroke="#191970" d="M709.5325,-168.2455C703.9689,-160.4564 696.022,-149.3308 689.3171,-139.9439"/>
<polygon fill="#191970" stroke="#191970" points="692.0481,-137.7457 683.3876,-131.6427 686.352,-141.8144 692.0481,-137.7457"/>
</g>
<!-- Node20&#45;&gt;Node3 -->
<g id="edge27" class="edge">
<title>Node20&#45;&gt;Node3</title>
<path fill="none" stroke="#191970" d="M701.7702,-112.3733C726.7739,-102.848 765.1101,-88.2438 792.0662,-77.9748"/>
<polygon fill="#191970" stroke="#191970" points="793.3378,-81.2358 801.4367,-74.4051 790.8458,-74.6944 793.3378,-81.2358"/>
</g>
<!-- Node20&#45;&gt;Node6 -->
<g id="edge24" class="edge">
<title>Node20&#45;&gt;Node6</title>
<path fill="none" stroke="#191970" d="M664.4811,-112.2455C654.2902,-103.9746 639.4638,-91.9416 627.4893,-82.2232"/>
<polygon fill="#191970" stroke="#191970" points="629.3514,-79.2268 619.3812,-75.6427 624.9402,-84.662 629.3514,-79.2268"/>
</g>
<!-- Node20&#45;&gt;Node9 -->
<g id="edge25" class="edge">
<title>Node20&#45;&gt;Node9</title>
<path fill="none" stroke="#191970" d="M704.0699,-112.478C733.0411,-100.9336 772.1478,-80.0141 754.5,-56 741.2717,-37.9997 682.7006,-23.9021 643.6038,-16.2799"/>
<polygon fill="#191970" stroke="#191970" points="644.1118,-12.814 633.6354,-14.3934 642.8101,-19.6919 644.1118,-12.814"/>
</g>
<!-- Node20&#45;&gt;Node17 -->
<g id="edge29" class="edge">
<title>Node20&#45;&gt;Node17</title>
<path fill="none" stroke="#191970" d="M646.4164,-112.3733C616.8757,-102.9202 571.7027,-88.4649 539.6532,-78.209"/>
<polygon fill="#191970" stroke="#191970" points="540.3361,-74.7528 529.7451,-75.0384 538.2026,-81.4197 540.3361,-74.7528"/>
</g>
<!-- Node20&#45;&gt;Node18 -->
<g id="edge26" class="edge">
<title>Node20&#45;&gt;Node18</title>
<path fill="none" stroke="#191970" d="M627.8514,-112.487C586.9196,-104.2479 526.6545,-91.5709 465.5125,-76.1321"/>
<polygon fill="#191970" stroke="#191970" points="466.2495,-72.7082 455.6949,-73.6309 464.5212,-79.4915 466.2495,-72.7082"/>
</g>
<!-- Node21 -->
<g id="node22" class="node">
<title>Node21</title>
<polygon fill="none" stroke="#bfbfbf" points="685.5,-56.5 685.5,-75.5 745.5,-75.5 745.5,-56.5 685.5,-56.5"/>
<text text-anchor="middle" x="715.5" y="-63.5" font-family="FreeSans.ttf" font-size="10.00" fill="#000000">iostream</text>
</g>
<!-- Node20&#45;&gt;Node21 -->
<g id="edge28" class="edge">
<title>Node20&#45;&gt;Node21</title>
<path fill="none" stroke="#191970" d="M683.2933,-112.2455C688.7178,-104.4564 696.4661,-93.3308 703.0033,-83.9439"/>
<polygon fill="#191970" stroke="#191970" points="705.9417,-85.849 708.7846,-75.6427 700.1975,-81.8485 705.9417,-85.849"/>
</g>
</g>
</svg>
